<?xml version="1.0" encoding="UTF-8"?>
<svg id="c" data-name="3DEXCITE" xmlns="http://www.w3.org/2000/svg" viewBox="0 0 87 20">
  <rect width="87" height="20"/>
  <g>
    <path d="M17.036,7.805c-1.206-.197-3.323-.271-4.036,.837-.566,.861,.492,2.043,1.452,3.199,.788,.911,1.624,1.772,1.28,2.289-.296,.418-2.093,.418-2.708,.443-.738,.049-1.846,.049-2.018,.148-.173,.098-.271,.369,.369,.492,.517,.099,1.722,.271,3.003,.271,1.354,0,2.757-.222,3.077-1.256,.246-.837-.615-1.723-1.354-2.633-.837-.984-1.649-1.698-1.6-2.412,.073-.541,1.132-.566,2.904-.591,.394-.025,1.132-.025,.984-.32-.123-.271-.689-.345-1.354-.468Z" fill="#fff"/>
    <path d="M11.547,10.291c-.763-.517-2.116-.714-3.224-.64-1.01,.049-2.707,.369-2.659,.689,.074,.32,1.157,.221,1.649,.221,1.083,0,2.831,.074,3.101,.788,.591,1.501-3.421,4.233-4.258,3.963-.394-.123,.788-2.092,1.206-2.806,.247-.419,.64-1.083,.295-1.132-.345-.049-.763,.566-1.009,.936-.714,.985-1.453,2.068-2.043,3.15-.173,.345-.764,1.379-.566,1.502,.197,.123,1.108-.049,2.265-.492,3.667-1.452,5.292-3.347,5.735-4.898,.147-.541-.099-1.034-.493-1.28Z" fill="#fff"/>
    <path d="M10.193,3.867c1.255,0,2.486,.221,2.781,.566,.467,.517-.32,1.822-2.732,3.593-.467,.32-.812,.64-.886,.788-.05,.099-.025,.197,.099,.222,.123,.024,.443-.049,.984-.296,2.141-1.058,4.603-3.175,4.111-4.627-.296-.886-1.896-1.157-3.225-1.108-1.354,.074-2.56,.394-2.486,.64,.099,.295,1.009,.222,1.354,.222Z" fill="#fff"/>
    <path d="M27.267,9.225h-4.159l-.241,1.096h2.326l-1.775,1.462-.202,.922h.772c.652,0,.984,.223,.854,.81-.15,.679-.615,.893-1.21,.893-.577,0-1.121-.111-1.602-.251l-.376,1.117c.485,.157,1.077,.26,1.878,.26,1.516,0,2.624-.642,2.945-2.094,.25-1.135-.375-1.591-1.364-1.703l1.935-1.517,.22-.994Z" fill="#fff"/>
    <path d="M31.242,9.225h-3.378l-.017,.1c-.078,.428-.044,.919,.632,.919h2.5c.991,0,1.369,.719,1.126,2.064-.225,1.232-.89,2.174-1.899,2.174h-1.358l.648-3.531h-1.155c-.156,0-.265,.111-.281,.214l-.792,4.336h2.646c1.955,0,3.317-.916,3.737-3.239,.328-1.781-.417-3.036-2.409-3.036Z" fill="#fff"/>
    <path d="M64.231,9.223h-6.822c-.346,0-.364,.107-.374,.164l-.067,.376h3.217l-1.011,5.725h.427c.291,0,.361-.095,.395-.282l.96-5.443h2.948c.209,0,.238-.041,.269-.214l.057-.327Z" fill="#fff"/>
    <path d="M40.024,9.789c.192,0,.384,0,.425-.234l.084-.348h-4.755c-.298,0-.47,.128-.518,.405l-1.005,5.875h5.343l.03-.265c.047-.255-.022-.342-.342-.342h-4.214l.373-2.048h3.726c.106,0,.181-.064,.196-.149l.042-.274c.015-.085-.04-.15-.145-.15h-3.727l.421-2.471h4.066Z" fill="#fff"/>
    <path d="M65.681,9.208c-.298,0-.47,.128-.518,.405l-1.005,5.875h5.343l.03-.265c.047-.255-.022-.342-.342-.342h-4.214l.373-2.048h3.726c.106,0,.181-.064,.196-.149l.042-.274c.015-.085-.04-.15-.145-.15h-3.727l.421-2.471h4.066c.192,0,.384,0,.424-.234l.085-.348h-4.756Z" fill="#fff"/>
    <path d="M55.938,9.333c-.065-.049-.134-.058-.197-.06h-.356l-1.153,6.215h.755l1.035-5.815c.014-.047,.025-.078,.021-.138-.004-.067-.043-.155-.106-.202Z" fill="#fff"/>
    <path d="M48.574,9.199h-.324c-.514,0-1.15,.334-1.346,.512l-2.497,2.148-1.973-2.248c-.248-.29-.599-.413-1.175-.413h-.13l2.723,3.137-3.721,3.158h.372c.63,0,.874-.074,1.244-.375l2.549-2.262,1.944,2.224c.248,.29,.599,.413,1.175,.413h.13l-2.701-3.121,3.731-3.174Z" fill="#fff"/>
    <path d="M51.778,9.315c-2.203,0-3.664,1.105-4.007,3.032-.178,1.011-.051,1.78,.378,2.287,.48,.567,1.374,.854,2.659,.854h2.47l.034-.202c.035-.231-.024-.323-.314-.323h-2.198c-.553,0-1.538-.192-1.846-.554-.402-.474-.471-1.226-.317-2.118,.287-1.58,1.528-2.448,2.849-2.448h2.175c.473,0,.501-.154,.52-.256l.052-.272h-2.455Z" fill="#fff"/>
  </g>
</svg>