<?xml version="1.0" encoding="UTF-8"?>
<svg id="a" data-name="CENTRIC PLM" xmlns="http://www.w3.org/2000/svg" viewBox="0 0 100 20">
  <rect width="100" height="20"/>
  <g>
    <path d="M10.252,3.855c1.272,0,2.497,.234,2.789,.569,.456,.525-.33,1.819-2.746,3.584-.464,.339-.809,.65-.886,.803-.042,.081-.022,.2,.105,.216,.133,.017,.452-.053,.978-.308,2.147-1.041,4.61-3.162,4.124-4.617-.297-.887-1.888-1.155-3.233-1.096-1.336,.059-2.554,.379-2.478,.624,.093,.299,1.001,.224,1.346,.224Z" fill="#fff" fill-rule="evenodd"/>
    <path d="M11.616,10.278c-.763-.523-2.121-.698-3.239-.639-.996,.053-2.708,.369-2.643,.684,.06,.341,1.144,.236,1.641,.236,1.092,0,2.825,.067,3.098,.771,.589,1.516-3.404,4.238-4.255,3.976-.385-.118,.782-2.096,1.206-2.808,.252-.425,.635-1.092,.308-1.137-.366-.05-.769,.578-1.031,.94-.71,.984-1.438,2.059-2.021,3.162-.18,.341-.779,1.368-.573,1.5,.192,.123,1.105-.052,2.266-.513,3.651-1.447,5.294-3.329,5.734-4.885,.155-.548-.112-1.026-.491-1.286Z" fill="#fff" fill-rule="evenodd"/>
    <path d="M17.092,7.801c-1.188-.194-3.312-.27-4.038,.843-.561,.86,.499,2.038,1.465,3.179,.774,.914,1.616,1.788,1.272,2.298-.281,.417-2.081,.416-2.7,.449-.753,.04-1.837,.043-2.026,.145-.17,.091-.265,.376,.373,.49,.512,.092,1.73,.278,3.015,.277,1.342,0,2.752-.22,3.058-1.259,.246-.834-.606-1.729-1.355-2.635-.82-.993-1.65-1.701-1.581-2.405,.054-.547,1.127-.578,2.907-.61,.371-.007,1.108-.024,.966-.317-.127-.258-.678-.344-1.355-.454Z" fill="#fff" fill-rule="evenodd"/>
    <g>
      <g>
        <path d="M27.055,9.232c-2.317,0-3.716,1.254-4.097,3.033-.492,2.318,.705,3.235,2.978,3.235h3.582l.112-.539c.068-.302-.123-.426-.548-.426h-3.067c-1.175,0-1.533-.994-1.275-2.226,.291-1.343,1.041-2.111,2.194-2.111h2.944c.425,0,.662-.123,.728-.425l.122-.542h-3.672Z" fill="#fff"/>
        <path d="M71.415,9.232c-2.317,0-3.716,1.254-4.097,3.033-.492,2.318,.705,3.235,2.978,3.235h3.582l.112-.539c.068-.302-.123-.426-.548-.426h-3.067c-1.175,0-1.533-.994-1.275-2.226,.291-1.343,1.041-2.111,2.194-2.111h2.944c.425,0,.662-.123,.728-.425l.122-.542h-3.672Z" fill="#fff"/>
        <path d="M32.007,9.636l-1.246,5.865h6.334l.132-.627c.055-.256-.013-.341-.33-.341h-4.208l.357-1.682h3.718c.107,0,.184-.064,.202-.149l.142-.668c.018-.085-.034-.149-.138-.149h-3.72l.357-1.68h4.06c.192,0,.383,0,.432-.234l.157-.74h-5.715c-.299,0-.473,.126-.533,.404Z" fill="#fff"/>
        <path d="M47.141,9.232l-1.259,5.866c-.056,.257-.18,.403-.437,.403h-1.266l-2.843-4.444-.874,4.086c-.044,.235-.201,.358-.471,.358h-1.22l1.243-5.865c.056-.258,.19-.403,.447-.403h1.456l2.687,4.231s.789-3.691,.833-3.897c.044-.205,.196-.334,.422-.334h1.281Z" fill="#fff"/>
        <path d="M55.051,9.82l.127-.587h-6.567c-.34,0-.533,.105-.582,.339l-.135,.632h2.699l-1.125,5.297h1.211c.34,0,.536-.127,.606-.445l1.031-4.852h2.253c.319,0,.431-.127,.484-.384Z" fill="#fff"/>
        <path d="M57.491,10.308l.012-.056h2.689c.75,0,1.03,.537,.918,1.086-.146,.66-.572,1.119-1.389,1.119h-2.697l.466-2.149Zm-.869-1.075c-.035,0-.069,.003-.1,.005-.283,.019-.445,.123-.496,.355l-.12,.561-.033,.156-1.109,5.193h1.343c.178,0,.302-.112,.324-.213l.37-1.758h2.082l.828,1.623c.101,.19,.236,.347,.582,.347h1.68l-1.277-2.116c1.097-.291,1.903-.995,2.127-2.059,.291-1.355-.75-2.094-2.43-2.094h-3.77Z" fill="#fff"/>
        <path d="M66.262,9.232c.146,0,.224,.112,.202,.212l-1.276,6.057h-1.623l1.332-6.269h1.365Z" fill="#fff"/>
      </g>
      <g>
        <path d="M79.128,12.821c1.459-.044,1.989-1.303,2.085-1.746,.077-.358,.057-.943-.219-1.261-.484-.554-1.315-.568-2.261-.568h-1.543l-1.36,6.241h.737l.578-2.653,1.982-.013Zm.315-.744c-.381,.102-1.053,.121-1.608,.121-.197-.003-.549-.008-.549-.008l.513-2.353,1.606,.002s.27,.018,.348,.033c.294,.056,.486,.2,.61,.323,.537,.511,.055,1.62-.92,1.883Z" fill="#fff"/>
        <path d="M85.611,15.007c-.029-.072-.106-.13-.17-.148-.033-.01-.058-.013-.082-.013h-3.311l1.108-5.171s.028-.112,.029-.171c0-.067-.04-.155-.103-.201-.064-.048-.132-.056-.196-.057h-.386l-1.362,6.241h4.417l.065-.276c.015-.063,.024-.13-.007-.204Z" fill="#fff"/>
        <path d="M88.375,9.923l-1.196,5.564h-.737l1.258-5.855c.074-.39,.256-.385,.41-.385h.564l2.08,2.572,2.934-2.572c.264,0,.775,0,.799,0,.138,0,.368,.078,.3,.417l-1.33,5.824h-.737l1.271-5.564-2.623,2.285c-.131,.085-.17,.135-.351,.138h-.534c-.144-.006-.194-.025-.244-.063-.067-.052-.127-.111-.183-.174l-1.683-2.186Z" fill="#fff"/>
      </g>
    </g>
  </g>
</svg>