<?xml version="1.0" encoding="UTF-8"?>
<svg id="f" data-name="DELMIA" xmlns="http://www.w3.org/2000/svg" viewBox="0 0 87 20">
  <rect width="87" height="20" fill="#ffcd00"/>
  <g>
    <path d="M11.978,3.508c1.345-.059,2.937,.208,3.233,1.096,.486,1.455-1.977,3.576-4.124,4.617-.526,.255-.845,.325-.978,.308-.127-.016-.146-.135-.105-.216,.077-.153,.423-.465,.886-.803,2.416-1.765,3.202-3.059,2.746-3.584-.293-.336-1.518-.569-2.79-.569-.345,0-1.253,.075-1.346-.224-.076-.245,1.142-.565,2.478-.624Z" fill-rule="evenodd"/>
    <path d="M8.972,10.139c1.118-.058,2.476,.116,3.239,.639,.379,.26,.646,.738,.491,1.286-.44,1.556-2.083,3.438-5.735,4.885-1.161,.46-2.074,.636-2.265,.512-.206-.133,.393-1.159,.573-1.5,.583-1.104,1.311-2.178,2.021-3.162,.262-.362,.665-.99,1.031-.94,.327,.045-.056,.712-.308,1.137-.424,.712-1.59,2.69-1.205,2.808,.851,.262,4.843-2.46,4.254-3.976-.273-.703-2.006-.771-3.098-.771-.497,0-1.581,.105-1.641-.236-.065-.314,1.648-.631,2.643-.684Z" fill-rule="evenodd"/>
    <path d="M17.687,8.301c.677,.11,1.228,.196,1.355,.454,.142,.293-.595,.31-.966,.317-1.78,.031-2.853,.063-2.907,.609-.07,.704,.761,1.412,1.581,2.405,.749,.907,1.601,1.801,1.355,2.636-.306,1.039-1.716,1.259-3.058,1.259-1.286,0-2.504-.185-3.015-.277-.637-.114-.543-.398-.373-.49,.189-.102,1.273-.105,2.026-.145,.62-.033,2.42-.032,2.7-.449,.344-.51-.498-1.383-1.272-2.298-.965-1.141-2.026-2.319-1.465-3.179,.726-1.113,2.851-1.037,4.038-.843Z" fill-rule="evenodd"/>
    <path d="M33.314,10.126l-1.252,5.894h6.364l.132-.63c.055-.257-.011-.343-.333-.343h-4.227l.358-1.691h3.738c.106,0,.184-.064,.202-.149l.143-.67c.018-.086-.034-.151-.139-.151h-3.738l.36-1.688h4.079c.191,0,.384,0,.433-.234l.158-.745h-5.744c-.299,0-.476,.127-.534,.406Z"/>
    <path d="M28.237,9.719h-4.933l-.021,.081c-.111,.424-.053,.892,.727,.892h3.586c1.726,0,1.972,.789,1.627,2.178-.338,1.366-.929,2.069-2.224,2.176h-2.456l.758-3.576h-1.452c-.171,0-.3,.106-.321,.213l-.923,4.335h4.08c2.284,0,3.868-.776,4.363-3.191,.368-1.797-.483-3.11-2.811-3.11Z"/>
    <path d="M46.504,15.043h-4.363l1.087-5.113c.023-.106-.062-.213-.21-.213h-1.474l-1.338,6.3h6.496l.126-.589c.058-.276-.045-.384-.324-.384Z"/>
    <path d="M54.792,9.72h-1.56l-3.02,2.455-1.977-2.455h-1.559c-.255,0-.396,.149-.449,.407l-.902,4.24h1.324c.278,0,.432-.128,.482-.363l.588-2.758,1.522,1.986c.044,.086,.171,.192,.363,.192h.684c.192,0,.364-.106,.446-.192l2.366-1.986-.938,4.41c-.05,.236,.049,.364,.328,.364h1.324l1.253-5.893c.053-.257-.02-.407-.277-.407Z"/>
    <path d="M64.537,9.6c-2.418,0-3.798,.556-4.326,2.942l-.679,3.199c-.046,.215,.09,.279,.262,.279h1.31l.381-1.841h4.079l-.381,1.841h1.311c.172,0,.335-.064,.382-.279l.681-3.199c.499-2.426-.999-2.942-3.019-2.942Zm1.427,2.748s-.061,.293-.081,.382c-.03,.131-.096,.471-.48,.471h-3.7l.181-.853c.26-1.233,1.045-1.681,2.449-1.681,1.484,0,1.872,.51,1.63,1.681Z"/>
    <path d="M58.597,9.719h-1.372l-1.339,6.3h1.631l1.283-6.087c.023-.101-.056-.213-.202-.213Z"/>
  </g>
  <g>
    <path d="M11.319,2.841c1.345-.059,2.937,.208,3.233,1.096,.486,1.455-1.977,3.576-4.124,4.617-.526,.255-.845,.325-.978,.308-.127-.016-.146-.135-.105-.216,.077-.153,.423-.465,.886-.803,2.416-1.765,3.202-3.059,2.746-3.584-.293-.336-1.518-.569-2.79-.569-.345,0-1.253,.075-1.346-.224-.076-.245,1.142-.565,2.478-.624Z" fill="#fff" fill-rule="evenodd"/>
    <path d="M8.312,9.472c1.118-.058,2.476,.116,3.239,.639,.379,.26,.646,.738,.491,1.286-.44,1.556-2.083,3.438-5.735,4.885-1.161,.46-2.074,.636-2.265,.512-.206-.133,.393-1.159,.573-1.5,.583-1.104,1.311-2.178,2.021-3.162,.262-.362,.665-.99,1.031-.94,.327,.045-.056,.712-.308,1.137-.424,.712-1.59,2.69-1.205,2.808,.851,.262,4.843-2.46,4.254-3.976-.273-.703-2.006-.771-3.098-.771-.497,0-1.581,.105-1.641-.236-.065-.314,1.648-.631,2.643-.684Z" fill="#fff" fill-rule="evenodd"/>
    <path d="M17.028,7.634c.677,.11,1.228,.196,1.355,.454,.142,.293-.595,.31-.966,.317-1.78,.031-2.853,.063-2.907,.609-.07,.704,.761,1.412,1.581,2.405,.749,.907,1.601,1.801,1.355,2.636-.306,1.039-1.716,1.259-3.058,1.259-1.286,0-2.504-.185-3.015-.277-.637-.114-.543-.398-.373-.49,.189-.102,1.273-.105,2.026-.145,.62-.033,2.42-.032,2.7-.449,.344-.51-.498-1.383-1.272-2.298-.965-1.141-2.026-2.319-1.465-3.179,.726-1.113,2.851-1.037,4.038-.843Z" fill="#fff" fill-rule="evenodd"/>
    <path d="M32.655,9.459l-1.252,5.894h6.364l.132-.63c.055-.257-.011-.343-.333-.343h-4.227l.358-1.691h3.738c.106,0,.184-.064,.202-.149l.143-.67c.018-.086-.034-.151-.139-.151h-3.738l.36-1.688h4.079c.191,0,.384,0,.433-.234l.158-.745h-5.744c-.299,0-.476,.127-.534,.406Z" fill="#fff"/>
    <path d="M27.577,9.053h-4.933l-.021,.081c-.111,.424-.053,.892,.727,.892h3.586c1.726,0,1.972,.789,1.627,2.178-.338,1.366-.929,2.069-2.224,2.176h-2.456l.758-3.576h-1.452c-.171,0-.3,.106-.321,.213l-.923,4.335h4.08c2.284,0,3.868-.776,4.363-3.191,.368-1.797-.483-3.11-2.811-3.11Z" fill="#fff"/>
    <path d="M45.844,14.376h-4.363l1.087-5.113c.023-.106-.062-.213-.21-.213h-1.474l-1.338,6.3h6.496l.126-.589c.058-.276-.045-.384-.324-.384Z" fill="#fff"/>
    <path d="M54.133,9.054h-1.56l-3.02,2.455-1.977-2.455h-1.559c-.255,0-.396,.149-.449,.407l-.902,4.24h1.324c.278,0,.432-.128,.482-.363l.588-2.758,1.522,1.986c.044,.086,.171,.192,.363,.192h.684c.192,0,.364-.106,.446-.192l2.366-1.986-.938,4.41c-.05,.236,.049,.364,.328,.364h1.324l1.253-5.893c.053-.257-.02-.407-.277-.407Z" fill="#fff"/>
    <path d="M63.878,8.933c-2.418,0-3.798,.556-4.326,2.942l-.679,3.199c-.046,.215,.09,.279,.262,.279h1.31l.381-1.841h4.079l-.381,1.841h1.311c.172,0,.335-.064,.382-.279l.681-3.199c.499-2.426-.999-2.942-3.019-2.942Zm1.427,2.748s-.061,.293-.081,.382c-.03,.131-.096,.471-.48,.471h-3.7l.181-.853c.26-1.233,1.045-1.681,2.449-1.681,1.484,0,1.872,.51,1.63,1.681Z" fill="#fff"/>
    <path d="M57.937,9.053h-1.372l-1.339,6.3h1.631l1.283-6.087c.023-.101-.056-.213-.202-.213Z" fill="#fff"/>
  </g>
</svg>