<?xml version="1.0" encoding="UTF-8"?>
<svg id="e" data-name="ENOVIA" xmlns="http://www.w3.org/2000/svg" viewBox="0 0 87 20">
  <rect y="0" width="87" height="20" fill="#e87722"/>
  <g>
    <path d="M11.319,3.008c1.345-.059,2.937,.208,3.233,1.096,.486,1.455-1.977,3.576-4.124,4.617-.526,.255-.845,.325-.978,.308-.127-.016-.146-.135-.105-.216,.077-.153,.423-.465,.886-.803,2.416-1.765,3.202-3.059,2.746-3.584-.293-.336-1.518-.569-2.79-.569-.345,0-1.253,.075-1.346-.224-.076-.245,1.142-.565,2.478-.624Z" fill="#fff" fill-rule="evenodd"/>
    <path d="M8.312,9.639c1.118-.058,2.476,.116,3.239,.639,.379,.26,.646,.738,.491,1.286-.44,1.556-2.083,3.438-5.735,4.885-1.161,.46-2.074,.636-2.265,.512-.206-.133,.393-1.159,.573-1.5,.583-1.104,1.311-2.178,2.021-3.162,.262-.362,.665-.99,1.031-.94,.327,.045-.056,.712-.308,1.137-.424,.712-1.59,2.69-1.205,2.808,.851,.262,4.843-2.46,4.254-3.976-.273-.703-2.006-.771-3.098-.771-.497,0-1.581,.105-1.641-.236-.065-.314,1.648-.631,2.643-.684Z" fill="#fff" fill-rule="evenodd"/>
    <path d="M17.028,7.801c.677,.11,1.228,.196,1.355,.454,.142,.293-.595,.31-.966,.317-1.78,.031-2.853,.063-2.907,.609-.07,.704,.761,1.412,1.581,2.405,.749,.907,1.601,1.801,1.355,2.636-.306,1.039-1.716,1.259-3.058,1.259-1.286,0-2.504-.185-3.015-.277-.637-.114-.543-.398-.373-.49,.189-.102,1.273-.105,2.026-.145,.62-.033,2.42-.032,2.7-.449,.344-.51-.498-1.383-1.272-2.298-.965-1.141-2.026-2.319-1.465-3.179,.726-1.113,2.851-1.037,4.038-.843Z" fill="#fff" fill-rule="evenodd"/>
    <path d="M23.258,9.616l-1.256,5.912h6.383l.134-.632c.055-.257-.012-.345-.333-.345h-4.241l.36-1.695h3.748c.108,0,.185-.063,.204-.15l.143-.673c.017-.086-.033-.15-.139-.15h-3.75l.361-1.695h4.091c.193,0,.386,0,.436-.235l.157-.745h-5.761c-.3,0-.478,.126-.536,.407Z" fill="#fff"/>
    <path d="M60.464,9.209h-1.376l-1.343,6.319h1.636l1.287-6.105c.022-.102-.057-.214-.204-.214Z" fill="#fff"/>
    <path d="M66.309,9.073c-2.268,0-3.837,.79-4.299,2.979l-.678,3.194c-.045,.215,.091,.282,.271,.282h1.309l.351-1.648h4.062l-.35,1.648h1.309c.181,0,.339-.067,.383-.282l.678-3.194c.462-2.189-.767-2.979-3.036-2.979Zm1.445,2.787l-.215,1.004h-4.062l.215-1.004c.236-1.14,.97-1.659,2.381-1.659s1.918,.519,1.681,1.659Z" fill="#fff"/>
    <path d="M56.654,9.209c-.146,0-.351,.112-.428,.214l-3.533,4.763s-1.014-3.191-1.074-3.373c-.356-1.093-.634-1.6-1.832-1.6h-1.328c.646,.42,.96,1.091,1.159,1.654l1.541,4.662h1.975l4.795-6.319h-1.275Z" fill="#fff"/>
    <path d="M43.466,9.121c-2.472,.325-4.285,2.043-4.049,3.839,.236,1.795,2.431,2.987,4.903,2.662,2.473-.325,4.285-2.044,4.05-3.839-.236-1.795-2.432-2.987-4.904-2.662Zm.527,5.001c-1.63,.279-2.984-.333-3.179-1.473-.195-1.139,.894-2.248,2.523-2.526,1.63-.278,3.024,.405,3.218,1.545,.195,1.139-.933,2.175-2.563,2.454Z" fill="#fff"/>
    <path d="M38.397,9.211c-.145,0-.277,.008-.399,.024-.959,.128-1.202,.745-1.4,1.616-.04,.176-.561,2.622-.561,2.622l-2.709-4.264h-1.466c-.26,0-.395,.146-.451,.406l-1.253,5.913h1.23c.272,0,.43-.124,.475-.361l.881-4.119,2.865,4.48h1.275c.26,0,.384-.146,.441-.406l.795-3.717c.142-.665,.377-1.542,1.338-2.193h-1.06Z" fill="#fff"/>
  </g>
</svg>