<?xml version="1.0" encoding="UTF-8"?>
<svg id="j" data-name="GEOVIA" xmlns="http://www.w3.org/2000/svg" viewBox="0 0 87 20">
  <rect width="87" height="20" fill="#001871"/>
  <g>
    <path d="M32.769,9.608l-1.251,5.89h6.361l.133-.629c.055-.258-.013-.342-.332-.342h-4.225l.359-1.69h3.734c.107,0,.186-.064,.202-.149l.143-.671c.018-.085-.034-.149-.138-.149h-3.735l.358-1.687h4.076c.194,0,.384,0,.433-.234l.158-.744h-5.74c-.3,0-.475,.127-.535,.406Z" fill="#fff" fill-rule="evenodd"/>
    <path d="M22.961,12.248c-.494,2.327,.708,3.249,2.99,3.249h3.597l.699-3.245h-2.285c-.128,0-.222,.023-.261,.151-.04,.128-.143,.453-.185,.583-.041,.13,.023,.22,.128,.22s1.426,.002,1.426,.002l-.332,1.319h-2.709c-1.18,0-1.539-.998-1.28-2.234,.293-1.349,1.046-2.12,2.203-2.12h2.957c.427,0,.664-.124,.731-.427l.123-.545h-3.688c-2.326,0-3.731,1.26-4.114,3.047Z" fill="#fff" fill-rule="evenodd"/>
    <path d="M62.786,9.132c-2.018,.008-2.876,.974-3.15,2.287l-.848,4.051h.665l.519-2.479,4.016-.013-.518,2.476,.665-.003,.85-4.05c.274-1.313-.157-2.277-2.199-2.27Zm1.529,2.281l-.223,1.07-4.016,.013,.224-1.07c.209-1.002,.762-1.791,2.382-1.797,1.619-.004,1.844,.783,1.633,1.784Z" fill="#fff" fill-rule="evenodd"/>
    <path d="M58.24,9.218c-.063-.049-.131-.058-.195-.06h-.358l-1.727,6.288h.762l1.593-5.885c.016-.048,.029-.079,.027-.14-.002-.067-.038-.157-.101-.204Z" fill="#fff" fill-rule="evenodd"/>
    <path d="M55.882,9.21c-.053-.04-.11-.051-.167-.051h-.395l-3.531,5.43-.004,.004-1.264-5.185c-.015-.071-.062-.15-.135-.184-.028-.014-.057-.023-.085-.025-.043-.005-.629-.003-.629-.003l1.575,6.249h.34c.276,0,.476-.141,.641-.353,.115-.149,3.699-5.579,3.7-5.582,.017-.04,.03-.067,.03-.122,.002-.058-.024-.135-.077-.177Z" fill="#fff" fill-rule="evenodd"/>
    <path d="M10.187,3.791c1.272,0,2.497,.234,2.79,.569,.456,.525-.329,1.819-2.746,3.585-.464,.339-.81,.65-.886,.803-.041,.081-.022,.2,.105,.216,.133,.017,.452-.053,.978-.308,2.147-1.041,4.61-3.162,4.124-4.617-.297-.888-1.888-1.156-3.233-1.096-1.336,.059-2.554,.379-2.478,.623,.093,.299,1,.224,1.346,.224Z" fill="#fff" fill-rule="evenodd"/>
    <path d="M11.551,10.214c-.763-.523-2.121-.698-3.239-.639-.996,.053-2.708,.369-2.643,.684,.06,.341,1.145,.236,1.641,.236,1.092,0,2.825,.067,3.098,.771,.589,1.516-3.404,4.238-4.255,3.976-.385-.118,.782-2.096,1.205-2.808,.252-.424,.635-1.092,.308-1.137-.365-.05-.769,.577-1.031,.94-.71,.984-1.438,2.058-2.021,3.162-.18,.341-.779,1.368-.573,1.5,.192,.123,1.104-.052,2.265-.512,3.651-1.447,5.294-3.329,5.735-4.885,.154-.548-.112-1.027-.491-1.286Z" fill="#fff" fill-rule="evenodd"/>
    <path d="M17.028,7.736c-1.187-.194-3.312-.27-4.038,.843-.561,.86,.499,2.038,1.465,3.179,.774,.914,1.616,1.788,1.272,2.298-.28,.417-2.08,.416-2.7,.449-.753,.041-1.837,.043-2.026,.145-.17,.091-.265,.376,.373,.49,.512,.092,1.73,.278,3.016,.277,1.342,0,2.752-.22,3.058-1.259,.246-.835-.606-1.729-1.355-2.636-.82-.993-1.651-1.702-1.581-2.405,.054-.547,1.127-.578,2.907-.609,.371-.007,1.108-.025,.966-.317-.127-.258-.678-.344-1.355-.454Z" fill="#fff" fill-rule="evenodd"/>
    <g>
      <path d="M48.184,10.031c-.768-.932-2.058-1.468-3.54-1.468-1.235,0-2.469,.37-3.476,1.043-1.05,.701-1.738,1.654-1.939,2.683-.179,.912,.048,1.811,.638,2.527,.768,.932,2.059,1.468,3.54,1.468,1.235,0,2.47-.37,3.477-1.043,1.049-.701,1.738-1.654,1.94-2.683,.179-.913-.048-1.81-.638-2.528Zm-1.16,.247l-.05,.01c-.012-.035-.074-.143-.074-.143l.124,.133Zm-.282,.317s.681,1.373-.387,3.079c0,0-1.106,.165-2.977-.476l1.886-2.852s.763,.273,1.478,.248Zm-.139-.292s-.4,.023-1.153-.237l.388-.586s.482,.279,.765,.823Zm-.993-.905l-.387,.587s-.656-.239-.971-.512c0,0,.628-.166,1.358-.074Zm-.573,.866l-1.887,2.852s-1.77-.601-2.362-1.408c0,0,.982-1.544,3.067-2.136,0,0,.437,.433,1.182,.692Zm-4.421,.926s.908-1.628,3.092-1.889l.009,.043s-1.833,.518-3.063,2.156c0,0-.104-.183-.037-.31Zm-.255,.48s.022,.058,.078,.144c0,0-.14,.219-.261,.481,0,0,.03-.276,.183-.625Zm-.152,1.586s-.007-.676,.387-1.243c0,0,.491,.682,2.367,1.388l-1.092,1.65s-1.355-.441-1.662-1.795Zm4.87,1.695c-1.733,.6-2.974,.169-2.974,.169l1.084-1.639c1.772,.601,2.958,.492,2.958,.492-.493,.65-1.069,.978-1.069,.978Zm1.02-.561s.193-.211,.361-.451c0,0,.098-.018,.199-.044,0,0-.237,.262-.56,.495Zm.902-.921s-.062,.082-.337,.151c0,0,.965-1.468,.41-3.093,0,0,.054-.021,.101-.047,0,0,1.011,1.361-.174,2.989Z" fill="#fff"/>
      <path d="M43.712,13.081s.845,.302,1.995,.39c.178-.233,.303-.49,.356-.761,.143-.73-.27-1.364-.994-1.682-.452,.684-.905,1.368-1.357,2.052Z" fill="#fff"/>
      <path d="M44.399,10.842c-.139-.02-.283-.031-.433-.031-1.043,0-2.033,.498-2.532,1.202,.765,.534,1.632,.843,1.632,.843l1.333-2.015Z" fill="#fff"/>
      <path d="M42.727,14.569c1.313,.186,2.228-.439,2.228-.439-.722-.076-1.676-.394-1.676-.394l-.552,.833Z" fill="#fff"/>
      <path d="M41.121,12.736c-.2,1.148,.945,1.632,.945,1.632l.571-.863c-.771-.27-1.516-.769-1.516-.769Z" fill="#fff"/>
    </g>
  </g>
</svg>