<?xml version="1.0" encoding="UTF-8"?>
<svg id="h" data-name="MEDIDATA" xmlns="http://www.w3.org/2000/svg" viewBox="0 0 87 20">
  <rect width="87" height="20" fill="#c8d300"/>
  <g>
    <path d="M77.497,9.139h-6.898c-.352,0-.374,.109-.386,.167l-.082,.383h3.275l-1.24,5.827h.389c.296,0,.371-.096,.412-.287l1.177-5.54h3.001c.213,0,.243-.041,.282-.217l.07-.333Z" fill="#fff"/>
    <path d="M68.111,15.516c.296,0,.371-.096,.412-.287l.798-3.807c.295-1.384-.819-2.283-2.691-2.283-2.029,0-3.18,.981-3.456,2.301l-.853,4.075h.729l.57-2.694h4.666l-.573,2.694h.398Zm.434-3.914l-.115,.542h-4.667l.113-.528c.211-1.008,.993-1.809,2.713-1.809,1.534,0,2.228,.517,1.956,1.795Z" fill="#fff"/>
    <path d="M82.816,15.516c.296,0,.371-.096,.412-.287l.798-3.807c.295-1.384-.819-2.283-2.691-2.283-2.029,0-3.18,.981-3.456,2.301l-.853,4.075h.729l.57-2.694h4.666l-.573,2.694h.398Zm.434-3.914l-.115,.542h-4.667l.113-.528c.211-1.008,.993-1.809,2.713-1.809,1.534,0,2.228,.517,1.956,1.795Z" fill="#fff"/>
    <path d="M54.774,9.139l.099,.399c.034,.17,.165,.277,.276,.277h1.318c.415,0,1.607-.012,2.226,.041,.545,.047,1.014,.24,1.416,.556,.388,.307,.632,.775,.689,1.268,.033,.286,.009,.614-.055,.895-.333,1.476-1.51,2.145-2.821,2.254l-.939,.01h-1.963l.798-3.927h-.422c-.173,0-.303,.108-.326,.216l-.934,4.388h2.959c2.312,0,4.074-.758,4.415-3.229,.261-1.89-1.167-3.148-3.523-3.148h-3.215Z" fill="#fff"/>
    <path d="M11.319,3.008c1.345-.059,2.937,.208,3.233,1.096,.486,1.455-1.977,3.576-4.124,4.617-.526,.255-.845,.325-.978,.308-.127-.016-.146-.135-.105-.216,.077-.153,.423-.465,.886-.803,2.416-1.765,3.202-3.059,2.746-3.584-.293-.336-1.518-.569-2.79-.569-.345,0-1.253,.075-1.346-.224-.076-.245,1.142-.565,2.478-.624Z" fill="#fff" fill-rule="evenodd"/>
    <path d="M8.312,9.639c1.118-.058,2.476,.116,3.239,.639,.379,.26,.646,.738,.491,1.286-.44,1.556-2.083,3.438-5.735,4.885-1.161,.46-2.074,.636-2.265,.512-.206-.133,.393-1.159,.573-1.5,.583-1.104,1.311-2.178,2.021-3.162,.262-.362,.665-.99,1.031-.94,.327,.045-.056,.712-.308,1.137-.424,.712-1.59,2.69-1.205,2.808,.851,.262,4.843-2.46,4.254-3.976-.273-.703-2.006-.771-3.098-.771-.497,0-1.581,.105-1.641-.236-.065-.314,1.648-.631,2.643-.684Z" fill="#fff" fill-rule="evenodd"/>
    <path d="M17.028,7.801c.677,.11,1.228,.196,1.355,.454,.142,.293-.595,.31-.966,.317-1.78,.031-2.853,.063-2.907,.609-.07,.704,.761,1.412,1.581,2.405,.749,.907,1.601,1.801,1.355,2.636-.306,1.039-1.716,1.259-3.058,1.259-1.286,0-2.504-.185-3.015-.277-.637-.114-.543-.398-.373-.49,.189-.102,1.273-.105,2.026-.145,.62-.033,2.42-.032,2.7-.449,.344-.51-.498-1.383-1.272-2.298-.965-1.141-2.026-2.319-1.465-3.179,.726-1.113,2.851-1.037,4.038-.843Z" fill="#fff" fill-rule="evenodd"/>
    <path d="M33.676,9.55l-1.267,5.966h6.441l.134-.638c.056-.26-.012-.347-.337-.347h-4.279l.362-1.711h3.784c.107,0,.186-.064,.204-.151l.145-.679c.018-.087-.034-.153-.141-.153h-3.784l.365-1.708h4.129c.194,0,.389,0,.439-.237l.16-.754h-5.814c-.303,0-.482,.129-.541,.411Z" fill="#fff"/>
    <path d="M46.351,9.139h-4.993l-.021,.082c-.112,.429-.054,.903,.736,.903h3.629c1.747,0,1.996,.798,1.647,2.205-.342,1.382-.94,2.094-2.251,2.202h-2.485l.767-3.619h-1.469c-.173,0-.303,.108-.325,.216l-.935,4.388h4.13c2.312,0,3.914-.785,4.416-3.229,.373-1.818-.489-3.147-2.845-3.147Z" fill="#fff"/>
    <path d="M31.685,9.14h-1.579l-3.057,2.485-2.001-2.485h-1.578c-.259,0-.4,.151-.454,.412l-1.269,5.96h1.34c.281,0,.437-.13,.487-.368l.951-4.46,1.54,2.01c.045,.087,.173,.194,.367,.194h.692c.195,0,.368-.108,.452-.194l2.394-2.01-.949,4.463c-.051,.238,.05,.368,.332,.368h1.34l1.268-5.964c.054-.261-.021-.412-.28-.412Z" fill="#fff"/>
    <path d="M53.061,9.139h-1.389l-1.355,6.377h1.651l1.298-6.161c.023-.102-.056-.216-.205-.216Z" fill="#fff"/>
  </g>
</svg>