<?xml version="1.0" encoding="UTF-8"?>
<svg id="k" data-name="SIMULIA" xmlns="http://www.w3.org/2000/svg" viewBox="0 0 87 20">
  <rect width="87" height="20" fill="#001871"/>
  <g>
    <path d="M11.319,3.008c1.345-.059,2.937,.208,3.233,1.096,.486,1.455-1.977,3.576-4.124,4.617-.526,.255-.845,.325-.978,.308-.127-.016-.146-.135-.105-.216,.077-.153,.423-.465,.886-.803,2.416-1.765,3.202-3.059,2.746-3.584-.293-.336-1.518-.569-2.79-.569-.345,0-1.253,.075-1.346-.224-.076-.245,1.142-.565,2.478-.624Z" fill="#fff" fill-rule="evenodd"/>
    <path d="M8.312,9.639c1.118-.058,2.476,.116,3.239,.639,.379,.26,.646,.738,.491,1.286-.44,1.556-2.083,3.438-5.735,4.885-1.161,.46-2.074,.636-2.265,.512-.206-.133,.393-1.159,.573-1.5,.583-1.104,1.311-2.178,2.021-3.162,.262-.362,.665-.99,1.031-.94,.327,.045-.056,.712-.308,1.137-.424,.712-1.59,2.69-1.205,2.808,.851,.262,4.843-2.46,4.254-3.976-.273-.703-2.006-.771-3.098-.771-.497,0-1.581,.105-1.641-.236-.065-.314,1.648-.631,2.643-.684Z" fill="#fff" fill-rule="evenodd"/>
    <path d="M17.028,7.801c.677,.11,1.228,.196,1.355,.454,.142,.293-.595,.31-.966,.317-1.78,.031-2.853,.063-2.907,.609-.07,.704,.761,1.412,1.581,2.405,.749,.907,1.601,1.801,1.355,2.636-.306,1.039-1.716,1.259-3.058,1.259-1.286,0-2.504-.185-3.015-.277-.637-.114-.543-.398-.373-.49,.189-.102,1.273-.105,2.026-.145,.62-.033,2.42-.032,2.7-.449,.344-.51-.498-1.383-1.272-2.298-.965-1.141-2.026-2.319-1.465-3.179,.726-1.113,2.851-1.037,4.038-.843Z" fill="#fff" fill-rule="evenodd"/>
    <path d="M33.212,9.218h-1.368l-1.333,6.273h1.625l1.278-6.06c.021-.101-.056-.213-.202-.213Z" fill="#fff"/>
    <path d="M72.042,9.084c-2.251,0-3.808,.784-4.268,2.957l-.672,3.17c-.044,.213,.09,.28,.269,.28h1.299l.347-1.636h4.033l-.347,1.636h1.299c.179,0,.336-.067,.382-.28l.672-3.17c.459-2.173-.762-2.957-3.014-2.957Zm1.434,2.767l-.213,.997h-4.033l.213-.997c.235-1.131,.962-1.647,2.363-1.647s1.905,.515,1.669,1.647Z" fill="#fff"/>
    <path d="M23.165,10.413c-.204,.88,.549,1.306,2.077,2.175,1.674,.95,2.055,1.022,1.902,1.521-.124,.402-.563,.42-1.315,.42h-2.979c-.339,0-.535,.127-.594,.403l-.118,.559h3.755c1.719,0,2.797-.097,3.188-1.059,.191-.47,.189-.954-.275-1.432-.238-.244-.585-.458-1.067-.707-2.147-1.11-2.708-1.238-2.572-1.776,.076-.302,.306-.314,1.113-.314h2.519c.339,0,.536-.127,.594-.404l.124-.584h-3.187c-1.806,0-2.889,.01-3.165,1.196Z" fill="#fff"/>
    <path d="M62,14.522h-3.681l1.083-5.095c.023-.107-.062-.213-.21-.213h-1.468l-1.334,6.276h5.807l.125-.587c.058-.275-.046-.382-.323-.382Z" fill="#fff"/>
    <path d="M66.201,9.218h-1.367l-1.332,6.273h1.624l1.277-6.06c.023-.101-.056-.213-.201-.213Z" fill="#fff"/>
    <path d="M43.36,8.965c-.409,0-1.298,.084-1.762,1.171-.714,1.671-.945,2.298-1.047,2.525-.085,.191-.121,.307-.244,.307-.141,0-.16-.116-.245-.307-.102-.227-.333-.853-1.047-2.525-.463-1.086-1.351-1.171-1.761-1.171-1.089,0-1.736,.601-2.016,1.655l-1.057,4.872h1.364c.318,0,.499-.164,.567-.49,0,0,.78-3.775,.859-4.118,.08-.344,.15-.685,.408-.685,.253,0,.323,.219,.524,.743,.074,.188,.248,.626,.654,1.678,.406,1.052,.818,1.673,1.75,1.673,.939,0,1.344-.621,1.749-1.673,.406-1.053,.581-1.49,.654-1.678,.202-.523,.272-.743,.525-.743,.258,0,.329,.341,.408,.685,.079,.343,.86,4.118,.86,4.118,.068,.326,.249,.49,.566,.49h1.364l-1.057-4.872c-.279-1.054-.926-1.655-2.016-1.655Z" fill="#fff"/>
    <path d="M55.409,9.22h-1.37l-.376,1.837-.217,.975-.178,.851c-.253,1.156-1.07,1.678-2.458,1.678-1.526,0-1.935-.508-1.696-1.678,0,0,.06-.292,.078-.381l.317-1.445,.377-1.837h-1.371c-.176,0-.345,.064-.391,.278l-.672,3.192c-.46,2.25,.763,2.935,3.184,2.935,2.833,0,3.924-.885,4.373-2.935l.673-3.192c.045-.214-.095-.278-.273-.278Z" fill="#fff"/>
  </g>
</svg>