<?xml version="1.0" encoding="UTF-8"?>
<svg id="g" data-name="SOLIDWORKS" xmlns="http://www.w3.org/2000/svg" viewBox="0 0 87 20">
  <rect width="87" height="20" fill="#da291c"/>
  <g>
    <path d="M11.49,3.008c1.345-.059,2.937,.208,3.233,1.096,.486,1.455-1.977,3.576-4.124,4.617-.526,.255-.845,.325-.978,.308-.127-.016-.146-.135-.105-.216,.077-.153,.423-.465,.886-.803,2.416-1.765,3.202-3.059,2.746-3.584-.293-.336-1.518-.569-2.79-.569-.345,0-1.253,.075-1.346-.224-.076-.245,1.142-.565,2.478-.624Z" fill="#fff" fill-rule="evenodd"/>
    <path d="M8.484,9.639c1.118-.058,2.476,.116,3.239,.639,.379,.26,.646,.738,.491,1.286-.44,1.556-2.083,3.438-5.735,4.885-1.161,.46-2.074,.636-2.265,.512-.206-.133,.393-1.159,.573-1.5,.583-1.104,1.311-2.178,2.021-3.162,.262-.362,.665-.99,1.031-.94,.327,.045-.056,.712-.308,1.137-.424,.712-1.59,2.69-1.205,2.808,.851,.262,4.843-2.46,4.254-3.976-.273-.703-2.006-.771-3.098-.771-.497,0-1.581,.105-1.641-.236-.065-.314,1.648-.631,2.643-.684Z" fill="#fff" fill-rule="evenodd"/>
    <path d="M17.199,7.801c.677,.11,1.228,.196,1.355,.454,.142,.293-.595,.31-.966,.317-1.78,.031-2.853,.063-2.907,.609-.07,.704,.761,1.412,1.581,2.405,.749,.907,1.601,1.801,1.355,2.636-.306,1.039-1.716,1.259-3.058,1.259-1.286,0-2.504-.185-3.015-.277-.637-.114-.543-.398-.373-.49,.189-.102,1.273-.105,2.026-.145,.62-.033,2.42-.032,2.7-.449,.344-.51-.498-1.383-1.272-2.298-.965-1.141-2.026-2.319-1.465-3.179,.726-1.113,2.851-1.037,4.038-.843Z" fill="#fff" fill-rule="evenodd"/>
    <path d="M31.43,9.216c-2.242,0-3.446,1.491-3.741,3.27-.289,1.781,.424,3.269,2.667,3.269s3.445-1.488,3.739-3.269c.292-1.779-.423-3.27-2.665-3.27Zm1.279,3.27c-.237,1.456-.906,2.195-2.178,2.195s-1.695-.738-1.454-2.195c.238-1.456,.904-2.195,2.178-2.195s1.694,.739,1.455,2.195Z" fill="#fff"/>
    <path d="M22.528,10.583c-.079,.501,.076,1.098,.636,1.49l2.006,1.399c.213,.145,.314,.244,.29,.413-.037,.234-.16,.331-.575,.331h-2.332c-.248,0-.385,.118-.431,.402v.869h2.732c1.197,0,1.789-.705,1.908-1.455,.112-.705-.123-1.21-.58-1.533l-2.13-1.514c-.172-.123-.214-.188-.201-.279,.019-.155,.158-.218,.4-.218h2.435c.299,0,.468-.303,.514-.605v-.668h-3.217c-.715,0-1.339,.639-1.454,1.368Z" fill="#fff"/>
    <path d="M38.777,14.467h-2.664l.918-5.036c.02-.102-.054-.216-.18-.216h-1.173l-1.145,6.272h4.414l.114-.629c.05-.278-.043-.391-.285-.391Z" fill="#fff"/>
    <path d="M74.582,9.254h-.309l-3.226,2.761,.427-2.438c.028-.136-.037-.229-.091-.267-.057-.045-.129-.068-.198-.068h-.309l-1.166,6.271h.688l.512-2.774,2.555,2.777h.305c.062-.003,.12-.011,.171-.047,.055-.041,.082-.112,.082-.173,0-.114-.093-.227-.093-.227l-2.418-2.628,3.229-2.74s.09-.077,.09-.227c.001-.059-.026-.131-.077-.169-.053-.042-.114-.049-.171-.049Z" fill="#fff"/>
    <path d="M66.63,9.242h-1.613l-1.165,6.273h.69l.488-2.697,1.257,.007,1.562,2.69h.349c.063,0,.119-.011,.171-.047,.054-.041,.082-.112,.079-.173,0-.089-.089-.227-.089-.227l-1.332-2.279c1.582-.142,2.003-1.259,2.1-1.705,.077-.361,.057-.95-.221-1.269-.487-.557-1.325-.572-2.277-.572Zm.715,2.85c-.383,.103-.922,.121-1.48,.121-.198-.003-.479-.005-.724-.008l.411-2.283c.327-.001,1.394-.017,1.755,.002,.144,.008,.272,.018,.35,.033,.296,.056,.489,.114,.614,.238,.541,.515,.056,1.631-.927,1.896Z" fill="#fff"/>
    <path d="M76.99,9.242c-1.21,.004-1.336,.995-1.343,1.464,0,.493,.358,.886,.536,1.042l1.763,1.727c.209,.204,.312,.445,.312,.672,0,.383-.292,.695-.764,.693-.002,.002-2.282,.002-2.303,.01-.077,.014-.153,.112-.151,.19h-.008l.008,.004v.47h2.561c1.209-.004,1.337-.996,1.343-1.464v-.002c0-.65-.597-1.152-.6-1.152l-1.671-1.645c-.207-.205-.337-.416-.339-.644,.002-.385,.293-.693,.766-.693,.003,0,2.307-.003,2.326-.009l.005,.017-.004-.017c.074-.013,.155-.111,.153-.188v-.475h-2.59Z" fill="#fff"/>
    <path d="M46.792,9.216h-3.375l-.017,.1c-.078,.427-.043,.918,.631,.918h2.498c.99,0,1.369,.718,1.125,2.062-.224,1.23-.89,2.172-1.898,2.172h-1.356l.646-3.527h-1.154c-.155,0-.265,.112-.28,.213l-.792,4.332h2.644c1.954,0,3.315-.916,3.734-3.237,.329-1.78-.416-3.034-2.407-3.034Z" fill="#fff"/>
    <path d="M42.101,9.216h-1.174l-1.147,6.27h1.394l1.107-6.056c.019-.1-.055-.214-.181-.214Z" fill="#fff"/>
    <path d="M61.267,9.23v-.003c-2.02-.156-3.302,1.251-3.744,3.032-.404,1.605,.141,3.287,2.05,3.509,2.05,.157,3.336-1.25,3.759-3.032,.38-1.607-.181-3.287-2.065-3.506Zm1.392,3.451c-.434,1.828-1.674,2.507-2.838,2.445l-.115-.006c-1.128-.144-1.96-1.015-1.517-2.806,.453-1.827,1.768-2.506,2.92-2.443,1.143,.117,1.976,1.019,1.551,2.811Z" fill="#fff"/>
    <path d="M57.523,9.49c.003-.062-.026-.147-.084-.192-.056-.045-.119-.056-.181-.056h-.317l-2.434,5.516-.635-2.955c-.036-.259-.244-.437-.492-.423h-.409l-1.921,3.348,.019-5.22c0-.07-.026-.157-.089-.205-.06-.049-.127-.061-.192-.061h-.41v6.271h.533c.153,.003,.292-.035,.406-.118,.103-.075,.191-.178,.269-.302l1.684-3,.698,3.421h.453c.286,0,.525-.165,.649-.449l2.419-5.441c.018-.044,.032-.072,.032-.133Z" fill="#fff"/>
  </g>
</svg>