<svg xmlns="http://www.w3.org/2000/svg" width="64" height="64" viewBox="0 0 64 64">
  <title>2840_PlatformTemporaryIcon_AP_AppIcon_r21x</title>
  <g>
    <path d="M32.365,11.524c4.255-.178,9.3.6,10.224,3.208C44.131,19,36.338,25.2,29.55,28.242a7.462,7.462,0,0,1-3.084.9.409.409,0,0,1-.341-.636,11.762,11.762,0,0,1,2.8-2.344c7.651-5.174,10.137-8.964,8.677-10.5C36.694,14.683,32.817,14,28.789,14c-1.1,0-3.964.218-4.246-.64C24.285,12.632,28.139,11.7,32.365,11.524Z" fill="#77797c"/>
    <path d="M22.863,30.933c3.534-.16,7.829.348,10.243,1.891a3.265,3.265,0,0,1,1.56,3.746c-1.4,4.564-6.58,10.071-18.144,14.311-3.678,1.343-6.567,1.864-7.161,1.512-.661-.4,1.246-3.412,1.8-4.4a80.241,80.241,0,0,1,6.4-9.262c.824-1.054,2.09-2.9,3.27-2.749,1.026.12-.189,2.077-.986,3.318-1.353,2.1-5.023,7.883-3.808,8.235,2.693.773,15.313-7.212,13.446-11.647-.859-2.046-6.342-2.255-9.787-2.255-1.569,0-5,.3-5.2-.7C14.319,32.032,19.714,31.085,22.863,30.933Z" fill="#77797c"/>
    <path d="M50.427,25.569c2.148.315,3.883.564,4.293,1.312.45.858-1.883.912-3.051.921-5.637.1-9.036.187-9.2,1.8-.218,2.064,2.41,4.124,5,7.033,2.357,2.656,5.061,5.272,4.284,7.723-.962,3.047-5.424,3.693-9.663,3.693a60.519,60.519,0,0,1-9.547-.815c-2.021-.342-1.7-1.161-1.171-1.441.6-.3,4.024-.3,6.4-.422,1.954-.089,7.647-.089,8.554-1.313,1.078-1.481-1.593-4.052-4.03-6.726-3.069-3.354-6.414-6.775-4.651-9.32C39.943,24.763,46.673,24.99,50.427,25.569Z" fill="#77797c"/>
  </g>
</svg>
