<svg width="32" height="32" version="1.1" viewBox="0 0 8.467 8.467" xmlns="http://www.w3.org/2000/svg" xmlns:xlink="http://www.w3.org/1999/xlink">
	<defs>
		<linearGradient id="linearGradient861" x1="3.933" x2="5.804" y1="287.8" y2="289.8" gradientTransform="translate(.02646 1.429)" gradientUnits="userSpaceOnUse">
			<stop stop-color="#fbfbfb" offset="0"/>
			<stop stop-color="#ececec" offset=".4111"/>
			<stop stop-color="#c8c8c8" offset=".5708"/>
			<stop stop-color="#b2b2b2" offset="1"/>
		</linearGradient>
		<radialGradient id="radialGradient889" cx="16.34" cy="22.89" r="10" gradientTransform="matrix(-.7652 -.841 1.98 -1.801 -10.72 68.32)" gradientUnits="userSpaceOnUse">
			<stop stop-color="#fefefe" offset="0"/>
			<stop stop-color="#acacac" offset=".1655"/>
			<stop stop-color="#c0c0c0" offset=".6306"/>
			<stop stop-color="#e9e9e9" offset="1"/>
		</radialGradient>
		<linearGradient id="linearGradient909" x1="14.01" x2="11.61" y1="289.9" y2="289.9" gradientTransform="translate(-8.502 -.06471)" gradientUnits="userSpaceOnUse">
			<stop stop-color="#e9e9e9" offset="0"/>
			<stop stop-color="#e9e9e9" stop-opacity=".9252" offset="1"/>
		</linearGradient>
		<linearGradient id="linearGradient919" x1="11.8" x2="12.38" y1="294.2" y2="294.2" gradientTransform="translate(-8.465 .3324)" gradientUnits="userSpaceOnUse">
			<stop stop-color="#626262" offset="0"/>
			<stop stop-color="#d2d2d2" offset=".3252"/>
			<stop stop-color="#dedede" offset=".8129"/>
			<stop stop-color="#ebebeb" offset="1"/>
		</linearGradient>
		<linearGradient id="linearGradient925" x1="11.86" x2="12.38" y1="294.2" y2="294.2" gradientTransform="translate(-9.547 -.1559)" gradientUnits="userSpaceOnUse">
			<stop stop-color="#6f6f6f" offset="0"/>
			<stop stop-color="#d9d9d9" offset=".2439"/>
			<stop stop-color="#ededed" offset=".8129"/>
			<stop stop-color="#ebebeb" offset="1"/>
		</linearGradient>
		<linearGradient id="linearGradient929" x1="11.77" x2="12.38" y1="294.2" y2="294.2" gradientTransform="translate(-7.43 .3733)" gradientUnits="userSpaceOnUse">
			<stop stop-color="#5f5f5f" offset="0"/>
			<stop stop-color="#cdcdcd" offset=".4065"/>
			<stop stop-color="#dadada" offset=".8129"/>
			<stop stop-color="#ebebeb" offset="1"/>
		</linearGradient>
		<linearGradient id="linearGradient933" x1="11.8" x2="12.38" y1="294.2" y2="294.2" gradientTransform="translate(-6.372 -.08573)" gradientUnits="userSpaceOnUse">
			<stop stop-color="#0b0b0b" offset="0"/>
			<stop stop-color="#919191" offset=".3252"/>
			<stop stop-color="#c9c9c9" offset=".8129"/>
			<stop stop-color="#d5d5d5" offset="1"/>
		</linearGradient>
		<linearGradient id="linearGradient934" x1="10.68" x2="23.13" y1="27.04" y2="14.61" gradientUnits="userSpaceOnUse">
			<stop stop-color="#fff" offset="0"/>
			<stop stop-color="#9c9c9c" offset="1"/>
		</linearGradient>
		<radialGradient id="radialGradient952" cx="4.249" cy="291.7" r="1.725" gradientTransform="matrix(-1.803 5.543 -4.309 -2.406 1285 692.4)" gradientUnits="userSpaceOnUse">
			<stop stop-opacity=".6355" offset="0"/>
			<stop stop-opacity="0" offset="1"/>
		</radialGradient>
		<radialGradient id="radialGradient998" cx="4.25" cy="295.6" r="2.646" gradientTransform="matrix(5.488e-6 .4126 -.975 4.973e-6 292.4 293.8)" gradientUnits="userSpaceOnUse">
			<stop offset="0"/>
			<stop stop-opacity=".6402" offset=".7019"/>
			<stop stop-opacity="0" offset="1"/>
		</radialGradient>
	</defs>
	<g transform="translate(0 -288.5)">
		<ellipse cx="4.22" cy="295.5" rx="2.646" ry="1.142" fill="url(#radialGradient998)" style="paint-order:markers fill stroke"/>
		<path transform="matrix(.2646 0 0 .2646 0 288.5)" d="m7.5 10.5v14 0.5c2e-7 2.209 3.806 4 8.5 4s8.5-1.791 8.5-4v-0.5-14z" fill="url(#linearGradient934)" stroke="#323232" stroke-dashoffset="15.12" style="paint-order:markers fill stroke"/>
		<g stroke-dashoffset="15.12" stroke-width=".03969">
			<g stroke="#6c6c6c">
				<rect x="3.325" y="291.7" width=".6276" height="4.153" rx=".3138" ry=".3138" fill="url(#linearGradient919)" style="paint-order:markers fill stroke"/>
				<rect x="2.243" y="291.2" width=".6276" height="4.153" rx=".3138" ry=".3138" fill="url(#linearGradient925)" style="paint-order:markers fill stroke"/>
				<rect x="4.36" y="291.7" width=".6276" height="4.153" rx=".3138" ry=".3138" fill="url(#linearGradient929)" style="paint-order:markers fill stroke"/>
			</g>
			<rect x="5.418" y="291.3" width=".6276" height="4.153" rx=".3138" ry=".3138" fill="url(#linearGradient933)" opacity=".705" stroke="#404040" style="paint-order:markers fill stroke"/>
		</g>
		<g>
			<path transform="matrix(.2646 0 0 .2646 0 288.5)" d="m11.14 13.04a8.251 10.68 0 0 0-0.1875 2.227 8.251 10.68 0 0 0 4.543 9.529h7.434a8.251 10.68 0 0 0 1.16-0.9355v-10.82h-12.95z" fill="url(#radialGradient952)" opacity=".115" style="paint-order:markers fill stroke"/>
			<path transform="matrix(.2646 0 0 .2646 0 288.5)" d="m16 2.719c-5.247 0-9.5 2.015-9.5 4.5v0.2812 3 0.5c-2e-7 2.485 4.253 4.5 9.5 4.5s9.5-2.015 9.5-4.5v-0.5-3-0.2812c0-2.485-4.253-4.5-9.5-4.5z" fill="url(#radialGradient889)" stroke="#000" stroke-dashoffset="15.12" stroke-width="1.002" style="paint-order:markers fill stroke"/>
			<ellipse cx="4.26" cy="290.4" rx="2.514" ry="1.191" fill="url(#linearGradient861)" stroke="#515151" stroke-dashoffset="15.12" stroke-width=".2117" style="paint-order:markers fill stroke"/>
		</g>
		<path d="m4.233 289.3c-1.388 0-2.514 0.5331-2.514 1.191v0.0744 0.7938 0.1323c0 0.6576 1.125 1.191 2.514 1.191 1.388 0 2.514-0.5331 2.514-1.191v-0.1323-0.7938-0.0744c0-0.6576-1.125-1.191-2.514-1.191z" fill="none" stroke="#323232" stroke-dashoffset="15.12" stroke-width=".265" style="paint-order:markers fill stroke"/>
		<path d="m3.589 290.2s-0.0365-0.5332 0.6734-0.5332c0.6806 0 0.6538 0.5449 0.6538 0.5449l0.7893-6e-3v-0.3625l-0.7498-0.707h-1.421l-0.7382 0.7217-0.0015 0.345z" fill="url(#linearGradient909)" fill-rule="evenodd" stroke="#323232" stroke-width=".2646"/>
	</g>
</svg>
