<?xml version="1.0" encoding="utf-8"?>
<!-- Svg Vector Icons : http://www.onlinewebfonts.com/icon -->
<!DOCTYPE svg PUBLIC "-//W3C//DTD SVG 1.1//EN" "http://www.w3.org/Graphics/SVG/1.1/DTD/svg11.dtd">
<svg version="1.1" xmlns="http://www.w3.org/2000/svg" xmlns:xlink="http://www.w3.org/1999/xlink" x="0px" y="0px" viewBox="0 0 1000 1000" enable-background="new 0 0 1000 1000" xml:space="preserve">
<metadata> Svg Vector Icons : http://www.onlinewebfonts.com/icon </metadata>
<g><path d="M77.2,452.1L77.2,452.1C46.6,486.6,15.9,540.3,12,594c-15.3,92,57.5,180.3,157.2,233.9c7.7,30.7-26.8,84.4-26.8,84.4c-15.3,7.7,7.7,7.7,7.7,7.7c53.7,0,115.1-46,145.7-69c80.5,7.7,153.4-11.5,214.8-46C276.7,793.4,77.2,636.1,77.2,452.1L77.2,452.1L77.2,452.1z"/><path d="M990,436.7c0-195.6-195.6-356.7-444.9-356.7S100.3,237.3,100.3,436.7c0,187.9,195.6,349,437.2,349c38.4,38.4,149.6,118.9,233.9,118.9c0,0,38.4,7.7,23-15.3c0,0-69-84.4-53.7-134.2C890.3,693.7,990,574.8,990,436.7L990,436.7z M234.5,582.5c7.7-42.2,38.4-80.5,76.7-92c-23-11.5-38.4-38.4-38.4-65.2c0-42.2,34.5-72.9,72.9-72.9s76.7,30.7,76.7,72.9c0,7.7,0,15.3-3.8,23c-42.2,30.7-69,80.5-76.7,134.2L234.5,582.5L234.5,582.5z M353.4,582.5c11.5-72.9,61.4-130.4,126.6-153.4c-34.5-19.2-61.4-61.4-61.4-103.5c0-69,53.7-122.7,122.7-122.7S664,256.5,664,325.5c0,46-23,84.4-61.4,103.5c65.2,23,115.1,80.5,126.6,153.4H353.4L353.4,582.5z M671.7,455.9c-3.8-7.7-7.7-19.2-7.7-30.7c0-42.2,34.5-72.9,72.9-72.9c42.2,0,72.9,34.5,72.9,72.9c0,26.8-15.3,49.9-38.4,65.2c42.2,15.3,72.9,49.9,76.7,92H736.9C733,532.6,706.2,486.6,671.7,455.9L671.7,455.9z"/></g>
</svg>