<?xml version="1.0" encoding="UTF-8" standalone="no"?>
<svg
   xmlns:dc="http://purl.org/dc/elements/1.1/"
   xmlns:cc="http://creativecommons.org/ns#"
   xmlns:rdf="http://www.w3.org/1999/02/22-rdf-syntax-ns#"
   xmlns:svg="http://www.w3.org/2000/svg"
   xmlns="http://www.w3.org/2000/svg"
   xmlns:sodipodi="http://sodipodi.sourceforge.net/DTD/sodipodi-0.dtd"
   xmlns:inkscape="http://www.inkscape.org/namespaces/inkscape"
   viewBox="0 0 92 92"
   version="1.1"
   id="svg5757"
   sodipodi:docname="room_default_croped.svg"
   inkscape:version="0.92.1 r15371"
   width="92"
   height="92">
  <metadata
     id="metadata5763">
    <rdf:RDF>
      <cc:Work
         rdf:about="">
        <dc:format>image/svg+xml</dc:format>
        <dc:type
           rdf:resource="http://purl.org/dc/dcmitype/StillImage" />
        <dc:title>50181_F_3DMessagingRoom</dc:title>
      </cc:Work>
    </rdf:RDF>
  </metadata>
  <defs
     id="defs5761" />
  <sodipodi:namedview
     pagecolor="#ffffff"
     bordercolor="#666666"
     borderopacity="1"
     objecttolerance="10"
     gridtolerance="10"
     guidetolerance="10"
     inkscape:pageopacity="0"
     inkscape:pageshadow="2"
     inkscape:window-width="1920"
     inkscape:window-height="1018"
     id="namedview5759"
     showgrid="false"
     inkscape:zoom="9.44"
     inkscape:cx="24.349833"
     inkscape:cy="49.002859"
     inkscape:window-x="1912"
     inkscape:window-y="-8"
     inkscape:window-maximized="1"
     inkscape:current-layer="svg5757" />
  <title
     id="title5737">50181_F_3DMessagingRoom</title>
  <circle
     cx="15"
     cy="42"
     r="10"
     id="circle5739"
     style="fill:#005687;fill-opacity:1" />
  <circle
     cx="77"
     cy="42"
     r="10"
     id="circle5741"
     style="fill:#005687;fill-opacity:1" />
  <path
     d="M 28.93,40.61 A 10,10 0 1 0 24,31.32 a 14,14 0 0 1 4.93,9.29 z"
     id="path5743"
     style="opacity:0.6;fill:#669ab6;fill-opacity:1"
     inkscape:connector-curvature="0" />
  <path
     d="M 68,31.32 A 10,10 0 1 0 63.1,40.61 14,14 0 0 1 68,31.32 Z"
     id="path5745"
     style="opacity:0.6;fill:#669ab6;fill-opacity:1"
     inkscape:connector-curvature="0" />
  <path
     d="M 45,84 C 22.91,84 5,80 5,75 v 8 c 0,5 17.91,9 40,9 22.09,0 40,-4 40,-9 v -8 c 0,5 -17.91,9 -40,9 z"
     id="path5747"
     style="opacity:0.4;fill:#669ab6;fill-opacity:1"
     inkscape:connector-curvature="0" />
  <ellipse
     cx="45"
     cy="75"
     rx="40"
     ry="9"
     id="ellipse5749"
     style="fill:#005687;fill-opacity:1" />
  <path
     d="m 16.84,64.73 a 107.18,107.18 0 0 1 13.09,-2 12,12 0 0 0 -6.63,-9.49 13.9,13.9 0 0 1 -16.6,0 A 12,12 0 0 0 0,64 v 6 a 2,2 0 0 0 2,2 H 2.76 C 5,67.89 11.61,65.91 16.84,64.73 Z"
     id="path5751"
     style="fill:#005687;fill-opacity:1"
     inkscape:connector-curvature="0" />
  <path
     d="m 85.3,53.25 a 13.9,13.9 0 0 1 -16.6,0 12,12 0 0 0 -6.63,9.49 107.18,107.18 0 0 1 13.09,2 C 80.39,65.91 87,67.89 89.24,72 H 90 a 2,2 0 0 0 2,-2 V 64 A 12,12 0 0 0 85.3,53.25 Z"
     id="path5753"
     style="fill:#005687;fill-opacity:1"
     inkscape:connector-curvature="0" />
  <path
     d="M 58.09,62.41 A 15.84,15.84 0 0 1 65.76,50.31 14,14 0 0 1 63.32,44.93 13.66,13.66 0 0 1 58,46 13.9,13.9 0 0 1 49.7,43.25 12,12 0 0 0 46,46.09 12,12 0 0 0 42.3,43.25 13.9,13.9 0 0 1 34,46 a 13.66,13.66 0 0 1 -5.32,-1.07 14,14 0 0 1 -2.44,5.38 15.84,15.84 0 0 1 7.67,12.1 C 37.79,62.14 41.85,62 46,62 c 4.15,0 8.21,0.14 12.09,0.41 z"
     id="path5755"
     style="opacity:0.6;fill:#669ab6;fill-opacity:1"
     inkscape:connector-curvature="0" />
</svg>
