<svg width="25" height="45" xmlns="http://www.w3.org/2000/svg" preserveAspectRatio="xMaxYMax">
    <g>
        <title>Pin</title>
        <rect fill="none" id="pin-background" height="47" width="27" y="-1" x="-1"/>
    </g>
    <g>
        <title>Layer 1</title>
        <g stroke="null" id="svg_1">
            <g stroke="null" id="svg_3" class="balloon-container">
                <g stroke="null" id="svg_2">
                    <path stroke=" #000000" d="m12.50023,0.61752c-6.51488,0 -11.79788,5.59224 -11.79788,12.48846c0,2.80815 0.87686,5.40025 2.35194,7.48519c0.005,0.00289 0.00727,0.00818 0.00727,0.01059c0.28047,0.43643 9.31685,14.46321 9.43822,23.78072c0.12182,-9.31751 9.15775,-23.34429 9.43867,-23.78072c0.005,-0.0077 0.00727,-0.01059 0.00727,-0.01059c1.47599,-2.08494 2.35194,-4.67704 2.35194,-7.48519c0,-6.89575 -5.28209,-12.48846 -11.79743,-12.48846zm0,6.57288c2.94833,0 5.34028,2.53195 5.34028,5.65287c0,3.12091 -2.39194,5.65287 -5.34028,5.65287s-5.33982,-2.53195 -5.33982,-5.65287c0,-3.12091 2.39149,-5.65287 5.33982,-5.65287z" fill="white" id="svg_4" class="balloon-path"/>
                </g>
            </g>
        </g>
        <ellipse stroke="#000000" ry="4.16736" rx="3.95816" id="svg_6" cy="12.83264" cx="12.5" stroke-width="2" fill="#000000"/>
    </g>
</svg>
