<?xml version="1.0" encoding="iso-8859-1"?>
<!-- Generator: Adobe Illustrator 19.1.0, SVG Export Plug-In . SVG Version: 6.00 Build 0)  -->
<svg version="1.1" xmlns="http://www.w3.org/2000/svg" xmlns:xlink="http://www.w3.org/1999/xlink" x="0px" y="0px"
	 viewBox="0 0 32 32" style="enable-background:new 0 0 32 32;" xml:space="preserve">
<g id="THUMBS_UP__x2F__U_x2B_1F44D">
	<linearGradient id="SVGID_1_" gradientUnits="userSpaceOnUse" x1="21.5" y1="3" x2="21.5" y2="28">
		<stop  offset="0" style="stop-color:#FCE460"/>
		<stop  offset="1" style="stop-color:#FCAC5D"/>
	</linearGradient>
	<path style="fill:url(#SVGID_1_);" d="M30.374,13.906C30.208,12.809,29.269,12,28.189,12H23V8c0-1.717-0.905-5-3-5
		c-0.666,0-1,1.402-1,2l-0.499,2.968c-0.938,3.324-2.508,5.296-6.501,6.375V26h3.063c0.541,0,1.031,0.202,1.469,0.517
		C17.677,27.474,18.957,28,20.375,28h2.5c1.189,0,2.251-0.302,3.188-0.905c0.937-0.606,1.645-1.406,2.126-2.408l2.592-5.313
		C30.928,19.041,31,18.728,31,18.437C31,17.971,30.44,14.379,30.374,13.906z"/>
	<rect x="11" y="14" style="fill:#FCAC5D;" width="2" height="12"/>
	<linearGradient id="SVGID_2_" gradientUnits="userSpaceOnUse" x1="9" y1="13" x2="9" y2="27">
		<stop  offset="0" style="stop-color:#F2F2F2"/>
		<stop  offset="1" style="stop-color:#CCCCCC"/>
	</linearGradient>
	<rect x="6" y="13" style="fill:url(#SVGID_2_);" width="6" height="14"/>
	<linearGradient id="SVGID_3_" gradientUnits="userSpaceOnUse" x1="5" y1="12" x2="5" y2="28">
		<stop  offset="0.1557" style="stop-color:#005686"/>
		<stop  offset="0.1691" style="stop-color:#005583"/>
		<stop  offset="0.2917" style="stop-color:#004A71"/>
		<stop  offset="0.436" style="stop-color:#004264"/>
		<stop  offset="0.6227" style="stop-color:#003D5C"/>
		<stop  offset="1" style="stop-color:#003C5A"/>
	</linearGradient>
	<path style="fill:url(#SVGID_3_);" d="M1,28h7c0.552,0,1-0.448,1-1V13c0-0.552-0.448-1-1-1H1V28z"/>
	<circle style="fill:#BDCCD4;" cx="5" cy="25" r="1.5"/>
	<circle style="fill:#FFFFFF;" cx="5.5" cy="24.5" r="0.5"/>
	<linearGradient id="SVGID_4_" gradientUnits="userSpaceOnUse" x1="21.3482" y1="11.4536" x2="23.2674" y2="9.7647">
		<stop  offset="0" style="stop-color:#FC9450"/>
		<stop  offset="0.7542" style="stop-color:#FCAC5D;stop-opacity:0"/>
	</linearGradient>
	<path style="fill:url(#SVGID_4_);" d="M22,12h1V8C23.016,10.125,22,12,22,12z"/>
	<linearGradient id="SVGID_5_" gradientUnits="userSpaceOnUse" x1="29.0051" y1="22.6164" x2="23.5296" y2="19.8164">
		<stop  offset="0" style="stop-color:#FC9450"/>
		<stop  offset="0.7542" style="stop-color:#FCAC5D;stop-opacity:0"/>
	</linearGradient>
	<path style="fill:url(#SVGID_5_);" d="M22.875,28c1.189,0,2.251-0.302,3.188-0.905c0.937-0.606,1.645-1.406,2.126-2.408
		l2.592-5.313C30.928,19.041,31,18.728,31,18.437c0-0.466-0.56-4.058-0.626-4.531C30.208,12.809,29.269,12,28.189,12H26
		c0,0,3,0.609,3,2s0,2,0,2s1,0.266,1,2c0,0.922,0.219,1.969-2,3c0,0-0.016,3.016-2,3c0,0-0.219,3-4,3c-1.833,0-3.529,0-4.795,0
		c0.969,0.64,2.022,1,3.17,1H22.875z"/>
</g>
<g id="Layer_1">
</g>
</svg>
