<?xml version="1.0" encoding="iso-8859-1"?>
<!-- Generator: Adobe Illustrator 19.1.0, SVG Export Plug-In . SVG Version: 6.00 Build 0)  -->
<svg version="1.1" xmlns="http://www.w3.org/2000/svg" xmlns:xlink="http://www.w3.org/1999/xlink" x="0px" y="0px"
	 viewBox="0 0 32 32" style="enable-background:new 0 0 32 32;" xml:space="preserve">
<g id="HOURGLASS_WITH_FLOWING_SAND__x2F__U_x2B_23F3">
	<linearGradient id="SVGID_1_" gradientUnits="userSpaceOnUse" x1="5" y1="28" x2="27" y2="28">
		<stop  offset="0" style="stop-color:#673D2C"/>
		<stop  offset="1" style="stop-color:#4C281C"/>
	</linearGradient>
	<path style="fill:url(#SVGID_1_);" d="M26.361,27c-1.512-1.164-5.573-2-10.361-2s-8.849,0.836-10.361,2H5v1c0,1.657,4.925,3,11,3
		s11-1.343,11-3v-1H26.361z"/>
	<linearGradient id="SVGID_2_" gradientUnits="userSpaceOnUse" x1="16" y1="24" x2="16" y2="30">
		<stop  offset="0" style="stop-color:#9F6C2F"/>
		<stop  offset="1" style="stop-color:#673D2C"/>
	</linearGradient>
	<ellipse style="fill:url(#SVGID_2_);" cx="16" cy="27" rx="11" ry="3"/>
	<linearGradient id="SVGID_3_" gradientUnits="userSpaceOnUse" x1="7" y1="17" x2="25" y2="17">
		<stop  offset="0" style="stop-color:#DCE6E6"/>
		<stop  offset="0.202" style="stop-color:#D8E2E2"/>
		<stop  offset="0.3878" style="stop-color:#CDD7D7"/>
		<stop  offset="0.5673" style="stop-color:#BBC5C5"/>
		<stop  offset="0.7428" style="stop-color:#A1AAAA"/>
		<stop  offset="0.914" style="stop-color:#808989"/>
		<stop  offset="1" style="stop-color:#6D7575"/>
	</linearGradient>
	<path style="fill:url(#SVGID_3_);" d="M19.814,17.496c-0.667-0.562-0.877-1.112-0.877-1.504c0-0.663,0.563-1.329,1.124-1.661
		C21.783,13.105,25,10,25,5h-9H7c0,5.131,3.217,8.105,4.939,9.332c0.561,0.332,1.124,0.997,1.124,1.661
		c0,0.392-0.21,0.942-0.877,1.504C10.55,18.599,7,21.609,7,27c0,1.105,4.029,2,9,2s9-0.895,9-2
		C25,21.609,21.45,18.599,19.814,17.496z"/>
	<ellipse style="fill:#768080;" cx="16" cy="27" rx="9" ry="2"/>
	<linearGradient id="SVGID_4_" gradientUnits="userSpaceOnUse" x1="10" y1="20" x2="22" y2="20">
		<stop  offset="0" style="stop-color:#C6AC73"/>
		<stop  offset="0.5252" style="stop-color:#BE9B64"/>
		<stop  offset="1" style="stop-color:#B58852"/>
	</linearGradient>
	<path style="fill:url(#SVGID_4_);" d="M22,26c0-3-2.609-5.935-4.386-7.612c-0.82-0.774-0.851-2.06-0.06-2.863
		C18.678,14.386,20,12.862,20,12h-8c0,0.862,1.322,2.386,2.446,3.525c0.792,0.802,0.76,2.089-0.06,2.863C12.609,20.065,10,23,10,26
		c0,1.5,2.686,2,6,2S22,27.5,22,26z"/>
	<ellipse style="fill:#C6AC73;" cx="16" cy="12" rx="4" ry="1"/>
	<linearGradient id="SVGID_5_" gradientUnits="userSpaceOnUse" x1="12" y1="7.25" x2="12" y2="25.6277">
		<stop  offset="0" style="stop-color:#DCE6E6;stop-opacity:0"/>
		<stop  offset="0.6224" style="stop-color:#DCE6E6"/>
		<stop  offset="1" style="stop-color:#DCE6E6;stop-opacity:0"/>
	</linearGradient>
	<path style="fill:url(#SVGID_5_);" d="M12.99,27c0-5.391,1.183-8.401,1.729-9.504c0.222-0.562,0.292-1.112,0.292-1.504
		c0-0.663-0.188-1.329-0.375-1.661C14.062,13.105,12.99,10.131,12.99,5h-4c0,5.131,2.502,8.105,3.841,9.332
		c0.436,0.332,0.874,0.997,0.874,1.661c0,0.392-0.163,0.942-0.682,1.504C11.751,18.599,8.99,21.609,8.99,27
		C8.99,28.105,12.99,28.105,12.99,27z"/>
	<linearGradient id="SVGID_6_" gradientUnits="userSpaceOnUse" x1="5" y1="5" x2="27" y2="5">
		<stop  offset="0" style="stop-color:#673D2C"/>
		<stop  offset="1" style="stop-color:#4C281C"/>
	</linearGradient>
	<path style="fill:url(#SVGID_6_);" d="M26.361,4C24.849,2.836,20.787,2,16,2S7.151,2.836,5.639,4H5v1c0,1.657,4.925,3,11,3
		s11-1.343,11-3V4H26.361z"/>
	<linearGradient id="SVGID_7_" gradientUnits="userSpaceOnUse" x1="16" y1="1" x2="16" y2="7.0628">
		<stop  offset="0" style="stop-color:#9F6C2F"/>
		<stop  offset="1" style="stop-color:#673D2C"/>
	</linearGradient>
	<ellipse style="fill:url(#SVGID_7_);" cx="16" cy="4" rx="11" ry="3"/>
</g>
<g id="Layer_1">
</g>
</svg>
