<?xml version="1.0" encoding="iso-8859-1"?>
<!-- Generator: Adobe Illustrator 19.1.0, SVG Export Plug-In . SVG Version: 6.00 Build 0)  -->
<svg version="1.1" xmlns="http://www.w3.org/2000/svg" xmlns:xlink="http://www.w3.org/1999/xlink" x="0px" y="0px"
	 viewBox="0 0 32 32" style="enable-background:new 0 0 32 32;" xml:space="preserve">
<g id="ANGRY_FACE__x2F__U_x2B_1F620">
	<g>
		<linearGradient id="SVGID_1_" gradientUnits="userSpaceOnUse" x1="16" y1="1" x2="16" y2="31">
			<stop  offset="0" style="stop-color:#FC6760"/>
			<stop  offset="1" style="stop-color:#FCAC5D"/>
		</linearGradient>
		<path style="fill:url(#SVGID_1_);" d="M6.795,4.834l4.089-2.429C12.46,1.468,14.23,1,16,1s3.54,0.468,5.116,1.405l4.089,2.429
			C28.183,6.603,30,9.757,30,13.156v5.688c0,3.399-1.817,6.553-4.795,8.322l-4.089,2.429C19.54,30.532,17.77,31,16,31
			s-3.54-0.468-5.116-1.405l-4.089-2.429C3.817,25.397,2,22.243,2,18.844v-5.688C2,9.757,3.817,6.603,6.795,4.834z"/>
	</g>
	<g>
		<path style="fill:#FC7150;" d="M16,18.625c-4.922,0-6.969,1.401-7.147,3.375C8.814,22.432,8.859,23.797,10,24.625s3,0,6,0
			s4.672,0.875,6,0s1.157-2.292,1.153-2.625C23.132,20.031,21.131,18.625,16,18.625z"/>
		<path style="fill:#FFFFFF;" d="M16,17c-6,0-7.719,4.313-7,6s4,0,7,0s6.281,1.688,7,0S22,17,16,17z"/>
	</g>
	<g>
		<path style="fill:#2B201A;" d="M21,16L21,16c-1.105,0-2-0.895-2-2v-2c0-1.105,0.895-2,2-2h0c1.105,0,2,0.895,2,2v2
			C23,15.105,22.105,16,21,16z"/>
		<path style="fill:#AF9D94;" d="M21.5,13L21.5,13c-0.276,0-0.5-0.224-0.5-0.5v-1c0-0.276,0.224-0.5,0.5-0.5l0,0
			c0.276,0,0.5,0.224,0.5,0.5v1C22,12.776,21.776,13,21.5,13z"/>
	</g>
	<g>
		<path style="fill:#2B201A;" d="M11,16L11,16c-1.105,0-2-0.895-2-2v-2c0-1.105,0.895-2,2-2h0c1.105,0,2,0.895,2,2v2
			C13,15.105,12.105,16,11,16z"/>
		<path style="fill:#AF9D94;" d="M11.5,13L11.5,13c-0.276,0-0.5-0.224-0.5-0.5v-1c0-0.276,0.224-0.5,0.5-0.5h0
			c0.276,0,0.5,0.224,0.5,0.5v1C12,12.776,11.776,13,11.5,13z"/>
	</g>
	<g>
		<linearGradient id="SVGID_2_" gradientUnits="userSpaceOnUse" x1="11" y1="5" x2="11" y2="12">
			<stop  offset="0.175" style="stop-color:#FCAC5D;stop-opacity:0"/>
			<stop  offset="0.7123" style="stop-color:#FC9450"/>
		</linearGradient>
		<path style="fill:url(#SVGID_2_);" d="M7,10.5c0,0,0.688-5.5,4-5.5c3.219,0,4,2.094,4,7h-2l-4-2L7,10.5z"/>
		<path style="fill:#2B201A;" d="M15,12c0,0-1.361,0.908-3-0.191C10.141,10.563,9.516,10.5,7,10.5c0,0,2.657-2.939,5-0.5
			C13.531,11.594,15,12,15,12z"/>
	</g>
	<g>
		
			<linearGradient id="SVGID_3_" gradientUnits="userSpaceOnUse" x1="1" y1="5" x2="1" y2="12" gradientTransform="matrix(-1 0 0 1 22 0)">
			<stop  offset="0.175" style="stop-color:#FCAC5D;stop-opacity:0"/>
			<stop  offset="0.7123" style="stop-color:#FC9450"/>
		</linearGradient>
		<path style="fill:url(#SVGID_3_);" d="M25,10.5c0,0-0.688-5.5-4-5.5c-3.219,0-4,2-4,7h2l4-2L25,10.5z"/>
		<path style="fill:#2B201A;" d="M17,12c0,0,1.361,0.908,3-0.191c1.859-1.247,2.484-1.309,5-1.309c0,0-2.657-2.939-5-0.5
			C18.469,11.594,17,12,17,12z"/>
	</g>
</g>
<g id="Layer_1">
</g>
</svg>
