<?xml version="1.0" encoding="iso-8859-1"?>
<!-- Generator: Adobe Illustrator 19.1.0, SVG Export Plug-In . SVG Version: 6.00 Build 0)  -->
<svg version="1.1" xmlns="http://www.w3.org/2000/svg" xmlns:xlink="http://www.w3.org/1999/xlink" x="0px" y="0px"
	 viewBox="0 0 32 32" style="enable-background:new 0 0 32 32;" xml:space="preserve">
<g id="WHITE_FROWNING_FACE__x2F__U_x2B_2639">
	<g>
		<linearGradient id="SVGID_1_" gradientUnits="userSpaceOnUse" x1="16" y1="1" x2="16" y2="31">
			<stop  offset="0" style="stop-color:#FCE460"/>
			<stop  offset="1" style="stop-color:#FCAC5D"/>
		</linearGradient>
		<path style="fill:url(#SVGID_1_);" d="M6.795,4.834l4.089-2.429C12.46,1.468,14.23,1,16,1s3.54,0.468,5.116,1.405l4.089,2.429
			C28.183,6.603,30,9.757,30,13.156v5.688c0,3.399-1.817,6.553-4.795,8.322l-4.089,2.429C19.54,30.532,17.77,31,16,31
			s-3.54-0.468-5.116-1.405l-4.089-2.429C3.817,25.397,2,22.243,2,18.844v-5.688C2,9.757,3.817,6.603,6.795,4.834z"/>
	</g>
	<linearGradient id="SVGID_2_" gradientUnits="userSpaceOnUse" x1="16" y1="22.125" x2="16" y2="27.459">
		<stop  offset="0" style="stop-color:#FC9450"/>
		<stop  offset="0.8983" style="stop-color:#FCAC5D;stop-opacity:0"/>
	</linearGradient>
	<path style="fill:url(#SVGID_2_);" d="M22,25c0,0-2,2.5-6,2.5S10,25,10,25s1-3,6-3S22,25,22,25z"/>
	<path style="fill:#2B201A;" d="M22,25c0,0-1-3-6-3s-6,3-6,3s0-5,6-5S22,25,22,25z"/>
	
		<radialGradient id="SVGID_3_" cx="10.6689" cy="15.2708" r="4.9356" gradientTransform="matrix(1 0 0 1.5215 0 -7.9633)" gradientUnits="userSpaceOnUse">
		<stop  offset="0" style="stop-color:#FC9450"/>
		<stop  offset="0.7542" style="stop-color:#FCAC5D;stop-opacity:0"/>
	</radialGradient>
	<path style="fill:url(#SVGID_3_);" d="M13,8.5V15c0,0,0.042,3.167-4,3.167s-3-6.14-3-6.14S8.417,8.5,13,8.5z"/>
	<g>
		<path d="M6,12.16c0.065-0.102,0.161-0.204,0.239-0.306C6.147,11.954,6.066,12.056,6,12.16z"/>
		<path style="fill:#2B201A;" d="M13,8.634c0-0.361-0.219-0.794-1-0.794c-1.281,0-4.99,1.857-6,4.32
			c1.374-1.486,3.885-2.973,6.495-2.973C12.863,9.188,13,8.899,13,8.634z"/>
	</g>
	
		<radialGradient id="SVGID_4_" cx="-2.439" cy="15.2708" r="4.9253" gradientTransform="matrix(-1 0 0 1.5215 18.8795 -7.9633)" gradientUnits="userSpaceOnUse">
		<stop  offset="0" style="stop-color:#FC9450"/>
		<stop  offset="0.7542" style="stop-color:#FCAC5D;stop-opacity:0"/>
	</radialGradient>
	<path style="fill:url(#SVGID_4_);" d="M19,8.5V15c0,0-0.102,3.167,3.94,3.167s3.03-6.14,3.03-6.14S23,8.5,19,8.5z"/>
	<g>
		<path d="M26,12.16c-0.065-0.102-0.161-0.204-0.239-0.306C25.853,11.954,25.934,12.056,26,12.16z"/>
		<path style="fill:#2B201A;" d="M19,8.634c0-0.361,0.219-0.794,1-0.794c1.281,0,4.99,1.857,6,4.32
			c-1.374-1.486-3.885-2.973-6.495-2.973C19.137,9.188,19,8.899,19,8.634z"/>
	</g>
	<g>
		<path d="M21,17L21,17c-1.105,0-2-0.895-2-2v-2c0-1.105,0.895-2,2-2h0c1.105,0,2,0.895,2,2v2C23,16.105,22.105,17,21,17z"/>
		<ellipse style="fill:#B3B3B3;" cx="21.5" cy="15" rx="0.5" ry="1"/>
	</g>
	<g style="display:none;">
		<path style="display:inline;" d="M11,17L11,17c-1.105,0-2-0.895-2-2v-2c0-1.105,0.895-2,2-2h0c1.105,0,2,0.895,2,2v2
			C13,16.105,12.105,17,11,17z"/>
		<ellipse style="display:inline;fill:#B3B3B3;" cx="11.5" cy="15" rx="0.5" ry="1"/>
	</g>
	<g>
		<path style="fill:#2B201A;" d="M21,17L21,17c-1.105,0-2-0.895-2-2v-2c0-1.105,0.895-2,2-2h0c1.105,0,2,0.895,2,2v2
			C23,16.105,22.105,17,21,17z"/>
		<path style="fill:#AF9D94;" d="M21.5,14L21.5,14c-0.276,0-0.5-0.224-0.5-0.5v-1c0-0.276,0.224-0.5,0.5-0.5l0,0
			c0.276,0,0.5,0.224,0.5,0.5v1C22,13.776,21.776,14,21.5,14z"/>
	</g>
	<g>
		<path style="fill:#2B201A;" d="M11,17L11,17c-1.105,0-2-0.895-2-2v-2c0-1.105,0.895-2,2-2h0c1.105,0,2,0.895,2,2v2
			C13,16.105,12.105,17,11,17z"/>
		<path style="fill:#AF9D94;" d="M11.5,14L11.5,14c-0.276,0-0.5-0.224-0.5-0.5v-1c0-0.276,0.224-0.5,0.5-0.5h0
			c0.276,0,0.5,0.224,0.5,0.5v1C12,13.776,11.776,14,11.5,14z"/>
	</g>
</g>
<g id="Layer_1">
</g>
</svg>
