<?xml version="1.0" encoding="iso-8859-1"?>
<!-- Generator: Adobe Illustrator 19.1.0, SVG Export Plug-In . SVG Version: 6.00 Build 0)  -->
<svg version="1.1" xmlns="http://www.w3.org/2000/svg" xmlns:xlink="http://www.w3.org/1999/xlink" x="0px" y="0px"
	 viewBox="0 0 32 32" style="enable-background:new 0 0 32 32;" xml:space="preserve">
<g id="SMILING_FACE_WITH_SMILING_EYES__x2F__U_x2B_1F60A">
	<g>
		<linearGradient id="SVGID_1_" gradientUnits="userSpaceOnUse" x1="16" y1="1" x2="16" y2="31">
			<stop  offset="0" style="stop-color:#FCE460"/>
			<stop  offset="1" style="stop-color:#FCAC5D"/>
		</linearGradient>
		<path style="fill:url(#SVGID_1_);" d="M6.795,4.834l4.089-2.429C12.46,1.468,14.23,1,16,1s3.54,0.468,5.116,1.405l4.089,2.429
			C28.183,6.603,30,9.757,30,13.156v5.688c0,3.399-1.817,6.553-4.795,8.322l-4.089,2.429C19.54,30.532,17.77,31,16,31
			s-3.54-0.468-5.116-1.405l-4.089-2.429C3.817,25.397,2,22.243,2,18.844v-5.688C2,9.757,3.817,6.603,6.795,4.834z"/>
	</g>
	<linearGradient id="SVGID_2_" gradientUnits="userSpaceOnUse" x1="10.5" y1="13.0417" x2="10.5" y2="17.9585">
		<stop  offset="0" style="stop-color:#FC9450"/>
		<stop  offset="0.7542" style="stop-color:#FCAC5D;stop-opacity:0"/>
	</linearGradient>
	<path style="fill:url(#SVGID_2_);" d="M15,18H6c0,0,0.08-5,4.5-5S15,18,15,18z"/>
	<linearGradient id="SVGID_3_" gradientUnits="userSpaceOnUse" x1="21.5" y1="13.0417" x2="21.5" y2="17.9585">
		<stop  offset="0" style="stop-color:#FC9450"/>
		<stop  offset="0.7542" style="stop-color:#FCAC5D;stop-opacity:0"/>
	</linearGradient>
	<path style="fill:url(#SVGID_3_);" d="M26,18h-9c0,0,0.08-5,4.5-5S26,18,26,18z"/>
	<path style="fill:#2B201A;" d="M14,15c0,0-1-2-3.5-2S7,15,7,15s-0.5-4,3.5-4S14,15,14,15z"/>
	<path style="fill:#2B201A;" d="M25,15c0,0-1-2-3.5-2S18,15,18,15s-0.5-4,3.5-4S25,15,25,15z"/>
	<path style="fill:#2B201A;" d="M10,21c0,0,2.686,1.714,6,1.714S22,21,22,21s-1,4-6,4S10,21,10,21z"/>
</g>
<g id="Layer_1">
</g>
</svg>
