<?xml version="1.0" encoding="iso-8859-1"?>
<!-- Generator: Adobe Illustrator 19.1.0, SVG Export Plug-In . SVG Version: 6.00 Build 0)  -->
<svg version="1.1" xmlns="http://www.w3.org/2000/svg" xmlns:xlink="http://www.w3.org/1999/xlink" x="0px" y="0px"
	 viewBox="0 0 32 32" style="enable-background:new 0 0 32 32;" xml:space="preserve">
<g id="SMILING_FACE__x2F__U_x2B_263A">
	<g>
		<linearGradient id="SVGID_1_" gradientUnits="userSpaceOnUse" x1="16" y1="1" x2="16" y2="31">
			<stop  offset="0" style="stop-color:#FCE460"/>
			<stop  offset="1" style="stop-color:#FCAC5D"/>
		</linearGradient>
		<path style="fill:url(#SVGID_1_);" d="M6.795,4.834l4.089-2.429C12.46,1.468,14.23,1,16,1s3.54,0.468,5.116,1.405l4.089,2.429
			C28.183,6.603,30,9.757,30,13.156v5.688c0,3.399-1.817,6.553-4.795,8.322l-4.089,2.429C19.54,30.532,17.77,31,16,31
			s-3.54-0.468-5.116-1.405l-4.089-2.429C3.817,25.397,2,22.243,2,18.844v-5.688C2,9.757,3.817,6.603,6.795,4.834z"/>
	</g>
	<path style="fill:#2B201A;" d="M10,21c0,0,2.686,1.714,6,1.714S22,21,22,21s-1,4-6,4S10,21,10,21z"/>
	<g>
		<path style="fill:#2B201A;" d="M21,16L21,16c-1.105,0-2-0.895-2-2v-2c0-1.105,0.895-2,2-2h0c1.105,0,2,0.895,2,2v2
			C23,15.105,22.105,16,21,16z"/>
		<path style="fill:#AF9D94;" d="M21.5,13L21.5,13c-0.276,0-0.5-0.224-0.5-0.5v-1c0-0.276,0.224-0.5,0.5-0.5l0,0
			c0.276,0,0.5,0.224,0.5,0.5v1C22,12.776,21.776,13,21.5,13z"/>
	</g>
	<g>
		<path style="fill:#2B201A;" d="M11,16L11,16c-1.105,0-2-0.895-2-2v-2c0-1.105,0.895-2,2-2h0c1.105,0,2,0.895,2,2v2
			C13,15.105,12.105,16,11,16z"/>
		<path style="fill:#AF9D94;" d="M11.5,13L11.5,13c-0.276,0-0.5-0.224-0.5-0.5v-1c0-0.276,0.224-0.5,0.5-0.5h0
			c0.276,0,0.5,0.224,0.5,0.5v1C12,12.776,11.776,13,11.5,13z"/>
	</g>
</g>
<g id="Layer_1">
</g>
</svg>
