<?xml version="1.0" encoding="iso-8859-1"?>
<!-- Generator: Adobe Illustrator 24.1.2, SVG Export Plug-In . SVG Version: 6.00 Build 0)  -->
<svg version="1.1" xmlns="http://www.w3.org/2000/svg" xmlns:xlink="http://www.w3.org/1999/xlink" x="0px" y="0px"
	 viewBox="0 0 128 128" style="enable-background:new 0 0 128 128;" xml:space="preserve">
<g id="_x31_F33C">
	<g id="_x31_F33C_1_">
		
			<radialGradient id="SVGID_1_" cx="63.6309" cy="68.0608" r="63.3075" gradientTransform="matrix(1 0 0 1 0 -0.0028)" gradientUnits="userSpaceOnUse">
			<stop  offset="0" style="stop-color:#42A2DA"/>
			<stop  offset="1" style="stop-color:#368EC4"/>
		</radialGradient>
		<path style="fill:url(#SVGID_1_);" d="M127.766,47.67c-0.55-2.06-3.358-2.527-6.549-8.621c-3.581-6.839-20.317-10.89-31.624-4.094
			c-0.836,0.502-1.665,1.05-2.485,1.627c0.295-0.959,0.56-1.916,0.78-2.867c2.969-12.854-6.055-27.519-13.666-28.811
			C67.441,3.753,66.129,1.226,64,1.339c-2.129-0.114-3.44,2.413-10.222,3.565c-7.611,1.292-16.636,15.957-13.666,28.811
			c0.219,0.95,0.484,1.908,0.779,2.867c-0.82-0.577-1.649-1.125-2.485-1.627c-11.307-6.797-28.043-2.745-31.624,4.094
			c-3.191,6.094-5.999,6.561-6.549,8.621c-0.766,1.99,1.232,4.018,0.231,10.824c-1.123,7.638,10.035,20.752,23.178,21.9
			c0.971,0.085,1.964,0.129,2.967,0.144c-0.802,0.602-1.579,1.221-2.315,1.861c-9.958,8.654-11.276,25.822-5.879,31.342
			c4.809,4.918,4.385,7.733,6.175,8.893c1.655,1.343,4.202,0.07,10.365,3.125c6.917,3.428,22.838-3.132,27.99-15.276
			c0.381-0.898,0.73-1.828,1.054-2.777c0.325,0.949,0.674,1.88,1.055,2.777c5.153,12.145,21.073,18.704,27.99,15.276
			c6.163-3.055,8.71-1.782,10.365-3.125c1.789-1.16,1.366-3.975,6.175-8.893c5.397-5.519,4.079-22.688-5.879-31.342
			c-0.736-0.64-1.514-1.259-2.315-1.861c1.003-0.016,1.995-0.06,2.967-0.144c13.142-1.148,24.3-14.263,23.178-21.9
			C126.534,51.688,128.532,49.659,127.766,47.67z M68.851,75.066L64,78.158l-4.851-3.092l-4.44-3.659l1.441-5.569l2.107-5.353
			L64,60.135l5.742,0.35l2.107,5.353l1.441,5.569L68.851,75.066z"/>
		
			<radialGradient id="SVGID_2_" cx="63.8155" cy="67.6918" r="72.4717" gradientTransform="matrix(1 0 0 1 0 -0.0028)" gradientUnits="userSpaceOnUse">
			<stop  offset="0.6716" style="stop-color:#005686;stop-opacity:0"/>
			<stop  offset="1" style="stop-color:#005686"/>
		</radialGradient>
		<path style="fill:url(#SVGID_2_);" d="M127.766,47.67c-0.55-2.06-3.358-2.527-6.549-8.621c-3.581-6.839-20.317-10.89-31.624-4.094
			c-0.836,0.502-1.665,1.05-2.485,1.627c0.295-0.959,0.56-1.916,0.78-2.867c2.969-12.854-6.055-27.519-13.666-28.811
			C67.441,3.753,66.129,1.226,64,1.339c-2.129-0.114-3.44,2.413-10.222,3.565c-7.611,1.292-16.636,15.957-13.666,28.811
			c0.219,0.95,0.484,1.908,0.779,2.867c-0.82-0.577-1.649-1.125-2.485-1.627c-11.307-6.797-28.043-2.745-31.624,4.094
			c-3.191,6.094-5.999,6.561-6.549,8.621c-0.766,1.99,1.232,4.018,0.231,10.824c-1.123,7.638,10.035,20.752,23.178,21.9
			c0.971,0.085,1.964,0.129,2.967,0.144c-0.802,0.602-1.579,1.221-2.315,1.861c-9.958,8.654-11.276,25.822-5.879,31.342
			c4.809,4.918,4.385,7.733,6.175,8.893c1.655,1.343,4.202,0.07,10.365,3.125c6.917,3.428,22.838-3.132,27.99-15.276
			c0.381-0.898,0.73-1.828,1.054-2.777c0.325,0.949,0.674,1.88,1.055,2.777c5.153,12.145,21.073,18.704,27.99,15.276
			c6.163-3.055,8.71-1.782,10.365-3.125c1.789-1.16,1.366-3.975,6.175-8.893c5.397-5.519,4.079-22.688-5.879-31.342
			c-0.736-0.64-1.514-1.259-2.315-1.861c1.003-0.016,1.995-0.06,2.967-0.144c13.142-1.148,24.3-14.263,23.178-21.9
			C126.534,51.688,128.532,49.659,127.766,47.67z M119.811,59.163c0.986,6.709-8.815,18.23-20.36,19.238
			c-0.854,0.075-1.725,0.113-2.606,0.127c0.704,0.529,1.387,1.073,2.034,1.635c8.747,7.602,9.906,22.683,5.164,27.532
			c-4.224,4.32-3.852,6.793-5.424,7.812c-1.454,1.18-3.691,0.062-9.105,2.745c-6.076,3.011-20.062-2.751-24.588-13.419
			c-0.335-0.789-0.641-1.606-0.927-2.44c-0.285,0.834-0.591,1.651-0.926,2.44c-4.526,10.668-18.511,16.43-24.588,13.419
			c-5.414-2.683-7.651-1.565-9.105-2.745c-1.572-1.019-1.2-3.492-5.424-7.812c-4.742-4.848-3.583-19.93,5.164-27.532
			c0.647-0.562,1.329-1.106,2.034-1.635c-0.881-0.014-1.753-0.052-2.606-0.127C17.004,77.393,7.202,65.872,8.189,59.163
			c0.878-5.978-0.876-7.76-0.203-9.508c0.483-1.809,2.95-2.22,5.753-7.573c3.146-6.008,17.847-9.566,27.779-3.596
			c0.734,0.441,1.463,0.923,2.184,1.429c-0.259-0.842-0.492-1.683-0.684-2.518c-2.609-11.292,5.319-24.174,12.004-25.309
			C60.978,11.077,62.13,8.857,64,8.957c1.87-0.1,3.023,2.12,8.98,3.131c6.686,1.135,14.613,14.017,12.004,25.309
			c-0.192,0.835-0.426,1.676-0.684,2.518c0.721-0.507,1.449-0.988,2.183-1.429c9.932-5.97,24.634-2.411,27.779,3.596
			c2.803,5.353,5.27,5.763,5.753,7.573C120.688,51.403,118.932,53.185,119.811,59.163z"/>
		
			<radialGradient id="SVGID_3_" cx="63.7076" cy="67.2266" r="33.2165" gradientTransform="matrix(1 0 0 1 0 -0.0028)" gradientUnits="userSpaceOnUse">
			<stop  offset="0" style="stop-color:#FFFFFF"/>
			<stop  offset="0.1493" style="stop-color:#FBFDFE"/>
			<stop  offset="0.2952" style="stop-color:#EFF7FC"/>
			<stop  offset="0.4397" style="stop-color:#DCEEF8"/>
			<stop  offset="0.5833" style="stop-color:#C0E0F3"/>
			<stop  offset="0.7265" style="stop-color:#9DCFEC"/>
			<stop  offset="0.8672" style="stop-color:#72B9E3"/>
			<stop  offset="1" style="stop-color:#42A2DA"/>
		</radialGradient>
		<path style="fill:url(#SVGID_3_);" d="M87.756,74.656c-9.807-4.231-13.667-16.113-8.22-25.301l7.573-12.773l-9.808,11.15
			c-7.054,8.02-19.547,8.02-26.602,0l-9.807-11.15l7.573,12.773c5.447,9.187,1.586,21.07-8.221,25.301l-13.635,5.882l14.488-3.255
			c10.421-2.342,20.528,5.002,21.522,15.637L64,107.705l1.381-14.785c0.993-10.634,11.101-17.978,21.522-15.637l14.488,3.256
			L87.756,74.656z"/>
		
			<radialGradient id="SVGID_4_" cx="1216.8334" cy="-2993.0605" r="45.32" gradientTransform="matrix(0.81 -0.5865 0.5865 0.81 832.4971 3207.4204)" gradientUnits="userSpaceOnUse">
			<stop  offset="0" style="stop-color:#FFFFFF"/>
			<stop  offset="0.1048" style="stop-color:#F4F9FC;stop-opacity:0.8952"/>
			<stop  offset="0.2919" style="stop-color:#D5E7F3;stop-opacity:0.7081"/>
			<stop  offset="0.5396" style="stop-color:#A3CBE4;stop-opacity:0.4604"/>
			<stop  offset="0.835" style="stop-color:#5FA5D0;stop-opacity:0.165"/>
			<stop  offset="1" style="stop-color:#368EC4;stop-opacity:0"/>
		</radialGradient>
		<path style="fill:url(#SVGID_4_);" d="M64.063,16.833l1.852,20.176C67.246,51.52,81.02,61.562,95.243,58.39l19.774-4.41
			l-18.616,7.996c-13.39,5.751-18.683,21.955-11.272,34.502l10.304,17.444L82.078,98.688c-9.607-10.957-26.653-10.985-36.295-0.059
			L32.377,113.82l10.361-17.411c7.452-12.523,2.211-28.744-11.16-34.538l-18.59-8.056l19.76,4.474
			c14.213,3.218,28.019-6.78,29.398-21.287L64.063,16.833z"/>
		<g>
			
				<radialGradient id="SVGID_5_" cx="63.9999" cy="68.3902" r="10.3111" gradientTransform="matrix(1 0 0 1 0 -0.0028)" gradientUnits="userSpaceOnUse">
				<stop  offset="0" style="stop-color:#FFD52D"/>
				<stop  offset="0.1191" style="stop-color:#FED12C"/>
				<stop  offset="0.2353" style="stop-color:#FAC52B"/>
				<stop  offset="0.3504" style="stop-color:#F3B228"/>
				<stop  offset="0.4649" style="stop-color:#EA9623"/>
				<stop  offset="0.5779" style="stop-color:#DE731E"/>
				<stop  offset="0.581" style="stop-color:#DE721E"/>
			</radialGradient>
			<circle style="fill:url(#SVGID_5_);" cx="64" cy="68.389" r="10.311"/>
			<linearGradient id="SVGID_6_" gradientUnits="userSpaceOnUse" x1="63.9999" y1="50.7482" x2="63.9999" y2="83.6542">
				<stop  offset="4.528621e-07" style="stop-color:#FFD52D"/>
				<stop  offset="1" style="stop-color:#FF9A1A"/>
			</linearGradient>
			<path style="fill:url(#SVGID_6_);" d="M56.789,55.195c0.566-0.411,0.935-1.095,0.823-1.786c-0.011-0.066-0.016-0.134-0.016-0.207
				c0-1.679,3.247-3.075,6.594-3.075c3.48,0,6.23,1.646,6.23,3.074c0,0.569-0.368,0.981-0.368,1.128c0,0.004,0,0.008,0.001,0.011
				l4.455,3.237c0.552,0.401,1.261,0.399,1.887,0.126c0.158-0.069,0.34-0.114,0.552-0.114c1.687,0,5.054,3.494,5.054,8.512
				c0,3.079-1.232,3.851-2.024,3.801l-0.678-0.062l-1.664,5.121c-0.218,0.672-0.066,1.411,0.411,1.932
				c0.209,0.229,0.375,0.558,0.375,1.048c0,2.945-4.633,7.282-8.794,7.282c-0.556,0-1.311,0.031-1.823-0.789
				c-0.379-0.607-1.01-1.014-1.725-1.014h-4.006c-0.706,0-1.404,0.339-1.738,0.961c-0.232,0.432-0.736,0.844-1.897,0.844
				c-4.674,0-8.825-4.746-8.825-7.281c0-0.462,0.12-0.764,0.306-0.988c0.471-0.567,0.695-1.297,0.467-1.998l-1.664-5.12
				c-0.013-0.006-0.03-0.009-0.053-0.009c-0.117,0-0.362,0.073-0.659,0.073c-1.903,0-2.009-3.248-2.009-3.79
				c0-3.95,2.933-8.544,5.058-8.544c0.209,0,0.381,0.04,0.535,0.108c0.644,0.285,1.373,0.296,1.942-0.118L56.789,55.195z
				 M57.576,68.452c0,3.553,2.88,6.433,6.433,6.433c3.553,0,6.433-2.88,6.433-6.433c0-3.553-2.88-6.433-6.433-6.433
				C60.456,62.019,57.576,64.9,57.576,68.452z"/>
			<g>
				<linearGradient id="SVGID_7_" gradientUnits="userSpaceOnUse" x1="64.018" y1="58.4885" x2="64.018" y2="66.2432">
					<stop  offset="4.528621e-07" style="stop-color:#FF9A1A;stop-opacity:0"/>
					<stop  offset="1" style="stop-color:#FF9A1A"/>
				</linearGradient>
				<path style="fill:url(#SVGID_7_);" d="M64.018,58.342c-3.553,0-6.433,2.88-6.433,6.433c0,0.639,0.096,1.256,0.27,1.839
					c0.791-2.656,3.249-4.594,6.162-4.594c2.913,0,5.371,1.938,6.162,4.594c0.174-0.583,0.27-1.199,0.27-1.839
					C70.451,61.222,67.571,58.342,64.018,58.342z"/>
				<linearGradient id="SVGID_8_" gradientUnits="userSpaceOnUse" x1="48.2458" y1="64.3889" x2="48.2458" y2="72.9605">
					<stop  offset="4.528621e-07" style="stop-color:#FF9A1A;stop-opacity:0"/>
					<stop  offset="1" style="stop-color:#FF9A1A"/>
				</linearGradient>
				<path style="fill:url(#SVGID_8_);" d="M49.926,73.28c0.471-0.567,0.695-1.297,0.467-1.998l-1.663-5.12
					c-0.012-0.006-0.03-0.009-0.052-0.009c-0.117,0-0.362,0.073-0.659,0.073c-1.062,0-1.563-1.011-1.8-1.999
					c-0.13,0.631-0.209,1.266-0.209,1.886c0,0.542,0.106,3.791,2.009,3.791c0.297,0,0.542-0.073,0.659-0.073
					c0.022,0,0.04,0.003,0.052,0.009l1.147,3.53C49.896,73.343,49.905,73.305,49.926,73.28z"/>
				<linearGradient id="SVGID_9_" gradientUnits="userSpaceOnUse" x1="64.024" y1="76.5214" x2="64.024" y2="84.8296">
					<stop  offset="4.528621e-07" style="stop-color:#FF9A1A;stop-opacity:0"/>
					<stop  offset="1" style="stop-color:#FF9A1A"/>
				</linearGradient>
				<path style="fill:url(#SVGID_9_);" d="M77.749,76.443c-1.431,2.529-4.909,5.104-8.115,5.104c-0.556,0-1.31,0.031-1.822-0.789
					c-0.379-0.607-1.01-1.014-1.726-1.014H62.08c-0.707,0-1.404,0.339-1.739,0.961c-0.232,0.432-0.736,0.844-1.897,0.844
					c-3.56,0-6.811-2.752-8.161-5.185c-0.094,0.209-0.207,0.411-0.358,0.593c-0.187,0.224-0.306,0.526-0.306,0.988
					c0,2.535,4.15,7.281,8.825,7.281c1.161,0,1.665-0.412,1.897-0.844c0.335-0.622,1.032-0.961,1.739-0.961h4.005
					c0.716,0,1.347,0.407,1.726,1.014c0.512,0.82,1.266,0.789,1.822,0.789c4.161,0,8.794-4.337,8.794-7.282
					c0-0.491-0.165-0.82-0.375-1.048C77.929,76.757,77.829,76.604,77.749,76.443z"/>
				<linearGradient id="SVGID_10_" gradientUnits="userSpaceOnUse" x1="79.7769" y1="64.3221" x2="79.7769" y2="72.9678">
					<stop  offset="4.528621e-07" style="stop-color:#FF9A1A;stop-opacity:0"/>
					<stop  offset="1" style="stop-color:#FF9A1A"/>
				</linearGradient>
				<path style="fill:url(#SVGID_10_);" d="M79.985,66.225l-0.678-0.062l-1.664,5.121c-0.218,0.672-0.066,1.411,0.411,1.932
					c0.041,0.044,0.066,0.112,0.103,0.164l1.15-3.541l0.678,0.062c0.793,0.05,2.024-0.722,2.024-3.801
					c0-0.678-0.065-1.324-0.176-1.942C81.469,65.795,80.599,66.263,79.985,66.225z"/>
			</g>
			<g>
				<circle style="fill:#582D24;" cx="60.502" cy="65.763" r="2.072"/>
				<circle style="fill:#582D24;" cx="64.002" cy="63.247" r="2.072"/>
				<circle style="fill:#582D24;" cx="67.534" cy="65.763" r="2.072"/>
				<circle style="fill:#582D24;" cx="60.502" cy="70.853" r="2.072"/>
				<circle style="fill:#582D24;" cx="64.002" cy="68.337" r="2.072"/>
				<circle style="fill:#582D24;" cx="64.002" cy="73.427" r="2.072"/>
				<circle style="fill:#582D24;" cx="67.534" cy="70.853" r="2.072"/>
			</g>
		</g>
	</g>
</g>
<g id="Layer_1">
</g>
</svg>
