<?xml version="1.0" encoding="iso-8859-1"?>
<!-- Generator: Adobe Illustrator 24.1.2, SVG Export Plug-In . SVG Version: 6.00 Build 0)  -->
<svg version="1.1" xmlns="http://www.w3.org/2000/svg" xmlns:xlink="http://www.w3.org/1999/xlink" x="0px" y="0px"
	 viewBox="0 0 128 128" style="enable-background:new 0 0 128 128;" xml:space="preserve">
<g id="_x31_F340">
	<g id="_x31_F340_1_">
		
			<linearGradient id="SVGID_1_" gradientUnits="userSpaceOnUse" x1="1675.5178" y1="807.5851" x2="1675.5178" y2="746.7192" gradientTransform="matrix(0.7071 -0.7071 0.7071 0.7071 -1691.7246 677.8155)">
			<stop  offset="0" style="stop-color:#9CBB1A"/>
			<stop  offset="0.3197" style="stop-color:#95B520"/>
			<stop  offset="0.7669" style="stop-color:#83A631"/>
			<stop  offset="1" style="stop-color:#779B3D"/>
		</linearGradient>
		<path style="fill:url(#SVGID_1_);" d="M27.346,4.234c-6.681,6.681-4.074,9.129-9.028,14.084s-7.403,2.347-14.084,9.028
			s-4.926,17.927,1.574,24.427s18.107,9.75,30.656,9.75c12.549,0,19.732-2.618,23.705,1.354s2.477,2.477,2.477,2.477L64,64
			l1.354-1.354c0,0,1.495,1.495-2.477-2.477s-1.354-11.156-1.354-23.705c0-12.549-3.25-24.156-9.75-30.656
			S34.027-2.447,27.346,4.234z"/>
		<linearGradient id="SVGID_2_" gradientUnits="userSpaceOnUse" x1="39.9204" y1="-0.1368" x2="39.9204" y2="43.4204">
			<stop  offset="0" style="stop-color:#ADDD82"/>
			<stop  offset="1" style="stop-color:#ADDD82;stop-opacity:0"/>
		</linearGradient>
		<path style="fill:url(#SVGID_2_);" d="M61.453,40.022c0.043-1.122,0.07-2.304,0.07-3.558c0-12.549-3.25-24.156-9.75-30.656
			S34.027-2.447,27.346,4.234c-6.681,6.681-4.074,9.129-9.028,14.084l34.036,34.036C55.939,48.768,59.964,44.53,61.453,40.022z"/>
		
			<linearGradient id="SVGID_3_" gradientUnits="userSpaceOnUse" x1="1545.8817" y1="4084.3179" x2="1545.8817" y2="4023.4521" gradientTransform="matrix(-0.7071 -0.7071 0.7071 -0.7071 -1730.8511 4045.0581)">
			<stop  offset="0" style="stop-color:#9CBB1A"/>
			<stop  offset="0.3197" style="stop-color:#95B520"/>
			<stop  offset="0.7669" style="stop-color:#83A631"/>
			<stop  offset="1" style="stop-color:#779B3D"/>
		</linearGradient>
		<path style="fill:url(#SVGID_3_);" d="M4.234,100.654c6.681,6.681,9.129,4.074,14.084,9.028c4.955,4.955,2.347,7.403,9.028,14.084
			c6.681,6.681,17.927,4.926,24.427-1.574c6.5-6.5,9.75-18.107,9.75-30.656c0-12.549-2.618-19.732,1.354-23.705
			s2.477-2.477,2.477-2.477L64,64l-1.354-1.354c0,0,1.495-1.495-2.477,2.477c-3.972,3.972-11.156,1.354-23.705,1.354
			c-12.549,0-24.156,3.25-30.656,9.75C-0.692,82.728-2.447,93.973,4.234,100.654z"/>
		<linearGradient id="SVGID_4_" gradientUnits="userSpaceOnUse" x1="19.6074" y1="112.308" x2="29.2946" y2="67.4306">
			<stop  offset="0" style="stop-color:#44892F"/>
			<stop  offset="1" style="stop-color:#44892F;stop-opacity:0"/>
		</linearGradient>
		<path style="fill:url(#SVGID_4_);" d="M40.022,66.547c-1.122-0.043-2.304-0.07-3.558-0.07c-12.549,0-24.156,3.25-30.656,9.75
			c-6.5,6.5-8.255,17.746-1.574,24.427c6.681,6.681,9.129,4.074,14.084,9.028l34.036-34.036
			C48.768,72.061,44.53,68.036,40.022,66.547z"/>
		
			<linearGradient id="SVGID_5_" gradientUnits="userSpaceOnUse" x1="-1730.8512" y1="3954.6816" x2="-1730.8512" y2="3893.8159" gradientTransform="matrix(-0.7071 0.7071 -0.7071 -0.7071 1636.3914 4084.1846)">
			<stop  offset="0" style="stop-color:#9CBB1A"/>
			<stop  offset="0.3197" style="stop-color:#95B520"/>
			<stop  offset="0.7669" style="stop-color:#83A631"/>
			<stop  offset="1" style="stop-color:#779B3D"/>
		</linearGradient>
		<path style="fill:url(#SVGID_5_);" d="M100.654,123.766c6.681-6.681,4.074-9.129,9.028-14.084
			c4.955-4.955,7.403-2.347,14.084-9.028c6.681-6.681,4.926-17.927-1.574-24.427c-6.5-6.5-18.107-9.75-30.656-9.75
			c-12.549,0-19.732,2.618-23.705-1.354c-3.972-3.972-2.477-2.477-2.477-2.477L64,64l-1.354,1.354c0,0-1.495-1.495,2.477,2.477
			c3.972,3.972,1.354,11.156,1.354,23.705c0,12.549,3.25,24.156,9.75,30.656C82.728,128.692,93.973,130.447,100.654,123.766z"/>
		<linearGradient id="SVGID_6_" gradientUnits="userSpaceOnUse" x1="91.6162" y1="129.7424" x2="84.4854" y2="75.5869">
			<stop  offset="0" style="stop-color:#44892F"/>
			<stop  offset="1" style="stop-color:#44892F;stop-opacity:0"/>
		</linearGradient>
		<path style="fill:url(#SVGID_6_);" d="M66.547,87.978c-0.043,1.122-0.07,2.304-0.07,3.558c0,12.549,3.25,24.156,9.75,30.656
			c6.5,6.5,17.746,8.255,24.427,1.574c6.681-6.681,4.074-9.129,9.028-14.084L75.646,75.646
			C72.061,79.232,68.036,83.47,66.547,87.978z"/>
		
			<linearGradient id="SVGID_7_" gradientUnits="userSpaceOnUse" x1="-1601.215" y1="677.9489" x2="-1601.215" y2="617.0831" gradientTransform="matrix(0.7071 0.7071 -0.7071 0.7071 1675.5178 716.942)">
			<stop  offset="0" style="stop-color:#9CBB1A"/>
			<stop  offset="0.3197" style="stop-color:#95B520"/>
			<stop  offset="0.7669" style="stop-color:#83A631"/>
			<stop  offset="1" style="stop-color:#779B3D"/>
		</linearGradient>
		<path style="fill:url(#SVGID_7_);" d="M123.766,27.346c-6.681-6.681-9.129-4.074-14.084-9.028s-2.347-7.403-9.028-14.084
			S82.728-0.692,76.227,5.808c-6.5,6.5-9.75,18.107-9.75,30.656c0,12.549,2.618,19.732-1.354,23.705
			c-3.972,3.972-2.477,2.477-2.477,2.477L64,64l1.354,1.354c0,0-1.495,1.495,2.477-2.477s11.156-1.354,23.705-1.354
			c12.549,0,24.156-3.25,30.656-9.75C128.692,45.272,130.447,34.027,123.766,27.346z"/>
		<linearGradient id="SVGID_8_" gradientUnits="userSpaceOnUse" x1="101.8231" y1="7.7103" x2="101.8231" y2="52.7566">
			<stop  offset="0" style="stop-color:#ADDD82"/>
			<stop  offset="1" style="stop-color:#ADDD82;stop-opacity:0"/>
		</linearGradient>
		<path style="fill:url(#SVGID_8_);" d="M87.978,61.453c1.122,0.043,2.304,0.07,3.558,0.07c12.549,0,24.156-3.25,30.656-9.75
			c6.5-6.5,8.255-17.746,1.574-24.427c-6.681-6.681-9.129-4.074-14.084-9.028L75.646,52.354
			C79.232,55.939,83.47,59.964,87.978,61.453z"/>
	</g>
</g>
<g id="Layer_1">
</g>
</svg>
