<?xml version="1.0" encoding="iso-8859-1"?>
<!-- Generator: Adobe Illustrator 24.1.2, SVG Export Plug-In . SVG Version: 6.00 Build 0)  -->
<svg version="1.1" xmlns="http://www.w3.org/2000/svg" xmlns:xlink="http://www.w3.org/1999/xlink" x="0px" y="0px"
	 viewBox="0 0 128 128" style="enable-background:new 0 0 128 128;" xml:space="preserve">
<g id="_x31_F37A">
	<g id="_x31_F37A_1_">
		<g>
			<linearGradient id="SVGID_1_" gradientUnits="userSpaceOnUse" x1="97.6786" y1="74.2744" x2="125.5897" y2="74.4522">
				<stop  offset="0" style="stop-color:#7AD4F8"/>
				<stop  offset="0.4659" style="stop-color:#A1E1F7"/>
				<stop  offset="1" style="stop-color:#45C2F8"/>
			</linearGradient>
			<path style="fill:url(#SVGID_1_);" d="M96.99,46.044v8.445h13.156c1.178,0,2.133,0.955,2.133,2.133V92
				c0,1.178-0.955,2.133-2.133,2.133H96.99v8.444h12.8c7.069,0,12.8-5.731,12.8-12.8V58.844c0-7.069-5.731-12.8-12.8-12.8H96.99z"/>
			<g>
				<rect x="96.99" y="94.133" style="fill:#1D8BFF;" width="8.889" height="8.444"/>
				<rect x="96.99" y="46.044" style="fill:#1D8BFF;" width="8.889" height="8.445"/>
			</g>
		</g>
		<linearGradient id="SVGID_2_" gradientUnits="userSpaceOnUse" x1="16.4515" y1="81.506" x2="102.7974" y2="81.506">
			<stop  offset="0" style="stop-color:#7AD4F8"/>
			<stop  offset="0.4659" style="stop-color:#A1E1F7"/>
			<stop  offset="1" style="stop-color:#45C2F8"/>
		</linearGradient>
		<path style="fill:url(#SVGID_2_);" d="M16.452,35.012v68.06c0,14.933,11.173,24.928,43.173,24.928s43.173-9.995,43.173-24.928
			v-68.06H16.452z"/>
		<ellipse style="fill:#3D3D3D;" cx="59.625" cy="35.012" rx="43.173" ry="15.683"/>
		<linearGradient id="SVGID_3_" gradientUnits="userSpaceOnUse" x1="21.886" y1="63.7933" x2="89.5353" y2="76.4355">
			<stop  offset="4.528621e-07" style="stop-color:#FFD52D"/>
			<stop  offset="1" style="stop-color:#FF9A1A"/>
		</linearGradient>
		<path style="fill:url(#SVGID_3_);" d="M99.434,30.745c0,0-3.215-8.972-39.81-8.973c-37.479-0.001-39.81,8.973-39.81,8.973v67.025
			c0,13.77,10.303,22.986,39.81,22.986s39.81-9.216,39.81-22.986V30.745z"/>
		<linearGradient id="SVGID_4_" gradientUnits="userSpaceOnUse" x1="16.4515" y1="81.506" x2="102.7974" y2="81.506">
			<stop  offset="0" style="stop-color:#7AD4F8;stop-opacity:0"/>
			<stop  offset="0.4659" style="stop-color:#F1F1F1"/>
			<stop  offset="1" style="stop-color:#45C2F8;stop-opacity:0.3"/>
		</linearGradient>
		<path style="opacity:0.56;fill:url(#SVGID_4_);" d="M59.624,50.696c-23.844,0-43.173-7.022-43.173-15.684v68.06
			c0,14.933,11.173,24.928,43.173,24.928s43.173-9.995,43.173-24.928v-68.06C102.797,43.674,83.468,50.696,59.624,50.696z"/>
		<linearGradient id="SVGID_5_" gradientUnits="userSpaceOnUse" x1="59.6245" y1="18.9333" x2="59.6245" y2="46.0118">
			<stop  offset="0" style="stop-color:#7AD4F8"/>
			<stop  offset="1" style="stop-color:#F1F1F1"/>
		</linearGradient>
		<path style="fill:url(#SVGID_5_);" d="M59.624,19.329c-23.844,0-43.173,7.022-43.173,15.683c0,8.662,19.329,15.684,43.173,15.684
			s43.173-7.022,43.173-15.684C102.797,26.351,83.468,19.329,59.624,19.329z M59.624,48.024c-21.986,0-39.81-5.826-39.81-13.012
			C19.815,27.826,37.638,22,59.624,22s39.81,5.826,39.81,13.012C99.434,42.198,81.611,48.024,59.624,48.024z"/>
		<g>
			<linearGradient id="SVGID_6_" gradientUnits="userSpaceOnUse" x1="77.264" y1="57.7625" x2="102.5973" y2="118.0291">
				<stop  offset="0" style="stop-color:#F4F5F6;stop-opacity:0"/>
				<stop  offset="1" style="stop-color:#FFFFFF"/>
			</linearGradient>
			<path style="fill:url(#SVGID_6_);" d="M96.218,49.845v53.845c0,2.738-2.051,5.875-4.593,6.893
				c-1.942,0.778-4.097,1.485-6.432,2.109c-5.16,1.378-9.391-1.879-9.391-7.219V56.053C84.282,54.816,91.418,52.619,96.218,49.845z"
				/>
			<linearGradient id="SVGID_7_" gradientUnits="userSpaceOnUse" x1="59.6263" y1="57.0667" x2="59.6263" y2="113.6402">
				<stop  offset="0" style="stop-color:#F4F5F6;stop-opacity:0"/>
				<stop  offset="1" style="stop-color:#FFFFFF"/>
			</linearGradient>
			<path style="fill:url(#SVGID_7_);" d="M69.84,56.747v51.484c0,3.975-3.247,7.368-7.221,7.466c-0.99,0.024-1.99,0.037-2.998,0.037
				c-1.005,0-2.001-0.012-2.987-0.037c-3.974-0.098-7.221-3.491-7.221-7.466V56.747c3.275,0.299,6.688,0.448,10.208,0.448
				C63.141,57.195,66.565,57.045,69.84,56.747z"/>
			<linearGradient id="SVGID_8_" gradientUnits="userSpaceOnUse" x1="29.0314" y1="53.8927" x2="38.0981" y2="112.2927">
				<stop  offset="0" style="stop-color:#F4F5F6;stop-opacity:0"/>
				<stop  offset="1" style="stop-color:#FFFFFF"/>
			</linearGradient>
			<path style="fill:url(#SVGID_8_);" d="M43.301,56.032v49.396c0,5.355-4.24,8.61-9.409,7.214
				c-2.339-0.631-4.497-1.346-6.439-2.132c-2.528-1.023-4.568-4.155-4.568-6.883V49.76C27.664,52.555,34.81,54.773,43.301,56.032z"
				/>
		</g>
		<g>
			<linearGradient id="SVGID_9_" gradientUnits="userSpaceOnUse" x1="47.5086" y1="3.8329" x2="47.5086" y2="81.3259">
				<stop  offset="0" style="stop-color:#F4F5F6"/>
				<stop  offset="1" style="stop-color:#D1D4D4"/>
			</linearGradient>
			<path style="fill:url(#SVGID_9_);" d="M75.802,14.578c-5.867-2.133-12.768,0.889-12.768,0.889C58.412,1.778,48.576,0,38.856,0
				C24.812,0,20.901,12.622,20.901,12.622s-10.642-0.742-14.4,12.445C2.817,37.992,8.764,48.48,19.815,49.76
				c10.137,1.174,13.278-2.377,13.278-2.377v33.98c0,1.199,0.972,2.171,2.171,2.171c1.199,0,2.171-0.972,2.171-2.171L37.256,49.76
				l8.711,0.936l0.17,23.695c-0.085,0.373-0.095,0.769,0.008,1.165c0.343,1.326,1.697,2.122,3.022,1.778
				c1.326-0.344,2.121-1.697,1.778-3.022l0.355-23.615c3.2,3.527,10.101,9.038,15.111,2.815c3.894-4.836,11.062-6.867,11.062-6.867
				s7.249,0.29,10.982-7.71C92.19,30.933,86.542,18.483,75.802,14.578z"/>
			<linearGradient id="SVGID_10_" gradientUnits="userSpaceOnUse" x1="47.5098" y1="3.8328" x2="47.5098" y2="81.3231">
				<stop  offset="0" style="stop-color:#F4F5F6"/>
				<stop  offset="1" style="stop-color:#FFFFFF"/>
			</linearGradient>
			<path style="fill:url(#SVGID_10_);" d="M89.605,33.141c0.032,2.059-0.33,4.032-1.152,5.792c-3.733,8-10.976,7.712-10.976,7.712
				s-7.168,2.027-11.061,6.869c-5.013,6.219-11.915,0.704-15.115-2.816l-0.352,23.616c0.341,1.323-0.459,2.677-1.781,3.019
				c-1.323,0.341-2.677-0.448-3.019-1.781c-0.107-0.395-0.096-0.79-0.011-1.163l-0.16-22.613v-0.117l-0.011-0.96l-0.288-0.032
				l-8.427-0.907l0.181,31.605c0,1.195-0.971,2.165-2.176,2.165c-1.195,0-2.165-0.971-2.165-2.165V47.381
				c0,0-3.147,3.552-13.28,2.379c-8.875-1.024-14.443-7.989-14.4-17.376c0.011-2.315,0.363-4.768,1.088-7.317
				c3.755-13.184,14.4-12.448,14.4-12.448S24.816,0,38.853,0c9.717,0,19.563,1.781,24.181,15.467c0,0,6.901-3.019,12.768-0.885
				C84.176,17.621,89.456,25.867,89.605,33.141z"/>
			<g>
				<linearGradient id="SVGID_11_" gradientUnits="userSpaceOnUse" x1="19.2529" y1="33.1921" x2="19.2529" y2="49.5321">
					<stop  offset="0" style="stop-color:#F4F5F6"/>
					<stop  offset="1" style="stop-color:#D1D4D4"/>
				</linearGradient>
				<path style="fill:url(#SVGID_11_);" d="M33.093,40.715v6.667c0,0-3.147,3.552-13.28,2.379
					c-8.875-1.024-14.443-7.989-14.4-17.376c2.485,6.485,9.099,12.651,16.373,11.531C31.034,42.485,33.093,40.715,33.093,40.715z"/>
				<linearGradient id="SVGID_12_" gradientUnits="userSpaceOnUse" x1="41.4648" y1="45.5731" x2="41.4648" y2="50.5256">
					<stop  offset="0" style="stop-color:#F4F5F6"/>
					<stop  offset="1" style="stop-color:#D1D4D4"/>
				</linearGradient>
				<path style="fill:url(#SVGID_12_);" d="M45.68,50.667l-8.427-0.907c0,0-0.171-4.608,1.963-4.427
					C41.029,45.483,44.634,48.469,45.68,50.667z"/>
				<linearGradient id="SVGID_13_" gradientUnits="userSpaceOnUse" x1="70.4322" y1="34.2055" x2="70.4322" y2="55.7184">
					<stop  offset="0" style="stop-color:#F4F5F6"/>
					<stop  offset="1" style="stop-color:#D1D4D4"/>
				</linearGradient>
				<path style="fill:url(#SVGID_13_);" d="M89.605,33.141c0.032,2.059-0.33,4.032-1.152,5.792c-3.733,8-10.976,7.712-10.976,7.712
					s-7.168,2.027-11.061,6.869c-5.013,6.219-11.915,0.704-15.115-2.816c0,0-0.533-6.251,2.133-6.784
					c2.667-0.533,7.648,6.784,9.419,6.784c1.781,0,11.2-5.365,11.2-5.365L72.282,38.4C72.282,38.4,84.304,39.381,89.605,33.141z"/>
			</g>
		</g>
	</g>
</g>
<g id="Layer_1">
</g>
</svg>
