<?xml version="1.0" encoding="iso-8859-1"?>
<!-- Generator: Adobe Illustrator 24.1.2, SVG Export Plug-In . SVG Version: 6.00 Build 0)  -->
<svg version="1.1" xmlns="http://www.w3.org/2000/svg" xmlns:xlink="http://www.w3.org/1999/xlink" x="0px" y="0px"
	 viewBox="0 0 128 128" style="enable-background:new 0 0 128 128;" xml:space="preserve">
<g id="_x31_F378">
	<g id="_x31_F378_1_">
		<linearGradient id="SVGID_1_" gradientUnits="userSpaceOnUse" x1="64" y1="107.0194" x2="64" y2="127.1227">
			<stop  offset="0" style="stop-color:#F1F1F1"/>
			<stop  offset="0.6193" style="stop-color:#45C2F8"/>
		</linearGradient>
		<ellipse style="fill:url(#SVGID_1_);" cx="64" cy="117.314" rx="29.415" ry="10.686"/>
		<linearGradient id="SVGID_2_" gradientUnits="userSpaceOnUse" x1="64" y1="32.7111" x2="64" y2="121.8301">
			<stop  offset="0" style="stop-color:#7AD4F8"/>
			<stop  offset="0.4659" style="stop-color:#A1E1F7"/>
			<stop  offset="1" style="stop-color:#45C2F8"/>
		</linearGradient>
		<path style="fill:url(#SVGID_2_);" d="M70.765,108.145V79.178c0-2.861,1.042-5.624,2.932-7.772l40.745-46.311H13.557
			l40.745,46.311c1.89,2.148,2.932,4.911,2.932,7.772v28.967c0,4.585-8.677,9.169-17.06,9.169c0,4.78,10.667,8.655,23.826,8.655
			s23.826-3.875,23.826-8.655C79.443,117.315,70.765,112.73,70.765,108.145z"/>
		<linearGradient id="SVGID_3_" gradientUnits="userSpaceOnUse" x1="1.6411" y1="18.0572" x2="110.2252" y2="18.0572">
			<stop  offset="0" style="stop-color:#A1E1F7"/>
			<stop  offset="0.4659" style="stop-color:#F1F1F1"/>
			<stop  offset="1" style="stop-color:#A1E1F7"/>
		</linearGradient>
		<ellipse style="fill:url(#SVGID_3_);" cx="64" cy="18.057" rx="49.564" ry="16.393"/>
		<path style="fill:#890000;" d="M17.089,23.355l31.894,36.246c7.965,9.051,22.068,9.051,30.032,0l31.894-36.246H17.089z"/>
		<linearGradient id="SVGID_4_" gradientUnits="userSpaceOnUse" x1="64" y1="6.7138" x2="64" y2="33.0172">
			<stop  offset="4.528621e-07" style="stop-color:#FC4A3A"/>
			<stop  offset="1" style="stop-color:#890000"/>
		</linearGradient>
		<ellipse style="fill:url(#SVGID_4_);" cx="64" cy="23.352" rx="46.906" ry="11.098"/>
		<g>
			<polygon style="fill:#A0531C;" points="67.295,58.674 65.438,60.561 71.329,64.734 71.329,64.734 			"/>
			
				<linearGradient id="SVGID_5_" gradientUnits="userSpaceOnUse" x1="2288.1062" y1="-978.4424" x2="2288.1062" y2="-965.576" gradientTransform="matrix(0.7015 -0.7127 0.7127 0.7015 -848.4511 2369.6584)">
				<stop  offset="4.528621e-07" style="stop-color:#9CBB1A"/>
				<stop  offset="1" style="stop-color:#779B3D"/>
			</linearGradient>
			<path style="fill:url(#SVGID_5_);" d="M70.902,50.049c2.692,2.649,1.733,7.988-2.141,11.925
				c-3.874,3.937-9.197,4.98-11.889,2.331c-2.692-2.649-1.733-7.988,2.141-11.925S68.21,47.4,70.902,50.049z"/>
			
				<ellipse transform="matrix(0.7015 -0.7127 0.7127 0.7015 -26.6858 60.5989)" style="fill:#C70300;" cx="58.99" cy="62.153" rx="1.537" ry="3.479"/>
			<path style="fill:#A0531C;" d="M21.435,13.394l-1.911,1.909l39.361,38.809c0.521,0.513,1.359,0.506,1.872-0.015h0
				c0.513-0.521,0.506-1.359-0.015-1.872L21.435,13.394z"/>
			<circle style="fill:#582D24;" cx="20.48" cy="14.349" r="1.351"/>
		</g>
		<linearGradient id="SVGID_6_" gradientUnits="userSpaceOnUse" x1="69.3794" y1="78.5715" x2="69.3794" y2="123.3966">
			<stop  offset="0" style="stop-color:#FFFFFF;stop-opacity:0"/>
			<stop  offset="1" style="stop-color:#F4F5F6"/>
		</linearGradient>
		<path style="opacity:0.5;fill:url(#SVGID_6_);" d="M73.854,123.294c-2.268-1.472-6.471-5.442-6.471-9.854V77.701h-2.941v35.739
			c0,5.295,0.882,11.913,2.941,11.913S76.122,124.766,73.854,123.294z"/>
		<linearGradient id="SVGID_7_" gradientUnits="userSpaceOnUse" x1="20.7606" y1="49.9172" x2="99.4473" y2="49.9172">
			<stop  offset="0" style="stop-color:#A1E1F7"/>
			<stop  offset="0.4659" style="stop-color:#A1E1F7"/>
			<stop  offset="1" style="stop-color:#A1E1F7"/>
		</linearGradient>
		<path style="opacity:0.5;fill:url(#SVGID_7_);" d="M64,38.468c-23.613,0-43.608-5.617-50.433-13.372h-0.009L52.766,69.66
			c2.841,3.229,6.934,5.079,11.234,5.079h0c4.301,0,8.393-1.85,11.234-5.079l39.208-44.564h-0.009
			C107.608,32.851,87.613,38.468,64,38.468z"/>
		<linearGradient id="SVGID_8_" gradientUnits="userSpaceOnUse" x1="76.5898" y1="39.4429" x2="65.8535" y2="72.0931">
			<stop  offset="0" style="stop-color:#F4F5F6"/>
			<stop  offset="1" style="stop-color:#FFFFFF;stop-opacity:0"/>
		</linearGradient>
		<polygon style="opacity:0.5;fill:url(#SVGID_8_);" points="84.899,36.91 66.941,71.671 64.441,71.671 69.736,37.55 		"/>
		<linearGradient id="SVGID_9_" gradientUnits="userSpaceOnUse" x1="64" y1="0.7027" x2="64" y2="36.8885">
			<stop  offset="0" style="stop-color:#7AD4F8"/>
			<stop  offset="1" style="stop-color:#F1F1F1"/>
		</linearGradient>
		<path style="fill:url(#SVGID_9_);" d="M64,0C34.759,0,11.054,8.611,11.054,19.234S34.759,38.468,64,38.468
			s52.946-8.611,52.946-19.234S93.241,0,64,0z M64,34.45c-27.373,0-49.564-7.339-49.564-16.393S36.627,1.664,64,1.664
			s49.564,7.339,49.564,16.393S91.373,34.45,64,34.45z"/>
	</g>
</g>
<g id="Layer_1">
</g>
</svg>
