<?xml version="1.0" encoding="iso-8859-1"?>
<!-- Generator: Adobe Illustrator 24.1.2, SVG Export Plug-In . SVG Version: 6.00 Build 0)  -->
<svg version="1.1" xmlns="http://www.w3.org/2000/svg" xmlns:xlink="http://www.w3.org/1999/xlink" x="0px" y="0px"
	 viewBox="0 0 128 128" style="enable-background:new 0 0 128 128;" xml:space="preserve">
<g id="_x31_F382">
	<g id="_x31_F382_1_">
		<linearGradient id="SVGID_1_" gradientUnits="userSpaceOnUse" x1="64" y1="33.3947" x2="64" y2="124.0442">
			<stop  offset="0" style="stop-color:#89542E"/>
			<stop  offset="1" style="stop-color:#582D24"/>
		</linearGradient>
		<path style="fill:url(#SVGID_1_);" d="M64,31.634c-35.346,0-64,10.409-64,23.249v49.867C0,117.591,28.654,128,64,128
			s64-10.409,64-23.249V54.884C128,42.043,99.346,31.634,64,31.634z"/>
		<path style="fill:#2B160C;" d="M64,123.733c-35.346,0-64-10.409-64-23.249v4.267C0,117.591,28.654,128,64,128s64-10.409,64-23.249
			v-4.267C128,113.324,99.346,123.733,64,123.733z"/>
		<linearGradient id="SVGID_2_" gradientUnits="userSpaceOnUse" x1="64" y1="32.4555" x2="64" y2="74.7382">
			<stop  offset="0" style="stop-color:#89542E"/>
			<stop  offset="1" style="stop-color:#582D24"/>
		</linearGradient>
		<ellipse style="fill:url(#SVGID_2_);" cx="64" cy="54.109" rx="61.867" ry="22.474"/>
		<g>
			
				<rect x="14.933" y="100.217" transform="matrix(0.9553 -0.2956 0.2956 0.9553 -29.4112 10.4124)" style="fill:#582D24;" width="9.6" height="4.533"/>
			
				<rect x="24" y="86.528" transform="matrix(0.7071 0.7071 -0.7071 0.7071 71.2228 5.6428)" style="fill:#582D24;" width="9.6" height="4.533"/>
			
				<rect x="39.689" y="105.452" transform="matrix(0.7071 0.7071 -0.7071 0.7071 89.1994 0.0919)" style="fill:#582D24;" width="9.6" height="4.533"/>
			
				<rect x="95.154" y="77.551" transform="matrix(0.9647 0.2634 -0.2634 0.9647 24.5523 -23.5085)" style="fill:#582D24;" width="9.6" height="4.533"/>
			
				<rect x="64.932" y="95.151" transform="matrix(0.7621 0.6475 -0.6475 0.7621 79.6625 -21.9732)" style="fill:#582D24;" width="9.6" height="4.533"/>
			
				<rect x="2.33" y="80.863" transform="matrix(-0.7071 0.7071 -0.7071 -0.7071 70.9539 136.8702)" style="fill:#582D24;" width="9.6" height="4.533"/>
			
				<rect x="49.151" y="86.528" transform="matrix(-0.8931 0.4498 -0.4498 -0.8931 142.0759 143.8326)" style="fill:#582D24;" width="9.6" height="4.533"/>
			
				<rect x="71.308" y="108.686" transform="matrix(-0.7071 0.7071 -0.7071 -0.7071 208.3797 135.5911)" style="fill:#582D24;" width="9.6" height="4.533"/>
			
				<rect x="86.686" y="93.308" transform="matrix(-0.7071 0.7071 -0.7071 -0.7071 223.7574 98.4658)" style="fill:#582D24;" width="9.6" height="4.533"/>
			
				<rect x="114.508" y="78.73" transform="matrix(0.4006 0.9162 -0.9162 0.4006 145.7201 -60.7681)" style="fill:#582D24;" width="9.6" height="4.533"/>
			
				<rect x="103.575" y="96.063" transform="matrix(-0.9894 0.1454 -0.1454 -0.9894 229.8951 179.8573)" style="fill:#582D24;" width="9.6" height="4.533"/>
			
				<rect x="110.686" y="53.841" transform="matrix(-0.7071 0.7071 -0.7071 -0.7071 236.8209 14.1215)" style="fill:#582D24;" width="9.6" height="4.533"/>
			
				<rect x="91.671" y="45.131" transform="matrix(-0.3533 -0.9355 0.9355 -0.3533 86.2166 154.3941)" style="fill:#582D24;" width="9.6" height="4.533"/>
			
				<rect x="67.574" y="52.691" transform="matrix(-0.9993 -0.0372 0.0372 -0.9993 142.6531 112.5699)" style="fill:#582D24;" width="9.6" height="4.533"/>
			
				<rect x="66.311" y="41.354" transform="matrix(-0.7071 0.7071 -0.7071 -0.7071 152.239 24.1827)" style="fill:#582D24;" width="9.6" height="4.533"/>
			
				<rect x="48.434" y="35.84" transform="matrix(-0.7071 0.7071 -0.7071 -0.7071 117.8212 27.4111)" style="fill:#89542E;" width="9.6" height="4.533"/>
			
				<rect x="72.571" y="85.085" transform="matrix(-0.7071 0.7071 -0.7071 -0.7071 193.8473 94.4089)" style="fill:#89542E;" width="9.6" height="4.533"/>
			
				<rect x="80.281" y="42.365" transform="matrix(-0.7071 -0.7071 0.7071 -0.7071 113.6819 136.3528)" style="fill:#89542E;" width="9.6" height="4.533"/>
			
				<rect x="54.341" y="52.691" transform="matrix(-0.9474 0.3201 -0.3201 -0.9474 132.7632 88.089)" style="fill:#89542E;" width="9.6" height="4.533"/>
			
				<rect x="108.327" y="75.046" transform="matrix(-0.9474 0.3201 -0.3201 -0.9474 245.0512 114.3393)" style="fill:#89542E;" width="9.6" height="4.533"/>
			
				<rect x="51.763" y="98.217" transform="matrix(-0.9474 0.3201 -0.3201 -0.9474 142.3184 177.5706)" style="fill:#89542E;" width="9.6" height="4.533"/>
			
				<rect x="72.207" y="67.574" transform="matrix(-0.9884 -0.1518 0.1518 -0.9884 142.5195 150.5622)" style="fill:#89542E;" width="9.6" height="4.533"/>
			
				<rect x="6.341" y="70.543" transform="matrix(-0.9884 -0.1518 0.1518 -0.9884 11.0988 146.4665)" style="fill:#89542E;" width="9.6" height="4.533"/>
			
				<rect x="18.254" y="57.149" transform="matrix(-0.537 -0.8436 0.8436 -0.537 -14.6879 110.7693)" style="fill:#89542E;" width="9.6" height="4.533"/>
			
				<rect x="26.077" y="97.682" transform="matrix(-0.2634 0.9647 -0.9647 -0.2634 135.4286 96.4879)" style="fill:#89542E;" width="9.6" height="4.533"/>
			
				<rect x="102.428" y="56.334" transform="matrix(-0.2119 -0.9773 0.9773 -0.2119 72.676 175.8103)" style="fill:#89542E;" width="9.6" height="4.533"/>
			
				<rect x="94.44" y="94.112" transform="matrix(-0.2119 -0.9773 0.9773 -0.2119 26.075 213.7849)" style="fill:#89542E;" width="9.6" height="4.533"/>
			
				<rect x="38.873" y="81.357" transform="matrix(-0.2119 -0.9773 0.9773 -0.2119 -28.7998 144.0221)" style="fill:#89542E;" width="9.6" height="4.533"/>
			
				<rect x="36.908" y="47.263" transform="matrix(-0.9773 0.2119 -0.2119 -0.9773 92.9629 89.0994)" style="fill:#582D24;" width="9.6" height="4.533"/>
			
				<rect x="36.092" y="65.641" transform="matrix(-0.895 -0.4461 0.4461 -0.895 47.1983 146.9257)" style="fill:#582D24;" width="9.6" height="4.533"/>
			
				<rect x="85.886" y="57.149" transform="matrix(0.4498 0.8931 -0.8931 0.4498 102.96 -48.3039)" style="fill:#582D24;" width="9.6" height="4.533"/>
			
				<rect x="50.686" y="61.754" transform="matrix(-0.7071 0.7071 -0.7071 -0.7071 139.9893 70.0551)" style="fill:#582D24;" width="9.6" height="4.533"/>
			
				<rect x="16.197" y="45.131" transform="matrix(-0.7071 0.7071 -0.7071 -0.7071 69.3594 66.0665)" style="fill:#582D24;" width="9.6" height="4.533"/>
		</g>
		<g>
			<linearGradient id="SVGID_3_" gradientUnits="userSpaceOnUse" x1="3.9294" y1="52.8063" x2="25.4622" y2="52.8063">
				<stop  offset="0" style="stop-color:#F4F5F6"/>
				<stop  offset="1" style="stop-color:#FFFFFF"/>
			</linearGradient>
			<path style="fill:url(#SVGID_3_);" d="M14.696,47.437c-4.479,0-10.766,0.893-10.766,5.369c0,4.478,6.293,5.369,10.766,5.369
				s10.766-0.891,10.766-5.369C25.462,48.33,19.174,47.437,14.696,47.437z"/>
			<path style="fill:#D1D4D4;" d="M14.696,56.042c-4.089,0-9.684-0.754-10.617-4.302c-0.087,0.333-0.149,0.682-0.149,1.067
				c0,4.478,6.293,5.369,10.766,5.369s10.766-0.891,10.766-5.369c0-0.384-0.062-0.733-0.149-1.067
				C24.38,55.288,18.785,56.042,14.696,56.042z"/>
			<radialGradient id="SVGID_4_" cx="14.6625" cy="46.7919" r="4.9042" gradientUnits="userSpaceOnUse">
				<stop  offset="9.376909e-07" style="stop-color:#FF5D3D"/>
				<stop  offset="0.427" style="stop-color:#E63522"/>
				<stop  offset="1" style="stop-color:#C70300"/>
			</radialGradient>
			<circle style="fill:url(#SVGID_4_);" cx="14.696" cy="48.525" r="4.904"/>
		</g>
		<g>
			<linearGradient id="SVGID_5_" gradientUnits="userSpaceOnUse" x1="102.7294" y1="52.8063" x2="124.2622" y2="52.8063">
				<stop  offset="0" style="stop-color:#F4F5F6"/>
				<stop  offset="1" style="stop-color:#FFFFFF"/>
			</linearGradient>
			<path style="fill:url(#SVGID_5_);" d="M113.496,47.437c-4.479,0-10.766,0.893-10.766,5.369c0,4.478,6.293,5.369,10.766,5.369
				c4.473,0,10.766-0.891,10.766-5.369C124.262,48.33,117.974,47.437,113.496,47.437z"/>
			<path style="fill:#D1D4D4;" d="M113.496,56.042c-4.089,0-9.684-0.754-10.617-4.302c-0.088,0.333-0.149,0.682-0.149,1.067
				c0,4.478,6.293,5.369,10.766,5.369c4.473,0,10.766-0.891,10.766-5.369c0-0.384-0.062-0.733-0.149-1.067
				C123.18,55.288,117.585,56.042,113.496,56.042z"/>
			<radialGradient id="SVGID_6_" cx="113.4625" cy="46.7919" r="4.9042" gradientUnits="userSpaceOnUse">
				<stop  offset="9.376909e-07" style="stop-color:#FF5D3D"/>
				<stop  offset="0.427" style="stop-color:#E63522"/>
				<stop  offset="1" style="stop-color:#C70300"/>
			</radialGradient>
			<circle style="fill:url(#SVGID_6_);" cx="113.496" cy="48.525" r="4.904"/>
		</g>
		<g>
			<linearGradient id="SVGID_7_" gradientUnits="userSpaceOnUse" x1="83.5694" y1="40.8195" x2="105.1022" y2="40.8195">
				<stop  offset="0" style="stop-color:#F4F5F6"/>
				<stop  offset="1" style="stop-color:#FFFFFF"/>
			</linearGradient>
			<path style="fill:url(#SVGID_7_);" d="M94.336,35.451c-4.479,0-10.766,0.893-10.766,5.369c0,4.478,6.293,5.369,10.766,5.369
				c4.473,0,10.766-0.891,10.766-5.369C105.102,36.343,98.814,35.451,94.336,35.451z"/>
			<path style="fill:#D1D4D4;" d="M94.336,44.055c-4.089,0-9.684-0.754-10.617-4.302c-0.088,0.333-0.149,0.682-0.149,1.067
				c0,4.478,6.293,5.369,10.766,5.369c4.473,0,10.766-0.891,10.766-5.369c0-0.384-0.062-0.733-0.149-1.067
				C104.02,43.301,98.425,44.055,94.336,44.055z"/>
			<radialGradient id="SVGID_8_" cx="94.3025" cy="34.8052" r="4.9042" gradientUnits="userSpaceOnUse">
				<stop  offset="9.376909e-07" style="stop-color:#FF5D3D"/>
				<stop  offset="0.427" style="stop-color:#E63522"/>
				<stop  offset="1" style="stop-color:#C70300"/>
			</radialGradient>
			<circle style="fill:url(#SVGID_8_);" cx="94.336" cy="36.539" r="4.904"/>
		</g>
		<g>
			<linearGradient id="SVGID_9_" gradientUnits="userSpaceOnUse" x1="83.5694" y1="65.7563" x2="105.1022" y2="65.7563">
				<stop  offset="0" style="stop-color:#F4F5F6"/>
				<stop  offset="1" style="stop-color:#FFFFFF"/>
			</linearGradient>
			<path style="fill:url(#SVGID_9_);" d="M94.336,60.387c-4.479,0-10.766,0.893-10.766,5.369c0,4.478,6.293,5.369,10.766,5.369
				c4.473,0,10.766-0.891,10.766-5.369C105.102,61.28,98.814,60.387,94.336,60.387z"/>
			<path style="fill:#D1D4D4;" d="M94.336,68.992c-4.089,0-9.684-0.754-10.617-4.302c-0.088,0.333-0.149,0.682-0.149,1.067
				c0,4.478,6.293,5.369,10.766,5.369c4.473,0,10.766-0.891,10.766-5.369c0-0.384-0.062-0.733-0.149-1.067
				C104.02,68.238,98.425,68.992,94.336,68.992z"/>
			<radialGradient id="SVGID_10_" cx="94.3025" cy="59.742" r="4.9042" gradientUnits="userSpaceOnUse">
				<stop  offset="9.376909e-07" style="stop-color:#FF5D3D"/>
				<stop  offset="0.427" style="stop-color:#E63522"/>
				<stop  offset="1" style="stop-color:#C70300"/>
			</radialGradient>
			<circle style="fill:url(#SVGID_10_);" cx="94.336" cy="61.475" r="4.904"/>
		</g>
		<g>
			<linearGradient id="SVGID_11_" gradientUnits="userSpaceOnUse" x1="23.4361" y1="40.8195" x2="44.9689" y2="40.8195">
				<stop  offset="0" style="stop-color:#F4F5F6"/>
				<stop  offset="1" style="stop-color:#FFFFFF"/>
			</linearGradient>
			<path style="fill:url(#SVGID_11_);" d="M34.203,35.451c-4.479,0-10.766,0.893-10.766,5.369c0,4.478,6.293,5.369,10.766,5.369
				s10.766-0.891,10.766-5.369C44.969,36.343,38.681,35.451,34.203,35.451z"/>
			<path style="fill:#D1D4D4;" d="M34.203,44.055c-4.089,0-9.684-0.754-10.617-4.302c-0.087,0.333-0.149,0.682-0.149,1.067
				c0,4.478,6.293,5.369,10.766,5.369s10.766-0.891,10.766-5.369c0-0.384-0.062-0.733-0.149-1.067
				C43.886,43.301,38.292,44.055,34.203,44.055z"/>
			<radialGradient id="SVGID_12_" cx="34.1692" cy="34.8052" r="4.9042" gradientUnits="userSpaceOnUse">
				<stop  offset="9.376909e-07" style="stop-color:#FF5D3D"/>
				<stop  offset="0.427" style="stop-color:#E63522"/>
				<stop  offset="1" style="stop-color:#C70300"/>
			</radialGradient>
			<circle style="fill:url(#SVGID_12_);" cx="34.203" cy="36.539" r="4.904"/>
		</g>
		<g>
			<linearGradient id="SVGID_13_" gradientUnits="userSpaceOnUse" x1="23.4361" y1="65.7563" x2="44.9689" y2="65.7563">
				<stop  offset="0" style="stop-color:#F4F5F6"/>
				<stop  offset="1" style="stop-color:#FFFFFF"/>
			</linearGradient>
			<path style="fill:url(#SVGID_13_);" d="M34.203,60.387c-4.479,0-10.766,0.893-10.766,5.369c0,4.478,6.293,5.369,10.766,5.369
				s10.766-0.891,10.766-5.369C44.969,61.28,38.681,60.387,34.203,60.387z"/>
			<path style="fill:#D1D4D4;" d="M34.203,68.992c-4.089,0-9.684-0.754-10.617-4.302c-0.087,0.333-0.149,0.682-0.149,1.067
				c0,4.478,6.293,5.369,10.766,5.369s10.766-0.891,10.766-5.369c0-0.384-0.062-0.733-0.149-1.067
				C43.886,68.238,38.292,68.992,34.203,68.992z"/>
			<radialGradient id="SVGID_14_" cx="34.1692" cy="59.742" r="4.9042" gradientUnits="userSpaceOnUse">
				<stop  offset="9.376909e-07" style="stop-color:#FF5D3D"/>
				<stop  offset="0.427" style="stop-color:#E63522"/>
				<stop  offset="1" style="stop-color:#C70300"/>
			</radialGradient>
			<circle style="fill:url(#SVGID_14_);" cx="34.203" cy="61.475" r="4.904"/>
		</g>
		<g>
			<linearGradient id="SVGID_15_" gradientUnits="userSpaceOnUse" x1="53.2336" y1="69.2173" x2="74.7664" y2="69.2173">
				<stop  offset="0" style="stop-color:#F4F5F6"/>
				<stop  offset="1" style="stop-color:#FFFFFF"/>
			</linearGradient>
			<path style="fill:url(#SVGID_15_);" d="M64,63.848c-4.479,0-10.766,0.893-10.766,5.369c0,4.478,6.293,5.369,10.766,5.369
				s10.766-0.891,10.766-5.369C74.766,64.741,68.479,63.848,64,63.848z"/>
			<path style="fill:#D1D4D4;" d="M64,72.453c-4.089,0-9.684-0.754-10.617-4.302c-0.088,0.333-0.149,0.682-0.149,1.067
				c0,4.478,6.293,5.369,10.766,5.369s10.766-0.891,10.766-5.369c0-0.384-0.062-0.733-0.149-1.067
				C73.684,71.699,68.089,72.453,64,72.453z"/>
			<radialGradient id="SVGID_16_" cx="63.9667" cy="63.2029" r="4.9042" gradientUnits="userSpaceOnUse">
				<stop  offset="9.376909e-07" style="stop-color:#FF5D3D"/>
				<stop  offset="0.427" style="stop-color:#E63522"/>
				<stop  offset="1" style="stop-color:#C70300"/>
			</radialGradient>
			<circle style="fill:url(#SVGID_16_);" cx="64" cy="64.936" r="4.904"/>
		</g>
		<g>
			<linearGradient id="SVGID_17_" gradientUnits="userSpaceOnUse" x1="53.2336" y1="37.4839" x2="74.7664" y2="37.4839">
				<stop  offset="0" style="stop-color:#F4F5F6"/>
				<stop  offset="1" style="stop-color:#FFFFFF"/>
			</linearGradient>
			<path style="fill:url(#SVGID_17_);" d="M64,32.115c-4.479,0-10.766,0.893-10.766,5.369c0,4.478,6.293,5.369,10.766,5.369
				s10.766-0.891,10.766-5.369C74.766,33.008,68.479,32.115,64,32.115z"/>
			<path style="fill:#D1D4D4;" d="M64,40.72c-4.089,0-9.684-0.754-10.617-4.302c-0.088,0.333-0.149,0.682-0.149,1.067
				c0,4.478,6.293,5.369,10.766,5.369s10.766-0.891,10.766-5.369c0-0.384-0.062-0.733-0.149-1.067
				C73.684,39.966,68.089,40.72,64,40.72z"/>
			<radialGradient id="SVGID_18_" cx="63.9667" cy="31.4696" r="4.9042" gradientUnits="userSpaceOnUse">
				<stop  offset="9.376909e-07" style="stop-color:#FF5D3D"/>
				<stop  offset="0.427" style="stop-color:#E63522"/>
				<stop  offset="1" style="stop-color:#C70300"/>
			</radialGradient>
			<circle style="fill:url(#SVGID_18_);" cx="64" cy="33.203" r="4.904"/>
		</g>
		<g>
			<linearGradient id="SVGID_19_" gradientUnits="userSpaceOnUse" x1="59.0958" y1="38.6096" x2="68.9042" y2="38.6096">
				<stop  offset="0" style="stop-color:#D1D4D4"/>
				<stop  offset="1" style="stop-color:#77797C"/>
			</linearGradient>
			<path style="fill:url(#SVGID_19_);" d="M66.461,54.958h-4.922c-1.349,0-2.443-1.094-2.443-2.443V22.262h9.808v30.253
				C68.904,53.864,67.81,54.958,66.461,54.958z"/>
			<linearGradient id="SVGID_20_" gradientUnits="userSpaceOnUse" x1="59.1407" y1="22.2616" x2="68.8593" y2="22.2616">
				<stop  offset="0" style="stop-color:#F4F5F6"/>
				<stop  offset="1" style="stop-color:#D1D4D4"/>
			</linearGradient>
			<ellipse style="fill:url(#SVGID_20_);" cx="64" cy="22.262" rx="4.859" ry="1.765"/>
			<path style="fill:#FFD52D;" d="M63.973,23.392c-4.28,0-7.684-3.842-7.684-7.489c0-4.62,2.091-12.596,10.359-15.903
				c0,0,0.097,4.474,1.653,7.635c1.525,3.098,3.988,4.085,3.988,8.17S68.885,23.392,63.973,23.392z"/>
		</g>
	</g>
</g>
<g id="Layer_1">
</g>
</svg>
