<?xml version="1.0" encoding="iso-8859-1"?>
<!-- Generator: Adobe Illustrator 24.1.2, SVG Export Plug-In . SVG Version: 6.00 Build 0)  -->
<svg version="1.1" xmlns="http://www.w3.org/2000/svg" xmlns:xlink="http://www.w3.org/1999/xlink" x="0px" y="0px"
	 viewBox="0 0 128 128" style="enable-background:new 0 0 128 128;" xml:space="preserve">
<g id="_x31_F3DD">
	<g id="_x31_F3DD_1_">
		<g>
			<linearGradient id="SVGID_1_" gradientUnits="userSpaceOnUse" x1="64" y1="80.2426" x2="64" y2="125.7476">
				<stop  offset="4.528621e-07" style="stop-color:#45C2F8"/>
				<stop  offset="1" style="stop-color:#1D8BFF"/>
			</linearGradient>
			<path style="fill:url(#SVGID_1_);" d="M122.612,80.332c2.995,0,5.388,2.417,5.388,5.277c0,9.081-15.711,42.368-64,42.368
				c-48.145,0-64-33.045-64-42.368c0-2.859,2.394-5.277,5.388-5.277H122.612z"/>
			
				<radialGradient id="SVGID_2_" cx="92.5237" cy="94.1996" r="46.0095" gradientTransform="matrix(1.0612 0 0 0.2029 -21.7704 75.0906)" gradientUnits="userSpaceOnUse">
				<stop  offset="0.8302" style="stop-color:#7AD4F8"/>
				<stop  offset="1" style="stop-color:#45C2F8;stop-opacity:0"/>
			</radialGradient>
			<ellipse style="fill:url(#SVGID_2_);" cx="76.418" cy="94.2" rx="48.533" ry="9.6"/>
			
				<radialGradient id="SVGID_3_" cx="55.4281" cy="100.6323" r="28.2307" fx="56.2079" fy="100.4976" gradientTransform="matrix(0.9817 -0.1903 0.0791 0.4082 -6.9502 70.108)" gradientUnits="userSpaceOnUse">
				<stop  offset="0.8302" style="stop-color:#7AD4F8"/>
				<stop  offset="1" style="stop-color:#45C2F8;stop-opacity:0"/>
			</radialGradient>
			<path style="fill:url(#SVGID_3_);" d="M27.885,102.376c5.366,5.366,20.826,9.6,36.115,9.6
				C64,111.976,24.303,121.043,27.885,102.376z"/>
		</g>
		<linearGradient id="SVGID_4_" gradientUnits="userSpaceOnUse" x1="78.218" y1="76.1996" x2="78.218" y2="99.1345">
			<stop  offset="4.528621e-07" style="stop-color:#FFD52D"/>
			<stop  offset="1" style="stop-color:#FF9A1A"/>
		</linearGradient>
		<path style="fill:url(#SVGID_4_);" d="M35.618,93.322c0,0,21.221,7.388,44.329,6.602c23.108-0.786,40.871-6.602,40.871-6.602
			s-6.131-17.449-26.094-17.449S45.679,80.746,35.618,93.322z"/>
		<g>
			<linearGradient id="SVGID_5_" gradientUnits="userSpaceOnUse" x1="76.544" y1="67.0704" x2="98.3311" y2="29.8297">
				<stop  offset="4.528621e-07" style="stop-color:#582D24"/>
				<stop  offset="1" style="stop-color:#89542E"/>
			</linearGradient>
			<path style="fill:url(#SVGID_5_);" d="M99.284,65.614l-0.789-14.737l-1.046-0.149c-0.216-1.251,0.818,4.531-2.191-12.244
				l-0.929-0.044c-4.09-11.588-3.058-8.727-3.577-10.209l-0.943,0.657c-0.065-0.103-0.026-0.067-4.375-6.681l-0.868,0.264
				l-3.665-3.829l-0.916,0.515c-2.437-1.318-4.192-1.601-4.471-1.642L74.365,25.3l-0.098-0.016c0.054,0.011,1.619,0.372,3.777,2.07
				l0,0v0.57l4.841,4.916c0.001,0.001,0.001,0.002,0.002,0.003l-0.186,0.491l4.13,7.743c0.002,0.004,0.003,0.009,0.004,0.013
				l-0.533,0.482L89.6,51.947c0.001,0.005,0.002,0.01,0.003,0.014l-0.567,0.492l2.013,13.314c0,0.008,0.001,0.016,0.001,0.024
				l-1.02,0.617l1.059,13.262l7.943,0.28l1.118-13.911L99.284,65.614z"/>
			<path style="fill:#582D24;" d="M90.464,66.409l1.025-0.617l-0.015-0.024l2.22-0.127l-1.987-0.307l-1.739-12.941l0.396-0.544
				l2.523-0.378l-2.515-0.307l-2.828-9.744v-0.61l3.107-1.173l-3.198,0.676l-3.568-7.439v-0.688l2.543-1.679l-3.074,0.799
				l-4.067-4.334l-0.139-0.722l2.685-2.69c-1.025,0.553-3.074,2.428-3.074,2.428l-4.091-2.735L74.365,25.3l-0.098-0.016
				c0.054,0.011,1.619,0.372,3.777,2.07l0,0v0.57l4.841,4.916c0.001,0.001,0.001,0.002,0.002,0.003l-0.186,0.491l4.13,7.743
				c0.002,0.004,0.003,0.009,0.004,0.013l-0.533,0.482L89.6,51.947c0.001,0.005,0.002,0.01,0.003,0.014l-0.567,0.492l2.013,13.314
				c0,0.008,0.001,0.016,0.001,0.024l-1.02,0.617l1.059,13.262l1.968,0.07L90.464,66.409z"/>
			<path style="fill:#582D24;" d="M87.369,25.152c-0.523-0.797-1.156-1.761-1.935-2.946l-0.868,0.264l-3.665-3.829l-0.916,0.515
				c-2.437-1.318-4.192-1.601-4.471-1.642l-0.549,3.72C77.268,21.692,82.084,22.828,87.369,25.152z"/>
		</g>
		<g>
			<g>
				<linearGradient id="SVGID_6_" gradientUnits="userSpaceOnUse" x1="93.5806" y1="1.0085" x2="76.3806" y2="17.8085">
					<stop  offset="4.528621e-07" style="stop-color:#9CBB1A"/>
					<stop  offset="1" style="stop-color:#44892F"/>
				</linearGradient>
				<path style="fill:url(#SVGID_6_);" d="M74.928,20.601c9.497-6.218,13.361-12.939,26.502-16.442
					C86.294-8.779,66.322,12.003,74.928,20.601z"/>
				<linearGradient id="SVGID_7_" gradientUnits="userSpaceOnUse" x1="84.2171" y1="5.4395" x2="73.2488" y2="16.1527">
					<stop  offset="4.528621e-07" style="stop-color:#9CBB1A"/>
					<stop  offset="1" style="stop-color:#779B3D"/>
				</linearGradient>
				<path style="fill:url(#SVGID_7_);" d="M74.928,20.601c0.235-7.688,4.652-14.852,8.645-18.937
					C75.099,5.535,69.664,15.342,74.928,20.601z"/>
			</g>
			<g>
				<linearGradient id="SVGID_8_" gradientUnits="userSpaceOnUse" x1="124.633" y1="20.9944" x2="73.633" y2="16.7277">
					<stop  offset="4.528621e-07" style="stop-color:#9CBB1A"/>
					<stop  offset="1" style="stop-color:#44892F"/>
				</linearGradient>
				<path style="fill:url(#SVGID_8_);" d="M72.661,20.416c17.036-2.046,24.81,14.859,52.657,4.293
					C118.608,9.099,95.75,4.315,72.661,20.416z"/>
				<linearGradient id="SVGID_9_" gradientUnits="userSpaceOnUse" x1="110.6217" y1="17.5856" x2="75.2217" y2="26.7856">
					<stop  offset="4.528621e-07" style="stop-color:#9CBB1A"/>
					<stop  offset="1" style="stop-color:#779B3D"/>
				</linearGradient>
				<path style="fill:url(#SVGID_9_);" d="M102.933,13.807c10,1.431,16.667,6.036,22.385,10.902c0,0,0,0,0,0
					C118.608,9.099,95.75,4.315,72.661,20.416C78.323,18.055,92.933,12.376,102.933,13.807z"/>
			</g>
			<g>
				<linearGradient id="SVGID_10_" gradientUnits="userSpaceOnUse" x1="38.8782" y1="10.5074" x2="75.2115" y2="17.4407">
					<stop  offset="4.528621e-07" style="stop-color:#9CBB1A"/>
					<stop  offset="1" style="stop-color:#44892F"/>
				</linearGradient>
				<path style="fill:url(#SVGID_10_);" d="M37.687,18.206c11.229,7.371,17.741-7.262,37.644,4.483
					C69.133-2.466,39.622,1.968,37.687,18.206z"/>
				<linearGradient id="SVGID_11_" gradientUnits="userSpaceOnUse" x1="53.8642" y1="4.3475" x2="76.1308" y2="21.6142">
					<stop  offset="4.528621e-07" style="stop-color:#9CBB1A"/>
					<stop  offset="1" style="stop-color:#779B3D"/>
				</linearGradient>
				<path style="fill:url(#SVGID_11_);" d="M48.727,5.887c12.05,0.24,23.846,11.864,26.604,16.802
					C71.445,6.919,58.399,2.781,48.727,5.887z"/>
			</g>
			<g>
				<linearGradient id="SVGID_12_" gradientUnits="userSpaceOnUse" x1="42.3049" y1="53.1998" x2="65.2165" y2="14.037">
					<stop  offset="4.528621e-07" style="stop-color:#9CBB1A"/>
					<stop  offset="1" style="stop-color:#779B3D"/>
				</linearGradient>
				<path style="fill:url(#SVGID_12_);" d="M37.687,54.802c21.473-11.38,21.401-22.754,39.165-35
					C40.26,18.068,33.019,34.933,37.687,54.802z"/>
				<linearGradient id="SVGID_13_" gradientUnits="userSpaceOnUse" x1="37.1788" y1="67.0031" x2="61.8691" y2="24.7999">
					<stop  offset="4.528621e-07" style="stop-color:#9CBB1A"/>
					<stop  offset="1" style="stop-color:#44892F"/>
				</linearGradient>
				<path style="fill:url(#SVGID_13_);" d="M76.853,19.801c-1.038-0.049-2.046-0.079-3.038-0.098
					C60.153,19.794,48.326,27.499,44.6,33.709c-4,6.667-6.913,16.452-6.913,21.092C59.16,43.422,59.089,32.048,76.853,19.801z"/>
			</g>
			<g>
				<linearGradient id="SVGID_14_" gradientUnits="userSpaceOnUse" x1="65.4757" y1="57.8165" x2="84.4338" y2="25.4115">
					<stop  offset="4.528621e-07" style="stop-color:#9CBB1A"/>
					<stop  offset="1" style="stop-color:#779B3D"/>
				</linearGradient>
				<path style="fill:url(#SVGID_14_);" d="M75.498,19.321c-28.533,22.976,0.117,47.989,0.117,47.989
					C91.978,35.433,75.498,19.321,75.498,19.321z"/>
				<linearGradient id="SVGID_15_" gradientUnits="userSpaceOnUse" x1="79.2883" y1="76.2752" x2="76.755" y2="30.0752">
					<stop  offset="4.528621e-07" style="stop-color:#9CBB1A"/>
					<stop  offset="1" style="stop-color:#779B3D"/>
				</linearGradient>
				<path style="fill:url(#SVGID_15_);" d="M75.498,19.321c-1.965,7.989-7.534,11.055,0.117,47.989
					C91.978,35.433,75.498,19.321,75.498,19.321z"/>
			</g>
		</g>
	</g>
</g>
<g id="Layer_1">
</g>
</svg>
