<?xml version="1.0" encoding="iso-8859-1"?>
<!-- Generator: Adobe Illustrator 24.1.2, SVG Export Plug-In . SVG Version: 6.00 Build 0)  -->
<svg version="1.1" xmlns="http://www.w3.org/2000/svg" xmlns:xlink="http://www.w3.org/1999/xlink" x="0px" y="0px"
	 viewBox="0 0 128 128" style="enable-background:new 0 0 128 128;" xml:space="preserve">
<g id="_x31_F3E0">
	<g id="_x31_F3E0_1_">
		<g>
			<linearGradient id="SVGID_1_" gradientUnits="userSpaceOnUse" x1="26.8484" y1="14.8214" x2="26.8484" y2="42.3734">
				<stop  offset="0" style="stop-color:#F4F5F6"/>
				<stop  offset="1" style="stop-color:#D1D4D4"/>
			</linearGradient>
			<rect x="17.497" y="14.587" style="fill:url(#SVGID_1_);" width="18.702" height="28.643"/>
			<linearGradient id="SVGID_2_" gradientUnits="userSpaceOnUse" x1="26.8484" y1="16.9809" x2="26.8484" y2="21.1407">
				<stop  offset="0" style="stop-color:#77797C"/>
				<stop  offset="1" style="stop-color:#77797C;stop-opacity:0"/>
			</linearGradient>
			<rect x="17.497" y="16.945" style="fill:url(#SVGID_2_);" width="18.702" height="4.325"/>
			<linearGradient id="SVGID_3_" gradientUnits="userSpaceOnUse" x1="26.8484" y1="10.0375" x2="26.8484" y2="15.0949">
				<stop  offset="0" style="stop-color:#005686"/>
				<stop  offset="1" style="stop-color:#003C5A"/>
			</linearGradient>
			<rect x="16.149" y="9.364" style="fill:url(#SVGID_3_);" width="21.398" height="7.582"/>
		</g>
		<linearGradient id="SVGID_4_" gradientUnits="userSpaceOnUse" x1="64" y1="11.4434" x2="64" y2="117.1134">
			<stop  offset="0" style="stop-color:#F4F5F6"/>
			<stop  offset="1" style="stop-color:#D1D4D4"/>
		</linearGradient>
		<polygon style="fill:url(#SVGID_4_);" points="64,10.543 8.567,49.969 8.567,120.397 119.433,120.397 119.433,49.969 		"/>
		<g>
			<linearGradient id="SVGID_5_" gradientUnits="userSpaceOnUse" x1="64" y1="10.954" x2="64" y2="59.1969">
				<stop  offset="0" style="stop-color:#77797C"/>
				<stop  offset="1" style="stop-color:#77797C;stop-opacity:0"/>
			</linearGradient>
			<polygon style="fill:url(#SVGID_5_);" points="64,10.543 8.567,49.969 8.567,60.696 64,21.27 119.433,60.696 119.433,49.969 			
				"/>
			<linearGradient id="SVGID_6_" gradientUnits="userSpaceOnUse" x1="64" y1="3.2979" x2="64" y2="54.3523">
				<stop  offset="0" style="stop-color:#005686"/>
				<stop  offset="1" style="stop-color:#003C5A"/>
			</linearGradient>
			<polygon style="fill:url(#SVGID_6_);" points="64,2.548 0,48.068 3.776,53.377 64,10.543 124.224,53.377 128,48.068 			"/>
		</g>
		<g>
			<linearGradient id="SVGID_7_" gradientUnits="userSpaceOnUse" x1="34.3882" y1="65.9247" x2="34.3882" y2="109.997">
				<stop  offset="0" style="stop-color:#005686"/>
				<stop  offset="1" style="stop-color:#003C5A"/>
			</linearGradient>
			<rect x="21.457" y="65.638" style="fill:url(#SVGID_7_);" width="25.863" height="46.503"/>
			<linearGradient id="SVGID_8_" gradientUnits="userSpaceOnUse" x1="34.3882" y1="95.795" x2="34.3882" y2="108.8765">
				<stop  offset="0" style="stop-color:#003C5A"/>
				<stop  offset="1" style="stop-color:#005686"/>
			</linearGradient>
			<rect x="24.376" y="95.71" style="fill:url(#SVGID_8_);" width="20.024" height="13.803"/>
			<linearGradient id="SVGID_9_" gradientUnits="userSpaceOnUse" x1="34.3882" y1="80.632" x2="34.3882" y2="93.6943">
				<stop  offset="0" style="stop-color:#003C5A"/>
				<stop  offset="1" style="stop-color:#005686"/>
			</linearGradient>
			<rect x="24.376" y="80.547" style="fill:url(#SVGID_9_);" width="20.024" height="13.783"/>
			<linearGradient id="SVGID_10_" gradientUnits="userSpaceOnUse" x1="34.3882" y1="68.3356" x2="34.3882" y2="78.9547">
				<stop  offset="0" style="stop-color:#A1E1F7"/>
				<stop  offset="1" style="stop-color:#45C2F8"/>
			</linearGradient>
			<rect x="24.376" y="68.267" style="fill:url(#SVGID_10_);" width="20.024" height="11.205"/>
			<linearGradient id="SVGID_11_" gradientUnits="userSpaceOnUse" x1="34.4304" y1="112.192" x2="34.4304" y2="120.0164">
				<stop  offset="0" style="stop-color:#F4F5F6"/>
				<stop  offset="1" style="stop-color:#D1D4D4"/>
			</linearGradient>
			<rect x="17.666" y="112.141" style="fill:url(#SVGID_11_);" width="33.529" height="8.256"/>
			<rect x="17.666" y="112.141" style="fill:#77797C;" width="33.529" height="1.22"/>
			<circle style="fill:#2B201A;" cx="25.185" cy="89.311" r="1.706"/>
		</g>
		<linearGradient id="SVGID_12_" gradientUnits="userSpaceOnUse" x1="83.2778" y1="65.7816" x2="83.2778" y2="87.8177">
			<stop  offset="0" style="stop-color:#005686"/>
			<stop  offset="1" style="stop-color:#003C5A"/>
		</linearGradient>
		<rect x="60.012" y="65.638" style="fill:url(#SVGID_12_);" width="46.531" height="23.251"/>
		<linearGradient id="SVGID_13_" gradientUnits="userSpaceOnUse" x1="83.2778" y1="68.3774" x2="83.2778" y2="85.4319">
			<stop  offset="0" style="stop-color:#A1E1F7"/>
			<stop  offset="1" style="stop-color:#45C2F8"/>
		</linearGradient>
		<rect x="63.41" y="68.267" style="fill:url(#SVGID_13_);" width="39.735" height="17.995"/>
		<rect x="5.535" y="120.397" style="fill:#77797C;" width="115.751" height="5.055"/>
		<g>
			<linearGradient id="SVGID_14_" gradientUnits="userSpaceOnUse" x1="9.3384" y1="108.4075" x2="9.3384" y2="123.5546">
				<stop  offset="4.528621e-07" style="stop-color:#9CBB1A"/>
				<stop  offset="1" style="stop-color:#779B3D"/>
			</linearGradient>
			<path style="fill:url(#SVGID_14_);" d="M16.543,125.452H2.133c-1.178,0-2.133-0.955-2.133-2.133V110.2
				c0-1.178,0.955-2.133,2.133-2.133h14.41c1.178,0,2.133,0.955,2.133,2.133v13.118C18.677,124.497,17.722,125.452,16.543,125.452z"
				/>
			<linearGradient id="SVGID_15_" gradientUnits="userSpaceOnUse" x1="88.852" y1="108.4075" x2="88.852" y2="123.5546">
				<stop  offset="4.528621e-07" style="stop-color:#9CBB1A"/>
				<stop  offset="1" style="stop-color:#779B3D"/>
			</linearGradient>
			<path style="fill:url(#SVGID_15_);" d="M125.867,125.452H51.837c-1.178,0-2.133-0.955-2.133-2.133V110.2
				c0-1.178,0.955-2.133,2.133-2.133h74.029c1.178,0,2.133,0.955,2.133,2.133v13.118C128,124.497,127.045,125.452,125.867,125.452z"
				/>
			<path style="fill:#44892F;" d="M18.677,123.318v-0.873l-1.343,0.48h-3.067l-4.396-0.796c0,0-1.938,0.796-6.004,0.796
				c-1.807,0-3.045-0.762-3.867-1.608v2.002c0,1.178,0.955,2.133,2.133,2.133h14.41C17.722,125.452,18.677,124.497,18.677,123.318z"
				/>
			<path style="fill:#44892F;" d="M125.867,125.452c1.178,0,2.133-0.955,2.133-2.133v-1.376c-1.818,0.589-5.74,0.626-7.133,0.124
				c-1.667-0.6-4.4,0.542-4.4,0.542s-5.4-0.209-8.467-1.076s-14.467,1.076-20.2,1.076c-5.733,0-19.867-0.676-21.333-0.276
				c-1.467,0.4-11.933,0.333-13.933,0c-1.209-0.202-2.216-1.082-2.829-1.749v2.734c0,1.178,0.955,2.133,2.133,2.133H125.867z"/>
		</g>
	</g>
</g>
<g id="Layer_1">
</g>
</svg>
