<?xml version="1.0" encoding="iso-8859-1"?>
<!-- Generator: Adobe Illustrator 24.1.2, SVG Export Plug-In . SVG Version: 6.00 Build 0)  -->
<svg version="1.1" xmlns="http://www.w3.org/2000/svg" xmlns:xlink="http://www.w3.org/1999/xlink" x="0px" y="0px"
	 viewBox="0 0 128 128" style="enable-background:new 0 0 128 128;" xml:space="preserve">
<g id="_x31_F408">
	<g id="_x31_F408_1_">
		<linearGradient id="SVGID_1_" gradientUnits="userSpaceOnUse" x1="72.5199" y1="116.0203" x2="78.0292" y2="92.2122">
			<stop  offset="4.528621e-07" style="stop-color:#A27D3F"/>
			<stop  offset="1" style="stop-color:#68533A"/>
		</linearGradient>
		<path style="fill:url(#SVGID_1_);" d="M71.87,81.299c-2.214,3.591-5.116,6.788-6.886,14.56s-1.574,8.461-1.574,8.461
			s0.59,0.246,0.59,1.033c0,0.787,0,7.034,1.82,12.15c0,0,5.116,0,7.477,0c2.361,0,3.148-2.705,3.148-2.705s0.664-3.271-0.394-4.329
			s-3.886-3.099-3.886-3.099s-0.148-2.312,1.23-4.181c1.377-1.869,0.935-2.705,5.608-6.641c4.673-3.935,12.789-12.937,12.789-12.937
			s4.378-5.46-4.919-10.871S71.87,81.299,71.87,81.299z"/>
		<g>
			<linearGradient id="SVGID_2_" gradientUnits="userSpaceOnUse" x1="16.3046" y1="73.7255" x2="14.5338" y2="113.5696">
				<stop  offset="4.528621e-07" style="stop-color:#D29F4F"/>
				<stop  offset="1" style="stop-color:#A27D3F"/>
			</linearGradient>
			<path style="fill:url(#SVGID_2_);" d="M18.107,94.166c-2.853,1.918-5.755,3.607-7.624,7.362
				c-0.394,1.123-0.455,1.652-1.144,2.931c-0.689,1.279-1.513,1.906-0.775,4.071l2.656,0.344c0.492,1.5,1.574,3.001,1.574,4.132
				c0,1.131-0.32,2.386-1.771,3.837H4.776c-0.787-2.804-2.656-4.034-3.689-6.788s-1.033-3.181-1.033-3.927s1.648-7.436,2.287-10.289
				s1.525-3.64,1.968-6.444c0.443-2.804,0.443-5.14,1.058-5.755c0.885-0.885,7.132-2.017,13.896-16.061
				c7.28-9.1,11.535,13.306,11.535,13.306L18.107,94.166z"/>
			<path style="fill:#A27D3F;" d="M11.22,108.874l-2.656-0.344c-0.738-2.164,0.086-2.792,0.775-4.071
				c0.689-1.279,0.75-1.808,1.144-2.931c0.266-0.534,0.554-1.026,0.858-1.483c-0.804,0.22-1.869,0.871-2.4,2.729
				c-0.918,3.214-4.427,7.903-5.772,6.559c-1.344-1.345,0.656-10.1,1.508-13.314c0.853-3.214-0.292-7.134,0.294-11.486
				c-0.255,1.066-0.344,2.843-0.663,4.862c-0.443,2.804-1.328,3.591-1.968,6.444s-2.287,9.543-2.287,10.289
				c0,0.746,0,1.172,1.033,3.927s2.902,3.984,3.689,6.788h6.247c1.451-1.451,1.771-2.705,1.771-3.837
				C12.794,111.874,11.712,110.374,11.22,108.874z"/>
			<linearGradient id="SVGID_3_" gradientUnits="userSpaceOnUse" x1="12.0136" y1="78.4032" x2="18.1132" y2="84.3716">
				<stop  offset="4.528621e-07" style="stop-color:#A27D3F"/>
				<stop  offset="1" style="stop-color:#68533A"/>
			</linearGradient>
			<path style="fill:url(#SVGID_3_);" d="M11.413,79.339c0.451,4.567,1.474,12.225,3.549,16.988
				c1.018-0.767,2.085-1.448,3.145-2.161l8.145-8.524l0.463-7.892l-9.838-5.684C14.915,75.393,13.051,77.706,11.413,79.339z"/>
		</g>
		<linearGradient id="SVGID_4_" gradientUnits="userSpaceOnUse" x1="70.1609" y1="30.3661" x2="70.1609" y2="120.1671">
			<stop  offset="4.528621e-07" style="stop-color:#D29F4F"/>
			<stop  offset="1" style="stop-color:#A27D3F"/>
		</linearGradient>
		<path style="fill:url(#SVGID_4_);" d="M28.043,50.928c0,0-6.444-6.296-6.444-15.347s6.099-23.054,12.396-23.054
			c4.853,0,6.69,1.771,6.69,5.444c0,2.951,3.837,2.804,3.837-0.098c0-5.083-2.656-10.133-10.625-10.133
			c-9.026,0-20.61,17.831-20.61,30.523c0,8.707,4.009,16.036,4.009,16.036s-3.96,7.649-3.96,12.986c0,6.01,2.41,13.298,4.193,18.114
			c0,0-0.061,2.357-1.094,4.021c-1.931,3.111-4.058,5.681-4.058,8.953c1.599,3.665,9.616,20.537,11.24,20.537l8.559,0.197
			c1.181,0,2.386-2.312,2.386-4.083c-0.615-0.861-1.451-3.738-3.886-3.738c-1.574,0-2.558,0.221-2.558,0.221
			s-3.64-7.649-4.427-9.813c0-2.533,4.378-4.501,7.624-8.535s5.804-6.641,5.804-6.641s9.174,0.836,13.896,2.312
			s12.961,3.296,18.372,2.607c0,0,8.239-1.033,14.634,2.214c6.149,4.353,14.594,10.521,18.348,13.306
			c3.911,2.902,14.806,12.224,16.183,13.158l6.001,0.148c1.476-1.82,2.705-0.59,3.394-2.927c0,0-0.738-3.345-3.185-4.193
			c-1.168-0.381-2.177-0.799-3.997-1.144c-1.23-1.23-4.771-4.788-6.542-8.461c-1.771-3.673-5.312-6.542-6.001-8.51
			c-1.943-5.067-4.476-10.748-4.353-21.496c0,0,5.042-10.035,8.633-11.83c3.205-1.066,6.559-1.689,7.919-2.263
			c0.415-0.175,0.908-1.284,0.908-2.598c1.207-1.689,1.124-3.545,1.207-4.338c0,0,0.295-1.869-1.377-2.558
			c-1.672-0.689-1.709-0.676-2.177-1.144c-0.467-0.467-2.373-2.472-3.566-3.493c-1.193-1.021-2.656-1.845-3.874-2.103
			c-1.217-0.258-6.112-0.357-8.461-0.357c0,0-2.244-3.769-3.517-5.042s-3.394-2.259-3.394-2.259s-0.935,1.927-1.107,3.624
			c-0.172,1.697-0.246,6.161-0.246,6.985c0,0.824-0.209,1.894-0.541,2.644c-0.332,0.75-2.558,3.64-4.341,5.743
			c-1.783,2.103-3.271,4.013-4.378,4.288c-1.107,0.274-6.013,0.041-8.842-0.107c-2.828-0.148-20.684-4.034-30.079-5.583
			C37.241,51.592,28.043,50.928,28.043,50.928z"/>
		<g>
			<g>
				<path style="fill:#A27D3F;" d="M40.389,15.772c0.027,0.085,0.052,0.173,0.075,0.261c-0.002-0.009-0.004-0.017-0.006-0.026
					C40.438,15.914,40.415,15.836,40.389,15.772z"/>
				<path style="fill:#A27D3F;" d="M40.534,16.335c0.102,0.496,0.151,1.04,0.151,1.636c0,2.951,3.837,2.804,3.837-0.098
					c0-0.77-0.061-1.539-0.193-2.29l0,0c0,0-0.627,2.716-1.414,2.716c0,0,0.642-2.074,0-2.716c0,0-0.312,2.716-1.246,2.716
					C41.668,18.298,40.973,18.073,40.534,16.335z"/>
			</g>
			<path style="fill:#A27D3F;" d="M12.376,98.372c1.599,3.665,9.616,20.537,11.24,20.537l8.559,0.197
				c0.867,0,1.747-1.247,2.153-2.611c-1.257,0.335-2.653,0.643-3.53,0.643c-1.918,0-5.558,0-6.345,0s-1.082-0.197-2.263-2.263
				s-8.122-15.544-8.122-17.836c0-2.292,6.745-11.875,6.745-11.875c0.787-3.935-2.853-9.74-3.699-16.921
				c-0.846-7.182,3.699-15.446,3.699-15.446c-1.574,0.59-1.968,1.279-1.968,1.279s-3.661-4.842-4.97-9.837
				c1.114,5.839,3.421,10.058,3.421,10.058s-3.96,7.649-3.96,12.986c0,6.01,2.41,13.298,4.193,18.114c0,0-0.061,2.357-1.094,4.021
				C14.503,92.53,12.376,95.101,12.376,98.372z"/>
			<path style="fill:#A27D3F;" d="M44.423,77.982c0,0-8.625,2.22-10.095,3.69l2.323,0.577c0,0-2.656,4.653-5.853,6.686
				s-6.05,2.918-6.05,2.918s3.788,1.033,4.821,0c0,0-3.738,5.313-5.312,5.903c0,0-1.775,1.072-0.566,3.935
				c0-2.533,4.378-4.501,7.624-8.535s5.804-6.641,5.804-6.641C39.402,84.041,39.307,80.54,44.423,77.982z"/>
			<g>
				<path style="fill:#A27D3F;" d="M72.854,85.361c6.788-2.361,13.871,2.394,13.871,2.394s-0.394-2.099-6.886-4.263
					s-10.92,0.787-10.92,0.787C70.788,83.688,72.854,85.361,72.854,85.361z"/>
				<path style="fill:#A27D3F;" d="M127.716,116.579c-0.683,0.933-1.81,1.69-2.722,1.69c-1.23,0-4.23,0-5.952,0
					s-3.394-3.247-7.083-5.903c-3.689-2.656-7.231-8.854-10.723-12.347c-3.492-3.493-17.118-10.871-17.118-10.871
					c1.23-0.541,3.591,0.295,3.591,0.295c-5.091-5.091-19.528-2.755-19.528-2.755c5.399,1.56,10.668,3.868,15.211,6.658
					c0.211,0.096,0.42,0.197,0.628,0.302c6.149,4.353,14.594,10.521,18.348,13.306c3.911,2.902,14.806,12.224,16.183,13.158
					l6.001,0.148c1.476-1.82,2.705-0.59,3.394-2.927C127.946,117.335,127.878,117.028,127.716,116.579z"/>
			</g>
		</g>
		<g>
			<path style="fill:#A0531C;" d="M74.17,58.369c-0.025,1.175-0.093,2.241-0.234,2.987c-0.554,2.933-5.558,7.92-6.886,9.248
				c-1.328,1.328-2.361,4.329-2.361,4.329c-0.59-0.59,0-4.23,0-4.23c-1.574,1.574-2.607,8.461-2.607,8.461s-4.492-3.241-2.607-9.838
				c1.279-4.476,5.214-6.69,5.214-9.314c0-0.931-0.31-2.259-0.71-3.584C68.042,57.23,71.743,57.956,74.17,58.369z"/>
			<path style="fill:#A0531C;" d="M85.545,75.621c1.131,1.131,2.164,4.526,2.164,4.526c-0.984-1.771-6.067-1.615-9.609-3.542
				c-3.918-2.132-1.809-9.413-0.655-11.183c1.613-2.475,1.223-5.143,0.797-6.621c2.803,0.134,6.39,0.259,7.314,0.03
				c0.659-0.163,1.453-0.906,2.364-1.924c0.668,4.646-3.528,9.508-4.54,11.533c-1.082,2.164,0.59,3.738,0.59,3.738
				c-1.968-0.885-2.161-1.984-2.161-1.984C80.729,72.637,84.413,74.49,85.545,75.621z"/>
			<path style="fill:#A0531C;" d="M94.792,64.849c1.181-4.28-1.016-8.215-1.016-8.215l-0.656,2.755
				c-0.625-2.664-1.922-4.404-2.787-5.318c0.756-0.908,1.559-1.913,2.245-2.811c1.236,2.143,3.682,4.21,4.517,6.162
				C98.313,60.274,94.792,64.849,94.792,64.849z"/>
			<path style="fill:#A0531C;" d="M54.064,59.487c-0.558,4.1-4.08,6.289-5.092,6.976c-2.188,1.485-2.385,4.928-2.385,4.928
				c-0.708-1.227-0.736-2.273-0.575-3.028c-0.571,0.302-1.112,0.461-1.491,0.667c-3.185,1.723-0.928,7.468-0.886,7.573
				c-0.085-0.099-3.101-3.67-3.101-5.901c0-2.263,3.043-5.161,3.528-7.28c0.486-2.119,0.951-4.722-0.623-6.296
				c-0.96-0.96-0.535-3.025-0.058-4.489c1.072,0.156,2.162,0.325,3.255,0.505c2.154,0.355,4.752,0.833,7.512,1.362
				C54.244,56.237,54.258,58.058,54.064,59.487z"/>
			<path style="fill:#A0531C;" d="M25.041,47.011l-4.721,1.212l-3.246-1.415l4.377-2.883l1.829-0.322
				C23.819,44.888,24.435,46.031,25.041,47.011z"/>
			<path style="fill:#A0531C;" d="M21.831,38.56c-0.968,0.13-2.203,0.267-3.085,0.267c-1.672,0-3.05-1.771-3.05-1.771
				s3.56-1.802,5.909-1.935c-0.004,0.154-0.006,0.308-0.006,0.459C21.599,36.611,21.683,37.606,21.831,38.56z"/>
			<path style="fill:#A0531C;" d="M22.479,28.847c-0.153,0.641-0.288,1.28-0.404,1.913c0,0-4.82,1.375-5.001,0
				c1.263-0.705,0.606-3.345,2.762-2.656C20.693,28.377,21.643,28.636,22.479,28.847z"/>
			<path style="fill:#A0531C;" d="M24.434,22.854c-0.113,0.272-0.224,0.545-0.331,0.82c0,0-1.463-1.556-3.192-1.474
				c-0.557-0.869,2.607-1.115,3.065-0.984C24.434,21.348,24.434,22.854,24.434,22.854z"/>
			<path style="fill:#A0531C;" d="M36.651,56.535c-1.279,1.279-5.115,2.38-4.107,7.969c0.689,3.82-3.763,8.264-3.763,8.264
				s0.013-2.293-0.547-4.732c-0.022-0.295-0.116-0.669-0.306-1.139c-0.095-0.309-0.202-0.615-0.32-0.914
				c-1.116-3.651-0.893-8.595-0.893-8.595c-0.965,1.466-0.838,4.087-0.545,6.087c-1.514-2.644-1.337-7.925,3.089-12.451
				c1.558,0.131,4.489,0.396,8.049,0.815C37.433,53.449,37.448,55.738,36.651,56.535z"/>
		</g>
		<g>
			<linearGradient id="SVGID_5_" gradientUnits="userSpaceOnUse" x1="57.4025" y1="79.0518" x2="60.2227" y2="89.808">
				<stop  offset="0" style="stop-color:#F4F5F6"/>
				<stop  offset="1" style="stop-color:#D1D4D4"/>
			</linearGradient>
			<path style="fill:url(#SVGID_5_);" d="M69.386,91.436c0,0,7.713-0.967,14.006,1.911c-4.543-2.79-9.812-5.098-15.211-6.658
				c0,0,2.214-1.328,4.673-1.328c0,0-2.066-1.672-3.935-1.082c0,0,1.317-2.165,2.656-2.723c-1.454,0.29-5.387,0.884-9.444-0.13
				c-5.116-1.279-12.592-6.001-17.708-3.443c-5.116,2.558-5.021,6.058-7.305,8.535c0,0,9.174,0.836,13.896,2.312
				S63.975,92.125,69.386,91.436z"/>
			<path style="fill:#D1D4D4;" d="M37.118,86.517c0,0,9.174,0.836,13.896,2.312s12.961,3.296,18.372,2.607
				c0,0,7.713-0.967,14.006,1.911c-3.431-2.107-7.276-3.939-11.278-5.381c-3.86-0.313-8.941-0.211-11.859-0.211
				c-4.04,0-7.372-2.23-9.077-2.952c-1.705-0.721-7.805-0.525-7.805-0.525c-0.328-1.377,2.755-2.853,2.755-2.853
				c-2.755-1.41-3.41-0.623-3.41-0.623c0.984-1.836,4.658-2.82,4.658-2.82c-1.77-0.525-2.952,0-2.952,0
				C39.307,80.54,39.402,84.041,37.118,86.517z"/>
		</g>
		<g>
			<linearGradient id="SVGID_6_" gradientUnits="userSpaceOnUse" x1="95.9656" y1="41.3848" x2="103.0807" y2="41.3848">
				<stop  offset="4.528621e-07" style="stop-color:#FF7149"/>
				<stop  offset="1" style="stop-color:#A27D3F"/>
			</linearGradient>
			<path style="fill:url(#SVGID_6_);" d="M96.17,41.975c0.459,2.099,1.771,5.247,3.476,5.247c1.705,0,2.623-1.181,2.623-1.181
				s-0.82-0.492-1.344-1.804c0,0,0.885,0.689,1.181,0.689c0,0-0.918-0.525-1.836-2.492c0,0,1.804,1.541,2.197,1.541
				c0,0-1.41-1.607-1.771-2.591c0,0,1.13,1.456,2.386,1.463c0,0-2.244-3.769-3.517-5.042s-3.394-2.259-3.394-2.259
				S95.711,39.876,96.17,41.975z"/>
			<linearGradient id="SVGID_7_" gradientUnits="userSpaceOnUse" x1="122.2323" y1="50.212" x2="121.6421" y2="51.8107">
				<stop  offset="0" style="stop-color:#FF7149"/>
				<stop  offset="0.1936" style="stop-color:#FB7047"/>
				<stop  offset="0.4042" style="stop-color:#EE6B41"/>
				<stop  offset="0.6227" style="stop-color:#D86536"/>
				<stop  offset="0.8453" style="stop-color:#BA5B28"/>
				<stop  offset="1" style="stop-color:#A0531C"/>
			</linearGradient>
			<path style="fill:url(#SVGID_7_);" d="M121.158,49.944c0,0-0.377,1.197-0.082,1.492c0.295,0.295,1.537,0.444,1.459,1.066
				c-0.077,0.621,0.221-1.722,0.111-2.029C122.535,50.165,121.158,49.944,121.158,49.944z"/>
			
				<radialGradient id="SVGID_8_" cx="114.0227" cy="48.6208" r="7.512" gradientTransform="matrix(0.7874 0.6165 -0.2524 0.3224 36.5169 -37.3505)" gradientUnits="userSpaceOnUse">
				<stop  offset="0" style="stop-color:#A27D3F"/>
				<stop  offset="1" style="stop-color:#A27D3F;stop-opacity:0"/>
			</radialGradient>
			<path style="fill:url(#SVGID_8_);" d="M122.543,52.432c0.034-0.344,0.096-1.878-1.386-2.488
				c-1.672-0.689-1.709-0.676-2.177-1.144c-0.46-0.46-2.316-2.411-3.511-3.445l-0.903,0.194c0,0-0.295,0.229-1.189,1.123
				c-1.322,1.322-1.812,2.189-1.812,2.189c0.59,0,3.695-0.061,8.28,2.082C120.968,51.469,121.884,51.932,122.543,52.432z"/>
			<linearGradient id="SVGID_9_" gradientUnits="userSpaceOnUse" x1="112.7988" y1="58.1742" x2="113.7417" y2="61.1773">
				<stop  offset="0" style="stop-color:#D29F4F"/>
				<stop  offset="0.1038" style="stop-color:#C9994C"/>
				<stop  offset="0.4176" style="stop-color:#B38945"/>
				<stop  offset="0.721" style="stop-color:#A68040"/>
				<stop  offset="1" style="stop-color:#A27D3F"/>
			</linearGradient>
			<path style="fill:url(#SVGID_9_);" d="M119.166,57.8c-0.959,0-1.648,0-2.828-0.429c-0.768-0.279-4.87,0.378-7.157,1.898
				c-2.287,1.52-3.615,3.05-3.615,3.05s2.828-1.554,3.788-1.554c0,0-2.27,1.349-3.787,2.867c1.92-0.646,3.969-1.031,6.001-1.313l0,0
				c0.319-0.257,0.632-0.468,0.934-0.62c3.205-1.066,6.559-1.689,7.919-2.263c0.387-0.163,0.841-1.139,0.901-2.336
				c0.001-0.019,0.001-0.037,0.002-0.055c0.003-0.069,0.005-0.137,0.005-0.207C121.328,56.84,120.125,57.8,119.166,57.8z"/>
			<g>
				<linearGradient id="SVGID_10_" gradientUnits="userSpaceOnUse" x1="106.2743" y1="89.808" x2="106.2743" y2="89.808">
					<stop  offset="0" style="stop-color:#F4F5F6"/>
					<stop  offset="1" style="stop-color:#D1D4D4"/>
				</linearGradient>
				<polygon style="fill:url(#SVGID_10_);" points="106.274,89.808 106.274,89.808 106.274,89.808 				"/>
				<linearGradient id="SVGID_11_" gradientUnits="userSpaceOnUse" x1="98.0716" y1="76.0639" x2="111.5658" y2="76.0639">
					<stop  offset="0" style="stop-color:#F4F5F6"/>
					<stop  offset="1" style="stop-color:#D1D4D4"/>
				</linearGradient>
				<path style="fill:url(#SVGID_11_);" d="M105.689,71.128c0,0,0.875-2.386,1.874-3.969c1.262-1.911,2.687-3.78,4.003-4.84
					c-4.64,0.643-9.37,1.824-12.448,5.431c0,0,2.43-1.181,3.48-1.181c0,0-4.197,4.46-4.525,7.903c0,0,0.984-0.886,1.508-0.886
					c0,0-0.918,7.674,1.049,11.609c0,0,0.197-1.115,0.59-1.115c0,0,4.149,4.82,5.055,5.726c-1.349-4.019-2.49-8.981-2.407-16.277
					c0,0,0.123,0.664,0.402,0.943c0,0,0.487-2.673,1.391-4.226c0.009-0.016,0.019-0.032,0.028-0.049
					C105.676,70.224,105.476,70.651,105.689,71.128z"/>
			</g>
			
				<radialGradient id="SVGID_12_" cx="96.5386" cy="44.0181" r="7.7554" gradientTransform="matrix(0.9039 -0.4278 0.3674 0.7762 -6.8913 51.1524)" gradientUnits="userSpaceOnUse">
				<stop  offset="0" style="stop-color:#8C6B3F"/>
				<stop  offset="1" style="stop-color:#8C6B3F;stop-opacity:0"/>
			</radialGradient>
			<path style="fill:url(#SVGID_12_);" d="M95.063,39.171c-0.172,1.697-0.246,6.161-0.246,6.985c0,0.824-0.209,1.894-0.541,2.644
				c-0.213,0.481-1.204,1.841-2.357,3.309c0.789,0.124,1.662,0.196,2.628,0.196c7.059,0,7.575-4.181,7.575-4.181l0.148-2.082
				c0,0-0.918,1.181-2.623,1.181c-1.705,0-3.017-3.148-3.476-5.247c-0.459-2.099,0-6.428,0-6.428S95.235,37.474,95.063,39.171z"/>
			<g>
				<path style="fill:#D1D4D4;" d="M111.566,62.32c-2.032,0.282-4.081,0.666-6.001,1.313l0,0c-2.476,2.708-3.387,5.645-3.427,7.512
					c0.141-0.194,0.459-1.262,1.508-1.787c0,0-1.142,3.46-0.817,6.46c0.325,3.001,0.768,3.886,0.768,3.886s-0.459-3.443,0.271-6.173
					c0.73-2.73,1.172-3.255,1.172-3.255s-0.771,2.575-0.771,4.198c0,0,0.487-2.673,1.391-4.226c0.009-0.016,0.019-0.032,0.028-0.049
					c0.647-2.039,1.008-2.498,1.008-2.498s-0.816,2.345-1.007,3.427c0,0,0.875-2.386,1.874-3.969
					C108.825,65.249,110.25,63.38,111.566,62.32z"/>
				<path style="fill:#D1D4D4;" d="M105.688,70.199c-0.005,0.011-0.048,0.103-0.075,0.243
					C105.637,70.364,105.662,70.283,105.688,70.199z"/>
			</g>
			<path style="fill:#2B201A;" d="M115.116,48.645c0.112-0.909-0.135-1.775-0.652-2.423l0.103-0.672l-0.397,0.354
				c-0.184,0.172-0.442,0.42-0.791,0.769c-1.322,1.321-1.812,2.189-1.812,2.189c0.342,0,1.575-0.006,3.422,0.4l0.861,0.204
				L115.116,48.645z"/>
		</g>
	</g>
</g>
<g id="Layer_1">
</g>
</svg>
