<?xml version="1.0" encoding="iso-8859-1"?>
<!-- Generator: Adobe Illustrator 24.1.2, SVG Export Plug-In . SVG Version: 6.00 Build 0)  -->
<svg version="1.1" xmlns="http://www.w3.org/2000/svg" xmlns:xlink="http://www.w3.org/1999/xlink" x="0px" y="0px"
	 viewBox="0 0 128 128" style="enable-background:new 0 0 128 128;" xml:space="preserve">
<g id="_x31_F44B">
	<g id="_x31_F44B_1_">
		<g>
			
				<radialGradient id="SVGID_1_" cx="4203.335" cy="3205.4736" r="14.9944" gradientTransform="matrix(-0.6746 0.6746 -1.378 -1.378 7345.0767 1603.3037)" gradientUnits="userSpaceOnUse">
				<stop  offset="0.35" style="stop-color:#368EC4"/>
				<stop  offset="0.4438" style="stop-color:#3A90C5"/>
				<stop  offset="0.5389" style="stop-color:#4697C8"/>
				<stop  offset="0.6349" style="stop-color:#5BA1CD"/>
				<stop  offset="0.7313" style="stop-color:#77B0D4"/>
				<stop  offset="0.8282" style="stop-color:#9CC4DD"/>
				<stop  offset="0.924" style="stop-color:#C8DBE7"/>
				<stop  offset="1" style="stop-color:#F1F1F1"/>
			</radialGradient>
			<path style="fill:url(#SVGID_1_);" d="M98.105,16.207c8.254,8.254,13.635,17.787,15.644,26.478
				c2.002-9.759-1.933-21.767-11.144-30.978C93.395,2.495,81.387-1.44,71.628,0.562C80.318,2.571,89.851,7.952,98.105,16.207z"/>
			
				<radialGradient id="SVGID_2_" cx="4211.2944" cy="3205.4424" r="10.6931" gradientTransform="matrix(-0.6746 0.6746 -1.378 -1.378 7345.0547 1603.2817)" gradientUnits="userSpaceOnUse">
				<stop  offset="0.35" style="stop-color:#368EC4"/>
				<stop  offset="0.4438" style="stop-color:#3A90C5"/>
				<stop  offset="0.5389" style="stop-color:#4697C8"/>
				<stop  offset="0.6349" style="stop-color:#5BA1CD"/>
				<stop  offset="0.7313" style="stop-color:#77B0D4"/>
				<stop  offset="0.8282" style="stop-color:#9CC4DD"/>
				<stop  offset="0.924" style="stop-color:#C8DBE7"/>
				<stop  offset="1" style="stop-color:#F1F1F1"/>
			</radialGradient>
			<path style="fill:url(#SVGID_2_);" d="M91.146,23.166c5.886,5.886,9.724,12.685,11.157,18.882
				c1.427-6.96-1.379-15.523-7.947-22.092c-6.568-6.569-15.132-9.375-22.091-7.947C78.462,13.441,85.26,17.279,91.146,23.166z"/>
		</g>
		<g>
			
				<radialGradient id="SVGID_3_" cx="1173.0842" cy="-1716.842" r="14.9944" gradientTransform="matrix(0.6746 -0.6746 1.378 1.378 1598.9233 3263.5266)" gradientUnits="userSpaceOnUse">
				<stop  offset="0.35" style="stop-color:#368EC4"/>
				<stop  offset="0.4438" style="stop-color:#3A90C5"/>
				<stop  offset="0.5389" style="stop-color:#4697C8"/>
				<stop  offset="0.6349" style="stop-color:#5BA1CD"/>
				<stop  offset="0.7313" style="stop-color:#77B0D4"/>
				<stop  offset="0.8282" style="stop-color:#9CC4DD"/>
				<stop  offset="0.924" style="stop-color:#C8DBE7"/>
				<stop  offset="1" style="stop-color:#F1F1F1"/>
			</radialGradient>
			<path style="fill:url(#SVGID_3_);" d="M18.872,111.793c-8.254-8.254-13.635-17.787-15.644-26.478
				c-2.002,9.759,1.933,21.767,11.144,30.978c9.211,9.211,21.218,13.146,30.977,11.144
				C36.659,125.429,27.126,120.048,18.872,111.793z"/>
			
				<radialGradient id="SVGID_4_" cx="1181.0437" cy="-1716.8734" r="10.6931" gradientTransform="matrix(0.6746 -0.6746 1.378 1.378 1598.9454 3263.5486)" gradientUnits="userSpaceOnUse">
				<stop  offset="0.35" style="stop-color:#368EC4"/>
				<stop  offset="0.4438" style="stop-color:#3A90C5"/>
				<stop  offset="0.5389" style="stop-color:#4697C8"/>
				<stop  offset="0.6349" style="stop-color:#5BA1CD"/>
				<stop  offset="0.7313" style="stop-color:#77B0D4"/>
				<stop  offset="0.8282" style="stop-color:#9CC4DD"/>
				<stop  offset="0.924" style="stop-color:#C8DBE7"/>
				<stop  offset="1" style="stop-color:#F1F1F1"/>
			</radialGradient>
			<path style="fill:url(#SVGID_4_);" d="M25.831,104.834c-5.886-5.886-9.724-12.685-11.157-18.882
				c-1.427,6.96,1.379,15.523,7.947,22.092c6.568,6.569,15.132,9.375,22.091,7.947C38.516,114.559,31.717,110.721,25.831,104.834z"
				/>
		</g>
		<g>
			<linearGradient id="SVGID_5_" gradientUnits="userSpaceOnUse" x1="69.1425" y1="10.5541" x2="69.1425" y2="124.6176">
				<stop  offset="4.528621e-07" style="stop-color:#FFD52D"/>
				<stop  offset="0.9614" style="stop-color:#FF9A1A"/>
			</linearGradient>
			<path style="fill:url(#SVGID_5_);" d="M113.106,72.821C100.95,64.526,98.25,62.031,95.27,57.915L66.235,13.698
				c-2.01-3.061-6.211-3.904-9.491-1.903c-3.309,2.019-4.469,6.193-2.606,9.386l24.538,42.068c-0.008,0.008-0.016,0.016-0.024,0.024
				L43.193,23.917c-2.605-2.846-7.119-2.989-10.148-0.321c-3.021,2.66-3.459,7.139-0.985,10.086l33.66,40.468L33.189,45.135
				c-2.905-2.591-7.456-2.268-10.23,0.727c-2.758,2.978-2.752,7.508,0.015,10.215L56.05,88.45c-0.231,0.308-0.457,0.612-0.675,0.91
				L27.463,68.677c-2.87-2.127-6.96-1.525-9.23,1.357c-2.277,2.891-1.892,7.023,0.866,9.31l31.473,26.083
				c3.197,3.524,6.326,7.657,12.227,14.162c11.143,12.282,32.489,9.942,43.43,0.015C123.315,104.102,126.804,82.168,113.106,72.821z
				"/>
			<g>
				
					<radialGradient id="SVGID_6_" cx="821.1465" cy="-2987.6123" r="7.479" gradientTransform="matrix(0.7294 -0.6841 0.2514 0.2681 199.8834 1403.4432)" gradientUnits="userSpaceOnUse">
					<stop  offset="0.0108" style="stop-color:#FF9A1A"/>
					<stop  offset="1" style="stop-color:#FF9A1A;stop-opacity:0"/>
				</radialGradient>
				<path style="fill:url(#SVGID_6_);" d="M52.898,35.896c1.016,1.083-0.55,4.202-3.497,6.967s-6.16,4.127-7.176,3.044
					L52.898,35.896z"/>
				
					<radialGradient id="SVGID_7_" cx="820.8244" cy="-2934.7263" r="7.479" gradientTransform="matrix(0.7294 -0.6841 0.2514 0.2681 199.8834 1403.4432)" gradientUnits="userSpaceOnUse">
					<stop  offset="0.0108" style="stop-color:#FF9A1A"/>
					<stop  offset="1" style="stop-color:#FF9A1A;stop-opacity:0"/>
				</radialGradient>
				<path style="fill:url(#SVGID_7_);" d="M65.96,50.293c1.016,1.083-0.55,4.202-3.497,6.967c-2.947,2.764-6.16,4.127-7.176,3.044
					L65.96,50.293z"/>
				
					<radialGradient id="SVGID_8_" cx="912.8546" cy="-3185.1733" r="7.479" gradientTransform="matrix(0.6875 -0.716 0.2651 0.2546 252.3861 1521.7396)" gradientUnits="userSpaceOnUse">
					<stop  offset="0.0108" style="stop-color:#FF9A1A"/>
					<stop  offset="1" style="stop-color:#FF9A1A;stop-opacity:0"/>
				</radialGradient>
				<path style="fill:url(#SVGID_8_);" d="M40.517,52.242c1.071,1.029-0.312,4.208-3.09,7.101c-2.778,2.893-5.898,4.404-6.969,3.376
					L40.517,52.242z"/>
				
					<radialGradient id="SVGID_9_" cx="944.4619" cy="-3132.2874" r="7.479" gradientTransform="matrix(0.7034 -0.7326 0.2651 0.2546 215.7436 1559.9017)" gradientUnits="userSpaceOnUse">
					<stop  offset="0.0108" style="stop-color:#FF9A1A"/>
					<stop  offset="1" style="stop-color:#FF9A1A;stop-opacity:0"/>
				</radialGradient>
				<path style="fill:url(#SVGID_9_);" d="M54.811,65.419c1.071,1.029-0.365,4.262-3.207,7.222c-2.842,2.96-6.015,4.526-7.086,3.497
					L54.811,65.419z"/>
				
					<radialGradient id="SVGID_10_" cx="1042.3755" cy="-3519.7954" r="7.479" gradientTransform="matrix(0.5538 -0.715 0.2906 0.225 476.0324 1617.1548)" gradientUnits="userSpaceOnUse">
					<stop  offset="0.0108" style="stop-color:#FF9A1A"/>
					<stop  offset="1" style="stop-color:#FF9A1A;stop-opacity:0"/>
				</radialGradient>
				<path style="fill:url(#SVGID_10_);" d="M34.534,74.6c1.174,0.909,0.312,3.989-1.926,6.878c-2.238,2.889-5.003,4.494-6.177,3.585
					L34.534,74.6z"/>
				
					<radialGradient id="SVGID_11_" cx="1066.4438" cy="-3475.8083" r="7.479" gradientTransform="matrix(0.5644 -0.7288 0.2906 0.225 451.398 1648.963)" gradientUnits="userSpaceOnUse">
					<stop  offset="0.0108" style="stop-color:#FF9A1A"/>
					<stop  offset="1" style="stop-color:#FF9A1A;stop-opacity:0"/>
				</radialGradient>
				<path style="fill:url(#SVGID_11_);" d="M47.448,84.328c1.174,0.909,0.277,4.034-2.004,6.979s-5.081,4.595-6.255,3.685
					L47.448,84.328z"/>
				
					<radialGradient id="SVGID_12_" cx="325.5894" cy="-2036.4875" r="7.479" gradientTransform="matrix(0.8094 -0.5024 0.1938 0.3123 198.8452 828.6025)" gradientUnits="userSpaceOnUse">
					<stop  offset="0.0108" style="stop-color:#FF9A1A"/>
					<stop  offset="1" style="stop-color:#FF9A1A;stop-opacity:0"/>
				</radialGradient>
				<path style="fill:url(#SVGID_12_);" d="M73.518,25.514c0.783,1.262-1.233,3.93-4.504,5.96s-6.557,2.653-7.34,1.391
					L73.518,25.514z"/>
				
					<radialGradient id="SVGID_13_" cx="461.7197" cy="-1983.6016" r="7.479" gradientTransform="matrix(0.8674 -0.5383 0.1938 0.3123 61.7354 913.7033)" gradientUnits="userSpaceOnUse">
					<stop  offset="0.0108" style="stop-color:#FF9A1A"/>
					<stop  offset="1" style="stop-color:#FF9A1A;stop-opacity:0"/>
				</radialGradient>
				<path style="fill:url(#SVGID_13_);" d="M84.024,41.87c0.783,1.262-1.423,4.048-4.928,6.223
					c-3.505,2.175-6.981,2.916-7.764,1.654L84.024,41.87z"/>
			</g>
			<g>
				
					<linearGradient id="SVGID_14_" gradientUnits="userSpaceOnUse" x1="1189.7542" y1="-1547.0967" x2="1189.9525" y2="-1555.4265" gradientTransform="matrix(0.7406 -0.6719 0.6719 0.7406 247.4127 2032.6227)">
					<stop  offset="0" style="stop-color:#FF9A1A"/>
					<stop  offset="0.987" style="stop-color:#FF9A1A;stop-opacity:0"/>
				</linearGradient>
				<path style="fill:url(#SVGID_14_);" d="M98.23,61.475c-2.184,5.243-10.474,22.277-31.675,38.952c0,0,11.202-5.185,22.278-4.02
					l16.631-28.943C102,64.932,99.856,63.139,98.23,61.475z"/>
				
					<radialGradient id="SVGID_15_" cx="1182.1456" cy="-1548.5847" r="73.9659" gradientTransform="matrix(0.6433 -0.7656 0.244 0.205 -300.326 1313.9419)" gradientUnits="userSpaceOnUse">
					<stop  offset="0.013" style="stop-color:#FF9A1A;stop-opacity:0"/>
					<stop  offset="1" style="stop-color:#FF9A1A"/>
				</radialGradient>
				<path style="fill:url(#SVGID_15_);" d="M56.05,88.45c-0.165,0.22-0.324,0.436-0.483,0.652c-2.379,3.38-6.402,11.54-4.995,16.325
					c2.963,3.266,5.871,7.058,10.977,12.773l42.294-51.939c-4.694-3.547-6.573-5.582-8.573-8.345
					c-2.647-0.129-13.847,2.979-16.619,5.359c-3.146,1.094-10.795,8.034-12.931,10.876C62.46,76.424,57.018,83.997,56.05,88.45z"/>
			</g>
			<linearGradient id="SVGID_16_" gradientUnits="userSpaceOnUse" x1="105.669" y1="35.8914" x2="106.9125" y2="122.0428">
				<stop  offset="4.528621e-07" style="stop-color:#FFD52D"/>
				<stop  offset="0.2589" style="stop-color:#FFCB2A"/>
				<stop  offset="0.6977" style="stop-color:#FFB021"/>
				<stop  offset="1" style="stop-color:#FF9A1A"/>
			</linearGradient>
			<path style="fill:url(#SVGID_16_);" d="M118.505,64.605c-0.366-9.752,2.66-22.238,2.66-22.238c1.12-5.362-1.681-9.501-7.076-8.55
				c-1.448,0.255-2.862,0.945-3.997,2.026c-3.485,3.209-4.507,6.017-6.43,13.677c-1.271,5.062-1.864,10.418-2.265,16.949
				c0,0-1.735,6.149-8.755,14.798c-11.857,14.608-0.885,29.718,13.648,38.28c13.479-9.552,17.731-22.84,18.854-31.883
				C126.382,77.711,118.782,71.978,118.505,64.605z"/>
		</g>
	</g>
</g>
<g id="Layer_1">
</g>
</svg>
