<?xml version="1.0" encoding="iso-8859-1"?>
<!-- Generator: Adobe Illustrator 24.1.2, SVG Export Plug-In . SVG Version: 6.00 Build 0)  -->
<svg version="1.1" xmlns="http://www.w3.org/2000/svg" xmlns:xlink="http://www.w3.org/1999/xlink" x="0px" y="0px"
	 viewBox="0 0 128 128" style="enable-background:new 0 0 128 128;" xml:space="preserve">
<g id="_x31_F44D">
	<g id="_x31_F44D_1_">
		<linearGradient id="SVGID_1_" gradientUnits="userSpaceOnUse" x1="87.4468" y1="10.7105" x2="87.4468" y2="117.2895">
			<stop  offset="0" style="stop-color:#FFD52D"/>
			<stop  offset="1" style="stop-color:#FF9A1A"/>
		</linearGradient>
		<path style="fill:url(#SVGID_1_);" d="M125.279,57.204c-0.71-4.677-4.711-8.125-9.318-8.125h-22.12V32.026
			c0-7.32-3.859-21.316-12.789-21.316c-4.442,0-4.263,5.976-4.263,8.526c0,7.695-0.893,32.004-29.841,39.832v49.695h13.057
			c2.306,0,4.393,0.863,6.263,2.202c4.882,4.08,10.338,6.324,16.384,6.324h10.657c5.068,0,9.594-1.289,13.589-3.86
			c3.995-2.582,7.012-5.994,9.063-10.265l11.05-22.648c0.627-1.418,0.935-2.753,0.935-3.996
			C127.946,74.535,125.557,59.221,125.279,57.204z"/>
		<polygon style="fill:#DE721E;" points="51.211,108.763 42.685,108.763 42.685,60.292 51.211,57.821 		"/>
		<linearGradient id="SVGID_2_" gradientUnits="userSpaceOnUse" x1="34.1586" y1="53.3421" x2="34.1586" y2="113.0263">
			<stop  offset="0" style="stop-color:#F4F5F6"/>
			<stop  offset="1" style="stop-color:#D1D4D4"/>
		</linearGradient>
		<rect x="21.369" y="53.342" style="fill:url(#SVGID_2_);" width="25.578" height="59.684"/>
		<linearGradient id="SVGID_3_" gradientUnits="userSpaceOnUse" x1="17.1064" y1="49.0789" x2="17.1064" y2="117.2895">
			<stop  offset="0" style="stop-color:#005686"/>
			<stop  offset="1" style="stop-color:#003C5A"/>
		</linearGradient>
		<path style="fill:url(#SVGID_3_);" d="M0.054,117.289h33.039c0.589,0,1.066-0.477,1.066-1.066V50.145
			c0-0.589-0.477-1.066-1.066-1.066H0.054V117.289z"/>
		<circle style="fill:#D1D4D4;" cx="17.106" cy="104.5" r="6.395"/>
	</g>
</g>
<g id="Layer_1">
</g>
</svg>
