<?xml version="1.0" encoding="iso-8859-1"?>
<!-- Generator: Adobe Illustrator 24.1.2, SVG Export Plug-In . SVG Version: 6.00 Build 0)  -->
<svg version="1.1" xmlns="http://www.w3.org/2000/svg" xmlns:xlink="http://www.w3.org/1999/xlink" x="0px" y="0px"
	 viewBox="0 0 128 128" style="enable-background:new 0 0 128 128;" xml:space="preserve">
<g id="_x31_F44F">
	<g id="_x31_F44F_1_">
		<g>
			<linearGradient id="SVGID_1_" gradientUnits="userSpaceOnUse" x1="55.3011" y1="15.0891" x2="55.3011" y2="110.2618">
				<stop  offset="4.528621e-07" style="stop-color:#FFD52D"/>
				<stop  offset="0.9614" style="stop-color:#FF9A1A"/>
			</linearGradient>
			<path style="fill:url(#SVGID_1_);" d="M93.928,49.441c-14.197-3.875-17.563-5.353-21.723-8.271L27.109,16.463
				c-3.608-2.05-8.516-1.704-10.771,2.08c-2.057,3.453-0.533,7.816,2.83,9.453l39.09,23.63c-0.005,0.01-0.01,0.02-0.015,0.031
				L15.415,28.414c-3.391-1.84-7.704-0.503-9.698,3.007c-1.988,3.5-0.94,7.877,2.359,9.855l41.492,24.88L11.673,44.718
				c-3.592-1.501-7.788,0.289-9.433,4.025c-1.636,3.715-0.075,7.295,3.346,9.652L45.093,82.83
				c-0.118,0.366-29.85-17.735-29.85-17.735c-2.9-1.412-7.077,0.829-8.283,4.294c-1.209,3.476,0.692,6.554,3.856,8.518
				l34.636,22.758c4.172,2.288,8.478,5.175,16.178,9.398c14.54,7.974,33.955-1.202,41.059-14.155
				C113.783,75.68,109.926,53.807,93.928,49.441z"/>
			<g>
				
					<radialGradient id="SVGID_2_" cx="1654.2616" cy="-4546.7666" r="7.479" gradientTransform="matrix(0.4663 -0.8847 0.3251 0.1714 728.5157 2283.1655)" gradientUnits="userSpaceOnUse">
					<stop  offset="0.0108" style="stop-color:#FF9A1A"/>
					<stop  offset="1" style="stop-color:#FF9A1A;stop-opacity:0"/>
				</radialGradient>
				<path style="fill:url(#SVGID_2_);" d="M24.968,34.18c1.314,0.692,0.851,4.152-1.033,7.726c-1.884,3.575-4.476,5.911-5.79,5.219
					L24.968,34.18z"/>
				
					<radialGradient id="SVGID_3_" cx="1653.9395" cy="-4493.8804" r="7.479" gradientTransform="matrix(0.4663 -0.8847 0.3251 0.1714 728.5157 2283.1655)" gradientUnits="userSpaceOnUse">
					<stop  offset="0.0108" style="stop-color:#FF9A1A"/>
					<stop  offset="1" style="stop-color:#FF9A1A;stop-opacity:0"/>
				</radialGradient>
				<path style="fill:url(#SVGID_3_);" d="M42.012,43.528c1.314,0.692,0.851,4.152-1.033,7.726c-1.884,3.575-4.476,5.911-5.79,5.219
					L42.012,43.528z"/>
				
					<radialGradient id="SVGID_4_" cx="1516.944" cy="-4308.7637" r="7.479" gradientTransform="matrix(0.5002 -0.8573 0.3174 0.1852 626.1394 2154.8584)" gradientUnits="userSpaceOnUse">
					<stop  offset="0.0108" style="stop-color:#FF9A1A"/>
					<stop  offset="1" style="stop-color:#FF9A1A;stop-opacity:0"/>
				</radialGradient>
				<path style="fill:url(#SVGID_4_);" d="M20.746,50.141c1.283,0.748,0.684,4.163-1.337,7.628
					c-2.021,3.464-4.699,5.666-5.982,4.917L20.746,50.141z"/>
				
					<radialGradient id="SVGID_5_" cx="1534.8453" cy="-4255.8779" r="7.479" gradientTransform="matrix(0.5118 -0.8772 0.3174 0.1852 599.4784 2200.5557)" gradientUnits="userSpaceOnUse">
					<stop  offset="0.0108" style="stop-color:#FF9A1A"/>
					<stop  offset="1" style="stop-color:#FF9A1A;stop-opacity:0"/>
				</radialGradient>
				<path style="fill:url(#SVGID_5_);" d="M37.734,59.595c1.283,0.748,0.646,4.229-1.422,7.773
					c-2.068,3.545-4.784,5.812-6.067,5.063L37.734,59.595z"/>
				
					<radialGradient id="SVGID_6_" cx="1262.5648" cy="-3908.4285" r="7.479" gradientTransform="matrix(0.4978 -0.7551 0.3068 0.2023 591.0372 1819.7174)" gradientUnits="userSpaceOnUse">
					<stop  offset="0.0108" style="stop-color:#FF9A1A"/>
					<stop  offset="1" style="stop-color:#FF9A1A;stop-opacity:0"/>
				</radialGradient>
				<path style="fill:url(#SVGID_6_);" d="M23.813,70.348c1.24,0.817,0.615,3.953-1.397,7.004s-4.647,4.862-5.887,4.044
					L23.813,70.348z"/>
				
					<radialGradient id="SVGID_7_" cx="1282.4768" cy="-3864.4414" r="7.479" gradientTransform="matrix(0.5073 -0.7696 0.3068 0.2023 568.8941 1853.3076)" gradientUnits="userSpaceOnUse">
					<stop  offset="0.0108" style="stop-color:#FF9A1A"/>
					<stop  offset="1" style="stop-color:#FF9A1A;stop-opacity:0"/>
				</radialGradient>
				<path style="fill:url(#SVGID_7_);" d="M37.429,79.066c1.24,0.817,0.583,4.001-1.467,7.111s-4.717,4.968-5.957,4.151
					L37.429,79.066z"/>
				
					<radialGradient id="SVGID_8_" cx="1550.0842" cy="-4749.0078" r="7.479" gradientTransform="matrix(0.461 -0.8336 0.3216 0.1779 845.7931 2164.9355)" gradientUnits="userSpaceOnUse">
					<stop  offset="0.0108" style="stop-color:#FF9A1A"/>
					<stop  offset="1" style="stop-color:#FF9A1A;stop-opacity:0"/>
				</radialGradient>
				<path style="fill:url(#SVGID_8_);" d="M36.452,22.025c1.3,0.719,0.843,4.032-1.02,7.401c-1.863,3.368-4.427,5.517-5.726,4.798
					L36.452,22.025z"/>
				
					<radialGradient id="SVGID_9_" cx="1604.3733" cy="-4696.1216" r="7.479" gradientTransform="matrix(0.4941 -0.8933 0.3216 0.1779 767.6932 2306.1528)" gradientUnits="userSpaceOnUse">
					<stop  offset="0.0108" style="stop-color:#FF9A1A"/>
					<stop  offset="1" style="stop-color:#FF9A1A;stop-opacity:0"/>
				</radialGradient>
				<path style="fill:url(#SVGID_9_);" d="M53.607,31.169c1.3,0.719,0.735,4.228-1.262,7.837c-1.996,3.61-4.668,5.953-5.968,5.235
					L53.607,31.169z"/>
			</g>
			<g>
				
					<linearGradient id="SVGID_10_" gradientUnits="userSpaceOnUse" x1="2013.2611" y1="-2133.844" x2="2013.4595" y2="-2142.1738" gradientTransform="matrix(0.4809 -0.8768 0.8768 0.4809 978.7211 2862.3899)">
					<stop  offset="0" style="stop-color:#FF9A1A"/>
					<stop  offset="0.987" style="stop-color:#FF9A1A;stop-opacity:0"/>
				</linearGradient>
				<path style="fill:url(#SVGID_10_);" d="M76.164,43.569c-0.354,5.668-2.633,24.475-17.235,47.155c0,0,8.898-8.556,19.747-11.068
					l6.279-32.786C80.856,45.608,78.244,44.612,76.164,43.569z"/>
				
					<radialGradient id="SVGID_11_" cx="2005.6522" cy="-2135.3323" r="73.9659" gradientTransform="matrix(0.3583 -0.9336 0.2975 0.1142 -12.5202 2193.3772)" gradientUnits="userSpaceOnUse">
					<stop  offset="0.013" style="stop-color:#FF9A1A;stop-opacity:0"/>
					<stop  offset="1" style="stop-color:#FF9A1A"/>
				</radialGradient>
				<path style="fill:url(#SVGID_11_);" d="M45.093,82.83c-0.085,0.262-0.164,0.518-0.244,0.773
					c-1.146,3.971-2.287,12.997,0.604,17.062c3.866,2.12,7.852,4.757,14.543,8.493l23.035-62.896
					c-5.594-1.822-8.034-3.133-10.826-5.092c-2.544,0.742-12.118,7.334-13.961,10.487c-2.617,2.061-7.583,11.116-8.675,14.499
					C47.228,69.37,44.554,78.305,45.093,82.83z"/>
			</g>
			<linearGradient id="SVGID_12_" gradientUnits="userSpaceOnUse" x1="92.6899" y1="13.2099" x2="93.9201" y2="98.4392">
				<stop  offset="4.528621e-07" style="stop-color:#FFD52D"/>
				<stop  offset="0.2589" style="stop-color:#FFCB2A"/>
				<stop  offset="0.6977" style="stop-color:#FFB021"/>
				<stop  offset="1" style="stop-color:#FF9A1A"/>
			</linearGradient>
			<path style="fill:url(#SVGID_12_);" d="M110.151,59.545c-2.078-9.813-11.133-12.753-13.8-19.631
				c-3.527-9.099-4.74-21.889-4.74-21.889c-0.69-5.434-4.689-8.433-9.478-5.774c-1.285,0.714-2.397,1.827-3.117,3.219
				c-2.247,4.171-2.298,7.158-1.616,15.027c0.45,5.2,1.637,10.456,3.388,16.761c0,0,0.366,6.379-3.448,16.844
				c-6.442,17.677,8.858,28.381,25.39,31.733C112.355,82.408,112.04,68.461,110.151,59.545z"/>
			
				<radialGradient id="SVGID_13_" cx="79.977" cy="77.4754" r="67.7309" gradientTransform="matrix(0.9017 -0.4323 0.7692 1.6044 -51.7311 -12.2521)" gradientUnits="userSpaceOnUse">
				<stop  offset="4.528621e-07" style="stop-color:#DE721E"/>
				<stop  offset="1" style="stop-color:#DE721E;stop-opacity:0"/>
			</radialGradient>
			<path style="fill:url(#SVGID_13_);" d="M110.151,59.545c-2.078-9.813-11.133-12.753-13.8-19.631
				c-3.527-9.099-4.74-21.889-4.74-21.889c-0.69-5.434-4.689-8.433-9.478-5.774c-1.285,0.714-2.397,1.827-3.117,3.219
				c-2.247,4.171-2.298,7.158-1.616,15.027c0.402,4.652,1.398,9.356,2.857,14.809c-3.724-1.368-5.771-2.535-8.053-4.136
				L27.109,16.463c-3.608-2.05-8.516-1.704-10.771,2.08c-2.057,3.453-0.533,7.816,2.83,9.453l39.09,23.63
				c-0.005,0.01-0.01,0.02-0.015,0.031L15.415,28.414c-3.391-1.84-7.704-0.503-9.698,3.007c-1.988,3.5-0.94,7.877,2.359,9.855
				l41.492,24.88L11.673,44.718c-3.592-1.501-7.788,0.289-9.433,4.025c-1.636,3.715-0.075,7.295,3.346,9.652L45.093,82.83
				c-0.118,0.366-29.85-17.735-29.85-17.735c-2.9-1.412-7.077,0.829-8.283,4.294c-1.209,3.476,0.692,6.554,3.856,8.518
				l34.636,22.758c4.172,2.288,8.478,5.175,16.178,9.398c14.54,7.974,33.955-1.202,41.059-14.155
				c0.013-0.024,0.025-0.048,0.038-0.073c0.001,0,0.001,0,0.002,0C112.355,82.408,112.04,68.461,110.151,59.545z"/>
			<g>
				<path style="fill:#DE721E;" d="M43.047,62.245l-0.917-0.554H42.12c-2.59-4.551-4.529-7.993-4.529-7.993
					c-0.618-0.895-2.154-2.078-3.975-2.078l-2.043-4.221c-1.077-2.185-0.977-4.367,0.06-6.405c0.181,0.714,0.448,1.428,0.799,2.142
					L43.047,62.245z"/>
				<path style="fill:#DE721E;" d="M54.984,83.742c-0.277,0-7.599-12.789-12.64-21.678l0.874,0.501h0.011L54.984,83.742z"/>
				<path style="fill:#DE721E;" d="M81.713,62.938c-0.01,0-0.021,0.011-0.032,0.011l-16.04-25.376l2.387,1.311L81.713,62.938z"/>
				<path style="fill:#DE721E;" d="M54.344,49.264l-1.183-0.703l-0.011-0.011l-8.729-14.377c-0.565-0.725-2.078-2.064-3.139-2.246
					c-0.469-1.407,0.124-2.818,1.103-3.797c0.149,0.437,0.33,0.863,0.576,1.279L54.344,49.264z"/>
				<polygon style="fill:#DE721E;" points="67.027,71.379 53.481,49.072 54.579,49.669 				"/>
				<path style="fill:#DE721E;" d="M34.543,76.303l-5.5-3.4c-1.812-4.135-2.889-5.926-2.889-5.926
					c-1.226-2.206-0.371-4.594,0.322-6.651c0.224,0.799,0.565,1.609,1.002,2.387L34.543,76.303z"/>
				<linearGradient id="SVGID_14_" gradientUnits="userSpaceOnUse" x1="33.3528" y1="76.1397" x2="44.1036" y2="105.8789">
					<stop  offset="4.528621e-07" style="stop-color:#DE721E"/>
					<stop  offset="1" style="stop-color:#DE721E;stop-opacity:0"/>
				</linearGradient>
				<path style="fill:url(#SVGID_14_);" d="M48.28,102.287c-0.97-0.576-1.908-1.119-2.824-1.62L34.03,93.16
					c0-7.008-2.142-13.569-4.753-19.569c1.332,0.799,4.338,2.605,5.606,3.362l11.713,22.531
					C47.151,100.379,47.705,101.306,48.28,102.287z"/>
				<linearGradient id="SVGID_15_" gradientUnits="userSpaceOnUse" x1="103.5051" y1="65.7758" x2="97.5545" y2="59.8252">
					<stop  offset="4.528621e-07" style="stop-color:#DE721E"/>
					<stop  offset="1" style="stop-color:#DE721E;stop-opacity:0"/>
				</linearGradient>
				<path style="fill:url(#SVGID_15_);" d="M109.572,57.46c-0.877-2.778-2.789-5.148-2.789-5.148s-6.068,3.793-7.312,15.885
					c-1.243,12.092,5.051,14.934,5.051,14.934l8.982-1.776L109.572,57.46z"/>
			</g>
		</g>
		<g>
			<linearGradient id="SVGID_16_" gradientUnits="userSpaceOnUse" x1="76.5452" y1="15.3103" x2="78.1725" y2="128.0622">
				<stop  offset="4.528621e-07" style="stop-color:#FFD52D"/>
				<stop  offset="0.2589" style="stop-color:#FFCB2A"/>
				<stop  offset="0.6977" style="stop-color:#FFB021"/>
				<stop  offset="1" style="stop-color:#FF9A1A"/>
			</linearGradient>
			<path style="fill:url(#SVGID_16_);" d="M127.217,49.883c2.049-5.08,0.023-9.649-5.454-9.665c-1.47-0.004-2.984,0.425-4.292,1.288
				c-3.996,2.544-5.498,5.127-8.744,12.327c-1.919,4.257-3.345,8.849-4.733,14.321c-2.583-3.011-3.8-5.03-5.01-7.54L71.68,17.04
				c-2.148-3.55-6.602-5.644-10.416-3.441c-3.481,2.01-4.279,6.562-2.142,9.632l22.586,39.702c-0.009,0.007-0.018,0.013-0.028,0.02
				L55.641,21.764c-2.062-3.261-6.479-4.199-9.932-2.108c-3.443,2.085-4.665,6.416-2.75,9.753l24.073,41.966L44.418,34.168
				c-2.402-3.063-6.938-3.548-10.198-1.09c-3.24,2.444-3.626,6.331-1.789,10.057l22.558,40.609
				C54.707,84.006,37.59,53.696,37.59,53.696c-1.842-2.648-6.582-2.73-9.325-0.294c-2.752,2.444-2.595,6.058-0.791,9.316
				l19.125,36.768c2.525,4.033,4.874,8.654,9.535,16.099c8.799,14.056,30.223,15.523,42.745,7.683
				c0.023-0.015,0.046-0.03,0.069-0.045c0.001,0,0.001,0.001,0.001,0.001c14.954-7.022,21.485-19.35,24.188-28.053
				c2.975-9.579-3.493-16.564-2.464-23.87C122.034,61.638,127.217,49.883,127.217,49.883z"/>
			
				<radialGradient id="SVGID_17_" cx="74.5098" cy="108.6946" r="73.2729" gradientTransform="matrix(0.7592 0.6508 -0.4268 0.4979 64.3287 6.0841)" gradientUnits="userSpaceOnUse">
				<stop  offset="4.528621e-07" style="stop-color:#FF9A1A"/>
				<stop  offset="1" style="stop-color:#FF9A1A;stop-opacity:0"/>
			</radialGradient>
			<path style="fill:url(#SVGID_17_);" d="M103.994,68.154c-2.583-3.011-3.8-5.03-5.01-7.54c0,0-17.294,2.333-17.304,2.34
				l-14.648,8.422L54.989,83.744c-0.282,0.262-8.39,15.743-8.39,15.743c2.525,4.033,4.874,8.654,9.535,16.099
				c8.799,14.056,30.223,15.523,42.745,7.683c0.023-0.015,0.046-0.03,0.069-0.045c0.001,0,0.001,0.001,0.001,0.001
				c14.954-7.022,21.485-19.35,24.188-28.053C126.111,85.592,108.276,72.436,103.994,68.154z"/>
			<g style="opacity:0.4;">
				
					<radialGradient id="SVGID_18_" cx="844.4881" cy="2811.1521" r="7.4325" gradientTransform="matrix(0.377 0.653 -0.7372 0.4256 1816.286 -1668.8911)" gradientUnits="userSpaceOnUse">
					<stop  offset="0" style="stop-color:#FF7149"/>
					<stop  offset="0.1879" style="stop-color:#FF7548;stop-opacity:0.8121"/>
					<stop  offset="0.393" style="stop-color:#FF8344;stop-opacity:0.607"/>
					<stop  offset="0.6062" style="stop-color:#FF983E;stop-opacity:0.3938"/>
					<stop  offset="0.8236" style="stop-color:#FFB735;stop-opacity:0.1764"/>
					<stop  offset="1" style="stop-color:#FFD52D;stop-opacity:0"/>
				</radialGradient>
				<circle style="fill:url(#SVGID_18_);" cx="62.379" cy="78.989" r="6.328"/>
				
					<radialGradient id="SVGID_19_" cx="840.0446" cy="2795.373" r="7.4325" gradientTransform="matrix(0.377 0.653 -0.7372 0.4256 1818.3195 -1670.0652)" gradientUnits="userSpaceOnUse">
					<stop  offset="0" style="stop-color:#FF7149"/>
					<stop  offset="0.1879" style="stop-color:#FF7548;stop-opacity:0.8121"/>
					<stop  offset="0.393" style="stop-color:#FF8344;stop-opacity:0.607"/>
					<stop  offset="0.6062" style="stop-color:#FF983E;stop-opacity:0.3938"/>
					<stop  offset="0.8236" style="stop-color:#FFB735;stop-opacity:0.1764"/>
					<stop  offset="1" style="stop-color:#FFD52D;stop-opacity:0"/>
				</radialGradient>
				<circle style="fill:url(#SVGID_19_);" cx="74.369" cy="68.198" r="6.328"/>
				
					<radialGradient id="SVGID_20_" cx="844.4881" cy="2778.1719" r="7.4325" gradientTransform="matrix(0.377 0.653 -0.7372 0.4256 1820.5361 -1671.345)" gradientUnits="userSpaceOnUse">
					<stop  offset="0" style="stop-color:#FF7149"/>
					<stop  offset="0.1879" style="stop-color:#FF7548;stop-opacity:0.8121"/>
					<stop  offset="0.393" style="stop-color:#FF8344;stop-opacity:0.607"/>
					<stop  offset="0.6062" style="stop-color:#FF983E;stop-opacity:0.3938"/>
					<stop  offset="0.8236" style="stop-color:#FFB735;stop-opacity:0.1764"/>
					<stop  offset="1" style="stop-color:#FFD52D;stop-opacity:0"/>
				</radialGradient>
				<circle style="fill:url(#SVGID_20_);" cx="90.941" cy="62.498" r="6.328"/>
				
					<radialGradient id="SVGID_21_" cx="848.3842" cy="2826.8464" r="7.4325" gradientTransform="matrix(0.377 0.653 -0.7372 0.4256 1814.2635 -1667.7234)" gradientUnits="userSpaceOnUse">
					<stop  offset="0" style="stop-color:#FF7149"/>
					<stop  offset="0.1879" style="stop-color:#FF7548;stop-opacity:0.8121"/>
					<stop  offset="0.393" style="stop-color:#FF8344;stop-opacity:0.607"/>
					<stop  offset="0.6062" style="stop-color:#FF983E;stop-opacity:0.3938"/>
					<stop  offset="0.8236" style="stop-color:#FFB735;stop-opacity:0.1764"/>
					<stop  offset="1" style="stop-color:#FFD52D;stop-opacity:0"/>
				</radialGradient>
				<circle style="fill:url(#SVGID_21_);" cx="50.256" cy="89.38" r="6.328"/>
			</g>
			<linearGradient id="SVGID_22_" gradientUnits="userSpaceOnUse" x1="108.2885" y1="75.8242" x2="105.2243" y2="65.0331">
				<stop  offset="4.528621e-07" style="stop-color:#FF9A1A"/>
				<stop  offset="1" style="stop-color:#FF9A1A;stop-opacity:0"/>
			</linearGradient>
			<path style="fill:url(#SVGID_22_);" d="M103.994,68.154c0,0,3.847,3.118,5.579,8.048c0,0-0.322-8.888-4.025-13.703
				L103.994,68.154z"/>
		</g>
		<g>
			
				<linearGradient id="SVGID_23_" gradientUnits="userSpaceOnUse" x1="1038.8855" y1="-1969.9321" x2="1063.4877" y2="-1969.9321" gradientTransform="matrix(0.7071 -0.7071 0.7071 0.7071 668.7963 2244.9766)">
				<stop  offset="4.528621e-07" style="stop-color:#368EC4"/>
				<stop  offset="0.1171" style="stop-color:#519CCB"/>
				<stop  offset="0.4295" style="stop-color:#95C0DB"/>
				<stop  offset="0.6913" style="stop-color:#C7DBE7"/>
				<stop  offset="0.8891" style="stop-color:#E6EBEE"/>
				<stop  offset="1" style="stop-color:#F1F1F1"/>
			</linearGradient>
			<polygon style="fill:url(#SVGID_23_);" points="29.311,98.557 5.978,112.863 15.005,121.89 			"/>
			
				<linearGradient id="SVGID_24_" gradientUnits="userSpaceOnUse" x1="2291.2107" y1="-2621.1255" x2="2315.8132" y2="-2621.1255" gradientTransform="matrix(0.3095 -0.9509 0.9509 0.3095 1807.8799 3115.8132)">
				<stop  offset="4.528621e-07" style="stop-color:#368EC4"/>
				<stop  offset="0.1171" style="stop-color:#519CCB"/>
				<stop  offset="0.4295" style="stop-color:#95C0DB"/>
				<stop  offset="0.6913" style="stop-color:#C7DBE7"/>
				<stop  offset="0.8891" style="stop-color:#E6EBEE"/>
				<stop  offset="1" style="stop-color:#F1F1F1"/>
			</linearGradient>
			<polygon style="fill:url(#SVGID_24_);" points="32.689,100.584 18.384,123.918 30.523,127.868 			"/>
			
				<linearGradient id="SVGID_25_" gradientUnits="userSpaceOnUse" x1="218.2385" y1="-821.5645" x2="242.8403" y2="-821.5645" gradientTransform="matrix(0.9509 -0.3095 0.3095 0.9509 48.6246 952.2061)">
				<stop  offset="4.528621e-07" style="stop-color:#368EC4"/>
				<stop  offset="0.1171" style="stop-color:#519CCB"/>
				<stop  offset="0.4295" style="stop-color:#95C0DB"/>
				<stop  offset="0.6913" style="stop-color:#C7DBE7"/>
				<stop  offset="0.8891" style="stop-color:#E6EBEE"/>
				<stop  offset="1" style="stop-color:#F1F1F1"/>
			</linearGradient>
			<polygon style="fill:url(#SVGID_25_);" points="27.284,95.178 0,97.344 3.951,109.484 			"/>
		</g>
		<g>
			
				<linearGradient id="SVGID_26_" gradientUnits="userSpaceOnUse" x1="4902.0732" y1="2571.241" x2="4926.6753" y2="2571.241" gradientTransform="matrix(-0.7071 0.7071 -0.7071 -0.7071 5401.876 -1637.6996)">
				<stop  offset="4.528621e-07" style="stop-color:#368EC4"/>
				<stop  offset="0.1171" style="stop-color:#519CCB"/>
				<stop  offset="0.4295" style="stop-color:#95C0DB"/>
				<stop  offset="0.6913" style="stop-color:#C7DBE7"/>
				<stop  offset="0.8891" style="stop-color:#E6EBEE"/>
				<stop  offset="1" style="stop-color:#F1F1F1"/>
			</linearGradient>
			<polygon style="fill:url(#SVGID_26_);" points="98.581,29.312 121.914,15.006 112.887,5.979 			"/>
			
				<linearGradient id="SVGID_27_" gradientUnits="userSpaceOnUse" x1="3674.3438" y1="3178.3071" x2="3698.946" y2="3178.3071" gradientTransform="matrix(-0.3095 0.9509 -0.9509 -0.3095 4262.7925 -2508.5364)">
				<stop  offset="4.528621e-07" style="stop-color:#368EC4"/>
				<stop  offset="0.1171" style="stop-color:#519CCB"/>
				<stop  offset="0.4295" style="stop-color:#95C0DB"/>
				<stop  offset="0.6913" style="stop-color:#C7DBE7"/>
				<stop  offset="0.8891" style="stop-color:#E6EBEE"/>
				<stop  offset="1" style="stop-color:#F1F1F1"/>
			</linearGradient>
			<polygon style="fill:url(#SVGID_27_);" points="95.202,27.285 109.508,3.951 97.368,0.001 			"/>
			
				<linearGradient id="SVGID_28_" gradientUnits="userSpaceOnUse" x1="5720.9629" y1="1473.3207" x2="5745.5649" y2="1473.3207" gradientTransform="matrix(-0.9509 0.3095 -0.3095 -0.9509 6022.0479 -344.9292)">
				<stop  offset="4.528621e-07" style="stop-color:#368EC4"/>
				<stop  offset="0.1171" style="stop-color:#519CCB"/>
				<stop  offset="0.4295" style="stop-color:#95C0DB"/>
				<stop  offset="0.6913" style="stop-color:#C7DBE7"/>
				<stop  offset="0.8891" style="stop-color:#E6EBEE"/>
				<stop  offset="1" style="stop-color:#F1F1F1"/>
			</linearGradient>
			<polygon style="fill:url(#SVGID_28_);" points="100.608,32.691 127.892,30.525 123.941,18.385 			"/>
		</g>
	</g>
</g>
<g id="Layer_1">
</g>
</svg>
