<?xml version="1.0" encoding="iso-8859-1"?>
<!-- Generator: Adobe Illustrator 24.1.2, SVG Export Plug-In . SVG Version: 6.00 Build 0)  -->
<svg version="1.1" xmlns="http://www.w3.org/2000/svg" xmlns:xlink="http://www.w3.org/1999/xlink" x="0px" y="0px"
	 viewBox="0 0 128 128" style="enable-background:new 0 0 128 128;" xml:space="preserve">
<symbol  id="Person_Woman_Eye_Closed" viewBox="-8.688 -7.287 17.375 14.575">
	<g>
		<path style="fill:#2B201A;" d="M8.687-2.622C8.105-4.191,6.845-5.483,5.304-6.32c-0.776-0.408-1.63-0.717-2.516-0.85
			C2.354-7.247,1.886-7.267,1.465-7.286C1.048-7.291,0.63-7.282,0.208-7.255c-1.674,0.108-3.426,0.554-4.912,1.526
			c-1.486,0.966-2.58,2.469-2.924,4.092c1.258-1.089,2.49-1.888,3.825-2.345c1.323-0.473,2.724-0.679,4.186-0.78
			c1.523-0.117,2.794-0.116,4.187,0.257C5.944-4.157,7.306-3.516,8.687-2.622z"/>
	</g>
	<path style="fill:#2B201A;" d="M7.731,3.428c-4.236,0-4.694,1.235-10.043,1.235C-4.183,4.639-6.103,4.372-8.589,2.6l-0.099,0.093
		c2.714,3.328,6.764,4.585,9.231,4.595c4.16,0,6.855-1.928,7.652-3.553C8.195,3.278,8.037,3.453,7.731,3.428z"/>
</symbol>
<g id="_x31_F483">
	<g id="_x31_F483_1_">
		<g id="pieds_2_">
			<g>
				<linearGradient id="SVGID_1_" gradientUnits="userSpaceOnUse" x1="91.0826" y1="112.4269" x2="93.1567" y2="124.871">
					<stop  offset="4.528621e-07" style="stop-color:#FFD52D"/>
					<stop  offset="1" style="stop-color:#FF9A1A"/>
				</linearGradient>
				<path style="fill:url(#SVGID_1_);" d="M92.967,110.353c0,0,3.57,10.936,3.57,12.727c0,1.791-5.832,1.791-5.832,1.791
					s-1.32-2.263-1.32-5.091s-0.283-6.788-2.168-9.427C85.331,107.713,92.967,110.353,92.967,110.353z"/>
				<linearGradient id="SVGID_2_" gradientUnits="userSpaceOnUse" x1="91.399" y1="113.7968" x2="93.0016" y2="121.9672">
					<stop  offset="4.528621e-07" style="stop-color:#FFD52D"/>
					<stop  offset="1" style="stop-color:#FF9A1A"/>
				</linearGradient>
				<path style="fill:url(#SVGID_2_);" d="M89.384,119.78c0,2.828,1.32,5.091,1.32,5.091s5.832,0,5.832-1.791
					c0-0.678-0.511-2.664-1.146-4.871c-0.443,0.69-2.66,4.032-3.901,3.834c-1.303-0.207-2.039-2.981-2.12-3.3
					C89.38,119.101,89.384,119.449,89.384,119.78z"/>
				<linearGradient id="SVGID_3_" gradientUnits="userSpaceOnUse" x1="89.2172" y1="112.3499" x2="95.1674" y2="115.5663">
					<stop  offset="0" style="stop-color:#DE721E"/>
					<stop  offset="1" style="stop-color:#DE721E;stop-opacity:0"/>
				</linearGradient>
				<path style="fill:url(#SVGID_3_);" d="M94.667,115.765c-0.863-2.848-1.7-5.412-1.7-5.412s-7.636-2.64-5.751,0
					c1.201,1.681,1.75,3.897,1.992,6.016c0.434,0.043,0.879,0.065,1.331,0.065C92.033,116.434,93.439,116.192,94.667,115.765z"/>
				<path style="fill:#3D3D3D;" d="M95.75,119.484c0,0,0.234,2.606-2.783,3.125c-2.044,0.351-3.533-0.606-3.533-1.872
					c-0.159,1.322-0.395,6.601,3.533,7.151C97.39,128.507,97.967,124.184,95.75,119.484z"/>
				<path style="fill:#3D3D3D;" d="M93.964,113.483c0,0,0.825,0.656,1.297,1.316c0.471,0.66,0,2.96,0,2.96l-0.594-1.995
					c0,0-0.912-0.607-2.94-0.056c-2.028,0.551-2.435,1.177-2.435,1.524l-0.181-1.612c0,0,0.918-0.963,2.536-1.199
					c1.618-0.236,2.498,0.079,2.498,0.079L93.964,113.483z"/>
			</g>
			<path style="fill:#3D3D3D;" d="M73.665,117.942c0,0,0.683,1.155,1.815,1.155s2.917,0.181,3.323,1.226
				c0.155,0.399,0.212,0.824,0.212,0.824s-1.414,1.745-4.219,1.745c-2.805,0-3.523-0.106-4.289-0.872
				c-0.766-0.766-2.922-2.286-3.724-2.428s-0.636-0.108-0.636-0.108l-0.014,3.007l-2.39-0.212l-0.33-4.761l6.41-1.508
				L73.665,117.942z"/>
		</g>
		<g id="fond_robe_2_">
			<path style="fill:#003C5A;" d="M99.471,78.394c2.121,1.65,3.425,7.844,2.671,11.731c-0.754,3.887-12.823,6.887-12.823,6.887
				l-8.796-8.405C80.523,88.607,93.784,77.357,99.471,78.394z"/>
			<path style="fill:#003C5A;" d="M96.537,68.883c1.804,1.404-0.949,7.155-3.297,8.899c-2.347,1.744-13.566,0-13.566,0l-5.185-7.495
				l1.98-5.798l6.106-1.766L96.537,68.883z"/>
		</g>
		<g id="grand_volant_2_">
			<linearGradient id="SVGID_4_" gradientUnits="userSpaceOnUse" x1="64" y1="66.8614" x2="64" y2="111.3886">
				<stop  offset="9.376909e-07" style="stop-color:#368EC4"/>
				<stop  offset="0.1836" style="stop-color:#2C83B8"/>
				<stop  offset="1" style="stop-color:#005686"/>
			</linearGradient>
			<path style="fill:url(#SVGID_4_);" d="M109.841,95.175c-0.948,3.859-5.562,19.609-27.433,18.006c0,0-9.616,8.673-21.494,7.919
				c-11.878-0.754-39.406-3.677-42.422-27.434s7.919-32.807,14.706-32.807s12.302,2.404,18.006,8.108s27.433,15.367,37.803,16.969
				s15.838,2.357,15.838,2.357S111.161,89.801,109.841,95.175z"/>
			
				<radialGradient id="SVGID_5_" cx="61.6695" cy="87.0213" r="40.2969" gradientTransform="matrix(0.9551 0.2963 -0.1655 0.5335 17.1713 22.3204)" gradientUnits="userSpaceOnUse">
				<stop  offset="0" style="stop-color:#003C5A"/>
				<stop  offset="0.9117" style="stop-color:#003C5A;stop-opacity:0.0883"/>
				<stop  offset="1" style="stop-color:#003C5A;stop-opacity:0"/>
			</radialGradient>
			<path style="fill:url(#SVGID_5_);" d="M59.278,74.489l-24.395-2.739c-2.581,4.903-11.068,20.778-14.944,28.023
				c6.558,18.176,30.202,20.644,40.975,21.328c11.878,0.754,21.494-7.919,21.494-7.919c0.913,0.067,1.794,0.101,2.648,0.11
				c7.692-6.206,13.567-13.062,13.567-19.529c0-2.509-0.012-4.61-0.034-6.373c-2.482-0.368-5.686-0.85-9.582-1.452
				C81.572,84.787,68.299,79.495,59.278,74.489z"/>
		</g>
		<g id="moyen_volant_2_">
			
				<radialGradient id="SVGID_6_" cx="63.9468" cy="79.8059" r="35.2605" fx="64.8741" fy="63.1456" gradientTransform="matrix(0.9862 0.1654 -0.1003 0.598 8.8836 21.5041)" gradientUnits="userSpaceOnUse">
				<stop  offset="0" style="stop-color:#368EC4"/>
				<stop  offset="0.228" style="stop-color:#3088BD"/>
				<stop  offset="0.5514" style="stop-color:#2077AB"/>
				<stop  offset="0.9304" style="stop-color:#065C8C"/>
				<stop  offset="1" style="stop-color:#005686"/>
			</radialGradient>
			<path style="fill:url(#SVGID_6_);" d="M99.471,78.394c-1.65-1.65-16.686-7.75-16.686-7.75s-11.248-1.761-20.457-1.761
				c-3.024,0-8.71,4.012-9.899,3.289c-3.231-1.964-7.526-3.289-11.313-3.289c-5.091,0-8.673,3.132-8.673,13.659
				c0,10.339,10.325,14.47,22.503,14.47c10.475,0,19.542-6.009,19.542-6.009s1.45,2.612,4.714,2.612
				C86.514,93.615,94.726,78.394,99.471,78.394z"/>
			
				<radialGradient id="SVGID_7_" cx="69.5355" cy="73.0267" r="27.4755" gradientTransform="matrix(1 0 0 0.3948 0 44.1949)" gradientUnits="userSpaceOnUse">
				<stop  offset="0" style="stop-color:#003C5A"/>
				<stop  offset="1" style="stop-color:#003C5A;stop-opacity:0"/>
			</radialGradient>
			<path style="fill:url(#SVGID_7_);" d="M93.24,75.114c-4.764-2.161-10.455-4.47-10.455-4.47s-11.248-1.761-20.457-1.761
				c-3.024,0-8.71,4.012-9.899,3.289c-2.429-1.477-5.46-2.592-8.424-3.055c-3.355,1.605-5.339,3.591-5.339,5.741
				c0,5.337,12.219,9.663,27.292,9.663C80.79,84.522,92.858,80.333,93.24,75.114z"/>
			<linearGradient id="SVGID_8_" gradientUnits="userSpaceOnUse" x1="73.9377" y1="91.1347" x2="64.3874" y2="87.1075">
				<stop  offset="0" style="stop-color:#005686"/>
				<stop  offset="0.8219" style="stop-color:#005686;stop-opacity:0"/>
			</linearGradient>
			<path style="fill:url(#SVGID_8_);" d="M55.901,96.996c10.066-0.344,18.588-5.993,18.588-5.993l-3.645-14.64
				C70.844,76.363,58.044,86.825,55.901,96.996z"/>
		</g>
		<g id="petit_volant_2_">
			<linearGradient id="SVGID_9_" gradientUnits="userSpaceOnUse" x1="69.1785" y1="73.9548" x2="68.5186" y2="61.7935">
				<stop  offset="0" style="stop-color:#005686"/>
				<stop  offset="0.8164" style="stop-color:#2C83B8"/>
				<stop  offset="1" style="stop-color:#368EC4"/>
			</linearGradient>
			<path style="fill:url(#SVGID_9_);" d="M61.669,61.425c0,0-11.143,1.32-20.174,11.596c0,0,3.975,3.997,9.333,3.071
				c5.358-0.925,9.05-4.674,16.215-4.674s9.333,5.483,13.481,4.674c4.148-0.809,7.165-6.842,8.862-6.842
				c1.697,0,0.643,6.222,2.066,6.222s3.201-6.589,5.086-6.589c0,0-5.55-4.441-14.694-9.438S61.669,61.425,61.669,61.425z"/>
			<linearGradient id="SVGID_10_" gradientUnits="userSpaceOnUse" x1="87.9806" y1="71.6144" x2="80.156" y2="68.3149">
				<stop  offset="0" style="stop-color:#003C5A"/>
				<stop  offset="1" style="stop-color:#003C5A;stop-opacity:0"/>
			</linearGradient>
			<path style="fill:url(#SVGID_10_);" d="M79.674,60.388l0.671,15.731c0.059-0.009,0.117-0.015,0.177-0.027
				c4.148-0.809,7.165-6.842,8.862-6.842C89.384,69.25,83.449,63.073,79.674,60.388z"/>
		</g>
		<polygon id="cheveux_arriere_froit_2_" style="fill:#2B160C;" points="62.844,22.73 70.224,19.732 72.675,8.938 60.679,10.753 
			61.221,18.837 		"/>
		<g id="cou_2_">
			<linearGradient id="SVGID_11_" gradientUnits="userSpaceOnUse" x1="68.0198" y1="18.6008" x2="69.5282" y2="31.5634">
				<stop  offset="4.528621e-07" style="stop-color:#FFD52D"/>
				<stop  offset="1" style="stop-color:#FF9A1A"/>
			</linearGradient>
			<path style="fill:url(#SVGID_11_);" d="M60.16,23.527c0,0,5.845-2.671,6.222-6.442l8.296,3.221l2.702,6.269l-0.754,4.714
				l-2.828,0.628l-10.621-3.08L60.16,23.527z"/>
			<linearGradient id="SVGID_12_" gradientUnits="userSpaceOnUse" x1="76.1347" y1="28.8913" x2="75.2234" y2="24.5233">
				<stop  offset="4.528621e-07" style="stop-color:#FFD52D;stop-opacity:0"/>
				<stop  offset="1" style="stop-color:#FF9A1A"/>
			</linearGradient>
			<path style="fill:url(#SVGID_12_);" d="M75.691,31.497l0.936-0.208l0.754-4.714l-2.157-5.004l-1.771-0.402
				C73.453,21.17,73.241,27.512,75.691,31.497z"/>
		</g>
		<g id="main_droite_2_">
			<linearGradient id="SVGID_13_" gradientUnits="userSpaceOnUse" x1="45.2362" y1="51.7641" x2="46.4617" y2="54.1681">
				<stop  offset="4.528621e-07" style="stop-color:#FFD52D"/>
				<stop  offset="1" style="stop-color:#FF9A1A"/>
			</linearGradient>
			<path style="fill:url(#SVGID_13_);" d="M45.03,51.29c0,0-0.342,0.189,0.212,1.508c0.335,0.797,0.966,2.38,0.966,2.38l1.202-0.66
				c0,0-1.555-3.04-1.744-3.229C45.477,51.102,45.206,51.114,45.03,51.29z"/>
			<linearGradient id="SVGID_14_" gradientUnits="userSpaceOnUse" x1="43.3703" y1="53.9425" x2="45.68" y2="55.1366">
				<stop  offset="4.528621e-07" style="stop-color:#FFD52D"/>
				<stop  offset="1" style="stop-color:#FF9A1A"/>
			</linearGradient>
			<path style="fill:url(#SVGID_14_);" d="M42.956,53.859c0,0,0.306-0.495,0.778-0.33c0.471,0.165,2.852,1.202,2.852,1.202
				l-0.825,1.32C45.76,56.051,42.956,54.566,42.956,53.859z"/>
			<linearGradient id="SVGID_15_" gradientUnits="userSpaceOnUse" x1="43.1914" y1="56.4796" x2="44.3436" y2="56.4796">
				<stop  offset="4.528621e-07" style="stop-color:#FFD52D"/>
				<stop  offset="1" style="stop-color:#FF9A1A"/>
			</linearGradient>
			<path style="fill:url(#SVGID_15_);" d="M43.191,56.617c0-0.236,0.707-0.825,1.249-0.707c0.542,0.118,1.909,0.346,1.909,0.346
				l-1.885,0.809C44.464,57.065,43.191,56.994,43.191,56.617z"/>
			<linearGradient id="SVGID_16_" gradientUnits="userSpaceOnUse" x1="46.7302" y1="53.4438" x2="48.4429" y2="56.979">
				<stop  offset="4.528621e-07" style="stop-color:#FFD52D"/>
				<stop  offset="1" style="stop-color:#FF9A1A"/>
			</linearGradient>
			<path style="fill:url(#SVGID_16_);" d="M48.588,52.917c0,0-2.039,1.072-2.616,1.65c-0.577,0.577-0.434,0.955-0.99,1.461
				c-0.514,0.469-2.027,1.438-2.027,1.909c0,0.471,0.518,0.519,1.061,0.189c0.542-0.33,1.367-1.32,1.885-1.108
				s2.239,0.636,2.97,0.259c0.731-0.377,4.03-2.239,4.03-3.394C52.901,52.728,48.588,52.917,48.588,52.917z"/>
			<path style="fill:#FF9A1A;" d="M51.524,53.068c0.492,2.289-2.127,3.596-2.535,3.727c-0.409,0.131-1.87-0.099-2.263-0.209
				c-0.393-0.11-0.691,0.22-1.188,0.441l-0.001,0.002c0.131-0.045,0.254-0.055,0.364-0.011c0.518,0.212,2.239,0.636,2.97,0.259
				c0.731-0.377,4.03-2.239,4.03-3.394C52.901,53.448,52.288,53.203,51.524,53.068z"/>
			<linearGradient id="SVGID_17_" gradientUnits="userSpaceOnUse" x1="49.5121" y1="55.7435" x2="50.0934" y2="54.298">
				<stop  offset="4.528621e-07" style="stop-color:#DE721E;stop-opacity:0"/>
				<stop  offset="1" style="stop-color:#DE721E"/>
			</linearGradient>
			<path style="fill:url(#SVGID_17_);" d="M48.588,52.917c0,0-0.359,0.189-0.818,0.45c-0.002,0.046-0.007,0.092-0.007,0.139
				c0,1.455,0.952,2.687,2.267,3.11c1.224-0.749,2.871-1.917,2.871-2.733C52.901,52.728,48.588,52.917,48.588,52.917z"/>
		</g>
		<g id="main_gauche_2_">
			<linearGradient id="SVGID_18_" gradientUnits="userSpaceOnUse" x1="92.7228" y1="10.26" x2="95.2256" y2="14.0374">
				<stop  offset="4.528621e-07" style="stop-color:#FFD52D"/>
				<stop  offset="1" style="stop-color:#FF9A1A"/>
			</linearGradient>
			<path style="fill:url(#SVGID_18_);" d="M89.007,13.911c0,0,1.129,0.996,1.383,1.838c0.257,0.853,0.944,1.624,1.051,3.326
				c0.065,1.034,1.651,0.587,1.384-1.047c-0.295-1.806-0.641-2.137,0.284-2.388c0.925-0.251,5.039-1.14,5.702-1.446
				c0.919-0.424,1.577-0.753,1.383-1.257c-0.195-0.504-0.534-0.452-1.526-0.143c-1.179,0.367-2.767,0.399-2.767,0.399
				c2.321-0.589,3.547-0.872,4.21-1.449c0.302-0.263,0.344-0.544,0.083-0.805c-0.236-0.236-0.631-0.121-1.4,0.151
				c-0.988,0.349-2.291,0.771-2.786,0.677c0,0,2.145-0.695,2.875-1.013c0.465-0.203,0.872-0.54,0.761-0.941
				c-0.111-0.4-0.489-0.211-1.121-0.008c-2.257,0.724-3.034,0.76-3.034,0.76s1.469-0.564,1.92-0.797
				c0.356-0.184,0.884-0.452,0.637-0.805c-0.182-0.26-0.483-0.306-1.237,0.047c-0.939,0.44-1.555,0.519-2.286,0.519
				c-0.731,0-1.601,0.047-3.016,0.236C90.091,9.951,88.677,11.46,89.007,13.911z"/>
			<linearGradient id="SVGID_19_" gradientUnits="userSpaceOnUse" x1="88.9585" y1="16.0824" x2="92.8442" y2="16.0824">
				<stop  offset="4.528621e-07" style="stop-color:#FF9A1A;stop-opacity:0"/>
				<stop  offset="1" style="stop-color:#DE721E"/>
			</linearGradient>
			<path style="fill:url(#SVGID_19_);" d="M92.844,18.581c-0.123,1.169-1.344,1.401-1.403,0.494
				c-0.107-1.703-0.794-2.474-1.052-3.326c-0.253-0.843-1.382-1.838-1.382-1.838c-0.068-0.5-0.062-0.96,0-1.376
				c0.52,0.569,1.216,1.376,1.403,1.812c0.305,0.718,0.756,1.733,1.097,2.747C91.847,18.106,92.065,19.358,92.844,18.581z"/>
			<linearGradient id="SVGID_20_" gradientUnits="userSpaceOnUse" x1="92.0712" y1="14.3676" x2="100.2283" y2="14.3676">
				<stop  offset="0" style="stop-color:#FF9A1A"/>
				<stop  offset="1" style="stop-color:#DE721E"/>
			</linearGradient>
			<path style="fill:url(#SVGID_20_);" d="M98.812,14.194c-0.662,0.305-4.776,1.194-5.702,1.446
				c-0.028,0.008-0.055,0.015-0.081,0.023c-0.643,0.168-0.958,0.134-0.958,0.134c0-0.017,0.011-0.466,1.131-0.707
				c1.143-0.247,3.971-0.86,4.583-1.143c0.613-0.283,2.142-0.441,2.408-1.011C100.39,13.44,99.732,13.769,98.812,14.194z"/>
			<linearGradient id="SVGID_21_" gradientUnits="userSpaceOnUse" x1="97.2187" y1="11.6994" x2="97.7702" y2="12.5317">
				<stop  offset="4.528621e-07" style="stop-color:#DE721E"/>
				<stop  offset="1" style="stop-color:#FF9A1A"/>
			</linearGradient>
			<path style="fill:url(#SVGID_21_);" d="M100.361,11.243c0.023,0.168-0.064,0.338-0.251,0.5c-0.662,0.577-1.887,0.86-4.21,1.45
				c0,0-0.579,0.081-1.239-0.153C94.662,13.04,99.059,12.05,100.361,11.243z"/>
			<linearGradient id="SVGID_22_" gradientUnits="userSpaceOnUse" x1="97.0672" y1="10.436" x2="97.5019" y2="11.0922">
				<stop  offset="4.528621e-07" style="stop-color:#DE721E"/>
				<stop  offset="1" style="stop-color:#FF9A1A"/>
			</linearGradient>
			<path style="fill:url(#SVGID_22_);" d="M99.66,9.987c-0.028,0.322-0.383,0.592-0.777,0.766c-0.709,0.309-2.745,0.969-2.872,1.011
				l-0.006,0.002c0,0-0.683-0.023-1.048-0.164C94.654,11.484,98.199,10.54,99.66,9.987z"/>
			<linearGradient id="SVGID_23_" gradientUnits="userSpaceOnUse" x1="96.1741" y1="9.5581" x2="96.4706" y2="10.0054">
				<stop  offset="4.528621e-07" style="stop-color:#DE721E"/>
				<stop  offset="1" style="stop-color:#FF9A1A"/>
			</linearGradient>
			<path style="fill:url(#SVGID_23_);" d="M97.409,9.767c-0.422,0.219-1.74,0.728-1.902,0.792l-0.017,0.006
				c0,0-0.762,0.124-0.979-0.094c0,0,2.647-0.82,3.473-1.584c0.023,0.023,0.043,0.047,0.062,0.075
				C98.293,9.314,97.765,9.582,97.409,9.767z"/>
			
				<radialGradient id="SVGID_24_" cx="89.0892" cy="13.9635" r="3.0756" gradientTransform="matrix(1 0 0 2.0317 0 -14.4081)" gradientUnits="userSpaceOnUse">
				<stop  offset="4.528621e-07" style="stop-color:#DE721E"/>
				<stop  offset="1" style="stop-color:#DE721E;stop-opacity:0"/>
			</radialGradient>
			<path style="fill:url(#SVGID_24_);" d="M92.213,14.789c0-2.028-0.651-3.794-1.614-4.714c-1.041,0.584-1.85,1.92-1.592,3.836
				c0,0,1.129,0.996,1.383,1.838c0.224,0.743,0.773,1.424,0.983,2.711C91.893,17.497,92.213,16.207,92.213,14.789z"/>
		</g>
		<g id="robe_2_">
			<linearGradient id="SVGID_25_" gradientUnits="userSpaceOnUse" x1="63.8644" y1="15.6474" x2="75.303" y2="47.1978">
				<stop  offset="0" style="stop-color:#005686"/>
				<stop  offset="0.8164" style="stop-color:#2C83B8"/>
				<stop  offset="1" style="stop-color:#368EC4"/>
			</linearGradient>
			<path style="fill:url(#SVGID_25_);" d="M61.669,61.425c0,0-0.471-3.771,1.226-6.693c1.697-2.922,5.468-8.673,4.148-11.219
				S61.48,35.688,60.16,32.86c0,0-6.784,2.466-9.074,3.96c-1.084,0.707-2.71,1.791-2.71,1.791s4.949,14.848,4.525,15.272
				s-3.771,2.168-4.996-0.754c-1.226-2.922-5.279-12.067-5.279-15.272c0,0,2.074-3.96,6.41-6.411s5.845-5.656,8.484-6.788
				s2.64-1.131,2.64-1.131s12.35,4.337,14.046,6.034c1.697,1.697,2.074-0.943,2.074-2.074s-1.461-4.949-2.828-6.316l0.377-6.034
				c0,0,1.933-2.875,3.394-4.337c1.461-1.461,5.626-8.063,6.849-9.286c1.139-1.139,3.427-1.461,3.427-1.461s3.111,5.845,3.111,7.165
				s0.897,2.545,0.897,2.545s-2.499,1.885-2.499,4.148c0,0-3.017-3.488-3.582-5.656c0,0-2.734,5.751-4.148,7.165
				c-1.414,1.414-2.922,6.788-2.922,7.448c0,0.467,2.706,3.958,3.865,6.493c0.478,1.046,0.118,3.82-1.354,5.292
				c-0.263,0.263-0.312,0.987-0.312,1.885c0,1.917-0.031,8.202-0.031,9.804c0,1.603-1.226,6.316-0.566,8.296
				c0.66,1.98,1.885,4.808,1.885,4.808L61.669,61.425z"/>
			<path style="fill:#005686;" d="M48.378,38.613c0.072,0.221,4.944,14.85,4.523,15.27c-0.132,0.132-0.551,0.394-1.101,0.601
				c-0.485-2.591-1.374-6.75-2.702-10.689c-1.567-4.657-3.134-5.526-3.56-5.658c0.013,0.002,0.026,0.002,0.041,0.002
				c0.754,0,2.796,0.471,2.796,0.471L48.378,38.613z"/>
			<linearGradient id="SVGID_26_" gradientUnits="userSpaceOnUse" x1="67.8782" y1="35.1225" x2="67.8782" y2="49.1778">
				<stop  offset="0" style="stop-color:#005686"/>
				<stop  offset="0.0938" style="stop-color:#085E8F"/>
				<stop  offset="0.4576" style="stop-color:#2178AC"/>
				<stop  offset="0.7723" style="stop-color:#3088BE"/>
				<stop  offset="1" style="stop-color:#368EC4"/>
			</linearGradient>
			<path style="fill:url(#SVGID_26_);" d="M69.836,47.284c-1.833,0.76-3.29,1.842-4.436,3.098c1.357-2.57,2.447-5.315,1.642-6.869
				c-1.32-2.545-5.562-7.825-6.882-10.653c2.781,0.236,5.168,0.562,6.001,2.042c0.62,1.099,2.389,4.148,5.562,3.677
				c3.175-0.471,3.803-2.198,3.803-2.198S76.654,44.456,69.836,47.284z"/>
			<linearGradient id="SVGID_27_" gradientUnits="userSpaceOnUse" x1="82.1932" y1="50.6137" x2="77.1025" y2="47.8326">
				<stop  offset="0" style="stop-color:#005686"/>
				<stop  offset="1" style="stop-color:#005686;stop-opacity:0"/>
			</linearGradient>
			<path style="fill:url(#SVGID_27_);" d="M81.841,59.443l-6.314-3.266c0,0-1.099-2.515-1.446-4.484
				c-0.345-1.97,1.037-3.844,1.791-5.164c0.754-1.32,1.101-4.337,1.101-4.337c1.003-1.876,2.317-2.117,3.569-1.688
				c-0.008,2.338-0.019,4.895-0.019,5.836c0,1.603-1.226,6.316-0.566,8.296C80.608,56.587,81.805,59.357,81.841,59.443z"/>
			<path style="fill:#005686;" d="M85.425,8.254c0,0-2.734,5.751-4.148,7.165c-1.414,1.414-2.922,6.788-2.922,7.448
				c0,0-1.555-2.781-0.518-5.326s4.666-6.081,5.515-8.108c0.809-1.933,2.046-4.851,2.161-5.117
				C85.459,4.566,84.92,7.01,85.425,8.254z"/>
		</g>
		<path id="cheveux_arriere_gauche_2_" style="fill:#2B160C;" d="M73.448,23.692c0.476-0.825,0.476-2.713-0.655-3.607
			s0.655-7.305,0.655-7.305l1.966-0.723l2.065,3.261l-0.288,3.686l-1.508,3.171C75.684,22.176,75.14,23.197,73.448,23.692z"/>
		<g id="tete_2_">
			<path style="fill:#FF9A1A;" d="M63.633,13.32c0,0-0.202-0.851-0.558-1.091c-0.329-0.03-0.512,0.356-0.607,1.386
				c-0.187,2.041,0.717,3.791,1.094,3.826c0.549,0.05,0.855,0.079,0.855,0.079L63.633,13.32z"/>
			<path style="fill:#FF9A1A;" d="M75.286,14.452c0,0,0.353-0.8,0.747-0.971c0.329,0.03,0.439,0.443,0.344,1.473
				c-0.187,2.041-1.396,3.597-1.772,3.563c-0.549-0.05-0.855-0.079-0.855-0.079L75.286,14.452z"/>
			<linearGradient id="SVGID_28_" gradientUnits="userSpaceOnUse" x1="70.1451" y1="9.9419" x2="69.0452" y2="25.0885">
				<stop  offset="4.528621e-07" style="stop-color:#FFD52D"/>
				<stop  offset="1" style="stop-color:#FF9A1A"/>
			</linearGradient>
			<path style="fill:url(#SVGID_28_);" d="M70.721,4.003c-4.164-0.382-6.658,2.305-7.073,6.826
				c-0.385,4.196,0.135,6.933,0.443,8.102c0.108,0.409,0.278,0.798,0.506,1.156c0.693,1.088,3.65,3.663,5.321,3.817
				s3.313-1.806,4.018-2.922c0.227-0.358,0.404-0.71,0.585-1.092c0.516-1.094,1.526-3.689,1.912-7.886
				C76.847,7.483,74.885,4.386,70.721,4.003z"/>
			<path style="fill:#FF9A1A;" d="M70.356,18.602c-0.471-0.043-0.78-0.014-1.207,0.111c-0.03,0.325,0.601,0.656,1.132,0.705
				c0.531,0.049,1.212-0.162,1.242-0.487C71.13,18.733,70.828,18.645,70.356,18.602z"/>
			<g>
				<g>
					<linearGradient id="SVGID_29_" gradientUnits="userSpaceOnUse" x1="66.781" y1="21.0719" x2="72.9559" y2="21.4141">
						<stop  offset="4.528621e-07" style="stop-color:#FF7149"/>
						<stop  offset="1" style="stop-color:#FC4A3A"/>
					</linearGradient>
					<path style="fill:url(#SVGID_29_);" d="M67.401,20.084c1.058,0.085,1.832,0.247,2.562,0.287l1.18,0.072
						c0.422,0.017,0.885,0.102,1.42,0.211c-0.235,0.639-0.66,1.037-1.139,1.295c-0.484,0.26-1.041,0.377-1.634,0.306
						c-0.595-0.076-1.138-0.305-1.555-0.681C67.82,21.205,67.487,20.731,67.401,20.084z"/>
				</g>
				<g>
					<linearGradient id="SVGID_30_" gradientUnits="userSpaceOnUse" x1="67.0439" y1="20.8043" x2="72.7899" y2="21.1228">
						<stop  offset="0" style="stop-color:#F4F5F6"/>
						<stop  offset="1" style="stop-color:#FFFFFF"/>
					</linearGradient>
					<path style="fill:url(#SVGID_30_);" d="M67.401,20.084c0.469,0.135,0.894,0.265,1.313,0.369
						c0.424,0.081,0.816,0.21,1.223,0.203c0.402,0.026,0.82,0.023,1.253,0.022c0.218,0.007,0.44-0.001,0.663-0.019l0.71-0.005
						c-0.657,0.808-1.692,1.138-2.72,1.043c-0.523-0.061-1.024-0.226-1.436-0.521C67.989,20.898,67.621,20.55,67.401,20.084z"/>
				</g>
			</g>
			<g>
				
					<use xlink:href="#Person_Woman_Eye_Closed"  width="17.375" height="14.575" x="-8.688" y="-7.287" transform="matrix(0.1842 0.0403 0.0403 -0.1842 67.7246 15.4065)" style="overflow:visible;"/>
				
					<use xlink:href="#Person_Woman_Eye_Closed"  width="17.375" height="14.575" x="-8.688" y="-7.287" transform="matrix(-0.1882 0.0112 -0.0112 -0.1882 73.3072 15.673)" style="overflow:visible;"/>
			</g>
			<linearGradient id="SVGID_31_" gradientUnits="userSpaceOnUse" x1="70.0085" y1="11.0298" x2="69.9456" y2="18.9174">
				<stop  offset="4.528621e-07" style="stop-color:#FF9A1A"/>
				<stop  offset="1" style="stop-color:#FF9A1A;stop-opacity:0"/>
			</linearGradient>
			<path style="fill:url(#SVGID_31_);" d="M74.557,5.596L64.173,8.263c-0.262,0.77-0.439,1.628-0.525,2.566
				c-0.33,3.598,0.005,6.12,0.302,7.503c0.272-1.718,0.956-4.139,3.116-4.265c4.046-0.235,5.609-2.703,5.609-2.703
				c0.434,2.116,0.72,2.712,2.405,4.041c0.227,0.179,0.409,0.976,0.564,1.256c0.321-1.242,0.616-2.792,0.788-4.66
				C76.686,9.234,76.047,7,74.557,5.596z"/>
		</g>
		<g id="cheveux_2_">
			<linearGradient id="SVGID_32_" gradientUnits="userSpaceOnUse" x1="78.488" y1="8.53" x2="73.3658" y2="13.8408">
				<stop  offset="4.528621e-07" style="stop-color:#89542E"/>
				<stop  offset="1" style="stop-color:#582D24"/>
			</linearGradient>
			<path style="fill:url(#SVGID_32_);" d="M71.968,7.217c0,2.38,1.416,5.167,3.629,7.381c2.213,2.213,1.075,8.104-2.149,9.094
				c0,0,3.681-0.301,4.742-6.172s-0.518-11.25-4.148-13.204C70.412,2.362,71.968,7.217,71.968,7.217z"/>
			<linearGradient id="SVGID_33_" gradientUnits="userSpaceOnUse" x1="72.3238" y1="8.9927" x2="62.9068" y2="19.327">
				<stop  offset="4.528621e-07" style="stop-color:#89542E"/>
				<stop  offset="1" style="stop-color:#582D24"/>
			</linearGradient>
			<path style="fill:url(#SVGID_33_);" d="M69.999,3.541c2.157,0,3.449,1.603,3.449,4.973s-3.241,3.637-5.681,4.587
				c-2.247,0.875-3.553,3.703-3.553,8.036c0,3.434,2.498,6.962,2.498,6.962s-6.929-6.033-6.929-13.226S64.4,3.541,69.999,3.541z"/>
		</g>
	</g>
</g>
<g id="Layer_1">
</g>
</svg>
