<?xml version="1.0" encoding="iso-8859-1"?>
<!-- Generator: Adobe Illustrator 24.1.2, SVG Export Plug-In . SVG Version: 6.00 Build 0)  -->
<svg version="1.1" xmlns="http://www.w3.org/2000/svg" xmlns:xlink="http://www.w3.org/1999/xlink" x="0px" y="0px"
	 viewBox="0 0 128 128" style="enable-background:new 0 0 128 128;" xml:space="preserve">
<g id="_x31_F4A1">
	<g id="_x31_F4A1_1_">
		<linearGradient id="SVGID_1_" gradientUnits="userSpaceOnUse" x1="64" y1="1.6513" x2="64" y2="79.5196">
			<stop  offset="0.1341" style="stop-color:#FFEE6F"/>
			<stop  offset="1" style="stop-color:#FFD52D"/>
		</linearGradient>
		<path style="fill:url(#SVGID_1_);" d="M64,0.053c25.292,0,45.68,20.586,45.68,45.681c0,15.956-8.017,29.277-19.577,37.459
			c-5.186,3.564-7.837,9.091-7.837,15.008v13H45.734v-13c0-5.903-2.64-11.437-7.837-15.008C26.264,75.088,18.32,61.841,18.32,45.734
			C18.32,20.441,38.906,0.053,64,0.053z"/>
		<linearGradient id="SVGID_2_" gradientUnits="userSpaceOnUse" x1="45.7342" y1="113.4853" x2="82.2658" y2="113.4853">
			<stop  offset="0" style="stop-color:#F4F5F6"/>
			<stop  offset="1" style="stop-color:#D1D4D4"/>
		</linearGradient>
		<path style="fill:url(#SVGID_2_);" d="M45.734,99.023h36.532v19.796l-6.006,6.006c-1.999,1.999-4.71,3.122-7.536,3.122h-9.447
			c-2.827,0-5.537-1.123-7.536-3.122l-6.006-6.006V99.023z"/>
		<linearGradient id="SVGID_3_" gradientUnits="userSpaceOnUse" x1="43.6027" y1="102.6692" x2="84.3973" y2="102.6692">
			<stop  offset="0" style="stop-color:#FFFFFF"/>
			<stop  offset="1" style="stop-color:#F4F5F6"/>
		</linearGradient>
		<polygon style="fill:url(#SVGID_3_);" points="84.397,102.654 43.603,106.315 45.734,102.685 82.266,99.023 		"/>
		
			<linearGradient id="SVGID_4_" gradientUnits="userSpaceOnUse" x1="6075.6025" y1="1386.0338" x2="6116.397" y2="1386.0338" gradientTransform="matrix(-1 0 0 -1 6160 1492.3334)">
			<stop  offset="0" style="stop-color:#77797C"/>
			<stop  offset="1" style="stop-color:#D1D4D4"/>
		</linearGradient>
		<polygon style="fill:url(#SVGID_4_);" points="43.603,106.315 84.397,102.654 82.266,106.284 45.734,109.945 		"/>
		<linearGradient id="SVGID_5_" gradientUnits="userSpaceOnUse" x1="43.6027" y1="111.5433" x2="84.3973" y2="111.5433">
			<stop  offset="0" style="stop-color:#FFFFFF"/>
			<stop  offset="1" style="stop-color:#F4F5F6"/>
		</linearGradient>
		<polygon style="fill:url(#SVGID_5_);" points="84.397,111.528 43.603,115.189 45.734,111.559 82.266,107.897 		"/>
		
			<linearGradient id="SVGID_6_" gradientUnits="userSpaceOnUse" x1="6075.6025" y1="1377.1598" x2="6116.397" y2="1377.1598" gradientTransform="matrix(-1 0 0 -1 6160 1492.3334)">
			<stop  offset="0" style="stop-color:#77797C"/>
			<stop  offset="1" style="stop-color:#D1D4D4"/>
		</linearGradient>
		<polygon style="fill:url(#SVGID_6_);" points="43.603,115.189 84.397,111.528 82.266,115.158 45.734,118.819 		"/>
		<linearGradient id="SVGID_7_" gradientUnits="userSpaceOnUse" x1="45.7343" y1="123.3834" x2="82.2658" y2="123.3834">
			<stop  offset="0" style="stop-color:#77797C"/>
			<stop  offset="1" style="stop-color:#3D3D3D"/>
		</linearGradient>
		<path style="fill:url(#SVGID_7_);" d="M59.277,127.947h9.447c2.827,0,5.537-1.123,7.536-3.122l6.006-6.006H45.734l6.006,6.006
			C53.739,126.824,56.45,127.947,59.277,127.947z"/>
	</g>
</g>
<g id="Layer_1">
</g>
</svg>
