<?xml version="1.0" encoding="iso-8859-1"?>
<!-- Generator: Adobe Illustrator 24.1.2, SVG Export Plug-In . SVG Version: 6.00 Build 0)  -->
<svg version="1.1" xmlns="http://www.w3.org/2000/svg" xmlns:xlink="http://www.w3.org/1999/xlink" x="0px" y="0px"
	 viewBox="0 0 128 128" style="enable-background:new 0 0 128 128;" xml:space="preserve">
<g id="_x31_F4AA">
	<g id="_x31_F4AA_1_">
		<linearGradient id="SVGID_1_" gradientUnits="userSpaceOnUse" x1="64" y1="-0.1431" x2="64" y2="124.5867">
			<stop  offset="4.528621e-07" style="stop-color:#FFD52D"/>
			<stop  offset="1" style="stop-color:#FF9A1A"/>
		</linearGradient>
		<path style="fill:url(#SVGID_1_);" d="M115.731,63.827c-7.459,0-15.747,5.952-19.364,10.323c0,0-7.082-10.097-23.131-10.097
			c-8.784,0-16.39,4.336-22.184,9.557c0-0.002,0.001-0.004,0.001-0.006c0.753-5.576,0.031-14.072-2.229-25.675
			c-1.167-5.991,3.541-16.426,5.425-19.063c0,0,4.716,2.375,8.288,2.939c4.302,0.678,7.233-0.829,7.233-0.829
			s3.31,4.679,4.892,5.432c1.582,0.753,4.149,1.048,5.053-0.685c0.904-1.733,1.206-2.713,1.206-2.713s3.541,2.185,4.973,2.185
			s2.486-0.98,2.863-2.11c0,0,4.822,0.678,5.35-2.788c0,0,3.993,1.206,3.993-2.11c0.979-12.282-0.36-17.011-0.603-17.255
			c-1.432-1.432-11.603-8.062-13.261-8.59s-2.034-1.658-4.521-2.185C77.23-0.369,63.307,1.111,55.38,3.85
			c-4.424,1.529-5.902,2.537-5.902,2.537C32.399,23.466,11.704,65.66,8.088,97.808c-0.539,4.792,2.838,6.781,5.852,8.514
			s8.665,2.863,11.754,4.445c3.089,1.582,19.816,11.227,37.145,11.227s34.433-4.445,37.145-4.445
			c2.712,0,15.747,10.398,15.747,10.398S125.267,92.421,115.731,63.827z"/>
		
			<radialGradient id="SVGID_2_" cx="70.927" cy="29.2068" r="23.4611" gradientTransform="matrix(1 0 0 0.7306 0 7.8652)" gradientUnits="userSpaceOnUse">
			<stop  offset="4.528621e-07" style="stop-color:#FF9A1A"/>
			<stop  offset="1" style="stop-color:#DE721E;stop-opacity:0"/>
		</radialGradient>
		<path style="fill:url(#SVGID_2_);" d="M69.771,30.975c0,0,3.31,4.679,4.892,5.432c1.582,0.753,4.149,1.048,5.053-0.685
			c0.904-1.733,1.206-2.713,1.206-2.713s3.541,2.185,4.973,2.185s2.486-0.98,2.863-2.11c0,0,4.822,0.678,5.35-2.788
			c0,0,3.993,1.206,3.993-2.11c0.739-9.266,0.158-14.229-0.276-16.214c-3.936,2.159-8.979,4.552-14.392,6.173
			c-2.983,0.893-6.277,0.334-8.672-1.657c-0.818-0.68-1.722-1.299-2.692-1.855c-5.01-2.872-12.846-3.475-12.846-3.475
			s-7.082,2.26-7.082,6.028s0.904,7.987,2.11,11.679c0,0,4.716,2.375,8.288,2.939C66.839,32.482,69.771,30.975,69.771,30.975z"/>
		<linearGradient id="SVGID_3_" gradientUnits="userSpaceOnUse" x1="72.0685" y1="100.8223" x2="72.0685" y2="114.9252">
			<stop  offset="4.528621e-07" style="stop-color:#DE721E"/>
			<stop  offset="1" style="stop-color:#FF9A1A;stop-opacity:0"/>
		</linearGradient>
		<path style="fill:url(#SVGID_3_);" d="M45.961,96.603c0,0,11.528,9.418,27.2,9.418s25.015-5.877,25.015-5.877
			s0.452,17.179-25.165,17.179C45.434,117.323,45.961,96.603,45.961,96.603z"/>
		<linearGradient id="SVGID_4_" gradientUnits="userSpaceOnUse" x1="46.4019" y1="80.7246" x2="44.5182" y2="65.7305">
			<stop  offset="4.528621e-07" style="stop-color:#FF9A1A"/>
			<stop  offset="1" style="stop-color:#FF9A1A;stop-opacity:0"/>
		</linearGradient>
		<path style="fill:url(#SVGID_4_);" d="M51.153,64.119c0.364,5.144-2.596,6.648-6.171,11.537
			c-3.692,5.048-4.521,12.206-4.521,12.206s3.82-7.482,10.591-14.252c0-0.002,0.001-0.004,0.001-0.006
			C51.397,71.059,51.43,67.898,51.153,64.119z"/>
		<g>
			
				<radialGradient id="SVGID_5_" cx="73.6132" cy="76.7874" r="10.8508" fx="67.9861" fy="76.7692" gradientTransform="matrix(0.0055 1 -1.6999 0.0094 203.736 2.4539)" gradientUnits="userSpaceOnUse">
				<stop  offset="4.528621e-07" style="stop-color:#FFD52D"/>
				<stop  offset="1" style="stop-color:#FFD52D;stop-opacity:0"/>
			</radialGradient>
			<ellipse style="fill:url(#SVGID_5_);" cx="73.613" cy="76.787" rx="19.062" ry="11.076"/>
			
				<radialGradient id="SVGID_6_" cx="6830.3379" cy="563.9016" r="6.7275" fx="6828.373" fy="563.8952" gradientTransform="matrix(-0.0067 -0.7449 5.508 -0.0186 -2986.5652 5195.0225)" gradientUnits="userSpaceOnUse">
				<stop  offset="4.528621e-07" style="stop-color:#FF9A1A"/>
				<stop  offset="1" style="stop-color:#FF9A1A;stop-opacity:0"/>
			</radialGradient>
			<ellipse style="fill:url(#SVGID_6_);" cx="73.613" cy="96.603" rx="23.206" ry="8.251"/>
		</g>
		<linearGradient id="SVGID_7_" gradientUnits="userSpaceOnUse" x1="101.152" y1="86.0794" x2="101.152" y2="68.8802">
			<stop  offset="4.528621e-07" style="stop-color:#FF9A1A"/>
			<stop  offset="1" style="stop-color:#FF9A1A;stop-opacity:0"/>
		</linearGradient>
		<path style="fill:url(#SVGID_7_);" d="M96.368,74.149c0,0,6.63,6.405,9.569,14.693c0,0-1.469-12.513-5.147-18.887
			C98.99,71.359,97.462,72.826,96.368,74.149z"/>
		<g>
			<linearGradient id="SVGID_8_" gradientUnits="userSpaceOnUse" x1="95.9674" y1="23.9916" x2="99.5196" y2="24.8303">
				<stop  offset="4.528621e-07" style="stop-color:#DE721E"/>
				<stop  offset="0.3025" style="stop-color:#E3781D;stop-opacity:0.6975"/>
				<stop  offset="0.7187" style="stop-color:#F28A1C;stop-opacity:0.2813"/>
				<stop  offset="1" style="stop-color:#FF9A1A;stop-opacity:0"/>
			</linearGradient>
			<path style="fill:url(#SVGID_8_);" d="M95.953,25.513c-0.264-1.62-0.226-8.326-0.226-8.326l-1.319,13.185
				c0.923,0.202,3.692,0.58,3.692-2.184c0.06-0.757,0.112-1.484,0.155-2.184C98.148,27.556,96.217,27.132,95.953,25.513z"/>
			<linearGradient id="SVGID_9_" gradientUnits="userSpaceOnUse" x1="71.8152" y1="35.1905" x2="58.0268" y2="14.0935">
				<stop  offset="4.528621e-07" style="stop-color:#DE721E"/>
				<stop  offset="1" style="stop-color:#FF9A1A;stop-opacity:0"/>
			</linearGradient>
			<path style="fill:url(#SVGID_9_);" d="M71.843,30.512c-0.195-0.442,0.321-3.445,0.676-5.347c0.076,0.01,2.796,0.373,3.205,2.156
				c0.357,1.557-0.957,3.107-1.33,3.51c0.142-0.058,0.474-0.119,1.255-0.119c0.741,0,1.225,0.438,1.528,0.883
				c-0.19-0.453-0.429-1.072-0.699-1.9c-0.621-1.906,1.413-3.522,2.298-4.408c-4.118-0.097-5.46-3.272-5.846-4.627
				c-0.035-0.207-0.081-0.412-0.144-0.609c0,0-2.26,7.572-9.494,7.572c-7.233,0-9.833-4.144-10.36-8.213
				c-0.527,4.785,1.319,9.456,1.319,9.456s4.716,2.375,8.288,2.939c4.302,0.678,7.233-0.829,7.233-0.829s3.31,4.679,4.892,5.432
				c1.582,0.753,4.149,1.048,5.053-0.685c0.27-0.517,0.48-0.958,0.65-1.335c-0.555,0.573-1.429,1.335-2.157,1.335
				C75.459,35.722,72.731,32.524,71.843,30.512z"/>
			<linearGradient id="SVGID_10_" gradientUnits="userSpaceOnUse" x1="90.2892" y1="25.133" x2="93.9058" y2="25.5098">
				<stop  offset="4.528621e-07" style="stop-color:#DE721E"/>
				<stop  offset="0.3037" style="stop-color:#E3791D;stop-opacity:0.6963"/>
				<stop  offset="0.7283" style="stop-color:#F28B1C;stop-opacity:0.2717"/>
				<stop  offset="1" style="stop-color:#FF9A1A;stop-opacity:0"/>
			</linearGradient>
			<path style="fill:url(#SVGID_10_);" d="M91.169,30.749c-0.49-1.017,0.716-13.563,0.716-13.563l-2.968,15.916
				c0.76,0.074,4.2,0.268,5.048-2.218C93.19,31.122,91.541,31.522,91.169,30.749z"/>
			<linearGradient id="SVGID_11_" gradientUnits="userSpaceOnUse" x1="82.9429" y1="26.863" x2="89.1967" y2="28.8974">
				<stop  offset="4.528621e-07" style="stop-color:#DE721E"/>
				<stop  offset="0.3002" style="stop-color:#E2771D;stop-opacity:0.6998"/>
				<stop  offset="0.6737" style="stop-color:#EF871C;stop-opacity:0.3263"/>
				<stop  offset="1" style="stop-color:#FF9A1A;stop-opacity:0"/>
			</linearGradient>
			<path style="fill:url(#SVGID_11_);" d="M84.086,33.01c-0.301-1.017,0.753-2.336,0.753-2.336s-1.62-4.408-0.377-9.757
				c1.102-4.743-2.532,9.015-3.37,12.197c0.72,0.431,3.557,2.082,4.802,2.082c1.044,0,1.884-0.523,2.41-1.244
				C87.182,33.938,84.328,33.825,84.086,33.01z"/>
		</g>
		<path style="fill:#FF9A1A;" d="M74.291,30.938c0,0,0.041-0.042,0.102-0.107C74.26,30.885,74.291,30.938,74.291,30.938z"/>
		<g style="opacity:0.5;">
			
				<radialGradient id="SVGID_12_" cx="131.8991" cy="-426.2013" r="3.7682" gradientTransform="matrix(0.9928 -0.1201 0.053 0.4381 -27.9933 220.3633)" gradientUnits="userSpaceOnUse">
				<stop  offset="4.528621e-07" style="stop-color:#FF7149"/>
				<stop  offset="1" style="stop-color:#FF7149;stop-opacity:0"/>
			</radialGradient>
			<path style="fill:url(#SVGID_12_);" d="M84.181,17.336c0.115,0.95-1.5,1.927-3.607,2.182c-2.107,0.255-3.908-0.309-4.023-1.259
				c-0.115-0.95,1.5-1.927,3.607-2.182C82.265,15.822,84.067,16.385,84.181,17.336z"/>
			
				<radialGradient id="SVGID_13_" cx="218.0411" cy="-769.6625" r="3.7682" gradientTransform="matrix(0.9769 -0.2136 0.0942 0.4311 -52.809 394.9082)" gradientUnits="userSpaceOnUse">
				<stop  offset="4.528621e-07" style="stop-color:#FF7149"/>
				<stop  offset="1" style="stop-color:#FF7149;stop-opacity:0"/>
			</radialGradient>
			<path style="fill:url(#SVGID_13_);" d="M91.421,15.695c0.204,0.935-1.311,2.06-3.384,2.514c-2.073,0.453-3.92,0.063-4.124-0.872
				c-0.204-0.935,1.311-2.06,3.384-2.514S91.217,14.76,91.421,15.695z"/>
			
				<radialGradient id="SVGID_14_" cx="-798.4462" cy="-1593.2062" r="3.7682" gradientTransform="matrix(0.6316 -0.3096 0.1942 0.3963 906.4608 398.7733)" gradientUnits="userSpaceOnUse">
				<stop  offset="4.528621e-07" style="stop-color:#FF7149"/>
				<stop  offset="1" style="stop-color:#FF7149;stop-opacity:0"/>
			</radialGradient>
			<path style="fill:url(#SVGID_14_);" d="M95.116,13.445c0.421,0.859-0.324,2.089-1.664,2.746c-1.34,0.657-2.769,0.493-3.19-0.366
				c-0.421-0.859,0.324-2.089,1.664-2.746C93.266,12.421,94.694,12.585,95.116,13.445z"/>
			
				<radialGradient id="SVGID_15_" cx="-1109.4662" cy="-2344.2295" r="3.7682" gradientTransform="matrix(0.4134 -0.3543 0.2872 0.3351 1228.1376 404.8367)" gradientUnits="userSpaceOnUse">
				<stop  offset="4.528621e-07" style="stop-color:#FF7149"/>
				<stop  offset="1" style="stop-color:#FF7149;stop-opacity:0"/>
			</radialGradient>
			<path style="fill:url(#SVGID_15_);" d="M97.92,10.975c0.623,0.727,0.416,1.925-0.461,2.677c-0.877,0.752-2.093,0.772-2.716,0.045
				c-0.623-0.727-0.417-1.925,0.461-2.677C96.082,10.268,97.298,10.248,97.92,10.975z"/>
		</g>
	</g>
</g>
<g id="Layer_1">
</g>
</svg>
