<?xml version="1.0" encoding="iso-8859-1"?>
<!-- Generator: Adobe Illustrator 24.1.2, SVG Export Plug-In . SVG Version: 6.00 Build 0)  -->
<svg version="1.1" xmlns="http://www.w3.org/2000/svg" xmlns:xlink="http://www.w3.org/1999/xlink" x="0px" y="0px"
	 viewBox="0 0 128 128" style="enable-background:new 0 0 128 128;" xml:space="preserve">
<g id="_x31_F5E3">
	<g id="_x31_F5E3_1_">
		<linearGradient id="SVGID_1_" gradientUnits="userSpaceOnUse" x1="52.6645" y1="0.0526" x2="52.6645" y2="124.7571">
			<stop  offset="0" style="stop-color:#005686"/>
			<stop  offset="1" style="stop-color:#003C5A"/>
		</linearGradient>
		<path style="fill:url(#SVGID_1_);" d="M94.177,94.095c1.107,0.461,1.672,1.759,1.151,2.839c-0.126,0.261-0.223,0.519-0.287,0.758
			c-3.107,11.524-5.919,10.664-13.53,9.277c-3.732-0.68-8.096-1.758-11.676-3.179c0,4.273,0.426,16.463,0.873,24.158H14.631
			c0.269-11.378,0.477-24.76,0.477-32.587c0-11.218-15.053-29.599-15.053-49.285c0-27.126,22.338-46.023,49.48-46.023
			c28.795,0,46.804,19.315,48.79,41.492c1.091,12.188,6.95,23.037,6.95,26.25c0,2.359-1.027,4.936-9.302,6.775
			c0,1.998,0.247,3.874,0.591,5.602c0.215,1.079-0.401,2.147-1.451,2.474l-16.281,5.069L94.177,94.095z"/>
		<linearGradient id="SVGID_2_" gradientUnits="userSpaceOnUse" x1="76.7962" y1="43.0839" x2="76.7962" y2="53.8783">
			<stop  offset="0" style="stop-color:#003C5A"/>
			<stop  offset="1" style="stop-color:#005686"/>
		</linearGradient>
		<circle style="fill:url(#SVGID_2_);" cx="76.796" cy="49.742" r="6.525"/>
		<g>
			
				<linearGradient id="SVGID_3_" gradientUnits="userSpaceOnUse" x1="6620.4507" y1="1037.5154" x2="6645.0527" y2="1037.5154" gradientTransform="matrix(-1 0 0 -1 6748.4595 1124.9691)">
				<stop  offset="4.528621e-07" style="stop-color:#368EC4"/>
				<stop  offset="0.1171" style="stop-color:#519CCB"/>
				<stop  offset="0.4295" style="stop-color:#95C0DB"/>
				<stop  offset="0.6913" style="stop-color:#C7DBE7"/>
				<stop  offset="0.8891" style="stop-color:#E6EBEE"/>
				<stop  offset="1" style="stop-color:#F1F1F1"/>
			</linearGradient>
			<polygon style="fill:url(#SVGID_3_);" points="101.331,87.454 127.946,93.837 127.946,81.07 			"/>
			
				<linearGradient id="SVGID_4_" gradientUnits="userSpaceOnUse" x1="5901.457" y1="2590.8545" x2="5926.0591" y2="2590.8545" gradientTransform="matrix(-0.8912 0.4536 -0.4536 -0.8912 6558.7803 -296.2592)">
				<stop  offset="4.528621e-07" style="stop-color:#368EC4"/>
				<stop  offset="0.1171" style="stop-color:#519CCB"/>
				<stop  offset="0.4295" style="stop-color:#95C0DB"/>
				<stop  offset="0.6913" style="stop-color:#C7DBE7"/>
				<stop  offset="0.8891" style="stop-color:#E6EBEE"/>
				<stop  offset="1" style="stop-color:#F1F1F1"/>
			</linearGradient>
			<polygon style="fill:url(#SVGID_4_);" points="100.375,83.631 126.99,77.248 121.2,65.87 			"/>
			
				<linearGradient id="SVGID_5_" gradientUnits="userSpaceOnUse" x1="6556.7344" y1="-672.9833" x2="6581.3364" y2="-672.9833" gradientTransform="matrix(-0.8912 -0.4536 0.4536 -0.8912 6272.8604 2477.6233)">
				<stop  offset="4.528621e-07" style="stop-color:#368EC4"/>
				<stop  offset="0.1171" style="stop-color:#519CCB"/>
				<stop  offset="0.4295" style="stop-color:#95C0DB"/>
				<stop  offset="0.6913" style="stop-color:#C7DBE7"/>
				<stop  offset="0.8891" style="stop-color:#E6EBEE"/>
				<stop  offset="1" style="stop-color:#F1F1F1"/>
			</linearGradient>
			<polygon style="fill:url(#SVGID_5_);" points="100.375,91.276 121.2,109.037 126.99,97.66 			"/>
		</g>
	</g>
</g>
<g id="Layer_1">
</g>
</svg>
