<?xml version="1.0" encoding="iso-8859-1"?>
<!-- Generator: Adobe Illustrator 24.1.2, SVG Export Plug-In . SVG Version: 6.00 Build 0)  -->
<svg version="1.1" xmlns="http://www.w3.org/2000/svg" xmlns:xlink="http://www.w3.org/1999/xlink" x="0px" y="0px"
	 viewBox="0 0 128 128" style="enable-background:new 0 0 128 128;" xml:space="preserve">
<symbol  id="Smiley_shape" viewBox="-57.587 -60 115.173 120">
	<linearGradient id="SVGID_1_" gradientUnits="userSpaceOnUse" x1="0" y1="-60" x2="7.347880e-15" y2="60">
		<stop  offset="0" style="stop-color:#FF9A1A"/>
		<stop  offset="1" style="stop-color:#FFD52D"/>
	</linearGradient>
	<path style="fill:url(#SVGID_1_);" d="M51.962,30C44.462,42.99,18,60,0,60s-44.462-17.01-51.962-30s-7.5-47.01,0-60S-18-60,0-60
		s44.462,17.01,51.962,30S59.462,17.01,51.962,30z"/>
</symbol>
<g id="_x31_F60E">
	<g id="_x31_F60E_1_">
		
			<use xlink:href="#Smiley_shape"  width="115.173" height="120" x="-57.587" y="-60" transform="matrix(1.0658 0 0 -1.0658 64 64)" style="overflow:visible;"/>
		<path style="fill:#DE721E;" d="M101.515,35.898c-21.037,0-31.104,3.807-37.515,3.807s-16.479-3.807-37.515-3.807
			c-12.547,0-22.142,8.426-22.142,8.426C4.511,45.82,5.743,56.872,5.999,59.24c1.327,12.297,5.434,19.785,23.491,19.785
			c8.014,0,17.531-0.451,22.539-8.415s7.162-15.678,7.513-17.832c0.351-2.154,1.653-4.157,4.458-4.157
			c2.805,0,4.107,2.004,4.458,4.157c0.351,2.154,2.504,9.867,7.513,17.832c5.009,7.964,14.525,8.415,22.539,8.415
			c18.056,0,22.164-7.488,23.491-19.785c0.255-2.363,1.463-13.961,1.632-15.456C123.633,43.784,114.062,35.898,101.515,35.898z"/>
		<g>
			<linearGradient id="SVGID_2_" gradientUnits="userSpaceOnUse" x1="64" y1="34.5403" x2="64" y2="77.3966">
				<stop  offset="0" style="stop-color:#005686"/>
				<stop  offset="1" style="stop-color:#003C5A"/>
			</linearGradient>
			<path style="fill:url(#SVGID_2_);" d="M123.65,35.988c0,0-9.633-2.202-22.168-2.202c-21.017,0-31.076,3.803-37.481,3.803
				s-16.464-3.803-37.481-3.803c-12.535,0-22.168,2.202-22.168,2.202l-1.801,0.37l0.05,8.238c0,0,1.677-0.075,2.002,0.751
				c0.156,0.395,0.335,1.422,1.451,11.76c1.326,12.286,5.43,19.767,23.47,19.767c8.007,0,17.515-0.45,22.519-8.407
				s7.156-15.663,7.506-17.815c0.35-2.152,1.651-4.154,4.454-4.154c2.802,0,4.103,2.002,4.454,4.154
				c0.35,2.152,2.502,9.858,7.506,17.815c5.004,7.957,14.512,8.407,22.519,8.407c18.04,0,22.143-7.481,23.47-19.767
				c1.116-10.338,1.296-11.365,1.451-11.76c0.325-0.826,2.052-0.55,2.052-0.55v-8.437L123.65,35.988z"/>
			<path style="fill:#2B201A;" d="M31.198,36.964c10.884,0,20.467,1.902,23.82,5.58c3.353,3.678,0.2,14.287-2.077,18.791
				c-2.277,4.504-5.705,13.562-23.344,13.562s-18.641-11.16-19.391-17.04s-1.126-15.839,3.002-18.316
				C16.381,37.637,20.214,36.964,31.198,36.964z"/>
			<path style="fill:#2B201A;" d="M96.802,36.964c-10.884,0-20.467,1.902-23.82,5.58c-3.353,3.678-0.2,14.287,2.077,18.791
				c2.277,4.504,5.705,13.562,23.344,13.562s18.641-11.16,19.391-17.04s1.126-15.839-3.002-18.316
				C111.619,37.637,107.786,36.964,96.802,36.964z"/>
			<path style="fill:#AF9D94;" d="M51.416,44.202c3.321,3.321,2.996,9.348-0.325,12.669c-3.321,3.321-8.753-0.557-12.074-3.878
				c-3.321-3.321-5.658-7.277-2.337-10.598C40.002,39.074,48.096,40.881,51.416,44.202z"/>
			<path style="fill:#AF9D94;" d="M113.733,42.839c3.321,3.321,2.996,9.348-0.325,12.669c-3.321,3.321-8.753-0.557-12.074-3.878
				c-3.321-3.321-5.658-7.277-2.337-10.598C102.319,37.711,110.412,39.518,113.733,42.839z"/>
		</g>
		<path style="fill:#2B201A;" d="M34.159,80.015C43.525,85.472,52.743,89.09,64,89.09c11.196-0.03,20.331-3.558,29.841-9.076
			C90.021,90.233,78.156,98.68,64.095,98.68c-0.032,0-0.064,0-0.095,0c-0.008,0-0.016,0-0.025,0
			C50.032,98.68,38.052,90.37,34.159,80.015z"/>
	</g>
</g>
<g id="Layer_1">
</g>
</svg>
