<?xml version="1.0" encoding="iso-8859-1"?>
<!-- Generator: Adobe Illustrator 24.1.2, SVG Export Plug-In . SVG Version: 6.00 Build 0)  -->
<svg version="1.1" xmlns="http://www.w3.org/2000/svg" xmlns:xlink="http://www.w3.org/1999/xlink" x="0px" y="0px"
	 viewBox="0 0 128 128" style="enable-background:new 0 0 128 128;" xml:space="preserve">
<symbol  id="Purple_smiley_shape" viewBox="-57.587 -60 115.173 120">
	<linearGradient id="SVGID_1_" gradientUnits="userSpaceOnUse" x1="0" y1="-60" x2="7.347880e-15" y2="60">
		<stop  offset="0" style="stop-color:#4C3C68"/>
		<stop  offset="1" style="stop-color:#917FB2"/>
	</linearGradient>
	<path style="fill:url(#SVGID_1_);" d="M51.962,30C44.462,42.99,18,60,0,60s-44.462-17.01-51.962-30s-7.5-47.01,0-60S-18-60,0-60
		s44.462,17.01,51.962,30S59.462,17.01,51.962,30z"/>
</symbol>
<g id="_x31_F608">
	<g id="_x31_F608_1_">
		
			<use xlink:href="#Purple_smiley_shape"  width="115.173" height="120" id="XMLID_18_" x="-57.587" y="-60" transform="matrix(1.0658 0 0 -1.0658 64 64)" style="overflow:visible;"/>
		<path style="fill:#3B2C68;" d="M34.159,89.302c0,0,12.917,15.832,29.841,15.832s29.841-15.832,29.841-15.832
			S87.874,111.383,64,111.383S34.159,89.302,34.159,89.302z"/>
		<path style="fill:#2B201A;" d="M34.159,89.302c9.366,5.458,18.584,9.076,29.841,9.076c11.196-0.03,20.331-3.558,29.841-9.076
			c-3.82,10.218-15.686,18.665-29.746,18.665c-0.032,0-0.064,0-0.095,0c-0.008,0-0.016,0-0.025,0
			C50.032,107.967,38.052,99.658,34.159,89.302z"/>
		<g>
			<g>
				<linearGradient id="SVGID_2_" gradientUnits="userSpaceOnUse" x1="54.067" y1="66.5988" x2="33.9376" y2="68.355">
					<stop  offset="0" style="stop-color:#3B2C68"/>
					<stop  offset="1" style="stop-color:#3B2C68;stop-opacity:0"/>
				</linearGradient>
				<path style="opacity:0.5;fill:url(#SVGID_2_);" d="M58.302,67.898c0,0-5.48,14.573-28.294,14.573c0,0-7.447-15.195-2.01-24.536
					l5.573-3.514l12.361,3.107C45.933,57.528,53.177,70.246,58.302,67.898z"/>
				<g>
					<path style="fill:#2B201A;" d="M40.555,75.51L40.555,75.51c-4.709,0-8.526-3.817-8.526-8.526v-8.526
						c0-1.634,0.46-3.162,1.257-4.459l15.795,7.791v5.194C49.081,71.692,45.264,75.51,40.555,75.51z"/>
					<circle style="fill:#AF9D94;" cx="43.752" cy="62.72" r="3.197"/>
				</g>
				<path style="fill:#2B201A;" d="M34.201,56.514c-1.967,0-4.047,0.4-6.203,1.421c1.074-3.299,4.795-6.274,10.487-6.274
					c3.265,0,6.321,1.269,8.53,3.353c2.876,2.69,4.06,5.92,5.344,8.243c1.763,3.245,3.692,3.624,5.926,4.575l0.016,0.066
					c-0.969,1.149-2.437,1.861-4.073,1.861c-2.46,0-4.349-1.564-5.984-3.392c-2.092-2.354-3.422-4.864-5.389-6.814
					C40.549,57.316,37.428,56.514,34.201,56.514z"/>
			</g>
			<g>
				
					<linearGradient id="SVGID_3_" gradientUnits="userSpaceOnUse" x1="3981.0237" y1="66.5988" x2="3960.8943" y2="68.355" gradientTransform="matrix(-1 0 0 1 4054.9565 0)">
					<stop  offset="0" style="stop-color:#3B2C68"/>
					<stop  offset="1" style="stop-color:#3B2C68;stop-opacity:0"/>
				</linearGradient>
				<path style="opacity:0.5;fill:url(#SVGID_3_);" d="M69.698,67.898c0,0,5.48,14.573,28.294,14.573c0,0,7.447-15.195,2.01-24.536
					l-5.573-3.514l-12.361,3.107C82.067,57.528,74.823,70.246,69.698,67.898z"/>
				<g>
					<path style="fill:#2B201A;" d="M87.445,75.51L87.445,75.51c4.709,0,8.526-3.817,8.526-8.526v-8.526
						c0-1.634-0.46-3.162-1.257-4.459L78.919,61.79v5.194C78.919,71.692,82.736,75.51,87.445,75.51z"/>
					<circle style="fill:#AF9D94;" cx="90.646" cy="62.72" r="3.197"/>
				</g>
				<path style="fill:#2B201A;" d="M93.799,56.514c1.967,0,4.047,0.4,6.203,1.421c-1.074-3.299-4.795-6.274-10.487-6.274
					c-3.265,0-6.321,1.269-8.53,3.353c-2.876,2.69-4.06,5.92-5.344,8.243c-1.763,3.245-3.692,3.624-5.926,4.575l-0.016,0.066
					c0.969,1.149,2.437,1.861,4.073,1.861c2.46,0,4.349-1.564,5.984-3.392c2.092-2.354,3.422-4.864,5.389-6.814
					C87.451,57.316,90.572,56.514,93.799,56.514z"/>
			</g>
		</g>
		<g>
			<linearGradient id="SVGID_4_" gradientUnits="userSpaceOnUse" x1="31.7582" y1="1.3211" x2="29.5966" y2="59.144">
				<stop  offset="4.528621e-07" style="stop-color:#917FB2"/>
				<stop  offset="1" style="stop-color:#4C3C68"/>
			</linearGradient>
			<path style="fill:url(#SVGID_4_);" d="M26.119,0.053c-3.346,0-7.466,7.536-7.466,12.805c0,4.055,0.507,10.808,4.087,16.178
				c0,0,3.85,4.289,13.206-1.148c8.342-5.37,8.241-8.478,7.498-9.457c-0.743-0.979-4.965-0.405-10.605-8.106
				C29.729,6.08,28.65,0.053,26.119,0.053z"/>
			
				<linearGradient id="SVGID_5_" gradientUnits="userSpaceOnUse" x1="3995.5046" y1="1.3211" x2="3993.343" y2="59.144" gradientTransform="matrix(-1 0 0 1 4091.7466 0)">
				<stop  offset="4.528621e-07" style="stop-color:#917FB2"/>
				<stop  offset="1" style="stop-color:#4C3C68"/>
			</linearGradient>
			<path style="fill:url(#SVGID_5_);" d="M101.881,0.053c3.346,0,7.466,7.536,7.466,12.805c0,4.055-0.507,10.808-4.087,16.178
				c0,0-3.85,4.289-13.206-1.148c-8.342-5.37-8.241-8.478-7.498-9.457c0.743-0.979,4.965-0.405,10.605-8.106
				C98.271,6.08,99.35,0.053,101.881,0.053z"/>
		</g>
	</g>
</g>
<g id="Layer_1">
</g>
</svg>
