<?xml version="1.0" encoding="iso-8859-1"?>
<!-- Generator: Adobe Illustrator 24.1.2, SVG Export Plug-In . SVG Version: 6.00 Build 0)  -->
<svg version="1.1" xmlns="http://www.w3.org/2000/svg" xmlns:xlink="http://www.w3.org/1999/xlink" x="0px" y="0px"
	 viewBox="0 0 128 128" style="enable-background:new 0 0 128 128;" xml:space="preserve">
<symbol  id="Smiley_shape" viewBox="-57.587 -60 115.173 120">
	<linearGradient id="SVGID_1_" gradientUnits="userSpaceOnUse" x1="0" y1="-60" x2="7.347880e-15" y2="60">
		<stop  offset="0" style="stop-color:#FF9A1A"/>
		<stop  offset="1" style="stop-color:#FFD52D"/>
	</linearGradient>
	<path style="fill:url(#SVGID_1_);" d="M51.962,30C44.462,42.99,18,60,0,60s-44.462-17.01-51.962-30s-7.5-47.01,0-60S-18-60,0-60
		s44.462,17.01,51.962,30S59.462,17.01,51.962,30z"/>
</symbol>
<symbol  id="smiling_eyes" viewBox="-40 -13.872 80 27.744">
	
		<radialGradient id="SVGID_2_" cx="21.662" cy="-14.0128" r="26.6035" gradientTransform="matrix(1 0 0 0.7512 0 -3.4858)" gradientUnits="userSpaceOnUse">
		<stop  offset="0.7445" style="stop-color:#FF7149;stop-opacity:0"/>
		<stop  offset="1" style="stop-color:#FF7149"/>
	</radialGradient>
	<path style="fill:url(#SVGID_2_);" d="M40-13.872H4c0,0,0.321,20,18,20S40-13.872,40-13.872z"/>
	
		<radialGradient id="SVGID_3_" cx="-22.338" cy="-14.0128" r="26.6035" gradientTransform="matrix(1 0 0 0.7512 0 -3.4858)" gradientUnits="userSpaceOnUse">
		<stop  offset="0.7445" style="stop-color:#FF7149;stop-opacity:0"/>
		<stop  offset="1" style="stop-color:#FF7149"/>
	</radialGradient>
	<path style="fill:url(#SVGID_3_);" d="M-4-13.872h-36c0,0,0.321,20,18,20S-4-13.872-4-13.872z"/>
	<path style="fill:#2B201A;" d="M-22,6.128c7.134,0,11.439-3.258,14.039-7.143C-7.945-0.746-7.92-0.48-7.92-0.208
		c0,7.776-4.08,14.08-14.08,14.08s-14.08-6.304-14.08-14.08c0-0.272,0.025-0.538,0.041-0.807C-33.439,2.87-29.134,6.128-22,6.128z"
		/>
	<path style="fill:#2B201A;" d="M22,6.128c7.134,0,11.439-3.258,14.039-7.143c0.015,0.269,0.041,0.534,0.041,0.807
		c0,7.776-4.08,14.08-14.08,14.08S7.92,7.568,7.92-0.208c0-0.272,0.025-0.538,0.041-0.807C10.561,2.87,14.866,6.128,22,6.128z"/>
</symbol>
<g id="_x31_F60A">
	<g id="_x31_F60A_1_">
		
			<use xlink:href="#Smiley_shape"  width="115.173" height="120" x="-57.587" y="-60" transform="matrix(1.0658 0 0 -1.0658 64 64)" style="overflow:visible;"/>
		
			<use xlink:href="#smiling_eyes"  width="80" height="27.744" x="-40" y="-13.872" transform="matrix(1.0658 0 0 -1.0658 64 53.4785)" style="overflow:visible;"/>
		<path style="fill:#2B201A;" d="M34.159,75.751c9.366,5.458,18.584,9.076,29.841,9.076c11.196-0.03,20.331-3.558,29.841-9.076
			c-3.82,10.218-15.686,18.665-29.746,18.665c-0.032,0-0.064,0-0.095,0c-0.008,0-0.016,0-0.025,0
			C50.032,94.417,38.052,86.107,34.159,75.751z"/>
	</g>
</g>
<g id="Layer_1">
</g>
</svg>
