<?xml version="1.0" encoding="iso-8859-1"?>
<!-- Generator: Adobe Illustrator 24.1.2, SVG Export Plug-In . SVG Version: 6.00 Build 0)  -->
<svg version="1.1" xmlns="http://www.w3.org/2000/svg" xmlns:xlink="http://www.w3.org/1999/xlink" x="0px" y="0px"
	 viewBox="0 0 128 128" style="enable-background:new 0 0 128 128;" xml:space="preserve">
<symbol  id="Smiley_shape" viewBox="-57.587 -60 115.173 120">
	<linearGradient id="SVGID_1_" gradientUnits="userSpaceOnUse" x1="0" y1="-60" x2="7.347880e-15" y2="60">
		<stop  offset="0" style="stop-color:#FF9A1A"/>
		<stop  offset="1" style="stop-color:#FFD52D"/>
	</linearGradient>
	<path style="fill:url(#SVGID_1_);" d="M51.962,30C44.462,42.99,18,60,0,60s-44.462-17.01-51.962-30s-7.5-47.01,0-60S-18-60,0-60
		s44.462,17.01,51.962,30S59.462,17.01,51.962,30z"/>
</symbol>
<symbol  id="smiling_eyes" viewBox="-40 -13.872 80 27.744">
	
		<radialGradient id="SVGID_2_" cx="21.662" cy="-14.0128" r="26.6035" gradientTransform="matrix(1 0 0 0.7512 0 -3.4858)" gradientUnits="userSpaceOnUse">
		<stop  offset="0.7445" style="stop-color:#FF7149;stop-opacity:0"/>
		<stop  offset="1" style="stop-color:#FF7149"/>
	</radialGradient>
	<path style="fill:url(#SVGID_2_);" d="M40-13.872H4c0,0,0.321,20,18,20S40-13.872,40-13.872z"/>
	
		<radialGradient id="SVGID_3_" cx="-22.338" cy="-14.0128" r="26.6035" gradientTransform="matrix(1 0 0 0.7512 0 -3.4858)" gradientUnits="userSpaceOnUse">
		<stop  offset="0.7445" style="stop-color:#FF7149;stop-opacity:0"/>
		<stop  offset="1" style="stop-color:#FF7149"/>
	</radialGradient>
	<path style="fill:url(#SVGID_3_);" d="M-4-13.872h-36c0,0,0.321,20,18,20S-4-13.872-4-13.872z"/>
	<path style="fill:#2B201A;" d="M-22,6.128c7.134,0,11.439-3.258,14.039-7.143C-7.945-0.746-7.92-0.48-7.92-0.208
		c0,7.776-4.08,14.08-14.08,14.08s-14.08-6.304-14.08-14.08c0-0.272,0.025-0.538,0.041-0.807C-33.439,2.87-29.134,6.128-22,6.128z"
		/>
	<path style="fill:#2B201A;" d="M22,6.128c7.134,0,11.439-3.258,14.039-7.143c0.015,0.269,0.041,0.534,0.041,0.807
		c0,7.776-4.08,14.08-14.08,14.08S7.92,7.568,7.92-0.208c0-0.272,0.025-0.538,0.041-0.807C10.561,2.87,14.866,6.128,22,6.128z"/>
</symbol>
<g id="_x31_F607">
	<g id="_x31_F607_1_">
		
			<use xlink:href="#Smiley_shape"  width="115.173" height="120" x="-57.587" y="-60" transform="matrix(1.0658 0 0 -1.0658 64 64)" style="overflow:visible;"/>
		
			<use xlink:href="#smiling_eyes"  width="80" height="27.744" x="-40" y="-13.872" transform="matrix(1.0658 0 0 -1.0658 64 55.6101)" style="overflow:visible;"/>
		<path style="fill:#2B201A;" d="M34.159,77.883c9.366,5.458,18.584,9.076,29.841,9.076c11.196-0.03,20.331-3.558,29.841-9.076
			c-3.82,10.218-15.686,18.665-29.746,18.665c-0.032,0-0.064,0-0.095,0c-0.008,0-0.016,0-0.025,0
			C50.032,96.548,38.052,88.239,34.159,77.883z"/>
		
			<radialGradient id="SVGID_4_" cx="64" cy="23.5172" r="48.0771" gradientTransform="matrix(1 0 0 0.2192 0 18.3604)" gradientUnits="userSpaceOnUse">
			<stop  offset="0" style="stop-color:#7AD4F8"/>
			<stop  offset="1" style="stop-color:#7AD4F8;stop-opacity:0"/>
		</radialGradient>
		<path style="opacity:0.8;fill:url(#SVGID_4_);" d="M120.532,34.323c-0.366-0.815-0.746-1.592-1.153-2.297
			c-3.612-6.256-11.354-13.382-20.521-19.319H29.143c-9.167,5.937-16.91,13.063-20.522,19.319c-0.407,0.705-0.788,1.482-1.153,2.297
			H120.532z"/>
		<linearGradient id="SVGID_5_" gradientUnits="userSpaceOnUse" x1="64.0016" y1="28.6038" x2="64.0016" y2="-1.7069">
			<stop  offset="0" style="stop-color:#45C2F8"/>
			<stop  offset="1" style="stop-color:#1D8BFF"/>
		</linearGradient>
		<path style="fill:url(#SVGID_5_);" d="M119.933,14.278c0,2.846-3.304,5.51-8.984,7.727c-9.965,3.911-27.273,6.501-46.947,6.501
			s-36.971-2.59-46.947-6.501c-5.68-2.217-8.984-4.881-8.984-7.727c0-7.791,24.555-14.1,55.025-14.218
			c-4.497,0.128-9.453,1.215-14.505,2.963c-19.94,1.29-34.36,4.998-34.36,9.379c0,1.961,2.878,3.794,7.844,5.329h0.01
			c8.846,2.728,24.31,4.54,41.917,4.54s33.081-1.812,41.927-4.54c4.966-1.535,7.855-3.368,7.855-5.329
			c0-4.38-14.42-8.089-34.382-9.379C74.35,1.265,69.405,0.188,64.908,0.06C95.388,0.177,119.933,6.487,119.933,14.278z"/>
	</g>
</g>
<g id="Layer_1">
</g>
</svg>
