<?xml version="1.0" encoding="iso-8859-1"?>
<!-- Generator: Adobe Illustrator 24.1.2, SVG Export Plug-In . SVG Version: 6.00 Build 0)  -->
<svg version="1.1" xmlns="http://www.w3.org/2000/svg" xmlns:xlink="http://www.w3.org/1999/xlink" x="0px" y="0px"
	 viewBox="0 0 128 128" style="enable-background:new 0 0 128 128;" xml:space="preserve">
<symbol  id="Smiley_shape" viewBox="-57.587 -60 115.173 120">
	<linearGradient id="SVGID_1_" gradientUnits="userSpaceOnUse" x1="0" y1="-60" x2="7.347880e-15" y2="60">
		<stop  offset="0" style="stop-color:#FF9A1A"/>
		<stop  offset="1" style="stop-color:#FFD52D"/>
	</linearGradient>
	<path style="fill:url(#SVGID_1_);" d="M51.962,30C44.462,42.99,18,60,0,60s-44.462-17.01-51.962-30s-7.5-47.01,0-60S-18-60,0-60
		s44.462,17.01,51.962,30S59.462,17.01,51.962,30z"/>
</symbol>
<g id="_x31_F609">
	<g id="_x31_F609_1_">
		
			<use xlink:href="#Smiley_shape"  width="115.173" height="120" x="-57.587" y="-60" transform="matrix(1.0658 0 0 -1.0658 64 64)" style="overflow:visible;"/>
		<g>
			<path style="fill:#2B201A;" d="M42.685,64L42.685,64c-4.709,0-8.526-3.817-8.526-8.526v-8.527c0-4.709,3.817-8.526,8.526-8.526h0
				c4.709,0,8.526,3.817,8.526,8.526v8.527C51.211,60.183,47.394,64,42.685,64z"/>
			<circle style="fill:#AF9D94;" cx="45.882" cy="43.75" r="3.197"/>
		</g>
		
			<radialGradient id="SVGID_2_" cx="88.3757" cy="71.2363" r="37.0383" gradientTransform="matrix(0.9968 0.0796 -0.0379 0.4743 2.9799 30.4075)" gradientUnits="userSpaceOnUse">
			<stop  offset="0.7445" style="stop-color:#FF7149;stop-opacity:0"/>
			<stop  offset="1" style="stop-color:#FF7149"/>
		</radialGradient>
		<path style="fill:url(#SVGID_2_);" d="M112.923,74.778l-50.841-2.252c0,0,6.743-19.05,25.585-19.05S112.923,74.778,112.923,74.778
			z"/>
		<path style="fill:#2B201A;" d="M104.502,60.773c-1.013-6.711-8.919-13.105-17.608-13.105c-2.135,0-4.255,0.473-6.215,1.352
			c1.526-3.279,3.444-6.519,13.465-11.124c-1.425-0.409-2.87-0.602-4.318-0.602c-10.135,0-17.953,8.62-17.953,18.49
			c0,1.008,0.089,2.023,0.277,3.04c1.554-1.003,7.17-5.347,15.515-5.347C94.459,53.476,99.565,56.138,104.502,60.773z"/>
		<path style="fill:#2B201A;" d="M38.239,84.006c6.263,2.995,13.902,4.7,21.81,4.7c14.209,0,29.285-5.506,38.804-18.931
			C96.42,88.374,81.56,98.68,64.095,98.68c-0.032,0-0.064,0-0.095,0c-0.008,0-0.016,0-0.025,0
			C52.784,98.68,41.526,91.977,38.239,84.006z"/>
	</g>
</g>
<g id="Layer_1">
</g>
</svg>
