<?xml version="1.0" encoding="iso-8859-1"?>
<!-- Generator: Adobe Illustrator 24.1.2, SVG Export Plug-In . SVG Version: 6.00 Build 0)  -->
<svg version="1.1" xmlns="http://www.w3.org/2000/svg" xmlns:xlink="http://www.w3.org/1999/xlink" x="0px" y="0px"
	 viewBox="0 0 128 128" style="enable-background:new 0 0 128 128;" xml:space="preserve">
<symbol  id="Smiley_shape" viewBox="-57.587 -60 115.173 120">
	<linearGradient id="SVGID_1_" gradientUnits="userSpaceOnUse" x1="0" y1="-60" x2="7.347880e-15" y2="60">
		<stop  offset="0" style="stop-color:#FF9A1A"/>
		<stop  offset="1" style="stop-color:#FFD52D"/>
	</linearGradient>
	<path style="fill:url(#SVGID_1_);" d="M51.962,30C44.462,42.99,18,60,0,60s-44.462-17.01-51.962-30s-7.5-47.01,0-60S-18-60,0-60
		s44.462,17.01,51.962,30S59.462,17.01,51.962,30z"/>
</symbol>
<g id="_x31_F61C">
	<g id="_x31_F61C_1_">
		
			<use xlink:href="#Smiley_shape"  width="115.173" height="120" x="-57.587" y="-60" transform="matrix(1.0658 0 0 -1.0658 64 63.997)" style="overflow:visible;"/>
		<g>
			<g>
				<path style="fill:#2B201A;" d="M42.685,63.997L42.685,63.997c-4.709,0-8.526-3.817-8.526-8.526v-8.527
					c0-4.709,3.817-8.526,8.526-8.526h0c4.709,0,8.526,3.817,8.526,8.526v8.527C51.211,60.18,47.394,63.997,42.685,63.997z"/>
				<circle style="fill:#AF9D94;" cx="45.882" cy="43.747" r="3.197"/>
			</g>
			<g>
				
					<radialGradient id="SVGID_2_" cx="88.3757" cy="71.2333" r="37.0383" gradientTransform="matrix(0.9968 0.0796 -0.0379 0.4743 2.9798 30.4059)" gradientUnits="userSpaceOnUse">
					<stop  offset="0.7445" style="stop-color:#FF7149;stop-opacity:0"/>
					<stop  offset="1" style="stop-color:#FF7149"/>
				</radialGradient>
				<path style="fill:url(#SVGID_2_);" d="M112.923,74.775l-50.841-2.252c0,0,6.743-19.05,25.585-19.05
					S112.923,74.775,112.923,74.775z"/>
				<path style="fill:#2B201A;" d="M104.502,60.77c-1.013-6.711-8.919-13.105-17.608-13.105c-2.135,0-4.255,0.473-6.215,1.352
					c1.526-3.279,3.444-6.519,13.465-11.124c-1.425-0.409-2.87-0.602-4.318-0.602c-10.135,0-17.953,8.62-17.953,18.49
					c0,1.008,0.089,2.023,0.277,3.04c1.554-1.003,7.17-5.347,15.515-5.347C94.459,53.473,99.565,56.135,104.502,60.77z"/>
			</g>
		</g>
		<g>
			<path style="fill:#DE721E;" d="M32.75,79.948l31.268,13.891l31.23-13.887c3.313-1.473,6.888,1.613,5.833,5.082
				C97.199,97.803,84.587,110.892,64,110.892c-20.589,0-33.201-13.091-37.082-25.861C25.864,81.562,29.437,78.477,32.75,79.948z"/>
			<path style="fill:#2B201A;" d="M100.594,85.31c1.454-4.213-2.259-8.424-6.61-7.46c-8.212,1.818-17.328,5.331-29.967,5.332
				c-12.603,0.001-21.723-3.493-29.927-5.316c-4.377-0.973-8.142,3.213-6.663,7.446l0.001,0.002
				C31.81,96.053,44.216,106.629,64,106.629c19.816,0,32.23-10.527,36.593-21.316L100.594,85.31z"/>
			
				<radialGradient id="SVGID_3_" cx="64.0041" cy="108.2066" r="43.9372" gradientTransform="matrix(1 0 0 0.4624 0 58.168)" gradientUnits="userSpaceOnUse">
				<stop  offset="0.2085" style="stop-color:#FC4A3A"/>
				<stop  offset="0.5179" style="stop-color:#FA4838"/>
				<stop  offset="0.672" style="stop-color:#F54032"/>
				<stop  offset="0.7918" style="stop-color:#EB3327"/>
				<stop  offset="0.8939" style="stop-color:#DD2018"/>
				<stop  offset="0.9838" style="stop-color:#CB0804"/>
				<stop  offset="1" style="stop-color:#C70300"/>
			</radialGradient>
			<path style="fill:url(#SVGID_3_);" d="M64.018,86.379c-6.492,0-12.045-0.876-17.022-1.987c-1.332-0.297-2.59,0.713-2.59,2.078
				l0,26.475c0,2.798,1.109,5.477,3.059,7.484c4.71,4.847,10.511,7.523,16.526,7.523c0.005,0,0.009,0,0.014,0
				c0.004,0,0.009,0,0.014,0c6.014,0,11.816-2.675,16.526-7.523c1.949-2.006,3.059-4.686,3.059-7.484l0-26.472
				c0-1.365-1.258-2.375-2.59-2.078C76.044,85.504,70.501,86.378,64.018,86.379z"/>
			<path style="fill:#C70300;" d="M62.83,86.359c-0.363,1.838-0.361,3.677-0.381,5.515c0.036,2.898,0.371,5.795,0.457,8.693
				l0.245,8.693c0.048,1.449,0.089,2.898,0.169,4.346l0.106,2.173c0.029,0.724,0.086,1.449,0.473,2.173
				c0.011,0.02,0.028,0.038,0.05,0.05c0.059,0.031,0.132,0.009,0.164-0.05c0.387-0.724,0.444-1.449,0.473-2.173l0.106-2.173
				c0.081-1.449,0.121-2.898,0.169-4.346l0.245-8.693c0.086-2.898,0.42-5.795,0.457-8.693c-0.021-1.838-0.018-3.677-0.381-5.515
				c-0.387,0.006-0.767,0.019-1.161,0.019C63.615,86.379,63.226,86.365,62.83,86.359z"/>
		</g>
	</g>
</g>
<g id="Layer_1">
</g>
</svg>
