<?xml version="1.0" encoding="iso-8859-1"?>
<!-- Generator: Adobe Illustrator 24.1.2, SVG Export Plug-In . SVG Version: 6.00 Build 0)  -->
<svg version="1.1" xmlns="http://www.w3.org/2000/svg" xmlns:xlink="http://www.w3.org/1999/xlink" x="0px" y="0px"
	 viewBox="0 0 128 128" style="enable-background:new 0 0 128 128;" xml:space="preserve">
<symbol  id="Smiley_shape" viewBox="-57.587 -60 115.173 120">
	<linearGradient id="SVGID_1_" gradientUnits="userSpaceOnUse" x1="0" y1="-60" x2="7.347880e-15" y2="60">
		<stop  offset="0" style="stop-color:#FF9A1A"/>
		<stop  offset="1" style="stop-color:#FFD52D"/>
	</linearGradient>
	<path style="fill:url(#SVGID_1_);" d="M51.962,30C44.462,42.99,18,60,0,60s-44.462-17.01-51.962-30s-7.5-47.01,0-60S-18-60,0-60
		s44.462,17.01,51.962,30S59.462,17.01,51.962,30z"/>
</symbol>
<symbol  id="closed_eyes_UP" viewBox="-37.818 -0.839 75.68 12.34">
	<g>
		
			<radialGradient id="SVGID_2_" cx="22.5622" cy="-1.7294" r="19.9512" gradientTransform="matrix(0.9994 0.0351 -0.01 0.2839 -0.0033 -2.031)" gradientUnits="userSpaceOnUse">
			<stop  offset="0.7517" style="stop-color:#DE721E;stop-opacity:0"/>
			<stop  offset="1" style="stop-color:#DE721E"/>
		</radialGradient>
		<path style="fill:url(#SVGID_2_);" d="M23.002,5.081c-7.53,0-12.08-2.7-14.82-5.92l29.68,0.67
			C34.972,2.591,31.002,5.081,23.002,5.081z"/>
		<path style="fill:#2B201A;" d="M23.002,5.081c8,0,11.97-2.49,14.86-5.25c0,6.44-6.86,11.67-14.86,11.67
			c-8.16,0-14.82-5.46-14.82-12.34C10.922,2.381,15.472,5.081,23.002,5.081z"/>
	</g>
	<g>
		
			<radialGradient id="SVGID_3_" cx="19857.998" cy="-1.7294" r="19.9512" gradientTransform="matrix(-0.9994 0.0351 0.01 0.2839 19823.2402 -698.8234)" gradientUnits="userSpaceOnUse">
			<stop  offset="0.7517" style="stop-color:#DE721E;stop-opacity:0"/>
			<stop  offset="1" style="stop-color:#DE721E"/>
		</radialGradient>
		<path style="fill:url(#SVGID_3_);" d="M-22.958,5.081c7.53,0,12.08-2.7,14.82-5.92l-29.68,0.67
			C-34.928,2.591-30.958,5.081-22.958,5.081z"/>
		<path style="fill:#2B201A;" d="M-22.958,5.081c-8,0-11.97-2.49-14.86-5.25c0,6.44,6.86,11.67,14.86,11.67
			c8.16,0,14.82-5.46,14.82-12.34C-10.878,2.381-15.428,5.081-22.958,5.081z"/>
	</g>
</symbol>
<g id="_x31_F613">
	<g id="_x31_F613_1_">
		
			<use xlink:href="#Smiley_shape"  width="115.173" height="120" x="-57.587" y="-60" transform="matrix(1.0658 0 0 -1.0658 64 64)" style="overflow:visible;"/>
		
			<use xlink:href="#closed_eyes_UP"  width="75.68" height="12.34" x="-37.818" y="-0.839" transform="matrix(1.0658 0 0 -1.0658 64 66.268)" style="overflow:visible;"/>
		<path style="fill:#2B201A;" d="M93.841,105.075C84.475,99.617,75.257,95.999,64,95.999c-11.196,0.03-20.331,3.558-29.841,9.076
			c3.82-10.218,15.686-18.665,29.746-18.665c0.032,0,0.064,0,0.095,0c0.008,0,0.016,0,0.025,0
			C77.968,86.409,89.948,94.719,93.841,105.075z"/>
		<g>
			<linearGradient id="SVGID_4_" gradientUnits="userSpaceOnUse" x1="32.8779" y1="6.8961" x2="22.8859" y2="52.2601">
				<stop  offset="0" style="stop-color:#45C2F8"/>
				<stop  offset="1" style="stop-color:#1D8BFF"/>
			</linearGradient>
			<path style="fill:url(#SVGID_4_);" d="M26.64,2.184c0,0-16.675,25.68-16.8,34.692c-0.125,9.012,7.08,16.418,16.091,16.543
				c9.011,0.125,16.418-7.08,16.543-16.091C42.599,28.316,26.64,2.184,26.64,2.184z"/>
			<ellipse style="fill:#7AD4F8;" cx="34.254" cy="37.249" rx="5.561" ry="10.02"/>
		</g>
	</g>
</g>
<g id="Layer_1">
</g>
</svg>
