<?xml version="1.0" encoding="iso-8859-1"?>
<!-- Generator: Adobe Illustrator 24.1.2, SVG Export Plug-In . SVG Version: 6.00 Build 0)  -->
<svg version="1.1" xmlns="http://www.w3.org/2000/svg" xmlns:xlink="http://www.w3.org/1999/xlink" x="0px" y="0px"
	 viewBox="0 0 128 128" style="enable-background:new 0 0 128 128;" xml:space="preserve">
<symbol  id="Smiley_shape" viewBox="-57.587 -60 115.173 120">
	<linearGradient id="SVGID_1_" gradientUnits="userSpaceOnUse" x1="0" y1="-60" x2="7.347880e-15" y2="60">
		<stop  offset="0" style="stop-color:#FF9A1A"/>
		<stop  offset="1" style="stop-color:#FFD52D"/>
	</linearGradient>
	<path style="fill:url(#SVGID_1_);" d="M51.962,30C44.462,42.99,18,60,0,60s-44.462-17.01-51.962-30s-7.5-47.01,0-60S-18-60,0-60
		s44.462,17.01,51.962,30S59.462,17.01,51.962,30z"/>
</symbol>
<symbol  id="Standard_eyes" viewBox="-28 -12 56 24">
	<g>
		<path style="fill:#2B201A;" d="M-20-12L-20-12c-4.418,0-8,3.582-8,8v8c0,4.418,3.582,8,8,8h0c4.418,0,8-3.582,8-8v-8
			C-12-8.418-15.582-12-20-12z"/>
		<circle style="fill:#AF9D94;" cx="-17" cy="7" r="3"/>
	</g>
	<g>
		<path style="fill:#2B201A;" d="M20-12L20-12c-4.418,0-8,3.582-8,8v8c0,4.418,3.582,8,8,8h0c4.418,0,8-3.582,8-8v-8
			C28-8.418,24.418-12,20-12z"/>
		<circle style="fill:#AF9D94;" cx="23" cy="7" r="3"/>
	</g>
</symbol>
<g id="_x31_F61F">
	<g id="_x31_F61F_1_">
		
			<use xlink:href="#Smiley_shape"  width="115.173" height="120" id="XMLID_21_" x="-57.587" y="-60" transform="matrix(1.0658 0 0 -1.0658 64 64)" style="overflow:visible;"/>
		<g>
			<path style="fill:#DE721E;" d="M64,84.19c0,0-26.402,4.393-26.402,12.228c0,5.329,17.369,0.656,26.402,0.656
				c9.033,0,26.401,4.673,26.401-0.656C90.401,88.583,64,84.19,64,84.19z"/>
			<path style="fill:#2B201A;" d="M90.401,96.444c0-6.451-10.143-18.559-26.399-18.559c-16.532,0-26.404,12.121-26.404,18.533
				c0,2.55,1.122,2.69,1.943,2.69c3.54,0,12.288-4.542,24.461-4.569c12.173,0.026,20.921,4.569,24.461,4.569
				C89.282,99.108,90.401,98.967,90.401,96.444z"/>
		</g>
		
			<use xlink:href="#Standard_eyes"  width="56" height="24" x="-28" y="-12" transform="matrix(1.0658 0 0 -1.0658 64 52.4302)" style="overflow:visible;"/>
		<g>
			<g>
				
					<radialGradient id="SVGID_2_" cx="37.8094" cy="35.1513" r="13.5576" fx="36.8728" fy="35.1589" gradientTransform="matrix(0.8153 -0.5791 0.2779 0.3913 -2.785 43.2901)" gradientUnits="userSpaceOnUse">
					<stop  offset="0" style="stop-color:#FF7149"/>
					<stop  offset="1" style="stop-color:#FF7149;stop-opacity:0"/>
				</radialGradient>
				<path style="fill:url(#SVGID_2_);" d="M45.4,21.873c5.218,1.556,7.987,17.498-1.942,24.861s-19.491-0.689-20.114-8.248
					c0,0,8.428-1.749,14.17-6.816S45.4,21.873,45.4,21.873z"/>
				
					<radialGradient id="SVGID_3_" cx="4651.8433" cy="35.1513" r="13.5576" fx="4650.9067" fy="35.1589" gradientTransform="matrix(-0.8153 -0.5791 -0.2779 0.3913 3892.4714 2715.2522)" gradientUnits="userSpaceOnUse">
					<stop  offset="0" style="stop-color:#FF7149"/>
					<stop  offset="1" style="stop-color:#FF7149;stop-opacity:0"/>
				</radialGradient>
				<path style="fill:url(#SVGID_3_);" d="M82.6,21.873c-5.218,1.556-7.987,17.498,1.942,24.861s19.491-0.689,20.114-8.248
					c0,0-8.428-1.749-14.17-6.816C84.745,26.604,82.6,21.873,82.6,21.873z"/>
			</g>
			<path style="fill:#2B201A;" d="M47.308,24.535c0,3.76-4.079,10.499-16.251,13.456c-3.496,0.933-7.025,1.112-7.097,1.112
				c-0.236,0-0.616-0.183-0.616-0.617c0-0.843,1.426-0.779,6.501-3.652c10.577-5.501,14.082-12.102,14.082-12.17
				c0,0,0-0.001,0-0.001c-0.001,0-0.003,0.003-0.006,0.008c0.339-0.517,0.904-0.798,1.48-0.798
				C46.569,21.873,47.308,22.934,47.308,24.535z"/>
			<path style="fill:#2B201A;" d="M80.692,24.535c0,3.76,4.079,10.499,16.251,13.456c3.496,0.933,7.025,1.112,7.097,1.112
				c0.236,0,0.616-0.183,0.616-0.617c0-0.843-1.426-0.779-6.501-3.652c-10.577-5.501-14.082-12.102-14.082-12.17
				c0,0,0-0.001,0-0.001c0.001,0,0.003,0.003,0.006,0.008c-0.339-0.517-0.904-0.798-1.48-0.798
				C81.431,21.873,80.692,22.934,80.692,24.535z"/>
		</g>
	</g>
</g>
<g id="Layer_1">
</g>
</svg>
