<?xml version="1.0" encoding="iso-8859-1"?>
<!-- Generator: Adobe Illustrator 24.1.2, SVG Export Plug-In . SVG Version: 6.00 Build 0)  -->
<svg version="1.1" xmlns="http://www.w3.org/2000/svg" xmlns:xlink="http://www.w3.org/1999/xlink" x="0px" y="0px"
	 viewBox="0 0 128 128" style="enable-background:new 0 0 128 128;" xml:space="preserve">
<symbol  id="Smiley_shape" viewBox="-57.587 -60 115.173 120">
	<linearGradient id="SVGID_1_" gradientUnits="userSpaceOnUse" x1="0" y1="-60" x2="7.347880e-15" y2="60">
		<stop  offset="0" style="stop-color:#FF9A1A"/>
		<stop  offset="1" style="stop-color:#FFD52D"/>
	</linearGradient>
	<path style="fill:url(#SVGID_1_);" d="M51.962,30C44.462,42.99,18,60,0,60s-44.462-17.01-51.962-30s-7.5-47.01,0-60S-18-60,0-60
		s44.462,17.01,51.962,30S59.462,17.01,51.962,30z"/>
</symbol>
<g id="_x31_F62A">
	<g id="_x31_F62A_1_">
		
			<use xlink:href="#Smiley_shape"  width="115.173" height="120" x="-57.587" y="-60" transform="matrix(1.0658 0 0 -1.0658 64 64)" style="overflow:visible;"/>
		<g>
			<g>
				<g>
					
						<radialGradient id="SVGID_2_" cx="-6451.813" cy="-7632.4771" r="21.2633" gradientTransform="matrix(-0.9994 0.0351 -0.01 -0.2839 -6484.042 -1879.9371)" gradientUnits="userSpaceOnUse">
						<stop  offset="0.7517" style="stop-color:#FF7149;stop-opacity:0"/>
						<stop  offset="1" style="stop-color:#FF7149"/>
					</radialGradient>
					<path style="fill:url(#SVGID_2_);" d="M39.486,67.563c8.025,0,12.874-2.878,15.795-6.309l-31.632,0.714
						C26.729,64.909,30.96,67.563,39.486,67.563z"/>
					<path style="fill:#2B201A;" d="M39.486,67.563c-8.526,0-12.757-2.654-15.837-5.595c0,6.864,7.311,12.438,15.837,12.438
						c8.697,0,15.795-5.819,15.795-13.152C52.36,64.685,47.511,67.563,39.486,67.563z"/>
				</g>
				<g>
					
						<radialGradient id="SVGID_3_" cx="10081.3389" cy="-7632.4771" r="21.2633" gradientTransform="matrix(0.9994 0.0351 0.01 -0.2839 -9910.9521 -2460.7393)" gradientUnits="userSpaceOnUse">
						<stop  offset="0.7517" style="stop-color:#FF7149;stop-opacity:0"/>
						<stop  offset="1" style="stop-color:#FF7149"/>
					</radialGradient>
					<path style="fill:url(#SVGID_3_);" d="M88.468,67.563c-8.025,0-12.874-2.878-15.795-6.309l31.632,0.714
						C101.225,64.909,96.994,67.563,88.468,67.563z"/>
					<path style="fill:#2B201A;" d="M88.468,67.563c8.526,0,12.757-2.654,15.837-5.595c0,6.864-7.311,12.438-15.837,12.438
						c-8.697,0-15.795-5.819-15.795-13.152C75.593,64.685,80.442,67.563,88.468,67.563z"/>
				</g>
			</g>
		</g>
		<ellipse style="fill:#2B201A;" cx="64" cy="98.83" rx="8.774" ry="10.057"/>
		<g>
			<linearGradient id="SVGID_4_" gradientUnits="userSpaceOnUse" x1="97.7822" y1="96.5848" x2="72.8568" y2="83.0075">
				<stop  offset="0" style="stop-color:#45C2F8"/>
				<stop  offset="1" style="stop-color:#1D8BFF"/>
			</linearGradient>
			<path style="fill:url(#SVGID_4_);" d="M97.73,78.005c-7.641-4.78-20.786-2.75-30.31,3.937c4.931,3.051,5.36,18.952,13,23.732
				c7.64,4.78,17.709,2.461,22.489-5.179C107.689,92.854,105.37,82.785,97.73,78.005z"/>
			<ellipse style="fill:#7AD4F8;" cx="97.183" cy="91.951" rx="5.561" ry="10.02"/>
		</g>
	</g>
</g>
<g id="Layer_1">
</g>
</svg>
