<?xml version="1.0" encoding="iso-8859-1"?>
<!-- Generator: Adobe Illustrator 24.1.2, SVG Export Plug-In . SVG Version: 6.00 Build 0)  -->
<svg version="1.1" xmlns="http://www.w3.org/2000/svg" xmlns:xlink="http://www.w3.org/1999/xlink" x="0px" y="0px"
	 viewBox="0 0 128 128" style="enable-background:new 0 0 128 128;" xml:space="preserve">
<symbol  id="Astonished_eyes" viewBox="-38.095 -15 76.095 32">
	<g>
		<path style="display:none;fill:#2B201A;" d="M-22.095-12L-22.095-12c-4.418,0-8,3.582-8,8v8c0,4.418,3.582,8,8,8h0
			c4.418,0,8-3.582,8-8v-8C-14.095-8.418-17.677-12-22.095-12z"/>
		<linearGradient id="SVGID_1_" gradientUnits="userSpaceOnUse" x1="-38.0951" y1="1" x2="-6.0951" y2="1">
			<stop  offset="0" style="stop-color:#F4F5F6"/>
			<stop  offset="1" style="stop-color:#FFFFFF"/>
		</linearGradient>
		<circle style="fill:url(#SVGID_1_);" cx="-22.095" cy="1" r="16"/>
		<circle style="fill:#2B201A;" cx="-22.095" cy="1" r="11"/>
		<circle style="fill:#AF9D94;" cx="-19.095" cy="7" r="3"/>
	</g>
	<g>
		<path style="display:none;fill:#2B201A;" d="M22-12L22-12c-4.418,0-8,3.582-8,8v8c0,4.418,3.582,8,8,8h0c4.418,0,8-3.582,8-8v-8
			C30-8.418,26.418-12,22-12z"/>
		<linearGradient id="SVGID_2_" gradientUnits="userSpaceOnUse" x1="6.0001" y1="1" x2="37.9999" y2="1">
			<stop  offset="0" style="stop-color:#F4F5F6"/>
			<stop  offset="1" style="stop-color:#FFFFFF"/>
		</linearGradient>
		<circle style="fill:url(#SVGID_2_);" cx="22" cy="1" r="16"/>
		<circle style="fill:#2B201A;" cx="22" cy="1" r="11"/>
		<circle style="fill:#AF9D94;" cx="25" cy="7" r="3"/>
	</g>
</symbol>
<symbol  id="Smiley_shape" viewBox="-57.587 -60 115.173 120">
	<linearGradient id="SVGID_3_" gradientUnits="userSpaceOnUse" x1="0" y1="-60" x2="7.347880e-15" y2="60">
		<stop  offset="0" style="stop-color:#FF9A1A"/>
		<stop  offset="1" style="stop-color:#FFD52D"/>
	</linearGradient>
	<path style="fill:url(#SVGID_3_);" d="M51.962,30C44.462,42.99,18,60,0,60s-44.462-17.01-51.962-30s-7.5-47.01,0-60S-18-60,0-60
		s44.462,17.01,51.962,30S59.462,17.01,51.962,30z"/>
</symbol>
<g id="_x31_F632">
	<g id="_x31_F632_1_">
		
			<use xlink:href="#Smiley_shape"  width="115.173" height="120" x="-57.587" y="-60" transform="matrix(1.0658 0 0 -1.0658 64 64)" style="overflow:visible;"/>
		
			<use xlink:href="#Astonished_eyes"  width="76.095" height="32" id="XMLID_24_" x="-38.095" y="-15" transform="matrix(1.0505 0 0 -1.0506 63.5734 51.0612)" style="overflow:visible;"/>
		<g>
			<path style="fill:#2B201A;" d="M50.417,21.391c0-1.54-0.933-3.385-4.263-3.385c-4.217,0-14.6,4.717-21.097,11.701
				c-0.879,0.944,0.342,2.347,1.392,1.598c5.933-4.235,13.765-7.553,21.815-7.553C49.833,23.752,50.417,22.52,50.417,21.391z"/>
		</g>
		<g>
			<path style="fill:#2B201A;" d="M75.995,21.391c0-1.54,0.933-3.385,4.263-3.385c4.217,0,14.6,4.717,21.097,11.701
				c0.879,0.944-0.342,2.347-1.392,1.598c-5.933-4.235-13.765-7.553-21.815-7.553C76.579,23.752,75.995,22.52,75.995,21.391z"/>
		</g>
		<g>
			<path style="fill:#DE721E;" d="M81.032,90.495H46.968c0,12.572,5.657,25.737,17.032,25.737S81.032,103.067,81.032,90.495z"/>
			<ellipse style="fill:#2B201A;" cx="64" cy="90.495" rx="17.032" ry="22.764"/>
			<path style="fill:#FFFFFF;" d="M76.054,74.413H51.946c3.08-4.135,7.343-6.682,12.054-6.682
				C68.7,67.73,72.963,70.278,76.054,74.413z"/>
			<path style="fill:#FC4A3A;" d="M77.951,103.551c-3.08,5.873-8.185,9.709-13.951,9.709c-5.776,0-10.871-3.837-13.951-9.709
				c4.05-1.002,8.835-1.577,13.951-1.577S73.901,102.55,77.951,103.551z"/>
		</g>
	</g>
</g>
<g id="Layer_1">
</g>
</svg>
