<?xml version="1.0" encoding="iso-8859-1"?>
<!-- Generator: Adobe Illustrator 24.1.2, SVG Export Plug-In . SVG Version: 6.00 Build 0)  -->
<svg version="1.1" xmlns="http://www.w3.org/2000/svg" xmlns:xlink="http://www.w3.org/1999/xlink" x="0px" y="0px"
	 viewBox="0 0 128 128" style="enable-background:new 0 0 128 128;" xml:space="preserve">
<symbol  id="Smiley_shape" viewBox="-57.587 -60 115.173 120">
	<linearGradient id="SVGID_1_" gradientUnits="userSpaceOnUse" x1="0" y1="-60" x2="7.347880e-15" y2="60">
		<stop  offset="0" style="stop-color:#FF9A1A"/>
		<stop  offset="1" style="stop-color:#FFD52D"/>
	</linearGradient>
	<path style="fill:url(#SVGID_1_);" d="M51.962,30C44.462,42.99,18,60,0,60s-44.462-17.01-51.962-30s-7.5-47.01,0-60S-18-60,0-60
		s44.462,17.01,51.962,30S59.462,17.01,51.962,30z"/>
</symbol>
<g id="_x31_F635">
	<g id="_x31_F635_1_">
		
			<use xlink:href="#Smiley_shape"  width="115.173" height="120" id="XMLID_20_" x="-57.587" y="-60" transform="matrix(1.0658 0 0 -1.0658 64 64)" style="overflow:visible;"/>
		<linearGradient id="SVGID_2_" gradientUnits="userSpaceOnUse" x1="64" y1="64" x2="64" y2="0.0526">
			<stop  offset="0" style="stop-color:#FFD52D;stop-opacity:0"/>
			<stop  offset="1" style="stop-color:#917FB2"/>
		</linearGradient>
		<path style="fill:url(#SVGID_2_);" d="M125.373,64c0-12.526-1.998-25.051-5.995-31.974C111.385,18.181,83.184,0.053,64,0.053
			S16.615,18.181,8.621,32.026C4.625,38.949,2.626,51.474,2.627,64H125.373z"/>
		<g>
			<path style="fill:#DE721E;" d="M64,88.034c0,0-29.196,5.586-29.196,15.548c0,6.776,19.207,0.834,29.196,0.834
				c9.989,0,29.196,5.942,29.196-0.834C93.196,93.62,64,88.034,64,88.034z"/>
			<path style="fill:#2B201A;" d="M93.196,103.616c0-8.203-11.217-23.6-29.193-23.6c-18.282,0-29.199,15.413-29.199,23.566
				c0,3.242,1.241,3.421,2.148,3.421c3.915,0,13.589-5.776,27.05-5.809c13.461,0.033,23.136,5.809,27.05,5.809
				C91.958,107.003,93.196,106.825,93.196,103.616z"/>
			<linearGradient id="SVGID_3_" gradientUnits="userSpaceOnUse" x1="45.0029" y1="83.332" x2="82.997" y2="83.332">
				<stop  offset="0" style="stop-color:#F4F5F6"/>
				<stop  offset="1" style="stop-color:#FFFFFF"/>
			</linearGradient>
			<path style="fill:url(#SVGID_3_);" d="M82.997,86.648c-4.859-3.838-11.28-6.632-18.933-6.632c-7.781,0-14.222,2.796-19.061,6.632
				H82.997z"/>
		</g>
		<g>
			<g>
				<path style="fill:#2B201A;" d="M50.417,21.391c0-1.54-0.933-3.385-4.263-3.385c-4.217,0-14.6,4.717-21.097,11.701
					c-0.879,0.944,0.342,2.347,1.392,1.598c5.933-4.235,13.765-7.553,21.815-7.553C49.833,23.752,50.417,22.52,50.417,21.391z"/>
			</g>
			<g>
				<path style="fill:#2B201A;" d="M75.995,21.391c0-1.54,0.933-3.385,4.263-3.385c4.217,0,14.6,4.717,21.097,11.701
					c0.879,0.944-0.342,2.347-1.392,1.598c-5.933-4.235-13.765-7.553-21.815-7.553C76.579,23.752,75.995,22.52,75.995,21.391z"/>
			</g>
		</g>
		<g>
			<g>
				<path style="fill:none;stroke:#2B201A;stroke-width:4.2631;stroke-linecap:round;stroke-miterlimit:10;" d="M44.368,52.117
					c1.419,1.879,1.046,4.552-0.833,5.971c-2.818,2.128-6.828,1.569-8.957-1.25c-3.192-4.228-2.353-10.243,1.875-13.435
					c5.167-3.902,12.519-2.876,16.42,2.291c4.966,6.576,3.66,15.933-2.916,20.899c-7.516,5.675-18.209,4.183-23.884-3.333
					c-6.384-8.455-4.706-20.486,3.749-26.87"/>
			</g>
			<g>
				<path style="fill:none;stroke:#2B201A;stroke-width:4.2631;stroke-linecap:round;stroke-miterlimit:10;" d="M86.139,58.742
					c-2.238-0.733-3.457-3.141-2.725-5.378c1.099-3.356,4.711-5.186,8.067-4.087c5.034,1.649,7.779,7.066,6.131,12.101
					c-2.015,6.153-8.636,9.508-14.79,7.493c-7.831-2.565-12.101-10.992-9.536-18.824c2.931-8.95,12.562-13.83,21.512-10.899
					c10.069,3.297,15.558,14.133,12.261,24.202"/>
			</g>
		</g>
	</g>
</g>
<g id="Layer_1">
</g>
</svg>
