<?xml version="1.0" encoding="iso-8859-1"?>
<!-- Generator: Adobe Illustrator 24.1.2, SVG Export Plug-In . SVG Version: 6.00 Build 0)  -->
<svg version="1.1" xmlns="http://www.w3.org/2000/svg" xmlns:xlink="http://www.w3.org/1999/xlink" x="0px" y="0px"
	 viewBox="0 0 128 128" style="enable-background:new 0 0 128 128;" xml:space="preserve">
<g id="_x31_F647">
	<g id="_x31_F647_1_">
		<g>
			<linearGradient id="SVGID_1_" gradientUnits="userSpaceOnUse" x1="41.1077" y1="48.9642" x2="41.1077" y2="122.0701">
				<stop  offset="0" style="stop-color:#D1D4D4"/>
				<stop  offset="1" style="stop-color:#3D3D3D"/>
			</linearGradient>
			<path style="fill:url(#SVGID_1_);" d="M64,48.506H40.726C23.609,54.16,21.363,66.943,21.725,71.399l-3.51,36.934
				c0,0,24.571,16.941,32.049,14.957C57.743,121.306,64,115.353,64,110.622L64,48.506z"/>
			
				<linearGradient id="SVGID_2_" gradientUnits="userSpaceOnUse" x1="5245.6411" y1="48.9642" x2="5245.6411" y2="122.0701" gradientTransform="matrix(-1 0 0 1 5332.5332 0)">
				<stop  offset="0" style="stop-color:#D1D4D4"/>
				<stop  offset="1" style="stop-color:#3D3D3D"/>
			</linearGradient>
			<path style="fill:url(#SVGID_2_);" d="M64,48.506h23.274c17.117,5.654,19.363,18.437,19.001,22.893l3.51,36.934
				c0,0-24.571,16.941-32.049,14.957C70.257,121.306,64,115.353,64,110.622L64,48.506z"/>
			<path style="fill:#3D3D3D;" d="M47.182,78.954l-13.43,6.028l-7.631,16.025l6.334,7.555c0,0,0.004-6.622,8.165-10.381
				s21.29,0.079,21.29,10.381s-13.555,11.236-13.555,11.236l-0.713,3.564c1.009,0.131,1.898,0.12,2.623-0.072
				C57.743,121.306,64,115.353,64,110.622V81.396v0L47.182,78.954z"/>
			<path style="fill:#3D3D3D;" d="M80.818,78.954l13.43,6.028l7.631,16.025l-6.334,7.555c0,0-0.004-6.622-8.165-10.381
				s-21.29,0.079-21.29,10.381s13.555,11.236,13.555,11.236l0.713,3.564c-1.009,0.131-1.898,0.12-2.623-0.072
				C70.257,121.306,64,115.353,64,110.622V81.396v0L80.818,78.954z"/>
		</g>
		<g>
			<linearGradient id="SVGID_3_" gradientUnits="userSpaceOnUse" x1="15.8538" y1="67.5527" x2="37.4494" y2="125.2427">
				<stop  offset="0" style="stop-color:#005686"/>
				<stop  offset="1" style="stop-color:#003C5A"/>
			</linearGradient>
			<path style="fill:url(#SVGID_3_);" d="M33.637,101.923c7.707,0.572,12.591,6.296,10.427,12.207L33.63,126.037
				c0,0-16.635-1.374-21.977-3.51s-11.599-6.105-11.599-13.736c0-11.599,10.279-48.262,43.343-53.411l3.205,29.144
				C40.955,88.187,35.927,91.944,33.637,101.923z"/>
			
				<linearGradient id="SVGID_4_" gradientUnits="userSpaceOnUse" x1="5220.3872" y1="67.5527" x2="5241.9824" y2="125.2427" gradientTransform="matrix(-1 0 0 1 5332.5332 0)">
				<stop  offset="0" style="stop-color:#005686"/>
				<stop  offset="1" style="stop-color:#003C5A"/>
			</linearGradient>
			<path style="fill:url(#SVGID_4_);" d="M94.363,101.923c-7.707,0.572-12.591,6.296-10.427,12.207l10.435,11.907
				c0,0,16.635-1.374,21.977-3.51s11.599-6.105,11.599-13.736c0-11.599-10.279-48.262-43.343-53.411l-3.205,29.144
				C87.045,88.187,92.073,91.944,94.363,101.923z"/>
			<path style="fill:#003C5A;" d="M39.162,103.421c1.693,0.903,1.296,2.589,0.478,4.043c-1.196-0.275-2.46-0.428-3.77-0.428
				c-7.385,0-13.372,4.681-13.372,10.456c0,0.405,0.037,0.803,0.094,1.196c-2.11,0.473-4.261,0.637-6.238,0.329
				c-5.875-0.916-16.297-5.951-16.299-10.224c0,7.63,6.257,11.598,11.598,13.734c5.342,2.137,21.977,3.51,21.977,3.51l10.435-11.907
				C45.645,109.812,43.455,105.604,39.162,103.421z"/>
			<path style="fill:#003C5A;" d="M88.838,103.421c-1.693,0.903-1.296,2.589-0.478,4.043c1.196-0.275,2.46-0.428,3.77-0.428
				c7.385,0,13.372,4.681,13.372,10.456c0,0.405-0.037,0.803-0.094,1.196c2.11,0.473,4.261,0.637,6.238,0.329
				c5.875-0.916,16.297-5.951,16.299-10.224c0,7.63-6.257,11.598-11.598,13.734c-5.342,2.137-21.977,3.51-21.977,3.51L83.936,114.13
				C82.355,109.812,84.545,105.604,88.838,103.421z"/>
			<path style="fill:#003C5A;" d="M45.615,75.545c-9.642,4.011-19.417,14.87-19.417,22.066c0,0-7.017,0.569-10.187,9.844
				c0,0,4.922-5.532,17.627-5.532c2.289-9.98,7.317-13.736,12.965-17.399L45.615,75.545z"/>
			<path style="fill:#003C5A;" d="M82.385,75.545c9.642,4.011,19.417,14.87,19.417,22.066c0,0,7.017,0.569,10.187,9.844
				c0,0-4.922-5.532-17.627-5.532c-2.289-9.98-7.317-13.736-12.965-17.399L82.385,75.545z"/>
		</g>
		<g>
			<linearGradient id="SVGID_5_" gradientUnits="userSpaceOnUse" x1="42.4361" y1="108.7671" x2="42.4361" y2="127.061">
				<stop  offset="4.528621e-07" style="stop-color:#FFD52D"/>
				<stop  offset="1" style="stop-color:#FF9A1A"/>
			</linearGradient>
			<path style="fill:url(#SVGID_5_);" d="M58.157,120.365c-8.034-7.328-11.324-10.286-20.56-11.658
				c-6.069-0.884-11.877,2.367-12.972,7.261c-1.096,4.894,2.936,9.577,9.004,10.461c9.31,1.231,20.268,2.508,22.404,0.371
				c0,0,3.327,0.611,4.044-0.763C60.795,124.663,60.522,122.272,58.157,120.365z"/>
			<linearGradient id="SVGID_6_" gradientUnits="userSpaceOnUse" x1="42.3678" y1="118.2838" x2="42.5967" y2="128.185">
				<stop  offset="4.528621e-07" style="stop-color:#FF9A1A"/>
				<stop  offset="1" style="stop-color:#DE721E"/>
			</linearGradient>
			<path style="fill:url(#SVGID_6_);" d="M56.034,126.8c0,0,3.327,0.611,4.044-0.763c0.426-0.815,0.488-1.99-0.014-3.208
				c0,0.756,0.002,1.632-1.417,2.483c-1.431,0.858-3.521-0.199-3.521-0.199c0,1.232-1.344,1.458-3.003,1.706
				c-1.66,0.248-3.83-0.782-3.83-0.782c-0.626,1.87-4.869-0.038-7.616-1.297c-2.747-1.259-2.862,0.229-8.184-1.288
				c-5.314-1.515-7.374-5.965-7.028-9.618c-0.377,0.668-0.671,1.378-0.84,2.134c-1.096,4.894,2.936,9.577,9.004,10.461
				C42.939,127.66,53.897,128.937,56.034,126.8z"/>
			<path style="fill:#DE721E;" d="M50.769,125.732c-0.496-2.022-2.504-3.161-4.96-4.235c-3.052-1.335-6.715-1.564-6.715-1.564
				s6.753,2.785,8.508,4.197c1.094,0.88,1.108,3.779-1.316,3.674c1.706,0.111,3.285,0.161,4.671,0.129
				C51.008,127.406,51.001,126.68,50.769,125.732z"/>
			<path style="fill:#DE721E;" d="M51.989,119.932c-4.903-2.919-9.233-2.442-9.233-2.442c4.779,1.667,9.194,3.881,11.494,6.181
				c1.303,1.303,1.466,3.548,0.057,3.91c0.774-0.182,1.378-0.432,1.727-0.781C57.808,125.026,55.321,121.915,51.989,119.932z"/>
		</g>
		<g>
			
				<linearGradient id="SVGID_7_" gradientUnits="userSpaceOnUse" x1="5246.9692" y1="108.7671" x2="5246.9692" y2="127.061" gradientTransform="matrix(-1 0 0 1 5332.5332 0)">
				<stop  offset="4.528621e-07" style="stop-color:#FFD52D"/>
				<stop  offset="1" style="stop-color:#FF9A1A"/>
			</linearGradient>
			<path style="fill:url(#SVGID_7_);" d="M69.843,120.365c8.034-7.328,11.324-10.286,20.56-11.658
				c6.069-0.884,11.877,2.367,12.972,7.261c1.096,4.894-2.936,9.577-9.004,10.461c-9.31,1.231-20.268,2.508-22.404,0.371
				c0,0-3.327,0.611-4.044-0.763C67.205,124.663,67.478,122.272,69.843,120.365z"/>
			
				<linearGradient id="SVGID_8_" gradientUnits="userSpaceOnUse" x1="5246.9009" y1="118.2838" x2="5247.1299" y2="128.185" gradientTransform="matrix(-1 0 0 1 5332.5332 0)">
				<stop  offset="4.528621e-07" style="stop-color:#FF9A1A"/>
				<stop  offset="1" style="stop-color:#DE721E"/>
			</linearGradient>
			<path style="fill:url(#SVGID_8_);" d="M71.966,126.8c0,0-3.327,0.611-4.044-0.763c-0.426-0.815-0.488-1.99,0.014-3.208
				c0,0.756-0.002,1.632,1.417,2.483c1.431,0.858,3.521-0.199,3.521-0.199c0,1.232,1.344,1.458,3.003,1.706
				c1.66,0.248,3.83-0.782,3.83-0.782c0.626,1.87,4.869-0.038,7.616-1.297c2.747-1.259,2.862,0.229,8.184-1.288
				c5.314-1.515,7.374-5.965,7.028-9.618c0.377,0.668,0.671,1.378,0.84,2.134c1.096,4.894-2.936,9.577-9.004,10.461
				C85.061,127.66,74.103,128.937,71.966,126.8z"/>
			<path style="fill:#DE721E;" d="M77.231,125.732c0.496-2.022,2.504-3.161,4.96-4.235c3.052-1.335,6.715-1.564,6.715-1.564
				s-6.753,2.785-8.508,4.197c-1.094,0.88-1.108,3.779,1.316,3.674c-1.706,0.111-3.285,0.161-4.671,0.129
				C76.992,127.406,76.999,126.68,77.231,125.732z"/>
			<path style="fill:#DE721E;" d="M76.011,119.932c4.903-2.919,9.233-2.442,9.233-2.442c-4.779,1.667-9.194,3.881-11.494,6.181
				c-1.303,1.303-1.466,3.548-0.057,3.91c-0.774-0.182-1.378-0.432-1.727-0.781C70.192,125.026,72.679,121.915,76.011,119.932z"/>
		</g>
		<g>
			<linearGradient id="SVGID_9_" gradientUnits="userSpaceOnUse" x1="64" y1="71.857" x2="64" y2="101.4667">
				<stop  offset="0" style="stop-color:#2B201A"/>
				<stop  offset="1" style="stop-color:#2B201A;stop-opacity:0"/>
			</linearGradient>
			<path style="opacity:0.5;fill:url(#SVGID_9_);" d="M94.81,58.718c0,31.784-13.794,57.551-30.809,57.551S33.19,90.504,33.19,58.72
				L94.81,58.718z"/>
			<linearGradient id="SVGID_10_" gradientUnits="userSpaceOnUse" x1="64" y1="69.4533" x2="64" y2="96.2967">
				<stop  offset="0.1663" style="stop-color:#FFD52D"/>
				<stop  offset="0.8358" style="stop-color:#FF9A1A"/>
			</linearGradient>
			<path style="fill:url(#SVGID_10_);" d="M95.393,54.458c-1.831,0-2.244,3.098-2.244,3.098v0.002v-9.814h-4.356
				C83.659,39.427,74.491,33.867,64,33.867s-19.66,5.561-24.793,13.877H34.85v9.812c0-0.004-0.413-3.097-2.243-3.097
				c-1.831,0,0.617,8.695,2.426,12.818c0.008,0.017,0.014,0.028,0.021,0.045c1.14,12.797,7.677,22.87,23.932,24.565
				c0.027,0.25,0.063,0.497,0.08,0.749c0.053,0.826,0.42,1.6,0.991,2.2l0.643,0.676c0.631,0.664,1.487,1.067,2.4,1.13l0.645,0.045
				c0.17,0.012,0.34,0.012,0.51,0l0.645-0.045c0.913-0.064,1.769-0.467,2.4-1.13l0.643-0.676c0.57-0.6,0.938-1.374,0.991-2.2
				c0.017-0.252,0.053-0.499,0.08-0.749c16.255-1.694,22.793-11.767,23.932-24.564c0.008-0.017,0.014-0.028,0.022-0.046
				C94.776,63.154,97.224,54.458,95.393,54.458z"/>
			<g>
				<linearGradient id="SVGID_11_" gradientUnits="userSpaceOnUse" x1="47.0248" y1="70.0256" x2="47.0248" y2="89.9979">
					<stop  offset="0.2206" style="stop-color:#FFD52D"/>
					<stop  offset="0.8511" style="stop-color:#FF9A1A"/>
				</linearGradient>
				<path style="fill:url(#SVGID_11_);" d="M54.194,84.528c-7.466-0.787-16.372-4.807-19.132-17.139
					c1.157,12.765,7.698,22.806,23.924,24.497C58.594,88.209,57.079,84.832,54.194,84.528z"/>
				
					<linearGradient id="SVGID_12_" gradientUnits="userSpaceOnUse" x1="5233.0205" y1="70.0256" x2="5233.0205" y2="89.9979" gradientTransform="matrix(-1 0 0 1 5313.9951 0)">
					<stop  offset="0.2206" style="stop-color:#FFD52D"/>
					<stop  offset="0.8511" style="stop-color:#FF9A1A"/>
				</linearGradient>
				<path style="fill:url(#SVGID_12_);" d="M73.805,84.528c7.466-0.787,16.372-4.807,19.132-17.139
					c-1.157,12.765-7.698,22.806-23.924,24.497C69.406,88.209,70.921,84.832,73.805,84.528z"/>
			</g>
			<g>
				<g>
					<path style="fill:#2B201A;" d="M56.276,85.498c-0.061,0.001-0.123,0.001-0.184,0.001c-3.427,0-6.34-1.205-6.657-1.328
						c-1.913-0.967-3.687-2.308-5.964-3.103l0.02-0.281c0.339-0.072,0.681-0.103,1.023-0.103c2.335,0,4.388,1.294,5.634,1.78
						c1.142,0.572,4.069,1.402,6.218,2.5L56.276,85.498z"/>
					<path style="fill:#2B201A;" d="M56.419,85.335c-0.509,0.56-1.212,1.175-1.915,1.518c-1.256,0.669-2.859,0.75-4.143,0.597
						c-1.338-0.168-2.74-0.57-3.895-1.435c-1.164-0.836-1.972-2.114-2.148-3.442c1.005,0.896,1.973,1.54,3.01,1.941
						c1.037,0.39,2.13,0.623,3.288,0.734c1.207,0.168,2.194,0.192,3.314-0.021c0.523-0.105,1.051-0.256,1.586-0.455L56.419,85.335z"
						/>
				</g>
				<g>
					<path style="fill:#2B201A;" d="M71.724,85.498c0.061,0.001,0.123,0.001,0.184,0.001c3.427,0,6.34-1.205,6.657-1.328
						c1.913-0.967,3.687-2.308,5.964-3.103l-0.02-0.281c-0.339-0.072-0.681-0.103-1.023-0.103c-2.335,0-4.388,1.294-5.634,1.78
						c-1.142,0.572-4.069,1.402-6.218,2.5L71.724,85.498z"/>
					<path style="fill:#2B201A;" d="M71.581,85.335c0.509,0.56,1.212,1.175,1.915,1.518c1.256,0.669,2.859,0.75,4.143,0.597
						c1.338-0.168,2.74-0.57,3.895-1.435c1.164-0.836,1.972-2.114,2.148-3.442c-1.005,0.896-1.973,1.54-3.01,1.941
						c-1.037,0.39-2.13,0.623-3.288,0.734c-1.207,0.168-2.194,0.192-3.314-0.021c-0.523-0.105-1.051-0.256-1.586-0.455
						L71.581,85.335z"/>
				</g>
			</g>
			<linearGradient id="SVGID_13_" gradientUnits="userSpaceOnUse" x1="63.7467" y1="22.1339" x2="63.7467" y2="76.4827">
				<stop  offset="0" style="stop-color:#89542E"/>
				<stop  offset="1" style="stop-color:#582D24"/>
			</linearGradient>
			<path style="fill:url(#SVGID_13_);" d="M74.576,72.239c-2.213,4.655-11.141,9.615-16.788,8.852
				c-5.647-0.763-9.691,0.079-9.691,0.079s1.45-4.302,4.502-5.624c0,0-6.181,0.356-10.073-1.78c0,0,4.464-0.114,5.876-1.526
				c0,0-4.799-3.125-6.815-5.856c-2.016-2.731-4.543,4.211-5.32,4.988c-0.777,0.777-1.205-2.268-1.205-3.981
				c0,0,0.902-7.055,0.52-8.886s-0.733-0.947-0.733-0.947l-0.769-2.175c0,0-0.329-4.432-0.329-7.332l-1.068,1.526
				c0,0,3.447-37.83,36.329-30.552c0,0,14.967-0.277,23.924,17.427l-1.878-0.229c0,0,4.375,5.955,3.675,18.392l-1.585,2.945
				c0,0-0.946,0.564-0.946,1.632s0.733,8.199,0.733,8.199s-0.14,1.945-0.671,2.476c0,0-3.107-7.176-5.553-3.851
				C84.267,69.339,80.299,74.757,74.576,72.239z"/>
			<linearGradient id="SVGID_14_" gradientUnits="userSpaceOnUse" x1="63.7639" y1="50.6105" x2="65.4427" y2="82.2026">
				<stop  offset="0.2717" style="stop-color:#582D24"/>
				<stop  offset="1" style="stop-color:#2B160C"/>
			</linearGradient>
			<path style="fill:url(#SVGID_14_);" d="M86.713,66.014c2.446-3.325,5.552,3.851,5.552,3.851c0.531-0.531,0.671-2.476,0.671-2.476
				s-0.733-7.131-0.733-8.2c0-1.068,0.946-1.632,0.946-1.632l1.585-2.945c0.105-1.862,0.085-3.561-0.006-5.135
				c-3.006,5.719-8.744,11.047-19.16,4.675c-2.9,11.128-14.498,11.599-21.366,9.462c0,0,4.426,3.121,7.478,3.774
				c0,0-14.383,0.805-19.248-5.758c-4.866-6.563-5.781-12.973-4.408-20.909c0,0-2.041,0.61-4.557,4.217
				c-0.615,2.791-0.784,4.635-0.784,4.635l1.068-1.526c0,2.9,0.329,7.332,0.329,7.332l0.769,2.175c0,0,0.351-0.884,0.733,0.947
				s-0.52,8.886-0.52,8.886c0,1.713,0.428,4.758,1.205,3.981c0.777-0.777,3.304-7.719,5.32-4.988
				c2.016,2.731,6.815,5.856,6.815,5.856c-1.412,1.412-5.876,1.526-5.876,1.526c3.892,2.137,10.073,1.78,10.073,1.78
				c-3.052,1.323-4.502,5.624-4.502,5.624s4.045-0.842,9.691-0.079c5.647,0.763,14.575-4.197,16.788-8.852
				C80.3,74.757,84.267,69.339,86.713,66.014z"/>
		</g>
		<g>
			
				<linearGradient id="SVGID_15_" gradientUnits="userSpaceOnUse" x1="48.5614" y1="1961.7095" x2="68.8251" y2="1961.7095" gradientTransform="matrix(0.7012 0.713 -0.713 0.7012 1384.3835 -1396.3226)">
				<stop  offset="4.528621e-07" style="stop-color:#368EC4"/>
				<stop  offset="0.1171" style="stop-color:#519CCB"/>
				<stop  offset="0.4295" style="stop-color:#95C0DB"/>
				<stop  offset="0.6913" style="stop-color:#C7DBE7"/>
				<stop  offset="0.8891" style="stop-color:#E6EBEE"/>
				<stop  offset="1" style="stop-color:#F1F1F1"/>
			</linearGradient>
			<polygon style="fill:url(#SVGID_15_);" points="35.129,29.438 23.508,10.121 16.01,17.494 			"/>
			
				<linearGradient id="SVGID_16_" gradientUnits="userSpaceOnUse" x1="154.3867" y1="3004.5459" x2="174.6505" y2="3004.5459" gradientTransform="matrix(0.5061 0.8625 -0.8625 0.5061 2545.7468 -1651.2014)">
				<stop  offset="4.528621e-07" style="stop-color:#368EC4"/>
				<stop  offset="0.1171" style="stop-color:#519CCB"/>
				<stop  offset="0.4295" style="stop-color:#95C0DB"/>
				<stop  offset="0.6913" style="stop-color:#C7DBE7"/>
				<stop  offset="0.8891" style="stop-color:#E6EBEE"/>
				<stop  offset="1" style="stop-color:#F1F1F1"/>
			</linearGradient>
			<polygon style="fill:url(#SVGID_16_);" points="43.734,21.62 37.173,0.053 28.104,5.375 			"/>
		</g>
		<g>
			
				<linearGradient id="SVGID_17_" gradientUnits="userSpaceOnUse" x1="5269.3857" y1="-3347.3308" x2="5289.6494" y2="-3347.3308" gradientTransform="matrix(-0.7012 0.713 0.713 0.7012 6189.6162 -1396.3226)">
				<stop  offset="4.528621e-07" style="stop-color:#368EC4"/>
				<stop  offset="0.1171" style="stop-color:#519CCB"/>
				<stop  offset="0.4295" style="stop-color:#95C0DB"/>
				<stop  offset="0.6913" style="stop-color:#C7DBE7"/>
				<stop  offset="0.8891" style="stop-color:#E6EBEE"/>
				<stop  offset="1" style="stop-color:#F1F1F1"/>
			</linearGradient>
			<polygon style="fill:url(#SVGID_17_);" points="92.87,29.438 104.492,10.121 111.989,17.494 			"/>
			
				<linearGradient id="SVGID_18_" gradientUnits="userSpaceOnUse" x1="3923.1016" y1="-3417.2688" x2="3943.3655" y2="-3417.2688" gradientTransform="matrix(-0.5061 0.8625 0.8625 0.5061 5028.2529 -1651.2014)">
				<stop  offset="4.528621e-07" style="stop-color:#368EC4"/>
				<stop  offset="0.1171" style="stop-color:#519CCB"/>
				<stop  offset="0.4295" style="stop-color:#95C0DB"/>
				<stop  offset="0.6913" style="stop-color:#C7DBE7"/>
				<stop  offset="0.8891" style="stop-color:#E6EBEE"/>
				<stop  offset="1" style="stop-color:#F1F1F1"/>
			</linearGradient>
			<polygon style="fill:url(#SVGID_18_);" points="84.266,21.62 90.826,0.053 99.895,5.375 			"/>
		</g>
	</g>
</g>
<g id="Layer_1">
</g>
</svg>
