<?xml version="1.0" encoding="iso-8859-1"?>
<!-- Generator: Adobe Illustrator 24.1.2, SVG Export Plug-In . SVG Version: 6.00 Build 0)  -->
<svg version="1.1" xmlns="http://www.w3.org/2000/svg" xmlns:xlink="http://www.w3.org/1999/xlink" x="0px" y="0px"
	 viewBox="0 0 128 128" style="enable-background:new 0 0 128 128;" xml:space="preserve">
<symbol  id="Smiley_shape" viewBox="-57.587 -60 115.173 120">
	<linearGradient id="SVGID_1_" gradientUnits="userSpaceOnUse" x1="0" y1="-60" x2="7.347880e-15" y2="60">
		<stop  offset="0" style="stop-color:#FF9A1A"/>
		<stop  offset="1" style="stop-color:#FFD52D"/>
	</linearGradient>
	<path style="fill:url(#SVGID_1_);" d="M51.962,30C44.462,42.99,18,60,0,60s-44.462-17.01-51.962-30s-7.5-47.01,0-60S-18-60,0-60
		s44.462,17.01,51.962,30S59.462,17.01,51.962,30z"/>
</symbol>
<g id="_x31_F644">
	<g id="_x31_F644_1_">
		
			<use xlink:href="#Smiley_shape"  width="115.173" height="120" x="-57.587" y="-60" transform="matrix(1.0658 0 0 -1.0658 64 64)" style="overflow:visible;"/>
		<g id="XMLID_22_">
			<g>
				<g>
					<path style="fill:#2B201A;" d="M40.362,64.479L40.362,64.479c-4.642,0-8.404-3.763-8.404-8.404V47.67
						c0-4.642,3.763-8.404,8.404-8.404h0c4.642,0,8.404,3.763,8.404,8.404v8.405C48.766,60.716,45.003,64.479,40.362,64.479z"/>
					<linearGradient id="SVGID_2_" gradientUnits="userSpaceOnUse" x1="23.5535" y1="50.822" x2="57.1704" y2="50.822">
						<stop  offset="0" style="stop-color:#F4F5F6"/>
						<stop  offset="1" style="stop-color:#FFFFFF"/>
					</linearGradient>
					<circle style="fill:url(#SVGID_2_);" cx="40.362" cy="50.822" r="16.809"/>
					<g>
						<circle style="fill:#2B201A;" cx="37.165" cy="44.427" r="9.592"/>
						<circle style="fill:#AF9D94;" cx="40.19" cy="39.702" r="3.152"/>
					</g>
				</g>
				<g>
					<path style="fill:#2B201A;" d="M86.685,64.479L86.685,64.479c-4.642,0-8.404-3.763-8.404-8.404V47.67
						c0-4.642,3.763-8.404,8.404-8.404h0c4.642,0,8.404,3.763,8.404,8.404v8.405C95.089,60.716,91.327,64.479,86.685,64.479z"/>
					<linearGradient id="SVGID_3_" gradientUnits="userSpaceOnUse" x1="69.8767" y1="50.8219" x2="103.4934" y2="50.8219">
						<stop  offset="0" style="stop-color:#F4F5F6"/>
						<stop  offset="1" style="stop-color:#FFFFFF"/>
					</linearGradient>
					<circle style="fill:url(#SVGID_3_);" cx="86.685" cy="50.822" r="16.809"/>
					<g>
						<circle style="fill:#2B201A;" cx="83.488" cy="44.427" r="9.592"/>
						<circle style="fill:#AF9D94;" cx="86.513" cy="39.702" r="3.152"/>
					</g>
				</g>
			</g>
		</g>
		<g>
			<path style="fill:#DE721E;" d="M85.463,89.682c0,0,3.266,6.147-20.35,10.349c-23.616,4.201-22.671-2.695-22.671-2.695
				L85.463,89.682z"/>
			<path style="fill:#2B201A;" d="M82.444,94.008l-35.676,6.347c-2.028,0.361-3.965-0.991-4.326-3.019
				c-0.361-2.028,0.991-3.965,3.019-4.326l35.676-6.347c2.028-0.361,3.965,0.991,4.326,3.019
				C85.824,91.71,84.472,93.648,82.444,94.008z"/>
		</g>
	</g>
</g>
<g id="Layer_1">
</g>
</svg>
