<?xml version="1.0" encoding="iso-8859-1"?>
<!-- Generator: Adobe Illustrator 24.1.2, SVG Export Plug-In . SVG Version: 6.00 Build 0)  -->
<svg version="1.1" xmlns="http://www.w3.org/2000/svg" xmlns:xlink="http://www.w3.org/1999/xlink" x="0px" y="0px"
	 viewBox="0 0 128 128" style="enable-background:new 0 0 128 128;" xml:space="preserve">
<symbol  id="Smiley_shape" viewBox="-57.587 -60 115.173 120">
	<linearGradient id="SVGID_1_" gradientUnits="userSpaceOnUse" x1="0" y1="-60" x2="7.347880e-15" y2="60">
		<stop  offset="0" style="stop-color:#FF9A1A"/>
		<stop  offset="1" style="stop-color:#FFD52D"/>
	</linearGradient>
	<path style="fill:url(#SVGID_1_);" d="M51.962,30C44.462,42.99,18,60,0,60s-44.462-17.01-51.962-30s-7.5-47.01,0-60S-18-60,0-60
		s44.462,17.01,51.962,30S59.462,17.01,51.962,30z"/>
</symbol>
<symbol  id="Standard_eyes" viewBox="-28 -12 56 24">
	<g>
		<path style="fill:#2B201A;" d="M-20-12L-20-12c-4.418,0-8,3.582-8,8v8c0,4.418,3.582,8,8,8h0c4.418,0,8-3.582,8-8v-8
			C-12-8.418-15.582-12-20-12z"/>
		<circle style="fill:#AF9D94;" cx="-17" cy="7" r="3"/>
	</g>
	<g>
		<path style="fill:#2B201A;" d="M20-12L20-12c-4.418,0-8,3.582-8,8v8c0,4.418,3.582,8,8,8h0c4.418,0,8-3.582,8-8v-8
			C28-8.418,24.418-12,20-12z"/>
		<circle style="fill:#AF9D94;" cx="23" cy="7" r="3"/>
	</g>
</symbol>
<g id="_x31_F642">
	<g id="_x31_F642_1_">
		
			<use xlink:href="#Smiley_shape"  width="115.173" height="120" x="-57.587" y="-60" transform="matrix(1.0658 0 0 -1.0658 64 64)" style="overflow:visible;"/>
		
			<use xlink:href="#Standard_eyes"  width="56" height="24" x="-28" y="-12" transform="matrix(1.0658 0 0 -1.0658 64 51.2105)" style="overflow:visible;"/>
		<path style="fill:#2B201A;" d="M34.159,80.015C43.525,85.472,52.743,89.09,64,89.09c11.196-0.03,20.331-3.558,29.841-9.076
			C90.021,90.233,78.156,98.68,64.095,98.68c-0.032,0-0.064,0-0.095,0c-0.008,0-0.016,0-0.025,0
			C50.032,98.68,38.052,90.37,34.159,80.015z"/>
	</g>
</g>
<g id="Layer_1">
</g>
</svg>
