<?xml version="1.0" encoding="iso-8859-1"?>
<!-- Generator: Adobe Illustrator 24.1.2, SVG Export Plug-In . SVG Version: 6.00 Build 0)  -->
<svg version="1.1" xmlns="http://www.w3.org/2000/svg" xmlns:xlink="http://www.w3.org/1999/xlink" x="0px" y="0px"
	 viewBox="0 0 128 128" style="enable-background:new 0 0 128 128;" xml:space="preserve">
<g id="_x31_F6B4">
	<g id="_x31_F6B4_1_">
		<g>
			<polygon style="fill:#890000;" points="59.406,81.073 60.611,78.562 65.682,81.474 64.389,83.131 			"/>
			<linearGradient id="SVGID_1_" gradientUnits="userSpaceOnUse" x1="60.8463" y1="82.0341" x2="58.5364" y2="93.0309">
				<stop  offset="0" style="stop-color:#D1D4D4"/>
				<stop  offset="1" style="stop-color:#77797C"/>
			</linearGradient>
			<polygon style="fill:url(#SVGID_1_);" points="58.822,94.555 55.47,93.2 60.197,81.51 60.516,80.721 63.868,82.077 			"/>
		</g>
		<g>
			<linearGradient id="SVGID_2_" gradientUnits="userSpaceOnUse" x1="75.9174" y1="43.1179" x2="72.2098" y2="60.0407">
				<stop  offset="4.528621e-07" style="stop-color:#FFD52D"/>
				<stop  offset="1" style="stop-color:#FF9A1A"/>
			</linearGradient>
			<path style="fill:url(#SVGID_2_);" d="M68.323,66.052c0.424-0.479,0.879-0.965,1.363-1.45c3.709-3.71,7.381-5.95,9.566-8.7
				s3.201-4.858,3.201-5.385c0-0.527-1.224-3.258-2.655-4.689c-0.733-0.733-3.346-2.553-6.477-4.432l-4.764,9.912
				c2.26,0.678,2.749,1.092,2.749,1.092s-2.561,1.469-3.841,3.427c-0.688,1.052-2.18,3.246-3.747,5.676L68.323,66.052z"/>
			<linearGradient id="SVGID_3_" gradientUnits="userSpaceOnUse" x1="71.4483" y1="53.1675" x2="72.0509" y2="52.0628">
				<stop  offset="4.528621e-07" style="stop-color:#DE721E"/>
				<stop  offset="1" style="stop-color:#FF9A1A"/>
			</linearGradient>
			<path style="fill:url(#SVGID_3_);" d="M70.73,49.883c-0.399-0.22-0.973-0.082-1.603,0.24l-0.57,1.186
				c2.26,0.678,2.749,1.092,2.749,1.092s0.64,0.678,1.544,0.942c0.904,0.264,2.486,0,2.486,0s-1.411-0.403-2.25-1.243
				C72.246,51.26,72.263,50.729,70.73,49.883z"/>
			<linearGradient id="SVGID_4_" gradientUnits="userSpaceOnUse" x1="67.5757" y1="65.0632" x2="77.7063" y2="52.1081">
				<stop  offset="4.528621e-07" style="stop-color:#DE721E"/>
				<stop  offset="1" style="stop-color:#FF9A1A"/>
			</linearGradient>
			<path style="fill:url(#SVGID_4_);" d="M79.252,55.903c2.184-2.749,3.201-4.858,3.201-5.385l-0.233-0.535
				c0,0-0.621,3.171-1.374,2.82c-0.45-0.21-0.166-2.124-0.166-2.124s-1.742,3.53-4.604,6.392c-2.588,2.588-4.871,4.218-4.871,4.218
				s-3.113-0.05-5.674,1.054c-0.235,0.101-0.438,0.218-0.614,0.346l3.405,3.364c0.424-0.479,0.879-0.965,1.363-1.45
				C73.396,60.893,77.068,58.652,79.252,55.903z"/>
			<linearGradient id="SVGID_5_" gradientUnits="userSpaceOnUse" x1="62.7196" y1="61.6399" x2="62.7196" y2="82.8805">
				<stop  offset="0" style="stop-color:#005686"/>
				<stop  offset="1" style="stop-color:#003C5A"/>
			</linearGradient>
			<path style="fill:url(#SVGID_5_);" d="M69.24,65.059c-3.418,3.557-5.202,7.038-5.202,7.038s0.64,1.431,0.904,3.276
				c0.264,1.845,4.594,7.494,4.594,7.494l-0.791,0.866c0,0-2.373-0.264-4.293-1.054s-3.86-3.333-5.31-4.783
				c-1.45-1.45-3.239-2.749-3.239-2.749s1.921-3.389,4.067-7.419c1.145-2.15,2.837-4.836,4.361-7.172
				C64.716,61.59,67.173,64.311,69.24,65.059z"/>
			<path style="fill:#003C5A;" d="M63.372,71.833c-0.301-1.757-0.904-5.122-0.904-5.122s3.414-0.603,3.414,0.653
				c0,1.221-2.449,2.681-1.829,4.701c0.181-0.344,1.951-3.64,5.185-7.006c-1.274-0.462-2.697-1.673-3.691-2.777
				c-1.033,0.32-2.125,0.813-3.301,1.543c-0.845,1.365-1.645,2.716-2.277,3.903c-2.147,4.03-4.067,7.419-4.067,7.419
				s1.789,1.299,3.239,2.749c1.321,1.321,3.047,3.546,4.796,4.531c0.206-1.043,0.332-2.287,0.174-3.514
				C63.724,75.901,63.674,73.591,63.372,71.833z"/>
			<linearGradient id="SVGID_6_" gradientUnits="userSpaceOnUse" x1="63.934" y1="38.5772" x2="64.9885" y2="50.1766">
				<stop  offset="0" style="stop-color:#368EC4"/>
				<stop  offset="1" style="stop-color:#003C5A"/>
			</linearGradient>
			<path style="fill:url(#SVGID_6_);" d="M70.177,51.855c-0.397-0.154-0.925-0.338-1.621-0.547c-2.26-0.678-5.046-0.113-6.816-0.301
				c-1.77-0.188-2.523-0.301-5.084-1.243l-3.013-10.432c0,0,3.917-4.632,9.453-2.938c3.24,0.992,7.886,3.532,11.488,5.774
				l0.031-0.049C72.775,44.53,71.195,47.732,70.177,51.855z"/>
			<path style="fill:#003C5A;" d="M67.64,44.869c1.287-0.102,3.082,0.085,4.979,0.402c0.605-1.154,1.264-2.186,1.961-3.105
				c-3.602-2.241-8.735-4.725-14.58-2.548c-5.426,2.02-6.356-0.286-6.356-0.286l3.013,10.432c2.467,0.907,3.209,1.043,5.084,1.243
				c1.77,0.188,4.557-0.377,6.816,0.301c0.695,0.209,1.223,0.392,1.621,0.547c0.169-0.683,0.354-1.339,0.552-1.973
				c-0.645-0.253-1.331-0.452-2.135-0.545c-1.768-0.206-5.32-0.075-7.679-0.765C62.518,45.856,64.493,45.119,67.64,44.869z"/>
		</g>
		<g>
			<g>
				<linearGradient id="SVGID_7_" gradientUnits="userSpaceOnUse" x1="102.1867" y1="68.0171" x2="102.1867" y2="109.9014">
					<stop  offset="0" style="stop-color:#D1D4D4"/>
					<stop  offset="1" style="stop-color:#77797C"/>
				</linearGradient>
				<path style="fill:url(#SVGID_7_);" d="M102.187,65.672c-13.22,0-23.936,10.717-23.936,23.937s10.716,23.937,23.936,23.937
					s23.936-10.717,23.936-23.937S115.407,65.672,102.187,65.672z M102.187,111.301c-11.98,0-21.692-9.712-21.692-21.692
					c0-11.981,9.712-21.692,21.692-21.692s21.692,9.712,21.692,21.692C123.879,101.59,114.167,111.301,102.187,111.301z"/>
				<path style="fill:#2B201A;" d="M102.187,63.849c-14.226,0-25.759,11.533-25.759,25.76s11.533,25.76,25.759,25.76
					s25.759-11.533,25.759-25.76S116.413,63.849,102.187,63.849z M102.187,112.733c-12.771,0-23.123-10.352-23.123-23.123
					c0-12.771,10.352-23.123,23.123-23.123s23.123,10.352,23.123,23.123C125.31,102.38,114.958,112.733,102.187,112.733z"/>
			</g>
			<g>
				<linearGradient id="SVGID_8_" gradientUnits="userSpaceOnUse" x1="25.8133" y1="68.0171" x2="25.8133" y2="109.9014">
					<stop  offset="0" style="stop-color:#D1D4D4"/>
					<stop  offset="1" style="stop-color:#77797C"/>
				</linearGradient>
				<path style="fill:url(#SVGID_8_);" d="M25.813,65.672c-13.22,0-23.936,10.717-23.936,23.937s10.716,23.937,23.936,23.937
					S49.75,102.829,49.75,89.609S39.033,65.672,25.813,65.672z M25.813,111.301c-11.98,0-21.692-9.712-21.692-21.692
					c0-11.981,9.712-21.692,21.692-21.692s21.692,9.712,21.692,21.692C47.505,101.59,37.794,111.301,25.813,111.301z"/>
				<path style="fill:#2B201A;" d="M25.813,63.849c-14.226,0-25.759,11.533-25.759,25.76s11.533,25.76,25.759,25.76
					s25.759-11.533,25.759-25.76S40.04,63.849,25.813,63.849z M25.813,112.733c-12.771,0-23.123-10.352-23.123-23.123
					c0-12.771,10.352-23.123,23.123-23.123s23.123,10.352,23.123,23.123C48.936,102.38,38.584,112.733,25.813,112.733z"/>
			</g>
			<g>
				<linearGradient id="SVGID_9_" gradientUnits="userSpaceOnUse" x1="63.716" y1="57.673" x2="63.716" y2="96.7788">
					<stop  offset="0" style="stop-color:#D1D4D4"/>
					<stop  offset="1" style="stop-color:#AF9D94"/>
				</linearGradient>
				<path style="fill:url(#SVGID_9_);" d="M103.353,88.784c-0.035-0.065-0.069-0.131-0.104-0.197c0,0,0,0-0.001-0.002
					c-0.806-1.523-13.14-25.016-14.43-31.928l-3.427,0.904v0.377l-40.522-0.565c0,0,0,0.678,0,1.092s1.285,3.481,1.285,3.481
					L24.232,88.442c0,0-0.307,0.208-0.307,0.508c0,0.381,0.497,0.907,2.755,1.338l31.408,6.704l27.378-28.923
					c0,0,1.582-1.205,2.26-1.205c2.362,0,2.284,4.534,12.955,23.086c0.224,0.578,0.777,0.934,1.363,0.934
					c0.809,0,1.464-0.658,1.464-1.464C103.508,89.126,103.442,88.955,103.353,88.784z M50.97,92.358c0,0-16.328-3.436-19.432-3.954
					c-1.356-0.226-3.385-0.663-2.034-2.311c0,0,15.383-18.761,16.683-20.059c1.3-1.299,2.109,1.318,2.109,1.318l5.122,16.721
					L50.97,92.358z M81.173,63.849c-2.824,2.825-16.834,17.813-18.039,19.019c-1.205,1.205-1.431,1.167-2.486,1.167h-3.352
					c-0.716,0-1.318-0.414-1.808-2.335c-0.49-1.921-2.674-10.093-2.674-10.093l3.728-11.035c0,0,21.428,0,23.537,0
					S83.997,61.025,81.173,63.849z"/>
				<g>
					<linearGradient id="SVGID_10_" gradientUnits="userSpaceOnUse" x1="67.3431" y1="58.5016" x2="67.3431" y2="72.9322">
						<stop  offset="0" style="stop-color:#AF9D94"/>
						<stop  offset="1" style="stop-color:#77797C"/>
					</linearGradient>
					<path style="fill:url(#SVGID_10_);" d="M52.815,71.607l3.728-11.035c0,0,21.428,0,23.537,0c0.537,0,2.543,0.088,2.543,0.989
						c0.645-1.364-0.823-2.495-3.447-2.495c-2.109,0-23.537,0-23.537,0l-3.728,11.035L52.815,71.607z"/>
					<linearGradient id="SVGID_11_" gradientUnits="userSpaceOnUse" x1="37.7756" y1="64.1657" x2="37.7756" y2="91.2591">
						<stop  offset="0" style="stop-color:#AF9D94"/>
						<stop  offset="1" style="stop-color:#77797C"/>
					</linearGradient>
					<path style="fill:url(#SVGID_11_);" d="M29.193,86.56c0.072-0.144,0.173-0.299,0.311-0.467c0,0,15.383-18.761,16.683-20.059
						c0.473-0.473,0.881-0.426,1.209-0.175l-0.004-0.013c0,0-0.809-2.617-2.109-1.318S28.6,84.587,28.6,84.587
						C27.703,85.681,28.296,86.241,29.193,86.56z"/>
					<linearGradient id="SVGID_12_" gradientUnits="userSpaceOnUse" x1="101.8054" y1="86.5209" x2="101.8054" y2="90.5945">
						<stop  offset="0" style="stop-color:#AF9D94"/>
						<stop  offset="1" style="stop-color:#77797C"/>
					</linearGradient>
					<path style="fill:url(#SVGID_12_);" d="M102.535,87.225c0.089,0.172,0.163,0.488,0.163,0.78c0,0.806-0.749,1.37-1.558,1.37
						c-0.39,0-0.763-0.16-1.037-0.436c0.189,0.332,0.381,0.667,0.577,1.009c0.224,0.578,0.777,0.934,1.363,0.934
						c0.809,0,1.464-0.658,1.464-1.464c0-0.292-0.066-0.462-0.155-0.634c-0.035-0.065-0.069-0.131-0.104-0.197c0,0,0,0-0.001-0.002"
						/>
					<linearGradient id="SVGID_13_" gradientUnits="userSpaceOnUse" x1="56.4968" y1="66.7115" x2="56.4968" y2="95.5949">
						<stop  offset="0" style="stop-color:#AF9D94"/>
						<stop  offset="1" style="stop-color:#77797C"/>
					</linearGradient>
					<path style="fill:url(#SVGID_13_);" d="M86.822,65.356c-0.678,0-2.26,1.205-2.26,1.205L57.184,95.484l-31.408-6.704
						c-0.633-0.121-1.127-0.249-1.511-0.379l-0.033,0.04c0,0-0.307,0.208-0.307,0.508c0,0.381,0.497,0.907,2.755,1.338l31.408,6.704
						l27.378-28.923c0,0,1.582-1.205,2.26-1.205c0.519,0,0.92,0.219,1.344,0.758C88.219,65.959,87.682,65.356,86.822,65.356z"/>
				</g>
			</g>
			<g>
				<rect x="45.322" y="45.647" style="fill:#2B201A;" width="4.267" height="12.855"/>
				<g>
					<linearGradient id="SVGID_14_" gradientUnits="userSpaceOnUse" x1="40.6781" y1="42.4256" x2="41.5317" y2="46.7942">
						<stop  offset="0" style="stop-color:#F4F5F6"/>
						<stop  offset="1" style="stop-color:#D1D4D4"/>
					</linearGradient>
					<path style="fill:url(#SVGID_14_);" d="M41.429,42.508l-3.766-0.151c-0.979,0-2.234,2.586-2.234,2.586s0.577,2.209,2.31,2.912
						c1.732,0.703,9.54-1.029,9.54-1.029l-0.803-3.289L41.429,42.508z"/>
					<path style="fill:#D1D4D4;" d="M36.308,44.869l-0.876,0.085c0.042,0.153,0.639,2.226,2.307,2.902
						c1.732,0.703,9.54-1.029,9.54-1.029l-0.206-0.843c-0.852,0.089-1.968,0.204-3.118,0.319l-1.345-3.554l-1.181-0.241l-2.29-0.092
						c0.183,0.897,0.569,2.636,1.095,4.239c-0.849,0.073-1.499,0.12-1.767,0.12C37.262,46.777,36.308,44.869,36.308,44.869z"/>
				</g>
			</g>
			<g>
				<circle style="fill:#77797C;" cx="25.813" cy="89.609" r="5.272"/>
				<circle style="fill:#D1D4D4;" cx="25.813" cy="89.609" r="2.561"/>
				<circle style="fill:#77797C;" cx="26.491" cy="98.12" r="2.567"/>
				<circle style="fill:#77797C;" cx="56.619" cy="95.408" r="7.77"/>
				<path style="fill:#2B201A;" d="M56.619,103.888c-0.26,0-0.516-0.014-0.771-0.036l-29.634-2.644
					c-1.609-0.145-2.823-1.472-2.823-3.088c0-1.707,1.421-3.099,3.101-3.099c0.218,0,0.439,0.023,0.663,0.072l0.815,0.036
					c0.044,0.015,0.089,0.023,0.133,0.023c0.224,0,0.423-0.189,0.423-0.421c0-0.172-0.104-0.325-0.264-0.39l-3.751-1.527
					c-1.31-0.536-2.157-1.793-2.157-3.205c0-1.746,1.302-3.195,2.987-3.426v-0.041l0.543,0.008l31.434,0.66
					c4.376,0.359,7.855,4.078,7.855,8.523C65.173,100.051,61.336,103.888,56.619,103.888z M26.491,96.086
					c-1.122,0-2.035,0.913-2.035,2.034c0,1.061,0.796,1.932,1.851,2.025l29.637,2.647c0.22,0.019,0.445,0.03,0.674,0.03
					c4.129,0,7.488-3.36,7.488-7.489c0-4.045-3.29-7.402-7.332-7.484l-30.368-0.621v0.016l-0.56-0.025c-0.001,0-0.003,0-0.004,0
					c-1.352,0-2.423,1.073-2.423,2.391c0,0.977,0.586,1.846,1.492,2.216l3.752,1.529c0.564,0.23,0.927,0.771,0.927,1.377
					c0,0.823-0.713,1.486-1.502,1.486c-0.126,0-0.253-0.017-0.38-0.052l-0.681-0.018C26.782,96.103,26.634,96.086,26.491,96.086z"/>
				<linearGradient id="SVGID_15_" gradientUnits="userSpaceOnUse" x1="54.4469" y1="95.3005" x2="54.4469" y2="105.4411">
					<stop  offset="0" style="stop-color:#F4F5F6"/>
					<stop  offset="1" style="stop-color:#D1D4D4"/>
				</linearGradient>
				<path style="fill:url(#SVGID_15_);" d="M50.553,105.385l4.45-10.652c0.373-0.892,1.398-1.314,2.291-0.941
					c0.892,0.373,1.313,1.398,0.941,2.291l-4.45,10.652C53.503,107.407,50.18,106.278,50.553,105.385z"/>
				<circle style="fill:#2B201A;" cx="56.619" cy="95.408" r="0.675"/>
				<linearGradient id="SVGID_16_" gradientUnits="userSpaceOnUse" x1="28.5436" y1="57.2964" x2="28.5436" y2="97.0944">
					<stop  offset="0" style="stop-color:#D1D4D4"/>
					<stop  offset="1" style="stop-color:#AF9D94"/>
				</linearGradient>
				<path style="fill:url(#SVGID_16_);" d="M31.538,88.404c-1.217-0.203-2.978-0.575-2.345-1.844v-0.002
					c0.018-0.035,0.038-0.072,0.06-0.108c0.023-0.039,0.048-0.08,0.075-0.121c0.011-0.018,0.023-0.035,0.036-0.053
					c0.015-0.021,0.032-0.044,0.048-0.066c0.029-0.038,0.059-0.077,0.092-0.118c0,0,0.892-1.088,2.264-2.758l-1.213-1.13
					l-0.657-0.613l-5.634,6.809l-0.033,0.041c0,0-0.307,0.208-0.307,0.508c0,0.381,0.497,0.907,2.755,1.338l6.164,1.315l0.142-1.283
					l0.178-1.615C32.467,88.57,31.908,88.466,31.538,88.404z"/>
				<linearGradient id="SVGID_17_" gradientUnits="userSpaceOnUse" x1="29.4422" y1="55.8377" x2="29.4422" y2="88.3276">
					<stop  offset="0" style="stop-color:#AF9D94"/>
					<stop  offset="1" style="stop-color:#77797C"/>
				</linearGradient>
				<path style="fill:url(#SVGID_17_);" d="M31.768,83.335c-2.469,3.006-2.575,3.225-2.707,3.768s1.274,1.041,1.274,1.041
					l-2.18-0.393c-0.896-0.318-1.491-0.596-0.594-1.69c0,0,1.798-2.401,2.994-3.856L31.768,83.335z"/>
				<linearGradient id="SVGID_18_" gradientUnits="userSpaceOnUse" x1="23.9243" y1="90.0015" x2="56.115" y2="90.0015">
					<stop  offset="0" style="stop-color:#77797C"/>
					<stop  offset="1" style="stop-color:#AF9D94"/>
				</linearGradient>
				<path style="fill:url(#SVGID_18_);" d="M25.776,88.781l7.21,1.538l-0.142,1.283l-6.164-1.315
					c-2.258-0.431-2.755-0.957-2.755-1.338c0-0.3,0.307-0.508,0.307-0.508l0.033-0.041C24.649,88.532,25.143,88.66,25.776,88.781z"
					/>
			</g>
			<g>
				<path style="fill:#2B201A;" d="M85.817,57.447l-1.281-3.792c0,0,0.226-0.276,0.979-0.477c0.753-0.201,1.582,0,1.582,0
					l1.306,3.716l-1.431,1.23L85.817,57.447z"/>
				<linearGradient id="SVGID_19_" gradientUnits="userSpaceOnUse" x1="100.2912" y1="52.0117" x2="101.0444" y2="58.9412">
					<stop  offset="0" style="stop-color:#3D3D3D"/>
					<stop  offset="1" style="stop-color:#2B201A"/>
				</linearGradient>
				<path style="fill:url(#SVGID_19_);" d="M105.928,54.761h1.632l2.059-3.565l5.021-5.599l1.28,0.979l-1.406,2.938l-2.937,3.515
					l-3.44,4.118l-0.151,1.431c0,0-0.427,1.557-1.105,1.883c-0.678,0.326-3.992,1.331-3.992,1.331s0.05,0.803-0.477,0.803
					c-0.527,0-0.778-0.854,0.276-1.205s3.64-1.456,3.64-1.456s0.954-1.306,0.728-2.009l-0.879-1.268c0,0-3.515,0-4.745,0
					s-2.31,1.117-3.364,1.117s-2.963,0-3.866,0c-0.904,0-4.444,0.45-6.528-2.951l-2.837,0.785l-0.552-1.625l3.113-0.753l1.757-0.728
					c0,0,1.18,2.235,4.2,2.773c0.586-0.586,0.867-1.475,0.867-1.475l1.159,0.297l-0.98,1.745c0,0,1.809,0,2.612,0
					s1.783-1.18,4.017-1.18C103.266,54.66,105.928,54.761,105.928,54.761z"/>
				<polygon style="fill:#2B201A;" points="105.664,54.548 105.821,56.882 106.781,57.937 108.231,57.692 108.947,56.43 
					107.421,54.453 				"/>
				<path style="fill:#2B201A;" d="M94.403,55.84l0.376-0.478c-2.569,0.004-4.549-0.909-4.549-0.909s0.64,0.734,1.488,1.154
					S94.403,55.84,94.403,55.84z"/>
				<path style="fill:#2B201A;" d="M106.176,56.656l-0.111-0.64l-5.141,0.038l-0.358-0.772v0.753l-2.674,1.149l-0.565-0.772
					l0.245,0.772c0,0-2.749,0-5.366,0s-4.067-2.73-4.067-2.73l-3.381,0.919l0.08,0.235l2.837-0.785
					c2.084,3.401,5.624,2.951,6.528,2.951c0.904,0,2.812,0,3.866,0s2.134-1.117,3.364-1.117
					C102.655,56.656,106.127,56.656,106.176,56.656z"/>
				<path style="fill:#2B201A;" d="M110.676,54.106l0.9-1.078l1.225-1.466l-2.793-0.802l-0.39,0.435l-1.015,1.757
					C109.036,53.294,109.803,53.826,110.676,54.106z"/>
			</g>
		</g>
		<g>
			<g>
				<g>
					<linearGradient id="SVGID_20_" gradientUnits="userSpaceOnUse" x1="95.7846" y1="25.2851" x2="95.7846" y2="34.2186">
						<stop  offset="4.528621e-07" style="stop-color:#FFD52D"/>
						<stop  offset="1" style="stop-color:#FF9A1A"/>
					</linearGradient>
					<path style="fill:url(#SVGID_20_);" d="M90.399,32.252c0,0,2.373-0.339,3.276,0c0.904,0.339,3.398,1.81,3.917,2.034
						c0.584,0.251,0.904,0.301,1.469-0.264c0.565-0.565,1.789-2.58,2.128-2.58s0.807,0.306,0.98,0.423
						c0.22,0.148,0.862,0.284,0.862-0.583s0.041-2.627,0.323-2.909c0.282-0.282,2.034-1.77,2.034-3.691s-2.297-6.026-2.297-6.026
						l-16.909,5.687L90.399,32.252z"/>
					<linearGradient id="SVGID_21_" gradientUnits="userSpaceOnUse" x1="98.4645" y1="19.5526" x2="97.6862" y2="29.6833">
						<stop  offset="4.528621e-07" style="stop-color:#FFD52D"/>
						<stop  offset="1" style="stop-color:#FF9A1A"/>
					</linearGradient>
					<path style="fill:url(#SVGID_21_);" d="M103.091,18.657l-11.796,3.967c-0.376,0.36-0.611,0.813-0.343,1.318
						c0.665,1.255,4.004,3.892,4.004,3.892l-0.502,2.674l1.883-1.67c0,0,0,0,0.967,0.201c0.967,0.201,2.473-0.377,2.573-0.477
						c0.1-0.1,0.05-0.753,0.05-1.645c0-0.891,0.188-1.117,0.552-1.255c0.364-0.138,1.306-0.502,1.745-0.502
						c0.439,0,0.678,0.013,1.921,0.477c0.318,0.119,0.607,0.344,0.859,0.63c0.227-0.476,0.384-1.011,0.384-1.585
						C105.388,22.762,103.091,18.657,103.091,18.657z"/>
					<path style="fill:#FF9A1A;" d="M98.571,33.96c-0.276,0.063-1.996-0.69-3.126-1.431c-1.13-0.741-0.561-1.937-0.561-1.937
						l-0.694,0.858c0,0-2.084-0.464-2.914-0.464c-0.483,0-1.053,0.11-1.445,0.203l0.568,1.065c0,0,2.373-0.339,3.276,0
						c0.904,0.339,3.398,1.81,3.917,2.034c0.584,0.251,0.904,0.301,1.469-0.264c0.062-0.062,0.132-0.142,0.207-0.233
						C98.932,33.872,98.658,33.94,98.571,33.96z"/>
					
						<radialGradient id="SVGID_22_" cx="101.0459" cy="29.6997" r="0.865" gradientTransform="matrix(1 0 0 1.387 0 -11.4963)" gradientUnits="userSpaceOnUse">
						<stop  offset="0" style="stop-color:#FF7149"/>
						<stop  offset="1" style="stop-color:#FF7149;stop-opacity:0"/>
					</radialGradient>
					<ellipse style="fill:url(#SVGID_22_);" cx="101.046" cy="29.698" rx="0.868" ry="1.287"/>
					<g>
						<path style="fill:#2B201A;" d="M99.795,33.172c-0.358-0.306-0.653-0.62-0.919-0.982c-0.256-0.352-0.487-0.775-0.48-1.205
							c0.148,0.399,0.467,0.661,0.796,0.882c0.328,0.216,0.706,0.398,1.056,0.523L99.795,33.172z"/>
					</g>
					<path style="fill:#2B201A;" d="M103.67,27.78c0,0,0.468-0.25,0.37-0.5c-0.098-0.25-1.053-0.954-1.891-0.877
						s-0.633,0.138-0.633,0.138s1.642,0.392,1.827,0.729c0.185,0.337,0.044,0.37,0.044,0.37L103.67,27.78z"/>
					<path style="fill:#2B201A;" d="M102.414,28.622c-0.159,0.17-0.317,0.215-0.317,0.215l-1.156-0.981
						c0.533-0.186,1.625-0.314,2.116-0.097l-0.371,0.194C102.686,27.954,102.572,28.452,102.414,28.622"/>
				</g>
				<linearGradient id="SVGID_23_" gradientUnits="userSpaceOnUse" x1="98.2952" y1="26.9777" x2="106.2223" y2="26.9777">
					<stop  offset="0" style="stop-color:#7AD4F8;stop-opacity:0.2"/>
					<stop  offset="0.1742" style="stop-color:#72CEF9;stop-opacity:0.2523"/>
					<stop  offset="0.4377" style="stop-color:#5EBEFA;stop-opacity:0.3313"/>
					<stop  offset="0.7561" style="stop-color:#3CA3FD;stop-opacity:0.4268"/>
					<stop  offset="1" style="stop-color:#1D8BFF;stop-opacity:0.5"/>
				</linearGradient>
				<path style="fill:url(#SVGID_23_);" d="M97.894,27.865c0,0,2.41,2.467,2.975,2.693c0.565,0.226,3.352-0.766,3.352-0.766
					s2.034-1.757,2.824-3.942l-0.339-1.544l-5.159-0.942l-3.276,1.28L97.894,27.865z"/>
				<polygon style="fill:#582D24;" points="88.78,24.306 87.537,22.009 87.951,20.615 92.395,19.561 97.668,19.561 92.602,24.118 
									"/>
				<path style="fill:#3D3D3D;" d="M97.027,27.865c0,0-2.461,2.04-2.737,4.663l-1.406-0.351c0,0,0.377-3.465,2.448-5.122
					L97.027,27.865z"/>
				<linearGradient id="SVGID_24_" gradientUnits="userSpaceOnUse" x1="96.554" y1="13.7987" x2="96.554" y2="27.121">
					<stop  offset="0" style="stop-color:#368EC4"/>
					<stop  offset="1" style="stop-color:#005686"/>
				</linearGradient>
				<path style="fill:url(#SVGID_24_);" d="M93.224,12.631c11.223,0,14.117,6.93,14.117,10.806c0,1.03-0.141,1.884-0.296,2.412
					c0,0-4.487-1.368-4.848-1.368c-0.312,0-0.623,0.061-0.917,0.181l-0.982,0.404c-1.028,0.423-0.974,1.361-0.974,2.769
					c0,0.178-0.679,0.304-1.486,0.304c-4.911,0-6.332-6.087-9.134-7.674c-1.13-0.64-2.937-1.38-2.937-2.749
					C85.767,15.945,88.177,12.631,93.224,12.631z"/>
				
					<radialGradient id="SVGID_25_" cx="94.2876" cy="15.0815" r="5.5653" fx="94.2939" fy="12.1956" gradientTransform="matrix(1 0 0 0.3279 0 10.1343)" gradientUnits="userSpaceOnUse">
					<stop  offset="0" style="stop-color:#42A2DA"/>
					<stop  offset="1" style="stop-color:#42A2DA;stop-opacity:0"/>
				</radialGradient>
				<ellipse style="fill:url(#SVGID_25_);" cx="94.288" cy="15.079" rx="5.583" ry="1.996"/>
			</g>
			<g>
				<g>
					<linearGradient id="SVGID_26_" gradientUnits="userSpaceOnUse" x1="55.8234" y1="61.7261" x2="50.8522" y2="88.0507">
						<stop  offset="4.528621e-07" style="stop-color:#FFD52D"/>
						<stop  offset="1" style="stop-color:#FF9A1A"/>
					</linearGradient>
					<path style="fill:url(#SVGID_26_);" d="M48.556,60.842c1.074,2.022,2.028,3.7,2.464,4.414c1.105,1.808,1.162,3.583,1.105,4.519
						c-0.063,1.017-0.251,1.456-0.251,1.456s-2.661,3.766-3.465,6.879c-0.415,1.607-1.163,5.954-1.791,9.786l6.253,1.193
						c0.519-1.715,1.142-3.514,1.865-5.155c2.41-5.473,4.517-9.815,6.126-12.001c0,0,1.234-1.508,0.933-4.169
						c-0.173-1.525-0.585-5.768-1.19-10.191L48.556,60.842z"/>
					<linearGradient id="SVGID_27_" gradientUnits="userSpaceOnUse" x1="54.7072" y1="74.3289" x2="52.5982" y2="74.2536">
						<stop  offset="4.528621e-07" style="stop-color:#FF9A1A;stop-opacity:0"/>
						<stop  offset="1" style="stop-color:#FF9A1A"/>
					</linearGradient>
					<path style="opacity:0.7002;fill:url(#SVGID_27_);" d="M55.037,70.591c0.339-0.904-0.188-3.05-1.478-8.241l-2.425-2.207
						l-2.578,0.699c1.074,2.022,2.028,3.7,2.464,4.414c1.105,1.808,1.162,3.583,1.105,4.519c-0.063,1.017-0.251,1.456-0.251,1.456
						s-2.661,3.766-3.465,6.879c-0.415,1.607-1.163,5.954-1.791,9.786l1.307,0.25c0.092-0.265,0.172-0.556,0.234-0.883
						c0.737-3.92,1.757-10.12,3.075-12.605S54.698,71.494,55.037,70.591z"/>
					<linearGradient id="SVGID_28_" gradientUnits="userSpaceOnUse" x1="57.8904" y1="74.6166" x2="58.3625" y2="73.1331">
						<stop  offset="4.528621e-07" style="stop-color:#FF9A1A;stop-opacity:0"/>
						<stop  offset="1" style="stop-color:#FF9A1A"/>
					</linearGradient>
					<path style="fill:url(#SVGID_28_);" d="M60.13,72.605c-1.477,0.726-3.36,0.508-3.36,0.508s0.151,1.77,0.979,1.469
						C58.577,74.281,60.13,72.605,60.13,72.605z"/>
				</g>
				
					<rect x="48.347" y="105.762" transform="matrix(0.9346 0.3558 -0.3558 0.9346 41.4186 -11.3236)" style="fill:#890000;" width="6.289" height="2.338"/>
				<g>
					<linearGradient id="SVGID_29_" gradientUnits="userSpaceOnUse" x1="46.146" y1="88.8317" x2="52.2469" y2="109.5448">
						<stop  offset="0" style="stop-color:#368EC4"/>
						<stop  offset="1" style="stop-color:#005686"/>
					</linearGradient>
					<path style="fill:url(#SVGID_29_);" d="M53.324,87.657c-1.504,4.55-2.304,8.982-2.304,8.982c0,1.456,1.506,2.963,2.611,5.272
						c1.105,2.31,4.846,3.691,5.323,4.168c0.477,0.477,0.251,1.908,0.251,1.908s-3.666,0.552-6.226,0s-4.092-2.385-5.574-3.866
						s-1.004,0.151-3.013-1.205c-2.009-1.356-2.862-2.712-2.862-3.314c0-0.603,1.306-2.912,1.657-3.917
						c0.351-1.004,2.36-1.055,2.36-1.055s0.667-4.341,1.389-8.656h0c0.23,0.999,1.473,1.488,2.979,1.94
						C51.422,88.366,52.747,88.235,53.324,87.657L53.324,87.657z"/>
					<linearGradient id="SVGID_30_" gradientUnits="userSpaceOnUse" x1="49.1214" y1="86.9207" x2="50.7201" y2="107.5703">
						<stop  offset="0" style="stop-color:#368EC4"/>
						<stop  offset="1" style="stop-color:#003C5A"/>
					</linearGradient>
					<path style="fill:url(#SVGID_30_);" d="M53.33,106.23l0.452-1.306l-1.506,1.054l0.703-2.109
						c-0.954,0.352-1.908,1.657-1.908,1.657c-1.582-1.582-3.716-3.063-5.674-3.666s-2.159-2.009-2.159-2.009s1.08-2.887,1.757-3.565
						c0.678-0.678,3.314,0,3.314,0l-1.205-0.703c0,0,0,0,0-1.707c0-1.331,0.733-5.043,1.055-6.614
						c-0.64-0.324-1.093-0.725-1.223-1.289h0c-0.723,4.315-1.389,8.656-1.389,8.656s-2.009,0.051-2.36,1.055
						c-0.352,1.004-1.657,3.314-1.657,3.917c0,0.603,0.854,1.958,2.862,3.314c2.008,1.356,1.531-0.276,3.013,1.205
						c1.481,1.481,3.013,3.314,5.574,3.866c2.561,0.552,6.226,0,6.226,0s0.173-1.097-0.104-1.691
						C55.361,106.865,53.33,106.23,53.33,106.23z"/>
				</g>
			</g>
			<g>
				<g>
					<linearGradient id="SVGID_31_" gradientUnits="userSpaceOnUse" x1="96.3441" y1="42.6438" x2="95.4026" y2="54.4315">
						<stop  offset="4.528621e-07" style="stop-color:#FFD52D"/>
						<stop  offset="1" style="stop-color:#FF9A1A"/>
					</linearGradient>
					<path style="fill:url(#SVGID_31_);" d="M84.083,41.605c0.908,3.368,3.555,10.206,5.049,11.7c0,0,5.774,0.402,9.44-0.05
						c3.666-0.452,7.883-1.506,9.39-1.506l-0.502-4.218c0,0-3.201,0.126-6.063,0.389s-4.557-0.49-6.967-0.678l-1.431,0.075
						c0,0-0.075-3.088-1.054-5.461c-0.33-0.799-0.51-1.467-0.593-2.082L84.083,41.605z"/>
					<linearGradient id="SVGID_32_" gradientUnits="userSpaceOnUse" x1="90.8466" y1="44.6155" x2="91.9388" y2="48.5698">
						<stop  offset="0.1766" style="stop-color:#DE721E;stop-opacity:0"/>
						<stop  offset="1" style="stop-color:#FF9A1A"/>
					</linearGradient>
					<path style="opacity:0.6229;fill:url(#SVGID_32_);" d="M90.663,50.744c1.582-1.054,2.335-3.427,2.335-3.427
						s-0.032-1.315-0.327-2.888C92.671,47.716,90.663,50.744,90.663,50.744z"/>
					<linearGradient id="SVGID_33_" gradientUnits="userSpaceOnUse" x1="96.6735" y1="43.3894" x2="95.6593" y2="52.8663">
						<stop  offset="4.528621e-07" style="stop-color:#FF9A1A;stop-opacity:0"/>
						<stop  offset="1" style="stop-color:#FF9A1A"/>
					</linearGradient>
					<path style="fill:url(#SVGID_33_);" d="M95.446,52.25c-3.013,0.414-6.402-0.237-6.402-0.237s-2.034-4.508-3.005-8.354
						l-1.515-0.57c1.142,3.585,3.31,8.917,4.608,10.215c0,0,5.774,0.402,9.44-0.05c3.666-0.452,7.883-1.506,9.39-1.506l-0.1-0.843
						c-0.419-0.065-0.941-0.102-1.588-0.102C100.152,50.803,98.458,51.836,95.446,52.25z"/>
				</g>
				<g>
					<linearGradient id="SVGID_34_" gradientUnits="userSpaceOnUse" x1="115.7281" y1="48.2898" x2="114.5795" y2="50.6248">
						<stop  offset="4.528621e-07" style="stop-color:#FFD52D"/>
						<stop  offset="1" style="stop-color:#FF9A1A"/>
					</linearGradient>
					<path style="fill:url(#SVGID_34_);" d="M113.585,51.999c0,0,0.741,0.226,1.067-1.13c0,0,1.004,0.038,0.829-1.218
						c0,0,0.766-0.264,0.866-0.803c0.1-0.54,0.113-0.515-0.063-0.69c-0.176-0.176-0.49-0.665-0.967-0.904L113.585,51.999z"/>
					<path style="fill:#FF9A1A;" d="M116.16,49.21c-0.137-0.107-0.292-0.229-0.464-0.366c-0.762-0.606-0.668,0.43-0.668,0.43
						c0.136,0.113,0.296,0.249,0.452,0.383c0-0.002,0-0.004-0.001-0.006C115.481,49.651,115.902,49.506,116.16,49.21z"/>
					<path style="fill:#FF9A1A;" d="M115.434,50.341c-0.12-0.041-0.26-0.08-0.42-0.11l-0.796,0.362l0.207,0.621h0.123
						c0.038-0.102,0.072-0.216,0.103-0.345C114.652,50.869,115.236,50.889,115.434,50.341z"/>
				</g>
				<g>
					<linearGradient id="SVGID_35_" gradientUnits="userSpaceOnUse" x1="114.591" y1="44.9206" x2="114.4027" y2="46.0881">
						<stop  offset="4.528621e-07" style="stop-color:#FFD52D"/>
						<stop  offset="1" style="stop-color:#FF9A1A"/>
					</linearGradient>
					<path style="fill:url(#SVGID_35_);" d="M113.346,46.438c0,0,1.494-0.213,2.059-0.389c0.565-0.176,0.653-0.301,0.703-0.603
						c0.05-0.301-0.239-0.54-0.954-0.464s-1.569,0.276-2.209,0.213L113.346,46.438z"/>
					<path style="fill:#FF9A1A;" d="M115.405,46.049c0.56-0.174,0.651-0.299,0.702-0.595c-0.583,0.273-1.542,0.386-2.224,0.449
						l-0.623,0.267l0.123,0.262C113.614,46.399,114.892,46.208,115.405,46.049z"/>
				</g>
				<g>
					<linearGradient id="SVGID_36_" gradientUnits="userSpaceOnUse" x1="110.7223" y1="45.3765" x2="111.2495" y2="53.0028">
						<stop  offset="0" style="stop-color:#368EC4"/>
						<stop  offset="1" style="stop-color:#005686"/>
					</linearGradient>
					<path style="fill:url(#SVGID_36_);" d="M106.138,51.958c0.771-0.128,1.403-0.21,1.823-0.21c0,0,0.854,1.205,2.661,1.205
						s2.46,0.1,2.963-0.954c0,0,0.741,0.226,1.067-1.13c0,0,0.151-0.427,0.377-0.653c0.226-0.226,0-0.942,0-0.942
						s0.32-0.019,0.565-0.264s0.331-1.27,0.331-1.27l0,0c-0.162-0.178-0.363-0.366-0.607-0.488
						c-0.477-0.239-0.941-0.703-1.971-0.816c0,0,0.226-0.032,0.536-0.082l0,0v-1.198l0,0c-0.334,0.041-0.657,0.065-0.938,0.037
						c-0.64-0.063-1.306-0.138-2.071,0.628c-0.766,0.766-1.218,0.552-1.908,0.929c-0.69,0.377-1.506,0.778-1.506,0.778
						s-0.627,0.025-1.574,0.075v0c0,0,0.406,1.444,0.406,2.536S106.138,51.958,106.138,51.958z"/>
					<g>
						<linearGradient id="SVGID_37_" gradientUnits="userSpaceOnUse" x1="110.1465" y1="47.3309" x2="110.6794" y2="51.9937">
							<stop  offset="0" style="stop-color:#368EC4"/>
							<stop  offset="1" style="stop-color:#003C5A"/>
						</linearGradient>
						<path style="fill:url(#SVGID_37_);" d="M115.015,50.231l-2.07,0.276l0.992,0.236c-0.32,0.847-1.789,0.565-1.789,0.565
							l0.716,0.395c0,0-2.052,0.207-3.201,0c-1.149-0.207-1.701-2.486-1.701-2.486c0.144,0.527,0,1.356,0,1.356l-1.689,0.229
							c-0.041,0.713-0.134,1.155-0.134,1.155c0.771-0.128,1.403-0.21,1.823-0.21c0,0,0.854,1.205,2.661,1.205s2.46,0.1,2.963-0.954
							c0,0,0.741,0.226,1.067-1.13C114.652,50.869,114.797,50.46,115.015,50.231z"/>
						<path style="fill:#005686;" d="M114.219,48.672l0.81,0.603c0,0,0.32-0.019,0.565-0.264c0.038-0.038,0.072-0.097,0.103-0.166
							C114.879,48.449,114.219,48.672,114.219,48.672z"/>
					</g>
					<path style="fill:#003C5A;" d="M113.883,46.355L113.883,46.355v-0.453c-0.323,0.033-0.799,0.077-1.057,0.077
						c-0.414,0-1.017,0.458-1.017,0.458s0.859-0.143,1.538,0C113.346,46.438,113.573,46.405,113.883,46.355z"/>
				</g>
			</g>
			<g>
				<linearGradient id="SVGID_38_" gradientUnits="userSpaceOnUse" x1="61.7008" y1="20.5497" x2="71.0406" y2="58.3608">
					<stop  offset="0" style="stop-color:#368EC4"/>
					<stop  offset="1" style="stop-color:#005686"/>
				</linearGradient>
				<path style="fill:url(#SVGID_38_);" d="M60.853,59.458c-0.896,0.896-3.481,2.396-5.477,2.621s-3.352,0.603-4.143,0.791
					c-0.791,0.188-1.534-0.12-1.78-0.366l0,0c-1.769-3.225-4.322-8.193-5.262-11.158c-1.306-4.118-4.443-7.407-4.443-11.274
					c0-5.485,7.531-15.428,22.03-19.081c11.108-2.799,16.758-1.318,19.093-0.791c2.335,0.527,4.143-0.226,6.703,1.356
					c2.561,1.582,1.996,5.084,1.996,5.084c1.958,3.088,2.335,7.457,2.034,9.541c-0.301,2.084-0.64,3.302,0.339,5.674
					c-0.753,0.753-2.824,1.958-4.406,1.958c-1.582,0-2.966-0.574-2.966-0.574l-0.002-0.005c-0.384-1.194-0.661-2.208-0.761-2.836
					c-0.402-2.511-1.356-3.666-1.356-3.666s-2.674,3.04-6.402,3.04c-2.912,0-5.046-2.664-9.666-2.337
					c-1.964,0.139-5.048,1.153-6.601,2.337c-1.643,1.254-3.09,2.534-3.09,2.534s0.603,0.377,2.26,6.126
					C59.788,51.33,60.365,55.618,60.853,59.458L60.853,59.458z"/>
				<linearGradient id="SVGID_39_" gradientUnits="userSpaceOnUse" x1="70.4344" y1="19.5921" x2="70.4344" y2="40.1093">
					<stop  offset="0.3593" style="stop-color:#368EC4"/>
					<stop  offset="1" style="stop-color:#003C5A"/>
				</linearGradient>
				<path style="fill:url(#SVGID_39_);" d="M85.366,37.562c-0.577-2.335-1.732-3.816-3.967-4.72
					c-2.234-0.904-4.632,0.464-4.632,0.464c1.423,0.417,2.765,0.901,3.945,1.737c-1.11,1.733-3.081,4.351-4.862,4.351
					c-4.143,0-4.161-4.157-9.854-3.565c-5.436,0.565-7.789-1.016-9.856-0.531c0.753,3.201-1.31,4.814-1.31,4.814
					c1.262,1.186,1.864,2.194,1.864,2.194s1.447-1.28,3.09-2.534c1.553-1.185,4.637-2.199,6.601-2.337
					c4.62-0.326,6.754,2.337,9.666,2.337c3.728,0,6.402-3.04,6.402-3.04s0.954,1.155,1.356,3.666c0.1,0.628,0.377,1.641,0.761,2.836
					l0.002,0.005c0,0,0.604,0.249,1.467,0.419C85.744,41.299,85.724,39.014,85.366,37.562z"/>
				<linearGradient id="SVGID_40_" gradientUnits="userSpaceOnUse" x1="47.6143" y1="47.93" x2="43.7064" y2="61.963">
					<stop  offset="0" style="stop-color:#005686;stop-opacity:0.7"/>
					<stop  offset="1" style="stop-color:#003C5A"/>
				</linearGradient>
				<path style="opacity:0.7;fill:url(#SVGID_40_);" d="M46.2,48.735c-3.941-2.239-6.295-5.269-6.444-8.352
					c0.161,3.733,3.165,6.956,4.435,10.963c0.94,2.964,3.493,7.933,5.262,11.158l0,0c0.246,0.246,0.989,0.555,1.78,0.366
					c0.522-0.124,1.291-0.33,2.325-0.521C52.08,56.589,49.373,50.538,46.2,48.735z"/>
				<linearGradient id="SVGID_41_" gradientUnits="userSpaceOnUse" x1="85.0527" y1="20.3418" x2="85.2787" y2="25.6143">
					<stop  offset="0" style="stop-color:#368EC4"/>
					<stop  offset="0.9219" style="stop-color:#005686"/>
				</linearGradient>
				<path style="fill:url(#SVGID_41_);" d="M87.575,21.557c-0.395-0.244-0.772-0.432-1.135-0.578l-5.681,0.503
					c5.988,1.205,8.812,5.159,8.812,5.159S90.136,23.138,87.575,21.557z"/>
			</g>
			<g>
				<linearGradient id="SVGID_42_" gradientUnits="userSpaceOnUse" x1="79.5154" y1="16.0316" x2="79.1113" y2="19.8918">
					<stop  offset="4.528621e-07" style="stop-color:#89542E"/>
					<stop  offset="1" style="stop-color:#582D24"/>
				</linearGradient>
				<path style="fill:url(#SVGID_42_);" d="M70.653,18.017c0,0,6.678-2.938,11.549-1.72c4.052,1.013,5.523,3.979,5.523,3.979
					l-0.61,1.017c0,0-5.344,0.495-6.319-0.188C79.189,19.978,72.197,18.205,70.653,18.017z"/>
				<polygon style="fill:#FF5D3D;" points="87.806,19.978 88.705,20.465 87.683,21.646 87.115,21.293 				"/>
			</g>
		</g>
		<g>
			<path style="fill:#2B201A;" d="M91.115,55.037c0,0,1.757-0.577,3.038-0.778c1.28-0.201,3.49-0.276,3.49-0.276
				s0.753-4.118-3.44-3.716C90.01,50.668,91.115,55.037,91.115,55.037z"/>
			<path style="fill:#77797C;" d="M94.027,50.744c2.607-0.438,3.385,2.148,3.596,3.239c0.012,0,0.019-0.001,0.019-0.001
				s0.753-4.118-3.44-3.716c-1.85,0.177-2.668,1.127-3.005,2.133C91.689,51.699,92.543,50.993,94.027,50.744z"/>
		</g>
	</g>
</g>
<g id="Layer_1">
</g>
</svg>
