<?xml version="1.0" encoding="iso-8859-1"?>
<!-- Generator: Adobe Illustrator 24.1.2, SVG Export Plug-In . SVG Version: 6.00 Build 0)  -->
<svg version="1.1" xmlns="http://www.w3.org/2000/svg" xmlns:xlink="http://www.w3.org/1999/xlink" x="0px" y="0px"
	 viewBox="0 0 128 128" style="enable-background:new 0 0 128 128;" xml:space="preserve">
<g id="_x31_F6D1">
	<g id="_x31_F6D1_1_">
		<g>
			<linearGradient id="SVGID_1_" gradientUnits="userSpaceOnUse" x1="64" y1="8.9789" x2="64" y2="118.6598">
				<stop  offset="0" style="stop-color:#F4F5F6"/>
				<stop  offset="1" style="stop-color:#D1D4D4"/>
			</linearGradient>
			<path style="fill:url(#SVGID_1_);" d="M41.927,126.882c-2.562,0-4.97-0.998-6.783-2.81L3.929,92.855
				c-1.812-1.812-2.809-4.221-2.809-6.782V41.927c0-2.562,0.998-4.971,2.809-6.783L35.145,3.928
				c1.812-1.812,4.221-2.809,6.783-2.809h44.145c2.563,0,4.972,0.998,6.782,2.809l31.216,31.216c1.812,1.811,2.81,4.22,2.81,6.783
				v44.146c0,2.563-0.998,4.971-2.81,6.782l-31.216,31.217c-1.812,1.812-4.22,2.81-6.782,2.81H41.927z"/>
			<path style="fill:#D1D4D4;" d="M86.073,2.184c2.277,0,4.419,0.887,6.029,2.497l31.216,31.216c1.61,1.61,2.497,3.751,2.497,6.029
				v44.147c0,2.277-0.887,4.418-2.497,6.029l-31.216,31.216c-1.61,1.61-3.751,2.497-6.029,2.497H41.927
				c-2.277,0-4.419-0.887-6.029-2.497L4.683,92.102c-1.61-1.61-2.497-3.751-2.497-6.029V41.927c0-2.277,0.887-4.418,2.497-6.029
				L35.898,4.681c1.61-1.61,3.751-2.497,6.029-2.497H86.073 M86.073,0.053H41.927c-2.827,0-5.537,1.123-7.536,3.122L3.176,34.391
				c-1.999,1.999-3.121,4.709-3.121,7.536v44.147c0,2.827,1.123,5.537,3.121,7.536l31.216,31.216
				c1.999,1.999,4.71,3.122,7.536,3.122h44.145c2.827,0,5.537-1.123,7.536-3.122l31.216-31.216c1.999-1.999,3.121-4.709,3.121-7.536
				V41.927c0-2.827-1.123-5.537-3.121-7.536L93.609,3.174C91.61,1.176,88.899,0.053,86.073,0.053L86.073,0.053z"/>
		</g>
		<linearGradient id="SVGID_2_" gradientUnits="userSpaceOnUse" x1="64" y1="20.3604" x2="64" y2="171.2153">
			<stop  offset="0.2398" style="stop-color:#C70300"/>
			<stop  offset="0.3838" style="stop-color:#CA0803"/>
			<stop  offset="0.5546" style="stop-color:#D3160D"/>
			<stop  offset="0.739" style="stop-color:#E22E1D"/>
			<stop  offset="0.9317" style="stop-color:#F74F34"/>
			<stop  offset="1" style="stop-color:#FF5D3D"/>
		</linearGradient>
		<path style="fill:url(#SVGID_2_);" d="M82.431,13.109H45.569c-1.696,0-3.322,0.674-4.522,1.873L14.983,41.047
			c-1.199,1.199-1.873,2.826-1.873,4.522v36.863c0,1.696,0.674,3.322,1.873,4.522l26.065,26.066
			c1.199,1.199,2.826,1.873,4.522,1.873h36.861c1.696,0,3.322-0.674,4.522-1.873l26.065-26.066c1.199-1.199,1.873-2.826,1.873-4.522
			V45.569c0-1.696-0.674-3.322-1.873-4.522L86.952,14.982C85.753,13.782,84.127,13.109,82.431,13.109z"/>
	</g>
</g>
<g id="Layer_1">
</g>
</svg>
