<?xml version="1.0" encoding="iso-8859-1"?>
<!-- Generator: Adobe Illustrator 24.1.2, SVG Export Plug-In . SVG Version: 6.00 Build 0)  -->
<svg version="1.1" xmlns="http://www.w3.org/2000/svg" xmlns:xlink="http://www.w3.org/1999/xlink" x="0px" y="0px"
	 viewBox="0 0 128 128" style="enable-background:new 0 0 128 128;" xml:space="preserve">
<symbol  id="Smiley_shape" viewBox="-57.587 -60 115.173 120">
	<linearGradient id="SVGID_1_" gradientUnits="userSpaceOnUse" x1="0" y1="-60" x2="7.347880e-15" y2="60">
		<stop  offset="0" style="stop-color:#FF9A1A"/>
		<stop  offset="1" style="stop-color:#FFD52D"/>
	</linearGradient>
	<path style="fill:url(#SVGID_1_);" d="M51.962,30C44.462,42.99,18,60,0,60s-44.462-17.01-51.962-30s-7.5-47.01,0-60S-18-60,0-60
		s44.462,17.01,51.962,30S59.462,17.01,51.962,30z"/>
</symbol>
<symbol  id="Standard_eyes" viewBox="-28 -12 56 24">
	<g>
		<path style="fill:#2B201A;" d="M-20-12L-20-12c-4.418,0-8,3.582-8,8v8c0,4.418,3.582,8,8,8h0c4.418,0,8-3.582,8-8v-8
			C-12-8.418-15.582-12-20-12z"/>
		<circle style="fill:#AF9D94;" cx="-17" cy="7" r="3"/>
	</g>
	<g>
		<path style="fill:#2B201A;" d="M20-12L20-12c-4.418,0-8,3.582-8,8v8c0,4.418,3.582,8,8,8h0c4.418,0,8-3.582,8-8v-8
			C28-8.418,24.418-12,20-12z"/>
		<circle style="fill:#AF9D94;" cx="23" cy="7" r="3"/>
	</g>
</symbol>
<g id="_x31_F914">
	<g id="_x31_F914_1_">
		
			<use xlink:href="#Smiley_shape"  width="115.173" height="120" x="-57.587" y="-60" transform="matrix(1.0658 0 0 -1.0658 64 64)" style="overflow:visible;"/>
		
			<radialGradient id="SVGID_2_" cx="25.3725" cy="108.7209" r="53.9743" gradientTransform="matrix(0.8097 0.5869 -0.3602 0.497 43.9933 39.7964)" gradientUnits="userSpaceOnUse">
			<stop  offset="0" style="stop-color:#DE721E"/>
			<stop  offset="1" style="stop-color:#DE721E;stop-opacity:0"/>
		</radialGradient>
		<path style="fill:url(#SVGID_2_);" d="M8.621,32.026c-7.993,13.845-7.993,50.102,0,63.947S44.816,127.947,64,127.947
			s47.385-18.129,55.379-31.974S16.615,18.181,8.621,32.026z"/>
		
			<use xlink:href="#Standard_eyes"  width="56" height="24" x="-28" y="-12" transform="matrix(1.061 0.1002 0.1002 -1.0611 58.544 43.2341)" style="overflow:visible;"/>
		<path style="fill:#2B201A;" d="M98.253,27.112c0.25-1.018-8.322-10.196-16.544-12.218c-5.54-1.362-9.672,0.474-10.193,2.594
			c-0.313,1.272,0.774,1.946,1.283,2.071c0.554,0.136,3.202-0.473,8.757,0.893c8.226,2.023,14.985,6.848,15.952,7.086
			C98.055,27.673,98.236,27.181,98.253,27.112z"/>
		<path style="fill:#2B201A;" d="M21.486,27.751c0.236-1.021,12.027-5.343,20.277-3.436c5.558,1.285,8.417,4.788,7.926,6.916
			c-0.295,1.277-1.568,1.387-2.079,1.269c-0.556-0.128-2.644-1.868-8.217-3.155c-8.254-1.907-16.463-0.651-17.433-0.876
			C21.409,28.342,21.47,27.82,21.486,27.751z"/>
		<g>
			<path style="fill:#DE721E;" d="M39.894,74.629c0,0-0.069,4.897,3.524,5.77c5.623,1.365,7.684-0.847,16.538-0.608
				c12.147,0.328,24.34,7.233,26.183,7.38c1.843,0.147,2.505-1.401,2.621-2.844L66.817,73.258l-19.248-0.489L39.894,74.629z"/>
			<path style="fill:#2B201A;" d="M62.252,67.071c-10.641-0.779-22.148,4.156-22.403,7.633c-0.121,1.656,1.106,3.368,2.931,3.502
				c1.441,0.106,5.273-1.75,13.118-1.176c17.361,1.271,29.504,8.942,30.839,9.04c1.17,0.086,2.197-0.851,2.279-1.982
				C89.101,82.937,81.317,68.467,62.252,67.071z"/>
		</g>
		<g>
			<linearGradient id="SVGID_3_" gradientUnits="userSpaceOnUse" x1="44.3555" y1="88.0358" x2="52.425" y2="127.9993">
				<stop  offset="4.528621e-07" style="stop-color:#DE721E"/>
				<stop  offset="1" style="stop-color:#DE721E;stop-opacity:0"/>
			</linearGradient>
			<path style="fill:url(#SVGID_3_);" d="M20.403,93.343l-2.697,13.449c9.146,8.205,22.378,15.995,34.495,19.383
				c6.051-5.542,8.013-14.183,8.618-17.566c1.013-5.674-0.548-12.541-0.548-12.541s10.343-1.239,13.767-5.36
				c1.101-1.325,0.427-4.301,0.427-4.301L20.403,93.343z"/>
			<linearGradient id="SVGID_4_" gradientUnits="userSpaceOnUse" x1="32.7836" y1="64.5317" x2="35.0318" y2="94.4323">
				<stop  offset="4.528621e-07" style="stop-color:#DE721E"/>
				<stop  offset="1" style="stop-color:#DE721E;stop-opacity:0"/>
			</linearGradient>
			<path style="fill:url(#SVGID_4_);" d="M35.223,63.96c2.088,0,3.98,4.322,3.777,10.942c-0.203,6.62-2.297,16.752-2.297,16.752
				l-7.633-1.959L35.223,63.96z"/>
			<linearGradient id="SVGID_5_" gradientUnits="userSpaceOnUse" x1="40.9072" y1="71.9902" x2="35.4564" y2="129.9958">
				<stop  offset="4.528621e-07" style="stop-color:#FFD52D"/>
				<stop  offset="1" style="stop-color:#FF9A1A"/>
			</linearGradient>
			<path style="fill:url(#SVGID_5_);" d="M74.687,86.408c0-4.373-8.393-3.954-8.795-3.954c-8.447,0-21.792,2.373-32.927,3.396
				c2.908-7.033,4.499-12.228,4.499-16.225c0-0.088-0.044-5.666-2.241-5.666c-1.191,0-2.817,1.681-4.825,5.425
				C20.914,87.073,2.626,85.825,2.626,106.98c0,6.339,4.58,20.968,23.497,20.968c3.827,0,7.468-0.584,10.313-1.273
				c13.226-2.536,15.519-9.63,16.86-14.123c0.391-1.311,3.127-5.302,3.127-11.976c0-6.309-6.338-5.897-6.619-5.897
				c-0.646,0-1.344,0.047-2.099,0.148C57.135,93.091,74.687,90.838,74.687,86.408z"/>
		</g>
	</g>
</g>
<g id="Layer_1">
</g>
</svg>
