<?xml version="1.0" encoding="iso-8859-1"?>
<!-- Generator: Adobe Illustrator 24.1.2, SVG Export Plug-In . SVG Version: 6.00 Build 0)  -->
<svg version="1.1" xmlns="http://www.w3.org/2000/svg" xmlns:xlink="http://www.w3.org/1999/xlink" x="0px" y="0px"
	 viewBox="0 0 128 128" style="enable-background:new 0 0 128 128;" xml:space="preserve">
<g id="_x31_F91D">
	<g id="_x31_F91D_1_">
		<linearGradient id="SVGID_1_" gradientUnits="userSpaceOnUse" x1="55.6483" y1="18.5905" x2="55.6483" y2="101.5317">
			<stop  offset="4.528621e-07" style="stop-color:#FFD52D"/>
			<stop  offset="1" style="stop-color:#FF9A1A"/>
		</linearGradient>
		<path style="fill:url(#SVGID_1_);" d="M14.84,18.112L0.054,57.669c0,0,19.39,6.73,27.609,21.937
			c11.535,7.522,37.892,25.06,43.011,24.822c5.863,1.447,13.836-1.821,12.394-6.385c5.752,2.698,13.705-2.812,10.905-8.588
			c5.199,2.532,11.864-4.621,8.941-9.415c4.034,0.928,10.947-5.599,7.299-11.482c-0.483-4.496-38.651-36.772-38.651-36.772
			s-9.357-7.598-19.861-7.598s-11.332,2.487-18.882,2.487S14.84,18.112,14.84,18.112z"/>
		
			<radialGradient id="SVGID_2_" cx="51.3013" cy="38.8513" r="16.1292" gradientTransform="matrix(0.9403 0.3403 -0.4807 1.3285 21.7385 -30.2224)" gradientUnits="userSpaceOnUse">
			<stop  offset="0" style="stop-color:#FF9A1A"/>
			<stop  offset="1" style="stop-color:#FF9A1A;stop-opacity:0"/>
		</radialGradient>
		<path style="fill:url(#SVGID_2_);" d="M47.302,54.312c8.355,0,15.129-8.355,15.129-18.662c0-3.684-0.877-7.109-2.371-10.002
			c-2.58-0.857-5.42-1.462-8.359-1.462c-9.9,0-11.21,2.207-17.649,2.461c-1.195,2.67-1.879,5.737-1.879,9.003
			C32.174,45.957,38.947,54.312,47.302,54.312z"/>
		
			<radialGradient id="SVGID_3_" cx="52.8763" cy="83.2844" r="34.8864" gradientTransform="matrix(0.8268 0.5625 -0.2906 0.4271 33.3612 17.9649)" gradientUnits="userSpaceOnUse">
			<stop  offset="0" style="stop-color:#FF9A1A"/>
			<stop  offset="1" style="stop-color:#FF9A1A;stop-opacity:0"/>
		</radialGradient>
		<path style="fill:url(#SVGID_3_);" d="M63.123,66.794c-15.831-10.93-32.773-13.839-37.841-6.497
			c-3.564,5.163-0.3,14.02,7.452,22.623c10.502,6.862,26.19,17.006,34.014,20.374c7.299,1.455,13.209,0.426,15.862-3.417
			c0.235-0.34,0.43-0.702,0.607-1.073c-0.023-0.25-0.066-0.503-0.148-0.762c0.133,0.062,0.268,0.116,0.403,0.169
			C86.404,90.46,77.836,76.952,63.123,66.794z"/>
		<g style="opacity:0.5;">
			
				<radialGradient id="SVGID_4_" cx="5867.5083" cy="3207.96" r="4.67" gradientTransform="matrix(-0.5681 0.8229 -0.4306 -0.2973 4794.1035 -3822.1372)" gradientUnits="userSpaceOnUse">
				<stop  offset="4.528621e-07" style="stop-color:#FF7149"/>
				<stop  offset="1" style="stop-color:#FF7149;stop-opacity:0"/>
			</radialGradient>
			<path style="fill:url(#SVGID_4_);" d="M76.339,56.762c-1.151-0.795-0.852-3.223,0.667-5.424c1.519-2.201,3.684-3.341,4.835-2.546
				c1.151,0.795,0.852,3.223-0.667,5.424C79.654,56.417,77.49,57.557,76.339,56.762z"/>
			
				<radialGradient id="SVGID_5_" cx="5882.8999" cy="3207.542" r="4.67" gradientTransform="matrix(-0.5681 0.8229 -0.4306 -0.2973 4794.2676 -3822.0239)" gradientUnits="userSpaceOnUse">
				<stop  offset="4.528621e-07" style="stop-color:#FF7149"/>
				<stop  offset="1" style="stop-color:#FF7149;stop-opacity:0"/>
			</radialGradient>
			<path style="fill:url(#SVGID_5_);" d="M67.938,69.666c-1.151-0.795-0.852-3.223,0.667-5.424c1.519-2.201,3.684-3.341,4.835-2.546
				c1.151,0.795,0.852,3.223-0.667,5.424C71.254,69.321,69.089,70.461,67.938,69.666z"/>
			
				<radialGradient id="SVGID_6_" cx="6066.7598" cy="3086.543" r="4.67" gradientTransform="matrix(-0.6132 0.7899 -0.4133 -0.3209 5058.5762 -3724.1304)" gradientUnits="userSpaceOnUse">
				<stop  offset="4.528621e-07" style="stop-color:#FF7149"/>
				<stop  offset="1" style="stop-color:#FF7149;stop-opacity:0"/>
			</radialGradient>
			<path style="fill:url(#SVGID_6_);" d="M59.462,81.467c-1.105-0.858-0.671-3.266,0.969-5.378c1.64-2.113,3.865-3.13,4.97-2.272
				c1.105,0.858,0.671,3.266-0.969,5.378C62.792,81.308,60.567,82.325,59.462,81.467z"/>
			
				<radialGradient id="SVGID_7_" cx="6652.4399" cy="2549.6401" r="4.67" gradientTransform="matrix(-0.7654 0.6435 -0.3367 -0.4005 6003.979 -3173.1787)" gradientUnits="userSpaceOnUse">
				<stop  offset="4.528621e-07" style="stop-color:#FF7149"/>
				<stop  offset="1" style="stop-color:#FF7149;stop-opacity:0"/>
			</radialGradient>
			<path style="fill:url(#SVGID_7_);" d="M49.705,89.734c-0.9-1.071,0.03-3.334,2.077-5.055c2.047-1.721,4.436-2.248,5.336-1.178
				c0.9,1.071-0.03,3.334-2.077,5.055C52.995,90.277,50.606,90.805,49.705,89.734z"/>
		</g>
		<g>
			<linearGradient id="SVGID_8_" gradientUnits="userSpaceOnUse" x1="106.519" y1="77.6277" x2="77.9938" y2="58.9663">
				<stop  offset="0" style="stop-color:#DE721E"/>
				<stop  offset="0.3515" style="stop-color:#E1751E"/>
				<stop  offset="0.6316" style="stop-color:#E97F1D"/>
				<stop  offset="0.8864" style="stop-color:#F7901B"/>
				<stop  offset="1" style="stop-color:#FF9A1A"/>
			</linearGradient>
			<path style="fill:url(#SVGID_8_);" d="M110.383,75.394c-1.322,2.559-3.935,4.458-6.174,4.692l-1.29-0.053
				c-2.293-4.266-13.895-13.895-27.533-19.867c0.768,0.181,13.063,3.188,20.655,8.808C103.889,74.776,107.632,78.146,110.383,75.394
				z"/>
			<linearGradient id="SVGID_9_" gradientUnits="userSpaceOnUse" x1="97.3962" y1="87.1079" x2="67.938" y2="69.3796">
				<stop  offset="0" style="stop-color:#DE721E"/>
				<stop  offset="0.3515" style="stop-color:#E1751E"/>
				<stop  offset="0.6316" style="stop-color:#E97F1D"/>
				<stop  offset="0.8864" style="stop-color:#F7901B"/>
				<stop  offset="1" style="stop-color:#FF9A1A"/>
			</linearGradient>
			<path style="fill:url(#SVGID_9_);" d="M102.684,85.888c-1.717,2.997-5.492,5.129-8.712,3.562
				c-5.545-5.545-14.726-11.293-27.267-17.147c0,0,8.717,0,22.319,8.872C97.689,86.827,100.476,87.146,102.684,85.888z"/>
			<linearGradient id="SVGID_10_" gradientUnits="userSpaceOnUse" x1="89.3634" y1="97.1165" x2="59.3719" y2="80.5879">
				<stop  offset="0" style="stop-color:#DE721E"/>
				<stop  offset="0.3515" style="stop-color:#E1751E"/>
				<stop  offset="0.6316" style="stop-color:#E97F1D"/>
				<stop  offset="0.8864" style="stop-color:#F7901B"/>
				<stop  offset="1" style="stop-color:#FF9A1A"/>
			</linearGradient>
			<path style="fill:url(#SVGID_10_);" d="M93.545,95.027c-2.015,3.039-6.718,4.777-10.472,3.018
				c-2.378-4.607-14.78-8.691-25.774-16.188c0,0,7.641,1.458,14.332,5.044C78.91,90.802,89.813,97.725,93.545,95.027z"/>
			<linearGradient id="SVGID_11_" gradientUnits="userSpaceOnUse" x1="79.0509" y1="103.8465" x2="59.1899" y2="94.6491">
				<stop  offset="0" style="stop-color:#DE721E"/>
				<stop  offset="0.3515" style="stop-color:#E1751E"/>
				<stop  offset="0.6316" style="stop-color:#E97F1D"/>
				<stop  offset="0.8864" style="stop-color:#F7901B"/>
				<stop  offset="1" style="stop-color:#FF9A1A"/>
			</linearGradient>
			<path style="fill:url(#SVGID_11_);" d="M82.946,100.486c-1.397,3.199-7.529,5.108-12.274,3.946
				c-1.632,0.075-5.428-1.664-10.216-4.308l-2.751-6.473C58.206,93.875,75.598,101.681,82.946,100.486z"/>
		</g>
		<linearGradient id="SVGID_12_" gradientUnits="userSpaceOnUse" x1="69.2569" y1="40.7149" x2="72.8231" y2="71.9686">
			<stop  offset="4.528621e-07" style="stop-color:#DE721E"/>
			<stop  offset="1" style="stop-color:#DE721E;stop-opacity:0"/>
		</linearGradient>
		<path style="fill:url(#SVGID_12_);" d="M36.937,50.075c0,0,0-0.451,0,3.793s3.479,7.575,7.922,7.575
			c8.531,0,14.662-15.395,26.303-14.684c11.641,0.711,30.163,12.424,34.607,17.111L86.269,41.96l-16.351-5.243l-23.371,4.177
			L36.937,50.075z"/>
		<linearGradient id="SVGID_13_" gradientUnits="userSpaceOnUse" x1="32.0711" y1="62.6638" x2="32.0711" y2="85.5333">
			<stop  offset="4.528621e-07" style="stop-color:#FFD52D"/>
			<stop  offset="1" style="stop-color:#FF9A1A"/>
		</linearGradient>
		<path style="fill:url(#SVGID_13_);" d="M39.179,64.653l-0.006-0.004c-3.148-2.174-7.463-1.384-9.637,1.765l-6.338,9.181
			c-2.174,3.148-1.383,7.463,1.765,9.636l0.006,0.004c3.148,2.174,7.463,1.384,9.637-1.765l6.338-9.181
			C43.118,71.141,42.328,66.827,39.179,64.653z"/>
		<linearGradient id="SVGID_14_" gradientUnits="userSpaceOnUse" x1="82.4414" y1="16.4554" x2="82.4414" y2="64.4509">
			<stop  offset="4.528621e-07" style="stop-color:#FFD52D"/>
			<stop  offset="1" style="stop-color:#FF9A1A"/>
		</linearGradient>
		<path style="fill:url(#SVGID_14_);" d="M127.946,57.671l-17.733,10.888c0,0-23.033-27.006-46.745-27.006
			c-2.468,0-4.226,0.482-4.899,1.445c-0.011,0.011-0.021,0.032-0.032,0.043l-7.813,11.376c-1.44,2.069-3.775,3.252-6.206,3.252
			c-0.661,0-1.322-0.085-1.973-0.267c-3.49-0.94-5.608-4.068-5.608-7.328c0-1.472,0.432-2.97,1.364-4.307l10.863-15.759
			c0.49-0.672,1.055-1.29,1.695-1.845c2.872-2.551,7.246-3.991,13.257-3.991c12.585,0,17.684,4.705,26.049,4.705
			c6.323,0,22.927-10.632,22.927-10.632L127.946,57.671z"/>
		<linearGradient id="SVGID_15_" gradientUnits="userSpaceOnUse" x1="42.5839" y1="71.195" x2="42.5839" y2="93.9721">
			<stop  offset="4.528621e-07" style="stop-color:#FFD52D"/>
			<stop  offset="1" style="stop-color:#FF9A1A"/>
		</linearGradient>
		<path style="fill:url(#SVGID_15_);" d="M50.587,72.529l-0.006-0.004c-3.148-2.174-7.463-1.384-9.637,1.765l-8.129,11.774
			c-2.174,3.148-1.383,7.463,1.765,9.636l0.006,0.004c3.148,2.174,7.463,1.384,9.637-1.765l8.129-11.774
			C54.526,79.017,53.736,74.703,50.587,72.529z"/>
		<linearGradient id="SVGID_16_" gradientUnits="userSpaceOnUse" x1="53.9455" y1="79.5482" x2="53.9455" y2="100.968">
			<stop  offset="4.528621e-07" style="stop-color:#FFD52D"/>
			<stop  offset="1" style="stop-color:#FF9A1A"/>
		</linearGradient>
		<path style="fill:url(#SVGID_16_);" d="M61.187,81.577l-0.006-0.004c-3.148-2.174-7.463-1.384-9.637,1.765l-6.604,9.566
			c-2.174,3.148-1.383,7.463,1.765,9.636l0.006,0.004c3.148,2.174,7.463,1.384,9.637-1.765l6.604-9.566
			C65.125,88.065,64.335,83.751,61.187,81.577z"/>
		<linearGradient id="SVGID_17_" gradientUnits="userSpaceOnUse" x1="65.4034" y1="89.5012" x2="65.4034" y2="106.5659">
			<stop  offset="4.528621e-07" style="stop-color:#FFD52D"/>
			<stop  offset="1" style="stop-color:#FF9A1A"/>
		</linearGradient>
		<path style="fill:url(#SVGID_17_);" d="M71.479,91.069l-0.006-0.004c-3.148-2.174-7.463-1.384-9.637,1.765l-4.274,6.19
			c-2.174,3.148-1.383,7.463,1.765,9.636l0.006,0.004c3.148,2.174,7.463,1.384,9.637-1.765l4.274-6.19
			C75.418,97.557,74.628,93.242,71.479,91.069z"/>
		<g>
			<linearGradient id="SVGID_18_" gradientUnits="userSpaceOnUse" x1="32.0737" y1="86.3502" x2="32.0737" y2="74.0839">
				<stop  offset="4.528621e-07" style="stop-color:#FF9A1A"/>
				<stop  offset="1" style="stop-color:#FF9A1A;stop-opacity:0"/>
			</linearGradient>
			<path style="fill:url(#SVGID_18_);" d="M40.942,70.608l-6.334,9.174c-2.175,3.15-6.492,3.941-9.642,1.766
				c-1.393-0.961-2.322-2.342-2.74-3.855c-0.759,2.762,0.249,5.82,2.74,7.54c3.15,2.175,7.467,1.384,9.642-1.766l6.334-9.174
				c1.214-1.758,1.502-3.878,0.974-5.788C41.715,69.237,41.397,69.949,40.942,70.608z"/>
			<linearGradient id="SVGID_19_" gradientUnits="userSpaceOnUse" x1="42.5865" y1="96.8808" x2="42.5865" y2="83.415">
				<stop  offset="4.528621e-07" style="stop-color:#FF9A1A"/>
				<stop  offset="1" style="stop-color:#FF9A1A;stop-opacity:0"/>
			</linearGradient>
			<path style="fill:url(#SVGID_19_);" d="M52.35,78.485l-8.124,11.768c-2.175,3.15-6.492,3.941-9.642,1.766
				c-1.392-0.961-2.322-2.342-2.74-3.855c-0.759,2.762,0.249,5.82,2.74,7.539c3.15,2.175,7.467,1.384,9.642-1.766l8.124-11.768
				c1.213-1.758,1.502-3.878,0.974-5.788C53.123,77.113,52.805,77.825,52.35,78.485z"/>
			<linearGradient id="SVGID_20_" gradientUnits="userSpaceOnUse" x1="53.9481" y1="103.679" x2="53.9481" y2="92.4589">
				<stop  offset="4.528621e-07" style="stop-color:#FF9A1A"/>
				<stop  offset="1" style="stop-color:#FF9A1A;stop-opacity:0"/>
			</linearGradient>
			<path style="fill:url(#SVGID_20_);" d="M62.949,87.532l-6.599,9.559c-2.175,3.15-6.492,3.941-9.642,1.766v0
				c-1.393-0.961-2.322-2.342-2.74-3.855c-0.759,2.762,0.249,5.82,2.74,7.54c3.15,2.175,7.467,1.384,9.642-1.766l6.599-9.559
				c1.213-1.758,1.502-3.878,0.974-5.787C63.722,86.161,63.405,86.872,62.949,87.532z"/>
			<linearGradient id="SVGID_21_" gradientUnits="userSpaceOnUse" x1="65.406" y1="110.2106" x2="65.406" y2="98.432">
				<stop  offset="4.528621e-07" style="stop-color:#FF9A1A"/>
				<stop  offset="1" style="stop-color:#FF9A1A;stop-opacity:0"/>
			</linearGradient>
			<path style="fill:url(#SVGID_21_);" d="M73.242,97.024l-4.269,6.184c-2.175,3.15-6.492,3.941-9.642,1.766
				c-1.393-0.961-2.322-2.342-2.74-3.855c-0.759,2.762,0.249,5.82,2.74,7.54c3.15,2.175,7.467,1.384,9.642-1.766l4.269-6.184
				c1.213-1.758,1.502-3.878,0.974-5.788C74.015,95.652,73.697,96.364,73.242,97.024z"/>
		</g>
		
			<linearGradient id="SVGID_22_" gradientUnits="userSpaceOnUse" x1="716.2542" y1="2199.4363" x2="716.2542" y2="2230.3555" gradientTransform="matrix(0.8229 0.5681 -0.5681 0.8229 751.5387 -2130.4048)">
			<stop  offset="4.528621e-07" style="stop-color:#FFD52D"/>
			<stop  offset="1" style="stop-color:#FF9A1A"/>
		</linearGradient>
		<path style="fill:url(#SVGID_22_);" d="M83.217,98.803c0.092-0.194,0.179-0.391,0.255-0.593c-0.135-0.054-0.27-0.107-0.403-0.169
			C83.15,98.3,83.193,98.554,83.217,98.803z"/>
		
			<radialGradient id="SVGID_23_" cx="110.1545" cy="68.2948" r="24.1949" gradientTransform="matrix(0.7341 0.679 -0.4976 0.538 63.2728 -43.2485)" gradientUnits="userSpaceOnUse">
			<stop  offset="0" style="stop-color:#FF9A1A"/>
			<stop  offset="1" style="stop-color:#FF9A1A;stop-opacity:0"/>
		</radialGradient>
		<path style="fill:url(#SVGID_23_);" d="M123.163,55.608c-9.723-9.724-23.404-11.808-30.557-4.655
			c-0.351,0.351-0.662,0.73-0.968,1.111c10.965,7.585,18.574,16.495,18.574,16.495l15.792-9.696
			C125.14,57.743,124.205,56.649,123.163,55.608z"/>
	</g>
</g>
<g id="Layer_1">
</g>
</svg>
