<?xml version="1.0" encoding="iso-8859-1"?>
<!-- Generator: Adobe Illustrator 24.1.2, SVG Export Plug-In . SVG Version: 6.00 Build 0)  -->
<svg version="1.1" xmlns="http://www.w3.org/2000/svg" xmlns:xlink="http://www.w3.org/1999/xlink" x="0px" y="0px"
	 viewBox="0 0 128 128" style="enable-background:new 0 0 128 128;" xml:space="preserve">
<g id="_x31_F918">
	<g id="_x31_F918_1_">
		<linearGradient id="SVGID_1_" gradientUnits="userSpaceOnUse" x1="61.2908" y1="-0.1171" x2="61.2908" y2="123.6198">
			<stop  offset="4.528621e-07" style="stop-color:#FFD52D"/>
			<stop  offset="0.9614" style="stop-color:#FF9A1A"/>
		</linearGradient>
		<path style="fill:url(#SVGID_1_);" d="M104.856,8.563c0.483-4.041-2.484-7.766-6.704-8.413c-4.259-0.654-8.232,2.063-8.936,6.11
			l-9.269,53.326c-0.013,0.001-0.025,0.002-0.038,0.003c0,0-11.512-1.013-18.777-0.016s-19.286,5.422-19.685,5.52l-8.912-37.567
			c-0.916-3.862-4.823-6.28-8.816-5.456c-4.006,0.827-6.638,4.614-5.93,8.533l8.072,44.706c0.194,5.285-0.107,11.038,0.251,20.792
			c0.676,18.417,20.493,31.715,36.901,31.113c25.621-0.94,44.293-17.084,39.344-34.836c-4.392-15.755-4.9-19.809-4.485-25.441
			L104.856,8.563z"/>
		<g>
			
				<radialGradient id="SVGID_2_" cx="-400.0954" cy="872.4814" r="8.3118" gradientTransform="matrix(0.8842 -0.19 0.0772 0.3593 313.6273 -350.4185)" gradientUnits="userSpaceOnUse">
				<stop  offset="0.0108" style="stop-color:#FF9A1A"/>
				<stop  offset="1" style="stop-color:#FF9A1A;stop-opacity:0"/>
			</radialGradient>
			<path style="fill:url(#SVGID_2_);" d="M34.305,37.622c0.347,1.614-2.591,3.613-6.562,4.467c-3.971,0.853-7.47,0.237-7.817-1.377
				L34.305,37.622z"/>
			
				<radialGradient id="SVGID_3_" cx="-348.7872" cy="921.3663" r="8.3118" gradientTransform="matrix(0.9012 -0.1936 0.0772 0.3593 274.2937 -341.9667)" gradientUnits="userSpaceOnUse">
				<stop  offset="0.0108" style="stop-color:#FF9A1A"/>
				<stop  offset="1" style="stop-color:#FF9A1A;stop-opacity:0"/>
			</radialGradient>
			<path style="fill:url(#SVGID_3_);" d="M38.314,55.138c0.347,1.614-2.653,3.627-6.7,4.496c-4.047,0.87-7.609,0.266-7.955-1.347
				L38.314,55.138z"/>
			
				<radialGradient id="SVGID_4_" cx="-359.8653" cy="3310.9929" r="8.3118" gradientTransform="matrix(0.9427 0.1373 -0.053 0.3637 609.7303 -1132.0642)" gradientUnits="userSpaceOnUse">
				<stop  offset="0.0108" style="stop-color:#FF9A1A"/>
				<stop  offset="1" style="stop-color:#FF9A1A;stop-opacity:0"/>
			</radialGradient>
			<path style="fill:url(#SVGID_4_);" d="M102.586,23.821c-0.238,1.633-3.862,2.457-8.096,1.84
				c-4.233-0.617-7.472-2.441-7.234-4.074L102.586,23.821z"/>
			
				<radialGradient id="SVGID_5_" cx="-177.9421" cy="3369.7676" r="8.3118" gradientTransform="matrix(1.0102 0.1472 -0.053 0.3637 450.0444 -1155.3309)" gradientUnits="userSpaceOnUse">
				<stop  offset="0.0108" style="stop-color:#FF9A1A"/>
				<stop  offset="1" style="stop-color:#FF9A1A;stop-opacity:0"/>
			</radialGradient>
			<path style="fill:url(#SVGID_5_);" d="M99.802,45.245c-0.238,1.633-4.108,2.421-8.645,1.76c-4.536-0.661-8.021-2.521-7.783-4.154
				L99.802,45.245z"/>
		</g>
		
			<radialGradient id="SVGID_6_" cx="62.6797" cy="86.678" r="74.6219" gradientTransform="matrix(0.9909 -0.1348 0.0429 0.3158 -3.1502 67.7544)" gradientUnits="userSpaceOnUse">
			<stop  offset="0.013" style="stop-color:#FF9A1A;stop-opacity:0"/>
			<stop  offset="1" style="stop-color:#FF9A1A"/>
		</radialGradient>
		<path style="fill:url(#SVGID_6_);" d="M97.954,66.24c-5.173-2.709-14.886-6.681-18.045-6.651c0,0,0,0,0,0
			c-0.006-0.001-11.514-1.012-18.777-0.017c-6.544,0.897-16.941,4.575-19.234,5.369c-0.049,0.04-0.084,0.064-0.103,0.068
			c-3.719,0.978-12.342,3.983-16.366,7.913l0.431,2.385c0.175,4.756-0.05,9.903,0.164,17.994l73.227-12.825
			c-1.516-6.588-1.663-9.699-1.381-13.541L97.954,66.24z"/>
		
			<radialGradient id="SVGID_7_" cx="63.9224" cy="89.9237" r="37.4598" gradientTransform="matrix(1 0 0 0.7178 0 25.3745)" gradientUnits="userSpaceOnUse">
			<stop  offset="0" style="stop-color:#DE721E"/>
			<stop  offset="1" style="stop-color:#FF9A1A;stop-opacity:0"/>
		</radialGradient>
		<path style="fill:url(#SVGID_7_);" d="M103.154,98.097c0,16.835-20.334,29.139-41.208,29.139
			c-16.185,0-35.172-13.118-35.839-31.14c-0.454-12.369,0.204-13.359-0.671-23.17c5.297-5.194,16.204-7.727,16.46-7.984
			c10.138-3.732,17.906-5.807,27.269-5.807c5.587,0,10.739,0.451,10.739,0.451h0.044c3.198,0.011,12.859,3.959,18.003,6.654
			l-0.078,0.693C96.921,79.028,103.154,90.663,103.154,98.097z"/>
		<linearGradient id="SVGID_8_" gradientUnits="userSpaceOnUse" x1="64.1428" y1="91.0692" x2="64.1428" y2="114.848">
			<stop  offset="0" style="stop-color:#DE721E"/>
			<stop  offset="1" style="stop-color:#DE721E;stop-opacity:0"/>
		</linearGradient>
		<path style="fill:url(#SVGID_8_);" d="M85.641,109.783l4.31-23.231l0.629-8.239l-38.113-8.228l-10.464,10.61
			c0.68,7.655,3.18,43.91-3.289,38.129c-0.444-0.397-0.77-0.658-1.008-0.82c7.22,6.031,16.727,9.522,25.307,9.207
			c3.387-0.124,6.647-0.521,9.752-1.145L85.641,109.783z"/>
		<g>
			
				<linearGradient id="SVGID_9_" gradientUnits="userSpaceOnUse" x1="-11.459" y1="-194.0766" x2="-0.1788" y2="-138.2125" gradientTransform="matrix(0.9962 -0.0869 0.0869 0.9962 72.0265 238.9427)">
				<stop  offset="4.528621e-07" style="stop-color:#FFD52D"/>
				<stop  offset="1" style="stop-color:#FF9A1A"/>
			</linearGradient>
			<path style="fill:url(#SVGID_9_);" d="M49.249,45.841L49.249,45.841c-5.564,0.509-9.681,5.644-9.195,11.471l2.771,33.246
				c0.486,5.827,5.39,10.138,10.954,9.629h0c5.564-0.508,9.681-5.644,9.195-11.471L60.203,55.47
				C59.718,49.643,54.813,45.332,49.249,45.841z"/>
			<linearGradient id="SVGID_10_" gradientUnits="userSpaceOnUse" x1="50.0539" y1="63.0883" x2="52.4773" y2="82.9604">
				<stop  offset="4.528621e-07" style="stop-color:#FF9A1A;stop-opacity:0"/>
				<stop  offset="1" style="stop-color:#FF9A1A"/>
			</linearGradient>
			<path style="fill:url(#SVGID_10_);" d="M62.974,88.716l-1.711-20.53c0.486,5.827-3.626,11.031-9.195,11.471
				c-9.421,0.744-11.528-16.519-12.013-22.345l2.771,33.246c0.486,5.827,5.39,10.138,10.954,9.629
				C59.343,99.678,63.459,94.543,62.974,88.716z"/>
		</g>
		<g>
			
				<linearGradient id="SVGID_11_" gradientUnits="userSpaceOnUse" x1="-7.6367" y1="54.6665" x2="3.6619" y2="110.6215" gradientTransform="matrix(0.9999 -0.0122 0.0122 0.9999 72.5452 -14.4018)">
				<stop  offset="4.528621e-07" style="stop-color:#FFD52D"/>
				<stop  offset="1" style="stop-color:#FF9A1A"/>
			</linearGradient>
			<path style="fill:url(#SVGID_11_);" d="M71.002,40.048L71.002,40.048c-5.568,0.062-10.018,4.852-9.94,10.7l0.444,33.369
				c0.078,5.848,4.654,10.539,10.222,10.478h0c5.568-0.062,10.018-4.852,9.94-10.7l-0.444-33.369
				C81.147,44.678,76.57,39.987,71.002,40.048z"/>
			
				<linearGradient id="SVGID_12_" gradientUnits="userSpaceOnUse" x1="75.5274" y1="310.5484" x2="77.9549" y2="330.454" gradientTransform="matrix(0.9972 0.0748 -0.0748 0.9972 18.5861 -258.0612)">
				<stop  offset="4.528621e-07" style="stop-color:#FF9A1A;stop-opacity:0"/>
				<stop  offset="1" style="stop-color:#FF9A1A"/>
			</linearGradient>
			<path style="fill:url(#SVGID_12_);" d="M81.669,83.894l-0.275-20.606c0.078,5.848-4.372,10.708-9.94,10.7
				c-9.419-0.012-10.314-17.393-10.392-23.241l0.444,33.369c0.078,5.848,4.655,10.539,10.222,10.478
				C77.297,94.533,81.747,89.743,81.669,83.894z"/>
		</g>
		<g>
			<linearGradient id="SVGID_13_" gradientUnits="userSpaceOnUse" x1="75.2456" y1="68.6372" x2="87.2308" y2="127.9925">
				<stop  offset="4.528621e-07" style="stop-color:#FFD52D"/>
				<stop  offset="1" style="stop-color:#FF9A1A"/>
			</linearGradient>
			<path style="fill:url(#SVGID_13_);" d="M90.873,66.362c-0.003,0.001-0.007,0.003-0.01,0.003
				c-0.758,0.014-1.525,0.103-2.293,0.287l-32.446,7.803c-5.687,1.368-9.188,7.086-7.82,12.773v0
				c1.368,5.687,7.086,9.188,12.772,7.82l24.429-5.875l0,0c-12.184,2.93-22.493,12.714-22.493,28.369c0,4.796,0,9.669,0,9.669
				c5.875,2.724,47.313-1.036,47.313-30.044S95.459,65.522,90.873,66.362z"/>
			<linearGradient id="SVGID_14_" gradientUnits="userSpaceOnUse" x1="83.8385" y1="114.7842" x2="69.4501" y2="100.5109">
				<stop  offset="0" style="stop-color:#FF9A1A;stop-opacity:0"/>
				<stop  offset="1" style="stop-color:#FFD52D"/>
			</linearGradient>
			<path style="fill:url(#SVGID_14_);" d="M86.139,97.092c10.755-1.306,12.56,1.537,12.56,1.537s-2.647-9.455-13.194-9.455
				c-12.184,2.93-22.493,12.714-22.493,28.369c0,4.796,0,9.669,0,9.669S64.974,99.663,86.139,97.092z"/>
			<linearGradient id="SVGID_15_" gradientUnits="userSpaceOnUse" x1="75.9375" y1="81.8922" x2="81.8079" y2="91.7913">
				<stop  offset="4.528621e-07" style="stop-color:#FFD52D;stop-opacity:0"/>
				<stop  offset="1" style="stop-color:#FF9A1A"/>
			</linearGradient>
			<path style="fill:url(#SVGID_15_);" d="M95.145,76.065c-4.259,8.849-21.635,15.982-34.069,18.984l24.429-5.875
				C85.506,89.174,94.57,86.195,95.145,76.065z"/>
		</g>
	</g>
</g>
<g id="Layer_1">
</g>
</svg>
