<?xml version="1.0" encoding="iso-8859-1"?>
<!-- Generator: Adobe Illustrator 24.1.2, SVG Export Plug-In . SVG Version: 6.00 Build 0)  -->
<svg version="1.1" xmlns="http://www.w3.org/2000/svg" xmlns:xlink="http://www.w3.org/1999/xlink" x="0px" y="0px"
	 viewBox="0 0 128 128" style="enable-background:new 0 0 128 128;" xml:space="preserve">
<symbol  id="Smiley_shape" viewBox="-57.587 -60 115.173 120">
	<linearGradient id="SVGID_1_" gradientUnits="userSpaceOnUse" x1="0" y1="-60" x2="7.347880e-15" y2="60">
		<stop  offset="0" style="stop-color:#FF9A1A"/>
		<stop  offset="1" style="stop-color:#FFD52D"/>
	</linearGradient>
	<path style="fill:url(#SVGID_1_);" d="M51.962,30C44.462,42.99,18,60,0,60s-44.462-17.01-51.962-30s-7.5-47.01,0-60S-18-60,0-60
		s44.462,17.01,51.962,30S59.462,17.01,51.962,30z"/>
</symbol>
<symbol  id="Standard_eyes" viewBox="-28 -12 56 24">
	<g>
		<path style="fill:#2B201A;" d="M-20-12L-20-12c-4.418,0-8,3.582-8,8v8c0,4.418,3.582,8,8,8h0c4.418,0,8-3.582,8-8v-8
			C-12-8.418-15.582-12-20-12z"/>
		<circle style="fill:#AF9D94;" cx="-17" cy="7" r="3"/>
	</g>
	<g>
		<path style="fill:#2B201A;" d="M20-12L20-12c-4.418,0-8,3.582-8,8v8c0,4.418,3.582,8,8,8h0c4.418,0,8-3.582,8-8v-8
			C28-8.418,24.418-12,20-12z"/>
		<circle style="fill:#AF9D94;" cx="23" cy="7" r="3"/>
	</g>
</symbol>
<g id="_x31_F910">
	<g id="_x31_F910_1_">
		
			<use xlink:href="#Smiley_shape"  width="115.173" height="120" id="XMLID_19_" x="-57.587" y="-60" transform="matrix(1.0658 0 0 -1.0658 64 64)" style="overflow:visible;"/>
		<linearGradient id="SVGID_2_" gradientUnits="userSpaceOnUse" x1="97.8478" y1="92.5441" x2="99.1988" y2="113.6197">
			<stop  offset="0" style="stop-color:#DE721E"/>
			<stop  offset="1" style="stop-color:#DE721E;stop-opacity:0"/>
		</linearGradient>
		<path style="fill:url(#SVGID_2_);" d="M116.636,99.944c-4.413-6.02-15.045-16.912-31.635-11.764c0,0-6.012,8.511-4.594,16.685
			c1.017,5.863,4.015,13.566,5.63,17.454C98.296,116.786,110.199,108.024,116.636,99.944z"/>
		
			<use xlink:href="#Standard_eyes"  width="56" height="24" x="-28" y="-12" transform="matrix(1.0658 0 0 -1.0658 64 51.2105)" style="overflow:visible;"/>
		<path style="fill:#2B201A;" d="M87.446,91.725H40.553c-2.06,0-3.73-1.671-3.73-3.73c0-2.06,1.67-3.73,3.73-3.73h46.894
			c2.06,0,3.73,1.67,3.73,3.73C91.176,90.055,89.506,91.725,87.446,91.725z"/>
		<g>
			<linearGradient id="SVGID_3_" gradientUnits="userSpaceOnUse" x1="41.619" y1="77.1236" x2="41.619" y2="86.9009">
				<stop  offset="0" style="stop-color:#F4F5F6"/>
				<stop  offset="1" style="stop-color:#D1D4D4"/>
			</linearGradient>
			<path style="fill:url(#SVGID_3_);" d="M45.882,87.462h-8.526V77.87c0-0.589,0.477-1.066,1.066-1.066h6.395
				c0.589,0,1.066,0.477,1.066,1.066V87.462z"/>
			<linearGradient id="SVGID_4_" gradientUnits="userSpaceOnUse" x1="54.4081" y1="76.8984" x2="54.4081" y2="86.9896">
				<stop  offset="0" style="stop-color:#F4F5F6"/>
				<stop  offset="1" style="stop-color:#D1D4D4"/>
			</linearGradient>
			<path style="fill:url(#SVGID_4_);" d="M58.671,87.462h-8.526V77.87c0-0.589,0.477-1.066,1.066-1.066h6.395
				c0.589,0,1.066,0.477,1.066,1.066V87.462z"/>
			<linearGradient id="SVGID_5_" gradientUnits="userSpaceOnUse" x1="48.0136" y1="87.4362" x2="48.0136" y2="97.2618">
				<stop  offset="0" style="stop-color:#F4F5F6"/>
				<stop  offset="1" style="stop-color:#D1D4D4"/>
			</linearGradient>
			<path style="fill:url(#SVGID_5_);" d="M51.211,98.12h-6.395c-0.589,0-1.066-0.477-1.066-1.066v-9.592h8.526v9.592
				C52.277,97.643,51.799,98.12,51.211,98.12z"/>
			<linearGradient id="SVGID_6_" gradientUnits="userSpaceOnUse" x1="35.2244" y1="87.6614" x2="35.2244" y2="97.2916">
				<stop  offset="0" style="stop-color:#F4F5F6"/>
				<stop  offset="1" style="stop-color:#D1D4D4"/>
			</linearGradient>
			<path style="fill:url(#SVGID_6_);" d="M38.422,98.12h-6.395c-0.589,0-1.066-0.477-1.066-1.066v-9.592h8.526v9.592
				C39.487,97.643,39.01,98.12,38.422,98.12z"/>
			<linearGradient id="SVGID_7_" gradientUnits="userSpaceOnUse" x1="60.8027" y1="87.9316" x2="60.8027" y2="97.2552">
				<stop  offset="0" style="stop-color:#F4F5F6"/>
				<stop  offset="1" style="stop-color:#D1D4D4"/>
			</linearGradient>
			<path style="fill:url(#SVGID_7_);" d="M64,98.12h-6.395c-0.589,0-1.066-0.477-1.066-1.066v-9.592h8.526v9.592
				C65.066,97.643,64.589,98.12,64,98.12z"/>
			<linearGradient id="SVGID_8_" gradientUnits="userSpaceOnUse" x1="67.1973" y1="76.804" x2="67.1973" y2="86.9825">
				<stop  offset="0" style="stop-color:#F4F5F6"/>
				<stop  offset="1" style="stop-color:#D1D4D4"/>
			</linearGradient>
			<path style="fill:url(#SVGID_8_);" d="M71.46,87.462h-8.526V77.87c0-0.589,0.477-1.066,1.066-1.066h6.395
				c0.589,0,1.066,0.477,1.066,1.066V87.462z"/>
			<linearGradient id="SVGID_9_" gradientUnits="userSpaceOnUse" x1="79.9865" y1="76.804" x2="79.9865" y2="86.5829">
				<stop  offset="0" style="stop-color:#F4F5F6"/>
				<stop  offset="1" style="stop-color:#D1D4D4"/>
			</linearGradient>
			<path style="fill:url(#SVGID_9_);" d="M84.25,87.462h-8.526V77.87c0-0.589,0.477-1.066,1.066-1.066h6.395
				c0.589,0,1.066,0.477,1.066,1.066V87.462z"/>
			<linearGradient id="SVGID_10_" gradientUnits="userSpaceOnUse" x1="92.7756" y1="76.804" x2="92.7756" y2="86.6223">
				<stop  offset="0" style="stop-color:#F4F5F6"/>
				<stop  offset="1" style="stop-color:#D1D4D4"/>
			</linearGradient>
			<path style="fill:url(#SVGID_10_);" d="M97.039,87.462h-8.526V77.87c0-0.589,0.477-1.066,1.066-1.066h6.395
				c0.589,0,1.066,0.477,1.066,1.066V87.462z"/>
			<linearGradient id="SVGID_11_" gradientUnits="userSpaceOnUse" x1="73.5919" y1="87.7514" x2="73.5919" y2="97.2985">
				<stop  offset="0" style="stop-color:#F4F5F6"/>
				<stop  offset="1" style="stop-color:#D1D4D4"/>
			</linearGradient>
			<path style="fill:url(#SVGID_11_);" d="M76.789,98.12h-6.395c-0.589,0-1.066-0.477-1.066-1.066v-9.592h8.526v9.592
				C77.855,97.643,77.378,98.12,76.789,98.12z"/>
			<linearGradient id="SVGID_12_" gradientUnits="userSpaceOnUse" x1="86.381" y1="87.5263" x2="86.381" y2="97.3218">
				<stop  offset="0" style="stop-color:#F4F5F6"/>
				<stop  offset="1" style="stop-color:#D1D4D4"/>
			</linearGradient>
			<path style="fill:url(#SVGID_12_);" d="M89.578,98.12h-6.395c-0.589,0-1.066-0.477-1.066-1.066v-9.592h8.526v9.592
				C90.644,97.643,90.167,98.12,89.578,98.12z"/>
		</g>
		<g>
			
				<linearGradient id="SVGID_13_" gradientUnits="userSpaceOnUse" x1="969.7837" y1="-1309.7314" x2="969.7837" y2="-1271.8948" gradientTransform="matrix(0.7639 -0.6453 0.6453 0.7639 192.8426 1714.391)">
				<stop  offset="0" style="stop-color:#F4F5F6"/>
				<stop  offset="1" style="stop-color:#D1D4D4"/>
			</linearGradient>
			<path style="fill:url(#SVGID_13_);" d="M124.31,106.153l-17.208-17.448c-5.033-5.103-13.228-5.547-18.795-0.844
				c-5.567,4.703-6.499,12.857-2.309,18.672l14.327,19.882c0.055,0.077,0.114,0.152,0.176,0.226l0.005,0.006
				c1.307,1.547,3.62,1.741,5.166,0.435l18.401-15.545c1.547-1.307,1.741-3.62,0.435-5.167l-0.005-0.006
				C124.441,106.291,124.376,106.22,124.31,106.153z M119.798,110.315l-14.616,12.347c-0.954,0.806-2.394,0.623-3.115-0.397
				l-4.744-6.702c-0.64-0.903-0.481-2.146,0.364-2.86l13.546-11.443c0.846-0.714,2.097-0.663,2.88,0.119l5.815,5.797
				C120.812,108.059,120.752,109.509,119.798,110.315z"/>
			<linearGradient id="SVGID_14_" gradientUnits="userSpaceOnUse" x1="92.5927" y1="96.8983" x2="92.5589" y2="109.5639">
				<stop  offset="0" style="stop-color:#77797C"/>
				<stop  offset="1" style="stop-color:#77797C;stop-opacity:0"/>
			</linearGradient>
			<path style="opacity:0.5;fill:url(#SVGID_14_);" d="M99.469,118.599l-2.149-3.036c-0.64-0.903-0.481-2.146,0.364-2.86
				l4.045-3.417l0.027-0.112V97.434L88.18,87.977c-5.451,4.72-6.341,12.787-2.184,18.556l12.27,17.028L99.469,118.599z"/>
			
				<linearGradient id="SVGID_15_" gradientUnits="userSpaceOnUse" x1="969.7841" y1="-1316.993" x2="969.7841" y2="-1295.7189" gradientTransform="matrix(0.7639 -0.6453 0.6453 0.7639 192.8426 1714.391)">
				<stop  offset="0" style="stop-color:#F4F5F6"/>
				<stop  offset="1" style="stop-color:#D1D4D4"/>
			</linearGradient>
			<polygon style="fill:url(#SVGID_15_);" points="101.758,97.434 95.498,102.723 80.56,85.041 86.821,79.752 			"/>
		</g>
	</g>
</g>
<g id="Layer_1">
</g>
</svg>
