<?xml version="1.0" encoding="iso-8859-1"?>
<!-- Generator: Adobe Illustrator 24.1.2, SVG Export Plug-In . SVG Version: 6.00 Build 0)  -->
<svg version="1.1" xmlns="http://www.w3.org/2000/svg" xmlns:xlink="http://www.w3.org/1999/xlink" x="0px" y="0px"
	 viewBox="0 0 128 128" style="enable-background:new 0 0 128 128;" xml:space="preserve">
<g id="_x31_F91E">
	<g id="_x31_F91E_1_">
		<linearGradient id="SVGID_1_" gradientUnits="userSpaceOnUse" x1="63.7926" y1="-0.7467" x2="63.7926" y2="122.3753">
			<stop  offset="4.528621e-07" style="stop-color:#FFD52D"/>
			<stop  offset="1" style="stop-color:#FF9A1A"/>
		</linearGradient>
		<path style="fill:url(#SVGID_1_);" d="M101.483,68.243c-2.043-7.596-5.354-11.057-16.589-11.656l12.494-43.695
			c1.515-5.365-1.606-10.942-6.97-12.456c-5.364-1.515-10.941,1.606-12.456,6.97L63.575,57.803
			c-0.303,0.036-0.599,0.069-0.906,0.106c-40.155,4.827-38.554,7.048-39.039,35.192c-0.334,19.393,20.329,34.146,37.608,34.146
			c26.981,0,42.722-15.724,42.722-35.119C103.96,82.074,102.99,73.845,101.483,68.243z"/>
		<linearGradient id="SVGID_2_" gradientUnits="userSpaceOnUse" x1="55.0314" y1="94.0524" x2="54.8982" y2="109.6396">
			<stop  offset="0" style="stop-color:#DE721E"/>
			<stop  offset="1" style="stop-color:#DE721E;stop-opacity:0"/>
		</linearGradient>
		<path style="fill:url(#SVGID_2_);" d="M42.971,81.076l-19.138,1.592c-0.108,3.016-0.135,6.467-0.203,10.433
			c-0.334,19.393,20.329,34.146,37.608,34.146c4.599,0,8.863-0.467,12.786-1.321c6.408-10.925,17.028-31.578,10.225-38.381
			C74.84,78.136,55.341,81.076,42.971,81.076z"/>
		
			<radialGradient id="SVGID_3_" cx="53.4459" cy="90.3392" r="35.7781" gradientTransform="matrix(0.9262 -0.377 0.3539 0.8695 -28.0286 31.9332)" gradientUnits="userSpaceOnUse">
			<stop  offset="0" style="stop-color:#DE721E"/>
			<stop  offset="1" style="stop-color:#FF9A1A;stop-opacity:0"/>
		</radialGradient>
		<path style="fill:url(#SVGID_3_);" d="M97.388,92.578c0-18.578-15.547-33.74-35.078-34.626c-5.325,0.642-9.909,1.24-13.856,1.86
			c-24.825,3.948-24.802,10.265-24.802,31.611c0,0.474-0.015,0.954-0.023,1.443c0.03,3.398,0.578,6.679,1.577,9.776
			c5.067,14.37,21.454,24.434,35.682,24.594C81.081,127.044,97.388,111.604,97.388,92.578z"/>
		<linearGradient id="SVGID_4_" gradientUnits="userSpaceOnUse" x1="95.8508" y1="23.1992" x2="55.985" y2="55.5785">
			<stop  offset="0" style="stop-color:#FFD52D;stop-opacity:0"/>
			<stop  offset="0.1559" style="stop-color:#FF9A1A"/>
			<stop  offset="0.6585" style="stop-color:#DE721E"/>
			<stop  offset="0.6988" style="stop-color:#E0781F;stop-opacity:0.8319"/>
			<stop  offset="0.7546" style="stop-color:#E68A22;stop-opacity:0.5993"/>
			<stop  offset="0.8194" style="stop-color:#F0A826;stop-opacity:0.3292"/>
			<stop  offset="0.8905" style="stop-color:#FDD02C;stop-opacity:0.0328"/>
			<stop  offset="0.8984" style="stop-color:#FFD52D;stop-opacity:0"/>
		</linearGradient>
		<path style="fill:url(#SVGID_4_);" d="M84.894,56.587l12.494-43.695c1.515-5.365-1.606-10.942-6.97-12.456l0,0
			c-5.365-1.515-10.941,1.606-12.456,6.97L63.575,57.803c-1.052,5.811,3.966,11.129,13.159,12.248
			C80.39,70.496,82.731,65.374,84.894,56.587z"/>
		
			<linearGradient id="SVGID_5_" gradientUnits="userSpaceOnUse" x1="-10.3325" y1="-190.2003" x2="0.4409" y2="-136.8461" gradientTransform="matrix(0.9962 -0.0869 0.0869 0.9962 72.0265 238.9427)">
			<stop  offset="4.528621e-07" style="stop-color:#FFD52D"/>
			<stop  offset="1" style="stop-color:#FF9A1A"/>
		</linearGradient>
		<path style="fill:url(#SVGID_5_);" d="M50.364,49.692L50.364,49.692c-5.553,0.485-9.662,5.379-9.177,10.932l2.765,31.687
			c0.485,5.553,5.379,9.662,10.932,9.177h0c5.553-0.485,9.662-5.379,9.177-10.932l-2.765-31.687
			C60.812,53.316,55.917,49.207,50.364,49.692z"/>
		<linearGradient id="SVGID_6_" gradientUnits="userSpaceOnUse" x1="51.2506" y1="66.0778" x2="53.5645" y2="85.052">
			<stop  offset="4.528621e-07" style="stop-color:#FF9A1A;stop-opacity:0"/>
			<stop  offset="1" style="stop-color:#FF9A1A"/>
		</linearGradient>
		<path style="fill:url(#SVGID_6_);" d="M64.062,90.556l-1.708-19.567c0.485,5.553-3.619,10.513-9.177,10.933
			c-9.402,0.709-11.505-15.744-11.99-21.297l2.765,31.687c0.485,5.553,5.379,9.662,10.932,9.178
			C60.437,101.004,64.546,96.11,64.062,90.556z"/>
		
			<linearGradient id="SVGID_7_" gradientUnits="userSpaceOnUse" x1="-29.6615" y1="-184.1261" x2="-20.6624" y2="-139.5587" gradientTransform="matrix(0.9962 -0.0869 0.0869 0.9962 72.0265 238.9427)">
			<stop  offset="4.528621e-07" style="stop-color:#FFD52D"/>
			<stop  offset="1" style="stop-color:#FF9A1A"/>
		</linearGradient>
		<path style="fill:url(#SVGID_7_);" d="M30.788,57.568L30.788,57.568c-5.553,0.485-9.662,5.379-9.177,10.932l2.015,23.089
			c0.485,5.553,5.379,9.662,10.932,9.177l0,0c5.553-0.485,9.662-5.379,9.177-10.932L41.72,66.745
			C41.236,61.192,36.341,57.083,30.788,57.568z"/>
		<linearGradient id="SVGID_8_" gradientUnits="userSpaceOnUse" x1="32.5075" y1="76.4941" x2="33.4678" y2="91.8592">
			<stop  offset="4.528621e-07" style="stop-color:#FF9A1A;stop-opacity:0"/>
			<stop  offset="1" style="stop-color:#FF9A1A;stop-opacity:0.9581"/>
		</linearGradient>
		<path style="fill:url(#SVGID_8_);" d="M43.735,89.834l-1.324-15.178c0.485,5.553-3.621,10.487-9.178,10.933
			C24.513,86.288,22.096,74.053,21.611,68.5l2.015,23.089c0.485,5.553,5.379,9.662,10.932,9.178
			C40.111,100.282,44.22,95.387,43.735,89.834z"/>
		<g>
			
				<linearGradient id="SVGID_9_" gradientUnits="userSpaceOnUse" x1="116.6759" y1="-1066.552" x2="139.1013" y2="-955.4927" gradientTransform="matrix(0.9204 -0.391 0.4256 1.0018 404.0215 1123.1912)">
				<stop  offset="4.528621e-07" style="stop-color:#FFD52D"/>
				<stop  offset="1" style="stop-color:#FF9A1A"/>
			</linearGradient>
			<path style="fill:url(#SVGID_9_);" d="M64.22,5.723L64.22,5.723c-5.131,2.18-7.523,8.106-5.343,13.236l23.807,56.343
				c2.18,5.131,8.106,7.523,13.236,5.343l0,0c5.13-2.18,7.523-8.106,5.343-13.236L77.456,11.066
				C75.276,5.935,69.35,3.543,64.22,5.723z"/>
			
				<radialGradient id="SVGID_10_" cx="46.4818" cy="-915.7047" r="8.7475" gradientTransform="matrix(0.9368 -0.3499 0.1286 0.3443 148.3284 360.5472)" gradientUnits="userSpaceOnUse">
				<stop  offset="0.0108" style="stop-color:#FF9A1A"/>
				<stop  offset="1" style="stop-color:#FF9A1A;stop-opacity:0"/>
			</radialGradient>
			<path style="fill:url(#SVGID_10_);" d="M82.02,26.1c0.608,1.627-2.489,4.287-6.916,5.94c-4.427,1.654-8.509,1.675-9.117,0.048
				L82.02,26.1z"/>
			
				<radialGradient id="SVGID_11_" cx="48.0503" cy="-864.4929" r="8.7475" gradientTransform="matrix(0.9368 -0.3499 0.1286 0.3443 148.3284 360.5472)" gradientUnits="userSpaceOnUse">
				<stop  offset="0.0108" style="stop-color:#FF9A1A"/>
				<stop  offset="1" style="stop-color:#FF9A1A;stop-opacity:0"/>
			</radialGradient>
			<path style="fill:url(#SVGID_11_);" d="M90.074,43.184c0.608,1.627-2.489,4.287-6.916,5.94c-4.427,1.654-8.509,1.675-9.117,0.048
				L90.074,43.184z"/>
		</g>
		<linearGradient id="SVGID_12_" gradientUnits="userSpaceOnUse" x1="72.9933" y1="71.4194" x2="84.4163" y2="127.9904">
			<stop  offset="4.528621e-07" style="stop-color:#FFD52D"/>
			<stop  offset="1" style="stop-color:#FF9A1A"/>
		</linearGradient>
		<path style="fill:url(#SVGID_12_);" d="M87.888,69.251c-0.003,0.001-0.006,0.003-0.01,0.003c-0.723,0.013-1.454,0.098-2.185,0.274
			l-30.924,7.437c-5.42,1.303-8.757,6.754-7.453,12.174v0c1.303,5.42,6.753,8.757,12.173,7.453l23.283-5.6l0,0
			c-11.613,2.793-21.438,12.118-21.438,27.039c0,4.571,0,9.216,0,9.216c5.599,2.596,45.094-0.987,45.094-28.635
			S92.259,68.451,87.888,69.251z"/>
		<linearGradient id="SVGID_13_" gradientUnits="userSpaceOnUse" x1="81.1832" y1="115.4017" x2="67.4697" y2="101.7979">
			<stop  offset="0" style="stop-color:#FF9A1A;stop-opacity:0"/>
			<stop  offset="1" style="stop-color:#FFD52D"/>
		</linearGradient>
		<path style="fill:url(#SVGID_13_);" d="M83.376,98.539c10.251-1.245,11.971,1.465,11.971,1.465s-2.523-9.011-12.575-9.011
			c-11.613,2.793-21.438,12.118-21.438,27.039c0,4.571,0,9.216,0,9.216S63.203,100.989,83.376,98.539z"/>
		<linearGradient id="SVGID_14_" gradientUnits="userSpaceOnUse" x1="73.6527" y1="84.0526" x2="79.2477" y2="93.4873">
			<stop  offset="4.528621e-07" style="stop-color:#FFD52D;stop-opacity:0"/>
			<stop  offset="1" style="stop-color:#FF9A1A"/>
		</linearGradient>
		<path style="fill:url(#SVGID_14_);" d="M91.96,78.499C87.9,86.932,71.34,93.731,59.489,96.592l23.283-5.6
			C82.772,90.993,91.411,88.153,91.96,78.499z"/>
	</g>
</g>
<g id="Layer_1">
</g>
</svg>
