<?xml version="1.0" encoding="iso-8859-1"?>
<!-- Generator: Adobe Illustrator 24.1.2, SVG Export Plug-In . SVG Version: 6.00 Build 0)  -->
<svg version="1.1" xmlns="http://www.w3.org/2000/svg" xmlns:xlink="http://www.w3.org/1999/xlink" x="0px" y="0px"
	 viewBox="0 0 128 128" style="enable-background:new 0 0 128 128;" xml:space="preserve">
<symbol  id="Person_Woman_Eye_Closed" viewBox="-8.688 -7.287 17.375 14.575">
	<g>
		<path style="fill:#2B201A;" d="M8.687-2.622C8.105-4.191,6.845-5.483,5.304-6.32c-0.776-0.408-1.63-0.717-2.516-0.85
			C2.354-7.247,1.886-7.267,1.465-7.286C1.048-7.291,0.63-7.282,0.208-7.255c-1.674,0.108-3.426,0.554-4.912,1.526
			c-1.486,0.966-2.58,2.469-2.924,4.092c1.258-1.089,2.49-1.888,3.825-2.345c1.323-0.473,2.724-0.679,4.186-0.78
			c1.523-0.117,2.794-0.116,4.187,0.257C5.944-4.157,7.306-3.516,8.687-2.622z"/>
	</g>
	<path style="fill:#2B201A;" d="M7.731,3.428c-4.236,0-4.694,1.235-10.043,1.235C-4.183,4.639-6.103,4.372-8.589,2.6l-0.099,0.093
		c2.714,3.328,6.764,4.585,9.231,4.595c4.16,0,6.855-1.928,7.652-3.553C8.195,3.278,8.037,3.453,7.731,3.428z"/>
</symbol>
<symbol  id="Person_head_Woman" viewBox="-34.925 -45 69.85 90">
	<path style="fill:#FF9A1A;" d="M-29.524,0.101c0,0-1.33,3.749-3.124,4.683c-1.573,0-2.277-1.814-2.277-6.493
		c0-9.269,5.061-16.781,6.864-16.781c2.629,0,4.094,0,4.094,0L-29.524,0.101z"/>
	<path style="fill:#FF9A1A;" d="M29.524,0.101c0,0,1.33,3.749,3.124,4.683c1.573,0,2.277-1.814,2.277-6.493
		c0-9.269-5.061-16.781-6.864-16.781c-2.629,0-4.094,0-4.094,0L29.524,0.101z"/>
	<linearGradient id="SVGID_1_" gradientUnits="userSpaceOnUse" x1="0.0748" y1="-45" x2="0.0748" y2="45">
		<stop  offset="4.528621e-07" style="stop-color:#FFD52D"/>
		<stop  offset="1" style="stop-color:#FF9A1A"/>
	</linearGradient>
	<path style="fill:url(#SVGID_1_);" d="M0.075,45c-19.943,0-30.613-13.138-30.613-33.674c0-19.06,3.666-31.171,5.639-36.31
		c0.69-1.796,1.667-3.48,2.905-4.997C-18.23-34.594-7.925-45,0.075-45S18.38-34.594,22.143-29.981
		c1.237,1.517,2.215,3.201,2.905,4.997c1.974,5.139,5.639,17.25,5.639,36.31C30.687,31.862,20.018,45,0.075,45z"/>
	<path style="fill:#FF9A1A;" d="M0.075-17.333c-2.255,0-3.71-0.261-5.684-1c0-1.478,3.141-2.708,5.684-2.708s5.684,1.23,5.684,2.708
		C3.807-17.602,2.335-17.333,0.075-17.333z"/>
</symbol>
<g id="_x31_F926">
	<g id="_x31_F926_1_">
		<path style="fill:#2B160C;" d="M76.264,6.016c-2.243-2.158-5.543-3.831-10.402-3.831c-16.519,0-43.297,7.327-43.297,41.699
			c0,17.186,1.399,32.107,2.798,42.732c1.399,10.625,2.798,13.755,2.798,13.755s21.68,5.063,35.8,5.063s35.8-5.063,35.8-5.063
			s5.595-22.115,5.595-56.487C105.355,14.632,89.973,7.657,76.264,6.016z"/>
		
			<radialGradient id="SVGID_2_" cx="-215.194" cy="84.0239" r="31.8361" gradientTransform="matrix(0.8945 0 0 1.0014 256.447 -0.117)" gradientUnits="userSpaceOnUse">
			<stop  offset="0.6297" style="stop-color:#FF9A1A"/>
			<stop  offset="1" style="stop-color:#FFD52D"/>
		</radialGradient>
		<polygon style="fill:url(#SVGID_2_);" points="43.941,75.936 45.006,115.824 82.914,115.424 83.98,75.936 		"/>
		
			<use xlink:href="#Person_head_Woman"  width="69.85" height="90" x="-34.925" y="-45" transform="matrix(1.0658 0 0 -1.0658 63.9601 52.0099)" style="overflow:visible;"/>
		
			<use xlink:href="#Person_Woman_Eye_Closed"  width="17.375" height="14.575" x="-8.688" y="-7.287" transform="matrix(1.0658 0 0 -1.0658 47.9354 50.8868)" style="overflow:visible;"/>
		
			<use xlink:href="#Person_Woman_Eye_Closed"  width="17.375" height="14.575" x="-8.688" y="-7.287" transform="matrix(-1.0658 0 0 -1.0658 80.1445 50.8868)" style="overflow:visible;"/>
		<linearGradient id="SVGID_3_" gradientUnits="userSpaceOnUse" x1="64.0399" y1="104.9691" x2="64.0399" y2="127.0415">
			<stop  offset="0" style="stop-color:#005686"/>
			<stop  offset="1" style="stop-color:#003C5A"/>
		</linearGradient>
		<path style="fill:url(#SVGID_3_);" d="M110.897,112.36c-16.253-2.398-23.515-5.995-27.548-9.859c0,0-4.885,6.128-19.31,6.128
			c-14.424,0-19.31-6.128-19.31-6.128c-4.033,3.863-11.295,7.461-27.547,9.859S0.094,127.947,0.094,127.947h127.892
			C127.986,127.947,127.15,114.758,110.897,112.36z"/>
		<g>
			<path style="fill:#2B201A;" d="M53.343,84.012c1.231-1.587,2.963-2.684,4.799-3.459c1.851-0.765,3.873-1.152,5.898-1.165
				c2.025,0.009,4.048,0.396,5.899,1.161c1.837,0.774,3.57,1.873,4.798,3.464c-1.925-0.451-3.708-0.794-5.476-1.043
				c-1.762-0.252-3.493-0.37-5.221-0.385c-1.728,0.012-3.459,0.13-5.222,0.381C57.049,83.213,55.266,83.558,53.343,84.012z"/>
		</g>
		<ellipse style="fill:#2B201A;" cx="64.04" cy="83.267" rx="9.512" ry="4.593"/>
		<g>
			<linearGradient id="SVGID_4_" gradientUnits="userSpaceOnUse" x1="86.8906" y1="3.2123" x2="92.4729" y2="93.9178">
				<stop  offset="0.0054" style="stop-color:#582D24"/>
				<stop  offset="1" style="stop-color:#89542E"/>
			</linearGradient>
			<path style="fill:url(#SVGID_4_);" d="M76.264,3.884c-7.693,0-11.246,9.402-3.785,14.554s24.513,23.27,24.513,39.434
				S85.8,95.707,85.8,95.707c6.395,0,13.96,4.663,13.96,4.663s8.793-15.321,8.793-52.224C108.552,13.997,86.511,3.884,76.264,3.884z
				"/>
			<path style="fill:#89542E;" d="M76.264,3.884c0,0,2.872,6.027,2.872,16.152s-46.979,6.745-46.979,37.836
				s9.858,38.502,9.858,38.502c-6.395,0-13.855,3.997-13.855,3.997s-8.793-15.321-8.793-52.224
				c0-35.304,27.887-48.094,46.494-48.094C74.045,0.053,76.264,3.884,76.264,3.884z"/>
			<linearGradient id="SVGID_5_" gradientUnits="userSpaceOnUse" x1="59.4533" y1="9.9303" x2="47.4633" y2="48.032">
				<stop  offset="0" style="stop-color:#89542E"/>
				<stop  offset="0.9946" style="stop-color:#582D24"/>
			</linearGradient>
			<path style="fill:url(#SVGID_5_);" d="M79.136,20.036c-0.108,7.461-6.773,16.12-25.664,23.314
				c-17.845,6.796-24.646,6.148-29.841,5.939c0,0,24.261-8.15,32.905-18.994c7.327-9.192,7.594-18.385,7.594-18.385
				S79.244,12.576,79.136,20.036z"/>
		</g>
		<g>
			<path style="opacity:0.3;" d="M87.124,32.159c-2.357,0-8.605,6.673-13.165,12.761c0.414-0.846,6.351-15.301,13.114-23.248
				c1.7-1.992,1.249-3.763-1.202-3.763c-2.943,0-14.305,15.416-18.037,22.166c10.362-23.57,12.317-24.186,12.317-27.54
				c0-1.928-0.583-1.687-1.796-1.687c-1.239,0-1.891,0.674-2.796,1.52c-7.015,7.168-10.617,13.628-14.78,22.906
				c7.391-19.198,10.944-20.733,10.944-23.192c0-1.797-1.515-2.878-2.878-2.878c-3.836,0-12.737,16.007-15.12,22.049
				c-0.471,0.673-2.959,4.288-5.339,8.94c-0.345-5.119,0.321-9.912-0.821-14.16c-0.896-3.345-5.889-2.5-5.638,0.954
				c0.006-0.115,0.31,1.293-0.646,6.372c-1.509,8.196-2.284,14.899,0.966,23.252l2.405,4.166c0.146,0.355,0.318,0.688,0.496,1.016
				c-4.927,5.951-26.021,31.689-34.115,45.884c-9.192,16.12,26.916,20.271,26.916,20.271c14.275-22.929,27.949-50.516,30.532-57.464
				c8.286-3.969,9.448-12.715,9.827-17.051c7.789-15.335,10.747-16.813,10.747-19.186C89.054,32.133,88.098,32.159,87.124,32.159z"
				/>
			<g>
				<linearGradient id="SVGID_6_" gradientUnits="userSpaceOnUse" x1="43.3019" y1="42.415" x2="50.0784" y2="40.8564">
					<stop  offset="4.528621e-07" style="stop-color:#FFD52D"/>
					<stop  offset="1" style="stop-color:#FF9A1A"/>
				</linearGradient>
				<path style="fill:url(#SVGID_6_);" d="M45.739,24.318c2.493,6.664,1.934,15.176,5.196,25.327
					c1.554,2.54,1.107,4.998,0.082,7.793c-1.058,2.884-4.651,6.69-5.887,3.574l-3.837-6.645c-3.25-8.353-2.474-15.056-0.966-23.252
					c0.956-5.079,0.652-6.488,0.646-6.372C40.722,21.289,44.843,20.973,45.739,24.318z"/>
				<g>
					<linearGradient id="SVGID_7_" gradientUnits="userSpaceOnUse" x1="72.9757" y1="42.7049" x2="73.0084" y2="42.7049">
						<stop  offset="4.528621e-07" style="stop-color:#FFD52D"/>
						<stop  offset="1" style="stop-color:#FF9A1A"/>
					</linearGradient>
					<path style="fill:url(#SVGID_7_);" d="M73.007,42.676C73.001,42.687,73.013,42.665,73.007,42.676
						C72.974,42.742,72.957,42.771,73.007,42.676z"/>
					<linearGradient id="SVGID_8_" gradientUnits="userSpaceOnUse" x1="42.7399" y1="39.3586" x2="89.0542" y2="39.3586">
						<stop  offset="4.528621e-07" style="stop-color:#FFD52D"/>
						<stop  offset="1" style="stop-color:#FF9A1A"/>
					</linearGradient>
					<path style="fill:url(#SVGID_8_);" d="M89.054,32.793c0-2.114-1.317-1.81-2.291-1.81c-2.357,0-9.197,5.605-13.757,11.693
						c0.414-0.846,7.258-14.212,14.02-22.158c1.7-1.992,0.972-4.216-1.479-4.216c-2.943,0-14.934,14.78-18.666,21.529
						c10.362-23.57,13.403-22.995,13.403-26.348c0-1.928-1.044-2.206-2.257-2.206c-2.589,0-10.933,7.557-18.201,23.753
						C67.217,13.832,70.77,12.297,70.77,9.837c0-1.797-0.881-2.137-2.245-2.137c-3.836,0-13.371,15.266-15.754,21.308
						c-0.965,1.376-10.369,15.056-10.022,24.776c0.366,10.245,8.565,11.767,21.542,17.231c10.558-0.576,12.663-15.242,13.064-19.828
						C85.144,35.853,89.054,35.167,89.054,32.793z"/>
				</g>
				<g>
					<path style="fill:#DE721E;" d="M59.826,33.03C67.217,13.832,70.77,12.297,70.77,9.837c0-0.985-0.272-1.523-0.736-1.816
						c0.036,0.204,0.061,0.427,0.061,0.69C70.095,11.171,60.87,24.543,59.826,33.03z"/>
					<path style="fill:#DE721E;" d="M86.352,19.392c-6.763,7.947-13.652,22.068-13.345,23.284
						c0.414-0.846,7.257-14.212,14.02-22.158c1.203-1.41,1.17-2.921,0.19-3.692C87.358,17.587,87.106,18.507,86.352,19.392z"/>
					<path style="fill:#DE721E;" d="M66.882,37.832c10.362-23.57,13.403-22.995,13.403-26.348c0-1.017-0.295-1.568-0.747-1.868
						c0.043,0.217,0.072,0.457,0.072,0.742C79.609,13.711,66.274,31.929,66.882,37.832z"/>
					<path style="fill:#DE721E;" d="M88.333,31.132c0.023,0.163,0.046,0.328,0.046,0.535c0,2.374-3.91,3.061-11.699,18.396
						c-0.4,4.585-2.505,19.252-13.063,19.827c-9.411-3.963-16.29-5.867-19.51-10.514c2.851,5.492,10.051,7.373,20.185,11.64
						c10.558-0.576,12.663-15.242,13.064-19.827c7.789-15.335,11.699-16.022,11.699-18.396
						C89.054,31.786,88.751,31.336,88.333,31.132z"/>
				</g>
			</g>
			<g>
				<linearGradient id="SVGID_9_" gradientUnits="userSpaceOnUse" x1="27.5173" y1="95.6765" x2="73.5808" y2="85.0822">
					<stop  offset="0" style="stop-color:#005686"/>
					<stop  offset="1" style="stop-color:#003C5A"/>
				</linearGradient>
				<path style="fill:url(#SVGID_9_);" d="M43.421,57.815c0,0,16.864,6.289,24.591,12.308c0,0-16.064,32.869-32.09,57.825H0.014
					c0,0,0.874-6.395,10.066-22.515S43.421,57.815,43.421,57.815z"/>
				<path style="fill:#003C5A;" d="M66.679,69.145c-3.888,7.171-21.202,38.591-36.881,58.802h6.124
					c16.026-24.956,32.09-57.825,32.09-57.825C67.595,69.797,67.146,69.471,66.679,69.145z"/>
			</g>
		</g>
	</g>
</g>
<g id="Layer_1">
</g>
</svg>
