<?xml version="1.0" encoding="iso-8859-1"?>
<!-- Generator: Adobe Illustrator 24.1.2, SVG Export Plug-In . SVG Version: 6.00 Build 0)  -->
<svg version="1.1" xmlns="http://www.w3.org/2000/svg" xmlns:xlink="http://www.w3.org/1999/xlink" x="0px" y="0px"
	 viewBox="0 0 128 128" style="enable-background:new 0 0 128 128;" xml:space="preserve">
<symbol  id="Smiley_shape" viewBox="-57.587 -60 115.173 120">
	<linearGradient id="SVGID_1_" gradientUnits="userSpaceOnUse" x1="0" y1="-60" x2="7.347880e-15" y2="60">
		<stop  offset="0" style="stop-color:#FF9A1A"/>
		<stop  offset="1" style="stop-color:#FFD52D"/>
	</linearGradient>
	<path style="fill:url(#SVGID_1_);" d="M51.962,30C44.462,42.99,18,60,0,60s-44.462-17.01-51.962-30s-7.5-47.01,0-60S-18-60,0-60
		s44.462,17.01,51.962,30S59.462,17.01,51.962,30z"/>
</symbol>
<g id="_x31_F923">
	<g id="_x31_F923_1_">
		
			<use xlink:href="#Smiley_shape"  width="115.173" height="120" id="XMLID_23_" x="-57.587" y="-60" transform="matrix(1.0658 0 0 -1.0658 64 64)" style="overflow:visible;"/>
		<g>
			
				<radialGradient id="SVGID_2_" cx="1121.6167" cy="-1752.7319" r="37.0383" gradientTransform="matrix(0.7612 -0.6486 0.3086 0.3622 -235.3404 1405.3083)" gradientUnits="userSpaceOnUse">
				<stop  offset="0.7445" style="stop-color:#FF7149;stop-opacity:0"/>
				<stop  offset="1" style="stop-color:#FF7149"/>
			</radialGradient>
			<path style="fill:url(#SVGID_2_);" d="M97.361,28.168L59.819,62.527c0,0-8.702-18.239,4.621-31.562S97.361,28.168,97.361,28.168z
				"/>
			<path style="fill:#2B201A;" d="M81.504,24.22c-5.461-4.03-15.573-2.959-21.717,3.184c-1.509,1.509-2.674,3.344-3.439,5.351
				c-1.239-3.398-2.175-7.045,1.655-17.388c-1.297,0.719-2.455,1.604-3.479,2.628c-7.167,7.167-6.6,18.79,0.379,25.769
				c0.713,0.713,1.493,1.367,2.345,1.953c0.39-1.808,1.289-8.85,7.19-14.751C69.243,26.162,74.736,24.434,81.504,24.22z"/>
		</g>
		<g>
			
				<radialGradient id="SVGID_3_" cx="4479.5459" cy="-1752.7319" r="37.0383" gradientTransform="matrix(-0.6486 0.7612 0.3622 0.3086 3583.073 -2791.3716)" gradientUnits="userSpaceOnUse">
				<stop  offset="0.7445" style="stop-color:#FF7149;stop-opacity:0"/>
				<stop  offset="1" style="stop-color:#FF7149"/>
			</radialGradient>
			<path style="fill:url(#SVGID_3_);" d="M28.174,97.357l34.358-37.543c0,0-18.238-8.702-31.561,4.621S28.174,97.357,28.174,97.357z
				"/>
			<path style="fill:#2B201A;" d="M24.225,81.499c-4.029-5.462-2.959-15.574,3.184-21.717c1.509-1.509,3.344-2.674,5.351-3.439
				c-3.398-1.239-7.045-2.175-17.387,1.655c0.719-1.297,1.604-2.455,2.628-3.479c7.167-7.167,18.789-6.6,25.768,0.379
				c0.713,0.713,1.367,1.493,1.953,2.345c-1.808,0.39-8.85,1.289-14.751,7.19C26.168,69.238,24.44,74.731,24.225,81.499z"/>
		</g>
		<g>
			
				<linearGradient id="SVGID_4_" gradientUnits="userSpaceOnUse" x1="728.1083" y1="-1347.8575" x2="708.3643" y2="-1358.6124" gradientTransform="matrix(0.8436 -0.5369 0.5369 0.8436 214.029 1543.5089)">
				<stop  offset="0" style="stop-color:#45C2F8"/>
				<stop  offset="1" style="stop-color:#1D8BFF"/>
			</linearGradient>
			<path style="fill:url(#SVGID_4_);" d="M96.669,3.081c-7.139,0.055-15.06,7.002-18.581,15.522
				c4.593-0.058,11.642,10.385,18.781,10.33c7.139-0.055,12.881-5.887,12.826-13.026C109.639,8.768,103.807,3.026,96.669,3.081z"/>
			
				<ellipse transform="matrix(0.8436 -0.5369 0.5369 0.8436 9.2017 56.8642)" style="fill:#7AD4F8;" cx="102.234" cy="12.633" rx="4.405" ry="7.937"/>
		</g>
		<g>
			
				<linearGradient id="SVGID_5_" gradientUnits="userSpaceOnUse" x1="4075.4402" y1="-2091.5486" x2="4055.6956" y2="-2102.3037" gradientTransform="matrix(-0.5369 0.8436 0.8436 0.5369 3968.1487 -2210.6106)">
				<stop  offset="0" style="stop-color:#45C2F8"/>
				<stop  offset="1" style="stop-color:#1D8BFF"/>
			</linearGradient>
			<path style="fill:url(#SVGID_5_);" d="M3.087,96.665c0.055-7.139,7.002-15.061,15.522-18.581
				c-0.058,4.593,10.385,11.642,10.33,18.781c-0.055,7.139-5.887,12.881-13.026,12.826C8.774,109.635,3.032,103.803,3.087,96.665z"
				/>
			
				<ellipse transform="matrix(0.8343 -0.5514 0.5514 0.8343 -47.2053 26.9761)" style="fill:#7AD4F8;" cx="21.269" cy="92.008" rx="4.405" ry="7.937"/>
		</g>
		<g>
			<path style="fill:#DE721E;" d="M92.118,33.11c-3.653-3.654-24.92,13.448-35.24,23.768S29.457,88.465,33.11,92.119
				c3.653,3.653,32.465,31.619,61.546,2.544c0.001-0.001,0.002-0.002,0.003-0.002c0.001-0.001,0.002-0.002,0.003-0.003
				C123.736,65.575,95.771,36.763,92.118,33.11z"/>
			<path style="fill:#2B201A;" d="M91.762,32.754c-3.427-3.427-24.565,13.803-34.885,24.123s-27.55,31.458-24.123,34.886
				c3.427,3.427,30.48,29.634,59.561,0.559c0.001-0.001,0.002-0.002,0.003-0.002c0.001-0.001,0.002-0.002,0.003-0.003
				C121.396,63.235,95.189,36.181,91.762,32.754z"/>
			<path style="fill:#FFFFFF;" d="M63.182,63.183c9.433-9.433,27.897-24.631,33.619-24.557c-2.251-3.03-4.25-5.083-5.039-5.872
				c-3.427-3.427-24.565,13.803-34.885,24.123s-27.55,31.458-24.123,34.886c0.789,0.789,2.842,2.788,5.872,5.039
				C38.553,91.08,53.75,72.616,63.182,63.183z"/>
			<path style="fill:#FC4A3A;" d="M83.769,83.77c-8.061,8.061-13.822,16.324-15.581,21.769c7.53-1.063,15.743-4.833,24.128-13.217
				c0.001-0.001,0.002-0.002,0.003-0.002c0.001-0.001,0.002-0.002,0.003-0.003c8.384-8.386,12.154-16.599,13.217-24.129
				C100.092,69.947,91.829,75.709,83.769,83.77z"/>
		</g>
	</g>
</g>
<g id="Layer_1">
</g>
</svg>
