<?xml version="1.0" encoding="iso-8859-1"?>
<!-- Generator: Adobe Illustrator 24.1.2, SVG Export Plug-In . SVG Version: 6.00 Build 0)  -->
<svg version="1.1" xmlns="http://www.w3.org/2000/svg" xmlns:xlink="http://www.w3.org/1999/xlink" x="0px" y="0px"
	 viewBox="0 0 128 128" style="enable-background:new 0 0 128 128;" xml:space="preserve">
<symbol  id="Smiley_shape" viewBox="-57.587 -60 115.173 120">
	<linearGradient id="SVGID_1_" gradientUnits="userSpaceOnUse" x1="0" y1="-60" x2="7.347880e-15" y2="60">
		<stop  offset="0" style="stop-color:#FF9A1A"/>
		<stop  offset="1" style="stop-color:#FFD52D"/>
	</linearGradient>
	<path style="fill:url(#SVGID_1_);" d="M51.962,30C44.462,42.99,18,60,0,60s-44.462-17.01-51.962-30s-7.5-47.01,0-60S-18-60,0-60
		s44.462,17.01,51.962,30S59.462,17.01,51.962,30z"/>
</symbol>
<g id="_x31_F928">
	<g id="_x31_F928_1_">
		
			<use xlink:href="#Smiley_shape"  width="115.173" height="120" x="-57.587" y="-60" transform="matrix(1.0658 0 0 -1.0658 64 64)" style="overflow:visible;"/>
		<g>
			
				<radialGradient id="SVGID_2_" cx="40.4656" cy="44.3726" r="13.2938" gradientTransform="matrix(1 0 0 1 0 -0.0028)" gradientUnits="userSpaceOnUse">
				<stop  offset="0" style="stop-color:#FF7149"/>
				<stop  offset="1" style="stop-color:#FF7149;stop-opacity:0"/>
			</radialGradient>
			<path style="fill:url(#SVGID_2_);" d="M58.604,42.574c0,8.576-3.458,17.02-16.247,17.02S26.11,52.229,26.11,43.653
				C32.042,37.656,48.929,42.574,58.604,42.574z"/>
			<g>
				<path style="fill:#2B201A;" d="M42.685,64c-4.709,0-8.526-3.817-8.526-8.526v-4.263c0-4.709,3.817-8.526,8.526-8.526
					s8.526,3.817,8.526,8.526v4.263C51.211,60.183,47.394,64,42.685,64z"/>
				<circle style="fill:#AF9D94;" cx="45.882" cy="48.013" r="3.197"/>
			</g>
			<g>
				<path style="fill:#2B201A;" d="M85.315,66.132L85.315,66.132c-4.709,0-8.526-3.817-8.526-8.526v-8.527
					c0-4.709,3.817-8.526,8.526-8.526h0c4.709,0,8.526,3.817,8.526,8.526v8.527C93.841,62.314,90.024,66.132,85.315,66.132z"/>
				<circle style="fill:#AF9D94;" cx="88.513" cy="45.882" r="3.197"/>
			</g>
		</g>
		<path style="fill:#DE721E;" d="M85.848,88.096c0,0,2.139,6.624-21.848,6.624s-21.848-6.624-21.848-6.624L85.848,88.096z"/>
		<path style="fill:#2B201A;" d="M82.118,91.826l-36.236,0c-2.06,0-3.73-1.67-3.73-3.73c0-2.06,1.67-3.73,3.73-3.73l36.236,0
			c2.06,0,3.73,1.671,3.73,3.73C85.848,90.156,84.178,91.826,82.118,91.826z"/>
		<path style="fill:#2B201A;" d="M71.31,33.941c-0.611,0-1.155-0.503-1.155-1.151c0-0.2,0.764-9.006,10.927-9.006
			c11.192,0,20.801,12.151,20.801,13.965c0,0.41-0.32,1.081-1.079,1.081c-0.291,0-0.489-0.1-0.697-0.251
			c-4.546-3.301-12.625-8.563-18.576-8.563c-4.639,0-5.405,1.472-9.543,3.713C71.881,33.775,71.681,33.941,71.31,33.941z"/>
		<path style="fill:#2B201A;" d="M26.11,43.653c0-2.046,4.117-6.738,10.022-6.738c6.849,0,11.671,5.188,17.716,5.188
			c1.115,0,3.483-0.474,3.667-0.474c0.742,0,1.09,0.379,1.09,0.945c0,1.653-2.976,4.896-7.797,4.896
			c-6.303,0-11.53-5.116-16.389-5.254c-4.468,0.041-6.39,2.465-7.282,2.465C26.568,44.681,26.11,44.223,26.11,43.653z"/>
	</g>
</g>
<g id="Layer_1">
</g>
</svg>
