<?xml version="1.0" encoding="iso-8859-1"?>
<!-- Generator: Adobe Illustrator 24.1.2, SVG Export Plug-In . SVG Version: 6.00 Build 0)  -->
<svg version="1.1" xmlns="http://www.w3.org/2000/svg" xmlns:xlink="http://www.w3.org/1999/xlink" x="0px" y="0px"
	 viewBox="0 0 128 128" style="enable-background:new 0 0 128 128;" xml:space="preserve">
<symbol  id="Smiley_shape" viewBox="-57.587 -60 115.173 120">
	<linearGradient id="SVGID_1_" gradientUnits="userSpaceOnUse" x1="0" y1="-60" x2="7.347880e-15" y2="60">
		<stop  offset="0" style="stop-color:#FF9A1A"/>
		<stop  offset="1" style="stop-color:#FFD52D"/>
	</linearGradient>
	<path style="fill:url(#SVGID_1_);" d="M51.962,30C44.462,42.99,18,60,0,60s-44.462-17.01-51.962-30s-7.5-47.01,0-60S-18-60,0-60
		s44.462,17.01,51.962,30S59.462,17.01,51.962,30z"/>
</symbol>
<symbol  id="smiling_eyes" viewBox="-40 -13.872 80 27.744">
	
		<radialGradient id="SVGID_2_" cx="21.662" cy="-14.0128" r="26.6035" gradientTransform="matrix(1 0 0 0.7512 0 -3.4858)" gradientUnits="userSpaceOnUse">
		<stop  offset="0.7445" style="stop-color:#FF7149;stop-opacity:0"/>
		<stop  offset="1" style="stop-color:#FF7149"/>
	</radialGradient>
	<path style="fill:url(#SVGID_2_);" d="M40-13.872H4c0,0,0.321,20,18,20S40-13.872,40-13.872z"/>
	
		<radialGradient id="SVGID_3_" cx="-22.338" cy="-14.0128" r="26.6035" gradientTransform="matrix(1 0 0 0.7512 0 -3.4858)" gradientUnits="userSpaceOnUse">
		<stop  offset="0.7445" style="stop-color:#FF7149;stop-opacity:0"/>
		<stop  offset="1" style="stop-color:#FF7149"/>
	</radialGradient>
	<path style="fill:url(#SVGID_3_);" d="M-4-13.872h-36c0,0,0.321,20,18,20S-4-13.872-4-13.872z"/>
	<path style="fill:#2B201A;" d="M-22,6.128c7.134,0,11.439-3.258,14.039-7.143C-7.945-0.746-7.92-0.48-7.92-0.208
		c0,7.776-4.08,14.08-14.08,14.08s-14.08-6.304-14.08-14.08c0-0.272,0.025-0.538,0.041-0.807C-33.439,2.87-29.134,6.128-22,6.128z"
		/>
	<path style="fill:#2B201A;" d="M22,6.128c7.134,0,11.439-3.258,14.039-7.143c0.015,0.269,0.041,0.534,0.041,0.807
		c0,7.776-4.08,14.08-14.08,14.08S7.92,7.568,7.92-0.208c0-0.272,0.025-0.538,0.041-0.807C10.561,2.87,14.866,6.128,22,6.128z"/>
</symbol>
<g id="_x31_F92D">
	<g id="_x31_F92D_1_">
		
			<use xlink:href="#Smiley_shape"  width="115.173" height="120" x="-57.587" y="-60" transform="matrix(1.0658 0 0 -1.0658 64 64)" style="overflow:visible;"/>
		
			<radialGradient id="SVGID_4_" cx="63.4671" cy="124.7497" r="55.9627" gradientTransform="matrix(1 0 0 1 0 -0.0028)" gradientUnits="userSpaceOnUse">
			<stop  offset="0" style="stop-color:#DE721E"/>
			<stop  offset="1" style="stop-color:#DE721E;stop-opacity:0"/>
		</radialGradient>
		<path style="fill:url(#SVGID_4_);" d="M64,53.342c-19.184,0-63.372,28.787-55.379,42.632S44.816,127.947,64,127.947
			s47.385-18.129,55.379-31.974S83.184,53.342,64,53.342z"/>
		<g>
			
				<radialGradient id="SVGID_5_" cx="28.4846" cy="77.4846" r="16.123" gradientTransform="matrix(1 0 0 1 0 -0.0028)" gradientUnits="userSpaceOnUse">
				<stop  offset="0" style="stop-color:#FF7149"/>
				<stop  offset="1" style="stop-color:#FF7149;stop-opacity:0"/>
			</radialGradient>
			<ellipse style="fill:url(#SVGID_5_);" cx="28.485" cy="77.484" rx="15.221" ry="16.978"/>
			
				<radialGradient id="SVGID_6_" cx="3330.77" cy="77.4846" r="16.123" gradientTransform="matrix(-1 0 0 1 3430.2253 -0.0028)" gradientUnits="userSpaceOnUse">
				<stop  offset="0" style="stop-color:#FF7149"/>
				<stop  offset="1" style="stop-color:#FF7149;stop-opacity:0"/>
			</radialGradient>
			<ellipse style="fill:url(#SVGID_6_);" cx="99.455" cy="77.484" rx="15.221" ry="16.978"/>
		</g>
		<path style="fill:#2B201A;" d="M27.498,75.8C38.955,82.476,50.23,86.902,64,86.902c13.696-0.037,24.87-4.352,36.502-11.102
			C95.83,88.299,81.315,98.631,64.117,98.631c-0.039,0-0.078,0-0.117,0c-0.01,0-0.02,0-0.03,0
			C46.914,98.631,32.259,88.467,27.498,75.8z"/>
		
			<use xlink:href="#smiling_eyes"  width="80" height="27.744" x="-40" y="-13.872" transform="matrix(1.0658 0 0 -1.0658 64 55.6101)" style="overflow:visible;"/>
		<g>
			<linearGradient id="SVGID_7_" gradientUnits="userSpaceOnUse" x1="45.5385" y1="75.9279" x2="54.7975" y2="86.7856">
				<stop  offset="0" style="stop-color:#DE721E"/>
				<stop  offset="1" style="stop-color:#DE721E;stop-opacity:0"/>
			</linearGradient>
			<path style="fill:url(#SVGID_7_);" d="M47.475,64c0,0,8.532,0.188,8.532,15.548S44.814,92.367,44.814,92.367L47.475,64z"/>
			<linearGradient id="SVGID_8_" gradientUnits="userSpaceOnUse" x1="84.0046" y1="82.181" x2="90.2663" y2="91.7734">
				<stop  offset="0.4049" style="stop-color:#DE721E"/>
				<stop  offset="1" style="stop-color:#DE721E;stop-opacity:0"/>
			</linearGradient>
			<path style="fill:url(#SVGID_8_);" d="M96.922,72.778c0,3.219-5.918,11.765-23.722,22.654
				c14.974-7.831,19.743-15.197,22.325-15.663c0.773-1.392,1.205-2.649,1.396-3.794c0.188-1.124,0.359-3.085-0.215-4.139
				C96.837,72.127,96.922,72.439,96.922,72.778z"/>
			<linearGradient id="SVGID_9_" gradientUnits="userSpaceOnUse" x1="77.7801" y1="76.7452" x2="84.1084" y2="86.2042">
				<stop  offset="0" style="stop-color:#DE721E"/>
				<stop  offset="1" style="stop-color:#DE721E;stop-opacity:0"/>
			</linearGradient>
			<path style="fill:url(#SVGID_9_);" d="M88.41,66.97c0,4.632-7.927,12.227-21.043,20.544c9.846-4.857,15.807-10.247,19.905-13.739
				c0.516-1.134,0.902-2.321,1.138-3.607c0.16-0.879,0.703-3.957-0.596-4.433C88.195,66.098,88.41,66.54,88.41,66.97z"/>
			<path style="fill:#DE721E;" d="M29.86,103.792c-0.03,0.534-0.049,1.074-0.049,1.624c0,4.472,1.1,8.559,2.927,12.1
				c1.148,0.677,2.31,1.336,3.485,1.967C32.679,115.374,30.219,109.983,29.86,103.792z"/>
			<linearGradient id="SVGID_10_" gradientUnits="userSpaceOnUse" x1="76.8526" y1="97.1061" x2="76.8526" y2="135.7479">
				<stop  offset="0" style="stop-color:#DE721E"/>
				<stop  offset="1" style="stop-color:#DE721E;stop-opacity:0"/>
			</linearGradient>
			<path style="fill:url(#SVGID_10_);" d="M74.919,117.56c-3.847,3.578-10.108,8.251-17.061,9.833
				c2.12,0.355,4.18,0.554,6.142,0.554c4.213,0,8.861-0.875,13.635-2.387c0.885-1.217,1.658-2.667,2.285-4.408
				c4.077-11.325,13.722-13.456,15.849-23.996c0.074-0.367,0.136-1.571-0.011-2.659C95.597,98.723,93.216,100.543,74.919,117.56z"/>
			<linearGradient id="SVGID_11_" gradientUnits="userSpaceOnUse" x1="88.4929" y1="91.2815" x2="94.1549" y2="99.4749">
				<stop  offset="0" style="stop-color:#DE721E"/>
				<stop  offset="1" style="stop-color:#DE721E;stop-opacity:0"/>
			</linearGradient>
			<path style="fill:url(#SVGID_11_);" d="M98.301,81.417c0.131,0.282,0.203,0.569,0.203,0.835c0,5.297-13.381,16.258-19.063,19.996
				c14.048-8.867,11.655-10.347,14.03-10.347c0.505,0,0.936,0.171,1.287,0.418c1.925-2.343,3.339-4.705,3.746-6.87
				C98.665,84.592,99.008,82.267,98.301,81.417z"/>
		</g>
		<linearGradient id="SVGID_12_" gradientUnits="userSpaceOnUse" x1="66.7486" y1="67.9939" x2="59.3654" y2="135.033">
			<stop  offset="4.528621e-07" style="stop-color:#FFD52D"/>
			<stop  offset="1" style="stop-color:#FF9A1A"/>
		</linearGradient>
		<path style="fill:url(#SVGID_12_);" d="M98.504,82.252c0-1.075-1.167-2.506-2.727-2.506c-2.527,0-7.104,7.596-22.577,15.687
			c17.804-10.889,23.722-19.435,23.722-22.654c0-1.61-1.612-2.741-3.476-2.741c-4.16,0-9.844,9.466-26.079,17.476
			c13.116-8.317,21.042-15.912,21.042-20.544c0-0.969-1.041-2.027-2.807-2.027c-4.396,0-5.954,5.058-35.9,20.148
			c1.091-4.729,2.415-9.628,2.415-13.894c0-6.896-3.468-7.198-4.093-7.198c-1.773,0-3.683,1.675-4.696,5.657
			c0.002-0.005,0.004-0.007,0.005-0.007c0.001,0,0.002,0.002,0.002,0.007c0,0.134-0.47,2.101-3.738,7.42
			c-5.038,8.275-9.786,15.427-9.786,25.141c0,15.004,12.313,25.729,23.335,25.729c8.768,0,17.073-6.014,21.774-10.387
			c19.055-17.723,20.849-18.961,20.849-23.601c0-0.732-0.872-2.058-2.298-2.058c-2.375,0,0.019,1.479-14.03,10.347
			C85.123,98.509,98.504,87.548,98.504,82.252z"/>
	</g>
</g>
<g id="Layer_1">
</g>
</svg>
