<?xml version="1.0" encoding="iso-8859-1"?>
<!-- Generator: Adobe Illustrator 24.1.2, SVG Export Plug-In . SVG Version: 6.00 Build 0)  -->
<svg version="1.1" xmlns="http://www.w3.org/2000/svg" xmlns:xlink="http://www.w3.org/1999/xlink" x="0px" y="0px"
	 viewBox="0 0 128 128" style="enable-background:new 0 0 128 128;" xml:space="preserve">
<symbol  id="Smiley_shape" viewBox="-57.587 -60 115.173 120">
	<linearGradient id="SVGID_1_" gradientUnits="userSpaceOnUse" x1="0" y1="-60" x2="7.347880e-15" y2="60">
		<stop  offset="0" style="stop-color:#FF9A1A"/>
		<stop  offset="1" style="stop-color:#FFD52D"/>
	</linearGradient>
	<path style="fill:url(#SVGID_1_);" d="M51.962,30C44.462,42.99,18,60,0,60s-44.462-17.01-51.962-30s-7.5-47.01,0-60S-18-60,0-60
		s44.462,17.01,51.962,30S59.462,17.01,51.962,30z"/>
</symbol>
<g id="_x31_F92E">
	<g id="_x31_F92E_1_">
		
			<use xlink:href="#Smiley_shape"  width="115.173" height="120" id="XMLID_16_" x="-57.587" y="-60" transform="matrix(1.0658 0 0 -1.0658 64 63.955)" style="overflow:visible;"/>
		
			<radialGradient id="SVGID_2_" cx="64.7168" cy="37.3835" r="38.249" gradientTransform="matrix(1 0 0 0.5952 0 15.1324)" gradientUnits="userSpaceOnUse">
			<stop  offset="0" style="stop-color:#ADDD82"/>
			<stop  offset="0.9395" style="stop-color:#ADDD82;stop-opacity:0.0605"/>
			<stop  offset="1" style="stop-color:#ADDD82;stop-opacity:0"/>
		</radialGradient>
		<ellipse style="opacity:0.5;fill:url(#SVGID_2_);" cx="64.717" cy="37.382" rx="41.037" ry="24.25"/>
		<g>
			<g>
				
					<radialGradient id="SVGID_3_" cx="86.5992" cy="69.5129" r="13.9509" gradientTransform="matrix(1 0 0 0.2537 0 51.8755)" gradientUnits="userSpaceOnUse">
					<stop  offset="0" style="stop-color:#FF7149"/>
					<stop  offset="1" style="stop-color:#FF7149;stop-opacity:0"/>
				</radialGradient>
				<path style="fill:url(#SVGID_3_);" d="M72.865,70.072c0,0,13.197,12.351,28.592-1.11c0,0-5.01-1.652-15.185-1.652
					S72.865,70.072,72.865,70.072z"/>
				
					<radialGradient id="SVGID_4_" cx="861.0743" cy="-1107.54" r="13.9512" fx="859.5582" fy="-1106.5743" gradientTransform="matrix(0.5799 -0.8147 0.2067 0.1471 -189.9157 926.5023)" gradientUnits="userSpaceOnUse">
					<stop  offset="0" style="stop-color:#FF7149"/>
					<stop  offset="1" style="stop-color:#FF7149;stop-opacity:0"/>
				</radialGradient>
				<path style="fill:url(#SVGID_4_);" d="M73.318,69.566c0,0,18.052-0.914,19.064-21.339c0,0-4.668,2.456-11.736,9.776
					C73.577,65.323,73.318,69.566,73.318,69.566z"/>
				<path style="fill:#2B201A;" d="M81.489,64.707c-0.638,0.042-0.977,0.066-1.615,0.124c0.963-2.796,2.2-4.726,3.636-6.95
					c3.262-4.57,6.399-7.724,8.913-9.654c-4.503,0.236-9.271,3.439-12.33,6.829c-6.455,7.615-6.888,12.737-7.228,15.016
					c9.016-0.94,16.38-1.395,28.592-1.11C95.483,65.668,88.338,64.479,81.489,64.707z"/>
			</g>
			<g>
				
					<radialGradient id="SVGID_5_" cx="4097.147" cy="69.5129" r="13.9509" gradientTransform="matrix(-1 0 0 0.2537 4138.5479 51.8755)" gradientUnits="userSpaceOnUse">
					<stop  offset="0" style="stop-color:#FF7149"/>
					<stop  offset="1" style="stop-color:#FF7149;stop-opacity:0"/>
				</radialGradient>
				<path style="fill:url(#SVGID_5_);" d="M55.135,70.072c0,0-13.197,12.351-28.592-1.11c0,0,5.01-1.652,15.185-1.652
					S55.135,70.072,55.135,70.072z"/>
				
					<radialGradient id="SVGID_6_" cx="3924.2944" cy="1481.1229" r="13.9512" fx="3922.7783" fy="1482.0886" gradientTransform="matrix(-0.5799 -0.8147 -0.2067 0.1471 2629.2527 3041.3533)" gradientUnits="userSpaceOnUse">
					<stop  offset="0" style="stop-color:#FF7149"/>
					<stop  offset="1" style="stop-color:#FF7149;stop-opacity:0"/>
				</radialGradient>
				<path style="fill:url(#SVGID_6_);" d="M54.682,69.566c0,0-18.052-0.914-19.064-21.339c0,0,4.668,2.456,11.736,9.776
					S54.682,69.566,54.682,69.566z"/>
				<path style="fill:#2B201A;" d="M46.511,64.707c0.638,0.042,0.977,0.066,1.615,0.124c-0.963-2.796-2.2-4.726-3.636-6.95
					c-3.262-4.57-6.399-7.724-8.913-9.654c4.503,0.236,9.271,3.439,12.33,6.829c6.455,7.615,6.888,12.737,7.228,15.016
					c-9.016-0.94-16.38-1.395-28.592-1.11C32.517,65.668,39.662,64.479,46.511,64.707z"/>
			</g>
		</g>
		<path style="fill:#DE721E;" d="M97.432,99.475L64,99.67l-33.433-0.195c0,3.528-0.503,12.039,33.432,12.039l0,0h0l0,0l0,0
			C97.936,111.514,97.432,103.003,97.432,99.475z"/>
		<path style="fill:#2B201A;" d="M64,76.688c-25.417,0-33.432,14.771-33.432,22.787s21.067,9.457,33.432,9.457
			s33.433-1.441,33.433-9.457S89.417,76.688,64,76.688z"/>
		<g>
			<path style="fill:#2B201A;" d="M47.308,32.961c0,3.76-4.079,10.499-16.251,13.456c-3.496,0.933-7.025,1.112-7.097,1.112
				c-0.236,0-0.616-0.183-0.616-0.617c0-0.843,1.426-0.779,6.501-3.652c10.577-5.501,14.082-12.102,14.082-12.17
				c0,0,0-0.001,0-0.001c-0.001,0-0.003,0.003-0.006,0.008c0.339-0.517,0.904-0.798,1.48-0.798
				C46.569,30.299,47.308,31.36,47.308,32.961z"/>
			<path style="fill:#2B201A;" d="M80.692,32.961c0,3.76,4.079,10.499,16.251,13.456c3.496,0.933,7.025,1.112,7.097,1.112
				c0.236,0,0.616-0.183,0.616-0.617c0-0.843-1.426-0.779-6.501-3.652c-10.577-5.501-14.082-12.102-14.082-12.17
				c0,0,0-0.001,0-0.001c0.001,0,0.003,0.003,0.006,0.008c-0.339-0.517-0.904-0.798-1.48-0.798
				C81.431,30.299,80.692,31.36,80.692,32.961z"/>
		</g>
		<ellipse style="fill:#779B3D;" cx="64" cy="123.149" rx="48.098" ry="4.843"/>
		<linearGradient id="SVGID_7_" gradientUnits="userSpaceOnUse" x1="64.0001" y1="85.4772" x2="64.0001" y2="121.0839">
			<stop  offset="0" style="stop-color:#9CBB1A"/>
			<stop  offset="1" style="stop-color:#779B3D"/>
		</linearGradient>
		<path style="fill:url(#SVGID_7_);" d="M64,79c-23.334,0-30.693,13.561-30.693,20.92l1.066,23.81l59.255-0.18l1.066-23.629
			C94.693,92.561,87.334,79,64,79z"/>
		<g>
			<path style="fill:#779B3D;" d="M105.044,116.659c-1.015,1.119-4.232,2.59-5.351,1.575c-1.119-1.015,0.284-4.133,1.299-5.252
				s2.745-1.203,3.864-0.188S106.06,115.54,105.044,116.659z"/>
			<circle style="fill:#779B3D;" cx="15.044" cy="110.769" r="1.837"/>
			<path style="fill:#779B3D;" d="M29.426,112.067c2.205,2.205,1.17,7.101-0.615,8.131c-1.785,1.031-1.67-3.005-4.256-4.729
				c-1.419-0.946-2.013-3.738-0.228-4.769C26.113,109.67,27.968,110.609,29.426,112.067z"/>
			<circle style="fill:#779B3D;" cx="45.479" cy="92.215" r="2.212"/>
			<circle style="fill:#779B3D;" cx="78.786" cy="102.781" r="2.713"/>
			<circle style="fill:#779B3D;" cx="55.155" cy="107.296" r="2.094"/>
			<circle style="fill:#779B3D;" cx="70.455" cy="91.185" r="2.195"/>
			<circle style="fill:#779B3D;" cx="68.209" cy="117.986" r="2.516"/>
			<circle style="fill:#779B3D;" cx="44.347" cy="118.239" r="2.77"/>
		</g>
		
			<ellipse transform="matrix(0.7071 -0.7071 0.7071 0.7071 -40.251 87.6925)" style="fill:#ADDD82;" cx="85.732" cy="92.435" rx="3.715" ry="7.205"/>
	</g>
</g>
<g id="Layer_1">
</g>
</svg>
