<?xml version="1.0" encoding="iso-8859-1"?>
<!-- Generator: Adobe Illustrator 24.1.2, SVG Export Plug-In . SVG Version: 6.00 Build 0)  -->
<svg version="1.1" xmlns="http://www.w3.org/2000/svg" xmlns:xlink="http://www.w3.org/1999/xlink" x="0px" y="0px"
	 viewBox="0 0 128 128" style="enable-background:new 0 0 128 128;" xml:space="preserve">
<symbol  id="Red_smiley_shape" viewBox="-57.587 -60 115.173 120">
	<linearGradient id="SVGID_1_" gradientUnits="userSpaceOnUse" x1="0" y1="-60" x2="7.347880e-15" y2="60">
		<stop  offset="0" style="stop-color:#C70300"/>
		<stop  offset="0.573" style="stop-color:#E63522"/>
		<stop  offset="1" style="stop-color:#FF5D3D"/>
	</linearGradient>
	<path style="fill:url(#SVGID_1_);" d="M51.962,30C44.462,42.99,18,60,0,60s-44.462-17.01-51.962-30s-7.5-47.01,0-60S-18-60,0-60
		s44.462,17.01,51.962,30S59.462,17.01,51.962,30z"/>
</symbol>
<symbol  id="Standard_eyes" viewBox="-28 -12 56 24">
	<g>
		<path style="fill:#2B201A;" d="M-20-12L-20-12c-4.418,0-8,3.582-8,8v8c0,4.418,3.582,8,8,8h0c4.418,0,8-3.582,8-8v-8
			C-12-8.418-15.582-12-20-12z"/>
		<circle style="fill:#AF9D94;" cx="-17" cy="7" r="3"/>
	</g>
	<g>
		<path style="fill:#2B201A;" d="M20-12L20-12c-4.418,0-8,3.582-8,8v8c0,4.418,3.582,8,8,8h0c4.418,0,8-3.582,8-8v-8
			C28-8.418,24.418-12,20-12z"/>
		<circle style="fill:#AF9D94;" cx="23" cy="7" r="3"/>
	</g>
</symbol>
<g id="_x31_F92C">
	<g id="_x31_F92C_1_">
		
			<use xlink:href="#Red_smiley_shape"  width="115.173" height="120" id="XMLID_15_" x="-57.587" y="-60" transform="matrix(1.0658 0 0 -1.0658 64 64)" style="overflow:visible;"/>
		
			<use xlink:href="#Standard_eyes"  width="56" height="24" x="-28" y="-12" transform="matrix(1.0658 0 0 -1.0658 64 59.7368)" style="overflow:visible;"/>
		<circle style="fill:#2B201A;" cx="88.513" cy="52.543" r="3.464"/>
		
			<radialGradient id="SVGID_2_" cx="42.7969" cy="49.9946" r="19.397" gradientTransform="matrix(0.9429 0.3331 -0.2731 0.7733 16.0988 -2.9201)" gradientUnits="userSpaceOnUse">
			<stop  offset="0" style="stop-color:#C70300"/>
			<stop  offset="1" style="stop-color:#C70300;stop-opacity:0"/>
		</radialGradient>
		<path style="fill:url(#SVGID_2_);" d="M21.374,47.825C22.091,36.95,31.481,28.709,42.357,29.41
			c10.877,0.701,19.131,10.079,18.445,20.957c0,0-3.561,11.306-22.609-4.568C30.898,41.746,21.374,47.825,21.374,47.825z"/>
		
			<radialGradient id="SVGID_3_" cx="3023.5635" cy="49.9946" r="19.397" gradientTransform="matrix(-0.9429 0.3331 0.2731 0.7733 2922.4707 -995.7368)" gradientUnits="userSpaceOnUse">
			<stop  offset="0" style="stop-color:#C70300"/>
			<stop  offset="1" style="stop-color:#C70300;stop-opacity:0"/>
		</radialGradient>
		<path style="fill:url(#SVGID_3_);" d="M106.62,47.825C105.903,36.95,96.513,28.709,85.637,29.41
			C74.76,30.112,66.506,39.489,67.191,50.367c0,0,3.561,11.306,22.609-4.568C97.096,41.746,106.62,47.825,106.62,47.825z"/>
		<path style="fill:#2B201A;" d="M21.374,47.825c2.784-2.979,7.314-5.16,12.362-5.16c1.766,0,3.557,0.246,5.248,0.724
			c8.19,2.292,12.415,8.586,18.783,8.586c0.134,0,1.961,0.171,3.036-1.608c0.312,0.474,0.48,1.092,0.48,1.744
			c0,3.853-5.244,6.415-9.52,6.415c-7.15,0-12.871-6.11-19.99-8.458C28.869,49.001,25.435,48.556,21.374,47.825z"/>
		<path style="fill:#2B201A;" d="M106.62,47.825c-4.061,0.731-7.495,1.176-10.399,2.242c-7.143,2.357-12.823,8.458-19.99,8.458
			c-4.399,0-9.52-2.64-9.52-6.415c0-0.652,0.168-1.27,0.48-1.744c1.069,1.768,2.833,1.608,3.036,1.608
			c7.626,0,12.763-9.31,24.031-9.31C99.256,42.665,103.805,44.813,106.62,47.825z"/>
		<g>
			<path style="fill:#2B201A;" d="M114.557,117.754l-104.092-8.584c-1.76-0.145-3.069-1.689-2.924-3.449L9.994,75.98
				c0.145-1.76,1.689-3.069,3.449-2.924l104.092,8.584c1.76,0.145,3.069,1.689,2.924,3.449l-2.452,29.741
				C117.861,116.59,116.317,117.899,114.557,117.754z"/>
			<g>
				<path style="fill:#F1F1F1;" d="M17.895,93.715l1.103-3.944l-3.7-0.305l0.359-4.355l4.54,0.374l1.554-5.558l4.316,0.356
					l-1.562,5.558l3.33,0.275l1.555-5.558l4.3,0.355L32.14,86.47l2.102,0.173l-0.359,4.355l-2.939-0.242L29.844,94.7l3.709,0.306
					l-0.359,4.355l-4.546-0.375l-1.526,5.467l-4.316-0.356l1.529-5.467l-3.345-0.276l-1.537,5.466l-4.286-0.353L16.696,98
					l-2.087-0.172l0.359-4.355L17.895,93.715z M22.193,94.069l3.34,0.275l1.103-3.944l-3.335-0.275L22.193,94.069z"/>
				<path style="fill:#F1F1F1;" d="M36.726,87.277c0.294-3.565,2.655-5.897,6.524-5.578c3.814,0.315,5.804,2.967,5.507,6.57
					c-0.297,3.606-2.676,5.912-6.51,5.596C38.341,93.543,36.434,90.819,36.726,87.277z M40.986,87.66
					c-0.125,1.511-0.02,3.445,1.478,3.569c1.485,0.122,1.904-1.791,2.026-3.28c0.124-1.501,0.025-3.429-1.463-3.552
					C41.518,84.273,41.111,86.145,40.986,87.66z M56.109,82.76l3.207,0.264l-14.887,23.649l-3.172-0.262L56.109,82.76z
					 M51.729,101.112c0.295-3.58,2.664-5.912,6.51-5.595c3.894,0.321,5.814,3.046,5.522,6.587c-0.296,3.595-2.685,5.911-6.526,5.594
					C53.456,107.387,51.43,104.748,51.729,101.112z M55.99,101.495c-0.123,1.496-0.031,3.43,1.463,3.553
					c1.51,0.125,1.917-1.753,2.041-3.264c0.125-1.511,0.034-3.444-1.478-3.569C56.533,98.093,56.113,100.006,55.99,101.495z"/>
				<path style="fill:#F1F1F1;" d="M68.644,84.19l6.6,0.544l-0.435,5.27l-2.148,10.483l-4.08-0.336L68.209,89.46L68.644,84.19z
					 M67.431,101.676l6.16,0.508l-0.467,5.665l-6.16-0.508L67.431,101.676z"/>
				<path style="fill:#F1F1F1;" d="M78.99,85.043l6.6,0.544l-0.435,5.27l-2.148,10.483l-4.08-0.336l-0.372-10.691L78.99,85.043z
					 M77.778,102.529l6.16,0.508l-0.467,5.665l-6.16-0.508L77.778,102.529z"/>
				<path style="fill:#F1F1F1;" d="M106.305,99.258l4.732,1.518c-0.621,1.708-1.043,2.549-2.06,4.055
					c1.93,1.599,1.883,1.672,3.221,2.617l-3.651,3.703c-1.398-0.935-2.05-1.582-3.451-2.604c-2.226,1.272-4.624,1.938-8.474,1.621
					c-6.211-0.512-8.522-3.9-8.24-7.32c0.271-3.281,2.856-5.233,6-6.257c-1.094-1.637-1.875-3.186-1.715-5.13
					c0.254-3.086,2.619-5.47,7.747-5.048c3.721,0.307,7.148,2.053,6.843,5.743c-0.25,3.035-2.73,4.361-5.051,5.683
					c0.989,1.215,2.031,2.355,3.125,3.42C105.698,100.632,106.023,99.966,106.305,99.258z M96.877,100.053
					c-1.177,0.72-2.244,1.468-2.356,2.825c-0.119,1.441,1.034,3.056,3.201,3.234c1.102,0.091,2.377-0.253,3.827-1.034
					C100.321,103.917,98.763,102.242,96.877,100.053z M99.539,94.618c1.131-0.522,2.648-1.545,2.749-2.775
					c0.077-0.931-0.555-1.826-1.902-1.937c-1.333-0.11-2.202,0.772-2.281,1.734C98.051,92.293,98.529,93.285,99.539,94.618z"/>
			</g>
		</g>
	</g>
</g>
<g id="Layer_1">
</g>
</svg>
