<?xml version="1.0" encoding="iso-8859-1"?>
<!-- Generator: Adobe Illustrator 24.1.2, SVG Export Plug-In . SVG Version: 6.00 Build 0)  -->
<svg version="1.1" xmlns="http://www.w3.org/2000/svg" xmlns:xlink="http://www.w3.org/1999/xlink" x="0px" y="0px"
	 viewBox="0 0 128 128" style="enable-background:new 0 0 128 128;" xml:space="preserve">
<symbol  id="Smiley_shape" viewBox="-57.587 -60 115.173 120">
	<linearGradient id="SVGID_1_" gradientUnits="userSpaceOnUse" x1="0" y1="-60" x2="7.347880e-15" y2="60">
		<stop  offset="0" style="stop-color:#FF9A1A"/>
		<stop  offset="1" style="stop-color:#FFD52D"/>
	</linearGradient>
	<path style="fill:url(#SVGID_1_);" d="M51.962,30C44.462,42.99,18,60,0,60s-44.462-17.01-51.962-30s-7.5-47.01,0-60S-18-60,0-60
		s44.462,17.01,51.962,30S59.462,17.01,51.962,30z"/>
</symbol>
<g id="_x31_F971">
	<g id="_x31_F971_1_">
		
			<use xlink:href="#Smiley_shape"  width="115.173" height="120" x="-57.587" y="-60" transform="matrix(1.0658 0 0 -1.0658 64 64)" style="overflow:visible;"/>
		
			<radialGradient id="SVGID_2_" cx="21.7192" cy="95.5479" r="32.1514" gradientTransform="matrix(0.8591 -0.5118 0.7985 1.3402 -73.232 -21.3918)" gradientUnits="userSpaceOnUse">
			<stop  offset="0" style="stop-color:#DE721E"/>
			<stop  offset="1" style="stop-color:#DE721E;stop-opacity:0"/>
		</radialGradient>
		<path style="fill:url(#SVGID_2_);" d="M8.621,32.026c-7.993,13.845-7.993,50.102,0,63.947S44.816,127.947,64,127.947
			S16.615,18.181,8.621,32.026z"/>
		<g>
			<linearGradient id="SVGID_3_" gradientUnits="userSpaceOnUse" x1="49.209" y1="93.1597" x2="37.2301" y2="134.5903">
				<stop  offset="0" style="stop-color:#DE721E"/>
				<stop  offset="0.3081" style="stop-color:#E2761E;stop-opacity:0.6919"/>
				<stop  offset="0.6413" style="stop-color:#EC831C;stop-opacity:0.3587"/>
				<stop  offset="0.9853" style="stop-color:#FE991A;stop-opacity:0.0147"/>
				<stop  offset="1" style="stop-color:#FF9A1A;stop-opacity:0"/>
			</linearGradient>
			<path style="fill:url(#SVGID_3_);" d="M21.829,109.922c9.295,7.386,21.471,13.985,32.503,16.704
				c0.393-1.612,0.922-3.517,1.634-5.786c4.774-15.221,14.05-21.706,14.05-21.706l3.513-22.517L48.22,84.092L21.829,109.922z"/>
			<linearGradient id="SVGID_4_" gradientUnits="userSpaceOnUse" x1="18.5692" y1="77.5242" x2="32.7788" y2="76.1837">
				<stop  offset="0" style="stop-color:#DE721E"/>
				<stop  offset="1" style="stop-color:#FF9A1A;stop-opacity:0"/>
			</linearGradient>
			<path style="fill:url(#SVGID_4_);" d="M17.908,59.038c0,0,18.483,5.6,18.202,21.722c-0.281,16.122-18.202,15.221-18.202,15.221
				V59.038z"/>
		</g>
		<g>
			
				<radialGradient id="SVGID_5_" cx="-10445.5029" cy="-8041.9897" r="21.2633" gradientTransform="matrix(0.9929 0.1188 -0.0337 0.2821 10187.0723 3549.0022)" gradientUnits="userSpaceOnUse">
				<stop  offset="0.7517" style="stop-color:#FF7149;stop-opacity:0"/>
				<stop  offset="1" style="stop-color:#FF7149"/>
			</radialGradient>
			<path style="fill:url(#SVGID_5_);" d="M88.427,32.828c-7.93-1.233-13.164,0.866-16.576,3.809l31.366,4.153
				C100.625,37.41,96.852,34.138,88.427,32.828z"/>
			<path style="fill:#2B201A;" d="M88.427,32.828c8.425,1.309,12.198,4.582,14.79,7.961c1.054-6.782-5.314-13.413-13.739-14.723
				c-8.593-1.336-16.501,3.324-17.627,10.57C75.263,33.694,80.497,31.596,88.427,32.828z"/>
		</g>
		<g>
			
				<radialGradient id="SVGID_6_" cx="13957.8115" cy="-8681.5303" r="21.2633" gradientTransform="matrix(-0.9909 0.1348 0.0383 0.2815 14204.0908 601.8172)" gradientUnits="userSpaceOnUse">
				<stop  offset="0.7517" style="stop-color:#FF7149;stop-opacity:0"/>
				<stop  offset="1" style="stop-color:#FF7149"/>
			</radialGradient>
			<path style="fill:url(#SVGID_6_);" d="M39.531,32.827c7.909-1.361,13.176,0.653,16.636,3.54l-31.295,4.659
				C27.408,37.605,31.128,34.273,39.531,32.827z"/>
			<path style="fill:#2B201A;" d="M39.531,32.827c-8.403,1.446-12.123,4.778-14.659,8.2c-1.164-6.764,5.097-13.497,13.499-14.943
				c8.571-1.474,16.552,3.057,17.796,10.284C52.706,33.48,47.44,31.466,39.531,32.827z"/>
		</g>
		<ellipse style="fill:#2B201A;" cx="64" cy="73.701" rx="21.687" ry="29.486"/>
		<linearGradient id="SVGID_7_" gradientUnits="userSpaceOnUse" x1="43.9856" y1="59.0686" x2="36.7427" y2="124.8342">
			<stop  offset="4.528621e-07" style="stop-color:#FFD52D"/>
			<stop  offset="1" style="stop-color:#FF9A1A"/>
		</linearGradient>
		<path style="fill:url(#SVGID_7_);" d="M74.755,84.871c-3.367-0.599-9.553,1.014-17.614,8.55
			c0.807-1.103,6.309-9.366,17.989-18.997c2.935-2.413,2.46-5.774-1.041-6.398c-4.204-0.748-16.82,7.679-23.867,16.371
			C63.374,65.868,70.24,63.313,71.69,61.167c0.859-1.27-0.347-3.663-2.081-3.972c-3.698-0.658-11.088-0.14-29.599,19.985
			c12.897-17.789,19.524-18.842,20.149-22.355c0.457-2.566-0.716-3.276-2.663-3.623C51.44,50.124,31.615,66.602,21.47,81.222
			c0.255-6.701,0.847-13.762-1.132-18.904c-2.189-5.687-8.559-5.845-9.111,3.281c0.038-0.163,0.114,1.926-2.543,8.938
			C4.444,85.859,0.309,95.571,4.15,107.994c3.526,11.406,14.101,18.975,24.736,19.882c12.228,1.043,21.744-9.681,26.323-16.8
			c15.025-19.924,21.944-19.221,22.647-21.753C78.675,86.368,76.145,85.119,74.755,84.871z"/>
	</g>
</g>
<g id="Layer_1">
</g>
</svg>
