<?xml version="1.0" encoding="iso-8859-1"?>
<!-- Generator: Adobe Illustrator 24.1.2, SVG Export Plug-In . SVG Version: 6.00 Build 0)  -->
<svg version="1.1" xmlns="http://www.w3.org/2000/svg" xmlns:xlink="http://www.w3.org/1999/xlink" x="0px" y="0px"
	 viewBox="0 0 128 128" style="enable-background:new 0 0 128 128;" xml:space="preserve">
<symbol  id="Smiley_shape" viewBox="-57.587 -60 115.173 120">
	<linearGradient id="SVGID_1_" gradientUnits="userSpaceOnUse" x1="0" y1="-60" x2="7.347880e-15" y2="60">
		<stop  offset="0" style="stop-color:#FF9A1A"/>
		<stop  offset="1" style="stop-color:#FFD52D"/>
	</linearGradient>
	<path style="fill:url(#SVGID_1_);" d="M51.962,30C44.462,42.99,18,60,0,60s-44.462-17.01-51.962-30s-7.5-47.01,0-60S-18-60,0-60
		s44.462,17.01,51.962,30S59.462,17.01,51.962,30z"/>
</symbol>
<symbol  id="smiling_eyes" viewBox="-40 -13.872 80 27.744">
	
		<radialGradient id="SVGID_2_" cx="21.662" cy="-14.0128" r="26.6035" gradientTransform="matrix(1 0 0 0.7512 0 -3.4858)" gradientUnits="userSpaceOnUse">
		<stop  offset="0.7445" style="stop-color:#FF7149;stop-opacity:0"/>
		<stop  offset="1" style="stop-color:#FF7149"/>
	</radialGradient>
	<path style="fill:url(#SVGID_2_);" d="M40-13.872H4c0,0,0.321,20,18,20S40-13.872,40-13.872z"/>
	
		<radialGradient id="SVGID_3_" cx="-22.338" cy="-14.0128" r="26.6035" gradientTransform="matrix(1 0 0 0.7512 0 -3.4858)" gradientUnits="userSpaceOnUse">
		<stop  offset="0.7445" style="stop-color:#FF7149;stop-opacity:0"/>
		<stop  offset="1" style="stop-color:#FF7149"/>
	</radialGradient>
	<path style="fill:url(#SVGID_3_);" d="M-4-13.872h-36c0,0,0.321,20,18,20S-4-13.872-4-13.872z"/>
	<path style="fill:#2B201A;" d="M-22,6.128c7.134,0,11.439-3.258,14.039-7.143C-7.945-0.746-7.92-0.48-7.92-0.208
		c0,7.776-4.08,14.08-14.08,14.08s-14.08-6.304-14.08-14.08c0-0.272,0.025-0.538,0.041-0.807C-33.439,2.87-29.134,6.128-22,6.128z"
		/>
	<path style="fill:#2B201A;" d="M22,6.128c7.134,0,11.439-3.258,14.039-7.143c0.015,0.269,0.041,0.534,0.041,0.807
		c0,7.776-4.08,14.08-14.08,14.08S7.92,7.568,7.92-0.208c0-0.272,0.025-0.538,0.041-0.807C10.561,2.87,14.866,6.128,22,6.128z"/>
</symbol>
<g id="_x31_F970">
	<g id="_x31_F970_1_">
		
			<use xlink:href="#Smiley_shape"  width="115.173" height="120" x="-57.587" y="-60" transform="matrix(1.0658 0 0 -1.0658 64.2816 64)" style="overflow:visible;"/>
		
			<use xlink:href="#smiling_eyes"  width="80" height="27.744" x="-40" y="-13.872" transform="matrix(1.0658 0 0 -1.0658 64.2816 55.6101)" style="overflow:visible;"/>
		<path style="fill:#2B201A;" d="M34.44,77.883c9.366,5.458,18.584,9.076,29.841,9.076c11.196-0.03,20.331-3.558,29.841-9.076
			c-3.82,10.218-15.686,18.665-29.746,18.665c-0.032,0-0.064,0-0.095,0c-0.008,0-0.016,0-0.025,0
			C50.313,96.548,38.333,88.239,34.44,77.883z"/>
		<linearGradient id="SVGID_4_" gradientUnits="userSpaceOnUse" x1="88.075" y1="0.0526" x2="88.075" y2="38.9164">
			<stop  offset="0" style="stop-color:#DC2338"/>
			<stop  offset="0.2278" style="stop-color:#D51F32"/>
			<stop  offset="0.5473" style="stop-color:#C31522"/>
			<stop  offset="0.9195" style="stop-color:#A50407"/>
			<stop  offset="1" style="stop-color:#9E0000"/>
		</linearGradient>
		<path style="fill:url(#SVGID_4_);" d="M108.248,14.259c0-5.631-4.386-11.23-11.079-11.23c-3.163,0-5.984,1.33-7.989,3.537
			c-1.815-4.163-5.852-6.513-9.999-6.513c-0.274,0-11.279-0.007-11.279,13.238c0,13.703,12.181,23.507,15.949,25.626
			C91.92,37.4,108.248,28.037,108.248,14.259z"/>
		<linearGradient id="SVGID_5_" gradientUnits="userSpaceOnUse" x1="107.429" y1="92.4161" x2="107.429" y2="127.9474">
			<stop  offset="0" style="stop-color:#DC2338"/>
			<stop  offset="0.2278" style="stop-color:#D51F32"/>
			<stop  offset="0.5473" style="stop-color:#C31522"/>
			<stop  offset="0.9195" style="stop-color:#A50407"/>
			<stop  offset="1" style="stop-color:#9E0000"/>
		</linearGradient>
		<path style="fill:url(#SVGID_5_);" d="M115.118,92.416c-3.44,0-7.864,2.037-9.394,6.866c-1.767-1.578-4.036-2.49-6.491-2.49
			c-7.179,0-10.03,6.321-10.03,10.172c0,11.309,14.648,20.188,24.374,20.983c3.006-2.13,12.078-11.087,12.078-22.419
			C125.655,93.89,117.726,92.416,115.118,92.416z"/>
		<linearGradient id="SVGID_6_" gradientUnits="userSpaceOnUse" x1="23.6053" y1="83.7844" x2="23.6053" y2="124.8068">
			<stop  offset="0" style="stop-color:#DC2338"/>
			<stop  offset="0.2278" style="stop-color:#D51F32"/>
			<stop  offset="0.5473" style="stop-color:#C31522"/>
			<stop  offset="0.9195" style="stop-color:#A50407"/>
			<stop  offset="1" style="stop-color:#9E0000"/>
		</linearGradient>
		<path style="fill:url(#SVGID_6_);" d="M44.866,99.254c0-6.464-5.077-11.726-11.608-11.726c-2.759,0-5.725,0.963-8.141,3.467
			c-2.246-5.604-7.622-7.211-10.643-7.211c-3.015,0-12.129,2.506-12.129,14.102c0,10.516,8.384,22.236,16.159,26.92
			C30.57,122.91,44.866,111.483,44.866,99.254z"/>
	</g>
</g>
<g id="Layer_1">
</g>
</svg>
