<?xml version="1.0" encoding="iso-8859-1"?>
<!-- Generator: Adobe Illustrator 24.1.2, SVG Export Plug-In . SVG Version: 6.00 Build 0)  -->
<svg version="1.1" xmlns="http://www.w3.org/2000/svg" xmlns:xlink="http://www.w3.org/1999/xlink" x="0px" y="0px"
	 viewBox="0 0 128 128" style="enable-background:new 0 0 128 128;" xml:space="preserve">
<symbol  id="Smiley_shape" viewBox="-57.587 -60 115.173 120">
	<linearGradient id="SVGID_1_" gradientUnits="userSpaceOnUse" x1="0" y1="-60" x2="7.347880e-15" y2="60">
		<stop  offset="0" style="stop-color:#FF9A1A"/>
		<stop  offset="1" style="stop-color:#FFD52D"/>
	</linearGradient>
	<path style="fill:url(#SVGID_1_);" d="M51.962,30C44.462,42.99,18,60,0,60s-44.462-17.01-51.962-30s-7.5-47.01,0-60S-18-60,0-60
		s44.462,17.01,51.962,30S59.462,17.01,51.962,30z"/>
</symbol>
<symbol  id="smiling_eyes" viewBox="-40 -13.872 80 27.744">
	
		<radialGradient id="SVGID_2_" cx="21.662" cy="-14.0128" r="26.6035" gradientTransform="matrix(1 0 0 0.7512 0 -3.4858)" gradientUnits="userSpaceOnUse">
		<stop  offset="0.7445" style="stop-color:#FF7149;stop-opacity:0"/>
		<stop  offset="1" style="stop-color:#FF7149"/>
	</radialGradient>
	<path style="fill:url(#SVGID_2_);" d="M40-13.872H4c0,0,0.321,20,18,20S40-13.872,40-13.872z"/>
	
		<radialGradient id="SVGID_3_" cx="-22.338" cy="-14.0128" r="26.6035" gradientTransform="matrix(1 0 0 0.7512 0 -3.4858)" gradientUnits="userSpaceOnUse">
		<stop  offset="0.7445" style="stop-color:#FF7149;stop-opacity:0"/>
		<stop  offset="1" style="stop-color:#FF7149"/>
	</radialGradient>
	<path style="fill:url(#SVGID_3_);" d="M-4-13.872h-36c0,0,0.321,20,18,20S-4-13.872-4-13.872z"/>
	<path style="fill:#2B201A;" d="M-22,6.128c7.134,0,11.439-3.258,14.039-7.143C-7.945-0.746-7.92-0.48-7.92-0.208
		c0,7.776-4.08,14.08-14.08,14.08s-14.08-6.304-14.08-14.08c0-0.272,0.025-0.538,0.041-0.807C-33.439,2.87-29.134,6.128-22,6.128z"
		/>
	<path style="fill:#2B201A;" d="M22,6.128c7.134,0,11.439-3.258,14.039-7.143c0.015,0.269,0.041,0.534,0.041,0.807
		c0,7.776-4.08,14.08-14.08,14.08S7.92,7.568,7.92-0.208c0-0.272,0.025-0.538,0.041-0.807C10.561,2.87,14.866,6.128,22,6.128z"/>
</symbol>
<g id="_x31_F973">
	<g id="_x31_F973_1_">
		
			<use xlink:href="#Smiley_shape"  width="115.173" height="120" x="-57.587" y="-60" transform="matrix(1.0658 0 0 -1.0658 64 64)" style="overflow:visible;"/>
		<linearGradient id="SVGID_4_" gradientUnits="userSpaceOnUse" x1="30.7016" y1="23.3102" x2="35.1599" y2="45.6018">
			<stop  offset="0" style="stop-color:#DE721E"/>
			<stop  offset="1" style="stop-color:#DE721E;stop-opacity:0"/>
		</linearGradient>
		<path style="opacity:0.6;fill:url(#SVGID_4_);" d="M49.112,7.165c1.506,4.664,8.329,26.009-8.829,39.655
			c-24.982,19.868-31.14-3.445-26.817-16.955S49.112,7.165,49.112,7.165z"/>
		
			<use xlink:href="#smiling_eyes"  width="80" height="27.744" x="-40" y="-13.872" transform="matrix(1.046 -0.2043 -0.2043 -1.046 62.2279 54.4216)" style="overflow:visible;"/>
		<g>
			
				<linearGradient id="SVGID_5_" gradientUnits="userSpaceOnUse" x1="78.1791" y1="-338.8627" x2="108.8011" y2="-338.8627" gradientTransform="matrix(0.983 -0.1837 0.1837 0.983 20.4175 442.1976)">
				<stop  offset="0.3294" style="stop-color:#FF7149;stop-opacity:0"/>
				<stop  offset="1" style="stop-color:#FF7149"/>
			</linearGradient>
			<path style="opacity:0.6;fill:url(#SVGID_5_);" d="M65.108,89.113c1.979,10.587-3.155,20.429-11.468,21.982
				s-16.654-5.769-18.633-16.356s3.155-20.429,11.468-21.982S63.129,78.527,65.108,89.113z"/>
			
				<linearGradient id="SVGID_6_" gradientUnits="userSpaceOnUse" x1="116.9069" y1="-338.8629" x2="147.5289" y2="-338.8629" gradientTransform="matrix(0.983 -0.1837 0.1837 0.983 20.4175 442.1976)">
				<stop  offset="0.3294" style="stop-color:#FF7149;stop-opacity:0"/>
				<stop  offset="1" style="stop-color:#FF7149"/>
			</linearGradient>
			<path style="opacity:0.6;fill:url(#SVGID_6_);" d="M103.177,81.998c1.979,10.587-3.155,20.429-11.468,21.982
				c-8.312,1.554-16.654-5.769-18.633-16.356c-1.979-10.587,3.155-20.429,11.468-21.982
				C92.855,64.088,101.198,71.411,103.177,81.998z"/>
			<g>
				<linearGradient id="SVGID_7_" gradientUnits="userSpaceOnUse" x1="96.1331" y1="84.5283" x2="97.1464" y2="92.0938">
					<stop  offset="0" style="stop-color:#9CBB1A"/>
					<stop  offset="1" style="stop-color:#779B3D"/>
				</linearGradient>
				<polygon style="fill:url(#SVGID_7_);" points="80.272,95.388 115.325,93.476 117.153,82.486 79.326,85.121 75.543,89.782 				
					"/>
				<path style="fill:#9CBB1A;" d="M124.697,74.149c-1.793-5.17-6.596-8.199-10.728-6.766c-1.774,0.615-3.136,1.954-3.971,3.69
					l-3.378,7.025l14.435,11.343l3.377-7.025C125.543,80.109,125.72,77.099,124.697,74.149z"/>
				<path style="fill:#779B3D;" d="M121.32,81.174c1.023,2.95,0.845,5.96-0.264,8.267c-0.835,1.736-2.197,3.074-3.971,3.689
					c-0.577,0.2-1.167,0.313-1.761,0.346c-3.654,0.199-7.424-2.664-8.967-7.112c-1.023-2.95-0.845-5.96,0.264-8.267
					c0.835-1.736,2.197-3.074,3.971-3.69C114.724,72.975,119.527,76.004,121.32,81.174z"/>
			</g>
			<g>
				<path style="fill:#2B201A;" d="M82.945,98.05c0.335-2.672-0.462-6.976-5.81-8.041c2.986-1.043,5.24-3.458,5.591-6.257
					c1.101-8.78-14.21-5.557-17.037-9.418c0.555,5.771,13.008,4.09,12.315,9.614c-0.397,3.171-4.447,5.663-4.496,6.049
					c-0.123,0.98,5.308,2.608,4.855,6.226c-0.641,5.115-10.14,4.455-10.809,9.798c-0.011,0.085-0.019,0.171-0.024,0.258
					C72.006,102.79,82.314,103.08,82.945,98.05z"/>
				<path style="fill:#DE721E;" d="M82.904,98.362c-1.278,10.193-10.103,5.017-15.353,7.914
					C71.93,102.873,81.905,103.07,82.904,98.362z"/>
				
					<linearGradient id="SVGID_8_" gradientUnits="userSpaceOnUse" x1="79.0424" y1="385.1344" x2="88.446" y2="383.4579" gradientTransform="matrix(0.9922 0.1244 -0.1244 0.9922 38.807 -299.9262)">
					<stop  offset="0.473" style="stop-color:#FF7149;stop-opacity:0"/>
					<stop  offset="1" style="stop-color:#FF7149"/>
				</linearGradient>
				<path style="fill:url(#SVGID_8_);" d="M78.363,96.222c0.457-3.643-4.979-5.232-4.855-6.226c0.049-0.39,4.099-2.88,4.496-6.049
					c0.396-3.163-2.97-3.735-6.954-5.117l-3.313,26.431C69.287,100.636,77.753,101.088,78.363,96.222z"/>
			</g>
		</g>
		<g>
			<linearGradient id="SVGID_9_" gradientUnits="userSpaceOnUse" x1="16.1736" y1="23.312" x2="27.6569" y2="9.4644">
				<stop  offset="0" style="stop-color:#C70300"/>
				<stop  offset="0.573" style="stop-color:#E63522"/>
				<stop  offset="1" style="stop-color:#FF5D3D"/>
			</linearGradient>
			<path style="fill:url(#SVGID_9_);" d="M48.759,6.678c-0.661-0.767-1.624-1.224-2.82-1.393L9.076,0.053l3.241,34.868
				c0.087,0.936,0.393,1.738,0.937,2.368c3.264,3.786,13.858,0.003,23.663-8.45C46.721,20.387,52.023,10.465,48.759,6.678z"/>
			<linearGradient id="SVGID_10_" gradientUnits="userSpaceOnUse" x1="25.0784" y1="33.3403" x2="36.6631" y2="10.1708">
				<stop  offset="0" style="stop-color:#1D8BFF"/>
				<stop  offset="0.9147" style="stop-color:#41BDF9"/>
				<stop  offset="1" style="stop-color:#45C2F8"/>
			</linearGradient>
			<path style="fill:url(#SVGID_10_);" d="M41.688,4.675l-8.814-1.247c1.236,0.714,1.897,3.155,1.705,6.373
				c-0.128,2.153-0.618,4.54-1.417,7.013c-0.799,2.473-1.908,5.02-3.272,7.482c-2.728,4.913-6.309,9.166-9.816,11.649
				c-2.441,1.716-4.679,2.473-6,2.046c3.677,2.323,12.299-0.767,20.772-7.439c0.544-0.853,1.066-1.727,1.567-2.632
				c3.304-5.958,5.297-12.235,5.616-17.692C42.147,8.203,42.029,6.338,41.688,4.675z"/>
			<linearGradient id="SVGID_11_" gradientUnits="userSpaceOnUse" x1="15.1084" y1="21.47" x2="24.16" y2="4.4813">
				<stop  offset="0" style="stop-color:#1D8BFF"/>
				<stop  offset="0.9147" style="stop-color:#41BDF9"/>
				<stop  offset="1" style="stop-color:#45C2F8"/>
			</linearGradient>
			<path style="fill:url(#SVGID_11_);" d="M27.684,4.345v0.203c0.021,3.549-1.087,7.514-3.112,11.18
				c-3.048,5.489-7.375,9.144-11.617,10.253c-0.48,0.128-0.959,0.224-1.439,0.288l-0.693-7.461c1.823-0.373,4.892-2.494,7.215-6.693
				c1.428-2.569,2.228-5.361,2.185-7.642c-0.021-1.407-0.373-2.537-0.916-2.91c0.011-0.021,0.032-0.043,0.053-0.053l8.206,1.162
				C27.631,3.215,27.673,3.769,27.684,4.345z"/>
		</g>
		<path style="fill:#C70300;" d="M121.878,0.053c-3.418,3.859-13.067,4.079-13.067,4.079v6.782c0,0,13.949,0.772,16.563-5.05
			L121.878,0.053z"/>
		<path style="fill:#45C2F8;" d="M82.787,6.652c-5.151,0.207-11.994-6.599-11.994-6.599L65.902,4.75c0,0,9.106,10.596,15.115,8.448
			L82.787,6.652z"/>
		<path style="fill:#917FB2;" d="M112.952,29.572c1.995,4.754-1.991,13.544-1.991,13.544l6.111,2.941c0,0,6.745-12.235,2.632-17.115
			L112.952,29.572z"/>
		<path style="fill:#ADDD82;" d="M19.553,49.674c-5.144,0.334-12.152-6.302-12.152-6.302l-4.774,4.817
			c0,0,9.364,10.369,15.319,8.074L19.553,49.674z"/>
		<path style="fill:#1D8BFF;" d="M10.119,86.235c-0.185,5.152-7.492,11.457-7.492,11.457l4.312,5.235c0,0,11.257-8.274,9.573-14.429
			L10.119,86.235z"/>
		<path style="fill:#ADDD82;" d="M28.513,119.456c-4.524,2.473-13.677-0.589-13.677-0.589l-2.298,6.381
			c0,0,12.863,5.452,17.295,0.86L28.513,119.456z"/>
		<path style="fill:#FFD52D;" d="M95.53,119.539c-4.571,2.383-13.662-0.858-13.662-0.858l-2.422,6.334c0,0,12.753,5.704,17.274,1.2
			L95.53,119.539z"/>
		<path style="fill:#FF5D3D;" d="M125.374,110.756c-3.499-3.786-2.758-13.409-2.758-13.409l-6.748-0.675
			c0,0-2.157,13.804,3.376,16.984L125.374,110.756z"/>
		<path style="fill:#3B2C68;" d="M36.238,68.434c-1.194,5.015-9.598,9.761-9.598,9.761l3.199,5.98c0,0,12.664-5.9,12.222-12.266
			L36.238,68.434z"/>
	</g>
</g>
<g id="Layer_1">
</g>
</svg>
