<?xml version="1.0" encoding="iso-8859-1"?>
<!-- Generator: Adobe Illustrator 24.1.2, SVG Export Plug-In . SVG Version: 6.00 Build 0)  -->
<svg version="1.1" xmlns="http://www.w3.org/2000/svg" xmlns:xlink="http://www.w3.org/1999/xlink" x="0px" y="0px"
	 viewBox="0 0 128 128" style="enable-background:new 0 0 128 128;" xml:space="preserve">
<g id="_x32_615">
	<g id="_x32_615_1_">
		<g>
			<linearGradient id="SVGID_1_" gradientUnits="userSpaceOnUse" x1="104.6649" y1="17.2004" x2="104.6649" y2="126.3036">
				<stop  offset="0" style="stop-color:#D1D4D4"/>
				<stop  offset="0.2235" style="stop-color:#CDD0D0"/>
				<stop  offset="0.429" style="stop-color:#C2C5C6"/>
				<stop  offset="0.6275" style="stop-color:#B0B3B4"/>
				<stop  offset="0.8204" style="stop-color:#96999A"/>
				<stop  offset="1" style="stop-color:#77797C"/>
			</linearGradient>
			<path style="fill:url(#SVGID_1_);" d="M93.841,44.816v12.789h17.052c2.354,0,4.263,1.909,4.263,4.263v21.316
				c0,7.063-5.726,12.789-12.789,12.789H81.384v12.789h20.983c14.127,0,25.578-11.452,25.578-25.579V61.868
				c0-9.418-7.635-17.053-17.052-17.053H93.841z"/>
			<g>
				<rect x="89.294" y="44.816" style="fill:#77797C;" width="8.038" height="12.789"/>
				<path style="fill:#77797C;" d="M79.267,108.763h9.059c0,0,3.242-7.388,3.242-12.789H83.53L79.267,108.763z"/>
			</g>
		</g>
		<linearGradient id="SVGID_2_" gradientUnits="userSpaceOnUse" x1="46.9478" y1="14.9737" x2="46.9478" y2="127.9474">
			<stop  offset="0" style="stop-color:#D1D4D4"/>
			<stop  offset="0.2235" style="stop-color:#CDD0D0"/>
			<stop  offset="0.429" style="stop-color:#C2C5C6"/>
			<stop  offset="0.6275" style="stop-color:#B0B3B4"/>
			<stop  offset="0.8204" style="stop-color:#96999A"/>
			<stop  offset="1" style="stop-color:#77797C"/>
		</linearGradient>
		<path style="fill:url(#SVGID_2_);" d="M93.841,32.026c0-9.418-20.995-17.053-46.894-17.053S0.054,22.608,0.054,32.026v32.844
			c0,2.132-0.073,28.982,13.173,51.924c3.197,5.538,16.094,11.153,33.721,11.153s30.524-5.615,33.721-11.153
			c13.245-22.942,13.173-49.792,13.173-51.924V32.026z"/>
		<g>
			<path style="fill:#77797C;" d="M46.948,20.303c27.364,0,41.565,8.308,41.565,11.724c0,3.417-14.198,11.724-41.565,11.724
				c-27.364,0-41.565-8.308-41.565-11.724C5.383,28.61,19.581,20.303,46.948,20.303"/>
			
				<radialGradient id="SVGID_3_" cx="46.5425" cy="40.2092" r="40.9645" gradientTransform="matrix(1 0 0 0.2813 0 28.8964)" gradientUnits="userSpaceOnUse">
				<stop  offset="0" style="stop-color:#502F0B"/>
				<stop  offset="1" style="stop-color:#2B201A"/>
			</radialGradient>
			<path style="fill:url(#SVGID_3_);" d="M84.331,36.29c-6.052-3.556-18.623-7.461-37.383-7.461c-18.761,0-31.331,3.904-37.383,7.46
				c6.052,3.556,18.623,7.461,37.383,7.461C65.709,43.75,78.279,39.846,84.331,36.29z"/>
		</g>
		<path style="opacity:0.6;fill:#C4D4D4;" d="M33.609,0.053c0,0-10.543,1.565-10.543,10.544s5.272,8.979,5.272,15.816
			s-5.272,10.544-5.272,10.544s10.543-1.565,10.543-10.544s-5.272-7.743-5.272-15.816S33.609,0.053,33.609,0.053z"/>
		<path style="opacity:0.6;fill:#C4D4D4;" d="M50.261,0.053c0,0-10.543,1.565-10.543,10.544s5.272,8.979,5.272,15.816
			s-5.272,10.544-5.272,10.544s10.543-1.565,10.543-10.544s-5.272-7.743-5.272-15.816S50.261,0.053,50.261,0.053z"/>
		<path style="opacity:0.6;fill:#C4D4D4;" d="M66.913,0.053c0,0-10.543,1.565-10.543,10.544s5.272,8.979,5.272,15.816
			S56.37,36.956,56.37,36.956s10.543-1.565,10.543-10.544s-5.272-7.743-5.272-15.816S66.913,0.053,66.913,0.053z"/>
	</g>
</g>
<g id="Layer_1">
</g>
</svg>
