<?xml version="1.0" encoding="iso-8859-1"?>
<!-- Generator: Adobe Illustrator 24.1.2, SVG Export Plug-In . SVG Version: 6.00 Build 0)  -->
<svg version="1.1" xmlns="http://www.w3.org/2000/svg" xmlns:xlink="http://www.w3.org/1999/xlink" x="0px" y="0px"
	 viewBox="0 0 128 128" style="enable-background:new 0 0 128 128;" xml:space="preserve">
<symbol  id="Smiley_shape" viewBox="-57.587 -60 115.173 120">
	<linearGradient id="SVGID_1_" gradientUnits="userSpaceOnUse" x1="0" y1="-60" x2="7.347880e-15" y2="60">
		<stop  offset="0" style="stop-color:#FF9A1A"/>
		<stop  offset="1" style="stop-color:#FFD52D"/>
	</linearGradient>
	<path style="fill:url(#SVGID_1_);" d="M51.962,30C44.462,42.99,18,60,0,60s-44.462-17.01-51.962-30s-7.5-47.01,0-60S-18-60,0-60
		s44.462,17.01,51.962,30S59.462,17.01,51.962,30z"/>
</symbol>
<symbol  id="Standard_eyes" viewBox="-28 -12 56 24">
	<g>
		<path style="fill:#2B201A;" d="M-20-12L-20-12c-4.418,0-8,3.582-8,8v8c0,4.418,3.582,8,8,8h0c4.418,0,8-3.582,8-8v-8
			C-12-8.418-15.582-12-20-12z"/>
		<circle style="fill:#AF9D94;" cx="-17" cy="7" r="3"/>
	</g>
	<g>
		<path style="fill:#2B201A;" d="M20-12L20-12c-4.418,0-8,3.582-8,8v8c0,4.418,3.582,8,8,8h0c4.418,0,8-3.582,8-8v-8
			C28-8.418,24.418-12,20-12z"/>
		<circle style="fill:#AF9D94;" cx="23" cy="7" r="3"/>
	</g>
</symbol>
<g id="_x32_639">
	<g id="_x32_639_1_">
		
			<use xlink:href="#Smiley_shape"  width="115.173" height="120" x="-57.587" y="-60" transform="matrix(1.0658 0 0 -1.0658 64 64)" style="overflow:visible;"/>
		
			<radialGradient id="SVGID_2_" cx="34.1586" cy="64.3915" r="16.1391" gradientTransform="matrix(1 0 0 1.3059 0 -19.697)" gradientUnits="userSpaceOnUse">
			<stop  offset="0" style="stop-color:#DE721E"/>
			<stop  offset="1" style="stop-color:#DE721E;stop-opacity:0"/>
		</radialGradient>
		<ellipse style="opacity:0.6;fill:url(#SVGID_2_);" cx="34.159" cy="64.39" rx="17.262" ry="21.706"/>
		
			<radialGradient id="SVGID_3_" cx="3927.1775" cy="64.3915" r="16.1391" gradientTransform="matrix(-1 0 0 1.3059 4020.7434 -19.697)" gradientUnits="userSpaceOnUse">
			<stop  offset="0" style="stop-color:#DE721E"/>
			<stop  offset="1" style="stop-color:#DE721E;stop-opacity:0"/>
		</radialGradient>
		<ellipse style="opacity:0.6;fill:url(#SVGID_3_);" cx="93.566" cy="64.39" rx="17.262" ry="21.706"/>
		
			<use xlink:href="#Standard_eyes"  width="56" height="24" x="-28" y="-12" transform="matrix(1.0658 0 0 -1.0658 64 59.947)" style="overflow:visible;"/>
		<g>
			<path style="fill:#DE721E;" d="M34.159,105.168c0.569-3.189,1.693-6.269,3.352-9.174c1.663-2.894,3.955-5.569,6.759-7.699
				c2.797-2.139,6.075-3.667,9.422-4.607c3.358-0.949,6.781-1.32,10.137-1.388c1.687,0.045,3.368,0.071,5.073,0.275
				c0.846,0.076,1.697,0.226,2.547,0.387c0.848,0.145,1.699,0.301,2.538,0.562c3.36,0.893,6.666,2.362,9.495,4.464
				c2.838,2.087,5.171,4.728,6.877,7.599c1.702,2.883,2.87,5.947,3.482,9.13c-2.259-2.322-4.401-4.561-6.696-6.441
				c-2.279-1.89-4.649-3.433-7.134-4.552c-4.945-2.28-10.406-2.893-16.118-2.901c-5.712,0.082-11.167,0.78-16.079,3.135
				c-2.47,1.156-4.817,2.736-7.067,4.662C38.483,100.536,36.377,102.809,34.159,105.168z"/>
		</g>
		<g>
			<path style="fill:#2B201A;" d="M34.159,105.168c0.639-3.323,1.743-6.525,3.275-9.611c1.542-3.074,3.583-6.009,6.196-8.546
				c2.603-2.536,5.819-4.605,9.32-5.932c1.745-0.679,3.564-1.135,5.382-1.476c1.825-0.316,3.66-0.459,5.477-0.5
				c1.818,0.005,3.653,0.128,5.485,0.403c1.825,0.31,3.65,0.743,5.409,1.386c3.522,1.276,6.78,3.286,9.418,5.792
				c2.653,2.5,4.736,5.409,6.318,8.463c1.572,3.067,2.72,6.253,3.402,9.57c-2.331-2.455-4.493-4.903-6.78-7.087
				c-2.271-2.191-4.614-4.144-7.086-5.674c-4.92-3.124-10.328-4.374-16.098-4.33c-5.769,0.035-11.165,1.378-16.044,4.574
				c-2.453,1.566-4.77,3.552-7.009,5.777C38.571,100.196,36.446,102.675,34.159,105.168z"/>
		</g>
	</g>
</g>
<g id="Layer_1">
</g>
</svg>
