<?xml version="1.0" encoding="iso-8859-1"?>
<!-- Generator: Adobe Illustrator 24.1.2, SVG Export Plug-In . SVG Version: 6.00 Build 0)  -->
<svg version="1.1" xmlns="http://www.w3.org/2000/svg" xmlns:xlink="http://www.w3.org/1999/xlink" x="0px" y="0px"
	 viewBox="0 0 128 128" style="enable-background:new 0 0 128 128;" xml:space="preserve">
<g id="_x32_70B">
	<g id="_x32_70B_1_">
		<linearGradient id="SVGID_1_" gradientUnits="userSpaceOnUse" x1="49.7348" y1="-0.1178" x2="49.7348" y2="124.1638">
			<stop  offset="4.528621e-07" style="stop-color:#FFD52D"/>
			<stop  offset="0.9614" style="stop-color:#FF9A1A"/>
		</linearGradient>
		<path style="fill:url(#SVGID_1_);" d="M91.257,14.69c0.461-3.852-2.367-7.401-6.389-8.019c-4.059-0.623-7.846,1.967-8.516,5.824
			l-8.834,50.824c-0.012,0.001-0.024,0.002-0.036,0.003L65.618,7.241c-0.168-4.083-3.726-7.28-8.001-7.187
			c-4.262,0.093-7.674,3.422-7.681,7.498l-0.352,55.754l-6.832-48.786c-0.585-4.082-4.492-6.926-8.783-6.393
			c-4.266,0.53-7.353,4.204-6.96,8.285l4.981,51.878c-0.397,0.092-0.788,0.184-1.168,0.277l-8.494-35.805
			c-0.873-3.681-4.597-5.986-8.403-5.2c-3.818,0.788-6.326,4.398-5.652,8.133l7.693,42.609c0.185,5.037-0.102,10.52,0.239,19.817
			c0.644,17.553,19.532,30.227,35.17,29.653c24.419-0.896,42.215-16.282,37.498-33.202c-4.186-15.016-4.67-18.88-4.275-24.247
			L91.257,14.69z"/>
		<g>
			
				<radialGradient id="SVGID_2_" cx="-220.2771" cy="1918.2162" r="7.9219" gradientTransform="matrix(0.9986 -0.0532 0.0196 0.367 240.143 -691.7901)" gradientUnits="userSpaceOnUse">
				<stop  offset="0.0108" style="stop-color:#FF9A1A"/>
				<stop  offset="1" style="stop-color:#FF9A1A;stop-opacity:0"/>
			</radialGradient>
			<path style="fill:url(#SVGID_2_);" d="M65.304,23.568c0.084,1.571-3.313,3.029-7.587,3.257s-7.807-0.861-7.89-2.432
				L65.304,23.568z"/>
			
				<radialGradient id="SVGID_3_" cx="-220.6183" cy="1974.234" r="7.9219" gradientTransform="matrix(0.9986 -0.0532 0.0196 0.367 240.143 -691.7901)" gradientUnits="userSpaceOnUse">
				<stop  offset="0.0108" style="stop-color:#FF9A1A"/>
				<stop  offset="1" style="stop-color:#FF9A1A;stop-opacity:0"/>
			</radialGradient>
			<path style="fill:url(#SVGID_3_);" d="M66.059,44.145c0.084,1.571-3.313,3.029-7.587,3.257s-7.807-0.861-7.89-2.432
				L66.059,44.145z"/>
			
				<radialGradient id="SVGID_4_" cx="-231.1134" cy="1566.2612" r="7.9219" gradientTransform="matrix(0.987 -0.1046 0.0387 0.3655 204.0733 -567.4936)" gradientUnits="userSpaceOnUse">
				<stop  offset="0.0108" style="stop-color:#FF9A1A"/>
				<stop  offset="1" style="stop-color:#FF9A1A;stop-opacity:0"/>
			</radialGradient>
			<path style="fill:url(#SVGID_4_);" d="M44.12,28.359c0.166,1.564-3.125,3.195-7.349,3.643c-4.225,0.448-7.784-0.458-7.949-2.022
				L44.12,28.359z"/>
			
				<radialGradient id="SVGID_5_" cx="-173.5376" cy="1622.2789" r="7.9219" gradientTransform="matrix(1.01 -0.107 0.0387 0.3655 151.4626 -561.92)" gradientUnits="userSpaceOnUse">
				<stop  offset="0.0108" style="stop-color:#FF9A1A"/>
				<stop  offset="1" style="stop-color:#FF9A1A;stop-opacity:0"/>
			</radialGradient>
			<path style="fill:url(#SVGID_5_);" d="M46.705,48.788c0.166,1.564-3.204,3.204-7.527,3.662c-4.323,0.458-7.961-0.439-8.127-2.003
				L46.705,48.788z"/>
			
				<radialGradient id="SVGID_6_" cx="-411.9513" cy="879.2755" r="7.9219" gradientTransform="matrix(0.8842 -0.19 0.0772 0.3593 313.6273 -350.4185)" gradientUnits="userSpaceOnUse">
				<stop  offset="0.0108" style="stop-color:#FF9A1A"/>
				<stop  offset="1" style="stop-color:#FF9A1A;stop-opacity:0"/>
			</radialGradient>
			<path style="fill:url(#SVGID_6_);" d="M24.015,42.386c0.33,1.538-2.469,3.444-6.254,4.257c-3.784,0.813-7.12,0.226-7.45-1.312
				L24.015,42.386z"/>
			
				<radialGradient id="SVGID_7_" cx="-360.4245" cy="925.8672" r="7.9219" gradientTransform="matrix(0.9012 -0.1936 0.0772 0.3593 274.2937 -341.9667)" gradientUnits="userSpaceOnUse">
				<stop  offset="0.0108" style="stop-color:#FF9A1A"/>
				<stop  offset="1" style="stop-color:#FF9A1A;stop-opacity:0"/>
			</radialGradient>
			<path style="fill:url(#SVGID_7_);" d="M27.836,59.079c0.33,1.538-2.528,3.457-6.386,4.285c-3.857,0.829-7.252,0.254-7.582-1.284
				L27.836,59.079z"/>
			
				<radialGradient id="SVGID_8_" cx="-372.6878" cy="3330.8589" r="7.9219" gradientTransform="matrix(0.9427 0.1373 -0.053 0.3637 609.7303 -1132.0642)" gradientUnits="userSpaceOnUse">
				<stop  offset="0.0108" style="stop-color:#FF9A1A"/>
				<stop  offset="1" style="stop-color:#FF9A1A;stop-opacity:0"/>
			</radialGradient>
			<path style="fill:url(#SVGID_8_);" d="M89.092,29.232c-0.227,1.557-3.681,2.342-7.716,1.754
				c-4.035-0.588-7.121-2.326-6.895-3.883L89.092,29.232z"/>
			
				<radialGradient id="SVGID_9_" cx="-189.8979" cy="3386.8767" r="7.9219" gradientTransform="matrix(1.0102 0.1472 -0.053 0.3637 450.0444 -1155.3309)" gradientUnits="userSpaceOnUse">
				<stop  offset="0.0108" style="stop-color:#FF9A1A"/>
				<stop  offset="1" style="stop-color:#FF9A1A;stop-opacity:0"/>
			</radialGradient>
			<path style="fill:url(#SVGID_9_);" d="M86.439,49.651c-0.227,1.557-3.916,2.308-8.239,1.678s-7.645-2.403-7.418-3.959
				L86.439,49.651z"/>
		</g>
		<g>
			
				<linearGradient id="SVGID_10_" gradientUnits="userSpaceOnUse" x1="178.3059" y1="276.597" x2="178.516" y2="267.7739" gradientTransform="matrix(0.9993 -0.0367 0.0367 0.9993 -128.933 -179.9601)">
				<stop  offset="0" style="stop-color:#FF9A1A"/>
				<stop  offset="0.987" style="stop-color:#FF9A1A;stop-opacity:0"/>
			</linearGradient>
			<path style="fill:url(#SVGID_10_);" d="M84.567,75.227c-5.347,2.756-23.688,10.896-52.242,9.934c0,0,12.613,3.446,20.789,11.948
				l33.225-12.094C85.261,80.601,84.748,77.685,84.567,75.227z"/>
			
				<radialGradient id="SVGID_11_" cx="170.2473" cy="275.0208" r="78.346" gradientTransform="matrix(0.9853 -0.171 0.0545 0.314 -131.4414 31.3959)" gradientUnits="userSpaceOnUse">
				<stop  offset="0.013" style="stop-color:#FF9A1A;stop-opacity:0"/>
				<stop  offset="1" style="stop-color:#FF9A1A"/>
			</radialGradient>
			<path style="fill:url(#SVGID_11_);" d="M31.991,68.29c-0.284,0.065-0.56,0.132-0.836,0.198
				c-4.234,1.114-13.061,4.978-15.188,9.815c0.171,4.667-0.062,9.725,0.175,17.838l69.706-13.207
				c-1.381-6.077-1.514-9.008-1.249-12.611c-2.056-1.911-13.25-7.038-17.119-7.002c-3.296-1.261-14.227-0.86-17.897-0.016
				C45.39,62.923,35.813,65.343,31.991,68.29z"/>
		</g>
		<linearGradient id="SVGID_12_" gradientUnits="userSpaceOnUse" x1="83.7394" y1="64.514" x2="84.4308" y2="112.4166">
			<stop  offset="4.528621e-07" style="stop-color:#FFD52D"/>
			<stop  offset="0.2474" style="stop-color:#FFD02C"/>
			<stop  offset="0.5224" style="stop-color:#FFC327"/>
			<stop  offset="0.8096" style="stop-color:#FFAD20"/>
			<stop  offset="1" style="stop-color:#FF9A1A"/>
		</linearGradient>
		<path style="fill:url(#SVGID_12_);" d="M116.289,63.649c-1.347-0.781-2.963-1.188-4.62-1.087
			c-5.013,0.221-7.757,1.798-14.543,6.69c-4.484,3.233-8.62,7.167-13.402,12.183c0,0-5.602,3.797-17.191,6.011
			c-19.574,3.74-20.999,23.468-15.07,40.323c17.437,1.462,29.95-6.399,37.032-12.958c7.795-7.219,5.552-17.05,10.359-23.211
			c6.359-8.149,17.331-16.198,17.331-16.198C120.752,71.825,121.308,66.56,116.289,63.649z"/>
	</g>
</g>
<g id="Layer_1">
</g>
</svg>
