<?xml version="1.0" encoding="iso-8859-1"?>
<!-- Generator: Adobe Illustrator 24.1.2, SVG Export Plug-In . SVG Version: 6.00 Build 0)  -->
<svg version="1.1" xmlns="http://www.w3.org/2000/svg" xmlns:xlink="http://www.w3.org/1999/xlink" x="0px" y="0px"
	 viewBox="0 0 128 128" style="enable-background:new 0 0 128 128;" xml:space="preserve">
<g id="E335">
	<g id="E335_1_">
		<g>
			<circle style="fill:#003C5A;" cx="64" cy="64" r="64"/>
		</g>
		<g>
			<g>
				<path style="fill:#003C5A;" d="M124.8,66.841c0,28.264-24.361,57.959-60.438,57.959S3.2,95.516,3.2,67.252S27.923,22.4,64,22.4
					S124.8,38.577,124.8,66.841z"/>
			</g>
			<g>
				<path style="fill:#003D5B;" d="M124.218,66.707c0,27.756-24.165,56.833-59.819,56.833S3.879,94.861,3.879,67.105
					s24.516-44.123,60.17-44.123S124.218,38.951,124.218,66.707z"/>
			</g>
			<g>
				<path style="fill:#003E5D;" d="M123.636,66.572c0,27.247-23.97,55.707-59.199,55.707S4.558,94.205,4.558,66.958
					s24.31-43.395,59.539-43.395S123.636,39.325,123.636,66.572z"/>
			</g>
			<g>
				<path style="fill:#003E5E;" d="M123.055,66.437c0,26.739-23.774,54.581-58.58,54.581S5.236,93.55,5.236,66.811
					S29.34,24.145,64.145,24.145S123.055,39.699,123.055,66.437z"/>
			</g>
			<g>
				<path style="fill:#003F5F;" d="M122.473,66.303c0,26.23-23.579,53.455-57.961,53.455S5.915,92.895,5.915,66.664
					s23.897-41.937,58.279-41.937S122.473,40.072,122.473,66.303z"/>
			</g>
			<g>
				<path style="fill:#004061;" d="M121.891,66.168c0,25.722-23.383,52.329-57.341,52.329S6.594,92.239,6.594,66.517
					s23.69-41.208,57.648-41.208S121.891,40.446,121.891,66.168z"/>
			</g>
			<g>
				<path style="fill:#004162;" d="M121.309,66.034c0,25.214-23.188,51.203-56.722,51.203S7.273,91.584,7.273,66.37
					s23.484-40.479,57.018-40.479S121.309,40.82,121.309,66.034z"/>
			</g>
			<g>
				<path style="fill:#004263;" d="M120.727,65.899c0,24.705-22.992,50.077-56.103,50.077S7.952,90.928,7.952,66.223
					s23.277-39.75,56.388-39.75S120.727,41.194,120.727,65.899z"/>
			</g>
			<g>
				<path style="fill:#004265;" d="M120.145,65.765c0,24.197-22.797,48.951-55.483,48.951S8.63,90.273,8.63,66.076
					s23.071-39.021,55.758-39.021S120.145,41.568,120.145,65.765z"/>
			</g>
			<g>
				<path style="fill:#004366;" d="M119.564,65.63c0,23.689-22.601,47.825-54.864,47.825S9.309,89.617,9.309,65.929
					s22.864-38.293,55.127-38.293S119.564,41.941,119.564,65.63z"/>
			</g>
			<g>
				<path style="fill:#004467;" d="M118.982,65.495c0,23.18-22.406,46.699-54.245,46.699S9.988,88.962,9.988,65.782
					s22.658-37.564,54.497-37.564S118.982,42.315,118.982,65.495z"/>
			</g>
			<g>
				<path style="fill:#004569;" d="M118.4,65.361c0,22.672-22.21,45.573-53.625,45.573S10.667,88.307,10.667,65.635
					S33.118,28.8,64.533,28.8S118.4,42.689,118.4,65.361z"/>
			</g>
			<g>
				<path style="fill:#00456A;" d="M117.818,65.226c0,22.163-22.015,44.447-53.006,44.447S11.345,87.651,11.345,65.488
					S33.59,29.382,64.582,29.382S117.818,43.063,117.818,65.226z"/>
			</g>
			<g>
				<path style="fill:#00466B;" d="M117.236,65.092c0,21.655-21.819,43.321-52.387,43.321S12.024,86.996,12.024,65.341
					S34.063,29.964,64.63,29.964S117.236,43.437,117.236,65.092z"/>
			</g>
			<g>
				<path style="fill:#00476D;" d="M116.655,64.957c0,21.147-21.623,42.194-51.767,42.194S12.703,86.34,12.703,65.194
					s21.832-34.648,51.976-34.648S116.655,43.81,116.655,64.957z"/>
			</g>
			<g>
				<path style="fill:#00486E;" d="M116.073,64.822c0,20.638-21.428,41.068-51.148,41.068S13.382,85.685,13.382,65.047
					s21.625-33.919,51.345-33.919S116.073,44.184,116.073,64.822z"/>
			</g>
			<g>
				<path style="fill:#00496F;" d="M115.491,64.688c0,20.13-21.232,39.942-50.529,39.942S14.061,85.03,14.061,64.9
					s21.419-33.191,50.715-33.191S115.491,44.558,115.491,64.688z"/>
			</g>
			<g>
				<path style="fill:#004971;" d="M114.909,64.553c0,19.622-21.037,38.816-49.909,38.816s-50.26-18.996-50.26-38.617
					s21.212-32.462,50.085-32.462S114.909,44.932,114.909,64.553z"/>
			</g>
			<g>
				<path style="fill:#004A72;" d="M114.327,64.419c0,19.113-20.841,37.69-49.29,37.69s-49.619-18.39-49.619-37.504
					s21.006-31.733,49.455-31.733S114.327,45.306,114.327,64.419z"/>
			</g>
			<g>
				<path style="fill:#004B73;" d="M113.745,64.284c0,18.605-20.646,36.564-48.671,36.564s-48.978-17.785-48.978-36.39
					s20.799-31.004,48.824-31.004S113.745,45.679,113.745,64.284z"/>
			</g>
			<g>
				<path style="fill:#004C75;" d="M113.164,64.15c0,18.096-20.45,35.438-48.051,35.438s-48.337-17.18-48.337-35.276
					S37.369,34.036,64.97,34.036S113.164,46.053,113.164,64.15z"/>
			</g>
			<g>
				<path style="fill:#004D76;" d="M112.582,64.015c0,17.588-20.255,34.312-47.432,34.312S17.455,81.752,17.455,64.164
					s20.386-29.546,47.564-29.546S112.582,46.427,112.582,64.015z"/>
			</g>
			<g>
				<path style="fill:#004D77;" d="M112,63.88c0,17.08-20.059,33.186-46.813,33.186s-47.054-15.97-47.054-33.049
					S38.313,35.2,65.067,35.2S112,46.801,112,63.88z"/>
			</g>
			<g>
				<path style="fill:#004E79;" d="M111.418,63.746c0,16.571-19.864,32.06-46.193,32.06S18.812,80.442,18.812,63.87
					s19.973-28.089,46.303-28.089S111.418,47.175,111.418,63.746z"/>
			</g>
			<g>
				<path style="fill:#004F7A;" d="M110.836,63.611c0,16.063-19.668,30.934-45.574,30.934S19.491,79.786,19.491,63.723
					s19.767-27.36,45.673-27.36S110.836,47.548,110.836,63.611z"/>
			</g>
			<g>
				<path style="fill:#00507B;" d="M110.255,63.477c0,15.555-19.473,29.808-44.955,29.808S20.17,79.131,20.17,63.576
					S39.73,36.945,65.212,36.945S110.255,47.922,110.255,63.477z"/>
			</g>
			<g>
				<path style="fill:#00507D;" d="M109.673,63.342c0,15.046-19.277,28.682-44.335,28.682S20.848,78.475,20.848,63.429
					s19.354-25.902,44.412-25.902S109.673,48.296,109.673,63.342z"/>
			</g>
			<g>
				<path style="fill:#00517E;" d="M109.091,63.207c0,14.538-19.082,27.556-43.716,27.556S21.527,77.82,21.527,63.282
					s19.148-25.173,43.782-25.173S109.091,48.67,109.091,63.207z"/>
			</g>
			<g>
				<path style="fill:#00527F;" d="M108.509,63.073c0,14.029-18.886,26.43-43.097,26.43S22.206,77.165,22.206,63.135
					s18.941-24.444,43.152-24.444S108.509,49.043,108.509,63.073z"/>
			</g>
			<g>
				<path style="fill:#005381;" d="M107.927,62.938c0,13.521-18.691,25.304-42.477,25.304S22.885,76.509,22.885,62.988
					s18.735-23.715,42.521-23.715S107.927,49.417,107.927,62.938z"/>
			</g>
			<g>
				<path style="fill:#005482;" d="M107.345,62.804c0,13.013-18.495,24.178-41.858,24.178S23.564,75.854,23.564,62.841
					s18.528-22.987,41.891-22.987S107.345,49.791,107.345,62.804z"/>
			</g>
			<g>
				<path style="fill:#005483;" d="M106.764,62.669c0,12.504-18.3,23.052-41.239,23.052S24.242,75.198,24.242,62.694
					s18.322-22.258,41.261-22.258S106.764,50.165,106.764,62.669z"/>
			</g>
			<g>
				<path style="fill:#005585;" d="M106.182,62.535c0,11.996-18.104,21.926-40.619,21.926s-40.641-9.918-40.641-21.914
					s18.115-21.529,40.63-21.529S106.182,50.539,106.182,62.535z"/>
			</g>
			<g>
				<ellipse style="fill:#005686;" cx="65.6" cy="62.4" rx="40" ry="20.8"/>
			</g>
		</g>
		<linearGradient id="SVGID_1_" gradientUnits="userSpaceOnUse" x1="64" y1="67.2" x2="64" y2="3.2">
			<stop  offset="0" style="stop-color:#94D1FF;stop-opacity:0.5"/>
			<stop  offset="1" style="stop-color:#94D1FF"/>
		</linearGradient>
		<ellipse style="opacity:0.52;fill:url(#SVGID_1_);" cx="64" cy="35.2" rx="46.4" ry="32"/>
		<g>
			<g>
				<path style="fill:#28B7F6;" d="M38.868,40.043c-2.56,0-15.028-14.209-15.028-15.169c0-0.64,0,0,0,0
					c0-0.501,0.233-0.873,0.873-0.873c0.96,0,15.178,12.534,15.178,15.094C39.891,39.734,39.506,39.986,38.868,40.043z"/>
			</g>
			<g>
				<path style="fill:#28B7F6;" d="M40.043,89.132c0,2.56-14.209,15.028-15.169,15.028c-0.64,0,0,0,0,0
					c-0.501,0-0.873-0.233-0.873-0.873c0-0.96,12.534-15.178,15.094-15.178C39.734,88.109,39.986,88.494,40.043,89.132z"/>
			</g>
			<g>
				<path style="fill:#28B7F6;" d="M89.132,87.957c2.56,0,15.028,14.209,15.028,15.169c0,0.64,0,0,0,0
					c0,0.501-0.233,0.873-0.873,0.873c-0.96,0-15.178-12.534-15.178-15.094C88.109,88.266,88.494,88.014,89.132,87.957z"/>
			</g>
			<g>
				<path style="fill:#28B7F6;" d="M87.957,38.868c0-2.56,14.209-15.028,15.169-15.028c0.64,0,0,0,0,0
					c0.501,0,0.873,0.233,0.873,0.873c0,0.96-12.534,15.178-15.094,15.178C88.266,39.891,88.014,39.506,87.957,38.868z"/>
			</g>
			<g>
				<path style="fill:#28B7F6;" d="M64,92.8c-15.881,0-28.8-12.921-28.8-28.8c0-15.881,12.919-28.8,28.8-28.8
					c15.879,0,28.8,12.919,28.8,28.8C92.8,79.879,79.879,92.8,64,92.8z M64,38.4c-14.115,0-25.6,11.485-25.6,25.6
					c0,14.117,11.485,25.6,25.6,25.6c14.117,0,25.6-11.483,25.6-25.6C89.6,49.885,78.117,38.4,64,38.4z"/>
			</g>
		</g>
		<path style="fill:#FFFFFF;" d="M6.4,68.348c0-1.029,0.414-1.907,1.439-1.907c1.073,0,1.52,0.714,1.596,1.781
			c0.078,1.265,0.49,2.158,1.752,2.158c1.443,0,1.721-1.464,1.721-2.907c0-3.918-2.263-2.515-3.253-3.316
			c-0.21-0.166-0.313-0.427-0.313-0.782c0-0.333,0.088-0.578,0.265-0.735c0.974-0.861,2.956,0.425,2.956-3.049
			c0-1.097-0.374-1.972-1.471-1.972c-0.962,0-1.356,0.611-1.533,1.564c-0.145,0.961-0.657,1.439-1.533,1.439
			c-0.897,0-1.345-0.624-1.345-1.439c0-2.236,1.415-3.847,4.348-3.847c2.864,0,4.723,1.424,4.723,4.38
			c0,1.528-0.493,3.006-1.939,3.503c1.869,0.699,2.252,2.1,2.252,4.223c0,3.38-1.49,5.224-4.911,5.224
			C8.073,72.665,6.4,70.874,6.4,68.348z M18.351,57.056c0-1.147,0.562-1.721,1.689-1.721h4.16c3.927,0,4.599,3.508,4.599,7.445v2.19
			c0,3.796-0.959,7.382-4.756,7.382H20.04c-1.211,0-1.689-0.521-1.689-1.687V57.056z M21.51,69.849h1.471
			c2.385,0,2.503-2.78,2.503-5.442v-1.376c0-2.525,0.002-5.194-2.41-5.194H21.51V69.849z"/>
		<path style="fill:#FFFFFF;" d="M109.509,57.804c0,1.005-0.801,1.824-1.824,1.824c-1.016,0-1.824-0.812-1.824-1.824
			c0-1.012,0.808-1.824,1.824-1.824C108.707,55.981,109.509,56.798,109.509,57.804z M109.29,74.41c0,1.319-0.664,1.887-1.604,1.887
			c-1.103,0-1.573-0.762-1.573-1.887V63.497c0-1.34,0.646-1.887,1.573-1.887c0.945,0,1.604,0.569,1.604,1.887V74.41z M114.7,57.239
			c0.229-0.65,0.585-0.975,1.067-0.975c0.191,0,0.378,0.041,0.569,0.125c0.48,0.189,0.721,0.461,0.721,0.818
			c0,0.883-2.233,6.054-2.233,6.95c0,0.21,0.095,0.315,0.283,0.315c0.475,0,1.256-0.963,1.573-1.288
			c0.022-0.064,0.064-0.095,0.127-0.095c0.022,0,0.051,0.021,0.095,0.064c0.395,0.369,0.312,0.312,0.315,0.315
			c0,0.041-0.022,0.084-0.064,0.125c-0.573,1.104-2.285,2.233-4.184,2.233c-0.494,0-0.848-0.173-0.848-0.661
			C112.12,64.605,114.579,57.564,114.7,57.239z M118.662,53.369c0,0.924-0.731,1.668-1.668,1.668c-0.937,0-1.665-0.747-1.665-1.668
			c0-0.918,0.727-1.666,1.665-1.666C117.925,51.703,118.662,52.441,118.662,53.369z"/>
		<path style="fill:#FFFFFF;" d="M48.229,102.921C48.167,102.68,48,101.963,48,101.714c0-0.762,0.605-1.534,1.633-1.534
			c0.948,0,1.371,0.321,1.6,1.372l2.482,12.57l2.089-12.276c0.246-1.414,0.776-1.666,1.567-1.666c1.055,0,1.568,0.617,1.568,1.435
			c0,0.4-0.068,0.74-0.163,1.276l-2.808,13.19c-0.311,1.278-0.783,1.695-2.482,1.695c-1.367,0-1.989-0.366-2.317-1.794
			L48.229,102.921z M62.138,113.143c0-0.534,0.25-1.046,0.783-1.046c0.432,0,0.816,0.341,0.816,1.013v2.451h2.416
			c0.526,0,1.079,0.316,1.079,0.815c0,0.503-0.567,0.782-1.079,0.782h-2.416v2.418c0,0.536-0.279,1.046-0.816,1.046
			c-0.534,0-0.783-0.512-0.783-1.046v-2.418h-2.416c-0.537,0-1.079-0.268-1.079-0.782c0-0.383,0.356-0.815,1.079-0.815h2.416
			V113.143z M69.746,101.912c0-1.154,0.587-1.732,1.765-1.732h4.439c2.743,0,3.918,1.685,3.918,4.439
			c0,1.876-0.345,3.236-2.088,3.951c0.848,0.307,1.392,0.745,1.633,1.323c0.506,1.23,0.314,2.917,0.356,4.228
			c0,1.244,0.231,1.549,0.231,2.678c0,0.492-0.436,1.042-1.567,1.042c-1.165,0-1.918-0.451-1.959-1.629l-0.165-4.443
			c-0.023-1.197-0.653-1.794-1.893-1.794h-1.405v6.204c0,1.033-0.78,1.662-1.633,1.662c-0.839,0-1.633-0.624-1.633-1.662V101.912z
			 M73.011,107.526h1.24c1.754,0,2.223-1.005,2.223-2.447c0-1.677-0.491-2.484-2.058-2.484h-1.405V107.526z"/>
		<path style="fill:#FFFFFF;" d="M61.245,15.478c0.143,0.429,0.55,0.784,1.175,0.784c0.676,0,0.739-0.172,1.619-0.758l8.074-6.687
			c0.793-0.681,1.701-1.082,2.478-1.202l1.543,0.078c0.407,0.025,0.73,0.135,0.73,0.548c0,0.159-0.028,0.295-0.235,0.576
			l-10.527,8.777c-1.729,1.426-3.08,2.85-3.893,3.891l-4.127,8.621c-0.284,0.559-0.731,0.94-1.358,0.94H55.21
			c-0.5,0-0.81-0.165-0.81-0.784c0-0.209,0.026-0.383,0.078-0.523c0.496-0.971,4.182-9.109,4.389-9.561
			c0.121-0.295,0.182-0.626,0.182-0.992c0-0.798-0.256-1.5-0.6-2.299l-3.5-8.542c-0.052-0.157-0.078-0.287-0.078-0.393
			c0-0.426,0.362-0.678,0.678-0.678h1.15c0.697,0.056,1.344,0.49,1.671,1.227L61.245,15.478z M67.148,9.809
			c0,1.401-1.106,2.509-2.509,2.509c-1.39,0-2.507-1.098-2.507-2.509c0-1.4,1.107-2.507,2.507-2.507
			C66.033,7.301,67.148,8.4,67.148,9.809z M71.145,22.347c0.011,0.071,0.144,0.576,0.574,0.576c0.307,0,0.521-0.102,0.782-0.261
			l4.363-3.632c0.409-0.326,0.897-0.564,1.543-0.626h1.018C79.692,18.441,80,18.552,80,18.821c0,0.174-0.104,0.358-0.312,0.548
			l-5.253,4.441c-0.742,0.608-1.488,1.371-2.09,2.116l-2.142,4.441c-0.344,0.682-1.112,0.756-1.332,0.756h-1.358
			c-0.346-0.028-0.548-0.199-0.548-0.548c0-0.205,0.078-0.405,0.157-0.6l2.168-4.755c0.069-0.139,0.104-0.313,0.104-0.523
			c0-0.562-0.226-0.967-0.313-1.28l-1.803-4.388c-0.087-0.157-0.13-0.304-0.13-0.445c0-0.327,0.301-0.443,0.626-0.443h0.758
			c0.633,0,1.078,0.314,1.254,0.704L71.145,22.347z M74.723,19.03c0,0.921-0.768,1.671-1.671,1.671
			c-0.906,0-1.671-0.757-1.671-1.671c0-0.913,0.765-1.671,1.671-1.671C73.954,17.359,74.723,18.109,74.723,19.03z"/>
		<path style="fill:#FFFFFF;" d="M57.632,50.287c0.655,0,0.916,0.135,1.567,0.456l19.167,10.514
			c0.969,0.551,1.731,1.538,1.731,2.744c0,1.2-0.756,2.191-1.731,2.742L59.199,77.257c-0.641,0.277-0.812,0.456-1.567,0.456
			c-1.725,0-3.33-1.453-3.33-3.394V53.682C54.302,51.73,55.923,50.287,57.632,50.287z M57.632,52.899
			c-0.408,0-0.717,0.402-0.717,0.783V74.32c0,0.379,0.312,0.784,0.717,0.784c0.044,0,0.098-0.012,0.164-0.034l0.163-0.097
			l19.136-10.516c0.204-0.081,0.391-0.237,0.391-0.456c0-0.195-0.225-0.355-0.391-0.458C64.397,56.583,57.964,52.899,57.632,52.899z
			"/>
	</g>
</g>
<g id="Layer_1">
</g>
</svg>
