<svg xmlns="http://www.w3.org/2000/svg" viewBox="0 0 125.91 128"><g id="Calque_2" data-name="Calque 2"><g id="app-whiteboard"><g id="app-whiteboard-2" data-name="app-whiteboard"><path d="M125.91,17.11a2.58,2.58,0,0,0-.78-1.83l-2.75-2.74a2.53,2.53,0,0,0-3.65,0L114,17.11l-.39-.39L79.41,50.81c-5.4,5.4-8.88,11.09-8.88,14.1a2,2,0,0,0,2.22,2.22c3,0,8.71-3.48,14.11-8.88L121,24l-.39-.39,4.57-4.7A2.58,2.58,0,0,0,125.91,17.11Z"/><path d="M107.49,50.55l-8.62,8.62,8.89,19.46L19.2,110,12.8,84.64A18.51,18.51,0,0,1,0,75.49l8.1,49A4.12,4.12,0,0,0,12.15,128a4.5,4.5,0,0,0,1.43-.26l108.8-38.66a5.32,5.32,0,0,0,3.53-5,4.8,4.8,0,0,0-.65-2.48Z"/><path d="M73.67,0H16.2A9.15,9.15,0,0,0,7.05,9.14V66.61a9.15,9.15,0,0,0,9.15,9.15h53a11,11,0,0,1-7.7-9.15H16.2V9.14H73.67V43.62l9.14-9.14V9.14A9.14,9.14,0,0,0,73.67,0Z"/></g></g></g></svg>