<?xml version="1.0" encoding="utf-8"?>
<!-- Generator: Adobe Illustrator 17.1.0, SVG Export Plug-In . SVG Version: 6.00 Build 0)  -->
<!DOCTYPE svg PUBLIC "-//W3C//DTD SVG 1.1//EN" "http://www.w3.org/Graphics/SVG/1.1/DTD/svg11.dtd" [
	<!ENTITY ns_flows "http://ns.adobe.com/Flows/1.0/">
	<!ENTITY ns_extend "http://ns.adobe.com/Extensibility/1.0/">
	<!ENTITY ns_ai "http://ns.adobe.com/AdobeIllustrator/10.0/">
	<!ENTITY ns_graphs "http://ns.adobe.com/Graphs/1.0/">
]>
<svg version="1.1" id="OKOK_copy_2" xmlns:x="&ns_extend;" xmlns:i="&ns_ai;" xmlns:graph="&ns_graphs;"
	 xmlns="http://www.w3.org/2000/svg" xmlns:xlink="http://www.w3.org/1999/xlink" xmlns:a="http://ns.adobe.com/AdobeSVGViewerExtensions/3.0/"
	 x="0px" y="0px" viewBox="0 0 32 32" enable-background="new 0 0 32 32" xml:space="preserve">
<g id="_x31_X___ok_copy_3">
	<g id="Layer_49">
		<polyline fill="none" stroke="#003654" stroke-miterlimit="10" points="3.266,16.167 11.431,16.167 12.598,19.083 6.03,25.147 		
			"/>
		<polyline fill="none" stroke="#003654" stroke-miterlimit="10" points="10.069,9.249 14.323,17.971 19.677,12.5 		"/>
		<line fill="none" stroke="#003654" stroke-miterlimit="10" x1="10.069" y1="9.249" x2="14.323" y2="17.971"/>
		<line fill="none" stroke="#003654" stroke-miterlimit="10" x1="21.579" y1="25.732" x2="15.514" y2="19.666"/>
	</g>
	<g id="Layer_49_copy">
		<polyline fill="none" stroke="#003654" stroke-miterlimit="10" points="3.266,16.167 11.431,16.167 12.598,19.083 6.03,25.147 		
			"/>
		<polyline fill="none" stroke="#003654" stroke-miterlimit="10" points="10.069,9.249 14.323,17.971 19.677,12.5 		"/>
		<line fill="none" stroke="#003654" stroke-miterlimit="10" x1="10.069" y1="9.249" x2="14.323" y2="17.971"/>
		<line fill="none" stroke="#003654" stroke-miterlimit="10" x1="21.579" y1="25.732" x2="15.514" y2="19.666"/>
	</g>
	<g>
		<defs>
			<path id="SVGID_1_" d="M28,32H0V0l23.05,0c-2.825,0-7.203,2.637-7.203,7.934c0,5.564,6.013,8.08,6.013,8.08L24.595,16L28,24.332
				V32z"/>
		</defs>
		<clipPath id="SVGID_2_">
			<use xlink:href="#SVGID_1_"  overflow="visible"/>
		</clipPath>
		<g id="S1_158_" clip-path="url(#SVGID_2_)">
			<radialGradient id="SVGID_3_" cx="3.7309" cy="14.2695" r="2.8125" gradientUnits="userSpaceOnUse">
				<stop  offset="0.07" style="stop-color:#FFFFFF"/>
				<stop  offset="0.8333" style="stop-color:#7E7E7E"/>
				<stop  offset="0.8334" style="stop-color:#797979"/>
				<a:midPointStop  offset="0.07" style="stop-color:#FFFFFF"/>
				<a:midPointStop  offset="0.5" style="stop-color:#FFFFFF"/>
				<a:midPointStop  offset="0.8333" style="stop-color:#7E7E7E"/>
				<a:midPointStop  offset="0.5" style="stop-color:#7E7E7E"/>
				<a:midPointStop  offset="0.8334" style="stop-color:#797979"/>
			</radialGradient>
			<path fill="url(#SVGID_3_)" d="M4.5,18.313c-1.551,0-2.813-1.262-2.813-2.813s1.262-2.813,2.813-2.813
				c1.551,0,2.812,1.262,2.812,2.813S6.051,18.313,4.5,18.313z"/>
			<g>
				<path fill="#323232" d="M4.5,13C5.881,13,7,14.119,7,15.5C7,16.881,5.881,18,4.5,18C3.119,18,2,16.881,2,15.5
					C2,14.119,3.119,13,4.5,13 M4.5,12.375c-1.723,0-3.125,1.402-3.125,3.125c0,1.723,1.402,3.125,3.125,3.125
					c1.723,0,3.125-1.402,3.125-3.125C7.625,13.777,6.223,12.375,4.5,12.375L4.5,12.375z"/>
			</g>
		</g>
		<g id="S1_156_" clip-path="url(#SVGID_2_)">
			
				<radialGradient id="SVGID_4_" cx="6.7738" cy="8.0799" r="2.5476" gradientTransform="matrix(0.8751 0 0 0.8751 2.963 -0.5458)" gradientUnits="userSpaceOnUse">
				<stop  offset="0.07" style="stop-color:#FFFFFF"/>
				<stop  offset="0.5162" style="stop-color:#797979"/>
				<a:midPointStop  offset="0.07" style="stop-color:#FFFFFF"/>
				<a:midPointStop  offset="0.5" style="stop-color:#FFFFFF"/>
				<a:midPointStop  offset="0.5162" style="stop-color:#797979"/>
			</radialGradient>
			<circle fill="url(#SVGID_4_)" cx="9.5" cy="7.5" r="2.229"/>
			<g>
				<path fill="#323232" d="M9.5,5.542c1.079,0,1.958,0.878,1.958,1.958c0,1.08-0.878,1.958-1.958,1.958
					c-1.08,0-1.958-0.879-1.958-1.958C7.542,6.42,8.42,5.542,9.5,5.542 M9.5,5C8.119,5,7,6.119,7,7.5C7,8.881,8.119,10,9.5,10
					c1.381,0,2.5-1.119,2.5-2.5C12,6.119,10.881,5,9.5,5L9.5,5z"/>
			</g>
		</g>
		<g id="S1bbbb_20_" clip-path="url(#SVGID_2_)">
			<radialGradient id="SVGID_5_" cx="16.2519" cy="6.8031" r="2.7363" gradientUnits="userSpaceOnUse">
				<stop  offset="0.07" style="stop-color:#FFFFFF"/>
				<stop  offset="0.5162" style="stop-color:#797979"/>
				<a:midPointStop  offset="0.07" style="stop-color:#FFFFFF"/>
				<a:midPointStop  offset="0.5" style="stop-color:#FFFFFF"/>
				<a:midPointStop  offset="0.5162" style="stop-color:#797979"/>
			</radialGradient>
			<path fill="url(#SVGID_5_)" d="M17,10.737c-0.301,0-0.606-0.049-0.907-0.146c-0.788-0.252-1.433-0.898-1.685-1.686
				c-0.283-0.883-0.145-1.8,0.379-2.518C15.302,5.684,16.129,5.264,17,5.264c0.301,0,0.606,0.048,0.906,0.145
				c0.788,0.252,1.434,0.897,1.686,1.686c0.282,0.883,0.144,1.801-0.38,2.519C18.698,10.316,17.871,10.737,17,10.737z"/>
			<g>
				<path fill="#323232" d="M17.001,5.526L17.001,5.526c0.274,0,0.551,0.044,0.826,0.132c0.708,0.226,1.289,0.807,1.515,1.515
					c0.256,0.802,0.132,1.635-0.342,2.284c-0.465,0.637-1.212,1.017-1.999,1.017c-0.274,0-0.552-0.045-0.827-0.133
					c-0.708-0.227-1.288-0.807-1.515-1.515C14.402,8.025,14.526,7.193,15,6.544C15.465,5.907,16.213,5.526,17.001,5.526 M17,5
					c-1.977,0-3.507,1.911-2.843,3.987c0.279,0.87,0.986,1.577,1.856,1.856C16.349,10.95,16.681,11,17,11
					c1.976,0,3.506-1.911,2.842-3.987c-0.278-0.871-0.986-1.578-1.856-1.856C17.651,5.05,17.32,5,17,5L17,5z"/>
			</g>
		</g>
		<g id="S1_154_" clip-path="url(#SVGID_2_)">
			
				<radialGradient id="SVGID_6_" cx="17.9669" cy="28.0859" r="3.9232" fx="18.8697" fy="26.3757" gradientTransform="matrix(0.8333 0 0 0.8333 5.6704 1.744)" gradientUnits="userSpaceOnUse">
				<stop  offset="0.07" style="stop-color:#FFFFFF"/>
				<stop  offset="0.8333" style="stop-color:#7E7E7E"/>
				<stop  offset="0.8334" style="stop-color:#797979"/>
				<a:midPointStop  offset="0.07" style="stop-color:#FFFFFF"/>
				<a:midPointStop  offset="0.5" style="stop-color:#FFFFFF"/>
				<a:midPointStop  offset="0.8333" style="stop-color:#7E7E7E"/>
				<a:midPointStop  offset="0.5" style="stop-color:#7E7E7E"/>
				<a:midPointStop  offset="0.8334" style="stop-color:#797979"/>
			</radialGradient>
			<path fill="url(#SVGID_6_)" d="M21.5,29.77c-1.803,0-3.27-1.468-3.27-3.271c0-1.802,1.467-3.269,3.27-3.269
				c1.802,0,3.269,1.467,3.269,3.269C24.769,28.302,23.303,29.77,21.5,29.77z"/>
			<path fill="#323232" d="M21.501,23.462c1.675,0,3.038,1.363,3.038,3.038c0,1.676-1.363,3.039-3.038,3.039
				c-1.676,0-3.039-1.363-3.039-3.039C18.462,24.824,19.825,23.462,21.501,23.462 M21.501,23C19.567,23,18,24.567,18,26.499
				C18,28.433,19.567,30,21.501,30C23.433,30,25,28.433,25,26.499C25,24.567,23.433,23,21.501,23L21.501,23z"/>
		</g>
		<g id="gd_27_" clip-path="url(#SVGID_2_)">
			<path fill="#FFFFFF" d="M13.375,21.325c-2.729,0-4.951-2.222-4.951-4.951c0-2.729,2.221-4.949,4.951-4.949
				c2.729,0,4.95,2.221,4.95,4.949C18.325,19.104,16.104,21.325,13.375,21.325z"/>
			<path fill="#003654" d="M13.375,11.875c2.485,0,4.5,2.015,4.5,4.5c0,2.485-2.015,4.5-4.5,4.5c-2.485,0-4.5-2.015-4.5-4.5
				C8.875,13.89,10.89,11.875,13.375,11.875 M13.375,10.975c-2.978,0-5.4,2.422-5.4,5.4c0,2.978,2.423,5.401,5.4,5.401
				c2.977,0,5.399-2.423,5.399-5.401C18.775,13.397,16.353,10.975,13.375,10.975L13.375,10.975z"/>
		</g>
		<g id="S1_152_" clip-path="url(#SVGID_2_)">
			
				<radialGradient id="SVGID_7_" cx="37.7057" cy="-10.718" r="2.321" gradientTransform="matrix(0.9811 0.1908 -0.1903 0.9796 -26.0859 18.5615)" gradientUnits="userSpaceOnUse">
				<stop  offset="0.07" style="stop-color:#FFFFFF"/>
				<stop  offset="0.5162" style="stop-color:#82BDDB"/>
				<a:midPointStop  offset="0.07" style="stop-color:#FFFFFF"/>
				<a:midPointStop  offset="0.5" style="stop-color:#FFFFFF"/>
				<a:midPointStop  offset="0.5162" style="stop-color:#82BDDB"/>
			</radialGradient>
			<path fill="url(#SVGID_7_)" d="M13.377,18.696c-0.405,0-0.8-0.104-1.175-0.31c-0.615-0.338-1.048-0.98-1.131-1.678
				c-0.083-0.703,0.119-1.369,0.568-1.875c0.441-0.496,1.072-0.78,1.733-0.78c0.405,0,0.8,0.104,1.175,0.31
				c0.615,0.337,1.048,0.979,1.131,1.677c0.083,0.704-0.119,1.37-0.569,1.876C14.668,18.412,14.037,18.696,13.377,18.696z"/>
			<g>
				<path fill="#003654" d="M13.373,14.232L13.373,14.232c0.374,0,0.741,0.097,1.089,0.288c0.566,0.31,0.964,0.901,1.039,1.542
					c0.077,0.652-0.109,1.269-0.525,1.736c-0.407,0.458-0.99,0.72-1.598,0.72c-0.375,0-0.741-0.097-1.089-0.288
					c-0.565-0.31-0.963-0.901-1.039-1.542c-0.077-0.652,0.109-1.268,0.523-1.735C12.18,14.495,12.763,14.232,13.373,14.232
					 M13.372,13.875c-1.429,0-2.67,1.232-2.478,2.855c0.089,0.756,0.555,1.447,1.222,1.813c0.416,0.228,0.846,0.332,1.261,0.332
					c1.428,0,2.669-1.232,2.478-2.855c-0.089-0.756-0.555-1.447-1.222-1.813C14.217,13.979,13.787,13.875,13.372,13.875
					L13.372,13.875z"/>
			</g>
		</g>
		<g id="S1_150_" clip-path="url(#SVGID_2_)">
			
				<radialGradient id="SVGID_8_" cx="-0.8819" cy="26.542" r="4.224" fx="0.0079" fy="24.8626" gradientTransform="matrix(0.7694 0 0 0.7694 5.3889 3.2978)" gradientUnits="userSpaceOnUse">
				<stop  offset="0.07" style="stop-color:#FFFFFF"/>
				<stop  offset="0.8333" style="stop-color:#7E7E7E"/>
				<stop  offset="0.8334" style="stop-color:#797979"/>
				<a:midPointStop  offset="0.07" style="stop-color:#FFFFFF"/>
				<a:midPointStop  offset="0.5" style="stop-color:#FFFFFF"/>
				<a:midPointStop  offset="0.8333" style="stop-color:#7E7E7E"/>
				<a:midPointStop  offset="0.5" style="stop-color:#7E7E7E"/>
				<a:midPointStop  offset="0.8334" style="stop-color:#797979"/>
			</radialGradient>
			<path fill="url(#SVGID_8_)" d="M5.5,28.75c-1.792,0-3.25-1.458-3.25-3.251c0-1.792,1.458-3.249,3.25-3.249
				c1.792,0,3.25,1.457,3.25,3.249C8.75,27.292,7.292,28.75,5.5,28.75z"/>
			<path fill="#323232" d="M5.501,22.5c1.654,0,2.999,1.346,2.999,2.999c0,1.655-1.346,3.001-2.999,3.001
				c-1.655,0-3.001-1.346-3.001-3.001C2.5,23.846,3.846,22.5,5.501,22.5 M5.501,22C3.567,22,2,23.567,2,25.499
				C2,27.433,3.567,29,5.501,29C7.433,29,9,27.433,9,25.499C9,23.567,7.433,22,5.501,22L5.501,22z"/>
		</g>
	</g>
	<g id="NEW_DESIGN_REFERENCE">
		<path opacity="0.5" fill="#FFFFFF" d="M28.65,9.684c1.212-3.259-0.398-8.244-4.053-8.226c-3.563,0.018-5.691,1.913-6.569,4.274
			c-1.098,2.951,0.118,5.418,2.178,7.529C22.751,15.867,27.438,12.943,28.65,9.684z"/>
		
			<linearGradient id="SVGID_9_" gradientUnits="userSpaceOnUse" x1="-8139.2344" y1="-8159.4653" x2="-8172.5073" y2="-8217.0957" gradientTransform="matrix(0.2845 0.1059 -0.1059 0.2845 1478.1476 3204.1211)">
			<stop  offset="0" style="stop-color:#151515"/>
			<stop  offset="1" style="stop-color:#505150"/>
			<a:midPointStop  offset="0" style="stop-color:#151515"/>
			<a:midPointStop  offset="0.5" style="stop-color:#151515"/>
			<a:midPointStop  offset="1" style="stop-color:#505150"/>
		</linearGradient>
		<path fill-rule="evenodd" clip-rule="evenodd" fill="url(#SVGID_9_)" d="M30.146,18.303L30.146,18.303l-2.175-4.751
			c1.081-0.775,1.95-1.869,2.449-3.209c1.334-3.585-0.491-7.572-4.076-8.906c-3.585-1.334-7.572,0.491-8.906,4.076
			c-1.334,3.585,0.491,7.573,4.076,8.907c1.34,0.499,2.736,0.555,4.029,0.244l2.174,4.751l0,0c0.247,0.54,0.482,0.851,0.961,1.029
			c0.59,0.22,1.4-0.151,1.619-0.741C30.475,19.224,30.393,18.842,30.146,18.303z M18.618,5.952c1.089-2.928,4.359-4.424,7.287-3.335
			c2.928,1.089,4.424,4.359,3.335,7.287c-1.09,2.928-4.359,4.425-7.287,3.335C19.025,12.149,17.529,8.88,18.618,5.952z"/>
		
			<linearGradient id="SVGID_10_" gradientUnits="userSpaceOnUse" x1="-8139.2344" y1="-8159.4653" x2="-8172.5073" y2="-8217.0957" gradientTransform="matrix(0.2845 0.1059 -0.1059 0.2845 1478.1476 3204.1211)">
			<stop  offset="0" style="stop-color:#151515"/>
			<stop  offset="1" style="stop-color:#505150"/>
			<a:midPointStop  offset="0" style="stop-color:#151515"/>
			<a:midPointStop  offset="0.5" style="stop-color:#151515"/>
			<a:midPointStop  offset="1" style="stop-color:#505150"/>
		</linearGradient>
		<path fill-rule="evenodd" clip-rule="evenodd" fill="url(#SVGID_10_)" d="M30.146,18.303L30.146,18.303l-2.175-4.751
			c1.081-0.775,1.95-1.869,2.449-3.209c1.334-3.585-0.491-7.572-4.076-8.906c-3.585-1.334-7.572,0.491-8.906,4.076
			c-1.334,3.585,0.491,7.573,4.076,8.907c1.34,0.499,2.736,0.555,4.029,0.244l2.174,4.751l0,0c0.247,0.54,0.482,0.851,0.961,1.029
			c0.59,0.22,1.4-0.151,1.619-0.741C30.475,19.224,30.393,18.842,30.146,18.303z M18.618,5.952c1.089-2.928,4.359-4.424,7.287-3.335
			c2.928,1.089,4.424,4.359,3.335,7.287c-1.09,2.928-4.359,4.425-7.287,3.335C19.025,12.149,17.529,8.88,18.618,5.952z"/>
	</g>
	<g id="S1__DS_LA_loupe_1_">
		<radialGradient id="SVGID_11_" cx="22.7485" cy="7.2977" r="2.748" gradientUnits="userSpaceOnUse">
			<stop  offset="0.07" style="stop-color:#FFFFFF"/>
			<stop  offset="0.8333" style="stop-color:#7E7E7E"/>
			<stop  offset="0.8334" style="stop-color:#797979"/>
			<a:midPointStop  offset="0.07" style="stop-color:#FFFFFF"/>
			<a:midPointStop  offset="0.5" style="stop-color:#FFFFFF"/>
			<a:midPointStop  offset="0.8333" style="stop-color:#7E7E7E"/>
			<a:midPointStop  offset="0.5" style="stop-color:#7E7E7E"/>
			<a:midPointStop  offset="0.8334" style="stop-color:#797979"/>
		</radialGradient>
		<path fill="url(#SVGID_11_)" d="M23.5,11.248c-1.516,0-2.749-1.232-2.749-2.748s1.233-2.748,2.749-2.748
			c1.515,0,2.748,1.232,2.748,2.748S25.016,11.248,23.5,11.248z"/>
		<g>
			<path fill="#323232" d="M23.5,6C24.881,6,26,7.119,26,8.5c0,1.381-1.119,2.5-2.5,2.5C22.119,11,21,9.881,21,8.5
				C21,7.119,22.119,6,23.5,6 M23.5,5.504c-1.652,0-2.997,1.344-2.997,2.996c0,1.652,1.344,2.997,2.997,2.997
				c1.652,0,2.996-1.344,2.996-2.997C26.496,6.848,25.152,5.504,23.5,5.504L23.5,5.504z"/>
		</g>
	</g>
	<g id="S1__DS_LA_loupe_2_">
		<radialGradient id="SVGID_12_" cx="22.7485" cy="7.2977" r="2.748" gradientUnits="userSpaceOnUse">
			<stop  offset="0.07" style="stop-color:#FFFFFF"/>
			<stop  offset="0.8333" style="stop-color:#7E7E7E"/>
			<stop  offset="0.8334" style="stop-color:#797979"/>
			<a:midPointStop  offset="0.07" style="stop-color:#FFFFFF"/>
			<a:midPointStop  offset="0.5" style="stop-color:#FFFFFF"/>
			<a:midPointStop  offset="0.8333" style="stop-color:#7E7E7E"/>
			<a:midPointStop  offset="0.5" style="stop-color:#7E7E7E"/>
			<a:midPointStop  offset="0.8334" style="stop-color:#797979"/>
		</radialGradient>
		<path fill="url(#SVGID_12_)" d="M23.5,11.248c-1.516,0-2.749-1.232-2.749-2.748s1.233-2.748,2.749-2.748
			c1.515,0,2.748,1.232,2.748,2.748S25.016,11.248,23.5,11.248z"/>
		<g>
			<path d="M23.5,6C24.881,6,26,7.119,26,8.5c0,1.381-1.119,2.5-2.5,2.5C22.119,11,21,9.881,21,8.5C21,7.119,22.119,6,23.5,6
				 M23.5,5.504c-1.652,0-2.997,1.344-2.997,2.996c0,1.652,1.344,2.997,2.997,2.997c1.652,0,2.996-1.344,2.996-2.997
				C26.496,6.848,25.152,5.504,23.5,5.504L23.5,5.504z"/>
		</g>
	</g>
	<rect id="cadre_13_" y="0" fill="none" width="32" height="32"/>
</g>
</svg>
