<svg xmlns="http://www.w3.org/2000/svg" xmlns:xlink="http://www.w3.org/1999/xlink" viewBox="0 0 80 60"><defs><linearGradient id="a" x1="16" y1="11" x2="26" y2="11" gradientUnits="userSpaceOnUse"><stop offset="0" stop-color="#464646"/><stop offset="1" stop-color="#141414"/></linearGradient><radialGradient id="d" cx="37.3" cy="17.41" r="13.94" gradientTransform="translate(-1.15 25.37) rotate(-29.9) scale(1 0.7)" gradientUnits="userSpaceOnUse"><stop offset="0" stop-color="#fff"/><stop offset="1" stop-color="#d2d2d2"/></radialGradient><radialGradient id="e" cx="40.02" cy="15.02" r="13.96" gradientTransform="matrix(0.37, 0.93, -1.08, 0.43, 41.61, -28.62)" gradientUnits="userSpaceOnUse"><stop offset="0.55" stop-opacity="0"/><stop offset="1" stop-opacity="0.99"/><stop offset="1"/></radialGradient><linearGradient id="f" x1="37.75" y1="15" x2="39.29" y2="20.5" gradientTransform="translate(10.14 -14.09) rotate(23.96)" gradientUnits="userSpaceOnUse"><stop offset="0" stop-color="#fff"/><stop offset="1" stop-color="#fff" stop-opacity="0"/></linearGradient><radialGradient id="g" cx="35.95" cy="36.08" r="17.35" gradientTransform="matrix(0.87, -0.53, 0.35, 0.65, -7.89, 31.05)" xlink:href="#d"/><radialGradient id="h" cx="39.81" cy="32.98" r="19.42" gradientTransform="matrix(1, 0, 0, 0.8, 0.09, 6.36)" gradientUnits="userSpaceOnUse"><stop offset="0.69" stop-opacity="0"/><stop offset="1"/></radialGradient><linearGradient id="i" x1="34.21" y1="32.3" x2="35.96" y2="38.57" gradientTransform="matrix(1, 0, 0, 1, 0, 0)" xlink:href="#f"/><radialGradient id="j" cx="40" cy="28.17" r="5.73" gradientTransform="translate(85.7 -11.83) rotate(90) scale(1 1.62)" gradientUnits="userSpaceOnUse"><stop offset="0"/><stop offset="0.84" stop-opacity="0"/></radialGradient><linearGradient id="k" x1="60" y1="54.37" x2="60" y2="35.98" gradientUnits="userSpaceOnUse"><stop offset="0" stop-color="#f4f5f5"/><stop offset="0.99" stop-color="#bebdbd"/></linearGradient><radialGradient id="l" cx="59.97" cy="49.03" r="17.31" gradientTransform="translate(0 19.02) scale(1 0.61)" gradientUnits="userSpaceOnUse"><stop offset="0.54" stop-opacity="0"/><stop offset="0.99"/></radialGradient></defs><g opacity="0.5"><path d="M16,16.5a.5.5,0,0,1-.5-.5V6a.5.5,0,0,1,.5-.5H26a.5.5,0,0,1,.5.5V8a.5.5,0,0,1-.5.5H18.5V16a.5.5,0,0,1-.5.5Z" fill="#fff"/><path d="M26,6V8H18v8H16V6H26m0-1H16a1,1,0,0,0-1,1V16a1,1,0,0,0,1,1h2a1,1,0,0,0,1-1V9h7a1,1,0,0,0,1-1V6a1,1,0,0,0-1-1Z" fill="#fff"/></g><g opacity="0.5"><path d="M62,16.5a.5.5,0,0,1-.5-.5V8.5H54a.5.5,0,0,1-.5-.5V6a.5.5,0,0,1,.5-.5H64a.5.5,0,0,1,.5.5V16a.5.5,0,0,1-.5.5Z" fill="#fff"/><path d="M64,6V16H62V8H54V6H64m0-1H54a1,1,0,0,0-1,1V8a1,1,0,0,0,1,1h7v7a1,1,0,0,0,1,1h2a1,1,0,0,0,1-1V6a1,1,0,0,0-1-1Z" fill="#fff"/></g><g opacity="0.5"><path d="M16,54.5a.5.5,0,0,1-.5-.5V44a.5.5,0,0,1,.5-.5h2a.5.5,0,0,1,.5.5v7.5H26a.5.5,0,0,1,.5.5v2a.5.5,0,0,1-.5.5Z" fill="#fff"/><path d="M18,44v8h8v2H16V44h2m0-1H16a1,1,0,0,0-1,1V54a1,1,0,0,0,1,1H26a1,1,0,0,0,1-1V52a1,1,0,0,0-1-1H19V44a1,1,0,0,0-1-1Z" fill="#fff"/></g><polygon points="26 6 16 6 16 16 18 16 18 8 26 8 26 6" fill="url(#a)"/><polygon points="54 6 54 8 62 8 62 16 64 16 64 6 54 6" fill="url(#a)"/><polygon points="18 52 18 44 16 44 16 54 26 54 26 52 18 52" fill="url(#a)"/><circle cx="40" cy="20.5" r="9" fill="url(#d)"/><circle cx="40" cy="20.5" r="8.5" opacity="0.3" fill="url(#e)"/><ellipse cx="38.27" cy="16.85" rx="6.4" ry="3.89" transform="translate(-3.55 16.99) rotate(-23.96)" fill="url(#f)"/><path d="M37.5,29.5h5a11,11,0,0,1,11,11v5a2,2,0,0,1-2,2h-23a2,2,0,0,1-2-2v-5A11,11,0,0,1,37.5,29.5Z" fill="url(#g)"/><path d="M53,40.5A10.51,10.51,0,0,0,42.5,30h-5A10.51,10.51,0,0,0,27,40.5v5A1.5,1.5,0,0,0,28.5,47h23A1.5,1.5,0,0,0,53,45.5Z" opacity="0.2" fill="url(#h)"/><path d="M40,34c-3.12,0-5.81-.78-7.13-1.92-3.53,1.78-5.6,4.77-4.66,6.88s4.95,2.64,8.84.91c3.28-1.46,5.46-4,5.48-6A18.6,18.6,0,0,1,40,34Z" fill="url(#i)"/><path d="M32.18,31.47C33.72,33,36.64,34,40,34s6.28-1,7.82-2.53A10.36,10.36,0,0,0,42.5,30h-5A10.36,10.36,0,0,0,32.18,31.47Z" opacity="0.6" fill="url(#j)"/><circle cx="40" cy="20.5" r="9" fill="none" stroke="#323232" stroke-linejoin="round"/><path d="M42.5,29.5h-5a11,11,0,0,0-11,11v5a2,2,0,0,0,2,2h23a2,2,0,0,0,2-2v-5A11,11,0,0,0,42.5,29.5Z" fill="none" stroke="#323232" stroke-linejoin="round"/><path d="M46,44c4.51-5.45,8.9-8,14-8s9.94,2.57,14,8v2a15.9,15.9,0,0,1-14,8c-4.92,0-9.35-2.12-14-8Z" fill="url(#k)"/><path d="M46,44c4.51-5.45,8.9-8,14-8s9.94,2.57,14,8v2a15.9,15.9,0,0,1-14,8c-4.92,0-9.35-2.12-14-8Z" opacity="0.15" fill="url(#l)"/><path d="M60,36a6.5,6.5,0,1,1-6.5,6.5A6.5,6.5,0,0,1,60,36Z" fill="#151415"/><path d="M61.72,39c1.51,0,2.28.93,2.28,2.51,0,1.14,0,2.56-1.18,2.56s-.41-2.29-.91-2.82-2.82.82-2.9-.21C58.9,39.74,60,39,61.72,39Z" fill="#fff" fill-rule="evenodd"/><path d="M60,37c4.9,0,9.27,2.47,13,7.34v1.41C70.61,50.1,65.42,53,60,53c-4.88,0-8.9-2.27-13-7.35V44.36C51.28,39.27,55.3,37,60,37m0-1c-5.1,0-9.49,2.55-14,8v2c4.65,5.88,9.08,8,14,8a15.9,15.9,0,0,0,14-8V44c-4.06-5.43-8.88-8-14-8Z" fill="#323232"/><g opacity="0.5"><path d="M50.69,55.5a.49.49,0,0,1-.35-.15l-2.26-2.26a.5.5,0,0,1,0-.71L66.81,33.65a.51.51,0,0,1,.36-.15.5.5,0,0,1,.35.15l2.26,2.26a.5.5,0,0,1,0,.71L51.05,55.35A.51.51,0,0,1,50.69,55.5Z" fill="#fff"/><path d="M67.17,34l2.26,2.26L50.69,55l-2.26-2.26L67.17,34m0-1a1,1,0,0,0-.71.29L47.72,52a1,1,0,0,0-.29.71,1,1,0,0,0,.29.7L50,55.71a1,1,0,0,0,.71.29,1,1,0,0,0,.71-.29L70.14,37a1,1,0,0,0,0-1.41l-2.27-2.27a1,1,0,0,0-.7-.29Z" fill="#fff"/></g><g opacity="0.5"><path d="M50.69,55.5a.49.49,0,0,1-.35-.15l-2.26-2.26a.5.5,0,0,1,0-.71L66.81,33.65a.51.51,0,0,1,.36-.15.5.5,0,0,1,.35.15l2.26,2.26a.5.5,0,0,1,0,.71L51.05,55.35A.51.51,0,0,1,50.69,55.5Z" fill="#fff"/><path d="M67.17,34l2.26,2.26L50.69,55l-2.26-2.26L67.17,34m0-1a1,1,0,0,0-.71.29L47.72,52a1,1,0,0,0-.29.71,1,1,0,0,0,.29.7L50,55.71a1,1,0,0,0,.71.29,1,1,0,0,0,.71-.29L70.14,37a1,1,0,0,0,0-1.41l-2.27-2.27a1,1,0,0,0-.7-.29Z" fill="#fff"/></g><rect x="45.68" y="42.9" width="26.5" height="3.2" transform="translate(-14.21 54.7) rotate(-45)" fill="url(#a)"/></svg>
