<svg xmlns="http://www.w3.org/2000/svg" xmlns:xlink="http://www.w3.org/1999/xlink" viewBox="0 0 64 64"><defs><style>.OUTLINE-11,.cls-1,.cls-5,.cls-6{stroke:#323232;}.Blue-RIGHT\,-FRONT-\&amp;-SINGLE,.OUTLINE-11,.White-RIGHT-\/-FRONT-23,.cls-1,.cls-30,.cls-5,.cls-6{stroke-linejoin:round;}.cls-1{fill:url(#linear-gradient);}.Blue-RIGHT\,-FRONT-\&amp;-SINGLE{stroke:#003755;fill:url(#linear-gradient-2);}.De-emphasized-GREY-fill{fill:#646464;}.De-emphasized-GREY-Fill-4,.De-emphasized-GREY-fill,.cls-21,.cls-27{opacity:0.5;}.cls-2{fill:url(#linear-gradient-4);}.cls-3{fill:url(#linear-gradient-6);}.cls-4{fill:url(#linear-gradient-8);}.cls-5{fill:url(#linear-gradient-9);}.OUTLINE-11,.cls-30,.cls-6{fill:none;}.cls-6{stroke-width:2px;}.cls-7{fill:url(#linear-gradient-10);}.cls-8{fill:url(#linear-gradient-11);}.cls-9{fill:url(#linear-gradient-12);}.cls-10{fill:url(#linear-gradient-13);}.cls-11{fill:url(#linear-gradient-14);}.cls-12{fill:url(#linear-gradient-15);}.cls-13{fill:url(#linear-gradient-16);}.cls-14{fill:url(#linear-gradient-17);}.cls-15{fill:url(#linear-gradient-18);}.cls-16{fill:url(#linear-gradient-19);}.cls-17{fill:url(#linear-gradient-20);}.cls-18{fill:url(#linear-gradient-21);}.cls-19{fill:url(#linear-gradient-22);}.cls-20{fill:url(#linear-gradient-23);}.cls-22,.cls-25,.cls-26,.cls-27{fill:#fff;}.cls-23{fill:url(#linear-gradient-24);}.cls-24,.cls-25,.cls-28{opacity:0.3;}.De-emphasized-GREY-Fill-4{fill:#646565;}.cls-26{opacity:0.2;}.White-RIGHT-\/-FRONT-23{stroke:#787979;fill:url(#linear-gradient-25);}.cls-28{fill:url(#linear-gradient-26);}.cls-29{fill:url(#linear-gradient-27);}.cls-30{stroke:#053755;}.cls-31{fill:url(#linear-gradient-28);}</style><linearGradient id="linear-gradient" x1="15.51" y1="6.87" x2="39.62" y2="48.63" gradientUnits="userSpaceOnUse"><stop offset="0" stop-color="#fff"/><stop offset="1" stop-color="#d4d5d3"/></linearGradient><linearGradient id="linear-gradient-2" x1="21.23" x2="33.64" y2="21.5" gradientUnits="userSpaceOnUse"><stop offset="0" stop-color="#8cd7f5"/><stop offset="1" stop-color="#376e8c"/></linearGradient><linearGradient id="linear-gradient-4" x1="14.54" y1="18.09" x2="17.62" y2="23.43" gradientUnits="userSpaceOnUse"><stop offset="0" stop-color="#3287af"/><stop offset="1" stop-color="#285a78"/></linearGradient><linearGradient id="linear-gradient-6" x1="14.54" y1="27.09" x2="17.62" y2="32.43" xlink:href="#linear-gradient-4"/><linearGradient id="linear-gradient-8" x1="14.54" y1="36.09" x2="17.62" y2="41.43" xlink:href="#linear-gradient-4"/><linearGradient id="linear-gradient-9" x1="28.49" y1="24.6" x2="40.51" y2="45.4" xlink:href="#linear-gradient"/><linearGradient id="linear-gradient-10" x1="26.32" y1="25.82" x2="27.68" y2="28.18" xlink:href="#linear-gradient-4"/><linearGradient id="linear-gradient-11" x1="26.32" y1="31.82" x2="27.68" y2="34.18" xlink:href="#linear-gradient-4"/><linearGradient id="linear-gradient-12" x1="29.32" y1="35.82" x2="30.68" y2="38.18" xlink:href="#linear-gradient-4"/><linearGradient id="linear-gradient-13" x1="29.32" y1="32.82" x2="30.68" y2="35.18" xlink:href="#linear-gradient-4"/><linearGradient id="linear-gradient-14" x1="29.32" y1="24.82" x2="30.68" y2="27.18" xlink:href="#linear-gradient-4"/><linearGradient id="linear-gradient-15" x1="32.32" y1="37.82" x2="33.68" y2="40.18" xlink:href="#linear-gradient-4"/><linearGradient id="linear-gradient-16" x1="32.32" y1="26.82" x2="33.68" y2="29.18" xlink:href="#linear-gradient-4"/><linearGradient id="linear-gradient-17" x1="35.32" y1="41.82" x2="36.68" y2="44.18" xlink:href="#linear-gradient-4"/><linearGradient id="linear-gradient-18" x1="35.32" y1="29.82" x2="36.68" y2="32.18" xlink:href="#linear-gradient-4"/><linearGradient id="linear-gradient-19" x1="35.32" y1="25.82" x2="36.68" y2="28.18" xlink:href="#linear-gradient-4"/><linearGradient id="linear-gradient-20" x1="38.32" y1="43.82" x2="39.68" y2="46.18" xlink:href="#linear-gradient-4"/><linearGradient id="linear-gradient-21" x1="38.32" y1="34.82" x2="39.68" y2="37.18" xlink:href="#linear-gradient-4"/><linearGradient id="linear-gradient-22" x1="41.32" y1="37.82" x2="42.68" y2="40.18" xlink:href="#linear-gradient-4"/><linearGradient id="linear-gradient-23" x1="41.32" y1="43.82" x2="42.68" y2="46.18" xlink:href="#linear-gradient-4"/><linearGradient id="linear-gradient-24" x1="43.91" y1="47.86" x2="48.05" y2="43.73" gradientUnits="userSpaceOnUse"><stop offset="0.04" stop-color="#a39f9f"/><stop offset="0.2" stop-color="#ddd"/><stop offset="0.4" stop-color="#c6c6c5"/><stop offset="0.68" stop-color="#f5f5f5"/><stop offset="1" stop-color="#bebebe"/></linearGradient><linearGradient id="linear-gradient-25" x1="27.47" y1="22.68" x2="41.47" y2="46.94" gradientUnits="userSpaceOnUse"><stop offset="0" stop-color="#fff"/><stop offset="1" stop-color="#d2d2d2"/></linearGradient><linearGradient id="linear-gradient-26" x1="28.22" y1="23.98" x2="40.72" y2="45.64" gradientUnits="userSpaceOnUse"><stop offset="0"/><stop offset="1" stop-color="#fff"/></linearGradient><linearGradient id="linear-gradient-27" x1="47.27" y1="44.71" x2="54.48" y2="57.19" gradientUnits="userSpaceOnUse"><stop offset="0" stop-color="#8dd7f4"/><stop offset="1" stop-color="#386e8c"/></linearGradient><linearGradient id="linear-gradient-28" x1="47.8" y1="45.62" x2="53.74" y2="55.91" gradientUnits="userSpaceOnUse"><stop offset="0" stop-color="#8dd7f4"/><stop offset="0.26" stop-color="#8bd4f1"/><stop offset="0.44" stop-color="#83cbe8"/><stop offset="0.61" stop-color="#76bbd8"/><stop offset="0.76" stop-color="#64a4c2"/><stop offset="0.9" stop-color="#4d88a6"/><stop offset="1" stop-color="#386e8c"/></linearGradient></defs><g id="it_2" data-name="it 2"><path class="cls-1" d="M7.5,11.5h40a0,0,0,0,1,0,0v32a1,1,0,0,1-1,1H8.5a1,1,0,0,1-1-1v-32A0,0,0,0,1,7.5,11.5Z"/><path class="Blue-RIGHT,-FRONT-&amp;-SINGLE" d="M8.5,7.5h38a1,1,0,0,1,1,1v5a0,0,0,0,1,0,0H7.5a0,0,0,0,1,0,0v-5A1,1,0,0,1,8.5,7.5Z"/><rect class="De-emphasized-GREY-fill" x="33" y="17" width="12" height="1"/><rect class="De-emphasized-GREY-fill" x="33" y="19" width="12" height="1"/><rect class="De-emphasized-GREY-fill" x="33" y="21" width="12" height="1"/><rect class="Blue-RIGHT,-FRONT-&amp;-SINGLE" x="23.5" y="16.5" width="7" height="7" rx="1"/><path class="cls-2" d="M20.2,17.05a.36.36,0,0,1,.19.34v2a.39.39,0,0,1-.19.35l-1.74,1a.29.29,0,0,1-.19.05.36.36,0,0,1-.2-.06l-1.42-.82-1.6.92v1.32l1.68,1a.47.47,0,0,1,.18.19.42.42,0,0,1,.07.24.46.46,0,0,1-.14.34.54.54,0,0,1-.6.07l-1.68-1-1.44.83a.29.29,0,0,1-.19.05.32.32,0,0,1-.2-.07l-1.73-1a.39.39,0,0,1-.19-.35v-2a.36.36,0,0,1,.19-.34l1.73-1a.37.37,0,0,1,.2-.05.36.36,0,0,1,.19.05l1.43.83,1.6-.92V17.39a.36.36,0,0,1,.19-.34l1.73-1a.37.37,0,0,1,.2-.05.36.36,0,0,1,.19.05Zm-6.52,4-.75-.43-.75.43v.86l.75.43.75-.43ZM19,18l-.75-.43-.75.43v.86l.75.43.75-.43Z"/><rect class="De-emphasized-GREY-fill" x="33" y="26" width="12" height="1"/><rect class="De-emphasized-GREY-fill" x="33" y="28" width="12" height="1"/><rect class="De-emphasized-GREY-fill" x="33" y="30" width="12" height="1"/><rect class="Blue-RIGHT,-FRONT-&amp;-SINGLE" x="23.5" y="25.5" width="7" height="7" rx="1"/><path class="cls-3" d="M20.2,26.05a.36.36,0,0,1,.19.34v2a.39.39,0,0,1-.19.35l-1.74,1a.29.29,0,0,1-.19.05.36.36,0,0,1-.2-.06l-1.42-.82-1.6.92v1.32l1.68,1a.47.47,0,0,1,.18.19.42.42,0,0,1,.07.24.46.46,0,0,1-.14.34.54.54,0,0,1-.6.07l-1.68-1-1.44.83a.29.29,0,0,1-.19,0,.32.32,0,0,1-.2-.07l-1.73-1a.39.39,0,0,1-.19-.35v-2a.36.36,0,0,1,.19-.34l1.73-1a.37.37,0,0,1,.2-.05.36.36,0,0,1,.19.05l1.43.83,1.6-.92V26.39a.36.36,0,0,1,.19-.34l1.73-1a.37.37,0,0,1,.2-.05.36.36,0,0,1,.19.05Zm-6.52,4-.75-.43-.75.43v.86l.75.43.75-.43ZM19,27l-.75-.43-.75.43v.86l.75.43.75-.43Z"/><rect class="De-emphasized-GREY-fill" x="33" y="35" width="12" height="1"/><rect class="De-emphasized-GREY-fill" x="33" y="37" width="12" height="1"/><rect class="De-emphasized-GREY-fill" x="33" y="39" width="12" height="1"/><rect class="Blue-RIGHT,-FRONT-&amp;-SINGLE" x="23.5" y="34.5" width="7" height="7" rx="1"/><path class="cls-4" d="M20.2,35.05a.36.36,0,0,1,.19.34v2a.39.39,0,0,1-.19.35l-1.74,1a.29.29,0,0,1-.19.05.36.36,0,0,1-.2-.06l-1.42-.82-1.6.92v1.32l1.68,1a.47.47,0,0,1,.18.19.42.42,0,0,1,.07.24.46.46,0,0,1-.14.34.54.54,0,0,1-.6.07l-1.68-1-1.44.83a.29.29,0,0,1-.19,0,.32.32,0,0,1-.2-.07l-1.73-1a.39.39,0,0,1-.19-.35v-2a.36.36,0,0,1,.19-.34l1.73-1a.37.37,0,0,1,.2,0,.36.36,0,0,1,.19,0l1.43.83,1.6-.92V35.39a.36.36,0,0,1,.19-.34l1.73-1a.37.37,0,0,1,.2,0,.36.36,0,0,1,.19,0Zm-6.52,4-.75-.43-.75.43v.86l.75.43.75-.43ZM19,36l-.75-.43-.75.43v.86l.75.43.75-.43Z"/><circle class="cls-5" cx="34.5" cy="35" r="12.01"/><path class="cls-6" d="M22.69,29.5l5.53.62a7,7,0,0,1,5.39,3.65L36,38.15a7,7,0,0,0,5.57,3.67L45,42"/><rect class="cls-7" x="26" y="26" width="2" height="2"/><rect class="cls-8" x="26" y="32" width="2" height="2"/><rect class="cls-9" x="29" y="36" width="2" height="2"/><rect class="cls-10" x="29" y="33" width="2" height="2"/><rect class="cls-11" x="29" y="25" width="2" height="2"/><rect class="cls-12" x="32" y="38" width="2" height="2"/><rect class="cls-13" x="32" y="27" width="2" height="2"/><rect class="cls-14" x="35" y="42" width="2" height="2"/><rect class="cls-15" x="35" y="30" width="2" height="2"/><rect class="cls-16" x="35" y="26" width="2" height="2"/><rect class="cls-17" x="38" y="44" width="2" height="2"/><rect class="cls-18" x="38" y="35" width="2" height="2"/><rect class="cls-19" x="41" y="38" width="2" height="2"/><rect class="cls-20" x="41" y="44" width="2" height="2"/><g class="cls-21"><path class="cls-22" d="M54.41,57.31a3,3,0,0,1-2.16-.87l-8.14-8.28-1.42-1.42a14.48,14.48,0,1,1,4.11-4.31L48.32,44l8.27,8.13a3.11,3.11,0,0,1,0,4.34,3.08,3.08,0,0,1-2.17.88Zm-19.94-33A10.5,10.5,0,1,0,45,34.81,10.51,10.51,0,0,0,34.47,24.31Z"/><path class="cls-22" d="M34.47,20.81A14,14,0,0,1,46.16,42.5L48,44.31l8.27,8.14a2.62,2.62,0,0,1,0,3.63,2.58,2.58,0,0,1-1.83.73,2.55,2.55,0,0,1-1.81-.73l-8.13-8.27-1.73-1.72a14,14,0,1,1-8.27-25.28m0,25a11,11,0,1,0-11-11,11,11,0,0,0,11,11m0-26a15,15,0,1,0,8.16,27.57l1.13,1.14,8.13,8.27a3.64,3.64,0,0,0,5,0,3.63,3.63,0,0,0,0-5L48.67,43.6l-1.24-1.24a15,15,0,0,0-13-22.55Zm0,25a10,10,0,1,1,10-10,10,10,0,0,1-10,10Z"/></g><path class="cls-23" d="M46,49.31l-3.5-3.5,3.5-3.5,3.5,3.5Z"/><polygon class="cls-24" points="45.97 47.6 43.67 45.31 43.17 45.81 45.97 48.6 48.76 45.81 48.26 45.31 45.97 47.6"/><polygon class="cls-25" points="45.97 44.02 48.26 46.31 48.76 45.81 45.97 43.02 43.17 45.81 43.67 46.31 45.97 44.02"/><path class="De-emphasized-GREY-Fill-4" d="M46.8,43.85,46,43l-2.8,2.79L44.33,47A16.8,16.8,0,0,0,46.8,43.85Z"/><circle class="cls-26" cx="34.47" cy="34.81" r="12.5"/><path class="White-RIGHT-/-FRONT-23" d="M34.47,20.81a14,14,0,1,0,14,14A14,14,0,0,0,34.47,20.81Zm0,25a11,11,0,1,1,11-11A11,11,0,0,1,34.47,45.81Z"/><path class="cls-25" d="M42,36.17h0a1.82,1.82,0,0,0-2.08.91,6.55,6.55,0,0,1-2.69,2.68,1.81,1.81,0,0,0-.9,2.09h0A1.83,1.83,0,0,0,39,43a10.25,10.25,0,0,0,4.17-4.16A1.84,1.84,0,0,0,42,36.17Z"/><path class="cls-27" d="M25,35H28.6a6.54,6.54,0,0,1,6.55-6.54V24.81A10.18,10.18,0,0,0,25,35Z"/><path class="cls-28" d="M34.47,22.31A12.5,12.5,0,1,0,47,34.81,12.5,12.5,0,0,0,34.47,22.31Zm0,24A11.5,11.5,0,1,1,46,34.81,11.51,11.51,0,0,1,34.47,46.31Z"/><path class="OUTLINE-11" d="M49.47,45.81,46.16,42.5a14.06,14.06,0,1,0-3.42,3.59L46,49.31Z"/><path class="cls-29" d="M56.24,52.45,48,44.31l-3.5,3.5,8.13,8.27a2.57,2.57,0,1,0,3.64-3.63Z"/><path class="cls-30" d="M56.24,52.45,48,44.31l-3.5,3.5,8.13,8.27a2.57,2.57,0,1,0,3.64-3.63Z"/><path class="cls-24" d="M55.88,54.72a2,2,0,0,1-1.46.59h0A2.06,2.06,0,0,1,53,54.73l-7.29-7.41-.5.49L53,55.73a2.06,2.06,0,0,0,1.45.58h0a2,2,0,0,0,1.46-.59,2,2,0,0,0,.52-2A2,2,0,0,1,55.88,54.72Z"/><path class="cls-25" d="M48,46l7.92,7.78a2,2,0,0,1,.51,1,2,2,0,0,0-.51-2L48,45l-2.8,2.79.5.51Z"/><path class="cls-31" d="M55,53.31l-2-2-5.5-5.5L46,47.31l7.5,7.5c.54.55.57.5,1,.5a.94.94,0,0,0,1-1A1.63,1.63,0,0,0,55,53.31Z"/></g></svg>