<svg xmlns="http://www.w3.org/2000/svg" xmlns:xlink="http://www.w3.org/1999/xlink" viewBox="0 0 64 64"><defs><style>.cls-1{isolation:isolate;}.cls-2,.cls-3{fill:#003755;}.cls-3,.cls-6,.cls-8{stroke:#003755;}.cls-12,.cls-13,.cls-14,.cls-3,.cls-6{stroke-miterlimit:10;}.cls-4{fill:#f1f0f0;}.cls-10,.cls-11,.cls-5{fill:#fff;}.cls-6,.cls-8{stroke-width:0.25px;}.cls-6{fill:url(#linear-gradient);}.cls-7{fill:url(#linear-gradient-2);}.cls-8{stroke-linecap:round;stroke-linejoin:round;fill:url(#linear-gradient-3);}.cls-9{fill:#285977;}.cls-10{filter:url(#DS_GaussianBlur_2);}.cls-11{filter:url(#DS_GaussianBlur_4);}.cls-12,.cls-13,.cls-14{stroke:#285977;stroke-width:1.24px;}.cls-12{fill:url(#linear-gradient-4);}.cls-13{fill:url(#linear-gradient-5);}.cls-14{fill:none;}.cls-15{fill:url(#linear-gradient-6);}.cls-16{fill:url(#Medium_BLUE_gradient_FRONT);}.cls-17,.cls-18{mix-blend-mode:color-burn;}.cls-17{fill:url(#Medium_BLUE_gradient_FRONT-2);}.cls-18{fill:url(#Medium_BLUE_gradient_FRONT-3);}.cls-19{fill:url(#linear-gradient-7);}.cls-20{fill:url(#linear-gradient-8);}.cls-21{fill:url(#linear-gradient-9);}</style><linearGradient id="linear-gradient" x1="6.1" y1="38.62" x2="28.5" y2="33.86" gradientTransform="translate(-5.45 1.96) rotate(-8.98)" gradientUnits="userSpaceOnUse"><stop offset="0.05" stop-color="#fff"/><stop offset="0.07" stop-color="#fff"/><stop offset="0.09" stop-color="#fefefe"/><stop offset="0.18" stop-color="#f6f6f6"/><stop offset="0.3" stop-color="#e0e0e0"/><stop offset="0.37" stop-color="#d2d2d2"/><stop offset="0.4" stop-color="#d8d8d8"/><stop offset="0.51" stop-color="#eee"/><stop offset="0.63" stop-color="#fbfbfb"/><stop offset="0.73" stop-color="#fff"/><stop offset="0.96" stop-color="#d2d2d2"/></linearGradient><linearGradient id="linear-gradient-2" x1="34.1" y1="0.08" x2="54.88" y2="0.85" gradientTransform="matrix(0.9, -0.44, -0.44, -0.9, 2.26, 56.86)" gradientUnits="userSpaceOnUse"><stop offset="0" stop-color="#fff"/><stop offset="0.21" stop-color="#d2d2d2"/><stop offset="0.53" stop-color="#fff"/></linearGradient><linearGradient id="linear-gradient-3" x1="33.51" y1="7.11" x2="54.62" y2="7.9" xlink:href="#linear-gradient-2"/><filter id="DS_GaussianBlur_2" x="-50" y="-50" width="200" height="200" name="DS_GaussianBlur_2"><feGaussianBlur stdDeviation="1"/></filter><filter id="DS_GaussianBlur_4" x="-50" y="-50" width="400" height="400" name="DS_GaussianBlur_4"><feGaussianBlur stdDeviation="2"/></filter><linearGradient id="linear-gradient-4" x1="41.26" y1="46.27" x2="48.83" y2="53.33" gradientTransform="translate(-27.61 -1.25) rotate(-24.46)" gradientUnits="userSpaceOnUse"><stop offset="0" stop-color="#fff"/><stop offset="0.21" stop-color="#fff"/><stop offset="0.69" stop-color="#aadcfa"/></linearGradient><linearGradient id="linear-gradient-5" x1="54.72" y1="38.45" x2="62.29" y2="45.51" xlink:href="#linear-gradient-4"/><linearGradient id="linear-gradient-6" x1="41.54" y1="45.03" x2="51.91" y2="44.88" gradientUnits="userSpaceOnUse"><stop offset="0" stop-color="#d4eff5"/><stop offset="0.32" stop-color="#e9f7fa"/><stop offset="1" stop-color="#a9dfec"/></linearGradient><linearGradient id="Medium_BLUE_gradient_FRONT" x1="38.71" y1="50.1" x2="55.54" y2="50.1" gradientUnits="userSpaceOnUse"><stop offset="0" stop-color="#8cd7f5"/><stop offset="1" stop-color="#376e8c"/></linearGradient><linearGradient id="Medium_BLUE_gradient_FRONT-2" x1="38.75" y1="53.95" x2="55.56" y2="53.95" xlink:href="#Medium_BLUE_gradient_FRONT"/><linearGradient id="Medium_BLUE_gradient_FRONT-3" x1="41.88" y1="48.89" x2="52.64" y2="48.89" xlink:href="#Medium_BLUE_gradient_FRONT"/><linearGradient id="linear-gradient-7" x1="44.35" y1="43.96" x2="46.78" y2="44.26" gradientUnits="userSpaceOnUse"><stop offset="0" stop-color="#fff"/><stop offset="1" stop-color="#e9f7fa"/></linearGradient><linearGradient id="linear-gradient-8" x1="42.25" y1="47.44" x2="46.42" y2="48.64" gradientUnits="userSpaceOnUse"><stop offset="0.34" stop-color="#a0e1fa"/><stop offset="0.34" stop-color="#98dcf6"/><stop offset="0.36" stop-color="#87d1ec"/><stop offset="0.37" stop-color="#7cc9e6"/><stop offset="0.4" stop-color="#75c4e2"/><stop offset="0.47" stop-color="#73c3e1"/></linearGradient><linearGradient id="linear-gradient-9" x1="44.78" y1="31.84" x2="49.41" y2="31.77" gradientUnits="userSpaceOnUse"><stop offset="0" stop-color="#bee7f1"/><stop offset="0.32" stop-color="#e9f7fa"/><stop offset="1" stop-color="#94d6e7"/></linearGradient></defs><title>ddd__A33AAe__R21XArtboard 1</title><g class="cls-1"><g id="SUPPORTS_copy_3" data-name="SUPPORTS copy 3"><g id="_64_1X_copy_3" data-name="64    1X copy 3"><g id="livre_ok_copy_3" data-name="livre ok copy 3"><path class="cls-2" d="M30,41.32c.48.94.66,3-.22,3.37L7.57,53.09c-.89.38-1.59-.2-1.57-1.3l.34-17.33A2.81,2.81,0,0,1,8,31.93l13-4.26a2.24,2.24,0,0,1,2.53,1.17Z"/><path class="cls-2" d="M30,41.32c.48.94.66,3-.22,3.37L7.57,53.09c-.89.38-1.59-.2-1.57-1.3l.34-17.33A2.81,2.81,0,0,1,8,31.93l13-4.26a2.24,2.24,0,0,1,2.53,1.17Z"/><path class="cls-2" d="M30.69,41.36a3.57,3.57,0,0,0,2.77,2.2l23.79-2.2c.94-.07,1.13-.72.43-1.45L46,27.86a4.9,4.9,0,0,0-3-1.34l-15.44-.11c-.94,0-1.44.83-1.11,1.86Z"/><path class="cls-2" d="M30.69,41.36a3.57,3.57,0,0,0,2.77,2.2l23.79-2.2c.94-.07,1.13-.72.43-1.45L46,27.86a4.9,4.9,0,0,0-3-1.34l-15.44-.11c-.94,0-1.44.83-1.11,1.86Z"/><path class="cls-3" d="M34.48,41.22a2.11,2.11,0,0,1-.56,2.69l-.25.17a4.36,4.36,0,0,1-3.14.57l-.21-.06a3.68,3.68,0,0,1-2.21-2.34L24.28,29c-.3-1,.09-2,.87-2.08a2.68,2.68,0,0,1,2.34,1.49Z"/><path class="cls-4" d="M31.91,42.11,9.26,51.68s1.29-2.88,2-4.4C19.76,44.47,23.47,37,27.7,37.08c3.41,0,3.79,2.34,3.79,2.34Z"/><path class="cls-4" d="M31.91,42.11l24.42-1.77s-2.17-2.32-3-3.26c-8.84,1.77-15.45-3-18.29-2-2.39.75-3.58,4.32-3.58,4.32Z"/><polygon class="cls-5" points="9.55 47.34 6.97 52.29 6.93 44.7 6.97 32.26 7.96 30.87 9.55 47.34"/><path class="cls-6" d="M31.28,39.55s-2.9-5.22-7.88-1.6c-8.93,8.53-13.58,9.59-13.58,9.59s-.93-9-1.87-17.17c5.75-1.46,6.32-5,11.64-5.76,3.79-.56,5,1.77,5,1.77Z"/><path class="cls-7" d="M31.41,39.09c1.31-3.3,2.5-4.07,4-4.3,2-.33,4.4,1.25,7.48,1.81a58.5,58.5,0,0,0,10.94.32"/><path class="cls-2" d="M30.94,38.91A12.14,12.14,0,0,1,32.43,36a4.66,4.66,0,0,1,1.26-1.2,4.14,4.14,0,0,1,1.67-.59,7.18,7.18,0,0,1,3.28.53c1,.34,2,.72,2.92,1a24.67,24.67,0,0,0,6,.74c2,.06,4.12,0,6.17-.09h0a.49.49,0,0,1,.52.47.5.5,0,0,1-.47.53h0c-2.09.11-4.17.15-6.26.09a26.9,26.9,0,0,1-6.28-.76c-1-.28-2-.66-3-1a6.32,6.32,0,0,0-2.8-.46c-1.89.14-2.85,2.14-3.64,4h0a.5.5,0,0,1-.93-.38Z"/><path class="cls-8" d="M42.38,23.92s-5-1-11.74-1.74a6.18,6.18,0,0,0-6.19,3.75S28,32.18,31.28,39.55c3.14-7.89,6.29-3.91,11.58-2.95a58.5,58.5,0,0,0,10.94.32Z"/><g id="g2"><path class="cls-9" d="M8.17,51.68l1-.36c.3-.13,2-.83,2.51-1.08s2.84-1.45,3.45-1.81a41.12,41.12,0,0,0,3.76-2.52c.61-.47,1.22-.95,1.81-1.45,4.53-3.79,4.63-3.6,5.26-3.8A2.64,2.64,0,0,1,29.06,42a1.36,1.36,0,0,0-.12-.18,1.68,1.68,0,0,0-.59-.47,3,3,0,0,0-2.54-.22,25.17,25.17,0,0,0-3.12,2.31c-.57.47-3,2.38-3.63,2.83a36.94,36.94,0,0,1-3.83,2.43c-.32.18-3,1.49-3.52,1.7s-2.24.87-2.55,1l-1,.32s0,0,0,0S8.15,51.68,8.17,51.68Z"/><path class="cls-9" d="M22.62,41.47a9.28,9.28,0,0,1,1.08-1.12,6,6,0,0,1,1.46-1,3.12,3.12,0,0,1,.84-.25,2.54,2.54,0,0,1,.87,0A2.65,2.65,0,0,1,29,40.52c-.53-.74-2.4-1.16-3.7-.75a5.19,5.19,0,0,0-1.42.83,10.36,10.36,0,0,0-1.12,1,12.28,12.28,0,0,0-1,1.14A15.16,15.16,0,0,1,22.62,41.47Z"/><path class="cls-9" d="M39.71,37.62s-2.05-.36-2.18-.36a4.2,4.2,0,0,0-3.26,1,13.93,13.93,0,0,0-2,3,9.14,9.14,0,0,1,1.87-3.48,3.7,3.7,0,0,1,3.45-.91A6.32,6.32,0,0,1,39.71,37.62Z"/><path class="cls-9" d="M53.66,39.66l-.86.22a39.12,39.12,0,0,1-5.57.63c-1.2,0-2.49-.08-3.77-.21l-1.9-.23c-.62-.09-3.62-.84-5-.39a8.72,8.72,0,0,0-2.74,1.73,5,5,0,0,1,2.64-2.17,4.45,4.45,0,0,1,1.6-.17,15.42,15.42,0,0,1,1.74.16c1.19.19,2.45.44,3.72.62a32.48,32.48,0,0,0,3.72.33c.6,0,5.28-.35,5.56-.39l.87-.18Z"/></g></g><g id="ADN_copy_6" data-name="ADN copy 6"><path class="cls-10" d="M18.34,28.59a10.51,10.51,0,0,1-1.18.92,5.9,5.9,0,0,1,2,2.3l-5.25,0a9,9,0,0,1,2.22-2.33l2.19-1.83c2.05-1.68,4.21-3.92,4.23-6.79S21,16.28,18.77,14.58c-.3.33-1,.64-1.25.92.74.56,1.15.5,1.75,1.5H14.11c.55-1,4.28-3.36,4.28-3.36,2-1.56,4-2.64,4.2-5.64H21.1c-.05,1-.23,1-.51,1H12.87c-.27,0-.45,0-.5-1H10.89c.15,3,2.18,4.23,4.12,5.77.16-.13,1-.76,1.17-.87a11.59,11.59,0,0,1-2.66-2.5l6.42,0c-.7,1-5,4.08-5,4.08-2.17,1.65-4.14,3.44-4.16,6.23s2,5,4.13,6.71c.17-.14.9-.43,1.09-.58-.84-.71-1.6-.87-2.21-1.87h5.67c-1.07,1-4.5,3.73-4.5,3.73C13,30.33,10.9,33,10.73,35H12.3c.07-1,.62-2,1-2h6.57a4.24,4.24,0,0,1,.86,2h1.58C22.14,33,20.37,30.25,18.34,28.59Zm-4.9-9.9H20a5.08,5.08,0,0,1,.75,1.87H12.53A4.38,4.38,0,0,1,13.44,18.69Zm-.22,4.78c-.44-.47-.75-.47-.89-1.47H20.9a3.33,3.33,0,0,1-.58,1.47Z"/><path d="M18.34,28.59a10.51,10.51,0,0,1-1.18.92,5.9,5.9,0,0,1,2,2.3l-5.25,0a9,9,0,0,1,2.22-2.33l2.19-1.83c2.05-1.68,4.21-3.92,4.23-6.79S21,16.28,18.77,14.58c-.3.33-1,.64-1.25.92.74.56,1.15.5,1.75,1.5H14.11c.55-1,4.28-3.36,4.28-3.36,2-1.56,4-2.64,4.2-5.64H21.1c-.05,1-.23,1-.51,1H12.87c-.27,0-.45,0-.5-1H10.89c.15,3,2.18,4.23,4.12,5.77.16-.13,1-.76,1.17-.87a11.59,11.59,0,0,1-2.66-2.5l6.42,0c-.7,1-5,4.08-5,4.08-2.17,1.65-4.14,3.44-4.16,6.23s2,5,4.13,6.71c.17-.14.9-.43,1.09-.58-.84-.71-1.6-.87-2.21-1.87h5.67c-1.07,1-4.5,3.73-4.5,3.73C13,30.33,10.9,33,10.73,35H12.3c.07-1,.62-2,1-2h6.57a4.24,4.24,0,0,1,.86,2h1.58C22.14,33,20.37,30.25,18.34,28.59Zm-4.9-9.9H20a5.08,5.08,0,0,1,.75,1.87H12.53A4.38,4.38,0,0,1,13.44,18.69Zm-.22,4.78c-.44-.47-.75-.47-.89-1.47H20.9a3.33,3.33,0,0,1-.58,1.47Z"/></g><g id="mollecule_copy_5" data-name="mollecule  ** copy 5"><path class="cls-11" d="M40.63,7.6,37.11,12l2.33,5.08-2.77,3.42-5-.19-3.54,4.37,2.59,5.71,5.51.29,3.26-4,6.06.53.06-1.11-6-.53-2-4.46,2.76-3.41,5,.19,3.58-4.39L46.3,7.79Z"/><path class="cls-11" d="M40.63,7.6,37.11,12l2.33,5.08-2.77,3.42-5-.19-3.54,4.37,2.59,5.71,5.51.29,3.26-4,6.06.53.06-1.11-6-.53-2-4.46,2.76-3.41,5,.19,3.58-4.39L46.3,7.79Z"/><polygon id="aaaa" class="cls-12" points="31.09 29.82 28.78 24.74 31.93 20.85 36.92 21.04 39.24 26.12 35.97 30.07 31.09 29.82"/><polygon id="aaaa-2" data-name="aaaa" class="cls-13" points="40.09 17.13 37.8 12.06 40.89 8.17 45.93 8.34 48.25 13.43 45.06 17.33 40.09 17.13"/><polyline class="cls-14" points="45.58 26.66 39.24 26.12 36.93 21.04 40.09 17.13 37.8 12.06"/><path d="M40.63,7.6,37.11,12l2.33,5.08-2.77,3.42-5-.19-3.54,4.37,2.59,5.71,5.51.29,3.26-4,6.06.53.06-1.11-6-.53-2-4.46,2.76-3.41,5,.19,3.58-4.39L46.3,7.79ZM38.58,26,35.72,29.5l-4.26-.22-2-4.46,2.76-3.4,4.36.16Zm9-12.7L44.8,16.76l-4.33-.17-2-4.49,2.7-3.36,4.42.15Z"/></g><g id="ok_copy_5" data-name="ok   *** copy 5"><path class="cls-15" d="M43.44,33v8.4s-7.2,10.8-7.19,13.2S43.54,57,47,57s10.82,0,10.8-2.4-7.2-13.2-7.2-13.2V33Z"/><path class="cls-16" d="M51,44.66c1.79,2.79,4.58,7.13,4.58,8.47,0,2-5.09,2.4-7.95,2.4s-8.88.23-8.88-2.4c0-1.21,2.24-4.89,3.95-7.6a8.79,8.79,0,0,1,2.77-.76c1.11,0,2.88.76,3.74.76C49.79,45.53,50.39,45,51,44.66Z"/><path class="cls-17" d="M51,52.25c1.64,2.56,4.6-.29,4.6,1,0,1.8-5.52,2.46-8.15,2.46s-8.66,0-8.66-2.46c0-1.12,2.18,2.34,3.74-.15a12.16,12.16,0,0,1,2.94-.7c1,0,2.65.7,3.43.7A5.88,5.88,0,0,0,51,52.25Z"/><path class="cls-18" d="M50.69,44.86a20.62,20.62,0,0,1,2,7.74c0,1.8-3.92-3.92-6.12-3.92s-3.83,2-3.83-.4c0-1.12-1.61-.26-.3-2.75a9.37,9.37,0,0,1,2.46-.69c.85,0,3.42.82,4.08.82A4.64,4.64,0,0,0,50.69,44.86Z"/><polygon class="cls-19" points="46.77 34.97 46.77 41.97 45.87 53.44 39.73 52.57 45.01 42.01 45.01 34.97 46.77 34.97"/><path class="cls-20" d="M45,45c-.34-.4-.49.06-.77.14l-3.55,7.67a2.71,2.71,0,0,1,1.74.46,4.06,4.06,0,0,0,2.6.16l1.08-10.64C45.7,42.59,45.54,45.57,45,45Z"/><path class="cls-9" d="M49.44,34.17v7.56l.2.31c3.37,5,7,11.27,7,12.49-.25.46-1.83,1.24-9.57,1.24H47c-7.72,0-9.3-.77-9.55-1.19,0-1.31,3.64-7.53,7-12.54l.2-.31V34.17h4.8m1.2-1.2h-7.2v8.4s-7.16,10.71-7.19,13.2S43.49,57,47,57h.08c3.52,0,10.76,0,10.76-2.4s-7.2-13.2-7.2-13.2V33Z"/><path class="cls-5" d="M42.36,33.57c-.23,0-.6-.57-.6-1.24s.33-1.16.6-1.16H52c.27,0,.6.53.6,1.16s-.37,1.24-.6,1.24Z"/><path class="cls-9" d="M51.82,31.77a1.16,1.16,0,0,1,.14.56,1.26,1.26,0,0,1-.17.64H42.53a1.37,1.37,0,0,1-.17-.64,1,1,0,0,1,.15-.56h9.31m.14-1.2h-9.6c-.7,0-1.2.88-1.2,1.76s.5,1.84,1.2,1.84H52c.7,0,1.2-1,1.2-1.84s-.5-1.76-1.2-1.76Z"/><path class="cls-9" d="M52,31.45a1.13,1.13,0,0,1,.33.88,1.45,1.45,0,0,1-.32,1H42.4a1.32,1.32,0,0,1-.36-1,1.18,1.18,0,0,1,.32-.88H52m0-.88h-9.6c-.7,0-1.2.88-1.2,1.76s.5,1.84,1.2,1.84H52c.7,0,1.2-1,1.2-1.84s-.5-1.76-1.2-1.76Z"/><polygon class="cls-21" points="52 32.25 51.63 31.36 42.6 31.36 42.36 32.25 52 32.25"/></g></g></g></g></svg>