<svg id="IT_1" data-name="IT 1" xmlns="http://www.w3.org/2000/svg" xmlns:xlink="http://www.w3.org/1999/xlink" viewBox="0 0 64 64"><defs><style>.Grey-LIGHT,.White-RIGHT-\&amp;-FRONT,.cls-1,.cls-12,.cls-13,.cls-2,.cls-7{stroke:#787878;}.Blue-RIGHT\,-FRONT-\&amp;-SINGLE,.Blue-RIGHT\,-FRONT-\&amp;-SINGLE-2,.De-emphasized-WHITE-for-Vector-Highlights-8,.Grey-LIGHT,.White-OUTLINE,.White-RIGHT-\&amp;-FRONT,.cls-1,.cls-13,.cls-15,.cls-2,.cls-7{stroke-linejoin:round;}.White-RIGHT-\&amp;-FRONT{fill:url(#linear-gradient);}.cls-1{fill:url(#Dégradé_sans_nom_2);}.De-emphasized-GREY-fill{fill:#646464;}.De-emphasized-GREY-fill,.De-emphasized-WHITE-for-Vector-Highlights-8{opacity:0.5;}.cls-2{fill:url(#Dégradé_sans_nom_2-2);}.cls-3{fill:#42a2da;}.cls-4{fill:#57b847;}.cls-5{fill:#00b8de;}.cls-11,.cls-16,.cls-6{opacity:0.3;}.cls-6{fill:url(#Dégradé_sans_nom_9);}.cls-7{fill:url(#Dégradé_sans_nom_2-3);}.White-OUTLINE,.cls-10,.cls-8,.cls-9{fill:none;}.cls-8{stroke:#77797c;}.cls-10,.cls-12,.cls-8,.cls-9{stroke-miterlimit:10;}.cls-9{stroke:#42a2da;}.cls-10{stroke:url(#linear-gradient-4);}.cls-11{fill:url(#Dégradé_sans_nom_9-2);}.cls-12{fill:url(#linear-gradient-5);}.cls-13{fill:url(#linear-gradient-6);}.De-emphasized-WHITE-for-Vector-Highlights-8,.cls-14{fill:#fff;}.cls-14{opacity:0.4;}.Grey-LIGHT{fill:url(#linear-gradient-7);}.White-OUTLINE,.cls-15{stroke:#323232;}.cls-15{fill:url(#linear-gradient-11);}.Blue-RIGHT\,-FRONT-\&amp;-SINGLE,.Blue-RIGHT\,-FRONT-\&amp;-SINGLE-2{stroke:#003755;}.Blue-RIGHT\,-FRONT-\&amp;-SINGLE{fill:url(#linear-gradient-12);}.De-emphasized-WHITE-for-Vector-Highlights-8{stroke:#fff;stroke-width:3px;}.Blue-RIGHT\,-FRONT-\&amp;-SINGLE-2{fill:url(#linear-gradient-13);}.cls-17{fill:url(#Blanc_Noir);}.cls-18{fill:url(#Dégradé_sans_nom_17);}</style><linearGradient id="linear-gradient" x1="10.24" y1="7.07" x2="25.38" y2="33.3" gradientUnits="userSpaceOnUse"><stop offset="0" stop-color="#fff"/><stop offset="1" stop-color="#d2d2d2"/></linearGradient><linearGradient id="Dégradé_sans_nom_2" x1="23.35" y1="12.78" x2="25.32" y2="10.69" gradientUnits="userSpaceOnUse"><stop offset="0" stop-color="#f5f5f5"/><stop offset="0.3" stop-color="#f2f2f2"/><stop offset="0.55" stop-color="#e8e8e8"/><stop offset="0.78" stop-color="#d7d7d7"/><stop offset="0.99" stop-color="#bfbfbf"/><stop offset="1" stop-color="#bebebe"/></linearGradient><linearGradient id="Dégradé_sans_nom_2-2" x1="28.35" y1="15.78" x2="30.32" y2="13.69" xlink:href="#Dégradé_sans_nom_2"/><linearGradient id="Dégradé_sans_nom_9" x1="14.42" y1="10.6" x2="12.68" y2="28.22" gradientUnits="userSpaceOnUse"><stop offset="0"/><stop offset="1" stop-opacity="0"/></linearGradient><linearGradient id="Dégradé_sans_nom_2-3" x1="33.35" y1="18.78" x2="35.32" y2="16.69" xlink:href="#Dégradé_sans_nom_2"/><linearGradient id="linear-gradient-4" x1="28.31" y1="29.5" x2="30.66" y2="33.57" gradientUnits="userSpaceOnUse"><stop offset="0" stop-color="#3287af"/><stop offset="1" stop-color="#285a78"/></linearGradient><linearGradient id="Dégradé_sans_nom_9-2" x1="19.42" y1="13.6" x2="17.68" y2="31.22" xlink:href="#Dégradé_sans_nom_9"/><linearGradient id="linear-gradient-5" x1="48.5" y1="8.04" x2="52.5" y2="14.96" gradientUnits="userSpaceOnUse"><stop offset="0" stop-color="#aaa"/><stop offset="1" stop-color="#5a5a5a"/></linearGradient><linearGradient id="linear-gradient-6" x1="46.62" y1="16.81" x2="53.71" y2="29.09" xlink:href="#linear-gradient-5"/><linearGradient id="linear-gradient-7" x1="41.5" y1="9.04" x2="45.5" y2="15.96" gradientUnits="userSpaceOnUse"><stop offset="0" stop-color="#d7d7d7"/><stop offset="1" stop-color="#969696"/></linearGradient><linearGradient id="linear-gradient-11" x1="14.69" y1="29.74" x2="32.31" y2="60.26" gradientUnits="userSpaceOnUse"><stop offset="0" stop-color="#fff"/><stop offset="1" stop-color="#d4d5d3"/></linearGradient><linearGradient id="linear-gradient-12" x1="18.66" y1="25.48" x2="28.21" y2="42.02" gradientUnits="userSpaceOnUse"><stop offset="0" stop-color="#8cd7f5"/><stop offset="1" stop-color="#376e8c"/></linearGradient><linearGradient id="linear-gradient-13" x1="39.79" y1="35.24" x2="52.21" y2="56.76" xlink:href="#linear-gradient-12"/><linearGradient id="Blanc_Noir" x1="40.06" y1="35.71" x2="51.94" y2="56.29" gradientUnits="userSpaceOnUse"><stop offset="0" stop-color="#fff"/><stop offset="1"/></linearGradient><linearGradient id="Dégradé_sans_nom_17" x1="43" y1="40.8" x2="49" y2="51.2" gradientUnits="userSpaceOnUse"><stop offset="0" stop-color="#376e8c"/><stop offset="1" stop-color="#8cd7f5"/></linearGradient></defs><polygon class="White-RIGHT-&amp;-FRONT" points="28.5 31.5 9.5 31.5 9.5 7.5 23 7.5 28.5 13 28.5 31.5"/><polygon class="cls-1" points="22.5 7.5 22.5 13.53 28.5 13.5 28.5 13 23 7.5 22.5 7.5"/><rect class="De-emphasized-GREY-fill" x="12" y="10" width="9" height="1"/><rect class="De-emphasized-GREY-fill" x="12" y="12" width="9" height="1"/><rect class="De-emphasized-GREY-fill" x="12" y="14" width="9" height="1"/><rect class="De-emphasized-GREY-fill" x="12" y="16" width="14" height="1"/><rect class="De-emphasized-GREY-fill" x="12" y="18" width="14" height="1"/><rect class="De-emphasized-GREY-fill" x="12" y="20" width="14" height="1"/><rect class="De-emphasized-GREY-fill" x="12" y="22" width="14" height="1"/><rect class="De-emphasized-GREY-fill" x="12" y="24" width="14" height="1"/><rect class="De-emphasized-GREY-fill" x="12" y="26" width="14" height="1"/><rect class="De-emphasized-GREY-fill" x="12" y="28" width="14" height="1"/><polygon class="White-RIGHT-&amp;-FRONT" points="33.5 34.5 14.5 34.5 14.5 10.5 28 10.5 33.5 16 33.5 34.5"/><polygon class="cls-2" points="27.5 10.5 27.5 16.53 33.5 16.5 33.5 16 28 10.5 27.5 10.5"/><rect class="cls-3" x="16" y="19" width="6" height="5"/><circle class="cls-4" cx="29.5" cy="21.5" r="2.5"/><rect class="cls-5" x="27.73" y="27.73" width="3.54" height="3.54" transform="translate(-12.22 29.5) rotate(-45)"/><rect class="De-emphasized-GREY-fill" x="23" y="21" width="1" height="1"/><rect class="De-emphasized-GREY-fill" x="25" y="21" width="1" height="1"/><rect class="De-emphasized-GREY-fill" x="29" y="25" width="1" height="1"/><polygon class="cls-6" points="14 10 14 30 11 30 14 10"/><polygon class="White-RIGHT-&amp;-FRONT" points="38.5 37.5 19.5 37.5 19.5 13.5 33 13.5 38.5 19 38.5 37.5"/><polygon class="cls-7" points="32.5 13.5 32.5 19.53 38.5 19.5 38.5 19 33 13.5 32.5 13.5"/><polygon class="De-emphasized-GREY-fill" points="22 35 22 21 21 21 21 35 21 36 37 36 37 35 22 35"/><polyline class="cls-8" points="22.5 25.58 24.5 23.5 28.5 29.5 36.5 25"/><polyline class="cls-9" points="22.36 29.5 27.5 25.5 32 29.83 36.5 27.5"/><polyline class="cls-10" points="22.5 33.42 28.5 31.5 31.5 32.5 36.5 29.5"/><polygon class="cls-11" points="19 13 19 33 16 33 19 13"/><rect class="De-emphasized-GREY-fill" x="10" y="30" width="28" height="3"/><circle class="cls-12" cx="50.5" cy="11.5" r="4"/><path class="cls-13" d="M56.5,26.91a1,1,0,0,1-.65.93,15.62,15.62,0,0,1-5.35.66,15.62,15.62,0,0,1-5.35-.66,1,1,0,0,1-.65-.93V21.5a6,6,0,0,1,12,0Z"/><path class="cls-14" d="M51,17c1,0,3,1,3,4v6c-.17.22.76.22,1,0V21A3.79,3.79,0,0,0,51,17Z"/><ellipse class="cls-14" cx="52.13" cy="10.13" rx="0.71" ry="1.43" transform="translate(8.11 39.83) rotate(-45)"/><circle class="Grey-LIGHT" cx="43.5" cy="12.5" r="4"/><path class="Grey-LIGHT" d="M49.5,27.91a1,1,0,0,1-.65.93,15.62,15.62,0,0,1-5.35.66,15.62,15.62,0,0,1-5.35-.66,1,1,0,0,1-.65-.93V22.5a6,6,0,0,1,12,0Z"/><path class="cls-14" d="M44,18c1,0,3,1,3,4v6c-.17.22.76.22,1,0V22A3.79,3.79,0,0,0,44,18Z"/><ellipse class="cls-14" cx="45.13" cy="11.13" rx="0.71" ry="1.43" transform="translate(5.35 35.17) rotate(-45)"/><circle class="White-RIGHT-&amp;-FRONT" cx="47.5" cy="16.5" r="4"/><path class="White-RIGHT-&amp;-FRONT" d="M53.5,31.91a1,1,0,0,1-.65.93,15.62,15.62,0,0,1-5.35.66,15.62,15.62,0,0,1-5.35-.66,1,1,0,0,1-.65-.93V26.5a6,6,0,0,1,12,0Z"/><path class="cls-14" d="M48,22c1,0,3,1,3,4v6c-.17.22.76.22,1,0V26A3.79,3.79,0,0,0,48,22Z"/><ellipse class="cls-14" cx="49.13" cy="15.13" rx="0.71" ry="1.43" transform="translate(3.69 39.17) rotate(-45)"/><path class="White-OUTLINE" d="M51.38,15.57a1.42,1.42,0,0,0-.05-.16,4,4,0,1,0-4.59-5.24A4,4,0,1,0,43.5,16.5a6,6,0,0,0-5,2.69V19L33,13.5H31l-3-3H26l-3-3H9.5v24h5v3h5v3h19V29a13.37,13.37,0,0,0,3,.48v2.47a1,1,0,0,0,.65.93,15.62,15.62,0,0,0,5.35.66,15.62,15.62,0,0,0,5.35-.66,1,1,0,0,0,.65-.93V28.35a9.74,9.74,0,0,0,2.35-.51,1,1,0,0,0,.65-.93V21.5A6,6,0,0,0,51.38,15.57Z"/><rect class="cls-15" x="7.5" y="33.5" width="32" height="23" rx="0.94"/><path class="Blue-RIGHT,-FRONT-&amp;-SINGLE" d="M8.5,31.5h30a1,1,0,0,1,1,1v3a0,0,0,0,1,0,0H7.5a0,0,0,0,1,0,0v-3A1,1,0,0,1,8.5,31.5Z"/><path class="cls-4" d="M15.47,38a.54.54,0,0,1,.53.53.51.51,0,0,1-.16.38l-3.76,3.75-1.92-1.92a.49.49,0,0,1-.16-.37.53.53,0,0,1,.53-.53.52.52,0,0,1,.37.16l1.18,1.18,3-3A.53.53,0,0,1,15.47,38Z"/><rect class="De-emphasized-GREY-fill" x="18" y="39" width="19" height="2"/><path class="cls-4" d="M15.47,44a.54.54,0,0,1,.53.53.51.51,0,0,1-.16.38l-3.76,3.75-1.92-1.92a.49.49,0,0,1-.16-.37.53.53,0,0,1,.53-.53.52.52,0,0,1,.37.16l1.18,1.18,3-3A.53.53,0,0,1,15.47,44Z"/><rect class="De-emphasized-GREY-fill" x="18" y="45" width="19" height="2"/><path class="cls-4" d="M15.47,50a.54.54,0,0,1,.53.53.51.51,0,0,1-.16.38l-3.76,3.75-1.92-1.92a.49.49,0,0,1-.16-.37.53.53,0,0,1,.53-.53.52.52,0,0,1,.37.16l1.18,1.18,3-3A.53.53,0,0,1,15.47,50Z"/><rect class="De-emphasized-GREY-fill" x="18" y="51" width="19" height="2"/><path class="De-emphasized-WHITE-for-Vector-Highlights-8" d="M54.55,50.62a2.45,2.45,0,0,0,.74,1.78l.86.87a12.3,12.3,0,0,1-2.88,2.88l-.87-.86a2.43,2.43,0,0,0-1.78-.74A2.55,2.55,0,0,0,48,57.1v1.22a11.65,11.65,0,0,1-4.08,0V57.1a2.54,2.54,0,0,0-2.58-2.55,2.43,2.43,0,0,0-1.78.74l-.87.86a12.3,12.3,0,0,1-2.88-2.88l.86-.87a2.45,2.45,0,0,0,.74-1.78A2.54,2.54,0,0,0,34.9,48H33.68a11.65,11.65,0,0,1,0-4.08H34.9a2.54,2.54,0,0,0,2.55-2.58,2.45,2.45,0,0,0-.74-1.78l-.86-.87a12.3,12.3,0,0,1,2.88-2.88l.87.86a2.43,2.43,0,0,0,1.78.74A2.54,2.54,0,0,0,44,34.9V33.68a11.65,11.65,0,0,1,4.08,0V34.9a2.53,2.53,0,0,0,2.58,2.55,2.49,2.49,0,0,0,1.78-.71l.87-.89a12.3,12.3,0,0,1,2.88,2.88l-.86.87a2.45,2.45,0,0,0-.74,1.78A2.55,2.55,0,0,0,57.1,44h1.22a11.65,11.65,0,0,1,0,4.08H57.1A2.54,2.54,0,0,0,54.55,50.62ZM46,50.5A4.5,4.5,0,1,0,41.5,46,4.52,4.52,0,0,0,46,50.5Z"/><path class="Blue-RIGHT,-FRONT-&amp;-SINGLE-2" d="M54.55,50.62a2.45,2.45,0,0,0,.74,1.78l.86.87a12.3,12.3,0,0,1-2.88,2.88l-.87-.86a2.43,2.43,0,0,0-1.78-.74A2.55,2.55,0,0,0,48,57.1v1.22a11.65,11.65,0,0,1-4.08,0V57.1a2.54,2.54,0,0,0-2.58-2.55,2.43,2.43,0,0,0-1.78.74l-.87.86a12.3,12.3,0,0,1-2.88-2.88l.86-.87a2.45,2.45,0,0,0,.74-1.78A2.54,2.54,0,0,0,34.9,48H33.68a11.65,11.65,0,0,1,0-4.08H34.9a2.54,2.54,0,0,0,2.55-2.58,2.45,2.45,0,0,0-.74-1.78l-.86-.87a12.3,12.3,0,0,1,2.88-2.88l.87.86a2.43,2.43,0,0,0,1.78.74A2.54,2.54,0,0,0,44,34.9V33.68a11.65,11.65,0,0,1,4.08,0V34.9a2.53,2.53,0,0,0,2.58,2.55,2.49,2.49,0,0,0,1.78-.71l.87-.89a12.3,12.3,0,0,1,2.88,2.88l-.86.87a2.45,2.45,0,0,0-.74,1.78A2.55,2.55,0,0,0,57.1,44h1.22a11.65,11.65,0,0,1,0,4.08H57.1A2.54,2.54,0,0,0,54.55,50.62ZM46,50.5A4.5,4.5,0,1,0,41.5,46,4.52,4.52,0,0,0,46,50.5Z"/><g class="cls-16"><path class="cls-17" d="M57.89,44.46H57.1a3,3,0,0,1-3.05-3.08,3,3,0,0,1,.88-2.14l.57-.56a11.79,11.79,0,0,0-2.18-2.17l-.56.58a3,3,0,0,1-2.14.86,3,3,0,0,1-3.08-3.05v-.79a13.22,13.22,0,0,0-3.08,0v.79A3,3,0,0,1,41.38,38a3,3,0,0,1-2.14-.88l-.56-.56a11.49,11.49,0,0,0-2.18,2.17l.57.56A3,3,0,0,1,38,41.38a3,3,0,0,1-3.05,3.08h-.79a10.84,10.84,0,0,0,0,3.08h.79A3,3,0,0,1,38,50.62a3,3,0,0,1-.88,2.14l-.57.56a11.84,11.84,0,0,0,2.18,2.18l.56-.57a3,3,0,0,1,2.14-.88,3,3,0,0,1,3.08,3.05v.79a13.22,13.22,0,0,0,3.08,0V57.1a3,3,0,0,1,3.08-3.05,3,3,0,0,1,2.14.88l.56.57a11.84,11.84,0,0,0,2.18-2.18l-.57-.56a3,3,0,0,1-.88-2.14,3,3,0,0,1,3.05-3.08h.79a10.83,10.83,0,0,0,0-3.08ZM57,46.54a4,4,0,0,0-3.93,4.08,3.93,3.93,0,0,0,1.09,2.76,9.08,9.08,0,0,1-.76.76,3.93,3.93,0,0,0-2.76-1.09A4,4,0,0,0,46.54,57H45.46a4,4,0,0,0-4.08-3.92,3.93,3.93,0,0,0-2.76,1.09,9.08,9.08,0,0,1-.76-.76A3.93,3.93,0,0,0,39,50.62,4,4,0,0,0,35,46.54c0-.19,0-.37,0-.54s0-.35,0-.54A4,4,0,0,0,39,41.38a3.93,3.93,0,0,0-1.09-2.76,9.08,9.08,0,0,1,.76-.76A3.93,3.93,0,0,0,41.38,39,4,4,0,0,0,45.46,35h1.08A4,4,0,0,0,50.62,39a4,4,0,0,0,2.77-1.08,8.85,8.85,0,0,1,.75.75,3.93,3.93,0,0,0-1.09,2.76A4,4,0,0,0,57,45.46c0,.19,0,.37,0,.54S57,46.35,57,46.54Z"/></g><path class="cls-18" d="M46,40a6,6,0,1,0,6,6A6,6,0,0,0,46,40Zm0,11a5,5,0,1,1,5-5A5,5,0,0,1,46,51Z"/></svg>