<svg id="Layer_64_copy_2" data-name="Layer 64 copy 2" xmlns="http://www.w3.org/2000/svg" xmlns:xlink="http://www.w3.org/1999/xlink" viewBox="0 0 64 64"><defs><style>.cls-1,.cls-25{fill:#fff;}.cls-2{fill:#285977;}.cls-3{filter:url(#TEST_GaussianBlur_2);}.cls-4{fill:#aadcfa;}.cls-5{fill:#f1f0f0;}.cls-6{fill:url(#linear-gradient);}.cls-7{fill:#00415f;}.cls-8{fill:url(#linear-gradient-2);}.cls-9{fill:url(#radial-gradient);}.cls-10{fill:#003654;}.cls-11{fill:url(#radial-gradient-2);}.cls-12{fill:url(#radial-gradient-3);}.cls-13{fill:url(#radial-gradient-4);}.cls-14{fill:url(#linear-gradient-5);}.cls-15{fill:none;stroke:#323232;stroke-linecap:round;stroke-miterlimit:10;stroke-width:0.75px;}.cls-16{fill:url(#radial-gradient-5);}.cls-17{fill:url(#radial-gradient-6);}.cls-18{fill:url(#radial-gradient-7);}.cls-19{fill:url(#radial-gradient-8);}.cls-20{fill:url(#radial-gradient-9);}.cls-21{fill:url(#radial-gradient-10);}.cls-22{fill:url(#radial-gradient-11);}.cls-23{fill:url(#linear-gradient-6);}.cls-24{fill:#323232;}.cls-25{opacity:0.3;}.cls-26{fill:url(#linear-gradient-8);}.cls-27{fill:url(#linear-gradient-10);}</style><filter id="TEST_GaussianBlur_2" x="-50" y="-50" width="200" height="200" name="TEST_GaussianBlur_2"><feGaussianBlur stdDeviation="1"/></filter><linearGradient id="linear-gradient" x1="-8.92" y1="71.19" x2="0.31" y2="83.21" gradientTransform="translate(-40.24 8.76) rotate(-90)" gradientUnits="userSpaceOnUse"><stop offset="0" stop-color="#92d5ee"/><stop offset="0.6" stop-color="#599bb4"/><stop offset="1" stop-color="#32738c"/></linearGradient><linearGradient id="linear-gradient-2" x1="-8.92" y1="82.19" x2="0.31" y2="94.21" xlink:href="#linear-gradient"/><radialGradient id="radial-gradient" cx="29.48" cy="21.21" r="1.85" gradientTransform="translate(0.04 0)" gradientUnits="userSpaceOnUse"><stop offset="0" stop-color="#fff"/><stop offset="0.71" stop-color="#5a9ab8"/></radialGradient><radialGradient id="radial-gradient-2" cx="36.49" cy="21.21" r="1.85" xlink:href="#radial-gradient"/><radialGradient id="radial-gradient-3" cx="43.49" cy="21.21" r="1.85" xlink:href="#radial-gradient"/><radialGradient id="radial-gradient-4" cx="53.5" cy="21.21" r="1.85" xlink:href="#radial-gradient"/><linearGradient id="linear-gradient-5" x1="17.59" y1="14.47" x2="41.66" y2="45.81" gradientTransform="translate(12.72 -5.71) rotate(45)" xlink:href="#linear-gradient"/><radialGradient id="radial-gradient-5" cx="47.25" cy="40.17" r="1.54" gradientTransform="matrix(0.56, -0.54, 0.55, 0.55, -1.42, 36.89)" gradientUnits="userSpaceOnUse"><stop offset="0.07" stop-color="#fff"/><stop offset="0.52" stop-color="#82bddb"/></radialGradient><radialGradient id="radial-gradient-6" cx="38.13" cy="31.19" r="1.54" xlink:href="#radial-gradient-5"/><radialGradient id="radial-gradient-7" cx="29.64" cy="26.21" r="1.54" gradientTransform="matrix(0.56, -0.54, 0.55, 0.55, -1.97, 37.01)" xlink:href="#radial-gradient-5"/><radialGradient id="radial-gradient-8" cx="57.14" cy="31.8" r="1.6" gradientTransform="matrix(-0.56, 0.54, -0.56, -0.56, 81.61, 27.36)" xlink:href="#radial-gradient-5"/><radialGradient id="radial-gradient-9" cx="48.92" cy="21.9" r="1.6" gradientTransform="matrix(-0.56, 0.54, -0.56, -0.56, 81.53, 27.29)" xlink:href="#radial-gradient-5"/><radialGradient id="radial-gradient-10" cx="41.34" cy="17.82" r="1.6" gradientTransform="matrix(-0.56, 0.54, -0.56, -0.56, 82.05, 27.13)" xlink:href="#radial-gradient-5"/><radialGradient id="radial-gradient-11" cx="34.97" cy="13.35" r="1.6" gradientTransform="matrix(-0.56, 0.54, -0.56, -0.56, 82.01, 27.09)" xlink:href="#radial-gradient-5"/><linearGradient id="linear-gradient-6" x1="25.91" y1="28.99" x2="37.6" y2="49.23" gradientUnits="userSpaceOnUse"><stop offset="0" stop-color="#aaa"/><stop offset="1" stop-color="#5a5a5a"/></linearGradient><linearGradient id="linear-gradient-8" x1="11.57" y1="30.21" x2="23.73" y2="51.28" gradientUnits="userSpaceOnUse"><stop offset="0" stop-color="#d7d7d7"/><stop offset="1" stop-color="#969696"/></linearGradient><linearGradient id="linear-gradient-10" x1="18.5" y1="32.74" x2="31.09" y2="54.55" gradientUnits="userSpaceOnUse"><stop offset="0" stop-color="#fff"/><stop offset="1" stop-color="#d4d5d3"/></linearGradient></defs><title>ddd__A33AAe__R21XArtboard 1</title><rect class="cls-1" x="5.5" y="11.5" width="53" height="34"/><path class="cls-2" d="M58,12V45H6V12H58m1-1H5V46H59V11Z"/><g class="cls-3"><rect class="cls-4" x="25" y="14" width="32" height="13"/></g><rect class="cls-5" x="5.5" y="29.5" width="53" height="16"/><path class="cls-2" d="M58,30V45H6V30H58m1-1H5V46H59V29Z"/><rect class="cls-1" x="5.5" y="11.5" width="17" height="34"/><path class="cls-2" d="M22,12V45H6V12H22m1-1H5V46H23V11Z"/><g id="a1"><rect class="cls-6" x="29.5" y="15.5" width="6" height="2" rx="0.5"/><path class="cls-7" d="M35,16v1H30V16h5m0-1H30a1,1,0,0,0-1,1v1a1,1,0,0,0,1,1h5a1,1,0,0,0,1-1V16a1,1,0,0,0-1-1Z"/><rect class="cls-7" x="37" y="16" width="2" height="1"/><rect class="cls-8" x="40.5" y="15.5" width="6" height="2" rx="0.5"/><path class="cls-7" d="M46,16v1H41V16h5m0-1H41a1,1,0,0,0-1,1v1a1,1,0,0,0,1,1h5a1,1,0,0,0,1-1V16a1,1,0,0,0-1-1Z"/><polygon class="cls-7" points="56 16 49 16 49 17 56 17 56 16 56 16"/><rect class="cls-7" x="25" y="16" width="2" height="1"/></g><g id="a2"><rect class="cls-6" x="29.5" y="15.5" width="6" height="2" rx="0.5"/><path class="cls-7" d="M35,16v1H30V16h5m0-1H30a1,1,0,0,0-1,1v1a1,1,0,0,0,1,1h5a1,1,0,0,0,1-1V16a1,1,0,0,0-1-1Z"/><rect class="cls-7" x="37" y="16" width="2" height="1"/><rect class="cls-8" x="40.5" y="15.5" width="6" height="2" rx="0.5"/><path class="cls-7" d="M46,16v1H41V16h5m0-1H41a1,1,0,0,0-1,1v1a1,1,0,0,0,1,1h5a1,1,0,0,0,1-1V16a1,1,0,0,0-1-1Z"/><polygon class="cls-7" points="56 16 49 16 49 17 56 17 56 16 56 16"/><rect class="cls-7" x="25" y="16" width="2" height="1"/></g><g id="S1"><path class="cls-9" d="M30,23.84A1.84,1.84,0,1,1,31.84,22,1.84,1.84,0,0,1,30,23.84Z"/><path class="cls-10" d="M30,20.31A1.69,1.69,0,1,1,28.31,22,1.69,1.69,0,0,1,30,20.31M30,20a2,2,0,1,0,2,2,2,2,0,0,0-2-2Z"/></g><g id="S1-2" data-name="S1"><path class="cls-11" d="M37,23.84A1.84,1.84,0,1,1,38.84,22,1.84,1.84,0,0,1,37,23.84Z"/><path class="cls-10" d="M37,20.31A1.69,1.69,0,1,1,35.31,22,1.69,1.69,0,0,1,37,20.31M37,20a2,2,0,1,0,2,2,2,2,0,0,0-2-2Z"/></g><g id="S1-3" data-name="S1"><path class="cls-12" d="M44,23.84A1.84,1.84,0,1,1,45.84,22,1.84,1.84,0,0,1,44,23.84Z"/><path class="cls-10" d="M44,20.31A1.69,1.69,0,1,1,42.31,22,1.69,1.69,0,0,1,44,20.31M44,20a2,2,0,1,0,2,2,2,2,0,0,0-2-2Z"/></g><g id="S1-4" data-name="S1"><path class="cls-13" d="M54,23.84A1.84,1.84,0,1,1,55.84,22,1.84,1.84,0,0,1,54,23.84Z"/><path class="cls-10" d="M54,20.31A1.69,1.69,0,1,1,52.31,22,1.69,1.69,0,0,1,54,20.31M54,20a2,2,0,1,0,2,2,2,2,0,0,0-2-2Z"/></g><rect class="cls-7" x="25" y="22" width="2" height="1"/><rect class="cls-7" x="33" y="22" width="1" height="1"/><rect class="cls-7" x="40" y="22" width="1" height="1"/><rect class="cls-7" x="47" y="22" width="4" height="1"/><path class="cls-14" d="M8,28.5a.5.5,0,0,1-.5-.5V26a.47.47,0,0,1,.15-.35l3.85-3.86V16a.47.47,0,0,1,.15-.35l1-1a.48.48,0,0,1,.7,0l1,1a.47.47,0,0,1,.15.35v5.39l4.4-.88H19a.47.47,0,0,1,.35.15l1,1a.48.48,0,0,1,0,.7l-1,1a.4.4,0,0,1-.27.14l-5.84,1L9.35,28.35A.47.47,0,0,1,9,28.5Z"/><path class="cls-7" d="M13,15l1,1v6l5-1,1,1-1,1-6,1L9,28H8V26l4-4V16l1-1m0-1a1,1,0,0,0-.71.29l-1,1A1,1,0,0,0,11,16v5.59l-3.71,3.7A1,1,0,0,0,7,26v2a1,1,0,0,0,1,1H9a1,1,0,0,0,.71-.29l3.77-3.78L19.16,24a1.11,1.11,0,0,0,.55-.28l1-1a1,1,0,0,0,0-1.42l-1-1A1,1,0,0,0,19,20l-.2,0-3.8.76V16a1,1,0,0,0-.29-.71l-1-1A1,1,0,0,0,13,14Z"/><path class="cls-15" d="M25.3,34.56A12.94,12.94,0,0,1,27,34c3.93-1.63,7.5,2.09,14.46,2.09A17.59,17.59,0,0,0,53.64,32.5"/><g id="S1_5" data-name="S1  5"><path class="cls-16" d="M47.5,34.7a1.07,1.07,0,0,1-.53-.13,1.2,1.2,0,0,1-.67-1.08A1.18,1.18,0,0,1,47,32.42a1.1,1.1,0,0,1,.51-.12,1.07,1.07,0,0,1,.53.13,1.2,1.2,0,0,1,.67,1.08A1.18,1.18,0,0,1,48,34.58,1.1,1.1,0,0,1,47.5,34.7Z"/><path class="cls-10" d="M47.5,32.6a.86.86,0,0,1,.39.09.92.92,0,0,1,.51.82.9.9,0,0,1-.52.8.85.85,0,0,1-.38.09.86.86,0,0,1-.39-.09.92.92,0,0,1-.51-.82.9.9,0,0,1,.52-.8.85.85,0,0,1,.38-.09m0-.6a1.47,1.47,0,0,0-.65.15,1.49,1.49,0,0,0,0,2.69,1.44,1.44,0,0,0,.67.16,1.47,1.47,0,0,0,.65-.15,1.49,1.49,0,0,0,0-2.69A1.44,1.44,0,0,0,47.5,32Z"/></g><g id="S1_5-2" data-name="S1  5"><path class="cls-17" d="M37.5,34.7a1.07,1.07,0,0,1-.53-.13,1.2,1.2,0,0,1-.67-1.08A1.18,1.18,0,0,1,37,32.42a1.1,1.1,0,0,1,.51-.12,1.07,1.07,0,0,1,.53.13,1.2,1.2,0,0,1,.67,1.08A1.18,1.18,0,0,1,38,34.58,1.1,1.1,0,0,1,37.5,34.7Z"/><path class="cls-10" d="M37.5,32.6a.86.86,0,0,1,.39.09.92.92,0,0,1,.51.82.9.9,0,0,1-.52.8.85.85,0,0,1-.38.09.86.86,0,0,1-.39-.09.92.92,0,0,1-.51-.82.9.9,0,0,1,.52-.8.85.85,0,0,1,.38-.09m0-.6a1.47,1.47,0,0,0-.65.15,1.49,1.49,0,0,0,0,2.69,1.44,1.44,0,0,0,.67.16,1.47,1.47,0,0,0,.65-.15,1.49,1.49,0,0,0,0-2.69A1.44,1.44,0,0,0,37.5,32Z"/></g><g id="S1_5-3" data-name="S1  5"><path class="cls-18" d="M29.5,36.7a1.07,1.07,0,0,1-.53-.13,1.2,1.2,0,0,1-.67-1.08A1.19,1.19,0,0,1,29,34.42a1.1,1.1,0,0,1,.51-.12,1.07,1.07,0,0,1,.53.13,1.2,1.2,0,0,1,.67,1.08A1.18,1.18,0,0,1,30,36.58,1.1,1.1,0,0,1,29.5,36.7Z"/><path class="cls-10" d="M29.5,34.6a.86.86,0,0,1,.39.09.92.92,0,0,1,.51.82.9.9,0,0,1-.52.8.85.85,0,0,1-.38.09.86.86,0,0,1-.39-.09.92.92,0,0,1-.51-.82.9.9,0,0,1,.52-.8.85.85,0,0,1,.38-.09m0-.6a1.47,1.47,0,0,0-.65.15,1.49,1.49,0,0,0,0,2.69,1.44,1.44,0,0,0,.67.16,1.47,1.47,0,0,0,.65-.15,1.49,1.49,0,0,0,0-2.69A1.44,1.44,0,0,0,29.5,34Z"/></g><path class="cls-15" d="M53.64,40.44A12.94,12.94,0,0,1,51.9,41C48,42.66,44,39,37,39a16.47,16.47,0,0,0-11.7,3.5"/><g id="S1_5-4" data-name="S1  5"><path class="cls-19" d="M31.5,41.75a1.31,1.31,0,0,1-.55-.13,1.26,1.26,0,0,1-.7-1.13A1.25,1.25,0,0,1,31,39.37a1.18,1.18,0,0,1,.53-.12,1.31,1.31,0,0,1,.55.13,1.25,1.25,0,0,1,0,2.25A1.18,1.18,0,0,1,31.5,41.75Z"/><path class="cls-10" d="M31.5,39.5h0a1.13,1.13,0,0,1,.44.1,1,1,0,0,1,.56.91,1,1,0,0,1-.58.89.87.87,0,0,1-.42.1,1.13,1.13,0,0,1-.44-.1,1,1,0,0,1-.56-.91,1,1,0,0,1,.58-.89.87.87,0,0,1,.42-.1m0-.5a1.47,1.47,0,0,0-.65.15,1.49,1.49,0,0,0,0,2.69,1.44,1.44,0,0,0,.67.16,1.47,1.47,0,0,0,.65-.15,1.49,1.49,0,0,0,0-2.69A1.44,1.44,0,0,0,31.5,39Z"/></g><g id="S1_5-5" data-name="S1  5"><path class="cls-20" d="M41.5,42.75a1.31,1.31,0,0,1-.55-.13,1.26,1.26,0,0,1-.7-1.13A1.25,1.25,0,0,1,41,40.37a1.18,1.18,0,0,1,.53-.12,1.31,1.31,0,0,1,.55.13,1.25,1.25,0,0,1,0,2.25A1.18,1.18,0,0,1,41.5,42.75Z"/><path class="cls-10" d="M41.5,40.5a1.13,1.13,0,0,1,.44.1,1,1,0,0,1,.56.91,1,1,0,0,1-.58.89.87.87,0,0,1-.42.1,1.13,1.13,0,0,1-.44-.1,1,1,0,0,1-.56-.91,1,1,0,0,1,.58-.89.87.87,0,0,1,.42-.1m0-.5a1.47,1.47,0,0,0-.65.15,1.49,1.49,0,0,0,0,2.69,1.44,1.44,0,0,0,.67.16,1.47,1.47,0,0,0,.65-.15,1.49,1.49,0,0,0,0-2.69A1.44,1.44,0,0,0,41.5,40Z"/></g><g id="S1_5-6" data-name="S1  5"><path class="cls-21" d="M48.5,40.75a1.31,1.31,0,0,1-.55-.13,1.26,1.26,0,0,1-.7-1.13A1.25,1.25,0,0,1,48,38.37a1.18,1.18,0,0,1,.53-.12,1.31,1.31,0,0,1,.55.13,1.25,1.25,0,0,1,0,2.25A1.18,1.18,0,0,1,48.5,40.75Z"/><path class="cls-10" d="M48.5,38.5h0a1.13,1.13,0,0,1,.44.1,1,1,0,0,1,.56.91,1,1,0,0,1-.58.89.87.87,0,0,1-.42.1,1.13,1.13,0,0,1-.44-.1,1,1,0,0,1-.56-.91,1,1,0,0,1,.58-.89.87.87,0,0,1,.42-.1m0-.5a1.47,1.47,0,0,0-.65.15,1.49,1.49,0,0,0,0,2.69,1.44,1.44,0,0,0,.67.16,1.47,1.47,0,0,0,.65-.15,1.49,1.49,0,0,0,0-2.69A1.44,1.44,0,0,0,48.5,38Z"/></g><g id="S1_5-7" data-name="S1  5"><path class="cls-22" d="M54.5,39.75a1.31,1.31,0,0,1-.55-.13,1.26,1.26,0,0,1-.7-1.13A1.25,1.25,0,0,1,54,37.37a1.18,1.18,0,0,1,.53-.12,1.31,1.31,0,0,1,.55.13,1.25,1.25,0,0,1,0,2.25A1.18,1.18,0,0,1,54.5,39.75Z"/><path class="cls-10" d="M54.5,37.5h0a1.13,1.13,0,0,1,.44.1,1,1,0,0,1,.56.91,1,1,0,0,1-.58.89.87.87,0,0,1-.42.1,1.13,1.13,0,0,1-.44-.1,1,1,0,0,1-.56-.91,1,1,0,0,1,.58-.89.87.87,0,0,1,.42-.1m0-.5a1.47,1.47,0,0,0-.65.15,1.49,1.49,0,0,0,0,2.69,1.44,1.44,0,0,0,.67.16,1.47,1.47,0,0,0,.65-.15,1.49,1.49,0,0,0,0-2.69A1.44,1.44,0,0,0,54.5,37Z"/></g><g id="ok"><circle class="cls-23" cx="32.63" cy="30.87" r="4.98"/><path class="cls-23" d="M32,35.85a5.68,5.68,0,0,0-6,6v7c0,1,6,1,6,1s6,0,6-1v-7A5.68,5.68,0,0,0,32,35.85Z"/><path class="cls-24" d="M32.63,26.88a4,4,0,1,1-4,4,4,4,0,0,1,4-4m0-1a5,5,0,1,0,5,5,5,5,0,0,0-5-5Z"/><path class="cls-24" d="M32,36.85a4.68,4.68,0,0,1,5,5v6.54a22.93,22.93,0,0,1-5,.44,23.21,23.21,0,0,1-5-.44V41.84a4.68,4.68,0,0,1,5-5m0-1a5.68,5.68,0,0,0-6,6v7c0,1,6,1,6,1s6,0,6-1v-7a5.68,5.68,0,0,0-6-6Z"/><path class="cls-25" d="M36,48V41.81c0-2-2-4-3-4,0,0,2,2,2,4V48Z"/><path class="cls-25" d="M34.58,29.15c.36.74.47,1.44.22,1.56s-.75-.37-1.12-1.11-.47-1.44-.22-1.56S34.21,28.41,34.58,29.15Z"/><circle class="cls-26" cx="18.68" cy="31.87" r="4.98"/><path class="cls-26" d="M18.5,36.85c-3.85,0-7.5,2.68-7.5,6v7c0,1,7.5,1,7.5,1s7.5,0,7.5-1v-7C26,39.53,22.35,36.85,18.5,36.85Z"/><path class="cls-24" d="M18.68,27.88a4,4,0,1,1-4,4,4,4,0,0,1,4-4m0-1a5,5,0,1,0,5,5,5,5,0,0,0-5-5Z"/><path class="cls-24" d="M18.5,37.85c3.4,0,6.5,2.38,6.5,5v6.5a34.72,34.72,0,0,1-6.5.48,34.72,34.72,0,0,1-6.5-.48v-6.5c0-2.6,3.1-5,6.5-5m0-1c-3.85,0-7.5,2.68-7.5,6v7c0,1,7.5,1,7.5,1s7.5,0,7.5-1v-7c0-3.3-3.65-6-7.5-6Z"/><path class="cls-25" d="M24,48V42.83c0-2-2-4-3-4,0,0,2,2,2,4V48Z"/><path class="cls-25" d="M20.62,30.15c.37.74.47,1.44.22,1.56s-.74-.38-1.11-1.12-.47-1.43-.23-1.56S20.25,29.41,20.62,30.15Z"/><circle class="cls-27" cx="25.85" cy="34.54" r="5.23"/><path class="cls-27" d="M25.5,39.77a7.79,7.79,0,0,0-7.43,7.28v6.27c0,1,7.43,1,7.43,1s7.43,0,7.43-1V47.05A7.78,7.78,0,0,0,25.5,39.77Z"/><circle class="cls-25" cx="25.85" cy="34.54" r="5.23"/><path class="cls-24" d="M25.85,30.36a4.18,4.18,0,1,1-4.19,4.18,4.18,4.18,0,0,1,4.19-4.18m0-1.05a5.23,5.23,0,1,0,5.23,5.23,5.24,5.24,0,0,0-5.23-5.23Z"/><path class="cls-24" d="M25.5,40.82a6.73,6.73,0,0,1,6.38,6.23v5.78a32.65,32.65,0,0,1-6.38.49,32.73,32.73,0,0,1-6.38-.49V47.05a6.74,6.74,0,0,1,6.38-6.23m0-1a7.79,7.79,0,0,0-7.43,7.28v6.27c0,1,7.43,1,7.43,1s7.43,0,7.43-1V47.05a7.78,7.78,0,0,0-7.43-7.28Z"/><path class="cls-25" d="M30.81,52.25V48.12c0-2-2.08-5.1-3.08-5.1,0,0,1.9,3.11,1.9,5.1v4.13Z"/><path class="cls-25" d="M27.78,33.14c.37.74.47,1.44.22,1.56s-.74-.38-1.11-1.11-.47-1.44-.22-1.57S27.41,32.4,27.78,33.14Z"/></g></svg>