<?xml version="1.0" encoding="UTF-8"?><svg id="OK" xmlns="http://www.w3.org/2000/svg" xmlns:xlink="http://www.w3.org/1999/xlink" viewBox="0 0 64 64"><defs><style>.cls-1{fill:#797979;}.cls-2{fill:url(#radial-gradient-7);}.cls-3{fill:url(#radial-gradient-10);}.cls-4{stroke:#003654;}.cls-4,.cls-5,.cls-6,.cls-7{fill:none;}.cls-4,.cls-5,.cls-7{stroke-miterlimit:10;stroke-width:2px;}.cls-8{fill:#003654;}.cls-9{fill:url(#radial-gradient-31);}.cls-5{stroke-linecap:round;}.cls-5,.cls-7{stroke:#797979;}.cls-10{fill:url(#radial-gradient-28);}.cls-11{fill:url(#radial-gradient-16);}.cls-12{fill:url(#radial-gradient-20);}.cls-13{fill:url(#radial-gradient-21);}.cls-14{fill:url(#radial-gradient-8);}.cls-15{fill:url(#radial-gradient-5);}.cls-16{fill:url(#radial-gradient-4);}.cls-17{fill:url(#radial-gradient-32);}.cls-18{fill:url(#radial-gradient-25);}.cls-19{fill:url(#radial-gradient-26);}.cls-20{fill:url(#radial-gradient-22);}.cls-21{fill:url(#radial-gradient-6);}.cls-22{fill:url(#radial-gradient-19);}.cls-23{fill:url(#radial-gradient-12);}.cls-24{fill:url(#radial-gradient);}.cls-25{fill:url(#radial-gradient-27);}.cls-26{fill:url(#radial-gradient-13);}.cls-27{fill:url(#radial-gradient-30);}.cls-28{fill:url(#radial-gradient-24);}.cls-29{fill:url(#radial-gradient-15);}.cls-30{fill:url(#radial-gradient-2);}.cls-31{fill:url(#radial-gradient-3);}.cls-32{fill:url(#radial-gradient-17);}.cls-33{fill:url(#radial-gradient-33);}.cls-34{fill:url(#radial-gradient-14);}.cls-35{fill:url(#radial-gradient-29);}.cls-36{fill:url(#radial-gradient-23);}.cls-37{fill:url(#radial-gradient-11);}.cls-38{fill:url(#radial-gradient-18);}.cls-39{fill:url(#radial-gradient-9);}</style><radialGradient id="radial-gradient" cx="11.81" cy="49.78" fx="11.81" fy="49.78" r="2.5" gradientTransform="matrix(1, 0, 0, 1, 0, 0)" gradientUnits="userSpaceOnUse"><stop offset="0" stop-color="#fff"/><stop offset="1" stop-color="#e1e1e1"/></radialGradient><radialGradient id="radial-gradient-2" cx="48.81" cy="54.78" fx="48.81" fy="54.78" xlink:href="#radial-gradient"/><radialGradient id="radial-gradient-3" cx="39.81" cy="47.78" fx="39.81" fy="47.78" xlink:href="#radial-gradient"/><radialGradient id="radial-gradient-4" cx="31.81" cy="54.78" fx="31.81" fy="54.78" r="2.5" xlink:href="#radial-gradient"/><radialGradient id="radial-gradient-5" cx="20.81" cy="51.78" fx="20.81" fy="51.78" r="2.5" xlink:href="#radial-gradient"/><radialGradient id="radial-gradient-6" cx="23.81" cy="43.78" fx="23.81" fy="43.78" xlink:href="#radial-gradient"/><radialGradient id="radial-gradient-7" cx="24.49" cy="18.87" fx="24.49" fy="18.87" r="2.5" xlink:href="#radial-gradient"/><radialGradient id="radial-gradient-8" cx="51.81" cy="11.78" fx="51.81" fy="11.78" xlink:href="#radial-gradient"/><radialGradient id="radial-gradient-9" cx="31.81" cy="14.78" fx="31.81" fy="14.78" r="2.5" xlink:href="#radial-gradient"/><radialGradient id="radial-gradient-10" cx="28.16" cy="11.72" fx="28.16" fy="11.72" r=".42" xlink:href="#radial-gradient"/><radialGradient id="radial-gradient-11" cx="41.81" cy="10.78" fx="41.81" fy="10.78" r="2.5" xlink:href="#radial-gradient"/><radialGradient id="radial-gradient-12" cx="31.81" cy="6.78" fx="31.81" fy="6.78" r="2.5" xlink:href="#radial-gradient"/><radialGradient id="radial-gradient-13" cx="55.81" cy="42.78" fx="55.81" fy="42.78" r="2.5" xlink:href="#radial-gradient"/><radialGradient id="radial-gradient-14" cx="55.81" cy="25.78" fx="55.81" fy="25.78" r="2.5" xlink:href="#radial-gradient"/><radialGradient id="radial-gradient-15" cx="46.81" cy="19.78" fx="46.81" fy="19.78" r="2.5" xlink:href="#radial-gradient"/><radialGradient id="radial-gradient-16" cx="7.81" cy="34.78" fx="7.81" fy="34.78" r="2.5" xlink:href="#radial-gradient"/><radialGradient id="radial-gradient-17" cx="7.81" cy="25.78" fx="7.81" fy="25.78" r="2.5" xlink:href="#radial-gradient"/><radialGradient id="radial-gradient-18" cx="9.81" cy="13.78" fx="9.81" fy="13.78" r="2.5" xlink:href="#radial-gradient"/><radialGradient id="radial-gradient-19" cx="14.81" cy="39.78" fx="14.81" fy="39.78" r="2.5" xlink:href="#radial-gradient"/><radialGradient id="radial-gradient-20" cx="15.81" cy="21.78" fx="15.81" fy="21.78" r="2.5" xlink:href="#radial-gradient"/><radialGradient id="radial-gradient-21" cx="23.79" cy="34.76" fx="23.79" fy="34.76" r="2.55" gradientTransform="matrix(1, 0, 0, 1, 0, 0)" gradientUnits="userSpaceOnUse"><stop offset=".07" stop-color="#fff"/><stop offset=".52" stop-color="#82bddb"/></radialGradient><radialGradient id="radial-gradient-22" cx="39.79" fx="39.79" xlink:href="#radial-gradient-21"/><radialGradient id="radial-gradient-23" cy="26.76" fy="26.76" xlink:href="#radial-gradient-21"/><radialGradient id="radial-gradient-24" cx="39.79" cy="26.76" fx="39.79" fy="26.76" xlink:href="#radial-gradient-21"/><radialGradient id="radial-gradient-25" cx="31.79" cy="38.76" fx="31.79" fy="38.76" xlink:href="#radial-gradient-21"/><radialGradient id="radial-gradient-26" cx="31.79" cy="22.76" fx="31.79" fy="22.76" xlink:href="#radial-gradient-21"/><radialGradient id="radial-gradient-27" cx="14.79" cy="39.76" fx="14.79" fy="39.76" xlink:href="#radial-gradient-21"/><radialGradient id="radial-gradient-28" cx="48.79" cy="35.76" fx="48.79" fy="35.76" xlink:href="#radial-gradient-21"/><radialGradient id="radial-gradient-29" cx="55.79" cy="42.76" fx="55.79" fy="42.76" xlink:href="#radial-gradient-21"/><radialGradient id="radial-gradient-30" cy="43.76" fy="43.76" xlink:href="#radial-gradient-21"/><radialGradient id="radial-gradient-31" cx="20.79" cy="51.76" fx="20.79" fy="51.76" xlink:href="#radial-gradient-21"/><radialGradient id="radial-gradient-32" cx="46.79" cy="19.76" fx="46.79" fy="19.76" xlink:href="#radial-gradient-21"/><radialGradient id="radial-gradient-33" cx="31.79" cy="14.76" fx="31.79" fy="14.76" xlink:href="#radial-gradient-21"/></defs><g id="_4_copy_4"><polyline class="cls-5" points="16.33 39.95 12.49 50.87 6.49 44.87"/><g id="S1"><path class="cls-24" d="M12.49,53.37c-.28,0-.56-.05-.84-.13-.72-.23-1.3-.82-1.53-1.53-.26-.81-.13-1.65,.34-2.3,.47-.64,1.23-1.03,2.02-1.03,.28,0,.56,.04,.83,.13,.72,.23,1.3,.82,1.53,1.53,.26,.81,.13,1.65-.35,2.31-.47,.64-1.22,1.03-2.02,1.03Z"/><path class="cls-1" d="M12.49,48.87h0c.22,0,.45,.04,.68,.11,.56,.18,1.03,.64,1.21,1.21,.21,.67,.12,1.33-.27,1.86-.38,.52-.97,.82-1.62,.82-.22,0-.45-.04-.68-.11-.56-.18-1.03-.64-1.21-1.21-.21-.67-.12-1.33,.27-1.86,.38-.52,.98-.82,1.62-.82m0-1c-1.98,0-3.51,1.91-2.84,3.99,.28,.87,.99,1.58,1.86,1.86,.34,.11,.67,.16,.99,.16,1.98,0,3.51-1.91,2.84-3.99-.28-.87-.99-1.58-1.86-1.86-.34-.11-.67-.16-.99-.16h0Z"/></g><rect id="cadre" class="cls-6" x="21.49" y="36.87" width="22" height="22"/></g><g id="_4_copy_4-2"><polyline class="cls-7" points="49.49 55.87 40.33 48.95 32.49 56.87 21.49 52.87"/><polyline class="cls-7" points="21.05 52.87 24.27 44.87 32.49 39.87"/><polyline class="cls-4" points="21.05 52.87 24.27 44.87 32.49 39.87"/><g id="S5"><path class="cls-30" d="M49.49,58.37c-.28,0-.56-.05-.84-.13-.72-.23-1.3-.82-1.53-1.53-.26-.81-.13-1.65,.34-2.3,.47-.64,1.23-1.03,2.02-1.03,.28,0,.56,.04,.83,.13,.72,.23,1.3,.82,1.53,1.53,.26,.81,.13,1.65-.35,2.31-.47,.64-1.22,1.03-2.02,1.03Z"/><path class="cls-1" d="M49.49,53.87h0c.22,0,.45,.04,.68,.11,.56,.18,1.03,.64,1.21,1.21,.21,.67,.12,1.33-.27,1.86-.38,.52-.97,.82-1.62,.82-.22,0-.45-.04-.68-.11-.56-.18-1.03-.64-1.21-1.21-.21-.67-.12-1.33,.27-1.86,.38-.52,.98-.82,1.62-.82m0-1c-1.98,0-3.51,1.91-2.84,3.99,.28,.87,.99,1.58,1.86,1.86,.34,.11,.67,.16,.99,.16,1.98,0,3.51-1.91,2.84-3.99-.28-.87-.99-1.58-1.86-1.86-.34-.11-.67-.16-.99-.16h0Z"/></g><g id="S4"><path class="cls-31" d="M40.49,51.37c-.28,0-.56-.05-.84-.13-.72-.23-1.3-.82-1.53-1.53-.26-.81-.13-1.65,.34-2.3,.47-.64,1.23-1.03,2.02-1.03,.28,0,.56,.04,.83,.13,.72,.23,1.3,.82,1.53,1.53,.26,.81,.13,1.65-.35,2.31-.47,.64-1.22,1.03-2.02,1.03Z"/><path class="cls-1" d="M40.49,46.87h0c.22,0,.45,.04,.68,.11,.56,.18,1.03,.64,1.21,1.21,.21,.67,.12,1.33-.27,1.86-.38,.52-.97,.82-1.62,.82-.22,0-.45-.04-.68-.11-.56-.18-1.03-.64-1.21-1.21-.21-.67-.12-1.33,.27-1.86,.38-.52,.98-.82,1.62-.82m0-1c-1.98,0-3.51,1.91-2.84,3.99,.28,.87,.99,1.58,1.86,1.86,.34,.11,.67,.16,.99,.16,1.98,0,3.51-1.91,2.84-3.99-.28-.87-.99-1.58-1.86-1.86-.34-.11-.67-.16-.99-.16h0Z"/></g><g id="S3"><path class="cls-16" d="M32.49,58.37c-.28,0-.56-.05-.84-.13-.72-.23-1.3-.82-1.53-1.53-.26-.81-.13-1.65,.34-2.3,.47-.64,1.23-1.03,2.02-1.03,.28,0,.56,.04,.83,.13,.72,.23,1.3,.82,1.53,1.53,.26,.81,.13,1.65-.35,2.31-.47,.64-1.22,1.03-2.02,1.03Z"/><path class="cls-1" d="M32.49,53.87h0c.22,0,.45,.04,.68,.11,.56,.18,1.03,.64,1.21,1.21,.21,.67,.12,1.33-.27,1.86-.38,.52-.97,.82-1.62,.82-.22,0-.45-.04-.68-.11-.56-.18-1.03-.64-1.21-1.21-.21-.67-.12-1.33,.27-1.86,.38-.52,.98-.82,1.62-.82m0-1c-1.98,0-3.51,1.91-2.84,3.99,.28,.87,.99,1.58,1.86,1.86,.34,.11,.67,.16,.99,.16,1.98,0,3.51-1.91,2.84-3.99-.28-.87-.99-1.58-1.86-1.86-.34-.11-.67-.16-.99-.16h0Z"/></g><g id="S2"><path class="cls-15" d="M21.49,55.37c-.28,0-.56-.05-.84-.13-.72-.23-1.3-.82-1.53-1.53-.26-.81-.13-1.65,.34-2.3,.47-.64,1.23-1.03,2.02-1.03,.28,0,.56,.04,.83,.13,.72,.23,1.3,.82,1.53,1.53,.26,.81,.13,1.65-.35,2.31-.47,.64-1.22,1.03-2.02,1.03Z"/><path class="cls-1" d="M21.49,50.87h0c.22,0,.45,.04,.68,.11,.56,.18,1.03,.64,1.21,1.21,.21,.67,.12,1.33-.27,1.86-.38,.52-.97,.82-1.62,.82-.22,0-.45-.04-.68-.11-.56-.18-1.03-.64-1.21-1.21-.21-.67-.12-1.33,.27-1.86,.38-.52,.98-.82,1.62-.82m0-1c-1.98,0-3.51,1.91-2.84,3.99,.28,.87,.99,1.58,1.86,1.86,.34,.11,.67,.16,.99,.16,1.98,0,3.51-1.91,2.84-3.99-.28-.87-.99-1.58-1.86-1.86-.34-.11-.67-.16-.99-.16h0Z"/></g><g id="S1-2"><path class="cls-21" d="M24.49,47.37c-.28,0-.56-.05-.84-.13-.72-.23-1.3-.82-1.53-1.53-.26-.81-.13-1.65,.34-2.3,.47-.64,1.23-1.03,2.02-1.03,.28,0,.56,.04,.83,.13,.72,.23,1.3,.82,1.53,1.53,.26,.81,.13,1.65-.35,2.31-.47,.64-1.22,1.03-2.02,1.03Z"/><path class="cls-1" d="M24.49,42.87h0c.22,0,.45,.04,.68,.11,.56,.18,1.03,.64,1.21,1.21,.21,.67,.12,1.33-.27,1.86-.38,.52-.97,.82-1.62,.82-.22,0-.45-.04-.68-.11-.56-.18-1.03-.64-1.21-1.21-.21-.67-.12-1.33,.27-1.86,.38-.52,.98-.82,1.62-.82m0-1c-1.98,0-3.51,1.91-2.84,3.99,.28,.87,.99,1.58,1.86,1.86,.34,.11,.67,.16,.99,.16,1.98,0,3.51-1.91,2.84-3.99-.28-.87-.99-1.58-1.86-1.86-.34-.11-.67-.16-.99-.16h0Z"/></g></g><g id="_2_copy_2"><line class="cls-7" x1="51.49" y1="12.87" x2="40.49" y2="11.87"/><polyline class="cls-7" points="42.49 11.87 32.49 15.87 32.49 23.87"/><line class="cls-4" x1="32.49" y1="15.87" x2="32.49" y2="23.87"/><polyline class="cls-7" points="42.49 11.87 32.49 6.87 22.49 10.87"/><line class="cls-7" x1="24.05" y1="18.87" x2="22.05" y2="10.87"/><g id="S1-3"><path class="cls-2" d="M24.49,21.37c-.28,0-.56-.05-.84-.13-.72-.23-1.3-.82-1.53-1.53-.26-.81-.13-1.65,.34-2.3,.47-.64,1.23-1.03,2.02-1.03,.28,0,.56,.04,.83,.13,.72,.23,1.3,.82,1.53,1.53,.26,.81,.13,1.65-.35,2.31-.47,.64-1.22,1.03-2.02,1.03Z"/><path class="cls-1" d="M24.49,16.87h0c.22,0,.45,.04,.68,.11,.56,.18,1.03,.64,1.21,1.21,.21,.67,.12,1.33-.27,1.86-.38,.52-.97,.82-1.62,.82-.22,0-.45-.04-.68-.11-.56-.18-1.03-.64-1.21-1.21-.21-.67-.12-1.33,.27-1.86,.38-.52,.98-.82,1.62-.82m0-1c-1.98,0-3.51,1.91-2.84,3.99,.28,.87,.99,1.58,1.86,1.86,.34,.11,.67,.16,.99,.16,1.98,0,3.51-1.91,2.84-3.99-.28-.87-.99-1.58-1.86-1.86-.34-.11-.67-.16-.99-.16h0Z"/></g><g id="S1-4"><path class="cls-14" d="M52.49,15.37c-.28,0-.56-.05-.84-.13-.72-.23-1.3-.82-1.53-1.53-.26-.81-.13-1.65,.34-2.3,.47-.64,1.23-1.03,2.02-1.03,.28,0,.56,.04,.83,.13,.72,.23,1.3,.82,1.53,1.53,.26,.81,.13,1.65-.35,2.31-.47,.64-1.22,1.03-2.02,1.03Z"/><path class="cls-1" d="M52.49,10.87h0c.22,0,.45,.04,.68,.11,.56,.18,1.03,.64,1.21,1.21,.21,.67,.12,1.33-.27,1.86-.38,.52-.97,.82-1.62,.82-.22,0-.45-.04-.68-.11-.56-.18-1.03-.64-1.21-1.21-.21-.67-.12-1.33,.27-1.86,.38-.52,.98-.82,1.62-.82m0-1c-1.98,0-3.51,1.91-2.84,3.99,.28,.87,.99,1.58,1.86,1.86,.34,.11,.67,.16,.99,.16,1.98,0,3.51-1.91,2.84-3.99-.28-.87-.99-1.58-1.86-1.86-.34-.11-.67-.16-.99-.16h0Z"/></g><g id="S1-5"><path class="cls-39" d="M32.49,18.37c-.28,0-.56-.05-.84-.13-.72-.23-1.3-.82-1.53-1.53-.26-.81-.13-1.65,.34-2.3,.47-.64,1.23-1.03,2.02-1.03,.28,0,.56,.04,.83,.13,.72,.23,1.3,.82,1.53,1.53,.26,.81,.13,1.65-.35,2.31-.47,.64-1.22,1.03-2.02,1.03Z"/><path class="cls-1" d="M32.49,13.87h0c.22,0,.45,.04,.68,.11,.56,.18,1.03,.64,1.21,1.21,.21,.67,.12,1.33-.27,1.86-.38,.52-.97,.82-1.62,.82-.22,0-.45-.04-.68-.11-.56-.18-1.03-.64-1.21-1.21-.21-.67-.12-1.33,.27-1.86,.38-.52,.98-.82,1.62-.82m0-1c-1.98,0-3.51,1.91-2.84,3.99,.28,.87,.99,1.58,1.86,1.86,.34,.11,.67,.16,.99,.16,1.98,0,3.51-1.91,2.84-3.99-.28-.87-.99-1.58-1.86-1.86-.34-.11-.67-.16-.99-.16h0Z"/></g><g id="S1-6"><path class="cls-3" d="M22.49,13.37c-.28,0-.56-.05-.84-.13-.72-.23-1.3-.82-1.53-1.53-.26-.81-.13-1.65,.34-2.3,.47-.64,1.23-1.03,2.02-1.03,.28,0,.56,.04,.83,.13,.72,.23,1.3,.82,1.53,1.53,.26,.81,.13,1.65-.35,2.31-.47,.64-1.22,1.03-2.02,1.03Z"/><path class="cls-1" d="M22.49,8.87h0c.22,0,.45,.04,.68,.11,.56,.18,1.03,.64,1.21,1.21,.21,.67,.12,1.33-.27,1.86-.38,.52-.97,.82-1.62,.82-.22,0-.45-.04-.68-.11-.56-.18-1.03-.64-1.21-1.21-.21-.67-.12-1.33,.27-1.86,.38-.52,.98-.82,1.62-.82m0-1c-1.98,0-3.51,1.91-2.84,3.99,.28,.87,.99,1.58,1.86,1.86,.34,.11,.67,.16,.99,.16,1.98,0,3.51-1.91,2.84-3.99-.28-.87-.99-1.58-1.86-1.86-.34-.11-.67-.16-.99-.16h0Z"/></g><g id="S1-7"><path class="cls-37" d="M42.49,14.37c-.28,0-.56-.05-.84-.13-.72-.23-1.3-.82-1.53-1.53-.26-.81-.13-1.65,.34-2.3,.47-.64,1.23-1.03,2.02-1.03,.28,0,.56,.04,.83,.13,.72,.23,1.3,.82,1.53,1.53,.26,.81,.13,1.65-.35,2.31-.47,.64-1.22,1.03-2.02,1.03Z"/><path class="cls-1" d="M42.49,9.87h0c.22,0,.45,.04,.68,.11,.56,.18,1.03,.64,1.21,1.21,.21,.67,.12,1.33-.27,1.86-.38,.52-.97,.82-1.62,.82-.22,0-.45-.04-.68-.11-.56-.18-1.03-.64-1.21-1.21-.21-.67-.12-1.33,.27-1.86,.38-.52,.98-.82,1.62-.82m0-1c-1.98,0-3.51,1.91-2.84,3.99,.28,.87,.99,1.58,1.86,1.86,.34,.11,.67,.16,.99,.16,1.98,0,3.51-1.91,2.84-3.99-.28-.87-.99-1.58-1.86-1.86-.34-.11-.67-.16-.99-.16h0Z"/></g><g id="S1-8"><path class="cls-23" d="M32.49,10.37c-.28,0-.56-.05-.84-.13-.72-.23-1.3-.82-1.53-1.53-.26-.81-.13-1.65,.34-2.31,.47-.64,1.23-1.03,2.02-1.03,.28,0,.56,.04,.83,.13,.72,.23,1.3,.82,1.53,1.53,.26,.81,.13,1.65-.35,2.31-.47,.64-1.22,1.03-2.02,1.03Z"/><path class="cls-1" d="M32.49,5.87h0c.22,0,.45,.04,.68,.11,.56,.18,1.03,.64,1.21,1.21,.21,.67,.12,1.33-.27,1.86-.38,.52-.97,.82-1.62,.82-.22,0-.45-.04-.68-.11-.56-.18-1.03-.64-1.21-1.21-.21-.67-.12-1.33,.27-1.86,.38-.52,.98-.82,1.62-.82m0-1c-1.98,0-3.51,1.91-2.84,3.99,.28,.87,.99,1.58,1.86,1.86,.34,.11,.67,.16,.99,.16,1.98,0,3.51-1.91,2.84-3.99-.28-.87-.99-1.58-1.86-1.86-.34-.11-.67-.16-.99-.16h0Z"/></g></g><g id="_3_copy_2"><polyline class="cls-4" points="56.49 43.87 49.49 36.87 40.49 36.87"/><polyline class="cls-7" points="56.49 26.87 47.49 20.87 40.49 26.87"/><g id="S1-9"><path class="cls-26" d="M56.49,46.37c-.28,0-.56-.05-.84-.13-.72-.23-1.3-.82-1.53-1.53-.26-.81-.13-1.65,.34-2.3,.47-.64,1.23-1.03,2.02-1.03,.28,0,.56,.04,.83,.13,.72,.23,1.3,.82,1.53,1.53,.26,.81,.13,1.65-.35,2.31-.47,.64-1.22,1.03-2.02,1.03Z"/><path class="cls-1" d="M56.49,41.87h0c.22,0,.45,.04,.68,.11,.56,.18,1.03,.64,1.21,1.21,.21,.67,.12,1.33-.27,1.86-.38,.52-.97,.82-1.62,.82-.22,0-.45-.04-.68-.11-.56-.18-1.03-.64-1.21-1.21-.21-.67-.12-1.33,.27-1.86,.38-.52,.98-.82,1.62-.82m0-1c-1.98,0-3.51,1.91-2.84,3.99,.28,.87,.99,1.58,1.86,1.86,.34,.11,.67,.16,.99,.16,1.98,0,3.51-1.91,2.84-3.99-.28-.87-.99-1.58-1.86-1.86-.34-.11-.67-.16-.99-.16h0Z"/></g><g id="S1-10"><path class="cls-34" d="M56.49,29.37c-.28,0-.56-.05-.84-.13-.72-.23-1.3-.82-1.53-1.53-.26-.81-.13-1.65,.34-2.3,.47-.64,1.23-1.03,2.02-1.03,.28,0,.56,.04,.83,.13,.72,.23,1.3,.82,1.53,1.53,.26,.81,.13,1.65-.35,2.31-.47,.64-1.22,1.03-2.02,1.03Z"/><path class="cls-1" d="M56.49,24.87h0c.22,0,.45,.04,.68,.11,.56,.18,1.03,.64,1.21,1.21,.21,.67,.12,1.33-.27,1.86-.38,.52-.97,.82-1.62,.82-.22,0-.45-.04-.68-.11-.56-.18-1.03-.64-1.21-1.21-.21-.67-.12-1.33,.27-1.86,.38-.52,.98-.82,1.62-.82m0-1c-1.98,0-3.51,1.91-2.84,3.99,.28,.87,.99,1.58,1.86,1.86,.34,.11,.67,.16,.99,.16,1.98,0,3.51-1.91,2.84-3.99-.28-.87-.99-1.58-1.86-1.86-.34-.11-.67-.16-.99-.16h0Z"/></g><g id="S1-11"><path class="cls-29" d="M47.49,23.37c-.28,0-.56-.05-.84-.13-.72-.23-1.3-.82-1.53-1.53-.26-.81-.13-1.65,.34-2.3,.47-.64,1.23-1.03,2.02-1.03,.28,0,.56,.04,.83,.13,.72,.23,1.3,.82,1.53,1.53,.26,.81,.13,1.65-.35,2.31-.47,.64-1.22,1.03-2.02,1.03Z"/><path class="cls-1" d="M47.49,18.87h0c.22,0,.45,.04,.68,.11,.56,.18,1.03,.64,1.21,1.21,.21,.67,.12,1.33-.27,1.86-.38,.52-.97,.82-1.62,.82-.22,0-.45-.04-.68-.11-.56-.18-1.03-.64-1.21-1.21-.21-.67-.12-1.33,.27-1.86,.38-.52,.98-.82,1.62-.82m0-1c-1.98,0-3.51,1.91-2.84,3.99,.28,.87,.99,1.58,1.86,1.86,.34,.11,.67,.16,.99,.16,1.98,0,3.51-1.91,2.84-3.99-.28-.87-.99-1.58-1.86-1.86-.34-.11-.67-.16-.99-.16h0Z"/></g><rect id="cadre-2" class="cls-6" x="37.49" y="20.87" width="22" height="22"/></g><g id="_1_copy_2"><polyline class="cls-7" points="24.49 36.87 16.49 40.87 8.49 36.87"/><polyline class="cls-4" points="24.49 36.87 16.49 40.87 8.49 36.87"/><polyline class="cls-7" points="24.49 26.87 16.49 22.87 8.49 26.87"/><polyline class="cls-7" points="24.49 26.87 16.49 22.87 10.49 14.87"/><line class="cls-4" x1="24.49" y1="26.87" x2="16.49" y2="22.87"/><g id="S1-12"><path class="cls-11" d="M8.49,38.37c-.28,0-.56-.05-.84-.13-.72-.23-1.3-.82-1.53-1.53-.26-.81-.13-1.65,.35-2.31,.47-.64,1.23-1.03,2.02-1.03,.28,0,.56,.04,.83,.13,.72,.23,1.3,.82,1.53,1.53,.26,.81,.13,1.65-.35,2.31-.47,.64-1.23,1.03-2.02,1.03Z"/><path class="cls-1" d="M8.49,33.87h0c.22,0,.45,.04,.68,.11,.56,.18,1.03,.64,1.21,1.21,.21,.67,.12,1.33-.27,1.86-.38,.52-.97,.82-1.62,.82-.22,0-.45-.04-.68-.11-.56-.18-1.03-.64-1.21-1.21-.21-.67-.12-1.33,.27-1.86,.38-.52,.98-.82,1.62-.82m0-1c-1.98,0-3.51,1.91-2.84,3.99,.28,.87,.99,1.58,1.86,1.86,.34,.11,.67,.16,.99,.16,1.98,0,3.51-1.91,2.84-3.99-.28-.87-.99-1.58-1.86-1.86-.34-.11-.67-.16-.99-.16h0Z"/></g><g id="S1-13"><path class="cls-32" d="M8.49,29.37c-.28,0-.56-.05-.84-.13-.72-.23-1.3-.82-1.53-1.53-.26-.81-.13-1.65,.35-2.31,.47-.64,1.23-1.03,2.02-1.03,.28,0,.56,.04,.83,.13,.72,.23,1.3,.82,1.53,1.53,.26,.81,.13,1.65-.35,2.31-.47,.64-1.23,1.03-2.02,1.03Z"/><path class="cls-1" d="M8.49,24.87h0c.22,0,.45,.04,.68,.11,.56,.18,1.03,.64,1.21,1.21,.21,.67,.12,1.33-.27,1.86-.38,.52-.97,.82-1.62,.82-.22,0-.45-.04-.68-.11-.56-.18-1.03-.64-1.21-1.21-.21-.67-.12-1.33,.27-1.86,.38-.52,.98-.82,1.62-.82m0-1c-1.98,0-3.51,1.91-2.84,3.99,.28,.87,.99,1.58,1.86,1.86,.34,.11,.67,.16,.99,.16,1.98,0,3.51-1.91,2.84-3.99-.28-.87-.99-1.58-1.86-1.86-.34-.11-.67-.16-.99-.16h0Z"/></g><g id="S1-14"><path class="cls-38" d="M10.49,17.37c-.28,0-.56-.05-.84-.13-.72-.23-1.3-.82-1.53-1.53-.26-.81-.13-1.65,.35-2.31,.47-.64,1.23-1.03,2.02-1.03,.28,0,.56,.04,.83,.13,.72,.23,1.3,.82,1.53,1.53,.26,.81,.13,1.65-.35,2.31-.47,.64-1.22,1.03-2.02,1.03Z"/><path class="cls-1" d="M10.49,12.87h0c.22,0,.45,.04,.68,.11,.56,.18,1.03,.64,1.21,1.21,.21,.67,.12,1.33-.27,1.86-.38,.52-.97,.82-1.62,.82-.22,0-.45-.04-.68-.11-.56-.18-1.03-.64-1.21-1.21-.21-.67-.12-1.33,.27-1.86,.38-.52,.98-.82,1.62-.82m0-1c-1.98,0-3.51,1.91-2.84,3.99,.28,.87,.99,1.58,1.86,1.86,.34,.11,.67,.16,.99,.16,1.98,0,3.51-1.91,2.84-3.99-.28-.87-.99-1.58-1.86-1.86-.34-.11-.67-.16-.99-.16h0Z"/></g><g id="S1-15"><path class="cls-22" d="M15.49,43.37c-.28,0-.56-.05-.84-.13-.72-.23-1.3-.82-1.53-1.53-.26-.81-.13-1.65,.34-2.3,.47-.64,1.23-1.03,2.02-1.03,.28,0,.56,.04,.83,.13,.72,.23,1.3,.82,1.53,1.53,.26,.81,.13,1.65-.35,2.31-.47,.64-1.22,1.03-2.02,1.03Z"/><path class="cls-1" d="M15.49,38.87h0c.22,0,.45,.04,.68,.11,.56,.18,1.03,.64,1.21,1.21,.21,.67,.12,1.33-.27,1.86-.38,.52-.97,.82-1.62,.82-.22,0-.45-.04-.68-.11-.56-.18-1.03-.64-1.21-1.21-.21-.67-.12-1.33,.27-1.86,.38-.52,.98-.82,1.62-.82m0-1c-1.98,0-3.51,1.91-2.84,3.99,.28,.87,.99,1.58,1.86,1.86,.34,.11,.67,.16,.99,.16,1.98,0,3.51-1.91,2.84-3.99-.28-.87-.99-1.58-1.86-1.86-.34-.11-.67-.16-.99-.16h0Z"/></g><g id="S1-16"><path class="cls-12" d="M16.49,25.37c-.28,0-.56-.05-.84-.13-.72-.23-1.3-.82-1.53-1.53-.26-.81-.13-1.65,.34-2.3,.47-.64,1.23-1.03,2.02-1.03,.28,0,.56,.04,.83,.13,.72,.23,1.3,.82,1.53,1.53,.26,.81,.13,1.65-.35,2.31-.47,.64-1.22,1.03-2.02,1.03Z"/><path class="cls-1" d="M16.49,20.87h0c.22,0,.45,.04,.68,.11,.56,.18,1.03,.64,1.21,1.21,.21,.67,.12,1.33-.27,1.86-.38,.52-.97,.82-1.62,.82-.22,0-.45-.04-.68-.11-.56-.18-1.03-.64-1.21-1.21-.21-.67-.12-1.33,.27-1.86,.38-.52,.98-.82,1.62-.82m0-1c-1.98,0-3.51,1.91-2.84,3.99,.28,.87,.99,1.58,1.86,1.86,.34,.11,.67,.16,.99,.16,1.98,0,3.51-1.91,2.84-3.99-.28-.87-.99-1.58-1.86-1.86-.34-.11-.67-.16-.99-.16h0Z"/></g></g><g id="CENTER_OK_copy_3"><polyline class="cls-4" points="40.49 36.87 32.49 40.87 24.49 36.87"/><polyline class="cls-4" points="40.49 26.87 32.49 22.87 24.49 26.87"/><line class="cls-4" x1="40.11" y1="35.87" x2="40.11" y2="27.87"/><line class="cls-4" x1="25.05" y1="35.87" x2="25.05" y2="27.87"/><g id="S1-17"><path class="cls-13" d="M24.49,38.42c-.28,0-.57-.05-.85-.14-.73-.23-1.33-.83-1.56-1.56-.26-.82-.14-1.68,.35-2.35,.48-.66,1.25-1.05,2.06-1.05,.28,0,.57,.05,.85,.14,.73,.23,1.33,.83,1.56,1.56,.26,.83,.13,1.68-.35,2.35-.48,.66-1.25,1.05-2.06,1.05Z"/><path class="cls-8" d="M24.49,33.77h0c.23,0,.47,.04,.71,.11,.59,.19,1.08,.68,1.27,1.27,.22,.7,.12,1.39-.29,1.95-.39,.54-1.03,.86-1.7,.86-.24,0-.47-.04-.71-.11-.59-.19-1.08-.68-1.27-1.27-.22-.7-.12-1.39,.29-1.95,.39-.54,1.03-.86,1.7-.86m0-.9c-1.98,0-3.51,1.91-2.84,3.99,.28,.87,.99,1.58,1.86,1.86,.34,.11,.67,.16,.99,.16,1.98,0,3.51-1.91,2.84-3.99-.28-.87-.99-1.58-1.86-1.86-.34-.11-.67-.16-.99-.16h0Z"/></g><g id="S1-18"><path class="cls-20" d="M40.49,38.42c-.28,0-.57-.05-.85-.14-.73-.23-1.33-.83-1.56-1.56-.26-.82-.14-1.68,.35-2.35,.48-.66,1.25-1.05,2.06-1.05,.28,0,.57,.05,.85,.14,.73,.23,1.33,.83,1.56,1.56,.26,.83,.13,1.68-.35,2.35-.48,.66-1.25,1.05-2.06,1.05Z"/><path class="cls-8" d="M40.49,33.77h0c.23,0,.47,.04,.71,.11,.59,.19,1.08,.68,1.27,1.27,.22,.7,.12,1.39-.29,1.95-.39,.54-1.03,.86-1.7,.86-.24,0-.47-.04-.71-.11-.59-.19-1.08-.68-1.27-1.27-.22-.7-.12-1.39,.29-1.95,.39-.54,1.03-.86,1.7-.86m0-.9c-1.98,0-3.51,1.91-2.84,3.99,.28,.87,.99,1.58,1.86,1.86,.34,.11,.67,.16,.99,.16,1.98,0,3.51-1.91,2.84-3.99-.28-.87-.99-1.58-1.86-1.86-.34-.11-.67-.16-.99-.16h0Z"/></g><g id="S1-19"><path class="cls-36" d="M24.49,30.42c-.28,0-.57-.05-.85-.14-.73-.23-1.33-.83-1.56-1.56-.26-.82-.14-1.68,.35-2.35,.48-.66,1.25-1.05,2.06-1.05,.28,0,.57,.05,.85,.14,.73,.23,1.33,.83,1.56,1.56,.26,.83,.13,1.68-.35,2.35-.48,.66-1.25,1.05-2.06,1.05Z"/><path class="cls-8" d="M24.49,25.77h0c.23,0,.47,.04,.71,.11,.59,.19,1.08,.68,1.27,1.27,.22,.7,.12,1.39-.29,1.95-.39,.54-1.03,.86-1.7,.86-.24,0-.47-.04-.71-.11-.59-.19-1.08-.68-1.27-1.27-.22-.7-.12-1.39,.29-1.95,.39-.54,1.03-.86,1.7-.86m0-.9c-1.98,0-3.51,1.91-2.84,3.99,.28,.87,.99,1.58,1.86,1.86,.34,.11,.67,.16,.99,.16,1.98,0,3.51-1.91,2.84-3.99-.28-.87-.99-1.58-1.86-1.86-.34-.11-.67-.16-.99-.16h0Z"/></g><g id="S1-20"><path class="cls-28" d="M40.49,30.42c-.28,0-.57-.05-.85-.14-.73-.23-1.33-.83-1.56-1.56-.26-.82-.14-1.68,.35-2.35,.48-.66,1.25-1.05,2.06-1.05,.28,0,.57,.05,.85,.14,.73,.23,1.33,.83,1.56,1.56,.26,.83,.13,1.68-.35,2.35-.48,.66-1.25,1.05-2.06,1.05Z"/><path class="cls-8" d="M40.49,25.77h0c.23,0,.47,.04,.71,.11,.59,.19,1.08,.68,1.27,1.27,.22,.7,.12,1.39-.29,1.95-.39,.54-1.03,.86-1.7,.86-.24,0-.47-.04-.71-.11-.59-.19-1.08-.68-1.27-1.27-.22-.7-.12-1.39,.29-1.95,.39-.54,1.03-.86,1.7-.86m0-.9c-1.98,0-3.51,1.91-2.84,3.99,.28,.87,.99,1.58,1.86,1.86,.34,.11,.67,.16,.99,.16,1.98,0,3.51-1.91,2.84-3.99-.28-.87-.99-1.58-1.86-1.86-.34-.11-.67-.16-.99-.16h0Z"/></g><g id="S1-21"><path class="cls-18" d="M32.49,42.42c-.28,0-.57-.05-.85-.14-.73-.23-1.33-.83-1.56-1.56-.26-.82-.14-1.68,.35-2.35,.48-.66,1.25-1.05,2.06-1.05,.28,0,.57,.05,.85,.14,.73,.23,1.33,.83,1.56,1.56,.26,.83,.13,1.68-.35,2.35-.48,.66-1.25,1.05-2.06,1.05Z"/><path class="cls-8" d="M32.49,37.77h0c.23,0,.47,.04,.71,.11,.59,.19,1.08,.68,1.27,1.27,.22,.7,.12,1.39-.29,1.95-.39,.54-1.03,.86-1.7,.86-.24,0-.47-.04-.71-.11-.59-.19-1.08-.68-1.27-1.27-.22-.7-.12-1.39,.29-1.95,.39-.54,1.03-.86,1.7-.86m0-.9c-1.98,0-3.51,1.91-2.84,3.99,.28,.87,.99,1.58,1.86,1.86,.34,.11,.67,.16,.99,.16,1.98,0,3.51-1.91,2.84-3.99-.28-.87-.99-1.58-1.86-1.86-.34-.11-.67-.16-.99-.16h0Z"/></g><g id="S1-22"><path class="cls-19" d="M32.49,26.42c-.28,0-.57-.05-.85-.14-.73-.23-1.33-.83-1.56-1.56-.26-.82-.14-1.68,.35-2.35,.48-.66,1.25-1.05,2.06-1.05,.28,0,.57,.05,.85,.14,.73,.23,1.33,.83,1.56,1.56,.26,.83,.13,1.68-.35,2.35-.48,.66-1.25,1.05-2.06,1.05Z"/><path class="cls-8" d="M32.49,21.77h0c.23,0,.47,.04,.71,.11,.59,.19,1.08,.68,1.27,1.27,.22,.7,.12,1.39-.29,1.95-.39,.54-1.03,.86-1.7,.86-.24,0-.47-.04-.71-.11-.59-.19-1.08-.68-1.27-1.27-.22-.7-.12-1.39,.29-1.95,.39-.54,1.03-.86,1.7-.86m0-.9c-1.98,0-3.51,1.91-2.84,3.99,.28,.87,.99,1.58,1.86,1.86,.34,.11,.67,.16,.99,.16,1.98,0,3.51-1.91,2.84-3.99-.28-.87-.99-1.58-1.86-1.86-.34-.11-.67-.16-.99-.16h0Z"/></g><rect id="cadre-3" class="cls-6" x="21.49" y="20.87" width="22" height="22"/></g><g id="CENTER_OK_copy_3-2"><g id="S1-23"><path class="cls-25" d="M15.49,43.42c-.28,0-.57-.05-.85-.14-.73-.23-1.33-.83-1.56-1.56-.26-.82-.14-1.68,.35-2.35,.48-.66,1.25-1.05,2.06-1.05,.28,0,.57,.05,.85,.14,.73,.23,1.33,.83,1.56,1.56,.26,.83,.13,1.68-.35,2.35-.48,.66-1.25,1.05-2.06,1.05Z"/><path class="cls-8" d="M15.49,38.77h0c.23,0,.47,.04,.71,.11,.59,.19,1.08,.68,1.27,1.27,.22,.7,.12,1.39-.29,1.95-.39,.54-1.03,.86-1.7,.86-.24,0-.47-.04-.71-.11-.59-.19-1.08-.68-1.27-1.27-.22-.7-.12-1.39,.29-1.95,.39-.54,1.03-.86,1.7-.86m0-.9c-1.98,0-3.51,1.91-2.84,3.99,.28,.87,.99,1.58,1.86,1.86,.34,.11,.67,.16,.99,.16,1.98,0,3.51-1.91,2.84-3.99-.28-.87-.99-1.58-1.86-1.86-.34-.11-.67-.16-.99-.16h0Z"/></g><g id="S1-24"><path class="cls-10" d="M49.49,39.42c-.28,0-.57-.05-.85-.14-.73-.23-1.33-.83-1.56-1.56-.26-.82-.14-1.68,.35-2.35,.48-.66,1.25-1.05,2.06-1.05,.28,0,.57,.05,.85,.14,.73,.23,1.33,.83,1.56,1.56,.26,.83,.13,1.68-.35,2.35-.48,.66-1.25,1.05-2.06,1.05Z"/><path class="cls-8" d="M49.49,34.77h0c.23,0,.47,.04,.71,.11,.59,.19,1.08,.68,1.27,1.27,.22,.7,.12,1.39-.29,1.95-.39,.54-1.03,.86-1.7,.86-.24,0-.47-.04-.71-.11-.59-.19-1.08-.68-1.27-1.27-.22-.7-.12-1.39,.29-1.95,.39-.54,1.03-.86,1.7-.86m0-.9c-1.98,0-3.51,1.91-2.84,3.99,.28,.87,.99,1.58,1.86,1.86,.34,.11,.67,.16,.99,.16,1.98,0,3.51-1.91,2.84-3.99-.28-.87-.99-1.58-1.86-1.86-.34-.11-.67-.16-.99-.16h0Z"/></g><g id="S1-25"><path class="cls-35" d="M56.49,46.42c-.28,0-.57-.05-.85-.14-.73-.23-1.33-.83-1.56-1.56-.26-.83-.14-1.68,.35-2.35,.48-.66,1.25-1.05,2.06-1.05,.28,0,.57,.05,.85,.14,.73,.23,1.33,.83,1.56,1.56,.26,.83,.13,1.68-.35,2.35-.48,.66-1.25,1.05-2.06,1.05Z"/><path class="cls-8" d="M56.49,41.77h0c.23,0,.47,.04,.71,.11,.59,.19,1.08,.68,1.27,1.27,.22,.7,.12,1.39-.29,1.95-.39,.54-1.03,.86-1.7,.86-.24,0-.47-.04-.71-.11-.59-.19-1.08-.68-1.27-1.27-.22-.7-.12-1.39,.29-1.95,.39-.54,1.03-.86,1.7-.86m0-.9c-1.98,0-3.51,1.91-2.84,3.99,.28,.87,.99,1.58,1.86,1.86,.34,.11,.67,.16,.99,.16,1.98,0,3.51-1.91,2.84-3.99-.28-.87-.99-1.58-1.86-1.86-.34-.11-.67-.16-.99-.16h0Z"/></g><g id="S1-26"><path class="cls-27" d="M24.49,47.42c-.28,0-.57-.05-.85-.14-.73-.23-1.33-.83-1.56-1.56-.26-.82-.14-1.68,.35-2.35,.48-.66,1.25-1.05,2.06-1.05,.28,0,.57,.05,.85,.14,.73,.23,1.33,.83,1.56,1.56,.26,.83,.13,1.68-.35,2.35-.48,.66-1.25,1.05-2.06,1.05Z"/><path class="cls-8" d="M24.49,42.77h0c.23,0,.47,.04,.71,.11,.59,.19,1.08,.68,1.27,1.27,.22,.7,.12,1.39-.29,1.95-.39,.54-1.03,.86-1.7,.86-.24,0-.47-.04-.71-.11-.59-.19-1.08-.68-1.27-1.27-.22-.7-.12-1.39,.29-1.95,.39-.54,1.03-.86,1.7-.86m0-.9c-1.98,0-3.51,1.91-2.84,3.99,.28,.87,.99,1.58,1.86,1.86,.34,.11,.67,.16,.99,.16,1.98,0,3.51-1.91,2.84-3.99-.28-.87-.99-1.58-1.86-1.86-.34-.11-.67-.16-.99-.16h0Z"/></g><g id="S1-27"><path class="cls-9" d="M21.49,55.42c-.28,0-.57-.05-.85-.14-.73-.23-1.33-.83-1.56-1.56-.26-.82-.14-1.68,.35-2.35,.48-.66,1.25-1.05,2.06-1.05,.28,0,.57,.05,.85,.14,.73,.23,1.33,.83,1.56,1.56,.26,.83,.13,1.68-.35,2.35-.48,.66-1.25,1.05-2.06,1.05Z"/><path class="cls-8" d="M21.49,50.77h0c.23,0,.47,.04,.71,.11,.59,.19,1.08,.68,1.27,1.27,.22,.7,.12,1.39-.29,1.95-.39,.54-1.03,.86-1.7,.86-.24,0-.47-.04-.71-.11-.59-.19-1.08-.68-1.27-1.27-.22-.7-.12-1.39,.29-1.95,.39-.54,1.03-.86,1.7-.86m0-.9c-1.98,0-3.51,1.91-2.84,3.99,.28,.87,.99,1.58,1.86,1.86,.34,.11,.67,.16,.99,.16,1.98,0,3.51-1.91,2.84-3.99-.28-.87-.99-1.58-1.86-1.86-.34-.11-.67-.16-.99-.16h0Z"/></g><g id="S1-28"><path class="cls-17" d="M47.49,23.42c-.28,0-.57-.05-.85-.14-.73-.23-1.33-.83-1.56-1.56-.26-.82-.14-1.68,.35-2.35,.48-.66,1.25-1.05,2.06-1.05,.28,0,.57,.05,.85,.14,.73,.23,1.33,.83,1.56,1.56,.26,.83,.13,1.68-.35,2.35-.48,.66-1.25,1.05-2.06,1.05Z"/><path class="cls-8" d="M47.49,18.77h0c.23,0,.47,.04,.71,.11,.59,.19,1.08,.68,1.27,1.27,.22,.7,.12,1.39-.29,1.95-.39,.54-1.03,.86-1.7,.86-.24,0-.47-.04-.71-.11-.59-.19-1.08-.68-1.27-1.27-.22-.7-.12-1.39,.29-1.95,.39-.54,1.03-.86,1.7-.86m0-.9c-1.98,0-3.51,1.91-2.84,3.99,.28,.87,.99,1.58,1.86,1.86,.34,.11,.67,.16,.99,.16,1.98,0,3.51-1.91,2.84-3.99-.28-.87-.99-1.58-1.86-1.86-.34-.11-.67-.16-.99-.16h0Z"/></g><g id="S1-29"><path class="cls-33" d="M32.49,18.42c-.28,0-.57-.05-.85-.14-.73-.23-1.33-.83-1.56-1.56-.26-.82-.14-1.68,.35-2.35,.48-.66,1.25-1.05,2.06-1.05,.28,0,.57,.05,.85,.14,.73,.23,1.33,.83,1.56,1.56,.26,.83,.13,1.68-.35,2.35-.48,.66-1.25,1.05-2.06,1.05Z"/><path class="cls-8" d="M32.49,13.77h0c.23,0,.47,.04,.71,.11,.59,.19,1.08,.68,1.27,1.27,.22,.7,.12,1.39-.29,1.95-.39,.54-1.03,.86-1.7,.86-.24,0-.47-.04-.71-.11-.59-.19-1.08-.68-1.27-1.27-.22-.7-.12-1.39,.29-1.95,.39-.54,1.03-.86,1.7-.86m0-.9c-1.98,0-3.51,1.91-2.84,3.99,.28,.87,.99,1.58,1.86,1.86,.34,.11,.67,.16,.99,.16,1.98,0,3.51-1.91,2.84-3.99-.28-.87-.99-1.58-1.86-1.86-.34-.11-.67-.16-.99-.16h0Z"/></g></g></svg>