<svg id="v02_ok_copy_2" data-name="v02  ok copy 2" xmlns="http://www.w3.org/2000/svg" xmlns:xlink="http://www.w3.org/1999/xlink" viewBox="0 0 64 64"><defs><style>.cls-1{fill:#fff;}.cls-2{fill:#82bcda;}.cls-3{fill:#797979;}.cls-4{fill:#285978;}.cls-5{fill:none;stroke:#003755;stroke-miterlimit:10;}.cls-6{fill:url(#Dark_BLUE_gradient_LEFT_2);}.cls-7{fill:url(#Dark_BLUE_gradient_LEFT_2-2);}.cls-8{fill:url(#Dark_BLUE_gradient_LEFT_2-3);}</style><linearGradient id="Dark_BLUE_gradient_LEFT_2" x1="28.27" y1="27.48" x2="37.46" y2="27.48" gradientUnits="userSpaceOnUse"><stop offset="0" stop-color="#82bddc"/><stop offset="1" stop-color="#275a78"/></linearGradient><linearGradient id="Dark_BLUE_gradient_LEFT_2-2" x1="27.31" y1="32.85" x2="38.09" y2="32.85" xlink:href="#Dark_BLUE_gradient_LEFT_2"/><linearGradient id="Dark_BLUE_gradient_LEFT_2-3" x1="24.86" y1="36.69" x2="31.92" y2="36.69" xlink:href="#Dark_BLUE_gradient_LEFT_2"/></defs><title>ddd__A33AAe__R21XArtboard 1</title><circle id="fond" class="cls-1" cx="31.86" cy="32.16" r="19.53"/><g id="ROUE_OK" data-name="ROUE OK"><path id="_10" data-name="10" class="cls-2" d="M31.06,19.72V14.94a17.18,17.18,0,0,0-9.23,3.17L24.64,22A12.35,12.35,0,0,1,31.06,19.72Z"/><path id="_9" data-name="9" class="cls-3" d="M23.57,22.81l-2.82-3.87a17.33,17.33,0,0,0-5.36,7.94l4.54,1.47A12.54,12.54,0,0,1,23.57,22.81Z"/><path id="_8" data-name="8" class="cls-2" d="M19.33,32.17a12.12,12.12,0,0,1,.25-2.5L15,28.19a16.87,16.87,0,0,0-.47,4,17.1,17.1,0,0,0,.85,5.33L19.94,36A12.56,12.56,0,0,1,19.33,32.17Z"/><path id="_7" data-name="7" class="cls-4" d="M20.44,37.29l-4.56,1.49a17.41,17.41,0,0,0,5.55,7.16l2.81-3.87A12.53,12.53,0,0,1,20.44,37.29Z"/><path id="_6" data-name="6" class="cls-3" d="M25.37,42.84l-2.82,3.87a17.25,17.25,0,0,0,8.51,2.69V44.61A12.32,12.32,0,0,1,25.37,42.84Z"/><path id="_5" data-name="5" class="cls-4" d="M32.42,44.62V49.4A17.11,17.11,0,0,0,41,46.77l-2.81-3.88A12.36,12.36,0,0,1,32.42,44.62Z"/><path id="_4" data-name="4" class="cls-2" d="M39.29,42.13,42.1,46a17.37,17.37,0,0,0,5.62-7.19l-4.56-1.48A12.43,12.43,0,0,1,39.29,42.13Z"/><path id="_3" data-name="3" class="cls-3" d="M44.29,32.17a12.53,12.53,0,0,1-.63,3.89l4.54,1.47a17.37,17.37,0,0,0,.38-9.38L44,29.63A12.51,12.51,0,0,1,44.29,32.17Z"/><path id="_2" data-name="2" class="cls-2" d="M43.67,28.31l4.54-1.47a17.35,17.35,0,0,0-5.43-8L40,22.74A12.61,12.61,0,0,1,43.67,28.31Z"/><path id="_1" data-name="1" class="cls-4" d="M38.89,21.9l2.81-3.85a17.12,17.12,0,0,0-9.28-3.11v4.78A12.34,12.34,0,0,1,38.89,21.9Z"/></g><path id="cercle" class="cls-5" d="M51.5,32.07A19.53,19.53,0,1,1,32,12.54,19.54,19.54,0,0,1,51.5,32.07Z"/><g id="Layer_84_copy_3" data-name="Layer 84 copy 3"><path id="_" data-name="***" class="cls-6" d="M35.67,31.72a6.59,6.59,0,0,0,1.71-5.32,3.4,3.4,0,0,0-1.85-2.51c-1.12-.61-2.3-1.17-3.47-1.74a2.12,2.12,0,0,0-1.76-.09,3.28,3.28,0,0,0-2,2.13,7.08,7.08,0,0,1,4.38-1.06,1.13,1.13,0,0,1,1,.53,6,6,0,0,1-.36,6.66l-.55.58,1.73,2.16Z"/><path id="_2-2" data-name="******" class="cls-7" d="M38.08,38.61A3.74,3.74,0,0,0,37,36.7c-.61-.72-4.21-5.54-4.81-6.26-2-2.28-3.67-3.62-1.69-6.78a4,4,0,0,0-2.79,1.41A4.52,4.52,0,0,0,28,29.22a38.23,38.23,0,0,0,2.25,3.33S34.66,38,35.14,38.6A11.7,11.7,0,0,1,37,42,8.89,8.89,0,0,0,38.08,38.61Z"/><path class="cls-8" d="M26.41,36.33c-.58.47-.83.8-.89,1.17s-.54,2.32-.66,2.82A26.74,26.74,0,0,0,31.92,35l-1.54-2Z"/></g></svg>