<svg xmlns="http://www.w3.org/2000/svg" xmlns:xlink="http://www.w3.org/1999/xlink" viewBox="0 0 64 64"><defs><linearGradient id="a" x1="4" y1="50" x2="60" y2="50" gradientUnits="userSpaceOnUse"><stop offset="0.05"/><stop offset="0.15" stop-color="#fff"/><stop offset="0.85" stop-color="#fff"/><stop offset="0.95"/></linearGradient><linearGradient id="b" x1="-117.11" y1="23.07" x2="-111.11" y2="33.47" gradientTransform="matrix(-1, 0, 0, 1, -101, 0)" gradientUnits="userSpaceOnUse"><stop offset="0" stop-color="#83bedc"/><stop offset="0.5" stop-color="#285a78"/></linearGradient><linearGradient id="c" x1="-118.97" y1="13.77" x2="-112.96" y2="24.17" gradientTransform="matrix(-1, 0, 0, 1, -101, 0)" gradientUnits="userSpaceOnUse"><stop offset="0" stop-color="#83bedc"/><stop offset="0.53" stop-color="#285a78"/></linearGradient><linearGradient id="d" x1="8.84" y1="27.13" x2="15.53" y2="38.71" gradientUnits="userSpaceOnUse"><stop offset="0" stop-color="#a3def6"/><stop offset="1" stop-color="#74c3e1"/></linearGradient><linearGradient id="g" x1="18.82" y1="13.86" x2="18.82" y2="16.67" gradientUnits="userSpaceOnUse"><stop offset="0" stop-color="#fff"/><stop offset="1" stop-color="#fff" stop-opacity="0"/></linearGradient><linearGradient id="h" x1="16.96" y1="23.16" x2="16.96" y2="25.97" xlink:href="#g"/><linearGradient id="i" x1="15.1" y1="32.46" x2="15.1" y2="35.27" xlink:href="#g"/><linearGradient id="j" x1="21.11" y1="17.19" x2="29.06" y2="30.95" gradientUnits="userSpaceOnUse"><stop offset="0" stop-color="#fff"/><stop offset="1" stop-color="#dddddb"/></linearGradient><linearGradient id="k" x1="26.74" y1="23.77" x2="33.09" y2="34.76" xlink:href="#j"/><mask id="l" x="4" y="43" width="56" height="14" maskUnits="userSpaceOnUse"><rect x="4" y="43" width="56" height="14" fill="url(#a)"/></mask><linearGradient id="m" x1="38.69" y1="40.36" x2="40.69" y2="43.83" gradientUnits="userSpaceOnUse"><stop offset="0" stop-color="#8cd7f5"/><stop offset="1" stop-color="#376e8c"/></linearGradient><linearGradient id="n" x1="39.89" y1="34.1" x2="41.89" y2="37.56" gradientUnits="userSpaceOnUse"><stop offset="0" stop-color="#d7d7d7"/><stop offset="1" stop-color="#969696"/></linearGradient><linearGradient id="o" x1="32.67" y1="42.46" x2="34.67" y2="45.92" xlink:href="#n"/><linearGradient id="p" x1="45.91" y1="32" x2="47.91" y2="35.46" xlink:href="#n"/><linearGradient id="q" x1="47.11" y1="25.73" x2="49.11" y2="29.2" xlink:href="#n"/><linearGradient id="r" x1="42.28" y1="21.56" x2="44.28" y2="25.03" xlink:href="#n"/><linearGradient id="s" x1="43.48" y1="15.3" x2="45.48" y2="18.76" xlink:href="#n"/><linearGradient id="t" x1="49.5" y1="13.2" x2="51.51" y2="16.67" xlink:href="#n"/><linearGradient id="u" x1="54.33" y1="17.37" x2="56.33" y2="20.84" xlink:href="#n"/><linearGradient id="v" x1="53.14" y1="23.64" x2="55.14" y2="27.1" xlink:href="#n"/><linearGradient id="w" x1="50.7" y1="6.93" x2="52.7" y2="10.4" gradientUnits="userSpaceOnUse"><stop offset="0" stop-color="#fc3f05"/><stop offset="1" stop-color="#c10e00"/></linearGradient><linearGradient id="x" x1="38.65" y1="11.13" x2="40.65" y2="14.59" xlink:href="#w"/><linearGradient id="y" x1="50.74" y1="36.17" x2="52.74" y2="39.63" xlink:href="#w"/></defs><path d="M7.54,32a2,2,0,0,1,1.91-1.5c.93-.14,5.46.35,6.39.21a2,2,0,0,0,1.91-1.5l.93-4.65a2,2,0,0,1-1.91,1.5c-.93.14-5.46-.35-6.4-.21a2,2,0,0,0-1.91,1.5Z" stroke="#053755" stroke-linejoin="round" fill="url(#b)"/><path d="M9.39,22.69a2,2,0,0,1,1.91-1.5c.94-.14,5.47.35,6.4.21a2,2,0,0,0,1.91-1.5l.93-4.65a2,2,0,0,1-1.91,1.5c-.94.14-5.46-.35-6.4-.21A2,2,0,0,0,10.32,18Z" stroke="#053755" stroke-linejoin="round" fill="url(#c)"/><path d="M15.9,38.5a2,2,0,0,0-1.19-2.12c-.81-.49-5.18-1.78-6-2.27A2,2,0,0,1,7.54,32l.92-4.65a2,2,0,0,0,1.19,2.12c.81.49,5.18,1.78,6,2.27a2,2,0,0,1,1.19,2.12Z" stroke="#053755" stroke-linejoin="round" fill="url(#d)"/><path d="M17.75,29.2a2,2,0,0,0-1.18-2.12c-.81-.49-5.18-1.78-6-2.27a2,2,0,0,1-1.19-2.12L10.32,18a2,2,0,0,0,1.19,2.12c.81.49,5.18,1.78,6,2.27a2,2,0,0,1,1.18,2.12Z" stroke="#053755" stroke-linejoin="round" fill="url(#d)"/><path d="M19.61,19.9a2,2,0,0,0-1.18-2.12c-.81-.49-5.18-1.78-6-2.27a2,2,0,0,1-1.19-2.12l.93-4.65a2,2,0,0,0,1.19,2.12c.81.49,5.17,1.78,6,2.27a2,2,0,0,1,1.19,2.12Z" stroke="#053755" stroke-linejoin="round" fill="url(#d)"/><path d="M12.18,8.74c.22-1.09,2.3-1.52,3.41-.93,6.91,3.69,5.78.31,8.91.69,3.47.42,3,5,3,5" fill="none" stroke="#053755" stroke-linecap="round" stroke-linejoin="round"/><path d="M18.94,13.81a3.14,3.14,0,0,0-.48-.23l-.62,3.08a7.39,7.39,0,0,1,1,.45,4.13,4.13,0,0,1,.46.32l.47-2.34C19.81,14.9,19.91,14.39,18.94,13.81Z" opacity="0.5" fill="url(#g)"/><path d="M17.09,23.11a2.67,2.67,0,0,0-.49-.22L16,26a7.14,7.14,0,0,1,1,.45,4.13,4.13,0,0,1,.46.32l.47-2.34C18,24.2,18.05,23.69,17.09,23.11Z" opacity="0.5" fill="url(#h)"/><path d="M15.23,32.41a2.67,2.67,0,0,0-.49-.22l-.61,3.07a6.62,6.62,0,0,1,1,.45,4.29,4.29,0,0,1,.47.32l.46-2.34C16.09,33.5,16.19,33,15.23,32.41Z" opacity="0.5" fill="url(#i)"/><path d="M27.5,13.5c0,.8,1.28,2.88,1.28,4.7,0,2.63-3,3.33-4.28,8.3-1.28,5.13-1.31,11-5,11-1,0-1,0,0-1,.71-.71,4,0,5,1a1.5,1.5,0,0,0,1,.25c2.43,0,8-2.08,8-6.25,0-5-1-7-1-10a1.72,1.72,0,0,1,1.41-1.7" fill="none" stroke="#3a3634" stroke-linecap="round" stroke-linejoin="round"/><path d="M27.5,13.5c-1.79,5.9-5.66,6.23-6,10.06-.5,5.69,1.44,8.71,1.17,11.08,1.08-2.57,2.07-6.6,3.46-10s2.65-4,2.65-6.41C28.78,16.33,27.5,14.6,27.5,13.5Z" stroke="#3a3634" stroke-linejoin="round" fill="url(#j)"/><path d="M24.92,19l-.73.79c-1.14,1.19-2,2.14-2.19,3.82A19.53,19.53,0,0,0,22.09,28h2.3c.4-1.21.81-2.42,1.28-3.58a20.36,20.36,0,0,1,1.51-3,7.1,7.1,0,0,0,1-2.43Z" fill="#00b8de" opacity="0.3"/><path d="M27.55,15.43l-.12-.28c-.17.41-.36.78-.55,1.14a5.72,5.72,0,0,1,.4,1.91,5.84,5.84,0,0,1-1.1,3.23,20.36,20.36,0,0,0-1.51,3c-.73,1.79-1.33,3.7-1.92,5.55-.06.21-.13.4-.19.6s.1.45.15.66c.1.4.19.78.26,1.15.26-.76.52-1.57.78-2.41.59-1.85,1.19-3.76,1.92-5.55a20.36,20.36,0,0,1,1.51-3,5.84,5.84,0,0,0,1.1-3.23A7.73,7.73,0,0,0,27.55,15.43Z" opacity="0.3"/><path d="M25.35,37.75c1.3-.14,4.41-3.81,4.39-7s.62-10.14,4.17-10.91c0,0-1.87-.15-1.27,3.7a57.15,57.15,0,0,1,.86,8C33.5,33.15,32,37.32,25.35,37.75Z" stroke="#3a3634" stroke-linejoin="round" fill="url(#k)"/><path d="M30.24,30.7a7.76,7.76,0,0,1-.72,3.05l2.29.69A5,5,0,0,0,33,31.5a35.85,35.85,0,0,0-.35-4.37l-2.14-.43A26.66,26.66,0,0,0,30.24,30.7Z" fill="#00b8de" opacity="0.3"/><path d="M31.24,30.7a23.42,23.42,0,0,1,.93-6.95,1,1,0,0,1,0-.17A9,9,0,0,1,32,21.86c-1.42,2.22-1.82,6.24-1.79,8.84A10.05,10.05,0,0,1,27.41,37a9.88,9.88,0,0,0,1.36-.41A9.82,9.82,0,0,0,31.24,30.7Z" fill="#fff" opacity="0.5"/><g mask="url(#l)"><rect x="4" y="43" width="7" height="7" fill="#005686"/><path d="M7.66,47.35v-.59H9.79v1.86a3.86,3.86,0,0,1-1,.58,3.07,3.07,0,0,1-1.07.2,2.85,2.85,0,0,1-1.34-.32,2.05,2.05,0,0,1-.91-.91,2.84,2.84,0,0,1-.31-1.34,3,3,0,0,1,.31-1.36,2,2,0,0,1,.88-.95,2.79,2.79,0,0,1,1.32-.3,2.76,2.76,0,0,1,1,.17,1.7,1.7,0,0,1,.69.49,2.23,2.23,0,0,1,.38.82l-.6.17a1.68,1.68,0,0,0-.28-.6,1,1,0,0,0-.48-.35,1.67,1.67,0,0,0-.69-.14,2.05,2.05,0,0,0-.78.14,1.52,1.52,0,0,0-.54.37,1.69,1.69,0,0,0-.31.49,2.6,2.6,0,0,0-.2,1,2.48,2.48,0,0,0,.23,1.12,1.47,1.47,0,0,0,.68.67,2,2,0,0,0,.93.22,2.21,2.21,0,0,0,.84-.17,2,2,0,0,0,.62-.35v-.93Z" fill="#fff"/><rect x="4" y="50" width="7" height="7" fill="#005686"/><path d="M7.66,54.35v-.59H9.79v1.86a3.86,3.86,0,0,1-1,.58,3.07,3.07,0,0,1-1.07.2,2.85,2.85,0,0,1-1.34-.32,2.05,2.05,0,0,1-.91-.91,2.84,2.84,0,0,1-.31-1.34,3,3,0,0,1,.31-1.36,2,2,0,0,1,.88-.95,2.79,2.79,0,0,1,1.32-.3,2.76,2.76,0,0,1,1,.17,1.7,1.7,0,0,1,.69.49,2.23,2.23,0,0,1,.38.82l-.6.17a1.68,1.68,0,0,0-.28-.6,1,1,0,0,0-.48-.35,1.67,1.67,0,0,0-.69-.14,2.05,2.05,0,0,0-.78.14,1.52,1.52,0,0,0-.54.37,1.69,1.69,0,0,0-.31.49,2.6,2.6,0,0,0-.2,1,2.48,2.48,0,0,0,.23,1.12,1.47,1.47,0,0,0,.68.67,2,2,0,0,0,.93.22,2.21,2.21,0,0,0,.84-.17,2,2,0,0,0,.62-.35v-.93Z" fill="#fff"/><rect x="11" y="43" width="7" height="7" fill="#368ec4"/><path d="M14.18,49.31v-5h.66v5Z" fill="#fff"/><rect x="11" y="50" width="7" height="7" fill="#368ec4"/><path d="M14.14,56.31l-1.94-5h.71l1.31,3.64c.1.29.19.57.26.82.08-.27.17-.55.27-.82L16.1,51.3h.68l-2,5Z" fill="#fff"/><rect x="18" y="43" width="7" height="7" fill="#005686"/><path d="M21.14,49.31l-1.94-5h.71l1.31,3.64c.1.29.19.57.26.82.08-.27.17-.55.27-.82L23.1,44.3h.68l-2,5Z" fill="#fff"/><rect x="18" y="50" width="7" height="7" fill="#005686"/><path d="M21.14,56.31l-1.94-5h.71l1.31,3.64c.1.29.19.57.26.82.08-.27.17-.55.27-.82L23.1,51.3h.68l-2,5Z" fill="#fff"/><rect x="25" y="43" width="7" height="7" fill="#368ec4"/><path d="M26.72,49.31v-5h3.62v.59h-3v1.54h2.77V47H27.38v1.7h3.08v.59Z" fill="#fff"/><rect x="25" y="50" width="7" height="7" fill="#368ec4"/><path d="M26.51,56.31v-5h1.73a4.74,4.74,0,0,1,.89.07,1.83,1.83,0,0,1,.74.36,2.1,2.1,0,0,1,.59.86,3.37,3.37,0,0,1,.2,1.19,3.42,3.42,0,0,1-.14,1,2.36,2.36,0,0,1-.34.73,1.83,1.83,0,0,1-.46.46,1.87,1.87,0,0,1-.59.25,4,4,0,0,1-.81.08Zm.67-.59h1.07a2.61,2.61,0,0,0,.77-.09,1.09,1.09,0,0,0,.45-.26,1.62,1.62,0,0,0,.37-.63,3.08,3.08,0,0,0,.13-1,2.27,2.27,0,0,0-.26-1.21,1.27,1.27,0,0,0-.62-.56,2.55,2.55,0,0,0-.86-.11H27.18Z" fill="#fff"/><rect x="32" y="43" width="7" height="7" fill="#78befa"/><path d="M37.12,48.78a4,4,0,0,0,.85.46l-.2.46a3.94,3.94,0,0,1-1.08-.61,2.55,2.55,0,0,1-1.23.31,2.36,2.36,0,0,1-1.23-.33,2.22,2.22,0,0,1-.85-.92,3.17,3.17,0,0,1,0-2.69,2.1,2.1,0,0,1,.86-.93,2.46,2.46,0,0,1,1.24-.32,2.41,2.41,0,0,1,1.25.33,2.19,2.19,0,0,1,.85.93,3.28,3.28,0,0,1,.1,2.45A2.33,2.33,0,0,1,37.12,48.78Zm-1.46-.85a2.53,2.53,0,0,1,.94.48,2.08,2.08,0,0,0,.59-1.61A2.51,2.51,0,0,0,37,45.74a1.59,1.59,0,0,0-.6-.7,1.72,1.72,0,0,0-2.13.25,2.57,2.57,0,0,0,0,3,1.59,1.59,0,0,0,1.23.52,1.67,1.67,0,0,0,.67-.13,2.15,2.15,0,0,0-.66-.29Z" fill="#fff"/><rect x="32" y="50" width="7" height="7" fill="#78befa"/><path d="M33.48,54.7l.63-.05a1.33,1.33,0,0,0,.2.61,1,1,0,0,0,.51.39,1.86,1.86,0,0,0,.77.15,1.78,1.78,0,0,0,.67-.11.94.94,0,0,0,.43-.31.74.74,0,0,0,.14-.43.66.66,0,0,0-.14-.41,1,1,0,0,0-.45-.3c-.13-.05-.43-.13-.89-.24a4.6,4.6,0,0,1-1-.31,1.3,1.3,0,0,1-.53-.47,1.1,1.1,0,0,1-.18-.62,1.22,1.22,0,0,1,.22-.71,1.28,1.28,0,0,1,.63-.5,2.25,2.25,0,0,1,.92-.17,2.52,2.52,0,0,1,1,.18,1.41,1.41,0,0,1,.65.52,1.48,1.48,0,0,1,.25.79l-.64,0a1,1,0,0,0-.34-.72,1.38,1.38,0,0,0-.88-.24,1.36,1.36,0,0,0-.87.22.66.66,0,0,0-.28.53.59.59,0,0,0,.2.45,2.69,2.69,0,0,0,1,.35,8.49,8.49,0,0,1,1.11.32,1.61,1.61,0,0,1,.64.51,1.27,1.27,0,0,1,.21.72,1.38,1.38,0,0,1-.23.75,1.44,1.44,0,0,1-.66.55,2.29,2.29,0,0,1-1,.2,2.88,2.88,0,0,1-1.14-.2,1.52,1.52,0,0,1-.72-.6A1.63,1.63,0,0,1,33.48,54.7Z" fill="#fff"/><rect x="39" y="43" width="7" height="7" fill="#005686"/><path d="M44.09,47.56l.66.16A2.25,2.25,0,0,1,44,49a2.09,2.09,0,0,1-1.32.43,2.39,2.39,0,0,1-1.32-.33,2,2,0,0,1-.77-1,3.31,3.31,0,0,1-.27-1.34,3,3,0,0,1,.3-1.37,2.06,2.06,0,0,1,.85-.88,2.51,2.51,0,0,1,1.22-.3,1.93,1.93,0,0,1,2,1.46l-.66.15a1.51,1.51,0,0,0-.5-.8,1.4,1.4,0,0,0-.84-.25,1.65,1.65,0,0,0-1,.28,1.51,1.51,0,0,0-.55.74,3.23,3.23,0,0,0-.16,1,3.14,3.14,0,0,0,.19,1.11,1.38,1.38,0,0,0,.58.71,1.61,1.61,0,0,0,.85.24,1.43,1.43,0,0,0,.94-.32A1.64,1.64,0,0,0,44.09,47.56Z" fill="#fff"/><rect x="39" y="50" width="7" height="7" fill="#005686"/><path d="M42.66,54.35v-.59h2.13v1.86a3.86,3.86,0,0,1-1,.58,3.07,3.07,0,0,1-1.07.2,2.85,2.85,0,0,1-1.34-.32,2.05,2.05,0,0,1-.91-.91,2.84,2.84,0,0,1-.31-1.34,3,3,0,0,1,.31-1.36,2,2,0,0,1,.88-.95,2.79,2.79,0,0,1,1.32-.3,2.76,2.76,0,0,1,1,.17,1.7,1.7,0,0,1,.69.49,2.23,2.23,0,0,1,.38.82l-.6.17a1.68,1.68,0,0,0-.28-.6,1,1,0,0,0-.48-.35,1.67,1.67,0,0,0-.69-.14,2.05,2.05,0,0,0-.78.14,1.52,1.52,0,0,0-.54.37,1.69,1.69,0,0,0-.31.49,2.6,2.6,0,0,0-.2,1,2.48,2.48,0,0,0,.23,1.12,1.47,1.47,0,0,0,.68.67,2,2,0,0,0,.93.22,2.21,2.21,0,0,0,.84-.17,2,2,0,0,0,.62-.35v-.93Z" fill="#fff"/><rect x="46" y="43" width="7" height="7" fill="#005686"/><path d="M51.09,47.56l.66.16A2.25,2.25,0,0,1,51,49a2.09,2.09,0,0,1-1.32.43,2.39,2.39,0,0,1-1.32-.33,2,2,0,0,1-.77-1,3.31,3.31,0,0,1-.27-1.34,3,3,0,0,1,.3-1.37,2.06,2.06,0,0,1,.85-.88,2.51,2.51,0,0,1,1.22-.3,1.93,1.93,0,0,1,2,1.46l-.66.15a1.51,1.51,0,0,0-.5-.8,1.4,1.4,0,0,0-.84-.25,1.65,1.65,0,0,0-1,.28,1.51,1.51,0,0,0-.55.74,3.23,3.23,0,0,0-.16,1,3.14,3.14,0,0,0,.19,1.11,1.38,1.38,0,0,0,.58.71,1.61,1.61,0,0,0,.85.24,1.43,1.43,0,0,0,.94-.32A1.64,1.64,0,0,0,51.09,47.56Z" fill="#fff"/><rect x="46" y="50" width="7" height="7" fill="#005686"/><path d="M49.66,54.35v-.59h2.13v1.86a3.86,3.86,0,0,1-1,.58,3.07,3.07,0,0,1-1.07.2,2.85,2.85,0,0,1-1.34-.32,2.05,2.05,0,0,1-.91-.91,2.84,2.84,0,0,1-.31-1.34,3,3,0,0,1,.31-1.36,2,2,0,0,1,.88-.95,2.79,2.79,0,0,1,1.32-.3,2.76,2.76,0,0,1,1,.17,1.7,1.7,0,0,1,.69.49,2.23,2.23,0,0,1,.38.82l-.6.17a1.68,1.68,0,0,0-.28-.6,1,1,0,0,0-.48-.35,1.67,1.67,0,0,0-.69-.14,2.05,2.05,0,0,0-.78.14,1.52,1.52,0,0,0-.54.37,1.69,1.69,0,0,0-.31.49,2.6,2.6,0,0,0-.2,1,2.48,2.48,0,0,0,.23,1.12,1.47,1.47,0,0,0,.68.67,2,2,0,0,0,.93.22,2.21,2.21,0,0,0,.84-.17,2,2,0,0,0,.62-.35v-.93Z" fill="#fff"/><rect x="53" y="43" width="7" height="7" fill="#368ec4"/><path d="M56.24,49.31V44.89H54.59V44.3h4v.59H56.9v4.42Z" fill="#fff"/><rect x="53" y="50" width="7" height="7" fill="#368ec4"/><path d="M54.52,56.31v-5h2.22a2.92,2.92,0,0,1,1,.14,1.12,1.12,0,0,1,.56.47,1.43,1.43,0,0,1,.21.76,1.29,1.29,0,0,1-.35.9,1.71,1.71,0,0,1-1.06.46,2.16,2.16,0,0,1,.4.25,3.86,3.86,0,0,1,.55.67l.87,1.36h-.83l-.67-1a7.54,7.54,0,0,0-.48-.69,1.53,1.53,0,0,0-.33-.34,1.2,1.2,0,0,0-.31-.13l-.36,0h-.77v2.22Zm.67-2.8h1.42a2.23,2.23,0,0,0,.71-.09.74.74,0,0,0,.39-.3.82.82,0,0,0,.14-.45.77.77,0,0,0-.26-.59,1.24,1.24,0,0,0-.82-.22H55.19Z" fill="#fff"/></g><rect x="47.04" y="18.33" width="2.89" height="1" transform="translate(-3.5 16.96) rotate(-19.16)" fill="#fff" stroke="#fff" stroke-linejoin="round" stroke-width="3" opacity="0.5"/><rect x="50.32" y="21.17" width="2.89" height="1" transform="translate(20.78 68.46) rotate(-79.19)" fill="#fff" stroke="#fff" stroke-linejoin="round" stroke-width="3" opacity="0.5"/><rect x="47.17" y="21.65" width="1" height="2.89" transform="translate(-0.97 44.08) rotate(-49.18)" fill="#fff" stroke="#fff" stroke-linejoin="round" stroke-width="3" opacity="0.5"/><path d="M57.83,19.1a2.5,2.5,0,0,0-2.5-2.5,2.59,2.59,0,0,0-1.07.25l-1.38-1.18a2.6,2.6,0,0,0,.12-.74,2.51,2.51,0,0,0-1.08-2.06l.34-1.77a2.5,2.5,0,1,0-2-.37L50,12.5A2.5,2.5,0,0,0,48,14.74l-1.71.59a2.51,2.51,0,0,0-1.83-.8,2.37,2.37,0,0,0-1.07.25L42,13.59a2.49,2.49,0,1,0-2.38,1.77,2.59,2.59,0,0,0,1.08-.25L42.1,16.3a2.44,2.44,0,0,0,1,2.79l-.34,1.77a2.5,2.5,0,0,0,.55,4.94,2.46,2.46,0,0,0,1.08-.26l1.37,1.19a2.59,2.59,0,0,0-.12.73,2.51,2.51,0,0,0,1.09,2.07l-.34,1.77a2.5,2.5,0,0,0-1.93,2.24l-1.71.59a2.5,2.5,0,1,0-3.24,3.76l-.34,1.77a2.5,2.5,0,0,0-1.93,2.24l-1.72.6a2.44,2.44,0,0,0-1.82-.81,2.5,2.5,0,1,0,2.48,2.7l1.71-.6A2.5,2.5,0,1,0,41.1,40l.34-1.77A2.5,2.5,0,0,0,43.37,36l1.72-.59A2.47,2.47,0,0,0,48,36l1.37,1.19a2.49,2.49,0,1,0,2.38-1.77,2.55,2.55,0,0,0-1.07.25l-1.38-1.19a2.48,2.48,0,0,0,.12-.73,2.51,2.51,0,0,0-1.08-2.06l.33-1.77a2.5,2.5,0,0,0,1.93-2.24l1.72-.6a2.46,2.46,0,0,0,1.83.81,2.5,2.5,0,0,0,1.41-4.56l.34-1.77A2.51,2.51,0,0,0,57.83,19.1Zm-6.17,6.07-1.72.6A2.52,2.52,0,0,0,48.11,25a2.41,2.41,0,0,0-1.07.26L45.66,24a2.59,2.59,0,0,0,.12-.73,2.48,2.48,0,0,0-1.09-2.06L45,19.46A2.5,2.5,0,0,0,47,17.23l1.72-.6a2.47,2.47,0,0,0,2.9.55L53,18.37a2.24,2.24,0,0,0-.13.73,2.51,2.51,0,0,0,1.09,2.06l-.34,1.78A2.46,2.46,0,0,0,51.66,25.17Z" fill="#fff" stroke="#fff" stroke-linejoin="round" stroke-width="3" opacity="0.5"/><polygon points="54.14 25.37 55.33 19.1 50.51 14.93 44.48 17.03 43.28 23.3 48.11 27.46 54.14 25.37" fill="none" stroke="#323232" stroke-linejoin="round" stroke-width="2"/><line x1="49.85" y1="18.36" x2="47.12" y2="19.31" fill="none" stroke="#323232" stroke-linejoin="round"/><line x1="51.5" y1="23.09" x2="52.04" y2="20.25" fill="none" stroke="#323232" stroke-linejoin="round"/><line x1="46.58" y1="22.15" x2="48.77" y2="24.04" fill="none" stroke="#323232" stroke-linejoin="round"/><polyline points="39.65 12.86 44.48 17.03 50.51 14.93 51.7 8.67" fill="none" stroke="#323232" stroke-linejoin="round" stroke-width="2"/><line x1="46.91" y1="33.73" x2="51.74" y2="37.9" fill="none" stroke="#323232" stroke-linejoin="round" stroke-width="2"/><polyline points="33.67 44.19 39.69 42.09 40.89 35.83 46.91 33.73 48.11 27.46" fill="none" stroke="#323232" stroke-linejoin="round" stroke-width="2"/><circle cx="39.69" cy="42.09" r="2" stroke="#003755" stroke-linejoin="round" fill="url(#m)"/><circle cx="40.89" cy="35.83" r="2" stroke="#323232" stroke-linejoin="round" fill="url(#n)"/><circle cx="33.67" cy="44.19" r="2" stroke="#323232" stroke-linejoin="round" fill="url(#o)"/><circle cx="46.91" cy="33.73" r="2" stroke="#323232" stroke-linejoin="round" fill="url(#p)"/><circle cx="48.11" cy="27.47" r="2" stroke="#323232" stroke-linejoin="round" fill="url(#q)"/><circle cx="43.28" cy="23.3" r="2" stroke="#323232" stroke-linejoin="round" fill="url(#r)"/><circle cx="44.48" cy="17.03" r="2" stroke="#323232" stroke-linejoin="round" fill="url(#s)"/><circle cx="50.5" cy="14.93" r="2" stroke="#323232" stroke-linejoin="round" fill="url(#t)"/><circle cx="55.33" cy="19.1" r="2" stroke="#323232" stroke-linejoin="round" fill="url(#u)"/><circle cx="54.14" cy="25.37" r="2" stroke="#323232" stroke-linejoin="round" fill="url(#v)"/><circle cx="51.7" cy="8.67" r="2" stroke="#323232" stroke-linejoin="round" fill="url(#w)"/><circle cx="39.65" cy="12.86" r="2" stroke="#323232" stroke-linejoin="round" fill="url(#x)"/><circle cx="51.74" cy="37.9" r="2" stroke="#323232" stroke-linejoin="round" fill="url(#y)"/></svg>