<svg xmlns="http://www.w3.org/2000/svg" xmlns:xlink="http://www.w3.org/1999/xlink" viewBox="0 0 64 64"><defs><style>.cls-1{isolation:isolate;}.cls-17,.cls-2{fill:#fff;}.cls-3{fill:#003755;}.cls-4{fill:url(#linear-gradient);}.cls-5{fill:url(#SKETCH_BLUE_gradient);}.cls-6{fill:url(#linear-gradient-3);}.cls-7{fill:url(#linear-gradient-4);}.cls-8{fill:url(#linear-gradient-5);}.cls-9{fill:#1c1c1c;}.cls-10{fill:url(#linear-gradient-6);}.cls-11{fill:url(#Medium_BLUE_gradient_FRONT);}.cls-12,.cls-13{mix-blend-mode:color-burn;}.cls-12{fill:url(#Medium_BLUE_gradient_FRONT-2);}.cls-13{fill:url(#Medium_BLUE_gradient_FRONT-3);}.cls-14{fill:url(#linear-gradient-7);}.cls-15{fill:url(#linear-gradient-8);}.cls-16{fill:#285977;}.cls-17,.cls-19{stroke:#285977;stroke-linecap:round;stroke-linejoin:round;}.cls-18{fill:url(#linear-gradient-9);}.cls-19{fill:none;}</style><linearGradient id="linear-gradient" x1="14.68" y1="28.49" x2="49.99" y2="28.49" gradientUnits="userSpaceOnUse"><stop offset="0.74" stop-color="#8cd7f5"/><stop offset="1" stop-color="#376e8c"/></linearGradient><linearGradient id="SKETCH_BLUE_gradient" x1="14.68" y1="28.49" x2="49.99" y2="28.49" gradientUnits="userSpaceOnUse"><stop offset="0" stop-color="#3287af"/><stop offset="1" stop-color="#285a78"/></linearGradient><linearGradient id="linear-gradient-3" x1="34.97" y1="30.68" x2="45.19" y2="48.38" gradientUnits="userSpaceOnUse"><stop offset="0" stop-color="#fff"/><stop offset="1" stop-color="#d2d2d2"/></linearGradient><linearGradient id="linear-gradient-4" x1="50.5" y1="32.36" x2="56.08" y2="42.03" gradientUnits="userSpaceOnUse"><stop offset="0" stop-color="#d7d7d7"/><stop offset="1" stop-color="#969696"/></linearGradient><linearGradient id="linear-gradient-5" x1="18.73" y1="34.24" x2="58.09" y2="34.24" xlink:href="#linear-gradient"/><linearGradient id="linear-gradient-6" x1="12.34" y1="34.06" x2="24.82" y2="33.87" gradientUnits="userSpaceOnUse"><stop offset="0" stop-color="#d4eff5"/><stop offset="0.32" stop-color="#e9f7fa"/><stop offset="1" stop-color="#a9dfec"/></linearGradient><linearGradient id="Medium_BLUE_gradient_FRONT" x1="8.96" y1="42.9" x2="29.47" y2="42.9" gradientUnits="userSpaceOnUse"><stop offset="0" stop-color="#8cd7f5"/><stop offset="1" stop-color="#376e8c"/></linearGradient><linearGradient id="Medium_BLUE_gradient_FRONT-2" x1="9.01" y1="47.6" x2="29.5" y2="47.6" xlink:href="#Medium_BLUE_gradient_FRONT"/><linearGradient id="Medium_BLUE_gradient_FRONT-3" x1="12.82" y1="41.43" x2="25.95" y2="41.43" xlink:href="#Medium_BLUE_gradient_FRONT"/><linearGradient id="linear-gradient-7" x1="16.19" y1="32.95" x2="19.2" y2="33.33" gradientUnits="userSpaceOnUse"><stop offset="0" stop-color="#fff"/><stop offset="1" stop-color="#e9f7fa"/></linearGradient><linearGradient id="linear-gradient-8" x1="13.27" y1="39.66" x2="18.37" y2="41.12" gradientUnits="userSpaceOnUse"><stop offset="0.34" stop-color="#a0e1fa"/><stop offset="0.34" stop-color="#98dcf6"/><stop offset="0.36" stop-color="#87d1ec"/><stop offset="0.37" stop-color="#7cc9e6"/><stop offset="0.4" stop-color="#75c4e2"/><stop offset="0.47" stop-color="#73c3e1"/></linearGradient><linearGradient id="linear-gradient-9" x1="15.03" y1="13.03" x2="22.66" y2="12.92" gradientUnits="userSpaceOnUse"><stop offset="0" stop-color="#bee7f1"/><stop offset="0.32" stop-color="#e9f7fa"/><stop offset="1" stop-color="#94d6e7"/></linearGradient></defs><title>2100_A33AAe__R21XArtboard 1</title><g class="cls-1"><g id="meme_taille_copy_2" data-name="meme taille copy 2"><g id="V_03_notes_copy_4" data-name="V 03 notes   *** copy 4"><g id="LIVRE_N_Bleu_03_copy_4" data-name="LIVRE (N) Bleu 03  ***** copy 4"><g id="F_support_BAS" data-name="F   support   BAS"><path id="fond_Blanc" data-name="fond  ²Blanc" class="cls-2" d="M15.05,38.32c-.52-.07-.78-2.51-.32-3L24.51,22.1a1.63,1.63,0,0,1,1.33-.85H46c.64,0,1,.26,1.11.82l2.73,15.32c0,.29-.21.58-.78.61Z"/><path class="cls-3" d="M46.14,22.7a1,1,0,0,1,.92.71L49.8,37.59a.62.62,0,0,1-.66.72H15c-.43,0-.74-2.31-.23-3.08l9.77-11.71a1.71,1.71,0,0,1,1.18-.81H46.14m0-.72H25.72a2.5,2.5,0,0,0-1.87,1.18L13.93,34.79c-.24.39-.52,3,0,3.69A1.28,1.28,0,0,0,15,39H49.14a1.51,1.51,0,0,0,1.12-.44,1.28,1.28,0,0,0,.32-1.09L47.84,23.3A1.73,1.73,0,0,0,46.14,22Z"/></g><g id="F_support" data-name="F   support"><path id="fond" class="cls-4" d="M15.34,35.39c-.35,0-1.11,0-.3-.82l9.78-12.24a1.65,1.65,0,0,1,1.29-.75H46.27c.63,0,.88.23,1,.69L50,34.87c.05.23-.17.49-.74.51Z"/><path id="fond-2" data-name="fond" class="cls-4" d="M15.34,35.39c-.35,0-1.11,0-.3-.82l9.78-12.24a1.65,1.65,0,0,1,1.29-.75H46.27c.63,0,.88.23,1,.69L50,34.87c.05.23-.17.49-.74.51Z"/><path id="fond-3" data-name="fond" class="cls-5" d="M15.34,35.39c-.35,0-1.11,0-.3-.82l9.78-12.24a1.65,1.65,0,0,1,1.29-.75H46.27c.63,0,.88.23,1,.69L50,34.87c.05.23-.17.49-.74.51Z"/><path class="cls-3" d="M46.27,21.58a1.13,1.13,0,0,1,1,.69L50,34.87c.07.31-.3.51-.74.51H15.34c-.43,0-.79-.22-.58-.5L24.82,22.33a2.14,2.14,0,0,1,1.29-.75H46.27m0-.58H26.06A2.58,2.58,0,0,0,24.2,22L14.07,34.61a.71.71,0,0,0,0,.93,1.43,1.43,0,0,0,1.13.43H49.3a1.75,1.75,0,0,0,1.13-.38.88.88,0,0,0,.31-.88L48,22.06A1.69,1.69,0,0,0,46.3,21Z"/><path class="cls-3" d="M26.09,21a2.66,2.66,0,0,0-2,1.07l-10,12.48c-.55.68,0,1.41.93,1.41h3.58l9.47-15Z"/></g><g id="ETIQUETTE_" data-name="ETIQUETTE  *"><polygon class="cls-2" points="44.48 26.18 30.44 26.18 32.01 23.02 44.09 23 44.48 26.18"/></g></g><g id="Live_W_copy_9" data-name="Live  (W) copy 9"><g id="CAHIER_DESOUS" data-name="CAHIER DESOUS"><path id="_CompBLANC_ound_Path_" data-name="&lt;CompBLANC   ***ound Path&gt;" class="cls-2" d="M57.85,29.89C55.48,29.6,37,27.59,37,27.59a2.06,2.06,0,0,0-1.3.21L16.31,40.53c-.68.53-.91,2.65.48,2.84L47,46.62c.76.09,2.18,0,2.59-.64l8.73-15.25C58.68,30.12,58,29.92,57.85,29.89Z"/><path class="cls-3" d="M58.26,29.8a3.39,3.39,0,0,0-.72-.13L40.08,27.74,37.4,27.5a2.08,2.08,0,0,0-1.31.21L16.51,40.88c-.67.52-.9,2.64.49,2.83L47.23,47c.76.08,2.18,0,2.6-.65l8.94-15.69C59.09,30,58.44,29.86,58.26,29.8Zm.17.81L49.36,46.23c-.28.45-1.41.51-1.92.45L17,43.27v-2L39.93,27.88l17.52,1.94C57.64,29.84,59,29.9,58.43,30.61Z"/><path class="cls-6" d="M48.67,46.37l-31-3.19c-.44-.13-.78-2,.27-2.68S48,43.6,48,43.6l9.92-15.71c-.56,1.11-.51,2.24.31,2.66Z"/><path class="cls-7" d="M48.63,46.34A7.09,7.09,0,0,1,48,44.52a2.64,2.64,0,0,1,.47-1.61L58,28.05c0,.52-.51,2,.31,2.46Z"/></g><g id="CAHIER_OK_top_" data-name="CAHIER  OK top   ****"><path class="cls-8" d="M48.68,42.83s-.33.57-1.74.44-28.21-3-28.21-3L37.45,25.18,57.23,27a3.86,3.86,0,0,1,.49.09c.21.06.45.16.35.32L48.68,42.83Z"/><path id="marge_cahier" data-name="marge cahier" class="cls-9" d="M40.14,25.26,40,25.4,21.25,40.58l-.32.25-3.66-.41c-.44-.05-1-.33-.47-.69l19.35-14.5A2.16,2.16,0,0,1,37.46,25Z"/><path class="cls-3" d="M58.05,26.94c.18,0,.66.22.51.46L49.34,42.91a1.94,1.94,0,0,1-2,.76l-29-3.11.67-.48,27.71,3.09c.51,0,1.68,0,2-.5l9.32-15.31c.17-.28-.65-.39-.84-.41L37.45,25.18l.17-.14,19.71,1.77A3.39,3.39,0,0,1,58.05,26.94Z"/><path id="marge_cahier-2" data-name="marge cahier" d="M40.14,25.26,40,25.4,21.25,40.58l-.32.25-3.66-.41c-.44-.05-1-.33-.47-.69l19.35-14.5A2.16,2.16,0,0,1,37.46,25Z"/><path id="marge_etiquette_" data-name="marge  etiquette  ****" class="cls-3" d="M41.12,29.59l9.82,1L53,27.79,43.78,27Z"/></g><path id="_N_OK_" data-name="(N)    OK  ******" class="cls-3" d="M36.84,40.31l5.07-4.85,2.55.23v3.42l2.47-3.19L49,36.2l-4.19,5.18-2.4-.26V37L39,40.57Z"/></g></g><g id="carafe_copy_3" data-name="carafe   *** copy 3"><path class="cls-10" d="M14,16V31S6,45,6,47.93,14.75,52,19,52s13-1.16,13-4.09S24,31,24,31V16Z"/><path class="cls-11" d="M23.89,36.27c2.18,3.39,5.58,8.69,5.58,10.32,0,2.39-6.2,2.93-9.68,2.93S9,49.8,9,46.59c0-1.47,2.74-6,4.81-9.26a10.81,10.81,0,0,1,3.39-.92c1.34,0,3.51.92,4.56.92C22.47,37.33,23.2,36.65,23.89,36.27Z"/><path class="cls-12" d="M23.89,45.52c2,3.12,5.61-.35,5.61,1.16,0,2.19-6.73,3-9.93,3S9,49.63,9,46.68c0-1.36,2.65,2.85,4.56-.19a15.38,15.38,0,0,1,3.58-.85c1.24,0,3.23.86,4.19.86A7.21,7.21,0,0,0,23.89,45.52Z"/><path class="cls-13" d="M23.57,36.51A25.22,25.22,0,0,1,26,46c0,2.19-4.79-4.77-7.47-4.77s-4.67,2.45-4.67-.5c0-1.36-2-.31-.36-3.35a11.31,11.31,0,0,1,3-.84c1,0,4.17,1,5,1A5.48,5.48,0,0,0,23.57,36.51Z"/><polygon class="cls-14" points="18.79 18.69 18.79 32.99 17.68 47.73 10.21 45.91 16.64 33.03 16.64 18.69 18.79 18.69"/><path class="cls-15" d="M16.67,36.64c-.4-.5-.59.07-.93.17l-4.33,9.35a3.3,3.3,0,0,1,2.13.56c1,.71,3.16.19,3.16.19l1.32-13C17.49,33.74,17.29,37.38,16.67,36.64Z"/><path class="cls-16" d="M23,17V31.27l.13.23C26.18,36.81,31,46,31,47.9,31,49.38,24.74,51,19,51c-3.87,0-10.11-.88-11.75-2.54C7,48.18,7,48,7,47.94c0-2,4.84-11.16,7.87-16.44l.13-.23V17h8m1-1H14V31S6,44.9,6,47.93,14.75,52,19,52s13-1.16,13-4.09S24,31,24,31V16Z"/><path class="cls-17" d="M11.74,11.64H26.26a1.21,1.21,0,0,1,1.21,1.21v2.42a1.21,1.21,0,0,1-1.21,1.21H11.68a1.16,1.16,0,0,1-1.15-1.21V12.85A1.21,1.21,0,0,1,11.74,11.64Z"/><rect class="cls-18" x="11.05" y="12.09" width="15.86" height="1.76"/><rect class="cls-19" x="10.49" y="11.47" width="16.94" height="4.84" rx="1.21"/></g></g></g></svg>