<svg xmlns="http://www.w3.org/2000/svg" xmlns:xlink="http://www.w3.org/1999/xlink" viewBox="0 0 64 64"><defs><style>.DARK-GREY-Fill-11{fill:url(#linear-gradient);}.White-OUTLINE-4,.cls-1{fill:none;}.cls-1{stroke:#3a3634;}.Blue-LEFT-3,.Blue-RIGHT\,-FRONT-\&amp;-SINGLE,.Blue-TOP-4,.White-OUTLINE-4,.White-TOP-10,.cls-1{stroke-linejoin:round;}.cls-2{fill:#f4f5f6;}.cls-3{fill:#78befa;}.cls-4{fill:#42a2da;}.cls-5{fill:#368ec4;}.cls-6{fill:#005686;}.De-emphasized-GREY-fill-2{fill:#646464;opacity:0.5;}.DARK-GREY-Fill-10{fill:url(#linear-gradient-2);}.cls-7{fill:#003c5a;}.cls-8{opacity:0.3;fill:url(#Dégradé_sans_nom_5);}.cls-9{fill:url(#linear-gradient-3);}.White-TOP-10{stroke:#787878;fill:url(#linear-gradient-4);}.cls-10{fill:url(#linear-gradient-5);}.cls-11{fill:url(#linear-gradient-6);}.cls-12{fill:url(#linear-gradient-7);}.cls-13{fill:url(#linear-gradient-8);}.cls-14{fill:url(#linear-gradient-9);}.White-OUTLINE-4{stroke:#323232;}.Blue-LEFT-3,.Blue-RIGHT\,-FRONT-\&amp;-SINGLE,.Blue-TOP-4{stroke:#003755;}.Blue-RIGHT\,-FRONT-\&amp;-SINGLE{fill:url(#linear-gradient-10);}.Blue-TOP-4{fill:url(#linear-gradient-11);}.cls-15{fill:url(#linear-gradient-12);}.cls-16{fill:url(#linear-gradient-13);}.cls-17{fill:url(#linear-gradient-14);}.cls-18{fill:url(#linear-gradient-15);}.cls-19{fill:url(#linear-gradient-17);}.cls-20{fill:url(#linear-gradient-18);}.cls-21{fill:url(#linear-gradient-19);}.cls-22{fill:url(#linear-gradient-20);}.cls-23{fill:url(#linear-gradient-21);}.cls-24{fill:url(#linear-gradient-24);}.cls-25{fill:url(#linear-gradient-25);}.cls-26{fill:url(#linear-gradient-26);}.cls-27{isolation:isolate;}.Blue-LEFT-3{fill:url(#linear-gradient-27);}.cls-28{fill:url(#linear-gradient-29);}.cls-29{fill:url(#linear-gradient-30);}.cls-30{fill:#787878;}.cls-31{fill:url(#linear-gradient-31);}.cls-32{fill:url(#linear-gradient-32);}.cls-33{fill:url(#linear-gradient-33);}.cls-34{fill:url(#linear-gradient-34);}.cls-35{fill:#323232;}.cls-36{fill:url(#linear-gradient-35);}.cls-37{fill:url(#linear-gradient-36);}.cls-38{fill:url(#linear-gradient-37);}</style><linearGradient id="linear-gradient" x1="7.5" y1="24" x2="52.5" y2="24" gradientUnits="userSpaceOnUse"><stop offset="0" stop-color="#4e4a48"/><stop offset="1" stop-color="#201d1a"/></linearGradient><linearGradient id="linear-gradient-2" x1="12" y1="29.5" x2="29" y2="29.5" gradientUnits="userSpaceOnUse"><stop offset="0" stop-color="#464646"/><stop offset="1" stop-color="#141414"/></linearGradient><linearGradient id="Dégradé_sans_nom_5" x1="30.91" y1="13.8" x2="34.88" y2="30.05" gradientUnits="userSpaceOnUse"><stop offset="0" stop-color="#fff"/><stop offset="1" stop-color="#fff" stop-opacity="0"/></linearGradient><linearGradient id="linear-gradient-3" x1="31.44" y1="35.69" x2="40.89" y2="52.06" gradientUnits="userSpaceOnUse"><stop offset="0" stop-color="#fff"/><stop offset="1" stop-color="#d2d2d2"/></linearGradient><linearGradient id="linear-gradient-4" x1="31.71" y1="39.04" x2="38.29" y2="50.45" gradientUnits="userSpaceOnUse"><stop offset="0" stop-color="#fff"/><stop offset="1" stop-color="#f0f0f0"/></linearGradient><linearGradient id="linear-gradient-5" x1="34" y1="49.5" x2="35" y2="49.5" xlink:href="#linear-gradient-2"/><linearGradient id="linear-gradient-6" x1="34" y1="47.5" x2="35" y2="47.5" xlink:href="#linear-gradient-2"/><linearGradient id="linear-gradient-7" x1="34" y1="45" x2="35" y2="45" xlink:href="#linear-gradient-2"/><linearGradient id="linear-gradient-8" x1="34" y1="42.5" x2="35" y2="42.5" xlink:href="#linear-gradient-2"/><linearGradient id="linear-gradient-9" x1="34" y1="40.5" x2="35" y2="40.5" xlink:href="#linear-gradient-2"/><linearGradient id="linear-gradient-10" x1="34.22" y1="30.01" x2="37.92" y2="36.41" gradientUnits="userSpaceOnUse"><stop offset="0" stop-color="#8cd7f5"/><stop offset="1" stop-color="#376e8c"/></linearGradient><linearGradient id="linear-gradient-11" x1="34.91" y1="29.11" x2="37.09" y2="32.89" gradientUnits="userSpaceOnUse"><stop offset="0" stop-color="#a0e1fa"/><stop offset="1" stop-color="#73c3e1"/></linearGradient><linearGradient id="linear-gradient-12" x1="33.73" y1="33.16" x2="35.27" y2="35.84" gradientUnits="userSpaceOnUse"><stop offset="0" stop-color="#3287af"/><stop offset="1" stop-color="#285a78"/></linearGradient><linearGradient id="linear-gradient-13" x1="35.73" y1="33.16" x2="37.27" y2="35.84" xlink:href="#linear-gradient-12"/><linearGradient id="linear-gradient-14" x1="37.94" y1="33.03" x2="39.06" y2="34.97" xlink:href="#linear-gradient-12"/><linearGradient id="linear-gradient-15" x1="38.44" y1="33.69" x2="47.89" y2="50.06" gradientUnits="userSpaceOnUse"><stop offset="0" stop-color="#d7d7d7"/><stop offset="1" stop-color="#969696"/></linearGradient><linearGradient id="linear-gradient-17" x1="41" y1="47.5" x2="42" y2="47.5" xlink:href="#linear-gradient-2"/><linearGradient id="linear-gradient-18" x1="41" y1="46" x2="42" y2="46" xlink:href="#linear-gradient-2"/><linearGradient id="linear-gradient-19" x1="41" y1="43.5" x2="42" y2="43.5" xlink:href="#linear-gradient-2"/><linearGradient id="linear-gradient-20" x1="41" y1="41" x2="42" y2="41" xlink:href="#linear-gradient-2"/><linearGradient id="linear-gradient-21" x1="41" y1="38.5" x2="42" y2="38.5" xlink:href="#linear-gradient-2"/><linearGradient id="linear-gradient-24" x1="40.73" y1="31.16" x2="42.27" y2="33.84" xlink:href="#linear-gradient-12"/><linearGradient id="linear-gradient-25" x1="42.73" y1="31.16" x2="44.27" y2="33.84" xlink:href="#linear-gradient-12"/><linearGradient id="linear-gradient-26" x1="44.94" y1="31.03" x2="46.06" y2="32.97" xlink:href="#linear-gradient-12"/><linearGradient id="linear-gradient-27" x1="48.79" y1="40.77" x2="52.73" y2="47.61" gradientUnits="userSpaceOnUse"><stop offset="0" stop-color="#82bedc"/><stop offset="1" stop-color="#285a78"/></linearGradient><linearGradient id="linear-gradient-29" x1="44.98" y1="47.63" x2="46.37" y2="49.06" gradientUnits="userSpaceOnUse"><stop offset="0" stop-color="#fff"/><stop offset="1" stop-color="#d4d5d3"/></linearGradient><linearGradient id="linear-gradient-30" x1="47.19" y1="45.96" x2="49.66" y2="50.23" xlink:href="#linear-gradient-3"/><linearGradient id="linear-gradient-31" x1="45.99" y1="50.24" x2="47.09" y2="50.24" xlink:href="#linear-gradient-2"/><linearGradient id="linear-gradient-32" x1="46.73" y1="49.51" x2="48.09" y2="49.51" xlink:href="#linear-gradient-2"/><linearGradient id="linear-gradient-33" x1="47.9" y1="48.15" x2="49.98" y2="48.15" xlink:href="#linear-gradient-2"/><linearGradient id="linear-gradient-34" x1="49.68" y1="46.49" x2="50.82" y2="46.49" xlink:href="#linear-gradient-2"/><linearGradient id="linear-gradient-35" x1="51.73" y1="38.8" x2="52.44" y2="40.03" xlink:href="#linear-gradient-12"/><linearGradient id="linear-gradient-36" x1="53.49" y1="39.64" x2="54.29" y2="41.03" xlink:href="#linear-gradient-12"/><linearGradient id="linear-gradient-37" x1="54.77" y1="41.1" x2="55.6" y2="42.55" xlink:href="#linear-gradient-12"/></defs><g id="IT_1" data-name="IT 1"><rect class="DARK-GREY-Fill-11" x="7.5" y="8.5" width="45" height="31" rx="1.86"/><rect class="cls-1" x="7.5" y="8.5" width="45" height="31" rx="1.86"/><rect class="cls-2" x="10" y="10" width="40" height="28"/><path class="cls-3" d="M45.26,15.87A7,7,0,0,0,39,12v7Z"/><path class="cls-4" d="M39,12a7,7,0,0,0-5.23,11.65L39,19Z"/><path class="cls-5" d="M46,19a7,7,0,0,0-.74-3.13L39,19l3.88,5.82A7,7,0,0,0,46,19Z"/><path class="cls-6" d="M33.77,23.65A7,7,0,0,0,39,26a6.89,6.89,0,0,0,3.88-1.18L39,19Z"/><rect class="De-emphasized-GREY-fill-2" x="31" y="28" width="17" height="1"/><rect class="De-emphasized-GREY-fill-2" x="31" y="30" width="17" height="1"/><rect class="De-emphasized-GREY-fill-2" x="31" y="32" width="17" height="1"/><rect class="De-emphasized-GREY-fill-2" x="31" y="34" width="11" height="1"/><rect class="De-emphasized-GREY-fill-2" x="12" y="12" width="17" height="1"/><rect class="De-emphasized-GREY-fill-2" x="12" y="14" width="17" height="1"/><rect class="De-emphasized-GREY-fill-2" x="12" y="16" width="17" height="1"/><rect class="De-emphasized-GREY-fill-2" x="15" y="18" width="14" height="1"/><rect class="De-emphasized-GREY-fill-2" x="15" y="20" width="14" height="1"/><rect class="De-emphasized-GREY-fill-2" x="12" y="18" width="1" height="1"/><rect class="De-emphasized-GREY-fill-2" x="12" y="20" width="1" height="1"/><polygon class="DARK-GREY-Fill-10" points="13 35 13 23 12 23 12 36 29 36 29 35 13 35"/><rect class="cls-6" x="14" y="27" width="2" height="8"/><rect class="cls-7" x="17" y="25" width="2" height="10"/><rect class="cls-4" x="20" y="30" width="2" height="5"/><rect class="cls-5" x="23" y="27" width="2" height="8"/><rect class="cls-6" x="26" y="28" width="2" height="7"/><path class="cls-8" d="M51,39H15L30,9H51a1,1,0,0,1,1,.94V38.06A1,1,0,0,1,51,39Z"/><path class="cls-9" d="M33.5,34.5h5a0,0,0,0,1,0,0V52A2.5,2.5,0,0,1,36,54.5h0A2.5,2.5,0,0,1,33.5,52V34.5A0,0,0,0,1,33.5,34.5Z"/><path class="White-TOP-10" d="M33.5,38a6.56,6.56,0,0,0,2.5.5l.5,0v13l-.5,0a6.56,6.56,0,0,1-2.5-.5Z"/><rect class="cls-10" x="34" y="49" width="1" height="1"/><rect class="cls-11" x="34" y="47" width="1" height="1"/><rect class="cls-12" x="34" y="44" width="1" height="2"/><rect class="cls-13" x="34" y="42" width="1" height="1"/><rect class="cls-14" x="34" y="40" width="1" height="1"/><path class="White-OUTLINE-4" d="M33.5,34.5h5a0,0,0,0,1,0,0V52A2.5,2.5,0,0,1,36,54.5h0A2.5,2.5,0,0,1,33.5,52V34.5A0,0,0,0,1,33.5,34.5Z"/><path class="Blue-RIGHT,-FRONT-&amp;-SINGLE" d="M32.5,31v4c0,.83,1.57,1.5,3.5,1.5s3.5-.67,3.5-1.5V31Z"/><ellipse class="Blue-TOP-4" cx="36" cy="31" rx="3.5" ry="1.5"/><rect class="cls-15" x="34" y="33" width="1" height="3"/><rect class="cls-16" x="36" y="33" width="1" height="3"/><rect class="cls-17" x="38" y="33" width="1" height="2"/><path class="cls-18" d="M40.5,32.5h5a0,0,0,0,1,0,0V50A2.5,2.5,0,0,1,43,52.5h0A2.5,2.5,0,0,1,40.5,50V32.5A0,0,0,0,1,40.5,32.5Z"/><path class="White-TOP-10" d="M40.5,36a6.56,6.56,0,0,0,2.5.5l.5,0v13l-.5,0a6.56,6.56,0,0,1-2.5-.5Z"/><rect class="cls-19" x="41" y="47" width="1" height="1"/><rect class="cls-20" x="41" y="45" width="1" height="2"/><rect class="cls-21" x="41" y="43" width="1" height="1"/><rect class="cls-22" x="41" y="40" width="1" height="2"/><rect class="cls-23" x="41" y="38" width="1" height="1"/><path class="White-OUTLINE-4" d="M40.5,32.5h5a0,0,0,0,1,0,0V50A2.5,2.5,0,0,1,43,52.5h0A2.5,2.5,0,0,1,40.5,50V32.5A0,0,0,0,1,40.5,32.5Z"/><path class="Blue-RIGHT,-FRONT-&amp;-SINGLE" d="M39.5,29v4c0,.83,1.57,1.5,3.5,1.5s3.5-.67,3.5-1.5V29Z"/><ellipse class="Blue-TOP-4" cx="43" cy="29" rx="3.5" ry="1.5"/><rect class="cls-24" x="41" y="31" width="1" height="3"/><rect class="cls-25" x="43" y="31" width="1" height="3"/><rect class="cls-26" x="45" y="31" width="1" height="2"/><g class="cls-27"><path class="Blue-LEFT-3" d="M47.15,43.74a2.78,2.78,0,0,1,3.27-3.14,4.71,4.71,0,0,1,3.95,4,2.78,2.78,0,0,1-3.27,3.15A4.72,4.72,0,0,1,47.15,43.74Z"/><path class="Blue-RIGHT,-FRONT-&amp;-SINGLE" d="M56.9,42.43A4.66,4.66,0,0,0,52.49,38a2.78,2.78,0,0,0-2.06.81l-2.51,2.54a2.75,2.75,0,0,1,2-.81,4.67,4.67,0,0,1,4.46,4.36A2.92,2.92,0,0,1,53.6,47l2.51-2.54A2.88,2.88,0,0,0,56.9,42.43Z"/><path class="cls-28" d="M53.48,44.77a3.5,3.5,0,0,0-3.31-3.3,2.09,2.09,0,0,0-1.54.61L39.83,51h0A3.1,3.1,0,0,0,39,53.15a3.14,3.14,0,0,0,1.67,2.63,3,3,0,0,0,1.29.31h0a3.06,3.06,0,0,0,2.14-.9l8.79-8.9A2.06,2.06,0,0,0,53.48,44.77Z"/><path class="cls-29" d="M46.49,52.06A3.92,3.92,0,0,0,45,49.44l5.13-5.19a2.85,2.85,0,0,1,1.18,2.18,1.72,1.72,0,0,1-.45,1.2Z"/><path class="cls-30" d="M50.16,44.94a2.27,2.27,0,0,1,.66,1.49,1.2,1.2,0,0,1-.31.85l-3.74,3.78a4.48,4.48,0,0,0-1-1.64l4.43-4.48m-.08-1.34-5.84,5.91A3.47,3.47,0,0,1,46,52.35a2.3,2.3,0,0,1-.4,1.33L51.22,48a2.24,2.24,0,0,0,.6-1.56,3.48,3.48,0,0,0-1.74-2.83Z"/><path class="cls-31" d="M46,49.75a4.5,4.5,0,0,1,.78,1.31l.32-.32a3.79,3.79,0,0,0-.67-1.33Z"/><path class="cls-32" d="M47.42,48.41l-.69.67a2.4,2.4,0,0,1,.5,1.53l.86-.87A4,4,0,0,0,47.42,48.41Z"/><path class="cls-33" d="M49.33,46.59,47.9,47.94a1.66,1.66,0,0,1,.35,1.17,1.29,1.29,0,0,1-.14.6L50,47.82A4.16,4.16,0,0,0,49.33,46.59Z"/><path class="cls-34" d="M50.7,45.84a4,4,0,0,0-.28-.43l-.74.75a2.21,2.21,0,0,1,.54,1.41l.29-.29a1.2,1.2,0,0,0,.31-.85A1.77,1.77,0,0,0,50.7,45.84Z"/><path class="cls-35" d="M50.17,42.47a2.49,2.49,0,0,1,2.31,2.3,1.11,1.11,0,0,1-.3.82l-8.77,8.87a2,2,0,0,1-1.46.63,1.86,1.86,0,0,1-.78-.18L41,54.76a1.86,1.86,0,0,1-1-1.63,2.14,2.14,0,0,1,.58-1.45l8.81-8.92a1.13,1.13,0,0,1,.81-.29m0-1a2.09,2.09,0,0,0-1.54.61L39.83,51h0A3.1,3.1,0,0,0,39,53.15a3.14,3.14,0,0,0,1.67,2.63,3,3,0,0,0,1.29.31h0a3.06,3.06,0,0,0,2.14-.9l8.79-8.9a2.06,2.06,0,0,0,.59-1.52,3.5,3.5,0,0,0-3.31-3.3Z"/><polygon class="cls-36" points="52.25 38.49 50.66 40.1 51.69 40.46 53.47 38.65 52.25 38.49"/><polygon class="cls-37" points="54.41 39.11 52.59 40.93 53.37 41.56 55.19 39.74 54.41 39.11"/><polygon class="cls-38" points="55.8 40.5 54.06 42.24 54.57 43.15 56.28 41.43 55.8 40.5"/></g></g></svg>