<svg id="Version_02_copy_2" data-name="Version 02 copy 2" xmlns="http://www.w3.org/2000/svg" xmlns:xlink="http://www.w3.org/1999/xlink" viewBox="0 0 64 64"><defs><style>.cls-1{fill:url(#Medium_BLUE_gradient_FRONT);}.cls-2{fill:#82bddb;}.cls-3{fill:#285977;}.cls-4{fill:url(#SKETCH_BLUE_gradient);}.cls-5{opacity:0.8;fill:url(#linear-gradient);}.cls-6,.cls-7{opacity:0.89;}.cls-6{fill:url(#linear-gradient-2);}.cls-7{fill:url(#linear-gradient-3);}.cls-8{fill:#fff;}.cls-10,.cls-11,.cls-9{fill:none;stroke-miterlimit:10;}.cls-9{stroke:#fff;stroke-width:0.75px;}.cls-10{stroke:#285977;}.cls-11{stroke:#000;stroke-linecap:round;stroke-width:0.25px;}.cls-12{fill:url(#radial-gradient);}.cls-13{fill:url(#radial-gradient-2);}.cls-14{fill:url(#radial-gradient-3);}.cls-15{fill:url(#radial-gradient-4);}.cls-16{fill:url(#radial-gradient-5);}</style><linearGradient id="Medium_BLUE_gradient_FRONT" x1="22.11" y1="45.81" x2="43.18" y2="45.81" gradientUnits="userSpaceOnUse"><stop offset="0" stop-color="#8cd7f5"/><stop offset="1" stop-color="#376e8c"/></linearGradient><linearGradient id="SKETCH_BLUE_gradient" x1="35.5" y1="45.81" x2="40.69" y2="45.81" gradientUnits="userSpaceOnUse"><stop offset="0" stop-color="#3287af"/><stop offset="1" stop-color="#285a78"/></linearGradient><linearGradient id="linear-gradient" x1="25.73" y1="39.6" x2="29.57" y2="40.08" gradientUnits="userSpaceOnUse"><stop offset="0" stop-color="#fff"/><stop offset="1" stop-color="#e9f7fa"/></linearGradient><linearGradient id="linear-gradient-2" x1="41.4" y1="12.4" x2="42.5" y2="12.54" gradientTransform="matrix(1, 0, 0, -1, 0, 51.39)" xlink:href="#linear-gradient"/><linearGradient id="linear-gradient-3" x1="37.81" y1="19.33" x2="38.56" y2="19.42" gradientTransform="matrix(1, 0, 0, -1, 0, 51.39)" xlink:href="#linear-gradient"/><radialGradient id="radial-gradient" cx="26.28" cy="16.24" r="1.64" gradientTransform="translate(0.04 0)" gradientUnits="userSpaceOnUse"><stop offset="0" stop-color="#fff"/><stop offset="0.71" stop-color="#5a9ab8"/></radialGradient><radialGradient id="radial-gradient-2" cx="32.43" cy="12.37" r="2.05" xlink:href="#radial-gradient"/><radialGradient id="radial-gradient-3" cx="18.2" cy="12.29" r="2.56" xlink:href="#radial-gradient"/><radialGradient id="radial-gradient-4" cx="40.82" cy="15.27" r="2.56" xlink:href="#radial-gradient"/><radialGradient id="radial-gradient-5" cx="33.4" cy="20.06" r="3.7" gradientTransform="translate(0.04 0)" gradientUnits="userSpaceOnUse"><stop offset="0.07" stop-color="#fff"/><stop offset="0.52" stop-color="#82bddb"/></radialGradient></defs><title>35311_A33AAe__R21XArtboard 1</title><g id="Layer_47_copy_6" data-name="Layer 47 copy 6"><path id="ok_" data-name="ok ***" class="cls-1" d="M43.16,38.86c0,1.9.11,8.74-.13,10.72-.35,2.81-5,3.19-10.91,3.19-5,0-10-.65-10-3.12,0,0,0-10.64,0-10.64a37.89,37.89,0,0,0,10.61,1.26C39.42,40.27,42.32,39.32,43.16,38.86Z"/><ellipse id="_Ellipse_" data-name="&lt;Ellipse&gt;***" class="cls-2" cx="32.57" cy="37.76" rx="11.25" ry="1.65"/><path id="_Ellipse_2" data-name="&lt;Ellipse&gt;***" class="cls-3" d="M21.47,37.66c0-.92,5.05-1.54,11.26-1.54s-5.8.33-5.8,1.24c0,.34,1.75.24,3.48.57.93.17-2.27,0-1.9.73.32.35,1.5.1,1.21.68C23.51,39.34,21.47,38.57,21.47,37.66Z"/><path id="_Ellipse_3" data-name="&lt;Ellipse&gt;***" class="cls-3" d="M43.82,37.76c0,.91-5,1.65-11.25,1.65S38,39.13,38,38.22c0-.72-1.81,0-1.84-.88-3.55-.06-1.41-1-.58-1.15C41.8,36.19,43.82,36.85,43.82,37.76Z"/><path class="cls-3" d="M35.5,40.34s1.54,4.55.73,7.08c-1.55,4.84,4.46,5,4.46,3.94,0-7.7,0-11.61,0-11.61A42.76,42.76,0,0,1,35.5,40.34Z"/><path class="cls-4" d="M35.5,40.34s1.54,4.55.73,7.08c-1.55,4.84,4.46,5,4.46,3.94,0-7.7,0-11.61,0-11.61A42.76,42.76,0,0,1,35.5,40.34Z"/><path class="cls-3" d="M40,39.76V52.09l1.23-.34,0-12.25A10.73,10.73,0,0,1,40,39.76Z"/><path id="reflet_1" data-name="reflet 1" class="cls-5" d="M25.17,30.08c-.67,1.67-.81,16.56.3,13.91a8.86,8.86,0,0,0,1-4l1.18.11.87,11.57s-5.72.6-5.72-2,.5-19.84.5-19.84l-1-1.1c-1-1.14-.66-1.84.86-1.57C23.09,27.16,25.83,28.42,25.17,30.08Z"/><path id="reflet_2" data-name="reflet  2" class="cls-6" d="M42.35,48.71l0-11.35a1.33,1.33,0,0,0-.07-.45L42,36a1.68,1.68,0,0,1-.06-.24l-1-7.27.1,8.61v.07L41,48.6c0,.52.28,1,.67,1h0C42,49.56,42.33,49.19,42.35,48.71Z"/><path id="reflet_2-2" data-name="reflet  2" class="cls-7" d="M38.52,35.76l0-4.28a.19.19,0,0,0-.06-.17l-.35-.37a.15.15,0,0,1-.06-.09l-1-2.74.1,3.25v0l-.05,4.33c0,.2.28.36.66.36h0C38.2,36.08,38.5,35.94,38.52,35.76Z"/><g id="verseur_" data-name="verseur ***"><path class="cls-8" d="M44.36,26.79a17.31,17.31,0,0,1-6.78,1.63,40.69,40.69,0,0,1-6.72-.13,54.18,54.18,0,0,1-12.94-3,53.8,53.8,0,0,0,13,1.94,40.05,40.05,0,0,0,6.49-.37A15.74,15.74,0,0,0,43.3,25Z"/></g><path id="verseur_2" data-name="verseur ***" class="cls-9" d="M16.92,24.7c0-1.1,7.69-2.8,15.2-2.8s12,.8,12,2.8"/><path id="contour_" data-name="contour   ***" class="cls-10" d="M17.63,25.78c2.26,3.44,3.21,3.48,3.21,6.58V50c.43,3.35,6.41,3.92,11.61,3.92S43.73,53.35,44.16,50c0-3.62,0-19.66,0-19.66s0-6,0-6.23,1-3.06-11.78-3.05c-3.65,0-11.78.5-15.14,2.42C16.75,23.75,17.12,25,17.63,25.78Z"/><path id="verseur_3" data-name="verseur ***" class="cls-10" d="M44.12,23.86c0,2-4.49,2.8-12,2.8s-15.2-1.7-15.2-2.8,7.69-2.8,15.2-2.8S44.12,21.86,44.12,23.86Z"/></g><g id="TRAIT_GRD_copy_5" data-name="TRAIT  GRD copy 5"><path class="cls-11" d="M26.18,49.57a24.2,24.2,0,0,0,12.64,0"/><path class="cls-11" d="M26.19,44.54a30.16,30.16,0,0,0,12.62,0"/><path class="cls-11" d="M26.09,39.88A40.24,40.24,0,0,0,38.91,40"/><path class="cls-11" d="M26.19,33.58a49.36,49.36,0,0,0,12.62,0"/></g><g id="Layer_50_copy_6" data-name="Layer 50 copy 6"><path id="S1" class="cls-12" d="M28.38,17a1.64,1.64,0,1,1-1.63-1.64A1.63,1.63,0,0,1,28.38,17Z"/><path id="S1-2" data-name="S1" class="cls-13" d="M35.05,13.26a2,2,0,1,1-2-2A2.05,2.05,0,0,1,35.05,13.26Z"/><path id="S1-3" data-name="S1" class="cls-14" d="M21.48,13.4a2.56,2.56,0,1,1-2.56-2.55A2.57,2.57,0,0,1,21.48,13.4Z"/><path id="S1-4" data-name="S1" class="cls-15" d="M44.08,16.39a2.56,2.56,0,1,1-2.56-2.56A2.56,2.56,0,0,1,44.08,16.39Z"/><path id="gd" class="cls-16" d="M37.86,20.83a3.7,3.7,0,1,1-2.9-2.9A3.71,3.71,0,0,1,37.86,20.83Z"/></g></svg>