<svg xmlns="http://www.w3.org/2000/svg" xmlns:xlink="http://www.w3.org/1999/xlink" viewBox="0 0 64 64"><defs><style>.cls-1{isolation:isolate;}.cls-2,.cls-5{stroke:#003755;}.cls-2,.cls-5,.cls-8,.cls-9{stroke-miterlimit:10;}.cls-2{fill:url(#Light_BLUE_gradient_TOP);}.cls-16,.cls-3,.cls-4,.cls-5{fill:#fff;}.cls-3,.cls-4{stroke:#00415f;}.cls-26,.cls-3,.cls-4{stroke-linecap:round;}.cls-21,.cls-22,.cls-23,.cls-24,.cls-25,.cls-26,.cls-27,.cls-3,.cls-4{stroke-linejoin:round;}.cls-4{mix-blend-mode:darken;}.cls-6{fill:url(#linear-gradient);}.cls-7{fill:url(#linear-gradient-2);}.cls-26,.cls-8,.cls-9{fill:none;}.cls-8{stroke:#000;}.cls-9{stroke:#000102;}.cls-10{fill:url(#white_left);}.cls-11{fill:url(#white_left-2);}.cls-12{fill:url(#white_left-3);}.cls-13{fill:url(#white_left-4);}.cls-14{fill:url(#white_left-5);}.cls-15{fill:url(#white_left-6);}.cls-17{fill:#2d6d8b;}.cls-18{fill:#82bddb;}.cls-19{fill:url(#white_front_right);}.cls-20{fill:#003755;}.cls-21,.cls-22,.cls-23,.cls-24,.cls-25,.cls-26{stroke:#053755;}.cls-21{fill:url(#linear-gradient-3);}.cls-22{fill:url(#linear-gradient-4);}.cls-23{fill:url(#linear-gradient-5);}.cls-24{fill:url(#linear-gradient-6);}.cls-25{fill:url(#linear-gradient-7);}.cls-27{stroke:#323232;fill:url(#linear-gradient-8);}</style><linearGradient id="Light_BLUE_gradient_TOP" x1="12.46" y1="35.47" x2="50.46" y2="35.47" gradientUnits="userSpaceOnUse"><stop offset="0" stop-color="#a0e1fa"/><stop offset="0.99" stop-color="#73c3e1"/></linearGradient><linearGradient id="linear-gradient" x1="35.2" y1="34.08" x2="40.54" y2="39.06" gradientTransform="translate(19.1 -14.1) rotate(26.75)" gradientUnits="userSpaceOnUse"><stop offset="0" stop-color="#fff"/><stop offset="0.21" stop-color="#fff"/><stop offset="0.69" stop-color="#aadcfa"/></linearGradient><linearGradient id="linear-gradient-2" x1="45.31" y1="28.14" x2="50.65" y2="33.13" xlink:href="#linear-gradient"/><linearGradient id="white_left" x1="10.25" y1="39.88" x2="14.55" y2="39.88" gradientTransform="matrix(0, 1.02, 1.02, 0, 5.88, -1.19)" gradientUnits="userSpaceOnUse"><stop offset="0" stop-color="#f5f5f5"/><stop offset="1" stop-color="#bebebe"/></linearGradient><linearGradient id="white_left-2" x1="8.29" y1="49.69" x2="12.6" y2="49.69" xlink:href="#white_left"/><linearGradient id="white_left-3" x1="15.14" y1="49.69" x2="19.44" y2="49.69" xlink:href="#white_left"/><linearGradient id="white_left-4" x1="21.98" y1="49.7" x2="26.29" y2="49.7" xlink:href="#white_left"/><linearGradient id="white_left-5" x1="20.02" y1="39.91" x2="24.33" y2="39.91" xlink:href="#white_left"/><linearGradient id="white_left-6" x1="15.14" y1="32.02" x2="19.45" y2="32.02" xlink:href="#white_left"/><linearGradient id="white_front_right" x1="61.91" y1="29.35" x2="87.44" y2="29.35" gradientTransform="matrix(-0.21, 0.98, 0.98, 0.21, 4.32, -35.15)" gradientUnits="userSpaceOnUse"><stop offset="0" stop-color="#fff"/><stop offset="1" stop-color="#d2d2d2"/></linearGradient><linearGradient id="linear-gradient-3" x1="33.26" y1="18.72" x2="37.84" y2="10.8" gradientTransform="matrix(0.95, 0.3, 0.3, -0.95, -23.35, 53.35)" gradientUnits="userSpaceOnUse"><stop offset="0" stop-color="#83bedc"/><stop offset="0.51" stop-color="#285a78"/></linearGradient><linearGradient id="linear-gradient-4" x1="32.07" y1="25.74" x2="36.64" y2="17.82" gradientTransform="matrix(0.95, 0.3, 0.3, -0.95, -23.35, 53.35)" gradientUnits="userSpaceOnUse"><stop offset="0" stop-color="#83bedc"/><stop offset="0.53" stop-color="#285a78"/></linearGradient><linearGradient id="linear-gradient-5" x1="20.36" y1="15.6" x2="25.36" y2="6.92" gradientTransform="translate(32.94 71.06) rotate(-162.54)" gradientUnits="userSpaceOnUse"><stop offset="0" stop-color="#a3def6"/><stop offset="1" stop-color="#74c3e1"/></linearGradient><linearGradient id="linear-gradient-6" x1="24.29" y1="17.86" x2="29.29" y2="9.19" xlink:href="#linear-gradient-5"/><linearGradient id="linear-gradient-7" x1="28.54" y1="20.32" x2="33.55" y2="11.64" xlink:href="#linear-gradient-5"/><linearGradient id="linear-gradient-8" x1="21.93" y1="24.59" x2="28.74" y2="12.79" gradientTransform="matrix(1, 0, 0, -1, 0, 66)" gradientUnits="userSpaceOnUse"><stop offset="0" stop-color="#fff"/><stop offset="1" stop-color="#d4d5d3"/></linearGradient></defs><title>ssssssssssq_A33AAe__R21XArtboard 1</title><g class="cls-1"><g id="Layer_44_copy" data-name="Layer 44 copy"><g id="Layer_132_copy_4" data-name="Layer 132 copy 4"><path class="cls-2" d="M50.46,35.47a19,19,0,1,1-19-19A19,19,0,0,1,50.46,35.47Z"/><path class="cls-3" d="M44.67,35.39a12.79,12.79,0,0,1-12.74,13,13.23,13.23,0,0,1-13.26-13,13.22,13.22,0,0,1,13.26-13A12.78,12.78,0,0,1,44.67,35.39Z"/><path class="cls-4" d="M44.67,35.39a12.78,12.78,0,0,1-12.74,13,13.22,13.22,0,0,1-13.26-13,13.22,13.22,0,0,1,13.26-13A12.78,12.78,0,0,1,44.67,35.39Z"/><polygon points="34.98 19.52 30 22 30 17 34.98 19.52"/></g><g id="cartes_Droite_copy_7" data-name="cartes Droite copy 7"><polygon id="ar_ok" data-name="ar  ok" class="cls-5" points="59.5 35.5 51.4 53.5 25.56 44.5 32.5 29.5 59.5 35.5"/><polygon class="cls-5" points="58.5 30.5 49.7 50.7 24.7 41.7 32.5 25.5 58.5 30.5"/><g id="Layer_91_copy_7" data-name="Layer 91 copy 7"><polygon id="aaaa" class="cls-6" points="32.74 35.94 34.52 32.43 38.09 32.41 40.18 35.26 38.4 38.78 34.78 38.78 32.74 35.94"/><polygon id="aaaa-2" data-name="aaaa" class="cls-7" points="44.44 35.21 46.23 31.67 49.74 31.66 51.88 34.52 50.1 38.04 46.53 38.05 44.44 35.21"/><g id="noir"><path d="M49.61,31.93l2,2.63L50,37.78H46.64l-1.91-2.39,1.68-3.46h3.2m-11.68.76,2,2.81-1.63,3H34.92l-1.85-2.57,1.63-3.23,3.23,0m12.26-1.92H45.68l-2,4.2H41l-2.41-3.44-4.55,0L31.71,36l2.61,3.64,4.14,0,1.74,2.45.73-.53L39.21,39.2,41,36h2.7l2.39,3h4.59L53,34.44l-2.76-3.67Z"/></g></g></g><g id="ELEM_oK_copy_4" data-name="ELEM  oK ***** copy 4"><line class="cls-8" x1="46.5" y1="21.5" x2="56.5" y2="16.5"/><line class="cls-8" x1="56.5" y1="23.5" x2="46.5" y2="21.5"/><line class="cls-8" x1="38.5" y1="16.5" x2="46.5" y2="21.5"/><line class="cls-9" x1="45.5" y1="12.5" x2="39.5" y2="17.5"/><line class="cls-8" x1="46.5" y1="11.5" x2="56.5" y2="9.5"/><g id="Layer_OK_copy_4" data-name="Layer OK copy 4"><g id="AA"><path class="cls-10" d="M46.48,13.7a2.22,2.22,0,0,1-2.19-2.2,2.19,2.19,0,1,1,4.38,0A2.22,2.22,0,0,1,46.48,13.7Z"/><path d="M46.48,9.59a1.91,1.91,0,1,1-1.89,1.91,1.91,1.91,0,0,1,1.89-1.91m0-.59a2.5,2.5,0,0,0,0,5,2.5,2.5,0,0,0,0-5Z"/></g><g id="AA-2" data-name="AA"><path class="cls-11" d="M56.48,11.7a2.21,2.21,0,1,1,2.19-2.2A2.22,2.22,0,0,1,56.48,11.7Z"/><path d="M56.48,7.59A1.91,1.91,0,1,1,54.59,9.5a1.91,1.91,0,0,1,1.89-1.91m0-.59a2.5,2.5,0,0,0,0,5,2.5,2.5,0,0,0,0-5Z"/></g><g id="AA-3" data-name="AA"><path class="cls-12" d="M56.48,18.7a2.21,2.21,0,1,1,2.19-2.2A2.26,2.26,0,0,1,56.48,18.7Z"/><path d="M56.48,14.59a1.91,1.91,0,0,1,1.9,1.91,2,2,0,0,1-1.9,1.9,1.91,1.91,0,0,1,0-3.81m0-.59a2.5,2.5,0,0,0,0,5A2.55,2.55,0,0,0,59,16.5,2.5,2.5,0,0,0,56.48,14Z"/></g><g id="AA-4" data-name="AA"><path class="cls-13" d="M56.48,25.71a2.21,2.21,0,1,1,2.19-2.21A2.17,2.17,0,0,1,58,25.05,2.15,2.15,0,0,1,56.48,25.71Z"/><path d="M56.48,21.59a1.92,1.92,0,0,1,1.9,1.92,1.93,1.93,0,0,1-1.9,1.9,1.91,1.91,0,0,1,0-3.82m0-.59a2.5,2.5,0,0,0,0,5,2.5,2.5,0,0,0,0-5Z"/></g><g id="AA-5" data-name="AA"><path class="cls-14" d="M46.49,23.7a2.21,2.21,0,1,1,2.22-2.21,2.25,2.25,0,0,1-2.18,2.21Z"/><path d="M46.53,19.59a1.86,1.86,0,0,1,1.88,1.9,2,2,0,0,1-1.92,1.91,1.91,1.91,0,0,1,0-3.81m0-.59a2.5,2.5,0,0,0,0,5h0A2.53,2.53,0,0,0,49,21.49,2.47,2.47,0,0,0,46.53,19Z"/></g><g id="AA-6" data-name="AA"><path class="cls-15" d="M38.45,18.71a2.21,2.21,0,1,1,2.23-2.21,2.23,2.23,0,0,1-2.2,2.21Z"/><path d="M38.49,14.59a1.91,1.91,0,0,1,1.9,1.91,1.94,1.94,0,0,1-1.94,1.91,1.89,1.89,0,0,1-1.86-1.91,1.91,1.91,0,0,1,1.9-1.91m0-.59a2.5,2.5,0,0,0,0,5h0A2.52,2.52,0,0,0,41,16.5,2.5,2.5,0,0,0,38.49,14Z"/></g></g><g id="Layer_OK_copy_4-2" data-name="Layer OK copy 4"><g id="AA-7" data-name="AA"><path d="M46.48,9.59a1.91,1.91,0,1,1-1.89,1.91,1.91,1.91,0,0,1,1.89-1.91m0-.59a2.5,2.5,0,0,0,0,5,2.5,2.5,0,0,0,0-5Z"/></g><g id="AA-8" data-name="AA"><path d="M56.48,7.59A1.91,1.91,0,1,1,54.59,9.5a1.91,1.91,0,0,1,1.89-1.91m0-.59a2.5,2.5,0,0,0,0,5,2.5,2.5,0,0,0,0-5Z"/></g><g id="AA-9" data-name="AA"><path d="M56.48,14.59a1.91,1.91,0,0,1,1.9,1.91,2,2,0,0,1-1.9,1.9,1.91,1.91,0,0,1,0-3.81m0-.59a2.5,2.5,0,0,0,0,5A2.55,2.55,0,0,0,59,16.5,2.5,2.5,0,0,0,56.48,14Z"/></g><g id="AA-10" data-name="AA"><path d="M56.48,21.59a1.92,1.92,0,0,1,1.9,1.92,1.93,1.93,0,0,1-1.9,1.9,1.91,1.91,0,0,1,0-3.82m0-.59a2.5,2.5,0,0,0,0,5,2.5,2.5,0,0,0,0-5Z"/></g><g id="AA-11" data-name="AA"><path d="M46.53,19.59a1.86,1.86,0,0,1,1.88,1.9,2,2,0,0,1-1.92,1.91,1.91,1.91,0,0,1,0-3.81m0-.59a2.5,2.5,0,0,0,0,5h0A2.53,2.53,0,0,0,49,21.49,2.47,2.47,0,0,0,46.53,19Z"/></g><g id="AA-12" data-name="AA"><path d="M38.49,14.59a1.91,1.91,0,0,1,1.9,1.91,1.94,1.94,0,0,1-1.94,1.91,1.89,1.89,0,0,1-1.86-1.91,1.91,1.91,0,0,1,1.9-1.91m0-.59a2.5,2.5,0,0,0,0,5h0A2.52,2.52,0,0,0,41,16.5,2.5,2.5,0,0,0,38.49,14Z"/></g></g></g><g id="DAMIER_._R_ok_copy" data-name="DAMIER . R ok   *** copy"><rect class="cls-16" x="5" y="6" width="21" height="13"/><rect class="cls-17" x="18" y="15" width="3" height="3"/><rect class="cls-17" x="6" y="15" width="3" height="3"/><rect class="cls-18" x="10" y="11" width="3" height="3"/><rect class="cls-18" x="18" y="11" width="3" height="3"/><rect class="cls-18" x="14" y="15" width="3" height="3"/><rect class="cls-18" x="10" y="15" width="3" height="3"/><rect class="cls-17" x="6" y="7" width="3" height="3"/><rect class="cls-17" x="10" y="7" width="3" height="3"/><rect class="cls-17" x="6" y="11" width="3" height="3"/><rect class="cls-17" x="14" y="7" width="3" height="3"/><rect class="cls-17" x="18" y="7" width="3" height="3"/><rect class="cls-17" x="22" y="15" width="3" height="3"/><rect class="cls-18" x="22" y="11" width="3" height="3"/><rect class="cls-17" x="22" y="7" width="3" height="3"/><rect class="cls-17" x="14" y="11" width="3" height="3"/></g><g id="Layer_57" data-name="Layer 57"><g id="C_Droite_copy" data-name="C Droite ***** copy"><rect class="cls-19" x="5.5" y="33.5" width="24" height="21"/><path class="cls-20" d="M29,34V54H6V34H29m1-1H5V55H30V33Z"/><rect class="cls-16" x="7.5" y="35.5" width="26" height="23"/><path class="cls-20" d="M33,36V58H8V36H33m1-1H7V59H34V35Z"/></g><g id="Protein_ok_copy_2" data-name="Protein ok **** copy 2"><path class="cls-21" d="M18,54a1.5,1.5,0,0,0-1-1.53c-.63-.34-4-1.1-4.59-1.43a1.52,1.52,0,0,1-1-1.54L12,45.93a1.51,1.51,0,0,0,1,1.53c.63.33,4,1.1,4.59,1.43a1.51,1.51,0,0,1,1,1.53Z"/><path class="cls-22" d="M19,46.9a1.51,1.51,0,0,0-1-1.53c-.63-.34-4-1.1-4.6-1.43a1.52,1.52,0,0,1-1-1.53l.48-3.53a1.51,1.51,0,0,0,1,1.53c.63.34,4,1.1,4.59,1.43a1.53,1.53,0,0,1,1,1.54Z"/><path class="cls-23" d="M10.5,56.5a1.51,1.51,0,0,1,1.36-1.21c.7-.15,4.11,0,4.81-.13A1.52,1.52,0,0,0,18,54l.49-3.53a1.52,1.52,0,0,1-1.37,1.21c-.7.15-4.11,0-4.8.14A1.52,1.52,0,0,0,11,53Z"/><path class="cls-24" d="M11.47,49.45a1.52,1.52,0,0,1,1.36-1.21c.7-.15,4.12,0,4.81-.13A1.52,1.52,0,0,0,19,46.9l.49-3.52a1.53,1.53,0,0,1-1.36,1.21c-.7.14-4.12,0-4.81.13A1.51,1.51,0,0,0,12,45.93Z"/><path class="cls-25" d="M12.44,42.41A1.51,1.51,0,0,1,13.8,41.2c.7-.15,3.72.07,4.73-.65a19.08,19.08,0,0,0,2-2c-.52,0-1.34-1-2.72-1a27.1,27.1,0,0,0-3.49.17,1.52,1.52,0,0,0-1.36,1.21Z"/><path class="cls-26" d="M20.5,38.5c1,0,3.2-1.17,4,0C26.2,41,25.14,54.8,27,56a3.66,3.66,0,0,0,2.5.5"/><polygon class="cls-27" points="26.5 40.5 23.5 40.5 24.5 49.5 21.5 49.5 26.5 54.5 29.5 49.5 27.5 49.5 26.5 40.5"/></g></g></g></g></svg>