<svg xmlns="http://www.w3.org/2000/svg" xmlns:xlink="http://www.w3.org/1999/xlink" viewBox="0 0 64 64"><defs><linearGradient id="a" x1="33.29" y1="35.85" x2="42.77" y2="52.27" gradientUnits="userSpaceOnUse"><stop offset="0" stop-color="#fff"/><stop offset="1" stop-color="#d2d2d2"/></linearGradient><linearGradient id="c" x1="23.56" y1="20.46" x2="35.44" y2="41.04" gradientUnits="userSpaceOnUse"><stop offset="0" stop-color="#fff"/><stop offset="1" stop-color="#f0f0f0"/></linearGradient><linearGradient id="d" x1="10.4" y1="28.06" x2="26.99" y2="56.8" gradientUnits="userSpaceOnUse"><stop offset="0" stop-color="#f5f5f5"/><stop offset="1" stop-color="#bebebe"/></linearGradient><linearGradient id="e" x1="36.18" y1="39.22" x2="40.95" y2="47.49" gradientUnits="userSpaceOnUse"><stop offset="0" stop-color="#d7d7d7"/><stop offset="1" stop-color="#969696"/></linearGradient><linearGradient id="f" x1="39.95" y1="40.09" x2="41.68" y2="43.11" gradientUnits="userSpaceOnUse"><stop offset="0" stop-color="#fff"/><stop offset="1" stop-color="#fff" stop-opacity="0"/></linearGradient><linearGradient id="g" x1="15" y1="31.5" x2="43.5" y2="31.5" gradientUnits="userSpaceOnUse"><stop offset="0.18" stop-color="#bebebe"/><stop offset="0.32" stop-color="#f5f5f5"/><stop offset="0.6" stop-color="#c6c6c6"/><stop offset="0.8" stop-color="#ddd"/><stop offset="0.96" stop-color="#a49f9f"/></linearGradient><linearGradient id="h" x1="22.5" y1="9" x2="36.13" y2="32.6" xlink:href="#c"/><linearGradient id="i" x1="35.58" y1="20.96" x2="22.9" y2="21.03" xlink:href="#a"/><linearGradient id="j" x1="21.72" y1="24" x2="37.24" y2="24" gradientUnits="userSpaceOnUse"><stop offset="0" stop-color="#8cd7f5"/><stop offset="0.9" stop-color="#376e8c"/><stop offset="1" stop-color="#8cd7f5"/></linearGradient><linearGradient id="k" x1="26.29" y1="9.26" x2="31.63" y2="18.52" gradientUnits="userSpaceOnUse"><stop offset="0" stop-color="#8cd7f5"/><stop offset="1" stop-color="#376e8c"/></linearGradient><linearGradient id="m" x1="27" y1="25.44" x2="28" y2="25.44" gradientUnits="userSpaceOnUse"><stop offset="0" stop-color="#464646"/><stop offset="1" stop-color="#141414"/></linearGradient><linearGradient id="n" x1="25" y1="25.14" x2="26" y2="25.14" xlink:href="#m"/><linearGradient id="o" x1="22" y1="24.27" x2="24" y2="24.27" xlink:href="#m"/><linearGradient id="p" x1="34" y1="14.03" x2="34" y2="32.25" gradientUnits="userSpaceOnUse"><stop offset="0" stop-color="#fff" stop-opacity="0"/><stop offset="0.08" stop-color="#fff" stop-opacity="0.24"/><stop offset="0.18" stop-color="#fff" stop-opacity="0.51"/><stop offset="0.27" stop-color="#fff" stop-opacity="0.72"/><stop offset="0.34" stop-color="#fff" stop-opacity="0.87"/><stop offset="0.4" stop-color="#fff" stop-opacity="0.97"/><stop offset="0.44" stop-color="#fff"/><stop offset="0.49" stop-color="#fff" stop-opacity="0.98"/><stop offset="0.56" stop-color="#fff" stop-opacity="0.91"/><stop offset="0.64" stop-color="#fff" stop-opacity="0.8"/><stop offset="0.73" stop-color="#fff" stop-opacity="0.64"/><stop offset="0.82" stop-color="#fff" stop-opacity="0.45"/><stop offset="0.92" stop-color="#fff" stop-opacity="0.21"/><stop offset="1" stop-color="#fff" stop-opacity="0"/></linearGradient></defs><polygon points="23.5 41.5 27.5 54.5 54.5 45.5 48.5 33.5 23.5 41.5" stroke="#787878" stroke-linejoin="round" fill="url(#a)"/><polygon points="54.5 45.5 54.5 47.5 27.5 56.5 27.5 54.5 54.5 45.5" stroke="#787878" stroke-linejoin="round" fill="url(#a)"/><polygon points="23.5 41.5 10.5 28 33.5 22.5 48.5 33.5 23.5 41.5" stroke="#787878" stroke-linejoin="round" fill="url(#c)"/><polygon points="27.5 56.5 27.5 54.5 23.5 41.5 10.5 28 10.5 37.5 27.5 56.5" stroke="#787878" stroke-linejoin="round" fill="url(#d)"/><polygon points="48.5 33.5 33.5 22.5 10.5 28 10.5 37.5 27.5 56.5 54.5 47.5 54.5 45.5 48.5 33.5" fill="none" stroke="#323232" stroke-linejoin="round"/><polygon points="30.5 42.5 32.5 48.5 47 44 44.5 38 30.5 42.5" stroke="#787878" stroke-linejoin="round" fill="url(#e)"/><polygon points="38.32 46.17 46.33 43.69 44.22 38.62 39.11 40.26 38.32 46.17" opacity="0.5" fill="url(#f)"/><polygon points="24.5 38.5 43.5 32.5 32.5 24.5 15 29 24.5 38.5" stroke="#787878" stroke-linejoin="round" fill="url(#g)"/><path d="M38.5,11.23l-19-.5a1.61,1.61,0,0,0,.26.84,4.41,4.41,0,0,1,.74,2.29V30.5c0,2.4,4.74,4,8.39,4s8.61-1.6,8.61-4V14a3.54,3.54,0,0,1,.73-2A1.24,1.24,0,0,0,38.5,11.23Z" stroke="#787878" stroke-linejoin="round" fill="url(#h)"/><path d="M38.22,12a1.33,1.33,0,0,0,.28-.78c0-1.83-4.57-3.73-10.68-3.73-5.48,0-8.32,1.6-8.32,3.23a1.39,1.39,0,0,0,.06.4l0,.09a2.12,2.12,0,0,0,.14.31s0,0,0,0a4.41,4.41,0,0,1,.74,2.29V30.5c0,2.4,4.74,4,8.39,4s8.61-1.6,8.61-4V15.05A1.45,1.45,0,0,0,38,15c.51-.17-.1-1-.41-1.66A4,4,0,0,1,38.22,12Z" fill="url(#i)"/><path d="M37,14H21V30.5c0,1.94,4.32,3.5,7.89,3.5S37,32.38,37,30.5Z" fill="url(#j)"/><path d="M28.89,17.5c3.66,0,8.61-1.26,8.61-3.33,0-1.8-4-3.67-9.37-3.67-5.12,0-7.63,1.68-7.63,3.18C20.5,15.42,23.82,17.5,28.89,17.5Z" stroke="#003755" stroke-linejoin="round" fill="url(#k)"/><path d="M37.5,30.63c0-2.08-4-4.25-9.37-4.25-5.12,0-7.63,1.95-7.63,3.69" fill="none" stroke="#003755" stroke-linejoin="round" opacity="0.4"/><path d="M32.49,14.28a23,23,0,0,1-3.4.26c-4.82,0-8.42-1.43-9.35-3,0,0,0,0,0,0a4.41,4.41,0,0,1,.74,2.29V30.5c0,2.4,4.74,4,8.39,4s8.61-1.6,8.61-4V15.05C36.19,15,33.46,14.14,32.49,14.28Z" fill="#fff" opacity="0.5"/><path d="M29.09,14.54a23,23,0,0,0,3.4-.26c1.13-.16,4.58,1,5.51.72.76-.26-1-2-.47-2.34a1.84,1.84,0,0,0,1-1.43c0-1.83-4.57-3.73-10.68-3.73-5.48,0-8.32,1.6-8.32,3.23C19.5,12.6,23.47,14.54,29.09,14.54Z" fill="none" stroke="#787878" stroke-linejoin="round"/><path d="M29.5,29.5c-.2,0-.41,0-.61,0-5.07,0-8.39-2.42-8.39-4.43V17.73c0,1.87,3.55,3.79,8.58,3.79l.42,0Z" stroke="#787878" stroke-linejoin="round" fill="url(#a)"/><path d="M28,23v5c-.35,0-.68-.06-1-.11V22.91C27.33,23,27.66,23,28,23Z" fill="url(#m)"/><path d="M26,22.79v4.89c-.36-.09-.69-.19-1-.3V22.6Z" fill="url(#n)"/><path d="M24,22.34V27c-1.32-.65-2-1.45-2-1.9v-3.5A11.73,11.73,0,0,0,24,22.34Z" fill="url(#o)"/><path d="M38.22,12a1.33,1.33,0,0,0,.28-.78c0-1.83-4.57-3.73-10.68-3.73-5.48,0-8.32,1.6-8.32,3.23a1.39,1.39,0,0,0,.06.4l0,.09a2.12,2.12,0,0,0,.14.31s0,0,0,0a4.41,4.41,0,0,1,.74,2.29V30.5c0,2.4,4.74,4,8.39,4s8.61-1.6,8.61-4V15.05A1.45,1.45,0,0,0,38,15c.51-.17-.1-1-.41-1.66A4,4,0,0,1,38.22,12Z" fill="none" stroke="#323232" stroke-linejoin="round"/><path d="M35,32a3.6,3.6,0,0,1-2,1V16.5a7.35,7.35,0,0,0,2-.5Z" opacity="0.5" fill="url(#p)"/></svg>