<?xml version="1.0" encoding="UTF-8"?><svg id="IT_2" xmlns="http://www.w3.org/2000/svg" xmlns:xlink="http://www.w3.org/1999/xlink" viewBox="0 0 64 64"><defs><linearGradient id="linear-gradient" x1="13.97" y1="12.45" x2="34.33" y2="47.71" gradientUnits="userSpaceOnUse"><stop offset="0" stop-color="#8cd7f5"/><stop offset="1" stop-color="#376e8c"/></linearGradient><linearGradient id="linear-gradient-2" x1="35.79" y1="31.24" x2="48.21" y2="52.76" gradientUnits="userSpaceOnUse"><stop offset="0" stop-color="#aaa"/><stop offset="1" stop-color="#5a5a5a"/></linearGradient><linearGradient id="linear-gradient-3" x1="38.98" y1="23.18" x2="46" y2="35.35" gradientUnits="userSpaceOnUse"><stop offset="0" stop-color="#fff"/><stop offset="1" stop-color="#d4d5d3"/></linearGradient><radialGradient id="Dégradé_sans_nom_6" cx="3.62" cy="28.61" fx="3.62" fy="28.61" r="3.15" gradientTransform="translate(17.91 -2.25) scale(1.36 .46)" gradientUnits="userSpaceOnUse"><stop offset="0" stop-color="#fff"/><stop offset="1" stop-color="#fff" stop-opacity="0"/></radialGradient><radialGradient id="Dégradé_sans_nom_6-2" cx="14.49" cy="35.71" fx="14.49" fy="35.71" r="3.15" gradientTransform="translate(1.37 .84) scale(.98 .46)" xlink:href="#Dégradé_sans_nom_6"/><radialGradient id="Dégradé_sans_nom_6-3" cx="7.31" cy="39.5" fx="7.31" fy="39.5" r="2.2" gradientTransform="translate(3.88 6.32) scale(.98 .46)" xlink:href="#Dégradé_sans_nom_6"/><radialGradient id="Dégradé_sans_nom_6-4" cx="-2.45" cy="11.96" fx="-2.45" fy="11.96" r="2.2" gradientTransform="translate(25.36 31.07) rotate(90) scale(1.36 .46)" xlink:href="#Dégradé_sans_nom_6"/><radialGradient id="Dégradé_sans_nom_6-5" cx="-4.89" cy="62.25" fx="-4.89" fy="62.25" r="2.2" gradientTransform="translate(19.19 7.84) scale(.98 .46)" xlink:href="#Dégradé_sans_nom_6"/><radialGradient id="Dégradé_sans_nom_7" cx="3.54" cy="33.54" fx="3.54" fy="33.54" r="3.11" gradientTransform="translate(12.24 24.44) rotate(-29.15) scale(1.47 .47) skewX(5.06)" gradientUnits="userSpaceOnUse"><stop offset="0" stop-color="#fff"/><stop offset="1" stop-color="#fff" stop-opacity="0"/></radialGradient><radialGradient id="Dégradé_sans_nom_6-6" cx="27.77" cy="24.02" fx="27.77" fy="24.02" r="3.39" gradientTransform="translate(-.5 30.94) rotate(-31.16) scale(1 .36)" xlink:href="#Dégradé_sans_nom_6"/><radialGradient id="Dégradé_sans_nom_6-7" cx="27.02" cy="19.09" fx="27.02" fy="19.09" r="4.14" gradientTransform="translate(.07 23.31) rotate(-16.75) scale(1 .2)" xlink:href="#Dégradé_sans_nom_6"/><linearGradient id="Dégradé_sans_nom_18" x1="10.89" y1="32.93" x2="10.81" y2="34.86" gradientUnits="userSpaceOnUse"><stop offset=".28" stop-color="#000" stop-opacity="0"/><stop offset="1" stop-color="#000"/></linearGradient><linearGradient id="Dégradé_sans_nom_10" x1="13.01" y1="26.73" x2="15.99" y2="26.73" gradientUnits="userSpaceOnUse"><stop offset="0" stop-color="#000" stop-opacity="0"/><stop offset="1" stop-color="#000"/></linearGradient><linearGradient id="Dégradé_sans_nom_19" x1="23.02" y1="21.08" x2="23.88" y2="23.93" gradientUnits="userSpaceOnUse"><stop offset=".13" stop-color="#000" stop-opacity="0"/><stop offset="1" stop-color="#000"/></linearGradient><linearGradient id="Dégradé_sans_nom_20" x1="26.45" y1="13.35" x2="26.42" y2="16.71" gradientUnits="userSpaceOnUse"><stop offset=".12" stop-color="#000" stop-opacity="0"/><stop offset="1" stop-color="#000"/></linearGradient><linearGradient id="Dégradé_sans_nom_17" x1="22.59" y1="28.51" x2="24.57" y2="31.94" gradientUnits="userSpaceOnUse"><stop offset=".45" stop-color="#000" stop-opacity="0"/><stop offset="1" stop-color="#000"/></linearGradient><linearGradient id="Dégradé_sans_nom_16" x1="16.18" y1="40.58" x2="16.35" y2="43.02" gradientUnits="userSpaceOnUse"><stop offset=".25" stop-color="#000" stop-opacity="0"/><stop offset="1" stop-color="#000"/></linearGradient><radialGradient id="Dégradé_sans_nom_13" cx="26.59" cy="40.75" fx="26.59" fy="40.75" r="4.41" gradientTransform="translate(-4.06 45.03) rotate(-38.75) scale(1 .39)" gradientUnits="userSpaceOnUse"><stop offset="0" stop-color="#000"/><stop offset="1" stop-color="#000" stop-opacity="0"/></radialGradient><linearGradient id="Dégradé_sans_nom_21" x1="23.62" y1="46.46" x2="23.36" y2="49.16" gradientUnits="userSpaceOnUse"><stop offset=".13" stop-color="#000" stop-opacity="0"/><stop offset="1" stop-color="#000"/></linearGradient><linearGradient id="Dégradé_sans_nom_31" x1="38.93" y1="20.25" x2="36.85" y2="21.77" gradientUnits="userSpaceOnUse"><stop offset="0" stop-color="#42a2da"/><stop offset="1" stop-color="#78befa" stop-opacity="0"/></linearGradient><linearGradient id="Dégradé_sans_nom_31-2" x1="36.18" y1="6.66" x2="34.39" y2="7.96" gradientTransform="translate(0 50.29) scale(1 -1)" xlink:href="#Dégradé_sans_nom_31"/><linearGradient id="Dégradé_sans_nom_31-3" x1="36.07" y1="28.22" x2="34.17" y2="29.61" xlink:href="#Dégradé_sans_nom_31"/><linearGradient id="Blanc_Noir" x1="36.06" y1="31.71" x2="47.94" y2="52.29" gradientUnits="userSpaceOnUse"><stop offset="0" stop-color="#fff"/><stop offset="1" stop-color="#000"/></linearGradient><linearGradient id="Dégradé_sans_nom_32" x1="42" y1="34.05" x2="42" y2="49.86" gradientUnits="userSpaceOnUse"><stop offset="0" stop-color="#5a5a5a"/><stop offset="1" stop-color="#aaa"/></linearGradient><linearGradient id="linear-gradient-4" x1="40.98" y1="37.58" x2="53.31" y2="58.94" xlink:href="#linear-gradient-2"/></defs><g id="B"><g id="MACHINE_LEARNING"><g id="CERVEAU"><path d="M29.5,7.5c-5,0-12,.96-12,4.5,0,.5,.15,1.16,.15,1.6,0,.29-.14,.6-.46,.6-3.6,0-5.69,2.43-5.69,5.3,0,1.52,.5,1.67,.5,2.24,0,1.3-4.5,.02-4.5,7.26,0,7.24,4.5,5.96,4.5,7.26,0,.56-.5,.72-.5,2.24,0,2.87,1.98,5.33,5.88,5.33,.32,0,.31,.34,.31,.63,0,.53-.19,.2-.19,1.05,0,3.54,7,5,12,5V7.5Z" fill="url(#linear-gradient)" stroke="#003755" stroke-linejoin="round"/><g><path d="M29.5,16.5c-1.76,0-2.44,1-4,1s-2-1-2-1" fill="none" stroke="#003755" stroke-linecap="round" stroke-linejoin="round"/><path d="M23.5,13.5c.2,1.3,.23,4.12-2,5" fill="none" stroke="#003755" stroke-linecap="round" stroke-linejoin="round"/><path d="M29.5,22.5c-5.15-.32-5.1,3-9,3-2.76,0-3-1-3-1" fill="none" stroke="#003755" stroke-linecap="round" stroke-linejoin="round"/><path d="M17.5,21.5c.4,1.35,.23,4.7-3,6" fill="none" stroke="#003755" stroke-linecap="round" stroke-linejoin="round"/><path d="M29.5,29.5c-3.03,0-3.95,4.04-8,5" fill="none" stroke="#003755" stroke-linecap="round" stroke-linejoin="round"/><path d="M18.5,33.5c1.98,.28,3.99,1.19,4,4" fill="none" stroke="#003755" stroke-linecap="round" stroke-linejoin="round"/><path d="M29.5,40.5c-2,0-4.72,.23-6,3" fill="none" stroke="#003755" stroke-linecap="round" stroke-linejoin="round"/><path d="M17.64,43.99c.14-1.56,.86-2.49,1.86-2.49" fill="none" stroke="#003755" stroke-linecap="round" stroke-linejoin="round"/><path d="M11.95,36.57c.27-1.2,1.05-1.57,1.05-1.57" fill="none" stroke="#003755" stroke-linecap="round" stroke-linejoin="round"/></g><g id="lumiere" opacity=".5"><ellipse cx="22.84" cy="11" rx="4.68" ry="1.48" transform="translate(-2.31 7.79) rotate(-18.44)" fill="url(#Dégradé_sans_nom_6)"/><ellipse cx="15.52" cy="17.39" rx="3.36" ry="1.48" transform="translate(-5.64 7.61) rotate(-23.45)" fill="url(#Dégradé_sans_nom_6-2)"/><ellipse cx="11.02" cy="24.62" rx="2.35" ry="1.03" transform="translate(-8.89 6.42) rotate(-23.45)" fill="url(#Dégradé_sans_nom_6-3)"/><ellipse cx="19.82" cy="27.75" rx="1.03" ry="3.26" transform="translate(-11.73 40.67) rotate(-76.73)" fill="url(#Dégradé_sans_nom_6-4)"/><ellipse cx="14.42" cy="36.68" rx="2.35" ry="1.03" transform="translate(-20.54 18.48) rotate(-41.04)" fill="url(#Dégradé_sans_nom_6-5)"/><path d="M29.01,31.61v3.76c-2.18,.97-4.37,1.16-4.99,.42-.68-.79,.62-2.31,2.89-3.41,.7-.34,1.42-.6,2.1-.78Z" fill="url(#Dégradé_sans_nom_7)"/><path d="M29,22.21v2.52c-.26,.26-.56,.49-.9,.71-1.44,.91-2.92,1.12-3.34,.46-.41-.64,.4-1.92,1.82-2.83,.86-.56,1.76-.85,2.42-.85Z" fill="url(#Dégradé_sans_nom_6-6)"/><path d="M29,17.65v1.48c-.51,.22-1.09,.43-1.7,.63-2.41,.8-4.48,1.12-4.61,.71-.15-.41,1.7-1.4,4.11-2.2,.79-.26,1.54-.47,2.2-.62Z" fill="url(#Dégradé_sans_nom_6-7)"/></g><g id="ombres" opacity=".3"><g><path d="M10.74,33.97c.09,0,1.53,.11,1.61,.11,.7,0,.85,.28,.93,.51-.07-.04-.14-.07-.33-.08-.2,0-.51,.2-1.03,.84-1.11-.6-2.71-.72-3.45-3.06,.6,.95,1.4,1.68,2.28,1.68Z"/><path d="M15.99,25.87c-.37,.41-.99,.89-1.69,1.17-.23,.1-.31,.29-.31,.54-.57,.04-.99,0-.99,0,.69-.09,2.06-.99,2.98-1.7Z"/><path d="M28.83,20.82c.06,0,.12,0,.17,0v1.16s-.04,0-.05,0c-4.88,0-4.88,3.01-8.5,3.01-1.67,0-2.3-.39-2.51-.68,.14-.47,.2-.96,.21-1.44s-.02-1.06-.16-1.42c.03,.03,1.67,2.3,2.99,2.3,2.16,0,3.72-2.94,7.85-2.94Z"/><path d="M29,14.96v1.06c-1.46,.14-2.22,.98-3.58,.98-.8,0-1.35-.41-1.5-.77,.1-.53,.15-.96,.15-1.4,0-1.36-.1-1.51-.19-1.65,.05-.03,.12-.05,.2-.05,1.34,0,1.85,2.2,3.59,2.2,.14,0,.41,0,1.33-.38Z"/><path d="M29.01,27.09v1.94c-2.76,.24-4.08,4.19-7.66,4.99-1.23-.87-2.54-1.01-2.8-1.01-.14,0-.33,.03-.48,.21,.05-.87,.9-1.36,1.49-1.36,.47,0,.99,.26,1.93,.26,3.59,0,3.64-4.76,7.52-5.02Z"/><path d="M19.1,40.63c.36,0,.72,.32,.86,.65-.12-.14-.28-.27-.46-.27-1.09,0-1.95,.87-2.3,2.34-2.38,0-4.11-1.14-4.75-2.71,.69,.66,1.66,.83,2.48,.83,1.82,0,3.08-.83,4.17-.83Z"/><path d="M29.01,37.89v2.14c-2.04-.01-4.89,.6-6.01,3.42,.07-2.15,2.39-5.25,6.01-5.56Z"/><path d="M29.01,46.93v3.08c-4.29,.17-11.01-1.61-11.01-4.39,0-.4,.04-.5,.04-.5,.4,.92,2.41,2.2,4.57,2.35,2.27,.16,4.74,.18,6.41-.54Z"/></g><g><path d="M10.74,33.97c.09,0,1.53,.11,1.61,.11,.7,0,.85,.28,.93,.51-.07-.04-.14-.07-.33-.08-.2,0-.51,.2-1.03,.84-1.11-.6-2.71-.72-3.45-3.06,.6,.95,1.4,1.68,2.28,1.68Z" fill="url(#Dégradé_sans_nom_18)"/><path d="M15.99,25.87c-.37,.41-.99,.89-1.69,1.17-.23,.1-.31,.29-.31,.54-.57,.04-.99,0-.99,0,.69-.09,2.06-.99,2.98-1.7Z" fill="url(#Dégradé_sans_nom_10)"/><path d="M28.83,20.82c.06,0,.12,0,.17,0v1.16s-.04,0-.05,0c-4.88,0-4.88,3.01-8.5,3.01-1.67,0-2.3-.39-2.51-.68,.14-.47,.2-.96,.21-1.44s-.02-1.06-.16-1.42c.03,.03,1.67,2.3,2.99,2.3,2.16,0,3.72-2.94,7.85-2.94Z" fill="url(#Dégradé_sans_nom_19)"/><path d="M29,14.96v1.06c-1.46,.14-2.22,.98-3.58,.98-.8,0-1.35-.41-1.5-.77,.1-.53,.15-.96,.15-1.4,0-1.36-.1-1.51-.19-1.65,.05-.03,.12-.05,.2-.05,1.34,0,1.85,2.2,3.59,2.2,.14,0,.41,0,1.33-.38Z" fill="url(#Dégradé_sans_nom_20)"/><path d="M29.01,27.09v1.94c-2.76,.24-4.08,4.19-7.66,4.99-1.23-.87-2.54-1.01-2.8-1.01-.14,0-.33,.03-.48,.21,.05-.87,.9-1.36,1.49-1.36,.47,0,.99,.26,1.93,.26,3.59,0,3.64-4.76,7.52-5.02Z" fill="url(#Dégradé_sans_nom_17)"/><path d="M19.1,40.63c.36,0,.72,.32,.86,.65-.12-.14-.28-.27-.46-.27-1.09,0-1.95,.87-2.3,2.34-2.38,0-4.11-1.14-4.75-2.71,.69,.66,1.66,.83,2.48,.83,1.82,0,3.08-.83,4.17-.83Z" fill="url(#Dégradé_sans_nom_16)"/><path d="M29.01,37.89v2.14c-2.04-.01-4.89,.6-6.01,3.42,.07-2.15,2.39-5.25,6.01-5.56Z" fill="url(#Dégradé_sans_nom_13)"/><path d="M29.01,46.93v3.08c-4.29,.17-11.01-1.61-11.01-4.39,0-.4,.04-.5,.04-.5,.4,.92,2.41,2.2,4.57,2.35,2.27,.16,4.74,.18,6.41-.54Z" fill="url(#Dégradé_sans_nom_21)"/></g></g></g><g id="MACHINE"><g><path d="M53.5,29c0,1.93-1.57,3.5-3.5,3.5-1.39,0-2.6-.82-3.15-2h-15.35v-3h15.35c.55-1.18,1.76-2,3.15-2,1.93,0,3.5,1.57,3.5,3.5Z" fill="url(#linear-gradient-3)" stroke="#323232" stroke-linejoin="round"/><path d="M51.5,19c0,1.93-1.57,3.5-3.5,3.5-1.39,0-2.6-.82-3.15-2h-4.23l-2.56,2.56c-.28,.28-.66,.44-1.06,.44h-5.5v-3h4.88l2.56-2.56c.28-.28,.66-.44,1.06-.44h4.85c.55-1.18,1.76-2,3.15-2,1.93,0,3.5,1.57,3.5,3.5Z" fill="url(#linear-gradient-3)" stroke="#323232" stroke-linejoin="round"/><path d="M51.5,39c0,1.93-1.57,3.5-3.5,3.5-1.39,0-2.6-.82-3.15-2h-4.85c-.4,0-.78-.16-1.06-.44l-2.56-2.56h-4.88v-3h5.5c.4,0,.78,.16,1.06,.44l2.56,2.56h4.23c.55-1.18,1.76-2,3.15-2,1.93,0,3.5,1.57,3.5,3.5Z" fill="url(#linear-gradient-3)" stroke="#323232" stroke-linejoin="round"/><path d="M44.5,11c0,1.93-1.57,3.5-3.5,3.5-.41,0-.8-.07-1.17-.21l-1.77,1.77c-.28,.28-.66,.44-1.06,.44h-5.5v-3h4.88l1.33-1.33c-.14-.37-.21-.76-.21-1.17,0-1.93,1.57-3.5,3.5-3.5s3.5,1.57,3.5,3.5Z" fill="url(#linear-gradient-3)" stroke="#323232" stroke-linejoin="round"/><path d="M44.5,47c0,1.93-1.57,3.5-3.5,3.5s-3.5-1.57-3.5-3.5c0-.41,.07-.8,.21-1.17l-1.33-1.33h-4.88v-3h5.5c.4,0,.78,.16,1.06,.44l1.77,1.77c.37-.14,.76-.21,1.17-.21,1.93,0,3.5,1.57,3.5,3.5Z" fill="url(#linear-gradient-3)" stroke="#323232" stroke-linejoin="round"/></g><g id="ombre" opacity=".2"><path d="M53,29c0,1.65-1.35,3-3,3-1.15,0-2.21-.67-2.7-1.71-.08-.18-.26-.29-.45-.29h-14.85v-1h14.85c.19,0,.37,.11,.45,.29,.49,1.04,1.55,1.71,2.7,1.71,1.48,0,2.72-1.08,2.95-2.5,.04,.16,.05,.33,.05,.5Z"/><path d="M51,19c0,1.65-1.35,3-3,3-1.15,0-2.21-.67-2.7-1.71-.08-.18-.26-.29-.45-.29h-4.23c-.13,0-.26,.05-.35,.15l-2.56,2.56c-.19,.19-.44,.29-.71,.29h-5v-1h5c.27,0,.52-.1,.71-.29l2.56-2.56c.09-.1,.22-.15,.35-.15h4.23c.19,0,.37,.11,.45,.29,.49,1.04,1.55,1.71,2.7,1.71,1.48,0,2.72-1.08,2.95-2.5,.04,.16,.05,.33,.05,.5Z"/><path d="M51,39c0,1.65-1.35,3-3,3-1.15,0-2.21-.67-2.7-1.71-.08-.18-.26-.29-.45-.29h-4.85c-.27,0-.52-.1-.71-.29l-2.56-2.56c-.09-.1-.22-.15-.35-.15h-4.38v-1h4.38c.13,0,.26,.05,.35,.15l2.56,2.56c.19,.19,.44,.29,.71,.29h4.85c.19,0,.37,.11,.45,.29,.49,1.04,1.55,1.71,2.7,1.71,1.48,0,2.72-1.08,2.95-2.5,.04,.16,.05,.33,.05,.5Z"/><path d="M44,11c0,1.65-1.35,3-3,3-.35,0-.68-.06-.99-.18-.19-.07-.39-.02-.53,.12l-1.77,1.77c-.19,.19-.44,.29-.71,.29h-5v-1h5c.27,0,.52-.1,.71-.29l1.77-1.77c.14-.14,.34-.19,.53-.12,.31,.12,.64,.18,.99,.18,1.48,0,2.72-1.08,2.95-2.5,.04,.16,.05,.33,.05,.5Z"/><g><path d="M38.05,45.47l-1.32-1.32c-.09-.1-.22-.15-.35-.15h-4.38v-1h4.38c.13,0,.26,.05,.35,.15l1.33,1.33c.14,.14,.19,.34,.12,.53-.06,.15-.1,.3-.13,.46Z"/><path d="M44,47c0,1.65-1.35,3-3,3s-3-1.35-3-3c0-.18,.02-.34,.04-.51,.24,1.42,1.48,2.51,2.96,2.51s2.72-1.08,2.95-2.5c.04,.16,.05,.33,.05,.5Z"/></g></g><g id="lumière" opacity=".3"><path d="M53,29c0,.17-.01,.34-.05,.5-.23-1.42-1.47-2.5-2.95-2.5-1.15,0-2.21,.67-2.7,1.71-.08,.18-.26,.29-.45,.29h-14.85v-1h14.85c.19,0,.37-.11,.45-.29,.49-1.04,1.55-1.71,2.7-1.71,1.65,0,3,1.35,3,3Z" fill="#fff"/><path d="M51,19c0,.17-.01,.34-.05,.5-.23-1.42-1.47-2.5-2.95-2.5-1.15,0-2.21,.67-2.7,1.71-.08,.18-.26,.29-.45,.29h-4.85c-.27,0-.52,.1-.71,.29l-2.56,2.56c-.09,.1-.22,.15-.35,.15h-4.38v-1h4.38c.13,0,.26-.05,.35-.15l2.56-2.56c.19-.19,.44-.29,.71-.29h4.85c.19,0,.37-.11,.45-.29,.49-1.04,1.55-1.71,2.7-1.71,1.65,0,3,1.35,3,3Z" fill="#fff"/><path d="M51,39c0,.17-.01,.34-.05,.5-.23-1.42-1.47-2.5-2.95-2.5-1.15,0-2.21,.67-2.7,1.71-.08,.18-.26,.29-.45,.29h-4.23c-.13,0-.26-.05-.35-.15l-2.56-2.56c-.19-.19-.44-.29-.71-.29h-5v-1h5c.27,0,.52,.1,.71,.29l2.56,2.56c.09,.1,.22,.15,.35,.15h4.23c.19,0,.37-.11,.45-.29,.49-1.04,1.55-1.71,2.7-1.71,1.65,0,3,1.35,3,3Z" fill="#fff"/><g><path d="M38.18,12.99c.07,.19,.02,.39-.12,.53l-1.33,1.33c-.09,.1-.22,.15-.35,.15h-4.38v-1h4.38c.13,0,.26-.05,.35-.15l1.32-1.32c.03,.16,.07,.31,.13,.46Z" fill="#fff"/><path d="M44,11c0,.17-.01,.34-.05,.5-.23-1.42-1.47-2.5-2.95-2.5s-2.72,1.09-2.96,2.51c-.02-.17-.04-.33-.04-.51,0-1.65,1.35-3,3-3s3,1.35,3,3Z" fill="#fff"/></g><g><path d="M38.06,46.48c.14,.14,.19,.34,.12,.53-.06,.15-.1,.31-.14,.47-.03-.15-.04-.32-.04-.48,0-.18,.02-.36,.05-.53h.01Z" fill="#fff"/><path d="M44,47c0,.17-.01,.34-.05,.5-.23-1.42-1.47-2.5-2.95-2.5-.35,0-.68,.06-.99,.18-.19,.07-.39,.02-.53-.12l-1.77-1.77c-.19-.19-.44-.29-.71-.29h-5v-1h5c.27,0,.52,.1,.71,.29l1.77,1.77c.14,.14,.34,.19,.53,.12,.31-.12,.64-.18,.99-.18,1.65,0,3,1.35,3,3Z" fill="#fff"/></g></g><g id="electricite"><path d="M38.95,18.63l.88,1.95-1.9,1.9s-.34,.52-.82,.52h-.96l-.17-2h.46c.25,0,.43-.29,.61-.47s1.9-1.9,1.9-1.9Z" fill="url(#Dégradé_sans_nom_31)" opacity=".6"/><path d="M37.79,42.33s-.38-.35-.86-.35h-3.65v2.02h3.1c.25,0,.43,.18,.43,.18l.98-1.85Z" fill="url(#Dégradé_sans_nom_31-2)" opacity=".6"/><rect x="33" y="28" width="4" height="2" fill="url(#Dégradé_sans_nom_31-3)" opacity=".6"/></g></g></g><g id="WORKBENCH"><g><path d="M50.55,46.62c0,.66,.24,1.29,.74,1.79l.87,.87c-.8,1.12-1.76,2.08-2.88,2.88l-.87-.87c-.49-.49-1.12-.74-1.79-.74-1.45,0-2.58,1.14-2.58,2.55v1.22c-.68,.1-1.35,.18-2.04,.18s-1.36-.08-2.04-.18v-1.22c0-1.36-1.07-2.55-2.58-2.55-.67,0-1.29,.25-1.79,.74l-.87,.87c-1.12-.8-2.08-1.76-2.88-2.88l.87-.87c.5-.5,.74-1.12,.74-1.79,0-1.49-1.18-2.58-2.55-2.58h-1.22c-.1-.69-.18-1.35-.18-2.04s.08-1.35,.18-2.04h1.22c1.43,0,2.55-1.14,2.55-2.58,0-.66-.24-1.29-.74-1.79l-.87-.87c.8-1.12,1.76-2.08,2.88-2.88l.87,.87c.49,.49,1.11,.74,1.79,.74,1.51,0,2.58-1.2,2.58-2.55v-1.22c.68-.1,1.36-.18,2.04-.18s1.36,.08,2.04,.18v1.22c0,1.52,1.2,2.55,2.58,2.55,.65,0,1.3-.22,1.79-.71l.87-.89c1.12,.8,2.08,1.76,2.88,2.88l-.87,.87c-.5,.49-.74,1.12-.74,1.79,0,1.45,1.14,2.58,2.55,2.58h1.22c.1,.69,.18,1.35,.18,2.04s-.08,1.36-.18,2.04h-1.22c-1.36,0-2.55,1.07-2.55,2.58Zm-8.55,1.88c3.57,0,6.5-2.94,6.5-6.5s-2.93-6.5-6.5-6.5-6.5,2.93-6.5,6.5,2.91,6.5,6.5,6.5Z" fill="#fff" opacity=".75" stroke="#fff" stroke-linejoin="round" stroke-width="3"/><path d="M50.55,46.62c0,.66,.24,1.29,.74,1.79l.87,.87c-.8,1.12-1.76,2.08-2.88,2.88l-.87-.87c-.49-.49-1.12-.74-1.79-.74-1.45,0-2.58,1.14-2.58,2.55v1.22c-.68,.1-1.35,.18-2.04,.18s-1.36-.08-2.04-.18v-1.22c0-1.36-1.07-2.55-2.58-2.55-.67,0-1.29,.25-1.79,.74l-.87,.87c-1.12-.8-2.08-1.76-2.88-2.88l.87-.87c.5-.5,.74-1.12,.74-1.79,0-1.49-1.18-2.58-2.55-2.58h-1.22c-.1-.69-.18-1.35-.18-2.04s.08-1.35,.18-2.04h1.22c1.43,0,2.55-1.14,2.55-2.58,0-.66-.24-1.29-.74-1.79l-.87-.87c.8-1.12,1.76-2.08,2.88-2.88l.87,.87c.49,.49,1.11,.74,1.79,.74,1.51,0,2.58-1.2,2.58-2.55v-1.22c.68-.1,1.36-.18,2.04-.18s1.36,.08,2.04,.18v1.22c0,1.52,1.2,2.55,2.58,2.55,.65,0,1.3-.22,1.79-.71l.87-.89c1.12,.8,2.08,1.76,2.88,2.88l-.87,.87c-.5,.49-.74,1.12-.74,1.79,0,1.45,1.14,2.58,2.55,2.58h1.22c.1,.69,.18,1.35,.18,2.04s-.08,1.36-.18,2.04h-1.22c-1.36,0-2.55,1.07-2.55,2.58Zm-8.55,1.88c3.57,0,6.5-2.94,6.5-6.5s-2.93-6.5-6.5-6.5-6.5,2.93-6.5,6.5,2.91,6.5,6.5,6.5Z" fill="url(#linear-gradient-2)" stroke="#323232" stroke-linejoin="round"/><g opacity=".3"><path d="M53.89,40.46h-.79c-1.71,0-3.05-1.35-3.05-3.08,0-.82,.31-1.56,.89-2.14l.56-.56c-.63-.82-1.35-1.54-2.17-2.17l-.56,.58c-.56,.56-1.32,.87-2.14,.87-1.72,0-3.08-1.34-3.08-3.05v-.79c-.93-.12-2.16-.12-3.08,0v.79c0,1.71-1.35,3.05-3.08,3.05-.82,0-1.56-.31-2.14-.89l-.56-.56c-.82,.63-1.55,1.36-2.18,2.18l.56,.56c.58,.58,.89,1.32,.89,2.14,0,1.73-1.34,3.08-3.05,3.08h-.79c-.06,.47-.11,1-.11,1.54s.05,1.07,.11,1.54h.79c1.71,0,3.05,1.35,3.05,3.08,0,.82-.31,1.56-.89,2.14l-.56,.56c.63,.82,1.36,1.55,2.18,2.18l.56-.56c.58-.58,1.32-.89,2.14-.89,1.72,0,3.08,1.34,3.08,3.05v.79c.93,.12,2.14,.12,3.08,0v-.79c0-1.71,1.35-3.05,3.08-3.05,.82,0,1.56,.31,2.14,.89l.56,.56c.82-.63,1.55-1.36,2.18-2.18l-.56-.56c-.58-.58-.89-1.32-.89-2.14,0-1.73,1.34-3.08,3.05-3.08h.79c.06-.47,.11-1,.11-1.54s-.05-1.07-.11-1.54Zm-.9,2.08c-2.22,.06-3.94,1.83-3.94,4.08,0,1.05,.38,2,1.1,2.76-.24,.27-.5,.52-.76,.76-.76-.72-1.71-1.1-2.76-1.1-2.24,0-4.01,1.71-4.07,3.92-.17,0-.36,.01-.54,.01s-.37,0-.55-.01c-.07-2.21-1.83-3.92-4.07-3.92-1.05,0-2,.38-2.76,1.1-.27-.24-.52-.5-.76-.76,.72-.76,1.1-1.71,1.1-2.76,0-2.25-1.72-4.02-3.94-4.08-.01-.19-.02-.37-.02-.54s0-.35,.02-.54c2.22-.06,3.94-1.83,3.94-4.08,0-1.05-.38-2.01-1.1-2.76,.24-.27,.5-.52,.76-.76,.76,.72,1.71,1.1,2.76,1.1,2.24,0,4.01-1.71,4.07-3.92,.18,0,.36-.01,.54-.01s.37,0,.54,.01c.07,2.21,1.83,3.92,4.07,3.92,1.06,0,2.04-.38,2.78-1.09,.26,.24,.51,.49,.75,.75-.72,.76-1.1,1.71-1.1,2.76,0,2.25,1.72,4.02,3.94,4.08,.01,.19,.02,.37,.02,.54s0,.35-.02,.54Z" fill="url(#Blanc_Noir)"/></g><path d="M42,34c-4.42,0-8,3.58-8,8s3.58,8,8,8,8-3.58,8-8-3.58-8-8-8Zm0,15c-3.87,0-7-3.13-7-7s3.13-7,7-7,7,3.13,7,7-3.13,7-7,7Z" fill="url(#Dégradé_sans_nom_32)"/></g><g><path d="M57.5,55.2c0,.29-.06,.58-.18,.86-.12,.28-.28,.53-.48,.74-.21,.21-.45,.38-.73,.51-.28,.13-.58,.19-.91,.19-.29,0-.57-.05-.85-.15-.28-.11-.54-.27-.78-.51l-10.27-10.53c-.41,.12-.85,.19-1.3,.19-2.49,0-4.5-2.01-4.5-4.5,0-.39,.05-.76,.14-1.12l2.39,2.39c.34,.34,.75,.51,1.24,.51s.92-.17,1.26-.51l.74-.74c.34-.34,.51-.76,.51-1.25s-.17-.91-.51-1.25l-2.39-2.39c.36-.09,.73-.14,1.12-.14,2.49,0,4.5,2.01,4.5,4.5,0,.39-.05,.77-.15,1.14l10.49,10.43c.44,.44,.66,.99,.66,1.63Z" fill="#fff" opacity=".75" stroke="#fff" stroke-linejoin="round" stroke-width="3"/><path d="M57.5,55.2c0,.29-.06,.58-.18,.86-.12,.28-.28,.53-.48,.74-.21,.21-.45,.38-.73,.51-.28,.13-.58,.19-.91,.19-.29,0-.57-.05-.85-.15-.28-.11-.54-.27-.78-.51l-10.27-10.53c-.41,.12-.85,.19-1.3,.19-2.49,0-4.5-2.01-4.5-4.5,0-.39,.05-.76,.14-1.12l2.39,2.39c.34,.34,.75,.51,1.24,.51s.92-.17,1.26-.51l.74-.74c.34-.34,.51-.76,.51-1.25s-.17-.91-.51-1.25l-2.39-2.39c.36-.09,.73-.14,1.12-.14,2.49,0,4.5,2.01,4.5,4.5,0,.39-.05,.77-.15,1.14l10.49,10.43c.44,.44,.66,.99,.66,1.63Z" fill="url(#linear-gradient-4)" stroke="#323232" stroke-linejoin="round"/><g opacity=".3"><path d="M45.97,42.45c.02-.15,.03-.3,.03-.45s-.03-.29-.04-.44c-.02,.15-.05,.3-.09,.44-.04,.16,0,.32,.1,.44Z"/><path d="M44.22,40.78c.03-.16,.06-.33,.06-.5,0-.63-.22-1.17-.66-1.6l-.49-.49c-.36-.11-.73-.18-1.13-.18h-.05l1.68,1.68c.31,.31,.51,.68,.6,1.1Z"/><path d="M56.86,54.86c-.1,.23-.23,.43-.37,.58-.17,.17-.36,.31-.59,.41-.39,.18-.91,.19-1.37,.03-.23-.09-.43-.22-.6-.39l-10.27-10.53c-.1-.1-.23-.15-.36-.15-.05,0-.09,0-.14,.02-.39,.11-.78,.17-1.16,.17-1.81,0-3.33-1.22-3.82-2.87l-.18-.18v.05c0,2.21,1.79,4,4,4,.38,0,.77-.06,1.16-.17,.05-.01,.09-.02,.14-.02,.13,0,.26,.05,.36,.15l10.27,10.53c.17,.17,.37,.3,.6,.39,.46,.16,.98,.15,1.37-.03,.22-.1,.42-.24,.59-.41,.15-.15,.28-.35,.37-.58,.09-.21,.14-.44,.14-.66,0-.19-.03-.36-.08-.53-.02,.06-.03,.13-.06,.19Z"/></g><g opacity=".3"><path d="M45.97,43.45c-.02,.19-.05,.38-.1,.56-.05,.17,0,.36,.13,.49l10.49,10.43c.22,.22,.36,.47,.44,.75,.05-.15,.08-.31,.08-.47,0-.51-.17-.93-.51-1.28l-10.49-10.43s-.02-.03-.03-.05Z" fill="#fff"/><path d="M39.68,44.62c.88,.88,2.35,.86,3.21,0l.74-.74c.43-.43,.66-.98,.66-1.6,0-.18-.02-.34-.06-.5-.09,.42-.29,.8-.6,1.11l-.74,.74c-.86,.86-2.33,.88-3.21,0l-1.68-1.68v.05c0,.39,.08,.77,.18,1.13l1.49,1.49Z" fill="#fff"/><path d="M45.96,42.56c.03-.19,.04-.37,.04-.56,0-2.21-1.79-4-4-4h-.05l1.18,1.18c1.52,.45,2.65,1.77,2.83,3.38Z" fill="#fff"/></g></g></g></g></svg>