<svg id="IT_2" data-name="IT 2" xmlns="http://www.w3.org/2000/svg" xmlns:xlink="http://www.w3.org/1999/xlink" viewBox="0 0 64 64"><defs><style>.cls-1{fill:#fff;}.cls-2,.cls-3{fill:none;stroke-miterlimit:10;}.cls-2{stroke:#000;stroke-width:3.5px;}.cls-3{stroke:#fff;stroke-width:1.5px;}.cls-4{fill:url(#linear-gradient);}.cls-5{fill:#323232;}.cls-6{fill:url(#linear-gradient-2);}.cls-7{fill:url(#linear-gradient-3);}.cls-8{fill:url(#linear-gradient-4);}.cls-9{fill:url(#linear-gradient-5);}.cls-10{mask:url(#mask);}.cls-11{opacity:0.5;}.cls-12{fill:url(#linear-gradient-6);}.cls-13{fill:url(#linear-gradient-7);}.cls-14{fill:#053755;}.DARK-GREY-Fill-9{fill:url(#linear-gradient-8);}.DARK-GREY-Fill-8{fill:url(#linear-gradient-9);}.cls-15{fill:url(#linear-gradient-10);}</style><linearGradient id="linear-gradient" x1="18.11" y1="3.58" x2="46.89" y2="53.42" gradientUnits="userSpaceOnUse"><stop offset="0" stop-color="#fff"/><stop offset="1" stop-color="#d4d5d3"/></linearGradient><linearGradient id="linear-gradient-2" x1="14.79" y1="9.24" x2="27.21" y2="30.76" gradientUnits="userSpaceOnUse"><stop offset="0" stop-color="#3387af"/><stop offset="1" stop-color="#285a78"/></linearGradient><linearGradient id="linear-gradient-3" x1="14.79" y1="26.24" x2="27.21" y2="47.76" xlink:href="#linear-gradient-2"/><linearGradient id="linear-gradient-4" x1="37.79" y1="26.24" x2="50.21" y2="47.76" xlink:href="#linear-gradient-2"/><linearGradient id="linear-gradient-5" x1="37.79" y1="9.24" x2="50.21" y2="30.76" xlink:href="#linear-gradient-2"/><mask id="mask" x="28" y="4" width="30" height="28" maskUnits="userSpaceOnUse"><rect class="cls-1" x="34" y="13" width="20" height="14"/><path class="cls-2" d="M33.81,23.4c3.75-3.76,9.83,3.75,13.59,0"/><path class="cls-3" d="M33.81,23.4c3.75-3.76,9.83,3.75,13.59,0"/><path class="cls-2" d="M40.6,16.6c3.76-3.75,9.84,3.76,13.59,0"/><path class="cls-3" d="M40.6,16.6c3.76-3.75,9.84,3.76,13.59,0"/><path class="cls-2" d="M47.4,23.4c3.75-3.76-3.76-9.84,0-13.59"/><path class="cls-3" d="M47.4,23.4c3.75-3.76-3.76-9.84,0-13.59"/><path class="cls-2" d="M40.6,30.19c3.76-3.75-3.75-9.83,0-13.59"/><path class="cls-3" d="M40.6,30.19c3.76-3.75-3.75-9.83,0-13.59"/><path d="M58,10H56V4H33v8H30V27H28v5H56V29h2ZM34,13H54V27H34Z"/></mask><linearGradient id="linear-gradient-6" x1="75.98" y1="-139.96" x2="78.58" y2="-135.47" gradientTransform="matrix(2, 0, 0, -2, -118.48, -224.02)" xlink:href="#linear-gradient"/><linearGradient id="linear-gradient-7" x1="41.96" y1="36.4" x2="48.16" y2="47.14" gradientUnits="userSpaceOnUse"><stop offset="0" stop-color="#8dd7f4"/><stop offset="1" stop-color="#386e8c"/></linearGradient><linearGradient id="linear-gradient-8" x1="48.5" y1="33.24" x2="58" y2="33.24" gradientUnits="userSpaceOnUse"><stop offset="0" stop-color="#464647"/><stop offset="1" stop-color="#151515"/></linearGradient><linearGradient id="linear-gradient-9" x1="29.5" y1="54.5" x2="34.5" y2="54.5" xlink:href="#linear-gradient-8"/><linearGradient id="linear-gradient-10" x1="48.78" y1="32.06" x2="52.97" y2="39.33" gradientUnits="userSpaceOnUse"><stop offset="0" stop-color="#ababab"/><stop offset="1" stop-color="#5a5b5b"/></linearGradient></defs><rect class="cls-4" x="7.5" y="9.5" width="50" height="38" rx="0.5"/><path class="cls-5" d="M57,10V47H8V10H57m0-1H8a1,1,0,0,0-1,1V47a1,1,0,0,0,1,1H57a1,1,0,0,0,1-1V10a1,1,0,0,0-1-1Z"/><rect class="cls-6" x="10" y="12" width="22" height="16"/><rect class="cls-7" x="10" y="29" width="22" height="16"/><rect class="cls-8" x="33" y="29" width="22" height="16"/><rect class="cls-9" x="33" y="12" width="22" height="16"/><g class="cls-10"><g id="Double_helix" data-name="Double helix"><path class="cls-3" d="M33.81,23.4c3.75-3.76,9.83,3.75,13.59,0"/><path class="cls-3" d="M40.6,16.6c3.76-3.75,9.84,3.76,13.59,0"/><path class="cls-3" d="M47.4,23.4c3.75-3.76-3.76-9.84,0-13.59"/><path class="cls-3" d="M40.6,30.19c3.76-3.75-3.75-9.83,0-13.59"/></g></g><path class="cls-1" d="M49.7,40.39a2.38,2.38,0,0,1,.3,1.18A2.43,2.43,0,0,1,47.57,44H40.43A2.41,2.41,0,0,1,38,41.57a2.38,2.38,0,0,1,.3-1.18l3.64-6.55a.42.42,0,0,0,.06-.21V32a.56.56,0,0,1-.57-.57v-.86A.56.56,0,0,1,42,30h1v3.63a1.39,1.39,0,0,1-.19.7l-2.22,4A3.29,3.29,0,0,1,42,38c2.06,0,2,1,4,1a3.81,3.81,0,0,0,1.61-.3l-2.42-4.37a1.39,1.39,0,0,1-.19-.7V30h1a.56.56,0,0,1,.57.57v.86A.56.56,0,0,1,46,32v1.63a.31.31,0,0,0,.06.21Z"/><path class="cls-1" d="M27.89,32.57a.56.56,0,0,1,.3.51v3a.56.56,0,0,1-.3.51l-2.59,1.5a.66.66,0,0,1-.3.07.52.52,0,0,1-.29-.09l-2.14-1.23-2.39,1.38v2l2.52,1.45a.66.66,0,0,1,.27.28.71.71,0,0,1,.1.37.66.66,0,0,1-.21.5.78.78,0,0,1-.53.2.69.69,0,0,1-.36-.09l-2.52-1.44-2.16,1.25a.54.54,0,0,1-.29.07.51.51,0,0,1-.3-.1l-2.59-1.46a.57.57,0,0,1-.3-.52v-3a.54.54,0,0,1,.3-.51l2.59-1.5a.51.51,0,0,1,.3-.07.54.54,0,0,1,.29.07L19.43,37l2.39-1.38v-2.5a.56.56,0,0,1,.3-.51l2.59-1.5A.5.5,0,0,1,25,31a.56.56,0,0,1,.3.07Zm-9.77,6L17,37.92l-1.13.65v1.29l1.13.65,1.12-.65Zm8-4.64L25,33.29l-1.12.64v1.29l1.12.65,1.14-.65Z"/><path class="cls-1" d="M25.48,22.57a3.82,3.82,0,0,0,2.1-.55c-.73,2.32-1.85,4-4.59,4a5.7,5.7,0,0,1-3.61-1.19c-1.43-1-2.17-1.71-3-1.71-1.22,0-2.21-.77-2.21-2.77,0-2.38.94-5.35,3.22-5.35,2,0,2.94,2.19,4,4.16C22.36,20.92,23.46,22.57,25.48,22.57Zm-6.16-8a9.56,9.56,0,0,1,3-.56,5.68,5.68,0,0,1,5.53,5.58c0,1.4-1,2-2.38,2C22.61,21.59,21.84,16.27,19.32,14.56Z"/><g id="Final_Art" data-name="Final Art"><g class="cls-11"><path class="cls-1" d="M29.5,57.5A.5.5,0,0,1,29,57V56a.45.45,0,0,1,0-.2l4-9a.42.42,0,0,1,.11-.15l18-18A3.7,3.7,0,0,1,53.33,28a5,5,0,0,1,3.53,1.68,5,5,0,0,1,1.64,3.54,4,4,0,0,1-.59,2.1L39.85,53.35a.42.42,0,0,1-.15.11l-9,4a.45.45,0,0,1-.2,0Z"/><path class="cls-1" d="M53.33,28.47A4.47,4.47,0,0,1,56.5,30,4.49,4.49,0,0,1,58,33.19,3.41,3.41,0,0,1,57.5,35l-18,18-9,4h-1V56l4-9,18-18a3.31,3.31,0,0,1,1.83-.53m0-1a4.35,4.35,0,0,0-2.42.72l-.12.1-18,18a1.21,1.21,0,0,0-.2.3l-4,9a1,1,0,0,0-.09.41v1a1,1,0,0,0,1,1h1a1,1,0,0,0,.41-.09l9-4a1.21,1.21,0,0,0,.3-.2l18-18a.76.76,0,0,0,.11-.14A4.36,4.36,0,0,0,59,33.19a5.48,5.48,0,0,0-1.79-3.89,5.44,5.44,0,0,0-3.88-1.83Z"/></g><path class="cls-12" d="M31.09,53.89l2.83-6.6,1.73-1.73a9.6,9.6,0,0,1,3.5,1.79,9.6,9.6,0,0,1,1.79,3.5l-1.73,1.73-6.6,2.83Z"/><path class="cls-5" d="M35.79,46.13a8.43,8.43,0,0,1,3,1.58,8.43,8.43,0,0,1,1.58,3l-1.44,1.45-6.2,2.65-1-1,2.65-6.2,1.45-1.44M35.5,45l-2,2-3,7,2,2,7-3,2-2a10.62,10.62,0,0,0-2-4,10.62,10.62,0,0,0-4-2Z"/><path class="cls-13" d="M39.86,51.93a8.24,8.24,0,0,0-5.29-5.29L48.71,32.5h3.58L54,34.21v3.58Z"/><path class="cls-14" d="M52.09,33l1.41,1.41v3.18L40.08,51a8.39,8.39,0,0,0-1.87-2.72,8.55,8.55,0,0,0-2.72-1.87L48.91,33h3.18m.41-1h-4l-15,15h.07a5.86,5.86,0,0,1,3.93,2c2.13,2.13,2,4,2,4l15-15V34l-2-2Z"/><path class="DARK-GREY-Fill-9" d="M51.5,29s2.33-1.69,5,1,1,5,1,5l-3,3-6-6Z"/><polygon class="DARK-GREY-Fill-8" points="31.5 52 29.5 56 29.5 57 30.5 57 34.5 55 31.5 52"/><path class="cls-15" d="M51.77,40a7.34,7.34,0,0,0-5.29-5.29l3.18-3.19a7.77,7.77,0,0,1,3.49,1.81A7.77,7.77,0,0,1,55,36.84Z"/><path class="cls-5" d="M49.81,32.1a6.89,6.89,0,0,1,3,1.61,6.89,6.89,0,0,1,1.61,3L52,39.11a8.19,8.19,0,0,0-1.77-2.82,8.34,8.34,0,0,0-2.82-1.77l2.42-2.42M49.5,31l-4,4a8.28,8.28,0,0,1,4,2,8.28,8.28,0,0,1,2,4l4-4a8.28,8.28,0,0,0-2-4,8.28,8.28,0,0,0-4-2Z"/></g></svg>