<svg id="iT_1" data-name="iT 1" xmlns="http://www.w3.org/2000/svg" xmlns:xlink="http://www.w3.org/1999/xlink" viewBox="0 0 64 64"><defs><style>.cls-1{fill:#fff;stroke:#fff;stroke-width:4px;opacity:0.5;}.Grey-LIGHT,.Grey-MEDIUM,.White-OUTLINE,.White-RIGHT-\&amp;-FRONT,.cls-1,.cls-10,.cls-2,.cls-3,.cls-4,.cls-5,.cls-6,.cls-7,.cls-8,.cls-9{stroke-linejoin:round;}.White-OUTLINE,.cls-2{fill:none;}.Grey-MEDIUM,.White-OUTLINE,.cls-2{stroke:#323232;}.cls-2{stroke-width:2px;}.cls-10,.cls-3,.cls-4,.cls-5,.cls-6,.cls-8,.cls-9{stroke:#003755;}.cls-3{fill:url(#Dégradé_sans_nom_2);}.cls-4{fill:url(#Dégradé_sans_nom_2-2);}.cls-5{fill:url(#Dégradé_sans_nom_2-3);}.cls-6{fill:url(#Dégradé_sans_nom_2-4);}.Grey-MEDIUM{fill:url(#linear-gradient);}.Grey-LIGHT,.White-RIGHT-\&amp;-FRONT,.cls-7{stroke:#787878;}.White-RIGHT-\&amp;-FRONT{fill:url(#linear-gradient-3);}.cls-7{fill:url(#linear-gradient-5);}.Grey-LIGHT{fill:url(#linear-gradient-6);}.cls-8{fill:url(#Dégradé_sans_nom_2-5);}.cls-9{fill:url(#Dégradé_sans_nom_2-6);}.cls-10{fill:url(#Dégradé_sans_nom_2-7);}</style><radialGradient id="Dégradé_sans_nom_2" cx="48.44" cy="12.58" r="3" gradientUnits="userSpaceOnUse"><stop offset="0" stop-color="#8cd7f5"/><stop offset="1" stop-color="#376e8c"/></radialGradient><radialGradient id="Dégradé_sans_nom_2-2" cx="17.12" cy="46.24" r="2.5" xlink:href="#Dégradé_sans_nom_2"/><radialGradient id="Dégradé_sans_nom_2-3" cx="52.44" cy="36.58" r="3" xlink:href="#Dégradé_sans_nom_2"/><radialGradient id="Dégradé_sans_nom_2-4" cx="27.12" cy="12.24" r="2.5" xlink:href="#Dégradé_sans_nom_2"/><linearGradient id="linear-gradient" x1="22.5" y1="27.77" x2="24.5" y2="31.23" gradientUnits="userSpaceOnUse"><stop offset="0" stop-color="#aaa"/><stop offset="1" stop-color="#5a5a5a"/></linearGradient><linearGradient id="linear-gradient-3" x1="24.35" y1="22.05" x2="30.65" y2="32.95" gradientUnits="userSpaceOnUse"><stop offset="0" stop-color="#fff"/><stop offset="1" stop-color="#d2d2d2"/></linearGradient><linearGradient id="linear-gradient-5" x1="32.73" y1="17.21" x2="42.05" y2="33.34" gradientUnits="userSpaceOnUse"><stop offset="0" stop-color="#fff"/><stop offset="1" stop-color="#f0f0f0"/></linearGradient><linearGradient id="linear-gradient-6" x1="32.49" y1="31.89" x2="37.84" y2="41.15" gradientUnits="userSpaceOnUse"><stop offset="0" stop-color="#d7d7d7"/><stop offset="1" stop-color="#969696"/></linearGradient><radialGradient id="Dégradé_sans_nom_2-5" cx="37.77" cy="50.93" r="3.5" xlink:href="#Dégradé_sans_nom_2"/><radialGradient id="Dégradé_sans_nom_2-6" cx="9.44" cy="22.58" r="3" xlink:href="#Dégradé_sans_nom_2"/><radialGradient id="Dégradé_sans_nom_2-7" cx="31.77" cy="24.93" r="3.5" xlink:href="#Dégradé_sans_nom_2"/></defs><line class="cls-1" x1="53.5" y1="37.5" x2="37.5" y2="35.5"/><line class="cls-1" x1="17.5" y1="47.5" x2="29.5" y2="37.5"/><line class="cls-1" x1="49.5" y1="13.5" x2="26.5" y2="12.5"/><line class="cls-1" x1="10.5" y1="23.5" x2="28.5" y2="12.5"/><line class="cls-1" x1="48.01" y1="14.86" x2="33.5" y2="25.5"/><line class="cls-1" x1="49.75" y1="15.92" x2="53.07" y2="35"/><line class="cls-1" x1="32.5" y1="25.5" x2="39.5" y2="53.5"/><line class="cls-1" x1="52.22" y1="38.78" x2="38.5" y2="52.5"/><line class="cls-1" x1="17.88" y1="45.63" x2="10.5" y2="23.5"/><line class="cls-1" x1="19.58" y1="47.07" x2="39.5" y2="52.5"/><line class="cls-1" x1="10.5" y1="23.5" x2="35.5" y2="26.5"/><line class="cls-2" x1="53.5" y1="37.5" x2="37.5" y2="35.5"/><line class="cls-2" x1="17.5" y1="47.5" x2="29.5" y2="37.5"/><line class="cls-2" x1="49.5" y1="13.5" x2="26.5" y2="12.5"/><line class="cls-2" x1="10.5" y1="23.5" x2="28.5" y2="12.5"/><circle class="cls-3" cx="49.5" cy="13.5" r="3"/><circle class="cls-4" cx="18" cy="47" r="2.5"/><circle class="cls-5" cx="53.5" cy="37.5" r="3"/><circle class="cls-6" cx="28" cy="13" r="2.5"/><circle class="Grey-MEDIUM" cx="23.5" cy="29.5" r="2"/><circle class="Grey-MEDIUM" cx="40.5" cy="25.5" r="2"/><polygon class="White-RIGHT-&amp;-FRONT" points="24.5 36.5 30.5 18.5 23.5 29.5 24.5 36.5"/><polygon class="White-RIGHT-&amp;-FRONT" points="30.5 18.5 24.5 36.5 43.5 32.5 30.5 18.5"/><polygon class="cls-7" points="30.5 18.5 43.5 32.5 40.5 25.5 30.5 18.5"/><polygon class="Grey-LIGHT" points="24.5 36.5 35.5 42.5 43.5 32.5 24.5 36.5"/><polygon class="White-OUTLINE" points="40.5 25.5 30.5 18.5 23.5 29.5 24.5 36.5 35.5 42.5 43.5 32.5 40.5 25.5"/><circle class="Grey-MEDIUM" cx="30.5" cy="18.5" r="2"/><circle class="Grey-MEDIUM" cx="24.5" cy="37.5" r="2"/><circle class="Grey-MEDIUM" cx="44.5" cy="32.5" r="2"/><circle class="Grey-MEDIUM" cx="35.75" cy="41.75" r="1.75"/><line class="cls-2" x1="48.01" y1="14.86" x2="33.5" y2="25.5"/><line class="cls-2" x1="49.75" y1="15.92" x2="53.07" y2="35"/><line class="cls-2" x1="32.5" y1="25.5" x2="39.5" y2="53.5"/><line class="cls-2" x1="52.22" y1="38.78" x2="38.5" y2="52.5"/><line class="cls-2" x1="17.88" y1="45.63" x2="10.5" y2="23.5"/><line class="cls-2" x1="19.58" y1="47.07" x2="39.5" y2="52.5"/><line class="cls-2" x1="10.5" y1="23.5" x2="35.5" y2="26.5"/><circle class="cls-8" cx="39" cy="52" r="3.5"/><circle class="cls-9" cx="10.5" cy="23.5" r="3"/><circle class="cls-10" cx="33" cy="26" r="3.5"/></svg>