<svg xmlns="http://www.w3.org/2000/svg" width="64" height="64" viewBox="0 0 64 64">
  <title>36858_I_BIOVIA_Roleicon_r21x</title>
  <rect x="15" y="42" width="34" height="14" rx="6" fill="#fff"/>
  <g>
    <g>
      <circle cx="32" cy="25" r="18" fill="#fff"/>
      <path d="M32,8A17,17,0,0,1,49,25h0A17,17,0,0,1,32,42h0A17,17,0,0,1,15,25h0A17,17,0,0,1,32,8h0m0-2A19,19,0,1,0,51,25,19.021,19.021,0,0,0,32,6Z" fill="#fff"/>
    </g>
    <g>
      <circle cx="32" cy="25" r="16.5" fill="#fff"/>
      <path d="M32,9A16,16,0,1,1,16,25,16.019,16.019,0,0,1,32,9m0-1h0A17,17,0,0,0,15,25h0A17,17,0,0,0,32,42h0A17,17,0,0,0,49,25h0A17,17,0,0,0,32,8Z" fill="#c8d300"/>
    </g>
    <path d="M37.8,19.548a1.021,1.021,0,0,1-.408.832L33,23.76v8.947a1,1,0,1,1-2,0V23.76l-4.388-3.38a1.025,1.025,0,0,1,.62-1.844.954.954,0,0,1,.621.228L32,22.845l4.147-4.081a.954.954,0,0,1,.621-.228A1.027,1.027,0,0,1,37.8,19.548Zm-5.8.881a1.355,1.355,0,1,1,1.355-1.355A1.332,1.332,0,0,1,32,20.429Z" fill="#c8d300"/>
  </g>
  <g>
    <path d="M18.478,45.717h1.944a4.535,4.535,0,0,1,.895.081,1.877,1.877,0,0,1,.675.265,1.256,1.256,0,0,1,.423.478,1.566,1.566,0,0,1,.148.715,1.471,1.471,0,0,1-.251.923,1.422,1.422,0,0,1-.685.464,1.958,1.958,0,0,1,.424.157,1.208,1.208,0,0,1,.36.274,1.341,1.341,0,0,1,.247.418,1.66,1.66,0,0,1,.094.59,1.515,1.515,0,0,1-.571,1.278,2.78,2.78,0,0,1-1.714.441,8.119,8.119,0,0,1-.918-.063c-.361-.042-.717-.1-1.071-.171Zm.945,2.619h1.053a1.237,1.237,0,0,0,.823-.247.942.942,0,0,0,.293-.761.837.837,0,0,0-.275-.706,1.419,1.419,0,0,0-.868-.212H19.423Zm0,2.664c.18.03.363.053.549.067s.344.023.477.023a2.441,2.441,0,0,0,.621-.068.943.943,0,0,0,.4-.2.754.754,0,0,0,.212-.324,1.36,1.36,0,0,0,.063-.432,1,1,0,0,0-.275-.769,1.45,1.45,0,0,0-.985-.257H19.423Z" fill="#c8d300"/>
    <path d="M24.184,51.7V45.717h.945V51.7Z" fill="#c8d300"/>
    <path d="M28.036,51.63a1.872,1.872,0,0,1-.8-.544,2.469,2.469,0,0,1-.491-.959,6.1,6.1,0,0,1,0-2.826,2.471,2.471,0,0,1,.491-.958,1.878,1.878,0,0,1,.8-.545,3.669,3.669,0,0,1,2.214,0,1.881,1.881,0,0,1,.806.545,2.47,2.47,0,0,1,.49.958,6.061,6.061,0,0,1,0,2.826,2.468,2.468,0,0,1-.49.959,1.87,1.87,0,0,1-.806.544,3.286,3.286,0,0,1-1.1.171A3.351,3.351,0,0,1,28.036,51.63Zm-.072-1.062a1.183,1.183,0,0,0,.5.4,2.005,2.005,0,0,0,1.372,0,1.119,1.119,0,0,0,.5-.4,1.991,1.991,0,0,0,.3-.733,6.328,6.328,0,0,0,0-2.241,2,2,0,0,0-.3-.734,1.116,1.116,0,0,0-.5-.4,1.99,1.99,0,0,0-1.372,0,1.153,1.153,0,0,0-.5.4,1.931,1.931,0,0,0-.3.734,6.391,6.391,0,0,0,0,2.241A1.974,1.974,0,0,0,27.964,50.568Z" fill="#c8d300"/>
    <path d="M34.354,51.7,32.1,45.717h1l1.844,5.022q.226-.5.473-1.062t.481-1.184c.157-.416.3-.855.428-1.318a12.334,12.334,0,0,0,.311-1.458h.89a10.564,10.564,0,0,1-.333,1.616q-.225.778-.512,1.517T36.05,50.3q-.348.711-.7,1.4Z" fill="#c8d300"/>
    <path d="M38.457,51.7V45.717H39.4V51.7Z" fill="#c8d300"/>
    <path d="M41.1,51.7V47.814a3.265,3.265,0,0,1,.112-.886,1.708,1.708,0,0,1,.378-.694,1.731,1.731,0,0,1,.7-.45,3.247,3.247,0,0,1,1.084-.157,3.3,3.3,0,0,1,1.09.157,1.733,1.733,0,0,1,.706.45,1.7,1.7,0,0,1,.378.694,3.264,3.264,0,0,1,.113.886V51.7h-.945V49.488H42.021V51.7Zm.926-2.925h2.692v-.99a2.507,2.507,0,0,0-.064-.58,1.133,1.133,0,0,0-.219-.459,1.07,1.07,0,0,0-.414-.3,1.678,1.678,0,0,0-.645-.108,1.694,1.694,0,0,0-.652.108,1.055,1.055,0,0,0-.414.3,1.135,1.135,0,0,0-.221.459,2.565,2.565,0,0,0-.063.58Z" fill="#c8d300"/>
  </g>
</svg>
