<svg xmlns="http://www.w3.org/2000/svg" xmlns:xlink="http://www.w3.org/1999/xlink" width="64" height="64" viewBox="0 0 64 64">
  <defs>
    <linearGradient id="a" x1="18.114" y1="3.583" x2="46.886" y2="53.417" gradientUnits="userSpaceOnUse">
      <stop offset="0" stop-color="#fff"/>
      <stop offset="1" stop-color="#d4d5d3"/>
    </linearGradient>
    <linearGradient id="b" x1="14.786" y1="9.237" x2="27.214" y2="30.763" gradientUnits="userSpaceOnUse">
      <stop offset="0" stop-color="#3387af"/>
      <stop offset="1" stop-color="#285a78"/>
    </linearGradient>
    <linearGradient id="c" x1="14.786" y1="26.237" x2="27.214" y2="47.763" xlink:href="#b"/>
    <linearGradient id="d" x1="37.786" y1="26.237" x2="50.214" y2="47.763" xlink:href="#b"/>
    <linearGradient id="e" x1="37.786" y1="9.237" x2="50.214" y2="30.763" xlink:href="#b"/>
    <mask id="f" x="5" y="21" width="30" height="28" maskUnits="userSpaceOnUse">
      <g>
        <rect x="11" y="30" width="20" height="14" fill="#fff"/>
        <g>
          <g>
            <path d="M10.812,40.4c3.751-3.751,9.833,3.751,13.584,0" fill="none" stroke="#000" stroke-miterlimit="10" stroke-width="3.5"/>
            <path d="M10.812,40.4c3.751-3.751,9.833,3.751,13.584,0" fill="none" stroke="#fff" stroke-miterlimit="10" stroke-width="1.5"/>
          </g>
          <g>
            <path d="M17.6,33.6c3.751-3.751,9.833,3.751,13.584,0" fill="none" stroke="#000" stroke-miterlimit="10" stroke-width="3.5"/>
            <path d="M17.6,33.6c3.751-3.751,9.833,3.751,13.584,0" fill="none" stroke="#fff" stroke-miterlimit="10" stroke-width="1.5"/>
          </g>
          <g>
            <path d="M24.4,40.4c3.751-3.751-3.751-9.833,0-13.584" fill="none" stroke="#000" stroke-miterlimit="10" stroke-width="3.5"/>
            <path d="M24.4,40.4c3.751-3.751-3.751-9.833,0-13.584" fill="none" stroke="#fff" stroke-miterlimit="10" stroke-width="1.5"/>
          </g>
          <g>
            <path d="M17.6,47.188c3.751-3.751-3.751-9.833,0-13.584" fill="none" stroke="#000" stroke-miterlimit="10" stroke-width="3.5"/>
            <path d="M17.6,47.188c3.751-3.751-3.751-9.833,0-13.584" fill="none" stroke="#fff" stroke-miterlimit="10" stroke-width="1.5"/>
          </g>
        </g>
      </g>
      <path d="M35,27H33V21H10v8H7V44H5v5H33V46h2ZM11,30H31V44H11Z"/>
    </mask>
    <mask id="g" x="32" y="25.288" width="27.106" height="21.084" maskUnits="userSpaceOnUse">
      <rect x="34" y="30" width="20" height="14" fill="#fff"/>
    </mask>
    <linearGradient id="h" x1="117.981" y1="-139.964" x2="120.577" y2="-135.468" gradientTransform="matrix(2, 0, 0, -2, -202.48, -224.019)" xlink:href="#a"/>
    <linearGradient id="i" x1="41.959" y1="36.396" x2="48.162" y2="47.14" gradientUnits="userSpaceOnUse">
      <stop offset="0" stop-color="#8dd7f4"/>
      <stop offset="1" stop-color="#386e8c"/>
    </linearGradient>
    <linearGradient id="j" x1="48.5" y1="33.237" x2="58" y2="33.237" gradientUnits="userSpaceOnUse">
      <stop offset="0" stop-color="#464647"/>
      <stop offset="1" stop-color="#151515"/>
    </linearGradient>
    <linearGradient id="k" x1="29.5" y1="54.5" x2="34.5" y2="54.5" xlink:href="#j"/>
    <linearGradient id="l" x1="48.775" y1="32.057" x2="52.973" y2="39.328" gradientUnits="userSpaceOnUse">
      <stop offset="0" stop-color="#ababab"/>
      <stop offset="1" stop-color="#5a5b5b"/>
    </linearGradient>
  </defs>
  <g>
    <g>
      <rect x="7.5" y="9.5" width="50" height="38" rx="0.5" fill="url(#a)"/>
      <path d="M57,10V47H8V10H57m0-1H8a1,1,0,0,0-1,1V47a1,1,0,0,0,1,1H57a1,1,0,0,0,1-1V10a1,1,0,0,0-1-1Z" fill="#323232"/>
    </g>
    <rect x="10" y="12" width="22" height="16" fill="url(#b)"/>
    <rect x="10" y="29" width="22" height="16" fill="url(#c)"/>
    <rect x="33" y="29" width="22" height="16" fill="url(#d)"/>
    <rect x="33" y="12" width="22" height="16" fill="url(#e)"/>
    <g>
      <path d="M20.7,19l-1.119.839-3.123-1.757V15.192h-.9v2.894l-3.38,1.9a.453.453,0,0,0-.23.393v4.061a.453.453,0,0,0,.23.393l3.61,2.03a.443.443,0,0,0,.442,0l3.61-2.03a.451.451,0,0,0,.23-.393V20.606l1.173-.88ZM19.16,24.177,16,25.954l-3.158-1.777V20.644L16,18.868l3.158,1.776Z" fill="#fff"/>
      <polygon points="25.026 19.817 23.943 19.004 23.402 19.726 24.575 20.606 24.575 24.441 25.477 24.441 25.477 20.606 26.65 19.726 26.109 19.004 25.026 19.817" fill="#fff"/>
      <path d="M13.992,14.589a.524.524,0,0,0,.535-.431l-.171-.044a.371.371,0,0,1-.378.329c-.233,0-.417-.155-.417-.532,0-.295.135-.511.43-.511a.336.336,0,0,1,.346.269l.168-.039a.5.5,0,0,0-.51-.377.6.6,0,0,0-.61.659C13.385,14.3,13.575,14.589,13.992,14.589Z" fill="#fff"/>
      <path d="M15.3,14.589a.67.67,0,1,0-.617-.651A.61.61,0,0,0,15.3,14.589Zm0-1.189c.243,0,.44.178.44.522s-.2.521-.443.521a.447.447,0,0,1-.44-.5C14.862,13.559,15.056,13.4,15.305,13.4Z" fill="#fff"/>
      <path d="M16.707,14.589a.67.67,0,1,0-.618-.651A.611.611,0,0,0,16.707,14.589Zm0-1.189c.248,0,.44.184.44.522,0,.354-.2.521-.443.521a.447.447,0,0,1-.44-.5C16.266,13.559,16.461,13.4,16.709,13.4Z" fill="#fff"/>
      <polygon points="17.721 13.958 18.393 13.958 18.393 14.567 18.564 14.567 18.564 13.275 18.393 13.275 18.393 13.806 17.721 13.806 17.721 13.275 17.55 13.275 17.55 14.567 17.721 14.567 17.721 13.958" fill="#fff"/>
      <path d="M22.322,17.682a.67.67,0,1,0,.617.67A.611.611,0,0,0,22.322,17.682Zm0,1.19a.448.448,0,0,1-.441-.5c0-.381.194-.541.444-.541s.439.178.439.522S22.566,18.872,22.321,18.872Z" fill="#fff"/>
      <path d="M27.48,18.872c-.232,0-.417-.155-.417-.532,0-.294.135-.511.43-.511a.336.336,0,0,1,.346.269l.168-.039a.5.5,0,0,0-.51-.377.6.6,0,0,0-.61.659c0,.385.19.677.607.677a.524.524,0,0,0,.535-.431l-.171-.044A.371.371,0,0,1,27.48,18.872Z" fill="#fff"/>
      <polygon points="29.087 18.235 28.416 18.235 28.416 17.704 28.245 17.704 28.245 18.996 28.416 18.996 28.416 18.387 29.087 18.387 29.087 18.996 29.258 18.996 29.258 17.704 29.087 17.704 29.087 18.235" fill="#fff"/>
      <path d="M29.8,19.189a.163.163,0,0,0,.1-.152.2.2,0,0,0-.22-.2.218.218,0,0,0-.226.2l.092.017a.136.136,0,0,1,.136-.136.115.115,0,0,1,.123.118c0,.087-.076.126-.153.126h-.015l-.011.081a.273.273,0,0,1,.066-.011.141.141,0,0,1,.147.147.154.154,0,0,1-.155.157c-.068,0-.126-.039-.148-.148l-.092.013a.229.229,0,0,0,.24.212.239.239,0,0,0,.253-.236A.177.177,0,0,0,29.8,19.189Z" fill="#fff"/>
      <path d="M25.029,25.638a.671.671,0,1,0,.617.671A.612.612,0,0,0,25.029,25.638Zm0,1.191a.448.448,0,0,1-.441-.5c0-.38.194-.541.444-.541s.439.179.439.523S25.273,26.829,25.028,26.829Z" fill="#fff"/>
    </g>
    <path d="M50.5,16.5a1,1,0,0,0-1.41,0l-.94.94-.59-.58.94-.94a1.008,1.008,0,0,0,0-1.42,1.014,1.014,0,0,0-1.42,0L44,17.58V19H43V17.58L39.92,14.5a1.008,1.008,0,0,0-1.42,0,1.014,1.014,0,0,0,0,1.42l.94.94-.59.58-.94-.94a1,1,0,1,0-1.41,1.41l1.59,1.59a.992.992,0,0,0,1.46-1.34l.59-.6.86.86V25a1,1,0,0,0,2,0V22h1v3a1,1,0,0,0,2,0V18.42l.86-.86.59.6a.992.992,0,0,0,1.46,1.34l1.59-1.59A1,1,0,0,0,50.5,16.5ZM44,21H43V20h1Z" fill="#fff"/>
    <g mask="url(#f)">
      <g>
        <path d="M10.812,40.4c3.751-3.751,9.833,3.751,13.584,0" fill="none" stroke="#fff" stroke-miterlimit="10" stroke-width="1.5"/>
        <path d="M17.6,33.6c3.751-3.751,9.833,3.751,13.584,0" fill="none" stroke="#fff" stroke-miterlimit="10" stroke-width="1.5"/>
        <path d="M24.4,40.4c3.751-3.751-3.751-9.833,0-13.584" fill="none" stroke="#fff" stroke-miterlimit="10" stroke-width="1.5"/>
        <path d="M17.6,47.188c3.751-3.751-3.751-9.833,0-13.584" fill="none" stroke="#fff" stroke-miterlimit="10" stroke-width="1.5"/>
      </g>
    </g>
    <g mask="url(#g)">
      <g>
        <g>
          <path d="M53,36.5c0,2.485-3.358,4.5-7.5,4.5S40,38.985,40,36.5,41.358,32,45.5,32,53,34.015,53,36.5Z" fill="none" stroke="#fff" stroke-miterlimit="10" stroke-width="1.5"/>
          <circle cx="44" cy="37" r="2" fill="#fff"/>
        </g>
        <path d="M33,38s6.4,1,8.2,7" fill="none" stroke="#fff" stroke-miterlimit="10" stroke-width="1.5"/>
        <path d="M32,35s7,0,6-4a6.889,6.889,0,0,0-4-5" fill="none" stroke="#fff" stroke-miterlimit="10" stroke-width="1.5"/>
        <path d="M49.344,28A9.743,9.743,0,0,0,57,34" fill="none" stroke="#fff" stroke-miterlimit="10" stroke-width="1.5"/>
        <path d="M48,46s4-7,11-6" fill="none" stroke="#fff" stroke-miterlimit="10" stroke-width="1.5"/>
      </g>
    </g>
  </g>
  <g>
    <g opacity="0.5">
      <path d="M29.5,57.5A.5.5,0,0,1,29,57V56a.507.507,0,0,1,.043-.2l4-9a.525.525,0,0,1,.1-.151l18-18a3.769,3.769,0,0,1,2.18-.671,4.957,4.957,0,0,1,3.529,1.673A5.025,5.025,0,0,1,58.5,33.192a3.9,3.9,0,0,1-.591,2.094L39.854,53.354a.525.525,0,0,1-.151.1l-9,4a.507.507,0,0,1-.2.043Z" fill="#fff"/>
      <path d="M53.326,28.474A4.448,4.448,0,0,1,56.5,30,4.509,4.509,0,0,1,58,33.192,3.394,3.394,0,0,1,57.5,35l-18,18-9,4h-1V56l4-9,18-18a3.338,3.338,0,0,1,1.826-.526m0-1a4.321,4.321,0,0,0-2.414.717,1.05,1.05,0,0,0-.119.1l-18,18a1,1,0,0,0-.207.3l-4,9A1,1,0,0,0,28.5,56v1a1,1,0,0,0,1,1h1a1,1,0,0,0,.406-.086l9-4a1,1,0,0,0,.3-.207l18-18a.966.966,0,0,0,.113-.134A4.383,4.383,0,0,0,59,33.192,5.5,5.5,0,0,0,57.211,29.3a5.433,5.433,0,0,0-3.885-1.823Z" fill="#fff"/>
    </g>
    <g>
      <g>
        <path d="M31.093,53.886l2.829-6.6,1.724-1.723a9.431,9.431,0,0,1,3.5,1.792,9.431,9.431,0,0,1,1.792,3.5l-1.723,1.724-6.6,2.829Z" fill="url(#h)"/>
        <path d="M35.786,46.129a8.492,8.492,0,0,1,3.007,1.578,8.47,8.47,0,0,1,1.579,3.007l-1.443,1.443-6.2,2.657-1.042-1.042,2.657-6.2,1.443-1.442M35.5,45l-2,2-3,7,2,2,7-3,2-2a10.618,10.618,0,0,0-2-4,10.641,10.641,0,0,0-4-2Z" fill="#323232"/>
      </g>
      <g>
        <path d="M39.857,51.935a8.17,8.17,0,0,0-5.29-5.3L48.707,32.5h3.586L54,34.207v3.586Z" fill="url(#i)"/>
        <path d="M52.086,33,53.5,34.414v3.172L40.078,51.007a9.091,9.091,0,0,0-4.588-4.583L48.914,33h3.172m.414-1h-4l-15,15s.023,0,.066,0A5.868,5.868,0,0,1,37.5,49c2.131,2.129,2,4,2,4l15-15V34l-2-2Z" fill="#053755"/>
      </g>
      <path d="M51.5,29s2.332-1.694,5,1c2.633,2.663,1,5,1,5l-3,3-6-6Z" fill="url(#j)"/>
      <polygon points="31.5 52 29.5 56 29.5 57 30.5 57 34.5 55 31.5 52" fill="url(#k)"/>
      <g>
        <path d="M51.771,40.021a7.307,7.307,0,0,0-5.292-5.292l3.183-3.184a7.674,7.674,0,0,1,3.484,1.809,7.655,7.655,0,0,1,1.809,3.484Z" fill="url(#l)"/>
        <path d="M49.814,32.1a6.96,6.96,0,0,1,2.979,1.607A6.952,6.952,0,0,1,54.4,36.685L51.981,39.1a7.524,7.524,0,0,0-4.587-4.585l2.42-2.42M49.5,31l-4,4a8.3,8.3,0,0,1,4,2,8.275,8.275,0,0,1,2,4l4-4a8.3,8.3,0,0,0-2-4,8.3,8.3,0,0,0-4-2Z" fill="#323232"/>
      </g>
    </g>
  </g>
</svg>
