<svg xmlns="http://www.w3.org/2000/svg" xmlns:xlink="http://www.w3.org/1999/xlink" viewBox="0 0 64 64"><defs><style>.cls-1{fill:url(#linear-gradient);}.cls-2{fill:url(#linear-gradient-2);}.cls-3{fill:url(#linear-gradient-3);}.cls-4{fill:url(#linear-gradient-4);}.cls-5{fill:url(#linear-gradient-5);}.cls-6{fill:url(#linear-gradient-6);}.cls-7{fill:url(#linear-gradient-7);}.cls-8{fill:url(#linear-gradient-8);}.cls-9{fill:url(#linear-gradient-9);}.cls-10{fill:url(#linear-gradient-10);}.cls-11{fill:url(#linear-gradient-11);}.cls-12{fill:url(#linear-gradient-12);}.cls-13{fill:url(#linear-gradient-13);}.cls-14{fill:url(#linear-gradient-14);}.cls-15{fill:url(#linear-gradient-15);}.Blue-RIGHT\,-FRONT-\&amp;-SINGLE,.cls-16,.cls-17,.cls-18,.cls-19,.cls-20,.cls-21,.cls-22,.cls-23,.cls-24,.cls-25,.cls-26,.cls-27,.cls-28,.cls-29{stroke:#003755;}.Blue-RIGHT\,-FRONT-\&amp;-SINGLE,.De-emphasized-WHITE-for-Vector-Highlights,.White-OUTLINE,.White-RIGHT-\&amp;-FRONT,.cls-16,.cls-17,.cls-18,.cls-19,.cls-20,.cls-21,.cls-22,.cls-23,.cls-24,.cls-25,.cls-26,.cls-27,.cls-28,.cls-29{stroke-linejoin:round;}.cls-16{fill:url(#radial-gradient);}.cls-17{fill:url(#radial-gradient-2);}.cls-18{fill:url(#radial-gradient-3);}.cls-19{fill:url(#radial-gradient-4);}.cls-20{fill:url(#radial-gradient-5);}.cls-21{fill:url(#radial-gradient-6);}.cls-22{fill:url(#radial-gradient-7);}.cls-23{fill:url(#radial-gradient-8);}.cls-24{fill:url(#radial-gradient-9);}.cls-25{fill:url(#radial-gradient-10);}.cls-26{fill:url(#radial-gradient-11);}.cls-27{fill:url(#radial-gradient-12);}.cls-28{fill:url(#radial-gradient-13);}.cls-29{fill:url(#radial-gradient-14);}.De-emphasized-WHITE-for-Vector-Highlights{fill:#fff;stroke:#fff;stroke-width:3px;opacity:0.5;}.White-RIGHT-\&amp;-FRONT{stroke:#787878;fill:url(#linear-gradient-16);}.White-OUTLINE{fill:none;stroke:#323232;}.Blue-RIGHT\,-FRONT-\&amp;-SINGLE{fill:url(#linear-gradient-17);}</style><linearGradient id="linear-gradient" x1="23.54" y1="32.2" x2="28.16" y2="40.19" gradientTransform="translate(0.15 3.3)" gradientUnits="userSpaceOnUse"><stop offset="0" stop-color="#3287af"/><stop offset="1" stop-color="#285a78"/></linearGradient><linearGradient id="linear-gradient-2" x1="23.75" y1="40.48" x2="28.36" y2="48.48" gradientTransform="translate(14.36 2.96) scale(0.47 1)" xlink:href="#linear-gradient"/><linearGradient id="linear-gradient-3" x1="42.42" y1="47.83" x2="47.04" y2="55.83" gradientTransform="translate(15.75 -12.87) scale(0.4 1)" xlink:href="#linear-gradient"/><linearGradient id="linear-gradient-4" x1="13.39" y1="13.84" x2="18.01" y2="21.84" gradientTransform="matrix(0, 0.43, -1, 0, 46.84, 11.8)" xlink:href="#linear-gradient"/><linearGradient id="linear-gradient-5" x1="7.64" y1="6.9" x2="12.25" y2="14.9" gradientTransform="translate(15.86 9.02) scale(0.45 1)" xlink:href="#linear-gradient"/><linearGradient id="linear-gradient-6" x1="22.66" y1="22.6" x2="27.27" y2="30.6" gradientTransform="translate(32.02 -6.74) scale(0.33 1)" xlink:href="#linear-gradient"/><linearGradient id="linear-gradient-7" x1="1.97" y1="23.64" x2="6.58" y2="31.64" gradientTransform="matrix(0, 0.53, -1, 0, 51.66, 25.55)" xlink:href="#linear-gradient"/><linearGradient id="linear-gradient-8" x1="17.78" y1="46.19" x2="22.39" y2="54.18" gradientTransform="matrix(0, -0.6, 1, 0, -8.63, 50.42)" xlink:href="#linear-gradient"/><linearGradient id="linear-gradient-9" x1="-6.34" y1="47.88" x2="-1.72" y2="55.88" gradientTransform="matrix(0, -0.35, 1, 0, -0.11, 51.5)" xlink:href="#linear-gradient"/><linearGradient id="linear-gradient-10" x1="33.35" y1="50.53" x2="37.97" y2="58.53" gradientTransform="translate(65.23 95.26) rotate(180) scale(0.35 1)" xlink:href="#linear-gradient"/><linearGradient id="linear-gradient-11" x1="-36.83" y1="62.35" x2="-32.21" y2="70.34" gradientTransform="matrix(0, -0.35, 1, 0, -16.43, 8.81)" xlink:href="#linear-gradient"/><linearGradient id="linear-gradient-12" x1="-51.55" y1="73.65" x2="-46.94" y2="81.65" gradientTransform="translate(40.76 88.05) rotate(180) scale(0.24 1)" xlink:href="#linear-gradient"/><linearGradient id="linear-gradient-13" x1="-48.96" y1="20.94" x2="-44.35" y2="28.94" gradientTransform="translate(25.99 6.28) scale(0.3 1)" xlink:href="#linear-gradient"/><linearGradient id="linear-gradient-14" x1="-53.64" y1="15.02" x2="-49.02" y2="23.01" gradientTransform="matrix(0, 0.28, -1, 0, 30.06, 39.72)" xlink:href="#linear-gradient"/><linearGradient id="linear-gradient-15" x1="-62.72" y1="10.73" x2="-58.1" y2="18.73" gradientTransform="matrix(0, 0.28, -1, 0, 28.77, 38.3)" xlink:href="#linear-gradient"/><radialGradient id="radial-gradient" cx="34.17" cy="26.67" r="8" gradientUnits="userSpaceOnUse"><stop offset="0" stop-color="#8cd7f5"/><stop offset="1" stop-color="#376e8c"/></radialGradient><radialGradient id="radial-gradient-2" cx="16.75" cy="25.83" r="4.5" xlink:href="#radial-gradient"/><radialGradient id="radial-gradient-3" cx="23.5" cy="10.67" r="5.5" xlink:href="#radial-gradient"/><radialGradient id="radial-gradient-4" cx="17.75" cy="47.67" r="6.5" xlink:href="#radial-gradient"/><radialGradient id="radial-gradient-5" cx="33.38" cy="45" r="4" gradientUnits="userSpaceOnUse"><stop offset="0" stop-color="#8cd7f5"/><stop offset="0.63" stop-color="#5492b0"/><stop offset="1" stop-color="#376e8c"/></radialGradient><radialGradient id="radial-gradient-6" cx="46.75" r="6.5" xlink:href="#radial-gradient-5"/><radialGradient id="radial-gradient-7" cx="54.42" cy="54.88" r="2" xlink:href="#radial-gradient-5"/><radialGradient id="radial-gradient-8" cx="55.42" cy="37.88" r="2" xlink:href="#radial-gradient-5"/><radialGradient id="radial-gradient-9" cx="51.42" cy="22.88" r="2" xlink:href="#radial-gradient-5"/><radialGradient id="radial-gradient-10" cx="55.42" cy="7.88" r="2" xlink:href="#radial-gradient-5"/><radialGradient id="radial-gradient-11" cx="8.42" cy="23.88" r="2" xlink:href="#radial-gradient-5"/><radialGradient id="radial-gradient-12" cx="12.42" cy="17.88" r="2" xlink:href="#radial-gradient-5"/><radialGradient id="radial-gradient-13" cx="9.42" cy="32.88" r="2" xlink:href="#radial-gradient-5"/><radialGradient id="radial-gradient-14" cx="45.5" cy="12.31" r="6" xlink:href="#radial-gradient"/><linearGradient id="linear-gradient-16" x1="29.5" y1="24.37" x2="50.39" y2="60.56" gradientUnits="userSpaceOnUse"><stop offset="0" stop-color="#fff"/><stop offset="1" stop-color="#d2d2d2"/></linearGradient><linearGradient id="linear-gradient-17" x1="48.75" y1="46.72" x2="55.16" y2="57.81" xlink:href="#radial-gradient"/></defs><g id="Molecular"><rect class="cls-1" x="18.5" y="38.5" width="15" height="2" transform="translate(-21.21 36.75) rotate(-53.31)"/><rect class="cls-2" x="23.02" y="46.43" width="7" height="2" transform="translate(-8.36 5.76) rotate(-10.72)"/><rect class="cls-3" x="30.52" y="37.96" width="5.95" height="2" transform="translate(-6.88 70.73) rotate(-87.5)"/><rect class="cls-4" x="28" y="15.3" width="2" height="6.4" transform="translate(-5.31 20.9) rotate(-36.53)"/><rect class="cls-5" x="16.95" y="18.92" width="6.69" height="2" transform="translate(-5.93 30.9) rotate(-67.17)"/><rect class="cls-6" x="37.83" y="18.86" width="4.99" height="2" transform="translate(-0.43 38.81) rotate(-51.17)"/><rect class="cls-7" x="23.02" y="23.84" width="2" height="7.96" transform="translate(-6.19 48.76) rotate(-83.93)"/><rect class="cls-8" x="40.56" y="34" width="2" height="8.93" transform="translate(-13.67 25.93) rotate(-30)"/><rect class="cls-9" x="50.77" y="50.3" width="2" height="5.18" transform="translate(-21.93 46.09) rotate(-40.34)"/><rect class="cls-10" x="50.33" y="39.73" width="5.18" height="2" transform="translate(-13.78 43.94) rotate(-40.34)"/><rect class="cls-11" x="48.92" y="18.14" width="2" height="5.18" transform="translate(-3.68 27.74) rotate(-30)"/><rect class="cls-12" x="50.94" y="9.4" width="3.66" height="2" transform="translate(1.87 27.78) rotate(-30)"/><rect class="cls-13" x="9.91" y="30.22" width="4.45" height="2" transform="translate(-14.64 11.09) rotate(-31.83)"/><rect class="cls-14" x="10.04" y="23.05" width="2" height="4.25" transform="translate(-16.45 25.58) rotate(-67.17)"/><rect class="cls-15" x="13.04" y="19.05" width="2" height="4.25" transform="translate(-6.95 6.86) rotate(-22.17)"/><circle class="cls-16" cx="34.5" cy="28.5" r="8"/><circle class="cls-17" cx="17" cy="27" r="4.5"/><circle class="cls-18" cx="24" cy="12" r="5.5"/><circle class="cls-19" cx="18" cy="49" r="6.5"/><circle class="cls-20" cx="33.5" cy="45.5" r="4"/><circle class="cls-21" cx="47" cy="47" r="6.5"/><circle class="cls-22" cx="54.5" cy="55.5" r="2"/><circle class="cls-23" cx="55.5" cy="38.5" r="2"/><circle class="cls-24" cx="51.5" cy="23.5" r="2"/><circle class="cls-25" cx="55.5" cy="8.5" r="2"/><circle class="cls-26" cx="8.5" cy="24.5" r="2"/><circle class="cls-27" cx="12.5" cy="18.5" r="2"/><circle class="cls-28" cx="9.5" cy="33.5" r="2"/><circle class="cls-29" cx="45.5" cy="13.5" r="6"/></g><g id="Magnifying_glass" data-name="Magnifying glass"><path class="De-emphasized-WHITE-for-Vector-Highlights" d="M56.78,53.14l-8.85-8.72A13.93,13.93,0,1,0,36.5,50.5,13.76,13.76,0,0,0,44.35,48l8.8,8.75a2.19,2.19,0,0,0,1.78.73,2.45,2.45,0,0,0,1.85-.73,2.65,2.65,0,0,0,0-3.63Z"/><circle class="De-emphasized-WHITE-for-Vector-Highlights" cx="36.5" cy="36.5" r="12"/><path class="White-RIGHT-&amp;-FRONT" d="M56.78,53.14l-8.85-8.72A13.93,13.93,0,1,0,36.5,50.5,13.76,13.76,0,0,0,44.35,48l8.8,8.75a2.19,2.19,0,0,0,1.78.73,2.45,2.45,0,0,0,1.85-.73,2.65,2.65,0,0,0,0-3.63ZM36.5,48.5a12,12,0,1,1,12-12A12.13,12.13,0,0,1,36.5,48.5Z"/><path class="White-OUTLINE" d="M56.78,53.14l-8.85-8.72A13.93,13.93,0,1,0,36.5,50.5,13.76,13.76,0,0,0,44.35,48l8.8,8.75a2.19,2.19,0,0,0,1.78.73,2.45,2.45,0,0,0,1.85-.73,2.65,2.65,0,0,0,0-3.63Z"/><path class="Blue-RIGHT,-FRONT-&amp;-SINGLE" d="M56.78,53.14l-7.07-7-3.63,3.57,7.07,7a2.19,2.19,0,0,0,1.78.73,2.45,2.45,0,0,0,1.85-.73,2.65,2.65,0,0,0,0-3.63Z"/></g></svg>