<svg id="_1X_copy_3" data-name="1X copy 3" xmlns="http://www.w3.org/2000/svg" xmlns:xlink="http://www.w3.org/1999/xlink" viewBox="0 0 64 64"><defs><style>.cls-1,.cls-11,.cls-12,.cls-17,.cls-23,.cls-5{fill:none;}.cls-2{stroke:#787878;stroke-width:0.5px;fill:url(#linear-gradient);}.cls-11,.cls-15,.cls-16,.cls-17,.cls-18,.cls-19,.cls-2,.cls-20,.cls-21,.cls-22,.cls-23,.cls-5{stroke-miterlimit:10;}.cls-22,.cls-25,.cls-3{fill:#fff;}.cls-4{fill:url(#linear-gradient-2);}.cls-5{stroke:#797979;stroke-width:0.15px;}.cls-6{clip-path:url(#clip-path);}.cls-7{fill:#797979;}.cls-8{fill:#323232;}.cls-9{clip-path:url(#clip-path-2);}.cls-10{fill:url(#linear-gradient-4);}.cls-11,.cls-12{stroke:#000;}.cls-11{stroke-width:0.27px;}.cls-12{stroke-width:0.27px;}.cls-13{clip-path:url(#clip-path-3);}.cls-14{fill:#003755;}.cls-15,.cls-16,.cls-17,.cls-18,.cls-19,.cls-20,.cls-21,.cls-22,.cls-23{stroke:#003755;}.cls-15,.cls-16,.cls-17,.cls-18,.cls-19,.cls-20,.cls-21,.cls-22{stroke-width:0.55px;}.cls-15{fill:url(#linear-gradient-5);}.cls-16{fill:url(#Medium_BLUE_gradient_FRONT);}.cls-18{fill:url(#linear-gradient-6);}.cls-19{fill:url(#linear-gradient-7);}.cls-20{fill:url(#linear-gradient-8);}.cls-21{fill:url(#Dark_BLUE_gradient_LEFT);}.cls-23{stroke-width:0.25px;}.cls-24{clip-path:url(#clip-path-4);}.cls-25{filter:url(#DS_GaussianBlur_2);}</style><linearGradient id="linear-gradient" x1="12.86" y1="2.83" x2="36.14" y2="43.17" gradientUnits="userSpaceOnUse"><stop offset="0" stop-color="#fff"/><stop offset="1" stop-color="#f0f0f0"/></linearGradient><linearGradient id="linear-gradient-2" x1="40.07" y1="18.09" x2="71.6" y2="18.09" gradientTransform="matrix(-1, 0, 0, 1, 80.33, 0)" gradientUnits="userSpaceOnUse"><stop offset="0" stop-color="#fff"/><stop offset="0.3" stop-color="#e3e3e3"/><stop offset="0.73" stop-color="#bebebe"/></linearGradient><clipPath id="clip-path"><rect class="cls-1" x="9.64" y="26.69" width="29.73" height="6.17"/></clipPath><clipPath id="clip-path-2"><path class="cls-1" d="M36.66,14.94c-2.08-1-5.62.29-6.55.11-1.21-.23-1.72-1.76,1.22-2.34.66-.13-1.07-1.06-3.34-.57a6.84,6.84,0,0,0-2,1c-.92.68-1.22,2.22-1.92,2.65V10.45H36.66Z"/></clipPath><linearGradient id="linear-gradient-4" x1="47.49" y1="8.95" x2="53.37" y2="19.13" gradientTransform="matrix(-1, 0, 0, 1, 80.33, 0)" gradientUnits="userSpaceOnUse"><stop offset="0" stop-color="#aaa"/><stop offset="1" stop-color="#5a5a5a"/></linearGradient><clipPath id="clip-path-3"><rect class="cls-1" x="7" y="7" width="35.02" height="31.96"/></clipPath><linearGradient id="linear-gradient-5" x1="52.44" y1="32.74" x2="49.53" y2="49.26" gradientUnits="userSpaceOnUse"><stop offset="0" stop-color="#82bedc"/><stop offset="0.04" stop-color="#7ebad8"/><stop offset="0.09" stop-color="#74aecc"/><stop offset="0.13" stop-color="#629ab8"/><stop offset="0.17" stop-color="#487e9c"/><stop offset="0.22" stop-color="#285a78"/><stop offset="0.22" stop-color="#285a78"/></linearGradient><linearGradient id="Medium_BLUE_gradient_FRONT" x1="53.48" y1="42.13" x2="59.1" y2="42.13" gradientUnits="userSpaceOnUse"><stop offset="0" stop-color="#8cd7f5"/><stop offset="1" stop-color="#376e8c"/></linearGradient><linearGradient id="linear-gradient-6" x1="26.38" y1="49.57" x2="53.9" y2="49.57" gradientUnits="userSpaceOnUse"><stop offset="0.24" stop-color="#f5f7f9"/><stop offset="0.29" stop-color="#e1ebf0"/><stop offset="0.39" stop-color="#accbda"/><stop offset="0.53" stop-color="#5a9ab8"/><stop offset="0.84" stop-color="#2d6d8b"/></linearGradient><linearGradient id="linear-gradient-7" x1="22.38" y1="39.27" x2="46.18" y2="30.6" gradientUnits="userSpaceOnUse"><stop offset="0.24" stop-color="#f5f7f9"/><stop offset="0.35" stop-color="#c7dbe6"/><stop offset="0.51" stop-color="#8cb8cd"/><stop offset="0.63" stop-color="#68a2be"/><stop offset="0.69" stop-color="#5a9ab8"/><stop offset="1" stop-color="#2d6d8b"/></linearGradient><linearGradient id="linear-gradient-8" x1="25.51" y1="48.91" x2="38.77" y2="38.92" gradientUnits="userSpaceOnUse"><stop offset="0.32" stop-color="#f5f7f9"/><stop offset="0.38" stop-color="#f0f4f7"/><stop offset="0.45" stop-color="#e1ebf1"/><stop offset="0.52" stop-color="#c8dce6"/><stop offset="0.6" stop-color="#a5c7d8"/><stop offset="0.69" stop-color="#79adc5"/><stop offset="0.74" stop-color="#5a9ab8"/><stop offset="1" stop-color="#2d6d8b"/></linearGradient><linearGradient id="Dark_BLUE_gradient_LEFT" x1="35.86" y1="41.92" x2="53.89" y2="41.92" gradientUnits="userSpaceOnUse"><stop offset="0" stop-color="#82bedc"/><stop offset="1" stop-color="#285a78"/></linearGradient><clipPath id="clip-path-4"><path id="contour" class="cls-1" d="M20.51,34.15a2.7,2.7,0,0,0-1.32.27c-.76.31-1.05,1.47-1.05,1.47a18.76,18.76,0,0,0,.41,4.17c.36,2.35,1.73,7.81,2,8.68a55.12,55.12,0,0,0,3.32,7.16l31.69-6.56S59.05,37.41,59.1,35.4c.06-2.85-12.31-3-12.31-3s-.11-1.84-2.81-3.3a18.66,18.66,0,0,0-9.91-1.95C26,27.61,23.28,29.81,21.3,32,20.18,33.25,20.51,34.15,20.51,34.15Z"/></clipPath><filter id="DS_GaussianBlur_2" x="-50" y="-50" width="200" height="200" name="DS_GaussianBlur_2"><feGaussianBlur stdDeviation="1"/></filter></defs><title>2903__A33AAe__R21XArtboard 1</title><g id="Layer_105" data-name="Layer 105"><g id="fd_Photo_copy_3" data-name="fd Photo **** copy 3"><rect id="FOND_BLANC_" data-name="FOND BLANC **" class="cls-2" x="6.5" y="6.5" width="36" height="33"/><g id="decor_photo_copy_20" data-name="decor photo *** copy 20"><g id="sol_" data-name="sol ***"><polygon class="cls-3" points="8 39 41.17 39.27 41.17 7.73 7.45 7.41 8 39"/></g><polygon id="MUR__1" data-name="MUR _1" class="cls-4" points="8.73 27.55 40.27 24.85 40.27 8.63 8.73 8.63 8.73 27.55"/><polygon id="MUR__1-2" data-name="MUR _1" class="cls-4" points="8.73 27.55 40.27 24.85 40.27 8.63 8.73 8.63 8.73 27.55"/><path id="CADRE_IN_PHOTO" data-name="CADRE IN PHOTO" class="cls-5" d="M8.56,8.44,40.5,8.5v25L8.63,33.44Z"/><path id="CADRE_IN_PHOTO-2" data-name="CADRE IN PHOTO" class="cls-5" d="M8.5,8.63l31.94.06V33.44H8.56Z"/></g></g><g id="TAPI_ok" data-name="TAPI  ***ok"><g class="cls-6"><g id="TAPI"><polygon class="cls-7" points="15.24 32.38 31.95 28.68 40.06 30.66 21.81 36.08 15.24 32.38"/><path class="cls-8" d="M32,28.94l7.15,1.74L21.84,35.81l-5.91-3.32,16-3.55m0-.52L14.55,32.28l7.23,4.07L41,30.63,32,28.42Z"/></g></g></g><g id="tableau_ok_copy_4" data-name="tableau  ok *** copy 4"><g id="TABLEAU"><rect class="cls-3" x="24.18" y="10.56" width="11.46" height="6.98"/><path class="cls-8" d="M35.51,10.69v6.72H24.3V10.69H35.51m.25-.25H24.05v7.22H35.76V10.44Z"/></g><g class="cls-9"><g id="TABLEAU-2" data-name="TABLEAU"><rect class="cls-10" x="24.18" y="10.56" width="11.46" height="6.96"/><path class="cls-8" d="M35.51,10.69v6.7H24.3v-6.7H35.51m.25-.25H24.05v7.2H35.76v-7.2Z"/></g></g></g><g id="CANAPE_photo_copy_6" data-name="CANAPE photo*** copy 6"><g id="fond_Blanc" data-name="fond Blanc"><path class="cls-3" d="M28.42,20.83l0,0c-.72-1-5.08-.86-5.08-.86A2.33,2.33,0,0,0,22,18.35a8,8,0,0,0-4.32-.84c-3.58.2-4.79,1.21-5.68,2.22-.51.57-.34,1-.34,1h0a.92.92,0,0,0-.63.13c-.34.14-.47.67-.47.67a9,9,0,0,0,.2,1.86c.16,1.07.79,3.58.92,4a22,22,0,0,0,1.48,3.15l1.33-.29a1.35,1.35,0,0,0,.38,0c2.73-.49,11.19-2.68,11.19-2.68l.94-.28.48-1.83s1-3.71,1-4.31A.45.45,0,0,0,28.42,20.83Z"/></g><path id="ACCOUDOIR_2" data-name="ACCOUDOIR 2" class="cls-11" d="M22.53,20.5a8,8,0,0,0,.37,1.87l3,.81c.42.13.39.53.37,1l-.17,3.33.89-.28s1.46-5.26,1.48-6.14c0-1.29-5.26-1.16-5.26-1.16A.82.82,0,0,0,22.53,20.5Z"/><path id="ACCOUDOIR_2-2" data-name="ACCOUDOIR 2" class="cls-11" d="M26.51,21.71l-.39,5.79.89-.28s1.46-5.26,1.48-6.14S26.57,20.62,26.51,21.71Z"/><path id="bas_" data-name="bas ***" class="cls-11" d="M14.42,27.47l.12,2.36c0,.27.12.39.39.35,2.73-.49,11.19-2.68,11.19-2.68s.09-1.47.13-2.31c0-.27.1-.41-.16-.36L14.61,27C14.38,27,14.4,27.23,14.42,27.47Z"/><path id="_DOS_" data-name="&lt;DOS  ****" class="cls-12" d="M11.67,20.7s-.15-.41.36-1c.9-1,2.13-2,5.71-2.21a7.84,7.84,0,0,1,4.32.86,2.14,2.14,0,0,1,1.24,1.54.8.8,0,0,0-.76,1c.09.43.24,1,.37,1.49a10.35,10.35,0,0,0-4,.47c-.43.15-.4.25-.4.25s-.12-.14-.77-.12a18.26,18.26,0,0,0-3.63.52,3.31,3.31,0,0,0-.51-1.5,4.47,4.47,0,0,0-1.69-1.24Z"/><path id="_DOS_2" data-name="&lt;DOS  ****" class="cls-12" d="M11.67,20.7s-.15-.41.36-1c.9-1,2.13-2,5.71-2.21a7.84,7.84,0,0,1,4.32.86,2.14,2.14,0,0,1,1.24,1.54.8.8,0,0,0-.76,1c.09.43.24,1,.37,1.49a10.35,10.35,0,0,0-4,.47c-.43.15-.4.25-.4.25s-.12-.14-.77-.12a18.26,18.26,0,0,0-3.63.52,3.31,3.31,0,0,0-.51-1.5,4.47,4.47,0,0,0-1.69-1.24Z"/><path id="COUSSIN_1_G" data-name="COUSSIN 1   G" class="cls-11" d="M14.3,25.38,14.42,27,21,25.78v-1.2a.48.48,0,0,0-.26-.44l-2.25-1.05A1.31,1.31,0,0,0,18,23a15.22,15.22,0,0,0-2,.18c-1.05.16-1.79.33-1.79.33Z"/><path id="COUSSIN_23" data-name="COUSSIN 23" class="cls-11" d="M18.53,23.08l2.25,1.06a.47.47,0,0,1,.26.44v1.2l5.23-1,0-1a.58.58,0,0,0-.39-.63l-3-.8a4.93,4.93,0,0,0-2.16.05C18.47,22.78,18.53,23.08,18.53,23.08Z"/><g id="ACOUDOIR_1" data-name="ACOUDOIR 1"><path d="M11.59,21h0a2,2,0,0,1,1,.48,2.33,2.33,0,0,1,1.14,1.35A59.88,59.88,0,0,1,14.27,30l-.94.2a19.81,19.81,0,0,1-1.39-2.92c-.12-.38-.74-2.86-.9-3.9a9.34,9.34,0,0,1-.19-1.79.83.83,0,0,1,.33-.5,1,1,0,0,1,.41-.11m0-.26a1.5,1.5,0,0,0-.52.12c-.34.15-.48.68-.48.68a8.93,8.93,0,0,0,.19,1.9c.16,1.07.78,3.54.91,3.94a22.05,22.05,0,0,0,1.5,3.14l1.36-.28s-.25-6.75-.58-7.51a2.54,2.54,0,0,0-1.23-1.47,2.12,2.12,0,0,0-1.15-.52Z"/></g><path id="ACOUDOIR_1-2" data-name="ACOUDOIR 1" class="cls-11" d="M14,22.69c.33.76.58,7.51.58,7.51l-1.36.28s-1.15-5.94-1.32-7S13.65,21.93,14,22.69Z"/></g></g><g id="canapé_AVANT_ok_copy_4" data-name="canapé    ****(AVANT)ok copy 4"><g id="_Clip_detour_blanc" data-name="&lt;Clip detour blanc"><g class="cls-13"><g id="contour-2" data-name="contour"><path class="cls-3" d="M23.07,56.33a60.32,60.32,0,0,1-3.54-7.61c-.28-.87-1.64-6.31-2-8.68-.58-3.79-.44-4.28-.37-4.52a3.19,3.19,0,0,1,1.61-2.1,4.42,4.42,0,0,1,.7-.24,4,4,0,0,1,1-1.87c2.19-2.43,5.32-4.75,13.34-5.19.42,0,.82,0,1.23,0a20.43,20.43,0,0,1,9.42,2.17,6.41,6.41,0,0,1,3.1,3.33c2.73.05,9.92.37,11.85,2.35a2,2,0,0,1,.63,1.5c0,2.05-3.25,12.91-3.61,14.14l-.17.58L23.43,57Z"/><path class="cls-3" d="M35,27.09A19.52,19.52,0,0,1,44,29.14c2.65,1.43,2.81,3.44,2.81,3.44s12.31,0,12.25,2.83c0,2-3.57,13.89-3.57,13.89L24,55.85a60,60,0,0,1-3.46-7.44c-.28-.86-1.63-6.22-2-8.52a19.17,19.17,0,0,1-.4-4.1s.29-1.14,1-1.45a3,3,0,0,1,1.1-.27l.2,0s-.32-.89.77-2.11c1.95-2.16,4.75-4.43,12.65-4.86l1.18,0m0-2q-.65,0-1.29,0c-8.37.46-11.69,2.93-14,5.52a5.38,5.38,0,0,0-1.09,1.75l-.25.1a4.19,4.19,0,0,0-2.21,2.78c-.11.39-.25,1,.35,4.92.38,2.47,1.76,7.93,2,8.84a61.53,61.53,0,0,0,3.61,7.78l.71,1.3,1.46-.3,31.52-6.55L57.05,51l.34-1.14C58.23,47,61,37.54,61,35.46a3.07,3.07,0,0,0-.91-2.22c-2-2.07-8.22-2.55-11.91-2.64a7.6,7.6,0,0,0-3.29-3.22A21.39,21.39,0,0,0,35,25.09Z"/></g></g></g><g id="contour-3" data-name="contour"><path class="cls-3" d="M23.55,56.08a54.31,54.31,0,0,1-3.35-7.22c-.28-.87-1.66-6.35-2-8.74a17.84,17.84,0,0,1-.4-4.33,2.64,2.64,0,0,1,1.27-1.72,3.54,3.54,0,0,1,1.05-.29,3.08,3.08,0,0,1,.92-2c1.95-2.17,4.72-4.52,13-5l1.28,0a18.58,18.58,0,0,1,8.83,2,5.57,5.57,0,0,1,3,3.46c2.27,0,10,.2,11.86,2.1a1.43,1.43,0,0,1,.45,1.06c0,2-3.4,13.54-3.54,14l-.06.22L23.68,56.33Z"/><path class="cls-14" d="M35.33,27.13a18.2,18.2,0,0,1,8.65,2c2.7,1.46,2.86,3.5,2.86,3.5h.08c1,0,12.24.06,12.18,2.78-.05,2-3.53,13.94-3.53,13.94L23.88,55.9a55.12,55.12,0,0,1-3.32-7.16c-.28-.87-1.65-6.33-2-8.68a18.76,18.76,0,0,1-.41-4.17s.29-1.16,1.05-1.47a2.88,2.88,0,0,1,1.12-.28h.2s-.33-.9.79-2.14c2-2.2,4.72-4.4,12.77-4.84.43,0,.85,0,1.26,0m0-.75c-.43,0-.87,0-1.3,0-8.45.46-11.29,2.87-13.29,5.09a3.81,3.81,0,0,0-1,1.94,4.25,4.25,0,0,0-.83.27,3.06,3.06,0,0,0-1.5,2c-.05.17-.19.67.4,4.47.37,2.4,1.75,7.92,2,8.79a54.32,54.32,0,0,0,3.37,7.3l.27.48.54-.11,31.69-6.57.44-.09.13-.43c.36-1.23,3.51-12.08,3.56-14.13a1.78,1.78,0,0,0-.56-1.33c-1.89-1.93-9-2.19-11.85-2.22a6.15,6.15,0,0,0-3.1-3.41,19,19,0,0,0-9-2.08Z"/></g><g id="CANAPE_3D_ok_degradé_color_copy_7" data-name="CANAPE 3D    ok degradé color copy 7"><g id="Layer_112_copy_33" data-name="Layer 112 copy 33"><path id="ACCOUDOIR_2-3" data-name="ACCOUDOIR 2" class="cls-15" d="M45.06,33.93c-.24.62.83,4.13.83,4.13L53,40.14c1,.3.91,1.15.86,2.19L53.48,50l2.09-.61S59.05,37.41,59.1,35.4c.07-2.95-12.42-2.77-12.42-2.77A1.9,1.9,0,0,0,45.06,33.93Z"/><path id="ACCOUDOIR_2-4" data-name="ACCOUDOIR 2" class="cls-16" d="M54.39,36.78,53.48,50l2.09-.55s3.48-12,3.53-14S54.53,34.3,54.39,36.78Z"/><path id="ACCOUDOIR_2-5" data-name="ACCOUDOIR 2" class="cls-17" d="M54.39,36.78,53.48,50l2.09-.55s3.48-12,3.53-14S54.53,34.3,54.39,36.78Z"/></g><path id="bas_2" data-name="bas ***" class="cls-18" d="M26.38,49.36l.53,5c.05.59.25.88.84.79C33.9,54.32,53.48,50,53.48,50s.38-3.5.42-5.24c0-.63-.13-.86-.75-.76L27.22,48.28A1,1,0,0,0,26.38,49.36Z"/><path id="_DOS_3" data-name="&lt;DOS  ****" class="cls-19" d="M20.51,34.15s-.33-.9.79-2.14c2-2.2,4.72-4.4,12.77-4.84A18.66,18.66,0,0,1,44,29.12c2.7,1.46,2.86,3.5,2.86,3.5s-2.17.16-1.75,2.17c.39,1.82,1.3,5,1.3,5L26.17,42.46s-.14-3.72-1.36-5.38a10.31,10.31,0,0,0-3.73-2.81Z"/><g id="COUSSIN_copy_35" data-name="COUSSIN copy 35"><path id="COUSSIN_1_G-2" data-name="COUSSIN 1   G" class="cls-20" d="M25.17,48.46l16.4-2.62,0-2.77a1.13,1.13,0,0,0-.6-1l-5.35-2.53a2.18,2.18,0,0,0-1.15-.2,36.37,36.37,0,0,0-4.59.32c-2.35.34-5.47,1-5.47,1Z"/><path id="COUSSIN_23-2" data-name="COUSSIN 23" class="cls-21" d="M35.86,39.62,41,42.08a1.1,1.1,0,0,1,.6,1l0,2.77,12.1-2,.22-2.42a1.27,1.27,0,0,0-.87-1.3L46,38.2s-1.1-.48-5,0C35.72,39,35.86,39.62,35.86,39.62Z"/></g><g id="accoudoir_1blanc_copy_7" data-name="accoudoir 1blanc copy 7"><path id="ACOUDOIR_1-3" data-name="ACOUDOIR 1" class="cls-22" d="M22.87,35.33a5.82,5.82,0,0,1,2.74,3.27c.72,1.68,1.29,16.62,1.29,16.62l-3,.54a50.09,50.09,0,0,1-3.32-7c-.28-.87-1.65-6.33-2-8.68a18.76,18.76,0,0,1-.41-4.17s.29-1.16,1.05-1.47C20.31,34,21,34,22.87,35.33Z"/><path id="ACOUDOIR_1-4" data-name="ACOUDOIR 1" class="cls-22" d="M25.61,38.6c.72,1.68,1.29,16.62,1.29,16.62l-3,.54S21.32,42.6,21,40.26,24.88,36.92,25.61,38.6Z"/><path id="ACOUDOIR_1-5" data-name="ACOUDOIR 1" class="cls-22" d="M25.61,38.6c.72,1.68,1.29,16.62,1.29,16.62l-3,.54S21.32,42.6,21,40.26,24.88,36.92,25.61,38.6Z"/></g></g><g id="L_verticale_copy_5" data-name="L verticale *** copy 5"><path class="cls-23" d="M22,31.58s1.58.34,1.58,3.42c0,1.5.07.92.07.92a4.89,4.89,0,0,1,1.77,1.91,38,38,0,0,1,.89,4.84l2.74,1.78a1,1,0,0,1,.45.84v2c0,.46-.11.63-.55.74l-1,.38,1.23.52a1,1,0,0,1,.58.91v5.07"/><path class="cls-23" d="M26,28.58A5.37,5.37,0,0,1,27.58,32c.17,2.17.32,7.83.32,7.83l5.17,3.62a1,1,0,0,1,.43.82v2.81l-1.37.38,1.13.81a1,1,0,0,1,.55.88v4.77"/><path class="cls-23" d="M30,27.58A6.76,6.76,0,0,1,31.58,31c.25,2,.32,8.42.32,8.42l5.11,3a1,1,0,0,1,.49.86v3L36,46.67l1.23.6a1,1,0,0,1,.55.88v4.77"/><path class="cls-23" d="M23.67,36.08s-5.25-2.33-3.75,5.09c.65,3.25,2.16,11.41,2.16,11.41"/></g><g id="L_horizontale_copy_6" data-name="L horizontale  *** copy 6"><path class="cls-23" d="M26.5,53.17s5.92-1.23,8.58-1.67l9-1.5"/><path class="cls-23" d="M26.5,50.17s6-.89,8.67-1.34c2.5-.41,7.75-1.16,7.75-1.16"/><path class="cls-23" d="M26.58,44.83s5.84-.91,7.59-1.08,7.5-1,7.5-1"/><path class="cls-23" d="M26.33,42.42s3.75-.59,4.34-.67c4.66-.67,8.16-.83,8.16-.83"/><path class="cls-23" d="M25.76,38.82a7,7,0,0,1,1.66-.65A72.55,72.55,0,0,1,36,36.92"/><path class="cls-23" d="M24.6,36.52a9.08,9.08,0,0,1,2.82-1.35A72.55,72.55,0,0,1,36,33.92"/><path class="cls-23" d="M22.08,34.75a12.46,12.46,0,0,1,5.34-3.58A72.55,72.55,0,0,1,36,29.92"/><g id="Layer_383_copy_7" data-name="Layer 383 copy 7"><line class="cls-23" x1="18.17" y1="36.75" x2="20.92" y2="39.42"/><line class="cls-23" x1="18.25" y1="40.67" x2="22" y2="45.92"/><line class="cls-23" x1="19.42" y1="46.25" x2="23.08" y2="51.58"/></g></g><g class="cls-24"><g id="contour-4" data-name="contour"><path class="cls-14" d="M35.33,27.13a18.2,18.2,0,0,1,8.65,2c2.7,1.46,2.83,3.36,2.83,3.36s12.35.07,12.29,2.92c-.05,2-3.53,13.94-3.53,13.94L23.88,55.9a55.12,55.12,0,0,1-3.32-7.16c-.28-.87-1.65-6.33-2-8.68a18.76,18.76,0,0,1-.41-4.17s.29-1.16,1.05-1.47a2.88,2.88,0,0,1,1.12-.28h.2s-.33-.9.79-2.14c2-2.2,4.72-4.4,12.77-4.84.43,0,.85,0,1.26,0m0-.5c-.42,0-.86,0-1.29,0-8.35.45-11.15,2.82-13.11,5a3.32,3.32,0,0,0-1,2A4.2,4.2,0,0,0,19,34a2.87,2.87,0,0,0-1.35,1.82c0,.14-.18.62.4,4.37.37,2.39,1.75,7.89,2,8.76a55,55,0,0,0,3.36,7.25l.18.32.36-.08,31.69-6.56.3-.06.08-.29c.14-.49,3.5-12,3.55-14.07a1.61,1.61,0,0,0-.49-1.16c-1.93-2-9.82-2.23-11.89-2.27a5.71,5.71,0,0,0-3-3.3,18.64,18.64,0,0,0-8.89-2.05Z"/></g></g></g><g id="Eclatant_ok_copy_3" data-name="Eclatant  *** ok copy 3"><path class="cls-25" d="M56.63,29.31l2.81-4.88,1.3.75Zm-2-8.38-1.41-.52L51.27,25.7Zm-8.37-1-1.49.19.73,5.58Z"/><path class="cls-25" d="M56.63,29.31l2.81-4.88,1.3.75Zm-2-8.38-1.41-.52L51.27,25.7Zm-8.37-1-1.49.19.73,5.58Z"/><path class="cls-14" d="M56.31,29l2.81-4.87,1.3.75Zm-2-8.38-1.41-.51L51,25.39Zm-8.37-1-1.48.2.73,5.58Z"/><path class="cls-14" d="M56.31,29l2.81-4.87,1.3.75Zm-2-8.38-1.41-.51L51,25.39Zm-8.37-1-1.48.2.73,5.58Z"/></g><path id="FL_ok_" data-name="FL ok***" class="cls-14" d="M14.7,47.38l1.15-2.24c-4.82.4-7.93-2.17-7.2-7.61h2.88c-.88,3.48.81,6.7,4.59,6.7L14.62,42l6,2Z"/></svg>