<svg id="CATIA___K05_KT1b_-_3D_Templates_Capture" data-name="CATIA _ (K05) KT1b - 3D Templates Capture" xmlns="http://www.w3.org/2000/svg" xmlns:xlink="http://www.w3.org/1999/xlink" viewBox="0 0 64 64"><defs><style>.cls-1{fill:url(#linear-gradient);}.cls-2{fill:url(#linear-gradient-2);}.cls-3,.cls-4{stroke:#00415f;}.cls-10,.cls-11,.cls-3,.cls-4{stroke-linecap:round;stroke-linejoin:round;}.cls-3{fill:url(#linear-gradient-3);}.cls-10,.cls-4{fill:none;}.cls-5{fill:#343434;}.cls-6{fill:#fff;}.cls-7{fill:url(#linear-gradient-4);}.cls-8{fill:url(#linear-gradient-5);}.cls-9{fill:url(#linear-gradient-6);}.cls-10{stroke:#6d6d6d;}.cls-11{stroke:#2d2d2d;fill:url(#linear-gradient-7);}.cls-12{fill:#383838;}</style><linearGradient id="linear-gradient" x1="40.65" y1="16.51" x2="-17.36" y2="57.89" gradientUnits="userSpaceOnUse"><stop offset="0" stop-color="#83d2ea"/><stop offset="0.55" stop-color="#5199b0"/><stop offset="1" stop-color="#25667d"/></linearGradient><linearGradient id="linear-gradient-2" x1="54.3" y1="8.43" x2="28.34" y2="53.13" xlink:href="#linear-gradient"/><linearGradient id="linear-gradient-3" x1="64.33" y1="3.53" x2="23.06" y2="36.17" xlink:href="#linear-gradient"/><linearGradient id="linear-gradient-4" x1="15.83" y1="27.34" x2="46.95" y2="55.81" gradientUnits="userSpaceOnUse"><stop offset="0" stop-color="#f0f0f0"/><stop offset="1" stop-color="#b3b3b3"/></linearGradient><linearGradient id="linear-gradient-5" x1="20.6" y1="33.85" x2="73.5" y2="91.84" xlink:href="#linear-gradient-4"/><linearGradient id="linear-gradient-6" x1="0.2" y1="12.56" x2="17.06" y2="43.4" xlink:href="#linear-gradient-4"/><linearGradient id="linear-gradient-7" x1="41.19" y1="23.81" x2="62.59" y2="57.04" gradientUnits="userSpaceOnUse"><stop offset="0" stop-color="#fff"/><stop offset="1" stop-color="#bfbfbf"/></linearGradient></defs><title>CATIA _ (K05) KT1b - 3D Templates Capture</title><polygon class="cls-1" points="26.87 19.71 34.87 15.71 46.87 18.71 39.64 23.36 26.87 19.71"/><polygon class="cls-2" points="39.37 23.43 46.87 18.71 46.87 31.92 39.37 37 39.37 23.43"/><polygon class="cls-3" points="33.16 21.83 39.37 23.36 39.37 30.18 39.37 36.71 26.87 32.71 26.87 19.71 33.16 21.83"/><line class="cls-4" x1="39.64" y1="23.36" x2="46.87" y2="18.71"/><path class="cls-5" d="M34.87,15.71l12,3v13l-7,5-13-4v-13l8-4m-.12-1.06-.33.16-8,4-.55.28V33.45l.71.21,13,4,.47.15.4-.29,7-5,.42-.3V17.93l-.76-.19-12-3-.36-.09Z"/><rect class="cls-6" x="32.87" y="24.71" width="1" height="7"/><polygon class="cls-6" points="36.87 29.71 36.87 28.71 29.87 26.71 29.87 27.71 36.87 29.71"/><polygon class="cls-7" points="7.87 29.71 15.87 25.71 27.87 28.71 20.64 33.36 7.87 29.71"/><polygon class="cls-8" points="20.37 33.36 27.87 28.71 27.87 41.71 20.37 46.71 20.37 33.36"/><polygon class="cls-9" points="14.16 31.83 20.37 33.36 20.37 40.19 20.37 46.71 7.87 42.71 7.87 29.71 14.16 31.83"/><polyline class="cls-10" points="27.87 28.71 20.64 33.36 7.87 29.71"/><line class="cls-10" x1="20.64" y1="33.36" x2="27.87" y2="28.71"/><polyline class="cls-10" points="20.37 33.36 20.37 40.27 20.37 46.71"/><path class="cls-5" d="M15.87,25.71l12,3v13l-7,5-13-4v-13l8-4m-.12-1.06-.33.16-8,4-.55.28V43.45l.71.21,13,4,.47.15.4-.29,7-5,.42-.3V27.93l-.76-.19-12-3-.36-.09Z"/><polygon class="cls-11" points="42.5 41.71 56.5 48.8 56.5 31.71 42.5 24.71 42.5 41.71"/><rect class="cls-12" x="49" y="36" width="1" height="1"/><polygon class="cls-12" points="53 40.5 52 40.5 51 41.5 48 41.5 47 40.5 46 40.5 46 37 48 37.5 49 38 50 38 51 37.5 53 37 53 40.5"/><polygon class="cls-12" points="49.5 31 44 34.39 49.5 37 55 34.5 49.5 31"/><rect class="cls-12" x="54" y="36" width="1" height="3"/></svg>