<svg xmlns="http://www.w3.org/2000/svg" xmlns:xlink="http://www.w3.org/1999/xlink" viewBox="0 0 64 64"><defs><linearGradient id="linear-gradient" x1="20.42" y1="25.1" x2="35.53" y2="51.28" gradientUnits="userSpaceOnUse"><stop offset="0" stop-color="#f5f6f6"/><stop offset="0.99" stop-color="#bfbebe"/></linearGradient><linearGradient id="linear-gradient-2" x1="29.74" y1="16.73" x2="36.17" y2="27.86" gradientUnits="userSpaceOnUse"><stop offset="0" stop-color="#fff"/><stop offset="1" stop-color="#f1f0f0"/></linearGradient><linearGradient id="linear-gradient-3" x1="38.53" y1="29.26" x2="47.87" y2="45.44" gradientUnits="userSpaceOnUse"><stop offset="0" stop-color="#fff"/><stop offset="1" stop-color="#d2d3d3"/></linearGradient><linearGradient id="linear-gradient-4" x1="35.95" y1="20.24" x2="39.4" y2="26.22" gradientUnits="userSpaceOnUse"><stop offset="0" stop-color="#ababab"/><stop offset="1" stop-color="#5b5b5b"/></linearGradient><linearGradient id="linear-gradient-5" x1="27.86" y1="25.32" x2="35.68" y2="38.88" xlink:href="#linear-gradient-4"/><linearGradient id="linear-gradient-6" x1="40.25" y1="25.74" x2="45.22" y2="34.35" xlink:href="#linear-gradient-4"/><linearGradient id="linear-gradient-7" x1="16.3" y1="39.12" x2="23.63" y2="51.82" xlink:href="#linear-gradient"/><linearGradient id="linear-gradient-8" x1="23.5" y1="49.06" x2="16.5" y2="36.94" gradientUnits="userSpaceOnUse"><stop offset="0" stop-color="#2a5b79"/><stop offset="1" stop-color="#3388b0"/></linearGradient></defs><title>CAT3ANI_AP_AppIcon_00008_I_SafetyAreaTemplate_Appicon</title><g id="Layer_7" data-name="Layer 7"><polygon points="16.5 22.5 37.5 28.5 37.5 53.5 16.5 44.5 16.5 22.5" stroke="#797979" stroke-linecap="round" stroke-linejoin="round" fill="url(#linear-gradient)"/><polygon points="16.5 22.5 30.5 17.5 48.5 20.5 37.5 28.5 16.5 22.5" stroke="#797979" stroke-linecap="round" stroke-linejoin="round" fill="url(#linear-gradient-2)"/><polygon points="37.5 53.5 37.5 28.5 48.5 20.5 48.5 42.5 37.5 53.5" stroke="#797979" stroke-linecap="round" stroke-linejoin="round" fill="url(#linear-gradient-3)"/><polygon points="26.5 25.36 38.34 18.81 48.5 20.5 37.5 28.5 26.5 25.36" stroke="#333332" stroke-linecap="round" stroke-linejoin="round" fill="url(#linear-gradient-4)"/><polygon points="26.5 36.5 26.5 25.36 37.5 28.5 37.5 40.5 26.5 36.5" stroke="#333332" stroke-linecap="round" stroke-linejoin="round" fill="url(#linear-gradient-5)"/><rect x="16" y="14" width="1" height="9" fill="#141414"/><rect x="30" y="10" width="1" height="8" fill="#141414"/><polygon points="16 17 20 12 20 19 16 17" fill="#141414"/><polygon points="27 10 31 13 27 17 27 10" fill="#141414"/><line x1="19" y1="16" x2="28" y2="13.5" fill="none" stroke="#141414" stroke-miterlimit="10" stroke-width="2"/><polygon points="37.5 40.5 48.5 31.5 48.5 20.5 37.5 28.5 37.5 40.5" stroke="#333332" stroke-linecap="round" stroke-linejoin="round" fill="url(#linear-gradient-6)"/><polygon points="30.5 17.5 16.5 22.5 16.5 44.5 37.5 53.5 48.5 42.5 48.5 20.5 30.5 17.5" fill="none" stroke="#333332" stroke-linecap="round" stroke-linejoin="round"/><polygon points="38.5 29.01 47.5 22.46 47.5 31.03 38.5 38.39 38.5 29.01" fill="#54c4f3" opacity="0.5"/><path d="M46.5,24.43v6.12l-7,5.73V29.52l7-5.09m2-3.93-11,8v12l11-9v-11Z" fill="#26b1eb"/><path d="M45,27a2,2,0,1,0,2,2,2,2,0,0,0-2-2Z" fill="#26b1eb"/><polyline points="45 29 57 34 51 40" fill="none" stroke="#26b1eb" stroke-linejoin="round" stroke-width="2"/><polygon points="42.5 52.5 42.5 44.5 51.5 36.5 51.5 44 42.5 52.5" fill="#88e0ff" stroke="#26b1eb" stroke-linejoin="round" stroke-width="2"/></g><g id="Layer_4" data-name="Layer 4"><path d="M6.5,44.5s6-8,13.5-8,12.5,8,12.5,8-3,9-12.5,9A14.09,14.09,0,0,1,6.5,44.5Z" fill="url(#linear-gradient-7)"/><circle cx="20" cy="43" r="7" fill="url(#linear-gradient-8)"/><path d="M6.5,44.5s4.5-8,13-8c7.5,0,13,8,13,8s-3.5,9-13,9A13.13,13.13,0,0,1,6.5,44.5Z" fill="none" stroke="#053755" stroke-linecap="round" stroke-linejoin="round"/><path d="M19,40.5h.5a2,2,0,0,1,2,2V43" fill="none" stroke="#fff" stroke-linecap="round" stroke-linejoin="round" stroke-width="2"/><path d="M6.5,44.5s5-7.5,13-7.5c7,0,13,7.5,13,7.5" fill="none" stroke="#053755" stroke-linecap="round" stroke-linejoin="round"/></g></svg>