<svg id="v_1_X_copy_2" data-name="v 1 X copy 2" xmlns="http://www.w3.org/2000/svg" xmlns:xlink="http://www.w3.org/1999/xlink" viewBox="0 0 64 64"><defs><style>.cls-1,.cls-11,.cls-12,.cls-2,.cls-4{fill:none;}.cls-12,.cls-2,.cls-3,.cls-4,.cls-7{stroke:#000;}.cls-11,.cls-12,.cls-2{stroke-linecap:round;stroke-linejoin:round;}.cls-3,.cls-4,.cls-7{stroke-miterlimit:10;stroke-width:0.5px;}.cls-5{fill:#2d6d8b;}.cls-6{fill:url(#New_Gradient_Swatch_1);}.cls-7{fill:url(#New_Gradient_Swatch_1-2);}.cls-8{fill:#aadcfa;}.cls-9{clip-path:url(#clip-path);}.cls-10{fill:#82bddb;}.cls-11{stroke:#fff;stroke-width:0.14px;}.cls-12{stroke-width:0.35px;}</style><linearGradient id="New_Gradient_Swatch_1" x1="9.79" y1="30.66" x2="28.45" y2="30.66" gradientUnits="userSpaceOnUse"><stop offset="0" stop-color="#464646"/><stop offset="0.99" stop-color="#141414"/></linearGradient><linearGradient id="New_Gradient_Swatch_1-2" x1="12.56" y1="29.64" x2="28.45" y2="29.64" xlink:href="#New_Gradient_Swatch_1"/><clipPath id="clip-path"><path class="cls-1" d="M58.94,21.19l-4-1.18a2.52,2.52,0,0,0-1.06-.08L38,21.89A2.75,2.75,0,0,0,36.17,23L29.88,31a2.85,2.85,0,0,1-1.13.88l-8.5,3.55-.22.08-2.34.75a2.8,2.8,0,0,0-1.27.85l-2.08,2.45a3.15,3.15,0,0,0-.19,3.8l.27.4A2.75,2.75,0,0,0,16.68,45H58.42a2.91,2.91,0,0,0,2.8-3L61,24.05A3,3,0,0,0,58.94,21.19Z"/></clipPath></defs><title>3425__A33AAe__R21XArtboard 1</title><g id="voiture_copy_2" data-name="voiture copy 2"><path id="CONTOUR" class="cls-2" d="M55.78,20.93a6.16,6.16,0,0,0-2.31-1.61,35.81,35.81,0,0,0-6.36-1.92,24,24,0,0,0-3.22-.34l-9.61.43a30.74,30.74,0,0,0-4.36.61l-3.1.7a4.64,4.64,0,0,0-1.44.68l-6.91,5.3s-.19.49-.4.58a6,6,0,0,0-1.16.1L9.74,27.92c-.32.16-.57.44-.47,1.59L7.93,31.13l0,1.28L7.11,33V35.1l-1.55.29a3.46,3.46,0,0,0,.61,2.84,17.32,17.32,0,0,0,6,4.36,2.76,2.76,0,0,0,1.79.3c.61-.17,5.1-1.61,5.1-1.61.81-.2.67-.79.91-1.18L22.4,37c.35-.37.71-.94,1.15-1l3.7-.55c.44,0,2.2,1.73,2.25,2.86l.15,3.19a1,1,0,0,0,1.13.58L47.2,37.68a2.32,2.32,0,0,0,1.19-.91l1.47-2.89a6.32,6.32,0,0,1,1.55-1.73s2.32-1.06,3.54-.88c.6.08.56.67.57,1.14l0,1.25c0,.47.43.17.86.05L58,33.26c.44-.14.38-.3.41-.58.06-.59.08-.93-.36-1.15,0-.55,0-1.27,0-1.46l.13-3.58c0-.47.58-1.1.1-1.94C58.29,24.55,56.22,21.47,55.78,20.93Z"/><path id="face_arrierre" data-name="face arrierre" class="cls-3" d="M54.49,20.1,46,17.3l-15.08.61-4.18.92-.51.23-.65.35-7.08,5.37-.4.58-1.16.1L9.74,27.92l-.47,1.59L7.93,31.13l0,1.28L7.11,33V35.1l-1.55.29a4.79,4.79,0,0,0,1.94,4.06c2.24,1.82,4.8,3.38,5.94,3.48.91.08,7-2.25,8.56-3.1a3.65,3.65,0,0,1,3.17,0s.57,1.06,2.69,1.14a2.33,2.33,0,0,0,1.82.52c.37,0-.16,1,1.09.64S47.2,37.68,47.2,37.68l2.33-3.23,6.34-1.16v.53l2.46-.76.21-.93-.46-.6.11-5,.1-1.94ZM27.59,31.81c-.95.24-5.68,1.34-5.68,1.34s-1,.08-1-1.38c0-1.68-.11-6.86.72-7.61a22.85,22.85,0,0,1,4.62-3.75s4-1,5.07-1.3-1.66,3.2-2,5.9S28.54,31.57,27.59,31.81Zm8.17-4.53c-.75,1.21-.57,3.28-2,3.56s-3,.63-3,.63,0-2.44.39-6.58,1.44-5.83,2.27-5.91l3.37-.36a22.36,22.36,0,0,1,1.4,3.56C38.87,23.67,36.52,26.07,35.76,27.28Zm12.75-.16a1.9,1.9,0,0,1-1.16-1.95l-.11-6.11s3.44.8,5,1.17,4.2,3.84,4.27,4.69.05,4.72.05,4.72S50.79,28,48.51,27.12Z"/><path id="CONTOUR_face_arrierre" data-name="CONTOUR face arrierre" class="cls-4" d="M27.59,31.81c-.95.24-5.68,1.34-5.68,1.34s-1,.08-1-1.38c0-1.68-.11-6.86.72-7.61a22.85,22.85,0,0,1,4.62-3.75s4-1,5.07-1.3-1.66,3.2-2,5.9S28.54,31.57,27.59,31.81Zm8.17-4.53c-.75,1.21-.57,3.28-2,3.56s-3,.63-3,.63,0-2.44.39-6.58,1.44-5.83,2.27-5.91l3.37-.36a22.36,22.36,0,0,1,1.4,3.56C38.87,23.67,36.52,26.07,35.76,27.28Zm12.64-.14a1.92,1.92,0,0,1-1.15-2l-.12-6.11s3.45.81,5,1.18,4.2,3.84,4.28,4.69.05,4.72.05,4.72S50.68,28,48.4,27.14Z"/><path class="cls-5" d="M35.93,31.89l1.72-.33,6.86,3.58-4.45,1.67-6.93-2.92Zm-5.37,2.58,1.24,4.92,5.85-1.58L33,35.56Z"/><polygon id="tab_bord_ok_" data-name="tab bord   ok **" class="cls-6" points="19.53 35.72 17.04 34.3 15.21 33.14 13.26 32.97 9.79 30.1 9.91 28.26 17.97 25.6 21.71 28.18 23.74 27.76 26.97 29.32 28.18 30.76 28.45 32.47 19.53 35.72"/><polygon class="cls-7" points="24.75 33.68 22.26 32.26 20.82 30.8 16.57 28.72 14.9 28.8 12.56 27.51 17.97 25.6 21.71 28.18 23.74 27.76 26.97 29.32 28.18 30.76 28.45 32.47 24.75 33.68"/><g id="av_ok_" data-name="av    ok   ***"><path class="cls-8" d="M55.78,20.93a6.16,6.16,0,0,0-2.31-1.61,35.81,35.81,0,0,0-6.36-1.92,24,24,0,0,0-3.22-.34l-9.61.43a30.74,30.74,0,0,0-4.36.61l-3.1.7a4.64,4.64,0,0,0-1.44.68l-6.91,5.3s-.19.49-.4.58a6,6,0,0,0-1.16.1L9.74,27.92c-.32.16-.57.44-.47,1.59L7.93,31.13l0,1.28L7.11,33V35.1l-1.55.29a3.46,3.46,0,0,0,.61,2.84,17.32,17.32,0,0,0,6,4.36,2.82,2.82,0,0,0,1.79.3c.61-.17,5.1-1.61,5.1-1.61.81-.2.67-.79.91-1.18L22.4,37c.35-.37.71-.94,1.15-1l3.7-.55c.44,0,2.2,1.73,2.25,2.86l.15,3.19a1,1,0,0,0,1.13.58L47.2,37.68a2.32,2.32,0,0,0,1.19-.91l1.47-2.89a6.32,6.32,0,0,1,1.55-1.73s2.32-1.06,3.54-.88c.6.08.56.67.57,1.14l0,1.25c0,.47.43.17.86.05L58,33.26c.44-.14.38-.3.41-.58.06-.59.08-.93-.36-1.15,0-.55,0-1.27,0-1.46l.13-3.58c0-.47.58-1.1.1-1.94C58.29,24.55,56.22,21.47,55.78,20.93ZM32.94,18.1a3.63,3.63,0,0,1,1.48.27l5.68,2c.42.14.43.38,0,.54l-2.9.49a2.81,2.81,0,0,1-1.74-.12l-5.33-2.15c-.41-.18-.38-.39.05-.47ZM29.16,30.56a3.14,3.14,0,0,1-1.28.92L21.43,34c-2.06.75-5.13-.58-5.53-.78L10.5,29.7a.81.81,0,0,1,0-1.27l6.62-2.33c.41-.17.87-.07,1.44-.57l6.59-5.46a1.24,1.24,0,0,1,1-.15l8.21,3.23c.41.16.54.47.26.84Zm10.11,6a1.5,1.5,0,0,1-1,1L32.85,39a.76.76,0,0,1-.94-.69l.53-7.9c0-1.06.07-1.45.36-1.8a48.43,48.43,0,0,1,3.84-4.56,5.66,5.66,0,0,1,1.94-.94l2.06-.54c.43-.09.64,0,.69.5l.19,3.36a35.18,35.18,0,0,1-.73,4.16Zm10.06-6.3c-.37.7-.8.59-1,1l-1.56,3.45c-.24.39-.79,1.18-1.23,1.25l-1.82.49c-1,.1-1.37-.19-1.35-.66,0,0,.28-3.52.65-5.22.2-.93.29-1.53-.4-7.47,0-.47.05-.85.49-.91l3.42-.05a1.65,1.65,0,0,1,1.32.54l2.63,3.28a1.65,1.65,0,0,1,.22,1.45Zm5.27-4.81a1.68,1.68,0,0,1-1.37-.51l-3-3.18c-.14-.36-.2-.64.24-.69l3.29-.21a1.84,1.84,0,0,1,1.36.52l2.09,2.7c.31.34.21.71-.22.81Z"/><g class="cls-9"><path class="cls-10" d="M55.78,20.93a6.16,6.16,0,0,0-2.31-1.61,35.81,35.81,0,0,0-6.36-1.92,24,24,0,0,0-3.22-.34l-9.61.43a30.74,30.74,0,0,0-4.36.61l-3.1.7a4.64,4.64,0,0,0-1.44.68l-6.91,5.3s-.19.49-.4.58a6,6,0,0,0-1.16.1L9.74,27.92c-.32.16-.57.44-.47,1.59L7.93,31.13l0,1.28L7.11,33V35.1l-1.55.29a3.46,3.46,0,0,0,.61,2.84,17.32,17.32,0,0,0,6,4.36,2.82,2.82,0,0,0,1.79.3c.61-.17,5.1-1.61,5.1-1.61.81-.2.67-.79.91-1.18L22.4,37c.35-.37.71-.94,1.15-1l3.7-.55c.44,0,2.2,1.73,2.25,2.86l.15,3.19a1,1,0,0,0,1.13.58L47.2,37.68a2.32,2.32,0,0,0,1.19-.91l1.47-2.89a6.32,6.32,0,0,1,1.55-1.73s2.32-1.06,3.54-.88c.6.08.56.67.57,1.14l0,1.25c0,.47.43.17.86.05L58,33.26c.44-.14.38-.3.41-.58.06-.59.08-.93-.36-1.15,0-.55,0-1.27,0-1.46l.13-3.58c0-.47.58-1.1.1-1.94C58.29,24.55,56.22,21.47,55.78,20.93ZM32.94,18.1a3.63,3.63,0,0,1,1.48.27l5.68,2c.42.14.43.38,0,.54l-2.9.49a2.81,2.81,0,0,1-1.74-.12l-5.33-2.15c-.41-.18-.38-.39.05-.47ZM29.16,30.56a3.14,3.14,0,0,1-1.28.92L21.43,34c-2.06.75-5.13-.58-5.53-.78L10.5,29.7a.81.81,0,0,1,0-1.27l6.62-2.33c.41-.17.87-.07,1.44-.57l6.59-5.46a1.24,1.24,0,0,1,1-.15l8.21,3.23c.41.16.54.47.26.84Zm10.11,6a1.5,1.5,0,0,1-1,1L32.85,39a.76.76,0,0,1-.94-.69l.53-7.9c0-1.06.07-1.45.36-1.8a48.43,48.43,0,0,1,3.84-4.56,5.66,5.66,0,0,1,1.94-.94l2.06-.54c.43-.09.64,0,.69.5l.19,3.36a35.18,35.18,0,0,1-.73,4.16Zm10.06-6.3c-.37.7-.8.59-1,1l-1.56,3.45c-.24.39-.79,1.18-1.23,1.25l-1.82.49c-1,.1-1.37-.19-1.35-.66,0,0,.28-3.52.65-5.22.2-.93.29-1.53-.4-7.47,0-.47.05-.85.49-.91l3.42-.05a1.65,1.65,0,0,1,1.32.54l2.63,3.28a1.65,1.65,0,0,1,.22,1.45Zm5.27-4.81a1.68,1.68,0,0,1-1.37-.51l-3-3.18c-.14-.36-.2-.64.24-.69l3.29-.21a1.84,1.84,0,0,1,1.36.52l2.09,2.7c.31.34.21.71-.22.81Z"/></g><g id="contour_Av" data-name="contour Av"><path class="cls-11" d="M55.78,20.93a6.16,6.16,0,0,0-2.31-1.61,35.81,35.81,0,0,0-6.36-1.92,24,24,0,0,0-3.22-.34l-9.61.43a30.74,30.74,0,0,0-4.36.61l-3.1.7a4.64,4.64,0,0,0-1.44.68l-6.91,5.3s-.19.49-.4.58a6,6,0,0,0-1.16.1L9.74,27.92c-.32.16-.57.44-.47,1.59L7.93,31.13l0,1.28L7.11,33V35.1l-1.55.29a3.46,3.46,0,0,0,.61,2.84,17.32,17.32,0,0,0,6,4.36,2.76,2.76,0,0,0,1.79.3c.61-.17,5.1-1.61,5.1-1.61.81-.2.67-.79.91-1.18L22.4,37c.35-.37.71-.94,1.15-1l3.7-.55c.44,0,2.2,1.73,2.25,2.86l.15,3.19a1,1,0,0,0,1.13.58L47.2,37.68a2.32,2.32,0,0,0,1.19-.91l1.47-2.89a6.32,6.32,0,0,1,1.55-1.73s2.32-1.06,3.54-.88c.6.08.56.67.57,1.14l0,1.25c0,.47.43.17.86.05L58,33.26c.44-.14.38-.3.41-.58.06-.59.08-.93-.36-1.15,0-.55,0-1.27,0-1.46l.13-3.58c0-.47.58-1.1.1-1.94C58.29,24.55,56.22,21.47,55.78,20.93ZM32.94,18.1a3.63,3.63,0,0,1,1.48.27l5.68,2c.42.14.43.38,0,.54l-2.9.49a2.81,2.81,0,0,1-1.74-.12l-5.33-2.15c-.41-.18-.38-.39.05-.47ZM29.16,30.56a3.14,3.14,0,0,1-1.28.92L21.43,34c-2.06.75-5.13-.58-5.53-.78L10.5,29.7a.81.81,0,0,1,0-1.27l6.62-2.33c.41-.17.87-.07,1.44-.57l6.59-5.46a1.24,1.24,0,0,1,1-.15l8.21,3.23c.41.16.54.47.26.84Zm10.11,6a1.5,1.5,0,0,1-1,1L32.85,39a.76.76,0,0,1-.94-.69l.53-7.9c0-1.06.07-1.45.36-1.8a48.43,48.43,0,0,1,3.84-4.56,5.66,5.66,0,0,1,1.94-.94l2.06-.54c.43-.09.64,0,.69.5l.19,3.36a35.18,35.18,0,0,1-.73,4.16Zm10.06-6.3c-.37.7-.8.59-1,1l-1.56,3.45c-.24.39-.79,1.18-1.23,1.25l-1.82.49c-1,.1-1.37-.19-1.35-.66,0,0,.28-3.52.65-5.22.2-.93.29-1.53-.4-7.47,0-.47.05-.85.49-.91l3.42-.05a1.65,1.65,0,0,1,1.32.54l2.63,3.28a1.65,1.65,0,0,1,.22,1.45Zm5.27-4.81a1.68,1.68,0,0,1-1.37-.51l-3-3.18c-.14-.36-.2-.64.24-.69l3.29-.21a1.84,1.84,0,0,1,1.36.52l2.09,2.7c.31.34.21.71-.22.81Z"/></g></g><path id="CONTOUR-2" data-name="CONTOUR" class="cls-12" d="M32.94,18.1a3.63,3.63,0,0,1,1.48.27l5.68,2c.42.14.43.38,0,.54l-2.9.49a2.81,2.81,0,0,1-1.74-.12l-5.33-2.15c-.41-.18-.38-.39.05-.47ZM29.16,30.56a3.14,3.14,0,0,1-1.28.92L21.43,34c-2.06.75-5.13-.58-5.53-.78L10.5,29.7a.81.81,0,0,1,0-1.27l6.62-2.33c.41-.17.87-.07,1.44-.57l6.59-5.46a1.24,1.24,0,0,1,1-.15l8.21,3.23c.41.16.54.47.26.84Zm10.11,6a1.5,1.5,0,0,1-1,1L32.85,39a.76.76,0,0,1-.94-.69l.53-7.9c0-1.06.07-1.45.36-1.8a48.43,48.43,0,0,1,3.84-4.56,5.66,5.66,0,0,1,1.94-.94l2.06-.54c.43-.09.64,0,.69.5l.19,3.36a35.18,35.18,0,0,1-.73,4.16Zm10.06-6.3c-.37.7-.8.59-1,1l-1.56,3.45c-.24.39-.79,1.18-1.23,1.25l-1.82.49c-1,.1-1.37-.19-1.35-.66,0,0,.28-3.52.65-5.22.2-.93.29-1.53-.4-7.47,0-.47.05-.85.49-.91l3.42-.05a1.65,1.65,0,0,1,1.32.54l2.63,3.28a1.65,1.65,0,0,1,.22,1.45Zm5.27-4.81a1.68,1.68,0,0,1-1.37-.51l-3-3.18c-.14-.36-.2-.64.24-.69l3.29-.21a1.84,1.84,0,0,1,1.36.52l2.09,2.7c.31.34.21.71-.22.81Z"/></g></svg>