<svg id="v_1X_copy_3" data-name="v 1X copy 3" xmlns="http://www.w3.org/2000/svg" xmlns:xlink="http://www.w3.org/1999/xlink" viewBox="0 0 64 64"><defs><style>.cls-1,.cls-10,.cls-2,.cls-6{fill:none;stroke-miterlimit:10;}.cls-1{stroke:#231f20;}.cls-1,.cls-10,.cls-2,.cls-3,.cls-4,.cls-5,.cls-6,.cls-8,.cls-9{fill-rule:evenodd;}.cls-10,.cls-2{stroke:#000;}.cls-3{fill:url(#Light_BLUE_gradient_TOP);}.cls-4{fill:#285977;}.cls-5{fill:#2d6d8b;}.cls-6{stroke:#fff;stroke-width:0.85px;}.cls-7{fill:url(#Dark_BLUE_gradient_LEFT);}.cls-8{fill:url(#Dark_BLUE_gradient_LEFT-2);}.cls-9{fill:#fff;}.cls-10{stroke-linecap:round;stroke-width:0.5px;}</style><linearGradient id="Light_BLUE_gradient_TOP" x1="26.91" y1="30.86" x2="62.9" y2="53.46" gradientTransform="matrix(0.96, 0.27, -0.27, 0.96, 8.66, -7.02)" gradientUnits="userSpaceOnUse"><stop offset="0" stop-color="#a0e1fa"/><stop offset="0.99" stop-color="#73c3e1"/></linearGradient><linearGradient id="Dark_BLUE_gradient_LEFT" x1="3.7" y1="25.52" x2="17.98" y2="25.52" gradientTransform="matrix(0.96, 0.27, -0.27, 0.96, 8.66, -7.02)" gradientUnits="userSpaceOnUse"><stop offset="0" stop-color="#82bedc"/><stop offset="1" stop-color="#285a78"/></linearGradient><linearGradient id="Dark_BLUE_gradient_LEFT-2" x1="17.85" y1="40.1" x2="32.8" y2="40.1" xlink:href="#Dark_BLUE_gradient_LEFT"/></defs><title>ddd__A33AAe__R21XArtboard 1</title><g id="Layer_20_copy_3" data-name="Layer 20 copy 3"><path id="contour" class="cls-1" d="M27.38,52.91c1.69-.43,27.31-9.19,28.61-9.74.46-.19.74-.35.86-.69s.93-2.22,1.7-4.1a2.5,2.5,0,0,0,.14-1.23,4,4,0,0,0-1.9-1.85A132.07,132.07,0,0,1,39.17,25.12c-3-1.91-10-6.81-13.84-10.06-1.57-1.31-3.22-2.57-4.89-3.88a5.93,5.93,0,0,0-1.22-.35l-1.95,4.4a4.84,4.84,0,0,1-.79.2l-3,.32a3.57,3.57,0,0,1-1.38,0c-1.91-2-3.4-3.65-3.44-3.7a2.72,2.72,0,0,0-.76,0,1.34,1.34,0,0,0-1.35,1.09c0,.54-.4,3.24-.38,3.27h0c0,.17.41.68.52.81.91,1,10.24,11.62,10.24,11.62-.53,1.91-.11,2.46,0,2.74a55.07,55.07,0,0,1,6.43,10.82,39.27,39.27,0,0,1,2.1,6.49c.18.77.31,1.93.39,2.54A1.63,1.63,0,0,0,27.38,52.91Z"/><path id="no" class="cls-2" d="M43.8,42.17A2.22,2.22,0,0,0,44,41.4a2.76,2.76,0,0,0-1-2.12c-.85-.85-1.75-1.65-2.63-2.46-1.31-1.21-2.64-2.39-3.93-3.62a9.79,9.79,0,0,0-4.76-2.78,6.43,6.43,0,0,0-3.26,0c-.77.25-1.5.58-1.61,1.46a2.23,2.23,0,0,0,.73,2c1.8,1.78,6.35,6.14,6.73,6.54a10.29,10.29,0,0,0,5.89,3.07c1.43.16,3.36-.23,3.62-1.23Z"/><path id="no-2" data-name="no" class="cls-2" d="M43.53,43.13a2.22,2.22,0,0,0,.18-.77,2.74,2.74,0,0,0-1-2.12c-.84-.85-1.75-1.65-2.63-2.46-1.31-1.21-2.64-2.39-3.93-3.61a9.76,9.76,0,0,0-4.76-2.79,6.4,6.4,0,0,0-3.25,0c-.78.25-1.51.59-1.62,1.46a2.26,2.26,0,0,0,.73,2c1.8,1.79,6.35,6.14,6.74,6.54a10.18,10.18,0,0,0,5.88,3.07c1.43.16,3.36-.23,3.62-1.23Z"/><path id="fond" class="cls-3" d="M8,12.3a2,2,0,0,1,.52.27c.91.92,1.83,1.83,2.68,2.79a1.73,1.73,0,0,0,1.86.68c1.12-.23,2.29-.29,3.43-.43a2.81,2.81,0,0,0,.74-.11,2.64,2.64,0,0,0,.29-.15s9,7.42,13.33,10.89A119.54,119.54,0,0,0,55.57,41.37c.26.13,1.15.55,1.13.67s-.24.75-.41.81c-1,.38-28.09,9.33-28.48,9.46s-.73.54-1.11.15-.67-.89-.59-1.21c.26-1,1.43-4.83,1.44-5,.16-2.63-.89-5.11-1.8-7.59a38.05,38.05,0,0,0-2.86-5.89,55,55,0,0,0-4.67-6.76.92.92,0,0,1-.2-.88c.5-1.86.68-1.25-.78-2.85-2.78-3-5.62-6-8.44-9-.28-.3-.57-.59-.86-.88ZM38,42.87A6.88,6.88,0,0,0,43,43,1.7,1.7,0,0,0,44,41.39a2.74,2.74,0,0,0-1-2.11c-.85-.85-1.75-1.65-2.63-2.46-1.31-1.21-2.64-2.39-3.93-3.62a9.79,9.79,0,0,0-4.76-2.78,6.43,6.43,0,0,0-3.26,0c-.77.25-1.5.58-1.61,1.46a2.23,2.23,0,0,0,.73,2c1.82,1.8,3.65,3.6,5.49,5.38C36.18,42.18,37,42.48,38,42.87Z"/><path id="C_02_trou" data-name="C 02   trou" class="cls-4" d="M26.2,31.42a7,7,0,0,1,.61-.46A4.67,4.67,0,0,0,28,34.67c2.22,2.15,4.41,4.32,6.63,6.47a8.62,8.62,0,0,0,3.46,2,8.42,8.42,0,0,0,4,.47,3,3,0,0,0,2.49-1.74,2,2,0,0,1-.42,2,3.7,3.7,0,0,1-1.49.86A8.85,8.85,0,0,1,36.4,44a11,11,0,0,1-3-2.14Q30,38.48,26.61,35.12A3.22,3.22,0,0,1,25.47,33,1.75,1.75,0,0,1,26.2,31.42Z"/><path id="C_02_trou-2" data-name="C 02   trou" class="cls-4" d="M26.2,31.42a7,7,0,0,1,.61-.46A4.67,4.67,0,0,0,28,34.67c2.22,2.15,4.41,4.32,6.63,6.47a8.62,8.62,0,0,0,3.46,2,8.42,8.42,0,0,0,4,.47,3,3,0,0,0,2.49-1.74,2,2,0,0,1-.42,2,3.7,3.7,0,0,1-1.49.86A8.85,8.85,0,0,1,36.4,44a11,11,0,0,1-3-2.14Q30,38.48,26.61,35.12A3.22,3.22,0,0,1,25.47,33,1.75,1.75,0,0,1,26.2,31.42Z"/><path id="rid" class="cls-5" d="M17.52,15.35S22,19,24.37,21c2.85,2.32,5.63,4.67,8.56,6.9a121,121,0,0,0,12.71,8.41c3.37,1.93,7.51,4.23,11,5.86.22-.32.84-2.06,1.06-2.56A4,4,0,0,0,58.28,38c0-1.18-1-1.9-2-2.44-2.28-1.15-4.61-2.2-6.85-3.41C47,30.84,44.57,29.49,42.27,28c-3.12-2-6.2-4.08-9.18-6.26C29.89,19.41,19.38,11.14,19.4,11.1Z"/><path id="no-3" data-name="no" class="cls-6" d="M42.59,39.4c-.81-.87-1.46-1.45-2.35-2.27-1.3-1.2-2.27-2-3.56-3.24a11,11,0,0,0-4.76-3.05,10.17,10.17,0,0,0-3.06-.22c-.82,0-1.92.36-2,1.24a2.23,2.23,0,0,0,.73,2c1.8,1.78,6.35,6.14,6.73,6.54a10.29,10.29,0,0,0,5.89,3.07c1.43.16,3.31.09,3.84-1.17S43,39.81,42.59,39.4Z"/><path id="ri_2" data-name="ri 2" class="cls-7" d="M18.37,23.91a.93.93,0,0,0-.21-.6c-.84-.93-6.2-6.71-8.09-8.67a16.6,16.6,0,0,0-2.3-2.29,1,1,0,0,0-1,1c0,.54-.34,2.89-.31,2.89h0a1.19,1.19,0,0,0,.15.47c.91,1,10.6,12.09,10.6,12.09S18.19,24.56,18.37,23.91Z"/><path id="ri1" class="cls-8" d="M27.54,46a9.15,9.15,0,0,0-.45-3.47,41.21,41.21,0,0,0-2.28-6.13,42.71,42.71,0,0,0-3.3-5.89C20.5,29,18,25.65,18,25.65s-.61,2.63-.77,3.19c-.53,1.92-.12,2.42-.11,2.52a57.71,57.71,0,0,1,6.56,11A39.92,39.92,0,0,1,25.74,49c.18.77.12,1.52.35,2.28.31-.89.67-1.91,1-2.81C27.22,47.88,27.47,46.29,27.54,46ZM17.9,32h0Z"/><path id="bordn" class="cls-9" d="M58.05,38.21c0,.07.19-.13.19-.76a3.81,3.81,0,0,0-2-1.91,119.41,119.41,0,0,1-17.71-10c-7.74-5.18-14.6-10.82-16.16-12-.93-.74-2.06-1.58-3-2.39a5.53,5.53,0,0,1,1,.33C22,12.74,23.69,14,25.26,15.31c3.89,3.25,10.88,8.15,13.84,10.07A124.69,124.69,0,0,0,56.74,35.47a3.3,3.3,0,0,1,1.73,1.71C58.62,37.66,58.58,38.29,58.05,38.21Z"/><path id="bord" class="cls-9" d="M27.18,52.24s-.47-.62-.36-1,.85-2.67,1.4-4.62a4.46,4.46,0,0,0,.11-1c0-1.45-1.71-7.32-4.35-12a63.9,63.9,0,0,0-5.26-7.91c-.19-.28.75-1.77.12-2.55S8.64,12.47,8.52,12.35s-.75,0-.75,0a16.6,16.6,0,0,1,2.3,2.29c1.89,2,7.25,7.74,8.09,8.67a.93.93,0,0,1,.21.6L18,25.65S20.5,29,21.51,30.49a42.71,42.71,0,0,1,3.3,5.89,41.21,41.21,0,0,1,2.28,6.13A9.15,9.15,0,0,1,27.54,46c-.07.31-.32,1.9-.49,2.45-.29.9-.84,2.49-1,2.81s.61,1.22.61,1.22ZM17.9,32h0Z"/><path id="bord_blanc_" data-name="bord blanc **" class="cls-9" d="M27.62,52.38a.43.43,0,0,1-.44-.14l-.48.22a.76.76,0,0,0,.87.23c1.58-.43,27.37-9.31,28.68-9.83.26-.09.52-.7.52-.7L58.48,38l-.23-.32s-1.18,3-1.79,4.35c-.1.2-.29.61-.46.67Z"/><path id="bord-2" data-name="bord" class="cls-10" d="M7.82,12.42c.87.9,9.5,10,10.34,10.89a.93.93,0,0,1,.21.6l-.34,2s2.41,3.14,3.42,4.65a44.26,44.26,0,0,1,3.29,5.94,42.12,42.12,0,0,1,2.35,6A9.15,9.15,0,0,1,27.54,46c-.1.5-.38,1.48-.61,2.31s-.73,2.63-.84,3a1.31,1.31,0,0,0,.45,1.37"/></g></svg>