<svg xmlns="http://www.w3.org/2000/svg" xmlns:xlink="http://www.w3.org/1999/xlink" viewBox="0 0 64 64"><defs><style>.cls-1,.cls-11,.cls-12,.cls-15,.cls-16,.cls-17,.cls-2,.cls-21,.cls-22,.cls-23,.cls-24,.cls-29,.cls-7{fill:none;}.cls-10,.cls-11,.cls-12,.cls-14,.cls-2,.cls-3,.cls-4,.cls-5,.cls-6,.cls-7,.cls-8,.cls-9{stroke:#000;}.cls-10,.cls-11,.cls-12,.cls-14,.cls-15,.cls-16,.cls-17,.cls-2,.cls-21,.cls-29,.cls-3,.cls-4,.cls-5,.cls-6,.cls-7,.cls-8,.cls-9{stroke-linejoin:round;}.cls-3{fill:#797979;}.cls-10,.cls-3,.cls-4,.cls-5,.cls-6,.cls-8,.cls-9{stroke-width:0.24px;}.cls-4{fill:#96abaa;}.cls-5{fill:#5a6060;}.cls-6{fill:#323232;}.cls-11,.cls-12,.cls-14,.cls-15,.cls-16,.cls-17,.cls-21,.cls-22,.cls-23,.cls-24,.cls-29,.cls-7{stroke-linecap:round;}.cls-8{fill:#aaa5b4;}.cls-14,.cls-9{fill:#fff;}.cls-10{fill:#f1f0f0;}.cls-11{stroke-width:0.57px;}.cls-12{stroke-width:0.75px;}.cls-13{clip-path:url(#clip-path);}.cls-14{stroke-width:0.25px;}.cls-15,.cls-16{stroke:#fff;}.cls-15{stroke-width:0.28px;}.cls-16{stroke-width:0.71px;}.cls-17,.cls-21,.cls-22,.cls-23{stroke:#797979;}.cls-18{fill:url(#linear-gradient);}.cls-19{fill:url(#linear-gradient-2);}.cls-20{fill:url(#white_left);}.cls-21{stroke-width:0.15px;}.cls-22,.cls-23,.cls-24{stroke-miterlimit:10;}.cls-22{stroke-width:0.29px;}.cls-23,.cls-24,.cls-29{stroke-width:0.5px;}.cls-24,.cls-29{stroke:#285977;}.cls-25{fill:#003755;}.cls-26{fill:#285977;}.cls-27{fill:#aadcfa;}.cls-28{fill:#000102;}.cls-30{fill:#5a9ab8;}</style><clipPath id="clip-path"><polygon class="cls-1" points="40.72 16.39 37.29 22.19 34.83 22.19 32.59 16.39 40.72 16.39"/></clipPath><linearGradient id="linear-gradient" x1="15.25" y1="47.43" x2="28.36" y2="58.44" gradientUnits="userSpaceOnUse"><stop offset="0" stop-color="#bebebe"/><stop offset="0.47" stop-color="#8e8e8e"/><stop offset="0.73" stop-color="#797979"/></linearGradient><linearGradient id="linear-gradient-2" x1="3.99" y1="47.14" x2="16.23" y2="55.08" gradientUnits="userSpaceOnUse"><stop offset="0" stop-color="#fff"/><stop offset="0.2" stop-color="#d2d2d2"/><stop offset="0.77" stop-color="gray"/><stop offset="1" stop-color="#797979"/></linearGradient><linearGradient id="white_left" x1="6.03" y1="45.83" x2="29.43" y2="45.83" gradientUnits="userSpaceOnUse"><stop offset="0" stop-color="#f5f5f5"/><stop offset="1" stop-color="#bebebe"/></linearGradient></defs><g id="NEW_POUTRE_OK_copy_2" data-name="NEW POUTRE   OK  ** copy 2"><path id="Contour_" data-name="Contour  *" class="cls-2" d="M46.45,6,44,10,42.13,5.16h-1L37.71,8.91l-6.77,0L29.86,6.21H29l-3.4,6.35L40.5,52.28h1l2-2.59h5.39l1.23,3.19h1l6.4-7.83h0l-7.29-19L60,9.53l-.41-.82h-11L47.42,6Z"/><polygon class="cls-3" points="42.13 5.15 57.49 45.05 56.29 45.05 41.1 5.16 42.13 5.15"/><path id="pl" class="cls-4" d="M50.06,52.88S39,24.21,35.44,15.05l2.27-6.14L41.1,5.16C44,12.61,56.29,45.05,56.29,45.05Z"/><path id="ar" class="cls-5" d="M37.86,10c2.61,6.88,13.66,39.64,13.66,39.64H42.39S28.11,12.35,27.46,10.05Z"/><path id="av" class="cls-6" d="M37.71,8.91,52.34,48.55H43.23c-1.35-3.13-14-37.32-14.65-39.62Z"/><polyline class="cls-7" points="44.46 48.38 45.94 46.42 41.55 35.36 47.06 35.35"/><polygon id="G_" data-name="G **" class="cls-8" points="45.92 46.42 41.46 52.28 40.5 52.28 44.77 46.42 45.92 46.42"/><polygon id="I_" data-name="I  **" class="cls-9" points="52.34 48.55 44.3 48.55 45.92 46.42 44.77 46.42 40.5 52.28 41.46 52.28 43.44 49.68 51.52 49.68 50.06 52.88 51.09 52.88 57.49 45.05 56.29 45.05 52.34 48.55"/><polygon id="Top_surf_Gris_" data-name="Top surf Gris  *" class="cls-10" points="25.62 12.56 40.5 52.28 44.77 46.42 29.01 6.21 25.62 12.56"/><polyline id="GRAS_" data-name="GRAS **" class="cls-11" points="41.7 17.26 34.27 17.24 30.9 8.81"/><polygon class="cls-6" points="39.19 29.51 39.49 30.27 45.6 30.27 49.52 27.25 60.01 9.55 47.98 9.55 37.14 26.95 38.15 29.51 39.19 29.51"/><polygon id="Bord_ht_" data-name="Bord ht **" class="cls-3" points="29.86 6.21 45.95 46.42 44.77 46.42 29.01 6.21 29.86 6.21"/><polygon id="BORD_hT_2" data-name="BORD  hT ***" class="cls-3" points="29.86 6.21 45.95 46.42 44.77 46.42 29.01 6.21 29.86 6.21"/><path id="GRAS_2" data-name="GRAS **" class="cls-12" d="M49.24,9.73l1.24,2.81-11.19,17,.56,1.4-.23-.61h6"/><polygon id="bord_Blanc" data-name="bord Blanc" class="cls-9" points="50.27 12.54 39.19 29.51 38.15 29.51 49.21 12.54 50.27 12.54"/><polygon id="T_bout_ok" data-name="T   bout ** ok" class="cls-10" points="47.41 5.96 48.6 8.71 59.6 8.71 60.01 9.55 48.97 9.55 50.27 12.54 49.21 12.54 46.45 5.96 47.41 5.96"/><g id="raidisseur_2_" data-name="raidisseur 2**"><g class="cls-13"><g id="raidisseur_2_2" data-name="raidisseur 2 *"><polygon class="cls-6" points="36.16 21.96 42.98 21.96 46.37 18.97 34.97 18.97 34.29 19.67 35.24 19.67 36.16 21.96"/><polygon class="cls-10" points="45.7 17.26 34.27 17.24 34.97 18.97 46.37 18.97 45.7 17.26"/><polygon class="cls-14" points="34.29 19.67 34.97 18.97 34.27 17.24 33.6 17.93 34.29 19.67"/></g></g></g><polygon id="dessus_" data-name="dessus **" class="cls-10" points="35.92 23.84 38.15 29.52 49.21 12.54 46.45 5.95 35.92 23.84"/><g id="raidisseu_1_" data-name="raidisseu 1 ***"><polygon class="cls-10" points="40.6 33.05 39.84 31.13 50.99 31.13 51.71 33.04 40.6 33.05"/><polygon class="cls-6" points="41.53 35.35 47.47 35.35 51.71 33.04 40.6 33.05 39.83 33.8 40.9 33.8 41.53 35.35"/><polygon class="cls-14" points="39.83 33.8 40.6 33.05 39.84 31.13 39.08 31.88 39.83 33.8"/></g><line id="GRAS_3" data-name="GRAS *" class="cls-11" x1="36.56" y1="22.43" x2="35.55" y2="19.82"/><polyline id="top_Highlight_" data-name="top Highlight **" class="cls-15" points="40.65 51.24 26.17 12.6 28.9 7.51"/><polyline id="highlight_--_Bleue" data-name="highlight   -- Bleue" class="cls-16" points="38.26 28.43 36.58 23.95 46.35 7.41"/></g><g id="BETON"><g id="beton-2" data-name="beton"><polygon class="cls-17" points="29.42 48.07 21.26 43.36 6.38 44.4 6.38 53.48 14.18 58.22 29.43 57.16 29.42 48.07"/><polygon class="cls-18" points="29.43 47.66 29.44 57.16 14.19 58.22 14.17 48.71 29.43 47.66"/><polygon class="cls-19" points="14.17 48.71 14.19 58.22 6.03 53.51 6.03 44.01 14.17 48.71"/><polygon class="cls-20" points="29.43 47.66 14.17 48.71 6.03 44.01 21.27 42.95 29.43 47.66"/><polygon class="cls-21" points="29.42 47.66 29.43 57.16 14.18 58.22 14.17 48.71 29.42 47.66"/><polygon class="cls-21" points="14.17 48.71 14.18 58.22 6.03 53.51 6.02 44.01 14.17 48.71"/><polygon class="cls-21" points="29.42 47.66 14.17 48.71 6.02 44.01 21.26 42.95 29.42 47.66"/><path class="cls-22" d="M18.3,53.5l-.76.94m7.81,1.12-1.49.6M22,51.7l.69-.91m-.56,3.48.72-.15M16,50.87l1.27-.35"/><path class="cls-23" d="M26.79,50.22l.62.79"/><path class="cls-23" d="M8.66,50.48l.24-.06m1.4,3.08.24-.06m1.81-2.88-.49.6m1,4-.14-.39M7.49,47.63l1.11-.72"/></g><g id="tige_METAl_copy_2" data-name="tige  METAl copy 2"><path d="M15.66,32.47V47.71c0,.07-.14.13-.39.14a2.15,2.15,0,0,1-1-.15c-.06,0-.09-.07-.09-.1V32.36ZM18,29.54V44.38s0,.06.09.1a2.13,2.13,0,0,0,1,.15c.24,0,.39-.07.39-.14V29.65Zm-8.54.6V44.77s0,.07.09.1a2.23,2.23,0,0,0,1,.16c.26,0,.4-.08.4-.15V30Zm13.2,1.1V47c0,.17.71.27,1.08.24s.39-.07.41-.15V31.94Z"/><path class="cls-24" d="M10,34.67V44.3M14.91,37V47.3m3.8-15.93V43.9m4.6-9.23V46.61"/><g id="Layer_101_copy_8" data-name="Layer 101 copy 8"><path id="in_" data-name="in **" class="cls-25" d="M24.87,37.45c0-.1-.09-.21-.29-.32l-3.93-2.27a7,7,0,0,0-3.25-.51L10,34.86c-.8.06-1.27.25-1.27.48v.78c0-.23.46-.42,1.27-.47l7.35-.51a6.91,6.91,0,0,1,3.26.5l3.93,2.27c.19.11.28.23.28.33Z"/><path class="cls-26" d="M25.56,37.5c0,.3-.6.55-1.64.62l-7.35.51A9,9,0,0,1,12.39,38L8.46,35.71c-.25-.15-.37-.29-.37-.42v.78c0,.13.12.28.37.42l3.93,2.27a8.77,8.77,0,0,0,4.18.65l7.36-.51c1-.07,1.63-.31,1.63-.61Z"/><path id="TOP" class="cls-27" d="M25.19,37.09c.81.46.23.92-1.27,1l-7.35.51A9,9,0,0,1,12.39,38L8.46,35.71c-.81-.47-.25-.93,1.26-1l7.36-.51a9,9,0,0,1,4.18.66Zm-8.94,1.35,7.35-.51c1.17-.08,1.61-.44,1-.8l-3.93-2.27a7,7,0,0,0-3.25-.51L10,34.86c-1.16.08-1.61.44-1,.81L13,37.93a6.9,6.9,0,0,0,3.26.51"/></g><g id="Layer_144" data-name="Layer 144"><path d="M15.66,28.78v8.44L14.18,37V28.67ZM18,23.38V37.91l1.49,0V23.49ZM9.49,26v9.7l1.48.55V26.08Zm13.2.13V36.62l1.49.51V26.19Z"/><path class="cls-24" d="M10,28.57V35.9m4.9-5v7m3.8-12.63V37.8m4.6-9.23V37.5"/></g><g id="Layer_101_copy_8-2" data-name="Layer 101 copy 8"><path class="cls-25" d="M24.87,32.33c0-.1-.09-.22-.28-.33l-3.93-2.27a7,7,0,0,0-3.26-.51l-7.35.52c-.81.05-1.27.24-1.27.47V31c0-.23.46-.42,1.27-.48L17.4,30a7,7,0,0,1,3.26.51l3.93,2.27c.19.11.29.22.29.32Z"/><path class="cls-26" d="M25.56,32.38c0,.3-.59.54-1.63.61l-7.36.51a8.86,8.86,0,0,1-4.19-.65L8.45,30.58c-.25-.14-.36-.28-.36-.42V31c0,.13.11.27.36.42l3.93,2.27a9.12,9.12,0,0,0,4.19.65l7.36-.51c1-.07,1.63-.32,1.63-.62Z"/><path class="cls-27" d="M25.19,32c.81.47.24.93-1.26,1l-7.36.51a8.86,8.86,0,0,1-4.19-.65L8.45,30.58c-.8-.46-.23-.93,1.27-1L17.08,29a8.92,8.92,0,0,1,4.18.65Zm-8.94,1.36,7.36-.51c1.16-.09,1.61-.45,1-.81l-3.93-2.27a7,7,0,0,0-3.26-.51l-7.35.52c-1.17.08-1.61.44-1,.8L13,32.81a7,7,0,0,0,3.26.51"/></g><g id="Layer_144_copy" data-name="Layer 144 copy"><path d="M15.66,23.74V33l-1.48-.11V23.63ZM18,18.34V31.58l1.49.11V18.45ZM9.49,24.93v5.73L11,31V25Zm13.2-3.88V32.38l1.49.3V21.14Z"/><path class="cls-24" d="M10,23.45v7.31m4.9-5v7m3.8-12.63V32.68m4.6-9.23v8.93"/></g><g id="Layer_101_copy_8-3" data-name="Layer 101 copy 8"><path class="cls-25" d="M24.87,27.2c0-.11-.09-.22-.28-.33L20.66,24.6a6.91,6.91,0,0,0-3.26-.5l-7.35.51c-.81.05-1.27.24-1.27.47v.79c0-.23.46-.42,1.27-.48l7.35-.51a7,7,0,0,1,3.26.51l3.93,2.27c.19.11.28.22.28.32Z"/><path id="eX" class="cls-26" d="M25.56,27.25c0,.3-.6.54-1.64.61l-7.35.51a8.86,8.86,0,0,1-4.19-.65L8.45,25.45c-.25-.14-.36-.28-.36-.42v.79c0,.13.11.27.36.42l3.93,2.27a9.14,9.14,0,0,0,4.2.65l7.34-.51c1-.07,1.64-.32,1.64-.62Z"/><path class="cls-27" d="M25.19,26.83c.81.47.24.93-1.27,1l-7.35.51a8.86,8.86,0,0,1-4.19-.65L8.45,25.45c-.8-.46-.23-.93,1.27-1l7.35-.51a8.94,8.94,0,0,1,4.19.65Zm-8.94,1.36,7.35-.51c1.17-.09,1.62-.45,1-.81L20.66,24.6a6.91,6.91,0,0,0-3.26-.5l-7.35.51c-1.17.08-1.61.44-1,.8L13,27.68a7,7,0,0,0,3.26.51"/></g><g id="Layer_142_copy" data-name="Layer 142 copy"><path class="cls-28" d="M15.66,18.54v9.24l-1.48-.11V18.43ZM18,13.14V26.38l1.49.11V13.25ZM9.49,15.73v9.7l1.48.41v-10Zm13.2.12V27.18l1.49.3V15.94Z"/><path class="cls-24" d="M10,18.35v7.23m4.9-4.93v7m3.8-12.63V27.58m4.6-9.23v8.93"/></g><g id="Layer_101_copy_8-4" data-name="Layer 101 copy 8"><path class="cls-25" d="M24.85,22.07c0-.11-.09-.22-.28-.33l-3.93-2.27a6.91,6.91,0,0,0-3.26-.5L10,19.48c-.81.05-1.27.24-1.27.47v.79c0-.23.46-.42,1.27-.48l7.35-.51a7,7,0,0,1,3.26.51l3.93,2.27c.19.11.28.22.28.32Z"/><path class="cls-26" d="M25.54,22.12c0,.3-.6.54-1.64.61l-7.35.51a8.86,8.86,0,0,1-4.19-.65L8.43,20.32c-.25-.14-.36-.28-.36-.42v.79c0,.13.11.27.36.42l3.93,2.27a9.12,9.12,0,0,0,4.19.65l7.35-.51c1.05-.07,1.64-.32,1.64-.62Z"/><path class="cls-27" d="M25.17,21.7c.81.47.24.93-1.27,1l-7.35.51a8.86,8.86,0,0,1-4.19-.65L8.43,20.32c-.8-.46-.23-.93,1.27-1l7.35-.51a8.94,8.94,0,0,1,4.19.65Zm-8.94,1.36,7.35-.51c1.17-.09,1.62-.45,1-.81l-3.93-2.27a6.91,6.91,0,0,0-3.26-.5L10,19.48c-1.17.08-1.61.44-1,.8L13,22.55a7,7,0,0,0,3.26.51"/></g><g id="Layer_142" data-name="Layer 142"><path d="M15.66,13.44v9.24l-1.48-.11V13.33ZM18,8V21.28l1.49.11V8.15ZM9.49,10.63v9.71l1.48.58V10.74Zm13.2.12V22.08l1.49.3V10.84Z"/><path class="cls-29" d="M10,11.55v9m4.9-6.19v8.31m3.8-13.91V21.28m4.6-9.23V22.2"/></g><g id="dessuzs_tiges" data-name="dessuzs tiges"><path class="cls-30" d="M15.57,13.34c.19.11.06.22-.3.24a2.09,2.09,0,0,1-1-.15c-.19-.11-.06-.22.29-.25A2.1,2.1,0,0,1,15.57,13.34Z"/><path class="cls-30" d="M19.42,8.05c.2.11,0,.22-.3.25a2.25,2.25,0,0,1-1-.16c-.19-.11-.06-.22.31-.25A2.21,2.21,0,0,1,19.42,8.05Z"/><path class="cls-30" d="M10.88,10.64c.19.11.06.22-.31.25a2.19,2.19,0,0,1-1-.16c-.2-.11-.06-.22.3-.25A2.21,2.21,0,0,1,10.88,10.64Z"/><ellipse class="cls-30" cx="23.44" cy="10.79" rx="0.2" ry="0.75" transform="matrix(0.08, -1, 1, 0.08, 10.81, 33.29)"/></g></g></g></svg>