<?xml version="1.0" encoding="UTF-8"?>
<svg id="FINAL" xmlns="http://www.w3.org/2000/svg" xmlns:xlink="http://www.w3.org/1999/xlink" viewBox="0 0 64 64">
  <defs>
    <linearGradient id="linear-gradient" x1="18.23" y1="11.92" x2="22.67" y2="19.6" gradientUnits="userSpaceOnUse">
      <stop offset="0" stop-color="#fff"/>
      <stop offset="1" stop-color="#f1f0f0"/>
    </linearGradient>
    <linearGradient id="linear-gradient-2" x1="53.32" y1="48.35" x2="32.56" y2="12.39" gradientUnits="userSpaceOnUse">
      <stop offset="0" stop-color="#386f8d"/>
      <stop offset="1" stop-color="#8dd7f4"/>
    </linearGradient>
    <linearGradient id="linear-gradient-3" x1="21.21" y1="16.45" x2="32.28" y2="35.63" xlink:href="#linear-gradient"/>
    <linearGradient id="linear-gradient-4" x1="5.79" y1="20.58" x2="15.28" y2="37.01" xlink:href="#linear-gradient"/>
    <linearGradient id="linear-gradient-5" x1="31.37" y1="8.67" x2="36.87" y2="18.19" gradientUnits="userSpaceOnUse">
      <stop offset="0" stop-color="#f5f6f6"/>
      <stop offset=".99" stop-color="#bfbebe"/>
    </linearGradient>
    <linearGradient id="linear-gradient-6" x1="28.82" y1="28.23" x2="39.57" y2="46.86" xlink:href="#linear-gradient"/>
    <linearGradient id="linear-gradient-7" x1="22.22" y1="26.28" x2="26.93" y2="34.43" xlink:href="#linear-gradient"/>
    <linearGradient id="linear-gradient-8" x1="32.45" y1="28.91" x2="34.62" y2="32.66" xlink:href="#linear-gradient"/>
    <linearGradient id="linear-gradient-9" x1="20.13" y1="14.68" x2="15.29" y2="19.52" gradientUnits="userSpaceOnUse">
      <stop offset=".24" stop-color="#f5f6f6"/>
      <stop offset=".41" stop-color="#e4e5e5"/>
      <stop offset=".66" stop-color="#d2d3d3"/>
    </linearGradient>
    <linearGradient id="linear-gradient-10" x1="20.1" y1="14.69" x2="16.33" y2="18.45" gradientTransform="translate(17.06 -8.01) rotate(45)" gradientUnits="userSpaceOnUse">
      <stop offset="0" stop-color="#8dd7f4"/>
      <stop offset=".18" stop-color="#89d2ef"/>
      <stop offset=".38" stop-color="#7ec5e2"/>
      <stop offset=".6" stop-color="#6caecc"/>
      <stop offset=".81" stop-color="#528fad"/>
      <stop offset="1" stop-color="#386f8d"/>
    </linearGradient>
    <linearGradient id="linear-gradient-11" x1="-77.48" y1="-26.29" x2="-78.87" y2="-28.69" gradientTransform="translate(44.86 -60.76) rotate(-90)" xlink:href="#linear-gradient-2"/>
    <linearGradient id="linear-gradient-12" x1="-75.81" y1="-24.62" x2="-77.2" y2="-27.02" gradientTransform="translate(44.86 -60.76) rotate(-90)" xlink:href="#linear-gradient-2"/>
    <linearGradient id="linear-gradient-13" x1="7.63" y1="10.86" x2="12.29" y2="6.2" gradientUnits="userSpaceOnUse">
      <stop offset="0" stop-color="#161616"/>
      <stop offset=".79" stop-color="#515151"/>
    </linearGradient>
  </defs>
  <polygon points="15.5 38.98 38.5 34.48 38.5 13.98 9.5 19.98 15.5 38.98" fill="url(#linear-gradient-3)" stroke="#797979" stroke-linecap="round" stroke-linejoin="round"/>
  <polygon points="5.5 17.98 34.5 11.98 31.5 15.48 9.5 19.98 5.5 17.98" fill="url(#linear-gradient)" stroke="#797979" stroke-linecap="round" stroke-linejoin="round"/>
  <polygon points="5.5 17.98 11.5 37.48 15.5 38.98 9.5 19.98 5.5 17.98" fill="url(#linear-gradient-4)" stroke="#797979" stroke-linecap="round" stroke-linejoin="round"/>
  <polyline points="40 17.98 11 23.98 7 21.98" fill="none" stroke="#797979" stroke-linecap="round" stroke-linejoin="round"/>
  <polyline points="41 21.98 12 27.98 8 25.98" fill="none" stroke="#797979" stroke-linecap="round" stroke-linejoin="round"/>
  <polyline points="42.5 25.98 13.5 31.98 9.5 29.98" fill="none" stroke="#797979" stroke-linecap="round" stroke-linejoin="round"/>
  <polyline points="43.5 29.48 14.5 35.48 10.5 33.48" fill="none" stroke="#797979" stroke-linecap="round" stroke-linejoin="round"/>
  <polygon points="31.55 15.41 34.5 11.98 5.5 17.98 11.5 37.48 15.5 38.98 38.5 34.48 38.5 13.98 31.55 15.41" fill="none" stroke="#333332" stroke-linecap="round" stroke-linejoin="round"/>
  <polygon points="38.5 6.48 29.5 7.98 29.5 19.98 38.5 18.48 38.5 6.48" fill="url(#linear-gradient-5)" stroke="#797979" stroke-linecap="round" stroke-linejoin="round"/>
  <polygon points="56.5 40.98 53.5 40.98 29.5 35.98 29.5 19.98 38.5 18.48 56.5 24.98 56.5 40.98" fill="url(#linear-gradient-2)" stroke="#053755" stroke-linecap="round" stroke-linejoin="round"/>
  <path d="M29.5,19.98l9-1.5s12,2.5,18,6.5h-3l-24-5Z" fill="url(#linear-gradient-2)" stroke="#053755" stroke-linecap="round" stroke-linejoin="round"/>
  <path d="M29.5,7.98l9-1.5s12,2.5,18,6.5h-3L29.5,7.98Z" fill="url(#linear-gradient)" stroke="#797979" stroke-linecap="round" stroke-linejoin="round"/>
  <path d="M29.5,11.98l9-1.5s12,2.5,18,6.5h-3l-24-5Z" fill="url(#linear-gradient)" stroke="#797979" stroke-linecap="round" stroke-linejoin="round"/>
  <path d="M29.5,15.98l9-1.5s12,2.5,18,6.5h-3l-24-5Z" fill="url(#linear-gradient)" stroke="#797979" stroke-linecap="round" stroke-linejoin="round"/>
  <rect x="53.5" y="12.98" width="3" height="12" fill="none" stroke="#797979" stroke-linecap="round" stroke-linejoin="round"/>
  <polyline points="56.5 28.98 53.5 28.98 29.5 23.98" fill="url(#linear-gradient-2)" stroke="#053755" stroke-linecap="round" stroke-linejoin="round"/>
  <polyline points="56.5 32.48 53.5 32.48 29.5 27.48" fill="url(#linear-gradient-2)" stroke="#053755" stroke-linecap="round" stroke-linejoin="round"/>
  <polyline points="56.5 35.98 53.5 35.98 29.5 30.98" fill="url(#linear-gradient-2)" stroke="#053755" stroke-linecap="round" stroke-linejoin="round"/>
  <path d="M29.5,28.48l-10,2v8.96l17.11,6.18c.61,.22,1.25,.34,1.91,.36,2.33,.04,8.02-.07,9.98-2.03v-8.96l-19-6.5Z" fill="url(#linear-gradient-6)" stroke="#797979" stroke-linecap="round" stroke-linejoin="round"/>
  <path d="M19.5,30.48l17.11,6.18c.61,.22,1.25,.34,1.91,.36,2.33,.04,8.02-.07,9.98-2.03l-19-6.5-10,2Z" fill="url(#linear-gradient)" stroke="#797979" stroke-linecap="round" stroke-linejoin="round"/>
  <path d="M19.5,34.94l17.11,6.18c.61,.22,1.25,.34,1.91,.36,2.33,.04,8.02-.07,9.98-2.03" fill="none" stroke="#797979" stroke-linecap="round" stroke-linejoin="round"/>
  <line x1="37.5" y1="36.98" x2="37.5" y2="45.48" fill="none" stroke="#797979" stroke-linecap="round" stroke-linejoin="round"/>
  <line x1="43.5" y1="36.98" x2="43.5" y2="45.48" fill="none" stroke="#797979" stroke-linecap="round" stroke-linejoin="round"/>
  <line x1="29.5" y1="34.48" x2="29.5" y2="42.98" fill="none" stroke="#797979" stroke-linecap="round" stroke-linejoin="round"/>
  <polyline points="37.5 28.98 37.5 21.98 43.5 19.98" fill="none" stroke="#053755" stroke-linecap="round" stroke-linejoin="round"/>
  <polygon points="19.5 30.48 19.5 26.48 29.5 29.98 29.5 33.98 19.5 30.48" fill="url(#linear-gradient-7)" stroke="#797979" stroke-linecap="round" stroke-linejoin="round"/>
  <polygon points="37.5 27.48 29.5 29.98 29.5 33.98 37.5 31.48 37.5 27.48" fill="url(#linear-gradient-8)" stroke="#797979" stroke-linecap="round" stroke-linejoin="round"/>
  <polyline points="29.5 29.98 37.5 27.48 27.5 23.98 19.5 26.48 29.31 30.02" fill="url(#linear-gradient)" stroke="#797979" stroke-linecap="round" stroke-linejoin="round"/>
  <polyline points="45.5 30.48 45.5 23.48 49.5 21.98" fill="none" stroke="#053755" stroke-linecap="round" stroke-linejoin="round"/>
  <rect x="53.5" y="24.98" width="3" height="16" fill="none" stroke="#053755" stroke-linecap="round" stroke-linejoin="round"/>
  <path d="M6.5,38.48l27.48,9.96c4.51,1.63,9.48,1.5,13.89-.37l9.63-4.08" fill="none" stroke="#333332" stroke-linecap="square" stroke-linejoin="round"/>
  <path d="M6.5,46.48l27.48,9.96c4.51,1.63,9.48,1.5,13.89-.37l9.63-4.08" fill="none" stroke="#333332" stroke-linecap="square" stroke-linejoin="round"/>
  <path d="M37.5,31.21v-3.74l-10-3.5-8,2.5v12.96l17.11,6.18c.61,.22,1.25,.34,1.91,.36,2.33,.04,8.02-.07,9.98-2.03v-8.96l-11-3.76Z" fill="none" stroke="#333332" stroke-linecap="round" stroke-linejoin="round"/>
  <path d="M56.5,24.98V12.98c-6-4-18-6.5-18-6.5l-9,1.5v12" fill="none" stroke="#333332" stroke-linecap="round" stroke-linejoin="round"/>
  <g>
    <g>
      <polygon points="27.27 25.65 21.7 24.53 8.22 11.05 8.05 8.65 10.27 6.43 12.67 6.6 26.15 20.08 27.27 25.65" fill="url(#linear-gradient-9)" stroke="#333332" stroke-linecap="round" stroke-linejoin="round"/>
      <rect x="15.06" y="10.85" width="6.3" height="11.47" transform="translate(-6.39 17.73) rotate(-45)" fill="url(#linear-gradient-10)" stroke="#053755" stroke-linecap="round" stroke-linejoin="round"/>
      <path d="M26.32,22.47l-2.23,2.23c-.15,.15-.24,.54-.09,.69,.03,.03,.22,.15,.42,.19l2.73,.62c.18,.04,.37-.02,.5-.15,.11-.11,.16-.25,.16-.39,0-.04,0-.07-.01-.11l-.62-2.8c-.04-.2-.09-.42-.19-.44-.2-.04-.54,.02-.68,.16Z" fill="#161616"/>
      <line x1="21.15" y1="21.2" x2="13.59" y2="13.64" fill="url(#linear-gradient-11)" opacity=".5" stroke="#053755" stroke-linecap="round" stroke-linejoin="round"/>
      <line x1="22.82" y1="19.53" x2="15.26" y2="11.97" fill="url(#linear-gradient-12)" opacity=".2" stroke="#053755" stroke-linecap="round" stroke-linejoin="round"/>
    </g>
    <path d="M9.31,5.64l-2.06,2.06c-.85,.85-.85,2.25,0,3.1l.79,.79s.03,.02,.05,.04l.77,.77c.21,.21,.56,.21,.77,0l4.38-4.38c.11-.11,.16-.25,.16-.39s-.05-.28-.16-.39l-.82-.82-.79-.79-.04-.04s-.03-.02-.04-.03c-.86-.78-2.19-.76-3.02,.06Z" fill="url(#linear-gradient-13)" fill-rule="evenodd"/>
  </g>
</svg>