<svg id="VERSION_02" data-name="VERSION 02" xmlns="http://www.w3.org/2000/svg" xmlns:xlink="http://www.w3.org/1999/xlink" viewBox="0 0 64 64"><defs><style>.cls-1,.cls-11,.cls-12,.cls-15,.cls-16,.cls-17,.cls-2,.cls-21,.cls-22,.cls-23,.cls-24,.cls-29,.cls-38,.cls-42,.cls-7{fill:none;}.cls-10,.cls-11,.cls-12,.cls-14,.cls-2,.cls-3,.cls-4,.cls-5,.cls-6,.cls-7,.cls-8,.cls-9{stroke:#000;}.cls-10,.cls-11,.cls-12,.cls-14,.cls-15,.cls-16,.cls-17,.cls-2,.cls-21,.cls-29,.cls-3,.cls-32,.cls-33,.cls-34,.cls-35,.cls-36,.cls-37,.cls-39,.cls-4,.cls-40,.cls-41,.cls-42,.cls-43,.cls-44,.cls-45,.cls-46,.cls-47,.cls-5,.cls-6,.cls-7,.cls-8,.cls-9{stroke-linejoin:round;}.cls-17,.cls-2,.cls-7{stroke-width:0.8px;}.cls-3{fill:#797979;}.cls-10,.cls-3,.cls-4,.cls-5,.cls-6,.cls-8,.cls-9{stroke-width:0.19px;}.cls-4{fill:#96abaa;}.cls-5{fill:#5a6060;}.cls-6{fill:#323232;}.cls-11,.cls-12,.cls-14,.cls-15,.cls-16,.cls-17,.cls-21,.cls-22,.cls-23,.cls-24,.cls-29,.cls-32,.cls-33,.cls-34,.cls-35,.cls-36,.cls-37,.cls-39,.cls-40,.cls-41,.cls-42,.cls-43,.cls-44,.cls-45,.cls-46,.cls-47,.cls-7{stroke-linecap:round;}.cls-8{fill:#aaa5b4;}.cls-14,.cls-9{fill:#fff;}.cls-10{fill:#f1f0f0;}.cls-11{stroke-width:0.45px;}.cls-12{stroke-width:0.6px;}.cls-13{clip-path:url(#clip-path);}.cls-14{stroke-width:0.2px;}.cls-15,.cls-16{stroke:#fff;}.cls-15{stroke-width:0.23px;}.cls-16{stroke-width:0.57px;}.cls-17,.cls-21,.cls-22,.cls-23{stroke:#797979;}.cls-18{fill:url(#linear-gradient);}.cls-19{fill:url(#linear-gradient-2);}.cls-20{fill:url(#white_left);}.cls-21{stroke-width:0.12px;}.cls-22,.cls-23,.cls-24,.cls-38{stroke-miterlimit:10;}.cls-22{stroke-width:0.23px;}.cls-23,.cls-24,.cls-29{stroke-width:0.4px;}.cls-24,.cls-29{stroke:#285977;}.cls-25{fill:#003755;}.cls-26{fill:#285977;}.cls-27{fill:#aadcfa;}.cls-28{fill:#000102;}.cls-30{fill:#5a9ab8;}.cls-31{fill:#15689c;}.cls-32,.cls-33,.cls-34,.cls-43,.cls-44,.cls-45,.cls-46,.cls-47{stroke:#6d6d6d;}.cls-32,.cls-33,.cls-34,.cls-35,.cls-36,.cls-37,.cls-38,.cls-39,.cls-40,.cls-41,.cls-42,.cls-43,.cls-44,.cls-45,.cls-46,.cls-47{stroke-width:0.64px;}.cls-32{fill:url(#linear-gradient-3);}.cls-33{fill:url(#linear-gradient-4);}.cls-34{fill:url(#linear-gradient-5);}.cls-35,.cls-36,.cls-37,.cls-39,.cls-40,.cls-41{stroke:#00415f;}.cls-35{fill:url(#linear-gradient-6);}.cls-36{fill:url(#linear-gradient-7);}.cls-37{fill:url(#linear-gradient-8);}.cls-38,.cls-42{stroke:#343434;}.cls-39{fill:url(#linear-gradient-9);}.cls-40{fill:url(#linear-gradient-10);}.cls-41{fill:url(#linear-gradient-11);}.cls-43{fill:url(#linear-gradient-12);}.cls-44{fill:url(#linear-gradient-13);}.cls-45{fill:url(#linear-gradient-14);}.cls-46{fill:url(#linear-gradient-15);}.cls-47{fill:url(#linear-gradient-16);}</style><clipPath id="clip-path"><polygon class="cls-1" points="50.87 34.34 46.23 31.59 46.23 29.63 50.87 27.84 50.87 34.34"/></clipPath><linearGradient id="linear-gradient" x1="13.5" y1="49.18" x2="23.99" y2="57.99" gradientUnits="userSpaceOnUse"><stop offset="0" stop-color="#bebebe"/><stop offset="0.47" stop-color="#8e8e8e"/><stop offset="0.73" stop-color="#797979"/></linearGradient><linearGradient id="linear-gradient-2" x1="4.5" y1="48.95" x2="14.28" y2="55.3" gradientUnits="userSpaceOnUse"><stop offset="0" stop-color="#fff"/><stop offset="0.2" stop-color="#d2d2d2"/><stop offset="0.77" stop-color="gray"/><stop offset="1" stop-color="#797979"/></linearGradient><linearGradient id="white_left" x1="6.12" y1="47.9" x2="24.85" y2="47.9" gradientUnits="userSpaceOnUse"><stop offset="0" stop-color="#f5f5f5"/><stop offset="1" stop-color="#bebebe"/></linearGradient><linearGradient id="linear-gradient-3" x1="16.81" y1="8.46" x2="27.12" y2="17.88" gradientUnits="userSpaceOnUse"><stop offset="0" stop-color="#f0f0f0"/><stop offset="1" stop-color="#b3b3b3"/></linearGradient><linearGradient id="linear-gradient-4" x1="22.09" y1="15.23" x2="39.9" y2="34.76" xlink:href="#linear-gradient-3"/><linearGradient id="linear-gradient-5" x1="8.15" y1="0.18" x2="18.2" y2="18.58" xlink:href="#linear-gradient-3"/><linearGradient id="linear-gradient-6" x1="17.52" y1="8.17" x2="30.31" y2="17.95" gradientUnits="userSpaceOnUse"><stop offset="0" stop-color="#92d5ee"/><stop offset="0.48" stop-color="#599bb4"/><stop offset="1" stop-color="#185971"/></linearGradient><linearGradient id="linear-gradient-7" x1="20.35" y1="9.47" x2="29.26" y2="14.65" xlink:href="#linear-gradient-6"/><linearGradient id="linear-gradient-8" x1="8.7" y1="-1.43" x2="24.82" y2="21.79" xlink:href="#linear-gradient-6"/><linearGradient id="linear-gradient-9" x1="36.72" y1="8.55" x2="44.79" y2="13.93" xlink:href="#linear-gradient-6"/><linearGradient id="linear-gradient-10" x1="37.56" y1="7.74" x2="51.53" y2="16.9" xlink:href="#linear-gradient-6"/><linearGradient id="linear-gradient-11" x1="26.02" y1="-3.23" x2="42.4" y2="20.37" xlink:href="#linear-gradient-6"/><linearGradient id="linear-gradient-12" x1="37.81" y1="18.15" x2="48.62" y2="28.03" xlink:href="#linear-gradient-3"/><linearGradient id="linear-gradient-13" x1="48.6" y1="14.6" x2="43.19" y2="29.3" xlink:href="#linear-gradient-3"/><linearGradient id="linear-gradient-14" x1="42.33" y1="17.87" x2="37.29" y2="26.91" xlink:href="#linear-gradient-3"/><linearGradient id="linear-gradient-15" x1="28.98" y1="9.82" x2="39.12" y2="28.38" xlink:href="#linear-gradient-3"/><linearGradient id="linear-gradient-16" x1="41.16" y1="22.41" x2="60.27" y2="43.35" xlink:href="#linear-gradient-3"/></defs><g id="Layer_14_copy_4" data-name="Layer 14 copy 4"><g id="NEW_POUTRE_OK_copy_9" data-name="NEW POUTRE   OK  ** copy 9"><path id="Contour_" data-name="Contour  *" class="cls-2" d="M59.22,38.92,56,37l3.88-1.5v-.83l-3-2.71V26.52L59,25.65V25l-5.08-2.72-29.22,11h0V34l2.08,1.58v4.31l-2.56,1h0v.82l6.26,5.12h0l12.61-4.92,13.25,7.85.66-.33v-8.8l2.2-.94Z"/><polygon class="cls-3" points="59.87 35.47 30.5 46.84 30.5 45.88 59.86 34.64 59.87 35.47"/><path id="pl" class="cls-4" d="M24.24,40.9s20.38-8,27.71-10.78l4.91,1.81,3,2.71L30.5,45.88Z"/><path id="ar" class="cls-5" d="M56,32.05c-5.5,2.09-29.15,10-29.15,10v-7.3s27.31-10.51,29.14-11Z"/><path id="av" class="cls-6" d="M56.86,31.93,27.7,42.72V35.43C30.21,34.35,55,25.14,56.84,24.63Z"/><polyline class="cls-7" points="27.84 36.42 29.41 37.6 35.7 35 35.71 39.41"/><polygon id="G_" data-name="G **" class="cls-8" points="29.41 37.58 24.72 34.02 24.72 33.24 29.41 36.67 29.41 37.58"/><polygon id="I_" data-name="I  **" class="cls-9" points="27.7 42.72 27.7 36.29 29.41 37.58 29.41 36.67 24.72 33.24 24.72 34.02 26.8 35.6 26.8 42.06 24.24 40.9 24.24 41.72 30.5 46.84 30.5 45.88 27.7 42.72"/><polygon id="Top_surf_Gris_" data-name="Top surf Gris  *" class="cls-10" points="53.94 22.26 24.72 33.24 29.41 36.67 59.02 24.97 53.94 22.26"/><polyline id="GRAS_" data-name="GRAS **" class="cls-11" points="50.18 35.12 50.2 29.18 56.94 26.49"/><polygon class="cls-6" points="40.38 33.11 39.77 33.36 39.77 38.25 42.19 41.38 56.35 49.77 56.35 40.14 42.42 31.48 40.38 32.28 40.38 33.11"/><polygon id="Bord_ht_" data-name="Bord ht **" class="cls-3" points="59.02 25.65 29.41 37.61 29.41 36.67 59.02 24.97 59.02 25.65"/><polygon id="BORD_hT_2" data-name="BORD  hT ***" class="cls-3" points="59.02 25.65 29.41 37.61 29.41 36.67 59.02 24.97 59.02 25.65"/><path id="GRAS_2" data-name="GRAS **" class="cls-12" d="M56.21,41.16l-2.26,1L40.4,33.2l-1.12.44.49-.18v4.76"/><polygon id="bord_Blanc" data-name="bord Blanc" class="cls-9" points="53.95 41.98 40.38 33.12 40.38 32.28 53.95 41.13 53.95 41.98"/><polygon id="T_bout_ok" data-name="T   bout ** ok" class="cls-10" points="59.22 39.69 57.02 40.64 57.02 49.44 56.35 49.77 56.35 40.94 53.95 41.98 53.95 41.13 59.22 38.92 59.22 39.69"/><g id="raidisseur_2_" data-name="raidisseur 2**"><g class="cls-13"><g id="raidisseur_2_2" data-name="raidisseur 2 *"><polygon class="cls-6" points="46.42 30.69 46.42 36.14 48.81 38.85 48.81 29.74 48.25 29.19 48.25 29.96 46.42 30.69"/><polygon class="cls-10" points="50.18 38.33 50.2 29.18 48.81 29.74 48.81 38.85 50.18 38.33"/><polygon class="cls-14" points="48.25 29.19 48.81 29.74 50.2 29.18 49.65 28.65 48.25 29.19"/></g></g></g><polygon id="dessus_" data-name="dessus **" class="cls-10" points="44.92 30.5 40.37 32.28 53.95 41.13 59.23 38.92 44.92 30.5"/><g id="raidisseu_1_" data-name="raidisseu 1 ***"><polygon class="cls-10" points="37.55 34.24 39.09 33.63 39.08 42.55 37.55 43.13 37.55 34.24"/><polygon class="cls-6" points="35.71 34.99 35.71 39.74 37.55 43.13 37.55 34.24 36.95 33.62 36.95 34.48 35.71 34.99"/><polygon class="cls-14" points="36.95 33.62 37.55 34.24 39.09 33.63 38.48 33.02 36.95 33.62"/></g><line id="GRAS_3" data-name="GRAS *" class="cls-11" x1="46.05" y1="31.01" x2="48.13" y2="30.2"/><polyline id="top_Highlight_" data-name="top Highlight **" class="cls-15" points="25.55 33.37 53.91 22.7 57.98 24.88"/><polyline id="highlight_--_Bleue" data-name="highlight   -- Bleue" class="cls-16" points="41.25 32.37 44.83 31.03 58.06 38.85"/></g></g><g id="BETON_copy_3" data-name="BETON copy 3"><g id="beton_copy_3-2" data-name="beton copy 3"><polygon class="cls-17" points="24.84 49.69 18.31 45.93 6.4 46.76 6.41 54.02 12.65 57.81 24.85 56.96 24.84 49.69"/><polygon class="cls-18" points="24.85 49.37 24.85 56.96 12.66 57.81 12.64 50.2 24.85 49.37"/><polygon class="cls-19" points="12.64 50.2 12.66 57.81 6.13 54.04 6.12 46.45 12.64 50.2"/><polygon class="cls-20" points="24.85 49.37 12.64 50.2 6.12 46.45 18.32 45.6 24.85 49.37"/><polygon class="cls-21" points="24.84 49.37 24.85 56.96 12.65 57.81 12.64 50.2 24.84 49.37"/><polygon class="cls-21" points="12.64 50.2 12.65 57.81 6.13 54.04 6.12 46.45 12.64 50.2"/><polygon class="cls-21" points="24.84 49.37 12.64 50.2 6.12 46.45 18.31 45.6 24.84 49.37"/><path class="cls-22" d="M16,54l-.62.75m6.25.9-1.19.47M18.91,52.6l.55-.73M19,54.65l.57-.12m-5.51-2.6,1-.28"/><path class="cls-23" d="M22.74,51.42l.49.63"/><path class="cls-23" d="M8.23,51.62l.19,0M9.55,54l.18,0m1.45-2.3-.39.47m.76,3.2-.11-.31M7.3,49.34l.88-.57"/></g><g id="tige_METAl_copy_5" data-name="tige  METAl copy 5"><path d="M13.83,39.24V49.43c0,.06-.11.11-.31.12a1.9,1.9,0,0,1-.81-.12c-.05,0-.07-.06-.07-.09V39.15Zm1.89-2.34v9.87s0,0,.07.08a1.72,1.72,0,0,0,.81.13c.19,0,.31-.06.31-.12V37Zm-6.83.48v9.7s0,.06.07.08a1.7,1.7,0,0,0,.8.13c.21,0,.32-.06.32-.12V37.28Zm10.56.88v10.6c0,.14.56.21.86.19s.31-.06.33-.12V38.82Z"/><path class="cls-24" d="M9.31,41v5.71m3.92-3.87v6.27m3-10.75v8M20,41v7.56"/><g id="Layer_101_copy_11" data-name="Layer 101 copy 11"><path id="in_" data-name="in **" class="cls-25" d="M21.2,43.23c0-.08-.07-.17-.23-.26l-3.14-1.81a5.53,5.53,0,0,0-2.61-.41l-5.88.41c-.65,0-1,.19-1,.38v.63c0-.19.37-.34,1-.38l5.88-.41a5.52,5.52,0,0,1,2.61.4L21,43.6c.16.09.23.18.23.26Z"/><path class="cls-26" d="M21.75,43.27c0,.24-.48.43-1.31.49l-5.88.41a7.11,7.11,0,0,1-3.35-.52L8.07,41.83c-.2-.11-.3-.23-.3-.33v.63c0,.1.1.22.3.33l3.14,1.82a7.24,7.24,0,0,0,3.35.52l5.88-.41c.83-.06,1.31-.25,1.31-.49Z"/><path id="TOP" class="cls-27" d="M21.45,42.94c.65.37.19.74-1,.82l-5.88.41a7.11,7.11,0,0,1-3.35-.52L8.07,41.83c-.65-.37-.2-.74,1-.82L15,40.6a7.24,7.24,0,0,1,3.35.52ZM14.3,44l5.88-.41c.94-.06,1.29-.35.79-.64l-3.14-1.81a5.53,5.53,0,0,0-2.61-.41l-5.88.41c-.94.06-1.29.35-.79.64l3.14,1.82a5.56,5.56,0,0,0,2.61.4"/></g><g id="Layer_144_copy_4" data-name="Layer 144 copy 4"><path d="M13.83,36.29V43l-1.18-.17V36.2ZM15.72,32V43.6h1.19V32.06ZM8.89,34.05V41.8l1.19.45V34.13Zm10.57.09v8.42l1.19.41V34.22Z"/><path class="cls-24" d="M9.31,36.12V42m3.92-4v5.63m3-10.11v10M20,36.12v7.15"/></g><g id="Layer_101_copy_11-2" data-name="Layer 101 copy 11"><path class="cls-25" d="M21.2,39.13c0-.08-.07-.17-.23-.26l-3.14-1.82a5.5,5.5,0,0,0-2.6-.4l-5.89.41c-.64,0-1,.19-1,.38v.63c0-.19.37-.34,1-.39l5.89-.4a5.5,5.5,0,0,1,2.6.4L21,39.5c.16.09.23.18.23.26Z"/><path class="cls-26" d="M21.75,39.17c0,.24-.47.43-1.3.49l-5.89.41a7.24,7.24,0,0,1-3.35-.52L8.06,37.73c-.19-.11-.29-.23-.29-.33V38c0,.1.1.22.29.33l3.15,1.82a7.24,7.24,0,0,0,3.35.52l5.89-.41c.83-.06,1.3-.25,1.3-.49Z"/><path class="cls-27" d="M21.46,38.84c.64.37.18.74-1,.82l-5.89.41a7.24,7.24,0,0,1-3.35-.52L8.06,37.73c-.64-.37-.18-.74,1-.82L15,36.5a7.09,7.09,0,0,1,3.34.52ZM14.3,39.92l5.89-.41c.93-.06,1.29-.35.78-.64l-3.14-1.82a5.5,5.5,0,0,0-2.6-.4l-5.89.41c-.93.06-1.29.35-.79.64l3.15,1.81a5.49,5.49,0,0,0,2.6.41"/></g><g id="Layer_144_copy_4-2" data-name="Layer 144 copy 4"><path d="M13.83,32.26v7.39l-1.18-.09V32.17Zm1.89-4.32V38.53l1.19.09V28ZM8.89,33.21v4.58l1.19.27V33.3Zm10.57-3.1v9.06l1.19.24V30.18Z"/><path class="cls-24" d="M9.31,32v5.85m3.92-4V39.5m3-10.11v10M20,32v7.15"/></g><g id="Layer_101_copy_11-3" data-name="Layer 101 copy 11"><path class="cls-25" d="M21.2,35c0-.09-.07-.18-.23-.26L17.83,33a5.63,5.63,0,0,0-2.61-.41L9.34,33c-.64,0-1,.2-1,.38V34c0-.18.37-.33,1-.38l5.88-.41a5.63,5.63,0,0,1,2.61.41L21,35.39c.16.09.23.18.23.26Z"/><path id="eX" class="cls-26" d="M21.75,35.07c0,.23-.48.43-1.31.49L14.56,36a7.1,7.1,0,0,1-3.35-.53L8.06,33.63c-.19-.11-.29-.23-.29-.33v.62c0,.11.1.22.29.34l3.15,1.81a7.11,7.11,0,0,0,3.35.52l5.88-.4c.84-.06,1.31-.26,1.31-.5Z"/><path class="cls-27" d="M21.46,34.73c.64.37.18.74-1,.83L14.56,36a7.1,7.1,0,0,1-3.35-.53L8.06,33.63c-.64-.37-.18-.74,1-.83L15,32.39a7.1,7.1,0,0,1,3.35.53ZM14.3,35.82l5.88-.41c.94-.07,1.3-.35.79-.64L17.83,33a5.63,5.63,0,0,0-2.61-.41L9.34,33c-.93.07-1.29.36-.79.65l3.15,1.81a5.61,5.61,0,0,0,2.6.41"/></g><g id="Layer_142_copy_4" data-name="Layer 142 copy 4"><path class="cls-28" d="M13.83,28.1v7.39l-1.18-.09V28Zm1.89-4.32V34.37l1.19.09V23.87ZM8.89,25.85v7.76l1.19.33v-8Zm10.57.1V35l1.19.24V26Z"/><path class="cls-24" d="M9.31,28v5.79m3.92-4v5.63m3-10.11v10M20,28V35.1"/></g><g id="Layer_101_copy_11-4" data-name="Layer 101 copy 11"><path class="cls-25" d="M21.19,30.92c0-.08-.08-.17-.23-.26l-3.15-1.81a5.51,5.51,0,0,0-2.61-.41l-5.87.41c-.65,0-1,.2-1,.38v.63c0-.19.37-.34,1-.38l5.87-.41a5.52,5.52,0,0,1,2.61.4L21,31.29c.15.09.23.18.23.26Z"/><path class="cls-26" d="M21.73,31c0,.24-.47.44-1.31.49l-5.87.41a7.16,7.16,0,0,1-3.36-.52L8.05,29.53c-.2-.12-.29-.23-.29-.34v.63c0,.1.09.22.29.33L11.19,32a7.28,7.28,0,0,0,3.36.52l5.87-.41c.84-.06,1.32-.25,1.31-.49Z"/><path class="cls-27" d="M21.44,30.63c.65.37.19.74-1,.82l-5.87.41a7.16,7.16,0,0,1-3.36-.52L8.05,29.53c-.65-.38-.19-.75,1-.83l5.87-.41a7.28,7.28,0,0,1,3.36.52Zm-7.15,1.08,5.87-.41c.94-.06,1.3-.35.8-.64l-3.15-1.81a5.51,5.51,0,0,0-2.61-.41l-5.87.41c-.94.06-1.29.35-.79.64l3.14,1.82a5.52,5.52,0,0,0,2.61.4"/></g><g id="Layer_142_copy_4-2" data-name="Layer 142 copy 4"><path d="M13.83,27v4.39l-1.18-.09V26.93Zm1.89-4.32v7.59l1.19.09V22.79ZM8.89,24.77v4.77l1.19.46V24.86Zm10.57.1v6.06l1.19.24V24.94Z"/><path class="cls-29" d="M9.31,25.51V29.7m3.92-1.95V31.4m3-8.13v7M20,25.91V31"/></g><g id="dessuzs_tiges" data-name="dessuzs tiges"><path class="cls-30" d="M13.76,27c.15.08.05.17-.25.19a1.67,1.67,0,0,1-.79-.12c-.16-.09-.05-.18.23-.2A1.72,1.72,0,0,1,13.76,27Z"/><path class="cls-30" d="M16.84,22.76c.16.09,0,.18-.24.2a1.73,1.73,0,0,1-.81-.12c-.15-.09,0-.18.25-.2A1.73,1.73,0,0,1,16.84,22.76Z"/><path class="cls-30" d="M10,24.84c.15.09,0,.18-.25.2a1.72,1.72,0,0,1-.8-.13c-.15-.09,0-.18.24-.2A1.72,1.72,0,0,1,10,24.84Z"/><ellipse class="cls-30" cx="20.05" cy="24.96" rx="0.16" ry="0.6" transform="translate(-6.42 42.96) rotate(-85.43)"/></g></g></g><g id="Layer_15_copy_2" data-name="Layer 15 copy 2"><g id="link_ok_copy" data-name="link ok copy"><polygon class="cls-31" points="31 22 31 14 33 14 33 13 28 13 28.02 14 30 14 30 23 33 23 33 22 31 22"/></g><g id="Layer_45_copy" data-name="Layer 45 copy"><polygon class="cls-32" points="13.49 9.99 17.67 7.27 21.49 8.16 17.01 10.89 13.49 9.99"/><polygon class="cls-33" points="21 15.99 25.45 12.85 25.45 17.05 21 20.11 21 15.99"/><polygon class="cls-34" points="17.01 10.89 17.01 14.98 21 15.99 21 20.11 13.49 17.66 13.49 9.99 17.01 10.89"/><polygon class="cls-35" points="21 11.85 25.45 9.07 25.45 12.85 21 15.99 21 11.85"/><polygon class="cls-36" points="17.01 10.89 21.49 8.16 25.45 9.07 21 11.85 17.01 10.89"/><polygon class="cls-37" points="21 11.85 21 15.99 17.01 14.98 17.01 10.89 21 11.85"/><polygon class="cls-38" points="17.67 7.27 13.49 9.99 13.49 17.66 21 20.11 25.45 17.05 25.45 13.16 25.45 9.07 17.67 7.27"/></g><g id="EL_2_ok" data-name="EL 2 ok"><polygon class="cls-39" points="38.42 10.26 42.42 7.49 42.42 11.48 38.42 14.54 38.42 10.26"/><polygon class="cls-40" points="34.56 9.22 39.11 6.58 42.42 7.49 38.42 10.26 34.56 9.22"/><polygon class="cls-41" points="38.42 10.26 38.42 14.54 34.56 13.44 34.56 9.22 38.42 10.26"/><polygon class="cls-42" points="39.11 6.58 34.56 9.22 34.56 13.44 38.42 14.54 38.42 14.54 38.42 14.54 38.42 14.54 38.42 14.54 42.42 11.48 42.42 7.49 42.42 7.49 39.11 6.58"/></g><g id="EL_01_ok" data-name="EL  01  ok"><polygon class="cls-43" points="34.37 19.71 38.99 17.03 42.67 17.89 38.26 20.65 34.37 19.71"/><polygon class="cls-44" points="42.11 25.83 46.53 22.74 46.53 26.64 42.11 29.83 42.11 25.83"/><polygon class="cls-45" points="38.26 20.65 42.67 17.89 42.67 21.78 38.26 24.79 38.26 20.65"/><polygon class="cls-46" points="38.26 20.65 38.26 24.8 42.11 25.83 42.11 29.83 34.37 27.72 34.37 19.71 38.26 20.65"/><polygon class="cls-47" points="42.67 21.78 46.53 22.74 42.11 25.83 38.26 24.8 42.67 21.78"/><polygon class="cls-42" points="42.67 21.78 42.67 17.89 42.67 17.89 38.99 17.03 34.37 19.71 34.37 27.72 42.11 29.83 42.11 29.83 42.11 29.83 42.11 29.83 42.11 29.83 46.53 26.59 46.53 22.74 42.67 21.78"/></g></g></svg>