<svg xmlns="http://www.w3.org/2000/svg" viewBox="0 0 64 64"><defs><style>.cls-1{isolation:isolate;}.cls-2{mix-blend-mode:hard-light;}.cls-10,.cls-3{fill:#aadcfa;}.cls-3,.cls-8,.cls-9{fill-rule:evenodd;}.cls-13,.cls-4,.cls-5,.cls-8{fill:#fff;}.cls-14,.cls-15,.cls-4,.cls-6{stroke:#fff;}.cls-4{stroke-miterlimit:10;}.cls-14,.cls-15,.cls-4{stroke-width:0.75px;}.cls-6,.cls-7{fill:none;}.cls-13,.cls-6,.cls-7{stroke-linecap:round;}.cls-6{stroke-width:4px;}.cls-13,.cls-7,.cls-9{stroke:#003755;}.cls-13,.cls-7{stroke-width:3px;}.cls-12,.cls-9{fill:#5a9ab8;}.cls-9{stroke-width:2px;}.cls-11{fill:#285977;}.cls-14,.cls-16{fill:#003755;}.cls-15,.cls-17{fill:#82bddb;}</style></defs><g class="cls-1"><g id="V_ok_BIS" data-name="V ok BIS"><g id="LIGHT_OK_copy" data-name="LIGHT OK  *** copy"><g class="cls-2"><path class="cls-3" d="M56.88,31.76l-7-2.66a.62.62,0,0,0-.82.27.61.61,0,0,0,.27.83l6.18,4.22a1.49,1.49,0,1,0,1.36-2.66Z"/><path class="cls-3" d="M56.73,19.24l-7.33.92a.62.62,0,0,0,0,1.23l7.34.85a1.5,1.5,0,0,0,0-3Z"/><path class="cls-3" d="M55.08,6.24l-5.47,5.31a.62.62,0,0,0-.1.87.6.6,0,0,0,.85.1L56.9,8.61a1.49,1.49,0,1,0-1.82-2.37Z"/></g><g class="cls-2"><path class="cls-3" d="M7.11,31.76l7-2.66a.62.62,0,1,1,.56,1.1L8.48,34.42a1.5,1.5,0,1,1-1.37-2.66Z"/><path class="cls-3" d="M7.27,19.24l7.33.92a.62.62,0,0,1,0,1.23l-7.33.85a1.5,1.5,0,0,1,0-3Z"/><path class="cls-3" d="M8.88,6.25,14.4,11.5a.61.61,0,1,1-.73,1L7.08,8.64a1.5,1.5,0,1,1,1.8-2.39Z"/></g></g><g id="Copyright_Propriété_intellectuelle_copy_2" data-name="Copyright  Propriété intellectuelle copy 2"><g id="_" data-name="©**"><path id="Fonnd_Blanc_C" data-name="Fonnd Blanc C" class="cls-4" d="M51.23,48.1c4.42,1.35,6.29,2.9,5.65,4.65s-3.63,3.19-9,4.32a79.33,79.33,0,0,1-18.26,1.48,63.58,63.58,0,0,1-16.9-2.25q-6.6-2-5.64-4.64t9-4.33a79.37,79.37,0,0,1,18.27-1.48A63.55,63.55,0,0,1,51.23,48.1Z"/><path d="M51.23,48.1c4.42,1.35,6.29,2.9,5.65,4.65s-3.63,3.19-9,4.32a79.33,79.33,0,0,1-18.26,1.48,63.58,63.58,0,0,1-16.9-2.25q-6.6-2-5.64-4.64t9-4.33a79.37,79.37,0,0,1,18.27-1.48A63.55,63.55,0,0,1,51.23,48.1Zm-6.11,7.38c4.4-.88,6.85-2,7.39-3.32s-1-2.54-4.64-3.57a55.58,55.58,0,0,0-13.93-1.74A70.91,70.91,0,0,0,18.87,48q-6.59,1.32-7.39,3.33t4.64,3.57a55.72,55.72,0,0,0,13.94,1.73,69.53,69.53,0,0,0,15.06-1.14"/><path d="M34,48.56c1.62,0,3.2.06,4.73.17s2.84.23,3.93.35l-.44,1.18h-.44c-.92-.18-2.12-.34-3.61-.5a46.37,46.37,0,0,0-4.67-.25,28.24,28.24,0,0,0-6.28.54q-2.39.56-2.79,1.62c-.25.7.24,1.23,1.51,1.62a22.54,22.54,0,0,0,5.94.59c1.51,0,3-.06,4.49-.18s2.92-.29,4.31-.51h.44l-.43,1.17c-1.63.16-3.19.29-4.68.36s-2.93.12-4.36.12A43.49,43.49,0,0,1,22.09,54c-2.22-.55-3.13-1.33-2.75-2.34s1.88-1.75,4.55-2.3A49.89,49.89,0,0,1,34,48.56Z"/></g></g><g id="Ampoule_Intelligence_OK_copy" data-name="Ampoule Intelligence OK  *** copy"><g id="Connaissaznce"><path class="cls-5" d="M24,43.48H40m-16-5H40m-16-5H40"/><path class="cls-6" d="M24,43.48H40m-16-5H40m-16-5H40"/><path class="cls-7" d="M24,43.48H40m-16-5H40m-16-5H40"/><g id="BLANC_ok" data-name="BLANC ok"><path class="cls-8" d="M32,50.25c-3,0-7.25-1.87-7.25-5.25V31.35h14.5V45C39.25,48.38,35,50.25,32,50.25Z"/><path class="cls-5" d="M38,32.6V45c0,2.46-3.53,4-6,4s-6-1.54-6-4V32.6H38m2.5-2.5h-17V45c0,4.24,4.94,6.5,8.5,6.5s8.5-2.26,8.5-6.5V30.1Z"/></g><path class="cls-9" d="M38,45c0,2.46-3.53,4-6,4s-6-1.54-6-4V43H38Z"/><path class="cls-5" d="M32.17,36C24.9,36,19.05,27,19.05,19.64a13.12,13.12,0,1,1,26.24,0C45.29,27,39.44,36,32.17,36Z"/><path class="cls-10" d="M32.17,7.27A12.37,12.37,0,0,1,44.54,19.64c0,6.83-5.54,15.57-12.37,15.57S19.8,26.47,19.8,19.64A12.37,12.37,0,0,1,32.17,7.27m0-1.5A13.88,13.88,0,0,0,18.3,19.64c0,7.73,6.19,17.07,13.87,17.07S46,27.37,46,19.64A13.88,13.88,0,0,0,32.17,5.77Z"/><path class="cls-11" d="M32.17,7.27A12.37,12.37,0,0,1,44.54,19.64c0,6.83-5.54,15.57-12.37,15.57S19.8,26.47,19.8,19.64A12.37,12.37,0,0,1,32.17,7.27m0-.75A13.13,13.13,0,0,0,19.05,19.64C19.05,27,24.9,36,32.17,36S45.29,27,45.29,19.64A13.13,13.13,0,0,0,32.17,6.52Z"/><rect class="cls-12" x="24" y="33" width="16" height="11"/><path class="cls-3" d="M31,47s-4-1.17-4-4V33h3V44A5.72,5.72,0,0,0,31,47Z"/><path class="cls-13" d="M24,43.48H40m-16-5H40m-16-5H40"/></g></g><g id="OK_01_copy" data-name="OK *** 01 copy"><g id="Connaissance_cerveau" data-name="Connaissance cerveau"><path class="cls-14" d="M36.55,22l-.93-.93-.59.59-.59.59-1.19,1.19-1.18,1.18.93.93a1,1,0,0,0,.31.22l1.08-1.08,1.23-1.23.61-.61h0l.61-.61A2.17,2.17,0,0,1,36.55,22Z"/><path class="cls-15" d="M35.37,14.21l-.93.93.59.59h0l.59.59,1.2,1.19c.44.45.84.85,1.18,1.18l.93-.93a1,1,0,0,0,.22-.31l-1.09-1.08-1.22-1.23-.61-.61h0l-.61-.61A2.26,2.26,0,0,1,35.37,14.21Z"/><path class="cls-14" d="M27.69,19.5l-.37.37,1.2,1.2.37-.37a.84.84,0,0,1,1.19,0,.83.83,0,0,1,0,1.18h0l-.37.36-.93.94a2.09,2.09,0,0,0-.24.28,2.55,2.55,0,0,0,.24,3.3,2.5,2.5,0,0,0,3.31.21l-.27-.22-1-1a.71.71,0,0,1-.87-.2.75.75,0,0,1-.22-.89,1,1,0,0,1,.22-.31l.93-.93.37-.37a2.52,2.52,0,1,0-3.57-3.57Z"/><path class="cls-14" d="M36.84,15.14l1.22,1.23a.78.78,0,0,1,.88.21.77.77,0,0,1,.21.87,1,1,0,0,1-.22.31l-.93.93-1.18,1.18.93.93a1,1,0,0,0,.31.22l1.09-1.09,1-1a2.76,2.76,0,0,0,.23-.27,2.53,2.53,0,0,0-.23-3.32A2.49,2.49,0,0,0,36.84,15.14Z"/><path class="cls-15" d="M25.21,19.62a1.19,1.19,0,0,0-.22.31L26.07,21l1.23,1.22.61.61h0l.61.61a2.09,2.09,0,0,1,.24-.28l.93-.94-.58-.58-.59-.59-1.2-1.2-1.18-1.18Z"/><path class="cls-15" d="M40.12,19l-1,1a.71.71,0,0,1-.21.87.73.73,0,0,1-.88.22,1,1,0,0,1-.31-.22l-.93-.93-.37-.37a2.52,2.52,0,1,0-3.57,3.57l.37.37,1.19-1.19-.37-.37a.85.85,0,0,1,0-1.2.82.82,0,0,1,1.17,0h0l.37.37.93.93a2.17,2.17,0,0,0,.29.24,2.54,2.54,0,0,0,3.3-.24,2.51,2.51,0,0,0,.21-3.31A2.76,2.76,0,0,1,40.12,19Z"/><path class="cls-15" d="M34.39,24.69a.78.78,0,0,1-.21.88.76.76,0,0,1-.87.2,1,1,0,0,1-.31-.22l-.93-.93-1.18-1.18-.93.93a1,1,0,0,0-.22.31l1.09,1.09,1,1,.27.22a2.54,2.54,0,0,0,3.32-.22,2.51,2.51,0,0,0,.23-3.29Z"/><path class="cls-14" d="M26.39,16.58a1,1,0,0,0-.31-.22L25,17.45l-1,1a1.86,1.86,0,0,0-.23.26A2.53,2.53,0,0,0,24,22a2.47,2.47,0,0,0,3.28.23L26.07,21a.77.77,0,0,1-.87-.22.75.75,0,0,1-.21-.87,1.19,1.19,0,0,1,.22-.31l.93-.93,1.18-1.18Z"/><path class="cls-15" d="M32.07,10.41a2.53,2.53,0,0,0-3.32.23,2.47,2.47,0,0,0-.23,3.28l1.22-1.22a.79.79,0,0,1,.22-.88.77.77,0,0,1,.87-.21,1,1,0,0,1,.31.22l.93.93,1.18,1.18.93-.93a1,1,0,0,0,.22-.31l-1.09-1.09-1-1A2.76,2.76,0,0,0,32.07,10.41Z"/><path class="cls-14" d="M32.07,10.41a2.76,2.76,0,0,1,.27.23l1,1a.72.72,0,0,1,.87.21.75.75,0,0,1,.22.88,1,1,0,0,1-.22.31l-.93.93-.37.37a2.52,2.52,0,1,0,3.57,3.57l.37-.37-1.2-1.19-.37.37a.84.84,0,0,1-1.19,0,.82.82,0,0,1,0-1.17h0l.37-.37.93-.93a2.26,2.26,0,0,0,.25-.29,2.54,2.54,0,0,0-.25-3.3A2.49,2.49,0,0,0,32.07,10.41Z"/><path class="cls-15" d="M29.7,15.14l.36.37a.84.84,0,0,1,0,1.19.82.82,0,0,1-1.17,0h0l-.37-.37-.93-.93-.29-.25a2.54,2.54,0,0,0-3.3.25,2.49,2.49,0,0,0-.21,3.3,1.86,1.86,0,0,1,.23-.26l1-1a.72.72,0,0,1,.2-.87.77.77,0,0,1,.89-.22,1,1,0,0,1,.31.22l.93.93.37.37a2.52,2.52,0,1,0,3.57-3.57l-.37-.37Z"/><path class="cls-14" d="M30.83,11.61,29.74,12.7l-1.22,1.22-.61.61h0l-.61.61.29.25.93.93.59-.59h0l.59-.59,1.19-1.2,1.18-1.18-.93-.93A1,1,0,0,0,30.83,11.61Z"/></g></g><g id="Filament_copy" data-name="Filament ** copy"><polygon id="A_ok_" data-name="A ok  **" class="cls-16" points="30.41 27.8 30.41 31.33 29.31 31.33 29.31 27.44 30.41 27.8"/><polygon id="B_ok_" data-name="B ok  **" class="cls-17" points="34.76 27.44 34.76 31.33 33.7 31.33 33.7 27.8 34.76 27.44"/></g></g></g></svg>