<svg xmlns="http://www.w3.org/2000/svg" xmlns:xlink="http://www.w3.org/1999/xlink" viewBox="0 0 64 64"><defs><style>.cls-1{fill:url(#linear-gradient);}.cls-2{fill:url(#linear-gradient-2);}.cls-3{fill:url(#linear-gradient-3);}.cls-4{fill:url(#linear-gradient-4);}.DARK-GREY-Fill-9{fill:url(#linear-gradient-5);}.De-emphasized-WHITE-for-Vector-Highlights-5,.cls-5{fill:#fff;stroke:#fff;}.De-emphasized-WHITE-for-Vector-Highlights-5,.cls-10,.cls-16,.cls-5,.cls-6,.cls-7,.cls-8,.cls-9{stroke-linejoin:round;}.cls-5{stroke-width:2.73px;}.De-emphasized-GREY-Fill-3,.De-emphasized-WHITE-for-Vector-Highlights-5,.cls-5{opacity:0.5;}.cls-10,.cls-6,.cls-7,.cls-9{stroke:#807c7b;}.cls-10,.cls-6,.cls-7,.cls-8,.cls-9{stroke-width:0.91px;}.cls-6{fill:url(#linear-gradient-6);}.De-emphasized-GREY-Fill-3{fill:#6b6766;}.cls-7{fill:url(#linear-gradient-7);}.cls-16,.cls-8{fill:none;}.cls-8{stroke:#3a3634;}.cls-9{fill:url(#linear-gradient-8);}.cls-10{fill:url(#linear-gradient-9);}.cls-11{fill:url(#linear-gradient-10);}.cls-12{fill:url(#linear-gradient-11);}.De-emphasized-WHITE-for-Vector-Highlights-5{stroke-width:3px;}.cls-13{fill:url(#linear-gradient-12);}.cls-14{fill:url(#linear-gradient-13);}.DARK-GREY-Fill-22{fill:url(#linear-gradient-14);}.cls-15{fill:url(#linear-gradient-15);}.DARK-GREY-Fill-21{fill:url(#linear-gradient-16);}.cls-16{stroke:#113553;stroke-width:1.39px;}</style><linearGradient id="linear-gradient" x1="7.76" y1="30.52" x2="19.54" y2="50.93" gradientUnits="userSpaceOnUse"><stop offset="0" stop-color="#2f85b1"/><stop offset="1" stop-color="#285677"/></linearGradient><linearGradient id="linear-gradient-2" x1="18.67" y1="23.08" x2="32.62" y2="47.24" xlink:href="#linear-gradient"/><linearGradient id="linear-gradient-3" x1="32.19" y1="25.2" x2="43.1" y2="44.11" xlink:href="#linear-gradient"/><linearGradient id="linear-gradient-4" x1="41.81" y1="11.47" x2="57.49" y2="38.63" xlink:href="#linear-gradient"/><linearGradient id="linear-gradient-5" x1="6.98" y1="48.07" x2="57.73" y2="48.07" gradientTransform="translate(-13.34 11.51) rotate(-17.15)" gradientUnits="userSpaceOnUse"><stop offset="0" stop-color="#4e4a48"/><stop offset="1" stop-color="#201d1a"/></linearGradient><linearGradient id="linear-gradient-6" x1="20.14" y1="26.6" x2="34.44" y2="51.35" gradientUnits="userSpaceOnUse"><stop offset="0" stop-color="#fafafb"/><stop offset="1" stop-color="#c9c6c5"/></linearGradient><linearGradient id="linear-gradient-7" x1="22.03" y1="27.48" x2="36.16" y2="51.96" xlink:href="#linear-gradient-6"/><linearGradient id="linear-gradient-8" x1="23.95" y1="30.81" x2="34.24" y2="48.63" xlink:href="#linear-gradient-6"/><linearGradient id="linear-gradient-9" x1="25.32" y1="33.17" x2="32.87" y2="46.27" xlink:href="#linear-gradient-6"/><linearGradient id="linear-gradient-10" x1="26.68" y1="35.54" x2="31.51" y2="43.9" xlink:href="#linear-gradient"/><linearGradient id="linear-gradient-11" x1="27.82" y1="37.51" x2="30.37" y2="41.93" gradientUnits="userSpaceOnUse"><stop offset="0" stop-color="#fff"/><stop offset="1" stop-color="#f6f6f7"/></linearGradient><linearGradient id="linear-gradient-12" x1="37.58" y1="6.61" x2="39.27" y2="9.54" gradientTransform="translate(-8.41 25.88) scale(1.58 1.84)" xlink:href="#linear-gradient-11"/><linearGradient id="linear-gradient-13" x1="37.49" y1="13.42" x2="39.18" y2="16.36" gradientTransform="translate(-17.26 22.1) scale(1.58 1.84)" xlink:href="#linear-gradient-11"/><linearGradient id="linear-gradient-14" x1="39.52" y1="51.29" x2="43.57" y2="51.29" gradientTransform="matrix(1, 0, 0, 1, 0, 0)" xlink:href="#linear-gradient-5"/><linearGradient id="linear-gradient-15" x1="45.4" y1="42.02" x2="49.47" y2="49.07" gradientUnits="userSpaceOnUse"><stop offset="0" stop-color="#91c3e2"/><stop offset="1" stop-color="#285677"/></linearGradient><linearGradient id="linear-gradient-16" x1="49.8" y1="40.28" x2="55.25" y2="40.28" gradientTransform="matrix(1, 0, 0, 1, 0, 0)" xlink:href="#linear-gradient-5"/></defs><g id="Calque_7" data-name="Calque 7"><path class="cls-1" d="M18,51.81l-8,2V30.39a2,2,0,0,1,1.53-2l4-1a2,2,0,0,1,2.51,2Z"/><path class="cls-2" d="M30,48.75l-8,2V22.33a2,2,0,0,1,1.53-2l4-1a2,2,0,0,1,2.51,2Z"/><path class="cls-3" d="M42,44.75l-8,2V25.33a2,2,0,0,1,1.53-2l4-1a2,2,0,0,1,2.51,2Z"/><path class="cls-4" d="M54,40.64l-8,2V10.22a2,2,0,0,1,1.53-2l4-1a2,2,0,0,1,2.51,2Z"/><polygon class="DARK-GREY-Fill-9" points="8 52.95 55.35 38.34 55.53 42.84 8 57 8 52.95"/></g><g id="it5"><path class="cls-5" d="M43.16,38.42c0-.13,0-.26,0-.39,0-.31-.09-.62-.14-.92,0-.13,0-.26-.08-.38-.08-.39-.18-.78-.29-1.15,0,0,0,0,0-.07-.12-.4-.27-.78-.42-1.16L42,34c-.12-.27-.25-.53-.38-.78s-.13-.25-.19-.37c-.17-.3-.35-.6-.54-.88l-.1-.17c-.22-.32-.46-.64-.71-.94l-.28-.33c-.17-.2-.35-.4-.54-.59L39,29.6,38.28,29,38,28.76c-.29-.23-.59-.45-.89-.66l-.4-.27-.65-.39-.44-.24-.76-.37-.34-.15a13.73,13.73,0,0,0-2.29-1.09l-.36-.13c-.21-.08-.43-.14-.64-.21l-.77-.19a5.05,5.05,0,0,0-.56-.12c-.32-.06-.64-.11-1-.15l-.38,0c-.42,0-.85-.06-1.28-.06A14.29,14.29,0,0,0,13,39c0,.46,0,.91.07,1.36,0,.15,0,.29.06.44s.08.59.13.88.07.34.11.51.13.52.2.77.11.36.16.53.17.47.26.7l.21.54c.1.21.2.42.31.63s.17.36.27.54l.22.36a13.07,13.07,0,0,0,.9,1.34l.21.29c.19.23.38.45.58.67l.22.24c.22.23.44.44.66.65l.19.17c.25.23.51.45.77.65l.07,0a14.19,14.19,0,0,0,5.21,2.52,13.65,13.65,0,0,0,2.55.76l.22,0c.37.06.74.12,1.11.16a13.13,13.13,0,0,0,1.4.07A14.14,14.14,0,0,0,43.23,39.72C43.23,39.28,43.2,38.85,43.16,38.42Z"/><circle class="cls-6" cx="27.29" cy="38.98" r="14.29"/><circle class="De-emphasized-GREY-Fill-3" cx="27.29" cy="38.98" r="14.29"/><circle class="cls-7" cx="29.09" cy="39.72" r="14.13"/><path class="cls-8" d="M34.54,26.68A14.28,14.28,0,1,0,23.81,52.82,14.13,14.13,0,0,0,34.54,26.68Z"/><circle class="cls-9" cx="29.09" cy="39.72" r="10.29"/><circle class="cls-10" cx="29.09" cy="39.72" r="7.56"/><circle class="cls-11" cx="29.09" cy="39.72" r="4.83"/><circle class="cls-12" cx="29.09" cy="39.72" r="2.55"/><path class="De-emphasized-WHITE-for-Vector-Highlights-5" d="M55.23,41.22a2.53,2.53,0,0,0,.12-.23,2.8,2.8,0,0,0,.22-1.12,3,3,0,0,0-.23-1.15,3.32,3.32,0,0,0-.63-.93,2.88,2.88,0,0,0-4.1,0L50,38.4a.51.51,0,0,0-.13.14l-8.28,8.3,0,0,0,0-.73.73-.29,1-.45.44.24.24-1.36,4.36,1.41-.43,3.23-.56-.31-.33.05,0,.49.49.91-.91.23-.07.78-.79.09.09-.05-.13.08-.08c0,.1.09.19.13.26l6.41-6.81.38-.38,0,0,1.35-1.35a2.45,2.45,0,0,1,0,.46c0,.3.47-.67.72-1.22l.47-.46Z"/><rect class="cls-13" x="49.56" y="38.95" width="5.3" height="3.64" transform="translate(44.12 -24.97) rotate(45)"/><rect class="cls-14" x="40.56" y="47.74" width="5.3" height="3.64" transform="translate(47.7 -16.04) rotate(45)"/><polygon class="DARK-GREY-Fill-22" points="43.56 52.58 39.52 53.28 40.59 49.31 43.56 52.58"/><path class="cls-15" d="M41.75,47.14a27.81,27.81,0,0,1,3,1.39A18.57,18.57,0,0,1,46,51.09l7-7.41a14.43,14.43,0,0,0-1.84-2.08,14.86,14.86,0,0,0-2.48-1.44Z"/><path class="DARK-GREY-Fill-21" d="M49.86,38.61c-.37,0,1-.79,1.34-.93a3.05,3.05,0,0,1,2.25,0A2.92,2.92,0,0,1,55,39.26a2.9,2.9,0,0,1,.23,1.14A2.8,2.8,0,0,1,55,41.52c-.14.36-.86,1.88-.85,1.52C54.23,41.28,51.89,38.72,49.86,38.61Z"/><path class="cls-16" d="M52.63,36.93a3,3,0,0,1,2.08.86,3.32,3.32,0,0,1,.63.93,3,3,0,0,1,.23,1.15A2.8,2.8,0,0,1,55.35,41a2.71,2.71,0,0,1-.6.92l-9.81,9.83-6,1.83,1.86-6,9.82-9.83a2.85,2.85,0,0,1,.91-.61A2.89,2.89,0,0,1,52.63,36.93Zm.48,6.64-.79-1.14a4.73,4.73,0,0,0-.92-1.3,4.65,4.65,0,0,0-1.3-.94l-1-.57"/><path class="cls-16" d="M52.63,36.93a3,3,0,0,1,2.08.86,3.32,3.32,0,0,1,.63.93,3,3,0,0,1,.23,1.15A2.8,2.8,0,0,1,55.35,41a2.71,2.71,0,0,1-.6.92l-9.81,9.83-6,1.83,1.86-6,9.82-9.83a2.85,2.85,0,0,1,.91-.61A2.89,2.89,0,0,1,52.63,36.93ZM41.49,46.82l1.58.4a5.45,5.45,0,0,1,1.29.91,5.19,5.19,0,0,1,.93,1.33L45.81,51"/></g></svg>