<svg xmlns="http://www.w3.org/2000/svg" xmlns:xlink="http://www.w3.org/1999/xlink" viewBox="0 0 64 64"><defs><style>.cls-1{fill:url(#linear-gradient);}.cls-2{fill:url(#linear-gradient-2);}.cls-3{fill:url(#linear-gradient-3);}.cls-4{fill:url(#linear-gradient-4);}.DARK-GREY-Fill-11{fill:url(#linear-gradient-5);}.De-emphasized-WHITE-for-Vector-Highlights-8,.cls-5{opacity:0.5;}.De-emphasized-WHITE-for-Vector-Highlights-8,.cls-6{fill:#fff;}.OUTLINE-23,.cls-10,.cls-11,.cls-48,.cls-65,.cls-7,.cls-8,.cls-9{fill:none;}.cls-10,.cls-11,.cls-7,.cls-9{stroke-miterlimit:10;}.cls-10,.cls-11,.cls-7,.cls-8,.cls-9{stroke-width:1.91px;}.cls-7{stroke:url(#linear-gradient-6);}.OUTLINE-23,.cls-12,.cls-18,.cls-24,.cls-30,.cls-36,.cls-42,.cls-8{stroke:#3a3634;}.De-emphasized-WHITE-for-Vector-Highlights-8,.OUTLINE-23,.cls-12,.cls-18,.cls-24,.cls-30,.cls-36,.cls-42,.cls-48,.cls-65,.cls-8{stroke-linejoin:round;}.cls-9{stroke:url(#linear-gradient-7);}.cls-10{stroke:url(#linear-gradient-8);}.cls-11{stroke:url(#linear-gradient-9);}.cls-12{stroke-width:0.68px;fill:url(#linear-gradient-10);}.cls-13{fill:url(#linear-gradient-11);}.cls-14{fill:url(#linear-gradient-12);}.cls-15,.cls-21,.cls-27,.cls-33,.cls-39,.cls-45{opacity:0.4;}.cls-15{fill:url(#top_white);}.cls-16,.cls-22,.cls-28,.cls-34,.cls-40,.cls-46{opacity:0.6;}.cls-16{fill:url(#top_white-2);}.cls-17,.cls-23,.cls-29,.cls-35,.cls-41,.cls-47{opacity:0.7;}.cls-17{fill:url(#top_white-3);}.cls-18,.cls-24{stroke-width:0.96px;}.cls-18{fill:url(#linear-gradient-13);}.cls-19{fill:url(#linear-gradient-14);}.cls-20{fill:url(#linear-gradient-15);}.cls-21{fill:url(#top_white-4);}.cls-22{fill:url(#top_white-5);}.cls-23{fill:url(#top_white-6);}.cls-24{fill:url(#linear-gradient-16);}.cls-25{fill:url(#linear-gradient-17);}.cls-26{fill:url(#linear-gradient-18);}.cls-27{fill:url(#top_white-7);}.cls-28{fill:url(#top_white-8);}.cls-29{fill:url(#top_white-9);}.cls-30{stroke-width:1.21px;fill:url(#linear-gradient-19);}.cls-31{fill:url(#linear-gradient-20);}.cls-32{fill:url(#linear-gradient-21);}.cls-33{fill:url(#top_white-10);}.cls-34{fill:url(#top_white-11);}.cls-35{fill:url(#top_white-12);}.cls-36{stroke-width:0.78px;fill:url(#linear-gradient-22);}.cls-37{fill:url(#linear-gradient-23);}.cls-38{fill:url(#linear-gradient-24);}.cls-39{fill:url(#top_white-13);}.cls-40{fill:url(#top_white-14);}.cls-41{fill:url(#top_white-15);}.cls-42{stroke-width:0.73px;fill:url(#linear-gradient-25);}.cls-43{fill:url(#linear-gradient-26);}.cls-44{fill:url(#linear-gradient-27);}.cls-45{fill:url(#top_white-16);}.cls-46{fill:url(#top_white-17);}.cls-47{fill:url(#top_white-18);}.De-emphasized-WHITE-for-Vector-Highlights-8,.cls-48{stroke:#fff;stroke-width:3px;}.cls-49{fill:url(#linear-gradient-32);}.cls-50{fill:url(#linear-gradient-33);}.cls-51{fill:url(#linear-gradient-35);}.cls-52{fill:url(#linear-gradient-36);}.cls-53{fill:url(#linear-gradient-38);}.cls-54{fill:url(#linear-gradient-39);}.cls-55{fill:url(#linear-gradient-41);}.cls-56{fill:url(#linear-gradient-42);}.cls-57{fill:url(#linear-gradient-44);}.cls-58{fill:url(#linear-gradient-45);}.cls-59{fill:url(#linear-gradient-47);}.cls-60{fill:url(#linear-gradient-48);}.cls-61{fill:url(#linear-gradient-50);}.cls-62{fill:url(#linear-gradient-51);}.cls-63{fill:url(#linear-gradient-52);}.DARK-GREY-Fill-21{fill:url(#linear-gradient-53);}.cls-64{fill:url(#linear-gradient-54);}.DARK-GREY-Fill-20{fill:url(#linear-gradient-55);}.cls-65{stroke:#113553;stroke-width:1.39px;}</style><linearGradient id="linear-gradient" x1="7.76" y1="30.52" x2="19.54" y2="50.93" gradientUnits="userSpaceOnUse"><stop offset="0" stop-color="#2f85b1"/><stop offset="1" stop-color="#285677"/></linearGradient><linearGradient id="linear-gradient-2" x1="18.67" y1="23.08" x2="32.62" y2="47.24" xlink:href="#linear-gradient"/><linearGradient id="linear-gradient-3" x1="32.19" y1="25.2" x2="43.1" y2="44.11" xlink:href="#linear-gradient"/><linearGradient id="linear-gradient-4" x1="41.81" y1="11.47" x2="57.49" y2="38.63" xlink:href="#linear-gradient"/><linearGradient id="linear-gradient-5" x1="6.98" y1="48.07" x2="57.73" y2="48.07" gradientTransform="translate(-13.34 11.51) rotate(-17.15)" gradientUnits="userSpaceOnUse"><stop offset="0" stop-color="#4e4a48"/><stop offset="1" stop-color="#201d1a"/></linearGradient><linearGradient id="linear-gradient-6" x1="30.94" y1="34.34" x2="42.52" y2="34.34" gradientTransform="matrix(1, 0, 0, 1, 0, 0)" xlink:href="#linear-gradient-5"/><linearGradient id="linear-gradient-7" x1="17.82" y1="28.52" x2="31.96" y2="28.52" gradientTransform="matrix(1, 0, 0, 1, 0, 0)" xlink:href="#linear-gradient-5"/><linearGradient id="linear-gradient-8" x1="19.82" y1="36.65" x2="31.63" y2="36.65" gradientTransform="matrix(1, 0, 0, 1, 0, 0)" xlink:href="#linear-gradient-5"/><linearGradient id="linear-gradient-9" x1="22.69" y1="22.65" x2="32.27" y2="22.65" gradientTransform="matrix(1, 0, 0, 1, 0, 0)" xlink:href="#linear-gradient-5"/><linearGradient id="linear-gradient-10" x1="17.96" y1="40.54" x2="21.96" y2="47.46" gradientUnits="userSpaceOnUse"><stop offset="0" stop-color="#b4b1b0"/><stop offset="1" stop-color="#615d5c"/></linearGradient><linearGradient id="linear-gradient-11" x1="18.4" y1="41.05" x2="21.34" y2="46.14" gradientUnits="userSpaceOnUse"><stop offset="0" stop-color="#e0dfdf"/><stop offset="1" stop-color="#9f9c9a"/></linearGradient><linearGradient id="linear-gradient-12" x1="18.42" y1="41" x2="20.88" y2="45.25" gradientUnits="userSpaceOnUse"><stop offset="0" stop-color="#fafafb"/><stop offset="1" stop-color="#c9c6c5"/></linearGradient><linearGradient id="top_white" x1="17.66" y1="42.22" x2="22.35" y2="42.22" gradientUnits="userSpaceOnUse"><stop offset="0" stop-color="#fff"/><stop offset="1" stop-color="#f0f0f0"/></linearGradient><linearGradient id="top_white-2" x1="18.62" y1="41.16" x2="21.6" y2="41.16" xlink:href="#top_white"/><linearGradient id="top_white-3" x1="18.51" y1="41.68" x2="21.71" y2="41.68" xlink:href="#top_white"/><linearGradient id="linear-gradient-13" x1="16.72" y1="25.03" x2="20.49" y2="31.55" xlink:href="#linear-gradient-10"/><linearGradient id="linear-gradient-14" x1="17.03" y1="25.77" x2="19.38" y2="29.84" xlink:href="#linear-gradient-11"/><linearGradient id="linear-gradient-15" x1="17.21" y1="25.43" x2="19.29" y2="29.04" xlink:href="#linear-gradient-12"/><linearGradient id="top_white-4" x1="16.28" y1="26.67" x2="20.42" y2="26.67" xlink:href="#top_white"/><linearGradient id="top_white-5" x1="17.2" y1="25.64" x2="20.01" y2="25.64" xlink:href="#top_white"/><linearGradient id="top_white-6" x1="17.19" y1="26.21" x2="19.92" y2="26.21" xlink:href="#top_white"/><linearGradient id="linear-gradient-16" x1="22.54" y1="13.58" x2="25.83" y2="19.29" xlink:href="#linear-gradient-10"/><linearGradient id="linear-gradient-17" x1="22.94" y1="14.06" x2="25.41" y2="18.34" xlink:href="#linear-gradient-11"/><linearGradient id="linear-gradient-18" x1="22.96" y1="14.02" x2="25.04" y2="17.63" xlink:href="#linear-gradient-12"/><linearGradient id="top_white-7" x1="22.42" y1="15.3" x2="26.15" y2="15.3" xlink:href="#top_white"/><linearGradient id="top_white-8" x1="23.06" y1="14.33" x2="25.51" y2="14.33" xlink:href="#top_white"/><linearGradient id="top_white-9" x1="23.09" y1="14.87" x2="25.64" y2="14.87" xlink:href="#top_white"/><linearGradient id="linear-gradient-19" x1="28.77" y1="22.48" x2="36.02" y2="35.03" xlink:href="#linear-gradient-10"/><linearGradient id="linear-gradient-20" x1="29.59" y1="23.15" x2="35.2" y2="32.88" xlink:href="#linear-gradient-11"/><linearGradient id="linear-gradient-21" x1="29.52" y1="23.59" x2="33.97" y2="31.3" xlink:href="#linear-gradient-12"/><linearGradient id="top_white-10" x1="28.15" y1="25.8" x2="36.64" y2="25.8" xlink:href="#top_white"/><linearGradient id="top_white-11" x1="29.88" y1="23.51" x2="35.28" y2="23.51" xlink:href="#top_white"/><linearGradient id="top_white-12" x1="29.68" y1="24.44" x2="35.48" y2="24.44" xlink:href="#top_white"/><linearGradient id="linear-gradient-22" x1="40.86" y1="35.49" x2="44.55" y2="41.9" xlink:href="#linear-gradient-10"/><linearGradient id="linear-gradient-23" x1="41.44" y1="36.21" x2="44.16" y2="40.91" xlink:href="#linear-gradient-11"/><linearGradient id="linear-gradient-24" x1="41.35" y1="36.09" x2="43.62" y2="40.03" xlink:href="#linear-gradient-12"/><linearGradient id="top_white-13" x1="40.54" y1="37.14" x2="44.87" y2="37.14" xlink:href="#top_white"/><linearGradient id="top_white-14" x1="41.42" y1="36.14" x2="44.18" y2="36.14" xlink:href="#top_white"/><linearGradient id="top_white-15" x1="41.32" y1="36.64" x2="44.28" y2="36.64" xlink:href="#top_white"/><linearGradient id="linear-gradient-25" x1="39.79" y1="13.94" x2="43.26" y2="19.95" xlink:href="#linear-gradient-10"/><linearGradient id="linear-gradient-26" x1="40.34" y1="14.61" x2="42.89" y2="19.03" xlink:href="#linear-gradient-11"/><linearGradient id="linear-gradient-27" x1="40.26" y1="14.5" x2="42.39" y2="18.19" xlink:href="#linear-gradient-12"/><linearGradient id="top_white-16" x1="39.49" y1="15.48" x2="43.56" y2="15.48" xlink:href="#top_white"/><linearGradient id="top_white-17" x1="40.32" y1="14.54" x2="42.91" y2="14.54" xlink:href="#top_white"/><linearGradient id="top_white-18" x1="40.23" y1="15.02" x2="43.01" y2="15.02" xlink:href="#top_white"/><linearGradient id="linear-gradient-32" x1="17.96" y1="40.54" x2="21.96" y2="47.46" xlink:href="#linear-gradient-12"/><linearGradient id="linear-gradient-33" x1="18.4" y1="41.05" x2="21.34" y2="46.14" xlink:href="#linear-gradient-12"/><linearGradient id="linear-gradient-35" x1="16.72" y1="25.03" x2="20.49" y2="31.55" xlink:href="#linear-gradient-12"/><linearGradient id="linear-gradient-36" x1="17.03" y1="25.77" x2="19.38" y2="29.84" xlink:href="#linear-gradient-12"/><linearGradient id="linear-gradient-38" x1="22.54" y1="13.58" x2="25.83" y2="19.29" xlink:href="#linear-gradient-12"/><linearGradient id="linear-gradient-39" x1="22.94" y1="14.06" x2="25.41" y2="18.34" xlink:href="#linear-gradient-12"/><linearGradient id="linear-gradient-41" x1="28.77" y1="22.48" x2="36.02" y2="35.03" xlink:href="#linear-gradient-12"/><linearGradient id="linear-gradient-42" x1="29.59" y1="23.15" x2="35.2" y2="32.88" xlink:href="#linear-gradient-12"/><linearGradient id="linear-gradient-44" x1="40.86" y1="35.49" x2="44.55" y2="41.9" xlink:href="#linear-gradient-12"/><linearGradient id="linear-gradient-45" x1="41.44" y1="36.21" x2="44.16" y2="40.91" xlink:href="#linear-gradient-12"/><linearGradient id="linear-gradient-47" x1="39.79" y1="13.94" x2="43.26" y2="19.95" xlink:href="#linear-gradient-12"/><linearGradient id="linear-gradient-48" x1="40.34" y1="14.61" x2="42.89" y2="19.03" xlink:href="#linear-gradient-12"/><linearGradient id="linear-gradient-50" x1="31.02" y1="26.21" x2="33.46" y2="30.45" xlink:href="#linear-gradient"/><linearGradient id="linear-gradient-51" x1="38.29" y1="5.99" x2="39.99" y2="8.93" gradientTransform="translate(-7.94 27.01) scale(1.58 1.84)" gradientUnits="userSpaceOnUse"><stop offset="0" stop-color="#fff"/><stop offset="1" stop-color="#f6f6f7"/></linearGradient><linearGradient id="linear-gradient-52" x1="38.2" y1="12.81" x2="39.9" y2="15.75" gradientTransform="translate(-16.79 23.22) scale(1.58 1.84)" xlink:href="#linear-gradient-51"/><linearGradient id="linear-gradient-53" x1="41.12" y1="51.29" x2="45.16" y2="51.29" gradientTransform="matrix(1, 0, 0, 1, 0, 0)" xlink:href="#linear-gradient-5"/><linearGradient id="linear-gradient-54" x1="46.99" y1="42.02" x2="51.06" y2="49.07" gradientUnits="userSpaceOnUse"><stop offset="0" stop-color="#91c3e2"/><stop offset="1" stop-color="#285677"/></linearGradient><linearGradient id="linear-gradient-55" x1="51.39" y1="40.28" x2="56.84" y2="40.28" gradientTransform="matrix(1, 0, 0, 1, 0, 0)" xlink:href="#linear-gradient-5"/></defs><g id="Calque_7" data-name="Calque 7"><path class="cls-1" d="M18,51.81l-8,2V30.39a2,2,0,0,1,1.53-2l4-1a2,2,0,0,1,2.51,2Z"/><path class="cls-2" d="M30,48.75l-8,2V22.33a2,2,0,0,1,1.53-2l4-1a2,2,0,0,1,2.51,2Z"/><path class="cls-3" d="M42,44.75l-8,2V25.33a2,2,0,0,1,1.53-2l4-1a2,2,0,0,1,2.51,2Z"/><path class="cls-4" d="M54,40.64l-8,2V10.22a2,2,0,0,1,1.53-2l4-1a2,2,0,0,1,2.51,2Z"/><polygon class="DARK-GREY-Fill-11" points="8 52.95 55.35 38.34 55.53 42.84 8 57 8 52.95"/></g><g id="Calque_6" data-name="Calque 6"><g class="cls-5"><line class="cls-6" x1="41.87" y1="39.11" x2="31.59" y2="29.57"/><line class="cls-6" x1="34.85" y1="25.56" x2="40" y2="19"/><line class="cls-6" x1="31.8" y1="27.34" x2="17.98" y2="29.69"/><line class="cls-6" x1="20.6" y1="44.06" x2="30.84" y2="29.24"/><line class="cls-6" x1="31.49" y1="28.28" x2="23.46" y2="17.02"/><path class="cls-6" d="M24,44a4,4,0,1,1-4-4A4,4,0,0,1,24,44Z"/><path class="cls-6" d="M23.41,43.59c0,1.5-1.59,2.71-3.54,2.71s-3.53-1.21-3.53-2.71,1.58-2.7,3.53-2.7S23.41,42.1,23.41,43.59Z"/><path class="cls-6" d="M22.67,43.13c0,1.23-1.35,2.24-3,2.24s-3-1-3-2.24,1.35-2.24,3-2.24S22.67,41.89,22.67,43.13Z"/><path class="cls-6" d="M22.35,42.22c0,.85-1.05,1.54-2.34,1.54s-2.35-.69-2.35-1.54,1.05-1.55,2.35-1.55S22.35,41.36,22.35,42.22Z"/><path class="cls-6" d="M21.6,41.65A2.51,2.51,0,0,0,20.11,41a2.51,2.51,0,0,0-1.49.61s0-1,1.49-1S21.6,41.65,21.6,41.65Z"/><path class="cls-6" d="M21.71,41.68c0,.56-.72,1-1.6,1s-1.6-.45-1.6-1,.72-1,1.6-1S21.71,41.13,21.71,41.68Z"/><path class="cls-6" d="M22.37,28.29a3.77,3.77,0,1,1-3.77-3.76A3.77,3.77,0,0,1,22.37,28.29Z"/><path class="cls-6" d="M21,27.81C21,29,19.76,30,18.2,30s-2.82-1-2.82-2.16,1.26-2.17,2.82-2.17S21,26.61,21,27.81Z"/><path class="cls-6" d="M20.8,27.24c0,1-1.14,1.89-2.55,1.89s-2.55-.85-2.55-1.89,1.14-1.9,2.55-1.9S20.8,26.19,20.8,27.24Z"/><path class="cls-6" d="M20.42,26.67c0,.76-.93,1.37-2.07,1.37s-2.07-.61-2.07-1.37.93-1.36,2.07-1.36S20.42,25.92,20.42,26.67Z"/><path class="cls-6" d="M20,26.1a2.37,2.37,0,0,0-1.41-.57,2.36,2.36,0,0,0-1.4.57s0-.91,1.4-.92S20,26.1,20,26.1Z"/><path class="cls-6" d="M19.92,26.21c0,.47-.61.86-1.37.86s-1.36-.39-1.36-.86.61-.85,1.36-.85S19.92,25.74,19.92,26.21Z"/><path class="cls-6" d="M27.48,16.44a3.3,3.3,0,1,1-3.3-3.3A3.29,3.29,0,0,1,27.48,16.44Z"/><path class="cls-6" d="M27,16.2a2.61,2.61,0,0,1-2.8,2.35,2.62,2.62,0,0,1-2.81-2.35,2.61,2.61,0,0,1,2.81-2.35A2.6,2.6,0,0,1,27,16.2Z"/><path class="cls-6" d="M26.39,15.83a2.21,2.21,0,0,1-2.39,2,2.21,2.21,0,0,1-2.39-2,2.21,2.21,0,0,1,2.39-2A2.21,2.21,0,0,1,26.39,15.83Z"/><path class="cls-6" d="M26.15,15.3c0,.68-.84,1.23-1.87,1.23S22.42,16,22.42,15.3s.84-1.23,1.86-1.23S26.15,14.62,26.15,15.3Z"/><path class="cls-6" d="M25.51,14.74a2,2,0,0,0-1.23-.51,2,2,0,0,0-1.22.51s0-.8,1.22-.81S25.51,14.74,25.51,14.74Z"/><path class="cls-6" d="M25.64,14.87c0,.45-.57.8-1.27.8s-1.28-.35-1.28-.8.57-.79,1.28-.79S25.64,14.43,25.64,14.87Z"/><path class="cls-6" d="M39.64,28.76a7.25,7.25,0,1,1-7.25-7.25A7.25,7.25,0,0,1,39.64,28.76Z"/><path class="cls-6" d="M38.79,28c0,2.94-2.86,5.33-6.4,5.33S26,31,26,28s2.87-5.33,6.4-5.33S38.79,25.07,38.79,28Z"/><path class="cls-6" d="M37.21,27.44c0,2.24-2.45,4.06-5.46,4.06s-5.46-1.82-5.46-4.06,2.44-4.05,5.46-4.05S37.21,25.2,37.21,27.44Z"/><path class="cls-6" d="M36.64,25.8c0,1.54-1.9,2.79-4.25,2.79s-4.24-1.25-4.24-2.79,1.9-2.8,4.24-2.8S36.64,24.25,36.64,25.8Z"/><path class="cls-6" d="M35.28,24.4a4.52,4.52,0,0,0-2.7-1.11,4.52,4.52,0,0,0-2.7,1.11s.06-1.75,2.7-1.78C35,22.6,35.28,24.4,35.28,24.4Z"/><path class="cls-6" d="M35.48,24.44c0,1-1.3,1.82-2.9,1.82s-2.9-.81-2.9-1.82,1.3-1.82,2.9-1.82S35.48,23.44,35.48,24.44Z"/><path class="cls-6" d="M46.4,38.7A3.7,3.7,0,1,1,42.71,35,3.69,3.69,0,0,1,46.4,38.7Z"/><path class="cls-6" d="M46.07,38.56c0,1.39-1.47,2.51-3.27,2.51S39.53,40,39.53,38.56s1.47-2.5,3.27-2.5S46.07,37.18,46.07,38.56Z"/><path class="cls-6" d="M45.28,38.06c0,1.14-1.25,2.07-2.79,2.07s-2.79-.93-2.79-2.07S41,36,42.49,36,45.28,36.92,45.28,38.06Z"/><path class="cls-6" d="M44.87,37.13c0,.79-1,1.43-2.16,1.43s-2.17-.64-2.17-1.43,1-1.42,2.17-1.42S44.87,36.35,44.87,37.13Z"/><path class="cls-6" d="M44.18,36.59a2,2,0,0,0-2.76,0s0-.89,1.38-.91S44.18,36.59,44.18,36.59Z"/><path class="cls-6" d="M44.28,36.64c0,.51-.66.93-1.48.93s-1.48-.42-1.48-.93.66-.93,1.48-.93S44.28,36.13,44.28,36.64Z"/><path class="cls-6" d="M45,17a3.47,3.47,0,1,1-3.47-3.48A3.47,3.47,0,0,1,45,17Z"/><path class="cls-6" d="M44.68,16.82c0,1.3-1.37,2.35-3.06,2.35s-3.07-1.05-3.07-2.35,1.37-2.35,3.07-2.35S44.68,15.52,44.68,16.82Z"/><path class="cls-6" d="M43.94,16.35c0,1.07-1.17,1.94-2.61,1.94s-2.62-.87-2.62-1.94,1.17-2,2.62-2S43.94,15.27,43.94,16.35Z"/><path class="cls-6" d="M43.56,15.48c0,.74-.91,1.34-2,1.34s-2-.6-2-1.34.91-1.34,2-1.34S43.56,14.74,43.56,15.48Z"/><path class="cls-6" d="M42.91,15a1.85,1.85,0,0,0-2.59,0s0-.84,1.3-.86S42.91,15,42.91,15Z"/><path class="cls-6" d="M43,15c0,.48-.63.87-1.39.87s-1.39-.39-1.39-.87.62-.88,1.39-.88S43,14.53,43,15Z"/><line class="cls-7" x1="41.87" y1="39.11" x2="31.59" y2="29.57"/><line class="cls-8" x1="34.85" y1="25.56" x2="40" y2="19"/><line class="cls-9" x1="31.8" y1="27.34" x2="17.98" y2="29.69"/><line class="cls-10" x1="20.6" y1="44.06" x2="30.84" y2="29.24"/><line class="cls-11" x1="31.49" y1="28.28" x2="23.46" y2="17.02"/><path class="cls-12" d="M24,44a4,4,0,1,1-4-4A4,4,0,0,1,24,44Z"/><path class="cls-13" d="M23.41,43.59c0,1.5-1.59,2.71-3.54,2.71s-3.53-1.21-3.53-2.71,1.58-2.7,3.53-2.7S23.41,42.1,23.41,43.59Z"/><path class="cls-14" d="M22.67,43.13c0,1.23-1.35,2.24-3,2.24s-3-1-3-2.24,1.35-2.24,3-2.24S22.67,41.89,22.67,43.13Z"/><path class="cls-15" d="M22.35,42.22c0,.85-1.05,1.54-2.34,1.54s-2.35-.69-2.35-1.54,1.05-1.55,2.35-1.55S22.35,41.36,22.35,42.22Z"/><path class="cls-16" d="M21.6,41.65A2.51,2.51,0,0,0,20.11,41a2.51,2.51,0,0,0-1.49.61s0-1,1.49-1S21.6,41.65,21.6,41.65Z"/><path class="cls-17" d="M21.71,41.68c0,.56-.72,1-1.6,1s-1.6-.45-1.6-1,.72-1,1.6-1S21.71,41.13,21.71,41.68Z"/><path class="cls-18" d="M22.37,28.29a3.77,3.77,0,1,1-3.77-3.76A3.77,3.77,0,0,1,22.37,28.29Z"/><path class="cls-19" d="M21,27.81C21,29,19.76,30,18.2,30s-2.82-1-2.82-2.16,1.26-2.17,2.82-2.17S21,26.61,21,27.81Z"/><path class="cls-20" d="M20.8,27.24c0,1-1.14,1.89-2.55,1.89s-2.55-.85-2.55-1.89,1.14-1.9,2.55-1.9S20.8,26.19,20.8,27.24Z"/><path class="cls-21" d="M20.42,26.67c0,.76-.93,1.37-2.07,1.37s-2.07-.61-2.07-1.37.93-1.36,2.07-1.36S20.42,25.92,20.42,26.67Z"/><path class="cls-22" d="M20,26.1a2.37,2.37,0,0,0-1.41-.57,2.36,2.36,0,0,0-1.4.57s0-.91,1.4-.92S20,26.1,20,26.1Z"/><path class="cls-23" d="M19.92,26.21c0,.47-.61.86-1.37.86s-1.36-.39-1.36-.86.61-.85,1.36-.85S19.92,25.74,19.92,26.21Z"/><path class="cls-24" d="M27.48,16.44a3.3,3.3,0,1,1-3.3-3.3A3.29,3.29,0,0,1,27.48,16.44Z"/><path class="cls-25" d="M27,16.2a2.61,2.61,0,0,1-2.8,2.35,2.62,2.62,0,0,1-2.81-2.35,2.61,2.61,0,0,1,2.81-2.35A2.6,2.6,0,0,1,27,16.2Z"/><path class="cls-26" d="M26.39,15.83a2.21,2.21,0,0,1-2.39,2,2.21,2.21,0,0,1-2.39-2,2.21,2.21,0,0,1,2.39-2A2.21,2.21,0,0,1,26.39,15.83Z"/><path class="cls-27" d="M26.15,15.3c0,.68-.84,1.23-1.87,1.23S22.42,16,22.42,15.3s.84-1.23,1.86-1.23S26.15,14.62,26.15,15.3Z"/><path class="cls-28" d="M25.51,14.74a2,2,0,0,0-1.23-.51,2,2,0,0,0-1.22.51s0-.8,1.22-.81S25.51,14.74,25.51,14.74Z"/><path class="cls-29" d="M25.64,14.87c0,.45-.57.8-1.27.8s-1.28-.35-1.28-.8.57-.79,1.28-.79S25.64,14.43,25.64,14.87Z"/><path class="cls-30" d="M39.64,28.76a7.25,7.25,0,1,1-7.25-7.25A7.25,7.25,0,0,1,39.64,28.76Z"/><path class="cls-31" d="M38.79,28c0,2.94-2.86,5.33-6.4,5.33S26,31,26,28s2.87-5.33,6.4-5.33S38.79,25.07,38.79,28Z"/><path class="cls-32" d="M37.21,27.44c0,2.24-2.45,4.06-5.46,4.06s-5.46-1.82-5.46-4.06,2.44-4.05,5.46-4.05S37.21,25.2,37.21,27.44Z"/><path class="cls-33" d="M36.64,25.8c0,1.54-1.9,2.79-4.25,2.79s-4.24-1.25-4.24-2.79,1.9-2.8,4.24-2.8S36.64,24.25,36.64,25.8Z"/><path class="cls-34" d="M35.28,24.4a4.52,4.52,0,0,0-2.7-1.11,4.52,4.52,0,0,0-2.7,1.11s.06-1.75,2.7-1.78C35,22.6,35.28,24.4,35.28,24.4Z"/><path class="cls-35" d="M35.48,24.44c0,1-1.3,1.82-2.9,1.82s-2.9-.81-2.9-1.82,1.3-1.82,2.9-1.82S35.48,23.44,35.48,24.44Z"/><path class="cls-36" d="M46.4,38.7A3.7,3.7,0,1,1,42.71,35,3.69,3.69,0,0,1,46.4,38.7Z"/><path class="cls-37" d="M46.07,38.56c0,1.39-1.47,2.51-3.27,2.51S39.53,40,39.53,38.56s1.47-2.5,3.27-2.5S46.07,37.18,46.07,38.56Z"/><path class="cls-38" d="M45.28,38.06c0,1.14-1.25,2.07-2.79,2.07s-2.79-.93-2.79-2.07S41,36,42.49,36,45.28,36.92,45.28,38.06Z"/><path class="cls-39" d="M44.87,37.13c0,.79-1,1.43-2.16,1.43s-2.17-.64-2.17-1.43,1-1.42,2.17-1.42S44.87,36.35,44.87,37.13Z"/><path class="cls-40" d="M44.18,36.59a2,2,0,0,0-2.76,0s0-.89,1.38-.91S44.18,36.59,44.18,36.59Z"/><path class="cls-41" d="M44.28,36.64c0,.51-.66.93-1.48.93s-1.48-.42-1.48-.93.66-.93,1.48-.93S44.28,36.13,44.28,36.64Z"/><path class="cls-42" d="M45,17a3.47,3.47,0,1,1-3.47-3.48A3.47,3.47,0,0,1,45,17Z"/><path class="cls-43" d="M44.68,16.82c0,1.3-1.37,2.35-3.06,2.35s-3.07-1.05-3.07-2.35,1.37-2.35,3.07-2.35S44.68,15.52,44.68,16.82Z"/><path class="cls-44" d="M43.94,16.35c0,1.07-1.17,1.94-2.61,1.94s-2.62-.87-2.62-1.94,1.17-2,2.62-2S43.94,15.27,43.94,16.35Z"/><path class="cls-45" d="M43.56,15.48c0,.74-.91,1.34-2,1.34s-2-.6-2-1.34.91-1.34,2-1.34S43.56,14.74,43.56,15.48Z"/><path class="cls-46" d="M42.91,15a1.85,1.85,0,0,0-2.59,0s0-.84,1.3-.86S42.91,15,42.91,15Z"/><path class="cls-47" d="M43,15c0,.48-.63.87-1.39.87s-1.39-.39-1.39-.87.62-.88,1.39-.88S43,14.53,43,15Z"/><line class="cls-48" x1="41.87" y1="39.11" x2="31.59" y2="29.57"/><line class="cls-48" x1="34.85" y1="25.56" x2="40" y2="19"/><line class="cls-48" x1="31.8" y1="27.34" x2="17.98" y2="29.69"/><line class="cls-48" x1="20.6" y1="44.06" x2="30.84" y2="29.24"/><line class="cls-48" x1="31.49" y1="28.28" x2="23.46" y2="17.02"/><path class="cls-48" d="M24,44a4,4,0,1,1-4-4A4,4,0,0,1,24,44Z"/><path class="cls-48" d="M23.41,43.59c0,1.5-1.59,2.71-3.54,2.71s-3.53-1.21-3.53-2.71,1.58-2.7,3.53-2.7S23.41,42.1,23.41,43.59Z"/><path class="cls-48" d="M22.67,43.13c0,1.23-1.35,2.24-3,2.24s-3-1-3-2.24,1.35-2.24,3-2.24S22.67,41.89,22.67,43.13Z"/><path class="cls-48" d="M22.35,42.22c0,.85-1.05,1.54-2.34,1.54s-2.35-.69-2.35-1.54,1.05-1.55,2.35-1.55S22.35,41.36,22.35,42.22Z"/><path class="cls-48" d="M21.6,41.65A2.51,2.51,0,0,0,20.11,41a2.51,2.51,0,0,0-1.49.61s0-1,1.49-1S21.6,41.65,21.6,41.65Z"/><path class="cls-48" d="M21.71,41.68c0,.56-.72,1-1.6,1s-1.6-.45-1.6-1,.72-1,1.6-1S21.71,41.13,21.71,41.68Z"/><path class="cls-48" d="M22.37,28.29a3.77,3.77,0,1,1-3.77-3.76A3.77,3.77,0,0,1,22.37,28.29Z"/><path class="cls-48" d="M21,27.81C21,29,19.76,30,18.2,30s-2.82-1-2.82-2.16,1.26-2.17,2.82-2.17S21,26.61,21,27.81Z"/><path class="cls-48" d="M20.8,27.24c0,1-1.14,1.89-2.55,1.89s-2.55-.85-2.55-1.89,1.14-1.9,2.55-1.9S20.8,26.19,20.8,27.24Z"/><path class="cls-48" d="M20.42,26.67c0,.76-.93,1.37-2.07,1.37s-2.07-.61-2.07-1.37.93-1.36,2.07-1.36S20.42,25.92,20.42,26.67Z"/><path class="cls-48" d="M20,26.1a2.37,2.37,0,0,0-1.41-.57,2.36,2.36,0,0,0-1.4.57s0-.91,1.4-.92S20,26.1,20,26.1Z"/><path class="cls-48" d="M19.92,26.21c0,.47-.61.86-1.37.86s-1.36-.39-1.36-.86.61-.85,1.36-.85S19.92,25.74,19.92,26.21Z"/><path class="cls-48" d="M27.48,16.44a3.3,3.3,0,1,1-3.3-3.3A3.29,3.29,0,0,1,27.48,16.44Z"/><path class="cls-48" d="M27,16.2a2.61,2.61,0,0,1-2.8,2.35,2.62,2.62,0,0,1-2.81-2.35,2.61,2.61,0,0,1,2.81-2.35A2.6,2.6,0,0,1,27,16.2Z"/><path class="cls-48" d="M26.39,15.83a2.21,2.21,0,0,1-2.39,2,2.21,2.21,0,0,1-2.39-2,2.21,2.21,0,0,1,2.39-2A2.21,2.21,0,0,1,26.39,15.83Z"/><path class="cls-48" d="M26.15,15.3c0,.68-.84,1.23-1.87,1.23S22.42,16,22.42,15.3s.84-1.23,1.86-1.23S26.15,14.62,26.15,15.3Z"/><path class="cls-48" d="M25.51,14.74a2,2,0,0,0-1.23-.51,2,2,0,0,0-1.22.51s0-.8,1.22-.81S25.51,14.74,25.51,14.74Z"/><path class="cls-48" d="M25.64,14.87c0,.45-.57.8-1.27.8s-1.28-.35-1.28-.8.57-.79,1.28-.79S25.64,14.43,25.64,14.87Z"/><path class="cls-48" d="M39.64,28.76a7.25,7.25,0,1,1-7.25-7.25A7.25,7.25,0,0,1,39.64,28.76Z"/><path class="cls-48" d="M38.79,28c0,2.94-2.86,5.33-6.4,5.33S26,31,26,28s2.87-5.33,6.4-5.33S38.79,25.07,38.79,28Z"/><path class="cls-48" d="M37.21,27.44c0,2.24-2.45,4.06-5.46,4.06s-5.46-1.82-5.46-4.06,2.44-4.05,5.46-4.05S37.21,25.2,37.21,27.44Z"/><path class="cls-48" d="M36.64,25.8c0,1.54-1.9,2.79-4.25,2.79s-4.24-1.25-4.24-2.79,1.9-2.8,4.24-2.8S36.64,24.25,36.64,25.8Z"/><path class="cls-48" d="M35.28,24.4a4.52,4.52,0,0,0-2.7-1.11,4.52,4.52,0,0,0-2.7,1.11s.06-1.75,2.7-1.78C35,22.6,35.28,24.4,35.28,24.4Z"/><path class="cls-48" d="M35.48,24.44c0,1-1.3,1.82-2.9,1.82s-2.9-.81-2.9-1.82,1.3-1.82,2.9-1.82S35.48,23.44,35.48,24.44Z"/><path class="cls-48" d="M46.4,38.7A3.7,3.7,0,1,1,42.71,35,3.69,3.69,0,0,1,46.4,38.7Z"/><path class="cls-48" d="M46.07,38.56c0,1.39-1.47,2.51-3.27,2.51S39.53,40,39.53,38.56s1.47-2.5,3.27-2.5S46.07,37.18,46.07,38.56Z"/><path class="cls-48" d="M45.28,38.06c0,1.14-1.25,2.07-2.79,2.07s-2.79-.93-2.79-2.07S41,36,42.49,36,45.28,36.92,45.28,38.06Z"/><path class="cls-48" d="M44.87,37.13c0,.79-1,1.43-2.16,1.43s-2.17-.64-2.17-1.43,1-1.42,2.17-1.42S44.87,36.35,44.87,37.13Z"/><path class="cls-48" d="M44.18,36.59a2,2,0,0,0-2.76,0s0-.89,1.38-.91S44.18,36.59,44.18,36.59Z"/><path class="cls-48" d="M44.28,36.64c0,.51-.66.93-1.48.93s-1.48-.42-1.48-.93.66-.93,1.48-.93S44.28,36.13,44.28,36.64Z"/><path class="cls-48" d="M45,17a3.47,3.47,0,1,1-3.47-3.48A3.47,3.47,0,0,1,45,17Z"/><path class="cls-48" d="M44.68,16.82c0,1.3-1.37,2.35-3.06,2.35s-3.07-1.05-3.07-2.35,1.37-2.35,3.07-2.35S44.68,15.52,44.68,16.82Z"/><path class="cls-48" d="M43.94,16.35c0,1.07-1.17,1.94-2.61,1.94s-2.62-.87-2.62-1.94,1.17-2,2.62-2S43.94,15.27,43.94,16.35Z"/><path class="cls-48" d="M43.56,15.48c0,.74-.91,1.34-2,1.34s-2-.6-2-1.34.91-1.34,2-1.34S43.56,14.74,43.56,15.48Z"/><path class="cls-48" d="M42.91,15a1.85,1.85,0,0,0-2.59,0s0-.84,1.3-.86S42.91,15,42.91,15Z"/><path class="cls-48" d="M43,15c0,.48-.63.87-1.39.87s-1.39-.39-1.39-.87.62-.88,1.39-.88S43,14.53,43,15Z"/></g><path class="De-emphasized-WHITE-for-Vector-Highlights-8" d="M37.64,24.31v2.4l-3.15,3.14-2.06-2.06L27.22,33V30.6l5.21-5.21,2.06,2.06Z"/><path class="De-emphasized-WHITE-for-Vector-Highlights-8" d="M56.83,41.22A2.53,2.53,0,0,0,57,41a3,3,0,0,0,.21-1.12,2.78,2.78,0,0,0-.23-1.15,2.94,2.94,0,0,0-.63-.93,2.73,2.73,0,0,0-.93-.63,2.86,2.86,0,0,0-3.17.59l-.65.65a.6.6,0,0,0-.14.14l-8.28,8.3-.05,0,0,0-.72.73-.3,1-.44.44.23.24-1.36,4.36,1.41-.43,3.23-.56-.3-.33,0,0,.49.49.91-.91.22-.07.79-.79.08.09,0-.13.08-.08c0,.1.09.19.12.26L54,44.28l.38-.38,0,0,1.35-1.35a3.73,3.73,0,0,1,0,.46c0,.3.47-.67.72-1.22l.46-.46Z"/><rect class="De-emphasized-WHITE-for-Vector-Highlights-8" x="51.15" y="38.95" width="5.3" height="3.64" transform="translate(44.59 -26.1) rotate(45)"/><rect class="De-emphasized-WHITE-for-Vector-Highlights-8" x="42.16" y="47.74" width="5.3" height="3.64" transform="translate(48.17 -17.17) rotate(45)"/><line class="cls-7" x1="41.87" y1="39.11" x2="31.59" y2="29.57"/><line class="cls-8" x1="34.85" y1="25.56" x2="40" y2="19"/><line class="cls-9" x1="31.8" y1="27.34" x2="17.98" y2="29.69"/><line class="cls-10" x1="20.6" y1="44.06" x2="30.84" y2="29.24"/><line class="cls-11" x1="31.49" y1="28.28" x2="23.46" y2="17.02"/><path class="cls-49" d="M24,44a4,4,0,1,1-4-4A4,4,0,0,1,24,44Z"/><path class="cls-50" d="M23.41,43.59c0,1.5-1.59,2.71-3.54,2.71s-3.53-1.21-3.53-2.71,1.58-2.7,3.53-2.7S23.41,42.1,23.41,43.59Z"/><path class="cls-14" d="M22.67,43.13c0,1.23-1.35,2.24-3,2.24s-3-1-3-2.24,1.35-2.24,3-2.24S22.67,41.89,22.67,43.13Z"/><path class="cls-15" d="M22.35,42.22c0,.85-1.05,1.54-2.34,1.54s-2.35-.69-2.35-1.54,1.05-1.55,2.35-1.55S22.35,41.36,22.35,42.22Z"/><path class="cls-16" d="M21.6,41.65A2.51,2.51,0,0,0,20.11,41a2.51,2.51,0,0,0-1.49.61s0-1,1.49-1S21.6,41.65,21.6,41.65Z"/><path class="cls-17" d="M21.71,41.68c0,.56-.72,1-1.6,1s-1.6-.45-1.6-1,.72-1,1.6-1S21.71,41.13,21.71,41.68Z"/><path class="OUTLINE-23" d="M24,44a4,4,0,1,1-4-4A4,4,0,0,1,24,44Z"/><path class="cls-51" d="M22.37,28.29a3.77,3.77,0,1,1-3.77-3.76A3.77,3.77,0,0,1,22.37,28.29Z"/><path class="cls-52" d="M21,27.81C21,29,19.76,30,18.2,30s-2.82-1-2.82-2.16,1.26-2.17,2.82-2.17S21,26.61,21,27.81Z"/><path class="cls-20" d="M20.8,27.24c0,1-1.14,1.89-2.55,1.89s-2.55-.85-2.55-1.89,1.14-1.9,2.55-1.9S20.8,26.19,20.8,27.24Z"/><path class="cls-21" d="M20.42,26.67c0,.76-.93,1.37-2.07,1.37s-2.07-.61-2.07-1.37.93-1.36,2.07-1.36S20.42,25.92,20.42,26.67Z"/><path class="cls-22" d="M20,26.1a2.37,2.37,0,0,0-1.41-.57,2.36,2.36,0,0,0-1.4.57s0-.91,1.4-.92S20,26.1,20,26.1Z"/><path class="cls-23" d="M19.92,26.21c0,.47-.61.86-1.37.86s-1.36-.39-1.36-.86.61-.85,1.36-.85S19.92,25.74,19.92,26.21Z"/><path class="OUTLINE-23" d="M22.37,28.29a3.77,3.77,0,1,1-3.77-3.76A3.77,3.77,0,0,1,22.37,28.29Z"/><path class="cls-53" d="M27.48,16.44a3.3,3.3,0,1,1-3.3-3.3A3.29,3.29,0,0,1,27.48,16.44Z"/><path class="cls-54" d="M27,16.2a2.61,2.61,0,0,1-2.8,2.35,2.62,2.62,0,0,1-2.81-2.35,2.61,2.61,0,0,1,2.81-2.35A2.6,2.6,0,0,1,27,16.2Z"/><path class="cls-26" d="M26.39,15.83a2.21,2.21,0,0,1-2.39,2,2.21,2.21,0,0,1-2.39-2,2.21,2.21,0,0,1,2.39-2A2.21,2.21,0,0,1,26.39,15.83Z"/><path class="cls-27" d="M26.15,15.3c0,.68-.84,1.23-1.87,1.23S22.42,16,22.42,15.3s.84-1.23,1.86-1.23S26.15,14.62,26.15,15.3Z"/><path class="cls-28" d="M25.51,14.74a2,2,0,0,0-1.23-.51,2,2,0,0,0-1.22.51s0-.8,1.22-.81S25.51,14.74,25.51,14.74Z"/><path class="cls-29" d="M25.64,14.87c0,.45-.57.8-1.27.8s-1.28-.35-1.28-.8.57-.79,1.28-.79S25.64,14.43,25.64,14.87Z"/><path class="OUTLINE-23" d="M27.48,16.44a3.3,3.3,0,1,1-3.3-3.3A3.29,3.29,0,0,1,27.48,16.44Z"/><path class="cls-55" d="M39.64,28.76a7.25,7.25,0,1,1-7.25-7.25A7.25,7.25,0,0,1,39.64,28.76Z"/><path class="cls-56" d="M38.79,28c0,2.94-2.86,5.33-6.4,5.33S26,31,26,28s2.87-5.33,6.4-5.33S38.79,25.07,38.79,28Z"/><path class="cls-32" d="M37.21,27.44c0,2.24-2.45,4.06-5.46,4.06s-5.46-1.82-5.46-4.06,2.44-4.05,5.46-4.05S37.21,25.2,37.21,27.44Z"/><path class="cls-33" d="M36.64,25.8c0,1.54-1.9,2.79-4.25,2.79s-4.24-1.25-4.24-2.79,1.9-2.8,4.24-2.8S36.64,24.25,36.64,25.8Z"/><path class="cls-34" d="M35.28,24.4a4.52,4.52,0,0,0-2.7-1.11,4.52,4.52,0,0,0-2.7,1.11s.06-1.75,2.7-1.78C35,22.6,35.28,24.4,35.28,24.4Z"/><path class="cls-35" d="M35.48,24.44c0,1-1.3,1.82-2.9,1.82s-2.9-.81-2.9-1.82,1.3-1.82,2.9-1.82S35.48,23.44,35.48,24.44Z"/><path class="OUTLINE-23" d="M39.64,28.76a7.25,7.25,0,1,1-7.25-7.25A7.25,7.25,0,0,1,39.64,28.76Z"/><path class="cls-57" d="M46.4,38.7A3.7,3.7,0,1,1,42.71,35,3.69,3.69,0,0,1,46.4,38.7Z"/><path class="cls-58" d="M46.07,38.56c0,1.39-1.47,2.51-3.27,2.51S39.53,40,39.53,38.56s1.47-2.5,3.27-2.5S46.07,37.18,46.07,38.56Z"/><path class="cls-38" d="M45.28,38.06c0,1.14-1.25,2.07-2.79,2.07s-2.79-.93-2.79-2.07S41,36,42.49,36,45.28,36.92,45.28,38.06Z"/><path class="cls-39" d="M44.87,37.13c0,.79-1,1.43-2.16,1.43s-2.17-.64-2.17-1.43,1-1.42,2.17-1.42S44.87,36.35,44.87,37.13Z"/><path class="cls-40" d="M44.18,36.59a2,2,0,0,0-2.76,0s0-.89,1.38-.91S44.18,36.59,44.18,36.59Z"/><path class="cls-41" d="M44.28,36.64c0,.51-.66.93-1.48.93s-1.48-.42-1.48-.93.66-.93,1.48-.93S44.28,36.13,44.28,36.64Z"/><path class="OUTLINE-23" d="M46.4,38.7A3.7,3.7,0,1,1,42.71,35,3.69,3.69,0,0,1,46.4,38.7Z"/><path class="cls-59" d="M45,17a3.47,3.47,0,1,1-3.47-3.48A3.47,3.47,0,0,1,45,17Z"/><path class="cls-60" d="M44.68,16.82c0,1.3-1.37,2.35-3.06,2.35s-3.07-1.05-3.07-2.35,1.37-2.35,3.07-2.35S44.68,15.52,44.68,16.82Z"/><path class="cls-44" d="M43.94,16.35c0,1.07-1.17,1.94-2.61,1.94s-2.62-.87-2.62-1.94,1.17-2,2.62-2S43.94,15.27,43.94,16.35Z"/><path class="cls-45" d="M43.56,15.48c0,.74-.91,1.34-2,1.34s-2-.6-2-1.34.91-1.34,2-1.34S43.56,14.74,43.56,15.48Z"/><path class="cls-46" d="M42.91,15a1.85,1.85,0,0,0-2.59,0s0-.84,1.3-.86S42.91,15,42.91,15Z"/><path class="cls-47" d="M43,15c0,.48-.63.87-1.39.87s-1.39-.39-1.39-.87.62-.88,1.39-.88S43,14.53,43,15Z"/><path class="OUTLINE-23" d="M45,17a3.47,3.47,0,1,1-3.47-3.48A3.47,3.47,0,0,1,45,17Z"/><path class="cls-61" d="M37.64,24.31v2.4l-3.15,3.14-2.06-2.06L27.22,33V30.6l5.21-5.21,2.06,2.06Z"/><g id="EDIT_PEN" data-name="EDIT PEN"><path class="De-emphasized-WHITE-for-Vector-Highlights-8" d="M56.83,41.22A2.53,2.53,0,0,0,57,41a3,3,0,0,0,.21-1.12,2.78,2.78,0,0,0-.23-1.15,2.94,2.94,0,0,0-.63-.93,2.73,2.73,0,0,0-.93-.63,2.86,2.86,0,0,0-3.17.59l-.65.65a.6.6,0,0,0-.14.14l-8.28,8.3-.05,0,0,0-.72.73-.3,1-.44.44.23.24-1.36,4.36,1.41-.43,3.23-.56-.3-.33,0,0,.49.49.91-.91.22-.07.79-.79.08.09,0-.13.08-.08c0,.1.09.19.12.26L54,44.28l.38-.38,0,0,1.35-1.35a3.73,3.73,0,0,1,0,.46c0,.3.47-.67.72-1.22l.46-.46Z"/><rect class="cls-62" x="51.15" y="38.95" width="5.3" height="3.64" transform="translate(44.59 -26.1) rotate(45)"/><rect class="cls-63" x="42.16" y="47.74" width="5.3" height="3.64" transform="translate(48.17 -17.17) rotate(45)"/><polygon class="DARK-GREY-Fill-21" points="45.16 52.58 41.12 53.28 42.19 49.31 45.16 52.58"/><path class="cls-64" d="M43.35,47.14a26.75,26.75,0,0,1,3,1.39,17.48,17.48,0,0,1,1.23,2.56l7-7.41A15.13,15.13,0,0,0,52.7,41.6a15.18,15.18,0,0,0-2.47-1.44Z"/><path class="DARK-GREY-Fill-20" d="M51.45,38.61c-.36,0,1-.79,1.34-.93a3.08,3.08,0,0,1,2.26,0,3.05,3.05,0,0,1,.93.63,2.88,2.88,0,0,1,.63.94,2.73,2.73,0,0,1,.23,1.14,3,3,0,0,1-.21,1.12c-.14.36-.87,1.88-.85,1.52C55.83,41.28,53.48,38.72,51.45,38.61Z"/><path class="cls-65" d="M54.22,36.93a3,3,0,0,1,1.15.23,2.88,2.88,0,0,1,.94.63,3.09,3.09,0,0,1,.62.93,2.78,2.78,0,0,1,.23,1.15A3,3,0,0,1,57,41a2.71,2.71,0,0,1-.6.92l-9.82,9.83-6,1.83,1.87-6,9.81-9.83a2.78,2.78,0,0,1,2-.82Zm.49,6.64-.79-1.14a5,5,0,0,0-.93-1.3,4.75,4.75,0,0,0-1.29-.94l-1-.57"/><path class="cls-65" d="M54.22,36.93a3,3,0,0,1,1.15.23,2.88,2.88,0,0,1,.94.63,3.09,3.09,0,0,1,.62.93,2.78,2.78,0,0,1,.23,1.15A3,3,0,0,1,57,41a2.71,2.71,0,0,1-.6.92l-9.82,9.83-6,1.83,1.87-6,9.81-9.83a2.78,2.78,0,0,1,2-.82ZM43.08,46.82l1.58.4a5.07,5.07,0,0,1,1.29.91,5.21,5.21,0,0,1,.94,1.33L47.4,51"/></g></g></svg>