<svg xmlns="http://www.w3.org/2000/svg" xmlns:xlink="http://www.w3.org/1999/xlink" viewBox="0 0 64 64"><defs><style>.De-emphasized-WHITE-for-Vector-Highlights-6,.cls-1,.cls-38{fill:#fff;}.cls-2{fill:url(#linear-gradient);}.cls-3{fill:url(#linear-gradient-2);}.cls-4{fill:url(#linear-gradient-3);}.cls-5{fill:url(#linear-gradient-4);}.DARK-GREY-Fill-13{fill:url(#linear-gradient-5);}.cls-6{fill:url(#linear-gradient-6);}.De-emphasized-WHITE-for-Vector-Highlights-6,.cls-38,.cls-40{stroke:#fff;}.Blue-TOP-10,.De-emphasized-WHITE-for-Vector-Highlights-6,.INSIDE-LINE-12,.OUTLINE-27,.cls-10,.cls-32,.cls-33,.cls-34,.cls-35,.cls-36,.cls-37,.cls-38,.cls-40,.cls-41,.cls-42,.cls-7,.cls-8,.cls-9{stroke-linejoin:round;}.De-emphasized-WHITE-for-Vector-Highlights-6,.cls-40{stroke-width:3px;}.De-emphasized-GREY-Fill-29,.De-emphasized-WHITE-for-Vector-Highlights-6,.cls-25,.cls-38{opacity:0.5;}.OUTLINE-27,.cls-32,.cls-33,.cls-7{stroke:#3a3634;}.cls-7{stroke-width:1.11px;fill:url(#linear-gradient-7);}.INSIDE-LINE-12,.cls-34,.cls-35,.cls-36,.cls-37,.cls-41,.cls-42,.cls-8{stroke:#807c7b;}.cls-10,.cls-8{stroke-width:0.91px;}.cls-8{fill:url(#linear-gradient-8);}.De-emphasized-GREY-Fill-29,.cls-26{fill:#6b6766;}.cls-9{stroke:#787979;stroke-width:0.54px;fill:url(#linear-gradient-9);}.INSIDE-LINE-12,.OUTLINE-27,.cls-40{fill:none;}.Blue-TOP-10,.cls-10{stroke:#113553;}.Blue-TOP-10{fill:url(#linear-gradient-10);}.cls-10{fill:url(#linear-gradient-11);}.cls-11{mask:url(#mask);}.cls-12{fill:url(#linear-gradient-12);}.cls-13{fill:#787979;}.cls-14{mask:url(#mask-2);}.cls-15{fill:url(#linear-gradient-13);}.cls-16{fill:#3a3634;}.cls-17{fill:url(#linear-gradient-15);}.cls-18{fill:url(#linear-gradient-16);}.cls-19{fill:url(#linear-gradient-17);}.cls-20{fill:url(#linear-gradient-18);}.cls-21{fill:url(#linear-gradient-19);}.cls-22{fill:url(#linear-gradient-20);}.cls-23{fill:url(#linear-gradient-21);}.cls-24{fill:url(#linear-gradient-22);}.cls-27{fill:url(#linear-gradient-23);}.cls-28{fill:url(#linear-gradient-24);}.cls-29{fill:url(#linear-gradient-25);}.cls-30{fill:url(#linear-gradient-26);}.cls-31{fill:url(#linear-gradient-27);}.cls-32,.cls-33{stroke-width:0.83px;}.cls-32{fill:url(#linear-gradient-28);}.cls-33{fill:url(#linear-gradient-29);}.cls-34,.cls-35,.cls-41,.cls-42{stroke-width:0.92px;}.cls-34{fill:url(#linear-gradient-30);}.cls-35{fill:url(#linear-gradient-31);}.cls-36{stroke-width:0.51px;fill:url(#linear-gradient-32);}.cls-37{stroke-width:0.58px;fill:url(#linear-gradient-33);}.cls-38{stroke-width:1.73px;}.cls-39{fill:url(#linear-gradient-34);}.cls-41{fill:url(#linear-gradient-37);}.cls-42{fill:url(#linear-gradient-38);}</style><linearGradient id="linear-gradient" x1="7.76" y1="30.52" x2="19.54" y2="50.93" gradientUnits="userSpaceOnUse"><stop offset="0" stop-color="#2f85b1"/><stop offset="1" stop-color="#285677"/></linearGradient><linearGradient id="linear-gradient-2" x1="18.67" y1="23.08" x2="32.62" y2="47.24" xlink:href="#linear-gradient"/><linearGradient id="linear-gradient-3" x1="32.19" y1="25.2" x2="43.1" y2="44.11" xlink:href="#linear-gradient"/><linearGradient id="linear-gradient-4" x1="41.81" y1="11.47" x2="57.49" y2="38.63" xlink:href="#linear-gradient"/><linearGradient id="linear-gradient-5" x1="6.98" y1="48.07" x2="57.73" y2="48.07" gradientTransform="translate(-13.34 11.51) rotate(-17.15)" gradientUnits="userSpaceOnUse"><stop offset="0" stop-color="#4e4a48"/><stop offset="1" stop-color="#201d1a"/></linearGradient><linearGradient id="linear-gradient-6" x1="23.89" y1="11.46" x2="30.62" y2="23.12" xlink:href="#linear-gradient"/><linearGradient id="linear-gradient-7" x1="11.73" y1="32.63" x2="23.38" y2="52.81" gradientUnits="userSpaceOnUse"><stop offset="0" stop-color="#b4b1b0"/><stop offset="1" stop-color="#615d5c"/></linearGradient><linearGradient id="linear-gradient-8" x1="27.63" y1="31.36" x2="42.37" y2="56.9" gradientUnits="userSpaceOnUse"><stop offset="0" stop-color="#fff"/><stop offset="1" stop-color="#dbdada"/></linearGradient><linearGradient id="linear-gradient-9" x1="11.94" y1="46.66" x2="10.1" y2="49.19" gradientTransform="matrix(-1, 0, 0, 1, 59.38, 0)" gradientUnits="userSpaceOnUse"><stop offset="0" stop-color="#f5f5f5"/><stop offset="0.34" stop-color="#e2e2e2"/><stop offset="0.86" stop-color="#bebebe"/></linearGradient><linearGradient id="linear-gradient-10" x1="30.44" y1="24.72" x2="39.57" y2="40.52" gradientUnits="userSpaceOnUse"><stop offset="0" stop-color="#b5e1f8"/><stop offset="1" stop-color="#84c7e6"/></linearGradient><linearGradient id="linear-gradient-11" x1="29.85" y1="21.93" x2="38.17" y2="36.33" gradientUnits="userSpaceOnUse"><stop offset="0" stop-color="#91c3e2"/><stop offset="1" stop-color="#285677"/></linearGradient><mask id="mask" x="21.95" y="22.5" width="8.21" height="13.88" maskUnits="userSpaceOnUse"><path class="cls-1" d="M24.84,28.3,22,28.76l.5-6.26,5.28,2.84,2.14,4,.29,4.46L27,36.38a2.69,2.69,0,0,0-1.13-1.47c-1-.69-.32-2.69.51-2.52S24.84,28.3,24.84,28.3Z"/></mask><linearGradient id="linear-gradient-12" x1="23.57" y1="25.98" x2="28.28" y2="34.14" gradientTransform="matrix(1, 0.09, -0.09, 1, 2.51, -2.02)" gradientUnits="userSpaceOnUse"><stop offset="0" stop-color="#fff"/><stop offset="1" stop-color="#d2d2d2"/></linearGradient><mask id="mask-2" x="39.4" y="20.6" width="8.69" height="14.45" maskUnits="userSpaceOnUse"><path class="cls-1" d="M42.3,26.58l-2.9.83.06-6.81L45,23l2.46,4.06.62,4.77L45,35a2.71,2.71,0,0,0-1.25-1.45c-1-.63-.52-2.86.34-2.78S42.3,26.58,42.3,26.58Z"/></mask><linearGradient id="linear-gradient-13" x1="40.84" y1="24.53" x2="45.66" y2="32.89" gradientTransform="matrix(1, 0, 0, 1, 0, 0)" xlink:href="#linear-gradient-12"/><linearGradient id="linear-gradient-15" x1="31.1" y1="39.29" x2="33.1" y2="39.29" gradientTransform="translate(0.49 0.03)" xlink:href="#linear-gradient-5"/><linearGradient id="linear-gradient-16" x1="36.1" y1="39.29" x2="38.1" y2="39.29" gradientTransform="translate(0.48 -0.34)" xlink:href="#linear-gradient-5"/><linearGradient id="linear-gradient-17" x1="41.1" y1="39.29" x2="43.1" y2="39.29" gradientTransform="translate(0.47 -0.7)" xlink:href="#linear-gradient-5"/><linearGradient id="linear-gradient-18" x1="46.1" y1="39.29" x2="48.1" y2="39.29" gradientTransform="translate(0.45 -1.07)" xlink:href="#linear-gradient-5"/><linearGradient id="linear-gradient-19" x1="20.65" y1="44.26" x2="22.65" y2="44.26" gradientTransform="translate(0.89 0.78)" xlink:href="#linear-gradient-5"/><linearGradient id="linear-gradient-20" x1="25.65" y1="44.26" x2="27.65" y2="44.26" gradientTransform="translate(0.87 0.42)" xlink:href="#linear-gradient-5"/><linearGradient id="linear-gradient-21" x1="30.65" y1="44.26" x2="32.65" y2="44.26" gradientTransform="translate(0.86 0.05)" xlink:href="#linear-gradient-5"/><linearGradient id="linear-gradient-22" x1="35.96" y1="43.08" x2="37.33" y2="45.45" gradientTransform="translate(0.85 -0.32)" xlink:href="#linear-gradient"/><linearGradient id="linear-gradient-23" x1="20.19" y1="49.24" x2="22.19" y2="49.24" gradientTransform="translate(1.25 0.8)" xlink:href="#linear-gradient-5"/><linearGradient id="linear-gradient-24" x1="25.19" y1="49.24" x2="27.19" y2="49.24" gradientTransform="translate(1.24 0.44)" xlink:href="#linear-gradient-5"/><linearGradient id="linear-gradient-25" x1="30.19" y1="49.24" x2="32.19" y2="49.24" gradientTransform="translate(1.23 0.07)" xlink:href="#linear-gradient-5"/><linearGradient id="linear-gradient-26" x1="35.19" y1="49.24" x2="37.19" y2="49.24" gradientTransform="translate(1.21 -0.3)" xlink:href="#linear-gradient-5"/><linearGradient id="linear-gradient-27" x1="40.19" y1="49.24" x2="42.19" y2="49.24" gradientTransform="translate(1.2 -0.66)" xlink:href="#linear-gradient-5"/><linearGradient id="linear-gradient-28" x1="47.15" y1="40.27" x2="48.85" y2="43.23" xlink:href="#linear-gradient-7"/><linearGradient id="linear-gradient-29" x1="46.96" y1="37.45" x2="49.04" y2="41.05" xlink:href="#linear-gradient-7"/><linearGradient id="linear-gradient-30" x1="32.66" y1="54.21" x2="34.89" y2="58.08" gradientTransform="matrix(-1, 0, 0, 0.85, 88.49, -3.6)" gradientUnits="userSpaceOnUse"><stop offset="0" stop-color="#e0dfdf"/><stop offset="1" stop-color="#9f9c9a"/></linearGradient><linearGradient id="linear-gradient-31" x1="41.45" y1="42.98" x2="43.68" y2="46.85" gradientTransform="matrix(0, 1, -0.85, 0, 80.04, 1.74)" xlink:href="#linear-gradient-30"/><linearGradient id="linear-gradient-32" x1="44.5" y1="43.57" x2="52.5" y2="57.43" gradientUnits="userSpaceOnUse"><stop offset="0" stop-color="#fafafb"/><stop offset="1" stop-color="#c9c6c5"/></linearGradient><linearGradient id="linear-gradient-33" x1="45.5" y1="45.3" x2="51.5" y2="55.7" xlink:href="#linear-gradient-8"/><linearGradient id="linear-gradient-34" x1="47.59" y1="49.92" x2="50.65" y2="49.92" gradientTransform="matrix(1, 0, 0, 1, 0, 0)" xlink:href="#linear-gradient-5"/><linearGradient id="linear-gradient-37" x1="32.66" y1="54.21" x2="34.89" y2="58.08" gradientTransform="matrix(1, 0, 0, -0.85, 20.94, 92.21)" xlink:href="#linear-gradient-30"/><linearGradient id="linear-gradient-38" x1="41.45" y1="42.98" x2="43.68" y2="46.85" gradientTransform="translate(-0.85 5.98) scale(1 0.85)" xlink:href="#linear-gradient-30"/></defs><g id="Calque_8" data-name="Calque 8"><path class="cls-2" d="M18,51.81l-8,2V30.39a2,2,0,0,1,1.53-2l4-1a2,2,0,0,1,2.51,2Z"/><path class="cls-3" d="M30,48.75l-8,2V22.33a2,2,0,0,1,1.53-2l4-1a2,2,0,0,1,2.51,2Z"/><path class="cls-4" d="M42,44.75l-8,2V25.33a2,2,0,0,1,1.53-2l4-1a2,2,0,0,1,2.51,2Z"/><path class="cls-5" d="M54,40.64l-8,2V10.22a2,2,0,0,1,1.53-2l4-1a2,2,0,0,1,2.51,2Z"/><polygon class="DARK-GREY-Fill-13" points="8 52.95 55.35 38.34 55.53 42.84 8 57 8 52.95"/><path class="cls-6" d="M9.32,21l15.77-10.2a1,1,0,0,1,.87-.09l10.4,4.07a1,1,0,0,0,1.09-.27L43,8v6l-4.57,4.57a1,1,0,0,1-1,.22L26,14.66a1,1,0,0,0-.86.11L11.3,24A1,1,0,0,1,10,23.7L9,22.31A1,1,0,0,1,9.32,21Z"/></g><g id="v5"><path class="De-emphasized-WHITE-for-Vector-Highlights-6" d="M49.5,26.64,45.19,27h0a8.16,8.16,0,0,0-.89-1.4l-.1-.11q-.21-.24-.42-.45a4,4,0,0,0-.57-.44,2,2,0,0,0-.57-.25c-1.32-.32-2.38,1.16-2.38,2.93h0a1,1,0,0,0,0,.17L27.46,28.64h0c-.1-.19-.2-.38-.31-.56l-.06-.1c-.1-.15-.2-.3-.31-.44l-.18-.22L26.36,27a6.2,6.2,0,0,0-.48-.43C24.41,25.53,23.1,26.17,23,28a3.49,3.49,0,0,0,0,.56c0,.15,0,.3,0,.46l-6.49.59,2,2h0l-.45-.39L16.5,29.9h0l0,23.72,2,2,25-3,0,0,.25,0h0a1.84,1.84,0,0,0,.3-.07h0l7.42-.9V46.79h0V44.44h0v-.16h0V28.64Zm-23.94,1h0a3.11,3.11,0,0,1,.42.46l0,.05a5.28,5.28,0,0,1,.37.55l-1.07.1L23.9,29a2.85,2.85,0,0,1,0-.4,2.33,2.33,0,0,1,0-.47,1.25,1.25,0,0,1,.24-.66C24.42,27.06,25,27.11,25.56,27.67ZM43,25.81a3.45,3.45,0,0,1,.36.32l.1.12.24.29.11.14c.1.14.2.29.29.44l-2.77.26v0a3.21,3.21,0,0,1,0-.53C41.35,25.67,42.05,25.07,43,25.81Z"/><polygon class="cls-7" points="18.5 55.63 16.5 53.63 16.48 29.89 18.5 31.63 18.5 55.63"/><polygon class="cls-8" points="51.5 51.63 18.5 55.63 18.5 36.63 51.5 32.63 51.5 51.63"/><rect class="De-emphasized-GREY-Fill-29" x="46.45" y="46.99" width="2" height="2" transform="translate(-4.17 4.51) rotate(-5.22)"/><path class="cls-9" d="M45.38,51.8A2.09,2.09,0,0,0,47.5,50V48.18c0-.9.53-1.68,1.72-1.23.87.32,2.12-.28,2.2.2a21.88,21.88,0,0,0,.08-2.86v2.5C51.5,49.08,45.38,51.8,45.38,51.8Z"/><path class="INSIDE-LINE-12" d="M43.5,52.63c1,0,4-1.5,4-2.65V48.2c0-.9.53-1.68,1.72-1.23.87.32,2.2-.64,2.28-.16"/><line class="INSIDE-LINE-12" x1="18.5" y1="37" x2="18.5" y2="55"/><path class="OUTLINE-27" d="M49.5,26.64,45.19,27a6.09,6.09,0,0,0-2-2.4c-1.56-1-3,.66-3,2.68a1,1,0,0,0,0,.17L27.46,28.64a5.7,5.7,0,0,0-1.58-2C24.41,25.53,23.1,26.17,23,28a5.06,5.06,0,0,0,0,1l-6.49.59,2,2h0l-2-1.72,0,23.72,2,2,25-3,0,0a2.36,2.36,0,0,0,.57-.1l7.42-.9v-23Zm-8.19.71c-.15-1.48.61-2.39,1.67-1.54a4.69,4.69,0,0,1,1.1,1.31l-2.77.26ZM23.86,28.56c-.05-1.38.72-1.78,1.7-.89a4.6,4.6,0,0,1,.83,1.06L23.9,29A2.85,2.85,0,0,1,23.86,28.56Z"/><polygon class="Blue-TOP-10" points="18.5 31.61 18.52 36.63 51.5 33.63 51.5 28.63 18.5 31.61"/><polygon class="cls-10" points="49.51 26.63 16.51 29.63 18.51 31.63 51.51 28.63 49.51 26.63"/><g class="cls-11"><path class="cls-12" d="M26.79,34.73A2.56,2.56,0,0,1,25.14,34a8.22,8.22,0,0,1-2.52-6c.1-1.39.82-2.26,1.88-2.26a2.77,2.77,0,0,1,1.57.59,7.56,7.56,0,0,1,2.54,6c-.13,1.76-1,2.39-1.82,2.39Zm-2.18-7.2a.29.29,0,0,0-.21.09,1.41,1.41,0,0,0-.21.92,7.08,7.08,0,0,0,1.7,4,1.19,1.19,0,0,0,.7.41.25.25,0,0,0,.19-.08,1.4,1.4,0,0,0,.24-1,6.19,6.19,0,0,0-1.68-4A1.19,1.19,0,0,0,24.61,27.53Z"/><path class="cls-13" d="M24.5,26.08a2.33,2.33,0,0,1,1.37.53,7.16,7.16,0,0,1,2.4,5.7c-.09,1.34-.68,2.08-1.48,2.08a2.24,2.24,0,0,1-1.43-.66A7.9,7.9,0,0,1,23,28c.09-1.24.71-1.94,1.54-1.94m2.09,7.22c.46,0,.77-.49.77-1.4a6.46,6.46,0,0,0-1.8-4.23,1.53,1.53,0,0,0-.95-.48c-.48,0-.78.49-.75,1.37a7.24,7.24,0,0,0,1.79,4.23,1.47,1.47,0,0,0,.94.51M24.5,25.41c-1.23,0-2.1,1-2.21,2.56a8.48,8.48,0,0,0,2.63,6.27,2.89,2.89,0,0,0,1.87.82c.95,0,2-.71,2.16-2.7a7.82,7.82,0,0,0-2.68-6.3,3,3,0,0,0-1.77-.65Zm2.06,7.21a1.21,1.21,0,0,1-.43-.31,6.62,6.62,0,0,1-1.6-3.78c0-.45.08-.65.12-.68a2,2,0,0,1,.46.32,5.87,5.87,0,0,1,1.58,3.73,1.47,1.47,0,0,1-.13.72Z"/></g><g class="cls-14"><path class="cls-15" d="M44.57,33.28A2.6,2.6,0,0,1,43,32.65c-.93-.71-3.09-2.67-3.09-5.35,0-1.87,1-3.33,2.37-3.33a2.06,2.06,0,0,1,1.13.36c1.66,1.05,3,3.82,3,6.17a3.69,3.69,0,0,1-.47,2,1.61,1.61,0,0,1-1.38.8Zm-2.36-7.44a.39.39,0,0,0-.29.13,1.86,1.86,0,0,0-.26,1.34,6.4,6.4,0,0,0,2,3.74,1.07,1.07,0,0,0,.68.36.22.22,0,0,0,.19-.08,1.67,1.67,0,0,0,.21-1.15,6.57,6.57,0,0,0-2-4.1A.93.93,0,0,0,42.21,25.84Z"/><path class="cls-13" d="M42.28,24.33a1.77,1.77,0,0,1,.94.29,7.64,7.64,0,0,1,2.85,5.88c0,1.54-.61,2.42-1.5,2.42a2.24,2.24,0,0,1-1.35-.55,6.81,6.81,0,0,1-3-5.07c0-1.6.88-3,2-3m2.08,7.44c.52,0,.83-.58.75-1.61A6.82,6.82,0,0,0,43,25.81a1.24,1.24,0,0,0-.77-.33c-.63,0-1,.78-.9,1.87a6.74,6.74,0,0,0,2.14,4,1.48,1.48,0,0,0,.91.45m-2.08-8.15c-1.53,0-2.72,1.62-2.72,3.68,0,2.84,2.26,4.89,3.23,5.63a2.9,2.9,0,0,0,1.78.7c1,0,2.21-.82,2.21-3.13A8.27,8.27,0,0,0,43.6,24a2.46,2.46,0,0,0-1.32-.41Zm2,7.43a1.1,1.1,0,0,1-.4-.26A6.05,6.05,0,0,1,42,27.28c-.07-.72.14-1.06.2-1.09s.12,0,.33.17a6.21,6.21,0,0,1,1.87,3.85,1.8,1.8,0,0,1-.09.84Z"/></g><g class="cls-11"><path class="cls-16" d="M24.5,26.08a2.33,2.33,0,0,1,1.37.53,7.16,7.16,0,0,1,2.4,5.7c-.09,1.34-.68,2.08-1.48,2.08a2.24,2.24,0,0,1-1.43-.66A7.9,7.9,0,0,1,23,28c.09-1.24.71-1.94,1.54-1.94m2.09,7.22c.46,0,.77-.49.77-1.4a6.46,6.46,0,0,0-1.8-4.23,1.53,1.53,0,0,0-.95-.48c-.48,0-.78.49-.75,1.37a7.24,7.24,0,0,0,1.79,4.23,1.47,1.47,0,0,0,.94.51M24.5,25.41c-1.23,0-2.1,1-2.21,2.56a8.48,8.48,0,0,0,2.63,6.27,2.89,2.89,0,0,0,1.87.82c.95,0,2-.71,2.16-2.7a7.82,7.82,0,0,0-2.68-6.3,3,3,0,0,0-1.77-.65Zm2.06,7.21a1.21,1.21,0,0,1-.43-.31,6.62,6.62,0,0,1-1.6-3.78c0-.45.08-.65.12-.68a2,2,0,0,1,.46.32,5.87,5.87,0,0,1,1.58,3.73,1.47,1.47,0,0,1-.13.72Z"/></g><g class="cls-14"><path class="cls-15" d="M44.57,33.28A2.6,2.6,0,0,1,43,32.65c-.93-.71-3.09-2.67-3.09-5.35,0-1.87,1-3.33,2.37-3.33a2.06,2.06,0,0,1,1.13.36c1.66,1.05,3,3.82,3,6.17a3.69,3.69,0,0,1-.47,2,1.61,1.61,0,0,1-1.38.8Zm-2.36-7.44a.39.39,0,0,0-.29.13,1.86,1.86,0,0,0-.26,1.34,6.4,6.4,0,0,0,2,3.74,1.07,1.07,0,0,0,.68.36.22.22,0,0,0,.19-.08,1.67,1.67,0,0,0,.21-1.15,6.57,6.57,0,0,0-2-4.1A.93.93,0,0,0,42.21,25.84Z"/><path class="cls-16" d="M42.28,24.33a1.77,1.77,0,0,1,.94.29,7.64,7.64,0,0,1,2.85,5.88c0,1.54-.61,2.42-1.5,2.42a2.24,2.24,0,0,1-1.35-.55,6.81,6.81,0,0,1-3-5.07c0-1.6.88-3,2-3m2.08,7.44c.52,0,.83-.58.75-1.61A6.82,6.82,0,0,0,43,25.81a1.24,1.24,0,0,0-.77-.33c-.63,0-1,.78-.9,1.87a6.74,6.74,0,0,0,2.14,4,1.48,1.48,0,0,0,.91.45m-2.08-8.15c-1.53,0-2.72,1.62-2.72,3.68,0,2.84,2.26,4.89,3.23,5.63a2.9,2.9,0,0,0,1.78.7c1,0,2.21-.82,2.21-3.13A8.27,8.27,0,0,0,43.6,24a2.46,2.46,0,0,0-1.32-.41Zm2,7.43a1.1,1.1,0,0,1-.4-.26A6.05,6.05,0,0,1,42,27.28c-.07-.72.14-1.06.2-1.09s.12,0,.33.17a6.21,6.21,0,0,1,1.87,3.85,1.8,1.8,0,0,1-.09.84Z"/></g><rect class="cls-17" x="31.6" y="38.31" width="2" height="2" transform="translate(-2.79 2.5) rotate(-4.2)"/><rect class="cls-18" x="36.58" y="37.95" width="2" height="2" transform="translate(-2.75 2.86) rotate(-4.2)"/><rect class="cls-19" x="41.57" y="37.58" width="2" height="2" transform="translate(-2.71 3.22) rotate(-4.2)"/><rect class="cls-20" x="46.55" y="37.22" width="2" height="2" transform="translate(-2.67 3.59) rotate(-4.2)"/><rect class="cls-21" x="21.53" y="44.05" width="2" height="2" transform="translate(-3.24 1.77) rotate(-4.2)"/><rect class="cls-22" x="26.52" y="43.68" width="2" height="2" transform="translate(-3.2 2.14) rotate(-4.2)"/><rect class="cls-23" x="31.51" y="43.31" width="2" height="2" transform="translate(-3.16 2.5) rotate(-4.2)"/><rect class="cls-24" x="36.49" y="42.95" width="2" height="2" transform="translate(-3.12 2.87) rotate(-4.2)"/><rect class="De-emphasized-GREY-Fill-29" x="41.48" y="42.58" width="2" height="2" transform="translate(-3.08 3.23) rotate(-4.2)"/><rect class="De-emphasized-GREY-Fill-29" x="46.47" y="42.21" width="2" height="2" transform="translate(-3.04 3.6) rotate(-4.2)"/><g class="cls-25"><rect class="cls-26" x="21.45" y="49.05" width="2" height="2" transform="translate(-3.61 1.78) rotate(-4.2)"/><rect class="cls-26" x="26.43" y="48.68" width="2" height="2" transform="translate(-3.57 2.14) rotate(-4.2)"/><rect class="cls-26" x="31.42" y="48.31" width="2" height="2" transform="translate(-3.53 2.51) rotate(-4.2)"/><rect class="cls-26" x="36.4" y="47.95" width="2" height="2" transform="translate(-3.49 2.87) rotate(-4.2)"/><rect class="cls-26" x="41.39" y="47.58" width="2" height="2" transform="translate(-3.45 3.24) rotate(-4.2)"/><rect class="cls-27" x="21.45" y="49.05" width="2" height="2" transform="translate(-3.61 1.78) rotate(-4.2)"/><rect class="cls-28" x="26.43" y="48.68" width="2" height="2" transform="translate(-3.57 2.14) rotate(-4.2)"/><rect class="cls-29" x="31.42" y="48.31" width="2" height="2" transform="translate(-3.53 2.51) rotate(-4.2)"/><rect class="cls-30" x="36.4" y="47.95" width="2" height="2" transform="translate(-3.49 2.87) rotate(-4.2)"/><rect class="cls-31" x="41.39" y="47.58" width="2" height="2" transform="translate(-3.45 3.24) rotate(-4.2)"/></g><g class="cls-25"><rect class="cls-1" x="46.75" y="40.5" width="2.5" height="2.5"/><rect class="cls-1" x="45.08" y="38" width="5.83" height="2.5" rx="1.25"/><rect class="cls-1" x="53.72" y="42.6" width="2" height="3.41" transform="translate(-14.91 54.7) rotate(-47.49)"/><rect class="cls-1" x="40.01" y="43.3" width="3.41" height="2" transform="translate(-18.97 39.83) rotate(-42.51)"/><circle class="cls-1" cx="48.5" cy="50.5" r="8"/><circle class="cls-1" cx="48.5" cy="50.5" r="6"/><path class="cls-1" d="M50.5,52.65,48.75,50.9V46.76a.54.54,0,0,0-.54-.53h-.08a.54.54,0,0,0-.54.53v4.62l.63.62,1.46,1.47a.56.56,0,0,0,.76,0l.06-.07A.53.53,0,0,0,50.5,52.65Z"/><path class="cls-1" d="M50.5,52.65,48.75,50.9V46.76a.54.54,0,0,0-.54-.53h-.08a.54.54,0,0,0-.54.53v4.62l.63.62,1.46,1.47a.56.56,0,0,0,.76,0l.06-.07A.53.53,0,0,0,50.5,52.65Z"/><path class="cls-1" d="M43.77,44.05a8,8,0,0,1,3-1.35V40.5h-.42a1.25,1.25,0,0,1,0-2.5h3.34a1.25,1.25,0,0,1,0,2.5h-.42v2a7.89,7.89,0,0,1,3.61,1.26l1.27-1.39,2.52,2.31L55.3,46.19l-.15-.13a8,8,0,1,1-13.62.51c.06-.11-.4-.38-.4-.38l-1.35-1.47,2.52-2.31,1.35,1.48S43.62,44.16,43.77,44.05Z"/><rect class="cls-32" x="46.75" y="40.5" width="2.5" height="2.5"/><rect class="cls-33" x="45.08" y="38" width="5.83" height="2.5" rx="1.25"/><rect class="cls-34" x="53.72" y="42.6" width="2" height="3.41" transform="translate(-14.91 54.7) rotate(-47.49)"/><rect class="cls-35" x="40.01" y="43.3" width="3.41" height="2" transform="translate(-18.97 39.83) rotate(-42.51)"/><circle class="cls-36" cx="48.5" cy="50.5" r="8"/><circle class="cls-37" cx="48.5" cy="50.5" r="6"/><path class="cls-38" d="M50.5,52.65,48.75,50.9V46.76a.54.54,0,0,0-.54-.53h-.08a.54.54,0,0,0-.54.53v4.62l.63.62,1.46,1.47a.56.56,0,0,0,.76,0l.06-.07A.53.53,0,0,0,50.5,52.65Z"/><path class="cls-39" d="M50.5,52.65,48.75,50.9V46.76a.54.54,0,0,0-.54-.53h-.08a.54.54,0,0,0-.54.53v4.62l.63.62,1.46,1.47a.56.56,0,0,0,.76,0l.06-.07A.53.53,0,0,0,50.5,52.65Z"/><path class="OUTLINE-27" d="M43.77,44.05a8,8,0,0,1,3-1.35V40.5h-.42a1.25,1.25,0,0,1,0-2.5h3.34a1.25,1.25,0,0,1,0,2.5h-.42v2a7.89,7.89,0,0,1,3.61,1.26l1.27-1.39,2.52,2.31L55.3,46.19l-.15-.13a8,8,0,1,1-13.62.51c.06-.11-.4-.38-.4-.38l-1.35-1.47,2.52-2.31,1.35,1.48S43.62,44.16,43.77,44.05Z"/><rect class="cls-40" x="46.75" y="40.5" width="2.5" height="2.5"/><rect class="cls-40" x="45.08" y="38" width="5.83" height="2.5" rx="1.25"/><rect class="cls-40" x="53.72" y="42.6" width="2" height="3.41" transform="translate(-14.91 54.7) rotate(-47.49)"/><rect class="cls-40" x="40.01" y="43.3" width="3.41" height="2" transform="translate(-18.97 39.83) rotate(-42.51)"/><circle class="cls-40" cx="48.5" cy="50.5" r="8"/><circle class="cls-40" cx="48.5" cy="50.5" r="6"/><path class="cls-40" d="M50.5,52.65,48.75,50.9V46.76a.54.54,0,0,0-.54-.53h-.08a.54.54,0,0,0-.54.53v4.62l.63.62,1.46,1.47a.56.56,0,0,0,.76,0l.06-.07A.53.53,0,0,0,50.5,52.65Z"/><path class="cls-40" d="M50.5,52.65,48.75,50.9V46.76a.54.54,0,0,0-.54-.53h-.08a.54.54,0,0,0-.54.53v4.62l.63.62,1.46,1.47a.56.56,0,0,0,.76,0l.06-.07A.53.53,0,0,0,50.5,52.65Z"/><path class="cls-40" d="M43.77,44.05a8,8,0,0,1,3-1.35V40.5h-.42a1.25,1.25,0,0,1,0-2.5h3.34a1.25,1.25,0,0,1,0,2.5h-.42v2a7.89,7.89,0,0,1,3.61,1.26l1.27-1.39,2.52,2.31L55.3,46.19l-.15-.13a8,8,0,1,1-13.62.51c.06-.11-.4-.38-.4-.38l-1.35-1.47,2.52-2.31,1.35,1.48S43.62,44.16,43.77,44.05Z"/></g><rect class="cls-32" x="46.75" y="40.5" width="2.5" height="2.5"/><rect class="cls-33" x="45.08" y="38" width="5.83" height="2.5" rx="1.25"/><rect class="cls-41" x="53.72" y="42.6" width="2" height="3.41" transform="translate(124.35 33.9) rotate(132.51)"/><rect class="cls-42" x="40.72" y="42.6" width="2" height="3.41" transform="translate(46.18 -16.39) rotate(47.49)"/><circle class="cls-36" cx="48.5" cy="50.5" r="8"/><circle class="cls-37" cx="48.5" cy="50.5" r="6"/><path class="cls-38" d="M50.5,52.65,48.75,50.9V46.76a.54.54,0,0,0-.54-.53h-.08a.54.54,0,0,0-.54.53v4.62l.63.62,1.46,1.47a.56.56,0,0,0,.76,0l.06-.07A.53.53,0,0,0,50.5,52.65Z"/><path class="cls-39" d="M50.5,52.65,48.75,50.9V46.76a.54.54,0,0,0-.54-.53h-.08a.54.54,0,0,0-.54.53v4.62l.63.62,1.46,1.47a.56.56,0,0,0,.76,0l.06-.07A.53.53,0,0,0,50.5,52.65Z"/><path class="OUTLINE-27" d="M43.77,44.05a8,8,0,0,1,3-1.35V40.5h-.42a1.25,1.25,0,0,1,0-2.5h3.34a1.25,1.25,0,0,1,0,2.5h-.42v2a7.89,7.89,0,0,1,3.61,1.26l1.27-1.39,2.52,2.31L55.3,46.19l-.15-.13a8,8,0,1,1-13.62.51c.06-.11-.4-.38-.4-.38l-1.35-1.47,2.52-2.31,1.35,1.48S43.62,44.16,43.77,44.05Z"/></g></svg>