<svg xmlns="http://www.w3.org/2000/svg" xmlns:xlink="http://www.w3.org/1999/xlink" viewBox="0 0 64 64"><defs><style>.cls-1{fill:url(#linear-gradient);}.cls-2{fill:url(#linear-gradient-2);}.cls-3{fill:url(#linear-gradient-3);}.cls-4{fill:url(#linear-gradient-4);}.DARK-GREY-Fill-11{fill:url(#linear-gradient-5);}.De-emphasized-WHITE-for-Vector-Highlights-22,.cls-10,.cls-11,.cls-25{fill:#fff;}.De-emphasized-WHITE-for-Vector-Highlights-22,.cls-15,.cls-25{stroke:#fff;}.De-emphasized-WHITE-for-Vector-Highlights-22,.cls-13,.cls-15,.cls-21,.cls-22,.cls-23,.cls-25,.cls-26,.cls-27,.cls-9{stroke-linejoin:round;}.De-emphasized-WHITE-for-Vector-Highlights-22,.cls-15{stroke-width:3px;}.De-emphasized-WHITE-for-Vector-Highlights-22,.cls-14,.cls-25{opacity:0.5;}.cls-5{fill:#113553;}.cls-6{fill:url(#linear-gradient-6);}.cls-7{fill:url(#linear-gradient-7);}.cls-8{stroke:#787878;stroke-width:0.78px;fill:url(#linear-gradient-8);}.cls-16,.cls-17,.cls-18,.cls-19,.cls-20,.cls-8{stroke-miterlimit:10;}.cls-13,.cls-15,.cls-16,.cls-17,.cls-18,.cls-19,.cls-20,.cls-21,.cls-22,.cls-23,.cls-9{fill:none;}.cls-16,.cls-23,.cls-26,.cls-27,.cls-9{stroke:#113553;}.cls-9{stroke-width:1.1px;}.cls-11{opacity:0.8;}.cls-12{opacity:0.6;fill:url(#linear-gradient-9);}.cls-13{stroke-width:1.15px;stroke:url(#linear-gradient-10);}.cls-16,.cls-17,.cls-18,.cls-19,.cls-20,.cls-21,.cls-22,.cls-23{stroke-width:0.62px;}.cls-17{stroke:url(#linear-gradient-11);}.cls-18{stroke:url(#linear-gradient-12);}.cls-19{stroke:url(#linear-gradient-13);}.cls-20{stroke:url(#linear-gradient-14);}.cls-21{stroke:url(#linear-gradient-15);}.cls-22{stroke:url(#linear-gradient-16);}.cls-24{fill:url(#linear-gradient-17);}.cls-25{stroke-width:3.68px;}.cls-26,.cls-27{stroke-width:1.23px;}.cls-26{fill:url(#linear-gradient-18);}.cls-27{fill:url(#linear-gradient-19);}.cls-28{fill:url(#linear-gradient-20);}</style><linearGradient id="linear-gradient" x1="7.76" y1="30.52" x2="19.54" y2="50.93" gradientUnits="userSpaceOnUse"><stop offset="0" stop-color="#2f85b1"/><stop offset="1" stop-color="#285677"/></linearGradient><linearGradient id="linear-gradient-2" x1="18.67" y1="23.08" x2="32.62" y2="47.24" xlink:href="#linear-gradient"/><linearGradient id="linear-gradient-3" x1="32.19" y1="25.2" x2="43.1" y2="44.11" xlink:href="#linear-gradient"/><linearGradient id="linear-gradient-4" x1="41.81" y1="11.47" x2="57.49" y2="38.63" xlink:href="#linear-gradient"/><linearGradient id="linear-gradient-5" x1="6.98" y1="48.07" x2="57.73" y2="48.07" gradientTransform="translate(-13.34 11.51) rotate(-17.15)" gradientUnits="userSpaceOnUse"><stop offset="0" stop-color="#4e4a48"/><stop offset="1" stop-color="#201d1a"/></linearGradient><linearGradient id="linear-gradient-6" x1="29.97" y1="45.37" x2="33.39" y2="51.28" xlink:href="#linear-gradient"/><linearGradient id="linear-gradient-7" x1="29.97" y1="42.24" x2="33.39" y2="48.15" xlink:href="#linear-gradient"/><linearGradient id="linear-gradient-8" x1="26.1" y1="20.26" x2="39.29" y2="43.09" gradientUnits="userSpaceOnUse"><stop offset="0" stop-color="#fff"/><stop offset="1" stop-color="#d2d2d2"/></linearGradient><linearGradient id="linear-gradient-9" x1="26.27" y1="20.45" x2="28.79" y2="33.94" gradientUnits="userSpaceOnUse"><stop offset="0" stop-color="#fff"/><stop offset="1" stop-color="#fff" stop-opacity="0"/></linearGradient><linearGradient id="linear-gradient-10" x1="25.28" y1="18.99" x2="40.23" y2="44.88" gradientUnits="userSpaceOnUse"><stop offset="0" stop-color="#b5e1f8"/><stop offset="1" stop-color="#84c7e6"/></linearGradient><linearGradient id="linear-gradient-11" x1="29.23" y1="34.72" x2="27.87" y2="32.36" gradientTransform="translate(32.08 -10.36) rotate(45)" xlink:href="#linear-gradient-10"/><linearGradient id="linear-gradient-12" x1="36.09" y1="30.98" x2="34.73" y2="28.62" gradientTransform="translate(31.44 -16.31) rotate(45)" xlink:href="#linear-gradient-10"/><linearGradient id="linear-gradient-13" x1="30.05" y1="25.65" x2="31.88" y2="28.83" xlink:href="#linear-gradient-10"/><linearGradient id="linear-gradient-14" x1="33.47" y1="17.71" x2="35.3" y2="20.89" gradientTransform="translate(68 56.06) rotate(180)" xlink:href="#linear-gradient-10"/><linearGradient id="linear-gradient-15" x1="28.18" y1="28.05" x2="30.19" y2="31.52" xlink:href="#linear-gradient-10"/><linearGradient id="linear-gradient-16" x1="44.31" y1="36.68" x2="46.31" y2="40.15" gradientTransform="translate(81 72.11) rotate(180)" xlink:href="#linear-gradient-10"/><linearGradient id="linear-gradient-17" x1="34.38" y1="42.78" x2="32.83" y2="40.1" xlink:href="#linear-gradient-10"/><linearGradient id="linear-gradient-18" x1="41.62" y1="28.74" x2="45.44" y2="35.35" gradientUnits="userSpaceOnUse"><stop offset="0" stop-color="#91c3e2"/><stop offset="1" stop-color="#285677"/></linearGradient><linearGradient id="linear-gradient-19" x1="40.31" y1="18.79" x2="46.22" y2="29.03" xlink:href="#linear-gradient-10"/><linearGradient id="linear-gradient-20" x1="42.83" y1="21.8" x2="44.85" y2="25.29" gradientUnits="userSpaceOnUse"><stop offset="0" stop-color="#fff"/><stop offset="1" stop-color="#f6f6f7"/></linearGradient></defs><g id="Calque_7" data-name="Calque 7"><path class="cls-1" d="M18,51.81l-8,2V30.39a2,2,0,0,1,1.53-2l4-1a2,2,0,0,1,2.51,2Z"/><path class="cls-2" d="M30,48.75l-8,2V22.33a2,2,0,0,1,1.53-2l4-1a2,2,0,0,1,2.51,2Z"/><path class="cls-3" d="M42,44.75l-8,2V25.33a2,2,0,0,1,1.53-2l4-1a2,2,0,0,1,2.51,2Z"/><path class="cls-4" d="M54,40.64l-8,2V10.22a2,2,0,0,1,1.53-2l4-1a2,2,0,0,1,2.51,2Z"/><polygon class="DARK-GREY-Fill-11" points="8 52.95 55.35 38.34 55.53 42.84 8 57 8 52.95"/></g><g id="v3"><path class="De-emphasized-WHITE-for-Vector-Highlights-22" d="M32,17.62a12.08,12.08,0,0,0-2.76.33l-.19.05a12,12,0,0,0-9,11.62c0,.74.21,2.2.21,2.21V31.7A7.27,7.27,0,0,0,20.83,34a12.15,12.15,0,0,0,1.58,2.85l.1.14,0,.06a9.41,9.41,0,0,0,1.28,1.4c.22.21.36.32.36.32a5.14,5.14,0,0,1,1.8,3.9v1.9c-.37.2-.58.42-.58.66s.31.55.85.78c-.54.23-.85.5-.85.78s.31.55.85.78c-.54.24-.85.5-.85.79s.47.67,1.25.93a.83.83,0,0,0-.47.63c0,.51.87,1,2.2,1.25a15.41,15.41,0,0,0,3.6.39c3,0,5.5-.71,5.5-1.57,0-.23-.17-.44-.47-.64.79-.26,1.26-.58,1.26-.93s-.32-.56-.85-.79c.53-.23.85-.5.85-.79s-.32-.55-.85-.78c.53-.23.85-.5.85-.79a.65.65,0,0,0-.29-.46V42.64a5.13,5.13,0,0,1,1.8-3.91A12,12,0,0,0,32,17.62Z"/><ellipse class="cls-5" cx="31.68" cy="49.89" rx="5.48" ry="1.56"/><ellipse class="cls-6" cx="31.68" cy="48.33" rx="6.26" ry="1.56"/><ellipse class="cls-5" cx="31.68" cy="46.76" rx="6.26" ry="1.56"/><ellipse class="cls-7" cx="31.68" cy="45.2" rx="6.26" ry="1.56"/><path class="cls-8" d="M21.18,31.45a6.9,6.9,0,0,0,.58,2.08,10.92,10.92,0,0,0,1.45,2.61l.09.13,0,0a9,9,0,0,0,1.18,1.29c.2.19.33.29.33.29a4.7,4.7,0,0,1,1.65,3.58v2.2c0,.79,1.57,1.58,5.5,1.58s5.5-.79,5.5-1.58V41.47a4.69,4.69,0,0,1,1.65-3.58A11,11,0,0,0,32,18.54a10.64,10.64,0,0,0-2.53.31l-.17,0A11,11,0,0,0,21,29.54c0,.68.19,2,.19,2Z"/><path class="cls-9" d="M26.5,42v1.63c0,.79,1.57,1.57,5.5,1.57s5.5-.78,5.5-1.57V42"/><path class="cls-10" d="M37,28.25l.15.69a2,2,0,0,0,1.56-.26c1.23-.88,1-3.3-.5-5.41-1.31-1.84-3.17-2.84-4.44-2.48a19.62,19.62,0,0,1,2.74,5.6C36.73,27,36.85,27.65,37,28.25Z"/><path class="cls-11" d="M23.71,33c0,1.93,2.5,4.28,3.33,5.06s.83,2.35,1,3.91v.78c-.13.79,1.54.79,2,.79V42c-.46-2.35-.6-4-2.13-5.48A9.41,9.41,0,0,1,25.37,33Z"/><path class="cls-12" d="M27.12,25c-1.83,2.74-2.59,6.54-3.65,5.47-.92-.91,0-5.47,2.16-8.31,1.52-2,3.92-3.54,5.14-2.64S28.51,22.89,27.12,25Z"/><path class="cls-13" d="M37.56,45.76a.91.91,0,0,0,.44-.71V42.64a5.13,5.13,0,0,1,1.8-3.91A12,12,0,0,0,29.24,18l-.19.05a12,12,0,0,0-9,11.62c0,.74.21,2.2.21,2.21V31.7A7.27,7.27,0,0,0,20.83,34a12.15,12.15,0,0,0,1.58,2.85l.1.14,0,.06a9.41,9.41,0,0,0,1.28,1.4c.22.21.36.32.36.32a5.14,5.14,0,0,1,1.8,3.9v2.41a.91.91,0,0,0,.44.71"/><path class="cls-9" d="M37.09,44.34a.84.84,0,0,0,.41-.65V41.47a4.72,4.72,0,0,1,1.65-3.58A11,11,0,0,0,32,18.54a10.64,10.64,0,0,0-2.53.31l-.17,0A11,11,0,0,0,21,29.54c0,.68.19,2,.19,2v-.12a6.9,6.9,0,0,0,.58,2.08,10.92,10.92,0,0,0,1.45,2.61l.09.13,0,0a9,9,0,0,0,1.18,1.29c.2.19.33.29.33.29a4.7,4.7,0,0,1,1.65,3.58v2.21a.84.84,0,0,0,.41.65"/><path class="cls-9" d="M32,18.53a10.88,10.88,0,0,0-2.53.3l-.17.05A11,11,0,0,0,21,29.53c0,.67.19,2,.19,2v-.12a7,7,0,0,0,.58,2.09,10.92,10.92,0,0,0,1.45,2.61l.09.12,0,.06a9,9,0,0,0,1.18,1.29c.2.19.33.29.33.29a4.69,4.69,0,0,1,1.65,3.58v2.2a.83.83,0,0,0,.41.65c-.75.26-1.2.58-1.2.92s.32.56.85.79c-.53.23-.85.5-.85.78s.32.56.85.79c-.53.23-.85.5-.85.79s.47.67,1.26.93c-.3.2-.47.41-.47.64,0,.86,2.46,1.57,5.5,1.57s5.5-.71,5.5-1.57c0-.23-.17-.44-.47-.64.79-.26,1.26-.58,1.26-.93s-.32-.56-.85-.79c.53-.23.85-.5.85-.79s-.32-.55-.85-.78c.53-.23.85-.5.85-.79s-.45-.66-1.2-.92a.83.83,0,0,0,.41-.65V41.46a4.72,4.72,0,0,1,1.65-3.59A11,11,0,0,0,32,18.53Z"/><g class="cls-14"><path class="cls-10" d="M27.85,30.52c-.85.64-2.39,2.35-2,3.15a1.89,1.89,0,0,0,2,1.06,1.3,1.3,0,0,0,.55-.3Z"/><path class="cls-10" d="M36.1,33.48c.86-.64,2.4-2.35,2-3.15a1.87,1.87,0,0,0-2-1.06,1.24,1.24,0,0,0-.55.3Z"/><path class="cls-10" d="M29.54,28.4l3.92-.53c-.64-.85-2.35-2.39-3.16-2a1.85,1.85,0,0,0-1.05,2A1.34,1.34,0,0,0,29.54,28.4Z"/><path class="cls-10" d="M35,35.6l-3.92.53c.64.85,2.35,2.39,3.16,2a1.87,1.87,0,0,0,1-2A1.34,1.34,0,0,0,35,35.6Z"/><path class="cls-10" d="M30.38,30.76A1.43,1.43,0,0,0,31,29.54v-.68l-2.76.69a4.93,4.93,0,0,1,.27.56S29.37,31.41,30.38,30.76Z"/><path class="cls-10" d="M26.37,30.11l2.23-.56C27.44,27.42,26.37,30.11,26.37,30.11Z"/><path class="cls-10" d="M36,33.86c1.16,2.13,2.24-.56,2.24-.56Z"/><path class="cls-10" d="M33.62,32.65A1.43,1.43,0,0,0,33,33.87v.68l2.76-.69a4.93,4.93,0,0,1-.27-.56S34.63,32,33.62,32.65Z"/><path class="cls-10" d="M30.45,35.08c-2.13,1.16.56,2.24.56,2.24Z"/><path class="cls-10" d="M31.66,32.62A1.43,1.43,0,0,0,30.44,32h-.68l.69,2.76a4.93,4.93,0,0,1,.56-.27S32.31,33.63,31.66,32.62Z"/><path class="cls-10" d="M32.92,30.38a1.43,1.43,0,0,0,1.23.62h.67l-.69-2.76a4.93,4.93,0,0,1-.56.27S32.27,29.37,32.92,30.38Z"/><path class="cls-10" d="M33.57,26.09l.56,2.24C36.26,27.17,33.57,26.09,33.57,26.09Z"/><polygon class="cls-10" points="33 43 34 43 34 39.5 33 40 33 43"/><polygon class="cls-10" points="31 43 32 43 32 40 31 39.5 31 43"/><path class="cls-5" d="M27.85,30.52c-.85.64-2.39,2.35-2,3.15a1.89,1.89,0,0,0,2,1.06,1.3,1.3,0,0,0,.55-.3Z"/><path class="cls-5" d="M36.1,33.48c.86-.64,2.4-2.35,2-3.15a1.87,1.87,0,0,0-2-1.06,1.24,1.24,0,0,0-.55.3Z"/><path class="cls-5" d="M29.54,28.4l3.92-.53c-.64-.85-2.35-2.39-3.16-2a1.85,1.85,0,0,0-1.05,2A1.34,1.34,0,0,0,29.54,28.4Z"/><path class="cls-5" d="M35,35.6l-3.92.53c.64.85,2.35,2.39,3.16,2a1.87,1.87,0,0,0,1-2A1.34,1.34,0,0,0,35,35.6Z"/><path class="cls-5" d="M30.38,30.76A1.43,1.43,0,0,0,31,29.54v-.68l-2.76.69a4.93,4.93,0,0,1,.27.56S29.37,31.41,30.38,30.76Z"/><path class="cls-5" d="M26.37,30.11l2.23-.56C27.44,27.42,26.37,30.11,26.37,30.11Z"/><path class="cls-5" d="M36,33.86c1.16,2.13,2.24-.56,2.24-.56Z"/><path class="cls-5" d="M33.62,32.65A1.43,1.43,0,0,0,33,33.87v.68l2.76-.69a4.93,4.93,0,0,1-.27-.56S34.63,32,33.62,32.65Z"/><path class="cls-5" d="M30.45,35.08c-2.13,1.16.56,2.24.56,2.24Z"/><path class="cls-5" d="M31.66,32.62A1.43,1.43,0,0,0,30.44,32h-.68l.69,2.76a4.93,4.93,0,0,1,.56-.27S32.31,33.63,31.66,32.62Z"/><path class="cls-5" d="M32.92,30.38a1.43,1.43,0,0,0,1.23.62h.67l-.69-2.76a4.93,4.93,0,0,1-.56.27S32.27,29.37,32.92,30.38Z"/><path class="cls-5" d="M33.57,26.09l.56,2.24C36.26,27.17,33.57,26.09,33.57,26.09Z"/><polygon class="cls-5" points="33 43 34 43 34 39.5 33 40 33 43"/><polygon class="cls-5" points="31 43 32 43 32 40 31 39.5 31 43"/><path class="cls-15" d="M27.85,30.52c-.85.64-2.39,2.35-2,3.15a1.89,1.89,0,0,0,2,1.06,1.3,1.3,0,0,0,.55-.3Z"/><path class="cls-15" d="M36.1,33.48c.86-.64,2.4-2.35,2-3.15a1.87,1.87,0,0,0-2-1.06,1.24,1.24,0,0,0-.55.3Z"/><path class="cls-15" d="M29.54,28.4l3.92-.53c-.64-.85-2.35-2.39-3.16-2a1.85,1.85,0,0,0-1.05,2A1.34,1.34,0,0,0,29.54,28.4Z"/><path class="cls-15" d="M35,35.6l-3.92.53c.64.85,2.35,2.39,3.16,2a1.87,1.87,0,0,0,1-2A1.34,1.34,0,0,0,35,35.6Z"/><path class="cls-15" d="M30.38,30.76A1.43,1.43,0,0,0,31,29.54v-.68l-2.76.69a4.93,4.93,0,0,1,.27.56S29.37,31.41,30.38,30.76Z"/><path class="cls-15" d="M26.37,30.11l2.23-.56C27.44,27.42,26.37,30.11,26.37,30.11Z"/><path class="cls-15" d="M36,33.86c1.16,2.13,2.24-.56,2.24-.56Z"/><path class="cls-15" d="M33.62,32.65A1.43,1.43,0,0,0,33,33.87v.68l2.76-.69a4.93,4.93,0,0,1-.27-.56S34.63,32,33.62,32.65Z"/><path class="cls-15" d="M30.45,35.08c-2.13,1.16.56,2.24.56,2.24Z"/><path class="cls-15" d="M31.66,32.62A1.43,1.43,0,0,0,30.44,32h-.68l.69,2.76a4.93,4.93,0,0,1,.56-.27S32.31,33.63,31.66,32.62Z"/><path class="cls-15" d="M32.92,30.38a1.43,1.43,0,0,0,1.23.62h.67l-.69-2.76a4.93,4.93,0,0,1-.56.27S32.27,29.37,32.92,30.38Z"/><path class="cls-15" d="M33.57,26.09l.56,2.24C36.26,27.17,33.57,26.09,33.57,26.09Z"/><polygon class="cls-15" points="33 43 34 43 34 39.5 33 40 33 43"/><polygon class="cls-15" points="31 43 32 43 32 40 31 39.5 31 43"/></g><rect class="cls-16" x="29.1" y="28.55" width="2.65" transform="translate(-11.28 29.87) rotate(-45)"/><rect class="cls-16" x="32.84" y="35.41" width="2.65" transform="translate(-15.03 34.53) rotate(-45)"/><rect class="cls-17" x="28.55" y="32.22" height="2.65" transform="translate(-15.36 30.01) rotate(-45)"/><rect class="cls-18" x="35.41" y="28.48" height="2.65" transform="translate(-10.7 33.77) rotate(-45)"/><path class="cls-16" d="M27.85,30.52c-.85.64-2.39,2.35-2,3.15a1.89,1.89,0,0,0,2,1.06,1.3,1.3,0,0,0,.55-.3"/><path class="cls-16" d="M36.1,33.48c.86-.64,2.4-2.35,2-3.15a1.87,1.87,0,0,0-2-1.06,1.24,1.24,0,0,0-.55.3"/><path class="cls-19" d="M33.46,27.87c-.64-.85-2.35-2.39-3.16-2a1.85,1.85,0,0,0-1.05,2,1.34,1.34,0,0,0,.29.55"/><path class="cls-20" d="M31.12,36.13c.64.85,2.35,2.39,3.16,2a1.87,1.87,0,0,0,1-2A1.34,1.34,0,0,0,35,35.6"/><path class="cls-21" d="M26.51,30.11s1.25-3.12,2.5,0c0,0,.86,1.3,1.87.65a1.43,1.43,0,0,0,.62-1.22V29"/><path class="cls-22" d="M38.49,33.3s-1.25,3.12-2.5,0c0,0-.86-1.3-1.87-.65a1.43,1.43,0,0,0-.62,1.22V35"/><path class="cls-23" d="M31,37.49s-3.12-1.25,0-2.5c0,0,1.3-.86.65-1.87a1.43,1.43,0,0,0-1.22-.62H30"/><path class="cls-23" d="M33.57,26.51s3.12,1.25,0,2.5c0,0-1.3.86-.65,1.87a1.43,1.43,0,0,0,1.23.62H35"/><polygon class="cls-24" points="34 43 34 39.5 33 40 33 43 34 43"/><polygon class="cls-5" points="31 43 31 39.5 32 40 32 43 31 43"/><path class="cls-25" d="M43,30.11a6.2,6.2,0,0,0,1.57-.19A6.65,6.65,0,0,0,46,29.39v5.09a.41.41,0,0,1-.43.43.4.4,0,0,1-.29-.12L43,32.51l-2.28,2.28a.4.4,0,0,1-.29.12.41.41,0,0,1-.43-.43V29.39a6.56,6.56,0,0,0,3,.72Z"/><path class="cls-25" d="M43.26,18a5.73,5.73,0,0,1,2.3.46,6,6,0,0,1,1.89,1.27,6.06,6.06,0,0,1,1.27,1.88,5.94,5.94,0,0,1,.46,2.3,5.85,5.85,0,0,1-1.73,4.18,6.16,6.16,0,0,1-1.89,1.27,5.86,5.86,0,0,1-4.6,0,6,6,0,0,1-1.87-1.27,5.83,5.83,0,0,1-1.27-1.88,5.7,5.7,0,0,1-.47-2.3,5.77,5.77,0,0,1,.47-2.3,6.06,6.06,0,0,1,1.27-1.88A5.81,5.81,0,0,1,43.26,18Z"/><path class="cls-26" d="M43.5,30.11a6.2,6.2,0,0,0,1.57-.19,6.65,6.65,0,0,0,1.43-.53v5.09a.41.41,0,0,1-.43.43.4.4,0,0,1-.29-.12L43.5,32.51l-2.28,2.28a.4.4,0,0,1-.29.12.41.41,0,0,1-.43-.43V29.39a6.56,6.56,0,0,0,3,.72Z"/><path class="cls-27" d="M43.26,18a5.73,5.73,0,0,1,2.3.46,6,6,0,0,1,1.89,1.27,6.06,6.06,0,0,1,1.27,1.88,5.94,5.94,0,0,1,.46,2.3,5.85,5.85,0,0,1-1.73,4.18,6.16,6.16,0,0,1-1.89,1.27,5.86,5.86,0,0,1-4.6,0,6,6,0,0,1-1.87-1.27,5.83,5.83,0,0,1-1.27-1.88,5.7,5.7,0,0,1-.47-2.3,5.77,5.77,0,0,1,.47-2.3,6.06,6.06,0,0,1,1.27-1.88A5.81,5.81,0,0,1,43.26,18Z"/><path class="cls-28" d="M46.46,21.05a.61.61,0,0,1,.45.19.66.66,0,0,1,.15.22.67.67,0,0,1,0,.24.62.62,0,0,1-.19.46l-4.61,4.6-2.36-2.35a.63.63,0,0,1-.2-.46.69.69,0,0,1,0-.24.78.78,0,0,1,.15-.22.61.61,0,0,1,.45-.19.65.65,0,0,1,.46.19l1.45,1.45,3.7-3.7a1.07,1.07,0,0,1,.22-.15A.67.67,0,0,1,46.46,21.05Z"/></g></svg>