<svg xmlns="http://www.w3.org/2000/svg" xmlns:xlink="http://www.w3.org/1999/xlink" width="64" height="64" viewBox="0 0 64 64">
  <defs>
    <linearGradient id="a" x1="0.253" y1="50.31" x2="61.537" y2="14.928" gradientUnits="userSpaceOnUse">
      <stop offset="0.183"/>
      <stop offset="0.217" stop-color="#0c0c0c"/>
      <stop offset="0.279" stop-color="#2d2d2d"/>
      <stop offset="0.363" stop-color="#626262"/>
      <stop offset="0.464" stop-color="#ababab"/>
      <stop offset="0.57" stop-color="#fff"/>
    </linearGradient>
    <mask id="b" x="3.895" y="8.619" width="54" height="48" maskUnits="userSpaceOnUse">
      <rect x="3.895" y="8.619" width="54" height="48" fill="url(#a)"/>
    </mask>
    <linearGradient id="c" x1="39.667" y1="10.606" x2="42.883" y2="16.176" gradientUnits="userSpaceOnUse">
      <stop offset="0" stop-color="#fff"/>
      <stop offset="1" stop-color="#d2d2d2"/>
    </linearGradient>
    <linearGradient id="d" data-name="top white" x1="39.223" y1="34.762" x2="48.275" y2="19.085" gradientUnits="userSpaceOnUse">
      <stop offset="0" stop-color="#fff"/>
      <stop offset="1" stop-color="#f0f0f0"/>
    </linearGradient>
    <linearGradient id="e" x1="45.521" y1="37.203" x2="47.157" y2="40.035" xlink:href="#c"/>
    <linearGradient id="f" x1="43.451" y1="41.058" x2="45.307" y2="44.272" gradientUnits="userSpaceOnUse">
      <stop offset="0" stop-color="#f5f5f5"/>
      <stop offset="1" stop-color="#bebebe"/>
    </linearGradient>
    <linearGradient id="g" x1="37.136" y1="9.963" x2="43.06" y2="9.963" xlink:href="#d"/>
    <linearGradient id="h" x1="39.252" y1="19.515" x2="34.973" y2="31.163" gradientUnits="userSpaceOnUse">
      <stop offset="0" stop-color="#737373"/>
      <stop offset="1" stop-color="#cfcfd0"/>
    </linearGradient>
    <linearGradient id="i" x1="30.948" y1="13.433" x2="47.512" y2="42.122" xlink:href="#f"/>
    <linearGradient id="j" x1="8.114" y1="37.263" x2="14.982" y2="49.159" xlink:href="#f"/>
    <linearGradient id="k" x1="22.792" y1="53.384" x2="34.285" y2="33.476" xlink:href="#c"/>
    <linearGradient id="l" x1="7.751" y1="37.587" x2="42.486" y2="37.587" xlink:href="#d"/>
    <linearGradient id="m" x1="35.887" y1="42.979" x2="37.77" y2="42.979" xlink:href="#f"/>
    <linearGradient id="n" x1="38.617" y1="42.067" x2="42.305" y2="52.771" xlink:href="#h"/>
    <linearGradient id="o" x1="42.674" y1="47.133" x2="44.978" y2="51.125" xlink:href="#c"/>
    <linearGradient id="p" x1="34.216" y1="42.804" x2="39.848" y2="52.56" xlink:href="#f"/>
    <linearGradient id="q" x1="33.582" y1="45.462" x2="47.501" y2="45.462" xlink:href="#d"/>
    <linearGradient id="r" x1="3.522" y1="30.325" x2="6.736" y2="35.892" gradientTransform="matrix(-1, 0, 0, 1, 32.147, 0)" gradientUnits="userSpaceOnUse">
      <stop offset="0" stop-color="#fff"/>
      <stop offset="1" stop-color="#d4d5d3"/>
    </linearGradient>
    <linearGradient id="s" x1="9.863" y1="22.772" x2="14.534" y2="30.862" gradientTransform="matrix(-1, 0, 0, 1, 32.147, 0)" gradientUnits="userSpaceOnUse">
      <stop offset="0" stop-color="#8cd7f5"/>
      <stop offset="1" stop-color="#376e8c"/>
    </linearGradient>
    <linearGradient id="t" x1="17.008" y1="17.641" x2="20.285" y2="23.316" gradientTransform="matrix(-1, 0, 0, 1, 32.147, 0)" gradientUnits="userSpaceOnUse">
      <stop offset="0" stop-color="#aaa"/>
      <stop offset="1" stop-color="#5a5a5a"/>
    </linearGradient>
    <linearGradient id="u" x1="14.575" y1="19.716" x2="17.927" y2="25.522" gradientTransform="matrix(-0.707, -0.707, -0.707, 0.707, 43.381, 18.118)" xlink:href="#r"/>
  </defs>
  <title>17411_CATCE3D_AP_AppIcon_r21x</title>
  <g mask="url(#b)">
    <g>
      <polygon points="43.06 10.065 43.06 16.074 39.486 16.711 39.486 10.711 43.06 10.065" stroke="#797979" stroke-linecap="round" stroke-linejoin="round" fill="url(#c)"/>
      <polygon points="44.486 37.8 48.206 36.8 43.06 16.074 39.486 16.711 44.486 37.8" stroke="#797979" stroke-linecap="round" stroke-linejoin="round" fill="url(#d)"/>
      <polygon points="44.486 40.461 44.486 37.8 48.206 36.8 48.206 39.429 44.486 40.461" stroke="#797979" stroke-linecap="round" stroke-linejoin="round" fill="url(#e)"/>
      <polygon points="43.484 45.324 48.206 39.429 44.486 40.461 40.672 46.108 43.484 45.324" stroke="#797979" stroke-linecap="round" stroke-linejoin="round" fill="url(#f)"/>
      <polygon points="39.873 10.544 37.136 9.861 40.324 9.381 43.06 10.065 39.873 10.544" stroke="#797979" stroke-linecap="round" stroke-linejoin="round" fill="url(#g)"/>
      <polygon points="38.126 18.825 33.649 30.805 36.751 30.009 39.202 23.612 38.126 18.825" stroke="#797979" stroke-linecap="round" stroke-linejoin="round" fill="url(#h)"/>
      <polygon points="39.486 16.711 39.486 10.711 37.136 9.861 37.136 16.074 31.417 31.371 33.649 30.805 38.126 18.825 42.486 38.211 42.486 39.649 38.986 44.864 40.607 46.108 44.486 40.461 44.486 37.8 39.486 16.711" stroke="#797979" stroke-linecap="round" stroke-linejoin="round" fill="url(#i)"/>
      <polygon points="7.751 39.929 7.751 37.472 15.228 46.292 15.228 49.017 7.751 39.929" stroke="#797979" stroke-linecap="round" stroke-linejoin="round" fill="url(#j)"/>
      <polygon points="42.486 39.123 42.486 38.211 15.228 46.108 15.228 49.017 41.901 40.52 42.486 39.649 42.486 39.123" stroke="#797979" stroke-linecap="round" stroke-linejoin="round" fill="url(#k)"/>
      <polygon points="48.116 36.437 48.206 36.8 48.205 38.572 56.278 36.086 56.278 34.023 48.116 36.437" fill="#d2d2d2" stroke="#797979" stroke-linejoin="round"/>
      <g>
        <polygon points="42.486 38.211 40.429 29.066 7.751 37.472 15.228 46.108 42.486 38.211" stroke="#797979" stroke-linecap="round" stroke-linejoin="round" fill="url(#l)"/>
        <polygon points="46.072 28.206 48.116 36.437 56.278 34.023 46.072 28.206" fill="#f0f0f0" stroke="#797979" stroke-linecap="round" stroke-linejoin="round"/>
      </g>
      <polygon points="37.77 43.931 35.887 42.436 37.175 42.026 37.77 43.931" stroke="#797979" stroke-linecap="round" stroke-linejoin="round" fill="url(#m)"/>
      <polygon points="40.363 42.812 39.763 41.201 37.175 42.026 37.77 43.931 40.091 43.217 40.363 42.812" stroke="#797979" stroke-linecap="round" stroke-linejoin="round" fill="url(#n)"/>
      <line x1="15.228" y1="46.108" x2="42.486" y2="38.211" fill="none" stroke="#797979" stroke-linecap="round" stroke-linejoin="round"/>
      <line x1="11.49" y1="41.791" x2="41.437" y2="33.546" fill="none" stroke="#797979" stroke-linecap="round" stroke-linejoin="round"/>
      <line x1="47.026" y1="32.047" x2="50.931" y2="30.976" fill="none" stroke="#797979" stroke-linecap="round" stroke-linejoin="round"/>
      <polygon points="47.501 49.669 47.501 46.28 40.328 48.488 40.328 52.283 47.501 49.669" stroke="#797979" stroke-linecap="round" stroke-linejoin="round" fill="url(#o)"/>
      <polygon points="33.582 43.171 33.582 46.607 40.328 52.283 40.328 48.488 33.582 43.171" stroke="#797979" stroke-linecap="round" stroke-linejoin="round" fill="url(#p)"/>
      <polygon points="43.484 45.324 40.607 46.108 38.986 44.864 40.091 43.217 37.77 43.931 35.887 42.436 33.582 43.171 40.328 48.488 47.501 46.28 44.425 44.148 43.484 45.324" stroke="#797979" stroke-linecap="round" stroke-linejoin="round" fill="url(#q)"/>
      <path d="M31.369,31.389h0L7.722,37.472v2.457L15.2,49.017l18.353-5.846v3.436L40.3,52.283l7.174-2.614V46.28L44.4,44.148l3.781-4.719v-.857l8.073-2.486V34.023L46.043,28.206,43.031,16.074V10.065l-2.737-.684-3.187.48v4.674" fill="none" stroke="#2d2d2d" stroke-linecap="round" stroke-linejoin="round"/>
      <line x1="38.217" y1="13.294" x2="27.632" y2="25.122" fill="none" stroke="#00415f" stroke-linecap="round" stroke-linejoin="round"/>
      <line x1="38.217" y1="13.294" x2="27.837" y2="29.066" fill="none" stroke="#00415f" stroke-linecap="round" stroke-linejoin="round"/>
      <line x1="38.217" y1="13.294" x2="29.311" y2="36.951" fill="none" stroke="#00415f" stroke-linecap="round" stroke-linejoin="round"/>
    </g>
  </g>
  <g>
    <g>
      <polygon points="28.895 36.119 24.142 35.159 22.602 33.619 26.895 29.326 28.435 30.865 29.405 35.717 29.4 36.119 28.895 36.119" fill="url(#r)"/>
      <path d="M26.9,30.033l1.079,1.079.9,4.482-4.482-.9-1.079-1.079L26.9,30.033m0-1.414-5,5,2,2,5,1h1v-1l-1-5-2-2Z" fill="#323232"/>
    </g>
    <g>
      <polygon points="13.395 24.412 13.395 22.826 16.102 20.119 17.688 20.119 27.188 29.619 22.895 33.912 13.395 24.412" fill="url(#s)"/>
      <path d="M17.481,20.619l9,9L22.9,33.205l-9-9V23.033l2.414-2.414h1.172m.414-1h-2l-3,3v2l10,10,5-5-10-10Z" fill="#003755"/>
    </g>
    <g>
      <path d="M11.249,22.265A2.146,2.146,0,0,1,10.58,20.7a2.6,2.6,0,0,1,.667-1.722c.35-.346.658-.661,1-1a2.645,2.645,0,0,1,1.736-.667,2.145,2.145,0,0,1,1.559.666l1.646,1.646L12.9,23.912Z" fill="url(#t)"/>
      <path d="M13.983,17.807h0a1.643,1.643,0,0,1,1.206.52l1.292,1.292L12.9,23.205,11.6,21.911A1.642,1.642,0,0,1,11.08,20.7,2.121,2.121,0,0,1,11.6,19.33c.353-.349.433-.431.511-.511s.15-.154.489-.489a2.177,2.177,0,0,1,1.385-.523m0-1a3.143,3.143,0,0,0-2.088.812c-.692.684-.309.316-1,1a2.885,2.885,0,0,0,0,4l2,2,5-5s-1.311-1.313-2-2a2.64,2.64,0,0,0-1.912-.812Z" fill="#323232"/>
    </g>
    <polygon points="29.895 36.619 29.895 35.619 29.229 32.285 25.564 35.949 28.895 36.619 29.895 36.619" fill="#151515"/>
    <g>
      <rect x="12.859" y="20.998" width="6.072" height="3.243" transform="translate(-11.339 17.866) rotate(-45.003)" fill="url(#u)"/>
      <path d="M16.9,20.033l1.586,1.586L14.9,25.205l-1.586-1.586L16.9,20.033m0-1.414-5,5,3,3,5-5-3-3Z" fill="#323232"/>
    </g>
  </g>
</svg>
