<svg xmlns="http://www.w3.org/2000/svg" xmlns:xlink="http://www.w3.org/1999/xlink" viewBox="0 0 64 64"><defs><style>.cls-1{isolation:isolate;}.cls-17,.cls-2,.cls-3,.cls-4,.cls-5{stroke:#323232;}.cls-2,.cls-3,.cls-4,.cls-5{stroke-linecap:round;stroke-linejoin:round;}.cls-2{fill:url(#linear-gradient);}.cls-3{fill:url(#linear-gradient-2);}.cls-4{fill:#fff;}.cls-5{fill:#797979;}.cls-6{stroke-width:0.13px;fill:url(#linear-gradient-3);stroke:url(#white_left);}.cls-7{fill:url(#SKETCH_BLUE_gradient);}.cls-8{fill:url(#linear-gradient-4);}.cls-9{fill:url(#Medium_BLUE_gradient_FRONT);}.cls-10{fill:#323232;}.cls-11{fill:url(#linear-gradient-5);}.cls-12{fill:url(#linear-gradient-6);}.cls-13{fill:url(#linear-gradient-7);}.cls-14{opacity:0.8;mix-blend-mode:darken;}.cls-15{fill:url(#white_left-2);}.cls-16,.cls-17{fill:none;stroke-miterlimit:10;}.cls-16{stroke:#000;}</style><linearGradient id="linear-gradient" x1="11.74" y1="53.37" x2="54.24" y2="25.77" gradientUnits="userSpaceOnUse"><stop offset="0" stop-color="#fff"/><stop offset="0.3" stop-color="#d2d2d2"/></linearGradient><linearGradient id="linear-gradient-2" x1="12.26" y1="51.69" x2="53.42" y2="24.96" xlink:href="#linear-gradient"/><linearGradient id="linear-gradient-3" x1="12.4" y1="51.64" x2="53.21" y2="25.13" gradientUnits="userSpaceOnUse"><stop offset="0.38" stop-color="#f1f0f0"/><stop offset="0.44" stop-color="#f6f5f5"/><stop offset="0.49" stop-color="#fff"/><stop offset="0.87" stop-color="#5a9ab8"/></linearGradient><linearGradient id="white_left" x1="5.59" y1="40.8" x2="58.45" y2="40.8" gradientUnits="userSpaceOnUse"><stop offset="0" stop-color="#f5f5f5"/><stop offset="1" stop-color="#bebebe"/></linearGradient><linearGradient id="SKETCH_BLUE_gradient" x1="16.79" y1="38.46" x2="49.29" y2="32.73" gradientUnits="userSpaceOnUse"><stop offset="0" stop-color="#3287af"/><stop offset="1" stop-color="#285a78"/></linearGradient><linearGradient id="linear-gradient-4" x1="17.04" y1="39.93" x2="49.55" y2="34.2" gradientUnits="userSpaceOnUse"><stop offset="0.44" stop-color="#aadcfa"/><stop offset="0.45" stop-color="#afdefa"/><stop offset="0.47" stop-color="#bee4fb"/><stop offset="0.48" stop-color="#d6eefd"/><stop offset="0.49" stop-color="#f8fcff"/><stop offset="0.49" stop-color="#fff"/><stop offset="0.51" stop-color="#fcfdfe"/><stop offset="0.51" stop-color="#f3f8fa"/><stop offset="0.52" stop-color="#e4eef3"/><stop offset="0.53" stop-color="#cee1ea"/><stop offset="0.53" stop-color="#b3d0de"/><stop offset="0.54" stop-color="#90bbcf"/><stop offset="0.54" stop-color="#68a3be"/><stop offset="0.55" stop-color="#5a9ab8"/></linearGradient><linearGradient id="Medium_BLUE_gradient_FRONT" x1="22.6" y1="30.98" x2="42.62" y2="30.98" gradientUnits="userSpaceOnUse"><stop offset="0" stop-color="#8cd7f5"/><stop offset="1" stop-color="#376e8c"/></linearGradient><linearGradient id="linear-gradient-5" x1="16.43" y1="24.08" x2="46.4" y2="13.17" gradientUnits="userSpaceOnUse"><stop offset="0" stop-color="#e1e1e1"/><stop offset="0.49" stop-color="#f5f5f5"/><stop offset="0.55" stop-color="#ebebeb"/><stop offset="0.62" stop-color="#e3e3e3"/><stop offset="0.64" stop-color="#e1e1e1"/><stop offset="0.68" stop-color="#d4d4d4"/><stop offset="0.74" stop-color="#c7c7c7"/><stop offset="0.82" stop-color="silver"/><stop offset="1" stop-color="#bebebe"/></linearGradient><linearGradient id="linear-gradient-6" x1="16.33" y1="24.11" x2="46.51" y2="13.13" gradientUnits="userSpaceOnUse"><stop offset="0.61" stop-color="#e1e1e1"/><stop offset="0.62" stop-color="#d4d4d4"/><stop offset="0.65" stop-color="#b8b8b8"/><stop offset="0.68" stop-color="#a0a0a0"/><stop offset="0.71" stop-color="#8f8f8f"/><stop offset="0.75" stop-color="#828282"/><stop offset="0.8" stop-color="#7b7b7b"/><stop offset="0.92" stop-color="#797979"/></linearGradient><linearGradient id="linear-gradient-7" x1="17.76" y1="21.39" x2="48.47" y2="21.39" gradientUnits="userSpaceOnUse"><stop offset="0.26" stop-color="#e1e1e1"/><stop offset="0.35" stop-color="#f5f5f5"/><stop offset="0.48" stop-color="#797979"/></linearGradient><linearGradient id="white_left-2" x1="17.85" y1="21.39" x2="48.56" y2="21.39" xlink:href="#white_left"/></defs><title>ddd__A33AAe__R21XArtboard 1</title><g class="cls-1"><g id="VERSION_x_copy_2" data-name="VERSION x copy 2"><polygon class="cls-2" points="58.86 32.88 28.54 30 5.11 41 5.11 43.16 36.24 54.14 58.89 34.97 58.86 32.88"/><polygon class="cls-3" points="58.7 33.08 28.54 30.52 5.38 41.09 36.52 51.01 58.7 33.08"/><polygon class="cls-4" points="36.31 51.01 5.14 41.28 5.14 43.89 36.31 54.7 36.31 51.01"/><polygon class="cls-5" points="36.31 51.01 58.87 33.3 58.87 35.1 36.31 54.7 36.31 51.01"/><path class="cls-6" d="M58.17,32.93,28.59,30.52l-.1,0L5.79,41a.26.26,0,0,0,0,.47l30.39,9.64a.23.23,0,0,0,.21,0L58.29,33.38A.25.25,0,0,0,58.17,32.93Z"/><g id="ok"><path id="OK_FOND_1_DESSUS" data-name="OK   FOND 1 DESSUS" class="cls-7" d="M47.45,33.05l-1.94-2.78c-1.47-2.17-1.86-1.64-3.72-1.75l-9.92-.36a8.79,8.79,0,0,0-5.05,1.29L22,32s-.86.1-1.75,2.68l-.86,2.49c-.43,1.16-2.51,1.66-2.51,1.66s.65.14,3.79,1l12.12,3.34a5.54,5.54,0,0,0,3.77-.61L46.91,36l2.65-1.7A2.22,2.22,0,0,1,47.45,33.05Z"/><path id="OK-2" data-name="OK" class="cls-8" d="M47.45,33.05l-1.9-2.68c-1.17-1.68-2.1-1.44-3.11-.91l-7.78,4.32a4.21,4.21,0,0,1-2.66.48l-9-1.34c-1.12-.17-1.7-.78-2.75,1.77l-.86,2.49c-.43,1.17-2.51,1.66-2.51,1.66s.7.16,3.79,1l12.12,3.34a5.54,5.54,0,0,0,3.77-.61L46.91,36l2.65-1.7S48.45,34.53,47.45,33.05Z"/><path class="cls-9" d="M41.94,29.32c1-.5.88-.78-.19-.81l-10.6-.38a8.71,8.71,0,0,0-3.69.92l-4.2,2.3c-1,.53-.87,1.09.19,1.26L31,33.77a6.88,6.88,0,0,0,3.68-.62Z"/><g id="OK_FOND_1_DESSUS-2" data-name="OK   FOND 1 DESSUS"><path class="cls-10" d="M16.83,38.77a5,5,0,0,0,1.92-1,1.66,1.66,0,0,0,.31-.4,2.52,2.52,0,0,0,.18-.49l.31-1.08c.22-.72.4-1.45.69-2.19a6.73,6.73,0,0,1,.53-1.08,3.14,3.14,0,0,1,.4-.52,1.64,1.64,0,0,1,.27-.24,1,1,0,0,1,.46-.22h0l-.18,0,3.45-1.77a27.78,27.78,0,0,1,3.57-1.65,10.53,10.53,0,0,1,4-.33l3.88.18,3.87.18,1.92.09c.31,0,.64,0,1,0a2,2,0,0,1,1,.34,5.84,5.84,0,0,1,1.32,1.52l1.14,1.56c.39.51.75,1.08,1.15,1.51a2.42,2.42,0,0,0,1.58.73h0a.17.17,0,0,1,.18.18.18.18,0,0,1-.18.18,2.76,2.76,0,0,1-1.88-.8c-.49-.5-.82-1-1.23-1.53l-1.17-1.55a5.38,5.38,0,0,0-1.22-1.36,2.91,2.91,0,0,0-1.73-.24l-2-.05-3.86-.1-3.87-.1a10,10,0,0,0-3.69.37,26.14,26.14,0,0,0-3.41,1.67l-3.4,1.84-.17,0h0c.1,0,0,0,0,0a.83.83,0,0,0-.16.12,2.18,2.18,0,0,0-.32.35,5.31,5.31,0,0,0-.55.89c-.33.64-.58,1.36-.87,2.06l-.42,1a2.64,2.64,0,0,1-.26.54A2.06,2.06,0,0,1,19,38a5.16,5.16,0,0,1-2.11.92.09.09,0,0,1-.09-.06.07.07,0,0,1,0-.08Z"/></g></g><g id="TOP_ok" data-name="TOP ok"><path class="cls-11" d="M47.81,21.08c1.09-.31,1.32-1.27.52-2.12l-3.86-4A6.46,6.46,0,0,0,42,13.24l-7-3.19a4.93,4.93,0,0,0-3.93.33L20.64,17.44a4.94,4.94,0,0,0-2.57,2.89l-1.14,4.14c-.35,1.16.33,1.53,1.46,1.47l10.79-.45a22,22,0,0,0,4-.67Z"/><path class="cls-12" d="M47.81,21.08c1.09-.31,1.72-1,.52-2.12l-3.86-4A6.46,6.46,0,0,0,42,13.24l-7-3.19a4.93,4.93,0,0,0-3.93.33L20.64,17.44a4.94,4.94,0,0,0-2.57,2.89l-1.14,4.14c-.46,1.54.33,1.53,1.46,1.47l10.79-.45a22,22,0,0,0,4-.67Z"/><g id="OK-3" data-name="OK"><path class="cls-13" d="M39.19,17.33a7.19,7.19,0,0,0-6,.22C26,21.35,23.46,23,19.28,25c-2.85,1.3-.83,1-.83,1l10.63-.44,2.07-.25,2-.41S45.3,21.78,47,21.31c1.25-.31,2.43-.6.4-1.29"/></g><g id="OK-4" data-name="OK" class="cls-14"><path class="cls-15" d="M39.29,17.33a7.19,7.19,0,0,0-6,.22C26.05,21.35,23.56,23,19.37,25c-2.84,1.3-.83,1-.83,1l10.63-.44,2.08-.25,2-.41s12.12-3.06,13.79-3.53c1.26-.31,2.44-.6.41-1.29"/></g><path class="cls-16" d="M47.81,21.08c1.14-.28,1.76-.81.52-2.12l-3.12-3.32a11,11,0,0,0-3.2-2.4l-7-3.19a5.17,5.17,0,0,0-3.93.33L20.64,17.44a5.13,5.13,0,0,0-2.57,2.89l-1.18,4.33c-.45,1.49.5,1.29,1.48,1.5l10.81-.45c1.13-.28,2.94-.58,4-.89Z"/><path id="OK-5" data-name="OK" class="cls-17" d="M47.43,19.92c2.9.85-1.46,1.64-2.56,1.92l-9.69,2.49c-1.1.28-3.6.9-4.15,1a24.83,24.83,0,0,1-3.31.46L20,26.09c-1.13,0-4,.35-1.22-1.14,4.09-2.21,12.6-6.5,12.6-6.5,1.75-1,4.18-2.4,7.82-1.12Z"/></g></g></g></svg>