<svg xmlns="http://www.w3.org/2000/svg" xmlns:xlink="http://www.w3.org/1999/xlink" viewBox="0 0 64 64"><defs><linearGradient id="linear-gradient" x1="22.33" y1="14.76" x2="42.61" y2="49.88" gradientUnits="userSpaceOnUse"><stop offset="0" stop-color="#f5f6f6"/><stop offset="0.99" stop-color="#d2d3d3"/></linearGradient><linearGradient id="linear-gradient-2" x1="42.24" y1="31.23" x2="21.64" y2="-4.44" gradientUnits="userSpaceOnUse"><stop offset="0" stop-color="#386f8d"/><stop offset="1" stop-color="#8dd7f4"/></linearGradient><linearGradient id="linear-gradient-3" x1="33.25" y1="44.57" x2="33.25" y2="37.08" gradientUnits="userSpaceOnUse"><stop offset="0" stop-color="#969696"/><stop offset="0.23" stop-color="#d7d7d7"/><stop offset="1" stop-color="#969696"/></linearGradient><radialGradient id="radial-gradient" cx="16" cy="44" r="7.16" gradientUnits="userSpaceOnUse"><stop offset="0" stop-color="#d7d7d7"/><stop offset="1" stop-color="#969696"/></radialGradient><radialGradient id="radial-gradient-2" r="7.62" xlink:href="#radial-gradient"/><linearGradient id="linear-gradient-4" x1="6.27" y1="45.13" x2="10.93" y2="53.21" xlink:href="#radial-gradient"/><linearGradient id="linear-gradient-5" x1="22.04" y1="46.48" x2="25.09" y2="51.75" gradientUnits="userSpaceOnUse"><stop offset="0" stop-color="#f5f6f6"/><stop offset="0.99" stop-color="#bfbebe"/></linearGradient><linearGradient id="linear-gradient-6" x1="11.74" y1="51" x2="20.64" y2="51" gradientUnits="userSpaceOnUse"><stop offset="0" stop-color="#d7d7d7"/><stop offset="0.3" stop-color="#d4d4d4"/><stop offset="0.53" stop-color="#cbcbcb"/><stop offset="0.73" stop-color="#bbb"/><stop offset="0.91" stop-color="#a4a4a4"/><stop offset="1" stop-color="#969696"/></linearGradient><linearGradient id="linear-gradient-7" x1="42.82" y1="33.4" x2="52.63" y2="50.39" xlink:href="#radial-gradient"/><linearGradient id="linear-gradient-8" x1="45.59" y1="36.32" x2="50.57" y2="44.94" xlink:href="#linear-gradient-6"/><linearGradient id="linear-gradient-9" x1="51.66" y1="35.72" x2="58.55" y2="47.65" xlink:href="#linear-gradient"/><linearGradient id="linear-gradient-10" x1="47.48" y1="45" x2="51.65" y2="52.23" xlink:href="#linear-gradient-6"/><linearGradient id="linear-gradient-11" x1="49.02" y1="31.8" x2="51.05" y2="35.31" gradientUnits="userSpaceOnUse"><stop offset="0" stop-color="#fff"/><stop offset="1" stop-color="#f1f0f0"/></linearGradient><linearGradient id="linear-gradient-12" x1="11.74" y1="33.25" x2="20.64" y2="33.25" gradientUnits="userSpaceOnUse"><stop offset="0" stop-color="#969696"/><stop offset="0.23" stop-color="#e6e6e6"/><stop offset="1" stop-color="#969696"/></linearGradient></defs><title>CATCFAM_AP_AppIcon</title><g id="Layer_7" data-name="Layer 7"><rect x="7.5" y="17.5" width="49" height="28" stroke="#333332" stroke-linecap="round" stroke-linejoin="round" fill="url(#linear-gradient)"/><rect x="7.5" y="9.5" width="49" height="8" stroke="#053755" stroke-linecap="round" stroke-linejoin="round" fill="url(#linear-gradient-2)"/><rect x="24" y="18" width="1" height="25.5" fill="#787878"/><rect x="39" y="18" width="1" height="25.5" fill="#787878"/><rect x="31.5" y="4.5" width="1" height="48" transform="translate(60.5 -3.5) rotate(90)" fill="#787878"/></g><g id="Layer_5" data-name="Layer 5"><path d="M26.35,36.5c-1.57,0-2.85,2-2.85,4.5s1.28,4.5,2.85,4.5H43v-9Z" stroke="#323232" stroke-linecap="round" stroke-linejoin="round" fill="url(#linear-gradient-3)"/><polygon points="6.5 43.5 10.5 47.5 21.5 47.5 25.5 43.5 22.5 40.5 9.5 40.5 6.5 43.5" stroke-linecap="round" stroke-linejoin="round" fill="url(#radial-gradient)" stroke="url(#radial-gradient-2)"/><polygon points="6.5 50.5 6.5 43.5 10.5 47.5 10.5 54.5 6.5 50.5" stroke="#797979" stroke-linecap="round" stroke-linejoin="round" fill="url(#linear-gradient-4)"/><polygon points="21.5 47.5 25.5 43.5 25.5 50.5 21.5 54.5 21.5 47.5" stroke="#797979" stroke-linecap="round" stroke-linejoin="round" fill="url(#linear-gradient-5)"/><rect x="10.5" y="47.5" width="11" height="7" stroke="#797979" stroke-linecap="round" stroke-linejoin="round" fill="url(#linear-gradient-6)"/><ellipse cx="46.5" cy="41.5" rx="7" ry="13" fill="#323232" stroke="#323232" stroke-linecap="round" stroke-linejoin="round"/><ellipse cx="47.5" cy="41.5" rx="7" ry="13" stroke="#323232" stroke-linecap="round" stroke-linejoin="round" fill="url(#linear-gradient-7)"/><rect x="44.5" y="35.5" width="7" height="10" stroke="#797979" stroke-linecap="round" stroke-linejoin="round" fill="url(#linear-gradient-8)"/><polygon points="51.5 34.5 55.5 31.5 57.5 35.5 57.5 48.5 54.5 51.5 51.5 45.5 51.5 34.5" stroke="#787878" stroke-linecap="round" stroke-linejoin="round" fill="url(#linear-gradient-9)"/><polygon points="44.5 45.5 47.5 51.5 54.5 51.5 51.5 45.5 44.5 45.5" stroke="#797979" stroke-linecap="round" stroke-linejoin="round" fill="url(#linear-gradient-10)"/><polygon points="44.5 35.5 48.5 31.5 55.5 31.5 51.5 35.5 44.5 35.5" stroke="#797979" stroke-linecap="round" stroke-linejoin="round" fill="url(#linear-gradient-11)"/><path d="M39,36.5c-1.93,0-3.5,2-3.5,4.5s1.57,4.5,3.5,4.5" fill="none" stroke="#333332" stroke-linecap="round" stroke-linejoin="round"/><path d="M36,36.5c-1.93,0-3.5,2-3.5,4.5s1.57,4.5,3.5,4.5" fill="none" stroke="#333332" stroke-linecap="round" stroke-linejoin="round"/><path d="M33,36.5c-1.93,0-3.5,2-3.5,4.5s1.57,4.5,3.5,4.5" fill="none" stroke="#333332" stroke-linecap="round" stroke-linejoin="round"/><path d="M30,36.5c-1.93,0-3.5,2-3.5,4.5s1.57,4.5,3.5,4.5" fill="none" stroke="#333332" stroke-linecap="round" stroke-linejoin="round"/><polygon points="22.5 40.5 9.5 40.5 6.5 43.5 6.5 50.5 10.5 54.5 21.5 54.5 25.5 50.5 25.5 43.5 22.5 40.5" fill="none" stroke="#333332" stroke-linecap="round" stroke-linejoin="round"/><path d="M21.5,42c0,1.38-2.46,2.5-5.5,2.5s-5.5-1.12-5.5-2.5V22h11Z" stroke="#323232" stroke-linecap="round" stroke-linejoin="round" fill="url(#linear-gradient-12)"/><ellipse cx="16" cy="22" rx="5.5" ry="2.5" stroke="#333332" stroke-linecap="round" stroke-linejoin="round" fill="url(#linear-gradient)"/><path d="M10.5,25c0,1.38,2.46,2.5,5.5,2.5s5.5-1.12,5.5-2.5" fill="none" stroke="#333332" stroke-linecap="round" stroke-linejoin="round"/><path d="M10.5,28c0,1.38,2.46,2.5,5.5,2.5s5.5-1.12,5.5-2.5" fill="none" stroke="#333332" stroke-linecap="round" stroke-linejoin="round"/><path d="M10.5,31c0,1.38,2.46,2.5,5.5,2.5s5.5-1.12,5.5-2.5" fill="none" stroke="#333332" stroke-linecap="round" stroke-linejoin="round"/><path d="M10.5,34c0,1.38,2.46,2.5,5.5,2.5s5.5-1.12,5.5-2.5" fill="none" stroke="#333332" stroke-linecap="round" stroke-linejoin="round"/><polygon points="55.5 31.5 48.5 31.5 44.5 35.5 44.5 45.5 47.5 51.5 54.5 51.5 57.5 48.5 57.5 35.5 55.5 31.5" fill="none" stroke="#333332" stroke-linecap="round" stroke-linejoin="round"/></g></svg>