<svg id="REDUIT" xmlns="http://www.w3.org/2000/svg" xmlns:xlink="http://www.w3.org/1999/xlink" viewBox="0 0 64 64"><defs><style>.DARK-GREY-Fill{fill:url(#linear-gradient);}.cls-1{fill:url(#linear-gradient-2);}.cls-2{fill:#323232;}.cls-3{opacity:0.4;filter:url(#DS_GaussianBlur_2);}.cls-4{fill:url(#radial-gradient);}.cls-12,.cls-5{fill:#aadcfa;}.cls-6{fill:url(#linear-gradient-3);}.cls-7{fill:url(#linear-gradient-4);}.cls-8{fill:#2e6d8b;stroke-width:0.4px;}.cls-10,.cls-11,.cls-12,.cls-8{stroke:#000;}.cls-10,.cls-11,.cls-15,.cls-16,.cls-17,.cls-8{stroke-linejoin:round;}.cls-9{fill:url(#linear-gradient-5);}.cls-10{fill:#5a9ab8;}.cls-10,.cls-11,.cls-12{stroke-width:0.25px;}.cls-11{fill:#82bddb;}.cls-12,.cls-13,.cls-14{stroke-miterlimit:10;}.cls-13,.cls-14,.cls-15,.cls-16,.cls-17{fill:none;stroke:#003755;}.cls-13,.cls-16{stroke-linecap:round;}.cls-13,.cls-14,.cls-15{stroke-width:0.5px;}</style><linearGradient id="linear-gradient" x1="5.99" y1="37.01" x2="59.83" y2="37.01" gradientUnits="userSpaceOnUse"><stop offset="0" stop-color="#464646"/><stop offset="1" stop-color="#141414"/></linearGradient><linearGradient id="linear-gradient-2" x1="6.3" y1="36.6" x2="59.57" y2="36.6" gradientUnits="userSpaceOnUse"><stop offset="0.18" stop-color="#bebebe"/><stop offset="0.32" stop-color="#f5f5f5"/><stop offset="0.6" stop-color="#c6c6c6"/><stop offset="0.8" stop-color="#ddd"/><stop offset="0.96" stop-color="#a49f9f"/></linearGradient><filter id="DS_GaussianBlur_2" x="-50" y="-50" width="200" height="200" name="DS_GaussianBlur_2"><feGaussianBlur stdDeviation="1"/></filter><radialGradient id="radial-gradient" cx="36.29" cy="28.29" fx="27.02867806046573" fy="35.73492061989553" r="24.23" gradientUnits="userSpaceOnUse"><stop offset="0.53" stop-color="#5a9ab8"/><stop offset="0.54" stop-color="#629fbc"/><stop offset="0.59" stop-color="#9ac1d3"/><stop offset="0.65" stop-color="#c5dce6"/><stop offset="0.69" stop-color="#e5eff4"/><stop offset="0.73" stop-color="#f8fbfc"/><stop offset="0.76" stop-color="#fff"/></radialGradient><linearGradient id="linear-gradient-3" x1="27.56" y1="20.25" x2="43.35" y2="20.25" gradientUnits="userSpaceOnUse"><stop offset="0" stop-color="#8cd7f5"/><stop offset="1" stop-color="#fff"/></linearGradient><linearGradient id="linear-gradient-4" x1="10.63" y1="35.32" x2="23.55" y2="35.32" gradientUnits="userSpaceOnUse"><stop offset="0.18" stop-color="#bebebe"/><stop offset="0.8" stop-color="#ddd"/><stop offset="0.96" stop-color="#a49f9f"/></linearGradient><linearGradient id="linear-gradient-5" x1="35.42" y1="45.4" x2="38.49" y2="36.95" gradientUnits="userSpaceOnUse"><stop offset="0" stop-color="#ddd"/><stop offset="0.21" stop-color="#cfcfcf"/><stop offset="0.39" stop-color="#bebebe"/><stop offset="0.78" stop-color="#aadcfa"/></linearGradient></defs><title>35679_A33AAe__R21XArtboard 1</title><polygon id="sol_SURFACE_12" data-name="sol   SURFACE  12" class="DARK-GREY-Fill" points="35.58 21.51 59.83 26.19 51.85 34.45 45.54 44.51 36.42 52.51 5.99 37.25 16.67 33.05 25.61 25.86 35.58 21.51"/><g id="sol_Surface_2" data-name="sol    Surface 2"><polygon class="cls-1" points="6.3 37.26 16.71 33.17 25.69 25.96 35.63 21.62 59.57 26.27 51.53 34.1 45.44 43.9 36.3 51.58 6.3 37.26"/><path class="cls-2" d="M35.6,21.77l23.71,4.58L51.44,34l0,0v0l-6.06,9.73-9.07,7.64L6.61,37.27l10.15-4,0,0,0,0,8.93-7.17,9.85-4.31m0-.26-10,4.35-8.94,7.19L6,37.25,36.31,51.73,45.54,44l6.08-9.77,8.21-8L35.57,21.51Z"/></g><g id="sol_Ombre_INT_NOIR_" data-name="sol Ombre INT NOIR ***" class="cls-3"><polygon points="42.35 32.8 36.45 38.89 16.91 36.66 30.48 30.03 42.35 32.8"/></g><path class="cls-4" d="M52,25.46l-1.16-8.14-1.21-2.85-1.87-1.06H41.5l-2.73.15s-5.19,1.93-6.15,2.83a1.93,1.93,0,0,0-.46.36l-3.9,4.41-2.6,1.74a5.64,5.64,0,0,1,1.9-.14l6,1a4.44,4.44,0,0,1,2,1.05,6.22,6.22,0,0,1,1.43,3.11L39,37.57l5,1.36,4.66-6.22,2.93-2.85,4.79-2.94Zm-16.67-10,.36-.07Z"/><path class="cls-5" d="M32.16,16.76a6.77,6.77,0,0,1,3.48-1.38L30.8,20.64l-3.24,2.13a5.64,5.64,0,0,0-1.9.14l2.6-1.74Z"/><path class="cls-6" d="M40.92,15.38H35.64L30.8,20.64l-3.24,2.13,6,1a6.73,6.73,0,0,1,2.49,1.35c.91-.83,7.28-8.39,7.28-8.39Z"/><g id="C1_p_AVANT_5_ok_copy_9" data-name="C1 p AVANT  5    ok *** copy 9"><g id="_01" data-name="01"><polygon class="cls-7" points="14.87 37.79 23.55 33.7 20.46 32.85 10.63 36.67 14.87 37.79"/><path d="M14.85,37.59l8.61-4.07,0,.37L20.41,33h.12l-9.87,3.69v-.12Zm0,.4-4.27-1.25-.18-.06.17-.06,9.78-3.95.06,0,.06,0,3.09.84.53.15-.5.23Z"/></g><polygon class="cls-8" points="14.86 37.56 15.33 28.53 24.72 25 23.55 33.7 14.86 37.56"/><polygon class="cls-8" points="29.71 30.88 28.99 23.06 24.72 25 23.55 33.7 29.71 30.88"/><path class="cls-8" d="M15.33,28.53c.13-1.93,1.49-3.22,3.2-2.84l9-2.92A2.54,2.54,0,0,0,24.72,25Z"/><polygon class="cls-9" points="29.95 43.42 35.9 45.49 41.16 41.52 43.95 38.94 38.98 37.56 35.98 39.88 29.95 43.42"/><path d="M30.15,43.4c1.92.63,3.79,1.32,5.76,2.07h0l5.21-4h0l2.77-2.62.06.24-5-1.42.07,0-3,2.35h0C34.08,41.18,32.15,42.29,30.15,43.4Zm-.39,0c2-1.25,4.1-2.5,6.15-3.67h0l3-2.28a.07.07,0,0,1,.07,0l5,1.32a.15.15,0,0,1,.1.17.16.16,0,0,1,0,.07l-2.83,2.55h0l-5.3,3.9h0C33.89,44.88,31.8,44.19,29.76,43.44Z"/><polygon class="cls-10" points="28.37 31.78 29.91 43.43 35.94 39.89 38.98 37.56 37.05 27.93 28.37 31.78"/><path class="cls-11" d="M24.55,26.91a5.65,5.65,0,0,1,3.82,4.87l8.68-3.85a6.38,6.38,0,0,0-1.43-3.11,4.33,4.33,0,0,0-2-1.05Z"/><polygon class="cls-12" points="26.71 22.56 17.68 25.48 24.55 26.91 33.57 23.77 26.71 22.56"/></g><g id="lignes_NOIRE_1ok_copy_2" data-name="lignes NOIRE 1ok *** copy 2"><polyline id="M3_" data-name="M3  **" class="cls-13" points="38.03 32.35 40.61 28.9 43.19 26.18 45.75 23.63 51.22 21.09"/><polyline id="M2_" data-name="M2  **" class="cls-14" points="35.96 25.23 38.17 23.25 40.54 19.92 43.42 16.72 49.74 14.73"/><polyline id="m_" data-name="m   **" class="cls-13" points="30.83 23.21 33.24 20.99 35.93 17.63 38.08 15.36"/><polyline id="C_V1_" data-name="C V1   **" class="cls-14" points="28.25 21.13 30.79 20.57 36.39 21.53 39.9 25.08 41.58 33.91 46.37 35.64"/><polyline id="B_V1_" data-name="B V1   **" class="cls-14" points="30.69 18.38 33.69 17.51 38.69 17.87 42.31 21.85 44.06 30.7 49.03 32.38"/><polyline id="A_V1_B_" data-name="A V1 B   ***" class="cls-13" points="44.6 14.36 46.78 15.62 47.99 18.31 49.57 27.1 53.88 28.41"/><polyline id="M3_2" data-name="M3  **" class="cls-14" points="38.98 37.56 41.59 33.84 44.07 30.68 46.7 28.84 52.02 25.43"/></g><path class="cls-15" d="M41.5,13.42l-2.73.15s-5.25,1.95-6.17,2.84a9.31,9.31,0,0,1,3-1h5.28l2.43,1.35,1.48,2.55,1.88,9.55,4.83,1,4.79-2.94L52,25.46l-1.16-8.14-1.21-2.85-1.87-1.06H41.5"/><path id="_01-2" data-name="01" class="cls-16" d="M14.75,35.11,10.4,36.8c1.41.37,4.24,1.06,4.24,1.06"/><path class="cls-17" d="M28.31,31.7c-1.27.64-13.7,6.16-13.7,6.16l.41-9c.13-1.93,1-3.53,2.71-3.15,0,0,4.34.81,6.92,1.34C26.51,27.61,27.9,29,28.31,31.7Z"/><path class="cls-16" d="M18.67,25.83,24.55,27a5.53,5.53,0,0,1,3.77,4.81l1.61,11.64,6,2.07,5.26-4L44,38.94h0l4.66-6.22,2.93-2.85,4.76-2.75L52,25.46l-1.16-8.14-1.21-2.85-1.87-1H41.5l-2.52,0s-5.4,2-6.36,2.94l-4.36,4.77-1.75,1.22-9.66,3.32"/></svg>