<svg id="CATIA___CEG_-_Civil_Engineering" data-name="CATIA _ CEG - Civil Engineering" xmlns="http://www.w3.org/2000/svg" xmlns:xlink="http://www.w3.org/1999/xlink" viewBox="0 0 64 64"><defs><style>.cls-1,.cls-10,.cls-11,.cls-12,.cls-13,.cls-14,.cls-15,.cls-16,.cls-17,.cls-18,.cls-2,.cls-3,.cls-4,.cls-5,.cls-6,.cls-7,.cls-8,.cls-9{stroke:#797979;}.cls-1,.cls-11,.cls-12,.cls-13,.cls-14,.cls-15,.cls-16,.cls-17,.cls-18,.cls-19,.cls-2,.cls-20,.cls-3,.cls-4,.cls-5,.cls-6,.cls-7,.cls-8,.cls-9{stroke-linecap:round;}.cls-1,.cls-10,.cls-11,.cls-12,.cls-13,.cls-14,.cls-15,.cls-16,.cls-17,.cls-18,.cls-19,.cls-2,.cls-20,.cls-3,.cls-4,.cls-5,.cls-6,.cls-7,.cls-8,.cls-9{stroke-linejoin:round;}.cls-1{fill:url(#linear-gradient);}.cls-2{fill:url(#top_white);}.cls-3{fill:url(#linear-gradient-2);}.cls-4{fill:url(#linear-gradient-3);}.cls-5{fill:url(#top_white-2);}.cls-6{fill:url(#linear-gradient-4);}.cls-7{fill:url(#linear-gradient-5);}.cls-8{fill:url(#linear-gradient-6);}.cls-9{fill:url(#linear-gradient-7);}.cls-10{fill:#d2d2d2;}.cls-11{fill:url(#top_white-3);}.cls-12{fill:#f0f0f0;}.cls-13{fill:url(#linear-gradient-8);}.cls-14{fill:url(#linear-gradient-9);}.cls-15,.cls-19,.cls-20{fill:none;}.cls-16{fill:url(#linear-gradient-10);}.cls-17{fill:url(#linear-gradient-11);}.cls-18{fill:url(#top_white-4);}.cls-19{stroke:#2d2d2d;}.cls-20{stroke:#00415f;}</style><linearGradient id="linear-gradient" x1="39.53" y1="11.62" x2="42.74" y2="17.19" gradientUnits="userSpaceOnUse"><stop offset="0" stop-color="#fff"/><stop offset="1" stop-color="#d2d2d2"/></linearGradient><linearGradient id="top_white" x1="39.08" y1="35.78" x2="48.13" y2="20.1" gradientUnits="userSpaceOnUse"><stop offset="0" stop-color="#fff"/><stop offset="1" stop-color="#f0f0f0"/></linearGradient><linearGradient id="linear-gradient-2" x1="45.38" y1="38.22" x2="47.02" y2="41.05" xlink:href="#linear-gradient"/><linearGradient id="linear-gradient-3" x1="43.31" y1="42.08" x2="45.17" y2="45.29" gradientUnits="userSpaceOnUse"><stop offset="0" stop-color="#f5f5f5"/><stop offset="1" stop-color="#bebebe"/></linearGradient><linearGradient id="top_white-2" x1="37" y1="10.98" x2="42.92" y2="10.98" xlink:href="#top_white"/><linearGradient id="linear-gradient-4" x1="39.11" y1="20.53" x2="34.83" y2="32.18" gradientUnits="userSpaceOnUse"><stop offset="0" stop-color="#737373"/><stop offset="1" stop-color="#cfcfd0"/></linearGradient><linearGradient id="linear-gradient-5" x1="30.81" y1="14.45" x2="47.37" y2="43.14" xlink:href="#linear-gradient-3"/><linearGradient id="linear-gradient-6" x1="7.97" y1="38.28" x2="14.84" y2="50.18" xlink:href="#linear-gradient-3"/><linearGradient id="linear-gradient-7" x1="22.65" y1="54.4" x2="34.14" y2="34.49" xlink:href="#linear-gradient"/><linearGradient id="top_white-3" x1="7.61" y1="38.61" x2="42.35" y2="38.61" xlink:href="#top_white"/><linearGradient id="linear-gradient-8" x1="35.75" y1="44" x2="37.63" y2="44" xlink:href="#linear-gradient-3"/><linearGradient id="linear-gradient-9" x1="38.48" y1="43.09" x2="42.16" y2="53.79" xlink:href="#linear-gradient-4"/><linearGradient id="linear-gradient-10" x1="42.53" y1="48.15" x2="44.84" y2="52.14" xlink:href="#linear-gradient"/><linearGradient id="linear-gradient-11" x1="34.08" y1="43.82" x2="39.71" y2="53.58" xlink:href="#linear-gradient-3"/><linearGradient id="top_white-4" x1="33.44" y1="46.48" x2="47.36" y2="46.48" xlink:href="#top_white"/></defs><title>CATIA _ CEG - Civil Engineering</title><polygon class="cls-1" points="42.92 11.08 42.92 17.09 39.34 17.73 39.34 11.73 42.92 11.08"/><polygon class="cls-2" points="44.34 38.82 48.06 37.82 42.92 17.09 39.34 17.73 44.34 38.82"/><polygon class="cls-3" points="44.34 41.48 44.34 38.82 48.06 37.82 48.06 40.45 44.34 41.48"/><polygon class="cls-4" points="43.34 46.34 48.06 40.45 44.34 41.48 40.53 47.13 43.34 46.34"/><polygon class="cls-5" points="39.73 11.56 36.99 10.88 40.18 10.4 42.92 11.08 39.73 11.56"/><polygon class="cls-6" points="37.98 19.84 33.51 31.82 36.61 31.03 39.06 24.63 37.98 19.84"/><polygon class="cls-7" points="39.34 17.73 39.34 11.73 36.99 10.88 36.99 17.09 31.28 32.39 33.51 31.82 37.98 19.84 42.34 39.23 42.34 40.67 38.84 45.88 40.47 47.13 44.34 41.48 44.34 38.82 39.34 17.73"/><polygon class="cls-8" points="7.61 40.95 7.61 38.49 15.09 47.31 15.09 50.04 7.61 40.95"/><polygon class="cls-9" points="42.34 40.14 42.34 39.23 15.09 47.13 15.09 50.04 41.76 41.54 42.34 40.67 42.34 40.14"/><polygon class="cls-10" points="47.98 37.45 48.06 37.82 48.06 39.59 56.14 37.1 56.14 35.04 47.98 37.45"/><polygon class="cls-11" points="42.34 39.23 40.29 30.09 7.61 38.49 15.09 47.13 42.34 39.23"/><polygon class="cls-12" points="45.93 29.23 47.98 37.45 56.14 35.04 45.93 29.23"/><polygon class="cls-13" points="37.63 44.95 35.75 43.45 37.03 43.05 37.63 44.95"/><polygon class="cls-14" points="40.22 43.83 39.62 42.22 37.03 43.05 37.63 44.95 39.95 44.23 40.22 43.83"/><line class="cls-15" x1="15.09" y1="47.13" x2="42.35" y2="39.23"/><line class="cls-15" x1="11.35" y1="42.81" x2="41.3" y2="34.56"/><line class="cls-15" x1="46.89" y1="33.07" x2="50.79" y2="31.99"/><polygon class="cls-16" points="47.36 50.69 47.36 47.3 40.19 49.51 40.19 53.3 47.36 50.69"/><polygon class="cls-17" points="33.44 44.19 33.44 47.63 40.19 53.3 40.19 49.51 33.44 44.19"/><polygon class="cls-18" points="43.34 46.34 40.47 47.13 38.84 45.88 39.95 44.23 37.63 44.95 35.75 43.45 33.44 44.19 40.19 49.51 47.36 47.3 44.28 45.17 43.34 46.34"/><path class="cls-19" d="M31.23,32.41h0L7.58,38.49V41L15.06,50l18.35-5.85v3.44l6.75,5.67,7.17-2.61V47.3l-3.07-2.13L48,40.45v-.86l8.07-2.49V35L45.9,29.22l-3-12.13v-6l-2.74-.68L37,10.88v4.67"/><line class="cls-20" x1="38.08" y1="14.31" x2="12.97" y2="42.36"/><line class="cls-20" x1="38.08" y1="14.31" x2="21.08" y2="40.14"/><line class="cls-20" x1="38.08" y1="14.31" x2="29.17" y2="37.97"/></svg>