<svg id="Layer_5" data-name="Layer 5" xmlns="http://www.w3.org/2000/svg" xmlns:xlink="http://www.w3.org/1999/xlink" viewBox="0 0 64 64"><defs><linearGradient id="linear-gradient" x1="7.5" y1="34.98" x2="55.75" y2="34.98" gradientUnits="userSpaceOnUse"><stop offset="0" stop-color="#d2d2d2"/><stop offset="0.63" stop-color="#a0a2a3"/><stop offset="0.73" stop-color="#a4a6a7"/><stop offset="0.83" stop-color="#b2b3b4"/><stop offset="0.95" stop-color="#c7c8c9"/><stop offset="1" stop-color="#d5d5d6"/></linearGradient><linearGradient id="linear-gradient-2" x1="7.5" y1="32.92" x2="55.75" y2="32.92" xlink:href="#linear-gradient"/><linearGradient id="linear-gradient-3" x1="29.37" y1="15.06" x2="41.44" y2="35.96" gradientUnits="userSpaceOnUse"><stop offset="0" stop-color="#ababab"/><stop offset="1" stop-color="#5b5b5b"/></linearGradient><linearGradient id="linear-gradient-4" x1="7.5" y1="25.5" x2="57.5" y2="25.5" xlink:href="#linear-gradient-3"/></defs><title>CATCPI_AP_AppIcon</title><path d="M34.3,21.7C27.89,32.55,18.51,24.2,7.5,38.5c10.07-1.78,23.33,4,28,13C45.78,29,55.43,37.91,55.75,18.46,47.56,25.34,37.86,26.71,34.3,21.7Z" stroke="#2d2d2d" stroke-linecap="round" stroke-linejoin="round" fill="url(#linear-gradient)"/><path d="M34.3,18.34C27.89,29.19,18.51,20.2,7.5,34.5c10.07-1.78,23.33,4,28,13C45.87,26.38,53,35.39,55.75,18.68,47.56,25.56,37.86,23.35,34.3,18.34Z" stroke="#2d2d2d" stroke-linecap="round" stroke-linejoin="round" fill="url(#linear-gradient-2)"/><path d="M57.5,11.5c-4,21.2-12.42,11.93-22,32-4.82-9.48-17.93-15.82-28-14V26.53L46.12,21,57.5,11.5Z" stroke="#333332" stroke-linecap="round" stroke-linejoin="round" fill="url(#linear-gradient-3)"/><path d="M33.5,11.5c-6.41,10.86-15,.73-26,15,10.07-1.77,23.33,4,28,13,10-18.29,16.37-10.36,22-28C49.3,18.38,37.07,16.51,33.5,11.5Z" stroke="#333332" stroke-linecap="round" stroke-linejoin="round" fill="url(#linear-gradient-4)"/><line x1="16.27" y1="19.34" x2="40.38" y2="31.21" fill="none" stroke="#333332" stroke-linecap="round" stroke-linejoin="round"/><polyline points="35.5 39.5 34.32 28.43 23.33 28.7 22.78 22.52 7.5 26.5" fill="none" stroke="#333332" stroke-linecap="round" stroke-linejoin="round"/><polygon points="45.29 27.06 25.3 17.75 22.78 22.52 33.41 21.48 34.32 28.43 45.29 27.06" fill="none" stroke="#333332" stroke-linecap="round" stroke-linejoin="round"/><line x1="51.81" y1="22.13" x2="31.11" y2="15.4" fill="none" stroke="#333332" stroke-linecap="round" stroke-linejoin="round"/><path d="M33.5,11.5l2.37,5.43,7.18-.55,3.5,3.89a26.87,26.87,0,0,0,5.26-2.57,29.49,29.49,0,0,0,5.69-6.2" fill="none" stroke="#333332" stroke-linecap="round" stroke-linejoin="round"/><polyline points="25.3 17.75 35.87 16.93 33.41 21.48 46.44 20.05 44.91 26.9" fill="none" stroke="#333332" stroke-linecap="round" stroke-linejoin="round"/></svg>