<svg id="Layer_5" data-name="Layer 5" xmlns="http://www.w3.org/2000/svg" xmlns:xlink="http://www.w3.org/1999/xlink" viewBox="0 0 64 64"><defs><linearGradient id="linear-gradient" x1="25.9" y1="31.33" x2="40.02" y2="55.79" gradientUnits="userSpaceOnUse"><stop offset="0" stop-color="#f4f6f6"/><stop offset="0.99" stop-color="#bfbdbd"/></linearGradient><linearGradient id="linear-gradient-2" x1="45.77" y1="45.59" x2="49.74" y2="52.46" gradientUnits="userSpaceOnUse"><stop offset="0" stop-color="#fff"/><stop offset="1" stop-color="#f1f0f0"/></linearGradient><linearGradient id="linear-gradient-3" x1="25.44" y1="22.85" x2="39.57" y2="47.32" gradientUnits="userSpaceOnUse"><stop offset="0" stop-color="#ababab"/><stop offset="1" stop-color="#5c5c5c"/></linearGradient><linearGradient id="linear-gradient-4" x1="41.1" y1="51.51" x2="25.7" y2="24.83" gradientUnits="userSpaceOnUse"><stop offset="0" stop-color="#2a5b79"/><stop offset="1" stop-color="#84bddb"/></linearGradient><linearGradient id="linear-gradient-5" x1="52.48" y1="43.4" x2="55.14" y2="43.4" xlink:href="#linear-gradient-3"/><linearGradient id="linear-gradient-6" x1="44.52" y1="46.48" x2="47.18" y2="46.48" xlink:href="#linear-gradient-3"/><linearGradient id="linear-gradient-7" x1="35.96" y1="51.75" x2="24.41" y2="31.75" gradientUnits="userSpaceOnUse"><stop offset="0" stop-color="#38708d"/><stop offset="1" stop-color="#8cd6f3"/></linearGradient><linearGradient id="linear-gradient-8" x1="49.9" y1="46.59" x2="45.83" y2="39.55" gradientUnits="userSpaceOnUse"><stop offset="0" stop-color="#74c3e2"/><stop offset="1" stop-color="#a4def5"/></linearGradient><linearGradient id="linear-gradient-9" x1="40.48" y1="44.46" x2="26.88" y2="20.9" xlink:href="#linear-gradient-4"/><linearGradient id="linear-gradient-10" x1="24.88" y1="39.15" x2="35.64" y2="57.78" gradientUnits="userSpaceOnUse"><stop offset="0" stop-color="#fff"/><stop offset="1" stop-color="#d2d3d3"/></linearGradient><linearGradient id="linear-gradient-11" x1="25.75" y1="35.93" x2="33.32" y2="49.05" xlink:href="#linear-gradient-3"/><linearGradient id="linear-gradient-12" x1="28" y1="19.5" x2="38" y2="19.5" gradientUnits="userSpaceOnUse"><stop offset="0" stop-color="#161616"/><stop offset="1" stop-color="#515252"/></linearGradient><linearGradient id="linear-gradient-13" x1="17.44" y1="40.52" x2="19.06" y2="43.33" xlink:href="#linear-gradient"/><linearGradient id="linear-gradient-14" x1="24.96" y1="38.76" x2="26.58" y2="41.58" xlink:href="#linear-gradient"/><linearGradient id="linear-gradient-15" x1="32.03" y1="37.01" x2="33.66" y2="39.82" xlink:href="#linear-gradient"/><linearGradient id="linear-gradient-16" x1="22.3" y1="40.96" x2="23.93" y2="43.77" xlink:href="#linear-gradient-3"/><linearGradient id="linear-gradient-17" x1="29.82" y1="39.2" x2="31.44" y2="42.02" xlink:href="#linear-gradient-3"/><linearGradient id="linear-gradient-18" x1="34.36" y1="43.84" x2="39.66" y2="43.84" xlink:href="#linear-gradient"/><linearGradient id="linear-gradient-19" x1="35.77" y1="39.83" x2="37.21" y2="42.32" xlink:href="#linear-gradient-3"/><linearGradient id="linear-gradient-20" x1="41.08" y1="43.34" x2="42.51" y2="45.83" xlink:href="#linear-gradient-3"/></defs><title>I_CompositesAI_FormingApps</title><path d="M55.14,42.09,41.87,32.87a15,15,0,0,0-11.49-1.76L10,35.94,11.36,46l3.1,3.07L33,41.21,47.18,53.5l5.3-1.76Z" stroke="#7a7a7a" stroke-linecap="round" stroke-linejoin="round" fill="url(#linear-gradient)"/><line x1="11.36" y1="46.04" x2="30.38" y2="41.21" fill="none" stroke="#797979" stroke-linecap="round" stroke-linejoin="round"/><polyline points="44.52 45.6 47.18 53.5 52.48 51.74 55.14 42.09" fill="none" stroke="#797979" stroke-linecap="round" stroke-linejoin="round"/><polyline points="15.34 41.21 14.46 49.11 11.36 46.04 10.04 35.94" fill="none" stroke="#797979" stroke-linecap="round" stroke-linejoin="round"/><polygon points="44.52 45.16 52.48 51.74 47.18 53.5 44.52 45.16" stroke="#7a7a7a" stroke-linecap="round" stroke-linejoin="round" fill="url(#linear-gradient-2)"/><path d="M55.14,42.09,41.87,32.87a15,15,0,0,0-11.49-1.76L10,35.94,6.5,32.43l24.68-5.58a15,15,0,0,1,11.58,2.06L60,40.33Z" stroke="#333332" stroke-linecap="round" stroke-linejoin="round" fill="url(#linear-gradient-3)"/><path d="M55.14,35.94,41.87,26.72A15,15,0,0,0,30.38,25L10,29.79l1.32,10.1L14.46,43,33,35.06,47.18,47.35l5.3-1.75Z" stroke="#073755" stroke-linecap="round" stroke-linejoin="round" fill="url(#linear-gradient-4)"/><polygon points="53.81 41.21 52.48 45.6 54.25 45.16 55.14 42.09 53.81 41.21" stroke="#333332" stroke-linecap="round" stroke-linejoin="round" fill="url(#linear-gradient-5)"/><line x1="11.36" y1="39.45" x2="30.38" y2="34.62" fill="none" stroke="#073755" stroke-linecap="round" stroke-linejoin="round"/><polyline points="44.52 39.01 47.18 46.91 52.48 45.16 55.14 35.5" fill="none" stroke="#073755" stroke-linecap="round" stroke-linejoin="round"/><polygon points="45.41 47.79 47.18 47.35 44.52 45.16 45.41 47.79" stroke="#333332" stroke-linecap="round" stroke-linejoin="round" fill="url(#linear-gradient-6)"/><path d="M36.14,32.35l8.38,6.22,2.66,8.34L36.72,39a7,7,0,0,0-6.19-1.14L14.46,42.52l.88-7.9L30.16,31A7,7,0,0,1,36.14,32.35Z" stroke="#073755" stroke-linecap="round" stroke-linejoin="round" fill="url(#linear-gradient-7)"/><polyline points="15.34 34.62 14.46 42.52 11.36 39.45 10.04 29.35" fill="none" stroke="#073755" stroke-linecap="round" stroke-linejoin="round"/><polygon points="44.52 39.01 52.48 45.6 47.18 47.35 44.52 39.01" stroke="#073755" stroke-linecap="round" stroke-linejoin="round" fill="url(#linear-gradient-8)"/><path d="M44.52,39l-2.65.88-7.69-5.82a4.09,4.09,0,0,0-3.53-.69l-13.1,3.44-1.76-1.76" fill="none" stroke="#073755" stroke-linecap="round" stroke-linejoin="round"/><path d="M55.14,35.94,41.87,26.72A15,15,0,0,0,30.38,25L10,29.79,8.27,28l22.51-5.16A15,15,0,0,1,42.35,25L57.79,35.06Z" stroke="#073755" stroke-linecap="round" stroke-linejoin="round" fill="url(#linear-gradient-9)"/><path d="M36.14,38.93l8.38,6.23,2.66,8.34-10.46-8a7,7,0,0,0-6.19-1.14L14.46,49.11l.88-7.9,14.82-3.59A7,7,0,0,1,36.14,38.93Z" stroke="#7a7a7a" stroke-linecap="round" stroke-linejoin="round" fill="url(#linear-gradient-10)"/><path d="M10,35.94,11.36,46l3.1,3.07L30.53,44.4a7,7,0,0,1,6.19,1.14l10.46,8,5.3-1.76,2.66-9.65" fill="none" stroke="#323232" stroke-linecap="round" stroke-linejoin="round"/><polyline points="10.04 35.94 10.48 39.89 14.9 43.84 15.34 41.21" fill="none" stroke="#323232" stroke-linecap="round" stroke-linejoin="round"/><polyline points="55.14 42.09 54.25 45.16 45.41 47.79 44.52 45.16" fill="none" stroke="#323232" stroke-linecap="round" stroke-linejoin="round"/><path d="M15.34,41.21l4,3.95,9.46-2.68a6.15,6.15,0,0,1,5.36,1l4.64,3.45,5.74-1.75L35.35,38.5a6.15,6.15,0,0,0-5.11-1Z" stroke="#333332" stroke-linecap="round" stroke-linejoin="round" fill="url(#linear-gradient-11)"/><polygon points="35 23 35 11 31 11 31 23 28 23 33 28 38 23 35 23" fill-rule="evenodd" fill="url(#linear-gradient-12)"/><g opacity="0.4"><path d="M35,11V23h3l-5,5-5-5h3V11h4m0-1H31a1,1,0,0,0-1,1V22H28a1,1,0,0,0-.92.62,1,1,0,0,0,.21,1.09l5,5a1,1,0,0,0,1.42,0l5-5a1,1,0,0,0,.21-1.09A1,1,0,0,0,38,22H36V11a1,1,0,0,0-1-1Z" fill="#fff"/></g><polygon points="18.88 40.33 21.09 42.52 17.55 43.4 15.34 41.21 18.88 40.33" stroke="#323232" stroke-linecap="round" stroke-linejoin="round" fill="url(#linear-gradient-13)"/><polygon points="26.4 38.57 28.61 40.77 25.07 41.65 22.86 39.45 26.4 38.57" stroke="#323232" stroke-linecap="round" stroke-linejoin="round" fill="url(#linear-gradient-14)"/><path d="M34.74,38.08l.94.93-3.54.88L29.93,37.7l1.8-.45A3.19,3.19,0,0,1,34.74,38.08Z" stroke="#323232" stroke-linecap="round" stroke-linejoin="round" fill="url(#linear-gradient-15)"/><polygon points="23.74 40.77 25.95 42.96 22.42 43.84 20.21 41.65 23.74 40.77" stroke="#333332" stroke-linecap="round" stroke-linejoin="round" fill="url(#linear-gradient-16)"/><polygon points="31.26 39.01 33.47 41.21 29.93 42.09 27.72 39.89 31.26 39.01" stroke="#333332" stroke-linecap="round" stroke-linejoin="round" fill="url(#linear-gradient-17)"/><polygon points="37.45 42.52 34.35 43.4 36.57 45.16 39.66 44.28 37.45 42.52" stroke="#323232" stroke-linecap="round" stroke-linejoin="round" fill="url(#linear-gradient-18)"/><polygon points="37.01 39.89 33.91 40.77 36.12 42.52 39.22 41.65 37.01 39.89" stroke="#333332" stroke-linecap="round" stroke-linejoin="round" fill="url(#linear-gradient-19)"/><polygon points="42.31 43.4 39.22 44.28 41.43 46.04 44.52 45.16 42.31 43.4" stroke="#333332" stroke-linecap="round" stroke-linejoin="round" fill="url(#linear-gradient-20)"/></svg>