<svg xmlns="http://www.w3.org/2000/svg" xmlns:xlink="http://www.w3.org/1999/xlink" viewBox="0 0 64 64"><defs><linearGradient id="linear-gradient" x1="20.06" y1="17.32" x2="33.44" y2="40.49" gradientTransform="translate(37.78 -8.71) rotate(60)" gradientUnits="userSpaceOnUse"><stop offset="0" stop-color="#f5f6f6"/><stop offset="0.99" stop-color="#d2d3d3"/></linearGradient><linearGradient id="linear-gradient-4" x1="36.97" y1="29.63" x2="47.27" y2="47.48" gradientUnits="userSpaceOnUse"><stop offset="0.01" stop-color="#d2d3d3"/><stop offset="1" stop-color="#f5f6f6"/></linearGradient><linearGradient id="linear-gradient-5" x1="39.97" y1="48.88" x2="20.83" y2="15.73" gradientUnits="userSpaceOnUse"><stop offset="0" stop-color="#2a5b79"/><stop offset="1" stop-color="#3388b0"/></linearGradient></defs><title>CATCPB_AP_AppIcon</title><g id="Layer_6" data-name="Layer 6"><ellipse cx="26.44" cy="28.36" rx="18.7" ry="15.11" transform="translate(-11.35 37.07) rotate(-60)" stroke="#333332" stroke-linecap="round" stroke-linejoin="round" fill="url(#linear-gradient)"/><polyline points="43.98 51.23 27 36.5 36.5 26.5 51.8 34.98" stroke="#333332" stroke-linecap="round" stroke-linejoin="round" fill="url(#linear-gradient)"/><ellipse cx="26.44" cy="28.36" rx="18.7" ry="15.11" transform="translate(-11.35 37.07) rotate(-60)" stroke="#333332" stroke-linecap="round" stroke-linejoin="round" fill="url(#linear-gradient)"/><ellipse cx="26.44" cy="28.36" rx="15.54" ry="12.56" transform="translate(-11.35 37.07) rotate(-60)" fill="none" stroke="#333332" stroke-linecap="round" stroke-linejoin="round"/><ellipse cx="26.44" cy="28.36" rx="15.54" ry="12.56" transform="translate(-11.35 37.07) rotate(-60)" fill="none" stroke="#333332" stroke-linecap="round" stroke-linejoin="round"/></g><g id="Layer_5" data-name="Layer 5"><polyline points="43.98 51.23 31.5 40.5 39 25.5 41 29.09 51.8 34.98" fill="url(#linear-gradient-4)"/><path d="M49,33H44V30.5h0a.46.46,0,0,0-.42-.46l-.08,0h0l-1.13,0A39,39,0,0,0,36,19.9V16a.5.5,0,0,0-1,0v2.74a51.55,51.55,0,0,0-5.18-5.12h0a.52.52,0,0,0-.27-.1h-.08a.46.46,0,0,0-.23.09h0a.1.1,0,0,0,0,.05l-.05,0a.6.6,0,0,0-.06.11s0,0,0,0A.57.57,0,0,0,29,14h0c0,.31.23,3.24.63,7.16A53.26,53.26,0,0,0,21.45,17l-.53-.79a.5.5,0,0,0-.92.28.48.48,0,0,0-.47.32.5.5,0,0,0,.3.64l.26.1a36,36,0,0,0,1.1,5.48,34.67,34.67,0,0,0-4.71-.16c-.3-.62-.45-1-.46-1a.5.5,0,0,0-.65-.28.51.51,0,0,0-.28.65s.11.26.31.69l-.47,0a.5.5,0,1,0,.14,1l.22,0,1,.78a42.55,42.55,0,0,0,4,6L13.48,31a.5.5,0,0,0,0,1h0l7.64-.25c.35.41.72.83,1.1,1.25h-8.8l-.1,0-.09,0-.07,0-.08.07,0,0s0,0,0,0a.45.45,0,0,0-.06.19s0,0,0,0v0a.36.36,0,0,0,0,.1l0,.09,0,.07.07.08,0,0a49.14,49.14,0,0,0,7.1,4.1l-3.13,2.61a.49.49,0,0,0-.06.7.48.48,0,0,0,.38.18.49.49,0,0,0,.32-.12l3.51-2.92c.53.23,1.06.44,1.6.63-2.19,1.07-4.36,2.22-4.5,2.29a.51.51,0,0,0-.21.68.5.5,0,0,0,.44.26.53.53,0,0,0,.24-.06s2.94-1.55,5.44-2.74A12.57,12.57,0,0,0,27.5,40h3.15a42.31,42.31,0,0,0,3.53,3.38.49.49,0,0,0,.7-.06A.48.48,0,0,0,35,43h1.72L37,45.56a.51.51,0,0,0,.5.44H40v2a.5.5,0,0,0,1,0V46a.5.5,0,0,0,0-1V43.71l.16.15a.45.45,0,0,0,.34.14.46.46,0,0,0,.36-.16.49.49,0,0,0,0-.7L41.67,43a.5.5,0,0,0-.17-1H41V40h2a.5.5,0,0,0,.46-.31.41.41,0,0,0,0-.19h0A.5.5,0,0,0,44,39V36.84c.88.08,1.41.15,1.43.16a.52.52,0,0,0,.51-.26.48.48,0,0,0-.06-.56c-.61-.74-1.24-1.42-1.88-2.08V34h5a.5.5,0,0,0,0-1Zm-9,0H37.21l-.72-.71-.12-1.05,2.82-.1.81.64Zm1-.38.42.38H41Zm-4.79,6-2.34-1.78.82-.08,1.51,1.81ZM35,28.41l.22,1.86-.75,0L32.21,28h2.08Zm1.08.64c.59.35,1.17.73,1.76,1.14l-1.62,0ZM35.57,33H33l-1-1.29c0-.11,0-.21-.05-.32l2.2-.08,1.43,1.44Zm-3.09,1c.48.61,1,1.21,1.44,1.81-.4,0-.81.08-1.21.14-.13-.63-.25-1.28-.37-2Zm-.72-3.61c-.08-.55-.15-1.1-.23-1.65l1.61,1.6Zm-1.06-.34L29.17,28h1.24C30.5,28.68,30.6,29.36,30.7,30.05ZM31,32.1c0,.3.09.6.14.9H28.83l-1.91-1.45,3.58-.12C30.67,31.66,30.83,31.88,31,32.1Zm.31,1.9c.06.35.13.7.19,1l-1.37-1Zm0,2.16c-.74.13-1.48.29-2.21.48-.68-.88-1.32-1.76-1.89-2.64h1.26Zm4.58.51H36v.11Zm-.79-1c-.46-.56-.92-1.13-1.37-1.7h1.93l.19,1.66ZM36.69,34h.1l1.58,1.58-1.5,0ZM36,27.81V27.5h.07l.47.64Zm-1-.55-.11-.06a.5.5,0,0,0-.36-.19,34.33,34.33,0,0,0-3.42-1.56c-.09-.75-.17-1.49-.25-2.22A32.37,32.37,0,0,1,35,26.68ZM32.24,27H31.3c0-.14,0-.28-.05-.42Zm-2,0H28.44c-.46-.63-.91-1.24-1.34-1.85,1,.28,2,.61,3.08,1C30.21,26.44,30.25,26.72,30.28,27ZM27.2,27H23.59c-.39-1-.73-1.9-1-2.78,1,.13,2,.32,3,.56ZM24,28h3.92c.6.81,1.2,1.63,1.83,2.46l-4.1.13L25,30.08C24.62,29.37,24.3,28.68,24,28Zm3.16,5h-.56c-.17-.27-.34-.54-.49-.8Zm-.91,1.35c.55.86,1.16,1.72,1.82,2.58L28,37c-.86-.67-1.67-1.35-2.42-2.05Zm-1.4-.13L24.64,34h.48Zm4.93,3.28q1-.24,2.13-.42c.14.67.29,1.31.44,1.92H31.1C30.65,38.5,30.21,38,29.79,37.5Zm3.23,0,2,1.55H33.39C33.27,38.51,33.14,38,33,37.45ZM39,42H37.6l-.13-1.17Zm-1.86-3.85L37,36.62c.83,0,1.64,0,2.4,0l.61.62V39H37.9Zm2.63-2.56L38.21,34H40v1.59ZM41,34h1.49l.51.5v1.24c-.59-.05-1.26-.09-2-.12Zm1.89-1c-.62-.6-1.25-1.16-1.89-1.69v-.23L43,31v2Zm-1.61-2.93-1.47.05-.05,0A15.47,15.47,0,0,1,36,25.57V21.51A37.07,37.07,0,0,1,41.28,30.07ZM35,20.29v3.62C33.37,21.1,31.88,18,30.94,16,32,17,33.47,18.5,35,20.29Zm-4.77-3.45c1,2.08,2.43,5.07,4,7.79a37,37,0,0,0-3.54-2.71C30.51,20,30.35,18.2,30.23,16.84Zm-.47,5.65c.09.83.18,1.68.29,2.56a37.12,37.12,0,0,0-3.84-1.14c-1.52-2.13-2.8-4-3.73-5.36A52.27,52.27,0,0,1,29.76,22.49Zm-8.54-4c.82,1.22,2.05,3,3.54,5.12-.87-.18-1.71-.31-2.49-.42A35.08,35.08,0,0,1,21.22,18.47Zm.27,5.61a43.49,43.49,0,0,0,1.75,4.68l-6.15-4.68L17,23.87A32.62,32.62,0,0,1,21.49,24.08Zm-3.06,2.27,5.65,4.3-2.47.08A42.34,42.34,0,0,1,18.43,26.35Zm4,5.35,2.22-.07c.24.45.5.91.77,1.37h-1.8C23.22,32.57,22.82,32.13,22.44,31.7ZM15.15,34h8.06c.28.29.57.58.87.86l-2.91,2.43A45.42,45.42,0,0,1,15.15,34Zm7,3.73,2.62-2.18c.65.6,1.33,1.2,2.06,1.78l-.57.21c-.57.23-1.3.55-2.07.92C23.57,38.26,22.88,38,22.2,37.73Zm3.63,1.1.86-.37c.36-.14.74-.28,1.12-.4.42.32.86.63,1.31.94H27.5A10,10,0,0,1,25.83,38.83ZM32.63,40c.08.29.16.57.25.84-.29-.28-.56-.56-.83-.84Zm1.71,2a20.28,20.28,0,0,1-.67-2h2.7l.23,2ZM38,45l-.23-2H40v2Zm2-3.71q-.6-.61-1.2-1.29H40ZM41,39v-.79l.79.79Zm2-.21-2-2v-.15c.74,0,1.41.07,2,.11Zm1.28-2.94-.28,0v-.27Z" fill="url(#linear-gradient-5)"/><path d="M51.8,35,42,29.55c1.6-7.14-.66-14.17-6.22-17.38C28.56,8,18.51,11.86,13.35,20.81S9.86,40.38,17.09,44.56c5.08,2.93,11.56,1.87,16.75-2.12l8.64,7.48A3.78,3.78,0,0,0,44,51.23c2.88,1.38,7-1.13,9.11-5.62S54.68,36.36,51.8,35Z" fill="none" stroke="#333332" stroke-linecap="round" stroke-linejoin="round"/><ellipse cx="47.89" cy="43.11" rx="9.02" ry="5.77" transform="translate(-11.72 67.57) rotate(-64.3)" stroke="#333332" stroke-linecap="round" stroke-linejoin="round" fill="url(#linear-gradient)"/><path d="M38.44,19.5a10.62,10.62,0,0,0-4.23-4.6c-6-3.47-14.36-.25-18.65,7.18s-2.9,16.27,3.1,19.74a10.41,10.41,0,0,0,2.34,1" fill="none" stroke="#333332" stroke-linecap="round" stroke-linejoin="round"/></g></svg>