<svg xmlns="http://www.w3.org/2000/svg" xmlns:xlink="http://www.w3.org/1999/xlink" viewBox="0 0 64 64"><defs><style>.cls-1,.cls-18,.cls-19,.cls-20,.cls-21,.cls-22,.cls-23,.cls-24,.cls-25,.cls-26,.cls-27,.cls-6{fill:none;}.cls-2{isolation:isolate;}.cls-3,.cls-4,.cls-5{stroke:#797979;}.cls-10,.cls-18,.cls-19,.cls-20,.cls-21,.cls-22,.cls-23,.cls-24,.cls-25,.cls-26,.cls-27,.cls-3,.cls-4,.cls-5,.cls-6,.cls-8{stroke-linecap:round;stroke-linejoin:round;}.cls-18,.cls-19,.cls-20,.cls-21,.cls-22,.cls-23,.cls-24,.cls-25,.cls-26,.cls-3,.cls-4,.cls-5{stroke-width:0.8px;}.cls-3{fill:url(#linear-gradient);}.cls-4{fill:url(#linear-gradient-2);}.cls-5{fill:url(#linear-gradient-3);}.cls-6{stroke:url(#linear-gradient-4);}.cls-11,.cls-7,.cls-9{fill-rule:evenodd;}.cls-7{opacity:0.2;fill:url(#linear-gradient-5);}.cls-10,.cls-27,.cls-8{stroke:#2d2d2d;}.cls-8{fill:url(#linear-gradient-6);}.cls-11,.cls-9{opacity:0.3;}.cls-9{fill:url(#linear-gradient-7);}.cls-10{fill:url(#linear-gradient-8);}.cls-11{fill:url(#linear-gradient-9);}.cls-12{fill:url(#linear-gradient-10);}.cls-13{opacity:0.4;mix-blend-mode:overlay;}.cls-14{clip-path:url(#clip-path);}.cls-15,.cls-17{opacity:0.8;}.cls-15{fill:url(#radial-gradient);}.cls-16{clip-path:url(#clip-path-2);}.cls-17{fill:url(#radial-gradient-2);}.cls-18{stroke:url(#linear-gradient-11);}.cls-19{stroke:url(#linear-gradient-12);}.cls-20{stroke:url(#linear-gradient-13);}.cls-21{stroke:url(#linear-gradient-14);}.cls-22{stroke:url(#linear-gradient-15);}.cls-23{stroke:url(#linear-gradient-16);}.cls-24{stroke:url(#linear-gradient-17);}.cls-25{stroke:url(#linear-gradient-18);}.cls-26{stroke:url(#linear-gradient-19);}</style><linearGradient id="linear-gradient" x1="24.92" y1="37.2" x2="18.46" y2="48.39" gradientUnits="userSpaceOnUse"><stop offset="0" stop-color="#f5f6f6"/><stop offset="0.99" stop-color="#bfbebe"/></linearGradient><linearGradient id="linear-gradient-2" x1="42.1" y1="30.1" x2="49.21" y2="42.43" gradientUnits="userSpaceOnUse"><stop offset="0" stop-color="#fff"/><stop offset="1" stop-color="#d2d3d3"/></linearGradient><linearGradient id="linear-gradient-3" x1="13.02" y1="31.68" x2="52.69" y2="31.68" xlink:href="#linear-gradient-2"/><linearGradient id="linear-gradient-4" x1="41.97" y1="48.77" x2="26.14" y2="21.35" gradientUnits="userSpaceOnUse"><stop offset="0" stop-color="#161616"/><stop offset="1" stop-color="#474747"/></linearGradient><linearGradient id="linear-gradient-5" x1="39.28" y1="38.24" x2="28.79" y2="20.07" gradientUnits="userSpaceOnUse"><stop offset="0.18" stop-color="#161616"/><stop offset="0.49" stop-color="#181818"/><stop offset="0.61" stop-color="#1f1f1f"/><stop offset="0.69" stop-color="#2a2a2a"/><stop offset="0.75" stop-color="#3b3b3b"/><stop offset="0.81" stop-color="#515151"/></linearGradient><linearGradient id="linear-gradient-6" x1="7.5" y1="25.18" x2="56.5" y2="25.18" gradientUnits="userSpaceOnUse"><stop offset="0" stop-color="#bababa"/><stop offset="0.63" stop-color="#919394"/><stop offset="0.7" stop-color="#8d8f90"/><stop offset="0.79" stop-color="#808282"/><stop offset="0.87" stop-color="#6b6c6c"/><stop offset="0.96" stop-color="#4d4e4e"/><stop offset="1" stop-color="#3d3d3d"/></linearGradient><linearGradient id="linear-gradient-7" x1="40.54" y1="31.51" x2="30.87" y2="14.76" gradientUnits="userSpaceOnUse"><stop offset="0" stop-color="#161616"/><stop offset="1" stop-color="#515151"/></linearGradient><linearGradient id="linear-gradient-8" y1="22.03" y2="22.03" xlink:href="#linear-gradient-6"/><linearGradient id="linear-gradient-9" x1="39.46" y1="26.85" x2="30.62" y2="11.53" xlink:href="#linear-gradient-7"/><linearGradient id="linear-gradient-10" x1="7.5" y1="19.68" x2="56.5" y2="19.68" gradientUnits="userSpaceOnUse"><stop offset="0" stop-color="#d2d2d2"/><stop offset="0.63" stop-color="#a0a2a3"/><stop offset="0.73" stop-color="#a4a6a7"/><stop offset="0.83" stop-color="#b2b3b4"/><stop offset="0.95" stop-color="#c7c8c9"/><stop offset="1" stop-color="#d5d5d6"/></linearGradient><clipPath id="clip-path"><path class="cls-1" d="M33.36,11.53c2,1.79,6.21,2.94,10.89,2.94a25.16,25.16,0,0,0,12-2.86c-1.7,6-4.65,7.31-8.37,9s-8.32-.23-13.27,7.18c-4.21-5.4-14.92-5.76-24-5.76a25,25,0,0,0-2.78.14c5.55-4.88,10.59-5.59,15-6.21,4-.57,7.53-1.06,10.48-4.42"/></clipPath><radialGradient id="radial-gradient" cx="135.01" cy="-112.96" r="18.28" gradientTransform="matrix(1.29, -0.15, 0.11, 0.45, -105.46, 81.55)" gradientUnits="userSpaceOnUse"><stop offset="0.35" stop-color="#fff"/><stop offset="1" stop-color="#fff" stop-opacity="0"/></radialGradient><clipPath id="clip-path-2"><path class="cls-1" d="M33.36,11.53c2,1.79,6.21,2.94,10.89,2.94a25.16,25.16,0,0,0,12-2.86c-1.7,6-4.65,6.31-8.37,8s-8.32.77-13.27,8.18c-4.21-5.4-14.92-5.76-24-5.76a25,25,0,0,0-2.78.14c5.55-4.88,10.59-5.59,15-6.21,4-.57,7.53-1.06,10.48-4.42"/></clipPath><radialGradient id="radial-gradient-2" cx="-32.12" cy="-622.83" r="30.59" gradientTransform="matrix(0.75, 0.06, -0.04, 0.2, 25.57, 148.34)" gradientUnits="userSpaceOnUse"><stop offset="0.35" stop-color="#fff"/><stop offset="1" stop-color="#fff" stop-opacity="0"/></radialGradient><linearGradient id="linear-gradient-11" x1="25.9" y1="19.57" x2="23.3" y2="15.08" xlink:href="#linear-gradient-4"/><linearGradient id="linear-gradient-12" x1="29.49" y1="20.23" x2="26.84" y2="15.64" xlink:href="#linear-gradient-4"/><linearGradient id="linear-gradient-13" x1="33.1" y1="20.69" x2="30.78" y2="16.68" xlink:href="#linear-gradient-4"/><linearGradient id="linear-gradient-14" x1="37.31" y1="20.68" x2="35.63" y2="17.77" xlink:href="#linear-gradient-4"/><linearGradient id="linear-gradient-15" x1="41.8" y1="20.88" x2="40.58" y2="18.77" xlink:href="#linear-gradient-4"/><linearGradient id="linear-gradient-16" x1="28.94" y1="30.62" x2="19.56" y2="14.38" xlink:href="#linear-gradient-4"/><linearGradient id="linear-gradient-17" x1="32.89" y1="27.36" x2="24.11" y2="12.14" xlink:href="#linear-gradient-4"/><linearGradient id="linear-gradient-18" x1="38.66" y1="24.34" x2="31.34" y2="11.66" xlink:href="#linear-gradient-4"/><linearGradient id="linear-gradient-19" x1="45.75" y1="21.44" x2="38.44" y2="8.77" xlink:href="#linear-gradient-4"/></defs><title>CATIA _ CPM - Composites Manufacturing Preparation</title><g class="cls-2"><g id="CATIA___CPM_-_Composites_Manufacturing_Preparation" data-name="CATIA _ CPM - Composites Manufacturing Preparation"><polygon class="cls-3" points="34.5 52.5 7.5 43.5 7.5 35.5 14.66 32.34 32.5 39.5 34.5 42.5 34.5 52.5"/><polygon class="cls-4" points="56.5 27.5 56.5 19.5 34.5 39.5 34.5 52.5 56.5 27.5"/><path class="cls-5" d="M33.34,19.36C27.1,30.18,18.23,21.33,7.5,35.6c9.81-1.77,21,2.9,27.15,8.4C44.5,28.5,53.5,34.5,56.5,19.36,48.51,26.22,36.82,24.36,33.34,19.36Z"/><polyline class="cls-6" points="13.51 29.21 7.5 35.5 7.5 43.5 34.5 52.5 56.5 27.5 56.5 19.5 53.5 21.5"/><path class="cls-7" d="M35.15,19.36C29.8,28,20.19,20.63,11,32c8-.3,18.23,4.62,23.5,9C43,27,50,31,54,21,47.15,26.47,38.13,23.34,35.15,19.36Z"/><path class="cls-8" d="M33.34,13.36C27.1,24.18,18.23,15.33,7.5,29.6c9.81-1.77,21,1.9,27.15,7.4C45.5,20.5,53.5,28.5,56.5,13.36,48.51,20.22,36.82,18.36,33.34,13.36Z"/><path class="cls-9" d="M35.15,13.36C29.8,22,22.19,15.63,13,27c8-.3,16.23,3.62,21.5,8C42.94,22.65,52,24,55,13.36,48.15,18.83,38.13,17.34,35.15,13.36Z"/><path class="cls-10" d="M33.34,11.36C27.1,21.48,18.23,13,7.5,26.3c9.81-1.66,20-.1,27.15,6.4C41.5,20.2,54.5,24.5,56.5,11.36,48.51,17.77,36.82,16,33.34,11.36Z"/><path class="cls-11" d="M34.15,12c-5.35,7.18-12,1.31-21.15,10.77,8-.26,15.73,3.58,21,7.23,8.44-10.28,18-9.15,21-18C48.15,16.55,37.13,15.31,34.15,12Z"/><path class="cls-12" d="M33.34,11.36C27.1,18.65,18.23,12.69,7.5,22.3c9.81-1.19,21,.2,27.15,5.7C46.5,14.5,53.11,23.77,56.5,11.36,47.5,15.5,36.82,14.72,33.34,11.36Z"/><g class="cls-13"><g class="cls-14"><path class="cls-15" d="M79.8,8.7c1.08,4.52-8.59,9.38-21.58,10.84s-24.4-1-25.47-5.53S41.34,4.64,54.33,3.17,78.73,4.18,79.8,8.7Z"/></g></g><g class="cls-13"><g class="cls-16"><path class="cls-17" d="M47.38,21.27c-.62,3.44-11.46,5.35-24.21,4.25S.58,20.74,1.21,17.3,12.67,12,25.42,13.05,48,17.83,47.38,21.27Z"/></g></g><path class="cls-18" d="M13.5,21.5a12.38,12.38,0,0,1,3-2c4-2,9.25-2.13,14-3.5,4.07-1.18,5-3.2,5-3.2"/><path class="cls-19" d="M17.5,21.5l2-1c2.16-1.08,9.25-2.13,14-3.5,4.07-1.18,5-3.2,5-3.2"/><path class="cls-20" d="M21.5,22.5l2-1c2-1,6.25-1.13,11-2.5A19.73,19.73,0,0,0,42,14.2"/><path class="cls-21" d="M26.5,23.5l2-1c2-1,3.75-1.13,8.5-2.5,4.07-1.18,9-5.8,9-5.8"/><path class="cls-22" d="M31.5,25.5a34.82,34.82,0,0,1,3-2c4-2,4.89-2.83,10.3-5,5-2,5.7-5,5.7-5"/><path class="cls-23" d="M11.5,19.5a42.33,42.33,0,0,1,12.28,0,33,33,0,0,1,9.44,3,11.05,11.05,0,0,1,3.78,3"/><path class="cls-24" d="M16.5,17s2.39-.5,9,.5a36.84,36.84,0,0,1,10,3,22.38,22.38,0,0,0,5,2"/><path class="cls-25" d="M25.5,15.5a23.89,23.89,0,0,1,4,.63,50.3,50.3,0,0,1,8,2.37c3,1,7,2,7,2"/><path class="cls-26" d="M30.7,13.7s-.1.43,2.8,1.43a32.49,32.49,0,0,0,9,1.87,49.42,49.42,0,0,0,11-.5"/><path class="cls-27" d="M33.34,11.36C27.1,18.65,18.23,12.69,7.5,22.3c9.81-1.19,21,.2,27.15,5.7C46.5,14.5,53.11,23.77,56.5,11.36,47.5,15.5,36.82,14.72,33.34,11.36Z"/></g></g></svg>