<?xml version="1.0" encoding="iso-8859-1"?>
<!-- Generator: Adobe Illustrator 23.1.0, SVG Export Plug-In . SVG Version: 6.00 Build 0)  -->
<svg version="1.1" xmlns="http://www.w3.org/2000/svg" xmlns:xlink="http://www.w3.org/1999/xlink" x="0px" y="0px"
	 viewBox="0 0 64 64" style="enable-background:new 0 0 64 64;" xml:space="preserve">
<pattern  width="20" height="20" patternUnits="userSpaceOnUse" id="New_Pattern_Swatch_2" viewBox="22.121 -42.121 20 20" style="overflow:visible;">
	<g>
		<rect x="22.121" y="-42.121" style="fill:none;" width="20" height="20"/>
		
			<rect x="49.121" y="-26.263" transform="matrix(0.7071 -0.7071 0.7071 0.7071 23.837 33.3051)" style="fill:#844138;" width="6" height="28.284"/>
		
			<rect x="29.121" y="-26.263" transform="matrix(0.7071 -0.7071 0.7071 0.7071 17.9792 19.163)" style="fill:#844138;" width="6" height="28.284"/>
		
			<rect x="9.121" y="-26.263" transform="matrix(0.7071 -0.7071 0.7071 0.7071 12.1213 5.0208)" style="fill:#844138;" width="6" height="28.284"/>
		
			<rect x="49.121" y="-46.263" transform="matrix(0.7071 -0.7071 0.7071 0.7071 37.9792 27.4472)" style="fill:#844138;" width="6" height="28.284"/>
		
			<rect x="29.121" y="-46.263" transform="matrix(0.7071 -0.7071 0.7071 0.7071 32.1213 13.3051)" style="fill:#844138;" width="6" height="28.284"/>
		
			<rect x="9.121" y="-46.263" transform="matrix(0.7071 -0.7071 0.7071 0.7071 26.2635 -0.837)" style="fill:#844138;" width="6" height="28.284"/>
		
			<rect x="49.121" y="-66.263" transform="matrix(0.7071 -0.7071 0.7071 0.7071 52.1213 21.5894)" style="fill:#844138;" width="6" height="28.284"/>
		
			<rect x="29.121" y="-66.263" transform="matrix(0.7071 -0.7071 0.7071 0.7071 46.2635 7.4472)" style="fill:#844138;" width="6" height="28.284"/>
		
			<rect x="9.121" y="-66.263" transform="matrix(0.7071 -0.7071 0.7071 0.7071 40.4056 -6.6949)" style="fill:#844138;" width="6" height="28.284"/>
	</g>
</pattern>
<g id="Layer_1" style="display:none;">
</g>
<g id="info_r2021x" style="display:none;">
	<g id="pedestal_r2021x" style="display:inline;">
		<path style="opacity:0.5;fill:#FFFFFF;" d="M63.002,64h-62c-0.552,0-1-0.448-1-1V1c0-0.552,0.448-1,1-1h62c0.552,0,1,0.448,1,1v62
			C64.002,63.552,63.554,64,63.002,64z"/>
		<rect x="1.002" y="1" style="fill:#F4F5F6;" width="62" height="62"/>
		<rect x="1.002" y="1" style="fill:#D1D4D4;" width="2" height="62"/>
	</g>
	<g id="no-go_zone_1_" style="display:inline;opacity:0.3;">
		<path style="fill:url(#New_Pattern_Swatch_2);" d="M0,0v64h64V0H0z M57,57H7V7h50V57z"/>
	</g>
	<g style="display:inline;">
		<path style="fill:#EA4F37;" d="M57,7v50H7V7H57 M58,6h-1H7H6v1v50v1h1h50h1v-1V7V6L58,6z"/>
	</g>
</g>
<g id="Notes" style="display:none;">
</g>
<g id="vector_references" style="display:none;">
	<g style="display:inline;">
		<linearGradient id="SVGID_1_" gradientUnits="userSpaceOnUse" x1="8.9715" y1="27.4536" x2="9.9957" y2="29.2276">
			<stop  offset="0" style="stop-color:#F5F5F5"/>
			<stop  offset="1" style="stop-color:#BEBEBE"/>
		</linearGradient>
		
			<polygon style="fill:url(#SVGID_1_);stroke:#787878;stroke-width:0.25;stroke-linecap:round;stroke-linejoin:round;stroke-miterlimit:1;" points="
			8.958,27.461 8.958,29.43 10.583,28.888 10.13,27.461 		"/>
		<linearGradient id="SVGID_2_" gradientUnits="userSpaceOnUse" x1="5.9739" y1="23.8232" x2="8.5926" y2="28.359">
			<stop  offset="0" style="stop-color:#3287AF"/>
			<stop  offset="1" style="stop-color:#285A78"/>
		</linearGradient>
		<polygon style="fill:url(#SVGID_2_);" points="8.443,28.446 4.896,24.446 6.169,24.055 9.521,27.477 		"/>
		<linearGradient id="SVGID_3_" gradientUnits="userSpaceOnUse" x1="8.3314" y1="27.2628" x2="9.4265" y2="29.1595">
			<stop  offset="0" style="stop-color:#F5F5F5"/>
			<stop  offset="1" style="stop-color:#BEBEBE"/>
		</linearGradient>
		
			<polygon style="fill:url(#SVGID_3_);stroke:#787878;stroke-width:0.25;stroke-linecap:round;stroke-linejoin:round;stroke-miterlimit:1;" points="
			8.583,27.117 8.583,29.024 8.958,29.43 8.958,27.024 		"/>
		<linearGradient id="SVGID_4_" gradientUnits="userSpaceOnUse" x1="47.3488" y1="38.9619" x2="57.091" y2="38.9619">
			<stop  offset="0" style="stop-color:#3287AF"/>
			<stop  offset="1" style="stop-color:#285A78"/>
		</linearGradient>
		<polygon style="fill:url(#SVGID_4_);" points="49.336,35.559 57.091,41.23 54.476,42.364 47.349,36.211 		"/>
		<linearGradient id="SVGID_5_" gradientUnits="userSpaceOnUse" x1="40.302" y1="41.6216" x2="50.0192" y2="41.6216">
			<stop  offset="0" style="stop-color:#3287AF"/>
			<stop  offset="1" style="stop-color:#285A78"/>
		</linearGradient>
		<polygon style="fill:url(#SVGID_5_);" points="42.653,37.867 50.019,44.295 47.524,45.376 40.302,38.697 		"/>
		<linearGradient id="SVGID_6_" gradientUnits="userSpaceOnUse" x1="32.6926" y1="44.6743" x2="42.6994" y2="44.6743">
			<stop  offset="0" style="stop-color:#3287AF"/>
			<stop  offset="1" style="stop-color:#285A78"/>
		</linearGradient>
		<polygon style="fill:url(#SVGID_6_);" points="35.355,40.614 42.699,47.465 39.768,48.734 32.693,41.404 		"/>
		<linearGradient id="SVGID_7_" gradientUnits="userSpaceOnUse" x1="24.4392" y1="47.7701" x2="35.3548" y2="47.7701">
			<stop  offset="0" style="stop-color:#3287AF"/>
			<stop  offset="1" style="stop-color:#285A78"/>
		</linearGradient>
		<polygon style="fill:url(#SVGID_7_);" points="27.707,43.212 35.355,50.645 31.469,52.328 24.439,44.379 		"/>
		<linearGradient id="SVGID_8_" gradientUnits="userSpaceOnUse" x1="22.9763" y1="7.0015" x2="35.6887" y2="29.02">
			<stop  offset="0" style="stop-color:#FFFFFF"/>
			<stop  offset="1" style="stop-color:#F0F0F0"/>
		</linearGradient>
		
			<polygon style="fill:url(#SVGID_8_);stroke:#787878;stroke-width:0.25;stroke-linecap:round;stroke-linejoin:round;stroke-miterlimit:1;" points="
			6.646,16.43 35.521,9.68 52.019,19.592 19.832,28.904 		"/>
		<linearGradient id="SVGID_9_" gradientUnits="userSpaceOnUse" x1="7.0101" y1="16.2195" x2="20.3246" y2="39.2809">
			<stop  offset="0" style="stop-color:#F5F5F5"/>
			<stop  offset="1" style="stop-color:#BEBEBE"/>
		</linearGradient>
		
			<polygon style="fill:url(#SVGID_9_);stroke:#787878;stroke-width:0.25;stroke-linecap:round;stroke-linejoin:round;stroke-miterlimit:1;" points="
			6.646,25.367 6.646,16.43 19.958,28.867 19.958,39.492 		"/>
		<linearGradient id="SVGID_10_" gradientUnits="userSpaceOnUse" x1="31.7444" y1="22.0627" x2="39.7101" y2="35.8596">
			<stop  offset="0" style="stop-color:#FFFFFF"/>
			<stop  offset="1" style="stop-color:#D2D2D2"/>
		</linearGradient>
		
			<polygon style="fill:url(#SVGID_10_);stroke:#787878;stroke-width:0.25;stroke-linecap:round;stroke-linejoin:round;stroke-miterlimit:1;" points="
			52.146,19.555 52.146,28.68 19.958,39.492 19.958,28.867 		"/>
		<linearGradient id="SVGID_11_" gradientUnits="userSpaceOnUse" x1="25.3628" y1="29.8856" x2="26.3042" y2="31.5162">
			<stop  offset="0" style="stop-color:#FFFFFF"/>
			<stop  offset="1" style="stop-color:#F0F0F0"/>
		</linearGradient>
		
			<polygon style="fill:url(#SVGID_11_);stroke:#787878;stroke-width:0.25;stroke-linecap:round;stroke-linejoin:round;stroke-miterlimit:1;" points="
			23.229,31.117 23.771,31.659 28.438,30.284 27.854,29.742 		"/>
		<linearGradient id="SVGID_12_" gradientUnits="userSpaceOnUse" x1="33.1877" y1="27.4805" x2="34.1458" y2="29.1401">
			<stop  offset="0" style="stop-color:#FFFFFF"/>
			<stop  offset="1" style="stop-color:#F0F0F0"/>
		</linearGradient>
		
			<polygon style="fill:url(#SVGID_12_);stroke:#787878;stroke-width:0.25;stroke-linecap:round;stroke-linejoin:round;stroke-miterlimit:1;" points="
			31.146,28.659 35.563,27.367 36.188,27.961 31.756,29.242 		"/>
		<linearGradient id="SVGID_13_" gradientUnits="userSpaceOnUse" x1="40.716" y1="25.2686" x2="41.576" y2="26.7582">
			<stop  offset="0" style="stop-color:#FFFFFF"/>
			<stop  offset="1" style="stop-color:#F0F0F0"/>
		</linearGradient>
		
			<polygon style="fill:url(#SVGID_13_);stroke:#787878;stroke-width:0.25;stroke-linecap:round;stroke-linejoin:round;stroke-miterlimit:1;" points="
			43.479,25.659 42.813,25.159 38.813,26.367 39.313,26.826 		"/>
		<linearGradient id="SVGID_14_" gradientUnits="userSpaceOnUse" x1="47.6141" y1="23.2617" x2="48.3859" y2="24.5986">
			<stop  offset="0" style="stop-color:#FFFFFF"/>
			<stop  offset="1" style="stop-color:#F0F0F0"/>
		</linearGradient>
		
			<polygon style="fill:url(#SVGID_14_);stroke:#787878;stroke-width:0.25;stroke-linecap:round;stroke-linejoin:round;stroke-miterlimit:1;" points="
			49.563,23.159 50.229,23.534 46.354,24.701 45.771,24.326 		"/>
		<linearGradient id="SVGID_15_" gradientUnits="userSpaceOnUse" x1="30.9741" y1="29.6936" x2="36.8994" y2="39.9565">
			<stop  offset="0" style="stop-color:#FFFFFF"/>
			<stop  offset="1" style="stop-color:#D2D2D2"/>
		</linearGradient>
		
			<polygon style="fill:url(#SVGID_15_);stroke:#787878;stroke-width:0.25;stroke-linecap:round;stroke-linejoin:round;stroke-miterlimit:1;" points="
			31.693,41.701 31.756,29.242 36.188,27.961 36.188,40.367 		"/>
		<linearGradient id="SVGID_16_" gradientUnits="userSpaceOnUse" x1="23.0131" y1="32.0968" x2="29.0692" y2="42.5863">
			<stop  offset="0" style="stop-color:#FFFFFF"/>
			<stop  offset="1" style="stop-color:#D2D2D2"/>
		</linearGradient>
		
			<polygon style="fill:url(#SVGID_16_);stroke:#787878;stroke-width:0.25;stroke-linecap:round;stroke-linejoin:round;stroke-miterlimit:1;" points="
			28.438,42.951 28.438,30.284 23.771,31.659 23.771,44.617 		"/>
		<linearGradient id="SVGID_17_" gradientUnits="userSpaceOnUse" x1="38.4771" y1="27.3084" x2="44.1736" y2="37.175">
			<stop  offset="0" style="stop-color:#FFFFFF"/>
			<stop  offset="1" style="stop-color:#D2D2D2"/>
		</linearGradient>
		
			<polygon style="fill:url(#SVGID_17_);stroke:#787878;stroke-width:0.25;stroke-linecap:round;stroke-linejoin:round;stroke-miterlimit:1;" points="
			39.313,26.826 39.302,28.402 39.302,39.05 43.479,37.576 43.479,25.659 		"/>
		<linearGradient id="SVGID_18_" gradientUnits="userSpaceOnUse" x1="45.4896" y1="25.197" x2="51.023" y2="34.781">
			<stop  offset="0" style="stop-color:#FFFFFF"/>
			<stop  offset="1" style="stop-color:#D2D2D2"/>
		</linearGradient>
		
			<polygon style="fill:url(#SVGID_18_);stroke:#787878;stroke-width:0.25;stroke-linecap:round;stroke-linejoin:round;stroke-miterlimit:1;" points="
			46.349,24.701 46.349,36.548 50.224,35.242 50.224,23.534 		"/>
		<linearGradient id="SVGID_19_" gradientUnits="userSpaceOnUse" x1="20.5004" y1="32.6929" x2="26.4814" y2="43.0524">
			<stop  offset="0" style="stop-color:#F5F5F5"/>
			<stop  offset="1" style="stop-color:#BEBEBE"/>
		</linearGradient>
		
			<polygon style="fill:url(#SVGID_19_);stroke:#787878;stroke-width:0.25;stroke-linecap:round;stroke-linejoin:round;stroke-miterlimit:1;" points="
			23.229,31.117 23.229,44.117 23.771,44.617 23.771,31.659 		"/>
		<linearGradient id="SVGID_20_" gradientUnits="userSpaceOnUse" x1="28.5239" y1="30.1731" x2="34.3078" y2="40.191">
			<stop  offset="0" style="stop-color:#F5F5F5"/>
			<stop  offset="1" style="stop-color:#BEBEBE"/>
		</linearGradient>
		
			<polygon style="fill:url(#SVGID_20_);stroke:#787878;stroke-width:0.25;stroke-linecap:round;stroke-linejoin:round;stroke-miterlimit:1;" points="
			31.693,41.701 31.146,41.242 31.146,28.659 31.756,29.242 		"/>
		<linearGradient id="SVGID_21_" gradientUnits="userSpaceOnUse" x1="36.2488" y1="27.8477" x2="41.8629" y2="37.5716">
			<stop  offset="0" style="stop-color:#F5F5F5"/>
			<stop  offset="1" style="stop-color:#BEBEBE"/>
		</linearGradient>
		
			<polygon style="fill:url(#SVGID_21_);stroke:#787878;stroke-width:0.25;stroke-linecap:round;stroke-linejoin:round;stroke-miterlimit:1;" points="
			38.813,26.367 39.313,26.826 39.302,39.05 38.813,38.617 		"/>
		<linearGradient id="SVGID_22_" gradientUnits="userSpaceOnUse" x1="43.3534" y1="25.7216" x2="48.7901" y2="35.1381">
			<stop  offset="0" style="stop-color:#F5F5F5"/>
			<stop  offset="1" style="stop-color:#BEBEBE"/>
		</linearGradient>
		
			<polygon style="fill:url(#SVGID_22_);stroke:#787878;stroke-width:0.25;stroke-linecap:round;stroke-linejoin:round;stroke-miterlimit:1;" points="
			45.771,24.326 46.349,24.701 46.349,36.548 45.771,36.117 		"/>
		
			<polygon style="fill:none;stroke:#323232;stroke-width:0.25;stroke-linecap:round;stroke-linejoin:round;stroke-miterlimit:1;" points="
			52.146,19.54 52.019,19.576 35.521,9.665 6.646,16.415 6.646,25.352 8.583,27.408 8.583,29.009 8.958,29.415 10.112,29.031 
			19.958,39.477 23.229,38.379 23.229,44.102 23.771,44.602 28.438,42.936 28.438,36.629 31.146,35.719 31.146,41.227 
			31.693,41.686 36.188,40.352 36.188,34.026 38.813,33.144 38.813,38.602 39.302,39.035 43.479,37.561 43.479,31.576 
			45.771,30.806 45.771,36.102 46.349,36.533 50.224,35.227 50.224,29.31 52.146,28.665 		"/>
	</g>
</g>
<g id="PNG_references" style="display:none;">
</g>
<g id="Work" style="display:none;">
	<linearGradient id="SVGID_23_" gradientUnits="userSpaceOnUse" x1="13.5655" y1="25.992" x2="8.8988" y2="25.8253">
		<stop  offset="0.9011" style="stop-color:#386F8D"/>
		<stop  offset="1" style="stop-color:#8DD7F4"/>
	</linearGradient>
	
		<polygon style="display:inline;fill:url(#SVGID_23_);stroke:#053755;stroke-width:0.9691;stroke-linecap:round;stroke-linejoin:round;stroke-miterlimit:1;" points="
		11.5,32.246 11.5,18.5 8.562,19.256 8.562,33.232 	"/>
	<linearGradient id="SVGID_24_" gradientUnits="userSpaceOnUse" x1="22" y1="49.5" x2="33" y2="49.5">
		<stop  offset="0" style="stop-color:#3287AF"/>
		<stop  offset="1" style="stop-color:#285A78"/>
	</linearGradient>
	<polygon style="display:inline;fill:url(#SVGID_24_);" points="26,45 33,52.317 30,54 22,46 	"/>
	<linearGradient id="SVGID_25_" gradientUnits="userSpaceOnUse" x1="46" y1="40.9882" x2="56.3578" y2="40.9882">
		<stop  offset="0" style="stop-color:#3287AF"/>
		<stop  offset="1" style="stop-color:#285A78"/>
	</linearGradient>
	<polygon style="display:inline;fill:url(#SVGID_25_);" points="56.358,43.646 50,37 46,38 52.976,44.976 	"/>
	<linearGradient id="SVGID_26_" gradientUnits="userSpaceOnUse" x1="38" y1="44.0412" x2="48.4604" y2="44.0412">
		<stop  offset="0" style="stop-color:#3287AF"/>
		<stop  offset="1" style="stop-color:#285A78"/>
	</linearGradient>
	<polygon style="display:inline;fill:url(#SVGID_26_);" points="48.46,46.753 42,40 38,41 45.082,48.082 	"/>
	<linearGradient id="SVGID_27_" gradientUnits="userSpaceOnUse" x1="30" y1="46.5471" x2="41" y2="46.5471">
		<stop  offset="0" style="stop-color:#3287AF"/>
		<stop  offset="1" style="stop-color:#285A78"/>
	</linearGradient>
	<polygon style="display:inline;fill:url(#SVGID_27_);" points="38.783,50.655 41,49.411 34,42.094 30,43.094 37.906,51 	"/>
	<linearGradient id="SVGID_28_" gradientUnits="userSpaceOnUse" x1="25.0237" y1="10.8808" x2="35.2962" y2="28.6732">
		<stop  offset="0" style="stop-color:#FFFFFF"/>
		<stop  offset="1" style="stop-color:#F1F0F0"/>
	</linearGradient>
	<polygon style="display:inline;fill:url(#SVGID_28_);" points="7.5,18 36.5,11 52.5,21 19.5,30 	"/>
	<linearGradient id="SVGID_29_" gradientUnits="userSpaceOnUse" x1="8.8055" y1="20.619" x2="19.2941" y2="38.7857">
		<stop  offset="0" style="stop-color:#F5F6F6"/>
		<stop  offset="0.9921" style="stop-color:#BFBEBE"/>
	</linearGradient>
	<polygon style="display:inline;fill:url(#SVGID_29_);" points="7.5,27.5 7.5,18 19.5,30 19.5,41 	"/>
	<linearGradient id="SVGID_30_" gradientUnits="userSpaceOnUse" x1="32.3717" y1="24.7156" x2="39.0503" y2="36.2833">
		<stop  offset="0" style="stop-color:#FFFFFF"/>
		<stop  offset="1" style="stop-color:#D2D3D3"/>
	</linearGradient>
	<polygon style="display:inline;fill:url(#SVGID_30_);" points="52.5,21 52.5,30 19.5,41 19.5,30 	"/>
	<rect x="19" y="30" style="display:inline;fill:#797979;" width="1" height="10.5"/>
	<path style="display:inline;fill:#797979;" d="M53,21.5V21c0-0.156-0.072-0.303-0.196-0.397s-0.281-0.126-0.436-0.085l-32.72,8.924
		L7.854,17.646c-0.143-0.144-0.357-0.185-0.545-0.108C7.122,17.615,7,17.797,7,18v0.75L8,20v-0.793l11,11v0.579l1,0.286v-0.69
		l32-8.728v0.512L53,21.5z"/>
	
		<polygon style="display:inline;fill:none;stroke:#333332;stroke-linecap:round;stroke-linejoin:round;stroke-miterlimit:1;" points="
		36.5,11 7.5,18 7.5,27.5 19.5,41 52.5,30 52.5,21 	"/>
	<linearGradient id="SVGID_31_" gradientUnits="userSpaceOnUse" x1="49.0724" y1="32.0364" x2="47.2391" y2="31.8698">
		<stop  offset="0.9011" style="stop-color:#386F8D"/>
		<stop  offset="1" style="stop-color:#8DD7F4"/>
	</linearGradient>
	
		<polygon style="display:inline;fill:url(#SVGID_31_);stroke:#053755;stroke-width:0.9691;stroke-linecap:round;stroke-linejoin:round;stroke-miterlimit:1;" points="
		49.5,37.372 49.5,25.5 46.5,26.272 46.5,38.378 	"/>
	<linearGradient id="SVGID_32_" gradientUnits="userSpaceOnUse" x1="41.1667" y1="34.3096" x2="39.1667" y2="34.3096">
		<stop  offset="0.9011" style="stop-color:#386F8D"/>
		<stop  offset="1" style="stop-color:#8DD7F4"/>
	</linearGradient>
	
		<polygon style="display:inline;fill:url(#SVGID_32_);stroke:#053755;stroke-width:0.9691;stroke-linecap:round;stroke-linejoin:round;stroke-miterlimit:1;" points="
		41.5,40.055 41.5,27.558 38.5,28.33 38.5,41.061 	"/>
	<linearGradient id="SVGID_33_" gradientUnits="userSpaceOnUse" x1="33.1667" y1="36.6803" x2="31" y2="36.6803">
		<stop  offset="0.9011" style="stop-color:#386F8D"/>
		<stop  offset="1" style="stop-color:#8DD7F4"/>
	</linearGradient>
	
		<polygon style="display:inline;fill:url(#SVGID_33_);stroke:#053755;stroke-width:0.9691;stroke-linecap:round;stroke-linejoin:round;stroke-miterlimit:1;" points="
		33.5,42.738 33.5,29.617 30.5,30.388 30.5,43.744 	"/>
	<linearGradient id="SVGID_34_" gradientUnits="userSpaceOnUse" x1="27.5655" y1="39.1668" x2="22.8988" y2="39.0001">
		<stop  offset="0.9011" style="stop-color:#386F8D"/>
		<stop  offset="1" style="stop-color:#8DD7F4"/>
	</linearGradient>
	
		<polygon style="display:inline;fill:url(#SVGID_34_);stroke:#053755;stroke-width:0.9691;stroke-linecap:round;stroke-linejoin:round;stroke-miterlimit:1;" points="
		25.5,45.421 25.5,31.675 22.562,32.431 22.562,46.406 	"/>
</g>
<g id="Final">
	<linearGradient id="SVGID_35_" gradientUnits="userSpaceOnUse" x1="14.5655" y1="25.492" x2="9.8988" y2="25.3253">
		<stop  offset="0.9011" style="stop-color:#386F8D"/>
		<stop  offset="1" style="stop-color:#8DD7F4"/>
	</linearGradient>
	
		<polygon style="fill:url(#SVGID_35_);stroke:#053755;stroke-width:0.9691;stroke-linecap:round;stroke-linejoin:round;stroke-miterlimit:1;" points="
		12.5,31.746 12.5,18 9.562,18.756 9.562,32.732 	"/>
	<linearGradient id="SVGID_36_" gradientUnits="userSpaceOnUse" x1="23" y1="49" x2="34" y2="49">
		<stop  offset="0" style="stop-color:#3287AF"/>
		<stop  offset="1" style="stop-color:#285A78"/>
	</linearGradient>
	<polygon style="fill:url(#SVGID_36_);" points="27,44.5 34,51.817 31,53.5 23,45.5 	"/>
	<linearGradient id="SVGID_37_" gradientUnits="userSpaceOnUse" x1="47" y1="40.4882" x2="57.3578" y2="40.4882">
		<stop  offset="0" style="stop-color:#3287AF"/>
		<stop  offset="1" style="stop-color:#285A78"/>
	</linearGradient>
	<polygon style="fill:url(#SVGID_37_);" points="57.358,43.146 51,36.5 47,37.5 53.976,44.476 	"/>
	<linearGradient id="SVGID_38_" gradientUnits="userSpaceOnUse" x1="39" y1="43.5412" x2="49.4604" y2="43.5412">
		<stop  offset="0" style="stop-color:#3287AF"/>
		<stop  offset="1" style="stop-color:#285A78"/>
	</linearGradient>
	<polygon style="fill:url(#SVGID_38_);" points="49.46,46.253 43,39.5 39,40.5 46.082,47.582 	"/>
	<linearGradient id="SVGID_39_" gradientUnits="userSpaceOnUse" x1="31" y1="46.0471" x2="42" y2="46.0471">
		<stop  offset="0" style="stop-color:#3287AF"/>
		<stop  offset="1" style="stop-color:#285A78"/>
	</linearGradient>
	<polygon style="fill:url(#SVGID_39_);" points="39.783,50.155 42,48.911 35,41.594 31,42.594 38.906,50.5 	"/>
	<linearGradient id="SVGID_40_" gradientUnits="userSpaceOnUse" x1="26.0237" y1="10.3808" x2="36.2962" y2="28.1732">
		<stop  offset="0" style="stop-color:#FFFFFF"/>
		<stop  offset="1" style="stop-color:#F1F0F0"/>
	</linearGradient>
	<polygon style="fill:url(#SVGID_40_);" points="8.5,17.5 37.5,10.5 53.5,20.5 20.5,29.5 	"/>
	<linearGradient id="SVGID_41_" gradientUnits="userSpaceOnUse" x1="9.8055" y1="20.119" x2="20.2941" y2="38.2857">
		<stop  offset="0" style="stop-color:#F5F6F6"/>
		<stop  offset="0.9921" style="stop-color:#BFBEBE"/>
	</linearGradient>
	<polygon style="fill:url(#SVGID_41_);" points="8.5,27 8.5,17.5 20.5,29.5 20.5,40.5 	"/>
	<linearGradient id="SVGID_42_" gradientUnits="userSpaceOnUse" x1="33.3717" y1="24.2156" x2="40.0503" y2="35.7833">
		<stop  offset="0" style="stop-color:#FFFFFF"/>
		<stop  offset="1" style="stop-color:#D2D3D3"/>
	</linearGradient>
	<polygon style="fill:url(#SVGID_42_);" points="53.5,20.5 53.5,29.5 20.5,40.5 20.5,29.5 	"/>
	<rect x="20" y="29.5" style="fill:#797979;" width="1" height="10.5"/>
	<path style="fill:#797979;" d="M54,21v-0.5c0-0.156-0.072-0.303-0.196-0.397s-0.281-0.126-0.436-0.085l-32.72,8.924L8.854,17.146
		c-0.143-0.144-0.357-0.185-0.545-0.108C8.122,17.115,8,17.297,8,17.5v0.75l1,1.25v-0.793l11,11v0.579l1,0.286v-0.69l32-8.728v0.512
		L54,21z"/>
	<polygon style="fill:none;stroke:#333332;stroke-linecap:round;stroke-linejoin:round;stroke-miterlimit:1;" points="37.5,10.5 
		8.5,17.5 8.5,27 20.5,40.5 53.5,29.5 53.5,20.5 	"/>
	<linearGradient id="SVGID_43_" gradientUnits="userSpaceOnUse" x1="50.0724" y1="31.5364" x2="48.2391" y2="31.3698">
		<stop  offset="0.9011" style="stop-color:#386F8D"/>
		<stop  offset="1" style="stop-color:#8DD7F4"/>
	</linearGradient>
	
		<polygon style="fill:url(#SVGID_43_);stroke:#053755;stroke-width:0.9691;stroke-linecap:round;stroke-linejoin:round;stroke-miterlimit:1;" points="
		50.5,36.872 50.5,25 47.5,25.772 47.5,37.878 	"/>
	<linearGradient id="SVGID_44_" gradientUnits="userSpaceOnUse" x1="42.1667" y1="33.8096" x2="40.1667" y2="33.8096">
		<stop  offset="0.9011" style="stop-color:#386F8D"/>
		<stop  offset="1" style="stop-color:#8DD7F4"/>
	</linearGradient>
	
		<polygon style="fill:url(#SVGID_44_);stroke:#053755;stroke-width:0.9691;stroke-linecap:round;stroke-linejoin:round;stroke-miterlimit:1;" points="
		42.5,39.555 42.5,27.058 39.5,27.83 39.5,40.561 	"/>
	<linearGradient id="SVGID_45_" gradientUnits="userSpaceOnUse" x1="34.1667" y1="36.1803" x2="32" y2="36.1803">
		<stop  offset="0.9011" style="stop-color:#386F8D"/>
		<stop  offset="1" style="stop-color:#8DD7F4"/>
	</linearGradient>
	
		<polygon style="fill:url(#SVGID_45_);stroke:#053755;stroke-width:0.9691;stroke-linecap:round;stroke-linejoin:round;stroke-miterlimit:1;" points="
		34.5,42.238 34.5,29.117 31.5,29.888 31.5,43.244 	"/>
	<linearGradient id="SVGID_46_" gradientUnits="userSpaceOnUse" x1="28.5655" y1="38.6668" x2="23.8988" y2="38.5001">
		<stop  offset="0.9011" style="stop-color:#386F8D"/>
		<stop  offset="1" style="stop-color:#8DD7F4"/>
	</linearGradient>
	
		<polygon style="fill:url(#SVGID_46_);stroke:#053755;stroke-width:0.9691;stroke-linecap:round;stroke-linejoin:round;stroke-miterlimit:1;" points="
		26.5,44.921 26.5,31.175 23.562,31.931 23.562,45.906 	"/>
</g>
</svg>
