<?xml version="1.0" encoding="iso-8859-1"?>
<!-- Generator: Adobe Illustrator 23.1.0, SVG Export Plug-In . SVG Version: 6.00 Build 0)  -->
<svg version="1.1" xmlns="http://www.w3.org/2000/svg" xmlns:xlink="http://www.w3.org/1999/xlink" x="0px" y="0px"
	 viewBox="0 0 64 64" style="enable-background:new 0 0 64 64;" xml:space="preserve">
<pattern  width="20" height="20" patternUnits="userSpaceOnUse" id="New_Pattern_Swatch_2" viewBox="22.121 -42.121 20 20" style="overflow:visible;">
	<g>
		<rect x="22.121" y="-42.121" style="fill:none;" width="20" height="20"/>
		
			<rect x="49.121" y="-26.263" transform="matrix(0.7071 -0.7071 0.7071 0.7071 23.837 33.3051)" style="fill:#844138;" width="6" height="28.284"/>
		
			<rect x="29.121" y="-26.263" transform="matrix(0.7071 -0.7071 0.7071 0.7071 17.9792 19.163)" style="fill:#844138;" width="6" height="28.284"/>
		
			<rect x="9.121" y="-26.263" transform="matrix(0.7071 -0.7071 0.7071 0.7071 12.1213 5.0208)" style="fill:#844138;" width="6" height="28.284"/>
		
			<rect x="49.121" y="-46.263" transform="matrix(0.7071 -0.7071 0.7071 0.7071 37.9792 27.4472)" style="fill:#844138;" width="6" height="28.284"/>
		
			<rect x="29.121" y="-46.263" transform="matrix(0.7071 -0.7071 0.7071 0.7071 32.1213 13.3051)" style="fill:#844138;" width="6" height="28.284"/>
		
			<rect x="9.121" y="-46.263" transform="matrix(0.7071 -0.7071 0.7071 0.7071 26.2635 -0.837)" style="fill:#844138;" width="6" height="28.284"/>
		
			<rect x="49.121" y="-66.263" transform="matrix(0.7071 -0.7071 0.7071 0.7071 52.1213 21.5894)" style="fill:#844138;" width="6" height="28.284"/>
		
			<rect x="29.121" y="-66.263" transform="matrix(0.7071 -0.7071 0.7071 0.7071 46.2635 7.4472)" style="fill:#844138;" width="6" height="28.284"/>
		
			<rect x="9.121" y="-66.263" transform="matrix(0.7071 -0.7071 0.7071 0.7071 40.4056 -6.6949)" style="fill:#844138;" width="6" height="28.284"/>
	</g>
</pattern>
<g id="Layer_1" style="display:none;">
</g>
<g id="info_r2021x" style="display:none;">
	<g style="display:inline;">
		<text transform="matrix(1 0 0 1 -0.0625 -52.0938)"><tspan x="0" y="0" style="fill:#3D3D3D; font-family:'ArialMT'; font-size:10px;">Canvas: 64 x 64 px</tspan><tspan x="0" y="12" style="fill:#EA4F37; font-family:'ArialMT'; font-size:10px;">Artwork: 50 x 50 px max</tspan><tspan x="0" y="24" style="fill:#844138; font-family:'ArialMT'; font-size:10px;">No-go zone :  7 px</tspan></text>
	</g>
	<g id="pedestal_r2021x" style="display:inline;">
		<path style="opacity:0.5;fill:#FFFFFF;" d="M63.002,64h-62c-0.552,0-1-0.448-1-1V1c0-0.552,0.448-1,1-1h62c0.552,0,1,0.448,1,1v62
			C64.002,63.552,63.554,64,63.002,64z"/>
		<rect x="1.002" y="1" style="fill:#F4F5F6;" width="62" height="62"/>
		<rect x="1.002" y="1" style="fill:#D1D4D4;" width="2" height="62"/>
	</g>
	<g id="no-go_zone_1_" style="display:inline;opacity:0.3;">
		<path style="fill:url(#New_Pattern_Swatch_2);" d="M0,0v64h64V0H0z M57,57H7V7h50V57z"/>
	</g>
	<g style="display:inline;">
		<path style="fill:#EA4F37;" d="M57,7v50H7V7H57 M58,6h-1H7H6v1v50v1h1h50h1v-1V7V6L58,6z"/>
	</g>
	<g style="display:inline;">
		<g>
			<line style="fill:none;stroke:#00FF00;stroke-miterlimit:10;" x1="32" y1="-1" x2="32" y2="-2"/>
			
				<line style="fill:none;stroke:#00FF00;stroke-miterlimit:10;stroke-dasharray:3.2727,1.0909;" x1="32" y1="-3.091" x2="32" y2="-6.909"/>
			
				<line style="fill:none;stroke:#00FF00;stroke-miterlimit:10;stroke-dasharray:1.0909,1.0909,3.2727,1.0909;" x1="32" y1="-7.455" x2="32" y2="-13.455"/>
			<line style="fill:none;stroke:#00FF00;stroke-miterlimit:10;" x1="32" y1="-14" x2="32" y2="-15"/>
		</g>
	</g>
	<g style="display:inline;">
		<g>
			<line style="fill:none;stroke:#00FF00;stroke-miterlimit:10;" x1="32" y1="79" x2="32" y2="78"/>
			
				<line style="fill:none;stroke:#00FF00;stroke-miterlimit:10;stroke-dasharray:3.2727,1.0909;" x1="32" y1="76.909" x2="32" y2="73.091"/>
			
				<line style="fill:none;stroke:#00FF00;stroke-miterlimit:10;stroke-dasharray:1.0909,1.0909,3.2727,1.0909;" x1="32" y1="72.545" x2="32" y2="66.545"/>
			<line style="fill:none;stroke:#00FF00;stroke-miterlimit:10;" x1="32" y1="66" x2="32" y2="65"/>
		</g>
	</g>
	<g style="display:inline;">
		<g>
			<line style="fill:none;stroke:#00FF00;stroke-miterlimit:10;" x1="65" y1="32" x2="66" y2="32"/>
			
				<line style="fill:none;stroke:#00FF00;stroke-miterlimit:10;stroke-dasharray:3.2727,1.0909;" x1="67.091" y1="32" x2="70.909" y2="32"/>
			
				<line style="fill:none;stroke:#00FF00;stroke-miterlimit:10;stroke-dasharray:1.0909,1.0909,3.2727,1.0909;" x1="71.455" y1="32" x2="77.455" y2="32"/>
			<line style="fill:none;stroke:#00FF00;stroke-miterlimit:10;" x1="78" y1="32" x2="79" y2="32"/>
		</g>
	</g>
	<g style="display:inline;">
		<g>
			<line style="fill:none;stroke:#00FF00;stroke-miterlimit:10;" x1="-15" y1="32" x2="-14" y2="32"/>
			
				<line style="fill:none;stroke:#00FF00;stroke-miterlimit:10;stroke-dasharray:3.2727,1.0909;" x1="-12.909" y1="32" x2="-9.091" y2="32"/>
			
				<line style="fill:none;stroke:#00FF00;stroke-miterlimit:10;stroke-dasharray:1.0909,1.0909,3.2727,1.0909;" x1="-8.545" y1="32" x2="-2.545" y2="32"/>
			<line style="fill:none;stroke:#00FF00;stroke-miterlimit:10;" x1="-2" y1="32" x2="-1" y2="32"/>
		</g>
	</g>
	<text transform="matrix(1 0 0 1 34.3096 -9.5068)" style="display:inline;fill:#00FF00; font-family:'ArialMT'; font-size:8px;">aligned</text>
	<text transform="matrix(1 0 0 1 73.3096 40.4932)" style="display:inline;fill:#00FF00; font-family:'ArialMT'; font-size:8px;">aligned</text>
</g>
<g id="Notes" style="display:none;">
	<text transform="matrix(1 0 0 1 -23.3193 110.1914)" style="display:inline;"><tspan x="0" y="0" style="fill:#1A1A1A; font-family:'MyriadPro-Regular'; font-size:12px;">Sizes and formats needed:</tspan><tspan x="0" y="9.6" style="fill:#1A1A1A; font-family:'MyriadPro-Regular'; font-size:8px;">SVG, PNG (64x), PNG2X (64 @2x), ICO, PNG24 </tspan><tspan x="0" y="19.2" style="fill:#1A1A1A; font-family:'MyriadPro-Regular'; font-size:8px;">ICO and PNG24 to be generated via command </tspan><tspan x="0" y="28.8" style="fill:#1A1A1A; font-family:'MyriadPro-Regular'; font-size:8px;">prompt script using the SVG file</tspan><tspan x="0" y="43.2" style="fill:#1A1A1A; font-family:'MyriadPro-Regular'; font-size:12px;">  </tspan></text>
</g>
<g id="PNG_references" style="display:none;">
	
		<image style="display:inline;overflow:visible;" width="64" height="64" xlink:href="ref/SWXDESI_AP_AppIcon.png"  transform="matrix(1 0 0 1 -2 7.5)">
	</image>
</g>
<g id="vector_references" style="display:none;">
</g>
<g id="Work" style="display:none;">
	<linearGradient id="SVGID_1_" gradientUnits="userSpaceOnUse" x1="42.994" y1="15.6688" x2="57.0715" y2="37.6382">
		<stop  offset="0" style="stop-color:#F5F6F6"/>
		<stop  offset="0.9921" style="stop-color:#D2D3D3"/>
	</linearGradient>
	
		<path style="display:inline;fill:url(#SVGID_1_);stroke:#333332;stroke-linecap:round;stroke-linejoin:round;stroke-miterlimit:1;" d="
		M56.5,18c0,0-4.547-5.849-8-7c-1.5-0.5-3,0-4.5,1c-2.426,1.617-2.5,2.5-4,2c-1.061-0.354-6.483-2.534-6.483-2.534l-1.515,5.795
		c0,0,5.076,2.104,6.076,2.604S38.945,22.003,39,22.5c0.5,4.5,5.5,7.5,8.5,8C49.534,30.839,54,31,54,31s-8.5-3-10-7.5
		s0.656-7.078,2.5-8C49.5,14,56.5,18,56.5,18z"/>
	<g style="display:inline;">
		<linearGradient id="SVGID_2_" gradientUnits="userSpaceOnUse" x1="25.5037" y1="20.709" x2="21.3192" y2="13.4612">
			<stop  offset="0" style="stop-color:#74C4E2"/>
			<stop  offset="1" style="stop-color:#A4DEF6"/>
		</linearGradient>
		
			<path style="fill:url(#SVGID_2_);stroke:#053755;stroke-width:0.9813;stroke-linecap:round;stroke-linejoin:round;stroke-miterlimit:1;" d="
			M34.734,14.13c0-1.728-1.455-3.13-3.25-3.13c-0.31,0-0.604,0.055-0.888,0.133l-0.005-0.014l-16.76,5.379l0.003,0.009
			c-1.226,0.448-2.101,1.581-2.101,2.918c0,1.728,1.455,3.13,3.25,3.13c0.412,0,0.802-0.081,1.164-0.216l0.003,0.008l16.47-5.285
			l-0.003-0.01C33.851,16.608,34.734,15.472,34.734,14.13z"/>
		<linearGradient id="SVGID_3_" gradientUnits="userSpaceOnUse" x1="26.9088" y1="22.3944" x2="22.5131" y2="14.7809">
			<stop  offset="0" style="stop-color:#2A5B79"/>
			<stop  offset="1" style="stop-color:#84BEDC"/>
		</linearGradient>
		
			<path style="fill:url(#SVGID_3_);stroke:#053755;stroke-width:0.9813;stroke-linecap:round;stroke-linejoin:round;stroke-miterlimit:1;" d="
			M36,15.574c0-1.728-1.455-3.13-3.25-3.13c-0.31,0-0.604,0.055-0.888,0.133l-0.005-0.014l-16.76,5.379l0.003,0.009
			C13.875,18.4,13,19.533,13,20.87c0,1.728,1.455,3.13,3.25,3.13c0.412,0,0.802-0.081,1.164-0.216l0.003,0.008l16.47-5.285
			l-0.003-0.01C35.117,18.053,36,16.917,36,15.574z"/>
	</g>
	<g style="display:inline;">
		<linearGradient id="SVGID_4_" gradientUnits="userSpaceOnUse" x1="21.2798" y1="42.4954" x2="27.9412" y2="54.0332">
			<stop  offset="0" style="stop-color:#F5F6F6"/>
			<stop  offset="0.9921" style="stop-color:#D2D3D3"/>
		</linearGradient>
		<path style="fill:url(#SVGID_4_);" d="M34.537,45.949c0-2.347-4.51-4.25-10.074-4.25c-5.564,0-10.074,1.903-10.074,4.25
			c0,0.025,0.008,0.05,0.009,0.075h-0.009v4.126h0.021c0,2.236,4.506,4.048,10.064,4.048s10.064-1.813,10.064-4.048v-4.126h-0.009
			C34.529,45.999,34.537,45.974,34.537,45.949z"/>
		<linearGradient id="SVGID_5_" gradientUnits="userSpaceOnUse" x1="21.9885" y1="41.6638" x2="27.0957" y2="50.5097">
			<stop  offset="0" style="stop-color:#FFFFFF"/>
			<stop  offset="1" style="stop-color:#F1F0F0"/>
		</linearGradient>
		<ellipse style="fill:url(#SVGID_5_);" cx="24.463" cy="45.949" rx="10.074" ry="4.25"/>
		<path style="fill:#797979;" d="M34.024,45.847c0.003,0.034,0.013,0.068,0.013,0.102c0,1.811-3.847,3.75-9.574,3.75
			c-5.728,0-9.575-1.939-9.575-3.75c0-0.117,0.017-0.234,0.049-0.352c-0.366,0.093-0.719,0.19-1.043,0.294
			c0,0.02-0.006,0.039-0.006,0.058c0,2.663,4.645,4.75,10.575,4.75c5.747,0,10.274-1.962,10.548-4.508
			C34.709,46.071,34.378,45.956,34.024,45.847z"/>
	</g>
	
		<linearGradient id="SVGID_6_" gradientUnits="userSpaceOnUse" x1="31.278" y1="38.3041" x2="19.1256" y2="17.2555" gradientTransform="matrix(0.9637 0.0162 -0.0164 0.9799 0.992 -0.0571)">
		<stop  offset="0" style="stop-color:#74C4E2"/>
		<stop  offset="1" style="stop-color:#A4DEF6"/>
	</linearGradient>
	
		<path style="display:inline;fill:url(#SVGID_6_);stroke:#053755;stroke-width:0.9719;stroke-linecap:round;stroke-linejoin:round;stroke-miterlimit:1;" d="
		M35.657,30.143l0.02-0.017l-0.171-0.114c-0.179-0.145-0.371-0.27-0.573-0.383L16.135,17.057l-0.009,0.013
		c-0.481-0.323-1.051-0.521-1.67-0.532c-1.73-0.029-3.156,1.373-3.185,3.132c-0.019,1.129,0.547,2.125,1.409,2.706l-0.009,0.013
		l16.369,11.974c0.468,1.738,2.001,3.036,3.863,3.067c2.262,0.038,4.127-1.796,4.166-4.096
		C37.091,32.059,36.534,30.922,35.657,30.143z"/>
	<linearGradient id="SVGID_7_" gradientUnits="userSpaceOnUse" x1="-19.8166" y1="41.3541" x2="-13.7798" y2="51.8101">
		<stop  offset="0" style="stop-color:#FFFFFF"/>
		<stop  offset="1" style="stop-color:#F1F0F0"/>
	</linearGradient>
	
		<path style="display:inline;fill:url(#SVGID_7_);stroke:#797979;stroke-width:0.976;stroke-linecap:round;stroke-linejoin:round;stroke-miterlimit:1;" d="
		M-27.149,43.825v4.126h0.021c0,2.236,4.506,4.048,10.064,4.048S-7,50.187-7,47.952v-4.126H-27.149z"/>
	<linearGradient id="SVGID_8_" gradientUnits="userSpaceOnUse" x1="-19.5483" y1="39.4648" x2="-14.4411" y2="48.3107">
		<stop  offset="0" style="stop-color:#FFFFFF"/>
		<stop  offset="1" style="stop-color:#F1F0F0"/>
	</linearGradient>
	
		<ellipse style="display:inline;fill:url(#SVGID_8_);stroke:#797979;stroke-width:1.0037;stroke-linecap:round;stroke-linejoin:round;stroke-miterlimit:1;" cx="-17.074" cy="43.75" rx="10.074" ry="4.25"/>
	<linearGradient id="SVGID_9_" gradientUnits="userSpaceOnUse" x1="-24.8751" y1="60.832" x2="-18.5266" y2="71.828">
		<stop  offset="0" style="stop-color:#FFFFFF"/>
		<stop  offset="1" style="stop-color:#F1F0F0"/>
	</linearGradient>
	
		<path style="display:inline;fill:url(#SVGID_9_);stroke:#797979;stroke-linecap:round;stroke-linejoin:round;stroke-miterlimit:1;" d="
		M-14.256,64.107c0-3.59-2.91-6.5-6.5-6.5c-2.945,0-5.429,1.96-6.228,4.645c0,0-0.002,0-0.002,0l-2.27,7.855
		C-24.405,72.968-18,72.92-18,72.92s-0.916-1.395,2.5-5.213c0.626-0.699,1.101-2.062,1.124-2.367
		C-14.299,64.941-14.256,64.529-14.256,64.107z"/>
	<linearGradient id="SVGID_10_" gradientUnits="userSpaceOnUse" x1="-27.9311" y1="63.3179" x2="-21.6542" y2="74.1898">
		<stop  offset="0" style="stop-color:#F5F6F6"/>
		<stop  offset="0.9921" style="stop-color:#BFBEBE"/>
	</linearGradient>
	
		<path style="display:inline;fill:url(#SVGID_10_);stroke:#797979;stroke-linecap:round;stroke-linejoin:round;stroke-miterlimit:1;" d="
		M-17.384,66.468c0-3.59-2.91-6.5-6.5-6.5c-2.945,0-5.429,1.96-6.228,4.645c0,0-0.002,0-0.002,0l-2.27,7.855
		c4.851,2.862,11.255,2.814,11.255,2.814s-0.916-1.395,2.5-5.213c0.626-0.699,1.101-2.062,1.124-2.367
		C-17.427,67.303-17.384,66.891-17.384,66.468z"/>
	<linearGradient id="SVGID_11_" gradientUnits="userSpaceOnUse" x1="30.8164" y1="42.0295" x2="13.0121" y2="12.4361">
		<stop  offset="0" style="stop-color:#386F8D"/>
		<stop  offset="1" style="stop-color:#8DD7F4"/>
	</linearGradient>
	
		<path style="display:inline;fill:url(#SVGID_11_);stroke:#053755;stroke-linecap:round;stroke-linejoin:round;stroke-miterlimit:1;" d="
		M33.115,30.734l0.004-0.006l-0.059-0.039c-0.014-0.009-0.028-0.018-0.042-0.027L14.551,18.478l-0.009,0.014
		c-0.52-0.319-1.131-0.504-1.786-0.492c-1.831,0.033-3.289,1.544-3.256,3.376c0.021,1.176,0.656,2.192,1.59,2.764l-0.009,0.014
		l18.211,11.753c0.124,0.095,0.256,0.178,0.393,0.254l0.111,0.071l0.005-0.009c0.435,0.218,0.918,0.352,1.437,0.352
		c1.782,0,3.226-1.444,3.226-3.226C34.465,32.27,33.93,31.32,33.115,30.734z"/>
	<linearGradient id="SVGID_12_" gradientUnits="userSpaceOnUse" x1="28.4895" y1="33.8088" x2="28.4256" y2="44.5312">
		<stop  offset="0" style="stop-color:#F5F6F6"/>
		<stop  offset="0.9365" style="stop-color:#808080"/>
	</linearGradient>
	
		<path style="display:inline;fill:url(#SVGID_12_);stroke:#797979;stroke-linecap:round;stroke-linejoin:round;stroke-miterlimit:1;" d="
		M35.595,36.583c0-3.59-2.91-6.5-6.5-6.5c-2.945,0-6.935,1.955-7.733,4.641c0,0,1.503,0.005,1.503,0.005l5.858,13.03l3.128-2.362
		c0,0-0.916-1.395,2.5-5.213c0.626-0.699,1.101-2.062,1.124-2.367C35.552,37.417,35.595,37.005,35.595,36.583z"/>
	<linearGradient id="SVGID_13_" gradientUnits="userSpaceOnUse" x1="21.92" y1="35.794" x2="28.1968" y2="46.6659">
		<stop  offset="0" style="stop-color:#F5F6F6"/>
		<stop  offset="0.9921" style="stop-color:#BFBEBE"/>
	</linearGradient>
	
		<path style="display:inline;fill:url(#SVGID_13_);stroke:#797979;stroke-linecap:round;stroke-linejoin:round;stroke-miterlimit:1;" d="
		M32.468,38.944c0-3.59-2.91-6.5-6.5-6.5c-2.945,0-5.429,1.96-6.228,4.645c0,0-0.002,0-0.002,0l-2.27,7.855
		c4.851,2.862,11.255,2.814,11.255,2.814s-0.916-1.395,2.5-5.213c0.626-0.699,1.101-2.062,1.124-2.367
		C32.424,39.779,32.468,39.367,32.468,38.944z"/>
	<path style="display:inline;fill:#797979;" d="M25.968,31.945c-2.615,0-4.991,1.496-6.185,3.755l0.716,0.817
		c0.951-2.132,3.094-3.571,5.469-3.571c3.309,0,6,2.691,6,6c0,0.372-0.038,0.756-0.119,1.195c-0.023,0.225-0.446,1.456-0.998,2.072
		c-2.311,2.582-2.761,4.168-2.747,5.03c-0.148-0.006-0.327-0.017-0.519-0.029l1.323,0.999c0.109-0.039,0.208-0.1,0.265-0.205
		c0.086-0.161,0.085-0.344-0.015-0.497c-0.006-0.013-0.563-1.277,2.439-4.631c0.701-0.784,1.219-2.253,1.242-2.605
		c0.086-0.446,0.13-0.894,0.13-1.329C32.968,35.085,29.827,31.945,25.968,31.945z"/>
	<path style="display:inline;fill:none;stroke:#333332;stroke-linecap:round;stroke-linejoin:round;stroke-miterlimit:1;" d="
		M35.475,37.817c0.077-0.4,0.121-0.812,0.121-1.234c0-3.59-2.91-6.5-6.5-6.5c-3.904,0-7.797,2.853-9.356,7.007c0,0-0.002,0-0.002,0
		l-1.605,5.555c-2.282,0.779-3.744,1.969-3.744,3.304c0,0.025,0.008,0.05,0.009,0.075h-0.009v4.126h0.021
		c0,2.236,4.506,4.048,10.064,4.048s10.064-1.813,10.064-4.048v-4.126h-0.009c0.001-0.025,0.009-0.05,0.009-0.075
		c0-1.037-0.883-1.987-2.345-2.724c0.371-0.772,1.021-1.769,2.159-3.041C34.977,39.485,35.451,38.122,35.475,37.817z"/>
	<path style="display:inline;fill:none;stroke:#333332;stroke-linecap:round;stroke-linejoin:round;stroke-miterlimit:1;" d="
		M125.538,43.949c0-2.347-4.51-4.25-10.074-4.25c-5.564,0-10.074,1.903-10.074,4.25c0,0.025,0.008,0.05,0.009,0.075h-0.009v4.126
		h0.021c0,2.236,4.506,4.048,10.064,4.048s10.064-1.813,10.064-4.048v-4.126h-0.009C125.53,43.999,125.538,43.974,125.538,43.949z"
		/>
	<path style="display:inline;fill:none;stroke:#333332;stroke-linecap:round;stroke-linejoin:round;stroke-miterlimit:1;" d="
		M120.096,28.083c-3.904,0-7.797,2.853-9.356,7.007c0,0-0.002,0-0.002,0l-2.27,7.855c4.851,2.862,11.255,2.814,11.255,2.814
		l3.128-2.362c0,0-0.917-1.395,2.5-5.213c0.626-0.699,1.101-2.062,1.124-2.367c0.077-0.4,0.121-0.812,0.121-1.234
		C126.596,30.993,123.686,28.083,120.096,28.083z"/>
	<linearGradient id="SVGID_14_" gradientUnits="userSpaceOnUse" x1="24.3228" y1="37.3095" x2="26.3654" y2="38.969">
		<stop  offset="0" style="stop-color:#386F8D"/>
		<stop  offset="1" style="stop-color:#8DD7F4"/>
	</linearGradient>
	
		<circle style="display:inline;fill:url(#SVGID_14_);stroke:#053755;stroke-linecap:round;stroke-linejoin:round;stroke-miterlimit:1;" cx="25.713" cy="38.439" r="2.5"/>
	<g style="display:inline;">
		<linearGradient id="SVGID_15_" gradientUnits="userSpaceOnUse" x1="-79.721" y1="40.4954" x2="-73.0596" y2="52.0332">
			<stop  offset="0" style="stop-color:#F5F6F6"/>
			<stop  offset="0.9921" style="stop-color:#D2D3D3"/>
		</linearGradient>
		<path style="fill:url(#SVGID_15_);" d="M-66.464,43.949c0-2.347-4.51-4.25-10.074-4.25c-5.564,0-10.074,1.903-10.074,4.25
			c0,0.025,0.008,0.05,0.009,0.075h-0.009v4.126h0.021c0,2.236,4.506,4.048,10.064,4.048s10.064-1.813,10.064-4.048v-4.126h-0.009
			C-66.472,43.999-66.464,43.974-66.464,43.949z"/>
		<linearGradient id="SVGID_16_" gradientUnits="userSpaceOnUse" x1="-79.0123" y1="39.6638" x2="-73.9051" y2="48.5097">
			<stop  offset="0" style="stop-color:#FFFFFF"/>
			<stop  offset="1" style="stop-color:#F1F0F0"/>
		</linearGradient>
		<ellipse style="fill:url(#SVGID_16_);" cx="-76.538" cy="43.949" rx="10.074" ry="4.25"/>
		<path style="fill:#797979;" d="M-66.977,43.847c0.003,0.034,0.013,0.068,0.013,0.102c0,1.811-3.847,3.75-9.574,3.75
			c-5.728,0-9.575-1.939-9.575-3.75c0-0.117,0.017-0.234,0.049-0.352c-0.366,0.093-0.719,0.19-1.043,0.294
			c0,0.02-0.006,0.039-0.006,0.058c0,2.663,4.645,4.75,10.575,4.75c5.747,0,10.274-1.962,10.548-4.508
			C-66.292,44.071-66.623,43.956-66.977,43.847z"/>
		<path style="fill:none;stroke:#333332;stroke-linecap:round;stroke-linejoin:round;stroke-miterlimit:1;" d="M-66.464,43.949
			c0-2.347-4.51-4.25-10.074-4.25c-5.564,0-10.074,1.903-10.074,4.25c0,0.025,0.008,0.05,0.009,0.075h-0.009v4.126h0.021
			c0,2.236,4.506,4.048,10.064,4.048s10.064-1.813,10.064-4.048v-4.126h-0.009C-66.472,43.999-66.464,43.974-66.464,43.949z"/>
	</g>
	<g style="display:inline;">
		<linearGradient id="SVGID_17_" gradientUnits="userSpaceOnUse" x1="-72.5113" y1="31.8091" x2="-72.5752" y2="42.5325">
			<stop  offset="0" style="stop-color:#F5F6F6"/>
			<stop  offset="0.9365" style="stop-color:#808080"/>
		</linearGradient>
		<path style="fill:url(#SVGID_17_);stroke:#797979;stroke-linecap:round;stroke-linejoin:round;stroke-miterlimit:1;" d="
			M-65.406,34.583c0-3.59-2.91-6.5-6.5-6.5c-2.945,0-6.935,1.955-7.733,4.641c0,0,1.503,0.005,1.503,0.005l5.582,13.03l3.404-2.362
			c0,0-0.916-1.395,2.5-5.213c0.626-0.699,1.101-2.062,1.124-2.367C-65.449,35.417-65.406,35.005-65.406,34.583z"/>
		<linearGradient id="SVGID_18_" gradientUnits="userSpaceOnUse" x1="-79.0808" y1="33.794" x2="-72.804" y2="44.6658">
			<stop  offset="0" style="stop-color:#F5F6F6"/>
			<stop  offset="0.9921" style="stop-color:#BFBEBE"/>
		</linearGradient>
		<path style="fill:url(#SVGID_18_);" d="M-68.533,36.944c0-3.59-2.91-6.5-6.5-6.5c-2.945,0-5.429,1.96-6.228,4.645
			c0,0-0.002,0-0.002,0l-2.27,7.855c4.851,2.862,11.256,2.814,11.256,2.814s-0.916-1.395,2.5-5.213
			c0.626-0.699,1.101-2.062,1.124-2.367C-68.577,37.779-68.533,37.367-68.533,36.944z"/>
		<path style="fill:#797979;" d="M-75.033,29.945c-2.615,0-4.991,1.496-6.185,3.755l0.716,0.817
			c0.951-2.132,3.094-3.571,5.469-3.571c3.309,0,6,2.691,6,6c0,0.372-0.038,0.756-0.119,1.195c-0.023,0.225-0.446,1.456-0.998,2.072
			c-2.311,2.582-2.761,4.168-2.747,5.03c-0.148-0.006-0.327-0.017-0.519-0.029l1.323,0.999c0.109-0.039,0.208-0.1,0.265-0.205
			c0.086-0.161,0.085-0.344-0.015-0.497c-0.006-0.013-0.563-1.277,2.439-4.631c0.701-0.784,1.219-2.253,1.242-2.605
			c0.086-0.446,0.13-0.894,0.13-1.329C-68.033,33.085-71.173,29.945-75.033,29.945z"/>
		<path style="fill:none;stroke:#333332;stroke-linecap:round;stroke-linejoin:round;stroke-miterlimit:1;" d="M-71.906,28.083
			c-3.904,0-7.797,2.853-9.356,7.007c0,0-0.002,0-0.002,0l-2.27,7.855c4.851,2.862,11.255,2.814,11.255,2.814l3.128-2.362
			c0,0-0.917-1.395,2.5-5.213c0.626-0.699,1.101-2.062,1.124-2.367c0.077-0.4,0.121-0.812,0.121-1.234
			C-65.406,30.993-68.316,28.083-71.906,28.083z"/>
		<linearGradient id="SVGID_19_" gradientUnits="userSpaceOnUse" x1="-76.678" y1="35.3095" x2="-74.6354" y2="36.969">
			<stop  offset="0" style="stop-color:#386F8D"/>
			<stop  offset="1" style="stop-color:#8DD7F4"/>
		</linearGradient>
		
			<circle style="fill:url(#SVGID_19_);stroke:#053755;stroke-linecap:round;stroke-linejoin:round;stroke-miterlimit:1;" cx="-75.288" cy="36.439" r="2.5"/>
	</g>
	<g style="display:inline;">
		
			<circle style="fill:#FFFFFF;stroke:#141414;stroke-linecap:round;stroke-linejoin:round;stroke-miterlimit:1;" cx="33.517" cy="14.483" r="3.017"/>
		<polygon style="fill:#161616;" points="35,14 34,14 34,13 33,13 33,14 32,14 32,15 33,15 33,16 34,16 34,15 35,15 		"/>
	</g>
	<g style="display:inline;">
		
			<circle style="fill:#FFFFFF;stroke:#141414;stroke-linecap:round;stroke-linejoin:round;stroke-miterlimit:1;" cx="-10.548" cy="-10.75" r="3.25"/>
		
			<circle style="fill:#FFFFFF;stroke:#141414;stroke-linecap:round;stroke-linejoin:round;stroke-miterlimit:1;" cx="-27.048" cy="-5.25" r="3.25"/>
		<polygon style="fill:#FFFFFF;stroke:#141414;stroke-linecap:round;stroke-linejoin:round;stroke-miterlimit:1;" points="
			-11.441,-13.876 -28.201,-8.29 -25.88,-2.216 -9.411,-7.705 		"/>
	</g>
	
		<line style="display:inline;fill:none;stroke:#161616;stroke-linecap:round;stroke-miterlimit:10;" x1="37" y1="16" x2="38.078" y2="16.539"/>
	
		<line style="display:inline;fill:none;stroke:#161616;stroke-linecap:round;stroke-miterlimit:10;" x1="39.922" y1="17.5" x2="41" y2="18.039"/>
	<line style="display:inline;fill:none;stroke:#161616;stroke-miterlimit:10;" x1="80.5" y1="18.5" x2="86.5" y2="21.5"/>
</g>
<g id="Layer_7">
	<linearGradient id="SVGID_20_" gradientUnits="userSpaceOnUse" x1="42.994" y1="15.6688" x2="57.0715" y2="37.6382">
		<stop  offset="0" style="stop-color:#F5F6F6"/>
		<stop  offset="0.9921" style="stop-color:#D2D3D3"/>
	</linearGradient>
	<path style="fill:url(#SVGID_20_);stroke:#333332;stroke-linecap:round;stroke-linejoin:round;stroke-miterlimit:1;" d="M56.5,18
		c0,0-4.547-5.849-8-7c-1.5-0.5-3,0-4.5,1c-2.426,1.617-2.5,2.5-4,2c-1.061-0.354-6.483-2.534-6.483-2.534l-1.515,5.795
		c0,0,5.076,2.104,6.076,2.604S38.945,22.003,39,22.5c0.5,4.5,5.5,7.5,8.5,8C49.534,30.839,54,31,54,31s-8.5-3-10-7.5
		s0.656-7.078,2.5-8C49.5,14,56.5,18,56.5,18z"/>
	<g>
		<linearGradient id="SVGID_21_" gradientUnits="userSpaceOnUse" x1="25.5037" y1="20.709" x2="21.3192" y2="13.4612">
			<stop  offset="0" style="stop-color:#74C4E2"/>
			<stop  offset="1" style="stop-color:#A4DEF6"/>
		</linearGradient>
		
			<path style="fill:url(#SVGID_21_);stroke:#053755;stroke-width:0.9813;stroke-linecap:round;stroke-linejoin:round;stroke-miterlimit:1;" d="
			M34.734,14.13c0-1.728-1.455-3.13-3.25-3.13c-0.31,0-0.604,0.055-0.888,0.133l-0.005-0.014l-16.76,5.379l0.003,0.009
			c-1.226,0.448-2.101,1.581-2.101,2.918c0,1.728,1.455,3.13,3.25,3.13c0.412,0,0.802-0.081,1.164-0.216l0.003,0.008l16.47-5.285
			l-0.003-0.01C33.851,16.608,34.734,15.472,34.734,14.13z"/>
		<linearGradient id="SVGID_22_" gradientUnits="userSpaceOnUse" x1="26.9088" y1="22.3944" x2="22.5131" y2="14.7809">
			<stop  offset="0" style="stop-color:#2A5B79"/>
			<stop  offset="1" style="stop-color:#84BEDC"/>
		</linearGradient>
		
			<path style="fill:url(#SVGID_22_);stroke:#053755;stroke-width:0.9813;stroke-linecap:round;stroke-linejoin:round;stroke-miterlimit:1;" d="
			M36,15.574c0-1.728-1.455-3.13-3.25-3.13c-0.31,0-0.604,0.055-0.888,0.133l-0.005-0.014l-16.76,5.379l0.003,0.009
			C13.875,18.4,13,19.533,13,20.87c0,1.728,1.455,3.13,3.25,3.13c0.412,0,0.802-0.081,1.164-0.216l0.003,0.008l16.47-5.285
			l-0.003-0.01C35.117,18.053,36,16.917,36,15.574z"/>
	</g>
	<g>
		<linearGradient id="SVGID_23_" gradientUnits="userSpaceOnUse" x1="21.2692" y1="42.7964" x2="27.9305" y2="54.3342">
			<stop  offset="0" style="stop-color:#F5F6F6"/>
			<stop  offset="0.9921" style="stop-color:#D2D3D3"/>
		</linearGradient>
		<path style="fill:url(#SVGID_23_);" d="M34.526,46.25c0-2.347-4.51-4.25-10.074-4.25c-5.564,0-10.074,1.903-10.074,4.25
			c0,0.025,0.008,0.05,0.009,0.075h-0.009v4.126h0.021c0,2.236,4.506,4.048,10.064,4.048s10.064-1.813,10.064-4.048v-4.126h-0.009
			C34.518,46.3,34.526,46.275,34.526,46.25z"/>
		<linearGradient id="SVGID_24_" gradientUnits="userSpaceOnUse" x1="21.9779" y1="41.9648" x2="27.0851" y2="50.8107">
			<stop  offset="0" style="stop-color:#FFFFFF"/>
			<stop  offset="1" style="stop-color:#F1F0F0"/>
		</linearGradient>
		<ellipse style="fill:url(#SVGID_24_);" cx="24.452" cy="46.25" rx="10.074" ry="4.25"/>
		<path style="fill:#797979;" d="M34.013,46.148c0.003,0.034,0.013,0.068,0.013,0.102c0,1.811-3.847,3.75-9.574,3.75
			c-5.728,0-9.575-1.939-9.575-3.75c0-0.117,0.017-0.234,0.049-0.352c-0.366,0.093-0.719,0.19-1.043,0.294
			c0,0.02-0.006,0.039-0.006,0.058c0,2.663,4.645,4.75,10.575,4.75c5.747,0,10.274-1.962,10.548-4.508
			C34.699,46.372,34.367,46.257,34.013,46.148z"/>
	</g>
	
		<linearGradient id="SVGID_25_" gradientUnits="userSpaceOnUse" x1="31.278" y1="38.3041" x2="19.1256" y2="17.2555" gradientTransform="matrix(0.9637 0.0162 -0.0164 0.9799 0.992 -0.0571)">
		<stop  offset="0" style="stop-color:#74C4E2"/>
		<stop  offset="1" style="stop-color:#A4DEF6"/>
	</linearGradient>
	
		<path style="fill:url(#SVGID_25_);stroke:#053755;stroke-width:0.9719;stroke-linecap:round;stroke-linejoin:round;stroke-miterlimit:1;" d="
		M35.657,30.143l0.02-0.017l-0.171-0.114c-0.179-0.145-0.371-0.27-0.573-0.383L16.135,17.057l-0.009,0.013
		c-0.481-0.323-1.051-0.521-1.67-0.532c-1.73-0.029-3.156,1.373-3.185,3.132c-0.019,1.129,0.547,2.125,1.409,2.706l-0.009,0.013
		l16.369,11.974c0.468,1.738,2.001,3.036,3.863,3.067c2.262,0.038,4.127-1.796,4.166-4.096
		C37.091,32.059,36.534,30.922,35.657,30.143z"/>
	<linearGradient id="SVGID_26_" gradientUnits="userSpaceOnUse" x1="30.8164" y1="42.0295" x2="13.0121" y2="12.4361">
		<stop  offset="0" style="stop-color:#386F8D"/>
		<stop  offset="1" style="stop-color:#8DD7F4"/>
	</linearGradient>
	<path style="fill:url(#SVGID_26_);stroke:#053755;stroke-linecap:round;stroke-linejoin:round;stroke-miterlimit:1;" d="
		M33.115,30.734l0.004-0.006l-0.059-0.039c-0.014-0.009-0.028-0.018-0.042-0.027L14.551,18.478l-0.009,0.014
		c-0.52-0.319-1.131-0.504-1.786-0.492c-1.831,0.033-3.289,1.544-3.256,3.376c0.021,1.176,0.656,2.192,1.59,2.764l-0.009,0.014
		l18.211,11.753c0.124,0.095,0.256,0.178,0.393,0.254l0.111,0.071l0.005-0.009c0.435,0.218,0.918,0.352,1.437,0.352
		c1.782,0,3.226-1.444,3.226-3.226C34.465,32.27,33.93,31.32,33.115,30.734z"/>
	<linearGradient id="SVGID_27_" gradientUnits="userSpaceOnUse" x1="28.4895" y1="34.0963" x2="28.4256" y2="44.8186">
		<stop  offset="0" style="stop-color:#F5F6F6"/>
		<stop  offset="0.9365" style="stop-color:#808080"/>
	</linearGradient>
	<path style="fill:url(#SVGID_27_);stroke:#797979;stroke-linecap:round;stroke-linejoin:round;stroke-miterlimit:1;" d="
		M35.595,36.87c0-3.59-2.91-6.5-6.5-6.5c-2.945,0-6.935,1.955-7.733,4.641c0,0,1.503,0.005,1.503,0.005l5.858,13.03l3.128-2.362
		c0,0-0.916-1.395,2.5-5.213c0.626-0.699,1.101-2.062,1.124-2.367C35.552,37.705,35.595,37.293,35.595,36.87z"/>
	<linearGradient id="SVGID_28_" gradientUnits="userSpaceOnUse" x1="21.92" y1="36.0815" x2="28.1968" y2="46.9533">
		<stop  offset="0" style="stop-color:#F5F6F6"/>
		<stop  offset="0.9921" style="stop-color:#BFBEBE"/>
	</linearGradient>
	<path style="fill:url(#SVGID_28_);stroke:#797979;stroke-linecap:round;stroke-linejoin:round;stroke-miterlimit:1;" d="
		M32.468,39.232c0-3.59-2.91-6.5-6.5-6.5c-2.945,0-5.429,1.96-6.228,4.645c0,0-0.002,0-0.002,0l-2.27,7.855
		c4.851,2.862,11.255,2.814,11.255,2.814s-0.916-1.395,2.5-5.213c0.626-0.699,1.101-2.062,1.124-2.367
		C32.424,40.066,32.468,39.654,32.468,39.232z"/>
	<path style="fill:#797979;" d="M25.968,32.232c-2.615,0-4.991,1.496-6.185,3.755l0.716,0.817c0.951-2.132,3.094-3.571,5.469-3.571
		c3.309,0,6,2.691,6,6c0,0.372-0.038,0.756-0.119,1.195c-0.023,0.225-0.446,1.456-0.998,2.072c-2.311,2.582-2.761,4.168-2.747,5.03
		c-0.148-0.006-0.327-0.017-0.519-0.029l1.323,0.999c0.109-0.039,0.208-0.1,0.265-0.205c0.086-0.161,0.085-0.344-0.015-0.497
		c-0.006-0.013-0.563-1.277,2.439-4.631c0.701-0.784,1.219-2.253,1.242-2.605c0.086-0.446,0.13-0.894,0.13-1.329
		C32.968,35.373,29.827,32.232,25.968,32.232z"/>
	<path style="fill:none;stroke:#333332;stroke-linecap:round;stroke-linejoin:round;stroke-miterlimit:1;" d="M35.475,37.817
		c0.077-0.4,0.121-0.812,0.121-1.234c0-3.59-2.91-6.5-6.5-6.5c-3.904,0-7.797,2.853-9.356,7.007c0,0-0.002,0-0.002,0l-1.605,5.555
		c-2.282,0.779-3.744,1.969-3.744,3.304c0,0.025,0.008,0.05,0.009,0.075h-0.009v4.126h0.021c0,2.236,4.506,4.048,10.064,4.048
		s10.064-1.813,10.064-4.048v-4.126h-0.009c0.001-0.025,0.009-0.05,0.009-0.075c0-1.037-0.883-1.987-2.345-2.724
		c0.371-0.772,1.021-1.769,2.159-3.041C34.977,39.485,35.451,38.122,35.475,37.817z"/>
	<linearGradient id="SVGID_29_" gradientUnits="userSpaceOnUse" x1="24.3228" y1="37.5969" x2="26.3654" y2="39.2565">
		<stop  offset="0" style="stop-color:#386F8D"/>
		<stop  offset="1" style="stop-color:#8DD7F4"/>
	</linearGradient>
	
		<circle style="fill:url(#SVGID_29_);stroke:#053755;stroke-linecap:round;stroke-linejoin:round;stroke-miterlimit:1;" cx="25.713" cy="38.726" r="2.5"/>
	<g>
		
			<circle style="fill:#FFFFFF;stroke:#141414;stroke-linecap:round;stroke-linejoin:round;stroke-miterlimit:1;" cx="33.517" cy="14.483" r="3.017"/>
		<polygon style="fill:#161616;" points="35,14 34,14 34,13 33,13 33,14 32,14 32,15 33,15 33,16 34,16 34,15 35,15 		"/>
	</g>
	<line style="fill:none;stroke:#161616;stroke-linecap:round;stroke-miterlimit:10;" x1="37" y1="16" x2="38.078" y2="16.539"/>
	<line style="fill:none;stroke:#161616;stroke-linecap:round;stroke-miterlimit:10;" x1="39.922" y1="17.5" x2="41" y2="18.039"/>
</g>
</svg>
