<svg xmlns="http://www.w3.org/2000/svg" xmlns:xlink="http://www.w3.org/1999/xlink" viewBox="0 0 64 64"><defs><linearGradient id="linear-gradient" x1="21.19" y1="23.61" x2="59.3" y2="54.63" gradientUnits="userSpaceOnUse"><stop offset="0"/><stop offset="0.11" stop-color="#030303"/><stop offset="0.2" stop-color="#0e0e0e"/><stop offset="0.29" stop-color="#1f1f1f"/><stop offset="0.37" stop-color="#373737"/><stop offset="0.45" stop-color="#575757"/><stop offset="0.52" stop-color="#7d7d7d"/><stop offset="0.6" stop-color="#ababab"/><stop offset="0.67" stop-color="#dfdfdf"/><stop offset="0.71" stop-color="#fff"/></linearGradient><filter id="luminosity-invert" filterUnits="userSpaceOnUse" color-interpolation-filters="sRGB"><feColorMatrix values="-1 0 0 0 1 0 -1 0 0 1 0 0 -1 0 1 0 0 0 1 0"/></filter><mask id="mask" x="8" y="9.88" width="48" height="44.24" maskUnits="userSpaceOnUse"><path d="M51.68,48.77c-5.23,5.1-13.4,5.35-15,5.35h-.24c-9,0-16.06-2.56-21-7.62C7.87,38.76,8,28.06,8,27.61H8c0-5.09,1.6-9.16,4.76-12.08C17.65,11,26.32,9.18,38.54,10.12a.5.5,0,0,1,.46.5v6a.29.29,0,0,1,0,.09.2.2,0,0,1,0,.07l-.11.33H39l-.17.08-1.64,4.92h0L36,25.78a.48.48,0,0,1-.53.33c-.09,0-8.74-1.07-13,2.53a6.68,6.68,0,0,0-2.4,5h0Q22.57,37,28.41,39a43.92,43.92,0,0,0,12.09,2.1A16.41,16.41,0,0,0,46.44,40Z" fill="url(#linear-gradient)" filter="url(#luminosity-invert)"/></mask><linearGradient id="linear-gradient-2" x1="8" y1="40.62" x2="56" y2="40.62" gradientUnits="userSpaceOnUse"><stop offset="0" stop-color="#386f8d"/><stop offset="1" stop-color="#8dd7f4"/></linearGradient><linearGradient id="linear-gradient-3" x1="50.28" y1="44.13" x2="39.78" y2="25.94" xlink:href="#linear-gradient-2"/><linearGradient id="linear-gradient-4" x1="45.57" y1="56.82" x2="15.66" y2="5.02" gradientUnits="userSpaceOnUse"><stop offset="0" stop-color="#386f8d"/><stop offset="0.64" stop-color="#8dd7f4"/><stop offset="1" stop-color="#386f8d"/></linearGradient><linearGradient id="linear-gradient-5" x1="9.5" y1="20.12" x2="23.95" y2="20.12" gradientUnits="userSpaceOnUse"><stop offset="0" stop-color="#fff" stop-opacity="0"/><stop offset="0.34" stop-color="#fff"/><stop offset="1" stop-color="#fff" stop-opacity="0"/></linearGradient><linearGradient id="linear-gradient-6" x1="17.25" y1="21.94" x2="39.08" y2="21.94" gradientUnits="userSpaceOnUse"><stop offset="0" stop-color="#fff" stop-opacity="0"/><stop offset="0.59" stop-color="#fff"/><stop offset="1" stop-color="#fff"/></linearGradient></defs><title>CATDIS_AP_AppIcon</title><g id="Layer_5" data-name="Layer 5"><path d="M8.5,27.62s-.5,26,28,26c0,0,19,.5,19-16" fill="none" stroke="#053755" stroke-linecap="round" stroke-linejoin="round"/><path d="M38.5,29.62l-1,5s8.53-.48,9,5.5" fill="none" stroke="#053755" stroke-linecap="round" stroke-linejoin="round"/><path d="M17.5,27.62c0,13,21,14,23,14s9-.5,9-5-7.5-7-11-7l1-3.5s16,.5,16,11.5c0,0,.5,10-15.5,10s-31.5-7.25-31.5-20" fill="none" stroke="#053755" stroke-linecap="round" stroke-linejoin="round"/><polyline points="42.5 35.12 43.5 31.12 45.5 27.12" fill="none" stroke="#053755" stroke-linecap="round" stroke-linejoin="round"/><polyline points="52.5 31.12 48 33.62 45 36.62" fill="none" stroke="#053755" stroke-linecap="round" stroke-linejoin="round"/><line x1="49.5" y1="38.12" x2="54.5" y2="41.12" fill="none" stroke="#053755" stroke-linecap="round" stroke-linejoin="round"/><polyline points="19.5 34.62 13.5 38.62 13.5 43.12" fill="none" stroke="#053755" stroke-linecap="round" stroke-linejoin="round"/><polygon points="24 37.62 18.5 42.62 18.5 48.12 13.5 38.62 24 37.62" fill="none" stroke="#053755" stroke-linecap="round" stroke-linejoin="round"/><polygon points="29.5 40.12 25.5 45.62 25.5 51.62 18.5 42.62 29.5 40.12" fill="none" stroke="#053755" stroke-linecap="round" stroke-linejoin="round"/><polygon points="35 41.12 32.5 47.12 32.5 53.12 25.5 45.62 35 41.12" fill="none" stroke="#053755" stroke-linecap="round" stroke-linejoin="round"/><polygon points="38.5 41.62 37.5 47.62 37.5 53.62 32.5 47.12 38.5 41.62" fill="none" stroke="#053755" stroke-linecap="round" stroke-linejoin="round"/><polyline points="37.5 47.62 41.5 41.62 43.5 47.62 43.5 52.62 37.5 47.62" fill="none" stroke="#053755" stroke-linecap="round" stroke-linejoin="round"/><polyline points="43.5 47.62 45.5 41.12 49.5 45.62 49.5 49.62 43.5 47.62" fill="none" stroke="#053755" stroke-linecap="round" stroke-linejoin="round"/><g mask="url(#mask)"><path d="M38.92,16.34l-2-3a.54.54,0,0,0-.44-.22l-11.5.5a.37.37,0,0,0-.21.06l-11.5,6a.48.48,0,0,0-.27.44v13a.5.5,0,0,0,.46.5l6,.5h0a.51.51,0,0,0,.33-.13.49.49,0,0,0,.17-.35,6.68,6.68,0,0,1,2.4-5c4.3-3.6,13-2.54,13-2.53a.48.48,0,0,0,.53-.33l3-9A.52.52,0,0,0,38.92,16.34Z" fill="#275875"/><g opacity="0.3"><path d="M35,22.12h2.19L39,16.78a.52.52,0,0,0,0-.44L37.1,13.62H34v7.5A1,1,0,0,0,35,22.12Z" fill="#fff"/><path d="M25,21.34V15.12l-5,2-5,5-2,9h4c1.19-6.36,5.54-8.3,7.28-8.82A1,1,0,0,0,25,21.34Z" fill="#fff"/><path d="M33,13.62H27v7.5a1,1,0,0,0,1,1h4a1,1,0,0,0,1-1Z" fill="#fff"/></g><path d="M55.77,37.2a.49.49,0,0,0-.47,0L36,45.58,19.3,40.19,8.89,27.3a.5.5,0,0,0-.55-.15.48.48,0,0,0-.34.46c0,.45-.13,11.15,7.47,18.89,5,5.06,12,7.62,21,7.62h.24c1.55,0,9.72-.25,15-5.35C54.55,46,56,42.23,56,37.62A.5.5,0,0,0,55.77,37.2Z" fill="url(#linear-gradient-2)"/><path d="M38.5,29.62l-1,5s9-.5,9,6h5v-7l-11-5Z" stroke="#053755" stroke-linecap="round" stroke-linejoin="round" fill="url(#linear-gradient-3)"/><path d="M56,37.62c0-11.35-16.32-12-16.49-12A.49.49,0,0,0,39,26l-1,3.5a.53.53,0,0,0,.08.44.48.48,0,0,0,.4.2c3.6,0,10.5,2.53,10.5,6.5,0,4.45-8.15,4.5-8.5,4.5A43.92,43.92,0,0,1,28.41,39C21.5,36.67,18,32.83,18,27.62a8.46,8.46,0,0,1,2.78-6.54c5.55-5,17.55-4,17.67-4a.61.61,0,0,0,.39-.13.52.52,0,0,0,.16-.37v-6a.5.5,0,0,0-.46-.5c-12.22-.94-20.89.88-25.78,5.41C9.6,18.45,8,22.52,8,27.62,8,33.78,11.46,39,18,42.83c5.88,3.41,13.69,5.29,22,5.29,6.17,0,10.68-1.46,13.41-4.32A9,9,0,0,0,56,37.62Z" fill="url(#linear-gradient-4)"/><path d="M10,27.62a14.6,14.6,0,0,1,.48-5.68,11.87,11.87,0,0,1,3-5,14.16,14.16,0,0,1,4.87-3.09,19.84,19.84,0,0,1,5.55-1.25,36.35,36.35,0,0,0-5.23,2,16.15,16.15,0,0,0-4.49,3.08,12.89,12.89,0,0,0-2.92,4.53A21.59,21.59,0,0,0,10,27.62Z" fill="url(#linear-gradient-5)"/><path d="M18,27.62a8.46,8.46,0,0,1,2.78-6.54c5.55-5,18.1-4,18.22-4" fill="none" stroke-miterlimit="10" stroke-width="1.5" stroke="url(#linear-gradient-6)"/></g></g></svg>