<svg id="verdion_1X_copy" data-name="verdion 1X   *** copy" xmlns="http://www.w3.org/2000/svg" xmlns:xlink="http://www.w3.org/1999/xlink" viewBox="0 0 64 64"><defs><style>.cls-1,.cls-5{stroke:#231f20;}.cls-1{fill:url(#white_left);}.cls-2{fill:#797979;}.cls-3,.cls-5{fill:none;}.cls-3{stroke:#000;stroke-linecap:round;stroke-miterlimit:1;}.cls-4{fill:#323232;stroke:#323232;}.cls-6{fill:#231f20;}.cls-7,.cls-8{fill:#285977;}.cls-7{stroke:#fff;stroke-width:1.1px;}.cls-9{fill:#fff;}</style><linearGradient id="white_left" x1="21.2" y1="22.07" x2="36.18" y2="34.13" gradientUnits="userSpaceOnUse"><stop offset="0" stop-color="#f5f5f5"/><stop offset="1" stop-color="#bebebe"/></linearGradient></defs><title>ddd__A33AAe__R21XArtboard 1</title><g id="tete_1X_copy" data-name="tete 1X copy"><path d="M27.05,24.1c-.82,0-9.53,2.26-9.9,2.37s-.85.63,1.25,1.38c2.68,1,3.62.8,3.62.8s1.34-2.33,2.29-2.78a4.06,4.06,0,0,1,1.93-.52c1-.05,1.55.82,1.89.7s.23-.93.1-1.23A1.25,1.25,0,0,0,27.05,24.1Z"/><path id="visage" class="cls-1" d="M46.57,25a15,15,0,0,1-4.81,10.86c-1.38,1.71-.88,4.91-1.11,8.34-1.63,4.49-8.89,8.19-12.48,7.48-.33-.23-.88-.11-.94-1,0-3.11.49-4.48-1.7-4.29-4.29.34-3.21-3.21-4.06-4-1.39-1.34-2.73-6.07-2.89-7.84-.2-2.17,1.08-3.92.67-5.19A14,14,0,1,1,46.57,25Z"/><path id="ombre_menton" data-name="ombre  menton" class="cls-2" d="M38.8,37.93C38.65,39.15,31,49.24,28.6,49.17c-2.05-.35-.84-3.07-3.76-2.87a13.63,13.63,0,0,0,3.47-.76C33.78,43.48,36.8,41.13,38.8,37.93Z"/><path id="ombre_menton-2" data-name="ombre  menton" class="cls-3" d="M24.84,46.3a13.63,13.63,0,0,0,3.47-.76c5.47-2.06,8.49-4.41,10.49-7.61"/><g id="oreille"><path class="cls-2" d="M38.83,35.07a1.13,1.13,0,0,0,.09.63.77.77,0,0,0,.51.4.33.33,0,0,0,.17,0,1.17,1.17,0,0,0,.23,0,1.75,1.75,0,0,0,.47-.21,7,7,0,0,0,1.76-2,10.54,10.54,0,0,0,.78-1.35,6.58,6.58,0,0,0,.48-1.46,3.23,3.23,0,0,0-.41-2.67,1.45,1.45,0,0,0-.44-.34A1.11,1.11,0,0,0,42,27.9a1.5,1.5,0,0,0-1,.29,4.15,4.15,0,0,0-1.18,1.33c-.24.39-.36.64-.36.64a.27.27,0,0,1-.35.12A.28.28,0,0,1,39,30v0a4.61,4.61,0,0,1,.23-.75,4.9,4.9,0,0,1,.41-.84,3.92,3.92,0,0,1,.83-.95A2.48,2.48,0,0,1,42,26.9a1.92,1.92,0,0,1,.91.24,2.48,2.48,0,0,1,.75.59,2.85,2.85,0,0,1,.64,1.74,5.21,5.21,0,0,1-.2,1.77,7.11,7.11,0,0,1-.67,1.61c-.27.48-.58.93-.88,1.36a7.33,7.33,0,0,1-2,2.13,2.1,2.1,0,0,1-.63.24,1.31,1.31,0,0,1-.31,0,.91.91,0,0,1-.34,0,1.33,1.33,0,0,1-.79-.68,1.51,1.51,0,0,1-.12-.66l0-.2a.15.15,0,0,1,.16-.14l.08,0Z"/></g><path class="cls-4" d="M20.52,30.46l-1-1.24s.18-1.33.56-1.35a8,8,0,0,1,1.24,0c.8.06,1.47,1.56,1.47,1.56l-1,1.26Z"/><path class="cls-4" d="M30.66,31.26c.41,0,1.9-1.27,1.9-1.27s-1-1.18-1.62-1.28a22.31,22.31,0,0,0-2.32-.32c-.38,0-1.54,1.49-1.54,1.49A17.73,17.73,0,0,1,28.51,31,7,7,0,0,0,30.66,31.26Z"/><path id="contour_visage" data-name="contour  visage" class="cls-5" d="M46.57,25a15,15,0,0,1-4.81,10.86c-1.38,1.71-.88,4.91-1.11,8.34-1.63,4.49-8.89,8.19-12.48,7.48-.33-.23-.88-.11-.94-1,0-3.11.49-4.48-1.7-4.29-4.29.34-3.21-3.21-4.06-4-1.39-1.34-2.73-6.07-2.89-7.84-.2-2.17,1.08-3.92.67-5.19A14,14,0,1,1,46.57,25Z"/><g id="narine"><path class="cls-6" d="M23.07,35.85a.9.9,0,0,1,.22-.25.53.53,0,0,1,.35-.08h.15l.16,0a.83.83,0,0,1,.5.38c.09.13.14.22.14.22a.11.11,0,0,1-.06.15.1.1,0,0,1-.14,0l-.14-.17a.6.6,0,0,0-.33-.22h-.27a.21.21,0,0,0-.12,0,.57.57,0,0,0-.07.13.22.22,0,0,1-.39-.21Z"/></g><g id="courbure_nez" data-name="courbure nez"><path class="cls-6" d="M22.36,26.55a11.61,11.61,0,0,1,.8,2.08,3.5,3.5,0,0,1,.14,1.14A4,4,0,0,1,23,30.86c-.29.69-.63,1.35-1,2l-.48,1a4.4,4.4,0,0,0-.35.94v0a1.39,1.39,0,0,0,.12.38,1.3,1.3,0,0,0,.23.41,4.43,4.43,0,0,0,.75.75.07.07,0,0,1,0,.09.11.11,0,0,1-.07,0,3.13,3.13,0,0,1-1-.52,1.78,1.78,0,0,1-.43-.47,1.1,1.1,0,0,1-.16-.67v0h0a4.43,4.43,0,0,1,.45-1.1l.55-1c.37-.63.74-1.26,1-1.91a3.35,3.35,0,0,0,.35-1,3.09,3.09,0,0,0-.1-1,9.41,9.41,0,0,0-.74-2,.11.11,0,0,1,.2-.11Z"/></g><g id="sourcil_1" data-name="sourcil 1"><path class="cls-6" d="M18.41,24.6l.15,0,.45,0a3.82,3.82,0,0,1,1.27.22,4,4,0,0,1,1.49,1,.11.11,0,0,1,0,.16.12.12,0,0,1-.14,0,2.77,2.77,0,0,0-.45-.22,3.46,3.46,0,0,0-1-.24,2.73,2.73,0,0,0-1,.11l-.3.11-.13.05a.59.59,0,0,1-.77-.32.59.59,0,0,1,.33-.77A.42.42,0,0,1,18.41,24.6Z"/></g><g id="sourcil_2" data-name="sourcil  2"><path class="cls-6" d="M33.52,27.51l-1-.43c-.62-.26-1.44-.6-2.25-.88a5.12,5.12,0,0,0-1.16-.28l-.27,0h-.24a3.57,3.57,0,0,0-.47,0c-.6.07-1.06.16-1.06.16a.12.12,0,0,1-.15-.09.14.14,0,0,1,0-.09,2.1,2.1,0,0,1,1-.77,2.63,2.63,0,0,1,.6-.18l.36,0a1.39,1.39,0,0,1,.34,0,5,5,0,0,1,1.39.38,11.32,11.32,0,0,1,2.2,1.26c.55.4.89.71.89.71a.11.11,0,0,1-.12.19Z"/></g><g id="bouche_" data-name="bouche   **"><path id="_" data-name="*" class="cls-2" d="M24.62,40.22a4.72,4.72,0,0,1-1.75.12c-.37,0-.45-.25-.66-.59.35,1,.36,1.77,1.14,1.77S24.62,40.22,24.62,40.22Z"/><g id="bouche"><path class="cls-6" d="M26.19,39.71a1.78,1.78,0,0,0-.54-.3,6.21,6.21,0,0,0-.61-.2,4.56,4.56,0,0,0-.62-.13,3.26,3.26,0,0,1-.62,0l.35-.12a1.37,1.37,0,0,1-1.07.39l-.15,0-.2-.06a1.4,1.4,0,0,1-.24-.15,1.49,1.49,0,0,1-.36-.39h0l.3.11c-.24,0-.6.28-.83.55h0a.1.1,0,0,1-.14,0,.13.13,0,0,1,0-.12,2.75,2.75,0,0,1,.31-.55,1.21,1.21,0,0,1,.56-.47.23.23,0,0,1,.25.06l0,0h0a1.47,1.47,0,0,0,.28.16l.13,0h.08c.25,0,.36,0,.48-.18a.39.39,0,0,1,.3-.12h.05a1.76,1.76,0,0,1,.66.28c.2.11.41.18.61.29s.4.2.59.32a4.29,4.29,0,0,1,.55.4.1.1,0,1,1-.13.15Z"/></g></g><g id="Layer_18_copy_2" data-name="Layer 18 copy 2"><path class="cls-7" d="M40.21,24l.54,1,1.36-.77-.54-1a2.88,2.88,0,0,0,.72-1.2s0,0,0-.06H43.4l0-1.56h-1.1a3,3,0,0,0-.72-1.26l.56-.95-1.35-.78-.56.94a2.93,2.93,0,0,0-1.44,0l-.55-1-1.35.78.54.95a2.82,2.82,0,0,0-.72,1.2.09.09,0,0,0,0,.05h-1.1l0,1.56h1.1a3,3,0,0,0,.72,1.26l-.56.95,1.35.79.55-1A2.85,2.85,0,0,0,40.21,24Zm-1.14-1.39a1.49,1.49,0,1,1,1.86-1A1.48,1.48,0,0,1,39.07,22.59Z"/><path class="cls-8" d="M40.21,24l.54,1,1.36-.77-.54-1a2.88,2.88,0,0,0,.72-1.2s0,0,0-.06H43.4l0-1.56h-1.1a3,3,0,0,0-.72-1.26l.56-.95-1.35-.78-.56.94a2.93,2.93,0,0,0-1.44,0l-.55-1-1.35.78.54.95a2.82,2.82,0,0,0-.72,1.2.09.09,0,0,0,0,.05h-1.1l0,1.56h1.1a3,3,0,0,0,.72,1.26l-.56.95,1.35.79.55-1A2.85,2.85,0,0,0,40.21,24Zm-1.14-1.39a1.49,1.49,0,1,1,1.86-1A1.48,1.48,0,0,1,39.07,22.59Z"/><path class="cls-7" d="M30.89,22l.76,1.34,1.9-1.08-.75-1.34a4.17,4.17,0,0,0,1-1.67s0,0,0-.08l1.54,0,0-2.19H33.84a4.12,4.12,0,0,0-1-1.77l.78-1.32-1.88-1.11L31,14.09a4.07,4.07,0,0,0-2,0l-.77-1.34-1.89,1.08L27,15.15a4.14,4.14,0,0,0-1,1.68s0,0,0,.07H24.46l0,2.18H26a4.12,4.12,0,0,0,1,1.77l-.78,1.32,1.88,1.11L28.87,22A4,4,0,0,0,30.89,22ZM29.3,20a2.08,2.08,0,1,1,2.6-1.38A2.07,2.07,0,0,1,29.3,20Z"/><path class="cls-7" d="M30.89,22l.76,1.34,1.9-1.08-.75-1.34a4.17,4.17,0,0,0,1-1.67s0,0,0-.08l1.54,0,0-2.19H33.84a4.12,4.12,0,0,0-1-1.77l.78-1.32-1.88-1.11L31,14.09a4.07,4.07,0,0,0-2,0l-.77-1.34-1.89,1.08L27,15.15a4.14,4.14,0,0,0-1,1.68s0,0,0,.07H24.46l0,2.18H26a4.12,4.12,0,0,0,1,1.77l-.78,1.32,1.88,1.11L28.87,22A4,4,0,0,0,30.89,22ZM29.3,20a2.08,2.08,0,1,1,2.6-1.38A2.07,2.07,0,0,1,29.3,20Z"/></g><path d="M34.05,28s1.31.63,1.37,1a4,4,0,0,1-1.06,3.54c-3.13,2.07-8.45,1.93-9.55,1.84s-2.2-3.09-2.91-3.12c-1.16-.08-.36,2.23-1.16,2.58-1.12.41-4.18-1.33-4.56-2a28.52,28.52,0,0,1-.7-3.5c-.15-.58.76-1.36.76-1.36s1,1.49,5.21,1.95C25.88,29.43,34.05,28,34.05,28Z"/><path d="M42.86,26.68C41.4,27,40,27.23,39,28.19s-.76,2.49-1.07,2.71a9,9,0,0,1-2.23.79A4,4,0,0,0,36,28.81a3.9,3.9,0,0,0-1.35-.94l8.56-2.43C45.14,24.85,44.46,26.34,42.86,26.68Z"/><g id="Layer_16_copy_2" data-name="Layer 16 copy 2"><path class="cls-9" d="M20,33.19c-.43.17-1.25-.32-2.33-1-1.68-1.13-1.73-4-1.36-4s.79.69,2.19,1.32,2,.24,2.33.7A4.36,4.36,0,0,1,20,33.19Z"/><path class="cls-9" d="M25,33.56c1.13.88,5.44-.19,6.66-1,1.42-1,2.13-3.2,1.63-3.44s-1.84.74-7.13,1.1c-1.57.11-2.95-.46-3.06.55S24.51,33.12,25,33.56Z"/></g></g></svg>