<svg xmlns="http://www.w3.org/2000/svg" xmlns:xlink="http://www.w3.org/1999/xlink" viewBox="0 0 64 64"><defs><style>.cls-1{fill:#57b847;}.cls-2{fill:url(#linear-gradient);}.cls-3{fill:url(#linear-gradient-2);}.cls-4{fill:url(#linear-gradient-3);}.cls-5{fill:url(#linear-gradient-4);}.cls-6{fill:url(#linear-gradient-5);}.cls-7{fill:url(#linear-gradient-6);}.cls-8{fill:url(#linear-gradient-7);}.cls-9{fill:#fff;opacity:0.5;}</style><linearGradient id="linear-gradient" x1="36.27" y1="15.86" x2="38.73" y2="20.14" gradientTransform="translate(33.64 -23.42) rotate(59.03)" gradientUnits="userSpaceOnUse"><stop offset="0" stop-color="#2f85b1"/><stop offset="1" stop-color="#285677"/></linearGradient><linearGradient id="linear-gradient-2" x1="40.02" y1="19.8" x2="41.98" y2="23.2" gradientTransform="translate(38.28 -24.72) rotate(58.97)" xlink:href="#linear-gradient"/><linearGradient id="linear-gradient-3" x1="42.72" y1="24.64" x2="44.28" y2="27.36" gradientTransform="translate(46.26 -24.6) rotate(62.25)" xlink:href="#linear-gradient"/><linearGradient id="linear-gradient-4" x1="44.72" y1="28.64" x2="46.28" y2="31.36" gradientTransform="translate(50.87 -24.24) rotate(62.25)" xlink:href="#linear-gradient"/><linearGradient id="linear-gradient-5" x1="29.57" y1="25.99" x2="37.91" y2="40.43" gradientTransform="matrix(1, 0, 0, 1, 0, 0)" xlink:href="#linear-gradient"/><linearGradient id="linear-gradient-6" x1="24.15" y1="36.34" x2="29.33" y2="45.3" gradientTransform="matrix(1, 0, 0, 1, 0, 0)" xlink:href="#linear-gradient"/><linearGradient id="linear-gradient-7" x1="29.53" y1="35.44" x2="32.2" y2="40.06" gradientUnits="userSpaceOnUse"><stop offset="0" stop-color="#b5e1f8"/><stop offset="1" stop-color="#84c7e6"/></linearGradient></defs><g id="Calque_4" data-name="Calque 4"><g id="bg1"><path class="cls-1" d="M38.21,7.52A25.39,25.39,0,0,0,32,6.75v0l1,.79,1,.79-1,.79L32,10v.16A21.63,21.63,0,1,1,10.37,31.75a22,22,0,0,1,.31-3.63c.47,0,1,.05,1.51.05s1.07,0,1.63-.07a12.84,12.84,0,0,0,1.65-.22A9.54,9.54,0,0,0,17,27.46a6.22,6.22,0,0,0,1.34-.67,5.56,5.56,0,0,0,1.4-1.42,8,8,0,0,0,.91-1.86,13.25,13.25,0,0,0,.55-2.17c.13-.77.22-1.55.28-2.35s.1-1.6.13-2.41.07-1.57.1-2.32a28.1,28.1,0,0,1-3.54.45c-1.14.08-2.23.17-3.26.27a20,20,0,0,0-2.87.48,6.55,6.55,0,0,0-2.35,1.07A5.89,5.89,0,0,0,8,18.59,10.32,10.32,0,0,0,7,22a12.81,12.81,0,0,1,1.71-1.66,13.33,13.33,0,0,1,2-1.33,12.71,12.71,0,0,1,2.34-.94,12.85,12.85,0,0,1,2.6-.46,17,17,0,0,0-3.76,2,12.45,12.45,0,0,0-2.81,2.75,11.53,11.53,0,0,0-1,1.95,8.68,8.68,0,0,0-.74,3.33A25.62,25.62,0,0,0,7,31.75,25,25,0,1,0,38.21,7.52Z"/></g></g><g id="Calque_13" data-name="Calque 13"><g id="_1" data-name="1"><ellipse class="cls-2" cx="37.5" cy="18" rx="3.25" ry="2.17" transform="translate(2.77 40.89) rotate(-59.03)"/><ellipse class="cls-3" cx="41" cy="21.5" rx="2.74" ry="1.65" transform="translate(1.44 45.55) rotate(-58.97)"/><ellipse class="cls-4" cx="43.5" cy="26" rx="2.16" ry="1.26" transform="translate(0.24 52.39) rotate(-62.25)"/><ellipse class="cls-5" cx="45.5" cy="30" rx="2.16" ry="1.26" transform="translate(-2.23 56.3) rotate(-62.25)"/><path class="cls-6" d="M42.32,29.82a35,35,0,0,0-2.5-3.77.52.52,0,0,0-.93.28,24.61,24.61,0,0,0,0,2.5,9.5,9.5,0,0,1-.09,1.84,9.67,9.67,0,0,1-.45,1.84,10.12,10.12,0,0,1-.86,1.79,12.77,12.77,0,0,0,.43-3.17,41.36,41.36,0,0,0-.36-6.24,2.25,2.25,0,0,0-1.74-1.69c-1-.32-4,.9-4.42,3.14C31.28,26.75,31.77,41,30,45c2.16-1.46,5.23-4.61,7.34-6.31.5-.41,1.73-1.31,2.72-2a7,7,0,0,0,2.37-3v0a4.79,4.79,0,0,0,.38-1.91A4.4,4.4,0,0,0,42.32,29.82Z"/><path class="cls-7" d="M20.94,44.31a23.53,23.53,0,0,0,1.95,2.45.35.35,0,0,0,.62-.24,14,14,0,0,0-.12-1.73,7.67,7.67,0,0,1-.05-1.27,6.66,6.66,0,0,1,.7-2.59,8.85,8.85,0,0,0-.11,2.22,11.9,11.9,0,0,0,.48,2.76A1.55,1.55,0,0,0,25.71,47a3.08,3.08,0,0,0,2.87-2.42s0-.16,0-.37A34.67,34.67,0,0,1,30,33c.05-.15,0,.11,0,0-1.41,1.13-5.18,3.21-6.69,4.55a9.45,9.45,0,0,0-2,2.51,1.47,1.47,0,0,0-.09.17,9.71,9.71,0,0,0-.55,1.41A3.49,3.49,0,0,0,20.49,43,3,3,0,0,0,20.94,44.31Z"/><path class="cls-8" d="M26.07,38.67a2.82,2.82,0,0,0-2.19,2.74"/><path class="cls-8" d="M26.91,42.18a2.58,2.58,0,0,0-2.6,2.35"/><path class="cls-8" d="M22.21,41a3.81,3.81,0,0,0,1.31,3.25"/><path class="cls-8" d="M36.08,36.45a3.85,3.85,0,0,0,1.87-3"/><path class="cls-8" d="M34.72,32.46A4.81,4.81,0,0,0,38,31.23"/><path class="cls-8" d="M39.59,34.84a4.26,4.26,0,0,0-1.07-3.33"/><path class="cls-9" d="M26.07,38.67a2.82,2.82,0,0,0-2.19,2.74"/><path class="cls-9" d="M26.91,42.18a2.58,2.58,0,0,0-2.6,2.35"/><path class="cls-9" d="M22.21,41a3.81,3.81,0,0,0,1.31,3.25"/><path class="cls-9" d="M36.08,36.45a3.85,3.85,0,0,0,1.87-3"/><path class="cls-9" d="M34.72,32.46A4.81,4.81,0,0,0,38,31.23"/><path class="cls-9" d="M39.59,34.84a4.26,4.26,0,0,0-1.07-3.33"/></g></g></svg>