<?xml version="1.0" encoding="iso-8859-1"?>
<!-- Generator: Adobe Illustrator 23.1.0, SVG Export Plug-In . SVG Version: 6.00 Build 0)  -->
<svg version="1.1" xmlns="http://www.w3.org/2000/svg" xmlns:xlink="http://www.w3.org/1999/xlink" x="0px" y="0px"
	 viewBox="0 0 64 64" style="enable-background:new 0 0 64 64;" xml:space="preserve">
<pattern  width="20" height="20" patternUnits="userSpaceOnUse" id="New_Pattern_Swatch_2" viewBox="22.121 -42.121 20 20" style="overflow:visible;">
	<g>
		<rect x="22.121" y="-42.121" style="fill:none;" width="20" height="20"/>
		
			<rect x="49.121" y="-26.263" transform="matrix(0.7071 -0.7071 0.7071 0.7071 23.837 33.3051)" style="fill:#844138;" width="6" height="28.284"/>
		
			<rect x="29.121" y="-26.263" transform="matrix(0.7071 -0.7071 0.7071 0.7071 17.9792 19.163)" style="fill:#844138;" width="6" height="28.284"/>
		
			<rect x="9.121" y="-26.263" transform="matrix(0.7071 -0.7071 0.7071 0.7071 12.1213 5.0208)" style="fill:#844138;" width="6" height="28.284"/>
		
			<rect x="49.121" y="-46.263" transform="matrix(0.7071 -0.7071 0.7071 0.7071 37.9792 27.4472)" style="fill:#844138;" width="6" height="28.284"/>
		
			<rect x="29.121" y="-46.263" transform="matrix(0.7071 -0.7071 0.7071 0.7071 32.1213 13.3051)" style="fill:#844138;" width="6" height="28.284"/>
		
			<rect x="9.121" y="-46.263" transform="matrix(0.7071 -0.7071 0.7071 0.7071 26.2635 -0.837)" style="fill:#844138;" width="6" height="28.284"/>
		
			<rect x="49.121" y="-66.263" transform="matrix(0.7071 -0.7071 0.7071 0.7071 52.1213 21.5894)" style="fill:#844138;" width="6" height="28.284"/>
		
			<rect x="29.121" y="-66.263" transform="matrix(0.7071 -0.7071 0.7071 0.7071 46.2635 7.4472)" style="fill:#844138;" width="6" height="28.284"/>
		
			<rect x="9.121" y="-66.263" transform="matrix(0.7071 -0.7071 0.7071 0.7071 40.4056 -6.6949)" style="fill:#844138;" width="6" height="28.284"/>
	</g>
</pattern>
<g id="Layer_1" style="display:none;">
</g>
<g id="info_r2021x" style="display:none;">
	<g id="pedestal_r2021x" style="display:inline;">
		<path style="opacity:0.5;fill:#FFFFFF;" d="M63.002,64h-62c-0.552,0-1-0.448-1-1V1c0-0.552,0.448-1,1-1h62c0.552,0,1,0.448,1,1v62
			C64.002,63.552,63.554,64,63.002,64z"/>
		<rect x="1.002" y="1" style="fill:#F4F5F6;" width="62" height="62"/>
		<rect x="1.002" y="1" style="fill:#D1D4D4;" width="2" height="62"/>
	</g>
	<g id="no-go_zone_1_" style="display:inline;opacity:0.3;">
		<path style="fill:url(#New_Pattern_Swatch_2);" d="M0,0v64h64V0H0z M57,57H7V7h50V57z"/>
	</g>
	<g style="display:inline;">
		<path style="fill:#EA4F37;" d="M57,7v50H7V7H57 M58,6h-1H7H6v1v50v1h1h50h1v-1V7V6L58,6z"/>
	</g>
</g>
<g id="Notes" style="display:none;">
</g>
<g id="vector_references" style="display:none;">
</g>
<g id="PNG_references" style="display:none;">
	
		<image style="display:inline;overflow:visible;" width="64" height="64" xlink:href="../../../ApplicationIcons/Week13/ElectricalAssemblyDesign/PNGoutput/I_WkAsElectricalHarnessInstallation.png"  transform="matrix(0.875 0 0 0.875 4 8)">
	</image>
</g>
<g id="Work" style="display:none;">
	<g style="display:inline;">
		<g>
			<linearGradient id="SVGID_1_" gradientUnits="userSpaceOnUse" x1="10.2079" y1="30.4011" x2="12.574" y2="34.4994">
				<stop  offset="0" style="stop-color:#F5F6F6"/>
				<stop  offset="0.9921" style="stop-color:#D2D3D3"/>
			</linearGradient>
			<path style="fill:url(#SVGID_1_);stroke:#333332;stroke-linecap:round;stroke-linejoin:round;stroke-miterlimit:1;" d="
				M14.55,33.67H8.122c-0.404,0-0.732-0.328-0.732-0.732v-1.167c0-0.404,0.328-0.732,0.732-0.732h6.428
				c0.404,0,0.732,0.328,0.732,0.732v1.167C15.282,33.343,14.954,33.67,14.55,33.67z"/>
			<linearGradient id="SVGID_2_" gradientUnits="userSpaceOnUse" x1="9.7259" y1="27.8983" x2="12.52" y2="32.7378">
				<stop  offset="0" style="stop-color:#F5F6F6"/>
				<stop  offset="0.9921" style="stop-color:#D2D3D3"/>
			</linearGradient>
			<path style="fill:url(#SVGID_2_);stroke:#333332;stroke-linecap:round;stroke-linejoin:round;stroke-miterlimit:1;" d="
				M14.64,31.916H8.032c-0.355,0-0.642-0.287-0.642-0.642l1.112-3.101c0-0.355,0.287-0.642,0.642-0.642h4.385
				c0.355,0,0.642,0.287,0.642,0.642l1.112,3.101C15.282,31.629,14.995,31.916,14.64,31.916z"/>
		</g>
		<g>
			<linearGradient id="SVGID_3_" gradientUnits="userSpaceOnUse" x1="12.8388" y1="25.1393" x2="15.2049" y2="29.2375">
				<stop  offset="0" style="stop-color:#F5F6F6"/>
				<stop  offset="0.9921" style="stop-color:#D2D3D3"/>
			</linearGradient>
			<path style="fill:url(#SVGID_3_);stroke:#333332;stroke-linecap:round;stroke-linejoin:round;stroke-miterlimit:1;" d="
				M17.181,28.409h-6.428c-0.404,0-0.732-0.328-0.732-0.732V26.51c0-0.404,0.328-0.732,0.732-0.732h6.428
				c0.404,0,0.732,0.328,0.732,0.732v1.167C17.913,28.081,17.585,28.409,17.181,28.409z"/>
			<linearGradient id="SVGID_4_" gradientUnits="userSpaceOnUse" x1="12.3568" y1="22.6364" x2="15.1509" y2="27.4759">
				<stop  offset="0" style="stop-color:#F5F6F6"/>
				<stop  offset="0.9921" style="stop-color:#D2D3D3"/>
			</linearGradient>
			<path style="fill:url(#SVGID_4_);stroke:#333332;stroke-linecap:round;stroke-linejoin:round;stroke-miterlimit:1;" d="
				M17.271,26.655h-6.609c-0.355,0-0.642-0.287-0.642-0.642l1.112-3.101c0-0.355,0.287-0.642,0.642-0.642h4.385
				c0.355,0,0.642,0.287,0.642,0.642l1.112,3.101C17.913,26.367,17.626,26.655,17.271,26.655z"/>
		</g>
		<g>
			<linearGradient id="SVGID_5_" gradientUnits="userSpaceOnUse" x1="37.615" y1="12.485" x2="40.0484" y2="16.6996">
				<stop  offset="0" style="stop-color:#ABABAB"/>
				<stop  offset="1" style="stop-color:#5B5B5B"/>
			</linearGradient>
			
				<rect x="35.453" y="13.5" style="fill:url(#SVGID_5_);stroke:#333332;stroke-linecap:round;stroke-linejoin:round;stroke-miterlimit:1;" width="7.016" height="2.631"/>
			<linearGradient id="SVGID_6_" gradientUnits="userSpaceOnUse" x1="37.4562" y1="15.5128" x2="40.8587" y2="21.4061">
				<stop  offset="0" style="stop-color:#F5F6F6"/>
				<stop  offset="0.9921" style="stop-color:#D2D3D3"/>
			</linearGradient>
			<path style="fill:url(#SVGID_6_);stroke:#333332;stroke-linecap:round;stroke-linejoin:round;stroke-miterlimit:1;" d="
				M35.453,15.692v2.631v0.438v1.315c0,0.965,0.789,1.754,1.754,1.754h3.508c0.965,0,1.754-0.789,1.754-1.754v-1.315v-0.438v-2.631
				H35.453z"/>
			<linearGradient id="SVGID_7_" gradientUnits="userSpaceOnUse" x1="36.5792" y1="15.9513" x2="39.9817" y2="21.8446">
				<stop  offset="0" style="stop-color:#F5F6F6"/>
				<stop  offset="0.9921" style="stop-color:#D2D3D3"/>
			</linearGradient>
			<path style="fill:url(#SVGID_7_);stroke:#333332;stroke-linecap:round;stroke-linejoin:round;stroke-miterlimit:1;" d="
				M34.576,16.131v2.631V19.2v1.315c0,0.965,0.789,1.754,1.754,1.754h3.508c0.965,0,1.754-0.789,1.754-1.754V19.2v-0.438v-2.631
				H34.576z"/>
			<linearGradient id="SVGID_8_" gradientUnits="userSpaceOnUse" x1="36.9367" y1="12.829" x2="39.1969" y2="16.7438">
				<stop  offset="0" style="stop-color:#ABABAB"/>
				<stop  offset="1" style="stop-color:#5B5B5B"/>
			</linearGradient>
			<path style="fill:url(#SVGID_8_);stroke:#333332;stroke-linecap:round;stroke-linejoin:round;stroke-miterlimit:1;" d="
				M41.591,16.131h-7.016v-1.506c0-0.621,0.504-1.125,1.125-1.125h5.891V16.131z"/>
		</g>
		<g>
			<linearGradient id="SVGID_9_" gradientUnits="userSpaceOnUse" x1="22.3647" y1="20.2003" x2="26.1694" y2="26.7902">
				<stop  offset="0" style="stop-color:#ABABAB"/>
				<stop  offset="1" style="stop-color:#5B5B5B"/>
			</linearGradient>
			<path style="fill:url(#SVGID_9_);stroke:#333332;stroke-linecap:round;stroke-linejoin:round;stroke-miterlimit:1;" d="
				M28.802,22.974l-0.93-0.93l-0.31-0.31l-1.55-1.55l-0.31-0.31l-6.035,1.519v2.631l3.946,3.946
				c0.682,0.682,2.026,0.647,2.708-0.035l2.48-2.48C29.484,24.773,29.484,23.656,28.802,22.974z"/>
			
				<linearGradient id="SVGID_10_" gradientUnits="userSpaceOnUse" x1="302.2843" y1="-95.0681" x2="305.6868" y2="-89.1748" gradientTransform="matrix(-0.7071 0.7071 0.7071 0.7071 305.9153 -126.7142)">
				<stop  offset="0" style="stop-color:#F5F6F6"/>
				<stop  offset="0.9921" style="stop-color:#D2D3D3"/>
			</linearGradient>
			<path style="fill:url(#SVGID_10_);stroke:#333332;stroke-linecap:round;stroke-linejoin:round;stroke-miterlimit:1;" d="
				M26.488,18.52l1.86,1.86l0.31,0.31l0.93,0.93c0.682,0.682,0.682,1.798,0,2.48l-2.48,2.48c-0.682,0.682-1.798,0.682-2.48,0
				l-0.93-0.93l-0.31-0.31l-1.86-1.86L26.488,18.52z"/>
			
				<linearGradient id="SVGID_11_" gradientUnits="userSpaceOnUse" x1="302.6418" y1="-98.1905" x2="304.902" y2="-94.2756" gradientTransform="matrix(-0.7071 0.7071 0.7071 0.7071 305.9153 -126.7142)">
				<stop  offset="0" style="stop-color:#ABABAB"/>
				<stop  offset="1" style="stop-color:#5B5B5B"/>
			</linearGradient>
			<path style="fill:url(#SVGID_11_);stroke:#333332;stroke-linecap:round;stroke-linejoin:round;stroke-miterlimit:1;" d="
				M21.527,23.481l4.961-4.961l-1.065-1.065c-0.439-0.439-1.152-0.439-1.591,0l-4.165,4.165L21.527,23.481z"/>
		</g>
		<g>
			
				<linearGradient id="SVGID_12_" gradientUnits="userSpaceOnUse" x1="413.4716" y1="37.7897" x2="417.9151" y2="45.4861" gradientTransform="matrix(-1 0 0 -1 458.8971 88.0051)">
				<stop  offset="0" style="stop-color:#ABABAB"/>
				<stop  offset="1" style="stop-color:#5B5B5B"/>
			</linearGradient>
			<path style="fill:url(#SVGID_12_);stroke:#333332;stroke-linecap:round;stroke-linejoin:round;stroke-miterlimit:1;" d="
				M38.612,46.646l4.019,4.093l2.119,0.292l2.631-5.904l-3.946-3.946c-0.682-0.682-2.026-0.647-2.708,0.035l-2.48,2.48
				C37.565,44.378,37.419,45.379,38.612,46.646z"/>
			
				<linearGradient id="SVGID_13_" gradientUnits="userSpaceOnUse" x1="41.078" y1="194.2892" x2="44.4805" y2="200.1825" gradientTransform="matrix(0.7071 -0.7071 -0.7071 -0.7071 152.9818 214.7193)">
				<stop  offset="0" style="stop-color:#F5F6F6"/>
				<stop  offset="0.9921" style="stop-color:#D2D3D3"/>
			</linearGradient>
			<path style="fill:url(#SVGID_13_);stroke:#333332;stroke-linecap:round;stroke-linejoin:round;stroke-miterlimit:1;" d="
				M43.101,49.579l-1.86-1.86l-0.31-0.31l-0.93-0.93c-0.682-0.682-0.682-1.798,0-2.48l2.48-2.48c0.682-0.682,1.798-0.682,2.48,0
				l0.93,0.93l0.31,0.31l1.86,1.86L43.101,49.579z"/>
			
				<linearGradient id="SVGID_14_" gradientUnits="userSpaceOnUse" x1="41.4355" y1="191.1668" x2="43.6957" y2="195.0817" gradientTransform="matrix(0.7071 -0.7071 -0.7071 -0.7071 152.9818 214.7193)">
				<stop  offset="0" style="stop-color:#ABABAB"/>
				<stop  offset="1" style="stop-color:#5B5B5B"/>
			</linearGradient>
			<path style="fill:url(#SVGID_14_);stroke:#333332;stroke-linecap:round;stroke-linejoin:round;stroke-miterlimit:1;" d="
				M48.062,44.618l-4.961,4.961l1.065,1.065c0.439,0.439,1.152,0.439,1.591,0l4.165-4.165L48.062,44.618z"/>
		</g>
		
			<linearGradient id="SVGID_15_" gradientUnits="userSpaceOnUse" x1="11.6918" y1="28.6398" x2="10.7352" y2="28.879" gradientTransform="matrix(0.9984 -0.056 0.056 0.9984 -1.398 9.4534)">
			<stop  offset="0" style="stop-color:#386F8D"/>
			<stop  offset="1" style="stop-color:#8DD7F4"/>
		</linearGradient>
		<path style="fill:url(#SVGID_15_);stroke:#053755;stroke-linecap:round;stroke-linejoin:round;stroke-miterlimit:1;" d="
			M9.144,32.38c0,0-0.045,7.029,2.729,9.509s2.164-0.561,2.164-0.561s-2.336-2.504-2.267-9.096
			C11.77,32.233,10.408,31.431,9.144,32.38z"/>
		<radialGradient id="SVGID_16_" cx="20.3701" cy="31.6734" r="13.3029" gradientUnits="userSpaceOnUse">
			<stop  offset="0.7698" style="stop-color:#8DD7F4"/>
			<stop  offset="0.7942" style="stop-color:#76BBD8"/>
			<stop  offset="0.8249" style="stop-color:#60A0BD"/>
			<stop  offset="0.8581" style="stop-color:#4E8AA8"/>
			<stop  offset="0.8947" style="stop-color:#427B99"/>
			<stop  offset="0.9373" style="stop-color:#3A7290"/>
			<stop  offset="1" style="stop-color:#386F8D"/>
		</radialGradient>
		<path style="fill:url(#SVGID_16_);stroke:#053755;stroke-linecap:round;stroke-linejoin:round;stroke-miterlimit:1;" d="
			M29.752,24.901c0,0,9.647,11.401-4.823,18.855l-1.315-1.754L25.5,39c0,0,6.385-4.923,2-11.5C27.5,27.5,27,25.5,29.752,24.901z"/>
		<radialGradient id="SVGID_17_" cx="21.2654" cy="29.4051" r="20.0122" gradientUnits="userSpaceOnUse">
			<stop  offset="0.7698" style="stop-color:#8DD7F4"/>
			<stop  offset="0.7942" style="stop-color:#76BBD8"/>
			<stop  offset="0.8249" style="stop-color:#60A0BD"/>
			<stop  offset="0.8581" style="stop-color:#4E8AA8"/>
			<stop  offset="0.8947" style="stop-color:#427B99"/>
			<stop  offset="0.9373" style="stop-color:#3A7290"/>
			<stop  offset="1" style="stop-color:#386F8D"/>
		</radialGradient>
		<path style="fill:url(#SVGID_17_);stroke:#053755;stroke-linecap:round;stroke-linejoin:round;stroke-miterlimit:1;" d="
			M36.33,22.27v9.647c0,0,0,7.454-10.962,11.839l2.192,3.508c0,0,4.823-1.754,9.208-6.139l3.069,2.631l2.192-2.192l-3.508-3.069
			c0.877-1.315,1.315-4.823,1.315-4.823h9.208l-0.438-3.508h-8.77V22.27H36.33z"/>
		<rect x="39.399" y="30.601" style="opacity:0.3;fill:#8DE8FD;" width="9.208" height="0.877"/>
		
			<rect x="37.402" y="40.138" transform="matrix(0.7071 0.7071 -0.7071 0.7071 40.1995 -15.8972)" style="opacity:0.3;fill:#8DE8FD;" width="3.774" height="0.877"/>
		<linearGradient id="SVGID_18_" gradientUnits="userSpaceOnUse" x1="15.0748" y1="32.9401" x2="14.1181" y2="33.1792">
			<stop  offset="0" style="stop-color:#386F8D"/>
			<stop  offset="1" style="stop-color:#8DD7F4"/>
		</linearGradient>
		<path style="fill:url(#SVGID_18_);stroke:#053755;stroke-linecap:round;stroke-linejoin:round;stroke-miterlimit:1;" d="
			M12.624,27.781c0,0-0.438,7.016,2.192,9.647c2.631,2.631,2.192-0.438,2.192-0.438s-2.192-2.631-1.754-9.208
			C15.255,27.781,13.939,26.905,12.624,27.781z"/>
		<radialGradient id="SVGID_19_" cx="23.5664" cy="28.7249" r="20.1443" gradientUnits="userSpaceOnUse">
			<stop  offset="0.5445" style="stop-color:#ABABAB"/>
			<stop  offset="0.6466" style="stop-color:#DBDCDB"/>
			<stop  offset="0.8089" style="stop-color:#5B5B5B"/>
			<stop  offset="0.9555" style="stop-color:#454545"/>
		</radialGradient>
		<path style="fill:url(#SVGID_19_);stroke:#333332;stroke-linecap:round;stroke-linejoin:round;stroke-miterlimit:1;" d="
			M16.696,36.234c0,0,0.877,3.946,8.77,2.631c0,0-2.192,5.262,3.508,7.893c0,0-11.473,5.242-17.973-4.258
			C11,42.5,9.68,36.673,16.696,36.234z"/>
		<g>
			<rect x="52.992" y="28.409" style="fill:#828282;stroke:#323232;stroke-miterlimit:10;" width="3.508" height="8.77"/>
			<rect x="52.992" y="27.532" style="fill:#828282;stroke:#323232;stroke-miterlimit:10;" width="3.508" height="8.77"/>
			<rect x="47.292" y="26.216" style="fill:#323232;" width="3.946" height="1.754"/>
			<rect x="47.292" y="35.863" style="fill:#323232;" width="4.823" height="1.754"/>
			<linearGradient id="SVGID_20_" gradientUnits="userSpaceOnUse" x1="49.4645" y1="27.8655" x2="54.932" y2="37.3357">
				<stop  offset="0" style="stop-color:#F5F6F6"/>
				<stop  offset="0.9921" style="stop-color:#D2D3D3"/>
			</linearGradient>
			<polygon style="fill:url(#SVGID_20_);stroke:#333332;stroke-linecap:round;stroke-linejoin:round;stroke-miterlimit:1;" points="
				50.361,25.778 49.484,26.655 49.484,29.286 47.73,29.286 47.73,34.547 49.484,34.547 49.484,37.617 50.361,38.932 53.869,38.932 
				53.869,25.778 			"/>
			<rect x="53.431" y="28.847" style="fill:#666666;" width="2.631" height="1.754"/>
			<rect x="53.431" y="27.97" style="fill:#666666;" width="0.877" height="7.893"/>
			<rect x="53.431" y="33.232" style="fill:#666666;" width="2.631" height="1.754"/>
		</g>
	</g>
</g>
<g id="Final">
	<g>
		<linearGradient id="SVGID_21_" gradientUnits="userSpaceOnUse" x1="10.3286" y1="30.2782" x2="12.6733" y2="34.3393">
			<stop  offset="0" style="stop-color:#F5F6F6"/>
			<stop  offset="0.9921" style="stop-color:#D2D3D3"/>
		</linearGradient>
		
			<path style="fill:url(#SVGID_21_);stroke:#333332;stroke-width:0.9886;stroke-linecap:round;stroke-linejoin:round;stroke-miterlimit:1;" d="
			M14.661,33.5H8.232c-0.404,0-0.732-0.328-0.732-0.732v-1.107c0-0.404,0.328-0.732,0.732-0.732h6.428
			c0.404,0,0.732,0.328,0.732,0.732v1.107C15.393,33.172,15.065,33.5,14.661,33.5z"/>
		<linearGradient id="SVGID_22_" gradientUnits="userSpaceOnUse" x1="9.8527" y1="27.8454" x2="12.6125" y2="32.6255">
			<stop  offset="0" style="stop-color:#F5F6F6"/>
			<stop  offset="0.9921" style="stop-color:#D2D3D3"/>
		</linearGradient>
		
			<path style="fill:url(#SVGID_22_);stroke:#333332;stroke-width:0.9886;stroke-linecap:round;stroke-linejoin:round;stroke-miterlimit:1;" d="
			M14.751,31.786H8.142c-0.355,0-0.642-0.281-0.642-0.628l1.112-3.031c0-0.347,0.287-0.628,0.642-0.628h4.385
			c0.355,0,0.642,0.281,0.642,0.628l1.112,3.031C15.393,31.505,15.105,31.786,14.751,31.786z"/>
	</g>
	<g>
		<linearGradient id="SVGID_23_" gradientUnits="userSpaceOnUse" x1="12.8286" y1="25.2782" x2="15.1733" y2="29.3393">
			<stop  offset="0" style="stop-color:#F5F6F6"/>
			<stop  offset="0.9921" style="stop-color:#D2D3D3"/>
		</linearGradient>
		
			<path style="fill:url(#SVGID_23_);stroke:#333332;stroke-width:0.9886;stroke-linecap:round;stroke-linejoin:round;stroke-miterlimit:1;" d="
			M17.161,28.5h-6.428C10.328,28.5,10,28.172,10,27.768v-1.107c0-0.404,0.328-0.732,0.732-0.732h6.428
			c0.404,0,0.732,0.328,0.732,0.732v1.107C17.893,28.172,17.565,28.5,17.161,28.5z"/>
		<linearGradient id="SVGID_24_" gradientUnits="userSpaceOnUse" x1="12.3527" y1="22.8454" x2="15.1125" y2="27.6255">
			<stop  offset="0" style="stop-color:#F5F6F6"/>
			<stop  offset="0.9921" style="stop-color:#D2D3D3"/>
		</linearGradient>
		
			<path style="fill:url(#SVGID_24_);stroke:#333332;stroke-width:0.9886;stroke-linecap:round;stroke-linejoin:round;stroke-miterlimit:1;" d="
			M17.251,26.786h-6.609c-0.355,0-0.642-0.281-0.642-0.628l1.112-3.031c0-0.347,0.287-0.628,0.642-0.628h4.385
			c0.355,0,0.642,0.281,0.642,0.628l1.112,3.031C17.893,26.505,17.605,26.786,17.251,26.786z"/>
	</g>
	<g>
		<linearGradient id="SVGID_25_" gradientUnits="userSpaceOnUse" x1="37.6011" y1="12.4954" x2="40.0596" y2="16.7536">
			<stop  offset="0" style="stop-color:#ABABAB"/>
			<stop  offset="1" style="stop-color:#5B5B5B"/>
		</linearGradient>
		
			<rect x="35.453" y="13.5" style="fill:url(#SVGID_25_);stroke:#333332;stroke-width:1.013;stroke-linecap:round;stroke-linejoin:round;stroke-miterlimit:1;" width="7.016" height="2.7"/>
		<linearGradient id="SVGID_26_" gradientUnits="userSpaceOnUse" x1="37.4332" y1="15.5997" x2="40.8916" y2="21.5898">
			<stop  offset="0" style="stop-color:#F5F6F6"/>
			<stop  offset="0.9921" style="stop-color:#D2D3D3"/>
		</linearGradient>
		
			<path style="fill:url(#SVGID_26_);stroke:#333332;stroke-width:1.013;stroke-linecap:round;stroke-linejoin:round;stroke-miterlimit:1;" d="
			M35.453,15.75v2.7v0.45v1.35c0,0.99,0.789,1.8,1.754,1.8h3.508c0.965,0,1.754-0.81,1.754-1.8V18.9v-0.45v-2.7H35.453z"/>
		<linearGradient id="SVGID_27_" gradientUnits="userSpaceOnUse" x1="36.5562" y1="16.0497" x2="40.0146" y2="22.0398">
			<stop  offset="0" style="stop-color:#F5F6F6"/>
			<stop  offset="0.9921" style="stop-color:#D2D3D3"/>
		</linearGradient>
		
			<path style="fill:url(#SVGID_27_);stroke:#333332;stroke-width:1.013;stroke-linecap:round;stroke-linejoin:round;stroke-miterlimit:1;" d="
			M34.576,16.2v2.7v0.45v1.35c0,0.99,0.789,1.8,1.754,1.8h3.508c0.965,0,1.754-0.81,1.754-1.8v-1.35V18.9v-2.7H34.576z"/>
		<linearGradient id="SVGID_28_" gradientUnits="userSpaceOnUse" x1="36.9228" y1="12.8394" x2="39.2082" y2="16.7978">
			<stop  offset="0" style="stop-color:#ABABAB"/>
			<stop  offset="1" style="stop-color:#5B5B5B"/>
		</linearGradient>
		
			<path style="fill:url(#SVGID_28_);stroke:#333332;stroke-width:1.013;stroke-linecap:round;stroke-linejoin:round;stroke-miterlimit:1;" d="
			M41.591,16.2h-7.016v-1.575c0-0.621,0.504-1.125,1.125-1.125h5.891V16.2z"/>
	</g>
	<g>
		<linearGradient id="SVGID_29_" gradientUnits="userSpaceOnUse" x1="22.3647" y1="20.2003" x2="26.1694" y2="26.7902">
			<stop  offset="0" style="stop-color:#ABABAB"/>
			<stop  offset="1" style="stop-color:#5B5B5B"/>
		</linearGradient>
		<path style="fill:url(#SVGID_29_);stroke:#333332;stroke-linecap:round;stroke-linejoin:round;stroke-miterlimit:1;" d="
			M28.802,22.974l-0.93-0.93l-0.31-0.31l-1.55-1.55l-0.31-0.31l-6.035,1.519v2.631l3.946,3.946c0.682,0.682,2.026,0.647,2.708-0.035
			l2.48-2.48C29.484,24.773,29.484,23.656,28.802,22.974z"/>
		
			<linearGradient id="SVGID_30_" gradientUnits="userSpaceOnUse" x1="302.2843" y1="-95.0681" x2="305.6868" y2="-89.1748" gradientTransform="matrix(-0.7071 0.7071 0.7071 0.7071 305.9153 -126.7142)">
			<stop  offset="0" style="stop-color:#F5F6F6"/>
			<stop  offset="0.9921" style="stop-color:#D2D3D3"/>
		</linearGradient>
		<path style="fill:url(#SVGID_30_);stroke:#333332;stroke-linecap:round;stroke-linejoin:round;stroke-miterlimit:1;" d="
			M26.488,18.52l1.86,1.86l0.31,0.31l0.93,0.93c0.682,0.682,0.682,1.798,0,2.48l-2.48,2.48c-0.682,0.682-1.798,0.682-2.48,0
			l-0.93-0.93l-0.31-0.31l-1.86-1.86L26.488,18.52z"/>
		
			<linearGradient id="SVGID_31_" gradientUnits="userSpaceOnUse" x1="302.6418" y1="-98.1905" x2="304.902" y2="-94.2756" gradientTransform="matrix(-0.7071 0.7071 0.7071 0.7071 305.9153 -126.7142)">
			<stop  offset="0" style="stop-color:#ABABAB"/>
			<stop  offset="1" style="stop-color:#5B5B5B"/>
		</linearGradient>
		<path style="fill:url(#SVGID_31_);stroke:#333332;stroke-linecap:round;stroke-linejoin:round;stroke-miterlimit:1;" d="
			M21.527,23.481l4.961-4.961l-1.065-1.065c-0.439-0.439-1.152-0.439-1.591,0l-4.165,4.165L21.527,23.481z"/>
	</g>
	<g>
		
			<linearGradient id="SVGID_32_" gradientUnits="userSpaceOnUse" x1="413.4716" y1="37.7897" x2="417.9151" y2="45.4861" gradientTransform="matrix(-1 0 0 -1 458.8971 88.0051)">
			<stop  offset="0" style="stop-color:#ABABAB"/>
			<stop  offset="1" style="stop-color:#5B5B5B"/>
		</linearGradient>
		<path style="fill:url(#SVGID_32_);stroke:#333332;stroke-linecap:round;stroke-linejoin:round;stroke-miterlimit:1;" d="
			M38.612,46.646l4.019,4.093l2.119,0.292l2.631-5.904l-3.946-3.946c-0.682-0.682-2.026-0.647-2.708,0.035l-2.48,2.48
			C37.565,44.378,37.419,45.379,38.612,46.646z"/>
		
			<linearGradient id="SVGID_33_" gradientUnits="userSpaceOnUse" x1="41.078" y1="194.2892" x2="44.4805" y2="200.1825" gradientTransform="matrix(0.7071 -0.7071 -0.7071 -0.7071 152.9818 214.7193)">
			<stop  offset="0" style="stop-color:#F5F6F6"/>
			<stop  offset="0.9921" style="stop-color:#D2D3D3"/>
		</linearGradient>
		<path style="fill:url(#SVGID_33_);stroke:#333332;stroke-linecap:round;stroke-linejoin:round;stroke-miterlimit:1;" d="
			M43.101,49.579l-1.86-1.86l-0.31-0.31l-0.93-0.93c-0.682-0.682-0.682-1.798,0-2.48l2.48-2.48c0.682-0.682,1.798-0.682,2.48,0
			l0.93,0.93l0.31,0.31l1.86,1.86L43.101,49.579z"/>
		
			<linearGradient id="SVGID_34_" gradientUnits="userSpaceOnUse" x1="41.4355" y1="191.1668" x2="43.6957" y2="195.0817" gradientTransform="matrix(0.7071 -0.7071 -0.7071 -0.7071 152.9818 214.7193)">
			<stop  offset="0" style="stop-color:#ABABAB"/>
			<stop  offset="1" style="stop-color:#5B5B5B"/>
		</linearGradient>
		<path style="fill:url(#SVGID_34_);stroke:#333332;stroke-linecap:round;stroke-linejoin:round;stroke-miterlimit:1;" d="
			M48.062,44.618l-4.961,4.961l1.065,1.065c0.439,0.439,1.152,0.439,1.591,0l4.165-4.165L48.062,44.618z"/>
	</g>
	
		<linearGradient id="SVGID_35_" gradientUnits="userSpaceOnUse" x1="11.6918" y1="28.6398" x2="10.7352" y2="28.879" gradientTransform="matrix(0.9984 -0.056 0.056 0.9984 -1.398 9.4534)">
		<stop  offset="0" style="stop-color:#386F8D"/>
		<stop  offset="1" style="stop-color:#8DD7F4"/>
	</linearGradient>
	<path style="fill:url(#SVGID_35_);stroke:#053755;stroke-linecap:round;stroke-linejoin:round;stroke-miterlimit:1;" d="
		M9.144,32.38c0,0-0.045,7.029,2.729,9.509s2.164-0.561,2.164-0.561s-2.336-2.504-2.267-9.096
		C11.77,32.233,10.408,31.431,9.144,32.38z"/>
	<radialGradient id="SVGID_36_" cx="20.5012" cy="31.6734" r="13.0268" gradientUnits="userSpaceOnUse">
		<stop  offset="0.7698" style="stop-color:#8DD7F4"/>
		<stop  offset="0.7942" style="stop-color:#76BBD8"/>
		<stop  offset="0.8249" style="stop-color:#60A0BD"/>
		<stop  offset="0.8581" style="stop-color:#4E8AA8"/>
		<stop  offset="0.8947" style="stop-color:#427B99"/>
		<stop  offset="0.9373" style="stop-color:#3A7290"/>
		<stop  offset="1" style="stop-color:#386F8D"/>
	</radialGradient>
	<path style="fill:url(#SVGID_36_);stroke:#053755;stroke-linecap:round;stroke-linejoin:round;stroke-miterlimit:1;" d="
		M29.752,24.901c0,0,8.748,11.599-4.823,18.855l-1.315-1.754L25,39.5c0,0,8.5-5,2-12C27,27.5,27,25.5,29.752,24.901z"/>
	<radialGradient id="SVGID_37_" cx="21.4288" cy="29.5696" r="19.8517" gradientUnits="userSpaceOnUse">
		<stop  offset="0.7698" style="stop-color:#8DD7F4"/>
		<stop  offset="0.7942" style="stop-color:#76BBD8"/>
		<stop  offset="0.8249" style="stop-color:#60A0BD"/>
		<stop  offset="0.8581" style="stop-color:#4E8AA8"/>
		<stop  offset="0.8947" style="stop-color:#427B99"/>
		<stop  offset="0.9373" style="stop-color:#3A7290"/>
		<stop  offset="1" style="stop-color:#386F8D"/>
	</radialGradient>
	<path style="fill:url(#SVGID_37_);stroke:#053755;stroke-linecap:round;stroke-linejoin:round;stroke-miterlimit:1;" d="M36.5,22.5
		V32c0,0,1,8-11,12l2.06,3.263c0,0,4.823-1.754,9.208-6.139l3.069,2.631l2.192-2.192l-3.508-3.069
		C39.399,37.178,39.5,33.5,39.5,33.5H49v-3l-9.601,0.101L39.5,22.5H36.5z"/>
	<rect x="39.399" y="30.601" style="opacity:0.3;fill:#8DE8FD;" width="9.208" height="0.877"/>
	
		<rect x="37.402" y="40.138" transform="matrix(0.7071 0.7071 -0.7071 0.7071 40.1995 -15.8972)" style="opacity:0.3;fill:#8DE8FD;" width="3.774" height="0.877"/>
	<linearGradient id="SVGID_38_" gradientUnits="userSpaceOnUse" x1="15.0748" y1="32.9401" x2="14.1181" y2="33.1792">
		<stop  offset="0" style="stop-color:#386F8D"/>
		<stop  offset="1" style="stop-color:#8DD7F4"/>
	</linearGradient>
	<path style="fill:url(#SVGID_38_);stroke:#053755;stroke-linecap:round;stroke-linejoin:round;stroke-miterlimit:1;" d="
		M12.624,27.781c0,0-0.438,7.016,2.192,9.647c2.631,2.631,2.192-0.438,2.192-0.438s-2.192-2.631-1.754-9.208
		C15.255,27.781,13.939,26.905,12.624,27.781z"/>
	<radialGradient id="SVGID_39_" cx="23.5664" cy="28.7249" r="20.1443" gradientUnits="userSpaceOnUse">
		<stop  offset="0.5445" style="stop-color:#ABABAB"/>
		<stop  offset="0.6466" style="stop-color:#DBDCDB"/>
		<stop  offset="0.8089" style="stop-color:#5B5B5B"/>
		<stop  offset="0.9555" style="stop-color:#454545"/>
	</radialGradient>
	<path style="fill:url(#SVGID_39_);stroke:#333332;stroke-linecap:round;stroke-linejoin:round;stroke-miterlimit:1;" d="
		M16.696,36.234c0,0,0.877,3.946,8.77,2.631c0,0-2.192,5.262,3.508,7.893c0,0-11.473,5.242-17.973-4.258
		C11,42.5,9.68,36.673,16.696,36.234z"/>
	<g>
		
			<rect x="52.881" y="27.5" style="fill:#828282;stroke:#323232;stroke-width:0.982;stroke-miterlimit:10;" width="3.619" height="9"/>
		<rect x="47" y="26" style="fill:#323232;" width="4.071" height="2"/>
		<rect x="47" y="36" style="fill:#323232;" width="4.976" height="2"/>
		<linearGradient id="SVGID_40_" gradientUnits="userSpaceOnUse" x1="49.1366" y1="27.6385" x2="54.5122" y2="36.9493">
			<stop  offset="0" style="stop-color:#F5F6F6"/>
			<stop  offset="0.9921" style="stop-color:#D2D3D3"/>
		</linearGradient>
		
			<polygon style="fill:url(#SVGID_40_);stroke:#333332;stroke-width:0.9636;stroke-linecap:round;stroke-linejoin:round;stroke-miterlimit:1;" points="
			50.167,25.5 49.5,26.5 49.5,29.5 47.5,29.5 47.5,34.5 49.5,34.5 49.5,37.5 50.167,38.5 53.5,38.5 53.5,25.5 		"/>
		<rect x="53" y="29" style="fill:#666666;" width="3" height="2"/>
		<rect x="53" y="28" style="fill:#666666;" width="1" height="8"/>
		<rect x="53" y="33" style="fill:#666666;" width="3" height="2"/>
	</g>
</g>
</svg>
