<svg id="CATIA___I04_ESE_-_Specification_Engineering" data-name="CATIA _ (I04) ESE - Specification Engineering" xmlns="http://www.w3.org/2000/svg" xmlns:xlink="http://www.w3.org/1999/xlink" viewBox="0 0 64 64"><defs><style>.cls-1{fill:url(#linear-gradient);}.cls-2{fill:#053755;}.cls-3{fill:url(#linear-gradient-2);}.cls-4{fill:#6d6d6d;}.cls-5,.cls-6,.cls-7,.cls-8,.cls-9{stroke:#6d6d6d;stroke-width:0.6px;}.cls-13,.cls-14,.cls-15,.cls-18,.cls-19,.cls-20,.cls-23,.cls-5,.cls-6,.cls-7,.cls-9{stroke-linecap:round;}.cls-11,.cls-12,.cls-13,.cls-14,.cls-15,.cls-16,.cls-17,.cls-18,.cls-19,.cls-20,.cls-23,.cls-5,.cls-6,.cls-7,.cls-8,.cls-9{stroke-linejoin:round;}.cls-5{fill:url(#linear-gradient-3);}.cls-6{fill:url(#linear-gradient-4);}.cls-7{fill:url(#linear-gradient-5);}.cls-8{stroke-linecap:square;fill:url(#linear-gradient-6);}.cls-9{fill:url(#linear-gradient-7);}.cls-10{fill:#2d2d2d;}.cls-11,.cls-12,.cls-13,.cls-14,.cls-15,.cls-16,.cls-17,.cls-18,.cls-19,.cls-20,.cls-23{fill:none;}.cls-11,.cls-12,.cls-13,.cls-14,.cls-15,.cls-16,.cls-17,.cls-18,.cls-19,.cls-20{stroke-width:0.7px;}.cls-11{stroke:url(#linear-gradient-8);}.cls-12{stroke:url(#linear-gradient-9);}.cls-13{stroke:url(#linear-gradient-10);}.cls-14{stroke:url(#linear-gradient-11);}.cls-15{stroke:url(#linear-gradient-12);}.cls-16{stroke:url(#linear-gradient-13);}.cls-17{stroke:url(#linear-gradient-14);}.cls-18{stroke:url(#linear-gradient-15);}.cls-19{stroke:url(#linear-gradient-16);}.cls-20{stroke:url(#linear-gradient-17);}.cls-21{fill:url(#linear-gradient-18);}.cls-22{fill:url(#linear-gradient-19);}.cls-23{stroke:#053755;stroke-width:0.8px;}.cls-24{fill:url(#linear-gradient-20);}</style><linearGradient id="linear-gradient" x1="52.77" y1="19.67" x2="55.2" y2="19.74" gradientTransform="translate(1.23 0.69) rotate(6.39)" gradientUnits="userSpaceOnUse"><stop offset="0.51" stop-color="#386f8d"/><stop offset="1" stop-color="#8dd7f4"/></linearGradient><linearGradient id="linear-gradient-2" x1="6.75" y1="36.43" x2="56.95" y2="36.43" gradientUnits="userSpaceOnUse"><stop offset="0" stop-color="#8c8c8c"/><stop offset="1" stop-color="#b8b8b8"/></linearGradient><linearGradient id="linear-gradient-3" x1="25.63" y1="53.34" x2="93.69" y2="-5.99" gradientUnits="userSpaceOnUse"><stop offset="0" stop-color="#bababa"/><stop offset="1" stop-color="#fff"/></linearGradient><linearGradient id="linear-gradient-4" x1="22.29" y1="47.13" x2="87.85" y2="-10.01" xlink:href="#linear-gradient-3"/><linearGradient id="linear-gradient-5" x1="-39.91" y1="93.99" x2="51.38" y2="19.82" gradientUnits="userSpaceOnUse"><stop offset="0" stop-color="#a1a1a1"/><stop offset="1" stop-color="#fff"/></linearGradient><linearGradient id="linear-gradient-6" x1="-41.33" y1="87.01" x2="47.28" y2="15.01" xlink:href="#linear-gradient-5"/><linearGradient id="linear-gradient-7" x1="26.54" y1="29.38" x2="-24.47" y2="64.3" gradientUnits="userSpaceOnUse"><stop offset="0" stop-color="#c9c9c9"/><stop offset="1" stop-color="#fff"/></linearGradient><linearGradient id="linear-gradient-8" x1="22.72" y1="38.32" x2="17.67" y2="29.57" gradientTransform="translate(-1 0.72) rotate(-1.96)" gradientUnits="userSpaceOnUse"><stop offset="0" stop-color="#2a5b79"/><stop offset="1" stop-color="#3388b0"/></linearGradient><linearGradient id="linear-gradient-9" x1="28.06" y1="35.22" x2="23.41" y2="27.17" gradientTransform="matrix(1.12, -0.1, 0.09, 1.07, -5.4, 0.66)" xlink:href="#linear-gradient-8"/><linearGradient id="linear-gradient-10" x1="26.13" y1="37.73" x2="23.26" y2="32.76" gradientTransform="translate(-1.55 1.26) rotate(-3.04)" xlink:href="#linear-gradient-8"/><linearGradient id="linear-gradient-11" x1="24.24" y1="35.35" x2="21.25" y2="30.17" gradientTransform="translate(-1.55 1.26) rotate(-3.04)" xlink:href="#linear-gradient-8"/><linearGradient id="linear-gradient-12" x1="27.62" y1="40.41" x2="19.93" y2="27.09" gradientTransform="matrix(1, 0, 0, 1, 0, 0)" xlink:href="#linear-gradient-8"/><linearGradient id="linear-gradient-13" x1="15.05" y1="39.48" x2="10.69" y2="31.92" gradientTransform="matrix(-0.38, 0.45, 1.24, 0.71, 0.93, -4.12)" xlink:href="#linear-gradient-8"/><linearGradient id="linear-gradient-14" x1="21.28" y1="35.85" x2="17.07" y2="28.56" gradientTransform="matrix(-0.5, 0.47, 1.31, 0.79, 2.32, -6.26)" xlink:href="#linear-gradient-8"/><linearGradient id="linear-gradient-15" x1="19.56" y1="39.43" x2="16.51" y2="34.14" gradientTransform="matrix(-0.4, 0.44, 1.23, 0.72, 1.79, -4)" xlink:href="#linear-gradient-8"/><linearGradient id="linear-gradient-16" x1="18.43" y1="37.13" x2="15.36" y2="31.81" gradientTransform="matrix(-0.4, 0.44, 1.23, 0.72, 1.79, -4)" xlink:href="#linear-gradient-8"/><linearGradient id="linear-gradient-17" x1="21.11" y1="42.12" x2="14.06" y2="29.92" gradientTransform="matrix(-0.33, 0.48, 1.25, 0.69, -0.3, -4.13)" xlink:href="#linear-gradient-8"/><linearGradient id="linear-gradient-18" x1="25.68" y1="33.5" x2="16.86" y2="30.13" gradientTransform="matrix(2.61, 0.28, -0.15, 1.37, -9.88, -29.05)" gradientUnits="userSpaceOnUse"><stop offset="0.06" stop-color="#0e4b6b"/><stop offset="0.42" stop-color="#386f8d"/><stop offset="0.45" stop-color="#3f7795"/><stop offset="0.62" stop-color="#60a0be"/><stop offset="0.77" stop-color="#79bedc"/><stop offset="0.91" stop-color="#88d0ee"/><stop offset="1" stop-color="#8dd7f4"/></linearGradient><linearGradient id="linear-gradient-19" x1="42.96" y1="19.19" x2="38.7" y2="11.8" gradientTransform="translate(13.96 -17.02) rotate(28.77)" gradientUnits="userSpaceOnUse"><stop offset="0" stop-color="#74c4e2"/><stop offset="1" stop-color="#a4def6"/></linearGradient><linearGradient id="linear-gradient-20" x1="39.88" y1="15.22" x2="38.74" y2="13.25" gradientTransform="matrix(0.88, 0.48, -0.88, 0.66, 20, -13.61)" xlink:href="#linear-gradient-19"/></defs><title>CATIA _ (I04) ESE - Specification Engineering</title><path class="cls-1" d="M51.08,30a.22.22,0,0,1-.13,0,.25.25,0,0,1-.1-.32l.63-1.34-.95.76a.3.3,0,0,1-.16,0A.27.27,0,0,1,50.2,29a.26.26,0,0,1,0-.33l1-1.5a6.18,6.18,0,0,0,.63-3.6A1.25,1.25,0,0,1,53,22.41h.14a1.21,1.21,0,0,1,.84.46,1.23,1.23,0,0,1,.27.92,12.82,12.82,0,0,1-.51,3c-.26.68-.74,2.31-.74,2.33a.25.25,0,0,1-.24.18h-.05a.24.24,0,0,1-.2-.27l.09-.78-1.34,1.59A.25.25,0,0,1,51.08,30Z"/><path class="cls-2" d="M53,22.66h.11A1,1,0,0,1,54,23.78a13,13,0,0,1-.49,3c-.27.7-.75,2.35-.75,2.35L53,27.5l-1.87,2.22,1.07-2.31-1.78,1.42,1-1.51A6.36,6.36,0,0,0,52,23.55a1,1,0,0,1,1-.89m0-.5a1.49,1.49,0,0,0-1.49,1.34.24.24,0,0,0,0,.12,6,6,0,0,1-.59,3.43l-1,1.51a.49.49,0,0,0,.09.64.46.46,0,0,0,.33.13.51.51,0,0,0,.31-.11l.13-.1-.18.39a.49.49,0,0,0,.18.63.56.56,0,0,0,.27.08.48.48,0,0,0,.38-.18l.81-1a.5.5,0,0,0,.4.51h.1a.49.49,0,0,0,.48-.36s.48-1.64.73-2.31a12.87,12.87,0,0,0,.53-3.13,1.5,1.5,0,0,0-.32-1.08,1.49,1.49,0,0,0-1-.55Z"/><path class="cls-3" d="M17,48.63a.26.26,0,0,1-.21-.11L6.79,33.6a.26.26,0,0,1,0-.23.22.22,0,0,1,.17-.15l34.75-9h.06a.24.24,0,0,1,.14.05l13.86,9.56,1.1.84a.26.26,0,0,1,.1.24.25.25,0,0,1-.17.2L17.1,48.62Z"/><path class="cls-4" d="M41.75,24.48,55.6,34.05l1.1.83L17,48.38,7,33.46l34.75-9m0-.5-.12,0L6.87,33a.51.51,0,0,0-.34.3.54.54,0,0,0,0,.46l10,14.92a.49.49,0,0,0,.41.22.44.44,0,0,0,.16,0L56.86,35.35a.49.49,0,0,0,.14-.87l-1.09-.83L42,24.07a.52.52,0,0,0-.29-.09Z"/><polygon class="cls-5" points="35.71 37.24 39.05 39.87 55.93 34.24 55.93 31.74 42.29 31.74 35.71 37.24"/><polygon class="cls-6" points="17.26 44.3 29.5 33.5 38.69 38.46 39.05 39.87 17.28 47.16 17.26 44.3"/><path class="cls-7" d="M26.38,26.24,38.69,38.46s.36-3.92,4.08-4.54c2.49-.41,13.16-2.23,13.16-2.23L41.94,22s-8.83-.38-12.6.64A4.25,4.25,0,0,0,26.38,26.24Z"/><path class="cls-8" d="M7.62,30.89s11.31-4.61,14.18-5.06a7.15,7.15,0,0,1,4.76.8s5.92,5.42,7.75,7.37c2.47,2.63,4.19,4.5,4.19,4.5s-3.09-1.73-6-1c-4,1-15.24,6.8-15.24,6.8Z"/><polygon class="cls-9" points="7.62 30.89 17.26 44.3 17.26 47.18 7.62 33.76 7.62 30.89"/><path class="cls-10" d="M36.18,22.22c3,0,5.76.18,5.76.18L56,32.19l0,1.13.06,1.28L57,35,17,48.82,7,33.9l.62-.16V31.33S19,26.6,21.67,26.12A8.25,8.25,0,0,1,23.1,26a6.68,6.68,0,0,1,3.52.92l.21-.57s-.36-2.29,2.51-3.44c1.34-.54,4.19-.68,6.84-.68m0-.6c-3.49,0-5.86.24-7.06.72A4.14,4.14,0,0,0,26.21,26a7.84,7.84,0,0,0-3.11-.63,8.09,8.09,0,0,0-1.54.14c-2.66.49-13.7,5-14.17,5.24a.59.59,0,0,0-.37.56v1.94l-.17,0a.59.59,0,0,0-.41.37.58.58,0,0,0,.06.54l10,14.93a.61.61,0,0,0,.5.26.69.69,0,0,0,.2,0l40-13.8a.59.59,0,0,0,.4-.54.6.6,0,0,0-.35-.57l-.6-.28,0-.91,0-1.08a.62.62,0,0,0-.26-.51l-14.1-9.79a.64.64,0,0,0-.3-.11s-2.81-.18-5.8-.18Z"/><line class="cls-11" x1="23.48" y1="37.9" x2="17.2" y2="30.01"/><line class="cls-12" x1="29.92" y1="35.28" x2="22.88" y2="27.92"/><path class="cls-13" d="M16.93,37.38s8-3.78,10.86-4.65a6.89,6.89,0,0,1,5.24.19"/><path class="cls-14" d="M14.8,34.89s8-3.86,10.9-4.57a8.18,8.18,0,0,1,5.3.33"/><path class="cls-15" d="M35.39,35.52s-2.1-1.76-6.56,0c-2.69,1.06-10.19,4.81-10.19,4.81L12.15,32s8.15-3.69,11.09-4.07a12.2,12.2,0,0,1,5.22.47"/><line class="cls-16" x1="44.39" y1="30.66" x2="36.22" y2="23.38"/><line class="cls-17" x1="38.99" y1="31.92" x2="31" y2="24.26"/><path class="cls-18" d="M46.7,27.82s-9.45.22-11.49,1.9a6.54,6.54,0,0,0-2.15,3.09"/><path class="cls-19" d="M44,25.68s-9.14-.11-11.25,1.69A4.81,4.81,0,0,0,31,30.65"/><path class="cls-20" d="M35.81,35.51a5.63,5.63,0,0,1,3.69-4c2.27-.82,10.55-1.2,10.55-1.2L40.89,23s-9.2.53-11,1.68-1.48,3.48-1.48,3.48"/><path class="cls-21" d="M46.87,25.73c-.73,0-1.51,0-2.2-.07-.51,0-1-.05-1.27-.05H43a16.64,16.64,0,0,1-4.42-.82l-1-.27-.14,0c-1.34-.34-3.57-.92-4.24-2.11a3.72,3.72,0,0,1,0-2.67,2.89,2.89,0,0,1,1.24-1.8,12.71,12.71,0,0,1,5.25-.79,70.33,70.33,0,0,1,9.73.88.34.34,0,0,1,.28.29c.17,1,.95,6-.38,7A4.28,4.28,0,0,1,46.87,25.73Z"/><path class="cls-2" d="M39.66,17.46a69.86,69.86,0,0,1,9.67.87s1,5.72-.26,6.71a4.4,4.4,0,0,1-2.2.34c-1.27,0-2.73-.12-3.47-.12H43a22.41,22.41,0,0,1-5.34-1.08c-1.22-.32-3.55-.88-4.16-2s0-3.48,1-4a12.79,12.79,0,0,1,5.09-.75m0-.7h0a12.72,12.72,0,0,0-5.41.83,3.29,3.29,0,0,0-1.41,2,4,4,0,0,0,.07,2.94c.68,1.22,2.57,1.79,4.45,2.28l.14,0,1,.27A17.15,17.15,0,0,0,43,26h.38c.3,0,.75,0,1.26.05.69,0,1.47.07,2.21.07a4.42,4.42,0,0,0,2.64-.5c1.4-1.12.82-5.52.51-7.36a.7.7,0,0,0-.57-.58,70.78,70.78,0,0,0-9.79-.88Z"/><path class="cls-22" d="M46.93,20.82,28.75,16.54a.34.34,0,0,1-.27-.29.35.35,0,0,1,.18-.36l9.59-5a.35.35,0,0,1,.17,0h.07l17.31,3.8a.35.35,0,0,1,.27.28.37.37,0,0,1-.16.36L47.2,20.78a.41.41,0,0,1-.19,0Z"/><path class="cls-2" d="M38.42,11.2,55.72,15,47,20.48,28.83,16.2l9.59-5m0-.7a.73.73,0,0,0-.33.08l-9.59,5a.7.7,0,0,0-.37.71.69.69,0,0,0,.54.59l18.18,4.28a.44.44,0,0,0,.16,0,.69.69,0,0,0,.37-.1l8.72-5.49a.69.69,0,0,0,.31-.71.68.68,0,0,0-.54-.56l-17.3-3.8-.15,0Z"/><polyline class="cls-23" points="41.88 14.24 51.88 17.8 53.34 22.02"/><path class="cls-24" d="M42.18,15.54A2.55,2.55,0,0,1,41,15.26a1.07,1.07,0,0,1-.63-.86.94.94,0,0,1,.5-.81,2.31,2.31,0,0,1,1.19-.3,2.55,2.55,0,0,1,1.19.28,1.07,1.07,0,0,1,.63.86.91.91,0,0,1-.5.81A2.31,2.31,0,0,1,42.18,15.54Z"/><path class="cls-2" d="M42.05,13.54a2.37,2.37,0,0,1,1.07.25c.62.34.68.89.12,1.24a2.08,2.08,0,0,1-1.06.26A2.25,2.25,0,0,1,41.11,15c-.62-.34-.67-.89-.12-1.23a2,2,0,0,1,1.06-.27m0-.5h0a2.51,2.51,0,0,0-1.32.34,1.18,1.18,0,0,0-.62,1,1.31,1.31,0,0,0,.76,1.07,2.81,2.81,0,0,0,1.31.31,2.55,2.55,0,0,0,1.33-.34,1.16,1.16,0,0,0,.61-1,1.31,1.31,0,0,0-.76-1.08A2.81,2.81,0,0,0,42.05,13Z"/></svg>