<svg id="CATIA___Electrical_Electronics_Architecture" data-name="CATIA _ Electrical Electronics Architecture" xmlns="http://www.w3.org/2000/svg" xmlns:xlink="http://www.w3.org/1999/xlink" viewBox="0 0 64 64"><defs><style>.cls-1,.cls-15,.cls-18,.cls-19,.cls-2,.cls-20,.cls-3,.cls-4,.cls-5,.cls-6,.cls-7,.cls-8{stroke-linecap:round;stroke-linejoin:round;}.cls-1{fill:url(#linear-gradient);stroke:url(#linear-gradient-2);}.cls-2{fill:url(#linear-gradient-3);stroke:url(#linear-gradient-4);}.cls-3,.cls-4,.cls-5,.cls-6{fill:none;stroke-width:1.2px;}.cls-3{stroke:url(#linear-gradient-5);}.cls-4{stroke:url(#linear-gradient-6);}.cls-5{stroke:url(#linear-gradient-7);}.cls-6{stroke:url(#linear-gradient-8);}.cls-15,.cls-7,.cls-8{opacity:0.4;}.cls-7{fill:url(#linear-gradient-9);stroke:url(#linear-gradient-10);}.cls-8{fill:url(#linear-gradient-11);stroke:url(#linear-gradient-12);}.cls-9{fill:url(#linear-gradient-13);}.cls-10{fill:url(#linear-gradient-14);}.cls-11{fill:url(#linear-gradient-15);}.cls-12{fill:url(#linear-gradient-16);}.cls-13{fill:url(#linear-gradient-17);}.cls-14{fill:url(#linear-gradient-18);}.cls-15{fill:url(#linear-gradient-19);stroke:url(#linear-gradient-20);}.cls-16{fill:url(#linear-gradient-21);}.cls-17{fill:url(#linear-gradient-22);}.cls-18{fill:url(#linear-gradient-23);stroke:url(#linear-gradient-24);}.cls-19{fill:url(#linear-gradient-25);stroke:url(#linear-gradient-26);}.cls-20{fill:url(#linear-gradient-27);stroke:url(#linear-gradient-28);}</style><linearGradient id="linear-gradient" x1="5.56" y1="19.49" x2="19.42" y2="43.51" gradientUnits="userSpaceOnUse"><stop offset="0" stop-color="#fff"/><stop offset="1" stop-color="#e0e1e2"/></linearGradient><linearGradient id="linear-gradient-2" x1="19.67" y1="43.94" x2="5.31" y2="19.06" gradientUnits="userSpaceOnUse"><stop offset="0" stop-color="#161616"/><stop offset="1" stop-color="#474747"/></linearGradient><linearGradient id="linear-gradient-3" x1="29.43" y1="11.68" x2="35.76" y2="47.58" gradientUnits="userSpaceOnUse"><stop offset="0.28" stop-color="#fff"/><stop offset="0.83" stop-color="#dcddde"/></linearGradient><linearGradient id="linear-gradient-4" x1="43.68" y1="50.44" x2="20.26" y2="9.87" xlink:href="#linear-gradient-2"/><linearGradient id="linear-gradient-5" x1="44.1" y1="22.5" x2="22.9" y2="22.5" gradientTransform="matrix(1.02, -0.09, 0, -1, -0.55, 61.52)" gradientUnits="userSpaceOnUse"><stop offset="0" stop-color="#3979a1"/><stop offset="1" stop-color="#3faadb"/></linearGradient><linearGradient id="linear-gradient-6" x1="44.1" y1="25.5" x2="22.9" y2="25.5" xlink:href="#linear-gradient-5"/><linearGradient id="linear-gradient-7" x1="44.1" y1="26.5" x2="22.9" y2="26.5" gradientTransform="matrix(1, 0.02, 0, 1, 0.06, -0.65)" xlink:href="#linear-gradient-5"/><linearGradient id="linear-gradient-8" x1="44.1" y1="23.5" x2="22.9" y2="23.5" gradientTransform="matrix(1, 0.02, 0, 1, 0.06, -0.65)" xlink:href="#linear-gradient-5"/><linearGradient id="linear-gradient-9" x1="20.74" y1="25.11" x2="27.24" y2="36.36" xlink:href="#linear-gradient"/><linearGradient id="linear-gradient-10" x1="27.49" y1="36.79" x2="20.49" y2="24.67" xlink:href="#linear-gradient-2"/><linearGradient id="linear-gradient-11" x1="41.15" y1="20.29" x2="44.84" y2="26.69" xlink:href="#linear-gradient"/><linearGradient id="linear-gradient-12" x1="45.09" y1="27.12" x2="40.9" y2="19.86" xlink:href="#linear-gradient-2"/><linearGradient id="linear-gradient-13" x1="24.93" y1="35.44" x2="24.07" y2="33.96" xlink:href="#linear-gradient-2"/><linearGradient id="linear-gradient-14" x1="24.93" y1="32.44" x2="24.07" y2="30.96" xlink:href="#linear-gradient-2"/><linearGradient id="linear-gradient-15" x1="24.93" y1="29.04" x2="24.07" y2="27.56" xlink:href="#linear-gradient-2"/><linearGradient id="linear-gradient-16" x1="24.93" y1="26.04" x2="24.07" y2="24.56" xlink:href="#linear-gradient-2"/><linearGradient id="linear-gradient-17" x1="42.93" y1="25.44" x2="42.07" y2="23.96" xlink:href="#linear-gradient-2"/><linearGradient id="linear-gradient-18" x1="42.93" y1="22.44" x2="42.07" y2="20.96" xlink:href="#linear-gradient-2"/><linearGradient id="linear-gradient-19" x1="41.15" y1="32.29" x2="44.84" y2="38.69" xlink:href="#linear-gradient"/><linearGradient id="linear-gradient-20" x1="45.09" y1="39.12" x2="40.9" y2="31.86" xlink:href="#linear-gradient-2"/><linearGradient id="linear-gradient-21" x1="42.93" y1="38.04" x2="42.07" y2="36.56" xlink:href="#linear-gradient-2"/><linearGradient id="linear-gradient-22" x1="42.93" y1="35.04" x2="42.07" y2="33.56" xlink:href="#linear-gradient-2"/><linearGradient id="linear-gradient-23" x1="17.13" y1="24.29" x2="24.67" y2="37.36" xlink:href="#linear-gradient"/><linearGradient id="linear-gradient-24" x1="24.92" y1="37.79" x2="16.88" y2="23.86" xlink:href="#linear-gradient-2"/><linearGradient id="linear-gradient-25" x1="43.27" y1="19.63" x2="47.73" y2="27.37" xlink:href="#linear-gradient"/><linearGradient id="linear-gradient-26" x1="47.98" y1="27.8" x2="43.02" y2="19.2" xlink:href="#linear-gradient-2"/><linearGradient id="linear-gradient-27" x1="43.27" y1="31.63" x2="47.73" y2="39.37" xlink:href="#linear-gradient"/><linearGradient id="linear-gradient-28" x1="47.98" y1="39.8" x2="43.02" y2="31.2" xlink:href="#linear-gradient-2"/></defs><title>CATIA _ Electrical Electronics Architecture</title><path class="cls-1" d="M12.48,15.5s0,.39,0,.86V44.55c0,.43,0,2.9,0,3l-1-2a4.33,4.33,0,0,1,0-.85V16.5C11.5,16,12.48,15.5,12.48,15.5Z"/><path class="cls-2" d="M13.5,14.5h39a1,1,0,0,1,1,1V43.61a1,1,0,0,1-.88,1l-39,4.75a1,1,0,0,1-1.12-1V15.5A1,1,0,0,1,13.5,14.5Z"/><polyline class="cls-3" points="23.42 34.92 32.59 34.11 32.59 38.11 43.81 37.13"/><polyline class="cls-4" points="23.42 31.92 34.63 30.93 34.63 34.93 43.81 34.13"/><polyline class="cls-5" points="23.46 28.29 34.41 28.5 34.41 24.5 43.38 24.67"/><polyline class="cls-6" points="23.46 25.29 32.42 25.46 32.42 21.46 43.38 21.67"/><path class="cls-7" d="M23.52,23.5h1a2.35,2.35,0,0,1,0,.42V37.54a2.57,2.57,0,0,1,0,.41l-.95,0s0-.17,0-.42V23.92A2.35,2.35,0,0,1,23.52,23.5Z"/><path class="cls-8" d="M42.52,19.5h1a.7.7,0,0,1,0,.23v7.52a.76.76,0,0,1,0,.22l-.95,0s0-.09,0-.23V19.73A.7.7,0,0,1,42.52,19.5Z"/><rect class="cls-9" x="24" y="34" width="1" height="1.4"/><rect class="cls-10" x="24" y="31" width="1" height="1.4"/><rect class="cls-11" x="24" y="27.6" width="1" height="1.4"/><rect class="cls-12" x="24" y="24.6" width="1" height="1.4"/><rect class="cls-13" x="42" y="24" width="1" height="1.4"/><rect class="cls-14" x="42" y="21" width="1" height="1.4"/><path class="cls-15" d="M42.52,31.5h1a.7.7,0,0,1,0,.23v7.52a.76.76,0,0,1,0,.22l-.95,0s0-.09,0-.23V31.73A.7.7,0,0,1,42.52,31.5Z"/><rect class="cls-16" x="42" y="36.6" width="1" height="1.4"/><rect class="cls-17" x="42" y="33.6" width="1" height="1.4"/><polygon class="cls-18" points="18.5 23.5 23.5 23.5 23.5 38.03 18.5 38.5 18.5 23.5"/><rect class="cls-19" x="43.5" y="19.5" width="4" height="8"/><rect class="cls-20" x="43.5" y="31.5" width="4" height="8"/></svg>