<svg id="CATIA_socle_copy_2" data-name="CATIA   socle copy 2" xmlns="http://www.w3.org/2000/svg" xmlns:xlink="http://www.w3.org/1999/xlink" viewBox="0 0 64 64"><defs><style>.cls-1,.cls-3,.cls-4{fill:none;}.cls-2{fill:url(#linear-gradient);}.cls-3{stroke:#003755;}.cls-3,.cls-4{stroke-linecap:round;stroke-linejoin:round;}.cls-4{stroke:#3287af;stroke-width:2px;}.cls-5{fill:#2d2d2d;}.cls-6{fill:#f1f0f0;}.cls-7{fill:#003755;}.cls-8{clip-path:url(#clip-path);}.cls-9{fill:#fff;}.cls-10{clip-path:url(#clip-path-2);}.cls-11{fill:url(#linear-gradient-2);}.cls-12{fill:url(#linear-gradient-3);}.cls-13{fill:#00415f;}.cls-14{fill:url(#linear-gradient-4);}</style><linearGradient id="linear-gradient" x1="4.82" y1="41.29" x2="54.77" y2="41.29" gradientTransform="translate(-2.96 -2.42) rotate(-7.35)" gradientUnits="userSpaceOnUse"><stop offset="0" stop-color="#f5f5f5"/><stop offset="0.12" stop-color="#e8f1f6"/><stop offset="0.49" stop-color="#c6e5f8"/><stop offset="0.8" stop-color="#b2dff9"/><stop offset="1" stop-color="#aadcfa"/></linearGradient><clipPath id="clip-path"><rect id="cadre_ok_" data-name="cadre ok **" class="cls-1" x="39" y="39" width="15" height="17"/></clipPath><clipPath id="clip-path-2"><polygon class="cls-1" points="46 18.78 47 11 58.98 11 58.98 30 42 30 42 22 46 18.78"/></clipPath><linearGradient id="linear-gradient-2" x1="39.52" y1="12" x2="45.41" y2="16.75" gradientUnits="userSpaceOnUse"><stop offset="0" stop-color="#fff"/><stop offset="1" stop-color="#bbbdbf"/></linearGradient><linearGradient id="linear-gradient-3" x1="40.08" y1="10.49" x2="43.92" y2="17.51" gradientUnits="userSpaceOnUse"><stop offset="0" stop-color="#92d5ee"/><stop offset="1" stop-color="#6f9cae"/></linearGradient><linearGradient id="linear-gradient-4" x1="42.05" y1="11.87" x2="45.78" y2="14.87" gradientUnits="userSpaceOnUse"><stop offset="0" stop-color="#92d5ee"/><stop offset="0.15" stop-color="#8ccfe8"/><stop offset="0.34" stop-color="#7cbed7"/><stop offset="0.57" stop-color="#60a3bb"/><stop offset="0.81" stop-color="#3b7c95"/><stop offset="1" stop-color="#185971"/></linearGradient></defs><title>3425__A33AAe__R21XArtboard 1</title><g id="_1X_64_px_copy_2" data-name="1X  64 px copy 2"><g id="Face_Avant_" data-name="Face Avant   ***"><polygon class="cls-2" points="15 57 58.5 46 50.25 12.25 5.08 22.22 15 57"/><polygon class="cls-3" points="15.44 56.45 58.5 46 50.25 12.25 5.08 22.22 15.44 56.45"/></g><g id="LINK_copy_2" data-name="LINK copy 2"><g id="LINKS_copy_9" data-name="LINKS   *** copy 9"><polyline class="cls-4" points="24 39 31 39 31 46 46 46"/><polyline class="cls-4" points="46.06 23 33 23 33 29 23 29"/></g><g id="connect_01_G_copy_8" data-name="connect 01 *G* copy 8"><circle class="cls-5" cx="24" cy="39" r="3"/><circle class="cls-5" cx="24" cy="29" r="3"/></g><g id="connect_01_D_copy_8" data-name="connect 01 *D* copy 8"><circle cx="38" cy="46" r="3"/><circle cx="42" cy="23" r="3"/></g></g><g id="C03_ok_copy_2" data-name="C03   *** ok copy 2"><g id="cadre_ok_2" data-name="cadre ok **"><rect class="cls-6" x="38.5" y="38.5" width="16" height="18" rx="0.5"/><path class="cls-5" d="M54,39V56H39V39H54m0-1H39a1,1,0,0,0-1,1V56a1,1,0,0,0,1,1H54a1,1,0,0,0,1-1V39a1,1,0,0,0-1-1Z"/></g><g id="b_c01_copy_2" data-name="b c01  **** copy 2"><g id="_0001010111_copy_19" data-name="0001010111 copy 19"><path id="_1_" data-name="1 ***" class="cls-7" d="M52,54H51V50.44L50,51V50l1.36-1H52Z"/><path class="cls-7" d="M45,51.49a4.73,4.73,0,0,1,.17-1.39,1.72,1.72,0,0,1,.49-.81,1.23,1.23,0,0,1,.83-.29,1.25,1.25,0,0,1,.65.16,1.24,1.24,0,0,1,.46.45,2.59,2.59,0,0,1,.28.73A4.86,4.86,0,0,1,48,51.48a4.73,4.73,0,0,1-.17,1.39,1.8,1.8,0,0,1-.49.82,1.23,1.23,0,0,1-.83.28,1.2,1.2,0,0,1-1-.5A3.32,3.32,0,0,1,45,51.49Zm.58,0a3.28,3.28,0,0,0,.26,1.6.74.74,0,0,0,1.31,0,3.31,3.31,0,0,0,.26-1.6,3.14,3.14,0,0,0-.27-1.59.76.76,0,0,0-.65-.39.69.69,0,0,0-.62.35A3.11,3.11,0,0,0,45.58,51.48Z"/><path class="cls-7" d="M41,51.49a4.73,4.73,0,0,1,.17-1.39,1.72,1.72,0,0,1,.49-.81A1.23,1.23,0,0,1,42.5,49a1.25,1.25,0,0,1,.65.16,1.24,1.24,0,0,1,.46.45,2.59,2.59,0,0,1,.28.73A4.86,4.86,0,0,1,44,51.48a4.73,4.73,0,0,1-.17,1.39,1.8,1.8,0,0,1-.49.82,1.23,1.23,0,0,1-.83.28,1.2,1.2,0,0,1-1-.5A3.32,3.32,0,0,1,41,51.49Zm.58,0a3.28,3.28,0,0,0,.26,1.6.74.74,0,0,0,1.31,0,3.31,3.31,0,0,0,.26-1.6,3.14,3.14,0,0,0-.27-1.59.76.76,0,0,0-.65-.39.69.69,0,0,0-.62.35A3.11,3.11,0,0,0,41.59,51.48Z"/><path class="cls-7" d="M49,45.48a4.78,4.78,0,0,1,.17-1.39,1.72,1.72,0,0,1,.49-.81,1.23,1.23,0,0,1,.83-.28,1.25,1.25,0,0,1,.65.15,1.24,1.24,0,0,1,.46.45,2.59,2.59,0,0,1,.28.73A5,5,0,0,1,52,45.48a4.73,4.73,0,0,1-.17,1.39,1.8,1.8,0,0,1-.49.82,1.23,1.23,0,0,1-.83.29,1.21,1.21,0,0,1-1-.51A3.34,3.34,0,0,1,49,45.48Zm.58,0a3.28,3.28,0,0,0,.26,1.6.74.74,0,0,0,1.31,0,3.31,3.31,0,0,0,.26-1.6,3.19,3.19,0,0,0-.27-1.6.76.76,0,0,0-.65-.39.69.69,0,0,0-.62.35A3.15,3.15,0,0,0,49.58,45.48Z"/><path id="_1_2" data-name="1 ***" class="cls-7" d="M47,48H46V44.43L45,45V44l1.36-1H47Z"/><path id="_1_3" data-name="1 ***" class="cls-7" d="M43,48H42V44.48L41,45V44l1.37-1H43Z"/></g><g class="cls-8"><path id="_1_4" data-name="1 ***" class="cls-7" d="M52,54H51V50.44L50,51V50l1.36-1H52Z"/><path class="cls-7" d="M45,51.49a4.73,4.73,0,0,1,.17-1.39,1.72,1.72,0,0,1,.49-.81,1.23,1.23,0,0,1,.83-.29,1.25,1.25,0,0,1,.65.16,1.24,1.24,0,0,1,.46.45,2.59,2.59,0,0,1,.28.73A4.86,4.86,0,0,1,48,51.48a4.73,4.73,0,0,1-.17,1.39,1.8,1.8,0,0,1-.49.82,1.23,1.23,0,0,1-.83.28,1.2,1.2,0,0,1-1-.5A3.32,3.32,0,0,1,45,51.49Zm.58,0a3.28,3.28,0,0,0,.26,1.6.74.74,0,0,0,1.31,0,3.31,3.31,0,0,0,.26-1.6,3.14,3.14,0,0,0-.27-1.59.76.76,0,0,0-.65-.39.69.69,0,0,0-.62.35A3.11,3.11,0,0,0,45.58,51.48Z"/><path class="cls-7" d="M41,51.49a4.73,4.73,0,0,1,.17-1.39,1.72,1.72,0,0,1,.49-.81A1.23,1.23,0,0,1,42.5,49a1.25,1.25,0,0,1,.65.16,1.24,1.24,0,0,1,.46.45,2.59,2.59,0,0,1,.28.73A4.86,4.86,0,0,1,44,51.48a4.73,4.73,0,0,1-.17,1.39,1.8,1.8,0,0,1-.49.82,1.23,1.23,0,0,1-.83.28,1.2,1.2,0,0,1-1-.5A3.32,3.32,0,0,1,41,51.49Zm.58,0a3.28,3.28,0,0,0,.26,1.6.74.74,0,0,0,1.31,0,3.31,3.31,0,0,0,.26-1.6,3.14,3.14,0,0,0-.27-1.59.76.76,0,0,0-.65-.39.69.69,0,0,0-.62.35A3.11,3.11,0,0,0,41.59,51.48Z"/><path class="cls-7" d="M49,45.48a4.78,4.78,0,0,1,.17-1.39,1.72,1.72,0,0,1,.49-.81,1.23,1.23,0,0,1,.83-.28,1.25,1.25,0,0,1,.65.15,1.24,1.24,0,0,1,.46.45,2.59,2.59,0,0,1,.28.73A5,5,0,0,1,52,45.48a4.73,4.73,0,0,1-.17,1.39,1.8,1.8,0,0,1-.49.82,1.23,1.23,0,0,1-.83.29,1.21,1.21,0,0,1-1-.51A3.34,3.34,0,0,1,49,45.48Zm.58,0a3.28,3.28,0,0,0,.26,1.6.74.74,0,0,0,1.31,0,3.31,3.31,0,0,0,.26-1.6,3.19,3.19,0,0,0-.27-1.6.76.76,0,0,0-.65-.39.69.69,0,0,0-.62.35A3.15,3.15,0,0,0,49.58,45.48Z"/><path id="_1_5" data-name="1 ***" class="cls-7" d="M47,48H46V44.43L45,45V44l1.36-1H47Z"/><path id="_1_6" data-name="1 ***" class="cls-7" d="M43,48H42V44.48L41,45V44l1.37-1H43Z"/></g></g><g id="Layer_214_copy_3" data-name="Layer 214 copy 3"><polygon id="automatic" class="cls-9" points="40 39 45 39 40.1 44.88 41 44.99 51.41 37 47.27 37 52.13 33 47 33 44 38 40 38 40 39"/><polygon id="automatic-2" data-name="automatic" class="cls-7" points="41 39 44.08 39 40 44.96 50 37 46 37 51 33 46 33 41 39"/></g></g><g id="C02_ok_copy_2" data-name="C02 *** ok copy 2"><g class="cls-10"><rect class="cls-6" x="42.39" y="11.5" width="16.11" height="18" rx="0.5"/><path class="cls-5" d="M58,12V29H42.89V12H58m0-1H42.89a1,1,0,0,0-1,1V29a1,1,0,0,0,1,1H58a1,1,0,0,0,1-1V12a1,1,0,0,0-1-1Z"/></g><g id="b_c01_copy_16" data-name="b c01  **** copy 16"><g id="_0001010111_copy_19-2" data-name="0001010111 copy 19"><path class="cls-7" d="M53,24.49a4.8,4.8,0,0,1,.17-1.4,1.72,1.72,0,0,1,.49-.81,1.23,1.23,0,0,1,.83-.28,1.25,1.25,0,0,1,.65.15,1.32,1.32,0,0,1,.46.45,2.59,2.59,0,0,1,.28.73A5,5,0,0,1,56,24.48a4.73,4.73,0,0,1-.17,1.39,1.8,1.8,0,0,1-.49.82,1.29,1.29,0,0,1-.83.3,1.22,1.22,0,0,1-1-.52A3.32,3.32,0,0,1,53,24.49Zm.58,0a3.26,3.26,0,0,0,.26,1.59.74.74,0,0,0,1.31,0,3.31,3.31,0,0,0,.26-1.6,3.19,3.19,0,0,0-.27-1.6.76.76,0,0,0-.65-.39.69.69,0,0,0-.62.35A3.17,3.17,0,0,0,53.58,24.49Z"/><path id="_1_7" data-name="1 ***" class="cls-7" d="M51,27H50V23.43L49,24V23l1.36-1H51Z"/><path id="_1_8" data-name="1 ***" class="cls-7" d="M47,27H46V23.48L45,24V23l1.37-1H47Z"/><path class="cls-7" d="M53,18.49a4.73,4.73,0,0,1,.17-1.39,1.72,1.72,0,0,1,.49-.81,1.23,1.23,0,0,1,.83-.29,1.25,1.25,0,0,1,.65.16,1.32,1.32,0,0,1,.46.45,2.59,2.59,0,0,1,.28.73A4.86,4.86,0,0,1,56,18.48a4.73,4.73,0,0,1-.17,1.39,1.8,1.8,0,0,1-.49.82,1.23,1.23,0,0,1-.83.28,1.18,1.18,0,0,1-1-.5A3.32,3.32,0,0,1,53,18.49Zm.58,0a3.26,3.26,0,0,0,.26,1.59.74.74,0,0,0,1.31,0,3.31,3.31,0,0,0,.26-1.6,3.14,3.14,0,0,0-.27-1.59.76.76,0,0,0-.65-.39.69.69,0,0,0-.62.35A3.13,3.13,0,0,0,53.58,18.49Z"/><path id="_1_9" data-name="1 ***" class="cls-7" d="M51,21H50V17.44L49,18V17l1.36-1H51Z"/><path class="cls-7" d="M45,18.49a4.73,4.73,0,0,1,.17-1.39,1.72,1.72,0,0,1,.49-.81A1.23,1.23,0,0,1,46.5,16a1.25,1.25,0,0,1,.65.16,1.32,1.32,0,0,1,.46.45,2.59,2.59,0,0,1,.28.73A4.86,4.86,0,0,1,48,18.48a4.73,4.73,0,0,1-.17,1.39,1.8,1.8,0,0,1-.49.82,1.23,1.23,0,0,1-.83.28,1.18,1.18,0,0,1-1-.5A3.32,3.32,0,0,1,45,18.49Zm.58,0a3.26,3.26,0,0,0,.26,1.59.74.74,0,0,0,1.31,0,3.31,3.31,0,0,0,.26-1.6,3.14,3.14,0,0,0-.27-1.59.76.76,0,0,0-.65-.39.69.69,0,0,0-.62.35A3.13,3.13,0,0,0,45.59,18.49Z"/></g><g id="_0001010111_copy_19-3" data-name="0001010111 copy 19"><path class="cls-7" d="M53,24.49a4.8,4.8,0,0,1,.17-1.4,1.72,1.72,0,0,1,.49-.81,1.23,1.23,0,0,1,.83-.28,1.25,1.25,0,0,1,.65.15,1.32,1.32,0,0,1,.46.45,2.59,2.59,0,0,1,.28.73A5,5,0,0,1,56,24.48a4.73,4.73,0,0,1-.17,1.39,1.8,1.8,0,0,1-.49.82,1.29,1.29,0,0,1-.83.3,1.22,1.22,0,0,1-1-.52A3.32,3.32,0,0,1,53,24.49Zm.58,0a3.26,3.26,0,0,0,.26,1.59.74.74,0,0,0,1.31,0,3.31,3.31,0,0,0,.26-1.6,3.19,3.19,0,0,0-.27-1.6.76.76,0,0,0-.65-.39.69.69,0,0,0-.62.35A3.17,3.17,0,0,0,53.58,24.49Z"/><path id="_1_10" data-name="1 ***" class="cls-7" d="M51,27H50V23.43L49,24V23l1.36-1H51Z"/><path id="_1_11" data-name="1 ***" class="cls-7" d="M47,27H46V23.48L45,24V23l1.37-1H47Z"/><path class="cls-7" d="M53,18.49a4.73,4.73,0,0,1,.17-1.39,1.72,1.72,0,0,1,.49-.81,1.23,1.23,0,0,1,.83-.29,1.25,1.25,0,0,1,.65.16,1.32,1.32,0,0,1,.46.45,2.59,2.59,0,0,1,.28.73A4.86,4.86,0,0,1,56,18.48a4.73,4.73,0,0,1-.17,1.39,1.8,1.8,0,0,1-.49.82,1.23,1.23,0,0,1-.83.28,1.18,1.18,0,0,1-1-.5A3.32,3.32,0,0,1,53,18.49Zm.58,0a3.26,3.26,0,0,0,.26,1.59.74.74,0,0,0,1.31,0,3.31,3.31,0,0,0,.26-1.6,3.14,3.14,0,0,0-.27-1.59.76.76,0,0,0-.65-.39.69.69,0,0,0-.62.35A3.13,3.13,0,0,0,53.58,18.49Z"/><path id="_1_12" data-name="1 ***" class="cls-7" d="M51,21H50V17.44L49,18V17l1.36-1H51Z"/><path class="cls-7" d="M45,18.49a4.73,4.73,0,0,1,.17-1.39,1.72,1.72,0,0,1,.49-.81A1.23,1.23,0,0,1,46.5,16a1.25,1.25,0,0,1,.65.16,1.32,1.32,0,0,1,.46.45,2.59,2.59,0,0,1,.28.73A4.86,4.86,0,0,1,48,18.48a4.73,4.73,0,0,1-.17,1.39,1.8,1.8,0,0,1-.49.82,1.23,1.23,0,0,1-.83.28,1.18,1.18,0,0,1-1-.5A3.32,3.32,0,0,1,45,18.49Zm.58,0a3.26,3.26,0,0,0,.26,1.59.74.74,0,0,0,1.31,0,3.31,3.31,0,0,0,.26-1.6,3.14,3.14,0,0,0-.27-1.59.76.76,0,0,0-.65-.39.69.69,0,0,0-.62.35A3.13,3.13,0,0,0,45.59,18.49Z"/></g><path class="cls-6" d="M43.42,13.47,46,11h2s0,3,0,5c0,4.58-5,6-5,6H42V16.71Z"/></g><circle class="cls-11" cx="42" cy="14" r="4"/><path class="cls-12" d="M42,10.75A3.25,3.25,0,1,1,38.75,14,3.26,3.26,0,0,1,42,10.75M42,10a4,4,0,1,0,4,4,4,4,0,0,0-4-4Z"/><path class="cls-13" d="M42,10a4,4,0,1,1-4,4,4,4,0,0,1,4-4m0-.75A4.75,4.75,0,1,0,46.75,14,4.75,4.75,0,0,0,42,9.25Z"/><path class="cls-13" d="M42,10a4,4,0,1,1-4,4,4,4,0,0,1,4-4m0-.75A4.75,4.75,0,1,0,46.75,14,4.75,4.75,0,0,0,42,9.25Z"/><path class="cls-14" d="M42.28,10.77a3.09,3.09,0,0,1,3,3.11,3.43,3.43,0,0,1-.7,2.11l-2.3-2.11Z"/><rect id="aiguille_1" data-name="aiguille 1" class="cls-13" x="42.27" y="10.96" width="0.37" height="2.96"/><rect id="aiguille" class="cls-13" x="43.08" y="13.44" width="0.37" height="2.44" transform="translate(2.31 34.89) rotate(-45)"/><rect class="cls-13" x="41.53" y="8" width="1.85" height="0.37"/><rect class="cls-13" x="41.92" y="8.37" width="1.11" height="0.74"/><rect class="cls-13" x="46.11" y="8.97" width="0.37" height="1.85" transform="translate(6.56 35.63) rotate(-45)"/><rect class="cls-13" x="45.53" y="9.73" width="0.74" height="1.11" transform="translate(6.17 35.47) rotate(-45)"/></g><g id="b_c01_OK_copy_2" data-name="b c01  **** OK copy 2"><rect class="cls-6" x="7.5" y="12.5" width="16" height="34"/><path class="cls-5" d="M23,13V46H8V13H23m1-1H7V47H24V12Z"/><g id="_0001010111_copy_19-4" data-name="0001010111 copy 19"><path class="cls-7" d="M18,41.49a4.8,4.8,0,0,1,.17-1.4,1.72,1.72,0,0,1,.49-.81,1.23,1.23,0,0,1,.83-.28,1.25,1.25,0,0,1,.65.15,1.32,1.32,0,0,1,.46.45,2.59,2.59,0,0,1,.28.73A5,5,0,0,1,21,41.48a4.73,4.73,0,0,1-.17,1.39,1.8,1.8,0,0,1-.49.82,1.29,1.29,0,0,1-.83.3,1.22,1.22,0,0,1-1-.52A3.32,3.32,0,0,1,18,41.49Zm.58,0a3.26,3.26,0,0,0,.26,1.59.74.74,0,0,0,1.31,0,3.31,3.31,0,0,0,.26-1.6,3.19,3.19,0,0,0-.27-1.6.76.76,0,0,0-.65-.39.69.69,0,0,0-.62.35A3.17,3.17,0,0,0,18.58,41.49Z"/><path id="_1_13" data-name="1 ***" class="cls-7" d="M16,44H15V40.43L14,41V40l1.36-1H16Z"/><path id="_1_14" data-name="1 ***" class="cls-7" d="M12,44H11V40.48L10,41V40l1.37-1H12Z"/><path class="cls-7" d="M18,35.5a4.8,4.8,0,0,1,.17-1.4,1.72,1.72,0,0,1,.49-.81,1.23,1.23,0,0,1,.83-.29,1.25,1.25,0,0,1,.65.16,1.32,1.32,0,0,1,.46.45,2.59,2.59,0,0,1,.28.73A5,5,0,0,1,21,35.49a4.73,4.73,0,0,1-.17,1.39,1.8,1.8,0,0,1-.49.82,1.23,1.23,0,0,1-.83.28,1.2,1.2,0,0,1-1-.5A3.32,3.32,0,0,1,18,35.5Zm.58,0a3.28,3.28,0,0,0,.26,1.6.74.74,0,0,0,1.31,0,3.31,3.31,0,0,0,.26-1.6,3.19,3.19,0,0,0-.27-1.6.76.76,0,0,0-.65-.39.69.69,0,0,0-.62.35A3.15,3.15,0,0,0,18.58,35.49Z"/><path id="_1_15" data-name="1 ***" class="cls-7" d="M16,38H15V34.44L14,35V34l1.36-1H16Z"/><path class="cls-7" d="M10,35.5a4.8,4.8,0,0,1,.17-1.4,1.72,1.72,0,0,1,.49-.81A1.23,1.23,0,0,1,11.5,33a1.25,1.25,0,0,1,.65.16,1.32,1.32,0,0,1,.46.45,2.59,2.59,0,0,1,.28.73A5,5,0,0,1,13,35.49a4.73,4.73,0,0,1-.17,1.39,1.8,1.8,0,0,1-.49.82,1.23,1.23,0,0,1-.83.28,1.2,1.2,0,0,1-1-.5A3.32,3.32,0,0,1,10,35.5Zm.58,0a3.28,3.28,0,0,0,.26,1.6.74.74,0,0,0,1.31,0,3.31,3.31,0,0,0,.26-1.6,3.19,3.19,0,0,0-.27-1.6.76.76,0,0,0-.65-.39.69.69,0,0,0-.62.35A3.15,3.15,0,0,0,10.59,35.49Z"/><path id="_1_16" data-name="1 ***" class="cls-7" d="M21,32H20V28.44L19,29V28l1.36-1H21Z"/><path class="cls-7" d="M14,29.5a4.8,4.8,0,0,1,.17-1.4,1.72,1.72,0,0,1,.49-.81,1.23,1.23,0,0,1,.83-.29,1.25,1.25,0,0,1,.65.16,1.32,1.32,0,0,1,.46.45,2.59,2.59,0,0,1,.28.73A5,5,0,0,1,17,29.49a4.73,4.73,0,0,1-.17,1.39,1.8,1.8,0,0,1-.49.82,1.23,1.23,0,0,1-.83.28,1.2,1.2,0,0,1-1-.5A3.32,3.32,0,0,1,14,29.5Zm.58,0a3.28,3.28,0,0,0,.26,1.6.74.74,0,0,0,1.31,0,3.31,3.31,0,0,0,.26-1.6,3.19,3.19,0,0,0-.27-1.6.76.76,0,0,0-.65-.39.69.69,0,0,0-.62.35A3.15,3.15,0,0,0,14.58,29.49Z"/><path class="cls-7" d="M10,29.5a4.8,4.8,0,0,1,.17-1.4,1.72,1.72,0,0,1,.49-.81A1.23,1.23,0,0,1,11.5,27a1.25,1.25,0,0,1,.65.16,1.32,1.32,0,0,1,.46.45,2.59,2.59,0,0,1,.28.73A5,5,0,0,1,13,29.49a4.73,4.73,0,0,1-.17,1.39,1.8,1.8,0,0,1-.49.82,1.23,1.23,0,0,1-.83.28,1.2,1.2,0,0,1-1-.5A3.32,3.32,0,0,1,10,29.5Zm.58,0a3.28,3.28,0,0,0,.26,1.6.74.74,0,0,0,1.31,0,3.31,3.31,0,0,0,.26-1.6,3.19,3.19,0,0,0-.27-1.6.76.76,0,0,0-.65-.39.69.69,0,0,0-.62.35A3.15,3.15,0,0,0,10.59,29.49Z"/><path class="cls-7" d="M18,23.48a4.78,4.78,0,0,1,.17-1.39,1.72,1.72,0,0,1,.49-.81,1.23,1.23,0,0,1,.83-.28,1.25,1.25,0,0,1,.65.15,1.24,1.24,0,0,1,.46.45,2.59,2.59,0,0,1,.28.73A5,5,0,0,1,21,23.48a4.73,4.73,0,0,1-.17,1.39,1.8,1.8,0,0,1-.49.82,1.23,1.23,0,0,1-.83.29,1.21,1.21,0,0,1-1-.51A3.34,3.34,0,0,1,18,23.48Zm.58,0a3.28,3.28,0,0,0,.26,1.6.74.74,0,0,0,1.31,0,3.31,3.31,0,0,0,.26-1.6,3.19,3.19,0,0,0-.27-1.6.76.76,0,0,0-.65-.39.69.69,0,0,0-.62.35A3.15,3.15,0,0,0,18.58,23.48Z"/><path id="_1_17" data-name="1 ***" class="cls-7" d="M16,26H15V22.43L14,23V22l1.36-1H16Z"/><path id="_1_18" data-name="1 ***" class="cls-7" d="M12,26H11V22.48L10,23V22l1.37-1H12Z"/></g><g id="_0001010111_copy_19-5" data-name="0001010111 copy 19"><path class="cls-7" d="M18,41.49a4.8,4.8,0,0,1,.17-1.4,1.72,1.72,0,0,1,.49-.81,1.23,1.23,0,0,1,.83-.28,1.25,1.25,0,0,1,.65.15,1.32,1.32,0,0,1,.46.45,2.59,2.59,0,0,1,.28.73A5,5,0,0,1,21,41.48a4.73,4.73,0,0,1-.17,1.39,1.8,1.8,0,0,1-.49.82,1.29,1.29,0,0,1-.83.3,1.22,1.22,0,0,1-1-.52A3.32,3.32,0,0,1,18,41.49Zm.67,0a2.82,2.82,0,0,0,.24,1.43.66.66,0,0,0,1.17,0,2.89,2.89,0,0,0,.24-1.44A2.89,2.89,0,0,0,20.08,40a.69.69,0,0,0-.59-.35.63.63,0,0,0-.56.31A3,3,0,0,0,18.67,41.49Z"/><path id="_1_19" data-name="1 ***" class="cls-7" d="M16,44H15V40.43L14,41V40l1.36-1H16Z"/><path id="_1_20" data-name="1 ***" class="cls-7" d="M12,44H11V40.48L10,41V40l1.37-1H12Z"/><path class="cls-7" d="M18,35.5a4.8,4.8,0,0,1,.17-1.4,1.72,1.72,0,0,1,.49-.81,1.23,1.23,0,0,1,.83-.29,1.25,1.25,0,0,1,.65.16,1.32,1.32,0,0,1,.46.45,2.59,2.59,0,0,1,.28.73A5,5,0,0,1,21,35.49a4.73,4.73,0,0,1-.17,1.39,1.8,1.8,0,0,1-.49.82,1.23,1.23,0,0,1-.83.28,1.2,1.2,0,0,1-1-.5A3.32,3.32,0,0,1,18,35.5Zm.67,0a2.87,2.87,0,0,0,.24,1.44.66.66,0,0,0,1.17,0,2.89,2.89,0,0,0,.24-1.44,2.89,2.89,0,0,0-.24-1.44.69.69,0,0,0-.59-.35.63.63,0,0,0-.56.31A3,3,0,0,0,18.67,35.49Z"/><path id="_1_21" data-name="1 ***" class="cls-7" d="M16,38H15V34.44L14,35V34l1.36-1H16Z"/><path class="cls-7" d="M10,35.5a4.8,4.8,0,0,1,.17-1.4,1.72,1.72,0,0,1,.49-.81A1.23,1.23,0,0,1,11.5,33a1.25,1.25,0,0,1,.65.16,1.32,1.32,0,0,1,.46.45,2.59,2.59,0,0,1,.28.73A5,5,0,0,1,13,35.49a4.73,4.73,0,0,1-.17,1.39,1.8,1.8,0,0,1-.49.82,1.23,1.23,0,0,1-.83.28,1.2,1.2,0,0,1-1-.5A3.32,3.32,0,0,1,10,35.5Zm.67,0a2.87,2.87,0,0,0,.24,1.44.66.66,0,0,0,1.17,0,2.89,2.89,0,0,0,.24-1.44,2.89,2.89,0,0,0-.24-1.44.69.69,0,0,0-.59-.35.63.63,0,0,0-.56.31A3,3,0,0,0,10.68,35.49Z"/><path id="_1_22" data-name="1 ***" class="cls-7" d="M21,32H20V28.44L19,29V28l1.36-1H21Z"/><path class="cls-7" d="M14,29.5a4.8,4.8,0,0,1,.17-1.4,1.72,1.72,0,0,1,.49-.81,1.23,1.23,0,0,1,.83-.29,1.25,1.25,0,0,1,.65.16,1.32,1.32,0,0,1,.46.45,2.59,2.59,0,0,1,.28.73A5,5,0,0,1,17,29.49a4.73,4.73,0,0,1-.17,1.39,1.8,1.8,0,0,1-.49.82,1.23,1.23,0,0,1-.83.28,1.2,1.2,0,0,1-1-.5A3.32,3.32,0,0,1,14,29.5Zm.67,0a2.87,2.87,0,0,0,.24,1.44.66.66,0,0,0,1.17,0,2.89,2.89,0,0,0,.24-1.44,2.89,2.89,0,0,0-.24-1.44.69.69,0,0,0-.59-.35.63.63,0,0,0-.56.31A3,3,0,0,0,14.67,29.49Z"/><path class="cls-7" d="M10,29.5a4.8,4.8,0,0,1,.17-1.4,1.72,1.72,0,0,1,.49-.81A1.23,1.23,0,0,1,11.5,27a1.25,1.25,0,0,1,.65.16,1.32,1.32,0,0,1,.46.45,2.59,2.59,0,0,1,.28.73A5,5,0,0,1,13,29.49a4.73,4.73,0,0,1-.17,1.39,1.8,1.8,0,0,1-.49.82,1.23,1.23,0,0,1-.83.28,1.2,1.2,0,0,1-1-.5A3.32,3.32,0,0,1,10,29.5Zm.67,0a2.87,2.87,0,0,0,.24,1.44.66.66,0,0,0,1.17,0,2.89,2.89,0,0,0,.24-1.44,2.89,2.89,0,0,0-.24-1.44.69.69,0,0,0-.59-.35.63.63,0,0,0-.56.31A3,3,0,0,0,10.68,29.49Z"/><path class="cls-7" d="M18,23.48a4.78,4.78,0,0,1,.17-1.39,1.72,1.72,0,0,1,.49-.81,1.23,1.23,0,0,1,.83-.28,1.25,1.25,0,0,1,.65.15,1.24,1.24,0,0,1,.46.45,2.59,2.59,0,0,1,.28.73A5,5,0,0,1,21,23.48a4.73,4.73,0,0,1-.17,1.39,1.8,1.8,0,0,1-.49.82,1.23,1.23,0,0,1-.83.29,1.21,1.21,0,0,1-1-.51A3.34,3.34,0,0,1,18,23.48Zm.67,0a2.87,2.87,0,0,0,.24,1.44.66.66,0,0,0,1.17,0,2.89,2.89,0,0,0,.24-1.44A2.89,2.89,0,0,0,20.08,22a.69.69,0,0,0-.59-.35.63.63,0,0,0-.56.31A3,3,0,0,0,18.67,23.48Z"/><path id="_1_23" data-name="1 ***" class="cls-7" d="M16,26H15V22.43L14,23V22l1.36-1H16Z"/><path id="_1_24" data-name="1 ***" class="cls-7" d="M12,26H11V22.48L10,23V22l1.37-1H12Z"/></g><g id="Layer_214_copy_3-2" data-name="Layer 214 copy 3"><polygon id="automatic-3" data-name="automatic" class="cls-9" points="9.67 12 15 12 9 19 11.22 18.5 19 12 20 12 21 11 16.56 11 21.44 7 16 7 14 11 10.46 11 9.67 12"/><polygon id="automatic-4" data-name="automatic" class="cls-7" points="10 13 13.08 13 9 18.96 19 11 15 11 20 7 15 7 10 13"/></g></g></g></svg>