<?xml version="1.0" encoding="iso-8859-1"?>
<!-- Generator: Adobe Illustrator 23.1.0, SVG Export Plug-In . SVG Version: 6.00 Build 0)  -->
<svg version="1.1" xmlns="http://www.w3.org/2000/svg" xmlns:xlink="http://www.w3.org/1999/xlink" x="0px" y="0px"
	 viewBox="0 0 64 64" style="enable-background:new 0 0 64 64;" xml:space="preserve">
<pattern  width="20" height="20" patternUnits="userSpaceOnUse" id="New_Pattern_Swatch_2" viewBox="22.121 -42.121 20 20" style="overflow:visible;">
	<g>
		<rect x="22.121" y="-42.121" style="fill:none;" width="20" height="20"/>
		
			<rect x="49.121" y="-26.263" transform="matrix(0.7071 -0.7071 0.7071 0.7071 23.837 33.3051)" style="fill:#844138;" width="6" height="28.284"/>
		
			<rect x="29.121" y="-26.263" transform="matrix(0.7071 -0.7071 0.7071 0.7071 17.9792 19.163)" style="fill:#844138;" width="6" height="28.284"/>
		
			<rect x="9.121" y="-26.263" transform="matrix(0.7071 -0.7071 0.7071 0.7071 12.1213 5.0208)" style="fill:#844138;" width="6" height="28.284"/>
		
			<rect x="49.121" y="-46.263" transform="matrix(0.7071 -0.7071 0.7071 0.7071 37.9792 27.4472)" style="fill:#844138;" width="6" height="28.284"/>
		
			<rect x="29.121" y="-46.263" transform="matrix(0.7071 -0.7071 0.7071 0.7071 32.1213 13.3051)" style="fill:#844138;" width="6" height="28.284"/>
		
			<rect x="9.121" y="-46.263" transform="matrix(0.7071 -0.7071 0.7071 0.7071 26.2635 -0.837)" style="fill:#844138;" width="6" height="28.284"/>
		
			<rect x="49.121" y="-66.263" transform="matrix(0.7071 -0.7071 0.7071 0.7071 52.1213 21.5894)" style="fill:#844138;" width="6" height="28.284"/>
		
			<rect x="29.121" y="-66.263" transform="matrix(0.7071 -0.7071 0.7071 0.7071 46.2635 7.4472)" style="fill:#844138;" width="6" height="28.284"/>
		
			<rect x="9.121" y="-66.263" transform="matrix(0.7071 -0.7071 0.7071 0.7071 40.4056 -6.6949)" style="fill:#844138;" width="6" height="28.284"/>
	</g>
</pattern>
<g id="Layer_1" style="display:none;">
</g>
<g id="info_r2021x" style="display:none;">
	<g id="pedestal_r2021x" style="display:inline;">
		<path style="opacity:0.5;fill:#FFFFFF;" d="M63.002,64h-62c-0.552,0-1-0.448-1-1V1c0-0.552,0.448-1,1-1h62c0.552,0,1,0.448,1,1v62
			C64.002,63.552,63.554,64,63.002,64z"/>
		<rect x="1.002" y="1" style="fill:#F4F5F6;" width="62" height="62"/>
		<rect x="1.002" y="1" style="fill:#D1D4D4;" width="2" height="62"/>
	</g>
	<g id="no-go_zone_1_" style="display:inline;opacity:0.3;">
		<path style="fill:url(#New_Pattern_Swatch_2);" d="M0,0v64h64V0H0z M57,57H7V7h50V57z"/>
	</g>
	<g style="display:inline;">
		<path style="fill:#EA4F37;" d="M57,7v50H7V7H57 M58,6h-1H7H6v1v50v1h1h50h1v-1V7V6L58,6z"/>
	</g>
</g>
<g id="Notes" style="display:none;">
</g>
<g id="vector_references" style="display:none;">
</g>
<g id="PNG_references" style="display:none;">
	
		<image style="display:inline;overflow:visible;" width="64" height="64" xlink:href="../../../ApplicationIcons/Week13/Electrical3DdesignPart/PNGoutput/I_WkAsElectricalProductDesign.png" >
	</image>
</g>
<g id="Work" style="display:none;">
	<g style="display:inline;">
		<linearGradient id="SVGID_1_" gradientUnits="userSpaceOnUse" x1="20.3668" y1="22.9998" x2="22.4687" y2="26.6403">
			<stop  offset="0" style="stop-color:#ABABAB"/>
			<stop  offset="1" style="stop-color:#5B5B5B"/>
		</linearGradient>
		
			<path style="fill:url(#SVGID_1_);stroke:#333332;stroke-width:0.9802;stroke-linecap:round;stroke-linejoin:round;stroke-miterlimit:1;" d="
			M21.55,27.886l-2.192-2.352c0,0-0.899-1.251,0.317-2.292c1.11-0.949,2.125-0.161,2.125-0.161l2.387,2.244L21.55,27.886z"/>
		
			<radialGradient id="SVGID_2_" cx="24.0895" cy="29.1442" r="17.9347" gradientTransform="matrix(-0.8196 -0.5729 0.48 -0.6866 29.8451 62.9568)" gradientUnits="userSpaceOnUse">
			<stop  offset="0.5728" style="stop-color:#386F8D"/>
			<stop  offset="0.6118" style="stop-color:#3C7492"/>
			<stop  offset="0.6602" style="stop-color:#4984A2"/>
			<stop  offset="0.7132" style="stop-color:#5E9DBB"/>
			<stop  offset="0.7447" style="stop-color:#6DAFCD"/>
			<stop  offset="0.7707" style="stop-color:#72B3D0"/>
			<stop  offset="0.803" style="stop-color:#82BED9"/>
			<stop  offset="0.8383" style="stop-color:#9BD0E7"/>
			<stop  offset="0.8666" style="stop-color:#B4E3F5"/>
			<stop  offset="1" style="stop-color:#8DD7F4"/>
		</radialGradient>
		
			<path style="fill:url(#SVGID_2_);stroke:#053755;stroke-width:1.0006;stroke-linecap:round;stroke-linejoin:round;stroke-miterlimit:1;" d="
			M33.5,18.755c-0.101-0.176-7-9-18.307-3.392c-5.864,2.909-9.925,9.709-6.351,18.282c2.931,7.031,7.658,10.61,7.658,10.61l5.5-4
			c-4-5-5.623-8.329-6.556-10.995c-2.117-6.044,4.836-12.397,10.629-8.044C26.072,21.216,35.803,22.773,33.5,18.755z"/>
		
			<circle style="fill:#053755;stroke:#053755;stroke-width:0.9943;stroke-linecap:round;stroke-linejoin:round;stroke-miterlimit:1;" cx="19.195" cy="42.176" r="3.421"/>
		<g>
			<linearGradient id="SVGID_3_" gradientUnits="userSpaceOnUse" x1="19.6646" y1="45.3263" x2="23.9147" y2="44.9928">
				<stop  offset="0" style="stop-color:#F5F6F6"/>
				<stop  offset="0.9921" style="stop-color:#D2D3D3"/>
			</linearGradient>
			
				<path style="fill:url(#SVGID_3_);stroke:#333332;stroke-width:0.9802;stroke-linecap:round;stroke-linejoin:round;stroke-miterlimit:1;" d="
				M21.451,43.007l-0.001,0.001c-0.256-0.265-0.613-0.432-1.011-0.432c-0.777,0-1.406,0.63-1.406,1.406
				c0,0.396,0.165,0.752,0.428,1.008l-0.001,0.001l2.823,2.823l2.036-1.935L21.451,43.007z"/>
			<linearGradient id="SVGID_4_" gradientUnits="userSpaceOnUse" x1="22.6929" y1="45.8296" x2="23.8443" y2="47.8238">
				<stop  offset="0" style="stop-color:#FFFFFF"/>
				<stop  offset="1" style="stop-color:#F1F0F0"/>
			</linearGradient>
			
				<circle style="fill:url(#SVGID_4_);stroke:#323232;stroke-width:0.9802;stroke-linecap:round;stroke-linejoin:round;stroke-miterlimit:1;" cx="23.251" cy="46.796" r="1.406"/>
		</g>
		<linearGradient id="SVGID_5_" gradientUnits="userSpaceOnUse" x1="39.1095" y1="18.3122" x2="41.2114" y2="21.9528">
			<stop  offset="0" style="stop-color:#ABABAB"/>
			<stop  offset="1" style="stop-color:#5B5B5B"/>
		</linearGradient>
		
			<path style="fill:url(#SVGID_5_);stroke:#333332;stroke-width:0.9802;stroke-linecap:round;stroke-linejoin:round;stroke-miterlimit:1;" d="
			M40.293,23.199l-2.192-2.352c0,0-0.899-1.252,0.317-2.292c1.11-0.949,2.125-0.161,2.125-0.161l2.387,2.244L40.293,23.199z"/>
		<g>
			<linearGradient id="SVGID_6_" gradientUnits="userSpaceOnUse" x1="16.852" y1="44.212" x2="21.1021" y2="43.8785">
				<stop  offset="0" style="stop-color:#F5F6F6"/>
				<stop  offset="0.9921" style="stop-color:#D2D3D3"/>
			</linearGradient>
			
				<path style="fill:url(#SVGID_6_);stroke:#333332;stroke-width:0.9802;stroke-linecap:round;stroke-linejoin:round;stroke-miterlimit:1;" d="
				M18.638,41.893l-0.001,0.001c-0.256-0.265-0.613-0.432-1.011-0.432c-0.777,0-1.406,0.63-1.406,1.406
				c0,0.396,0.165,0.752,0.428,1.008l-0.001,0.001l2.823,2.823l2.036-1.935L18.638,41.893z"/>
			<linearGradient id="SVGID_7_" gradientUnits="userSpaceOnUse" x1="19.8804" y1="44.7153" x2="21.0317" y2="46.7095">
				<stop  offset="0" style="stop-color:#FFFFFF"/>
				<stop  offset="1" style="stop-color:#F1F0F0"/>
			</linearGradient>
			
				<circle style="fill:url(#SVGID_7_);stroke:#323232;stroke-width:0.9802;stroke-linecap:round;stroke-linejoin:round;stroke-miterlimit:1;" cx="20.438" cy="45.681" r="1.406"/>
		</g>
		<g>
			<linearGradient id="SVGID_8_" gradientUnits="userSpaceOnUse" x1="18.9604" y1="42.5137" x2="23.2105" y2="42.1802">
				<stop  offset="0" style="stop-color:#F5F6F6"/>
				<stop  offset="0.9921" style="stop-color:#D2D3D3"/>
			</linearGradient>
			
				<path style="fill:url(#SVGID_8_);stroke:#333332;stroke-width:0.9802;stroke-linecap:round;stroke-linejoin:round;stroke-miterlimit:1;" d="
				M20.746,40.195l-0.001,0.001c-0.256-0.265-0.613-0.432-1.011-0.432c-0.777,0-1.406,0.63-1.406,1.406
				c0,0.396,0.165,0.752,0.428,1.008l-0.001,0.001l2.823,2.823l2.036-1.935L20.746,40.195z"/>
			<linearGradient id="SVGID_9_" gradientUnits="userSpaceOnUse" x1="21.9887" y1="43.017" x2="23.1401" y2="45.0112">
				<stop  offset="0" style="stop-color:#FFFFFF"/>
				<stop  offset="1" style="stop-color:#F1F0F0"/>
			</linearGradient>
			
				<circle style="fill:url(#SVGID_9_);stroke:#323232;stroke-width:0.9802;stroke-linecap:round;stroke-linejoin:round;stroke-miterlimit:1;" cx="22.546" cy="43.983" r="1.406"/>
		</g>
		<g>
			<linearGradient id="SVGID_10_" gradientUnits="userSpaceOnUse" x1="31.7487" y1="19.6379" x2="41.2353" y2="36.0691">
				<stop  offset="0" style="stop-color:#FFFFFF"/>
				<stop  offset="1" style="stop-color:#F1F0F0"/>
			</linearGradient>
			<path style="fill:url(#SVGID_10_);" d="M24.313,25.477l-1.429,1.297l-1.354,0.986v6.366c0,0-0.173,0.306,0.346,0.77
				c0.519,0.464,8.068,8.32,8.068,8.32s0.841,0.757,1.582,0.533c0.74-0.223-0.458-1.838-0.458-1.838l0.259-7.134l22.476-6.844
				l1.354-0.27l-10.72-7.503c0,0-0.202-0.377-1.239,0l-4.177,1.008l-4.149-2.784c0,0,0.749-0.29-0.461,0l-9.221,2.32
				c0,0-0.808,0.122-0.866,1.34L24.313,25.477z"/>
			<linearGradient id="SVGID_11_" gradientUnits="userSpaceOnUse" x1="25.2124" y1="10.0444" x2="26.278" y2="38.8138">
				<stop  offset="0" style="stop-color:#F5F6F6"/>
				<stop  offset="0.9921" style="stop-color:#BFBEBE"/>
			</linearGradient>
			<path style="fill:url(#SVGID_11_);stroke:#787878;stroke-width:0.9867;stroke-miterlimit:10;" d="M21.529,27.76v6.366
				c0,0-0.029,1.425,0.432,1.425l7.836,8.263c0.922,0,0.924-1.303,0.924-1.303v-7.424l-7.838-7.327
				C21.716,26.904,21.529,27.76,21.529,27.76z"/>
			<linearGradient id="SVGID_12_" gradientUnits="userSpaceOnUse" x1="40.3269" y1="31.0706" x2="45.7906" y2="40.534">
				<stop  offset="0" style="stop-color:#FFFFFF"/>
				<stop  offset="1" style="stop-color:#D2D3D3"/>
			</linearGradient>
			
				<path style="fill:url(#SVGID_12_);stroke:#797979;stroke-width:0.9671;stroke-linecap:round;stroke-linejoin:round;stroke-miterlimit:1;" d="
				M30.5,43v-6.5c0,0-0.035-1.861,1.586-2.363c1.622-0.502,22.217-6.522,22.217-6.522s1.277-0.502,1.277,1.034
				c0,1.536,0,6.474,0,6.474s0.031,1.035-0.717,1.38c-0.747,0.345-22.779,7.854-22.779,7.854S30.5,44.319,30.5,43z"/>
			<linearGradient id="SVGID_13_" gradientUnits="userSpaceOnUse" x1="42.9252" y1="33.9966" x2="48.8398" y2="44.241">
				<stop  offset="0" style="stop-color:#FFFFFF"/>
				<stop  offset="1" style="stop-color:#F1F0F0"/>
			</linearGradient>
			
				<path style="fill:url(#SVGID_13_);stroke:#797979;stroke-width:0.9671;stroke-linecap:round;stroke-linejoin:round;stroke-miterlimit:1;" d="
				M35.5,41.5v-4c0,0-0.169-1.021,1.397-1.725l13.024-3.867c0,0,0.538-0.232,1.23,0.155c0.692,0.386,4.466,3.952,4.466,3.952
				s0.644,0.04,0.543,1.113c-0.156,1.657-0.591,3.712-0.591,3.712c-0.092,0.614-0.303,1.102-1.114,1.431
				c-1.33,0.539-12.832,4.408-12.832,4.408s-0.5,0.348-1.114-0.271c-0.615-0.618-4.255-3.897-4.255-3.897S35.566,41.764,35.5,41.5z"
				/>
			<linearGradient id="SVGID_14_" gradientUnits="userSpaceOnUse" x1="38.1274" y1="45.0341" x2="37.9529" y2="37.3572">
				<stop  offset="0" style="stop-color:#F5F6F6"/>
				<stop  offset="0.9921" style="stop-color:#BFBEBE"/>
			</linearGradient>
			<path style="fill:url(#SVGID_14_);stroke:#787878;stroke-miterlimit:10;" d="M35.5,36.36l5.071,3.712v6.032
				c0,0-0.454,0.028-1.069-0.59c-0.615-0.618-4.003-3.585-4.003-3.585V36.36z"/>
			<linearGradient id="SVGID_15_" gradientUnits="userSpaceOnUse" x1="48.5845" y1="41.3031" x2="46.9325" y2="36.6774">
				<stop  offset="0" style="stop-color:#ABABAB"/>
				<stop  offset="1" style="stop-color:#5B5B5B"/>
			</linearGradient>
			<path style="fill:url(#SVGID_15_);stroke:#787878;stroke-width:0.9671;stroke-miterlimit:10;" d="M40.864,41.583
				c0,0,0-1.392,1.019-1.95c-0.097,0.094,12.162-4.019,12.351-4.082c0,0,2.305,0,2.305,1.392v4.64
				c-0.461,0.928-15.214,5.568-15.214,5.568s-0.442-0.049-0.461-0.928C40.854,45.771,40.864,41.583,40.864,41.583z"/>
			<linearGradient id="SVGID_16_" gradientUnits="userSpaceOnUse" x1="24.8881" y1="21.9779" x2="27.0822" y2="25.7782">
				<stop  offset="0" style="stop-color:#D7D7D7"/>
				<stop  offset="1" style="stop-color:#969696"/>
			</linearGradient>
			<polygon style="fill:url(#SVGID_16_);" points="24.266,21.632 29.418,24.917 24.266,25.807 			"/>
			
				<line style="fill:none;stroke:#161616;stroke-width:0.9671;stroke-linecap:round;stroke-linejoin:round;stroke-miterlimit:10;" x1="40.864" y1="41.119" x2="44.091" y2="43.439"/>
			
				<line style="fill:none;stroke:#161616;stroke-width:0.9671;stroke-linecap:round;stroke-linejoin:round;stroke-miterlimit:10;" x1="43.63" y1="39.727" x2="47.088" y2="42.279"/>
			
				<line style="fill:none;stroke:#161616;stroke-width:0.9671;stroke-linecap:round;stroke-linejoin:round;stroke-miterlimit:10;" x1="46.396" y1="38.799" x2="49.854" y2="41.351"/>
			
				<line style="fill:none;stroke:#161616;stroke-width:0.9671;stroke-linecap:round;stroke-linejoin:round;stroke-miterlimit:10;" x1="49.393" y1="38.103" x2="52.851" y2="40.655"/>
			
				<line style="fill:none;stroke:#161616;stroke-width:0.9671;stroke-linecap:round;stroke-linejoin:round;stroke-miterlimit:10;" x1="51.698" y1="36.711" x2="55.156" y2="39.263"/>
			<linearGradient id="SVGID_17_" gradientUnits="userSpaceOnUse" x1="35.7922" y1="39.7267" x2="35.7922" y2="39.7267">
				<stop  offset="0" style="stop-color:#FFFFFF"/>
				<stop  offset="1" style="stop-color:#F1F0F0"/>
			</linearGradient>
			
				<line style="fill:url(#SVGID_17_);stroke:#797979;stroke-width:0.9671;stroke-linecap:round;stroke-linejoin:round;stroke-miterlimit:1;" x1="35.792" y1="36.943" x2="35.792" y2="42.511"/>
			<path style="fill:#5A5A5A;" d="M40.864,42.047c-0.001,0-0.001,0-0.002,0c-0.254-0.001-0.459-0.208-0.459-0.463
				c0-0.068,0.014-1.676,1.259-2.357c0.052-0.029,0.106-0.046,0.161-0.053c0.646-0.175,8.266-2.721,12.265-4.062
				c0.047-0.016,0.096-0.024,0.146-0.024c1.027,0,2.766,0.391,2.766,1.856c0,0.256-0.206,0.464-0.461,0.464
				c-0.255,0-0.461-0.208-0.461-0.464c0-0.79-1.445-0.909-1.777-0.925c-8.503,2.852-11.265,3.778-12.229,3.966l0.031,0.057
				c-0.76,0.416-0.778,1.533-0.778,1.544C41.323,41.84,41.117,42.047,40.864,42.047z"/>
			
				<path style="fill:none;stroke:#333332;stroke-width:0.9671;stroke-linecap:round;stroke-linejoin:round;stroke-miterlimit:1;" d="
				M56.539,36.943c0-0.611-0.66-1.031-0.987-1.116c0.031-0.191,0.028-0.329,0.028-0.329s0-4.937,0-6.474c0-0.588,0-1.098,0-1.098
				L44.436,20.16c0,0-0.202-0.377-1.239,0l-4.553,1.015l-3.285-2.523c0,0,0.058-0.435-1.153-0.145l-8.788,2.117
				c0,0-1.037,0.058-1.095,1.276l0,0.143l-0.058-0.037v3.887l-1.381,0.88c0,0-1.384-0.038-1.356,1.361v6.366
				c0,0-0.173,0.306,0.346,0.77c0.519,0.464,7.924,8.542,7.924,8.542c0.14,0,0.886,0.997,2.288,0.543
				c1.402-0.454,1.48-0.653,4.261-1.557c0.594,0.651,3.909,3.729,4.161,3.982c0.615,0.618,1.114,0.271,1.114,0.271
				s11.502-3.869,12.832-4.408c0.177-0.072,2.086-0.599,2.086-1.527S56.539,36.943,56.539,36.943z"/>
		</g>
	</g>
</g>
<g id="Final">
	<g>
		<linearGradient id="SVGID_18_" gradientUnits="userSpaceOnUse" x1="20.3668" y1="22.9998" x2="22.4687" y2="26.6403">
			<stop  offset="0" style="stop-color:#ABABAB"/>
			<stop  offset="1" style="stop-color:#5B5B5B"/>
		</linearGradient>
		
			<path style="fill:url(#SVGID_18_);stroke:#333332;stroke-width:0.9802;stroke-linecap:round;stroke-linejoin:round;stroke-miterlimit:1;" d="
			M21.55,27.886l-2.192-2.352c0,0-0.899-1.251,0.317-2.292c1.11-0.949,2.125-0.161,2.125-0.161l2.387,2.244L21.55,27.886z"/>
		
			<radialGradient id="SVGID_19_" cx="24.0895" cy="29.1442" r="17.9347" gradientTransform="matrix(-0.8196 -0.5729 0.48 -0.6866 29.8451 62.9568)" gradientUnits="userSpaceOnUse">
			<stop  offset="0.5728" style="stop-color:#386F8D"/>
			<stop  offset="0.6118" style="stop-color:#3C7492"/>
			<stop  offset="0.6602" style="stop-color:#4984A2"/>
			<stop  offset="0.7132" style="stop-color:#5E9DBB"/>
			<stop  offset="0.7447" style="stop-color:#6DAFCD"/>
			<stop  offset="0.7707" style="stop-color:#72B3D0"/>
			<stop  offset="0.803" style="stop-color:#82BED9"/>
			<stop  offset="0.8383" style="stop-color:#9BD0E7"/>
			<stop  offset="0.8666" style="stop-color:#B4E3F5"/>
			<stop  offset="1" style="stop-color:#8DD7F4"/>
		</radialGradient>
		
			<path style="fill:url(#SVGID_19_);stroke:#053755;stroke-width:1.0006;stroke-linecap:round;stroke-linejoin:round;stroke-miterlimit:1;" d="
			M33.5,18.755c-0.101-0.176-7-9-18.307-3.392c-5.864,2.909-9.925,9.709-6.351,18.282c2.931,7.031,7.658,10.61,7.658,10.61l5.5-4
			c-4-5-5.623-8.329-6.556-10.995c-2.117-6.044,4.836-12.397,10.629-8.044C26.072,21.216,35.803,22.773,33.5,18.755z"/>
		
			<circle style="fill:#053755;stroke:#053755;stroke-width:0.9943;stroke-linecap:round;stroke-linejoin:round;stroke-miterlimit:1;" cx="19.195" cy="42.176" r="3.421"/>
		<g>
			<linearGradient id="SVGID_20_" gradientUnits="userSpaceOnUse" x1="19.6646" y1="45.3263" x2="23.9147" y2="44.9928">
				<stop  offset="0" style="stop-color:#F5F6F6"/>
				<stop  offset="0.9921" style="stop-color:#D2D3D3"/>
			</linearGradient>
			
				<path style="fill:url(#SVGID_20_);stroke:#333332;stroke-width:0.9802;stroke-linecap:round;stroke-linejoin:round;stroke-miterlimit:1;" d="
				M21.451,43.007l-0.001,0.001c-0.256-0.265-0.613-0.432-1.011-0.432c-0.777,0-1.406,0.63-1.406,1.406
				c0,0.396,0.165,0.752,0.428,1.008l-0.001,0.001l2.823,2.823l2.036-1.935L21.451,43.007z"/>
			<linearGradient id="SVGID_21_" gradientUnits="userSpaceOnUse" x1="22.6929" y1="45.8296" x2="23.8443" y2="47.8238">
				<stop  offset="0" style="stop-color:#FFFFFF"/>
				<stop  offset="1" style="stop-color:#F1F0F0"/>
			</linearGradient>
			
				<circle style="fill:url(#SVGID_21_);stroke:#323232;stroke-width:0.9802;stroke-linecap:round;stroke-linejoin:round;stroke-miterlimit:1;" cx="23.251" cy="46.796" r="1.406"/>
		</g>
		<linearGradient id="SVGID_22_" gradientUnits="userSpaceOnUse" x1="39.1095" y1="18.3122" x2="41.2114" y2="21.9528">
			<stop  offset="0" style="stop-color:#ABABAB"/>
			<stop  offset="1" style="stop-color:#5B5B5B"/>
		</linearGradient>
		
			<path style="fill:url(#SVGID_22_);stroke:#333332;stroke-width:0.9802;stroke-linecap:round;stroke-linejoin:round;stroke-miterlimit:1;" d="
			M40.293,23.199l-2.192-2.352c0,0-0.899-1.252,0.317-2.292c1.11-0.949,2.125-0.161,2.125-0.161l2.387,2.244L40.293,23.199z"/>
		<g>
			<linearGradient id="SVGID_23_" gradientUnits="userSpaceOnUse" x1="16.852" y1="44.212" x2="21.1021" y2="43.8785">
				<stop  offset="0" style="stop-color:#F5F6F6"/>
				<stop  offset="0.9921" style="stop-color:#D2D3D3"/>
			</linearGradient>
			
				<path style="fill:url(#SVGID_23_);stroke:#333332;stroke-width:0.9802;stroke-linecap:round;stroke-linejoin:round;stroke-miterlimit:1;" d="
				M18.638,41.893l-0.001,0.001c-0.256-0.265-0.613-0.432-1.011-0.432c-0.777,0-1.406,0.63-1.406,1.406
				c0,0.396,0.165,0.752,0.428,1.008l-0.001,0.001l2.823,2.823l2.036-1.935L18.638,41.893z"/>
			<linearGradient id="SVGID_24_" gradientUnits="userSpaceOnUse" x1="19.8804" y1="44.7153" x2="21.0317" y2="46.7095">
				<stop  offset="0" style="stop-color:#FFFFFF"/>
				<stop  offset="1" style="stop-color:#F1F0F0"/>
			</linearGradient>
			
				<circle style="fill:url(#SVGID_24_);stroke:#323232;stroke-width:0.9802;stroke-linecap:round;stroke-linejoin:round;stroke-miterlimit:1;" cx="20.438" cy="45.681" r="1.406"/>
		</g>
		<g>
			<linearGradient id="SVGID_25_" gradientUnits="userSpaceOnUse" x1="18.9604" y1="42.5137" x2="23.2105" y2="42.1802">
				<stop  offset="0" style="stop-color:#F5F6F6"/>
				<stop  offset="0.9921" style="stop-color:#D2D3D3"/>
			</linearGradient>
			
				<path style="fill:url(#SVGID_25_);stroke:#333332;stroke-width:0.9802;stroke-linecap:round;stroke-linejoin:round;stroke-miterlimit:1;" d="
				M20.746,40.195l-0.001,0.001c-0.256-0.265-0.613-0.432-1.011-0.432c-0.777,0-1.406,0.63-1.406,1.406
				c0,0.396,0.165,0.752,0.428,1.008l-0.001,0.001l2.823,2.823l2.036-1.935L20.746,40.195z"/>
			<linearGradient id="SVGID_26_" gradientUnits="userSpaceOnUse" x1="21.9887" y1="43.017" x2="23.1401" y2="45.0112">
				<stop  offset="0" style="stop-color:#FFFFFF"/>
				<stop  offset="1" style="stop-color:#F1F0F0"/>
			</linearGradient>
			
				<circle style="fill:url(#SVGID_26_);stroke:#323232;stroke-width:0.9802;stroke-linecap:round;stroke-linejoin:round;stroke-miterlimit:1;" cx="22.546" cy="43.983" r="1.406"/>
		</g>
		<g>
			<linearGradient id="SVGID_27_" gradientUnits="userSpaceOnUse" x1="31.7487" y1="19.6379" x2="41.2353" y2="36.0691">
				<stop  offset="0" style="stop-color:#FFFFFF"/>
				<stop  offset="1" style="stop-color:#F1F0F0"/>
			</linearGradient>
			<path style="fill:url(#SVGID_27_);" d="M24.313,25.477l-1.429,1.297l-1.354,0.986v6.366c0,0-0.173,0.306,0.346,0.77
				c0.519,0.464,8.068,8.32,8.068,8.32s0.841,0.757,1.582,0.533c0.74-0.223-0.458-1.838-0.458-1.838l0.259-7.134l22.476-6.844
				l1.354-0.27l-10.72-7.503c0,0-0.202-0.377-1.239,0l-4.177,1.008l-4.149-2.784c0,0,0.749-0.29-0.461,0l-9.221,2.32
				c0,0-0.808,0.122-0.866,1.34L24.313,25.477z"/>
			<linearGradient id="SVGID_28_" gradientUnits="userSpaceOnUse" x1="25.2124" y1="10.0444" x2="26.278" y2="38.8138">
				<stop  offset="0" style="stop-color:#F5F6F6"/>
				<stop  offset="0.9921" style="stop-color:#BFBEBE"/>
			</linearGradient>
			<path style="fill:url(#SVGID_28_);stroke:#787878;stroke-width:0.9867;stroke-miterlimit:10;" d="M21.529,27.76v6.366
				c0,0-0.029,1.425,0.432,1.425l7.836,8.263c0.922,0,0.924-1.303,0.924-1.303v-7.424l-7.838-7.327
				C21.716,26.904,21.529,27.76,21.529,27.76z"/>
			<linearGradient id="SVGID_29_" gradientUnits="userSpaceOnUse" x1="40.3269" y1="31.0706" x2="45.7906" y2="40.534">
				<stop  offset="0" style="stop-color:#FFFFFF"/>
				<stop  offset="1" style="stop-color:#D2D3D3"/>
			</linearGradient>
			
				<path style="fill:url(#SVGID_29_);stroke:#797979;stroke-width:0.9671;stroke-linecap:round;stroke-linejoin:round;stroke-miterlimit:1;" d="
				M30.5,43v-6.5c0,0-0.035-1.861,1.586-2.363c1.622-0.502,22.217-6.522,22.217-6.522s1.277-0.502,1.277,1.034
				c0,1.536,0,6.474,0,6.474s0.031,1.035-0.717,1.38c-0.747,0.345-22.779,7.854-22.779,7.854S30.5,44.319,30.5,43z"/>
			<linearGradient id="SVGID_30_" gradientUnits="userSpaceOnUse" x1="42.9252" y1="33.9966" x2="48.8398" y2="44.241">
				<stop  offset="0" style="stop-color:#FFFFFF"/>
				<stop  offset="1" style="stop-color:#F1F0F0"/>
			</linearGradient>
			
				<path style="fill:url(#SVGID_30_);stroke:#797979;stroke-width:0.9671;stroke-linecap:round;stroke-linejoin:round;stroke-miterlimit:1;" d="
				M35.5,41.5v-4c0,0-0.169-1.021,1.397-1.725l13.024-3.867c0,0,0.538-0.232,1.23,0.155c0.692,0.386,4.466,3.952,4.466,3.952
				s0.644,0.04,0.543,1.113c-0.156,1.657-0.591,3.712-0.591,3.712c-0.092,0.614-0.303,1.102-1.114,1.431
				c-1.33,0.539-12.832,4.408-12.832,4.408s-0.5,0.348-1.114-0.271c-0.615-0.618-4.255-3.897-4.255-3.897S35.566,41.764,35.5,41.5z"
				/>
			<linearGradient id="SVGID_31_" gradientUnits="userSpaceOnUse" x1="38.1274" y1="45.0341" x2="37.9529" y2="37.3572">
				<stop  offset="0" style="stop-color:#F5F6F6"/>
				<stop  offset="0.9921" style="stop-color:#BFBEBE"/>
			</linearGradient>
			<path style="fill:url(#SVGID_31_);stroke:#787878;stroke-miterlimit:10;" d="M35.5,36.36l5.071,3.712v6.032
				c0,0-0.454,0.028-1.069-0.59c-0.615-0.618-4.003-3.585-4.003-3.585V36.36z"/>
			<linearGradient id="SVGID_32_" gradientUnits="userSpaceOnUse" x1="48.5845" y1="41.3031" x2="46.9325" y2="36.6774">
				<stop  offset="0" style="stop-color:#ABABAB"/>
				<stop  offset="1" style="stop-color:#5B5B5B"/>
			</linearGradient>
			<path style="fill:url(#SVGID_32_);stroke:#787878;stroke-width:0.9671;stroke-miterlimit:10;" d="M40.864,41.583
				c0,0,0-1.392,1.019-1.95c-0.097,0.094,12.162-4.019,12.351-4.082c0,0,2.305,0,2.305,1.392v4.64
				c-0.461,0.928-15.214,5.568-15.214,5.568s-0.442-0.049-0.461-0.928C40.854,45.771,40.864,41.583,40.864,41.583z"/>
			<linearGradient id="SVGID_33_" gradientUnits="userSpaceOnUse" x1="24.8881" y1="21.9779" x2="27.0822" y2="25.7782">
				<stop  offset="0" style="stop-color:#D7D7D7"/>
				<stop  offset="1" style="stop-color:#969696"/>
			</linearGradient>
			<polygon style="fill:url(#SVGID_33_);" points="24.266,21.632 29.418,24.917 24.266,25.807 			"/>
			
				<line style="fill:none;stroke:#161616;stroke-width:0.9671;stroke-linecap:round;stroke-linejoin:round;stroke-miterlimit:10;" x1="40.864" y1="41.119" x2="44.091" y2="43.439"/>
			
				<line style="fill:none;stroke:#161616;stroke-width:0.9671;stroke-linecap:round;stroke-linejoin:round;stroke-miterlimit:10;" x1="43.63" y1="39.727" x2="47.088" y2="42.279"/>
			
				<line style="fill:none;stroke:#161616;stroke-width:0.9671;stroke-linecap:round;stroke-linejoin:round;stroke-miterlimit:10;" x1="46.396" y1="38.799" x2="49.854" y2="41.351"/>
			
				<line style="fill:none;stroke:#161616;stroke-width:0.9671;stroke-linecap:round;stroke-linejoin:round;stroke-miterlimit:10;" x1="49.393" y1="38.103" x2="52.851" y2="40.655"/>
			
				<line style="fill:none;stroke:#161616;stroke-width:0.9671;stroke-linecap:round;stroke-linejoin:round;stroke-miterlimit:10;" x1="51.698" y1="36.711" x2="55.156" y2="39.263"/>
			<linearGradient id="SVGID_34_" gradientUnits="userSpaceOnUse" x1="35.7922" y1="39.7267" x2="35.7922" y2="39.7267">
				<stop  offset="0" style="stop-color:#FFFFFF"/>
				<stop  offset="1" style="stop-color:#F1F0F0"/>
			</linearGradient>
			
				<line style="fill:url(#SVGID_34_);stroke:#797979;stroke-width:0.9671;stroke-linecap:round;stroke-linejoin:round;stroke-miterlimit:1;" x1="35.792" y1="36.943" x2="35.792" y2="42.511"/>
			<path style="fill:#5A5A5A;" d="M40.864,42.047c-0.001,0-0.001,0-0.002,0c-0.254-0.001-0.459-0.208-0.459-0.463
				c0-0.068,0.014-1.676,1.259-2.357c0.052-0.029,0.106-0.046,0.161-0.053c0.646-0.175,8.266-2.721,12.265-4.062
				c0.047-0.016,0.096-0.024,0.146-0.024c1.027,0,2.766,0.391,2.766,1.856c0,0.256-0.206,0.464-0.461,0.464
				c-0.255,0-0.461-0.208-0.461-0.464c0-0.79-1.445-0.909-1.777-0.925c-8.503,2.852-11.265,3.778-12.229,3.966l0.031,0.057
				c-0.76,0.416-0.778,1.533-0.778,1.544C41.323,41.84,41.117,42.047,40.864,42.047z"/>
			
				<path style="fill:none;stroke:#333332;stroke-width:0.9671;stroke-linecap:round;stroke-linejoin:round;stroke-miterlimit:1;" d="
				M56.539,36.943c0-0.611-0.66-1.031-0.987-1.116c0.031-0.191,0.028-0.329,0.028-0.329s0-4.937,0-6.474c0-0.588,0-1.098,0-1.098
				L44.436,20.16c0,0-0.202-0.377-1.239,0l-4.553,1.015l-3.285-2.523c0,0,0.058-0.435-1.153-0.145l-8.788,2.117
				c0,0-1.037,0.058-1.095,1.276l0,0.143l-0.058-0.037v3.887l-1.381,0.88c0,0-1.384-0.038-1.356,1.361v6.366
				c0,0-0.173,0.306,0.346,0.77c0.519,0.464,7.924,8.542,7.924,8.542c0.14,0,0.886,0.997,2.288,0.543
				c1.402-0.454,1.48-0.653,4.261-1.557c0.594,0.651,3.909,3.729,4.161,3.982c0.615,0.618,1.114,0.271,1.114,0.271
				s11.502-3.869,12.832-4.408c0.177-0.072,2.086-0.599,2.086-1.527S56.539,36.943,56.539,36.943z"/>
		</g>
	</g>
</g>
</svg>
