<svg id="_1X_copy_3" data-name="1X copy 3" xmlns="http://www.w3.org/2000/svg" xmlns:xlink="http://www.w3.org/1999/xlink" viewBox="0 0 64 64"><defs><style>.cls-1,.cls-16,.cls-23,.cls-38,.cls-4,.cls-6{fill:none;}.cls-2,.cls-23,.cls-24,.cls-26,.cls-3,.cls-30,.cls-31,.cls-4{stroke:#000;}.cls-10,.cls-17,.cls-19,.cls-2,.cls-20,.cls-23,.cls-24,.cls-25,.cls-26,.cls-28,.cls-29,.cls-3,.cls-30,.cls-31,.cls-32,.cls-33,.cls-35,.cls-38,.cls-7,.cls-8{stroke-miterlimit:10;}.cls-2,.cls-3{stroke-width:0.65px;}.cls-2{fill:url(#Dark_BLUE_gradient_LEFT);}.cls-3{fill:url(#SKETCH_BLUE_gradient);}.cls-13,.cls-14,.cls-16,.cls-17,.cls-18,.cls-20,.cls-4,.cls-6{stroke-linecap:round;}.cls-13,.cls-14,.cls-16,.cls-18,.cls-4,.cls-6{stroke-linejoin:round;}.cls-5{clip-path:url(#clip-path);}.cls-13,.cls-14,.cls-16,.cls-18,.cls-19,.cls-6,.cls-8{stroke:#797979;}.cls-7{fill:#323232;}.cls-10,.cls-20,.cls-7{stroke:#323232;}.cls-10,.cls-14,.cls-16,.cls-18,.cls-7,.cls-8{stroke-width:0.2px;}.cls-8{fill:url(#top_white);}.cls-9{fill:url(#top_white-2);}.cls-10{fill:url(#white_left);}.cls-11,.cls-17{fill:#797979;}.cls-12{isolation:isolate;}.cls-13,.cls-17,.cls-19,.cls-20,.cls-30{stroke-width:0.43px;}.cls-13{fill:url(#top_white-3);}.cls-14{fill:url(#white_left-2);}.cls-15{fill:url(#white_front_right);}.cls-17,.cls-25,.cls-33,.cls-35,.cls-38{stroke:#231f20;}.cls-18{fill:url(#top_white-4);}.cls-19{fill:url(#white_left-3);}.cls-20{fill:url(#white_left-4);}.cls-21{fill:url(#Dark_BLUE_gradient_LEFT-2);}.cls-22,.cls-31{fill:#aadcfa;}.cls-23,.cls-24,.cls-25,.cls-31,.cls-32{stroke-width:0.17px;}.cls-24,.cls-26,.cls-27,.cls-29,.cls-30{fill:#285977;}.cls-25{fill:url(#Medium_BLUE_gradient_FRONT);}.cls-26,.cls-29{stroke-width:0.17px;}.cls-28,.cls-35{fill:#5a9ab8;}.cls-28{stroke:#82bddb;}.cls-29{stroke:#285977;}.cls-32{fill:url(#top_white-5);stroke:url(#top_white-6);}.cls-33,.cls-35{stroke-width:0.14px;}.cls-33{fill:url(#radial-gradient);}.cls-34{clip-path:url(#clip-path-2);}.cls-36{fill:#2d6d8b;}.cls-37{fill:url(#New_Gradient_Swatch_1);}.cls-38{stroke-width:0.53px;}</style><linearGradient id="Dark_BLUE_gradient_LEFT" x1="-237.41" y1="135.29" x2="-229.21" y2="135.29" gradientTransform="matrix(0.93, -0.37, 0.37, 0.93, 198.47, -173.39)" gradientUnits="userSpaceOnUse"><stop offset="0" stop-color="#82bedc"/><stop offset="1" stop-color="#285a78"/></linearGradient><linearGradient id="SKETCH_BLUE_gradient" x1="-233.9" y1="123.76" x2="-225.7" y2="123.76" gradientTransform="matrix(0.93, -0.37, 0.37, 0.93, 198.47, -173.39)" gradientUnits="userSpaceOnUse"><stop offset="0" stop-color="#3287af"/><stop offset="1" stop-color="#285a78"/></linearGradient><clipPath id="clip-path"><polygon class="cls-1" points="56.07 25.76 7 30 4.88 30.08 28 14 54 21 60 27 60 28.74 58.71 27.83 56.07 25.76"/></clipPath><linearGradient id="top_white" x1="-230.58" y1="136.73" x2="-204.81" y2="136.73" gradientTransform="matrix(0.93, -0.37, 0.37, 0.93, 198.47, -173.39)" gradientUnits="userSpaceOnUse"><stop offset="0" stop-color="#fff"/><stop offset="1" stop-color="#f0f0f0"/></linearGradient><linearGradient id="top_white-2" x1="-230.58" y1="136.77" x2="-204.71" y2="136.77" xlink:href="#top_white"/><linearGradient id="white_left" x1="48.73" y1="38.68" x2="36.44" y2="31.55" gradientUnits="userSpaceOnUse"><stop offset="0" stop-color="#f5f5f5"/><stop offset="1" stop-color="#bebebe"/></linearGradient><linearGradient id="top_white-3" x1="-234.51" y1="131.07" x2="-207.81" y2="131.07" xlink:href="#top_white"/><linearGradient id="white_left-2" x1="-252.71" y1="123.37" x2="-207.84" y2="123.37" gradientTransform="matrix(0.93, -0.37, 0.37, 0.93, 198.47, -173.39)" xlink:href="#white_left"/><linearGradient id="white_front_right" x1="-253.36" y1="115.61" x2="-226.04" y2="115.61" gradientTransform="matrix(0.93, -0.37, 0.37, 0.93, 198.47, -173.39)" gradientUnits="userSpaceOnUse"><stop offset="0" stop-color="#fff"/><stop offset="1" stop-color="#d2d2d2"/></linearGradient><linearGradient id="top_white-4" x1="-254.96" y1="114.28" x2="-226.7" y2="114.28" xlink:href="#top_white"/><linearGradient id="white_left-3" x1="51.5" y1="36.42" x2="47.56" y2="34.13" xlink:href="#white_left"/><linearGradient id="white_left-4" x1="47.12" y1="34.3" x2="42.9" y2="31.86" xlink:href="#white_left"/><linearGradient id="Dark_BLUE_gradient_LEFT-2" x1="-240.91" y1="125.97" x2="-219.01" y2="125.97" xlink:href="#Dark_BLUE_gradient_LEFT"/><linearGradient id="Medium_BLUE_gradient_FRONT" x1="-236.26" y1="118.12" x2="-223.43" y2="118.12" gradientTransform="matrix(0.93, -0.37, 0.37, 0.93, 198.47, -173.39)" gradientUnits="userSpaceOnUse"><stop offset="0" stop-color="#8cd7f5"/><stop offset="1" stop-color="#376e8c"/></linearGradient><linearGradient id="top_white-5" x1="22.84" y1="21.85" x2="35.55" y2="21.85" gradientTransform="matrix(1, 0, 0, 1, 0, 0)" xlink:href="#top_white"/><linearGradient id="top_white-6" x1="22.75" y1="21.85" x2="35.64" y2="21.85" gradientTransform="matrix(1, 0, 0, 1, 0, 0)" xlink:href="#top_white"/><radialGradient id="radial-gradient" cx="-229.96" cy="119.04" r="3" gradientTransform="translate(226.78 -115.22) rotate(-17.72) scale(1 0.6)" xlink:href="#Medium_BLUE_gradient_FRONT"/><clipPath id="clip-path-2"><path class="cls-1" d="M30.48,20.55c1.16,0,1.47.63.7,1.42a5.66,5.66,0,0,1-3.5,1.45c-1.16,0-1.48-.63-.71-1.42A5.69,5.69,0,0,1,30.48,20.55Z"/></clipPath><linearGradient id="New_Gradient_Swatch_1" x1="26.55" y1="21.9" x2="31.6" y2="21.9" gradientUnits="userSpaceOnUse"><stop offset="0" stop-color="#464646"/><stop offset="0.99" stop-color="#141414"/></linearGradient></defs><title>ddd__A33AAe__R21XArtboard 1</title><g id="tige_ok" data-name="tige   ok"><path class="cls-2" d="M35.19,25.6c2.09,5.28,6.07,15.29,7.88,19.8.16.4,0,.93-.58,1.52a8.1,8.1,0,0,1-5.25,2.18c-.93,0-1.51-.28-1.69-.72-2.09-5.27-5.89-14.47-8-19.75.18.44.76.72,1.69.72a8.4,8.4,0,0,0,5.36-2.23C35.16,26.54,35.34,26,35.19,25.6Z"/><path class="cls-3" d="M33.5,24.89c1.78,0,2.28,1,1.11,2.23a8.4,8.4,0,0,1-5.36,2.23c-1.78,0-2.28-1-1.11-2.24A8.37,8.37,0,0,1,33.5,24.89Z"/></g><path id="_Contour_noir_" data-name="&lt;Contour noir **" class="cls-4" d="M13.77,38.82l1.54-1.06,21.75,5.76L58.6,27.77,57.85,26l-5.09-1.54,1-.73-.65-1.51L30.92,16.47a3,3,0,0,1-1.36-1.67l-.86-.21L5.62,30.09c.75,1.77,2.08,3.22,3,3.44l5.19,1.37c-.39.27-1,.74-1,.73-.55.18-.53,1.33.16,3Z"/><g class="cls-5"><path id="_Contour_noir_2" data-name="&lt;Contour noir **" class="cls-6" d="M13.77,38.73l1.54-1.06,21.75,5.48L58.6,27.77l-.75-1.83-5.09-1.46,1-.74-.55-1.49L30.92,16.38a3,3,0,0,1-1.36-1.67l-.86-.21L5.62,30c.75,1.77,2.08,3.22,3,3.44l5.19,1.36c-.39.27-1,.75-1,.74-.55.17-.53,1.33.16,3Z"/></g><g id="Layer_31_copy_3" data-name="Layer 31 copy 3"><g id="plaque_" data-name="plaque   *"><path class="cls-7" d="M13.65,37.41C19.49,33.5,30.35,26,36.19,22c-.21.14-.2.64.12,1.41L13.77,38.82C13.45,38,13.43,37.53,13.65,37.41Z"/><polygon class="cls-8" points="36.3 41.47 57.84 26.04 58.59 27.82 37.05 43.24 36.3 41.47"/><polygon class="cls-9" points="36.3 41.47 57.88 26.1 58.71 27.86 37.05 43.24 36.3 41.47"/><path class="cls-10" d="M35.64,20.2a.93.93,0,0,0-.43,0S18.86,31.35,12.68,35.66a.53.53,0,0,1,.42,0l23.2,5.85L57.88,26.1Z"/><path class="cls-11" d="M36.3,41.47l.75,1.77L13.85,37.4c-.41-.11-.48.45-.08,1.42l-.85-.22c-.81-1.93-.71-3.2.18-3Z"/></g><g id="plaque_2" data-name="plaque   *" class="cls-12"><polygon class="cls-13" points="30.48 37.51 53.01 22.08 53.76 23.85 31.22 39.28 30.48 37.51"/><polygon id="surf" class="cls-14" points="8.56 31.78 31.1 16.36 53.01 22.08 30.48 37.51 8.56 31.78"/><path id="surf-2" data-name="surf" class="cls-15" d="M7.2,30.14,29.73,14.72a3.08,3.08,0,0,0,1.37,1.64L8.56,31.78A3,3,0,0,1,7.2,30.14Z"/><path id="contour" class="cls-16" d="M31.1,16.36a3.08,3.08,0,0,1-1.37-1.64L7.2,30.14a3,3,0,0,0,1.36,1.64l21.91,5.73L53,22.08Z"/><path class="cls-11" d="M7.2,30.14a3,3,0,0,0,1.36,1.64l21.91,5.73.75,1.77L9,33.57C8.14,33.35,7.2,33.32,5.7,30Z"/><line id="L_noire" data-name="L noire" class="cls-17" x1="31.13" y1="39.4" x2="9.4" y2="33.88"/><polygon class="cls-18" points="5.43 30.02 28.64 14.47 29.73 14.71 7.2 30.14 5.43 30.02"/></g><line class="cls-19" x1="36.37" y1="41.57" x2="57.99" y2="26.26"/><line class="cls-20" x1="31.21" y1="39.36" x2="53.8" y2="23.89"/></g><g id="top_copy_3" data-name="top copy 3"><path class="cls-21" d="M41.38,23.07l.39,1.07c.37,1.05-.17,2.43-1.73,3.93-3.26,3.12-9.75,5.55-14.48,5.42-2.47-.07-4-.82-4.39-2l-.39-1.07c.41,1.14,1.92,1.89,4.39,2,4.74.13,11.22-2.3,14.49-5.42C41.21,25.5,41.76,24.12,41.38,23.07Z"/><path class="cls-22" d="M37,21.1c4.74.13,5.93,2.77,2.67,5.89s-9.75,5.55-14.49,5.42-5.93-2.77-2.66-5.89S32.26,21,37,21.1Z"/><path class="cls-23" d="M37,21.1c4.74.13,5.93,2.77,2.67,5.89s-9.75,5.55-14.49,5.42-5.93-2.77-2.66-5.89S32.26,21,37,21.1Z"/><path class="cls-24" d="M41.38,23.07l.39,1.07c.37,1.05-.17,2.43-1.73,3.93-3.26,3.12-9.75,5.55-14.48,5.42-2.47-.07-4-.82-4.39-2l-.39-1.07c.41,1.14,1.92,1.89,4.39,2,4.74.13,11.22-2.3,14.49-5.42C41.21,25.5,41.76,24.12,41.38,23.07Z"/><path class="cls-25" d="M34.49,18.56l.14,0c.46.2-1.09,1.21-.93,1.55s2,0,1.88.45S33.49,21.47,33,22s.48,1-.22,1.44a2,2,0,0,1-1.13.21h-.46a2.68,2.68,0,0,0-1,.12c-.81.32-1.32,1.4-2.15,1.57l-.19,0c-.59,0-.43-.85-1.11-.86s-2.14.79-2.73.78l-.15,0c-.46-.2,1.13-1.23,1-1.57-.08-.15-.52-.16-1-.17s-1,0-.94-.26c.15-.44,2.08-.89,2.58-1.39s-.49-1,.21-1.45A2.61,2.61,0,0,1,27,20.17h.08A3.55,3.55,0,0,0,28.35,20c.81-.32,1.27-1.37,2.1-1.54l.19,0c.6,0,.43.85,1.11.86S33.89,18.55,34.49,18.56Z"/><path class="cls-26" d="M34.77,26.77c.5-.5,2.51-1,2.67-1.44l-1.92-4.8a.07.07,0,0,1,0,.08c-.28.49-2.09.89-2.58,1.39a.51.51,0,0,0-.09.63L33,23a.5.5,0,0,1-.22.49c-.55.3-2,.05-2.67.28s-1.28,1.56-2.29,1.56c-.59,0-.48-.83-1.16-.85s-2.44,1-2.9.68c.28,1,1.6,3.91,1.79,4.67.14.52,2.34-.63,3-.62s.58.9,1.18.91c.83,0,1.4-1.22,2.21-1.54.31-.13,2.36-.21,2.67-.41.51-.22.23-.66.06-1.13A.29.29,0,0,1,34.77,26.77Z"/><path id="ar" class="cls-27" d="M24.7,28l-1.6-4.8c.06.15,2-.36,2.14.21l1.9,4.72C27.37,27.92,24.76,28.17,24.7,28Z"/><path class="cls-27" d="M34.87,18.65c.6,1.58,1.08,2.83,1.68,4.42.12.3-1.09,1-1,1.35L33.7,20.13C33.57,19.82,35,19,34.87,18.65Z"/><path id="A" class="cls-28" d="M30.05,23.78c.62-.45,1.81.15,2.77-.38a.49.49,0,0,0,.16-.64l1.9,4.73a.5.5,0,0,1-.26.67c-.93.51-2.25.18-2.67.35Z"/><path id="A-2" data-name="A" class="cls-29" d="M27.82,25.32c-.59,0-.43-.85-1.11-.86s-2.74,1.25-2.95.69,1.62,4.33,1.79,4.76,2.34-.72,3-.71.58.83,1.17.84Z"/><path id="A-3" data-name="A" class="cls-28" d="M27.82,25.32c-.59,0-.43-.85-1.11-.86.47,1.24,1.36,3.62,1.85,4.74.68,0,.58.83,1.17.84Z"/><path class="cls-30" d="M37.55,25.33c-.11-.28-2-4.76-2-4.72-.28.49-2.09.89-2.58,1.39a.51.51,0,0,0-.09.63L33,23a.5.5,0,0,1-.22.49c-.55.3-2,.05-2.67.28s-1.28,1.56-2.29,1.56c-.59,0-.48-.83-1.16-.85a21.21,21.21,0,0,0-3.09.68S25,29,25.36,29.86s2.33-.48,3-.49c.82,0,.77.87,1.37.88.83,0,1.46-1.27,2.27-1.59a5.93,5.93,0,0,1,1.6-.13c.88,0,1.85-.38,1.32-1.55C34.85,26.27,37.74,25.92,37.55,25.33Z"/><path class="cls-31" d="M34.49,18.56l.14,0c.46.2-1.09,1.21-.93,1.55s2,0,1.88.45S33.49,21.47,33,22s.48,1-.22,1.44a2,2,0,0,1-1.13.21h-.46a2.68,2.68,0,0,0-1,.12c-.81.32-1.32,1.4-2.15,1.57l-.19,0c-.59,0-.43-.85-1.11-.86s-2.14.79-2.73.78l-.15,0c-.46-.2,1.13-1.23,1-1.57-.08-.15-.52-.16-1-.17s-1,0-.94-.26c.15-.44,2.08-.89,2.58-1.39s-.49-1,.21-1.45A2.61,2.61,0,0,1,27,20.17h.08A3.55,3.55,0,0,0,28.35,20c.81-.32,1.27-1.37,2.1-1.54l.19,0c.6,0,.43.85,1.11.86S33.89,18.55,34.49,18.56Z"/><path class="cls-32" d="M34.45,18.51a.29.29,0,0,1,.14,0c.46.19-1.09,1.21-.93,1.55s2,0,1.88.44-2.08.89-2.58,1.4.49,1-.21,1.44a2.1,2.1,0,0,1-1.13.2h-.47a2.63,2.63,0,0,0-1,.13c-.81.32-1.33,1.39-2.15,1.56a.68.68,0,0,1-.19,0c-.6,0-.44-.85-1.11-.86s-2.14.8-2.74.79a.29.29,0,0,1-.14,0c-.47-.2,1.12-1.22,1-1.56-.08-.16-.52-.17-1-.18s-1,0-.94-.25c.16-.44,2.08-.9,2.58-1.4s-.49-1,.21-1.44A2.43,2.43,0,0,1,27,20.13H27A3.29,3.29,0,0,0,28.31,20c.81-.32,1.28-1.37,2.1-1.54a.68.68,0,0,1,.19,0c.6,0,.43.85,1.11.86S33.85,18.5,34.45,18.51Z"/><path class="cls-33" d="M30.48,20.55c1.16,0,1.47.63.7,1.42a5.66,5.66,0,0,1-3.5,1.45c-1.16,0-1.48-.63-.71-1.42A5.69,5.69,0,0,1,30.48,20.55Z"/><g class="cls-34"><path class="cls-35" d="M30.48,20.55c1.16,0,1.47.63.7,1.42a5.66,5.66,0,0,1-3.5,1.45c-1.16,0-1.48-.63-.71-1.42A5.69,5.69,0,0,1,30.48,20.55Z"/><path class="cls-36" d="M30.42,21.46c.93,0,1.18.5.56,1.14a4.56,4.56,0,0,1-2.8,1.16c-.93,0-1.18-.5-.57-1.14A4.58,4.58,0,0,1,30.42,21.46Z"/><path class="cls-37" d="M31.6,21.29a2.93,2.93,0,0,0-.05-.29c-.1-.25-.42-.41-.95-.43A5.91,5.91,0,0,0,27,22c-.44.42-.5.76-.39,1l.19.22c-.11-.27-.14-.58.3-1a5.82,5.82,0,0,1,3.58-1.38C31.19,20.86,31.5,21,31.6,21.29Z"/></g><path id="contour-2" data-name="contour" class="cls-38" d="M41.4,22.67s-1-1.51-4.4-1.52c-.4,0-.7-.12-1.13-.09,0-.08-.11-.94-.4-1-.07-.18-.53-1.27-.6-1.44h0s0-.11-.21-.11c-.6,0-2.23.82-2.91.8s-.51-.85-1.11-.86l-.19,0c-.83.17-1.29,1.22-2.1,1.54a4.77,4.77,0,0,1-1.36.13,2.61,2.61,0,0,0-1.31.21c-.7.44.28.94-.21,1.45s-2.74,1-2.59,1.48.7,2.14.7,2.14a15.3,15.3,0,0,0-1.16,1.09c-1.6,1.53-2.15,2.94-1.72,4,0,0,.27.63.4,1,.41,1.15,1.89,1.91,4.37,2,4.73.12,11.07-2.46,14.48-5.42,2.32-2,2-3.82,2-3.82Z"/></g></svg>