<svg xmlns="http://www.w3.org/2000/svg" xmlns:xlink="http://www.w3.org/1999/xlink" viewBox="0 0 64 64"><defs><linearGradient id="linear-gradient" x1="24.42" y1="24.1" x2="39.53" y2="50.28" gradientUnits="userSpaceOnUse"><stop offset="0" stop-color="#f5f6f6"/><stop offset="0.99" stop-color="#bfbebe"/></linearGradient><linearGradient id="linear-gradient-2" x1="29.95" y1="16.98" x2="33.15" y2="22.53" gradientUnits="userSpaceOnUse"><stop offset="0" stop-color="#fff"/><stop offset="1" stop-color="#f1f0f0"/></linearGradient><linearGradient id="linear-gradient-3" x1="44.38" y1="36.95" x2="49.86" y2="46.46" gradientUnits="userSpaceOnUse"><stop offset="0" stop-color="#fff"/><stop offset="1" stop-color="#d2d3d3"/></linearGradient><linearGradient id="linear-gradient-4" x1="38.57" y1="30.25" x2="34.37" y2="22.98" gradientUnits="userSpaceOnUse"><stop offset="0" stop-color="#386f8d"/><stop offset="1" stop-color="#8dd7f4"/></linearGradient><linearGradient id="linear-gradient-5" x1="44.07" y1="37.46" x2="40.15" y2="30.66" xlink:href="#linear-gradient-4"/><linearGradient id="linear-gradient-6" x1="8.56" y1="23.78" x2="13.68" y2="32.63" gradientUnits="userSpaceOnUse"><stop offset="0" stop-color="#f5f6f6"/><stop offset="0.99" stop-color="#d2d3d3"/></linearGradient><linearGradient id="linear-gradient-7" x1="26.72" y1="43.59" x2="35.69" y2="59.13" xlink:href="#linear-gradient-6"/><linearGradient id="linear-gradient-8" x1="21.83" y1="53.31" x2="19.17" y2="48.69" gradientUnits="userSpaceOnUse"><stop offset="0" stop-color="#161616"/><stop offset="1" stop-color="#515151"/></linearGradient><linearGradient id="linear-gradient-9" x1="28.86" y1="53.36" x2="26.14" y2="48.64" xlink:href="#linear-gradient-8"/><linearGradient id="linear-gradient-10" x1="30.84" y1="54.09" x2="30.16" y2="52.91" xlink:href="#linear-gradient-8"/><linearGradient id="linear-gradient-11" x1="42.02" y1="54.93" x2="38.74" y2="49.24" xlink:href="#linear-gradient-8"/><linearGradient id="linear-gradient-12" x1="34.71" y1="53.96" x2="31.79" y2="48.91" xlink:href="#linear-gradient-8"/></defs><title>CATFTA_AP_AppIcon</title><g id="Layer_7_copy" data-name="Layer 7 copy"><polygon points="20.5 21.5 41.5 27.5 41.5 52.5 20.5 43.5 20.5 21.5" stroke="#797979" stroke-linecap="round" stroke-linejoin="round" fill="url(#linear-gradient)"/><polygon points="20.5 21.5 34.5 16.5 42.5 17.83 30.5 24.5 20.5 21.5" stroke="#797979" stroke-linecap="round" stroke-linejoin="round" fill="url(#linear-gradient-2)"/><polygon points="41.5 52.5 41.5 39.5 52.5 30.5 52.5 41.5 41.5 52.5" stroke="#797979" stroke-linecap="round" stroke-linejoin="round" fill="url(#linear-gradient-3)"/><rect x="20" y="13" width="1" height="9" fill="#141414"/><rect x="34" y="9" width="1" height="8" fill="#141414"/><polygon points="20 16 24 11 24 18 20 16" fill="#141414"/><polygon points="31 9 35 12 31 16 31 9" fill="#141414"/><line x1="23" y1="15" x2="32" y2="12.5" fill="none" stroke="#141414" stroke-miterlimit="10" stroke-width="2"/><polygon points="34.5 16.5 20.5 21.5 20.5 43.5 41.5 52.5 52.5 41.5 52.5 30.5 42.5 28.5 42.5 17.83 34.5 16.5" fill="none" stroke="#333332" stroke-linecap="round" stroke-linejoin="round"/></g><g id="Layer_6" data-name="Layer 6"><polygon points="30.5 35.5 30.5 24.36 42.5 17.83 42.5 28.5 30.5 35.5" stroke="#053755" stroke-linecap="round" stroke-linejoin="round" fill="url(#linear-gradient-4)"/><polygon points="30.5 35.5 41.5 39.5 52.5 30.5 42.5 28.5 30.5 35.5" stroke="#053755" stroke-linecap="round" stroke-linejoin="round" fill="url(#linear-gradient-5)"/></g><g id="Layer_9" data-name="Layer 9"><polyline points="42 34 57.5 42 45.5 53" fill="none" stroke="#141414" stroke-linejoin="round" fill-rule="evenodd"/><line x1="38" y1="26" x2="13.5" y2="39.5" fill="none" stroke="#141414" stroke-miterlimit="10"/><circle cx="42" cy="34" r="2" fill="#141414"/><circle cx="38" cy="26" r="2" fill="#141414"/><polygon points="7 40 10 37 10 32 12 32 12 37 15 40 7 40" fill="#141414" fill-rule="evenodd"/><rect x="6.5" y="23.5" width="9" height="9" stroke="#333332" stroke-linecap="round" stroke-linejoin="round" fill="url(#linear-gradient-6)"/><polyline points="8.5 30.5 11 25.5 13.5 30.5" fill="none" stroke="#151515" stroke-linecap="round" stroke-linejoin="round"/><line x1="13" y1="29.5" x2="9" y2="29.5" fill="none" stroke="#151515" stroke-miterlimit="10"/><rect x="16.5" y="46.5" width="29" height="9" rx="1" stroke="#333332" stroke-linecap="round" stroke-linejoin="round" fill="url(#linear-gradient-7)"/><line x1="20.5" y1="48.5" x2="20.5" y2="53.5" fill="none" stroke-linecap="round" stroke-miterlimit="10" stroke="url(#linear-gradient-8)"/><ellipse cx="27.5" cy="51" rx="1" ry="2.5" fill="none" stroke-miterlimit="10" stroke="url(#linear-gradient-9)"/><rect x="30" y="53" width="1" height="1" fill="url(#linear-gradient-10)"/><line x1="24.5" y1="46.5" x2="24.5" y2="55.5" fill="none" stroke="#333332" stroke-linecap="round" stroke-linejoin="round"/><line x1="36.5" y1="46.5" x2="36.5" y2="55.5" fill="none" stroke="#333332" stroke-linecap="round" stroke-linejoin="round"/><path d="M44,53.28l-2.5-5a.52.52,0,0,0-.9,0l-2.5,5a.5.5,0,1,0,.9.44l.36-.72h3.38l.36.72a.5.5,0,0,0,.45.28.54.54,0,0,0,.22,0A.51.51,0,0,0,44,53.28ZM39.81,52,41,49.62,42.19,52Z" fill="url(#linear-gradient-11)"/><path d="M34.5,53H34V48.5a.5.5,0,0,0-.31-.46.48.48,0,0,0-.54.11l-1,1a.49.49,0,0,0,.7.7l.15-.14V53h-.5a.5.5,0,0,0,0,1h2a.5.5,0,0,0,0-1Z" fill="url(#linear-gradient-12)"/></g></svg>