<svg id="_1_X_copy" data-name="1 X    **** copy" xmlns="http://www.w3.org/2000/svg" xmlns:xlink="http://www.w3.org/1999/xlink" viewBox="0 0 64 64"><defs><style>.cls-1{fill:url(#Dark_BLUE_gradient_LEFT);}.cls-2{fill:#2d6d8b;}.cls-13,.cls-15,.cls-3,.cls-5,.cls-6,.cls-8,.cls-9{fill:none;}.cls-15,.cls-3,.cls-9{stroke:#000;}.cls-3,.cls-5,.cls-6,.cls-8,.cls-9{stroke-linecap:round;stroke-linejoin:round;}.cls-13,.cls-3{stroke-width:0.99px;}.cls-4{fill:url(#Dark_BLUE_gradient_LEFT-2);}.cls-5{stroke:#aadcfa;stroke-width:0.57px;}.cls-6,.cls-7,.cls-8{stroke:#fff;}.cls-6{stroke-width:0.71px;}.cls-11,.cls-7{fill:#fff;}.cls-7{stroke-miterlimit:10;}.cls-8{stroke-width:2.83px;}.cls-9{stroke-width:1.28px;}.cls-10{fill:url(#top_white);}.cls-12{fill:url(#white_left);}.cls-13{stroke:#285977;}.cls-14{fill:url(#top_white-2);}.cls-15{stroke-width:0.28px;}.cls-16{fill:url(#Light_BLUE_gradient_TOP);}</style><linearGradient id="Dark_BLUE_gradient_LEFT" x1="8.26" y1="40.11" x2="59.07" y2="40.11" gradientUnits="userSpaceOnUse"><stop offset="0" stop-color="#82bedc"/><stop offset="1" stop-color="#285a78"/></linearGradient><linearGradient id="Dark_BLUE_gradient_LEFT-2" x1="8.26" y1="39.44" x2="59.07" y2="39.44" xlink:href="#Dark_BLUE_gradient_LEFT"/><linearGradient id="top_white" x1="7.35" y1="23.65" x2="57.25" y2="23.65" gradientUnits="userSpaceOnUse"><stop offset="0" stop-color="#fff"/><stop offset="1" stop-color="#f0f0f0"/></linearGradient><linearGradient id="white_left" x1="7.35" y1="23.65" x2="57.25" y2="23.65" gradientUnits="userSpaceOnUse"><stop offset="0" stop-color="#f5f5f5"/><stop offset="1" stop-color="#bebebe"/></linearGradient><linearGradient id="top_white-2" x1="7.35" y1="23.21" x2="57.25" y2="23.21" xlink:href="#top_white"/><linearGradient id="Light_BLUE_gradient_TOP" x1="30.61" y1="23.21" x2="58.88" y2="23.21" gradientUnits="userSpaceOnUse"><stop offset="0" stop-color="#a0e1fa"/><stop offset="0.99" stop-color="#73c3e1"/></linearGradient></defs><title>ddd__A33AAe__R21XArtboard 1</title><g id="support_copy" data-name="support  ** copy"><g id="dessous"><polygon class="cls-1" points="59.07 36.38 44.64 51.84 8.26 38.59 25.04 28.38 59.07 36.38"/><polygon class="cls-2" points="59.07 36.38 44.64 51.84 8.26 38.59 25.04 28.38 59.07 36.38"/><polygon class="cls-3" points="59.07 36.38 44.64 51.84 8.26 38.59 25.04 28.38 59.07 36.38"/></g><g id="dessus"><polygon class="cls-4" points="59.07 35.71 44.64 51.17 8.26 37.92 25.04 27.71 59.07 35.71"/><polygon class="cls-2" points="59.07 35.71 44.64 51.17 8.26 37.92 25.04 27.71 59.07 35.71"/><polygon class="cls-5" points="59.07 35.71 44.64 51.17 8.26 37.92 25.04 27.71 59.07 35.71"/></g></g><g id="organigramme_copy" data-name="organigramme  ** copy"><path id="liens" class="cls-6" d="M33.72,36.25l-1.81,1.63m6.81,4.87,2-1.81-7.7-2.37-6.7-2.07L24.6,38"/><path id="carrés" class="cls-7" d="M34.88,40.71l7.71,2.41-3.38,3.2-7.85-2.67ZM17.86,39l6.88,2.42,3.53-2.69-6.79-2.15ZM40,38.1,49,40.65l3.53-3.49-8.76-2.24ZM30.4,35.38l8.08,2.29,3.7-3.13-8-2.08Zm2.22-3.31-6.87-1.73-4,2.62,6.94,2Z"/></g><g id="liens_copy" data-name="liens  ** copy"><path class="cls-8" d="M22.58,25.29c0,9.59-5.35.92-5.35,10.71"/><path class="cls-9" d="M22.58,25.29c0,9.59-5.35.92-5.35,10.71"/><path class="cls-8" d="M38.59,31.33C38.63,39.21,35,34.92,35,43"/><path class="cls-9" d="M38.59,31.33C38.63,39.21,35,34.92,35,43"/><path class="cls-8" d="M52.41,24.63C52.41,38.25,48,30.08,48,38"/><path class="cls-9" d="M52.41,24.63C52.41,38.25,48,30.08,48,38"/></g><g id="_Group_top_" data-name="&lt;Group&gt; top  **"><path class="cls-10" d="M55.22,19.22c2.14.5,2.67,2.23,1.18,3.85l-8.53,9.27a7.18,7.18,0,0,1-6.56,1.87l-32.24-9c-2.11-.59-2.31-2-.42-3.15l12.91-7.8a11.34,11.34,0,0,1,7.32-1.16Z"/><path class="cls-11" d="M54.07,19.44c2,.48,2.54,2.12,1.13,3.66l-8.11,8.81a6.79,6.79,0,0,1-6.23,1.77L10.24,25.13c-2-.56-2.2-1.91-.41-3L22.1,14.73a10.8,10.8,0,0,1,7-1.11Z"/><path class="cls-12" d="M55.22,19.22c2.14.5,2.67,2.23,1.18,3.85l-8.53,9.27a7.18,7.18,0,0,1-6.56,1.87l-32.24-9c-2.11-.59-2.31-2-.42-3.15l12.91-7.8a11.34,11.34,0,0,1,7.32-1.16Z"/><path class="cls-13" d="M55.22,19.22c2.14.5,2.67,2.23,1.18,3.85l-8.53,9.27a7.18,7.18,0,0,1-6.56,1.87l-32.24-9c-2.11-.59-2.31-2-.42-3.15l12.91-7.8a11.34,11.34,0,0,1,7.32-1.16Z"/><path class="cls-14" d="M55.22,18.78c2.14.5,2.67,2.23,1.18,3.85L47.87,31.9a7.18,7.18,0,0,1-6.56,1.87l-32.24-9c-2.11-.59-2.31-2-.42-3.15l12.91-7.8a11.34,11.34,0,0,1,7.32-1.16Z"/><path class="cls-15" d="M55.22,18.78c2.14.5,2.67,2.23,1.18,3.85L47.87,31.9a7.18,7.18,0,0,1-6.56,1.87l-32.24-9c-2.11-.59-2.31-2-.42-3.15l12.91-7.8a11.34,11.34,0,0,1,7.32-1.16Z"/><path class="cls-16" d="M54.07,19c2,.48,2.54,2.12,1.13,3.66l-8.11,8.81a6.79,6.79,0,0,1-6.23,1.77L10.24,24.69c-2-.56-2.2-1.91-.41-3L22.1,14.29a10.8,10.8,0,0,1,7-1.11Z"/><polygon points="46.99 24.64 50.59 21.14 43.04 19.24 41.49 20.63 30.31 17.79 31.82 16.63 24.78 14.79 19.98 17.79 27.38 19.71 28.81 18.69 33.16 19.82 27.23 25 32.62 26.42 31.23 27.6 38.12 29.54 41.52 26.21 34.89 24.59 33.72 25.5 29.38 24.44 34.56 20.12 40.3 21.63 39.15 22.59 46.99 24.64"/></g></svg>