<svg xmlns="http://www.w3.org/2000/svg" xmlns:xlink="http://www.w3.org/1999/xlink" viewBox="0 0 64 64"><defs><linearGradient id="linear-gradient" x1="18.65" y1="10.04" x2="36.17" y2="40.37" gradientUnits="userSpaceOnUse"><stop offset="0" stop-color="#f5f6f6"/><stop offset="0.99" stop-color="#d2d3d3"/></linearGradient><linearGradient id="linear-gradient-2" x1="42.46" y1="-37.43" x2="55.38" y2="-15.05" gradientTransform="translate(-3.76 26.09) rotate(45)" gradientUnits="userSpaceOnUse"><stop offset="0" stop-color="#ef4623"/><stop offset="1" stop-color="#c02026"/></linearGradient><linearGradient id="linear-gradient-3" x1="14.99" y1="32.73" x2="28.64" y2="56.37" xlink:href="#linear-gradient"/><linearGradient id="linear-gradient-4" x1="13.87" y1="42.23" x2="10.13" y2="35.77" gradientUnits="userSpaceOnUse"><stop offset="0" stop-color="#161616"/><stop offset="1" stop-color="#515151"/></linearGradient><linearGradient id="linear-gradient-7" x1="19.62" y1="35.74" x2="23.57" y2="42.58" xlink:href="#linear-gradient"/><linearGradient id="linear-gradient-8" x1="25.53" y1="11.95" x2="28.6" y2="17.28" gradientUnits="userSpaceOnUse"><stop offset="0" stop-color="#fff"/><stop offset="1" stop-color="#d2d3d3"/></linearGradient><linearGradient id="linear-gradient-9" x1="22.59" y1="16.41" x2="31.21" y2="31.34" gradientUnits="userSpaceOnUse"><stop offset="0" stop-color="#3388b0"/><stop offset="0.99" stop-color="#2a5b79"/></linearGradient><linearGradient id="linear-gradient-10" x1="16.53" y1="22.95" x2="19.6" y2="28.28" xlink:href="#linear-gradient-8"/><linearGradient id="linear-gradient-11" x1="34.53" y1="22.95" x2="37.6" y2="28.28" xlink:href="#linear-gradient-8"/><linearGradient id="linear-gradient-12" x1="19.12" y1="30.93" x2="16.94" y2="27.17" gradientUnits="userSpaceOnUse"><stop offset="0" stop-color="#386f8d"/><stop offset="1" stop-color="#8dd7f4"/></linearGradient><linearGradient id="linear-gradient-13" x1="37.12" y1="30.93" x2="34.94" y2="27.17" xlink:href="#linear-gradient-12"/><linearGradient id="linear-gradient-14" x1="27.96" y1="20.66" x2="25.93" y2="17.14" xlink:href="#linear-gradient-12"/></defs><title>CATFTT_AP_AppIcon</title><g id="Layer_4" data-name="Layer 4"><rect x="10.5" y="9.5" width="33" height="30" rx="0.5" fill="url(#linear-gradient)"/><path d="M43,10V39H11V10H43m0-1H11a1,1,0,0,0-1,1V39a1,1,0,0,0,1,1H43a1,1,0,0,0,1-1V10a1,1,0,0,0-1-1Z" fill="#333332"/><path d="M34.55,51.5a.85.85,0,0,1-.74-.43.86.86,0,0,1,0-.85L46.17,28.54a.84.84,0,0,1,.74-.43.86.86,0,0,1,.74.42L60.38,50.21a.86.86,0,0,1-.74,1.29Z" fill="url(#linear-gradient-2)"/><path d="M46.91,28.61a.36.36,0,0,1,.31.18L60,50.47a.33.33,0,0,1,0,.35.34.34,0,0,1-.31.18H34.55a.34.34,0,0,1-.31-.18.38.38,0,0,1,0-.35L46.6,28.79a.37.37,0,0,1,.31-.18m0-1a1.33,1.33,0,0,0-1.17.69L33.37,50a1.35,1.35,0,0,0,1.18,2H59.64a1.35,1.35,0,0,0,1.17-2L48.08,28.28a1.35,1.35,0,0,0-1.17-.67Z" fill="#821a18"/><polygon points="48 44 46 44 45 35 49 35 48 44" fill="#fff"/><circle cx="47" cy="47" r="2" fill="#fff"/><rect x="6.5" y="33.5" width="30" height="21" rx="0.5" fill="url(#linear-gradient-3)"/><path d="M36,34V54H7V34H36m0-1H7a1,1,0,0,0-1,1V54a1,1,0,0,0,1,1H36a1,1,0,0,0,1-1V34a1,1,0,0,0-1-1Z" fill="#333332"/><rect x="9" y="36" width="6" height="6" rx="1" fill="url(#linear-gradient-4)"/><rect x="28" y="36" width="6" height="6" rx="1" fill="url(#linear-gradient-4)"/><rect x="28" y="46" width="6" height="6" rx="1" fill="url(#linear-gradient-4)"/><line x1="12" y1="39" x2="31" y2="39" stroke="#333332" stroke-linecap="round" stroke-linejoin="round" stroke-width="2" fill="url(#linear-gradient-7)"/><polyline points="21 39 21 49 31 49" fill="none" stroke="#333332" stroke-linecap="round" stroke-linejoin="round" stroke-width="2"/><rect x="22.5" y="12.5" width="9" height="4" rx="0.5" fill="url(#linear-gradient-8)"/><path d="M31,13v3H23V13h8m0-1H23a1,1,0,0,0-1,1v3a1,1,0,0,0,1,1h8a1,1,0,0,0,1-1V13a1,1,0,0,0-1-1Z" fill="#797979"/><path d="M17.5,28V20.5a1,1,0,0,1,1-1h17a1,1,0,0,1,1,1V28" fill="none" stroke-miterlimit="10" stroke="url(#linear-gradient-9)"/><rect x="13.5" y="23.5" width="9" height="4" rx="0.5" fill="url(#linear-gradient-10)"/><path d="M22,24v3H14V24h8m0-1H14a1,1,0,0,0-1,1v3a1,1,0,0,0,1,1h8a1,1,0,0,0,1-1V24a1,1,0,0,0-1-1Z" fill="#797979"/><rect x="31.5" y="23.5" width="9" height="4" rx="0.5" fill="url(#linear-gradient-11)"/><path d="M40,24v3H32V24h8m0-1H32a1,1,0,0,0-1,1v3a1,1,0,0,0,1,1h8a1,1,0,0,0,1-1V24a1,1,0,0,0-1-1Z" fill="#797979"/><circle cx="18" cy="29" r="2.5" fill="url(#linear-gradient-12)"/><path d="M18,27a2,2,0,1,1-2,2,2,2,0,0,1,2-2m0-1a3,3,0,1,0,3,3,3,3,0,0,0-3-3Z" fill="#053755"/><circle cx="36" cy="29" r="2.5" fill="url(#linear-gradient-13)"/><path d="M36,27a2,2,0,1,1-2,2,2,2,0,0,1,2-2m0-1a3,3,0,1,0,3,3,3,3,0,0,0-3-3Z" fill="#053755"/><path d="M29.15,20.25a3.46,3.46,0,0,0-4.3,0A2.41,2.41,0,0,1,24.5,19a2.5,2.5,0,0,1,5,0A2.41,2.41,0,0,1,29.15,20.25Z" fill="url(#linear-gradient-14)"/><path d="M27,17a2,2,0,0,1,2,2,2.09,2.09,0,0,1-.07.51,3.91,3.91,0,0,0-3.86,0A2.09,2.09,0,0,1,25,19a2,2,0,0,1,2-2m0-1a3,3,0,0,0-2.22,5,3,3,0,0,1,4.44,0A3,3,0,0,0,27,16Z" fill="#053755"/></g></svg>