<svg id="Layer_4" data-name="Layer 4" xmlns="http://www.w3.org/2000/svg" xmlns:xlink="http://www.w3.org/1999/xlink" viewBox="0 0 64 64"><defs><linearGradient id="linear-gradient" x1="33.03" y1="34.81" x2="20.99" y2="13.96" gradientUnits="userSpaceOnUse"><stop offset="0" stop-color="#f5f6f6"/><stop offset="0.99" stop-color="#d2d3d3"/></linearGradient><linearGradient id="linear-gradient-2" x1="39.38" y1="36.68" x2="47.96" y2="51.54" xlink:href="#linear-gradient"/><linearGradient id="linear-gradient-4" x1="15.24" y1="15.59" x2="19.96" y2="23.76" gradientUnits="userSpaceOnUse"><stop offset="0" stop-color="#f5f6f6"/><stop offset="0.99" stop-color="#bfbebe"/></linearGradient><linearGradient id="linear-gradient-5" x1="26.78" y1="17.03" x2="30.37" y2="23.24" xlink:href="#linear-gradient-4"/><linearGradient id="linear-gradient-6" x1="23.2" y1="11.02" x2="28" y2="19.34" xlink:href="#linear-gradient-4"/><linearGradient id="linear-gradient-7" x1="38.48" y1="9.37" x2="41.65" y2="14.86" gradientUnits="userSpaceOnUse"><stop offset="0" stop-color="#d7d7d7"/><stop offset="1" stop-color="#969696"/></linearGradient><linearGradient id="linear-gradient-8" x1="46.48" y1="13.37" x2="49.65" y2="18.86" xlink:href="#linear-gradient-7"/><linearGradient id="linear-gradient-9" x1="41.35" y1="40.14" x2="33.87" y2="27.17" gradientUnits="userSpaceOnUse"><stop offset="0" stop-color="#386f8d"/><stop offset="1" stop-color="#8dd7f4"/></linearGradient><linearGradient id="linear-gradient-10" x1="40.89" y1="39.26" x2="45.58" y2="47.39" gradientUnits="userSpaceOnUse"><stop offset="0" stop-color="#ababab"/><stop offset="1" stop-color="#5b5b5b"/></linearGradient><linearGradient id="linear-gradient-11" x1="26.19" y1="29.82" x2="23.79" y2="25.66" xlink:href="#linear-gradient-9"/><linearGradient id="linear-gradient-12" x1="30.19" y1="28.82" x2="27.79" y2="24.66" xlink:href="#linear-gradient-9"/><linearGradient id="linear-gradient-13" x1="34.19" y1="27.82" x2="31.79" y2="23.66" xlink:href="#linear-gradient-9"/><linearGradient id="linear-gradient-14" x1="38.19" y1="26.82" x2="35.79" y2="22.66" xlink:href="#linear-gradient-9"/><linearGradient id="linear-gradient-15" x1="24.71" y1="26.1" x2="22.48" y2="22.23" gradientUnits="userSpaceOnUse"><stop offset="0" stop-color="#74c4e2"/><stop offset="1" stop-color="#a4def6"/></linearGradient></defs><title>CATFBD_AP_AppIcon</title><polygon points="28.5 40.5 28.5 41.5 36.5 55.5 58.5 48.5 58.5 47 28.5 40.5" fill="#323232" stroke="#333332" stroke-linecap="round" stroke-linejoin="round"/><polyline points="57.5 20.5 57.5 21.5 40.5 25 40.5 20.5" fill="#323232" stroke="#333332" stroke-linecap="round" stroke-linejoin="round"/><polyline points="6.5 18.5 6.5 19.5 24.5 34.5 46.5 28.5 46.5 27.5" stroke="#333332" stroke-linecap="round" stroke-linejoin="round" fill="url(#linear-gradient)"/><polygon points="28.5 40.5 50 34.5 58.5 47 36.5 54.5 28.5 40.5" stroke="#333332" stroke-linecap="round" stroke-linejoin="round" fill="url(#linear-gradient-2)"/><polygon points="6.5 18.5 24.5 33.5 46.5 27.5 42.5 23.5 57.5 20.5 41.5 11.5 6.5 18.5" stroke="#333332" stroke-linecap="round" stroke-linejoin="round" fill="url(#linear-gradient-2)"/><polygon points="14.5 14.5 14.5 19.5 20.5 24.5 20.5 19.5 14.5 14.5" stroke="#797979" stroke-linecap="round" stroke-linejoin="round" fill="url(#linear-gradient-4)"/><polygon points="20.5 19.5 36.5 15.5 36.5 20.5 20.5 24.5 20.5 19.5" stroke="#797979" stroke-linecap="round" stroke-linejoin="round" fill="url(#linear-gradient-5)"/><polygon points="14.5 14.5 30.5 10.5 36.5 15.5 20.5 19.5 14.5 14.5" stroke="#797979" stroke-linecap="round" stroke-linejoin="round" fill="url(#linear-gradient-6)"/><polygon points="30.5 10.5 14.5 14.5 14.5 19.5 20.5 24.5 36.5 20.5 36.5 15.5 30.5 10.5" fill="none" stroke="#333332" stroke-linecap="round" stroke-linejoin="round"/><rect x="37.5" y="8.5" width="5" height="7" rx="1" stroke="#323232" stroke-linecap="round" stroke-linejoin="round" fill="url(#linear-gradient-7)"/><rect x="38" y="10" width="4" height="1" fill="#797979"/><rect x="40" y="13" width="1" height="4" fill="#053755"/><rect x="45.5" y="12.5" width="5" height="7" rx="1" stroke="#323232" stroke-linecap="round" stroke-linejoin="round" fill="url(#linear-gradient-8)"/><rect x="46" y="14" width="4" height="1" fill="#797979"/><rect x="48" y="17" width="1" height="4" fill="#053755"/><path d="M28.36,32.45s4.14,1.29,4.12,6.83l13-3.53s.82-5-3.41-7Z" stroke="#053755" stroke-linecap="round" stroke-linejoin="round" fill="url(#linear-gradient-9)"/><polygon points="38.5 49.5 52.5 45 48.5 38.5 34.5 42.5 38.5 49.5" stroke="#333332" stroke-linecap="round" stroke-linejoin="round" fill="url(#linear-gradient-10)"/><line x1="23.5" y1="26.5" x2="26.5" y2="29" stroke="#053755" stroke-linecap="round" stroke-linejoin="round" fill="url(#linear-gradient-11)"/><line x1="27.5" y1="25.5" x2="30.5" y2="28" stroke="#053755" stroke-linecap="round" stroke-linejoin="round" fill="url(#linear-gradient-12)"/><line x1="31.5" y1="24.5" x2="34.5" y2="27" stroke="#053755" stroke-linecap="round" stroke-linejoin="round" fill="url(#linear-gradient-13)"/><line x1="35.5" y1="23.5" x2="38.5" y2="26" stroke="#053755" stroke-linecap="round" stroke-linejoin="round" fill="url(#linear-gradient-14)"/><rect x="22.5" y="21.5" width="2" height="5" stroke="#053755" stroke-linecap="round" stroke-linejoin="round" fill="url(#linear-gradient-15)"/><rect x="26.5" y="20.5" width="2" height="5" stroke="#053755" stroke-linecap="round" stroke-linejoin="round" fill="url(#linear-gradient-15)"/><rect x="30.5" y="19.5" width="2" height="5" stroke="#053755" stroke-linecap="round" stroke-linejoin="round" fill="url(#linear-gradient-15)"/><rect x="34.5" y="18.5" width="2" height="5" stroke="#053755" stroke-linecap="round" stroke-linejoin="round" fill="url(#linear-gradient-15)"/></svg>