<svg id="CATIA___J11_FMP_-_Functional_Plastic_Parts" data-name="CATIA _ (J11) FMP - Functional Plastic Parts" xmlns="http://www.w3.org/2000/svg" xmlns:xlink="http://www.w3.org/1999/xlink" viewBox="0 0 64 64"><defs><style>.cls-1{fill:url(#linear-gradient);}.cls-2{fill:url(#linear-gradient-2);}.cls-3{fill:#6d6d6d;}.cls-4{stroke:#6d6d6d;fill:url(#linear-gradient-3);}.cls-16,.cls-19,.cls-30,.cls-31,.cls-4{stroke-linecap:round;stroke-linejoin:round;}.cls-5{fill:url(#linear-gradient-4);}.cls-6{fill:#454545;}.cls-7{fill:url(#linear-gradient-5);}.cls-8{fill:#545454;}.cls-9{fill:url(#linear-gradient-6);}.cls-10{fill:#00415f;}.cls-11{fill:url(#linear-gradient-7);}.cls-12{fill:url(#linear-gradient-8);}.cls-13{fill:url(#linear-gradient-9);}.cls-14{fill:url(#linear-gradient-10);}.cls-15{fill:url(#linear-gradient-11);}.cls-16,.cls-19,.cls-30,.cls-31{stroke:#00415f;}.cls-16{fill:url(#linear-gradient-12);}.cls-17{fill:url(#linear-gradient-13);}.cls-18{fill:url(#linear-gradient-14);}.cls-19,.cls-30,.cls-31{stroke-width:0.5px;}.cls-19{fill:url(#linear-gradient-15);}.cls-20{fill:url(#linear-gradient-16);}.cls-21{fill:url(#linear-gradient-17);}.cls-22{fill:url(#linear-gradient-18);}.cls-23{fill:url(#linear-gradient-19);}.cls-24{fill:url(#linear-gradient-20);}.cls-25{fill:url(#linear-gradient-21);}.cls-26{fill:url(#linear-gradient-22);}.cls-27{fill:url(#linear-gradient-23);}.cls-28{fill:url(#linear-gradient-24);}.cls-29{fill:url(#linear-gradient-25);}.cls-30{fill:url(#linear-gradient-26);}.cls-31{fill:none;}.cls-32{fill:#2d2d2d;}</style><linearGradient id="linear-gradient" x1="52.94" y1="14.29" x2="9.71" y2="44.48" gradientTransform="translate(-4.53 5.6) rotate(-8.89)" gradientUnits="userSpaceOnUse"><stop offset="0.25" stop-color="#f0f0f0"/><stop offset="0.25" stop-color="#e8e8e8"/><stop offset="0.28" stop-color="#bfbfbf"/><stop offset="0.31" stop-color="#9e9e9e"/><stop offset="0.34" stop-color="#868686"/><stop offset="0.37" stop-color="#787878"/><stop offset="0.39" stop-color="#737373"/><stop offset="0.44" stop-color="#767676"/><stop offset="0.49" stop-color="#818181"/><stop offset="0.53" stop-color="#929292"/><stop offset="0.57" stop-color="#ababab"/><stop offset="0.61" stop-color="#c9c9c9"/><stop offset="0.92" stop-color="#f0f0f0"/><stop offset="0.93" stop-color="#e7e7e7"/><stop offset="0.95" stop-color="#cecece"/><stop offset="0.97" stop-color="#a6a6a6"/><stop offset="1" stop-color="#6e6e6e"/><stop offset="1" stop-color="#6b6b6b"/></linearGradient><linearGradient id="linear-gradient-2" x1="52.29" y1="26.25" x2="7.58" y2="44.89" gradientTransform="translate(-4.53 5.6) rotate(-8.89)" gradientUnits="userSpaceOnUse"><stop offset="0.07" stop-color="#282828"/><stop offset="0.14" stop-color="#999"/><stop offset="0.17" stop-color="#9f9f9f"/><stop offset="0.23" stop-color="#b0b0b0"/><stop offset="0.29" stop-color="#cbcccc"/><stop offset="0.33" stop-color="#e2e3e3"/><stop offset="0.48" stop-color="#dfe0e0"/><stop offset="0.59" stop-color="#d7d7d7"/><stop offset="0.67" stop-color="#c8c8c8"/><stop offset="0.75" stop-color="#b3b3b3"/><stop offset="0.83" stop-color="#979898"/><stop offset="0.9" stop-color="#767676"/><stop offset="0.96" stop-color="#4f4f4f"/><stop offset="1" stop-color="#333"/></linearGradient><linearGradient id="linear-gradient-3" x1="65.93" y1="9.84" x2="12.38" y2="48.38" gradientTransform="translate(-4.53 5.6) rotate(-8.89)" gradientUnits="userSpaceOnUse"><stop offset="0" stop-color="#606266"/><stop offset="1" stop-color="#a6a6a6"/></linearGradient><linearGradient id="linear-gradient-4" x1="46.16" y1="32.84" x2="48.98" y2="26.01" gradientTransform="translate(-4.53 5.6) rotate(-8.89)" gradientUnits="userSpaceOnUse"><stop offset="0" stop-color="#e6e6e6"/><stop offset="0.03" stop-color="#ddd"/><stop offset="0.11" stop-color="#cbcbcb"/><stop offset="0.19" stop-color="#c1c1c1"/><stop offset="0.28" stop-color="#bdbdbd"/><stop offset="0.36" stop-color="#9f9f9f"/><stop offset="0.44" stop-color="#858585"/><stop offset="0.53" stop-color="#717171"/><stop offset="0.64" stop-color="#646464"/><stop offset="0.77" stop-color="#5b5b5b"/><stop offset="1" stop-color="#595959"/></linearGradient><linearGradient id="linear-gradient-5" x1="57.67" y1="13.89" x2="27.31" y2="40.38" gradientTransform="translate(-4.53 5.6) rotate(-8.89)" gradientUnits="userSpaceOnUse"><stop offset="0" stop-color="#454545"/><stop offset="0.07" stop-color="#646464"/><stop offset="0.17" stop-color="#8d8d8d"/><stop offset="0.28" stop-color="#b0b0b0"/><stop offset="0.39" stop-color="#cdcdcd"/><stop offset="0.51" stop-color="#e3e3e3"/><stop offset="0.64" stop-color="#f3f3f3"/><stop offset="0.79" stop-color="#fcfcfc"/><stop offset="1" stop-color="#fff"/></linearGradient><linearGradient id="linear-gradient-6" x1="49.7" y1="22.63" x2="30.35" y2="40.24" gradientTransform="translate(-4.53 5.6) rotate(-8.89)" gradientUnits="userSpaceOnUse"><stop offset="0" stop-color="#92d5ee"/><stop offset="0.48" stop-color="#599bb4"/><stop offset="1" stop-color="#185971"/></linearGradient><linearGradient id="linear-gradient-7" x1="44.14" y1="24.81" x2="32.87" y2="33.68" xlink:href="#linear-gradient-6"/><linearGradient id="linear-gradient-8" x1="47.66" y1="18.76" x2="26.09" y2="38.39" xlink:href="#linear-gradient-6"/><linearGradient id="linear-gradient-9" x1="39.3" y1="28.39" x2="-1.84" y2="47.92" gradientTransform="translate(-4.53 5.6) rotate(-8.89)" gradientUnits="userSpaceOnUse"><stop offset="0" stop-color="#5294ac"/><stop offset="1" stop-color="#185971"/></linearGradient><linearGradient id="linear-gradient-10" x1="36.77" y1="27.83" x2="38.93" y2="27.83" xlink:href="#linear-gradient-6"/><linearGradient id="linear-gradient-11" x1="44.93" y1="21.48" x2="34.16" y2="33.31" xlink:href="#linear-gradient-6"/><linearGradient id="linear-gradient-12" x1="54.5" y1="19.27" x2="-63.03" y2="97.76" gradientTransform="translate(-4.53 5.6) rotate(-8.89)" gradientUnits="userSpaceOnUse"><stop offset="0" stop-color="#92d5ee"/><stop offset="0.6" stop-color="#599bb4"/><stop offset="1" stop-color="#32738c"/></linearGradient><linearGradient id="linear-gradient-13" x1="52.73" y1="27.58" x2="55.69" y2="26.02" gradientTransform="translate(-4.53 5.6) rotate(-8.89)" gradientUnits="userSpaceOnUse"><stop offset="0" stop-color="#f0f0f0"/><stop offset="1" stop-color="#3b3b3b"/></linearGradient><linearGradient id="linear-gradient-14" x1="45.59" y1="30.1" x2="32.58" y2="41.73" xlink:href="#linear-gradient-6"/><linearGradient id="linear-gradient-15" x1="30.56" y1="31.02" x2="20.69" y2="38.29" xlink:href="#linear-gradient-6"/><linearGradient id="linear-gradient-16" x1="33.52" y1="24.26" x2="17.86" y2="38.33" xlink:href="#linear-gradient-6"/><linearGradient id="linear-gradient-17" x1="25.11" y1="38.57" x2="16.55" y2="45.81" xlink:href="#linear-gradient-6"/><linearGradient id="linear-gradient-18" x1="33.21" y1="33.12" x2="20.98" y2="44.43" xlink:href="#linear-gradient-6"/><linearGradient id="linear-gradient-19" x1="28.87" y1="35.31" x2="17.65" y2="45.01" xlink:href="#linear-gradient-6"/><linearGradient id="linear-gradient-20" x1="51.86" y1="17.56" x2="43.42" y2="24.83" xlink:href="#linear-gradient-6"/><linearGradient id="linear-gradient-21" x1="46.54" y1="21.87" x2="34.7" y2="30.19" xlink:href="#linear-gradient-6"/><linearGradient id="linear-gradient-22" x1="46.44" y1="36.35" x2="37.36" y2="41.51" xlink:href="#linear-gradient-6"/><linearGradient id="linear-gradient-23" x1="39.3" y1="33.07" x2="30.82" y2="42.99" xlink:href="#linear-gradient-6"/><linearGradient id="linear-gradient-24" x1="48.27" y1="34.38" x2="43.22" y2="38.41" xlink:href="#linear-gradient-6"/><linearGradient id="linear-gradient-25" x1="53.33" y1="18.74" x2="41.19" y2="30.29" xlink:href="#linear-gradient-6"/><linearGradient id="linear-gradient-26" x1="37.64" y1="27.61" x2="7.86" y2="40.95" xlink:href="#linear-gradient-6"/></defs><title>CATIA _ (J11) FMP - Functional Plastic Parts</title><path class="cls-1" d="M55.64,19.41a1.66,1.66,0,0,0-2.55-1.23l-4.31,2.07-1-1.53-3.83-1.31a5,5,0,0,0-3.19.1L38,18.68a9,9,0,0,0-2.9,2.45,48.7,48.7,0,0,1-5.45,5.14,51.54,51.54,0,0,1-9.06,5.62L10.21,36.82a3.86,3.86,0,0,0-2.34,4.49A5.77,5.77,0,0,0,8.62,43l1.47,2.63Z"/><path class="cls-2" d="M13.06,46.79a2.42,2.42,0,0,1-2.22-1.17.5.5,0,0,1,.24-.67l2.66-1.24-.12-.44-2.44,1.16a.5.5,0,0,1-.21,0,.54.54,0,0,1-.3-.1.5.5,0,0,1-.19-.48A5,5,0,0,1,13,40l10.85-5.1A57.35,57.35,0,0,0,35.5,27.2,28.44,28.44,0,0,0,38.59,24a11.86,11.86,0,0,1,3.52-3.2l2.59-1.09a3.84,3.84,0,0,1,1.85-.58,2,2,0,0,1,2,1.86l.25,1.62.37-.22a2.8,2.8,0,0,1,1.14-.31,1.27,1.27,0,0,1,1.29,1.32L51.7,25a3,3,0,0,1-1.46,3.2l-1.07.51c0,3.24-.47,4.46-3.62,6.43-2.2,1.37-3.21,1.47-7.48,1.93l-.58.06c-5.07.55-10,2.87-12.32,4l-.18.09c-1.08.51-2.63,1.33-4.27,2.2-1.87,1-3.81,2-5.39,2.78A5.43,5.43,0,0,1,13.06,46.79Z"/><path class="cls-3" d="M46.55,19.64c1.3,0,1.46,1.42,1.46,1.42l.37,2.35,1-.57a2.16,2.16,0,0,1,.89-.25.8.8,0,0,1,.79.83l.14,1.63A2.5,2.5,0,0,1,50,27.75l-1.36.66c.07,3.3-.3,4.39-3.39,6.31-2.19,1.37-3.06,1.41-7.84,1.92-5.29.57-10.27,3-12.67,4.13s-6.69,3.57-9.65,5a4.87,4.87,0,0,1-2.06.54,1.91,1.91,0,0,1-1.77-.89L14.35,44l-.42-1.41L11,44c.45-2.8,2.22-3.55,2.22-3.55l10.88-5.12a57.21,57.21,0,0,0,11.75-7.72c2.9-2.45,4.3-5.24,6.51-6.33l2.57-1.08a3.47,3.47,0,0,1,1.65-.54m0-1a4.31,4.31,0,0,0-2.09.64l-2.52,1.06,0,0a12.5,12.5,0,0,0-3.68,3.32,26.8,26.8,0,0,1-3,3.14A56.59,56.59,0,0,1,23.65,34.4L12.77,39.52A5.46,5.46,0,0,0,10,43.82a1,1,0,0,0,.39,1l.09.06a1,1,0,0,0-.07,1,2.94,2.94,0,0,0,2.67,1.45,5.85,5.85,0,0,0,2.49-.64c1.58-.75,3.52-1.78,5.4-2.78,1.63-.87,3.18-1.69,4.25-2.2l.18-.08c2.33-1.11,7.18-3.42,12.16-4l.58-.06c4.36-.47,5.4-.58,7.69-2,3.2-2,3.86-3.4,3.86-6.53l.8-.39a3.5,3.5,0,0,0,1.72-3.71l-.13-1.58a1.77,1.77,0,0,0-1.79-1.77,3,3,0,0,0-1.12.26l-.15-1a2.5,2.5,0,0,0-2.45-2.26Z"/><path class="cls-4" d="M42.88,20.34,44.09,28a2.74,2.74,0,0,1-1.27,2.35c-1.33.73-3.32,1.67-3.82,2-1,.56-3.69-.09-5.57.24a79.57,79.57,0,0,0-8.22,2.71"/><path class="cls-5" d="M48.67,28.91a.47.47,0,0,1-.17,0l-3.9-1.41a.48.48,0,0,1-.32-.39l-.78-5.16a.5.5,0,0,1,.17-.46.49.49,0,0,1,.32-.12.51.51,0,0,1,.17,0l4.15,1.49,2.11-1.43a.47.47,0,0,1,.28-.09.32.32,0,0,1,.14,0,.47.47,0,0,1,.32.29l.66,1.68a.65.65,0,0,1,0,.19l0,4a.49.49,0,0,1-.34.47l-2.66.92Z"/><path class="cls-6" d="M50.7,21.84l.66,1.69,0,4-2.66.91L44.77,27,44,21.84l4.39,1.57,2.32-1.57m0-1a1,1,0,0,0-.57.18L48.24,22.3l-3.91-1.4A1,1,0,0,0,43,22l.78,5.16a1,1,0,0,0,.65.79l3.9,1.41a1,1,0,0,0,.34.06.86.86,0,0,0,.32-.05l2.67-.92a1,1,0,0,0,.67-.94l0-4a1.21,1.21,0,0,0-.07-.37l-.66-1.68a1,1,0,0,0-.64-.59,1,1,0,0,0-.29-.05Z"/><path class="cls-7" d="M27.28,35.73a.49.49,0,0,1-.45-.29A.5.5,0,0,1,27,34.8c.15-.09,3.85-2.42,6.1-2.83a8,8,0,0,1,1.49-.11c.5,0,1,0,1.5.05s.87,0,1.25,0a2.72,2.72,0,0,0,1.17-.16c.22-.13.71-.37,1.3-.67.78-.39,1.77-.88,2.53-1.3a2.24,2.24,0,0,0,1-1.9l-1-6.5A.5.5,0,0,1,42.5,21a.55.55,0,0,1,.34-.13H43l1.13.27a.5.5,0,0,1,.38.41l1,6.13a4,4,0,0,1-1.88,4.08c-.18.09-3.79,1.82-4.82,2.24a2.94,2.94,0,0,1-1.19.19l-.87,0c-.38,0-.8,0-1.27,0a11.61,11.61,0,0,0-2,.16,51.3,51.3,0,0,0-6,1.45Z"/><path class="cls-8" d="M42.84,21.34l1.14.27s.57,3.67,1,6.13a3.48,3.48,0,0,1-1.63,3.56s-3.74,1.79-4.77,2.22a2.59,2.59,0,0,1-1,.16c-.57,0-1.26-.09-2.14-.09a13.27,13.27,0,0,0-2,.16,51.67,51.67,0,0,0-6.08,1.48s3.75-2.38,5.93-2.77a7.82,7.82,0,0,1,1.4-.1c.94,0,1.94.09,2.75.09a3.07,3.07,0,0,0,1.42-.23c.5-.29,2.49-1.23,3.82-2a2.77,2.77,0,0,0,1.27-2.36l-1-6.56m0-1a1,1,0,0,0-1,1.16l1,6.48a1.69,1.69,0,0,1-.76,1.4c-.74.42-1.72.91-2.51,1.3-.6.3-1.08.54-1.31.67a2.31,2.31,0,0,1-.93.1c-.38,0-.79,0-1.22,0s-1-.05-1.53-.05a9,9,0,0,0-1.58.12c-2.34.42-6.12,2.8-6.28,2.9a1,1,0,0,0-.37,1.27,1,1,0,0,0,.9.58,1,1,0,0,0,.3,0,51.27,51.27,0,0,1,5.93-1.44,11.94,11.94,0,0,1,1.89-.15c.46,0,.87,0,1.24,0s.63,0,.9,0a3.48,3.48,0,0,0,1.38-.24c1-.43,4.67-2.16,4.82-2.24l0,0a4.47,4.47,0,0,0,2.13-4.6l-1-6.13a1,1,0,0,0-.76-.82l-1.14-.26a.85.85,0,0,0-.23,0Z"/><path class="cls-9" d="M39.34,36.74a.27.27,0,0,1-.17-.06l-3.62-3s-.5-.31-.67-1.39l-.16-1a.25.25,0,0,1,.14-.26L37,30a.18.18,0,0,1,.1,0h.09a.25.25,0,0,1,.14.13l1.86,4.08.37,2.29a.24.24,0,0,1-.12.26Z"/><path class="cls-10" d="M37.12,30.19,39,34.26l.36,2.23-3.63-3s-.43-.24-.59-1.23l-.15-1,2.15-1m0-.5a.41.41,0,0,0-.21,0l-2.16,1a.51.51,0,0,0-.28.53l.16,1a2.21,2.21,0,0,0,.78,1.56l3.6,3a.57.57,0,0,0,.33.11.5.5,0,0,0,.24-.06.52.52,0,0,0,.25-.52l-.36-2.23a.56.56,0,0,0,0-.12L37.58,30a.5.5,0,0,0-.29-.26.47.47,0,0,0-.17,0Z"/><path class="cls-11" d="M37.92,28.56h-.08a.25.25,0,0,1-.14-.13l-.81-1.64a.25.25,0,0,1,.11-.33L41.74,24l.11,0A.28.28,0,0,1,42,24l1.86,1.07a.27.27,0,0,1,.12.23.23.23,0,0,1-.13.21l-5.79,3A.27.27,0,0,1,37.92,28.56Z"/><path class="cls-10" d="M41.85,24.23l1.86,1.07-5.79,3-.8-1.64,4.73-2.44m0-.5a.64.64,0,0,0-.23.05l-4.73,2.45a.5.5,0,0,0-.22.66l.8,1.64a.5.5,0,0,0,.3.25.4.4,0,0,0,.15,0,.46.46,0,0,0,.23-.06l5.79-3a.51.51,0,0,0,.27-.44.48.48,0,0,0-.25-.44L42.1,23.79a.51.51,0,0,0-.25-.06Z"/><path class="cls-12" d="M36.74,29.27a.22.22,0,0,1-.13,0l-1.51-.94a.27.27,0,0,1-.12-.2.27.27,0,0,1,.09-.21l1.21-1a.23.23,0,0,1,.16-.06l.09,0a.23.23,0,0,1,.15.19L37,29a.27.27,0,0,1-.11.25A.33.33,0,0,1,36.74,29.27Z"/><path class="cls-10" d="M36.44,27.07l.3,1.95-1.51-.94,1.21-1m0-.5a.47.47,0,0,0-.32.12l-1.21,1a.51.51,0,0,0-.18.42.53.53,0,0,0,.24.39l1.51.94a.5.5,0,0,0,.26.08.57.57,0,0,0,.28-.08.52.52,0,0,0,.22-.5l-.31-2a.53.53,0,0,0-.32-.39.47.47,0,0,0-.17,0Z"/><path class="cls-13" d="M13.63,42.38a.26.26,0,0,1-.21-.11l-.92-1.38a.24.24,0,0,1,0-.2.26.26,0,0,1,.13-.16L36.47,28.88l-.28-1.77a.26.26,0,0,1,.07-.22l1.12-1.12a.26.26,0,0,1,.17-.07h.08a.25.25,0,0,1,.17.2l.32,2,5.48-2.85a.2.2,0,0,1,.11,0,.27.27,0,0,1,.12,0,.28.28,0,0,1,.13.2l.16,1.65a.25.25,0,0,1-.14.25l-.92.46-4.61,2.41.32,2.14a.24.24,0,0,1-.15.27L37.31,33l-.09,0a.2.2,0,0,1-.13,0,.24.24,0,0,1-.12-.17l-.3-2L13.74,42.35A.23.23,0,0,1,13.63,42.38Z"/><path class="cls-10" d="M43.71,25.3,43.87,27l-.92.46-4.77,2.5.35,2.31-1.31.52-.35-2.32L13.63,42.13l-.92-1.38L36.74,29l-.3-1.95L37.55,26l.37,2.36,5.79-3m0-.5a.46.46,0,0,0-.23.06l-5.17,2.69-.26-1.68a.51.51,0,0,0-.34-.4l-.16,0a.47.47,0,0,0-.35.15l-1.12,1.12a.52.52,0,0,0-.14.43l.25,1.58L12.49,40.3a.52.52,0,0,0-.26.32.49.49,0,0,0,.06.41l.92,1.37a.51.51,0,0,0,.42.23.46.46,0,0,0,.22-.06L36.47,31.19l.25,1.63a.47.47,0,0,0,.25.36.43.43,0,0,0,.25.07.39.39,0,0,0,.18,0l1.31-.52a.49.49,0,0,0,.31-.54l-.3-2,4.46-2.33.91-.45a.51.51,0,0,0,.28-.5l-.16-1.66a.51.51,0,0,0-.26-.39.5.5,0,0,0-.24-.06Z"/><path class="cls-14" d="M38.2,28.74a.23.23,0,0,1-.14,0l-1.89-1.33a.22.22,0,0,1-.1-.18.24.24,0,0,1,.07-.2l1.43-1.42a.24.24,0,0,1,.18-.07h.07a.24.24,0,0,1,.17.19l.46,2.75a.25.25,0,0,1-.12.25A.2.2,0,0,1,38.2,28.74Z"/><path class="cls-10" d="M37.75,25.75l.45,2.74-1.88-1.32,1.43-1.42m0-.5a.54.54,0,0,0-.36.14L36,26.81a.53.53,0,0,0-.14.4.51.51,0,0,0,.21.37l1.88,1.32a.52.52,0,0,0,.29.09.54.54,0,0,0,.27-.07.49.49,0,0,0,.22-.51l-.45-2.75a.5.5,0,0,0-.34-.39.39.39,0,0,0-.15,0Z"/><path class="cls-15" d="M38.2,28.74l-.11,0a.3.3,0,0,1-.14-.19l-.45-2.74a.26.26,0,0,1,.06-.21l1.24-1.42a.25.25,0,0,1,.19-.09h.07a.28.28,0,0,1,.18.21l.54,3.45a.27.27,0,0,1-.13.26l-1.33.71A.27.27,0,0,1,38.2,28.74Z"/><path class="cls-10" d="M39,24.32l.54,3.46-1.33.71-.45-2.74L39,24.32m0-.5a.52.52,0,0,0-.38.17l-1.24,1.43a.5.5,0,0,0-.12.41l.46,2.74a.47.47,0,0,0,.27.37.42.42,0,0,0,.22,0,.53.53,0,0,0,.24-.06l1.33-.71A.5.5,0,0,0,40,27.7l-.54-3.45a.51.51,0,0,0-.35-.41l-.14,0Z"/><path class="cls-16" d="M13.75,47.93c-2.19.34-3.92-.71-4.22-2.57C8.81,40.74,12,39.26,12,39.25l11.3-5.13a97.94,97.94,0,0,0,9-5.58,38.8,38.8,0,0,0,6.4-6.08,9.27,9.27,0,0,1,3-2.57l2.81-1.18a6.45,6.45,0,0,1,1.56-.49,2.77,2.77,0,0,1,2.28.53,3,3,0,0,1,.9,1.46c.82-.41,2.47-1.23,3.93-1.91a3.08,3.08,0,0,1,.85-.27,1.65,1.65,0,0,1,1.33.32,2.18,2.18,0,0,1,.7,1.36c0,.06.1,1.31.14,4.12A4.45,4.45,0,0,1,54,28.05l-3.92,2.09a6.37,6.37,0,0,1-2.69,4.78L47.3,35a16.17,16.17,0,0,1-4.13,2.22,13.86,13.86,0,0,1-2.24.49h0L38.65,38c-1.09.15-2.34.31-3.73.53A41.5,41.5,0,0,0,24.6,42.09c-.71.33-2.71,1.51-4.65,2.66-1.77,1.06-3.6,2.15-4.57,2.65A5.38,5.38,0,0,1,13.75,47.93Zm-1.67-2.37a2,2,0,0,0,1.43.22,5.48,5.48,0,0,0,1.42-.47c1.55-.74,3.34-1.78,5.07-2.79,1.53-.89,3-1.73,4.08-2.25a47.44,47.44,0,0,1,12-3.93c.42-.07.84-.13,1.26-.17l.58-.06c1.46-.16,2.49-.36,3.33-.49A8.7,8.7,0,0,0,45,34.07c3-1.84,3.27-2.52,3.21-5.65v-.31l1.63-.79a2.07,2.07,0,0,0,.91-2.22l-.14-1.65a.52.52,0,0,0-.11-.32.54.54,0,0,0-.36-.05,2.52,2.52,0,0,0-.57.19l-1.8.83-.39-2.51a1.94,1.94,0,0,0-.47-1.22.86.86,0,0,0-.76-.17,3.23,3.23,0,0,0-1,.4l-2.61,1.25a11.78,11.78,0,0,0-3.26,2.93A30,30,0,0,1,36.11,28a57.87,57.87,0,0,1-11.86,7.79L13.42,40.86a3.7,3.7,0,0,0-1.78,2.27l2.56-1.22.7,2.34Z"/><path class="cls-17" d="M53,25.19a1,1,0,0,1-.41-.1,1.1,1.1,0,0,1-.57-.71.25.25,0,0,1,.23-.32,1.26,1.26,0,0,0,.93-.85,1.58,1.58,0,0,0,.09-1.06.24.24,0,0,1,0-.22.26.26,0,0,1,.2-.1h0a1,1,0,0,1,.44.09A1.61,1.61,0,0,1,54.43,24,1.7,1.7,0,0,1,53,25.19Z"/><path class="cls-10" d="M53.57,22.08a.65.65,0,0,1,.3.06c.49.24.64,1,.33,1.79a1.46,1.46,0,0,1-1.17,1,.73.73,0,0,1-.3-.07.88.88,0,0,1-.44-.56,1.48,1.48,0,0,0,1.15-1,1.84,1.84,0,0,0,.1-1.23h0m0-.5h0a.49.49,0,0,0-.39.2.53.53,0,0,0-.08.44,1.37,1.37,0,0,1-.08.9c-.19.44-.5.68-.71.69a.47.47,0,0,0-.38.21.5.5,0,0,0-.08.43,1.41,1.41,0,0,0,.7.87,1.17,1.17,0,0,0,.52.12,1.92,1.92,0,0,0,1.63-1.31,1.85,1.85,0,0,0-.58-2.44,1.09,1.09,0,0,0-.51-.11Z"/><path class="cls-18" d="M39,35.74a.25.25,0,0,1-.16-.06.21.21,0,0,1-.09-.18l0-1.23a.27.27,0,0,1,.15-.24l1.38-.58.09,0,.11,0a.29.29,0,0,1,.13.16l.46,1.53a.24.24,0,0,1,0,.2.26.26,0,0,1-.17.12Z"/><path class="cls-10" d="M40.35,33.68l.46,1.53L39,35.49l0-1.23,1.37-.58m0-.5a.43.43,0,0,0-.19,0l-1.38.58a.49.49,0,0,0-.3.48l0,1.23a.51.51,0,0,0,.18.37A.52.52,0,0,0,39,36h.08l1.78-.28a.49.49,0,0,0,.41-.63l-.46-1.53a.48.48,0,0,0-.26-.31.54.54,0,0,0-.22,0Z"/><polygon class="cls-19" points="23.1 38.97 23 37.83 25.52 36.57 25.46 37.79 23.1 38.97"/><path class="cls-20" d="M22.88,39a.27.27,0,0,1-.17-.06l-.46-.41a.33.33,0,0,1-.07-.13l-.06-.25-1.27-1.24a.29.29,0,0,1-.08-.14l-.15-1a.25.25,0,0,1,.25-.29.22.22,0,0,1,.17.07L23,37.41a.22.22,0,0,1,.07.16l.1,1.13a.26.26,0,0,1-.14.24Z"/><path class="cls-10" d="M20.87,35.75l1.91,1.84.1,1.13-.46-.41L22.35,38,21,36.7l-.15-1m0-.5a.59.59,0,0,0-.23,0,.5.5,0,0,0-.26.53l.15,1a.42.42,0,0,0,.14.28l1.23,1.19,0,.17a.54.54,0,0,0,.16.26l.45.41a.5.5,0,0,0,.34.13.59.59,0,0,0,.22,0,.5.5,0,0,0,.27-.49l-.09-1.13a.46.46,0,0,0-.15-.32l-1.91-1.84a.52.52,0,0,0-.35-.14Z"/><path class="cls-21" d="M23.71,43.64a.25.25,0,0,1-.18-.08l-1.3-1.38a.23.23,0,0,1-.07-.21.24.24,0,0,1,.13-.18l2.42-1.25a.2.2,0,0,1,.11,0,.27.27,0,0,1,.17.06l1.46,1.26a.22.22,0,0,1,.09.21.26.26,0,0,1-.13.2l-2.58,1.37A.27.27,0,0,1,23.71,43.64Z"/><path class="cls-10" d="M24.82,40.76,26.29,42l-2.58,1.37L22.41,42l2.41-1.25m0-.5a.53.53,0,0,0-.23.06l-2.41,1.25a.5.5,0,0,0-.27.36.57.57,0,0,0,.13.43l1.31,1.37a.5.5,0,0,0,.36.16.53.53,0,0,0,.24-.06l2.58-1.37a.52.52,0,0,0,.26-.39.51.51,0,0,0-.17-.43l-1.47-1.26a.5.5,0,0,0-.33-.12Z"/><path class="cls-22" d="M24.55,45.09h-.09a.27.27,0,0,1-.14-.14l-.71-1.67a.25.25,0,0,1,.12-.32l2.42-1.26a.2.2,0,0,1,.11,0l.1,0a.26.26,0,0,1,.14.15l.56,1.7a.25.25,0,0,1-.12.3l-2.27,1.23Z"/><path class="cls-10" d="M26.26,41.91l.56,1.7-2.27,1.23-.71-1.67,2.42-1.26m0-.5a.46.46,0,0,0-.23.06l-2.42,1.26a.5.5,0,0,0-.23.64L24.09,45a.46.46,0,0,0,.29.27.48.48,0,0,0,.4,0l2.28-1.23a.5.5,0,0,0,.24-.59l-.56-1.71a.48.48,0,0,0-.29-.3.41.41,0,0,0-.19,0Z"/><path class="cls-23" d="M24.1,45a.25.25,0,0,1-.18-.08l-1.66-1.72a.35.35,0,0,1-.06-.14l-.15-.93a.28.28,0,0,1,.13-.26.24.24,0,0,1,.12,0,.25.25,0,0,1,.16.06L23.76,43a.25.25,0,0,1,.08.12l.5,1.56a.26.26,0,0,1-.11.29A.22.22,0,0,1,24.1,45Z"/><path class="cls-10" d="M22.3,42.08l1.3,1.09.5,1.57L22.45,43l-.15-.93m0-.5a.5.5,0,0,0-.49.58l.14.93a.57.57,0,0,0,.13.27l1.66,1.72a.52.52,0,0,0,.36.16.59.59,0,0,0,.26-.07.5.5,0,0,0,.22-.58L24.08,43a.53.53,0,0,0-.16-.23l-1.3-1.09a.49.49,0,0,0-.32-.12Z"/><path class="cls-24" d="M44.94,23.64l-.1,0-.49-.2a.21.21,0,0,1-.13-.13l-.41-1-1.62-.79a.3.3,0,0,1-.14-.19l-.15-1a.24.24,0,0,1,.1-.24.21.21,0,0,1,.15-.05l.11,0,2.5,1.25a.25.25,0,0,1,.14.19l.29,1.83a.26.26,0,0,1-.1.24A.25.25,0,0,1,44.94,23.64Z"/><path class="cls-10" d="M42.15,20.31l2.5,1.25.29,1.83-.49-.2L44,22.13l-1.71-.84-.15-1m0-.5a.53.53,0,0,0-.3.09.5.5,0,0,0-.2.48l.16,1a.49.49,0,0,0,.27.37l1.54.75.37.89a.48.48,0,0,0,.27.27l.49.2a.43.43,0,0,0,.19,0,.51.51,0,0,0,.31-.11.49.49,0,0,0,.18-.47l-.28-1.83a.51.51,0,0,0-.28-.37l-2.5-1.25a.44.44,0,0,0-.22-.05Z"/><path class="cls-25" d="M44.65,21.81a.23.23,0,0,1-.11,0L42,20.53a.23.23,0,0,1-.14-.23.24.24,0,0,1,.15-.22l2.35-1a.18.18,0,0,1,.1,0,.27.27,0,0,1,.12,0l2.22,1.19a.25.25,0,0,1,0,.44l-2.07,1.06Z"/><path class="cls-10" d="M44.5,19.31l2.22,1.19-2.07,1.06-2.5-1.25,2.35-1m0-.5a.48.48,0,0,0-.2,0l-2.35,1a.5.5,0,0,0,0,.9L44.43,22a.46.46,0,0,0,.22.06.46.46,0,0,0,.23-.06L47,20.94a.48.48,0,0,0,.27-.44.51.51,0,0,0-.26-.45l-2.23-1.18a.46.46,0,0,0-.23-.06Z"/><path class="cls-26" d="M45.34,37.16a.29.29,0,0,1-.18-.07l-1.45-1.4a.27.27,0,0,1-.07-.21.25.25,0,0,1,.12-.19l1.92-1.14a.31.31,0,0,1,.13,0,.25.25,0,0,1,.14,0l.92.6.29-.15a.2.2,0,0,1,.11,0,.25.25,0,0,1,.2.09l.27.34a.24.24,0,0,1,0,.18.26.26,0,0,1-.09.17L45.49,37.1A.22.22,0,0,1,45.34,37.16Z"/><path class="cls-10" d="M45.81,34.37l1,.68.41-.21.27.33-2.2,1.74-1.45-1.4,1.92-1.14m0-.5a.48.48,0,0,0-.26.07l-1.92,1.14a.52.52,0,0,0-.24.37.5.5,0,0,0,.15.42L45,37.27a.52.52,0,0,0,.35.14.51.51,0,0,0,.31-.11l2.2-1.73a.53.53,0,0,0,.19-.34.51.51,0,0,0-.11-.37l-.27-.34a.48.48,0,0,0-.39-.18.46.46,0,0,0-.23,0l-.15.08L46.08,34a.53.53,0,0,0-.27-.08Z"/><path class="cls-27" d="M39,34.51a.23.23,0,0,1-.16-.06l-1.77-1.51a.29.29,0,0,1-.08-.23.23.23,0,0,1,.15-.19L38.43,32a.18.18,0,0,1,.1,0,.27.27,0,0,1,.15.05l1.83,1.46a.24.24,0,0,1,.09.22.24.24,0,0,1-.15.2l-1.37.58A.2.2,0,0,1,39,34.51Z"/><path class="cls-10" d="M38.53,32.23l1.82,1.45L39,34.26l-1.76-1.51,1.31-.52m0-.5a.58.58,0,0,0-.19,0L37,32.28a.52.52,0,0,0-.31.39.51.51,0,0,0,.17.46l1.76,1.51a.5.5,0,0,0,.33.12.43.43,0,0,0,.19,0l1.38-.58a.49.49,0,0,0,.11-.85l-1.82-1.45a.51.51,0,0,0-.31-.11Z"/><path class="cls-28" d="M45,37.3a.2.2,0,0,1-.13,0l-1-.67a.25.25,0,0,1-.11-.17l-.13-.82a.27.27,0,0,1,.11-.25.23.23,0,0,1,.14,0,.24.24,0,0,1,.12,0l1.21.7.27-.3a.21.21,0,0,1,.18-.09h0a.27.27,0,0,1,.19.11l.34.49a.25.25,0,0,1,.05.19.29.29,0,0,1-.11.16l-1,.66A.23.23,0,0,1,45,37.3Z"/><path class="cls-10" d="M43.86,35.56l1.38.8.4-.46.35.49-1,.66-1-.67-.13-.82m0-.5a.47.47,0,0,0-.28.09.47.47,0,0,0-.21.48l.12.83a.6.6,0,0,0,.22.34l1,.67a.53.53,0,0,0,.27.08.47.47,0,0,0,.28-.09l1-.65a.49.49,0,0,0,.21-.32.46.46,0,0,0-.08-.38l-.35-.5a.52.52,0,0,0-.38-.21h0a.48.48,0,0,0-.37.17l-.13.15-1-.6a.54.54,0,0,0-.25-.06Z"/><path class="cls-10" d="M53.55,22.08a.73.73,0,0,1,.3.06c.5.24.65,1.05.33,1.8a1.44,1.44,0,0,1-1.17,1,.66.66,0,0,1-.3-.07c-.49-.24-.64-1-.33-1.79a1.46,1.46,0,0,1,1.17-1m0-.6h0a2,2,0,0,0-1.72,1.36,2,2,0,0,0,.62,2.57,1.21,1.21,0,0,0,.56.13,2,2,0,0,0,1.73-1.37,2,2,0,0,0-.63-2.57,1.31,1.31,0,0,0-.56-.12Z"/><path class="cls-29" d="M45.28,23.77l-.11,0a.26.26,0,0,1-.13-.19l-.23-1.44a.25.25,0,0,1,.13-.26L47,20.8a.27.27,0,0,1,.12,0,.2.2,0,0,1,.11,0,.26.26,0,0,1,.13.19l.21,1.29a.27.27,0,0,1-.12.25l-2.05,1.21A.28.28,0,0,1,45.28,23.77Z"/><path class="cls-10" d="M47.13,21l.2,1.3-2,1.2-.22-1.44L47.13,21m0-.5a.46.46,0,0,0-.23.06l-2.07,1.06a.51.51,0,0,0-.27.52l.23,1.44a.48.48,0,0,0,.28.37.54.54,0,0,0,.21.05.48.48,0,0,0,.26-.07l2-1.2a.48.48,0,0,0,.24-.51L47.62,21a.47.47,0,0,0-.27-.37.43.43,0,0,0-.22-.06Z"/><polygon class="cls-30" points="20.89 35.78 22.78 37.59 25.29 36.33 23.5 34.56 20.89 35.78"/><line class="cls-31" x1="45.68" y1="35.62" x2="47.24" y2="34.61"/><path class="cls-32" d="M42.43,17.27a5.31,5.31,0,0,1,1.52.22l1.88.64a2.61,2.61,0,0,1,.27-.06,4,4,0,0,1,.59-.05,2.51,2.51,0,0,1,1.69.58,3,3,0,0,1,.9,1.46c.82-.42,2.47-1.24,3.92-1.91a3.19,3.19,0,0,1,.85-.27l.32,0a1.53,1.53,0,0,1,1,.35,2.13,2.13,0,0,1,.7,1.35c0,.07.1,1.31.15,4.13A4.41,4.41,0,0,1,54,27.89L50.06,30a6.36,6.36,0,0,1-2.7,4.78l-.09.08h0l.2.31-2.15,1.6-.09-.08L45,36.9l-.56-.37c-.43.2-.86.38-1.29.53a14.17,14.17,0,0,1-2.23.48c-.66.11-1.43.21-2.28.32-1.09.15-2.34.32-3.73.54a38.82,38.82,0,0,0-9.16,3l.44.38.06,0,.56,1.7-2.28,1.23-.28-.13L22.6,43c-.81.46-1.75,1-2.67,1.57-1.77,1-3.61,2.14-4.57,2.64a5.22,5.22,0,0,1-1.63.54,5.73,5.73,0,0,1-.81.06,3.19,3.19,0,0,1-3.41-2.63,5.76,5.76,0,0,1-.07-.69l-.81-1.43a5.92,5.92,0,0,1-.75-1.69,3.88,3.88,0,0,1,2.35-4.5L20.56,32a51.54,51.54,0,0,0,9.06-5.62,49.28,49.28,0,0,0,5.45-5.13A8.85,8.85,0,0,1,38,18.77l2.8-1.18a4.25,4.25,0,0,1,1.66-.32m0-.8a4.89,4.89,0,0,0-2,.39L37.66,18a9.8,9.8,0,0,0-3.21,2.68,48.46,48.46,0,0,1-5.34,5,50.71,50.71,0,0,1-8.89,5.52L9.92,36.16a4.67,4.67,0,0,0-2.83,5.36,6.37,6.37,0,0,0,.87,2l.69,1.24c0,.18,0,.37.07.57a4,4,0,0,0,4.2,3.31,5.82,5.82,0,0,0,.93-.07A6.21,6.21,0,0,0,15.73,48c1-.52,2.92-1.66,4.61-2.66.73-.44,1.47-.88,2.15-1.27l1.2,1.12a1.07,1.07,0,0,0,.22.15l.28.13a1,1,0,0,0,.33.07.75.75,0,0,0,.38-.1l2.28-1.23a.79.79,0,0,0,.38-.95l-.49-1.5a35.59,35.59,0,0,1,8-2.52c1.41-.22,2.69-.39,3.72-.53.87-.12,1.63-.22,2.29-.33a15.48,15.48,0,0,0,2.37-.51c.3-.11.63-.23,1-.38l.19.12a.79.79,0,0,0,.44.14.83.83,0,0,0,.47-.16.71.71,0,0,0,.33-.15l2.15-1.6a.8.8,0,0,0,.31-.72,6.94,6.94,0,0,0,2.57-4.59l3.53-1.88A5.29,5.29,0,0,0,57,23.66c-.05-2.93-.15-4.17-.15-4.18a3,3,0,0,0-1-1.9,2.39,2.39,0,0,0-1.52-.53l-.44,0a4.4,4.4,0,0,0-1.07.34c-1,.49-2.21,1.06-3.18,1.54a3.34,3.34,0,0,0-.79-1,3.3,3.3,0,0,0-2.2-.77,4.56,4.56,0,0,0-.72.06l-.11,0-1.65-.57a6,6,0,0,0-1.78-.26Z"/></svg>