<svg xmlns="http://www.w3.org/2000/svg" xmlns:xlink="http://www.w3.org/1999/xlink" viewBox="0 0 64 64"><defs><style>.cls-1,.cls-10,.cls-11,.cls-12,.cls-13,.cls-14,.cls-15,.cls-16,.cls-17,.cls-18,.cls-19,.cls-20,.cls-21,.cls-22,.cls-23{fill:none;}.cls-2{isolation:isolate;}.cls-3{stroke:#2d2d2d;fill:url(#linear-gradient);}.cls-10,.cls-11,.cls-12,.cls-13,.cls-14,.cls-15,.cls-16,.cls-17,.cls-18,.cls-19,.cls-20,.cls-21,.cls-23,.cls-3{stroke-linecap:round;stroke-linejoin:round;}.cls-4,.cls-7,.cls-9{opacity:0.8;}.cls-4{mix-blend-mode:multiply;}.cls-5{opacity:0.4;mix-blend-mode:overlay;}.cls-6{clip-path:url(#clip-path);}.cls-7{fill:url(#radial-gradient);}.cls-8{clip-path:url(#clip-path-2);}.cls-9{fill:url(#radial-gradient-2);}.cls-10{stroke:url(#linear-gradient-2);}.cls-11{stroke:url(#linear-gradient-3);}.cls-12{stroke:url(#linear-gradient-4);}.cls-13{stroke:url(#linear-gradient-5);}.cls-14{stroke:url(#linear-gradient-6);}.cls-15{stroke:url(#linear-gradient-7);}.cls-16{stroke:url(#linear-gradient-8);}.cls-17{stroke:url(#linear-gradient-9);}.cls-18{stroke:url(#linear-gradient-10);}.cls-19{stroke:url(#linear-gradient-11);}.cls-20{stroke:url(#linear-gradient-12);}.cls-21{stroke:url(#linear-gradient-13);}.cls-22,.cls-23{stroke:#00415f;}.cls-22{stroke-miterlimit:10;}</style><linearGradient id="linear-gradient" x1="7.5" y1="34.89" x2="56.5" y2="34.89" gradientUnits="userSpaceOnUse"><stop offset="0" stop-color="#d2d2d2"/><stop offset="0.63" stop-color="#a0a2a3"/><stop offset="0.73" stop-color="#a4a6a7"/><stop offset="0.83" stop-color="#b2b3b4"/><stop offset="0.95" stop-color="#c7c8c9"/><stop offset="1" stop-color="#d5d5d6"/></linearGradient><clipPath id="clip-path"><path class="cls-1" d="M33.36,17.66c2,3,6.21,5,10.89,5a17.51,17.51,0,0,0,12-4.86c-1.7,10.15-4.65,12.42-8.37,15.28s-8.32,6.41-13.27,19c-4.21-9.17-14.92-16.58-24-16.58a15.71,15.71,0,0,0-2.78.25c5.55-8.29,10.59-9.49,15-10.55,4-1,7.53-1.8,10.48-7.5"/></clipPath><radialGradient id="radial-gradient" cx="134.3" cy="-104.38" r="18.28" gradientTransform="matrix(1.29, -0.25, 0.11, 0.76, -105.46, 129.9)" gradientUnits="userSpaceOnUse"><stop offset="0.35" stop-color="#fff"/><stop offset="1" stop-color="#fff" stop-opacity="0"/></radialGradient><clipPath id="clip-path-2"><path class="cls-1" d="M33.36,17.66c2,3,6.21,5,10.89,5a17.51,17.51,0,0,0,12-4.86c-1.7,10.14-4.65,12.42-8.37,15.28s-8.32,6.41-13.27,19c-4.21-9.17-14.92-16.58-24-16.58a15.71,15.71,0,0,0-2.78.25c5.55-8.29,10.59-9.49,15-10.55,4-1,7.53-1.8,10.48-7.5"/></clipPath><radialGradient id="radial-gradient-2" cx="-31.19" cy="-603.78" r="30.59" gradientTransform="matrix(0.75, 0.11, -0.04, 0.35, 25.57, 243.35)" gradientUnits="userSpaceOnUse"><stop offset="0.35" stop-color="#fff"/><stop offset="1" stop-color="#fff" stop-opacity="0"/></radialGradient><linearGradient id="linear-gradient-2" x1="37.9" y1="13.71" x2="37.9" y2="29.67" gradientUnits="userSpaceOnUse"><stop offset="0" stop-color="#185971"/><stop offset="1" stop-color="#5597af"/></linearGradient><linearGradient id="linear-gradient-3" x1="40.4" y1="16.69" x2="40.4" y2="30.6" xlink:href="#linear-gradient-2"/><linearGradient id="linear-gradient-4" x1="42.39" y1="20.83" x2="42.39" y2="31.97" xlink:href="#linear-gradient-2"/><linearGradient id="linear-gradient-5" x1="43.74" y1="25.55" x2="43.74" y2="32.84" xlink:href="#linear-gradient-2"/><linearGradient id="linear-gradient-6" x1="44.87" y1="28.5" x2="44.87" y2="34.09" xlink:href="#linear-gradient-2"/><linearGradient id="linear-gradient-7" x1="46.6" y1="30" x2="46.6" y2="35.75" xlink:href="#linear-gradient-2"/><linearGradient id="linear-gradient-8" x1="34.79" y1="12.1" x2="34.79" y2="28.78" xlink:href="#linear-gradient-2"/><linearGradient id="linear-gradient-9" x1="20.85" y1="21.34" x2="20.85" y2="25.61" xlink:href="#linear-gradient-2"/><linearGradient id="linear-gradient-10" x1="23.65" y1="18.96" x2="23.65" y2="26.29" xlink:href="#linear-gradient-2"/><linearGradient id="linear-gradient-11" x1="28.34" y1="14.04" x2="28.34" y2="26.86" xlink:href="#linear-gradient-2"/><linearGradient id="linear-gradient-12" x1="25.93" y1="16.21" x2="25.93" y2="26.5" xlink:href="#linear-gradient-2"/><linearGradient id="linear-gradient-13" x1="31.27" y1="12.5" x2="31.27" y2="27.85" xlink:href="#linear-gradient-2"/></defs><title>CATIA _ (C03) FS1 - FreeStyle Shape Analysis</title><g class="cls-2"><g id="CATIA___C03_FS1_-_FreeStyle_Shape_Analysis" data-name="CATIA _ (C03) FS1 - FreeStyle Shape Analysis"><path class="cls-3" d="M33.34,17.36C27.1,29.75,18.23,19.62,7.5,35.94c9.81-2,22.61,6.2,27.15,16.48,10-25.72,18.46-14,21.85-35.06C48.51,25.21,36.82,23.08,33.34,17.36Z"/><g class="cls-5"><g class="cls-6"><path class="cls-7" d="M79.8,12.85c1.08,7.68-8.59,15.92-21.58,18.41s-24.4-1.71-25.47-9.4S41.34,5.94,54.33,3.45,78.73,5.16,79.8,12.85Z"/></g></g><g class="cls-5"><g class="cls-8"><path class="cls-9" d="M47.38,34.2c-.62,5.84-11.46,9.08-24.21,7.22s-22.59-8.12-22-14,11.46-9.08,24.21-7.22S48,28.35,47.38,34.2Z"/></g></g><line class="cls-10" x1="35.4" y1="29.17" x2="40.41" y2="14.21"/><line class="cls-11" x1="37.75" y1="30.1" x2="43.04" y2="17.19"/><line class="cls-12" x1="39.46" y1="31.47" x2="45.32" y2="21.33"/><line class="cls-13" x1="41.23" y1="32.34" x2="46.24" y2="26.05"/><line class="cls-14" x1="42.95" y1="33.59" x2="46.8" y2="29"/><line class="cls-15" x1="44.71" y1="35.25" x2="48.5" y2="30.5"/><line class="cls-16" x1="36.37" y1="12.6" x2="33.21" y2="28.28"/><line class="cls-17" x1="20.16" y1="21.84" x2="21.54" y2="25.11"/><line class="cls-18" x1="23.14" y1="19.46" x2="24.15" y2="25.79"/><line class="cls-19" x1="27.98" y1="14.54" x2="28.71" y2="26.36"/><line class="cls-20" x1="25.45" y1="16.71" x2="26.4" y2="26"/><line class="cls-21" x1="31.44" y1="13" x2="31.11" y2="27.35"/><path class="cls-22" d="M20.77,25.37S34.3,26.54,44.85,35.63"/><path class="cls-23" d="M20.1,21.5c4.37-.17,6.36-12.55,17.51-8.79S44.5,27.5,48.5,30.5"/></g></g></svg>