<svg id="versson_1_X_copy" data-name="versson 1 X copy" xmlns="http://www.w3.org/2000/svg" xmlns:xlink="http://www.w3.org/1999/xlink" viewBox="0 0 64 64"><defs><style>.cls-1,.cls-2,.cls-3,.cls-9{fill:none;}.cls-12,.cls-15,.cls-16,.cls-17,.cls-19,.cls-2,.cls-20{stroke:#231f20;}.cls-11,.cls-12,.cls-15,.cls-16,.cls-17,.cls-19,.cls-2,.cls-20,.cls-21,.cls-3,.cls-5,.cls-6,.cls-7,.cls-8,.cls-9{stroke-miterlimit:10;}.cls-2,.cls-3{stroke-width:0.99px;}.cls-11,.cls-21,.cls-3,.cls-5,.cls-6,.cls-7,.cls-8,.cls-9{stroke:#000;}.cls-4{clip-path:url(#clip-path);}.cls-11,.cls-12,.cls-15,.cls-17,.cls-19,.cls-5,.cls-6,.cls-7,.cls-8{stroke-width:0.28px;}.cls-5{fill:url(#Medium_BLUE_gradient_FRONT);}.cls-6{fill:#aadcfa;}.cls-7{fill:url(#linear-gradient);}.cls-8{fill:url(#Medium_BLUE_gradient_FRONT-2);}.cls-9{stroke-width:0.57px;}.cls-10,.cls-19{fill:#5a9ab8;}.cls-11{fill:#2d6d8b;}.cls-12,.cls-13{fill:#82bddb;}.cls-14{clip-path:url(#clip-path-2);}.cls-15,.cls-18,.cls-20{fill:#285977;}.cls-16,.cls-20,.cls-21{stroke-width:0.14px;}.cls-16{fill:url(#linear-gradient-2);}.cls-17{fill:#fff;}.cls-21{fill:url(#linear-gradient-3);}</style><clipPath id="clip-path"><path id="ok_trou_" data-name="ok  trou   *" class="cls-1" d="M43.94,34.27c.54,1.81-1.19,3.92-3.87,4.72s-5.29,0-5.83-1.83,1.19-3.92,3.87-4.71S43.4,32.47,43.94,34.27ZM10.53,22,10,30.22,4.09,41,45.8,54.12l6.1-12.41.18-8.15,7.58-9.8L18.48,10.38Z"/></clipPath><linearGradient id="Medium_BLUE_gradient_FRONT" x1="21.94" y1="47.34" x2="42.5" y2="14.44" gradientTransform="matrix(0.99, -0.16, 0.16, 0.99, -3.87, 4.68)" gradientUnits="userSpaceOnUse"><stop offset="0" stop-color="#8cd7f5"/><stop offset="1" stop-color="#376e8c"/></linearGradient><linearGradient id="linear-gradient" x1="28.81" y1="35.61" x2="35.39" y2="21.49" gradientTransform="matrix(0.99, -0.16, 0.16, 0.99, -3.87, 4.68)" gradientUnits="userSpaceOnUse"><stop offset="0" stop-color="#8cd7f5"/><stop offset="0.08" stop-color="#82cae8"/><stop offset="0.36" stop-color="#61a2c0"/><stop offset="0.62" stop-color="#4a86a4"/><stop offset="0.84" stop-color="#3c7492"/><stop offset="1" stop-color="#376e8c"/></linearGradient><linearGradient id="Medium_BLUE_gradient_FRONT-2" x1="34.56" y1="26.94" x2="42.04" y2="12.3" xlink:href="#Medium_BLUE_gradient_FRONT"/><clipPath id="clip-path-2"><path class="cls-1" d="M27,22.52l23.71.27L47.82,38H46l-1.22-.27L32.54,34.56l-1.91-1.1L27,33.52ZM27.36,48h21l2.53-3.81L27.3,38.39Z"/></clipPath><linearGradient id="linear-gradient-2" x1="36.03" y1="47.25" x2="41.68" y2="28.76" gradientUnits="userSpaceOnUse"><stop offset="0" stop-color="#82bedc"/><stop offset="0.17" stop-color="#80bcda"/><stop offset="0.24" stop-color="#7ab5d3"/><stop offset="0.28" stop-color="#70aac8"/><stop offset="0.32" stop-color="#6099b7"/><stop offset="0.35" stop-color="#4d83a1"/><stop offset="0.38" stop-color="#356886"/><stop offset="0.39" stop-color="#285a78"/><stop offset="0.63" stop-color="#285a78"/><stop offset="0.64" stop-color="#356886"/><stop offset="0.67" stop-color="#4d83a1"/><stop offset="0.7" stop-color="#6099b7"/><stop offset="0.73" stop-color="#70aac8"/><stop offset="0.78" stop-color="#7ab5d3"/><stop offset="0.84" stop-color="#80bcda"/><stop offset="1" stop-color="#82bedc"/></linearGradient><linearGradient id="linear-gradient-3" x1="14.28" y1="33.28" x2="17.01" y2="33.89" gradientTransform="matrix(1, 0, 0, 1, 0, 0)" xlink:href="#linear-gradient"/></defs><title>ddd__A33AAe__R21XArtboard 1</title><path id="contour_" data-name="contour   ***" class="cls-2" d="M45.1,52.46,6,40.44s3.75-6.55,4.41-7.74a10.4,10.4,0,0,0,.88-3.15l.19-4.31A8.16,8.16,0,0,1,13.32,20l6.17-8.36L58.23,24s-4.57,6.16-6.13,8.16a8.92,8.92,0,0,0-1.81,5.28l-.2,4.24A8.92,8.92,0,0,1,49.16,45C48.31,46.64,45.1,52.46,45.1,52.46Z"/><path id="ok_trou_2" data-name="ok  trou   *" class="cls-3" d="M43.94,34.27c.54,1.81-1.19,3.92-3.87,4.72s-5.29,0-5.83-1.83,1.19-3.92,3.87-4.71S43.4,32.47,43.94,34.27Z"/><g id="surface_" data-name="surface   ***"><g class="cls-4"><polygon id="_05" data-name="05" class="cls-5" points="45.1 52.46 36.83 49.95 22.57 45.45 14.3 42.95 6.04 40.44 10.45 32.7 49.16 44.96 45.1 52.46"/><path id="_04" data-name="04" class="cls-6" d="M50.09,41.67A10.65,10.65,0,0,1,49.16,45C48,44.6,11.55,33.06,10.45,32.7a11.16,11.16,0,0,0,.88-3.15Z"/><polygon id="_03" data-name="03" class="cls-7" points="11.33 29.55 11.52 25.24 50.29 37.43 50.09 41.67 11.33 29.55"/><path id="_02" data-name="02" class="cls-6" d="M50.29,37.43a9.32,9.32,0,0,1,1.81-5.28L13.32,20a8.09,8.09,0,0,0-1.8,5.27Z"/><polygon id="_01" data-name="01" class="cls-8" points="13.32 19.97 19.49 11.61 58.23 23.99 52.1 32.15 13.32 19.97"/></g></g><g id="Layer_27_copy" data-name="Layer 27   *** copy"><path id="contour" class="cls-9" d="M44.76,24.79c-3-1.31-7.59-1.35-12.27,1.27-1.94,1.24-2.2,3.9-2,5a12.6,12.6,0,0,0,.77,3h0c0,.09,0-.11,0,0-.19.45-.67,2.53-1.39,4.79a7.21,7.21,0,0,0,1.22,5.37c.74,1.16,3.25,3.78,8.78,2.65a10.79,10.79,0,0,0,5.58-3.07c1.48-1.17.81-5.23.81-5.23s.85-1.94,1-2.31c.59-1.77,1.5-5.24,1.5-5.24A6.1,6.1,0,0,0,44.76,24.79Z"/><path class="cls-10" d="M29.85,38.9a7.21,7.21,0,0,0,1.22,5.37c.74,1.16,3.25,3.78,8.78,2.65,1.89-.39,5.46-2,6.35-4.14l-1.33-1a9.75,9.75,0,0,1-4.76,3.38c-3.75,1.12-7.18.12-8.41-2.38a7.17,7.17,0,0,1-.8-3.62Z"/><path class="cls-10" d="M44.71,39.69h0a6.12,6.12,0,0,1,.09-1.93,9,9,0,0,1-4.32,2.68c-3.76,1.11-7.41,0-8.16-2.56a4.54,4.54,0,0,1,1.36-4.33,5.67,5.67,0,0,0-2.45,3.73c-.19,1.49-.89,2.51.47,5.56,1.23,2.5,4.66,3.5,8.41,2.38a9.75,9.75,0,0,0,4.76-3.38A13.76,13.76,0,0,0,44.71,39.69Z"/><path id="ok_" data-name="ok   **" class="cls-11" d="M44.87,41.83a9.75,9.75,0,0,1-4.76,3.38c-3.75,1.12-7.18.12-8.41-2.38-1.36-3-.66-4.07-.47-5.56a3.9,3.9,0,0,0,.07,1.36C32,41.47,35.87,43,40.07,42a10.15,10.15,0,0,0,4.64-2.35A15.09,15.09,0,0,1,44.87,41.83Z"/><path id="ok_2" data-name="ok   **" class="cls-10" d="M44.8,37.75a9,9,0,0,1-4.32,2.68c-3.76,1.11-7.41,0-8.16-2.56a4.54,4.54,0,0,1,1.36-4.33c-1.89,1.4-2.79,3.28-2.38,5.09C32,41.47,35.87,43,40.07,42a10.15,10.15,0,0,0,4.64-2.35A6.12,6.12,0,0,1,44.8,37.75Z"/><path id="ok_trou_3" data-name="ok  trou   *" class="cls-12" d="M43.94,34.27c.54,1.81-1.19,3.92-3.87,4.72s-5.29,0-5.83-1.83,1.19-3.92,3.87-4.71S43.4,32.47,43.94,34.27Zm-6.22-3.13c-3.75,1.11-6.16,4.2-5.4,6.73s4.4,3.67,8.16,2.56a9.51,9.51,0,0,0,4.32-2.68,1,1,0,0,1,.17-.47,4.25,4.25,0,0,0,.66-3.54C44.88,31.2,41.48,30,37.72,31.14Z"/><path class="cls-13" d="M44.71,29.85A9.91,9.91,0,0,0,37,29.43c-1,.32-3.88,1.72-4.51,2.87.09,1-1.12,1-1.31,2-.19.46-.61,2.35-1.33,4.61a7.21,7.21,0,0,0,1.22,5.37c.74,1.16,3.25,3.78,8.78,2.65a10.79,10.79,0,0,0,5.58-3.07c1.74-1.37,1-5.09.39-6.51a30.52,30.52,0,0,0,1.3-4.05A5.52,5.52,0,0,0,44.71,29.85Zm.12,7.84c-.45,1,.15,3.61,0,4.14a9.75,9.75,0,0,1-4.76,3.38c-3.75,1.12-7.18.12-8.41-2.38-1.36-3-.66-4.07-.47-5.56a6.3,6.3,0,0,1,.66-1.83,8.88,8.88,0,0,1,1.86-2,11.44,11.44,0,0,1,4-2.35C41.5,30,45,31.3,45.64,33.77,46.1,35.62,45.27,36.7,44.83,37.69Z"/><g class="cls-14"><path class="cls-15" d="M48.7,31.07c.19-1.48.63-2.7-2.25-5.32-4.67-3.16-11.8-1-13.47,0s-2.65,3.39-2.52,3.95c.08.33.19,2.25.23,2.51A8.91,8.91,0,0,1,31,35s.83.59.93.42a8.88,8.88,0,0,1,1.86-2,11.44,11.44,0,0,1,4-2.35C41.5,30,45,31.3,45.64,33.77c.46,1.85-.37,2.93-.81,3.92L46.6,38C47.21,36.55,48.39,32.27,48.7,31.07Z"/><path id="ok_3" data-name="ok   **" class="cls-15" d="M32.3,30.86a3,3,0,0,1,1.25-3.32c1.67-1.05,7.15-3.38,11.82-.22,2.89,2.62,1.94,4.47,1.75,6a4.78,4.78,0,0,0-.65-1.64C44.88,29,41.62,28.37,38,29.14c-1.88.41-4.75,2-5.51,3.07C32.6,32.67,32.41,31.31,32.3,30.86Z"/><path class="cls-15" d="M45.82,37.34a30.52,30.52,0,0,0,1.3-4.05,5.52,5.52,0,0,0-2.41-3.44A9.91,9.91,0,0,0,37,29.43c-1,.32-3.88,1.72-4.51,2.87.09,1-1.12,1-1.31,2l.05,3a7.12,7.12,0,0,1,.39-1.3,5.28,5.28,0,0,1,.27-.53,8.88,8.88,0,0,1,1.86-2,11.44,11.44,0,0,1,4-2.35C41.5,30,45,31.3,45.64,33.77c.46,1.85-.37,2.93-.81,3.92"/></g><path id="contour-2" data-name="contour" class="cls-16" d="M44.71,29.85A9.91,9.91,0,0,0,37,29.43c-1,.32-3.88,1.72-4.51,2.87.09,1-1.12,1-1.31,2-.19.46-.61,2.35-1.33,4.61a7.21,7.21,0,0,0,1.22,5.37c.74,1.16,3.25,3.78,8.78,2.65a10.79,10.79,0,0,0,5.58-3.07c1.74-1.37,1-5.09.39-6.51a30.52,30.52,0,0,0,1.3-4.05A5.52,5.52,0,0,0,44.71,29.85Zm.12,7.84c-.45,1,.15,3.61,0,4.14a9.75,9.75,0,0,1-4.76,3.38c-3.75,1.12-7.18.12-8.41-2.38-1.36-3-.66-4.07-.47-5.56a6.3,6.3,0,0,1,.66-1.83,8.88,8.88,0,0,1,1.86-2,11.44,11.44,0,0,1,4-2.35C41.5,30,45,31.3,45.64,33.77,46.1,35.62,45.27,36.7,44.83,37.69Z"/></g><g id="trou_copy" data-name="trou ** copy"><path class="cls-17" d="M19.71,19.45a2,2,0,0,1-1.35-1.55c-.18-1.06,1.09-2.33,2.84-2.62a5.82,5.82,0,0,1,2.36.23l7,2a2.28,2.28,0,0,1,1.89,1.86c.13,1.2-1.07,2.38-2.9,2.57a5.16,5.16,0,0,1-2-.1Zm8.74,2.26a3.06,3.06,0,0,0,1.23.06c1.09-.11,1.81-.82,1.74-1.54a1.39,1.39,0,0,0-1.14-1.12l-7.53-2.2a3.38,3.38,0,0,0-1.42-.14c-1,.18-1.81.94-1.7,1.57a1.14,1.14,0,0,0,.81.93Z"/><path class="cls-18" d="M28.45,21.71a3.06,3.06,0,0,0,1.23.06c1.09-.11,1.81-.82,1.74-1.54a1.39,1.39,0,0,0-1.14-1.12l-7.53-2.2a3.38,3.38,0,0,0-1.42-.14c-1,.18-1.81.94-1.7,1.57a1.14,1.14,0,0,0,.81.93Z"/></g><g id="renfort_copy" data-name="renfort ** copy"><path class="cls-19" d="M18.5,34.88c-.47,1.55-5.17,4.69-6,4.28-2-1-.47-4.89.28-7.8S14.7,27,15.59,27.3C17.38,27.89,19.13,32.84,18.5,34.88Z"/><path class="cls-20" d="M17.81,34.32c-.47,1.93-4.1,4.48-5,4.24s-.38-2.89.37-5.81,1.58-5,2.49-4.77S18.34,32.21,17.81,34.32Z"/><path class="cls-21" d="M15.41,37.3c-.19.16-2,1.43-2.61,1.26-.91-.23-.38-2.89.37-5.81s1.58-5,2.49-4.77c.6.16,1.35,1.83,1.57,2.34C16.84,31.35,15.69,36.47,15.41,37.3Z"/></g></svg>