<svg id="CATIA___B16_FR1_-_Part_Feature_Recognition" data-name="CATIA _ (B16) FR1 - Part Feature Recognition" xmlns="http://www.w3.org/2000/svg" xmlns:xlink="http://www.w3.org/1999/xlink" viewBox="0 0 64 64"><defs><style>.cls-1,.cls-10,.cls-4,.cls-5,.cls-6,.cls-7,.cls-8{stroke:#6d6d6d;}.cls-1,.cls-10,.cls-11,.cls-4,.cls-5,.cls-6,.cls-7,.cls-8{stroke-linecap:round;stroke-linejoin:round;}.cls-1{fill:url(#linear-gradient);}.cls-2{fill:url(#linear-gradient-2);}.cls-3{fill:#00415f;}.cls-4,.cls-5{stroke-width:0.6px;}.cls-4{fill:url(#linear-gradient-3);}.cls-5{fill:url(#linear-gradient-4);}.cls-6{fill:url(#linear-gradient-5);}.cls-7{fill:url(#linear-gradient-6);}.cls-8{fill:url(#linear-gradient-7);}.cls-9{fill:url(#linear-gradient-8);}.cls-10{fill:url(#linear-gradient-9);}.cls-11,.cls-13{stroke:#00415f;}.cls-11{stroke-width:0.8px;fill:url(#linear-gradient-10);}.cls-12{fill:url(#linear-gradient-11);}.cls-13,.cls-16{stroke-miterlimit:10;}.cls-13{fill:url(#linear-gradient-12);}.cls-14{fill:url(#linear-gradient-13);}.cls-15{fill:url(#linear-gradient-14);}.cls-16{fill:none;stroke:#2d2d2d;}.cls-17{fill:url(#linear-gradient-15);}</style><linearGradient id="linear-gradient" x1="56.23" y1="34.35" x2="40.19" y2="34.35" gradientUnits="userSpaceOnUse"><stop offset="0" stop-color="#f7f7f7"/><stop offset="0.18" stop-color="#f0f0f0"/><stop offset="0.45" stop-color="#dcdcdc"/><stop offset="0.78" stop-color="#bcbcbc"/><stop offset="1" stop-color="#a1a1a1"/></linearGradient><linearGradient id="linear-gradient-2" x1="49.56" y1="25.18" x2="55.45" y2="25.18" gradientTransform="matrix(1.06, 0.04, -0.02, 0.96, -2.83, -1.21)" gradientUnits="userSpaceOnUse"><stop offset="0" stop-color="#92d5ee"/><stop offset="0.6" stop-color="#599bb4"/><stop offset="1" stop-color="#32738c"/></linearGradient><linearGradient id="linear-gradient-3" x1="7.97" y1="34.92" x2="56.2" y2="34.92" gradientUnits="userSpaceOnUse"><stop offset="0" stop-color="#666"/><stop offset="0.15" stop-color="#dbdcdd"/><stop offset="0.87" stop-color="#c6c8c9"/><stop offset="1" stop-color="#f2f2f2"/></linearGradient><linearGradient id="linear-gradient-4" x1="7.37" y1="36.77" x2="54.6" y2="23.56" gradientUnits="userSpaceOnUse"><stop offset="0.01" stop-color="#fff"/><stop offset="0.05" stop-color="#f9f9f9"/><stop offset="0.11" stop-color="#e9e9e9"/><stop offset="0.18" stop-color="#cecece"/><stop offset="0.22" stop-color="#bababa"/><stop offset="1" stop-color="#fff"/></linearGradient><linearGradient id="linear-gradient-5" x1="18.94" y1="35.52" x2="43.67" y2="35.52" gradientUnits="userSpaceOnUse"><stop offset="0" stop-color="#c9c9c9"/><stop offset="1" stop-color="#737373"/></linearGradient><linearGradient id="linear-gradient-6" x1="49.16" y1="17.33" x2="55.88" y2="17.33" gradientUnits="userSpaceOnUse"><stop offset="0" stop-color="#8a8a8a"/><stop offset="1" stop-color="#383838"/></linearGradient><linearGradient id="linear-gradient-7" x1="9.69" y1="41" x2="15.36" y2="41" xlink:href="#linear-gradient-6"/><linearGradient id="linear-gradient-8" x1="9.57" y1="32.92" x2="15.42" y2="32.92" gradientTransform="matrix(1, 0, 0, 1, 0, 0)" xlink:href="#linear-gradient-2"/><linearGradient id="linear-gradient-9" x1="18.93" y1="35.34" x2="42.17" y2="35.34" gradientUnits="userSpaceOnUse"><stop offset="0" stop-color="#c9c9c9"/><stop offset="0.88" stop-color="#c2c2c2"/><stop offset="1" stop-color="#737373"/></linearGradient><linearGradient id="linear-gradient-10" x1="18.53" y1="35.68" x2="43.98" y2="35.68" gradientTransform="matrix(1, 0, 0, 1, 0, 0)" xlink:href="#linear-gradient-2"/><linearGradient id="linear-gradient-11" x1="18.53" y1="35.08" x2="41.8" y2="35.08" gradientUnits="userSpaceOnUse"><stop offset="0" stop-color="#c9c9ca"/><stop offset="0.35" stop-color="#b4b4b5"/><stop offset="0.71" stop-color="#a5a5a5"/><stop offset="1" stop-color="#a0a0a0"/></linearGradient><linearGradient id="linear-gradient-12" x1="49.03" y1="32.98" x2="55.46" y2="32.98" gradientTransform="matrix(1, 0, 0, 1, 0, 0)" xlink:href="#linear-gradient-2"/><linearGradient id="linear-gradient-13" x1="-19.62" y1="52" x2="-13.9" y2="52" gradientTransform="matrix(1, 0.06, -0.06, 1, 32.29, -27.91)" xlink:href="#linear-gradient-2"/><linearGradient id="linear-gradient-14" x1="49.5" y1="14.35" x2="55.62" y2="14.35" gradientTransform="matrix(1, 0, 0, 1, 0, 0)" xlink:href="#linear-gradient-2"/><linearGradient id="linear-gradient-15" x1="49.92" y1="11.48" x2="55.39" y2="11.48" gradientTransform="matrix(1.04, -0.02, 0.02, 1, -2.63, 0.81)" xlink:href="#linear-gradient-2"/></defs><title>CATIA _ (B16) FR1 - Part Feature Recognition</title><path class="cls-1" d="M46.73,32a19.32,19.32,0,0,1,4.9-1.29c1.66,0,4.35.93,4.35,2.71l-.42,1.35L45.89,38Z"/><path class="cls-2" d="M49,32.41l.36-14.75c0-.13.74-.56,2.29-.56a8.13,8.13,0,0,1,.84,0c1.87.18,3,1.23,3,1.53l-.27,13.94Z"/><path class="cls-3" d="M51.68,17.6h0a7,7,0,0,1,.79,0A3.94,3.94,0,0,1,55,18.75L54.78,32.1l-5.24-.18.34-14a4.32,4.32,0,0,1,1.8-.3m0-1c-1.55,0-2.73.42-2.79,1l-.37,15.25,7.24.24L56,18.72c.07-.74-1.51-1.89-3.47-2.08-.3,0-.6,0-.89,0Z"/><path class="cls-4" d="M8.1,42.71l-.13,8c.5,1.35,3,2.46,6.21,1.35,2.5-.85,4.46-2.29,6.81-3.26,3.48-1.44,16.3-4.41,21.84-6.36,4.43-1.55,9.43-3.13,11.16-3.81s1.57-1.69,1.57-1.69L56,33.38c0,.76-1.49,1.35-1.49,1.35S50.85,35.92,49,36.6a1.56,1.56,0,0,1-2.23-1.08s.33-5,.49-7.37a3.15,3.15,0,0,1,2.15-2.91,41.88,41.88,0,0,1,4.61-1.61c2-.51,2.07-1.1,2.07-1.1l.08-5.2s-12.05,1.13-19,4.19S18.59,37.36,18.59,37.36Z"/><path class="cls-5" d="M40.66,18c-2,.59-7.28,2.12-14.39,9.57-7.52,7.89-9.53,9.66-11.91,10.51-3.81,1.36-7.48,2.56-6.45,4.75S13.09,45,14.85,44c2.9-1.69,4.17-5.7,14.48-13.47,6-4.49,9.1-6.87,14.14-8.48,3-.95,9.16-2.54,11.47-3.3s2.73-3-3.55-3A92.16,92.16,0,0,0,40.66,18Z"/><path class="cls-6" d="M42.33,25.67c-5.35,1.44-19.79,12.55-23.16,18-.58.93-.08,2.2,1.49,1.7s6.37-2,11.42-3.22,9.59-2.55,9.59-2.55,1.57-.17,1.57-2.45.41-10.34.41-10.34S43.9,25.24,42.33,25.67Z"/><path class="cls-7" d="M55.88,17.57c.06-.77-1.41-1.51-3.26-1.64s-3.41.39-3.46,1.17,1.41,1.51,3.27,1.64S55.83,18.35,55.88,17.57Z"/><path class="cls-8" d="M15.34,40.32c-.19-.81-1.6-1.16-3.16-.79s-2.66,1.34-2.47,2.15,1.59,1.16,3.15.79S15.53,41.13,15.34,40.32Z"/><path class="cls-9" d="M11.71,42.63a2.21,2.21,0,0,1-2.14-1V24.1L13,23.21H15.4v17.5a.43.43,0,0,0,0,.11c.08.36-.82,1.27-2.32,1.64a6.21,6.21,0,0,1-1.39.17Z"/><path class="cls-3" d="M14.9,23.71v17s0,.09,0,.14A3.27,3.27,0,0,1,13,42a5.2,5.2,0,0,1-1.27.16,1.78,1.78,0,0,1-1.64-.65v-17l3-.77h1.8m1-1H13l-3.91,1v18a2.6,2.6,0,0,0,2.64,1.42,6.16,6.16,0,0,0,1.5-.19c1.56-.37,2.88-1.42,2.69-2.23v-18Z"/><path class="cls-10" d="M19,44.91a1.42,1.42,0,0,0,1.07,0c.42-.17,20.35-6.52,20.35-6.52a1.75,1.75,0,0,0,1.41-1.78c.08-1.61.33-10.93.33-10.93l-.66.34L41.17,36.6A1.5,1.5,0,0,1,40,37.78L19.84,44.14s-.58.25-.83-.25a3,3,0,0,0-.08.59A1.16,1.16,0,0,0,19,44.91Z"/><path class="cls-11" d="M41.93,25.35l-.21,0c0,1.64-.22,9.68-.29,11.12A1.74,1.74,0,0,1,40,38.3s-19.66,6-20.1,6.1a3.23,3.23,0,0,1-1.39-.23c0,.78,1.58,2.23,3.15,1.81,2.07-.55,6.12-1.77,10.69-3.21l9.63-3s1.52-.17,1.57-2.46S44,27,44,27,43.65,25,41.93,25.35Z"/><path class="cls-12" d="M19.42,44.62a1,1,0,0,1-.82-.45.42.42,0,0,1-.05-.36,2.33,2.33,0,0,1,.19-.39c3.12-5,16.38-15.53,22.52-17.85a.35.35,0,0,1,.14,0,.38.38,0,0,1,.23.08.37.37,0,0,1,.17.33l-.32,10.66A1.94,1.94,0,0,1,40,38.17L19.86,44.52h0a.89.89,0,0,1-.44.1Zm.44-.1Z"/><path class="cls-3" d="M41.4,25.94h0m0,0L41.08,36.6a1.52,1.52,0,0,1-1.16,1.18L19.74,44.14a.71.71,0,0,1-.32.08.57.57,0,0,1-.49-.28,2.2,2.2,0,0,1,.15-.31c3.2-5.15,16.44-15.47,22.32-17.69m0-.8h0a.88.88,0,0,0-.27.06c-6.34,2.41-19.48,12.83-22.7,18a2.27,2.27,0,0,0-.23.47.8.8,0,0,0,.1.72,1.38,1.38,0,0,0,1.15.62,1.35,1.35,0,0,0,.62-.14l20.12-6.33a2.32,2.32,0,0,0,1.71-1.87s0,0,0-.06L42.2,26v-.09a.79.79,0,0,0-.79-.8h0Zm0,1.6h0Z"/><path class="cls-13" d="M55.46,33.21c.06-.86-1.33-1.65-3.11-1.77s-3.26.46-3.32,1.31,1.34,1.64,3.11,1.77S55.4,34.05,55.46,33.21Z"/><path class="cls-14" d="M11.62,24.33c-1.26,0-2-.36-2.06-.7-.1-.63,1-1.59,2.67-1.88a6.56,6.56,0,0,1,1.07-.1c1.23,0,2,.4,2,.77s0,1.36-2.46,1.8a8,8,0,0,1-1.27.11Z"/><path class="cls-3" d="M13.3,22.15a2.75,2.75,0,0,1,1.55.35c-.06.58-.75,1-2,1.22a6,6,0,0,1-1.18.11,2.83,2.83,0,0,1-1.56-.32,3,3,0,0,1,2.26-1.27,5.5,5.5,0,0,1,1-.09m0-1a6.57,6.57,0,0,0-1.15.11c-1.89.33-3.25,1.47-3.08,2.45.13.74,1.22,1.12,2.55,1.12A8.07,8.07,0,0,0,13,24.71c1.88-.34,2.87-1.1,2.87-2.29,0-.78-1.14-1.27-2.55-1.27Z"/><path class="cls-15" d="M53.2,18.32a5.33,5.33,0,0,1-.56,0,4.18,4.18,0,0,1-2.91-1l-.14-.61V11.71a3.22,3.22,0,0,1,2.81-1.34h.25c1.77.13,2.79,1,2.77,1.29v6.21a4.82,4.82,0,0,1-2.21.44Z"/><path class="cls-3" d="M52.4,10.87h.21a3.52,3.52,0,0,1,2.31.86v5.82a4.86,4.86,0,0,1-1.71.26h-.53A4.39,4.39,0,0,1,50.19,17l-.1-.45V11.83a3.07,3.07,0,0,1,2.31-1m0-1c-1.74,0-3.26,1.1-3.31,1.84v5l.17.73c.34.67,1.69,1.25,3.34,1.36.21,0,.4,0,.6,0a4.58,4.58,0,0,0,2.7-.67l0-1.44v-5c0-.78-1.38-1.7-3.24-1.83Z"/><path class="cls-16" d="M7.61,50.71c.49,1.35,3.34,2.09,6.57,1,2.5-.86,4.46-2.29,6.81-3.27C24.47,47,37.29,44,42.83,42.08c4.43-1.56,9.43-3.14,11.16-3.81s1.57-1.7,1.57-1.7L56,33c0,.12.06-.11,0,0h0c0-1.78-2.65-2.46-4.3-2.46a16.66,16.66,0,0,0-4.47,1.1v.07c.09-1.37.19-2.86.26-3.88a3.21,3.21,0,0,1,2-3,39.71,39.71,0,0,1,4.61-1.61c2-.51,2.07-1.11,2.07-1.11L56.2,17h0c.07-.84-.7-1.7-4.55-1.7a92.48,92.48,0,0,0-10.72,2.37c-2,.6-7.28,2.12-14.4,9.58C19,35.13,17,36.91,14.63,37.76c-3.45,1.22-7.18,2.33-7,4.14Z"/><path class="cls-17" d="M52.84,12.52h-.37c-1.72-.09-2.83-.78-2.81-1.2s1-.89,2.55-.89h.36c1.72.09,2.83.78,2.81,1.19s-1,.9-2.54.9Z"/><path class="cls-3" d="M52.21,10.92h.34a4.12,4.12,0,0,1,2.25.66,3.77,3.77,0,0,1-2,.43H52.5a4.12,4.12,0,0,1-2.25-.66,3.77,3.77,0,0,1,2-.43m0-1c-1.68,0-3,.59-3.05,1.37s1.43,1.62,3.29,1.72h.39c1.67,0,3-.58,3-1.37S54.45,10,52.6,9.93Z"/></svg>