<svg id="CATIA___B04_FM1_-_Functional_Part_Design" data-name="CATIA _ (B04) FM1 - Functional Part Design" xmlns="http://www.w3.org/2000/svg" xmlns:xlink="http://www.w3.org/1999/xlink" viewBox="0 0 64 64"><defs><style>.cls-1,.cls-10,.cls-14,.cls-2,.cls-3,.cls-4,.cls-8{stroke:#6d6d6d;}.cls-1,.cls-10,.cls-14,.cls-15,.cls-16,.cls-19,.cls-2,.cls-20,.cls-21,.cls-23,.cls-3,.cls-4,.cls-8{stroke-linecap:round;stroke-linejoin:round;}.cls-1{fill:url(#linear-gradient);}.cls-2{fill:url(#linear-gradient-2);}.cls-21,.cls-3{fill:none;}.cls-11,.cls-4{fill:#fff;}.cls-5{fill:url(#linear-gradient-3);}.cls-6{fill:#6d6d6d;}.cls-7{fill:url(#linear-gradient-4);}.cls-8{fill:url(#linear-gradient-5);}.cls-9{fill:url(#linear-gradient-6);}.cls-10{fill:url(#linear-gradient-7);}.cls-12{fill:url(#linear-gradient-8);}.cls-13{fill:url(#linear-gradient-9);}.cls-14{fill:url(#linear-gradient-10);}.cls-15,.cls-16,.cls-19,.cls-20,.cls-21{stroke:#00415f;}.cls-15{fill:url(#linear-gradient-11);}.cls-16{fill:url(#linear-gradient-12);}.cls-17{fill:url(#linear-gradient-13);}.cls-18{fill:#00415f;}.cls-19{fill:url(#linear-gradient-14);}.cls-20{fill:url(#linear-gradient-15);}.cls-22{fill:#2d2d2d;}.cls-23{stroke:#2d2d2d;fill:url(#linear-gradient-16);}.cls-24{fill:#383838;}</style><linearGradient id="linear-gradient" x1="8.14" y1="21.12" x2="17.49" y2="51.71" gradientUnits="userSpaceOnUse"><stop offset="0" stop-color="#c9c9c9"/><stop offset="1" stop-color="#737373"/></linearGradient><linearGradient id="linear-gradient-2" x1="53.28" y1="35.26" x2="41.06" y2="14.09" xlink:href="#linear-gradient"/><linearGradient id="linear-gradient-3" x1="34.28" y1="33.87" x2="28.19" y2="23.33" gradientUnits="userSpaceOnUse"><stop offset="0" stop-color="#f0f0f0"/><stop offset="1" stop-color="#b3b3b3"/></linearGradient><linearGradient id="linear-gradient-4" x1="14.28" y1="25.01" x2="23.99" y2="45.73" xlink:href="#linear-gradient-3"/><linearGradient id="linear-gradient-5" x1="42.54" y1="40.79" x2="40.27" y2="36.85" xlink:href="#linear-gradient-3"/><linearGradient id="linear-gradient-6" x1="34.52" y1="38.39" x2="36.08" y2="41.72" xlink:href="#linear-gradient-3"/><linearGradient id="linear-gradient-7" x1="43.95" y1="40.49" x2="40.53" y2="34.57" xlink:href="#linear-gradient-3"/><linearGradient id="linear-gradient-8" x1="34.46" y1="19.74" x2="36.22" y2="23.51" xlink:href="#linear-gradient-3"/><linearGradient id="linear-gradient-9" x1="45.46" y1="17.47" x2="53.81" y2="35.28" xlink:href="#linear-gradient-3"/><linearGradient id="linear-gradient-10" x1="44.16" y1="23.12" x2="40.65" y2="17.03" xlink:href="#linear-gradient-3"/><linearGradient id="linear-gradient-11" x1="35.73" y1="15.64" x2="61.87" y2="28.33" gradientUnits="userSpaceOnUse"><stop offset="0" stop-color="#83d2ea"/><stop offset="0.55" stop-color="#5199b0"/><stop offset="1" stop-color="#25667d"/></linearGradient><linearGradient id="linear-gradient-12" x1="30.87" y1="17.72" x2="52.53" y2="40.39" gradientUnits="userSpaceOnUse"><stop offset="0" stop-color="#92d5ee"/><stop offset="0.48" stop-color="#599bb4"/><stop offset="1" stop-color="#185971"/></linearGradient><linearGradient id="linear-gradient-13" x1="32.88" y1="19.99" x2="40.36" y2="40.56" gradientUnits="userSpaceOnUse"><stop offset="0" stop-color="#5a9cb5"/><stop offset="0.69" stop-color="#195a72"/></linearGradient><linearGradient id="linear-gradient-14" x1="20.64" y1="40.18" x2="36.65" y2="40.18" xlink:href="#linear-gradient-13"/><linearGradient id="linear-gradient-15" x1="20.67" y1="21.62" x2="38.92" y2="21.62" xlink:href="#linear-gradient-13"/><linearGradient id="linear-gradient-16" x1="41.19" y1="25.81" x2="62.59" y2="59.04" gradientUnits="userSpaceOnUse"><stop offset="0" stop-color="#fff"/><stop offset="1" stop-color="#bfbfbf"/></linearGradient></defs><title>CATIA _ (B04) FM1 - Functional Part Design</title><polygon class="cls-1" points="7.5 23.33 7.5 37.5 15 49 15 25.06 10.5 20.4 7.5 23.33"/><polygon class="cls-2" points="41.42 26.6 41.42 19.27 42.23 17.36 50.84 19.14 50.84 33.4 41.42 26.6"/><line class="cls-3" x1="23.68" y1="45.52" x2="23.68" y2="42.53"/><path class="cls-4" d="M37.25,38a2,2,0,0,1-.93-1.52c0-1.5,2.43-2.72,5.43-2.72a7.8,7.8,0,0,1,4.54,1.2l4.54-1.5L41.42,26.6,18.31,33.16V44.33l5.37-1.8a2.06,2.06,0,0,1-1-1.61c0-1.61,2.6-2.91,5.81-2.91a8.39,8.39,0,0,1,4.83,1.29L37.27,38Z"/><path class="cls-5" d="M18.31,33.51a.31.31,0,0,1-.21-.07.34.34,0,0,1-.14-.28V27.54a.35.35,0,0,1,.26-.34l5.12-1.34V23.59a.34.34,0,0,1,.16-.29,10.17,10.17,0,0,1,5.08-1.13,10.39,10.39,0,0,1,4.92,1.08l3.4-.88V20.24a.32.32,0,0,1,.17-.29,8.88,8.88,0,0,1,4.35-1h0a.35.35,0,0,1,.25.1.36.36,0,0,1,.1.25V26.6a.34.34,0,0,1-.25.33L18.4,33.5Z"/><path class="cls-6" d="M41.42,19.28V26.6L18.31,33.16V27.54l5.38-1.41V23.59a9.88,9.88,0,0,1,4.89-1.07,9.87,9.87,0,0,1,4.87,1.1l3.8-1v-2.4a8.72,8.72,0,0,1,4.17-1m0-.7h0a9.28,9.28,0,0,0-4.53,1.07.71.71,0,0,0-.33.59V22.1l-3,.77a11.08,11.08,0,0,0-5-1.05A10.5,10.5,0,0,0,23.32,23a.69.69,0,0,0-.33.59v2l-4.86,1.28a.69.69,0,0,0-.52.67v5.62a.69.69,0,0,0,.28.56.65.65,0,0,0,.42.14.62.62,0,0,0,.19,0l23.11-6.57a.68.68,0,0,0,.51-.67V19.28a.68.68,0,0,0-.7-.7Z"/><path class="cls-7" d="M15,48.89a.36.36,0,0,1-.2-.06.36.36,0,0,1-.15-.29V25.06a.35.35,0,0,1,.27-.34l8.63-2.1h.08A.35.35,0,0,1,24,23v3.17a.34.34,0,0,1-.26.34L18.6,27.81v16l4.92-1.65a.2.2,0,0,1,.11,0,.36.36,0,0,1,.2.06.35.35,0,0,1,.15.29v3a.35.35,0,0,1-.23.33l-8.63,3Z"/><path class="cls-6" d="M23.63,23v3.17l-5.38,1.41V44.33l5.38-1.8v3l-8.63,3V25.06L23.63,23m0-.7-.16,0-8.64,2.1a.71.71,0,0,0-.53.68V48.55a.7.7,0,0,0,.3.57.73.73,0,0,0,.4.13.85.85,0,0,0,.23,0l8.63-3a.7.7,0,0,0,.47-.66v-3A.7.7,0,0,0,24,42a.69.69,0,0,0-.41-.13.83.83,0,0,0-.22,0L19,43.36V28.08l4.86-1.27a.71.71,0,0,0,.52-.68V23a.74.74,0,0,0-.26-.55.71.71,0,0,0-.44-.15Z"/><path class="cls-8" d="M37.26,40.78a2.1,2.1,0,0,1-.95-1.57c0-1.57,2.44-2.85,5.44-2.85a7.61,7.61,0,0,1,4.51,1.26Z"/><path class="cls-9" d="M33.36,42.5a.4.4,0,0,1-.21-.07.34.34,0,0,1-.14-.28V39.32a.36.36,0,0,1,.23-.34l3.91-1.31h.11a.34.34,0,0,1,.35.34v2.78a.35.35,0,0,1-.24.33l-3.9,1.37Z"/><path class="cls-6" d="M37.26,38v2.77l-3.9,1.37h0V39.32L37.26,38m0-.7a.91.91,0,0,0-.23,0l-3.9,1.31a.71.71,0,0,0-.47.67v2.83a.65.65,0,0,0,.18.46.69.69,0,0,0,.52.24,1,1,0,0,0,.23,0l3.9-1.37a.7.7,0,0,0,.47-.66V38a.7.7,0,0,0-.29-.57.69.69,0,0,0-.41-.13Z"/><path class="cls-10" d="M46.28,34.93a7.87,7.87,0,0,0-4.53-1.17c-3,0-5.43,1.22-5.43,2.72A2,2,0,0,0,37.25,38l-.24-.2a7.29,7.29,0,0,1,4.74-1.45,7.61,7.61,0,0,1,4.51,1.23h0Z"/><path class="cls-11" d="M14.8,25.1a.28.28,0,0,1-.22-.1l-4-4.28a.32.32,0,0,1-.07-.3.31.31,0,0,1,.23-.2l36.19-7.88H47a.25.25,0,0,1,.14,0l6.3,3.13a.32.32,0,0,1,.17.3.31.31,0,0,1-.23.26l-7,1.71h-.07a.3.3,0,0,1-.16-.05,9.57,9.57,0,0,0-4.42-.89c-3,0-5.14.92-5.14,1.74,0,.23.28.5.82.82a.3.3,0,0,1,.15.3.28.28,0,0,1-.21.26l-3.8.93h-.07a.32.32,0,0,1-.14,0h0a10.29,10.29,0,0,0-4.72-.94c-3.25,0-5.52,1-5.52,1.88,0,.12,0,.15.39.34l.39.21a.3.3,0,0,1,.14.3.29.29,0,0,1-.22.25l-8.89,2.2Z"/><path class="cls-6" d="M47,12.63l6.31,3.14-7,1.71h0a9.7,9.7,0,0,0-4.55-.93c-3,0-5.44.92-5.44,2,0,.41.42.76,1,1.07l0,0-3.8.93h0a10.6,10.6,0,0,0-4.87-1c-3.22,0-5.82,1-5.82,2.18,0,.43.34.47.93.81L14.8,24.8l-4-4.29L47,12.63m0-.6-.12,0-36.2,7.88a.6.6,0,0,0-.31,1l4,4.29a.63.63,0,0,0,.44.19l.14,0,8.89-2.2a.59.59,0,0,0,.45-.5.6.6,0,0,0-.29-.6l-.4-.21-.23-.12c.11-.56,1.94-1.54,5.22-1.54a10.24,10.24,0,0,1,4.57.9h0a.54.54,0,0,0,.28.08l.14,0,3.8-.93a.61.61,0,0,0,.46-.52.61.61,0,0,0-.33-.6c-.63-.36-.66-.55-.66-.55,0-.51,1.84-1.44,4.84-1.44A9.4,9.4,0,0,1,46,18a.78.78,0,0,0,.34.09l.12,0,7-1.71a.57.57,0,0,0,.45-.51.61.61,0,0,0-.33-.61l-6.3-3.13A.6.6,0,0,0,47,12Z"/><path class="cls-12" d="M33.45,24a.41.41,0,0,1-.22-.07.37.37,0,0,1-.13-.28v-3a.35.35,0,0,1,.26-.34l3.81-.92h.08a.31.31,0,0,1,.21.07.35.35,0,0,1,.14.28v3a.35.35,0,0,1-.26.34l-3.81,1Z"/><path class="cls-6" d="M37.25,19.67v3l-3.8,1v-3l3.8-.93m0-.7a.5.5,0,0,0-.17,0l-3.8.92a.71.71,0,0,0-.53.69v3a.69.69,0,0,0,.27.55.66.66,0,0,0,.43.15l.17,0,3.8-1a.71.71,0,0,0,.53-.68v-3a.7.7,0,0,0-.7-.7Z"/><path class="cls-13" d="M46.28,38a.36.36,0,0,1-.2-.06.36.36,0,0,1-.15-.29V34.93a.35.35,0,0,1,.24-.33l4.3-1.45V19.59l-4.1,1.06h-.09a.44.44,0,0,1-.22-.07.37.37,0,0,1-.13-.28V17.48a.35.35,0,0,1,.27-.34l7-1.71h.08a.32.32,0,0,1,.21.08.32.32,0,0,1,.14.27V35.14a.35.35,0,0,1-.24.33l-7,2.46A.25.25,0,0,1,46.28,38Z"/><path class="cls-6" d="M53.28,15.77V35.14l-7,2.46V34.93l4.54-1.53V19.14l-4.54,1.17V17.48l7-1.71m0-.7-.17,0-7,1.71a.71.71,0,0,0-.53.68v2.83a.69.69,0,0,0,.27.55.66.66,0,0,0,.43.15l.17,0L50.12,20V32.9l-4.06,1.37a.69.69,0,0,0-.48.66V37.6a.68.68,0,0,0,.3.57.66.66,0,0,0,.4.13.59.59,0,0,0,.23,0l7-2.46a.69.69,0,0,0,.47-.66V15.77a.7.7,0,0,0-.27-.55.68.68,0,0,0-.43-.15Z"/><path class="cls-14" d="M37.22,19.65h0v.58a8.94,8.94,0,0,1,4.45-1,9.17,9.17,0,0,1,4.55,1h0V17.48h0a9.7,9.7,0,0,0-4.55-.93c-3,0-5.44.92-5.44,2C36.26,19,36.68,19.33,37.22,19.65Z"/><path class="cls-15" d="M37.25,19.67l0,0c-.55-.32-1-.66-1-1.07,0-1.12,2.44-2,5.44-2a9.78,9.78,0,0,1,4.56.93h0Z"/><polygon class="cls-16" points="37.26 40.78 46.28 37.62 46.28 17.48 37.26 19.66 37.26 40.78"/><path class="cls-17" d="M36.94,38.48a.28.28,0,0,1-.18-.06,2.22,2.22,0,0,1-1.06-1.76V23.06a.29.29,0,0,1,.23-.29l.93-.24h.08a.3.3,0,0,1,.18.06.31.31,0,0,1,.12.24V38.18a.3.3,0,0,1-.17.27A.31.31,0,0,1,36.94,38.48Z"/><path class="cls-18" d="M36.94,22.82V38.18A2,2,0,0,1,36,36.66V23.06l.94-.24m0-.6a.39.39,0,0,0-.15,0l-.94.24a.59.59,0,0,0-.45.58v13.6a2.53,2.53,0,0,0,1.18,2,.64.64,0,0,0,.63,0,.6.6,0,0,0,.33-.54V22.82a.61.61,0,0,0-.24-.48.58.58,0,0,0-.36-.12Z"/><path class="cls-19" d="M33.36,39.29A8.49,8.49,0,0,0,28.53,38c-3.21,0-5.81,1.3-5.81,2.91a1.91,1.91,0,0,0,.71,1.43,7.81,7.81,0,0,1,5.1-1.56,8.18,8.18,0,0,1,4.83,1.34Z"/><path class="cls-20" d="M23.69,23.59a9.88,9.88,0,0,1,4.89-1.07,9.87,9.87,0,0,1,4.87,1.1v-3a10.6,10.6,0,0,0-4.87-1c-3.22,0-5.82,1-5.82,2.18,0,.43.34.83.93,1.17Z"/><line class="cls-21" x1="23.69" y1="22.96" x2="23.69" y2="26.13"/><path class="cls-21" d="M23.69,45.51v-3a3.06,3.06,0,0,1-.4-.33"/><path class="cls-22" d="M46.74,12.63,53,15.77V35L33.18,42.15h0v0a8,8,0,0,0-4.79-1.34,7.72,7.72,0,0,0-5,1.54l.21.18,0,0v3l-8.57,3-7-11V23.33l2.81-2.8,0,0h.05l35.9-7.87m0-1a.83.83,0,0,0-.22,0L10.65,19.52H10.6a1.06,1.06,0,0,0-.57.37L7.29,22.63a1,1,0,0,0-.29.7V37.5a1,1,0,0,0,.16.54l7,11a1,1,0,0,0,.85.47,1,1,0,0,0,.33-.06l8.57-3a1,1,0,0,0,.62-.64,1.06,1.06,0,0,0,0-.31V42.66a7.92,7.92,0,0,1,3.81-.87,7.39,7.39,0,0,1,4.07,1.05,1,1,0,0,0,.73.31,1,1,0,0,0,.33-.06l19.82-7.15A1,1,0,0,0,54,35V15.77a1,1,0,0,0-.55-.89l-6.26-3.14a1,1,0,0,0-.45-.11Z"/><polygon class="cls-23" points="42.5 43.71 56.5 50.8 56.5 33.71 42.5 26.71 42.5 43.71"/><rect class="cls-24" x="49" y="38" width="1" height="1"/><polygon class="cls-24" points="53 42.5 52 42.5 51 43.5 48 43.5 47 42.5 46 42.5 46 39 48 39.5 49 40 50 40 51 39.5 53 39 53 42.5"/><polygon class="cls-24" points="49.5 33 44 36.39 49.5 39 55 36.5 49.5 33"/><rect class="cls-24" x="54" y="38" width="1" height="3"/></svg>