<svg xmlns="http://www.w3.org/2000/svg" xmlns:xlink="http://www.w3.org/1999/xlink" viewBox="0 0 64 64"><defs><style>.cls-1,.cls-11,.cls-12,.cls-13,.cls-14{fill:none;}.cls-2{isolation:isolate;}.cls-3{stroke:#2d2d2d;fill:url(#linear-gradient);}.cls-11,.cls-12,.cls-13,.cls-14,.cls-3{stroke-linecap:round;stroke-linejoin:round;}.cls-4,.cls-7{opacity:0.8;}.cls-4{mix-blend-mode:multiply;}.cls-5{opacity:0.4;}.cls-5,.cls-8{mix-blend-mode:overlay;}.cls-6{clip-path:url(#clip-path);}.cls-7{fill:url(#radial-gradient);}.cls-8{opacity:0.55;}.cls-9{clip-path:url(#clip-path-2);}.cls-10{fill:url(#radial-gradient-2);}.cls-11,.cls-12,.cls-13,.cls-14{stroke-width:1.4px;}.cls-11{stroke:url(#linear-gradient-2);}.cls-12{stroke:url(#linear-gradient-3);}.cls-13{stroke:url(#linear-gradient-4);}.cls-14{stroke:url(#linear-gradient-5);}.cls-15{fill:#fff;}.cls-16{fill:#2d2d2d;}</style><linearGradient id="linear-gradient" x1="7.5" y1="37.89" x2="56.5" y2="37.89" gradientUnits="userSpaceOnUse"><stop offset="0" stop-color="#d2d2d2"/><stop offset="0.63" stop-color="#a0a2a3"/><stop offset="0.73" stop-color="#a4a6a7"/><stop offset="0.83" stop-color="#b2b3b4"/><stop offset="0.95" stop-color="#c7c8c9"/><stop offset="1" stop-color="#d5d5d6"/></linearGradient><clipPath id="clip-path"><path class="cls-1" d="M33.36,22.16c2,2.77,6.21,4.55,10.89,4.55a18.45,18.45,0,0,0,12-4.43c-1.7,9.26-4.65,11.33-8.37,13.94s-8.32,5.85-13.27,17.32c-4.21-8.36-14.92-15.13-24-15.13a17.89,17.89,0,0,0-2.78.22c5.55-7.55,10.59-8.65,15-9.62,4-.88,7.53-1.64,10.48-6.85"/></clipPath><radialGradient id="radial-gradient" cx="134.01" cy="-100.91" r="18.28" gradientTransform="matrix(1.29, -0.23, 0.11, 0.69, -105.46, 122.12)" gradientUnits="userSpaceOnUse"><stop offset="0.35" stop-color="#fff"/><stop offset="1" stop-color="#fff" stop-opacity="0"/></radialGradient><clipPath id="clip-path-2"><path class="cls-1" d="M33.36,22.16c2,2.77,6.21,4.55,10.89,4.55a18.45,18.45,0,0,0,12-4.43c-1.7,9.25-4.65,11.33-8.37,13.94s-8.32,5.85-13.27,17.32c-4.21-8.36-14.92-15.13-24-15.13a17.89,17.89,0,0,0-2.78.22c5.55-7.55,10.59-8.65,15-9.62,4-.88,7.53-1.64,10.48-6.85"/></clipPath><radialGradient id="radial-gradient-2" cx="-30.54" cy="-590.38" r="30.59" gradientTransform="matrix(0.75, 0.1, -0.04, 0.32, 25.57, 225.66)" gradientUnits="userSpaceOnUse"><stop offset="0.35" stop-color="#fff"/><stop offset="1" stop-color="#fff" stop-opacity="0"/></radialGradient><linearGradient id="linear-gradient-2" x1="40.2" y1="26" x2="12.8" y2="26" gradientUnits="userSpaceOnUse"><stop offset="0" stop-color="#185971"/><stop offset="0.23" stop-color="#30728a"/><stop offset="0.49" stop-color="#45869e"/><stop offset="0.75" stop-color="#5193ab"/><stop offset="1" stop-color="#5597af"/></linearGradient><linearGradient id="linear-gradient-3" x1="53.2" y1="21" x2="25.8" y2="21" gradientUnits="userSpaceOnUse"><stop offset="0" stop-color="#185971"/><stop offset="0.6" stop-color="#3f8199"/><stop offset="1" stop-color="#5597af"/></linearGradient><linearGradient id="linear-gradient-4" x1="46.88" y1="33.48" x2="20.85" y2="11.65" gradientUnits="userSpaceOnUse"><stop offset="0.49" stop-color="#185971"/><stop offset="0.61" stop-color="#1d5e76"/><stop offset="0.75" stop-color="#2a6c84"/><stop offset="0.9" stop-color="#41839b"/><stop offset="1" stop-color="#5597af"/></linearGradient><linearGradient id="linear-gradient-5" x1="34" y1="30.2" x2="34" y2="15.8" gradientUnits="userSpaceOnUse"><stop offset="0" stop-color="#185971"/><stop offset="0.31" stop-color="#2f7189"/><stop offset="0.75" stop-color="#4b8da5"/><stop offset="1" stop-color="#5597af"/></linearGradient></defs><title>CATFSS_AP_AppIcon</title><g class="cls-2"><g id="CATFSS_AP_AppIcon"><path class="cls-3" d="M33.34,21.89C27.1,33.2,18.23,24,7.5,38.85c9.81-1.85,22.61,5.66,27.15,15,10-23.48,18.46-12.76,21.85-32C48.51,29.06,36.82,27.11,33.34,21.89Z"/><g class="cls-5"><g class="cls-6"><path class="cls-7" d="M79.8,17.77c1.08,7-8.59,14.54-21.58,16.81S33.82,33,32.75,26,41.34,11.47,54.33,9.19,78.73,10.76,79.8,17.77Z"/></g></g><g class="cls-8"><g class="cls-9"><path class="cls-10" d="M47.38,39.08c-.62,5.34-11.46,8.29-24.21,6.59s-22.59-7.4-22-12.74,11.46-8.29,24.21-6.59S48,33.74,47.38,39.08Z"/></g></g><polyline class="cls-11" points="13.5 21 29.5 23 39.5 31"/><polyline class="cls-12" points="26.5 17.5 36.5 22 52.5 24.5"/><polyline class="cls-13" points="8.5 29.5 23.5 30.5 34.5 42.5 40.5 31.5 53.5 24.5 55.5 12.5 43.5 17.5 33.5 13.5 27.5 17.5 13.5 21.5 9 28.7"/><polyline class="cls-14" points="43.5 16.5 36.5 21.5 28.5 23.5 24.5 29.5"/><rect class="cls-15" x="32.5" y="41.5" width="3" height="3"/><path class="cls-16" d="M35,42v2H33V42h2m1-1H32v4h4V41Z"/><rect class="cls-15" x="7.5" y="28.5" width="3" height="3"/><path class="cls-16" d="M10,29v2H8V29h2m1-1H7v4h4V28Z"/><rect class="cls-15" x="12.5" y="19.5" width="3" height="3"/><path class="cls-16" d="M15,20v2H13V20h2m1-1H12v4h4V19Z"/><rect class="cls-15" x="25.5" y="15.5" width="3" height="3"/><path class="cls-16" d="M28,16v2H26V16h2m1-1H25v4h4V15Z"/><rect class="cls-15" x="32.5" y="11.5" width="3" height="3"/><path class="cls-16" d="M35,12v2H33V12h2m1-1H32v4h4V11Z"/><rect class="cls-15" x="53.5" y="11.5" width="3" height="3"/><path class="cls-16" d="M56,12v2H54V12h2m1-1H53v4h4V11Z"/><rect class="cls-15" x="51.5" y="23.5" width="3" height="3"/><path class="cls-16" d="M54,24v2H52V24h2m1-1H51v4h4V23Z"/><rect class="cls-15" x="38.5" y="29.5" width="3" height="3"/><path class="cls-16" d="M41,30v2H39V30h2m1-1H38v4h4V29Z"/><rect class="cls-15" x="34.5" y="19.5" width="3" height="3"/><path class="cls-16" d="M37,20v2H35V20h2m1-1H34v4h4V19Z"/><rect class="cls-15" x="27.5" y="21.5" width="3" height="3"/><path class="cls-16" d="M30,22v2H28V22h2m1-1H27v4h4V21Z"/><rect class="cls-15" x="22.5" y="28.5" width="3" height="3"/><path class="cls-16" d="M25,29v2H23V29h2m1-1H22v4h4V28Z"/><rect class="cls-15" x="41.5" y="15.5" width="3" height="3"/><path class="cls-16" d="M44,16v2H42V16h2m1-1H41v4h4V15Z"/></g></g></svg>