<svg id="CATGED_AP_AppIcon" xmlns="http://www.w3.org/2000/svg" xmlns:xlink="http://www.w3.org/1999/xlink" viewBox="0 0 64 64"><defs><style>.\33 2x-3d-SINGLE-White-Item,.\33 2x-Medium-grey-for-details\/alt-color,.cls-1,.cls-15,.cls-18,.cls-19,.cls-2,.cls-20,.cls-21,.cls-22,.cls-23,.cls-25,.cls-27,.cls-3,.cls-4,.cls-5,.cls-6,.cls-7,.cls-8{stroke-linecap:round;stroke-linejoin:round;}.cls-1{fill:url(#linear-gradient);stroke:url(#linear-gradient-2);}.cls-2{fill:url(#linear-gradient-3);stroke:url(#linear-gradient-4);}.cls-25,.cls-3,.cls-4,.cls-5,.cls-6{fill:none;}.cls-3,.cls-4,.cls-5,.cls-6{stroke-width:1.2px;}.cls-3{stroke:url(#linear-gradient-5);}.cls-4{stroke:url(#linear-gradient-6);}.cls-5{stroke:url(#linear-gradient-7);}.cls-6{stroke:url(#linear-gradient-8);}.cls-15,.cls-25,.cls-7,.cls-8{opacity:0.4;}.cls-7{fill:url(#linear-gradient-9);stroke:url(#linear-gradient-10);}.cls-8{fill:url(#linear-gradient-11);stroke:url(#linear-gradient-12);}.cls-9{fill:url(#linear-gradient-13);}.cls-10{fill:url(#linear-gradient-14);}.cls-11{fill:url(#linear-gradient-15);}.cls-12{fill:url(#linear-gradient-16);}.cls-13{fill:url(#linear-gradient-17);}.cls-14{fill:url(#linear-gradient-18);}.cls-15{fill:url(#linear-gradient-19);stroke:url(#linear-gradient-20);}.cls-16{fill:url(#linear-gradient-21);}.cls-17{fill:url(#linear-gradient-22);}.cls-18{fill:url(#linear-gradient-23);stroke:url(#linear-gradient-24);}.cls-19{fill:url(#linear-gradient-25);stroke:url(#linear-gradient-26);}.cls-20{fill:url(#linear-gradient-27);stroke:url(#linear-gradient-28);}.cls-21,.cls-22{stroke:#053755;}.cls-21{fill:url(#linear-gradient-29);}.cls-22{fill:url(#linear-gradient-30);}.\33 2x-3d-SINGLE-White-Item,.\33 2x-Medium-grey-for-details\/alt-color,.cls-23,.cls-27{stroke:#333332;}.cls-23{fill:url(#linear-gradient-31);}.cls-24{opacity:0.7;fill:url(#radial-gradient);}.cls-25{stroke:#fff;}.cls-26{opacity:0.2;}.cls-27{fill:url(#linear-gradient-32);}.\33 2x-Medium-grey-for-details\/alt-color{fill:url(#linear-gradient-33);}.\33 2x-3d-SINGLE-White-Item{fill:url(#linear-gradient-35);}</style><linearGradient id="linear-gradient" x1="1.56" y1="15.49" x2="15.42" y2="39.51" gradientUnits="userSpaceOnUse"><stop offset="0" stop-color="#fff"/><stop offset="1" stop-color="#e0e1e2"/></linearGradient><linearGradient id="linear-gradient-2" x1="15.67" y1="39.94" x2="1.31" y2="15.06" gradientUnits="userSpaceOnUse"><stop offset="0" stop-color="#161616"/><stop offset="1" stop-color="#474747"/></linearGradient><linearGradient id="linear-gradient-3" x1="25.43" y1="7.68" x2="31.76" y2="43.58" gradientUnits="userSpaceOnUse"><stop offset="0.28" stop-color="#fff"/><stop offset="0.83" stop-color="#dcddde"/></linearGradient><linearGradient id="linear-gradient-4" x1="39.68" y1="46.44" x2="16.26" y2="5.87" xlink:href="#linear-gradient-2"/><linearGradient id="linear-gradient-5" x1="40.18" y1="26.85" x2="18.98" y2="26.85" gradientTransform="matrix(1.02, -0.09, 0, -1, -0.55, 61.52)" gradientUnits="userSpaceOnUse"><stop offset="0" stop-color="#3979a1"/><stop offset="1" stop-color="#3faadb"/></linearGradient><linearGradient id="linear-gradient-6" x1="40.18" y1="29.85" x2="18.98" y2="29.85" xlink:href="#linear-gradient-5"/><linearGradient id="linear-gradient-7" x1="40.08" y1="22.58" x2="18.88" y2="22.58" gradientTransform="matrix(1, 0.02, 0, 1, 0.06, -0.65)" xlink:href="#linear-gradient-5"/><linearGradient id="linear-gradient-8" x1="40.08" y1="19.58" x2="18.88" y2="19.58" gradientTransform="matrix(1, 0.02, 0, 1, 0.06, -0.65)" xlink:href="#linear-gradient-5"/><linearGradient id="linear-gradient-9" x1="16.74" y1="21.11" x2="23.24" y2="32.36" xlink:href="#linear-gradient"/><linearGradient id="linear-gradient-10" x1="23.49" y1="32.79" x2="16.49" y2="20.67" xlink:href="#linear-gradient-2"/><linearGradient id="linear-gradient-11" x1="37.15" y1="16.29" x2="40.84" y2="22.69" xlink:href="#linear-gradient"/><linearGradient id="linear-gradient-12" x1="41.09" y1="23.12" x2="36.9" y2="15.86" xlink:href="#linear-gradient-2"/><linearGradient id="linear-gradient-13" x1="20.93" y1="31.44" x2="20.07" y2="29.96" xlink:href="#linear-gradient-2"/><linearGradient id="linear-gradient-14" x1="20.93" y1="28.44" x2="20.07" y2="26.96" xlink:href="#linear-gradient-2"/><linearGradient id="linear-gradient-15" x1="20.93" y1="25.04" x2="20.07" y2="23.56" xlink:href="#linear-gradient-2"/><linearGradient id="linear-gradient-16" x1="20.93" y1="22.04" x2="20.07" y2="20.56" xlink:href="#linear-gradient-2"/><linearGradient id="linear-gradient-17" x1="38.93" y1="21.44" x2="38.07" y2="19.96" xlink:href="#linear-gradient-2"/><linearGradient id="linear-gradient-18" x1="38.93" y1="18.44" x2="38.07" y2="16.96" xlink:href="#linear-gradient-2"/><linearGradient id="linear-gradient-19" x1="37.15" y1="28.29" x2="40.84" y2="34.69" xlink:href="#linear-gradient"/><linearGradient id="linear-gradient-20" x1="41.09" y1="35.12" x2="36.9" y2="27.86" xlink:href="#linear-gradient-2"/><linearGradient id="linear-gradient-21" x1="38.93" y1="34.04" x2="38.07" y2="32.56" xlink:href="#linear-gradient-2"/><linearGradient id="linear-gradient-22" x1="38.93" y1="31.04" x2="38.07" y2="29.56" xlink:href="#linear-gradient-2"/><linearGradient id="linear-gradient-23" x1="13.13" y1="20.29" x2="20.67" y2="33.36" xlink:href="#linear-gradient"/><linearGradient id="linear-gradient-24" x1="20.92" y1="33.79" x2="12.88" y2="19.86" xlink:href="#linear-gradient-2"/><linearGradient id="linear-gradient-25" x1="39.27" y1="15.63" x2="43.73" y2="23.37" xlink:href="#linear-gradient"/><linearGradient id="linear-gradient-26" x1="43.98" y1="23.8" x2="39.02" y2="15.2" xlink:href="#linear-gradient-2"/><linearGradient id="linear-gradient-27" x1="39.27" y1="27.63" x2="43.73" y2="35.37" xlink:href="#linear-gradient"/><linearGradient id="linear-gradient-28" x1="43.98" y1="35.8" x2="39.02" y2="27.2" xlink:href="#linear-gradient-2"/><linearGradient id="linear-gradient-29" x1="37.25" y1="45.56" x2="31.06" y2="35.02" gradientUnits="userSpaceOnUse"><stop offset="0.06" stop-color="#386f8d"/><stop offset="0.51" stop-color="#67a8c6"/><stop offset="0.85" stop-color="#8dd7f4"/></linearGradient><linearGradient id="linear-gradient-30" x1="45.06" y1="48.4" x2="37.15" y2="34.94" gradientUnits="userSpaceOnUse"><stop offset="0.21" stop-color="#386f8d"/><stop offset="0.66" stop-color="#67a8c6"/><stop offset="1" stop-color="#8dd7f4"/></linearGradient><linearGradient id="linear-gradient-31" x1="27.68" y1="43.12" x2="26.47" y2="50" gradientUnits="userSpaceOnUse"><stop offset="0" stop-color="#ababab"/><stop offset="0.18" stop-color="#a7a7a7"/><stop offset="0.38" stop-color="#9a9a9a"/><stop offset="0.58" stop-color="#858585"/><stop offset="0.79" stop-color="#676767"/><stop offset="0.86" stop-color="#5b5b5b"/></linearGradient><radialGradient id="radial-gradient" cx="25.62" cy="45.08" r="3.81" gradientTransform="matrix(1, 0.07, -0.04, 0.61, 2.06, 15.56)" gradientUnits="userSpaceOnUse"><stop offset="0" stop-color="#fff"/><stop offset="0.12" stop-color="#fff" stop-opacity="0.98"/><stop offset="0.24" stop-color="#fff" stop-opacity="0.93"/><stop offset="0.35" stop-color="#fff" stop-opacity="0.86"/><stop offset="0.41" stop-color="#fff" stop-opacity="0.83"/><stop offset="0.51" stop-color="#fff" stop-opacity="0.74"/><stop offset="0.63" stop-color="#fff" stop-opacity="0.59"/><stop offset="0.78" stop-color="#fff" stop-opacity="0.38"/><stop offset="0.94" stop-color="#fff" stop-opacity="0.12"/><stop offset="1" stop-color="#fff" stop-opacity="0"/></radialGradient><linearGradient id="linear-gradient-32" x1="50.03" y1="34.53" x2="56.26" y2="40.76" gradientUnits="userSpaceOnUse"><stop offset="0" stop-color="#f5f6f6"/><stop offset="0.57" stop-color="#dbdcdc"/><stop offset="0.76" stop-color="#d2d3d3"/></linearGradient><linearGradient id="linear-gradient-33" x1="53.66" y1="34.31" x2="56.99" y2="40.08" gradientUnits="userSpaceOnUse"><stop offset="0" stop-color="#ababab"/><stop offset="1" stop-color="#5b5b5b"/></linearGradient><linearGradient id="linear-gradient-35" x1="41.19" y1="24.23" x2="43.94" y2="28.99" gradientUnits="userSpaceOnUse"><stop offset="0" stop-color="#f5f6f6"/><stop offset="0.99" stop-color="#d2d3d3"/></linearGradient></defs><title>CATGED_AP_AppIcon</title><path class="cls-1" d="M8.48,11.5s0,.39,0,.86V40.55c0,.43,0,2.9,0,3l-1-2a4.33,4.33,0,0,1,0-.85V12.5C7.5,12,8.48,11.5,8.48,11.5Z"/><path class="cls-2" d="M9.5,10.5h39a1,1,0,0,1,1,1V39.61a1,1,0,0,1-.88,1l-39,4.75a1,1,0,0,1-1.12-1V11.5A1,1,0,0,1,9.5,10.5Z"/><polyline class="cls-3" points="19.42 30.92 28.59 30.11 28.59 34.11 39.81 33.13"/><polyline class="cls-4" points="19.42 27.92 30.63 26.93 30.63 30.93 39.81 30.13"/><polyline class="cls-5" points="19.46 24.29 30.41 24.5 30.41 20.5 39.38 20.67"/><polyline class="cls-6" points="19.46 21.29 28.42 21.46 28.42 17.46 39.38 17.67"/><path class="cls-7" d="M19.52,19.5h1a2.35,2.35,0,0,1,0,.42V33.54a2.57,2.57,0,0,1,0,.41l-.95,0s0-.17,0-.42V19.92A2.35,2.35,0,0,1,19.52,19.5Z"/><path class="cls-8" d="M38.52,15.5h1a.7.7,0,0,1,0,.23v7.52a.76.76,0,0,1,0,.22l-.95,0s0-.09,0-.23V15.73A.7.7,0,0,1,38.52,15.5Z"/><rect class="cls-9" x="20" y="30" width="1" height="1.4"/><rect class="cls-10" x="20" y="27" width="1" height="1.4"/><rect class="cls-11" x="20" y="23.6" width="1" height="1.4"/><rect class="cls-12" x="20" y="20.6" width="1" height="1.4"/><rect class="cls-13" x="38" y="20" width="1" height="1.4"/><rect class="cls-14" x="38" y="17" width="1" height="1.4"/><path class="cls-15" d="M38.52,27.5h1a.7.7,0,0,1,0,.23v7.52a.76.76,0,0,1,0,.22l-.95,0s0-.09,0-.23V27.73A.7.7,0,0,1,38.52,27.5Z"/><rect class="cls-16" x="38" y="32.6" width="1" height="1.4"/><rect class="cls-17" x="38" y="29.6" width="1" height="1.4"/><polygon class="cls-18" points="14.5 19.5 19.5 19.5 19.5 34.03 14.5 34.5 14.5 19.5"/><rect class="cls-19" x="39.5" y="15.5" width="4" height="8"/><rect class="cls-20" x="39.5" y="27.5" width="4" height="8"/><path class="cls-21" d="M30.5,44.5s4-3,4-6-2.5-7-2.5-7l2.5-2s3,3,3,9-6,9-6,9Z"/><path class="cls-22" d="M33.5,50s3.07-1.38,4-2c3-2,3.5-3,3.5-3l2.5,2.5,2-2-3-3a10.07,10.07,0,0,0,1-3v-1h7v-3h-7v-7h-3v10c0,1.41-2.89,5.13-4,6s-5,3-5,3Z"/><path class="cls-23" d="M18.5,44.5s.13,3.65,6,6c5,2,11-1,11-1a4.34,4.34,0,0,1-3-2c-2-3-1-4-1-4a22.69,22.69,0,0,1-4,1c-1.41,0-1-1-1-1Z"/><path class="cls-24" d="M25,47c-3-1-3-3-3-3h2s1.1,1.7,2,2c3,1,4-2,3,0A4.44,4.44,0,0,1,25,47Z"/><path class="cls-25" d="M38,44.5s1.94-2.8,2.5-3.5c2-2.5,2-11.5,2-11.5"/><rect class="cls-26" x="31.97" y="30.48" width="4" height="3" transform="translate(-12.66 33.39) rotate(-45)"/><rect class="cls-26" x="40" y="28.5" width="4" height="2"/><rect class="cls-26" x="47" y="36" width="4" height="2" transform="translate(12 86) rotate(-90)"/><path class="cls-27" d="M49.5,35.5v4l1,1a4.94,4.94,0,0,1,1,3h3v-12h-3a4.94,4.94,0,0,1-1,3Z"/><rect class="32x-Medium-grey-for-details/alt-color" x="54.5" y="33.5" width="2" height="8"/><path class="32x-Medium-grey-for-details/alt-color" d="M40.9,21.5h4.6a0,0,0,0,1,0,0v4a0,0,0,0,1,0,0h-6a0,0,0,0,1,0,0V22.9A1.4,1.4,0,0,1,40.9,21.5Z"/><rect class="32x-3d-SINGLE-White-Item" x="39.5" y="24" width="6" height="5" rx="1"/><path class="32x-Medium-grey-for-details/alt-color" d="M46.37,48.6H51a0,0,0,0,1,0,0v4a0,0,0,0,1,0,0H45a0,0,0,0,1,0,0V50A1.4,1.4,0,0,1,46.37,48.6Z" transform="translate(117.66 52.46) rotate(135)"/><rect class="32x-3d-SINGLE-White-Item" x="42.84" y="45.98" width="6" height="5" rx="1" transform="translate(112.54 50.34) rotate(135)"/><path class="32x-Medium-grey-for-details/alt-color" d="M28.73,25.49h4.6a0,0,0,0,1,0,0v4a0,0,0,0,1,0,0h-6a0,0,0,0,1,0,0V26.9A1.4,1.4,0,0,1,28.73,25.49Z" transform="translate(-10.61 27.38) rotate(-42.04)"/><rect class="32x-3d-SINGLE-White-Item" x="29.34" y="27.22" width="6" height="5" rx="1" transform="translate(-11.58 29.3) rotate(-42.04)"/></svg>