<?xml version="1.0" encoding="UTF-8"?><svg xmlns="http://www.w3.org/2000/svg" xmlns:xlink="http://www.w3.org/1999/xlink" viewBox="0 0 64 64"><defs><style>.cls-1{fill:url(#linear-gradient-2);}.cls-2{fill:url(#radial-gradient-5);}.cls-2,.cls-3,.cls-4{opacity:.6;}.cls-5{fill:#fff;}.cls-6{fill:url(#linear-gradient-7);}.cls-6,.cls-7,.cls-8,.cls-9,.cls-10,.cls-11,.cls-12,.cls-13,.cls-14{stroke-width:.6px;}.cls-6,.cls-15,.cls-11,.cls-12,.cls-16{stroke-miterlimit:10;}.cls-6,.cls-12{stroke:#00283d;}.cls-17{stroke:#383838;}.cls-17,.cls-7,.cls-8,.cls-18,.cls-19,.cls-9,.cls-10,.cls-20,.cls-13,.cls-14,.cls-21{stroke-linecap:round;stroke-linejoin:round;}.cls-17,.cls-18,.cls-19,.cls-15,.cls-20,.cls-16,.cls-21{fill:none;}.cls-17,.cls-20,.cls-21{stroke-width:.44px;}.cls-22{fill:url(#linear-gradient-18);}.cls-23{fill:url(#linear-gradient-14);}.cls-24{fill:url(#linear-gradient-20);}.cls-25{fill:url(#linear-gradient-6);}.cls-26{fill:#323232;}.cls-7{fill:url(#radial-gradient);}.cls-7,.cls-8,.cls-10,.cls-13,.cls-14{stroke:#003755;}.cls-8{fill:url(#linear-gradient-17);}.cls-18{stroke-width:.66px;}.cls-18,.cls-19{stroke:#323232;}.cls-27{fill:url(#linear-gradient-10);}.cls-28{fill:url(#linear-gradient-16);}.cls-9{fill:url(#linear-gradient-11);stroke:#00314d;}.cls-29{fill:url(#linear-gradient-21);}.cls-10{fill:url(#radial-gradient-4);}.cls-15{stroke:#4d4e4e;stroke-width:1.5px;}.cls-30{fill:url(#linear-gradient-25);}.cls-31{fill:url(#radial-gradient-2);}.cls-11{fill:url(#linear-gradient-9);stroke:#002438;}.cls-20{stroke:#0f354d;}.cls-32{fill:url(#radial-gradient-3);}.cls-3{fill:url(#linear-gradient-24);}.cls-33{fill:url(#linear-gradient-22);}.cls-12{fill:url(#linear-gradient-5);}.cls-13{fill:url(#linear-gradient-15);}.cls-34{fill:url(#linear-gradient-3);}.cls-35{fill:url(#linear-gradient-27);}.cls-16{stroke:#fff;stroke-width:4px;}.cls-36{fill:#37aa11;}.cls-37{fill:url(#linear-gradient-19);}.cls-38{fill:url(#linear-gradient-4);}.cls-14{fill:url(#linear-gradient-13);}.cls-39{fill:url(#linear-gradient-8);}.cls-4{fill:url(#linear-gradient-23);}.cls-40{fill:url(#linear-gradient-12);}.cls-21{stroke:#242424;}.cls-41{fill:url(#linear-gradient-26);}.cls-42{fill:url(#linear-gradient);filter:url(#outer-glow-1);}</style><linearGradient id="linear-gradient" x1="2.63" y1="-9.52" x2="33.59" y2="-9.52" gradientTransform="translate(21.06 42.08) rotate(-31.42)" gradientUnits="userSpaceOnUse"><stop offset="0" stop-color="#10161a"/><stop offset="1" stop-color="#212d36"/></linearGradient><filter id="outer-glow-1" filterUnits="userSpaceOnUse"><feOffset dx="0" dy="0"/><feGaussianBlur result="blur" stdDeviation=".87"/><feFlood flood-color="#fff" flood-opacity="1"/><feComposite in2="blur" operator="in"/><feComposite in="SourceGraphic"/></filter><linearGradient id="linear-gradient-2" x1="24.69" y1="-21.91" x2="15.65" y2="-9.32" gradientTransform="translate(18.84 39.28) scale(.9 .88)" gradientUnits="userSpaceOnUse"><stop offset="0" stop-color="#9cb2ba"/><stop offset="1" stop-color="#fff"/></linearGradient><linearGradient id="linear-gradient-3" x1="1.34" y1="66.23" x2="-1.01" y2="83.48" gradientTransform="translate(108.9 -2.18) rotate(71.16)" gradientUnits="userSpaceOnUse"><stop offset=".01" stop-color="#000"/><stop offset=".15" stop-color="#000" stop-opacity=".47"/><stop offset="1" stop-color="#000" stop-opacity="0"/></linearGradient><linearGradient id="linear-gradient-4" x1="11.26" y1="35.62" x2="22.96" y2="35.62" gradientTransform="translate(110.78 3.44) rotate(75.37) scale(1.08 2.28) skewX(-23.57)" gradientUnits="userSpaceOnUse"><stop offset=".01" stop-color="#fff"/><stop offset=".08" stop-color="#fff" stop-opacity=".89"/><stop offset=".22" stop-color="#fff" stop-opacity=".65"/><stop offset=".36" stop-color="#fff" stop-opacity=".45"/><stop offset=".51" stop-color="#fff" stop-opacity=".29"/><stop offset=".64" stop-color="#fff" stop-opacity=".16"/><stop offset=".77" stop-color="#fff" stop-opacity=".07"/><stop offset=".89" stop-color="#fff" stop-opacity=".02"/><stop offset="1" stop-color="#fff" stop-opacity="0"/></linearGradient><linearGradient id="linear-gradient-5" x1="56.44" y1="28.7" x2="54.52" y2="27.51" gradientTransform="translate(66.88 90.19) rotate(-143.14) scale(1.05 1.18)" gradientUnits="userSpaceOnUse"><stop offset="0" stop-color="#4885a3"/><stop offset="1" stop-color="#183345"/></linearGradient><linearGradient id="linear-gradient-6" x1="39.87" y1="14.96" x2="46.28" y2="3.41" gradientTransform="translate(21.69 63.15) rotate(-77.61) scale(.96 1.14)" gradientUnits="userSpaceOnUse"><stop offset=".12" stop-color="#000"/><stop offset=".24" stop-color="#000" stop-opacity=".6"/><stop offset="1" stop-color="#000" stop-opacity="0"/></linearGradient><linearGradient id="linear-gradient-7" x1="50.35" y1="28.48" x2="60.99" y2="46.91" gradientTransform="translate(83.13 83.35) rotate(-161.6) scale(1.05 1.16)" gradientUnits="userSpaceOnUse"><stop offset="0" stop-color="#4ca2c2"/><stop offset="1" stop-color="#4399ba"/></linearGradient><linearGradient id="linear-gradient-8" x1="42.11" y1="15.69" x2="42.58" y2="3.26" gradientTransform="translate(69.16 54.72) rotate(-145.48) scale(.96 1.14)" xlink:href="#linear-gradient-6"/><linearGradient id="linear-gradient-9" x1="26.06" y1="42.86" x2="40.48" y2="67.84" gradientTransform="translate(103.8 45.14) rotate(137.88) scale(1.05 1.16)" gradientUnits="userSpaceOnUse"><stop offset="0" stop-color="#64bfe3"/><stop offset="1" stop-color="#45a3c7"/></linearGradient><linearGradient id="linear-gradient-10" x1="41.85" y1="17.76" x2="42.26" y2="6.72" gradientTransform="translate(80.51 41.03) rotate(-169.29) scale(.96 1.14)" xlink:href="#linear-gradient-6"/><linearGradient id="linear-gradient-11" x1="14.19" y1="43.08" x2="28.97" y2="68.67" gradientTransform="translate(101.79 32.16) rotate(119.05) scale(1.05 1.16)" gradientUnits="userSpaceOnUse"><stop offset="0" stop-color="#78c5e6"/><stop offset="1" stop-color="#abe2f5"/></linearGradient><linearGradient id="linear-gradient-12" x1="44.15" y1="22.52" x2="44.53" y2="12.5" gradientTransform="translate(84.03 12.68) rotate(152.6) scale(.96 1.14)" xlink:href="#linear-gradient-6"/><linearGradient id="linear-gradient-13" x1="4.09" y1="40.81" x2="18.24" y2="65.32" gradientTransform="translate(96.75 22.7) rotate(103.2) scale(1.04 1.16)" gradientUnits="userSpaceOnUse"><stop offset="0" stop-color="#a0e1fa"/><stop offset="1" stop-color="#73c3e1"/></linearGradient><linearGradient id="linear-gradient-14" x1="38.64" y1="30.99" x2="39.09" y2="18.77" gradientTransform="translate(63.39 -3.33) rotate(105.47) scale(.72 1.14)" xlink:href="#linear-gradient-6"/><linearGradient id="linear-gradient-15" x1="-14.3" y1="27.26" x2=".25" y2="52.48" gradientTransform="translate(66.87 5.53) rotate(57.08)" xlink:href="#linear-gradient-13"/><linearGradient id="linear-gradient-16" x1="32.87" y1="31.93" x2="33.25" y2="21.77" gradientTransform="translate(39.55 -13.19) rotate(59.69) scale(.72 1.14)" gradientUnits="userSpaceOnUse"><stop offset=".01" stop-color="#000"/><stop offset=".16" stop-color="#000" stop-opacity=".5"/><stop offset="1" stop-color="#000" stop-opacity="0"/></linearGradient><linearGradient id="linear-gradient-17" x1="-8.81" y1="-10.09" x2="6.98" y2="17.26" gradientTransform="translate(26.35 22.97) rotate(-1.58) scale(.86 1)" xlink:href="#linear-gradient-13"/><linearGradient id="linear-gradient-18" x1="33.14" y1="33.24" x2="33.6" y2="21.05" gradientTransform="translate(23.47 -13.33) rotate(32.79) scale(.72 1.14)" xlink:href="#linear-gradient-16"/><radialGradient id="radial-gradient" cx="15.54" cy="-18.99" fx="15.54" fy="-18.99" r="28.15" gradientTransform="translate(21.06 42.08) rotate(-31.42)" gradientUnits="userSpaceOnUse"><stop offset=".53" stop-color="#8cd7f5"/><stop offset=".81" stop-color="#376e8c"/></radialGradient><radialGradient id="radial-gradient-2" cx="26.59" cy="31.9" fx="26.59" fy="31.9" r="7.92" gradientTransform="translate(-79.8 66.32) rotate(-89.8) scale(1.18 3.32) skewX(3.91)" gradientUnits="userSpaceOnUse"><stop offset=".01" stop-color="#000"/><stop offset=".16" stop-color="#000" stop-opacity=".5"/><stop offset="1" stop-color="#000" stop-opacity="0"/></radialGradient><radialGradient id="radial-gradient-3" cx="10.74" cy=".75" fx="38.92" fy="-17.7" r="36.99" gradientTransform="translate(21.06 42.08) rotate(-31.42)" gradientUnits="userSpaceOnUse"><stop offset="0" stop-color="#fff"/><stop offset=".26" stop-color="#fcfcfc"/><stop offset=".38" stop-color="#f5f5f5"/><stop offset=".47" stop-color="#e8e8e8"/><stop offset=".53" stop-color="#dbdbdb"/><stop offset=".56" stop-color="#d6d6d6"/><stop offset=".58" stop-color="#cacaca"/><stop offset=".61" stop-color="#b5b5b5"/><stop offset=".63" stop-color="#a3a3a3"/><stop offset=".67" stop-color="#bdbdbd"/><stop offset=".71" stop-color="#8c8b8c"/></radialGradient><linearGradient id="linear-gradient-19" x1="33.17" y1="18.26" x2="42.58" y2="4.86" gradientTransform="translate(18.57 61.57) rotate(-72.85) scale(.96 1.14)" gradientUnits="userSpaceOnUse"><stop offset="0" stop-color="#000"/><stop offset=".86" stop-color="#000" stop-opacity="0"/></linearGradient><radialGradient id="radial-gradient-4" cx="23.99" cy="-11.17" fx="23.99" fy="-11.17" r="30.96" gradientTransform="translate(20.89 -1.68) rotate(79.79) scale(1 .96)" gradientUnits="userSpaceOnUse"><stop offset=".56" stop-color="#8cd7f5"/><stop offset=".86" stop-color="#11608c"/></radialGradient><linearGradient id="linear-gradient-20" x1="-20.54" y1="22.87" x2="-7.64" y2="24.71" gradientTransform="translate(73.25 20.07) rotate(68.17) scale(.31 1.2) skewX(-65.75)" gradientUnits="userSpaceOnUse"><stop offset=".01" stop-color="#fff" stop-opacity=".7"/><stop offset=".05" stop-color="#fff" stop-opacity=".65"/><stop offset=".22" stop-color="#fff" stop-opacity=".45"/><stop offset=".4" stop-color="#fff" stop-opacity=".29"/><stop offset=".56" stop-color="#fff" stop-opacity=".16"/><stop offset=".72" stop-color="#fff" stop-opacity=".07"/><stop offset=".87" stop-color="#fff" stop-opacity=".02"/><stop offset="1" stop-color="#fff" stop-opacity="0"/></linearGradient><radialGradient id="radial-gradient-5" cx="53.49" cy="24.79" fx="53.49" fy="24.79" r="13.85" gradientTransform="translate(36.13 70.76) rotate(-130.86) scale(.64 1.36) skewX(-24.12)" gradientUnits="userSpaceOnUse"><stop offset=".23" stop-color="#fff" stop-opacity=".7"/><stop offset=".26" stop-color="#fff" stop-opacity=".65"/><stop offset=".39" stop-color="#fff" stop-opacity=".45"/><stop offset=".53" stop-color="#fff" stop-opacity=".29"/><stop offset=".66" stop-color="#fff" stop-opacity=".16"/><stop offset=".78" stop-color="#fff" stop-opacity=".07"/><stop offset=".9" stop-color="#fff" stop-opacity=".02"/><stop offset="1" stop-color="#fff" stop-opacity="0"/></radialGradient><linearGradient id="linear-gradient-21" x1="-23.14" y1="12.49" x2="1.09" y2="15.96" gradientTransform="translate(52.15 25.46) rotate(125.14) scale(.28 .71) skewX(-35.09)" gradientUnits="userSpaceOnUse"><stop offset=".01" stop-color="#fff" stop-opacity=".7"/><stop offset=".12" stop-color="#fff" stop-opacity=".66"/><stop offset=".32" stop-color="#fff" stop-opacity=".54"/><stop offset=".58" stop-color="#fff" stop-opacity=".35"/><stop offset=".89" stop-color="#fff" stop-opacity=".1"/><stop offset="1" stop-color="#fff" stop-opacity="0"/></linearGradient><linearGradient id="linear-gradient-22" x1="-12.04" y1="34.11" x2="36.05" y2="40.99" gradientTransform="translate(65.39 1.98) rotate(39.86) scale(.22 .91) skewX(-71.29)" xlink:href="#linear-gradient-20"/><linearGradient id="linear-gradient-23" x1="54.8" y1="56.03" x2="23.9" y2="43.2" gradientTransform="translate(26.56 -19.28) rotate(-29.93) scale(.14 .59) skewX(-77.58)" gradientUnits="userSpaceOnUse"><stop offset="0" stop-color="#fff" stop-opacity="0"/><stop offset=".13" stop-color="#fff" stop-opacity=".02"/><stop offset=".28" stop-color="#fff" stop-opacity=".07"/><stop offset=".44" stop-color="#fff" stop-opacity=".16"/><stop offset=".6" stop-color="#fff" stop-opacity=".29"/><stop offset=".78" stop-color="#fff" stop-opacity=".45"/><stop offset=".95" stop-color="#fff" stop-opacity=".65"/><stop offset=".99" stop-color="#fff" stop-opacity=".7"/></linearGradient><linearGradient id="linear-gradient-24" x1="-11.38" y1="58.07" x2="14.89" y2="58.07" gradientTransform="translate(1.55 -19.51) rotate(-61.96) scale(.14 .59) skewX(-77.58)" gradientUnits="userSpaceOnUse"><stop offset="0" stop-color="#fff" stop-opacity="0"/><stop offset=".13" stop-color="#fff" stop-opacity=".02"/><stop offset=".28" stop-color="#fff" stop-opacity=".07"/><stop offset=".44" stop-color="#fff" stop-opacity=".16"/><stop offset=".6" stop-color="#fff" stop-opacity=".29"/><stop offset=".78" stop-color="#fff" stop-opacity=".45"/><stop offset=".95" stop-color="#fff" stop-opacity=".65"/><stop offset=".99" stop-color="#fff" stop-opacity=".7"/></linearGradient><linearGradient id="linear-gradient-25" x1="15.42" y1="42.98" x2="18.85" y2="48.92" gradientTransform="matrix(1, 0, 0, 1, 0, 0)" gradientUnits="userSpaceOnUse"><stop offset="0" stop-color="#4bb4fa"/><stop offset="1" stop-color="#308fcf"/></linearGradient><linearGradient id="linear-gradient-26" x1="32.42" y1="32.98" x2="35.85" y2="38.92" xlink:href="#linear-gradient-25"/><linearGradient id="linear-gradient-27" x1="12.42" y1="23.98" x2="15.85" y2="29.92" xlink:href="#linear-gradient-25"/></defs><g id="Layer_2"><path class="cls-42" d="M17.74,25.94l8.31-12.72,17.47,1.16,2.38,9.38s-15.25,16.18-15.42,16.07-13.22-9.05-13.22-9.05l.49-4.86Z"/><ellipse class="cls-1" cx="33.98" cy="29.71" rx="13.23" ry="12.9" transform="translate(-10.51 22.07) rotate(-31.42)"/><path class="cls-34" d="M28.91,15.41s14.11-4.94,16.3-3.13c3.3,2.73,4.08,7.15,4.35,10.19s-3.04,7.54-3.04,7.54l-17.11,1.08-.5-15.68Z"/><ellipse class="cls-38" cx="32.51" cy="25.63" rx="9.23" ry="6.16" transform="translate(-4.75 7.59) rotate(-12.42)"/><path class="cls-12" d="M41.43,25.11c-5.41,4.34-14.7,1.68-14.7,1.68,0,0,8.5,7.67,11.22,6.81,1.09-.35,8.05-3.86,8.69-4.82,6.2-9.29,1.11-14.27,1.11-14.27l-5.68-.79s4.64,7.15-.64,11.38Z"/><path class="cls-25" d="M45.47,15.33l-.94,10.67-8.13,9.21c-1.17-.75-4.83-5.26-3.6-6.25,2.7-2.18,9.31-1,10.77-9.09,.23-1.26,1.89-4.53,1.89-4.53Z"/><path class="cls-6" d="M42.86,20.76c2.05,6.42-9.92,9.24-9.92,9.24,0,0,7.81,6.81,10.13,5.17,.93-.66,6.41-6.09,6.7-7.18,2.88-10.62-4.54-15.55-4.54-15.55l-10.29,.04s6.82,4.82,7.92,8.28Z"/><path class="cls-39" d="M35.57,13.31l9.53,4.89,5.47,11c-1.14,.8-5.54,2.56-6,1.05-.93-3.06,1.6-7.59-5.51-13.47-.99-.82-3.49-3.46-3.49-3.46Z"/><path class="cls-11" d="M16.52,25.5s3-7.34,9.06-9.61c5.48-2.05,10.46-.9,13.82,.54,6.83,2.91,5.67,11.38,5.67,11.38,0,0,6-1.46,5.71-4.28-.12-1.13-.7-4.97-1.5-5.76-7.83-7.74-19.58-8.52-19.58-8.52l-10.59,7.17-2.59,9.08Z"/><path class="cls-27" d="M33.78,14.28l10.69,.62,9.45,7.86c-.72,1.19-2.4,3.77-3.43,2.57-2.08-2.42-5.28-7.82-14.16-10.33-1.23-.35-2.55-.72-2.55-.72Z"/><path class="cls-9" d="M17.91,30.81s1.19-7.27,6.19-11.37c4.53-3.71,8.6-4.83,12.24-4.6,10.56,.68,13.88,7.69,13.88,7.69,0,0,1.01-5.07-.18-7.65-.48-1.03-2.13-1.92-3.14-2.41-9.91-4.79-21.77-1.3-21.77-1.3l-7.71,10.21,.48,9.43Z"/><path class="cls-40" d="M26.26,16.57l8.8-6.11,12.28,.35c.17,1.38,.05,3.65-1.5,3.34-3.14-.62-8.97-1.77-17.51,1.73-1.18,.49-2.07,.68-2.07,.68Z"/><path class="cls-14" d="M31.62,32.87s-8.01-5.83-6.48-12.21c1.35-5.64,6.97-7.5,10.58-8.04,4.95-.75,10.04-.21,12.29,.11,.33,.05,.5-.37,.24-.57-1.51-1.15-5.1-3.24-7.88-3.73-10.22-1.8-16.43,3.15-17.15,3.7-.05,.04-.07,.08-.1,.13l-4.47,11.48c-.05,.14,0,.3,.12,.38l12.85,8.75Z"/><path class="cls-23" d="M22.75,21.81l.8-8.05,7.9-6.18c1.16,.7,5.14,1.04,3.95,1.67-2.42,1.28-9.64,6.09-10.13,9.79-.81,6.16,.47,5.35,.47,5.35l-2.99-2.58Z"/><path class="cls-13" d="M41.39,30.74s-9.85-1.44-14.43-6.15c-8.4-8.63,7.34-17.24,7.34-17.24,0,0-5.95,.75-8.56,1.88-8.72,3.79-11.52,9.57-11.52,9.57l8.25,15.21,16.28-.6,2.62-2.67Z"/><path class="cls-28" d="M31.78,32.14l-5.78-3.63-5.86-6.43-1.78-4.86,.16-2.8,1.32-1.84c1.31-.34,4.66-1.8,4.28-.5-.77,2.62-3.38,6.34,.26,11.32s3.92,4.3,5.96,5.83c2.04,1.54,1.44,2.9,1.44,2.9Z"/><path class="cls-8" d="M45.71,30.73c.53,.78-14.23,0-20.2-4.87-8.65-7.07-4.66-14.43-4.66-14.43,0,0-4.59,4.3-5.93,6.65-1.81,3.18-2.28,6.98-2.33,10.79-.06,4.67,.66,7.98,.66,7.98l18.38,2.4,14.07-8.53Z"/><path class="cls-22" d="M41.25,30.1l-6.58,.17s-.1,0-.15,0l-6.55-.6c-.11-.01-.23-.04-.33-.08l-7.74-2.93c-.15-.06-.29-.14-.41-.26l-3.41-3.17c-.13-.12-.23-.27-.3-.43l-1.41-3.34c-.2-.47-.1-1.01,.26-1.37l.3-.31c.63-.65,2.57-1.24,2.92-.41,.97,2.32,2.87,7.24,6.55,9.32,5.19,2.94,4.72,2.22,7.24,2.66s9.61,.74,9.61,.74Z"/><path class="cls-7" d="M53.6,24.05s-10.05,10.14-27.13,4.25c-12.32-4.25-11.84-11.11-11.84-11.11,0,0-2.04,3.94-2.61,8.19-.41,3.01-.31,9.84,1.39,13.26,2.08,4.21,2.64,5.62,2.64,5.62l22.92-8.42,14.63-11.79Z"/><path class="cls-31" d="M47.07,26.36l-2.42,2.19c-.3,.27-.65,.47-1.03,.59l-7.76,2.43c-.19,.06-.38,.1-.57,.11l-10.9,.99c-.48,.04-.95,.21-1.34,.49l-5.99,6.43c-1.56,1.1-3.84-1.79-4.36-3.62l-.61-2.17c-.43-1.53,2-3.67,3.53-4.11,3.64-1.05,4.79-1.15,15.27,.67,4.46,.77,5.31-.33,8.64-1.13s7.54-2.88,7.54-2.88Z"/><path class="cls-32" d="M16.6,45.52l3.73,3.87,8.67,3.45,8.81,.09,8.52-1.96,4.72-5.03,4.12-5.8s5.18-13.01-3.71-23.98c-4.34-5.35,6.38,4.07-9.69,17.16-7.79,6.35-22.68-.49-26.76,1.49-.99,.48-.93,6.22-.93,6.22l2.54,4.48Z"/><path class="cls-37" d="M50.25,20.09l-2.18,8.44-9.55,8.38c-1.1-.85-12.91-.24-11.61-1.13,1.48-1.01,5.11-4.45,11.21-6.83,7.65-2.97,9.47-6.15,10.12-12.29,.14-1.27,2,3.43,2,3.43Z"/><path class="cls-10" d="M49.42,13.95s1.88,2.18,.93,7.54c-1.06,5.93-8.78,9.91-20.65,9.97-5.64,.03-7.04-1.44-10.58-.48-4.05,1.1-4.45,3.83-4.45,3.83l2.79,3.84,7.6,4.82,3.1-3.95,7.19,4.32,4.61-6.47,5.84,5.18,8.62-11.27,1.48,6.25s1.98-7.11-.89-16.31c-1.72-5.52-4.63-7.76-4.91-7.82-1.22-.27-.67,.53-.67,.53Z"/><g id="Layer_6"><polygon class="cls-21" points="20.67 49.75 28.71 53.05 23.06 48.29 20.67 49.75"/><polygon class="cls-21" points="30.12 50 28.71 53.05 38.79 53.45 30.12 50"/><line class="cls-20" x1="22.42" y1="48.14" x2="30.12" y2="50"/><polygon class="cls-20" points="35.13 43.87 30.22 50.16 25.04 43.47 35.13 43.87"/><polyline class="cls-20" points="46.23 42.35 40.52 49.11 35.03 43.72"/><polygon class="cls-21" points="38.79 53.45 40.52 49.11 46.76 48.58 38.79 53.45"/><line class="cls-20" x1="30.12" y1="50" x2="40.51" y2="48.94"/><polyline class="cls-20" points="38.85 53.25 45.5 51.03 46.76 48.58 46.23 42.35 51.54 45.67 53.58 40.05 56.15 37.48 51.78 45.52"/><polygon class="cls-21" points="51.54 45.67 46.61 48.72 45.5 51.03 50.59 46.79 51.54 45.67"/><polygon class="cls-20" points="53.58 40.05 46.23 42.35 54.2 31.65 53.58 40.05"/><polyline class="cls-20" points="17.87 38.89 24.82 43.66 22.42 48.14"/><polyline class="cls-17" points="20.83 49.65 15.83 44.51 22.9 48.39 17.87 38.89 15.83 44.51"/><line class="cls-20" x1="45.22" y1="42.73" x2="35.26" y2="43.93"/></g><path class="cls-24" d="M37.1,11.5c-1.53,.13-3.86,.54-4.8,.08s1.17-1.16,2.09-1.44,2.44-.99,5.44-.49,5.9,1.35,5.91,1.63c.03,.88-4.86-.1-8.63,.22Z"/><path class="cls-2" d="M48.92,26.11c3.02-3.49,2.78-6.59,3.26-8.83,.25-1.13,3.91,10.64-5.52,16.08-6.31,3.64-15.45,.97-15.78,.42-1.02-1.7,12.17-.89,18.04-7.68Z"/><path class="cls-29" d="M44.72,16.06c-.78-.41-3.99-1.05-4.08-1.65s2.27-.61,2.88-.52c2.45,.39,4.13-.14,5.1,1.15s.31,3.45,.11,3.64c-.63,.59-2.1-1.63-4.01-2.62Z"/><path class="cls-33" d="M23.28,18.82s-.5-2.75-.39-4.25c.06-.79,.75-3.07,3.39-4.17,2.26-.93,4.22-1.59,4.31-1.42,.11,.21-3.08,1.76-4.34,3.43-1.83,2.42-2.97,6.4-2.97,6.4Z"/><path class="cls-4" d="M20.83,22.47s-2.5-3.18-2.76-4.28c-.12-.52-.52-2.15-.27-2.49,.77-1.08,1.32-1.7,1.43-1.7,.13,0,.07,2.99,.36,4.37,.43,2.01,1.24,4.1,1.24,4.1Z"/><path class="cls-3" d="M20.04,26.87s-3.81-1.37-4.61-2.16c-.38-.37-2.28-.66-2.25-1.08,.08-1.33,.92-3.03,1.01-3.08,.11-.07,1.64,2.5,2.63,3.51,1.43,1.47,3.23,2.81,3.23,2.81Z"/></g><g id="Layer_5"><path class="cls-19" d="M55.77,38.05c-.39,1.64-2.74,5.85-4.23,7.62s-4.17,3.85-5.28,4.61c-.9,.62-5.87,2.72-7.74,3.01s-8.07,.1-9.81-.23-6.5-2.58-7.87-3.59-5-4.95-5-4.95c0,0-3.62-7.14-4-13.43-.48-8.13,2.85-13.82,2.85-13.82l.16,.83s.96-1.43,2.32-2.98c1.48-1.68,3.54-3.69,3.54-3.69l-.22,1.07s1.62-1.43,4.26-2.72c3.91-1.92,9.65-2.39,9.65-2.39l-1.47,.68s5.22-.07,7.89,.55c5.44,1.27,8.52,4.19,8.52,4.19l-1.04,.12,1.3,1.17,.2-.75s2.97,1.09,5.55,8.56,.81,14.52,.42,16.16Z"/><path class="cls-18" d="M14.56,34.81s-.43,2.28-.65,3.93c-.32,2.32,1.11,3.85,1.11,3.85"/></g><g id="Layer_7"><path class="cls-16" d="M31.35,41.88s-.21-.63-3.17-.84c-5.99-.43-4.62-10.24-10.8-11.53-1.49-.31-2.21-.51-2.21-.51"/><path class="cls-16" d="M28.3,40.51s.14,.1-.96,.29c-2.22,.38-1.71,9.14-4.01,10.29-.55,.28-.82,.46-.82,.46"/><path class="cls-15" d="M32,41.37s-.86-.11-3.82-.33c-5.99-.43-4.62-10.24-10.8-11.53-1.49-.31-2.21-.51-2.21-.51"/><path class="cls-15" d="M28.3,40.51s.14,.1-.96,.29c-2.22,.38-1.71,9.14-4.01,10.29-.55,.28-.82,.46-.82,.46"/><g><g><rect class="cls-5" x="10.5" y="43.5" width="13" height="13" rx="2.9" ry="2.9"/><path class="cls-5" d="M20.6,44c1.33,0,2.4,1.07,2.4,2.4v7.2c0,1.33-1.07,2.4-2.4,2.4h-7.2c-1.33,0-2.4-1.07-2.4-2.4v-7.2c0-1.33,1.07-2.4,2.4-2.4h7.2m0-1h-7.2c-1.87,0-3.4,1.53-3.4,3.4v7.2c0,1.87,1.53,3.4,3.4,3.4h7.2c1.87,0,3.4-1.53,3.4-3.4v-7.2c0-1.87-1.53-3.4-3.4-3.4h0Z"/></g><path class="cls-30" d="M22.7,46.7H11.7v-1c0-.55,.45-1,1-1h9c.55,0,1,.45,1,1v1Z"/><path class="cls-26" d="M20.6,44.7c.94,0,1.7,.76,1.7,1.7v7.2c0,.94-.76,1.7-1.7,1.7h-7.2c-.94,0-1.7-.76-1.7-1.7v-7.2c0-.94,.76-1.7,1.7-1.7h7.2m0-.7h-7.2c-1.33,0-2.4,1.07-2.4,2.4v7.2c0,1.33,1.07,2.4,2.4,2.4h7.2c1.33,0,2.4-1.07,2.4-2.4v-7.2c0-1.33-1.07-2.4-2.4-2.4h0Z"/></g><g><g><rect class="cls-5" x="27.5" y="33.5" width="13" height="13" rx="2.9" ry="2.9"/><path class="cls-5" d="M37.6,34c1.33,0,2.4,1.07,2.4,2.4v7.2c0,1.33-1.07,2.4-2.4,2.4h-7.2c-1.33,0-2.4-1.07-2.4-2.4v-7.2c0-1.33,1.07-2.4,2.4-2.4h7.2m0-1h-7.2c-1.87,0-3.4,1.53-3.4,3.4v7.2c0,1.87,1.53,3.4,3.4,3.4h7.2c1.87,0,3.4-1.53,3.4-3.4v-7.2c0-1.87-1.53-3.4-3.4-3.4h0Z"/></g><path class="cls-41" d="M39.7,36.7h-11v-1c0-.55,.45-1,1-1h9c.55,0,1,.45,1,1v1Z"/><path class="cls-26" d="M37.6,34.7c.94,0,1.7,.76,1.7,1.7v7.2c0,.94-.76,1.7-1.7,1.7h-7.2c-.94,0-1.7-.76-1.7-1.7v-7.2c0-.94,.76-1.7,1.7-1.7h7.2m0-.7h-7.2c-1.33,0-2.4,1.07-2.4,2.4v7.2c0,1.33,1.07,2.4,2.4,2.4h7.2c1.33,0,2.4-1.07,2.4-2.4v-7.2c0-1.33-1.07-2.4-2.4-2.4h0Z"/></g><g><g><rect class="cls-5" x="7.5" y="24.5" width="13" height="13" rx="2.9" ry="2.9"/><path class="cls-5" d="M17.6,25c1.33,0,2.4,1.07,2.4,2.4v7.2c0,1.33-1.07,2.4-2.4,2.4h-7.2c-1.33,0-2.4-1.07-2.4-2.4v-7.2c0-1.33,1.07-2.4,2.4-2.4h7.2m0-1h-7.2c-1.87,0-3.4,1.53-3.4,3.4v7.2c0,1.87,1.53,3.4,3.4,3.4h7.2c1.87,0,3.4-1.53,3.4-3.4v-7.2c0-1.87-1.53-3.4-3.4-3.4h0Z"/></g><path class="cls-35" d="M19.7,27.7H8.7v-1c0-.55,.45-1,1-1h9c.55,0,1,.45,1,1v1Z"/><path class="cls-26" d="M17.6,25.7c.94,0,1.7,.76,1.7,1.7v7.2c0,.94-.76,1.7-1.7,1.7h-7.2c-.94,0-1.7-.76-1.7-1.7v-7.2c0-.94,.76-1.7,1.7-1.7h7.2m0-.7h-7.2c-1.33,0-2.4,1.07-2.4,2.4v7.2c0,1.33,1.07,2.4,2.4,2.4h7.2c1.33,0,2.4-1.07,2.4-2.4v-7.2c0-1.33-1.07-2.4-2.4-2.4h0Z"/></g><g><circle class="cls-36" cx="23" cy="51" r="2"/><path class="cls-5" d="M23,49.5c.83,0,1.5,.67,1.5,1.5s-.67,1.5-1.5,1.5-1.5-.67-1.5-1.5,.67-1.5,1.5-1.5m0-1c-1.38,0-2.5,1.12-2.5,2.5s1.12,2.5,2.5,2.5,2.5-1.12,2.5-2.5-1.12-2.5-2.5-2.5h0Z"/></g><g><circle class="cls-36" cx="20" cy="32" r="2"/><path class="cls-5" d="M20,30.5c.83,0,1.5,.67,1.5,1.5s-.67,1.5-1.5,1.5-1.5-.67-1.5-1.5,.67-1.5,1.5-1.5m0-1c-1.38,0-2.5,1.12-2.5,2.5s1.12,2.5,2.5,2.5,2.5-1.12,2.5-2.5-1.12-2.5-2.5-2.5h0Z"/></g><g><circle class="cls-36" cx="11" cy="51" r="2"/><path class="cls-5" d="M11,49.5c.83,0,1.5,.67,1.5,1.5s-.67,1.5-1.5,1.5-1.5-.67-1.5-1.5,.67-1.5,1.5-1.5m0-1c-1.38,0-2.5,1.12-2.5,2.5s1.12,2.5,2.5,2.5,2.5-1.12,2.5-2.5-1.12-2.5-2.5-2.5h0Z"/></g><g><circle class="cls-36" cx="28" cy="41" r="2"/><path class="cls-5" d="M28,39.5c.83,0,1.5,.67,1.5,1.5s-.67,1.5-1.5,1.5-1.5-.67-1.5-1.5,.67-1.5,1.5-1.5m0-1c-1.38,0-2.5,1.12-2.5,2.5s1.12,2.5,2.5,2.5,2.5-1.12,2.5-2.5-1.12-2.5-2.5-2.5h0Z"/></g></g></svg>