<svg id="Layer_32_copy_10" data-name="Layer 32 copy 10" xmlns="http://www.w3.org/2000/svg" xmlns:xlink="http://www.w3.org/1999/xlink" viewBox="0 0 64 64"><defs><style>.cls-1,.cls-10,.cls-11,.cls-12,.cls-13,.cls-14,.cls-15,.cls-16,.cls-8,.cls-9{fill:none;}.cls-2{clip-path:url(#clip-path);}.cls-3{fill:#82bddb;}.cls-4{fill:#5a9ab8;}.cls-5{fill:#aadcfa;}.cls-6,.cls-7{fill:#285977;}.cls-6{stroke:#787878;stroke-width:0.04px;}.cls-10,.cls-11,.cls-13,.cls-6,.cls-8,.cls-9{stroke-linecap:round;stroke-linejoin:round;}.cls-8{stroke:#323232;}.cls-8,.cls-9{stroke-width:0.22px;}.cls-10,.cls-11,.cls-13,.cls-14,.cls-15,.cls-16,.cls-9{stroke:#000;}.cls-10,.cls-14{stroke-width:0.22px;}.cls-11{stroke-width:0.15px;}.cls-12{stroke:#040000;stroke-width:0.16px;}.cls-12,.cls-14,.cls-15,.cls-16{stroke-miterlimit:10;}.cls-13{stroke-width:0.18px;}.cls-15{stroke-width:0.2px;}.cls-16{stroke-width:0.33px;}</style><clipPath id="clip-path"><polygon class="cls-1" points="57.3 37.84 49.77 37.42 47.48 36.45 44.48 29.23 42.79 27.02 36.2 25.89 32.9 27.75 31.1 28.91 21.52 33.05 6.77 33.05 6.77 6.05 57.85 6.05 57.3 37.84"/></clipPath></defs><title>ddd__A33AAe__R21X          </title><g class="cls-2"><path class="cls-3" d="M17.76,15.8l12.58,5.51c8.63,4.14.76,7.57.76,7.57l-3,1.36-11.7-5.07Z"/><polygon class="cls-4" points="15.06 26.87 25.4 31.42 28.11 30.25 16.41 25.17 15.06 26.87"/><polygon class="cls-5" points="15.06 26.87 25.4 31.42 21.52 33.09 11.29 28.58 15.06 26.87"/><polygon class="cls-5" points="17.22 38.81 8.9 41.88 14.95 43.84 16.39 43.38 17.22 38.81"/><polygon class="cls-6" points="26.1 39.88 16.8 43.74 18.13 35.39 19.57 34.91 24.5 37.06 25.98 39.06 26.1 39.88"/><path class="cls-7" d="M29.05,50.7l6.53,2.81,10.66-6s9-4.88,9-11.34c0-6-8.82-10.23-8.82-10.23l.88,4.79s2.69,2.43,2.91,5.48c-.95,6.22-8.82,9-8.82,9Z"/><path class="cls-3" d="M29.05,50l6.53,2.82,10.66-6s9-4.88,9-11.34c0-6-8.82-10.23-8.82-10.23L47.35,30s2.69,2.43,2.91,5.48c-.95,6.22-8.82,9-8.82,9Z"/><path class="cls-7" d="M29.05,50l-1.42-1.7s9.63-4.17,12.63-5.57c8.24-3.86,7.93-8.31,7.93-8.31s-.49-2.69-.84-4.41a9.09,9.09,0,0,1,2.91,5.48s0,5.33-8.82,9C38.41,45.77,29.05,50,29.05,50Z"/><path class="cls-7" d="M26.32,38.94l1.31,9.35s11.24-4.94,12.63-5.57c8.3-3.78,7.93-8.31,7.93-8.31l-1.72-8.85s.22,4.22-7.66,7.84C36.4,34.51,26.32,38.94,26.32,38.94Z"/><path class="cls-3" d="M25.81,11.4s9.59,4.27,12.35,5.46c8,3.29,8.26,8.61,8.26,8.61s.93,3.83-7.61,7.93c-4.07,1.83-12.49,5.54-12.49,5.54l-1.69-2.12s8.79-4,12.49-5.63c7.34-3.17,6.75-7.06,6.75-7.06s.15-4-6.68-7.11c-2.72-1.2-12.68-5.53-12.68-5.53Z"/><path class="cls-4" d="M19.54,13.64l12.55,5.49c5.16,2.41,4.77,5.14,4.77,5.14s-.33,3-4.71,4.78c-3.36,1.51-12.58,5.55-12.58,5.55l-1.79.57.69-.74c12.22-5.28,12.15-5.32,12.63-5.55C35,27,34.33,25.31,34.33,25.31s-.06-2.41-4-4C27.17,20,17.76,15.8,17.76,15.8Z"/><path class="cls-5" d="M19.54,13.64s7.4,3.21,12.55,5.49,4.7,5.14,4.7,5.14.07,2.71-4.67,4.82c-4.53,2-12.55,5.51-12.55,5.51l5.06,2.22s10.46-4.75,12.49-5.63c7.37-3.33,6.75-7.06,6.75-7.06s.23-4-6.68-7.11c-4.29-1.93-12.68-5.53-12.68-5.53Z"/></g><g id="contour_int_copy_2" data-name="contour int copy 2"><path class="cls-8" d="M17.76,15.8l12.58,5.51c8.63,4.14.76,7.57.76,7.57l-3,1.36-11.7-5.07Z"/><polygon class="cls-8" points="15.06 26.87 25.4 31.42 28.11 30.25 16.41 25.17 15.06 26.87"/><polygon class="cls-9" points="15.06 26.87 25.4 31.42 21.52 33.09 11.29 28.58 15.06 26.87"/><polygon class="cls-9" points="17.16 38.81 8.9 41.88 14.95 43.84 16.39 43.38 17.16 38.81"/><path class="cls-8" d="M29.05,50l6.53,2.82,10.66-6s9-4.88,9-11.34c0-6-8.82-10.23-8.82-10.23L47.35,30s2.69,2.43,2.91,5.48c-.95,6.22-8.82,9-8.82,9Z"/><path class="cls-10" d="M29.05,50l-1.42-1.7s9.63-4.17,12.63-5.57c8.24-3.86,7.93-8.31,7.93-8.31s-.49-2.69-.84-4.41a9.09,9.09,0,0,1,2.91,5.48s0,5.33-8.82,9C38.41,45.77,29.05,50,29.05,50Z"/><path class="cls-9" d="M26.32,38.94l1.31,9.35s11.24-4.94,12.63-5.57c8.3-3.78,7.93-8.31,7.93-8.31l-1.72-8.85s.22,4.22-7.66,7.84C36.4,34.51,26.32,38.94,26.32,38.94Z"/><path class="cls-9" d="M25.81,11.4s9.59,4.27,12.35,5.46c8,3.29,8.26,8.61,8.26,8.61s.93,3.83-7.61,7.93c-4.07,1.83-12.49,5.54-12.49,5.54l-1.69-2.12s8.79-4,12.49-5.63c7.34-3.17,6.75-7.06,6.75-7.06s.15-4-6.68-7.11c-2.72-1.2-12.68-5.53-12.68-5.53Z"/><path class="cls-11" d="M19.54,13.64l12.55,5.49c5.16,2.41,4.77,5.14,4.77,5.14s-.33,3-4.71,4.78c-3.36,1.51-12.58,5.55-12.58,5.55l-1.79.57.69-.74c12.22-5.28,12.15-5.32,12.63-5.55C35,27,34.33,25.31,34.33,25.31s-.06-2.41-4-4C27.17,20,17.76,15.8,17.76,15.8Z"/><path class="cls-9" d="M19.54,13.64s7.4,3.21,12.55,5.49,4.7,5.14,4.7,5.14.07,2.71-4.67,4.82c-4.53,2-12.55,5.51-12.55,5.51l5.06,2.22s10.46-4.75,12.49-5.63c7.37-3.33,6.75-7.06,6.75-7.06s.23-4-6.68-7.11c-4.29-1.93-12.68-5.53-12.68-5.53Z"/><polyline class="cls-12" points="8.9 41.88 14.94 43.85 16.39 43.38 17.77 35.17 19.57 34.59 24.51 36.75 26.3 38.9 27.46 48.27 29.09 50.12 35.58 52.81"/></g><g id="median_copy_2" data-name="median   * copy 2"><line class="cls-13" x1="21.75" y1="41.73" x2="23.23" y2="32.38"/><polyline class="cls-14" points="23.1 32.43 25.4 32.13 30.75 33.89 32.9 36.04 35.48 44.86 37.26 46.36 43.58 48.8"/><polyline class="cls-15" points="28.44 30.09 31.8 29.23 38.48 30.66 39.99 32.82 42.9 41.33 44.99 42.66 50.26 43.74"/><polyline class="cls-16" points="32.9 27.78 36.2 25.94 42.79 27.12 44.54 29.56 47.48 36.45 49.77 37.42 55.29 37.84"/></g><g id="contour_" data-name="contour   *"><path d="M17.74,35.2l-.47,3.27-.05.34-.32.13L8.51,42.07l.37-.54v.85l-.4-.56L15.24,44l-.3,0,1.74-.36-.1,0L25.81,40l.7-.28.09.75.95,8-.13-.3,1.75,2.09L29,50.08l6.81,2.83-.49,0q4.35-2.37,8.59-5A78,78,0,0,0,52,42.31l-.06,0c.29-.34.59-.68.85-1a4.24,4.24,0,0,0,.38-.56c.11-.19.25-.37.35-.57.2-.38.41-.8.61-1.23.07-.2.15-.38.21-.58a4.49,4.49,0,0,0,.13-.59v-.07a9.82,9.82,0,0,0,.25-1.94v-.31h0v-.17c0-.16,0-.36,0-.5a6.68,6.68,0,0,0-.17-.92,9.71,9.71,0,0,0-1.78-3.45,18.53,18.53,0,0,0-2.81-2.86c-.52-.43-1.06-.85-1.61-1.24s-1.13-.76-1.69-1.08l-.24-.14-.05-.28a6.16,6.16,0,0,0-.47-1.39,9.26,9.26,0,0,0-.74-1.34,13.68,13.68,0,0,0-.93-1.23c-.35-.38-.71-.76-1.09-1.1a12.76,12.76,0,0,0-1.22-1,14.79,14.79,0,0,0-1.31-.86c-.44-.28-.92-.5-1.38-.75l-1.46-.65L25.82,11.34l.26.05-2,.09.27-.09-4.5,2.74L20,14l-1.78,2.17.12-.29L17,25.25l0,.15-.1.12-1.34,1.71-.09.11-.13.06-3.77,1.71,0-1.05,8.92,4.51,1.18.6-1.24.46-2,.75.21-.14Zm-1.1-.54,1.17-1.22.09-.1.13-.05,2-.74L20,33.61,11,29.1,10,28.55l1.1-.5,3.77-1.71-.21.17L16,24.81l-.11.27,1.35-9.36,0-.16.1-.13,1.78-2.16.07-.08.08,0,4.5-2.74.13-.07H24l2-.09h.13l.12,0,11.91,5.18,1.5.67c.49.26,1,.5,1.47.79a14.19,14.19,0,0,1,1.41.92,13.08,13.08,0,0,1,1.3,1.06,12.25,12.25,0,0,1,1.19,1.2,13.37,13.37,0,0,1,1,1.35,11,11,0,0,1,.83,1.5,7.28,7.28,0,0,1,.55,1.69l-.29-.42c.64.37,1.22.75,1.8,1.16s1.14.83,1.68,1.29a19.55,19.55,0,0,1,3,3,10.92,10.92,0,0,1,2,3.88,9.68,9.68,0,0,1,.19,1.12c0,.2,0,.35,0,.53v.57A11.21,11.21,0,0,1,55.58,38V37.9a5.76,5.76,0,0,1-.44,1.55c-.2.42-.41.84-.65,1.29-.11.23-.26.43-.38.64a6.58,6.58,0,0,1-.42.61,13,13,0,0,1-.93,1.15l0,0,0,0a80.9,80.9,0,0,1-8.24,5.73q-4.26,2.64-8.66,5l-.24.13-.25-.1-6.81-2.83-.13,0-.1-.11-1.75-2.1-.11-.13,0-.17-1-8,.79.47L17,44.71l0,0h0l-1.74.37-.15,0-.14,0L8.13,42.93l-.41-.13V41.13L8.1,41l8.39-3.14-.37.46Z"/></g></svg>