<svg id="v_1X_copy_2" data-name="v 1X copy 2" xmlns="http://www.w3.org/2000/svg" xmlns:xlink="http://www.w3.org/1999/xlink" viewBox="0 0 64 64"><defs><style>.cls-1{fill:#aadcfa;stroke:#000;stroke-width:1.42px;}.cls-2{fill:#fdfeff;}.cls-3{fill:url(#New_Gradient_Swatch_1);}.cls-4{fill:#e1e1e1;}.cls-5,.cls-6{fill:none;stroke:#323232;}.cls-5{stroke-width:0.28px;}.cls-6{stroke-linecap:round;stroke-width:0.28px;}.cls-7{stroke-width:1.62px;fill:url(#Dark_BLUE_gradient_LEFT);stroke:url(#New_Gradient_Swatch_1-2);}</style><linearGradient id="New_Gradient_Swatch_1" x1="11.36" y1="38.88" x2="55.76" y2="38.88" gradientUnits="userSpaceOnUse"><stop offset="0" stop-color="#464646"/><stop offset="0.99" stop-color="#141414"/></linearGradient><linearGradient id="Dark_BLUE_gradient_LEFT" x1="16.06" y1="23.04" x2="34.54" y2="25.81" gradientUnits="userSpaceOnUse"><stop offset="0" stop-color="#82bedc"/><stop offset="1" stop-color="#285a78"/></linearGradient><linearGradient id="New_Gradient_Swatch_1-2" x1="12.73" y1="24.87" x2="55.38" y2="24.87" xlink:href="#New_Gradient_Swatch_1"/></defs><title>ddd__A33AAe__R21XArtboard 1</title><g id="bateau_copy_2" data-name="bateau copy 2"><path id="CONTOUR" class="cls-1" d="M7.47,34.78c4.07,4.9,5.64,5.45,5.68,6.22.31,1.24-3.46,1.7-2.37,4.21,1,1.91,3.1,1.66,9.29-.33C30.74,42.34,33,43.29,40,40.83c7.54-2.64,15.23-4,16.29-8.61,1.09-2.6,1.88-2,1.82-4.72,0-.82,0-1.51,0-1.51L46.25,23s-8.9,1.63-12.7,2.31C17,28.35,8.9,30.06,6.91,31.19,5.31,32.1,6,32.71,7.47,34.78Z"/><path id="CONTOUR-2" data-name="CONTOUR" class="cls-2" d="M7.47,34.78c4.07,4.9,5.64,5.45,5.68,6.22.31,1.24-3.46,1.7-2.37,4.21,1,1.91,3.1,1.66,9.29-.33C30.74,42.34,33,43.29,40,40.83c7.54-2.64,15.23-4,16.29-8.61,1.09-2.6,1.88-2,1.82-4.72,0-.82,0-1.51,0-1.51L46.25,23s-8.9,1.63-12.7,2.31C17,28.35,8.9,30.06,6.91,31.19,5.31,32.1,6,32.71,7.47,34.78Z"/><path id="bez_bis_in" data-name="bez bis in" class="cls-3" d="M40.26,37.29c-7.55,1.61-8.7,1.89-15.79,2.21-2.3.11-6,.34-10.24.79.61,2.58-4.39,2.49-2.4,4.8,1.88,2,7.22-.77,9.53-1.52,5.27-1.44,10.23-1.11,19.7-3.78,6.48-1.82,10.74-4,12.59-5.31A4.62,4.62,0,0,0,55.76,32C51.9,33.47,43.52,36.6,40.26,37.29Z"/><path id="pont_2_fd" data-name="pont 2  fd" class="cls-4" d="M58.08,26l-2,.54L46.2,23.74,25.46,27.8,12.3,30.35C9,31,6.35,31.9,6.36,32.3s.28.55,1.21.68a40.35,40.35,0,0,0,6.32.24,238.69,238.69,0,0,0,26-3.26c8.45-1.65,17.3-3.71,18.19-4h0Z"/><path id="pont_2_contour" data-name="pont 2 contour" class="cls-5" d="M6.36,32.3c0,.39.28.55,1.21.68a40.35,40.35,0,0,0,6.32.24,238.69,238.69,0,0,0,26-3.26c8.45-1.65,17.3-3.71,18.19-4h0l-2,.54"/><polyline class="cls-6" points="45.96 21 45.23 18.69 42.69 18.7"/><polyline class="cls-6" points="33.32 21.49 33.04 18.65 30 18.02"/><path class="cls-7" d="M13.64,30.44c-.73,1.16,2.33,2,13.19.8a135.81,135.81,0,0,0,22.7-4.17l4.59-.91.41-1.59-1.25-3.44L45.94,21l-.71-2.28H42.57l-3,2-6.21.78L33,18.65,29.89,18l-2.3,2.84h-2.2l-.37.71H20.8l-.92,2.6H17.59l.27,1.38S14.38,29.28,13.64,30.44Z"/><path class="cls-5" d="M13.64,30.44c-.73,1.16,2.33,2,13.19.8a135.81,135.81,0,0,0,22.7-4.17l4.59-.91.41-1.59-1.25-3.44"/></g></svg>