<svg xmlns="http://www.w3.org/2000/svg" xmlns:xlink="http://www.w3.org/1999/xlink" viewBox="0 0 64 64"><defs><style>.cls-1{fill:none;}.cls-2{isolation:isolate;}.cls-3{stroke:#2d2d2d;fill:url(#linear-gradient);}.cls-17,.cls-18,.cls-19,.cls-3{stroke-linecap:round;stroke-linejoin:round;}.cls-4{opacity:0.4;mix-blend-mode:overlay;}.cls-5{clip-path:url(#clip-path);}.cls-6,.cls-8{opacity:0.8;}.cls-6{fill:url(#radial-gradient);}.cls-7{clip-path:url(#clip-path-2);}.cls-8{fill:url(#radial-gradient-2);}.cls-9{fill:url(#linear-gradient-2);}.cls-10{fill:url(#linear-gradient-3);}.cls-11{fill:url(#linear-gradient-4);}.cls-12{fill:url(#linear-gradient-5);}.cls-13{fill:url(#linear-gradient-6);}.cls-14{fill:url(#linear-gradient-7);}.cls-15{fill:url(#linear-gradient-8);}.cls-16{fill:url(#linear-gradient-9);}.cls-17,.cls-18,.cls-19{stroke:#053755;}.cls-17{fill:url(#linear-gradient-10);}.cls-18{fill:url(#linear-gradient-11);}.cls-19{fill:url(#linear-gradient-12);}</style><linearGradient id="linear-gradient" x1="7.5" y1="34.89" x2="56.5" y2="34.89" gradientUnits="userSpaceOnUse"><stop offset="0" stop-color="#d2d2d2"/><stop offset="0.63" stop-color="#a0a2a3"/><stop offset="0.73" stop-color="#a4a6a7"/><stop offset="0.83" stop-color="#b2b3b4"/><stop offset="0.95" stop-color="#c7c8c9"/><stop offset="1" stop-color="#d5d5d6"/></linearGradient><clipPath id="clip-path"><path class="cls-1" d="M33.36,17.66c2,3,6.21,5,10.89,5a17.51,17.51,0,0,0,12-4.86c-1.7,10.15-4.65,12.42-8.37,15.28s-8.32,6.41-13.27,19c-4.21-9.17-14.92-16.58-24-16.58a15.71,15.71,0,0,0-2.78.25c5.55-8.29,10.59-9.49,15-10.55,4-1,7.53-1.8,10.48-7.5"/></clipPath><radialGradient id="radial-gradient" cx="134.3" cy="-104.38" r="18.28" gradientTransform="matrix(1.29, -0.25, 0.11, 0.76, -105.46, 129.9)" gradientUnits="userSpaceOnUse"><stop offset="0.35" stop-color="#fff"/><stop offset="1" stop-color="#fff" stop-opacity="0"/></radialGradient><clipPath id="clip-path-2"><path class="cls-1" d="M56.5,17.36C53.11,38.44,44.67,26.7,34.65,52.42,30.11,42.14,17.31,33.92,7.5,35.94c6-9.07,11-9.88,15.66-11C24.93,24.49,40,32.2,40.51,32c5.53-2.14-14.7-12.51-14.7-12.51s6.9.37,7.53-2.13C36.82,23.08,48.51,25.21,56.5,17.36Z"/></clipPath><radialGradient id="radial-gradient-2" cx="-31.19" cy="-603.78" r="30.59" gradientTransform="matrix(0.75, 0.11, -0.04, 0.35, 25.57, 243.35)" gradientUnits="userSpaceOnUse"><stop offset="0.35" stop-color="#fff"/><stop offset="1" stop-color="#fff" stop-opacity="0"/></radialGradient><linearGradient id="linear-gradient-2" x1="25.48" y1="25.63" x2="24.34" y2="23.65" gradientTransform="translate(-5.04 -1.4) scale(1.2 1.06)" gradientUnits="userSpaceOnUse"><stop offset="0" stop-color="#55b2d4"/><stop offset="1" stop-color="#89c3e7"/></linearGradient><linearGradient id="linear-gradient-3" x1="28.17" y1="26.58" x2="27.03" y2="24.6" gradientTransform="translate(-5.64 -0.55) scale(1.2 1.03)" xlink:href="#linear-gradient-2"/><linearGradient id="linear-gradient-4" x1="30.94" y1="27.62" x2="29.8" y2="25.64" gradientTransform="translate(-6.1 -0.88) scale(1.2 1.04)" xlink:href="#linear-gradient-2"/><linearGradient id="linear-gradient-5" x1="33.75" y1="28.47" x2="32.61" y2="26.5" gradientTransform="translate(-6.74 -0.3) scale(1.2 1.04)" xlink:href="#linear-gradient-2"/><linearGradient id="linear-gradient-6" x1="46.37" y1="35.35" x2="45.07" y2="33.1" gradientTransform="translate(0.49 -0.59)" xlink:href="#linear-gradient-2"/><linearGradient id="linear-gradient-7" x1="27.49" y1="22.3" x2="26.36" y2="20.33" gradientTransform="translate(-5.66 1.86) scale(1.2 0.87)" xlink:href="#linear-gradient-2"/><linearGradient id="linear-gradient-8" x1="30.08" y1="23.05" x2="28.95" y2="21.09" gradientTransform="translate(-6.36 3.5) scale(1.2 0.83)" xlink:href="#linear-gradient-2"/><linearGradient id="linear-gradient-9" x1="31.41" y1="24.29" x2="30.63" y2="22.95" gradientTransform="translate(-5.69 -0.24) scale(1.2 1)" xlink:href="#linear-gradient-2"/><linearGradient id="linear-gradient-10" x1="45.8" y1="35.3" x2="39.49" y2="24.36" gradientTransform="matrix(1.07, 0.76, -0.58, 0.81, 11.96, -27.49)" gradientUnits="userSpaceOnUse"><stop offset="0" stop-color="#386f8d"/><stop offset="1" stop-color="#8dd7f4"/></linearGradient><linearGradient id="linear-gradient-11" x1="40.33" y1="30.66" x2="29.22" y2="11.41" gradientTransform="matrix(0.95, 0.4, -0.41, 0.92, 10.33, -12.11)" xlink:href="#linear-gradient-10"/><linearGradient id="linear-gradient-12" x1="43.66" y1="30.71" x2="39.43" y2="23.38" gradientTransform="translate(2.23 -2.54) scale(0.88 1.12)" xlink:href="#linear-gradient-10"/></defs><title>CATIA _ (B10) HA1 - Shape Healing</title><g class="cls-2"><g id="CATIA___B10_HA1_-_Shape_Healing" data-name="CATIA _ (B10) HA1 - Shape Healing"><path class="cls-3" d="M33.34,17.36c-.63,2.5-7.53,2.13-7.53,2.13S46,29.86,40.51,32c-.53.2-15.58-7.51-17.35-7.08-4.68,1.14-9.7,1.95-15.66,11,9.81-2,22.61,6.2,27.15,16.48,10-25.72,18.46-14,21.85-35.06C48.51,25.21,36.82,23.08,33.34,17.36Z"/><g class="cls-4"><g class="cls-5"><path class="cls-6" d="M79.8,12.85c1.08,7.68-8.59,15.92-21.58,18.41s-24.4-1.71-25.47-9.4S41.34,5.94,54.33,3.45,78.73,5.16,79.8,12.85Z"/></g></g><g class="cls-4"><g class="cls-7"><path class="cls-8" d="M47.38,34.2c-.62,5.84-11.46,9.08-24.21,7.22s-22.59-8.12-22-14,11.46-9.08,24.21-7.22S48,28.35,47.38,34.2Z"/></g></g><g id="Layer_4" data-name="Layer 4"><rect class="cls-9" x="24.2" y="23.06" width="1.2" height="3.18" rx="0.6" transform="translate(24.69 -10.31) rotate(45)"/><rect class="cls-10" x="26.83" y="24.25" width="1.2" height="3.1" rx="0.6" transform="translate(26.28 -11.84) rotate(45)"/><rect class="cls-11" x="29.69" y="25.28" width="1.2" height="3.13" rx="0.6" transform="translate(27.85 -13.55) rotate(45)"/><rect class="cls-12" x="32.42" y="26.54" width="1.2" height="3.11" rx="0.6" transform="translate(27.15 -14.86) rotate(41.82)"/><rect class="cls-13" x="45.65" y="32.04" width="1" height="3" transform="translate(41.89 -23.35) rotate(49.71)"/><rect class="cls-14" x="26" y="19.05" width="1.2" height="2.61" rx="0.6" transform="translate(32.69 -12.58) rotate(63.06)"/><rect class="cls-15" x="28.39" y="20.52" width="1.2" height="2.49" rx="0.6" transform="translate(33.35 -14.22) rotate(60)"/><rect class="cls-16" x="30.9" y="22.33" width="1.2" height="2" rx="0.6" transform="translate(28.93 -15.78) rotate(49.71)"/></g><path class="cls-17" d="M37.6,23.56l8.65,6.93a1.45,1.45,0,0,1,.11,2.15L44.3,34.7a1.42,1.42,0,0,1-1.76.2l-9-5.64Z"/><rect class="cls-18" x="30.61" y="12.81" width="8.4" height="16.56" rx="2" transform="translate(-5.52 15.59) rotate(-23.44)"/><rect class="cls-19" x="34.57" y="26" width="8.85" height="3.35" rx="1.5" transform="translate(34.89 -19.97) rotate(49.71)"/></g></g></svg>