<svg id="CATIA___I06_HVAb_-_HVAC_3D_Part_Design" data-name="CATIA _ (I06) HVAb - HVAC 3D Part Design" xmlns="http://www.w3.org/2000/svg" xmlns:xlink="http://www.w3.org/1999/xlink" viewBox="0 0 64 64"><defs><style>.cls-1,.cls-10,.cls-2,.cls-3,.cls-4,.cls-5,.cls-6,.cls-7,.cls-8,.cls-9{stroke:#797979;stroke-width:0.8px;}.cls-1,.cls-10,.cls-11,.cls-2,.cls-3,.cls-4,.cls-5,.cls-6,.cls-7,.cls-8,.cls-9{stroke-linecap:round;stroke-linejoin:round;}.cls-1{fill:url(#linear-gradient);}.cls-2{fill:url(#linear-gradient-2);}.cls-3{fill:url(#linear-gradient-3);}.cls-4{fill:url(#linear-gradient-4);}.cls-5{fill:url(#linear-gradient-5);}.cls-6{fill:url(#linear-gradient-6);}.cls-7{fill:url(#linear-gradient-7);}.cls-8{fill:url(#linear-gradient-8);}.cls-9{fill:url(#linear-gradient-9);}.cls-10{fill:url(#linear-gradient-10);}.cls-11{fill:none;stroke:url(#linear-gradient-11);}</style><linearGradient id="linear-gradient" x1="25.02" y1="23.37" x2="36.33" y2="42.97" gradientUnits="userSpaceOnUse"><stop offset="0" stop-color="#bebfbf"/><stop offset="0.99" stop-color="#8f8e8e"/></linearGradient><linearGradient id="linear-gradient-2" x1="49.96" y1="24.14" x2="40.78" y2="40.04" gradientUnits="userSpaceOnUse"><stop offset="0" stop-color="#bebfbf"/><stop offset="1" stop-color="#bbbcbc"/></linearGradient><linearGradient id="linear-gradient-3" x1="39.13" y1="37.87" x2="47.22" y2="29.78" gradientUnits="userSpaceOnUse"><stop offset="0" stop-color="#feffff"/><stop offset="1" stop-color="#9d9e9e"/></linearGradient><linearGradient id="linear-gradient-4" x1="31.59" y1="17.46" x2="39.01" y2="30.31" gradientUnits="userSpaceOnUse"><stop offset="0" stop-color="#fff"/><stop offset="1" stop-color="#f1f0f0"/></linearGradient><linearGradient id="linear-gradient-5" x1="27.34" y1="29.85" x2="31.25" y2="36.62" gradientUnits="userSpaceOnUse"><stop offset="0" stop-color="#fff"/><stop offset="1" stop-color="#d2d3d3"/></linearGradient><linearGradient id="linear-gradient-6" x1="22.84" y1="31.76" x2="27.36" y2="39.58" gradientUnits="userSpaceOnUse"><stop offset="0" stop-color="#8a8a8a"/><stop offset="1" stop-color="#969696"/></linearGradient><linearGradient id="linear-gradient-7" x1="18.71" y1="46.79" x2="25.59" y2="39.91" gradientUnits="userSpaceOnUse"><stop offset="0" stop-color="#eff0f0"/><stop offset="1" stop-color="#9d9e9e"/></linearGradient><linearGradient id="linear-gradient-8" x1="12.49" y1="40.01" x2="21.39" y2="31.11" xlink:href="#linear-gradient-7"/><linearGradient id="linear-gradient-9" x1="19.27" y1="29" x2="24.11" y2="37.39" xlink:href="#linear-gradient-4"/><linearGradient id="linear-gradient-10" x1="26.01" y1="36.19" x2="31.21" y2="45.2" gradientUnits="userSpaceOnUse"><stop offset="0" stop-color="#fff"/><stop offset="1" stop-color="#a2a3a3"/></linearGradient><linearGradient id="linear-gradient-11" x1="38.8" y1="44.64" x2="24.04" y2="19.08" gradientUnits="userSpaceOnUse"><stop offset="0" stop-color="#161616"/><stop offset="1" stop-color="#474747"/></linearGradient></defs><title>CATIA _ (I06) HVAb - HVAC 3D Part Design</title><polygon class="cls-1" points="41.5 30.5 41.5 42.5 18.5 33.5 18.5 23.5 41.5 30.5"/><polygon class="cls-2" points="50.5 21.5 41.5 30.5 41.5 42.5 50.5 31.5 50.5 21.5"/><polygon class="cls-3" points="41.5 28.5 41.5 30.5 41.5 42.5 50.5 31.5 41.5 28.5"/><polygon class="cls-4" points="29.5 16.5 50.5 21.5 41.5 30.5 18.5 23.5 29.5 16.5"/><path class="cls-5" d="M23.5,31.5l4-3a5.3,5.3,0,0,1,6,6l-4,4Z"/><polygon class="cls-6" points="22.5 30.5 22.5 38.5 27.5 40.5 27.5 32.5 22.5 30.5"/><polygon class="cls-7" points="12.5 42.5 27.5 48.5 27.5 40.5 22.5 38.5 12.5 42.5"/><polygon class="cls-8" points="12.5 31.5 12.5 42.5 22.5 38.5 22.5 30.5 12.5 31.5"/><polygon class="cls-9" points="12.5 31.5 22.5 30.5 29.5 32.5 27.5 36.5 12.5 31.5"/><polygon class="cls-10" points="27.5 48.5 27.5 36.5 29.5 32.5 29.5 41.5 27.5 48.5"/><polygon class="cls-11" points="18.5 23.5 18.5 30.9 12.5 31.5 12.5 42.5 27.5 48.5 29.5 41.5 29.5 38.5 30.19 37.79 41.5 42.5 50.5 31.5 50.5 21.5 29.5 16.5 18.5 23.5"/></svg>