<svg id="Layer_4" data-name="Layer 4" xmlns="http://www.w3.org/2000/svg" xmlns:xlink="http://www.w3.org/1999/xlink" viewBox="0 0 64 64"><defs><linearGradient id="linear-gradient" x1="32.39" y1="35.8" x2="34.37" y2="47.76" gradientUnits="userSpaceOnUse"><stop offset="0" stop-color="#d2d3d3"/><stop offset="0.5" stop-color="#f5f6f6"/><stop offset="1" stop-color="#d2d3d3"/></linearGradient><linearGradient id="linear-gradient-2" x1="31.67" y1="32.16" x2="30.37" y2="29.9" gradientUnits="userSpaceOnUse"><stop offset="0" stop-color="#386f8d"/><stop offset="1" stop-color="#8dd7f4"/></linearGradient><linearGradient id="linear-gradient-3" x1="37.81" y1="46.49" x2="31.74" y2="35.98" xlink:href="#linear-gradient-2"/><linearGradient id="linear-gradient-6" x1="34.38" y1="47.38" x2="28.33" y2="36.91" xlink:href="#linear-gradient-2"/><linearGradient id="linear-gradient-7" x1="15.23" y1="42.04" x2="20.2" y2="50.65" gradientTransform="translate(3.22 0.01) scale(0.76 1)" gradientUnits="userSpaceOnUse"><stop offset="0" stop-color="#f5f6f6"/><stop offset="0.99" stop-color="#d2d3d3"/></linearGradient><linearGradient id="linear-gradient-9" x1="14.73" y1="14.83" x2="21.56" y2="26.67" gradientUnits="userSpaceOnUse"><stop offset="0" stop-color="#f5f6f6"/><stop offset="0.99" stop-color="#bfbebe"/></linearGradient><linearGradient id="linear-gradient-10" x1="35.72" y1="17.55" x2="40.48" y2="25.8" gradientUnits="userSpaceOnUse"><stop offset="0" stop-color="#fff"/><stop offset="1" stop-color="#d2d3d3"/></linearGradient><linearGradient id="linear-gradient-11" x1="27.19" y1="8.04" x2="36.09" y2="23.44" gradientUnits="userSpaceOnUse"><stop offset="0" stop-color="#fff"/><stop offset="1" stop-color="#f1f0f0"/></linearGradient></defs><title>CATHGR_AP_AppIcon</title><path d="M50.34,37.6c-.55-3.55-2.35-6.22-4-6a.42.42,0,0,0-.15,0h0L15.4,39.76l2.29,12.78,30.79-8.09h0C50,44,50.87,41,50.34,37.6Z" stroke="#333332" stroke-linecap="round" stroke-linejoin="round" fill="url(#linear-gradient)"/><circle cx="31" cy="31" r="1.5" stroke="#053755" stroke-linecap="round" stroke-linejoin="round" fill="url(#linear-gradient-2)"/><path d="M38.33,40.91c-.69-4.44-2.88-7.28-5-6.95A2.69,2.69,0,0,0,31.5,35.5C33,36.56,34.3,38.71,34.8,42a8.44,8.44,0,0,1-1,6,2.39,2.39,0,0,0,1.69.48C37.62,48.15,39,45.35,38.33,40.91Z" stroke="#053755" stroke-linecap="round" stroke-linejoin="round" fill="url(#linear-gradient-3)"/><rect x="30.5" y="24" width="3" height="10.5" stroke="#053755" stroke-linecap="round" stroke-linejoin="round" fill="url(#linear-gradient-2)"/><polygon points="31.5 24 31.5 35.5 34.5 34.74 34.5 24 31.5 24" stroke="#053755" stroke-linecap="round" stroke-linejoin="round" fill="url(#linear-gradient-2)"/><path d="M34.8,41.85c-.69-4.44-2.93-7.18-5-6.85a2.19,2.19,0,0,0-1.25.71c1.7.82,3.25,3.07,3.8,6.64S32,47.84,30.73,49.2a2,2,0,0,0,1.24.21C34.09,49.09,35.49,46.29,34.8,41.85Z" stroke="#053755" stroke-linecap="round" stroke-linejoin="round" fill="url(#linear-gradient-6)"/><ellipse cx="16.54" cy="46.15" rx="3.03" ry="6.5" transform="translate(-6.86 3.07) rotate(-8.8)" stroke="#333332" stroke-linecap="round" stroke-linejoin="round" fill="url(#linear-gradient-7)"/><circle cx="34" cy="31" r="1.5" stroke="#053755" stroke-linecap="round" stroke-linejoin="round" fill="url(#linear-gradient-2)"/><polygon points="11.5 14.5 11.5 18.5 24.5 26.5 24.5 22.5 11.5 14.5" stroke="#797979" stroke-linecap="round" stroke-linejoin="round" fill="url(#linear-gradient-9)"/><polygon points="51.5 16.5 24.5 22.5 24.5 26.5 51.5 20.5 51.5 16.5" stroke="#797979" stroke-linecap="round" stroke-linejoin="round" fill="url(#linear-gradient-10)"/><polygon points="11.5 14.5 35.5 10.5 51.5 16.5 24.5 22.5 11.5 14.5" stroke="#797979" stroke-linecap="round" stroke-linejoin="round" fill="url(#linear-gradient-11)"/><polygon points="35.5 10.5 11.5 14.5 11.5 18.5 24.5 26.5 51.5 20.5 51.5 16.5 35.5 10.5" fill="none" stroke="#333332" stroke-linecap="round" stroke-linejoin="round"/></svg>