<svg id="CATIA___E04_HLE_-_HVAC_Systems_Design" data-name="CATIA _ (E04) HLE - HVAC Systems Design" xmlns="http://www.w3.org/2000/svg" xmlns:xlink="http://www.w3.org/1999/xlink" viewBox="0 0 64 64"><defs><style>.cls-1,.cls-10,.cls-11,.cls-12,.cls-13,.cls-14,.cls-2,.cls-3,.cls-4,.cls-5,.cls-6,.cls-7,.cls-8,.cls-9{stroke:#797979;stroke-width:0.8px;}.cls-1,.cls-10,.cls-11,.cls-12,.cls-13,.cls-14,.cls-15,.cls-16,.cls-2,.cls-3,.cls-4,.cls-5,.cls-6,.cls-7,.cls-8,.cls-9{stroke-linecap:round;stroke-linejoin:round;}.cls-1{fill:url(#linear-gradient);}.cls-2{fill:url(#linear-gradient-2);}.cls-3{fill:url(#linear-gradient-3);}.cls-4{fill:url(#linear-gradient-4);}.cls-5{fill:url(#linear-gradient-5);}.cls-6{fill:url(#linear-gradient-6);}.cls-7{fill:url(#linear-gradient-7);}.cls-8{fill:url(#linear-gradient-8);}.cls-9{fill:url(#linear-gradient-9);}.cls-10{fill:url(#linear-gradient-10);}.cls-11{fill:url(#linear-gradient-11);}.cls-12{fill:url(#linear-gradient-12);}.cls-13{fill:url(#linear-gradient-13);}.cls-14{fill:url(#linear-gradient-14);}.cls-15{fill:none;stroke:url(#linear-gradient-15);}.cls-16{stroke:#2d2d2d;fill:url(#linear-gradient-16);}.cls-17{fill:#383838;}</style><linearGradient id="linear-gradient" x1="19.69" y1="11.13" x2="25.57" y2="21.31" gradientUnits="userSpaceOnUse"><stop offset="0" stop-color="#d3d4d4"/><stop offset="0.99" stop-color="#4d4d4d"/></linearGradient><linearGradient id="linear-gradient-2" x1="10.95" y1="15.32" x2="14.19" y2="20.92" gradientUnits="userSpaceOnUse"><stop offset="0" stop-color="#fff"/><stop offset="1" stop-color="#d2d3d3"/></linearGradient><linearGradient id="linear-gradient-3" x1="23.02" y1="28.37" x2="34.33" y2="47.97" gradientUnits="userSpaceOnUse"><stop offset="0" stop-color="#bebfbf"/><stop offset="0.99" stop-color="#8f8e8e"/></linearGradient><linearGradient id="linear-gradient-4" x1="13.83" y1="19.33" x2="9.55" y2="26.74" gradientUnits="userSpaceOnUse"><stop offset="0" stop-color="#bebfbf"/><stop offset="1" stop-color="#bbbcbc"/></linearGradient><linearGradient id="linear-gradient-5" x1="14.19" y1="28.2" x2="10.57" y2="34.48" gradientUnits="userSpaceOnUse"><stop offset="0" stop-color="#bebfbf"/><stop offset="1" stop-color="#9d9e9e"/></linearGradient><linearGradient id="linear-gradient-6" x1="20.38" y1="17.7" x2="23.76" y2="23.56" xlink:href="#linear-gradient-2"/><linearGradient id="linear-gradient-7" x1="41.35" y1="32.41" x2="46.89" y2="42" xlink:href="#linear-gradient-2"/><linearGradient id="linear-gradient-8" x1="29.59" y1="22.46" x2="37.01" y2="35.31" gradientUnits="userSpaceOnUse"><stop offset="0" stop-color="#fff"/><stop offset="1" stop-color="#f1f0f0"/></linearGradient><linearGradient id="linear-gradient-9" x1="25.34" y1="34.85" x2="29.25" y2="41.62" xlink:href="#linear-gradient-2"/><linearGradient id="linear-gradient-10" x1="20.84" y1="36.76" x2="25.36" y2="44.58" gradientUnits="userSpaceOnUse"><stop offset="0" stop-color="#8a8a8a"/><stop offset="1" stop-color="#969696"/></linearGradient><linearGradient id="linear-gradient-11" x1="16.71" y1="51.79" x2="23.59" y2="44.91" gradientUnits="userSpaceOnUse"><stop offset="0" stop-color="#eff0f0"/><stop offset="1" stop-color="#9d9e9e"/></linearGradient><linearGradient id="linear-gradient-12" x1="10.49" y1="45.01" x2="19.39" y2="36.11" xlink:href="#linear-gradient-11"/><linearGradient id="linear-gradient-13" x1="17.27" y1="34" x2="22.11" y2="42.39" xlink:href="#linear-gradient-8"/><linearGradient id="linear-gradient-14" x1="24.01" y1="41.19" x2="29.21" y2="50.2" gradientUnits="userSpaceOnUse"><stop offset="0" stop-color="#fff"/><stop offset="1" stop-color="#a2a3a3"/></linearGradient><linearGradient id="linear-gradient-15" x1="36.8" y1="49.64" x2="14.78" y2="11.5" gradientUnits="userSpaceOnUse"><stop offset="0" stop-color="#161616"/><stop offset="1" stop-color="#474747"/></linearGradient><linearGradient id="linear-gradient-16" x1="41.2" y1="28.57" x2="62.6" y2="61.8" gradientUnits="userSpaceOnUse"><stop offset="0" stop-color="#fff"/><stop offset="1" stop-color="#bfbfbf"/></linearGradient></defs><title>CATIA _ (E04) HLE - HVAC Systems Design</title><polygon class="cls-1" points="17.5 10.5 27.5 12.5 27.5 21.5 17.5 19.5 17.5 10.5"/><polygon class="cls-2" points="17.5 10.5 7.5 16.5 7.5 25.5 17.5 19.5 17.5 10.5"/><polygon class="cls-3" points="39.5 35.5 39.5 47.5 16.5 38.5 16.5 28.5 39.5 35.5"/><polygon class="cls-4" points="7.5 16.5 16.5 19.5 16.5 28.5 7.5 26.5 7.5 16.5"/><path class="cls-5" d="M7.5,25.5l9.2,3-.2,10s-5-2-7-5S7.5,25.5,7.5,25.5Z"/><polygon class="cls-6" points="27.5 12.5 16.5 19.5 16.5 28.5 27.5 21.5 27.5 12.5"/><polygon class="cls-7" points="48.5 26.5 39.5 35.5 39.5 47.5 48.5 37.5 48.5 26.5"/><polygon class="cls-8" points="27.5 21.5 48.5 26.5 39.5 35.5 16.5 28.5 27.5 21.5"/><path class="cls-9" d="M21.5,36.5l4-3a5.3,5.3,0,0,1,6,6l-4,4Z"/><polygon class="cls-10" points="20.5 35.5 20.5 43.5 25.5 45.5 25.5 37.5 20.5 35.5"/><polygon class="cls-11" points="10.5 47.5 25.5 53.5 25.5 45.5 20.5 43.5 10.5 47.5"/><polygon class="cls-12" points="10.5 36.5 10.5 47.5 20.5 43.5 20.5 35.5 10.5 36.5"/><polygon class="cls-13" points="10.5 36.5 20.5 35.5 27.5 37.5 25.5 41.5 10.5 36.5"/><polygon class="cls-14" points="25.5 53.5 25.5 41.5 27.5 37.5 27.5 46.5 25.5 53.5"/><path class="cls-15" d="M17.5,10.5l-10,6v9a19.93,19.93,0,0,0,2,8,5.85,5.85,0,0,0,3,2.7l-2,.3v11l15,6,2-7v-3l.69-.71L39.5,47.5l9-11v-10l-21-5v-9Z"/><polygon class="cls-16" points="42.5 46.47 56.5 53.57 56.5 36.47 42.5 29.47 42.5 46.47"/><polygon class="cls-17" points="51 39.02 49 39.02 49 42.02 48 42.02 48 41.02 45 41.02 45 44.02 48 44.02 48 43.02 49 43.02 49 46.02 51 46.02 51 47.02 54 47.02 54 44.02 51 44.02 51 45.02 50 45.02 50 40.02 51 40.02 51 41.02 54 41.02 54 38.02 51 38.02 51 39.02"/></svg>