<svg id="CATIA___C07_ICM_-_ICEM_Shape_Design" data-name="CATIA _ (C07) ICM - ICEM Shape Design" xmlns="http://www.w3.org/2000/svg" xmlns:xlink="http://www.w3.org/1999/xlink" viewBox="0 0 64 64"><defs><style>.cls-1{fill:none;}.cls-2{stroke:#00415f;stroke-linejoin:round;fill:url(#linear-gradient);}.cls-3{opacity:0.6;}.cls-4{clip-path:url(#clip-path);}.cls-5{opacity:0.8;fill:url(#radial-gradient);}.cls-6{fill:#fff;}.cls-7{fill:#2d2d2d;}.cls-8{fill:#00415f;fill-rule:evenodd;}</style><linearGradient id="linear-gradient" x1="7.5" y1="32.14" x2="55.5" y2="32.14" gradientUnits="userSpaceOnUse"><stop offset="0" stop-color="#93d2f0"/><stop offset="0.5" stop-color="#5a9cb5"/><stop offset="0.9" stop-color="#195a72"/></linearGradient><clipPath id="clip-path"><path class="cls-1" d="M32.83,16A12.11,12.11,0,0,0,43,21c4.35,0,9-1,12-5-1.67,9.59-4.36,11.3-8,14s-8.06,6.59-12.91,18.47C30,39.81,19.48,32.8,10.55,32.8A16.1,16.1,0,0,0,7.83,33c5.44-7.83,10.38-9,14.74-10,3.95-.91,7.37-1.7,10.26-7.09"/></clipPath><radialGradient id="radial-gradient" cx="134.63" cy="-106.47" r="17.28" gradientTransform="matrix(1.33, -0.25, 0.11, 0.76, -112.55, 129.9)" gradientUnits="userSpaceOnUse"><stop offset="0.35" stop-color="#bff0ff"/><stop offset="1" stop-color="#88cbe4" stop-opacity="0"/></radialGradient></defs><title>CATIA _ (C07) ICM - ICEM Shape Design</title><path class="cls-2" d="M32.82,15.56C26.7,27.27,18,17.7,7.5,33.13,17.11,31.22,29.65,39,34.1,48.71c9.81-24.32,18.07-13.22,21.4-33.15C47.67,23,36.22,21,32.82,15.56Z"/><g class="cls-3"><g class="cls-4"><path class="cls-5" d="M78.33,11.42c1,7.27-8.41,15.06-21.14,17.41S33.29,27.21,32.24,20,40.65,4.89,53.38,2.54,77.28,4.16,78.33,11.42Z"/></g></g><rect class="cls-6" x="32.5" y="47.5" width="3" height="3"/><path class="cls-7" d="M35,48v2H33V48h2m1-1H32v4h4V47Z"/><rect class="cls-6" x="7.5" y="31.5" width="3" height="3"/><path class="cls-7" d="M10,32v2H8V32h2m1-1H7v4h4V31Z"/><rect class="cls-6" x="20.5" y="21.5" width="3" height="3"/><path class="cls-7" d="M23,22v2H21V22h2m1-1H20v4h4V21Z"/><rect class="cls-6" x="31.5" y="13.5" width="3" height="3"/><path class="cls-7" d="M34,14v2H32V14h2m1-1H31v4h4V13Z"/><rect class="cls-6" x="53.5" y="14.5" width="3" height="3"/><path class="cls-7" d="M56,15v2H54V15h2m1-1H53v4h4V14Z"/><rect class="cls-6" x="43.5" y="31.5" width="3" height="3"/><path class="cls-7" d="M46,32v2H44V32h2m1-1H43v4h4V31Z"/><path class="cls-8" d="M47.67,43.89a46,46,0,0,0-5.8,7.33c-.46.69-.92,1.39-1.39,2.07s-.86,1.16-1.64.75-.53-1.2-.23-1.84A48,48,0,0,1,42,46.48a38.59,38.59,0,0,1,7.71-9,14.22,14.22,0,0,1,1.56-1.11,1.1,1.1,0,0,1,1.42.1c.43.43.26.89,0,1.32a41.34,41.34,0,0,0-3.72,8.42,1.5,1.5,0,0,0-.08,1.25c.85-.94,1.64-1.83,2.46-2.71s1.94-2,2.92-3c.37-.37.8-.74,1.35-.38s.32.9.08,1.36a36.31,36.31,0,0,0-2,5.11,6.94,6.94,0,0,1-.34.9.6.6,0,0,1-.67.42c-.36-.06-.41-.37-.43-.66a7.07,7.07,0,0,1,.31-2c.16-.73.31-1.47.52-2.47a37.84,37.84,0,0,0-3.61,3.76,6.62,6.62,0,0,1-.9.86c-.76.55-1.47.19-1.5-.76a16.69,16.69,0,0,1,.48-3.22C47.62,44.38,47.64,44.13,47.67,43.89Z"/></svg>