<svg id="V_1X_copy" data-name="V 1X   *** copy" xmlns="http://www.w3.org/2000/svg" xmlns:xlink="http://www.w3.org/1999/xlink" viewBox="0 0 64 64"><defs><style>.cls-1{fill:#285977;}.cls-2,.cls-3,.cls-4{stroke:#285977;stroke-miterlimit:10;fill-rule:evenodd;}.cls-2,.cls-3,.cls-4,.cls-5{stroke-width:0.71px;}.cls-2{fill:url(#Medium_BLUE_gradient_FRONT);}.cls-3{fill:url(#Medium_BLUE_gradient_FRONT-2);}.cls-4{fill:url(#Medium_BLUE_gradient_FRONT-3);}.cls-5,.cls-6{stroke:#323232;stroke-linecap:round;stroke-linejoin:round;}.cls-5{fill:url(#white_left);}.cls-6{fill:#e1e1e1;stroke-width:0.28px;}.cls-7{opacity:0.9;filter:url(#DS_GaussianBlur_2);}.cls-8{fill:#fff;}.cls-9{fill:#003755;}</style><linearGradient id="Medium_BLUE_gradient_FRONT" x1="38.46" y1="28.01" x2="47.91" y2="28.01" gradientUnits="userSpaceOnUse"><stop offset="0" stop-color="#8cd7f5"/><stop offset="1" stop-color="#376e8c"/></linearGradient><linearGradient id="Medium_BLUE_gradient_FRONT-2" x1="47.63" y1="37.5" x2="58.69" y2="37.5" xlink:href="#Medium_BLUE_gradient_FRONT"/><linearGradient id="Medium_BLUE_gradient_FRONT-3" x1="34.17" y1="17.6" x2="39.63" y2="17.6" xlink:href="#Medium_BLUE_gradient_FRONT"/><linearGradient id="white_left" x1="21.82" y1="13.69" x2="43.78" y2="51.72" gradientUnits="userSpaceOnUse"><stop offset="0" stop-color="#f5f5f5"/><stop offset="1" stop-color="#bebebe"/></linearGradient><filter id="DS_GaussianBlur_2" x="-50" y="-50" width="200" height="200" name="DS_GaussianBlur_2"><feGaussianBlur stdDeviation="1"/></filter></defs><title>ddd__A33AAe__R21XArtboard 1</title><g id="Aile_copy" data-name="Aile   *** copy"><path id="bbbbb" class="cls-1" d="M44.11,7.11A4.4,4.4,0,0,0,42.58,7a25.49,25.49,0,0,0-5.7,1.26c-2.89,1-22.7,8-26.2,9.37C4,20.39,5,23.29,5.15,24A1.67,1.67,0,0,0,6,25.18c.67.35,1.38.44,3-.16.05,0-1.38-.76-1.45-.79a.88.88,0,0,1-.63-.79c0-.3-.06-.72,1.25-1.79A29.54,29.54,0,0,1,13,19.06c1-.48.16-.1,1.2-.56.79-.31,4.36-1.67,5.37-2,6.91-2.42,16.34-5.24,16.34-5.24l.11.72,1.72-.44V12s4.58-2.69,5.32-3.33C43.52,8.38,44.76,7.52,44.11,7.11Z"/><g id="Layer_26_copy" data-name="Layer 26 copy"><polygon id="d3" class="cls-2" points="47.91 31.2 45.44 32.07 38.45 24.42 41.21 23.94 47.91 31.2"/><polygon id="d3-2" data-name="d3" class="cls-3" points="58.69 41.67 56.61 42.45 47.63 33.42 50.03 32.55 58.69 41.67"/><path class="cls-4" d="M34.17,13.8l1.77,8.69,3.69-.85L38.14,12.7Z"/></g><path class="cls-5" d="M32.92,37.82c0,.06-.14-.06,0,0-.32-.16,17.6,9.12,18.15,9.43a.35.35,0,0,0,.48,0c1-.73,2-1.36,3-2,1.39-.91,2.78-1.83,4.1-2.81.08-.06.29-.08.15-.26s-.25-.09-.38,0l-1.69.74a.29.29,0,0,1-.4-.06q-2.8-2.85-5.63-5.68c-1.23-1.25-2.37-2.38-3.61-3.62-.08-.09-.2-.26,0-.33.67-.22,1-.33,1.26-.4-.36-.34-.65-.57-1-.88a.28.28,0,0,0-.36-.07c-.37.13-2.64.92-3.62,1.2a16.62,16.62,0,0,0-7.32,4s1.4-2.64,8-4.61l.88-.24-6.8-7.46s-2.65.71-6.67,2.18a19.29,19.29,0,0,0-5.92,2.75c1.17-1.6,3.54-2.21,5.63-3a54.15,54.15,0,0,1,6.81-2.22l-.68-1.95s-1,.35-1.31.42a.4.4,0,0,1-.49-.35c0-.12-1.55-7.56-1.75-8.42,0-.14-.15-.53.26-.66l2.1-.63-.29-1.58s-9.69,3-11.55,3.64c-2.17.72-4.34,1.46-6.48,2.26a60.39,60.39,0,0,0-8,3.46A9.84,9.84,0,0,0,7.48,22.3a1.66,1.66,0,0,0-.54,1,.82.82,0,0,0,.41.77l14.16,7.43h0c-.29-.21,10.89,6.05,11.41,6.3h0"/><polygon class="cls-6" points="37.54 38.56 35.77 39.33 50.23 46.8 50.87 46.23 37.54 38.56"/><polygon class="cls-6" points="25.12 31.42 23.14 32.38 33.12 37.94 34.95 37.11 25.12 31.42"/><polygon class="cls-6" points="12.79 24.38 9.76 25.37 21.37 31.44 23.2 30.34 12.79 24.38"/></g><g id="Layer_30_copy" data-name="Layer 30 copy"><g class="cls-7"><path class="cls-8" d="M24.3,50.24l-.54-.65s.25-5.35.79-5.18l-6,6h-1l2-6c-4.5,3.37-8.66,11-8.66,11H8.72a43,43,0,0,1,7.83-12c3.24-3.46,6-6,6-6h2a27.15,27.15,0,0,0-5,11l5.5-5.88,1.5,0Z"/></g><path class="cls-9" d="M23.75,49.83l-.54-.65s.25-5.35.79-5.18l-6,6H17l2-6c-4.5,3.38-8.67,11-8.67,11H8.17A43,43,0,0,1,16,43c3.23-3.46,6-6,6-6h2a27.15,27.15,0,0,0-5,11l5.5-5.87,1.5,0Z"/></g></svg>