<svg id="Layer_5" data-name="Layer 5" xmlns="http://www.w3.org/2000/svg" xmlns:xlink="http://www.w3.org/1999/xlink" viewBox="0 0 64 64"><defs><linearGradient id="linear-gradient" x1="53.32" y1="49.66" x2="37.12" y2="21.61" gradientUnits="userSpaceOnUse"><stop offset="0" stop-color="#386f8d"/><stop offset="1" stop-color="#8dd7f4"/></linearGradient><linearGradient id="linear-gradient-2" x1="38.56" y1="35.04" x2="31.55" y2="22.9" gradientUnits="userSpaceOnUse"><stop offset="0" stop-color="#2a5b79"/><stop offset="1" stop-color="#84bedc"/></linearGradient><linearGradient id="linear-gradient-5" x1="26.16" y1="36.49" x2="19.4" y2="24.77" gradientUnits="userSpaceOnUse"><stop offset="0" stop-color="#74c4e2"/><stop offset="1" stop-color="#a4def6"/></linearGradient><linearGradient id="linear-gradient-6" x1="26.86" y1="9.39" x2="39.56" y2="31.38" gradientUnits="userSpaceOnUse"><stop offset="0" stop-color="#fff"/><stop offset="1" stop-color="#f1f0f0"/></linearGradient><linearGradient id="linear-gradient-8" x1="18.37" y1="28.03" x2="11.59" y2="16.3" xlink:href="#linear-gradient-6"/><linearGradient id="linear-gradient-10" x1="37.16" y1="20.15" x2="54.32" y2="49.88" gradientUnits="userSpaceOnUse"><stop offset="0" stop-color="#fff"/><stop offset="1" stop-color="#d2d3d3"/></linearGradient></defs><title>CATINS_AP_AppIcon</title><g style="isolation:isolate"><polygon points="38.5 17.5 38.5 45.5 51.5 53 51.5 25 38.5 17.5" stroke="#053755" stroke-linecap="round" stroke-linejoin="round" fill="url(#linear-gradient)"/><polygon points="30.29 24.1 24.94 24.86 39.5 32.5 44.5 31.91 30.29 24.1" stroke="#053755" stroke-linecap="round" stroke-linejoin="round" fill="url(#linear-gradient-2)"/><polygon points="17.83 19.95 17.82 25.86 32.5 33.66 32.5 27.76 17.83 19.95" stroke="#053755" stroke-linecap="round" stroke-linejoin="round" fill="url(#linear-gradient-2)"/><polygon points="12.49 26.61 12.47 33.32 26.5 41.13 26.5 34.41 12.49 26.61" stroke="#053755" stroke-linecap="round" stroke-linejoin="round" fill="url(#linear-gradient)"/><polygon points="17.82 25.86 12.49 26.61 26.5 34.41 32.5 33.66 17.82 25.86" stroke="#053755" stroke-linecap="round" stroke-linejoin="round" fill="url(#linear-gradient-5)"/><polygon points="40 12.5 7.5 16.86 17.82 25.86 23.17 27.18 56.5 24.39 56.5 19.72 40 12.5" stroke="#323232" stroke-linecap="round" stroke-linejoin="round" fill="url(#linear-gradient-6)"/><polygon points="7.5 18.86 7.5 21.45 21.5 29.26 21.5 26.52 7.5 18.86" stroke="#053755" stroke-linecap="round" stroke-linejoin="round" fill="url(#linear-gradient-2)"/><polygon points="7.5 16.86 7.5 19 21.5 26.52 21.5 23.67 7.5 16.86" stroke="#787878" stroke-linecap="round" stroke-linejoin="round" fill="url(#linear-gradient-8)"/><polygon points="56.5 20.43 56.5 52.43 51.5 53 51.5 25 39.5 26.76 39.5 32.5 44.5 31.91 44.5 38.63 26.5 41.13 26.5 34.41 32.5 33.66 32.5 27.76 21.5 29.26 21.5 24.52 56.5 20.43" stroke="#053755" stroke-linecap="round" stroke-linejoin="round" fill="url(#linear-gradient)"/><polygon points="53.5 22.7 37.5 25.02 37.5 34.96 42.5 34.21 42.5 36.89 28.5 38.83 28.5 36.15 34.5 35.4 34.5 25.46 21.5 26.96 21.5 23.67 56.5 19.72 56.5 52.43 53.5 52.7 53.5 22.7" stroke="#003755" stroke-linecap="round" stroke-linejoin="round" fill="url(#linear-gradient-10)"/></g></svg>