<svg id="CATIA___ICEM_Design_Experience.ai" data-name="CATIA _ ICEM Design Experience.ai" xmlns="http://www.w3.org/2000/svg" xmlns:xlink="http://www.w3.org/1999/xlink" viewBox="0 0 64 64"><defs><style>.Dark-Grey-gradient-fill,.cls-1,.cls-18,.cls-19,.cls-2,.cls-20,.cls-4,.cls-5,.cls-6{fill-rule:evenodd;}.cls-1{fill:url(#linear-gradient);}.cls-2{fill:url(#linear-gradient-2);}.cls-3{stroke:#053755;stroke-linecap:round;stroke-linejoin:round;fill:url(#linear-gradient-3);}.cls-4{opacity:0.75;fill:url(#radial-gradient);}.cls-5{fill:url(#radial-gradient-2);}.cls-19,.cls-6{opacity:0.5;}.cls-6{fill:url(#radial-gradient-3);}.cls-7{fill:url(#radial-gradient-4);}.cls-8{fill:url(#radial-gradient-5);}.cls-9{fill:url(#radial-gradient-6);}.cls-10{fill:url(#radial-gradient-7);}.cls-11{fill:url(#radial-gradient-8);}.cls-12{fill:#fff;}.cls-13{stroke:#000;stroke-miterlimit:10;stroke-opacity:0.7;stroke-width:0.6px;fill:url(#linear-gradient-4);}.cls-14{fill:url(#linear-gradient-5);}.cls-15{fill:url(#linear-gradient-6);}.cls-16{opacity:0.52;}.cls-17{fill:url(#linear-gradient-7);}.Dark-Grey-gradient-fill{fill:url(#linear-gradient-8);}.cls-18,.cls-20{opacity:0.85;}.cls-18{fill:url(#linear-gradient-20);}.cls-20{fill:url(#linear-gradient-21);}.cls-21{fill:url(#linear-gradient-22);}.cls-22{fill:url(#linear-gradient-23);}.cls-23{fill:#4d4d4b;}</style><linearGradient id="linear-gradient" x1="26.58" y1="46.36" x2="22.21" y2="38.79" gradientTransform="matrix(1, -0.16, 0.06, 1, -2.2, 3.23)" gradientUnits="userSpaceOnUse"><stop offset="0" stop-color="#161616"/><stop offset="1" stop-color="#515151"/></linearGradient><linearGradient id="linear-gradient-2" x1="50.94" y1="40.92" x2="47.86" y2="35.57" gradientTransform="matrix(1.02, -0.69, 0.46, 1.05, -16.9, 27.56)" xlink:href="#linear-gradient"/><linearGradient id="linear-gradient-3" x1="39.12" y1="46.19" x2="23.29" y2="18.77" gradientUnits="userSpaceOnUse"><stop offset="0" stop-color="#204982"/><stop offset="1" stop-color="#638bb8"/></linearGradient><radialGradient id="radial-gradient" cx="20.24" cy="27.17" r="12.3" gradientTransform="translate(-5.61 8.87) rotate(-15) scale(1 0.9)" gradientUnits="userSpaceOnUse"><stop offset="0" stop-color="#b5dbeb" stop-opacity="0.7"/><stop offset="0.17" stop-color="#b3d9e9" stop-opacity="0.68"/><stop offset="0.33" stop-color="#abd1e4" stop-opacity="0.64"/><stop offset="0.48" stop-color="#9ec5dc" stop-opacity="0.56"/><stop offset="0.62" stop-color="#8cb3d0" stop-opacity="0.45"/><stop offset="0.77" stop-color="#759cc1" stop-opacity="0.31"/><stop offset="0.9" stop-color="#5a81ae" stop-opacity="0.14"/><stop offset="1" stop-color="#436b9f" stop-opacity="0"/></radialGradient><radialGradient id="radial-gradient-2" cx="29.99" cy="20.1" r="4.42" gradientTransform="matrix(-0.22, -0.98, -1.6, 0.36, 73.16, 42.19)" xlink:href="#radial-gradient"/><radialGradient id="radial-gradient-3" cx="42.99" cy="29.81" r="14.9" gradientTransform="translate(1.02 39.52) rotate(-16.73) scale(1 0.09)" xlink:href="#radial-gradient"/><radialGradient id="radial-gradient-4" cx="63.69" cy="31.25" r="27.61" gradientTransform="matrix(-0.04, -0.55, 0.08, -0.07, 55.33, 68.92)" gradientUnits="userSpaceOnUse"><stop offset="0" stop-color="#173e7f"/><stop offset="0.16" stop-color="#173e7f" stop-opacity="0.96"/><stop offset="0.34" stop-color="#153c7e" stop-opacity="0.85"/><stop offset="0.54" stop-color="#133a7c" stop-opacity="0.67"/><stop offset="0.74" stop-color="#11377a" stop-opacity="0.41"/><stop offset="0.95" stop-color="#0d3378" stop-opacity="0.09"/><stop offset="1" stop-color="#0c3277" stop-opacity="0"/></radialGradient><radialGradient id="radial-gradient-5" cx="-156.59" cy="40.9" r="23.94" gradientTransform="matrix(-0.03, -0.53, 0.07, -0.07, 11.85, -42.15)" xlink:href="#radial-gradient-4"/><radialGradient id="radial-gradient-6" cx="26.69" cy="41.4" r="8.39" gradientTransform="translate(-84.88 98.57) rotate(-104.84) scale(1 2.96)" xlink:href="#radial-gradient-4"/><radialGradient id="radial-gradient-7" cx="10.61" cy="29.89" r="9.36" gradientTransform="matrix(0.77, -0.64, 0.17, 0.21, -2.7, 30.51)" gradientUnits="userSpaceOnUse"><stop offset="0" stop-color="#173e7f"/><stop offset="0.14" stop-color="#163d7f" stop-opacity="0.95"/><stop offset="0.34" stop-color="#153c7d" stop-opacity="0.8"/><stop offset="0.58" stop-color="#12397b" stop-opacity="0.56"/><stop offset="0.84" stop-color="#0f3579" stop-opacity="0.23"/><stop offset="1" stop-color="#0c3277" stop-opacity="0"/></radialGradient><radialGradient id="radial-gradient-8" cx="11.52" cy="41.14" r="4.6" gradientTransform="translate(-131.52 -112.08) rotate(-39.88) scale(1 5.09)" xlink:href="#radial-gradient-4"/><linearGradient id="linear-gradient-4" x1="26.56" y1="46.28" x2="22.5" y2="39.25" gradientTransform="matrix(0.94, 0.39, -0.47, 0.88, 22.29, -5.35)" xlink:href="#linear-gradient"/><linearGradient id="linear-gradient-5" x1="23.04" y1="40.48" x2="25.8" y2="45.25" gradientTransform="matrix(0.99, 0.2, -0.29, 0.96, 13.81, -3.77)" gradientUnits="userSpaceOnUse"><stop offset="0" stop-color="#fff"/><stop offset="1" stop-color="#d2d3d3"/></linearGradient><linearGradient id="linear-gradient-6" x1="50.8" y1="40.67" x2="48" y2="35.82" gradientTransform="matrix(1.14, 0.45, -0.6, 0.98, 17.85, -25.84)" xlink:href="#linear-gradient"/><linearGradient id="linear-gradient-7" x1="48.49" y1="36.75" x2="50.52" y2="40.27" gradientTransform="matrix(1.19, 0.31, -0.48, 1.04, 10.88, -21.31)" xlink:href="#linear-gradient-5"/><linearGradient id="linear-gradient-8" x1="22.5" y1="38.2" x2="21.48" y2="36.44" gradientTransform="matrix(0.22, -0.61, 0.94, 0.33, -13.64, 41.23)" xlink:href="#linear-gradient"/><linearGradient id="linear-gradient-20" x1="40.7" y1="24.82" x2="42.3" y2="29.2" gradientUnits="userSpaceOnUse"><stop offset="0" stop-color="#161616"/><stop offset="0.42" stop-color="#181818"/><stop offset="0.57" stop-color="#1f1f1f"/><stop offset="0.68" stop-color="#2a2a2a"/><stop offset="0.77" stop-color="#3b3b3b"/><stop offset="0.78" stop-color="#3d3d3d"/><stop offset="0.89" stop-color="#242424"/></linearGradient><linearGradient id="linear-gradient-21" x1="32.03" y1="30.84" x2="27.74" y2="23.41" gradientUnits="userSpaceOnUse"><stop offset="0" stop-color="#161616"/><stop offset="0.19" stop-color="#1b1b1b"/><stop offset="0.39" stop-color="#282828"/><stop offset="0.46" stop-color="#2e2e2e"/><stop offset="0.54" stop-color="#3b3b3b"/><stop offset="0.67" stop-color="#575757"/><stop offset="0.79" stop-color="#545454"/><stop offset="0.86" stop-color="#6d6d6d"/><stop offset="0.94" stop-color="#969696"/></linearGradient><linearGradient id="linear-gradient-22" x1="47.02" y1="44.11" x2="44.8" y2="40.27" gradientTransform="matrix(1.01, 0.03, -0.13, 0.99, 5.32, -1.24)" gradientUnits="userSpaceOnUse"><stop offset="0" stop-color="#7a7a7a"/><stop offset="1" stop-color="#4d4d4b"/></linearGradient><linearGradient id="linear-gradient-23" x1="35.56" y1="27.23" x2="50.43" y2="31.21" gradientUnits="userSpaceOnUse"><stop offset="0.68" stop-color="#fff"/><stop offset="0.72" stop-color="#f1f1f1"/><stop offset="0.8" stop-color="#cdcdcd"/><stop offset="0.84" stop-color="#b8b8b8"/></linearGradient></defs><title>CATIA _ ICEM Design Experience.ai</title><path class="cls-1" d="M24.56,46.2a3.94,3.94,0,0,1-4.1-3.67,4.94,4.94,0,0,1,4.23-5,6.27,6.27,0,0,1,.74,0,3.93,3.93,0,0,1,4.1,3.66,4.91,4.91,0,0,1-4.23,5A4.71,4.71,0,0,1,24.56,46.2Z"/><path d="M25.43,37.83a3.65,3.65,0,0,1,3.8,3.38,4.6,4.6,0,0,1-4,4.64,5.62,5.62,0,0,1-.7,0,3.67,3.67,0,0,1-3.8-3.39,4.62,4.62,0,0,1,4-4.63,5.6,5.6,0,0,1,.69-.05m0-.6h0a5.12,5.12,0,0,0-.78.06,5.22,5.22,0,0,0-4.49,5.26,4.29,4.29,0,0,0,4.4,4,5.27,5.27,0,0,0,5.27-5.33,4.27,4.27,0,0,0-4.4-3.94Z"/><path class="cls-2" d="M50.61,37.7a2.92,2.92,0,0,1-1.69-.53c-1.47-1.07-1.63-3.41-.35-5.21a4.24,4.24,0,0,1,3.32-1.87,2.86,2.86,0,0,1,1.69.54c1.47,1.07,1.63,3.4.35,5.2A4.24,4.24,0,0,1,50.61,37.7Z"/><path d="M51.89,30.39a2.56,2.56,0,0,1,1.51.48c1.35,1,1.47,3.12.28,4.79a3.88,3.88,0,0,1-3.07,1.74,2.49,2.49,0,0,1-1.51-.48c-1.35-1-1.47-3.11-.28-4.79a3.91,3.91,0,0,1,3.07-1.74m0-.6h0a4.47,4.47,0,0,0-3.56,2c-1.38,1.93-1.19,4.45.42,5.62a3.1,3.1,0,0,0,1.86.59,4.48,4.48,0,0,0,3.56-2c1.38-1.94,1.19-4.46-.42-5.63a3.17,3.17,0,0,0-1.86-.59Z"/><path class="cls-3" d="M33.34,21.36C24.45,22,24.67,27.54,20.5,28c-9,1-11.62,2.87-12.62,6-1.72,5.35.8,9.65,6.29,11,1.85.45,16.37-2.38,23.33-4.47,10-3,11-4,18-8,1.23-.7.51-5.8,0-6C50.5,24.5,44.5,20.5,33.34,21.36Z"/><path class="cls-4" d="M23,27.28s.26.41-1.4.89c-.95.28-2.51.45-5.17.9-5.91,1-7.77,4.19-5.24,5.49s1.47,2.7,5.38.92c1.14-.52,7.81-2,7.81-2A11.21,11.21,0,0,1,23,35.26c-1.31,1.2-3.4,3-3.4,3s5-3.28,7.55-4.65a12,12,0,0,0,3.29-2.24Z"/><path class="cls-5" d="M39.77,21.94l5.82,1.89a12.41,12.41,0,0,0-5.65-.1c-2.77.73-3.24,1.42-3.24,1.42s-2.8-1.3-4.28-1.8a17,17,0,0,0-3.09-.68,19.18,19.18,0,0,1,4.86-.85A42.2,42.2,0,0,1,39.77,21.94Z"/><path class="cls-6" d="M52.14,25.9c-1.24-.6-1.7-1-2.1-.69S48.79,27,48.12,27.14a75.75,75.75,0,0,0-8.19,2.72c-2.49,1-9.74,3.41-9.74,3.41s13.6,0,19.34-5.05c1.75-1.52,4.48-.09,4.48-.09Z"/><path class="cls-7" d="M54.29,32.79c2.74-.86,1.31-6,.89-5.87-.18.07-.61.84-1.18,1.3-.82.66-2.25-1.17-4.88,2C49,30.31,48,32,48.38,32c1.22,0,5.32-2,5-1.67-.53.61-1.47,1-1.71,1.55-.15.32-.41,1.54,0,2.05C52,34.23,53.74,33,54.29,32.79Z"/><path class="cls-8" d="M18.44,38.3c2.42-.83,2.52-2.64,2.11-3.09a3.74,3.74,0,0,0-2.41.29c-.72.64-1.14.94-4,1.94-.46.16-.2.81.14.81A35,35,0,0,0,18.44,38.3Z"/><path class="cls-9" d="M27.77,42.43C42.85,40.2,55.39,32,55.39,32s2.6-5.57-6.91-1a31.5,31.5,0,0,1-9.83,2.87c-4.38.46-14.22,2.61-16.43,3.87s-4.28,1.89-5.84,2.82c-1,.58-2.64,2.73.24,3.64C18.1,44.64,24.5,42.92,27.77,42.43Z"/><path class="cls-10" d="M16.86,28.46a31.61,31.61,0,0,0-5.17,3c-1.62,1.34-1.67,2.38-1.53,2.9a3.73,3.73,0,0,0,1.47,1.85L10.07,37,8.2,34.65a5.29,5.29,0,0,1,3.05-4.5A18.8,18.8,0,0,1,16.86,28.46Z"/><path class="cls-11" d="M17.18,28.3a52.13,52.13,0,0,0-5.93,3.1c-1.06.73.87,2.08,1.44,2.86,1.15,1.58,5.08,1.44,5.08,1.44l-5,4.34a2,2,0,0,0-.83,2c.38,1.39,3.38,2.43,3.38,2.43s-7.59,0-7.52-7.4c0-2.89.81-5.5,3.35-6.89A19.06,19.06,0,0,1,17.18,28.3Z"/><path class="cls-12" d="M14,37.5a21,21,0,0,1,2.9-.59c1.11-.31,1.13-.9,1.53-1a13.13,13.13,0,0,1,1.79-.22s-.43,2.69-2.34,2.65l-4.37-.07S13.84,37.6,14,37.5Z"/><path class="cls-12" d="M8.65,34.72c.32-.08,3.28,3.17,3.39,3.53s-.48.35-1.25.92-1,1.1-1.3,1.1-1-1.17-1-1.17a6.31,6.31,0,0,1-.29-2C8.19,36.21,8.33,34.79,8.65,34.72Z"/><path class="cls-12" d="M12,43.43l.67-.45,2.22.62a5,5,0,0,1-1.78.13C12.47,43.58,12,43.43,12,43.43Z"/><path class="cls-12" d="M8.8,33.48l-.07-1,.64-.74a3.49,3.49,0,0,1-.06.61A11.45,11.45,0,0,1,8.8,33.48Z"/><ellipse class="cls-13" cx="25.14" cy="42.03" rx="4.37" ry="3.9" transform="translate(-18.35 19.5) rotate(-31.73)"/><ellipse class="cls-14" cx="25.5" cy="42.16" rx="3.7" ry="3.23" transform="translate(-16.84 16.95) rotate(-28.07)"/><ellipse class="cls-15" cx="51.25" cy="33.9" rx="3.71" ry="3.01" transform="translate(-5.72 56.91) rotate(-55.48)"/><g class="cls-16"><path d="M51.89,30.39a2.56,2.56,0,0,1,1.51.48c1.35,1,1.47,3.12.28,4.79a3.88,3.88,0,0,1-3.07,1.74,2.49,2.49,0,0,1-1.51-.48c-1.35-1-1.47-3.11-.28-4.79a3.91,3.91,0,0,1,3.07-1.74m0-.6h0a4.47,4.47,0,0,0-3.56,2c-1.38,1.93-1.19,4.45.42,5.62a3.1,3.1,0,0,0,1.86.59,4.48,4.48,0,0,0,3.56-2c1.38-1.94,1.19-4.46-.42-5.63a3.17,3.17,0,0,0-1.86-.59Z"/></g><ellipse class="cls-17" cx="51.4" cy="34.05" rx="3.27" ry="2.67" transform="translate(-8.2 49.85) rotate(-48.37)"/><polygon class="Dark-Grey-gradient-fill" points="26.89 39.44 26.25 41.31 25.68 41.11 26.33 39.23 26.89 39.44"/><polygon class="Dark-Grey-gradient-fill" points="23.31 40.14 24.81 41.41 24.42 41.88 22.93 40.61 23.31 40.14"/><polygon class="Dark-Grey-gradient-fill" points="26.86 43 27.77 44.24 27.29 44.62 26.38 43.37 26.86 43"/><polygon class="Dark-Grey-gradient-fill" points="25.52 43.72 25.11 45.33 24.53 45.17 24.94 43.56 25.52 43.72"/><polygon class="Dark-Grey-gradient-fill" points="22.26 43.08 24.12 42.53 24.28 43.13 22.42 43.67 22.26 43.08"/><polygon class="Dark-Grey-gradient-fill" points="26.8 41.58 28.68 41.08 28.83 41.67 26.96 42.18 26.8 41.58"/><polygon class="Dark-Grey-gradient-fill" points="52.54 31.7 52.06 33.31 51.63 33.14 52.12 31.53 52.54 31.7"/><polygon class="Dark-Grey-gradient-fill" points="49.86 32.3 50.98 33.39 50.69 33.8 49.57 32.71 49.86 32.3"/><polygon class="Dark-Grey-gradient-fill" points="52.52 34.76 53.2 35.82 52.84 36.13 52.16 35.07 52.52 34.76"/><polygon class="Dark-Grey-gradient-fill" points="51.51 35.36 51.21 36.74 50.77 36.61 51.08 35.23 51.51 35.36"/><polygon class="Dark-Grey-gradient-fill" points="49.07 34.82 50.46 34.35 50.59 34.86 49.19 35.33 49.07 34.82"/><polygon class="Dark-Grey-gradient-fill" points="52.48 33.54 53.88 33.11 54 33.62 52.59 34.05 52.48 33.54"/><path class="cls-12" d="M33.71,37.94c-.19-.52,2.69-1.41,2.84-.88S33.89,38.46,33.71,37.94Z"/><path class="cls-18" d="M34.8,31.5c.32.29,1.58-.08,6.36-2.11A54.16,54.16,0,0,1,48.3,27l1-1.59a13.39,13.39,0,0,0-7.17-1C36.54,25.55,34.43,31.16,34.8,31.5Z"/><path class="cls-19" d="M21.61,27.28A21.58,21.58,0,0,0,23.43,26c.85-.73,1.87-1.94,2.4-2.33a6.78,6.78,0,0,1,3.1-.91l-2.06,1.33c-.74.49-3.52,3-4.74,3.89a.52.52,0,0,1-.44.13S21.09,27.7,21.61,27.28Z"/><path class="cls-20" d="M37.21,25.41a37.64,37.64,0,0,0-4.15,3.64c-1.82,1.92-2.62,2.7-2.62,2.7a27,27,0,0,1-5.09-1.89A28.7,28.7,0,0,1,22.07,28a22.83,22.83,0,0,0,2-1.59A20.93,20.93,0,0,1,28.48,23c.52-.26,1-.56,3.41.23C33.44,23.74,37.21,25.41,37.21,25.41Z"/><ellipse class="cls-21" cx="45.91" cy="41.73" rx="4.14" ry="1.09" transform="translate(-5.11 6.43) rotate(-7.59)"/><path class="cls-22" d="M46.15,42.77c-.88-.05-.92-.47-.91-.56a.23.23,0,0,1,0-.14,2.34,2.34,0,0,1,.23-.59.93.93,0,0,0,.05-.1,1.38,1.38,0,0,1,.3-.47l.1-.09h-.1a.93.93,0,0,0-.14.22.88.88,0,0,1-.09.16,5.07,5.07,0,0,1-1.38,1.13,1,1,0,0,1-.53.16,1,1,0,0,1-.34-.06.41.41,0,0,1-.29-.29c-.14-.47.45-1.28.78-1.65s-.11-.88-.11-.88L40.59,36.1a1.56,1.56,0,0,1-.23-.34,2.24,2.24,0,0,0-.48-.63c-.28-.28-.08-.65.13-1,.08-.15.18-.31.26-.5a2.77,2.77,0,0,0,.2-.64,8.88,8.88,0,0,1,1-2.58,5.05,5.05,0,0,1,.66-1,1.15,1.15,0,0,0,.34-.64,1.9,1.9,0,0,1,.5-1.28c.17-.18.27-.3.05-1.2a8.54,8.54,0,0,1-.38-2.44l-.31,0H42a5.88,5.88,0,0,1-1-.11,6.54,6.54,0,0,0-1-.13h0c-.57,0-1.24.83-1.52,1.26a.83.83,0,0,1,0,.69.6.6,0,0,1-.56.27,2,2,0,0,1-.61-.12c-.48-.15-1-.37-1-1.06,0-.47.36-.71.71-.92a2.43,2.43,0,0,0,.44-.3A18.55,18.55,0,0,1,39.71,22a25.36,25.36,0,0,1,3.51-.87l.14.25v-.25a3.55,3.55,0,0,0,.56-.06,4.25,4.25,0,0,1-.42-2c0-.56,0-1.73,1-2.12a2.17,2.17,0,0,1,.71-.14c.75,0,1.29.53,1.5,1.46A2.88,2.88,0,0,1,46.41,20l-.11.25a5,5,0,0,0,0,.73h.36a5.53,5.53,0,0,1,.56,0c.67.06,2.2,2.63,2.41,3.83.11.6-1.28,1.65-2.46,2.42l.58-.1h0l.08,0c.28.1.4.63.33,1.57a2.32,2.32,0,0,1,0,.24,6.11,6.11,0,0,0-.06.9c0,1,0,1.63-.08,3a7.42,7.42,0,0,1-.32,1.73,2.62,2.62,0,0,0-.14.7,1.82,1.82,0,0,0,.09.49,4,4,0,0,1,.06,1.78,9.82,9.82,0,0,0-.15,1.14c.13,3.24-.1,3.65-.28,3.75a1.62,1.62,0,0,1-1,.35Zm-3.37-8.08a1.42,1.42,0,0,1,.75.36,5.64,5.64,0,0,1,1.15,2.09,3.14,3.14,0,0,0,.8,1.43,6,6,0,0,1,1,1.29.23.23,0,0,1,0,.14,1.12,1.12,0,0,1-.34.68l0,0h0a1.06,1.06,0,0,0,.19-.11.93.93,0,0,0,.25-.38c0-.33-.43-1-.91-1.47-.07,0-.08-.07-.09-.16h0a0,0,0,0,1,0,0h0l0-.29c0-.4-.11-1.08-.19-1.78a5,5,0,0,0-.11-.53,2.88,2.88,0,0,1-.08-.45,6,6,0,0,1,0-.66,2.17,2.17,0,0,0,0-.36,2.38,2.38,0,0,0-.16-.65,3.6,3.6,0,0,1-.18-.78,12.46,12.46,0,0,1,0-1.82c-.07.16-.15.37-.24.62A12.64,12.64,0,0,1,42.78,34.69Z"/><path class="cls-23" d="M45.23,17c.8,0,1.13.73,1.25,1.26a3.29,3.29,0,0,1-.41,1.87,6.3,6.3,0,0,0,0,1.08,5.35,5.35,0,0,1,.6,0,5.25,5.25,0,0,1,.54,0c.47,0,2,2.38,2.19,3.62.13.73-3.41,2.82-3.41,2.82l1.81-.29s.25.09.16,1.32c0,.24-.08.58-.08,1.16,0,.93,0,1.6-.08,3s-.47,1.88-.46,2.45a5.71,5.71,0,0,1,.15,2.22,10.67,10.67,0,0,0-.15,1.17s.14,3.46-.16,3.55a1.32,1.32,0,0,1-.92.32h-.1c-.69,0-.68-.3-.68-.3s.07-.35.23-.61a1.82,1.82,0,0,1,.32-.53c.15-.15.35-.17.52-.31a1.13,1.13,0,0,0,.33-.53c.09-.58-.79-1.49-1-1.68h0v0h0c0-.21-.11-1.13-.22-2.07-.05-.35-.18-.78-.19-1,0-.54.05-.73,0-1,0-.57-.29-.84-.34-1.43a17.12,17.12,0,0,1,.11-2.64.08.08,0,0,0-.05,0c-.08,0-.31.16-.76,1.4a14.76,14.76,0,0,1-2.19,3.13h0a1.55,1.55,0,0,1,1,.34c1,1,1.19,3,2,3.55A6,6,0,0,1,46.29,40a.86.86,0,0,1-.28.51c-.11.13-.21,0-.33.13a3.29,3.29,0,0,0-.25.42,4.72,4.72,0,0,1-1.3,1.06.94.94,0,0,1-.41.13,1,1,0,0,1-.28,0c-.34-.1.08-.94.62-1.53s-.1-1.19-.1-1.19l-3.18-3.55c-.27-.29-.13-.37-.72-1-.21-.21.15-.61.44-1.25a14.69,14.69,0,0,1,1.19-3.2c.49-1,1-1.16,1-1.74.15-1.63,1-.72.54-2.56-.59-2.36-.32-2.58-.32-2.58a2,2,0,0,0-.61-.07H42c-.55,0-1.25-.21-2-.24h0c-.88,0-1.78,1.49-1.78,1.49s.36.73-.3.73a1.83,1.83,0,0,1-.53-.1c-.54-.17-.84-.36-.87-.84s.68-.65,1.07-1a20.29,20.29,0,0,1,2.2-1.37,28.25,28.25,0,0,1,3.39-.84h.14a4.73,4.73,0,0,0,1.12-.18s.26-.12-.15-.14-.58-1.65-.58-2c0-.74,0-1.58.86-1.88a1.77,1.77,0,0,1,.62-.13m0-.5h0a2.14,2.14,0,0,0-.79.16c-1.21.45-1.2,1.78-1.19,2.35a5.6,5.6,0,0,0,.28,1.84h-.31a25.67,25.67,0,0,0-3.53.86l-.1,0a18.15,18.15,0,0,0-2.31,1.45,1.94,1.94,0,0,1-.38.26c-.36.22-.89.53-.84,1.16a1.48,1.48,0,0,0,1.21,1.28A2.5,2.5,0,0,0,38,26a.83.83,0,0,0,.77-.38,1,1,0,0,0,.08-.78c.34-.48.88-1.06,1.23-1.06s.65.08,1,.13a6.16,6.16,0,0,0,1,.12h.36a11.58,11.58,0,0,0,.39,2.26c.2.77.13.85,0,1a2.18,2.18,0,0,0-.56,1.42c0,.15-.08.24-.29.51a5.48,5.48,0,0,0-.68,1,9.28,9.28,0,0,0-1,2.65,1.83,1.83,0,0,1-.18.57,4.43,4.43,0,0,1-.25.49c-.22.41-.5.91-.09,1.32a2.06,2.06,0,0,1,.44.57,1.54,1.54,0,0,0,.27.4l3.15,3.51c.1.16.21.46.13.56s-1,1.17-.84,1.88a.63.63,0,0,0,.46.46,1.3,1.3,0,0,0,.41.07,1.45,1.45,0,0,0,.64-.18,4.58,4.58,0,0,0,.63-.42v.06c0,.13,0,.75,1.15.81h.13a1.88,1.88,0,0,0,1.17-.38c.31-.13.54-.56.41-4,0-.35.07-.68.14-1.09a3.94,3.94,0,0,0-.06-1.88,2,2,0,0,1-.08-.44,2.21,2.21,0,0,1,.13-.62,7.33,7.33,0,0,0,.32-1.79c.09-1.39.09-2.06.09-3a8.39,8.39,0,0,1,0-.88,1.21,1.21,0,0,0,0-.25c.05-.71,0-1.54-.41-1.79,2-1.41,1.88-2,1.84-2.18-.2-1.13-1.73-4-2.64-4-.21,0-.41,0-.58,0h-.13a2.69,2.69,0,0,1,0-.41c0-.07.05-.13.08-.21A3.07,3.07,0,0,0,47,18.15a1.84,1.84,0,0,0-1.74-1.65Zm-2,18.06a15.9,15.9,0,0,0,1.43-2,4,4,0,0,0,0,.51,3.14,3.14,0,0,0,.2.84,2.55,2.55,0,0,1,.14.59,1.71,1.71,0,0,1,0,.32,6.26,6.26,0,0,0,0,.69,3.36,3.36,0,0,0,.09.5,4.42,4.42,0,0,1,.1.5c.07.56.12,1.11.16,1.51a8.14,8.14,0,0,1-.41-1,6,6,0,0,0-1.22-2.18,1.46,1.46,0,0,0-.48-.31Z"/></svg>