<svg xmlns="http://www.w3.org/2000/svg" xmlns:xlink="http://www.w3.org/1999/xlink" viewBox="0 0 64 64"><defs><style>.cls-1{fill:url(#White_Black);}.cls-2{isolation:isolate;}.cls-3{mask:url(#mask);}.cls-4{fill:url(#radial-gradient);}.cls-5{fill:url(#radial-gradient-2);}.cls-6{fill:#6d6d6d;}.cls-7{fill:url(#radial-gradient-3);}.cls-11,.cls-8{fill:none;stroke:#6d6d6d;}.cls-8{stroke-linecap:round;stroke-linejoin:round;}.cls-9{fill:#8e8e8f;}.cls-10{fill:#393939;}.cls-11{stroke-miterlimit:10;}.cls-12{mix-blend-mode:multiply;fill:url(#linear-gradient);}.cls-13{fill:#195a72;}</style><linearGradient id="White_Black" x1="39.7" y1="27.75" x2="18.2" y2="36.94" gradientUnits="userSpaceOnUse"><stop offset="0" stop-color="#fff"/><stop offset="1"/></linearGradient><mask id="mask" x="-6.07" y="8.59" width="72.5" height="46.47" maskUnits="userSpaceOnUse"><rect class="cls-1" x="-6.07" y="8.59" width="72.5" height="46.47"/></mask><radialGradient id="radial-gradient" cx="34.94" cy="41.4" r="39.4" gradientTransform="matrix(0.97, -0.16, 0.07, 0.44, -1.32, 29.02)" gradientUnits="userSpaceOnUse"><stop offset="0.01" stop-color="#d9d9d9"/><stop offset="1" stop-color="#737373"/></radialGradient><radialGradient id="radial-gradient-2" cx="30.95" cy="29.81" r="19.01" gradientTransform="translate(1.14) scale(0.98 1)" gradientUnits="userSpaceOnUse"><stop offset="0.14" stop-color="#fcfcfc"/><stop offset="0.32" stop-color="#f7f7f7"/><stop offset="0.54" stop-color="#e9e9e9"/><stop offset="0.77" stop-color="#d2d2d2"/><stop offset="1" stop-color="#b3b3b3"/></radialGradient><radialGradient id="radial-gradient-3" cx="28.85" cy="35.66" r="26.76" gradientTransform="translate(1.14 14.16) scale(0.98 0.6)" gradientUnits="userSpaceOnUse"><stop offset="0.14" stop-color="#fcfcfc"/><stop offset="0.26" stop-color="#f7f7f7"/><stop offset="0.4" stop-color="#e9e9e9"/><stop offset="0.55" stop-color="#d2d2d2"/><stop offset="0.7" stop-color="#b1b1b1"/><stop offset="0.86" stop-color="#878787"/><stop offset="1" stop-color="#5c5c5c"/></radialGradient><linearGradient id="linear-gradient" x1="17.51" y1="38.3" x2="51.1" y2="24.45" gradientUnits="userSpaceOnUse"><stop offset="0" stop-color="#93d2f0" stop-opacity="0"/><stop offset="0.06" stop-color="#89c8e6" stop-opacity="0.08"/><stop offset="0.45" stop-color="#4d8da8" stop-opacity="0.57"/><stop offset="0.74" stop-color="#276881" stop-opacity="0.88"/><stop offset="0.9" stop-color="#195a72"/></linearGradient></defs><title>CATIA _ (C02) IMA - Imagine &amp;amp; Shape</title><g class="cls-2"><g id="CATIA___C02_IMA_-_Imagine_Shape" data-name="CATIA _ (C02) IMA - Imagine &amp; Shape"><g class="cls-3"><path class="cls-4" d="M53.29,26.25c-1.27,2.56-1.87,5-4,7.07a65.78,65.78,0,0,1-6.87,6c-2.53,1.91-4.83,3.67-8.09,4.34-3.75.76-8.69,1.14-12.37-.13s-7.35-1.2-11-2.39"/><path class="cls-5" d="M9,41a1.65,1.65,0,0,1-1.42-.79.47.47,0,0,1,0-.47c.16-.4,4.05-9.87,10.93-14.86C23.79,21,28.3,19,31.88,19c.46,0,1.08-.06,1.8-.13a39.9,39.9,0,0,1,4.13-.25A27.72,27.72,0,0,1,46,19.89c6.24,1.92,9.4,3.78,9.4,5.52,0,1.16-1.71,6.33-6.87,8.87-4,2-10.07,2.52-16.5,3.1-3.34.29-6.79.6-10,1.13-5.77,1-10.56,2-11.66,2.21l-.26.06A5.19,5.19,0,0,1,9,41Z"/><path class="cls-6" d="M37.81,19.15a27,27,0,0,1,8.07,1.22c6.84,2.1,9,3.86,9,5s-1.81,6.06-6.59,8.42c-6,3-17.1,2.67-26.34,4.19-5.84.95-10.62,2-11.69,2.21a6.5,6.5,0,0,1-1.3.24,1.13,1.13,0,0,1-1-.58s3.92-9.67,10.76-14.64,10.89-5.72,13.12-5.72c1.22,0,3.23-.38,5.93-.38m0-1a40.8,40.8,0,0,0-4.18.25c-.7.07-1.31.13-1.75.13-3.69,0-8.3,2-13.7,5.91-7,5.08-10.94,14.67-11.11,15.08a1,1,0,0,0,.11.94,2.14,2.14,0,0,0,1.83,1,5.77,5.77,0,0,0,1.27-.2l.26-.07c1.09-.25,5.87-1.26,11.62-2.2,3.18-.52,6.62-.83,9.94-1.13,6.48-.58,12.6-1.13,16.68-3.14,5-2.48,7.15-7.67,7.15-9.32,0-1.28-1-3.31-9.76-6a28.29,28.29,0,0,0-8.36-1.26Z"/><path class="cls-7" d="M10.29,39.26c.4-.82,1.85-3.16,7.18-9.57A24.33,24.33,0,0,1,32,21.58c2.28-.39,9.74-.41,10.55-.41,4.15,1.2,9.94,3.6,9.94,5.25,0,2.37-2.41,4.89-6.45,6.74-2.64,1.2-10.27,1.7-16.41,2.09-3.07.2-6,.39-7.92.64a43.69,43.69,0,0,0-9.49,2.67C11.48,38.85,10.76,39.12,10.29,39.26Z"/><path class="cls-6" d="M42.5,21.67c5,1.45,9.51,3.7,9.51,4.75,0,2.13-2.36,4.54-6.16,6.28-2.55,1.17-10.14,1.66-16.23,2-3.08.2-6,.39-7.95.64a44.28,44.28,0,0,0-9.61,2.71l-.65.24A98.78,98.78,0,0,1,17.85,30,23.84,23.84,0,0,1,32.1,22.07c2.19-.37,9.31-.4,10.4-.4m.14-1s-8.23,0-10.7.41a24.72,24.72,0,0,0-14.86,8.29c-5.11,6.15-7.87,10-7.37,10.44a.21.21,0,0,0,.15,0c1.07,0,6.45-2.75,11.94-3.46,5.85-.76,20.42-.92,24.46-2.78S53,29.11,53,26.42s-10.37-5.75-10.37-5.75Z"/></g><path class="cls-8" d="M53.29,26.19c-1.27,2.56-1.87,5-4,7.07a67.08,67.08,0,0,1-6.87,6c-2.53,1.91-4.83,3.66-8.09,4.33-3.75.76-8.69,1.15-12.37-.12S14.63,42.23,11,41"/><path class="cls-9" d="M37.81,19.1a27.26,27.26,0,0,1,8.07,1.21c6.84,2.11,9,3.87,9,5s-1.81,6.07-6.59,8.42c-6,3-17.1,2.67-26.34,4.19-5.84.95-10.62,2-11.69,2.21a6.5,6.5,0,0,1-1.3.24,1.14,1.14,0,0,1-1-.57s3.92-9.68,10.76-14.65,10.89-5.72,13.12-5.72c1.22,0,3.23-.37,5.93-.37m0-1a41.16,41.16,0,0,0-4.18.24c-.7.07-1.31.13-1.75.13-3.69,0-8.3,2-13.7,5.91-7,5.08-10.94,14.67-11.11,15.08a1,1,0,0,0,.11.94,2.14,2.14,0,0,0,1.83,1,5.77,5.77,0,0,0,1.27-.2l.26-.06c1.09-.26,5.87-1.26,11.62-2.21,3.18-.52,6.62-.83,9.94-1.13,6.48-.58,12.6-1.13,16.68-3.14,5-2.47,7.15-7.67,7.15-9.32,0-1.28-1-3.3-9.76-6a28,28,0,0,0-8.36-1.26Z"/><path class="cls-9" d="M42.5,21.61c5,1.45,9.51,3.7,9.51,4.75,0,2.14-2.36,4.54-6.16,6.28C43.3,33.81,35.71,34.3,29.62,34.7c-3.08.2-6,.38-7.95.64A43.76,43.76,0,0,0,12.06,38l-.65.24A100.56,100.56,0,0,1,17.85,30,23.9,23.9,0,0,1,32.1,22c2.19-.37,9.31-.4,10.4-.4m.14-1s-8.23,0-10.7.42a24.69,24.69,0,0,0-14.86,8.28c-5.11,6.15-7.87,10-7.37,10.44a.21.21,0,0,0,.15,0c1.07,0,6.45-2.75,11.94-3.46,5.85-.76,20.42-.92,24.46-2.78S53,29.05,53,26.36s-10.37-5.75-10.37-5.75Z"/><path class="cls-10" d="M37.81,19.1a27.26,27.26,0,0,1,8.07,1.21c6.84,2.11,9,3.87,9,5s-1.54,5.33-5.54,7.83a.6.6,0,0,1-.08.08,67.08,67.08,0,0,1-6.87,6c-2.53,1.91-4.83,3.66-8.09,4.33a34.37,34.37,0,0,1-6.62.7A18,18,0,0,1,22,43.44c-3.53-1.23-7.35-1.21-11-2.4l-.71-.87a6.5,6.5,0,0,1-1.3.24,1.14,1.14,0,0,1-1-.57s3.92-9.68,10.76-14.65,10.89-5.72,13.12-5.72c1.22,0,3.23-.37,5.93-.37m0-1a41.16,41.16,0,0,0-4.18.24c-.7.07-1.31.13-1.75.13-3.69,0-8.3,2-13.7,5.91-7,5.08-10.94,14.67-11.11,15.08a1,1,0,0,0,.11.94,2.14,2.14,0,0,0,1.83,1,4.15,4.15,0,0,0,.92-.12l.32.38a1,1,0,0,0,.46.32,35.16,35.16,0,0,0,5.57,1.21,31.36,31.36,0,0,1,5.37,1.18,18.67,18.67,0,0,0,6.08.88,35.22,35.22,0,0,0,6.82-.72c3.44-.7,5.84-2.51,8.38-4.43L43,40A66.89,66.89,0,0,0,50,34h0c4.2-2.69,5.9-7.17,5.9-8.61,0-1.28-1-3.3-9.76-6a28,28,0,0,0-8.36-1.26Z"/><path class="cls-11" d="M45.88,34.22a12.48,12.48,0,0,1-2.47,4.2"/><path class="cls-12" d="M45.47,28.59a1.76,1.76,0,0,0-1.12-1.65c.17-2.68.48-4.82.51-5.06a2,2,0,0,0,1.44-1.69,1.93,1.93,0,0,0-1.93-1.78A1.78,1.78,0,0,0,44,21.93c-.09.63-.35,2.55-.5,4.91A1.74,1.74,0,0,0,42,28.23a26.3,26.3,0,0,0-8.42.49,1.74,1.74,0,0,0-1.25-1,42.52,42.52,0,0,1,.12-5.42,1.73,1.73,0,1,0-.83,0,44.3,44.3,0,0,0-.11,5.43,1.78,1.78,0,0,0-1.26,1.7,1.49,1.49,0,0,0,0,.21,39.13,39.13,0,0,0-9.48,4.8,14.89,14.89,0,0,1,.87-8.1L20.94,26s-.09.22-.19.49A1.76,1.76,0,1,0,20.28,28a14.21,14.21,0,0,0-.19,7A30.63,30.63,0,0,0,17,37.43l.56.61a34.64,34.64,0,0,1,2.77-2.24A9.66,9.66,0,0,0,20.81,37a1.75,1.75,0,0,0-.23.86,1.77,1.77,0,0,0,1.53,1.75,8,8,0,0,0,.57,1.74,1.77,1.77,0,0,0-.55.84c-3.72-.43-8.81-1.47-8.88-1.48l-.16.82c.27.06,5.27,1.07,9,1.5a1.75,1.75,0,0,0,1.71,1.45,1.69,1.69,0,0,0,.83-.22,13.39,13.39,0,0,0,1.66,1.58l.51-.66a14.07,14.07,0,0,1-1.56-1.49,1.54,1.54,0,0,0,.21-.47,52.83,52.83,0,0,0,8.36-.5,1.74,1.74,0,0,0,.91.8,12.15,12.15,0,0,0,.3,1.19l.79-.26a8.47,8.47,0,0,1-.23-.84A1.74,1.74,0,0,0,37,42c2.69-.63,5.38-1.44,11-6.44l-.39-.45a1.8,1.8,0,0,0,.12-.62A1.75,1.75,0,0,0,46,32.7a1.73,1.73,0,0,0-1.57,1,29.16,29.16,0,0,1-.21-3.44,1.79,1.79,0,0,0,.91-.66,24.43,24.43,0,0,1,4.9,1.78l.35-.76a25.4,25.4,0,0,0-4.95-1.81A1.94,1.94,0,0,0,45.47,28.59Zm-1.18,5.76s0,.08,0,.12a1.76,1.76,0,0,0,1.65,1.77c-4.37,3.64-6.71,4.37-9,4.91a1.74,1.74,0,0,0-1.6-1.08l-.21,0c-.05-.54-.07-1-.08-1.41a1.73,1.73,0,1,0-.83.06c0,.46.05,1,.1,1.68a1.78,1.78,0,0,0-.72,1.43s0,0,0,0a51.58,51.58,0,0,1-8.09.48,1.75,1.75,0,0,0-1.7-1.45,2,2,0,0,0-.36,0,7.9,7.9,0,0,1-.5-1.46,1.77,1.77,0,1,0-1.51-3.17,9.74,9.74,0,0,1-.37-1,37.86,37.86,0,0,1,9.53-4.86,1.78,1.78,0,0,0,1.22.76,33.28,33.28,0,0,0,.74,4.13l.8-.2a33.2,33.2,0,0,1-.72-4,1.77,1.77,0,0,0,1.13-1.55,26,26,0,0,1,8.32-.47,1.74,1.74,0,0,0,1.34,1.26,28.51,28.51,0,0,0,.3,4.12Z"/><path class="cls-13" d="M55.27,23.48A1.75,1.75,0,1,0,57,25.23,1.76,1.76,0,0,0,55.27,23.48Z"/></g></g></svg>