<svg id="CATIA___K03_KWA_-_Design_Rules_Capture" data-name="CATIA _ (K03) KWA - Design Rules Capture" xmlns="http://www.w3.org/2000/svg" xmlns:xlink="http://www.w3.org/1999/xlink" viewBox="0 0 64 64"><defs><style>.cls-1,.cls-12,.cls-9{fill:none;}.cls-2{fill:url(#linear-gradient);}.cls-3{fill:#6d6d6d;}.cls-10,.cls-4,.cls-5,.cls-6,.cls-7,.cls-8{stroke:#6d6d6d;stroke-width:0.6px;}.cls-10,.cls-12,.cls-4,.cls-5,.cls-6,.cls-7,.cls-8,.cls-9{stroke-linecap:round;stroke-linejoin:round;}.cls-4{fill:url(#linear-gradient-2);}.cls-5{fill:url(#linear-gradient-3);}.cls-6{fill:url(#linear-gradient-4);}.cls-7{fill:url(#linear-gradient-5);}.cls-8{fill:url(#linear-gradient-6);}.cls-12,.cls-9{stroke:#383838;}.cls-9{stroke-width:1.5px;}.cls-10{fill:url(#linear-gradient-7);}.cls-11{fill:#2d2d2d;}.cls-13{fill:url(#linear-gradient-8);}.cls-14{fill:#383838;}.cls-15{isolation:isolate;}.cls-16{clip-path:url(#clip-path);}</style><linearGradient id="linear-gradient" x1="6.75" y1="32.43" x2="56.95" y2="32.43" gradientUnits="userSpaceOnUse"><stop offset="0" stop-color="#a1a1a1"/><stop offset="1" stop-color="#fff"/></linearGradient><linearGradient id="linear-gradient-2" x1="27.54" y1="49.19" x2="92.77" y2="-7.67" xlink:href="#linear-gradient"/><linearGradient id="linear-gradient-3" x1="26.83" y1="28.97" x2="39.05" y2="28.97" xlink:href="#linear-gradient"/><linearGradient id="linear-gradient-4" x1="22.1" y1="42.95" x2="87.33" y2="-13.91" xlink:href="#linear-gradient"/><linearGradient id="linear-gradient-5" x1="-36.98" y1="88.46" x2="51.71" y2="16.4" xlink:href="#linear-gradient"/><linearGradient id="linear-gradient-6" x1="-41.76" y1="82.58" x2="46.93" y2="10.53" xlink:href="#linear-gradient"/><linearGradient id="linear-gradient-7" x1="26.54" y1="25.38" x2="-24.47" y2="60.3" xlink:href="#linear-gradient"/><linearGradient id="linear-gradient-8" x1="41.58" y1="22.66" x2="61.98" y2="54.33" gradientUnits="userSpaceOnUse"><stop offset="0" stop-color="#fff"/><stop offset="1" stop-color="#bfbfbf"/></linearGradient><clipPath id="clip-path"><polygon class="cls-1" points="15.51 36.08 12.48 28.54 26.66 24.86 29.7 32.41 15.51 36.08"/></clipPath></defs><title>CATIA _ (K03) KWA - Design Rules Capture</title><path class="cls-2" d="M17,44.63a.26.26,0,0,1-.21-.11L6.79,29.6a.26.26,0,0,1,0-.23.22.22,0,0,1,.17-.15l34.75-9h.06a.24.24,0,0,1,.14.05l13.86,9.56,1.1.84a.26.26,0,0,1,.1.24.25.25,0,0,1-.17.2L17.1,44.62Z"/><path class="cls-3" d="M41.75,20.48,55.6,30.05l1.1.83L17,44.38,7,29.46l34.75-9m0-.5-.12,0L6.87,29a.51.51,0,0,0-.34.3.54.54,0,0,0,0,.46l10,14.92a.49.49,0,0,0,.41.22.44.44,0,0,0,.16,0L56.86,31.35a.49.49,0,0,0,.14-.87l-1.09-.83L42,20.07a.52.52,0,0,0-.29-.09Z"/><polygon class="cls-4" points="39.05 33.36 39.05 35.87 55.93 30.24 55.93 27.74 39.05 33.36"/><polygon class="cls-5" points="26.83 21.9 26.83 24.49 39.05 36.04 39.05 33.45 26.83 21.9"/><polygon class="cls-6" points="17.26 40.31 37.75 33.55 37.76 36.15 17.28 43.16 17.26 40.31"/><polygon class="cls-7" points="26.83 21.9 39.05 33.32 55.93 27.69 41.94 17.96 26.83 21.9"/><polygon class="cls-8" points="7.62 26.89 25.78 22.07 37.76 33.56 17.26 40.3 7.62 26.89"/><path class="cls-9" d="M25.24,23.49s.06-.85.12-1.31a2.57,2.57,0,0,1,2-2,1.65,1.65,0,0,1,2.17,1.18,4.82,4.82,0,0,1,.15,1.07"/><path class="cls-9" d="M29.76,28.16s0-.63.11-1.08A3,3,0,0,1,32,24.91a1.58,1.58,0,0,1,2.09,1.15,3.9,3.9,0,0,1,.15,1.05"/><path class="cls-9" d="M34.28,32.67a6.23,6.23,0,0,1,0-1.76c.3-.9,1.73-1.56,3-1.83a1.66,1.66,0,0,1,2.21,1.26,4.64,4.64,0,0,1,.11,1.16"/><polygon class="cls-10" points="7.62 26.89 17.26 40.3 17.26 43.18 7.62 29.76 7.62 26.89"/><path class="cls-11" d="M41.94,18.4,56,28.19l0,1.13.06,1.28L57,31,17,44.82,7,29.9l.62-.16V27.33L25.78,22.5l2.09,2,1-.26-2-1.91L41.94,18.4m0-.6-.15,0L26.68,21.76a.6.6,0,0,0-.42.38l-.06-.07a.63.63,0,0,0-.42-.17l-.15,0L7.46,26.75a.59.59,0,0,0-.44.58v2l-.17,0a.59.59,0,0,0-.41.37.58.58,0,0,0,.06.54l10,14.93a.61.61,0,0,0,.5.26.69.69,0,0,0,.2,0l40-13.8a.59.59,0,0,0,.4-.54.6.6,0,0,0-.35-.57l-.6-.28,0-.91,0-1.08a.62.62,0,0,0-.26-.51l-14.1-9.79a.6.6,0,0,0-.34-.11Z"/><line class="cls-12" x1="36.72" y1="23.06" x2="42.18" y2="21.69"/><line class="cls-12" x1="33.4" y1="23.89" x2="35.18" y2="23.44"/><line class="cls-12" x1="39.7" y1="25.96" x2="45.69" y2="24.33"/><line class="cls-12" x1="36.03" y1="26.96" x2="38.17" y2="26.38"/><line class="cls-12" x1="42.6" y1="29.06" x2="49.21" y2="26.96"/><line class="cls-12" x1="39.55" y1="30.03" x2="41.2" y2="29.51"/><path class="cls-13" d="M56,46.5a.54.54,0,0,1-.22,0L42.78,40a.51.51,0,0,1-.28-.45V24a.52.52,0,0,1,.5-.5.54.54,0,0,1,.22.05l13,6.39a.51.51,0,0,1,.28.45V46a.52.52,0,0,1-.5.5Z"/><path class="cls-11" d="M43,24l13,6.39V46L43,39.52V24m0-1a1,1,0,0,0-.53.15A1,1,0,0,0,42,24V39.52a1,1,0,0,0,.55.9l13,6.48a1,1,0,0,0,1,0A1,1,0,0,0,57,46V30.39a1,1,0,0,0-.56-.9l-13-6.39A1,1,0,0,0,43,23Z"/><polygon class="cls-14" points="52.56 38.61 51.63 38.61 50.7 39.52 47.91 39.52 46.99 38.61 46.06 38.61 46.06 35.41 47.91 35.87 48.84 36.33 49.77 36.33 50.7 35.87 52.56 35.41 52.56 38.61"/><polygon class="cls-14" points="49.31 29.93 44.2 33.03 49.31 35.41 54.41 33.13 49.31 29.93"/><rect class="cls-14" x="53.49" y="34.5" width="0.93" height="2.74"/><g class="cls-15"><g class="cls-16"><path class="cls-14" d="M15.81,35.38l-.08,0,0,.25.06-.21a.39.39,0,0,0,.23,0,1.05,1.05,0,0,0,.39-.17,1.51,1.51,0,0,1-.38.06l-.2,0m.75-5.82c0,.15.06.32.09.48s.07.38.11.57l0,.18-1.15.3v0l1.29-.33.17,3,0,.25a2.78,2.78,0,0,0,.09-1.14l-.16-2.17,1.13-.3v0l-1.2.31-.43-1.18m1-1.82a.82.82,0,0,0-.24.1l.45,0,.05-.05a.32.32,0,0,0-.26,0"/><path class="cls-14" d="M15.71,35.68l0-.25.08,0,.2,0a1.51,1.51,0,0,0,.38-.06,1.05,1.05,0,0,1-.39.17.39.39,0,0,1-.23,0l-.06.21m-.06-4.55v0l1.15-.3,0-.18c0-.19-.07-.39-.11-.57s-.06-.33-.09-.48L17,30.74l1.2-.31v0l-1.13.3.16,2.17a2.78,2.78,0,0,1-.09,1.14l0-.25-.17-3-1.29.33m2.07-3.33-.45,0a.82.82,0,0,1,.24-.1.32.32,0,0,1,.26,0l-.05.05m-.39-.52a1.68,1.68,0,0,0-.81.54,1.83,1.83,0,0,0-.46,1,4.08,4.08,0,0,0,.13,1.25l.07.38L15,30.75l.38.94,1.1-.29.14,2.41a2,2,0,0,1,0,.8.52.52,0,0,1-.32.19,3.12,3.12,0,0,1-.46.09,1.7,1.7,0,0,0-.26,0,.49.49,0,0,0-.32.21.46.46,0,0,0,0,.4.62.62,0,0,0,.37.34.83.83,0,0,0,.52,0,1.76,1.76,0,0,0,1.15-1,3.27,3.27,0,0,0,.36-2l-.13-1.83,1.26-.33-.38-.93-1.18.3L17,29.39a2.28,2.28,0,0,1,0-.81c0-.15.09-.24.17-.26a.86.86,0,0,1,.23,0,2.45,2.45,0,0,0,.55-.06.41.41,0,0,0,.3-.22.5.5,0,0,0,0-.38.64.64,0,0,0-.35-.34.91.91,0,0,0-.52,0"/><path class="cls-14" d="M20.77,27.35l-1.32.34-.06.21a5.15,5.15,0,0,0-.2,1.71,4.29,4.29,0,0,0,.33,1.46,5,5,0,0,0,.95,1.51,6.57,6.57,0,0,0,1.26,1.13l.2.14,1.34-.35-.7-.58a5.68,5.68,0,0,1-1.69-2.21,5.29,5.29,0,0,1-.27-.94,7.11,7.11,0,0,1-.05-.78c0-.17,0-.47.09-.87l.12-.77"/><path class="cls-14" d="M25.84,26l-1.31.35.65.57a8.85,8.85,0,0,1,.71.67,3.47,3.47,0,0,1,.51.65,4.55,4.55,0,0,1,.48.89,4.59,4.59,0,0,1,.23,2.59l-.13.79,1.34-.35.06-.2a5.46,5.46,0,0,0,.2-1.51,4.44,4.44,0,0,0-.33-1.67,4.91,4.91,0,0,0-.8-1.34,7,7,0,0,0-1.4-1.29L25.84,26"/><path class="cls-14" d="M24.51,29.76l-.34,1,1.62,1.06.54-.9-1.82-1.18M21.86,28l-.53.89,1.82,1.18.34-1L21.86,28"/><polyline class="cls-14" points="24.04 27.47 23.49 29.1 23.15 30.11 22.54 31.93 23.61 32.4 24.16 30.78 24.51 29.76 25.12 27.95 24.04 27.47"/></g></g></svg>