<svg id="CATIA___G05_KIN_-_Mechanical_System_Experience" data-name="CATIA _ (G05) KIN - Mechanical System Experience" xmlns="http://www.w3.org/2000/svg" xmlns:xlink="http://www.w3.org/1999/xlink" viewBox="0 0 64 64"><defs><style>.cls-1,.cls-12,.cls-13,.cls-19,.cls-2,.cls-20,.cls-4{stroke:#00415f;}.cls-1,.cls-12,.cls-13,.cls-16,.cls-17,.cls-18,.cls-19,.cls-2,.cls-20,.cls-21,.cls-4,.cls-6,.cls-9{stroke-linecap:round;stroke-linejoin:round;}.cls-1{fill:url(#linear-gradient);}.cls-2{fill:#276880;}.cls-3{opacity:0.3;}.cls-4{fill:url(#linear-gradient-2);}.cls-5{fill:url(#linear-gradient-3);}.cls-16,.cls-17,.cls-18,.cls-6,.cls-9{stroke:#6d6d6d;}.cls-6{fill:url(#linear-gradient-4);}.cls-7{fill:url(#linear-gradient-5);}.cls-8{fill:#6d6d6d;}.cls-9{fill:url(#linear-gradient-6);}.cls-10{fill:url(#linear-gradient-7);}.cls-11{fill:url(#linear-gradient-8);}.cls-12{fill:url(#linear-gradient-9);}.cls-13{fill:url(#linear-gradient-10);}.cls-14{fill:#2d2d2d;}.cls-15{opacity:0.4;}.cls-16,.cls-17,.cls-18{stroke-width:0.8px;}.cls-16{fill:url(#linear-gradient-11);}.cls-17{fill:url(#linear-gradient-12);}.cls-18{fill:url(#linear-gradient-13);}.cls-19{fill:url(#linear-gradient-14);}.cls-20{fill:url(#linear-gradient-15);}.cls-21{stroke:#2d2d2d;fill:url(#linear-gradient-16);}</style><linearGradient id="linear-gradient" x1="48.98" y1="18.06" x2="40.05" y2="39.22" gradientUnits="userSpaceOnUse"><stop offset="0.01" stop-color="#8fd2eb"/><stop offset="0.13" stop-color="#25667e"/><stop offset="0.22" stop-color="#8fd2eb"/><stop offset="0.77" stop-color="#78bbd4"/><stop offset="0.91" stop-color="#8dd0e9"/><stop offset="1" stop-color="#286a82"/></linearGradient><linearGradient id="linear-gradient-2" x1="36.36" y1="21.23" x2="36.36" y2="24.41" gradientUnits="userSpaceOnUse"><stop offset="0" stop-color="#8fd2eb"/><stop offset="1" stop-color="#286a82"/></linearGradient><linearGradient id="linear-gradient-3" x1="28.87" y1="24.93" x2="16.82" y2="35.17" gradientUnits="userSpaceOnUse"><stop offset="0" stop-color="#fafafa"/><stop offset="0.22" stop-color="#f6f6f6"/><stop offset="0.45" stop-color="#e8e8e8"/><stop offset="0.7" stop-color="#d3d3d3"/><stop offset="0.71" stop-color="#d1d1d1"/><stop offset="1" stop-color="#989898"/></linearGradient><linearGradient id="linear-gradient-4" x1="16.1" y1="23.42" x2="54.29" y2="23.42" gradientUnits="userSpaceOnUse"><stop offset="0" stop-color="#d3d3d3"/><stop offset="0.91" stop-color="#b5b5b5"/><stop offset="1" stop-color="#777"/></linearGradient><linearGradient id="linear-gradient-5" x1="78.88" y1="6.92" x2="-15.21" y2="41.28" gradientUnits="userSpaceOnUse"><stop offset="0" stop-color="#fafafa"/><stop offset="1" stop-color="#d0d0d0"/></linearGradient><linearGradient id="linear-gradient-6" x1="38.14" y1="36.43" x2="17.7" y2="47.32" gradientUnits="userSpaceOnUse"><stop offset="0" stop-color="#fafafa"/><stop offset="1" stop-color="#d0d1d3"/></linearGradient><linearGradient id="linear-gradient-7" x1="34.16" y1="40.46" x2="16.11" y2="45.29" gradientUnits="userSpaceOnUse"><stop offset="0" stop-color="#fafafa"/><stop offset="1" stop-color="#a8a8a8"/></linearGradient><linearGradient id="linear-gradient-8" x1="42.11" y1="31.1" x2="19.01" y2="49.18" xlink:href="#linear-gradient-5"/><linearGradient id="linear-gradient-9" x1="52.92" y1="17.09" x2="29.83" y2="44.26" xlink:href="#linear-gradient"/><linearGradient id="linear-gradient-10" x1="55.78" y1="19.98" x2="8.16" y2="66.23" gradientUnits="userSpaceOnUse"><stop offset="0" stop-color="#92d5ee"/><stop offset="0.48" stop-color="#599bb4"/><stop offset="1" stop-color="#185971"/></linearGradient><linearGradient id="linear-gradient-11" x1="13.11" y1="39.43" x2="18.53" y2="39.43" xlink:href="#linear-gradient-6"/><linearGradient id="linear-gradient-12" x1="24.84" y1="44.3" x2="7.83" y2="42.2" xlink:href="#linear-gradient-5"/><linearGradient id="linear-gradient-13" x1="25.06" y1="40.57" x2="-6.02" y2="53.24" xlink:href="#linear-gradient-5"/><linearGradient id="linear-gradient-14" x1="10.16" y1="44.51" x2="39.66" y2="19.32" gradientUnits="userSpaceOnUse"><stop offset="0" stop-color="#286a82"/><stop offset="0.09" stop-color="#8dd0e9"/><stop offset="0.23" stop-color="#78bbd4"/><stop offset="0.78" stop-color="#8fd2eb"/><stop offset="0.87" stop-color="#25667e"/><stop offset="0.99" stop-color="#8fd2eb"/></linearGradient><linearGradient id="linear-gradient-15" x1="39.96" y1="24.32" x2="-39.29" y2="80.72" xlink:href="#linear-gradient-10"/><linearGradient id="linear-gradient-16" x1="43.38" y1="31.23" x2="61.72" y2="59.71" gradientUnits="userSpaceOnUse"><stop offset="0" stop-color="#fff"/><stop offset="1" stop-color="#bfbfbf"/></linearGradient></defs><title>CATIA _ (G05) KIN - Mechanical System Experience</title><path class="cls-1" d="M47.86,18.32a3.23,3.23,0,0,1,2.38-2.25,1.57,1.57,0,0,0-.55-.23c-1.15-.22-2.34,1-2.66,2.64a3.8,3.8,0,0,0,.3,2.48l1.91.92h0l-1.5-1.07A3.85,3.85,0,0,1,47.86,18.32Z"/><path class="cls-2" d="M51.19,19.27a3.15,3.15,0,0,0-.95-3.2,3.23,3.23,0,0,0-2.38,2.25,3.85,3.85,0,0,0-.12,2.49l1.5,1.07A3.25,3.25,0,0,0,51.19,19.27Z"/><g class="cls-3"><path class="cls-4" d="M35.43,20.41A3.16,3.16,0,0,1,38.66,19h0c-1-.78-2.76-.28-3.81,1.13s-1.05,3.19,0,4a1.62,1.62,0,0,0,.57.29C34.38,23.6,34.38,21.82,35.43,20.41Z"/><path class="cls-2" d="M38.65,23c1.06-1.41,1.06-3.18,0-4a3.16,3.16,0,0,0-3.23,1.41c-1,1.41-1,3.19,0,4A3.16,3.16,0,0,0,38.65,23Z"/></g><path class="cls-5" d="M17.46,23.25l35.7-8.14a11.57,11.57,0,0,1,2.93,1c-1.1-2.22-2.75-2.43-3.58-2.29C52,13.91,16.43,22,16.43,22S12.14,23,12.14,27.38a4.21,4.21,0,0,0,1.29,2.87,4.56,4.56,0,0,1-.23-1.9A5.22,5.22,0,0,1,17.46,23.25Z"/><path class="cls-6" d="M53.12,17.53a1.66,1.66,0,0,1,0,.24,2,2,0,0,1-1.49,1.88l-35,8.94a2.13,2.13,0,0,1-.58.05,1.48,1.48,0,0,0,1.72.64l35-8.94a2,2,0,0,0,1.49-1.89C54.29,17.47,53.49,17.47,53.12,17.53Z"/><path class="cls-7" d="M17,31.72c-1.81,0-3.75-1-3.75-3.06a5.24,5.24,0,0,1,4-5.09l35.93-8.21a2.52,2.52,0,0,1,.59-.06,2.42,2.42,0,0,1,1.73.62,2.22,2.22,0,0,1,.52,1.68,4.82,4.82,0,0,1-3.72,4.86c-.84.21-32.81,8.75-34.17,9.11a4.34,4.34,0,0,1-1.16.15ZM53.37,17.26a1.59,1.59,0,0,0-.5.07L17.35,25.91A2.08,2.08,0,0,0,15.7,28.1a1.52,1.52,0,0,0,1.64,1.48,2.76,2.76,0,0,0,.53-.06l35-8.94a2.19,2.19,0,0,0,1.68-2.13A1.09,1.09,0,0,0,53.37,17.26Z"/><path class="cls-8" d="M53.8,15.55a2.19,2.19,0,0,1,1.55.54,2,2,0,0,1,.45,1.5,4.56,4.56,0,0,1-3.53,4.62c-.85.21-32.81,8.76-34.17,9.12a4.36,4.36,0,0,1-1.1.14c-1.3,0-3.5-.59-3.5-2.81a5,5,0,0,1,3.83-4.85L53.27,15.6a2.34,2.34,0,0,1,.53,0M17.34,29.83a2.72,2.72,0,0,0,.61-.07l35-8.94a2.43,2.43,0,0,0,1.88-2.37,1.37,1.37,0,0,0-.51-1.16,1.43,1.43,0,0,0-.91-.28,2.28,2.28,0,0,0-.55.07L17.29,25.67a2.32,2.32,0,0,0-1.84,2.45,1.77,1.77,0,0,0,1.89,1.71M53.8,15.05a3.49,3.49,0,0,0-.64.06L17.22,23.32A5.57,5.57,0,0,0,13,28.66C13,31,15.12,32,17,32a4.73,4.73,0,0,0,1.22-.16s33.32-8.9,34.17-9.11a5,5,0,0,0,3.91-5.09,2.26,2.26,0,0,0-2.5-2.56ZM17.34,29.33A1.27,1.27,0,0,1,16,28.07a1.87,1.87,0,0,1,1.46-1.92l35.53-8.58a1.58,1.58,0,0,1,.43-.06.83.83,0,0,1,.92.94,2,2,0,0,1-1.49,1.89l-35,8.94a2.36,2.36,0,0,1-.48,0Z"/><path class="cls-9" d="M22.39,47.21c1.29-1.06,1.72-2.66,1-3.59s-2.42-.8-3.71.26-1.72,2.67-1,3.59S21.1,48.28,22.39,47.21Z"/><path class="cls-10" d="M17.41,49.46a.23.23,0,0,1-.14,0,4.43,4.43,0,0,1-1.77-4.55c.34-3,3.12-4.76,5.39-5.39,1-.27,10.05-1.66,10.44-1.72a3.77,3.77,0,0,1,.57,0,2.55,2.55,0,0,1,2.27,1.42.23.23,0,0,1,0,.3.22.22,0,0,1-.17.07.28.28,0,0,1-.13,0,1.94,1.94,0,0,0-1.08-.29,3.75,3.75,0,0,0-.56,0c-.11,0-9.3,1.42-10.24,1.68-.47.13-4.56,1.37-5,5a5.33,5.33,0,0,0,.7,3.2.25.25,0,0,1,0,.32A.25.25,0,0,1,17.41,49.46Z"/><path class="cls-8" d="M31.9,38A2.35,2.35,0,0,1,34,39.25a2.26,2.26,0,0,0-1.21-.32,3.4,3.4,0,0,0-.61.06s-9.29,1.41-10.26,1.68c-1.74.48-4.8,2.06-5.2,5.18a5.49,5.49,0,0,0,.73,3.37c-.88-.62-2-1.75-1.66-4.33.36-3.11,3.46-4.69,5.21-5.17,1-.27,10.41-1.71,10.41-1.71a3.27,3.27,0,0,1,.53,0m0-.5h0a3.52,3.52,0,0,0-.63.06c-.37.06-9.46,1.44-10.45,1.71-2.34.66-5.21,2.51-5.57,5.61a4.7,4.7,0,0,0,1.87,4.79.51.51,0,0,0,.64-.05.52.52,0,0,0,.08-.63,5,5,0,0,1-.67-3c.45-3.44,4.4-4.64,4.84-4.76.78-.22,7.63-1.28,10.2-1.67a2.71,2.71,0,0,1,.54,0,1.75,1.75,0,0,1,1,.25.48.48,0,0,0,.26.07.47.47,0,0,0,.35-.14.5.5,0,0,0,.08-.61,2.83,2.83,0,0,0-2.49-1.54Z"/><path class="cls-11" d="M20.53,50.41a3.88,3.88,0,0,1-2.9-1.09A4,4,0,0,1,16.92,46c.47-3.69,4.56-5,5-5.09.94-.27,10.13-1.7,10.23-1.71a3,3,0,0,1,.57-.06C34.6,39.18,35,41.26,35,42a4.17,4.17,0,0,1-1.94,2.86c-1,.6-10.48,5-10.58,5.07a4.32,4.32,0,0,1-1.41.46A4.58,4.58,0,0,1,20.53,50.41Z"/><path class="cls-8" d="M32.75,39.43h0c1.65,0,2,1.9,2,2.56a4,4,0,0,1-1.83,2.65c-.77.47-7.23,3.51-10.58,5.07a3.86,3.86,0,0,1-1.3.42,4.14,4.14,0,0,1-.53,0,3.66,3.66,0,0,1-2.71-1,3.81,3.81,0,0,1-.65-3.08c.45-3.54,4.4-4.76,4.85-4.89.77-.22,7.62-1.31,10.21-1.71a2.4,2.4,0,0,1,.52,0m0-.5a3.4,3.4,0,0,0-.61.06s-9.29,1.44-10.26,1.72c-1.74.5-4.8,2.12-5.2,5.3-.53,4.2,2.52,4.65,3.85,4.65a5.13,5.13,0,0,0,.6,0,4.82,4.82,0,0,0,1.48-.48s9.6-4.47,10.6-5.09A4.41,4.41,0,0,0,35.27,42c0-1-.55-3.06-2.52-3.06Z"/><path class="cls-12" d="M54.67,18.19l-2.35-1.35a3.17,3.17,0,0,0-2.76,1,4.5,4.5,0,0,0-1,3.08L32.8,39.8a3.5,3.5,0,0,0-2.3,1C29.33,42,29,43.57,29.85,44.41l1.29,1.49,3.08-4.51L50.53,22.05Z"/><path class="cls-13" d="M54.48,18.07c-1-.61-2.53.08-3.42,1.54A3.74,3.74,0,0,0,50.47,22L34.18,41.41a3.47,3.47,0,0,0-2.3,1c-1.17,1.14-1.47,2.74-.66,3.58s2.43.6,3.6-.53a3.08,3.08,0,0,0,1-2.94l16.07-19a3.24,3.24,0,0,0,2.75-1.74C55.56,20.36,55.48,18.68,54.48,18.07Z"/><path class="cls-14" d="M52.9,14A3.38,3.38,0,0,1,55.36,15c.39.66.59.88.5,1a2.73,2.73,0,0,1,.31,1.49,5.46,5.46,0,0,1-1.31,3.56,4.25,4.25,0,0,1-.32.64,3.33,3.33,0,0,1-2.6,1.76h-.15l-16.06,19a3.07,3.07,0,0,1-1,2.93,3.44,3.44,0,0,1-2.31,1,1.76,1.76,0,0,1-1.29-.51L31,45.83c-3.11,1.47-8.55,3.94-8.55,3.94a4.82,4.82,0,0,1-1.48.48,5,5,0,0,1-.59,0A3.9,3.9,0,0,1,17,48.7h0s0,0,0,0c-.89-.61-1.54-1.75-1.27-3.83.4-3.11,3.46-4.69,5.21-5.17,1-.27,10.25-1.68,10.25-1.68a3.4,3.4,0,0,1,.61-.06,2.19,2.19,0,0,1,1.69.73l12-14.31L18.1,31.71a4.74,4.74,0,0,1-1.22.15c-1.62,0-3.41-.74-3.88-2.42a3,3,0,0,1-.74-2,5.55,5.55,0,0,1,4.22-5.33L52.42,14a3.08,3.08,0,0,1,.48,0m0-.8a3.13,3.13,0,0,0-.63.06c-.49.09-34.52,7.75-36,8.07a6.31,6.31,0,0,0-4.84,6.12,3.72,3.72,0,0,0,.82,2.41c.69,2.09,2.89,2.83,4.6,2.83a5.55,5.55,0,0,0,1.43-.18l24.93-6.66L33.4,37.59a3.13,3.13,0,0,0-1.58-.41,4.06,4.06,0,0,0-.76.07c-.92.14-9.33,1.42-10.32,1.7-2.4.66-5.36,2.59-5.78,5.84-.33,2.52.6,3.83,1.48,4.5a4.76,4.76,0,0,0,4,1.79,6.56,6.56,0,0,0,.7,0,5.71,5.71,0,0,0,1.73-.55c.4-.18,5-2.29,8-3.71a2.67,2.67,0,0,0,1.49.44A4.23,4.23,0,0,0,35.25,46a4,4,0,0,0,1.34-3.29L52.17,24.26a4.26,4.26,0,0,0,3-2.13,5.26,5.26,0,0,0,.33-.63,6.33,6.33,0,0,0,1.42-4,3.76,3.76,0,0,0-.3-1.69,2.48,2.48,0,0,0-.36-.79c-.08-.12-.17-.26-.27-.43a.64.64,0,0,0-.1-.13,4.19,4.19,0,0,0-3-1.33Z"/><g class="cls-15"><path class="cls-16" d="M17.18,41.1c1.3-1.06,1.73-2.67,1-3.59s-2.41-.81-3.7.26-1.73,2.67-1,3.58S15.9,42.16,17.18,41.1Z"/><path class="cls-17" d="M16.65,48.94c1.63,1,4.23.52,6.32-1.2,2.49-2,3.32-5.14,1.87-6.91a3.23,3.23,0,0,0-1.55-1l-9.46-2.76A5,5,0,0,0,9.6,38c-2,1.43-2.89,3.78-1.86,5.24A4.65,4.65,0,0,0,9,44.4Z"/><path class="cls-18" d="M17.32,49.85c1.64,1,4.23.53,6.32-1.19,2.49-2,3.32-5.15,1.87-6.92a3.31,3.31,0,0,0-1.55-1L14.5,38a5.06,5.06,0,0,0-4.23.9c-2,1.44-2.89,3.78-1.86,5.25a4.82,4.82,0,0,0,1.26,1.2C10.4,45.74,17.32,49.85,17.32,49.85Z"/><path class="cls-19" d="M9.52,43.81l1.42,1.87L42,21.44,40.12,20c-1-.81-2.77-.34-3.85,1.05a3.81,3.81,0,0,0-.82,2.11l-21.32,16a3.72,3.72,0,0,0-3.14.62c-1.58,1.07-2.19,2.9-1.38,4.09"/><path class="cls-20" d="M41.76,21.21c-1-.81-2.77-.34-3.85,1.05a3.78,3.78,0,0,0-.82,2.11L15.36,40.79a3.82,3.82,0,0,0-3.15.62c-1.57,1.07-2.19,2.9-1.38,4.09s2.74,1.28,4.31.22a3.63,3.63,0,0,0,1.73-3l21.3-16.27A3,3,0,0,0,41.7,25.2C42.78,23.81,42.81,22,41.76,21.21Z"/></g><polygon class="cls-21" points="44.5 46.57 56.5 52.65 56.5 38 44.5 32 44.5 46.57"/><polygon class="cls-14" points="48 38.77 48 45.06 52.64 43 48 38.77"/></svg>