<svg id="CATIA___K07_KE1_-_Know-How_Reuse" data-name="CATIA _ (K07) KE1 - Know-How Reuse" xmlns="http://www.w3.org/2000/svg" xmlns:xlink="http://www.w3.org/1999/xlink" viewBox="0 0 64 64"><defs><style>.cls-1,.cls-15{fill:none;}.cls-2{stroke:#6d6d6d;stroke-linecap:round;stroke-linejoin:round;stroke-width:0.6px;fill:url(#linear-gradient);}.cls-3{fill:#5c5c5c;}.cls-4{fill:#ececed;}.cls-5{fill:#9fa1a3;}.cls-6{fill:url(#linear-gradient-2);}.cls-7{fill:#6d6d6d;}.cls-8{fill:url(#linear-gradient-3);}.cls-9{fill:url(#linear-gradient-4);}.cls-10{fill:#2d2d2d;}.cls-11{fill:#fff;}.cls-12{isolation:isolate;}.cls-13{clip-path:url(#clip-path);}.cls-14{fill:#383838;}.cls-15{stroke:#15689c;stroke-miterlimit:10;}</style><linearGradient id="linear-gradient" x1="47.4" y1="42.64" x2="46.27" y2="41.28" gradientUnits="userSpaceOnUse"><stop offset="0.31" stop-color="#fafafa"/><stop offset="1" stop-color="#949494"/></linearGradient><linearGradient id="linear-gradient-2" x1="40.37" y1="18.16" x2="26.34" y2="41.55" gradientUnits="userSpaceOnUse"><stop offset="0" stop-color="#fafafa"/><stop offset="0.33" stop-color="#f3f3f3"/><stop offset="0.63" stop-color="#e8e8e8"/><stop offset="0.7" stop-color="#c5c5c5"/><stop offset="0.99" stop-color="#8c8c8c"/></linearGradient><linearGradient id="linear-gradient-3" x1="28.5" y1="38.18" x2="35.1" y2="44.36" gradientUnits="userSpaceOnUse"><stop offset="0" stop-color="#777a7e"/><stop offset="0.39" stop-color="#cdced0"/><stop offset="0.87" stop-color="#777a7e"/></linearGradient><linearGradient id="linear-gradient-4" x1="62.55" y1="16.13" x2="41.9" y2="46.93" gradientUnits="userSpaceOnUse"><stop offset="0" stop-color="#fafafa"/><stop offset="1" stop-color="#696969"/></linearGradient><clipPath id="clip-path"><polygon class="cls-1" points="35.46 32.66 23.79 27.12 33.54 20.93 45.21 26.48 35.46 32.66"/></clipPath></defs><title>CATIA _ (K07) KE1 - Know-How Reuse</title><polygon class="cls-2" points="55.03 36.04 49.21 32.83 39.77 40.33 39.24 48.61 55.03 36.04"/><polygon class="cls-3" points="39.83 46.13 53.41 35.46 53.41 34.94 39.91 45.49 39.83 46.13"/><polygon class="cls-4" points="53.72 33.83 53.27 33.63 39.98 43.85 39.94 44.84 53.72 33.83"/><polygon class="cls-3" points="39.83 45.22 53.72 34.39 53.72 33.83 39.91 44.59 39.83 45.22"/><polygon class="cls-3" points="39.83 44.01 54 33.16 54 32.63 39.91 43.38 39.83 44.01"/><polygon class="cls-5" points="40.05 41.38 54.47 30.72 54.47 30.2 40.13 40.75 40.05 41.38"/><polygon class="cls-4" points="53.41 34.94 53.11 34.82 39.8 45.09 39.92 45.64 53.41 34.94"/><polygon class="cls-4" points="54 32.63 53.48 32.42 40.04 42.47 39.77 43.56 54 32.63"/><polygon class="cls-4" points="54.34 31.25 53.94 31.07 40.39 41.07 40.12 42.16 54.34 31.25"/><polygon class="cls-3" points="39.83 42.77 54.33 31.8 54.34 31.25 39.91 42.14 39.83 42.77"/><path class="cls-6" d="M39.28,49.26a.3.3,0,0,1-.16,0c-.24-.15-24-15-24.72-15.38s-.75-.88-.67-1.16V25.6a2.26,2.26,0,0,1,1.1-1.85l16.3-7.34.12,0,.13,0L56.64,27.93a.28.28,0,0,1,.18.24.31.31,0,0,1-.12.27l-15.85,12-.41,1.13L39.58,49a.35.35,0,0,1-.17.24A.31.31,0,0,1,39.28,49.26Z"/><path class="cls-7" d="M31.25,16.69,56.52,28.2l-15.92,12-.44,1.21L39.28,49s-24-15-24.74-15.4-.51-.84-.51-.84V25.6A1.94,1.94,0,0,1,15,24l16.27-7.33m0-.6a.49.49,0,0,0-.24.05L14.73,23.47l-.05,0a2.58,2.58,0,0,0-1.25,2.11v7a1.31,1.31,0,0,0,.82,1.45c.58.31,16.42,10.19,24.71,15.38a.62.62,0,0,0,.32.09.58.58,0,0,0,.26-.06.6.6,0,0,0,.33-.47l.88-7.47.35-1L56.88,28.68a.6.6,0,0,0-.11-1L31.5,16.14a.53.53,0,0,0-.25-.05Z"/><path class="cls-4" d="M30.32,40.93c1,1.47,2.5,2.22,3.51,1.81.7-.77.56-2.38-.4-3.8s-2.7-2.29-3.66-1.63l-.1.07A3.8,3.8,0,0,0,30.32,40.93Z"/><path class="cls-7" d="M30.57,37.09A3.85,3.85,0,0,1,33.43,39c1.07,1.57,1.14,3.39.17,4a1.53,1.53,0,0,1-.84.24,3.88,3.88,0,0,1-2.87-1.89c-1.07-1.58-1.14-3.39-.16-4.06a1.5,1.5,0,0,1,.84-.24m0-1h0a2.48,2.48,0,0,0-1.4.42A2.84,2.84,0,0,0,28,39.06a5.72,5.72,0,0,0,1,2.89,4.8,4.8,0,0,0,3.7,2.33,2.5,2.5,0,0,0,1.4-.41,2.84,2.84,0,0,0,1.12-2.56,5.72,5.72,0,0,0-1-2.89,4.81,4.81,0,0,0-3.69-2.33Z"/><path class="cls-8" d="M30.32,41c-.9-1.34-1.09-2.85-.53-3.68l-.06,0c-1,.67-.91,2.48.16,4.06S32.62,43.7,33.6,43a1.45,1.45,0,0,0,.36-.38C33,43.26,31.37,42.52,30.32,41Z"/><path class="cls-3" d="M33.7,39.42l-3.62-2.24a1.08,1.08,0,0,0-.29.13,1.48,1.48,0,0,0-.14.25l4.41,2.67A7.17,7.17,0,0,0,33.7,39.42Z"/><path class="cls-3" d="M34.27,41.18l-4.78-3a2.84,2.84,0,0,0,0,.65l4.77,2.9A2.81,2.81,0,0,0,34.27,41.18Z"/><path class="cls-3" d="M30.14,40.69l3.5,2.13a1.83,1.83,0,0,0,.32-.14,1.74,1.74,0,0,0,.11-.18l-4.35-2.7A4.47,4.47,0,0,0,30.14,40.69Z"/><path class="cls-9" d="M56.52,28.2,41,39.58a2.52,2.52,0,0,0-1.1,1.8c-.26,1.6-.85,7-.85,7s-.15,1.11.84.29S54.74,36.78,54.74,36.78L55,36,40,48.08s-.53.49-.39-.37.76-6.27.76-6.27a2.24,2.24,0,0,1,1-1.53l15-11.07Z"/><path class="cls-10" d="M31.25,16.69,56,27.69v2l-1,1-2,3,2,3S40.8,48,39.9,48.7a1,1,0,0,1-.58.3.24.24,0,0,1-.22-.15C37,47.55,15.22,33.93,14.54,33.56s-.51-.84-.51-.84V25.6A1.94,1.94,0,0,1,15,24l16.27-7.33m0-.6a.49.49,0,0,0-.24.05L14.73,23.47l-.05,0a2.58,2.58,0,0,0-1.25,2.11v7a1.31,1.31,0,0,0,.82,1.45c.63.34,19.52,12.13,24.42,15.19a.82.82,0,0,0,.65.32,1.55,1.55,0,0,0,1-.44c.89-.74,14.95-11.89,15.09-12a.61.61,0,0,0,.13-.81l-1.78-2.66,1.75-2.62,1-1a.56.56,0,0,0,.18-.42v-2a.59.59,0,0,0-.36-.55l-24.74-11a.53.53,0,0,0-.25-.05Z"/><polygon class="cls-11" points="19.93 25.98 33 19.44 49.33 27.39 36.27 35.01 19.93 25.98"/><path class="cls-7" d="M33,20l15.27,7.43-12,7L21,26l12-6m0-1.12-.44.23-12,6-1.7.85,1.67.92,15.26,8.43.5.27.49-.28,12-7,1.62-.95-1.69-.82L33.44,19.1,33,18.88Z"/><g class="cls-12"><g class="cls-13"><polyline class="cls-14" points="37.69 25.73 36.68 26.99 36.45 27.75 35.67 28.25 34.33 28.48 32.21 29.21 36.07 31.05 36.86 30.55 38.74 30.58 41.09 29.09 40.77 28.07 41.55 27.57 37.69 25.73"/><polyline class="cls-14" points="28.66 24.03 27.54 28.9 35.29 27.18 37.41 22.77 28.66 24.03"/><polyline class="cls-14" points="38.49 23.92 37.71 24.42 41.02 25.99 41.8 25.49 38.49 23.92"/></g></g><rect class="cls-11" x="7.31" y="16.31" width="9.38" height="9.38" rx="2.69"/><path class="cls-10" d="M14,16.62A2.39,2.39,0,0,1,16.38,19v4A2.39,2.39,0,0,1,14,25.38H10A2.39,2.39,0,0,1,7.62,23V19A2.39,2.39,0,0,1,10,16.62h4M14,16H10a3,3,0,0,0-3,3v4a3,3,0,0,0,3,3h4a3,3,0,0,0,3-3V19a3,3,0,0,0-3-3Z"/><rect class="cls-11" x="7.31" y="27.31" width="9.38" height="9.38" rx="2.69"/><path class="cls-10" d="M14,27.62A2.39,2.39,0,0,1,16.38,30v4A2.39,2.39,0,0,1,14,36.38H10A2.39,2.39,0,0,1,7.62,34V30A2.39,2.39,0,0,1,10,27.62h4M14,27H10a3,3,0,0,0-3,3v4a3,3,0,0,0,3,3h4a3,3,0,0,0,3-3V30a3,3,0,0,0-3-3Z"/><rect class="cls-11" x="7.31" y="38.31" width="9.38" height="9.38" rx="2.69"/><path class="cls-10" d="M14,38.62A2.39,2.39,0,0,1,16.38,41v4A2.39,2.39,0,0,1,14,47.38H10A2.39,2.39,0,0,1,7.62,45V41A2.39,2.39,0,0,1,10,38.62h4M14,38H10a3,3,0,0,0-3,3v4a3,3,0,0,0,3,3h4a3,3,0,0,0,3-3V41a3,3,0,0,0-3-3Z"/><polyline class="cls-15" points="9 20.48 11 23.48 16 18.48"/><line class="cls-15" x1="9" y1="29" x2="15" y2="35"/><line class="cls-15" x1="15" y1="29" x2="9" y2="35"/></svg>