<svg id="CATIA___K09_BKTa_-_Know-How_Apps_Creation" data-name="CATIA _ (K09) BKTa - Know-How Apps Creation" xmlns="http://www.w3.org/2000/svg" xmlns:xlink="http://www.w3.org/1999/xlink" viewBox="0 0 64 64"><defs><style>.cls-1{fill:url(#linear-gradient);}.cls-2{fill:url(#linear-gradient-2);}.cls-3{fill:url(#linear-gradient-3);}.cls-4{fill:none;stroke:#2d2d2d;stroke-miterlimit:10;}.cls-5{fill:#383838;}</style><linearGradient id="linear-gradient" x1="13.37" y1="39.32" x2="51.71" y2="39.32" gradientUnits="userSpaceOnUse"><stop offset="0" stop-color="#4f778b"/><stop offset="0.02" stop-color="#688ea1"/><stop offset="0.05" stop-color="#84a6b8"/><stop offset="0.07" stop-color="#95b6c7"/><stop offset="0.08" stop-color="#9bbbcc"/><stop offset="0.24" stop-color="#92b3c5"/><stop offset="0.49" stop-color="#7a9db1"/><stop offset="0.81" stop-color="#537a92"/><stop offset="0.83" stop-color="#517890"/><stop offset="0.87" stop-color="#4b738b"/><stop offset="0.93" stop-color="#3b657c"/><stop offset="1" stop-color="#204d63"/><stop offset="1" stop-color="#204d63"/></linearGradient><linearGradient id="linear-gradient-2" x1="32.54" y1="35.86" x2="32.54" y2="19.21" gradientUnits="userSpaceOnUse"><stop offset="0" stop-color="#e5e5e4"/><stop offset="0.53" stop-color="#ececec"/><stop offset="1" stop-color="#f6f7f7"/></linearGradient><linearGradient id="linear-gradient-3" x1="32.54" y1="36.13" x2="32.54" y2="19.06" gradientUnits="userSpaceOnUse"><stop offset="0" stop-color="#fff"/><stop offset="0.89" stop-color="#f7f8f8"/><stop offset="1" stop-color="#f6f7f7"/></linearGradient></defs><title>CATIA _ (K09) BKTa - Know-How Apps Creation</title><path class="cls-1" d="M13.37,34.4l.36,8.37c0,1.28,1.74,1.48,2.21,1.48h33.2c.48,0,2.21-.2,2.21-1.48l.36-8.37Z"/><path class="cls-2" d="M20.33,19.21c-1.9,0-2.24,1-2.24,1L13.52,34.05c-.48,1.73,2.07,1.81,2.07,1.81H49.5s2.54-.08,2.07-1.81L47,20.2s-.35-1-2.25-1Z"/><path class="cls-3" d="M49.5,35.4H15.59s-1.85-.07-2.1-1.15c-.32,1.6,2.1,1.68,2.1,1.68H49.5s2.42-.08,2.1-1.68C51.34,35.33,49.5,35.4,49.5,35.4Z"/><path class="cls-4" d="M51.55,34.61a1.11,1.11,0,0,0-.08-.34L46.88,20.5s-.34-1-2.22-1H20.45c-1.88,0-2.22,1-2.22,1L13.65,34.27a2.56,2.56,0,0,0-.1.34h0l.36,8.33c0,1.27,1.72,1.47,2.2,1.47H49c.48,0,2.2-.2,2.2-1.47l.35-8.33Z"/><polyline class="cls-5" points="38.27 28.24 35.08 28.83 33.49 29.4 31.89 29.43 30.29 28.91 27.08 28.43 27.09 32.25 28.71 32.22 30.33 33.29 35.19 33.21 36.78 32.08 38.39 32.05 38.27 28.24"/><polyline class="cls-5" points="32.76 21.91 23.87 25.63 32.87 28.27 41.78 25.43 32.76 21.91"/><polyline class="cls-5" points="40.78 27.05 39.34 27.07 39.46 30.31 40.91 30.29 40.78 27.05"/></svg>