<svg id="CATIA___K11_BKTc_-_Know-How_Apps_User_Interface" data-name="CATIA _ (K11) BKTc - Know-How Apps User Interface" xmlns="http://www.w3.org/2000/svg" xmlns:xlink="http://www.w3.org/1999/xlink" viewBox="0 0 64 64"><defs><style>.cls-1{fill:url(#linear-gradient);}.cls-2{fill:url(#linear-gradient-2);}.cls-3{fill:url(#linear-gradient-3);}.cls-4{fill:none;stroke:#2d2d2d;stroke-miterlimit:10;}.cls-5{fill:url(#linear-gradient-4);}.cls-6{fill:#7f7f7f;}.cls-7{fill:#f2f2f2;}.cls-8{fill:#555;}.cls-9{fill:#616161;}.cls-10{fill:url(#linear-gradient-5);}</style><linearGradient id="linear-gradient" x1="12.87" y1="40.32" x2="51.21" y2="40.32" gradientUnits="userSpaceOnUse"><stop offset="0" stop-color="#4f778b"/><stop offset="0.02" stop-color="#688ea1"/><stop offset="0.05" stop-color="#84a6b8"/><stop offset="0.07" stop-color="#95b6c7"/><stop offset="0.08" stop-color="#9bbbcc"/><stop offset="0.24" stop-color="#92b3c5"/><stop offset="0.49" stop-color="#7a9db1"/><stop offset="0.81" stop-color="#537a92"/><stop offset="0.83" stop-color="#517890"/><stop offset="0.87" stop-color="#4b738b"/><stop offset="0.93" stop-color="#3b657c"/><stop offset="1" stop-color="#204d63"/><stop offset="1" stop-color="#204d63"/></linearGradient><linearGradient id="linear-gradient-2" x1="32.04" y1="36.86" x2="32.04" y2="20.21" gradientUnits="userSpaceOnUse"><stop offset="0" stop-color="#e5e5e4"/><stop offset="0.53" stop-color="#ececec"/><stop offset="1" stop-color="#f6f7f7"/></linearGradient><linearGradient id="linear-gradient-3" x1="32.04" y1="37.13" x2="32.04" y2="20.06" gradientUnits="userSpaceOnUse"><stop offset="0" stop-color="#fff"/><stop offset="0.89" stop-color="#f7f8f8"/><stop offset="1" stop-color="#f6f7f7"/></linearGradient><linearGradient id="linear-gradient-4" x1="32.06" y1="34.98" x2="32.06" y2="22.96" gradientUnits="userSpaceOnUse"><stop offset="0" stop-color="#9fa0a4"/><stop offset="1" stop-color="#eeeef0"/></linearGradient><linearGradient id="linear-gradient-5" x1="38.06" y1="34.16" x2="47.64" y2="39.74" gradientUnits="userSpaceOnUse"><stop offset="0" stop-color="#fff"/><stop offset="1" stop-color="#e7e7e7"/></linearGradient></defs><title>CATIA _ (K11) BKTc - Know-How Apps User Interface</title><path class="cls-1" d="M12.87,35.4l.36,8.37c0,1.28,1.74,1.48,2.21,1.48h33.2c.48,0,2.21-.2,2.21-1.48l.36-8.37Z"/><path class="cls-2" d="M19.83,20.21c-1.9,0-2.24,1-2.24,1L13,35.05c-.47,1.73,2.08,1.81,2.08,1.81H49s2.54-.08,2.07-1.81L46.5,21.2s-.35-1-2.25-1Z"/><path class="cls-3" d="M49,36.4H15.09s-1.85-.07-2.1-1.15c-.32,1.6,2.1,1.68,2.1,1.68H49s2.42-.08,2.1-1.68C50.84,36.33,49,36.4,49,36.4Z"/><path class="cls-4" d="M51.4,35.69a2.85,2.85,0,0,0-.08-.35L46.68,21.49s-.35-1-2.24-1H20c-1.9,0-2.25,1-2.25,1L13.15,35.34a3.21,3.21,0,0,0-.1.35h0l.36,8.37c0,1.28,1.74,1.49,2.22,1.49H48.82c.48,0,2.22-.21,2.22-1.49l.36-8.37Z"/><path class="cls-5" d="M21.86,34.5a2.92,2.92,0,0,1-2.33-1A3,3,0,0,1,19,31l1-5.12a4.32,4.32,0,0,1,4.07-3.34h16a4.34,4.34,0,0,1,4.08,3.34l1,5.12a2.87,2.87,0,0,1-2.91,3.54Z"/><path class="cls-6" d="M40.06,23a3.82,3.82,0,0,1,3.59,2.94l1,5.12A2.36,2.36,0,0,1,42.26,34H21.86a2.37,2.37,0,0,1-2.41-2.94l1-5.12A3.81,3.81,0,0,1,24.06,23h16m0-1h-16a4.81,4.81,0,0,0-4.57,3.75l-1,5.11A3.36,3.36,0,0,0,21.86,35h20.4a3.38,3.38,0,0,0,3.4-4.14l-1-5.11A4.79,4.79,0,0,0,40.06,22Z"/><path class="cls-7" d="M40.06,24a2.8,2.8,0,0,1,2.61,2.14l1,5.11a1.47,1.47,0,0,1-.25,1.25,1.49,1.49,0,0,1-1.18.5H21.86a1.47,1.47,0,0,1-1.17-.5,1.51,1.51,0,0,1-.26-1.25l1-5.11A2.8,2.8,0,0,1,24.06,24h16m0-1h-16a3.81,3.81,0,0,0-3.58,2.94l-1,5.12A2.37,2.37,0,0,0,21.86,34h20.4a2.36,2.36,0,0,0,2.41-2.94l-1-5.12A3.82,3.82,0,0,0,40.06,23Z"/><path class="cls-8" d="M32.06,27.71a2.52,2.52,0,0,1-2.5,2.84,2.48,2.48,0,0,1-2.42-2.74A2.56,2.56,0,0,1,29.64,25,2.45,2.45,0,0,1,32.06,27.71Zm-4.18.09c0,1.15.63,2.18,1.72,2.18s1.73-1,1.73-2.24c0-1.07-.56-2.19-1.72-2.19S27.88,26.61,27.88,27.8Z"/><path class="cls-8" d="M33.2,24.74l.7,0v3.21h0c.14-.21.29-.4.42-.58l2.06-2.53h.86l-2.36,2.8L37,30.71h-.83l-1.77-2.65-.51.59v2.06h-.7Z"/><polygon class="cls-6" points="39 28 40 28 40 27 39 27 39 26 38 26 38 43 39 43 40 43 40 42 39 42 39 28"/><rect class="cls-6" x="40" y="28" width="1" height="1"/><rect class="cls-6" x="41" y="29" width="1" height="1"/><rect class="cls-6" x="42" y="30" width="1" height="1"/><rect class="cls-6" x="43" y="31" width="1" height="1"/><rect class="cls-6" x="44" y="32" width="1" height="1"/><rect class="cls-6" x="45" y="33" width="1" height="1"/><rect class="cls-6" x="46" y="34" width="1" height="1"/><rect class="cls-6" x="47" y="35" width="1" height="1"/><rect class="cls-6" x="42" y="39" width="1" height="1"/><rect class="cls-6" x="41" y="40" width="1" height="1"/><rect class="cls-6" x="40" y="41" width="1" height="1"/><rect class="cls-6" x="48" y="36" width="1" height="1"/><polygon class="cls-6" points="49 37 49 38 45 38 45 39 45 40 46 40 46 39 50 39 50 38 50 37 49 37"/><rect class="cls-6" x="46" y="41" width="1" height="1"/><rect class="cls-6" x="43" y="40" width="1" height="1"/><rect class="cls-6" x="44" y="42" width="1" height="2"/><rect class="cls-9" x="45" y="44" width="2" height="1"/><rect class="cls-6" x="47" y="42" width="1" height="2"/><polygon class="cls-10" points="45 39 45 38 49 38 49 37 48 37 48 36 47 36 47 35 46 35 46 34 45 34 45 33 44 33 44 32 43 32 43 31 42 31 42 30 41 30 41 29 40 29 40 28 39 28 39 42 40 42 40 41 41 41 41 40 42 40 42 39 43 39 43 40 44 40 44 42 45 42 45 44 47 44 47 42 46 42 46 40 45 40 45 39"/></svg>