<svg id="CATIA___C13_LRE_-_Live_Rendering" data-name="CATIA _ (C13) LRE - Live Rendering" xmlns="http://www.w3.org/2000/svg" xmlns:xlink="http://www.w3.org/1999/xlink" viewBox="0 0 64 64"><defs><style>.cls-1,.cls-8{stroke:#6d6d6d;}.cls-1,.cls-12,.cls-13,.cls-22,.cls-32,.cls-4,.cls-6,.cls-7{stroke-miterlimit:10;}.cls-1{fill:url(#linear-gradient);}.cls-2{fill:#acd7e7;}.cls-3{fill:#00415f;}.cls-4{stroke:#737373;fill:url(#linear-gradient-2);}.cls-5{fill:url(#linear-gradient-3);}.cls-35,.cls-6,.cls-7{fill:none;}.cls-6{stroke:#fff;opacity:0.4;}.cls-7{stroke:#000;opacity:0.6;}.cls-11,.cls-14,.cls-17,.cls-18,.cls-19,.cls-20,.cls-21,.cls-23,.cls-25,.cls-26,.cls-27,.cls-28,.cls-35,.cls-8{stroke-linecap:round;stroke-linejoin:round;}.cls-8{fill:url(#linear-gradient-4);}.cls-9{fill:#494949;}.cls-10{opacity:0.3;}.cls-11,.cls-14,.cls-17,.cls-18,.cls-19,.cls-20,.cls-21,.cls-25,.cls-26,.cls-27,.cls-28{stroke:#7f7f7f;}.cls-11,.cls-14,.cls-17,.cls-18,.cls-19,.cls-20,.cls-21,.cls-28{stroke-width:0.8px;}.cls-11{fill:url(#linear-gradient-5);}.cls-12{fill:url(#linear-gradient-6);stroke:url(#linear-gradient-7);}.cls-13{fill:url(#linear-gradient-8);stroke:url(#linear-gradient-9);}.cls-14{fill:url(#linear-gradient-10);}.cls-15{fill:url(#linear-gradient-11);}.cls-16{fill:#676767;}.cls-17{fill:url(#linear-gradient-12);}.cls-18{fill:url(#linear-gradient-13);}.cls-19{fill:url(#linear-gradient-14);}.cls-20{fill:url(#linear-gradient-15);}.cls-21{fill:url(#linear-gradient-16);}.cls-22{fill:url(#linear-gradient-17);stroke:url(#linear-gradient-18);}.cls-23{stroke:#4f4f4f;fill:url(#linear-gradient-19);}.cls-24{fill:url(#linear-gradient-20);}.cls-25{fill:url(#linear-gradient-21);}.cls-26{fill:url(#linear-gradient-22);}.cls-27{fill:url(#linear-gradient-23);}.cls-28{fill:url(#linear-gradient-24);}.cls-29{fill:url(#linear-gradient-25);}.cls-30{fill:#7f7f7f;}.cls-31{fill:url(#radial-gradient);}.cls-32{fill:url(#linear-gradient-26);stroke:url(#linear-gradient-27);}.cls-33{fill:#001721;}.cls-34{fill:#fff;}.cls-34,.cls-35{opacity:0.8;}.cls-35{stroke:#2d2d2d;}</style><linearGradient id="linear-gradient" x1="11.39" y1="26.02" x2="88.39" y2="77.15" gradientUnits="userSpaceOnUse"><stop offset="0" stop-color="#f5f5f5"/><stop offset="0.12" stop-color="#eee"/><stop offset="0.31" stop-color="#d9d9d9"/><stop offset="0.53" stop-color="#b7b7b7"/><stop offset="0.79" stop-color="#888"/><stop offset="1" stop-color="#5c5c5c"/></linearGradient><linearGradient id="linear-gradient-2" x1="15.05" y1="33.88" x2="92.93" y2="69.65" gradientUnits="userSpaceOnUse"><stop offset="0" stop-color="#fff"/><stop offset="0.19" stop-color="#fbfbfb"/><stop offset="0.39" stop-color="#edeeee"/><stop offset="0.6" stop-color="#d7d8d9"/><stop offset="0.82" stop-color="#b9babc"/><stop offset="1" stop-color="#999b9d"/></linearGradient><linearGradient id="linear-gradient-3" x1="23.27" y1="29.41" x2="30.11" y2="45.93" gradientUnits="userSpaceOnUse"><stop offset="0" stop-color="#fff" stop-opacity="0"/><stop offset="0.87" stop-opacity="0.6"/></linearGradient><linearGradient id="linear-gradient-4" x1="25.07" y1="48.66" x2="39.27" y2="48.66" gradientUnits="userSpaceOnUse"><stop offset="0" stop-color="#636363"/><stop offset="1" stop-color="#dedede"/></linearGradient><linearGradient id="linear-gradient-5" x1="28.42" y1="22.08" x2="40.34" y2="13.34" gradientUnits="userSpaceOnUse"><stop offset="0" stop-color="#a1a1a1"/><stop offset="1" stop-color="#fff"/></linearGradient><linearGradient id="linear-gradient-6" x1="35.58" y1="15.2" x2="40.15" y2="15.2" gradientUnits="userSpaceOnUse"><stop offset="0.01" stop-color="#080808"/><stop offset="0.16" stop-color="#121212"/><stop offset="0.4" stop-color="#2d2d2e"/><stop offset="0.73" stop-color="#59595b"/><stop offset="1" stop-color="#848487"/></linearGradient><linearGradient id="linear-gradient-7" x1="35.08" y1="15.2" x2="40.65" y2="15.2" xlink:href="#linear-gradient-6"/><linearGradient id="linear-gradient-8" x1="28.21" y1="20.74" x2="39.61" y2="13.12" xlink:href="#linear-gradient-6"/><linearGradient id="linear-gradient-9" x1="35.4" y1="14.28" x2="40.33" y2="14.28" xlink:href="#linear-gradient-6"/><linearGradient id="linear-gradient-10" x1="34.31" y1="17.16" x2="45.59" y2="7.61" xlink:href="#linear-gradient-5"/><linearGradient id="linear-gradient-11" x1="33.6" y1="27.55" x2="56.5" y2="30.12" gradientUnits="userSpaceOnUse"><stop offset="0.63" stop-color="#a8a8a8"/><stop offset="1" stop-color="#fff"/></linearGradient><linearGradient id="linear-gradient-12" x1="35.89" y1="30.03" x2="53.5" y2="20.78" xlink:href="#linear-gradient-5"/><linearGradient id="linear-gradient-13" x1="42.2" y1="23.54" x2="57" y2="23.54" xlink:href="#linear-gradient-5"/><linearGradient id="linear-gradient-14" x1="39.59" y1="17.39" x2="49.77" y2="8.95" xlink:href="#linear-gradient-5"/><linearGradient id="linear-gradient-15" x1="36.45" y1="26.53" x2="49.43" y2="16.31" xlink:href="#linear-gradient-5"/><linearGradient id="linear-gradient-16" x1="34.59" y1="22.67" x2="46.21" y2="14.15" xlink:href="#linear-gradient-5"/><linearGradient id="linear-gradient-17" x1="47.32" y1="22.24" x2="53.89" y2="22.24" xlink:href="#linear-gradient-6"/><linearGradient id="linear-gradient-18" x1="46.82" y1="22.22" x2="54.39" y2="22.22" xlink:href="#linear-gradient-6"/><linearGradient id="linear-gradient-19" x1="36.84" y1="21.19" x2="41.82" y2="35.04" gradientUnits="userSpaceOnUse"><stop offset="0" stop-color="#fff"/><stop offset="1" stop-color="#a1a1a1"/></linearGradient><linearGradient id="linear-gradient-20" x1="34.47" y1="20.8" x2="38.42" y2="37.38" gradientUnits="userSpaceOnUse"><stop offset="0" stop-color="#848487"/><stop offset="0.27" stop-color="#59595b"/><stop offset="0.6" stop-color="#2d2d2e"/><stop offset="0.84" stop-color="#121212"/><stop offset="0.99" stop-color="#080808"/></linearGradient><linearGradient id="linear-gradient-21" x1="31.08" y1="21.61" x2="35.03" y2="38.19" xlink:href="#linear-gradient-19"/><linearGradient id="linear-gradient-22" x1="29.28" y1="21.97" x2="34.09" y2="39.02" gradientUnits="userSpaceOnUse"><stop offset="0.01" stop-color="#737373"/><stop offset="1" stop-color="#2e2e2e"/></linearGradient><linearGradient id="linear-gradient-23" x1="28.2" y1="22.3" x2="32.15" y2="38.89" xlink:href="#linear-gradient-19"/><linearGradient id="linear-gradient-24" x1="41.01" y1="21.23" x2="53.71" y2="8.76" xlink:href="#linear-gradient-5"/><linearGradient id="linear-gradient-25" x1="24.91" y1="22.35" x2="29.83" y2="40.77" gradientUnits="userSpaceOnUse"><stop offset="0" stop-color="#474747"/><stop offset="1" stop-color="#fff"/></linearGradient><radialGradient id="radial-gradient" cx="28.65" cy="30.92" r="2.43" gradientTransform="matrix(0.95, -0.31, 0.88, 2.69, -25.74, -43.44)" gradientUnits="userSpaceOnUse"><stop offset="0" stop-color="#84c6df"/><stop offset="0.02" stop-color="#7cbed7"/><stop offset="0.12" stop-color="#5ea0b8"/><stop offset="0.24" stop-color="#45869f"/><stop offset="0.36" stop-color="#32738b"/><stop offset="0.5" stop-color="#24657d"/><stop offset="0.68" stop-color="#1c5d75"/><stop offset="1" stop-color="#1a5b73"/></radialGradient><linearGradient id="linear-gradient-26" x1="37.77" y1="29.4" x2="52.33" y2="20.15" xlink:href="#linear-gradient-6"/><linearGradient id="linear-gradient-27" x1="47.37" y1="21.14" x2="54.19" y2="21.14" xlink:href="#linear-gradient-6"/></defs><title>CATIA _ (C13) LRE - Live Rendering</title><path class="cls-1" d="M8.52,29.59s2.4,4.33,6.24,10.1c1.22,1.83,2.72,3.56,4.2,5.59,1,1.41,3.11,2.22,4.23,3.64L45,42.19,33.91,27.58a31.73,31.73,0,0,1-2.76-3.5Z"/><path class="cls-2" d="M20.13,42.66l-.87-1.12c-.7-.9-1.36-1.75-1.94-2.62-2.38-3.57-4.09-6.5-4.78-7.69L30.13,27a33.66,33.66,0,0,0,2.12,2.63l5.14,6.76Z"/><path class="cls-3" d="M29.91,27.51c.57.79,1.48,1.84,1.95,2.38l4.72,6.21-16.28,6-.64-.83c-.7-.89-1.35-1.74-1.93-2.6-2-3.07-3.6-5.67-4.42-7.08l16.6-4m.46-1.14L11.78,30.9s2,3.56,5.12,8.3c.89,1.34,2,2.62,3.06,4.06l18.23-6.69-5.56-7.32a25.79,25.79,0,0,1-2.26-2.88Z"/><path class="cls-4" d="M28.33,28l-21,7.77a91.67,91.67,0,0,0,17.7,14.61l14.2-2.26L51.71,41.4S36.26,34.8,28.33,28Z"/><path class="cls-2" d="M22.43,46a101.08,101.08,0,0,1-11.7-9.66l17.63-6.53a75.93,75.93,0,0,0,13,8.09Z"/><path class="cls-3" d="M28.27,30.42a74.59,74.59,0,0,0,11.87,7.47L22.49,45.47a101.76,101.76,0,0,1-10.84-8.9l16.62-6.15m.19-1.14L9.82,36.18A98,98,0,0,0,22.38,46.61L42.49,38c-4.49-2.26-10.23-5.45-14-8.69Z"/><polygon class="cls-5" points="11.39 36.51 22.36 45.72 41.48 37.6 20.75 33.05 11.39 36.51"/><path class="cls-6" d="M20.85,44.91c1-3.29,1.32-2.14,4.12-6.91s1.15-5.27,1.15-5.27"/><path class="cls-7" d="M20,44.09c1-3.29,1.31-2.13,4.11-6.91s1.16-5.27,1.16-5.27"/><polygon class="cls-8" points="25.07 50.42 28.16 46.91 39.27 48.16 25.07 50.42"/><polygon class="cls-9" points="22.71 34.83 24.34 36.46 26.79 35.65 25.16 34.02 22.71 34.83"/><polygon class="cls-9" points="23.56 32.39 25.19 34.02 27.64 33.2 26.01 31.57 23.56 32.39"/><polygon class="cls-9" points="26.04 38.06 27.67 39.69 30.12 38.87 28.49 37.24 26.04 38.06"/><path class="cls-10" d="M33.32,41.49a13.25,13.25,0,0,0,4.87-1.67,3.32,3.32,0,0,1,2.67-.54,10,10,0,0,1,2.39.88c3.65,1.46,7.67,2.46,10.37-1.46-2-.77-4-2.45-6.07-3.45A27.76,27.76,0,0,0,36.27,32c-3.64-.1-9-.74-12.71,0-2,.39-4,.71-2,2.51,2.29,2.15,8.59,8.12,8.59,8.12S33.06,41.51,33.32,41.49Z"/><path class="cls-11" d="M34.71,13.84a1.13,1.13,0,0,0-.93.59c-.45.63-.32.82-.32.82l3.31,1.91,6.67-2.25L39.8,14.4l-1.11-.83H35.86l-.73.36Z"/><path class="cls-12" d="M35.58,15.47c0,.4,1,.73,2.29.73s2.28-.33,2.28-.73l-.39-1.26-3.86.07Z"/><path class="cls-13" d="M39.83,14.28c0-.34-.88-.63-2-.63s-2,.29-2,.63.88.63,2,.63S39.83,14.63,39.83,14.28Z"/><path class="cls-14" d="M37,17.28l-3.23-1.74s-.39-.23-.39-.55V16.3l2.53,2.47Z"/><path class="cls-15" d="M49.52,40.34a5,5,0,0,1-2.8-.89c-1.43-.78-5.5-3.22-6.19-3.64l-7.07-13.9V16.63l2.15,2.26a.39.39,0,0,0,.29.13h0a.4.4,0,0,0,.3-.17L37.51,17l3,1.78,1.29,3.87a.38.38,0,0,0,.24.25l7.09,2.6.13,0,7.25-1-2.13,14a.38.38,0,0,0,0,.15s0,.38-.69.64C52.64,39.57,51,40,51,40A4.55,4.55,0,0,1,49.52,40.34Z"/><path class="cls-16" d="M37.63,17.48,40.19,19l1.25,3.74a.79.79,0,0,0,.48.5L49,25.82a.65.65,0,0,0,.27.05h.12l6.65-1L54,38.34a.74.74,0,0,0,0,.21s-.12.15-.42.26c-1.06.38-2.69.85-2.7.85l-.08,0a4.3,4.3,0,0,1-1.28.25,4.58,4.58,0,0,1-2.61-.84c-1.36-.75-5.16-3-6.07-3.57l-7-13.72V17.63l1.46,1.54a.79.79,0,0,0,.58.25H36a.81.81,0,0,0,.6-.34l1.07-1.59m-4.57-1.86V22l7.17,14.1s4.72,2.83,6.3,3.7a5.3,5.3,0,0,0,3,.94,5,5,0,0,0,1.58-.31s1.65-.47,2.75-.87.95-1.1.95-1.1L57,24l-7.72,1.1-7.08-2.6-1.34-4-3.47-2.05L35.9,18.62l-2.84-3Z"/><polygon class="cls-17" points="56.21 22.63 50.62 19.72 43.93 21.29 50.47 25.47 56.77 23.58 56.21 22.63"/><path class="cls-18" d="M42.2,22.47l6.22,2.68a7.31,7.31,0,0,0,3,.63,10.11,10.11,0,0,0,2.13-.31l2.6-.79s.86-.24.86-.87l-.63-1s.55.55-.39.87-2.76.78-2.76.78a10.93,10.93,0,0,1-1.81.24,6.83,6.83,0,0,1-2.36-.39l-5.12-3Z"/><polygon class="cls-19" points="42.59 17.36 39.05 15.39 37.7 16.59 40.86 18.46 42.59 17.36"/><polygon class="cls-20" points="49.36 15.86 50.62 19.72 43.93 21.29 42.59 17.36 49.36 15.86"/><polygon class="cls-21" points="45.58 13.97 39.05 15.39 42.59 17.36 49.36 15.86 45.58 13.97"/><path class="cls-22" d="M47.32,22.19c0,.64,1.37,1.28,3.19,1.43s3.32-.23,3.38-.87l-.2-1.46L48,20.82Z"/><path class="cls-23" d="M35.76,29.06C34.5,25.23,35.05,21.6,37,21s4.53,2,5.78,5.8.71,7.46-1.23,8.1S37,32.9,35.76,29.06Z"/><path class="cls-24" d="M35.43,20.6c1.93-.48,4.4,2.71,5.51,7.14s.45,8.4-1.48,8.89L34.4,38.22c2-.56,2.68-4.85,1.42-9.34s-3.92-7.66-5.93-7.1Z"/><path class="cls-25" d="M34.39,38.22c2-.56,2.68-4.85,1.42-9.34s-3.92-7.66-5.93-7.1l-1.64.54,5.22,15.9Z"/><path class="cls-26" d="M31.33,38.33a2,2,0,0,0,1.48.25C34.71,38,35.22,34,34,29.48s-3.82-7.69-5.72-7.16a1.81,1.81,0,0,0-.95.71l.29-.16c1.89-.53,4.39,2.46,5.58,6.68s.61,8.07-1.29,8.61Z"/><path class="cls-27" d="M31.87,38.16c1.9-.54,2.48-4.39,1.29-8.61s-3.48-7.14-5.37-6.6l-2.53.63,4.18,15.34Z"/><polygon class="cls-28" points="43.93 21.29 42.59 17.36 40.86 18.46 42.2 22.48 43.93 21.29"/><path class="cls-29" d="M29.06,39.27c-1.87,0-4.06-3-5.2-7-1.25-4.45-.72-8.36,1.2-8.9a1.76,1.76,0,0,1,.46-.06c1.87,0,4.05,2.95,5.2,7,1.25,4.45.72,8.36-1.2,8.9A1.76,1.76,0,0,1,29.06,39.27Z"/><path class="cls-30" d="M25.52,23.58c1.69,0,3.81,2.89,4.91,6.81,1.19,4.22.74,8-1,8.53a1.65,1.65,0,0,1-.38,0c-1.69,0-3.81-2.89-4.91-6.82-1.19-4.22-.74-8,1-8.52a1.2,1.2,0,0,1,.38-.05m0-.6a1.9,1.9,0,0,0-.54.07c-2.12.6-2.73,4.58-1.41,9.27,1.18,4.2,3.49,7.25,5.49,7.25a2.42,2.42,0,0,0,.54-.07c2.12-.6,2.72-4.58,1.41-9.27C29.83,26,27.52,23,25.52,23Z"/><path class="cls-31" d="M30.39,36.83a11,11,0,0,1-3.1-5.47c-.71-2.5-.76-4.94-.18-6.35A13.63,13.63,0,0,1,30,30.54,13.3,13.3,0,0,1,30.39,36.83Z"/><path class="cls-3" d="M27.33,26.05a14.85,14.85,0,0,1,2.14,4.63,14.74,14.74,0,0,1,.58,5.14,12.12,12.12,0,0,1-2.28-4.59,11.92,11.92,0,0,1-.44-5.18M27,24.21c-.91,1.34-1,4.21-.17,7.29s2.41,5.38,3.87,6.1c.62-1.57.58-4.28-.24-7.19s-2.14-5.15-3.46-6.2Z"/><path class="cls-32" d="M53.69,21.29c0-.56-1.25-1.09-2.85-1.18s-2.94.3-3,.87,1.25,1.09,2.86,1.18S53.66,21.86,53.69,21.29Z"/><path class="cls-33" d="M26.94,31.77c.81,3,2.29,5.17,3.31,4.85s1.18-3,.37-6-2.29-5.18-3.31-4.86S26.13,28.76,26.94,31.77Zm3.21-1c.63,2.35.5,4.46-.29,4.71s-2-1.45-2.59-3.8-.5-4.46.29-4.71S29.51,28.4,30.15,30.75Z"/><path class="cls-33" d="M28.2,31.24c.44,1.62,1.23,2.78,1.78,2.61s.63-1.62.2-3.24S29,27.83,28.4,28,27.77,29.63,28.2,31.24Z"/><path class="cls-34" d="M27.59,30.63c.45,0,.78-1,.73-2.15s-.46-2.13-.92-2.12-.77,1-.72,2.15S27.14,30.64,27.59,30.63Z"/><path class="cls-35" d="M57,24.2A.41.41,0,0,0,57,24l-.5-.81a.29.29,0,0,1,0,.16l-.31-.53-2.52-1.31v0c.2-.59-.77-1.24-2-1.42l-1-.15-1.26-3.86L45.58,14.2l-4.47.47L39.8,14.4c-.1-.17.11-.33-.38-.6l-.58-.15a5.8,5.8,0,0,0-1-.08c-1,0-2.34,0-2.45.29-.68.11-.45-.08-.81,0-.83.18-1.24,1.29-1.23,1.39v5.94L29.92,22h0l-1.64.54a3.67,3.67,0,0,0-1.09.78L26,23s-.85.16-.89.18c-.76.21-1.57,1.57-1.81,2.8l-15,3.53A47,47,0,0,0,11,34.23L7,35.7A96.08,96.08,0,0,0,25.07,50.65l14.2-2.26,13-6.89A14,14,0,0,1,50.68,41a4.38,4.38,0,0,0,1.7-.68c.49-.15,1-.32,1.47-.48,1.1-.39.95-1.1.95-1.1L57,24.2Z"/><path class="cls-35" d="M56.5,23.23a.61.61,0,0,0-.13-.21Z"/></svg>