<svg id="version_05_ok_copy_2" data-name="version 05 ok copy 2" xmlns="http://www.w3.org/2000/svg" xmlns:xlink="http://www.w3.org/1999/xlink" viewBox="0 0 64 64"><defs><style>.cls-1,.cls-36,.cls-39{fill:#fff;}.cls-1,.cls-40{stroke:#003755;}.cls-1,.cls-38,.cls-39,.cls-41{stroke-linecap:round;stroke-linejoin:round;}.cls-1{stroke-width:0.49px;}.cls-2{fill:#2d6d8b;}.cls-3{isolation:isolate;}.cls-4{fill:url(#linear-gradient);}.cls-5{fill:url(#linear-gradient-2);}.cls-6{fill:url(#linear-gradient-3);}.cls-7{fill:url(#linear-gradient-4);}.cls-8{fill:url(#linear-gradient-5);}.cls-9{fill:url(#linear-gradient-6);}.cls-10{fill:url(#linear-gradient-7);}.cls-11{fill:url(#linear-gradient-8);}.cls-12{fill:url(#linear-gradient-9);}.cls-13{fill:url(#linear-gradient-10);}.cls-14{fill:url(#linear-gradient-11);}.cls-15{fill:url(#linear-gradient-12);}.cls-16{fill:url(#linear-gradient-13);}.cls-17{fill:url(#linear-gradient-14);}.cls-18{fill:url(#linear-gradient-15);}.cls-19{fill:url(#linear-gradient-16);}.cls-20{fill:url(#linear-gradient-17);}.cls-21{fill:url(#linear-gradient-18);}.cls-22{fill:url(#linear-gradient-19);}.cls-23{fill:url(#linear-gradient-20);}.cls-24{fill:url(#linear-gradient-21);}.cls-25{fill:url(#linear-gradient-22);}.cls-26{fill:url(#linear-gradient-23);}.cls-27{fill:url(#linear-gradient-24);}.cls-28{fill:url(#linear-gradient-25);}.cls-29{fill:url(#linear-gradient-26);}.cls-30{fill:url(#linear-gradient-27);}.cls-31{fill:url(#linear-gradient-28);}.cls-32{fill:url(#linear-gradient-29);}.cls-33{fill:url(#linear-gradient-30);}.cls-34{fill:#f1f0f0;}.cls-35{fill:#797979;}.cls-37{fill:#003755;}.cls-38{fill:#5a9ab8;}.cls-38,.cls-39,.cls-41{stroke:#053755;}.cls-38,.cls-40,.cls-41{stroke-width:0.23px;}.cls-39{stroke-width:0.45px;}.cls-40{stroke-miterlimit:10;fill:url(#Medium_BLUE_gradient_FRONT);}.cls-41{fill:#aadcfa;}</style><linearGradient id="linear-gradient" x1="46.12" y1="34.43" x2="52.55" y2="34.09" gradientUnits="userSpaceOnUse"><stop offset="0" stop-color="#323232"/><stop offset="0.11" stop-color="#353535"/><stop offset="0.18" stop-color="#3e3e3e"/><stop offset="0.24" stop-color="#4d4d4d"/><stop offset="0.3" stop-color="#636363"/><stop offset="0.36" stop-color="gray"/><stop offset="0.41" stop-color="#a2a2a2"/><stop offset="0.46" stop-color="#cbcbcb"/><stop offset="0.48" stop-color="#e1e1e1"/><stop offset="0.52" stop-color="#e1e1e1"/><stop offset="0.52" stop-color="#e0e0e0"/><stop offset="0.57" stop-color="silver"/><stop offset="0.63" stop-color="#a6a6a6"/><stop offset="0.7" stop-color="#929292"/><stop offset="0.77" stop-color="#848484"/><stop offset="0.85" stop-color="#7c7c7c"/><stop offset="1" stop-color="#797979"/></linearGradient><linearGradient id="linear-gradient-2" x1="41.14" y1="33.22" x2="47.57" y2="32.89" xlink:href="#linear-gradient"/><linearGradient id="linear-gradient-3" x1="36.12" y1="32.02" x2="42.55" y2="31.68" xlink:href="#linear-gradient"/><linearGradient id="linear-gradient-4" x1="31.13" y1="30.82" x2="37.56" y2="30.48" xlink:href="#linear-gradient"/><linearGradient id="linear-gradient-5" x1="26.15" y1="29.61" x2="32.58" y2="29.28" xlink:href="#linear-gradient"/><linearGradient id="linear-gradient-6" x1="41.7" y1="36.24" x2="48.13" y2="35.9" xlink:href="#linear-gradient"/><linearGradient id="linear-gradient-7" x1="36.7" y1="35.04" x2="43.14" y2="34.7" xlink:href="#linear-gradient"/><linearGradient id="linear-gradient-8" x1="31.73" y1="33.84" x2="38.16" y2="33.5" xlink:href="#linear-gradient"/><linearGradient id="linear-gradient-9" x1="26.71" y1="32.63" x2="33.15" y2="32.3" xlink:href="#linear-gradient"/><linearGradient id="linear-gradient-10" x1="27.31" y1="35.65" x2="33.75" y2="35.32" xlink:href="#linear-gradient"/><linearGradient id="linear-gradient-11" x1="32.29" y1="36.83" x2="38.73" y2="36.5" xlink:href="#linear-gradient"/><linearGradient id="linear-gradient-12" x1="22.31" y1="34.45" x2="28.74" y2="34.11" xlink:href="#linear-gradient"/><linearGradient id="linear-gradient-13" x1="17.3" y1="33.25" x2="23.73" y2="32.91" xlink:href="#linear-gradient"/><linearGradient id="linear-gradient-14" x1="22.88" y1="37.47" x2="29.31" y2="37.13" xlink:href="#linear-gradient"/><linearGradient id="linear-gradient-15" x1="17.9" y1="36.27" x2="24.33" y2="35.93" xlink:href="#linear-gradient"/><linearGradient id="linear-gradient-16" x1="12.86" y1="35.06" x2="19.29" y2="34.73" xlink:href="#linear-gradient"/><linearGradient id="linear-gradient-17" x1="8.46" y1="36.88" x2="14.89" y2="36.55" xlink:href="#linear-gradient"/><linearGradient id="linear-gradient-18" x1="13.47" y1="38.06" x2="19.9" y2="37.72" xlink:href="#linear-gradient"/><linearGradient id="linear-gradient-19" x1="51.09" y1="35.63" x2="57.54" y2="35.29" xlink:href="#linear-gradient"/><linearGradient id="linear-gradient-20" x1="27.87" y1="38.65" x2="34.31" y2="38.31" xlink:href="#linear-gradient"/><linearGradient id="linear-gradient-21" x1="46.67" y1="37.45" x2="53.11" y2="37.11" xlink:href="#linear-gradient"/><linearGradient id="linear-gradient-22" x1="27.87" y1="38.65" x2="34.3" y2="38.31" xlink:href="#linear-gradient"/><linearGradient id="linear-gradient-23" x1="37.25" y1="38.04" x2="43.71" y2="37.7" xlink:href="#linear-gradient"/><linearGradient id="linear-gradient-24" x1="42.21" y1="39.24" x2="48.71" y2="38.9" xlink:href="#linear-gradient"/><linearGradient id="linear-gradient-25" x1="32.87" y1="39.85" x2="39.3" y2="39.51" xlink:href="#linear-gradient"/><linearGradient id="linear-gradient-26" x1="37.81" y1="41.06" x2="44.29" y2="40.72" xlink:href="#linear-gradient"/><linearGradient id="linear-gradient-27" x1="18.46" y1="39.26" x2="24.89" y2="38.93" xlink:href="#linear-gradient"/><linearGradient id="linear-gradient-28" x1="23.43" y1="40.46" x2="29.9" y2="40.13" xlink:href="#linear-gradient"/><linearGradient id="linear-gradient-29" x1="28.44" y1="41.67" x2="34.87" y2="41.33" xlink:href="#linear-gradient"/><linearGradient id="linear-gradient-30" x1="33.41" y1="42.73" x2="39.84" y2="42.73" xlink:href="#linear-gradient"/><linearGradient id="Medium_BLUE_gradient_FRONT" x1="17.23" y1="25.7" x2="38.41" y2="25.7" gradientUnits="userSpaceOnUse"><stop offset="0" stop-color="#8cd7f5"/><stop offset="1" stop-color="#376e8c"/></linearGradient></defs><title>Correctif 02__R21XArtboard 1</title><g id="F_ok_copy_8" data-name="F   ok **** copy 8"><path class="cls-1" d="M38.07,51.82c-1.38-.33-14.56-6.14-20.32-8.58C10.26,40.07,6.29,40.9,6.29,40.9l0-1.7s22.4-6.82,24.29-7c2.17-.15,28.65,7.87,28.65,7.87l0,1.59a23.47,23.47,0,0,0-5.8.73C44.21,45.67,39.08,52.05,38.07,51.82Z"/><path class="cls-2" d="M37.45,49.77c-1.35-.42-10.7-5-16.82-7.27A50.63,50.63,0,0,0,6.25,39.2c-1.45-.16,22-8.41,24.29-8.57s7,2.93,17.77,4.67c4.57.74,10.86,4.79,10.86,4.79a26.48,26.48,0,0,0-5.8.73C44.14,43.82,38.43,50.07,37.45,49.77Z"/></g><g id="plaque_a_trou_ok_" data-name="plaque a trou ok ***" class="cls-3"><g id="SURF_" data-name="SURF **"><path class="cls-4" d="M50.16,35.92a2.25,2.25,0,0,0,2.35-2.14v-.37c0-.1-.1-.21-.29-.29a1.82,1.82,0,0,0-.33-.11l-1.49-.36a4.45,4.45,0,0,0-2.39.13l-1.53.63c-.27.11-.39.24-.39.36h0a2.25,2.25,0,0,0,2.35,2.14Z"/></g><g id="SURF_2" data-name="SURF **"><path class="cls-5" d="M45.18,34.72a2.25,2.25,0,0,0,2.35-2.14v-.37c0-.11-.1-.21-.29-.3a1.87,1.87,0,0,0-.33-.1l-1.49-.36a4.45,4.45,0,0,0-2.39.13l-1.53.63c-.27.11-.4.24-.4.36h0a2.26,2.26,0,0,0,2.36,2.14Z"/></g><g id="SURF_3" data-name="SURF **"><path class="cls-6" d="M40.16,33.51a2.26,2.26,0,0,0,2.36-2.14V31c0-.11-.1-.22-.3-.3a1.69,1.69,0,0,0-.32-.11l-1.5-.36a4.67,4.67,0,0,0-2.39.13L36.48,31c-.27.11-.39.24-.39.37h0a2.25,2.25,0,0,0,2.35,2.14Z"/></g><g id="SURF_4" data-name="SURF **"><path class="cls-7" d="M35.17,32.31a2.25,2.25,0,0,0,2.35-2.14v-.36c0-.11-.1-.22-.3-.3a1.48,1.48,0,0,0-.32-.11L35.41,29a4.65,4.65,0,0,0-2.39.13l-1.53.63c-.27.11-.4.24-.4.37h0a2.26,2.26,0,0,0,2.36,2.14Z"/></g><g id="SURF_5" data-name="SURF **"><path class="cls-8" d="M30.19,31.11A2.25,2.25,0,0,0,32.54,29V28.6c0-.1-.1-.21-.29-.29a1.82,1.82,0,0,0-.33-.11l-1.49-.36A4.45,4.45,0,0,0,28,28l-1.53.63c-.27.11-.39.24-.39.36h0a2.25,2.25,0,0,0,2.35,2.14Z"/></g><g id="SURF_6" data-name="SURF **"><path class="cls-9" d="M45.74,37.73a2.26,2.26,0,0,0,2.36-2.14v-.36q0-.16-.3-.3l-.32-.11L46,34.46a4.66,4.66,0,0,0-2.39.13l-1.53.63c-.27.11-.39.24-.39.37h0A2.25,2.25,0,0,0,44,37.73Z"/></g><g id="SURF_7" data-name="SURF **"><path class="cls-10" d="M40.75,36.53a2.25,2.25,0,0,0,2.35-2.14V34c0-.1-.1-.21-.3-.29a1.48,1.48,0,0,0-.32-.11L41,33.26a4.55,4.55,0,0,0-2.39.13L37.07,34c-.27.11-.4.24-.4.36h0A2.26,2.26,0,0,0,39,36.53Z"/></g><g id="SURF_8" data-name="SURF **"><path class="cls-11" d="M35.77,35.33a2.25,2.25,0,0,0,2.35-2.14v-.36c0-.11-.1-.22-.3-.3a1.48,1.48,0,0,0-.32-.11L36,32.06a4.55,4.55,0,0,0-2.39.13l-1.53.63c-.27.11-.4.24-.4.37h0a2.26,2.26,0,0,0,2.36,2.14Z"/></g><g id="SURF_9" data-name="SURF **"><path class="cls-12" d="M30.76,34.13A2.25,2.25,0,0,0,33.11,32v-.37q0-.16-.3-.3a1.74,1.74,0,0,0-.32-.1L31,30.86A4.46,4.46,0,0,0,28.6,31l-1.53.63c-.27.11-.39.24-.39.36h0A2.26,2.26,0,0,0,29,34.13Z"/></g><g id="SURF_10" data-name="SURF **"><path class="cls-13" d="M31.36,37.15A2.25,2.25,0,0,0,33.71,35v-.37c0-.1-.1-.21-.3-.3a2.49,2.49,0,0,0-.32-.1l-1.49-.36a4.45,4.45,0,0,0-2.39.13l-1.53.63c-.27.11-.4.24-.4.36h0a2.26,2.26,0,0,0,2.36,2.14Z"/></g><g id="SURF_11" data-name="SURF **"><path class="cls-14" d="M36.34,38.33a2.25,2.25,0,0,0,2.35-2.14v-.37q0-.16-.3-.3a1.52,1.52,0,0,0-.32-.1l-1.49-.36a4.49,4.49,0,0,0-2.4.13l-1.53.63c-.27.11-.39.24-.39.36h0a2.26,2.26,0,0,0,2.36,2.14Z"/></g><g id="SURF_12" data-name="SURF **"><path class="cls-15" d="M26.35,35.94A2.25,2.25,0,0,0,28.7,33.8v-.36c0-.11-.1-.21-.29-.3a1.87,1.87,0,0,0-.33-.1l-1.49-.37a4.65,4.65,0,0,0-2.39.13l-1.53.63c-.27.11-.4.24-.4.37h0a2.26,2.26,0,0,0,2.36,2.14Z"/></g><g id="SURF_13" data-name="SURF **"><path class="cls-16" d="M21.35,34.74A2.25,2.25,0,0,0,23.7,32.6v-.36c0-.11-.1-.22-.3-.3a1.69,1.69,0,0,0-.32-.11l-1.5-.36a4.67,4.67,0,0,0-2.39.13l-1.53.63c-.27.11-.39.24-.39.37h0a2.26,2.26,0,0,0,2.36,2.14Z"/></g><g id="SURF_14" data-name="SURF **"><path class="cls-17" d="M26.92,39a2.26,2.26,0,0,0,2.36-2.14v-.37c0-.1-.11-.21-.3-.29a2,2,0,0,0-.32-.11l-1.5-.36a4.55,4.55,0,0,0-2.39.13l-1.53.63c-.27.11-.39.24-.39.36h0A2.25,2.25,0,0,0,25.2,39Z"/></g><g id="SURF_15" data-name="SURF **"><path class="cls-18" d="M21.94,37.76a2.25,2.25,0,0,0,2.35-2.14v-.37c0-.1-.1-.21-.29-.29a1.82,1.82,0,0,0-.33-.11l-1.49-.36a4.45,4.45,0,0,0-2.39.13l-1.53.63c-.27.11-.4.24-.4.36h0a2.26,2.26,0,0,0,2.36,2.14Z"/></g><g id="SURF_16" data-name="SURF **"><path class="cls-19" d="M16.9,36.56a2.26,2.26,0,0,0,2.36-2.14v-.37c0-.1-.1-.21-.3-.29a1.69,1.69,0,0,0-.32-.11l-1.5-.36a4.46,4.46,0,0,0-2.39.13l-1.53.63c-.27.11-.39.24-.39.36h0a2.25,2.25,0,0,0,2.35,2.14Z"/></g><g id="SURF_17" data-name="SURF **"><path class="cls-20" d="M12.5,38.38a2.26,2.26,0,0,0,2.36-2.14v-.37q0-.16-.3-.3a2,2,0,0,0-.32-.1l-1.5-.36a4.45,4.45,0,0,0-2.39.13l-1.53.62c-.27.12-.39.25-.39.37h0a2.25,2.25,0,0,0,2.35,2.15Z"/></g><g id="SURF_18" data-name="SURF **"><path class="cls-21" d="M17.6,39.53a2.28,2.28,0,0,0,2.26-2.18v-.28c0-.11-.1-.21-.29-.3a1.87,1.87,0,0,0-.33-.1l-1.49-.36a4.45,4.45,0,0,0-2.39.13l-1.53.63c-.27.11-.39.24-.39.36h0A2.31,2.31,0,0,0,16,39.61Z"/></g><g id="SURF_19" data-name="SURF **"><path class="cls-22" d="M55.13,37.13A2.28,2.28,0,0,0,57.51,35v-.37q0-.16-.3-.3a2,2,0,0,0-.32-.1l-1.52-.37A4.45,4.45,0,0,0,53,34l-1.53.62c-.27.12-.39.25-.39.37h0a2.25,2.25,0,0,0,2.35,2.15Z"/></g><g id="SURF_20" data-name="SURF **"><path class="cls-23" d="M32,40.12a2.28,2.28,0,0,0,2.26-2.18v-.28c0-.11-.1-.21-.29-.3a1.87,1.87,0,0,0-.33-.1l-1.49-.37a4.65,4.65,0,0,0-2.39.13l-1.53.63c-.27.11-.4.24-.4.37h0a2.32,2.32,0,0,0,2.53,2.18Z"/></g><g id="SURF_21" data-name="SURF **"><path class="cls-24" d="M50.71,38.94a2.26,2.26,0,0,0,2.36-2.14c0-.2,0-.34,0-.37s-.1-.21-.3-.3a1.69,1.69,0,0,0-.32-.11L51,35.67a4.67,4.67,0,0,0-2.39.13L47,36.43c-.27.11-.39.24-.39.37h0A2.26,2.26,0,0,0,49,38.94Z"/></g><g id="SURF_22" data-name="SURF **"><path class="cls-25" d="M32,40.12a2.29,2.29,0,0,0,2.27-2.18v-.28q0-.16-.3-.3a1.74,1.74,0,0,0-.32-.1l-1.5-.37a4.67,4.67,0,0,0-2.39.13l-1.53.63c-.27.11-.39.24-.39.37h0a2.31,2.31,0,0,0,2.53,2.18Z"/></g><g id="SURF_23" data-name="SURF **"><path class="cls-26" d="M41.39,39.51a2.27,2.27,0,0,0,2.26-2.17,2.55,2.55,0,0,1,0-.29c0-.11-.1-.22-.3-.3a1.48,1.48,0,0,0-.32-.11l-1.49-.36a4.62,4.62,0,0,0-2.41.14l-1.53.63c-.27.11-.4.24-.4.36h0a2.31,2.31,0,0,0,2.53,2.17Z"/></g><g id="SURF_24" data-name="SURF **"><path class="cls-27" d="M46.35,40.71a2.36,2.36,0,0,0,2.33-2.18c0-.15,0-.26,0-.28s-.1-.22-.29-.3a2,2,0,0,0-.32-.11l-1.56-.37a4.51,4.51,0,0,0-2.38.16l-1.54.63c-.27.11-.39.29-.39.42h0a2.26,2.26,0,0,0,2.52,2.11Z"/></g><g id="SURF_25" data-name="SURF **"><path class="cls-28" d="M37,41.32a2.28,2.28,0,0,0,2.26-2.18v-.28c0-.11-.1-.21-.29-.3a1.87,1.87,0,0,0-.33-.1l-1.49-.36a4.45,4.45,0,0,0-2.39.13l-1.53.62c-.27.12-.39.25-.39.37h0a2.31,2.31,0,0,0,2.52,2.18Z"/></g><g id="SURF_26" data-name="SURF **"><path class="cls-29" d="M42,42.54a2.34,2.34,0,0,0,2.3-2.2v-.28q0-.16-.3-.3a1.52,1.52,0,0,0-.32-.1l-1.53-.37a4.59,4.59,0,0,0-2.4.15l-1.53.63c-.27.11-.39.24-.39.37h0a2.32,2.32,0,0,0,2.53,2.18Z"/></g><g id="SURF_27" data-name="SURF **"><path class="cls-30" d="M22.59,40.73a2.27,2.27,0,0,0,2.26-2.17v-.29c0-.11-.1-.22-.29-.3a1.82,1.82,0,0,0-.33-.11l-1.49-.35a4.55,4.55,0,0,0-2.39.13l-1.53.63c-.27.11-.39.24-.39.36h0A2.3,2.3,0,0,0,21,40.81Z"/></g><g id="SURF_28" data-name="SURF **"><path class="cls-31" d="M27.57,41.93a2.31,2.31,0,0,0,2.29-2.18v-.28c0-.11-.13-.22-.32-.3a1.94,1.94,0,0,0-.34-.11l-1.48-.35a4.55,4.55,0,0,0-2.39.13l-1.53.64c-.27.11-.4.24-.4.36h0A2.3,2.3,0,0,0,25.93,42Z"/></g><g id="SURF_29" data-name="SURF **"><path class="cls-32" d="M32.57,43.14A2.29,2.29,0,0,0,34.84,41v-.28q0-.16-.3-.3a1.69,1.69,0,0,0-.32-.11l-1.5-.36a4.67,4.67,0,0,0-2.39.13l-1.53.63c-.27.11-.39.24-.39.37h0a2.31,2.31,0,0,0,2.52,2.18Z"/></g><g id="SURF_30" data-name="SURF **"><path class="cls-33" d="M38,44.32a1.9,1.9,0,0,0,1.89-1.82v-.62c0-.11-.11-.21-.3-.3a2,2,0,0,0-.32-.1l-1.5-.37a4.66,4.66,0,0,0-2.39.13l-1.53.63c-.27.11-.39.24-.39.37v.38a1.94,1.94,0,0,0,2.11,1.82Z"/></g><path id="SURF_OK" data-name="SURF ** OK" class="cls-34" d="M38.24,43.51a4.7,4.7,0,0,1-2.4.13L7,36.7a1.58,1.58,0,0,1-.31-.11c-.42-.18-.41-.45.08-.66l21-8.6a4.42,4.42,0,0,1,2.38-.13l28.84,6.94.38.1c.42.19.4.43-.09.63Zm-12.7-2.92a4.55,4.55,0,0,0,2.39-.13l1.53-.63c.5-.2.52-.47.1-.66l-.32-.1-1.51-.36a4.56,4.56,0,0,0-2.39.13l-1.53.63c-.49.2-.5.47-.08.66l.31.1,1.5.36m1.62-4.9a4.59,4.59,0,0,0-2.4.13l-1.53.63c-.49.2-.5.47-.08.66a1.89,1.89,0,0,0,.31.1l1.5.36a4.49,4.49,0,0,0,2.4-.13l1.53-.63c.49-.2.51-.47.09-.65a2,2,0,0,0-.32-.11l-1.5-.36m25.54,1.1c.49-.21.51-.47.09-.66a1.52,1.52,0,0,0-.32-.1L51,35.67a4.45,4.45,0,0,0-2.39.13l-1.53.63c-.49.2-.51.47-.09.65a1.85,1.85,0,0,0,.31.11l1.5.36a4.69,4.69,0,0,0,2.4-.13l1.53-.63m-2.31-4.14a4.56,4.56,0,0,0-2.39.13l-1.53.63c-.49.2-.51.47-.09.66a1.74,1.74,0,0,0,.32.1l1.49.36a4.58,4.58,0,0,0,2.4-.13l1.53-.63c.5-.2.51-.47.09-.66a2.49,2.49,0,0,0-.32-.1l-1.5-.36m-23.9-4c-.49.2-.5.47-.08.66a1.89,1.89,0,0,0,.31.1l1.5.36a4.49,4.49,0,0,0,2.4-.13L32.15,29c.49-.2.51-.47.09-.65a2,2,0,0,0-.32-.11l-1.5-.36A4.59,4.59,0,0,0,28,28l-1.53.63M20.54,39.39a4.7,4.7,0,0,0,2.4-.13l1.53-.63c.49-.21.51-.47.09-.66a1.74,1.74,0,0,0-.32-.1l-1.5-.36a4.56,4.56,0,0,0-2.39.12l-1.53.64c-.49.2-.51.47-.09.65a1.69,1.69,0,0,0,.32.11l1.49.36M46,34.47a4.56,4.56,0,0,0-2.39.12l-1.54.63c-.49.21-.5.47-.09.66a1.87,1.87,0,0,0,.33.1l1.49.37a4.65,4.65,0,0,0,2.39-.13l1.54-.64c.49-.2.51-.46.09-.65a1.87,1.87,0,0,0-.33-.1L46,34.47m-23.82,0a4.46,4.46,0,0,0-2.39.13l-1.53.63c-.49.2-.51.47-.09.65a2,2,0,0,0,.32.11l1.5.36a4.55,4.55,0,0,0,2.39-.13l1.54-.63c.49-.2.5-.47.08-.66a2.49,2.49,0,0,0-.32-.1l-1.5-.36m-.08-4.07c-.49.2-.51.47-.09.65a1.74,1.74,0,0,0,.32.1l1.49.37a4.7,4.7,0,0,0,2.4-.13l1.53-.63c.49-.21.51-.47.09-.66a1.74,1.74,0,0,0-.32-.1L26,29.66a4.56,4.56,0,0,0-2.39.12l-1.53.64m26.2,8.18c.5-.2.51-.47.1-.65a1.82,1.82,0,0,0-.33-.11l-1.49-.36a4.55,4.55,0,0,0-2.39.13l-1.54.63c-.49.2-.5.47-.09.66a2,2,0,0,0,.32.1l1.49.36a4.48,4.48,0,0,0,2.4-.13l1.53-.63m-21.7-5.92a4.6,4.6,0,0,0-2.4.12l-1.52.63c-.49.21-.51.47-.09.66a1.74,1.74,0,0,0,.32.1l1.49.36a4.59,4.59,0,0,0,2.4-.12l1.53-.63c.49-.21.51-.48.09-.66a1.69,1.69,0,0,0-.32-.11l-1.5-.35m28.81,1.17A4.6,4.6,0,0,0,53,34l-1.52.63c-.5.2-.52.47-.1.66a2,2,0,0,0,.32.1l1.5.36a4.5,4.5,0,0,0,2.4-.13L57.12,35c.49-.2.5-.47.08-.65a1.58,1.58,0,0,0-.31-.11l-1.5-.36m-27.74.79c-.49.2-.51.47-.09.65a1.48,1.48,0,0,0,.32.11l1.5.36a4.67,4.67,0,0,0,2.39-.13L33.3,35c.5-.21.51-.47.09-.66a1.89,1.89,0,0,0-.31-.1l-1.51-.36a4.46,4.46,0,0,0-2.39.13l-1.53.63m-.58-3c-.49.2-.5.47-.08.66l.31.1,1.5.36a4.7,4.7,0,0,0,2.4-.13L32.72,32c.5-.2.52-.47.1-.66a2,2,0,0,0-.32-.1L31,30.86A4.46,4.46,0,0,0,28.6,31l-1.53.63m5.08,5.27a4.66,4.66,0,0,0-2.39.13l-1.53.63c-.5.21-.51.47-.1.66a1.87,1.87,0,0,0,.33.1l1.5.36a4.56,4.56,0,0,0,2.39-.12L33.88,38c.49-.21.51-.48.09-.66a1.85,1.85,0,0,0-.31-.11l-1.51-.36M35.41,29a4.66,4.66,0,0,0-2.39.13l-1.53.63c-.5.21-.51.47-.1.66a1.87,1.87,0,0,0,.33.1l1.5.36a4.46,4.46,0,0,0,2.39-.13l1.53-.63c.49-.2.51-.47.09-.65a1.85,1.85,0,0,0-.31-.11L35.41,29m.58,3a4.55,4.55,0,0,0-2.39.13l-1.53.63c-.5.2-.52.47-.1.66l.33.1,1.5.36a4.56,4.56,0,0,0,2.39-.13l1.53-.63c.49-.2.51-.47.09-.66a3.12,3.12,0,0,0-.32-.1L36,32.06m1.64,5c-.49.2-.5.47-.08.65a1.48,1.48,0,0,0,.32.11l1.49.36A4.45,4.45,0,0,0,41.75,38l1.54-.63c.49-.2.51-.47.09-.65a2,2,0,0,0-.32-.11l-1.49-.36a4.59,4.59,0,0,0-2.4.13L37.63,37M41,33.26a4.65,4.65,0,0,0-2.39.13L37.06,34c-.49.2-.51.47-.09.66a1.52,1.52,0,0,0,.32.1l1.5.36A4.46,4.46,0,0,0,41.18,35l1.53-.63c.49-.2.51-.47.09-.65a1.69,1.69,0,0,0-.32-.11L41,33.26m-23.33-1c-.49.2-.51.47-.09.66l.32.1,1.5.36a4.45,4.45,0,0,0,2.39-.13l1.54-.63c.49-.2.51-.47.09-.65a1.82,1.82,0,0,0-.33-.11l-1.49-.36a4.65,4.65,0,0,0-2.39.13l-1.54.63m22.75-2a4.65,4.65,0,0,0-2.39.13L36.48,31c-.49.2-.51.46-.09.65a1.74,1.74,0,0,0,.32.1l1.5.36A4.56,4.56,0,0,0,40.6,32l1.53-.64c.49-.2.51-.46.09-.65a1.74,1.74,0,0,0-.32-.1l-1.49-.37M37.15,38.1a4.45,4.45,0,0,0-2.39.13l-1.54.63c-.49.2-.51.46-.09.65a1.74,1.74,0,0,0,.32.1L35,40a4.67,4.67,0,0,0,2.39-.13l1.53-.63c.49-.21.51-.47.09-.66a1.74,1.74,0,0,0-.32-.1l-1.49-.36m6.72,2.32c.49-.2.51-.47.09-.66a2,2,0,0,0-.32-.1l-1.49-.36a4.49,4.49,0,0,0-2.4.13l-1.54.63c-.49.2-.5.47-.09.65a1.82,1.82,0,0,0,.33.11l1.49.36a4.65,4.65,0,0,0,2.39-.13l1.54-.63M15.55,38.19a4.66,4.66,0,0,0,2.39-.13l1.54-.63c.49-.21.51-.47.09-.66a1.87,1.87,0,0,0-.33-.1l-1.49-.37a4.67,4.67,0,0,0-2.39.13l-1.54.63c-.49.21-.5.47-.09.66a2,2,0,0,0,.32.1l1.5.37m29.86-6.74a4.59,4.59,0,0,0-2.4.12l-1.54.64c-.49.2-.5.47-.09.65a1.82,1.82,0,0,0,.33.11l1.49.36a4.65,4.65,0,0,0,2.39-.13l1.54-.63c.49-.21.51-.47.09-.66a2,2,0,0,0-.32-.1l-1.49-.36M32.64,35.84c-.49.2-.51.47-.09.65a1.82,1.82,0,0,0,.33.11l1.49.36a4.67,4.67,0,0,0,2.39-.13l1.53-.63c.5-.2.51-.47.1-.65a2,2,0,0,0-.32-.11l-1.5-.36a4.45,4.45,0,0,0-2.39.13l-1.54.63M35.52,43a4.49,4.49,0,0,0,2.4-.13l1.53-.63c.49-.2.51-.47.09-.65a1.69,1.69,0,0,0-.32-.11l-1.49-.36a4.7,4.7,0,0,0-2.4.13l-1.53.63c-.5.21-.51.47-.09.66a1.52,1.52,0,0,0,.32.1l1.49.36M13.25,34.05c-.5.2-.51.47-.1.65a1.82,1.82,0,0,0,.33.11l1.49.36A4.65,4.65,0,0,0,17.36,35l1.54-.63c.49-.21.51-.47.09-.66a1.87,1.87,0,0,0-.33-.1l-1.49-.36a4.46,4.46,0,0,0-2.39.13l-1.53.63m17.29,7.74a4.52,4.52,0,0,0,2.38-.13L34.46,41c.49-.2.51-.47.09-.65a2,2,0,0,0-.32-.11l-1.5-.36a4.66,4.66,0,0,0-2.39.13l-1.53.63c-.5.2-.52.47-.1.66a1.87,1.87,0,0,0,.33.1l1.5.36M10.56,37a4.42,4.42,0,0,0,2.38-.13l1.54-.63c.5-.2.51-.47.09-.65a1.52,1.52,0,0,0-.32-.1l-1.49-.37a4.7,4.7,0,0,0-2.4.13l-1.52.63c-.5.2-.52.47-.1.66a2,2,0,0,0,.32.1l1.5.36"/><g id="contour"><path class="cls-35" d="M29.15,27.1a4,4,0,0,1,1,.1l28.84,6.94.38.1c.42.19.4.43-.09.63l-21,8.64a4.64,4.64,0,0,1-2.4.13L7,36.7a1.58,1.58,0,0,1-.31-.11c-.42-.18-.41-.45.08-.66l21-8.6a4,4,0,0,1,1.43-.23m0-.46a4.4,4.4,0,0,0-1.61.27L6.6,35.51c-.55.23-.67.55-.67.77A.8.8,0,0,0,6.5,37a2.54,2.54,0,0,0,.39.13l28.84,6.94a5,5,0,0,0,1.07.11,4.45,4.45,0,0,0,1.61-.26l21-8.64c.43-.18.66-.43.66-.75s-.09-.5-.57-.71a2.09,2.09,0,0,0-.4-.12h-.05L30.21,26.76a4.29,4.29,0,0,0-1.06-.12Z"/></g></g><g id="BAS_OK_" data-name="BAS OK ***"><g id="AA_BAS" data-name="AA  BAS"><path class="cls-36" d="M25.8,35.36l-.29,0c-2.7-.28-17.52-4.23-19.27-4.7V29.2c1.24,0,7.09-.18,11.43-1.78a81.92,81.92,0,0,0,11.21-5,74.23,74.23,0,0,0,12.63,4.31,45.08,45.08,0,0,0,10.54,1.07c3.12,0,5.64-.22,6.42-.3v1.6a72.06,72.06,0,0,1-9.94,4.35l-.73,0a14.58,14.58,0,0,1-6.58-1.91,13.26,13.26,0,0,0-5.91-1.76,9.61,9.61,0,0,0-1.31.09,8,8,0,0,0-5.51,3.54C27.65,34.52,27,35.36,25.8,35.36Z"/><path class="cls-37" d="M28.89,22.71A75.83,75.83,0,0,0,41.46,27a45.43,45.43,0,0,0,10.59,1.08c2.85,0,5.2-.19,6.19-.28V29a71.66,71.66,0,0,1-9.72,4.26l-.72,0a14.51,14.51,0,0,1-6.48-1.88,13.7,13.7,0,0,0-6-1.79,8.76,8.76,0,0,0-1.35.1,8.2,8.2,0,0,0-5.65,3.62c-.83,1-1.43,1.81-2.51,1.81h-.27c-2.61-.27-16.7-4-19.06-4.66v-1a39.1,39.1,0,0,0,11.28-1.79,85.88,85.88,0,0,0,11.14-4.92m0-.51a80.24,80.24,0,0,1-11.28,5C12.8,29,6,29,6,29v1.84s16.57,4.46,19.47,4.76h.32c2.95,0,2.88-4.63,8.23-5.43a8.16,8.16,0,0,1,1.28-.1c4.5,0,7.34,3.68,12.49,3.68l.8,0a72.88,72.88,0,0,0,10.09-4.44v-2a66.15,66.15,0,0,1-6.65.32,45.48,45.48,0,0,1-10.48-1.06,73.13,73.13,0,0,1-12.7-4.34Z"/></g><g id="AA_TOP" data-name="AA TOP"><path class="cls-2" d="M25.4,33.87c-2.45,0-12.42-2.81-16.67-4L7,29.39C6.06,29.16,6,29,6,29c0-.31,2-.81,3.91-1.29a70.34,70.34,0,0,0,7.69-2.24,82.85,82.85,0,0,0,11.25-5,74,74,0,0,0,12.66,4.32,85.36,85.36,0,0,0,14.1,2.09,11.46,11.46,0,0,1,3,.4h0a1.19,1.19,0,0,1-.3.2A73.88,73.88,0,0,1,48.29,32h-.18a17.21,17.21,0,0,1-6.45-1.68A17.66,17.66,0,0,0,35,28.61a10.28,10.28,0,0,0-1.47.11,7.92,7.92,0,0,0-5.5,3.38c-.79,1-1.42,1.77-2.61,1.77Z"/><path class="cls-37" d="M28.88,20.6a75.63,75.63,0,0,0,12.63,4.3A83.69,83.69,0,0,0,55.63,27a22.88,22.88,0,0,1,2.82.31.74.74,0,0,1-.13.08,76.78,76.78,0,0,1-10,4.5h-.18a17.24,17.24,0,0,1-6.41-1.67A17.63,17.63,0,0,0,35,28.5a10.56,10.56,0,0,0-1.49.11A8,8,0,0,0,28,32c-.77,1-1.39,1.72-2.52,1.72H25.4C23,33.7,13,31,8.75,29.77L7,29.28A2.18,2.18,0,0,1,6.16,29,17.65,17.65,0,0,1,10,27.8a72.76,72.76,0,0,0,7.7-2.24,84,84,0,0,0,11.21-5m0-.26a80.24,80.24,0,0,1-11.28,5C10.77,27.86,3.15,28.51,6.92,29.5c2.16.58,15.55,4.42,18.47,4.48h.06c2.86,0,2.63-4.32,8.13-5.14A9,9,0,0,1,35,28.73c4.73,0,8.42,3.38,13.08,3.38h.22a77.45,77.45,0,0,0,10.09-4.53c2.18-1.14-5.91-.22-16.85-2.9a73.13,73.13,0,0,1-12.7-4.34Z"/></g><path id="aa_N" data-name="aa  N" class="cls-38" d="M48.82,33.55c-5.24.12-9.22-4.34-14.75-3.51s-5.64,5.37-8.55,5.31a6,6,0,0,1-.75-.06s6.13.72,11,.72C41.64,36,44.83,34.51,48.82,33.55Z"/></g><g id="TOP"><path id="BB2_OK" data-name="BB2 OK" class="cls-39" d="M58.28,21.39s-13.94,4.92-19.87,5.68c-4.74.18-8.89-3.64-12.37-3.68-3,0-5.88,4.44-10.11,3.25-2.8-.78-10.09-3.39-10.09-3.39V21.59A58,58,0,0,0,16.48,18.8a73.24,73.24,0,0,0,9.64-4.94s8.19,4.39,13.9,5.25c7.62,1.15,18.44.52,18.44.52Z"/><path id="bbb_...." data-name="bbb    ...." class="cls-40" d="M38.41,27.12c-5.24.12-9.23-4.43-13.55-3.72-4.83.79-4.54,3.66-7.63,3.41a33,33,0,0,0,9.27,1.26A45.63,45.63,0,0,0,38.41,27.12Z"/><path id="bb2_top_...." data-name="bb2 top**      ...." class="cls-41" d="M58.46,19.63S44.34,25,38.41,25.71c-5.24.12-8-4.68-13.55-3.85s-4.72,3.37-7.63,3.31-9.39-2.72-11.4-3.58c-1.09-.46,4.92-1.85,10.65-4.16,4.75-1.92,8.24-5,9.64-4.94s8.19,4.39,13.9,5.25C49.85,19.22,58.46,19.63,58.46,19.63Z"/></g></svg>