<svg xmlns="http://www.w3.org/2000/svg" xmlns:xlink="http://www.w3.org/1999/xlink" viewBox="0 0 64 64"><defs><linearGradient id="linear-gradient" x1="18.15" y1="29.34" x2="12.36" y2="19.3" gradientUnits="userSpaceOnUse"><stop offset="0" stop-color="#d7d7d7"/><stop offset="1" stop-color="#969696"/></linearGradient><linearGradient id="linear-gradient-2" x1="14.88" y1="30.66" x2="21.11" y2="41.45" xlink:href="#linear-gradient"/><linearGradient id="linear-gradient-3" x1="33.11" y1="18.2" x2="46.62" y2="41.59" xlink:href="#linear-gradient"/><linearGradient id="linear-gradient-4" x1="20.42" y1="26.1" x2="35.53" y2="52.28" gradientUnits="userSpaceOnUse"><stop offset="0" stop-color="#f5f6f6"/><stop offset="0.99" stop-color="#bfbebe"/></linearGradient><linearGradient id="linear-gradient-5" x1="25.95" y1="18.98" x2="29.15" y2="24.53" gradientUnits="userSpaceOnUse"><stop offset="0" stop-color="#fff"/><stop offset="1" stop-color="#f1f0f0"/></linearGradient><linearGradient id="linear-gradient-6" x1="40.38" y1="38.95" x2="45.86" y2="48.46" gradientUnits="userSpaceOnUse"><stop offset="0" stop-color="#fff"/><stop offset="1" stop-color="#d2d3d3"/></linearGradient><linearGradient id="linear-gradient-7" x1="18.19" y1="34.21" x2="30.61" y2="55.72" xlink:href="#linear-gradient"/><linearGradient id="linear-gradient-8" x1="47.04" y1="45.47" x2="50.54" y2="51.54" xlink:href="#linear-gradient"/><linearGradient id="linear-gradient-9" x1="52" y1="31.36" x2="43.71" y2="17.01" gradientUnits="userSpaceOnUse"><stop offset="0" stop-color="#2a5b79"/><stop offset="1" stop-color="#3388b0"/></linearGradient><linearGradient id="linear-gradient-10" x1="34.57" y1="32.25" x2="30.37" y2="24.98" gradientUnits="userSpaceOnUse"><stop offset="0" stop-color="#386f8d"/><stop offset="1" stop-color="#8dd7f4"/></linearGradient><linearGradient id="linear-gradient-11" x1="40.07" y1="39.46" x2="36.15" y2="32.66" xlink:href="#linear-gradient-10"/></defs><title>CATLO1_AP_AppIcon</title><g id="Layer_9" data-name="Layer 9"><rect x="24" y="9" width="1" height="8" fill="#141414"/><polygon points="6 16.5 10 11.5 10 18.5 6 16.5" fill="#141414"/><polygon points="21 9 25 12 21 16 21 9" fill="#141414"/><rect x="6" y="13.5" width="1" height="9" fill="#141414"/><polygon points="6.5 21.5 6.5 33.5 24.5 26.5 24.5 16 6.5 21.5" stroke="#323232" stroke-linecap="round" stroke-linejoin="round" fill="url(#linear-gradient)"/><polygon points="6.5 33.5 16.5 45.5 23.5 34.5 22.5 26.5 6.5 33.5" stroke="#323232" stroke-linecap="round" stroke-linejoin="round" fill="url(#linear-gradient-2)"/><polygon points="32 14.5 43.5 17.5 41.5 27.5 52 30.5 48.5 43.5 29 31.5 30.5 20.5 32 14.5" stroke="#323232" stroke-linecap="round" stroke-linejoin="round" fill="url(#linear-gradient-3)"/></g><g id="Layer_7_copy" data-name="Layer 7 copy"><line x1="9" y1="15" x2="23" y2="12" fill="none" stroke="#141414" stroke-miterlimit="10" stroke-width="2"/><polygon points="16.5 23.5 37.5 29.5 37.5 54.5 16.5 45.5 16.5 23.5" stroke="#797979" stroke-linecap="round" stroke-linejoin="round" fill="url(#linear-gradient-4)"/><polygon points="16.5 23.5 30.5 18.5 38.5 19.83 26.5 26.5 16.5 23.5" stroke="#797979" stroke-linecap="round" stroke-linejoin="round" fill="url(#linear-gradient-5)"/><polygon points="37.5 54.5 37.5 41.5 48.5 32.5 48.5 43.5 37.5 54.5" stroke="#797979" stroke-linecap="round" stroke-linejoin="round" fill="url(#linear-gradient-6)"/><polygon points="30.5 18.5 16.5 23.5 16.5 45.5 37.5 54.5 48.5 43.5 48.5 32.5 38.5 30.5 38.5 19.83 30.5 18.5" fill="none" stroke="#333332" stroke-linecap="round" stroke-linejoin="round"/></g><g id="Layer_10" data-name="Layer 10"><polygon points="56.14 11.5 55.36 14.49 54 12.11 53.5 13.93 48.49 12.49 49 10.61 46.36 12.12 47.11 9.25 46.14 9 43.39 19.47 44.36 19.72 46 13.48 47.5 16.11 47.96 14.43 52.98 15.86 52.5 17.61 54.9 16.24 53.39 21.97 54.36 22.22 57.11 11.75 56.14 11.5" fill="#141414" fill-rule="evenodd"/><polygon points="60.5 32.03 57.51 31.25 59.89 29.89 58.07 29.39 59.51 24.38 61.39 24.89 59.88 22.25 62.75 23 63 22.03 52.53 19.28 52.28 20.25 58.52 21.89 55.89 23.39 57.58 23.85 56.14 28.87 54.39 28.39 55.76 30.79 50.03 29.28 49.78 30.25 60.25 33 60.5 32.03" fill="#141414" fill-rule="evenodd"/><polygon points="37.5 54.5 33.5 46.5 25.5 43.5 23 37.5 12.5 33.5 16.5 45.5 37.5 54.5" stroke="#323232" stroke-linecap="round" stroke-linejoin="round" fill="url(#linear-gradient-7)"/><polygon points="37.5 54.5 48.5 53.5 59.5 41.5 48.5 43.5 37.5 54.5" stroke="#323232" stroke-linecap="round" stroke-linejoin="round" fill="url(#linear-gradient-8)"/><polygon points="41.5 27.5 44 18 54 20.5 51.5 30.5 41.5 27.5" fill="none" stroke-linecap="round" stroke-linejoin="round" stroke-width="2" stroke="url(#linear-gradient-9)"/></g><g id="Layer_6" data-name="Layer 6"><polygon points="26.5 37.5 26.5 26.36 38.5 19.83 38.5 30.5 26.5 37.5" stroke="#053755" stroke-linecap="round" stroke-linejoin="round" fill="url(#linear-gradient-10)"/><polygon points="26.5 37.5 37.5 41.5 48.5 32.5 38.5 30.5 26.5 37.5" stroke="#053755" stroke-linecap="round" stroke-linejoin="round" fill="url(#linear-gradient-11)"/></g></svg>