<svg id="_1x_copy" data-name="1x   *** copy" xmlns="http://www.w3.org/2000/svg" xmlns:xlink="http://www.w3.org/1999/xlink" viewBox="0 0 64 64"><defs><style>.cls-1,.cls-6,.cls-9{fill:none;}.cls-2{fill:#82bddb;}.cls-3{fill:#285977;}.cls-4{fill:#5a9ab8;}.cls-5{fill:#aadcfa;}.cls-6,.cls-7,.cls-9{stroke:#000;}.cls-10,.cls-6,.cls-7{stroke-linecap:round;stroke-linejoin:round;}.cls-6{stroke-width:0.2px;}.cls-7{fill:#fff;stroke-width:0.71px;}.cls-8{clip-path:url(#clip-path);}.cls-9{stroke-miterlimit:10;stroke-width:1.09px;}.cls-10{stroke:#2d2d2d;fill:url(#linear-gradient);}.cls-11{fill:#383838;}</style><clipPath id="clip-path"><polygon class="cls-1" points="47.73 35.92 38.94 34.8 36.02 33.81 33.84 27.24 30.69 25.49 24.52 25.49 22.34 26.69 20.95 27.41 16.1 29.21 10.88 26.23 10.88 6.01 47.73 6.01 47.73 35.92"/></clipPath><linearGradient id="linear-gradient" x1="40.77" y1="32.11" x2="62.17" y2="65.34" gradientUnits="userSpaceOnUse"><stop offset="0" stop-color="#fff"/><stop offset="1" stop-color="#bfbfbf"/></linearGradient></defs><title>ddd__A33AAe__R21XArtboard 1</title><g id="Layer_21_copy" data-name="Layer 21*** copy"><g id="Layer_25_copy" data-name="Layer 25 copy"><path class="cls-2" d="M46.33,28.35l-4.59,0c.78-1.08,2.1-3.5-.82-9.42l2.91.14C47,22.33,46.33,27.21,46.33,28.35Z"/><path class="cls-3" d="M42.64,24a24.31,24.31,0,0,0-2.8-7.21,10.32,10.32,0,0,1,.44,3.4,20.61,20.61,0,0,1-.68,3.41s2,4.63,2.14,4.77A6.14,6.14,0,0,0,42.64,24Z"/><path id="_07" data-name="07" class="cls-2" d="M17.12,25.22v.34c0-.56-4.49-4.07-5.15-4.47v-.33C12.63,21.16,17.11,24.67,17.12,25.22Z"/><path id="_06" data-name="06" class="cls-2" d="M20.14,24.73l-2.94.66c0-.55-4.57-4.23-5.23-4.63l2.36-1.24C15.8,20.41,20.12,23.48,20.14,24.73Z"/><path id="_05" data-name="05" class="cls-4" d="M21.18,21.54c-.05.76,0,2.6-1,3.19,0-1.25-4.34-4.32-5.81-5.21.57-.33,1-3.86,1.06-4.56C18.66,16.61,21.15,20.05,21.18,21.54Z"/><path id="_02" data-name="02" class="cls-2" d="M39.6,23.56s0-6.44-6.27-7.34c-.14-1.83,1.34-6.27-2.83-9,5.47,0,9.34,9.56,9.34,9.56C40.9,20.06,39.91,22,39.6,23.56Z"/><path id="_03" data-name="03" class="cls-5" d="M33.33,16.22H25.56c-1.76-6.84-3.58-7.78-5.64-9H30.5C34.51,9.73,33.3,14.17,33.33,16.22Z"/><path id="_04" data-name="04" class="cls-2" d="M25.56,16.22a6.21,6.21,0,0,0-2.74,1.85,9,9,0,0,0-1.64,3.47c0-1.38-2.51-5-5.79-6.58a8.87,8.87,0,0,1,4.53-7.77C22,8.44,23.8,9.44,25.56,16.22Z"/><g id="_004_ok_" data-name="004 ok ***"><path id="_06-2" data-name="06" class="cls-2" d="M19.67,29.21H16.1a3.12,3.12,0,0,0,1.1-3.82l2.94-.66C20.49,25.4,21.67,27.49,19.67,29.21Z"/><path id="d_04_" data-name="d 04&gt;" class="cls-2" d="M44.06,35.09l-5.12-.45c1.28-1.4,1.71-4.36,2.8-6.31l4.59,0A13,13,0,0,1,44.06,35.09Z"/><path id="d_03_" data-name="d 03&gt;" class="cls-4" d="M38.94,34.64a3.25,3.25,0,0,1-2.49-1.27,58.25,58.25,0,0,1,5.29-5h0S39.81,33.91,38.94,34.64Z"/><path id="d_02_" data-name="d 02&gt;" class="cls-3" d="M36.45,33.37l-2.68-6.29c2.42-2.1,5-1.76,5.82-3.56l2.15,4.81C40.21,30.28,38.64,30.75,36.45,33.37Z"/><path id="d_02_2" data-name="d 02&gt;" class="cls-2" d="M30.87,25.32a4,4,0,0,1,1.78.56c1,.59,1.12,1.2,1.12,1.2,2.59-2.15,4.93-1.76,5.82-3.56,0,0,0-3.95-3-6.07a7.5,7.5,0,0,0-3.26-1.23C33.25,17.39,32.61,22.73,30.87,25.32Z"/><path id="_02-2" data-name="02" class="cls-5" d="M30.87,25.32H24.75a17.89,17.89,0,0,0,1.55-3.68c.45-1.75-.74-5.42-.74-5.42h7.77C33,20.2,31.76,24.27,30.87,25.32Z"/><path id="_01" data-name="01" class="cls-2" d="M24.75,25.32,21.9,27.41s.86-.33-.72-5.87c.64-2,1.16-4,4.38-5.32-.06.19,1.18,3.39.8,5.12A16.2,16.2,0,0,1,24.75,25.32Z"/><path id="_01-2" data-name="01" class="cls-4" d="M21.9,27.41l-1.36.6s.83-1.25-.4-3.28c1-.62,1-2.6,1-3.19C22.73,27.08,21.9,27.41,21.9,27.41Z"/></g><path class="cls-3" d="M18.51,36.57l-6.89,2.77a.86.86,0,0,1-1-.16l5.89-2.46A17.35,17.35,0,0,0,18.51,36.57Z"/><polygon id="IN" class="cls-3" points="12.82 30.7 11.84 31.33 10.88 38.36 10.49 38.36 10.61 39.24 18.03 36.48 17.69 34.76 16.59 32.58 13.39 30.56 12.82 30.7"/><polygon id="IN-2" data-name="IN" class="cls-5" points="8.04 36.05 10.76 38.68 11.38 34.73 8.04 36.05"/><path id="D_05" data-name="D 05" class="cls-2" d="M20.43,44.29a60,60,0,0,0,11-4.2c6.66-3.29,7.49-5.45,7.49-5.45l5.12.45s-1,6-18.58,13.43C23.91,47.32,20.43,44.29,20.43,44.29Z"/><path id="D_04" data-name="D 04" class="cls-4" d="M19.22,41.79a99,99,0,0,0,10-3.71c5.38-2.59,7.25-4.71,7.25-4.71a3.16,3.16,0,0,0,2.49,1.27s-.76,2.07-7.49,5.45a48.48,48.48,0,0,1-11,4.2A6.27,6.27,0,0,1,19.22,41.79Z"/><path id="_03-2" data-name="03" class="cls-3" d="M17.69,35a45.72,45.72,0,0,0,9.42-3.37,25.87,25.87,0,0,0,6.66-4.51l2.68,6.29s-1.17,1.48-5.57,3.86a77,77,0,0,1-11.66,4.56Z"/><path id="_02-3" data-name="02" class="cls-2" d="M16.49,32.58a81.36,81.36,0,0,0,8.64-3.11,26.25,26.25,0,0,0,5.74-4.15c1.51.12,2.84,1.16,2.9,1.76a26.62,26.62,0,0,1-7.36,4.86,42.62,42.62,0,0,1-8.72,3A4.62,4.62,0,0,0,16.49,32.58Z"/><path id="_01_top" data-name="01    top" class="cls-5" d="M13.61,30.58s5.82-2.18,7.23-2.68a14.16,14.16,0,0,0,3.91-2.58h6.12a24.85,24.85,0,0,1-5.74,4.15,75.57,75.57,0,0,1-8.64,3.11Z"/><path id="_03-3" data-name="03" class="cls-4" d="M12.53,30.7c.65-.39,6.24-2.4,7.79-3a11.79,11.79,0,0,0,3.18-2.18c.38-.36,1-.2,1.25-.2a14,14,0,0,1-3.91,2.58c-1.33.48-7.23,2.68-7.23,2.68A1.52,1.52,0,0,0,12.53,30.7Z"/></g><path id="D_05-2" data-name="D 05" class="cls-6" d="M25.53,49.39v-.82C41.41,42.06,44,35.3,44,35.3S40.87,43.29,25.53,49.39Z"/><g id="Layer_24_copy" data-name="Layer 24 copy"><path class="cls-7" d="M8.65,36.49s1.74,1.58,1.95,1.73.13.18.28.18.16,0,.17-.1l.73-6.75a1.34,1.34,0,0,1,.81-.8,1.34,1.34,0,0,1,1.25,0l0,0,2.66,2A5.29,5.29,0,0,1,18,35.47l1.52,6.83s.54,2,1.06,2.3l4.91,3.95"/><path class="cls-6" d="M46.33,28.35l-4.59,0c.78-1.08,2.1-3.5-.82-9.42l2.91.14C47,22.33,46.33,27.21,46.33,28.35Z"/><path class="cls-6" d="M42.64,24a24.31,24.31,0,0,0-2.8-7.21,10.32,10.32,0,0,1,.44,3.4,20.61,20.61,0,0,1-.68,3.41s2,4.63,2.14,4.77A6.14,6.14,0,0,0,42.64,24Z"/><path id="_07-2" data-name="07" class="cls-6" d="M17.12,25.22v.34c0-.56-4.49-4.07-5.15-4.47v-.33C12.63,21.16,17.11,24.67,17.12,25.22Z"/><path id="_06-3" data-name="06" class="cls-6" d="M20.14,24.74l-2.94.65c0-.55-4.57-4.23-5.23-4.63l2.36-1.24C15.8,20.41,20.12,23.5,20.14,24.74Z"/><path id="_05-2" data-name="05" class="cls-6" d="M21.18,21.54c-.12.65-.23,3.2-1,3.2,0-1.24-4.34-4.33-5.81-5.22.57-.33,1-3.86,1.06-4.56C18.66,16.61,21.15,20.05,21.18,21.54Z"/><path id="_02-4" data-name="02" class="cls-6" d="M39.6,23.56s0-6.44-6.27-7.34c-.14-1.83,1.34-6.27-2.83-9,5.47,0,9.34,9.56,9.34,9.56C40.9,20.06,39.91,22,39.6,23.56Z"/><path id="_03-4" data-name="03" class="cls-6" d="M33.33,16.22H25.56c-1.76-6.84-3.58-7.78-5.64-9H30.5C34.51,9.73,33.3,14.17,33.33,16.22Z"/><path id="_04-2" data-name="04" class="cls-6" d="M25.56,16.22a5.5,5.5,0,0,0-2.74,1.85,6.38,6.38,0,0,0-1.64,3.47c0-1.49-2.51-5-5.79-6.58a8.87,8.87,0,0,1,4.53-7.77C22,8.44,23.8,9.44,25.56,16.22Z"/></g><g class="cls-8"><g id="_004_ok_2" data-name="004 ok ***"><path id="_06-4" data-name="06" class="cls-6" d="M19.67,29.21H16.1a3.12,3.12,0,0,0,1.1-3.82l2.94-.68C20.49,25.39,21.67,27.49,19.67,29.21Z"/><path id="d_04_2" data-name="d 04&gt;" class="cls-6" d="M44.06,35.09l-5.12-.45c1.28-1.4,1.71-4.36,2.8-6.31l4.59,0A13,13,0,0,1,44.06,35.09Z"/><path id="d_03_2" data-name="d 03&gt;" class="cls-6" d="M38.94,34.64a3.25,3.25,0,0,1-2.49-1.27,58.25,58.25,0,0,1,5.29-5h0S39.81,33.91,38.94,34.64Z"/><path id="d_02_3" data-name="d 02&gt;" class="cls-6" d="M36.45,33.37l-2.68-6.29c2.42-2.1,5-1.76,5.82-3.56l2.15,4.81C40.21,30.28,38.64,30.75,36.45,33.37Z"/><path id="d_02_4" data-name="d 02&gt;" class="cls-6" d="M30.87,25.32a4,4,0,0,1,1.78.56c1,.59,1.12,1.2,1.12,1.2,2.59-2.15,4.93-1.76,5.82-3.56,0,0,0-3.95-3-6.07a7.5,7.5,0,0,0-3.26-1.23C33.25,17.39,32.61,22.73,30.87,25.32Z"/><path id="_02-5" data-name="02" class="cls-6" d="M30.87,25.32H24.75a17.89,17.89,0,0,0,1.55-3.68c.45-1.75-.74-5.42-.74-5.42h7.77C33,20.2,31.76,24.27,30.87,25.32Z"/><path id="_01-3" data-name="01" class="cls-6" d="M24.75,25.32,21.9,27.41s.86-.33-.72-5.87c.64-2,1.16-4,4.38-5.32-.06.19,1.18,3.39.8,5.12A16.2,16.2,0,0,1,24.75,25.32Z"/><path id="_01-4" data-name="01" class="cls-6" d="M21.9,27.41l-1.36.6s.83-1.27-.4-3.3c1.26-.65.67-2.17,1-3.17C22.73,27.08,21.9,27.41,21.9,27.41Z"/></g></g><g id="Layer_23_copy" data-name="Layer 23 copy"><path class="cls-6" d="M11.3,35.3,11,38.35c-.46.22-2.23-1.8-2.35-2S11.15,35.39,11.3,35.3Z"/><path id="D_05-3" data-name="D 05" class="cls-6" d="M20.43,44.29a60,60,0,0,0,11-4.2c6.66-3.29,7.49-5.45,7.49-5.45l5.12.45s-1.67,6.48-18.57,13.46C23.92,47.34,20.43,44.29,20.43,44.29Z"/><path id="D_04-2" data-name="D 04" class="cls-6" d="M19.22,41.79a99,99,0,0,0,10-3.71c5.38-2.59,7.25-4.71,7.25-4.71a3.16,3.16,0,0,0,2.49,1.27s-.76,2.07-7.49,5.45a48.48,48.48,0,0,1-11,4.2A6.27,6.27,0,0,1,19.22,41.79Z"/><path id="_03-5" data-name="03" class="cls-6" d="M17.69,35a45.72,45.72,0,0,0,9.42-3.37,25.87,25.87,0,0,0,6.66-4.51l2.68,6.29s-1.17,1.48-5.57,3.86a77,77,0,0,1-11.66,4.56Z"/><path id="_02-6" data-name="02" class="cls-6" d="M16.49,32.58a81.36,81.36,0,0,0,8.64-3.11,26.25,26.25,0,0,0,5.74-4.15c1.51.12,2.84,1.16,2.9,1.76a26.62,26.62,0,0,1-7.36,4.86,42.62,42.62,0,0,1-8.72,3A4.62,4.62,0,0,0,16.49,32.58Z"/><path id="_01_top-2" data-name="01    top" class="cls-6" d="M13.43,30.58l7.41-2.68a14.16,14.16,0,0,0,3.91-2.58h6.12a24.85,24.85,0,0,1-5.74,4.15,75.57,75.57,0,0,1-8.64,3.11Z"/><path id="_03-6" data-name="03" class="cls-6" d="M12.31,30.82c.65-.38,6.46-2.52,8-3.12a9.49,9.49,0,0,0,2.81-1.84,1.92,1.92,0,0,1,1.62-.54,14,14,0,0,1-3.91,2.58l-7.41,2.68C13.17,30.43,12.5,30.71,12.31,30.82Z"/></g><g id="Layer_22_copy" data-name="Layer 22 copy"><path id="D_05-4" data-name="D 05" class="cls-6" d="M25.53,49.39v-.82C41.45,42.48,44,35.3,44,35.3S40.67,43.65,25.53,49.39Z"/></g><path id="contour_1px_" data-name="contour   1px    ***" class="cls-9" d="M19.72,6.65s-4.59,2-4.88,8.32c-.09.69-.38,4.22-1,4.55l-2.22,1,0,.75a31.41,31.41,0,0,1,4.64,4s1.67,1.65-.49,3.45c-1.65.69-3,1.41-3,1.41l-1.4.86-.52,3.84c0,.06-2.79,1.21-2.79,1.21v.74l2.4,2.09a1.15,1.15,0,0,0,1.19.16l6-2,1.21,5.4,1,2.2,5.55,4.55c15.52-6.07,19-13.91,19-13.91a28.59,28.59,0,0,0,2-6.95c.16-1.13.87-6.58-2.28-9.87l-2.91-.14c-.32-.67-.9-.82-1.3-1.59,0,0-3.74-10.21-9.21-10.21C28.86,6.54,19.72,6.65,19.72,6.65Z"/></g><g id="_Group_" data-name="&lt;Group&gt; ***"><polygon class="cls-10" points="42.08 50.01 56.08 57.11 56.08 40.01 42.08 33.01 42.08 50.01"/><polygon class="cls-11" points="50.72 42.02 48.72 42.02 48.72 45.02 47.72 45.02 47.72 44.02 44.72 44.02 44.72 47.02 47.72 47.02 47.72 46.02 48.72 46.02 48.72 49.02 50.72 49.02 50.72 50.02 53.72 50.02 53.72 47.02 50.72 47.02 50.72 48.02 49.72 48.02 49.72 43.02 50.72 43.02 50.72 44.02 53.72 44.02 53.72 41.02 50.72 41.02 50.72 42.02"/></g></svg>