<svg id="CATIA___B02_PDG_-_Part_Design" data-name="CATIA _ (B02) PDG - Part Design" xmlns="http://www.w3.org/2000/svg" xmlns:xlink="http://www.w3.org/1999/xlink" viewBox="0 0 64 64"><defs><style>.cls-1,.cls-2,.cls-3,.cls-5,.cls-6,.cls-7{stroke:#6d6d6d;}.cls-1,.cls-2,.cls-3,.cls-4,.cls-5,.cls-6,.cls-7{stroke-linecap:round;stroke-linejoin:round;}.cls-1,.cls-2,.cls-3{stroke-width:0.6px;}.cls-1{fill:url(#linear-gradient);}.cls-2{fill:url(#linear-gradient-2);}.cls-3{fill:url(#linear-gradient-3);}.cls-10,.cls-4{fill:none;}.cls-4{stroke:#00415f;}.cls-5{fill:url(#linear-gradient-4);}.cls-6{fill:url(#linear-gradient-5);}.cls-7{fill:url(#linear-gradient-6);}.cls-8{fill:url(#linear-gradient-7);}.cls-9{fill:#00415f;}.cls-10{stroke:#2d2d2d;stroke-miterlimit:10;}</style><linearGradient id="linear-gradient" x1="55.16" y1="33.96" x2="39.17" y2="33.96" gradientUnits="userSpaceOnUse"><stop offset="0" stop-color="#f7f7f7"/><stop offset="0.18" stop-color="#f0f0f0"/><stop offset="0.45" stop-color="#dcdcdc"/><stop offset="0.78" stop-color="#bcbcbc"/><stop offset="1" stop-color="#a1a1a1"/></linearGradient><linearGradient id="linear-gradient-2" x1="7.45" y1="33.65" x2="56.58" y2="33.65" gradientUnits="userSpaceOnUse"><stop offset="0" stop-color="#666"/><stop offset="0.15" stop-color="#dbdcdd"/><stop offset="0.87" stop-color="#c6c8c9"/><stop offset="1" stop-color="#f2f2f2"/></linearGradient><linearGradient id="linear-gradient-3" x1="6.72" y1="36.41" x2="54.39" y2="23.08" gradientUnits="userSpaceOnUse"><stop offset="0.01" stop-color="#fff"/><stop offset="0.05" stop-color="#f9f9f9"/><stop offset="0.11" stop-color="#e9e9e9"/><stop offset="0.18" stop-color="#cecece"/><stop offset="0.22" stop-color="#bababa"/><stop offset="1" stop-color="#fff"/></linearGradient><linearGradient id="linear-gradient-4" x1="50.62" y1="16.99" x2="54.5" y2="16.99" gradientUnits="userSpaceOnUse"><stop offset="0" stop-color="#8a8a8a"/><stop offset="1" stop-color="#383838"/></linearGradient><linearGradient id="linear-gradient-5" x1="49.23" y1="32.57" x2="52.93" y2="32.57" xlink:href="#linear-gradient-4"/><linearGradient id="linear-gradient-6" x1="9.86" y1="41.27" x2="14.35" y2="41.27" xlink:href="#linear-gradient-4"/><linearGradient id="linear-gradient-7" x1="47.44" y1="10.91" x2="12.09" y2="71.78" gradientUnits="userSpaceOnUse"><stop offset="0" stop-color="#83d2ea"/><stop offset="0.55" stop-color="#5199b0"/><stop offset="1" stop-color="#25667d"/></linearGradient></defs><title>CATLTD_AP_APIcon</title><path class="cls-1" d="M46.17,31.68s2.81-1.47,4.46-1.47,4.28,1.05,4.28,2.83l-.41,1.35L44.85,37.7Z"/><path class="cls-2" d="M56.23,16c-1.17-2.37-13.11,2.12-20,5.17S17.64,37,17.64,37L7.45,42l1,8.17c.5,1.35,3,2.45,6.18,1.35,2.5-.85,3.1-2.08,5.45-3C23.5,47,36.28,44.05,41.8,42.1c4.42-1.55,9.4-3.13,11.13-3.81S54.5,36.6,54.5,36.6L54.91,33c0,.76-1.48,1.35-1.48,1.35S49.8,35.58,48,36.26a1.37,1.37,0,0,1-2.06-1s.33-5,.49-7.37a3.24,3.24,0,0,1,2-3s3.71-1.1,5.69-1.61,2.3-1.43,2.3-1.43S56.92,17.39,56.23,16ZM42.63,26.43s-.42,8-.42,10.34-1.56,2.45-1.56,2.45-4.54,1.36-9.56,2.55S21.27,44.48,19.71,45s-2.07-.77-1.49-1.7c3.35-5.41,17.75-16.52,23.09-18C42.88,24.9,42.63,26.43,42.63,26.43Z"/><path class="cls-3" d="M39.91,17.7c-2,.59-7.26,2.12-14.35,9.57-7.5,7.89-9.5,9.66-11.87,10.51-3.8,1.36-7.46,2.56-6.43,4.75s5.16,2.13,6.92,1.1c2.89-1.69,4.15-5.7,14.43-13.47,5.94-4.49,9.07-6.87,14.1-8.48,3-.95,10.87-2.18,12.53-3.3,1.27-.86,2.55-3.42-3.72-3.42C50.2,15,41.89,17.11,39.91,17.7Z"/><path class="cls-4" d="M41.31,25.33c-5.34,1.44-19.74,12.55-23.09,18-.58.93-.08,2.2,1.49,1.7s6.34-2,11.38-3.22,9.56-2.55,9.56-2.55,1.56-.17,1.56-2.45.42-10.34.42-10.34S42.88,24.9,41.31,25.33Z"/><path class="cls-5" d="M54.5,17.13c0-.45-.81-.87-1.88-.95s-2,.23-2,.68.81.87,1.88.95S54.47,17.58,54.5,17.13Z"/><path class="cls-6" d="M52.93,32.7c0-.49-.77-.94-1.79-1s-1.88.27-1.91.76.77,1,1.79,1S52.9,33.19,52.93,32.7Z"/><path class="cls-7" d="M14.33,40.73c-.15-.64-1.26-.92-2.49-.62s-2.11,1.06-2,1.7,1.26.92,2.49.62S14.48,41.37,14.33,40.73Z"/><path class="cls-8" d="M19,45a.86.86,0,0,1-.73-.32,1,1,0,0,1-.14-.82L22,44l-1.22-3.67c.36-.38.77-.79,1.19-1.2l3.78.61L25,36.3l.58-.5,4,.84L29.06,33l.76-.58,3.81,1.1-.26-3.67.67-.46,3.73,1.37,0-3.7a7.73,7.73,0,0,1,1.54-.71l3,1.5c0,.15,0,.48,0,.93l-3.23-1.47-.35,4.51,3.55-2.3c-.1,2.15-.22,4.88-.25,6.5L39,35.16,39.56,39l2.5-2c-.08,1.95-1.41,2.11-1.43,2.11l-.67.2-5.14-1.2.25,2.55c-1.24.32-2.61.67-4,1l-1,.25-.51-1.64-3.14,2.61s-1.25.34-2.23.63l2.43-1.88-4.31-1.07.39,3.39-3,.93A1.81,1.81,0,0,1,19,45Zm8-3.74,3.62-3-4.11-.91Zm3-1.42,3.83,1L33.55,37Zm.86-1.85,3.6-2.75L30.4,33.93ZM34,36.65l4.07,1.12-.29-3.91Zm4.34-3.21L42,34.82l0-3.88ZM35,34.73l3.75-2.84-4.27-1.18Z"/><path class="cls-9" d="M39.31,26.51l2.91,1.42a5.85,5.85,0,0,1,0,.6l-2.83-1.29L39,27.06l0,.43-.32,4,0,.22-.17-.05-3.76-1-.43-.12,0,.45.46,3.54.07.52.41-.32,3.3-2.5.49-.36h0l.09-.06,3-2c0,.3,0,.61,0,.92l-.39.26L38.5,33.15l-.48.33.54.2,3.2,1.21L42,35c0,.3,0,.59,0,.85l-2.68-.74L38.8,35l.07.46.51,3.33,0,.23-4.35-1-.41-.1,0,.42.22,2.21-.9.24,0-.21-.27-3.3,0-.51.58.15,3.56,1,.41.11,0-.43L38,34.12l0-.54-.43.32-3.32,2.44-.48.35v0l-.44.35-3.07,2.47-.47.38.59.14,3.31.83q-1.35.34-2.58.63l-.9.22-.41-1.29L29.58,40l-.34.29-2.92,2.42-1.48.42,1.56-1.2.5-.38-.61-.15-3.79-.94-.42-.1.05.42.35,3-.37.11-.05-.14-1.12-3.38c.33-.35.69-.71,1.07-1.08l3.49.57.43.07-.09-.43-.63-3.16.45-.4,3.68.79.42.09-.06-.43L29.22,33l.63-.48,3.53,1,.42.12,0-.43-.24-3.37.53-.36,3.46,1.27.4.15v-.43l0-3.4a8,8,0,0,1,1.35-.62M30.75,38.06,30.34,38l-3.6-.8-.41-.09.05.42L26.81,41l.07.55.42-.35,3.17-2.66.47-.39h0l.26-.2,3.16-2.42.46-.35L34.26,35l-3.59-1.1-.45-.14.06.46.43,3.52,0,.36m11.13-.77c-.2,1.48-1.22,1.63-1.26,1.64h-.06L40,39.1,39.72,39l.14-.12,2-1.63M18.29,44l3.09.17-1.77.56a1.75,1.75,0,0,1-.56.1.72.72,0,0,1-.62-.26.83.83,0,0,1-.14-.57m21-17.78a6.71,6.71,0,0,0-1.66.77l-.05,3.57L34,29.2l-.8.55.25,3.55-3.68-1.07-.89.68.51,3.54-3.83-.82-.7.62.67,3.33L21.92,39l2.71-2.52c-1.07,1-2.84,2.56-4,3.84l1.18,3.55-3.73-.2a1,1,0,0,0,1,1.44,2.16,2.16,0,0,0,.66-.11c.6-.2,1.69-.55,3.09-1l-.37-3.3,3.79.94L23.4,43.84c1-.29,3.06-.89,3.06-.89l3-2.46.48,1.56,1.18-.28c1.45-.35,2.87-.71,4.14-1L35,38.26l5,1.15.65-.19s1.56-.17,1.56-2.45c0,0,0-.09,0-.13l-2.55,2-.5-3.33,3,.84c0-1.66.16-4.72.27-7L39,31.51l.32-4L42.5,29c0-.77,0-1.25,0-1.25l-3.19-1.55Zm-4.25,8.26-.46-3.54,3.76,1-3.3,2.5Zm6.79.16-3.2-1.21,3.23-2.18,0,3.39Zm-4,3-3.56-1,3.31-2.45.25,3.43ZM31,37.66l-.43-3.52,3.59,1.1L31,37.66Zm2.68,2.9-3.33-.84,3.07-2.46.26,3.3Zm-6.58.36-.43-3.46,3.6.8-3.17,2.66Zm-2.23-4.68-.25.23.25-.22Z"/><path class="cls-10" d="M54.56,36.23c0,.28.11,1-1.63,1.7s-6.71,2.25-11.13,3.81C36.28,43.69,23.5,46.65,20,48.09c-2.35,1-2.95,2.2-5.45,3-3.21,1.11-5.68,0-6.18-1.35L7.14,41.86C7,40,10.26,38.64,13.69,37.42c2.37-.85,4.37-2.63,11.87-10.51,7.09-7.46,12.37-9,14.35-9.58S50.39,15.17,51.7,15c3-.48,4.72.37,4.75,2.86,0,2,0,3.56-.3,4s-.08.6-2.06,1.11-5.69,1.61-5.69,1.61a3.21,3.21,0,0,0-2,3c-.07,1,0,2.43,0,3.81l.66-.24a10.65,10.65,0,0,1,3.59-.86c1.64,0,3.83.62,4.32,2.79A26.35,26.35,0,0,1,54.56,36.23Z"/></svg>