<svg xmlns="http://www.w3.org/2000/svg" xmlns:xlink="http://www.w3.org/1999/xlink" viewBox="0 0 64 64"><defs><linearGradient id="a" x1="17.65" y1="7.14" x2="44.5" y2="53.66" gradientUnits="userSpaceOnUse"><stop offset="0" stop-color="#2f85b1"/><stop offset="1" stop-color="#285677"/></linearGradient><linearGradient id="b" x1="16.58" y1="30.45" x2="23.28" y2="42.05" gradientUnits="userSpaceOnUse"><stop offset="0" stop-color="#8cd7f5"/><stop offset="1" stop-color="#376e8c"/></linearGradient><linearGradient id="c" x1="23.5" y1="26.08" x2="32.36" y2="41.42" xlink:href="#b"/><linearGradient id="d" x1="32.58" y1="30.45" x2="39.28" y2="42.05" xlink:href="#b"/><linearGradient id="e" x1="38.42" y1="21.7" x2="49.45" y2="40.8" xlink:href="#b"/><linearGradient id="f" x1="27.44" y1="35.61" x2="36.56" y2="51.39" gradientUnits="userSpaceOnUse"><stop offset="0" stop-color="#aaa"/><stop offset="1" stop-color="#5a5a5a"/></linearGradient></defs><path d="M57,32A25,25,0,1,1,13.12,15.62L7.7,12.88,21,12,16.91,24.24l-1.84-6.3A22,22,0,1,0,32,10V7A25,25,0,0,1,57,32Z" fill="url(#a)"/><path d="M18.5,29.5h3a1,1,0,0,1,1,1v12a0,0,0,0,1,0,0h-5a0,0,0,0,1,0,0v-12A1,1,0,0,1,18.5,29.5Z" stroke="#003755" stroke-linejoin="round" fill="url(#b)"/><path d="M21.5,30h-3a.5.5,0,0,0-.5.5v1a.5.5,0,0,1,.5-.5h3a.5.5,0,0,1,.5.5v-1A.5.5,0,0,0,21.5,30Z" fill="#fff" opacity="0.3"/><path d="M26.5,24.5h3a1,1,0,0,1,1,1v17a0,0,0,0,1,0,0h-5a0,0,0,0,1,0,0v-17A1,1,0,0,1,26.5,24.5Z" stroke="#003755" stroke-linejoin="round" fill="url(#c)"/><path d="M29.5,25h-3a.5.5,0,0,0-.5.5v1a.5.5,0,0,1,.5-.5h3a.5.5,0,0,1,.5.5v-1A.5.5,0,0,0,29.5,25Z" fill="#fff" opacity="0.3"/><path d="M34.5,29.5h3a1,1,0,0,1,1,1v12a0,0,0,0,1,0,0h-5a0,0,0,0,1,0,0v-12A1,1,0,0,1,34.5,29.5Z" stroke="#003755" stroke-linejoin="round" fill="url(#d)"/><path d="M37.5,30h-3a.5.5,0,0,0-.5.5v1a.5.5,0,0,1,.5-.5h3a.5.5,0,0,1,.5.5v-1A.5.5,0,0,0,37.5,30Z" fill="#fff" opacity="0.3"/><path d="M42.5,19.5h3a1,1,0,0,1,1,1v22a0,0,0,0,1,0,0h-5a0,0,0,0,1,0,0v-22A1,1,0,0,1,42.5,19.5Z" stroke="#003755" stroke-linejoin="round" fill="url(#e)"/><path d="M45.5,20h-3a.5.5,0,0,0-.5.5v1a.5.5,0,0,1,.5-.5h3a.5.5,0,0,1,.5.5v-1A.5.5,0,0,0,45.5,20Z" fill="#fff" opacity="0.3"/><rect x="15.5" y="42.5" width="33" height="2" stroke="#323232" stroke-linejoin="round" fill="url(#f)"/></svg>