<svg xmlns="http://www.w3.org/2000/svg" xmlns:xlink="http://www.w3.org/1999/xlink" viewBox="0 0 64 64"><defs><linearGradient id="linear-gradient" x1="21.21" y1="18.47" x2="32.28" y2="37.65" gradientUnits="userSpaceOnUse"><stop offset="0" stop-color="#fff"/><stop offset="1" stop-color="#f1f0f0"/></linearGradient><linearGradient id="linear-gradient-2" x1="18.23" y1="13.94" x2="22.67" y2="21.62" xlink:href="#linear-gradient"/><linearGradient id="linear-gradient-3" x1="5.79" y1="22.6" x2="15.28" y2="39.04" xlink:href="#linear-gradient"/><linearGradient id="linear-gradient-4" x1="31.37" y1="10.69" x2="36.87" y2="20.22" gradientUnits="userSpaceOnUse"><stop offset="0" stop-color="#f5f6f6"/><stop offset="0.99" stop-color="#bfbebe"/></linearGradient><linearGradient id="linear-gradient-5" x1="53.32" y1="50.38" x2="32.56" y2="14.41" gradientUnits="userSpaceOnUse"><stop offset="0" stop-color="#386f8d"/><stop offset="1" stop-color="#8dd7f4"/></linearGradient><linearGradient id="linear-gradient-13" x1="28.82" y1="30.26" x2="39.57" y2="48.88" xlink:href="#linear-gradient"/><linearGradient id="linear-gradient-15" x1="22.22" y1="28.3" x2="26.93" y2="36.45" xlink:href="#linear-gradient"/><linearGradient id="linear-gradient-16" x1="32.45" y1="30.93" x2="34.62" y2="34.69" xlink:href="#linear-gradient"/></defs><title>CATLBD_AP_AppIcon</title><g id="Layer_7" data-name="Layer 7"><polygon points="15.5 41 38.5 36.5 38.5 16 9.5 22 15.5 41" stroke="#797979" stroke-linecap="round" stroke-linejoin="round" fill="url(#linear-gradient)"/><polygon points="5.5 20 34.5 14 31.5 17.5 9.5 22 5.5 20" stroke="#797979" stroke-linecap="round" stroke-linejoin="round" fill="url(#linear-gradient-2)"/><polygon points="5.5 20 11.5 39.5 15.5 41 9.5 22 5.5 20" stroke="#797979" stroke-linecap="round" stroke-linejoin="round" fill="url(#linear-gradient-3)"/><polyline points="40 20 11 26 7 24" fill="none" stroke="#797979" stroke-linecap="round" stroke-linejoin="round"/><polyline points="41 24 12 30 8 28" fill="none" stroke="#797979" stroke-linecap="round" stroke-linejoin="round"/><polyline points="42.5 28 13.5 34 9.5 32" fill="none" stroke="#797979" stroke-linecap="round" stroke-linejoin="round"/><polyline points="43.5 31.5 14.5 37.5 10.5 35.5" fill="none" stroke="#797979" stroke-linecap="round" stroke-linejoin="round"/><polygon points="31.55 17.44 34.5 14 5.5 20 11.5 39.5 15.5 41 38.5 36.5 38.5 16 31.55 17.44" fill="none" stroke="#333332" stroke-linecap="round" stroke-linejoin="round"/><polygon points="38.5 8.5 29.5 10 29.5 22 38.5 20.5 38.5 8.5" stroke="#797979" stroke-linecap="round" stroke-linejoin="round" fill="url(#linear-gradient-4)"/><polygon points="56.5 43 53.5 43 29.5 38 29.5 22 38.5 20.5 56.5 27 56.5 43" stroke="#053755" stroke-linecap="round" stroke-linejoin="round" fill="url(#linear-gradient-5)"/><path d="M29.5,22l9-1.5s12,2.5,18,6.5h-3Z" stroke="#053755" stroke-linecap="round" stroke-linejoin="round" fill="url(#linear-gradient-5)"/><path d="M29.5,10l9-1.5s12,2.5,18,6.5h-3Z" stroke="#797979" stroke-linecap="round" stroke-linejoin="round" fill="url(#linear-gradient-2)"/><path d="M29.5,14l9-1.5s12,2.5,18,6.5h-3Z" stroke="#797979" stroke-linecap="round" stroke-linejoin="round" fill="url(#linear-gradient-2)"/><path d="M29.5,18l9-1.5s12,2.5,18,6.5h-3Z" stroke="#797979" stroke-linecap="round" stroke-linejoin="round" fill="url(#linear-gradient-2)"/><rect x="53.5" y="15" width="3" height="12" fill="none" stroke="#797979" stroke-linecap="round" stroke-linejoin="round"/><path d="M56.5,31h-3l-24-5" stroke="#053755" stroke-linecap="round" stroke-linejoin="round" fill="url(#linear-gradient-5)"/><path d="M56.5,34.5h-3l-24-5" stroke="#053755" stroke-linecap="round" stroke-linejoin="round" fill="url(#linear-gradient-5)"/><path d="M56.5,38h-3l-24-5" stroke="#053755" stroke-linecap="round" stroke-linejoin="round" fill="url(#linear-gradient-5)"/><path d="M29.5,30.5l-10,2v9l17.11,6.18a5.92,5.92,0,0,0,1.91.35c2.33,0,8-.06,10-2V37Z" stroke="#797979" stroke-linecap="round" stroke-linejoin="round" fill="url(#linear-gradient-13)"/><path d="M19.5,32.5l17.11,6.18a5.92,5.92,0,0,0,1.91.35c2.33,0,8-.06,10-2l-19-6.5Z" stroke="#797979" stroke-linecap="round" stroke-linejoin="round" fill="url(#linear-gradient-2)"/><path d="M19.5,37l17.11,6.18a5.92,5.92,0,0,0,1.91.35c2.33,0,8-.06,10-2" fill="none" stroke="#797979" stroke-linecap="round" stroke-linejoin="round"/><line x1="37.5" y1="39" x2="37.5" y2="47.5" fill="none" stroke="#797979" stroke-linecap="round" stroke-linejoin="round"/><line x1="43.5" y1="39" x2="43.5" y2="47.5" fill="none" stroke="#797979" stroke-linecap="round" stroke-linejoin="round"/><line x1="29.5" y1="36.5" x2="29.5" y2="45" fill="none" stroke="#797979" stroke-linecap="round" stroke-linejoin="round"/><polyline points="37.5 31 37.5 24 43.5 22" fill="none" stroke="#053755" stroke-linecap="round" stroke-linejoin="round"/><polygon points="19.5 32.5 19.5 28.5 29.5 32 29.5 36 19.5 32.5" stroke="#797979" stroke-linecap="round" stroke-linejoin="round" fill="url(#linear-gradient-15)"/><polygon points="37.5 29.5 29.5 32 29.5 36 37.5 33.5 37.5 29.5" stroke="#797979" stroke-linecap="round" stroke-linejoin="round" fill="url(#linear-gradient-16)"/><polyline points="29.5 32 37.5 29.5 27.5 26 19.5 28.5 29.3 32.04" stroke="#797979" stroke-linecap="round" stroke-linejoin="round" fill="url(#linear-gradient-2)"/><polyline points="45.5 32.5 45.5 25.5 49.5 24" fill="none" stroke="#053755" stroke-linecap="round" stroke-linejoin="round"/><rect x="53.5" y="27" width="3" height="16" fill="none" stroke="#053755" stroke-linecap="round" stroke-linejoin="round"/><path d="M6.5,40.5,34,50.46a19,19,0,0,0,13.89-.38L57.5,46" fill="none" stroke="#333332" stroke-linecap="square" stroke-linejoin="round"/><path d="M6.5,48.5,34,58.46a19,19,0,0,0,13.89-.38L57.5,54" fill="none" stroke="#333332" stroke-linecap="square" stroke-linejoin="round"/><path d="M37.5,33.24V29.5L27.5,26l-8,2.5v13l17.11,6.18a5.92,5.92,0,0,0,1.91.35c2.33,0,8-.06,10-2V37Z" fill="none" stroke="#333332" stroke-linecap="round" stroke-linejoin="round"/><path d="M56.5,27V15c-6-4-18-6.5-18-6.5l-9,1.5V22" fill="none" stroke="#333332" stroke-linecap="round" stroke-linejoin="round"/></g></svg>