<svg id="Layer_3" data-name="Layer 3" xmlns="http://www.w3.org/2000/svg" xmlns:xlink="http://www.w3.org/1999/xlink" viewBox="0 0 64 64"><defs><linearGradient id="linear-gradient" x1="7.22" y1="24.77" x2="20.95" y2="38.68" gradientUnits="userSpaceOnUse"><stop offset="0" stop-color="#cececf"/><stop offset="1" stop-color="#666"/></linearGradient><linearGradient id="linear-gradient-2" x1="17.76" y1="26.76" x2="17.76" y2="35.17" gradientUnits="userSpaceOnUse"><stop offset="0" stop-color="#707070"/><stop offset="1" stop-color="#cececf"/></linearGradient><linearGradient id="linear-gradient-3" x1="20.1" y1="16.69" x2="46.89" y2="30.71" gradientUnits="userSpaceOnUse"><stop offset="0" stop-color="#cececf"/><stop offset="1" stop-color="#737373"/></linearGradient><linearGradient id="linear-gradient-4" x1="16.45" y1="5.29" x2="32.49" y2="29.07" xlink:href="#linear-gradient"/><linearGradient id="linear-gradient-5" x1="7.93" y1="13.43" x2="20.08" y2="42.88" gradientUnits="userSpaceOnUse"><stop offset="0" stop-color="#fff"/><stop offset="1" stop-color="#bfbfbf"/></linearGradient><linearGradient id="linear-gradient-6" x1="-3.12" y1="15.27" x2="27.18" y2="33.97" xlink:href="#linear-gradient-3"/><linearGradient id="linear-gradient-7" x1="22.3" y1="33.89" x2="38.72" y2="51.07" xlink:href="#linear-gradient-3"/><linearGradient id="linear-gradient-8" x1="8.52" y1="27.18" x2="28.4" y2="62.22" xlink:href="#linear-gradient-5"/><linearGradient id="linear-gradient-9" x1="31.53" y1="42.21" x2="27.46" y2="35.15" gradientUnits="userSpaceOnUse"><stop offset="0" stop-color="#2a5b79"/><stop offset="1" stop-color="#84bedc"/></linearGradient><linearGradient id="linear-gradient-10" x1="32.78" y1="41.82" x2="29.54" y2="36.21" gradientUnits="userSpaceOnUse"><stop offset="0" stop-color="#386f8d"/><stop offset="1" stop-color="#8dd7f4"/></linearGradient><linearGradient id="linear-gradient-11" x1="41.19" y1="23.6" x2="62.59" y2="56.83" xlink:href="#linear-gradient-5"/><linearGradient id="linear-gradient-12" x1="19.44" y1="12.55" x2="24.69" y2="21.64" gradientUnits="userSpaceOnUse"><stop offset="0" stop-color="#3387af"/><stop offset="0.99" stop-color="#2a5b79"/></linearGradient></defs><title>CATMITC_AP_AppIcon</title><polygon points="21.46 21.57 22.45 41.38 11.57 46.79 11.85 28.77 21.46 21.57" stroke="#6d6d6d" stroke-linecap="round" stroke-linejoin="round" fill="url(#linear-gradient)"/><path d="M20,31c-.13,2.28-1.24,4.08-2.49,4s-2.16-2-2-4.26,1.24-4.09,2.49-4S20.14,28.74,20,31Z" stroke="#828383" stroke-linecap="round" stroke-linejoin="round" stroke-width="0.15" fill="url(#linear-gradient-2)"/><polygon points="24.24 19.41 25.02 32.86 19.2 30.04 19.29 16.71 24.24 19.41" fill="#b3b2b3" stroke="#6d6d6d" stroke-miterlimit="10"/><polygon points="21.46 21.57 11.85 28.77 7.76 26.57 17.41 19.75 21.46 21.57" fill="#fff" stroke="#6d6d6d" stroke-linecap="round" stroke-linejoin="round"/><polygon points="45.98 17.09 45.98 30.49 35.97 38.15 35.64 24.48 45.98 17.09" stroke="#6d6d6d" stroke-linecap="round" stroke-linejoin="round" fill="url(#linear-gradient-3)"/><path d="M36.11,38a.57.57,0,0,1-.18,0l-6.15-2.26a.5.5,0,0,1-.33-.45l-.58-13.55a.49.49,0,0,1,.21-.43.52.52,0,0,1,.29-.09.41.41,0,0,1,.19,0L36.3,24a.51.51,0,0,1,.31.46v13a.49.49,0,0,1-.22.41A.47.47,0,0,1,36.11,38Z" fill="url(#linear-gradient-4)"/><path d="M29.37,21.69l6.74,2.81v13L30,35.24l-.58-13.55m0-1a1,1,0,0,0-.57.18,1,1,0,0,0-.43.86L29,35.29a1,1,0,0,0,.66.89l6.15,2.26a1,1,0,0,0,.35.06,1,1,0,0,0,1-1v-13a1,1,0,0,0-.62-.92l-6.73-2.81a.91.91,0,0,0-.39-.08Z" fill="#6d6d6d"/><polygon points="19.1 37.13 12.45 42.11 20.12 45.79 19.1 37.13" fill="#b3b2b3" stroke="#6d6d6d" stroke-miterlimit="10"/><polygon points="19.24 29.07 19.03 42.61 14.07 40.12 14.07 26.68 19.24 29.07" stroke="#6d6d6d" stroke-linecap="round" stroke-linejoin="round" fill="url(#linear-gradient-5)"/><polygon points="29.37 21.69 29.95 35.24 19.37 42.78 19.24 29.07 29.37 21.69" stroke="#6d6d6d" stroke-linecap="round" stroke-linejoin="round" fill="url(#linear-gradient-6)"/><polygon points="45.98 17.09 36.11 24.5 29.37 21.69 19.24 29.07 14.07 26.68 24.24 19.41 19.36 16.71 28.66 9.68 45.98 17.09" fill="#fff" stroke="#6d6d6d" stroke-linecap="round" stroke-linejoin="round"/><polygon points="33.25 27.27 23.16 34.44 18.95 32.48 29.07 25.39 33.25 27.27" fill="#fff" stroke="#6d6d6d" stroke-linecap="round" stroke-linejoin="round"/><polygon points="23.61 34.75 33.6 27.48 33.6 46.25 23.63 53.52 23.61 34.75" fill="url(#linear-gradient-7)"/><path d="M33.11,28.46V46l-9,6.55,0-17.53,9-6.55m1-2-11,8,0,20,11-8v-20Z" fill="#6d6d6d"/><path d="M20.37,51.89a.6.6,0,0,0-.19-.06L8.11,45.37v-18l3.5,1.51V41.5a.48.48,0,0,0,.27.44l6.84,3.55a.59.59,0,0,0,.23,0,.48.48,0,0,0,.26-.07.5.5,0,0,0,.24-.43V33.21l4.16,1.63V53.66Z" fill="url(#linear-gradient-8)"/><path d="M8.61,28.08l2.5,1.08V41.5a1,1,0,0,0,.54.89l6.84,3.54A1,1,0,0,0,19,46a1.07,1.07,0,0,0,.52-.14A1,1,0,0,0,20,45V33.94l3.16,1.24V52.81l-2.5-1.36a.92.92,0,0,0-.25-.09L8.61,45.07v-17m-1-1.52V45.67L20.1,52.36l0,0,4,2.17v-20l-5.16-2V45L12.11,41.5v-13l-4.5-1.94Z" fill="#6d6d6d"/><path d="M28.9,33.58A2.52,2.52,0,0,0,26.74,35a5.77,5.77,0,0,0-.79,2.6,5.44,5.44,0,0,0,.54,2.85,2.36,2.36,0,0,0,1.86,1.4c1.48.06,2.8-1.73,2.95-4S30.38,33.64,28.9,33.58Z" fill="none" stroke="#949494" stroke-linecap="round" stroke-linejoin="round" stroke-width="0.15"/><path d="M31.12,34.56l-2.22-1A2.52,2.52,0,0,0,26.74,35a5.77,5.77,0,0,0-.79,2.6,5.44,5.44,0,0,0,.54,2.85,3,3,0,0,0,1.23,1.24L30.45,43" stroke="#053755" stroke-linecap="round" stroke-linejoin="round" fill="url(#linear-gradient-9)"/><line x1="32.18" y1="35.02" x2="31.12" y2="34.56" fill="none" stroke="#949494" stroke-linecap="round" stroke-linejoin="round" stroke-width="0.15"/><path d="M31.39,34.82a2.54,2.54,0,0,0-2.16,1.4,5.73,5.73,0,0,0-.79,2.6A5.44,5.44,0,0,0,29,41.67a2.33,2.33,0,0,0,1.87,1.39c1.48.07,2.8-1.72,2.95-4S32.87,34.89,31.39,34.82Z" stroke="#053755" stroke-linecap="round" stroke-linejoin="round" fill="url(#linear-gradient-10)"/><path d="M28.61,10l17.08,7.27-.13,13.27-9.45,7.32L33.75,36.7a5.59,5.59,0,0,1,.23,2,5.78,5.78,0,0,1-.52,2.06v5.55l-9.92,7.14v-.2l-2.9-1.57v0L7.52,45.21V26.61l9.79-6.85,2,1V16.83L28.61,10m0-1a1,1,0,0,0-.6.19L18.67,16a1,1,0,0,0-.4.81v2.29l-.51-.25a1.06,1.06,0,0,0-.45-.11,1,1,0,0,0-.57.18L7,25.79a1,1,0,0,0-.43.82v18.6a1,1,0,0,0,.56.89l13.13,6.54a.39.39,0,0,0,.15.06L22.66,54a1,1,0,0,0,.43.43,1,1,0,0,0,1-.08l9.92-7.14a1,1,0,0,0,.42-.81V41a6.81,6.81,0,0,0,.52-2.2c0-.13,0-.27,0-.4l.69.33a.91.91,0,0,0,.43.1,1,1,0,0,0,.61-.21l9.46-7.32a1,1,0,0,0,.38-.78l.13-13.27a1,1,0,0,0-.61-.93L29,9.06A.91.91,0,0,0,28.61,9Z" fill="#2d2d2d"/><polygon points="42.5 41.5 56.5 48.6 56.5 31.5 42.5 24.5 42.5 41.5" stroke="#2d2d2d" stroke-linecap="round" stroke-linejoin="round" fill="url(#linear-gradient-11)"/><polygon points="53 40.5 52 40.5 51 41.5 48 41.5 47 40.5 46 40.5 46 37 48 37.5 49 38 50 38 51 37.5 53 37 53 40.5" fill="#383838"/><polygon points="49.5 31 44 34.39 49.5 37 55 34.5 49.5 31" fill="#383838"/><rect x="54" y="36" width="1" height="3" fill="#383838"/><polygon points="22.11 9.5 18.02 16.71 21.11 15.29 21.11 23.5 23.11 23.5 23.11 15.29 26.47 16.65 22.11 9.5 22.11 9.5" fill="#fff"/><polygon points="7.39 46.55 15.38 44.34 12.2 43.16 18 37.36 16.59 35.94 10.78 41.75 9.37 38.41 7.39 46.55 7.39 46.55" fill="#fff"/><polygon points="43.41 45.83 39.14 38.72 38.86 42.1 31.72 38.06 30.73 39.8 37.87 43.84 35.03 46.1 43.41 45.83 43.41 45.83" fill="#fff"/><polygon points="22.11 9.5 18.02 16.71 21.11 15.29 21.11 23.5 23.11 23.5 23.11 15.29 26.47 16.65 22.11 9.5 22.11 9.5" fill="url(#linear-gradient-12)"/><polygon points="7.39 46.55 15.38 44.34 12.2 43.16 18 37.36 16.59 35.94 10.78 41.75 9.37 38.41 7.39 46.55 7.39 46.55" fill="url(#linear-gradient-12)"/><polygon points="43.41 45.83 39.14 38.72 38.86 42.1 31.72 38.06 30.73 39.8 37.87 43.84 35.03 46.1 43.41 45.83 43.41 45.83" fill="url(#linear-gradient-12)"/></svg>