<svg id="version_1_X_copy" data-name="version 1 X copy" xmlns="http://www.w3.org/2000/svg" xmlns:xlink="http://www.w3.org/1999/xlink" viewBox="0 0 64 64"><defs><style>.Graphic-Style-5,.cls-1,.cls-10,.cls-11,.cls-2,.cls-21,.cls-24,.cls-25,.cls-26,.cls-27,.cls-3,.cls-37,.cls-39,.cls-4,.cls-40,.cls-41,.cls-42,.cls-43,.cls-44,.cls-45,.cls-46,.cls-47,.cls-48,.cls-49,.cls-50,.cls-6,.cls-7,.cls-8,.cls-9{stroke:#797979;}.Graphic-Style-5,.cls-1,.cls-10,.cls-12,.cls-13,.cls-14,.cls-16,.cls-17,.cls-18,.cls-2,.cls-21,.cls-23,.cls-24,.cls-25,.cls-26,.cls-28,.cls-29,.cls-3,.cls-30,.cls-31,.cls-32,.cls-33,.cls-36,.cls-37,.cls-38,.cls-39,.cls-4,.cls-40,.cls-41,.cls-44,.cls-46,.cls-48,.cls-6,.cls-8,.cls-9{stroke-miterlimit:10;}.cls-1,.cls-10,.cls-11,.cls-12,.cls-13,.cls-14,.cls-16,.cls-17,.cls-18,.cls-2,.cls-21,.cls-24,.cls-25,.cls-26,.cls-27,.cls-28,.cls-29,.cls-3,.cls-30,.cls-31,.cls-32,.cls-33,.cls-37,.cls-38,.cls-39,.cls-4,.cls-40,.cls-41,.cls-42,.cls-43,.cls-44,.cls-45,.cls-46,.cls-47,.cls-48,.cls-49,.cls-50,.cls-6,.cls-7,.cls-8,.cls-9{stroke-width:0.07px;}.cls-1{fill:url(#linear-gradient);}.cls-2{fill:url(#linear-gradient-2);}.cls-3{fill:url(#linear-gradient-3);}.cls-4{fill:url(#linear-gradient-4);}.cls-44,.cls-5{fill:#323232;}.cls-22,.cls-6{fill:#797979;}.cls-11,.cls-27,.cls-42,.cls-43,.cls-45,.cls-47,.cls-49,.cls-50,.cls-7{stroke-linecap:round;stroke-linejoin:round;}.cls-7{fill:url(#top_white);}.cls-8{fill:url(#linear-gradient-5);}.cls-9{fill:url(#linear-gradient-6);}.cls-10{fill:url(#white_left);}.cls-11{fill:url(#top_white-2);}.cls-12,.cls-13,.cls-14,.cls-16,.cls-17,.cls-18,.cls-23,.cls-28,.cls-29,.cls-30,.cls-31,.cls-32,.cls-33,.cls-38{stroke:#00415f;}.cls-12{fill:url(#linear-gradient-7);}.cls-13{fill:url(#linear-gradient-8);}.cls-14{fill:url(#linear-gradient-9);}.cls-15{isolation:isolate;}.cls-16{fill:url(#linear-gradient-10);}.cls-17{fill:url(#linear-gradient-11);}.cls-18{fill:url(#linear-gradient-12);}.cls-19{fill:#83aac1;}.cls-20{fill:#285977;}.cls-21{fill:url(#white_left-2);}.cls-23{fill:#e1e1e1;stroke-width:0.07px;}.cls-24{fill:url(#linear-gradient-13);}.cls-25{fill:url(#linear-gradient-14);}.cls-26{fill:url(#white_left-3);}.cls-27{fill:url(#top_white-3);}.cls-28{fill:url(#linear-gradient-15);}.cls-29{fill:url(#linear-gradient-16);}.cls-30{fill:url(#linear-gradient-17);}.cls-31{fill:url(#linear-gradient-18);}.cls-32{fill:url(#linear-gradient-19);}.cls-33{fill:url(#linear-gradient-20);}.Graphic-Style-5{stroke-width:0.04px;fill:url(#linear-gradient-21);}.cls-34{fill:#45778e;}.cls-35{fill:#305363;}.cls-36{fill:#93bed7;stroke:#aadcfa;stroke-width:0.14px;}.cls-37{fill:url(#linear-gradient-25);}.cls-38,.cls-43{fill:#2d6d8b;}.cls-39{fill:url(#linear-gradient-26);}.cls-40{fill:url(#linear-gradient-27);}.cls-41{fill:url(#linear-gradient-28);}.cls-42{fill:url(#top_white-4);}.cls-45{fill:url(#top_white-5);}.cls-46{fill:url(#linear-gradient-29);}.cls-47{fill:url(#top_white-6);}.cls-48{fill:url(#linear-gradient-30);}.cls-49{fill:url(#top_white-7);}.cls-50{fill:url(#top_white-8);}</style><linearGradient id="linear-gradient" x1="29.01" y1="36.28" x2="32.19" y2="36.28" gradientUnits="userSpaceOnUse"><stop offset="0.01" stop-color="#323232"/><stop offset="0.05" stop-color="#3d3d3d"/><stop offset="0.12" stop-color="#5a5a5a"/><stop offset="0.22" stop-color="#898989"/><stop offset="0.33" stop-color="#cacaca"/><stop offset="0.37" stop-color="#e1e1e1"/><stop offset="0.41" stop-color="#ccc"/><stop offset="0.5" stop-color="#9d9d9d"/><stop offset="0.58" stop-color="#777"/><stop offset="0.67" stop-color="#595959"/><stop offset="0.75" stop-color="#434343"/><stop offset="0.84" stop-color="#363636"/><stop offset="0.91" stop-color="#323232"/></linearGradient><linearGradient id="linear-gradient-2" x1="17.66" y1="42.88" x2="20.83" y2="42.88" xlink:href="#linear-gradient"/><linearGradient id="linear-gradient-3" x1="41.55" y1="43.55" x2="44.73" y2="43.55" xlink:href="#linear-gradient"/><linearGradient id="linear-gradient-4" x1="30.23" y1="50.15" x2="33.41" y2="50.15" xlink:href="#linear-gradient"/><linearGradient id="top_white" x1="26.34" y1="34.37" x2="36.03" y2="51.15" gradientUnits="userSpaceOnUse"><stop offset="0" stop-color="#fff"/><stop offset="1" stop-color="#f0f0f0"/></linearGradient><linearGradient id="linear-gradient-5" x1="17.65" y1="39.69" x2="20.84" y2="39.69" xlink:href="#linear-gradient"/><linearGradient id="linear-gradient-6" x1="29" y1="33.09" x2="32.19" y2="33.09" xlink:href="#linear-gradient"/><linearGradient id="white_left" x1="14.29" y1="41.57" x2="19.26" y2="41.57" gradientUnits="userSpaceOnUse"><stop offset="0" stop-color="#f5f5f5"/><stop offset="1" stop-color="#bebebe"/></linearGradient><linearGradient id="top_white-2" x1="14.3" y1="35.3" x2="35.5" y2="35.3" xlink:href="#top_white"/><linearGradient id="linear-gradient-7" x1="29.47" y1="30.53" x2="31.7" y2="30.53" gradientUnits="userSpaceOnUse"><stop offset="0" stop-color="#285977"/><stop offset="0.32" stop-color="#285977"/><stop offset="0.69" stop-color="#5a9ab8"/><stop offset="0.88" stop-color="#285977"/></linearGradient><linearGradient id="linear-gradient-8" x1="28.99" y1="31.31" x2="32.18" y2="31.31" gradientUnits="userSpaceOnUse"><stop offset="0" stop-color="#aadcfa"/><stop offset="0.6" stop-color="#285977"/><stop offset="1" stop-color="#aadcfa"/></linearGradient><linearGradient id="linear-gradient-9" x1="29" y1="29.7" x2="32.18" y2="29.7" gradientUnits="userSpaceOnUse"><stop offset="0" stop-color="#fff"/><stop offset="0.46" stop-color="#82bddb"/><stop offset="0.89" stop-color="#aadcfa"/></linearGradient><linearGradient id="linear-gradient-10" x1="18.15" y1="37.1" x2="20.38" y2="37.1" xlink:href="#linear-gradient-7"/><linearGradient id="linear-gradient-11" x1="17.67" y1="37.87" x2="20.86" y2="37.87" xlink:href="#linear-gradient-8"/><linearGradient id="linear-gradient-12" x1="17.68" y1="36.26" x2="20.86" y2="36.26" xlink:href="#linear-gradient-9"/><linearGradient id="white_left-2" x1="19.32" y1="46.25" x2="26.86" y2="46.25" xlink:href="#white_left"/><linearGradient id="linear-gradient-13" x1="41.56" y1="40.56" x2="44.74" y2="40.56" xlink:href="#linear-gradient"/><linearGradient id="linear-gradient-14" x1="30.23" y1="47.17" x2="33.42" y2="47.17" xlink:href="#linear-gradient"/><linearGradient id="white_left-3" x1="27.44" y1="45.51" x2="31.26" y2="52.13" xlink:href="#white_left"/><linearGradient id="top_white-3" x1="26.87" y1="42.55" x2="48.08" y2="42.55" xlink:href="#top_white"/><linearGradient id="linear-gradient-15" x1="42.01" y1="37.75" x2="44.24" y2="37.75" xlink:href="#linear-gradient-7"/><linearGradient id="linear-gradient-16" x1="41.57" y1="38.54" x2="44.75" y2="38.54" xlink:href="#linear-gradient-8"/><linearGradient id="linear-gradient-17" x1="41.57" y1="36.93" x2="44.75" y2="36.93" xlink:href="#linear-gradient-9"/><linearGradient id="linear-gradient-18" x1="30.7" y1="44.36" x2="32.93" y2="44.36" xlink:href="#linear-gradient-7"/><linearGradient id="linear-gradient-19" x1="30.23" y1="45.14" x2="33.41" y2="45.14" xlink:href="#linear-gradient-8"/><linearGradient id="linear-gradient-20" x1="30.24" y1="43.53" x2="33.41" y2="43.53" xlink:href="#linear-gradient-9"/><linearGradient id="linear-gradient-21" x1="30.65" y1="41.48" x2="33" y2="41.48" gradientUnits="userSpaceOnUse"><stop offset="0" stop-color="#fff"/><stop offset="0.6" stop-color="#323232"/><stop offset="1" stop-color="#e1e1e1"/></linearGradient><linearGradient id="linear-gradient-25" x1="30.65" y1="36.03" x2="33" y2="36.03" gradientUnits="userSpaceOnUse"><stop offset="0" stop-color="#fff"/><stop offset="0.6" stop-color="#797979"/><stop offset="1" stop-color="#e1e1e1"/></linearGradient><linearGradient id="linear-gradient-26" x1="41.95" y1="29.43" x2="44.31" y2="29.43" xlink:href="#linear-gradient-25"/><linearGradient id="linear-gradient-27" x1="18.07" y1="28.76" x2="20.43" y2="28.76" xlink:href="#linear-gradient-25"/><linearGradient id="linear-gradient-28" x1="29.43" y1="22.18" x2="31.76" y2="22.18" xlink:href="#linear-gradient-25"/><linearGradient id="top_white-4" x1="27.1" y1="11.93" x2="37.27" y2="29.54" xlink:href="#top_white"/><linearGradient id="top_white-5" x1="16.52" y1="20.11" x2="47.85" y2="20.11" xlink:href="#top_white"/><linearGradient id="linear-gradient-29" x1="24.81" y1="17.45" x2="37.56" y2="17.45" xlink:href="#linear-gradient-21"/><linearGradient id="top_white-6" x1="28.97" y1="11.09" x2="33.41" y2="18.78" xlink:href="#top_white"/><linearGradient id="linear-gradient-30" x1="26.89" y1="15.07" x2="35.48" y2="15.07" xlink:href="#linear-gradient-21"/><linearGradient id="top_white-7" x1="29.71" y1="9.92" x2="32.67" y2="15.05" xlink:href="#top_white"/><linearGradient id="top_white-8" x1="29.67" y1="9.85" x2="32.71" y2="15.12" xlink:href="#top_white"/></defs><title>ddd__A33AAe__R21XArtboard 1</title><g id="_9_copy_2" data-name="9 copy 2"><path class="cls-1" d="M31.72,35.18a2.48,2.48,0,0,0-2.25,0,.8.8,0,0,0-.46.65v1.8a.78.78,0,0,1,.46-.64,2.46,2.46,0,0,1,2.24,0,.79.79,0,0,1,.47.65v-1.8A.81.81,0,0,0,31.72,35.18Z"/><path class="cls-2" d="M20.83,42.44v1.8a.79.79,0,0,0-.47-.65,2.46,2.46,0,0,0-2.24,0,.78.78,0,0,0-.46.64v-1.8a.78.78,0,0,1,.46-.65,2.48,2.48,0,0,1,2.25,0A.79.79,0,0,1,20.83,42.44Z"/><path class="cls-3" d="M44.26,42.45a2.46,2.46,0,0,0-2.24,0,.78.78,0,0,0-.46.64V44.9a.79.79,0,0,1,.46-.64,2.48,2.48,0,0,1,2.25,0,.81.81,0,0,1,.47.65V43.1A.79.79,0,0,0,44.26,42.45Z"/><path class="cls-4" d="M33.41,49.71c0,.6,0,1.2,0,1.81a.81.81,0,0,0-.47-.66,2.46,2.46,0,0,0-2.24,0,.78.78,0,0,0-.46.65V49.7a.79.79,0,0,1,.46-.64,2.42,2.42,0,0,1,2.25,0A.78.78,0,0,1,33.41,49.71Z"/><polygon class="cls-5" points="49.85 43.11 49.85 44.41 31.83 54.87 31.84 53.57 49.85 43.11"/><polygon class="cls-6" points="31.84 53.57 31.83 54.87 12.51 43.72 12.52 42.42 31.84 53.57"/><path class="cls-7" d="M30.53,32,49.85,43.11l-18,10.46L12.52,42.42Zm1.19,3.22a2.48,2.48,0,0,0-2.25,0,.69.69,0,0,0,0,1.3,2.48,2.48,0,0,0,2.25,0,.69.69,0,0,0,0-1.3m-1,15.17a2.46,2.46,0,0,0,2.24,0c.62-.36.62-.94,0-1.29a2.42,2.42,0,0,0-2.25,0c-.62.35-.61.93,0,1.29M18.13,43.08a2.46,2.46,0,0,0,2.24,0,.69.69,0,0,0,0-1.3,2.48,2.48,0,0,0-2.25,0c-.62.36-.61.94,0,1.3m26.13-.63a2.46,2.46,0,0,0-2.24,0,.69.69,0,0,0,0,1.3,2.46,2.46,0,0,0,2.24,0c.62-.36.61-.94,0-1.3"/></g><g id="_8_copy_2" data-name="8 copy 2"><g id="g1_" data-name="g1  **"><path class="cls-8" d="M20.84,38.6v3.1a.81.81,0,0,0-.47-.65,2.48,2.48,0,0,0-2.25,0,.8.8,0,0,0-.46.64c0-1.5,0-1.59,0-3.1a.78.78,0,0,1,.46-.64,2.46,2.46,0,0,1,2.24,0A.77.77,0,0,1,20.84,38.6Z"/><path class="cls-9" d="M31.71,34.45a2.48,2.48,0,0,0-2.25,0,.8.8,0,0,0-.46.64V32a.81.81,0,0,1,.47-.64,2.46,2.46,0,0,1,2.24,0m0,3.1a.81.81,0,0,1,.47.65c0-1.5,0-1.59,0-3.1a.81.81,0,0,0-.47-.65"/><polygon class="cls-10" points="19.26 41.45 19.25 44.55 14.29 41.69 14.3 38.59 19.26 41.45"/><polygon class="cls-5" points="35.5 32.02 35.49 35.12 19.25 44.55 19.26 41.45 35.5 32.02"/><path class="cls-11" d="M30.54,29.15l5,2.87L19.26,41.45l-5-2.86ZM18.13,39.25a2.48,2.48,0,0,0,2.25,0c.62-.36.61-.94,0-1.3a2.46,2.46,0,0,0-2.24,0,.69.69,0,0,0,0,1.3m13.59-7.9a2.46,2.46,0,0,0-2.24,0,.69.69,0,0,0,0,1.3,2.48,2.48,0,0,0,2.25,0c.62-.36.61-.94,0-1.3"/></g><path class="cls-12" d="M31.7,29.71V32a.56.56,0,0,0-.33-.46,1.74,1.74,0,0,0-1.57,0,.55.55,0,0,0-.32.45V29.7a.53.53,0,0,1,.32-.45,1.74,1.74,0,0,1,1.57,0A.55.55,0,0,1,31.7,29.71Z"/><path class="cls-13" d="M32.18,29.71V32a.79.79,0,0,1-.46.64,2.48,2.48,0,0,1-2.25,0A.79.79,0,0,1,29,32V29.7a.81.81,0,0,0,.47.65,2.46,2.46,0,0,0,2.24,0A.79.79,0,0,0,32.18,29.71Z"/><path class="cls-14" d="M31.71,29.05a.69.69,0,0,1,0,1.3,2.46,2.46,0,0,1-2.24,0c-.62-.36-.63-.94,0-1.3A2.48,2.48,0,0,1,31.71,29.05Zm-1.9,1.11a1.74,1.74,0,0,0,1.57,0,.48.48,0,0,0,0-.91,1.74,1.74,0,0,0-1.57,0,.48.48,0,0,0,0,.91"/><g class="cls-15"><path class="cls-16" d="M20.38,36.27v2.3a.56.56,0,0,0-.33-.46,1.74,1.74,0,0,0-1.57,0,.57.57,0,0,0-.32.45v-2.3a.55.55,0,0,1,.32-.45,1.74,1.74,0,0,1,1.57,0A.56.56,0,0,1,20.38,36.27Z"/><path class="cls-17" d="M20.86,36.27v2.3a.8.8,0,0,1-.46.65,2.48,2.48,0,0,1-2.25,0,.81.81,0,0,1-.47-.66v-2.3a.79.79,0,0,0,.47.65,2.48,2.48,0,0,0,2.25,0A.81.81,0,0,0,20.86,36.27Z"/><path class="cls-18" d="M20.39,35.61a.69.69,0,0,1,0,1.3,2.48,2.48,0,0,1-2.25,0,.69.69,0,0,1,0-1.3A2.48,2.48,0,0,1,20.39,35.61Zm-1.9,1.11a1.74,1.74,0,0,0,1.57,0,.48.48,0,0,0,0-.91,1.74,1.74,0,0,0-1.57,0,.48.48,0,0,0,0,.91"/></g></g><g id="_7_copy_2" data-name="7 copy 2"><polygon class="cls-19" points="35.5 34.17 35.49 35.1 19.33 44.49 19.33 43.56 35.5 34.17"/><polygon class="cls-20" points="43.17 38.43 43.17 39.45 26.85 48.93 26.86 47.91 43.17 38.43"/><polygon class="cls-21" points="26.86 47.89 26.85 48.93 19.32 44.49 19.33 43.57 26.86 47.89"/><path class="cls-22" d="M43,38.52,26.86,47.9l-7.53-4.33L35.5,34.18Zm-16,5a4.35,4.35,0,0,0,4,0l4.42-2.57a1.21,1.21,0,0,0,0-2.29,4.37,4.37,0,0,0-4,0L27,41.19c-1.08.63-1.07,1.66,0,2.3"/><g class="cls-15"><path class="cls-5" d="M35.45,38.63,31,41.2a4.37,4.37,0,0,1-4,0,1.39,1.39,0,0,1-.84-1.14v2.31a1.37,1.37,0,0,0,.83,1.15,4.37,4.37,0,0,0,4,0l4.41-2.64c.89-.51.77-.87.77-1.28V37.49A1.31,1.31,0,0,1,35.45,38.63Z"/><path class="cls-23" d="M35.39,38.67,31,41.22a4.35,4.35,0,0,1-3.93,0c-1.09-.63-1.1-1.65,0-2.27l4.37-2.55a4.35,4.35,0,0,1,3.93,0A1.2,1.2,0,0,1,35.39,38.67Z"/></g></g><g id="_6_copy_2" data-name="6 copy 2"><g id="d1_" data-name="d1   ***"><g class="cls-15"><path class="cls-24" d="M44.27,38.61a2.46,2.46,0,0,0-2.24,0,.78.78,0,0,0-.46.65v3.52a.78.78,0,0,1,.46-.65,2.46,2.46,0,0,1,2.24,0,.81.81,0,0,1,.47.66V39.27A.79.79,0,0,0,44.27,38.61Z"/><path class="cls-25" d="M33.42,45.87v3.52a.79.79,0,0,0-.47-.65,2.48,2.48,0,0,0-2.25,0,.79.79,0,0,0-.46.64V45.86a.79.79,0,0,1,.47-.64,2.46,2.46,0,0,1,2.24,0A.81.81,0,0,1,33.42,45.87Z"/></g><polygon class="cls-26" points="31.84 48.7 31.83 51.8 26.86 48.93 26.87 45.83 31.84 48.7"/><polygon class="cls-5" points="48.08 39.27 48.07 42.37 31.83 51.8 31.84 48.7 48.08 39.27"/><path class="cls-27" d="M43.11,36.4l5,2.87L31.84,48.7l-5-2.87Zm1.16,2.21a2.46,2.46,0,0,0-2.24,0,.69.69,0,0,0,0,1.3,2.46,2.46,0,0,0,2.24,0,.69.69,0,0,0,0-1.3M30.71,46.52a2.48,2.48,0,0,0,2.25,0c.62-.36.61-.94,0-1.3a2.46,2.46,0,0,0-2.24,0,.69.69,0,0,0,0,1.3"/></g><g class="cls-15"><path id="int" class="cls-28" d="M44.24,36.92v2.31a.56.56,0,0,0-.33-.46,1.74,1.74,0,0,0-1.57,0,.53.53,0,0,0-.32.45v-2.3a.55.55,0,0,1,.33-.45,1.68,1.68,0,0,1,1.57,0A.55.55,0,0,1,44.24,36.92Z"/><path class="cls-29" d="M44.75,36.94v2.3a.81.81,0,0,1-.46.65,2.48,2.48,0,0,1-2.25,0,.79.79,0,0,1-.46-.66v-2.3a.79.79,0,0,0,.47.65,2.48,2.48,0,0,0,2.25,0A.79.79,0,0,0,44.75,36.94Z"/><path class="cls-30" d="M44.28,36.28a.69.69,0,0,1,0,1.3,2.48,2.48,0,0,1-2.25,0c-.62-.36-.63-.94,0-1.3A2.54,2.54,0,0,1,44.28,36.28Zm-1.9,1.11a1.74,1.74,0,0,0,1.57,0,.48.48,0,0,0,0-.91,1.74,1.74,0,0,0-1.57,0,.48.48,0,0,0,0,.91"/></g><path id="int-2" data-name="int" class="cls-31" d="M32.93,43.53v2.3a.55.55,0,0,0-.33-.45,1.68,1.68,0,0,0-1.57,0,.53.53,0,0,0-.33.45v-2.3a.56.56,0,0,1,.33-.46,1.74,1.74,0,0,1,1.57,0A.56.56,0,0,1,32.93,43.53Z"/><path class="cls-32" d="M33.41,43.53v2.3a.78.78,0,0,1-.46.65,2.46,2.46,0,0,1-2.24,0,.79.79,0,0,1-.47-.65V43.52a.79.79,0,0,0,.46.66,2.48,2.48,0,0,0,2.25,0A.78.78,0,0,0,33.41,43.53Z"/><path class="cls-33" d="M32.94,42.88c.62.36.63.94,0,1.3a2.48,2.48,0,0,1-2.25,0,.69.69,0,0,1,0-1.3A2.46,2.46,0,0,1,32.94,42.88ZM31,44a1.74,1.74,0,0,0,1.57,0,.48.48,0,0,0,0-.91,1.74,1.74,0,0,0-1.57,0A.48.48,0,0,0,31,44"/></g><g id="_5_copy_2" data-name="5 copy 2"><g id="dessous"><path class="Graphic-Style-5" d="M33,39.72l0,2.86a.59.59,0,0,1-.34.47,1.78,1.78,0,0,1-1.65,0,.55.55,0,0,1-.34-.48l0-2.86a.58.58,0,0,0,.34.48,1.84,1.84,0,0,0,1.65,0A.59.59,0,0,0,33,39.72Z"/><path class="cls-5" d="M32.65,39.24a.5.5,0,0,1,0,.95,1.84,1.84,0,0,1-1.65,0,.5.5,0,0,1,0-.95A1.78,1.78,0,0,1,32.65,39.24Z"/><g class="cls-15"><path class="Graphic-Style-5" d="M44,33.6a1.84,1.84,0,0,1-1.65,0,.59.59,0,0,1-.35-.48c0,2.41,0,.46,0,2.87a.59.59,0,0,0,.35.48,1.84,1.84,0,0,0,1.65,0,.58.58,0,0,0,.34-.48l0-2.87A.6.6,0,0,1,44,33.6Z"/><path class="cls-5" d="M42.32,33.6c-.46-.27-.46-.69,0-1a1.84,1.84,0,0,1,1.65,0c.46.27.46.69,0,1A1.84,1.84,0,0,1,42.32,33.6Z"/></g><g class="cls-15"><path class="Graphic-Style-5" d="M20.43,32.44c0,2.41,0,.46,0,2.87a.59.59,0,0,1-.34.47,1.84,1.84,0,0,1-1.65,0,.59.59,0,0,1-.35-.48c0-2.41,0-.45,0-2.86a.59.59,0,0,0,.35.48,1.84,1.84,0,0,0,1.65,0A.59.59,0,0,0,20.43,32.44Z"/><path class="cls-5" d="M20.08,32c.46.27.46.69,0,1a1.84,1.84,0,0,1-1.65,0c-.46-.27-.46-.69,0-1A1.84,1.84,0,0,1,20.08,32Zm-1.56.91"/></g><g class="cls-15"><path class="Graphic-Style-5" d="M29.77,26.33a.58.58,0,0,1-.34-.48v2.86a.55.55,0,0,0,.34.48m0-2.86a1.84,1.84,0,0,0,1.65,0,.57.57,0,0,0,.34-.48v2.87a.57.57,0,0,1-.34.47,1.78,1.78,0,0,1-1.65,0"/><path class="cls-5" d="M29.77,26.33a.51.51,0,0,1,0-1,1.84,1.84,0,0,1,1.65,0c.46.27.46.7,0,1A1.84,1.84,0,0,1,29.77,26.33Z"/></g></g></g><g id="_4_copy_2" data-name="4 copy 2"><polygon class="cls-20" points="38.41 31.23 30.23 35.98 23.62 32.17 26.11 30.72 20.82 27.67 24.18 25.72 29.46 28.77 31.8 27.41 38.41 31.23"/><g id="trou" class="cls-15"><path class="cls-20" d="M29.42,24.27a.83.83,0,0,0-.47.67V23.86a.8.8,0,0,1,.48-.67,2.56,2.56,0,0,1,2.32,0,.93.93,0,0,1,.45.48v1.1h0a.93.93,0,0,0-.45-.5A2.58,2.58,0,0,0,29.42,24.27Z"/><path class="cls-20" d="M42,31.54a.81.81,0,0,0-.48.67V31.12a.8.8,0,0,1,.48-.66,2.5,2.5,0,0,1,2.32,0,1,1,0,0,1,.46.48c0,.37,0,.67,0,1.09h0a1,1,0,0,0-.46-.49A2.56,2.56,0,0,0,42,31.54Z"/><path class="cls-20" d="M30.65,38.15a.8.8,0,0,0-.48.66V37.73a.83.83,0,0,1,.47-.67,2.58,2.58,0,0,1,2.33,0,1,1,0,0,1,.45.49c0,.36,0,.67,0,1.09h0a1,1,0,0,0-.46-.49A2.5,2.5,0,0,0,30.65,38.15Z"/><path class="cls-20" d="M18.07,30.87a.81.81,0,0,0-.47.67V30.45a.83.83,0,0,1,.48-.67,2.56,2.56,0,0,1,2.32,0,.94.94,0,0,1,.45.49v1.09h0a.93.93,0,0,0-.46-.49A2.56,2.56,0,0,0,18.07,30.87Z"/></g><g id="contour"><polygon class="cls-34" points="26.05 29.78 26.05 30.87 23.56 32.31 23.57 31.23 26.05 29.78"/><polygon class="cls-34" points="31.76 26.47 31.76 27.55 29.41 28.92 29.42 27.83 31.76 26.47"/><polygon class="cls-35" points="29.42 27.83 29.41 28.92 24.05 25.82 24.05 24.74 29.42 27.83"/><polygon class="cls-35" points="38.37 30.28 38.37 31.36 31.76 27.55 31.76 26.47 38.37 30.28"/><polygon class="cls-34" points="48.15 31.14 48.15 32.22 31.83 41.7 31.83 40.62 48.15 31.14"/><polygon class="cls-35" points="31.83 40.62 31.83 41.7 14.21 31.53 14.22 30.45 31.83 40.62"/></g><path class="cls-36" d="M30.54,21.06,48,31.14,31.83,40.53,14.37,30.45l6.32-3.67,5.21,3-2.49,1.45,6.76,3.9,8.35-4.85-6.76-3.9-2.34,1.36-5.21-3ZM18.09,31.13a2.56,2.56,0,0,0,2.32,0,.71.71,0,0,0,0-1.34,2.56,2.56,0,0,0-2.32,0c-.64.37-.63,1,0,1.34m11.35-6.6a2.58,2.58,0,0,0,2.33,0,.71.71,0,0,0,0-1.34,2.58,2.58,0,0,0-2.33,0,.71.71,0,0,0,0,1.34m1.22,13.88a2.56,2.56,0,0,0,2.32,0,.71.71,0,0,0,0-1.35,2.58,2.58,0,0,0-2.33,0c-.64.37-.63,1,0,1.35M44.3,30.46a2.56,2.56,0,0,0-2.32,0,.71.71,0,0,0,0,1.34,2.56,2.56,0,0,0,2.32,0c.64-.37.63-1,0-1.34"/></g><g id="_3_copy_2" data-name="3 copy 2"><path class="cls-37" d="M33,33.63l0,4.13a.6.6,0,0,1-.34.48,1.84,1.84,0,0,1-1.65,0c-.23-.14-.35-.31-.34-.48l0-4.13a.58.58,0,0,0,.34.48,1.84,1.84,0,0,0,1.65,0A.59.59,0,0,0,33,33.63Z"/><path class="cls-38" d="M32.65,33.15c.46.27.46.7,0,1a1.84,1.84,0,0,1-1.65,0,.51.51,0,0,1,0-1A1.84,1.84,0,0,1,32.65,33.15Z"/><g class="cls-15"><path class="cls-39" d="M44,27.52a1.84,1.84,0,0,1-1.65,0A.61.61,0,0,1,42,27c0,2.4,0,1.69,0,4.1a.58.58,0,0,0,.35.48,1.84,1.84,0,0,0,1.65,0,.57.57,0,0,0,.34-.47l0-4.11A.61.61,0,0,1,44,27.52Z"/><path class="cls-38" d="M42.32,27.52c-.46-.27-.46-.7,0-1a1.84,1.84,0,0,1,1.65,0,.51.51,0,0,1,0,1A1.84,1.84,0,0,1,42.32,27.52Z"/></g><g class="cls-15"><path class="cls-40" d="M20.43,26.36c0,2.41,0,1.73,0,4.14a.59.59,0,0,1-.34.47,1.78,1.78,0,0,1-1.65,0,.58.58,0,0,1-.35-.48c0-2.41,0-1.73,0-4.13a.58.58,0,0,0,.35.47,1.78,1.78,0,0,0,1.65,0A.57.57,0,0,0,20.43,26.36Z"/><path class="cls-38" d="M20.08,25.88a.5.5,0,0,1,0,.95,1.78,1.78,0,0,1-1.65,0,.5.5,0,0,1,0-.95A1.84,1.84,0,0,1,20.08,25.88Zm-1.56.91"/></g><g class="cls-15"><path class="cls-41" d="M29.77,20.25a.58.58,0,0,1-.34-.48v4.15c0,.17.11.34.34.48m0-4.15a1.84,1.84,0,0,0,1.65,0,.58.58,0,0,0,.34-.48v4.15a.57.57,0,0,1-.34.47,1.81,1.81,0,0,1-1.65,0"/><path class="cls-38" d="M29.77,20.25c-.45-.27-.46-.69,0-1a1.84,1.84,0,0,1,1.65,0,.51.51,0,0,1,0,1A1.84,1.84,0,0,1,29.77,20.25Z"/></g></g><g id="_2_copy_2" data-name="2 copy 2"><g id="contour-2" data-name="contour"><g class="cls-15"><path class="cls-5" d="M49.75,22.29,34.87,30.92a4.45,4.45,0,0,1-4.08,0l-16.2-9.34a1.44,1.44,0,0,1-.85-1.19v.9a1.44,1.44,0,0,0,.85,1.19l16.2,9.35a4.51,4.51,0,0,0,4.08,0L49.75,23c.52-.31,1-.37.87-2.15C50.57,20.93,50.84,21.6,49.75,22.29Z"/><path class="cls-42" d="M49.77,19.9a1.25,1.25,0,0,1,0,2.36L34.87,30.92a4.45,4.45,0,0,1-4.08,0l-16.2-9.34a1.25,1.25,0,0,1,0-2.37l14.91-8.66a4.51,4.51,0,0,1,4.08,0Z"/></g><path class="cls-43" d="M47.11,19.27a1.25,1.25,0,0,1,0,2.36L34.86,28.75a4.51,4.51,0,0,1-4.08,0L17.26,21a1.25,1.25,0,0,1,0-2.37L29.5,11.46a4.51,4.51,0,0,1,4.08,0Z"/><path class="cls-5" d="M47.42,21.45,34.74,28.8a4.41,4.41,0,0,1-4-.08L17.24,21a1.43,1.43,0,0,1-.84-1.19v.9a1.46,1.46,0,0,0,.86,1.19l13.5,7.77a4.51,4.51,0,0,0,4.09.09l12.56-7.36c.76-.47.55-1.15.55-2.07A1.25,1.25,0,0,1,47.42,21.45Z"/><path class="cls-44" d="M38.51,20.14v.91a3.15,3.15,0,0,0-1.87-2.6,9.9,9.9,0,0,0-8.95,0A3.13,3.13,0,0,0,25.86,21V20.1a3.14,3.14,0,0,1,1.84-2.57,9.87,9.87,0,0,1,9,0A3.18,3.18,0,0,1,38.51,20.14ZM34,26.38c.62.35.49,1,.49,1.58,0-1.3-3.28-1.33-3.29,0,0-.59-.13-1.22.48-1.57a2.47,2.47,0,0,1,2.32,0C34.3,26.56,33.54,26.13,34,26.38Zm11.34-6.61a2.47,2.47,0,0,0-2.33,0c-.61.36-.48,1-.48,1.57,0-1.19,2.18-1,2.8-.67m0-.9c.61.41.44.69.43,1.36a1,1,0,0,0-.44-.46M32.76,12.5a2.57,2.57,0,0,0-2-.15c-.85.28-.81.82-.81,1.59.26-1,2.1-.93,2.79-.53m0-.91c.61.36.48,1,.48,1.58a.81.81,0,0,0-.48-.67M21.42,19.13c.62.36.48,1,.48,1.58,0-1.3-3.28-1.33-3.28,0,0-.59-.13-1.22.48-1.57a2.47,2.47,0,0,1,2.32,0Z"/><path class="cls-45" d="M47,19.32a1.2,1.2,0,0,1,0,2.27L34.78,28.71a4.36,4.36,0,0,1-3.92,0L17.34,20.9a1.2,1.2,0,0,1,0-2.27l12.25-7.12a4.3,4.3,0,0,1,3.92,0Zm-19.34,3.4a10,10,0,0,0,9,0c2.48-1.44,2.46-3.78,0-5.22a10,10,0,0,0-9,0c-2.48,1.44-2.46,3.78,0,5.22M32.76,12.5a2.55,2.55,0,0,0-2.33,0c-.64.37-.63,1,0,1.34a2.56,2.56,0,0,0,2.32,0,.71.71,0,0,0,0-1.35m12.55,7.27a2.58,2.58,0,0,0-2.33,0,.71.71,0,0,0,0,1.35,2.58,2.58,0,0,0,2.33,0,.71.71,0,0,0,0-1.35m-13.65,8a2.56,2.56,0,0,0,2.32,0,.71.71,0,0,0,0-1.34,2.56,2.56,0,0,0-2.32,0c-.64.37-.63,1,0,1.34M19.09,20.45a2.56,2.56,0,0,0,2.32,0c.64-.37.64-1,0-1.35a2.56,2.56,0,0,0-2.32,0,.71.71,0,0,0,0,1.35"/></g></g><g id="_1_copy_2" data-name="1 copy 2"><g class="cls-15"><path class="cls-46" d="M37.56,15c0,.45,0,.91,0,1.36a3.15,3.15,0,0,1-1.84,2.59,10,10,0,0,1-9,0,3.18,3.18,0,0,1-1.88-2.63V14.92a3.19,3.19,0,0,0,1.88,2.62,10,10,0,0,0,9,0A3.17,3.17,0,0,0,37.56,15Z"/><path class="cls-47" d="M35.6,12.37c2.45,1.41,2.47,3.71,0,5.13a9.81,9.81,0,0,1-8.86,0c-2.45-1.42-2.46-3.72,0-5.13A9.75,9.75,0,0,1,35.6,12.37Z"/></g><path class="cls-48" d="M35.48,12.5c0,.9,0,1.8,0,2.71A2.12,2.12,0,0,1,34.22,17a6.67,6.67,0,0,1-6.06,0,2.15,2.15,0,0,1-1.27-1.77c0-.9,0-1.81,0-2.71a2.16,2.16,0,0,0,1.26,1.77,6.69,6.69,0,0,0,6.07,0A2.14,2.14,0,0,0,35.48,12.5Z"/><path class="cls-49" d="M34.13,10.77c1.64.94,1.65,2.48,0,3.42a6.48,6.48,0,0,1-5.91,0c-1.63-.94-1.64-2.48,0-3.42A6.55,6.55,0,0,1,34.13,10.77Z"/><path class="cls-50" d="M34.21,10.73c1.68,1,1.69,2.54,0,3.51a6.69,6.69,0,0,1-6.07,0c-1.67-1-1.68-2.55,0-3.51A6.67,6.67,0,0,1,34.21,10.73Zm-6,3.46a6.48,6.48,0,0,0,5.91,0c1.63-.94,1.62-2.48,0-3.42a6.55,6.55,0,0,0-5.91,0c-1.62.94-1.61,2.48,0,3.42"/></g></svg>