<svg id="CATIA___B15_MUE_-_Design_to_Model" data-name="CATIA _ (B15) MUE - Design to Model" xmlns="http://www.w3.org/2000/svg" xmlns:xlink="http://www.w3.org/1999/xlink" viewBox="0 0 64 64"><defs><style>.cls-1{fill:#fff;}.cls-2{mask:url(#mask);}.cls-10,.cls-11,.cls-12,.cls-13,.cls-14,.cls-15,.cls-16,.cls-17,.cls-3,.cls-4,.cls-5,.cls-6,.cls-9{stroke:#6d6d6d;stroke-linecap:round;stroke-linejoin:round;}.cls-3{fill:url(#linear-gradient);}.cls-4{fill:url(#linear-gradient-2);}.cls-5{fill:url(#linear-gradient-3);}.cls-6{fill:url(#linear-gradient-4);}.cls-7{fill:none;stroke:#2d2d2d;stroke-miterlimit:10;}.cls-8{mask:url(#mask-2);}.cls-9{fill:url(#linear-gradient-5);}.cls-10{fill:url(#linear-gradient-6);}.cls-11{fill:url(#linear-gradient-7);}.cls-12{fill:url(#linear-gradient-8);}.cls-13{fill:url(#linear-gradient-9);}.cls-14{fill:url(#linear-gradient-10);}.cls-15{fill:url(#linear-gradient-11);}.cls-16{fill:url(#linear-gradient-12);}.cls-17{fill:url(#linear-gradient-13);}.cls-18{fill:url(#linear-gradient-14);}.cls-19{fill:#6d6d6d;}</style><mask id="mask" x="8.46" y="3.71" width="56.99" height="47" maskUnits="userSpaceOnUse"><rect class="cls-1" x="35.39" y="3.71" width="30.06" height="47"/></mask><linearGradient id="linear-gradient" x1="55.41" y1="31.48" x2="39.97" y2="31.48" gradientUnits="userSpaceOnUse"><stop offset="0" stop-color="#f7f7f7"/><stop offset="0.18" stop-color="#f0f0f0"/><stop offset="0.45" stop-color="#dcdcdc"/><stop offset="0.78" stop-color="#bcbcbc"/><stop offset="1" stop-color="#a1a1a1"/></linearGradient><linearGradient id="linear-gradient-2" x1="9.01" y1="31.83" x2="57" y2="31.83" gradientUnits="userSpaceOnUse"><stop offset="0" stop-color="#666"/><stop offset="0.15" stop-color="#dbdcdd"/><stop offset="0.87" stop-color="#c6c8c9"/><stop offset="1" stop-color="#f2f2f2"/></linearGradient><linearGradient id="linear-gradient-3" x1="8.56" y1="33.59" x2="55.14" y2="20.55" gradientUnits="userSpaceOnUse"><stop offset="0.01" stop-color="#fff"/><stop offset="0.05" stop-color="#f9f9f9"/><stop offset="0.11" stop-color="#e9e9e9"/><stop offset="0.18" stop-color="#cecece"/><stop offset="0.22" stop-color="#bababa"/><stop offset="1" stop-color="#fff"/></linearGradient><linearGradient id="linear-gradient-4" x1="11.69" y1="38.61" x2="16.01" y2="38.61" gradientUnits="userSpaceOnUse"><stop offset="0" stop-color="#8a8a8a"/><stop offset="1" stop-color="#383838"/></linearGradient><mask id="mask-2" x="3.62" y="12.71" width="52.58" height="47" maskUnits="userSpaceOnUse"><rect class="cls-1" x="3.62" y="12.71" width="30.24" height="47"/></mask><linearGradient id="linear-gradient-5" x1="54.1" y1="32.48" x2="38.57" y2="32.48" xlink:href="#linear-gradient"/><linearGradient id="linear-gradient-6" x1="7.41" y1="32.83" x2="55.7" y2="32.83" xlink:href="#linear-gradient-2"/><linearGradient id="linear-gradient-7" x1="6.98" y1="34.62" x2="53.81" y2="21.51" xlink:href="#linear-gradient-3"/><linearGradient id="linear-gradient-8" x1="17.99" y1="33.52" x2="41.94" y2="33.52" gradientUnits="userSpaceOnUse"><stop offset="0" stop-color="#c9c9c9"/><stop offset="1" stop-color="#737373"/></linearGradient><linearGradient id="linear-gradient-9" x1="49.69" y1="15.33" x2="53.46" y2="15.33" xlink:href="#linear-gradient-4"/><linearGradient id="linear-gradient-10" x1="48.33" y1="30.91" x2="51.93" y2="30.91" xlink:href="#linear-gradient-4"/><linearGradient id="linear-gradient-11" x1="10.1" y1="39.61" x2="14.46" y2="39.61" xlink:href="#linear-gradient-4"/><linearGradient id="linear-gradient-12" x1="17.98" y1="33.34" x2="40.48" y2="33.34" gradientUnits="userSpaceOnUse"><stop offset="0" stop-color="#c9c9c9"/><stop offset="0.88" stop-color="#c2c2c2"/><stop offset="1" stop-color="#737373"/></linearGradient><linearGradient id="linear-gradient-13" x1="18.02" y1="33.52" x2="41.84" y2="33.52" gradientUnits="userSpaceOnUse"><stop offset="0" stop-color="#c9c9c9"/><stop offset="0.88" stop-color="#737373"/><stop offset="1" stop-color="#525252"/></linearGradient><linearGradient id="linear-gradient-14" x1="17.48" y1="33.08" x2="40.24" y2="33.08" gradientUnits="userSpaceOnUse"><stop offset="0" stop-color="#c9c9ca"/><stop offset="0.35" stop-color="#b4b4b5"/><stop offset="0.71" stop-color="#a5a5a5"/><stop offset="1" stop-color="#a0a0a0"/></linearGradient></defs><title>CATIA _ (B15) MUE - Design to Model</title><g class="cls-2"><path class="cls-3" d="M46.73,29a15.62,15.62,0,0,1,4.3-1.1c1.59,0,4.14.68,4.14,2.46l-.4,1.35L45.46,35Z"/><path class="cls-4" d="M9,39.28l1.27,8.22c.48,1.35,2.87,2.45,6,1.35,2.41-.85,3-2.08,5.25-3.05,3.35-1.44,15.68-4.41,21-6.36,4.26-1.55,9.07-3.13,10.74-3.81s1.51-1.69,1.51-1.69l.4-3.56c0,.76-1.43,1.35-1.43,1.35s-3.51,1.19-5.26,1.87a1.33,1.33,0,0,1-2-1s.32-5,.48-7.37a3.23,3.23,0,0,1,1.91-3s3.58-1.1,5.49-1.61,2-1.1,2-1.1L57,14.36s-13.21,1.1-19.9,4.15S19.19,34.36,19.19,34.36Z"/><path class="cls-5" d="M40.68,15c-1.91.59-7,2.12-13.84,9.57-7.24,7.89-9.18,9.66-11.47,10.51-3.66,1.36-7.19,2.56-6.2,4.75s5,2.13,6.68,1.1c2.79-1.69,4-5.7,13.93-13.47C35.51,23,38.54,20.63,43.39,19c2.86-.95,9.87-2.54,12.1-3.3s2.63-3.05-3.42-3.05A100.28,100.28,0,0,0,40.68,15Z"/><path class="cls-6" d="M16,38.07c-.15-.64-1.22-.92-2.41-.62s-2,1.06-1.89,1.7,1.22.92,2.41.62S16.14,38.71,16,38.07Z"/><path class="cls-7" d="M56.44,14c.06-.84-.67-1.7-4.37-1.7a100.28,100.28,0,0,0-11.39,2.37c-1.91.6-7,2.12-13.84,9.58-7.24,7.88-9.18,9.66-11.47,10.51C12.06,36,8.87,37.09,9,38.9H9l0,.14s0,.05,0,.07l1.24,8c.48,1.35,2.87,2.46,6,1.35,2.41-.85,3-2.07,5.25-3,3.35-1.44,15.68-4.4,21-6.35,4.26-1.56,9.07-3.14,10.74-3.81s1.51-1.7,1.51-1.7l.4-3.56h0c0-1.78-2.55-2.46-4.14-2.46a15.62,15.62,0,0,0-4.3,1.1v.07c.09-1.37.18-2.86.25-3.88a3.2,3.2,0,0,1,1.91-3s3.58-1.11,5.49-1.61,2-1.11,2-1.11L56.44,14Z"/></g><g class="cls-8"><path class="cls-9" d="M45.37,30a15.72,15.72,0,0,1,4.32-1.1c1.6,0,4.17.68,4.17,2.46l-.4,1.35L44.09,36Z"/><path class="cls-10" d="M7.41,40.28,8.69,48.5c.48,1.35,2.88,2.45,6,1.35,2.42-.85,3-2.08,5.28-3.05,3.36-1.44,15.78-4.41,21.14-6.36,4.29-1.55,9.13-3.13,10.82-3.81s1.52-1.69,1.52-1.69l.4-3.56c0,.76-1.44,1.35-1.44,1.35s-3.53,1.19-5.29,1.87a1.33,1.33,0,0,1-2-1s.32-5,.48-7.37a3.23,3.23,0,0,1,1.92-3s3.61-1.1,5.53-1.61,2-1.1,2-1.1l.64-5.17s-13.29,1.1-20,4.15-18,15.85-18,15.85Z"/><path class="cls-11" d="M39.28,16c-1.92.59-7.05,2.12-13.93,9.57-7.29,7.89-9.23,9.66-11.54,10.51-3.68,1.36-7.23,2.56-6.24,4.75s5,2.13,6.73,1.1c2.8-1.69,4-5.7,14-13.47C34.08,24,37.12,21.63,42,20c2.87-.95,9.93-2.54,12.17-3.3s2.64-3-3.45-3A101.57,101.57,0,0,0,39.28,16Z"/><path class="cls-12" d="M40.64,23.67c-5.18,1.44-19.17,12.55-22.42,18-.56.93-.08,2.2,1.44,1.7s6.17-2,11.05-3.22S40,37.56,40,37.56s1.52-.17,1.52-2.45.4-10.34.4-10.34S42.17,23.24,40.64,23.67Z"/><path class="cls-13" d="M53.45,15.47c0-.45-.78-.87-1.82-1s-1.91.23-1.94.68.79.87,1.83.95S53.43,15.92,53.45,15.47Z"/><path class="cls-14" d="M51.93,31c0-.49-.75-.94-1.74-1s-1.82.27-1.86.76.75.95,1.75,1S51.9,31.53,51.93,31Z"/><path class="cls-15" d="M14.44,39.07c-.14-.64-1.23-.92-2.42-.62s-2,1.06-1.9,1.7,1.22.92,2.42.62S14.58,39.71,14.44,39.07Z"/><path class="cls-16" d="M18.06,42.91a1.34,1.34,0,0,0,1,0c.4-.17,19.7-6.52,19.7-6.52a1.71,1.71,0,0,0,1.36-1.78c.08-1.61.32-10.93.32-10.93l-.64.34L39.52,34.6a1.49,1.49,0,0,1-1.12,1.18L18.86,42.14a.6.6,0,0,1-.8-.25,3,3,0,0,0-.08.59A1.16,1.16,0,0,0,18.06,42.91Z"/><path class="cls-17" d="M40.55,23.67l-.17,0c0,1.64-.24,9.44-.31,10.88a1.71,1.71,0,0,1-1.36,1.78S19.41,42.73,19,42.9a1.35,1.35,0,0,1-1,0c.21.43.73.67,1.55.4,1.52-.51,6.16-2,11.05-3.22s9.29-2.55,9.29-2.55,1.52-.17,1.52-2.45.4-10.34.4-10.34S42.07,23.24,40.55,23.67Z"/><path class="cls-18" d="M18.45,42.72a1,1,0,0,1-.88-.5.49.49,0,0,1-.06-.44,1.84,1.84,0,0,1,.19-.4c3-5,15.9-15.58,21.86-17.91a.57.57,0,0,1,.18,0,.48.48,0,0,1,.29.09.49.49,0,0,1,.21.43l-.31,10.65a2,2,0,0,1-1.47,1.65L19,42.6a1.11,1.11,0,0,1-.51.12Z"/><path class="cls-19" d="M39.74,23.94h0m0,0L39.43,34.6a1.49,1.49,0,0,1-1.12,1.18L18.77,42.14a.71.71,0,0,1-.32.08.56.56,0,0,1-.47-.28,2.2,2.2,0,0,1,.15-.31c3.1-5.15,15.92-15.47,21.61-17.69m0-1h0a.85.85,0,0,0-.35.08c-6.17,2.42-19,12.89-22.09,18.1a2,2,0,0,0-.23.5,1,1,0,0,0,.11.88,1.55,1.55,0,0,0,1.3.72,1.7,1.7,0,0,0,.7-.15l19.47-6.33a2.51,2.51,0,0,0,1.8-2.05.13.13,0,0,0,0-.06L40.74,24s0-.07,0-.1a1,1,0,0,0-1-1h0Zm0,2h0Z"/><path class="cls-7" d="M55.13,15c.07-.84-.67-1.7-4.4-1.7a101.57,101.57,0,0,0-11.45,2.37c-1.92.6-7.05,2.12-13.93,9.58-7.29,7.88-9.23,9.66-11.54,10.51C10.48,37,7.27,38.09,7.42,39.9h0l0,.14s0,.05,0,.07l1.25,8c.48,1.35,2.88,2.46,6,1.35,2.42-.85,3-2.07,5.28-3C23.34,45,35.76,42,41.12,40.08c4.29-1.56,9.13-3.14,10.82-3.81s1.52-1.7,1.52-1.7l.4-3.56a.7.7,0,0,1-.1.34l.1-.34c0-1.78-2.57-2.46-4.17-2.46a15.72,15.72,0,0,0-4.32,1.1l0,.07c.09-1.37.19-2.86.26-3.88a3.2,3.2,0,0,1,1.92-3s3.61-1.11,5.53-1.61,2-1.11,2-1.11L55.13,15S55.14,15,55.13,15Z"/></g></svg>