<svg id="VERSION_4_RETOUCHE_copy" data-name="VERSION 4 RETOUCHE copy" xmlns="http://www.w3.org/2000/svg" xmlns:xlink="http://www.w3.org/1999/xlink" viewBox="0 0 64 64"><defs><style>.cls-1{fill:none;}.cls-2{fill:url(#linear-gradient);}.cls-3{fill:#063755;}.cls-4{fill:#285977;}.cls-33,.cls-5,.cls-8,.cls-9{stroke:#000;}.cls-5{stroke-linecap:round;}.cls-14,.cls-15,.cls-17,.cls-18,.cls-20,.cls-32,.cls-5,.cls-8,.cls-9{stroke-miterlimit:10;}.cls-6{isolation:isolate;}.DARK-GREY-Fill-5{fill:url(#linear-gradient-2);}.cls-7{fill:url(#linear-gradient-3);}.cls-8{stroke-width:0.25px;}.cls-20,.cls-9{stroke-width:0.38px;}.cls-9{fill:url(#linear-gradient-4);}.cls-10{fill:url(#linear-gradient-5);}.cls-11{fill:#003755;}.cls-12{fill:url(#linear-gradient-6);}.cls-13{fill:url(#linear-gradient-7);}.cls-14,.cls-23{fill:#323232;}.cls-14,.cls-15,.cls-17,.cls-18{stroke:#323232;}.cls-15,.cls-17,.cls-18{stroke-width:0.19px;}.cls-15{fill:url(#linear-gradient-8);}.cls-16{fill:#7a7a7a;}.cls-17{fill:url(#linear-gradient-9);}.cls-18{fill:url(#linear-gradient-10);}.cls-19{fill:url(#linear-gradient-12);}.cls-20{stroke:#063755;fill:url(#linear-gradient-13);}.cls-21{clip-path:url(#clip-path);}.cls-22{fill:url(#linear-gradient-14);}.cls-24{fill:url(#linear-gradient-15);}.cls-25{fill:url(#linear-gradient-16);}.cls-26{fill:url(#linear-gradient-17);}.cls-27{fill:url(#linear-gradient-18);}.cls-28{fill:url(#linear-gradient-19);}.cls-29{fill:#6d6d6d;}.cls-30{fill:url(#linear-gradient-20);}.cls-31{fill:url(#linear-gradient-21);}.cls-32{stroke:#003755;stroke-width:0.5px;fill:url(#linear-gradient-22);}.cls-33{fill:#8b8b8b;stroke-linejoin:round;stroke-width:0.75px;}.cls-34{fill:url(#linear-gradient-23);}.cls-35{fill:url(#linear-gradient-24);}.cls-36{fill:url(#linear-gradient-25);}.cls-37{fill:url(#linear-gradient-26);}</style><linearGradient id="linear-gradient" x1="9.79" y1="22.74" x2="23.92" y2="47.22" gradientUnits="userSpaceOnUse"><stop offset="0" stop-color="#82bddc"/><stop offset="1" stop-color="#275a78"/></linearGradient><linearGradient id="linear-gradient-2" x1="25.96" y1="44.79" x2="43.48" y2="44.79" gradientUnits="userSpaceOnUse"><stop offset="0" stop-color="#464646"/><stop offset="1" stop-color="#151415"/></linearGradient><linearGradient id="linear-gradient-3" x1="32.46" y1="36.56" x2="28.55" y2="51.16" gradientUnits="userSpaceOnUse"><stop offset="0" stop-color="#d6d6d6"/><stop offset="0.14" stop-color="#d1d1d1"/><stop offset="0.31" stop-color="#c3c3c3"/><stop offset="0.49" stop-color="#adadad"/><stop offset="0.63" stop-color="#959595"/></linearGradient><linearGradient id="linear-gradient-4" x1="36.74" y1="41.04" x2="43.18" y2="52.2" gradientUnits="userSpaceOnUse"><stop offset="0" stop-color="#f4f5f5"/><stop offset="1" stop-color="#bebdbd"/></linearGradient><linearGradient id="linear-gradient-5" x1="63.1" y1="60.83" x2="64.28" y2="62.88" gradientTransform="matrix(-0.56, 0.83, -0.83, -0.56, 128.85, 29.37)" gradientUnits="userSpaceOnUse"><stop offset="0" stop-color="#a0e1fa"/><stop offset="1" stop-color="#73c3e1"/></linearGradient><linearGradient id="linear-gradient-6" x1="39.7" y1="53.74" x2="44.08" y2="61.33" gradientTransform="translate(31.24 -23.62) rotate(28.84)" xlink:href="#linear-gradient-5"/><linearGradient id="linear-gradient-7" x1="63.47" y1="64.74" x2="65.19" y2="67.73" gradientTransform="translate(128.48 25.32) rotate(121.29)" xlink:href="#linear-gradient-5"/><linearGradient id="linear-gradient-8" x1="10.03" y1="12.84" x2="14.75" y2="21" gradientUnits="userSpaceOnUse"><stop offset="0" stop-color="#fff"/><stop offset="1" stop-color="#d4d5d3"/></linearGradient><linearGradient id="linear-gradient-9" x1="9.88" y1="12.94" x2="13.5" y2="19.2" xlink:href="#linear-gradient-8"/><linearGradient id="linear-gradient-10" x1="11.35" y1="12.06" x2="13.38" y2="15.58" xlink:href="#linear-gradient-8"/><linearGradient id="linear-gradient-12" x1="18.82" y1="12.74" x2="15.81" y2="23.23" gradientUnits="userSpaceOnUse"><stop offset="0" stop-color="#82bddc"/><stop offset="0.11" stop-color="#79b4d2"/><stop offset="0.29" stop-color="#629ab9"/><stop offset="0.52" stop-color="#3c708f"/><stop offset="0.63" stop-color="#275a78"/></linearGradient><linearGradient id="linear-gradient-13" x1="21.92" y1="15.96" x2="26.64" y2="24.14" gradientUnits="userSpaceOnUse"><stop offset="0" stop-color="#a2ddf7"/><stop offset="1" stop-color="#73c3e1"/></linearGradient><clipPath id="clip-path"><path class="cls-1" d="M22.9,29H34V12.3H23.92v6.54s-1,.18-1.07.91A2.45,2.45,0,0,0,23,20.86Z"/></clipPath><linearGradient id="linear-gradient-14" x1="14.81" y1="10.24" x2="24.79" y2="27.53" xlink:href="#linear-gradient-8"/><linearGradient id="linear-gradient-15" x1="24.69" y1="16.74" x2="29.5" y2="25.07" xlink:href="#linear-gradient-8"/><linearGradient id="linear-gradient-16" x1="14.72" y1="10.08" x2="24.58" y2="27.15" xlink:href="#linear-gradient-8"/><linearGradient id="linear-gradient-17" x1="25.86" y1="16.06" x2="28.28" y2="20.23" xlink:href="#linear-gradient-8"/><linearGradient id="linear-gradient-18" x1="43.15" y1="18.64" x2="47.08" y2="25.44" gradientUnits="userSpaceOnUse"><stop offset="0" stop-color="#3287af"/><stop offset="1" stop-color="#285a78"/></linearGradient><linearGradient id="linear-gradient-19" x1="50.33" y1="25.28" x2="57.81" y2="25.28" gradientUnits="userSpaceOnUse"><stop offset="0" stop-color="#c9c9c9"/><stop offset="1" stop-color="#737373"/></linearGradient><linearGradient id="linear-gradient-20" x1="51.03" y1="20.02" x2="57.1" y2="30.54" gradientUnits="userSpaceOnUse"><stop offset="0" stop-color="#3287af"/><stop offset="0.58" stop-color="#285a78"/></linearGradient><linearGradient id="linear-gradient-21" x1="46.15" y1="13.31" x2="51.02" y2="21.73" gradientTransform="matrix(1, 0, 0, 1, 0, 0)" xlink:href="#linear-gradient-5"/><linearGradient id="linear-gradient-22" x1="39.53" y1="17.99" x2="49.37" y2="35.03" gradientTransform="matrix(1, 0, 0, 1, 0, 0)" xlink:href="#linear-gradient-5"/><linearGradient id="linear-gradient-23" x1="13.27" y1="-32.06" x2="16.96" y2="-25.67" gradientTransform="matrix(0.56, 0.83, 0.83, -0.56, 59.83, -2.24)" xlink:href="#linear-gradient-8"/><linearGradient id="linear-gradient-24" x1="-48.82" y1="-10.64" x2="-46.56" y2="-6.73" gradientTransform="matrix(0.83, -0.56, -0.56, -0.83, 80.69, -5.05)" xlink:href="#linear-gradient-8"/><linearGradient id="linear-gradient-25" x1="-48.81" y1="-4.56" x2="-46.63" y2="-0.78" gradientTransform="matrix(0.83, -0.56, -0.56, -0.83, 80.69, -5.05)" xlink:href="#linear-gradient-8"/><linearGradient id="linear-gradient-26" x1="35.86" y1="29.28" x2="39.89" y2="36.27" gradientUnits="userSpaceOnUse"><stop offset="0" stop-color="#fff"/><stop offset="1" stop-color="#d2d2d2"/></linearGradient></defs><title>ddd__A33AAe__R21XArtboard 1</title><g id="_1x_copy" data-name="1x copy"><path class="cls-2" d="M27.6,44.91a1.51,1.51,0,0,1-.37-.06L7,38.41a2.39,2.39,0,0,1-1.57-2.27,2.43,2.43,0,0,1,1.11-2c.36-.16,9.65-4.43,10.18-4.7s.46-.93.47-1.08V18.47h2.59V29.38c0,.94-.14,1.36-.92,1.81L8.81,35.26c-.43.16-.68.45-.67.75,0,.13.07.44.6.6l.43.13c2.85.86,11.51,3.46,18.92,5.4a1.16,1.16,0,0,1,.71.58,1.48,1.48,0,0,1,.11,1.16A1.45,1.45,0,0,1,27.6,44.91Z"/><path class="cls-3" d="M19.6,18.66V29.38c0,.88-.11,1.23-.8,1.63L8.74,35.08A1.06,1.06,0,0,0,8,36c0,.17.09.58.73.77l.43.13c2.85.86,11.51,3.46,18.93,5.4a1,1,0,0,1,.6.5,1.31,1.31,0,0,1,.08,1,1.24,1.24,0,0,1-1.13.86.79.79,0,0,1-.3-.05L7.07,38.23a2.17,2.17,0,0,1-.44-3.87c.7-.32,9.66-4.45,10.19-4.71s.55-1,.57-1.26V18.66H19.6m.38-.38H17V28.39s-.05.76-.36.92C16.11,29.58,6.44,34,6.44,34a2.6,2.6,0,0,0-1.19,2.12A2.57,2.57,0,0,0,7,38.59L27.17,45a1.52,1.52,0,0,0,.42.06A1.61,1.61,0,0,0,29.08,44v0a1.54,1.54,0,0,0-.95-2c-7.82-2.05-16.89-4.79-19.35-5.53-.68-.21-.57-.74.08-1L19,31.35a1.85,1.85,0,0,0,1-2V18.28Z"/><polyline class="cls-4" points="17.41 25.64 17.41 18.28 19.59 18.28 19.59 26.62"/><path class="cls-5" d="M42.13,39.3h0L29.58,35.54A3.48,3.48,0,0,0,28,35.43c-3,.41-5.65,4.09-6,8.19-.29,3.33,1.06,5.94,3.16,6.57L37.76,54h0a3.69,3.69,0,0,0,1.56.11c3-.42,5.64-4.09,6-8.19C45.61,42.53,44.25,39.92,42.13,39.3Z"/><g class="cls-6"><path class="DARK-GREY-Fill-5" d="M41.39,41.84,28.82,38.08c1.37.41,2.25,2.11,2.06,4.29-.23,2.67-2,5.07-3.91,5.34a2.41,2.41,0,0,1-1-.07L38.53,51.4a2.26,2.26,0,0,0,1,.07c1.93-.27,3.68-2.66,3.91-5.34C43.64,44,42.76,42.26,41.39,41.84Z"/><path class="cls-7" d="M25.26,49.94c-2-.6-3.25-3.2-3-6.31.34-4,2.94-7.56,5.78-8a2.92,2.92,0,0,1,.51,0,3.29,3.29,0,0,1,.94.14L40.27,39c-2.94.62-5.56,4.29-5.92,8.37A7.33,7.33,0,0,0,36,53.16Z"/><path d="M28.57,35.88a2.71,2.71,0,0,1,.86.13l10,3c-2.7,1.08-5,4.54-5.3,8.34a8.14,8.14,0,0,0,1.18,5.36l-9.95-3c-1.92-.57-3.07-3.06-2.81-6.05.33-3.88,2.83-7.35,5.57-7.74a3.71,3.71,0,0,1,.47,0m0-.5a3.27,3.27,0,0,0-.54,0c-3,.41-5.65,4.09-6,8.19-.29,3.33,1.06,5.94,3.16,6.57L37.77,54c-2.11-.63-3.45-3.24-3.17-6.57.36-4.1,3-7.78,6-8.19a3.44,3.44,0,0,1,.54,0,3.68,3.68,0,0,1,1,.14L29.58,35.53a3.38,3.38,0,0,0-1-.15Z"/><path class="cls-8" d="M40.6,39.19c3-.42,5.07,2.58,4.72,6.68s-3,7.77-6,8.19-5.07-2.59-4.72-6.68S37.65,39.6,40.6,39.19Z"/><path class="cls-9" d="M40.6,39.19c3-.42,5.07,2.58,4.72,6.68s-3,7.77-6,8.19-5.07-2.59-4.72-6.68S37.65,39.6,40.6,39.19ZM39.49,52.06c2.16-.31,4.12-3,4.38-6s-1.28-5.18-3.44-4.88-4.12,3-4.38,6,1.28,5.19,3.44,4.89"/></g><path class="cls-10" d="M42,49.07a1.22,1.22,0,0,1-.66-.2l-.17-.09c-.49-.32-.53-.35.07-1.43.39-.69.61-.78.75-.78a1,1,0,0,1,.53.23l.16.09A1.19,1.19,0,0,1,42,49.07Z"/><path class="cls-11" d="M42,46.77a1,1,0,0,1,.44.21l.13.07a1,1,0,0,1,.27,1.38,1,1,0,0,1-.83.44,1,1,0,0,1-.55-.16l0,0h0l-.12-.06c-.37-.25-.36-.27.14-1.17.33-.59.5-.68.57-.68m0-.4c-.3,0-.57.25-.92.89-.63,1.12-.63,1.28,0,1.71l.15.07a1.41,1.41,0,0,0,1.93-.38,1.4,1.4,0,0,0-.38-1.94l-.14-.08a1.21,1.21,0,0,0-.65-.27Z"/><path class="cls-12" d="M38.51,51.4a1.37,1.37,0,0,1-.63-.16,1.3,1.3,0,0,1-.51-1.77l3.35-6.23a1.32,1.32,0,0,1,1.14-.67,1.26,1.26,0,0,1,.63.16,1.31,1.31,0,0,1,.62.78,1.27,1.27,0,0,1-.11,1l-3.35,6.22a1.31,1.31,0,0,1-1.14.68Z"/><path class="cls-11" d="M41.86,42.77a1,1,0,0,1,.53.14,1.09,1.09,0,0,1,.44,1.49l-3.36,6.23a1.11,1.11,0,0,1-1,.57,1.05,1.05,0,0,1-.53-.14,1.1,1.1,0,0,1-.43-1.49l3.36-6.23a1.08,1.08,0,0,1,1-.57m0-.4a1.49,1.49,0,0,0-1.31.78l-3.36,6.23a1.5,1.5,0,0,0,.59,2,1.41,1.41,0,0,0,.72.19,1.5,1.5,0,0,0,1.32-.78l3.36-6.23a1.51,1.51,0,0,0-.59-2,1.58,1.58,0,0,0-.73-.18Z"/><path class="cls-13" d="M39,47.44a.79.79,0,0,1-.42-.13l-1.25-.77a1.18,1.18,0,1,1,1.22-2l1.25.77a.75.75,0,0,1,.4.61,1.64,1.64,0,0,1-.27.84c-.16.26-.49.7-.93.7Z"/><path class="cls-11" d="M37.93,44.55a1,1,0,0,1,.51.14l1.25.77a.54.54,0,0,1,.3.45,1.38,1.38,0,0,1-.25.73c-.13.22-.41.6-.75.6a.6.6,0,0,1-.32-.1l-1.25-.77a1,1,0,0,1-.44-.61,1,1,0,0,1,.11-.74,1,1,0,0,1,.84-.47m0-.4a1.38,1.38,0,0,0-.72,2.56l1.25.77a1,1,0,0,0,.53.16,1.41,1.41,0,0,0,1.1-.8c.39-.65.46-1.32-.19-1.72l-1.25-.77a1.35,1.35,0,0,0-.72-.2Z"/><path class="cls-14" d="M31.37,21.32,28,20.27V16.53a1,1,0,0,0-1-.93,1,1,0,0,0-1,.93v3.16l-12.67-4V12.59a.93.93,0,1,0-1.85,0v2.49l-3-.94a.91.91,0,0,0-1.16.6.93.93,0,0,0,.6,1.17L11.48,17v4.32a.93.93,0,0,0,1.85,0V17.6l12.67,4v3.65a1,1,0,0,0,1,.93,1,1,0,0,0,1-.93V22.21l2.79.88a1,1,0,0,0,.28,0,.93.93,0,0,0,.28-1.81Z"/><path class="cls-15" d="M13.31,16.29V12.54a.92.92,0,0,0-1.84,0v8.75a.92.92,0,1,0,1.84,0v-5Z"/><path class="cls-16" d="M13.31,16.28V12.92c0-.51-.22-1-.74-1s-.69.47-.69,1v6.34s-.22-.87,1.43-.76V16.28Z"/><path class="cls-17" d="M15.45,16.28l-7-2.19a.93.93,0,0,0-.55,1.77l7,2.19a.92.92,0,0,0,.28.05.93.93,0,0,0,.28-1.82Z"/><path id="ht" class="cls-18" d="M13.31,12.53a.93.93,0,0,0-1.85,0v2.68c0,.51.41.74.92.74s.93-.23.93-.74Z"/><g class="cls-6"><path class="DARK-GREY-Fill-5" d="M25.33,16.55,16.12,13.8c1,.3,1.65,1.54,1.51,3.13-.17,2-1.45,3.72-2.86,3.91a1.66,1.66,0,0,1-.74-.05l9.2,2.76a1.66,1.66,0,0,0,.74.05c1.41-.2,2.7-2,2.87-3.91C27,18.1,26.33,16.85,25.33,16.55Z"/><path class="cls-19" d="M13.53,22.47c-1.48-.44-2.38-2.34-2.18-4.61.25-2.92,2.15-5.53,4.22-5.82l.37,0a2.61,2.61,0,0,1,.69.1l7.85,2.35c-2.15.48-4.05,3.15-4.31,6.13a5.4,5.4,0,0,0,1.2,4.23Z"/><path class="cls-3" d="M15.94,12.2a2.18,2.18,0,0,1,.63.09l7.26,2.18c-2,.81-3.61,3.33-3.85,6.1a6,6,0,0,0,.85,3.89l-7.25-2.17c-1.39-.42-2.23-2.23-2-4.41.24-2.84,2.06-5.37,4.06-5.65l.34,0m0-.38-.39,0c-2.16.3-4.13,3-4.39,6-.21,2.45.77,4.35,2.31,4.82l9.2,2.75C21.13,25,20.15,23,20.36,20.6c.26-3,2.23-5.69,4.39-6a2.69,2.69,0,0,1,.4,0,2.53,2.53,0,0,1,.73.11l-9.2-2.76a2.55,2.55,0,0,0-.74-.11Z"/><path class="cls-20" d="M24.75,14.61c2.16-.31,3.71,1.89,3.45,4.89s-2.23,5.69-4.39,6S20.1,23.6,20.36,20.6,22.59,14.91,24.75,14.61Zm-.78,9c1.41-.2,2.7-2,2.87-3.91S26,16.3,24.59,16.5s-2.7,1.95-2.87,3.91S22.56,23.8,24,23.6"/></g><g class="cls-21"><path class="cls-14" d="M31.37,21.32,28,20.27V16.53a1,1,0,0,0-1-.93,1,1,0,0,0-1,.93v3.16l-12.67-4V12.59a.93.93,0,1,0-1.85,0v2.49l-3-.94a.91.91,0,0,0-1.16.6.93.93,0,0,0,.6,1.17L11.48,17v4.32a.93.93,0,0,0,1.85,0V17.6l12.67,4v3.65a1,1,0,0,0,1,.93,1,1,0,0,0,1-.93V22.21l2.79.88a1,1,0,0,0,.28,0,.93.93,0,0,0,.28-1.81Z"/><path class="cls-22" d="M27,26.11a.89.89,0,0,1-.9-.83V21.56L13.24,17.47v3.87a.84.84,0,0,1-1.67,0V17L8,15.81a.83.83,0,0,1,.25-1.62.73.73,0,0,1,.25,0l3.12,1V12.58a.84.84,0,0,1,1.67,0v3.15L26.1,19.82V16.53a.88.88,0,0,1,.9-.83.91.91,0,0,1,.92.83v3.81l3.42,1.07a.83.83,0,0,1,.49.41.88.88,0,0,1,.06.64.84.84,0,0,1-.8.58.73.73,0,0,1-.25,0l-2.92-.92v3.2A.92.92,0,0,1,27,26.11Z"/><path class="cls-23" d="M12.41,11.85a.74.74,0,0,1,.73.74V15.8l.14,0,12.66,4,.25.08V16.53a.81.81,0,0,1,.81-.74.83.83,0,0,1,.83.74v3.88l.13,0,3.35,1.05a.72.72,0,0,1,.43.37.68.68,0,0,1,.05.56.71.71,0,0,1-.7.51.83.83,0,0,1-.22,0L28.08,22,27.83,22v3.32A.83.83,0,0,1,27,26a.82.82,0,0,1-.81-.74V21.49l-.13,0-12.67-4-.25-.08v4a.74.74,0,0,1-1.47,0V16.88l-.13,0L8,15.72a.74.74,0,0,1,.22-1.44.54.54,0,0,1,.22,0l3,.94.25.08V12.59a.74.74,0,0,1,.74-.74m0-.19a.92.92,0,0,0-.93.93v2.49l-3-.94a.92.92,0,0,0-.28-.05.93.93,0,0,0-.28,1.82L11.48,17v4.32a.93.93,0,0,0,1.85,0V17.6l12.67,4v3.65a1,1,0,0,0,1,.93,1,1,0,0,0,1-.93V22.21l2.79.88a1,1,0,0,0,.28,0,.93.93,0,0,0,.28-1.81L28,20.27V16.53a1,1,0,0,0-1-.93,1,1,0,0,0-1,.93v3.16l-12.67-4V12.59a.92.92,0,0,0-.92-.93Z"/><path class="cls-24" d="M27.09,26.3a1,1,0,0,1-1-1V16.53a1,1,0,0,1,2.05,0v8.75A1,1,0,0,1,27.09,26.3Z"/><path class="cls-23" d="M27.09,15.6a.93.93,0,0,1,.93.93v8.75a.93.93,0,1,1-1.85,0V16.53a.93.93,0,0,1,.92-.93m0-.19A1.12,1.12,0,0,0,26,16.53v8.75a1.12,1.12,0,1,0,2.23,0V16.53a1.12,1.12,0,0,0-1.12-1.12Z"/><path class="cls-25" d="M31.1,23.23a1.06,1.06,0,0,1-.31-.05L28,22.31l-2-.59L7.9,16a1,1,0,0,1-.6-.51,1,1,0,0,1-.07-.78,1,1,0,0,1,1-.71.79.79,0,0,1,.3.05L25.9,19.56v-3a1.11,1.11,0,0,1,2.22,0V20.2l3.28,1a1,1,0,0,1-.3,2Z"/><path class="cls-23" d="M8.21,14.09a.86.86,0,0,1,.27.05L26,19.69V16.53a1,1,0,0,1,1-.93,1,1,0,0,1,1,.93v3.74l3.35,1.05A.93.93,0,0,1,32,22.48a.92.92,0,0,1-.88.65.86.86,0,0,1-.28,0L28,22.21l-2-.58L7.93,15.91a.93.93,0,0,1,.28-1.82m0-.19a1.12,1.12,0,0,0-.34,2.19l18.07,5.72,2,.59,2.79.87a1,1,0,0,0,.34.05,1.1,1.1,0,0,0,1.06-.78,1.11,1.11,0,0,0-.73-1.4l-3.22-1v-3.6a1.2,1.2,0,0,0-2.4,0v2.9L8.54,14a1,1,0,0,0-.33-.06Z"/><path class="cls-16" d="M26.17,21.68v1.56s-.2-1,1.86-.75v-.28Z"/><g id="ht-2" data-name="ht"><path class="cls-26" d="M27.09,20.7c-.63,0-1-.32-1-.83V16.53a1,1,0,1,1,2,0v3.34C28.11,20.38,27.72,20.7,27.09,20.7Z"/><path class="cls-23" d="M27.09,15.6a.93.93,0,0,1,.93.93v3.34c0,.51-.42.73-.93.73s-.93-.22-.93-.73V16.53a.93.93,0,0,1,.93-.93m0-.19A1.12,1.12,0,0,0,26,16.53v3.34c0,.57.43.92,1.12.92s1.12-.35,1.12-.92V16.53a1.12,1.12,0,0,0-1.12-1.12Z"/></g></g><polygon class="cls-11" points="41.74 28.99 49.6 23.49 55.98 25.78 48.12 31.28 41.74 28.99"/><path class="cls-11" d="M49.68,24.05l5.22,1.87L48,30.72l-5.22-1.87,6.86-4.8m-.15-1.12-8.87,6.21,7.53,2.7,8.86-6.21-7.52-2.7Z"/><polygon class="cls-27" points="40.63 21.14 49.56 14.94 49.53 22.93 40.66 29.14 40.63 21.14"/><g id="anc"><polygon class="cls-28" points="50.33 22.58 57.81 16.4 57.81 27.91 50.33 34.16 50.33 22.58"/><path class="cls-29" d="M57.62,16.81v11l-7.11,5.93V22.67l7.11-5.86M58,16l-7.87,6.49V34.56L58,28V16Z"/></g><polygon class="cls-30" points="50.13 22.49 58 16 58 28 50.13 34.56 50.13 22.49"/><polygon class="cls-31" points="39.21 18.36 47.68 12.43 57.6 16.07 50.1 22.27 39.21 18.36"/><path class="cls-11" d="M47.71,12.66l9.5,3.48L50.06,22,39.64,18.3l8.07-5.64m-.06-.45-8.88,6.2,11.36,4.08L58,16,47.65,12.21Z"/><path class="cls-32" d="M38.78,30.58V18.42l11.36,4.06v12.1Zm9.57,1.25v-8l-7.52-2.7v8Z"/><path class="cls-33" d="M47.64,12.2l-9,6.23V30.57l11.5,4,7.94-7V16Z"/><path class="cls-34" d="M41.81,29.24a.93.93,0,0,1-.52-1.7l5.26-3.66a.87.87,0,0,1,.52-.16.91.91,0,0,1,.77.41.93.93,0,0,1-.24,1.29l-5.27,3.66A.94.94,0,0,1,41.81,29.24Z"/><path d="M47.07,23.92h0a.75.75,0,0,1,.61.32.71.71,0,0,1,.11.55.79.79,0,0,1-.31.47l-5.26,3.65a.74.74,0,0,1-.41.13.72.72,0,0,1-.6-.32.76.76,0,0,1-.12-.55.74.74,0,0,1,.32-.47L46.66,24a.73.73,0,0,1,.41-.12m0-.4a1.11,1.11,0,0,0-.63.19l-5.26,3.66a1.13,1.13,0,0,0,.63,2.07,1.18,1.18,0,0,0,.64-.2l5.26-3.66a1.13,1.13,0,0,0-.64-2.06Z"/><path class="cls-35" d="M47.05,31.12a.91.91,0,0,1-.77-.41l-2-2.81c-.24-.4.26-.8.48-1a1.35,1.35,0,0,1,.69-.23.49.49,0,0,1,.38.15l1.94,2.81A.94.94,0,0,1,47.57,31,1,1,0,0,1,47.05,31.12Z"/><path d="M45.5,26.91h0a.29.29,0,0,1,.21.06l1.94,2.81a.75.75,0,0,1,.12.55.74.74,0,0,1-.31.46.69.69,0,0,1-.41.13.74.74,0,0,1-.61-.32l-1.93-2.79c-.16-.27.24-.58.41-.7a1.07,1.07,0,0,1,.58-.2m0-.4a1.45,1.45,0,0,0-.8.27c-.41.28-.82.75-.54,1.23l2,2.81a1.12,1.12,0,0,0,.94.5,1.11,1.11,0,0,0,.63-.19,1.14,1.14,0,0,0,.3-1.58L46,26.74a.66.66,0,0,0-.54-.23Z"/><path class="cls-36" d="M43.15,26.12c-.13,0-.17-.05-.18-.07L41.05,23.3a1,1,0,0,1-.15-.7.93.93,0,0,1,.4-.59.87.87,0,0,1,.52-.16.93.93,0,0,1,.77.4L44.51,25a.15.15,0,0,1,0,.13c0,.22-.38.53-.59.68A2,2,0,0,1,43.15,26.12Z"/><path d="M41.82,22.05a.75.75,0,0,1,.61.32l1.92,2.73a1.39,1.39,0,0,1-.5.55,2.14,2.14,0,0,1-.72.29l-1.92-2.75a.71.71,0,0,1-.11-.55.76.76,0,0,1,.31-.47.73.73,0,0,1,.41-.12m0-.4a1.16,1.16,0,0,0-.64.19,1.14,1.14,0,0,0-.3,1.57l1.92,2.76a.41.41,0,0,0,.35.15,2.15,2.15,0,0,0,.91-.34s.94-.64.62-1.08l-1.92-2.76a1.14,1.14,0,0,0-.94-.49Z"/><g id="ok"><path class="cls-37" d="M33.2,39.83c-.21,0-1.25,0-1.25-.76V32.92a2.46,2.46,0,0,1,1.39-2.17l9.12-4.59a1.11,1.11,0,0,1,1.51.43,1.34,1.34,0,0,1-.42,1.81c-.31.16-8.07,4.08-8.48,4.35a2,2,0,0,0-.7,1.54v4.78C34.37,39.75,33.55,39.83,33.2,39.83Z"/><path d="M43,26.27h0a.88.88,0,0,1,.76.44,1.1,1.1,0,0,1-.29,1.46c-.83.42-8.11,4.1-8.53,4.37a2.24,2.24,0,0,0-.81,1.73v4.8c0,.44-.57.51-.92.51-.1,0-1,0-1-.51V32.92a2.2,2.2,0,0,1,1.28-2l9.11-4.59a.91.91,0,0,1,.4-.1m0-.5a1.23,1.23,0,0,0-.64.17l-9.1,4.58a2.68,2.68,0,0,0-1.55,2.4v6.15c0,.73.77,1,1.5,1s1.42-.28,1.42-1v-4.8A1.78,1.78,0,0,1,35.21,33c.4-.26,8.47-4.35,8.47-4.35a1.59,1.59,0,0,0,.51-2.14,1.39,1.39,0,0,0-1.2-.7Z"/></g></g></svg>