<?xml version="1.0" encoding="iso-8859-1"?>
<!-- Generator: Adobe Illustrator 23.1.0, SVG Export Plug-In . SVG Version: 6.00 Build 0)  -->
<svg version="1.1" xmlns="http://www.w3.org/2000/svg" xmlns:xlink="http://www.w3.org/1999/xlink" x="0px" y="0px"
	 viewBox="0 0 64 64" style="enable-background:new 0 0 64 64;" xml:space="preserve">
<pattern  width="20" height="20" patternUnits="userSpaceOnUse" id="New_Pattern_Swatch_2" viewBox="22.121 -42.121 20 20" style="overflow:visible;">
	<g>
		<rect x="22.121" y="-42.121" style="fill:none;" width="20" height="20"/>
		
			<rect x="49.121" y="-26.263" transform="matrix(0.7071 -0.7071 0.7071 0.7071 23.837 33.3051)" style="fill:#844138;" width="6" height="28.284"/>
		
			<rect x="29.121" y="-26.263" transform="matrix(0.7071 -0.7071 0.7071 0.7071 17.9792 19.163)" style="fill:#844138;" width="6" height="28.284"/>
		
			<rect x="9.121" y="-26.263" transform="matrix(0.7071 -0.7071 0.7071 0.7071 12.1213 5.0208)" style="fill:#844138;" width="6" height="28.284"/>
		
			<rect x="49.121" y="-46.263" transform="matrix(0.7071 -0.7071 0.7071 0.7071 37.9792 27.4472)" style="fill:#844138;" width="6" height="28.284"/>
		
			<rect x="29.121" y="-46.263" transform="matrix(0.7071 -0.7071 0.7071 0.7071 32.1213 13.3051)" style="fill:#844138;" width="6" height="28.284"/>
		
			<rect x="9.121" y="-46.263" transform="matrix(0.7071 -0.7071 0.7071 0.7071 26.2635 -0.837)" style="fill:#844138;" width="6" height="28.284"/>
		
			<rect x="49.121" y="-66.263" transform="matrix(0.7071 -0.7071 0.7071 0.7071 52.1213 21.5894)" style="fill:#844138;" width="6" height="28.284"/>
		
			<rect x="29.121" y="-66.263" transform="matrix(0.7071 -0.7071 0.7071 0.7071 46.2635 7.4472)" style="fill:#844138;" width="6" height="28.284"/>
		
			<rect x="9.121" y="-66.263" transform="matrix(0.7071 -0.7071 0.7071 0.7071 40.4056 -6.6949)" style="fill:#844138;" width="6" height="28.284"/>
	</g>
</pattern>
<g id="Layer_1" style="display:none;">
</g>
<g id="info_r2021x" style="display:none;">
	<g id="pedestal_r2021x" style="display:inline;">
		<path style="opacity:0.5;fill:#FFFFFF;" d="M63.002,64h-62c-0.552,0-1-0.448-1-1V1c0-0.552,0.448-1,1-1h62c0.552,0,1,0.448,1,1v62
			C64.002,63.552,63.554,64,63.002,64z"/>
		<rect x="1.002" y="1" style="fill:#F4F5F6;" width="62" height="62"/>
		<rect x="1.002" y="1" style="fill:#D1D4D4;" width="2" height="62"/>
	</g>
	<g id="no-go_zone_1_" style="display:inline;opacity:0.3;">
		<path style="fill:url(#New_Pattern_Swatch_2);" d="M0,0v64h64V0H0z M57,57H7V7h50V57z"/>
	</g>
	<g style="display:inline;">
		<path style="fill:#EA4F37;" d="M57,7v50H7V7H57 M58,6h-1H7H6v1v50v1h1h50h1v-1V7V6L58,6z"/>
	</g>
</g>
<g id="Notes" style="display:none;">
</g>
<g id="vector_references" style="display:none;">
</g>
<g id="PNG_references" style="display:none;">
</g>
<g id="Work" style="display:none;">
	<linearGradient id="SVGID_1_" gradientUnits="userSpaceOnUse" x1="41.7607" y1="34.9468" x2="33.6928" y2="20.9727">
		<stop  offset="0" style="stop-color:#386F8D"/>
		<stop  offset="1" style="stop-color:#8DD7F4"/>
	</linearGradient>
	
		<rect x="31.5" y="24.5" style="display:inline;fill:url(#SVGID_1_);stroke:#053755;stroke-linecap:round;stroke-linejoin:round;stroke-miterlimit:1;" width="12.5" height="7"/>
	
		<linearGradient id="SVGID_2_" gradientUnits="userSpaceOnUse" x1="35.7297" y1="44.0661" x2="24.0483" y2="23.8334" gradientTransform="matrix(0.9388 0.3446 -0.3446 0.9388 12.7818 -8.3673)">
		<stop  offset="0" style="stop-color:#386F8D"/>
		<stop  offset="1" style="stop-color:#8DD7F4"/>
	</linearGradient>
	
		<path style="display:inline;fill:url(#SVGID_2_);stroke:#053755;stroke-linecap:round;stroke-linejoin:round;stroke-miterlimit:1;" d="
		M34.594,29.207c0.666-1.815-0.265-3.826-2.08-4.492c-1.815-0.666-3.826,0.265-4.492,2.08L23.888,38.06l0.047,0.017
		c-0.079,0.146-0.161,0.291-0.22,0.452c-0.666,1.815,0.265,3.826,2.08,4.492c1.815,0.666,3.826-0.265,4.492-2.08
		c0.059-0.161,0.09-0.324,0.125-0.487l0.047,0.017L34.594,29.207z"/>
	<circle style="display:inline;fill:#161616;" cx="31" cy="28" r="1"/>
	<linearGradient id="SVGID_3_" gradientUnits="userSpaceOnUse" x1="46.1162" y1="22.6072" x2="52.5943" y2="33.8275">
		<stop  offset="0" style="stop-color:#F5F6F6"/>
		<stop  offset="0.9921" style="stop-color:#D2D3D3"/>
	</linearGradient>
	
		<path style="display:inline;fill:url(#SVGID_3_);stroke:#333332;stroke-linecap:round;stroke-linejoin:round;stroke-miterlimit:1;" d="
		M48,23.5h7.5v-0.796c0,0-5.5-3-9-2c-2.041,0.583-4,2.796-4,2.796v1.204v3.11v0.39v3.11V32.5c0,0,1.946,2.227,4,2.814c3.5,1,9-2,9-2
		V32.5H48c0,0-2.419-0.195-2.493-4.491C45.581,23.714,48,23.5,48,23.5z"/>
	<g style="display:inline;opacity:0.5;">
		
			<linearGradient id="SVGID_4_" gradientUnits="userSpaceOnUse" x1="25.9659" y1="47.4865" x2="15.987" y2="30.2026" gradientTransform="matrix(0.7071 -0.7071 0.7071 0.7071 -20.7141 23.4917)">
			<stop  offset="0" style="stop-color:#386F8D"/>
			<stop  offset="1" style="stop-color:#8DD7F4"/>
		</linearGradient>
		<path style="fill:url(#SVGID_4_);stroke:#053755;stroke-linecap:round;stroke-linejoin:round;stroke-miterlimit:1;" d="
			M20.757,30.308c-1.367-1.367-3.583-1.367-4.95,0s-1.367,3.583,0,4.95l6.364,6.364l0.036-0.036c0.1,0.133,0.197,0.268,0.318,0.389
			c1.367,1.367,3.583,1.367,4.95,0c1.367-1.367,1.367-3.583,0-4.95c-0.121-0.121-0.256-0.218-0.389-0.318l0.036-0.036L20.757,30.308
			z"/>
		<linearGradient id="SVGID_5_" gradientUnits="userSpaceOnUse" x1="21.0824" y1="34.6023" x2="14.0185" y2="19.0781">
			<stop  offset="0" style="stop-color:#386F8D"/>
			<stop  offset="1" style="stop-color:#8DD7F4"/>
		</linearGradient>
		
			<path style="fill:url(#SVGID_5_);stroke:#053755;stroke-width:0.9063;stroke-linecap:round;stroke-linejoin:round;stroke-miterlimit:1;" d="
			M13.5,19.5V31c0,1.933,1.567,3.5,3.5,3.5s3.5-1.567,3.5-3.5V19.5H13.5z"/>
		<circle style="fill:#161616;" cx="17" cy="31" r="1"/>
		
			<linearGradient id="SVGID_6_" gradientUnits="userSpaceOnUse" x1="18.6254" y1="5.1164" x2="25.1035" y2="16.3367" gradientTransform="matrix(0 -1 1 0 6.4908 35.5092)">
			<stop  offset="0" style="stop-color:#F5F6F6"/>
			<stop  offset="0.9921" style="stop-color:#D2D3D3"/>
		</linearGradient>
		<path style="fill:url(#SVGID_6_);stroke:#333332;stroke-linecap:round;stroke-linejoin:round;stroke-miterlimit:1;" d="M12.5,15
			V7.5h-0.796c0,0-3,5.5-2,9c0.583,2.041,2.796,4,2.796,4h1.204h3.11h0.39h3.11H21.5c0,0,2.227-1.946,2.814-4c1-3.5-2-9-2-9H21.5V15
			c0,0-0.195,2.419-4.491,2.493C12.714,17.419,12.5,15,12.5,15z"/>
	</g>
	<g style="display:inline;">
		<linearGradient id="SVGID_7_" gradientUnits="userSpaceOnUse" x1="24.6482" y1="46.6335" x2="29.8825" y2="55.6996">
			<stop  offset="0" style="stop-color:#F5F6F6"/>
			<stop  offset="0.9921" style="stop-color:#BFBEBE"/>
		</linearGradient>
		<path style="fill:url(#SVGID_7_);" d="M18.5,48.5v4c0,1.933,3.806,3.5,8.5,3.5s8.5-1.567,8.5-3.5v-4H18.5z"/>
		<linearGradient id="SVGID_8_" gradientUnits="userSpaceOnUse" x1="24.9298" y1="44.9143" x2="29.2033" y2="52.3162">
			<stop  offset="0" style="stop-color:#FFFFFF"/>
			<stop  offset="1" style="stop-color:#F1F0F0"/>
		</linearGradient>
		<ellipse style="fill:url(#SVGID_8_);" cx="27" cy="48.5" rx="8.5" ry="3.5"/>
		<path style="fill:#797979;" d="M35,48.5c0,1.419-3.286,3-8,3s-8-1.581-8-3c0-0.165,0.049-0.333,0.135-0.5H18.07
			C18.028,48.164,18,48.33,18,48.5c0,2.28,3.869,4,9,4s9-1.72,9-4c0-0.17-0.028-0.336-0.07-0.5h-1.065
			C34.951,48.167,35,48.335,35,48.5z"/>
		<linearGradient id="SVGID_9_" gradientUnits="userSpaceOnUse" x1="24.0497" y1="39.2863" x2="29.5865" y2="48.8763">
			<stop  offset="0" style="stop-color:#FFFFFF"/>
			<stop  offset="1" style="stop-color:#D2D3D3"/>
		</linearGradient>
		<path style="fill:url(#SVGID_9_);" d="M27,36.5c-2.485,0-4.5,2.015-4.5,4.5v8h9v-8C31.5,38.515,29.485,36.5,27,36.5z"/>
		<path style="fill:#797979;" d="M31,45.412V48.5h-8v-3.088c-0.35,0.077-0.681,0.166-1,0.262V49c0,0.276,0.224,0.5,0.5,0.5h9
			c0.276,0,0.5-0.224,0.5-0.5v-3.326C31.681,45.578,31.35,45.489,31,45.412z"/>
		<path style="fill:none;stroke:#333332;stroke-linecap:round;stroke-linejoin:round;stroke-miterlimit:1;" d="M31.5,45.535V41
			c0-2.485-2.015-4.5-4.5-4.5s-4.5,2.015-4.5,4.5v4.535c-2.399,0.619-4,1.714-4,2.965v4c0,1.933,3.806,3.5,8.5,3.5
			s8.5-1.567,8.5-3.5v-4C35.5,47.248,33.899,46.153,31.5,45.535z"/>
	</g>
	<linearGradient id="SVGID_10_" gradientUnits="userSpaceOnUse" x1="28.629" y1="44.8216" x2="25.3521" y2="39.1457">
		<stop  offset="0" style="stop-color:#386F8D"/>
		<stop  offset="1" style="stop-color:#8DD7F4"/>
	</linearGradient>
	
		<circle style="display:inline;fill:url(#SVGID_10_);stroke:#053755;stroke-linecap:round;stroke-linejoin:round;stroke-miterlimit:1;" cx="27" cy="42" r="2.5"/>
	<defs>
		<filter id="Adobe_OpacityMaskFilter" filterUnits="userSpaceOnUse" x="20" y="7" width="36.157" height="28.179">
			<feColorMatrix  type="matrix" values="1 0 0 0 0  0 1 0 0 0  0 0 1 0 0  0 0 0 1 0"/>
		</filter>
	</defs>
	<mask maskUnits="userSpaceOnUse" x="20" y="7" width="36.157" height="28.179" id="SVGID_11_" style="display:inline;">
		<g style="filter:url(#Adobe_OpacityMaskFilter);">
			<linearGradient id="SVGID_12_" gradientUnits="userSpaceOnUse" x1="48.1939" y1="21.25" x2="13.2752" y2="21.25">
				<stop  offset="0" style="stop-color:#FFFFFF"/>
				<stop  offset="1" style="stop-color:#000000"/>
			</linearGradient>
			<rect x="13.5" y="4" style="fill:url(#SVGID_12_);" width="43.5" height="34.5"/>
		</g>
	</mask>
	<linearGradient id="SVGID_13_" gradientUnits="userSpaceOnUse" x1="26.7448" y1="20.8244" x2="42.4469" y2="24.2712">
		<stop  offset="0" style="stop-color:#D7D7D7"/>
		<stop  offset="1" style="stop-color:#969696"/>
	</linearGradient>
	
		<path style="display:inline;opacity:0.8;mask:url(#SVGID_11_);fill:url(#SVGID_13_);stroke:#797979;stroke-linecap:round;stroke-linejoin:round;stroke-miterlimit:1;" d="
		M24.314,16.5c-0.587,2.054-2.814,4-2.814,4h-1v9.597c0.086,0.071,0.177,0.13,0.257,0.21l4.371,4.371l2.894-7.884
		c0.543-1.48,1.982-2.355,3.478-2.273V24.5h11v-1c0,0,1.959-2.213,4-2.796c3.5-1,9,2,9,2l0.157,0.083
		C49.464,13.568,38.941,7.5,27,7.5c-1.536,0-3.045,0.111-4.528,0.305C23.072,8.994,25.176,13.485,24.314,16.5z"/>
</g>
<g id="work_2" style="display:none;">
	<g style="display:inline;">
		<linearGradient id="SVGID_14_" gradientUnits="userSpaceOnUse" x1="46.6222" y1="35.3312" x2="40.493" y2="24.7151">
			<stop  offset="0" style="stop-color:#386F8D"/>
			<stop  offset="1" style="stop-color:#8DD7F4"/>
		</linearGradient>
		
			<rect x="38.552" y="27.554" style="fill:url(#SVGID_14_);stroke:#053755;stroke-width:1.118;stroke-linecap:round;stroke-linejoin:round;stroke-miterlimit:1;" width="10.047" height="5"/>
		
			<linearGradient id="SVGID_15_" gradientUnits="userSpaceOnUse" x1="41.6161" y1="39.8387" x2="33.0204" y2="24.9505" gradientTransform="matrix(0.9388 0.3446 -0.3446 0.9388 12.7818 -8.3673)">
			<stop  offset="0" style="stop-color:#386F8D"/>
			<stop  offset="1" style="stop-color:#8DD7F4"/>
		</linearGradient>
		
			<path style="fill:url(#SVGID_15_);stroke:#053755;stroke-width:0.9155;stroke-linecap:round;stroke-linejoin:round;stroke-miterlimit:1;" d="
			M40.664,31.521c0.49-1.335-0.195-2.815-1.53-3.305c-1.335-0.49-2.815,0.195-3.305,1.53l-3.042,8.289l0.035,0.013
			c-0.058,0.108-0.118,0.214-0.162,0.333c-0.49,1.335,0.195,2.815,1.53,3.305c1.335,0.49,2.815-0.195,3.305-1.53
			c0.043-0.118,0.067-0.238,0.092-0.358l0.035,0.013L40.664,31.521z"/>
		<circle style="fill:#161616;" cx="38.054" cy="31" r="1.054"/>
		<linearGradient id="SVGID_16_" gradientUnits="userSpaceOnUse" x1="50.1288" y1="26.1227" x2="54.7282" y2="34.0892">
			<stop  offset="0" style="stop-color:#F5F6F6"/>
			<stop  offset="0.9921" style="stop-color:#D2D3D3"/>
		</linearGradient>
		
			<path style="fill:url(#SVGID_16_);stroke:#333332;stroke-width:0.9546;stroke-linecap:round;stroke-linejoin:round;stroke-miterlimit:1;" d="
			M52,27.554h5.5l-0.5-1.5c0,0-3.579-2.071-6.392-1.339c-1.641,0.427-3.215,2.048-3.215,2.048v0.882v2.278v0.285v2.278v0.868
			c0,0,1.564,1.631,3.215,2.061C53.421,36.148,57,33.554,57,33.554l0.5-1H52c0,0-1.44,0.672-1.5-2.474
			C50.56,26.934,52,27.554,52,27.554z"/>
	</g>
	<g style="display:inline;opacity:0.65;">
		<linearGradient id="SVGID_17_" gradientUnits="userSpaceOnUse" x1="30.9375" y1="33.216" x2="26.4375" y2="21.3827">
			<stop  offset="0" style="stop-color:#386F8D"/>
			<stop  offset="1" style="stop-color:#8DD7F4"/>
		</linearGradient>
		
			<rect x="25.495" y="20.456" style="fill:url(#SVGID_17_);stroke:#053755;stroke-width:1.118;stroke-linecap:round;stroke-linejoin:round;stroke-miterlimit:1;" width="5" height="10.047"/>
		
			<linearGradient id="SVGID_18_" gradientUnits="userSpaceOnUse" x1="37.087" y1="33.009" x2="28.4913" y2="18.1208" gradientTransform="matrix(0.8156 -0.5786 0.5786 0.8156 -10.8433 32.8273)">
			<stop  offset="0" style="stop-color:#386F8D"/>
			<stop  offset="1" style="stop-color:#8DD7F4"/>
		</linearGradient>
		
			<path style="fill:url(#SVGID_18_);stroke:#053755;stroke-width:0.9155;stroke-linecap:round;stroke-linejoin:round;stroke-miterlimit:1;" d="
			M30.176,29.486c-0.823-1.16-2.431-1.433-3.591-0.61c-1.16,0.823-1.433,2.431-0.61,3.591l5.109,7.202l0.03-0.021
			c0.056,0.109,0.11,0.219,0.183,0.322c0.823,1.16,2.431,1.433,3.591,0.61c1.16-0.823,1.433-2.431,0.61-3.591
			c-0.073-0.103-0.159-0.19-0.243-0.279l0.03-0.021L30.176,29.486z"/>
		<circle style="fill:#161616;" cx="28.054" cy="31.107" r="1.054"/>
		
			<linearGradient id="SVGID_19_" gradientUnits="userSpaceOnUse" x1="51.7167" y1="19.7076" x2="56.3162" y2="27.6741" gradientTransform="matrix(6.123234e-17 -1 1 6.123234e-17 4.3567 70.6425)">
			<stop  offset="0" style="stop-color:#F5F6F6"/>
			<stop  offset="0.9921" style="stop-color:#D2D3D3"/>
		</linearGradient>
		
			<path style="fill:url(#SVGID_19_);stroke:#333332;stroke-width:0.9546;stroke-linecap:round;stroke-linejoin:round;stroke-miterlimit:1;" d="
			M25.495,17.055v-5.5l-1.5,0.5c0,0-2.071,3.579-1.339,6.392c0.427,1.641,2.048,3.215,2.048,3.215h0.882h2.278h0.285h2.278h0.868
			c0,0,1.631-1.564,2.061-3.215c0.732-2.813-1.862-6.392-1.862-6.392l-1-0.5v5.5c0,0,0.672,1.44-2.474,1.5
			C24.875,18.495,25.495,17.055,25.495,17.055z"/>
	</g>
	<g style="display:inline;opacity:0.4;">
		
			<linearGradient id="SVGID_20_" gradientUnits="userSpaceOnUse" x1="22.6248" y1="36.1262" x2="18.1248" y2="24.2928" gradientTransform="matrix(0.7071 -0.7071 0.7071 0.7071 -14.6722 29.0773)">
			<stop  offset="0" style="stop-color:#386F8D"/>
			<stop  offset="1" style="stop-color:#8DD7F4"/>
		</linearGradient>
		
			<polygon style="fill:url(#SVGID_20_);stroke:#053755;stroke-width:1.118;stroke-linecap:round;stroke-linejoin:round;stroke-miterlimit:1;" points="
			17.536,29.914 24.64,37.018 21.104,40.554 14,33.45 		"/>
		
			<linearGradient id="SVGID_21_" gradientUnits="userSpaceOnUse" x1="29.4605" y1="30.5519" x2="20.8464" y2="15.6318" gradientTransform="matrix(0.0128 -0.9999 0.9999 0.0128 4.8163 64.9347)">
			<stop  offset="0" style="stop-color:#386F8D"/>
			<stop  offset="1" style="stop-color:#8DD7F4"/>
		</linearGradient>
		
			<path style="fill:url(#SVGID_21_);stroke:#053755;stroke-width:0.9155;stroke-linecap:round;stroke-linejoin:round;stroke-miterlimit:1;" d="
			M23.527,37.554c-1.422-0.018-2.357,1.054-2.375,2.476c-0.018,1.422,0.953,2.506,2.375,2.524h9v-0.042
			c0.121,0.019,0.241,0.04,0.367,0.042c1.422,0.018,2.587-0.917,2.605-2.34s-1.12-2.59-2.542-2.608
			c-0.126-0.002-0.43-0.052-0.43-0.052H23.527z"/>
		<circle style="fill:#161616;" cx="24" cy="40" r="1.054"/>
		
			<linearGradient id="SVGID_22_" gradientUnits="userSpaceOnUse" x1="48.6024" y1="11.1926" x2="53.2019" y2="19.1591" gradientTransform="matrix(-0.7071 -0.7071 0.7071 -0.7071 38.3602 75.9484)">
			<stop  offset="0" style="stop-color:#F5F6F6"/>
			<stop  offset="0.9921" style="stop-color:#D2D3D3"/>
		</linearGradient>
		
			<path style="fill:url(#SVGID_22_);stroke:#333332;stroke-width:0.9546;stroke-linecap:round;stroke-linejoin:round;stroke-miterlimit:1;" d="
			M11.596,31.332l-3.889-3.889L7,28.857c0,0,1.066,3.995,3.573,5.466c1.462,0.858,3.721,0.825,3.721,0.825l0.624-0.624l1.611-1.611
			l0.202-0.202l1.611-1.611l0.614-0.614c0,0,0.048-2.259-0.816-3.731c-1.471-2.507-5.836-3.203-5.836-3.203l-1.061,0.354
			l3.889,3.889c0,0,1.494,0.543-0.689,2.81C12.176,32.789,11.596,31.332,11.596,31.332z"/>
	</g>
	<g style="display:inline;">
		<g>
			<linearGradient id="SVGID_23_" gradientUnits="userSpaceOnUse" x1="33.1542" y1="44.7268" x2="37.2724" y2="51.8598">
				<stop  offset="0" style="stop-color:#F5F6F6"/>
				<stop  offset="0.9921" style="stop-color:#BFBEBE"/>
			</linearGradient>
			<path style="fill:url(#SVGID_23_);" d="M28.389,46.154v3.2c0,1.546,2.96,2.8,6.611,2.8s6.611-1.254,6.611-2.8v-3.2H28.389z"/>
			<linearGradient id="SVGID_24_" gradientUnits="userSpaceOnUse" x1="33.3327" y1="43.4659" x2="36.7745" y2="49.4272">
				<stop  offset="0" style="stop-color:#FFFFFF"/>
				<stop  offset="1" style="stop-color:#F1F0F0"/>
			</linearGradient>
			<ellipse style="fill:url(#SVGID_24_);" cx="35" cy="46.354" rx="6.611" ry="3"/>
			<path style="fill:#797979;" d="M41.222,46.498c0,1.261-2.556,2.667-6.222,2.667s-6.222-1.405-6.222-2.667
				c0-0.147,0.038-0.296,0.105-0.444h-0.828C28.022,46.199,28,46.347,28,46.498c0,2.027,3.009,3.556,7,3.556s7-1.529,7-3.556
				c0-0.151-0.022-0.299-0.055-0.444h-0.828C41.184,46.202,41.222,46.351,41.222,46.498z"/>
			<linearGradient id="SVGID_25_" gradientUnits="userSpaceOnUse" x1="32.653" y1="38.794" x2="37.0522" y2="46.4135">
				<stop  offset="0" style="stop-color:#FFFFFF"/>
				<stop  offset="1" style="stop-color:#D2D3D3"/>
			</linearGradient>
			<path style="fill:url(#SVGID_25_);" d="M35,36.554c-1.933,0-3.5,1.612-3.5,3.6v6.4h7v-6.4C38.5,38.166,36.933,36.554,35,36.554z"
				/>
			<path style="fill:#797979;" d="M38,44.054v2h-6v-2c-0.28,0.062-0.745-0.137-1-0.061v2.661c0,0.221,0.179,0.4,0.4,0.4h7.2
				c0.221,0,0.4-0.179,0.4-0.4v-2.661C38.745,43.916,38.28,44.115,38,44.054z"/>
			
				<path style="fill:none;stroke:#333332;stroke-width:0.9814;stroke-linecap:round;stroke-linejoin:round;stroke-miterlimit:1;" d="
				M38.5,43.967v-3.721c0-2.039-1.567-3.692-3.5-3.692s-3.5,1.653-3.5,3.692v3.721c-1.866,0.508-3.111,1.406-3.111,2.433v3.282
				c0,1.586,2.96,2.872,6.611,2.872s6.611-1.286,6.611-2.872V46.4C41.611,45.373,40.366,44.474,38.5,43.967z"/>
		</g>
		<g>
			<linearGradient id="SVGID_26_" gradientUnits="userSpaceOnUse" x1="35.6802" y1="42.2104" x2="34.4263" y2="40.0385">
				<stop  offset="0" style="stop-color:#74C4E2"/>
				<stop  offset="1" style="stop-color:#A4DEF6"/>
			</linearGradient>
			<ellipse style="fill:url(#SVGID_26_);" cx="35" cy="41.032" rx="1.51" ry="1.488"/>
			<path style="fill:#053755;" d="M35,40.034c0.562,0,1.019,0.448,1.019,0.998S35.562,42.03,35,42.03s-1.019-0.448-1.019-0.998
				S34.438,40.034,35,40.034 M35,39.054c-1.105,0-2,0.886-2,1.979c0,1.093,0.895,1.979,2,1.979s2-0.886,2-1.979
				C37,39.94,36.105,39.054,35,39.054L35,39.054z"/>
		</g>
	</g>
</g>
<g id="FINAL_copy">
	<g>
		<linearGradient id="SVGID_27_" gradientUnits="userSpaceOnUse" x1="46.6222" y1="35.3312" x2="40.493" y2="24.7151">
			<stop  offset="0" style="stop-color:#386F8D"/>
			<stop  offset="1" style="stop-color:#8DD7F4"/>
		</linearGradient>
		
			<rect x="38.552" y="27.554" style="fill:url(#SVGID_27_);stroke:#053755;stroke-width:1.118;stroke-linecap:round;stroke-linejoin:round;stroke-miterlimit:1;" width="10.047" height="5"/>
		
			<linearGradient id="SVGID_28_" gradientUnits="userSpaceOnUse" x1="41.6161" y1="39.8387" x2="33.0204" y2="24.9505" gradientTransform="matrix(0.9388 0.3446 -0.3446 0.9388 12.7818 -8.3673)">
			<stop  offset="0" style="stop-color:#386F8D"/>
			<stop  offset="1" style="stop-color:#8DD7F4"/>
		</linearGradient>
		
			<path style="fill:url(#SVGID_28_);stroke:#053755;stroke-width:0.9155;stroke-linecap:round;stroke-linejoin:round;stroke-miterlimit:1;" d="
			M40.664,31.521c0.49-1.335-0.195-2.815-1.53-3.305c-1.335-0.49-2.815,0.195-3.305,1.53l-3.042,8.289l0.035,0.013
			c-0.058,0.108-0.118,0.214-0.162,0.333c-0.49,1.335,0.195,2.815,1.53,3.305c1.335,0.49,2.815-0.195,3.305-1.53
			c0.043-0.118,0.067-0.238,0.092-0.358l0.035,0.013L40.664,31.521z"/>
		<circle style="fill:#161616;" cx="38.054" cy="31" r="1.054"/>
		<linearGradient id="SVGID_29_" gradientUnits="userSpaceOnUse" x1="50.1288" y1="26.1227" x2="54.7282" y2="34.0892">
			<stop  offset="0" style="stop-color:#F5F6F6"/>
			<stop  offset="0.9921" style="stop-color:#D2D3D3"/>
		</linearGradient>
		
			<path style="fill:url(#SVGID_29_);stroke:#333332;stroke-width:0.9546;stroke-linecap:round;stroke-linejoin:round;stroke-miterlimit:1;" d="
			M52,27.554h5.5l-0.5-1.5c0,0-3.579-2.071-6.392-1.339c-1.641,0.427-3.215,2.048-3.215,2.048v0.882v2.278v0.285v2.278v0.868
			c0,0,1.564,1.631,3.215,2.061C53.421,36.148,57,33.554,57,33.554l0.5-1H52c0,0-1.44,0.672-1.5-2.474
			C50.56,26.934,52,27.554,52,27.554z"/>
	</g>
	<g style="opacity:0.65;">
		<linearGradient id="SVGID_30_" gradientUnits="userSpaceOnUse" x1="30.9375" y1="33.216" x2="26.4375" y2="21.3827">
			<stop  offset="0" style="stop-color:#386F8D"/>
			<stop  offset="1" style="stop-color:#8DD7F4"/>
		</linearGradient>
		
			<rect x="25.495" y="20.456" style="fill:url(#SVGID_30_);stroke:#053755;stroke-width:1.118;stroke-linecap:round;stroke-linejoin:round;stroke-miterlimit:1;" width="5" height="10.047"/>
		
			<linearGradient id="SVGID_31_" gradientUnits="userSpaceOnUse" x1="37.087" y1="33.009" x2="28.4913" y2="18.1208" gradientTransform="matrix(0.8156 -0.5786 0.5786 0.8156 -10.8433 32.8273)">
			<stop  offset="0" style="stop-color:#386F8D"/>
			<stop  offset="1" style="stop-color:#8DD7F4"/>
		</linearGradient>
		
			<path style="fill:url(#SVGID_31_);stroke:#053755;stroke-width:0.9155;stroke-linecap:round;stroke-linejoin:round;stroke-miterlimit:1;" d="
			M30.176,29.486c-0.823-1.16-2.431-1.433-3.591-0.61c-1.16,0.823-1.433,2.431-0.61,3.591l5.109,7.202l0.03-0.021
			c0.056,0.109,0.11,0.219,0.183,0.322c0.823,1.16,2.431,1.433,3.591,0.61c1.16-0.823,1.433-2.431,0.61-3.591
			c-0.073-0.103-0.159-0.19-0.243-0.279l0.03-0.021L30.176,29.486z"/>
		<circle style="fill:#161616;" cx="28.054" cy="31.107" r="1.054"/>
		
			<linearGradient id="SVGID_32_" gradientUnits="userSpaceOnUse" x1="51.7167" y1="19.7076" x2="56.3162" y2="27.6741" gradientTransform="matrix(6.123234e-17 -1 1 6.123234e-17 4.3567 70.6425)">
			<stop  offset="0" style="stop-color:#F5F6F6"/>
			<stop  offset="0.9921" style="stop-color:#D2D3D3"/>
		</linearGradient>
		
			<path style="fill:url(#SVGID_32_);stroke:#333332;stroke-width:0.9546;stroke-linecap:round;stroke-linejoin:round;stroke-miterlimit:1;" d="
			M25.495,17.055v-5.5l-1.5,0.5c0,0-2.071,3.579-1.339,6.392c0.427,1.641,2.048,3.215,2.048,3.215h0.882h2.278h0.285h2.278h0.868
			c0,0,1.631-1.564,2.061-3.215c0.732-2.813-1.862-6.392-1.862-6.392l-1-0.5v5.5c0,0,0.672,1.44-2.474,1.5
			C24.875,18.495,25.495,17.055,25.495,17.055z"/>
	</g>
	<g style="opacity:0.4;">
		
			<linearGradient id="SVGID_33_" gradientUnits="userSpaceOnUse" x1="22.6248" y1="36.1262" x2="18.1248" y2="24.2928" gradientTransform="matrix(0.7071 -0.7071 0.7071 0.7071 -14.6722 29.0773)">
			<stop  offset="0" style="stop-color:#386F8D"/>
			<stop  offset="1" style="stop-color:#8DD7F4"/>
		</linearGradient>
		
			<polygon style="fill:url(#SVGID_33_);stroke:#053755;stroke-width:1.118;stroke-linecap:round;stroke-linejoin:round;stroke-miterlimit:1;" points="
			17.536,29.914 24.64,37.018 21.104,40.554 14,33.45 		"/>
		
			<linearGradient id="SVGID_34_" gradientUnits="userSpaceOnUse" x1="29.4605" y1="30.5519" x2="20.8464" y2="15.6318" gradientTransform="matrix(0.0128 -0.9999 0.9999 0.0128 4.8163 64.9347)">
			<stop  offset="0" style="stop-color:#386F8D"/>
			<stop  offset="1" style="stop-color:#8DD7F4"/>
		</linearGradient>
		
			<path style="fill:url(#SVGID_34_);stroke:#053755;stroke-width:0.9155;stroke-linecap:round;stroke-linejoin:round;stroke-miterlimit:1;" d="
			M23.527,37.554c-1.422-0.018-2.357,1.054-2.375,2.476c-0.018,1.422,0.953,2.506,2.375,2.524h9v-0.042
			c0.121,0.019,0.241,0.04,0.367,0.042c1.422,0.018,2.587-0.917,2.605-2.34s-1.12-2.59-2.542-2.608
			c-0.126-0.002-0.43-0.052-0.43-0.052H23.527z"/>
		<circle style="fill:#161616;" cx="24" cy="40" r="1.054"/>
		
			<linearGradient id="SVGID_35_" gradientUnits="userSpaceOnUse" x1="48.6024" y1="11.1926" x2="53.2019" y2="19.1591" gradientTransform="matrix(-0.7071 -0.7071 0.7071 -0.7071 38.3602 75.9484)">
			<stop  offset="0" style="stop-color:#F5F6F6"/>
			<stop  offset="0.9921" style="stop-color:#D2D3D3"/>
		</linearGradient>
		
			<path style="fill:url(#SVGID_35_);stroke:#333332;stroke-width:0.9546;stroke-linecap:round;stroke-linejoin:round;stroke-miterlimit:1;" d="
			M11.596,31.332l-3.889-3.889L7,28.857c0,0,1.066,3.995,3.573,5.466c1.462,0.858,3.721,0.825,3.721,0.825l0.624-0.624l1.611-1.611
			l0.202-0.202l1.611-1.611l0.614-0.614c0,0,0.048-2.259-0.816-3.731c-1.471-2.507-5.836-3.203-5.836-3.203l-1.061,0.354
			l3.889,3.889c0,0,1.494,0.543-0.689,2.81C12.176,32.789,11.596,31.332,11.596,31.332z"/>
	</g>
	<g>
		<g>
			<linearGradient id="SVGID_36_" gradientUnits="userSpaceOnUse" x1="33.1542" y1="44.7268" x2="37.2724" y2="51.8598">
				<stop  offset="0" style="stop-color:#F5F6F6"/>
				<stop  offset="0.9921" style="stop-color:#BFBEBE"/>
			</linearGradient>
			<path style="fill:url(#SVGID_36_);" d="M28.389,46.154v3.2c0,1.546,2.96,2.8,6.611,2.8s6.611-1.254,6.611-2.8v-3.2H28.389z"/>
			<linearGradient id="SVGID_37_" gradientUnits="userSpaceOnUse" x1="33.3327" y1="43.4659" x2="36.7745" y2="49.4272">
				<stop  offset="0" style="stop-color:#FFFFFF"/>
				<stop  offset="1" style="stop-color:#F1F0F0"/>
			</linearGradient>
			<ellipse style="fill:url(#SVGID_37_);" cx="35" cy="46.354" rx="6.611" ry="3"/>
			<path style="fill:#797979;" d="M41.222,46.498c0,1.261-2.556,2.667-6.222,2.667s-6.222-1.405-6.222-2.667
				c0-0.147,0.038-0.296,0.105-0.444h-0.828C28.022,46.199,28,46.347,28,46.498c0,2.027,3.009,3.556,7,3.556s7-1.529,7-3.556
				c0-0.151-0.022-0.299-0.055-0.444h-0.828C41.184,46.202,41.222,46.351,41.222,46.498z"/>
			<linearGradient id="SVGID_38_" gradientUnits="userSpaceOnUse" x1="32.653" y1="38.794" x2="37.0522" y2="46.4135">
				<stop  offset="0" style="stop-color:#FFFFFF"/>
				<stop  offset="1" style="stop-color:#D2D3D3"/>
			</linearGradient>
			<path style="fill:url(#SVGID_38_);" d="M35,36.554c-1.933,0-3.5,1.612-3.5,3.6v6.4h7v-6.4C38.5,38.166,36.933,36.554,35,36.554z"
				/>
			<path style="fill:#797979;" d="M38,44.054v2h-6v-2c-0.28,0.062-0.745-0.137-1-0.061v2.661c0,0.221,0.179,0.4,0.4,0.4h7.2
				c0.221,0,0.4-0.179,0.4-0.4v-2.661C38.745,43.916,38.28,44.115,38,44.054z"/>
			
				<path style="fill:none;stroke:#333332;stroke-width:0.9814;stroke-linecap:round;stroke-linejoin:round;stroke-miterlimit:1;" d="
				M38.5,43.967v-3.721c0-2.039-1.567-3.692-3.5-3.692s-3.5,1.653-3.5,3.692v3.721c-1.866,0.508-3.111,1.406-3.111,2.433v3.282
				c0,1.586,2.96,2.872,6.611,2.872s6.611-1.286,6.611-2.872V46.4C41.611,45.373,40.366,44.474,38.5,43.967z"/>
		</g>
		<g>
			<linearGradient id="SVGID_39_" gradientUnits="userSpaceOnUse" x1="35.6802" y1="42.2104" x2="34.4263" y2="40.0385">
				<stop  offset="0" style="stop-color:#74C4E2"/>
				<stop  offset="1" style="stop-color:#A4DEF6"/>
			</linearGradient>
			<ellipse style="fill:url(#SVGID_39_);" cx="35" cy="41.032" rx="1.51" ry="1.488"/>
			<path style="fill:#053755;" d="M35,40.034c0.562,0,1.019,0.448,1.019,0.998S35.562,42.03,35,42.03s-1.019-0.448-1.019-0.998
				S34.438,40.034,35,40.034 M35,39.054c-1.105,0-2,0.886-2,1.979c0,1.093,0.895,1.979,2,1.979s2-0.886,2-1.979
				C37,39.94,36.105,39.054,35,39.054L35,39.054z"/>
		</g>
	</g>
</g>
</svg>
