<svg xmlns="http://www.w3.org/2000/svg" xmlns:xlink="http://www.w3.org/1999/xlink" viewBox="0 0 64 64"><defs><style>.White-RIGHT-\&amp;-FRONT,.cls-1{stroke:#787878;}.Blue-RIGHT\,-FRONT-\&amp;-SINGLE,.White-OUTLINE,.White-RIGHT-\&amp;-FRONT,.cls-1{stroke-linejoin:round;}.White-RIGHT-\&amp;-FRONT{fill:url(#linear-gradient);}.Blue-RIGHT\,-FRONT-\&amp;-SINGLE{stroke:#003755;fill:url(#linear-gradient-2);}.cls-1{fill:url(#linear-gradient-4);}.White-OUTLINE{fill:none;stroke:#323232;}.cls-2{fill:#fff;}.cls-3{fill:#075081;}</style><linearGradient id="linear-gradient" x1="24.21" y1="15.21" x2="48.79" y2="57.79" gradientUnits="userSpaceOnUse"><stop offset="0" stop-color="#fff"/><stop offset="1" stop-color="#d2d2d2"/></linearGradient><linearGradient id="linear-gradient-2" x1="22.16" y1="11.66" x2="50.84" y2="61.34" gradientUnits="userSpaceOnUse"><stop offset="0" stop-color="#8cd7f5"/><stop offset="1" stop-color="#376e8c"/></linearGradient><linearGradient id="linear-gradient-4" x1="17.09" y1="10.05" x2="47.02" y2="61.89" xlink:href="#linear-gradient"/></defs><g id="Layer_10" data-name="Layer 10"><path class="White-RIGHT-&amp;-FRONT" d="M51.5,18.5h-33v36h36v-36Zm0,33h-30v-30h30Z"/><path class="Blue-RIGHT,-FRONT-&amp;-SINGLE" d="M15.5,15.5v42h42v-42Zm39,39h-36v-36h36Z"/><rect class="Blue-RIGHT,-FRONT-&amp;-SINGLE" x="21.5" y="21.5" width="30" height="30"/><polygon class="cls-1" points="37.5 38.5 21.5 7.5 42.5 35.5 57.51 27.4 57.5 31.5 45.5 40.5 54.63 57.5 51.5 57.5 40.5 43.5 13.5 56.5 37.5 38.5"/><polygon class="White-OUTLINE" points="57.5 27.41 57.5 15.5 28.5 15.5 21.5 6.5 20.5 6.5 24.5 15.5 15.5 15.5 15.5 54.13 11.9 57.5 15.5 56.5 15.5 57.5 51.5 57.5 54.63 57.5 57.5 57.5 57.5 31.5 57.51 27.4 57.5 27.41"/></g><g id="Layer_9" data-name="Layer 9"><path class="cls-2" d="M29,14.75a7.25,7.25,0,0,0-14.39-1.22A7.25,7.25,0,1,0,22.39,22,7.26,7.26,0,0,0,29,14.75Z"/><path class="cls-3" d="M21.5,24.5a9,9,0,0,1-8.2-5.29.51.51,0,0,1,0-.48.5.5,0,0,1,.42-.23H18.7a.52.52,0,0,1,.32.11,3.93,3.93,0,0,0,2.48.89,4,4,0,0,0,0-8,3.93,3.93,0,0,0-2.48.89.52.52,0,0,1-.32.11H13.76a.5.5,0,0,1-.42-.23.51.51,0,0,1,0-.48A9,9,0,1,1,21.5,24.5Z"/><path class="cls-2" d="M21.5,7a8.5,8.5,0,1,1-7.74,12H18.7a4.5,4.5,0,1,0,0-7H13.76A8.49,8.49,0,0,1,21.5,7m0-1a9.51,9.51,0,0,0-8.65,5.59,1,1,0,0,0,.07.95,1,1,0,0,0,.84.46H18.7a1,1,0,0,0,.63-.22A3.46,3.46,0,0,1,21.5,12a3.5,3.5,0,0,1,0,7,3.46,3.46,0,0,1-2.17-.78A1,1,0,0,0,18.7,18H13.76a1,1,0,0,0-.84.46,1,1,0,0,0-.07.95A9.5,9.5,0,1,0,21.5,6Z"/><path class="cls-3" d="M15.5,30.5a9,9,0,1,1,8.2-12.71.51.51,0,0,1,0,.48.5.5,0,0,1-.42.23H18.3a.52.52,0,0,1-.32-.11,3.93,3.93,0,0,0-2.48-.89,4,4,0,0,0,0,8A3.93,3.93,0,0,0,18,24.61a.52.52,0,0,1,.32-.11h4.94a.5.5,0,0,1,.42.23.51.51,0,0,1,0,.48A9,9,0,0,1,15.5,30.5Z"/><path class="cls-2" d="M15.5,13a8.49,8.49,0,0,1,7.74,5H18.3a4.5,4.5,0,1,0,0,7h4.94A8.5,8.5,0,1,1,15.5,13m0-1a9.5,9.5,0,1,0,8.65,13.41,1,1,0,0,0-.07-.95,1,1,0,0,0-.84-.46H18.3a1,1,0,0,0-.63.22A3.46,3.46,0,0,1,15.5,25a3.5,3.5,0,0,1,0-7,3.46,3.46,0,0,1,2.17.78,1,1,0,0,0,.63.22h4.94a1,1,0,0,0,.84-.46,1,1,0,0,0,.07-.95A9.51,9.51,0,0,0,15.5,12Z"/></g></svg>