<svg id="CATIA___C10_MAT_-_Materials_Definition" data-name="CATIA _ (C10) MAT - Materials Definition" xmlns="http://www.w3.org/2000/svg" xmlns:xlink="http://www.w3.org/1999/xlink" viewBox="0 0 64 64"><defs><style>.cls-1{fill:#fff;}.cls-2{fill:url(#radial-gradient);}.cls-3{fill:url(#radial-gradient-2);}.cls-4{fill:#707174;}.cls-5{fill:url(#radial-gradient-3);}.cls-6{mask:url(#mask);}.cls-7,.cls-8{fill:none;stroke-linecap:round;stroke-linejoin:round;}.cls-7{stroke:#6d6d6d;}.cls-8{stroke:#2d2d2d;}</style><radialGradient id="radial-gradient" cx="17.43" cy="38.29" r="3.87" gradientUnits="userSpaceOnUse"><stop offset="0" stop-color="#e9e9ea"/><stop offset="1" stop-color="#4d4d4d"/></radialGradient><radialGradient id="radial-gradient-2" cx="39.21" cy="30.87" r="25.04" gradientUnits="userSpaceOnUse"><stop offset="0.2" stop-color="#eff0f0"/><stop offset="0.7" stop-color="#c6c7c9"/><stop offset="1" stop-color="#acadb0"/></radialGradient><radialGradient id="radial-gradient-3" cx="34.88" cy="30.14" r="80.07" gradientTransform="translate(54.4 61.62) rotate(-141.49) scale(1 0.41)" gradientUnits="userSpaceOnUse"><stop offset="0.15" stop-color="#f0f0f0"/><stop offset="1" stop-color="#8f8f91"/></radialGradient><mask id="mask" x="9.61" y="12.71" width="46" height="36" maskUnits="userSpaceOnUse"><polyline class="cls-1" points="21.61 12.71 55.61 35.71 51.61 48.71 9.61 20.71"/></mask></defs><title>CATIA _ (C10) MAT - Materials Definition</title><path class="cls-2" d="M22.45,38.29c0,1.2-2.24,2.18-5,2.18s-5-1-5-2.18,2.25-2.18,5-2.18S22.45,37.08,22.45,38.29Z"/><path class="cls-3" d="M53.11,28.77c.4,4.55-.92,9-4.85,10.93C40.35,43.57,35,32.94,28.39,25.31,22.09,18,17.67,16.11,17.3,16a24.35,24.35,0,0,0-5.84,9.85c-1.22,4.09-1.11,9.35.22,12.39,0,0,.55-1.88,3.76-.33s5.09,4.21,8.75,6.53S35,51.54,43.39,48.66C51.19,46,54.1,32.83,53.11,28.77Z"/><path class="cls-4" d="M20,41s-8.93,1-8.43-2.91c0,0,1.33-2.85,7.94,2,0,0-.13.51-.63.17-1.17-.82-4.48-3-5.49-2.31,0,0-1,2.21,4.32,1.49Z"/><path class="cls-5" d="M47.44,17.27c-6.15-4.7-8.64-5.48-18-3.65s-12.12,2.55-12.12,2.55,4.54,1.71,11.12,9.35S40.48,43.84,48.39,40,53.58,22,47.44,17.27Z"/><g class="cls-6"><path class="cls-7" d="M17.27,16.14s4.83,1.47,11.12,9.35c6,7.47,10.9,18,19.87,14.39,0,0,4.54-2.61,5-7.3"/></g><path class="cls-8" d="M29.39,13.62C21.8,15.38,17.34,16,17.3,16a24.35,24.35,0,0,0-5.84,9.85c-1.2,4,.11,12.28.11,12.28.6,4.1,7.7,2.4,7.7,2.4a45.36,45.36,0,0,0,4.92,3.91c3.65,2.33,10.77,7.14,19.2,4.26,4.21-1.43,9.53-9.18,9.91-17.53C53.66,23.09,46.32,9.68,29.39,13.62Z"/></svg>