<?xml version="1.0" encoding="iso-8859-1"?>
<!-- Generator: Adobe Illustrator 23.1.0, SVG Export Plug-In . SVG Version: 6.00 Build 0)  -->
<svg version="1.1" xmlns="http://www.w3.org/2000/svg" xmlns:xlink="http://www.w3.org/1999/xlink" x="0px" y="0px"
	 viewBox="0 0 64 64" style="enable-background:new 0 0 64 64;" xml:space="preserve">
<pattern  width="20" height="20" patternUnits="userSpaceOnUse" id="New_Pattern_Swatch_2" viewBox="22.121 -42.121 20 20" style="overflow:visible;">
	<g>
		<rect x="22.121" y="-42.121" style="fill:none;" width="20" height="20"/>
		
			<rect x="49.121" y="-26.263" transform="matrix(0.7071 -0.7071 0.7071 0.7071 23.837 33.3051)" style="fill:#844138;" width="6" height="28.284"/>
		
			<rect x="29.121" y="-26.263" transform="matrix(0.7071 -0.7071 0.7071 0.7071 17.9792 19.163)" style="fill:#844138;" width="6" height="28.284"/>
		
			<rect x="9.121" y="-26.263" transform="matrix(0.7071 -0.7071 0.7071 0.7071 12.1213 5.0208)" style="fill:#844138;" width="6" height="28.284"/>
		
			<rect x="49.121" y="-46.263" transform="matrix(0.7071 -0.7071 0.7071 0.7071 37.9792 27.4472)" style="fill:#844138;" width="6" height="28.284"/>
		
			<rect x="29.121" y="-46.263" transform="matrix(0.7071 -0.7071 0.7071 0.7071 32.1213 13.3051)" style="fill:#844138;" width="6" height="28.284"/>
		
			<rect x="9.121" y="-46.263" transform="matrix(0.7071 -0.7071 0.7071 0.7071 26.2635 -0.837)" style="fill:#844138;" width="6" height="28.284"/>
		
			<rect x="49.121" y="-66.263" transform="matrix(0.7071 -0.7071 0.7071 0.7071 52.1213 21.5894)" style="fill:#844138;" width="6" height="28.284"/>
		
			<rect x="29.121" y="-66.263" transform="matrix(0.7071 -0.7071 0.7071 0.7071 46.2635 7.4472)" style="fill:#844138;" width="6" height="28.284"/>
		
			<rect x="9.121" y="-66.263" transform="matrix(0.7071 -0.7071 0.7071 0.7071 40.4056 -6.6949)" style="fill:#844138;" width="6" height="28.284"/>
	</g>
</pattern>
<g id="Layer_1" style="display:none;">
</g>
<g id="info_r2021x" style="display:none;">
	<g id="pedestal_r2021x" style="display:inline;">
		<path style="opacity:0.5;fill:#FFFFFF;" d="M63.002,64h-62c-0.552,0-1-0.448-1-1V1c0-0.552,0.448-1,1-1h62c0.552,0,1,0.448,1,1v62
			C64.002,63.552,63.554,64,63.002,64z"/>
		<rect x="1.002" y="1" style="fill:#F4F5F6;" width="62" height="62"/>
		<rect x="1.002" y="1" style="fill:#D1D4D4;" width="2" height="62"/>
	</g>
	<g id="no-go_zone_1_" style="display:inline;opacity:0.3;">
		<path style="fill:url(#New_Pattern_Swatch_2);" d="M0,0v64h64V0H0z M57,57H7V7h50V57z"/>
	</g>
	<g style="display:inline;">
		<path style="fill:#EA4F37;" d="M57,7v50H7V7H57 M58,6h-1H7H6v1v50v1h1h50h1v-1V7V6L58,6z"/>
	</g>
</g>
<g id="Notes" style="display:none;">
</g>
<g id="vector_references" style="display:none;">
</g>
<g id="PNG_references" style="display:none;">
	
		<image style="display:inline;overflow:visible;" width="64" height="64" xlink:href="../../../../Graphics/DSMotion/AppIcons/CATMotionEngineering/PNG/CATMEN_AP_AppIcon.png" >
	</image>
</g>
<g id="Work">
	<g>
		<linearGradient id="SVGID_1_" gradientUnits="userSpaceOnUse" x1="13.232" y1="21.3849" x2="24.5958" y2="41.0675">
			<stop  offset="0" style="stop-color:#F5F6F6"/>
			<stop  offset="0.9921" style="stop-color:#D2D3D3"/>
		</linearGradient>
		
			<polygon style="fill:url(#SVGID_1_);stroke:#333332;stroke-width:0.9957;stroke-linecap:round;stroke-linejoin:round;stroke-miterlimit:1;" points="
			7.416,21.479 30.416,17.459 30.416,39.75 7.416,45 		"/>
		<polyline style="fill:none;stroke:#161616;stroke-width:0.9957;stroke-miterlimit:10;" points="18.535,24.518 18.535,35.941 
			10.68,37.633 		"/>
		<linearGradient id="SVGID_2_" gradientUnits="userSpaceOnUse" x1="14.0735" y1="40.0934" x2="10.7338" y2="34.3089">
			<stop  offset="0" style="stop-color:#386F8D"/>
			<stop  offset="1" style="stop-color:#8DD7F4"/>
		</linearGradient>
		
			<polygon style="fill:url(#SVGID_2_);stroke:#053755;stroke-width:0.9957;stroke-linecap:round;stroke-linejoin:round;stroke-miterlimit:1;" points="
			10.466,35.4 14.417,34.553 14.417,39.004 10.466,39.979 		"/>
		
			<line style="fill:none;stroke:#161616;stroke-width:0.9957;stroke-miterlimit:10;" x1="10.68" y1="26.113" x2="26.733" y2="22.71"/>
		<linearGradient id="SVGID_3_" gradientUnits="userSpaceOnUse" x1="14.0735" y1="28.9395" x2="10.7338" y2="23.1551">
			<stop  offset="0" style="stop-color:#386F8D"/>
			<stop  offset="1" style="stop-color:#8DD7F4"/>
		</linearGradient>
		
			<polygon style="fill:url(#SVGID_3_);stroke:#053755;stroke-width:0.9957;stroke-linecap:round;stroke-linejoin:round;stroke-miterlimit:1;" points="
			10.466,24.246 14.417,23.4 14.417,27.85 10.466,28.826 		"/>
	</g>
	<g>
		<linearGradient id="SVGID_4_" gradientUnits="userSpaceOnUse" x1="45.9069" y1="25.8746" x2="49.6922" y2="32.4311">
			<stop  offset="0" style="stop-color:#ABABAB"/>
			<stop  offset="1" style="stop-color:#5B5B5B"/>
		</linearGradient>
		
			<circle style="fill:url(#SVGID_4_);stroke:#333332;stroke-linecap:round;stroke-linejoin:round;stroke-miterlimit:1;" cx="48" cy="29.5" r="4.5"/>
		<linearGradient id="SVGID_5_" gradientUnits="userSpaceOnUse" x1="48.2152" y1="26.9086" x2="51.959" y2="33.393">
			<stop  offset="0" style="stop-color:#F5F6F6"/>
			<stop  offset="0.9921" style="stop-color:#D2D3D3"/>
		</linearGradient>
		
			<circle style="fill:url(#SVGID_5_);stroke:#333332;stroke-linecap:round;stroke-linejoin:round;stroke-miterlimit:1;" cx="50" cy="30" r="4.5"/>
	</g>
	
		<radialGradient id="SVGID_6_" cx="24.3982" cy="51.2826" r="4.9882" gradientTransform="matrix(1.0272 0 0 0.9325 -0.3946 3.3531)" gradientUnits="userSpaceOnUse">
		<stop  offset="0" style="stop-color:#8DD7F4"/>
		<stop  offset="1" style="stop-color:#386F8D"/>
	</radialGradient>
	
		<path style="fill:url(#SVGID_6_);stroke:#053755;stroke-width:0.9787;stroke-linecap:round;stroke-linejoin:round;stroke-miterlimit:1;" d="
		M25.919,54.5c2.38,0,4.357-0.52,5.542-1.421c0-1.973-2.816-3.579-5.542-3.579s-5.458,1.571-5.458,3.533
		C21.646,53.933,23.539,54.5,25.919,54.5z"/>
	
		<line style="fill:none;stroke:#323232;stroke-width:2;stroke-linecap:round;stroke-miterlimit:10;" x1="25.961" y1="46.5" x2="25.961" y2="50.5"/>
	<g>
		<g>
			<g>
				<linearGradient id="SVGID_7_" gradientUnits="userSpaceOnUse" x1="27.8102" y1="46.9883" x2="24.5406" y2="41.3251">
					<stop  offset="0" style="stop-color:#2A5B79"/>
					<stop  offset="1" style="stop-color:#84BEDC"/>
				</linearGradient>
				<path style="fill:url(#SVGID_7_);" d="M25.961,44.521c-2.485,0-4.5-0.757-4.5-2v2.5h0.05c0.252,1.123,2.136,2,4.45,2
					s4.198-0.877,4.45-2h0.05v-2.5C30.461,43.763,28.446,44.521,25.961,44.521z"/>
			</g>
			<linearGradient id="SVGID_8_" gradientUnits="userSpaceOnUse" x1="27.8102" y1="46.9883" x2="24.5406" y2="41.3251">
				<stop  offset="0" style="stop-color:#2A5B79"/>
				<stop  offset="1" style="stop-color:#84BEDC"/>
			</linearGradient>
			<ellipse style="fill:url(#SVGID_8_);" cx="25.961" cy="42.771" rx="4.5" ry="1.75"/>
		</g>
		<g>
			<g>
				<linearGradient id="SVGID_9_" gradientUnits="userSpaceOnUse" x1="28.4144" y1="48.0348" x2="23.7185" y2="39.9012">
					<stop  offset="0" style="stop-color:#386F8D"/>
					<stop  offset="1" style="stop-color:#8DD7F4"/>
				</linearGradient>
				<path style="fill:url(#SVGID_9_);stroke:#053755;stroke-linecap:round;stroke-linejoin:round;stroke-miterlimit:1;" d="
					M25.961,44.521c-2.485,0-4.5-0.757-4.5-2v2.5h0.05c0.252,1.123,2.136,2,4.45,2s4.198-0.877,4.45-2h0.05v-2.5
					C30.461,43.763,28.446,44.521,25.961,44.521z"/>
			</g>
			<linearGradient id="SVGID_10_" gradientUnits="userSpaceOnUse" x1="27.1971" y1="44.9112" x2="24.9187" y2="40.965">
				<stop  offset="0" style="stop-color:#74C4E2"/>
				<stop  offset="1" style="stop-color:#A4DEF6"/>
			</linearGradient>
			
				<ellipse style="fill:url(#SVGID_10_);stroke:#053755;stroke-linecap:round;stroke-linejoin:round;stroke-miterlimit:1;" cx="25.961" cy="42.771" rx="4.5" ry="1.75"/>
		</g>
		<g>
			<g>
				<path style="fill:none;stroke:#053755;stroke-linecap:round;stroke-linejoin:round;stroke-miterlimit:1;" d="M25.961,44.521
					c-2.485,0-4.5-0.757-4.5-2v2.5h0.05c0.252,1.123,2.136,2,4.45,2s4.198-0.877,4.45-2h0.05v-2.5
					C30.461,43.763,28.446,44.521,25.961,44.521z"/>
			</g>
			
				<ellipse style="fill:none;stroke:#053755;stroke-linecap:round;stroke-linejoin:round;stroke-miterlimit:1;" cx="25.961" cy="42.771" rx="4.5" ry="1.75"/>
		</g>
	</g>
	<linearGradient id="SVGID_11_" gradientUnits="userSpaceOnUse" x1="23.142" y1="36.25" x2="28.6314" y2="36.25">
		<stop  offset="0" style="stop-color:#D2D3D3"/>
		<stop  offset="0.4186" style="stop-color:#F5F6F6"/>
		<stop  offset="0.9921" style="stop-color:#999999"/>
	</linearGradient>
	<path style="fill:url(#SVGID_11_);stroke:#333332;stroke-linecap:round;stroke-linejoin:round;stroke-miterlimit:1;" d="M22.461,29
		v13c0,0.828,1.567,1.5,3.5,1.5s3.5-0.672,3.5-1.5V29H22.461z"/>
	<g>
		<g>
			<linearGradient id="SVGID_12_" gradientUnits="userSpaceOnUse" x1="28.4144" y1="31.5142" x2="23.7185" y2="23.3806">
				<stop  offset="0" style="stop-color:#386F8D"/>
				<stop  offset="1" style="stop-color:#8DD7F4"/>
			</linearGradient>
			<path style="fill:url(#SVGID_12_);stroke:#053755;stroke-linecap:round;stroke-linejoin:round;stroke-miterlimit:1;" d="
				M25.961,28c-2.485,0-4.5-0.757-4.5-2v2.5h0.05c0.252,1.123,2.136,2,4.45,2s4.198-0.877,4.45-2h0.05V26
				C30.461,27.243,28.446,28,25.961,28z"/>
		</g>
		<linearGradient id="SVGID_13_" gradientUnits="userSpaceOnUse" x1="27.1971" y1="28.3906" x2="24.9187" y2="24.4444">
			<stop  offset="0" style="stop-color:#74C4E2"/>
			<stop  offset="1" style="stop-color:#A4DEF6"/>
		</linearGradient>
		
			<ellipse style="fill:url(#SVGID_13_);stroke:#053755;stroke-linecap:round;stroke-linejoin:round;stroke-miterlimit:1;" cx="25.961" cy="26.25" rx="4.5" ry="1.75"/>
	</g>
	
		<line style="fill:none;stroke:#323232;stroke-width:2;stroke-linecap:round;stroke-miterlimit:10;" x1="25.961" y1="22" x2="25.961" y2="25.5"/>
	<linearGradient id="SVGID_14_" gradientUnits="userSpaceOnUse" x1="40.8345" y1="23.1048" x2="32.8835" y2="9.3333">
		<stop  offset="0" style="stop-color:#74C4E2"/>
		<stop  offset="1" style="stop-color:#A4DEF6"/>
	</linearGradient>
	<path style="fill:url(#SVGID_14_);stroke:#053755;stroke-linecap:round;stroke-linejoin:round;stroke-miterlimit:1;" d="M20.416,14
		l23.5-3.5c0,0,6-0.5,8.343,3.5c3.237,5.525-0.5,1-0.5,1s-6-3.5-13-0.5s-17.843,3-17.843,3L20.416,14z"/>
	<linearGradient id="SVGID_15_" gradientUnits="userSpaceOnUse" x1="45.1804" y1="25.9777" x2="50.5407" y2="16.8652">
		<stop  offset="0" style="stop-color:#2A5B79"/>
		<stop  offset="0.4637" style="stop-color:#68A0BE"/>
		<stop  offset="1" style="stop-color:#2A5B79"/>
	</linearGradient>
	
		<path style="fill:url(#SVGID_15_);stroke:#053755;stroke-width:1.268;stroke-linecap:round;stroke-linejoin:round;stroke-miterlimit:1;" d="
		M49.197,15.312c-0.473-0.181-0.956-0.288-1.438-0.341c1.166,1.309,1.53,3.409,0.768,5.405c-1.028,2.693-3.708,4.17-5.987,3.301
		c-0.529-0.202-0.982-0.522-1.366-0.914c0.47,1.826,1.755,3.391,3.613,4.1c3.093,1.181,6.587-0.448,7.805-3.637
		S52.29,16.493,49.197,15.312z"/>
	<linearGradient id="SVGID_16_" gradientUnits="userSpaceOnUse" x1="46.8785" y1="33.4848" x2="34.4874" y2="12.0227">
		<stop  offset="0" style="stop-color:#386F8D"/>
		<stop  offset="1" style="stop-color:#8DD7F4"/>
	</linearGradient>
	<path style="fill:url(#SVGID_16_);stroke:#053755;stroke-linecap:round;stroke-linejoin:round;stroke-miterlimit:1;" d="
		M56.416,23.382c-1-11.382-10-10.5-10-10.5l-23,3V22.5l9-1.118c0,0,8,7.5,11.5,7s5.5,2,6,2.5S57.336,33.854,56.416,23.382z
		 M50.549,22.65c-1.017,2.664-3.586,4.158-5.737,3.337c-2.152-0.821-3.072-3.647-2.055-6.311c1.017-2.664,3.586-4.158,5.737-3.337
		C50.646,17.161,51.566,19.986,50.549,22.65z"/>
	<linearGradient id="SVGID_17_" gradientUnits="userSpaceOnUse" x1="24.1661" y1="21.8976" x2="20.2577" y2="15.1279">
		<stop  offset="0" style="stop-color:#2A5B79"/>
		<stop  offset="1" style="stop-color:#84BEDC"/>
	</linearGradient>
	<polygon style="fill:url(#SVGID_17_);stroke:#053755;stroke-linecap:round;stroke-linejoin:round;stroke-miterlimit:1;" points="
		23.416,16 20.416,14 20.416,20 23.416,22.5 	"/>
	<g>
		<g>
			<circle style="fill:#FFFFFF;" cx="52.5" cy="27.5" r="0.5"/>
			<path style="fill:#003755;" d="M52.5,26.5c-0.552,0-1,0.448-1,1s0.448,1,1,1s1-0.448,1-1S53.052,26.5,52.5,26.5L52.5,26.5z"/>
		</g>
		<g>
			<circle style="fill:#FFFFFF;" cx="52.5" cy="27.5" r="0.5"/>
		</g>
	</g>
	<defs>
		<filter id="Adobe_OpacityMaskFilter" filterUnits="userSpaceOnUse" x="21.815" y="32.771" width="8" height="2.25">
			<feColorMatrix  type="matrix" values="1 0 0 0 0  0 1 0 0 0  0 0 1 0 0  0 0 0 1 0"/>
		</filter>
	</defs>
	<mask maskUnits="userSpaceOnUse" x="21.815" y="32.771" width="8" height="2.25" id="SVGID_18_">
		<g style="filter:url(#Adobe_OpacityMaskFilter);">
			<linearGradient id="SVGID_19_" gradientUnits="userSpaceOnUse" x1="26.7186" y1="33.4183" x2="22.1738" y2="33.3772">
				<stop  offset="0" style="stop-color:#FFFFFF"/>
				<stop  offset="1" style="stop-color:#000000"/>
			</linearGradient>
			<rect x="21.61" y="31.336" style="fill:url(#SVGID_19_);" width="9.11" height="4.154"/>
		</g>
	</mask>
	<path style="mask:url(#SVGID_18_);fill:#333332;" d="M25.815,34.021c-1.858,0-3-0.729-3-1.25h-1c0,1.282,1.72,2.25,4,2.25
		s4-0.968,4-2.25h-1C28.815,33.292,27.674,34.021,25.815,34.021z"/>
	<defs>
		<filter id="Adobe_OpacityMaskFilter_1_" filterUnits="userSpaceOnUse" x="21.815" y="29.771" width="8" height="2.25">
			<feColorMatrix  type="matrix" values="1 0 0 0 0  0 1 0 0 0  0 0 1 0 0  0 0 0 1 0"/>
		</filter>
	</defs>
	<mask maskUnits="userSpaceOnUse" x="21.815" y="29.771" width="8" height="2.25" id="SVGID_20_">
		<g style="filter:url(#Adobe_OpacityMaskFilter_1_);">
			<linearGradient id="SVGID_21_" gradientUnits="userSpaceOnUse" x1="26.7186" y1="30.4183" x2="22.1738" y2="30.3772">
				<stop  offset="0" style="stop-color:#FFFFFF"/>
				<stop  offset="1" style="stop-color:#000000"/>
			</linearGradient>
			<rect x="21.61" y="28.336" style="fill:url(#SVGID_21_);" width="9.11" height="4.154"/>
		</g>
	</mask>
	<path style="mask:url(#SVGID_20_);fill:#333332;" d="M25.815,31.021c-1.858,0-3-0.729-3-1.25h-1c0,1.282,1.72,2.25,4,2.25
		s4-0.968,4-2.25h-1C28.815,30.292,27.674,31.021,25.815,31.021z"/>
	<defs>
		<filter id="Adobe_OpacityMaskFilter_2_" filterUnits="userSpaceOnUse" x="21.815" y="35.771" width="8" height="2.25">
			<feColorMatrix  type="matrix" values="1 0 0 0 0  0 1 0 0 0  0 0 1 0 0  0 0 0 1 0"/>
		</filter>
	</defs>
	<mask maskUnits="userSpaceOnUse" x="21.815" y="35.771" width="8" height="2.25" id="SVGID_22_">
		<g style="filter:url(#Adobe_OpacityMaskFilter_2_);">
			<linearGradient id="SVGID_23_" gradientUnits="userSpaceOnUse" x1="26.7186" y1="36.4184" x2="22.1738" y2="36.3772">
				<stop  offset="0" style="stop-color:#FFFFFF"/>
				<stop  offset="1" style="stop-color:#000000"/>
			</linearGradient>
			<rect x="21.61" y="34.336" style="fill:url(#SVGID_23_);" width="9.11" height="4.154"/>
		</g>
	</mask>
	<path style="mask:url(#SVGID_22_);fill:#333332;" d="M25.815,37.021c-1.858,0-3-0.729-3-1.25h-1c0,1.282,1.72,2.25,4,2.25
		s4-0.968,4-2.25h-1C28.815,36.292,27.674,37.021,25.815,37.021z"/>
	<defs>
		<filter id="Adobe_OpacityMaskFilter_3_" filterUnits="userSpaceOnUse" x="21.815" y="38.771" width="8" height="2.25">
			<feColorMatrix  type="matrix" values="1 0 0 0 0  0 1 0 0 0  0 0 1 0 0  0 0 0 1 0"/>
		</filter>
	</defs>
	<mask maskUnits="userSpaceOnUse" x="21.815" y="38.771" width="8" height="2.25" id="SVGID_24_">
		<g style="filter:url(#Adobe_OpacityMaskFilter_3_);">
			<linearGradient id="SVGID_25_" gradientUnits="userSpaceOnUse" x1="26.7186" y1="39.4184" x2="22.1738" y2="39.3773">
				<stop  offset="0" style="stop-color:#FFFFFF"/>
				<stop  offset="1" style="stop-color:#000000"/>
			</linearGradient>
			<rect x="21.61" y="37.336" style="fill:url(#SVGID_25_);" width="9.11" height="4.154"/>
		</g>
	</mask>
	<path style="mask:url(#SVGID_24_);fill:#333332;" d="M25.815,40.021c-1.858,0-3-0.729-3-1.25h-1c0,1.282,1.72,2.25,4,2.25
		s4-0.968,4-2.25h-1C28.815,39.292,27.674,40.021,25.815,40.021z"/>
	<g>
		<linearGradient id="SVGID_26_" gradientUnits="userSpaceOnUse" x1="46.9806" y1="47.0786" x2="41.425" y2="37.4559">
			<stop  offset="0" style="stop-color:#2A5B79"/>
			<stop  offset="1" style="stop-color:#84BEDC"/>
		</linearGradient>
		
			<path style="fill:url(#SVGID_26_);stroke:#053755;stroke-width:1.0914;stroke-linecap:round;stroke-linejoin:round;stroke-miterlimit:1;" d="
			M48.425,35.757C48,34.5,46.653,33.494,44.975,34c-2.128,0.641-7.475,7.15-7.475,9.321c0,2.86,2.574,5.179,5.75,5.179
			S49,46.181,49,43.321C49,42.142,48.635,36.379,48.425,35.757z"/>
		<linearGradient id="SVGID_27_" gradientUnits="userSpaceOnUse" x1="49.0465" y1="49.7684" x2="41.1084" y2="36.0194">
			<stop  offset="0" style="stop-color:#386F8D"/>
			<stop  offset="1" style="stop-color:#8DD7F4"/>
		</linearGradient>
		<path style="fill:url(#SVGID_27_);stroke:#053755;stroke-linecap:round;stroke-linejoin:round;stroke-miterlimit:1;" d="
			M49,37.196c-0.617-1.696-1.906-1.935-3-1.696c-1.889,0.412-6.5,6.904-6.5,9c0,2.761,2.239,5,5,5s5-2.239,5-5
			C49.5,43.361,49.21,37.774,49,37.196z"/>
	</g>
	<g>
		<linearGradient id="SVGID_28_" gradientUnits="userSpaceOnUse" x1="47.2312" y1="41.4111" x2="43.6421" y2="45.7661">
			<stop  offset="0" style="stop-color:#D2D3D3"/>
			<stop  offset="0.2801" style="stop-color:#F5F6F6"/>
			<stop  offset="0.4369" style="stop-color:#EFF0F0"/>
			<stop  offset="0.6428" style="stop-color:#DFE0E0"/>
			<stop  offset="0.875" style="stop-color:#C4C5C5"/>
			<stop  offset="1" style="stop-color:#B3B3B3"/>
		</linearGradient>
		
			<path style="fill:url(#SVGID_28_);stroke:#333332;stroke-width:1.0109;stroke-linecap:round;stroke-linejoin:round;stroke-miterlimit:1;" d="
			M46.939,40.08c-0.153-0.137-0.322-0.258-0.509-0.357c-1.464-0.777-3.401,0.008-4.326,1.753c-0.833,1.57-0.556,3.374,0.573,4.287
			l3.642,3.046l4.304-5.461L46.939,40.08z"/>
		
			<linearGradient id="SVGID_29_" gradientUnits="userSpaceOnUse" x1="47.1756" y1="40.2173" x2="49.9894" y2="45.0909" gradientTransform="matrix(0.8833 0.4687 -0.4687 0.8833 25.4645 -14.3191)">
			<stop  offset="0" style="stop-color:#F5F6F6"/>
			<stop  offset="0.9921" style="stop-color:#D2D3D3"/>
		</linearGradient>
		<path style="fill:url(#SVGID_29_);stroke:#333332;stroke-linecap:round;stroke-linejoin:round;stroke-miterlimit:1;" d="
			M51.032,47.406c-0.906,1.708-2.827,2.462-4.291,1.686c-1.464-0.777-1.916-2.79-1.01-4.498c0.906-1.708,2.827-2.462,4.291-1.686
			C51.487,43.685,51.939,45.699,51.032,47.406z"/>
	</g>
	<g>
		<linearGradient id="SVGID_30_" gradientUnits="userSpaceOnUse" x1="24.9319" y1="10.9028" x2="26.8523" y2="14.2289">
			<stop  offset="0" style="stop-color:#E6E6E6"/>
			<stop  offset="1" style="stop-color:#B3B3B3"/>
		</linearGradient>
		
			<path style="fill:url(#SVGID_30_);stroke:#333332;stroke-width:1.1318;stroke-linecap:round;stroke-linejoin:round;stroke-miterlimit:1;" d="
			M28.454,11.603c-0.307,0-0.28-0.257-0.623-0.257l-3.739,0.06c-0.343,0-0.423-0.003-0.623,0.197v1.923c0,0.025,0,0.113,0,0.136
			c0,0.531,1.116,0.961,2.492,0.961c0.001,0,0.002,0,0.003,0c0.001,0,0.002,0,0.003,0c1.373,0,2.486-0.426,2.486-0.95
			c0-0.002-0.001-0.003-0.001-0.005s0.001-0.004,0.001-0.005c0-0.023,0-0.111,0-0.136V11.603z"/>
		<linearGradient id="SVGID_31_" gradientUnits="userSpaceOnUse" x1="25.2598" y1="10.3881" x2="26.5282" y2="12.585">
			<stop  offset="0" style="stop-color:#E6E6E6"/>
			<stop  offset="1" style="stop-color:#CCCCCC"/>
		</linearGradient>
		
			<ellipse style="fill:url(#SVGID_31_);stroke:#333332;stroke-width:1.1318;stroke-linecap:round;stroke-linejoin:round;stroke-miterlimit:1;" cx="25.961" cy="11.603" rx="2.492" ry="0.98"/>
	</g>
</g>
</svg>
