<?xml version="1.0" encoding="iso-8859-1"?>
<!-- Generator: Adobe Illustrator 23.1.0, SVG Export Plug-In . SVG Version: 6.00 Build 0)  -->
<svg version="1.1" xmlns="http://www.w3.org/2000/svg" xmlns:xlink="http://www.w3.org/1999/xlink" x="0px" y="0px"
	 viewBox="0 0 64 64" style="enable-background:new 0 0 64 64;" xml:space="preserve">
<pattern  width="20" height="20" patternUnits="userSpaceOnUse" id="New_Pattern_Swatch_2" viewBox="22.121 -42.121 20 20" style="overflow:visible;">
	<g>
		<rect x="22.121" y="-42.121" style="fill:none;" width="20" height="20"/>
		
			<rect x="49.121" y="-26.263" transform="matrix(0.7071 -0.7071 0.7071 0.7071 23.837 33.3051)" style="fill:#844138;" width="6" height="28.284"/>
		
			<rect x="29.121" y="-26.263" transform="matrix(0.7071 -0.7071 0.7071 0.7071 17.9792 19.163)" style="fill:#844138;" width="6" height="28.284"/>
		
			<rect x="9.121" y="-26.263" transform="matrix(0.7071 -0.7071 0.7071 0.7071 12.1213 5.0208)" style="fill:#844138;" width="6" height="28.284"/>
		
			<rect x="49.121" y="-46.263" transform="matrix(0.7071 -0.7071 0.7071 0.7071 37.9792 27.4472)" style="fill:#844138;" width="6" height="28.284"/>
		
			<rect x="29.121" y="-46.263" transform="matrix(0.7071 -0.7071 0.7071 0.7071 32.1213 13.3051)" style="fill:#844138;" width="6" height="28.284"/>
		
			<rect x="9.121" y="-46.263" transform="matrix(0.7071 -0.7071 0.7071 0.7071 26.2635 -0.837)" style="fill:#844138;" width="6" height="28.284"/>
		
			<rect x="49.121" y="-66.263" transform="matrix(0.7071 -0.7071 0.7071 0.7071 52.1213 21.5894)" style="fill:#844138;" width="6" height="28.284"/>
		
			<rect x="29.121" y="-66.263" transform="matrix(0.7071 -0.7071 0.7071 0.7071 46.2635 7.4472)" style="fill:#844138;" width="6" height="28.284"/>
		
			<rect x="9.121" y="-66.263" transform="matrix(0.7071 -0.7071 0.7071 0.7071 40.4056 -6.6949)" style="fill:#844138;" width="6" height="28.284"/>
	</g>
</pattern>
<g id="Layer_1" style="display:none;">
</g>
<g id="info_r2021x" style="display:none;">
	<g id="pedestal_r2021x" style="display:inline;">
		<path style="opacity:0.5;fill:#FFFFFF;" d="M63.002,64h-62c-0.552,0-1-0.448-1-1V1c0-0.552,0.448-1,1-1h62c0.552,0,1,0.448,1,1v62
			C64.002,63.552,63.554,64,63.002,64z"/>
		<rect x="1.002" y="1" style="fill:#F4F5F6;" width="62" height="62"/>
		<rect x="1.002" y="1" style="fill:#D1D4D4;" width="2" height="62"/>
	</g>
	<g id="no-go_zone_1_" style="display:inline;opacity:0.3;">
		<path style="fill:url(#New_Pattern_Swatch_2);" d="M0,0v64h64V0H0z M57,57H7V7h50V57z"/>
	</g>
	<g style="display:inline;">
		<path style="fill:#EA4F37;" d="M57,7v50H7V7H57 M58,6h-1H7H6v1v50v1h1h50h1v-1V7V6L58,6z"/>
	</g>
</g>
<g id="Notes" style="display:none;">
</g>
<g id="vector_references" style="display:none;">
</g>
<g id="PNG_references" style="display:none;">
	
		<image style="display:inline;overflow:visible;" width="64" height="64" xlink:href="../../../../Graphics/DSMotion/AppIcons/CATMotionDesign/PNG/CATMDE_AP_AppIcon.png"  transform="matrix(1 0 0 1 0 8.0303)">
	</image>
</g>
<g id="Work">
	<g>
		<linearGradient id="SVGID_1_" gradientUnits="userSpaceOnUse" x1="39.9073" y1="24.8746" x2="43.6927" y2="31.4311">
			<stop  offset="0" style="stop-color:#ABABAB"/>
			<stop  offset="1" style="stop-color:#5B5B5B"/>
		</linearGradient>
		
			<circle style="fill:url(#SVGID_1_);stroke:#333332;stroke-linecap:round;stroke-linejoin:round;stroke-miterlimit:1;" cx="42" cy="28.5" r="4.5"/>
		<linearGradient id="SVGID_2_" gradientUnits="userSpaceOnUse" x1="42.2156" y1="25.9086" x2="45.9594" y2="32.3931">
			<stop  offset="0" style="stop-color:#F5F6F6"/>
			<stop  offset="0.9921" style="stop-color:#D2D3D3"/>
		</linearGradient>
		
			<circle style="fill:url(#SVGID_2_);stroke:#333332;stroke-linecap:round;stroke-linejoin:round;stroke-miterlimit:1;" cx="44" cy="29" r="4.5"/>
	</g>
	
		<radialGradient id="SVGID_3_" cx="18.5576" cy="50.2103" r="4.9882" gradientTransform="matrix(1.0272 0 0 0.9325 -0.3946 3.3531)" gradientUnits="userSpaceOnUse">
		<stop  offset="0" style="stop-color:#8DD7F4"/>
		<stop  offset="1" style="stop-color:#386F8D"/>
	</radialGradient>
	
		<path style="fill:url(#SVGID_3_);stroke:#053755;stroke-width:0.9787;stroke-linecap:round;stroke-linejoin:round;stroke-miterlimit:1;" d="
		M19.919,53.5c2.38,0,4.357-0.52,5.542-1.421c0-1.973-2.816-3.579-5.542-3.579s-5.458,1.571-5.458,3.533
		C15.647,52.933,17.539,53.5,19.919,53.5z"/>
	
		<line style="fill:none;stroke:#323232;stroke-width:2;stroke-linecap:round;stroke-miterlimit:10;" x1="19.962" y1="45.5" x2="19.962" y2="49.5"/>
	<g>
		<g>
			<g>
				
					<linearGradient id="SVGID_4_" gradientUnits="userSpaceOnUse" x1="-29.1898" y1="44.9883" x2="-32.4594" y2="39.3251" gradientTransform="matrix(1 0 0 1 51.0004 1)">
					<stop  offset="0" style="stop-color:#2A5B79"/>
					<stop  offset="1" style="stop-color:#84BEDC"/>
				</linearGradient>
				<path style="fill:url(#SVGID_4_);" d="M19.962,43.521c-2.485,0-4.5-0.757-4.5-2v2.5h0.05c0.252,1.123,2.136,2,4.45,2
					s4.198-0.877,4.45-2h0.05v-2.5C24.462,42.763,22.447,43.521,19.962,43.521z"/>
			</g>
			
				<linearGradient id="SVGID_5_" gradientUnits="userSpaceOnUse" x1="-29.1898" y1="44.9883" x2="-32.4594" y2="39.3251" gradientTransform="matrix(1 0 0 1 51.0004 1)">
				<stop  offset="0" style="stop-color:#2A5B79"/>
				<stop  offset="1" style="stop-color:#84BEDC"/>
			</linearGradient>
			<ellipse style="fill:url(#SVGID_5_);" cx="19.962" cy="41.771" rx="4.5" ry="1.75"/>
		</g>
		<g>
			<g>
				<linearGradient id="SVGID_6_" gradientUnits="userSpaceOnUse" x1="22.4148" y1="47.0348" x2="17.7189" y2="38.9012">
					<stop  offset="0" style="stop-color:#386F8D"/>
					<stop  offset="1" style="stop-color:#8DD7F4"/>
				</linearGradient>
				<path style="fill:url(#SVGID_6_);stroke:#053755;stroke-linecap:round;stroke-linejoin:round;stroke-miterlimit:1;" d="
					M19.962,43.521c-2.485,0-4.5-0.757-4.5-2v2.5h0.05c0.252,1.123,2.136,2,4.45,2s4.198-0.877,4.45-2h0.05v-2.5
					C24.462,42.763,22.447,43.521,19.962,43.521z"/>
			</g>
			<linearGradient id="SVGID_7_" gradientUnits="userSpaceOnUse" x1="21.1975" y1="43.9113" x2="18.9191" y2="39.965">
				<stop  offset="0" style="stop-color:#74C4E2"/>
				<stop  offset="1" style="stop-color:#A4DEF6"/>
			</linearGradient>
			
				<ellipse style="fill:url(#SVGID_7_);stroke:#053755;stroke-linecap:round;stroke-linejoin:round;stroke-miterlimit:1;" cx="19.962" cy="41.771" rx="4.5" ry="1.75"/>
		</g>
		<g>
			<g>
				<path style="fill:none;stroke:#053755;stroke-linecap:round;stroke-linejoin:round;stroke-miterlimit:1;" d="M19.962,43.521
					c-2.485,0-4.5-0.757-4.5-2v2.5h0.05c0.252,1.123,2.136,2,4.45,2s4.198-0.877,4.45-2h0.05v-2.5
					C24.462,42.763,22.447,43.521,19.962,43.521z"/>
			</g>
			
				<ellipse style="fill:none;stroke:#053755;stroke-linecap:round;stroke-linejoin:round;stroke-miterlimit:1;" cx="19.962" cy="41.771" rx="4.5" ry="1.75"/>
		</g>
	</g>
	<linearGradient id="SVGID_8_" gradientUnits="userSpaceOnUse" x1="17.1424" y1="35.25" x2="22.6318" y2="35.25">
		<stop  offset="0" style="stop-color:#D2D3D3"/>
		<stop  offset="0.4186" style="stop-color:#F5F6F6"/>
		<stop  offset="0.9921" style="stop-color:#999999"/>
	</linearGradient>
	<path style="fill:url(#SVGID_8_);stroke:#333332;stroke-linecap:round;stroke-linejoin:round;stroke-miterlimit:1;" d="M16.462,28
		v13c0,0.828,1.567,1.5,3.5,1.5s3.5-0.672,3.5-1.5V28H16.462z"/>
	<g>
		<g>
			<linearGradient id="SVGID_9_" gradientUnits="userSpaceOnUse" x1="22.4148" y1="30.5142" x2="17.7189" y2="22.3806">
				<stop  offset="0" style="stop-color:#386F8D"/>
				<stop  offset="1" style="stop-color:#8DD7F4"/>
			</linearGradient>
			<path style="fill:url(#SVGID_9_);stroke:#053755;stroke-linecap:round;stroke-linejoin:round;stroke-miterlimit:1;" d="
				M19.962,27c-2.485,0-4.5-0.757-4.5-2v2.5h0.05c0.252,1.123,2.136,2,4.45,2s4.198-0.877,4.45-2h0.05V25
				C24.462,26.243,22.447,27,19.962,27z"/>
		</g>
		<linearGradient id="SVGID_10_" gradientUnits="userSpaceOnUse" x1="21.1975" y1="27.3906" x2="18.9191" y2="23.4444">
			<stop  offset="0" style="stop-color:#74C4E2"/>
			<stop  offset="1" style="stop-color:#A4DEF6"/>
		</linearGradient>
		
			<ellipse style="fill:url(#SVGID_10_);stroke:#053755;stroke-linecap:round;stroke-linejoin:round;stroke-miterlimit:1;" cx="19.962" cy="25.25" rx="4.5" ry="1.75"/>
	</g>
	
		<line style="fill:none;stroke:#323232;stroke-width:2;stroke-linecap:round;stroke-miterlimit:10;" x1="19.962" y1="21" x2="19.962" y2="24.5"/>
	<linearGradient id="SVGID_11_" gradientUnits="userSpaceOnUse" x1="34.8349" y1="22.1048" x2="26.8839" y2="8.3333">
		<stop  offset="0" style="stop-color:#74C4E2"/>
		<stop  offset="1" style="stop-color:#A4DEF6"/>
	</linearGradient>
	<path style="fill:url(#SVGID_11_);stroke:#053755;stroke-linecap:round;stroke-linejoin:round;stroke-miterlimit:1;" d="M14.416,13
		l23.5-3.5c0,0,6-0.5,8.343,3.5c3.237,5.525-0.5,1-0.5,1s-6-3.5-13-0.5s-17.843,3-17.843,3L14.416,13z"/>
	<linearGradient id="SVGID_12_" gradientUnits="userSpaceOnUse" x1="39.1808" y1="24.9777" x2="44.5411" y2="15.8652">
		<stop  offset="0" style="stop-color:#2A5B79"/>
		<stop  offset="0.4637" style="stop-color:#68A0BE"/>
		<stop  offset="1" style="stop-color:#2A5B79"/>
	</linearGradient>
	
		<path style="fill:url(#SVGID_12_);stroke:#053755;stroke-width:1.268;stroke-linecap:round;stroke-linejoin:round;stroke-miterlimit:1;" d="
		M43.197,14.312c-0.473-0.181-0.956-0.288-1.438-0.341c1.166,1.309,1.53,3.409,0.768,5.405c-1.028,2.693-3.708,4.17-5.987,3.301
		c-0.529-0.202-0.982-0.522-1.366-0.914c0.47,1.826,1.755,3.391,3.613,4.1c3.093,1.181,6.587-0.448,7.805-3.637
		S46.29,15.493,43.197,14.312z"/>
	<linearGradient id="SVGID_13_" gradientUnits="userSpaceOnUse" x1="40.879" y1="32.4848" x2="28.4878" y2="11.0227">
		<stop  offset="0" style="stop-color:#386F8D"/>
		<stop  offset="1" style="stop-color:#8DD7F4"/>
	</linearGradient>
	<path style="fill:url(#SVGID_13_);stroke:#053755;stroke-linecap:round;stroke-linejoin:round;stroke-miterlimit:1;" d="
		M50.416,22.382c-1-11.382-10-10.5-10-10.5l-23,3V21.5l9-1.118c0,0,8,7.5,11.5,7s5.5,2,6,2.5S51.336,32.854,50.416,22.382z
		 M44.55,21.65c-1.017,2.664-3.586,4.158-5.737,3.337c-2.152-0.821-3.072-3.647-2.055-6.311c1.017-2.664,3.586-4.158,5.737-3.337
		C44.647,16.161,45.567,18.986,44.55,21.65z"/>
	<linearGradient id="SVGID_14_" gradientUnits="userSpaceOnUse" x1="18.1666" y1="20.8976" x2="14.2581" y2="14.1279">
		<stop  offset="0" style="stop-color:#2A5B79"/>
		<stop  offset="1" style="stop-color:#84BEDC"/>
	</linearGradient>
	<polygon style="fill:url(#SVGID_14_);stroke:#053755;stroke-linecap:round;stroke-linejoin:round;stroke-miterlimit:1;" points="
		17.416,15 14.416,13 14.416,19 17.416,21.5 	"/>
	<g>
		<g>
			<circle style="fill:#FFFFFF;" cx="46.5" cy="26.5" r="0.5"/>
			<path style="fill:#003755;" d="M46.5,25.5c-0.552,0-1,0.448-1,1s0.448,1,1,1s1-0.448,1-1S47.053,25.5,46.5,25.5L46.5,25.5z"/>
		</g>
		<g>
			<circle style="fill:#FFFFFF;" cx="46.5" cy="26.5" r="0.5"/>
		</g>
	</g>
	<defs>
		<filter id="Adobe_OpacityMaskFilter" filterUnits="userSpaceOnUse" x="15.816" y="31.771" width="8" height="2.25">
			<feColorMatrix  type="matrix" values="1 0 0 0 0  0 1 0 0 0  0 0 1 0 0  0 0 0 1 0"/>
		</filter>
	</defs>
	<mask maskUnits="userSpaceOnUse" x="15.816" y="31.771" width="8" height="2.25" id="SVGID_15_">
		<g style="filter:url(#Adobe_OpacityMaskFilter);">
			<linearGradient id="SVGID_16_" gradientUnits="userSpaceOnUse" x1="20.719" y1="32.4183" x2="16.1742" y2="32.3772">
				<stop  offset="0" style="stop-color:#FFFFFF"/>
				<stop  offset="1" style="stop-color:#000000"/>
			</linearGradient>
			<rect x="15.61" y="30.336" style="fill:url(#SVGID_16_);" width="9.11" height="4.154"/>
		</g>
	</mask>
	<path style="mask:url(#SVGID_15_);fill:#333332;" d="M19.816,33.021c-1.858,0-3-0.729-3-1.25h-1c0,1.282,1.72,2.25,4,2.25
		s4-0.968,4-2.25h-1C22.816,32.292,21.674,33.021,19.816,33.021z"/>
	<defs>
		<filter id="Adobe_OpacityMaskFilter_1_" filterUnits="userSpaceOnUse" x="15.816" y="28.771" width="8" height="2.25">
			<feColorMatrix  type="matrix" values="1 0 0 0 0  0 1 0 0 0  0 0 1 0 0  0 0 0 1 0"/>
		</filter>
	</defs>
	<mask maskUnits="userSpaceOnUse" x="15.816" y="28.771" width="8" height="2.25" id="SVGID_17_">
		<g style="filter:url(#Adobe_OpacityMaskFilter_1_);">
			<linearGradient id="SVGID_18_" gradientUnits="userSpaceOnUse" x1="20.719" y1="29.4183" x2="16.1742" y2="29.3772">
				<stop  offset="0" style="stop-color:#FFFFFF"/>
				<stop  offset="1" style="stop-color:#000000"/>
			</linearGradient>
			<rect x="15.61" y="27.336" style="fill:url(#SVGID_18_);" width="9.11" height="4.154"/>
		</g>
	</mask>
	<path style="mask:url(#SVGID_17_);fill:#333332;" d="M19.816,30.021c-1.858,0-3-0.729-3-1.25h-1c0,1.282,1.72,2.25,4,2.25
		s4-0.968,4-2.25h-1C22.816,29.292,21.674,30.021,19.816,30.021z"/>
	<defs>
		<filter id="Adobe_OpacityMaskFilter_2_" filterUnits="userSpaceOnUse" x="15.816" y="34.771" width="8" height="2.25">
			<feColorMatrix  type="matrix" values="1 0 0 0 0  0 1 0 0 0  0 0 1 0 0  0 0 0 1 0"/>
		</filter>
	</defs>
	<mask maskUnits="userSpaceOnUse" x="15.816" y="34.771" width="8" height="2.25" id="SVGID_19_">
		<g style="filter:url(#Adobe_OpacityMaskFilter_2_);">
			<linearGradient id="SVGID_20_" gradientUnits="userSpaceOnUse" x1="20.719" y1="35.4184" x2="16.1742" y2="35.3772">
				<stop  offset="0" style="stop-color:#FFFFFF"/>
				<stop  offset="1" style="stop-color:#000000"/>
			</linearGradient>
			<rect x="15.61" y="33.336" style="fill:url(#SVGID_20_);" width="9.11" height="4.154"/>
		</g>
	</mask>
	<path style="mask:url(#SVGID_19_);fill:#333332;" d="M19.816,36.021c-1.858,0-3-0.729-3-1.25h-1c0,1.282,1.72,2.25,4,2.25
		s4-0.968,4-2.25h-1C22.816,35.292,21.674,36.021,19.816,36.021z"/>
	<defs>
		<filter id="Adobe_OpacityMaskFilter_3_" filterUnits="userSpaceOnUse" x="15.816" y="37.771" width="8" height="2.25">
			<feColorMatrix  type="matrix" values="1 0 0 0 0  0 1 0 0 0  0 0 1 0 0  0 0 0 1 0"/>
		</filter>
	</defs>
	<mask maskUnits="userSpaceOnUse" x="15.816" y="37.771" width="8" height="2.25" id="SVGID_21_">
		<g style="filter:url(#Adobe_OpacityMaskFilter_3_);">
			<linearGradient id="SVGID_22_" gradientUnits="userSpaceOnUse" x1="20.719" y1="38.4184" x2="16.1742" y2="38.3773">
				<stop  offset="0" style="stop-color:#FFFFFF"/>
				<stop  offset="1" style="stop-color:#000000"/>
			</linearGradient>
			<rect x="15.61" y="36.336" style="fill:url(#SVGID_22_);" width="9.11" height="4.154"/>
		</g>
	</mask>
	<path style="mask:url(#SVGID_21_);fill:#333332;" d="M19.816,39.021c-1.858,0-3-0.729-3-1.25h-1c0,1.282,1.72,2.25,4,2.25
		s4-0.968,4-2.25h-1C22.816,38.292,21.674,39.021,19.816,39.021z"/>
	<g>
		<linearGradient id="SVGID_23_" gradientUnits="userSpaceOnUse" x1="19.9924" y1="10.2377" x2="21.8371" y2="13.4329">
			<stop  offset="0" style="stop-color:#ABABAB"/>
			<stop  offset="1" style="stop-color:#5B5B5B"/>
		</linearGradient>
		<path style="fill:url(#SVGID_23_);stroke:#333332;stroke-linecap:round;stroke-linejoin:round;stroke-miterlimit:1;" d="
			M23,10.922c0-0.275-0.225-0.5-0.5-0.5h-3c-0.275,0-0.5,0.225-0.5,0.5v2c0,0.024,0.01,0.045,0.014,0.068
			C19.011,13.011,19,13.032,19,13.054c0,0.516,0.895,0.935,2,0.935c0.001,0,0.002,0,0.002,0s0.002,0,0.002,0
			c1.102,0,1.995-0.414,1.995-0.925c0-0.002-0.001-0.003-0.001-0.005S23,13.056,23,13.054c0-0.022-0.011-0.042-0.014-0.064
			C22.99,12.967,23,12.946,23,12.922V10.922z"/>
		<linearGradient id="SVGID_24_" gradientUnits="userSpaceOnUse" x1="20.4435" y1="9.8244" x2="21.4595" y2="11.5842">
			<stop  offset="0" style="stop-color:#ABABAB"/>
			<stop  offset="1" style="stop-color:#5B5B5B"/>
		</linearGradient>
		
			<ellipse style="fill:url(#SVGID_24_);stroke:#333332;stroke-width:0.9223;stroke-linecap:round;stroke-linejoin:round;stroke-miterlimit:1;" cx="21.005" cy="10.798" rx="1.995" ry="0.786"/>
	</g>
	<g>
		<linearGradient id="SVGID_25_" gradientUnits="userSpaceOnUse" x1="40.981" y1="46.0786" x2="35.4254" y2="36.4559">
			<stop  offset="0" style="stop-color:#2A5B79"/>
			<stop  offset="1" style="stop-color:#84BEDC"/>
		</linearGradient>
		
			<path style="fill:url(#SVGID_25_);stroke:#053755;stroke-width:1.0914;stroke-linecap:round;stroke-linejoin:round;stroke-miterlimit:1;" d="
			M42.425,34.757C42,33.5,40.654,32.494,38.975,33c-2.128,0.641-7.475,7.15-7.475,9.321c0,2.86,2.574,5.179,5.75,5.179
			S43,45.181,43,42.321C43,41.142,42.635,35.379,42.425,34.757z"/>
		<linearGradient id="SVGID_26_" gradientUnits="userSpaceOnUse" x1="43.0469" y1="48.7684" x2="35.1088" y2="35.0194">
			<stop  offset="0" style="stop-color:#386F8D"/>
			<stop  offset="1" style="stop-color:#8DD7F4"/>
		</linearGradient>
		<path style="fill:url(#SVGID_26_);stroke:#053755;stroke-linecap:round;stroke-linejoin:round;stroke-miterlimit:1;" d="
			M43,36.196c-0.617-1.696-1.906-1.935-3-1.696c-1.889,0.412-6.5,6.904-6.5,9c0,2.761,2.239,5,5,5s5-2.239,5-5
			C43.5,42.361,43.21,36.774,43,36.196z"/>
	</g>
	<g>
		<linearGradient id="SVGID_27_" gradientUnits="userSpaceOnUse" x1="41.2316" y1="40.4111" x2="37.6425" y2="44.7661">
			<stop  offset="0" style="stop-color:#D2D3D3"/>
			<stop  offset="0.2801" style="stop-color:#F5F6F6"/>
			<stop  offset="0.4369" style="stop-color:#EFF0F0"/>
			<stop  offset="0.6428" style="stop-color:#DFE0E0"/>
			<stop  offset="0.875" style="stop-color:#C4C5C5"/>
			<stop  offset="1" style="stop-color:#B3B3B3"/>
		</linearGradient>
		
			<path style="fill:url(#SVGID_27_);stroke:#333332;stroke-width:1.0109;stroke-linecap:round;stroke-linejoin:round;stroke-miterlimit:1;" d="
			M40.94,39.08c-0.153-0.137-0.322-0.258-0.509-0.357c-1.464-0.777-3.401,0.008-4.326,1.753c-0.833,1.57-0.556,3.374,0.573,4.287
			l3.642,3.046l4.304-5.461L40.94,39.08z"/>
		
			<linearGradient id="SVGID_28_" gradientUnits="userSpaceOnUse" x1="41.4071" y1="42.1461" x2="44.2209" y2="47.0197" gradientTransform="matrix(0.8833 0.4687 -0.4687 0.8833 25.4645 -14.3191)">
			<stop  offset="0" style="stop-color:#F5F6F6"/>
			<stop  offset="0.9921" style="stop-color:#D2D3D3"/>
		</linearGradient>
		<path style="fill:url(#SVGID_28_);stroke:#333332;stroke-linecap:round;stroke-linejoin:round;stroke-miterlimit:1;" d="
			M45.033,46.406c-0.906,1.708-2.827,2.462-4.291,1.686c-1.464-0.777-1.916-2.79-1.01-4.498c0.906-1.708,2.827-2.462,4.291-1.686
			C45.487,42.685,45.939,44.699,45.033,46.406z"/>
	</g>
</g>
</svg>
