<svg id="CATIA___C01_NTS_-_Natural_Sketch" data-name="CATIA _ (C01) NTS - Natural Sketch" xmlns="http://www.w3.org/2000/svg" xmlns:xlink="http://www.w3.org/1999/xlink" viewBox="0 0 64 64"><defs><style>.cls-1,.cls-12,.cls-2{stroke:#000;}.cls-1,.cls-12,.cls-2,.cls-7{stroke-linecap:round;}.cls-1,.cls-12,.cls-2,.cls-3,.cls-5,.cls-7{stroke-linejoin:round;}.cls-1{stroke-width:1.3px;fill:url(#linear-gradient);}.cls-2{stroke-width:1.2px;fill:url(#linear-gradient-2);}.cls-3,.cls-5,.cls-6{fill:none;}.cls-10,.cls-11,.cls-3{stroke:#2d2d2d;}.cls-3,.cls-6{stroke-width:0.8px;opacity:0.5;}.cls-4{fill:#fff;opacity:0.8;}.cls-5{stroke:#252525;}.cls-6{stroke:#383838;}.cls-10,.cls-11,.cls-6,.cls-8,.cls-9{stroke-miterlimit:10;}.cls-7,.cls-9{stroke:#6d6d6d;}.cls-7{fill:url(#linear-gradient-3);}.cls-8{stroke:#00415f;fill:url(#linear-gradient-4);}.cls-9{fill:url(#linear-gradient-5);}.cls-10{fill:url(#linear-gradient-6);}.cls-11{fill:url(#linear-gradient-7);}</style><linearGradient id="linear-gradient" x1="15.06" y1="38.51" x2="91.39" y2="57.87" gradientUnits="userSpaceOnUse"><stop offset="0.01" stop-color="#f5f5f5"/><stop offset="0.24" stop-color="#f2f2f2"/><stop offset="0.41" stop-color="#e9e9e9"/><stop offset="0.56" stop-color="#d9d9d9"/><stop offset="0.7" stop-color="#c2c2c2"/><stop offset="0.83" stop-color="#a5a5a5"/><stop offset="0.96" stop-color="#818181"/><stop offset="1" stop-color="#737373"/></linearGradient><linearGradient id="linear-gradient-2" x1="8.24" y1="16.67" x2="61.68" y2="34.33" xlink:href="#linear-gradient"/><linearGradient id="linear-gradient-3" x1="29.72" y1="34.74" x2="34.36" y2="36.32" gradientUnits="userSpaceOnUse"><stop offset="0" stop-color="#fff"/><stop offset="0.5" stop-color="#c4c4c4"/><stop offset="0.9" stop-color="#575757"/></linearGradient><linearGradient id="linear-gradient-4" x1="36.51" y1="23.49" x2="41.45" y2="27.05" gradientUnits="userSpaceOnUse"><stop offset="0" stop-color="#93d2f0"/><stop offset="0.5" stop-color="#5a9cb5"/><stop offset="0.9" stop-color="#195a72"/></linearGradient><linearGradient id="linear-gradient-5" x1="44.53" y1="22.98" x2="39.42" y2="19.51" gradientUnits="userSpaceOnUse"><stop offset="0.1" stop-color="#575757"/><stop offset="0.5" stop-color="#c4c4c4"/><stop offset="1" stop-color="#fff"/></linearGradient><linearGradient id="linear-gradient-6" x1="99.2" y1="-61.59" x2="105.76" y2="-61.59" gradientTransform="matrix(0.99, 0.01, 0.01, 0.99, -57.08, 78.48)" gradientUnits="userSpaceOnUse"><stop offset="0" stop-color="#505050"/><stop offset="0.9" stop-color="#2d2d2d"/></linearGradient><linearGradient id="linear-gradient-7" x1="100.75" y1="-62.98" x2="105.77" y2="-62.98" xlink:href="#linear-gradient-6"/></defs><title>CATIA _ (C01) NTS - Natural Sketch</title><polygon class="cls-1" points="12 39.74 22.76 54.6 57 43 42.03 31.22 12 39.74"/><polygon class="cls-2" points="8.3 16.5 11.15 35.23 40.94 26.95 41.28 10 8.3 16.5"/><path class="cls-3" d="M10.75,19.82c2.31.08,5.9-1.25,9.57-1.44a43.07,43.07,0,0,1,8.68.74c4.09.48,5.26,0,9.25-.47"/><path class="cls-3" d="M12.25,20.82c5.41,3.37,6.35,6.39,14.5,5.12,8.58-1.33,9.5-5.46,10.5-7.33"/><path class="cls-3" d="M22.87,44.25c6.26-4.73,12.28-11.32,20.75-8"/><path class="cls-3" d="M48,40c.2,5.47-6.23,5.78-11.13,6.15C31.27,46.58,26,45.6,21,48"/><path class="cls-4" d="M16.18,42.66c2.75.9,5.67.88,8.37,1.8s6.58.66,9.44.09c2.49-.5,4.24-1.81,6.18-3.24a53.08,53.08,0,0,0,5.25-4.46s0-.05.06-.07C48.53,34.91,50,31.81,50,31s-2-2.27-7.21-3.85-9-.63-10.68-.63-4.79.57-10,4.29-8.22,11-8.22,11c.44.63,1,.44,1.76.25Z"/><path class="cls-5" d="M48.1,32.5a15.67,15.67,0,0,1-3.39,4.44,48.53,48.53,0,0,1-4.91,4.17,14.21,14.21,0,0,1-5.79,3c-2.67.53-6.2.8-8.83-.09s-5.25-.84-7.83-1.68"/><path class="cls-5" d="M13.87,42.1c.44.63,1,.44,1.78.25s4.51-1,9-1.67c7.12-1.15,15.67-.93,20.3-3.16C48.65,35.74,50,32.05,50,31.16s-1.7-2.22-7-3.81-9.07-.63-10.79-.63-4.83.56-10.1,4.32S13.87,42.1,13.87,42.1Z"/><path class="cls-6" d="M29.44,38c4.58-.34,10.65-.75,12.76-1.58,2.78-1.11,4.72-2.88,4.72-4.51s-7.11-3.49-7.11-3.49-5.66,0-7.36.22"/><polygon class="cls-7" points="31.01 32.3 29.94 37.69 34.83 35 31.01 32.3"/><path class="cls-8" d="M35,34.83c-.38.52-1.77.32-2.79-.42s-1.53-1.77-1.15-2.29L42.39,15.55c.48-.66,1.94-.43,3.25.53s2.13,2.47,1.64,3.14Z"/><path class="cls-9" d="M39.28,20.16c-.47.65.2,1.94,1.5,2.9s2.74,1.2,3.21.55l1.66-2.27L40.79,17.8Z"/><path class="cls-10" d="M40.92,18c-.47.64.19,1.94,1.49,2.9s2.74,1.2,3.22.55l1.65-2.27-4.85-3.54Z"/><path class="cls-11" d="M43.92,18.58c-1.3-1-2-2.25-1.49-2.9s1.91-.4,3.21.55,2,2.25,1.49,2.9S45.22,19.53,43.92,18.58Z"/><path class="cls-12" d="M30.22,36.29a1,1,0,0,0,.83.79s-.88.73-1.08.61S30.22,36.29,30.22,36.29Z"/></svg>