<svg id="Layer_4" data-name="Layer 4" xmlns="http://www.w3.org/2000/svg" xmlns:xlink="http://www.w3.org/1999/xlink" viewBox="0 0 64 64"><defs><linearGradient id="linear-gradient" x1="45.56" y1="18.91" x2="24.37" y2="52.22" gradientUnits="userSpaceOnUse"><stop offset="0.04" stop-color="#8dd7f4"/><stop offset="0.06" stop-color="#84cce9"/><stop offset="0.13" stop-color="#63a4c1"/><stop offset="0.2" stop-color="#4c87a5"/><stop offset="0.25" stop-color="#3d7593"/><stop offset="0.3" stop-color="#386f8d"/><stop offset="0.33" stop-color="#407997"/><stop offset="0.4" stop-color="#5693b1"/><stop offset="0.48" stop-color="#78bedb"/><stop offset="0.52" stop-color="#8dd7f4"/><stop offset="0.74" stop-color="#8dd7f4"/><stop offset="0.74" stop-color="#8dd7f4"/><stop offset="0.86" stop-color="#5f9fbc"/><stop offset="0.95" stop-color="#437c9a"/><stop offset="1" stop-color="#386f8d"/></linearGradient><linearGradient id="linear-gradient-2" x1="14.24" y1="11.76" x2="23.77" y2="28.25" gradientUnits="userSpaceOnUse"><stop offset="0" stop-color="#f5f6f6"/><stop offset="0.99" stop-color="#d2d3d3"/></linearGradient><linearGradient id="linear-gradient-5" x1="19.41" y1="19.78" x2="26.46" y2="32" gradientUnits="userSpaceOnUse"><stop offset="0" stop-color="#f5f6f6"/><stop offset="0.99" stop-color="#bfbebe"/></linearGradient><linearGradient id="linear-gradient-6" x1="26.07" y1="20.93" x2="19.76" y2="30.84" xlink:href="#linear-gradient"/></defs><title>CATPTS_AP_AppIcon</title><path d="M12.5,40.5l13,14s5.5-11,18-14a22.68,22.68,0,0,0,16-14L42,18s-2.5,9-11.5,11.5C22.18,31.81,15,36.5,12.5,40.5Z" stroke="#053755" stroke-linecap="round" stroke-linejoin="round" fill="url(#linear-gradient)"/><polygon points="6.5 31.5 6.5 13.5 31.5 8.5 31.5 25.5 6.5 31.5" stroke="#333332" stroke-linecap="round" stroke-linejoin="round" fill="url(#linear-gradient-2)"/><polygon points="8.5 34.5 8.5 16.5 33.5 11.5 33.5 28.5 8.5 34.5" stroke="#333332" stroke-linecap="round" stroke-linejoin="round" fill="url(#linear-gradient-2)"/><polygon points="10.5 37.5 10.5 19.5 35.5 14.5 35.5 31.5 10.5 37.5" stroke="#333332" stroke-linecap="round" stroke-linejoin="round" fill="url(#linear-gradient-2)"/><polygon points="12.5 34.5 12.5 21.5 33.5 17.5 33.5 29.5 12.5 34.5" stroke="#797979" stroke-linecap="round" stroke-linejoin="round" fill="url(#linear-gradient-5)"/><path d="M14.5,27.5l4,3a39.7,39.7,0,0,1,7-2.5,12.07,12.07,0,0,0,6-4l-4-2.5a14.25,14.25,0,0,1-5,3C20.11,25.16,15.22,26.35,14.5,27.5Z" stroke="#053755" stroke-linecap="round" stroke-linejoin="round" fill="url(#linear-gradient-6)"/></svg>