<svg xmlns="http://www.w3.org/2000/svg" xmlns:xlink="http://www.w3.org/1999/xlink" viewBox="0 0 64 64"><defs><linearGradient id="linear-gradient" x1="18.65" y1="10.04" x2="36.17" y2="40.37" gradientUnits="userSpaceOnUse"><stop offset="0" stop-color="#f5f6f6"/><stop offset="0.99" stop-color="#d2d3d3"/></linearGradient><linearGradient id="linear-gradient-2" x1="31.58" y1="20.11" x2="22.6" y2="4.56" gradientUnits="userSpaceOnUse"><stop offset="0" stop-color="#386f8d"/><stop offset="1" stop-color="#8dd7f4"/></linearGradient><linearGradient id="linear-gradient-3" x1="42.46" y1="-37.43" x2="55.38" y2="-15.05" gradientTransform="translate(-3.76 26.09) rotate(45)" gradientUnits="userSpaceOnUse"><stop offset="0" stop-color="#ef4623"/><stop offset="1" stop-color="#c02026"/></linearGradient><linearGradient id="linear-gradient-4" x1="14.99" y1="32.73" x2="28.64" y2="56.37" xlink:href="#linear-gradient"/><linearGradient id="linear-gradient-5" x1="17.3" y1="42.61" x2="13.98" y2="36.87" gradientUnits="userSpaceOnUse"><stop offset="0" stop-color="#74c4e2"/><stop offset="1" stop-color="#a4def6"/></linearGradient><linearGradient id="linear-gradient-6" x1="27.61" y1="36.6" x2="30.52" y2="41.64" xlink:href="#linear-gradient"/><linearGradient id="linear-gradient-7" x1="26.67" y1="45.42" x2="31.01" y2="52.95" xlink:href="#linear-gradient"/></defs><title>CATPRA_APP_AppIcon</title><g id="Layer_8" data-name="Layer 8"><rect x="10.5" y="9.5" width="33" height="30" rx="0.5" fill="url(#linear-gradient)"/><path d="M43,10V39H11V10H43m0-1H11a1,1,0,0,0-1,1V39a1,1,0,0,0,1,1H43a1,1,0,0,0,1-1V10a1,1,0,0,0-1-1Z" fill="#333332"/><path d="M10.5,14.5V10a.5.5,0,0,1,.5-.5H43a.5.5,0,0,1,.5.5v4.5Z" fill="url(#linear-gradient-2)"/><path d="M43,10v4H11V10H43m0-1H11a1,1,0,0,0-1,1v5H44V10a1,1,0,0,0-1-1Z" fill="#053755"/><rect x="21" y="15" width="1" height="24" fill="#787878"/><rect x="32" y="15" width="1" height="23.85" fill="#787878"/><rect x="26.5" y="15.5" width="1" height="32" transform="translate(-4.5 58.5) rotate(-90)" fill="#787878"/><rect x="26.5" y="6.5" width="1" height="32" transform="translate(4.5 49.5) rotate(-90)" fill="#787878"/><path d="M34.55,51.5a.85.85,0,0,1-.74-.43.86.86,0,0,1,0-.85L46.17,28.54a.84.84,0,0,1,.74-.43.86.86,0,0,1,.74.42L60.38,50.21a.86.86,0,0,1-.74,1.29Z" fill="url(#linear-gradient-3)"/><path d="M46.91,28.61a.36.36,0,0,1,.31.18L60,50.47a.33.33,0,0,1,0,.35.34.34,0,0,1-.31.18H34.55a.34.34,0,0,1-.31-.18.38.38,0,0,1,0-.35L46.6,28.79a.37.37,0,0,1,.31-.18m0-1a1.33,1.33,0,0,0-1.17.69L33.37,50a1.35,1.35,0,0,0,1.18,2H59.64a1.35,1.35,0,0,0,1.17-2L48.08,28.28a1.35,1.35,0,0,0-1.17-.67Z" fill="#821a18"/><polygon points="48 44 46 44 45 35 49 35 48 44" fill="#fff"/><circle cx="47" cy="47" r="2" fill="#fff"/><rect x="6.5" y="33.5" width="30" height="21" rx="0.5" fill="url(#linear-gradient-4)"/><path d="M36,34V54H7V34H36m0-1H7a1,1,0,0,0-1,1V54a1,1,0,0,0,1,1H36a1,1,0,0,0,1-1V34a1,1,0,0,0-1-1Z" fill="#333332"/><ellipse cx="15.5" cy="39.5" rx="6" ry="3" fill="url(#linear-gradient-5)"/><path d="M15.5,37c3.15,0,5.5,1.32,5.5,2.5S18.65,42,15.5,42,10,40.68,10,39.5,12.35,37,15.5,37m0-1C11.91,36,9,37.57,9,39.5S11.91,43,15.5,43,22,41.43,22,39.5,19.09,36,15.5,36Z" fill="#053755"/><polyline points="14.5 43 14.5 47 25 48" fill="none" stroke="#053755" stroke-linecap="round" stroke-linejoin="round"/><circle cx="29" cy="39" r="3.5" fill="url(#linear-gradient-6)"/><path d="M29,36a3,3,0,1,1-3,3,3,3,0,0,1,3-3m0-1a4,4,0,1,0,4,4,4,4,0,0,0-4-4Z" fill="#333332"/><path d="M25,52.5a.5.5,0,0,1-.5-.5V48.21a4.65,4.65,0,0,1,4.06-4.69l.44,0A4.51,4.51,0,0,1,33.5,48v4a.5.5,0,0,1-.5.5Z" fill="url(#linear-gradient-7)"/><path d="M29,44a4,4,0,0,1,4,4v4H25V48.21A4.14,4.14,0,0,1,28.6,44l.4,0m0-1-.49,0A5.15,5.15,0,0,0,24,48.21V52a1,1,0,0,0,1,1h8a1,1,0,0,0,1-1V48a5,5,0,0,0-5-5Z" fill="#333332"/></g></svg>