<svg id="CATIA___I02_PIPb_-_Piping_Tubing_3D_Part_Design" data-name="CATIA _ (I02) PIPb - Piping &amp; Tubing 3D Part Design" xmlns="http://www.w3.org/2000/svg" xmlns:xlink="http://www.w3.org/1999/xlink" viewBox="0 0 64 64"><defs><style>.cls-1{fill:url(#linear-gradient);}.cls-2{fill:url(#linear-gradient-2);}.cls-3{fill:url(#linear-gradient-3);}.cls-4{fill:#797979;}.cls-5{fill:none;stroke:#333332;stroke-linecap:round;stroke-linejoin:round;}</style><linearGradient id="linear-gradient" x1="35.63" y1="18.4" x2="37.35" y2="30.59" gradientUnits="userSpaceOnUse"><stop offset="0.5" stop-color="#fff"/><stop offset="0.82" stop-color="#bebfbf"/></linearGradient><linearGradient id="linear-gradient-2" x1="19.36" y1="35.4" x2="29.81" y2="27.53" gradientUnits="userSpaceOnUse"><stop offset="0.35" stop-color="#afb0b0"/><stop offset="0.44" stop-color="#c7c8c8"/><stop offset="0.57" stop-color="#e6e6e6"/><stop offset="0.68" stop-color="#f8f8f8"/><stop offset="0.76" stop-color="#fff"/></linearGradient><linearGradient id="linear-gradient-3" x1="33.33" y1="46.48" x2="31.69" y2="37.19" gradientUnits="userSpaceOnUse"><stop offset="0" stop-color="#f5f6f6"/><stop offset="0.01" stop-color="#f4f5f5"/><stop offset="0.27" stop-color="#cdcdcd"/><stop offset="0.51" stop-color="#b0b0b0"/><stop offset="0.72" stop-color="#9f9e9e"/><stop offset="0.87" stop-color="#999898"/></linearGradient></defs><title>CATIA _ (I02) PIPb - Piping &amp;amp; Tubing 3D Part Design</title><path class="cls-1" d="M22.5,23.5s18-4,23-5,6,8,3,9c-3.91,1.3-23,6-23,6Z"/><path class="cls-2" d="M36.5,37.5a6,6,0,0,1-1,8c-1.28,1.28-6,4-9-2-4.6-9.21-8.89-15.81-12-21-3-5,3-11,8-4C28,26.18,36.5,37.5,36.5,37.5Z"/><path class="cls-3" d="M31.45,48.07a4.13,4.13,0,0,1-3.25-1.51,5.53,5.53,0,0,1-1-4.6c.64-3.29,3.51-6,6.41-6a4.12,4.12,0,0,1,3.25,1.5,5.56,5.56,0,0,1,1,4.61C37.22,45.39,34.34,48.07,31.45,48.07Z"/><path class="cls-4" d="M33.64,36.4c2.72,0,4.43,2.52,3.82,5.63s-3.3,5.64-6,5.64S27,45.14,27.62,42s3.3-5.63,6-5.63m0-.8c-3.08,0-6.13,2.82-6.8,6.28a5.91,5.91,0,0,0,1.05,4.94,4.54,4.54,0,0,0,3.56,1.65c3.07,0,6.12-2.82,6.8-6.28a5.93,5.93,0,0,0-1.06-4.94,4.47,4.47,0,0,0-3.55-1.65Z"/><path class="cls-5" d="M45.5,18.5c-3.7.74-14.51,3.12-19.89,4.31-1.09-1.49-2.15-3-3.11-4.31-1.77-2.48-3.15-3.4-5.26-3.17-2.86.32-4.68,3.94-2.74,7.17,3.11,5.19,7.35,12.81,12,22,2.93,5.78,7.71,3.28,9,2,3.65-3.61,2.48-6.78,2-8-.82-2.08-3-4-5.25-6.68,5.9-1.48,13.87-3.53,16.25-4.32C51.5,26.5,50.5,17.5,45.5,18.5Z"/></svg>