<svg xmlns="http://www.w3.org/2000/svg" xmlns:xlink="http://www.w3.org/1999/xlink" viewBox="0 0 64 64"><defs><linearGradient id="a" x1="10.44" y1="29.96" x2="20.3" y2="47.04" gradientUnits="userSpaceOnUse"><stop offset="0" stop-color="#8cd7f5"/><stop offset="1" stop-color="#376e8c"/></linearGradient><linearGradient id="b" x1="13.5" y1="32.13" x2="13.5" y2="45.22" gradientUnits="userSpaceOnUse"><stop offset="0" stop-color="#fff" stop-opacity="0"/><stop offset="0.41" stop-color="#fff"/><stop offset="1" stop-color="#fff" stop-opacity="0"/></linearGradient><linearGradient id="c" x1="19.7" y1="22.96" x2="33.03" y2="46.04" xlink:href="#a"/><linearGradient id="d" x1="24.5" y1="24.2" x2="24.5" y2="44.77" xlink:href="#b"/><linearGradient id="e" x1="32.44" y1="29.96" x2="42.3" y2="47.04" xlink:href="#a"/><linearGradient id="f" x1="35.5" y1="32.13" x2="35.5" y2="45.22" xlink:href="#b"/><linearGradient id="g" x1="40.19" y1="16.83" x2="56.54" y2="45.16" xlink:href="#a"/><linearGradient id="h" x1="46.5" y1="16.27" x2="46.5" y2="44.33" xlink:href="#b"/><linearGradient id="i" x1="25.23" y1="37.35" x2="38.77" y2="60.8" gradientUnits="userSpaceOnUse"><stop offset="0" stop-color="#aaa"/><stop offset="1" stop-color="#5a5a5a"/></linearGradient><linearGradient id="j" x1="21.5" y1="48.43" x2="21.5" y2="93.32" gradientTransform="translate(10.5 -23.5)" xlink:href="#b"/></defs><path d="M13.5,28.5h4a2,2,0,0,1,2,2v17a0,0,0,0,1,0,0h-8a0,0,0,0,1,0,0v-17A2,2,0,0,1,13.5,28.5Z" stroke="#003755" stroke-linejoin="round" fill="url(#a)"/><path d="M17.5,29h-4A1.5,1.5,0,0,0,12,30.5v1A1.5,1.5,0,0,1,13.5,30h4A1.5,1.5,0,0,1,19,31.5v-1A1.5,1.5,0,0,0,17.5,29Z" fill="#fff" opacity="0.3"/><rect x="13" y="32" width="1" height="14" opacity="0.3" fill="url(#b)"/><path d="M24.5,20.5h4a2,2,0,0,1,2,2v25a0,0,0,0,1,0,0h-8a0,0,0,0,1,0,0v-25A2,2,0,0,1,24.5,20.5Z" stroke="#003755" stroke-linejoin="round" fill="url(#c)"/><path d="M28.5,21h-4A1.5,1.5,0,0,0,23,22.5v1A1.5,1.5,0,0,1,24.5,22h4A1.5,1.5,0,0,1,30,23.5v-1A1.5,1.5,0,0,0,28.5,21Z" fill="#fff" opacity="0.3"/><rect x="24" y="24" width="1" height="22" opacity="0.3" fill="url(#d)"/><path d="M35.5,28.5h4a2,2,0,0,1,2,2v17a0,0,0,0,1,0,0h-8a0,0,0,0,1,0,0v-17A2,2,0,0,1,35.5,28.5Z" stroke="#003755" stroke-linejoin="round" fill="url(#e)"/><path d="M39.5,29h-4A1.5,1.5,0,0,0,34,30.5v1A1.5,1.5,0,0,1,35.5,30h4A1.5,1.5,0,0,1,41,31.5v-1A1.5,1.5,0,0,0,39.5,29Z" fill="#fff" opacity="0.3"/><rect x="35" y="32" width="1" height="14" opacity="0.3" fill="url(#f)"/><path d="M46.5,13.5h4a2,2,0,0,1,2,2v32a0,0,0,0,1,0,0h-8a0,0,0,0,1,0,0v-32A2,2,0,0,1,46.5,13.5Z" stroke="#003755" stroke-linejoin="round" fill="url(#g)"/><path d="M50.5,14h-4A1.5,1.5,0,0,0,45,15.5v1A1.5,1.5,0,0,1,46.5,15h4A1.5,1.5,0,0,1,52,16.5v-1A1.5,1.5,0,0,0,50.5,14Z" fill="#fff" opacity="0.3"/><rect x="46" y="16" width="1" height="30" opacity="0.3" fill="url(#h)"/><rect x="7.5" y="47.59" width="49" height="2.97" stroke="#323232" stroke-linejoin="round" fill="url(#i)"/><rect x="31.5" y="24.5" width="1" height="48" transform="translate(80.5 16.5) rotate(90)" opacity="0.3" fill="url(#j)"/></svg>