<svg id="R_1_X_copy" data-name="R  1 X copy" xmlns="http://www.w3.org/2000/svg" xmlns:xlink="http://www.w3.org/1999/xlink" viewBox="0 0 64 64"><defs><style>.cls-1{fill:url(#linear-gradient);}.cls-2{fill:url(#linear-gradient-2);}.cls-3{fill:url(#linear-gradient-3);}.cls-21,.cls-25,.cls-28,.cls-4{fill:none;}.cls-5{clip-path:url(#clip-path);}.cls-6{fill:#fff;}.cls-7{fill:url(#top_white);}.cls-8{clip-path:url(#clip-path-2);}.cls-9{fill:url(#top_white-2);}.cls-10{clip-path:url(#clip-path-3);}.cls-11,.cls-12,.cls-28{stroke:#000;}.cls-11,.cls-12,.cls-24,.cls-28{stroke-miterlimit:10;}.cls-11{stroke-width:0.75px;}.cls-11,.cls-12{fill:url(#linear-gradient-4);}.cls-12,.cls-28{stroke-width:0.25px;}.cls-13{fill:url(#linear-gradient-6);}.cls-14{fill:url(#linear-gradient-7);}.cls-15{fill:url(#linear-gradient-8);}.cls-16{clip-path:url(#clip-path-4);}.cls-17{filter:url(#DS_GaussianBlur_2);}.cls-18{fill:url(#top_white-3);}.cls-19{clip-path:url(#clip-path-5);}.cls-20{fill:url(#top_white-4);}.cls-21{stroke:#fff;}.cls-21,.cls-23,.cls-24{stroke-width:0.15px;}.cls-22{opacity:0.5;}.cls-23{fill:url(#Nouveau_dégradé_);stroke:url(#New_Gradient_Swatch_1);}.cls-24{fill:url(#Nouveau_dégradé_2);stroke:url(#New_Gradient_Swatch_1-2);}.cls-25{stroke:#003755;stroke-width:0.1px;}.cls-26{fill:url(#radial-gradient);}.cls-27{fill:url(#linear-gradient-9);}.cls-29{mask:url(#mask);}.cls-30{fill:url(#linear-gradient-10);}.cls-31{fill:#323232;}.cls-32{mask:url(#mask-2);}.cls-33{fill:url(#linear-gradient-11);}.cls-34{fill:#831300;}.cls-35{mask:url(#mask-3);}.cls-36{clip-path:url(#clip-path-6);}</style><linearGradient id="linear-gradient" x1="-2.8" y1="40.37" x2="-2.8" y2="47.95" gradientTransform="translate(53.98 -3.89)" gradientUnits="userSpaceOnUse"><stop offset="0" stop-color="#fff"/><stop offset="0.93"/></linearGradient><linearGradient id="linear-gradient-2" x1="13.99" y1="8.7" x2="13.99" y2="16.27" gradientTransform="translate(37.17 -2.13)" xlink:href="#linear-gradient"/><linearGradient id="linear-gradient-3" x1="10.02" y1="27.31" x2="10.02" y2="34.89" gradientTransform="translate(19.91 36.19) rotate(-90)" xlink:href="#linear-gradient"/><clipPath id="clip-path"><path class="cls-4" d="M50.58,36.53c-.41,1.8-.19,3.39.48,3.54s1.55-1.18,2-3,.2-3.38-.47-3.54S51,34.74,50.58,36.53Z"/></clipPath><linearGradient id="top_white" x1="50.38" y1="36.81" x2="53.23" y2="36.81" gradientUnits="userSpaceOnUse"><stop offset="0" stop-color="#fff"/><stop offset="1" stop-color="#f0f0f0"/></linearGradient><clipPath id="clip-path-2"><path class="cls-4" d="M36.45,47.06c-.57,2.47-.27,4.64.65,4.85s2.13-1.62,2.69-4.09.27-4.64-.65-4.85S37,44.59,36.45,47.06Z"/></clipPath><linearGradient id="top_white-2" x1="36.16" y1="47.44" x2="40.08" y2="47.44" xlink:href="#top_white"/><clipPath id="clip-path-3"><path class="cls-4" d="M52.33,33.15c0-.41,0-.59-.16-.77s-.73.33-1.55,2.47a28.93,28.93,0,0,0-1.19,4.09l-9,6.69a9.09,9.09,0,0,0-.13-1.75,1.83,1.83,0,0,0-.14-.44,7.71,7.71,0,0,0,.08-2.5c-1.08-2.8-3,.8-3.53,1.69a24.53,24.53,0,0,0-2.5,7.78c-.1.72-1.33,1.28-4.14,1.79a40.35,40.35,0,0,1-13.39-.34c-6.07-1.43-8.54-4.17-9.24-5.07s-.57-1.63-.77-3c-.56-1.07-.66-3.42,0-4.39a12.38,12.38,0,0,1,5.16-5.3A66,66,0,0,1,19.4,31c1.37-.57,6.58-6.13,9.33-6.43a61.19,61.19,0,0,1,9.58-.25c8.77.66,9.15,2,10.33,2.7s1.73.44,3.46,1c1,.46,1.08,1.33,1.07,2.67,0,.78,0,2.15,0,3.24ZM21.94,31.21c1,.23,2.71.44,8.71,1.3s8.57,1.7,9.65,1.29c.51-.25.91,0,1-2.81.08-1.63.35-2.34.15-3.11-.28-1-2.67-1.33-5.82-1.48a71.3,71.3,0,0,0-7.45-.2,2.2,2.2,0,0,0-.8.35c-.43.25-.85.53-1.27.82-.86.6-1.69,1.24-2.5,1.9a18.29,18.29,0,0,0-1.81,1.66A.18.18,0,0,0,21.94,31.21Zm22.16-4.6a2.21,2.21,0,0,0-1.61,1.81c-.2,1.48-.31,5.36-.31,5.36a4.26,4.26,0,0,0,2-.51,25.15,25.15,0,0,0,3.93-2.6A2.9,2.9,0,0,0,47.34,27,3.55,3.55,0,0,0,44.1,26.61Z"/></clipPath><linearGradient id="linear-gradient-4" x1="25.6" y1="25.95" x2="34.97" y2="50.35" gradientUnits="userSpaceOnUse"><stop offset="0" stop-color="#205ca3"/><stop offset="0.17" stop-color="#205ca3"/><stop offset="0.3" stop-color="#1f599e"/><stop offset="0.44" stop-color="#1d5190"/><stop offset="0.6" stop-color="#194379"/><stop offset="0.76" stop-color="#143058"/><stop offset="0.8" stop-color="#122a4e"/><stop offset="1" stop-color="#0e1d32"/></linearGradient><linearGradient id="linear-gradient-6" x1="34.56" y1="34.69" x2="41.59" y2="44.73" gradientUnits="userSpaceOnUse"><stop offset="0" stop-color="#183e6a"/><stop offset="0.01" stop-color="#1a467a"/><stop offset="0.03" stop-color="#1d5290"/><stop offset="0.05" stop-color="#1f5a9e"/><stop offset="0.06" stop-color="#205ca3"/><stop offset="0.21" stop-color="#1f5aa0"/><stop offset="0.34" stop-color="#1e5496"/><stop offset="0.45" stop-color="#1b4a85"/><stop offset="0.55" stop-color="#173c6d"/><stop offset="0.65" stop-color="#122a4f"/><stop offset="0.66" stop-color="#122a4e"/><stop offset="1" stop-color="#0e1d32"/></linearGradient><linearGradient id="linear-gradient-7" x1="26.2" y1="40.87" x2="28.49" y2="44.83" gradientUnits="userSpaceOnUse"><stop offset="0" stop-color="#f5f5f5"/><stop offset="1" stop-color="#bebebe"/></linearGradient><linearGradient id="linear-gradient-8" x1="8.63" y1="37.24" x2="10.04" y2="39.69" xlink:href="#linear-gradient-7"/><clipPath id="clip-path-4"><path class="cls-4" d="M31.47,41.43c.66,1.74-1.14,2.55-3.47,3.13-2.2.34-4.4.71-4.8-.33s1.11-2.58,3.36-3.43S31.07,40.39,31.47,41.43Z"/></clipPath><filter id="DS_GaussianBlur_2" x="-50" y="-50" width="200" height="200" name="DS_GaussianBlur_2"><feGaussianBlur stdDeviation="1"/></filter><linearGradient id="top_white-3" x1="25.64" y1="41.76" x2="31.2" y2="41.76" gradientTransform="matrix(1.25, -0.08, -0.08, 1.08, -5.06, -0.04)" xlink:href="#top_white"/><clipPath id="clip-path-5"><path class="cls-4" d="M8.51,37.81c-.93,1.14-1.39,2.37-.93,2.75s1.63-.19,2.56-1.32c.71-.87,2.09-2.7.56-2.81C9.89,36.33,9.43,36.69,8.51,37.81Z"/></clipPath><linearGradient id="top_white-4" x1="5.18" y1="41.48" x2="8.71" y2="41.48" gradientTransform="matrix(0.88, 0.15, 0.15, 0.82, -2.52, 3.04)" xlink:href="#top_white"/><linearGradient id="Nouveau_dégradé_" x1="24.27" y1="35.74" x2="40.98" y2="26.09" gradientUnits="userSpaceOnUse"><stop offset="0" stop-color="#0571b0"/><stop offset="0.44" stop-color="#fff"/><stop offset="0.47" stop-color="#fff"/><stop offset="1" stop-color="#0571b0"/></linearGradient><linearGradient id="New_Gradient_Swatch_1" x1="21.7" y1="30.01" x2="41.62" y2="30.01" gradientUnits="userSpaceOnUse"><stop offset="0" stop-color="#464646"/><stop offset="0.99" stop-color="#141414"/></linearGradient><linearGradient id="Nouveau_dégradé_2" x1="41.14" y1="32.45" x2="47.68" y2="27.34" xlink:href="#Nouveau_dégradé_"/><linearGradient id="New_Gradient_Swatch_1-2" x1="42.11" y1="30.08" x2="48.57" y2="30.08" xlink:href="#New_Gradient_Swatch_1"/><radialGradient id="radial-gradient" cx="17.91" cy="49.19" r="9.78" gradientTransform="matrix(0.84, -0.02, -0.02, 0.93, 2.49, 2.91)" gradientUnits="userSpaceOnUse"><stop offset="0.31" stop-color="#285a78"/><stop offset="1" stop-color="#82bedc"/></radialGradient><linearGradient id="linear-gradient-9" x1="-2.67" y1="50.07" x2="-2.67" y2="40.37" gradientTransform="translate(21.93 7.07) rotate(-45)" gradientUnits="userSpaceOnUse"><stop offset="0" stop-color="#0e1d32"/><stop offset="0.2" stop-color="#122a4e"/><stop offset="0.24" stop-color="#143058"/><stop offset="0.4" stop-color="#194379"/><stop offset="0.56" stop-color="#1d5190"/><stop offset="0.7" stop-color="#1f599e"/><stop offset="0.83" stop-color="#205ca3"/><stop offset="1" stop-color="#205ca3"/></linearGradient><mask id="mask" x="44.69" y="33.79" width="12.97" height="12.97" maskUnits="userSpaceOnUse"><rect class="cls-1" x="45.79" y="36.49" width="10.76" height="7.57" transform="translate(-13.49 47.98) rotate(-45)"/></mask><linearGradient id="linear-gradient-10" x1="11.76" y1="9.46" x2="16.49" y2="17.64" gradientTransform="translate(32.44 11.42) rotate(-45)" gradientUnits="userSpaceOnUse"><stop offset="0" stop-color="#aaa"/><stop offset="1" stop-color="#5a5a5a"/></linearGradient><mask id="mask-2" x="44.68" y="3.87" width="12.97" height="12.97" maskUnits="userSpaceOnUse"><rect class="cls-2" x="45.78" y="6.57" width="10.76" height="7.57" transform="translate(7.66 39.21) rotate(-45)"/></mask><linearGradient id="linear-gradient-11" x1="49.71" y1="21.94" x2="54.43" y2="30.12" gradientUnits="userSpaceOnUse"><stop offset="0" stop-color="#fc3f05"/><stop offset="1" stop-color="#c10e00"/></linearGradient><mask id="mask-3" x="47.22" y="20.78" width="7.57" height="10.76" maskUnits="userSpaceOnUse"><rect class="cls-3" x="47.22" y="20.78" width="7.57" height="10.76"/></mask><clipPath id="clip-path-6"><path id="check" class="cls-4" d="M57.37,38.23V36.9H56.18l-3.89,3.9-1.21-1.21H49.8v1.1l2.55,2.55Z"/></clipPath></defs><title>3425__A33AAe__R21XArtboard 1</title><g id="Layer_54_copy" data-name="Layer 54 copy"><path id="fond_" data-name="fond ***" d="M32.85,47.91,18.32,46.39a.88.88,0,0,1-.3-1.67l3-1.47a.88.88,0,0,0,.15-1.49l-5.94-4.53a.88.88,0,0,1,0-1.36l4.35-3.79c.09-.08,2.58-1.56,2.69-1.6s-.28.66,2.26-.08a2.28,2.28,0,0,0,1.48-1l2.84-4.15.67-.3L28,29c-.23.51.13.55.64.43l2.14-.5c.25-.06.32-.11.7-.55l2.46-3H35.8l-1.26,1.71c-.41.61.25,1,.78,1.06L46,29.37a.88.88,0,0,0,.89-1.22l-.81-2.32,3.13,3a.86.86,0,0,0,.61.25h1.24a.88.88,0,0,1,.86.64l1.13,4.14a.89.89,0,0,1-.34,1L38.41,45l-.08,0-5,2.73A.94.94,0,0,1,32.85,47.91Z"/></g><g id="Layer_60_copy" data-name="Layer 60 copy"><path id="AV_G" data-name="AV G" d="M47.94,36.2c-.41,2.75.45,3.7.9,3.89a13.24,13.24,0,0,0,2.53.33c1.15-.33,1.77-2.84,1.86-3.28.23-1.1.6-3.19-.43-3.88-.77-.16-1.31-.33-2-.49C49.61,32.48,48.24,34.2,47.94,36.2Z"/><g class="cls-5"><path id="av_g-2" data-name="av g" d="M48.18,36.24c-.37,2.49.41,3.35.82,3.53a11.36,11.36,0,0,0,2.31.3c1-.3,1.61-2.58,1.69-3,.2-1,.54-2.89-.39-3.52-.71-.15-1.2-.29-1.82-.45C49.71,32.85,48.46,34.41,48.18,36.24Z"/></g><path class="cls-6" d="M50.53,36.48c-.33,1.44-.15,2.71.38,2.83s1.25-.94,1.57-2.38.16-2.71-.38-2.83S50.86,35.05,50.53,36.48Z"/><g id="_0.1" data-name="0.1"><path class="cls-7" d="M52.44,33.64h.08c.28.07.49.45.57,1.07a7,7,0,0,1-.16,2.35c-.37,1.6-1.16,2.91-1.76,2.91h-.09c-.54-.12-.83-1.52-.4-3.41.37-1.61,1.16-2.92,1.76-2.92m0-.1c-.66,0-1.47,1.29-1.86,3s-.19,3.39.48,3.54h.11c.66,0,1.46-1.29,1.85-3s.2-3.38-.47-3.54Z"/></g><path id="AV_G-3" data-name="AV G" d="M32.81,46.61c-.56,3.76.62,5.06,1.24,5.33a18.4,18.4,0,0,0,3.48.45c1.57-.45,2.42-3.9,2.55-4.51.31-1.5.82-4.36-.59-5.32-1.06-.22-1.8-.44-2.75-.67C35.11,41.5,33.22,43.85,32.81,46.61Z"/><g class="cls-8"><path id="av_g-4" data-name="av g" d="M33.15,46.65c-.51,3.42.56,4.6,1.13,4.85a16.9,16.9,0,0,0,3.16.41c1.43-.41,2.2-3.54,2.32-4.1.28-1.36.74-4-.54-4.83-1-.21-1.64-.41-2.5-.61C35.25,42,33.53,44.15,33.15,46.65Z"/></g><path class="cls-6" d="M36.38,47c-.45,2-.22,3.71.52,3.88s1.7-1.3,2.15-3.27.22-3.71-.52-3.88S36.83,45,36.38,47Z"/><g id="_0.1-2" data-name="0.1"><path class="cls-9" d="M39,43.05l.12,0c.4.09.7.63.81,1.49a9.53,9.53,0,0,1-.23,3.24c-.51,2.26-1.58,4-2.44,4h-.13c-.85-.19-1.12-2.36-.58-4.73s1.59-4,2.45-4m0-.1c-.9,0-2,1.77-2.54,4.11s-.27,4.64.65,4.85h.15c.9,0,2-1.76,2.54-4.1s.27-4.64-.65-4.85L39,43Z"/></g></g><g id="carrosserie"><g class="cls-10"><path class="cls-11" d="M53,33.8c0-.45,0-2.64,0-3,0-1.62-.24-2.15-1-2.51-1.74-.56-2-.2-3.16-.92s-1.74-2.09-10.51-2.75a62.82,62.82,0,0,0-9.44.2c-2.76.31-8,5.87-9.34,6.43a62.23,62.23,0,0,0-7.45,3,12.35,12.35,0,0,0-5.15,5.31c-.72,1-.51,3.21.05,4.28.2,1.33.06,2,.76,2.86s2.87,3.42,8.94,4.85a40.71,40.71,0,0,0,13.39.27c2.81-.51,3.84-.88,4-1.6a23.55,23.55,0,0,1,2.5-7.76c.44-.74,2.81-4.54,3.88-1.73.54,2.23-.48,4.17-1.07,4.49-.24.13.1-.05-.06.92l10-7.4a24.83,24.83,0,0,1,1.12-3.88c.81-2.14,1.57-3.17,1.83-2.65s0,1.58-.15,3.11A10.58,10.58,0,0,1,53,33.8ZM41.32,31c-.11,2.81-.51,2.56-1,2.81-1.08.41-3.65-.44-9.65-1.29s-7.72-1.07-8.71-1.3a.18.18,0,0,1-.12-.28,18.29,18.29,0,0,1,1.81-1.66c.81-.66,1.64-1.3,2.5-1.9.42-.29.84-.57,1.27-.82a2.2,2.2,0,0,1,.8-.35,71.3,71.3,0,0,1,7.45.2c3.15.15,5.54.44,5.82,1.48C41.67,28.65,41.4,29.36,41.32,31Zm6.83-.32a25.15,25.15,0,0,1-3.93,2.6,4.26,4.26,0,0,1-2,.51s.11-3.88.31-5.36a2.21,2.21,0,0,1,1.61-1.81,3.55,3.55,0,0,1,3.24.38A2.9,2.9,0,0,1,48.15,30.67Z"/><path class="cls-12" d="M53,33.8c0-.45,0-2.64,0-3,0-1.62-.24-2.15-1-2.51-1.74-.56-2-.2-3.16-.92s-1.74-2.09-10.51-2.75a62.82,62.82,0,0,0-9.44.2c-2.76.31-8,5.87-9.34,6.43a62.23,62.23,0,0,0-7.45,3,12.35,12.35,0,0,0-5.15,5.31c-.72,1-.51,3.21.05,4.28.2,1.33.06,2,.76,2.86s2.87,3.42,8.94,4.85a40.71,40.71,0,0,0,13.39.27c2.81-.51,3.84-.88,4-1.6a23.55,23.55,0,0,1,2.5-7.76c.44-.74,2.81-4.54,3.88-1.73.54,2.23-.48,4.17-1.07,4.49-.24.13.1-.05-.06.92l10-7.4a24.83,24.83,0,0,1,1.12-3.88c.81-2.14,1.57-3.17,1.83-2.65s0,1.58-.15,3.11A10.58,10.58,0,0,1,53,33.8ZM41.32,31c-.11,2.81-.51,2.56-1,2.81-1.08.41-3.65-.44-9.65-1.29s-7.72-1.07-8.71-1.3a.18.18,0,0,1-.12-.28,18.29,18.29,0,0,1,1.81-1.66c.81-.66,1.64-1.3,2.5-1.9.42-.29.84-.57,1.27-.82a2.2,2.2,0,0,1,.8-.35,71.3,71.3,0,0,1,7.45.2c3.15.15,5.54.44,5.82,1.48C41.67,28.65,41.4,29.36,41.32,31Zm6.83-.32a25.15,25.15,0,0,1-3.93,2.6,4.26,4.26,0,0,1-2,.51s.11-3.88.31-5.36a2.21,2.21,0,0,1,1.61-1.81,3.55,3.55,0,0,1,3.24.38A2.9,2.9,0,0,1,48.15,30.67Z"/></g></g><g id="flan"><path class="cls-13" d="M52.68,32.09V30.52c0-.8,0-1.54-.94-1.95-1.69-.58-1.73,0-3.17-.93.73,1.41,2.74,1.75,1,3.11-6.87,4.75-10,6.15-14.25,7.09-2.8.62-8.35,1.64-9.35,2.93a7.43,7.43,0,0,1,4.08-.52c1.42.24,2.26,1.15,1.55,3-.2.52-.74.8-1.45,1-2.06.64,2.76.92.91,3.44-2.91,3.2-6.19,1.67-6.34,4a13.46,13.46,0,0,0,4.69-.24c2.8-.51,4.28-.87,4.38-1.58a22,22,0,0,1,2.4-7.41c1.34-2.55,3.47-4.39,4.55-1.59a10.17,10.17,0,0,1,0,2.33,4.39,4.39,0,0,0-.45.61c.17,1.11.13.93.13.93l8.8-6.49a17.23,17.23,0,0,1,1-3.67c.82-2.14,1.37-2.95,1.87-2.88s.64.87.61,1.28Z"/></g><g id="ph_copy" data-name="ph copy"><path class="cls-14" d="M31.47,41.43c.66,1.74-1.14,2.55-3.47,3.13-2.2.34-4.4.71-4.8-.33s1.11-2.58,3.36-3.43S31.07,40.39,31.47,41.43Z"/><path class="cls-15" d="M8.51,37.81c-.93,1.14-1.39,2.37-.93,2.75s1.63-.19,2.56-1.32c.71-.87,2.09-2.7.56-2.81C9.89,36.33,9.43,36.69,8.51,37.81Z"/><g id="B_Blur_" data-name="B Blur  *"><g class="cls-16"><g class="cls-17"><path class="cls-18" d="M30.73,41.69c.45,1.19-1.07,1.86-3,2.39-1.82.35-3.65.73-3.92,0s1-1.88,2.93-2.6S30.45,41,30.73,41.69Z"/></g></g></g><g class="cls-19"><g class="cls-17"><path class="cls-20" d="M9,37.45c-.57.7-.76,1.53-.35,1.87s1.23.08,1.8-.62c.44-.54,1.26-1.68.07-2C9.83,36.56,9.53,36.76,9,37.45Z"/></g></g><path class="cls-21" d="M31.44,41.43c.67,1.74-1.13,2.55-3.47,3.13-2.19.34-4.4.71-4.79-.33s1.1-2.58,3.36-3.43S31,40.39,31.44,41.43Z"/><path class="cls-21" d="M8.48,37.81c-.93,1.14-1.39,2.37-.92,2.75s1.62-.19,2.55-1.32c.72-.87,2.1-2.7.57-2.81C9.86,36.33,9.4,36.69,8.48,37.81Z"/></g><g id="Layer_58_copy" data-name="Layer 58 copy" class="cls-22"><path class="cls-23" d="M21.82,30.93c.86-1,5.46-4.62,6.38-4.73a53.28,53.28,0,0,1,6.53.16c3.15.15,6.48.33,6.74,1.52.2.77-.07,1.48-.15,3.11-.11,2.81-.51,2.56-1,2.81-1.24.43-5.51-.78-9.65-1.29-3.94-.59-8.43-1.21-8.71-1.3C21.83,31.18,21.71,31.07,21.82,30.93Z"/><path class="cls-24" d="M44.1,26.61a2.21,2.21,0,0,0-1.61,1.81c-.2,1.48-.31,5.36-.31,5.36a4.26,4.26,0,0,0,2-.51,25.15,25.15,0,0,0,3.93-2.6A2.9,2.9,0,0,0,47.34,27,3.55,3.55,0,0,0,44.1,26.61Z"/></g><path id="contour_windown" data-name="contour windown" class="cls-25" d="M21.82,30.93a18.29,18.29,0,0,1,1.81-1.66c.81-.66,1.64-1.3,2.5-1.9.42-.29.84-.57,1.27-.82a2.2,2.2,0,0,1,.8-.35,71.3,71.3,0,0,1,7.45.2c3.15.15,5.54.44,5.82,1.48.2.77-.07,1.48-.15,3.11-.11,2.81-.51,2.56-1,2.81-1.08.41-3.65-.44-9.65-1.29s-7.72-1.07-8.71-1.3A.18.18,0,0,1,21.82,30.93ZM44.1,26.61a2.21,2.21,0,0,0-1.61,1.81c-.2,1.48-.31,5.36-.31,5.36a4.26,4.26,0,0,0,2-.51,25.15,25.15,0,0,0,3.93-2.6A2.9,2.9,0,0,0,47.34,27,3.55,3.55,0,0,0,44.1,26.61Z"/><g id="Layer_57_copy" data-name="Layer 57 copy"><path d="M11.69,44c-.56,3.76.31,4.42.93,4.69s3,1.44,4,1.14,2.2-3.94,2.33-4.55c.31-1.5,1.21-4.38-.59-5.32-1.07-.22-1.81-.44-2.75-.67C14,38.88,12.1,41.23,11.69,44Z"/><path class="cls-26" d="M12.46,44.18c-.55,3.5.12,4,.63,4.27s2.37,1.19,3.24,1,2.13-3.65,2.25-4.22c.29-1.39,1.13-4-.4-4.91-.89-.18-1.52-.37-2.31-.57C14.5,39.41,12.86,41.63,12.46,44.18Z"/></g><g id="_1" data-name="1"><circle class="cls-27" cx="52.02" cy="40.93" r="4.85"/><circle class="cls-28" cx="52.02" cy="40.93" r="4.85"/><g class="cls-29"><ellipse class="cls-6" cx="51.22" cy="40.13" rx="4.05" ry="3.32" transform="translate(-13.38 47.97) rotate(-45)"/></g></g><g id="vrt"><path class="cls-30" d="M52,15.74a4.73,4.73,0,1,1,3.34-1.39A4.71,4.71,0,0,1,52,15.74Z"/><path class="cls-31" d="M52,6.41a4.6,4.6,0,1,1-3.25,1.35A4.56,4.56,0,0,1,52,6.41m0-.25a4.85,4.85,0,1,0,3.43,1.42A4.83,4.83,0,0,0,52,6.16Z"/><g class="cls-32"><ellipse class="cls-6" cx="51.21" cy="10.21" rx="4.05" ry="3.32" transform="translate(7.78 39.2) rotate(-45)"/></g></g><g id="Rouge_2_" data-name="Rouge (2)"><path class="cls-33" d="M52.07,30.75A4.73,4.73,0,1,1,56.79,26,4.73,4.73,0,0,1,52.07,30.75Z"/><path class="cls-34" d="M52.07,21.43a4.6,4.6,0,1,1-4.6,4.6,4.6,4.6,0,0,1,4.6-4.6m0-.25A4.85,4.85,0,1,0,56.92,26a4.85,4.85,0,0,0-4.85-4.85Z"/><g class="cls-35"><ellipse class="cls-6" cx="50.94" cy="26.03" rx="3.32" ry="4.05"/></g></g><g id="Layer_56_copy" data-name="Layer 56 copy"><path id="check-2" data-name="check" class="cls-6" d="M57.37,37.63V36.3H56.18l-3.89,3.89L51.08,39H49.8v1.1l2.55,2.55Z"/><g class="cls-36"><path id="check-3" data-name="check" d="M57.37,38.23V36.9H56.18l-3.89,3.9-1.21-1.21H49.8v1.1l2.55,2.55Z"/></g></g></svg>