<svg id="CATIA___K04_PEO_-_Design_Optimization" data-name="CATIA _ (K04) PEO - Design Optimization" xmlns="http://www.w3.org/2000/svg" xmlns:xlink="http://www.w3.org/1999/xlink" viewBox="0 0 64 64"><defs><style>.cls-1,.cls-9{stroke:#2d2d2d;}.cls-1,.cls-2,.cls-6,.cls-9{stroke-linecap:round;stroke-linejoin:round;}.cls-1{stroke-width:0.8px;fill:url(#linear-gradient);}.cls-2,.cls-5,.cls-6{fill:none;}.cls-2{stroke-width:2px;stroke:url(#linear-gradient-2);}.cls-3,.cls-4,.cls-5{stroke:#383838;stroke-miterlimit:10;}.cls-3{stroke-width:0.5px;}.cls-5{stroke-width:1.2px;}.cls-6{stroke:#00415f;}.cls-7{fill:url(#linear-gradient-3);}.cls-8{fill:#00415f;}.cls-9{fill:url(#linear-gradient-4);}.cls-10{fill:#383838;}</style><linearGradient id="linear-gradient" x1="-0.39" y1="56.49" x2="32.29" y2="18.74" gradientUnits="userSpaceOnUse"><stop offset="0" stop-color="#a1a1a1"/><stop offset="1" stop-color="#fff"/></linearGradient><linearGradient id="linear-gradient-2" x1="13.99" y1="23.34" x2="44.94" y2="23.34" gradientUnits="userSpaceOnUse"><stop offset="0" stop-color="#67b2c9"/><stop offset="1" stop-color="#25667d"/></linearGradient><linearGradient id="linear-gradient-3" x1="36.4" y1="25.5" x2="40.6" y2="25.5" gradientUnits="userSpaceOnUse"><stop offset="0" stop-color="#83d2ea"/><stop offset="0.55" stop-color="#5199b0"/><stop offset="1" stop-color="#25667d"/></linearGradient><linearGradient id="linear-gradient-4" x1="41.19" y1="25.81" x2="62.59" y2="59.04" gradientUnits="userSpaceOnUse"><stop offset="0" stop-color="#fff"/><stop offset="1" stop-color="#bfbfbf"/></linearGradient></defs><title>CATIA _ (K04) PEO - Design Optimization</title><polygon class="cls-1" points="40.65 38.16 34.39 36.28 34.27 39.77 12.38 46.71 12.38 21.32 15.77 20.7 11.04 14.21 7.2 22.71 10.5 21.71 10.5 49.71 34.2 41.91 34.12 44.52 40.65 38.16"/><path class="cls-2" d="M15,25.6s.57,8.17,5.26,9.29c3.55.84,4.05-4.52,6.9-5.8,1.33-.59,2.72,2,2.72,2s2.08,3.91,3.49,3c2.91-1.79,7-12.11,10.58-22.44"/><path class="cls-3" d="M20.44,20.27l1.71-.4a16.21,16.21,0,0,1,.59-2.66,4.46,4.46,0,0,1,1-1.33,2.93,2.93,0,0,1,1.18-.67.6.6,0,0,1,.47,0,.31.31,0,0,1,.15.28.48.48,0,0,1-.1.31.53.53,0,0,1-.28.18,3.48,3.48,0,0,1-.68,0,1.87,1.87,0,0,0-.38,0c-.23.05-.43.26-.61.61A5,5,0,0,0,23.07,18L23,19.67l1.71-.4V20l-1.71.4-.85,3a7.13,7.13,0,0,1-1.43,2.82,3.25,3.25,0,0,1-1.78,1.26.68.68,0,0,1-.48,0,.34.34,0,0,1-.17-.31.42.42,0,0,1,.12-.3.59.59,0,0,1,.33-.19l.31,0a4.6,4.6,0,0,0,.68-.11,1.17,1.17,0,0,0,.74-.44,4.48,4.48,0,0,0,.46-1.39l1.22-4.12-1.71.4Z"/><path class="cls-4" d="M27.77,24.34a5.81,5.81,0,0,1-1.35-3.75,7.15,7.15,0,0,1,.29-2,10.9,10.9,0,0,1,1.06-2.38l.49-.12c-.3.66-.51,1.13-.61,1.4a9.61,9.61,0,0,0-.36,1.3,8.44,8.44,0,0,0-.17,1.63,6.87,6.87,0,0,0,1.14,3.8Z"/><path class="cls-4" d="M36.31,22.34l-.49.12A9.83,9.83,0,0,0,37,18.12a7,7,0,0,0-.16-1.53,5.85,5.85,0,0,0-.37-1.14,11.35,11.35,0,0,0-.61-1.12l.49-.12a6.37,6.37,0,0,1,1.06,1.89A5.48,5.48,0,0,1,37.66,18a7.12,7.12,0,0,1-.39,2.3A10.05,10.05,0,0,1,36.31,22.34Z"/><line class="cls-5" x1="29.84" y1="16.93" x2="34.11" y2="21.61"/><line class="cls-5" x1="34.11" y1="15.93" x2="29.84" y2="22.61"/><line class="cls-6" x1="38.66" y1="25.71" x2="12.94" y2="34.71"/><circle class="cls-7" cx="38.5" cy="25.5" r="2.1"/><path class="cls-8" d="M38.5,23.8a1.7,1.7,0,1,1-1.7,1.7,1.7,1.7,0,0,1,1.7-1.7m0-.8A2.5,2.5,0,1,0,41,25.5,2.5,2.5,0,0,0,38.5,23Z"/><polygon class="cls-9" points="42.5 43.71 56.5 50.8 56.5 33.71 42.5 26.71 42.5 43.71"/><rect class="cls-10" x="49" y="38" width="1" height="1"/><polygon class="cls-10" points="53 42.5 52 42.5 51 43.5 48 43.5 47 42.5 46 42.5 46 39 48 39.5 49 40 50 40 51 39.5 53 39 53 42.5"/><polygon class="cls-10" points="49.5 33 44 36.39 49.5 39 55 36.5 49.5 33"/><rect class="cls-10" x="54" y="38" width="1" height="3"/></svg>