<?xml version="1.0" encoding="iso-8859-1"?>
<!-- Generator: Adobe Illustrator 23.1.0, SVG Export Plug-In . SVG Version: 6.00 Build 0)  -->
<svg version="1.1" xmlns="http://www.w3.org/2000/svg" xmlns:xlink="http://www.w3.org/1999/xlink" x="0px" y="0px"
	 viewBox="0 0 64 64" style="enable-background:new 0 0 64 64;" xml:space="preserve">
<filter  height="200%" id="DS_GaussianBlur_2" width="200%" x="-50%" y="-50%">
	<feGaussianBlur  stdDeviation="1"></feGaussianBlur>
</filter>
<pattern  width="20" height="20" patternUnits="userSpaceOnUse" id="New_Pattern_Swatch_2" viewBox="22.121 -42.121 20 20" style="overflow:visible;">
	<g>
		<rect x="22.121" y="-42.121" style="fill:none;" width="20" height="20"/>
		
			<rect x="49.121" y="-26.263" transform="matrix(0.7071 -0.7071 0.7071 0.7071 23.837 33.3051)" style="fill:#844138;" width="6" height="28.284"/>
		
			<rect x="29.121" y="-26.263" transform="matrix(0.7071 -0.7071 0.7071 0.7071 17.9792 19.163)" style="fill:#844138;" width="6" height="28.284"/>
		
			<rect x="9.121" y="-26.263" transform="matrix(0.7071 -0.7071 0.7071 0.7071 12.1213 5.0208)" style="fill:#844138;" width="6" height="28.284"/>
		
			<rect x="49.121" y="-46.263" transform="matrix(0.7071 -0.7071 0.7071 0.7071 37.9792 27.4472)" style="fill:#844138;" width="6" height="28.284"/>
		
			<rect x="29.121" y="-46.263" transform="matrix(0.7071 -0.7071 0.7071 0.7071 32.1213 13.3051)" style="fill:#844138;" width="6" height="28.284"/>
		
			<rect x="9.121" y="-46.263" transform="matrix(0.7071 -0.7071 0.7071 0.7071 26.2635 -0.837)" style="fill:#844138;" width="6" height="28.284"/>
		
			<rect x="49.121" y="-66.263" transform="matrix(0.7071 -0.7071 0.7071 0.7071 52.1213 21.5894)" style="fill:#844138;" width="6" height="28.284"/>
		
			<rect x="29.121" y="-66.263" transform="matrix(0.7071 -0.7071 0.7071 0.7071 46.2635 7.4472)" style="fill:#844138;" width="6" height="28.284"/>
		
			<rect x="9.121" y="-66.263" transform="matrix(0.7071 -0.7071 0.7071 0.7071 40.4056 -6.6949)" style="fill:#844138;" width="6" height="28.284"/>
	</g>
</pattern>
<g id="Layer_1" style="display:none;">
</g>
<g id="info" style="display:none;">
	<g style="display:inline;">
		<path style="fill:#EA4F37;" d="M4,2v46h56V2H4z M51,44H13V6h38V44z"/>
	</g>
	<path id="pedestal" style="display:inline;opacity:0.5;fill:#D1D4D4;" d="M53.603,24.445l-0.057-0.116
		C53.457,24.192,52.592,23,49.641,23h-35.64c-2.97,0-3.517,1.123-3.601,1.361C6.688,35.865,3.637,45.296,3.628,45.514l0.524,12.305
		c0,2.2,2.691,2.682,3.728,2.682h48.37c1.037,0,3.729-0.481,3.729-2.66c0.113-2.671-0.281,6.624,0.524-12.354
		C61.015,46.748,53.643,24.566,53.603,24.445z M11.335,24.712C11.339,24.705,11.733,24,14.001,24h35.64
		c2.121,0,2.892,0.688,3.041,0.845c7.113,21.491,6.799,20.506,6.818,20.66C59.479,45.998,59.856,48,57,48H7
		c-2.843,0-2.343-1.774-2.374-2.483C4.633,45.39,11.302,24.815,11.335,24.712z"/>
	<g id="no-go_zone" style="display:inline;opacity:0.3;">
		<path style="fill:url(#New_Pattern_Swatch_2);" d="M0,0v64h64V0H0z M60,48H4V2h56V48z"/>
	</g>
</g>
<g id="info_r2021x" style="display:none;">
	<g id="pedestal_r2021x" style="display:inline;">
		<path style="opacity:0.5;fill:#FFFFFF;" d="M63.002,64h-62c-0.552,0-1-0.448-1-1V1c0-0.552,0.448-1,1-1h62c0.552,0,1,0.448,1,1v62
			C64.002,63.552,63.554,64,63.002,64z"/>
		<rect x="1.002" y="1" style="fill:#F4F5F6;" width="62" height="62"/>
		<rect x="1.002" y="1" style="fill:#D1D4D4;" width="2" height="62"/>
	</g>
	<g id="no-go_zone_1_" style="display:inline;opacity:0.3;">
		<path style="fill:url(#New_Pattern_Swatch_2);" d="M0,0v64h64V0H0z M57,57H7V7h50V57z"/>
	</g>
	<g style="display:inline;">
		<path style="fill:#EA4F37;" d="M57,7v50H7V7H57 M58,6h-1H7H6v1v50v1h1h50h1v-1V7V6L58,6z"/>
	</g>
</g>
<g id="Notes" style="display:none;">
</g>
<g id="vector_references" style="display:none;">
</g>
<g id="PNG_references" style="display:none;">
	
		<image style="display:inline;overflow:visible;" width="64" height="64" xlink:href="refs/CATPIPA_AP_AppIcon.png"  transform="matrix(1 0 0 1 0 8)">
	</image>
	<g style="display:inline;opacity:0.5;">
		<image style="overflow:visible;" width="64" height="64" xlink:href="A7EB3BA9.jpg"  transform="matrix(0.9992 0 0 -1 0 73)">
		</image>
	</g>
</g>
<g id="Work" style="display:none;">
	<g style="display:inline;">
		<g>
			<g>
				<radialGradient id="SVGID_1_" cx="46.4362" cy="41.2979" r="4.6117" gradientUnits="userSpaceOnUse">
					<stop  offset="0" style="stop-color:#F5F6F6"/>
					<stop  offset="0.9921" style="stop-color:#999999"/>
				</radialGradient>
				<ellipse style="fill:url(#SVGID_1_);" cx="47.5" cy="42.5" rx="6.5" ry="3.5"/>
				<g style="opacity:0.2;">
					<path d="M52.645,40.367C52.871,40.723,53,41.103,53,41.5c0,1.933-2.91,3.5-6.5,3.5c-2.097,0-3.956-0.537-5.145-1.367
						C42.23,45.009,44.648,46,47.5,46c3.59,0,6.5-1.567,6.5-3.5C54,41.696,53.491,40.958,52.645,40.367z"/>
				</g>
				<g style="opacity:0.6;">
					<path style="fill:#FFFFFF;" d="M42.5,42.5c0-1.796,2.514-3.274,5.75-3.475C48.004,39.01,47.754,39,47.5,39
						c-3.59,0-6.5,1.567-6.5,3.5s2.91,3.5,6.5,3.5c0.254,0,0.504-0.01,0.75-0.025C45.014,45.774,42.5,44.296,42.5,42.5z"/>
				</g>
			</g>
			
				<ellipse style="fill:none;stroke:#333332;stroke-linecap:round;stroke-linejoin:round;stroke-miterlimit:1;" cx="47.5" cy="42.5" rx="6.5" ry="3.5"/>
		</g>
		<g>
			<g>
				
					<radialGradient id="SVGID_2_" cx="14.4367" cy="49.2645" r="4.6117" gradientTransform="matrix(1 0 0 1.0714 0 -3.3214)" gradientUnits="userSpaceOnUse">
					<stop  offset="0" style="stop-color:#F5F6F6"/>
					<stop  offset="0.9921" style="stop-color:#999999"/>
				</radialGradient>
				<ellipse style="fill:url(#SVGID_2_);" cx="15.501" cy="50.75" rx="6.5" ry="3.75"/>
				<g style="opacity:0.2;">
					<path d="M20.645,48.464c0.226,0.381,0.355,0.789,0.355,1.214c0,2.071-2.91,3.75-6.5,3.75c-2.097,0-3.956-0.575-5.145-1.464
						c0.875,1.474,3.293,2.536,6.145,2.536c3.59,0,6.5-1.679,6.5-3.75C22.001,49.889,21.492,49.097,20.645,48.464z"/>
				</g>
				<g style="opacity:0.6;">
					<path style="fill:#FFFFFF;" d="M10.501,50.75c0-1.925,2.514-3.508,5.75-3.723C16.004,47.011,15.755,47,15.501,47
						c-3.59,0-6.5,1.679-6.5,3.75s2.91,3.75,6.5,3.75c0.254,0,0.504-0.011,0.75-0.027C13.015,54.258,10.501,52.675,10.501,50.75z"/>
				</g>
			</g>
			
				<ellipse style="fill:none;stroke:#333332;stroke-width:1.0351;stroke-linecap:round;stroke-linejoin:round;stroke-miterlimit:1;" cx="15.501" cy="50.75" rx="6.5" ry="3.75"/>
		</g>
		<linearGradient id="SVGID_3_" gradientUnits="userSpaceOnUse" x1="34.5617" y1="24.1725" x2="35.145" y2="31.0892">
			<stop  offset="0" style="stop-color:#E6E6E6"/>
			<stop  offset="0.179" style="stop-color:#EBEBEB"/>
			<stop  offset="0.2943" style="stop-color:#F2F2F2"/>
			<stop  offset="0.6307" style="stop-color:#D2D3D3"/>
			<stop  offset="1" style="stop-color:#B3B3B3"/>
		</linearGradient>
		<path style="fill:url(#SVGID_3_);" d="M51.442,29.978C50.848,22.023,43.5,22,43.5,22l-25,4c0,0,1,17,1,13.191s3-5.191,3-5.191
			l17-3c4-1,4,2,4,2v7.5c0,1.105,1.791,2,4,2s4-0.895,4-2V30L51.442,29.978z"/>
		<linearGradient id="SVGID_4_" gradientUnits="userSpaceOnUse" x1="34.5617" y1="24.1725" x2="35.145" y2="31.0892">
			<stop  offset="0" style="stop-color:#E6E6E6"/>
			<stop  offset="0.179" style="stop-color:#EBEBEB"/>
			<stop  offset="0.2943" style="stop-color:#F2F2F2"/>
			<stop  offset="0.6307" style="stop-color:#D2D3D3"/>
			<stop  offset="1" style="stop-color:#B3B3B3"/>
		</linearGradient>
		<path style="fill:url(#SVGID_4_);" d="M51.442,29.978C50.848,22.023,43.5,22,43.5,22l-25,4c0,0,1,17,1,13.191s3-5.191,3-5.191
			l17-3c4-1,4,2,4,2v7.5c0,1.105,1.791,2,4,2s4-0.895,4-2V30L51.442,29.978z"/>
		<linearGradient id="SVGID_5_" gradientUnits="userSpaceOnUse" x1="12.1702" y1="30.75" x2="19.001" y2="30.75">
			<stop  offset="0" style="stop-color:#E6E6E6"/>
			<stop  offset="0.179" style="stop-color:#EBEBEB"/>
			<stop  offset="0.2943" style="stop-color:#F2F2F2"/>
			<stop  offset="0.6307" style="stop-color:#D2D3D3"/>
			<stop  offset="1" style="stop-color:#B3B3B3"/>
		</linearGradient>
		<path style="fill:url(#SVGID_5_);" d="M11.5,10.5V49c0,1.105,1.791,2,4,2s4-0.895,4-2V10.5H11.5z"/>
		<path style="fill:none;stroke:#797979;stroke-linecap:round;stroke-linejoin:round;stroke-miterlimit:1;" d="M19.501,21.5
			c0,0.828-1.791,1.5-4,1.5s-4-0.672-4-1.5"/>
		<path style="fill:none;stroke:#797979;stroke-linecap:round;stroke-linejoin:round;stroke-miterlimit:1;" d="M19.501,39.5
			c0,0.828-1.791,1.5-4,1.5s-4-0.672-4-1.5"/>
		<path style="fill:none;stroke:#333332;stroke-linecap:round;stroke-linejoin:round;stroke-miterlimit:1;" d="M11.501,10.5V49
			c0,1.105,1.791,2,4,2s4-0.895,4-2V10.5H11.501z"/>
		<linearGradient id="SVGID_6_" gradientUnits="userSpaceOnUse" x1="16.3323" y1="11" x2="13.8692" y2="11">
			<stop  offset="0" style="stop-color:#ABABAB"/>
			<stop  offset="1" style="stop-color:#5B5B5B"/>
		</linearGradient>
		
			<ellipse style="fill:url(#SVGID_6_);stroke:#333332;stroke-linecap:round;stroke-linejoin:round;stroke-miterlimit:1;" cx="15.5" cy="11" rx="4" ry="1.5"/>
		<defs>
			<filter id="Adobe_OpacityMaskFilter" filterUnits="userSpaceOnUse" x="45.481" y="25.5" width="0.709" height="16">
				<feColorMatrix  type="matrix" values="1 0 0 0 0  0 1 0 0 0  0 0 1 0 0  0 0 0 1 0"/>
			</filter>
		</defs>
		<mask maskUnits="userSpaceOnUse" x="45.481" y="25.5" width="0.709" height="16" id="SVGID_7_">
			<g style="filter:url(#Adobe_OpacityMaskFilter);">
				<linearGradient id="SVGID_8_" gradientUnits="userSpaceOnUse" x1="45.5324" y1="37.4411" x2="45.5324" y2="27.5284">
					<stop  offset="0" style="stop-color:#FFFFFF"/>
					<stop  offset="1" style="stop-color:#000000"/>
				</linearGradient>
				<rect x="43.192" y="21.727" style="fill:url(#SVGID_8_);" width="4.681" height="20.269"/>
			</g>
		</mask>
		<g style="mask:url(#SVGID_7_);filter:url(#DS_GaussianBlur_2);">
			<polygon style="fill:#FFFFFF;" points="45.481,41.5 46.19,41.5 46.19,30.381 45.481,25.5 			"/>
		</g>
		<g style="opacity:0.3;filter:url(#DS_GaussianBlur_2);">
			<path style="fill:#FFFFFF;" d="M45.481,41.5c2.259,1.676,4.519,0,4.519,0s0.231-6.345,0-11.119
				c-1.093-5.252-4.688-6.261-4.688-6.261L45.481,41.5z"/>
		</g>
		<path style="fill:none;stroke:#797979;stroke-width:1.069;stroke-linecap:round;stroke-linejoin:round;stroke-miterlimit:1;" d="
			M51.501,32.5c0,0.828-1.791,1.5-4,1.5c-2.209,0-4-0.672-4-1.5"/>
		<g style="opacity:0.5;">
			<defs>
				<path id="SVGID_9_" style="opacity:0.5;" d="M51.442,29.978C50.848,22.023,43.5,22,43.5,22l-25,4c0,0,1,17,1,13.191
					s3-5.191,3-5.191l17-3c4-1,4,2,4,2v7.5c0,1.105,1.791,2,4,2s4-0.895,4-2V30L51.442,29.978z"/>
			</defs>
			<clipPath id="SVGID_10_">
				<use xlink:href="#SVGID_9_"  style="overflow:visible;"/>
			</clipPath>
			<g style="opacity:0.2;clip-path:url(#SVGID_10_);filter:url(#DS_GaussianBlur_2);">
				<g>
					<path d="M51.379,30.228c-0.594-7.955-7.942-7.978-7.942-7.978l-0.308,0.049c2.164,0.785,6.455,2.724,6.808,7.451v10.5
						c0,1.047-3.114,1.896-5.162,1.983c0.708,0.318,1.635,0.517,2.662,0.517c2.209,0,4-0.895,4-2v-10.5L51.379,30.228z"/>
				</g>
			</g>
		</g>
		<path style="fill:none;stroke:#797979;stroke-linecap:round;stroke-linejoin:round;stroke-miterlimit:1;" d="M24,25
			c1.381,0,2.5,1.903,2.5,4.25s-1.138,4.273-2.5,4.5"/>
		<path style="fill:none;stroke:#797979;stroke-linecap:round;stroke-linejoin:round;stroke-miterlimit:1;" d="M36,23.5
			c1.381,0,2.5,1.87,2.5,4.177s-1.155,3.937-2.501,4.248"/>
		<path style="fill:none;stroke:#333332;stroke-width:0.9806;stroke-linecap:round;stroke-linejoin:round;stroke-miterlimit:1;" d="
			M51.442,29.978C50.848,22.023,43.5,22,43.5,22l-24,3.84c0,0,0,17.16,0,13.351s3-5.191,3-5.191l17-3c4-1,4,2,4,2v7.5
			c0,1.105,1.791,2,4,2s4-0.895,4-2V30L51.442,29.978z"/>
		<path style="fill:#B4B4B4;" d="M20.139,35.462c-0.587,0.747-1.172,2.033-1.148,2.687c0.003,0.089-0.086,0.026-0.086,0.026
			s-0.055-13.728-0.05-12.728c0,0,0.145-0.024,0.149,0.077c0.036,1.021,1.081,0.721,1.081,0.721L20.139,35.462z"/>
		<g>
			<g>
				<linearGradient id="SVGID_11_" gradientUnits="userSpaceOnUse" x1="31.5063" y1="21.6" x2="33.3936" y2="24.869">
					<stop  offset="0" style="stop-color:#ABABAB"/>
					<stop  offset="1" style="stop-color:#5B5B5B"/>
				</linearGradient>
				<path style="fill:url(#SVGID_11_);stroke:#333332;stroke-linecap:round;stroke-linejoin:round;stroke-miterlimit:1;" d="
					M30.5,22v2.5c0,0.552,0.895,1,2,1s2-0.448,2-1V22H30.5z"/>
				<linearGradient id="SVGID_12_" gradientUnits="userSpaceOnUse" x1="31.8848" y1="20.4344" x2="32.9974" y2="22.3615">
					<stop  offset="0" style="stop-color:#ABABAB"/>
					<stop  offset="1" style="stop-color:#5B5B5B"/>
				</linearGradient>
				
					<ellipse style="fill:url(#SVGID_12_);stroke:#333332;stroke-linecap:round;stroke-linejoin:round;stroke-miterlimit:1;" cx="32.5" cy="21.5" rx="2" ry="1"/>
			</g>
			<linearGradient id="SVGID_13_" gradientUnits="userSpaceOnUse" x1="31.7795" y1="17.7877" x2="33.3431" y2="20.4959">
				<stop  offset="0" style="stop-color:#F5F6F6"/>
				<stop  offset="0.9921" style="stop-color:#D2D3D3"/>
			</linearGradient>
			<path style="fill:url(#SVGID_13_);stroke:#333332;stroke-linecap:round;stroke-linejoin:round;stroke-miterlimit:1;" d="
				M31.5,17.5v3c0,0.276,0.448,0.5,1,0.5s1-0.224,1-0.5v-3H31.5z"/>
			<g>
				<g>
					<linearGradient id="SVGID_14_" gradientUnits="userSpaceOnUse" x1="35.34" y1="19.4191" x2="29.6271" y2="9.5239">
						<stop  offset="0" style="stop-color:#386F8D"/>
						<stop  offset="1" style="stop-color:#8DD7F4"/>
					</linearGradient>
					
						<ellipse style="fill:url(#SVGID_14_);stroke:#053755;stroke-linecap:round;stroke-linejoin:round;stroke-miterlimit:1;" cx="32.5" cy="14.5" rx="7" ry="3"/>
					<g style="opacity:0.5;">
						<path style="fill:#FFFFFF;" d="M33.25,16c-3.176,0-5.75-1.007-5.75-2.25c0-0.409,0.283-0.791,0.77-1.122
							c-1.089,0.409-1.77,0.984-1.77,1.622c0,1.243,2.574,2.25,5.75,2.25c2.131,0,3.986-0.455,4.98-1.128
							C36.196,15.76,34.796,16,33.25,16z"/>
					</g>
					<linearGradient id="SVGID_15_" gradientUnits="userSpaceOnUse" x1="30.1731" y1="12.6676" x2="36.5519" y2="13.5788">
						<stop  offset="0" style="stop-color:#2A5B79"/>
						<stop  offset="1" style="stop-color:#84BEDC"/>
					</linearGradient>
					
						<ellipse style="fill:url(#SVGID_15_);stroke:#053755;stroke-linecap:round;stroke-linejoin:round;stroke-miterlimit:1;" cx="32.5" cy="13" rx="4" ry="1.5"/>
				</g>
				<linearGradient id="SVGID_16_" gradientUnits="userSpaceOnUse" x1="31" y1="14" x2="34" y2="14">
					<stop  offset="0" style="stop-color:#2A5B79"/>
					<stop  offset="1" style="stop-color:#84BEDC"/>
				</linearGradient>
				
					<ellipse style="fill:url(#SVGID_16_);stroke:#053755;stroke-linecap:round;stroke-linejoin:round;stroke-miterlimit:1;" cx="32.5" cy="14" rx="1.5" ry="0.5"/>
			</g>
		</g>
	</g>
	<g style="display:inline;">
		<linearGradient id="SVGID_17_" gradientUnits="userSpaceOnUse" x1="44.9909" y1="32.9579" x2="56.5467" y2="52.9732">
			<stop  offset="0" style="stop-color:#F5F6F6"/>
			<stop  offset="0.9921" style="stop-color:#D2D3D3"/>
		</linearGradient>
		<polygon style="fill:url(#SVGID_17_);stroke:#333332;stroke-linecap:round;stroke-linejoin:round;stroke-miterlimit:1;" points="
			43.5,30.5 43.5,47.5 57.5,54.5 57.5,37.5 		"/>
		<linearGradient id="SVGID_18_" gradientUnits="userSpaceOnUse" x1="54.2231" y1="48.4486" x2="49.375" y2="40.0514">
			<stop  offset="0" style="stop-color:#161616"/>
			<stop  offset="1" style="stop-color:#515151"/>
		</linearGradient>
		<polygon style="fill-rule:evenodd;clip-rule:evenodd;fill:url(#SVGID_18_);" points="55,42 55,39 52,39 52,40 51,40 50,40 50,41 
			50,43 49,43 49,42 46,42 46,45 49,45 49,44 50,44 50,46 50,47 51,47 52,47 52,48 55,48 55,45 52,45 52,46 51,46 51,44 51,43 
			51,41 52,41 52,42 		"/>
	</g>
</g>
<g id="FINAL">
	<g>
		<g>
			<g>
				<radialGradient id="SVGID_19_" cx="46.4362" cy="41.2979" r="4.6117" gradientUnits="userSpaceOnUse">
					<stop  offset="0" style="stop-color:#F5F6F6"/>
					<stop  offset="0.9921" style="stop-color:#999999"/>
				</radialGradient>
				<ellipse style="fill:url(#SVGID_19_);" cx="47.5" cy="42.5" rx="6.5" ry="3.5"/>
				<g style="opacity:0.2;">
					<path d="M52.645,40.367C52.871,40.723,53,41.103,53,41.5c0,1.933-2.91,3.5-6.5,3.5c-2.097,0-3.956-0.537-5.145-1.367
						C42.23,45.009,44.648,46,47.5,46c3.59,0,6.5-1.567,6.5-3.5C54,41.696,53.491,40.958,52.645,40.367z"/>
				</g>
				<g style="opacity:0.6;">
					<path style="fill:#FFFFFF;" d="M42.5,42.5c0-1.796,2.514-3.274,5.75-3.475C48.004,39.01,47.754,39,47.5,39
						c-3.59,0-6.5,1.567-6.5,3.5s2.91,3.5,6.5,3.5c0.254,0,0.504-0.01,0.75-0.025C45.014,45.774,42.5,44.296,42.5,42.5z"/>
				</g>
			</g>
			
				<ellipse style="fill:none;stroke:#333332;stroke-linecap:round;stroke-linejoin:round;stroke-miterlimit:1;" cx="47.5" cy="42.5" rx="6.5" ry="3.5"/>
		</g>
		<g>
			<g>
				
					<radialGradient id="SVGID_20_" cx="14.4367" cy="49.2645" r="4.6117" gradientTransform="matrix(1 0 0 1.0714 0 -3.3214)" gradientUnits="userSpaceOnUse">
					<stop  offset="0" style="stop-color:#F5F6F6"/>
					<stop  offset="0.9921" style="stop-color:#999999"/>
				</radialGradient>
				<ellipse style="fill:url(#SVGID_20_);" cx="15.501" cy="50.75" rx="6.5" ry="3.75"/>
				<g style="opacity:0.2;">
					<path d="M20.645,48.464c0.226,0.381,0.355,0.789,0.355,1.214c0,2.071-2.91,3.75-6.5,3.75c-2.097,0-3.956-0.575-5.145-1.464
						c0.875,1.474,3.293,2.536,6.145,2.536c3.59,0,6.5-1.679,6.5-3.75C22.001,49.889,21.492,49.097,20.645,48.464z"/>
				</g>
				<g style="opacity:0.6;">
					<path style="fill:#FFFFFF;" d="M10.501,50.75c0-1.925,2.514-3.508,5.75-3.723C16.004,47.011,15.755,47,15.501,47
						c-3.59,0-6.5,1.679-6.5,3.75s2.91,3.75,6.5,3.75c0.254,0,0.504-0.011,0.75-0.027C13.015,54.258,10.501,52.675,10.501,50.75z"/>
				</g>
			</g>
			
				<ellipse style="fill:none;stroke:#333332;stroke-width:1.0351;stroke-linecap:round;stroke-linejoin:round;stroke-miterlimit:1;" cx="15.501" cy="50.75" rx="6.5" ry="3.75"/>
		</g>
		<linearGradient id="SVGID_21_" gradientUnits="userSpaceOnUse" x1="34.5617" y1="24.1725" x2="35.145" y2="31.0892">
			<stop  offset="0" style="stop-color:#E6E6E6"/>
			<stop  offset="0.179" style="stop-color:#EBEBEB"/>
			<stop  offset="0.2943" style="stop-color:#F2F2F2"/>
			<stop  offset="0.6307" style="stop-color:#D2D3D3"/>
			<stop  offset="1" style="stop-color:#B3B3B3"/>
		</linearGradient>
		<path style="fill:url(#SVGID_21_);" d="M51.442,29.978C50.848,22.023,43.5,22,43.5,22l-25,4c0,0,1,17,1,13.191s3-5.191,3-5.191
			l17-3c4-1,4,2,4,2v7.5c0,1.105,1.791,2,4,2s4-0.895,4-2V30L51.442,29.978z"/>
		<linearGradient id="SVGID_22_" gradientUnits="userSpaceOnUse" x1="34.5617" y1="24.1725" x2="35.145" y2="31.0892">
			<stop  offset="0" style="stop-color:#E6E6E6"/>
			<stop  offset="0.179" style="stop-color:#EBEBEB"/>
			<stop  offset="0.2943" style="stop-color:#F2F2F2"/>
			<stop  offset="0.6307" style="stop-color:#D2D3D3"/>
			<stop  offset="1" style="stop-color:#B3B3B3"/>
		</linearGradient>
		<path style="fill:url(#SVGID_22_);" d="M51.442,29.978C50.848,22.023,43.5,22,43.5,22l-25,4c0,0,1,17,1,13.191s3-5.191,3-5.191
			l17-3c4-1,4,2,4,2v7.5c0,1.105,1.791,2,4,2s4-0.895,4-2V30L51.442,29.978z"/>
		<linearGradient id="SVGID_23_" gradientUnits="userSpaceOnUse" x1="12.1702" y1="30.75" x2="19.001" y2="30.75">
			<stop  offset="0" style="stop-color:#E6E6E6"/>
			<stop  offset="0.179" style="stop-color:#EBEBEB"/>
			<stop  offset="0.2943" style="stop-color:#F2F2F2"/>
			<stop  offset="0.6307" style="stop-color:#D2D3D3"/>
			<stop  offset="1" style="stop-color:#B3B3B3"/>
		</linearGradient>
		<path style="fill:url(#SVGID_23_);" d="M11.5,10.5V49c0,1.105,1.791,2,4,2s4-0.895,4-2V10.5H11.5z"/>
		<path style="fill:none;stroke:#797979;stroke-linecap:round;stroke-linejoin:round;stroke-miterlimit:1;" d="M19.501,21.5
			c0,0.828-1.791,1.5-4,1.5s-4-0.672-4-1.5"/>
		<path style="fill:none;stroke:#797979;stroke-linecap:round;stroke-linejoin:round;stroke-miterlimit:1;" d="M19.501,39.5
			c0,0.828-1.791,1.5-4,1.5s-4-0.672-4-1.5"/>
		<path style="fill:none;stroke:#333332;stroke-linecap:round;stroke-linejoin:round;stroke-miterlimit:1;" d="M11.501,10.5V49
			c0,1.105,1.791,2,4,2s4-0.895,4-2V10.5H11.501z"/>
		<linearGradient id="SVGID_24_" gradientUnits="userSpaceOnUse" x1="16.3323" y1="11" x2="13.8692" y2="11">
			<stop  offset="0" style="stop-color:#ABABAB"/>
			<stop  offset="1" style="stop-color:#5B5B5B"/>
		</linearGradient>
		
			<ellipse style="fill:url(#SVGID_24_);stroke:#333332;stroke-linecap:round;stroke-linejoin:round;stroke-miterlimit:1;" cx="15.5" cy="11" rx="4" ry="1.5"/>
		<defs>
			<filter id="Adobe_OpacityMaskFilter_1_" filterUnits="userSpaceOnUse" x="45.481" y="25.5" width="0.709" height="16">
				<feColorMatrix  type="matrix" values="1 0 0 0 0  0 1 0 0 0  0 0 1 0 0  0 0 0 1 0"/>
			</filter>
		</defs>
		<mask maskUnits="userSpaceOnUse" x="45.481" y="25.5" width="0.709" height="16" id="SVGID_25_">
			<g style="filter:url(#Adobe_OpacityMaskFilter_1_);">
				<linearGradient id="SVGID_26_" gradientUnits="userSpaceOnUse" x1="45.5324" y1="37.4411" x2="45.5324" y2="27.5284">
					<stop  offset="0" style="stop-color:#FFFFFF"/>
					<stop  offset="1" style="stop-color:#000000"/>
				</linearGradient>
				<rect x="43.192" y="21.727" style="fill:url(#SVGID_26_);" width="4.681" height="20.269"/>
			</g>
		</mask>
		<g style="mask:url(#SVGID_25_);filter:url(#DS_GaussianBlur_2);">
			<polygon style="fill:#FFFFFF;" points="45.481,41.5 46.19,41.5 46.19,30.381 45.481,25.5 			"/>
		</g>
		<g style="opacity:0.3;filter:url(#DS_GaussianBlur_2);">
			<path style="fill:#FFFFFF;" d="M45.481,41.5c2.259,1.676,4.519,0,4.519,0s0.231-6.345,0-11.119
				c-1.093-5.252-4.688-6.261-4.688-6.261L45.481,41.5z"/>
		</g>
		<path style="fill:none;stroke:#797979;stroke-width:1.069;stroke-linecap:round;stroke-linejoin:round;stroke-miterlimit:1;" d="
			M51.501,32.5c0,0.828-1.791,1.5-4,1.5c-2.209,0-4-0.672-4-1.5"/>
		<g style="opacity:0.5;">
			<defs>
				<path id="SVGID_27_" style="opacity:0.5;" d="M51.442,29.978C50.848,22.023,43.5,22,43.5,22l-25,4c0,0,1,17,1,13.191
					s3-5.191,3-5.191l17-3c4-1,4,2,4,2v7.5c0,1.105,1.791,2,4,2s4-0.895,4-2V30L51.442,29.978z"/>
			</defs>
			<clipPath id="SVGID_28_">
				<use xlink:href="#SVGID_27_"  style="overflow:visible;"/>
			</clipPath>
			<g style="opacity:0.2;clip-path:url(#SVGID_28_);filter:url(#DS_GaussianBlur_2);">
				<g>
					<path d="M51.379,30.228c-0.594-7.955-7.942-7.978-7.942-7.978l-0.308,0.049c2.164,0.785,6.455,2.724,6.808,7.451v10.5
						c0,1.047-3.114,1.896-5.162,1.983c0.708,0.318,1.635,0.517,2.662,0.517c2.209,0,4-0.895,4-2v-10.5L51.379,30.228z"/>
				</g>
			</g>
		</g>
		<path style="fill:none;stroke:#797979;stroke-linecap:round;stroke-linejoin:round;stroke-miterlimit:1;" d="M24,25
			c1.381,0,2.5,1.903,2.5,4.25s-1.138,4.273-2.5,4.5"/>
		<path style="fill:none;stroke:#797979;stroke-linecap:round;stroke-linejoin:round;stroke-miterlimit:1;" d="M36,23.5
			c1.381,0,2.5,1.87,2.5,4.177s-1.155,3.937-2.501,4.248"/>
		<path style="fill:none;stroke:#333332;stroke-width:0.9806;stroke-linecap:round;stroke-linejoin:round;stroke-miterlimit:1;" d="
			M51.442,29.978C50.848,22.023,43.5,22,43.5,22l-24,3.84c0,0,0,17.16,0,13.351s3-5.191,3-5.191l17-3c4-1,4,2,4,2v7.5
			c0,1.105,1.791,2,4,2s4-0.895,4-2V30L51.442,29.978z"/>
		<path style="fill:#B4B4B4;" d="M20.139,35.462c-0.587,0.747-1.172,2.033-1.148,2.687c0.003,0.089-0.086,0.026-0.086,0.026
			s-0.055-13.728-0.05-12.728c0,0,0.145-0.024,0.149,0.077c0.036,1.021,1.081,0.721,1.081,0.721L20.139,35.462z"/>
		<g>
			<g>
				<linearGradient id="SVGID_29_" gradientUnits="userSpaceOnUse" x1="31.5063" y1="21.6" x2="33.3936" y2="24.869">
					<stop  offset="0" style="stop-color:#ABABAB"/>
					<stop  offset="1" style="stop-color:#5B5B5B"/>
				</linearGradient>
				<path style="fill:url(#SVGID_29_);stroke:#333332;stroke-linecap:round;stroke-linejoin:round;stroke-miterlimit:1;" d="
					M30.5,22v2.5c0,0.552,0.895,1,2,1s2-0.448,2-1V22H30.5z"/>
				<linearGradient id="SVGID_30_" gradientUnits="userSpaceOnUse" x1="31.8848" y1="20.4344" x2="32.9974" y2="22.3615">
					<stop  offset="0" style="stop-color:#ABABAB"/>
					<stop  offset="1" style="stop-color:#5B5B5B"/>
				</linearGradient>
				
					<ellipse style="fill:url(#SVGID_30_);stroke:#333332;stroke-linecap:round;stroke-linejoin:round;stroke-miterlimit:1;" cx="32.5" cy="21.5" rx="2" ry="1"/>
			</g>
			<linearGradient id="SVGID_31_" gradientUnits="userSpaceOnUse" x1="31.7795" y1="17.7877" x2="33.3431" y2="20.4959">
				<stop  offset="0" style="stop-color:#F5F6F6"/>
				<stop  offset="0.9921" style="stop-color:#D2D3D3"/>
			</linearGradient>
			<path style="fill:url(#SVGID_31_);stroke:#333332;stroke-linecap:round;stroke-linejoin:round;stroke-miterlimit:1;" d="
				M31.5,17.5v3c0,0.276,0.448,0.5,1,0.5s1-0.224,1-0.5v-3H31.5z"/>
			<g>
				<g>
					<linearGradient id="SVGID_32_" gradientUnits="userSpaceOnUse" x1="35.34" y1="19.4191" x2="29.6271" y2="9.5239">
						<stop  offset="0" style="stop-color:#386F8D"/>
						<stop  offset="1" style="stop-color:#8DD7F4"/>
					</linearGradient>
					
						<ellipse style="fill:url(#SVGID_32_);stroke:#053755;stroke-linecap:round;stroke-linejoin:round;stroke-miterlimit:1;" cx="32.5" cy="14.5" rx="7" ry="3"/>
					<g style="opacity:0.5;">
						<path style="fill:#FFFFFF;" d="M33.25,16c-3.176,0-5.75-1.007-5.75-2.25c0-0.409,0.283-0.791,0.77-1.122
							c-1.089,0.409-1.77,0.984-1.77,1.622c0,1.243,2.574,2.25,5.75,2.25c2.131,0,3.986-0.455,4.98-1.128
							C36.196,15.76,34.796,16,33.25,16z"/>
					</g>
					<linearGradient id="SVGID_33_" gradientUnits="userSpaceOnUse" x1="30.1731" y1="12.6676" x2="36.5519" y2="13.5788">
						<stop  offset="0" style="stop-color:#2A5B79"/>
						<stop  offset="1" style="stop-color:#84BEDC"/>
					</linearGradient>
					
						<ellipse style="fill:url(#SVGID_33_);stroke:#053755;stroke-linecap:round;stroke-linejoin:round;stroke-miterlimit:1;" cx="32.5" cy="13" rx="4" ry="1.5"/>
				</g>
				<linearGradient id="SVGID_34_" gradientUnits="userSpaceOnUse" x1="31" y1="14" x2="34" y2="14">
					<stop  offset="0" style="stop-color:#2A5B79"/>
					<stop  offset="1" style="stop-color:#84BEDC"/>
				</linearGradient>
				
					<ellipse style="fill:url(#SVGID_34_);stroke:#053755;stroke-linecap:round;stroke-linejoin:round;stroke-miterlimit:1;" cx="32.5" cy="14" rx="1.5" ry="0.5"/>
			</g>
		</g>
	</g>
	<g>
		<linearGradient id="SVGID_35_" gradientUnits="userSpaceOnUse" x1="44.9909" y1="32.9579" x2="56.5467" y2="52.9732">
			<stop  offset="0" style="stop-color:#F5F6F6"/>
			<stop  offset="0.9921" style="stop-color:#D2D3D3"/>
		</linearGradient>
		<polygon style="fill:url(#SVGID_35_);stroke:#333332;stroke-linecap:round;stroke-linejoin:round;stroke-miterlimit:1;" points="
			43.5,30.5 43.5,47.5 57.5,54.5 57.5,37.5 		"/>
		<linearGradient id="SVGID_36_" gradientUnits="userSpaceOnUse" x1="54.2231" y1="48.4486" x2="49.375" y2="40.0514">
			<stop  offset="0" style="stop-color:#161616"/>
			<stop  offset="1" style="stop-color:#515151"/>
		</linearGradient>
		<polygon style="fill-rule:evenodd;clip-rule:evenodd;fill:url(#SVGID_36_);" points="55,42 55,39 52,39 52,40 51,40 50,40 50,41 
			50,43 49,43 49,42 46,42 46,45 49,45 49,44 50,44 50,46 50,47 51,47 52,47 52,48 55,48 55,45 52,45 52,46 51,46 51,44 51,43 
			51,41 52,41 52,42 		"/>
	</g>
</g>
</svg>
