<svg id="Layer_4" data-name="Layer 4" xmlns="http://www.w3.org/2000/svg" xmlns:xlink="http://www.w3.org/1999/xlink" viewBox="0 0 64 64"><defs><linearGradient id="linear-gradient" x1="17.64" y1="12.07" x2="41.47" y2="53.35" gradientUnits="userSpaceOnUse"><stop offset="0" stop-color="#f5f6f6"/><stop offset="0.99" stop-color="#d2d3d3"/></linearGradient><linearGradient id="linear-gradient-2" x1="16.06" y1="13.87" x2="23.53" y2="26.8" gradientUnits="userSpaceOnUse"><stop offset="0" stop-color="#55b432"/><stop offset="1" stop-color="#379614"/></linearGradient><linearGradient id="linear-gradient-3" x1="17.61" y1="23.13" x2="26.78" y2="39.03" gradientUnits="userSpaceOnUse"><stop offset="0" stop-color="#fae664"/><stop offset="1" stop-color="#f0cd28"/></linearGradient><linearGradient id="linear-gradient-4" x1="12.58" y1="35.73" x2="20.81" y2="43.96" gradientUnits="userSpaceOnUse"><stop offset="0" stop-color="#fa3c05"/><stop offset="1" stop-color="#c81400"/></linearGradient><linearGradient id="linear-gradient-5" x1="17.19" y1="12.63" x2="26.84" y2="29.34" gradientUnits="userSpaceOnUse"><stop offset="0" stop-color="#3c9b19"/><stop offset="0.99" stop-color="#28780a"/></linearGradient><linearGradient id="linear-gradient-6" x1="43.3" y1="29.95" x2="49.9" y2="41.38" xlink:href="#linear-gradient-2"/><linearGradient id="linear-gradient-7" x1="43.05" y1="29.52" x2="50.15" y2="41.81" xlink:href="#linear-gradient-5"/></defs><title>O3D_QKM_AP_AppIcon</title><polygon points="49.5 53 8.5 44 8.5 10.5 49.5 19.5 49.5 53" stroke="#333332" stroke-linecap="round" stroke-linejoin="round" fill="url(#linear-gradient)"/><polygon points="28.09 24.16 11.5 20.42 11.5 16.5 28.09 20.25 28.09 24.16" fill="url(#linear-gradient-2)"/><polygon points="32.89 35.5 11.5 30.58 11.5 26.66 32.89 31.58 32.89 35.5" fill="url(#linear-gradient-3)"/><polygon points="21.59 42.88 11.5 40.42 11.5 36.5 21.59 38.96 21.59 42.88" fill="url(#linear-gradient-4)"/><polygon points="32.5 25.5 11.5 20.42 11.5 16.5 32.5 21.5 32.5 25.5" fill="none" stroke-linecap="round" stroke-linejoin="round" stroke="url(#linear-gradient-5)"/><polygon points="32.5 35.5 11.5 30.58 11.5 26.66 32.5 31.5 32.5 35.5" fill="none" stroke="#963200" stroke-linecap="round" stroke-linejoin="round"/><polygon points="32.5 45.5 11.5 40.42 11.5 36.5 32.5 41.5 32.5 45.5" fill="none" stroke="#831300" stroke-linecap="round" stroke-linejoin="round"/><path d="M37.87,33.09,35.5,38.68l9,5.82S47.5,33,56,30l-3-5.5c-5,2-9.5,8-10.5,14Z" stroke-linecap="round" stroke-linejoin="round" fill="url(#linear-gradient-6)" stroke="url(#linear-gradient-7)"/></svg>