<svg id="_1X_copy" data-name="1X  *** copy" xmlns="http://www.w3.org/2000/svg" xmlns:xlink="http://www.w3.org/1999/xlink" viewBox="0 0 64 64"><defs><style>.cls-1,.cls-4,.cls-6{fill:none;}.cls-2{fill:url(#radial-gradient);}.cls-3{clip-path:url(#clip-path);}.cls-4{stroke:#000;}.cls-4,.cls-6{stroke-miterlimit:10;stroke-width:0.14px;}.cls-5{fill:url(#radial-gradient-2);}.cls-6{stroke:#020000;opacity:0.5;}.cls-7{fill:#fff;}</style><radialGradient id="radial-gradient" cx="24.45" cy="19.5" r="33.01" gradientUnits="userSpaceOnUse"><stop offset="0.05" stop-color="#fff"/><stop offset="0.09" stop-color="#f7fcff"/><stop offset="0.4" stop-color="#c0e5fb"/><stop offset="0.55" stop-color="#aadcfa"/><stop offset="0.77" stop-color="#2d6d8b"/><stop offset="0.81" stop-color="#327290"/><stop offset="0.85" stop-color="#417f9d"/><stop offset="0.9" stop-color="#5a95b3"/><stop offset="0.95" stop-color="#7cb3d1"/><stop offset="1" stop-color="#a7daf8"/><stop offset="1" stop-color="#aadcfa"/></radialGradient><clipPath id="clip-path"><polygon class="cls-1" points="8.78 56.33 24.42 56.23 34.18 51.74 35.87 46.65 27.29 42.46 26.98 34.38 35.46 29.3 33.57 20.52 30.77 15.01 27.78 12.23 24.29 11 8.78 11 8.78 56.33"/></clipPath><radialGradient id="radial-gradient-2" cx="24.45" cy="19.5" r="33.01" gradientUnits="userSpaceOnUse"><stop offset="0.05" stop-color="#fff"/><stop offset="0.36" stop-color="#d4d4d4"/><stop offset="0.55" stop-color="#bebebe"/><stop offset="0.77" stop-color="#797979"/><stop offset="0.82" stop-color="#7e7e7e"/><stop offset="0.88" stop-color="#8d8d8d"/><stop offset="0.95" stop-color="#a5a5a5"/><stop offset="1" stop-color="#bebebe"/></radialGradient></defs><title>ddd__A33AAe__R21XArtboard 1</title><g id="sphere_gauche" data-name="sphere  gauche"><path id="ooool" class="cls-2" d="M52.91,32.59A20.35,20.35,0,1,1,32.57,12.24,20.35,20.35,0,0,1,52.91,32.59Z"/><polygon class="cls-1" points="54.78 56.33 24.42 56.23 34.18 51.74 35.87 46.65 27.29 42.46 26.98 34.38 35.46 29.3 33.57 20.52 30.77 15.01 27.77 12.22 24.29 11 54.78 11 54.78 56.33"/></g><g id="sphere_DROIT" data-name="sphere   DROIT"><g class="cls-3"><path id="triangle" class="cls-4" d="M35.46,29.28,27.68,25.9l5.78-5.57ZM24.1,19.91l3.58,6,5.78-5.57ZM20,28.6l7.68-2.7-3.58-6Zm6.88,5.87.8-8.57L20,28.6Zm8.58-5.19L27.68,25.9l-.8,8.57Zm-8.58,5.19,9.17,4.21-.59-9.4Zm8.58-5.19.59,9.4,7-5.6ZM43,33.08l-7,5.6,7,3.57Zm0,9.17-7-3.57-.19,8Zm-7.18,4.39.19-8-8.76,4Zm-8.57-4,8.76-4-9.17-4.21Zm-.41-8.19-7.77,3.41,8.18,4.78ZM20,28.6l-.89,9.28,7.77-3.41Zm-5.29,3.07,4.4,6.21L20,28.6Zm.61,9,3.79-2.8-4.4-6.21Zm5.46,4.94-1.67-7.74-3.79,2.8Zm6.51-3-8.18-4.78,1.67,7.74Zm-6.51,3L28.38,49l-1.09-6.29Zm4.5,5.6L28.38,49l-7.6-3.33Zm8.79.62L28.38,49l-3.1,2.27Zm1.79-5.2L28.38,49l5.69,2.89Zm-8.57-4L28.38,49l7.48-2.31Zm8.57,4,6,2,1.2-6.4Zm-1.79,5.2,7.77-3.19-6-2Zm5.17,0,2.6-3.19-7.77,3.19Zm7.58-4.6-5,1.41-2.6,3.19Zm2-4.58-7,6,5-1.41ZM43,42.25l-1.2,6.4,7-6Zm0-9.17,5.37,3.4.6-8Zm0,9.17,5.36-5.77L43,33.08Zm5.79.41-.43-6.18L43,42.25Zm3.4-8.16-3.83,2,.43,6.18Zm-3.23-6-.6,8,3.83-2Zm-2.17-7.56-5,3L49,28.48Zm-7.94-4.43,2.92,7.4,5-3Zm-5.43,3.84,8.35,3.56-2.92-7.4Zm2,9,6.35-5.39-8.35-3.56ZM49,28.48l-7.19-4.59L43,33.08Zm-6,4.6-1.22-9.19-6.35,5.39ZM35.86,12.53l-5.21,2,8.24,2Zm-7.59,0,2.38,2,5.21-2Zm-6.19,3.78,8.57-1.78-2.38-2Zm2,3.6,6.55-5.38-8.57,1.78Zm14.79-3.42-8.24-2,2.81,5.8Zm-5.43,3.84-2.81-5.8L24.1,19.91Zm-11.38-4-5.38,7,7.4-3.4Zm-6,3.82.6,3.18,5.38-7Zm-3.19,7,3.79-3.78-.6-3.18Zm1.8,4.58,2-8.36-3.79,3.78ZM24.1,19.91l-7.4,3.4L20,28.6ZM20,28.6l-3.3-5.29-2,8.36Zm-7.09-1.51-.6,7.59,2.4-3Zm1.8,4.58-2.4,3,3,6Zm.61,9-3-6,1.39,6Zm-1.62,0,4.18,6-2.56-6Zm1.62,0,2.56,6,2.9-1Zm5.46,4.94-2.9,1,7.4,4.57Zm4.5,5.6-7.4-4.57,5.6,4Zm0,0,6.21,1.65,2.58-1Zm8.79.62-2.58,1,7.75-1ZM46.83,20.92,49,28.48l2.83-2.22Zm5,5.34L49,28.48l3.23,6Zm0,0-3.62-7.13-1.38,1.79Zm.4,8.24L53,32.29l-1.17-6Zm-5.4-13.58L49,28.48l2.83-2.22Zm5,5.34L49,28.48l3.23,6Zm0,0-3.62-7.13-1.38,1.79Zm.4,8.24L53,32.29l-1.17-6Zm-16.37-22,7.18,3-1.37-1.22Zm3,4,4.15-1-7.18-3Zm7.94,4.43L43,15.53l-4.15,1Zm1.38-1.79L43,15.53l3.79,5.39Zm-6.54-4.82L43,15.53l5.17,3.6Zm-20.21.79-5.36,5,6-3.82Zm.62,1.21,6.19-3.78L21.46,15.1ZM51.61,40l.62-5.54-3.4,8.16Zm-2.78,2.62-2,4.58L51.61,40ZM51.61,40,53,32.29l-.77,2.21Z"/><path id="ooool-2" data-name="ooool" class="cls-5" d="M52.91,32.59A20.35,20.35,0,1,1,32.57,12.24,20.35,20.35,0,0,1,52.91,32.59Z"/><path id="triangle-2" data-name="triangle" class="cls-4" d="M35.46,29.28,27.68,25.9l5.78-5.57ZM24.1,19.91l3.58,6,5.78-5.57ZM20,28.6l7.68-2.7-3.58-6Zm6.88,5.87.8-8.57L20,28.6Zm8.58-5.19L27.68,25.9l-.8,8.57Zm-8.58,5.19,9.17,4.21-.59-9.4Zm8.58-5.19.59,9.4,7-5.6ZM43,33.08l-7,5.6,7,3.57Zm0,9.17-7-3.57-.19,8Zm-7.18,4.39.19-8-8.76,4Zm-8.57-4,8.76-4-9.17-4.21Zm-.41-8.19-7.77,3.41,8.18,4.78ZM20,28.6l-.89,9.28,7.77-3.41Zm-5.29,3.07,4.4,6.21L20,28.6Zm.61,9,3.79-2.8-4.4-6.21Zm5.46,4.94-1.67-7.74-3.79,2.8Zm6.51-3-8.18-4.78,1.67,7.74Zm-6.51,3L28.38,49l-1.09-6.29Zm4.5,5.6L28.38,49l-7.6-3.33Zm8.79.62L28.38,49l-3.1,2.27Zm1.79-5.2L28.38,49l5.69,2.89Zm-8.57-4L28.38,49l7.48-2.31Zm8.57,4,6,2,1.2-6.4Zm-1.79,5.2,7.77-3.19-6-2Zm5.17,0,2.6-3.19-7.77,3.19Zm7.58-4.6-5,1.41-2.6,3.19Zm2-4.58-7,6,5-1.41ZM43,42.25l-1.2,6.4,7-6Zm0-9.17,5.37,3.4.6-8Zm0,9.17,5.36-5.77L43,33.08Zm5.79.41-.43-6.18L43,42.25Zm3.4-8.16-3.83,2,.43,6.18Zm-3.23-6-.6,8,3.83-2Zm-2.17-7.56-5,3L49,28.48Zm-7.94-4.43,2.92,7.4,5-3Zm-5.43,3.84,8.35,3.56-2.92-7.4Zm2,9,6.35-5.39-8.35-3.56ZM49,28.48l-7.19-4.59L43,33.08Zm-6,4.6-1.22-9.19-6.35,5.39ZM35.86,12.53l-5.21,2,8.24,2Zm-7.59,0,2.38,2,5.21-2Zm-6.19,3.78,8.57-1.78-2.38-2Zm2,3.6,6.55-5.38-8.57,1.78Zm14.79-3.42-8.24-2,2.81,5.8Zm-5.43,3.84-2.81-5.8L24.1,19.91Zm-11.38-4-5.38,7,7.4-3.4Zm-6,3.82.6,3.18,5.38-7Zm-3.19,7,3.79-3.78-.6-3.18Zm1.8,4.58,2-8.36-3.79,3.78ZM24.1,19.91l-7.4,3.4L20,28.6ZM20,28.6l-3.3-5.29-2,8.36Zm-7.09-1.51-.6,7.59,2.4-3Zm1.8,4.58-2.4,3,3,6Zm.61,9-3-6,1.39,6Zm-1.62,0,4.18,6-2.56-6Zm1.62,0,2.56,6,2.9-1Zm5.46,4.94-2.9,1,7.4,4.57Zm4.5,5.6-7.4-4.57,5.6,4Zm0,0,6.21,1.65,2.58-1Zm8.79.62-2.58,1,7.75-1ZM46.83,20.92,49,28.48l2.83-2.22Zm5,5.34L49,28.48l3.23,6Zm0,0-3.62-7.13-1.38,1.79Zm.4,8.24L53,32.29l-1.17-6Zm-5.4-13.58L49,28.48l2.83-2.22Zm5,5.34L49,28.48l3.23,6Zm0,0-3.62-7.13-1.38,1.79Zm.4,8.24L53,32.29l-1.17-6Zm-16.37-22,7.18,3-1.37-1.22Zm3,4,4.15-1-7.18-3Zm7.94,4.43L43,15.53l-4.15,1Zm1.38-1.79L43,15.53l3.79,5.39Zm-6.54-4.82L43,15.53l5.17,3.6Zm-20.21.79-5.36,5,6-3.82Zm.62,1.21,6.19-3.78L21.46,15.1ZM51.61,40l.62-5.54-3.4,8.16Zm-2.78,2.62-2,4.58L51.61,40ZM51.61,40,53,32.29l-.77,2.21Z"/><path id="triangle-3" data-name="triangle" class="cls-6" d="M35.46,29.28,27.68,25.9l5.78-5.57ZM24.1,19.91l3.58,6,5.78-5.57ZM20,28.6l7.68-2.7-3.58-6Zm6.88,5.87.8-8.57L20,28.6Zm8.58-5.19L27.68,25.9l-.8,8.57Zm-8.58,5.19,9.17,4.21-.59-9.4Zm8.58-5.19.59,9.4,7-5.6ZM43,33.08l-7,5.6,7,3.57Zm0,9.17-7-3.57-.19,8Zm-7.18,4.39.19-8-8.76,4Zm-8.57-4,8.76-4-9.17-4.21Zm-.41-8.19-7.77,3.41,8.18,4.78ZM20,28.6l-.89,9.28,7.77-3.41Zm-5.29,3.07,4.4,6.21L20,28.6Zm.61,9,3.79-2.8-4.4-6.21Zm5.46,4.94-1.67-7.74-3.79,2.8Zm6.51-3-8.18-4.78,1.67,7.74Zm-6.51,3L28.38,49l-1.09-6.29Zm4.5,5.6L28.38,49l-7.6-3.33Zm8.79.62L28.38,49l-3.1,2.27Zm1.79-5.2L28.38,49l5.69,2.89Zm-8.57-4L28.38,49l7.48-2.31Zm8.57,4,6,2,1.2-6.4Zm-1.79,5.2,7.77-3.19-6-2Zm5.17,0,2.6-3.19-7.77,3.19Zm7.58-4.6-5,1.41-2.6,3.19Zm2-4.58-7,6,5-1.41ZM43,42.25l-1.2,6.4,7-6Zm0-9.17,5.37,3.4.6-8Zm0,9.17,5.36-5.77L43,33.08Zm5.79.41-.43-6.18L43,42.25Zm3.4-8.16-3.83,2,.43,6.18Zm-3.23-6-.6,8,3.83-2Zm-2.17-7.56-5,3L49,28.48Zm-7.94-4.43,2.92,7.4,5-3Zm-5.43,3.84,8.35,3.56-2.92-7.4Zm2,9,6.35-5.39-8.35-3.56ZM49,28.48l-7.19-4.59L43,33.08Zm-6,4.6-1.22-9.19-6.35,5.39ZM35.86,12.53l-5.21,2,8.24,2Zm-7.59,0,2.38,2,5.21-2Zm-6.19,3.78,8.57-1.78-2.38-2Zm2,3.6,6.55-5.38-8.57,1.78Zm14.79-3.42-8.24-2,2.81,5.8Zm-5.43,3.84-2.81-5.8L24.1,19.91Zm-11.38-4-5.38,7,7.4-3.4Zm-6,3.82.6,3.18,5.38-7Zm-3.19,7,3.79-3.78-.6-3.18Zm1.8,4.58,2-8.36-3.79,3.78ZM24.1,19.91l-7.4,3.4L20,28.6ZM20,28.6l-3.3-5.29-2,8.36Zm-7.09-1.51-.6,7.59,2.4-3Zm1.8,4.58-2.4,3,3,6Zm.61,9-3-6,1.39,6Zm-1.62,0,4.18,6-2.56-6Zm1.62,0,2.56,6,2.9-1Zm5.46,4.94-2.9,1,7.4,4.57Zm4.5,5.6-7.4-4.57,5.6,4Zm0,0,6.21,1.65,2.58-1Zm8.79.62-2.58,1,7.75-1ZM46.83,20.92,49,28.48l2.83-2.22Zm5,5.34L49,28.48l3.23,6Zm0,0-3.62-7.13-1.38,1.79Zm.4,8.24L53,32.29l-1.17-6Zm-5.4-13.58L49,28.48l2.83-2.22Zm5,5.34L49,28.48l3.23,6Zm0,0-3.62-7.13-1.38,1.79Zm.4,8.24L53,32.29l-1.17-6Zm-16.37-22,7.18,3-1.37-1.22Zm3,4,4.15-1-7.18-3Zm7.94,4.43L43,15.53l-4.15,1Zm1.38-1.79L43,15.53l3.79,5.39Zm-6.54-4.82L43,15.53l5.17,3.6Zm-20.21.79-5.36,5,6-3.82Zm.62,1.21,6.19-3.78L21.46,15.1ZM51.61,40l.62-5.54-3.4,8.16Zm-2.78,2.62-2,4.58L51.61,40ZM51.61,40,53,32.29l-.77,2.21Z"/></g></g><g id="bord_" data-name="bord***"><path class="cls-7" d="M31,53.14c1-.53,2.06-1.1,3.11-1.61l-.11.12,1.63-5.08.13.32c-2.88-1.36-5.74-2.75-8.61-4.14L27,42.67v-.2l-.33-8.07v-.21l.18-.11L35.3,29l-.15.34q-.94-4.38-1.83-8.79l0,.06-2.73-5.54,0,.05-2.56-2.53,2.8,2.26,0,0,0,0,2.86,5.47v.07q1,4.37,2,8.76l0,.22-.2.12-8.45,5.12.17-.32.27,8.08-.18-.28C30.28,43.58,33.14,45,36,46.42l.21.1-.07.22-1.75,5,0,.09-.08,0C33.18,52.34,32.08,52.72,31,53.14Z"/></g><g id="bord_separation_" data-name="bord separation **"><polygon class="cls-7" points="30.98 53.14 34.17 51.69 34.16 51.7 35.84 46.64 35.85 46.68 27.26 42.51 27.23 42.5 27.23 42.47 26.91 34.39 26.91 34.35 26.95 34.32 35.44 29.25 35.41 29.31 33.54 20.52 33.54 20.53 30.76 15.02 30.76 15.02 28.09 12.61 30.79 14.99 30.79 15 30.79 15 33.59 20.5 33.6 20.51 33.6 20.51 35.51 29.29 35.52 29.32 35.49 29.34 27.02 34.45 27.05 34.38 27.34 42.46 27.31 42.41 35.88 46.62 35.91 46.63 35.9 46.66 34.2 51.72 34.2 51.73 34.19 51.73 30.98 53.14"/></g></svg>