<svg id="_64_1X_ok_49050_copy" data-name="64  1X    ok   49050 copy" xmlns="http://www.w3.org/2000/svg" xmlns:xlink="http://www.w3.org/1999/xlink" viewBox="0 0 64 64"><defs><style>.cls-1{fill:url(#linear-gradient);}.cls-2{fill:#323232;}.cls-3{fill:url(#Medium_BLUE_gradient_FRONT);}.cls-4{fill:#003755;}.cls-5{fill:#b0b0b0;}.cls-6{fill:url(#linear-gradient-2);}.cls-7{fill:#acacac;}.cls-8{fill:url(#linear-gradient-3);}.cls-9{fill:#787878;}.cls-10{fill:url(#linear-gradient-4);}.cls-11{fill:url(#Medium_BLUE_gradient_FRONT-2);}.cls-12{stroke:#6d6d6d;fill:url(#linear-gradient-5);}.cls-12,.cls-13,.cls-14,.cls-15{stroke-miterlimit:10;stroke-width:0.75px;}.cls-13{stroke:#00415f;fill:url(#linear-gradient-6);}.cls-14{fill:#2d2d2d;stroke-linecap:round;}.cls-14,.cls-15{stroke:#2d2d2d;}.cls-15{fill:url(#linear-gradient-7);}</style><linearGradient id="linear-gradient" x1="11.65" y1="11.61" x2="88.55" y2="64.08" gradientUnits="userSpaceOnUse"><stop offset="0" stop-color="#fff"/><stop offset="1" stop-color="#b3b3b3"/></linearGradient><linearGradient id="Medium_BLUE_gradient_FRONT" x1="10" y1="11" x2="54" y2="11" gradientUnits="userSpaceOnUse"><stop offset="0" stop-color="#8cd7f5"/><stop offset="1" stop-color="#376e8c"/></linearGradient><linearGradient id="linear-gradient-2" x1="2.52" y1="27.68" x2="49.74" y2="59.9" xlink:href="#linear-gradient"/><linearGradient id="linear-gradient-3" x1="20.1" y1="21.89" x2="28.6" y2="35.09" gradientUnits="userSpaceOnUse"><stop offset="0" stop-color="#fff"/><stop offset="1" stop-color="#bfbfbf"/></linearGradient><linearGradient id="linear-gradient-4" x1="20.95" y1="40.6" x2="36.05" y2="50.4" xlink:href="#linear-gradient"/><linearGradient id="Medium_BLUE_gradient_FRONT-2" x1="26.84" y1="39.06" x2="37.28" y2="45.84" xlink:href="#Medium_BLUE_gradient_FRONT"/><linearGradient id="linear-gradient-5" x1="139.98" y1="27.79" x2="135.68" y2="23.5" gradientTransform="translate(-86.12 66.96) rotate(-22.73)" gradientUnits="userSpaceOnUse"><stop offset="0.1" stop-color="#575757"/><stop offset="0.5" stop-color="#c4c4c4"/><stop offset="1" stop-color="#fff"/></linearGradient><linearGradient id="linear-gradient-6" x1="139.95" y1="27.82" x2="135.65" y2="23.52" gradientTransform="translate(-86.12 66.96) rotate(-22.73)" gradientUnits="userSpaceOnUse"><stop offset="0.1" stop-color="#195a72"/><stop offset="0.5" stop-color="#5a9cb5"/><stop offset="1" stop-color="#93d2f0"/></linearGradient><linearGradient id="linear-gradient-7" x1="144.89" y1="14.26" x2="149.04" y2="18.41" gradientTransform="translate(-86.12 66.96) rotate(-22.73)" gradientUnits="userSpaceOnUse"><stop offset="0" stop-color="#505050"/><stop offset="0.9" stop-color="#2d2d2d"/></linearGradient></defs><title>Correctif 02__R21XArtboard 1</title><g id="TABleau_copy" data-name="TABleau   *** copy"><g id="Tableau_" data-name="Tableau  **"><rect class="cls-1" x="10.5" y="10.5" width="43" height="30" rx="1.5"/><path class="cls-2" d="M52,11a1,1,0,0,1,1,1V39a1,1,0,0,1-1,1H12a1,1,0,0,1-1-1V12a1,1,0,0,1,1-1H52m0-1H12a2,2,0,0,0-2,2V39a2,2,0,0,0,2,2H52a2,2,0,0,0,2-2V12a2,2,0,0,0-2-2Z"/><path class="cls-3" d="M10,14V10a2.49,2.49,0,0,1,2-2H52a2.49,2.49,0,0,1,2,2v4Z"/><path class="cls-4" d="M52,9a1,1,0,0,1,1,1v3H11V10a1,1,0,0,1,1-1H52m0-1H12a2,2,0,0,0-2,2v4H54V10a2,2,0,0,0-2-2Z"/></g><g id="grille_copy" data-name="grille   ** copy"><rect id="v2" class="cls-5" x="24" y="14" width="1" height="26"/><rect id="v1" class="cls-5" x="39" y="14" width="1" height="26"/><rect id="h2" class="cls-5" x="11" y="22" width="42" height="1"/><rect id="h1" class="cls-5" x="11" y="31" width="42" height="1"/></g></g><g id="FEUILLE_copy" data-name="FEUILLE   *** copy"><g id="F_support" data-name="F   support"><path class="cls-6" d="M7,50.5a.5.5,0,0,1-.5-.5V22a.5.5,0,0,1,.5-.5H22a2.3,2.3,0,0,1,1.35.56l5.59,5.59A2.3,2.3,0,0,1,29.5,29V50a.5.5,0,0,1-.5.5Z"/><path class="cls-2" d="M22,22a1.85,1.85,0,0,1,1,.41L28.59,28A1.85,1.85,0,0,1,29,29V50H7V22H22m0-1H7a1,1,0,0,0-1,1V50a1,1,0,0,0,1,1H29a1,1,0,0,0,1-1V29a2.79,2.79,0,0,0-.71-1.71l-5.58-5.58A2.79,2.79,0,0,0,22,21Z"/></g><path id="txt_feuille" data-name="txt feuille" class="cls-7" d="M27,38H9V37H27Zm0,3H9v1H27Zm0-8H9v1H27Zm-8-4H9v1H19Z"/><g id="coin_feuille_copy" data-name="coin feuille    ** copy"><polygon id="surf_" data-name="surf **" class="cls-8" points="29 30 21 30 21 22 22 22 29 29 29 30"/><polygon id="bord_" data-name="bord **" class="cls-9" points="22 29 22 22 21 22 21 30 29 30 29 29 22 29"/></g></g><g id="camenbert_copy" data-name="camenbert   ** copy"><path class="cls-10" d="M28.5,54.5a9,9,0,1,1,9-9A9,9,0,0,1,28.5,54.5Z"/><path class="cls-2" d="M28.5,37A8.5,8.5,0,1,1,20,45.5,8.51,8.51,0,0,1,28.5,37m0-1A9.5,9.5,0,1,0,38,45.5,9.5,9.5,0,0,0,28.5,36Z"/><path class="cls-11" d="M28.5,45.5v-9a9,9,0,0,1,9,9Z"/><path class="cls-4" d="M29,37a8.52,8.52,0,0,1,8,8H29V37m-.5-1c-.17,0-.33,0-.5,0V46H38c0-.17,0-.33,0-.5A9.5,9.5,0,0,0,28.5,36Z"/></g><g id="ctryon_ok_" data-name="ctryon ok ***"><path class="cls-12" d="M56.53,23.34c-1.49-.62-3-.37-3.38.55L45.46,43.36c-.94,2.31-.15,8-.15,8s4.58-3.51,5.52-5.82L58.55,26.1C58.93,25.18,58,24,56.53,23.34Z"/><polygon class="cls-13" points="50.96 29.23 56.37 31.44 50.84 45.57 45.46 43.36 50.96 29.23"/><path class="cls-14" d="M47.84,49.23,45,48.06c.08,1.8.29,3.33.29,3.33S46.53,50.45,47.84,49.23Z"/><path class="cls-15" d="M58.55,26.1c.38-.92-.53-2.15-2-2.76s-3-.37-3.38.55l-.89,2.16,5.4,2.22Z"/></g></svg>