<svg id="Layer_50_copy" data-name="Layer 50 copy" xmlns="http://www.w3.org/2000/svg" xmlns:xlink="http://www.w3.org/1999/xlink" viewBox="0 0 64 64"><defs><style>.cls-1,.cls-12,.cls-13,.cls-20,.cls-22,.cls-23,.cls-24,.cls-25{fill:none;}.cls-2,.cls-4{fill:#323232;}.cls-10,.cls-11,.cls-12,.cls-2,.cls-8,.cls-9{stroke:#323232;}.cls-10,.cls-11,.cls-13,.cls-2,.cls-24,.cls-25,.cls-8,.cls-9{stroke-linecap:round;}.cls-10,.cls-11,.cls-2,.cls-23,.cls-24,.cls-8,.cls-9{stroke-linejoin:round;}.cls-2,.cls-24{stroke-width:0.99px;}.cls-3,.cls-9{fill:#797979;}.cls-5,.cls-8{fill:#e1e1e1;}.cls-6{fill:#f1f0f0;}.cls-10,.cls-7{fill:#fff;}.cls-10,.cls-11,.cls-20,.cls-8,.cls-9{stroke-width:0.14px;}.cls-11{fill:url(#top_white);}.cls-12,.cls-13,.cls-16,.cls-17,.cls-20,.cls-22,.cls-25{stroke-miterlimit:10;}.cls-13,.cls-16,.cls-17,.cls-23,.cls-25{stroke:#000;}.cls-14{clip-path:url(#clip-path);}.cls-15{opacity:0.6;}.cls-16{fill:#aadcfa;}.cls-16,.cls-17{stroke-width:0.28px;}.cls-17{fill:#285977;}.cls-18{fill:#5a9ab8;}.cls-19{fill:#5b7686;}.cls-20,.cls-24{stroke:#231f20;}.cls-21{clip-path:url(#clip-path-2);}.cls-22{stroke:#fff;}.cls-22,.cls-23{stroke-width:0.71px;}.cls-25{stroke-width:0.97px;}</style><linearGradient id="top_white" x1="15.06" y1="27.63" x2="36.63" y2="27.63" gradientUnits="userSpaceOnUse"><stop offset="0" stop-color="#fff"/><stop offset="1" stop-color="#f0f0f0"/></linearGradient><clipPath id="clip-path"><polygon class="cls-1" points="58 47.05 41.09 55.86 28.41 47.91 33.57 36.35 31.22 28.47 27.54 25.82 14.46 33.32 11.48 47.05 6 47.05 6 10.05 58 10.05 58 47.05"/></clipPath><clipPath id="clip-path-2"><polygon class="cls-1" points="14.24 33.58 13.49 39 7 39 7 28 13.71 28 15.22 32.58 14.24 33.58"/></clipPath></defs><title>ddd__A33AAe__R21XArtboard 1</title><g id="la_forme_de_depart_copy" data-name="la forme de depart copy"><path id="Pourtour" class="cls-2" d="M47.42,40.28l-3-1.73a2.71,2.71,0,0,1-1.18-1.87L42.16,26.47a3.42,3.42,0,0,0-1.46-2.33l-4.07-2.35a1.05,1.05,0,0,0-1.06-.08c-5.13,3-15.37,8.88-20.51,11.87l.1,0a.91.91,0,0,0-.49.76L14.09,39l-5,2.88,3.34,2.18a.85.85,0,0,0,1.09,0l8-4.63,1,9a3.53,3.53,0,0,0,1.58,2.33l3.23,1.73Z"/><path class="cls-3" d="M32.84,31.86,29.63,30,9.11,41.89l3.21,1.85a.85.85,0,0,0,.85.06L33.68,31.93A.81.81,0,0,1,32.84,31.86Z"/><path class="cls-4" d="M33.89,32.28c-5.14,3-15.38,8.89-20.52,11.88a.94.94,0,0,0,.43-.72L34.31,31.57A.91.91,0,0,1,33.89,32.28Z"/><path class="cls-4" d="M15.27,33.93a.75.75,0,0,0-.34.58L13.8,43.44,34.31,31.57l1.13-8.93a.76.76,0,0,1,.34-.58Z"/><polygon class="cls-5" points="23.9 50.42 44.42 38.55 47.42 40.28 27.26 52.26 23.9 50.42"/><path class="cls-6" d="M22.72,48.55,43.24,36.68a2.71,2.71,0,0,0,1.18,1.87L23.9,50.42A2.78,2.78,0,0,1,22.72,48.55Z"/><polygon class="cls-3" points="21.65 38.34 42.16 26.47 43.24 36.68 22.72 48.55 21.65 38.34"/><path class="cls-6" d="M20.18,36,40.7,24.14a3.42,3.42,0,0,1,1.46,2.33L21.65,38.35A3.42,3.42,0,0,0,20.18,36Z"/><polygon class="cls-5" points="16.11 33.66 36.63 21.79 40.7 24.14 20.18 36.01 16.11 33.66"/><path id="_01" data-name="01" class="cls-5" d="M15.06,33.58c5.14-3,15.38-8.89,20.51-11.87a1.05,1.05,0,0,1,1.06.08L16.11,33.67A1,1,0,0,0,15.06,33.58Z"/><g id="contour"><path class="cls-7" d="M32.84,31.86,29.63,30,9.11,41.89l3.21,1.85a.85.85,0,0,0,.85.06L33.68,31.93A.81.81,0,0,1,32.84,31.86Z"/><path class="cls-4" d="M15.27,33.93a.75.75,0,0,0-.34.58L13.8,43.44a.94.94,0,0,1-.43.72c5.14-3,15.38-8.89,20.52-11.88a.91.91,0,0,0,.42-.71l1.13-8.93a.76.76,0,0,1,.34-.58Z"/><polygon class="cls-8" points="23.9 50.42 44.42 38.55 47.42 40.28 27.26 52.26 23.9 50.42"/><path class="cls-9" d="M22.72,48.55,43.24,36.68a2.71,2.71,0,0,0,1.18,1.87L23.9,50.42A2.78,2.78,0,0,1,22.72,48.55Z"/><polygon class="cls-9" points="21.65 38.34 42.16 26.47 43.24 36.68 22.72 48.55 21.65 38.34"/><path class="cls-8" d="M20.18,36,40.7,24.14a3.42,3.42,0,0,1,1.46,2.33L21.65,38.35A3.42,3.42,0,0,0,20.18,36Z"/><polygon class="cls-10" points="16.11 33.66 36.63 21.79 40.7 24.14 20.18 36.01 16.11 33.66"/><path id="_01-2" data-name="01" class="cls-11" d="M15.06,33.58c5.14-3,15.38-8.89,20.51-11.87a1.05,1.05,0,0,1,1.06.08L16.11,33.67A1,1,0,0,0,15.06,33.58Z"/></g><path class="cls-4" d="M20.18,36a3.42,3.42,0,0,1,1.47,2.34l1.07,10.2a3.06,3.06,0,0,0,1.41,1.87l3.23,1.74v.33l-3.23-1.73a3.53,3.53,0,0,1-1.58-2.33L21.41,38.22a2.77,2.77,0,0,0-1.2-1.87L16.13,34c-.58-.33-1.12-.1-1.2.51L13.8,43.44c-.1.76-.64,1.05-1.35.63L8.86,42v-.34l3.59,2.06c.57.33,1,.1,1.12-.51l1.1-8.93c.09-.77.74-1,1.46-.63Z"/><line class="cls-12" x1="14.36" y1="38.06" x2="13.48" y2="44.21"/></g><g id="FL_dessous_copy" data-name="FL dessous copy"><line class="cls-13" x1="43.76" y1="35.09" x2="48.62" y2="32.17"/><polygon points="49.22 34.43 51.39 30.5 46.9 30.59 49.22 34.43"/><line class="cls-13" x1="42.32" y1="25.86" x2="45.13" y2="23.82"/><polygon points="45.91 26.03 47.75 21.93 43.28 22.39 45.91 26.03"/><line class="cls-13" x1="37.53" y1="21.56" x2="37.53" y2="17.26"/><polygon points="39.77 17.91 37.53 14.03 35.29 17.91 39.77 17.91"/><line class="cls-13" x1="29.54" y1="24.17" x2="29.54" y2="15.25"/><polygon points="31.78 15.9 29.54 12.02 27.29 15.9 31.78 15.9"/></g><g id="FL_MILIEU_copy" data-name="FL MILIEU copy"><line class="cls-13" x1="39.3" y1="32.28" x2="42.11" y2="30.25"/><polygon points="42.89 32.45 44.72 28.36 40.26 28.82 42.89 32.45"/><line class="cls-13" x1="39.3" y1="32.28" x2="42.11" y2="30.25"/><polygon points="42.89 32.45 44.72 28.36 40.26 28.82 42.89 32.45"/><line class="cls-13" x1="32.6" y1="25.59" x2="32.6" y2="21.29"/><polygon points="34.84 21.95 32.6 18.06 30.36 21.95 34.84 21.95"/><line class="cls-13" x1="25.4" y1="26.48" x2="25.4" y2="20.16"/><polygon points="27.64 20.82 25.4 16.93 23.16 20.82 27.64 20.82"/></g><g id="_Clip_Group_color_Extend" data-name="&lt;Clip Group&gt;  color Extend"><g class="cls-14"><g class="cls-15"><path class="cls-16" d="M29.31,28l-3.69-2.1-15.41,9L13.9,37a1.84,1.84,0,0,0,1.78.28l15.41-9A1.83,1.83,0,0,1,29.31,28Z"/><path id="IN" class="cls-17" d="M31.37,24.87l-2.87-9.2a4.89,4.89,0,0,1,0-3.51,1.94,1.94,0,0,1,.77-.87l-15.42,9a2,2,0,0,0-.77.86,4.93,4.93,0,0,0,0,3.52L16,33.83c.46,1.49.46,2.67,0,3.22a.82.82,0,0,1-.25.21l15.41-8.95a1.27,1.27,0,0,0,.25-.21C31.83,27.54,31.84,26.37,31.37,24.87Z"/><polygon class="cls-16" points="36.41 49.95 51.82 40.99 56.85 43.06 44.57 53.14 36.41 49.95"/><path class="cls-18" d="M49.89,38.82a3.87,3.87,0,0,1,0-3.23l2.91-5.86-15.41,9L34.5,44.55a3.81,3.81,0,0,0,0,3.22A4.6,4.6,0,0,0,36.41,50l15.41-9A4.62,4.62,0,0,1,49.89,38.82Z"/><path class="cls-16" d="M52.87,26.23a8.9,8.9,0,0,0-2.26-3.67,60.52,60.52,0,0,0-10-7.71A33.58,33.58,0,0,0,30.71,11a2.13,2.13,0,0,0-1.48.22l-15.42,9A2.21,2.21,0,0,1,15.3,20a33.58,33.58,0,0,1,9.85,3.81A60.23,60.23,0,0,1,35.2,31.52a9,9,0,0,1,2.26,3.67,4.89,4.89,0,0,1,0,3.5l15.41-9A4.84,4.84,0,0,0,52.87,26.23Z"/><path class="cls-19" d="M25.15,23.81A60.23,60.23,0,0,1,35.2,31.52a9,9,0,0,1,2.26,3.67,4.89,4.89,0,0,1,0,3.5L34.5,44.55a3.81,3.81,0,0,0,0,3.22A4.6,4.6,0,0,0,36.41,50l8.16,3.19L36.41,50a4.66,4.66,0,0,1-2-2.2,3.86,3.86,0,0,1,0-3.26l2.91-5.86a4.81,4.81,0,0,0,0-3.47,8.79,8.79,0,0,0-2.24-3.64,59.35,59.35,0,0,0-10-7.71A33.37,33.37,0,0,0,15.31,20a1.94,1.94,0,0,0-2.25,1.07,4.93,4.93,0,0,0,0,3.52L16,33.83c.46,1.49.46,2.67,0,3.22s-1.14.46-2-.06l-3.69-2.14L13.9,37c.9.52,1.62.55,2,.07s.47-1.71,0-3.19l-2.87-9.21a4.92,4.92,0,0,1,0-3.54A2,2,0,0,1,15.3,20,33.58,33.58,0,0,1,25.15,23.81Z"/></g><polygon class="cls-20" points="36.41 49.95 51.82 40.99 56.85 43.06 44.57 53.14 36.41 49.95"/><path class="cls-20" d="M49.89,38.82a3.87,3.87,0,0,1,0-3.23l2.91-5.86-15.41,9L34.5,44.55a3.81,3.81,0,0,0,0,3.22A4.6,4.6,0,0,0,36.41,50l15.41-9A4.62,4.62,0,0,1,49.89,38.82Z"/><path class="cls-20" d="M52.87,26.23a8.9,8.9,0,0,0-2.26-3.67,60.52,60.52,0,0,0-10-7.71A33.58,33.58,0,0,0,30.71,11a2.13,2.13,0,0,0-1.48.22l-15.42,9A2.21,2.21,0,0,1,15.3,20a33.58,33.58,0,0,1,9.85,3.81A60.23,60.23,0,0,1,35.2,31.52a9,9,0,0,1,2.26,3.67,4.89,4.89,0,0,1,0,3.5l15.41-9A4.84,4.84,0,0,0,52.87,26.23Z"/><path class="cls-20" d="M25.15,23.81A60.23,60.23,0,0,1,35.2,31.52a9,9,0,0,1,2.26,3.67,4.89,4.89,0,0,1,0,3.5L34.5,44.55a3.81,3.81,0,0,0,0,3.22A4.6,4.6,0,0,0,36.41,50l8.16,3.19L36.41,50a4.66,4.66,0,0,1-2-2.2,3.86,3.86,0,0,1,0-3.26l2.91-5.86a4.81,4.81,0,0,0,0-3.47,8.79,8.79,0,0,0-2.24-3.64,59.35,59.35,0,0,0-10-7.71A33.37,33.37,0,0,0,15.31,20a1.94,1.94,0,0,0-2.25,1.07,4.93,4.93,0,0,0,0,3.52L16,33.83c.46,1.49.46,2.67,0,3.22s-1.14.46-2-.06l-3.69-2.14L13.9,37c.9.52,1.62.55,2,.07s.47-1.71,0-3.19l-2.87-9.21a4.92,4.92,0,0,1,0-3.54A2,2,0,0,1,15.3,20,33.58,33.58,0,0,1,25.15,23.81Z"/></g></g><g id="extened_face_cachée" data-name="extened  face cachée"><g class="cls-21"><path class="cls-22" d="M29.31,28l-3.69-2.1-15.41,9L13.9,37a1.84,1.84,0,0,0,1.78.28l15.41-9A1.83,1.83,0,0,1,29.31,28Z"/><path class="cls-20" d="M29.31,28l-3.69-2.1-15.41,9L13.9,37a1.84,1.84,0,0,0,1.78.28l15.41-9A1.83,1.83,0,0,1,29.31,28Z"/><g id="IN-2" data-name="IN"><path class="cls-22" d="M31.37,24.87l-2.87-9.2a4.89,4.89,0,0,1,0-3.51,1.94,1.94,0,0,1,.77-.87l-15.42,9a2,2,0,0,0-.77.86,4.93,4.93,0,0,0,0,3.52L16,33.83c.46,1.49.46,2.67,0,3.22a.82.82,0,0,1-.25.21l15.41-8.95a1.27,1.27,0,0,0,.25-.21C31.83,27.54,31.84,26.37,31.37,24.87Z"/><path class="cls-20" d="M31.37,24.87l-2.87-9.2a4.89,4.89,0,0,1,0-3.51,1.94,1.94,0,0,1,.77-.87l-15.42,9a2,2,0,0,0-.77.86,4.93,4.93,0,0,0,0,3.52L16,33.83c.46,1.49.46,2.67,0,3.22a.82.82,0,0,1-.25.21l15.41-8.95a1.27,1.27,0,0,0,.25-.21C31.83,27.54,31.84,26.37,31.37,24.87Z"/></g></g></g><g id="Layer_52_copy" data-name="Layer 52 copy"><path id="contour_Av" data-name="contour Av" class="cls-23" d="M44.53,53.15,36.37,50a4.65,4.65,0,0,1-1.93-2.18,3.85,3.85,0,0,1,0-3.22l2.91-5.87a4.81,4.81,0,0,0,0-3.49,8.84,8.84,0,0,0-2.26-3.67,59.83,59.83,0,0,0-10-7.71A33.25,33.25,0,0,0,15.26,20,1.94,1.94,0,0,0,13,21.09a5,5,0,0,0,0,3.54c1.61,6.65,2.29,8,2.29,8s-.7.64-.78.74c-.4.47-.58,2.43-.67,3.62l-3.69-2.1,4.59-2.81"/><path id="contour_2_Ar" data-name="contour 2 Ar" class="cls-24" d="M44.57,53.14,56.85,43.06l-5-2.07a4.62,4.62,0,0,1-1.93-2.17,3.87,3.87,0,0,1,0-3.23l2.91-5.86a4.84,4.84,0,0,0,0-3.5,8.9,8.9,0,0,0-2.26-3.67,60.52,60.52,0,0,0-10-7.71A33.58,33.58,0,0,0,30.71,11a2.13,2.13,0,0,0-1.48.22l-15.42,9"/></g><g id="FL_av_copy_2" data-name="FL av copy 2"><line class="cls-25" x1="28.09" y1="52.56" x2="39.06" y2="52.59"/><polygon points="38.19 53.86 42.95 52.6 38.19 51.31 38.19 53.86"/><line class="cls-25" x1="23.81" y1="45.54" x2="31.12" y2="45.55"/><polygon points="30.48 47.73 34.27 45.55 30.48 43.36 30.48 47.73"/><line class="cls-25" x1="23.55" y1="40.37" x2="34.28" y2="37.42"/><polygon points="34.24 39.7 37.32 36.58 33.08 35.48 34.24 39.7"/><line class="cls-25" x1="21.53" y1="35.13" x2="28.43" y2="31.31"/><polygon points="28.93 33.54 31.18 29.79 26.81 29.71 28.93 33.54"/><line class="cls-25" x1="17.42" y1="32.56" x2="17.42" y2="25.06"/><polygon points="19.61 25.7 17.42 21.91 15.23 25.7 19.61 25.7"/><line class="cls-25" x1="9.21" y1="40.97" x2="9.21" y2="38.35"/><polygon points="11.4 38.99 9.21 35.2 7.02 38.99 11.4 38.99"/></g></svg>