<svg id="version_1_X_copy_3" data-name="version 1 X   ****** copy 3" xmlns="http://www.w3.org/2000/svg" xmlns:xlink="http://www.w3.org/1999/xlink" viewBox="0 0 64 64"><defs><style>.cls-1{isolation:isolate;}.cls-2,.cls-5,.cls-9{fill:#aadcfa;}.cls-11,.cls-16,.cls-2,.cls-3,.cls-4,.cls-8{stroke:#000;}.cls-10,.cls-11,.cls-12,.cls-13,.cls-14,.cls-15,.cls-16,.cls-2,.cls-20,.cls-21,.cls-3,.cls-4,.cls-5,.cls-6,.cls-7,.cls-8,.cls-9{stroke-linecap:round;stroke-linejoin:round;}.cls-10,.cls-3{fill:url(#SKETCH_BLUE_gradient);}.cls-11,.cls-14,.cls-4,.cls-7{fill:#82bddb;}.cls-5,.cls-6,.cls-7{stroke:#231f20;}.cls-13,.cls-6{fill:url(#SKETCH_BLUE_gradient-2);}.cls-20,.cls-8{fill:url(#SKETCH_BLUE_gradient-3);}.cls-10,.cls-12,.cls-13,.cls-14,.cls-15,.cls-20,.cls-21,.cls-9{stroke:#fff;}.cls-10,.cls-12,.cls-13,.cls-14,.cls-15,.cls-9{stroke-width:0.28px;}.cls-11{stroke-width:0.99px;}.cls-12{fill:url(#SKETCH_BLUE_gradient-5);}.cls-15{fill:url(#SKETCH_BLUE_gradient-7);}.cls-16{fill:none;stroke-width:0.75px;}.cls-17{fill:url(#SKETCH_BLUE_gradient-8);}.cls-18{fill:#fff;}.cls-19{fill:#285977;}.cls-20,.cls-21{stroke-width:0.28px;}.cls-21{fill:url(#SKETCH_BLUE_gradient-10);}</style><linearGradient id="SKETCH_BLUE_gradient" x1="41.06" y1="21.45" x2="53.15" y2="21.45" gradientUnits="userSpaceOnUse"><stop offset="0" stop-color="#3287af"/><stop offset="1" stop-color="#285a78"/></linearGradient><linearGradient id="SKETCH_BLUE_gradient-2" x1="16.01" y1="30.39" x2="41.06" y2="30.39" xlink:href="#SKETCH_BLUE_gradient"/><linearGradient id="SKETCH_BLUE_gradient-3" x1="5.95" y1="38.34" x2="16.01" y2="38.34" xlink:href="#SKETCH_BLUE_gradient"/><linearGradient id="SKETCH_BLUE_gradient-5" x1="47.93" y1="26.09" x2="59.19" y2="26.09" xlink:href="#SKETCH_BLUE_gradient"/><linearGradient id="SKETCH_BLUE_gradient-7" x1="29.12" y1="39.4" x2="28.04" y2="39.64" xlink:href="#SKETCH_BLUE_gradient"/><linearGradient id="SKETCH_BLUE_gradient-8" x1="40.02" y1="33.4" x2="48.07" y2="33.4" xlink:href="#SKETCH_BLUE_gradient"/><linearGradient id="SKETCH_BLUE_gradient-10" x1="11.99" y1="42.94" x2="22.83" y2="42.94" xlink:href="#SKETCH_BLUE_gradient"/></defs><title>ddd__A33AAe__R21XArtboard 1</title><g id="dessous_copy_3" data-name="dessous copy 3"><g class="cls-1"><polygon id="bot_" data-name="bot  *" class="cls-2" points="59.18 21.04 47.93 34.14 41.06 29.07 53.14 16.84 59.18 21.04"/><polygon id="arr" class="cls-3" points="41.06 29.07 41.06 25.29 51.83 13.84 53.15 16.82 41.06 29.07"/><polygon id="rid_av" data-name="rid av" class="cls-4" points="47.93 34.14 47.93 30.4 57.87 18.05 59.19 21.03 47.93 34.14"/></g><path id="BOT_2" data-name="BOT   *" class="cls-5" d="M44.62,39.89,35,42.28l-3.84-2.93A2.74,2.74,0,0,0,28.63,39l-2.93.75-2.87.74L16,35.48l25.05-6.4,6.87,5.06-7.07,1.8c-1.4.35-.26,1-.21,1Z"/><polygon id="ARR-2" data-name="ARR" class="cls-6" points="16.01 35.48 16.01 31.73 41.06 25.29 41.06 29.07 16.01 35.48"/><path id="G2_" data-name="G2   *" class="cls-7" d="M22.83,40.51V36.78l6-1.49a2.76,2.76,0,0,1,2.56.32l-.16,3.74A2.74,2.74,0,0,0,28.63,39Z"/><polygon id="G1_" data-name="G1   *" class="cls-7" points="31.19 39.35 31.35 35.6 35.22 38.54 35.22 42.23 31.19 39.35"/><path id="D1_" data-name="D1  *" class="cls-7" d="M40.16,36.4l.16-3.73c0-.17.18-.34.7-.47,3.95-1,6.75-1.76,6.91-1.8v3.74l-7.08,1.8C40.34,36.07,40.16,36.24,40.16,36.4Z"/><path id="D2_" data-name="D2   *" class="cls-7" d="M40.17,36.42l.16-3.73s-.07.09.54.54,3.83,2.9,3.83,2.9v3.74s-3.45-2.52-4-2.91S40.17,36.42,40.17,36.42Z"/><g class="cls-1"><polygon id="bot_3" data-name="bot  *" class="cls-2" points="22.84 40.49 13.32 49.16 7.26 44.94 16.01 35.48 22.84 40.49"/><polygon id="arr-3" data-name="arr" class="cls-8" points="7.26 44.94 5.95 41.95 16.01 31.73 16.01 35.48 7.26 44.94"/><polygon id="rid_av-2" data-name="rid av" class="cls-4" points="13.32 49.16 11.99 46.16 22.84 36.78 22.84 40.48 13.32 49.16"/></g></g><g id="dessus_copy_3" data-name="dessus copy 3"><g class="cls-1"><polygon id="bot_4" data-name="bot  *" class="cls-9" points="59.18 21.04 47.93 34.14 41.06 29.07 53.14 16.84 59.18 21.04"/><polygon id="arr-4" data-name="arr" class="cls-10" points="41.06 29.07 41.06 25.29 51.83 13.84 53.15 16.82 41.06 29.07"/><polygon id="rid_av-3" data-name="rid av" class="cls-11" points="47.93 34.14 47.93 30.4 57.87 18.05 59.19 21.03 47.93 34.14"/><polygon id="rid_av-4" data-name="rid av" class="cls-12" points="47.93 34.14 47.93 30.4 57.87 18.05 59.19 21.03 47.93 34.14"/></g><path id="BOT_5" data-name="BOT   *" class="cls-9" d="M44.62,39.89l-9.4,2.4-4-2.93A2.73,2.73,0,0,0,28.63,39l-2.93.75-2.87.74L16,35.48l25.05-6.4,6.87,5.06-7.07,1.8c-1.4.35-.26,1-.21,1Z"/><polygon id="ARR-5" data-name="ARR" class="cls-13" points="16.01 35.48 16.01 31.73 41.06 25.29 41.06 29.07 16.01 35.48"/><path class="cls-7" d="M31,35.43a3.24,3.24,0,0,0-2.44,0c-1.06.27-6.05,1.48-6.05,1.48v3.65l6-1.48a3.33,3.33,0,0,1,2.6.16L35,42.25V38.51Z"/><path class="cls-14" d="M31.22,35.61,35,38.54v3.74L31.1,39.34c-.05,0-.74-.75-2.46-.31l-5.78,1.48-.27-3.8s5.15-1.15,6.21-1.42C30.52,34.86,31.18,35.57,31.22,35.61Z"/><path class="cls-15" d="M31.22,35.61,35,38.54v3.74L31.1,39.34c-.05,0-.74-.75-2.46-.31l-5.78,1.48-.33-3.77s5.21-1.18,6.27-1.45C30.52,34.86,31.18,35.57,31.22,35.61Z"/><path class="cls-16" d="M44.54,40.07l-4.41-3.23a.48.48,0,0,1-.2-.4V32.68s0-.46.78-.63c1.09-.25,6.91-1.76,6.91-1.76"/><g id="D1_2" data-name="D1  *"><path class="cls-17" d="M40.16,36.55a.14.14,0,0,1-.14-.14l0-3.74c0-.27.28-.47.8-.61l6.72-1.71.33-.09h0a.16.16,0,0,1,.09,0,.13.13,0,0,1,0,.11v3.74a.14.14,0,0,1-.11.14l-7.07,1.79c-.53.14-.58.3-.59.35a.13.13,0,0,1-.14.13Z"/><path class="cls-18" d="M47.93,30.4v3.74l-7.08,1.8c-.51.13-.68.31-.69.47l0-3.73c0-.17.17-.35.69-.48l7.06-1.8m0-.29h-.07l-.32.09L40.8,31.93c-.58.15-.89.39-.9.74l0,3.74a.28.28,0,0,0,.28.28h0a.29.29,0,0,0,.29-.27h0s.07-.11.47-.21l5.36-1.36L48,34.42a.3.3,0,0,0,.21-.28V30.4a.3.3,0,0,0-.11-.23.35.35,0,0,0-.17-.06Z"/></g><g id="D2_2" data-name="D2   *"><path class="cls-19" d="M44.66,40a.11.11,0,0,1-.08,0l-4.36-3.24a.51.51,0,0,1-.2-.34l0-3.72a.36.36,0,0,1,0-.1.15.15,0,0,1,.12-.07h0a.15.15,0,0,1,.11.14h0s.1.15.48.44c.62.44,3.93,2.89,3.93,2.89a.14.14,0,0,1,.06.12v3.76a.14.14,0,0,1-.08.13Z"/><path class="cls-18" d="M40.18,32.68h0m0,0v0m0,0c0,.06.1.2.55.53l3.93,2.9v3.76l-4.35-3.24a.4.4,0,0,1-.15-.24l0-3.71m0-.31h0a.29.29,0,0,0-.28.29h0v0h0l0,3.71a.67.67,0,0,0,.25.46l4.36,3.25a.26.26,0,0,0,.17.05.31.31,0,0,0,.13,0,.27.27,0,0,0,.15-.25V36.13a.28.28,0,0,0-.11-.23L40.9,33a1.88,1.88,0,0,1-.43-.37.29.29,0,0,0-.28-.24Z"/></g><g class="cls-1"><polygon id="bot_6" data-name="bot  *" class="cls-9" points="22.84 40.49 13.32 49.16 7.26 44.94 16.01 35.48 22.84 40.49"/><polyline id="rid_av-5" data-name="rid av" class="cls-16" points="13.32 49.15 11.99 46.16 22.31 36.84"/><polygon id="arr-6" data-name="arr" class="cls-20" points="7.26 44.94 5.95 41.95 16.01 31.73 16.01 35.48 7.26 44.94"/><polygon id="rid_av-6" data-name="rid av" class="cls-21" points="13.32 49.16 11.99 46.16 22.55 36.72 22.84 40.48 13.32 49.16"/></g></g></svg>