<?xml version="1.0" encoding="iso-8859-1"?>
<!-- Generator: Adobe Illustrator 23.1.0, SVG Export Plug-In . SVG Version: 6.00 Build 0)  -->
<svg version="1.1" xmlns="http://www.w3.org/2000/svg" xmlns:xlink="http://www.w3.org/1999/xlink" x="0px" y="0px"
	 viewBox="0 0 64 64" style="enable-background:new 0 0 64 64;" xml:space="preserve">
<pattern  width="20" height="20" patternUnits="userSpaceOnUse" id="New_Pattern_Swatch_2" viewBox="22.121 -42.121 20 20" style="overflow:visible;">
	<g>
		<rect x="22.121" y="-42.121" style="fill:none;" width="20" height="20"/>
		
			<rect x="49.121" y="-26.263" transform="matrix(0.7071 -0.7071 0.7071 0.7071 23.837 33.3051)" style="fill:#844138;" width="6" height="28.284"/>
		
			<rect x="29.121" y="-26.263" transform="matrix(0.7071 -0.7071 0.7071 0.7071 17.9792 19.163)" style="fill:#844138;" width="6" height="28.284"/>
		
			<rect x="9.121" y="-26.263" transform="matrix(0.7071 -0.7071 0.7071 0.7071 12.1213 5.0208)" style="fill:#844138;" width="6" height="28.284"/>
		
			<rect x="49.121" y="-46.263" transform="matrix(0.7071 -0.7071 0.7071 0.7071 37.9792 27.4472)" style="fill:#844138;" width="6" height="28.284"/>
		
			<rect x="29.121" y="-46.263" transform="matrix(0.7071 -0.7071 0.7071 0.7071 32.1213 13.3051)" style="fill:#844138;" width="6" height="28.284"/>
		
			<rect x="9.121" y="-46.263" transform="matrix(0.7071 -0.7071 0.7071 0.7071 26.2635 -0.837)" style="fill:#844138;" width="6" height="28.284"/>
		
			<rect x="49.121" y="-66.263" transform="matrix(0.7071 -0.7071 0.7071 0.7071 52.1213 21.5894)" style="fill:#844138;" width="6" height="28.284"/>
		
			<rect x="29.121" y="-66.263" transform="matrix(0.7071 -0.7071 0.7071 0.7071 46.2635 7.4472)" style="fill:#844138;" width="6" height="28.284"/>
		
			<rect x="9.121" y="-66.263" transform="matrix(0.7071 -0.7071 0.7071 0.7071 40.4056 -6.6949)" style="fill:#844138;" width="6" height="28.284"/>
	</g>
</pattern>
<g id="Layer_1" style="display:none;">
</g>
<g id="info" style="display:none;">
	<g style="display:inline;">
		<text transform="matrix(1 0 0 1 -0.0625 -42.0938)"><tspan x="0" y="0" style="fill:#3D3D3D; font-family:'ArialMT'; font-size:10px;">Canvas: 64 x 64 px</tspan><tspan x="0" y="12" style="fill:#EA4F37; font-family:'ArialMT'; font-size:10px;">Artwork: 56 &gt; 38 x 46 &gt; 38 px</tspan><tspan x="0" y="24" style="fill:#844138; font-family:'ArialMT'; font-size:10px;">No-go zone : 2 x 4 x 16 x 4 px</tspan></text>
	</g>
	<g style="display:inline;">
		<path style="fill:#EA4F37;" d="M4,2v46h56V2H4z M51,44H13V6h38V44z"/>
	</g>
	<path id="pedestal" style="display:inline;opacity:0.5;fill:#D1D4D4;" d="M53.603,24.445l-0.057-0.116
		C53.457,24.192,52.592,23,49.641,23h-35.64c-2.97,0-3.517,1.123-3.601,1.361C6.688,35.865,3.637,45.296,3.628,45.514l0.524,12.305
		c0,2.2,2.691,2.682,3.728,2.682h48.37c1.037,0,3.729-0.481,3.729-2.66c0.113-2.671-0.281,6.624,0.524-12.354
		C61.015,46.748,53.643,24.566,53.603,24.445z M11.335,24.712C11.339,24.705,11.733,24,14.001,24h35.64
		c2.121,0,2.892,0.688,3.041,0.845c7.113,21.491,6.799,20.506,6.818,20.66C59.479,45.998,59.856,48,57,48H7
		c-2.843,0-2.343-1.774-2.374-2.483C4.633,45.39,11.302,24.815,11.335,24.712z"/>
	<g id="no-go_zone" style="display:inline;opacity:0.3;">
		<path style="fill:url(#New_Pattern_Swatch_2);" d="M0,0v64h64V0H0z M60,48H4V2h56V48z"/>
	</g>
</g>
<g id="info_r2021x" style="display:none;">
	<g style="display:inline;">
		<text transform="matrix(1 0 0 1 -0.0625 -52.0938)"><tspan x="0" y="0" style="fill:#3D3D3D; font-family:'ArialMT'; font-size:10px;">Canvas: 64 x 64 px</tspan><tspan x="0" y="12" style="fill:#EA4F37; font-family:'ArialMT'; font-size:10px;">Artwork: 50 x 50 px max</tspan><tspan x="0" y="24" style="fill:#844138; font-family:'ArialMT'; font-size:10px;">No-go zone :  7 px</tspan></text>
	</g>
	<g id="pedestal_r2021x" style="display:inline;">
		<path style="opacity:0.5;fill:#FFFFFF;" d="M63.002,64h-62c-0.552,0-1-0.448-1-1V1c0-0.552,0.448-1,1-1h62c0.552,0,1,0.448,1,1v62
			C64.002,63.552,63.554,64,63.002,64z"/>
		<rect x="1.002" y="1" style="fill:#F4F5F6;" width="62" height="62"/>
		<rect x="1.002" y="1" style="fill:#D1D4D4;" width="2" height="62"/>
	</g>
	<g id="no-go_zone_1_" style="display:inline;opacity:0.3;">
		<path style="fill:url(#New_Pattern_Swatch_2);" d="M0,0v64h64V0H0z M57,57H7V7h50V57z"/>
	</g>
	<g style="display:inline;">
		<path style="fill:#EA4F37;" d="M57,7v50H7V7H57 M58,6h-1H7H6v1v50v1h1h50h1v-1V7V6L58,6z"/>
	</g>
	<g style="display:inline;">
		<g>
			<line style="fill:none;stroke:#00FF00;stroke-miterlimit:10;" x1="32" y1="-1" x2="32" y2="-2"/>
			
				<line style="fill:none;stroke:#00FF00;stroke-miterlimit:10;stroke-dasharray:3.2727,1.0909;" x1="32" y1="-3.091" x2="32" y2="-6.909"/>
			
				<line style="fill:none;stroke:#00FF00;stroke-miterlimit:10;stroke-dasharray:1.0909,1.0909,3.2727,1.0909;" x1="32" y1="-7.455" x2="32" y2="-13.455"/>
			<line style="fill:none;stroke:#00FF00;stroke-miterlimit:10;" x1="32" y1="-14" x2="32" y2="-15"/>
		</g>
	</g>
	<g style="display:inline;">
		<g>
			<line style="fill:none;stroke:#00FF00;stroke-miterlimit:10;" x1="32" y1="79" x2="32" y2="78"/>
			
				<line style="fill:none;stroke:#00FF00;stroke-miterlimit:10;stroke-dasharray:3.2727,1.0909;" x1="32" y1="76.909" x2="32" y2="73.091"/>
			
				<line style="fill:none;stroke:#00FF00;stroke-miterlimit:10;stroke-dasharray:1.0909,1.0909,3.2727,1.0909;" x1="32" y1="72.545" x2="32" y2="66.545"/>
			<line style="fill:none;stroke:#00FF00;stroke-miterlimit:10;" x1="32" y1="66" x2="32" y2="65"/>
		</g>
	</g>
	<g style="display:inline;">
		<g>
			<line style="fill:none;stroke:#00FF00;stroke-miterlimit:10;" x1="65" y1="32" x2="66" y2="32"/>
			
				<line style="fill:none;stroke:#00FF00;stroke-miterlimit:10;stroke-dasharray:3.2727,1.0909;" x1="67.091" y1="32" x2="70.909" y2="32"/>
			
				<line style="fill:none;stroke:#00FF00;stroke-miterlimit:10;stroke-dasharray:1.0909,1.0909,3.2727,1.0909;" x1="71.455" y1="32" x2="77.455" y2="32"/>
			<line style="fill:none;stroke:#00FF00;stroke-miterlimit:10;" x1="78" y1="32" x2="79" y2="32"/>
		</g>
	</g>
	<g style="display:inline;">
		<g>
			<line style="fill:none;stroke:#00FF00;stroke-miterlimit:10;" x1="-15" y1="32" x2="-14" y2="32"/>
			
				<line style="fill:none;stroke:#00FF00;stroke-miterlimit:10;stroke-dasharray:3.2727,1.0909;" x1="-12.909" y1="32" x2="-9.091" y2="32"/>
			
				<line style="fill:none;stroke:#00FF00;stroke-miterlimit:10;stroke-dasharray:1.0909,1.0909,3.2727,1.0909;" x1="-8.545" y1="32" x2="-2.545" y2="32"/>
			<line style="fill:none;stroke:#00FF00;stroke-miterlimit:10;" x1="-2" y1="32" x2="-1" y2="32"/>
		</g>
	</g>
	<text transform="matrix(1 0 0 1 34.3096 -9.5068)" style="display:inline;fill:#00FF00; font-family:'ArialMT'; font-size:8px;">aligned</text>
	<text transform="matrix(1 0 0 1 73.3096 40.4932)" style="display:inline;fill:#00FF00; font-family:'ArialMT'; font-size:8px;">aligned</text>
</g>
<g id="Notes" style="display:none;">
	<text transform="matrix(1 0 0 1 -23.3193 110.1914)" style="display:inline;"><tspan x="0" y="0" style="fill:#1A1A1A; font-family:'MyriadPro-Regular'; font-size:12px;">Sizes and formats needed:</tspan><tspan x="0" y="9.6" style="fill:#1A1A1A; font-family:'MyriadPro-Regular'; font-size:8px;">SVG, PNG (64x), PNG2X (64 @2x), ICO, PNG24 </tspan><tspan x="0" y="19.2" style="fill:#1A1A1A; font-family:'MyriadPro-Regular'; font-size:8px;">ICO and PNG24 to be generated via command </tspan><tspan x="0" y="28.8" style="fill:#1A1A1A; font-family:'MyriadPro-Regular'; font-size:8px;">prompt script using the SVG file</tspan><tspan x="0" y="43.2" style="fill:#1A1A1A; font-family:'MyriadPro-Regular'; font-size:12px;">  </tspan></text>
</g>
<g id="vector_references" style="display:none;">
</g>
<g id="PNG_references" style="display:none;">
	
		<image style="display:inline;overflow:visible;" width="64" height="64" xlink:href="CATRBD/refs/CATRBD_AP_AppIcon.png"  transform="matrix(1 0 0 1 -2 1)">
	</image>
</g>
<g id="Work">
	<linearGradient id="SVGID_1_" gradientUnits="userSpaceOnUse" x1="38.0747" y1="40.7186" x2="28.3097" y2="12.6254">
		<stop  offset="0.2832" style="stop-color:#3D7593"/>
		<stop  offset="0.4201" style="stop-color:#2A6280"/>
		<stop  offset="0.6282" style="stop-color:#144B69"/>
		<stop  offset="0.8257" style="stop-color:#073E5C"/>
		<stop  offset="1" style="stop-color:#023957"/>
	</linearGradient>
	<path style="fill:url(#SVGID_1_);stroke:#053755;stroke-linecap:round;stroke-linejoin:round;stroke-miterlimit:1;" d="M26.5,12.5
		c-1,0-10,13,11,29l8-3c-10-9-13-22-13-22S27.5,12.5,26.5,12.5z"/>
	<linearGradient id="SVGID_2_" gradientUnits="userSpaceOnUse" x1="24.284" y1="37.7203" x2="27.8593" y2="43.0117">
		<stop  offset="0.156" style="stop-color:#66A2B9"/>
		<stop  offset="0.4025" style="stop-color:#558FA6"/>
		<stop  offset="0.9024" style="stop-color:#275D76"/>
		<stop  offset="1" style="stop-color:#1E526C"/>
	</linearGradient>
	<path style="fill:url(#SVGID_2_);stroke:#053755;stroke-linecap:round;stroke-linejoin:round;stroke-miterlimit:1;" d="M19.5,41.5
		c0,0,3,4,6,3s8-4,8-4l-5-4l-10,3L19.5,41.5z"/>
	<linearGradient id="SVGID_3_" gradientUnits="userSpaceOnUse" x1="35.6143" y1="40.2503" x2="26.2527" y2="13.3178">
		<stop  offset="0" style="stop-color:#083750"/>
		<stop  offset="0.6028" style="stop-color:#6EACCA"/>
		<stop  offset="0.865" style="stop-color:#D3EAF5"/>
		<stop  offset="1" style="stop-color:#A2D1E9"/>
	</linearGradient>
	<path style="fill:url(#SVGID_3_);stroke:#053755;stroke-linecap:round;stroke-linejoin:round;stroke-miterlimit:1;" d="M26.5,12.5
		c0,0,2.5-0.5,9-1C35,11,49,20,36.5,40.5l-12,4C24.5,44.5,40.5,26.5,26.5,12.5z"/>
	<linearGradient id="SVGID_4_" gradientUnits="userSpaceOnUse" x1="29.5" y1="21.5" x2="29.5" y2="21.5">
		<stop  offset="0" style="stop-color:#083750"/>
		<stop  offset="0.6028" style="stop-color:#6EACCA"/>
		<stop  offset="0.865" style="stop-color:#D3EAF5"/>
		<stop  offset="1" style="stop-color:#A2D1E9"/>
	</linearGradient>
	<path style="fill:url(#SVGID_4_);stroke:#053755;stroke-linecap:round;stroke-linejoin:round;stroke-miterlimit:1;" d="M29.5,21.5"
		/>
	<g>
		<linearGradient id="SVGID_5_" gradientUnits="userSpaceOnUse" x1="15.9755" y1="31.1274" x2="21.2708" y2="40.2992">
			<stop  offset="0" style="stop-color:#F5F6F6"/>
			<stop  offset="0.9921" style="stop-color:#D2D3D3"/>
		</linearGradient>
		<polygon style="fill:url(#SVGID_5_);stroke:#333332;stroke-linecap:round;stroke-linejoin:round;stroke-miterlimit:1;" points="
			29.5,36.5 15.5,42.5 7.5,34.5 21.5,28.5 		"/>
		<linearGradient id="SVGID_6_" gradientUnits="userSpaceOnUse" x1="16.3583" y1="28.1565" x2="19.9176" y2="34.3213">
			<stop  offset="0" style="stop-color:#FFFFFF"/>
			<stop  offset="1" style="stop-color:#F1F0F0"/>
		</linearGradient>
		<polygon style="fill:url(#SVGID_6_);" points="20.5,27.5 25.5,31.5 17.5,36.5 14.5,36.5 10.5,30.5 		"/>
		<linearGradient id="SVGID_7_" gradientUnits="userSpaceOnUse" x1="11.0065" y1="31.5471" x2="15.1723" y2="38.7625">
			<stop  offset="0" style="stop-color:#F5F6F6"/>
			<stop  offset="0.9921" style="stop-color:#BFBEBE"/>
		</linearGradient>
		<polygon style="fill:url(#SVGID_7_);stroke:#797979;stroke-linecap:round;stroke-linejoin:round;stroke-miterlimit:1;" points="
			15.5,39.5 10.5,34.5 10.5,30.5 15.5,35.5 		"/>
		<linearGradient id="SVGID_8_" gradientUnits="userSpaceOnUse" x1="19.5317" y1="33.8229" x2="21.5556" y2="37.3283">
			<stop  offset="0" style="stop-color:#FFFFFF"/>
			<stop  offset="1" style="stop-color:#D2D3D3"/>
		</linearGradient>
		<polygon style="fill:url(#SVGID_8_);stroke:#797979;stroke-linecap:round;stroke-linejoin:round;stroke-miterlimit:1;" points="
			25.5,35.5 15.5,39.5 15.5,35.5 25.5,31.5 		"/>
		<polygon style="fill:none;stroke:#333332;stroke-linecap:round;stroke-linejoin:round;stroke-miterlimit:1;" points="20.5,27.5 
			10.5,30.5 10.5,34.5 15.5,39.5 25.5,35.5 25.5,31.5 		"/>
		<g>
			<linearGradient id="SVGID_9_" gradientUnits="userSpaceOnUse" x1="19.549" y1="39.683" x2="16.451" y2="34.317">
				<stop  offset="0" style="stop-color:#2A5B79"/>
				<stop  offset="1" style="stop-color:#3388B0"/>
			</linearGradient>
			<rect x="17" y="34" style="fill:url(#SVGID_9_);" width="2" height="6"/>
		</g>
		<g>
			<linearGradient id="SVGID_10_" gradientUnits="userSpaceOnUse" x1="22.549" y1="38.683" x2="19.451" y2="33.317">
				<stop  offset="0" style="stop-color:#2A5B79"/>
				<stop  offset="1" style="stop-color:#3388B0"/>
			</linearGradient>
			<rect x="20" y="33" style="fill:url(#SVGID_10_);" width="2" height="6"/>
		</g>
		<g>
			<linearGradient id="SVGID_11_" gradientUnits="userSpaceOnUse" x1="25.549" y1="37.683" x2="22.451" y2="32.317">
				<stop  offset="0" style="stop-color:#2A5B79"/>
				<stop  offset="1" style="stop-color:#3388B0"/>
			</linearGradient>
			<rect x="23" y="32" style="fill:url(#SVGID_11_);" width="2" height="6"/>
		</g>
	</g>
	<g>
		<linearGradient id="SVGID_12_" gradientUnits="userSpaceOnUse" x1="42.9755" y1="41.1274" x2="48.2708" y2="50.2992">
			<stop  offset="0" style="stop-color:#F5F6F6"/>
			<stop  offset="0.9921" style="stop-color:#D2D3D3"/>
		</linearGradient>
		<polygon style="fill:url(#SVGID_12_);stroke:#333332;stroke-linecap:round;stroke-linejoin:round;stroke-miterlimit:1;" points="
			56.5,46.5 42.5,52.5 34.5,44.5 48.5,38.5 		"/>
		<linearGradient id="SVGID_13_" gradientUnits="userSpaceOnUse" x1="43.3583" y1="38.1565" x2="46.9176" y2="44.3213">
			<stop  offset="0" style="stop-color:#FFFFFF"/>
			<stop  offset="1" style="stop-color:#F1F0F0"/>
		</linearGradient>
		<polygon style="fill:url(#SVGID_13_);" points="47.5,37.5 52.5,41.5 44.5,46.5 41.5,46.5 37.5,40.5 		"/>
		<linearGradient id="SVGID_14_" gradientUnits="userSpaceOnUse" x1="38.0065" y1="41.5471" x2="42.1723" y2="48.7625">
			<stop  offset="0" style="stop-color:#F5F6F6"/>
			<stop  offset="0.9921" style="stop-color:#BFBEBE"/>
		</linearGradient>
		<polygon style="fill:url(#SVGID_14_);stroke:#797979;stroke-linecap:round;stroke-linejoin:round;stroke-miterlimit:1;" points="
			42.5,49.5 37.5,44.5 37.5,40.5 42.5,45.5 		"/>
		<linearGradient id="SVGID_15_" gradientUnits="userSpaceOnUse" x1="46.5317" y1="43.8229" x2="48.5556" y2="47.3283">
			<stop  offset="0" style="stop-color:#FFFFFF"/>
			<stop  offset="1" style="stop-color:#D2D3D3"/>
		</linearGradient>
		<polygon style="fill:url(#SVGID_15_);stroke:#797979;stroke-linecap:round;stroke-linejoin:round;stroke-miterlimit:1;" points="
			52.5,45.5 42.5,49.5 42.5,45.5 52.5,41.5 		"/>
		<polygon style="fill:none;stroke:#333332;stroke-linecap:round;stroke-linejoin:round;stroke-miterlimit:1;" points="47.5,37.5 
			37.5,40.5 37.5,44.5 42.5,49.5 52.5,45.5 52.5,41.5 		"/>
		<g>
			<linearGradient id="SVGID_16_" gradientUnits="userSpaceOnUse" x1="46.549" y1="49.683" x2="43.451" y2="44.317">
				<stop  offset="0" style="stop-color:#2A5B79"/>
				<stop  offset="1" style="stop-color:#3388B0"/>
			</linearGradient>
			<rect x="44" y="44" style="fill:url(#SVGID_16_);" width="2" height="6"/>
		</g>
		<g>
			<linearGradient id="SVGID_17_" gradientUnits="userSpaceOnUse" x1="49.549" y1="48.683" x2="46.451" y2="43.317">
				<stop  offset="0" style="stop-color:#2A5B79"/>
				<stop  offset="1" style="stop-color:#3388B0"/>
			</linearGradient>
			<rect x="47" y="43" style="fill:url(#SVGID_17_);" width="2" height="6"/>
		</g>
		<g>
			<linearGradient id="SVGID_18_" gradientUnits="userSpaceOnUse" x1="52.549" y1="47.683" x2="49.451" y2="42.317">
				<stop  offset="0" style="stop-color:#2A5B79"/>
				<stop  offset="1" style="stop-color:#3388B0"/>
			</linearGradient>
			<rect x="50" y="42" style="fill:url(#SVGID_18_);" width="2" height="6"/>
		</g>
	</g>
</g>
</svg>
