<svg id="version_01_ok_copy" data-name="version 01 ok copy" xmlns="http://www.w3.org/2000/svg" xmlns:xlink="http://www.w3.org/1999/xlink" viewBox="0 0 64 64"><defs><style>.cls-1{fill:none;}.cls-2{fill:#323232;}.cls-3{fill:#285977;}.cls-13,.cls-4{fill:#fff;}.cls-4{stroke:#000;stroke-miterlimit:10;stroke-width:0.25px;}.cls-5{stroke:#003755;stroke-linecap:round;stroke-linejoin:round;fill:url(#Medium_BLUE_gradient_FRONT);}.cls-6{clip-path:url(#clip-path);}.cls-7{fill:url(#linear-gradient);}.cls-8{fill:url(#top_white);}.cls-9{fill:url(#Medium_BLUE_gradient_FRONT-2);}.cls-10{fill:#003755;}.cls-11{fill:#b0b0b0;}.cls-12{fill:url(#linear-gradient-2);}.cls-14{fill:#787878;}.cls-15{fill:#acacac;}.cls-16{fill:url(#linear-gradient-3);}.cls-17{fill:url(#Medium_BLUE_gradient_FRONT-3);}.cls-18{fill:url(#Medium_BLUE_gradient_FRONT-4);}.cls-19{fill:#00415f;}</style><linearGradient id="Medium_BLUE_gradient_FRONT" x1="24.19" y1="38.9" x2="39.95" y2="66.19" gradientUnits="userSpaceOnUse"><stop offset="0" stop-color="#8cd7f5"/><stop offset="1" stop-color="#376e8c"/></linearGradient><clipPath id="clip-path"><rect id="cadre_crop" data-name="cadre crop" class="cls-1" x="6" y="6.39" width="49" height="39"/></clipPath><linearGradient id="linear-gradient" x1="21.42" y1="13.13" x2="74.62" y2="49.42" gradientUnits="userSpaceOnUse"><stop offset="0" stop-color="#fff"/><stop offset="1" stop-color="#b3b3b3"/></linearGradient><linearGradient id="top_white" x1="22" y1="22.73" x2="49" y2="22.73" gradientUnits="userSpaceOnUse"><stop offset="0" stop-color="#fff"/><stop offset="1" stop-color="#f0f0f0"/></linearGradient><linearGradient id="Medium_BLUE_gradient_FRONT-2" x1="21" y1="12.11" x2="50" y2="12.11" xlink:href="#Medium_BLUE_gradient_FRONT"/><linearGradient id="linear-gradient-2" x1="10.61" y1="26.23" x2="50.03" y2="53.12" xlink:href="#linear-gradient"/><linearGradient id="linear-gradient-3" x1="28.56" y1="36.22" x2="41.84" y2="44.85" xlink:href="#linear-gradient"/><linearGradient id="Medium_BLUE_gradient_FRONT-3" x1="33.74" y1="34.86" x2="42.93" y2="40.83" xlink:href="#Medium_BLUE_gradient_FRONT"/><linearGradient id="Medium_BLUE_gradient_FRONT-4" x1="12.94" y1="-23.56" x2="30.3" y2="-23.56" gradientTransform="translate(26.44 9.56) rotate(90)" xlink:href="#Medium_BLUE_gradient_FRONT"/></defs><title>Correctif 02__R21XArtboard 1</title><g id="BAC_copy" data-name="BAC copy"><g id="contour_" data-name="contour   **"><path d="M7.55,56.83a.25.25,0,0,1-.25-.25V48.5l5.18-17.29a.25.25,0,0,1,.24-.18H50.59a.25.25,0,0,1,.23.17l6,17.25,0,8.13a.26.26,0,0,1-.07.17.25.25,0,0,1-.18.08Z"/><path d="M12.71,31.28H50.59l6,17.25,0,8H7.55V48.49l5.17-17.21m0-.5a.49.49,0,0,0-.48.36L7.06,48.35a.77.77,0,0,0,0,.15v8.08a.51.51,0,0,0,.5.5H56.61a.51.51,0,0,0,.5-.5l0-8a.78.78,0,0,0,0-.16l-6-17.25a.49.49,0,0,0-.47-.34Z"/></g><path id="fd_" data-name="fd **" class="cls-2" d="M50.59,36.29H12.71L7.55,56.58H56.61Z"/><g id="in_coté_" data-name="in coté  **"><polygon class="cls-3" points="13.77 37.33 13.76 32.52 49.46 32.51 49.46 37.33 13.77 37.33"/><polygon class="cls-3" points="10.73 55.24 10.73 45.53 13.76 32.52 13.77 37.33 10.73 55.24"/><polygon class="cls-3" points="49.46 37.33 49.46 32.51 52.86 45.53 52.85 54.53 49.46 37.33"/></g><path id="top_balanc" data-name="top   balanc" class="cls-4" d="M50.59,31.29H12.71L7.54,48.51l49,0ZM13.76,32.52h35.7l3.42,13H10.73Z"/><polygon id="f_av" data-name="f av" class="cls-5" points="7.55 56.58 7.55 48.51 56.6 48.53 56.6 56.58 7.55 56.58"/></g><g id="_Clip_Group_" data-name="&lt;Clip Group&gt;  ***"><g class="cls-6"><g id="Tableau_" data-name="Tableau  **"><rect class="cls-7" x="21.5" y="10.96" width="28" height="23.54" rx="1.2"/><path class="cls-2" d="M48.3,11.46a.7.7,0,0,1,.7.7V33.3a.7.7,0,0,1-.7.7H22.7a.7.7,0,0,1-.7-.7V12.16a.7.7,0,0,1,.7-.7H48.3m0-1H22.7a1.7,1.7,0,0,0-1.7,1.7V33.3A1.7,1.7,0,0,0,22.7,35H48.3A1.7,1.7,0,0,0,50,33.3V12.16a1.7,1.7,0,0,0-1.7-1.7Z"/><g id="surf"><rect class="cls-8" x="22" y="11.46" width="27" height="22.54" rx="0.7"/></g><g id="contour"><path class="cls-2" d="M48.3,11.46a.7.7,0,0,1,.7.7V33.3a.7.7,0,0,1-.7.7H22.7a.7.7,0,0,1-.7-.7V12.16a.7.7,0,0,1,.7-.7H48.3m0-1H22.7a1.7,1.7,0,0,0-1.7,1.7V33.3A1.7,1.7,0,0,0,22.7,35H48.3A1.7,1.7,0,0,0,50,33.3V12.16a1.7,1.7,0,0,0-1.7-1.7Z"/></g><path class="cls-9" d="M21,15V10.71c0-.61.76-1.49,1.3-1.49H48.65A1.83,1.83,0,0,1,50,10.73V15Z"/><path class="cls-10" d="M48.7,10c.12,0,.3.19.3.5V14H22V10.5c0-.31.18-.5.3-.5H48.7m0-1H22.3A1.41,1.41,0,0,0,21,10.5V15H50V10.5A1.41,1.41,0,0,0,48.7,9Z"/><rect id="v2" class="cls-11" x="30" y="15.04" width="1" height="19.13"/><rect id="v1" class="cls-11" x="40" y="15.04" width="1" height="19.13"/><rect id="h2" class="cls-11" x="22" y="28" width="27" height="1"/><rect id="h1" class="cls-11" x="22" y="21" width="26.95" height="1"/></g><g id="F_support" data-name="F   support"><path class="cls-12" d="M14.8,46.05a.4.4,0,0,1-.4-.4V20.8a.4.4,0,0,1,.4-.4H26.61a1.8,1.8,0,0,1,1.08.45l4.46,4.47a1.8,1.8,0,0,1,.45,1.08V45.65a.4.4,0,0,1-.4.4Z"/><path class="cls-2" d="M26.61,20.8a1.46,1.46,0,0,1,.8.33l4.46,4.47a1.46,1.46,0,0,1,.33.8V45.65H14.8V20.8H26.61m0-.8H14.8a.8.8,0,0,0-.8.8V45.65a.8.8,0,0,0,.8.8H32.2a.8.8,0,0,0,.8-.8V26.4A2.21,2.21,0,0,0,32.43,25L28,20.57A2.19,2.19,0,0,0,26.61,20Z"/></g><polygon id="surf_" data-name="surf **" class="cls-13" points="32.25 27.49 25.92 27.49 25.92 20.49 27.38 20.49 32.25 25.07 32.25 27.49"/><polygon id="bord_" data-name="bord **" class="cls-14" points="26.97 26.64 26.97 20.64 25.97 20.64 25.97 27.64 32.31 27.64 32.31 26.64 26.97 26.64"/><g id="F_contour" data-name="F  contour"><path class="cls-2" d="M26.61,20.8a1.46,1.46,0,0,1,.8.33l4.46,4.47a1.46,1.46,0,0,1,.33.8V45.65H14.8V20.8H26.61m0-.8H14.8a.8.8,0,0,0-.8.8V45.65a.8.8,0,0,0,.8.8H32.2a.8.8,0,0,0,.8-.8V26.4A2.21,2.21,0,0,0,32.43,25L28,20.57A2.19,2.19,0,0,0,26.61,20Z"/></g><path id="txt_feuille" data-name="txt feuille" class="cls-15" d="M31,39H18V38H31Zm0,2H18v1H31Zm0-6H18v1H31Zm-7-3H18v1h6Z"/><path class="cls-16" d="M35.2,48.45a7.92,7.92,0,1,1,7.92-7.92A7.93,7.93,0,0,1,35.2,48.45Z"/><path class="cls-2" d="M35.2,33.05a7.48,7.48,0,1,1-7.48,7.48,7.49,7.49,0,0,1,7.48-7.48m0-.88a8.36,8.36,0,1,0,8.36,8.36,8.36,8.36,0,0,0-8.36-8.36Z"/><path class="cls-17" d="M35.2,40.53V32.61a7.93,7.93,0,0,1,7.92,7.92H35.2Z"/><path class="cls-10" d="M35.64,33.07a7.49,7.49,0,0,1,7,7h-7v-7m-.44-.9c-.15,0-.29,0-.44,0V41h8.78c0-.14,0-.29,0-.44a8.36,8.36,0,0,0-8.36-8.36Z"/></g></g><g id="FL_" data-name="FL  **"><polygon class="cls-18" points="44.03 31.5 47.5 31.5 47.5 22.5 52.5 22.5 52.5 31.5 55.97 31.5 50 39.86 44.03 31.5"/><path class="cls-19" d="M52,23v9h3l-5,7-5-7h3V23h4m1-1H47v9H43.06l1.13,1.58,5,7L50,40.72l.81-1.14,5-7L56.94,31H53V22Z"/></g></svg>