<svg id="Layer_5" data-name="Layer 5" xmlns="http://www.w3.org/2000/svg" xmlns:xlink="http://www.w3.org/1999/xlink" viewBox="0 0 64 64"><defs><linearGradient id="linear-gradient" x1="23.49" y1="20.72" x2="36.31" y2="42.93" gradientUnits="userSpaceOnUse"><stop offset="0" stop-color="#f4f5f5"/><stop offset="0.99" stop-color="#bebdbd"/></linearGradient><linearGradient id="linear-gradient-2" x1="24.15" y1="22.99" x2="38.28" y2="47.46" gradientUnits="userSpaceOnUse"><stop offset="0" stop-color="#a2ddf7"/><stop offset="1" stop-color="#73c3e1"/></linearGradient><linearGradient id="linear-gradient-3" x1="41.95" y1="26.84" x2="44.55" y2="31.36" xlink:href="#linear-gradient"/><linearGradient id="linear-gradient-4" x1="17.73" y1="24.04" x2="21.05" y2="29.78" xlink:href="#linear-gradient"/><linearGradient id="linear-gradient-5" x1="12.27" y1="29.79" x2="25.01" y2="51.86" xlink:href="#linear-gradient"/><linearGradient id="linear-gradient-6" x1="25.54" y1="39.11" x2="31.1" y2="48.74" xlink:href="#linear-gradient"/><linearGradient id="linear-gradient-7" x1="40.18" y1="31.07" x2="42.78" y2="35.58" xlink:href="#linear-gradient"/><linearGradient id="linear-gradient-8" x1="33.45" y1="38.01" x2="41.09" y2="51.26" xlink:href="#linear-gradient"/><linearGradient id="linear-gradient-9" x1="33.43" y1="34.97" x2="38.81" y2="44.29" xlink:href="#linear-gradient"/><linearGradient id="linear-gradient-10" x1="17.04" y1="27.03" x2="20.87" y2="33.67" xlink:href="#linear-gradient"/><linearGradient id="linear-gradient-11" x1="19.14" y1="33.49" x2="23.69" y2="41.36" xlink:href="#linear-gradient"/><linearGradient id="linear-gradient-12" x1="25.21" y1="46.01" x2="25.64" y2="46.76" xlink:href="#linear-gradient"/><linearGradient id="linear-gradient-13" x1="22.54" y1="47.56" x2="26.48" y2="54.39" xlink:href="#linear-gradient"/></defs><title>ConcreteStructure3DDesign</title><polygon points="18.5 23.6 35 20.1 45 26.1 45 37.5 22.5 50.9 18.5 23.6" stroke="#797979" stroke-linecap="round" stroke-linejoin="round" fill="url(#linear-gradient)"/><polygon points="33.5 22.1 20.5 25.1 20.5 42.6 27.59 49.38 27.6 51.71 41.5 45.6 41.5 27.1 33.5 22.1" stroke="#063755" stroke-linecap="round" stroke-linejoin="round" opacity="0.5" fill="url(#linear-gradient-2)"/><polygon points="45 26.1 41.5 27.1 41.5 32.1 45 31.1 45 26.1" stroke="#797979" stroke-linecap="round" stroke-linejoin="round" fill="url(#linear-gradient-3)"/><polygon points="18.5 23.6 18.5 29.1 20.5 30.1 20.5 25.1 18.5 23.6" stroke="#797979" stroke-linecap="round" stroke-linejoin="round" fill="url(#linear-gradient-4)"/><polygon points="14.5 28.5 14.5 42.5 23.5 52.73 23.5 47 19.41 42.65 19.41 33.33 14.5 28.5" stroke="#797979" stroke-linecap="round" stroke-linejoin="round" fill="url(#linear-gradient-5)"/><polygon points="27.35 45.77 34.85 43.15 37.23 45.21 25.41 49.27 19.41 42.65 23.41 41.52 27.35 45.77" stroke="#797979" stroke-linecap="round" stroke-linejoin="round" fill="url(#linear-gradient-6)"/><path d="M36,34.36l4.19-1.21a.52.52,0,0,0,.36-.42.5.5,0,0,0-.24-.49l-4.4-2.62,3.76-1a.49.49,0,0,0,.37-.4.47.47,0,0,0-.22-.5l-4-2.6,3.89-1a.51.51,0,0,0,.38-.42.53.53,0,0,0-.25-.5L35.1,20.61l4.5-.95a.5.5,0,0,0,.39-.4.49.49,0,0,0-.22-.51l-4.89-3.14,4.72-.95a.5.5,0,0,0,.39-.42.48.48,0,0,0-.24-.51L33.5,10.21V8.5a.5.5,0,0,0-1,0v1.59L22.41,12a.52.52,0,0,0-.4.38.48.48,0,0,0,.2.51L26.51,16l-4.13,1a.51.51,0,0,0-.16.91l4.57,3L22.38,22a.51.51,0,0,0-.16.91l3.47,2.31L22.38,26a.52.52,0,0,0-.37.39.49.49,0,0,0,.19.5L26,29.74l-3.11.78a.47.47,0,0,0-.36.36.49.49,0,0,0,.14.49l3.48,3.16-3.28,1a.49.49,0,0,0-.35.37.51.51,0,0,0,.15.48L28,41.22V43a.5.5,0,0,0,1,0V41.38l11.14-3.23a.51.51,0,0,0,.14-.9Zm2.8-1.85-3.89,1.13-1.36-.91v-2.5l1-.26ZM29,34.72l3.5-1V34a.48.48,0,0,0,.1.29l-3.6,1Zm3.5-15.11-3.5.83V16.81l3.5-.71ZM29,21.91l3.5-.75v2.45l-3.5.83Zm3.5,2.72V25l-3.5.9v-.38ZM29,26.89l3.5-.9v2.12L29,29Zm3.5,2.25v.31l-3.5.91V30ZM29,31.39l3.5-.9v2.14l-3.5,1ZM33.5,34v-.07l.1.07-.11,0Zm4.76-6-3.61.93-1.15-.68V25.73l.91-.23Zm-.09-4.48-3.59.93-1.08-.69V21l.12,0Zm-4.39-3.62-.28-.16v-3.8l4.71,3Zm4.31-5.93-4.42.9-.17-.11V11.36ZM23.73,12.77,32.5,11.1v3.51l-3.5.83V13a.5.5,0,0,0-1,0v2.68l-.21.05Zm3.84,4,.14.09A.45.45,0,0,0,28,17v3.57l-4.27-2.85Zm-3.84,5.91,4.2-1,.07.05v2.91l-1,.23Zm-.08,4L26.83,26l1.17.79v2.46l-.77.2ZM24,31.26l3-.75,1,.74V34l-.74.22Zm0,5,3-.9,1,.9v3.65Zm5,4.11V36.38l5.69-1.65,4.14,2.76Z" fill="#063755"/><line x1="39.5" y1="11.5" x2="39.5" y2="31.5" fill="none" stroke="#063755" stroke-linecap="round" stroke-linejoin="round"/><polygon points="45.29 30.89 34.85 34.15 37.23 35.83 48.11 32.5 45.29 30.89" stroke="#797979" stroke-linecap="round" stroke-linejoin="round" fill="url(#linear-gradient-7)"/><polygon points="48.11 32.5 37.23 35.83 37.23 45.21 25.41 49.27 25.41 55 48.11 47.21 48.11 32.5" stroke="#797979" stroke-linecap="round" stroke-linejoin="round" fill="url(#linear-gradient-8)"/><polygon points="34.85 34.15 34.85 43.15 37.23 45.21 37.23 35.83 34.85 34.15" stroke="#797979" stroke-linecap="round" stroke-linejoin="round" fill="url(#linear-gradient-9)"/><polygon points="18.1 27.77 14.5 28.5 19.41 33.33 23.41 32.21 18.1 27.77" stroke="#797979" stroke-linecap="round" stroke-linejoin="round" fill="url(#linear-gradient-10)"/><polygon points="23.41 32.21 23.41 41.52 19.41 42.65 19.41 33.33 23.41 32.21" stroke="#797979" stroke-linecap="round" stroke-linejoin="round" fill="url(#linear-gradient-11)"/><path d="M22.5,31a.5.5,0,0,1-.5-.5v-19a.5.5,0,0,1,1,0v19A.5.5,0,0,1,22.5,31Z" fill="#063755"/><line x1="23.5" y1="47" x2="27.35" y2="45.77" stroke="#797979" stroke-linecap="round" stroke-linejoin="round" fill="url(#linear-gradient-12)"/><polygon points="25.41 55 25.41 49.27 23.5 47 23.5 52.5 25.41 55" stroke="#797979" stroke-linecap="round" stroke-linejoin="round" fill="url(#linear-gradient-13)"/><polyline points="21.5 23 18.5 23.6 18.5 27.6 14.5 28.5 14.5 42.5 25.41 55 48.11 47.21 48.11 32.5 45 30.6 45 26.1 40.5 23.5" fill="none" stroke="#323232" stroke-linecap="round" stroke-linejoin="round"/><circle cx="39.25" cy="37.75" r="0.75" fill="#323232"/><circle cx="17.25" cy="34.25" r="0.75" fill="#323232"/><circle cx="17.25" cy="41.75" r="0.75" fill="#323232"/><circle cx="21.75" cy="47.75" r="0.75" fill="#323232"/><circle cx="45.75" cy="35.75" r="0.75" fill="#323232"/><circle cx="46.25" cy="45.75" r="0.75" fill="#323232"/><circle cx="27.75" cy="52.25" r="0.75" fill="#323232"/></svg>