<svg id="_1_v_02_SYST_SIM_ANALYSIS" data-name="(1) v 02  SYST SIM ANALYSIS" xmlns="http://www.w3.org/2000/svg" xmlns:xlink="http://www.w3.org/1999/xlink" viewBox="0 0 64 64"><defs><style>.cls-1{fill:url(#linear-gradient);}.cls-2{fill:#323232;}.cls-3{fill:url(#linear-gradient-2);}.cls-4{fill:#fff;}.cls-5{fill:#2e6d8b;}.cls-6{fill:url(#linear-gradient-3);}.cls-7{fill:#063755;}.cls-8{fill:url(#linear-gradient-4);}.cls-9{fill:url(#linear-gradient-5);}.cls-10{fill:#787878;}.cls-11{fill:#003755;}.cls-12{fill:#e1e1e1;}.cls-13{fill:#797979;}.cls-14{fill:url(#linear-gradient-6);}.cls-15{fill:#285977;}.cls-16{fill:url(#linear-gradient-7);}.cls-17{stroke:#003755;stroke-linecap:round;stroke-linejoin:round;fill:url(#linear-gradient-8);}</style><linearGradient id="linear-gradient" x1="13.56" y1="2.42" x2="34.44" y2="38.58" gradientUnits="userSpaceOnUse"><stop offset="0" stop-color="#fff"/><stop offset="1" stop-color="#d4d5d3"/></linearGradient><linearGradient id="linear-gradient-2" x1="14.25" y1="3.61" x2="33.75" y2="37.39" xlink:href="#linear-gradient"/><linearGradient id="linear-gradient-3" x1="-248.43" y1="25" x2="-243.43" y2="25" gradientTransform="matrix(-1, 0, 0, 1, -219.96, 0)" gradientUnits="userSpaceOnUse"><stop offset="0" stop-color="#a2ddf7"/><stop offset="1" stop-color="#73c3e1"/></linearGradient><linearGradient id="linear-gradient-4" x1="-257.46" y1="13" x2="-250.46" y2="13" xlink:href="#linear-gradient-3"/><linearGradient id="linear-gradient-5" x1="-235.51" y1="11.95" x2="-231.42" y2="19.05" xlink:href="#linear-gradient-3"/><linearGradient id="linear-gradient-6" x1="53.25" y1="21.12" x2="58.51" y2="21.12" gradientTransform="matrix(1, 0, 0, 1, 0, 0)" xlink:href="#linear-gradient-3"/><linearGradient id="linear-gradient-7" x1="34.16" y1="21.14" x2="40.27" y2="21.14" gradientTransform="translate(13.51 -2.05) rotate(9.13)" gradientUnits="userSpaceOnUse"><stop offset="0" stop-color="#a0e1fa"/><stop offset="1" stop-color="#73c3e1"/></linearGradient><linearGradient id="linear-gradient-8" x1="8.36" y1="22.94" x2="40.39" y2="78.41" gradientUnits="userSpaceOnUse"><stop offset="0" stop-color="#8cd7f5"/><stop offset="1" stop-color="#376e8c"/></linearGradient></defs><title>SystSimANALY_A33AAe__R21XArtboard 1</title><g id="_2_Tab_Process_ok" data-name="(2) Tab Process ok"><g id="F_Fond" data-name="F Fond"><rect class="cls-1" x="6.5" y="6.5" width="35" height="28"/><path class="cls-2" d="M41,7V34H7V7H41m1-1H6V35H42V6Z"/></g><g id="F_Fond-2" data-name="F Fond"><rect class="cls-3" x="7.5" y="7.5" width="33" height="26"/><path class="cls-4" d="M40,8V33H8V8H40m1-1H7V34H41V7Z"/></g><polygon class="cls-5" points="31 13 25 13 25 19 21 19 21 25 27 25 27 26 21 26 20 26 20 25 20 16 17 16 17 15 21 15 21 18 24 18 24 12 31 12 31 13"/><g id="G"><rect class="cls-6" x="23.47" y="22.5" width="5" height="5"/><path class="cls-7" d="M28,23v4H24V23h4m1-1H23v6h6V22Z"/></g><g id="G-2" data-name="G"><rect class="cls-8" x="30.5" y="10.5" width="7" height="5"/><path class="cls-7" d="M37,11v4H31V11h6m1-1H30v6h8V10Z"/></g><g id="G-3" data-name="G"><rect class="cls-9" x="10.5" y="12.5" width="6" height="6"/><path class="cls-7" d="M16,13v5H11V13h5m1-1H10v7h7V12Z"/></g></g><g id="AI_plug_copy_6" data-name="AI plug copy 6"><g id="contour"><polygon class="cls-4" points="32.63 57.35 32.63 18.63 54.18 18.63 58.38 22.84 58.38 57.35 32.63 57.35"/><path class="cls-10" d="M54,19l4,4V57H33V19H54m.31-.75H32.25V57.73h26.5v-35l-.22-.22-4-4-.22-.22Z"/></g><g id="contour-2" data-name="contour"><path class="cls-11" d="M54,19l4,4V57H33V19H54m.31-.75H32.25V57.73h26.5v-35l-.22-.22-4-4-.22-.22Z"/></g><g id="contour-3" data-name="contour"><polygon class="cls-12" points="54.55 24.16 54.55 24 55.07 24 57.51 24.03 57.51 24.16 54.55 24.16"/><polygon class="cls-13" points="55.07 23.5 54.05 23.5 54.05 24.66 58.01 24.66 58.01 23.54 55.07 23.5 55.07 23.5"/></g><g id="contour-4" data-name="contour"><polygon class="cls-14" points="53.25 23.75 53.25 18.49 54.33 18.49 58.51 22.63 58.51 23.75 53.25 23.75"/><path class="cls-7" d="M54.22,18.74l4,4v.77H53.5V18.74h.72m.21-.5H53V24h5.76V22.52l-4.33-4.28Z"/></g></g><g id="Layer_102_copy" data-name="Layer 102 copy"><polygon class="cls-11" points="37 52 55 52 55 54 35 54 35 39 37 39 37 52"/><g id="Layer_51_copy_5" data-name="Layer 51 copy 5"><rect id="_1" data-name="1" class="cls-15" x="39" y="49" width="3" height="2"/><rect id="_2" data-name="2" class="cls-15" x="43" y="45" width="3" height="6"/><rect id="_3" data-name="3" class="cls-15" x="47" y="47" width="3" height="4"/><rect id="_4" data-name="4" class="cls-15" x="51" y="42" width="3" height="9"/></g><polygon class="cls-11" points="47 43 43 40 38 45 38 43 43 38 47 41 50.81 37.13 49 35 54 34 54 40 51.89 37.98 47 43"/></g><g id="camenbrt"><circle class="cls-12" cx="42" cy="29.6" r="5"/><path d="M42,25.1a4.5,4.5,0,1,1-4.5,4.5A4.51,4.51,0,0,1,42,25.1m0-1a5.5,5.5,0,1,0,5.5,5.5A5.5,5.5,0,0,0,42,24.1Z"/><path d="M47.44,29A5.93,5.93,0,0,0,42,24.14V29Z"/><path class="cls-16" d="M43.65,27.53a.27.27,0,0,1-.17-.06.24.24,0,0,1-.08-.23l1-6a.27.27,0,0,1,.1-.16.3.3,0,0,1,.15,0h.05a7.08,7.08,0,0,1,5.18,4.21.25.25,0,0,1,0,.19.23.23,0,0,1-.15.12l-6,2Z"/><path class="cls-11" d="M44.65,21.28a6.91,6.91,0,0,1,5,4l-6,2,1-6m0-.5a.52.52,0,0,0-.29.09.52.52,0,0,0-.21.33l-1,6a.5.5,0,0,0,.5.58.39.39,0,0,0,.15,0l6-2a.48.48,0,0,0,.29-.25.5.5,0,0,0,0-.38,7.39,7.39,0,0,0-5.37-4.38Z"/></g><g id="_2_play_ok" data-name="(2) play ok"><path class="cls-4" d="M19,30.9A10.5,10.5,0,1,0,29.52,41.4,10.5,10.5,0,0,0,19,30.9Z"/><path class="cls-17" d="M19,30.9A10.5,10.5,0,1,0,29.52,41.4,10.5,10.5,0,0,0,19,30.9Zm0,18.49a8,8,0,1,1,8-8A8,8,0,0,1,19,49.39Z"/><polygon points="16 37 24.41 41.54 16 46 16 37"/></g></svg>