<svg id="v_1X_copy_2" data-name="v  1X copy 2" xmlns="http://www.w3.org/2000/svg" xmlns:xlink="http://www.w3.org/1999/xlink" viewBox="0 0 64 64"><defs><style>.cls-1,.cls-5{fill:#fff;}.cls-2{fill:#285977;}.cls-3{fill:#aadcfa;}.cls-4{fill:url(#linear-gradient);}.cls-5{opacity:0.3;}.cls-6{fill:#323232;}.cls-15,.cls-21,.cls-7{fill:none;}.cls-7{stroke:#003755;}.cls-15,.cls-7{stroke-linecap:round;}.cls-21,.cls-7{stroke-miterlimit:10;}.cls-8{fill:url(#linear-gradient-5);}.cls-9{fill:#003755;}.cls-10{fill:url(#white_front_right);}.cls-11{fill:url(#SKETCH_BLUE_gradient);}.cls-12{fill:url(#Medium_BLUE_gradient_FRONT);}.cls-13{fill:url(#Medium_BLUE_gradient_FRONT-2);}.cls-14{fill:#2d6d8b;}.cls-15{stroke:#10004c;stroke-width:0.75px;}.cls-16{fill:url(#Medium_BLUE_gradient_FRONT-3);}.cls-17{fill:url(#New_Gradient_Swatch_1);}.cls-18{fill:#e1e1e1;}.cls-19{fill:url(#New_Gradient_Swatch_1-2);}.cls-20{fill:#5a9ab8;}.cls-21{stroke:#000;stroke-width:0.94px;}.cls-22{fill:#003654;}.cls-23{fill:url(#white_front_right-2);}.cls-24{fill:url(#New_Gradient_Swatch_1-3);}</style><linearGradient id="linear-gradient" x1="44.67" y1="19.93" x2="54.95" y2="37.73" gradientUnits="userSpaceOnUse"><stop offset="0" stop-color="#fff"/><stop offset="1" stop-color="#d4d5d3"/></linearGradient><linearGradient id="linear-gradient-5" x1="35.42" y1="14.38" x2="39.57" y2="21.58" gradientUnits="userSpaceOnUse"><stop offset="0" stop-color="#a0e1fa"/><stop offset="1" stop-color="#73c3e1"/></linearGradient><linearGradient id="white_front_right" x1="16.78" y1="11.14" x2="35.48" y2="28.48" gradientTransform="translate(-11.26 13.41) rotate(-19.18)" gradientUnits="userSpaceOnUse"><stop offset="0" stop-color="#fff"/><stop offset="1" stop-color="#d2d2d2"/></linearGradient><linearGradient id="SKETCH_BLUE_gradient" x1="20.88" y1="9.3" x2="26.93" y2="9.3" gradientUnits="userSpaceOnUse"><stop offset="0" stop-color="#3287af"/><stop offset="1" stop-color="#285a78"/></linearGradient><linearGradient id="Medium_BLUE_gradient_FRONT" x1="-88.28" y1="5.02" x2="-79.79" y2="5.02" gradientTransform="matrix(0.92, -0.39, 0.39, 0.92, 100.54, -13.02)" gradientUnits="userSpaceOnUse"><stop offset="0" stop-color="#8cd7f5"/><stop offset="1" stop-color="#376e8c"/></linearGradient><linearGradient id="Medium_BLUE_gradient_FRONT-2" x1="-80.79" y1="-0.56" x2="-72.15" y2="-0.56" gradientTransform="translate(86.99 -8.76) rotate(-19.92)" xlink:href="#Medium_BLUE_gradient_FRONT"/><linearGradient id="Medium_BLUE_gradient_FRONT-3" x1="-240.53" y1="-20.53" x2="-221.14" y2="-20.53" gradientTransform="matrix(0.81, -0.51, 0.92, 0.66, 231.68, -67.75)" xlink:href="#Medium_BLUE_gradient_FRONT"/><linearGradient id="New_Gradient_Swatch_1" x1="15.41" y1="42.37" x2="36" y2="29.47" gradientUnits="userSpaceOnUse"><stop offset="0" stop-color="#464646"/><stop offset="0.99" stop-color="#141414"/></linearGradient><linearGradient id="New_Gradient_Swatch_1-2" x1="12.87" y1="36.56" x2="38.54" y2="36.56" xlink:href="#New_Gradient_Swatch_1"/><linearGradient id="white_front_right-2" x1="36.31" y1="37.5" x2="55.07" y2="54.89" gradientTransform="matrix(1, 0, 0, 1, 0, 0)" xlink:href="#white_front_right"/><linearGradient id="New_Gradient_Swatch_1-3" x1="53.27" y1="34" x2="57" y2="34" xlink:href="#New_Gradient_Swatch_1"/></defs><title>ddd__A33AAe__R21XArtboard 1</title><g id="Layer_21_copy_2" data-name="Layer 21 copy 2"><g id="ok"><g id="feuillet"><g id="fond_blanc" data-name="fond blanc"><polygon class="cls-1" points="58.18 35.18 30.34 35.18 30.34 11.98 54.01 11.98 58.18 15.75 58.18 35.18"/></g><path class="cls-2" d="M54,12l4.17,3.76V35.18H30.34V12H54m.29-.75H29.59V35.93H58.93V15.42l-.25-.22-4.17-3.77-.21-.19Z"/><polygon class="cls-3" points="58.18 16.42 53.39 16.42 53.39 11.98 54.06 11.98 54.06 15.78 58.18 15.78 58.18 16.42"/></g><circle class="cls-4" cx="50.2" cy="21.88" r="4.45"/><path class="cls-4" d="M50.5,26.33A5.18,5.18,0,0,0,45,31.67V37c0,.89,9.06.89,5.5.89s5.5,0,5.5-.89V31.67A5.18,5.18,0,0,0,50.5,26.33Z"/><path id="tete" class="cls-4" d="M51.94,20.34c.33.66.42,1.28.2,1.39s-.67-.33-1-1-.42-1.29-.2-1.4S51.61,19.68,51.94,20.34Z"/><path class="cls-4" d="M52.5,34.61l.88.49s-.05-2.15-.05-4.52c0-1.78-2.17-2.47-3.06-2.47a4.28,4.28,0,0,1,2.23,3.56v2.94Z"/><path id="tete-2" data-name="tete" class="cls-5" d="M51.94,20.34c.33.66.42,1.28.2,1.39s-.67-.33-1-1-.42-1.29-.2-1.4S51.61,19.68,51.94,20.34Z"/><path class="cls-5" d="M52.5,34.61l.88.49s-.05-2.15-.05-4.52c0-1.78-2.17-2.47-3.06-2.47a4.28,4.28,0,0,1,2.23,3.56v2.94Z"/><path class="cls-6" d="M50.2,18.31a3.57,3.57,0,1,1-3.56,3.57,3.57,3.57,0,0,1,3.56-3.57m0-.89a4.46,4.46,0,1,0,4.46,4.46,4.46,4.46,0,0,0-4.46-4.46Z"/><path class="cls-6" d="M50.5,27.22a4.29,4.29,0,0,1,4.61,4.45v4.87A28.39,28.39,0,0,1,50.5,37a28.39,28.39,0,0,1-4.61-.44V31.67a4.29,4.29,0,0,1,4.61-4.45m0-.89A5.18,5.18,0,0,0,45,31.67V37c0,.57,3.78.78,5.5.85S56,37.59,56,37V31.67a5.18,5.18,0,0,0-5.5-5.34Zm0,11.54c-.94,0-1.26,0,0,0s.94,0,0,0Z"/><path class="cls-6" d="M51,19.33h-.08c-.22.11-.13.74.2,1.4s.69,1,.92,1a.11.11,0,0,0,.08,0c.22-.11.13-.73-.2-1.39s-.69-1-.92-1Z"/><path class="cls-6" d="M50.27,28.11a4.28,4.28,0,0,1,2.23,3.56v2.94l.88.49s-.05-2.15-.05-4.52c0-1.78-2.17-2.47-3.06-2.47Z"/><polyline class="cls-7" points="46.38 28.74 37.31 26.3 37.52 18.62"/><g id="ok-2" data-name="ok"><path class="cls-8" d="M37.49,21.42c-3.17,0-6-1.62-6-3.47s2.72-3.34,6-3.34,5.94,1.53,5.94,3.34S40.65,21.42,37.49,21.42Z"/><path class="cls-9" d="M37.49,15c3,0,5.56,1.36,5.56,3s-2.28,3.1-5.56,3.1-5.58-1.64-5.58-3.1,2.56-3,5.58-3m0-.75c-3.5,0-6.33,1.66-6.33,3.72S34,21.8,37.49,21.8,43.8,20,43.8,18,41,14.23,37.49,14.23Z"/></g></g></g><g id="Layer_23_copy_2" data-name="Layer 23 copy 2"><polygon class="cls-10" points="5.51 11.69 21.63 6.44 26.83 8.96 34.42 32.3 16.45 39.84 5.51 11.69"/><path class="cls-2" d="M21.6,6.84l4.92,2.38L34,32.08l-17.3,7.27L6,11.92,21.6,6.84m.06-.8-.29.09L5.77,11.21,5,11.45l.29.74L16,39.62l.28.72L17,40l17.3-7.27.63-.26-.21-.66L27.24,9l-.1-.3-.29-.14L21.93,6.17,21.66,6Z"/><polygon class="cls-11" points="26.93 10.44 22.45 11.78 20.88 7.09 21.58 6.81 22.76 10.38 26.52 9.24 26.93 10.44"/><g id="FL_ok" data-name="FL ****   ok"><polygon points="21.48 26.22 16.77 27.88 16.16 28.14 12.94 19.93 13.54 19.67 16.5 27.28 21.23 25.62 21.48 26.22"/><path d="M18,24.12l.59-.25L17,20.25l-.61.25L18,24.12"/><polygon points="19.32 22.56 18.5 24.58 16.48 23.77 16.73 23.17 18.13 23.73 18.71 22.31 19.32 22.56"/></g><g id="ok_1" data-name="ok **1"><polygon class="cls-12" points="20.45 23.55 28.18 20.7 29.8 25.34 22.22 28.4 20.45 23.55"/><path d="M28,21.13l1.41,4-7,2.82-1.54-4.22L28,21.13m.4-.85-.63.23-7.11,2.62-.61.23.22.61L21.8,28.2l.23.64.63-.26,7-2.82.58-.23-.2-.59-1.41-4-.22-.63Z"/></g><g id="ok_1-2" data-name="ok **1"><polygon class="cls-13" points="10.06 16.08 18.07 13.19 19.75 17.46 11.62 20.4 10.06 16.08"/><path d="M17.88,13.6l1.44,3.66L11.82,20l-1.34-3.7,7.4-2.68m.38-.83-.6.21-7.4,2.68-.62.22.22.62,1.34,3.7.23.62.61-.23,7.5-2.71.64-.23L19.93,17l-1.44-3.66-.23-.59Z"/></g><path class="cls-9" d="M28,21.13l-2.64,1,1.49,4.09,2.56-1Z"/><path class="cls-14" d="M25.34,22.1l-.65.24,1.48,4.12.66-.27Z"/><path class="cls-9" d="M17.88,13.6l-2.42.88,1.45,3.65,2.41-.87Z"/><path class="cls-14" d="M15.46,14.48l-.6.22,1.45,3.66.6-.23Z"/></g><g id="Layer_24_copy_2" data-name="Layer 24 copy 2"><path id="fond_blanc-2" data-name="fond blanc" class="cls-1" d="M31.74,27.62l-25.88,11L21.68,53.84,49.8,35.16Z"/><path id="contour_seul" data-name="contour seul" class="cls-15" d="M31.74,27.62l-25.88,11L21.68,53.84,49.8,35.16Z"/><g id="FL_ok-2" data-name="FL ****   ok"><path d="M26.37,44.46l.45.53,10.11-6L32.6,36.18l-.73.33,3.76,2.37-9.26,5.58"/><polygon points="28.6 45.54 25.81 45.07 26.45 43.05 27.29 43.19 26.84 44.6 28.8 44.93 28.6 45.54"/></g><g id="ok_1-3" data-name="ok **1"><path class="cls-16" d="M31.42,30.64l-17.07,7.8,5.75,4L37,33.53Z"/><path class="cls-17" d="M31.42,30.64,37,33.53,20.1,42.43l-5.75-4,17.07-7.8m0-.82-.33.15L14,37.77l-1.17.54,1.06.74,5.75,4,.37.26.39-.21,16.86-8.9,1.24-.66-1.24-.64L31.76,30l-.32-.17Z"/></g><g id="ok_1-4" data-name="ok **1"><path class="cls-18" d="M31.42,30.64l-17.07,7.8,5.75,4L37,33.53Z"/><path class="cls-19" d="M31.42,30.64,37,33.53,20.1,42.43l-5.75-4,17.07-7.8m0-.82-.33.15L14,37.77l-1.17.54,1.06.74,5.75,4,.37.26.39-.21,16.86-8.9,1.24-.66-1.24-.64L31.76,30l-.32-.17Z"/></g><path class="cls-20" d="M31.42,30.64,25,33.57l5.58,3.3L37,33.53Z"/><path class="cls-14" d="M25,33.57l-.7.32,5.58,3.3.7-.32Z"/><polygon points="23.68 38.76 21.06 40.1 18.29 38.31 21.09 37.04 23.68 38.76"/><line class="cls-21" x1="20.01" y1="39.01" x2="27.31" y2="35.19"/><g id="ok_1-5" data-name="ok **1"><polygon class="cls-18" points="24.1 35.15 29.99 32.41 33.15 34.06 27.33 37.04 24.1 35.15"/><path d="M30,32.82l2.37,1.24-5,2.56-2.45-1.43L30,32.82M30,32l-.33.16-5.09,2.36-1.28.59,1.22.71L27,37.26l.35.2.35-.18,5-2.57L34,34.07l-1.27-.66-2.37-1.24L30,32Z"/></g><g id="ok-3" data-name="ok"><path class="cls-3" d="M22.51,49a4,4,0,0,1-3-1.2A1.8,1.8,0,0,1,19,46.22a2.59,2.59,0,0,1,1.56-1.7,4.61,4.61,0,0,1,1.9-.39,4,4,0,0,1,3,1.2A1.82,1.82,0,0,1,26,47a2.57,2.57,0,0,1-1.57,1.69A4.57,4.57,0,0,1,22.51,49Z"/><path class="cls-22" d="M22.5,44.5h0a3.65,3.65,0,0,1,2.73,1.07,1.45,1.45,0,0,1,.38,1.3,2.25,2.25,0,0,1-1.36,1.44,4.33,4.33,0,0,1-1.74.36,3.68,3.68,0,0,1-2.74-1.07,1.54,1.54,0,0,1-.38-1.31,2.26,2.26,0,0,1,1.36-1.43,4.25,4.25,0,0,1,1.75-.36m0-.74a5,5,0,0,0-2.05.43c-1.82.83-2.37,2.57-1.23,3.89a4.36,4.36,0,0,0,3.29,1.32,5,5,0,0,0,2-.42c1.81-.83,2.36-2.57,1.23-3.89a4.37,4.37,0,0,0-3.29-1.33Z"/></g><g id="S2_5x5" data-name="S2    5x5"><polygon class="cls-9" points="21.14 47.24 21.67 45.55 23.86 45.92 23.33 47.61 21.14 47.24"/><path class="cls-9" d="M21.81,45.79l1.78.29-.4,1.3-1.78-.3.4-1.29m-.29-.47-.11.35L21,47l-.14.46.47.08,1.78.3.36.06.11-.35.4-1.29.14-.46-.47-.07-1.78-.3-.36-.06Z"/></g></g><g id="Layer_25_copy_2" data-name="Layer 25 copy 2"><g id="feuille_cadre" data-name="feuille cadre"><polygon class="cls-23" points="34.63 58.38 34.63 31.63 54.19 31.63 57.38 35.88 57.38 58.38 34.63 58.38"/><path class="cls-2" d="M54,32l3,4V58H35V32H54m.38-.75H34.25v27.5h23.5v-23l-.15-.2-3-4-.22-.3Z"/><polygon class="cls-24" points="57 36 53.27 36 53.27 32 54 32 54 35.33 56.48 35.33 57 36"/></g><polygon points="44.01 52 43.01 51 42.5 50.51 43.01 50 44.01 49 45.01 49 44 50 44 51 45.01 52 44.01 52"/><polygon points="47 48 48 47 48.51 46.51 48 46 47 45 46 45 47.23 45.98 47.23 46.95 46 48 47 48"/><path d="M48,50H43v1h5V50"/><path d="M48,46H43v1h5V46"/><path d="M40,52v2h1V52H40m0-9v2h1V43H40m0-3v2h1V40H40m0,15v2h1V55H40m10-3v2h1V52H50m0-9v2h1V43H50m0-3v2h1V40H50m0,15v2h1V55H50"/><path class="cls-1" d="M49.79,52.5,48.5,51.21V45.79l1.31-1.29h1.4l1.29,1.29v5.42L51.21,52.5Zm-10,0L38.5,51.21V45.79l1.31-1.29h1.4l1.29,1.29v5.42L41.21,52.5Z"/><path d="M51,45l1,1v5l-1,1H50l-1-1V46l1-1h1M41,45l1,1v5l-1,1H40l-1-1V46l1-1h1m10.41-1H49.6l-.29.29-1,1-.3.29v5.83l.29.3,1,1,.3.29h1.82l.3-.29,1-1,.29-.3V45.59l-.29-.3-1-1-.3-.29Zm-10,0H39.6l-.29.29-1,1-.3.29v5.83l.29.3,1,1,.3.29h1.82l.3-.29,1-1,.29-.3V45.59l-.29-.3-1-1-.3-.29Z"/><path class="cls-3" d="M47.5,40.5v-3h6v3Zm-10,0v-3h6v3Z"/><path d="M53,38v2H48V38h5M43,38v2H38V38h5m11-1H47v4h7V37ZM44,37H37v4h7V37Z"/></g></svg>