<svg id="CATIA___I03_SDP_-_Generative_Fluid_3D_Design" data-name="CATIA _ (I03) SDP - Generative Fluid 3D Design" xmlns="http://www.w3.org/2000/svg" xmlns:xlink="http://www.w3.org/1999/xlink" viewBox="0 0 64 64"><defs><style>.cls-1{fill:url(#linear-gradient);}.cls-2,.cls-3{fill:#545454;}.cls-3{opacity:0.5;}.cls-4{fill:url(#linear-gradient-2);}.cls-5{fill:#00415f;}.cls-6{fill:url(#linear-gradient-3);}.cls-7{fill:#2d2d2d;}.cls-10,.cls-17,.cls-8{fill:none;}.cls-11,.cls-14,.cls-15,.cls-16,.cls-19,.cls-20,.cls-8{stroke:#6d6d6d;}.cls-10,.cls-11,.cls-12,.cls-14,.cls-15,.cls-16,.cls-17,.cls-19,.cls-20,.cls-8{stroke-linecap:round;stroke-linejoin:round;}.cls-9{fill:url(#linear-gradient-4);}.cls-10{stroke:#ebebeb;}.cls-11{fill:url(#linear-gradient-5);}.cls-12,.cls-17{stroke:#2d2d2d;}.cls-12{fill:url(#linear-gradient-6);}.cls-13{fill:url(#linear-gradient-7);}.cls-14{fill:url(#linear-gradient-8);}.cls-15{fill:url(#linear-gradient-9);}.cls-16{fill:url(#linear-gradient-10);}.cls-18{fill:url(#linear-gradient-11);}.cls-19{fill:url(#linear-gradient-12);}.cls-20{fill:url(#linear-gradient-13);}</style><linearGradient id="linear-gradient" x1="14.51" y1="11.57" x2="65.07" y2="46.06" gradientUnits="userSpaceOnUse"><stop offset="0" stop-color="#fff"/><stop offset="1" stop-color="#b3b3b3"/></linearGradient><linearGradient id="linear-gradient-2" x1="19.28" y1="5.06" x2="47" y2="23.97" gradientUnits="userSpaceOnUse"><stop offset="0" stop-color="#92d5ee"/><stop offset="0.6" stop-color="#599bb4"/><stop offset="1" stop-color="#32738c"/></linearGradient><linearGradient id="linear-gradient-3" x1="56.52" y1="12.94" x2="14.2" y2="53.05" gradientUnits="userSpaceOnUse"><stop offset="0" stop-color="#cfcfcf"/><stop offset="1" stop-color="#a3a3a3"/></linearGradient><linearGradient id="linear-gradient-4" x1="54.87" y1="12.02" x2="13.23" y2="51.49" xlink:href="#linear-gradient-3"/><linearGradient id="linear-gradient-5" x1="21.6" y1="29.59" x2="22.96" y2="34.38" gradientUnits="userSpaceOnUse"><stop offset="0" stop-color="#f0f0f0"/><stop offset="1" stop-color="#b3b3b3"/></linearGradient><linearGradient id="linear-gradient-6" x1="13.71" y1="22.72" x2="17.8" y2="22.72" xlink:href="#linear-gradient-5"/><linearGradient id="linear-gradient-7" x1="13.45" y1="23.02" x2="15.12" y2="23.02" xlink:href="#linear-gradient-5"/><linearGradient id="linear-gradient-8" x1="23.52" y1="26.12" x2="20.02" y2="33.79" xlink:href="#linear-gradient-5"/><linearGradient id="linear-gradient-9" x1="13.62" y1="21.67" x2="14.2" y2="24.66" xlink:href="#linear-gradient-5"/><linearGradient id="linear-gradient-10" x1="18.5" y1="14.14" x2="12.17" y2="25.09" xlink:href="#linear-gradient-5"/><linearGradient id="linear-gradient-11" x1="40.05" y1="45.67" x2="30.66" y2="51.35" xlink:href="#linear-gradient-5"/><linearGradient id="linear-gradient-12" x1="34.72" y1="47.19" x2="21.21" y2="55.85" xlink:href="#linear-gradient-5"/><linearGradient id="linear-gradient-13" x1="44.7" y1="43.09" x2="31.69" y2="54.47" xlink:href="#linear-gradient-5"/></defs><title>CATIA _ (I03) SDP - Generative Fluid 3D Design</title><rect class="cls-1" x="13.5" y="10.5" width="37" height="26" rx="1.5"/><path class="cls-2" d="M49,11a1,1,0,0,1,1,1V35a1,1,0,0,1-1,1H15a1,1,0,0,1-1-1V12a1,1,0,0,1,1-1H49m0-1H15a2,2,0,0,0-2,2V35a2,2,0,0,0,2,2H49a2,2,0,0,0,2-2V12a2,2,0,0,0-2-2Z"/><rect class="cls-3" x="14" y="22" width="36" height="1"/><rect class="cls-3" x="14" y="28" width="36" height="1"/><rect class="cls-3" x="20" y="11" width="1" height="22"/><rect class="cls-3" x="36" y="11" width="1" height="22"/><path class="cls-4" d="M49,11H15a1,1,0,0,0-1,1v4H50V12A1,1,0,0,0,49,11Z"/><rect class="cls-5" x="14" y="16" width="36" height="1"/><path class="cls-6" d="M30.12,49a.48.48,0,0,1-.37-.17L20.11,37.84a2.45,2.45,0,0,1-.43-1.23,2.29,2.29,0,0,1,2-2.09c1.28-.3,8.94-2.39,9-2.41a4.58,4.58,0,0,1,1.14-.22,3,3,0,0,1,2.24.93L38,36.32l.17-6.3-2-3.18a.5.5,0,0,1,.3-.76l1.71-.4a4.22,4.22,0,0,1,.94-.1,1.88,1.88,0,0,1,1.82.84.66.66,0,0,1,.06.2l.3,2.91-.2,9.4a2,2,0,0,1-1.9,1.8,3.51,3.51,0,0,1-2.06-1.06l-5-4.7s-.1-.08-.33-.08a2.36,2.36,0,0,0-.6.09l-7.65,2.1L32,46.42a.49.49,0,0,1,0,.66l-1.5,1.71a.52.52,0,0,1-.38.17Z"/><path class="cls-7" d="M39.08,26.08a1.49,1.49,0,0,1,1.38.59l.31,2.91-.21,9.34s-.2,1.31-1.4,1.31a3.12,3.12,0,0,1-1.71-.91l-5-4.72s-.16-.21-.67-.21a2.93,2.93,0,0,0-.74.11l-8.43,2.31,9,9.94-1.51,1.71-9.64-11a2.19,2.19,0,0,1-.3-.9A1.81,1.81,0,0,1,21.78,35c1.31-.3,9-2.41,9-2.41a4.19,4.19,0,0,1,1-.2,2.5,2.5,0,0,1,1.9.81c.91.8,4.72,4.21,4.72,4.21l.21-7.53-2.11-3.31,1.7-.4a4,4,0,0,1,.83-.09m0-1h0a5.26,5.26,0,0,0-1,.11l-1.71.41a1,1,0,0,0-.7.59,1,1,0,0,0,.08.92l1.95,3.05-.14,5.07L34.4,32.45a3.49,3.49,0,0,0-2.57-1.06,4.69,4.69,0,0,0-1.3.25c-.48.13-7.73,2.1-9,2.39a2.81,2.81,0,0,0-2.38,2.58A3.09,3.09,0,0,0,19.62,38a.76.76,0,0,0,.11.14l9.64,10.95a1,1,0,0,0,.75.34h0a1,1,0,0,0,.75-.34l1.51-1.71a1,1,0,0,0,0-1.33l-7.94-8.74,6.86-1.87a1.58,1.58,0,0,1,.47-.08h0l5,4.66a3.87,3.87,0,0,0,2.39,1.18,2.46,2.46,0,0,0,2.39-2.16.53.53,0,0,0,0-.13l.2-9.34a.48.48,0,0,0,0-.12l-.3-2.92a1.29,1.29,0,0,0-.12-.38,2.38,2.38,0,0,0-2.26-1.1Z"/><line class="cls-8" x1="20.69" y1="37.19" x2="29.88" y2="47.63"/><polyline class="cls-8" points="32.68 33.86 38.62 39.29 38.96 30.68"/><path class="cls-9" d="M37.25,50.87a.54.54,0,0,1-.22,0,.57.57,0,0,1-.26-.29l-.9-2.71a.52.52,0,0,1,.32-.64L46,43.87c1.15-.39,1.26-1.16,1.27-1.19l.65-8.9C43.81,35,22.64,41.39,20.12,42.11a6.18,6.18,0,0,1-1.66.26,2.76,2.76,0,0,1-2.54-1.21l-4.17-5.24a2.11,2.11,0,0,1-.51-1.42c0-2,2.19-2.57,2.28-2.59l18.58-4.6c-1.86-1.55-4.43-3.66-5.28-4.25a3.15,3.15,0,0,0-1.76-.5,4,4,0,0,0-.75.07l-8,1.81-.11,0a.51.51,0,0,1-.48-.36l-.8-2.61a.51.51,0,0,1,.05-.4.48.48,0,0,1,.32-.23l7.79-1.71a12,12,0,0,1,2.52-.31,6,6,0,0,1,2.43.55c.16.11,8.11,6.07,9,6.66a2.42,2.42,0,0,0,1.31.29,6,6,0,0,0,.83-.06c.3-.08,8.12-2.11,9-2.31a4,4,0,0,1,.89-.1,3.57,3.57,0,0,1,2.23.8,3,3,0,0,1,1.1,2.2L50.9,42.78a4.87,4.87,0,0,1-3,4.22c-1.1.55-10.12,3.71-10.51,3.84A.45.45,0,0,1,37.25,50.87ZM15.55,35c.87,1,2.53,3,2.9,3.41a.48.48,0,0,0,.31.2.55.55,0,0,1,.18-.06L48.33,30.1l.2-2.16L40.8,30.06a11.32,11.32,0,0,1-2.45.32,7.21,7.21,0,0,1-2.83-.54Z"/><path class="cls-7" d="M25.6,19.34a5.5,5.5,0,0,1,2.21.5s8,6,8.94,6.63a3,3,0,0,0,1.59.37,5.93,5.93,0,0,0,.92-.07s8.13-2.11,9-2.31a3.46,3.46,0,0,1,.78-.09,3,3,0,0,1,1.93.69,2.48,2.48,0,0,1,.9,1.81L50.4,42.74a4.43,4.43,0,0,1-2.71,3.81c-1.08.54-10.44,3.82-10.44,3.82l-.9-2.71,9.84-3.32a2.08,2.08,0,0,0,1.6-1.6l.71-9.64S22.79,40.83,20,41.63a5.56,5.56,0,0,1-1.52.24,2.28,2.28,0,0,1-2.1-.94l-4.22-5.32a1.64,1.64,0,0,1-.4-1.11c0-1.61,1.91-2.11,1.91-2.11l19.48-4.82s.36.26.64.48l.24.2,0,0c.07.07.27.24.5.42l.1.08.14.1.62.48L14.65,34.7s2.92,3.42,3.42,4a.9.9,0,0,0,.69.38.6.6,0,0,0,.31-.08L48.8,30.48l.3-3.21-8.44,2.31a11.1,11.1,0,0,1-2.31.3,6.3,6.3,0,0,1-3.57-1l-.24-.18L34,28.25a2.81,2.81,0,0,0-.24-.2c-1.74-1.46-5.58-4.65-6.66-5.4a3.58,3.58,0,0,0-2.05-.59,4,4,0,0,0-.87.09L16.2,24l-.8-2.61,7.79-1.71a11.51,11.51,0,0,1,2.41-.3m0-1a11.92,11.92,0,0,0-2.65.33l-7.77,1.7a1,1,0,0,0-.65.47,1,1,0,0,0-.09.8l.81,2.61a1,1,0,0,0,.95.71.83.83,0,0,0,.22,0l8-1.81a3.39,3.39,0,0,1,.64-.06,2.65,2.65,0,0,1,1.48.41c.72.5,2.75,2.16,4.48,3.59L13.41,31.42a3.36,3.36,0,0,0-2.67,3.08,2.66,2.66,0,0,0,.64,1.76l4.16,5.25a3.32,3.32,0,0,0,2.92,1.36,6.63,6.63,0,0,0,1.79-.28c2.41-.68,21.75-6.5,27.14-8.12l-.59,8.15c0,.09-.17.52-.93.77L36,46.71A1,1,0,0,0,35.4,48l.9,2.71a1,1,0,0,0,.51.59,1.13,1.13,0,0,0,.44.1,1,1,0,0,0,.33-.06C38.54,51,47,48,48.14,47.45a5.4,5.4,0,0,0,3.26-4.66L52.91,27v-.09a3.44,3.44,0,0,0-1.29-2.6,4,4,0,0,0-2.54-.9,5,5,0,0,0-1,.11c-.89.2-8.34,2.13-9,2.31a5.72,5.72,0,0,1-.71.05,2.09,2.09,0,0,1-1-.2c-.69-.47-6.12-4.52-8.89-6.6L28.26,19a6.34,6.34,0,0,0-2.66-.61ZM38.35,30.88a12.51,12.51,0,0,0,2.56-.33L48,28.62l-.1,1.09-29,8.34-2.37-2.78,19-4.9a8.1,8.1,0,0,0,2.86.51Z"/><line class="cls-10" x1="17.54" y1="21.79" x2="25" y2="20.24"/><line class="cls-10" x1="14.09" y1="33.36" x2="33.49" y2="28.43"/><path class="cls-11" d="M22,28.8c.45-.12,1.14,1,1.52,2.43s.32,2.74-.15,2.86l-1.68.46-.24-.76a5.76,5.76,0,0,0,0-2.19A2.82,2.82,0,0,0,20.24,30l-.19-.59Z"/><path class="cls-12" d="M16.39,20.15c.33-.08.86.86,1.18,2.11s.3,2.33,0,2.41l-2.73.63-1.1-4.54Z"/><path class="cls-13" d="M13.68,23.17c-.32-1.25-.3-2.33,0-2.41s.86.85,1.18,2.1.3,2.33,0,2.41S14,24.42,13.68,23.17Z"/><path class="cls-8" d="M48.8,30.48s1.51.25,1.51,1.06S48.5,33.1,48.5,33.1"/><path class="cls-14" d="M21.66,31.74c-.38-1.46-1.05-2.55-1.49-2.44-.23.07-.36.48-.36,1.08l.49-.12c.26-.07.67.59.9,1.48s.2,1.66-.06,1.73l-.54.14c.32.66.68,1,.95,1C22,34.48,22,33.2,21.66,31.74Z"/><path class="cls-15" d="M13.81,21.53c.2-.06.52.51.71,1.27s.18,1.4,0,1.45l-.85.24L13,21.75Z"/><path class="cls-16" d="M12.94,23.22c-.19-.75-.18-1.41,0-1.46s.52.52.71,1.28.19,1.4,0,1.45S13.13,24,12.94,23.22Z"/><path class="cls-17" d="M13.59,20.76c-.18,0-.26.37-.26.86l-.5.13v0c-.19.06-.2.7,0,1.45s.51,1.32.71,1.27l.44-.12c.26.59.56,1,.77.9"/><path class="cls-10" d="M36.65,27.54a7.55,7.55,0,0,0,2.07.4c.94,0,9.44-2.41,9.44-2.41a2.56,2.56,0,0,1,2.08,0"/><path class="cls-10" d="M49.17,31.42,19.78,40s-2.08.6-2.75-.47"/><path class="cls-10" d="M37.52,49l10-3.68a3,3,0,0,0,1.41-1.07"/><line class="cls-10" x1="22.12" y1="35.77" x2="31.69" y2="33.1"/><polygon class="cls-18" points="29.92 51.17 32.87 54.66 32.87 50.66 29.92 47.15 29.92 51.17"/><path class="cls-8" d="M40.37,29.16c-1.26.27-3.53.48-4.72-.44l-8.18-6.49c-1.69-1.29-4-.2-4-.2"/><line class="cls-8" x1="12.01" y1="34.86" x2="16.47" y2="40.33"/><line class="cls-8" x1="49.33" y1="30.29" x2="49.61" y2="27.32"/><line class="cls-8" x1="48.15" y1="42.88" x2="49.01" y2="33.67"/><polygon class="cls-19" points="30.15 47.18 32.73 50.27 37 48.66 34.44 45.75 30.15 47.18"/><polygon class="cls-20" points="32.87 54.35 37.25 52.68 37.25 48.66 32.87 50.37 32.87 54.35"/><polygon class="cls-17" points="34.44 45.76 29.92 47.16 29.92 51.18 32.73 54.39 37.25 52.68 37.25 48.7 37.25 48.7 34.44 45.76"/></svg>