<svg id="version_1X_copy_2" data-name="version 1X copy 2" xmlns="http://www.w3.org/2000/svg" xmlns:xlink="http://www.w3.org/1999/xlink" viewBox="0 0 64 64"><defs><style>.cls-1{filter:url(#DS_GaussianBlur_2);}.cls-15,.cls-17,.cls-2,.cls-3,.cls-9{fill:none;}.cls-15,.cls-2,.cls-3{stroke:#fff;}.cls-15,.cls-17,.cls-2,.cls-3,.cls-7,.cls-8,.cls-9{stroke-linecap:round;}.cls-2,.cls-9{stroke-miterlimit:10;}.cls-15,.cls-17,.cls-3,.cls-7,.cls-8{stroke-linejoin:round;}.cls-4{filter:url(#DS_GaussianBlur_4);}.cls-5,.cls-7{fill:#fff;}.cls-6{fill:#f2f2f2;}.cls-7,.cls-8{stroke:#003755;}.cls-8{fill:url(#linear-gradient);}.cls-17,.cls-9{stroke:#000;stroke-width:2px;}.cls-10{fill:#323232;}.cls-11{fill:#285977;}.cls-12{fill:#aadcfa;}.cls-13{fill:#f1f0f0;}.cls-14{fill:url(#Dark_BLUE_gradient_LEFT);}.cls-15{stroke-width:0.25px;}.cls-16{fill:url(#Dark_BLUE_gradient_LEFT-2);}.cls-18{fill:url(#Dark_BLUE_gradient_LEFT-3);}</style><filter id="DS_GaussianBlur_2" x="-50" y="-50" width="200" height="200" name="DS_GaussianBlur_2"><feGaussianBlur stdDeviation="1"/></filter><filter id="DS_GaussianBlur_4" x="-50" y="-50" width="400" height="400" name="DS_GaussianBlur_4"><feGaussianBlur stdDeviation="2"/></filter><linearGradient id="linear-gradient" x1="35.75" y1="18.5" x2="69.46" y2="76.89" gradientUnits="userSpaceOnUse"><stop offset="0" stop-color="#8cd7f5"/><stop offset="1" stop-color="#376e8c"/></linearGradient><linearGradient id="Dark_BLUE_gradient_LEFT" x1="5.69" y1="27" x2="15.16" y2="27" gradientUnits="userSpaceOnUse"><stop offset="0" stop-color="#82bedc"/><stop offset="1" stop-color="#285a78"/></linearGradient><linearGradient id="Dark_BLUE_gradient_LEFT-2" x1="24.74" y1="10.41" x2="34.21" y2="10.41" xlink:href="#Dark_BLUE_gradient_LEFT"/><linearGradient id="Dark_BLUE_gradient_LEFT-3" x1="18.69" y1="45.15" x2="26.85" y2="45.15" xlink:href="#Dark_BLUE_gradient_LEFT"/></defs><title>ddd__A33AAe__R21XArtboard 1</title><g id="HIGHLIGHT_L_blur_2_copy_2" data-name="HIGHLIGHT L   blur 2 copy 2"><g id="bas" class="cls-1"><polyline class="cls-2" points="13 29 13 47 17.86 48.93"/></g><g id="r2_arr" data-name="r2 arr" class="cls-1"><polyline class="cls-3" points="28.41 16.11 13.5 20.31 13.5 24"/></g><g id="r1" class="cls-1"><polyline class="cls-3" points="39 17 50 21 27.25 30 27.32 44.79"/></g></g><g id="play_ok_copy_2" data-name="play ***  ok copy 2"><g id="arr_plan_blur" data-name="arr plan blur" class="cls-4"><path class="cls-5" d="M47,49.47A11.55,11.55,0,1,1,58.53,37.93,11.56,11.56,0,0,1,47,49.47Z"/><path class="cls-6" d="M47,26.87A11.05,11.05,0,1,1,35.91,37.93,11.06,11.06,0,0,1,47,26.87m0-1A12.05,12.05,0,1,0,59,37.93,12.07,12.07,0,0,0,47,25.87Z"/></g><path class="cls-7" d="M47,26.87A11.05,11.05,0,1,0,58,37.93,11.06,11.06,0,0,0,47,26.87Z"/><path class="cls-8" d="M47,26.87A11.05,11.05,0,1,0,58,37.93,11.06,11.06,0,0,0,47,26.87Zm0,19.45a8.4,8.4,0,1,1,8.4-8.39A8.4,8.4,0,0,1,47,46.32Z"/><polygon points="43.57 43.24 43.57 32.61 52.87 37.92 43.57 43.24"/></g><g id="version_ok_copy_2" data-name="version ok   **** copy 2"><polyline id="bas-2" data-name="bas" class="cls-9" points="13 29 13 47 17.86 48.93"/><g id="av_1_" data-name="av 1  **"><g id="_4" data-name="4"><polygon class="cls-10" points="23.31 27.17 13.8 23.58 5.69 26.82 5.69 34.82 15.16 38.42 23.25 35.22 23.25 27.19 23.31 27.17"/><path d="M15.16,39a.93.93,0,0,1-.29,0l-9.46-3.6A.58.58,0,0,1,5,34.82v-8a.57.57,0,0,1,.4-.52l8.1-3.24a.78.78,0,0,1,.58,0l9.51,3.59a.6.6,0,0,1,.41.52c0,.08,0,.16,0,.23v7.83a.64.64,0,0,1-.45.52l-8.1,3.2A.72.72,0,0,1,15.16,39ZM6.39,34.45l8.76,3.33,7.41-2.93V27.52l-8.75-3.3-7.42,3Z"/></g><polygon id="_3" data-name="3" class="cls-11" points="23.25 27.17 23.25 35.22 15.16 38.42 15.16 30.43 23.25 27.17"/><polygon id="_2" data-name="2" class="cls-12" points="5.69 26.82 5.69 34.82 15.16 38.42 15.16 30.43 5.69 26.82"/><path id="_1" data-name="1" class="cls-13" d="M13.8,23.58,5.69,26.82l9.47,3.61,8.15-3.26Z"/><path id="_1-2" data-name="1" class="cls-14" d="M13.8,23.58,5.69,26.82l9.47,3.61-1.4-.64Z"/><path id="_1-3" data-name="1" class="cls-15" d="M13.8,23.75,6.09,26.8l8.74,3.36"/></g><g id="RA2_" data-name="RA2 **"><g id="_4-2" data-name="4"><polygon class="cls-10" points="42.36 10.55 32.85 7.46 24.74 10.26 24.74 19.34 34.21 22.45 42.3 19.68 42.3 10.57 42.36 10.55"/><path d="M34.21,23a.92.92,0,0,1-.29,0L24.46,19.8a.52.52,0,0,1-.41-.46V10.25a.51.51,0,0,1,.4-.45L32.55,7a1,1,0,0,1,.58,0l9.51,3.09a.45.45,0,0,1,.36.66v8.94a.52.52,0,0,1-.4.45L34.5,22.9A.71.71,0,0,1,34.21,23ZM25.44,19,34.2,21.9l7.41-2.53V10.86L32.86,8l-7.42,2.56Z"/></g><polygon id="_3-2" data-name="3" class="cls-11" points="42.3 10.55 42.3 19.68 34.21 22.45 34.21 13.36 42.3 10.55"/><polygon id="_2-2" data-name="2" class="cls-12" points="24.74 10.26 24.74 19.34 34.21 22.45 34.21 13.36 24.74 10.26"/><path id="_1-4" data-name="1" class="cls-13" d="M32.85,7.46l-8.11,2.79,9.47,3.11,8.15-2.81Z"/><path id="_1-5" data-name="1" class="cls-16" d="M32.85,7.46l-8.11,2.79,9.47,3.11-1.37-.43Z"/><path id="_1-6" data-name="1" class="cls-15" d="M32.81,7.63l-7.68,2.61,8,2.63"/></g><polyline id="r2_arr-2" data-name="r2 arr" class="cls-17" points="28.41 16.11 13.5 21.31 13.5 27"/><g id="av_2_" data-name="av 2**"><g id="_4-3" data-name="4"><polygon class="cls-10" points="36.31 45.58 26.8 42.03 18.69 45.24 18.69 52.87 28.29 56.42 36.25 53.26 36.25 45.6 36.31 45.58"/><path d="M28.29,57A.93.93,0,0,1,28,57l-9.59-3.56a.58.58,0,0,1-.41-.52V45.24a.57.57,0,0,1,.4-.52l8.1-3.21a.83.83,0,0,1,.58,0l9.51,3.54a.6.6,0,0,1,.41.52v7.69a.65.65,0,0,1-.45.52l-8,3.17A.93.93,0,0,1,28.29,57Zm-8.9-4.5,8.89,3.29,7.28-2.9v-7l-8.75-3.26L19.39,45.6Z"/></g><polygon id="_3-3" data-name="3" class="cls-11" points="36.25 45.58 36.25 53.26 28.29 56.42 28.29 48.8 36.25 45.58"/><polygon id="_2-3" data-name="2" class="cls-12" points="18.69 45.24 18.69 52.87 28.29 56.42 28.29 48.8 18.69 45.24"/><path id="_1-7" data-name="1" class="cls-13" d="M26.8,42l-8.11,3.21,9.6,3.56,8-3.22Z"/><path id="_1-8" data-name="1" class="cls-18" d="M26.85,42l-8.16,3.21,8.16,3Z"/><path id="_1-9" data-name="1" class="cls-15" d="M26.17,42.33,19,45.24l7.73,2.91"/></g><polyline id="r1-2" data-name="r1" class="cls-17" points="39 16 52 20 27.25 29 27.32 44.79"/></g></svg>