<svg id="Layer_3" data-name="Layer 3" xmlns="http://www.w3.org/2000/svg" xmlns:xlink="http://www.w3.org/1999/xlink" viewBox="0 0 64 64"><defs><linearGradient id="linear-gradient" x1="41.3" y1="53.33" x2="23.26" y2="22.08" gradientUnits="userSpaceOnUse"><stop offset="0" stop-color="#386f8d"/><stop offset="1" stop-color="#8dd7f4"/></linearGradient><linearGradient id="linear-gradient-3" x1="26.87" y1="16.34" x2="38.14" y2="35.86" gradientUnits="userSpaceOnUse"><stop offset="0" stop-color="#fff"/><stop offset="1" stop-color="#f1f0f0"/></linearGradient><linearGradient id="linear-gradient-4" x1="43.87" y1="24.77" x2="47.29" y2="30.69" gradientUnits="userSpaceOnUse"><stop offset="0" stop-color="#ababab"/><stop offset="1" stop-color="#5b5b5b"/></linearGradient></defs><title>I_SDWA</title><path d="M52.35,39.67,33.72,52.88a3,3,0,0,1-3.47,0L11.65,39.67a3,3,0,0,1,.14-5L30.39,23a3,3,0,0,1,3.18,0L52.21,34.68A3,3,0,0,1,52.35,39.67Z" stroke="#053755" stroke-linecap="round" stroke-linejoin="round" fill="url(#linear-gradient)"/><path d="M52.35,33.67,33.72,46.88a3,3,0,0,1-3.47,0L11.65,33.67a3,3,0,0,1,.14-5L30.39,17a3,3,0,0,1,3.18,0L52.21,28.68A3,3,0,0,1,52.35,33.67Z" stroke="#053755" stroke-linecap="round" stroke-linejoin="round" fill="url(#linear-gradient)"/><path d="M52.35,27.67,33.72,40.88a3,3,0,0,1-3.47,0L11.65,27.67a3,3,0,0,1,.14-5L30.39,11a3,3,0,0,1,3.18,0L52.21,22.68A3,3,0,0,1,52.35,27.67Z" fill="url(#linear-gradient-3)"/><path d="M52.21,22.68,49.67,21.1,37,30.07l5.8,4.38,9.56-6.78A3,3,0,0,0,52.21,22.68Z" fill="url(#linear-gradient-4)"/><polyline points="49.57 21.03 36.81 30.07 42.69 34.52" fill="none" stroke="#323232" stroke-linejoin="round"/><polygon points="27.63 17.66 37.17 24.31 41.57 21.18 31.86 14.66 27.63 17.66" fill="none" stroke="#323232" stroke-linejoin="round"/><polygon points="29.74 23.25 25.94 25.85 21.1 22.29 16.84 25.3 26.21 32.07 34.27 26.36 29.74 23.25" fill="none" stroke="#323232" stroke-linejoin="round"/><path d="M52.35,27.67,33.72,40.88a3,3,0,0,1-3.47,0L11.65,27.67a3,3,0,0,1,.14-5L30.39,11a3,3,0,0,1,3.18,0L52.21,22.68A3,3,0,0,1,52.35,27.67Z" fill="none" stroke="#323232" stroke-linecap="round" stroke-linejoin="round"/></svg>