<svg id="CATIA___J02_SMD_-_Sheetmetal_Design" data-name="CATIA _ (J02) SMD - Sheetmetal Design" xmlns="http://www.w3.org/2000/svg" xmlns:xlink="http://www.w3.org/1999/xlink" viewBox="0 0 64 64"><defs><style>.cls-1{fill:url(#linear-gradient);}.cls-2{fill:#6d6d6d;}.cls-3{fill:url(#linear-gradient-2);}.cls-4{fill:url(#linear-gradient-3);}.cls-5{fill:url(#linear-gradient-4);}.cls-6{fill:url(#linear-gradient-5);}.cls-7{fill:url(#linear-gradient-6);}.cls-8{fill:url(#linear-gradient-7);}.cls-9{fill:url(#linear-gradient-8);}.cls-10{fill:none;stroke:#2d2d2d;stroke-width:0.7px;}.cls-10,.cls-11{stroke-miterlimit:10;}.cls-11{stroke:#00415f;fill:url(#linear-gradient-9);}.cls-12{fill:url(#linear-gradient-10);}.cls-13{fill:#00415f;}</style><linearGradient id="linear-gradient" x1="62.51" y1="14" x2="11.05" y2="54.16" gradientUnits="userSpaceOnUse"><stop offset="0" stop-color="#fff"/><stop offset="1" stop-color="#a1a1a1"/></linearGradient><linearGradient id="linear-gradient-2" x1="27.24" y1="39.84" x2="40.18" y2="58.89" gradientUnits="userSpaceOnUse"><stop offset="0" stop-color="#8f8f8f"/><stop offset="1" stop-color="#d2d3d4"/></linearGradient><linearGradient id="linear-gradient-3" x1="13.01" y1="45.13" x2="28" y2="45.13" gradientUnits="userSpaceOnUse"><stop offset="0" stop-color="#c1c2c4"/><stop offset="1" stop-color="#a1a1a1"/></linearGradient><linearGradient id="linear-gradient-4" x1="3.86" y1="29.21" x2="12.17" y2="46.27" xlink:href="#linear-gradient"/><linearGradient id="linear-gradient-5" x1="42.29" y1="14.18" x2="50.17" y2="14.18" gradientUnits="userSpaceOnUse"><stop offset="0" stop-color="#ebebeb"/><stop offset="0.3" stop-color="#b0b0b0"/><stop offset="0.63" stop-color="#757575"/><stop offset="0.87" stop-color="#505050"/><stop offset="1" stop-color="#424242"/></linearGradient><linearGradient id="linear-gradient-6" x1="14.21" y1="40.09" x2="23.15" y2="40.09" gradientUnits="userSpaceOnUse"><stop offset="0" stop-color="#d9d9d9"/><stop offset="0.14" stop-color="#bdbdbd"/><stop offset="0.56" stop-color="#6f6f6f"/><stop offset="0.85" stop-color="#3e3e3e"/><stop offset="1" stop-color="#2b2b2b"/></linearGradient><linearGradient id="linear-gradient-7" x1="22.09" y1="53.94" x2="60.84" y2="-12.12" gradientUnits="userSpaceOnUse"><stop offset="0" stop-color="#f0f0f0"/><stop offset="0.14" stop-color="#eee"/><stop offset="0.19" stop-color="#e7e7e7"/><stop offset="0.23" stop-color="#dcdcdc"/><stop offset="0.26" stop-color="#cbcbcb"/><stop offset="0.29" stop-color="#b5b5b5"/><stop offset="0.31" stop-color="#999"/><stop offset="0.33" stop-color="#7a7a7a"/><stop offset="0.33" stop-color="#737373"/><stop offset="0.51" stop-color="#737373"/><stop offset="0.51" stop-color="#878787"/><stop offset="0.53" stop-color="#ababab"/><stop offset="0.55" stop-color="#c7c7c7"/><stop offset="0.57" stop-color="#dbdbdb"/><stop offset="0.58" stop-color="#e7e7e7"/><stop offset="0.6" stop-color="#ebebeb"/></linearGradient><linearGradient id="linear-gradient-8" x1="53.08" y1="42.56" x2="25.66" y2="62.13" xlink:href="#linear-gradient"/><linearGradient id="linear-gradient-9" x1="34.9" y1="46.51" x2="40.66" y2="41.61" gradientUnits="userSpaceOnUse"><stop offset="0" stop-color="#93d2f0"/><stop offset="0.5" stop-color="#5a9cb5"/><stop offset="0.9" stop-color="#195a72"/></linearGradient><linearGradient id="linear-gradient-10" x1="36" y1="48.46" x2="41.1" y2="39.76" xlink:href="#linear-gradient-9"/></defs><title>CATIA _ (J02) SMD - Sheetmetal Design</title><path class="cls-1" d="M41.37,39.64a.52.52,0,0,1-.36-.16l-.91-.94a.5.5,0,0,1,.23-.83c1.05-.27,1.34-.65,1.36-.78s0-11.44,0-12.83c0-.84.21-5.07,4.25-6.08,3.36-.84,10-2.52,10-2.52H56a.51.51,0,0,1,.31.11.5.5,0,0,1,.19.4l0,1.59a.5.5,0,0,1-.38.48c-.09,0-8.57,2.12-9.78,2.51-1,.3-2.16.69-2.32,3.78s-.08,12.72-.07,12.82a2.27,2.27,0,0,1-2.05,2,.56.56,0,0,1-.21.33A.52.52,0,0,1,41.37,39.64Z"/><path class="cls-2" d="M56,16h0m0,0,0,1.59S47.4,19.7,46.16,20.1s-2.5,1-2.67,4.23-.07,12.85-.07,12.85-.06,1.55-2.21,1.6l.16.36-.91-.94c1.77-.46,1.73-1.25,1.73-1.25s0-11.46,0-12.85.51-4.76,3.87-5.59S56,16,56,16m0-1h0a.85.85,0,0,0-.23,0l-9.94,2.51c-3.4.84-4.62,3.94-4.62,6.56,0,1.3,0,11.32,0,12.7a2.43,2.43,0,0,1-1,.43,1,1,0,0,0-.47,1.66l.92.94a1,1,0,0,0,1.28.13,1,1,0,0,0,.29-.3,2.69,2.69,0,0,0,2.18-2.44c0-.14-.09-9.69.08-12.83.14-2.75,1.07-3.05,2-3.34s6.8-1.77,9.75-2.49a1,1,0,0,0,.76-1l0-1.52V16a1,1,0,0,0-1-1Zm0,2Z"/><path class="cls-3" d="M36.18,53.05a.5.5,0,0,1-.37-.17l-8.06-9a.51.51,0,0,1-.13-.33V41.73a.5.5,0,0,1,.32-.46.39.39,0,0,1,.18,0,.48.48,0,0,1,.37.17l8.06,8.89a.5.5,0,0,1,.13.34v1.92a.5.5,0,0,1-.32.46A.39.39,0,0,1,36.18,53.05Z"/><path class="cls-2" d="M28.12,41.73l8.06,8.9v1.92l-8.06-9V41.73m0-1a1.15,1.15,0,0,0-.36.07,1,1,0,0,0-.64.93v1.78a1,1,0,0,0,.26.67l8.06,9a1,1,0,0,0,.74.34,1.15,1.15,0,0,0,.36-.07,1,1,0,0,0,.64-.93V50.63a1,1,0,0,0-.26-.67l-8.06-8.9a1,1,0,0,0-.74-.33Z"/><path class="cls-4" d="M13.51,48.87a.54.54,0,0,1-.3-.1.5.5,0,0,1-.2-.42l.07-2a.52.52,0,0,1,.35-.46l13.92-4.48a.39.39,0,0,1,.15,0,.53.53,0,0,1,.3.09.51.51,0,0,1,.2.41v1.7a.49.49,0,0,1-.34.47l-14,4.77A.45.45,0,0,1,13.51,48.87Z"/><path class="cls-2" d="M27.5,41.9v1.7l-14,4.77.07-2L27.5,41.9m0-1a1,1,0,0,0-.3,0L13.28,45.43a1,1,0,0,0-.7.91l-.07,2a1,1,0,0,0,.4.84,1,1,0,0,0,.6.2,1.19,1.19,0,0,0,.32,0l14-4.77a1,1,0,0,0,.67-.95V41.9a1,1,0,0,0-.41-.81,1,1,0,0,0-.59-.19Z"/><path class="cls-5" d="M13.2,48.77a.5.5,0,0,1-.42-.23L8.21,41.3A.59.59,0,0,1,8.14,41l-.05-1.87a.5.5,0,0,1,.36-.49.36.36,0,0,1,.14,0,.51.51,0,0,1,.43.23l4.6,7.21a.5.5,0,0,1,.08.27v1.9a.5.5,0,0,1-.36.48Z"/><path class="cls-2" d="M8.59,39.16l4.61,7.21v1.9L8.64,41l-.05-1.87m0-1a1,1,0,0,0-.29,0,1,1,0,0,0-.71,1l0,1.87a.9.9,0,0,0,.15.51l4.56,7.24a1,1,0,0,0,.85.47,1,1,0,0,0,.28,0,1,1,0,0,0,.72-1v-1.9a1,1,0,0,0-.16-.54l-4.6-7.21a1,1,0,0,0-.85-.46Z"/><path class="cls-6" d="M46.36,16.12l-.51,0c-2.15-.1-4.3-.86-4.24-2.12s2-1.73,3.9-1.73H46c2.15.1,4.3.87,4.24,2.13S48.26,16.12,46.36,16.12Z"/><path class="cls-2" d="M45.51,12.75H46c2.11.1,3.79.82,3.76,1.6s-1.52,1.26-3.4,1.26l-.49,0c-2.11-.1-3.8-.81-3.76-1.6s1.51-1.25,3.4-1.25m0-1h0c-2.08,0-4.33.58-4.4,2.21s2.31,2.53,4.71,2.64l.54,0c2.08,0,4.33-.58,4.4-2.21s-2.31-2.53-4.71-2.65Z"/><path class="cls-7" d="M14.83,42.35a.5.5,0,0,1-.47-.31,2.41,2.41,0,0,1-.14-.59c-.15-1.7,1.68-3.26,4.17-3.57a7.49,7.49,0,0,1,.81-.05c2.15,0,3.8,1.08,3.94,2.55a2.27,2.27,0,0,1-.12.92.5.5,0,0,1-.46.34h0a.51.51,0,0,1-.47-.32c-.3-.78-1.48-1.32-2.86-1.32a5.43,5.43,0,0,0-.69,0c-1.55.19-2.91,1-3.23,2a.48.48,0,0,1-.46.34Z"/><path class="cls-2" d="M19.2,38.33c1.85,0,3.33.86,3.44,2.1a1.72,1.72,0,0,1-.09.71c-.39-1-1.72-1.64-3.33-1.64a4.81,4.81,0,0,0-.75,0c-1.81.22-3.27,1.18-3.64,2.3a1.35,1.35,0,0,1-.11-.45c-.13-1.4,1.54-2.75,3.73-3a6.44,6.44,0,0,1,.75-.05m0-1h0a6.36,6.36,0,0,0-.87.06c-2.76.34-4.79,2.14-4.61,4.1a3,3,0,0,0,.18.73,1,1,0,0,0,.93.63h0a1,1,0,0,0,.92-.68,3.37,3.37,0,0,1,2.81-1.63,4.44,4.44,0,0,1,.63,0c1.32,0,2.2.51,2.4,1a1,1,0,0,0,.93.63h0a1,1,0,0,0,.92-.68,2.71,2.71,0,0,0,.13-1.12c-.16-1.77-2-3-4.43-3Z"/><path class="cls-8" d="M39.85,52.18a.54.54,0,0,1-.21,0L36,50.42a.42.42,0,0,1-.16-.11L28,41.65,14,46.2l-.16,0a.5.5,0,0,1-.41-.22L8.56,38.79A.5.5,0,0,1,8.83,38L32.6,31.15s.9-.31.9-1v-13a4.62,4.62,0,0,1,3.79-4.52c3.52-.84,9.82-2,9.89-2.06h.09a.59.59,0,0,1,.23.05l7.82,4.08a.51.51,0,0,1,.26.51.48.48,0,0,1-.38.42c-.07,0-7.08,1.69-10.32,2.52-2.64.67-2.94,3.47-2.94,5.51v13a.49.49,0,0,1-.24.42,9.23,9.23,0,0,1-1.39.5l8.85,8a.5.5,0,0,1,.1.61l-1.43,2.61a.45.45,0,0,1-.25.22L40,52.14A.58.58,0,0,1,39.85,52.18ZM19.14,38c-.23,0-.47,0-.7,0-2.05.22-3.37,1.29-3.29,2.12s1.37,1.39,2.94,1.39a5.58,5.58,0,0,0,.7,0c2-.22,3.37-1.29,3.29-2.11S20.7,38,19.14,38ZM45.51,13.25c-1.89,0-2.89.54-2.9.77s1.12,1,3.28,1.08l.47,0c1.89,0,2.89-.55,2.9-.78s-1.12-1-3.28-1.08Z"/><path class="cls-2" d="M47.27,11.12l7.81,4.08s-7,1.67-10.32,2.51-3.32,4.6-3.32,6v13a14.55,14.55,0,0,1-2.12.69L48.82,46,47.39,48.6l-7.54,3.08L36.18,50l-8.06-8.9L13.84,45.72,9,38.51l23.77-6.88S34,31.23,34,30.17v-13a4.09,4.09,0,0,1,3.4-4c3.56-.84,9.87-2.05,9.87-2.05m-.91,4.5c1.88,0,3.37-.53,3.4-1.26s-1.65-1.5-3.76-1.6h-.49c-1.89,0-3.37.53-3.4,1.25s1.65,1.5,3.76,1.6l.49,0M18.09,42.05a6.28,6.28,0,0,0,.75,0c2.19-.24,3.86-1.43,3.73-2.66S21,37.51,19.14,37.51a6.56,6.56,0,0,0-.76,0c-2.18.23-3.85,1.42-3.73,2.66.12,1.09,1.59,1.84,3.44,1.84M47.27,10.12h-.19c-.06,0-6.38,1.23-9.91,2.07A5.09,5.09,0,0,0,33,17.26V30.17c0,.29-.56.51-.57.51L8.69,37.55a1,1,0,0,0-.55,1.52L13,46.28a1,1,0,0,0,.83.44.79.79,0,0,0,.3,0l13.68-4.44,7.62,8.41a1.08,1.08,0,0,0,.32.24l3.67,1.7a.9.9,0,0,0,.42.1,1,1,0,0,0,.38-.08l7.54-3.07a1,1,0,0,0,.5-.45l1.43-2.61a1,1,0,0,0-.21-1.22l-8.2-7.41a3.82,3.82,0,0,0,.67-.28,1,1,0,0,0,.48-.85v-13c0-1.88.26-4.44,2.57-5,3.23-.83,10.24-2.49,10.31-2.51a1,1,0,0,0,.23-1.86l-7.81-4.08a1.12,1.12,0,0,0-.47-.11Zm-3.86,3.94a6.06,6.06,0,0,1,2.1-.31H46a6.93,6.93,0,0,1,2.51.54,6,6,0,0,1-2.1.32l-.44,0a6.52,6.52,0,0,1-2.51-.54Zm-25.32,27c-1.45,0-2.4-.55-2.44-.95s1-1.36,2.84-1.56c.22,0,.43,0,.65,0,1.45,0,2.4.55,2.44.94s-1,1.37-2.84,1.57l-.65,0Z"/><path class="cls-9" d="M39.43,53.56A1.85,1.85,0,0,1,38.25,53c-.29-.25-.4-.35-.51-.35l-.13,0-1,.36a.57.57,0,0,1-.18,0,.47.47,0,0,1-.28-.09.47.47,0,0,1-.22-.4l0-1.18a.51.51,0,0,1,.34-.48l2.1-.73a.72.72,0,0,1,.31-.06,1.08,1.08,0,0,1,.91.53l.09.14c.2.3.23.31.32.31a.93.93,0,0,0,.25,0c.75-.23,4.83-1.88,4.87-1.9s.23-.28.37-.62a2.25,2.25,0,0,1,1.33-1.47c1.12-.4,1.81-.68,1.81-.68a.46.46,0,0,1,.19,0,.45.45,0,0,1,.3.1.51.51,0,0,1,.2.45L49.2,48a.51.51,0,0,1-.31.41l-1,.4c-.17.07-.25.25-.39.65A2.19,2.19,0,0,1,46.35,51c-1.05.45-6.3,2.47-6.62,2.56A1.54,1.54,0,0,1,39.43,53.56Z"/><path class="cls-2" d="M48.82,46.88,48.71,48l-1,.4c-.84.34-.5,1.64-1.56,2.11S39.88,53,39.6,53l-.17,0a1.36,1.36,0,0,1-.85-.4c-.3-.26-.52-.47-.84-.47a1.18,1.18,0,0,0-.29.05c-.49.16-1,.36-1,.36l0-1.18,2.1-.73a.36.36,0,0,1,.15,0,.63.63,0,0,1,.5.31c.23.35.38.67.82.67a1.35,1.35,0,0,0,.4-.07c.78-.24,4.9-1.91,4.9-1.91.79-.39.55-1.69,1.68-2.09s1.84-.69,1.84-.69m0-1a.94.94,0,0,0-.37.07s-.7.29-1.8.68A2.72,2.72,0,0,0,45,48.38a2.74,2.74,0,0,1-.18.38c-1.18.48-4.07,1.64-4.72,1.85l0,0L40,50.41a1.64,1.64,0,0,0-1.33-.75,1.33,1.33,0,0,0-.49.09l-2.09.73a1,1,0,0,0-.67,1l0,1.18a1,1,0,0,0,1,1,.84.84,0,0,0,.35-.07l.89-.31.16.14.07.06a2.36,2.36,0,0,0,1.51.64,1.54,1.54,0,0,0,.43-.06c.4-.11,5.71-2.16,6.69-2.59A2.65,2.65,0,0,0,48,49.66a2.06,2.06,0,0,1,.15-.36l.95-.39a1,1,0,0,0,.62-.82L49.82,47a1,1,0,0,0-.4-.9,1,1,0,0,0-.6-.2Zm0,2h0Z"/><path class="cls-10" d="M49.74,46a.48.48,0,0,0-.16-.47l-7.36-6.34a2.2,2.2,0,0,0,1.7-2c0-.09-.1-9.66.07-12.82s1.36-3.47,2.32-3.78c1.21-.39,9.69-2.49,9.78-2.51a.49.49,0,0,0,.38-.48l0-1.59s0-1-.6-1.25-8-4.08-8-4.08a.5.5,0,0,0-.32,0c-.07,0-6.54,1.29-10.15,2.12a4.68,4.68,0,0,0-3.92,4.51v13c0,.69-.76,1-.76,1L8.25,38a1.1,1.1,0,0,0-.75,1.14l0,1.87a.53.53,0,0,0,.08.26l4.68,7.24a.49.49,0,0,0,.42.23h0a.47.47,0,0,0,.3.1l.16,0,14.35-4.77c.08,0,.48.17.48.17l7.8,8.54A.6.6,0,0,0,36,53a.47.47,0,0,0,.28.09.39.39,0,0,0,.18,0s.34-.11.83-.3c1.09-.42.83,1.48,3.16.64A50.7,50.7,0,0,0,46.69,51c.9-.5.84-1.53,1.3-1.89a9.52,9.52,0,0,1,1.33-.67.52.52,0,0,0,.32-.43l.11-1.55Z"/><path class="cls-11" d="M38.91,50.51c.29.43.45.84,1.22.6S45,49.2,45,49.2c.79-.39.55-1.69,1.68-2.09l.34-.12-9-8.11s-1.86-2.16-5.8-.86-1.94,3.77-1.94,3.77l7.86,8.48.12,0A.55.55,0,0,1,38.91,50.51Z"/><path class="cls-12" d="M32,41.7s-.3-.31-.25-.58.42-.54,1-.77a3.64,3.64,0,0,1,1.34-.27,2.89,2.89,0,0,1,1.84.63l8.67,7.85L40,50.43Z"/><path class="cls-13" d="M34.05,40.58a2.42,2.42,0,0,1,1.51.5l8.08,7.32-3.52,1.43-7.8-8.47,0,0,0,0a.74.74,0,0,1-.06-.11,1.7,1.7,0,0,1,.68-.4,3.32,3.32,0,0,1,1.16-.23m0-1a4.21,4.21,0,0,0-1.53.3c-2.27.89-.94,2.16-.94,2.16l8.27,9,5.63-2.3-9.25-8.38a3.36,3.36,0,0,0-2.18-.76Z"/></svg>