<?xml version="1.0" encoding="utf-8"?>
<!-- Generator: Adobe Illustrator 25.3.1, SVG Export Plug-In . SVG Version: 6.00 Build 0)  -->
<svg version="1.1" id="Layer_5" xmlns="http://www.w3.org/2000/svg" xmlns:xlink="http://www.w3.org/1999/xlink" x="0px" y="0px"
	 viewBox="0 0 64 64" style="enable-background:new 0 0 64 64;" xml:space="preserve">
<style type="text/css">
	.st0{fill:url(#SVGID_1_);stroke:#6D6D6D;stroke-width:0.6;stroke-linecap:round;stroke-linejoin:round;stroke-miterlimit:10;}
	.st1{fill:url(#SVGID_2_);stroke:#6D6D6D;stroke-width:0.6;stroke-linecap:round;stroke-linejoin:round;stroke-miterlimit:10;}
	.st2{fill:url(#SVGID_3_);}
	.st3{fill:url(#SVGID_4_);}
	.st4{opacity:0.4;}
	.st5{opacity:0.4;fill:#FFFFFF;fill-opacity:0.7;}
	.st6{opacity:0.4;fill:url(#SVGID_5_);fill-opacity:0.7;}
	.st7{opacity:0.3;fill:#FFFFFF;fill-opacity:0.7;}
	.st8{opacity:0.5;}
	.st9{fill:url(#SVGID_6_);}
	.st10{opacity:0.2;}
	.st11{fill:url(#SVGID_7_);}
	.st12{fill:none;stroke:#003755;stroke-linecap:round;stroke-linejoin:round;stroke-miterlimit:10;}
	.st13{opacity:0.6;fill:url(#SVGID_8_);fill-opacity:0.7;}
	.st14{opacity:0.21;}
	.st15{opacity:0.6;fill:#FFFFFF;fill-opacity:0.7;}
	.st16{fill:none;stroke:#003755;stroke-linecap:round;stroke-miterlimit:10;}
	.st17{fill:url(#SVGID_9_);}
	.st18{filter:url(#DS_GaussianBlur_2);}
	.st19{fill:url(#SVGID_10_);}
	.st20{opacity:0.7;fill:#FFFFFF;fill-opacity:0.7;}
	.st21{opacity:0.5;fill:#FFFFFF;fill-opacity:0.7;}
	.st22{fill:url(#SVGID_11_);stroke:#6D6D6D;stroke-width:0.6;stroke-linecap:round;stroke-linejoin:round;stroke-miterlimit:10;}
	.st23{fill:none;stroke:#323232;stroke-linecap:round;stroke-linejoin:round;stroke-miterlimit:10;}
	.st24{fill:none;stroke:#4D4D4D;stroke-width:0.75;stroke-linecap:round;stroke-linejoin:round;stroke-miterlimit:10;}
	.st25{fill:url(#SVGID_12_);stroke:#4D4D4D;stroke-width:0.6;stroke-linecap:round;stroke-linejoin:round;stroke-miterlimit:10;}
	.st26{fill:url(#SVGID_13_);}
	.st27{fill:url(#SVGID_14_);stroke:#4D4D4D;stroke-width:0.6;stroke-linecap:round;stroke-linejoin:round;stroke-miterlimit:10;}
	.st28{fill:url(#SVGID_15_);}
	.st29{fill:#787878;}
	.st30{fill:url(#SVGID_16_);stroke:#4D4D4D;stroke-width:0.6;stroke-linecap:round;stroke-linejoin:round;stroke-miterlimit:10;}
	.st31{fill:url(#SVGID_17_);}
	.st32{fill:url(#SVGID_18_);stroke:#4D4D4D;stroke-width:0.6;stroke-linecap:round;stroke-linejoin:round;stroke-miterlimit:10;}
	.st33{fill:url(#SVGID_19_);}
</style>
<filter  height="200%" id="DS_GaussianBlur_2" width="200%" x="-50%" y="-50%">
	<feGaussianBlur  stdDeviation="1"></feGaussianBlur>
</filter>
<linearGradient id="SVGID_1_" gradientUnits="userSpaceOnUse" x1="17.8125" y1="32.3322" x2="6.3279" y2="27.9123" gradientTransform="matrix(0.954 0.2252 -0.3014 0.9469 10.499 -3.8194)">
	<stop  offset="5.865922e-02" style="stop-color:#838787"/>
	<stop  offset="0.3082" style="stop-color:#ADB0B0"/>
	<stop  offset="0.7428" style="stop-color:#FFFFFF"/>
	<stop  offset="1" style="stop-color:#FFFFFF"/>
</linearGradient>
<path class="st0" d="M19.7,28.2L14.4,34l-5-0.2l-2.8-4l1.1-2.6l6.2-5c0,0,2.2-1.6,5,0.7C20.9,24.3,19.7,28.2,19.7,28.2z"/>
<linearGradient id="SVGID_2_" gradientUnits="userSpaceOnUse" x1="15.058" y1="19.8547" x2="22.1326" y2="17.464" gradientTransform="matrix(2.740811e-02 -0.9996 1.1694 3.206404e-02 -11.4263 48.8715)">
	<stop  offset="0.1559" style="stop-color:#AEAFB0"/>
	<stop  offset="0.7682" style="stop-color:#1B1C1C"/>
</linearGradient>
<polygon class="st1" points="14.6,31.6 13.7,29.1 11.6,27.6 8.6,27.6 7.9,32.2 12.5,34.4 "/>
<g>
	<linearGradient id="SVGID_3_" gradientUnits="userSpaceOnUse" x1="29.5909" y1="19.801" x2="48.8895" y2="53.227">
		<stop  offset="0" style="stop-color:#315563"/>
		<stop  offset="1" style="stop-color:#A0E1FA"/>
	</linearGradient>
	<path class="st2" d="M52.3,39.5l-3.4-1L43.4,34l-4-1.8l-0.6-0.9l0.1-1.2l5-1.7l7-4.2l3.3-0.1l0.5-0.9l-8.1-0.9l-1.8,0.7l-9.9,4.5
		L33,27.5l-1-1.7l0.2-3.3c0,0-5.7,0.9-5.9,0.9c-0.3,0-8.3,3.2-8.3,3.2l0.4,1.4L18,29.6l0.1,1.1l-0.9,0.6l-0.7,1.7L14.9,34l0.6,1.3
		l3.9,2.3l8.8,2.3l7.3,3.3l5.4,3.3l6.7,3.3l4.6,1.5l1.2-1.1l0.7-2.7l0.5-3.6L53.9,41L52.3,39.5z M28.4,29.6
		c-0.6,3.3-6.6,1.4-7.8,0.3c-0.5-0.4-0.6-0.8-0.6-1.2c0.1-0.3,0.4-0.7,1-1C22.6,26.9,29,26.3,28.4,29.6z M40.1,38.3l-7.8-2.4
		l-0.8-0.7l-0.7-2.1l1.1-1.2l1.8,0.9l7,5.2l2.6,2.4L40.1,38.3z"/>
</g>
<g>
	<linearGradient id="SVGID_4_" gradientUnits="userSpaceOnUse" x1="30.6799" y1="22.0279" x2="38.822" y2="35.2277">
		<stop  offset="5.586592e-03" style="stop-color:#233D47"/>
		<stop  offset="0.2277" style="stop-color:#315563;stop-opacity:0"/>
	</linearGradient>
	<path class="st3" d="M50.9,39.3L39,32.4l-0.6-0.6l0.2-0.9l3.4-2.1l7.9-4.3l4.2-0.3l0.5-0.9l-8.1-0.9l-1.8,0.7l-9.9,4.5L33,27.5
		l-1-1.7l0.2-3.3c0,0-5.7,0.9-5.9,0.9c-0.3,0-8.3,3.2-8.3,3.2l0.4,1.4L18,29.6l0.1,1.1L16.5,31l-0.8,1.6l-0.3,0.9l0.3,1.8l3.5,2.5
		l6.3,1l10,4.4l5.4,3.3l6.3,3.3l5,1.4l1.2-1.1l0.7-2.7l0.5-3.6L53.9,41L50.9,39.3z M28.4,29.6c-0.6,3.3-6.6,1.4-7.8,0.3
		c-0.5-0.4-0.6-0.8-0.6-1.2c0.1-0.3,0.4-0.7,1-1C22.6,26.9,29,26.3,28.4,29.6z M40.1,38.3l-7.8-2.4l-0.8-0.7l-0.6-1.8l0.9-1.5
		l1.8,0.9l7,5.2l2.6,2.4L40.1,38.3z"/>
</g>
<g class="st4">
	<g>
		<image style="overflow:visible;" width="16" height="8" xlink:href="C684F60C.png"  transform="matrix(1 0 0 1 32.4293 23.7635)">
		</image>
	</g>
</g>
<path class="st5" d="M34,29.1l9.2-3.7c0,0-1.5,2.1-4.3,3.2C36,29.6,34,29.1,34,29.1z"/>
<linearGradient id="SVGID_5_" gradientUnits="userSpaceOnUse" x1="18.5267" y1="34.1826" x2="45.2219" y2="41.7919">
	<stop  offset="5.586592e-03" style="stop-color:#23B3E8;stop-opacity:0.8"/>
	<stop  offset="0.5014" style="stop-color:#4FCBFF;stop-opacity:0.6"/>
	<stop  offset="1" style="stop-color:#78C4E3;stop-opacity:0"/>
</linearGradient>
<path class="st6" d="M17.9,31.5l8.6,3.8c0,0-0.3-0.4,0.8,0.7c0.6,0.6,0.7,0.9,1.4,1.4c0.3,0.3,1.9,1,1-0.8C29.3,36,29,34.8,29.5,34
	c1.3-2.3,2.4-2.4,2.4-2.4l-1,2.7l3.9,4.5l8.3,2.5l0.1,6.4c0,0-5.7-3.7-11.3-6.3c-4.8-2.3-7.2-2.3-8.1-2.7c-5.4-2.4-5.1-2.4-5.8-3.2
	C16.9,34.2,17.9,31.5,17.9,31.5z"/>
<path class="st7" d="M18.4,33.1c0,0,3.4,1.8,5.1,2.5c1.7,0.7,4.5,2.5,4.5,2.5s-1.3-0.4-4.7-1.5C17.3,34.5,18.4,33.1,18.4,33.1z"/>
<g class="st8">
	<linearGradient id="SVGID_6_" gradientUnits="userSpaceOnUse" x1="38.9326" y1="38.0219" x2="38.3439" y2="40.2761">
		<stop  offset="5.586592e-03" style="stop-color:#233D47"/>
		<stop  offset="0.3776" style="stop-color:#25414B;stop-opacity:0.6259"/>
		<stop  offset="0.7688" style="stop-color:#2B4B58;stop-opacity:0.2325"/>
		<stop  offset="1" style="stop-color:#315563;stop-opacity:0"/>
	</linearGradient>
	<polygon class="st9" points="34.5,38.6 36.4,39.3 43.5,41.7 41,38.7 33.7,36.7 	"/>
</g>
<g class="st10">
	<linearGradient id="SVGID_7_" gradientUnits="userSpaceOnUse" x1="44.5533" y1="41.4267" x2="42.5645" y2="45.3797">
		<stop  offset="5.586592e-03" style="stop-color:#233D47"/>
		<stop  offset="0.2117" style="stop-color:#25414B;stop-opacity:0.6259"/>
		<stop  offset="0.4285" style="stop-color:#2B4B58;stop-opacity:0.2325"/>
		<stop  offset="0.5566" style="stop-color:#315563;stop-opacity:0"/>
	</linearGradient>
	<polygon class="st11" points="38.8,40.2 44.2,45.2 48.2,46.9 47,43 43,41 	"/>
</g>
<path class="st12" d="M35.3,39.5c0,0-4.2-4.4-4.6-5.6c-0.2-0.6,0.1-2.3,1.5-2.1c1.4,0.2,4.6,3.1,6.3,4.6c2.1,1.9,5.5,5.4,5.5,5.4"/>
<linearGradient id="SVGID_8_" gradientUnits="userSpaceOnUse" x1="38.0661" y1="34.3524" x2="52.2929" y2="38.4076">
	<stop  offset="5.586592e-03" style="stop-color:#66D6FF;stop-opacity:0.8"/>
	<stop  offset="0.5014" style="stop-color:#82DAFF;stop-opacity:0.6"/>
	<stop  offset="1" style="stop-color:#D9F4FF;stop-opacity:0.7"/>
</linearGradient>
<path class="st13" d="M39.4,29.2c0,0-2,2.1-1.1,3.9c0.5,1.1,0.8,0.9,2.1,2c2.9,2.5,3.5,5.9,5.6,6.7c2.1,0.8,4.6,1.6,4.6,1.6l1.3-4.3
	l-2.5-0.4l-4.8-3.8L39,31.4L39.4,29.2z"/>
<g class="st14">
	<g>
		<image style="overflow:visible;" width="19" height="7" xlink:href="C684F60D.png"  transform="matrix(1 0 0 1 13.3008 32.9699)">
		</image>
	</g>
</g>
<g class="st4">
	<g>
		<image style="overflow:visible;" width="18" height="9" xlink:href="C684F60B.png"  transform="matrix(1 0 0 1 38.1678 34.4824)">
		</image>
	</g>
</g>
<g class="st4">
	<g>
		<image style="overflow:visible;" width="18" height="9" xlink:href="C684F614.png"  transform="matrix(1 0 0 1 35.4641 41.1861)">
		</image>
	</g>
</g>
<path class="st15" d="M42.3,35c0,0,2.7,1.7,3.8,2.8c0.6,0.6,1.7,1.5,2.5,1.9c0.8,0.3,1.3,0.4,1.3,0.4l-0.5,1.4c0,0-0.9-0.3-2.5-1
	c-1-0.5-1.7-1.7-2.4-2.4C43.1,36.4,42.3,35,42.3,35z"/>
<path class="st12" d="M46,22.6c0,0-11.2,6.2-13.1,4.9c-1.9-1.3-0.6-5.6-0.6-5.6l-3.6,0.4L17.1,26c0,0,1.1,1.2,1.1,2.7
	c-0.1,1.5-0.4,2.4-0.4,2.4s1.5,1.4,3.8,2.4c1.4,0.6,4.8,1.9,4.8,1.9"/>
<path class="st16" d="M40.5,38.3c0,0-2.1-0.9-3.4-1c-1.4-0.1-4.5-1.1-4.5-1.1"/>
<linearGradient id="SVGID_9_" gradientUnits="userSpaceOnUse" x1="34.111" y1="13.3567" x2="34.8099" y2="23.0834">
	<stop  offset="0" style="stop-color:#A0E1FA"/>
	<stop  offset="0.5754" style="stop-color:#73C3E1"/>
	<stop  offset="1" style="stop-color:#51899E"/>
</linearGradient>
<path class="st17" d="M54.7,23.6c0,0,0.8-1.5,0.8-2.4c0.1-1.2-1.4-8.6-1.4-8.6s-6.8,0.1-9.2,0.9c-2.2,0.7-0.7,0.3-7.1,2.5
	c-2.9,1-10.4,1.3-14,2.5c-4.4,1.4-9.7,5.9-9.7,7.1c0,0.8,1.1,1.9,1.8,1.9c2-0.2,4.4-0.8,6.9-1.8c2.9-1.2,6.1-2.9,10.7-3.2
	c8.4-0.5,11.3-0.3,11.6,0.4"/>
<g class="st18">
	
		<radialGradient id="SVGID_10_" cx="34.6388" cy="32.3921" r="44.9785" fx="33.6868" fy="32.5949" gradientTransform="matrix(0.9329 -8.746807e-02 3.639375e-02 0.264 2.3067 23.7307)" gradientUnits="userSpaceOnUse">
		<stop  offset="0.329" style="stop-color:#2B4E5E"/>
		<stop  offset="0.4166" style="stop-color:#315768"/>
		<stop  offset="0.5646" style="stop-color:#416F82"/>
		<stop  offset="0.7539" style="stop-color:#5B97AD"/>
		<stop  offset="0.7974" style="stop-color:#62A1B8"/>
		<stop  offset="1" style="stop-color:#69B0CC"/>
	</radialGradient>
	<path class="st19" d="M15.7,27c0,0,6.8-5.1,10.1-5.6c5.1-0.7,10-1.5,12.6-2.1c2.6-0.5,7-0.5,8.7-0.3c1.7,0.2,5.8,0.8,5.8,0.8
		l0.7,3.1l-6.9-1.1c0,0-3.5-0.9-7.5-0.9c-4.1-0.1-13.3,1.6-13.3,1.6l-7.1,3.2L15.7,27z"/>
</g>
<g class="st4">
	<g>
		<image style="overflow:visible;" width="19" height="6" xlink:href="C684F617.png"  transform="matrix(1 0 0 1 37.0873 13.3865)">
		</image>
	</g>
</g>
<path class="st20" d="M40.7,16.2c0,0,3.3-1.3,4.8-1.8c1.2-0.4,5.9-0.8,5.9-0.8L51,14.7c0,0-2-0.1-3.7,0.3c-1.1,0.3-1.9,0.5-2.9,0.6
	C41.6,16.2,40.7,16.2,40.7,16.2z"/>
<g class="st14">
	<g>
		<image style="overflow:visible;" width="19" height="6" xlink:href="C684F615.png"  transform="matrix(1 0 0 1 15.2539 18.5902)">
		</image>
	</g>
</g>
<path class="st21" d="M18.4,22.1c0,0,3.4-1.6,4.8-2.3c2-0.9,7.1-1.4,7.1-1.4l-0.2,0.4c0,0-3,0.7-4.6,1.3c-1.1,0.4-1,0.4-2,0.8
	C21.4,21.7,18.4,22.1,18.4,22.1z"/>
<linearGradient id="SVGID_11_" gradientUnits="userSpaceOnUse" x1="6.7345" y1="31.7897" x2="14.6368" y2="29.5784" gradientTransform="matrix(1 0 -7.407407e-02 0.9877 2.5665 0.4278)">
	<stop  offset="0.1313" style="stop-color:#B6B8BA"/>
	<stop  offset="0.3158" style="stop-color:#E0E1E2"/>
	<stop  offset="0.4411" style="stop-color:#FFFFFF"/>
	<stop  offset="0.5153" style="stop-color:#F9F9F9"/>
	<stop  offset="0.6124" style="stop-color:#E9E9E9"/>
	<stop  offset="0.7222" style="stop-color:#CECECE"/>
	<stop  offset="0.8405" style="stop-color:#A8A8A8"/>
	<stop  offset="0.8966" style="stop-color:#949494"/>
</linearGradient>
<path class="st22" d="M15.8,30.7c-0.3-2.5-2.7-4.6-5.3-4.6s-4.4,2.1-4,4.6c0.3,2.5,2.7,4.6,5.3,4.6S16.2,33.2,15.8,30.7z M11.5,33
	c-1.3,0-2.5-1-2.6-2.3c-0.2-1.3,0.7-2.3,2-2.3s2.5,1,2.6,2.3C13.7,31.9,12.8,33,11.5,33z"/>
<path class="st23" d="M16.9,21.8c0,0-0.6-0.3-1.3-0.3c-0.8,0-1.7,0.4-1.8,0.5c-0.2,0.2-5.6,4.6-5.6,4.6S6.9,27.7,6.6,29
	c-0.3,1.8,0.1,4,1.6,5.1c2.2,1.6,3.4,1.5,5.2,0.9c0.3-0.1,0.7-0.4,1.1-0.7c0.7-0.6,1.4-1.3,1.4-1.3"/>
<path class="st12" d="M46.1,23.3c-0.7-0.2-4.1-1.2-12.5-0.6c-4.6,0.3-7.8,1.8-10.7,3c-2.5,1-5,1.7-6.9,1.9c-0.8,0.1-2.9-1.2-1.9-2.9
	c0.6-1,5.4-4.6,9.9-6.1c3.6-1.2,11-1.6,14-2.5c4.3-1.3,5.1-1.9,7.3-2.4c2.6-0.6,7.6-0.9,8.6-1.4c0.3-0.1,2,1.2,2.3,1.7
	c0.8,1.3,0.5,5.9,0.3,7.1c-0.4,2.9-2.1,3.1-2.1,3.1l-0.7-0.3c0,0-0.7,0.1-2.2,0.4c-2,0.4-4.9,3-7.7,4.3c-2.4,1.1-4.6,0.7-4.7,2
	c-0.2,1.9,1.5,1.9,4.3,3.5c2.5,1.5,5.6,4.3,7.6,5.3c1.2,0.6,2.7,0,2.7,0s1.5,3.8,0.9,7.4c-0.6,3.6-1.5,3.8-2.2,3.8
	c-0.7,0.1-5.1,0.1-12.7-5c-11.2-7.5-13.3-5.1-19.2-7.5c-4.9-2-5.5-4-5.5-4s0.5-0.3,1.2-1.2c1-1.3,1.1-2.1,1.1-2.1l0.7,0"/>
<path class="st24" d="M14.5,34.3c1-0.8,1.5-2.2,1.3-3.7c-0.3-2.5-2.7-4.6-5.3-4.6c-0.4,0-1.4,0.1-2.1,0.4"/>
<path class="st23" d="M13.7,22c-0.2,0.2-5.6,4.6-5.6,4.6S6.9,27.7,6.6,29"/>
<linearGradient id="SVGID_12_" gradientUnits="userSpaceOnUse" x1="49.6038" y1="23.3766" x2="49.7548" y2="18.4265" gradientTransform="matrix(0.9969 -7.911381e-02 8.640134e-02 1.0887 -1.736 6.900545e-02)">
	<stop  offset="0.1313" style="stop-color:#CCCED0"/>
	<stop  offset="0.3897" style="stop-color:#F6F6F7"/>
	<stop  offset="0.4411" style="stop-color:#FFFFFF"/>
	<stop  offset="0.5122" style="stop-color:#F9F9F9"/>
	<stop  offset="0.6052" style="stop-color:#E9E9E9"/>
	<stop  offset="0.7104" style="stop-color:#CECECE"/>
	<stop  offset="0.8237" style="stop-color:#A8A8A8"/>
	<stop  offset="0.8966" style="stop-color:#8C8C8C"/>
</linearGradient>
<path class="st25" d="M47.2,16.3c0,0,0.2,1.1,0.1,2.1c0,1.2-0.1,2.1-0.1,2.1l4.4,1c0,0,0-0.2-0.2-2.3c-0.2-2.4,0.3-3.7,0.3-3.7
	L47.2,16.3z"/>
<linearGradient id="SVGID_13_" gradientUnits="userSpaceOnUse" x1="48.3198" y1="22.1107" x2="50.3922" y2="19.9318" gradientTransform="matrix(0.8221 -6.524584e-02 7.776606e-02 0.9799 7.0532 1.6312)">
	<stop  offset="0" style="stop-color:#FFFFFF"/>
	<stop  offset="1" style="stop-color:#FFFFFF;stop-opacity:0"/>
</linearGradient>
<path class="st26" d="M47.6,16.6c0,0,0.1,0,0.1,1.4c0,1.5,0,2.3,0,2.3l3.6,0.7c0,0,0.1,0-0.1-1.8c-0.2-2.1,0.2-3.3,0.2-3.3
	L47.6,16.6z"/>
<linearGradient id="SVGID_14_" gradientUnits="userSpaceOnUse" x1="51.0693" y1="13.0316" x2="57.334" y2="23.8823">
	<stop  offset="0" style="stop-color:#F5F5F5"/>
	<stop  offset="0.118" style="stop-color:#E3E3E3"/>
	<stop  offset="0.4173" style="stop-color:#BBBBBB"/>
	<stop  offset="0.6546" style="stop-color:#A2A2A2"/>
	<stop  offset="0.7989" style="stop-color:#999999"/>
</linearGradient>
<path class="st27" d="M53,11.9c0,0-1.5,2-1.4,6.9c0.1,4.9,1.5,6.2,1.5,6.2l2.1,0l0.4-13.1L53,11.9z"/>
<g>
	
		<linearGradient id="SVGID_15_" gradientUnits="userSpaceOnUse" x1="54.5192" y1="15.804" x2="59.1555" y2="23.8344" gradientTransform="matrix(0.9085 -0.5961 0.1411 1.0689 1.0044 31.2718)">
		<stop  offset="0" style="stop-color:#FFFFFF"/>
		<stop  offset="1" style="stop-color:#D2D2D2"/>
	</linearGradient>
	<path class="st28" d="M55.2,25.1c-0.7,0-1.6-1.9-1.7-4.8c-0.1-4.8,0.5-7.6,1.9-8.3c0.1,0,0.2-0.1,0.2-0.1c0.7,0,1.4,2.3,1.5,5.2
		c0.1,3.3-0.5,7.2-1.7,7.8C55.4,25.1,55.3,25.1,55.2,25.1z"/>
	<path class="st29" d="M55.7,12.3c0.4,0,1.1,1.7,1.2,4.9c0.1,3.6-0.6,7-1.5,7.5c-0.1,0-0.1,0-0.1,0c-0.4,0-1.3-1.6-1.4-4.5
		C53.8,14.5,54.8,12.8,55.7,12.3C55.7,12.3,55.7,12.3,55.7,12.3 M55.7,11.7c-0.1,0-0.2,0-0.3,0.1c-2.1,1-2.1,6-2.1,8.6
		c0.1,2.7,0.9,5.1,2,5.1c0.1,0,0.3,0,0.4-0.1c1.4-0.8,1.9-5.1,1.8-8.1C57.4,14.8,56.9,11.7,55.7,11.7L55.7,11.7z"/>
</g>
<linearGradient id="SVGID_16_" gradientUnits="userSpaceOnUse" x1="45.8145" y1="42.3727" x2="45.9248" y2="38.7576" gradientTransform="matrix(1 8.280997e-02 6.337618e-03 1.3356 1.8519 -11.9788)">
	<stop  offset="0.1313" style="stop-color:#CCCED0"/>
	<stop  offset="0.3897" style="stop-color:#F6F6F7"/>
	<stop  offset="0.4411" style="stop-color:#FFFFFF"/>
	<stop  offset="0.5122" style="stop-color:#F9F9F9"/>
	<stop  offset="0.6052" style="stop-color:#E9E9E9"/>
	<stop  offset="0.7104" style="stop-color:#CECECE"/>
	<stop  offset="0.8237" style="stop-color:#A8A8A8"/>
	<stop  offset="0.8966" style="stop-color:#8C8C8C"/>
</linearGradient>
<path class="st30" d="M46,42.9c0,0,0.1,0.6-0.1,2.6S45.8,47,45.8,47l4.3,1.6c0,0-0.2,0-0.2-2.5c0-2.9,0.3-2.6,0.3-2.6L46,42.9z"/>
<linearGradient id="SVGID_17_" gradientUnits="userSpaceOnUse" x1="43.9338" y1="44.0274" x2="45.5921" y2="42.2839" gradientTransform="matrix(0.8195 7.334100e-02 5.681019e-03 1.1972 10.7438 -8.6826)">
	<stop  offset="0" style="stop-color:#FFFFFF"/>
	<stop  offset="1" style="stop-color:#FFFFFF;stop-opacity:0"/>
</linearGradient>
<path class="st31" d="M46.4,43.2c0,0,0.1,0.2,0,2C46.3,47,46.1,47,46.1,47l3.6,1.3c0,0-0.1,0.4-0.1-1.9c0-2.6,0.3-2.4,0.3-2.4
	L46.4,43.2z"/>
<linearGradient id="SVGID_18_" gradientUnits="userSpaceOnUse" x1="49.9205" y1="39.7041" x2="56.2545" y2="50.6748" gradientTransform="matrix(0.9961 8.874097e-02 -8.874097e-02 0.9961 4.2108 -4.5236)">
	<stop  offset="0" style="stop-color:#F5F5F5"/>
	<stop  offset="0.118" style="stop-color:#E3E3E3"/>
	<stop  offset="0.4173" style="stop-color:#BBBBBB"/>
	<stop  offset="0.6546" style="stop-color:#A2A2A2"/>
	<stop  offset="0.7989" style="stop-color:#999999"/>
</linearGradient>
<path class="st32" d="M52.3,38.6c0,0-1.8,1.8-2.1,6.8s1,6.4,1,6.4l2.3,0.2l1.6-13.1L52.3,38.6z"/>
<g>
	
		<linearGradient id="SVGID_19_" gradientUnits="userSpaceOnUse" x1="49.8617" y1="38.1677" x2="54.5798" y2="46.3398" gradientTransform="matrix(0.9578 -0.5131 4.569792e-02 1.0772 2.4362 26.7139)">
		<stop  offset="0" style="stop-color:#FFFFFF"/>
		<stop  offset="1" style="stop-color:#D2D2D2"/>
	</linearGradient>
	<path class="st33" d="M53.6,52c-0.2,0-0.3-0.1-0.5-0.3c-0.7-0.7-1-2.6-0.9-4.7c0.3-4.9,1.2-7.6,2.8-8.1c0.1,0,0.1,0,0.2,0
		c0.1,0,0.3,0.1,0.4,0.2c0.6,0.6,0.9,2.8,0.8,5.2c-0.2,3.3-1.2,7.1-2.5,7.6C53.8,52,53.7,52,53.6,52z"/>
	<path class="st29" d="M55.2,39.2c0,0,0.1,0,0.2,0.1c0.5,0.6,0.8,2.7,0.7,5c-0.2,3.6-1.3,7-2.3,7.4c-0.1,0-0.1,0-0.2,0
		c0,0-0.1,0-0.3-0.2c-0.5-0.5-1-2.1-0.8-4.4c0.4-5.9,1.6-7.5,2.6-7.8C55.2,39.2,55.2,39.2,55.2,39.2 M55.2,38.6
		c-0.1,0-0.2,0-0.3,0.1c-2.3,0.8-2.8,5.8-3,8.4c-0.2,2.7,0.5,5.2,1.7,5.2c0.1,0,0.2,0,0.4-0.1c1.6-0.6,2.5-4.9,2.7-7.9
		C56.9,41.8,56.5,38.6,55.2,38.6L55.2,38.6z"/>
</g>
<path class="st16" d="M28.4,29.6c-0.6,3.3-6.6,1.4-7.8,0.3c-0.5-0.4-0.6-0.8-0.6-1.2s0.4-0.7,1-1C22.6,26.9,29,26.3,28.4,29.6z"/>
<path class="st23" d="M52.3,24l0.8,1.1l2.1,0c0,0,1.9,0.1,2.1-6.6c0.2-6.7-1.6-6.7-1.6-6.7l-2.8-0.1l-0.4,0.9"/>
<path class="st23" d="M51.5,39.6l0.8-1l3,0.3c0,0,2,0.8,1.2,7S53.9,52,53.9,52L51,51.7l-0.6-1.3"/>
</svg>
