<svg id="_1_v_04_SYST_SIM_DESIGN_reprise_OK" data-name="(1) v 04  SYST SIM DESIGN  reprise OK" xmlns="http://www.w3.org/2000/svg" xmlns:xlink="http://www.w3.org/1999/xlink" viewBox="0 0 64 64"><defs><style>.cls-1{fill:url(#linear-gradient);}.cls-2{fill:#003755;}.cls-3{fill:url(#linear-gradient-2);}.cls-4{fill:#fff;}.cls-5{fill:#323232;}.cls-6{fill:#797979;}.cls-7{fill:#285977;}.cls-8{fill:url(#linear-gradient-3);}.cls-9{fill:url(#linear-gradient-4);}.cls-10{fill:#2e6d8b;}.cls-11{fill:url(#linear-gradient-5);}.cls-12{fill:#063755;}.cls-13{fill:url(#linear-gradient-6);}.cls-14{fill:url(#linear-gradient-7);}.cls-15{fill:url(#linear-gradient-8);}.cls-16{fill:url(#linear-gradient-9);}.cls-17{fill:#053755;}.cls-18,.cls-19,.cls-20{fill:none;}.cls-18{stroke:#fff;}.cls-18,.cls-19,.cls-20,.cls-28,.cls-29,.cls-30,.cls-31{stroke-miterlimit:10;}.cls-19{stroke:#003654;}.cls-20{stroke:#000;}.cls-21{fill:url(#linear-gradient-10);}.cls-22{fill:url(#New_Gradient_Swatch_1);}.cls-23{fill:url(#linear-gradient-11);}.cls-24{fill:url(#New_Gradient_Swatch_1-2);}.cls-25{fill:url(#linear-gradient-12);}.cls-26{fill:url(#New_Gradient_Swatch_1-3);}.cls-27{fill:#82bddb;}.cls-28{stroke:#6d6d6d;fill:url(#linear-gradient-13);}.cls-28,.cls-29,.cls-30,.cls-31{stroke-width:0.75px;}.cls-29{stroke:#00415f;fill:url(#linear-gradient-14);}.cls-30{fill:#2d2d2d;}.cls-30,.cls-31{stroke:#2d2d2d;}.cls-30,.cls-32{stroke-linecap:round;}.cls-31{fill:url(#linear-gradient-15);}.cls-32{stroke:#003755;stroke-linejoin:round;fill:url(#linear-gradient-16);}</style><linearGradient id="linear-gradient" x1="14.17" y1="2.07" x2="30.83" y2="30.93" gradientUnits="userSpaceOnUse"><stop offset="0" stop-color="#fff"/><stop offset="1" stop-color="#d4d5d3"/></linearGradient><linearGradient id="linear-gradient-2" x1="14.68" y1="2.96" x2="30.32" y2="30.04" gradientUnits="userSpaceOnUse"><stop offset="0" stop-color="#fff"/><stop offset="0.13" stop-color="#ebf7fe"/><stop offset="0.35" stop-color="#cfebfc"/><stop offset="0.57" stop-color="#bae3fb"/><stop offset="0.79" stop-color="#aedefa"/><stop offset="1" stop-color="#aadcfa"/></linearGradient><linearGradient id="linear-gradient-3" x1="14.54" y1="1.86" x2="31.46" y2="31.14" xlink:href="#linear-gradient"/><linearGradient id="linear-gradient-4" x1="15.06" y1="2.74" x2="30.94" y2="30.26" xlink:href="#linear-gradient"/><linearGradient id="linear-gradient-5" x1="-247.43" y1="23" x2="-242.43" y2="23" gradientTransform="matrix(-1, 0, 0, 1, -219.96, 0)" gradientUnits="userSpaceOnUse"><stop offset="0" stop-color="#a2ddf7"/><stop offset="1" stop-color="#73c3e1"/></linearGradient><linearGradient id="linear-gradient-6" x1="-253.46" y1="11.5" x2="-247.46" y2="11.5" xlink:href="#linear-gradient-5"/><linearGradient id="linear-gradient-7" x1="-234.67" y1="11.04" x2="-231.26" y2="16.96" xlink:href="#linear-gradient-5"/><linearGradient id="linear-gradient-8" x1="21.73" y1="16.12" x2="45.27" y2="56.89" gradientUnits="userSpaceOnUse"><stop offset="0" stop-color="#f5f5f5"/><stop offset="0.99" stop-color="#d2d2d2"/></linearGradient><linearGradient id="linear-gradient-9" x1="40.37" y1="33.4" x2="26.55" y2="9.46" gradientUnits="userSpaceOnUse"><stop offset="0" stop-color="#386e8c"/><stop offset="1" stop-color="#8dd7f4"/></linearGradient><linearGradient id="linear-gradient-10" x1="19" y1="34.38" x2="22" y2="39.58" xlink:href="#linear-gradient-8"/><linearGradient id="New_Gradient_Swatch_1" x1="23.5" y1="36.98" x2="17.5" y2="36.98" gradientUnits="userSpaceOnUse"><stop offset="0" stop-color="#464646"/><stop offset="0.99" stop-color="#141414"/></linearGradient><linearGradient id="linear-gradient-11" x1="32" y1="26.38" x2="35" y2="31.57" xlink:href="#linear-gradient-8"/><linearGradient id="New_Gradient_Swatch_1-2" x1="36.5" y1="28.98" x2="30.5" y2="28.98" xlink:href="#New_Gradient_Swatch_1"/><linearGradient id="linear-gradient-12" x1="43" y1="33.38" x2="46" y2="38.57" xlink:href="#linear-gradient-8"/><linearGradient id="New_Gradient_Swatch_1-3" x1="47.5" y1="35.98" x2="41.5" y2="35.98" xlink:href="#New_Gradient_Swatch_1"/><linearGradient id="linear-gradient-13" x1="145.01" y1="16.05" x2="140.72" y2="11.76" gradientTransform="translate(-86.12 66.96) rotate(-22.73)" gradientUnits="userSpaceOnUse"><stop offset="0.1" stop-color="#575757"/><stop offset="0.5" stop-color="#c4c4c4"/><stop offset="1" stop-color="#fff"/></linearGradient><linearGradient id="linear-gradient-14" x1="144.99" y1="16.08" x2="140.69" y2="11.78" gradientTransform="translate(-86.12 66.96) rotate(-22.73)" gradientUnits="userSpaceOnUse"><stop offset="0.1" stop-color="#195a72"/><stop offset="0.5" stop-color="#5a9cb5"/><stop offset="1" stop-color="#93d2f0"/></linearGradient><linearGradient id="linear-gradient-15" x1="149.93" y1="2.52" x2="154.07" y2="6.67" gradientTransform="translate(-86.12 66.96) rotate(-22.73)" gradientUnits="userSpaceOnUse"><stop offset="0" stop-color="#505050"/><stop offset="0.9" stop-color="#2d2d2d"/></linearGradient><linearGradient id="linear-gradient-16" x1="6.36" y1="28.94" x2="38.39" y2="84.41" gradientUnits="userSpaceOnUse"><stop offset="0" stop-color="#8cd7f5"/><stop offset="1" stop-color="#376e8c"/></linearGradient></defs><title>COR  09__R21XArtboard 1</title><g id="_1_Tab_Process_copy_9" data-name="(1)  Tab Process copy 9"><g id="F_Fond" data-name="F Fond"><rect class="cls-1" x="6.5" y="6.5" width="32" height="20"/><path class="cls-2" d="M38,7V26H7V7H38m1-1H6V27H39V6Z"/></g><g id="F_Fond-2" data-name="F Fond"><rect class="cls-3" x="7.25" y="7.25" width="30.5" height="18.5"/><path class="cls-4" d="M37.5,7.5v18H7.5V7.5h30M38,7H7V26H38V7Z"/></g><polygon class="cls-5" points="30 12 24 12 24 17 20 17 20 21 26 21 26 22 20 22 19 22 19 21 19 14 16 14 16 13 20 13 20 16 23 16 23 11 30 11 30 12"/><g id="G"><rect class="cls-6" x="24.5" y="19.5" width="6" height="5"/><path class="cls-5" d="M30,20v4H25V20h5m1-1H24v6h7V19Z"/></g><g id="G-2" data-name="G"><rect class="cls-7" x="27.5" y="9.5" width="6" height="4"/><path class="cls-2" d="M33,10v3H28V10h5m1-1H27v5h7V9Z"/></g><g id="G-3" data-name="G"><rect class="cls-7" x="10.5" y="11.5" width="5" height="5"/><path class="cls-2" d="M15,12v4H11V12h4m1-1H10v6h6V11Z"/></g></g><g id="Layer_127" data-name="Layer 127"><g id="F_Fond-3" data-name="F Fond"><rect class="cls-8" x="6.5" y="6.5" width="33" height="20"/><path class="cls-5" d="M39,7V26H7V7H39m1-1H6V27H40V6Z"/></g><g id="F_Fond-4" data-name="F Fond"><rect class="cls-9" x="7.25" y="7.25" width="31.5" height="18.5"/><path class="cls-4" d="M38.5,7.5v18H7.5V7.5h31M39,7H7V26H39V7Z"/></g><polygon class="cls-10" points="30 12 24 12 24 17 20 17 20 23 26 23 26 24 20 24 19 24 19 23 19 14 16 14 16 13 20 13 20 16 23 16 23 11 30 11 30 12"/><g id="G-4" data-name="G"><rect class="cls-11" x="22.47" y="20.5" width="5" height="5"/><path class="cls-12" d="M27,21v4H23V21h4m1-1H22v6h6V20Z"/></g><g id="G-5" data-name="G"><rect class="cls-13" x="27.5" y="9.5" width="6" height="4"/><path class="cls-12" d="M33,10v3H28V10h5m1-1H27v5h7V9Z"/></g><g id="G-6" data-name="G"><rect class="cls-14" x="10.5" y="11.5" width="5" height="5"/><path class="cls-12" d="M15,12v4H11V12h4m1-1H10v6h6V11Z"/></g></g><path class="cls-5" d="M51,20a1,1,0,0,1,1,1V52a1,1,0,0,1-1,1H16a1,1,0,0,1-1-1V21a1,1,0,0,1,1-1H51m0-1H16a2,2,0,0,0-2,2V52a2,2,0,0,0,2,2H51a2,2,0,0,0,2-2V21a2,2,0,0,0-2-2Z"/><polygon class="cls-15" points="15 53 15 20 52 20.01 52 53 15 53"/><rect class="cls-16" x="15" y="20" width="37" height="3"/><path class="cls-17" d="M52,20V53H15V20H52m0-1H15a1,1,0,0,0-1,1V53a1,1,0,0,0,1,1H52a1,1,0,0,0,1-1V20a1,1,0,0,0-1-1Z"/><g id="Layer_175_copy" data-name="Layer 175 copy"><rect class="cls-6" x="39" y="49" width="1" height="2"/><polygon class="cls-6" points="39 47 39 44 40 45 40 47 39 47"/><rect class="cls-6" x="39" y="39" width="1" height="3"/><rect class="cls-6" x="39" y="34" width="1" height="3"/><rect class="cls-6" x="39" y="29" width="1" height="3"/><rect class="cls-6" x="39" y="25" width="1" height="2"/></g><g id="Layer_126" data-name="Layer 126"><polyline id="Bl" class="cls-18" points="44.1 46.59 32.1 41.59 21.1 27.59"/><polyline id="Gr" class="cls-18" points="44.72 35.26 33.72 28.26 20.72 35.26"/><polyline id="Bl-2" data-name="Bl" class="cls-19" points="43.72 46.78 31.72 41.78 20.72 27.78"/><polyline id="Gr-2" data-name="Gr" class="cls-20" points="44.72 35.78 33.72 28.78 20.72 35.78"/><g id="bleu"><path class="cls-21" d="M17.5,37a3,3,0,1,0,3-3A3,3,0,0,0,17.5,37Z"/><path class="cls-22" d="M20.5,35a2,2,0,1,1-2,2,2,2,0,0,1,2-2m0-1a3,3,0,1,0,3,3,3,3,0,0,0-3-3Z"/></g><circle class="cls-4" cx="21.33" cy="36.03" r="0.75"/><g id="bleu-2" data-name="bleu"><path class="cls-23" d="M30.5,29a3,3,0,1,0,3-3A3,3,0,0,0,30.5,29Z"/><path class="cls-24" d="M33.5,27a2,2,0,1,1-2,2,2,2,0,0,1,2-2m0-1a3,3,0,1,0,3,3,3,3,0,0,0-3-3Z"/></g><circle class="cls-4" cx="34.31" cy="28.03" r="0.75"/><g id="bleu-3" data-name="bleu"><path class="cls-25" d="M41.5,36a3,3,0,1,0,3-3A3,3,0,0,0,41.5,36Z"/><path class="cls-26" d="M44.5,34a2,2,0,1,1-2,2,2,2,0,0,1,2-2m0-1a3,3,0,1,0,3,3,3,3,0,0,0-3-3Z"/></g><circle class="cls-4" cx="45.47" cy="35.03" r="0.75"/><g id="bleu-4" data-name="bleu"><path class="cls-27" d="M20,29.5a2.5,2.5,0,1,1,2.5-2.5A2.5,2.5,0,0,1,20,29.5Z"/><path class="cls-2" d="M20,25a2,2,0,1,1-2,2,2,2,0,0,1,2-2m0-1a3,3,0,1,0,3,3,3,3,0,0,0-3-3Z"/></g><circle class="cls-4" cx="20.66" cy="26.03" r="0.75"/><g id="bleu-5" data-name="bleu"><path class="cls-27" d="M33,44.5a2.5,2.5,0,1,1,2.5-2.5A2.5,2.5,0,0,1,33,44.5Z"/><path class="cls-2" d="M33,40a2,2,0,1,1-2,2,2,2,0,0,1,2-2m0-1a3,3,0,1,0,3,3,3,3,0,0,0-3-3Z"/></g><circle class="cls-4" cx="33.82" cy="41.05" r="0.75"/><g id="bleu-6" data-name="bleu"><circle class="cls-27" cx="43.93" cy="47" r="2.5"/><path class="cls-2" d="M43.93,45a2,2,0,1,1-2,2,2,2,0,0,1,2-2m0-1a3,3,0,1,0,3,3,3,3,0,0,0-3-3Z"/></g><circle class="cls-4" cx="44.71" cy="46.05" r="0.75"/></g><g id="_1_Edit_copy_6" data-name="(1) Edit copy 6"><g id="ctryon_ok_" data-name="ctryon ok ***"><path class="cls-28" d="M56.64,10.56c-1.49-.61-3-.36-3.38.56L45.57,30.59c-.94,2.31-.15,8-.15,8S50,35.11,50.94,32.8l7.72-19.47C59,12.41,58.13,11.17,56.64,10.56Z"/><polygon class="cls-29" points="51.07 16.45 56.47 18.67 50.94 32.8 45.57 30.59 51.07 16.45"/><path class="cls-30" d="M48,36.45l-2.82-1.16c.08,1.79.29,3.33.29,3.33S46.64,37.68,48,36.45Z"/><path class="cls-31" d="M58.66,13.33c.38-.92-.53-2.16-2-2.77s-3-.36-3.38.56l-.89,2.16,5.4,2.21Z"/></g></g><g id="_1_play_ok_copy" data-name="(1) play ok copy"><path class="cls-4" d="M17,36.9A10.5,10.5,0,1,0,27.52,47.4,10.5,10.5,0,0,0,17,36.9Z"/><path class="cls-32" d="M17,36.9A10.5,10.5,0,1,0,27.52,47.4,10.5,10.5,0,0,0,17,36.9Zm0,18.49a8,8,0,1,1,8-8A8,8,0,0,1,17,55.39Z"/><polygon points="14 43 22.41 47.54 14 52 14 43"/></g></svg>