<svg id="Layer_3" data-name="Layer 3" xmlns="http://www.w3.org/2000/svg" xmlns:xlink="http://www.w3.org/1999/xlink" viewBox="0 0 64 64"><defs><linearGradient id="linear-gradient" x1="38.82" y1="52.77" x2="20.78" y2="21.51" gradientUnits="userSpaceOnUse"><stop offset="0" stop-color="#386f8d"/><stop offset="1" stop-color="#8dd7f4"/></linearGradient><linearGradient id="linear-gradient-3" x1="24.39" y1="15.77" x2="35.66" y2="35.29" gradientUnits="userSpaceOnUse"><stop offset="0" stop-color="#fff"/><stop offset="1" stop-color="#f1f0f0"/></linearGradient><linearGradient id="linear-gradient-4" x1="41.39" y1="24.2" x2="44.81" y2="30.12" gradientUnits="userSpaceOnUse"><stop offset="0" stop-color="#ababab"/><stop offset="1" stop-color="#5b5b5b"/></linearGradient><linearGradient id="linear-gradient-5" x1="38.46" y1="34.4" x2="50.08" y2="54.54" gradientUnits="userSpaceOnUse"><stop offset="0" stop-color="#f5f6f6"/><stop offset="0.99" stop-color="#d2d3d3"/></linearGradient></defs><title>I_SDWU</title><path d="M49.87,39.1,31.24,52.31a3,3,0,0,1-3.48,0L9.16,39.1a3,3,0,0,1,.15-5l18.6-11.65a3,3,0,0,1,3.18,0L49.73,34.11A3,3,0,0,1,49.87,39.1Z" stroke="#053755" stroke-linecap="round" stroke-linejoin="round" fill="url(#linear-gradient)"/><path d="M49.87,33.1,31.24,46.31a3,3,0,0,1-3.48,0L9.16,33.1a3,3,0,0,1,.15-5l18.6-11.65a3,3,0,0,1,3.18,0L49.73,28.11A3,3,0,0,1,49.87,33.1Z" stroke="#053755" stroke-linecap="round" stroke-linejoin="round" fill="url(#linear-gradient)"/><path d="M49.87,27.1,31.24,40.31a3,3,0,0,1-3.48,0L9.16,27.1a3,3,0,0,1,.15-5l18.6-11.65a3,3,0,0,1,3.18,0L49.73,22.11A3,3,0,0,1,49.87,27.1Z" fill="url(#linear-gradient-3)"/><path d="M49.73,22.11l-2.54-1.58-12.68,9,5.8,4.38,9.56-6.78A3,3,0,0,0,49.73,22.11Z" fill="url(#linear-gradient-4)"/><polyline points="47.09 20.46 34.33 29.5 40.21 33.95" fill="none" stroke="#323232" stroke-linejoin="round"/><polygon points="25.15 17.09 34.69 23.74 39.09 20.62 29.38 14.09 25.15 17.09" fill="none" stroke="#323232" stroke-linejoin="round"/><polygon points="27.26 22.68 23.46 25.29 18.62 21.71 14.36 24.73 23.73 31.5 31.79 25.79 27.26 22.68" fill="none" stroke="#323232" stroke-linejoin="round"/><path d="M49.87,27.1,31.24,40.31a3,3,0,0,1-3.48,0L9.16,27.1a3,3,0,0,1,.15-5l18.6-11.65a3,3,0,0,1,3.18,0L49.73,22.11A3,3,0,0,1,49.87,27.1Z" fill="none" stroke="#323232" stroke-linecap="round" stroke-linejoin="round"/><g opacity="0.45"><path d="M55,35V53H33V35H55m0-1H33a1,1,0,0,0-1,1V53a1,1,0,0,0,1,1H55a1,1,0,0,0,1-1V35a1,1,0,0,0-1-1Z" fill="#fff"/><path d="M55.5,34a.5.5,0,0,1,.5.5v19a.5.5,0,0,1-.5.5h-23a.5.5,0,0,1-.5-.5v-19a.5.5,0,0,1,.5-.5h23M33,53H55V35H33V53M55.5,33h-23A1.5,1.5,0,0,0,31,34.5v19A1.5,1.5,0,0,0,32.5,55h23A1.5,1.5,0,0,0,57,53.5v-19A1.5,1.5,0,0,0,55.5,33ZM34,36H54V52H34V36Z" fill="#fff"/></g><rect x="32.5" y="34.5" width="23" height="19" stroke="#333332" stroke-linecap="round" stroke-linejoin="round" fill="url(#linear-gradient-5)"/><rect x="34.5" y="36.5" width="19" height="15" fill="none" stroke="#797979" stroke-linecap="round" stroke-linejoin="round"/><polyline points="34.5 43.5 37.5 43.5 37.5 39.5 41.5 39.5 41.5 36.5" fill="none" stroke="#797979" stroke-linecap="round" stroke-linejoin="round"/><polyline points="38.5 51.5 38.5 48.5 53.5 48.5" fill="none" stroke="#797979" stroke-linecap="round" stroke-linejoin="round"/><polyline points="41.5 51.5 41.5 43.5 53.5 43.5" fill="none" stroke="#797979" stroke-linecap="round" stroke-linejoin="round"/><line x1="47.5" y1="43.5" x2="47.5" y2="51.5" fill="none" stroke="#797979" stroke-linecap="round" stroke-linejoin="round"/><line x1="44.5" y1="48.5" x2="44.5" y2="51.5" fill="none" stroke="#797979" stroke-linecap="round" stroke-linejoin="round"/></svg>