<svg id="Layer_3" data-name="Layer 3" xmlns="http://www.w3.org/2000/svg" xmlns:xlink="http://www.w3.org/1999/xlink" viewBox="0 0 64 64"><defs><style>.Blue-LEFT,.cls-1,.cls-2{stroke:#003755;stroke-linejoin:round;}.Blue-LEFT{fill:url(#linear-gradient);}.cls-1{fill:url(#linear-gradient-2);}.cls-2{fill:none;}</style><linearGradient id="linear-gradient" x1="46.28" y1="34.31" x2="49.88" y2="40.53" gradientUnits="userSpaceOnUse"><stop offset="0" stop-color="#82bedc"/><stop offset="1" stop-color="#285a78"/></linearGradient><linearGradient id="linear-gradient-2" x1="28.59" y1="43.14" x2="46.08" y2="9.12" gradientUnits="userSpaceOnUse"><stop offset="0.05" stop-color="#8cd7f5"/><stop offset="0.07" stop-color="#71b6d4"/><stop offset="0.09" stop-color="#528fad"/><stop offset="0.11" stop-color="#3e7795"/><stop offset="0.12" stop-color="#376e8c"/><stop offset="0.13" stop-color="#306d8b"/><stop offset="0.15" stop-color="#1e6987"/><stop offset="0.17" stop-color="#006482"/><stop offset="0.18" stop-color="#096987"/><stop offset="0.2" stop-color="#237694"/><stop offset="0.22" stop-color="#4c8caa"/><stop offset="0.23" stop-color="#518fad"/><stop offset="0.24" stop-color="#5999b7"/><stop offset="0.26" stop-color="#70b4d2"/><stop offset="0.28" stop-color="#8cd7f5"/><stop offset="0.28" stop-color="#93dcf6"/><stop offset="0.29" stop-color="#a5eafa"/><stop offset="0.3" stop-color="#bffeff"/><stop offset="0.34" stop-color="#8cd7f5"/><stop offset="0.34" stop-color="#80c8e6"/><stop offset="0.36" stop-color="#66a8c6"/><stop offset="0.37" stop-color="#518eac"/><stop offset="0.39" stop-color="#437c9a"/><stop offset="0.4" stop-color="#3a7290"/><stop offset="0.42" stop-color="#376e8c"/><stop offset="0.43" stop-color="#3c7492"/><stop offset="0.44" stop-color="#4984a2"/><stop offset="0.46" stop-color="#5e9ebc"/><stop offset="0.47" stop-color="#7bc3e1"/><stop offset="0.48" stop-color="#8cd7f5"/><stop offset="0.5" stop-color="#bffeff"/><stop offset="0.52" stop-color="#8cd7f5"/><stop offset="0.55" stop-color="#376e8c"/></linearGradient></defs><path class="Blue-LEFT" d="M44,35.65c3.25,1.14,6.29,4.67,6.29,4.67s1.17-6-2-6.23C46.76,34,44,35.65,44,35.65Z"/><path class="cls-1" d="M50.25,34.71C47.42,29.67,43,27.17,36,23.33c-6.14-3.38-15-7-16.67-6.83-2.45,0-8.08,4-6.58,8.91,1,7-6.25,6.09-6.25,6.09A64.34,64.34,0,0,1,22,39c8.07,5.22,13.5,9.5,13.5,9.5s3.12-.68,4-2c2-3,.11-7.06,2.11-9.06S47.5,33.5,49.5,34.5,48,39,51,41a7.41,7.41,0,0,0,6.5.5s-4.89-3-6-3.75S50.25,34.71,50.25,34.71Z"/><path class="cls-2" d="M40.5,44.5c-5.88-5.83-14.91-11.87-27.95-16.92"/><path class="cls-2" d="M32.5,46.24S35,46,36.75,42.88c1.25-2.21-.29-3.78.79-6.49,2-5,7.46-5.89,10.28-5.16"/><path class="cls-2" d="M28.5,43.5s1.94-.11,4.38-2.88c2-2,.21-4.41,1.37-7.12,2.14-5,7.19-6.47,10.06-5.19"/><path class="cls-2" d="M30,36S29,25.55,40,25.55"/><path class="cls-2" d="M23.67,17.67c-1.58.27-5.28,1.3-6.68,4.84-1.28,3.21,0,6.13-1.11,7.78a5.93,5.93,0,0,1-4.46,3.05"/><path class="cls-2" d="M27.88,19.38s-4.88.54-6.8,4.37a12.66,12.66,0,0,0-1.06,7"/><path class="cls-2" d="M32.5,21.52a9,9,0,0,0-7,4.31c-1.41,2.21-1.43,7-1.43,7"/></svg>