<?xml version="1.0" encoding="iso-8859-1"?>
<!-- Generator: Adobe Illustrator 23.1.0, SVG Export Plug-In . SVG Version: 6.00 Build 0)  -->
<svg version="1.1" xmlns="http://www.w3.org/2000/svg" xmlns:xlink="http://www.w3.org/1999/xlink" x="0px" y="0px"
	 viewBox="0 0 64 64" style="enable-background:new 0 0 64 64;" xml:space="preserve">
<pattern  width="20" height="20" patternUnits="userSpaceOnUse" id="New_Pattern_Swatch_2" viewBox="22.121 -42.121 20 20" style="overflow:visible;">
	<g>
		<rect x="22.121" y="-42.121" style="fill:none;" width="20" height="20"/>
		
			<rect x="49.121" y="-26.263" transform="matrix(0.7071 -0.7071 0.7071 0.7071 23.837 33.3051)" style="fill:#844138;" width="6" height="28.284"/>
		
			<rect x="29.121" y="-26.263" transform="matrix(0.7071 -0.7071 0.7071 0.7071 17.9792 19.163)" style="fill:#844138;" width="6" height="28.284"/>
		
			<rect x="9.121" y="-26.263" transform="matrix(0.7071 -0.7071 0.7071 0.7071 12.1213 5.0208)" style="fill:#844138;" width="6" height="28.284"/>
		
			<rect x="49.121" y="-46.263" transform="matrix(0.7071 -0.7071 0.7071 0.7071 37.9792 27.4472)" style="fill:#844138;" width="6" height="28.284"/>
		
			<rect x="29.121" y="-46.263" transform="matrix(0.7071 -0.7071 0.7071 0.7071 32.1213 13.3051)" style="fill:#844138;" width="6" height="28.284"/>
		
			<rect x="9.121" y="-46.263" transform="matrix(0.7071 -0.7071 0.7071 0.7071 26.2635 -0.837)" style="fill:#844138;" width="6" height="28.284"/>
		
			<rect x="49.121" y="-66.263" transform="matrix(0.7071 -0.7071 0.7071 0.7071 52.1213 21.5894)" style="fill:#844138;" width="6" height="28.284"/>
		
			<rect x="29.121" y="-66.263" transform="matrix(0.7071 -0.7071 0.7071 0.7071 46.2635 7.4472)" style="fill:#844138;" width="6" height="28.284"/>
		
			<rect x="9.121" y="-66.263" transform="matrix(0.7071 -0.7071 0.7071 0.7071 40.4056 -6.6949)" style="fill:#844138;" width="6" height="28.284"/>
	</g>
</pattern>
<g id="Layer_1" style="display:none;">
</g>
<g id="info_r2021x" style="display:none;">
	<g id="pedestal_r2021x" style="display:inline;">
		<path style="opacity:0.5;fill:#FFFFFF;" d="M63.002,64h-62c-0.552,0-1-0.448-1-1V1c0-0.552,0.448-1,1-1h62c0.552,0,1,0.448,1,1v62
			C64.002,63.552,63.554,64,63.002,64z"/>
		<rect x="1.002" y="1" style="fill:#F4F5F6;" width="62" height="62"/>
		<rect x="1.002" y="1" style="fill:#D1D4D4;" width="2" height="62"/>
	</g>
	<g id="no-go_zone_1_" style="display:inline;opacity:0.3;">
		<path style="fill:url(#New_Pattern_Swatch_2);" d="M0,0v64h64V0H0z M57,57H7V7h50V57z"/>
	</g>
	<g style="display:inline;">
		<path style="fill:#EA4F37;" d="M57,7v50H7V7H57 M58,6h-1H7H6v1v50v1h1h50h1v-1V7V6L58,6z"/>
	</g>
</g>
<g id="Notes" style="display:none;">
</g>
<g id="vector_references" style="display:none;">
</g>
<g id="PNG_references" style="display:none;">
	
		<image style="display:inline;overflow:visible;" width="64" height="64" xlink:href="../../../ApplicationIcons/Week12/SystemExperiment/CATSEM_AP_AppIcon.png"  transform="matrix(1 0 0 1 0 6.5)">
	</image>
</g>
<g id="Work" style="display:none;">
	<g style="display:inline;">
		<g>
			<linearGradient id="SVGID_1_" gradientUnits="userSpaceOnUse" x1="34.0466" y1="13.6883" x2="45.8531" y2="34.1379">
				<stop  offset="0" style="stop-color:#F5F6F6"/>
				<stop  offset="0.9921" style="stop-color:#D2D3D3"/>
			</linearGradient>
			<polygon style="fill:url(#SVGID_1_);stroke:#333332;stroke-linecap:round;stroke-linejoin:round;stroke-miterlimit:1;" points="
				51.5,33 28.5,38 28.5,13.5 51.5,10 			"/>
		</g>
		<linearGradient id="SVGID_2_" gradientUnits="userSpaceOnUse" x1="42.901" y1="30.8244" x2="35.0825" y2="17.2824">
			<stop  offset="0" style="stop-color:#2A5B79"/>
			<stop  offset="1" style="stop-color:#3388B0"/>
		</linearGradient>
		
			<path style="fill:none;stroke:url(#SVGID_2_);stroke-width:2;stroke-linecap:round;stroke-linejoin:round;stroke-miterlimit:1;" d="
			M29,27.782c0,0,4,4,5-2.5s1.5-7.5,2.5-7.5c2,0,2.5,9.5,5,9.5c2,0,2.5-11,4.5-11c2.5,0,2,9,4.5,9"/>
	</g>
	<g style="display:inline;">
		<linearGradient id="SVGID_3_" gradientUnits="userSpaceOnUse" x1="15.0466" y1="20.1883" x2="26.8531" y2="40.6379">
			<stop  offset="0" style="stop-color:#F5F6F6"/>
			<stop  offset="0.9921" style="stop-color:#D2D3D3"/>
		</linearGradient>
		<polygon style="fill:url(#SVGID_3_);stroke:#333332;stroke-linecap:round;stroke-linejoin:round;stroke-miterlimit:1;" points="
			32.5,39.5 9.5,44.5 9.5,20 32.5,16.5 		"/>
		<g>
			<line style="fill:#161616;stroke:#333332;stroke-miterlimit:10;" x1="21.5" y1="23.5" x2="21.5" y2="35"/>
			<line style="fill:#161616;stroke:#333332;stroke-miterlimit:10;" x1="13.5" y1="25" x2="29" y2="22"/>
		</g>
		<linearGradient id="SVGID_4_" gradientUnits="userSpaceOnUse" x1="16.2111" y1="28.1227" x2="12.6305" y2="21.9211">
			<stop  offset="0" style="stop-color:#386F8D"/>
			<stop  offset="1" style="stop-color:#8DD7F4"/>
		</linearGradient>
		<polygon style="fill:url(#SVGID_4_);stroke:#053755;stroke-linecap:round;stroke-linejoin:round;stroke-miterlimit:1;" points="
			16.5,27 12.5,28 12.5,23 16.5,22.318 		"/>
		<linearGradient id="SVGID_5_" gradientUnits="userSpaceOnUse" x1="29.2111" y1="26.3046" x2="25.6305" y2="20.1029">
			<stop  offset="0" style="stop-color:#386F8D"/>
			<stop  offset="1" style="stop-color:#8DD7F4"/>
		</linearGradient>
		<polygon style="fill:url(#SVGID_5_);stroke:#053755;stroke-linecap:round;stroke-linejoin:round;stroke-miterlimit:1;" points="
			29.5,25.182 25.5,26.182 25.5,21.182 29.5,20.5 		"/>
		<linearGradient id="SVGID_6_" gradientUnits="userSpaceOnUse" x1="29.2111" y1="36.6227" x2="25.6305" y2="30.4211">
			<stop  offset="0" style="stop-color:#386F8D"/>
			<stop  offset="1" style="stop-color:#8DD7F4"/>
		</linearGradient>
		<polygon style="fill:url(#SVGID_6_);stroke:#053755;stroke-linecap:round;stroke-linejoin:round;stroke-miterlimit:1;" points="
			29.5,35.5 25.5,36.5 25.5,31.5 29.5,30.818 		"/>
	</g>
	<g style="display:inline;">
		<linearGradient id="SVGID_7_" gradientUnits="userSpaceOnUse" x1="34.6957" y1="35.7272" x2="44.3997" y2="52.535">
			<stop  offset="0" style="stop-color:#F5F6F6"/>
			<stop  offset="0.9921" style="stop-color:#D2D3D3"/>
		</linearGradient>
		<path style="fill:url(#SVGID_7_);stroke:#333332;stroke-linecap:round;stroke-linejoin:round;stroke-miterlimit:1;" d="
			M52.625,46.376c0,0,0-1.962,0-3c0-6.627-5.373-12-12-12s-12,5.373-12,12c0,1.038,0,3,0,3h-2v2h28v-2H52.625z"/>
		<g style="opacity:0.5;">
			<path style="fill:#FFFFFF;" d="M47.625,47.376v-4c0-3.859-3.141-7-7-7s-7,3.141-7,7v4h-4v-4c0-6.065,4.935-11,11-11
				s11,4.935,11,11v4H47.625z"/>
			<path style="fill:#FFFFFF;" d="M40.625,32.876c5.799,0,10.5,4.701,10.5,10.5c0,1.229,0,3.5,0,3.5h-3c0,0,0-2.235,0-3.5
				c0-4.142-3.358-7.5-7.5-7.5s-7.5,3.358-7.5,7.5c0,1.265,0,3.5,0,3.5h-3c0,0,0-2.271,0-3.5
				C30.125,37.576,34.826,32.876,40.625,32.876 M40.625,31.876c-6.341,0-11.5,5.159-11.5,11.5v3.5v1h1h3h1v-1v-3.5
				c0-3.584,2.916-6.5,6.5-6.5s6.5,2.916,6.5,6.5v3.5v1h1h3h1v-1v-3.5C52.125,37.034,46.967,31.876,40.625,31.876L40.625,31.876z"/>
		</g>
		<rect x="29.125" y="45.876" style="fill-rule:evenodd;clip-rule:evenodd;fill:#B1B2B0;" width="23" height="1"/>
		<g>
			<path style="fill-rule:evenodd;clip-rule:evenodd;fill:#46A523;" d="M45.659,37.827c1.512,1.372,2.467,3.346,2.467,5.549
				c0,1.265,0,3.5,0,3.5h3c0,0,0-2.271,0-3.5c0-2.891-1.169-5.509-3.06-7.408L45.659,37.827z"/>
			<path style="fill-rule:evenodd;clip-rule:evenodd;fill:#DC1E0F;" d="M32.989,36.184c-1.771,1.88-2.864,4.406-2.864,7.192
				c0,1.229,0,3.5,0,3.5h3c0,0,0-2.235,0-3.5c0-2.023,0.805-3.856,2.107-5.205L32.989,36.184z"/>
		</g>
		<path style="fill-rule:evenodd;clip-rule:evenodd;fill:#F1CF2F;" d="M40.625,32.876c-3.398,0-6.41,1.621-8.329,4.124l2.028,2.318
			c1.335-2.069,3.656-3.442,6.301-3.442c2.404,0,4.537,1.135,5.91,2.893l2.497-1.665C47.118,34.542,44.07,32.876,40.625,32.876z"/>
		<rect x="40.125" y="32.876" style="fill:#161616;" width="1" height="3"/>
		
			<rect x="49.125" y="43.876" transform="matrix(-1.836970e-16 1 -1 -1.836970e-16 95.001 -4.25)" style="fill:#161616;" width="1" height="3"/>
		
			<rect x="47.211" y="36.461" transform="matrix(0.7071 0.7071 -0.7071 0.7071 40.817 -22.6184)" style="fill:#161616;" width="1" height="3"/>
		
			<rect x="33.04" y="36.583" transform="matrix(0.7071 -0.7071 0.7071 0.7071 -17.1049 34.8703)" style="fill:#161616;" width="1" height="3"/>
		
			<rect x="31.125" y="43.876" transform="matrix(-1.836970e-16 1 -1 -1.836970e-16 77.001 13.75)" style="fill:#161616;" width="1" height="3"/>
		<g>
			<path style="fill-rule:evenodd;clip-rule:evenodd;fill:#161616;" d="M50.744,40.606l-2.857,0.924
				c0.082,0.323,0.148,0.652,0.186,0.99l2.889-0.935C50.905,41.253,50.832,40.927,50.744,40.606z"/>
			<path style="fill-rule:evenodd;clip-rule:evenodd;fill:#161616;" d="M30.284,41.617l2.889,0.935
				c0.037-0.339,0.102-0.668,0.183-0.992l-2.857-0.924C30.412,40.958,30.34,41.284,30.284,41.617z"/>
		</g>
		<g>
			<path style="fill-rule:evenodd;clip-rule:evenodd;fill:#161616;" d="M36.835,36.912c0.287-0.169,0.582-0.324,0.891-0.454
				l-1.341-2.683c-0.306,0.135-0.605,0.284-0.895,0.447L36.835,36.912z"/>
			<path style="fill-rule:evenodd;clip-rule:evenodd;fill:#161616;" d="M43.525,36.458c0.309,0.13,0.604,0.286,0.891,0.454
				l1.345-2.69c-0.29-0.163-0.588-0.312-0.895-0.447L43.525,36.458z"/>
		</g>
		<linearGradient id="SVGID_8_" gradientUnits="userSpaceOnUse" x1="46.0519" y1="44.4442" x2="43.1227" y2="39.3707">
			<stop  offset="0" style="stop-color:#386F8D"/>
			<stop  offset="1" style="stop-color:#8DD7F4"/>
		</linearGradient>
		<path style="fill:url(#SVGID_8_);stroke:#053755;stroke-linecap:round;stroke-linejoin:round;stroke-miterlimit:1;" d="
			M42.437,45.62L50,37.897L40.118,42c-0.153,0.045-0.297,0.106-0.435,0.18l-0.021,0.009l0.002,0.003
			c-0.692,0.381-1.164,1.108-1.164,1.955c0,1.243,1.007,2.25,2.25,2.25c0.561,0,1.057-0.223,1.449-0.564l0.011,0.016l0.157-0.16
			C42.391,45.665,42.415,45.644,42.437,45.62z"/>
	</g>
	<g style="display:inline;">
		<linearGradient id="SVGID_9_" gradientUnits="userSpaceOnUse" x1="30.4936" y1="55.9792" x2="15.4196" y2="29.8704">
			<stop  offset="0" style="stop-color:#386F8D"/>
			<stop  offset="1" style="stop-color:#8DD7F4"/>
		</linearGradient>
		
			<circle style="fill:url(#SVGID_9_);stroke:#053755;stroke-linecap:round;stroke-linejoin:round;stroke-miterlimit:1;" cx="23" cy="43" r="11.5"/>
		<linearGradient id="SVGID_10_" gradientUnits="userSpaceOnUse" x1="19.6287" y1="37.1607" x2="26.7003" y2="49.4091">
			<stop  offset="0" style="stop-color:#F5F6F6"/>
			<stop  offset="0.9921" style="stop-color:#D2D3D3"/>
		</linearGradient>
		
			<circle style="fill:url(#SVGID_10_);stroke:#003755;stroke-linecap:round;stroke-linejoin:round;stroke-miterlimit:1;" cx="23" cy="43" r="8.5"/>
		<linearGradient id="SVGID_11_" gradientUnits="userSpaceOnUse" x1="24.3717" y1="45.9608" x2="19.3651" y2="37.2892">
			<stop  offset="0" style="stop-color:#161616"/>
			<stop  offset="1" style="stop-color:#515151"/>
		</linearGradient>
		<polygon style="fill-rule:evenodd;clip-rule:evenodd;fill:url(#SVGID_11_);" points="29.5,43 19,48.5 19,37.5 		"/>
	</g>
</g>
<g id="Final">
	<g>
		<g>
			<linearGradient id="SVGID_12_" gradientUnits="userSpaceOnUse" x1="34.0466" y1="13.6883" x2="45.8531" y2="34.1379">
				<stop  offset="0" style="stop-color:#F5F6F6"/>
				<stop  offset="0.9921" style="stop-color:#D2D3D3"/>
			</linearGradient>
			<polygon style="fill:url(#SVGID_12_);stroke:#333332;stroke-linecap:round;stroke-linejoin:round;stroke-miterlimit:1;" points="
				51.5,33 28.5,38 28.5,13.5 51.5,10 			"/>
		</g>
		<linearGradient id="SVGID_13_" gradientUnits="userSpaceOnUse" x1="42.901" y1="30.8244" x2="35.0825" y2="17.2824">
			<stop  offset="0" style="stop-color:#2A5B79"/>
			<stop  offset="1" style="stop-color:#3388B0"/>
		</linearGradient>
		
			<path style="fill:none;stroke:url(#SVGID_13_);stroke-width:2;stroke-linecap:round;stroke-linejoin:round;stroke-miterlimit:1;" d="
			M29,27.782c0,0,4,4,5-2.5s1.5-7.5,2.5-7.5c2,0,2.5,9.5,5,9.5c2,0,2.5-11,4.5-11c2.5,0,2,9,4.5,9"/>
	</g>
	<g>
		<linearGradient id="SVGID_14_" gradientUnits="userSpaceOnUse" x1="15.0466" y1="20.1883" x2="26.8531" y2="40.6379">
			<stop  offset="0" style="stop-color:#F5F6F6"/>
			<stop  offset="0.9921" style="stop-color:#D2D3D3"/>
		</linearGradient>
		<polygon style="fill:url(#SVGID_14_);stroke:#333332;stroke-linecap:round;stroke-linejoin:round;stroke-miterlimit:1;" points="
			32.5,39.5 9.5,44.5 9.5,20 32.5,16.5 		"/>
		<g>
			<line style="fill:#161616;stroke:#333332;stroke-miterlimit:10;" x1="21.5" y1="23.5" x2="21.5" y2="35"/>
			<line style="fill:#161616;stroke:#333332;stroke-miterlimit:10;" x1="13.5" y1="25" x2="29" y2="22"/>
		</g>
		<linearGradient id="SVGID_15_" gradientUnits="userSpaceOnUse" x1="16.2111" y1="28.1227" x2="12.6305" y2="21.9211">
			<stop  offset="0" style="stop-color:#386F8D"/>
			<stop  offset="1" style="stop-color:#8DD7F4"/>
		</linearGradient>
		<polygon style="fill:url(#SVGID_15_);stroke:#053755;stroke-linecap:round;stroke-linejoin:round;stroke-miterlimit:1;" points="
			16.5,27 12.5,28 12.5,23 16.5,22.318 		"/>
		<linearGradient id="SVGID_16_" gradientUnits="userSpaceOnUse" x1="29.2111" y1="26.3046" x2="25.6305" y2="20.1029">
			<stop  offset="0" style="stop-color:#386F8D"/>
			<stop  offset="1" style="stop-color:#8DD7F4"/>
		</linearGradient>
		<polygon style="fill:url(#SVGID_16_);stroke:#053755;stroke-linecap:round;stroke-linejoin:round;stroke-miterlimit:1;" points="
			29.5,25.182 25.5,26.182 25.5,21.182 29.5,20.5 		"/>
		<linearGradient id="SVGID_17_" gradientUnits="userSpaceOnUse" x1="29.2111" y1="36.6227" x2="25.6305" y2="30.4211">
			<stop  offset="0" style="stop-color:#386F8D"/>
			<stop  offset="1" style="stop-color:#8DD7F4"/>
		</linearGradient>
		<polygon style="fill:url(#SVGID_17_);stroke:#053755;stroke-linecap:round;stroke-linejoin:round;stroke-miterlimit:1;" points="
			29.5,35.5 25.5,36.5 25.5,31.5 29.5,30.818 		"/>
	</g>
	<g>
		<linearGradient id="SVGID_18_" gradientUnits="userSpaceOnUse" x1="34.5707" y1="35.8521" x2="44.2747" y2="52.66">
			<stop  offset="0" style="stop-color:#F5F6F6"/>
			<stop  offset="0.9921" style="stop-color:#D2D3D3"/>
		</linearGradient>
		<path style="fill:url(#SVGID_18_);stroke:#333332;stroke-linecap:round;stroke-linejoin:round;stroke-miterlimit:1;" d="
			M52.5,46.5c0,0,0-1.962,0-3c0-6.627-5.373-12-12-12s-12,5.373-12,12c0,1.038,0,3,0,3h-2v2h28v-2H52.5z"/>
		<g style="opacity:0.5;">
			<path style="fill:#FFFFFF;" d="M47.501,47.501v-4c0-3.859-3.141-7-7-7s-7,3.141-7,7v4h-4v-4c0-6.065,4.935-11,11-11
				s11,4.935,11,11v4H47.501z"/>
			<path style="fill:#FFFFFF;" d="M40.5,33C46.3,33,51,37.701,51,43.5c0,1.229,0,3.5,0,3.5h-3c0,0,0-2.235,0-3.5
				c0-4.142-3.358-7.5-7.5-7.5S33,39.358,33,43.5c0,1.265,0,3.5,0,3.5h-3c0,0,0-2.271,0-3.5C30,37.701,34.701,33,40.5,33 M40.5,32
				C34.159,32,29,37.159,29,43.5V47v1h1h3h1v-1v-3.5c0-3.584,2.916-6.5,6.5-6.5s6.5,2.916,6.5,6.5V47v1h1h3h1v-1v-3.5
				C52,37.159,46.842,32,40.5,32L40.5,32z"/>
		</g>
		<rect x="29" y="46" style="fill-rule:evenodd;clip-rule:evenodd;fill:#B1B2B0;" width="23" height="1"/>
		<g>
			<path style="fill-rule:evenodd;clip-rule:evenodd;fill:#46A523;" d="M45.534,37.952C47.046,39.324,48,41.298,48,43.5
				c0,1.265,0,3.5,0,3.5h3c0,0,0-2.271,0-3.5c0-2.891-1.169-5.509-3.06-7.408L45.534,37.952z"/>
			<path style="fill-rule:evenodd;clip-rule:evenodd;fill:#DC1E0F;" d="M32.864,36.309C31.093,38.188,30,40.714,30,43.5
				c0,1.229,0,3.5,0,3.5h3c0,0,0-2.235,0-3.5c0-2.023,0.805-3.856,2.107-5.205L32.864,36.309z"/>
		</g>
		<path style="fill-rule:evenodd;clip-rule:evenodd;fill:#F1CF2F;" d="M40.5,33c-3.398,0-6.41,1.621-8.329,4.124l2.028,2.318
			C35.535,37.373,37.855,36,40.5,36c2.404,0,4.537,1.135,5.91,2.893l2.497-1.665C46.993,34.667,43.945,33,40.5,33z"/>
		<rect x="40" y="33" style="fill:#161616;" width="1" height="3"/>
		
			<rect x="49" y="44" transform="matrix(-1.836970e-16 1 -1 -1.836970e-16 95.001 -4)" style="fill:#161616;" width="1" height="3"/>
		
			<rect x="47.086" y="36.586" transform="matrix(0.7071 0.7071 -0.7071 0.7071 40.8688 -22.4934)" style="fill:#161616;" width="1" height="3"/>
		
			<rect x="32.915" y="36.708" transform="matrix(0.7071 -0.7071 0.7071 0.7071 -17.2299 34.8185)" style="fill:#161616;" width="1" height="3"/>
		
			<rect x="31" y="44" transform="matrix(-1.836970e-16 1 -1 -1.836970e-16 77.001 14)" style="fill:#161616;" width="1" height="3"/>
		<g>
			<path style="fill-rule:evenodd;clip-rule:evenodd;fill:#161616;" d="M50.619,40.731l-2.857,0.924
				c0.082,0.323,0.148,0.652,0.186,0.99l2.889-0.935C50.78,41.378,50.707,41.052,50.619,40.731z"/>
			<path style="fill-rule:evenodd;clip-rule:evenodd;fill:#161616;" d="M30.159,41.742l2.889,0.935
				c0.037-0.339,0.102-0.668,0.183-0.992l-2.857-0.924C30.287,41.083,30.215,41.409,30.159,41.742z"/>
		</g>
		<g>
			<path style="fill-rule:evenodd;clip-rule:evenodd;fill:#161616;" d="M36.71,37.037c0.287-0.169,0.582-0.324,0.891-0.454
				L36.259,33.9c-0.306,0.135-0.605,0.284-0.895,0.447L36.71,37.037z"/>
			<path style="fill-rule:evenodd;clip-rule:evenodd;fill:#161616;" d="M43.4,36.583c0.309,0.13,0.604,0.286,0.891,0.454l1.345-2.69
				c-0.29-0.163-0.588-0.312-0.895-0.447L43.4,36.583z"/>
		</g>
		<linearGradient id="SVGID_19_" gradientUnits="userSpaceOnUse" x1="45.9269" y1="44.5692" x2="42.9977" y2="39.4957">
			<stop  offset="0" style="stop-color:#386F8D"/>
			<stop  offset="1" style="stop-color:#8DD7F4"/>
		</linearGradient>
		<path style="fill:url(#SVGID_19_);stroke:#053755;stroke-linecap:round;stroke-linejoin:round;stroke-miterlimit:1;" d="
			M42.312,45.745l7.564-7.722l-9.883,4.103c-0.153,0.045-0.297,0.106-0.435,0.18l-0.021,0.009l0.002,0.003
			c-0.692,0.381-1.164,1.108-1.164,1.955c0,1.243,1.007,2.25,2.25,2.25c0.561,0,1.057-0.223,1.449-0.564l0.011,0.016l0.157-0.16
			C42.266,45.79,42.29,45.769,42.312,45.745z"/>
	</g>
	<g>
		<linearGradient id="SVGID_20_" gradientUnits="userSpaceOnUse" x1="30.4936" y1="55.9792" x2="15.4196" y2="29.8704">
			<stop  offset="0" style="stop-color:#386F8D"/>
			<stop  offset="1" style="stop-color:#8DD7F4"/>
		</linearGradient>
		
			<circle style="fill:url(#SVGID_20_);stroke:#053755;stroke-linecap:round;stroke-linejoin:round;stroke-miterlimit:1;" cx="23" cy="43" r="11.5"/>
		<linearGradient id="SVGID_21_" gradientUnits="userSpaceOnUse" x1="19.6287" y1="37.1607" x2="26.7003" y2="49.4091">
			<stop  offset="0" style="stop-color:#F5F6F6"/>
			<stop  offset="0.9921" style="stop-color:#D2D3D3"/>
		</linearGradient>
		
			<circle style="fill:url(#SVGID_21_);stroke:#003755;stroke-linecap:round;stroke-linejoin:round;stroke-miterlimit:1;" cx="23" cy="43" r="8.5"/>
		<linearGradient id="SVGID_22_" gradientUnits="userSpaceOnUse" x1="24.3717" y1="45.9608" x2="19.3651" y2="37.2892">
			<stop  offset="0" style="stop-color:#161616"/>
			<stop  offset="1" style="stop-color:#515151"/>
		</linearGradient>
		<polygon style="fill-rule:evenodd;clip-rule:evenodd;fill:url(#SVGID_22_);" points="29.5,43 19,48.5 19,37.5 		"/>
	</g>
</g>
</svg>
