<svg xmlns="http://www.w3.org/2000/svg" xmlns:xlink="http://www.w3.org/1999/xlink" viewBox="0 0 64 64"><defs><linearGradient id="a" x1="33.44" y1="16.42" x2="49.91" y2="44.95" gradientUnits="userSpaceOnUse"><stop offset="0" stop-color="#d7d7d7"/><stop offset="1" stop-color="#969696"/></linearGradient><linearGradient id="h" x1="37.19" y1="52.48" x2="37.85" y2="54.99" gradientUnits="userSpaceOnUse"><stop offset="0"/><stop offset="1" stop-opacity="0"/></linearGradient><linearGradient id="i" x1="28.64" y1="49.09" x2="32.18" y2="55.22" gradientUnits="userSpaceOnUse"><stop offset="0" stop-color="#fff"/><stop offset="1" stop-color="#d2d2d2"/></linearGradient><linearGradient id="j" x1="9.66" y1="37.02" x2="13.18" y2="43.11" gradientUnits="userSpaceOnUse"><stop offset="0" stop-color="#fff"/><stop offset="1" stop-color="#f0f0f0"/></linearGradient><linearGradient id="m" x1="31.2" y1="25.33" x2="41.8" y2="43.67" gradientUnits="userSpaceOnUse"><stop offset="0" stop-color="#82bedc"/><stop offset="1" stop-color="#285a78"/></linearGradient><linearGradient id="n" x1="32.61" y1="25.8" x2="42.09" y2="42.22" gradientUnits="userSpaceOnUse"><stop offset="0"/><stop offset="0.04" stop-color="#262626"/><stop offset="0.12" stop-color="#727272"/><stop offset="0.2" stop-color="#afafaf"/><stop offset="0.26" stop-color="#dadada"/><stop offset="0.31" stop-color="#f5f5f5"/><stop offset="0.34" stop-color="#fff"/><stop offset="0.42" stop-color="#fbfbfb"/><stop offset="0.5" stop-color="#eee"/><stop offset="0.58" stop-color="#d8d8d8"/><stop offset="0.67" stop-color="#bababa"/><stop offset="0.76" stop-color="#939393"/><stop offset="0.85" stop-color="#646464"/><stop offset="0.94" stop-color="#2d2d2d"/><stop offset="1"/></linearGradient><linearGradient id="o" x1="21.89" y1="27.12" x2="30.59" y2="42.18" gradientUnits="userSpaceOnUse"><stop offset="0" stop-color="#8cd7f5"/><stop offset="1" stop-color="#376e8c"/></linearGradient><linearGradient id="p" x1="26.7" y1="26.86" x2="20.72" y2="44.89" xlink:href="#n"/><linearGradient id="q" x1="22.41" y1="40.46" x2="24.59" y2="44.24" gradientUnits="userSpaceOnUse"><stop offset="0" stop-color="#a0e1fa"/><stop offset="1" stop-color="#73c3e1"/></linearGradient><linearGradient id="r" x1="30.19" y1="31.5" x2="31.92" y2="34.5" gradientTransform="matrix(0, 1, -1, 0.21, 57, 4.96)" xlink:href="#q"/><linearGradient id="s" x1="28.41" y1="38.57" x2="30.59" y2="42.35" xlink:href="#q"/><linearGradient id="u" x1="22.41" y1="34.73" x2="24.59" y2="38.51" xlink:href="#q"/><linearGradient id="w" x1="28.41" y1="33.03" x2="30.59" y2="36.81" xlink:href="#q"/><linearGradient id="y" x1="22.41" y1="29.01" x2="24.59" y2="32.79" xlink:href="#q"/><linearGradient id="aa" x1="28.41" y1="27.48" x2="30.59" y2="31.27" xlink:href="#q"/><linearGradient id="ac" x1="35.17" y1="39.7" x2="36.83" y2="42.57" xlink:href="#q"/><linearGradient id="ad" x1="47.44" y1="35.47" x2="48.72" y2="37.68" gradientTransform="matrix(0, 1, -1, -0.49, 72.07, 11.4)" xlink:href="#m"/><linearGradient id="ae" x1="35.17" y1="34" x2="36.83" y2="36.86" xlink:href="#q"/><linearGradient id="ag" x1="35.17" y1="28.29" x2="36.83" y2="31.15" xlink:href="#q"/><linearGradient id="ai" x1="26.44" y1="27.94" x2="29.07" y2="37.89" xlink:href="#h"/><linearGradient id="al" x1="4.88" y1="17.63" x2="26.29" y2="54.73" gradientUnits="userSpaceOnUse"><stop offset="0" stop-color="#f5f5f5"/><stop offset="1" stop-color="#bebebe"/></linearGradient><linearGradient id="am" x1="48.05" y1="22.83" x2="44.92" y2="34.64" xlink:href="#h"/><linearGradient id="an" x1="48.13" y1="45.95" x2="46.95" y2="50.4" xlink:href="#h"/><linearGradient id="ap" x1="45.36" y1="15.93" x2="48.69" y2="21.7" xlink:href="#q"/><linearGradient id="ar" x1="44.71" y1="38.8" x2="48.48" y2="45.32" xlink:href="#q"/></defs><polygon points="45.5 12 45.5 47.5 38.5 50.5 38.5 13.5 45.5 12" stroke="#787878" stroke-linejoin="round" fill="url(#a)"/><polygon points="52.5 52.76 52.5 14.68 56.5 14 56.5 51.25 52.5 52.76" stroke="#787878" stroke-linejoin="round" fill="url(#a)"/><polygon points="45.5 12 52.5 14.68 52.5 52.76 45.5 47.5 45.5 12" stroke="#787878" stroke-linejoin="round" fill="url(#a)"/><g opacity="0.15"><polygon points="39 49.74 45 47.17 45 46.17 39 48.74 39 49.74"/><polygon points="53 52.04 56 50.9 56 49.9 53 51.04 53 52.04"/><polygon points="46 47.25 52 51.76 52 50.76 46 46.25 46 47.25"/></g><g opacity="0.3"><polygon points="39 13.9 39 14.9 45 13.62 45 12.62 39 13.9" fill="#fff"/><polygon points="53 15.1 53 16.1 56 15.59 56 14.59 53 15.1" fill="#fff"/><polygon points="46 12.73 46 13.73 52 16.02 52 15.03 46 12.73" fill="#fff"/></g><polygon points="39.5 57.5 39.5 17.5 43.5 16.5 43.5 56 39.5 57.5" stroke="#787878" stroke-linejoin="round" fill="url(#a)"/><polygon points="35.5 7 35.5 10.95 41.51 9.86 35.5 7" stroke="#787878" stroke-linejoin="round" fill="url(#a)"/><polygon points="23.5 9 23.5 43 39.5 57.5 39.5 17.5 23.5 9" stroke="#787878" stroke-linejoin="round" fill="url(#a)"/><polygon points="52.5 14.68 56.5 14 39.12 6.5 35.5 7 41.5 9.87 33.7 11.3 27.5 8.5 23.5 9 39.5 17.5 43.5 16.5 38.5 13.5 45.5 12 52.5 14.68" stroke="#787878" stroke-linejoin="round" fill="url(#a)"/><g opacity="0.15"><polygon points="40 56.78 43 55.65 43 54.65 40 55.78 40 56.78"/><polygon points="24 42.78 39 56.37 39 55.37 24 41.78 24 42.78"/><polygon points="39.56 15.97 26.65 9.11 25.13 9.3 39.56 16.97 42.21 16.31 41.03 15.6 39.56 15.97"/><path d="M42.05,8.58,38.84,7l-1.62.23,6,2.86C43.43,9.54,42.71,8.9,42.05,8.58Z"/><path d="M54.05,13.91l-8.37-3.38a.54.54,0,0,0-.28,0l-9,2.28,1.85,1.11A.5.5,0,0,1,38.4,13l7-1.5a.54.54,0,0,1,.28,0l6.87,2.64Z"/></g><g opacity="0.3"><polygon points="40 17.89 40 18.89 43 18.14 43 17.14 40 17.89" fill="#fff"/><polygon points="24 9.83 24 10.83 39 18.8 39 17.8 24 9.83" fill="#fff"/><polygon points="39.05 8.02 53.09 14.07 54.75 13.79 39.05 7.01 37.22 7.27 38.84 8.04 39.05 8.02" fill="#fff"/><path d="M36,13.19a.5.5,0,0,0,.23.51L41,16.6l1.18-.29-5.85-3.52A.48.48,0,0,0,36,13.19Z" fill="#fff"/><path d="M25.9,9.2l7.59,3.56a.51.51,0,0,0,.3,0l8-1.45a1.68,1.68,0,0,0,1.47-1.21l-1.63-.78c.72.35.37,1,0,1l-7.8,1.43a.51.51,0,0,1-.3,0L27.42,9l-2.29.29h0Z" fill="#fff"/></g><polygon points="39.5 50.97 37.04 55.27 34.58 52.83 39.5 50.97" opacity="0.3" fill="url(#h)"/><polygon points="21.5 53.21 21.5 57.62 39.5 51 39.5 47 21.5 53.21" stroke="#787878" stroke-linejoin="round" fill="url(#i)"/><polygon points="7.5 38.27 12.5 43.5 12.5 36.95 7.5 38.27" stroke="#787878" stroke-linejoin="round" fill="url(#j)"/><polygon points="33.5 42.5 33.5 22.5 16.5 27 16.5 48 33.5 42.5" stroke="#787878" stroke-linejoin="round" fill="url(#i)"/><polygon points="21.43 53.21 39.5 47 33.5 42.5 16.5 48 21.43 53.21" stroke="#787878" stroke-linejoin="round" fill="url(#j)"/><g opacity="0.15"><polygon points="22 56.91 39 50.65 39 49.65 22 55.91 22 56.91"/><polygon points="17 47.31 33 42.14 33 41.14 17 46.31 17 47.31"/><polygon points="21.57 51.63 18.13 48 17.41 48.23 21.57 52.63 38.45 46.83 37.53 46.15 21.57 51.63"/><polygon points="8 41.76 21 56.2 21 55.2 8 40.76 8 41.76"/></g><polygon points="39.5 45 39.5 28.5 33.5 24 33.5 40.5 39.5 45" stroke="#003755" stroke-linejoin="round" fill="url(#m)"/><polygon points="34 25 34 25.75 38 28.75 38 43.25 39 44 39 28.75 34 25" opacity="0.2" fill="url(#n)"/><polygon points="33.5 40.5 19.5 45.02 19.5 28.5 33.5 25.19 33.5 40.5" stroke="#003755" stroke-linejoin="round" fill="url(#o)"/><polygon points="21 28.9 33 26.06 33 25.83 20 28.9 20 44.33 21 44.01 21 28.9" opacity="0.2" fill="url(#p)"/><polygon points="25.5 41.67 24.5 40.67 23 40.12 21.5 41.3 21.5 43.03 22.5 44.03 24 44.58 25.5 43.41 25.5 41.67" stroke="#003755" stroke-linejoin="round" fill="url(#q)"/><polygon points="25.5 43.41 25.5 41.67 24 41.12 22.5 42.3 22.5 44.03 24 44.58 25.5 43.41" stroke="#003755" stroke-linejoin="round" fill="url(#r)"/><polygon points="31.5 39.79 30.5 38.79 29 38.23 27.5 39.41 27.5 41.14 28.5 42.14 30 42.69 31.5 41.52 31.5 39.79" stroke="#003755" stroke-linejoin="round" fill="url(#s)"/><polygon points="31.5 41.52 31.5 39.79 30 39.23 28.5 40.41 28.5 42.14 30 42.69 31.5 41.52" stroke="#003755" stroke-linejoin="round" fill="url(#r)"/><polygon points="25.5 35.95 24.5 34.95 23 34.39 21.5 35.57 21.5 37.3 22.5 38.3 24 38.86 25.5 37.68 25.5 35.95" stroke="#003755" stroke-linejoin="round" fill="url(#u)"/><polygon points="25.5 37.68 25.5 35.95 24 35.39 22.5 36.57 22.5 38.3 24 38.86 25.5 37.68" stroke="#003755" stroke-linejoin="round" fill="url(#r)"/><polygon points="31.5 34.24 30.5 33.24 29 32.69 27.5 33.86 27.5 35.59 28.5 36.59 30 37.15 31.5 35.97 31.5 34.24" stroke="#003755" stroke-linejoin="round" fill="url(#w)"/><polygon points="31.5 35.97 31.5 34.24 30 33.69 28.5 34.86 28.5 36.59 30 37.15 31.5 35.97" stroke="#003755" stroke-linejoin="round" fill="url(#r)"/><polygon points="25.5 30.22 24.5 29.22 23 28.66 21.5 29.84 21.5 31.57 22.5 32.57 24 33.13 25.5 31.95 25.5 30.22" stroke="#003755" stroke-linejoin="round" fill="url(#y)"/><polygon points="25.5 31.95 25.5 30.22 24 29.66 22.5 30.84 22.5 32.57 24 33.13 25.5 31.95" stroke="#003755" stroke-linejoin="round" fill="url(#r)"/><polygon points="31.5 28.7 30.5 27.7 29 27.14 27.5 28.32 27.5 30.05 28.5 31.05 30 31.61 31.5 30.43 31.5 28.7" stroke="#003755" stroke-linejoin="round" fill="url(#aa)"/><polygon points="31.5 30.43 31.5 28.7 30 28.14 28.5 29.32 28.5 31.05 30 31.61 31.5 30.43" stroke="#003755" stroke-linejoin="round" fill="url(#r)"/><polygon points="34.5 40.09 35.5 39.54 36.5 39.2 37.5 40.53 37.5 42.18 36.5 42.74 35.5 43.07 34.5 41.75 34.5 40.09" stroke="#003755" stroke-linejoin="round" fill="url(#ac)"/><polygon points="36.5 42.74 36.5 41.08 35.5 39.76 34.5 40.09 34.5 41.75 35.5 43.07 36.5 42.74" stroke="#003755" stroke-linejoin="round" fill="url(#ad)"/><polygon points="34.5 34.39 35.5 33.83 36.5 33.5 37.5 34.82 37.5 36.47 36.5 37.03 35.5 37.36 34.5 36.04 34.5 34.39" stroke="#003755" stroke-linejoin="round" fill="url(#ae)"/><polygon points="36.5 37.03 36.5 35.37 35.5 34.05 34.5 34.39 34.5 36.04 35.5 37.36 36.5 37.03" stroke="#003755" stroke-linejoin="round" fill="url(#ad)"/><polygon points="34.5 28.68 35.5 28.12 36.5 27.79 37.5 29.11 37.5 30.77 36.5 31.32 35.5 31.66 34.5 30.33 34.5 28.68" stroke="#003755" stroke-linejoin="round" fill="url(#ag)"/><polygon points="36.5 31.32 36.5 29.67 35.5 28.34 34.5 28.68 34.5 30.33 35.5 31.66 36.5 31.32" stroke="#003755" stroke-linejoin="round" fill="url(#ad)"/><polygon points="39.5 26.5 33.5 37 16.5 41.17 16.5 27 39.5 26.5" opacity="0.3" fill="url(#ai)"/><polygon points="21.5 26.66 21.5 31.07 39.5 26.5 39.5 22.5 21.5 26.66" stroke="#787878" stroke-linejoin="round" fill="url(#i)"/><polygon points="7.5 16.12 23.5 13.21 39.5 22.5 21.5 26.66 7.5 16.12" stroke="#787878" stroke-linejoin="round" fill="url(#j)"/><polygon points="21.5 31.07 21.5 26.66 7.5 16.12 7.5 19.8 12.5 23.98 12.5 43.5 7.5 38.27 7.5 41.95 21.5 57.5 21.5 53.21 16.5 48 16.5 27 21.5 31.07" stroke="#787878" stroke-linejoin="round" fill="url(#al)"/><g opacity="0.15"><polygon points="22 30.43 39 26.11 39 25.11 22 29.43 22 30.43"/><polygon points="21.61 25.12 9.78 16.21 8.71 16.41 21.61 26.12 38.16 22.3 36.92 21.58 21.61 25.12"/><path d="M13,24V23a.49.49,0,0,0-.18-.38L8,18.56v1l4.82,4A.49.49,0,0,1,13,24Z"/><path d="M16.29,25.55A.49.49,0,0,0,16,26v1a.49.49,0,0,1,.29-.45.51.51,0,0,1,.53.06L21,30V29l-4.18-3.41A.51.51,0,0,0,16.29,25.55Z"/></g><g opacity="0.3"><polygon points="22 53.57 22 54.57 39 48.7 39 47.7 22 53.57" fill="#fff"/><polygon points="8.45 38.53 9.21 39.34 12 38.6 12 37.6 8.45 38.53" fill="#fff"/><polygon points="22 27.06 22 28.06 39 24.13 39 23.13 22 27.06" fill="#fff"/><polygon points="23.41 14.73 36.92 22.58 38.16 22.3 23.41 13.73 8.71 16.41 9.78 17.21 23.41 14.73" fill="#fff"/><path d="M12.69,45A.49.49,0,0,0,13,44.5v-1a.49.49,0,0,1-.31.46.51.51,0,0,1-.55-.11L8,39.51v1l4.14,4.34A.51.51,0,0,0,12.69,45Z" fill="#fff"/><polygon points="8 17.12 8 18.12 21 27.91 21 26.91 8 17.12" fill="#fff"/><path d="M16,48v1a.52.52,0,0,0,.14.35L21,54.41v-1l-4.86-5.06A.52.52,0,0,1,16,48Z" fill="#fff"/></g><path d="M39.12,6.5,35.5,7V11l-1.8.35L27.5,8.5l-4,.5v4.21l-16,2.91V19.8l5,4.18V37l-5,1.31V42l14,15.55v.12l12.9-4.74,5.1,4.62,4-1.5V50l3.69-1.23,5.31,4,4-1.51V14Z" fill="none" stroke="#323232" stroke-linejoin="round"/><g opacity="0.3"><polygon points="52.5 23.5 45.5 35.59 43.5 35.63 43.5 22.58 52.5 23.5" fill="url(#am)"/><polygon points="52.5 46.92 50.15 50.97 47.19 48.77 43.5 50 43.5 46 52.5 46.92" fill="url(#an)"/></g><polygon points="43.5 21.5 43.5 25.5 52.5 23.5 52.5 19.5 43.5 21.5" stroke="#003755" stroke-linejoin="round" fill="url(#o)"/><polygon points="52.5 19.5 45.5 16.5 43.5 17 43.5 21.5 52.5 19.5" stroke="#003755" stroke-linejoin="round" fill="url(#ap)"/><polygon points="43.5 46 43.5 50 52.5 47 52.5 43 43.5 46" stroke="#003755" stroke-linejoin="round" fill="url(#o)"/><polygon points="52.5 43 45.5 39 43.5 39.5 43.5 46 52.5 43" stroke="#003755" stroke-linejoin="round" fill="url(#ar)"/><g opacity="0.15"><polygon points="44 24.88 52 23.1 52 22.1 44 23.88 44 24.88"/><polygon points="44 49.31 52 46.64 52 45.64 44 48.31 44 49.31"/></g><g opacity="0.3"><polygon points="44 21.9 44 22.9 52 21.12 52 20.12 44 21.9" fill="#fff"/><polygon points="44 46.36 44 47.36 52 44.69 52 43.69 44 46.36" fill="#fff"/></g></svg>