<svg id="CATIA___SYMB_-_Symbol_Design" data-name="CATIA _ SYMB - Symbol Design" xmlns="http://www.w3.org/2000/svg" xmlns:xlink="http://www.w3.org/1999/xlink" viewBox="0 0 64 64"><defs><style>.cls-1{fill:url(#linear-gradient);}.cls-2{fill:#323232;}.cls-3,.cls-4,.cls-5,.cls-6{stroke:#323232;stroke-width:1.5px;opacity:0.5;}.cls-10,.cls-11,.cls-3,.cls-4,.cls-5,.cls-6,.cls-8,.cls-9{stroke-miterlimit:10;}.cls-3{fill:url(#linear-gradient-2);}.cls-4{fill:none;}.cls-5{fill:url(#linear-gradient-3);}.cls-6{fill:url(#linear-gradient-4);}.cls-7,.cls-9{stroke:#6d6d6d;}.cls-12,.cls-7{stroke-linecap:round;stroke-linejoin:round;}.cls-7{fill:url(#linear-gradient-5);}.cls-8{stroke:#00415f;fill:url(#linear-gradient-6);}.cls-9{fill:url(#linear-gradient-7);}.cls-10,.cls-11{stroke:#2d2d2d;}.cls-10{fill:url(#linear-gradient-8);}.cls-11{fill:url(#linear-gradient-9);}.cls-12{stroke:#000;}</style><linearGradient id="linear-gradient" x1="9.66" y1="17.76" x2="74.24" y2="61.82" gradientUnits="userSpaceOnUse"><stop offset="0" stop-color="#fff"/><stop offset="1" stop-color="#b3b3b3"/></linearGradient><linearGradient id="linear-gradient-2" x1="14.03" y1="38.16" x2="19.72" y2="42.04" xlink:href="#linear-gradient"/><linearGradient id="linear-gradient-3" x1="-6.47" y1="38.16" x2="-0.78" y2="42.04" gradientTransform="matrix(-1, 0, 0, 1, 44.5, 0)" xlink:href="#linear-gradient"/><linearGradient id="linear-gradient-4" x1="-16.22" y1="26.41" x2="-10.53" y2="30.29" gradientTransform="matrix(0, 1, 1, 0, 3.75, 37.25)" xlink:href="#linear-gradient"/><linearGradient id="linear-gradient-5" x1="33.96" y1="30.71" x2="39.15" y2="32.48" gradientUnits="userSpaceOnUse"><stop offset="0" stop-color="#fff"/><stop offset="0.5" stop-color="#c4c4c4"/><stop offset="0.9" stop-color="#575757"/></linearGradient><linearGradient id="linear-gradient-6" x1="41.56" y1="18.11" x2="47.1" y2="22.09" gradientUnits="userSpaceOnUse"><stop offset="0" stop-color="#93d2f0"/><stop offset="0.5" stop-color="#5a9cb5"/><stop offset="0.9" stop-color="#195a72"/></linearGradient><linearGradient id="linear-gradient-7" x1="50.54" y1="17.53" x2="44.83" y2="13.64" gradientUnits="userSpaceOnUse"><stop offset="0.1" stop-color="#575757"/><stop offset="0.5" stop-color="#c4c4c4"/><stop offset="1" stop-color="#fff"/></linearGradient><linearGradient id="linear-gradient-8" x1="104.87" y1="-67.69" x2="112.22" y2="-67.69" gradientTransform="matrix(0.99, 0.01, 0.01, 0.99, -57.08, 78.48)" gradientUnits="userSpaceOnUse"><stop offset="0" stop-color="#505050"/><stop offset="0.9" stop-color="#2d2d2d"/></linearGradient><linearGradient id="linear-gradient-9" x1="106.6" y1="-69.25" x2="112.23" y2="-69.25" xlink:href="#linear-gradient-8"/></defs><title>CATIA _ SYMB - Symbol Design</title><rect class="cls-1" x="8.5" y="16.5" width="47" height="33" rx="1.5"/><path class="cls-2" d="M54,17a1,1,0,0,1,1,1V48a1,1,0,0,1-1,1H10a1,1,0,0,1-1-1V18a1,1,0,0,1,1-1H54m0-1H10a2,2,0,0,0-2,2V48a2,2,0,0,0,2,2H54a2,2,0,0,0,2-2V18a2,2,0,0,0-2-2Z"/><line class="cls-3" x1="13" y1="39.5" x2="19" y2="39.5"/><polygon class="cls-4" points="19.5 33.5 19.5 44.5 31.5 39.5 19.5 33.5"/><line class="cls-5" x1="52" y1="39.5" x2="46" y2="39.5"/><polygon class="cls-4" points="45.5 33.5 45.5 44.5 33.5 39.5 45.5 33.5"/><line class="cls-6" x1="31.5" y1="20" x2="31.5" y2="26"/><polyline class="cls-4" points="31.5 38.5 25.5 26.5 36.5 26.5 34.02 32.45"/><polygon class="cls-7" points="35.4 27.98 34.2 34.02 39.68 31 35.4 27.98"/><path class="cls-8" d="M39.91,30.81c-.43.58-2,.36-3.12-.47s-1.72-2-1.29-2.56L48.14,9.21c.55-.75,2.18-.48,3.65.6s2.39,2.76,1.84,3.51Z"/><path class="cls-9" d="M44.67,14.37c-.53.73.22,2.18,1.67,3.25s3.07,1.35,3.6.62l1.85-2.55-5.43-4Z"/><path class="cls-10" d="M46.5,12c-.53.72.22,2.18,1.68,3.24s3.06,1.35,3.6.62l1.85-2.54-5.44-4Z"/><path class="cls-11" d="M49.87,12.6c-1.46-1.07-2.21-2.52-1.68-3.25s2.14-.45,3.6.62,2.21,2.52,1.67,3.25S51.32,13.67,49.87,12.6Z"/><path class="cls-12" d="M34.51,32.45a1.12,1.12,0,0,0,.94.88s-1,.82-1.22.69S34.51,32.45,34.51,32.45Z"/></svg>