<svg id="_1X_64_px_copy" data-name="1X   64 px copy" xmlns="http://www.w3.org/2000/svg" xmlns:xlink="http://www.w3.org/1999/xlink" viewBox="0 0 64 64"><defs><style>.cls-1,.cls-15,.cls-2{fill:none;}.cls-10,.cls-12,.cls-14,.cls-2,.cls-4,.cls-7,.cls-8{stroke:#000;}.cls-10,.cls-15,.cls-2,.cls-3,.cls-4,.cls-8,.cls-9{stroke-linecap:round;stroke-linejoin:round;}.cls-15,.cls-3,.cls-6,.cls-9{stroke:#231f20;}.cls-10,.cls-3,.cls-4,.cls-8,.cls-9{stroke-width:0.44px;}.cls-3{fill:url(#Light_BLUE_gradient_TOP);}.cls-4{fill:url(#Light_BLUE_gradient_TOP-2);}.cls-5{clip-path:url(#clip-path);}.cls-6{fill:#323232;stroke-width:0.08px;}.cls-12,.cls-14,.cls-6,.cls-7{stroke-miterlimit:10;}.cls-12,.cls-7{stroke-width:0.23px;}.cls-7{fill:url(#white_left);}.cls-8{fill:url(#Medium_BLUE_gradient_FRONT);}.cls-9{fill:url(#Medium_BLUE_gradient_FRONT-2);}.cls-10,.cls-13{fill:#aadcfa;}.cls-11{clip-path:url(#clip-path-2);}.cls-12{fill:#285977;}.cls-14{fill:#fff;stroke-width:0.28px;}.cls-15{stroke-width:0.22px;}</style><linearGradient id="Light_BLUE_gradient_TOP" x1="28.59" y1="31.06" x2="68.51" y2="38.61" gradientTransform="matrix(1, -0.06, 0.06, 1, 2.43, 2.86)" gradientUnits="userSpaceOnUse"><stop offset="0" stop-color="#a0e1fa"/><stop offset="0.99" stop-color="#73c3e1"/></linearGradient><linearGradient id="Light_BLUE_gradient_TOP-2" x1="20" y1="21.58" x2="37.41" y2="32.12" gradientTransform="matrix(1, 0, 0, 1, 0, 0)" xlink:href="#Light_BLUE_gradient_TOP"/><clipPath id="clip-path"><polygon class="cls-1" points="49.67 42.42 45.67 41.28 42.2 39.51 41.12 41.11 39.11 39.76 39.11 38.73 36.32 37.91 35.24 38.65 24.21 35.76 24.21 18.9 49.67 18.9 49.67 42.42"/></clipPath><linearGradient id="white_left" x1="39.41" y1="29.71" x2="41.04" y2="29.71" gradientUnits="userSpaceOnUse"><stop offset="0" stop-color="#f5f5f5"/><stop offset="1" stop-color="#bebebe"/></linearGradient><linearGradient id="Medium_BLUE_gradient_FRONT" x1="28.12" y1="28.02" x2="48.85" y2="28.02" gradientUnits="userSpaceOnUse"><stop offset="0" stop-color="#8cd7f5"/><stop offset="1" stop-color="#376e8c"/></linearGradient><linearGradient id="Medium_BLUE_gradient_FRONT-2" x1="24.84" y1="36.35" x2="51.71" y2="36.35" xlink:href="#Medium_BLUE_gradient_FRONT"/><clipPath id="clip-path-2"><polygon class="cls-1" points="47.58 33.91 45.67 32.46 42.2 31.62 41.7 31.95 41.69 32.59 39.42 32.02 39.41 30.84 36.32 30.02 35.66 30.39 35.66 31.02 33.44 30.44 33.26 29.5 24.21 30.43 24.21 11 47.58 15.03 47.58 33.91"/></clipPath></defs><title>ddd__A33AAe__R21XArtboard 1</title><g id="Layer_25_copy" data-name="Layer 25 copy"><path id="contour" class="cls-2" d="M46.54,30.76l5.3-4-7.35-1.86V18.51l-5.93-1.18a34,34,0,0,1-1.23-6.22,122.74,122.74,0,0,0-16.44,6.63,57.81,57.81,0,0,0-9.62,6.13s2.57,10.4,6.43,16.64S29.4,53.8,29.4,53.8L52.17,34.42A27,27,0,0,1,46.54,30.76Z"/><path id="coque_" data-name="coque    *" class="cls-3" d="M11.71,23.65s2.59,10.74,6.41,16.93,11.47,13,11.47,13L52.29,34.3S46,31.06,42.71,25.93A36.9,36.9,0,0,1,37.56,11a108.5,108.5,0,0,0-16.14,6.56A52.66,52.66,0,0,0,11.71,23.65Z"/><path id="paroi_bas" data-name="paroi bas" class="cls-4" d="M31.59,28.78C35.93,36.94,44.77,40.7,44.77,40.7V32.24Z"/><g class="cls-5"><polygon class="cls-6" points="40.27 40.21 42.2 39.28 42.2 18.2 40.27 18.82 40.27 40.21"/><polygon class="cls-7" points="41.04 40.76 40.23 40.25 39.41 39.75 39.41 31.41 39.41 18.66 40.23 18.82 41.04 18.97 41.04 32.07 41.04 40.76"/></g><path id="sol_2_arr" data-name="sol 2   arr" class="cls-8" d="M44.75,32.23l7.52-5.56L41.43,23.82s-5.63,2.5-9.88,5l13.2,3.45-13.2-3.45"/><path id="sol_1_av" data-name="sol 1  av" class="cls-9" d="M31.55,28.78C25,32.54,17.87,40.15,17.87,40.15l11.24,3.77L44.75,32.23Z"/><path id="paroi_Ht" data-name="paroi  Ht" class="cls-10" d="M44.77,18.34,27.15,14.88a36.28,36.28,0,0,0,4.44,13.9l13.18,3.46Z"/><g id="ok"><g class="cls-11"><g id="ok_" data-name="ok   **"><polygon class="cls-12" points="40.27 39.59 42.2 38.98 42.2 17.89 40.27 18.51 40.27 39.59"/><polygon class="cls-12" points="34.38 34.84 36.32 34.22 36.32 16.73 34.38 17.35 34.38 34.84"/><polygon class="cls-12" points="28.5 27.21 30.44 26.05 30.44 15.57 28.5 16.19 28.5 27.21"/></g><g id="ok_2" data-name="ok **"><polygon class="cls-13" points="41.58 40.83 39.49 39.67 39.49 18.35 40.3 18.51 41.58 18.82 41.58 40.83"/><polygon class="cls-13" points="35.55 36.31 33.61 34.37 33.61 17.19 34.42 17.35 35.55 17.58 35.55 36.31"/><polygon class="cls-13" points="29.59 29.92 27.73 25.74 27.73 16.03 29.59 16.42 29.59 29.92"/><polygon class="cls-14" points="41.58 40.83 39.49 39.67 39.49 18.35 40.3 18.51 41.58 18.82 41.58 40.83"/><polygon class="cls-14" points="35.55 36.31 33.61 34.37 33.61 17.19 34.42 17.35 35.55 17.58 35.55 36.31"/><polygon class="cls-14" points="29.59 29.92 27.73 25.74 27.73 16.03 29.59 16.42 29.59 29.92"/><polygon class="cls-15" points="41.58 40.83 39.49 39.67 39.49 18.35 40.3 18.51 41.58 18.82 41.58 40.83"/><polygon class="cls-15" points="35.55 36.31 33.61 34.37 33.61 17.19 34.42 17.35 35.55 17.58 35.55 36.31"/><polygon class="cls-15" points="29.59 29.92 27.73 25.74 27.73 16.03 29.59 16.42 29.59 29.92"/></g></g></g></g></svg>