<svg id="Calque_11" data-name="Calque 11" xmlns="http://www.w3.org/2000/svg" xmlns:xlink="http://www.w3.org/1999/xlink" viewBox="0 0 64 64"><defs><style>.cls-1{fill:url(#linear-gradient);}.cls-2{fill:url(#linear-gradient-2);}.cls-3{fill:url(#linear-gradient-3);}.cls-4{fill:#57b847;}.cls-5{fill:#fff;}</style><linearGradient id="linear-gradient" x1="35.28" y1="28.08" x2="46.01" y2="46.66" gradientUnits="userSpaceOnUse"><stop offset="0" stop-color="#d7d7d7"/><stop offset="1" stop-color="#969696"/></linearGradient><linearGradient id="linear-gradient-2" x1="18.94" y1="29.37" x2="28.94" y2="46.69" gradientUnits="userSpaceOnUse"><stop offset="0" stop-color="#3287af"/><stop offset="1" stop-color="#285a78"/></linearGradient><linearGradient id="linear-gradient-3" x1="26.78" y1="32.77" x2="37.42" y2="14.33" gradientUnits="userSpaceOnUse"><stop offset="0" stop-color="#379614"/><stop offset="1" stop-color="#55b432"/></linearGradient></defs><path class="cls-1" d="M41,28h0a9.92,9.92,0,0,0-6.42,2.34h0a10,10,0,0,0-.88.84l-.24.28c-.19.22-.37.45-.55.69l-.24.34-.27.42h.05A15.14,15.14,0,0,1,34,38a9.9,9.9,0,0,1-1.5,5.25A10,10,0,1,0,41,28Z"/><path class="cls-2" d="M32.45,32.9H32.4A10,10,0,0,1,23.89,28,10,10,0,1,0,34,38,15.14,15.14,0,0,0,32.45,32.9Z"/><path class="cls-3" d="M32.91,32.14c.18-.24.36-.47.55-.69l.24-.28a10,10,0,0,1,.88-.84h0A9.92,9.92,0,0,1,41,28h0a9.94,9.94,0,1,0-8.62,4.9l.27-.42Z"/><path class="cls-4" d="M38.21,7.52A25.39,25.39,0,0,0,32,6.75v0l1,.79,1,.79-1,.79L32,10v.16A21.63,21.63,0,1,1,10.37,31.75a22,22,0,0,1,.31-3.63c.47,0,1,.05,1.51.05s1.07,0,1.63-.07a12.84,12.84,0,0,0,1.65-.22A9.54,9.54,0,0,0,17,27.46a6.22,6.22,0,0,0,1.34-.67,5.56,5.56,0,0,0,1.4-1.42,8,8,0,0,0,.91-1.86,13.25,13.25,0,0,0,.55-2.17c.13-.77.22-1.55.28-2.35s.1-1.6.13-2.41.07-1.57.1-2.32a28.1,28.1,0,0,1-3.54.45c-1.14.08-2.23.17-3.26.27a20,20,0,0,0-2.87.48,6.55,6.55,0,0,0-2.35,1.07A5.89,5.89,0,0,0,8,18.59,10.32,10.32,0,0,0,7,22a12.81,12.81,0,0,1,1.71-1.66,13.33,13.33,0,0,1,2-1.33,12.71,12.71,0,0,1,2.34-.94,12.85,12.85,0,0,1,2.6-.46,17,17,0,0,0-3.76,2,12.45,12.45,0,0,0-2.81,2.75,11.53,11.53,0,0,0-1,1.95,8.68,8.68,0,0,0-.74,3.33A25.62,25.62,0,0,0,7,31.75,25,25,0,1,0,38.21,7.52Z"/><path class="cls-5" d="M47,41V32.5a.5.5,0,0,0-.5-.5h-1a.5.5,0,0,0-.5.5V41H44V36.5a.5.5,0,0,0-.5-.5h-1a.5.5,0,0,0-.5.5V41H41V34.5a.5.5,0,0,0-.5-.5h-1a.5.5,0,0,0-.5.5V41H38V36.5a.5.5,0,0,0-.5-.5h-1a.5.5,0,0,0-.5.5V41H35v1H48V41Z"/><path class="cls-5" d="M24,31c-2,4-4,6.79-4,9a4,4,0,0,0,8,0C28,37.79,26,35,24,31Zm-.87,9.21c-.21,1.09-1,1.81-1.5,1.66s-.72-1.13-.43-2.19a6.65,6.65,0,0,1,1.86-3C23.54,36.41,23.42,38.73,23.13,40.21Z"/><path class="cls-5" d="M37,25.27v2a.56.56,0,0,1-.57.58h-8a.56.56,0,0,1-.57-.58v-2a3.42,3.42,0,0,1,2.2-3.19,4,4,0,0,0,4.74,0A3.42,3.42,0,0,1,37,25.27Zm-4.57-3.42a3,3,0,1,1,3-3A3,3,0,0,1,32.45,21.85Z"/></svg>