<?xml version="1.0" encoding="iso-8859-1"?>
<!-- Generator: Adobe Illustrator 23.1.0, SVG Export Plug-In . SVG Version: 6.00 Build 0)  -->
<svg version="1.1" xmlns="http://www.w3.org/2000/svg" xmlns:xlink="http://www.w3.org/1999/xlink" x="0px" y="0px"
	 viewBox="0 0 64 64" style="enable-background:new 0 0 64 64;" xml:space="preserve">
<pattern  width="20" height="20" patternUnits="userSpaceOnUse" id="New_Pattern_Swatch_2" viewBox="22.121 -42.121 20 20" style="overflow:visible;">
	<g>
		<rect x="22.121" y="-42.121" style="fill:none;" width="20" height="20"/>
		
			<rect x="49.121" y="-26.263" transform="matrix(0.7071 -0.7071 0.7071 0.7071 23.837 33.3051)" style="fill:#844138;" width="6" height="28.284"/>
		
			<rect x="29.121" y="-26.263" transform="matrix(0.7071 -0.7071 0.7071 0.7071 17.9792 19.163)" style="fill:#844138;" width="6" height="28.284"/>
		
			<rect x="9.121" y="-26.263" transform="matrix(0.7071 -0.7071 0.7071 0.7071 12.1213 5.0208)" style="fill:#844138;" width="6" height="28.284"/>
		
			<rect x="49.121" y="-46.263" transform="matrix(0.7071 -0.7071 0.7071 0.7071 37.9792 27.4472)" style="fill:#844138;" width="6" height="28.284"/>
		
			<rect x="29.121" y="-46.263" transform="matrix(0.7071 -0.7071 0.7071 0.7071 32.1213 13.3051)" style="fill:#844138;" width="6" height="28.284"/>
		
			<rect x="9.121" y="-46.263" transform="matrix(0.7071 -0.7071 0.7071 0.7071 26.2635 -0.837)" style="fill:#844138;" width="6" height="28.284"/>
		
			<rect x="49.121" y="-66.263" transform="matrix(0.7071 -0.7071 0.7071 0.7071 52.1213 21.5894)" style="fill:#844138;" width="6" height="28.284"/>
		
			<rect x="29.121" y="-66.263" transform="matrix(0.7071 -0.7071 0.7071 0.7071 46.2635 7.4472)" style="fill:#844138;" width="6" height="28.284"/>
		
			<rect x="9.121" y="-66.263" transform="matrix(0.7071 -0.7071 0.7071 0.7071 40.4056 -6.6949)" style="fill:#844138;" width="6" height="28.284"/>
	</g>
</pattern>
<g id="Layer_1" style="display:none;">
</g>
<g id="info_r2021x" style="display:none;">
	<g id="pedestal_r2021x" style="display:inline;">
		<path style="opacity:0.5;fill:#FFFFFF;" d="M63.002,64h-62c-0.552,0-1-0.448-1-1V1c0-0.552,0.448-1,1-1h62c0.552,0,1,0.448,1,1v62
			C64.002,63.552,63.554,64,63.002,64z"/>
		<rect x="1.002" y="1" style="fill:#F4F5F6;" width="62" height="62"/>
		<rect x="1.002" y="1" style="fill:#D1D4D4;" width="2" height="62"/>
	</g>
	<g id="no-go_zone_1_" style="display:inline;opacity:0.3;">
		<path style="fill:url(#New_Pattern_Swatch_2);" d="M0,0v64h64V0H0z M57,57H7V7h50V57z"/>
	</g>
	<g style="display:inline;">
		<path style="fill:#EA4F37;" d="M57,7v50H7V7H57 M58,6h-1H7H6v1v50v1h1h50h1v-1V7V6L58,6z"/>
	</g>
</g>
<g id="Notes" style="display:none;">
</g>
<g id="vector_references" style="display:none;">
</g>
<g id="PNG_references" style="display:none;">
	
		<image style="display:inline;overflow:visible;" width="64" height="64" xlink:href="C:\Users\duc\Desktop\Y7L0Ij8u6PkZh2vabTIpAPU6OBLQXZ1DM2g7AyM5.png" >
	</image>
</g>
<g id="Work" style="display:none;">
	<g style="display:inline;">
		<linearGradient id="SVGID_1_" gradientUnits="userSpaceOnUse" x1="32.9751" y1="29.0325" x2="40.9184" y2="42.7906">
			<stop  offset="0" style="stop-color:#FFFFFF"/>
			<stop  offset="1" style="stop-color:#D2D3D3"/>
		</linearGradient>
		<path style="fill:url(#SVGID_1_);" d="M56.447,19.778v3l-10.5,2c0,0-2,0.5-2,3.5c0,4,0,11,0,11s0,4-3.5,5.5l-22,9v-6.5l20.5-7.5
			c0,0,0,1,0-2s0-10.5,0-10.5s1.5-6,5-7S56.447,19.778,56.447,19.778z"/>
		<linearGradient id="SVGID_2_" gradientUnits="userSpaceOnUse" x1="27.0644" y1="19.9551" x2="38.0963" y2="39.0629">
			<stop  offset="0" style="stop-color:#FFFFFF"/>
			<stop  offset="1" style="stop-color:#F1F0F0"/>
		</linearGradient>
		<path style="fill:url(#SVGID_2_);" d="M45.947,11.278c0,0-5.5,0.5-11,1.5s-5.5,5.5-5.5,5.5s0,9,0,11c0,2.5-1.5,3-1.5,3l-19.5,6.5
			l10,10c0,0,18-6.5,20-7.5s2-3,2-3s0-4.5,0-10.5c0-5.5,4.5-6.083,4.5-6.083l11.5-1.917L45.947,11.278z M31.609,40.13l-10.5,3.5
			c-1.468,0.416-3.5,0-4.432-1.824c-0.723-1.415-0.036-2.759,1.432-3.176l10-3c2-0.5,3.734,0.27,4.518,1.652
			C33.109,38.13,33.077,39.713,31.609,40.13z M42.445,18.778c-2.761,0-5-0.895-5-2c0-1.105,2.239-2,5-2s5,0.895,5,2
			C47.445,17.883,45.207,18.778,42.445,18.778z"/>
		<linearGradient id="SVGID_3_" gradientUnits="userSpaceOnUse" x1="10.1252" y1="40.4003" x2="17.3068" y2="52.8392">
			<stop  offset="0" style="stop-color:#F5F6F6"/>
			<stop  offset="0.9921" style="stop-color:#BFBEBE"/>
		</linearGradient>
		<polygon style="fill:url(#SVGID_3_);stroke:#797979;stroke-linecap:round;stroke-linejoin:round;stroke-miterlimit:1;" points="
			8.447,43.778 18.447,53.778 18.447,48.53 8.447,39.06 		"/>
		<path style="fill:#797979;" d="M55.115,19.343l0.154,0.125l-10.387,1.731c-0.049,0.007-4.841,0.555-4.841,6.426l-0.023,10.643
			c0,0.017-0.091,1.712-1.795,2.563c-1.812,0.905-17.445,6.132-19.8,6.984l-9.356-9.037c0,0-0.983,0.441-0.974,0.45l9.83,9.547
			c0.096,0.096,0.224,0.146,0.354,0.146c0.057,0,0.114-0.01,0.17-0.029c0.736-0.267,18.221-6.165,20.224-7.167
			C40.921,40.601,41,38.095,41,38l-0.02-10.39c0-4.975,3.868-5.396,4.05-5.421l11.5-1.917c0.194-0.032,0.352-0.176,0.401-0.366
			c0.043-0.163-0.014-0.327-0.124-0.451C56.181,19.412,55.598,19.373,55.115,19.343z"/>
		<path style="fill:none;stroke:#333332;stroke-linecap:round;stroke-linejoin:round;stroke-miterlimit:1;" d="M45.947,11.278
			c0,0-5.5,0.5-11,1.5s-5.5,5.5-5.5,5.5v11c0.114,2.277-1.5,3-1.5,3l-19.5,6.5v5l10,10l22-9c4.178-1.606,3.997-5.5,3.997-5.5
			s0-7,0-11c0-3,1.503-3.5,1.503-3.5l10.5-2v-3L45.947,11.278z"/>
		<linearGradient id="SVGID_4_" gradientUnits="userSpaceOnUse" x1="45.9353" y1="16.3882" x2="42.1055" y2="16.5159">
			<stop  offset="0" style="stop-color:#D7D7D7"/>
			<stop  offset="1" style="stop-color:#969696"/>
		</linearGradient>
		<path style="fill:url(#SVGID_4_);stroke:#797979;stroke-linecap:round;stroke-linejoin:round;stroke-miterlimit:1;" d="
			M42.445,14.778c-2.761,0-5,0.895-5,2c0,0.234,0.119,0.455,0.304,0.664c0.915-0.405,2.225-0.664,3.696-0.664
			c2.177,0,4.01,0.56,4.696,1.336c0.802-0.355,1.304-0.82,1.304-1.336C47.445,15.674,45.207,14.778,42.445,14.778z"/>
		<path style="fill:none;stroke:#333332;stroke-linecap:round;stroke-linejoin:round;stroke-miterlimit:1;" d="M37.753,17.442
			c0.687,0.777,2.52,1.336,4.696,1.336c1.472,0,2.781-0.259,3.696-0.664c-0.687-0.777-2.52-1.336-4.696-1.336
			C39.977,16.778,38.668,17.037,37.753,17.442z"/>
		<g>
			<linearGradient id="SVGID_5_" gradientUnits="userSpaceOnUse" x1="33.2071" y1="39.7126" x2="27.8454" y2="39.2019">
				<stop  offset="0" style="stop-color:#D7D7D7"/>
				<stop  offset="1" style="stop-color:#969696"/>
			</linearGradient>
			<path style="fill:url(#SVGID_5_);stroke:#797979;stroke-linecap:round;stroke-linejoin:round;stroke-miterlimit:1;" d="
				M16.849,42.042c0.26-0.536,0.778-0.955,1.484-1.155l9.697-2.906c1.939-0.485,3.617,0.25,4.374,1.576
				c0.016,0.029,0.027,0.064,0.042,0.094c0.633-0.659,0.568-1.726,0.202-2.371c-0.784-1.382-2.518-2.152-4.518-1.652l-10,3
				c-1.468,0.416-2.155,1.761-1.432,3.176C16.741,41.893,16.799,41.962,16.849,42.042z"/>
			<path style="fill:none;stroke:#333332;stroke-linecap:round;stroke-linejoin:round;stroke-miterlimit:1;" d="M16.848,42.045
				c0.984,1.61,2.882,1.984,4.28,1.587l10.5-3.5c0.352-0.1,0.617-0.27,0.817-0.477c-0.015-0.03-0.026-0.066-0.042-0.094
				c-0.757-1.325-2.435-2.061-4.374-1.576l-9.697,2.906C17.627,41.09,17.109,41.509,16.848,42.045z"/>
		</g>
	</g>
</g>
<g id="FINAL">
	<g>
		<linearGradient id="SVGID_6_" gradientUnits="userSpaceOnUse" x1="32.9751" y1="29.0325" x2="40.9184" y2="42.7906">
			<stop  offset="0" style="stop-color:#FFFFFF"/>
			<stop  offset="1" style="stop-color:#D2D3D3"/>
		</linearGradient>
		<path style="fill:url(#SVGID_6_);" d="M56.447,19.778v3l-10.5,2c0,0-2,0.5-2,3.5c0,4,0,11,0,11s0,4-3.5,5.5l-22,9v-6.5l20.5-7.5
			c0,0,0,1,0-2s0-10.5,0-10.5s1.5-6,5-7S56.447,19.778,56.447,19.778z"/>
		<linearGradient id="SVGID_7_" gradientUnits="userSpaceOnUse" x1="37.3288" y1="23.0198" x2="29.8607" y2="32.5943">
			<stop  offset="0" style="stop-color:#FFFFFF"/>
			<stop  offset="0.0959" style="stop-color:#F5F5F5"/>
			<stop  offset="0.268" style="stop-color:#EAEAEA"/>
			<stop  offset="0.4504" style="stop-color:#E6E6E6"/>
			<stop  offset="0.777" style="stop-color:#E8E8E8"/>
			<stop  offset="0.8945" style="stop-color:#EFEFEF"/>
			<stop  offset="0.9781" style="stop-color:#FAFAFA"/>
			<stop  offset="1" style="stop-color:#FFFFFF"/>
		</linearGradient>
		<path style="fill:url(#SVGID_7_);" d="M45.947,11.278c0,0-5.5,0.5-11,1.5s-5.5,5.5-5.5,5.5s0,9,0,11c0,2.5-1.5,3-1.5,3l-19.5,6.5
			l10,10c0,0,18-6.5,20-7.5s2-3,2-3s0-4.5,0-10.5c0-5.5,4.5-6.083,4.5-6.083l11.5-1.917L45.947,11.278z M31.609,40.13l-10.5,3.5
			c-1.468,0.416-3.5,0-4.432-1.824c-0.723-1.415-0.036-2.759,1.432-3.176l10-3c2-0.5,3.734,0.27,4.518,1.652
			C33.109,38.13,33.077,39.713,31.609,40.13z M42.445,18.778c-2.761,0-5-0.895-5-2c0-1.105,2.239-2,5-2s5,0.895,5,2
			C47.445,17.883,45.207,18.778,42.445,18.778z"/>
		<linearGradient id="SVGID_8_" gradientUnits="userSpaceOnUse" x1="10.1252" y1="40.4003" x2="17.3068" y2="52.8392">
			<stop  offset="0" style="stop-color:#F5F6F6"/>
			<stop  offset="0.9921" style="stop-color:#BFBEBE"/>
		</linearGradient>
		<polygon style="fill:url(#SVGID_8_);stroke:#797979;stroke-linecap:round;stroke-linejoin:round;stroke-miterlimit:1;" points="
			8.447,43.778 18.447,53.778 18.447,48.53 8.447,39.06 		"/>
		<path style="fill:#797979;" d="M55.115,19.343l0.154,0.125l-10.387,1.731c-0.049,0.007-4.841,0.555-4.841,6.426l-0.023,10.643
			c0,0.017-0.091,1.712-1.795,2.563c-1.812,0.905-17.445,6.132-19.8,6.984l-9.356-9.037c0,0-0.983,0.441-0.974,0.45l9.83,9.547
			c0.096,0.096,0.224,0.146,0.354,0.146c0.057,0,0.114-0.01,0.17-0.029c0.736-0.267,18.221-6.165,20.224-7.167
			C40.921,40.601,41,38.095,41,38l-0.02-10.39c0-4.975,3.868-5.396,4.05-5.421l11.5-1.917c0.194-0.032,0.352-0.176,0.401-0.366
			c0.043-0.163-0.014-0.327-0.124-0.451C56.181,19.412,55.598,19.373,55.115,19.343z"/>
		<path style="fill:none;stroke:#333332;stroke-linecap:round;stroke-linejoin:round;stroke-miterlimit:1;" d="M45.947,11.278
			c0,0-5.5,0.5-11,1.5s-5.5,5.5-5.5,5.5v11c0.114,2.277-1.5,3-1.5,3l-19.5,6.5v5l10,10l22-9c4.178-1.606,3.997-5.5,3.997-5.5
			s0-7,0-11c0-3,1.503-3.5,1.503-3.5l10.5-2v-3L45.947,11.278z"/>
		<linearGradient id="SVGID_9_" gradientUnits="userSpaceOnUse" x1="45.9353" y1="16.3882" x2="42.1055" y2="16.5159">
			<stop  offset="0" style="stop-color:#D7D7D7"/>
			<stop  offset="1" style="stop-color:#969696"/>
		</linearGradient>
		<path style="fill:url(#SVGID_9_);stroke:#797979;stroke-linecap:round;stroke-linejoin:round;stroke-miterlimit:1;" d="
			M42.445,14.778c-2.761,0-5,0.895-5,2c0,0.234,0.119,0.455,0.304,0.664c0.915-0.405,2.225-0.664,3.696-0.664
			c2.177,0,4.01,0.56,4.696,1.336c0.802-0.355,1.304-0.82,1.304-1.336C47.445,15.674,45.207,14.778,42.445,14.778z"/>
		<path style="fill:none;stroke:#333332;stroke-linecap:round;stroke-linejoin:round;stroke-miterlimit:1;" d="M37.753,17.442
			c0.687,0.777,2.52,1.336,4.696,1.336c1.472,0,2.781-0.259,3.696-0.664c-0.687-0.777-2.52-1.336-4.696-1.336
			C39.977,16.778,38.668,17.037,37.753,17.442z"/>
		<g>
			<linearGradient id="SVGID_10_" gradientUnits="userSpaceOnUse" x1="33.2071" y1="39.7126" x2="27.8454" y2="39.2019">
				<stop  offset="0" style="stop-color:#D7D7D7"/>
				<stop  offset="1" style="stop-color:#969696"/>
			</linearGradient>
			<path style="fill:url(#SVGID_10_);stroke:#797979;stroke-linecap:round;stroke-linejoin:round;stroke-miterlimit:1;" d="
				M16.849,42.042c0.26-0.536,0.778-0.955,1.484-1.155l9.697-2.906c1.939-0.485,3.617,0.25,4.374,1.576
				c0.016,0.029,0.027,0.064,0.042,0.094c0.633-0.659,0.568-1.726,0.202-2.371c-0.784-1.382-2.518-2.152-4.518-1.652l-10,3
				c-1.468,0.416-2.155,1.761-1.432,3.176C16.741,41.893,16.799,41.962,16.849,42.042z"/>
			<path style="fill:none;stroke:#333332;stroke-linecap:round;stroke-linejoin:round;stroke-miterlimit:1;" d="M16.848,42.045
				c0.984,1.61,2.882,1.984,4.28,1.587l10.5-3.5c0.352-0.1,0.617-0.27,0.817-0.477c-0.015-0.03-0.026-0.066-0.042-0.094
				c-0.757-1.325-2.435-2.061-4.374-1.576l-9.697,2.906C17.627,41.09,17.109,41.509,16.848,42.045z"/>
		</g>
	</g>
</g>
</svg>
