<svg id="CATIA___SAE_-_Systems_Design" data-name="CATIA _ SAE - Systems Design" xmlns="http://www.w3.org/2000/svg" xmlns:xlink="http://www.w3.org/1999/xlink" viewBox="0 0 64 64"><defs><style>.cls-1{fill:url(#linear-gradient);}.cls-2{fill:#323232;}.cls-3,.cls-5{fill:#545454;}.cls-3{opacity:0.4;}.cls-4{opacity:0.6;}.cls-6{opacity:0.8;fill:url(#linear-gradient-2);}.cls-7{fill:none;stroke:#545454;opacity:0.7;}.cls-10,.cls-11,.cls-12,.cls-7,.cls-9{stroke-miterlimit:10;}.cls-10,.cls-8{stroke:#6d6d6d;}.cls-13,.cls-8{stroke-linecap:round;stroke-linejoin:round;}.cls-8{fill:url(#linear-gradient-3);}.cls-9{stroke:#00415f;fill:url(#linear-gradient-4);}.cls-10{fill:url(#linear-gradient-5);}.cls-11,.cls-12{stroke:#2d2d2d;}.cls-11{fill:url(#linear-gradient-6);}.cls-12{fill:url(#linear-gradient-7);}.cls-13{stroke:#000;}</style><linearGradient id="linear-gradient" x1="8.66" y1="16.76" x2="73.24" y2="60.82" gradientUnits="userSpaceOnUse"><stop offset="0" stop-color="#fff"/><stop offset="1" stop-color="#b3b3b3"/></linearGradient><linearGradient id="linear-gradient-2" x1="-14.05" y1="30.98" x2="-8.26" y2="28.22" gradientTransform="translate(10 28) rotate(-90)" gradientUnits="userSpaceOnUse"><stop offset="0.27" stop-color="#545454" stop-opacity="0.6"/><stop offset="0.86" stop-color="#545454" stop-opacity="0"/></linearGradient><linearGradient id="linear-gradient-3" x1="36.79" y1="32.95" x2="41.98" y2="34.72" gradientUnits="userSpaceOnUse"><stop offset="0" stop-color="#fff"/><stop offset="0.5" stop-color="#c4c4c4"/><stop offset="0.9" stop-color="#575757"/></linearGradient><linearGradient id="linear-gradient-4" x1="44.39" y1="20.34" x2="49.93" y2="24.33" gradientUnits="userSpaceOnUse"><stop offset="0" stop-color="#93d2f0"/><stop offset="0.5" stop-color="#5a9cb5"/><stop offset="0.9" stop-color="#195a72"/></linearGradient><linearGradient id="linear-gradient-5" x1="53.37" y1="19.77" x2="47.66" y2="15.88" gradientUnits="userSpaceOnUse"><stop offset="0.1" stop-color="#575757"/><stop offset="0.5" stop-color="#c4c4c4"/><stop offset="1" stop-color="#fff"/></linearGradient><linearGradient id="linear-gradient-6" x1="107.7" y1="-65.45" x2="115.05" y2="-65.45" gradientTransform="matrix(0.99, 0.01, 0.01, 0.99, -57.08, 78.48)" gradientUnits="userSpaceOnUse"><stop offset="0" stop-color="#505050"/><stop offset="0.9" stop-color="#2d2d2d"/></linearGradient><linearGradient id="linear-gradient-7" x1="109.43" y1="-67.01" x2="115.06" y2="-67.01" xlink:href="#linear-gradient-6"/></defs><title>CATIA _ SAE - Systems Design</title><rect class="cls-1" x="7.5" y="15.5" width="47" height="33" rx="1.5"/><path class="cls-2" d="M53,16a1,1,0,0,1,1,1V47a1,1,0,0,1-1,1H9a1,1,0,0,1-1-1V17a1,1,0,0,1,1-1H53m0-1H9a2,2,0,0,0-2,2V47a2,2,0,0,0,2,2H53a2,2,0,0,0,2-2V17a2,2,0,0,0-2-2Z"/><rect class="cls-3" x="15" y="21" width="8" height="8"/><rect class="cls-3" x="36" y="21" width="8" height="8"/><g class="cls-4"><path class="cls-5" d="M43,22v6H37V22h6m1-1H36v8h8V21Z"/></g><rect class="cls-6" x="36" y="36" width="8" height="8"/><polyline class="cls-7" points="37 36.5 43.5 36.5 43.5 43.5 36.5 43.5 36.5 39.5 29.5 39.5 29.5 24.5 23 24.5"/><g class="cls-4"><path class="cls-5" d="M22,22v6H16V22h6m1-1H15v8h8V21Z"/></g><line class="cls-7" x1="30" y1="24.5" x2="36" y2="24.5"/><polygon class="cls-8" points="38.23 30.22 37.03 36.25 42.51 33.24 38.23 30.22"/><path class="cls-9" d="M42.74,33.05c-.43.58-2,.36-3.12-.48s-1.72-2-1.29-2.56L51,11.45c.55-.75,2.18-.48,3.65.59s2.39,2.77,1.84,3.51Z"/><path class="cls-10" d="M47.5,16.61c-.53.73.22,2.18,1.67,3.25s3.07,1.34,3.6.62l1.85-2.55-5.43-4Z"/><path class="cls-11" d="M49.33,14.23c-.53.73.22,2.18,1.68,3.25s3.06,1.35,3.6.62l1.85-2.55-5.44-4Z"/><path class="cls-12" d="M52.7,14.84c-1.46-1.07-2.21-2.53-1.68-3.25s2.14-.45,3.6.62,2.21,2.52,1.67,3.25S54.15,15.9,52.7,14.84Z"/><path class="cls-13" d="M37.34,34.68a1.13,1.13,0,0,0,.94.89s-1,.81-1.22.68S37.34,34.68,37.34,34.68Z"/></svg>