<svg id="CATIA___J01_SMB_-_Bent_Part_Design" data-name="CATIA _ (J01) SMB - Bent Part Design" xmlns="http://www.w3.org/2000/svg" xmlns:xlink="http://www.w3.org/1999/xlink" viewBox="0 0 64 64"><defs><style>.cls-1{fill:url(#linear-gradient);}.cls-2{fill:#6d6d6d;}.cls-3{fill:url(#linear-gradient-2);}.cls-4{fill:url(#linear-gradient-3);}.cls-5{fill:url(#linear-gradient-4);}.cls-6{fill:url(#linear-gradient-5);}.cls-7{fill:url(#linear-gradient-6);}.cls-8{fill:url(#linear-gradient-7);}.cls-9{fill:url(#linear-gradient-8);}.cls-10{fill:url(#linear-gradient-9);}.cls-11{fill:none;stroke:#2d2d2d;stroke-miterlimit:10;stroke-width:0.7px;}</style><linearGradient id="linear-gradient" x1="62.51" y1="14" x2="11.05" y2="54.16" gradientUnits="userSpaceOnUse"><stop offset="0" stop-color="#fff"/><stop offset="1" stop-color="#a1a1a1"/></linearGradient><linearGradient id="linear-gradient-2" x1="51.31" y1="39.1" x2="29.07" y2="64.35" xlink:href="#linear-gradient"/><linearGradient id="linear-gradient-3" x1="27.21" y1="39.78" x2="40.24" y2="58.98" gradientUnits="userSpaceOnUse"><stop offset="0" stop-color="#8f8f8f"/><stop offset="1" stop-color="#d2d3d4"/></linearGradient><linearGradient id="linear-gradient-4" x1="12.54" y1="45.13" x2="27.89" y2="45.13" xlink:href="#linear-gradient"/><linearGradient id="linear-gradient-5" x1="3.29" y1="29.15" x2="11.64" y2="46.28" xlink:href="#linear-gradient"/><linearGradient id="linear-gradient-6" x1="42.56" y1="14.18" x2="50.62" y2="14.18" gradientUnits="userSpaceOnUse"><stop offset="0" stop-color="#ebebeb"/><stop offset="0.3" stop-color="#b0b0b0"/><stop offset="0.63" stop-color="#757575"/><stop offset="0.87" stop-color="#505050"/><stop offset="1" stop-color="#424242"/></linearGradient><linearGradient id="linear-gradient-7" x1="33.4" y1="43.52" x2="42.85" y2="43.52" gradientUnits="userSpaceOnUse"><stop offset="0" stop-color="#d9d9d9"/><stop offset="0.14" stop-color="#bdbdbd"/><stop offset="0.56" stop-color="#6f6f6f"/><stop offset="0.85" stop-color="#3e3e3e"/><stop offset="1" stop-color="#2b2b2b"/></linearGradient><linearGradient id="linear-gradient-8" x1="13.77" y1="40.09" x2="22.91" y2="40.09" xlink:href="#linear-gradient-7"/><linearGradient id="linear-gradient-9" x1="21.51" y1="53.9" x2="60.68" y2="-12.88" gradientUnits="userSpaceOnUse"><stop offset="0" stop-color="#f0f0f0"/><stop offset="0.14" stop-color="#eee"/><stop offset="0.19" stop-color="#e7e7e7"/><stop offset="0.23" stop-color="#dcdcdc"/><stop offset="0.26" stop-color="#cbcbcb"/><stop offset="0.29" stop-color="#b5b5b5"/><stop offset="0.31" stop-color="#999"/><stop offset="0.33" stop-color="#7a7a7a"/><stop offset="0.33" stop-color="#737373"/><stop offset="0.51" stop-color="#737373"/><stop offset="0.51" stop-color="#878787"/><stop offset="0.53" stop-color="#ababab"/><stop offset="0.55" stop-color="#c7c7c7"/><stop offset="0.57" stop-color="#dbdbdb"/><stop offset="0.58" stop-color="#e7e7e7"/><stop offset="0.6" stop-color="#ebebeb"/></linearGradient></defs><title>CATIA _ (J01) SMB - Bent Part Design</title><path class="cls-1" d="M41.37,39.64a.52.52,0,0,1-.36-.16l-.91-.94a.5.5,0,0,1,.23-.83c1.05-.27,1.34-.65,1.36-.78s0-11.44,0-12.83c0-.84.21-5.07,4.25-6.08,3.36-.84,10-2.52,10-2.52H56a.51.51,0,0,1,.31.11.5.5,0,0,1,.19.4l0,1.59a.5.5,0,0,1-.38.48c-.09,0-8.57,2.12-9.78,2.51-1,.3-2.16.69-2.32,3.78s-.08,12.72-.07,12.82a2.27,2.27,0,0,1-2.05,2,.56.56,0,0,1-.21.33A.52.52,0,0,1,41.37,39.64Z"/><path class="cls-2" d="M56,16h0m0,0,0,1.59S47.4,19.7,46.16,20.1s-2.5,1-2.67,4.23-.07,12.85-.07,12.85-.06,1.55-2.21,1.6l.16.36-.91-.94c1.77-.46,1.73-1.25,1.73-1.25s0-11.46,0-12.85.51-4.76,3.87-5.59S56,16,56,16m0-1h0a.85.85,0,0,0-.23,0l-9.94,2.51c-3.4.84-4.62,3.94-4.62,6.56,0,1.3,0,11.32,0,12.7a2.43,2.43,0,0,1-1,.43,1,1,0,0,0-.47,1.66l.92.94a1,1,0,0,0,1.28.13,1,1,0,0,0,.29-.3,2.69,2.69,0,0,0,2.18-2.44c0-.14-.09-9.69.08-12.83.14-2.75,1.07-3.05,2-3.34s6.8-1.77,9.75-2.49a1,1,0,0,0,.76-1l0-1.52V16a1,1,0,0,0-1-1Zm0,2Z"/><path class="cls-3" d="M36.29,53.08A.54.54,0,0,1,36,53a.51.51,0,0,1-.22-.42v-2a.51.51,0,0,1,.33-.47l12.32-4.52a.51.51,0,0,1,.17,0,.47.47,0,0,1,.3.1.48.48,0,0,1,.2.43L49,48a.49.49,0,0,1-.32.43L36.47,53.05A.57.57,0,0,1,36.29,53.08Z"/><path class="cls-2" d="M48.61,46l-.14,1.89L36.29,52.58v-2L48.61,46m0-1a1,1,0,0,0-.34.06L35.94,49.62a1,1,0,0,0-.65.93v2a1,1,0,0,0,.43.83,1.06,1.06,0,0,0,.57.17,1.13,1.13,0,0,0,.36-.06l12.18-4.67a1,1,0,0,0,.64-.86l.14-1.89a1,1,0,0,0-.4-.87.92.92,0,0,0-.6-.2Zm0,2h0Z"/><path class="cls-4" d="M36.29,53.05a.5.5,0,0,1-.37-.17l-8.26-9a.47.47,0,0,1-.13-.34V41.73a.49.49,0,0,1,.31-.46.58.58,0,0,1,.19,0,.5.5,0,0,1,.36.16l8.27,8.9a.51.51,0,0,1,.13.34v1.92a.5.5,0,0,1-.32.46A.39.39,0,0,1,36.29,53.05Z"/><path class="cls-2" d="M28,41.73l8.26,8.9v1.92l-8.26-9V41.73m0-1a1.16,1.16,0,0,0-.37.07,1,1,0,0,0-.63.93v1.78a1,1,0,0,0,.26.68l8.26,9a1,1,0,0,0,.74.33,1.15,1.15,0,0,0,.36-.07,1,1,0,0,0,.64-.93V50.63A1,1,0,0,0,37,50l-8.26-8.9a1,1,0,0,0-.73-.32Z"/><path class="cls-5" d="M13,48.87a.54.54,0,0,1-.3-.1.5.5,0,0,1-.2-.42l.08-2A.5.5,0,0,1,13,45.9l14.27-4.48a.39.39,0,0,1,.15,0,.53.53,0,0,1,.3.09.54.54,0,0,1,.2.41v1.7a.49.49,0,0,1-.34.47L13.2,48.84A.45.45,0,0,1,13,48.87Z"/><path class="cls-2" d="M27.39,41.9v1.7L13,48.37l.08-2L27.39,41.9m0-1a1,1,0,0,0-.3,0L12.82,45.43a1,1,0,0,0-.7.91l-.08,2a1,1,0,0,0,.4.84,1,1,0,0,0,.6.2,1.06,1.06,0,0,0,.31,0l14.36-4.77a1,1,0,0,0,.68-.95V41.9a1,1,0,0,0-.41-.81,1,1,0,0,0-.59-.19Z"/><path class="cls-6" d="M12.72,48.77a.49.49,0,0,1-.42-.23L7.63,41.3A.5.5,0,0,1,7.55,41l0-1.87a.52.52,0,0,1,.35-.49.39.39,0,0,1,.15,0,.5.5,0,0,1,.42.22l4.72,7.21a.57.57,0,0,1,.08.28v1.9a.49.49,0,0,1-.36.48Z"/><path class="cls-2" d="M8,39.16l4.72,7.21v1.9L8.05,41,8,39.16m0-1a1,1,0,0,0-.3,0,1,1,0,0,0-.7,1l0,1.88a.93.93,0,0,0,.16.51l4.67,7.24a1,1,0,0,0,.84.46.86.86,0,0,0,.28,0,1,1,0,0,0,.72-1v-1.9a1,1,0,0,0-.16-.55L8.84,38.61A1,1,0,0,0,8,38.16Z"/><path class="cls-7" d="M46.72,16.12l-.52,0a9,9,0,0,1-2.92-.58c-1.21-.5-1.43-1.11-1.41-1.54.05-1.2,2-1.73,4-1.73h.53a9.05,9.05,0,0,1,2.92.58c1.2.5,1.43,1.12,1.41,1.55C50.66,15.58,48.67,16.12,46.72,16.12Z"/><path class="cls-2" d="M45.85,12.75h.51c2.16.1,3.89.82,3.85,1.6s-1.55,1.26-3.49,1.26l-.5,0c-2.16-.1-3.89-.81-3.85-1.6s1.55-1.25,3.48-1.25m0-1h0c-2.12,0-4.41.58-4.48,2.2,0,.48.17,1.39,1.71,2a9.31,9.31,0,0,0,3.1.62l.54,0c2.12,0,4.41-.58,4.49-2.21,0-.48-.17-1.38-1.72-2a9.78,9.78,0,0,0-3.09-.62Z"/><path class="cls-8" d="M42.25,45.86a.51.51,0,0,1-.48-.34c-.36-1.08-1.85-1.93-3.54-2h-.34c-1.66,0-3.06.72-3.41,1.74a.51.51,0,0,1-.48.34h0a.51.51,0,0,1-.47-.34,2.42,2.42,0,0,1-.13-.92c.08-1.77,2-3.11,4.49-3.11h.39c2.65.15,4.66,1.74,4.57,3.63a2.4,2.4,0,0,1-.13.69.51.51,0,0,1-.47.34Z"/><path class="cls-2" d="M37.89,41.69h.37c2.33.13,4.17,1.52,4.09,3.1a2.13,2.13,0,0,1-.1.56c-.42-1.26-2-2.26-4-2.37h-.37c-1.89,0-3.47.86-3.88,2.08a2.08,2.08,0,0,1-.11-.74c.07-1.5,1.82-2.63,4-2.63m0-1h0c-2.75,0-4.9,1.54-5,3.59a3,3,0,0,0,.16,1.1,1,1,0,0,0,.94.68h0a1,1,0,0,0,.94-.68c.23-.68,1.34-1.4,2.94-1.4h.31a3.43,3.43,0,0,1,3.1,1.69,1,1,0,0,0,.94.68h0a1,1,0,0,0,.94-.68,2.72,2.72,0,0,0,.16-.84c.1-2.15-2.11-4-5-4.14Z"/><path class="cls-9" d="M14.39,42.35a.5.5,0,0,1-.46-.31,2,2,0,0,1-.15-.59c-.15-1.7,1.72-3.26,4.27-3.57a7.86,7.86,0,0,1,.83-.05c2.19,0,3.88,1.08,4,2.55a2.26,2.26,0,0,1-.11.92.52.52,0,0,1-.46.34h0a.49.49,0,0,1-.46-.31c-.32-.79-1.53-1.33-3-1.33a5.74,5.74,0,0,0-.71,0c-1.6.19-3,1-3.32,2a.49.49,0,0,1-.46.34Z"/><path class="cls-2" d="M18.88,38.33c1.89,0,3.41.86,3.52,2.1a1.72,1.72,0,0,1-.09.71c-.4-1-1.76-1.64-3.41-1.64a5.06,5.06,0,0,0-.77,0c-1.86.22-3.35,1.18-3.74,2.3a1.65,1.65,0,0,1-.11-.45c-.13-1.4,1.58-2.75,3.83-3a6.78,6.78,0,0,1,.77-.05m0-1h0a6.54,6.54,0,0,0-.89.06c-2.82.33-4.89,2.14-4.7,4.1a2.36,2.36,0,0,0,.18.74,1,1,0,0,0,.92.62h0a1,1,0,0,0,.92-.67,3.5,3.5,0,0,1,2.91-1.64,4.63,4.63,0,0,1,.65,0c1.36,0,2.28.51,2.48,1a1,1,0,0,0,.93.63h0a1,1,0,0,0,.92-.68,2.7,2.7,0,0,0,.14-1.12c-.17-1.77-2-3-4.52-3Z"/><path class="cls-10" d="M36.29,50.47a.49.49,0,0,1-.37-.16l-8-8.66L13.53,46.2l-.15,0A.51.51,0,0,1,13,46L8,38.79a.51.51,0,0,1-.06-.45A.49.49,0,0,1,8.25,38l24.37-6.88s.88-.28.88-.95v-13a4.91,4.91,0,0,1,4-4.56c3.61-.83,10-2,10-2h.09a.46.46,0,0,1,.23.05l8,4.08a.53.53,0,0,1,.27.51.49.49,0,0,1-.39.42c-.07,0-7.26,1.69-10.58,2.52C42.4,18.9,42,22,42,23.71v13a.57.57,0,0,1,0,.18c-.07.18-.14.33-1.44.74l8.43,7.44a.49.49,0,0,1,.16.46.48.48,0,0,1-.32.38L36.46,50.44A.47.47,0,0,1,36.29,50.47Zm1.58-9.13c-1.88,0-3.45.84-3.5,1.86a1.39,1.39,0,0,0,.41,1A4.83,4.83,0,0,0,38,45.43h.34c1.87,0,3.44-.84,3.49-1.86a1.81,1.81,0,0,0-.93-1.42,5.44,5.44,0,0,0-2.69-.81ZM18.81,38c-.23,0-.47,0-.72,0A4.82,4.82,0,0,0,15,39.39a1.08,1.08,0,0,0-.28.76c.09.79,1.42,1.4,3,1.4a6,6,0,0,0,.72,0c2.1-.22,3.46-1.29,3.38-2.11S20.43,38,18.81,38Zm27-24.75c-2.06,0-3,.59-3,.77s.13.3.79.58a7.84,7.84,0,0,0,2.59.5l.47,0c2.07,0,3-.59,3-.78s-.13-.3-.79-.57a8.14,8.14,0,0,0-2.59-.51Z"/><path class="cls-2" d="M47.66,11.12l8,4.08s-7.23,1.67-10.59,2.51-3.6,4.6-3.6,6v13s-.06.15-2,.69l9.11,8L36.29,50,28,41.07,13.38,45.72l-5-7.21,24.37-6.88S34,31.27,34,30.2v-13a4.36,4.36,0,0,1,3.64-4.07c3.64-.84,10-2,10-2m-.94,4.5c1.94,0,3.46-.53,3.49-1.26s-1.69-1.5-3.85-1.6h-.51c-1.93,0-3.45.53-3.48,1.25s1.69,1.5,3.85,1.6l.5,0m-29,26.43a6.74,6.74,0,0,0,.77,0c2.24-.24,4-1.43,3.83-2.66s-1.63-1.84-3.53-1.84a6.74,6.74,0,0,0-.77,0c-2.24.23-4,1.42-3.82,2.66.11,1.09,1.62,1.84,3.52,1.84m20.6,3.89c2.17,0,3.92-1,4-2.34s-1.76-2.63-4.1-2.75h-.36c-2.17,0-3.93,1-4,2.34s1.77,2.63,4.1,2.75h.37m9.32-35.82h-.19c-.06,0-6.43,1.22-10,2A5.37,5.37,0,0,0,33,17.23v13c0,.28-.52.47-.52.47L8.12,37.55a1,1,0,0,0-.67.62,1,1,0,0,0,.12.91l5,7.21a1,1,0,0,0,.83.43.79.79,0,0,0,.3,0l14-4.45,7.84,8.43a1,1,0,0,0,.73.32,1,1,0,0,0,.34-.06L49,46.38a1,1,0,0,0,.31-1.69l-7.78-6.87c.66-.26.8-.45.92-.74a.94.94,0,0,0,.07-.37v-13c0-2,.49-4.44,2.84-5,3.32-.82,10.51-2.49,10.58-2.51a1,1,0,0,0,.76-.85,1,1,0,0,0-.53-1l-8-4.08a.88.88,0,0,0-.45-.11Zm-4,3.94a6.48,6.48,0,0,1,2.16-.31h.46a7.34,7.34,0,0,1,2.58.54,6.46,6.46,0,0,1-2.17.32l-.45,0a6.91,6.91,0,0,1-2.58-.54Zm-25.95,27c-1.62,0-2.49-.61-2.53-.95s.21-.51.6-.78a5.26,5.26,0,0,1,2.33-.78l.67,0c1.62,0,2.5.6,2.53,1,0,.2-.21.51-.6.77a5.15,5.15,0,0,1-2.33.79l-.67,0Zm20.6,3.89H38a4.35,4.35,0,0,1-2.87-1.09.89.89,0,0,1-.28-.61c0-.66,1.27-1.39,3-1.39h.31a4.88,4.88,0,0,1,2.44.73c.46.3.73.67.71,1,0,.66-1.27,1.39-3,1.39Z"/><path class="cls-11" d="M49.1,45.54a.47.47,0,0,0-.16-.47l-6.72-5.93a2.2,2.2,0,0,0,1.7-2c0-.09-.1-9.66.07-12.82s1.36-3.47,2.32-3.78c1.21-.39,9.69-2.49,9.78-2.51a.49.49,0,0,0,.38-.48l0-1.59s0-1-.6-1.25-8-4.08-8-4.08a.5.5,0,0,0-.32,0c-.07,0-6.54,1.29-10.15,2.12a4.68,4.68,0,0,0-3.92,4.51v13c0,.69-.76,1-.76,1L8.25,38a1.1,1.1,0,0,0-.75,1.14l0,1.87a.53.53,0,0,0,.08.26l4.68,7.24a.49.49,0,0,0,.42.23h0a.47.47,0,0,0,.3.1l.16,0,14.35-4.77a.67.67,0,0,0,.19-.14l8.09,8.85A.6.6,0,0,0,36,53a.47.47,0,0,0,.28.09.39.39,0,0,0,.18,0l12.18-4.66A.5.5,0,0,0,49,48l.14-1.89Z"/></svg>