<svg id="it_1" data-name="it 1" xmlns="http://www.w3.org/2000/svg" xmlns:xlink="http://www.w3.org/1999/xlink" viewBox="0 0 64 64"><defs><style>.Grey-LIGHT,.White-INSIDE-LINE,.White-RIGHT-\&amp;-FRONT,.cls-22,.cls-3,.cls-4,.cls-6,.cls-7{stroke:#787878;}.De-emphasized-WHITE-for-Vector-Highlights,.Grey-LIGHT,.Grey-MEDIUM,.White-INSIDE-LINE,.White-OUTLINE,.White-RIGHT-\&amp;-FRONT,.cls-10,.cls-11,.cls-12,.cls-13,.cls-14,.cls-15,.cls-16,.cls-17,.cls-18,.cls-19,.cls-20,.cls-22,.cls-23,.cls-24,.cls-25,.cls-26,.cls-3,.cls-4,.cls-6,.cls-7,.cls-8,.cls-9{stroke-linejoin:round;}.Grey-LIGHT{fill:url(#linear-gradient);}.White-INSIDE-LINE,.White-OUTLINE,.cls-14{fill:none;}.White-RIGHT-\&amp;-FRONT{fill:url(#linear-gradient-2);}.Grey-MEDIUM,.White-OUTLINE,.cls-26{stroke:#323232;}.Grey-MEDIUM{fill:url(#linear-gradient-3);}.De-emphasized-WHITE-for-Vector-Highlights,.cls-1{opacity:0.5;}.cls-1{fill:url(#Dégradé_sans_nom_9);}.cls-2{fill:url(#linear-gradient-6);}.cls-3{fill:url(#linear-gradient-10);}.cls-4{fill:url(#linear-gradient-11);}.cls-5{fill:url(#linear-gradient-12);}.cls-6{fill:url(#linear-gradient-16);}.cls-7{fill:url(#linear-gradient-17);}.cls-10,.cls-11,.cls-12,.cls-13,.cls-14,.cls-15,.cls-16,.cls-17,.cls-18,.cls-19,.cls-20,.cls-23,.cls-24,.cls-25,.cls-8,.cls-9{stroke:#003755;}.cls-10,.cls-11,.cls-12,.cls-13,.cls-15,.cls-16,.cls-17,.cls-18,.cls-19,.cls-20,.cls-23,.cls-24,.cls-25,.cls-8,.cls-9{opacity:0.6;}.cls-8{fill:url(#linear-gradient-18);}.cls-9{fill:url(#linear-gradient-19);}.cls-10{fill:url(#linear-gradient-20);}.cls-11{fill:url(#linear-gradient-21);}.cls-12{fill:url(#linear-gradient-22);}.cls-13{fill:url(#linear-gradient-23);}.cls-15{fill:url(#linear-gradient-24);}.cls-16{fill:url(#linear-gradient-25);}.cls-17{fill:url(#linear-gradient-26);}.cls-18{fill:url(#linear-gradient-27);}.cls-19{fill:url(#linear-gradient-28);}.cls-20{fill:url(#linear-gradient-29);}.cls-21{fill:url(#linear-gradient-30);}.cls-22{fill:url(#linear-gradient-33);}.cls-23{fill:url(#linear-gradient-34);}.cls-24{fill:url(#linear-gradient-35);}.cls-25{fill:url(#linear-gradient-36);}.De-emphasized-WHITE-for-Vector-Highlights{fill:#fff;stroke:#fff;stroke-width:3px;}.cls-26{fill:url(#linear-gradient-37);}.cls-27{fill:url(#linear-gradient-38);}</style><linearGradient id="linear-gradient" x1="21.69" y1="18.56" x2="43.11" y2="55.65" gradientUnits="userSpaceOnUse"><stop offset="0" stop-color="#d7d7d7"/><stop offset="1" stop-color="#969696"/></linearGradient><linearGradient id="linear-gradient-2" x1="22.66" y1="18.16" x2="43.39" y2="54.07" gradientUnits="userSpaceOnUse"><stop offset="0" stop-color="#fff"/><stop offset="1" stop-color="#d2d2d2"/></linearGradient><linearGradient id="linear-gradient-3" x1="33.86" y1="35.11" x2="40.83" y2="47.18" gradientUnits="userSpaceOnUse"><stop offset="0" stop-color="#aaa"/><stop offset="1" stop-color="#5a5a5a"/></linearGradient><linearGradient id="Dégradé_sans_nom_9" x1="28.15" y1="42.5" x2="41.85" y2="42.5" gradientTransform="translate(13.7 -8.27) rotate(16.71)" gradientUnits="userSpaceOnUse"><stop offset="0.01" stop-color="#fff" stop-opacity="0"/><stop offset="0.44" stop-color="#fff"/><stop offset="1" stop-color="#fff" stop-opacity="0"/></linearGradient><linearGradient id="linear-gradient-6" x1="29.67" y1="7.28" x2="36.42" y2="18.98" xlink:href="#linear-gradient-3"/><linearGradient id="linear-gradient-10" x1="41.8" y1="14.02" x2="42.6" y2="15.41" xlink:href="#linear-gradient"/><linearGradient id="linear-gradient-11" x1="24.41" y1="11.21" x2="25.19" y2="12.56" gradientTransform="matrix(-1, 0, 0, 1, 48.33, 0)" xlink:href="#linear-gradient"/><linearGradient id="linear-gradient-12" x1="29.61" y1="12.49" x2="36.46" y2="24.35" xlink:href="#linear-gradient-3"/><linearGradient id="linear-gradient-16" x1="41.8" y1="19.41" x2="42.6" y2="20.8" xlink:href="#linear-gradient"/><linearGradient id="linear-gradient-17" x1="24.41" y1="16.44" x2="25.19" y2="17.78" gradientTransform="matrix(-1, 0, 0, 1, 48.33, 0)" xlink:href="#linear-gradient"/><linearGradient id="linear-gradient-18" x1="13.03" y1="8.11" x2="18.97" y2="18.39" gradientUnits="userSpaceOnUse"><stop offset="0" stop-color="#82bedc"/><stop offset="1" stop-color="#285a78"/></linearGradient><linearGradient id="linear-gradient-19" x1="19.94" y1="7.83" x2="27.5" y2="20.92" gradientUnits="userSpaceOnUse"><stop offset="0" stop-color="#a0e1fa"/><stop offset="1" stop-color="#73c3e1"/></linearGradient><linearGradient id="linear-gradient-20" x1="16.58" y1="16.06" x2="21.42" y2="24.44" gradientUnits="userSpaceOnUse"><stop offset="0" stop-color="#8cd7f5"/><stop offset="1" stop-color="#376e8c"/></linearGradient><linearGradient id="linear-gradient-21" x1="16.8" y1="5.94" x2="21.2" y2="13.56" xlink:href="#linear-gradient-19"/><linearGradient id="linear-gradient-22" x1="10.45" y1="9.6" x2="17.98" y2="22.65" xlink:href="#linear-gradient-18"/><linearGradient id="linear-gradient-23" x1="18.3" y1="11.46" x2="24.7" y2="22.54" xlink:href="#linear-gradient-20"/><linearGradient id="linear-gradient-24" x1="33.99" y1="11.06" x2="43.8" y2="28.06" xlink:href="#linear-gradient-18"/><linearGradient id="linear-gradient-25" x1="45.49" y1="9.58" x2="58.16" y2="31.54" xlink:href="#linear-gradient-18"/><linearGradient id="linear-gradient-26" x1="40.44" y1="25.34" x2="47.56" y2="37.66" xlink:href="#linear-gradient-20"/><linearGradient id="linear-gradient-27" x1="30.27" y1="13.21" x2="43.6" y2="36.29" xlink:href="#linear-gradient-18"/><linearGradient id="linear-gradient-28" x1="43.66" y1="16.25" x2="53.91" y2="34" xlink:href="#linear-gradient-20"/><linearGradient id="linear-gradient-29" x1="40.66" y1="7.21" x2="47.34" y2="18.79" xlink:href="#linear-gradient-19"/><linearGradient id="linear-gradient-30" x1="6.29" y1="17.66" x2="17.37" y2="36.86" xlink:href="#linear-gradient-3"/><linearGradient id="linear-gradient-33" x1="11.67" y1="38.21" x2="12.47" y2="39.6" xlink:href="#linear-gradient"/><linearGradient id="linear-gradient-34" x1="10.27" y1="35.24" x2="14.54" y2="42.63" xlink:href="#linear-gradient-18"/><linearGradient id="linear-gradient-35" x1="12.53" y1="33.94" x2="24.69" y2="55" xlink:href="#linear-gradient-20"/><linearGradient id="linear-gradient-36" x1="21.64" y1="45.91" x2="26.34" y2="54.05" xlink:href="#linear-gradient-20"/><linearGradient id="linear-gradient-37" x1="36.11" y1="31.84" x2="51.89" y2="59.16" gradientUnits="userSpaceOnUse"><stop offset="0" stop-color="#fff"/><stop offset="1" stop-color="#d4d5d3"/></linearGradient><linearGradient id="linear-gradient-38" x1="34" y1="45.5" x2="54" y2="45.5" gradientUnits="userSpaceOnUse"><stop offset="0" stop-color="#464646"/><stop offset="1" stop-color="#141414"/></linearGradient></defs><path class="Grey-LIGHT" d="M56.5,46.5C36.31,32.05,13.19,23.63,13.19,23.63l-2,1s4.12,23,17.19,32.93L55.5,48.5Z"/><line class="White-INSIDE-LINE" x1="29" y1="56" x2="28.38" y2="57.56"/><path class="White-RIGHT-&amp;-FRONT" d="M38.25,19.31A45.11,45.11,0,0,0,56.5,46.5L29,56C19,46.08,14.88,33,13.19,23.63Z"/><path class="White-OUTLINE" d="M38.25,19.31,13.19,23.63l-2,1s4.12,23,17.19,32.93L55.5,48.5l1-2A45.11,45.11,0,0,1,38.25,19.31Z"/><path class="Grey-MEDIUM" d="M24.29,43.65l14.36-4.53a2.64,2.64,0,0,0,1.85-2.53V31.27l8,.62v4.7a10.62,10.62,0,0,1-7.44,10.16L26.7,51.28Z"/><ellipse class="Grey-MEDIUM" cx="44.5" cy="31.6" rx="2" ry="4" transform="translate(9.34 73.33) rotate(-85.26)"/><ellipse class="Grey-MEDIUM" cx="25.49" cy="47.47" rx="2" ry="4" transform="translate(-13.11 9.88) rotate(-17.53)"/><rect class="cls-1" x="28" y="42" width="14" height="1" transform="translate(-10.74 11.86) rotate(-16.71)"/><path class="cls-2" d="M41.91,15.64l-7.49-3.91a4.36,4.36,0,0,0-2.82-.41l-7.9,1.59-.4-2,7.91-1.59a6.4,6.4,0,0,1,4.13.59l7.5,3.91Z"/><path class="cls-2" d="M42.48,13.8a.61.61,0,0,1,.65.66,1.26,1.26,0,0,1-1.22,1.18.61.61,0,0,1-.64-.67A1.22,1.22,0,0,1,42.48,13.8Z"/><path class="cls-2" d="M23.37,11c-.07,0-.37,0-.37.67s.39,1.2.7,1.2.36-.23.36-.68C24.06,11.45,23.69,11,23.37,11Z"/><path class="Grey-LIGHT" d="M41.91,15.64l-7.49-3.91a4.36,4.36,0,0,0-2.82-.41l-7.9,1.59-.4-2,7.91-1.59a6.4,6.4,0,0,1,4.13.59l7.5,3.91Z"/><path class="cls-3" d="M42.48,13.8a.61.61,0,0,1,.65.66,1.26,1.26,0,0,1-1.22,1.18.61.61,0,0,1-.64-.67A1.22,1.22,0,0,1,42.48,13.8Z"/><path class="cls-4" d="M23.37,11c-.07,0-.37,0-.37.67s.39,1.2.7,1.2.36-.23.36-.68C24.06,11.45,23.69,11,23.37,11Z"/><path class="White-OUTLINE" d="M41.91,15.64l-7.49-3.91a4.36,4.36,0,0,0-2.82-.41l-7.9,1.59-.4-2,7.91-1.59a6.4,6.4,0,0,1,4.13.59l7.5,3.91Z"/><path class="White-OUTLINE" d="M42.48,13.8a.61.61,0,0,1,.65.66,1.26,1.26,0,0,1-1.22,1.18.61.61,0,0,1-.64-.67A1.22,1.22,0,0,1,42.48,13.8Z"/><path class="White-OUTLINE" d="M23.37,11c-.07,0-.37,0-.37.67s.39,1.2.7,1.2.36-.23.36-.68C24.06,11.45,23.69,11,23.37,11Z"/><path class="cls-5" d="M41.88,21l-7.5-4.31a4.34,4.34,0,0,0-2.78-.38L23.72,18.1l-.44-2,7.91-1.77a6.45,6.45,0,0,1,4.15.59l7.53,4.33Z"/><path class="cls-5" d="M42.48,19.19a.62.62,0,0,1,.65.67A1.26,1.26,0,0,1,41.91,21a.6.6,0,0,1-.64-.66A1.23,1.23,0,0,1,42.48,19.19Z"/><path class="cls-5" d="M23.37,16.18c-.07,0-.37,0-.37.67s.39,1.2.7,1.2.36-.23.36-.68C24.06,16.68,23.69,16.18,23.37,16.18Z"/><path class="Grey-LIGHT" d="M41.88,21l-7.5-4.31a4.34,4.34,0,0,0-2.78-.38L23.72,18.1l-.44-2,7.91-1.77a6.45,6.45,0,0,1,4.15.59l7.53,4.33Z"/><path class="cls-6" d="M42.48,19.19a.62.62,0,0,1,.65.67A1.26,1.26,0,0,1,41.91,21a.6.6,0,0,1-.64-.66A1.23,1.23,0,0,1,42.48,19.19Z"/><path class="cls-7" d="M23.37,16.18c-.07,0-.37,0-.37.67s.39,1.2.7,1.2.36-.23.36-.68C24.06,16.68,23.69,16.18,23.37,16.18Z"/><path class="White-OUTLINE" d="M41.88,21l-7.5-4.31a4.34,4.34,0,0,0-2.78-.38L23.72,18.1l-.44-2,7.91-1.77a6.45,6.45,0,0,1,4.15.59l7.53,4.33Z"/><path class="White-OUTLINE" d="M42.48,19.19a.62.62,0,0,1,.65.67A1.26,1.26,0,0,1,41.91,21a.6.6,0,0,1-.64-.66A1.23,1.23,0,0,1,42.48,19.19Z"/><path class="White-OUTLINE" d="M23.37,16.18c-.07,0-.37,0-.37.67s.39,1.2.7,1.2.36-.23.36-.68C24.06,16.68,23.69,16.18,23.37,16.18Z"/><polygon class="cls-8" points="11.5 9 20.5 7.5 20.5 17.5 11.5 19 11.5 9"/><polygon class="cls-9" points="20.5 7.5 26.5 10.5 26.5 21.5 20.5 17.5 20.5 7.5"/><polygon class="cls-10" points="26.5 21.5 20.5 17.5 11.5 19 16.5 23.5 26.5 21.5"/><polygon class="cls-11" points="20.5 7.5 11.5 9 16.5 12.5 26.5 10.5 20.5 7.5"/><polygon class="cls-12" points="11.5 9 11.5 19 16.5 23.5 16.5 12.5 11.5 9"/><polygon class="cls-13" points="26.5 10.5 16.5 12.5 16.5 23.5 26.5 21.5 26.5 10.5"/><polygon class="cls-14" points="20.5 7.5 11.5 9 11.5 19 16.5 23.5 26.5 21.5 26.5 10.5 20.5 7.5"/><polygon class="cls-15" points="46.5 9 46.5 26.5 31.5 30.5 31.5 12.5 46.5 9"/><polygon class="cls-16" points="56.5 13.5 46.5 9 46.5 26.5 56.5 32.5 56.5 13.5"/><polygon class="cls-17" points="31.5 30.5 46.5 26.5 56.5 32.5 41.5 37.5 31.5 30.5"/><polygon class="cls-18" points="31.5 12.5 41.5 17.5 41.5 37.5 31.5 30.5 31.5 12.5"/><polygon class="cls-19" points="56.5 13.5 41.5 17.5 41.5 37.5 56.5 32.5 56.5 13.5"/><polygon class="cls-20" points="46.5 9 31.5 12.5 41.5 17.5 56.5 13.5 46.5 9"/><polygon class="cls-14" points="46.5 9 31.5 12.5 31.5 30.5 41.5 37.5 56.5 32.5 56.5 13.5 46.5 9"/><path class="cls-21" d="M12,39.83a1,1,0,0,1-.72-.3L7.68,35.87A4,4,0,0,1,6.5,33V19.85a4,4,0,0,1,3.17-3.92l3.66-.77a1,1,0,1,1,.41,2l-3.65.77a2,2,0,0,0-1.59,2V33a2,2,0,0,0,.6,1.43l3.58,3.68A1,1,0,0,1,12,39.83Z"/><path class="cls-21" d="M12.35,38a.61.61,0,0,1,.65.67,1.26,1.26,0,0,1-1.22,1.17.6.6,0,0,1-.63-.66A1.23,1.23,0,0,1,12.35,38Z"/><path class="Grey-LIGHT" d="M12,39.83a1,1,0,0,1-.72-.3L7.68,35.87A4,4,0,0,1,6.5,33V19.85a4,4,0,0,1,3.17-3.92l3.66-.77a1,1,0,1,1,.41,2l-3.65.77a2,2,0,0,0-1.59,2V33a2,2,0,0,0,.6,1.43l3.58,3.68A1,1,0,0,1,12,39.83Z"/><path class="cls-22" d="M12.35,38a.61.61,0,0,1,.65.67,1.26,1.26,0,0,1-1.22,1.17.6.6,0,0,1-.63-.66A1.23,1.23,0,0,1,12.35,38Z"/><path class="White-OUTLINE" d="M12,39.83a1,1,0,0,1-.72-.3L7.68,35.87A4,4,0,0,1,6.5,33V19.85a4,4,0,0,1,3.17-3.92l3.66-.77a1,1,0,1,1,.41,2l-3.65.77a2,2,0,0,0-1.59,2V33a2,2,0,0,0,.6,1.43l3.58,3.68A1,1,0,0,1,12,39.83Z"/><path class="White-OUTLINE" d="M12.35,38a.61.61,0,0,1,.65.67,1.26,1.26,0,0,1-1.22,1.17.6.6,0,0,1-.63-.66A1.23,1.23,0,0,1,12.35,38Z"/><path class="cls-23" d="M12.42,34.27c2.7-.7,4.92.44,4.92,3.31a6.53,6.53,0,0,1-4.92,6C9.71,44.4,7.5,43.2,7.5,40.3A6.46,6.46,0,0,1,12.42,34.27Z"/><path class="cls-24" d="M28.32,45.39h0L16.26,34.86l0,0a4.12,4.12,0,0,0-3.82-.61,6.46,6.46,0,0,0-4.92,6,3.64,3.64,0,0,0,.92,2.6h0L19.49,54.45h0A3.66,3.66,0,0,0,22.2,55.5c3.26,0,7.3-3.24,7.3-7.23A3.67,3.67,0,0,0,28.32,45.39Z"/><path class="cls-25" d="M25.72,44.5a3.53,3.53,0,0,1,3.78,3.77c0,4-4,7.23-7.3,7.23a3.52,3.52,0,0,1-3.7-3.81C18.5,47.84,22.29,44.5,25.72,44.5Z"/><path class="cls-14" d="M22.22,55.57c3.33,0,7.31-3.65,7.31-7.15a4.39,4.39,0,0,0-1.21-3h0L16.26,34.86l0,0a3.55,3.55,0,0,0-2.39-.83c-2.86,0-6.3,2.62-6.3,6a5.47,5.47,0,0,0,.87,2.89h0L19.49,54.45h0A3.68,3.68,0,0,0,22.22,55.57Z"/><rect class="De-emphasized-WHITE-for-Vector-Highlights" x="31.5" y="34.5" width="25" height="22"/><rect class="cls-26" x="31.5" y="34.5" width="25" height="22"/><polygon class="cls-27" points="54 44 54 39 47 39 47 41 44 41 43 41 41 41 41 39 34 39 34 44 41 44 41 42 43 42 43 49 43 50 44 50 47 50 47 52 54 52 54 47 47 47 47 49 44 49 44 42 47 42 47 44 54 44"/></svg>