<svg id="_64_1X_copy" data-name="64   1X copy" xmlns="http://www.w3.org/2000/svg" xmlns:xlink="http://www.w3.org/1999/xlink" viewBox="0 0 64 64"><defs><style>.cls-1,.cls-13,.cls-2,.cls-7{fill:none;}.cls-10,.cls-12,.cls-2,.cls-3,.cls-5,.cls-6,.cls-7,.cls-8,.cls-9{stroke:#000;}.cls-2{stroke-miterlimit:2;stroke-width:0.99px;}.cls-3{fill:#aaa5b4;}.cls-10,.cls-12,.cls-13,.cls-3,.cls-4,.cls-5,.cls-6,.cls-7,.cls-8,.cls-9{stroke-linejoin:round;}.cls-10,.cls-3,.cls-4,.cls-5,.cls-6,.cls-8,.cls-9{stroke-width:0.24px;}.cls-4,.cls-9{fill:#797979;}.cls-4{stroke:#231f20;}.cls-5{fill:#323232;}.cls-6{fill:#96abaa;}.cls-12,.cls-13,.cls-7{stroke-linecap:round;}.cls-7{stroke-width:0.57px;}.cls-8{fill:#f1f0f0;}.cls-10,.cls-12{fill:#fff;}.cls-11{clip-path:url(#clip-path);}.cls-12{stroke-width:0.25px;}.cls-13{stroke:#fff;stroke-width:0.71px;}</style><clipPath id="clip-path"><polygon class="cls-1" points="44.95 33.96 39.15 28.16 39.15 22.46 44.95 22.47 44.95 33.96"/></clipPath></defs><title>ddd__A33AAe__R21XArtboard 1</title><g id="sujet_copy" data-name="sujet copy"><path id="Contour_" data-name="Contour  *" class="cls-2" d="M57.72,43.13l-8.52-4.8-1.85-1.88,9-3.4V31.88l-3.8-2.17V21.87l2.76-1.11v-1l-6.5-3.5-17,6.36L20.62,19,11.89,12.9,5.6,15.23v.93l3.32,2.26v3.4l8.89,6.12L9,31.23H9v1.15l2.61,1.95v5.23l-3.2,1.26h0V42l7.91,6.33h0L35,41.16,45.79,47,54,52.31l.93-.43v-6.5l2.76-1.2Z"/><g id="Layer_29_copy" data-name="Layer 29 copy"><polygon class="cls-3" points="16.29 48.18 8.47 41.92 8.47 40.9 16.29 47.16 16.29 48.18"/><polygon class="cls-4" points="56.19 32.97 16.29 48.18 16.29 47.16 56.19 31.93 56.19 32.97"/></g><path class="cls-5" d="M17.36,20.33c-2.38-1.66-5.28-3.9-8.32-6v7.5s8.29,5.72,8.32,5.72Z"/><path class="cls-5" d="M31.83,25.65c-1.1-.55-11.11-4.39-14.47-5.33V27.5s5.65,3.47,9.88,6l.7-.27c.18.13,3.89,3,3.89,3Z"/><path id="pl" class="cls-6" d="M8.47,40.9c9.17-3.62,28.66-11.1,37.82-14.62l9.89,5.65L16.29,47.16Z"/><path id="av" class="cls-5" d="M52.42,29.82C41.13,34.11,18.2,42.14,12.8,44.32c0,0,0-8.18,0-10.26,3.13-1.34,37.33-14,39.62-14.64Z"/><g id="Layer_28_copy" data-name="Layer 28 copy"><polyline class="cls-7" points="9.04 18.73 14.73 22.38 24.48 25.95"/><path class="cls-8" d="M14.62,21.31l5.88-2.26-8.64-6L5.72,15.3s7,4.79,8.9,6"/><polygon class="cls-8" points="31.89 22.82 20.5 19.05 14.62 21.31 25.52 25.21 31.89 22.82"/><polygon class="cls-6" points="24.33 25.67 14.62 22.16 14.62 21.31 25.53 25.21 24.33 25.67"/><polygon class="cls-4" points="14.62 22.16 5.72 16.12 5.72 15.3 14.62 21.31 14.62 22.16"/></g><g id="Layer_27_copy" data-name="Layer 27 copy"><polyline class="cls-7" points="12.97 35.63 14.93 37.03 27.41 32.07"/><polygon class="cls-9" points="55.14 20.7 14.93 36.79 14.93 35.61 55.14 19.85 55.14 20.7"/><polygon class="cls-3" points="14.93 36.74 9.06 32.31 9.06 31.34 14.93 35.61 14.93 36.74"/><polygon class="cls-10" points="12.79 44.31 12.81 35.15 14.93 36.76 14.93 35.61 9.06 31.32 9.06 32.28 11.71 34.28 11.71 43.49 8.47 40.88 8.47 41.92 16.29 48.18 16.29 47.16 12.79 44.31"/><polygon class="cls-8" points="48.78 16.46 9.06 31.34 14.93 35.61 55.14 19.85 48.78 16.46"/></g><polyline class="cls-7" points="44.36 32.53 44.36 25.21 52.53 22.06"/><g id="Layer_26_copy" data-name="Layer 26 copy"><path class="cls-5" d="M54,44.76l-8.1-5.22v7.34h0c1.45.91,8.1,5.38,8.1,5.38Z"/><polygon class="cls-5" points="31.83 29.99 31.08 30.3 31.08 37.56 35.08 40.02 35.08 41.09 45.92 46.88 45.92 39.54 34.39 27.98 31.84 28.94 31.83 29.99"/><polyline class="cls-7" points="30.45 30.9 31.66 30.33 43.02 41.79 51.02 47.37 53.84 46.13"/><line class="cls-7" x1="31" y1="30.55" x2="31" y2="37.47"/><polygon id="bord" class="cls-9" points="51.02 47.01 43.29 41.59 43.29 40.49 51.02 45.98 51.02 47.01"/><polygon id="bord-2" data-name="bord" class="cls-9" points="43.29 41.59 31.83 30.16 31.83 28.98 43.29 40.49 43.29 41.59"/><polygon id="T" class="cls-8" points="57.6 44.09 54.83 45.34 54.84 51.79 54.03 52.16 54.03 45.73 51.02 47.01 51.02 45.98 57.6 43.2 57.6 44.09"/><polygon id="dessus" class="cls-8" points="57.6 43.2 49.13 38.44 43.29 40.49 51.02 45.98 57.6 43.2"/><polygon id="dessus-2" data-name="dessus" class="cls-8" points="37.51 26.75 31.83 28.98 43.29 40.49 49.15 38.44 37.51 26.75"/></g><g id="raidisseur_2_" data-name="raidisseur 2**"><g class="cls-11"><g id="raidisseur_2_2" data-name="raidisseur 2 *"><polygon class="cls-9" points="39.39 26.98 39.39 34.63 42.38 37.18 42.38 25.79 41.68 25.11 41.68 26.06 39.39 26.98"/><polygon class="cls-8" points="44.09 36.51 44.11 25.15 42.38 25.79 42.38 37.22 44.09 36.51"/><polygon class="cls-12" points="41.68 25.11 42.38 25.79 44.11 25.15 43.43 24.47 41.68 25.11"/></g></g></g><g id="raidisseur_1_" data-name="raidisseur   1 **"><polygon class="cls-8" points="28.3 31.41 30.22 30.66 30.22 41.86 28.3 42.59 28.3 31.41"/><polygon class="cls-9" points="26 32.34 26 39.54 28.3 42.59 28.3 31.41 27.55 30.66 27.55 31.71 26 32.34"/><polygon class="cls-12" points="27.55 30.66 28.3 31.41 30.22 30.66 29.47 29.9 27.55 30.66"/></g><polyline class="cls-7" points="47.69 36.64 38.69 27.48 41.52 26.29"/><g id="reflet_copy" data-name="reflet copy"><polyline class="cls-13" points="10.11 31.48 48.75 17.01 53.84 19.73"/><polyline class="cls-13" points="16.25 21.23 20.5 19.64 30.3 22.83"/><polyline class="cls-13" points="6.84 15.41 11.8 13.59 19.17 18.73"/><polyline class="cls-13" points="32.92 29.09 37.4 27.41 48.22 38.25"/><polyline class="cls-13" points="56.19 43.02 49.15 39.18 44.95 40.49"/></g></g></svg>