<svg id="Layer_5" data-name="Layer 5" xmlns="http://www.w3.org/2000/svg" xmlns:xlink="http://www.w3.org/1999/xlink" viewBox="0 0 64 64"><defs><linearGradient id="linear-gradient" x1="30.73" y1="28.62" x2="27.58" y2="23.17" gradientUnits="userSpaceOnUse"><stop offset="0" stop-color="#74c4e2"/><stop offset="1" stop-color="#a4def6"/></linearGradient><linearGradient id="linear-gradient-2" x1="34.79" y1="36.67" x2="30.79" y2="29.74" gradientUnits="userSpaceOnUse"><stop offset="0" stop-color="#386f8d"/><stop offset="1" stop-color="#8dd7f4"/></linearGradient><linearGradient id="linear-gradient-3" x1="27.3" y1="41.25" x2="19.97" y2="28.56" gradientUnits="userSpaceOnUse"><stop offset="0" stop-color="#2a5b79"/><stop offset="1" stop-color="#84bedc"/></linearGradient></defs><title>CATSPU_AP_AppIcon</title><g style="isolation:isolate"><polygon points="31.02 20.19 19.57 26.84 27.02 31.14 38.47 24.49 31.02 20.19" stroke="#053755" stroke-linecap="round" stroke-linejoin="round" fill="url(#linear-gradient)"/><polygon points="27.02 31.14 26.99 41.74 38.44 35.09 38.47 24.49 27.02 31.14" stroke="#053755" stroke-linecap="round" stroke-linejoin="round" fill="url(#linear-gradient-2)"/><polygon points="19.57 26.84 19.54 37.44 26.99 41.74 27.02 31.14 19.57 26.84" stroke="#053755" stroke-linecap="round" stroke-linejoin="round" fill="url(#linear-gradient-3)"/></g><g style="isolation:isolate"><polygon points="40.87 25.87 29.42 32.53 36.86 36.82 48.31 30.17 40.87 25.87" stroke="#053755" stroke-linecap="round" stroke-linejoin="round" fill="url(#linear-gradient)"/><polygon points="36.86 36.82 36.83 47.42 48.28 40.77 48.31 30.17 36.86 36.82" stroke="#053755" stroke-linecap="round" stroke-linejoin="round" fill="url(#linear-gradient-2)"/><polygon points="29.42 32.53 29.39 43.12 36.83 47.42 36.86 36.82 29.42 32.53" stroke="#053755" stroke-linecap="round" stroke-linejoin="round" fill="url(#linear-gradient-3)"/></g><g style="isolation:isolate"><polygon points="50.7 31.55 39.26 38.21 46.71 42.51 58.16 35.85 50.7 31.55" stroke="#053755" stroke-linecap="round" stroke-linejoin="round" fill="url(#linear-gradient)"/><polygon points="46.71 42.51 46.68 53.1 58.13 46.45 58.16 35.85 46.71 42.51" stroke="#053755" stroke-linecap="round" stroke-linejoin="round" fill="url(#linear-gradient-2)"/><polygon points="39.26 38.21 39.23 48.8 46.68 53.1 46.71 42.51 39.26 38.21" stroke="#053755" stroke-linecap="round" stroke-linejoin="round" fill="url(#linear-gradient-3)"/></g><g style="isolation:isolate"><polygon points="17.99 27.76 6.53 34.42 13.98 38.72 25.44 32.06 17.99 27.76" stroke="#053755" stroke-linecap="round" stroke-linejoin="round" fill="url(#linear-gradient)"/><polygon points="13.98 38.72 13.95 49.32 25.41 42.66 25.44 32.06 13.98 38.72" stroke="#053755" stroke-linecap="round" stroke-linejoin="round" fill="url(#linear-gradient-2)"/><polygon points="6.53 34.42 6.5 45.02 13.95 49.32 13.98 38.72 6.53 34.42" stroke="#053755" stroke-linecap="round" stroke-linejoin="round" fill="url(#linear-gradient-3)"/></g><g style="isolation:isolate"><polygon points="27.83 33.45 16.38 40.1 23.82 44.4 35.27 37.75 27.83 33.45" stroke="#053755" stroke-linecap="round" stroke-linejoin="round" fill="url(#linear-gradient)"/><polygon points="23.82 44.4 23.79 55 35.24 48.34 35.27 37.75 23.82 44.4" stroke="#053755" stroke-linecap="round" stroke-linejoin="round" fill="url(#linear-gradient-2)"/><polygon points="16.38 40.1 16.34 50.7 23.79 55 23.82 44.4 16.38 40.1" stroke="#053755" stroke-linecap="round" stroke-linejoin="round" fill="url(#linear-gradient-3)"/></g><g style="isolation:isolate"><polygon points="31.02 7.57 19.57 14.22 27.02 18.52 38.47 11.86 31.02 7.57" stroke="#053755" stroke-linecap="round" stroke-linejoin="round" fill="url(#linear-gradient)"/><polygon points="27.02 18.52 26.99 29.11 38.44 22.46 38.47 11.86 27.02 18.52" stroke="#053755" stroke-linecap="round" stroke-linejoin="round" fill="url(#linear-gradient-2)"/><polygon points="19.57 14.22 19.54 24.82 26.99 29.11 27.02 18.52 19.57 14.22" stroke="#053755" stroke-linecap="round" stroke-linejoin="round" fill="url(#linear-gradient-3)"/></g><g style="isolation:isolate"><polygon points="40.86 13.25 29.41 19.9 36.86 24.2 48.31 17.55 40.86 13.25" stroke="#053755" stroke-linecap="round" stroke-linejoin="round" fill="url(#linear-gradient)"/><polygon points="36.86 24.2 36.83 34.8 48.28 28.14 48.31 17.55 36.86 24.2" stroke="#053755" stroke-linecap="round" stroke-linejoin="round" fill="url(#linear-gradient-2)"/><polygon points="29.41 19.9 29.38 30.5 36.83 34.8 36.86 24.2 29.41 19.9" stroke="#053755" stroke-linecap="round" stroke-linejoin="round" fill="url(#linear-gradient-3)"/></g></svg>