<svg id="VERSION_1X_copy" data-name="VERSION 1X copy" xmlns="http://www.w3.org/2000/svg" xmlns:xlink="http://www.w3.org/1999/xlink" viewBox="0 0 64 64"><defs><style>.cls-1{fill:#797979;}.cls-17,.cls-2{fill:#285977;}.cls-3{fill:url(#Medium_BLUE_gradient_FRONT);}.cls-11,.cls-12,.cls-15,.cls-17,.cls-18,.cls-4,.cls-5,.cls-6,.cls-7,.cls-8{stroke:#285977;}.cls-10,.cls-11,.cls-12,.cls-15,.cls-17,.cls-18,.cls-4,.cls-5,.cls-6,.cls-7,.cls-8{stroke-miterlimit:10;}.cls-10,.cls-11,.cls-12,.cls-18,.cls-4,.cls-5,.cls-6,.cls-7,.cls-8{stroke-width:0.36px;}.cls-4{fill:url(#linear-gradient);}.cls-5{fill:url(#linear-gradient-2);}.cls-6{fill:url(#linear-gradient-3);}.cls-7{fill:url(#linear-gradient-4);}.cls-10,.cls-8{fill:#aadcfa;}.cls-9{fill:url(#top_white);}.cls-10{stroke:#fff;}.cls-11{fill:url(#linear-gradient-5);}.cls-12{fill:url(#linear-gradient-6);}.cls-13{fill:url(#top_white-2);}.cls-14{isolation:isolate;}.cls-15{stroke-width:0.44px;fill:url(#linear-gradient-7);}.cls-16{fill:url(#top_white-3);}.cls-17{stroke-width:0.84px;}.cls-18{fill:url(#linear-gradient-8);}</style><linearGradient id="Medium_BLUE_gradient_FRONT" x1="5.38" y1="31.89" x2="59.21" y2="31.89" gradientUnits="userSpaceOnUse"><stop offset="0" stop-color="#8cd7f5"/><stop offset="1" stop-color="#376e8c"/></linearGradient><linearGradient id="linear-gradient" x1="39.46" y1="28.97" x2="45.55" y2="22.21" gradientUnits="userSpaceOnUse"><stop offset="0.28" stop-color="#285a78"/><stop offset="0.71" stop-color="#285a78"/><stop offset="0.86" stop-color="#82bedc"/><stop offset="0.96" stop-color="#285a78"/></linearGradient><linearGradient id="linear-gradient-2" x1="16.09" y1="38.74" x2="54.08" y2="38.74" gradientUnits="userSpaceOnUse"><stop offset="0" stop-color="#285a78"/><stop offset="0" stop-color="#295b79"/><stop offset="0.01" stop-color="#336684"/><stop offset="0.02" stop-color="#396d8b"/><stop offset="0.06" stop-color="#3b6f8d"/><stop offset="0.14" stop-color="#82bedc"/><stop offset="0.16" stop-color="#639bb9"/><stop offset="0.18" stop-color="#437896"/><stop offset="0.2" stop-color="#2f6280"/><stop offset="0.21" stop-color="#285a78"/><stop offset="0.31" stop-color="#285a78"/><stop offset="0.32" stop-color="#285a78"/><stop offset="0.61" stop-color="#285a78"/><stop offset="0.64" stop-color="#285a78"/><stop offset="0.74" stop-color="#82bedc"/><stop offset="0.82" stop-color="#285a78"/></linearGradient><linearGradient id="linear-gradient-3" x1="13.59" y1="28.3" x2="18.67" y2="32.72" gradientUnits="userSpaceOnUse"><stop offset="0" stop-color="#285a78"/><stop offset="0.18" stop-color="#82bedc"/><stop offset="0.26" stop-color="#82bedc"/><stop offset="0.59" stop-color="#285a78"/></linearGradient><linearGradient id="linear-gradient-4" x1="12.98" y1="24.71" x2="15.08" y2="27.05" gradientUnits="userSpaceOnUse"><stop offset="0" stop-color="#285a78"/><stop offset="0.18" stop-color="#82bedc"/><stop offset="0.26" stop-color="#82bedc"/><stop offset="0.43" stop-color="#285a78"/></linearGradient><linearGradient id="top_white" x1="13.97" y1="28.82" x2="52.43" y2="28.82" gradientUnits="userSpaceOnUse"><stop offset="0" stop-color="#fff"/><stop offset="1" stop-color="#f0f0f0"/></linearGradient><linearGradient id="linear-gradient-5" x1="30.54" y1="21.13" x2="39.04" y2="21.13" gradientUnits="userSpaceOnUse"><stop offset="0.24" stop-color="#285a78"/><stop offset="0.29" stop-color="#2c5f7d"/><stop offset="0.34" stop-color="#386c8a"/><stop offset="0.4" stop-color="#4c82a0"/><stop offset="0.45" stop-color="#68a1bf"/><stop offset="0.5" stop-color="#82bedc"/><stop offset="0.65" stop-color="#82bedc"/><stop offset="0.85" stop-color="#285a78"/></linearGradient><linearGradient id="linear-gradient-6" x1="17.02" y1="24.01" x2="27.55" y2="24.38" gradientUnits="userSpaceOnUse"><stop offset="0.16" stop-color="#285a78"/><stop offset="0.2" stop-color="#2b5d7b"/><stop offset="0.24" stop-color="#346785"/><stop offset="0.28" stop-color="#437896"/><stop offset="0.31" stop-color="#5890ae"/><stop offset="0.34" stop-color="#74aecc"/><stop offset="0.36" stop-color="#82bedc"/><stop offset="0.4" stop-color="#fff"/><stop offset="0.46" stop-color="#82bedc"/><stop offset="0.55" stop-color="#285a78"/></linearGradient><linearGradient id="top_white-2" x1="18.65" y1="22.03" x2="26.03" y2="22.03" xlink:href="#top_white"/><linearGradient id="linear-gradient-7" x1="24.56" y1="30.42" x2="36.81" y2="30.42" gradientUnits="userSpaceOnUse"><stop offset="0.24" stop-color="#285a78"/><stop offset="0.28" stop-color="#2c5f7d"/><stop offset="0.32" stop-color="#386c8a"/><stop offset="0.37" stop-color="#4c82a0"/><stop offset="0.42" stop-color="#68a1bf"/><stop offset="0.45" stop-color="#82bedc"/><stop offset="0.54" stop-color="#fff"/><stop offset="0.62" stop-color="#82bedc"/><stop offset="0.83" stop-color="#285a78"/></linearGradient><linearGradient id="top_white-3" x1="25.87" y1="28.59" x2="35.48" y2="28.59" gradientTransform="translate(59.18 -2.17) rotate(89.84)" xlink:href="#top_white"/><linearGradient id="linear-gradient-8" x1="37.56" y1="36" x2="46.28" y2="36" xlink:href="#linear-gradient-5"/></defs><title>ddd__A33AAe__R21XArtboard 1</title><g id="retouche_copy_5" data-name="retouche copy 5"><path class="cls-1" d="M18.21,42.08l-5.63-1.66-7-7.89L5.45,32l1.29-1.26,2.12-1.7.26-.21L6.51,23.52l.28-.3,15.55-8.41,7.18-1.3,4.85,1,4.09-.73,11.26,7.91.71,4.44,7.39,5.62.11.42-.68.5L57,34.53l1.75,5v.58L43,51l-6.15.65Z"/><path class="cls-2" d="M29.52,13.94l4.68,1,.16,0,.16,0,3.85-.69,11,7.71.65,4.1.06.33.27.21L57.45,32h0l-.3.23-.3.21,0,.37-.17,1.54,0,.19.07.18,1.69,4.81v.29L42.89,50.64,37,51.26,18.41,41.7l-.07,0-.08,0-5.44-1.59L5.93,32.34l0-.17L7,31.08l2.11-1.69L9.64,29l-.29-.6L7,23.59l0,0,15.43-8.34,7-1.28m0-.86L22.2,14.41,6.54,22.88,6,23.44l2.58,5.29L6.44,30.46,5,31.88l.14.84,7.21,8.07L18,42.45l18.79,9.67,6.38-.67,16-11.15v-.87l-1.74-5,.17-1.54.77-.56-.21-.84-7.39-5.6-.71-4.45L38.56,13.38l-4.19.75-4.84-1.05Z"/><path class="cls-3" d="M50.81,25.38l7.39,6.16-.76.54,0,1.84,1.74,5.51L42.89,50.6l-6,.65L18,41.68,12.35,40,5.64,32.22a.67.67,0,0,1,0-1l3.51-3.14-2.58-5.2,15.67-9,7.33-1.33,4.85,1,4.18-.75L50.1,20.93Z"/><path class="cls-4" d="M44.48,23.07l-5.83,3.39a1,1,0,0,0,0,1.74l.91.53,6.83-4.06c1.46-.88-.34-2.07-1.54-2.76h0C45.2,22.29,45.09,22.72,44.48,23.07Z"/><path class="cls-5" d="M52.5,36.18,52.05,36c.6.42.52.91-.18,1.32l-6.59,3.83a6,6,0,0,1-3.6.15h0L18.14,34.49a1,1,0,0,1-.56-1c-2.53,1.82-1.32,2.69-.15,3.37L41,43.64c1.58.44,4,.49,5.11-.14l7.6-4.56C54.83,38.11,53.21,36.65,52.5,36.18Z"/><path class="cls-6" d="M18.13,32.74l.79-.45c.76-.44.75-1,0-1.45l-3.84-2.22a1,1,0,0,1-.56-.79.21.21,0,0,1-.15,0l-.11-.06c-2,1.37-1,2.62.1,3.27l3.46,2A1.43,1.43,0,0,1,18.13,32.74Z"/><path class="cls-7" d="M15.06,26.88c.79-.46.78-1,0-1.47l-.54-.31a.94.94,0,0,1-.45-1.32h0c-2.62,1.89-1.42,3-.24,3.7l.42.25a2.61,2.61,0,0,1,.27-.19A1.08,1.08,0,0,1,15.06,26.88Z"/><path class="cls-8" d="M51.85,35.82c.77.45.78,1,0,1.46l-6.59,3.83a6,6,0,0,1-3.6.15L18.14,34.49a1,1,0,0,1,0-1.75l.79-.45c.76-.44.75-1,0-1.45l-3.84-2.22a1,1,0,0,1,0-1.74c.79-.46.78-1,0-1.47l-.54-.31a1,1,0,0,1,0-1.74l6.59-3.83a3.06,3.06,0,0,1,2.76.14l.54.31a3,3,0,0,0,2.75-.14L33,16.45a3,3,0,0,1,2.75.14l8.67,5c.76.44.77,1,0,1.45L38.6,26.44a1,1,0,0,0,0,1.74Zm-20-13a6.62,6.62,0,0,0,6,.11c1.6-.93,1.51-2.49-.2-3.48a6.64,6.64,0,0,0-6-.1c-1.6.93-1.51,2.48.21,3.47"/><path class="cls-9" d="M51.85,35.82c.77.45.78,1,0,1.46l-6.59,3.83a6.05,6.05,0,0,1-3.6.15L18.14,34.49a1,1,0,0,1,0-1.75l.79-.45c.76-.44.75-1,0-1.45l-3.84-2.22a1,1,0,0,1,0-1.74c.79-.46.78-1,0-1.47l-.54-.31a1,1,0,0,1,0-1.74l6.59-3.83a3.06,3.06,0,0,1,2.76.14l.54.31a3,3,0,0,0,2.75-.14L33,16.45a3,3,0,0,1,2.75.14l8.67,5c.76.44.77,1,0,1.45L38.6,26.44a1,1,0,0,0,0,1.74Zm-20-13a6.62,6.62,0,0,0,6,.11c1.6-.93,1.51-2.49-.2-3.48a6.64,6.64,0,0,0-6-.1c-1.6.93-1.51,2.48.21,3.47"/><path id="contour_surf" data-name="contour surf" class="cls-10" d="M51.85,35.82c.77.45.78,1,0,1.46l-6.59,3.83a6,6,0,0,1-3.6.15L18.14,34.49a1,1,0,0,1,0-1.75l.79-.45c.76-.44.75-1,0-1.45l-3.84-2.22a1,1,0,0,1,0-1.74c.79-.46.78-1,0-1.47l-.54-.31a1,1,0,0,1,0-1.74l6.59-3.83a3.06,3.06,0,0,1,2.76.14l.54.31a3,3,0,0,0,2.75-.14L33,16.45a3,3,0,0,1,2.75.14l8.67,5c.76.44.77,1,0,1.45L38.6,26.44a1,1,0,0,0,0,1.74Zm-20-13a6.62,6.62,0,0,0,6,.11c1.6-.93,1.51-2.49-.2-3.48a6.64,6.64,0,0,0-6-.1c-1.6.93-1.51,2.48.21,3.47"/><g id="Layer_33_copy_2" data-name="Layer 33 copy 2"><path id="trou_2" data-name="trou 2" class="cls-2" d="M31.89,22.8l.76.2a4.93,4.93,0,0,0,4.48.11c1.17-.68,1.11-1.84-.2-2.6a5,5,0,0,0-4.49-.1c-1.16.67-1.1,1.83.21,2.59l-.76-.2Z"/><path id="trou_2-2" data-name="trou 2" class="cls-11" d="M31.89,22.8l.76.2a4.93,4.93,0,0,0,4.48.11c1.17-.68,1.11-1.84-.2-2.6a5,5,0,0,0-4.49-.1c-1.16.67-1.1,1.83.21,2.59l-.76-.2c-1.72-1-1.81-2.54-.21-3.47a6.64,6.64,0,0,1,6,.1c1.71,1,1.8,2.55.2,3.48A6.62,6.62,0,0,1,31.89,22.8Z"/></g><path class="cls-12" d="M27,22.55,26,21.14l-5,2.84-2.4-1.39-1.4,1.7c-.68.71.1,1.66,1.11,2.25s3.12,1.08,3.89.64l5.05-2.94C27.64,24,27.79,23.44,27,22.55Z"/><polygon id="top" class="cls-13" points="26.03 21.14 21.05 23.98 18.64 22.59 23.56 20.07 26.03 21.14"/><g id="bosse_" data-name="bosse   ***" class="cls-14"><path id="bord_" data-name="bord   ***" class="cls-15" d="M34.94,33.16a9.52,9.52,0,0,1-8.65-.09c-1.68-1-2.14-2.42-1.38-3.65a18.08,18.08,0,0,1,1.2-1.75,10.65,10.65,0,0,1,9.16.12,13.12,13.12,0,0,1,.84,1.2c1.24,1.8.81,3.06-1.17,4.17"/><ellipse id="top_bosse_" data-name="top bosse    **" class="cls-16" cx="30.68" cy="28.59" rx="2.79" ry="4.81" transform="translate(2 59.18) rotate(-89.84)"/></g><g id="creux_" data-name="creux   ***" class="cls-14"><path id="bbbb_" data-name="bbbb ***" class="cls-17" d="M44.3,37.94a5.33,5.33,0,0,1-4.84,0c-1.32-.79-1.29-2,.07-2.81a5.33,5.33,0,0,1,4.84.05C45.69,35.92,45.66,37.17,44.3,37.94Zm-2.39-1.43h0"/><path class="cls-18" d="M45,37.82l-.65.12c1.36-.77,1.39-2,.07-2.81a5.33,5.33,0,0,0-4.84-.05c-1.36.76-1.39,2-.07,2.81a5.33,5.33,0,0,0,4.84,0l.65-.12a6.76,6.76,0,0,1-6.16-.07c-1.68-1-1.64-2.6.09-3.57a6.76,6.76,0,0,1,6.16.07C46.72,35.25,46.68,36.85,45,37.82Z"/></g></g></svg>