<svg id="_1X_copy" data-name="1X copy" xmlns="http://www.w3.org/2000/svg" xmlns:xlink="http://www.w3.org/1999/xlink" viewBox="0 0 64 64"><defs><style>.cls-1,.cls-11,.cls-13{fill:#fff;}.cls-1{stroke:#fff;stroke-width:0.8px;}.cls-1,.cls-13,.cls-5{stroke-miterlimit:10;}.cls-2{fill:url(#white_left);}.cls-3{fill:#285977;}.cls-4{fill:#797979;}.cls-5,.cls-8{fill:none;}.cls-5{stroke:#797979;stroke-width:0.99px;}.cls-6{stroke:#787878;fill:url(#top_white);}.cls-6,.cls-8{stroke-linecap:round;stroke-linejoin:round;}.cls-7{fill:#aadcfa;}.cls-8{stroke:#000;}.cls-9{fill:url(#top_white-2);}.cls-10{fill:url(#top_white-3);}.cls-12{fill:#323232;}.cls-13{stroke:#2d6d8b;stroke-width:0.03px;}.cls-14{fill:url(#linear-gradient);}.cls-15{fill:url(#white_front_right);}.cls-16{fill:#f1f0f0;}.cls-17{fill:url(#top_white-4);}.cls-18{fill:url(#linear-gradient-2);}.cls-19{fill:url(#white_left-2);}.cls-20{fill:url(#linear-gradient-3);}</style><linearGradient id="white_left" x1="39" y1="31.19" x2="53" y2="31.19" gradientUnits="userSpaceOnUse"><stop offset="0" stop-color="#f5f5f5"/><stop offset="1" stop-color="#bebebe"/></linearGradient><linearGradient id="top_white" x1="28.03" y1="36.85" x2="32.59" y2="44.75" gradientUnits="userSpaceOnUse"><stop offset="0" stop-color="#fff"/><stop offset="1" stop-color="#f0f0f0"/></linearGradient><linearGradient id="top_white-2" x1="27.73" y1="21.6" x2="33.08" y2="30.87" xlink:href="#top_white"/><linearGradient id="top_white-3" x1="11.65" y1="26.28" x2="18.83" y2="38.72" xlink:href="#top_white"/><linearGradient id="linear-gradient" x1="-9199.94" y1="-8169.1" x2="-9200.54" y2="-8168.38" gradientTransform="matrix(1.01, -0.13, -0.09, 1.59, 8564.82, 11837.69)" gradientUnits="userSpaceOnUse"><stop offset="0" stop-color="#fff"/><stop offset="0.24" stop-color="#fcfcfc"/><stop offset="0.43" stop-color="#f2f2f2"/><stop offset="0.46" stop-color="#f0f0f0"/></linearGradient><linearGradient id="white_front_right" x1="-9200.49" y1="-8168.47" x2="-9199.87" y2="-8167.39" gradientTransform="matrix(1.01, -0.13, -0.09, 1.59, 8564.82, 11837.69)" gradientUnits="userSpaceOnUse"><stop offset="0" stop-color="#fff"/><stop offset="1" stop-color="#d2d2d2"/></linearGradient><linearGradient id="top_white-4" x1="-9201.38" y1="-8170.29" x2="-9197.91" y2="-8170.29" gradientTransform="matrix(1.01, -0.13, -0.09, 1.59, 8564.82, 11837.69)" xlink:href="#top_white"/><linearGradient id="linear-gradient-2" x1="-9200.44" y1="-8169.43" x2="-9201.17" y2="-8168.17" gradientTransform="matrix(1.01, -0.13, -0.09, 1.59, 8564.82, 11837.69)" gradientUnits="userSpaceOnUse"><stop offset="0.16" stop-color="#f5f5f5"/><stop offset="0.27" stop-color="#e7e7e7"/><stop offset="0.48" stop-color="#c1c1c1"/><stop offset="0.5" stop-color="#bebebe"/></linearGradient><linearGradient id="white_left-2" x1="-9200.27" y1="-8168.94" x2="-9197.16" y2="-8168.94" gradientTransform="matrix(1.01, -0.13, -0.09, 1.59, 8564.82, 11837.69)" xlink:href="#white_left"/><linearGradient id="linear-gradient-3" x1="-9195.18" y1="-8171.61" x2="-9188.12" y2="-8159.38" gradientTransform="matrix(1.01, -0.13, -0.09, 1.59, 8564.82, 11837.69)" gradientUnits="userSpaceOnUse"><stop offset="0.04" stop-color="#141414"/><stop offset="1" stop-color="#464646"/></linearGradient></defs><title>14 881_SystemsSynthesisArtboard 1</title><g id="tableau_copy" data-name="tableau   *** copy"><polygon id="blanc_" data-name="blanc **" class="cls-1" points="55.28 46.74 6.93 51.32 6.92 10 55.18 15.88 55.28 46.74"/><g id="Layer_17_copy_14" data-name="Layer 17 copy 14"><polygon id="R_03" data-name="R  03" class="cls-2" points="53 45 39 46.13 39 16.25 53 17.73 53 45"/><polygon class="cls-3" points="37 46.35 10 48.69 10 13.04 37 16.3 37 46.35"/></g><path id="cadre_" data-name="cadre **" class="cls-4" d="M6,52.52V9.21l50,6.11V47.41ZM7,10.34V51.39l48-4.86V16.2Z"/><line class="cls-5" x1="50.13" y1="20.74" x2="40.78" y2="19.87"/><line class="cls-5" x1="50.13" y1="24.91" x2="40.78" y2="24.4"/><line class="cls-5" x1="50.13" y1="29.09" x2="40.78" y2="28.93"/><line class="cls-5" x1="50.13" y1="33.26" x2="40.78" y2="33.46"/><line class="cls-5" x1="50.13" y1="37.43" x2="40.78" y2="37.99"/><line class="cls-5" x1="50.13" y1="41.61" x2="40.78" y2="42.52"/></g><g id="process_" data-name="process **"><polygon points="24 27.73 33 28.39 33 27.46 23 26.09 23 33.69 14 32.88 14 34.12 23 34.85 23 41.46 33 41.46 33 40.42 24 40.42 24 27.73"/><g id="Layer_17_copy" data-name="Layer 17 copy"><polygon id="fond_ok" data-name="fond  ok" class="cls-6" points="34.5 43.65 26.5 44.11 26.5 37.74 34.5 38.13 34.5 43.65"/><polygon id="fond_ok-2" data-name="fond  ok" class="cls-7" points="35 40.27 27 40.27 27 38.06 35 38.36 35 40.27"/><polygon id="cadre" class="cls-8" points="34.5 43.65 26.5 44.11 26.5 37.74 34.5 38.13 34.5 43.65"/></g><g id="Layer_16_copy" data-name="Layer 16 copy"><polygon id="fond_ok-3" data-name="fond  ok" class="cls-9" points="34.58 30 26.58 29.44 26.58 22.26 34.58 23.66 34.58 30"/><polygon id="fond_ok-4" data-name="fond  ok" class="cls-7" points="34.58 26.33 26.58 25.17 26.58 22.59 34.58 24.08 34.58 26.33"/><polygon id="cadre-2" data-name="cadre" class="cls-8" points="34.58 30 26.58 29.44 26.58 22.26 34.58 23.66 34.58 30"/></g><g id="_1_copy" data-name="1 copy"><polygon id="fond_ok-5" data-name="fond  ok" class="cls-10" points="19 38.62 12 38.4 12 26.08 19 27.5 19 38.62"/><polygon id="fond_ok-6" data-name="fond  ok" class="cls-7" points="19 31.05 12 30.18 12 26.48 19 27.79 19 31.05"/><polygon id="cadre-3" data-name="cadre" class="cls-8" points="19.5 38.62 12.5 38.4 12.5 26.08 19.5 27.5 19.5 38.62"/></g></g><g id="loupe_copy_2" data-name="loupe   ** copy 2"><path class="cls-11" d="M45,18l-.66-.92a9.93,9.93,0,0,0-2.27-2.26A21.64,21.64,0,0,0,38.28,13a10.49,10.49,0,0,0-7.18.52,6.81,6.81,0,0,0-.94.46,11.54,11.54,0,0,0-5.6,7.76,10.89,10.89,0,0,0,.52,5.84l1,2.74-.83-.19-.7-1a14.1,14.1,0,0,1-1-2.15l-.37-1.15A8,8,0,0,1,23,24.55a12.1,12.1,0,0,1,.31-4.79,9,9,0,0,1,.9-2.28,11.18,11.18,0,0,1,.61-1.06,12.13,12.13,0,0,1,6.74-5.06,9,9,0,0,1,1.19-.3A11.86,11.86,0,0,1,41,12.34,8.42,8.42,0,0,1,42,13a11.38,11.38,0,0,1,3.28,3.49l.56,1Z"/><path class="cls-12" d="M44.52,16.07l1,1.93a10.3,10.3,0,0,0-.88-1.37,11.51,11.51,0,0,0-7.62-4.54,11.63,11.63,0,0,0-8.61,2.2A11.58,11.58,0,0,0,25.17,29.1l-1.05-1.93A11.42,11.42,0,0,1,22.84,20a11.62,11.62,0,0,1,20.8-5.29A12.4,12.4,0,0,1,44.52,16.07Z"/><path class="cls-12" d="M45.41,15.6l1.05,1.93a12.51,12.51,0,0,1,1.39,7.83A12.62,12.62,0,0,1,24.3,29.59l-1.05-1.93A12.61,12.61,0,0,0,45.41,15.6Z"/><path class="cls-13" d="M36.17,9.18A12.59,12.59,0,1,1,21.85,19.84,12.55,12.55,0,0,1,36.17,9.18ZM41.24,30.9a11.58,11.58,0,1,0-8.6,2.19,11.56,11.56,0,0,0,8.6-2.19"/><g id="fixation_manche_ok" data-name="fixation manche   ok"><path class="cls-11" d="M46.7,29.88c-.09-.12-.23-.12-.39.05L44,32.41l.27.34,2.35-2.48c.15-.14.27-.15.34,0Z"/><path id="c3_angle" data-name="c3 angle" class="cls-14" d="M43.75,33.94l-.33-.17A1.68,1.68,0,0,1,44,32.41l.27.34A1.47,1.47,0,0,0,43.75,33.94Z"/><path class="cls-15" d="M43.75,33.94l-.33-.17a6.91,6.91,0,0,0,.42,1.32l.33.1A6.81,6.81,0,0,1,43.75,33.94Z"/><path id="b5" class="cls-16" d="M45.44,28.83l1.21,1c-.08-.07-.2,0-.34.1l-1.21-1C45.24,28.78,45.36,28.76,45.44,28.83Z"/><polygon id="b4" class="cls-17" points="43.96 32.41 42.75 31.41 45.1 28.92 46.31 29.93 43.96 32.41"/><path class="cls-18" d="M44,32.41l-1.21-1a2.32,2.32,0,0,0-.54,1.35,9.94,9.94,0,0,0,.37,1.29l1.21,1a10.41,10.41,0,0,1-.37-1.29A1.62,1.62,0,0,1,44,32.41Z"/><path id="contour_face" data-name="contour face" class="cls-19" d="M46.58,30.27c.24-.24.42-.09.39.32l0,1.06a2.06,2.06,0,0,1-.47,1.18l-2.07,2.25c-.23.23-.32,0-.32,0l-.34-1.13a1.42,1.42,0,0,1,.48-1.19Zm.3,1.46,0-1.07c0-.34-.13-.46-.33-.26l-2.34,2.49a1.28,1.28,0,0,0-.4,1L44.17,35c0,.34.06.15.25,0l2.06-2.25a1.71,1.71,0,0,0,.4-1"/><path id="face" class="cls-12" d="M46.57,30.4c.2-.2.35-.08.33.26l0,1.07a1.71,1.71,0,0,1-.4,1L44.42,35c-.19.19-.25,0-.25,0l-.34-1.13a1.06,1.06,0,0,1,.4-1Z"/></g><path class="cls-12" d="M60.13,41.14c0-.06-.21-.77-.36-.62.65.65-1.23,3.31-1.9,3.2C57.5,43.65,44.2,33.09,44.2,33.09l-.2.68.28,1.13S56.56,44,57.39,44.54s2.33-.9,2.54-1.47a2.93,2.93,0,0,0,.2-1.93C60.1,40.92,60.2,41.61,60.13,41.14Z"/><path class="cls-12" d="M60.13,41.14a1,1,0,0,0-.29-.63l-13.1-9.95-.26.05-2.27,2.48-.21.7.29,1.12s12.27,9,13.1,9.63,2.33-.9,2.54-1.47A2.92,2.92,0,0,0,60.13,41.14Z"/><path id="rel_" data-name="rel ***" class="cls-4" d="M44.2,33.09l2.28-2.48.26-.05L59.8,40.5s.44.5-.47,1.88-1.46,1.34-1.46,1.34L44,33.78l.2-.69Z"/><path id="dessus_" data-name="dessus****" class="cls-20" d="M59.75,40.46c.62.62-1.45,3.58-2.15,3L44.2,33.09l2.28-2.48S59.43,40.15,59.75,40.46Z"/><polygon id="rel_2" data-name="rel ***" class="cls-4" points="44.2 33.09 57.7 43.65 57.54 43.68 44 33.78 44.2 33.09 44.2 33.09"/></g></svg>