<svg xmlns="http://www.w3.org/2000/svg" xmlns:xlink="http://www.w3.org/1999/xlink" viewBox="0 0 64 64"><defs><linearGradient id="a" x1="8.31" y1="46.08" x2="51.56" y2="46.08" gradientUnits="userSpaceOnUse"><stop offset="0" stop-color="#fff"/><stop offset="0.04" stop-color="#e9e9e9"/><stop offset="0.09" stop-color="#d6d6d6"/><stop offset="0.15" stop-color="#c8c8c8"/><stop offset="0.22" stop-color="silver"/><stop offset="0.35" stop-color="#bebebe"/><stop offset="0.49" stop-color="#fff"/><stop offset="1" stop-color="#d2d2d2"/></linearGradient><linearGradient id="b" x1="38.73" y1="18.1" x2="49" y2="35.9" gradientUnits="userSpaceOnUse"><stop offset="0" stop-color="#f5f5f5"/><stop offset="1" stop-color="#bebebe"/></linearGradient><linearGradient id="c" x1="41.19" y1="19.41" x2="50.6" y2="35.71" gradientUnits="userSpaceOnUse"><stop offset="0" stop-color="#fff"/><stop offset="1" stop-color="#d2d2d2"/></linearGradient><linearGradient id="d" x1="43.16" y1="14.31" x2="45.41" y2="18.21" gradientUnits="userSpaceOnUse"><stop offset="0" stop-color="#d7d7d7"/><stop offset="1" stop-color="#969696"/></linearGradient><linearGradient id="e" x1="23.83" y1="27.46" x2="38.17" y2="52.31" gradientUnits="userSpaceOnUse"><stop offset="0" stop-color="#aaa"/><stop offset="1" stop-color="#5a5a5a"/></linearGradient><linearGradient id="f" x1="7.43" y1="25.35" x2="19.65" y2="46.52" xlink:href="#b"/><linearGradient id="h" x1="17.54" y1="28.63" x2="28.63" y2="47.85" gradientUnits="userSpaceOnUse"><stop offset="0" stop-color="#82bedc"/><stop offset="1" stop-color="#285a78"/></linearGradient><linearGradient id="i" x1="19.18" y1="43.42" x2="41.86" y2="43.42" gradientUnits="userSpaceOnUse"><stop offset="0" stop-color="#82bedc"/><stop offset="0.32" stop-color="#285a78"/><stop offset="0.34" stop-color="#366b89"/><stop offset="0.37" stop-color="#5997b5"/><stop offset="0.42" stop-color="#8cd7f5"/><stop offset="1" stop-color="#376e8c"/></linearGradient><linearGradient id="j" x1="19.18" y1="41.13" x2="41.86" y2="41.13" xlink:href="#i"/><linearGradient id="k" x1="19.18" y1="38.83" x2="41.86" y2="38.83" xlink:href="#i"/><linearGradient id="l" x1="30.39" y1="33.65" x2="34.61" y2="40.98" gradientUnits="userSpaceOnUse"><stop offset="0" stop-color="#a0e1fa"/><stop offset="1" stop-color="#73c3e1"/></linearGradient><linearGradient id="m" x1="19.18" y1="32.25" x2="37.86" y2="32.25" gradientUnits="userSpaceOnUse"><stop offset="0" stop-color="#82bedc"/><stop offset="0.2" stop-color="#285a78"/><stop offset="0.21" stop-color="#366b89"/><stop offset="0.23" stop-color="#5997b5"/><stop offset="0.26" stop-color="#8cd7f5"/><stop offset="1" stop-color="#376e8c"/></linearGradient><linearGradient id="n" x1="19.18" y1="34.48" x2="37.86" y2="34.48" xlink:href="#m"/><linearGradient id="o" x1="19.3" y1="30.02" x2="37.49" y2="30.02" xlink:href="#m"/><linearGradient id="p" x1="26.36" y1="23.54" x2="30.64" y2="30.96" xlink:href="#l"/><linearGradient id="s" x1="19.24" y1="28.77" x2="31.69" y2="28.77" gradientUnits="userSpaceOnUse"><stop offset="0" stop-color="#82bedc"/><stop offset="0.35" stop-color="#285a78"/><stop offset="0.39" stop-color="#366b89"/><stop offset="0.47" stop-color="#5997b5"/><stop offset="0.57" stop-color="#8cd7f5"/><stop offset="1" stop-color="#376e8c"/></linearGradient><linearGradient id="t" x1="27.81" y1="21.78" x2="29.87" y2="25.36" gradientUnits="userSpaceOnUse"><stop offset="0" stop-color="#fff"/><stop offset="1" stop-color="#f0f0f0"/></linearGradient><linearGradient id="u" x1="27.25" y1="14.33" x2="29.75" y2="18.67" xlink:href="#t"/><linearGradient id="v" x1="30.12" y1="17.14" x2="32.85" y2="21.87" xlink:href="#c"/><linearGradient id="w" x1="23.48" y1="16.51" x2="27.61" y2="23.65" xlink:href="#b"/><linearGradient id="x" x1="26.38" y1="20.07" x2="31.13" y2="20.96" gradientUnits="userSpaceOnUse"><stop offset="0" stop-color="#d2d2d2"/><stop offset="0.58" stop-color="#fff"/><stop offset="1" stop-color="#d2d2d2"/></linearGradient><linearGradient id="y" x1="27.58" y1="15.94" x2="29.42" y2="19.13" xlink:href="#t"/></defs><path d="M27,52.65a4,4,0,0,1-4.23-1L8.5,36.31V38.5l14.23,16A4,4,0,0,0,27,55.63L53.5,46.5v-3Z" stroke="#787878" stroke-linejoin="round" fill="url(#a)"/><polygon points="44.5 38.5 41.5 35.5 41.5 16.5 44.5 15.5 44.5 38.5" stroke="#787878" stroke-linejoin="round" fill="url(#b)"/><polygon points="47.5 37.5 44.5 38.5 44.5 17.5 47.5 17 47.5 37.5" stroke="#787878" stroke-linejoin="round" fill="url(#c)"/><path d="M44.5,17.5l3-.5s-.91-3.44-4.33-2.7L41.5,16.5Z" stroke="#787878" stroke-linejoin="round" fill="url(#d)"/><path d="M43.17,14.3,41.5,16.5v19l3,3,3-1V17S46.59,13.56,43.17,14.3Z" fill="none" stroke="#323232" stroke-linejoin="round"/><path d="M8.5,36.31l24.23-7a4,4,0,0,1,3.56.69L53.5,43.47,27,52.65a4,4,0,0,1-4.23-1Z" stroke="#323232" stroke-linejoin="round" fill="url(#e)"/><polygon points="14.5 49.5 11.5 45.5 11.5 23 14.5 24.5 14.5 49.5" stroke="#787878" stroke-linejoin="round" fill="url(#f)"/><polygon points="17.5 48.5 14.5 49.5 14.5 24.5 17.5 24 17.5 48.5" stroke="#787878" stroke-linejoin="round" fill="url(#c)"/><polygon points="19.5 27.5 23.5 30.5 23.5 37.63 27.5 41.25 27.5 43.67 27.5 46.08 27.5 48.5 19.5 40.5 19.5 38.33 19.5 36.17 19.5 34 19.5 31.83 19.5 29.67 19.5 27.5" stroke="#003755" stroke-linejoin="round" fill="url(#h)"/><path d="M41.5,41.67l-14,4.41-8-7.75a3.23,3.23,0,0,0-.32,1.07,3.49,3.49,0,0,0,.32,1.1l8,8,14-4.5a4.68,4.68,0,0,0,.36-1.29A2.48,2.48,0,0,0,41.5,41.67Z" stroke="#003755" stroke-linejoin="round" fill="url(#i)"/><path d="M41.5,39.33l-14,4.34-8-7.5a3.14,3.14,0,0,0-.32,1.06,3.4,3.4,0,0,0,.32,1.1l8,7.75,14-4.41a4.68,4.68,0,0,0,.36-1.29A2.55,2.55,0,0,0,41.5,39.33Z" stroke="#003755" stroke-linejoin="round" fill="url(#j)"/><path d="M27.5,41.25,19.5,34a3.14,3.14,0,0,0-.32,1.07,3.49,3.49,0,0,0,.32,1.1l8,7.5,14-4.34A4.56,4.56,0,0,0,41.86,38a2.55,2.55,0,0,0-.36-1Z" stroke="#003755" stroke-linejoin="round" fill="url(#k)"/><polygon points="41.5 37 37.5 33.5 23.5 37.63 27.5 41.25 41.5 37" stroke="#003755" stroke-linejoin="round" fill="url(#l)"/><path d="M19.5,29.67a3.14,3.14,0,0,0-.32,1.06,3.4,3.4,0,0,0,.32,1.1l4,3.5,14-4a4.11,4.11,0,0,0,.36-1.2,2.15,2.15,0,0,0-.36-1L23.5,33Z" stroke="#003755" stroke-linejoin="round" fill="url(#m)"/><path d="M37.5,31.33l-14,4-4-3.5a3.23,3.23,0,0,0-.32,1.07A3.49,3.49,0,0,0,19.5,34l4,3.63,14-4.13a4.21,4.21,0,0,0,.36-1.21A2.21,2.21,0,0,0,37.5,31.33Z" stroke="#003755" stroke-linejoin="round" fill="url(#n)"/><path d="M19.5,27.5a3.14,3.14,0,0,0-.32,1.07,3.49,3.49,0,0,0,.32,1.1l4,3.37,14-3.87A4.21,4.21,0,0,0,37.86,28a2.21,2.21,0,0,0-.36-1l-14,3.5Z" stroke="#003755" stroke-linejoin="round" fill="url(#o)"/><polygon points="19.5 27.5 33 24 37.5 27 23.5 30.5 19.5 27.5" stroke="#003755" stroke-linejoin="round" fill="url(#p)"/><path d="M15.63,14.49c.32-3.08,1.31-5,3.87-5,3.1,0,5.36,1.24,6.05,3.32A8.65,8.65,0,0,0,29,17.5l1-1.72a6.68,6.68,0,0,1-2.52-3.6C26.69,9.92,24.21,7.5,19.5,7.5s-5.68,4.15-5.93,7.43c0,0-.32,3,.93,9.35l1.72-.36A35.82,35.82,0,0,1,15.63,14.49Z" stroke="#003755" stroke-linejoin="round" fill="url(#h)"/><path d="M31.63,20a1.87,1.87,0,0,1-1.5-1.92c0-.68.47-.88,1.16-1l11.54-2.68a2,2,0,0,1,.34,0c.75,0,1.5,1,1.5,1.88,0,.68-.47.93-1.16,1.09L32,19.94A1.32,1.32,0,0,1,31.63,20Z" stroke="#323232" stroke-linejoin="round" fill="url(#e)"/><path d="M19.5,27.5a3.14,3.14,0,0,0-.32,1.07,3.49,3.49,0,0,0,.32,1.1l4,3.37c5,0,6.17-3.54,6.17-8.54H27.5c0,4,0,6-4,6Z" stroke="#003755" stroke-linejoin="round" fill="url(#s)"/><polygon points="25.72 22.98 28.5 26.15 31.28 22.98 28.46 22.05 25.72 22.98" stroke="#787878" stroke-linejoin="round" fill="url(#t)"/><polygon points="26 18.5 23.5 16.5 31 15 33.5 16.5 26 18.5" stroke="#787878" stroke-linejoin="round" fill="url(#u)"/><polygon points="33.5 16.5 33.5 21.5 29.46 22.5 29.5 17.5 33.5 16.5" stroke="#787878" stroke-linejoin="round" fill="url(#v)"/><polygon points="23.5 16.5 23.5 20.5 27 24 27.5 19.5 23.5 16.5" stroke="#787878" stroke-linejoin="round" fill="url(#w)"/><path d="M25.5,17.53v4.93a.85.85,0,0,0,.22.53,4,4,0,0,0,2.78.86A4,4,0,0,0,31.28,23a.85.85,0,0,0,.22-.53V17.53Z" stroke="#787878" stroke-linejoin="round" fill="url(#x)"/><ellipse cx="28.5" cy="17.53" rx="3" ry="1.23" stroke="#787878" stroke-linejoin="round" fill="url(#y)"/><path d="M33.5,16.5,31,15l-7.5,1.5v4l2,2a.86.86,0,0,0,.21.48h0l2.78,3.16L31.28,23h0a.85.85,0,0,0,.22-.53V22l2-.5Z" fill="none" stroke="#323232" stroke-linejoin="round"/><path d="M15.55,23.71a1.88,1.88,0,0,1-1.5-1.92c0-.68.47-.88.91-1l8.84-2.06a2.22,2.22,0,0,1,.59-.1c.74,0,1.49,1,1.49,1.88,0,.68-.47.92-1.16,1.08l-8.83,2.06A1.32,1.32,0,0,1,15.55,23.71Z" stroke="#323232" stroke-linejoin="round" fill="url(#e)"/><path d="M14.5,24.5l3-.5a3.11,3.11,0,0,0-2.85-3.14c-3,.42-3.15,2.14-3.15,2.14Z" stroke="#787878" stroke-linejoin="round" fill="url(#d)"/><path d="M8.5,36.31V38.5l3,3.38V45.5l3,4,3-1s4.26,5,5.23,6A4,4,0,0,0,27,55.63L53.5,46.5v-3" fill="none" stroke="#323232" stroke-linejoin="round"/><path d="M11.5,35.45V23s.15-1.69,3.15-2.14c0,0,2.6-.11,2.85,3.14v9.72" fill="none" stroke="#323232" stroke-linecap="square" stroke-linejoin="round"/></svg>