<svg id="CATIA___ZJ20_TRN_-_Terrain_Preparation_Terrain_Modeling_" data-name="CATIA _ (ZJ20) TRN - Terrain Preparation (Terrain Modeling)" xmlns="http://www.w3.org/2000/svg" xmlns:xlink="http://www.w3.org/1999/xlink" viewBox="0 0 64 64"><defs><style>.cls-1{fill:url(#linear-gradient);}.cls-2,.cls-3,.cls-4,.cls-5,.cls-6,.cls-7,.cls-8{stroke:#797979;stroke-width:0.6px;}.cls-10,.cls-11,.cls-2,.cls-3,.cls-4,.cls-5,.cls-6,.cls-7,.cls-8{stroke-linecap:round;stroke-linejoin:round;}.cls-2{fill:url(#linear-gradient-2);}.cls-3{fill:url(#linear-gradient-3);}.cls-4{fill:url(#linear-gradient-4);}.cls-5{fill:url(#linear-gradient-5);}.cls-6{fill:url(#linear-gradient-6);}.cls-7,.cls-9{fill:none;}.cls-8{fill:url(#linear-gradient-7);}.cls-9{stroke:#000;stroke-miterlimit:10;}.cls-10,.cls-11,.cls-9{stroke-width:0.8px;}.cls-10,.cls-11{stroke:#0f5483;}.cls-10{fill:url(#linear-gradient-8);}.cls-11{fill:url(#linear-gradient-9);}</style><linearGradient id="linear-gradient" x1="38.55" y1="46.35" x2="24.51" y2="22.03" gradientUnits="userSpaceOnUse"><stop offset="0" stop-color="#fff"/><stop offset="0.44" stop-color="#fcfcfc"/><stop offset="0.82" stop-color="#f1f3f3"/><stop offset="1" stop-color="#e9ebeb"/></linearGradient><linearGradient id="linear-gradient-2" x1="29.88" y1="42.5" x2="54.17" y2="42.5" gradientUnits="userSpaceOnUse"><stop offset="0" stop-color="#969696"/><stop offset="0.17" stop-color="#adadad"/><stop offset="0.36" stop-color="silver"/><stop offset="0.49" stop-color="#c7c7c7"/><stop offset="0.63" stop-color="#bfbfbf"/><stop offset="0.85" stop-color="#a8a8a8"/><stop offset="1" stop-color="#969696"/></linearGradient><linearGradient id="linear-gradient-3" x1="9.64" y1="40.5" x2="25.02" y2="40.5" gradientUnits="userSpaceOnUse"><stop offset="0" stop-color="#969696"/><stop offset="0.49" stop-color="#b8b8b8"/><stop offset="1" stop-color="#969696"/></linearGradient><linearGradient id="linear-gradient-4" x1="41.29" y1="34.55" x2="54.16" y2="34.55" gradientUnits="userSpaceOnUse"><stop offset="0" stop-color="#ababab"/><stop offset="1" stop-color="#9e9e9e"/></linearGradient><linearGradient id="linear-gradient-5" x1="27.43" y1="24.5" x2="48.48" y2="24.5" xlink:href="#linear-gradient-4"/><linearGradient id="linear-gradient-6" x1="32.63" y1="18.44" x2="44.37" y2="18.44" xlink:href="#linear-gradient-4"/><linearGradient id="linear-gradient-7" x1="15.66" y1="33" x2="20.39" y2="33" xlink:href="#linear-gradient-4"/><linearGradient id="linear-gradient-8" x1="33.94" y1="32.12" x2="30.25" y2="41.47" gradientUnits="userSpaceOnUse"><stop offset="0.33" stop-color="#1e6fa7"/><stop offset="0.59" stop-color="#1c87d1"/><stop offset="0.93" stop-color="#54b9ff"/></linearGradient><linearGradient id="linear-gradient-9" x1="31.35" y1="39.21" x2="40.33" y2="43" gradientUnits="userSpaceOnUse"><stop offset="0" stop-color="#1c85cd"/><stop offset="1" stop-color="#1c87d1"/></linearGradient></defs><title>CATIA _ (ZJ20) TRN - Terrain Preparation (Terrain Modeling)</title><path class="cls-1" d="M7.5,29.5v7l19,14,30-10v-7l-1-.48a4,4,0,0,0-1-2.52,39.87,39.87,0,0,0-4-3v-4l-5-4-3-6h-3c-1,0-3-1.5-3-1.5l-3,2.5-2.5,4s-4.37.6-5,1.3a14.38,14.38,0,0,0-1.5,2.7l-2.1.28L16.5,27.5a18.54,18.54,0,0,0-4.06-1.07C11.5,26.5,7.5,29.5,7.5,29.5Z"/><path class="cls-2" d="M26.5,45.5v5l30-10v-6c-1,0-5,3-7,4.5-.89.67-4-1-6-1S26.5,43.5,26.5,45.5Z"/><path class="cls-3" d="M7.5,30.5v6l19,14v-5c-2,1-3-3-4-4s-2,0-3-1-1-2-2-3a3.67,3.67,0,0,0-3-1c-1,0-1,0-3-1v-2c0-1-4-3-4-3"/><path class="cls-4" d="M55.4,32.23,52.5,33.5s-3,1-4,2-3,0-3,0h-1s-.5,0-.5,1,2.5,2,2.5,2h-4s-3-3-3-4,0-1.3,1-1.3a3.81,3.81,0,0,1,2,.8s2,.5,3-.5,1-1,2-1a10.87,10.87,0,0,0,5-1,16.27,16.27,0,0,1,2.11-.9Z"/><path class="cls-5" d="M26.5,19.5l1,3h5l3,3h3l2,1a30.41,30.41,0,0,1,5-2.5,9.72,9.72,0,0,1,5-.5v3a30.57,30.57,0,0,0-3,1c-.89.34-3,.77-4,1.14-1.28.47-1.45.86-2,.86-2,0-3-2-4-2s-1,1-2,1c-2,0-2-2-3-2h-2c-1,0-1-1-2-1a3.67,3.67,0,0,1-3-1,3.1,3.1,0,0,1-1-2Z"/><path class="cls-6" d="M33.68,14.5A17.88,17.88,0,0,0,35,16c1,1,1.5-.5,2.5-.5s1,1,2,1c2,0,3.34-2.13,3.34-2.13L45.5,19.5s-3,3-6,3c-2,0-4-2-4-2h-3c-1,0-1.5-2-1.5-2Z"/><path class="cls-7" d="M13.5,26.5a10.07,10.07,0,0,0-1,3c0,3,2,4,2,5a17.49,17.49,0,0,1-.13,2"/><polyline class="cls-7" points="32.5 16.5 33.5 17.5 35.5 17.5 38.5 19.5 40.5 19.5 44.21 16.93"/><path class="cls-8" d="M19.5,25.5l-3,2h-1a17.68,17.68,0,0,0-.5,3c0,1,2.5,4,2.5,4v3l2,3s-.8-2-.3-3a4.57,4.57,0,0,1,1.3-2c1-1-.5-2-.5-2a3.81,3.81,0,0,1-.8-2c0-1,.3-1,.3-1a1,1,0,0,0,1-1v-1A10.07,10.07,0,0,0,19.5,25.5Z"/><path class="cls-7" d="M21.68,23.47s-1.18,3,1.82,4,4,0,6,1,2,2,4,3,4-1,5-1,2,1,4,1,4-2,5-2,5.43-.32,5.43-.32"/><path class="cls-7" d="M10.5,32.5a3.17,3.17,0,0,1-.5-3l.5-2"/><path class="cls-9" d="M7.5,29.5v7l19,14,30-10v-7l-1-.48a4,4,0,0,0-1-2.52,39.87,39.87,0,0,0-4-3v-4l-5-4-3-6h-3c-1,0-3-1.5-3-1.5l-3,2.5-2.5,4s-4.37.6-5,1.3a14.38,14.38,0,0,0-1.5,2.7l-2.1.28L16.5,27.5a18.54,18.54,0,0,0-4.06-1.07C11.5,26.5,7.5,29.5,7.5,29.5Z"/><path class="cls-10" d="M30.5,42.5l11-4s-1.76.85-4-2.5c-1-1.5-5,0-6-1s1-1.5,0-2.5-2-.5-3-.5-1-1.5-3-1c-3.07.77-1,2.5-1,4.5S22,39,23,40s5.5-2.5,6.5-1.5S30.5,42.5,30.5,42.5Z"/><path class="cls-11" d="M41.5,41.5v-3l-11,4s0,1.7,1,1.7,1-.7,2-.7,1,1,3,1S41.5,41.5,41.5,41.5Z"/></svg>