<svg id="CATIA___E09_VPE_-_Product_Structure_Design" data-name="CATIA _ (E09) VPE - Product Structure Design" xmlns="http://www.w3.org/2000/svg" xmlns:xlink="http://www.w3.org/1999/xlink" viewBox="0 0 64 64"><defs><style>.cls-1{fill:#15689c;}.cls-13,.cls-14,.cls-15,.cls-16,.cls-17,.cls-2{stroke:#6d6d6d;}.cls-10,.cls-11,.cls-12,.cls-13,.cls-14,.cls-15,.cls-16,.cls-17,.cls-18,.cls-2,.cls-6,.cls-7,.cls-8{stroke-linecap:round;stroke-linejoin:round;}.cls-2{stroke-width:0.3px;fill:url(#linear-gradient);}.cls-3{fill:url(#linear-gradient-2);}.cls-4{fill:url(#linear-gradient-3);}.cls-5{fill:#6d6d6d;}.cls-10,.cls-11,.cls-12,.cls-6,.cls-7,.cls-8{stroke:#00415f;}.cls-6{fill:url(#linear-gradient-4);}.cls-7{fill:url(#linear-gradient-5);}.cls-8{fill:url(#linear-gradient-6);}.cls-9{fill:#343434;}.cls-10,.cls-12,.cls-13,.cls-14,.cls-15,.cls-16,.cls-17{stroke-width:0.6px;}.cls-10{fill:url(#linear-gradient-7);}.cls-11{fill:url(#linear-gradient-8);}.cls-12{fill:url(#linear-gradient-9);}.cls-13{fill:url(#linear-gradient-10);}.cls-14{fill:url(#linear-gradient-11);}.cls-15{fill:url(#linear-gradient-12);}.cls-16{fill:url(#linear-gradient-13);}.cls-17{fill:url(#linear-gradient-14);}.cls-18{fill:none;stroke:#343434;}</style><linearGradient id="linear-gradient" x1="13.18" y1="17.36" x2="29.05" y2="31.87" gradientUnits="userSpaceOnUse"><stop offset="0" stop-color="#f0f0f0"/><stop offset="1" stop-color="#b3b3b3"/></linearGradient><linearGradient id="linear-gradient-2" x1="21.4" y1="28.3" x2="46.22" y2="55.51" xlink:href="#linear-gradient"/><linearGradient id="linear-gradient-3" x1="-0.72" y1="3.79" x2="15.58" y2="33.61" xlink:href="#linear-gradient"/><linearGradient id="linear-gradient-4" x1="14.62" y1="17.11" x2="33.93" y2="31.88" gradientUnits="userSpaceOnUse"><stop offset="0" stop-color="#92d5ee"/><stop offset="0.48" stop-color="#599bb4"/><stop offset="1" stop-color="#185971"/></linearGradient><linearGradient id="linear-gradient-5" x1="18.66" y1="18.75" x2="31.3" y2="26.09" xlink:href="#linear-gradient-4"/><linearGradient id="linear-gradient-6" x1="0.63" y1="1.79" x2="25.97" y2="38.31" xlink:href="#linear-gradient-4"/><linearGradient id="linear-gradient-7" x1="41.45" y1="16.83" x2="54.21" y2="25.33" xlink:href="#linear-gradient-4"/><linearGradient id="linear-gradient-8" x1="43.02" y1="15.75" x2="64.17" y2="29.62" xlink:href="#linear-gradient-4"/><linearGradient id="linear-gradient-9" x1="25.52" y1="-0.94" x2="50.61" y2="35.22" xlink:href="#linear-gradient-4"/><linearGradient id="linear-gradient-10" x1="43.47" y1="32.58" x2="58.7" y2="46.51" xlink:href="#linear-gradient"/><linearGradient id="linear-gradient-11" x1="60.02" y1="27.18" x2="51.63" y2="49.97" xlink:href="#linear-gradient"/><linearGradient id="linear-gradient-12" x1="50.04" y1="32.09" x2="42.29" y2="46.01" xlink:href="#linear-gradient"/><linearGradient id="linear-gradient-13" x1="29.96" y1="19.53" x2="45.82" y2="48.56" xlink:href="#linear-gradient"/><linearGradient id="linear-gradient-14" x1="48.51" y1="39.27" x2="77.13" y2="70.66" xlink:href="#linear-gradient"/></defs><title>CATIA _ (E09) VPE - Product Structure Design</title><rect class="cls-1" x="28" y="24" width="9" height="1"/><rect class="cls-1" x="31" y="38" width="6" height="1"/><rect class="cls-1" x="30" y="25" width="1" height="14"/><polygon class="cls-2" points="8 19.79 14.71 15.54 20.44 16.83 13.69 21.16 8 19.79"/><polygon class="cls-3" points="20 29.25 26.25 24.79 26.13 30.79 20 35.59 20 29.25"/><path class="cls-4" d="M20,36.1h-.09l-12-3.8A.3.3,0,0,1,7.7,32V20a.32.32,0,0,1,.11-.24A.33.33,0,0,1,8,19.7h.07l5.75,1.37a.3.3,0,0,1,.23.29l.1,6.24,5.93,1.56a.29.29,0,0,1,.22.29V35.8a.31.31,0,0,1-.13.25A.34.34,0,0,1,20,36.1Z"/><path class="cls-5" d="M8,20l5.75,1.37.11,6.48L20,29.46V35.8L8,32V20m0-.6a.64.64,0,0,0-.37.13A.58.58,0,0,0,7.4,20V32a.6.6,0,0,0,.42.57l12,3.81.18,0a.63.63,0,0,0,.35-.11.61.61,0,0,0,.25-.49V29.46a.6.6,0,0,0-.45-.58l-5.7-1.5-.1-6a.61.61,0,0,0-.46-.57L8.14,19.42,8,19.4Z"/><polygon class="cls-6" points="19.88 22.67 26.12 17.79 26.12 24.79 19.87 29.25 19.88 22.67"/><polygon class="cls-7" points="13.69 21.16 20.44 16.83 26.12 17.79 19.88 22.67 13.69 21.16"/><polygon class="cls-8" points="19.88 22.67 19.87 29.25 13.8 27.63 13.69 21.16 19.88 22.67"/><path class="cls-9" d="M14.71,15.46l5.73,1.29L26,17.8V31l-6.13,4.51L8,31.71v-12l6.71-4.25m-.19-1.06-.35.22-6.7,4.24-.47.3V32.44l.69.22,11.88,3.8.48.16.41-.3,6.13-4.51.41-.3V17l-.81-.15-5.56-1.05-5.7-1.28-.41-.09Z"/><polygon class="cls-10" points="44.06 19.67 50.49 15.16 50.49 21.44 44.05 26.25 44.06 19.67"/><polygon class="cls-11" points="38.37 18.16 44.82 13.83 50.5 15.2 44.26 19.67 38.37 18.16"/><polygon class="cls-12" points="44.58 19.67 44.58 26.25 38.5 24.63 38.56 18.16 44.58 19.67"/><polygon class="cls-13" points="38.43 34.98 45.25 30.82 50.5 32 44.24 36.43 38.43 34.98"/><polygon class="cls-14" points="50.18 44.52 56.62 39.72 56.62 45.78 50.18 50.86 50.18 44.52"/><polygon class="cls-15" points="43.94 36.43 50.5 32.08 50.5 37.88 44.06 42.9 43.94 36.43"/><polygon class="cls-16" points="44.24 36.43 44.34 42.91 50.42 44.52 50.42 50.86 38.43 47.51 38.43 34.98 44.24 36.43"/><polygon class="cls-17" points="50.68 37.88 56.62 39.72 50.18 44.52 44.11 42.91 50.68 37.88"/><polygon class="cls-18" points="50.5 37.5 50.5 32.13 45.25 30.74 38.43 34.91 38.43 47.44 50.29 50.73 50.29 50.73 50.29 50.73 50.29 50.73 50.29 50.73 56.62 45.71 56.62 39.64 50.5 37.5"/><polygon class="cls-18" points="44.87 13.91 38.5 18.24 38.5 24.72 44.26 26.25 44.26 26.25 44.26 26.25 44.26 26.25 44.26 26.25 50.5 21.53 50.5 15.32 50.5 15.32 44.87 13.91"/></svg>