<svg xmlns="http://www.w3.org/2000/svg" xmlns:xlink="http://www.w3.org/1999/xlink" viewBox="0 0 64 64"><defs><style>.cls-1{fill:url(#linear-gradient);}.De-emphasized-GREY-Fill-15,.De-emphasized-GREY-Fill-5,.cls-15,.cls-2{opacity:0.5;}.cls-15,.cls-3{fill:#fff;}.cls-4,.cls-5,.cls-6{stroke:#787878;}.cls-4,.cls-5,.cls-6,.cls-7{stroke-linecap:round;}.cls-12,.cls-13,.cls-15,.cls-4,.cls-5,.cls-6,.cls-7,.cls-8{stroke-linejoin:round;}.cls-12,.cls-4,.cls-5,.cls-6,.cls-7,.cls-8{stroke-width:0.77px;}.cls-4{fill:url(#linear-gradient-2);}.cls-5{fill:url(#linear-gradient-3);}.cls-6{fill:url(#linear-gradient-4);}.cls-7{stroke:#6d6d6d;fill:url(#linear-gradient-5);}.De-emphasized-GREY-Fill-5{fill:#646565;}.cls-8{stroke:#323232;fill:url(#linear-gradient-6);}.cls-9{fill:url(#linear-gradient-7);}.cls-10{fill:url(#linear-gradient-8);}.cls-11{fill:#323232;}.cls-12,.cls-13{fill:none;}.cls-12{stroke:#3a3634;}.cls-13,.cls-15{stroke:#fff;}.cls-13{stroke-width:2.45px;}.cls-14{fill:#57b847;}.cls-15{stroke-width:2px;}.De-emphasized-GREY-Fill-15{fill:#6b6766;}.DARK-GREY-Fill-9{fill:url(#linear-gradient-14);}</style><linearGradient id="linear-gradient" x1="17.65" y1="7.13" x2="44.5" y2="53.64" gradientUnits="userSpaceOnUse"><stop offset="0" stop-color="#2f85b1"/><stop offset="1" stop-color="#285677"/></linearGradient><linearGradient id="linear-gradient-2" x1="15.07" y1="38.55" x2="52.93" y2="38.55" gradientUnits="userSpaceOnUse"><stop offset="0" stop-color="#363636"/><stop offset="0.27" stop-color="#737373"/><stop offset="0.41" stop-color="#c9c9c9"/></linearGradient><linearGradient id="linear-gradient-3" x1="38.69" y1="28.49" x2="20.82" y2="48.29" gradientUnits="userSpaceOnUse"><stop offset="0" stop-color="#f7f7f7"/><stop offset="1" stop-color="#ccc"/></linearGradient><linearGradient id="linear-gradient-4" x1="20.81" y1="28.77" x2="39.92" y2="28.77" gradientTransform="matrix(0.99, 0, 0, 1, -3.06, 0.4)" xlink:href="#linear-gradient-2"/><linearGradient id="linear-gradient-5" x1="31.07" y1="22.44" x2="19.48" y2="34.33" xlink:href="#linear-gradient-3"/><linearGradient id="linear-gradient-6" x1="24.9" y1="22.72" x2="29.35" y2="30.41" gradientUnits="userSpaceOnUse"><stop offset="0" stop-color="#fff"/><stop offset="1" stop-color="#f1f0f0"/></linearGradient><linearGradient id="linear-gradient-7" x1="26.56" y1="25.13" x2="29.36" y2="29.97" xlink:href="#linear-gradient"/><linearGradient id="linear-gradient-8" x1="25.84" y1="25.93" x2="26.54" y2="27.15" gradientUnits="userSpaceOnUse"><stop offset="0" stop-color="#ababab"/><stop offset="1" stop-color="#5a5b5b"/></linearGradient><linearGradient id="linear-gradient-14" x1="22" y1="26.38" x2="28.33" y2="26.38" gradientUnits="userSpaceOnUse"><stop offset="0" stop-color="#4e4a48"/><stop offset="1" stop-color="#201d1a"/></linearGradient></defs><g id="Calque_8" data-name="Calque 8"><g id="bg2"><path class="cls-1" d="M57,32h0c0-.12,0-.24,0-.36v-.15c0-.38,0-.75,0-1.13v0c0-.31,0-.61-.08-.92v-.05c0-.35-.08-.69-.13-1v0c-.05-.32-.1-.64-.16-.95a.17.17,0,0,0,0-.07q-.09-.48-.21-1h0c-.07-.33-.15-.66-.24-1,0,0,0-.05,0-.07-.08-.29-.17-.57-.26-.86s-.22-.68-.35-1c0,0,0,0,0-.06-.06-.18-.14-.35-.21-.53-.17-.44-.35-.88-.55-1.31a.08.08,0,0,1,0,0c-.12-.25-.24-.49-.37-.74s-.37-.72-.57-1.08h0l-.06-.1c0-.09-.09-.17-.14-.27l-.39-.61a24.7,24.7,0,0,0-3.18-4,3.83,3.83,0,0,0-.28-.29l-.19-.18A24.9,24.9,0,0,0,32,7v.06l1,.79,1,.79-1,.79-1,.79v.15a22,22,0,0,1,5.37.67,21.61,21.61,0,0,1,9.9,5.65h0l.39.39.36.38c.3.33.58.66.85,1l.18.21c.34.43.65.87,1,1.31l.25.39.07.11c.16.26.31.52.46.79l0,0c.13.23.26.47.4.74s.28.54.4.82h0c.12.26.24.54.36.83l.21.51.12.33c.1.27.19.55.28.83s.11.35.17.53l.09.31c.08.29.15.58.22.88s.07.31.1.47.06.25.08.38c.06.3.11.59.15.88l.12.91c0,.28,0,.57.07.85s0,.66,0,1v.51c0,.09,0,.18,0,.26,0,.48,0,1-.07,1.43l0,.28,0,.34c-.08.7-.17,1.34-.3,1.94l-.09.38q-.16.77-.39,1.53l-.15.43-.08.25c-.14.4-.28.8-.44,1.19-.09.23-.19.46-.29.69-.17.38-.36.77-.59,1.21-.09.19-.19.37-.29.55-.22.39-.45.77-.7,1.15l-.13.21-.21.32c-.28.4-.57.79-.88,1.17l-.17.22a1.3,1.3,0,0,1-.15.2,19.57,19.57,0,0,1-1.34,1.47c-.48.49-1,1-1.58,1.44l-.46.34-.55.41c-.23.17-.45.35-.69.51l-.66.4-.56.34c-.2.12-.39.24-.6.34s-.48.24-.72.36l-.56.26-.63.29-.67.25-.61.22-.72.25-.65.17L37,53c-.24.06-.49.13-.75.18l-.8.13-.7.1-.59.08c-.71.07-1.42.11-2.11.11h0c-.69,0-1.4,0-2.12-.11l-.58-.08-.7-.1-.81-.13c-.25-.05-.5-.12-.74-.18l-.66-.16-.65-.17L25,52.44l-.57-.21L23.72,52l-.64-.29-.57-.27c-.23-.11-.47-.22-.7-.35s-.4-.22-.6-.34l-.56-.34L20,50l-.67-.49-.56-.42-.47-.35a22.68,22.68,0,0,1-3-3c-.12-.15-.23-.31-.35-.47l-.42-.56c-.17-.22-.33-.44-.49-.67s-.27-.44-.4-.66l-.34-.56c-.12-.2-.24-.39-.34-.59s-.24-.48-.35-.71l-.27-.57c-.1-.22-.2-.43-.29-.64s-.17-.45-.25-.68L11.56,39c-.09-.25-.18-.5-.26-.75l-.17-.65L11,37c-.06-.24-.13-.49-.18-.75s-.09-.53-.13-.8l-.1-.7c0-.19-.06-.39-.08-.58-.07-.72-.11-1.43-.11-2.14a20.13,20.13,0,0,1,.1-2l.07-.54c0-.26.06-.53.1-.79l.09-.54a21.46,21.46,0,0,1,4.6-9.86l1.58,6,3.54-12L7.7,12.88l5.42,2.74A24.81,24.81,0,0,0,7.53,26.9l-.13.61c-.09.5-.15,1-.22,1.62l0,.16c0,.12,0,.24,0,.36C7,30.45,7,31.24,7,32s0,1.62.12,2.44c0,.26.07.52.11.78l.09.63c0,.34.1.67.16,1s.14.63.23.94l.15.6a8.67,8.67,0,0,0,.22.84c.09.31.2.62.32.93l.19.52c.1.29.2.57.31.86l.37.81.25.53c.14.29.28.59.43.88s.29.51.45.75l.3.51c.16.28.33.56.51.83s.4.56.61.84l.37.5c.16.21.31.42.48.63a24.88,24.88,0,0,0,3.48,3.48l.63.48.5.37c.28.21.55.42.84.61s.55.35.83.51l.51.3c.24.16.5.31.76.45s.58.29.87.43l.53.25.82.37.85.31.52.19c.31.12.62.23.93.32a8.67,8.67,0,0,0,.84.22l.6.15c.31.09.62.17.93.23l1,.16.63.09.78.11a21.71,21.71,0,0,0,2.34.12H32c.8,0,1.62,0,2.43-.12l.79-.11.63-.09,1-.16c.32-.06.63-.14.94-.23l.6-.15a8.67,8.67,0,0,0,.84-.22c.3-.09.6-.2.89-.3l.57-.21.85-.31.81-.37.51-.25.89-.43c.26-.14.51-.29.76-.45l.51-.3c.28-.16.56-.33.83-.51s.58-.41.86-.63l.49-.36c.2-.15.41-.3.62-.47a24.53,24.53,0,0,0,1.83-1.65c.52-.52,1-1.08,1.54-1.7l.26-.33.11-.15c.36-.45.7-.9,1-1.35l.29-.44.12-.19c.28-.43.55-.87.8-1.32l.38-.72c.23-.44.44-.88.64-1.32.12-.26.23-.52.34-.79q.27-.69.51-1.38l.07-.22c.07-.19.13-.38.19-.57q.26-.89.45-1.77l0-.12c0-.11.06-.22.08-.32.14-.71.25-1.44.34-2.24,0-.16,0-.32,0-.48l0-.24c0-.55.07-1.09.09-1.72,0-.1,0-.21,0-.31Z"/></g></g><g id="v4"><g class="cls-2"><path class="cls-3" d="M52.93,37.26l-.67,2.21a.55.55,0,0,1-.34.45c-1.23.61-23.2,9-23.2,9A2.58,2.58,0,0,1,26.16,48c-.9-1.25-10.87-15.38-10.87-15.38L15.07,31c1.25-.34,16.22-2.78,16.22-2.78Z"/><path class="cls-3" d="M36.34,24.24a2.26,2.26,0,0,1,2,.46l14.26,12s.91.68-.34,1.24-23.2,8.68-23.2,8.68a2.93,2.93,0,0,1-2.78-.85L15.18,30.58s-.4-1,.85-1.3,15.26-3.75,15.26-3.75Z"/><path class="cls-3" d="M17.61,27.66c.14,2.52,4.49,4.33,9.73,4.05s9.38-2.56,9.24-5.08"/><path class="cls-3" d="M36.58,26.07c-.13-2.52-4.52-4.33-9.8-4s-9.45,2.56-9.31,5.08,4.53,4.33,9.81,4S36.72,28.59,36.58,26.07Z"/><path class="cls-3" d="M26.94,23.28c4-.22,7.37,1.06,7.82,2.9a2.6,2.6,0,0,0,0-.4c-.11-2-3.64-3.46-7.88-3.23s-7.58,2.05-7.47,4.07a1.88,1.88,0,0,0,0,.33C19.81,25.09,23,23.49,26.94,23.28Z"/><path class="cls-3" d="M27.31,29.85c4-.22,7.13-1.82,7.45-3.67-.45-1.84-3.82-3.12-7.82-2.9S19.81,25.09,19.49,27C19.94,28.79,23.31,30.07,27.31,29.85Z"/><path class="cls-3" d="M29.05,23.69l-2.51,3.09-5.37,1.56a11.64,11.64,0,0,0,6.12,1.13c3.63-.2,6.71-1.63,7.08-3.27C34,24.89,31.81,23.92,29.05,23.69Z"/><path class="cls-3" d="M29.49,24.74c2,.24,3.36.89,3.79,1.5-.53.88-2.73,2.05-6,2.23l-.81,0a12.91,12.91,0,0,1-1.79-.12l2.18-.63.3-.09.2-.24,2.17-2.67m-.44-1-2.51,3.09-5.37,1.56a10.88,10.88,0,0,0,5.26,1.15l.86,0c3.63-.2,6.71-1.63,7.08-3.27-.4-1.31-2.56-2.28-5.32-2.51Z"/><path class="cls-3" d="M26.58,27a1.17,1.17,0,0,1-.49-.11l-1-.47,2.2.34-.07.05A1.12,1.12,0,0,1,26.58,27Z"/><path class="cls-3" d="M22.51,25.58l3.41,1.61a1.52,1.52,0,0,0,1.51-.11l.9-.59-5.82-.91Z"/><path class="cls-3" d="M52.93,37.27h0a.78.78,0,0,0-.32-.58l-14.26-12a2.26,2.26,0,0,0-2-.46l-.56.14c-1.52-1.58-5-2.57-9-2.35-5.28.29-9.45,2.56-9.31,5.08a2.1,2.1,0,0,0,.16.69,2.51,2.51,0,0,0,.35,1L16,29.28c-1.25.34-.85,1.3-.85,1.3l.22.3-.33.07.22,1.7S25.26,46.78,26.16,48a2.58,2.58,0,0,0,2.56.85s22-8.35,23.2-9a.55.55,0,0,0,.34-.45l.62-2A.49.49,0,0,0,52.93,37.27Z"/><path class="cls-4" d="M52.93,37.26l-.67,2.21a.55.55,0,0,1-.34.45c-1.23.61-23.2,9-23.2,9A2.58,2.58,0,0,1,26.16,48c-.9-1.25-10.87-15.38-10.87-15.38L15.07,31c1.25-.34,16.22-2.78,16.22-2.78Z"/><path class="cls-5" d="M36.34,24.24a2.26,2.26,0,0,1,2,.46l14.26,12s.91.68-.34,1.24-23.2,8.68-23.2,8.68a2.93,2.93,0,0,1-2.78-.85L15.18,30.58s-.4-1,.85-1.3,15.26-3.75,15.26-3.75Z"/><path class="cls-6" d="M17.61,27.66c.14,2.52,4.49,4.33,9.73,4.05s9.38-2.56,9.24-5.08"/><path class="cls-7" d="M36.58,26.07c-.13-2.52-4.52-4.33-9.8-4s-9.45,2.56-9.31,5.08,4.53,4.33,9.81,4S36.72,28.59,36.58,26.07Z"/><path class="De-emphasized-GREY-Fill-5" d="M26.94,23.28c4-.22,7.37,1.06,7.82,2.9a2.6,2.6,0,0,0,0-.4c-.11-2-3.64-3.46-7.88-3.23s-7.58,2.05-7.47,4.07a1.88,1.88,0,0,0,0,.33C19.81,25.09,23,23.49,26.94,23.28Z"/><path class="cls-8" d="M27.31,29.85c4-.22,7.13-1.82,7.45-3.67-.45-1.84-3.82-3.12-7.82-2.9S19.81,25.09,19.49,27C19.94,28.79,23.31,30.07,27.31,29.85Z"/><path class="cls-9" d="M29.05,23.69l-2.51,3.09-5.37,1.56a11.64,11.64,0,0,0,6.12,1.13c3.63-.2,6.71-1.63,7.08-3.27C34,24.89,31.81,23.92,29.05,23.69Z"/><path class="cls-10" d="M26.58,27a1.17,1.17,0,0,1-.49-.11l-1-.47,2.2.34-.07.05A1.12,1.12,0,0,1,26.58,27Z"/><path class="cls-11" d="M22.51,25.58l3.41,1.61a1.52,1.52,0,0,0,1.51-.11l.9-.59-5.82-.91Z"/><path class="cls-12" d="M52.93,37.27h0a.78.78,0,0,0-.32-.58l-14.26-12a2.26,2.26,0,0,0-2-.46l-.56.14c-1.52-1.58-5-2.57-9-2.35-5.28.29-9.45,2.56-9.31,5.08a2.1,2.1,0,0,0,.16.69,2.51,2.51,0,0,0,.35,1L16,29.28c-1.25.34-.85,1.3-.85,1.3l.22.3-.33.07.22,1.7S25.26,46.78,26.16,48a2.58,2.58,0,0,0,2.56.85s22-8.35,23.2-9a.55.55,0,0,0,.34-.45l.62-2A.49.49,0,0,0,52.93,37.27Z"/><path class="cls-13" d="M52.93,37.26l-.67,2.21a.55.55,0,0,1-.34.45c-1.23.61-23.2,9-23.2,9A2.58,2.58,0,0,1,26.16,48c-.9-1.25-10.87-15.38-10.87-15.38L15.07,31c1.25-.34,16.22-2.78,16.22-2.78Z"/><path class="cls-13" d="M36.34,24.24a2.26,2.26,0,0,1,2,.46l14.26,12s.91.68-.34,1.24-23.2,8.68-23.2,8.68a2.93,2.93,0,0,1-2.78-.85L15.18,30.58s-.4-1,.85-1.3,15.26-3.75,15.26-3.75Z"/><path class="cls-13" d="M17.61,27.66c.14,2.52,4.49,4.33,9.73,4.05s9.38-2.56,9.24-5.08"/><path class="cls-13" d="M36.58,26.07c-.13-2.52-4.52-4.33-9.8-4s-9.45,2.56-9.31,5.08,4.53,4.33,9.81,4S36.72,28.59,36.58,26.07Z"/><path class="cls-13" d="M26.94,23.28c4-.22,7.37,1.06,7.82,2.9a2.6,2.6,0,0,0,0-.4c-.11-2-3.64-3.46-7.88-3.23s-7.58,2.05-7.47,4.07a1.88,1.88,0,0,0,0,.33C19.81,25.09,23,23.49,26.94,23.28Z"/><path class="cls-13" d="M27.31,29.85c4-.22,7.13-1.82,7.45-3.67-.45-1.84-3.82-3.12-7.82-2.9S19.81,25.09,19.49,27C19.94,28.79,23.31,30.07,27.31,29.85Z"/><path class="cls-13" d="M29.05,23.69l-2.51,3.09-5.37,1.56a11.64,11.64,0,0,0,6.12,1.13c3.63-.2,6.71-1.63,7.08-3.27C34,24.89,31.81,23.92,29.05,23.69Z"/><path class="cls-13" d="M29.49,24.74c2,.24,3.36.89,3.79,1.5-.53.88-2.73,2.05-6,2.23l-.81,0a12.91,12.91,0,0,1-1.79-.12l2.18-.63.3-.09.2-.24,2.17-2.67m-.44-1-2.51,3.09-5.37,1.56a10.88,10.88,0,0,0,5.26,1.15l.86,0c3.63-.2,6.71-1.63,7.08-3.27-.4-1.31-2.56-2.28-5.32-2.51Z"/><path class="cls-13" d="M26.58,27a1.17,1.17,0,0,1-.49-.11l-1-.47,2.2.34-.07.05A1.12,1.12,0,0,1,26.58,27Z"/><path class="cls-13" d="M22.51,25.58l3.41,1.61a1.52,1.52,0,0,0,1.51-.11l.9-.59-5.82-.91Z"/><path class="cls-13" d="M52.93,37.27h0a.78.78,0,0,0-.32-.58l-14.26-12a2.26,2.26,0,0,0-2-.46l-.56.14c-1.52-1.58-5-2.57-9-2.35-5.28.29-9.45,2.56-9.31,5.08a2.1,2.1,0,0,0,.16.69,2.51,2.51,0,0,0,.35,1L16,29.28c-1.25.34-.85,1.3-.85,1.3l.22.3-.33.07.22,1.7S25.26,46.78,26.16,48a2.58,2.58,0,0,0,2.56.85s22-8.35,23.2-9a.55.55,0,0,0,.34-.45l.62-2A.49.49,0,0,0,52.93,37.27Z"/></g><path class="cls-4" d="M52.93,37.26l-.67,2.21a.55.55,0,0,1-.34.45c-1.23.61-23.2,9-23.2,9A2.58,2.58,0,0,1,26.16,48c-.9-1.25-10.87-15.38-10.87-15.38L15.07,31c1.25-.34,16.22-2.78,16.22-2.78Z"/><path class="cls-5" d="M36.34,24.24a2.26,2.26,0,0,1,2,.46l14.26,12s.91.68-.34,1.24-23.2,8.68-23.2,8.68a2.93,2.93,0,0,1-2.78-.85L15.18,30.58s-.4-1,.85-1.3,15.26-3.75,15.26-3.75Z"/><path class="cls-6" d="M17.61,27.66c.14,2.52,4.49,4.33,9.73,4.05s9.38-2.56,9.24-5.08"/><path class="cls-7" d="M36.58,26.07c-.13-2.52-4.52-4.33-9.8-4s-9.45,2.56-9.31,5.08,4.53,4.33,9.81,4S36.72,28.59,36.58,26.07Z"/><path class="De-emphasized-GREY-Fill-5" d="M26.94,23.28c4-.22,7.37,1.06,7.82,2.9a2.6,2.6,0,0,0,0-.4c-.11-2-3.64-3.46-7.88-3.23s-7.58,2.05-7.47,4.07a1.88,1.88,0,0,0,0,.33C19.81,25.09,23,23.49,26.94,23.28Z"/><path class="cls-8" d="M27.31,29.85c4-.22,7.13-1.82,7.45-3.67-.45-1.84-3.82-3.12-7.82-2.9S19.81,25.09,19.49,27C19.94,28.79,23.31,30.07,27.31,29.85Z"/><path class="cls-14" d="M19.88,26.93a3,3,0,0,0,1.66,1.61l5-1.76L24,24.12C21.78,24.71,20.15,25.76,19.88,26.93Z"/><path class="cls-15" d="M22,25.42l6.33,1-1,.65a1.68,1.68,0,0,1-1.64.12Z"/><path class="De-emphasized-GREY-Fill-15" d="M21,25.12l7.33,1.14L27.19,27a1.93,1.93,0,0,1-1.89.13Z"/><path class="DARK-GREY-Fill-9" d="M22,25.42l6.33,1-1,.65a1.68,1.68,0,0,1-1.64.12Z"/><path class="cls-12" d="M52.93,37.27h0a.78.78,0,0,0-.32-.58l-14.26-12a2.26,2.26,0,0,0-2-.46l-.56.14c-1.52-1.58-5-2.57-9-2.35-5.28.29-9.45,2.56-9.31,5.08a2.1,2.1,0,0,0,.16.69,2.51,2.51,0,0,0,.35,1L16,29.28c-1.25.34-.89,1.65-1,1.67l.22,1.7S25.26,46.78,26.16,48a2.58,2.58,0,0,0,2.56.85s22-8.35,23.2-9a.55.55,0,0,0,.34-.45l.62-2A.49.49,0,0,0,52.93,37.27Z"/></g></svg>