<?xml version="1.0" encoding="utf-8"?>
<!-- Generator: Adobe Illustrator 25.3.1, SVG Export Plug-In . SVG Version: 6.00 Build 0)  -->
<svg version="1.1" xmlns="http://www.w3.org/2000/svg" xmlns:xlink="http://www.w3.org/1999/xlink" x="0px" y="0px"
	 viewBox="0 0 64 64" style="enable-background:new 0 0 64 64;" xml:space="preserve">
<style type="text/css">
	.st0{fill:url(#SVGID_1_);stroke:#6D6D6D;stroke-width:0.6;stroke-linecap:round;stroke-linejoin:round;stroke-miterlimit:10;}
	.st1{fill:url(#SVGID_2_);}
	.st2{fill:url(#SVGID_3_);}
	.st3{fill:url(#SVGID_4_);stroke:#6D6D6D;stroke-width:0.6;stroke-linecap:round;stroke-linejoin:round;stroke-miterlimit:10;}
	.st4{fill:none;stroke:#000000;stroke-linecap:round;stroke-linejoin:round;stroke-miterlimit:10;}
	.st5{fill:url(#SVGID_5_);stroke:#6D6D6D;stroke-width:0.6;stroke-linecap:round;stroke-linejoin:round;stroke-miterlimit:10;}
	.st6{fill:url(#SVGID_6_);stroke:#6D6D6D;stroke-width:0.6;stroke-linecap:round;stroke-linejoin:round;stroke-miterlimit:10;}
	.st7{fill:url(#SVGID_7_);stroke:#6D6D6D;stroke-width:0.75;stroke-linecap:round;stroke-linejoin:round;stroke-miterlimit:10;}
	.st8{fill:url(#SVGID_8_);stroke:#6D6D6D;stroke-width:0.75;stroke-linecap:round;stroke-linejoin:round;stroke-miterlimit:10;}
	.st9{fill:url(#SVGID_9_);stroke:#6D6D6D;stroke-width:0.75;stroke-linecap:round;stroke-linejoin:round;stroke-miterlimit:10;}
	.st10{fill:url(#SVGID_10_);stroke:#6D6D6D;stroke-width:0.75;stroke-linecap:round;stroke-linejoin:round;stroke-miterlimit:10;}
	.st11{fill:url(#SVGID_11_);stroke:#6D6D6D;stroke-width:0.75;stroke-linecap:round;stroke-linejoin:round;stroke-miterlimit:10;}
	.st12{fill:url(#SVGID_12_);stroke:#6D6D6D;stroke-width:0.75;stroke-linecap:round;stroke-linejoin:round;stroke-miterlimit:10;}
	.st13{fill:#CDE7FA;}
	.st14{fill:#82BDDB;}
	.st15{fill:#5A9AB8;}
	.st16{fill:#285977;}
	.st17{fill:#AADCFA;}
	.st18{fill:#FFFFFF;}
	.st19{fill:none;stroke:#000000;stroke-width:0.2;stroke-linecap:round;stroke-linejoin:round;}
	.st20{fill:none;stroke:#000000;stroke-linecap:round;stroke-linejoin:round;}
	.st21{fill:none;stroke:#000000;stroke-width:0.5;stroke-linecap:round;stroke-linejoin:round;}
	.st22{fill:none;stroke:#000000;stroke-width:0.71;stroke-linecap:round;stroke-linejoin:round;}
	.st23{fill:none;stroke:#000000;stroke-width:0.25;stroke-linecap:round;stroke-linejoin:round;}
</style>
<g id="Layer_2">
	
		<linearGradient id="SVGID_1_" gradientUnits="userSpaceOnUse" x1="6.9515" y1="17.8973" x2="28.842" y2="17.8973" gradientTransform="matrix(-0.9988 -4.869113e-02 -4.869113e-02 0.9988 59.4877 1.06)">
		<stop  offset="0" style="stop-color:#666666"/>
		<stop  offset="0.1505" style="stop-color:#DBDCDD"/>
		<stop  offset="0.219" style="stop-color:#D8D9DA"/>
		<stop  offset="0.2784" style="stop-color:#CDCECF"/>
		<stop  offset="0.3346" style="stop-color:#BCBCBD"/>
		<stop  offset="0.3886" style="stop-color:#A3A3A4"/>
		<stop  offset="0.4408" style="stop-color:#838484"/>
		<stop  offset="0.4804" style="stop-color:#666666"/>
		<stop  offset="0.5187" style="stop-color:#808081"/>
		<stop  offset="0.5674" style="stop-color:#999A9B"/>
		<stop  offset="0.6211" style="stop-color:#ADAFAF"/>
		<stop  offset="0.6814" style="stop-color:#BBBDBE"/>
		<stop  offset="0.7538" style="stop-color:#C3C5C6"/>
		<stop  offset="0.871" style="stop-color:#C6C8C9"/>
		<stop  offset="1" style="stop-color:#F2F2F2"/>
	</linearGradient>
	<path class="st0" d="M52.1,10.5l-0.4,7.7c0,0-0.2,1.5-0.6,2.2c-0.4,0.8-3.6,4.1-6.2,6.4c-0.4,0.4-1.5,1.6-2.8,1.5
		c-1.3-0.1-1.8-1.1-4.5-3.9c-1.4-1.4-4.1-4.2-6-6c-1-0.9-1.4-1.7-1.5-2.3c-0.1-0.7-0.1-2.3,0.1-2.8s0.6-1,1.5-1.2
		c0.8-0.2,4.1,5,4.1,5l5.9,3.4c0,0,6.5-12.2,6.7-12.2C48.6,8.2,52.1,10.5,52.1,10.5z"/>
	
		<linearGradient id="SVGID_2_" gradientUnits="userSpaceOnUse" x1="31.6998" y1="43.8865" x2="45.1041" y2="43.8865" gradientTransform="matrix(-0.9938 -0.111 -0.111 0.9938 63.6547 4.6235)">
		<stop  offset="0" style="stop-color:#545454"/>
		<stop  offset="1" style="stop-color:#9E9E9E"/>
	</linearGradient>
	<path class="st1" d="M25.2,48.6l-3.1-3.8c-0.8-1.1-2.6-1.3-3.8-0.2l-2.9,2.2l-1.5-1l0.3-4l6.3-2l4.6,2.5l2,4.6L25.2,48.6z"/>
	
		<linearGradient id="SVGID_3_" gradientUnits="userSpaceOnUse" x1="12.7234" y1="13.2234" x2="22.8723" y2="13.2234" gradientTransform="matrix(-1 0 0 1 58.6638 0)">
		<stop  offset="0" style="stop-color:#545454"/>
		<stop  offset="1" style="stop-color:#9E9E9E"/>
	</linearGradient>
	<polygon class="st2" points="45.9,16.4 36.3,16.7 35.8,14.3 38.9,11.5 45.7,9.8 	"/>
	
		<linearGradient id="SVGID_4_" gradientUnits="userSpaceOnUse" x1="22.8863" y1="20.4121" x2="11.4842" y2="4.309" gradientTransform="matrix(-1 0 0 1 58.6638 0)">
		<stop  offset="0.135" style="stop-color:#FFFFFF"/>
		<stop  offset="0.1907" style="stop-color:#F4F4F4"/>
		<stop  offset="0.3679" style="stop-color:#D4D4D4"/>
		<stop  offset="0.5176" style="stop-color:#C1C1C1"/>
		<stop  offset="0.6212" style="stop-color:#BABABA"/>
		<stop  offset="0.6429" style="stop-color:#C2C2C2"/>
		<stop  offset="0.7713" style="stop-color:#EEEEEE"/>
		<stop  offset="0.8364" style="stop-color:#FFFFFF"/>
	</linearGradient>
	<path class="st3" d="M31.2,14.8c1.1,1.1,6.4,5.9,8.9,8.8c1.9,2.1,3.8,1.1,4.7-0.2c2.7-3.9,4.6-9.9,5.4-10.6c1.8-1.6,2.6-2.6,1-3.7
		c-1.5-1-3.2-1.2-6.2-1c-0.9,0.1-2.4,0.8-4.5,1.4c-1.7,0.5-7.7,2-8.9,2.3C31,11.8,28.9,12.7,31.2,14.8z M37.5,14
		c1.3-0.5,4.8-2.1,5.5-2.3c1-0.3,1.6-0.4,2.1,0c0.5,0.5-0.1,0.9-0.7,1.8c-0.8,1.3-1.9,3.3-2.7,4.8c-0.4,0.6-1.2,0.7-1.7,0.2
		c-1-1.1-1.9-1.8-3-2.9C36.5,15.2,36.8,14.3,37.5,14z"/>
	<path class="st4" d="M30.1,13.3C30.1,13.3,30.1,13.3,30.1,13.3c0.2-1,0.9-1.5,1.5-1.6c1.4-0.4,6.7-1.6,8.7-2.2
		c2.1-0.6,3.9-1.3,4.8-1.4C48,7.8,49.6,8,51.1,9C52,9.6,52,10.2,52,11.1l-0.4,7.5c0,0-0.2,1.5-0.6,2.2c-0.4,0.8-3,3.2-5.5,5.9
		c-0.4,0.4-1.9,1.9-3.7,1.6c-1.3-0.2-2.3-2-5.1-4.7c-1.4-1.4-3.2-3.4-5.1-5.2c-1-0.9-1.4-1.7-1.5-2.3C29.9,15.5,29.9,13.8,30.1,13.3
		z"/>
	
		<linearGradient id="SVGID_5_" gradientUnits="userSpaceOnUse" x1="27.3252" y1="51.7132" x2="51.9276" y2="51.7132" gradientTransform="matrix(-0.9431 -6.096172e-03 -6.274843e-03 0.9708 57.1678 0.7695)">
		<stop  offset="0" style="stop-color:#666666"/>
		<stop  offset="0.1338" style="stop-color:#DBDCDD"/>
		<stop  offset="0.4565" style="stop-color:#D8D9DA"/>
		<stop  offset="0.7364" style="stop-color:#CDCFD0"/>
		<stop  offset="0.8542" style="stop-color:#C6C8C9"/>
		<stop  offset="1" style="stop-color:#F2F2F2"/>
	</linearGradient>
	<path class="st5" d="M31.1,51.4c0,0,0,1.6,0,2.3s-0.9,1.6-2.5,1.6c-2.2,0-16.3,0.1-18.3-0.1s-2.4-1.1-2.5-1.8c0-0.7,0-7.5,0-7.5
		l6.3,0.8l15.5,4.1l0.7-0.3L31.1,51.4z"/>
	
		<linearGradient id="SVGID_6_" gradientUnits="userSpaceOnUse" x1="32.1436" y1="42.4052" x2="47.8122" y2="54.1282" gradientTransform="matrix(-0.9938 -0.111 -0.111 0.9938 63.6547 4.6235)">
		<stop  offset="0.135" style="stop-color:#FFFFFF"/>
		<stop  offset="0.1907" style="stop-color:#F4F4F4"/>
		<stop  offset="0.3679" style="stop-color:#D4D4D4"/>
		<stop  offset="0.5176" style="stop-color:#C1C1C1"/>
		<stop  offset="0.6212" style="stop-color:#BABABA"/>
		<stop  offset="0.6429" style="stop-color:#C2C2C2"/>
		<stop  offset="0.7713" style="stop-color:#EEEEEE"/>
		<stop  offset="0.8364" style="stop-color:#FFFFFF"/>
	</linearGradient>
	<path class="st6" d="M9.9,47.7l4.6,0.1l15.6,4.1c0.5,0.1,1.4-0.3,0.4-2.2c-0.8-1.7-1.8-3.1-3.1-4.9c-2.1-3.1-3.6-4.3-4.9-5.7
		c-1.5-1.5-3.2-1.9-4.8-0.9c0,0-5.9,2.9-6.8,3.5c-0.8,0.6-2.9,3-2.9,3C7.2,45.9,8.6,47.6,9.9,47.7z M15.2,43.1
		c0.5-0.3,1.3-1,2.9-1.6c1-0.4,3.4,0.1,3.9,0.5c0.9,0.6,1.3,1.2,2.1,2.2c0.7,0.9,1.3,1.7,1.6,2.6c0.2,0.6-1,1.5-2.4,1.1
		c0,0-6-1.5-6.9-1.8c-0.8-0.2-1.7-0.9-1.9-1.6C14.5,44.3,14.4,43.6,15.2,43.1z"/>
	<path class="st4" d="M8.2,44.4c0.7-0.8,2-1.9,2.8-2.6c0.8-0.6,6.8-3.7,6.8-3.7c1.6-1,3.3-0.6,4.8,0.9c1.3,1.3,2.8,2.6,4.9,5.7
		c1.2,1.8,2.2,3.4,3,5c0.4,0.8,0.5,1.7,0.5,1.7s0,1.6,0,2.3c0,0.7-0.9,1.6-2.5,1.6c-2.2,0-16.3,0.1-18.3-0.1s-2.4-1.1-2.5-1.8
		c-0.2-2.2-0.1-2.7-0.2-4.5c0-0.6-0.1-2.7,0-3.2C7.6,45,8,44.7,8.2,44.4z"/>
	
		<linearGradient id="SVGID_7_" gradientUnits="userSpaceOnUse" x1="50.6758" y1="9.9114" x2="54.5496" y2="9.9114" gradientTransform="matrix(0.8338 -0.1549 0.1614 1.172 2.578 6.9346)">
		<stop  offset="0" style="stop-color:#8A8A8A"/>
		<stop  offset="1" style="stop-color:#383838"/>
	</linearGradient>
	<path class="st7" d="M49.7,10.3c0-0.5-0.8-0.9-1.7-0.8c-0.9,0.1-1.6,0.6-1.6,1.1c0,0.5,0.8,0.9,1.7,0.8
		C49,11.3,49.7,10.8,49.7,10.3z"/>
	
		<linearGradient id="SVGID_8_" gradientUnits="userSpaceOnUse" x1="42.5961" y1="19.465" x2="46.4699" y2="19.465" gradientTransform="matrix(0.7055 -0.7127 0.9937 1.0987 -8.2062 31.5892)">
		<stop  offset="0" style="stop-color:#8A8A8A"/>
		<stop  offset="1" style="stop-color:#383838"/>
	</linearGradient>
	<path class="st8" d="M44.1,20c-0.4-0.5-1.4-0.4-2.3,0.3C41,21,40.6,22,41.1,22.5c0.4,0.5,1.4,0.4,2.3-0.3
		C44.2,21.5,44.5,20.5,44.1,20z"/>
	
		<linearGradient id="SVGID_9_" gradientUnits="userSpaceOnUse" x1="39.8829" y1="10.4342" x2="43.7566" y2="10.4342" gradientTransform="matrix(0.6386 -0.3501 0.4338 0.8747 2.4934 19.0009)">
		<stop  offset="0" style="stop-color:#8A8A8A"/>
		<stop  offset="1" style="stop-color:#383838"/>
	</linearGradient>
	<path class="st9" d="M35,12.9c-0.2-0.4-0.9-0.5-1.6-0.2c-0.7,0.3-1.2,0.9-1,1.3c0.2,0.4,0.9,0.5,1.6,0.2
		C34.8,13.9,35.2,13.3,35,12.9z"/>
	
		<linearGradient id="SVGID_10_" gradientUnits="userSpaceOnUse" x1="14.5655" y1="46.1711" x2="17.9187" y2="46.1711" gradientTransform="matrix(0.9938 0.111 -0.111 0.9938 0.3831 -2.4441)">
		<stop  offset="0" style="stop-color:#8A8A8A"/>
		<stop  offset="1" style="stop-color:#383838"/>
	</linearGradient>
	<path class="st10" d="M13.1,45c-0.1-0.5-0.9-0.8-1.8-0.7c-0.9,0.1-1.7,0.6-1.6,1.1c0.1,0.5,0.9,0.8,1.8,0.7
		C12.4,46,13.2,45.5,13.1,45z"/>
	
		<linearGradient id="SVGID_11_" gradientUnits="userSpaceOnUse" x1="23.8575" y1="37.8044" x2="26.7885" y2="37.8044" gradientTransform="matrix(0.9103 0.4139 -0.4139 0.9103 12.5652 -5.1193)">
		<stop  offset="0" style="stop-color:#8A8A8A"/>
		<stop  offset="1" style="stop-color:#383838"/>
	</linearGradient>
	<path class="st11" d="M21.4,40.1c0.1-0.4-0.5-0.9-1.3-1c-0.8-0.2-1.5,0.1-1.6,0.5c-0.1,0.4,0.5,0.9,1.3,1
		C20.6,40.7,21.4,40.5,21.4,40.1z"/>
	
		<linearGradient id="SVGID_12_" gradientUnits="userSpaceOnUse" x1="34.3328" y1="42.4815" x2="37.2637" y2="42.4815" gradientTransform="matrix(0.8375 0.5464 -0.5464 0.8375 20.7619 -5.9964)">
		<stop  offset="0" style="stop-color:#8A8A8A"/>
		<stop  offset="1" style="stop-color:#383838"/>
	</linearGradient>
	<path class="st12" d="M28.9,49.6c0.1-0.4-0.4-1-1.1-1.2c-0.8-0.3-1.5-0.2-1.7,0.2c-0.1,0.4,0.4,1,1.1,1.2
		C28,50.2,28.8,50,28.9,49.6z"/>
	<path class="st4" d="M42.8,16.1l-5,0.1l2.2,2.2c0.6,0.6,1.5,0.4,1.8-0.3L42.8,16.1z"/>
	<path class="st4" d="M16.6,46c-0.2-0.1-0.3-0.3-0.1-0.4c0.6-0.4,1.7-0.8,2.1-1.1c1.1-0.7,2.6-0.1,3.6,0.7l2.1,2.6
		c0,0-0.1,0.2-0.7,0.1C23,47.8,16.6,46,16.6,46z"/>
</g>
<g id="Layer_3">
	<path id="_01_top_1_" class="st13" d="M41.5,33.2l-5.6-6.3L23.8,14.5l-3.9-4.7l-1.1-0.1l1.7,5l19.1,18.3L41.5,33.2z"/>
	<path id="D_05" class="st14" d="M33,43.2L8.7,18l-2.1-0.1c0,0,2.6,3.9,5.5,7.3s18.6,19,18.6,19L33,43.2z"/>
	<path id="D_04" class="st15" d="M33.6,42.2c-3-1.6-23-25.8-23-25.8s-0.5,1.5-1.4,1.8c0,0,2.2,3,4.1,5.2s19.3,19.6,19.3,19.6
		S33.4,43.1,33.6,42.2z"/>
	<path id="_03-2" class="st16" d="M35.8,35.4L13.5,11.5L10.4,18c0,0,2.1,2.8,3.8,4.8s19.2,19.7,19.2,19.7L35.8,35.4z"/>
	<path id="_02-3" class="st14" d="M37.6,33.3c0,0-14.6-15.1-17.5-18.1s-4.8-5.8-4.8-5.8l-2,2.5l2.8,3.7l19.5,20.1l0.7-1.3L37.6,33.3
		z"/>
	<path id="_01_top" class="st17" d="M40.1,32.8l-5.6-6.3L22.4,14.2l-3.9-4.7l-3.3,0.1l3.9,4.8l18.6,19L40.1,32.8z"/>
	<path class="st18" d="M45.2,37l-3.5-4c0,0-1.1-0.1-2.5,0.1s-2.5,0.6-3.1,1.5c-0.6,0.9-2.9,8.4-2.9,8.4l-2.4,1.1l6.5,10.6
		c0,0,2.7,0.3,3.5-0.1c0.7-0.4,2.2-8.9,4.1-9.4c0.8-0.2,3-0.7,3-0.7l5.6,9.5l0.9,0.6l2.2-0.1c0,0-2.6-6.1-3.7-8
		C51.9,44.8,45.2,37,45.2,37z"/>
	<path id="_02-6_1_" class="st19" d="M43.2,47.6c0,0-1.4-3.4-4.6-7.9c-2.9-4-6.7-8-10.2-11.5c-4.8-4.9-9.1-9.2-10-10
		c-2.2-2.1-5.3-6.4-5.3-6.4"/>
	<path id="_02-6_4_" class="st19" d="M45.4,44.6c0,0-1.5-2.8-4.7-7.3c-2.9-4-6.7-8-10.2-11.5c-4.8-4.9-9.1-9.2-10-10
		c-2.2-2.1-5.3-6.4-5.3-6.4"/>
	<path id="_02-6_5_" class="st19" d="M48,44.5c0,0-1.2-2.5-4.4-7c-2.9-4-6.4-8.2-9.9-11.8c-4.8-4.9-9-9.1-9.8-9.9
		c-2.3-2.3-5.5-6.3-5.5-6.3"/>
	<path id="_02-6_6_" class="st20" d="M37.4,54.6c0,0-2-4.3-5.2-8.8c-2.9-4-7.1-7.5-10.6-11c-4.8-4.9-8-7.9-10.3-10.6
		C9.4,22,6.7,18,6.7,18l2.4,0.1c0,0,0.6,0,0.8-0.1c0.2-0.1,1.2-1.8,1.4-2.2c0.6-1.2,1.6-3.6,2.3-4.6c0.4-0.6,1.5-1.7,2.3-1.8
		c0.9-0.1,2.5-0.1,3.5,0.3c0,0,1.1,0.5,2,1.5c2.5,2.6,9.1,9.1,15.8,16.3c3.4,3.7,5.7,6.4,8.5,10.5"/>
	<path id="_02-6_9_" class="st20" d="M56.8,54.5c0,0-1.5-4.9-4.9-9.3c-1.6-2.1-2.5-3.5-6-7.1"/>
	<path class="st20" d="M53.5,53.7c0.3,0.6,0.2,0.5,0.6,0.8c0.3,0.2,0.8,0.2,0.8,0.2l1.7,0"/>
	<path class="st21" d="M47.7,44.3c0.7,0.1,1.4,0.2,1.9,0.5c0.4,0.2,1,0.4,1.4,1.5c0.6,1.6,2,5.6,2.6,7.4"/>
	<path class="st20" d="M37.7,54.8l2.5,0c0,0,0.5,0,0.8-0.2c0.3-0.3,0.3-0.1,0.4-0.7c0.5-1.8,1.8-6,2.5-7.5c0.6-1.4,3.5-1.8,4.1-1.7"
		/>
	<path class="st22" d="M51.8,45.6l-0.9,0.2"/>
	<path class="st21" d="M34.2,48.8l1.9-0.5c0,0,0.4-0.2,0.7-0.4c0.3-0.3,0.2-0.2,0.4-0.8c0.6-1.9,1.8-5.9,2.4-7.4
		c0.6-1.4,1.6-1.6,2.3-1.8c0.9-0.4,2.7-0.2,3.7,0.3c0.4,0.2,1,0.6,1.4,1.6"/>
	<path class="st21" d="M43.4,34.9c-0.9-1.2-1.5-1.7-1.9-1.9c-1-0.4-2.6-0.2-3.5,0.1c-0.6,0.3-1.6,0.4-2.3,1.8
		c-0.6,1.4-1.6,4.9-2.2,6.8c-0.2,0.7-0.1,0.5-0.3,0.9c-0.1,0.2-0.6,0.5-0.6,0.5l-1.8,0.8"/>
	<path id="_02-6_2_" class="st19" d="M41.3,54.1c0,0-2.2-4.2-5.4-8.7c-2.9-4-6.9-7.8-10.4-11.4c-4.8-4.9-9.1-9.2-10-10
		c-2.2-2.1-5.3-6.4-5.3-6.4"/>
	<path id="_02-6_3_" class="st19" d="M40.3,54.8c0,0-2.2-4.2-5.4-8.7c-2.9-4-6.9-7.8-10.4-11.4c-4.8-4.9-9.1-9.2-10-10
		c-2.2-2.1-5.3-6.4-5.3-6.4"/>
	<line class="st20" x1="48.1" y1="44.7" x2="53.8" y2="54.2"/>
	<line class="st23" x1="50.7" y1="45.5" x2="46.1" y2="38.8"/>
</g>
</svg>
