<?xml version="1.0" encoding="UTF-8" standalone="no"?>
<!-- Generator: Adobe Illustrator 25.3.1, SVG Export Plug-In . SVG Version: 6.00 Build 0)  -->

<svg
   version="1.1"
   id="Layer_4"
   x="0px"
   y="0px"
   viewBox="0 0 64 64"
   style="enable-background:new 0 0 64 64;"
   xml:space="preserve"
   sodipodi:docname="CATXNS_AP_AppIcon.svg"
   inkscape:version="1.1 (c68e22c387, 2021-05-23)"
   xmlns:inkscape="http://www.inkscape.org/namespaces/inkscape"
   xmlns:sodipodi="http://sodipodi.sourceforge.net/DTD/sodipodi-0.dtd"
   xmlns="http://www.w3.org/2000/svg"
   xmlns:svg="http://www.w3.org/2000/svg"><defs
   id="defs170" /><sodipodi:namedview
   id="namedview168"
   pagecolor="#ffffff"
   bordercolor="#666666"
   borderopacity="1.0"
   inkscape:pageshadow="2"
   inkscape:pageopacity="0.0"
   inkscape:pagecheckerboard="0"
   showgrid="false"
   inkscape:zoom="13"
   inkscape:cx="31.961538"
   inkscape:cy="32.038462"
   inkscape:window-width="1920"
   inkscape:window-height="1017"
   inkscape:window-x="1912"
   inkscape:window-y="-8"
   inkscape:window-maximized="1"
   inkscape:current-layer="Layer_4" />
<style
   type="text/css"
   id="style2">
	.st0{fill:url(#SVGID_1_);stroke:#6D6D6D;stroke-width:0.6;stroke-linecap:round;stroke-linejoin:round;stroke-miterlimit:10;}
	.st1{fill:url(#SVGID_2_);stroke:#6D6D6D;stroke-width:0.6;stroke-linecap:round;stroke-linejoin:round;stroke-miterlimit:10;}
	.st2{fill:url(#SVGID_3_);stroke:#6D6D6D;stroke-width:0.6;stroke-linecap:round;stroke-linejoin:round;stroke-miterlimit:10;}
	.st3{fill:url(#SVGID_4_);stroke:#6D6D6D;stroke-width:0.6;stroke-linecap:round;stroke-linejoin:round;stroke-miterlimit:10;}
	.st4{fill:url(#SVGID_5_);stroke:#6D6D6D;stroke-width:0.6;stroke-linecap:round;stroke-linejoin:round;stroke-miterlimit:10;}
	.st5{fill:url(#SVGID_6_);stroke:#6D6D6D;stroke-width:0.6;stroke-linecap:round;stroke-linejoin:round;stroke-miterlimit:10;}
	.st6{fill:url(#SVGID_7_);stroke:#6D6D6D;stroke-linecap:round;stroke-linejoin:round;stroke-miterlimit:10;}
	.st7{fill:url(#SVGID_8_);stroke:#6D6D6D;stroke-width:0.6;stroke-linecap:round;stroke-linejoin:round;stroke-miterlimit:10;}
	.st8{fill:url(#SVGID_9_);stroke:#6D6D6D;stroke-width:0.75;stroke-linecap:round;stroke-linejoin:round;stroke-miterlimit:10;}
	.st9{fill:url(#SVGID_10_);stroke:#6D6D6D;stroke-width:0.6;stroke-linecap:round;stroke-linejoin:round;stroke-miterlimit:10;}
	.st10{opacity:0.5;fill:url(#SVGID_11_);}
	.st11{opacity:0.4;fill:url(#SVGID_12_);}
	.st12{fill:none;stroke:#003755;stroke-width:0.5;stroke-linecap:round;stroke-linejoin:round;stroke-miterlimit:10;}
	.st13{fill:none;stroke:#003755;stroke-width:0.5;stroke-miterlimit:10;}
	.st14{fill:url(#SVGID_15_);}
	.st15{fill:#003755;}
	.st16{fill:url(#SVGID_16_);stroke:#003755;stroke-width:0.5;stroke-linecap:round;stroke-linejoin:round;stroke-miterlimit:10;}
	.st17{fill:url(#SVGID_17_);stroke:#003755;stroke-width:0.5;stroke-miterlimit:10;}
	.st18{fill:url(#SVGID_18_);stroke:#6D6D6D;stroke-linecap:round;stroke-linejoin:round;stroke-miterlimit:10;}
	.st19{fill:none;stroke:#323232;stroke-linecap:round;stroke-linejoin:round;stroke-miterlimit:10;}
	.st20{fill:none;stroke:#003755;stroke-linecap:round;stroke-miterlimit:10;}
	.st21{fill:url(#SVGID_19_);}
	.st22{fill:#00415F;}
</style>
<linearGradient
   id="SVGID_1_"
   gradientUnits="userSpaceOnUse"
   x1="10.0684"
   y1="34.5365"
   x2="39.4362"
   y2="34.5365"
   gradientTransform="matrix(0.98 0.1988 -0.1988 0.98 6.144 -4.5032)">
	<stop
   offset="0.1559"
   style="stop-color:#C6C8C9"
   id="stop4" />
	<stop
   offset="0.8911"
   style="stop-color:#838588"
   id="stop6" />
</linearGradient>
<path
   class="st0"
   d="M30,32.5L26.3,29l-6.6-0.2L9,32.1l4,5.5l4.3-2.7c0,0,2.6-1.7,6.8-0.8c2.1,0.4,6.1,2.9,6.1,2.9l6.6,5.8l0.2-6.6  L30,32.5z"
   id="path9" />
<linearGradient
   id="SVGID_2_"
   gradientUnits="userSpaceOnUse"
   x1="34.9779"
   y1="32.702"
   x2="44.6924"
   y2="32.702"
   gradientTransform="matrix(0.98 0.1988 -0.1988 0.98 6.144 -4.5032)">
	<stop
   offset="0.1559"
   style="stop-color:#AEAFB0"
   id="stop11" />
	<stop
   offset="0.8911"
   style="stop-color:#6D6F70"
   id="stop13" />
</linearGradient>
<path
   class="st1"
   d="M35.4,37.8c0,0,1.5-2,3.7-1.7c3.3,0.4,3.5,4.6,3.5,4.6l1.1-5.3l-1.5-3.6l-5.3-1.1L34,34.1L35.4,37.8z"
   id="path16" />
<linearGradient
   id="SVGID_3_"
   gradientUnits="userSpaceOnUse"
   x1="27.3851"
   y1="19.615"
   x2="32.658"
   y2="19.615"
   gradientTransform="matrix(0.98 0.1988 -0.1988 0.98 6.144 -4.5032)">
	<stop
   offset="0"
   style="stop-color:#666666"
   id="stop18" />
	<stop
   offset="0.871"
   style="stop-color:#C6C8C9"
   id="stop20" />
	<stop
   offset="1"
   style="stop-color:#F2F2F2"
   id="stop22" />
</linearGradient>
<path
   class="st2"
   d="M35.4,14.3l-0.8,4.3c0,0-2.4,1.7-2.1,5.6c0.1,1.5,0.1,5,0.1,5l-2.9-9l1-8.1L35.4,14.3z"
   id="path25" />
<linearGradient
   id="SVGID_4_"
   gradientUnits="userSpaceOnUse"
   x1="7.2533"
   y1="35.7084"
   x2="14.8857"
   y2="35.7084"
   gradientTransform="matrix(0.98 0.1988 -0.1988 0.98 6.144 -4.5032)">
	<stop
   offset="0.1559"
   style="stop-color:#C6C8C9"
   id="stop27" />
	<stop
   offset="0.8911"
   style="stop-color:#838588"
   id="stop29" />
</linearGradient>
<polygon
   class="st3"
   points="7,27.8 7,32.2 12.8,37.6 13,31.4 "
   id="polygon32" />
<linearGradient
   id="SVGID_5_"
   gradientUnits="userSpaceOnUse"
   x1="22.3565"
   y1="18.4293"
   x2="30.7346"
   y2="18.4293"
   gradientTransform="matrix(0.98 0.1988 -0.1988 0.98 6.144 -4.5032)">
	<stop
   offset="0"
   style="stop-color:#C6C8C9"
   id="stop34" />
	<stop
   offset="0.405"
   style="stop-color:#838588"
   id="stop36" />
</linearGradient>
<path
   class="st4"
   d="M25.4,13.1l-0.2,4.6c0,0,1.3,1.1,1.7,2.6c0.6,2.3,0.2,4.5,0.2,4.5l5-2.9l0.2-6.6l-5.5-2.9  C26.2,12,25.4,12.3,25.4,13.1z"
   id="path39" />
<linearGradient
   id="SVGID_6_"
   gradientUnits="userSpaceOnUse"
   x1="33.532"
   y1="35.7712"
   x2="46.7697"
   y2="35.7712"
   gradientTransform="matrix(0.98 0.1988 -0.2629 0.9829 8.581 -4.6126)">
	<stop
   offset="0"
   style="stop-color:#666666"
   id="stop41" />
	<stop
   offset="0.871"
   style="stop-color:#C6C8C9"
   id="stop43" />
	<stop
   offset="1"
   style="stop-color:#F2F2F2"
   id="stop45" />
</linearGradient>
<path
   class="st5"
   d="M45.2,34.4c0,0-0.1,5.1-0.4,6.1s-1.9,3.9-6.1,3.4c-3.8-0.4-5.7-4.4-5.7-4.4v-6c0,0,4.1,4.8,6.1,5.2  S45.2,34.4,45.2,34.4z"
   id="path48" />
<linearGradient
   id="SVGID_7_"
   gradientUnits="userSpaceOnUse"
   x1="30.0196"
   y1="14.5415"
   x2="31.6839"
   y2="14.5415"
   gradientTransform="matrix(0.7389 0.1518 -0.2105 0.993 14.0616 -1.19)">
	<stop
   offset="0"
   style="stop-color:#8A8A8A"
   id="stop50" />
	<stop
   offset="1"
   style="stop-color:#383838"
   id="stop52" />
</linearGradient>
<path
   class="st6"
   d="M34.4,18.1c-0.1,0.7-0.5,1.2-0.9,1.1c-0.3-0.1-0.5-0.7-0.4-1.4s0.5-1.2,0.9-1.1S34.6,17.4,34.4,18.1z"
   id="path55" />
<linearGradient
   id="SVGID_8_"
   gradientUnits="userSpaceOnUse"
   x1="7.2614"
   y1="28.5562"
   x2="36.3053"
   y2="20.4291"
   gradientTransform="matrix(0.98 0.1988 -0.1988 0.98 6.144 -4.5032)">
	<stop
   offset="0.1313"
   style="stop-color:#CCCED0"
   id="stop57" />
	<stop
   offset="0.3897"
   style="stop-color:#F6F6F7"
   id="stop59" />
	<stop
   offset="0.4411"
   style="stop-color:#FFFFFF"
   id="stop61" />
	<stop
   offset="0.5387"
   style="stop-color:#F9F9F9"
   id="stop63" />
	<stop
   offset="0.6665"
   style="stop-color:#E9E9E9"
   id="stop65" />
	<stop
   offset="0.8102"
   style="stop-color:#CECECE"
   id="stop67" />
	<stop
   offset="0.8966"
   style="stop-color:#BABABA"
   id="stop69" />
	<stop
   offset="1"
   style="stop-color:#FFFFFF"
   id="stop71" />
</linearGradient>
<path
   class="st7"
   d="M29.5,9.7l-4,2.9c0,0,5.7,8.2,0,12c-6.3,4.2-14.8,0-14.8,0l-3.6,3.2L13,33l3.4-2.3c0,0,6.3-1.2,8.9-0.2  s7,4.4,7,4.4l2.2,1.7v-4l4-1l2.1,0.8L37.2,30c0,0-3.4-2.7-4.7-5.9c-1.3-3.2,0.4-6.8,0.4-6.8l2.4-2.9L29.5,9.7z"
   id="path74" />
<linearGradient
   id="SVGID_9_"
   gradientUnits="userSpaceOnUse"
   x1="25.8901"
   y1="28.1757"
   x2="35.9405"
   y2="28.1757"
   gradientTransform="matrix(0.98 0.1988 -0.1988 0.98 6.144 -4.5032)">
	<stop
   offset="0"
   style="stop-color:#C9C9C9"
   id="stop76" />
	<stop
   offset="1"
   style="stop-color:#737373"
   id="stop78" />
</linearGradient>
<path
   class="st8"
   d="M35.6,31l-5.2-4.2c0,0-0.2-0.9-0.4-1.2c-0.5-0.7-2.3-0.7-3,0c-1,1-1.2,2.4-0.5,3l2,0.6l5.6,4.4L35.6,31z"
   id="path81" />
<linearGradient
   id="SVGID_10_"
   gradientUnits="userSpaceOnUse"
   x1="34.6293"
   y1="33.7542"
   x2="45.1793"
   y2="30.8021"
   gradientTransform="matrix(0.98 0.1988 -0.1988 0.98 6.144 -4.5032)">
	<stop
   offset="0.1313"
   style="stop-color:#CCCED0"
   id="stop83" />
	<stop
   offset="0.3897"
   style="stop-color:#F6F6F7"
   id="stop85" />
	<stop
   offset="0.4411"
   style="stop-color:#FFFFFF"
   id="stop87" />
	<stop
   offset="0.5387"
   style="stop-color:#F9F9F9"
   id="stop89" />
	<stop
   offset="0.6665"
   style="stop-color:#E9E9E9"
   id="stop91" />
	<stop
   offset="0.8102"
   style="stop-color:#CECECE"
   id="stop93" />
	<stop
   offset="0.8966"
   style="stop-color:#BABABA"
   id="stop95" />
</linearGradient>
<path
   class="st9"
   d="M40.8,30.1c-3.2-1-6.5,0.4-7.5,3.1c-0.9,2.7,0.9,5.8,4.1,6.8c3.2,1,6.5-0.4,7.5-3.1  C45.8,34.1,44,31.1,40.8,30.1z M42,36c-0.5,1.4-2.2,2.1-3.8,1.6c-1.6-0.5-2.6-2.1-2.1-3.5c0.5-1.4,2.2-2.1,3.8-1.6  C41.6,33,42.5,34.6,42,36z"
   id="path98" />
<linearGradient
   id="SVGID_11_"
   gradientUnits="userSpaceOnUse"
   x1="38.561"
   y1="39.2892"
   x2="44.3029"
   y2="49.2345">
	<stop
   offset="0"
   style="stop-color:#A0E1FA"
   id="stop100" />
	<stop
   offset="1"
   style="stop-color:#73C3E1"
   id="stop102" />
</linearGradient>
<polygon
   class="st10"
   points="38.5,39.3 38.5,43.9 44.5,49.1 44.5,44.9 "
   id="polygon105" />
<linearGradient
   id="SVGID_12_"
   gradientUnits="userSpaceOnUse"
   x1="43.0588"
   y1="37.4415"
   x2="46.5278"
   y2="43.45">
	<stop
   offset="0"
   style="stop-color:#A0E1FA"
   id="stop107" />
	<stop
   offset="1"
   style="stop-color:#73C3E1"
   id="stop109" />
</linearGradient>
<path
   class="st11"
   d="M40,41.1c0,0,2,0.5,4-1.5c1-1,1-3.3,1-3.3l4.5,3.3l-5,5L40,41.1z"
   id="path112" />
<line
   class="st12"
   x1="31.5"
   y1="37.6"
   x2="38.5"
   y2="43.6"
   id="line114" />
<polyline
   class="st13"
   points="37.1,29.8 50,39.6 44.5,44.6 30.5,33.6 "
   id="polyline116" />
<g
   id="g127">
	
		<linearGradient
   id="SVGID_15_"
   gradientUnits="userSpaceOnUse"
   x1="50.3693"
   y1="35.073"
   x2="54.9586"
   y2="43.0219"
   gradientTransform="matrix(0.98 0.1988 -0.1988 0.98 6.144 -4.5032)">
		<stop
   offset="0"
   style="stop-color:#3287AF"
   id="stop118" />
		<stop
   offset="1"
   style="stop-color:#285A78"
   id="stop120" />
	</linearGradient>
	<path
   class="st14"
   d="M53.6,47.9c-0.5-1.3-1.4-2.9-3.4-3.2c-0.1,0-0.3,0-0.4,0c-1.5,0-2.6,0.9-3.2,1.4l-1.1-2.9l2.6-3.1l4.9,1   l1.4,3.3L53.6,47.9z"
   id="path123" />
	<path
   class="st15"
   d="M48.1,40.5l4.5,0.9l1.2,3l-0.4,2.2c-0.6-1.1-1.7-2.1-3.3-2.3c-0.2,0-0.3,0-0.5,0c-1.3,0-2.3,0.6-3,1.2   l-0.8-2.2L48.1,40.5 M47.8,39.7L45,43.1l1.4,3.7c0,0,1.3-1.8,3.3-1.8c0.1,0,0.3,0,0.4,0c3.3,0.4,3.5,4.6,3.5,4.6l1.1-5.3l-1.5-3.6   L47.8,39.7L47.8,39.7z"
   id="path125" />
</g>
<linearGradient
   id="SVGID_16_"
   gradientUnits="userSpaceOnUse"
   x1="50.707"
   y1="36.2243"
   x2="56.934"
   y2="47.0098"
   gradientTransform="matrix(0.98 0.1988 -0.2629 0.9829 8.581 -4.6126)">
	<stop
   offset="0"
   style="stop-color:#376E8C"
   id="stop129" />
	<stop
   offset="1"
   style="stop-color:#8CD7F5"
   id="stop131" />
</linearGradient>
<path
   class="st16"
   d="M56.2,43.4c0,0-0.1,5.1-0.4,6.1s-1.9,3.9-6.1,3.4c-3.8-0.4-5.4-3.2-5.4-3.2l-0.2-1L44,42.6  c0,0,4.1,4.8,6.1,5.2S56.2,43.4,56.2,43.4z"
   id="path134" />
<linearGradient
   id="SVGID_17_"
   gradientUnits="userSpaceOnUse"
   x1="49.9744"
   y1="34.0654"
   x2="55.4876"
   y2="43.6145"
   gradientTransform="matrix(0.98 0.1988 -0.1988 0.98 6.144 -4.5032)">
	<stop
   offset="0"
   style="stop-color:#A0E1FA"
   id="stop136" />
	<stop
   offset="1"
   style="stop-color:#73C3E1"
   id="stop138" />
</linearGradient>
<path
   class="st17"
   d="M51.8,39.1c-3.2-1-6.5,0.4-7.5,3.1c-0.9,2.7,0.9,5.8,4.1,6.8c3.2,1,6.5-0.4,7.5-3.1  C56.8,43.1,55,40.1,51.8,39.1z M53,45c-0.5,1.4-2.2,2.1-3.8,1.6c-1.6-0.5-2.6-2.1-2.1-3.5c0.5-1.4,2.2-2.1,3.8-1.6  C52.6,42,53.5,43.6,53,45z"
   id="path141" />
<linearGradient
   id="SVGID_18_"
   gradientUnits="userSpaceOnUse"
   x1="13.8484"
   y1="34.4861"
   x2="15.8484"
   y2="34.4861"
   gradientTransform="matrix(0.9295 0.191 -0.155 1.0721 6.4481 -5.5545)">
	<stop
   offset="0"
   style="stop-color:#8A8A8A"
   id="stop143" />
	<stop
   offset="1"
   style="stop-color:#383838"
   id="stop145" />
</linearGradient>
<path
   class="st18"
   d="M15.8,34.4c-0.1,0.9-0.6,1.5-1.2,1.4S13.8,35,14,34.1s0.6-1.5,1.2-1.4C15.7,32.8,16,33.6,15.8,34.4z"
   id="path148" />
<path
   class="st19"
   d="M38.7,44c0,0-2.7-0.4-4.2-1.9s-1.5-2-1.5-2l-0.5-1.5l-4.6-3c0,0-2.9-1.6-4.4-2c-5-1-10.7,4-10.7,4L7,32.2  l0.1-4.4l3.6-3.2c0,0,6.8,3,11.8,1c1.6-0.7,3.6-1.9,4-3c0.9-2.4-1.3-4.9-1.3-4.9l0.3-5.1l4-2.9l5.8,4.7l-0.8,4.2  c0,0-0.4,0.6-1.5,2.8s-0.5,3.2-0.5,3.2s1,2,2,3s2.6,2.1,2.6,2.1s2.4-1.1,5.4,0.9s2.9,5.5,2.9,5.5"
   id="path150" />
<path
   class="st20"
   d="M45.5,36.1l3,2.5c0,0,2-1,5,1s2.6,4.1,2.6,4.1L56,48.6c0,0-0.5,4.5-5.5,4.5s-6.5-5-6.5-5l-5.5-4.5"
   id="path152" />
<g
   id="g165">
	
		<linearGradient
   id="SVGID_19_"
   gradientUnits="userSpaceOnUse"
   x1="3022.0515"
   y1="-2979.3972"
   x2="2996.9578"
   y2="-2961.5369"
   gradientTransform="matrix(0.6431 -0.7658 -0.7658 -0.6431 -4185.104 444.9908)">
		<stop
   offset="0"
   style="stop-color:#93D2F0"
   id="stop154" />
		<stop
   offset="0.5"
   style="stop-color:#5A9CB5"
   id="stop156" />
		<stop
   offset="0.9"
   style="stop-color:#195A72"
   id="stop158" />
	</linearGradient>
	<polygon
   class="st21"
   points="32.7,54.3 35.1,51.5 25.4,42.9 26.6,41.5 36.7,48.8 39.3,46.8 41.3,54.9  "
   id="polygon161" />
	<path
   class="st22"
   d="M26.7,42.2l10,7.2l2.3-1.8l1.7,6.7l-6.9-0.4l2-2.4l-9.7-8.6L26.7,42.2 M26.5,40.9l-0.6,0.7l-0.6,0.7L24.7,43   l0.7,0.6l9,7.9L33,53.3l-1.3,1.5l2,0.1l6.9,0.4l1.4,0.1l-0.3-1.3L40,47.4l-0.4-1.5l-1.2,1l-1.7,1.3l-9.4-6.8L26.5,40.9L26.5,40.9z"
   id="path163" />
</g>
</svg>
