<svg xmlns="http://www.w3.org/2000/svg" xmlns:xlink="http://www.w3.org/1999/xlink" width="64" height="64" viewBox="0 0 64 64">
  <defs>
    <linearGradient id="a" x1="51.136" y1="52.272" x2="33.948" y2="41.084" gradientUnits="userSpaceOnUse">
      <stop offset="0"/>
      <stop offset="0.85" stop-opacity="0"/>
    </linearGradient>
    <linearGradient id="b" x1="12.082" y1="39.14" x2="32" y2="39.14" xlink:href="#a"/>
    <linearGradient id="c" x1="15.133" y1="52.237" x2="31.196" y2="41.175" xlink:href="#a"/>
    <linearGradient id="d" x1="34" y1="39.14" x2="53.918" y2="39.14" gradientUnits="userSpaceOnUse">
      <stop offset="0.15" stop-opacity="0"/>
      <stop offset="1"/>
    </linearGradient>
    <linearGradient id="e" x1="10.878" y1="25.632" x2="16.936" y2="25.773" gradientUnits="userSpaceOnUse">
      <stop offset="0" stop-color="#d4d5d3"/>
      <stop offset="0.283" stop-color="#fff"/>
      <stop offset="1" stop-color="#d4d5d3"/>
    </linearGradient>
    <linearGradient id="f" x1="20.787" y1="18.3" x2="18.719" y2="26.256" gradientUnits="userSpaceOnUse">
      <stop offset="0"/>
      <stop offset="1" stop-opacity="0"/>
    </linearGradient>
    <linearGradient id="g" x1="10.878" y1="25.632" x2="16.936" y2="25.773" gradientTransform="matrix(-1, 0, 0, 1, 64, 0)" xlink:href="#e"/>
    <linearGradient id="h" x1="20.787" y1="18.3" x2="18.719" y2="26.256" gradientTransform="matrix(-1, 0, 0, 1, 64, 0)" xlink:href="#f"/>
    <radialGradient id="i" cx="26.167" cy="38.75" r="26.095" gradientTransform="translate(-28.777 20.462) rotate(-44.727) scale(1 1.333)" gradientUnits="userSpaceOnUse">
      <stop offset="0.546" stop-color="#376e8c"/>
      <stop offset="0.8" stop-color="#8cd7f5"/>
      <stop offset="1" stop-color="#376e8c"/>
    </radialGradient>
    <linearGradient id="j" x1="23.5" y1="31.514" x2="54.004" y2="31.514" gradientUnits="userSpaceOnUse">
      <stop offset="0" stop-color="#003755" stop-opacity="0.6"/>
      <stop offset="0.099" stop-color="#003755" stop-opacity="0.723"/>
      <stop offset="0.291" stop-color="#003755" stop-opacity="0.881"/>
      <stop offset="0.535" stop-color="#003755" stop-opacity="0.973"/>
      <stop offset="1" stop-color="#003755"/>
    </linearGradient>
    <linearGradient id="k" x1="16.917" y1="33.306" x2="47.125" y2="33.306" gradientUnits="userSpaceOnUse">
      <stop offset="0" stop-color="#003755" stop-opacity="0.6"/>
      <stop offset="0.236" stop-color="#003755" stop-opacity="0.741"/>
      <stop offset="0.668" stop-color="#003755" stop-opacity="0.933"/>
      <stop offset="1" stop-color="#003755"/>
    </linearGradient>
    <linearGradient id="l" x1="33.762" y1="15.047" x2="54.265" y2="50.56" gradientUnits="userSpaceOnUse">
      <stop offset="0" stop-color="#fff" stop-opacity="0"/>
      <stop offset="0.389" stop-color="#fff"/>
      <stop offset="0.8" stop-color="#fff"/>
      <stop offset="1" stop-color="#fff" stop-opacity="0"/>
    </linearGradient>
    <radialGradient id="m" cx="33.75" cy="35.055" r="23.324" gradientTransform="translate(32.769 -2.119) rotate(63.662) scale(1 0.445)" gradientUnits="userSpaceOnUse">
      <stop offset="0.667" stop-color="#001871"/>
      <stop offset="0.738" stop-color="#001871" stop-opacity="0.969"/>
      <stop offset="0.799" stop-color="#001871" stop-opacity="0.875"/>
      <stop offset="0.857" stop-color="#001871" stop-opacity="0.715"/>
      <stop offset="0.913" stop-color="#001871" stop-opacity="0.492"/>
      <stop offset="0.967" stop-color="#001871" stop-opacity="0.206"/>
      <stop offset="1" stop-color="#001871" stop-opacity="0"/>
    </radialGradient>
    <linearGradient id="n" x1="43.609" y1="34.243" x2="48.326" y2="53.24" gradientUnits="userSpaceOnUse">
      <stop offset="0" stop-color="#fff" stop-opacity="0"/>
      <stop offset="0.011" stop-color="#fff" stop-opacity="0.029"/>
      <stop offset="0.105" stop-color="#fff" stop-opacity="0.253"/>
      <stop offset="0.201" stop-color="#fff" stop-opacity="0.452"/>
      <stop offset="0.298" stop-color="#fff" stop-opacity="0.621"/>
      <stop offset="0.395" stop-color="#fff" stop-opacity="0.758"/>
      <stop offset="0.494" stop-color="#fff" stop-opacity="0.864"/>
      <stop offset="0.593" stop-color="#fff" stop-opacity="0.94"/>
      <stop offset="0.694" stop-color="#fff" stop-opacity="0.985"/>
      <stop offset="0.8" stop-color="#fff"/>
      <stop offset="1" stop-color="#fff" stop-opacity="0"/>
    </linearGradient>
    <mask id="o" x="13" y="10.014" width="44" height="43.973" maskUnits="userSpaceOnUse">
      <path d="M57,49.936c0-17.579-16.812-39.922-32-39.922-5.187,0-10.094,3.234-12,11,2-4.844,6.873-9.894,14-5,5.875,3.953,14,17.749,14,35C41,55.666,57,54.514,57,49.936Z" fill="#fff"/>
    </mask>
    <linearGradient id="p" x1="34.455" y1="17.998" x2="37.712" y2="21.107" xlink:href="#f"/>
    <radialGradient id="q" cx="26.167" cy="38.75" r="26.095" gradientTransform="matrix(-0.71, -0.704, -0.938, 0.947, 92.777, 20.462)" xlink:href="#i"/>
    <linearGradient id="r" y1="31.514" x2="54.004" y2="31.514" gradientTransform="matrix(-1, 0, 0, 1, 64, 0)" xlink:href="#j"/>
    <linearGradient id="s" x1="16.917" y1="33.306" y2="33.306" gradientTransform="matrix(-1, 0, 0, 1, 64, 0)" xlink:href="#k"/>
    <radialGradient id="t" cy="35.055" r="23.324" gradientTransform="matrix(-0.444, 0.896, 0.399, 0.198, 31.231, -2.119)" xlink:href="#m"/>
    <linearGradient id="u" x1="49.609" y1="32.243" x2="54.326" y2="51.24" gradientTransform="matrix(-1, 0, 0, 1, 64, 0)" xlink:href="#n"/>
    <linearGradient id="v" x1="28.103" y1="12.251" x2="50.181" y2="50.492" gradientTransform="matrix(-1, 0, 0, 1, 64, 0)" xlink:href="#l"/>
  </defs>
  <title>3686_XGD_AP_AppIcon_r21x</title>
  <g opacity="0.3">
    <path d="M51,48.014c-5.089-3.505-11.694-5.561-18-7,9.64,6.182,6.829,12,17,12C53.313,53.014,55.516,51.123,51,48.014Z" fill="url(#a)"/>
    <path d="M13,38.014s-3.062,1.625,2,3c4.822,1.31,11.036-2.953,17-2a79.2,79.2,0,0,0-16-2A6.5,6.5,0,0,0,13,38.014Z" fill="url(#b)"/>
    <path d="M16,53.014c10.171,0,7.36-5.818,17-12-6.306,1.439-12.865,3.562-18,7C9.656,51.592,12.688,53.014,16,53.014Z" fill="url(#c)"/>
    <path d="M53,38.014a6.5,6.5,0,0,0-3-1,79.2,79.2,0,0,0-16,2c5.964-.953,12.178,3.31,17,2C56.063,39.639,53,38.014,53,38.014Z" fill="url(#d)"/>
  </g>
  <g>
    <path d="M26,11.014c-6.18,0-11.243,3.269-13,10a83.415,83.415,0,0,0-2.5,18.191c0,2.243,9.125,1.725,8.5-.191-2.984-9.937-4.058-22.028,4-25,6.248-.08,9,0,9,0Z" fill="url(#e)"/>
    <g opacity="0.6">
      <g>
        <line x1="17.563" y1="14.389" x2="19.438" y2="15.561" fill="none" stroke="#787878" stroke-miterlimit="10"/>
        <path d="M15.438,16.389s1.56,1.573,2.625,1.218" fill="none" stroke="#787878" stroke-miterlimit="10"/>
        <path d="M14.125,19.139c-.219,1.375,2.844,1.218,2.844,1.218" fill="none" stroke="#787878" stroke-miterlimit="10"/>
        <path d="M13.156,22.19c-.281,1.438,3.219,2.23,3.344.855" fill="none" stroke="#787878" stroke-miterlimit="10"/>
        <path d="M12.313,26.264c-.25,1.25,4,1.906,4,0" fill="none" stroke="#787878" stroke-miterlimit="10"/>
        <path d="M11.594,30.67c-.031.656,5.131,1.625,5.006,0" fill="none" stroke="#787878" stroke-miterlimit="10"/>
        <path d="M11.063,34.951c.656,1.625,5.625,1.656,6.5,0" fill="none" stroke="#787878" stroke-miterlimit="10"/>
      </g>
      <path d="M14.114,40.014S11.1,14.547,21.673,12.421" fill="none" stroke="#787878" stroke-miterlimit="10"/>
    </g>
    <g opacity="0.3">
      <path d="M22.922,13.7a24.486,24.486,0,0,1,6.409-1.022L26,11.014c-6.18,0-11.243,3.269-13,10-.538,2.062-1.026,4.447-1.425,6.887.769-1.7,4.637-.4,4.738-3.106C16.6,16.951,19.776,14.718,22.922,13.7Z" fill="url(#f)"/>
    </g>
    <path d="M25.767,12.015l1.926.963c-1.267,0-2.829.012-4.706.036l-.172,0-.161.06c-10.015,3.694-6.695,19.179-4.683,25.985a8.317,8.317,0,0,1-3.542.62,5.405,5.405,0,0,1-2.929-.552,83.24,83.24,0,0,1,2.468-17.863,11.679,11.679,0,0,1,11.8-9.251m.233-1c-6.18,0-11.243,3.269-13,10a83.415,83.415,0,0,0-2.5,18.191c0,1.027,1.914,1.476,3.929,1.476,2.384,0,4.91-.628,4.571-1.667-2.984-9.937-4.058-22.028,4-25,2.083-.027,3.777-.036,5.11-.036,2.667,0,3.89.036,3.89.036l-6-3Z" fill="#323232"/>
  </g>
  <g>
    <path d="M38,11.014c6.18,0,11.243,3.269,13,10a83.415,83.415,0,0,1,2.5,18.191c0,2.243-9.125,1.725-8.5-.191,2.984-9.937,4.058-22.028-4-25-6.248-.08-9,0-9,0Z" fill="url(#g)"/>
    <g opacity="0.6">
      <g>
        <line x1="46.438" y1="14.389" x2="44.563" y2="15.561" fill="none" stroke="#787878" stroke-miterlimit="10"/>
        <path d="M48.563,16.389S47,17.962,45.938,17.607" fill="none" stroke="#787878" stroke-miterlimit="10"/>
        <path d="M49.875,19.139c.219,1.375-2.844,1.218-2.844,1.218" fill="none" stroke="#787878" stroke-miterlimit="10"/>
        <path d="M50.844,22.19c.281,1.438-3.219,2.23-3.344.855" fill="none" stroke="#787878" stroke-miterlimit="10"/>
        <path d="M51.688,26.264c.25,1.25-4,1.906-4,0" fill="none" stroke="#787878" stroke-miterlimit="10"/>
        <path d="M52.406,30.67c.032.656-5.131,1.625-5.006,0" fill="none" stroke="#787878" stroke-miterlimit="10"/>
        <path d="M52.938,34.951c-.657,1.625-5.625,1.656-6.5,0" fill="none" stroke="#787878" stroke-miterlimit="10"/>
      </g>
      <path d="M49.886,40.014S52.9,14.547,42.327,12.421" fill="none" stroke="#787878" stroke-miterlimit="10"/>
    </g>
    <g opacity="0.3">
      <path d="M41.078,13.7a24.486,24.486,0,0,0-6.409-1.022L38,11.014c6.18,0,11.243,3.269,13,10,.538,2.062,1.026,4.447,1.425,6.887-.769-1.7-4.637-.4-4.737-3.106C47.4,16.951,44.224,14.718,41.078,13.7Z" fill="url(#h)"/>
    </g>
    <path d="M38.233,12.015a11.679,11.679,0,0,1,11.8,9.251A83.24,83.24,0,0,1,52.5,39.129a5.405,5.405,0,0,1-2.929.552,8.325,8.325,0,0,1-3.542-.62c2-6.772,5.344-22.287-4.683-25.985l-.161-.06-.172,0c-1.877-.024-3.439-.034-4.706-.036l1.926-.963m-.233-1-6,3s1.223-.036,3.89-.036c1.333,0,3.027.009,5.11.036,8.058,2.972,6.984,15.063,4,25-.339,1.039,2.187,1.667,4.571,1.667,2.015,0,3.929-.449,3.929-1.476A83.415,83.415,0,0,0,51,21.014c-1.757-6.731-6.82-10-13-10Z" fill="#323232"/>
  </g>
  <g>
    <path d="M57,49.936c0-17.579-16.812-39.922-32-39.922-5.187,0-10.094,3.234-12,11,2-4.844,6.873-9.894,14-5,5.875,3.953,14,17.749,14,35C41,55.666,57,54.514,57,49.936Z" fill="url(#i)"/>
    <g opacity="0.4">
      <g>
        <path d="M41.2,45.014c.708,3.541,15.55.774,14.3-3" fill="none" stroke="#003755" stroke-linecap="round" stroke-miterlimit="10"/>
        <path d="M40.2,39.014c.708,3.541,14.529-.188,13.217-3.25" fill="none" stroke="#003755" stroke-linecap="round" stroke-miterlimit="10"/>
        <path d="M38.8,34.014c.812,2.375,12.981-1.717,11.45-4.167" fill="none" stroke="#003755" stroke-linecap="round" stroke-miterlimit="10"/>
        <path d="M37,29.014c.938,1.875,10.352-3.959,9.852-4.459" fill="none" stroke="#003755" stroke-linecap="round" stroke-miterlimit="10"/>
        <path d="M34.5,24.112c1.42.558,8.051-3.82,8.208-4.361" fill="none" stroke="#003755" stroke-linecap="round" stroke-miterlimit="10"/>
        <path d="M32.438,20.764c2.192-1.377,4.976-4.406,5.729-5" fill="none" stroke="#003755" stroke-linecap="round" stroke-miterlimit="10"/>
        <path d="M29.844,17.607a29.747,29.747,0,0,1,4.448-4.59" fill="none" stroke="#003755" stroke-linecap="round" stroke-miterlimit="10" opacity="0.9"/>
        <path d="M26.844,15.313c.218-1.333.564-2.48,3-4.091" fill="none" stroke="#003755" stroke-linecap="round" stroke-miterlimit="10" opacity="0.8"/>
        <path d="M26.406,10.614c-2.093.4-3.134,2.944-1.706,3.6" fill="none" stroke="#003755" stroke-linecap="round" stroke-miterlimit="10" opacity="0.7"/>
        <path d="M22,13.514c-1.75-1.5.354-2.978,2-3" fill="none" stroke="#003755" stroke-linecap="round" stroke-miterlimit="10" opacity="0.6"/>
      </g>
      <g>
        <path d="M24,10.514c12.292,0,29.5,20,29.5,42" fill="none" stroke-linecap="round" stroke-miterlimit="10" stroke="url(#j)"/>
        <path d="M46.625,53.347c0-11.333-8.937-46.25-29.208-39.133" fill="none" stroke-linecap="round" stroke-miterlimit="10" stroke="url(#k)"/>
      </g>
    </g>
    <g>
      <g opacity="0.4">
        <path d="M31.688,13.266C39.75,17.922,51.667,30.493,53.5,52.514a13.173,13.173,0,0,1-2.546.472C49.177,32.854,39.665,19.293,31.688,13.266Z" fill="url(#l)"/>
      </g>
      <path d="M41.5,51.061c-.156-13.631-5.937-33.547-19.25-38.047,7.75-2,21.646,12.515,24.75,29a75.289,75.289,0,0,1,1.375,10.875C47.344,52.951,41.542,52.951,41.5,51.061Z" opacity="0.3" fill="url(#m)"/>
      <g opacity="0.3">
        <path d="M25.435,11.039c-.145-.007-.293-.025-.435-.025a9.948,9.948,0,0,0-7.088,2.815,8.273,8.273,0,0,1,1.68-.6A9.886,9.886,0,0,1,25.435,11.039Z"/>
        <path d="M43,51.014C43,33,34.555,19.219,28.566,15.189a10.955,10.955,0,0,0-6.158-2.172c-.149,0-.3.017-.443.026a11.319,11.319,0,0,1,5.6,2.146C33.555,19.219,42,33,42,51.014c0,1.143,2.346,1.972,5.579,1.972.2,0,.405-.006.606-.012C45.163,52.907,43,52.109,43,51.014Z"/>
      </g>
      <g opacity="0.2">
        <path d="M43.208,33.93c2.344,4.875,4.667,9.209,5.855,19.271,0,0-.618.106-2,.217A71.191,71.191,0,0,0,43.208,33.93Z" fill="url(#n)"/>
      </g>
    </g>
    <path d="M25,11.014c6.718,0,14.534,4.854,20.908,12.986C52.227,32.061,56,41.756,56,49.936c0,1.568-4.093,3.05-8.421,3.05-3.233,0-5.579-.829-5.579-1.972C42,33,33.555,19.219,27.566,15.189a10.955,10.955,0,0,0-6.158-2.172,8,8,0,0,0-3.5.812A9.948,9.948,0,0,1,25,11.014m0-1c-5.187,0-10.094,3.234-12,11,1.423-3.446,4.3-7,8.408-7a9.927,9.927,0,0,1,5.592,2c5.875,3.953,14,17.749,14,35,0,2.049,3.1,2.972,6.579,2.972,4.412,0,9.421-1.489,9.421-4.05,0-17.579-16.812-39.922-32-39.922Z" fill="#003755"/>
    <g mask="url(#o)">
      <g opacity="0.5">
        <path d="M39.946,16.386A11.708,11.708,0,0,0,37,16.014a19.157,19.157,0,0,0-7.819,1.827,50.719,50.719,0,0,1,5.194,7.071c2.292-4.449,7.406-6.262,11.236-2.862A44.962,44.962,0,0,0,39.946,16.386Z" fill="url(#p)"/>
      </g>
    </g>
  </g>
  <g>
    <path d="M7,49.936C7,32.357,23.813,10.014,39,10.014c5.188,0,10.094,3.234,12,11-2-4.844-6.873-9.894-14-5-5.875,3.953-14,17.749-14,35C23,55.666,7,54.514,7,49.936Z" fill="url(#q)"/>
    <g opacity="0.4">
      <g>
        <path d="M22.8,45.014c-.708,3.541-15.55.774-14.3-3" fill="none" stroke="#003755" stroke-linecap="round" stroke-miterlimit="10"/>
        <path d="M23.8,39.014c-.708,3.541-14.529-.188-13.217-3.25" fill="none" stroke="#003755" stroke-linecap="round" stroke-miterlimit="10"/>
        <path d="M25.2,34.014c-.812,2.375-12.981-1.717-11.45-4.167" fill="none" stroke="#003755" stroke-linecap="round" stroke-miterlimit="10"/>
        <path d="M27,29.014c-.937,1.875-10.352-3.959-9.852-4.459" fill="none" stroke="#003755" stroke-linecap="round" stroke-miterlimit="10"/>
        <path d="M29.5,24.112c-1.42.558-8.051-3.82-8.208-4.361" fill="none" stroke="#003755" stroke-linecap="round" stroke-miterlimit="10"/>
        <path d="M31.563,20.764c-2.193-1.377-4.977-4.406-5.73-5" fill="none" stroke="#003755" stroke-linecap="round" stroke-miterlimit="10"/>
        <path d="M34.156,17.607a29.747,29.747,0,0,0-4.448-4.59" fill="none" stroke="#003755" stroke-linecap="round" stroke-miterlimit="10" opacity="0.9"/>
        <path d="M37.156,15.313c-.218-1.333-.564-2.48-3-4.091" fill="none" stroke="#003755" stroke-linecap="round" stroke-miterlimit="10" opacity="0.8"/>
        <path d="M37.594,10.614c2.094.4,3.134,2.944,1.706,3.6" fill="none" stroke="#003755" stroke-linecap="round" stroke-miterlimit="10" opacity="0.7"/>
        <path d="M42,13.514c1.75-1.5-.354-2.978-2-3" fill="none" stroke="#003755" stroke-linecap="round" stroke-miterlimit="10" opacity="0.6"/>
      </g>
      <g>
        <path d="M40,10.514c-12.292,0-29.5,20-29.5,42" fill="none" stroke-linecap="round" stroke-miterlimit="10" stroke="url(#r)"/>
        <path d="M17.375,53.347c0-11.333,8.938-46.25,29.208-39.133" fill="none" stroke-linecap="round" stroke-miterlimit="10" stroke="url(#s)"/>
      </g>
    </g>
    <g>
      <path d="M22.5,51.061c.156-13.631,5.938-33.547,19.25-38.047-7.75-2-21.646,12.515-24.75,29a75.289,75.289,0,0,0-1.375,10.875C16.656,52.951,22.458,52.951,22.5,51.061Z" opacity="0.3" fill="url(#t)"/>
      <g opacity="0.3">
        <path d="M43.592,13.017c-.185,0-.371.013-.558.026a8.04,8.04,0,0,1,3.054.786c-.219-.212-.447-.409-.68-.6A7.824,7.824,0,0,0,43.592,13.017Z" fill="#000017"/>
        <path d="M9,49.936C9,41.756,12.773,32.061,19.092,24,25.309,16.069,32.9,11.268,39.5,11.036c-.167-.007-.33-.022-.5-.022-6.718,0-14.534,4.854-20.908,12.986C11.773,32.061,8,41.756,8,49.936c0,1.568,4.093,3.05,8.421,3.05.136,0,.261-.01.394-.012C12.719,52.844,9,51.43,9,49.936Z" fill="#000017"/>
      </g>
      <g opacity="0.2">
        <path d="M14.792,31.93c-2.344,4.875-4.667,9.209-5.855,19.271,0,0,.618.106,2,.217A71.191,71.191,0,0,1,14.792,31.93Z" fill="url(#u)"/>
      </g>
      <g opacity="0.4">
        <path d="M42.125,12.639c-4.729-1.063-25,2.968-27.629,39.875a13.173,13.173,0,0,0,2.546.472C17.344,32.868,29.063,12.014,42.125,12.639Z" fill="url(#v)"/>
      </g>
    </g>
    <path d="M39,11.014a9.948,9.948,0,0,1,7.088,2.815,8,8,0,0,0-3.5-.812,10.941,10.941,0,0,0-6.15,2.167C30.445,19.219,22,33,22,51.014c0,1.143-2.346,1.972-5.579,1.972C12.093,52.986,8,51.5,8,49.936,8,41.756,11.773,32.061,18.092,24,24.466,15.868,32.282,11.014,39,11.014m0-1c-15.187,0-32,22.343-32,39.922,0,2.561,5.009,4.05,9.421,4.05,3.474,0,6.579-.923,6.579-2.972,0-17.251,8.125-31.047,14-35a9.927,9.927,0,0,1,5.592-2c4.108,0,6.985,3.551,8.408,7-1.906-7.766-6.812-11-12-11Z" fill="#003755"/>
  </g>
</svg>
