<?xml version="1.0" encoding="iso-8859-1"?>
<!-- Generator: Adobe Illustrator 23.1.0, SVG Export Plug-In . SVG Version: 6.00 Build 0)  -->
<svg version="1.1" xmlns="http://www.w3.org/2000/svg" xmlns:xlink="http://www.w3.org/1999/xlink" x="0px" y="0px"
	 viewBox="0 0 64 64" style="enable-background:new 0 0 64 64;" xml:space="preserve">
<pattern  width="20" height="20" patternUnits="userSpaceOnUse" id="New_Pattern_Swatch_2" viewBox="22.121 -42.121 20 20" style="overflow:visible;">
	<g>
		<rect x="22.121" y="-42.121" style="fill:none;" width="20" height="20"/>
		
			<rect x="49.121" y="-26.263" transform="matrix(0.7071 -0.7071 0.7071 0.7071 23.837 33.3051)" style="fill:#844138;" width="6" height="28.284"/>
		
			<rect x="29.121" y="-26.263" transform="matrix(0.7071 -0.7071 0.7071 0.7071 17.9792 19.163)" style="fill:#844138;" width="6" height="28.284"/>
		
			<rect x="9.121" y="-26.263" transform="matrix(0.7071 -0.7071 0.7071 0.7071 12.1213 5.0208)" style="fill:#844138;" width="6" height="28.284"/>
		
			<rect x="49.121" y="-46.263" transform="matrix(0.7071 -0.7071 0.7071 0.7071 37.9792 27.4472)" style="fill:#844138;" width="6" height="28.284"/>
		
			<rect x="29.121" y="-46.263" transform="matrix(0.7071 -0.7071 0.7071 0.7071 32.1213 13.3051)" style="fill:#844138;" width="6" height="28.284"/>
		
			<rect x="9.121" y="-46.263" transform="matrix(0.7071 -0.7071 0.7071 0.7071 26.2635 -0.837)" style="fill:#844138;" width="6" height="28.284"/>
		
			<rect x="49.121" y="-66.263" transform="matrix(0.7071 -0.7071 0.7071 0.7071 52.1213 21.5894)" style="fill:#844138;" width="6" height="28.284"/>
		
			<rect x="29.121" y="-66.263" transform="matrix(0.7071 -0.7071 0.7071 0.7071 46.2635 7.4472)" style="fill:#844138;" width="6" height="28.284"/>
		
			<rect x="9.121" y="-66.263" transform="matrix(0.7071 -0.7071 0.7071 0.7071 40.4056 -6.6949)" style="fill:#844138;" width="6" height="28.284"/>
	</g>
</pattern>
<g id="Layer_1" style="display:none;">
</g>
<g id="info_r2021x" style="display:none;">
	<g id="pedestal_r2021x" style="display:inline;">
		<path style="opacity:0.5;fill:#FFFFFF;" d="M63.002,64h-62c-0.552,0-1-0.448-1-1V1c0-0.552,0.448-1,1-1h62c0.552,0,1,0.448,1,1v62
			C64.002,63.552,63.554,64,63.002,64z"/>
		<rect x="1.002" y="1" style="fill:#F4F5F6;" width="62" height="62"/>
		<rect x="1.002" y="1" style="fill:#D1D4D4;" width="2" height="62"/>
	</g>
	<g id="no-go_zone_1_" style="display:inline;opacity:0.3;">
		<path style="fill:url(#New_Pattern_Swatch_2);" d="M0,0v64h64V0H0z M57,57H7V7h50V57z"/>
	</g>
	<g style="display:inline;">
		<path style="fill:#EA4F37;" d="M57,7v50H7V7H57 M58,6h-1H7H6v1v50v1h1h50h1v-1V7V6L58,6z"/>
	</g>
</g>
<g id="Notes" style="display:none;">
</g>
<g id="vector_references" style="display:none;">
</g>
<g id="PNG_references" style="display:none;">
</g>
<g id="Work">
	<linearGradient id="SVGID_2_" gradientUnits="userSpaceOnUse" x1="20.0504" y1="19.7247" x2="28.3702" y2="34.135">
		<stop  offset="0" style="stop-color:#F5F6F6"/>
		<stop  offset="0.9921" style="stop-color:#BFBEBE"/>
	</linearGradient>
	<path style="fill:url(#SVGID_2_);stroke:#797979;stroke-linecap:round;stroke-linejoin:round;stroke-miterlimit:1;" d="
		M29.071,17.671c-6.662-5.095-11.2,1.532-11.2,1.532l0.392,11.401v4.275l18.812-3.919L29.071,17.671z M24.925,25.545
		c-1.687,0-3.054-1.595-3.054-3.563c0-1.968,1.367-3.563,3.054-3.563s3.054,1.595,3.054,3.563
		C27.979,23.95,26.612,25.545,24.925,25.545z"/>
	<g>
		<linearGradient id="SVGID_3_" gradientUnits="userSpaceOnUse" x1="24.1768" y1="24.2361" x2="26.3737" y2="20.721">
			<stop  offset="0" style="stop-color:#ABABAB"/>
			<stop  offset="1" style="stop-color:#5B5B5B"/>
		</linearGradient>
		<path style="fill:url(#SVGID_3_);stroke:#333332;stroke-linecap:round;stroke-linejoin:round;stroke-miterlimit:1;" d="
			M25.869,18.639c0.067,0.283,0.106,0.578,0.106,0.884c0,1.92-1.401,3.476-3.129,3.476c-0.326,0-0.641-0.056-0.937-0.159
			c0.352,1.491,1.57,2.592,3.023,2.592c1.728,0,3.129-1.556,3.129-3.476C28.061,20.399,27.139,19.082,25.869,18.639z"/>
	</g>
	<linearGradient id="SVGID_4_" gradientUnits="userSpaceOnUse" x1="27.3976" y1="30.7034" x2="32.3299" y2="39.2465">
		<stop  offset="0" style="stop-color:#FFFFFF"/>
		<stop  offset="1" style="stop-color:#F1F0F0"/>
	</linearGradient>
	<path style="fill:url(#SVGID_4_);stroke:#797979;stroke-linecap:round;stroke-linejoin:round;stroke-miterlimit:1;" d="
		M19.029,34.096l16.852-3.527c0,0,6.271,3.919,5.879,4.311s-15.676,6.662-15.676,6.662l-7.838-5.879L19.029,34.096z"/>
	<linearGradient id="SVGID_5_" gradientUnits="userSpaceOnUse" x1="28.9969" y1="27.7893" x2="39.377" y2="45.7681">
		<stop  offset="0" style="stop-color:#FFFFFF"/>
		<stop  offset="1" style="stop-color:#D2D3D3"/>
	</linearGradient>
	<path style="fill:url(#SVGID_5_);stroke:#797979;stroke-linecap:round;stroke-linejoin:round;stroke-miterlimit:1;" d="
		M37.337,25.344l-1.439-1.439L31.98,22.73l-3.919,2.351v20.771l0.784,3.919l21.163-7.838L37.337,25.344z M34.135,33.35
		c-1.623,0-2.939-1.35-2.939-3.223c0-1.873,1.658-3.223,3.281-3.223s2.598,1.182,2.598,3.055
		C37.074,31.831,35.758,33.35,34.135,33.35z"/>
	<g>
		<linearGradient id="SVGID_6_" gradientUnits="userSpaceOnUse" x1="33.6636" y1="32.9302" x2="34.3541" y2="30.3567">
			<stop  offset="0" style="stop-color:#D7D7D7"/>
			<stop  offset="0.9283" style="stop-color:#9B9B9B"/>
			<stop  offset="1" style="stop-color:#969696"/>
		</linearGradient>
		<path style="fill:url(#SVGID_6_);stroke:#797979;stroke-linecap:round;stroke-linejoin:round;stroke-miterlimit:1;" d="
			M35.048,27.05c0.067,0.283,0.106,0.578,0.106,0.884c0,1.92-1.401,3.476-3.129,3.476c-0.326,0-0.641-0.056-0.937-0.159
			c0.352,1.491,1.57,2.592,3.023,2.592c1.728,0,3.129-1.556,3.129-3.476C37.24,28.81,36.318,27.492,35.048,27.05z"/>
		<g>
			<linearGradient id="SVGID_7_" gradientUnits="userSpaceOnUse" x1="36.2132" y1="34.0092" x2="31.9958" y2="26.7047">
				<stop  offset="0" style="stop-color:#2A5B79"/>
				<stop  offset="1" style="stop-color:#3388B0"/>
			</linearGradient>
			<path style="fill:url(#SVGID_7_);" d="M34.104,27.046c1.61,0,2.919,1.485,2.919,3.311c0,1.826-1.31,3.311-2.919,3.311
				s-2.919-1.485-2.919-3.311C31.185,28.531,32.495,27.046,34.104,27.046 M34.104,26.046c-2.164,0-3.919,1.93-3.919,4.311
				s1.755,4.311,3.919,4.311s3.919-1.93,3.919-4.311S36.269,26.046,34.104,26.046L34.104,26.046z"/>
		</g>
	</g>
	<g>
		<g>
			<linearGradient id="SVGID_8_" gradientUnits="userSpaceOnUse" x1="27.0339" y1="25.5986" x2="22.8166" y2="18.294">
				<stop  offset="0" style="stop-color:#2A5B79"/>
				<stop  offset="1" style="stop-color:#3388B0"/>
			</linearGradient>
			<path style="fill:url(#SVGID_8_);" d="M24.925,18.635c1.61,0,2.919,1.485,2.919,3.311s-1.309,3.311-2.919,3.311
				s-2.919-1.485-2.919-3.311S23.316,18.635,24.925,18.635 M24.925,17.635c-2.164,0-3.919,1.93-3.919,4.311s1.755,4.311,3.919,4.311
				s3.919-1.93,3.919-4.311S27.09,17.635,24.925,17.635L24.925,17.635z"/>
		</g>
	</g>
	<g>
		<linearGradient id="SVGID_9_" gradientUnits="userSpaceOnUse" x1="28.0515" y1="26.2959" x2="24.6097" y2="20.3345">
			<stop  offset="0" style="stop-color:#2A5B79"/>
			<stop  offset="1" style="stop-color:#3388B0"/>
		</linearGradient>
		<polygon style="fill:url(#SVGID_9_);" points="28.128,26.252 23.425,21.487 24.533,20.379 29.236,25.143 		"/>
		<g style="opacity:0.7;">
			<path style="fill:#FFFFFF;" d="M24.533,20.379l4.703,4.765l-1.108,1.109l-4.703-4.765L24.533,20.379 M24.533,19.379
				c-0.265,0-0.52,0.105-0.707,0.293l-1.108,1.109c-0.389,0.389-0.391,1.018-0.005,1.41l4.703,4.765
				c0.187,0.19,0.442,0.297,0.708,0.298c0.001,0,0.002,0,0.003,0c0.265,0,0.52-0.105,0.707-0.293l1.108-1.109
				c0.389-0.389,0.391-1.018,0.005-1.41l-4.703-4.765c-0.187-0.19-0.442-0.297-0.708-0.298
				C24.535,19.379,24.534,19.379,24.533,19.379L24.533,19.379z"/>
		</g>
	</g>
	<linearGradient id="SVGID_10_" gradientUnits="userSpaceOnUse" x1="20.0378" y1="19.6293" x2="33.8621" y2="43.5735">
		<stop  offset="0" style="stop-color:#F5F6F6"/>
		<stop  offset="0.9921" style="stop-color:#BFBEBE"/>
	</linearGradient>
	<path style="fill:url(#SVGID_10_);stroke:#797979;stroke-linecap:round;stroke-linejoin:round;stroke-miterlimit:1;" d="
		M31.784,22.338C28.213,22.384,25.5,25.037,25.5,28.5c0,0.455,0,2,0,2v9l-6.082-5.392c0,0,0-5.365,0-8.5v-1.5v-1.5
		c0-4.474,1.936-6.54,5.507-6.54c3.527,0,4.311,1.96,4.311,1.96c-2.351-3.135-4.311-3.527-6.075-3.527
		c-3.571,0-6.744,2.645-6.744,6.108c0,0.514,0,4,0,4v13l12.034,12.164V33.983v-1.331v-2.475c0-3.463,1.848-6.208,5.419-6.254
		c1.762-0.023,3.466,1.422,3.466,1.422S35.35,22.292,31.784,22.338z"/>
	<path style="fill:none;stroke:#333332;stroke-linecap:round;stroke-linejoin:round;stroke-miterlimit:1;" d="M50.007,41.934
		l-12.67-16.589c0,0-1.952-2.989-5.453-3.002l-2.813-4.671c-0.037-0.028-1.794-3.171-5.909-3.171c-3.571,0-6.744,2.645-6.744,6.108
		c0,0.514,0,4,0,4v13l12.034,12.164h0.392L50.007,41.934z"/>
	
		<line style="fill:none;stroke:#333332;stroke-linecap:round;stroke-linejoin:round;stroke-miterlimit:1;" x1="22.347" y1="40.608" x2="12.418" y2="40.608"/>
	<linearGradient id="SVGID_11_" gradientUnits="userSpaceOnUse" x1="9.3192" y1="36.8467" x2="13.8076" y2="44.6208">
		<stop  offset="0" style="stop-color:#F5F6F6"/>
		<stop  offset="0.9921" style="stop-color:#D2D3D3"/>
	</linearGradient>
	
		<rect x="7.5" y="36.608" style="fill:url(#SVGID_11_);stroke:#333332;stroke-width:1.1204;stroke-linecap:round;stroke-linejoin:round;stroke-miterlimit:1;" width="7.918" height="7.89"/>
	<linearGradient id="SVGID_12_" gradientUnits="userSpaceOnUse" x1="24.6033" y1="38.8311" x2="27.1442" y2="43.232">
		<stop  offset="0" style="stop-color:#F5F6F6"/>
		<stop  offset="0.9921" style="stop-color:#D2D3D3"/>
	</linearGradient>
	
		<polygon style="fill:url(#SVGID_12_);stroke:#333332;stroke-width:0.934;stroke-linecap:round;stroke-linejoin:round;stroke-miterlimit:1;" points="
		26.418,44.108 22.999,40.973 22.999,40.189 26.418,37.054 	"/>
	
		<line style="fill:none;stroke:#333332;stroke-linecap:round;stroke-linejoin:round;stroke-miterlimit:1;" x1="43.737" y1="22.338" x2="37.27" y2="28.805"/>
	<linearGradient id="SVGID_13_" gradientUnits="userSpaceOnUse" x1="45.0635" y1="14.0928" x2="51.1371" y2="24.6126">
		<stop  offset="0" style="stop-color:#F5F6F6"/>
		<stop  offset="0.9921" style="stop-color:#D2D3D3"/>
	</linearGradient>
	
		<rect x="39.418" y="15.608" style="fill:url(#SVGID_13_);stroke:#333332;stroke-width:0.9492;stroke-linecap:round;stroke-linejoin:round;stroke-miterlimit:1;" width="17.082" height="7"/>
	
		<line style="fill:none;stroke:#797979;stroke-linejoin:round;stroke-miterlimit:1;" x1="45.418" y1="16.108" x2="45.418" y2="22.108"/>
	
		<polygon style="opacity:0.7;fill:#FFFFFF;stroke:#FFFFFF;stroke-linecap:round;stroke-linejoin:round;stroke-miterlimit:10;" points="
		40.602,35.698 36.932,32.203 36.921,32.214 33.721,29.001 32.613,30.109 39.493,36.839 	"/>
	
		<linearGradient id="SVGID_14_" gradientUnits="userSpaceOnUse" x1="252.9128" y1="-509.144" x2="250.9935" y2="-512.4682" gradientTransform="matrix(0.7071 -0.7071 0.7071 0.7071 217.526 570.1542)">
		<stop  offset="0" style="stop-color:#2A5B79"/>
		<stop  offset="1" style="stop-color:#3388B0"/>
	</linearGradient>
	<polygon style="fill:url(#SVGID_14_);" points="36.291,31.495 35.182,32.603 32.688,30.109 33.797,29.001 	"/>
	
		<linearGradient id="SVGID_15_" gradientUnits="userSpaceOnUse" x1="252.9661" y1="-503.6548" x2="251.0469" y2="-506.9791" gradientTransform="matrix(0.7071 -0.7071 0.7071 0.7071 217.526 570.1542)">
		<stop  offset="0" style="stop-color:#2A5B79"/>
		<stop  offset="1" style="stop-color:#3388B0"/>
	</linearGradient>
	<polygon style="fill:url(#SVGID_15_);" points="40.21,35.338 39.101,36.447 36.607,33.953 37.716,32.844 	"/>
</g>
</svg>
