<svg xmlns="http://www.w3.org/2000/svg" xmlns:xlink="http://www.w3.org/1999/xlink" width="64" height="64" viewBox="0 0 64 64">
  <defs>
    <linearGradient id="a" data-name="white left" x1="8.5" y1="42" x2="13.5" y2="42" gradientUnits="userSpaceOnUse">
      <stop offset="0" stop-color="#f5f5f5"/>
      <stop offset="1" stop-color="#bebebe"/>
    </linearGradient>
    <linearGradient id="b" y1="23" y2="23" xlink:href="#a"/>
    <linearGradient id="c" y1="15" y2="15" xlink:href="#a"/>
    <linearGradient id="d" x1="10.5" y1="18" x2="15.5" y2="18" xlink:href="#a"/>
    <clipPath id="i">
      <ellipse cx="12.86" cy="32" rx="3.617" ry="4" fill="none"/>
    </clipPath>
    <clipPath id="j">
      <ellipse cx="21.903" cy="16.896" rx="3.617" ry="4" fill="none"/>
    </clipPath>
    <linearGradient id="k" x1="38.39" y1="22.015" x2="55.348" y2="51.388" gradientUnits="userSpaceOnUse">
      <stop offset="0" stop-color="#82bedc"/>
      <stop offset="1" stop-color="#285a78"/>
    </linearGradient>
  </defs>
  <title>I_DEL3DW_AP</title>
  <g>
    <g>
      <g>
        <g>
          <rect x="5.625" y="10.625" width="53.75" height="36.75" fill="#e1e1e1"/>
          <path d="M59,11V47H6V11H59m.75-.75H5.25v37.5h54.5V10.25Z" fill="#003755"/>
        </g>
        <rect x="6" y="11" width="52.985" height="36" fill="#e1e1e1"/>
        <rect x="6" y="32" width="52.985" height="15" fill="#5a9ab8"/>
        <path d="M59,11V47H6V11H59m1-1H5V48H60V10Z" fill="#003755"/>
      </g>
      <g>
        <circle cx="36.415" cy="25" r="9" fill="none" stroke="#fff" stroke-miterlimit="10" stroke-width="0.8"/>
        <path d="M35.893,20a5,5,0,1,1-5,5,5,5,0,0,1,5-5m0-.8a5.8,5.8,0,1,0,5.8,5.8,5.807,5.807,0,0,0-5.8-5.8Z" fill="#fff"/>
        <circle cx="35.92" cy="24.5" r="2.5" fill="none" stroke="#fff" stroke-miterlimit="10" stroke-width="0.476"/>
      </g>
      <g>
        <g>
          <polyline points="36.372 26 29.137 37 22.807 26 17.381 42" fill="none" stroke="#003755" stroke-miterlimit="10"/>
          <polyline points="36.372 26 29.137 37 22.807 26 17.381 42" fill="none" stroke="#003755" stroke-miterlimit="10"/>
        </g>
        <g>
          <g>
            <path d="M36.828,27.25A1.75,1.75,0,1,1,38.574,25.5,1.756,1.756,0,0,1,36.828,27.25Z" fill="#fff"/>
            <path d="M36.828,24a1.5,1.5,0,1,1-1.5,1.5,1.491,1.491,0,0,1,1.5-1.5m0-.5a2,2,0,1,0,2,2,2,2,0,0,0-2-2Z"/>
          </g>
          <g>
            <path d="M36.828,27.25A1.75,1.75,0,1,1,38.574,25.5,1.756,1.756,0,0,1,36.828,27.25Z" fill="#fff"/>
            <path d="M36.828,24a1.5,1.5,0,1,1-1.5,1.5,1.491,1.491,0,0,1,1.5-1.5m0-.5a2,2,0,1,0,2,2,2,2,0,0,0-2-2Z"/>
          </g>
          <path d="M36.828,27a1.5,1.5,0,1,0-1.5-1.5A1.5,1.5,0,0,0,36.828,27Z" fill="#fff"/>
        </g>
        <g>
          <g>
            <path d="M29.543,37.28a1.75,1.75,0,1,1,1.747-1.754A1.755,1.755,0,0,1,29.543,37.28Z" fill="#fff"/>
            <path d="M29.543,34.03a1.5,1.5,0,1,1-1.5,1.5,1.491,1.491,0,0,1,1.5-1.5m0-.5a2,2,0,1,0,2,2,2,2,0,0,0-2-2Z"/>
          </g>
          <g>
            <path d="M29.543,37.28a1.75,1.75,0,1,1,1.747-1.754A1.755,1.755,0,0,1,29.543,37.28Z" fill="#fff"/>
            <path d="M29.543,34.03a1.5,1.5,0,1,1-1.5,1.5,1.491,1.491,0,0,1,1.5-1.5m0-.5a2,2,0,1,0,2,2,2,2,0,0,0-2-2Z"/>
          </g>
          <path d="M29.543,37.03a1.5,1.5,0,1,0-1.5-1.5A1.5,1.5,0,0,0,29.543,37.03Z" fill="#fff"/>
        </g>
        <g>
          <g>
            <path d="M22.588,28.29a1.75,1.75,0,1,1,1.747-1.754A1.756,1.756,0,0,1,22.588,28.29Z" fill="#fff"/>
            <path d="M22.589,25.04a1.5,1.5,0,1,1-1.5,1.5,1.491,1.491,0,0,1,1.5-1.5m0-.5a2,2,0,1,0,2,2,2,2,0,0,0-2-2Z"/>
          </g>
          <g>
            <path d="M22.588,28.29a1.75,1.75,0,1,1,1.747-1.754A1.756,1.756,0,0,1,22.588,28.29Z" fill="#fff"/>
            <path d="M22.589,25.04a1.5,1.5,0,1,1-1.5,1.5,1.491,1.491,0,0,1,1.5-1.5m0-.5a2,2,0,1,0,2,2,2,2,0,0,0-2-2Z"/>
          </g>
          <path d="M22.589,28.04a1.5,1.5,0,1,0-1.5-1.5A1.5,1.5,0,0,0,22.589,28.04Z" fill="#fff"/>
        </g>
        <g>
          <g>
            <path d="M17.527,43.27a1.75,1.75,0,1,1,1.746-1.753A1.756,1.756,0,0,1,17.527,43.27Z" fill="#fff"/>
            <path d="M17.527,40.02a1.5,1.5,0,1,1-1.5,1.5,1.491,1.491,0,0,1,1.5-1.5m0-.5a2,2,0,1,0,2,2,2,2,0,0,0-2-2Z"/>
          </g>
          <g>
            <path d="M17.527,43.27a1.75,1.75,0,1,1,1.746-1.753A1.756,1.756,0,0,1,17.527,43.27Z" fill="#fff"/>
            <path d="M17.527,40.02a1.5,1.5,0,1,1-1.5,1.5,1.491,1.491,0,0,1,1.5-1.5m0-.5a2,2,0,1,0,2,2,2,2,0,0,0-2-2Z"/>
          </g>
          <path d="M17.527,43.02a1.5,1.5,0,1,0-1.5-1.5A1.5,1.5,0,0,0,17.527,43.02Z" fill="#fff"/>
        </g>
      </g>
      <g>
        <g>
          <line x1="39.971" y1="42.561" x2="31.559" y2="42.561" fill="#383838" stroke="#323232" stroke-miterlimit="10" opacity="0.5"/>
          <line x1="40.875" y1="40.561" x2="29.156" y2="40.561" fill="#6d6d6d" stroke="#323232" stroke-miterlimit="10"/>
          <line x1="39.971" y1="38.561" x2="32.6" y2="38.57" fill="#383838" stroke="#323232" stroke-miterlimit="10" opacity="0.5"/>
        </g>
        <g>
          <line x1="39.971" y1="42.561" x2="31.559" y2="42.561" fill="#383838" stroke="#323232" stroke-miterlimit="10" opacity="0.5"/>
          <line x1="40.875" y1="40.561" x2="29.156" y2="40.561" fill="#6d6d6d" stroke="#323232" stroke-miterlimit="10"/>
          <line x1="39.971" y1="38.561" x2="32.6" y2="38.57" fill="#383838" stroke="#323232" stroke-miterlimit="10" opacity="0.5"/>
        </g>
      </g>
      <g>
        <g>
          <rect x="8.5" y="39.5" width="5" height="5" stroke="#fff" stroke-miterlimit="10" stroke-width="0.5" fill="url(#a)"/>
          <rect x="8.5" y="20.5" width="5" height="5" stroke="#fff" stroke-miterlimit="10" stroke-width="0.5" fill="url(#b)"/>
          <rect x="8.5" y="12.5" width="5" height="5" stroke="#fff" stroke-miterlimit="10" stroke-width="0.5" fill="url(#c)"/>
          <rect x="10.5" y="15.5" width="5" height="5" stroke="#fff" stroke-miterlimit="10" stroke-width="0.5" fill="url(#d)"/>
        </g>
        <g>
          <rect x="8.5" y="39.5" width="5" height="5" stroke="#fff" stroke-miterlimit="10" stroke-width="0.5" fill="url(#a)"/>
          <rect x="8.5" y="20.5" width="5" height="5" stroke="#fff" stroke-miterlimit="10" stroke-width="0.5" fill="url(#b)"/>
          <rect x="8.5" y="12.5" width="5" height="5" stroke="#fff" stroke-miterlimit="10" stroke-width="0.5" fill="url(#c)"/>
          <rect x="10.5" y="15.5" width="5" height="5" stroke="#fff" stroke-miterlimit="10" stroke-width="0.5" fill="url(#d)"/>
        </g>
      </g>
      <g>
        <g clip-path="url(#i)">
          <ellipse cx="12.877" cy="31.995" rx="3.487" ry="3.856" fill="#323232"/>
          <path d="M11.856,32.21c.1.358.053.69-.1.74s-.353-.2-.45-.558-.053-.689.1-.739S11.758,31.852,11.856,32.21Zm2.194,0c-.1.358-.053.69.1.74s.353-.2.45-.558.053-.689-.1-.739S14.147,31.852,14.05,32.21Z" fill="#fff"/>
          <path d="M15.293,36.083H10.6l1-.794a1.582,1.582,0,0,0,.347-1V32.8h2.006v1.5a1.576,1.576,0,0,0,.347,1Z" fill="#fff"/>
          <path d="M14.543,31.2c0,.976-.75,3.194-1.6,3.194s-1.6-2.218-1.6-3.194a1.687,1.687,0,0,1,1.6-1.766A1.687,1.687,0,0,1,14.543,31.2Z" fill="#fff"/>
        </g>
        <g clip-path="url(#j)">
          <ellipse cx="21.92" cy="16.891" rx="3.487" ry="3.856" fill="#003755"/>
          <path d="M20.9,17.107c.1.358.053.689-.1.739s-.353-.2-.45-.557-.053-.69.1-.74S20.8,16.748,20.9,17.107Zm2.194,0c-.1.358-.053.689.1.739s.353-.2.45-.557.053-.69-.1-.74S23.19,16.748,23.093,17.107Z" fill="#fff"/>
          <path d="M24.336,20.979H19.643l1-.794a1.574,1.574,0,0,0,.348-1v-1.5h2.005v1.5a1.579,1.579,0,0,0,.347,1Z" fill="#fff"/>
          <path d="M23.587,16.093c0,.976-.75,3.194-1.6,3.194s-1.6-2.218-1.6-3.194a1.606,1.606,0,1,1,3.2,0Z" fill="#fff"/>
        </g>
      </g>
    </g>
    <g>
      <path d="M48.117,53.323l1.872-.936a.25.25,0,0,0,.139-.224v-1l.122-5.157-1.316-7.052a.251.251,0,0,0-.246-.2h-.026a.25.25,0,0,0-.224.253l.186,11.909h-.746a.25.25,0,0,0-.25.25v.8l-4.5.9v-.536l1.847-.867a.249.249,0,0,0,.141-.194l.276-2.113.164-17.324-.431-2.7a.249.249,0,0,0-.247-.21h-4l-3.963-1.3-.336-.86a.246.246,0,0,0-.2-.157l-1.254-.157-.1-1.095a.25.25,0,0,0-.182-.218l-1.093-.3.007-.139,1.443.214,1.6.966,4.017.926,3.379-.373a.248.248,0,0,0,.109-.04l2.4-1.572.735-.894a.248.248,0,0,0,.048-.219l-.3-1.156a.249.249,0,0,0-.242-.188h-.522l-.656-1.837.735-2.266,2.432-.044L49.98,20.56l-.168,1.423a.25.25,0,0,0,.089.224l3.149,2.564.576,4.495-.118,7.761-.161.7-.614.037A.25.25,0,0,0,52.5,38l-.115,1.939-.389,1.538.186,5.357.449,5.346v.774l-4.548.906Z" fill="url(#k)"/>
      <path d="M48.773,18.461l.951,2.138-.161,1.355a.5.5,0,0,0,.181.447l3.071,2.5.558,4.361-.115,7.71-.116.521-.424.025a.5.5,0,0,0-.469.47l-.113,1.893-.385,1.539a.509.509,0,0,0-.014.14l.2,5.31.446,5.292v.59l-4.026.8.005-.073,1.744-.872a.5.5,0,0,0,.277-.448v-.988l.122-5.163a.452.452,0,0,0-.009-.1l-1.312-7a.5.5,0,0,0-.491-.408.436.436,0,0,0-.051,0,.5.5,0,0,0-.449.505l.182,11.655h-.492a.5.5,0,0,0-.5.5v.591l-4,.8v-.073l1.7-.8a.5.5,0,0,0,.283-.388l.275-2.112c0-.02,0-.04,0-.06l.163-17.3a.583.583,0,0,0-.006-.084l-.429-2.658a.5.5,0,0,0-.493-.421H40.957L37.1,27.416l-.292-.749a.5.5,0,0,0-.4-.314l-1.054-.132-.083-.895a.416.416,0,0,0-.012-.072l1.408.832a.534.534,0,0,0,.143.057l3.947.9a.524.524,0,0,0,.111.012.544.544,0,0,0,.057,0l3.295-.378a.511.511,0,0,0,.217-.078l2.4-1.573a.48.48,0,0,0,.115-.105l.679-.841a.5.5,0,0,0,.095-.439l-.3-1.155a.5.5,0,0,0-.484-.376H46.6l-.569-1.591.654-2.015,2.087-.038m.323-.506-2.776.05L45.5,20.521l.744,2.084h.7l.3,1.156-.678.841-2.4,1.573-3.3.378-3.947-.9-1.688-1L33.519,24.4l-.031.614,1.286.354.12,1.3,1.453.182.378.969,4.153,1.345h4l.428,2.658-.163,17.295-.275,2.112-1.99.935v1l5-1v-1h1L48.688,39,50,46l-.122,5.163v1l-2,1-.07,1.011,5.07-1.011v-1l-.448-5.334-.194-5.287.4-1.584.116-1.939.8-.048.208-.94.117-7.8-.589-4.594L50.06,22.013l.177-1.492L49.1,17.955Z" fill="#003755"/>
    </g>
  </g>
</svg>
