<svg xmlns="http://www.w3.org/2000/svg" xmlns:xlink="http://www.w3.org/1999/xlink" width="64" height="64" viewBox="0 0 64 64">
  <defs>
    <linearGradient id="a" x1="17.3819" y1="23.4554" x2="38.2533" y2="42.547" gradientUnits="userSpaceOnUse">
      <stop offset="0" stop-color="#f0f0f0"/>
      <stop offset="1" stop-color="#b3b3b3"/>
    </linearGradient>
    <linearGradient id="b" x1="28.1162" y1="37.3679" x2="65.3561" y2="78.1971" xlink:href="#a"/>
    <linearGradient id="c" x1="-0.5858" y1="6.847" x2="19.7132" y2="43.9982" xlink:href="#a"/>
    <linearGradient id="d" x1="19.0436" y1="23.3861" x2="44.9566" y2="43.202" gradientUnits="userSpaceOnUse">
      <stop offset="0" stop-color="#92d5ee"/>
      <stop offset="0.4825" stop-color="#599bb4"/>
      <stop offset="1" stop-color="#185971"/>
    </linearGradient>
    <linearGradient id="e" x1="24.6237" y1="25.7716" x2="41.7465" y2="35.7191" xlink:href="#d"/>
    <linearGradient id="f" x1="0.8728" y1="3.2764" x2="34.1951" y2="51.2924" xlink:href="#d"/>
    <linearGradient id="g" x1="24.6237" y1="22.1886" x2="41.7465" y2="32.1361" xlink:href="#d"/>
    <linearGradient id="h" x1="23.7947" y1="20.556" x2="28.6574" y2="29.4557" gradientUnits="userSpaceOnUse">
      <stop offset="0" stop-color="#00415f" stop-opacity="0.2"/>
      <stop offset="1" stop-color="#00415f"/>
    </linearGradient>
    <linearGradient id="i" x1="15.5564" y1="19.973" x2="20.4191" y2="28.8727" xlink:href="#h"/>
    <linearGradient id="j" x1="32.115" y1="15.9867" x2="36.9777" y2="24.8864" xlink:href="#h"/>
    <linearGradient id="k" x1="19.0436" y1="13.0111" x2="44.9566" y2="32.827" xlink:href="#d"/>
    <linearGradient id="l" x1="24.6237" y1="15.3966" x2="41.7465" y2="25.3441" xlink:href="#d"/>
    <linearGradient id="m" x1="0.8728" y1="-7.0986" x2="34.1951" y2="40.9174" xlink:href="#d"/>
    <linearGradient id="n" x1="39.1946" y1="26.1031" x2="60.5941" y2="59.3329" gradientUnits="userSpaceOnUse">
      <stop offset="0" stop-color="#fff"/>
      <stop offset="1" stop-color="#bfbfbf"/>
    </linearGradient>
  </defs>
  <title>I_DELASY_AP</title>
  <g>
    <g>
      <polygon points="10.569 26.651 19.387 21.07 26.928 22.76 18.048 28.454 10.569 26.651" fill="url(#a)"/>
      <g>
        <path d="M26.5586,47.4668a.5093.5093,0,0,1-.2246-.0527.5.5,0,0,1-.2754-.4473v-8a.4991.4991,0,0,1,.2051-.4033l8-5.8428a.5.5,0,0,1,.7949.4033v7.8887a.5029.5029,0,0,1-.2012.4014l-8,5.9541A.5007.5007,0,0,1,26.5586,47.4668Z" fill="url(#b)"/>
        <path d="M34.5591,33.1236v7.89l-8,5.9541v-8l8-5.8437m0-1a.9992.9992,0,0,0-.59.1924l-8,5.8437a1,1,0,0,0-.41.8076v8a1,1,0,0,0,1.597.8022l8-5.9541a1,1,0,0,0,.403-.8022v-7.89a1,1,0,0,0-1-1Z" fill="#6d6d6d"/>
      </g>
      <polygon points="18.559 28.547 18.559 36.547 25.559 39.09 25.559 46.967 10.393 42.547 10.393 26.547 18.559 28.547" fill="url(#c)"/>
      <g>
        <polygon points="26.185 30.726 34.607 24.754 34.607 33.514 26.181 39.377 26.185 30.726" stroke="#00415f" stroke-linecap="round" stroke-linejoin="round" fill="url(#d)"/>
        <polygon points="18.048 28.741 26.928 23.047 34.559 24.754 26.185 30.726 18.048 28.741" stroke="#00415f" stroke-linecap="round" stroke-linejoin="round" fill="url(#e)"/>
        <polygon points="26.185 30.726 26.181 39.377 18.191 37.255 18.048 28.741 26.185 30.726" stroke="#00415f" stroke-linecap="round" stroke-linejoin="round" fill="url(#f)"/>
      </g>
      <path d="M19.5484,21.1762l8.0107,1.58,6.958,1.542.042,8.8253-.16,7.8895-8.0616,6.3145-15.9443-4.78v-16l9.1553-5.3711M19.37,20.1217l-.3273.192L9.887,25.6848l-.4939.29V43.2915l.7128.2137,15.9443,4.78.4961.1488.4077-.3194L35.0156,41.8l.3735-.2926.01-.4744.16-7.89-.0418-8.85-.0038-.7987-.78-.1729-6.958-1.542-8.0335-1.5849-.3723-.0734Z" fill="#343434"/>
      <line x1="10.728" y1="26.5484" x2="18.0484" y2="28.4536" fill="none" stroke="#6d6d6d" stroke-linecap="round" stroke-linejoin="round"/>
      <g opacity="0.5">
        <polygon points="18.048 25.158 26.928 19.464 34.559 21.171 26.185 27.143 18.048 25.158" stroke="#00415f" stroke-linecap="round" stroke-linejoin="round" fill="url(#g)"/>
      </g>
      <line x1="26.2261" y1="30.2143" x2="26.2261" y2="19.7974" fill="none" stroke-linecap="round" stroke-linejoin="round" stroke="url(#h)"/>
      <line x1="17.9878" y1="29.6313" x2="17.9878" y2="19.2143" fill="none" stroke-linecap="round" stroke-linejoin="round" stroke="url(#i)"/>
      <line x1="34.5464" y1="25.645" x2="34.5464" y2="15.2281" fill="none" stroke-linecap="round" stroke-linejoin="round" stroke="url(#j)"/>
      <g opacity="0.3">
        <polygon points="26.185 20.351 34.607 14.379 34.607 23.139 26.181 29.002 26.185 20.351" stroke="#00415f" stroke-linecap="round" stroke-linejoin="round" fill="url(#k)"/>
        <polygon points="18.048 18.366 26.928 12.672 34.559 14.379 26.185 20.351 18.048 18.366" stroke="#00415f" stroke-linecap="round" stroke-linejoin="round" fill="url(#l)"/>
        <polygon points="26.185 20.351 26.181 29.002 18.191 26.88 18.048 18.366 26.185 20.351" stroke="#00415f" stroke-linecap="round" stroke-linejoin="round" fill="url(#m)"/>
      </g>
    </g>
    <g>
      <polygon points="40.5 44 54.5 51.097 54.5 34 40.5 27 40.5 44" stroke="#2d2d2d" stroke-linecap="round" stroke-linejoin="round" fill="url(#n)"/>
      <polygon points="45 34.5 45 42.5 50.851 38.717 45 34.5" fill="#2d2d2d"/>
    </g>
  </g>
</svg>
