<svg id="Layer_1" data-name="Layer 1" xmlns="http://www.w3.org/2000/svg" xmlns:xlink="http://www.w3.org/1999/xlink" viewBox="0 0 64 64"><defs><style>.cls-1,.cls-10,.cls-20{stroke:#6d6d6d;stroke-linecap:round;stroke-linejoin:round;}.cls-1{fill:url(#linear-gradient);}.cls-2{fill:url(#linear-gradient-2);}.cls-10,.cls-3{fill:#6d6d6d;}.cls-4{fill:url(#linear-gradient-3);}.cls-5{fill:url(#linear-gradient-4);}.cls-6{fill:url(#linear-gradient-5);}.cls-7{fill:url(#linear-gradient-6);}.cls-8{fill:url(#linear-gradient-7);}.cls-9{fill:url(#linear-gradient-8);}.cls-11{fill:url(#linear-gradient-9);}.cls-12{fill:url(#linear-gradient-10);}.cls-13{fill:url(#linear-gradient-11);}.cls-14{fill:#00415f;}.cls-15{fill:url(#linear-gradient-12);}.cls-16{fill:url(#linear-gradient-13);}.cls-17{fill:url(#linear-gradient-14);}.cls-18{fill:url(#linear-gradient-15);}.cls-19{fill:url(#linear-gradient-16);}.cls-20{fill:url(#linear-gradient-17);}.cls-21{fill:url(#linear-gradient-18);}.cls-22{fill:#343434;}.cls-23{fill:url(#linear-gradient-19);}.cls-24{fill:url(#linear-gradient-20);}.cls-25{fill:url(#linear-gradient-21);}.cls-26{fill:url(#linear-gradient-22);}.cls-27{fill:url(#linear-gradient-23);}</style><linearGradient id="linear-gradient" x1="33.42" y1="47.17" x2="53.63" y2="47.17" gradientUnits="userSpaceOnUse"><stop offset="0.01" stop-color="#4d4d4d"/><stop offset="1" stop-color="#c7c7c9"/></linearGradient><linearGradient id="linear-gradient-2" x1="55.39" y1="36.33" x2="29.49" y2="52.33" gradientUnits="userSpaceOnUse"><stop offset="0" stop-color="#f0f0f0"/><stop offset="1" stop-color="#b3b3b3"/></linearGradient><linearGradient id="linear-gradient-3" x1="49.22" y1="46.66" x2="52.52" y2="46.66" xlink:href="#linear-gradient-2"/><linearGradient id="linear-gradient-4" x1="36.59" y1="38.69" x2="39.31" y2="38.69" xlink:href="#linear-gradient-2"/><linearGradient id="linear-gradient-5" x1="37.5" y1="43.43" x2="50.14" y2="43.43" xlink:href="#linear-gradient"/><linearGradient id="linear-gradient-6" x1="37.7" y1="40.4" x2="50.35" y2="40.4" xlink:href="#linear-gradient-2"/><linearGradient id="linear-gradient-7" x1="42.26" y1="30.16" x2="48.75" y2="30.16" xlink:href="#linear-gradient-2"/><linearGradient id="linear-gradient-8" x1="47.25" y1="34.91" x2="39.77" y2="34.91" gradientUnits="userSpaceOnUse"><stop offset="0" stop-color="#f0f0f0"/><stop offset="0.12" stop-color="#e5e5e5"/><stop offset="0.33" stop-color="#c9c9c9"/><stop offset="0.59" stop-color="#9b9b9b"/><stop offset="0.91" stop-color="#5d5d5d"/><stop offset="1" stop-color="#4a4a4a"/></linearGradient><linearGradient id="linear-gradient-9" x1="50.26" y1="30.36" x2="38.48" y2="38.89" xlink:href="#linear-gradient-2"/><linearGradient id="linear-gradient-10" x1="40.95" y1="20.58" x2="35.78" y2="25.46" gradientUnits="userSpaceOnUse"><stop offset="0.18" stop-color="#f0f0f0"/><stop offset="0.3" stop-color="#e9e9e9"/><stop offset="0.47" stop-color="#d5d5d5"/><stop offset="0.68" stop-color="#b5b5b5"/><stop offset="0.91" stop-color="#888"/><stop offset="1" stop-color="#757575"/></linearGradient><linearGradient id="linear-gradient-11" x1="34.88" y1="18.77" x2="45.81" y2="18.77" gradientUnits="userSpaceOnUse"><stop offset="0" stop-color="#3c7e96"/><stop offset="0.07" stop-color="#4e90a8"/><stop offset="0.19" stop-color="#66a9c1"/><stop offset="0.33" stop-color="#7abdd5"/><stop offset="0.48" stop-color="#88cae3"/><stop offset="0.67" stop-color="#90d3ec"/><stop offset="1" stop-color="#92d5ee"/></linearGradient><linearGradient id="linear-gradient-12" x1="34.29" y1="11.24" x2="29.88" y2="15.17" gradientUnits="userSpaceOnUse"><stop offset="0.41" stop-color="#f0f0f0"/><stop offset="0.61" stop-color="#d0d0d0"/><stop offset="1" stop-color="#8c8c8c"/></linearGradient><linearGradient id="linear-gradient-13" x1="27.96" y1="16.23" x2="35.92" y2="16.23" xlink:href="#linear-gradient-2"/><linearGradient id="linear-gradient-14" x1="30.39" y1="16.35" x2="33.95" y2="16.35" xlink:href="#linear-gradient-2"/><linearGradient id="linear-gradient-15" x1="21.11" y1="20.8" x2="26.15" y2="25.83" gradientUnits="userSpaceOnUse"><stop offset="0" stop-color="#f0f0f0"/><stop offset="1" stop-color="#919191"/></linearGradient><linearGradient id="linear-gradient-16" x1="13.13" y1="30.36" x2="22.63" y2="30.36" xlink:href="#linear-gradient-15"/><linearGradient id="linear-gradient-17" x1="34.72" y1="15.49" x2="27.47" y2="21.12" xlink:href="#linear-gradient-2"/><linearGradient id="linear-gradient-18" x1="12.75" y1="31.54" x2="20.89" y2="31.54" xlink:href="#linear-gradient-2"/><linearGradient id="linear-gradient-19" x1="11.98" y1="32.75" x2="19.77" y2="32.75" xlink:href="#linear-gradient-11"/><linearGradient id="linear-gradient-20" x1="12.05" y1="33.87" x2="17.93" y2="33.87" xlink:href="#linear-gradient-11"/><linearGradient id="linear-gradient-21" x1="8.6" y1="41.53" x2="14.43" y2="41.53" xlink:href="#linear-gradient-11"/><linearGradient id="linear-gradient-22" x1="12.5" y1="35.15" x2="16.16" y2="35.15" xlink:href="#linear-gradient-11"/><linearGradient id="linear-gradient-23" x1="18.24" y1="20.19" x2="30.27" y2="20.19" xlink:href="#linear-gradient-11"/></defs><title>26-25771_DELAWG1_AP_AppIcon_r21x</title><g id="DELMIA___26-DELMIA_Arc_Welding_Simulation" data-name="DELMIA _ 26-DELMIA Arc Welding Simulation"><path class="cls-1" d="M33.75,42.28c-1,2.68,2.65,6.5,8.14,8.54s10.74,1.51,11.73-1.16A11,11,0,0,0,54,48"/><path class="cls-2" d="M48.87,49.84a19.26,19.26,0,0,1-6.59-1.28c-5.88-2.18-9.61-6.24-8.49-9.25.65-1.74,2.79-2.75,5.87-2.75a19.29,19.29,0,0,1,6.59,1.29c5.88,2.18,9.61,6.24,8.49,9.24-.65,1.75-2.79,2.75-5.87,2.75Z"/><path class="cls-3" d="M39.66,37.06a18.74,18.74,0,0,1,6.42,1.26c5.53,2,9.2,5.9,8.19,8.6-.59,1.59-2.66,2.42-5.4,2.42a18.71,18.71,0,0,1-6.42-1.25c-5.53-2.05-9.2-5.9-8.19-8.6.59-1.59,2.66-2.43,5.4-2.43m0-1c-3.3,0-5.62,1.12-6.34,3.08C32.11,42.41,36,46.75,42.1,49a19.82,19.82,0,0,0,6.77,1.31c3.31,0,5.62-1.12,6.34-3.07,1.21-3.27-2.64-7.61-8.78-9.89a19.85,19.85,0,0,0-6.77-1.32Z"/><path class="cls-4" d="M51.1,47.44l-.31,0c-1-.1-1.6-.61-1.57-.92s.6-.62,1.42-.62a1.51,1.51,0,0,1,.3,0c1,.09,1.6.61,1.57.92S51.91,47.44,51.1,47.44Z"/><path class="cls-3" d="M50.64,46.38h.25a2,2,0,0,1,1,.37,1.79,1.79,0,0,1-.83.18l-.26,0a2,2,0,0,1-1-.36,1.8,1.8,0,0,1,.84-.18m0-1c-1,0-1.86.44-1.92,1.07s.84,1.35,2,1.47l.36,0c1,0,1.85-.45,1.91-1.07s-.84-1.36-2-1.47l-.35,0Z"/><path class="cls-5" d="M38,39.28c-.82,0-1.36-.36-1.36-.6s.54-.59,1.36-.59,1.36.36,1.36.59S38.77,39.28,38,39.28Z"/><path class="cls-3" d="M38,38.59a1.7,1.7,0,0,1,.62.1,2.18,2.18,0,0,1-1.24,0,1.7,1.7,0,0,1,.62-.1m0-1c-1,0-1.86.49-1.86,1.09s.83,1.1,1.86,1.1,1.86-.49,1.86-1.1S39,37.59,38,37.59Z"/><path class="cls-6" d="M43.65,46.53c-3.49-.08-6.2-1.75-6.15-3.8v-1.9a.51.51,0,0,1,.5-.5l11.65.26a.53.53,0,0,1,.36.17.48.48,0,0,1,.13.38L50,43c0,2-2.65,3.49-6.06,3.49Z"/><path class="cls-3" d="M38,40.83l11.64.26L49.47,43c0,1.7-2.51,3-5.57,3h-.23C40.5,46,38,44.48,38,42.74V40.83m0-1a1,1,0,0,0-.7.29,1,1,0,0,0-.3.71v1.91c0,2.31,2.87,4.2,6.64,4.29h.26c3.68,0,6.49-1.71,6.57-4l.17-1.87a1,1,0,0,0-1-1.09L38,39.83Z"/><path class="cls-7" d="M43.94,44.11A9.27,9.27,0,0,1,39.61,43a3.22,3.22,0,0,1-1.9-2.75c0-2,2.68-3.57,6.15-3.57h.25a9.09,9.09,0,0,1,4.33,1.09,3.26,3.26,0,0,1,1.91,2.75c-.05,2-2.69,3.57-6.15,3.57Z"/><path class="cls-3" d="M43.86,37.19h.24c3.21.07,5.79,1.56,5.75,3.33s-2.55,3.08-5.65,3.08H44c-3.21-.08-5.78-1.57-5.74-3.34s2.54-3.08,5.65-3.08m0-1c-3.74,0-6.6,1.75-6.65,4.06a3.69,3.69,0,0,0,2.15,3.19,9.75,9.75,0,0,0,4.57,1.17h.27c3.73,0,6.59-1.74,6.65-4.06a3.72,3.72,0,0,0-2.16-3.19,9.6,9.6,0,0,0-4.57-1.16Z"/><path class="cls-8" d="M43.52,34.07a.46.46,0,0,1-.2,0c-.11-.05-1.06-.52-1.06-2.23a6.78,6.78,0,0,1,3.21-5.25,2.58,2.58,0,0,1,1.18-.3c1,0,2.1.66,2.1,2.52l-.1.58a.49.49,0,0,1-.39.41l-4.09.85-.15,3a.5.5,0,0,1-.24.4A.5.5,0,0,1,43.52,34.07Z"/><path class="cls-3" d="M46.65,26.74c.8,0,1.6.53,1.6,2l-.09.5-4.47.93-.17,3.38s-.76-.34-.76-1.78a6.25,6.25,0,0,1,3-4.81,2,2,0,0,1,.94-.24m0-1a3,3,0,0,0-1.42.37,7.17,7.17,0,0,0-3.47,5.68,2.72,2.72,0,0,0,1.35,2.69,1,1,0,0,0,.93-.06,1,1,0,0,0,.48-.8L44.65,31l3.71-.77a1,1,0,0,0,.79-.81l.08-.51a.88.88,0,0,0,0-.16c0-2.08-1.31-3-2.6-3Z"/><path class="cls-9" d="M44,42.34c-2,0-3.54-.84-3.54-1.94l.17-8.28a.49.49,0,0,1,.19-.39l2.45-1.85c.09-.06,1.9-1.38,2.92-2a2.51,2.51,0,0,1,1.19-.42.75.75,0,0,1,.69.38.4.4,0,0,1,0,.24l-.59,12.32C47.56,41.5,46,42.34,44,42.34Z"/><path class="cls-3" d="M47.41,28c.2,0,.24.09.24.09L47.06,40.4c0,.79-1.36,1.44-3,1.44s-3-.65-3-1.44l.17-8.27,2.44-1.85s1.86-1.36,2.87-1.94a2,2,0,0,1,.94-.35m0-1a2.9,2.9,0,0,0-1.44.48c-1,.61-2.88,1.94-2.95,2l-2.47,1.86a1,1,0,0,0-.39.78L40,40.38c0,1.43,1.7,2.46,4,2.46s4-1,4-2.44l.59-12.27a1,1,0,0,0-.1-.5A1.25,1.25,0,0,0,47.41,27Z"/><path class="cls-10" d="M47.21,26.81l-2.45-1.09s-4.47-.51-4.47,4.05c0,1.94.85,2.36.85,2.36l2.36,1.44v-3.8S45.19,26.73,47.21,26.81Z"/><path class="cls-11" d="M46.77,34.88a1.32,1.32,0,0,1-.66-.17,1.6,1.6,0,0,1-.7-1.45A3.73,3.73,0,0,1,46,31.49a2.88,2.88,0,0,1,2.22-1.61,1.26,1.26,0,0,1,.66.18c.86.5.93,1.91.16,3.21a2.88,2.88,0,0,1-2.22,1.61Z"/><path class="cls-3" d="M48.17,30.38a.81.81,0,0,1,.41.11c.6.35.59,1.49,0,2.53a2.45,2.45,0,0,1-1.79,1.36.72.72,0,0,1-.41-.11c-.6-.35-.59-1.48,0-2.53a2.45,2.45,0,0,1,1.79-1.36m0-1a3.32,3.32,0,0,0-2.65,1.86,4.14,4.14,0,0,0-.61,2,2.08,2.08,0,0,0,1,1.88,1.77,1.77,0,0,0,.91.24,3.33,3.33,0,0,0,2.65-1.85c.92-1.57.78-3.25-.33-3.9a1.84,1.84,0,0,0-.92-.25Z"/><path class="cls-12" d="M41.58,31.3a1.16,1.16,0,0,1-.31-.07l-.13-.1L31.18,21a.51.51,0,0,1-.06-.63l3.8-5.82a.48.48,0,0,1,.38-.23h0a.49.49,0,0,1,.38.18L45.58,25.9c.2.24.62.76-1.52,3.19C43.33,30.08,42.28,31.3,41.58,31.3Z"/><path class="cls-3" d="M35.33,14.83l9.88,11.39c.33.43-1.52,2.54-1.52,2.54s-1.52,2-2.11,2l-.09,0-10-10.12,3.79-5.83m0-1h-.06a1,1,0,0,0-.77.45l-3.8,5.82a1,1,0,0,0,.12,1.25l10,10.12a1.05,1.05,0,0,0,.27.2,1.18,1.18,0,0,0,.53.12c.33,0,1.09,0,2.89-2.42,2.09-2.38,2-3.22,1.52-3.78l-9.9-11.42a1,1,0,0,0-.76-.35Z"/><path class="cls-13" d="M45.31,25.5a.48.48,0,0,1-.37-.17l-1.69-1.94a.42.42,0,0,1-.09-.14c0-.11-.07-.16-.08-.19a1,1,0,0,1-.25-.5,12.49,12.49,0,0,0-2.38-4.64A15.43,15.43,0,0,0,35.63,14a.48.48,0,0,1-.25-.29s-.08-.25-.18-.52a1.7,1.7,0,0,0-.21-.36.5.5,0,0,1,.39-.82l.17,0a16.94,16.94,0,0,1,6.21,4.79A14,14,0,0,1,44.44,22,10.85,10.85,0,0,0,45.33,24c.14.26.29.52.43.8a.5.5,0,0,1-.17.64A.47.47,0,0,1,45.31,25.5Z"/><path class="cls-14" d="M35.38,12.53a16.29,16.29,0,0,1,6,4.63,13.46,13.46,0,0,1,2.59,5A18.7,18.7,0,0,0,45.31,25l-1.68-1.94c-.22-.54-.16-.14-.33-.65a12.7,12.7,0,0,0-2.47-4.8,15.56,15.56,0,0,0-5-4s-.08-.26-.18-.54a2.15,2.15,0,0,0-.29-.51m0-1a1,1,0,0,0-.82.43,1,1,0,0,0,0,1.21c0,.05.09.14.12.2.09.27.17.52.18.52a1,1,0,0,0,.49.58,14.79,14.79,0,0,1,4.66,3.77,11.81,11.81,0,0,1,2.29,4.47,1.74,1.74,0,0,0,.31.64l0,.08a1.05,1.05,0,0,0,.17.29l1.69,1.94a1,1,0,0,0,.75.34,1,1,0,0,0,.56-.17,1,1,0,0,0,.33-1.28c-.14-.29-.29-.55-.43-.82a9.93,9.93,0,0,1-.85-1.84,14.66,14.66,0,0,0-2.77-5.36,17.1,17.1,0,0,0-6.43-4.94,1,1,0,0,0-.34-.06Z"/><path class="cls-15" d="M30.1,21.07a.43.43,0,0,1-.19,0l-2.64-1.12a3.31,3.31,0,0,1-1.95-2.45,6.33,6.33,0,0,1,.32-3.74C26.47,11.54,28.27,10,30,10a2.77,2.77,0,0,1,1,.19l2.9,1.2a.48.48,0,0,1,.27.27.5.5,0,0,1,0,.38l-3.63,8.69a.45.45,0,0,1-.27.27A.41.41,0,0,1,30.1,21.07Z"/><path class="cls-3" d="M30,10.53a2.45,2.45,0,0,1,.85.15l2.89,1.2L30.1,20.57l-2.64-1.12c-1.68-.65-2.29-3.13-1.35-5.55.78-2,2.39-3.37,3.88-3.37m0-1h0c-2,0-3.89,1.61-4.82,4a6.93,6.93,0,0,0-.34,4,3.85,3.85,0,0,0,2.27,2.8l2.61,1.11a1.09,1.09,0,0,0,.39.08,1,1,0,0,0,.38-.07A1,1,0,0,0,31,21l3.62-8.7a.92.92,0,0,0,0-.76,1,1,0,0,0-.54-.55L31.22,9.76A3.27,3.27,0,0,0,30,9.53Z"/><path class="cls-16" d="M31.1,21.27a2.93,2.93,0,0,1-1-.19,3.37,3.37,0,0,1-2-2.46,6.45,6.45,0,0,1,.32-3.75c.84-2.17,2.63-3.68,4.36-3.68a2.72,2.72,0,0,1,1,.19c1.94.74,2.68,3.53,1.65,6.2-.84,2.17-2.63,3.69-4.35,3.69Z"/><path class="cls-3" d="M32.79,11.69a2.4,2.4,0,0,1,.84.15c1.69.65,2.29,3.14,1.36,5.56-.78,2-2.39,3.37-3.89,3.37a2.24,2.24,0,0,1-.84-.16C28.58,20,28,17.47,28.9,15.05c.78-2,2.4-3.36,3.89-3.36m0-1c-2,0-3.9,1.61-4.82,4a6.73,6.73,0,0,0-.34,4,3.85,3.85,0,0,0,2.27,2.81,3.28,3.28,0,0,0,1.2.23c2,0,3.9-1.61,4.83-4,1.14-3,.29-6-1.94-6.85a3.23,3.23,0,0,0-1.2-.22Z"/><path class="cls-17" d="M31.09,18.82a1.33,1.33,0,0,1-.66-1.06,3.87,3.87,0,0,1,.31-2.09c.55-1.33,1.51-2,2.17-2a1,1,0,0,1,.33.07l.71.35-2.27,5Z"/><path class="cls-3" d="M32.91,14.14l.12,0,.27.13-1.88,4.13-.13-.05a.91.91,0,0,1-.37-.69,3.57,3.57,0,0,1,.28-1.82c.49-1.18,1.3-1.72,1.71-1.72m0-1a3.38,3.38,0,0,0-2.64,2.34c-.69,1.67-.41,3.37.64,3.81l1,.4,2.67-5.87-1.18-.57a1.35,1.35,0,0,0-.52-.11Z"/><path class="cls-18" d="M20.32,31.27a.49.49,0,0,1-.32-.12l-3.46-3a.5.5,0,0,1-.07-.68l9.28-12.15c.55-.73.81-.73.94-.73a.58.58,0,0,1,.49.3,4.23,4.23,0,0,1,.2,1.39,10.61,10.61,0,0,0,.33,2.47,6,6,0,0,0,1.85,2.46.49.49,0,0,1,.07.75l-8.95,9.12A.51.51,0,0,1,20.32,31.27Z"/><path class="cls-3" d="M26.69,15.13a.05.05,0,0,1,0,0c.19.38.08,2.61.5,3.79a6.47,6.47,0,0,0,2,2.7l-8.95,9.12-3.46-3,9.29-12.15s.4-.53.54-.53m0-1c-.46,0-.85.27-1.34.93L16.07,27.21a1,1,0,0,0,.14,1.37l3.46,3A1,1,0,0,0,21,31.47L30,22.35a.94.94,0,0,0,.28-.78,1,1,0,0,0-.41-.73,5.49,5.49,0,0,1-1.67-2.22,10.21,10.21,0,0,1-.3-2.33,4.42,4.42,0,0,0-.25-1.58,1,1,0,0,0-.94-.58Z"/><path class="cls-19" d="M20.75,34.67a.5.5,0,0,1-.33-.12l-7.11-6.13a.47.47,0,0,1-.17-.35.5.5,0,0,1,.13-.37l1.38-1.48a.59.59,0,0,1,.4-.17c.57,0,2.53,1.59,4.08,2.92,2.29,2,3.47,3.21,3.5,3.65a.58.58,0,0,1-.13.4l-1.39,1.49A.48.48,0,0,1,20.75,34.67Z"/><path class="cls-3" d="M15.05,26.55a18.93,18.93,0,0,1,3.76,2.8c2,1.7,3.45,3.19,3.32,3.34l-1.38,1.48L13.63,28,15,26.56h0m0-1a1.08,1.08,0,0,0-.79.36L12.9,27.36A1,1,0,0,0,13,28.8l7.11,6.13a1,1,0,0,0,1.39-.08l1.38-1.48a1.07,1.07,0,0,0,.27-.78c0-.33-.06-.89-3.67-4s-4.13-3.05-4.41-3.05Z"/><path class="cls-20" d="M35.09,17.46c.7-1.67.42-3.38-.63-3.81s-2.46.56-3.15,2.23-.42,3.37.63,3.81S34.4,19.13,35.09,17.46Z"/><path class="cls-21" d="M20.34,35.12c-.57,0-2.54-1.59-4.09-2.93-2.29-2-3.46-3.2-3.5-3.64a.57.57,0,0,1,.13-.4.59.59,0,0,1,.41-.18c.57,0,2.54,1.59,4.09,2.92.95.83,1.83,1.64,2.47,2.28.83.83,1.28,1.32.9,1.76A.61.61,0,0,1,20.34,35.12Z"/><path class="cls-3" d="M13.29,28.47a18.93,18.93,0,0,1,3.76,2.8c2,1.69,3.45,3.19,3.32,3.34h0a18.93,18.93,0,0,1-3.76-2.8c-2-1.7-3.45-3.19-3.32-3.34h0m0-1a1.08,1.08,0,0,0-.79.36,1.13,1.13,0,0,0-.25.75c0,.33.07.88,3.68,4s4.12,3,4.41,3a1.08,1.08,0,0,0,.79-.36c.7-.81-.13-1.64-.93-2.45-.64-.65-1.53-1.46-2.5-2.3-3.53-3-4.12-3-4.41-3Z"/><path class="cls-22" d="M30,10.52a2.45,2.45,0,0,1,.85.15l2.89,1.2h0a3.26,3.26,0,0,1,1.69,3l9.36,10.8h0l2.45,1.09H47.1c.62.18,1.15.73,1.15,1.93l-.09.51-.57.12-.05,1.18a1.48,1.48,0,0,1,.64-.18.8.8,0,0,1,.4.11c.6.35.59,1.48,0,2.53a3.06,3.06,0,0,1-1.2,1.2l-.17,3.54a3.75,3.75,0,0,1,2.62,2.37c3.33,2.08,5.22,4.76,4.46,6.79l-.65,2.73C53,51.22,51,52.05,48.26,52.05a18.61,18.61,0,0,1-6.37-1.24c-5.49-2-9.13-5.86-8.14-8.54l.51-2.79c.59-1.59,2.66-2.43,5.4-2.43a13.34,13.34,0,0,1,1.39.07l.11-5s-.85-.42-.85-2.36c0-.07,0-.12,0-.18L31.6,20.7a2.61,2.61,0,0,1-.48.05,2.45,2.45,0,0,1-.8-.14l-10,10.12c1.14,1.05,1.87,1.84,1.78,1.95l-1.38,1.48-.38.44h0a19.19,19.19,0,0,1-3.76-2.81,31.48,31.48,0,0,1-3.32-3.33s.19-.36.37-.44L15,26.55s0,0,0,0a7.52,7.52,0,0,1,1.84,1.23l8.79-11.51a6.23,6.23,0,0,1,.43-2.38c.78-2,2.39-3.36,3.88-3.36m0-.8h0c-1.88,0-3.74,1.56-4.63,3.88A7.07,7.07,0,0,0,24.88,16L16.74,26.65c-1.22-.91-1.47-.91-1.69-.91a.87.87,0,0,0-.64.29L13.13,27.4a2,2,0,0,0-.58.7.81.81,0,0,0,.09.88,32.87,32.87,0,0,0,3.42,3.43c3.48,3,4.06,3,4.28,3a.9.9,0,0,0,.63-.28l.38-.45,1.36-1.46c.55-.62.15-1.21-1.21-2.51l9.07-9.21a3.31,3.31,0,0,0,.55.05h.18l8.21,8.36a3.73,3.73,0,0,0,.84,2.58l-.08,3.79-.61,0c-3.22,0-5.46,1.08-6.15,3a.65.65,0,0,0,0,.13L33,42.06c-.55,1.58.1,3.45,1.83,5.27a18.33,18.33,0,0,0,6.8,4.23,19.61,19.61,0,0,0,6.65,1.29c3.19,0,5.42-1.07,6.11-2.93l0-.09L55,47.14c.82-2.32-.91-5.19-4.55-7.53A4.38,4.38,0,0,0,48,37.23l.12-2.57a3.87,3.87,0,0,0,1.11-1.25c.86-1.47.75-3-.26-3.62l-.17-.09a.83.83,0,0,0,.13-.32l.08-.5a.68.68,0,0,0,0-.14,2.61,2.61,0,0,0-1.25-2.5.81.81,0,0,0-.24-.17l-2.31-1-9-10.45a4,4,0,0,0-2-3.37,1.4,1.4,0,0,0-.17-.09l-2.9-1.2A3.21,3.21,0,0,0,30,9.72Z"/><path class="cls-23" d="M18.06,36.26a.48.48,0,0,1-.36-.16s-1.4-1.46-2.7-2.58a19.34,19.34,0,0,0-2.77-2,.51.51,0,0,1-.24-.33.48.48,0,0,1,.09-.4l1.05-1.4a.51.51,0,0,1,.4-.2.46.46,0,0,1,.23.05,22,22,0,0,1,2.92,1.87,25,25,0,0,1,3,3,.49.49,0,0,1,0,.66L18.42,36.1a.52.52,0,0,1-.36.16Z"/><path class="cls-14" d="M13.53,29.74a21.15,21.15,0,0,1,2.85,1.82,24.5,24.5,0,0,1,2.89,2.94l-1.21,1.26s-1.4-1.47-2.73-2.62a20.56,20.56,0,0,0-2.85-2l1-1.4m0-1a1,1,0,0,0-.8.4l-1.05,1.4a1,1,0,0,0-.18.8A1,1,0,0,0,12,32a19.71,19.71,0,0,1,2.69,1.9c1.28,1.1,2.65,2.53,2.66,2.55a1,1,0,0,0,.72.31h0a1,1,0,0,0,.72-.31L20,35.19A1,1,0,0,0,20,33.86,24.58,24.58,0,0,0,17,30.77a21.45,21.45,0,0,0-3-1.92.92.92,0,0,0-.46-.11Z"/><path class="cls-24" d="M15.54,36.65a.52.52,0,0,1-.32-.11l-3-2.48a.5.5,0,0,1-.16-.53l.66-2.1a.51.51,0,0,1,.29-.32.57.57,0,0,1,.18,0,.43.43,0,0,1,.25.07,17.43,17.43,0,0,1,4.36,3.73.49.49,0,0,1-.16.76l-1.89,1A.44.44,0,0,1,15.54,36.65Z"/><path class="cls-14" d="M13.2,31.58a17.35,17.35,0,0,1,4.23,3.62l-1.89.95-3-2.47.65-2.1m0-1a.92.92,0,0,0-.36.07,1,1,0,0,0-.59.63l-.66,2.1a1,1,0,0,0,.32,1.07l3,2.47a1,1,0,0,0,.64.23,1,1,0,0,0,.45-.1l1.89-1a1,1,0,0,0,.32-1.53,18.36,18.36,0,0,0-4.5-3.85,1,1,0,0,0-.5-.13Z"/><path class="cls-25" d="M10.05,48.34a1.69,1.69,0,0,1-.38,0,1.33,1.33,0,0,1-.93-.61,1.06,1.06,0,0,1-.08-.85s1.15-7.22,1.27-8.05a4.33,4.33,0,0,1,.63-1.66l1.58-2.2a.52.52,0,0,1,.35-.2h.06a.52.52,0,0,1,.32.11L14.25,36a.49.49,0,0,1,.06.7,11.55,11.55,0,0,0-1.52,2.18c-.11.54-1.49,8.42-1.5,8.5A1.25,1.25,0,0,1,10.05,48.34Z"/><path class="cls-14" d="M12.55,35.23l1.38,1.14a11.88,11.88,0,0,0-1.63,2.4c-.11.55-1.51,8.51-1.51,8.51a.73.73,0,0,1-.74.56l-.27,0c-.87-.18-.65-.81-.65-.81s1.17-7.3,1.3-8.14A3.84,3.84,0,0,1,11,37.41l1.58-2.18m0-1h-.13a1,1,0,0,0-.68.41l-1.58,2.18a5,5,0,0,0-.72,1.9c-.12.78-1.18,7.4-1.29,8.07a1.58,1.58,0,0,0,.15,1.14,1.79,1.79,0,0,0,1.27.86,2.61,2.61,0,0,0,.48.05,1.71,1.71,0,0,0,1.72-1.36c.39-2.24,1.42-8.07,1.51-8.5a13.23,13.23,0,0,1,1.42-2,1,1,0,0,0-.13-1.41l-1.38-1.14a1,1,0,0,0-.64-.23Z"/><path class="cls-26" d="M14.42,36.87a.45.45,0,0,1-.29-.1L12.7,35.72a.51.51,0,0,1-.2-.4v-1a.52.52,0,0,1,.12-.33l.34-.4a.52.52,0,0,1,.38-.17.48.48,0,0,1,.32.11L16,35.48a.48.48,0,0,1,.1.65l-.28.43a.46.46,0,0,1-.38.23Z"/><path class="cls-14" d="M13.34,33.93l2.32,1.93-.28.43-1,.08-1.42-1v-1l.34-.4m0-1a1,1,0,0,0-.76.35l-.34.4a1,1,0,0,0-.24.65v1a1,1,0,0,0,.41.8l1.42,1.06a1,1,0,0,0,.59.19h.08l1-.08a1,1,0,0,0,.77-.46l.27-.43a1,1,0,0,0-.2-1.31L14,33.16a1,1,0,0,0-.64-.23Z"/><path class="cls-27" d="M19.42,29.37a.49.49,0,0,1-.28-.09l-.68-.47a.5.5,0,0,1-.14-.69,10.18,10.18,0,0,0,1.1-2.55l.28-.83a21.85,21.85,0,0,0,.66-3.16,17,17,0,0,1,1.32-5c1.46-2.8,3.93-4.19,7.45-5.51a.92.92,0,0,1,.38-.07.74.74,0,0,1,.7.37.6.6,0,0,1-.06.63A2.34,2.34,0,0,1,29,13c-3.18,1.15-4.31,2-5.76,4.32A12.51,12.51,0,0,0,22.07,22a18.94,18.94,0,0,1-.63,3.34c-.11.36-.2.61-.28.85a12.16,12.16,0,0,1-1.32,3A.52.52,0,0,1,19.42,29.37Z"/><path class="cls-14" d="M29.51,11.5c.17,0,.33.07.23.21a1.84,1.84,0,0,1-.91.83c-3.26,1.18-4.48,2.07-6,4.52-1.25,2-1.1,5.85-1.84,8.1-.1.3-.19.58-.28.84a11.38,11.38,0,0,1-1.26,2.87l-.69-.47a10.42,10.42,0,0,0,1.16-2.67c.08-.26.18-.54.27-.84.77-2.32.75-5.75,2-8.08,1.39-2.69,3.85-4,7.17-5.27a.49.49,0,0,1,.21,0m0-1a1.69,1.69,0,0,0-.56.1c-3.53,1.33-6.19,2.81-7.71,5.75a17.4,17.4,0,0,0-1.38,5.15,20.25,20.25,0,0,1-.64,3.08c-.09.3-.18.58-.27.83a10.55,10.55,0,0,1-1,2.4,1,1,0,0,0,.24,1.41l.69.48a1.06,1.06,0,0,0,.57.17,1,1,0,0,0,.82-.43,13.56,13.56,0,0,0,1.38-3.12c.08-.23.17-.48.25-.75l0-.1A20.54,20.54,0,0,0,22.57,22a12.55,12.55,0,0,1,1.09-4.45c1.39-2.22,2.42-3,5.51-4.11a2.62,2.62,0,0,0,1.33-1.11l.06-.08a1.11,1.11,0,0,0,.09-1.15,1.23,1.23,0,0,0-1.14-.64Z"/></g></svg>