<svg id="Layer_27_copy_2" data-name="Layer 27 copy 2" xmlns="http://www.w3.org/2000/svg" xmlns:xlink="http://www.w3.org/1999/xlink" viewBox="0 0 64 64"><defs><style>.cls-1,.cls-30,.cls-31,.cls-32{fill:none;}.cls-2{clip-path:url(#clip-path);}.cls-3{fill:url(#linear-gradient);}.cls-4{fill:url(#linear-gradient-2);}.cls-19,.cls-21,.cls-5{stroke:#6d6d6d;}.cls-10,.cls-11,.cls-12,.cls-13,.cls-14,.cls-15,.cls-16,.cls-19,.cls-21,.cls-24,.cls-28,.cls-29,.cls-30,.cls-31,.cls-32,.cls-33,.cls-5,.cls-6,.cls-7,.cls-8,.cls-9{stroke-linecap:round;}.cls-10,.cls-11,.cls-12,.cls-13,.cls-14,.cls-15,.cls-16,.cls-19,.cls-21,.cls-24,.cls-28,.cls-29,.cls-30,.cls-32,.cls-33,.cls-5,.cls-6,.cls-7,.cls-8,.cls-9{stroke-linejoin:round;}.cls-5{fill:url(#linear-gradient-3);}.cls-10,.cls-11,.cls-12,.cls-13,.cls-14,.cls-15,.cls-16,.cls-6,.cls-7,.cls-8,.cls-9{stroke:#00415f;}.cls-6{fill:url(#linear-gradient-4);}.cls-7{fill:url(#linear-gradient-5);}.cls-8{fill:url(#linear-gradient-6);}.cls-9{fill:url(#linear-gradient-7);}.cls-10{fill:url(#linear-gradient-8);}.cls-11{fill:url(#linear-gradient-9);}.cls-12{fill:url(#linear-gradient-10);}.cls-13{fill:url(#linear-gradient-11);}.cls-14{fill:url(#linear-gradient-12);}.cls-15{fill:url(#linear-gradient-13);}.cls-16{fill:url(#linear-gradient-14);}.cls-17{fill:url(#linear-gradient-15);}.cls-18{fill:#6d6d6d;}.cls-19{fill:url(#linear-gradient-16);}.cls-20{fill:url(#linear-gradient-17);}.cls-21{fill:url(#linear-gradient-18);}.cls-22{fill:url(#linear-gradient-19);}.cls-23{fill:#2d2d2d;}.cls-24,.cls-29{fill:#fff;}.cls-24,.cls-28{stroke:#323232;}.cls-24,.cls-29,.cls-32,.cls-33{stroke-width:0.5px;}.cls-25{fill:#2d6d8b;}.cls-26{fill:#aadcfa;}.cls-27{fill:#5a9ab8;}.cls-28,.cls-33{fill:#f1f0f0;}.cls-28{stroke-width:0.28px;}.cls-29,.cls-33{stroke:#000;}.cls-30,.cls-31{stroke:#aadcfa;stroke-width:0.9px;}.cls-31{stroke-miterlimit:10;}.cls-32{stroke:url(#New_Gradient_Swatch_1);}</style><clipPath id="clip-path"><polygon class="cls-1" points="27 46 0 46 0 8 47 8 46.81 28.13 36 31.44 32.44 29.88 27 32 27 46"/></clipPath><linearGradient id="linear-gradient" x1="34.79" y1="23.37" x2="61.94" y2="23.37" gradientUnits="userSpaceOnUse"><stop offset="0" stop-color="#787878"/><stop offset="1" stop-color="#fcfcfc"/></linearGradient><linearGradient id="linear-gradient-2" x1="21.89" y1="5.2" x2="7.6" y2="27.98" gradientUnits="userSpaceOnUse"><stop offset="0" stop-color="#c9c9c9"/><stop offset="1" stop-color="#737373"/></linearGradient><linearGradient id="linear-gradient-3" x1="68.78" y1="-5.04" x2="12.39" y2="38.24" gradientUnits="userSpaceOnUse"><stop offset="0" stop-color="#fcfcfc"/><stop offset="1" stop-color="#b3b3b3"/></linearGradient><linearGradient id="linear-gradient-4" x1="24.17" y1="32.88" x2="37.76" y2="23.94" gradientUnits="userSpaceOnUse"><stop offset="0.1" stop-color="#195a72"/><stop offset="0.5" stop-color="#5a9cb5"/><stop offset="1" stop-color="#93d2f0"/></linearGradient><linearGradient id="linear-gradient-5" x1="23.63" y1="34.5" x2="51.83" y2="20.89" xlink:href="#linear-gradient-4"/><linearGradient id="linear-gradient-6" x1="28.68" y1="29.87" x2="42.25" y2="20.51" xlink:href="#linear-gradient-4"/><linearGradient id="linear-gradient-7" x1="12.63" y1="37.08" x2="44.76" y2="21.26" xlink:href="#linear-gradient-4"/><linearGradient id="linear-gradient-8" x1="10.95" y1="35.15" x2="25.01" y2="27.42" xlink:href="#linear-gradient-4"/><linearGradient id="linear-gradient-9" x1="15.43" y1="33.24" x2="27.36" y2="19.24" xlink:href="#linear-gradient-4"/><linearGradient id="linear-gradient-10" x1="26.79" y1="23.68" x2="33.89" y2="23.68" xlink:href="#linear-gradient-4"/><linearGradient id="linear-gradient-11" x1="24.95" y1="22.1" x2="33.89" y2="22.1" xlink:href="#linear-gradient-4"/><linearGradient id="linear-gradient-12" x1="10.09" y1="28.97" x2="39.87" y2="16.22" xlink:href="#linear-gradient-4"/><linearGradient id="linear-gradient-13" x1="6.5" y1="23.67" x2="17.77" y2="23.67" xlink:href="#linear-gradient-4"/><linearGradient id="linear-gradient-14" x1="12.25" y1="25.53" x2="-0.95" y2="36.84" xlink:href="#linear-gradient-4"/><linearGradient id="linear-gradient-15" x1="38.33" y1="12.67" x2="19.89" y2="28.46" xlink:href="#linear-gradient-3"/><linearGradient id="linear-gradient-16" x1="33.69" y1="21.27" x2="36.46" y2="21.27" xlink:href="#linear-gradient-2"/><linearGradient id="linear-gradient-17" x1="30.08" y1="13.81" x2="15.99" y2="26.87" xlink:href="#linear-gradient-3"/><linearGradient id="linear-gradient-18" x1="24" y1="23.96" x2="26.67" y2="23.96" xlink:href="#linear-gradient-2"/><linearGradient id="linear-gradient-19" x1="20.46" y1="17.03" x2="3.1" y2="30.2" xlink:href="#linear-gradient-3"/><linearGradient id="New_Gradient_Swatch_1" x1="28.76" y1="44.38" x2="33.33" y2="44.38" gradientUnits="userSpaceOnUse"><stop offset="0" stop-color="#464646"/><stop offset="0.99" stop-color="#141414"/></linearGradient></defs><title>16274_A33AAe__R21XArtboard 1</title><g class="cls-2"><polygon class="cls-3" points="44.88 16.46 44.88 30.28 30.34 18.91 44.88 16.46"/><polygon class="cls-4" points="7.13 18.08 7.14 26.64 16.78 24.01 7.13 18.08"/><polygon class="cls-5" points="15.55 38.63 43.95 29.58 31.75 20.02 7.18 26.67 15.55 38.63"/><polygon class="cls-6" points="28.99 26.04 31.68 28.34 40.09 26.08 37.07 23.8 28.99 26.04"/><polygon class="cls-7" points="40.09 26.08 40.07 28.83 31.68 31.43 31.68 28.34 40.09 26.08"/><polygon class="cls-8" points="28.99 26.04 28.99 28.71 31.68 31.43 31.68 28.34 28.99 26.04"/><polygon class="cls-9" points="26.92 29.73 17 32.28 17 35.74 26.92 32.69 26.92 29.73"/><polygon class="cls-10" points="23.86 27.37 14.75 29.7 17 32.28 26.92 29.73 23.86 27.37"/><polygon class="cls-11" points="17 35.74 17 32.28 14.75 29.7 14.75 32.78 17 35.74"/><polygon class="cls-12" points="26.79 25.66 33.89 23.66 33.89 21.7 26.79 23.71 26.79 25.66"/><polygon class="cls-13" points="32.31 20.49 33.89 21.7 26.79 23.71 24.95 22.38 32.31 20.49"/><polygon class="cls-14" points="21.8 23.63 21.8 26.37 12.42 29 12.42 25.55 21.8 23.63"/><polygon class="cls-15" points="10.53 23.4 12.42 25.55 21.8 23.63 19.31 21.8 10.53 23.4"/><polygon class="cls-16" points="12.42 29 10.53 26.89 10.53 23.4 12.42 25.55 12.42 29"/><path class="cls-17" d="M36.09,23.59a.49.49,0,0,1-.3-.1L24.4,14.68a.52.52,0,0,1-.2-.42.5.5,0,0,1,.23-.39L32,9a.5.5,0,0,1,.27-.08A.48.48,0,0,1,32.5,9l12.66,7.7a.46.46,0,0,1,.24.41.5.5,0,0,1-.22.43l-8.8,6A.6.6,0,0,1,36.09,23.59Z"/><path class="cls-18" d="M32.24,9.4,44.9,17.09l-8.81,6L24.7,14.28,32.24,9.4m0-1a1,1,0,0,0-.55.16l-7.53,4.89a1,1,0,0,0-.46.79,1,1,0,0,0,.39.84l11.39,8.8a1,1,0,0,0,.61.21,1,1,0,0,0,.57-.17l8.81-6a1,1,0,0,0,.43-.85,1,1,0,0,0-.48-.83L32.76,8.55a1,1,0,0,0-.52-.15Z"/><polygon class="cls-19" points="36.46 19.17 36.46 23.37 33.7 21.16 36.46 19.17"/><path class="cls-20" d="M26.6,26.14a.47.47,0,0,1-.33-.14L15.79,16.29a.49.49,0,0,1-.16-.41.52.52,0,0,1,.24-.38l8.28-5a.48.48,0,0,1,.26-.07.52.52,0,0,1,.29.09l11.56,8.21a.53.53,0,0,1,.21.42.47.47,0,0,1-.22.4l-9.36,6.47A.52.52,0,0,1,26.6,26.14Z"/><path class="cls-18" d="M24.41,11,36,19.17,26.6,25.64,16.13,15.93l8.28-5m0-1a1.07,1.07,0,0,0-.52.14l-8.28,5a1,1,0,0,0-.48.75,1,1,0,0,0,.32.84l10.48,9.71a1,1,0,0,0,1.24.09L36.53,20a1,1,0,0,0,0-1.63L25,10.14a1,1,0,0,0-.58-.18Z"/><polygon class="cls-21" points="26.67 21.77 26.67 26.14 24 23.61 26.67 21.77"/><path class="cls-22" d="M15.72,29.09a.5.5,0,0,1-.39-.18L6.74,18.4a.54.54,0,0,1-.11-.4.51.51,0,0,1,.23-.34l8.73-5.5a.53.53,0,0,1,.27-.08.51.51,0,0,1,.33.13L26.51,21.4a.51.51,0,0,1-.06.79L16,29A.45.45,0,0,1,15.72,29.09Z"/><path class="cls-18" d="M15.86,12.58l10.31,9.19L15.72,28.59,7.13,18.08l8.73-5.5m0-1a1,1,0,0,0-.54.16L6.59,17.23a1,1,0,0,0-.24,1.48l8.59,10.52a1,1,0,0,0,.78.36,1,1,0,0,0,.54-.16l10.46-6.82a1,1,0,0,0,.45-.77,1,1,0,0,0-.33-.82L16.52,11.84a1,1,0,0,0-.66-.26Z"/><path class="cls-23" d="M32.24,9.4l12.63,7.66V29.31L15.55,38.58,7.14,26.64V18.08l8.73-5.5,2.34,2.06L24.41,11l2.64,1.83L32.24,9.4m0-1a1.1,1.1,0,0,0-.55.16l-4.62,3L25,10.14a1,1,0,0,0-1.08,0l-5.59,3.31-1.79-1.58a1,1,0,0,0-.66-.25,1,1,0,0,0-.54.16L6.59,17.23a1,1,0,0,0-.46.85v8.56a1,1,0,0,0,.18.57l8.41,11.95a1,1,0,0,0,.82.42,1,1,0,0,0,.3,0l29.33-9.28a1,1,0,0,0,.69-1V17.06a1,1,0,0,0-.48-.86L32.76,8.55a1,1,0,0,0-.52-.15Z"/></g><g id="Layer_22_copy_2" data-name="Layer 22  **** copy 2"><polygon class="cls-24" points="59.07 44 34 52.75 29 50 54 42 59.07 44"/><g id="Layer_21_copy_2" data-name="Layer 21 copy 2"><g id="M_1" data-name="M 1"><polygon class="cls-25" points="38 45.94 42 44.63 42 49.94 38 51.36 38 45.94"/><polygon class="cls-26" points="35 44.94 39.3 43.64 42 44.63 38 45.94 35 44.94"/><polygon class="cls-27" points="38 45.94 38 51.36 35 49.56 35 44.94 38 45.94"/></g><g id="M_2" data-name="M  2"><polygon class="cls-25" points="46 36 50 35 50 47.19 46 48.57 46 36"/><polygon class="cls-26" points="43 35 47 34 50 35 46 36 43 35"/><polygon class="cls-27" points="46 36 46 48.57 43 46.72 43 35 46 36"/></g><g id="M_3" data-name="M  3"><polygon class="cls-25" points="54 29 58 28 58 44.34 54 45.76 54 29"/><polygon class="cls-26" points="51 28 55 27 58 28 54 29 51 28"/><polygon class="cls-27" points="54 29 54 45.76 51 44.27 51 28 54 29"/></g></g><polygon id="dos" class="cls-28" points="33.08 34.99 33.08 55.69 29.01 53.17 29.01 33.08 33.08 34.99"/><polygon class="cls-29" points="33.08 34.99 36 33.96 36 52 59.07 44 59.07 46 33.08 55.69 33.08 34.99"/><g id="Blend_ligne_" data-name="Blend   ligne  ***"><line class="cls-30" x1="35.61" y1="46.69" x2="59.01" y2="39.25"/><line class="cls-31" x1="35.61" y1="41.14" x2="59.01" y2="34.04"/><line class="cls-31" x1="35.61" y1="35.58" x2="59.01" y2="28.83"/></g><polyline id="surlignage_ok_" data-name="surlignage ok ***" class="cls-32" points="33.08 55.69 29.01 53.17 29.01 33.08 33.08 34.99"/><polygon class="cls-33" points="29.01 33.08 31.92 32.17 36 33.96 33.08 34.99 29.01 33.08"/></g></svg>