<svg xmlns="http://www.w3.org/2000/svg" xmlns:xlink="http://www.w3.org/1999/xlink" width="64" height="64" viewBox="0 0 64 64">
  <defs>
    <linearGradient id="a" x1="6.5083" y1="32.4541" x2="40.5764" y2="32.4541" gradientUnits="userSpaceOnUse">
      <stop offset="0" stop-color="#828282"/>
      <stop offset="1" stop-color="#4a4a4a"/>
    </linearGradient>
    <linearGradient id="b" x1="6.5084" y1="37.1465" x2="13.5078" y2="37.1465" xlink:href="#a"/>
    <linearGradient id="c" x1="12.5078" y1="37.394" x2="26.5635" y2="37.394" xlink:href="#a"/>
    <linearGradient id="d" x1="25.5635" y1="37.0728" x2="30.4736" y2="37.0728" xlink:href="#a"/>
    <linearGradient id="e" x1="29.4736" y1="37.3306" x2="40.5843" y2="37.3306" xlink:href="#a"/>
    <linearGradient id="f" x1="11.1639" y1="24.8049" x2="19.2611" y2="41.322" gradientUnits="userSpaceOnUse">
      <stop offset="0" stop-color="#c9c9c9"/>
      <stop offset="1" stop-color="#737373"/>
    </linearGradient>
    <linearGradient id="g" x1="14.4782" y1="30.1685" x2="22.1777" y2="30.1685" gradientUnits="userSpaceOnUse">
      <stop offset="0" stop-color="#c9c9c9"/>
      <stop offset="1" stop-color="#666"/>
    </linearGradient>
    <linearGradient id="h" x1="34.2042" y1="20.5957" x2="-24.152" y2="46.3232" gradientUnits="userSpaceOnUse">
      <stop offset="0" stop-color="#f7f7f7"/>
      <stop offset="1" stop-color="#737373"/>
    </linearGradient>
    <linearGradient id="i" x1="28.5315" y1="31.6138" x2="33.6171" y2="31.6138" gradientUnits="userSpaceOnUse">
      <stop offset="0" stop-color="#737373"/>
      <stop offset="1" stop-color="#c9c9c9"/>
    </linearGradient>
    <linearGradient id="j" x1="42.2748" y1="26.0945" x2="11.3711" y2="67.38" gradientUnits="userSpaceOnUse">
      <stop offset="0" stop-color="#e8e8e8"/>
      <stop offset="1" stop-color="#737373"/>
    </linearGradient>
    <linearGradient id="k" x1="22.8525" y1="33.6968" x2="28.415" y2="33.6968" gradientUnits="userSpaceOnUse">
      <stop offset="0" stop-color="#43859e"/>
      <stop offset="0.1848" stop-color="#599bb4"/>
      <stop offset="0.6935" stop-color="#92d5ee"/>
    </linearGradient>
    <linearGradient id="l" x1="20.082" y1="24.2202" x2="30.8604" y2="24.2202" gradientUnits="userSpaceOnUse">
      <stop offset="0" stop-color="#43859e"/>
      <stop offset="0.2665" stop-color="#599bb4"/>
      <stop offset="1" stop-color="#92d5ee"/>
    </linearGradient>
    <linearGradient id="m" x1="32.9213" y1="17.8231" x2="2.763" y2="33.0381" gradientUnits="userSpaceOnUse">
      <stop offset="0" stop-color="#92d5ee"/>
      <stop offset="0.4825" stop-color="#599bb4"/>
      <stop offset="1" stop-color="#185971"/>
    </linearGradient>
    <linearGradient id="n" x1="40.3438" y1="19.282" x2="64.5145" y2="56.815" gradientUnits="userSpaceOnUse">
      <stop offset="0" stop-color="#fff"/>
      <stop offset="1" stop-color="#bfbfbf"/>
    </linearGradient>
    <linearGradient id="o" x1="45.6818" y1="277.5569" x2="54.0867" y2="284.3347" gradientTransform="matrix(1, 0.4663, 0, 1, 0, -268.6675)" gradientUnits="userSpaceOnUse">
      <stop offset="0" stop-color="#fff"/>
      <stop offset="1" stop-color="#bbbdbf"/>
    </linearGradient>
    <linearGradient id="p" x1="46.4045" y1="28.228" x2="52.0365" y2="41.1617" gradientUnits="userSpaceOnUse">
      <stop offset="0" stop-color="#92d5ee"/>
      <stop offset="1" stop-color="#6f9cae"/>
    </linearGradient>
    <linearGradient id="q" x1="48.7052" y1="277.7875" x2="53.5196" y2="281.6699" gradientTransform="matrix(1, 0.4663, 0, 1, 0, -268.6675)" gradientUnits="userSpaceOnUse">
      <stop offset="0" stop-color="#92d5ee"/>
      <stop offset="0.1464" stop-color="#8ccfe8"/>
      <stop offset="0.3423" stop-color="#7cbed7"/>
      <stop offset="0.5662" stop-color="#60a3bb"/>
      <stop offset="0.809" stop-color="#3b7c95"/>
      <stop offset="1" stop-color="#185971"/>
    </linearGradient>
  </defs>
  <title>I_DELBWP2_AP</title>
  <g>
    <g>
      <path d="M11.57,39.0908a.5.5,0,0,1-.3945-.1933L6.6138,33.03a.4991.4991,0,0,1,.2646-.7891l23.78-6.4062a.492.492,0,0,1,.13-.0176.5.5,0,0,1,.3262.1211l9.288,7.9853a.5.5,0,0,1-.1728.8545L30.127,38.0371a.4849.4849,0,0,1-.1534.0244.5013.5013,0,0,1-.3457-.1386l-3.6933-3.54-14.208,4.6826A.4761.4761,0,0,1,11.57,39.0908Z" fill="url(#a)"/>
      <path d="M30.7876,26.3179l9.2881,7.9853L29.9741,37.5611,26.063,33.814,11.5708,38.59,7.0083,32.7241l23.7793-6.4062m0-1a1,1,0,0,0-.26.0345L6.7482,31.7585a1,1,0,0,0-.5293,1.5795l4.5625,5.8663a1,1,0,0,0,1.1024.3358l13.9214-4.5883,3.4771,3.3313a1,1,0,0,0,.9987.23l10.1016-3.2579a1,1,0,0,0,.345-1.71L31.44,25.56a1,1,0,0,0-.652-.2418Z" fill="#4a4a4a"/>
    </g>
    <g>
      <path d="M13.0078,41.9629a.5.5,0,0,1-.3535-.1465l-5.9995-6a.5.5,0,0,1-.146-.374L6.6152,32.81a.5.5,0,0,1,.8452-.3408l5.8931,5.6328a.4985.4985,0,0,1,.1543.3613v3a.5.5,0,0,1-.5.5Z" fill="url(#b)"/>
      <path d="M7.1147,32.8306l5.8936,5.6327v3l-6-6,.1064-2.6327m0-1a1,1,0,0,0-.999.96L6.0091,35.423a1,1,0,0,0,.2921.7475l6,6a1,1,0,0,0,1.7071-.7072v-3a1,1,0,0,0-.3091-.7229L7.8056,32.1076a1,1,0,0,0-.6911-.2771Z" fill="#4a4a4a"/>
    </g>
    <g>
      <path d="M13.0078,41.9629a.4993.4993,0,0,1-.5-.5v-3a.5.5,0,0,1,.3174-.4649L25.8809,32.86a.4924.4924,0,0,1,.1826-.0352.5007.5007,0,0,1,.5.5V36.583a.5009.5009,0,0,1-.3252.4688l-13.0557,4.88A.5158.5158,0,0,1,13.0078,41.9629Z" fill="url(#c)"/>
      <path d="M26.063,33.3256v3.2579l-13.0547,4.88v-3L26.063,33.3256m0-1a1,1,0,0,0-.3661.0695L12.6421,37.5328a1,1,0,0,0-.6338.9306v3a1,1,0,0,0,1.35.9367l13.0547-4.88a1,1,0,0,0,.65-.9366V33.3256a1,1,0,0,0-1-1Z" fill="#4a4a4a"/>
    </g>
    <g>
      <path d="M29.9736,40.832a.5.5,0,0,1-.3457-.1386l-3.91-3.7491a.5.5,0,0,1-.1543-.3613v-2.77a.5.5,0,0,1,.3037-.46.4946.4946,0,0,1,.1963-.04.5.5,0,0,1,.3457.1386l3.91,3.7481a.5.5,0,0,1,.1543.3613v2.77a.5.5,0,0,1-.3037.46A.4946.4946,0,0,1,29.9736,40.832Z" fill="url(#d)"/>
      <path d="M26.063,33.8139l3.9111,3.7472v2.77L26.063,36.5835v-2.77m0-1a1,1,0,0,0-1,1v2.77a1,1,0,0,0,.3081.7219l3.9111,3.7481a1,1,0,0,0,1.6919-.7219v-2.77a1,1,0,0,0-.3082-.7221l-3.9111-3.7471a1,1,0,0,0-.692-.278Z" fill="#4a4a4a"/>
    </g>
    <g>
      <path d="M29.9736,40.832a.5.5,0,0,1-.5-.5v-2.77a.5.5,0,0,1,.3477-.4765l10.11-3.2325a.5118.5118,0,0,1,.1524-.0234.5011.5011,0,0,1,.5.5186l-.09,2.4843a.5016.5016,0,0,1-.3339.4532L30.14,40.8037A.5138.5138,0,0,1,29.9736,40.832Z" fill="url(#e)"/>
      <path d="M40.0835,34.33h.005m-.005,0-.09,2.4843-10.02,3.5177v-2.77L40.0835,34.33m0-1-.0351.0007h-.001a.9966.9966,0,0,0-.29.0539L29.67,36.6085a1,1,0,0,0-.6955.9526v2.77a1,1,0,0,0,1.3313.9435l10.02-3.5176a1,1,0,0,0,.668-.9074l.0873-2.4132a1.0006,1.0006,0,0,0-.9918-1.1073h-.0051Zm0,2h0Z" fill="#4a4a4a"/>
    </g>
    <polygon points="10.42 21.918 11.051 30.864 15.776 36.567 15.308 26.97 10.42 21.918" fill="url(#f)"/>
    <g>
      <path d="M16.0078,36.9629a.5015.5015,0,0,1-.5-.5v-9a.5.5,0,0,1,.3369-.4727l10.3809-3.5888a.4917.4917,0,0,1,.1631-.0274.5006.5006,0,0,1,.5.5176l-.3252,9.4512a.5013.5013,0,0,1-.3516.46L16.1572,36.94A.5209.5209,0,0,1,16.0078,36.9629Z" fill="url(#g)"/>
      <path d="M26.3882,23.8744h.005m-.005,0-.3252,9.4512L16.0083,36.4633v-9l10.38-3.589m0-1-.0339.0006a.997.997,0,0,0-.3149.062L15.6815,26.5182a1,1,0,0,0-.6732.9452v9a1,1,0,0,0,1.2979.9546L26.3609,34.28a1,1,0,0,0,.7015-.92l.3228-9.38a1.0245,1.0245,0,0,0,.0055-.1057.9979.9979,0,0,0-.9975-1h-.0051Zm0,2h0Z" fill="#6d6d6d"/>
    </g>
    <polygon points="15.308 26.97 26.388 23.874 32.744 29.415 42.008 26.318 29.647 17.519 10.42 21.918 15.308 26.97" fill="url(#h)"/>
    <line x1="11.0083" y1="22.4633" x2="16.0083" y2="27.4633" fill="none" stroke="#6d6d6d" stroke-miterlimit="10"/>
    <g>
      <path d="M32.418,39.8535a.4986.4986,0,0,1-.3438-.1377L25.72,33.6875a.4963.4963,0,0,1-.1562-.38l.3252-9.4512a.5017.5017,0,0,1,.3008-.4414.5093.5093,0,0,1,.1992-.041.4985.4985,0,0,1,.3281.1231l6.3555,5.54a.5009.5009,0,0,1,.1718.3936L32.918,39.37a.5019.5019,0,0,1-.3106.4463A.5074.5074,0,0,1,32.418,39.8535Z" fill="url(#i)"/>
      <path d="M26.3882,23.8745l6.3555,5.54-.3262,9.9394L26.063,33.3256l.3252-9.4511m0-1a1,1,0,0,0-.9992.9657l-.3252,9.4512a.9994.9994,0,0,0,.3112.76l6.3545,6.0283a1,1,0,0,0,1.6877-.6927l.3262-9.9393a1,1,0,0,0-.3424-.7867l-6.3555-5.54a1,1,0,0,0-.6573-.2462Z" fill="#6d6d6d"/>
    </g>
    <g>
      <path d="M33.0078,39.9629a.5008.5008,0,0,1-.5-.5v-10a.4991.4991,0,0,1,.335-.4717l9-3.1455a.4813.4813,0,0,1,.165-.0283.4995.4995,0,0,1,.5.5v9.1455a.5.5,0,0,1-.2969.457l-9,4A.5095.5095,0,0,1,33.0078,39.9629Z" fill="url(#j)"/>
      <path d="M42.0083,26.3178v9.1455l-9,4v-10l9-3.1455m0-1a1,1,0,0,0-.33.056l-9,3.1455a1,1,0,0,0-.67.944v10a1,1,0,0,0,1.4061.9139l9-4a1,1,0,0,0,.5939-.9139V26.3178a1,1,0,0,0-1-1Z" fill="#6d6d6d"/>
    </g>
    <polyline points="32.245 39.839 25.738 33.879 15.582 37.041 10.717 31.021" fill="none" stroke="#4a4a4a" stroke-linecap="round" stroke-linejoin="round"/>
    <g>
      <path d="M25.6328,41.9805c-1.5586,0-2.78-.791-2.78-1.8V25.9131a.5.5,0,0,1,.5-.5H27.915a.5.5,0,0,1,.5.5V40.1807C28.415,41.19,27.1934,41.9805,25.6328,41.9805Z" fill="url(#k)"/>
      <path d="M27.9146,25.9135V40.1811c0,.7177-1.0215,1.3-2.2813,1.3s-2.28-.5821-2.28-1.3V25.9135h4.5616m0-1H23.353a1,1,0,0,0-1,1V40.1811c0,1.3111,1.41,2.3,3.28,2.3s3.2813-.9887,3.2813-2.3V25.9135a1,1,0,0,0-1-1Z" fill="#00415f"/>
    </g>
    <g>
      <path d="M25.4717,26.92c-3.0723,0-5.39-1.125-5.39-2.6172V22.0205a.5.5,0,0,1,.5-.5H30.36a.5.5,0,0,1,.5.5v2.2822C30.86,25.7949,28.5439,26.92,25.4717,26.92Z" fill="url(#l)"/>
      <path d="M30.36,22.021v2.2812c0,1.171-2.1895,2.1181-4.8887,2.1181s-4.8887-.9471-4.8887-2.1181V22.021H30.36m0-1H20.5825a1,1,0,0,0-1,1v2.2812c0,2.0471,2.9624,3.1181,5.8887,3.1181s5.8887-1.071,5.8887-3.1181V22.021a1,1,0,0,0-1-1Z" fill="#00415f"/>
    </g>
    <g>
      <path d="M25.4717,24.2c-3.0723,0-5.39-1.126-5.39-2.6182s2.3174-2.6191,5.39-2.6191S30.86,20.0889,30.86,21.582,28.5439,24.2,25.4717,24.2Z" fill="url(#m)"/>
      <path d="M25.4712,19.4634c2.6992,0,4.8887.9482,4.8887,2.1182s-2.1895,2.1191-4.8887,2.1191-4.8887-.9482-4.8887-2.1191,2.1885-2.1182,4.8887-2.1182m0-1c-2.9263,0-5.8887,1.071-5.8887,3.1182s2.9624,3.1191,5.8887,3.1191S31.36,23.6293,31.36,21.5816s-2.9624-3.1182-5.8887-3.1182Z" fill="#00415f"/>
    </g>
    <path d="M29.63,17.5191l12.3779,8.9443v9L29.9575,40.3316l-2.0586-1.9728v1.8223c0,.7177-1.0215,1.3-2.2812,1.3s-2.2813-.5821-2.2813-1.3V37.5024l-11.03,3.74-.5889.1173L7.4243,35.6,6.9917,32.724l4.0166-1.2606v-9L29.63,17.5191m0-1a1.0022,1.0022,0,0,0-.2566.0335L10.7517,21.4968a1,1,0,0,0-.7434.9666v8.2657L6.6922,31.77a1,1,0,0,0-.6894,1.1029l.4326,2.876a1.0013,1.0013,0,0,0,.1871.4489l4.293,5.76a.9995.9995,0,0,0,.997.3831l.5889-.1172a.9943.9943,0,0,0,.1259-.0337l9.7091-3.2922v1.2836c0,1.3111,1.4106,2.3,3.2813,2.3,1.6432,0,2.9314-.7629,3.22-1.8371l.4275.41a1,1,0,0,0,1.0665.2052l12.0508-4.8683a1,1,0,0,0,.6254-.9272v-9a1,1,0,0,0-.4143-.8106L30.2161,16.7085a1,1,0,0,0-.5857-.19Z" fill="#343434"/>
    <polygon points="41.5 40.5 57.5 47.597 57.5 26.5 41.5 20.5 41.5 40.5" stroke="#2d2d2d" stroke-linecap="round" stroke-linejoin="round" fill="url(#n)"/>
  </g>
  <g>
    <g>
      <path d="M54.9331,37.3594c0-3.1567-2.5579-6.907-5.712-8.3774s-5.7134-.1073-5.7134,3.05c0,3.1541,2.5579,6.9056,5.7134,8.376S54.9331,40.5148,54.9331,37.3594Z" fill="url(#o)"/>
      <path d="M46.8087,29.39a4.8268,4.8268,0,0,1,1.99.4987c2.7832,1.2976,5.1345,4.7189,5.1345,7.4711,0,1.6781-.8384,2.6406-2.3,2.6406a4.822,4.822,0,0,1-1.9893-.4989c-2.7839-1.2972-5.1358-4.7179-5.1358-7.47,0-1.679.8387-2.6419,2.301-2.6419m0-1c-1.95,0-3.301,1.3473-3.301,3.6419,0,3.1541,2.5579,6.9056,5.7134,8.3761A5.7589,5.7589,0,0,0,51.6328,41c1.9492,0,3.3-1.3472,3.3-3.6406,0-3.1567-2.5579-6.907-5.712-8.3774a5.7622,5.7622,0,0,0-2.4124-.5924Z" fill="url(#p)"/>
      <path d="M46.8087,28.39a5.7622,5.7622,0,0,1,2.4124.5924c3.1541,1.47,5.712,5.2207,5.712,8.3774,0,2.2934-1.3511,3.6406-3.3,3.6406a5.7589,5.7589,0,0,1-2.4117-.5924c-3.1555-1.4705-5.7134-5.222-5.7134-8.3761,0-2.2946,1.351-3.6419,3.301-3.6419m0-1c-2.5725,0-4.301,1.8654-4.301,4.6419,0,3.5612,2.7633,7.6386,6.291,9.2825A6.7241,6.7241,0,0,0,51.6328,42c2.5722,0,4.3-1.8649,4.3-4.6406,0-3.5617-2.7626-7.64-6.29-9.2838a6.7274,6.7274,0,0,0-2.8349-.686Z" fill="#00415f"/>
    </g>
    <path d="M48.9721,30.56a7.2429,7.2429,0,0,1,4.0217,5.8963,2.4716,2.4716,0,0,1-1.0691,2.2307L48.9721,34.58V30.56" fill="url(#q)"/>
    <polygon points="49.469 31.084 48.972 30.852 48.972 34.828 49.469 35.06 49.469 31.084" fill="#00415f"/>
    <polygon points="49.323 34.494 48.972 34.681 51.285 38.075 51.637 37.884 49.323 34.494" fill="#00415f"/>
    <polygon points="51.06 27.608 47.798 26.087 47.798 25 51.06 26.522 51.06 27.608" fill="#00415f"/>
    <polygon points="49.974 28.187 48.885 27.681 48.885 26.595 49.974 27.101 49.974 28.187" fill="#00415f"/>
    <polygon points="56.141 33.237 53.298 29.068 53.649 28.881 56.492 33.049 56.141 33.237" fill="#00415f"/>
    <polygon points="54.287 32.373 53.232 30.827 53.936 30.452 54.989 31.997 54.287 32.373" fill="#00415f"/>
  </g>
</svg>
