<svg xmlns="http://www.w3.org/2000/svg" xmlns:xlink="http://www.w3.org/1999/xlink" width="64" height="64" viewBox="0 0 64 64">
  <defs>
    <linearGradient id="a" x1="7.5083" y1="32.4907" x2="41.5764" y2="32.4907" gradientUnits="userSpaceOnUse">
      <stop offset="0" stop-color="#828282"/>
      <stop offset="1" stop-color="#4a4a4a"/>
    </linearGradient>
    <linearGradient id="b" x1="7.5084" y1="37.1836" x2="14.5078" y2="37.1836" xlink:href="#a"/>
    <linearGradient id="c" x1="13.5078" y1="37.4312" x2="27.5635" y2="37.4312" xlink:href="#a"/>
    <linearGradient id="d" x1="26.5635" y1="37.1094" x2="31.4736" y2="37.1094" xlink:href="#a"/>
    <linearGradient id="e" x1="30.4736" y1="37.3672" x2="41.5843" y2="37.3672" xlink:href="#a"/>
    <linearGradient id="f" x1="12.1639" y1="24.8416" x2="20.2611" y2="41.3587" gradientUnits="userSpaceOnUse">
      <stop offset="0" stop-color="#c9c9c9"/>
      <stop offset="1" stop-color="#737373"/>
    </linearGradient>
    <linearGradient id="g" x1="15.4782" y1="30.2056" x2="23.1777" y2="30.2056" gradientUnits="userSpaceOnUse">
      <stop offset="0" stop-color="#c9c9c9"/>
      <stop offset="1" stop-color="#666"/>
    </linearGradient>
    <linearGradient id="h" x1="35.2042" y1="20.6323" x2="-23.152" y2="46.3599" gradientUnits="userSpaceOnUse">
      <stop offset="0" stop-color="#f7f7f7"/>
      <stop offset="1" stop-color="#737373"/>
    </linearGradient>
    <linearGradient id="i" x1="29.5315" y1="31.6509" x2="34.6171" y2="31.6509" gradientUnits="userSpaceOnUse">
      <stop offset="0" stop-color="#737373"/>
      <stop offset="1" stop-color="#c9c9c9"/>
    </linearGradient>
    <linearGradient id="j" x1="43.2748" y1="26.1316" x2="12.3711" y2="67.4171" gradientUnits="userSpaceOnUse">
      <stop offset="0" stop-color="#e8e8e8"/>
      <stop offset="1" stop-color="#737373"/>
    </linearGradient>
    <linearGradient id="k" x1="23.8525" y1="33.7339" x2="29.415" y2="33.7339" gradientUnits="userSpaceOnUse">
      <stop offset="0" stop-color="#43859e"/>
      <stop offset="0.1848" stop-color="#599bb4"/>
      <stop offset="0.6935" stop-color="#92d5ee"/>
    </linearGradient>
    <linearGradient id="l" x1="21.082" y1="24.2573" x2="31.8604" y2="24.2573" gradientUnits="userSpaceOnUse">
      <stop offset="0" stop-color="#43859e"/>
      <stop offset="0.2665" stop-color="#599bb4"/>
      <stop offset="1" stop-color="#92d5ee"/>
    </linearGradient>
    <linearGradient id="m" x1="33.9215" y1="17.86" x2="3.7632" y2="33.075" gradientUnits="userSpaceOnUse">
      <stop offset="0" stop-color="#92d5ee"/>
      <stop offset="0.4825" stop-color="#599bb4"/>
      <stop offset="1" stop-color="#185971"/>
    </linearGradient>
    <linearGradient id="n" x1="39.3438" y1="19.282" x2="63.5145" y2="56.815" gradientUnits="userSpaceOnUse">
      <stop offset="0" stop-color="#fff"/>
      <stop offset="1" stop-color="#bfbfbf"/>
    </linearGradient>
    <linearGradient id="o" x1="44.8989" y1="214.382" x2="54.1627" y2="223.2004" gradientTransform="matrix(1, 0.404, 0, 1, 0, -208.8942)" gradientUnits="userSpaceOnUse">
      <stop offset="0" stop-color="#f0f0f0"/>
      <stop offset="1" stop-color="#b3b3b3"/>
    </linearGradient>
    <linearGradient id="p" x1="39.3511" y1="223.9089" x2="48.6157" y2="232.728" xlink:href="#o"/>
    <linearGradient id="q" x1="45.1084" y1="221.774" x2="54.3722" y2="230.5923" xlink:href="#o"/>
  </defs>
  <title>I_DELBWP1_AP</title>
  <g>
    <g>
      <g>
        <path d="M12.57,39.127a.5.5,0,0,1-.3945-.1934l-4.562-5.8662a.4991.4991,0,0,1,.2646-.7891l23.78-6.4062a.4968.4968,0,0,1,.4561.1035l9.288,7.9853a.5.5,0,0,1-.1728.8545L31.127,38.0732a.485.485,0,0,1-.1534.0245.5032.5032,0,0,1-.3457-.1387L26.9346,34.42l-14.208,4.6817A.4788.4788,0,0,1,12.57,39.127Z" fill="url(#a)"/>
        <path d="M31.7876,26.3545,41.0757,34.34,30.9741,37.5977,27.063,33.8506,12.5708,38.627,8.0083,32.7607l23.7793-6.4062m0-1a1,1,0,0,0-.26.0344L7.7482,31.7951a1,1,0,0,0-.5293,1.5795l4.5625,5.8663a.9992.9992,0,0,0,1.1024.3358l13.9214-4.5882L30.2823,38.32a1,1,0,0,0,.9987.23l10.1016-3.2579a1,1,0,0,0,.345-1.71L32.44,25.5962a1,1,0,0,0-.652-.2417Z" fill="#4a4a4a"/>
      </g>
      <g>
        <path d="M14.0078,42a.5.5,0,0,1-.3535-.1465l-5.9995-6a.5.5,0,0,1-.146-.374l.1064-2.6328a.5.5,0,0,1,.8452-.3408l5.8931,5.6328a.4985.4985,0,0,1,.1543.3613v3a.5.5,0,0,1-.5.5Z" fill="url(#b)"/>
        <path d="M8.1147,32.8672,14.0083,38.5v3l-6-6,.1064-2.6328m0-1a1,1,0,0,0-.999.96L7.0091,35.46a1,1,0,0,0,.2921.7475l6,6A1,1,0,0,0,15.0083,41.5v-3a1,1,0,0,0-.3091-.7229L8.8056,32.1443a1,1,0,0,0-.6911-.2771Z" fill="#4a4a4a"/>
      </g>
      <g>
        <path d="M14.0078,42a.4993.4993,0,0,1-.5-.5v-3a.5.5,0,0,1,.3174-.4648l13.0557-5.1377a.4924.4924,0,0,1,.1826-.0352.5007.5007,0,0,1,.5.5V36.62a.5009.5009,0,0,1-.3252.4688l-13.0557,4.88A.5157.5157,0,0,1,14.0078,42Z" fill="url(#c)"/>
        <path d="M27.063,33.3623V36.62L14.0083,41.5v-3L27.063,33.3623m0-1a.9984.9984,0,0,0-.3661.07L13.6421,37.57a1,1,0,0,0-.6338.9305v3a1,1,0,0,0,1.35.9367l13.0547-4.88a1,1,0,0,0,.65-.9367V33.3623a1,1,0,0,0-1-1Z" fill="#4a4a4a"/>
      </g>
      <g>
        <path d="M30.9736,40.8682a.5.5,0,0,1-.3457-.1387l-3.91-3.7481a.5.5,0,0,1-.1543-.3613v-2.77a.5.5,0,0,1,.3037-.46.4946.4946,0,0,1,.1963-.04.5.5,0,0,1,.3457.1387l3.91,3.747a.5.5,0,0,1,.1543.3614v2.77a.5.5,0,0,1-.3037.46A.493.493,0,0,1,30.9736,40.8682Z" fill="url(#d)"/>
        <path d="M27.063,33.8506l3.9111,3.7471v2.77L27.063,36.62v-2.77m0-1a1,1,0,0,0-1,1v2.77a1,1,0,0,0,.3081.722L30.2822,41.09a1,1,0,0,0,1.6919-.722v-2.77a1,1,0,0,0-.3082-.7221l-3.9111-3.7471a1,1,0,0,0-.692-.2779Z" fill="#4a4a4a"/>
      </g>
      <g>
        <path d="M30.9736,40.8682a.5.5,0,0,1-.5-.5v-2.77a.5.5,0,0,1,.3477-.4766l10.11-3.2315a.5118.5118,0,0,1,.1524-.0234.5011.5011,0,0,1,.5.5186l-.09,2.4843a.5016.5016,0,0,1-.3339.4532L31.14,40.84A.5139.5139,0,0,1,30.9736,40.8682Z" fill="url(#e)"/>
        <path d="M41.0835,34.3662h.005m-.005,0-.09,2.4844-10.02,3.5176v-2.77l10.1094-3.2315m0-1-.0351.0006h-.001a.9967.9967,0,0,0-.29.054L30.67,36.6452a1,1,0,0,0-.6955.9525v2.77a1,1,0,0,0,1.3313.9435l10.02-3.5176a1,1,0,0,0,.668-.9074l.0873-2.4132a1.0006,1.0006,0,0,0-.9918-1.1073h-.0051Zm0,2h0Z" fill="#4a4a4a"/>
      </g>
      <polygon points="11.42 21.955 12.051 30.9 16.776 36.603 16.308 27.007 11.42 21.955" fill="url(#f)"/>
      <g>
        <path d="M17.0078,37a.5015.5015,0,0,1-.5-.5v-9a.5.5,0,0,1,.3369-.4727l10.3809-3.5888a.4917.4917,0,0,1,.1631-.0274.5006.5006,0,0,1,.5.5176L27.5635,33.38a.5013.5013,0,0,1-.3516.46L17.1572,36.9775A.5209.5209,0,0,1,17.0078,37Z" fill="url(#g)"/>
        <path d="M27.3882,23.9111h.005m-.005,0-.3252,9.4512L17.0083,36.5v-9l10.38-3.5889m0-1-.0339.0006a.997.997,0,0,0-.3149.0619L16.6815,26.5549a1,1,0,0,0-.6732.9451v9a1,1,0,0,0,1.2979.9546l10.0547-3.1377a1,1,0,0,0,.7015-.92l.3228-9.38a1.0226,1.0226,0,0,0,.0055-.1056.9978.9978,0,0,0-.9975-1h-.0051Zm0,2h0Z" fill="#6d6d6d"/>
      </g>
      <polygon points="16.308 27.007 27.388 23.911 33.744 29.451 43.008 26.354 30.647 17.556 11.42 21.955 16.308 27.007" fill="url(#h)"/>
      <line x1="12.0083" y1="22.5" x2="17.0083" y2="27.5" fill="none" stroke="#6d6d6d" stroke-miterlimit="10"/>
      <g>
        <path d="M33.418,39.8906a.4986.4986,0,0,1-.3438-.1377L26.72,33.7246a.4962.4962,0,0,1-.1562-.38l.3252-9.4511a.5018.5018,0,0,1,.3008-.4415.5093.5093,0,0,1,.1992-.041.4985.4985,0,0,1,.3281.1231l6.3555,5.54a.501.501,0,0,1,.1718.3936l-.3261,9.9394a.5019.5019,0,0,1-.3106.4463A.5074.5074,0,0,1,33.418,39.8906Z" fill="url(#i)"/>
        <path d="M27.3882,23.9111l6.3555,5.54-.3262,9.9394L27.063,33.3623l.3252-9.4512m0-1a1,1,0,0,0-.9992.9656l-.3252,9.4512a1,1,0,0,0,.3112.76l6.3545,6.0283a1,1,0,0,0,1.6877-.6927l.3262-9.9394a1,1,0,0,0-.3424-.7866l-6.3555-5.54a1,1,0,0,0-.6573-.2462Z" fill="#6d6d6d"/>
      </g>
      <g>
        <path d="M34.0078,40a.5008.5008,0,0,1-.5-.5v-10a.4992.4992,0,0,1,.335-.4717l9-3.1455a.4813.4813,0,0,1,.165-.0283.4995.4995,0,0,1,.5.5V35.5a.5.5,0,0,1-.2969.457l-9,4A.5078.5078,0,0,1,34.0078,40Z" fill="url(#j)"/>
        <path d="M43.0083,26.3545V35.5l-9,4v-10l9-3.1455m0-1a.9976.9976,0,0,0-.33.056l-9,3.1455a1,1,0,0,0-.67.944v10a1,1,0,0,0,1.4061.9138l9-4a1,1,0,0,0,.5939-.9138V26.3545a1,1,0,0,0-1-1Z" fill="#6d6d6d"/>
      </g>
      <polyline points="33.245 39.876 26.738 33.916 16.582 37.078 11.717 31.058" fill="none" stroke="#4a4a4a" stroke-linecap="round" stroke-linejoin="round"/>
      <g>
        <path d="M26.6328,42.0176c-1.5586,0-2.78-.791-2.78-1.8V25.95a.5.5,0,0,1,.5-.5H28.915a.5.5,0,0,1,.5.5V40.2178C29.415,41.2266,28.1934,42.0176,26.6328,42.0176Z" fill="url(#k)"/>
        <path d="M28.9146,25.95V40.2178c0,.7177-1.0215,1.3-2.2813,1.3s-2.28-.5821-2.28-1.3V25.95h4.5616m0-1H24.353a1,1,0,0,0-1,1V40.2178c0,1.3111,1.41,2.3,3.28,2.3s3.2813-.9887,3.2813-2.3V25.95a1,1,0,0,0-1-1Z" fill="#00415f"/>
      </g>
      <g>
        <path d="M26.4717,26.957c-3.0723,0-5.39-1.1259-5.39-2.6181V22.0576a.5.5,0,0,1,.5-.5H31.36a.5.5,0,0,1,.5.5v2.2813C31.86,25.8311,29.5439,26.957,26.4717,26.957Z" fill="url(#l)"/>
        <path d="M31.36,22.0576v2.2813c0,1.1709-2.1895,2.1181-4.8887,2.1181s-4.8887-.9472-4.8887-2.1181V22.0576H31.36m0-1H21.5825a1,1,0,0,0-1,1v2.2813c0,2.0471,2.9624,3.1181,5.8887,3.1181S32.36,26.386,32.36,24.3389V22.0576a1,1,0,0,0-1-1Z" fill="#00415f"/>
      </g>
      <g>
        <path d="M26.4717,24.2373c-3.0723,0-5.39-1.126-5.39-2.6191S23.3994,19,26.4717,19,31.86,20.126,31.86,21.6182,29.5439,24.2373,26.4717,24.2373Z" fill="url(#m)"/>
        <path d="M26.4712,19.5c2.6992,0,4.8887.9482,4.8887,2.1182s-2.1895,2.1191-4.8887,2.1191-4.8887-.9482-4.8887-2.1191S23.771,19.5,26.4712,19.5m0-1c-2.9263,0-5.8887,1.0711-5.8887,3.1182s2.9624,3.1191,5.8887,3.1191S32.36,23.6659,32.36,21.6182,29.3975,18.5,26.4712,18.5Z" fill="#00415f"/>
      </g>
      <path d="M30.63,17.5557,43.0083,26.5v9L30.9575,40.3682l-2.0586-1.9727v1.8223c0,.7177-1.0215,1.3-2.2812,1.3s-2.2813-.5821-2.2813-1.3V37.5391l-11.03,3.74-.5889.1172-4.293-5.76-.4326-2.876L12.0083,31.5v-9L30.63,17.5557m0-1a.9978.9978,0,0,0-.2566.0335L11.7517,21.5335a1,1,0,0,0-.7434.9665v8.2658L7.6922,31.8066a1,1,0,0,0-.6894,1.1028l.4326,2.876a1,1,0,0,0,.1871.4489l4.293,5.76a1,1,0,0,0,.997.3832l.5889-.1172a.9947.9947,0,0,0,.1259-.0338l9.7091-3.2922v1.2837c0,1.3111,1.4106,2.3,3.2813,2.3,1.6432,0,2.9314-.7629,3.22-1.8371l.4275.41a1,1,0,0,0,1.0665.2052l12.0508-4.8682a1,1,0,0,0,.6254-.9272v-9a1,1,0,0,0-.4143-.8105L31.2161,16.7452a1,1,0,0,0-.5857-.1895Z" fill="#343434"/>
    </g>
    <g>
      <polygon points="40.5 40.5 56.5 47.597 56.5 26.5 40.5 20.5 40.5 40.5" stroke="#2d2d2d" stroke-linecap="round" stroke-linejoin="round" fill="url(#n)"/>
      <g opacity="0.9">
        <g>
          <polygon points="46.5 29.163 46.5 26.241 50.5 27.856 50.5 30.778 46.5 29.163" fill="url(#o)"/>
          <path d="M47,26.9824l3,1.2117v1.843l-3-1.2117v-1.843M46,25.5v4l5,2.02v-4L46,25.5Z" fill="#343434"/>
        </g>
        <g>
          <polygon points="42.5 38.547 42.5 35.625 46.5 37.241 46.5 40.163 42.5 38.547" fill="url(#p)"/>
          <path d="M43,36.3665l3,1.2123v1.8428l-3-1.2123V36.3665m-1-1.4827v4l5,2.02v-4l-5-2.02Z" fill="#343434"/>
        </g>
        <g>
          <polygon points="50.5 41.779 50.5 38.857 54.5 40.473 54.5 43.395 50.5 41.779" fill="url(#q)"/>
          <path d="M51,39.5986,54,40.81v1.843l-3-1.2117v-1.843m-1-1.4824v4l5,2.02v-4l-5-2.02Z" fill="#343434"/>
        </g>
        <polygon points="52 36.924 49 35.712 49 33.712 51 34.52 51 33.52 50 33.116 50 32.116 49 31.712 49 29.712 48 29.308 48 31.308 47 30.904 47 31.904 46 31.5 46 32.5 48 33.308 48 35.308 45 34.096 44 33.691 44 35.691 45 36.096 45 35.096 52 37.924 52 38.924 53 39.328 53 37.328 52 36.924" fill="#343434" opacity="0.7"/>
      </g>
    </g>
  </g>
</svg>
