<svg xmlns="http://www.w3.org/2000/svg" xmlns:xlink="http://www.w3.org/1999/xlink" viewBox="0 0 64 64"><defs><style>.Blue-RIGHT\,-FRONT-\&amp;-SINGLE,.cls-1,.cls-2{stroke:#003755;}.Blue-RIGHT\,-FRONT-\&amp;-SINGLE,.De-emphasized-WHITE-for-Vector-Highlights,.Grey-MEDIUM,.White-LEFT,.White-OUTLINE,.White-RIGHT-\&amp;-FRONT,.White-SINGLE,.White-TOP,.Yellow-WARNING,.cls-1,.cls-2,.cls-7,.cls-8{stroke-linejoin:round;}.Blue-RIGHT\,-FRONT-\&amp;-SINGLE{fill:url(#linear-gradient);}.Grey-MEDIUM,.White-OUTLINE,.White-SINGLE{stroke:#323232;}.White-SINGLE{fill:url(#linear-gradient-2);}.Grey-MEDIUM{fill:url(#linear-gradient-3);}.White-LEFT,.White-RIGHT-\&amp;-FRONT,.White-TOP,.cls-7{stroke:#787878;}.White-RIGHT-\&amp;-FRONT{fill:url(#linear-gradient-4);}.White-TOP{fill:url(#linear-gradient-5);}.White-LEFT{fill:url(#linear-gradient-6);}.White-OUTLINE{fill:none;}.cls-1{fill:url(#linear-gradient-7);}.cls-2{fill:url(#linear-gradient-8);}.DARK-GREY-Fill-5{fill:url(#linear-gradient-9);}.DARK-GREY-Fill-4{fill:url(#linear-gradient-10);}.cls-3{fill:url(#linear-gradient-15);}.cls-4{fill:url(#linear-gradient-16);}.cls-5{fill:url(#linear-gradient-17);}.cls-6{fill:url(#linear-gradient-18);}.DARK-GREY-Fill-6{fill:url(#linear-gradient-20);}.cls-7{fill:url(#linear-gradient-22);}.De-emphasized-WHITE-for-Vector-Highlights,.cls-8{fill:#fff;stroke:#fff;}.cls-8{stroke-width:2px;opacity:0.75;}.cls-9{fill:url(#linear-gradient-23);}.De-emphasized-WHITE-for-Vector-Highlights{stroke-width:3px;opacity:0.5;}.Yellow-WARNING{stroke:#963200;fill:url(#linear-gradient-26);}</style><linearGradient id="linear-gradient" x1="18.66" y1="3.9" x2="45.34" y2="50.1" gradientUnits="userSpaceOnUse"><stop offset="0" stop-color="#8cd7f5"/><stop offset="1" stop-color="#376e8c"/></linearGradient><linearGradient id="linear-gradient-2" x1="19.85" y1="5.95" x2="44.15" y2="48.05" gradientUnits="userSpaceOnUse"><stop offset="0" stop-color="#fff"/><stop offset="1" stop-color="#d4d5d3"/></linearGradient><linearGradient id="linear-gradient-3" x1="18.65" y1="25.01" x2="25.85" y2="37.49" gradientUnits="userSpaceOnUse"><stop offset="0" stop-color="#aaa"/><stop offset="1" stop-color="#5a5a5a"/></linearGradient><linearGradient id="linear-gradient-4" x1="23.38" y1="19.83" x2="27.4" y2="26.79" gradientUnits="userSpaceOnUse"><stop offset="0" stop-color="#fff"/><stop offset="1" stop-color="#d2d2d2"/></linearGradient><linearGradient id="linear-gradient-5" x1="19.66" y1="13.94" x2="24.34" y2="22.06" gradientUnits="userSpaceOnUse"><stop offset="0" stop-color="#fff"/><stop offset="1" stop-color="#f0f0f0"/></linearGradient><linearGradient id="linear-gradient-6" x1="13.96" y1="17.23" x2="20.47" y2="28.52" gradientUnits="userSpaceOnUse"><stop offset="0" stop-color="#f5f5f5"/><stop offset="1" stop-color="#bebebe"/></linearGradient><linearGradient id="linear-gradient-7" x1="13.53" y1="23.48" x2="20.91" y2="36.27" xlink:href="#linear-gradient"/><linearGradient id="linear-gradient-8" x1="23.28" y1="26.9" x2="27.29" y2="33.85" xlink:href="#linear-gradient"/><linearGradient id="linear-gradient-9" x1="28" y1="28.63" x2="30" y2="28.63" gradientUnits="userSpaceOnUse"><stop offset="0" stop-color="#464646"/><stop offset="1" stop-color="#141414"/></linearGradient><linearGradient id="linear-gradient-10" x1="25" y1="30.08" x2="27" y2="30.08" xlink:href="#linear-gradient-9"/><linearGradient id="linear-gradient-15" x1="17" y1="23.05" x2="19" y2="23.05" xlink:href="#linear-gradient-9"/><linearGradient id="linear-gradient-16" x1="14" y1="21.43" x2="16" y2="21.43" xlink:href="#linear-gradient-9"/><linearGradient id="linear-gradient-17" x1="17" y1="30.64" x2="19" y2="30.64" xlink:href="#linear-gradient-9"/><linearGradient id="linear-gradient-18" x1="14" y1="28.25" x2="16" y2="28.25" xlink:href="#linear-gradient-9"/><linearGradient id="linear-gradient-20" x1="35" y1="21.5" x2="39" y2="21.5" xlink:href="#linear-gradient-9"/><linearGradient id="linear-gradient-22" x1="33.57" y1="13.88" x2="35.43" y2="17.12" xlink:href="#linear-gradient-4"/><linearGradient id="linear-gradient-23" x1="33.97" y1="18.87" x2="35.6" y2="21.69" gradientUnits="userSpaceOnUse"><stop offset="0" stop-color="#3287af"/><stop offset="1" stop-color="#285a78"/></linearGradient><linearGradient id="linear-gradient-26" x1="-28.15" y1="18.64" x2="-25.75" y2="22.8" gradientTransform="matrix(-1, 0, 0, 1, 24, 0)" gradientUnits="userSpaceOnUse"><stop offset="0" stop-color="#fbe86a"/><stop offset="1" stop-color="#f1cf2f"/></linearGradient></defs><g id="Layer_5" data-name="Layer 5"><rect class="Blue-RIGHT,-FRONT-&amp;-SINGLE" x="6.5" y="10.5" width="51" height="33" rx="1"/><rect class="White-SINGLE" x="8.5" y="12.5" width="47" height="29"/></g><g id="Layer_6" data-name="Layer 6"><polygon class="Grey-MEDIUM" points="10 30 20.5 39.46 34.5 32.5 30.5 29.5 30.5 32 20.5 36.5 13.5 30.5 13.5 28.79 10 30"/><polygon class="White-RIGHT-&amp;-FRONT" points="30.5 18.5 30.5 25 20.5 28.5 20.5 21.5 30.5 18.5"/><polygon class="White-TOP" points="13.5 17.5 20.5 21.5 30.5 18.5 23.5 15 13.5 17.5"/><polygon class="White-LEFT" points="13.5 23.5 13.5 17.5 20.5 21.5 20.5 28.5 13.5 23.5"/><polygon class="White-OUTLINE" points="23.5 15 13.5 17.5 13.5 23.5 20.5 28.5 30.5 25 30.5 18.5 23.5 15"/><polygon class="cls-1" points="13.5 23.5 20.5 28.5 20.5 36.5 13.5 30.5 13.5 23.5"/><polygon class="cls-2" points="30.5 25 20.5 28.5 20.5 36.5 30.5 32 30.5 25"/><polygon class="DARK-GREY-Fill-5" points="28 30.25 30 29.23 30 27 28 28.06 28 30.25"/><polygon class="DARK-GREY-Fill-4" points="25 31.57 27 30.64 27 28.6 25 29.47 25 31.57"/><polygon class="DARK-GREY-Fill-4" points="22 33.01 24 32.04 24 29.94 22 30.82 22 33.01"/><polygon class="DARK-GREY-Fill-5" points="28 23.5 30 22.75 30 21.19 28 21.75 28 23.5"/><polygon class="DARK-GREY-Fill-4" points="25 24.57 27 23.81 27 21.91 25 22.47 25 24.57"/><polygon class="DARK-GREY-Fill-4" points="22 25.66 24 25.04 24 22.94 22 23.5 22 25.66"/><polygon class="cls-3" points="17 21.5 19 22.61 19 24.61 17 23.5 17 21.5"/><polygon class="cls-4" points="14 19.86 16 21 16 23 14 21.86 14 19.86"/><polygon class="cls-5" points="17 28.79 19 30.29 19 32.48 17 30.98 17 28.79"/><polygon class="cls-6" points="14 26.5 16 28 16 30 14 28.5 14 26.5"/></g><g id="Layer_4" data-name="Layer 4"><rect class="White-RIGHT-&amp;-FRONT" x="28.5" y="15.5" width="12" height="15"/><rect class="White-OUTLINE" x="30.5" y="24.5" width="3" height="3"/><polyline class="White-OUTLINE" points="34 22.5 30.5 22.5 30.5 19.5 33.5 19.5 33.5 20"/><rect class="DARK-GREY-Fill-6" x="35" y="21" width="4" height="1"/><polygon class="DARK-GREY-Fill-6" points="39 27 35 27 35.92 26 39 26 39 27"/><rect class="cls-7" x="32.5" y="14.5" width="4" height="2"/><polygon class="White-OUTLINE" points="36.5 15.5 36.5 14.5 32.5 14.5 32.5 15.5 28.5 15.5 28.5 30.5 40.5 30.5 40.5 15.5 36.5 15.5"/><polygon class="cls-8" points="37.22 18 33.33 21.57 31.78 20.14 31 20.86 33.33 23 38 18.71 37.22 18"/><polygon class="cls-9" points="37.22 18 33.33 21.57 31.78 20.14 31 20.86 33.33 23 38 18.71 37.22 18"/></g><g id="Layer_1" data-name="Layer 1"><path class="De-emphasized-WHITE-for-Vector-Highlights" d="M46.5,55.54l4.9,0-.9.45-.07,1,6.07-1V54.7l-.45-5.45-.19-5.4.4-1.62.11-2,.8,0,.21-1,.12-8-.59-4.69L53.68,23.9l.18-1.53-.38-.87h0v-.83a2.17,2.17,0,0,0-2.17-2.17h-1a1.26,1.26,0,0,0-1.14.7l-.65,2.3h.89l-.28.87.75,2.13h1l.31,1.43-.7.86-1,.67-.94,6.71V51.83L48.72,54,46.5,55Zm5-.07v-14l.48,2,.52,10.38V55Z"/><path class="De-emphasized-WHITE-for-Vector-Highlights" d="M49.39,26.83l-3.32-2.68.18-1.53L45.08,20h0l-2.85,0-.85,2.56.77,1.88h.72l.31,1.43-.7.86L40,28.4l-3.4.38-4.07-.92-1.73-1-.16.25-1.36-.2V27l1.13.3.05,0-.13.2.13,1.33,1.49.19.39,1,4.28,1.42h4.12l.77,2.67V51.83L40.72,54,38.5,55v.59l5-1v-1h1l-.19-12.43.31,2L45.5,53.5V55l-2,1-.07,1,5.07-1V49.5l-.2-5.4.41-1.62.12-2,.83,0-.17-1v-8Z"/><path class="Blue-RIGHT,-FRONT-&amp;-SINGLE" d="M49.39,26.83l-3.32-2.68.18-1.53L45.08,20h0l-2.85,0-.85,2.56.77,1.88h.72l.31,1.43-.7.86L40,28.4l-3.4.38-4.07-.92-1.73-1-.16.25-1.36-.2V27l1.13.3.05,0-.13.2.13,1.33,1.49.19.39,1,4.28,1.42h4.12l.77,2.67V51.83L40.72,54,38.5,55v.59l5-1v-1h1l-.19-12.43.31,2L45.5,53.5V55l-2,1-.07,1,5.07-1V49.5l-.2-5.4.41-1.62.12-2,.83,0-.17-1v-8Z"/><polygon class="Grey-MEDIUM" points="46.5 55.54 46.5 54.95 48.72 53.99 48.5 51.83 48.5 34.17 49.44 27.46 50.47 26.79 51.17 25.93 50.86 24.5 49.86 24.5 49.12 22.37 49.93 19.81 52.71 19.75 52.72 19.75 53.86 22.37 53.68 23.89 56.91 26.58 57.5 31.27 57.38 39.24 57.17 40.2 56.37 40.25 56.26 42.23 55.86 43.84 56.05 49.25 56.5 54.7 56.5 55.97 50.43 56.97 50.5 55.97 52.5 54.98 52.5 53.92 51.98 43.54 51.5 41.5 51.5 53.5 51.5 53.5 51.5 55.52 46.5 55.54"/><path class="Yellow-WARNING" d="M47.5,21.5h6v-.83a2.17,2.17,0,0,0-2.17-2.17h-1a1.26,1.26,0,0,0-1.14.7l-.65,2.3Z"/></g></svg>