<svg xmlns="http://www.w3.org/2000/svg" xmlns:xlink="http://www.w3.org/1999/xlink" width="64" height="64" viewBox="0 0 64 64">
  <defs>
    <linearGradient id="a" x1="37.8438" y1="17.282" x2="62.0145" y2="54.815" gradientUnits="userSpaceOnUse">
      <stop offset="0" stop-color="#fff"/>
      <stop offset="1" stop-color="#bfbfbf"/>
    </linearGradient>
    <linearGradient id="b" x1="43.3989" y1="212.988" x2="52.6627" y2="221.8064" gradientTransform="matrix(1, 0.404, 0, 1, 0, -208.8942)" gradientUnits="userSpaceOnUse">
      <stop offset="0" stop-color="#f0f0f0"/>
      <stop offset="1" stop-color="#b3b3b3"/>
    </linearGradient>
    <linearGradient id="c" x1="37.8511" y1="222.5149" x2="47.1157" y2="231.334" xlink:href="#b"/>
    <linearGradient id="d" x1="43.6084" y1="220.38" x2="52.8722" y2="229.1983" xlink:href="#b"/>
    <linearGradient id="e" x1="14.7898" y1="17.8472" x2="57.3805" y2="62.1695" gradientUnits="userSpaceOnUse">
      <stop offset="0" stop-color="#9ad7ea"/>
      <stop offset="0.5097" stop-color="#609fb4"/>
      <stop offset="1" stop-color="#25667d"/>
    </linearGradient>
    <linearGradient id="f" x1="25.2955" y1="656.851" x2="30.9516" y2="661.4121" gradientTransform="matrix(0.613, 0.9174, -0.5188, 0.8549, 347.2571, -559.1998)" gradientUnits="userSpaceOnUse">
      <stop offset="0" stop-color="#fff"/>
      <stop offset="1" stop-color="#bbbdbf"/>
    </linearGradient>
    <linearGradient id="g" x1="23.0901" y1="24.6715" x2="21.8148" y2="34.0782" gradientUnits="userSpaceOnUse">
      <stop offset="0" stop-color="#92d5ee"/>
      <stop offset="1" stop-color="#6f9cae"/>
    </linearGradient>
  </defs>
  <title>I_DELDST_AP</title>
  <g>
    <line x1="9.5" y1="19.5" x2="35.6143" y2="22.376" fill="none" stroke="#00415f" stroke-linecap="round" stroke-linejoin="round"/>
    <g>
      <polygon points="39 38.5 55 45.597 55 24.5 39 18.5 39 38.5" stroke="#2d2d2d" stroke-linecap="round" stroke-linejoin="round" fill="url(#a)"/>
      <g opacity="0.9">
        <g>
          <polygon points="45 27.163 45 24.241 49 25.856 49 28.778 45 27.163" fill="url(#b)"/>
          <path d="M45.5,24.9824l3,1.2117v1.843l-3-1.2117v-1.843M44.5,23.5v4l5,2.02v-4l-5-2.02Z" fill="#343434"/>
        </g>
        <g>
          <polygon points="41 36.547 41 33.625 45 35.241 45 38.163 41 36.547" fill="url(#c)"/>
          <path d="M41.5,34.3665l3,1.2123v1.8428l-3-1.2123V34.3665m-1-1.4827v4l5,2.02v-4l-5-2.02Z" fill="#343434"/>
        </g>
        <g>
          <polygon points="49 39.779 49 36.857 53 38.473 53 41.395 49 39.779" fill="url(#d)"/>
          <path d="M49.5,37.5986l3,1.2117v1.843l-3-1.2117v-1.843m-1-1.4824v4l5,2.02v-4l-5-2.02Z" fill="#343434"/>
        </g>
        <polygon points="50.5 34.924 47.5 33.712 47.5 31.712 49.5 32.52 49.5 31.52 48.5 31.116 48.5 30.116 47.5 29.712 47.5 27.712 46.5 27.308 46.5 29.308 45.5 28.904 45.5 29.904 44.5 29.5 44.5 30.5 46.5 31.308 46.5 33.308 43.5 32.096 42.5 31.691 42.5 33.691 43.5 34.096 43.5 33.096 50.5 35.924 50.5 36.924 51.5 37.328 51.5 35.328 50.5 34.924" fill="#343434" opacity="0.7"/>
      </g>
    </g>
    <g>
      <path d="M21.1631,41.4922a.5031.5031,0,0,1-.2891-.1426l.2344-.4648-.34.3672-5.8633-5.4815c-.1787-.167-.3526-.334-.5215-.499-.17-.167-.334-.3311-.4942-.4971q-.2387-.246-.4648-.4971c-.15-.165-.2978-.3339-.44-.5039s-.2813-.3418-.417-.5175-.2656-.3545-.3926-.5371c-.1279-.1856-.2519-.3721-.3711-.5645q-.1786-.2843-.35-.5889c-.1133-.2031-.2227-.4131-.332-.6308-.1075-.2188-.2129-.4414-.3155-.6739s-.2031-.4707-.3007-.72-.1944-.5058-.2881-.7744c-.0948-.2637-.19-.542-.2813-.833-.0918-.2871-.1826-.5879-.2715-.9s-.1757-.6367-.2636-.9746-.1758-.69-.2608-1.0566a.4949.4949,0,0,1-.0136-.1L9,20.5146a.5.5,0,0,1,.6631-.4873l1.4814.51a.5.5,0,0,1,.3369.46l.08,3.1562a.5112.5112,0,0,1-.0674.2647l-.038.0644a.5614.5614,0,0,1,.121.3106l.0088.3447c.0606.2568.1211.5029.1817.7422.0644.251.13.4941.1953.7275.0654.2315.1309.4571.1973.6729s.1328.4258.2.6279a.4984.4984,0,0,1-.0333.3916l-.0214.04a.658.658,0,0,1,.3134.3018q.107.2842.2168.5449c.0743.18.1475.3467.2217.5088.0733.1572.1475.3135.2237.4629q.1127.2213.2294.4307c.0821.1416.169.2841.2579.4218q.1245.1934.2539.376V21.75a.7351.7351,0,0,1,.1406-.418.9969.9969,0,0,1,.2051-.3164.8834.8834,0,0,1,.3056-.21.9157.9157,0,0,1,.3555-.07.6518.6518,0,0,1,.0742.0048.9546.9546,0,0,1,.2969.0723,1.0237,1.0237,0,0,1,.2559.1582,1.0479,1.0479,0,0,1,.1914.2129,1.07,1.07,0,0,1,.1318.2676.5038.5038,0,0,1,.0244.1572L16,22.502V33.3555c.0332.0595.0723.1357.126.2392.0537.1055.1074.2129.1406.2637l5.1826,4.8223,1.2168.1523,5.8408-3.9473.1875-.1347.3282-.249V23.75a3.4152,3.4152,0,0,1,.0644-.8945.9893.9893,0,0,1,.2207-.3291.9839.9839,0,0,1,.6865-.2764c.0137,0,.0772.0029.0772.0029a.9878.9878,0,0,1,.3135.0752.9979.9979,0,0,1,.2636.16,1.016,1.016,0,0,1,.2071.2363.9965.9965,0,0,1,.1269.2881l.0332.1963.0059,9.2871.0361-.0508c.09-.1308.1768-.2637.2617-.4014s.169-.2841.252-.4355.1641-.3125.2441-.4795.1621-.3447.2412-.53a.4986.4986,0,0,1,.3438-.29l-.0156-.0313a.4978.4978,0,0,1-.0225-.4023c.0752-.2031.15-.4121.2275-.63.0743-.2138.1514-.44.2276-.6767s.1514-.4815.2275-.7383c.0694-.2393.1406-.4893.211-.75l.0107-.3633a.4992.4992,0,0,1,.1377-.33l-.0518-.0937a.4987.4987,0,0,1-.0634-.2588l.1064-3.3653a.5011.5011,0,0,1,.4121-.4765l1.7188-.3086a.5327.5327,0,0,1,.0879-.0078.4992.4992,0,0,1,.5.5176l-.17,4.72a.5578.5578,0,0,1-.0175.1142q-.1554.567-.3106,1.087-.1568.5214-.3144.999c-.1065.32-.2129.624-.3194.916-.1084.292-.2158.57-.3261.8369s-.2217.5244-.335.7686q-.1715.3691-.3506.7089c-.12.2266-.2412.4434-.3662.65-.1231.208-.251.4082-.3818.6006-.1329.1934-.2666.377-.4063.5547-.1367.1768-.2793.3467-.4238.5117-.1465.167-.2949.3252-.4463.48-.1543.1563-.3086.3057-.4678.4512-.1611.1475-.3262.2891-.4971.43-.166.1387-.34.2763-.5175.4121s-.36.2685-.5479.4c-.1846.1318-.3769.2637-.5742.3945l-6.2139,4.1406a.8106.8106,0,0,1-.3779.128C22.7383,41.6973,21.1631,41.4922,21.1631,41.4922Z" fill="url(#e)"/>
      <path d="M9.5,20.5l1.4814.51.08,3.1562-.1006.1729a.432.432,0,0,0-.0156.122.5747.5747,0,0,0,.0166.1231.63.63,0,0,0,.0449.1162.5585.5585,0,0,0,.07.1055l.01.3964q.0981.4161.1963.8008t.1982.7393q.1.3544.2.6846c.0674.2207.1358.4326.2041.6386l-.0683.1289a.448.448,0,0,0-.0127.1836.5467.5467,0,0,0,.0547.1768.5568.5568,0,0,0,.1113.15.5139.5139,0,0,0,.1563.1035l.0244.0107c.0742.1953.1484.3828.2246.5625.0742.1807.15.3536.2265.5205s.1543.3272.2325.4815.1582.3047.2392.4492c.0889.1543.1807.3037.2735.4483s.1884.2841.2851.4208.1953.27.2959.3995.4893.5244.5938.6484v-11c-.0039-.0684.0888-.1758.1093-.2334a.4311.4311,0,0,1,.0938-.1514.3994.3994,0,0,1,.1416-.0986.417.417,0,0,1,.1618-.0314l.0149,0h.003l.0049.0009h.0087a.46.46,0,0,1,.1446.0362.5081.5081,0,0,1,.1269.0791.57.57,0,0,1,.1026.1132.5628.5628,0,0,1,.0693.1416L15.5,22.5v11l.0169.0166-.0108-.01L15.5,33.5l-.0183-.0166.0244.0234c.0695.085.3055.6005.3669.6582q.17.16.3438.3223.1743.1641.3545.3311c.1191.1113.2392.2246.3613.3379s.2442.2294.3672.3457c.125.1162.25.2334.375.35l.374.3476c.1241.1153.2481.23.3711.3438s.2451.2275.3672.34c.1211.1143.2412.2266.3584.3379s.2344.2188.35.3252.2266.2119.336.3145.2187.2021.3232.3007c.1035.0957.2041.1885.3008.2793s.1914.1778.2822.2617.1768.1641.2588.24.1592.1474.2314.2148l1.5606.1953c.0742-.0488.1523-.1015.2363-.1572s.1709-.1142.2627-.1767.1885-.126.2881-.1924.2021-.1358.3076-.2071c.1065-.0732.2158-.1474.3291-.2246s.2285-.1543.3477-.2343.24-.1612.3633-.2442.249-.168.375-.2549c.1269-.0849.2548-.17.3837-.2568s.2588-.1729.39-.2607.2607-.1768.3916-.2657.2627-.1787.3935-.2685q.1993-.1349.3956-.2666c.1318-.0879.2607-.1758.39-.2617s.2559-.1729.3809-.2579.25-.1689.3711-.2529c.0693-.0459.1367-.0928.2031-.1387s.1328-.0918.1982-.1377.1289-.0918.1924-.1376.4727-.3594.5352-.4063v-11a6.4778,6.4778,0,0,1,.0283-.708.48.48,0,0,1,.1064-.1582.4657.4657,0,0,1,.16-.1016.4863.4863,0,0,1,.1769-.0326l.0213,0,.0039.001h.01l.0059.001a.4944.4944,0,0,1,.1562.0371.5241.5241,0,0,1,.2412.2021.4976.4976,0,0,1,.0654.1475l.0245.15V33.75c.0163-.0146.026-.0207.0308-.0207.0248,0-.08.164-.0612.164.004,0,.013-.0068.0294-.0232.1123-.1133.2236-.23.331-.3515s.2129-.2481.3164-.38.2032-.2686.3008-.4112c.0938-.1347.1856-.2754.2754-.4209s.1778-.3.2647-.4589.1728-.3272.2568-.502.168-.3584.25-.5508l.0371-.0049a.4588.4588,0,0,0,.3037-.2138.4689.4689,0,0,0,.05-.3741l-.0771-.1513c.0771-.2061.1533-.418.2314-.6387.0762-.2217.1543-.4512.2315-.69s.1543-.4893.2314-.75.1533-.5332.23-.8184l.0127-.4219a.52.52,0,0,0,.0811-.1.46.46,0,0,0,.0517-.1162.4679.4679,0,0,0,.02-.1279.4607.4607,0,0,0-.0176-.1348l-.1132-.2031.1064-3.3652,1.7188-.3086-.17,4.72q-.1538.561-.3076,1.0762t-.31.9853c-.1044.3135-.2089.6123-.3144.8994-.1055.2852-.2109.5586-.3184.8194s-.2168.5107-.3271.749-.2236.4668-.3389.6855-.2324.4268-.3525.627-.2422.3926-.3672.5771c-.125.1827-.2529.3575-.3857.5274s-.2676.332-.4063.49-.2822.3106-.4277.459-.295.292-.4483.4326-.3135.2774-.4775.4131q-.2431.2022-.5029.3994c-.1729.1309-.35.2608-.5323.39s-.3691.2578-.5625.3857c-.166.1123-.3359.2266-.5078.3418s-.3467.2315-.5224.3486-.3526.2344-.5293.3526l-.53.3516q-.2637.1771-.5235.3515c-.1728.1152-.3437.2295-.5117.3408s-.332.2207-.4922.3272-.3164.2109-.4677.3115c-.1534.1016-.3018.2-.4424.294s-.2764.1835-.4043.27-.2481.165-.3613.24-.2178.1445-.3145.209-.1836.123-.2627.1748-.1465.0977-.2051.1357-.1045.0694-.14.0928l-.07.0459-1.5528-.2031c-.01-.01-.0332-.0313-.0683-.0645s-.0811-.0752-.1387-.1279-.125-.1162-.2012-.1885-.164-.1513-.2578-.24-.1982-.1836-.3086-.2871-.2285-.2129-.3535-.3291-.2558-.2383-.3916-.3652-.2783-.2608-.4228-.3985c-.1455-.1357-.2959-.2754-.4493-.4189s-.3105-.2891-.47-.4385-.3213-.3-.4853-.4531-.3282-.3086-.4942-.4649c-.165-.1533-.33-.3086-.4961-.4619s-.3291-.3086-.4922-.4609-.3242-.3037-.4834-.4522-.3144-.2959-.4677-.4394q-.2652-.2476-.5137-.4912c-.166-.1631-.3271-.3243-.4834-.4864s-.3076-.3232-.4541-.4853-.29-.3252-.4287-.49-.2725-.331-.4033-.5009-.2559-.3418-.3789-.5186-.2412-.3564-.3565-.542-.2285-.374-.3379-.5693-.2158-.3994-.3213-.61c-.1035-.21-.206-.4267-.3056-.6523s-.1973-.459-.293-.7012-.1894-.4941-.2812-.7558c-.0938-.2618-.1866-.5342-.2764-.8184s-.18-.58-.2676-.8877-.1738-.6289-.2607-.9629-.1729-.6826-.2578-1.0449L9.5,20.5m26.1143,1.876h.005M9.5,19.5a1,1,0,0,0-1,1.0289l.127,4.3877a1.0068,1.0068,0,0,0,.026.1993q.13.5553.2635,1.0679c.089.3423.1769.67.2669.9856q.1365.478.2767.9181c.0928.2937.19.5781.2876.8514.094.268.1922.5321.2926.786s.2034.5.3082.7376c.1054.2388.2139.4684.3235.6907.1148.23.2282.4456.3445.6546.1192.2127.24.4169.3654.6157.1207.1944.2487.3876.38.5776.1334.1918.2682.3757.4072.5575.1415.1839.2843.3609.4322.537s.2981.3479.4546.52c.1519.1682.3113.3388.4758.5084.1605.1665.3279.3341.5.5036s.35.3385.5321.5088l.2871.27.1786.1679.296.2768.1889.1769.2727.2553.22.2055.2977.277.2007.1871.49.461.4883.4559.47.4392.2905.2709.1579.1471.2755.26.1431.1346.3969.37.1809.1684.1728.1608.25.2328.059.0547.23.2148.1419.1327.0788.0737.0948.0875.0572.0528.0287.0271a1.1352,1.1352,0,0,0,.5849.2911l1.5528.2032a1.0012,1.0012,0,0,0,.6661-.1476l.0886-.0578.1366-.0908.1426-.0942.0635-.0422.2689-.179.1212-.08.1908-.1269.0927-.0615.268-.1783.4-.2669.4428-.2942.22-.1466.2489-.1657.1617-.1074.3319-.2208.3792-.2524.1323-.0882.2874-.193.239-.16.5252-.3482.3277-.2184.2038-.1357.1184-.0788.4063-.2713.5111-.344c.1941-.1283.3906-.2634.581-.3985s.3755-.27.5571-.4079c.187-.1426.366-.2842.5387-.4278.1746-.1445.3458-.2917.5119-.4431.1676-.1537.328-.3087.4861-.469.16-.1632.3146-.3284.4659-.5.1532-.1748.301-.3524.4446-.5364.1455-.186.2858-.3778.4229-.5782.1387-.2047.2725-.4131.4022-.6321.1263-.21.2523-.4351.3762-.6692s.2444-.4783.3623-.7326q.1743-.3767.3443-.7885c.1119-.2715.2218-.5563.3317-.8534s.2175-.6068.3253-.93c.1073-.3259.2136-.6629.3189-1.0147s.2094-.717.3139-1.0985a.9964.9964,0,0,0,.0349-.2283l.1675-4.6484a1.0006,1.0006,0,0,0-.9918-1.1073h-.005l-.0283,0a1.0057,1.0057,0,0,0-.1677.0188l-1.7.3051a1,1,0,0,0-.8228.9527L32.79,26.0182a1,1,0,0,0,.0487.3414.998.998,0,0,0-.0712.3417l-.0092.305q-.0966.356-.1934.6849c-.0738.25-.1486.4919-.2233.7238s-.1512.4561-.2254.6721c-.0731.2063-.1472.4126-.2223.6133a1.0006,1.0006,0,0,0-.063.377.95.95,0,0,0-.2338.3254q-.0369.0864-.0742.17V23.2891a.9956.9956,0,0,0-.013-.1608l-.0245-.15c-.0049-.03-.0111-.0594-.0186-.0886a1.5294,1.5294,0,0,0-.4894-.7781,1.5426,1.5426,0,0,0-.4049-.2468,1.4739,1.4739,0,0,0-.4259-.1065c-.0165-.0019-.033-.0035-.05-.0046-.0269-.0022-.054-.0033-.0811-.0033h-.0042a1.5047,1.5047,0,0,0-.5547.0995,1.4429,1.4429,0,0,0-.4915.3124,1.4843,1.4843,0,0,0-.3367.4935,2.6279,2.6279,0,0,0-.1059,1.1084V34.2545c-.0576.0438-.1041.079-.1236.0932l-.1838.1314-.1813.126-.1924.1315c-.1353.0936-.2558.1751-.378.2575l-.3812.2581-.1956.1313-.19.1273-.401.27-.3056.2087-.0907.0617-.0572.0388-.3317.2251-.3838.2568-.2641.1768-.1212.081c-.1338.0921-.2549.1745-.3752.255l-.0821.0554-.2782.1868-.1907.1285-.1613.1087-.0841.0572-.2538.1734-.2959.1991-.1236.0826-.1628.1088-.191.1285-.8716-.109-.0859-.08-.1652-.1534-.1241-.1152-.1637-.1517-.2623-.2437-.0371-.0343-.2226-.2075-.0988-.0915-.144-.1348-.1879-.176-.3518-.3272-.2183-.206-.1363-.1283-.3368-.3117L19.1,35.81l-.37-.3433-.3738-.3474-.186-.1734-.189-.1762-.2082-.196-.1538-.1448L17.385,34.21l-.1309-.1226-.3518-.3286-.2507-.235c-.0247-.0465-.0527-.1023-.081-.1574-.0256-.05-.0489-.0952-.0706-.1366V22.5l.0039-.8892a1.0008,1.0008,0,0,0-.05-.3156,1.5546,1.5546,0,0,0-.4768-.7074,1.4993,1.4993,0,0,0-.3741-.2325,1.4648,1.4648,0,0,0-.465-.116l-.0187-.0012c-.0242-.0018-.0484-.0027-.0728-.0027h-.002a1.43,1.43,0,0,0-.5641.1089,1.4062,1.4062,0,0,0-.4951.3482,1.3357,1.3357,0,0,0-.2584.3945,1.2515,1.2515,0,0,0-.2048.6749v7.7472l-.0132-.0283c-.0679-.1491-.139-.31-.2082-.4789-.0759-.1789-.1453-.3547-.2149-.5378a1,1,0,0,0-.2031-.3264,1,1,0,0,0-.0482-.387c-.0659-.1987-.1319-.4031-.1969-.616s-.13-.4346-.194-.6634-.1285-.4677-.1919-.716q-.0839-.3291-.1681-.6823l-.0072-.292a.9991.9991,0,0,0-.06-.3182,1.0012,1.0012,0,0,0,.0447-.3222l-.08-3.1562a1,1,0,0,0-.6743-.92l-1.4814-.51A1,1,0,0,0,9.5,19.5Z" fill="#00415f"/>
    </g>
    <g>
      <path d="M24.81,32.9023a6.9312,6.9312,0,0,0-.3633-6.8144c-1.3008-1.9473-3.249-2.0557-4.3516-.24a6.9388,6.9388,0,0,0,.3623,6.8144C21.7588,34.6094,23.708,34.7168,24.81,32.9023Z" fill="url(#f)"/>
      <path d="M22.087,25.5537a2.0617,2.0617,0,0,1,1.528,1.09,5.9422,5.9422,0,0,1,.34,5.74,1.4459,1.4459,0,0,1-1.1375.8125,2.0618,2.0618,0,0,1-1.5285-1.0889,5.95,5.95,0,0,1-.3394-5.74,1.447,1.447,0,0,1,1.1376-.8131m0-1a2.3634,2.3634,0,0,0-1.9923,1.294,6.9388,6.9388,0,0,0,.3623,6.8144,2.9788,2.9788,0,0,0,2.36,1.5338A2.3629,2.3629,0,0,0,24.81,32.9023a6.9312,6.9312,0,0,0-.3633-6.8144,2.9772,2.9772,0,0,0-2.3593-1.5342Z" fill="url(#g)"/>
      <path d="M22.087,24.5537a2.9772,2.9772,0,0,1,2.3593,1.5342,6.9312,6.9312,0,0,1,.3633,6.8144,2.3629,2.3629,0,0,1-1.9923,1.2936,2.9788,2.9788,0,0,1-2.36-1.5338,6.9388,6.9388,0,0,1-.3623-6.8144,2.3634,2.3634,0,0,1,1.9923-1.294m0-1a3.37,3.37,0,0,0-2.847,1.7749,7.92,7.92,0,0,0,.3852,7.8886,3.9724,3.9724,0,0,0,3.1921,1.9787,3.3693,3.3693,0,0,0,2.8471-1.7747,7.9124,7.9124,0,0,0-.3868-7.8891,3.97,3.97,0,0,0-3.1906-1.9784Z" fill="#00415f"/>
    </g>
  </g>
</svg>
