<svg id="Layer_1" data-name="Layer 1" xmlns="http://www.w3.org/2000/svg" xmlns:xlink="http://www.w3.org/1999/xlink" viewBox="0 0 64 64"><defs><style>.cls-1{fill:url(#linear-gradient);}.cls-2{fill:url(#linear-gradient-2);}.cls-3{fill:url(#linear-gradient-3);}.cls-4{fill:#343434;}.cls-5{fill:none;stroke-linejoin:bevel;}.cls-10,.cls-18,.cls-26,.cls-5{stroke:#6d6d6d;}.cls-10,.cls-18,.cls-26,.cls-28,.cls-5{stroke-linecap:round;}.cls-6{fill:url(#linear-gradient-4);}.cls-18,.cls-7{fill:#6d6d6d;}.cls-8{fill:url(#linear-gradient-5);}.cls-9{fill:#00415f;}.cls-10,.cls-18,.cls-26,.cls-28{stroke-linejoin:round;}.cls-10{fill:url(#linear-gradient-6);}.cls-11{fill:url(#linear-gradient-7);}.cls-12{fill:url(#linear-gradient-8);}.cls-13{fill:url(#linear-gradient-9);}.cls-14{fill:url(#linear-gradient-10);}.cls-15{fill:url(#linear-gradient-11);}.cls-16{fill:url(#linear-gradient-12);}.cls-17{fill:url(#linear-gradient-13);}.cls-19{fill:url(#linear-gradient-14);}.cls-20{fill:url(#linear-gradient-15);}.cls-21{fill:url(#linear-gradient-16);}.cls-22{fill:url(#linear-gradient-17);}.cls-23{fill:url(#linear-gradient-18);}.cls-24{fill:url(#linear-gradient-19);}.cls-25{fill:url(#linear-gradient-20);}.cls-26{fill:url(#linear-gradient-21);}.cls-27{fill:url(#linear-gradient-22);}.cls-28{stroke:#00415f;fill:url(#linear-gradient-23);}.cls-29{fill:#fff;}.cls-30{fill:#2d2d2d;}</style><linearGradient id="linear-gradient" x1="49.68" y1="25.13" x2="40.14" y2="33.51" gradientUnits="userSpaceOnUse"><stop offset="0" stop-color="#fcfcfc"/><stop offset="1" stop-color="#666"/></linearGradient><linearGradient id="linear-gradient-2" x1="56.48" y1="22" x2="29.09" y2="31.09" gradientUnits="userSpaceOnUse"><stop offset="0" stop-color="#fcfcfc"/><stop offset="0.21" stop-color="#f4f4f4"/><stop offset="0.53" stop-color="#dfdfdf"/><stop offset="0.92" stop-color="#bbb"/><stop offset="1" stop-color="#b3b3b3"/></linearGradient><linearGradient id="linear-gradient-3" x1="64.69" y1="17.58" x2="43.45" y2="40.66" gradientUnits="userSpaceOnUse"><stop offset="0" stop-color="#fcfcfc"/><stop offset="1" stop-color="#919191"/></linearGradient><linearGradient id="linear-gradient-4" x1="50.5" y1="28.02" x2="50.5" y2="37.66" gradientUnits="userSpaceOnUse"><stop offset="0.5" stop-color="#a5a7a8"/><stop offset="0.52" stop-color="#b3b3b3"/></linearGradient><linearGradient id="linear-gradient-5" x1="55.77" y1="34.07" x2="49.03" y2="37.11" gradientUnits="userSpaceOnUse"><stop offset="0" stop-color="#92d5ee"/><stop offset="0.01" stop-color="#91d4ed"/><stop offset="1" stop-color="#3c7e96"/></linearGradient><linearGradient id="linear-gradient-6" x1="25.14" y1="47.15" x2="43.42" y2="47.15" gradientUnits="userSpaceOnUse"><stop offset="0.01" stop-color="#4d4d4d"/><stop offset="1" stop-color="#c7c7c9"/></linearGradient><linearGradient id="linear-gradient-7" x1="45.08" y1="37.3" x2="21.51" y2="51.86" gradientUnits="userSpaceOnUse"><stop offset="0" stop-color="#f0f0f0"/><stop offset="1" stop-color="#b3b3b3"/></linearGradient><linearGradient id="linear-gradient-8" x1="39.48" y1="46.68" x2="42.36" y2="46.68" xlink:href="#linear-gradient-7"/><linearGradient id="linear-gradient-9" x1="28.06" y1="39.47" x2="30.42" y2="39.47" xlink:href="#linear-gradient-7"/><linearGradient id="linear-gradient-10" x1="28.5" y1="43.76" x2="40.03" y2="43.76" xlink:href="#linear-gradient-6"/><linearGradient id="linear-gradient-11" x1="28.97" y1="41.03" x2="40.5" y2="41.03" xlink:href="#linear-gradient-7"/><linearGradient id="linear-gradient-12" x1="33.09" y1="31.76" x2="39.05" y2="31.76" xlink:href="#linear-gradient-7"/><linearGradient id="linear-gradient-13" x1="37.69" y1="36.06" x2="30.83" y2="36.06" gradientUnits="userSpaceOnUse"><stop offset="0" stop-color="#f0f0f0"/><stop offset="0.12" stop-color="#e5e5e5"/><stop offset="0.33" stop-color="#c9c9c9"/><stop offset="0.59" stop-color="#9b9b9b"/><stop offset="0.91" stop-color="#5d5d5d"/><stop offset="1" stop-color="#4a4a4a"/></linearGradient><linearGradient id="linear-gradient-14" x1="40.43" y1="31.9" x2="29.54" y2="39.79" xlink:href="#linear-gradient-7"/><linearGradient id="linear-gradient-15" x1="31.99" y1="23.07" x2="27.25" y2="27.55" gradientUnits="userSpaceOnUse"><stop offset="0.18" stop-color="#f0f0f0"/><stop offset="0.3" stop-color="#e9e9e9"/><stop offset="0.47" stop-color="#d5d5d5"/><stop offset="0.68" stop-color="#b5b5b5"/><stop offset="0.91" stop-color="#888"/><stop offset="1" stop-color="#757575"/></linearGradient><linearGradient id="linear-gradient-16" x1="25.96" y1="14.62" x2="21.94" y2="18.21" gradientUnits="userSpaceOnUse"><stop offset="0.41" stop-color="#f0f0f0"/><stop offset="0.61" stop-color="#d0d0d0"/><stop offset="1" stop-color="#8c8c8c"/></linearGradient><linearGradient id="linear-gradient-17" x1="20.16" y1="19.16" x2="27.45" y2="19.16" xlink:href="#linear-gradient-7"/><linearGradient id="linear-gradient-18" x1="22.45" y1="19.27" x2="25.56" y2="19.27" xlink:href="#linear-gradient-7"/><linearGradient id="linear-gradient-19" x1="13.98" y1="23.27" x2="18.6" y2="27.89" gradientUnits="userSpaceOnUse"><stop offset="0" stop-color="#f0f0f0"/><stop offset="1" stop-color="#919191"/></linearGradient><linearGradient id="linear-gradient-20" x1="6.75" y1="31.95" x2="15.44" y2="31.95" xlink:href="#linear-gradient-19"/><linearGradient id="linear-gradient-21" x1="26.32" y1="18.5" x2="19.76" y2="23.59" xlink:href="#linear-gradient-7"/><linearGradient id="linear-gradient-22" x1="6.41" y1="33.02" x2="13.85" y2="33.02" xlink:href="#linear-gradient-7"/><linearGradient id="linear-gradient-23" x1="50.99" y1="27.37" x2="45.21" y2="40.72" xlink:href="#linear-gradient-5"/></defs><title>21-29193_DELDBG_AP_AppIcon_r21x</title><g id="DELMIA___21-DELMIA_Manufacturing_Equipment_Definition" data-name="DELMIA _ 21-DELMIA Manufacturing Equipment Definition"><polygon class="cls-1" points="44 40 44 23.33 42 22 42 38 44 40"/><polygon class="cls-2" points="42.91 22 43.91 26 57.98 26 55.98 22 42.91 22"/><rect class="cls-3" x="44" y="26" width="13" height="14"/><path class="cls-4" d="M55.38,22,57,25.24V39H43.33L42,36.73V22H55.38M56,21H41V37l1.75,3H58V25l-2-4Z"/><line class="cls-5" x1="44.5" y1="24.5" x2="44.5" y2="38.5"/><polyline class="cls-5" points="57.5 24.5 44.5 24.5 42.5 22.5"/><rect class="cls-6" x="45.5" y="27.5" width="10" height="10"/><path class="cls-7" d="M55,28v9H46V28h9m1-1H45V38H56V27Z"/><polygon class="cls-8" points="48.7 36.5 49.7 35.5 52.28 35.5 53.28 36.5 48.7 36.5"/><polygon class="cls-9" points="52.49 35 49.49 35 48.49 36 46 36 46 37 55 37 55 36 53.49 36 52.49 35 52.49 35"/><path class="cls-10" d="M25.45,42.72c-.91,2.43,2.39,5.89,7.35,7.73s9.71,1.37,10.61-1.06a8.79,8.79,0,0,0,.34-1.52"/><path class="cls-11" d="M39.12,49.61a17.58,17.58,0,0,1-6-1.16,16.35,16.35,0,0,1-6.1-3.8C25.49,43,24.92,41.4,25.43,40c.59-1.61,2.55-2.52,5.36-2.52a17.57,17.57,0,0,1,6,1.16c5.33,2,8.72,5.68,7.7,8.42-.59,1.6-2.55,2.52-5.35,2.52Z"/><path class="cls-7" d="M30.79,38a17.11,17.11,0,0,1,5.8,1.13c5,1.86,8.32,5.34,7.41,7.78-.53,1.44-2.41,2.19-4.88,2.19A17.17,17.17,0,0,1,33.31,48c-5-1.86-8.32-5.34-7.41-7.78.53-1.44,2.41-2.19,4.89-2.19m0-1c-3,0-5.16,1-5.83,2.84-.58,1.56,0,3.39,1.71,5.15A16.87,16.87,0,0,0,33,48.92a18.09,18.09,0,0,0,6.16,1.19c3,0,5.15-1,5.82-2.84,1.11-3-2.4-7-8-9.07A18,18,0,0,0,30.79,37Z"/><path class="cls-12" d="M41.13,47.34h-.27a2.35,2.35,0,0,1-1.1-.38.56.56,0,0,1-.28-.41c0-.21.47-.51,1.23-.51H41c.87.09,1.41.53,1.38.78s-.47.52-1.23.52Z"/><path class="cls-7" d="M40.71,46.53h.22a1.81,1.81,0,0,1,.75.22,1.89,1.89,0,0,1-.55.08h-.22a2,2,0,0,1-.76-.22,2,2,0,0,1,.56-.08m0-1c-.93,0-1.68.4-1.73,1s.76,1.22,1.83,1.32l.32,0c.93,0,1.67-.4,1.73-1S42.1,45.65,41,45.54Z"/><path class="cls-13" d="M29.24,40c-.72,0-1.18-.33-1.18-.5s.46-.49,1.18-.49,1.18.32,1.18.49S30,40,29.24,40Z"/><path class="cls-7" d="M29.24,38.48c-.93,0-1.68.45-1.68,1s.75,1,1.68,1,1.68-.45,1.68-1-.75-1-1.68-1Z"/><path class="cls-14" d="M34.11,46.61c-3.19-.07-5.65-1.6-5.61-3.48V41.42a.48.48,0,0,1,.15-.36.5.5,0,0,1,.35-.14l10.54.23a.46.46,0,0,1,.36.17.52.52,0,0,1,.13.38l-.16,1.72c0,1.8-2.41,3.19-5.53,3.19Z"/><path class="cls-7" d="M29,41.42l10.53.23-.15,1.72c0,1.54-2.27,2.74-5,2.74h-.22c-2.86-.06-5.16-1.4-5.12-3V41.42m0-1a1,1,0,0,0-1,1v1.72c-.05,2.17,2.57,3.89,6.1,4h.24c3.38,0,6-1.58,6-3.68l.15-1.69a1,1,0,0,0-.25-.76,1,1,0,0,0-.72-.33L29,40.42Z"/><path class="cls-15" d="M34.66,44.42a8.28,8.28,0,0,1-3.95-1A3,3,0,0,1,29,40.9c0-1.87,2.45-3.28,5.61-3.28h.23a7.22,7.22,0,0,1,4.93,1.76,2.48,2.48,0,0,1,.76,1.76c0,1.87-2.46,3.28-5.61,3.28Z"/><path class="cls-7" d="M34.58,38.12h.22c2.91.06,5.23,1.41,5.2,3s-2.3,2.79-5.11,2.79h-.22c-2.91-.06-5.24-1.41-5.2-3s2.3-2.79,5.11-2.79m0-1c-3.43,0-6.06,1.62-6.11,3.76a3.43,3.43,0,0,0,2,3,8.86,8.86,0,0,0,4.19,1.06h.24c3.43,0,6.06-1.62,6.11-3.76A3,3,0,0,0,40.1,39a7.65,7.65,0,0,0-5.28-1.91Z"/><path class="cls-16" d="M34.28,35.34a.52.52,0,0,1-.21,0c-.1,0-1-.48-1-2.06A6.16,6.16,0,0,1,36,28.45a2.29,2.29,0,0,1,1.09-.27c.89,0,1.94.6,1.94,2.32L39,31a.5.5,0,0,1-.4.41l-3.66.76-.13,2.67a.52.52,0,0,1-.24.4A.48.48,0,0,1,34.28,35.34Z"/><path class="cls-7" d="M37.11,28.68c.72,0,1.44.47,1.44,1.82l-.08.45-4,.84-.15,3.05s-.69-.3-.69-1.6a5.64,5.64,0,0,1,2.67-4.35,1.87,1.87,0,0,1,.85-.21m0-1a2.91,2.91,0,0,0-1.33.33,6.62,6.62,0,0,0-3.19,5.23,2.57,2.57,0,0,0,1.28,2.52,1,1,0,0,0,.41.08,1.07,1.07,0,0,0,.52-.14,1,1,0,0,0,.48-.81l.11-2.28,3.29-.68a1,1,0,0,0,.78-.81l.08-.46c0-.05,0-.11,0-.16a2.5,2.5,0,0,0-2.44-2.82Z"/><path class="cls-17" d="M34.73,42.82c-1.85,0-3.24-.77-3.24-1.8l.15-7.48a.46.46,0,0,1,.2-.39l2.21-1.68c.08-.06,1.72-1.25,2.64-1.79a2.32,2.32,0,0,1,1.1-.38.73.73,0,0,1,.67.36.43.43,0,0,1,0,.25L38,41.05C38,42.05,36.58,42.82,34.73,42.82Z"/><path class="cls-7" d="M37.79,29.8c.18,0,.22.08.22.08L37.48,41c0,.72-1.23,1.3-2.75,1.3S32,41.74,32,41l.15-7.47,2.21-1.68S36,30.65,37,30.11a1.77,1.77,0,0,1,.84-.31m0-1a2.71,2.71,0,0,0-1.35.45c-.95.55-2.61,1.76-2.68,1.81l-2.23,1.69a1,1,0,0,0-.39.78L31,41c0,1.36,1.57,2.32,3.74,2.32s3.75-1,3.75-2.3L39,29.93a.92.92,0,0,0-.1-.49,1.21,1.21,0,0,0-1.12-.64Z"/><path class="cls-18" d="M37.86,28.74l-2.22-1s-4-.46-4,3.66c0,1.76.76,2.14.76,2.14l2.14,1.29V31.41S36,28.66,37.86,28.74Z"/><path class="cls-19" d="M37.21,36.08a1.22,1.22,0,0,1-.62-.16c-.81-.48-.88-1.76-.16-3a2.67,2.67,0,0,1,2-1.47,1.23,1.23,0,0,1,.63.16c.8.47.87,1.75.16,3a2.69,2.69,0,0,1-2.06,1.47Z"/><path class="cls-7" d="M38.48,32a.75.75,0,0,1,.37.09c.55.32.54,1.35,0,2.29a2.18,2.18,0,0,1-1.62,1.23.81.81,0,0,1-.37-.09c-.54-.33-.53-1.35,0-2.3A2.2,2.2,0,0,1,38.48,32m0-1A3.1,3.1,0,0,0,36,32.69c-.86,1.47-.72,3,.34,3.66a1.74,1.74,0,0,0,.87.23,3.13,3.13,0,0,0,2.49-1.72c.86-1.47.71-3-.34-3.66a1.75,1.75,0,0,0-.88-.23Z"/><path class="cls-20" d="M32.53,32.84a.82.82,0,0,1-.31-.07.38.38,0,0,1-.13-.09l-9-9.16A.5.5,0,0,1,23,22.9l3.44-5.27a.47.47,0,0,1,.38-.22h0a.49.49,0,0,1,.38.18l8.93,10.3c.18.22.58.72-1.38,2.95C33.82,32.15,33.05,32.84,32.53,32.84Z"/><path class="cls-7" d="M26.87,17.9,35.8,28.21c.31.38-1.37,2.29-1.37,2.29s-1.37,1.84-1.91,1.84h-.08l-9-9.16,3.43-5.27m0-1h-.06a1,1,0,0,0-.77.45L22.6,22.62a1,1,0,0,0,.13,1.25l9,9.16a1,1,0,0,0,.27.19,1.17,1.17,0,0,0,.52.12c.31,0,1,0,2.69-2.22C37,29,37.08,28.2,36.58,27.58L27.63,17.25a1,1,0,0,0-.76-.35Z"/><path class="cls-21" d="M22.14,23.59a.43.43,0,0,1-.19,0l-2.39-1a3.05,3.05,0,0,1-1.79-2.25,5.79,5.79,0,0,1,.29-3.41c.77-2,2.4-3.37,4-3.37a2.55,2.55,0,0,1,.95.18l2.63,1.08a.55.55,0,0,1,.27.27.48.48,0,0,1,0,.39L22.6,23.29a.48.48,0,0,1-.27.27A.58.58,0,0,1,22.14,23.59Z"/><path class="cls-7" d="M22,14a2.28,2.28,0,0,1,.77.14l2.61,1.08-3.28,7.86-2.38-1c-1.52-.58-2.07-2.83-1.23-5,.71-1.84,2.16-3,3.51-3m0-1h0c-1.81,0-3.6,1.48-4.44,3.69a6.22,6.22,0,0,0-.32,3.71A3.57,3.57,0,0,0,19.4,23l2.35,1a.91.91,0,0,0,.39.08,1,1,0,0,0,.38-.07,1,1,0,0,0,.55-.54l3.28-7.86a1,1,0,0,0-.54-1.31l-2.62-1.08A3.09,3.09,0,0,0,22,13Z"/><path class="cls-22" d="M23.05,23.77a2.75,2.75,0,0,1-.95-.17,3.08,3.08,0,0,1-1.8-2.26,5.83,5.83,0,0,1,.29-3.42c.76-2,2.4-3.36,4-3.36a2.75,2.75,0,0,1,.95.17C27.29,15.42,28,18,27,20.41c-.76,2-2.4,3.36-4,3.36Z"/><path class="cls-7" d="M24.57,15.06a2.28,2.28,0,0,1,.77.14c1.52.59,2.07,2.84,1.22,5-.7,1.83-2.16,3-3.51,3a2.28,2.28,0,0,1-.77-.14c-1.52-.59-2.07-2.84-1.22-5,.7-1.83,2.16-3,3.51-3m0-1c-1.81,0-3.6,1.48-4.45,3.69a6.3,6.3,0,0,0-.31,3.71,3.61,3.61,0,0,0,2.11,2.6,3.1,3.1,0,0,0,1.13.21c1.81,0,3.6-1.48,4.45-3.69,1.05-2.74.26-5.52-1.8-6.31a3.1,3.1,0,0,0-1.13-.21Z"/><path class="cls-23" d="M23.05,21.47A.91.91,0,0,1,22.6,21a3.15,3.15,0,0,1,.16-2.27c.49-1.18,1.34-1.8,1.92-1.8a.87.87,0,0,1,.28.05l.6.29-2,4.44Z"/><path class="cls-7" d="M24.68,17.38h.07l.16.07L23.29,21h0a.44.44,0,0,1-.2-.25,2.66,2.66,0,0,1,.16-1.89c.43-1,1.12-1.49,1.46-1.49m0-1a3.05,3.05,0,0,0-2.38,2.11c-.63,1.51-.38,3.05.57,3.44l.94.37L26.22,17l-1.07-.52a1.27,1.27,0,0,0-.47-.09Z"/><path class="cls-24" d="M13.3,32.81a.49.49,0,0,1-.32-.12L9.85,30a.5.5,0,0,1-.08-.68l8.4-11c.47-.62.71-.68.89-.68a.59.59,0,0,1,.49.3,3.94,3.94,0,0,1,.18,1.28,9.44,9.44,0,0,0,.3,2.21,5.41,5.41,0,0,0,1.65,2.21.49.49,0,0,1,.07.75l-8.09,8.24A.51.51,0,0,1,13.3,32.81Z"/><path class="cls-7" d="M19.06,18.17s0,0,0,0c.17.34.08,2.36.46,3.43a5.75,5.75,0,0,0,1.83,2.44L13.3,32.31l-3.13-2.67,8.4-11s.36-.49.49-.49m0-1h0c-.45,0-.82.26-1.29.89L9.38,29a1,1,0,0,0,.14,1.36l3.13,2.68a1,1,0,0,0,.65.23A1,1,0,0,0,14,33l8.09-8.24a.94.94,0,0,0,.28-.78,1,1,0,0,0-.41-.73,4.83,4.83,0,0,1-1.47-2,9.6,9.6,0,0,1-.28-2.08A3.61,3.61,0,0,0,20,17.75a1.08,1.08,0,0,0-.93-.58Z"/><path class="cls-25" d="M13.68,35.89a.49.49,0,0,1-.32-.12L6.92,30.23a.53.53,0,0,1-.17-.35.47.47,0,0,1,.14-.37l1.24-1.34a.6.6,0,0,1,.4-.17c.42,0,1.68.89,3.72,2.66,3.14,2.7,3.17,3.17,3.19,3.33a.61.61,0,0,1-.13.39l-1.26,1.35A.49.49,0,0,1,13.68,35.89Z"/><path class="cls-7" d="M8.53,28.5A16.91,16.91,0,0,1,11.93,31c1.77,1.53,3.12,2.88,3,3l-1.25,1.34L7.25,29.85,8.5,28.51h0m0-1a1.08,1.08,0,0,0-.79.36L6.52,29.17a1,1,0,0,0-.27.73,1,1,0,0,0,.35.71L13,36.15a1,1,0,0,0,.65.24,1,1,0,0,0,.73-.32l1.25-1.34a1.05,1.05,0,0,0,.27-.78c0-.33-.06-.83-3.35-3.67S8.82,27.5,8.53,27.5Z"/><path class="cls-26" d="M26.66,20.28c.63-1.51.37-3.05-.58-3.45s-2.22.51-2.85,2-.37,3,.58,3.45S26,21.79,26.66,20.28Z"/><path class="cls-27" d="M13.31,36.3c-.53,0-2.31-1.45-3.72-2.66-3.14-2.7-3.17-3.18-3.18-3.33a.54.54,0,0,1,.53-.58c.53,0,2.32,1.45,3.73,2.66,3.13,2.71,3.17,3.18,3.18,3.33a.54.54,0,0,1-.13.39A.57.57,0,0,1,13.31,36.3Z"/><path class="cls-7" d="M6.94,30.23a16.91,16.91,0,0,1,3.4,2.54c1.77,1.53,3.12,2.88,3,3h0a17,17,0,0,1-3.39-2.54c-1.78-1.53-3.13-2.88-3-3l0,0m0-1a1.06,1.06,0,0,0-.78.36,1,1,0,0,0-.25.75c0,.34.06.84,3.35,3.68S13,36.8,13.31,36.8a1.08,1.08,0,0,0,.79-.36,1,1,0,0,0,.25-.75c0-.33-.06-.84-3.36-3.68s-3.76-2.78-4-2.78Z"/><path class="cls-4" d="M22,14a2.28,2.28,0,0,1,.77.14l2.61,1.08v0A2.94,2.94,0,0,1,27,18l8.45,9.76h0l2.21,1h-.11c.56.16,1,.67,1,1.75l-.08.46-.51.11-.05,1.07a1.34,1.34,0,0,1,.58-.16.74.74,0,0,1,.36.09c.55.32.54,1.35,0,2.29a2.66,2.66,0,0,1-1.08,1.08l-.15,3.21A3.41,3.41,0,0,1,40,40.77c3,1.88,4.72,4.3,4,6.14l-.59,2.47c-.53,1.43-2.39,2.18-4.85,2.18a17.11,17.11,0,0,1-5.76-1.12c-5-1.85-8.26-5.3-7.35-7.73l.45-2.52c.53-1.44,2.41-2.19,4.88-2.19.41,0,.83,0,1.27.06l.09-4.52s-.76-.39-.76-2.14a.81.81,0,0,1,0-.16l-7.9-8a2,2,0,0,1-.43,0,2.27,2.27,0,0,1-.72-.12l-9,9.15c1,.95,1.68,1.67,1.6,1.76l-1.25,1.34-.34.4h0a17.31,17.31,0,0,1-3.39-2.54,27.91,27.91,0,0,1-3-3s.17-.32.34-.39L8.5,28.5h0A6.76,6.76,0,0,1,10.2,29.6l8-10.41a5.54,5.54,0,0,1,.38-2.14C19.24,15.21,20.69,14,22,14m0-.8h0c-1.73,0-3.44,1.43-4.26,3.56a6.49,6.49,0,0,0-.43,2.16l-7.3,9.56c-1.08-.79-1.3-.79-1.52-.79a.87.87,0,0,0-.64.29L6.74,29.21a2,2,0,0,0-.54.65.79.79,0,0,0,.1.88,28,28,0,0,0,3.09,3.12c3.17,2.73,3.7,2.73,3.92,2.73a.88.88,0,0,0,.63-.28l.35-.41,1.23-1.31c.54-.63.11-1.22-1-2.34L22.59,24a3.71,3.71,0,0,0,.47,0h.14l7.38,7.51a3.5,3.5,0,0,0,.75,2.33l-.07,3.32h-.48c-2.94,0-5,1-5.63,2.71a.74.74,0,0,0,0,.14l-.44,2.45c-.5,1.46.09,3.18,1.67,4.84a16.78,16.78,0,0,0,6.18,3.85,17.87,17.87,0,0,0,6,1.17c2.92,0,5-1,5.6-2.7l0-.09.58-2.43c.75-2.13-.82-4.74-4.13-6.88a4.07,4.07,0,0,0-2.22-2.15l.11-2.23a3.64,3.64,0,0,0,1-1.13c.81-1.37.69-2.83-.26-3.39l-.08,0a.73.73,0,0,0,.08-.25l.08-.45a.66.66,0,0,0,0-.14,2.44,2.44,0,0,0-1.15-2.32A.78.78,0,0,0,38,28l-2.08-.93-8.15-9.41a3.69,3.69,0,0,0-1.84-3.09l-.16-.09L23.11,13.4A3,3,0,0,0,22,13.2Z"/><polyline class="cls-28" points="48.5 27.5 48.5 29.5 49.5 30.5 51.5 30.5 52.5 29.5 52.5 27.5"/><rect class="cls-29" x="49.5" y="30.5" width="2" height="3" rx="0.5"/><path class="cls-30" d="M51,31v2H50V31h1m0-1H50a1,1,0,0,0-1,1v2a1,1,0,0,0,1,1h1a1,1,0,0,0,1-1V31a1,1,0,0,0-1-1Z"/></g></svg>