<svg id="_64_v_1X_copy_2" data-name="64  v 1X copy 2" xmlns="http://www.w3.org/2000/svg" xmlns:xlink="http://www.w3.org/1999/xlink" viewBox="0 0 64 64"><defs><style>.cls-1,.cls-25{fill:#fff;}.cls-1,.cls-2{stroke:#797979;}.cls-1,.cls-17,.cls-19,.cls-20,.cls-21,.cls-22,.cls-23,.cls-24,.cls-32,.cls-34{stroke-miterlimit:10;}.cls-1,.cls-15,.cls-17,.cls-19,.cls-2,.cls-21,.cls-22,.cls-23,.cls-31,.cls-32{stroke-width:0.5px;}.cls-2,.cls-33{fill:#f1f0f0;}.cls-11,.cls-15,.cls-17,.cls-2,.cls-22,.cls-23,.cls-24,.cls-30,.cls-31{stroke-linecap:round;}.cls-11,.cls-15,.cls-2,.cls-30,.cls-31{stroke-linejoin:round;}.cls-3{fill:url(#linear-gradient);}.cls-4{fill:#2d2d2d;}.cls-5{opacity:0.9;}.cls-6{fill:url(#linear-gradient-2);}.cls-10,.cls-7{fill:#343434;}.cls-8{fill:url(#linear-gradient-3);}.cls-9{fill:url(#linear-gradient-4);}.cls-10{opacity:0.7;}.cls-11,.cls-15,.cls-17,.cls-19,.cls-24{fill:none;}.cls-11,.cls-15,.cls-17,.cls-19,.cls-20,.cls-21,.cls-22,.cls-23,.cls-24,.cls-30,.cls-31,.cls-32,.cls-34{stroke:#000;}.cls-12,.cls-20,.cls-21,.cls-31{fill:#e1e1e1;}.cls-13{opacity:0.46;}.cls-14{fill:#797979;}.DARK-GREY-Fill{fill:url(#linear-gradient-5);}.cls-16{fill:#646464;opacity:0.5;}.cls-18{fill:url(#linear-gradient-6);}.cls-22{fill:url(#radial-gradient);}.cls-23{fill:url(#radial-gradient-2);}.cls-24{stroke-width:0.25px;}.cls-26{fill:#2d6d8b;}.cls-27{fill:#5a9ab8;}.cls-28{fill:url(#Light_BLUE_gradient_TOP);}.cls-29{fill:url(#linear-gradient-8);}.cls-30{stroke-width:0.6px;fill:url(#radial-gradient-3);}.cls-32{fill:url(#linear-gradient-9);}.cls-34{stroke-width:0.65px;fill:url(#linear-gradient-11);}.cls-35{fill:#c10e00;}.cls-36{fill:#323232;}</style><linearGradient id="linear-gradient" x1="42.59" y1="27.66" x2="66.11" y2="64.17" gradientUnits="userSpaceOnUse"><stop offset="0" stop-color="#fff"/><stop offset="1" stop-color="#bfbfbf"/></linearGradient><linearGradient id="linear-gradient-2" x1="47.9" y1="230.87" x2="57.16" y2="239.68" gradientTransform="matrix(1, 0.4, 0, 1, 0, -218.59)" gradientUnits="userSpaceOnUse"><stop offset="0" stop-color="#f0f0f0"/><stop offset="1" stop-color="#b3b3b3"/></linearGradient><linearGradient id="linear-gradient-3" x1="42.35" y1="240.39" x2="51.62" y2="249.21" xlink:href="#linear-gradient-2"/><linearGradient id="linear-gradient-4" x1="48.11" y1="238.26" x2="57.37" y2="247.08" xlink:href="#linear-gradient-2"/><linearGradient id="linear-gradient-5" x1="19.6" y1="47.9" x2="26.5" y2="47.9" gradientUnits="userSpaceOnUse"><stop offset="0" stop-color="#464646"/><stop offset="1" stop-color="#141414"/></linearGradient><linearGradient id="linear-gradient-6" x1="13.51" y1="13.09" x2="19.21" y2="13.09" gradientTransform="matrix(-1, 0, 0, 1, 50.37, 0)" gradientUnits="userSpaceOnUse"><stop offset="0" stop-color="#f5f5f5"/><stop offset="1" stop-color="#bebebe"/></linearGradient><radialGradient id="radial-gradient" cx="34.34" cy="30.48" r="0.07" gradientTransform="matrix(-3.46, 0.17, 2.77, 2.52, 55.98, -44.27)" gradientUnits="userSpaceOnUse"><stop offset="0.34" stop-color="#a0e1fa"/><stop offset="0.5" stop-color="#a3e2fa"/><stop offset="0.62" stop-color="#aee5fb"/><stop offset="0.75" stop-color="#c0ebfc"/><stop offset="0.86" stop-color="#d8f3fd"/><stop offset="0.97" stop-color="#f8fdff"/><stop offset="0.99" stop-color="#fff"/></radialGradient><radialGradient id="radial-gradient-2" cx="37.14" cy="31.13" r="0.08" gradientTransform="matrix(-3.46, 0.17, 2.77, 2.52, 55.28, -44.91)" xlink:href="#radial-gradient"/><linearGradient id="Light_BLUE_gradient_TOP" x1="45.31" y1="15.5" x2="34.65" y2="15.5" gradientTransform="translate(-3.44)" gradientUnits="userSpaceOnUse"><stop offset="0" stop-color="#a0e1fa"/><stop offset="0.99" stop-color="#73c3e1"/></linearGradient><linearGradient id="linear-gradient-8" x1="24.05" y1="19.34" x2="28.72" y2="27.43" xlink:href="#linear-gradient-6"/><radialGradient id="radial-gradient-3" cx="25.57" cy="23.2" r="6.22" gradientTransform="matrix(-1, 0, 0, 1, 50.37, 0)" xlink:href="#radial-gradient"/><linearGradient id="linear-gradient-9" x1="26.9" y1="17.04" x2="31.88" y2="17.04" xlink:href="#linear-gradient-6"/><linearGradient id="linear-gradient-11" x1="24.02" y1="14.48" x2="31.46" y2="14.48" xlink:href="#linear-gradient-6"/></defs><title>1325_A33AAe__R21XArtboard 1</title><g id="gondole_copy_2" data-name="gondole copy 2"><path id="ok_2" data-name="ok 2" class="cls-1" d="M33.69,9.19a9.11,9.11,0,0,0-3.44,4.08,23.41,23.41,0,0,0-2.13,7.2L25.49,36.61l.92-.37,0,4.39,10.84-4L37.26,8Z"/><g id="Layer_140_copy_4" data-name="Layer 140 copy 4"><polygon id="et_1" data-name="et 1" class="cls-2" points="26.48 36.2 41.79 41.46 51.81 37.75 37.05 32.77 26.48 36.2"/><polygon id="et_2" data-name="et 2" class="cls-2" points="28.32 26.83 42.68 31.6 51.98 29.1 36.95 24.63 28.32 26.83"/><polygon id="et_3" data-name="et 3" class="cls-2" points="30.2 18.62 44.37 22.87 51.84 19.42 37.25 15.89 30.2 18.62"/></g><path id="ok_2-2" data-name="ok 2" class="cls-1" d="M48.29,14.06a9.11,9.11,0,0,0-3.44,4.08,23.08,23.08,0,0,0-2.13,7.19L40.19,41.49,41,41.1v5.43l10.83-4.82V12.89Z"/></g><g id="graph_OK_OK_copy_2" data-name="graph  OK *** OK * copy 2"><path class="cls-3" d="M59,55.38a.35.35,0,0,1-.14,0l-14.81-6c-.14-.06,0-.2,0-.35V29c0-.12-.13-.23,0-.3s.05-.07.12-.07h.08l14.78,5c.16.06,0,.2,0,.36V55c0,.12.13.24,0,.31S59.07,55.38,59,55.38Z"/><path class="cls-4" d="M44,29l15,5V55L44,49V29m0-.75a1.19,1.19,0,0,0-.56.14c-.2.14-.44.37-.44.61V49a.89.89,0,0,0,.6.7l15.06,6a1.06,1.06,0,0,0,.31,0,1.21,1.21,0,0,0,.56-.13c.21-.14.47-.37.47-.62V34a.88.88,0,0,0-.64-.71l-15.06-5a1,1,0,0,0-.3,0Z"/><g class="cls-5"><polygon class="cls-6" points="49.5 37.16 49.5 34.24 53.5 35.86 53.5 38.78 49.5 37.16"/><path class="cls-7" d="M50,35l3,1.21V38l-3-1.21V35M49,33.5v4l5,2v-4l-5-2Z"/><polygon class="cls-8" points="45.5 46.55 45.5 43.63 49.5 45.24 49.5 48.16 45.5 46.55"/><path class="cls-7" d="M46,44.37l3,1.21v1.84l-3-1.21V44.37m-1-1.49v4l5,2v-4l-5-2Z"/><polygon class="cls-9" points="53.5 49.78 53.5 46.86 57.5 48.47 57.5 51.4 53.5 49.78"/><path class="cls-7" d="M54,47.6l3,1.21v1.84l-3-1.21V47.6m-1-1.48v4l5,2v-4l-5-2Z"/><polygon class="cls-10" points="55 44.92 52 43.71 52 41.71 54 42.52 54 41.52 53 41.12 53 40.12 52 39.71 52 37.71 51 37.31 51 39.31 50 38.9 50 39.9 49 39.5 49 40.5 51 41.31 51 43.31 48 42.1 47 41.69 47 43.69 48 44.1 48 43.1 55 45.92 55 46.92 56 47.33 56 45.33 55 44.92"/></g></g><g id="BONHOMME_OK_copy_7" data-name="BONHOMME OK copy 7"><g id="JMB_OK" data-name="JMB    ****  OK"><path id="CONTOUR_JMB" data-name="CONTOUR JMB" class="cls-11" d="M16.94,28.42c1.26,1.15,4,3.15,4,3.15l3.35,4.79a2,2,0,0,1,.29.74,4,4,0,0,1-.27,1.07l-.57,1.62-1.12,6.13a.65.65,0,0,0,.14.61c.54.54,3.91,1.3,3.78,2.26-.5,1.2-6.9,0-6.9,0l.31-2L19,46.58l.38-2.71.72-4.48.71-1.2-5.32-4.13S16,27.54,16.94,28.42Z"/><path id="fond_JMB_" data-name="fond JMB ***" class="cls-12" d="M16.74,28.27l4.16,3.3,3.35,4.79h0a3.3,3.3,0,0,1,.29.74l-.27,1.07-.57,1.62-1.12,6.13.14.61s3.91,1.3,3.78,2.26c-.5,1.2-6.9,0-6.9,0l.31-2L19,46.58l.38-2.71.72-4.48.73-1.23-5.35-4.1Z"/><g class="cls-13"><path class="cls-14" d="M16.94,28.42c1.26,1.15,3.46,2.44,3.58,3.77.28,3,2.54,4.38,2.86,5.22.51,1.33-.52,1.71-.62,1.74-2.67,1.06-1.08,5.26-1.61,7.07-.08.27.89.11,1.64.36s3.84,1.25,3.71,2.21c-.5,1.2-6.9,0-6.9,0l.31-2L19,46.58a19.42,19.42,0,0,0,.38-2.71,11.52,11.52,0,0,1,.87-4.65c.42-.8.81-.84.69-1-1.47-1.87-4.57-2.78-5.14-5.13C15,29.86,16,27.54,16.94,28.42Z"/></g><g class="cls-13"><path class="cls-14" d="M21.33,46.7a2.07,2.07,0,0,1,1.46-.12c.73.24,3.84,1.25,3.71,2.21-.5,1.2-6.9,0-6.9,0l.31-2A4,4,0,0,0,21.33,46.7Z"/></g><path class="DARK-GREY-Fill" d="M21.33,46.7a2.07,2.07,0,0,1,1.46-.12c.73.24,3.84,1.25,3.71,2.21-.5,1.2-6.9,0-6.9,0l.31-2A4,4,0,0,0,21.33,46.7Z"/><path id="CONTOUR_JMB-2" data-name="CONTOUR JMB" class="cls-15" d="M16.94,28.42c1.26,1.15,4,3.15,4,3.15l3.35,4.79.29.74-.27,1.07-.57,1.62-1.12,6.13a.65.65,0,0,0,.14.61c.54.54,3.91,1.3,3.78,2.26-.5,1.2-6.9,0-6.9,0l.31-2L19,46.58l.38-2.71.72-4.48.71-1.2-5.32-4.13S16,27.54,16.94,28.42Z"/></g><g id="BRAS_AR_" data-name="BRAS AR **"><path class="cls-16" d="M16.86,18.92a2,2,0,0,1,.42-2.75c1.31-1.1,2.34.39,6.09-1.33a2.84,2.84,0,0,1,1.95-1.59c2-.2,2.28.32,5.38-.05L30.76,15a16.07,16.07,0,0,1-5,1.36c-.23,0-.69,0-.69,0A13,13,0,0,1,20,19.58C18.59,20,17.41,20,16.86,18.92Z"/><path class="cls-12" d="M17,16.38c3.47-1.44,2.63.64,3.89.15a6.09,6.09,0,0,0,2.5-1.74,3.41,3.41,0,0,1,2.37-1.57c2.14,0,1.88.31,5,0l0,1a22.46,22.46,0,0,0-4.32.54l-3.4,2s-4.59.4-4.66.89S19.09,15.7,17,16.38Z"/><path id="contour_.5_" data-name="contour  .5   ***" class="cls-17" d="M15.24,19.85,16.84,17a2,2,0,0,1,1.32-1l5.21-1.14L25.8,13.2h4.68l.26,1.08,0,.73-5,1.35-.57.15L20,19.58Z"/></g><g id="MAIN_" data-name="MAIN **"><path id="M" class="cls-18" d="M33.66,11.94a10.17,10.17,0,0,1,3.2,1.51l-3.22,0a1,1,0,0,0-.51.14c-.68.43-2.08,1.21-2-.05C31.3,12.16,32.49,11.83,33.66,11.94Z"/><path id="M-2" data-name="M" class="cls-19" d="M33.66,11.94a10.17,10.17,0,0,1,3.2,1.51l-3.22,0a1,1,0,0,0-.51.14c-.68.43-2.08,1.21-2-.05C31.3,12.16,32.49,11.83,33.66,11.94Z"/></g><path class="cls-20" d="M9.84,50.16l-.74-.29,2.29-8L12.24,40l-.07-.84L10.7,33.88,10.64,33l0-3.31.76-1.85.7-1.64,1.29-4.57.89-2.17,3.21-2.06a1,1,0,0,1,.61-.16l2.18.15,1.24.77.67,1.49a1,1,0,0,1,0,.88L21,22.69l-1.95,2.37-1.82,5.1L17,31.22,16,34.36l0,6.26-.12,1.1L15,43.15l-1.8,7.07-.45.29s4,1.28,3.37,3.24c-.44.46-5.57-.86-6.75-1.17a.24.24,0,0,1-.17-.31Z"/><g id="JMB_CORPS" data-name="JMB CORPS"><path class="cls-21" d="M9.84,50.16l-.74-.29,2.29-8L12.24,40l-.07-.84L10.7,33.88,10.64,33l0-3.31.76-1.85.7-1.64,1.29-4.57.89-2.17,3.49-2.24,2.51.17,1.24.77.88,1.94L21,22.69l-1.95,2.37-1.82,5.1L17,31.22,16,34.36l0,6.26-.12,1.1L15,43.15l-1.8,7.07-.45.29s4,1.28,3.37,3.24c-.44.46-5.54-.85-6.74-1.17a.24.24,0,0,1-.17-.31Z"/><path class="DARK-GREY-Fill" d="M12.83,50.7c1.19.7,3.49,1.35,3.08,2.93-.84.26-6.52-1.18-6.51-1.29A13,13,0,0,1,10,50.42C11.41,50.89,12.12,50.47,12.83,50.7Z"/></g><g id="ok_" data-name="ok **" class="cls-13"><path class="cls-14" d="M11.52,50.33a2.11,2.11,0,0,0-.87-.46c-.86-2.36,3.9-6.71,4.27-8.81,0-1.31-2.36-.23-2.36-.69,0-.29,1.94-.19,2.1-.49.5-.94-.24-3.76-.53-5.34-.44-2.38-2.21-.95-2.62-2,1,0,.53-.45,1.3-.85.49-.68,1.57-1.18,2.07-3.35.45-2,1.36-2.29,1.73-3.71,0-1.25-1.55-2.88-1.46-3.4a5.26,5.26,0,0,1,2.35-3.58c.53-.3.67-.12,1.05-.12a4.72,4.72,0,0,0,1.7,1.78c1.2.89,1.72.51,1.72.51l.14.32-1.37,2.49s-1.15,1.45-1.93,2.3c-.12.4-.73,2.17-.73,2.17l-1,2.85-.15.31a4.39,4.39,0,0,1-.16.94c-.34,1.19-1.06,3.16-1.06,3.16s-.26,3.57-.43,5.67a2.22,2.22,0,0,1,.38,1c0,.62-.13.64-.62,1.39,0,0-.44.25-.46.27-3.2,3.65-2.77,4.44-1.72,7.58.11.34-1.85.81-1,1.27.71.37,2.6,1.27,2.23,1.9A36.52,36.52,0,0,1,9.4,52.35,18.54,18.54,0,0,1,10,50.48,4,4,0,0,1,11.52,50.33Z"/></g><path id="pli_jmb_2" data-name="pli  jmb 2" class="cls-22" d="M21.78,38.71a2,2,0,0,1-.49-.31"/><path id="pli_1" data-name="pli 1" class="cls-23" d="M13.19,40.21a3.31,3.31,0,0,1-.44-.33"/><path id="pli_2_poches" data-name="pli  2 poches" class="cls-24" d="M14.13,31.16C13.48,31,13,32.83,12,32.64"/><path id="pli_1-2" data-name="pli 1" class="cls-24" d="M19.38,35.54a27.07,27.07,0,0,0-2.92-1.21"/><path id="Pie_ARR" data-name="Pie ARR" class="cls-17" d="M22.92,46.32c-.14.66-1.2.86-2.88.61"/><path id="pied_Avant" data-name="pied Avant" class="cls-17" d="M13.39,50.47A4.86,4.86,0,0,1,9.62,50"/><path id="Ceinture" class="cls-17" d="M17.66,29.33c-.29,1.17-3.18.87-4.67,0s-1.85-1.54-1.49-2.11"/><path id="Ceinture-2" data-name="Ceinture" class="cls-17" d="M17.79,28.85c-.29,1.17-3.23.86-4.71,0s-1.86-1.55-1.5-2.11"/><g id="box_OK_copy_8" data-name="box ***   OK copy 8"><path class="cls-25" d="M34.29,21.93l0,0-.09-.05L31,18.21a.27.27,0,0,1-.06-.16V14.14a.29.29,0,0,1,0-.09h0L31,14h0a.1.1,0,0,1,.05,0l.07,0,6.31-.87a.25.25,0,0,1,.16.06L42,16.74a.23.23,0,0,1,.1.19v3.62a.25.25,0,0,1-.22.24l-7.58,1.14Z"/><path d="M37.47,13.3l4.41,3.63-7.55.89-3.11-3.65,6.25-.87m-6.25.87,3.11,3.65v3.86l-3.11-3.63V14.17m10.66,2.76v3.62l-7.55,1.13V17.82l7.55-.89M37.47,12.8H37.4l-6.25.86h-.06l-.1,0h0a.38.38,0,0,0-.14.11h0a.44.44,0,0,0-.08.11h0a.34.34,0,0,0-.05.17h0v3.94a.49.49,0,0,0,.12.32L34,22a.51.51,0,0,0,.23.15h.23L42,21a.51.51,0,0,0,.43-.49V16.93s0-.06,0-.1h0a.19.19,0,0,0,0-.08h0a.62.62,0,0,0-.11-.17h0l0,0-4.4-3.62a.51.51,0,0,0-.32-.12Z"/><polygon class="cls-26" points="34.18 21.64 31.21 18.07 31.21 14.39 34.18 18.07 34.18 21.64 34.18 21.64"/><polygon class="cls-27" points="41.88 17.14 41.88 20.76 34.49 21.89 34.49 18.04 41.88 17.14 41.88 17.14"/><polygon class="cls-28" points="41.88 16.93 37.47 13.3 31.21 14.17 34.33 17.7 41.88 16.93 41.88 16.93"/></g><g id="BRAS_AV_OK" data-name="BRAS  AV**  OK"><path class="cls-29" d="M16.92,19.7l2.66.18,1.3,1.4,5,2.64,6.31-1.19.68,1.42-4,1.79L26,26.52l-.46.18L19,24.86l-2.25-.28S15.23,21.12,16.92,19.7Z"/><g id="ombre_bras" data-name="ombre bras"><path class="cls-14" d="M15.18,21.28c.26-1.9,2.49-1.58,2.49-1.58s-.87.77-.74,1.52c.69-.88,2,0,2,0-2.1.87.48,2.41.48,2.41l5.66,1.89a3,3,0,0,0,1.92,0l5.66-1.94.23.54L29,26,26,26.52l-.46.18S20.2,25.81,19,24.86a3.15,3.15,0,0,0-2.25-.28A12.09,12.09,0,0,1,15.18,21.28Z"/></g><polyline id="contour_0.5" data-name="contour 0.5" class="cls-30" points="16.8 20.38 17.67 19.7 19.58 19.88 20.88 21.27 25.88 23.92 32.19 22.73 32.87 24.15 28.85 25.94 25.99 26.52 25.53 26.7 18.96 24.86 16.72 24.58"/></g><path id="MAIN_AV_" data-name="MAIN AV **" class="cls-31" d="M35.42,21l-.36,1.33,3.49-.66c-.91,1.24-.92.95-2.07,1.7a2.38,2.38,0,0,1-3.19-.07C32.11,22.4,34.4,20.88,35.42,21Z"/><path id="cou" class="cls-32" d="M21.08,19.81c-1-1.77-1.74-1-2.38-1.77-.33-.39-.24-.58,0-.79a9.46,9.46,0,0,0,1.13-2.09c.95-1.79,2.5-.78,3.52.5.39.5-.33,2.55-1.72,3.17C21,19.13,21.91,20.17,21.08,19.81Z"/><path id="Pie_ARR-2" data-name="Pie ARR" class="cls-17" d="M22,19.12c.24,1.88-4.23-1.17-3-2.06"/><path id="C_cou" data-name="C cou" class="cls-15" d="M18.71,17.25c.44-.11.71-1.14,1.13-2.09a2,2,0,0,1,1-.92c.84-.4,2.95,1.33,2.64,2.14a10.35,10.35,0,0,1-1,1.89c-.23.35-.85.37-.83.71"/><path id="tete_fond_color" data-name="tete fond color" class="cls-33" d="M25.59,18c-.23.87-1,1-1.8.82a5.72,5.72,0,0,1-2.78-1c-.78-.66.2-1.32-1-2.09-1.59-1.06-1.26-3.18,0-4.62s4.32-1.34,5.69.89S26.05,16.22,25.59,18Z"/><path id="joue_" data-name="joue   ***" class="cls-21" d="M22.72,18.47c-.8-.16-2.27-.47-2.08-2.16-.65-.64-1.16-.66-1-1a4,4,0,0,1,.87-1c.75-.59,2.14.16,2.91,1.44S24.17,18.8,22.72,18.47Z"/><path id="Cheveux_tete" data-name="Cheveux tete" class="DARK-GREY-Fill" d="M22,13.37c-.23.87,0,1.83-.83,1.63-1.84-.46.67,3.45-.11,2.78s.2-1.32-1-2.09c-1.59-1.06-1.26-3.18,0-4.62s4.32-1.34,5.69.89S22.41,11.64,22,13.37Z"/><path id="tete" class="cls-34" d="M25.59,18c-.23.87-1,1-1.8.82a5.72,5.72,0,0,1-2.78-1c-.78-.66.2-1.32-1-2.09-1.59-1.06-1.26-3.18,0-4.62s4.32-1.34,5.69.89S26.05,16.22,25.59,18Z"/></g><g id="ALERT_copy_2" data-name="ALERT copy 2"><path class="cls-25" d="M5.8,24c-.2,0-.36-.24-.41-.34a.64.64,0,0,1,.07-.52l5.89-10.77c.12-.21.23-.3.3-.3s.19.06.3.26l5.9,10.72a.93.93,0,0,1,.06.62c-.05.09-.21.33-.41.33Z"/><path class="cls-35" d="M11.65,12.56,17.52,23.1V23H5.77v.1l5.87-10.54m0-.89a.75.75,0,0,0-.62.47L5.13,22.86A.7.7,0,0,0,5.8,24H17.5c.72,0,1-.51.67-1.14L12.28,12.14a.77.77,0,0,0-.63-.47Z"/><path class="cls-25" d="M6.19,23.5a.47.47,0,0,1-.43-.25.5.5,0,0,1,0-.49l5.46-9.93a.51.51,0,0,1,.88,0l5.46,9.93a.5.5,0,0,1,0,.49.47.47,0,0,1-.43.25Z"/><path class="cls-35" d="M11.65,13.08,17.11,23H6.19l5.46-9.92h0m0-1a1,1,0,0,0-.87.51L5.32,22.52A1,1,0,0,0,6.19,24H17.11A1,1,0,0,0,18,22.52l-5.46-9.93a1,1,0,0,0-.88-.51Z"/><path class="cls-36" d="M11.33,21.72v-.64H12v.64ZM11,20V17h1v3Z"/><path class="cls-36" d="M12,17v0m0-1H11v4h1V16Zm.3,4.75H11v1.3h1.3v-1.3Z"/><path class="cls-36" d="M11.33,21.72v-.64H12v.64ZM11,20V17h1v3Z"/><path class="cls-36" d="M12,17v0m0-1H11v4h1V16Zm.3,4.75H11v1.3h1.3v-1.3Z"/></g></svg>