<svg xmlns="http://www.w3.org/2000/svg" xmlns:xlink="http://www.w3.org/1999/xlink" viewBox="0 0 64 64"><defs><style>.cls-1,.cls-11,.cls-12,.cls-13,.cls-36,.cls-37{fill:none;}.cls-2{clip-path:url(#clip-path);}.cls-3{fill:#fff;}.cls-4{fill:url(#linear-gradient);}.cls-5{fill:#831300;}.cls-6{fill:url(#linear-gradient-2);}.cls-7{fill:#ff1e00;}.cls-8{fill:url(#linear-gradient-3);}.cls-9{fill:url(#linear-gradient-4);}.cls-10{fill:#ff0;}.cls-11,.cls-13,.cls-37{stroke:#003755;}.cls-11,.cls-12,.cls-13,.cls-14,.cls-37{stroke-miterlimit:10;}.cls-12{stroke:#285977;stroke-width:0.25px;}.cls-13{stroke-width:0.73px;}.cls-14{stroke:#003654;stroke-width:2.19px;fill:url(#linear-gradient-5);}.cls-14,.cls-21,.cls-22,.cls-23,.cls-26,.cls-27,.cls-28,.cls-29,.cls-31,.cls-33,.cls-36{stroke-linecap:round;}.cls-15{fill:#003654;}.cls-16{fill:url(#radial-gradient);}.cls-17{fill:url(#linear-gradient-6);}.cls-18{fill:#6d6d6d;}.cls-19{fill:url(#linear-gradient-7);}.cls-20{fill:url(#linear-gradient-8);}.cls-21,.cls-24,.cls-26{fill:#5a9ab8;}.cls-21,.cls-22,.cls-23,.cls-24,.cls-25,.cls-26,.cls-27,.cls-28,.cls-29{stroke:#00415f;}.cls-21,.cls-22,.cls-23,.cls-24,.cls-25,.cls-26,.cls-27,.cls-28,.cls-29,.cls-31,.cls-33,.cls-36{stroke-linejoin:round;}.cls-21,.cls-22,.cls-23,.cls-24,.cls-25{stroke-width:0.75px;}.cls-22{fill:#aadcfa;}.cls-23,.cls-25,.cls-27{fill:#82bddb;}.cls-26,.cls-27,.cls-28,.cls-29{stroke-width:0.5px;}.cls-28{fill:url(#linear-gradient-9);}.cls-29{fill:url(#linear-gradient-10);}.cls-30{fill:url(#linear-gradient-11);}.cls-31,.cls-33{stroke:#6d6d6d;}.cls-31,.cls-33,.cls-36{stroke-width:0.99px;}.cls-31{fill:url(#linear-gradient-12);}.cls-32{fill:url(#linear-gradient-13);}.cls-33{fill:url(#linear-gradient-14);}.cls-34{fill:url(#linear-gradient-15);}.cls-35{fill:#2d2d2d;}.cls-36{stroke:#000;}.cls-37{stroke-width:1.02px;}.cls-38{fill:#82bcda;}</style><clipPath id="clip-path"><polygon id="cadre" class="cls-1" points="34.8 55.85 20.1 55.85 5.22 55.85 5.22 39.33 20.1 39.33 34.8 39.33 34.8 55.85"/></clipPath><linearGradient id="linear-gradient" x1="7.63" y1="49.85" x2="13.71" y2="49.85" gradientUnits="userSpaceOnUse"><stop offset="0" stop-color="#fc3f05"/><stop offset="1" stop-color="#fc3f05"/></linearGradient><linearGradient id="linear-gradient-2" x1="13.11" y1="45.37" x2="18.98" y2="45.37" gradientUnits="userSpaceOnUse"><stop offset="0" stop-color="#f1cf2f"/><stop offset="1" stop-color="#f1cf2f"/></linearGradient><linearGradient id="linear-gradient-3" x1="22.62" y1="47.73" x2="24.87" y2="43.84" gradientUnits="userSpaceOnUse"><stop offset="0" stop-color="#55b432"/><stop offset="1" stop-color="#55b432"/></linearGradient><linearGradient id="linear-gradient-4" x1="22.62" y1="47.73" x2="24.87" y2="43.84" gradientUnits="userSpaceOnUse"><stop offset="0" stop-color="#28780a"/><stop offset="1" stop-color="#3c9b19"/></linearGradient><linearGradient id="linear-gradient-5" x1="20.8" y1="52.14" x2="32.11" y2="64.54" gradientUnits="userSpaceOnUse"><stop offset="0" stop-color="#f0f0f0"/><stop offset="1" stop-color="#b3b3b3"/></linearGradient><radialGradient id="radial-gradient" cx="50.36" cy="22.49" r="1.78" gradientTransform="matrix(0.97, 0.19, -0.19, 0.98, -24.91, 23.31)" gradientUnits="userSpaceOnUse"><stop offset="0.07" stop-color="#fff"/><stop offset="0.52" stop-color="#82bddb"/></radialGradient><linearGradient id="linear-gradient-6" x1="76.51" y1="-11.37" x2="12.47" y2="37.78" gradientUnits="userSpaceOnUse"><stop offset="0" stop-color="#fcfcfc"/><stop offset="1" stop-color="#b3b3b3"/></linearGradient><linearGradient id="linear-gradient-7" x1="23.03" y1="1.76" x2="7.75" y2="26.13" gradientUnits="userSpaceOnUse"><stop offset="0" stop-color="#c9c9c9"/><stop offset="1" stop-color="#737373"/></linearGradient><linearGradient id="linear-gradient-8" x1="36.86" y1="21.32" x2="66.04" y2="21.32" gradientUnits="userSpaceOnUse"><stop offset="0" stop-color="#787878"/><stop offset="1" stop-color="#fcfcfc"/></linearGradient><linearGradient id="linear-gradient-9" x1="26.11" y1="19.81" x2="35.9" y2="19.81" gradientUnits="userSpaceOnUse"><stop offset="0.1" stop-color="#195a72"/><stop offset="0.5" stop-color="#5a9cb5"/><stop offset="1" stop-color="#93d2f0"/></linearGradient><linearGradient id="linear-gradient-10" x1="6.3" y1="22.32" x2="18.52" y2="22.32" xlink:href="#linear-gradient-9"/><linearGradient id="linear-gradient-11" x1="41.14" y1="9.69" x2="25.29" y2="23.26" xlink:href="#linear-gradient-6"/><linearGradient id="linear-gradient-12" x1="35.26" y1="18.82" x2="38.14" y2="18.82" xlink:href="#linear-gradient-7"/><linearGradient id="linear-gradient-13" x1="32.01" y1="11.13" x2="17.82" y2="24.28" xlink:href="#linear-gradient-6"/><linearGradient id="linear-gradient-14" x1="24.94" y1="21.66" x2="27.7" y2="21.66" xlink:href="#linear-gradient-7"/><linearGradient id="linear-gradient-15" x1="21.54" y1="14.48" x2="2.83" y2="28.67" xlink:href="#linear-gradient-6"/></defs><g id="Layer_81_copy" data-name="Layer 81 copy"><g class="cls-2"><circle id="fond_crc" data-name="fond crc" class="cls-3" cx="20" cy="55.48" r="14.24"/><g id="ROUE_OK" data-name="ROUE OK"><g id="ROUGE_OK_" data-name="ROUGE  **OK *"><path class="cls-4" d="M7.63,53.06a12.53,12.53,0,0,1,3-5.94l.1-.08a14.29,14.29,0,0,1,1.05-1l1.91,2.63a9.13,9.13,0,0,0-2.57,3.89l-.06.11a9.9,9.9,0,0,0-.28,1Z"/><path class="cls-5" d="M11.78,46.21l1.76,2.42a9.27,9.27,0,0,0-2.48,3.76h0l-.07.23a9.22,9.22,0,0,0-.26.92L7.78,53a12.33,12.33,0,0,1,2.87-5.65h0l.18-.2a11.4,11.4,0,0,1,.94-.91m0-.37A13.48,13.48,0,0,0,10.66,47h0a12.68,12.68,0,0,0-3.17,6.22l3.42.66a8.92,8.92,0,0,1,.29-1.13h0a9.13,9.13,0,0,1,2.65-4l-2-2.83Z"/></g><g id="_10_A_2" data-name="10  ** A  2"><path class="cls-6" d="M13.11,45.09A9.93,9.93,0,0,1,18.85,43L19,46.33a7.64,7.64,0,0,0-4.14,1.38Z"/><path class="cls-7" d="M18.73,43.17l.12,3a7.77,7.77,0,0,0-4,1.32l-1.59-2.41a9.82,9.82,0,0,1,5.45-1.95M19,42.9a10.2,10.2,0,0,0-6,2.16l1.86,2.82a7.64,7.64,0,0,1,4.31-1.43L19,42.9Z"/></g><g id="vert_ok" data-name="vert ok"><path class="cls-8" d="M28.53,46.29a13.1,13.1,0,0,0-8.2-3.37v3.49a9.68,9.68,0,0,1,5.78,2.38Z"/><path class="cls-9" d="M20.58,43.18a13,13,0,0,1,7.59,3.12l-2.08,2.14a10.09,10.09,0,0,0-5.51-2.28v-3m-.25-.26v3.49a9.68,9.68,0,0,1,5.78,2.38l2.42-2.5a13.1,13.1,0,0,0-8.2-3.37Z"/></g><g id="_2_A4" data-name="2** A4"><path class="cls-10" d="M28.9,53.68a8,8,0,0,0-2-4.06l2.59-2.52a11.67,11.67,0,0,1,2.73,6Z"/><path class="cls-7" d="M29.45,47.21A11.14,11.14,0,0,1,32.15,53l-3.22.62a7.9,7.9,0,0,0-1.93-4l2.45-2.45m0-.14-2.58,2.58a8,8,0,0,1,2,4.09l3.41-.66a11.32,11.32,0,0,0-2.82-6Z"/></g></g><polyline id="cadre-2" data-name="cadre" class="cls-11" points="34.41 55.43 20.1 55.43 5.79 55.43"/><polyline id="cadre-3" data-name="cadre" class="cls-12" points="34.41 54.29 20.1 54.29 5.79 54.29"/><circle id="cercle_contour" data-name="cercle contour" class="cls-13" cx="19.98" cy="55.48" r="14.24"/><circle id="cercle_contour-2" data-name="cercle contour" class="cls-13" cx="19.98" cy="55.48" r="14.24"/></g><g id="aiguille"><line id="aiguille-2" data-name="aiguille" class="cls-14" x1="20.13" y1="55.85" x2="22.94" y2="50.04"/><g id="M1gd"><circle class="cls-3" cx="20.13" cy="55.85" r="2.64"/><path class="cls-15" d="M20.13,53.48a2.37,2.37,0,1,1-2.37,2.37,2.38,2.38,0,0,1,2.37-2.37m0-.54A2.92,2.92,0,1,0,23,55.85a2.91,2.91,0,0,0-2.91-2.91Z"/></g><g id="M2_S1" data-name="M2 S1"><path class="cls-16" d="M20.13,57.64a1.84,1.84,0,0,1-.9-.24,1.76,1.76,0,0,1-.86-1.29,1.83,1.83,0,0,1,.44-1.45,1.75,1.75,0,0,1,1.31-.59,1.84,1.84,0,0,1,.9.24,1.69,1.69,0,0,1,.86,1.28A1.83,1.83,0,0,1,21.44,57,1.74,1.74,0,0,1,20.13,57.64Z"/><path class="cls-15" d="M20.12,54.23h0a1.72,1.72,0,0,1,.82.21,1.58,1.58,0,0,1,.78,1.17,1.67,1.67,0,0,1-.4,1.33,1.6,1.6,0,0,1-1.19.54,1.74,1.74,0,0,1-.82-.22,1.59,1.59,0,0,1-.78-1.17,1.63,1.63,0,0,1,.4-1.32,1.58,1.58,0,0,1,1.19-.54m0-.32a2,2,0,0,0-1.91,2.22,1.88,1.88,0,0,0,.95,1.41,1.93,1.93,0,0,0,2.88-2,1.92,1.92,0,0,0-.94-1.42,2.1,2.1,0,0,0-1-.25Z"/></g><g id="M2_S1-2" data-name="M2 S1"><path class="cls-15" d="M20.12,54.27h0a1.62,1.62,0,0,1,.8.21,1.55,1.55,0,0,1,.76,1.14,1.66,1.66,0,0,1-.39,1.29,1.57,1.57,0,0,1-1.16.52,1.68,1.68,0,0,1-.8-.21,1.5,1.5,0,0,1-.75-1.13A1.63,1.63,0,0,1,19,54.8a1.54,1.54,0,0,1,1.16-.53m0-.36a2,2,0,0,0-1.91,2.22,1.88,1.88,0,0,0,.95,1.41,1.93,1.93,0,0,0,2.88-2,1.92,1.92,0,0,0-.94-1.42,2.1,2.1,0,0,0-1-.25Z"/></g></g></g><g id="Usine_ok_2" data-name="Usine ok 2"><path class="cls-17" d="M16.18,38.07a.52.52,0,0,1-.41-.21l-9-12.95a.51.51,0,0,1-.06-.45A.5.5,0,0,1,7,24.15l26.43-7,.13,0a.53.53,0,0,1,.29.1L48,27.57a.51.51,0,0,1-.15.88l-31.53,9.6Z"/><path class="cls-18" d="M33.59,17.63,47.7,28l-31.52,9.6-9-12.94,26.43-7m0-1a1.15,1.15,0,0,0-.26,0l-26.43,7a1,1,0,0,0-.56,1.53l9,12.94a1,1,0,0,0,.81.42,1,1,0,0,0,.29,0L48,28.92a1,1,0,0,0,.69-.78,1,1,0,0,0-.39-1L34.17,16.83a1,1,0,0,0-.58-.19Z"/><polygon class="cls-19" points="7.16 15.7 7.16 24.63 17.56 21.88 7.16 15.7"/><polygon class="cls-20" points="47.7 14.67 47.7 27.97 32.07 16.44 47.7 14.67"/><polygon class="cls-21" points="42.58 24.32 42.58 27.28 33.51 30.06 33.51 26.75 42.58 24.32"/><polygon class="cls-22" points="30.61 24.64 33.51 26.75 42.58 24.32 39.33 22.43 30.61 24.64"/><polygon class="cls-23" points="30.61 24.64 30.63 27.57 33.51 30.06 33.51 26.75 30.61 24.64"/><polygon class="cls-24" points="28.39 28.36 17.73 31.24 17.73 34.65 28.39 31.54 28.39 28.36"/><polygon class="cls-22" points="25.86 26.16 15.33 28.78 17.73 31.24 28.39 28.36 25.86 26.16"/><polygon class="cls-25" points="17.73 34.65 17.73 31.24 15.33 28.78 15.33 31.6 17.73 34.65"/><polygon class="cls-26" points="28.3 23.71 35.9 21.55 35.9 19.71 28.22 21.62 28.3 23.71"/><polygon class="cls-27" points="26.11 19.44 28.22 21.5 28.22 23.71 26.11 21.27 26.11 19.44"/><polygon class="cls-28" points="33.41 18.01 35.9 19.71 28.22 21.62 26.11 19.44 33.41 18.01"/><polygon class="cls-26" points="22.9 21.64 22.9 24.92 12.82 27.73 12.82 24.45 22.9 21.64"/><polygon class="cls-29" points="10.67 21.8 12.82 24.45 22.9 21.64 21.51 20.2 10.67 21.8"/><polygon class="cls-27" points="12.82 27.73 10.71 25.01 10.67 21.8 12.82 24.45 12.82 27.73"/><path class="cls-30" d="M38.14,21.42a.5.5,0,0,1-.37-.17l-9.63-11a.53.53,0,0,1-.12-.4.49.49,0,0,1,.22-.34l5.61-3.69a.5.5,0,0,1,.27-.08.5.5,0,0,1,.26.08L48,14.25a.49.49,0,0,1,.23.41.5.5,0,0,1-.22.42l-9.57,6.26A.45.45,0,0,1,38.14,21.42Z"/><path class="cls-18" d="M34.12,6.23,47.7,14.67l-9.56,6.26-9.62-11,5.6-3.68m0-1a1,1,0,0,0-.55.16L28,9.08a1,1,0,0,0-.2,1.48l9.62,11a1,1,0,0,0,.75.34,1,1,0,0,0,.54-.16l9.57-6.27a1,1,0,0,0,0-1.66L34.64,5.39a1,1,0,0,0-.52-.15Z"/><polygon class="cls-31" points="38.14 16.72 38.14 20.93 35.26 18.75 38.14 16.72"/><path class="cls-32" d="M27.7,24.29a.52.52,0,0,1-.4-.21L18.62,12.17a.49.49,0,0,1,.15-.72l6.67-4a.47.47,0,0,1,.25-.07.52.52,0,0,1,.29.09l12.45,8.82a.51.51,0,0,1,.21.41.53.53,0,0,1-.22.4L28,24.2A.47.47,0,0,1,27.7,24.29Z"/><path class="cls-18" d="M25.69,7.91l12.45,8.82L27.7,23.79,19,11.88l6.67-4m0-1a1,1,0,0,0-.5.14l-6.68,4a1,1,0,0,0-.46.65,1,1,0,0,0,.17.78L26.9,24.37a1,1,0,0,0,.8.41,1,1,0,0,0,.56-.17l10.43-7.06a1,1,0,0,0,0-1.62L26.27,7.11a1,1,0,0,0-.58-.19Z"/><polygon class="cls-33" points="27.7 19.52 27.7 23.79 24.93 21.27 27.7 19.52"/><path class="cls-34" d="M16.36,27.36a.53.53,0,0,1-.39-.18L6.78,16a.52.52,0,0,1-.11-.4.47.47,0,0,1,.22-.33l9.35-6a.56.56,0,0,1,.27-.08.46.46,0,0,1,.33.13L28,19.15a.49.49,0,0,1,.17.41.52.52,0,0,1-.23.38L16.63,27.28A.56.56,0,0,1,16.36,27.36Z"/><path class="cls-18" d="M16.51,9.65,27.7,19.52,16.36,26.86l-9.2-11.2,9.35-6m0-1a1,1,0,0,0-.54.15l-9.35,6a1,1,0,0,0-.44.68,1,1,0,0,0,.22.78l9.19,11.2a1,1,0,0,0,1.31.2l11.34-7.34a1,1,0,0,0,.12-1.57L17.17,8.9a1,1,0,0,0-.66-.24Z"/><path class="cls-35" d="M34.12,6.23,47.7,14.67V28L16.18,37.58l-9-12.95v-9l9.35-6L19,11.88l6.67-4,2.83,2,5.6-3.68m0-1a1,1,0,0,0-.55.16l-5,3.31L26.26,7.1a1,1,0,0,0-1.07,0l-6.05,3.6-2-1.75a1,1,0,0,0-.66-.25,1,1,0,0,0-.54.15l-9.35,6a1,1,0,0,0-.45.83v9a1.06,1.06,0,0,0,.17.57l9,13a1,1,0,0,0,.81.42,1,1,0,0,0,.29,0L48,28.92a1,1,0,0,0,.7-1V14.67a1,1,0,0,0-.46-.84L34.64,5.39a1,1,0,0,0-.52-.15Z"/></g><g id="LINK_ok_" data-name="LINK  ok ***"><polyline class="cls-36" points="44.32 39.88 38.83 39.88 38.8 28.85"/><polyline class="cls-36" points="44.32 53.88 37.83 53.88 37.83 44.81 24.23 32.56"/></g><g id="CHECK_ok_copy_2" data-name="CHECK ok *** copy 2"><polyline id="Activate" class="cls-37" points="42.11 51.47 48.17 57.66 57.87 47.83"/><polygon id="DeActivate" class="cls-38" points="48.05 51.32 44.62 47.83 42.54 49.98 48.17 55.72 57.42 46.35 55.17 44.05 48.05 51.32"/></g><g id="CHECK_ok_copy_3" data-name="CHECK ok *** copy 3"><polyline id="Activate-2" data-name="Activate" class="cls-37" points="42.11 37.47 48.17 43.66 57.87 33.83"/><polygon id="DeActivate-2" data-name="DeActivate" class="cls-38" points="48.05 37.32 44.62 33.83 42.54 35.98 48.17 41.72 57.42 32.35 55.17 30.05 48.05 37.32"/></g></svg>