<svg xmlns="http://www.w3.org/2000/svg" xmlns:xlink="http://www.w3.org/1999/xlink" width="64" height="64" viewBox="0 0 64 64">
  <defs>
    <linearGradient id="a" x1="24.1509" y1="24.1356" x2="45.0224" y2="43.2272" gradientUnits="userSpaceOnUse">
      <stop offset="0" stop-color="#f0f0f0"/>
      <stop offset="1" stop-color="#b3b3b3"/>
    </linearGradient>
    <linearGradient id="b" x1="35.3924" y1="37.199" x2="70.3968" y2="75.5773" xlink:href="#a"/>
    <linearGradient id="c" x1="7.2589" y1="7.768" x2="27.4168" y2="44.6609" xlink:href="#a"/>
    <linearGradient id="d" x1="25.8126" y1="24.0663" x2="51.7257" y2="43.8822" gradientUnits="userSpaceOnUse">
      <stop offset="0" stop-color="#92d5ee"/>
      <stop offset="0.4825" stop-color="#599bb4"/>
      <stop offset="1" stop-color="#185971"/>
    </linearGradient>
    <linearGradient id="e" x1="31.3928" y1="26.4518" x2="48.5155" y2="36.3993" xlink:href="#d"/>
    <linearGradient id="f" x1="7.6418" y1="3.9566" x2="40.9642" y2="51.9726" xlink:href="#d"/>
    <linearGradient id="g" x1="31.3928" y1="22.8688" x2="48.5155" y2="32.8163" xlink:href="#d"/>
    <linearGradient id="h" x1="30.5638" y1="21.2362" x2="35.4264" y2="30.1359" gradientUnits="userSpaceOnUse">
      <stop offset="0" stop-color="#00415f" stop-opacity="0.2"/>
      <stop offset="1" stop-color="#00415f"/>
    </linearGradient>
    <linearGradient id="i" x1="22.3255" y1="20.6532" x2="27.1881" y2="29.5529" xlink:href="#h"/>
    <linearGradient id="j" x1="38.8841" y1="16.6669" x2="43.7467" y2="25.5666" xlink:href="#h"/>
    <linearGradient id="k" x1="25.8126" y1="13.6913" x2="51.7257" y2="33.5072" xlink:href="#d"/>
    <linearGradient id="l" x1="31.3928" y1="16.0768" x2="48.5155" y2="26.0243" xlink:href="#d"/>
    <linearGradient id="m" x1="7.6418" y1="-6.4184" x2="40.9642" y2="41.5976" xlink:href="#d"/>
    <linearGradient id="n" x1="43.2629" y1="26.9867" x2="63.1974" y2="57.9414" gradientUnits="userSpaceOnUse">
      <stop offset="0" stop-color="#fff"/>
      <stop offset="1" stop-color="#bfbfbf"/>
    </linearGradient>
  </defs>
  <title>I_DELFIT_AP</title>
  <g>
    <polygon points="17.338 27.331 26.156 21.75 33.697 23.44 24.817 29.134 17.338 27.331" fill="url(#a)"/>
    <g>
      <path d="M33.6621,46.8975a.2526.2526,0,0,1-.1123-.0264.25.25,0,0,1-.1377-.2236v-8a.2484.2484,0,0,1,.1016-.2012l8-5.92a.25.25,0,0,1,.1484-.0489.2523.2523,0,0,1,.1123.0264.25.25,0,0,1,.1377.2236v8a.2484.2484,0,0,1-.1016.2012l-8,5.92A.25.25,0,0,1,33.6621,46.8975Z" fill="url(#b)"/>
      <path d="M41.6621,32.7276v8l-8,5.92v-8l8-5.92m0-.5a.5.5,0,0,0-.2975.098l-8,5.92a.5.5,0,0,0-.2026.4019v8a.5.5,0,0,0,.7974.402l8-5.92a.5.5,0,0,0,.2026-.4019v-8a.5.5,0,0,0-.5-.5Z" fill="#6d6d6d"/>
    </g>
    <polygon points="26.152 29.228 26.152 37.228 33.152 39.771 33.152 47.647 18.162 43.11 18.162 27.331 26.152 29.228" fill="url(#c)"/>
    <g>
      <polygon points="32.954 31.406 41.376 25.435 41.376 34.194 32.95 40.058 32.954 31.406" stroke="#00415f" stroke-linecap="round" stroke-linejoin="round" fill="url(#d)"/>
      <polygon points="24.817 29.421 33.697 23.728 41.328 25.435 32.954 31.406 24.817 29.421" stroke="#00415f" stroke-linecap="round" stroke-linejoin="round" fill="url(#e)"/>
      <polygon points="32.954 31.406 32.95 40.058 24.96 37.936 24.817 29.421 32.954 31.406" stroke="#00415f" stroke-linecap="round" stroke-linejoin="round" fill="url(#f)"/>
    </g>
    <path d="M26.3174,20.8565l8.0107,1.58,6.958,1.542.042,8.8252-.16,7.89-8.0616,6.3145L18.1621,42.11V26.3311l8.1553-5.4746m-.2132-1.0614-.3442.2311-8.1553,5.4746-.4426.2971V42.835l.6886.2256L32.795,47.9581l.5075.1664.42-.3294,8.0616-6.3145.3736-.2926.01-.4744.16-7.89-.0418-8.85-.0038-.7987-.78-.1729-6.958-1.542-8.0336-1.5848-.4067-.08Z" fill="#343434"/>
    <line x1="17.4971" y1="27.2285" x2="24.8174" y2="29.1339" fill="none" stroke="#6d6d6d" stroke-linecap="round" stroke-linejoin="round"/>
    <g opacity="0.5">
      <polygon points="24.817 25.838 33.697 20.145 41.328 21.852 32.954 27.823 24.817 25.838" stroke="#00415f" stroke-linecap="round" stroke-linejoin="round" fill="url(#g)"/>
    </g>
    <line x1="32.9951" y1="30.8945" x2="32.9951" y2="20.4775" fill="none" stroke-linecap="round" stroke-linejoin="round" stroke="url(#h)"/>
    <line x1="24.7568" y1="30.3116" x2="24.7568" y2="19.8945" fill="none" stroke-linecap="round" stroke-linejoin="round" stroke="url(#i)"/>
    <line x1="41.3154" y1="26.3252" x2="41.3154" y2="15.9083" fill="none" stroke-linecap="round" stroke-linejoin="round" stroke="url(#j)"/>
    <g opacity="0.3">
      <polygon points="32.954 21.031 41.376 15.06 41.376 23.819 32.95 29.683 32.954 21.031" stroke="#00415f" stroke-linecap="round" stroke-linejoin="round" fill="url(#k)"/>
      <polygon points="24.817 19.046 33.697 13.353 41.328 15.06 32.954 21.031 24.817 19.046" stroke="#00415f" stroke-linecap="round" stroke-linejoin="round" fill="url(#l)"/>
      <polygon points="32.954 21.031 32.95 29.683 24.96 27.561 24.817 19.046 32.954 21.031" stroke="#00415f" stroke-linecap="round" stroke-linejoin="round" fill="url(#m)"/>
    </g>
    <g>
      <g>
        <polygon points="44.5 43.693 44.5 27.809 57.5 34.309 57.5 50.282 44.5 43.693" fill="url(#n)"/>
        <path d="M45,28.618l12,6V49.4686L45,43.3858V28.618M44,27V44l14,7.0967V34L44,27Z" fill="#2d2d2d"/>
      </g>
      <polygon points="48.5 34.5 48.5 42.5 54.351 38.717 48.5 34.5" fill="#2d2d2d"/>
    </g>
    <g>
      <g>
        <rect x="6.8096" y="16.8096" width="9.3809" height="8.3809" rx="2.6904" fill="#fff"/>
        <path d="M13.5,17.119A2.3837,2.3837,0,0,1,15.881,19.5v3A2.3837,2.3837,0,0,1,13.5,24.881h-4A2.3837,2.3837,0,0,1,7.119,22.5v-3A2.3837,2.3837,0,0,1,9.5,17.119h4m0-.619h-4a3.0088,3.0088,0,0,0-3,3v3a3.0088,3.0088,0,0,0,3,3h4a3.0088,3.0088,0,0,0,3-3v-3a3.0088,3.0088,0,0,0-3-3Z" fill="#2d2d2d"/>
      </g>
      <g>
        <rect x="6.8096" y="26.8096" width="9.3809" height="9.3809" rx="2.6904" fill="#fff"/>
        <path d="M13.5,27.119A2.3837,2.3837,0,0,1,15.881,29.5v4A2.3837,2.3837,0,0,1,13.5,35.881h-4A2.3837,2.3837,0,0,1,7.119,33.5v-4A2.3837,2.3837,0,0,1,9.5,27.119h4m0-.619h-4a3.0088,3.0088,0,0,0-3,3v4a3.0088,3.0088,0,0,0,3,3h4a3.0088,3.0088,0,0,0,3-3v-4a3.0088,3.0088,0,0,0-3-3Z" fill="#2d2d2d"/>
      </g>
      <g>
        <path d="M9.5016,37.81H13.5a2.69,2.69,0,0,1,2.69,2.69v4a2.69,2.69,0,0,1-2.69,2.69H9.501a2.69,2.69,0,0,1-2.69-2.69V40.5007A2.6911,2.6911,0,0,1,9.5016,37.81Z" fill="#fff"/>
        <path d="M13.5,38.119A2.3837,2.3837,0,0,1,15.881,40.5v4A2.3837,2.3837,0,0,1,13.5,46.881H9.502A2.3844,2.3844,0,0,1,7.12,44.5l-.0008-4A2.3891,2.3891,0,0,1,9.5,38.119h4m0-.619h-4a3.0081,3.0081,0,0,0-2.9994,3l.0008,4a3.01,3.01,0,0,0,3.0006,3H13.5a3.0088,3.0088,0,0,0,3-3v-4a3.0088,3.0088,0,0,0-3-3Z" fill="#2d2d2d"/>
      </g>
      <polyline points="8 20.478 10 23.478 15 18.478" fill="none" stroke="#15689c" stroke-miterlimit="10"/>
      <line x1="8.5" y1="28.5" x2="14.5" y2="34.5" fill="none" stroke="#15689c" stroke-miterlimit="10"/>
      <line x1="14.5" y1="28.5" x2="8.5" y2="34.5" fill="none" stroke="#15689c" stroke-miterlimit="10"/>
    </g>
  </g>
</svg>
