<svg id="_1_X_ok_copy" data-name="1 X   ok copy" xmlns="http://www.w3.org/2000/svg" xmlns:xlink="http://www.w3.org/1999/xlink" viewBox="0 0 64 64"><defs><style>.cls-1,.cls-16{stroke:#2d2d2d;}.cls-1,.cls-21,.cls-22,.cls-23,.cls-9{stroke-linecap:round;stroke-linejoin:round;}.cls-1{fill:url(#linear-gradient);}.cls-2{opacity:0.9;}.cls-3{fill:url(#linear-gradient-2);}.cls-4,.cls-7{fill:#343434;}.cls-5{fill:url(#linear-gradient-3);}.cls-6{fill:url(#linear-gradient-4);}.cls-7{opacity:0.7;}.cls-8{fill:#fff;}.cls-12,.cls-21,.cls-22,.cls-23,.cls-9{stroke:#00415f;}.cls-9{fill:url(#linear-gradient-5);}.cls-10{fill:url(#linear-gradient-6);}.cls-11{fill:#6d6d6d;}.cls-12,.cls-16,.cls-20,.cls-24{stroke-miterlimit:10;}.cls-12{fill:url(#linear-gradient-7);}.cls-13{fill:url(#linear-gradient-8);}.cls-14{fill:url(#linear-gradient-9);}.cls-15{fill:#2d2d2d;}.cls-16,.cls-20,.cls-24{fill:none;}.cls-16{stroke-width:0.68px;}.cls-17{fill:url(#linear-gradient-10);}.cls-18{fill:url(#linear-gradient-11);}.cls-19{fill:url(#linear-gradient-12);}.cls-20{stroke:#818182;stroke-width:0.64px;}.cls-21,.cls-22,.cls-23{stroke-width:0.75px;}.cls-21{fill:url(#linear-gradient-13);}.cls-22{fill:url(#linear-gradient-14);}.cls-23{fill:url(#linear-gradient-15);}.cls-24{stroke:#343434;}</style><linearGradient id="linear-gradient" x1="40.34" y1="18.28" x2="64.51" y2="55.81" gradientUnits="userSpaceOnUse"><stop offset="0" stop-color="#fff"/><stop offset="1" stop-color="#bfbfbf"/></linearGradient><linearGradient id="linear-gradient-2" x1="45.9" y1="222.67" x2="55.16" y2="231.49" gradientTransform="matrix(1, 0.4, 0, 1, 0, -218.59)" gradientUnits="userSpaceOnUse"><stop offset="0" stop-color="#f0f0f0"/><stop offset="1" stop-color="#b3b3b3"/></linearGradient><linearGradient id="linear-gradient-3" x1="40.35" y1="232.2" x2="49.62" y2="241.02" xlink:href="#linear-gradient-2"/><linearGradient id="linear-gradient-4" x1="46.11" y1="230.07" x2="55.37" y2="238.88" xlink:href="#linear-gradient-2"/><linearGradient id="linear-gradient-5" x1="10.42" y1="34.7" x2="17.51" y2="34.7" gradientUnits="userSpaceOnUse"><stop offset="0" stop-color="#83d2ea"/><stop offset="0.55" stop-color="#5199b0"/><stop offset="1" stop-color="#25667d"/></linearGradient><linearGradient id="linear-gradient-6" x1="12.5" y1="26.09" x2="15.39" y2="26.09" gradientUnits="userSpaceOnUse"><stop offset="0.1" stop-color="#575757"/><stop offset="0.5" stop-color="#c4c4c4"/><stop offset="1" stop-color="#fff"/></linearGradient><linearGradient id="linear-gradient-7" x1="10.43" y1="35.48" x2="17.51" y2="35.48" gradientUnits="userSpaceOnUse"><stop offset="0.1" stop-color="#195a72"/><stop offset="0.5" stop-color="#5a9cb5"/><stop offset="1" stop-color="#93d2f0"/></linearGradient><linearGradient id="linear-gradient-8" x1="4.71" y1="21.44" x2="20.5" y2="21.44" xlink:href="#linear-gradient-6"/><linearGradient id="linear-gradient-9" x1="3.07" y1="25.86" x2="19.02" y2="12.37" xlink:href="#linear-gradient-6"/><linearGradient id="linear-gradient-10" x1="25.3" y1="33.96" x2="43.31" y2="50.43" gradientTransform="matrix(1, 0, 0, 1, 0, 0)" xlink:href="#linear-gradient-2"/><linearGradient id="linear-gradient-11" x1="33.89" y1="45.5" x2="65.39" y2="80.04" gradientTransform="matrix(1, 0, 0, 1, 0, 0)" xlink:href="#linear-gradient-2"/><linearGradient id="linear-gradient-12" x1="10.45" y1="20.25" x2="27.24" y2="50.98" gradientTransform="matrix(1, 0, 0, 1, 0, 0)" xlink:href="#linear-gradient-2"/><linearGradient id="linear-gradient-13" x1="26.97" y1="34.14" x2="47.55" y2="49.88" gradientUnits="userSpaceOnUse"><stop offset="0" stop-color="#92d5ee"/><stop offset="0.48" stop-color="#599bb4"/><stop offset="1" stop-color="#185971"/></linearGradient><linearGradient id="linear-gradient-14" x1="12.44" y1="18.22" x2="38.93" y2="56.39" xlink:href="#linear-gradient-13"/><linearGradient id="linear-gradient-15" x1="31.5" y1="35.98" x2="45.22" y2="43.94" xlink:href="#linear-gradient-13"/></defs><title>16761_A33AAe__R21XArtboard 1</title><polygon class="cls-1" points="41.5 39.5 57.5 46.6 57.5 25.5 41.5 19.5 41.5 39.5"/><g class="cls-2"><polygon class="cls-3" points="47.5 28.16 47.5 25.24 51.5 26.86 51.5 29.78 47.5 28.16"/><path class="cls-4" d="M48,26l3,1.21V29l-3-1.21V26M47,24.5v4l5,2v-4l-5-2Z"/><polygon class="cls-5" points="43.5 37.55 43.5 34.63 47.5 36.24 47.5 39.16 43.5 37.55"/><path class="cls-4" d="M44,35.37l3,1.21v1.84l-3-1.21V35.37m-1-1.49v4l5,2v-4l-5-2Z"/><polygon class="cls-6" points="51.5 40.78 51.5 37.86 55.5 39.47 55.5 42.4 51.5 40.78"/><path class="cls-4" d="M52,38.6l3,1.21v1.84l-3-1.21V38.6m-1-1.48v4l5,2v-4l-5-2Z"/><polygon class="cls-7" points="53 35.92 50 34.71 50 32.71 52 33.52 52 32.52 51 32.12 51 31.12 50 30.71 50 28.71 49 28.31 49 30.31 48 29.9 48 30.9 47 30.5 47 31.5 49 32.31 49 34.31 46 33.1 45 32.69 45 34.69 46 35.1 46 34.1 53 36.92 53 37.92 54 38.33 54 36.33 53 35.92"/></g><g id="DRILL"><path class="cls-8" d="M10.39,28.56C10.39,27.56,12,27,14,27s3.55.57,3.55,1.57S16,30.47,14,30.47,10.39,29.55,10.39,28.56Z"/><path class="cls-9" d="M17.51,28.56C17.51,27.56,16,27,14,27s-3.53.57-3.53,1.57V38.87c0,.07,0-.08,0,0a3.63,3.63,0,0,0,3,3.5,2,2,0,0,0,.42,0,2,2,0,0,0,.43,0A3.57,3.57,0,0,0,17.48,39a1,1,0,0,0,0-.22Z"/><path class="cls-10" d="M13.89,28.65c-.9,0-1.39-.34-1.39-.58s0-3.29,0-4.55l2.87.11V28C15.39,28.15,14.87,28.65,13.89,28.65Z"/><path class="cls-11" d="M13,24l1.87.07v3.73a1.46,1.46,0,0,1-1,.31A1.61,1.61,0,0,1,13,28c0-.53,0-2.62,0-3.91m-1-1s0,4.89,0,5.07c0,.58.73,1.08,1.89,1.08s2-.62,2-1.2v-4.8L12,23Z"/><path class="cls-12" d="M14,30.47c-2,0-3.57-.92-3.57-1.91V38.87a3.42,3.42,0,0,0,3.46,3.54,3.62,3.62,0,0,0,3.62-3.61V28.56C17.51,29.55,16,30.47,14,30.47Z"/><path class="cls-13" d="M13.89,24.55c-3.82,0-6.39-1.55-6.39-3V18.32h13v3.23C20.5,23.15,17.41,24.55,13.89,24.55Z"/><path class="cls-11" d="M20,18.82v2.73c0,1-2.38,2.5-6.11,2.5S8,22.59,8,21.55V18.82H20m1-1H7v3.73c0,1.93,3,3.5,6.89,3.5S21,23.48,21,21.55V17.82Z"/><path class="cls-14" d="M13.89,20.82c-3.82,0-6.39-1.55-6.39-3A1.57,1.57,0,0,1,7.81,17l.1-.14,4.91-6.6a1.59,1.59,0,0,1,1.07-.3,1.57,1.57,0,0,1,1.07.3l.15.2h0l5,6.47,0,.07a1.57,1.57,0,0,1,.31.87C20.5,19.42,17.41,20.82,13.89,20.82Z"/><path class="cls-11" d="M13.89,10.41a1.48,1.48,0,0,1,.7.14l.28.36h0l4.82,6.22.08.11a1,1,0,0,1,.22.58c0,1-2.38,2.5-6.11,2.5S8,18.87,8,17.82a1.06,1.06,0,0,1,.22-.59l.15-.2,4.55-6.12h0l.28-.36a1.46,1.46,0,0,1,.69-.14m0-1a1.93,1.93,0,0,0-1.47.5h0l-5,6.74h0A2,2,0,0,0,7,17.82c0,1.94,3,3.5,6.89,3.5S21,19.76,21,17.82a2,2,0,0,0-.41-1.16h0L15.37,9.91h0a2,2,0,0,0-1.48-.5Z"/><path class="cls-15" d="M13.89,10.41a1.48,1.48,0,0,1,.7.14l.28.36h0l4.82,6.22.08.11a1,1,0,0,1,.22.58v3.73c0,.86-1.55,2-4.15,2.36L15,24v3.77a1.77,1.77,0,0,1-1.11.34,1.21,1.21,0,0,1-.89-.28V24l-.85-.13C9.55,23.53,8,22.41,8,21.55V17.82a1.06,1.06,0,0,1,.22-.59l.15-.2,4.55-6.12h0l.28-.36a1.46,1.46,0,0,1,.69-.14m0-1a1.93,1.93,0,0,0-1.47.5h0l-5,6.74h0A2,2,0,0,0,7,17.82v3.73c0,1.58,2.11,2.92,5,3.35V28c0,.58.73,1.2,1.89,1.2S16,28.53,16,28V24.9c2.89-.43,5-1.77,5-3.35V17.82a2,2,0,0,0-.41-1.16h0L15.37,9.91h0a2,2,0,0,0-1.48-.5Z"/><line class="cls-16" x1="13.89" y1="10.15" x2="17.45" y2="17.6"/><path class="cls-15" d="M13.89,9.41c-.81,0-1.47.33-1.47.74s.66.73,1.47.73,1.48-.33,1.48-.73-.66-.74-1.48-.74Z"/></g><polygon class="cls-17" points="19.52 36.61 26.89 31.95 33.44 33.46 26.23 38.37 19.52 36.61"/><path class="cls-18" d="M32.79,53.8a2.34,2.34,0,0,1-.38,0c-.11-.06-.41-.17-.41-.29V46.84c0-.1.28-.2.37-.26l6.8-4.84a.55.55,0,0,1,.25-.07.47.47,0,0,1,.17,0,.32.32,0,0,1,.19.28l0,6.59a.29.29,0,0,1-.13.26L33,53.74A.3.3,0,0,1,32.79,53.8Z"/><path class="cls-11" d="M39.59,42l.07,6.59L33,53.48V46.84L39.59,42m-.11-.64a.67.67,0,0,0-.38.13l-6.76,4.84a.73.73,0,0,0-.34.52v6.64a.72.72,0,0,0,.42.57.75.75,0,0,0,.33.07.75.75,0,0,0,.4-.12l6.72-4.9a.65.65,0,0,0,.26-.52V42a.65.65,0,0,0-.35-.57.73.73,0,0,0-.29-.07Z"/><polygon class="cls-19" points="26 38.37 26 45.21 32 46.94 32 53.48 19.57 49.68 19.41 36.61 26 38.37"/><line class="cls-20" x1="19.52" y1="36.61" x2="26.23" y2="38.37"/><polygon class="cls-21" points="32.55 40.09 39.47 35.15 39.48 41.99 32.52 46.94 32.55 40.09"/><polygon class="cls-22" points="32.55 40.09 32.52 46.94 26.23 45.21 26.23 38.37 32.55 40.09"/><polygon class="cls-23" points="26.23 38.37 33.44 33.46 39.47 35.15 32.55 40.09 26.23 38.37"/><polygon class="cls-24" points="33.44 33.46 26.89 31.95 19.52 36.61 19.55 49.68 32.6 53.78 39.5 48.58 39.48 41.99 39.5 34.81 33.44 33.46"/></svg>