<svg id="_64" data-name="64" xmlns="http://www.w3.org/2000/svg" xmlns:xlink="http://www.w3.org/1999/xlink" viewBox="0 0 64 64"><defs><style>.cls-1,.cls-2,.cls-22,.cls-3,.cls-4{fill:none;}.cls-2,.cls-21,.cls-22,.cls-27,.cls-3,.cls-32,.cls-4{stroke:#003755;}.cls-18,.cls-2,.cls-21,.cls-22,.cls-24,.cls-27,.cls-29,.cls-3,.cls-32,.cls-4{stroke-miterlimit:10;}.cls-2,.cls-22,.cls-3,.cls-4{stroke-width:0.5px;}.cls-2{clip-path:url(#clip-path);}.cls-3{clip-path:url(#clip-path-2);}.cls-4{clip-path:url(#clip-path-3);}.cls-5{clip-path:url(#clip-path-4);}.cls-6{fill:#f1f0f0;}.cls-7{fill:#323232;}.cls-8{fill:#e1e1e1;}.cls-9{fill:#053755;}.cls-10{fill:url(#linear-gradient);}.cls-11{fill:#2d6d8b;}.cls-12{fill:#797979;}.cls-13,.cls-16{fill:#003755;}.cls-14{fill:#fff;}.cls-15{clip-path:url(#clip-path-5);}.cls-16,.cls-17{font-size:6.48px;font-family:MyriadPro-Regular, Myriad Pro;}.cls-17{fill:#000037;}.cls-18,.cls-24,.cls-29{stroke:#797979;stroke-width:0.21px;}.cls-18{fill:url(#white_left);}.cls-19{clip-path:url(#clip-path-6);}.cls-20{clip-path:url(#clip-path-7);}.cls-21,.cls-27,.cls-32{stroke-width:0.52px;}.cls-21{fill:url(#SKETCH_BLUE_gradient);}.cls-23{clip-path:url(#clip-path-8);}.cls-24{fill:url(#white_left-2);}.cls-25{clip-path:url(#clip-path-9);}.cls-26{clip-path:url(#clip-path-10);}.cls-27{fill:url(#SKETCH_BLUE_gradient-2);}.cls-28{clip-path:url(#clip-path-11);}.cls-29{fill:url(#white_left-3);}.cls-30{clip-path:url(#clip-path-12);}.cls-31{clip-path:url(#clip-path-13);}.cls-32{fill:url(#SKETCH_BLUE_gradient-3);}</style><clipPath id="clip-path"><path class="cls-1" d="M47.85,39.29a7.22,7.22,0,1,0,7.22,7.22A7.21,7.21,0,0,0,47.85,39.29Zm0,11.89a4.68,4.68,0,1,1,4.68-4.68A4.67,4.67,0,0,1,47.85,51.18Z"/></clipPath><clipPath id="clip-path-2"><path class="cls-1" d="M15.85,39.58a7.21,7.21,0,1,0,7.22,7.21A7.21,7.21,0,0,0,15.85,39.58Zm0,11.9a4.68,4.68,0,1,1,4.68-4.69A4.69,4.69,0,0,1,15.85,51.48Z"/></clipPath><clipPath id="clip-path-3"><path class="cls-1" d="M31.85,39.29a7.22,7.22,0,1,0,7.22,7.22A7.21,7.21,0,0,0,31.85,39.29Zm0,12.17a5,5,0,1,1,5-5A5,5,0,0,1,31.85,51.46Z"/></clipPath><clipPath id="clip-path-4"><path class="cls-1" d="M6,55V10H58V45H56s-.19-7.29-9-7.29V55Z"/></clipPath><linearGradient id="linear-gradient" x1="32" y1="12" x2="32" y2="16" gradientUnits="userSpaceOnUse"><stop offset="0" stop-color="#8cd7f5"/><stop offset="0.2" stop-color="#7fc7e5"/><stop offset="0.59" stop-color="#5e9fbd"/><stop offset="1" stop-color="#376e8c"/></linearGradient><clipPath id="clip-path-5"><path class="cls-1" d="M15.6,44.48v.38l-1.84,3.83h-.59L15,45v0H12.94v-.47Zm3.1.48H17.09L16.93,46l.35,0a1.82,1.82,0,0,1,.9.22,1.21,1.21,0,0,1,.61,1.09,1.47,1.47,0,0,1-1.57,1.44,2.06,2.06,0,0,1-1-.26l.14-.44a1.83,1.83,0,0,0,.9.24.93.93,0,0,0,1-.92c0-.54-.37-.93-1.21-.93a4.55,4.55,0,0,0-.59,0l.28-2h2Z"/></clipPath><linearGradient id="white_left" x1="8.64" y1="46.79" x2="23.07" y2="46.79" gradientUnits="userSpaceOnUse"><stop offset="0" stop-color="#f5f5f5"/><stop offset="1" stop-color="#bebebe"/></linearGradient><clipPath id="clip-path-6"><polygon class="cls-1" points="16 37 16 48 8 46 8 55 23.51 55 23.51 37 16 37"/></clipPath><clipPath id="clip-path-7"><path class="cls-3" d="M15.85,39.58a7.21,7.21,0,1,0,7.22,7.21A7.21,7.21,0,0,0,15.85,39.58Zm0,11.9a4.68,4.68,0,1,1,4.68-4.69A4.69,4.69,0,0,1,15.85,51.48Z"/></clipPath><linearGradient id="SKETCH_BLUE_gradient" x1="8.64" y1="46.79" x2="23.07" y2="46.79" gradientUnits="userSpaceOnUse"><stop offset="0" stop-color="#3287af"/><stop offset="1" stop-color="#285a78"/></linearGradient><clipPath id="clip-path-8"><path class="cls-1" d="M29,47.62a1.2,1.2,0,0,1,.84-1.12v0a1.05,1.05,0,0,1-.66-.95,1.17,1.17,0,0,1,1.3-1.12,1.09,1.09,0,0,1,1.23,1,1.08,1.08,0,0,1-.7,1v0a1.17,1.17,0,0,1,.85,1.09,1.3,1.3,0,0,1-1.43,1.23C29.52,48.77,29,48.24,29,47.62Zm2.27,0c0-.51-.35-.76-.92-.92a.9.9,0,0,0-.76.87.78.78,0,0,0,.84.8A.76.76,0,0,0,31.25,47.6Zm-1.57-2.11c0,.42.32.65.81.78a.83.83,0,0,0,.64-.77.65.65,0,0,0-.71-.68A.67.67,0,0,0,29.68,45.49ZM33.6,45h0l-.74.4L32.74,45l.92-.49h.49v4.21H33.6Z"/></clipPath><linearGradient id="white_left-2" x1="24.64" y1="46.5" x2="39.07" y2="46.5" xlink:href="#white_left"/><clipPath id="clip-path-9"><polygon class="cls-1" points="39.82 54 39.82 37 32 37 32 46 24 44 24 54 39.82 54"/></clipPath><clipPath id="clip-path-10"><path class="cls-4" d="M31.85,39.29a7.22,7.22,0,1,0,7.22,7.22A7.21,7.21,0,0,0,31.85,39.29Zm0,12.17a5,5,0,1,1,5-5A5,5,0,0,1,31.85,51.46Z"/></clipPath><linearGradient id="SKETCH_BLUE_gradient-2" x1="24.64" y1="46.5" x2="39.07" y2="46.5" xlink:href="#SKETCH_BLUE_gradient"/><clipPath id="clip-path-11"><path class="cls-1" d="M45.19,48.29a1.88,1.88,0,0,0,.46,0,1.56,1.56,0,0,0,.89-.41,1.83,1.83,0,0,0,.55-1.12h0a1.26,1.26,0,0,1-2.23-.83,1.44,1.44,0,0,1,1.44-1.5c.86,0,1.39.7,1.39,1.77a2.64,2.64,0,0,1-.73,2,2.13,2.13,0,0,1-1.22.57,2.59,2.59,0,0,1-.53,0Zm.21-2.42a.81.81,0,0,0,.81.89,1,1,0,0,0,.83-.44.41.41,0,0,0,.05-.21c0-.72-.26-1.27-.86-1.27S45.4,45.27,45.4,45.87ZM50.7,45H49.09L48.93,46l.35,0a1.82,1.82,0,0,1,.9.22,1.21,1.21,0,0,1,.61,1.09,1.47,1.47,0,0,1-1.57,1.44,2.06,2.06,0,0,1-1-.26l.14-.44a1.83,1.83,0,0,0,.9.24.93.93,0,0,0,1-.92c0-.54-.37-.93-1.21-.93a4.55,4.55,0,0,0-.59,0l.28-2h2Z"/></clipPath><linearGradient id="white_left-3" x1="40.64" y1="46.5" x2="55.07" y2="46.5" xlink:href="#white_left"/><clipPath id="clip-path-12"><polygon class="cls-1" points="40 55 40 40 48 47 48 38 55.82 38 55.82 55 40 55"/></clipPath><clipPath id="clip-path-13"><path class="cls-2" d="M47.85,39.29a7.22,7.22,0,1,0,7.22,7.22A7.21,7.21,0,0,0,47.85,39.29Zm0,11.89a4.68,4.68,0,1,1,4.68-4.68A4.67,4.67,0,0,1,47.85,51.18Z"/></clipPath><linearGradient id="SKETCH_BLUE_gradient-3" x1="40.64" y1="46.5" x2="55.07" y2="46.5" xlink:href="#SKETCH_BLUE_gradient"/></defs><title>1697_A33AAe__R21XArtboard 1</title><g id="plannificatoion_support_position_3_copy_4" data-name="plannificatoion  support *** position 3 copy 4"><g class="cls-5"><g id="tableau"><g id="ok"><rect class="cls-6" x="8" y="12" width="48" height="31"/><path class="cls-7" d="M56,12V43H8V12H56M8,11a.9.9,0,0,0-1,1V43a1.09,1.09,0,0,0,1.06,1h48A1,1,0,0,0,57,43V12a1,1,0,0,0-1-1Z"/></g><path class="cls-8" d="M43,19H42v3H40V19H39v3H37V19H36v3H34V19H33v3H31V19H30v3H28V19H27v3H25V19H24v3H22V19H21v3H19V19H18v3H16V19H15v3H13V19H12v3H10v1h2v2H10v1h2v2H10v1h2v2H10v1h2v2H10v1h2v2H10v1h2v2H10v1H43Zm-3,6V23h2v2H40Zm0,1h2v2H40Zm0,5V29h2v2H40Zm0,6V35h2v2ZM37,25V23h2v2H37Zm0,1h2v2H37Zm0,5V29h2v2H37Zm0,1h2v2H37Zm0,5V35h2v2ZM34,23h2v2H34Zm0,3h2v2H34Zm0,3h2v2H34Zm0,3h2v2H34Zm0,5V35h2v2ZM31,23h2v2H31Zm0,3h2v2H31Zm0,3h2v2H31Zm0,3h2v2H31Zm0,5V35h2v2ZM28,25V23h2v2H28Zm0,1h2v2H28Zm0,5V29h2v2H28Zm0,1h2v2H28Zm0,5V35h2v2ZM25,25V23h2v2H25Zm0,1h2v2H25Zm0,5V29h2v2H25Zm0,1h2v2H25Zm0,5V35h2v2ZM22,23h2v2H22Zm0,3h2v2H22Zm0,3h2v2H22Zm0,3h2v2H22Zm0,3h2v2H22ZM19,25V23h2v2H19Zm0,1h2v2H19Zm0,5V29h2v2H19Zm0,1h2v2H19Zm0,5V35h2v2ZM16,25V23h2v2H16Zm0,1h2v2H16Zm0,5V29h2v2H16Zm0,1h2v2H16Zm0,5V35h2v2ZM13,25V23h2v2H13Zm0,1h2v2H13Zm0,5V29h2v2H13Zm0,1h2v2H13Zm0,5V35h2v2Zm0,3V38h2v2Zm3,0V38h2v2Zm3,0V38h2v2Zm3,0V38h2v2Zm3,0V38h2v2Zm3,0V38h2v2Zm3,0V38h2v2Zm3,0V38h2v2Zm3,0V38h2v2Zm3,0V38h2v2Zm0-6V32h2v2Z"/><path class="cls-8" d="M42,40H10V20H42Zm1-21H9V41H43Z"/><path id="_" data-name="**" class="cls-9" d="M57,12a1,1,0,0,0-1-1H8a1,1,0,0,0-1,1v5H57Zm-1,4H8V12H56Z"/><rect class="cls-10" x="8" y="12" width="47.99" height="4"/></g><g id="TRIANGLE_fl_" data-name="TRIANGLE fl   ***"><path class="cls-11" d="M53,35v6l-5-3Zm-8-4,5,3V28Zm3-8,5,3V20Z"/></g><g id="TRIANGLE_fl_2" data-name="TRIANGLE fl   ***"><path class="cls-11" d="M53,35v6l-5-3Zm-8-4,5,3V28Zm3-8,5,3V20Z"/></g><path id="SEPA_bottom_2_" data-name="SEPA bottom 2 ***" class="cls-12" d="M25,41H24V33h1Zm9-1H33v1h1Zm9-2H42v3h1Z"/><path id="SEPA_top_1_" data-name="SEPA top 1   ***" class="cls-12" d="M25,28H24V20h1Zm9-8H33V34h1Zm9,0H42V38h1Z"/><path id="L1-3_" data-name="L1-3   ***" class="cls-13" d="M42,38H21V35H42ZM20,35H9v3H20Zm22-3H35V29h7Zm-8-3H15v3H34ZM14,29H9v3h5Zm10-3H9V23H24Zm18-3H26v3H42Z"/></g></g><g id="camenbert_R3_REPRIS_OK_copy_2" data-name="camenbert R3 REPRIS  OK *** copy 2"><g id="ok_G_" data-name="ok G  ***"><path id="c_BLANC" data-name="c BLANC" class="cls-14" d="M15.85,42.12a4.68,4.68,0,1,0,4.68,4.67A4.68,4.68,0,0,0,15.85,42.12Z"/><g class="cls-15"><text class="cls-16" transform="translate(12.57 48.69)">75</text><text class="cls-17" transform="translate(12.57 48.69)">75</text></g><path id="cercle_" data-name="cercle ***" class="cls-18" d="M15.85,39.58a7.21,7.21,0,1,0,7.22,7.22A7.21,7.21,0,0,0,15.85,39.58Zm0,11.9a4.68,4.68,0,1,1,4.68-4.69A4.68,4.68,0,0,1,15.85,51.48Z"/><g id="C3_" data-name="C3 ****"><g class="cls-19"><g class="cls-20"><path class="cls-21" d="M15.85,39.58a7.21,7.21,0,1,0,7.22,7.21A7.21,7.21,0,0,0,15.85,39.58Zm0,11.9a4.68,4.68,0,1,1,4.68-4.69A4.69,4.69,0,0,1,15.85,51.48Z"/></g><path class="cls-22" d="M15.85,39.58a7.21,7.21,0,1,0,7.22,7.21A7.21,7.21,0,0,0,15.85,39.58Zm0,11.9a4.68,4.68,0,1,1,4.68-4.69A4.69,4.69,0,0,1,15.85,51.48Z"/></g></g></g><g id="ok_M_ok_" data-name="ok  M   ok    ***"><circle id="cercle_Blanc" data-name="cercle Blanc" class="cls-14" cx="31.86" cy="46.5" r="4.95"/><g class="cls-23"><text class="cls-16" transform="translate(28.74 48.69)">81</text><text class="cls-16" transform="translate(28.74 48.69)">81</text></g><path id="cercle_2" data-name="cercle ***" class="cls-24" d="M31.85,39.29a7.22,7.22,0,1,0,7.22,7.22A7.21,7.21,0,0,0,31.85,39.29Zm0,12.17a5,5,0,1,1,5-5A5,5,0,0,1,31.85,51.46Z"/><g id="C3_2" data-name="C3 ****"><g class="cls-25"><g class="cls-26"><path class="cls-27" d="M31.85,39.29a7.22,7.22,0,1,0,7.22,7.22A7.21,7.21,0,0,0,31.85,39.29Zm0,12.17a5,5,0,1,1,5-5A5,5,0,0,1,31.85,51.46Z"/></g><path class="cls-22" d="M31.85,39.29a7.22,7.22,0,1,0,7.22,7.22A7.21,7.21,0,0,0,31.85,39.29Zm0,12.17a5,5,0,1,1,5-5A5,5,0,0,1,31.85,51.46Z"/></g></g></g><g id="ok_D_95" data-name="ok  D   95"><g id="non"><circle id="cercle_Blanc-2" data-name="cercle Blanc" class="cls-14" cx="47.86" cy="46.5" r="4.67"/><g class="cls-28"><text class="cls-16" transform="translate(44.57 48.69)">95</text><text class="cls-16" transform="translate(44.56 48.69)">95</text></g></g><path id="cercle_3" data-name="cercle ***" class="cls-29" d="M47.85,39.29a7.22,7.22,0,1,0,7.22,7.22A7.21,7.21,0,0,0,47.85,39.29Zm0,11.89a4.68,4.68,0,1,1,4.68-4.68A4.67,4.67,0,0,1,47.85,51.18Z"/><g id="C3_3" data-name="C3 ****"><g class="cls-30"><g class="cls-31"><path class="cls-32" d="M47.85,39.29a7.22,7.22,0,1,0,7.22,7.22A7.21,7.21,0,0,0,47.85,39.29Zm0,11.89a4.68,4.68,0,1,1,4.68-4.68A4.67,4.67,0,0,1,47.85,51.18Z"/></g><path class="cls-22" d="M47.85,39.29a7.22,7.22,0,1,0,7.22,7.22A7.21,7.21,0,0,0,47.85,39.29Zm0,11.89a4.68,4.68,0,1,1,4.68-4.68A4.67,4.67,0,0,1,47.85,51.18Z"/></g></g></g></g></svg>