<svg id="Layer_11_copy_2" data-name="Layer 11 copy 2" xmlns="http://www.w3.org/2000/svg" xmlns:xlink="http://www.w3.org/1999/xlink" viewBox="0 0 64 64"><defs><style>.cls-1,.cls-8,.cls-9{fill:none;}.cls-2,.cls-6{fill:#fff;}.cls-2{stroke:#fff;stroke-width:0.8px;}.cls-2,.cls-8,.cls-9{stroke-miterlimit:10;}.cls-3{fill:#5a9ab8;}.cls-4{clip-path:url(#clip-path);}.cls-5{fill:#2d6d8b;}.cls-7{fill:#00415f;}.cls-8,.cls-9{stroke:#797979;}.cls-8{stroke-width:0.99px;}.cls-10{fill:url(#linear-gradient);}.cls-11{fill:url(#linear-gradient-2);}.cls-12{fill:url(#linear-gradient-3);}.cls-13{opacity:0.9;}.cls-14{fill:#343434;opacity:0.7;}.cls-15{fill:url(#linear-gradient-4);}.cls-16{fill:url(#linear-gradient-5);}.cls-17{fill:url(#linear-gradient-6);}.cls-18{fill:url(#linear-gradient-7);}.cls-19{fill:#285977;stroke:#285977;stroke-width:0.4px;}.cls-19,.cls-22{stroke-linecap:round;stroke-linejoin:round;}.cls-20{fill:url(#linear-gradient-8);}.cls-21{fill:url(#linear-gradient-9);}.cls-22{stroke:#2d2d2d;fill:url(#linear-gradient-10);}.cls-23{fill:#2d2d2d;}</style><clipPath id="clip-path"><path class="cls-1" d="M19.77,43c3.48-.31,6.19-3.57,6.19-7.34s-2.71-6.85-6.19-6.82-6.32,3.34-6.32,7.39S16.29,43.26,19.77,43Z"/></clipPath><linearGradient id="linear-gradient" x1="39.24" y1="18.76" x2="44.8" y2="23.24" gradientUnits="userSpaceOnUse"><stop offset="0" stop-color="#fff"/><stop offset="1" stop-color="#bbbdbf"/></linearGradient><linearGradient id="linear-gradient-2" x1="39.64" y1="17.09" x2="43.52" y2="24.2" gradientUnits="userSpaceOnUse"><stop offset="0" stop-color="#92d5ee"/><stop offset="1" stop-color="#6f9cae"/></linearGradient><linearGradient id="linear-gradient-3" x1="40.84" y1="18.91" x2="44.09" y2="21.53" gradientUnits="userSpaceOnUse"><stop offset="0" stop-color="#92d5ee"/><stop offset="0.15" stop-color="#8ccfe8"/><stop offset="0.34" stop-color="#7cbed7"/><stop offset="0.57" stop-color="#60a3bb"/><stop offset="0.81" stop-color="#3b7c95"/><stop offset="1" stop-color="#185971"/></linearGradient><linearGradient id="linear-gradient-4" x1="38.92" y1="239.38" x2="47.3" y2="247.36" gradientTransform="matrix(-0.02, 0.97, -1.04, 0.01, 293.59, -11.8)" gradientUnits="userSpaceOnUse"><stop offset="0" stop-color="#f0f0f0"/><stop offset="1" stop-color="#b3b3b3"/></linearGradient><linearGradient id="linear-gradient-5" x1="35.13" y1="246.47" x2="42.84" y2="253.81" gradientTransform="matrix(0.97, 0.02, 0, 1.04, 0.06, -221.65)" xlink:href="#linear-gradient-4"/><linearGradient id="linear-gradient-6" x1="39.66" y1="244.63" x2="47.16" y2="251.78" gradientTransform="matrix(0.97, 0.02, 0, 1.04, 0.06, -221.65)" xlink:href="#linear-gradient-4"/><linearGradient id="linear-gradient-7" x1="26.78" y1="13.66" x2="20.3" y2="19.22" gradientUnits="userSpaceOnUse"><stop offset="0" stop-color="#fcfcfc"/><stop offset="1" stop-color="#b3b3b3"/></linearGradient><linearGradient id="linear-gradient-8" x1="23.07" y1="14.29" x2="17.38" y2="19.58" xlink:href="#linear-gradient-7"/><linearGradient id="linear-gradient-9" x1="18.79" y1="15.63" x2="11.29" y2="21.33" xlink:href="#linear-gradient-7"/><linearGradient id="linear-gradient-10" x1="43.2" y1="31.61" x2="64.53" y2="64.74" gradientUnits="userSpaceOnUse"><stop offset="0" stop-color="#fff"/><stop offset="1" stop-color="#bfbfbf"/></linearGradient></defs><title>748_A33AAe__R21XArtboard 1</title><g id="Layer_7_copy_6" data-name="Layer 7 copy 6"><polygon class="cls-2" points="54.98 43.71 6.93 49.32 6.92 10.89 54.88 15.35 54.98 43.71"/><g id="Layer_17_copy_14" data-name="Layer 17 copy 14"><polygon id="R_04" data-name="R  04" class="cls-3" points="32 11.94 53 13.96 53 27.11 32 27.06 32 11.94"/><polygon id="R_03" data-name="R  03" class="cls-3" points="32 27.9 53 27.84 53 41 32 43.01 32 27.9"/><polygon id="R_02" data-name="R  02" class="cls-3" points="10 27.96 31 27.9 31 43.09 10 45.19 10 27.96"/><polygon class="cls-3" points="10 9.77 31 11.87 31 27.06 10 27 10 9.77"/></g><g id="RRR_ok-3" data-name="RRR   *** ok"><g class="cls-4"><path class="cls-5" d="M19.77,43c3.48-.31,6.19-3.57,6.19-7.34s-2.71-6.85-6.19-6.82-6.32,3.34-6.32,7.39S16.29,43.26,19.77,43Z"/><path class="cls-6" d="M24.86,35.43l1.14-.2-.25,1.94-1.31,3.06-1.21,1.24.46-1.82.12-1.25-.67-.88-.66-.78.12-1.21,1.67-.63Zm-9.33,2.19.55,1.11.62,1.4-.23,2,1,.46.32-.49L19,40.54l.82-2-.82-.7h-.79L17.61,37l-1-.5Zm1.46-8a5.76,5.76,0,0,0-2.84,3.44,10.57,10.57,0,0,0-.44,2l.88.7.59,1.11,0-.71.06-.33L15,35.66l-.73-1.38.47-1.19.52,0,.16,1,.25-.68.83-.59.62.35.66.16,1.25.07.34-.77-1.2.23-1.1-.16-.13-.64.27-.18.29.48.81.07,1.13-.59,1,.07.58-.34-.64-.87h-.82l-.62-1,.07.58-1.23.83-.24-.85.18-.57S18.13,29.12,17,29.61ZM22.15,33l.1.76.6.19.68-.2.07-.34h.77l.54.74-.14.39.51-.38-.37-.5-.1-.56.64,0,.57.63-.07.36.33.17a8.41,8.41,0,0,0-1.21-2.61,11.07,11.07,0,0,0-1.78-1.71l-.7.12.09.67-.09.15.33.36.13-.16v-.69l.31.21.27.44-.2.58-.41.16-.3-.08,0,.55,0,.54.3,0,0,.25Z"/></g></g><g id="RRR_ok-4" data-name="RRR   *** ok"><g class="cls-4"><path class="cls-7" d="M19.77,43c3.48-.31,6.19-3.57,6.19-7.34s-2.71-6.85-6.19-6.82-6.32,3.34-6.32,7.39S16.29,43.26,19.77,43Z"/><path class="cls-6" d="M24.86,35.43l1.14-.2-.25,1.94-1.31,3.06-1.21,1.24.46-1.82.12-1.25-.67-.88-.66-.78.12-1.21,1.67-.63Zm-9.33,2.19.55,1.11.62,1.4-.23,2,1,.46.32-.49L19,40.54l.82-2-.82-.7h-.79L17.61,37l-1-.5Zm1.46-8a5.76,5.76,0,0,0-2.84,3.44,10.57,10.57,0,0,0-.44,2l.88.7.59,1.11,0-.71.06-.33L15,35.66l-.73-1.38.47-1.19.52,0,.16,1,.25-.68.83-.59.62.35.66.16,1.25.07.34-.77-1.2.23-1.1-.16-.13-.64.27-.18.29.48.81.07,1.13-.59,1,.07.58-.34-.64-.87h-.82l-.62-1,.07.58-1.23.83-.24-.85.18-.57S18.13,29.12,17,29.61ZM22.15,33l.1.76.6.19.68-.2.07-.34h.77l.54.74-.14.39.51-.38-.37-.5-.1-.56.64,0,.57.63-.07.36.33.17a8.41,8.41,0,0,0-1.21-2.61,11.07,11.07,0,0,0-1.78-1.71l-.7.12.09.67-.09.15.33.36.13-.16v-.69l.31.21.27.44-.2.58-.41.16-.3-.08,0,.55,0,.54.3,0,0,.25Z"/></g></g><polygon class="cls-8" points="55.5 43.5 6.5 48.5 6.5 6.5 55.5 11.5 55.5 43.5"/><line class="cls-9" x1="6.08" y1="49.44" x2="55" y2="43.47"/></g><path class="cls-10" d="M45.05,20.65c0-2.32-1.55-4.21-3.47-4.21s-3.47,1.89-3.47,4.21,1.55,4.2,3.47,4.2S45.05,23,45.05,20.65Z"/><path class="cls-11" d="M41.58,17.17c1.51,0,2.75,1.56,2.75,3.48s-1.24,3.48-2.75,3.48-2.75-1.56-2.75-3.48,1.24-3.48,2.75-3.48m0-.73c-1.92,0-3.47,1.89-3.47,4.21s1.55,4.2,3.47,4.2,3.47-1.88,3.47-4.2-1.55-4.21-3.47-4.21Z"/><path class="cls-7" d="M41.58,16.44c1.92,0,3.47,1.89,3.47,4.21s-1.55,4.2-3.47,4.2-3.47-1.88-3.47-4.2,1.55-4.21,3.47-4.21m0-.72c-2.32,0-4.2,2.21-4.2,4.93s1.88,4.93,4.2,4.93,4.2-2.21,4.2-4.93-1.88-4.93-4.2-4.93Z"/><path class="cls-12" d="M42,18a3,3,0,0,1,1.68,2.43,3.83,3.83,0,0,1-.7,2.15L41.65,21,41,18"/><rect class="cls-7" x="41" y="18" width="1" height="3"/><polygon class="cls-7" points="41.64 20.47 41.43 20.72 42.84 22.43 43.05 22.17 41.64 20.47"/><rect class="cls-7" x="40" y="14" width="3" height="1"/><rect class="cls-7" x="41.38" y="14.8" width="0.66" height="0.8"/><polygon class="cls-7" points="45.79 17.2 44.06 15.11 44.27 14.85 46 16.94 45.79 17.2"/><polygon class="cls-7" points="44.66 17.2 44.02 16.42 44.45 15.91 45.09 16.68 44.66 17.2"/><g class="cls-13"><polygon class="cls-14" points="45 35 42 35 42 34 44 34 44 33 42 33 42 32 41 32 41 33 40 33 40 34 41 34 41 35 38 35 38 37 39 37 39 36 42 36 45 36 45 37 46 37 46 35 45 35"/><rect class="cls-15" x="40.47" y="28.47" width="2.2" height="4.06" transform="translate(10.94 71.97) rotate(-89.82)"/><path class="cls-7" d="M43.2,29.8v1.4H39.93V29.8H43.2M44,29H39.14v3H44V29Z"/><polygon class="cls-16" points="37.4 37.4 40.6 37.4 40.6 40.02 37.4 40.33 37.4 37.4"/><path class="cls-7" d="M40.2,37.8v1.86l-2.4.23V37.8h2.4M41,37H37v3.77l4-.39V37Z"/><polygon class="cls-17" points="43.4 37.42 46.6 37.42 46.6 39.87 43.4 40.12 43.4 37.42"/><path class="cls-7" d="M46.2,37.82V39.5l-2.4.19V37.82h2.4M47,37H43v3.54l4-.32V37Z"/></g><g id="Layer_25_copy_2" data-name="Layer 25 copy 2"><path class="cls-18" d="M25.54,18.45a.19.19,0,0,1-.15-.07L21.5,13.93a.2.2,0,0,1-.05-.16.19.19,0,0,1,.09-.14l2.27-1.47a.2.2,0,0,1,.11,0,.19.19,0,0,1,.1,0l5.52,3.32a.21.21,0,0,1,.1.17.2.2,0,0,1-.09.17l-3.9,2.6A.2.2,0,0,1,25.54,18.45Z"/><path class="cls-7" d="M23.92,12.33l5.52,3.33-3.9,2.59-3.89-4.46,2.27-1.46m0-.4a.43.43,0,0,0-.22.06l-2.27,1.47a.39.39,0,0,0-.18.28.42.42,0,0,0,.1.32l3.89,4.46a.39.39,0,0,0,.3.13.34.34,0,0,0,.22-.07L29.66,16a.43.43,0,0,0,.18-.34.41.41,0,0,0-.19-.34L24.12,12a.36.36,0,0,0-.2-.06Z"/><polygon class="cls-19" points="25.52 16.57 25.51 18.46 24.38 17.38 25.52 16.57"/><path class="cls-20" d="M21.37,19.61a.21.21,0,0,1-.16-.08l-3.55-4.8a.18.18,0,0,1,0-.16.24.24,0,0,1,.09-.13l2.7-1.61a.19.19,0,0,1,.1,0,.28.28,0,0,1,.12,0l5,3.56a.2.2,0,0,1,0,.32l-4.18,2.85A.15.15,0,0,1,21.37,19.61Z"/><path class="cls-7" d="M20.51,13l5,3.56-4.17,2.85-3.55-4.8L20.51,13m0-.4a.36.36,0,0,0-.2.06l-2.7,1.61a.42.42,0,0,0-.19.26.41.41,0,0,0,.08.32l3.55,4.8a.42.42,0,0,0,.32.16.48.48,0,0,0,.23-.07l4.17-2.85a.39.39,0,0,0,.17-.33.4.4,0,0,0-.17-.33l-5-3.55a.38.38,0,0,0-.23-.08Z"/><polygon class="cls-19" points="21.28 17.69 21.28 19.59 20.21 18.39 21.28 17.69"/><path class="cls-21" d="M16.74,20.85a.21.21,0,0,1-.15-.07l-3.74-4.57a.2.2,0,0,1,0-.16.21.21,0,0,1,.1-.14l3.8-2.37a.19.19,0,0,1,.1,0,.24.24,0,0,1,.14.05l4.47,4a.2.2,0,0,1,.07.16.19.19,0,0,1-.09.15l-4.54,3A.2.2,0,0,1,16.74,20.85Z"/><path class="cls-7" d="M16.8,13.71l4.48,4-4.54,3L13,16.08l3.8-2.37m0-.4a.42.42,0,0,0-.21.06l-3.8,2.37a.39.39,0,0,0-.18.27.4.4,0,0,0,.08.32l3.74,4.57a.4.4,0,0,0,.31.15A.36.36,0,0,0,17,21l4.54-3a.42.42,0,0,0,.18-.3.4.4,0,0,0-.13-.33l-4.48-4a.39.39,0,0,0-.27-.1Z"/><path class="cls-7" d="M23.92,12.31l5.48,3.47V21L29,21,16.67,25,13,19.78v-3.6l3.76-2.49,1,.9L20.51,13l1.17.83,0,0,2.27-1.47m0-.4a.43.43,0,0,0-.22.06L21.65,13.3l-.91-.64a.38.38,0,0,0-.23-.08.36.36,0,0,0-.2.06L17.87,14.1l-.8-.71a.39.39,0,0,0-.27-.1.38.38,0,0,0-.22.07l-3.76,2.49a.4.4,0,0,0-.18.33v3.6a.39.39,0,0,0,.07.23l3.63,5.2a.4.4,0,0,0,.33.17l.12,0,12.28-4,.35,0a.4.4,0,0,0,.38-.4V15.78a.4.4,0,0,0-.19-.34L24.13,12a.39.39,0,0,0-.21-.06Z"/></g><g id="Layer_19" data-name="Layer 19"><polygon class="cls-22" points="44.5 49.5 58.5 56.5 58.5 39.5 44.5 32.5 44.5 49.5"/><polygon class="cls-23" points="49 40 49 48 54.95 44.29 49 40"/></g></svg>