<svg xmlns="http://www.w3.org/2000/svg" xmlns:xlink="http://www.w3.org/1999/xlink" width="64" height="64" viewBox="0 0 64 64">
  <defs>
    <mask id="a" x="15.533" y="11.069" width="21.685" height="42.213" maskUnits="userSpaceOnUse">
      <path d="M36.475,30.114a19.66,19.66,0,0,0-1.65-2.307c-.988-1.073-3.38-3.628-3.545-3.876s-1.895-3.215-2.225-3.957a4.42,4.42,0,0,0-1.238-1.732A3.734,3.734,0,0,0,26,17.583a4.3,4.3,0,0,1-1.071-.412,5.38,5.38,0,0,0,.247-.825,18.283,18.283,0,0,0,.33-1.9c0-.329-.055-.485-.083-.824-.164-1.979-1.237-2.556-2.226-2.556a2.114,2.114,0,0,0-2.226,1.979A3.381,3.381,0,0,0,21.14,14.2s-.165.083-.165.495.66.659.742.989a3.472,3.472,0,0,1-.742,1.9,2.778,2.778,0,0,1-.986.843c-.173.1-.351.181-.531.263a3.678,3.678,0,0,0-.521.354,3.72,3.72,0,0,0-.767.726,8.327,8.327,0,0,0-1.318,3.337,40.285,40.285,0,0,0-1.319,5.607c0,1.154.907,4.535.99,5.276a4.74,4.74,0,0,0,.412,1.4,9.28,9.28,0,0,1,.578,1.649,2.012,2.012,0,0,0,.741,1.4.655.655,0,0,0,.66.083l.247.247a25.878,25.878,0,0,1-.577,4.453,28.6,28.6,0,0,0-.165,4.205c-.083.577-.247,2.06-.247,2.06s.082.083.082.577a15.094,15.094,0,0,0,.577,2.062,1.635,1.635,0,0,0,1.484,1.154c.825,0,1.072-.66.907-.989s-1.072-2.144-1.072-2.144c.165-.165.083-.247.083-.247.164-4.123,3.3-14.841,3.3-14.841,0,.66,1.319,4.7,1.4,5.112s-.083.495-.083,1.4c0,1.484.495,3.051.495,5.359,0,.908.082,1.238.412,1.4a1.8,1.8,0,0,1,.907.989A1.839,1.839,0,0,0,28.231,50.4c.164,0,.989.083.989-.494a1.771,1.771,0,0,0-.825-1.32,5.374,5.374,0,0,1-.907-1.235,18.322,18.322,0,0,1-.165-2.227c0-1.072.165-3.051.248-4.37a14.234,14.234,0,0,0-.083-2.309,17.049,17.049,0,0,0,.247-2.308,27.156,27.156,0,0,0-.412-3.628,19.743,19.743,0,0,1-.164-2.8c0-.742-.166-1.813-.166-3.133s.248-4.7.248-4.7A27.579,27.579,0,0,1,29.8,25.415c.166.247,4.618,3.958,4.618,3.958s.742.494.742,1.071.907,1.4,1.072,1.815a.96.96,0,0,1,0,.741c-.33.907.247.248.247.248a.61.61,0,0,0,.083.659,2.813,2.813,0,0,0,.66-1.814A3.979,3.979,0,0,0,36.475,30.114Zm-16.82.5a29.96,29.96,0,0,0-.412,4.287c-.907-.082-.412-.247-.741-.33s-.495-.082-.495-.577-.494-4.946-.412-5.441S18.914,24.1,18.914,24.1a11,11,0,0,1,.906,2.8A27.912,27.912,0,0,1,19.655,30.609Z" fill="#f0f1f1"/>
    </mask>
    <linearGradient id="b" x1="20.215" y1="18.102" x2="23.536" y2="18.102" gradientUnits="userSpaceOnUse">
      <stop offset="0" stop-color="#d4d4d4"/>
      <stop offset="1" stop-color="#9a9c9e"/>
    </linearGradient>
    <linearGradient id="c" x1="30.248" y1="15.109" x2="49.752" y2="48.891" gradientUnits="userSpaceOnUse">
      <stop offset="0" stop-color="#8dd7f4"/>
      <stop offset="1" stop-color="#386e8c"/>
    </linearGradient>
    <linearGradient id="d" x1="46.203" y1="19.061" x2="48.78" y2="23.525" xlink:href="#c"/>
  </defs>
  <title>29192_DELHME_AP_AppIcon</title>
  <g style="isolation: isolate">
    <g>
      <g>
        <path d="M20.315,53.683a2.025,2.025,0,0,1-1.876-1.476,6.294,6.294,0,0,0-.2-.644,5.484,5.484,0,0,1-.383-1.5,1.585,1.585,0,0,0-.03-.378.41.41,0,0,1-.05-.243s.165-1.493.249-2.073a7.087,7.087,0,0,0,0-.872,16.388,16.388,0,0,1,.165-3.345l.053-.3a27.59,27.59,0,0,0,.524-3.879,1.026,1.026,0,0,1-.114.007,1.057,1.057,0,0,1-.639-.218,2.437,2.437,0,0,1-.893-1.643,4.577,4.577,0,0,0-.353-1.07c-.075-.17-.148-.335-.213-.529-.046-.139-.092-.249-.136-.355a3.583,3.583,0,0,1-.293-1.131c-.028-.246-.172-.888-.325-1.569a24.108,24.108,0,0,1-.668-3.751,29.686,29.686,0,0,1,1.128-4.97c.1-.341.17-.6.2-.734l.069-.276a7.982,7.982,0,0,1,1.323-3.212,4.16,4.16,0,0,1,.853-.807l.148-.109a2.351,2.351,0,0,1,.434-.279c.171-.078.34-.158.5-.249a2.375,2.375,0,0,0,.848-.716,3.56,3.56,0,0,0,.686-1.579,1.763,1.763,0,0,0-.214-.2,1.1,1.1,0,0,1-.417-1.457,4.383,4.383,0,0,1-.122-1.073A2.513,2.513,0,0,1,23.2,10.669c.716,0,2.405.285,2.624,2.923.011.125.026.223.039.316a3.332,3.332,0,0,1,.046.541,13.543,13.543,0,0,1-.3,1.78l-.04.2a5.245,5.245,0,0,1-.144.544,4.58,4.58,0,0,0,.673.226c.146.036.288.064.426.092a3.05,3.05,0,0,1,1.551.651,4.825,4.825,0,0,1,1.342,1.874c.31.7,2.019,3.635,2.193,3.9.138.194,1.679,1.855,2.6,2.848l.906.979a10.779,10.779,0,0,1,1.362,1.872,3.677,3.677,0,0,0,.277.424,4.278,4.278,0,0,1,.86,2.261,3.161,3.161,0,0,1-.82,2.135.4.4,0,0,1-.523-.038.9.9,0,0,1-.2-.324.49.49,0,0,1-.264-.175c-.145-.206-.095-.46.039-.828a.585.585,0,0,0,0-.455,3.309,3.309,0,0,0-.349-.5,2.75,2.75,0,0,1-.751-1.466c0-.27-.38-.614-.565-.738-2.084-1.735-4.564-3.824-4.727-4.068l-.106-.161c-.892-1.373-1.443-2.168-1.784-2.63-.073,1.1-.181,2.865-.181,3.722,0,.738.053,1.393.1,1.972.035.445.066.834.066,1.161,0,.718.161,2.751.163,2.771L27.7,36.135V40.75s.019,3.3.019,4.37a17.722,17.722,0,0,0,.152,2.1,4.573,4.573,0,0,0,.77,1.052A2.15,2.15,0,0,1,29.62,49.9c0,.211-.087.9-1.2.9l-.148,0A2.238,2.238,0,0,1,26.3,49.482a1.4,1.4,0,0,0-.717-.788c-.589-.3-.634-.915-.634-1.76a21.372,21.372,0,0,0-.284-3.214,15.1,15.1,0,0,1-.211-2.146,5.234,5.234,0,0,1,.077-.952.878.878,0,0,0,.014-.371c-.026-.125-.171-.6-.356-1.209-.266-.875-.511-1.689-.7-2.359-.853,3.068-2.7,10.005-2.85,13.153a.533.533,0,0,1-.027.339l.97,1.94a1.011,1.011,0,0,1-.076.97A1.346,1.346,0,0,1,20.315,53.683ZM18.439,34.146a.417.417,0,0,1,.085.014.885.885,0,0,1,.319.138c.054-1.126.3-3.18.42-3.767A28.161,28.161,0,0,0,19.42,26.9a6,6,0,0,0-.45-1.632c-.447,1.448-.935,3.074-.981,3.346s.15,2.317.264,3.53c.1,1.048.154,1.652.154,1.846a.792.792,0,0,0,.012.163C18.421,34.147,18.429,34.146,18.439,34.146Z" fill="#f0f1f1"/>
        <path d="M23.2,11.069c.989,0,2.062.577,2.226,2.556.028.339.083.495.083.824a18.283,18.283,0,0,1-.33,1.9,5.38,5.38,0,0,1-.247.825A4.3,4.3,0,0,0,26,17.583a3.734,3.734,0,0,1,1.813.659,4.42,4.42,0,0,1,1.238,1.732c.33.742,2.061,3.709,2.225,3.957s2.557,2.8,3.545,3.876a19.66,19.66,0,0,1,1.65,2.307,3.979,3.979,0,0,1,.743,1.979,2.813,2.813,0,0,1-.66,1.814.61.61,0,0,1-.083-.659s-.2.231-.3.231c-.067,0-.083-.109.052-.479a.96.96,0,0,0,0-.741c-.165-.412-1.072-1.238-1.072-1.815s-.742-1.071-.742-1.071-4.452-3.711-4.618-3.958a27.579,27.579,0,0,0-2.555-3.545s-.248,3.381-.248,4.7.166,2.391.166,3.133.164,2.8.164,2.8L27.3,36.133V40.75s.019,3.3.019,4.37a18.322,18.322,0,0,0,.165,2.227,5.374,5.374,0,0,0,.907,1.235,1.771,1.771,0,0,1,.825,1.32c0,.448-.5.5-.8.5-.086,0-.156-.005-.192-.005a1.839,1.839,0,0,1-1.567-1.071,1.8,1.8,0,0,0-.907-.989c-.33-.165-.412-.495-.412-1.4,0-2.308-.495-3.875-.495-5.359,0-.906.165-.989.083-1.4s-1.4-4.452-1.4-5.112c0,0-3.134,10.718-3.3,14.841,0,0,.082.082-.083.247,0,0,.908,1.814,1.072,2.144s-.082.989-.907.989a1.635,1.635,0,0,1-1.484-1.154,15.094,15.094,0,0,1-.577-2.062c0-.494-.082-.577-.082-.577s.164-1.483.247-2.06a28.6,28.6,0,0,1,.165-4.205,25.878,25.878,0,0,0,.577-4.453l-.247-.247a.631.631,0,0,1-.261.054.65.65,0,0,1-.4-.137,2.012,2.012,0,0,1-.741-1.4,9.28,9.28,0,0,0-.578-1.649,4.74,4.74,0,0,1-.412-1.4c-.083-.741-.99-4.122-.99-5.276a40.285,40.285,0,0,1,1.319-5.607,8.327,8.327,0,0,1,1.318-3.337,3.72,3.72,0,0,1,.767-.726,3.678,3.678,0,0,1,.521-.354c.18-.082.358-.167.531-.263a2.778,2.778,0,0,0,.986-.843,3.472,3.472,0,0,0,.742-1.9c-.082-.33-.742-.577-.742-.989s.165-.495.165-.495a3.381,3.381,0,0,1-.165-1.154A2.114,2.114,0,0,1,23.2,11.069M19.243,34.9a29.96,29.96,0,0,1,.412-4.287,27.912,27.912,0,0,0,.165-3.71,11,11,0,0,0-.906-2.8s-1.237,3.958-1.319,4.452.412,4.947.412,5.441.165.5.495.577-.166.248.741.33M23.2,10.269a2.914,2.914,0,0,0-3.026,2.779,4.938,4.938,0,0,0,.1,1.035,1.73,1.73,0,0,0-.1.614,1.585,1.585,0,0,0,.676,1.183l.055.047a4.561,4.561,0,0,1-.6,1.212,1.981,1.981,0,0,1-.709.588c-.155.086-.314.162-.474.235a2.6,2.6,0,0,0-.511.325c-.044.033-.087.066-.132.1a4.581,4.581,0,0,0-.94.888,8.285,8.285,0,0,0-1.4,3.365l-.069.275c-.032.131-.105.387-.2.723a27.729,27.729,0,0,0-1.143,5.078,22.849,22.849,0,0,0,.678,3.839c.143.64.292,1.3.317,1.526a3.973,3.973,0,0,0,.322,1.24c.04.1.083.2.125.325.07.209.147.386.227.566a4.156,4.156,0,0,1,.326.988,2.8,2.8,0,0,0,1.046,1.884,1.476,1.476,0,0,0,.581.266c-.054.842-.275,2.109-.506,3.436l-.053.3a16.7,16.7,0,0,0-.171,3.426,7.533,7.533,0,0,1,0,.8c-.084.583-.243,2.025-.25,2.086a.8.8,0,0,0,.064.414,1.779,1.779,0,0,1,.013.251,5.671,5.671,0,0,0,.405,1.627c.074.218.167.49.187.591a2.421,2.421,0,0,0,2.269,1.8,1.737,1.737,0,0,0,1.529-.787,1.413,1.413,0,0,0,.093-1.361c-.118-.237-.628-1.257-.9-1.8a.9.9,0,0,0,0-.332c.146-2.726,1.543-8.256,2.46-11.648q.138.463.3,1c.151.5.322,1.063.347,1.175.01.053.011.058-.016.223a5.579,5.579,0,0,0-.083,1.018,15.406,15.406,0,0,0,.215,2.2,21.032,21.032,0,0,1,.28,3.156c0,.754,0,1.691.854,2.118a1.007,1.007,0,0,1,.53.59,2.645,2.645,0,0,0,2.3,1.555c.075,0,.13.005.192.005,1.178,0,1.6-.7,1.6-1.3A2.581,2.581,0,0,0,28.9,47.958a4.1,4.1,0,0,1-.634-.87,17.15,17.15,0,0,1-.138-1.968c0-1.073-.019-4.375-.019-4.375V36.133l.019-3.624c0-.023,0-.045,0-.068s-.162-2.037-.162-2.739c0-.35-.031-.741-.068-1.193-.046-.571-.1-1.218-.1-1.94,0-.59.052-1.622.109-2.564.292.429.66.98,1.121,1.689l.106.164c.077.114.233.345,4.773,4.13q.033.027.069.051a1.178,1.178,0,0,1,.387.422,3.009,3.009,0,0,0,.833,1.694,4.3,4.3,0,0,1,.3.41.185.185,0,0,1,.006.116,1.3,1.3,0,0,0-.01,1.239.83.83,0,0,0,.291.253,1.2,1.2,0,0,0,.217.3.8.8,0,0,0,1.045.073,3.5,3.5,0,0,0,.98-2.454,4.636,4.636,0,0,0-.978-2.545c-.027-.034-.132-.207-.216-.347a11.19,11.19,0,0,0-1.411-1.937l-.907-.98c-.9-.967-2.4-2.585-2.572-2.814-.162-.247-1.852-3.156-2.148-3.822a5.183,5.183,0,0,0-1.448-2.013,3.417,3.417,0,0,0-1.733-.741c-.132-.026-.268-.052-.407-.087-.1-.026-.2-.054-.284-.082.018-.073.035-.148.05-.224l.04-.192a12.547,12.547,0,0,0,.306-1.86,3.861,3.861,0,0,0-.05-.6c-.013-.085-.026-.176-.036-.292-.253-3.052-2.378-3.289-3.023-3.289Zm-4.554,21.79c-.1-1.1-.287-3.073-.26-3.4.029-.162.273-1,.592-2.051a1.439,1.439,0,0,1,.041.3,28.759,28.759,0,0,1-.149,3.553c-.046.23-.137.871-.224,1.607Z" fill="#1c1c1c"/>
      </g>
      <g mask="url(#a)">
        <g opacity="0.3">
          <path d="M19.883,22.835A1.505,1.505,0,0,0,19,24.551a12.958,12.958,0,0,1,.865,2.224,4.321,4.321,0,0,1,0,.991c-.016.284-.261.75-.166,1.018.349.971,1.159-.856,1.239-1.145a7.022,7.022,0,0,0,.04-3.017C20.861,24.031,20.727,22.682,19.883,22.835Z" fill="#1c1c1c"/>
          <path d="M24,17.159c-.252-.636-.945-.948-1.395-1.419a1.865,1.865,0,0,1-.224-2.032,1.713,1.713,0,0,0,.166-.989c-.152-.777-.745-.98-1.438-.7.014.485-.246.986-.173,1.434.087.543.458.777.7,1.157.413.658-.117,1.41-.029,2.057.443.164.4-.3.859-.077.37.18.273.45.508.732C23.255,17.676,24.284,17.886,24,17.159Z" fill="#1c1c1c"/>
          <path d="M36.706,31.689c-.074-.2-.213-.546-.478-.513-.125.015-.181.207-.345.09-.262-.187-.2-.6-.275-.862a5.735,5.735,0,0,0-2.391-2.877,9.645,9.645,0,0,1-1.647-1.289c-.2-.218-1.44-1.282-.585-1.407.1-.146.268-.172.406-.325-.528-.072-.7.66-1.152.046a13.334,13.334,0,0,1-.6-1.366,13.408,13.408,0,0,0-.883-1.487,2.029,2.029,0,0,0-.641-.671c-.377-.166-.463.074-.788.272-.221.645.241.924.593,1.363A12.31,12.31,0,0,1,28.964,24.1a5.7,5.7,0,0,0,1.069,1.567c1.079.947,2.132,1.749,3.225,2.636a7.126,7.126,0,0,1,1.558,1.4c.184.28.184.667.338.949.114.21.316.355.429.56a2.855,2.855,0,0,0,.4.608.867.867,0,0,0,.384.286c.117.032.3.043.381-.076C36.814,31.927,36.745,31.794,36.706,31.689Z" fill="#1c1c1c"/>
          <path d="M25.716,42.77c-.008-.749.344-1.287.371-1.978a17.4,17.4,0,0,0-.256-2.8,4.83,4.83,0,0,1-.148-2.474c.334-.877,1.145-1.567.933-2.591-.294-.165-.532.555-.693.777-.309.424-.7.421-1.2.545a3.918,3.918,0,0,1-.742.156c-.21.014-.389-.09-.567.09-.367.371.2.98.31,1.382.15.55.3,1.1.458,1.645.258.875.61,1.757.789,2.653.083.412-.083.495-.083,1.4,0,1.484.5,3.051.5,5.359,0,.908.083,1.238.412,1.4a1.8,1.8,0,0,1,.907.989,1.7,1.7,0,0,0,.53.684c-.216-1.068-1.107-1.881-1.107-3.076C26.128,45.5,25.73,44.153,25.716,42.77Z" fill="#1c1c1c"/>
          <path d="M19.9,29.29l-.083.083a10.574,10.574,0,0,0-.208,1.65c-.12.608-.143,1.242-.2,1.854-.108,1.1-.134,2.218-.246,3.34-.141,1.405.093,2.789-.125,4.2-.214,1.4-.477,2.761-.618,4.163-.07.7.119,1.359.083,2.061-.034.666-.1,1.339-.163,2.02a4.483,4.483,0,0,0,.068,2.029c.117.316.245.651.344.982.089.3.056.637.168.94a4.792,4.792,0,0,0,1.59.33c.048-.444-.71-.658-.9-.984a8.652,8.652,0,0,1-.487-1.234,9.5,9.5,0,0,1-.41-3.052,20.832,20.832,0,0,1,.453-4.648,23.511,23.511,0,0,1,.67-2.514,13.755,13.755,0,0,0,.486-2.763,8.229,8.229,0,0,0-.248-2.442c-.144-.724-.393-1.628.162-2.227.251-.27.67-.408.746-.782.088-.442-.168-.674-.417-.94A2.745,2.745,0,0,1,19.9,29.29Z" fill="#1c1c1c"/>
          <path d="M18.46,36.05c-.166-.208-.422-.3-.609-.494a3.926,3.926,0,0,1-.916-2.061c-.11-.762-.287-1.508-.4-2.266s-.343-1.521-.423-2.266a2.289,2.289,0,0,1,.092-1.075c.247-.471.583-.173,1-.128-.072-.257-.372-.191-.472-.449a3.22,3.22,0,0,1,.039-1.033,9.848,9.848,0,0,1,.167-1.224c.174-.972.458-1.919.7-2.884a4.346,4.346,0,0,1,.968-2.4c.442-.415.954-.77,1.414-1.157a1.318,1.318,0,0,0,.274-.248c-.142-.041-.174-.008-.3.064-.173.1-.351.181-.531.263a3.678,3.678,0,0,0-.521.354,3.72,3.72,0,0,0-.767.726,8.327,8.327,0,0,0-1.318,3.337,40.285,40.285,0,0,0-1.319,5.607c0,1.154.907,4.535.99,5.276a4.74,4.74,0,0,0,.412,1.4,9.528,9.528,0,0,1,.573,1.629,1.462,1.462,0,0,0,.25.063,1.407,1.407,0,0,0,1.135-.332C18.645,36.57,18.643,36.279,18.46,36.05Z" fill="#1c1c1c"/>
        </g>
      </g>
      <path d="M21.442,17.033c.2.092.368.359.556.5a4.351,4.351,0,0,0,.7.432,2.424,2.424,0,0,0,.941.277,1.347,1.347,0,0,0,1.125-.963" fill="none" stroke="#6d6d6d" stroke-linecap="round" stroke-linejoin="round" stroke-width="0.5"/>
      <path d="M19.655,30.362s.66,1.32,4.288,1.32c1.814,0,3.05-.991,3.216-1.98" fill="none" stroke="#6d6d6d" stroke-linecap="round" stroke-linejoin="round" stroke-width="0.5"/>
      <path d="M24.8,17.192s-.558.406-.921.236" fill="none" stroke="#f50" stroke-linecap="round" stroke-linejoin="round" stroke-width="0.5"/>
      <path d="M18.914,24.1s.494-1.732,1.319-1.155" fill="none" stroke="#6d6d6d" stroke-linecap="round" stroke-linejoin="round" stroke-width="0.5"/>
      <path d="M24.688,14.449a1.609,1.609,0,0,0,.22.674c.067.135.228.485.149.633-.141.26-.472,0-.658-.032-.07-.013-.13-.046-.134.059a.748.748,0,0,0,.241.082" fill="none" stroke="#f50" stroke-linecap="round" stroke-linejoin="round" stroke-width="0.5"/>
      <path d="M25.1,16.153a.842.842,0,0,1-.55.206c-.148.007-.616-.1-.66.056" fill="none" stroke="#f50" stroke-linecap="round" stroke-linejoin="round" stroke-width="0.5"/>
      <path d="M24.108,14.546a.812.812,0,0,0-.5-.014,1.27,1.27,0,0,1-.529.151" fill="none" stroke="#f50" stroke-linecap="round" stroke-linejoin="round" stroke-width="0.5"/>
      <path d="M24.905,14.408c.1-.228.324-.194.508-.138" fill="none" stroke="#f50" stroke-linecap="round" stroke-linejoin="round" stroke-width="0.5"/>
      <path d="M24.705,12.105a1.666,1.666,0,0,0,.513.146c.062-1.632-2.817-1.882-3.783-1.123a2.771,2.771,0,0,0-.976,2.253c.112.473,1.529,1.485,1.79,1.312a3.66,3.66,0,0,1-.037-1.026c.056-.182.166-.094.281-.159a.541.541,0,0,0,.2-.233,4.532,4.532,0,0,1,.265-.613,1.714,1.714,0,0,1,1.374-.582A1.746,1.746,0,0,1,24.705,12.105Z" fill="#1c1c1c"/>
      <path d="M18.275,49.572c.1.307.605.4.866.535a.991.991,0,0,0,1.068.059c0-.034.017-.051.024-.078" fill="none" stroke="#6d6d6d" stroke-linecap="round" stroke-linejoin="round"/>
      <path d="M25.448,47c.2.083.36.288.556.4a2.26,2.26,0,0,0,.64.2c.212.044.92.174.844-.227" fill="none" stroke="#6d6d6d" stroke-linecap="round" stroke-linejoin="round"/>
      <path d="M35.135,29.93c.448.026.414.786.573,1.1.1.2.348.383.5.1.142-.26-.214-.341-.2-.6.307,0,.2.5.346.7a2.832,2.832,0,0,1,.429.783.665.665,0,0,1-.052.49c-.054.157-.192.3-.227.453-.041.169.1.258.257.182a1.293,1.293,0,0,0,.32-.383.722.722,0,0,0,.1-.273" fill="none" stroke="#d66924" stroke-linecap="round" stroke-linejoin="round" stroke-width="0.5"/>
      <path d="M19.229,34.937c.266.062.55-.01.826.079.16.053.7.16.714.362.023.222-.52.271-.688.261-.261-.017-.463-.159-.715.009-.193.129-.452.368-.4.636.026.13.171.162.269.248s.223.178.323.277a3.268,3.268,0,0,0,.7.467c.09.056.575.286.519.4s-.419.1-.52.068c-.187-.058-.376-.147-.555-.217a4.759,4.759,0,0,1-.569-.312c-.1-.059-.184-.233-.307-.241s-.1.056-.038.141a3.874,3.874,0,0,0,.7.714c.153.112.956.538.881.753-.051.146-.223.023-.313-.018-.231-.1-.46-.2-.686-.308a2.572,2.572,0,0,1-.595-.4,4.253,4.253,0,0,0-.466-.456c.065.33.543.618.792.8.207.149.646.377.689.643-.156.108-.482-.042-.617-.138-.181-.126-.352-.277-.52-.405a3,3,0,0,1-.81-.864,1.543,1.543,0,0,0,.4.649c.071.09.654.644.687.6" fill="none" stroke="#bf4000" stroke-linecap="round" stroke-linejoin="round" stroke-width="0.2"/>
      <path d="M21.021,15.016a1.887,1.887,0,0,0,.136.176,1.576,1.576,0,0,1,.408,1.21c-.012.242-.133.369.055.565a1.933,1.933,0,0,0,.482.309c.264.141.485.347.753.47a1.229,1.229,0,0,0,1.125.041,1.446,1.446,0,0,0,.622-.7c.376-.057.517-.53.6-.839a9.941,9.941,0,0,0,.3-1.565c.039-.4.039-.811.039-1.211a2.915,2.915,0,0,0-.1-.863.751.751,0,0,0-.25-.369,1.53,1.53,0,0,0-1.959-.155c-.376.248-.485.692-.724,1.047a.555.555,0,0,1-.12.164c-.069.046-.177.009-.228.047-.114.085-.112.317-.119.441-.01.177.055.419-.058.569s-.241.057-.385-.016c-.2-.1-.643-.391-.783-.02A.9.9,0,0,0,21.021,15.016Z" fill="#d66924" style="mix-blend-mode: overlay"/>
      <path d="M19.043,23.976c.142-.41.371-.819.646-.7.327.143.29.574.369.883a8.047,8.047,0,0,0,.785,2.245,15.669,15.669,0,0,0,1.069,1.615,3.842,3.842,0,0,1,.816,1.957c.059.362.246,1.009-.052,1.312-.449.457-1.726-.27-2.2-.471-.9-.381-1.045-1.058-1.1-2.013-.048-.834-.029-1.638-.108-2.441a10.793,10.793,0,0,1-.378-1.735A2.9,2.9,0,0,1,19.043,23.976Z" fill="#6d6d6d" style="mix-blend-mode: darken"/>
      <path d="M26.973,25.2a9.116,9.116,0,0,1-.169,1.709c-.111.419-.278.787-.424,1.2a3.023,3.023,0,0,0,.012,2.144c.487.95.951-.353,1.073-.849a7.169,7.169,0,0,0,.079-2.3c-.046-.49.177-1.829-.526-1.9Z" fill="#6d6d6d" style="mix-blend-mode: darken"/>
      <line x1="20.215" y1="17.966" x2="23.536" y2="18.239" stroke="#6d6d6d" stroke-linecap="round" stroke-linejoin="round" stroke-width="0.5" fill="url(#b)"/>
      <path d="M23.754,18.3a10.5,10.5,0,0,1,.564,3.062,23.4,23.4,0,0,1,.061,3.375c0,1.28.173,2.547.187,3.826a10.342,10.342,0,0,0,.125,2.987" fill="none" stroke="#6d6d6d" stroke-linecap="round" stroke-linejoin="round" stroke-width="0.5"/>
      <path d="M16.914,37.007a2.1,2.1,0,0,0,1.784,1.95c.7.2,2.271-.038,1.749-1.215-.164-.371-.65-.417-.951-.732a1.793,1.793,0,0,1-.438-1.461c.3-.02,1.469.472,1.38-.15-.071-.5-2.343-1.021-2.724-.808A2.635,2.635,0,0,0,16.914,37.007Z" fill="#d66924" style="mix-blend-mode: overlay"/>
      <path d="M35.816,29.176c.713-.045.938.21,1.172.864A4.362,4.362,0,0,1,37.3,33.1c-.145.452-.377.925-.987.828-.682-.111-.466-.731-.576-1.252C35.536,31.7,33.607,29.316,35.816,29.176Z" fill="#d66924" style="mix-blend-mode: overlay"/>
      <path d="M18.517,34.485a1.82,1.82,0,0,0-1.314.3.7.7,0,0,0-.2.754" fill="none" stroke="#c94e00" stroke-linecap="round" stroke-linejoin="round" stroke-width="0.5"/>
      <path d="M37.5,11.5h0a1,1,0,0,0,1,1h2v39h-2a1,1,0,0,0-1,1h0a1,1,0,0,0,1,1h3a1,1,0,0,0,1-1v-41a1,1,0,0,0-1-1h-3A1,1,0,0,0,37.5,11.5Z" stroke="#053755" stroke-linejoin="round" fill="url(#c)"/>
      <path d="M44.93,20.624l2.741-2.4a.5.5,0,0,1,.829.376v4.8a.5.5,0,0,1-.829.376l-2.741-2.4A.5.5,0,0,1,44.93,20.624Z" stroke="#053755" stroke-linejoin="round" fill="url(#d)"/>
    </g>
  </g>
</svg>
