<?xml version="1.0" encoding="UTF-8"?><svg id="version_02_copy_4" xmlns="http://www.w3.org/2000/svg" viewBox="0 0 64 64"><defs><style>.cls-1{fill:#f4f5f6;stroke:#003755;stroke-linecap:round;}.cls-1,.cls-2{stroke-linejoin:round;}.cls-3{fill:#797979;}.cls-4,.cls-2{fill:#aadcfa;}.cls-5{stroke-miterlimit:10;stroke-width:.25px;}.cls-5,.cls-2{stroke:#000;}.cls-6{fill:#323232;}.cls-7{fill:#e1e1e1;}.cls-8{fill:#f1f0f0;}.cls-2{stroke-width:1.92px;}.cls-9{fill:#2d6d8b;}.cls-10{fill:#82bddb;}</style></defs><g id="AAAA_OK_ARR_copy_5"><g><g id="_4"><polygon class="cls-6" points="33.6 21.58 38.42 19.78 42.53 21.41 42.53 25.28 37.73 27.08 33.62 25.47 33.62 21.59 33.6 21.58"/><path class="cls-5" d="m37.58,27.34l-4.11-1.61c-.12-.05-.2-.15-.2-.26v-3.78s-.03-.08-.03-.12c0-.11.08-.21.21-.26l4.82-1.8c.09-.04.2-.03.3,0l4.11,1.63c.12.05.2.15.2.26v3.87c0,.11-.08.22-.21.27l-4.8,1.8s-.1.03-.14.03-.1,0-.15-.03Zm4.6-5.75l-3.76-1.49-4.44,1.66v3.53s3.76,1.47,3.76,1.47l4.45-1.67v-3.5Z"/></g><polygon id="_3" class="cls-3" points="33.62 21.58 33.62 25.47 37.73 27.08 37.73 23.21 33.62 21.58"/><polygon id="_2" class="cls-7" points="42.53 21.41 42.53 25.28 37.73 27.08 37.73 23.21 42.53 21.41"/><path id="_1" class="cls-8" d="m33.6,21.58l4.13,1.63,4.8-1.81-4.11-1.63-4.82,1.8Z"/></g><g><g id="_4-2"><polygon class="cls-6" points="33.6 17.1 38.42 15.3 42.53 16.93 42.53 20.78 37.73 22.58 33.62 20.98 33.62 17.11 33.6 17.1"/><path class="cls-5" d="m37.58,22.85l-4.11-1.61c-.12-.05-.2-.15-.2-.26v-3.76s-.03-.08-.03-.12c0-.11.08-.22.21-.26l4.82-1.8c.09-.04.2-.03.29,0l4.11,1.63c.12.05.2.15.2.26v3.85c0,.11-.08.22-.21.27l-4.8,1.8s-.1.03-.14.03-.1,0-.15-.03Zm4.6-5.74l-3.76-1.49-4.44,1.66v3.51s3.76,1.47,3.76,1.47l4.45-1.67v-3.48Z"/></g><polygon id="_3-2" class="cls-3" points="33.62 17.1 33.62 20.98 37.73 22.58 37.73 18.73 33.62 17.1"/><polygon id="_2-2" class="cls-7" points="42.53 16.93 42.53 20.78 37.73 22.58 37.73 18.73 42.53 16.93"/><path id="_1-2" class="cls-8" d="m33.6,17.1l4.13,1.63,4.8-1.8-4.11-1.63-4.82,1.8Z"/></g><g><g id="_4-3"><polygon class="cls-6" points="33.6 12.66 38.42 10.86 42.53 12.48 42.53 16.33 37.73 18.14 33.62 16.53 33.62 12.67 33.6 12.66"/><path class="cls-5" d="m37.58,18.4l-4.11-1.6c-.12-.05-.2-.15-.2-.26v-3.76s-.03-.08-.03-.12c0-.11.08-.22.21-.26l4.82-1.8c.09-.04.2-.03.3,0l4.11,1.63c.12.05.2.15.2.26v3.85c0,.11-.08.22-.21.27l-4.8,1.8s-.1.03-.14.03-.1,0-.15-.03Zm4.6-5.73l-3.76-1.49-4.44,1.66v3.51s3.76,1.47,3.76,1.47l4.45-1.67v-3.48Z"/></g><polygon id="_3-3" class="cls-3" points="33.62 12.66 33.62 16.53 37.73 18.14 37.73 14.28 33.62 12.66"/><polygon id="_2-3" class="cls-7" points="42.53 12.48 42.53 16.33 37.73 18.14 37.73 14.28 42.53 12.48"/><path id="_1-3" class="cls-8" d="m33.6,12.66l4.13,1.63,4.8-1.8-4.11-1.63-4.82,1.8Z"/></g><g><g id="_4-4"><polygon class="cls-6" points="33.6 8.17 38.42 6.38 42.53 8 42.53 11.85 37.73 13.66 33.62 12.05 33.62 8.19 33.6 8.17"/><path class="cls-5" d="m37.58,13.92l-4.11-1.6c-.12-.05-.2-.15-.2-.26v-3.76s-.03-.08-.03-.12c0-.11.08-.22.21-.26l4.82-1.8c.09-.04.2-.03.3,0l4.11,1.63c.12.05.2.15.2.26v3.85c0,.11-.08.22-.21.27l-4.8,1.8s-.1.03-.14.03-.1,0-.15-.03Zm4.6-5.73l-3.76-1.49-4.44,1.66v3.51s3.76,1.47,3.76,1.47l4.45-1.67v-3.48Z"/></g><polygon id="_3-4" class="cls-3" points="33.62 8.17 33.62 12.05 37.73 13.66 37.73 9.8 33.62 8.17"/><polygon id="_2-4" class="cls-7" points="42.53 8 42.53 11.85 37.73 13.66 37.73 9.8 42.53 8"/><path id="_1-4" class="cls-8" d="m33.6,8.17l4.13,1.63,4.8-1.8-4.11-1.63-4.82,1.8Z"/></g><g><g id="_4-5"><polygon class="cls-6" points="38.52 23.69 43.35 21.89 47.46 23.52 47.46 27.39 42.66 29.19 38.55 27.59 38.55 23.7 38.52 23.69"/><path class="cls-5" d="m42.51,29.46l-4.11-1.61c-.12-.05-.2-.15-.2-.26v-3.78s-.03-.08-.03-.12c0-.11.08-.21.21-.26l4.82-1.8c.09-.04.2-.03.3,0l4.11,1.63c.12.05.2.15.2.26v3.87c0,.11-.08.22-.21.27l-4.8,1.8s-.1.03-.14.03-.1,0-.15-.03Zm4.6-5.75l-3.76-1.49-4.44,1.66v3.53s3.76,1.47,3.76,1.47l4.45-1.67v-3.5Z"/></g><polygon id="_3-5" class="cls-3" points="38.55 23.69 38.55 27.59 42.66 29.19 42.66 25.32 38.55 23.69"/><polygon id="_2-5" class="cls-7" points="47.46 23.52 47.46 27.39 42.66 29.19 42.66 25.32 47.46 23.52"/><path id="_1-5" class="cls-8" d="m38.52,23.69l4.13,1.63,4.8-1.81-4.11-1.63-4.82,1.8Z"/></g><g><g id="_4-6"><polygon class="cls-6" points="38.52 19.21 43.35 17.41 47.46 19.04 47.46 22.89 42.66 24.7 38.55 23.09 38.55 19.22 38.52 19.21"/><path class="cls-5" d="m42.51,24.96l-4.11-1.61c-.12-.05-.2-.15-.2-.26v-3.76s-.03-.08-.03-.12c0-.11.08-.22.21-.26l4.82-1.8c.09-.04.2-.03.29,0l4.11,1.63c.12.05.2.15.2.26v3.85c0,.11-.08.22-.21.27l-4.8,1.8s-.1.03-.14.03-.1,0-.15-.03Zm4.6-5.74l-3.76-1.49-4.44,1.66v3.51s3.76,1.47,3.76,1.47l4.45-1.67v-3.48Z"/></g><polygon id="_3-6" class="cls-3" points="38.55 19.21 38.55 23.09 42.66 24.7 42.66 20.84 38.55 19.21"/><polygon id="_2-6" class="cls-7" points="47.46 19.04 47.46 22.89 42.66 24.7 42.66 20.84 47.46 19.04"/><path id="_1-6" class="cls-8" d="m38.52,19.21l4.13,1.63,4.8-1.8-4.11-1.63-4.82,1.8Z"/></g><g><g id="_4-7"><polygon class="cls-6" points="38.52 14.77 43.35 12.97 47.46 14.59 47.46 18.45 42.66 20.25 38.55 18.64 38.55 14.78 38.52 14.77"/><path class="cls-5" d="m42.51,20.51l-4.11-1.6c-.12-.05-.2-.15-.2-.26v-3.76s-.03-.08-.03-.12c0-.11.08-.22.21-.26l4.82-1.8c.09-.04.2-.03.3,0l4.11,1.63c.12.05.2.15.2.26v3.85c0,.11-.08.22-.21.27l-4.8,1.8s-.1.03-.14.03-.1,0-.15-.03Zm4.6-5.73l-3.76-1.49-4.44,1.66v3.51s3.76,1.47,3.76,1.47l4.45-1.67v-3.48Z"/></g><polygon id="_3-7" class="cls-3" points="38.55 14.77 38.55 18.64 42.66 20.25 42.66 16.39 38.55 14.77"/><polygon id="_2-7" class="cls-7" points="47.46 14.59 47.46 18.45 42.66 20.25 42.66 16.39 47.46 14.59"/><path id="_1-7" class="cls-8" d="m38.52,14.77l4.13,1.63,4.8-1.8-4.11-1.63-4.82,1.8Z"/></g><g><g id="_4-8"><polygon class="cls-6" points="38.52 10.29 43.35 8.49 47.46 10.11 47.46 13.97 42.66 15.77 38.55 14.16 38.55 10.3 38.52 10.29"/><path class="cls-5" d="m42.51,16.03l-4.11-1.6c-.12-.05-.2-.15-.2-.26v-3.76s-.03-.08-.03-.12c0-.11.08-.22.21-.26l4.82-1.8c.09-.04.2-.03.3,0l4.11,1.63c.12.05.2.15.2.26v3.85c0,.11-.08.22-.21.27l-4.8,1.8s-.1.03-.14.03-.1,0-.15-.03Zm4.6-5.73l-3.76-1.49-4.44,1.66v3.51s3.76,1.47,3.76,1.47l4.45-1.67v-3.48Z"/></g><polygon id="_3-8" class="cls-3" points="38.55 10.29 38.55 14.16 42.66 15.77 42.66 11.91 38.55 10.29"/><polygon id="_2-8" class="cls-7" points="47.46 10.11 47.46 13.97 42.66 15.77 42.66 11.91 47.46 10.11"/><path id="_1-8" class="cls-8" d="m38.52,10.29l4.13,1.63,4.8-1.8-4.11-1.63-4.82,1.8Z"/></g><g><g id="_4-9"><polygon class="cls-6" points="43.67 25.8 48.49 24 52.61 25.63 52.61 29.5 47.81 31.3 43.7 29.7 43.7 25.81 43.67 25.8"/><path class="cls-5" d="m47.66,31.57l-4.11-1.61c-.12-.05-.2-.15-.2-.26v-3.78s-.03-.08-.03-.12c0-.11.08-.21.21-.26l4.82-1.8c.09-.04.2-.03.3,0l4.11,1.63c.12.05.2.15.2.26v3.87c0,.11-.08.22-.21.27l-4.8,1.8s-.1.03-.14.03-.1,0-.15-.03Zm4.6-5.75l-3.76-1.49-4.44,1.66v3.53s3.76,1.47,3.76,1.47l4.45-1.67v-3.5Z"/></g><polygon id="_3-9" class="cls-3" points="43.7 25.8 43.7 29.7 47.81 31.3 47.81 27.44 43.7 25.8"/><polygon id="_2-9" class="cls-7" points="52.61 25.63 52.61 29.5 47.81 31.3 47.81 27.44 52.61 25.63"/><path id="_1-9" class="cls-8" d="m43.67,25.8l4.13,1.63,4.8-1.81-4.11-1.63-4.82,1.8Z"/></g><g><g id="_4-10"><polygon class="cls-6" points="43.67 21.32 48.49 19.53 52.61 21.15 52.61 25.01 47.81 26.81 43.7 25.2 43.7 21.34 43.67 21.32"/><path class="cls-5" d="m47.66,27.07l-4.11-1.61c-.12-.05-.2-.15-.2-.26v-3.76s-.03-.08-.03-.12c0-.11.08-.22.21-.26l4.82-1.8c.09-.04.2-.03.29,0l4.11,1.63c.12.05.2.15.2.26v3.85c0,.11-.08.22-.21.27l-4.8,1.8s-.1.03-.14.03-.1,0-.15-.03Zm4.6-5.74l-3.76-1.49-4.44,1.66v3.51s3.76,1.47,3.76,1.47l4.45-1.67v-3.48Z"/></g><polygon id="_3-10" class="cls-3" points="43.7 21.32 43.7 25.2 47.81 26.81 47.81 22.95 43.7 21.32"/><polygon id="_2-10" class="cls-7" points="52.61 21.15 52.61 25.01 47.81 26.81 47.81 22.95 52.61 21.15"/><path id="_1-10" class="cls-8" d="m43.67,21.32l4.13,1.63,4.8-1.8-4.11-1.63-4.82,1.8Z"/></g><g><g id="_4-11"><polygon class="cls-6" points="43.67 16.88 48.49 15.08 52.61 16.71 52.61 20.56 47.81 22.36 43.7 20.76 43.7 16.89 43.67 16.88"/><path class="cls-5" d="m47.66,22.62l-4.11-1.6c-.12-.05-.2-.15-.2-.26v-3.76s-.03-.08-.03-.12c0-.11.08-.22.21-.26l4.82-1.8c.09-.04.2-.03.3,0l4.11,1.63c.12.05.2.15.2.26v3.85c0,.11-.08.22-.21.27l-4.8,1.8s-.1.03-.14.03-.1,0-.15-.03Zm4.6-5.73l-3.76-1.49-4.44,1.66v3.51s3.76,1.47,3.76,1.47l4.45-1.67v-3.48Z"/></g><polygon id="_3-11" class="cls-3" points="43.7 16.88 43.7 20.76 47.81 22.36 47.81 18.51 43.7 16.88"/><polygon id="_2-11" class="cls-7" points="52.61 16.71 52.61 20.56 47.81 22.36 47.81 18.51 52.61 16.71"/><path id="_1-11" class="cls-8" d="m43.67,16.88l4.13,1.63,4.8-1.8-4.11-1.63-4.82,1.8Z"/></g><g><g id="_4-12"><polygon class="cls-6" points="43.67 12.4 48.49 10.6 52.61 12.23 52.61 16.08 47.81 17.88 43.7 16.28 43.7 12.41 43.67 12.4"/><path class="cls-5" d="m47.66,18.14l-4.11-1.6c-.12-.05-.2-.15-.2-.26v-3.76s-.03-.08-.03-.12c0-.11.08-.22.21-.26l4.82-1.8c.09-.04.2-.03.3,0l4.11,1.63c.12.05.2.15.2.26v3.85c0,.11-.08.22-.21.27l-4.8,1.8s-.1.03-.14.03-.1,0-.15-.03Zm4.6-5.73l-3.76-1.49-4.44,1.66v3.51s3.76,1.47,3.76,1.47l4.45-1.67v-3.48Z"/></g><polygon id="_3-12" class="cls-3" points="43.7 12.4 43.7 16.28 47.81 17.88 47.81 14.03 43.7 12.4"/><polygon id="_2-12" class="cls-7" points="52.61 12.23 52.61 16.08 47.81 17.88 47.81 14.03 52.61 12.23"/><path id="_1-12" class="cls-8" d="m43.67,12.4l4.13,1.63,4.8-1.8-4.11-1.63-4.82,1.8Z"/></g><g><g id="_4-13"><polygon class="cls-6" points="48.6 27.91 53.42 26.11 57.53 27.74 57.53 31.61 52.73 33.42 48.63 31.81 48.63 27.93 48.6 27.91"/><path class="cls-5" d="m52.58,33.68l-4.11-1.61c-.12-.05-.2-.15-.2-.26v-3.78s-.03-.08-.03-.12c0-.11.08-.21.21-.26l4.82-1.8c.09-.04.2-.03.3,0l4.11,1.63c.12.05.2.15.2.26v3.87c0,.11-.08.22-.21.27l-4.8,1.8s-.1.03-.14.03-.1,0-.15-.03Zm4.6-5.75l-3.76-1.49-4.44,1.66v3.53s3.76,1.47,3.76,1.47l4.45-1.67v-3.5Z"/></g><polygon id="_3-13" class="cls-3" points="48.63 27.91 48.63 31.81 52.73 33.42 52.73 29.55 48.63 27.91"/><polygon id="_2-13" class="cls-7" points="57.53 27.74 57.53 31.61 52.73 33.42 52.73 29.55 57.53 27.74"/><path id="_1-13" class="cls-8" d="m48.6,27.91l4.13,1.63,4.8-1.81-4.11-1.63-4.82,1.8Z"/></g><g><g id="_4-14"><polygon class="cls-6" points="48.6 23.44 53.42 21.64 57.53 23.27 57.53 27.12 52.73 28.92 48.63 27.31 48.63 23.45 48.6 23.44"/><path class="cls-5" d="m52.58,29.19l-4.11-1.61c-.12-.05-.2-.15-.2-.26v-3.76s-.03-.08-.03-.12c0-.11.08-.22.21-.26l4.82-1.8c.09-.04.2-.03.29,0l4.11,1.63c.12.05.2.15.2.26v3.85c0,.11-.08.22-.21.27l-4.8,1.8s-.1.03-.14.03-.1,0-.15-.03Zm4.6-5.74l-3.76-1.49-4.44,1.66v3.51s3.76,1.47,3.76,1.47l4.45-1.67v-3.48Z"/></g><polygon id="_3-14" class="cls-3" points="48.63 23.44 48.63 27.31 52.73 28.92 52.73 25.07 48.63 23.44"/><polygon id="_2-14" class="cls-7" points="57.53 23.27 57.53 27.12 52.73 28.92 52.73 25.07 57.53 23.27"/><path id="_1-14" class="cls-8" d="m48.6,23.44l4.13,1.63,4.8-1.8-4.11-1.63-4.82,1.8Z"/></g><g><g id="_4-15"><polygon class="cls-6" points="48.6 18.99 53.42 17.19 57.53 18.82 57.53 22.67 52.73 24.47 48.63 22.87 48.63 19 48.6 18.99"/><path class="cls-5" d="m52.58,24.74l-4.11-1.6c-.12-.05-.2-.15-.2-.26v-3.76s-.03-.08-.03-.12c0-.11.08-.22.21-.26l4.82-1.8c.09-.04.2-.03.3,0l4.11,1.63c.12.05.2.15.2.26v3.85c0,.11-.08.22-.21.27l-4.8,1.8s-.1.03-.14.03-.1,0-.15-.03Zm4.6-5.73l-3.76-1.49-4.44,1.66v3.51s3.76,1.47,3.76,1.47l4.45-1.67v-3.48Z"/></g><polygon id="_3-15" class="cls-3" points="48.63 18.99 48.63 22.87 52.73 24.47 52.73 20.62 48.63 18.99"/><polygon id="_2-15" class="cls-7" points="57.53 18.82 57.53 22.67 52.73 24.47 52.73 20.62 57.53 18.82"/><path id="_1-15" class="cls-8" d="m48.6,18.99l4.13,1.63,4.8-1.8-4.11-1.63-4.82,1.8Z"/></g><g><g id="_4-16"><polygon class="cls-6" points="48.6 14.51 53.42 12.71 57.53 14.34 57.53 18.19 52.73 19.99 48.63 18.39 48.63 14.52 48.6 14.51"/><path class="cls-5" d="m52.58,20.26l-4.11-1.6c-.12-.05-.2-.15-.2-.26v-3.76s-.03-.08-.03-.12c0-.11.08-.22.21-.26l4.82-1.8c.09-.04.2-.03.3,0l4.11,1.63c.12.05.2.15.2.26v3.85c0,.11-.08.22-.21.27l-4.8,1.8s-.1.03-.14.03-.1,0-.15-.03Zm4.6-5.73l-3.76-1.49-4.44,1.66v3.51s3.76,1.47,3.76,1.47l4.45-1.67v-3.48Z"/></g><polygon id="_3-16" class="cls-3" points="48.63 14.51 48.63 18.39 52.73 19.99 52.73 16.14 48.63 14.51"/><polygon id="_2-16" class="cls-7" points="57.53 14.34 57.53 18.19 52.73 19.99 52.73 16.14 57.53 14.34"/><path id="_1-16" class="cls-8" d="m48.6,14.51l4.13,1.63,4.8-1.8-4.11-1.63-4.82,1.8Z"/></g></g><g id="AAAA_OK_2_copy_6"><g><g id="_4-17"><polygon class="cls-6" points="20.6 22.58 25.42 20.78 29.53 22.41 29.53 26.28 24.73 28.08 20.62 26.47 20.62 22.59 20.6 22.58"/><path class="cls-5" d="m24.58,28.34l-4.11-1.61c-.12-.05-.2-.15-.2-.26v-3.78s-.03-.08-.03-.12c0-.11.08-.21.21-.26l4.82-1.8c.09-.04.2-.03.3,0l4.11,1.63c.12.05.2.15.2.26v3.87c0,.11-.08.22-.21.27l-4.8,1.8s-.1.03-.14.03-.1,0-.15-.03Zm4.6-5.75l-3.76-1.49-4.44,1.66v3.53s3.76,1.47,3.76,1.47l4.45-1.67v-3.5Z"/></g><polygon id="_3-17" class="cls-3" points="20.62 22.58 20.62 26.47 24.73 28.08 24.73 24.21 20.62 22.58"/><polygon id="_2-17" class="cls-7" points="29.53 22.41 29.53 26.28 24.73 28.08 24.73 24.21 29.53 22.41"/><path id="_1-17" class="cls-8" d="m20.6,22.58l4.13,1.63,4.8-1.81-4.11-1.63-4.82,1.8Z"/></g><g><g id="_4-18"><polygon class="cls-6" points="20.6 18.1 25.42 16.3 29.53 17.93 29.53 21.78 24.73 23.58 20.62 21.98 20.62 18.11 20.6 18.1"/><path class="cls-5" d="m24.58,23.85l-4.11-1.61c-.12-.05-.2-.15-.2-.26v-3.76s-.03-.08-.03-.12c0-.11.08-.22.21-.26l4.82-1.8c.09-.04.2-.03.29,0l4.11,1.63c.12.05.2.15.2.26v3.85c0,.11-.08.22-.21.27l-4.8,1.8s-.1.03-.14.03-.1,0-.15-.03Zm4.6-5.74l-3.76-1.49-4.44,1.66v3.51s3.76,1.47,3.76,1.47l4.45-1.67v-3.48Z"/></g><polygon id="_3-18" class="cls-3" points="20.62 18.1 20.62 21.98 24.73 23.58 24.73 19.73 20.62 18.1"/><polygon id="_2-18" class="cls-7" points="29.53 17.93 29.53 21.78 24.73 23.58 24.73 19.73 29.53 17.93"/><path id="_1-18" class="cls-8" d="m20.6,18.1l4.13,1.63,4.8-1.8-4.11-1.63-4.82,1.8Z"/></g><g><g id="_4-19"><polygon class="cls-6" points="20.6 13.66 25.42 11.86 29.53 13.48 29.53 17.33 24.73 19.14 20.62 17.53 20.62 13.67 20.6 13.66"/><path class="cls-5" d="m24.58,19.4l-4.11-1.6c-.12-.05-.2-.15-.2-.26v-3.76s-.03-.08-.03-.12c0-.11.08-.22.21-.26l4.82-1.8c.09-.04.2-.03.3,0l4.11,1.63c.12.05.2.15.2.26v3.85c0,.11-.08.22-.21.27l-4.8,1.8s-.1.03-.14.03-.1,0-.15-.03Zm4.6-5.73l-3.76-1.49-4.44,1.66v3.51s3.76,1.47,3.76,1.47l4.45-1.67v-3.48Z"/></g><polygon id="_3-19" class="cls-3" points="20.62 13.66 20.62 17.53 24.73 19.14 24.73 15.28 20.62 13.66"/><polygon id="_2-19" class="cls-7" points="29.53 13.48 29.53 17.33 24.73 19.14 24.73 15.28 29.53 13.48"/><path id="_1-19" class="cls-8" d="m20.6,13.66l4.13,1.63,4.8-1.8-4.11-1.63-4.82,1.8Z"/></g><g><g id="_4-20"><polygon class="cls-6" points="20.6 9.17 25.42 7.38 29.53 9 29.53 12.85 24.73 14.66 20.62 13.05 20.62 9.19 20.6 9.17"/><path class="cls-5" d="m24.58,14.92l-4.11-1.6c-.12-.05-.2-.15-.2-.26v-3.76s-.03-.08-.03-.12c0-.11.08-.22.21-.26l4.82-1.8c.09-.04.2-.03.3,0l4.11,1.63c.12.05.2.15.2.26v3.85c0,.11-.08.22-.21.27l-4.8,1.8s-.1.03-.14.03-.1,0-.15-.03Zm4.6-5.73l-3.76-1.49-4.44,1.66v3.51s3.76,1.47,3.76,1.47l4.45-1.67v-3.48Z"/></g><polygon id="_3-20" class="cls-3" points="20.62 9.17 20.62 13.05 24.73 14.66 24.73 10.8 20.62 9.17"/><polygon id="_2-20" class="cls-7" points="29.53 9 29.53 12.85 24.73 14.66 24.73 10.8 29.53 9"/><path id="_1-20" class="cls-8" d="m20.6,9.17l4.13,1.63,4.8-1.8-4.11-1.63-4.82,1.8Z"/></g><g><g id="_4-21"><polygon class="cls-6" points="25.52 24.69 30.35 22.89 34.46 24.52 34.46 28.39 29.66 30.19 25.55 28.59 25.55 24.7 25.52 24.69"/><path class="cls-5" d="m29.51,30.46l-4.11-1.61c-.12-.05-.2-.15-.2-.26v-3.78s-.03-.08-.03-.12c0-.11.08-.21.21-.26l4.82-1.8c.09-.04.2-.03.3,0l4.11,1.63c.12.05.2.15.2.26v3.87c0,.11-.08.22-.21.27l-4.8,1.8s-.1.03-.14.03-.1,0-.15-.03Zm4.6-5.75l-3.76-1.49-4.44,1.66v3.53s3.76,1.47,3.76,1.47l4.45-1.67v-3.5Z"/></g><polygon id="_3-21" class="cls-3" points="25.55 24.69 25.55 28.59 29.66 30.19 29.66 26.32 25.55 24.69"/><polygon id="_2-21" class="cls-7" points="34.46 24.52 34.46 28.39 29.66 30.19 29.66 26.32 34.46 24.52"/><path id="_1-21" class="cls-8" d="m25.52,24.69l4.13,1.63,4.8-1.81-4.11-1.63-4.82,1.8Z"/></g><g><g id="_4-22"><polygon class="cls-6" points="25.52 20.21 30.35 18.41 34.46 20.04 34.46 23.89 29.66 25.7 25.55 24.09 25.55 20.22 25.52 20.21"/><path class="cls-5" d="m29.51,25.96l-4.11-1.61c-.12-.05-.2-.15-.2-.26v-3.76s-.03-.08-.03-.12c0-.11.08-.22.21-.26l4.82-1.8c.09-.04.2-.03.29,0l4.11,1.63c.12.05.2.15.2.26v3.85c0,.11-.08.22-.21.27l-4.8,1.8s-.1.03-.14.03-.1,0-.15-.03Zm4.6-5.74l-3.76-1.49-4.44,1.66v3.51s3.76,1.47,3.76,1.47l4.45-1.67v-3.48Z"/></g><polygon id="_3-22" class="cls-3" points="25.55 20.21 25.55 24.09 29.66 25.7 29.66 21.84 25.55 20.21"/><polygon id="_2-22" class="cls-7" points="34.46 20.04 34.46 23.89 29.66 25.7 29.66 21.84 34.46 20.04"/><path id="_1-22" class="cls-8" d="m25.52,20.21l4.13,1.63,4.8-1.8-4.11-1.63-4.82,1.8Z"/></g><g><g id="_4-23"><polygon class="cls-6" points="25.52 15.77 30.35 13.97 34.46 15.59 34.46 19.45 29.66 21.25 25.55 19.64 25.55 15.78 25.52 15.77"/><path class="cls-5" d="m29.51,21.51l-4.11-1.6c-.12-.05-.2-.15-.2-.26v-3.76s-.03-.08-.03-.12c0-.11.08-.22.21-.26l4.82-1.8c.09-.04.2-.03.3,0l4.11,1.63c.12.05.2.15.2.26v3.85c0,.11-.08.22-.21.27l-4.8,1.8s-.1.03-.14.03-.1,0-.15-.03Zm4.6-5.73l-3.76-1.49-4.44,1.66v3.51s3.76,1.47,3.76,1.47l4.45-1.67v-3.48Z"/></g><polygon id="_3-23" class="cls-3" points="25.55 15.77 25.55 19.64 29.66 21.25 29.66 17.39 25.55 15.77"/><polygon id="_2-23" class="cls-7" points="34.46 15.59 34.46 19.45 29.66 21.25 29.66 17.39 34.46 15.59"/><path id="_1-23" class="cls-8" d="m25.52,15.77l4.13,1.63,4.8-1.8-4.11-1.63-4.82,1.8Z"/></g><g><g id="_4-24"><polygon class="cls-6" points="25.52 11.29 30.35 9.49 34.46 11.11 34.46 14.97 29.66 16.77 25.55 15.16 25.55 11.3 25.52 11.29"/><path class="cls-5" d="m29.51,17.03l-4.11-1.6c-.12-.05-.2-.15-.2-.26v-3.76s-.03-.08-.03-.12c0-.11.08-.22.21-.26l4.82-1.8c.09-.04.2-.03.3,0l4.11,1.63c.12.05.2.15.2.26v3.85c0,.11-.08.22-.21.27l-4.8,1.8s-.1.03-.14.03-.1,0-.15-.03Zm4.6-5.73l-3.76-1.49-4.44,1.66v3.51s3.76,1.47,3.76,1.47l4.45-1.67v-3.48Z"/></g><polygon id="_3-24" class="cls-3" points="25.55 11.29 25.55 15.16 29.66 16.77 29.66 12.91 25.55 11.29"/><polygon id="_2-24" class="cls-7" points="34.46 11.11 34.46 14.97 29.66 16.77 29.66 12.91 34.46 11.11"/><path id="_1-24" class="cls-8" d="m25.52,11.29l4.13,1.63,4.8-1.8-4.11-1.63-4.82,1.8Z"/></g><g><g id="_4-25"><polygon class="cls-6" points="30.67 26.8 35.49 25 39.61 26.63 39.61 30.5 34.81 32.3 30.7 30.7 30.7 26.81 30.67 26.8"/><path class="cls-5" d="m34.66,32.57l-4.11-1.61c-.12-.05-.2-.15-.2-.26v-3.78s-.03-.08-.03-.12c0-.11.08-.21.21-.26l4.82-1.8c.09-.04.2-.03.3,0l4.11,1.63c.12.05.2.15.2.26v3.87c0,.11-.08.22-.21.27l-4.8,1.8s-.1.03-.14.03-.1,0-.15-.03Zm4.6-5.75l-3.76-1.49-4.44,1.66v3.53s3.76,1.47,3.76,1.47l4.45-1.67v-3.5Z"/></g><polygon id="_3-25" class="cls-3" points="30.7 26.8 30.7 30.7 34.81 32.3 34.81 28.44 30.7 26.8"/><polygon id="_2-25" class="cls-7" points="39.61 26.63 39.61 30.5 34.81 32.3 34.81 28.44 39.61 26.63"/><path id="_1-25" class="cls-8" d="m30.67,26.8l4.13,1.63,4.8-1.81-4.11-1.63-4.82,1.8Z"/></g><g><g id="_4-26"><polygon class="cls-6" points="30.67 22.32 35.49 20.53 39.61 22.15 39.61 26.01 34.81 27.81 30.7 26.2 30.7 22.34 30.67 22.32"/><path class="cls-5" d="m34.66,28.07l-4.11-1.61c-.12-.05-.2-.15-.2-.26v-3.76s-.03-.08-.03-.12c0-.11.08-.22.21-.26l4.82-1.8c.09-.04.2-.03.29,0l4.11,1.63c.12.05.2.15.2.26v3.85c0,.11-.08.22-.21.27l-4.8,1.8s-.1.03-.14.03-.1,0-.15-.03Zm4.6-5.74l-3.76-1.49-4.44,1.66v3.51s3.76,1.47,3.76,1.47l4.45-1.67v-3.48Z"/></g><polygon id="_3-26" class="cls-3" points="30.7 22.32 30.7 26.2 34.81 27.81 34.81 23.95 30.7 22.32"/><polygon id="_2-26" class="cls-7" points="39.61 22.15 39.61 26.01 34.81 27.81 34.81 23.95 39.61 22.15"/><path id="_1-26" class="cls-8" d="m30.67,22.32l4.13,1.63,4.8-1.8-4.11-1.63-4.82,1.8Z"/></g><g><g id="_4-27"><polygon class="cls-6" points="30.67 17.88 35.49 16.08 39.61 17.71 39.61 21.56 34.81 23.36 30.7 21.76 30.7 17.89 30.67 17.88"/><path class="cls-5" d="m34.66,23.62l-4.11-1.6c-.12-.05-.2-.15-.2-.26v-3.76s-.03-.08-.03-.12c0-.11.08-.22.21-.26l4.82-1.8c.09-.04.2-.03.3,0l4.11,1.63c.12.05.2.15.2.26v3.85c0,.11-.08.22-.21.27l-4.8,1.8s-.1.03-.14.03-.1,0-.15-.03Zm4.6-5.73l-3.76-1.49-4.44,1.66v3.51s3.76,1.47,3.76,1.47l4.45-1.67v-3.48Z"/></g><polygon id="_3-27" class="cls-3" points="30.7 17.88 30.7 21.76 34.81 23.36 34.81 19.51 30.7 17.88"/><polygon id="_2-27" class="cls-7" points="39.61 17.71 39.61 21.56 34.81 23.36 34.81 19.51 39.61 17.71"/><path id="_1-27" class="cls-8" d="m30.67,17.88l4.13,1.63,4.8-1.8-4.11-1.63-4.82,1.8Z"/></g><g><g id="_4-28"><polygon class="cls-6" points="30.67 13.4 35.49 11.6 39.61 13.23 39.61 17.08 34.81 18.88 30.7 17.28 30.7 13.41 30.67 13.4"/><path class="cls-5" d="m34.66,19.14l-4.11-1.6c-.12-.05-.2-.15-.2-.26v-3.76s-.03-.08-.03-.12c0-.11.08-.22.21-.26l4.82-1.8c.09-.04.2-.03.3,0l4.11,1.63c.12.05.2.15.2.26v3.85c0,.11-.08.22-.21.27l-4.8,1.8s-.1.03-.14.03-.1,0-.15-.03Zm4.6-5.73l-3.76-1.49-4.44,1.66v3.51s3.76,1.47,3.76,1.47l4.45-1.67v-3.48Z"/></g><polygon id="_3-28" class="cls-3" points="30.7 13.4 30.7 17.28 34.81 18.88 34.81 15.03 30.7 13.4"/><polygon id="_2-28" class="cls-7" points="39.61 13.23 39.61 17.08 34.81 18.88 34.81 15.03 39.61 13.23"/><path id="_1-28" class="cls-8" d="m30.67,13.4l4.13,1.63,4.8-1.8-4.11-1.63-4.82,1.8Z"/></g><g><g id="_4-29"><polygon class="cls-6" points="35.6 28.91 40.42 27.11 44.53 28.74 44.53 32.61 39.73 34.42 35.63 32.81 35.63 28.93 35.6 28.91"/><path class="cls-5" d="m39.58,34.68l-4.11-1.61c-.12-.05-.2-.15-.2-.26v-3.78s-.03-.08-.03-.12c0-.11.08-.21.21-.26l4.82-1.8c.09-.04.2-.03.3,0l4.11,1.63c.12.05.2.15.2.26v3.87c0,.11-.08.22-.21.27l-4.8,1.8s-.1.03-.14.03-.1,0-.15-.03Zm4.6-5.75l-3.76-1.49-4.44,1.66v3.53s3.76,1.47,3.76,1.47l4.45-1.67v-3.5Z"/></g><polygon id="_3-29" class="cls-3" points="35.63 28.91 35.63 32.81 39.73 34.42 39.73 30.55 35.63 28.91"/><polygon id="_2-29" class="cls-7" points="44.53 28.74 44.53 32.61 39.73 34.42 39.73 30.55 44.53 28.74"/><path id="_1-29" class="cls-8" d="m35.6,28.91l4.13,1.63,4.8-1.81-4.11-1.63-4.82,1.8Z"/></g><g><g id="_4-30"><polygon class="cls-6" points="35.6 24.44 40.42 22.64 44.53 24.27 44.53 28.12 39.73 29.92 35.63 28.31 35.63 24.45 35.6 24.44"/><path class="cls-5" d="m39.58,30.19l-4.11-1.61c-.12-.05-.2-.15-.2-.26v-3.76s-.03-.08-.03-.12c0-.11.08-.22.21-.26l4.82-1.8c.09-.04.2-.03.29,0l4.11,1.63c.12.05.2.15.2.26v3.85c0,.11-.08.22-.21.27l-4.8,1.8s-.1.03-.14.03-.1,0-.15-.03Zm4.6-5.74l-3.76-1.49-4.44,1.66v3.51s3.76,1.47,3.76,1.47l4.45-1.67v-3.48Z"/></g><polygon id="_3-30" class="cls-3" points="35.63 24.44 35.63 28.31 39.73 29.92 39.73 26.07 35.63 24.44"/><polygon id="_2-30" class="cls-7" points="44.53 24.27 44.53 28.12 39.73 29.92 39.73 26.07 44.53 24.27"/><path id="_1-30" class="cls-8" d="m35.6,24.44l4.13,1.63,4.8-1.8-4.11-1.63-4.82,1.8Z"/></g><g><g id="_4-31"><polygon class="cls-6" points="35.6 19.99 40.42 18.19 44.53 19.82 44.53 23.67 39.73 25.47 35.63 23.87 35.63 20 35.6 19.99"/><path class="cls-5" d="m39.58,25.74l-4.11-1.6c-.12-.05-.2-.15-.2-.26v-3.76s-.03-.08-.03-.12c0-.11.08-.22.21-.26l4.82-1.8c.09-.04.2-.03.3,0l4.11,1.63c.12.05.2.15.2.26v3.85c0,.11-.08.22-.21.27l-4.8,1.8s-.1.03-.14.03-.1,0-.15-.03Zm4.6-5.73l-3.76-1.49-4.44,1.66v3.51s3.76,1.47,3.76,1.47l4.45-1.67v-3.48Z"/></g><polygon id="_3-31" class="cls-3" points="35.63 19.99 35.63 23.87 39.73 25.47 39.73 21.62 35.63 19.99"/><polygon id="_2-31" class="cls-7" points="44.53 19.82 44.53 23.67 39.73 25.47 39.73 21.62 44.53 19.82"/><path id="_1-31" class="cls-8" d="m35.6,19.99l4.13,1.63,4.8-1.8-4.11-1.63-4.82,1.8Z"/></g><g><g id="_4-32"><polygon class="cls-6" points="35.6 15.51 40.42 13.71 44.53 15.34 44.53 19.19 39.73 20.99 35.63 19.39 35.63 15.52 35.6 15.51"/><path class="cls-5" d="m39.58,21.26l-4.11-1.6c-.12-.05-.2-.15-.2-.26v-3.76s-.03-.08-.03-.12c0-.11.08-.22.21-.26l4.82-1.8c.09-.04.2-.03.3,0l4.11,1.63c.12.05.2.15.2.26v3.85c0,.11-.08.22-.21.27l-4.8,1.8s-.1.03-.14.03-.1,0-.15-.03Zm4.6-5.73l-3.76-1.49-4.44,1.66v3.51s3.76,1.47,3.76,1.47l4.45-1.67v-3.48Z"/></g><polygon id="_3-32" class="cls-3" points="35.63 15.51 35.63 19.39 39.73 20.99 39.73 17.14 35.63 15.51"/><polygon id="_2-32" class="cls-7" points="44.53 15.34 44.53 19.19 39.73 20.99 39.73 17.14 44.53 15.34"/><path id="_1-32" class="cls-8" d="m35.6,15.51l4.13,1.63,4.8-1.8-4.11-1.63-4.82,1.8Z"/></g></g><g id="AAAA_OK_2_copy_6-2"><g><g id="_4-33"><polygon class="cls-6" points="7.6 24.58 12.42 22.78 16.53 24.41 16.53 28.28 11.73 30.08 7.62 28.47 7.62 24.59 7.6 24.58"/><path class="cls-5" d="m11.58,30.34l-4.11-1.61c-.12-.05-.2-.15-.2-.26v-3.78s-.03-.08-.03-.12c0-.11.08-.21.21-.26l4.82-1.8c.09-.04.2-.03.3,0l4.11,1.63c.12.05.2.15.2.26v3.87c0,.11-.08.22-.21.27l-4.8,1.8s-.1.03-.14.03-.1,0-.15-.03Zm4.6-5.75l-3.76-1.49-4.44,1.66v3.53s3.76,1.47,3.76,1.47l4.45-1.67v-3.5Z"/></g><polygon id="_3-33" class="cls-3" points="7.62 24.58 7.62 28.47 11.73 30.08 11.73 26.21 7.62 24.58"/><polygon id="_2-33" class="cls-7" points="16.53 24.41 16.53 28.28 11.73 30.08 11.73 26.21 16.53 24.41"/><path id="_1-33" class="cls-8" d="m7.6,24.58l4.13,1.63,4.8-1.81-4.11-1.63-4.82,1.8Z"/></g><g><g id="_4-34"><polygon class="cls-6" points="7.6 20.1 12.42 18.3 16.53 19.93 16.53 23.78 11.73 25.58 7.62 23.98 7.62 20.11 7.6 20.1"/><path class="cls-5" d="m11.58,25.85l-4.11-1.61c-.12-.05-.2-.15-.2-.26v-3.76s-.03-.08-.03-.12c0-.11.08-.22.21-.26l4.82-1.8c.09-.04.2-.03.29,0l4.11,1.63c.12.05.2.15.2.26v3.85c0,.11-.08.22-.21.27l-4.8,1.8s-.1.03-.14.03-.1,0-.15-.03Zm4.6-5.74l-3.76-1.49-4.44,1.66v3.51s3.76,1.47,3.76,1.47l4.45-1.67v-3.48Z"/></g><polygon id="_3-34" class="cls-3" points="7.62 20.1 7.62 23.98 11.73 25.58 11.73 21.73 7.62 20.1"/><polygon id="_2-34" class="cls-7" points="16.53 19.93 16.53 23.78 11.73 25.58 11.73 21.73 16.53 19.93"/><path id="_1-34" class="cls-8" d="m7.6,20.1l4.13,1.63,4.8-1.8-4.11-1.63-4.82,1.8Z"/></g><g><g id="_4-35"><polygon class="cls-6" points="7.6 15.66 12.42 13.86 16.53 15.48 16.53 19.33 11.73 21.14 7.62 19.53 7.62 15.67 7.6 15.66"/><path class="cls-5" d="m11.58,21.4l-4.11-1.6c-.12-.05-.2-.15-.2-.26v-3.76s-.03-.08-.03-.12c0-.11.08-.22.21-.26l4.82-1.8c.09-.04.2-.03.3,0l4.11,1.63c.12.05.2.15.2.26v3.85c0,.11-.08.22-.21.27l-4.8,1.8s-.1.03-.14.03-.1,0-.15-.03Zm4.6-5.73l-3.76-1.49-4.44,1.66v3.51s3.76,1.47,3.76,1.47l4.45-1.67v-3.48Z"/></g><polygon id="_3-35" class="cls-3" points="7.62 15.66 7.62 19.53 11.73 21.14 11.73 17.28 7.62 15.66"/><polygon id="_2-35" class="cls-7" points="16.53 15.48 16.53 19.33 11.73 21.14 11.73 17.28 16.53 15.48"/><path id="_1-35" class="cls-8" d="m7.6,15.66l4.13,1.63,4.8-1.8-4.11-1.63-4.82,1.8Z"/></g><g><g id="_4-36"><polygon class="cls-6" points="7.6 11.17 12.42 9.38 16.53 11 16.53 14.85 11.73 16.66 7.62 15.05 7.62 11.19 7.6 11.17"/><path class="cls-5" d="m11.58,16.92l-4.11-1.6c-.12-.05-.2-.15-.2-.26v-3.76s-.03-.08-.03-.12c0-.11.08-.22.21-.26l4.82-1.8c.09-.04.2-.03.3,0l4.11,1.63c.12.05.2.15.2.26v3.85c0,.11-.08.22-.21.27l-4.8,1.8s-.1.03-.14.03-.1,0-.15-.03Zm4.6-5.73l-3.76-1.49-4.44,1.66v3.51s3.76,1.47,3.76,1.47l4.45-1.67v-3.48Z"/></g><polygon id="_3-36" class="cls-3" points="7.62 11.17 7.62 15.05 11.73 16.66 11.73 12.8 7.62 11.17"/><polygon id="_2-36" class="cls-7" points="16.53 11 16.53 14.85 11.73 16.66 11.73 12.8 16.53 11"/><path id="_1-36" class="cls-8" d="m7.6,11.17l4.13,1.63,4.8-1.8-4.11-1.63-4.82,1.8Z"/></g><g><g id="_4-37"><polygon class="cls-6" points="12.52 26.69 17.35 24.89 21.46 26.52 21.46 30.39 16.66 32.19 12.55 30.59 12.55 26.7 12.52 26.69"/><path class="cls-5" d="m16.51,32.46l-4.11-1.61c-.12-.05-.2-.15-.2-.26v-3.78s-.03-.08-.03-.12c0-.11.08-.21.21-.26l4.82-1.8c.09-.04.2-.03.3,0l4.11,1.63c.12.05.2.15.2.26v3.87c0,.11-.08.22-.21.27l-4.8,1.8s-.1.03-.14.03-.1,0-.15-.03Zm4.6-5.75l-3.76-1.49-4.44,1.66v3.53s3.76,1.47,3.76,1.47l4.45-1.67v-3.5Z"/></g><polygon id="_3-37" class="cls-3" points="12.55 26.69 12.55 30.59 16.66 32.19 16.66 28.32 12.55 26.69"/><polygon id="_2-37" class="cls-7" points="21.46 26.52 21.46 30.39 16.66 32.19 16.66 28.32 21.46 26.52"/><path id="_1-37" class="cls-8" d="m12.52,26.69l4.13,1.63,4.8-1.81-4.11-1.63-4.82,1.8Z"/></g><g><g id="_4-38"><polygon class="cls-6" points="12.52 22.21 17.35 20.41 21.46 22.04 21.46 25.89 16.66 27.7 12.55 26.09 12.55 22.22 12.52 22.21"/><path class="cls-5" d="m16.51,27.96l-4.11-1.61c-.12-.05-.2-.15-.2-.26v-3.76s-.03-.08-.03-.12c0-.11.08-.22.21-.26l4.82-1.8c.09-.04.2-.03.29,0l4.11,1.63c.12.05.2.15.2.26v3.85c0,.11-.08.22-.21.27l-4.8,1.8s-.1.03-.14.03-.1,0-.15-.03Zm4.6-5.74l-3.76-1.49-4.44,1.66v3.51s3.76,1.47,3.76,1.47l4.45-1.67v-3.48Z"/></g><polygon id="_3-38" class="cls-3" points="12.55 22.21 12.55 26.09 16.66 27.7 16.66 23.84 12.55 22.21"/><polygon id="_2-38" class="cls-7" points="21.46 22.04 21.46 25.89 16.66 27.7 16.66 23.84 21.46 22.04"/><path id="_1-38" class="cls-8" d="m12.52,22.21l4.13,1.63,4.8-1.8-4.11-1.63-4.82,1.8Z"/></g><g><g id="_4-39"><polygon class="cls-6" points="12.52 17.77 17.35 15.97 21.46 17.59 21.46 21.45 16.66 23.25 12.55 21.64 12.55 17.78 12.52 17.77"/><path class="cls-5" d="m16.51,23.51l-4.11-1.6c-.12-.05-.2-.15-.2-.26v-3.76s-.03-.08-.03-.12c0-.11.08-.22.21-.26l4.82-1.8c.09-.04.2-.03.3,0l4.11,1.63c.12.05.2.15.2.26v3.85c0,.11-.08.22-.21.27l-4.8,1.8s-.1.03-.14.03-.1,0-.15-.03Zm4.6-5.73l-3.76-1.49-4.44,1.66v3.51s3.76,1.47,3.76,1.47l4.45-1.67v-3.48Z"/></g><polygon id="_3-39" class="cls-3" points="12.55 17.77 12.55 21.64 16.66 23.25 16.66 19.39 12.55 17.77"/><polygon id="_2-39" class="cls-7" points="21.46 17.59 21.46 21.45 16.66 23.25 16.66 19.39 21.46 17.59"/><path id="_1-39" class="cls-8" d="m12.52,17.77l4.13,1.63,4.8-1.8-4.11-1.63-4.82,1.8Z"/></g><g><g id="_4-40"><polygon class="cls-6" points="12.52 13.29 17.35 11.49 21.46 13.11 21.46 16.97 16.66 18.77 12.55 17.16 12.55 13.3 12.52 13.29"/><path class="cls-5" d="m16.51,19.03l-4.11-1.6c-.12-.05-.2-.15-.2-.26v-3.76s-.03-.08-.03-.12c0-.11.08-.22.21-.26l4.82-1.8c.09-.04.2-.03.3,0l4.11,1.63c.12.05.2.15.2.26v3.85c0,.11-.08.22-.21.27l-4.8,1.8s-.1.03-.14.03-.1,0-.15-.03Zm4.6-5.73l-3.76-1.49-4.44,1.66v3.51s3.76,1.47,3.76,1.47l4.45-1.67v-3.48Z"/></g><polygon id="_3-40" class="cls-3" points="12.55 13.29 12.55 17.16 16.66 18.77 16.66 14.91 12.55 13.29"/><polygon id="_2-40" class="cls-7" points="21.46 13.11 21.46 16.97 16.66 18.77 16.66 14.91 21.46 13.11"/><path id="_1-40" class="cls-8" d="m12.52,13.29l4.13,1.63,4.8-1.8-4.11-1.63-4.82,1.8Z"/></g><g><g id="_4-41"><polygon class="cls-6" points="17.67 28.8 22.49 27 26.61 28.63 26.61 32.5 21.81 34.3 17.7 32.7 17.7 28.81 17.67 28.8"/><path class="cls-5" d="m21.66,34.57l-4.11-1.61c-.12-.05-.2-.15-.2-.26v-3.78s-.03-.08-.03-.12c0-.11.08-.21.21-.26l4.82-1.8c.09-.04.2-.03.3,0l4.11,1.63c.12.05.2.15.2.26v3.87c0,.11-.08.22-.21.27l-4.8,1.8s-.1.03-.14.03-.1,0-.15-.03Zm4.6-5.75l-3.76-1.49-4.44,1.66v3.53s3.76,1.47,3.76,1.47l4.45-1.67v-3.5Z"/></g><polygon id="_3-41" class="cls-3" points="17.7 28.8 17.7 32.7 21.81 34.3 21.81 30.44 17.7 28.8"/><polygon id="_2-41" class="cls-7" points="26.61 28.63 26.61 32.5 21.81 34.3 21.81 30.44 26.61 28.63"/><path id="_1-41" class="cls-8" d="m17.67,28.8l4.13,1.63,4.8-1.81-4.11-1.63-4.82,1.8Z"/></g><g><g id="_4-42"><polygon class="cls-6" points="17.67 24.32 22.49 22.53 26.61 24.15 26.61 28.01 21.81 29.81 17.7 28.2 17.7 24.34 17.67 24.32"/><path class="cls-5" d="m21.66,30.07l-4.11-1.61c-.12-.05-.2-.15-.2-.26v-3.76s-.03-.08-.03-.12c0-.11.08-.22.21-.26l4.82-1.8c.09-.04.2-.03.29,0l4.11,1.63c.12.05.2.15.2.26v3.85c0,.11-.08.22-.21.27l-4.8,1.8s-.1.03-.14.03-.1,0-.15-.03Zm4.6-5.74l-3.76-1.49-4.44,1.66v3.51s3.76,1.47,3.76,1.47l4.45-1.67v-3.48Z"/></g><polygon id="_3-42" class="cls-3" points="17.7 24.32 17.7 28.2 21.81 29.81 21.81 25.95 17.7 24.32"/><polygon id="_2-42" class="cls-7" points="26.61 24.15 26.61 28.01 21.81 29.81 21.81 25.95 26.61 24.15"/><path id="_1-42" class="cls-8" d="m17.67,24.32l4.13,1.63,4.8-1.8-4.11-1.63-4.82,1.8Z"/></g><g><g id="_4-43"><polygon class="cls-6" points="17.67 19.88 22.49 18.08 26.61 19.71 26.61 23.56 21.81 25.36 17.7 23.76 17.7 19.89 17.67 19.88"/><path class="cls-5" d="m21.66,25.62l-4.11-1.6c-.12-.05-.2-.15-.2-.26v-3.76s-.03-.08-.03-.12c0-.11.08-.22.21-.26l4.82-1.8c.09-.04.2-.03.3,0l4.11,1.63c.12.05.2.15.2.26v3.85c0,.11-.08.22-.21.27l-4.8,1.8s-.1.03-.14.03-.1,0-.15-.03Zm4.6-5.73l-3.76-1.49-4.44,1.66v3.51s3.76,1.47,3.76,1.47l4.45-1.67v-3.48Z"/></g><polygon id="_3-43" class="cls-3" points="17.7 19.88 17.7 23.76 21.81 25.36 21.81 21.51 17.7 19.88"/><polygon id="_2-43" class="cls-7" points="26.61 19.71 26.61 23.56 21.81 25.36 21.81 21.51 26.61 19.71"/><path id="_1-43" class="cls-8" d="m17.67,19.88l4.13,1.63,4.8-1.8-4.11-1.63-4.82,1.8Z"/></g><g><g id="_4-44"><polygon class="cls-6" points="17.67 15.4 22.49 13.6 26.61 15.23 26.61 19.08 21.81 20.88 17.7 19.28 17.7 15.41 17.67 15.4"/><path class="cls-5" d="m21.66,21.14l-4.11-1.6c-.12-.05-.2-.15-.2-.26v-3.76s-.03-.08-.03-.12c0-.11.08-.22.21-.26l4.82-1.8c.09-.04.2-.03.3,0l4.11,1.63c.12.05.2.15.2.26v3.85c0,.11-.08.22-.21.27l-4.8,1.8s-.1.03-.14.03-.1,0-.15-.03Zm4.6-5.73l-3.76-1.49-4.44,1.66v3.51s3.76,1.47,3.76,1.47l4.45-1.67v-3.48Z"/></g><polygon id="_3-44" class="cls-3" points="17.7 15.4 17.7 19.28 21.81 20.88 21.81 17.03 17.7 15.4"/><polygon id="_2-44" class="cls-7" points="26.61 15.23 26.61 19.08 21.81 20.88 21.81 17.03 26.61 15.23"/><path id="_1-44" class="cls-8" d="m17.67,15.4l4.13,1.63,4.8-1.8-4.11-1.63-4.82,1.8Z"/></g><g><g id="_4-45"><polygon class="cls-6" points="22.6 30.91 27.42 29.11 31.53 30.74 31.53 34.61 26.73 36.42 22.63 34.81 22.63 30.93 22.6 30.91"/><path class="cls-5" d="m26.58,36.68l-4.11-1.61c-.12-.05-.2-.15-.2-.26v-3.78s-.03-.08-.03-.12c0-.11.08-.21.21-.26l4.82-1.8c.09-.04.2-.03.3,0l4.11,1.63c.12.05.2.15.2.26v3.87c0,.11-.08.22-.21.27l-4.8,1.8s-.1.03-.14.03-.1,0-.15-.03Zm4.6-5.75l-3.76-1.49-4.44,1.66v3.53s3.76,1.47,3.76,1.47l4.45-1.67v-3.5Z"/></g><polygon id="_3-45" class="cls-3" points="22.63 30.91 22.63 34.81 26.73 36.42 26.73 32.55 22.63 30.91"/><polygon id="_2-45" class="cls-7" points="31.53 30.74 31.53 34.61 26.73 36.42 26.73 32.55 31.53 30.74"/><path id="_1-45" class="cls-8" d="m22.6,30.91l4.13,1.63,4.8-1.81-4.11-1.63-4.82,1.8Z"/></g><g><g id="_4-46"><polygon class="cls-6" points="22.6 26.44 27.42 24.64 31.53 26.27 31.53 30.12 26.73 31.92 22.63 30.31 22.63 26.45 22.6 26.44"/><path class="cls-5" d="m26.58,32.19l-4.11-1.61c-.12-.05-.2-.15-.2-.26v-3.76s-.03-.08-.03-.12c0-.11.08-.22.21-.26l4.82-1.8c.09-.04.2-.03.29,0l4.11,1.63c.12.05.2.15.2.26v3.85c0,.11-.08.22-.21.27l-4.8,1.8s-.1.03-.14.03-.1,0-.15-.03Zm4.6-5.74l-3.76-1.49-4.44,1.66v3.51s3.76,1.47,3.76,1.47l4.45-1.67v-3.48Z"/></g><polygon id="_3-46" class="cls-3" points="22.63 26.44 22.63 30.31 26.73 31.92 26.73 28.07 22.63 26.44"/><polygon id="_2-46" class="cls-7" points="31.53 26.27 31.53 30.12 26.73 31.92 26.73 28.07 31.53 26.27"/><path id="_1-46" class="cls-8" d="m22.6,26.44l4.13,1.63,4.8-1.8-4.11-1.63-4.82,1.8Z"/></g><g><g id="_4-47"><polygon class="cls-6" points="22.6 21.99 27.42 20.19 31.53 21.82 31.53 25.67 26.73 27.47 22.63 25.87 22.63 22 22.6 21.99"/><path class="cls-5" d="m26.58,27.74l-4.11-1.6c-.12-.05-.2-.15-.2-.26v-3.76s-.03-.08-.03-.12c0-.11.08-.22.21-.26l4.82-1.8c.09-.04.2-.03.3,0l4.11,1.63c.12.05.2.15.2.26v3.85c0,.11-.08.22-.21.27l-4.8,1.8s-.1.03-.14.03-.1,0-.15-.03Zm4.6-5.73l-3.76-1.49-4.44,1.66v3.51s3.76,1.47,3.76,1.47l4.45-1.67v-3.48Z"/></g><polygon id="_3-47" class="cls-3" points="22.63 21.99 22.63 25.87 26.73 27.47 26.73 23.62 22.63 21.99"/><polygon id="_2-47" class="cls-7" points="31.53 21.82 31.53 25.67 26.73 27.47 26.73 23.62 31.53 21.82"/><path id="_1-47" class="cls-8" d="m22.6,21.99l4.13,1.63,4.8-1.8-4.11-1.63-4.82,1.8Z"/></g><g><g id="_4-48"><polygon class="cls-6" points="22.6 17.51 27.42 15.71 31.53 17.34 31.53 21.19 26.73 22.99 22.63 21.39 22.63 17.52 22.6 17.51"/><path class="cls-5" d="m26.58,23.26l-4.11-1.6c-.12-.05-.2-.15-.2-.26v-3.76s-.03-.08-.03-.12c0-.11.08-.22.21-.26l4.82-1.8c.09-.04.2-.03.3,0l4.11,1.63c.12.05.2.15.2.26v3.85c0,.11-.08.22-.21.27l-4.8,1.8s-.1.03-.14.03-.1,0-.15-.03Zm4.6-5.73l-3.76-1.49-4.44,1.66v3.51s3.76,1.47,3.76,1.47l4.45-1.67v-3.48Z"/></g><polygon id="_3-48" class="cls-3" points="22.63 17.51 22.63 21.39 26.73 22.99 26.73 19.14 22.63 17.51"/><polygon id="_2-48" class="cls-7" points="31.53 17.34 31.53 21.19 26.73 22.99 26.73 19.14 31.53 17.34"/><path id="_1-48" class="cls-8" d="m22.6,17.51l4.13,1.63,4.8-1.8-4.11-1.63-4.82,1.8Z"/></g></g><g id="OK_OK"><g id="_1-1"><polygon class="cls-2" points="42.21 46.88 35.42 43.86 29.7 46.59 29.7 53.07 36.47 56.1 42.21 53.4 42.21 46.9 42.21 46.88"/><polygon class="cls-9" points="42.21 46.88 42.21 53.4 36.47 56.1 36.47 49.62 42.21 46.88"/><polygon class="cls-10" points="29.7 46.59 29.7 53.07 36.47 56.1 36.47 49.62 29.7 46.59"/><path class="cls-4" d="m35.42,43.86l-5.72,2.74,6.77,3.03,5.74-2.74-6.79-3.03Z"/></g><g id="_2-3"><polygon class="cls-2" points="23.58 20.94 16.86 18.4 11.1 21.13 11.1 27.61 17.86 30.16 23.58 27.46 23.58 20.96 23.58 20.94"/><polygon class="cls-9" points="23.58 20.94 23.58 27.46 17.86 30.16 17.86 23.68 23.58 20.94"/><polygon class="cls-10" points="11.1 21.13 11.1 27.61 17.86 30.16 17.86 23.68 11.1 21.13"/><path class="cls-4" d="m16.86,18.4l-5.76,2.74,6.76,2.54,5.72-2.74-6.72-2.54Z"/></g><polygon class="cls-1" points="41.13 40.09 36.56 46.08 32.37 37.34 35.02 38.34 35.02 33.49 20.94 27.38 20.94 23.5 38.48 30.76 38.14 39.04 41.13 40.09"/></g></svg>