<?xml version="1.0" encoding="UTF-8"?><svg id="version_02_copy_3" xmlns="http://www.w3.org/2000/svg" xmlns:xlink="http://www.w3.org/1999/xlink" viewBox="0 0 64 64"><defs><style>.cls-1{fill:#797979;}.cls-2{opacity:.81;}.cls-3,.cls-4{fill:#fff;}.cls-5{stroke:#5a9ab8;stroke-width:.09px;}.cls-5,.cls-6,.cls-4{stroke-miterlimit:10;}.cls-5,.cls-7{fill:none;}.cls-6,.cls-4,.cls-7{stroke-width:.25px;}.cls-6,.cls-4,.cls-7,.cls-8{stroke:#000;}.cls-9{fill:#323232;}.cls-10{fill:url(#Light_BLUE_gradient_TOP);}.cls-11{fill:url(#white_front_right-2);}.cls-12{fill:#e1e1e1;}.cls-13{fill:#f1f0f0;}.cls-7,.cls-8{stroke-linecap:round;stroke-linejoin:round;}.cls-8{fill:#82bddb;stroke-width:.75px;}.cls-14{fill:#5a9ab8;}.cls-15{fill:url(#white_front_right);}.cls-16{fill:url(#Light_BLUE_gradient_TOP-2);}</style><linearGradient id="Light_BLUE_gradient_TOP" x1="-48.29" y1="-10.17" x2="-38.24" y2="-4.89" gradientTransform="translate(72.15 25.5) rotate(-32.21) scale(.93 1.11) skewX(-.01)" gradientUnits="userSpaceOnUse"><stop offset="0" stop-color="#a0e1fa"/><stop offset=".99" stop-color="#73c3e1"/></linearGradient><linearGradient id="white_front_right" x1="-48.29" y1="-10.17" x2="-38.24" y2="-4.89" gradientTransform="translate(72.15 25.5) rotate(-32.21) scale(.93 1.11) skewX(-.01)" gradientUnits="userSpaceOnUse"><stop offset="0" stop-color="#fff"/><stop offset="1" stop-color="#d2d2d2"/></linearGradient><linearGradient id="Light_BLUE_gradient_TOP-2" x1="23.4" y1="42.5" x2="29.51" y2="42.5" gradientTransform="matrix(1, 0, 0, 1, 0, 0)" xlink:href="#Light_BLUE_gradient_TOP"/><linearGradient id="white_front_right-2" x1="23.4" y1="42.5" x2="29.51" y2="42.5" gradientTransform="matrix(1, 0, 0, 1, 0, 0)" xlink:href="#white_front_right"/></defs><g id="AAAA_OK_ARR_copy_4"><g><g id="_4"><polygon class="cls-9" points="33.6 21.58 38.42 19.78 42.53 21.41 42.53 25.28 37.73 27.08 33.62 25.47 33.62 21.59 33.6 21.58"/><path class="cls-6" d="m37.58,27.34l-4.11-1.61c-.12-.05-.2-.15-.2-.26v-3.78s-.03-.08-.03-.12c0-.11.08-.21.21-.26l4.82-1.8c.09-.04.2-.03.3,0l4.11,1.63c.12.05.2.15.2.26v3.87c0,.11-.08.22-.21.27l-4.8,1.8s-.1.03-.14.03-.1,0-.15-.03Zm4.6-5.75l-3.76-1.49-4.44,1.66v3.53s3.76,1.47,3.76,1.47l4.45-1.67v-3.5Z"/></g><polygon id="_3" class="cls-1" points="33.62 21.58 33.62 25.47 37.73 27.08 37.73 23.21 33.62 21.58"/><polygon id="_2" class="cls-12" points="42.53 21.41 42.53 25.28 37.73 27.08 37.73 23.21 42.53 21.41"/><path id="_1" class="cls-13" d="m33.6,21.58l4.13,1.63,4.8-1.81-4.11-1.63-4.82,1.8Z"/></g><g><g id="_4-2"><polygon class="cls-9" points="33.6 17.1 38.42 15.3 42.53 16.93 42.53 20.78 37.73 22.58 33.62 20.98 33.62 17.11 33.6 17.1"/><path class="cls-6" d="m37.58,22.85l-4.11-1.61c-.12-.05-.2-.15-.2-.26v-3.76s-.03-.08-.03-.12c0-.11.08-.22.21-.26l4.82-1.8c.09-.04.2-.03.29,0l4.11,1.63c.12.05.2.15.2.26v3.85c0,.11-.08.22-.21.27l-4.8,1.8s-.1.03-.14.03-.1,0-.15-.03Zm4.6-5.74l-3.76-1.49-4.44,1.66v3.51s3.76,1.47,3.76,1.47l4.45-1.67v-3.48Z"/></g><polygon id="_3-2" class="cls-1" points="33.62 17.1 33.62 20.98 37.73 22.58 37.73 18.73 33.62 17.1"/><polygon id="_2-2" class="cls-12" points="42.53 16.93 42.53 20.78 37.73 22.58 37.73 18.73 42.53 16.93"/><path id="_1-2" class="cls-13" d="m33.6,17.1l4.13,1.63,4.8-1.8-4.11-1.63-4.82,1.8Z"/></g><g><g id="_4-3"><polygon class="cls-9" points="33.6 12.66 38.42 10.86 42.53 12.48 42.53 16.33 37.73 18.14 33.62 16.53 33.62 12.67 33.6 12.66"/><path class="cls-6" d="m37.58,18.4l-4.11-1.6c-.12-.05-.2-.15-.2-.26v-3.76s-.03-.08-.03-.12c0-.11.08-.22.21-.26l4.82-1.8c.09-.04.2-.03.3,0l4.11,1.63c.12.05.2.15.2.26v3.85c0,.11-.08.22-.21.27l-4.8,1.8s-.1.03-.14.03-.1,0-.15-.03Zm4.6-5.73l-3.76-1.49-4.44,1.66v3.51s3.76,1.47,3.76,1.47l4.45-1.67v-3.48Z"/></g><polygon id="_3-3" class="cls-1" points="33.62 12.66 33.62 16.53 37.73 18.14 37.73 14.28 33.62 12.66"/><polygon id="_2-3" class="cls-12" points="42.53 12.48 42.53 16.33 37.73 18.14 37.73 14.28 42.53 12.48"/><path id="_1-3" class="cls-13" d="m33.6,12.66l4.13,1.63,4.8-1.8-4.11-1.63-4.82,1.8Z"/></g><g><g id="_4-4"><polygon class="cls-9" points="33.6 8.17 38.42 6.38 42.53 8 42.53 11.85 37.73 13.66 33.62 12.05 33.62 8.19 33.6 8.17"/><path class="cls-6" d="m37.58,13.92l-4.11-1.6c-.12-.05-.2-.15-.2-.26v-3.76s-.03-.08-.03-.12c0-.11.08-.22.21-.26l4.82-1.8c.09-.04.2-.03.3,0l4.11,1.63c.12.05.2.15.2.26v3.85c0,.11-.08.22-.21.27l-4.8,1.8s-.1.03-.14.03-.1,0-.15-.03Zm4.6-5.73l-3.76-1.49-4.44,1.66v3.51s3.76,1.47,3.76,1.47l4.45-1.67v-3.48Z"/></g><polygon id="_3-4" class="cls-1" points="33.62 8.17 33.62 12.05 37.73 13.66 37.73 9.8 33.62 8.17"/><polygon id="_2-4" class="cls-12" points="42.53 8 42.53 11.85 37.73 13.66 37.73 9.8 42.53 8"/><path id="_1-4" class="cls-13" d="m33.6,8.17l4.13,1.63,4.8-1.8-4.11-1.63-4.82,1.8Z"/></g><g><g id="_4-5"><polygon class="cls-9" points="38.52 23.69 43.35 21.89 47.46 23.52 47.46 27.39 42.66 29.19 38.55 27.59 38.55 23.7 38.52 23.69"/><path class="cls-6" d="m42.51,29.46l-4.11-1.61c-.12-.05-.2-.15-.2-.26v-3.78s-.03-.08-.03-.12c0-.11.08-.21.21-.26l4.82-1.8c.09-.04.2-.03.3,0l4.11,1.63c.12.05.2.15.2.26v3.87c0,.11-.08.22-.21.27l-4.8,1.8s-.1.03-.14.03-.1,0-.15-.03Zm4.6-5.75l-3.76-1.49-4.44,1.66v3.53s3.76,1.47,3.76,1.47l4.45-1.67v-3.5Z"/></g><polygon id="_3-5" class="cls-1" points="38.55 23.69 38.55 27.59 42.66 29.19 42.66 25.32 38.55 23.69"/><polygon id="_2-5" class="cls-12" points="47.46 23.52 47.46 27.39 42.66 29.19 42.66 25.32 47.46 23.52"/><path id="_1-5" class="cls-13" d="m38.52,23.69l4.13,1.63,4.8-1.81-4.11-1.63-4.82,1.8Z"/></g><g><g id="_4-6"><polygon class="cls-9" points="38.52 19.21 43.35 17.41 47.46 19.04 47.46 22.89 42.66 24.7 38.55 23.09 38.55 19.22 38.52 19.21"/><path class="cls-6" d="m42.51,24.96l-4.11-1.61c-.12-.05-.2-.15-.2-.26v-3.76s-.03-.08-.03-.12c0-.11.08-.22.21-.26l4.82-1.8c.09-.04.2-.03.29,0l4.11,1.63c.12.05.2.15.2.26v3.85c0,.11-.08.22-.21.27l-4.8,1.8s-.1.03-.14.03-.1,0-.15-.03Zm4.6-5.74l-3.76-1.49-4.44,1.66v3.51s3.76,1.47,3.76,1.47l4.45-1.67v-3.48Z"/></g><polygon id="_3-6" class="cls-1" points="38.55 19.21 38.55 23.09 42.66 24.7 42.66 20.84 38.55 19.21"/><polygon id="_2-6" class="cls-12" points="47.46 19.04 47.46 22.89 42.66 24.7 42.66 20.84 47.46 19.04"/><path id="_1-6" class="cls-13" d="m38.52,19.21l4.13,1.63,4.8-1.8-4.11-1.63-4.82,1.8Z"/></g><g><g id="_4-7"><polygon class="cls-9" points="38.52 14.77 43.35 12.97 47.46 14.59 47.46 18.45 42.66 20.25 38.55 18.64 38.55 14.78 38.52 14.77"/><path class="cls-6" d="m42.51,20.51l-4.11-1.6c-.12-.05-.2-.15-.2-.26v-3.76s-.03-.08-.03-.12c0-.11.08-.22.21-.26l4.82-1.8c.09-.04.2-.03.3,0l4.11,1.63c.12.05.2.15.2.26v3.85c0,.11-.08.22-.21.27l-4.8,1.8s-.1.03-.14.03-.1,0-.15-.03Zm4.6-5.73l-3.76-1.49-4.44,1.66v3.51s3.76,1.47,3.76,1.47l4.45-1.67v-3.48Z"/></g><polygon id="_3-7" class="cls-1" points="38.55 14.77 38.55 18.64 42.66 20.25 42.66 16.39 38.55 14.77"/><polygon id="_2-7" class="cls-12" points="47.46 14.59 47.46 18.45 42.66 20.25 42.66 16.39 47.46 14.59"/><path id="_1-7" class="cls-13" d="m38.52,14.77l4.13,1.63,4.8-1.8-4.11-1.63-4.82,1.8Z"/></g><g><g id="_4-8"><polygon class="cls-9" points="38.52 10.29 43.35 8.49 47.46 10.11 47.46 13.97 42.66 15.77 38.55 14.16 38.55 10.3 38.52 10.29"/><path class="cls-6" d="m42.51,16.03l-4.11-1.6c-.12-.05-.2-.15-.2-.26v-3.76s-.03-.08-.03-.12c0-.11.08-.22.21-.26l4.82-1.8c.09-.04.2-.03.3,0l4.11,1.63c.12.05.2.15.2.26v3.85c0,.11-.08.22-.21.27l-4.8,1.8s-.1.03-.14.03-.1,0-.15-.03Zm4.6-5.73l-3.76-1.49-4.44,1.66v3.51s3.76,1.47,3.76,1.47l4.45-1.67v-3.48Z"/></g><polygon id="_3-8" class="cls-1" points="38.55 10.29 38.55 14.16 42.66 15.77 42.66 11.91 38.55 10.29"/><polygon id="_2-8" class="cls-12" points="47.46 10.11 47.46 13.97 42.66 15.77 42.66 11.91 47.46 10.11"/><path id="_1-8" class="cls-13" d="m38.52,10.29l4.13,1.63,4.8-1.8-4.11-1.63-4.82,1.8Z"/></g><g><g id="_4-9"><polygon class="cls-9" points="43.67 25.8 48.49 24 52.61 25.63 52.61 29.5 47.81 31.3 43.7 29.7 43.7 25.81 43.67 25.8"/><path class="cls-6" d="m47.66,31.57l-4.11-1.61c-.12-.05-.2-.15-.2-.26v-3.78s-.03-.08-.03-.12c0-.11.08-.21.21-.26l4.82-1.8c.09-.04.2-.03.3,0l4.11,1.63c.12.05.2.15.2.26v3.87c0,.11-.08.22-.21.27l-4.8,1.8s-.1.03-.14.03-.1,0-.15-.03Zm4.6-5.75l-3.76-1.49-4.44,1.66v3.53s3.76,1.47,3.76,1.47l4.45-1.67v-3.5Z"/></g><polygon id="_3-9" class="cls-1" points="43.7 25.8 43.7 29.7 47.81 31.3 47.81 27.44 43.7 25.8"/><polygon id="_2-9" class="cls-12" points="52.61 25.63 52.61 29.5 47.81 31.3 47.81 27.44 52.61 25.63"/><path id="_1-9" class="cls-13" d="m43.67,25.8l4.13,1.63,4.8-1.81-4.11-1.63-4.82,1.8Z"/></g><g><g id="_4-10"><polygon class="cls-9" points="43.67 21.32 48.49 19.53 52.61 21.15 52.61 25.01 47.81 26.81 43.7 25.2 43.7 21.34 43.67 21.32"/><path class="cls-6" d="m47.66,27.07l-4.11-1.61c-.12-.05-.2-.15-.2-.26v-3.76s-.03-.08-.03-.12c0-.11.08-.22.21-.26l4.82-1.8c.09-.04.2-.03.29,0l4.11,1.63c.12.05.2.15.2.26v3.85c0,.11-.08.22-.21.27l-4.8,1.8s-.1.03-.14.03-.1,0-.15-.03Zm4.6-5.74l-3.76-1.49-4.44,1.66v3.51s3.76,1.47,3.76,1.47l4.45-1.67v-3.48Z"/></g><polygon id="_3-10" class="cls-1" points="43.7 21.32 43.7 25.2 47.81 26.81 47.81 22.95 43.7 21.32"/><polygon id="_2-10" class="cls-12" points="52.61 21.15 52.61 25.01 47.81 26.81 47.81 22.95 52.61 21.15"/><path id="_1-10" class="cls-13" d="m43.67,21.32l4.13,1.63,4.8-1.8-4.11-1.63-4.82,1.8Z"/></g><g><g id="_4-11"><polygon class="cls-9" points="43.67 16.88 48.49 15.08 52.61 16.71 52.61 20.56 47.81 22.36 43.7 20.76 43.7 16.89 43.67 16.88"/><path class="cls-6" d="m47.66,22.62l-4.11-1.6c-.12-.05-.2-.15-.2-.26v-3.76s-.03-.08-.03-.12c0-.11.08-.22.21-.26l4.82-1.8c.09-.04.2-.03.3,0l4.11,1.63c.12.05.2.15.2.26v3.85c0,.11-.08.22-.21.27l-4.8,1.8s-.1.03-.14.03-.1,0-.15-.03Zm4.6-5.73l-3.76-1.49-4.44,1.66v3.51s3.76,1.47,3.76,1.47l4.45-1.67v-3.48Z"/></g><polygon id="_3-11" class="cls-1" points="43.7 16.88 43.7 20.76 47.81 22.36 47.81 18.51 43.7 16.88"/><polygon id="_2-11" class="cls-12" points="52.61 16.71 52.61 20.56 47.81 22.36 47.81 18.51 52.61 16.71"/><path id="_1-11" class="cls-13" d="m43.67,16.88l4.13,1.63,4.8-1.8-4.11-1.63-4.82,1.8Z"/></g><g><g id="_4-12"><polygon class="cls-9" points="43.67 12.4 48.49 10.6 52.61 12.23 52.61 16.08 47.81 17.88 43.7 16.28 43.7 12.41 43.67 12.4"/><path class="cls-6" d="m47.66,18.14l-4.11-1.6c-.12-.05-.2-.15-.2-.26v-3.76s-.03-.08-.03-.12c0-.11.08-.22.21-.26l4.82-1.8c.09-.04.2-.03.3,0l4.11,1.63c.12.05.2.15.2.26v3.85c0,.11-.08.22-.21.27l-4.8,1.8s-.1.03-.14.03-.1,0-.15-.03Zm4.6-5.73l-3.76-1.49-4.44,1.66v3.51s3.76,1.47,3.76,1.47l4.45-1.67v-3.48Z"/></g><polygon id="_3-12" class="cls-1" points="43.7 12.4 43.7 16.28 47.81 17.88 47.81 14.03 43.7 12.4"/><polygon id="_2-12" class="cls-12" points="52.61 12.23 52.61 16.08 47.81 17.88 47.81 14.03 52.61 12.23"/><path id="_1-12" class="cls-13" d="m43.67,12.4l4.13,1.63,4.8-1.8-4.11-1.63-4.82,1.8Z"/></g><g><g id="_4-13"><polygon class="cls-9" points="48.6 27.91 53.42 26.11 57.53 27.74 57.53 31.61 52.73 33.42 48.63 31.81 48.63 27.93 48.6 27.91"/><path class="cls-6" d="m52.58,33.68l-4.11-1.61c-.12-.05-.2-.15-.2-.26v-3.78s-.03-.08-.03-.12c0-.11.08-.21.21-.26l4.82-1.8c.09-.04.2-.03.3,0l4.11,1.63c.12.05.2.15.2.26v3.87c0,.11-.08.22-.21.27l-4.8,1.8s-.1.03-.14.03-.1,0-.15-.03Zm4.6-5.75l-3.76-1.49-4.44,1.66v3.53s3.76,1.47,3.76,1.47l4.45-1.67v-3.5Z"/></g><polygon id="_3-13" class="cls-1" points="48.63 27.91 48.63 31.81 52.73 33.42 52.73 29.55 48.63 27.91"/><polygon id="_2-13" class="cls-12" points="57.53 27.74 57.53 31.61 52.73 33.42 52.73 29.55 57.53 27.74"/><path id="_1-13" class="cls-13" d="m48.6,27.91l4.13,1.63,4.8-1.81-4.11-1.63-4.82,1.8Z"/></g><g><g id="_4-14"><polygon class="cls-9" points="48.6 23.44 53.42 21.64 57.53 23.27 57.53 27.12 52.73 28.92 48.63 27.31 48.63 23.45 48.6 23.44"/><path class="cls-6" d="m52.58,29.19l-4.11-1.61c-.12-.05-.2-.15-.2-.26v-3.76s-.03-.08-.03-.12c0-.11.08-.22.21-.26l4.82-1.8c.09-.04.2-.03.29,0l4.11,1.63c.12.05.2.15.2.26v3.85c0,.11-.08.22-.21.27l-4.8,1.8s-.1.03-.14.03-.1,0-.15-.03Zm4.6-5.74l-3.76-1.49-4.44,1.66v3.51s3.76,1.47,3.76,1.47l4.45-1.67v-3.48Z"/></g><polygon id="_3-14" class="cls-1" points="48.63 23.44 48.63 27.31 52.73 28.92 52.73 25.07 48.63 23.44"/><polygon id="_2-14" class="cls-12" points="57.53 23.27 57.53 27.12 52.73 28.92 52.73 25.07 57.53 23.27"/><path id="_1-14" class="cls-13" d="m48.6,23.44l4.13,1.63,4.8-1.8-4.11-1.63-4.82,1.8Z"/></g><g><g id="_4-15"><polygon class="cls-9" points="48.6 18.99 53.42 17.19 57.53 18.82 57.53 22.67 52.73 24.47 48.63 22.87 48.63 19 48.6 18.99"/><path class="cls-6" d="m52.58,24.74l-4.11-1.6c-.12-.05-.2-.15-.2-.26v-3.76s-.03-.08-.03-.12c0-.11.08-.22.21-.26l4.82-1.8c.09-.04.2-.03.3,0l4.11,1.63c.12.05.2.15.2.26v3.85c0,.11-.08.22-.21.27l-4.8,1.8s-.1.03-.14.03-.1,0-.15-.03Zm4.6-5.73l-3.76-1.49-4.44,1.66v3.51s3.76,1.47,3.76,1.47l4.45-1.67v-3.48Z"/></g><polygon id="_3-15" class="cls-1" points="48.63 18.99 48.63 22.87 52.73 24.47 52.73 20.62 48.63 18.99"/><polygon id="_2-15" class="cls-12" points="57.53 18.82 57.53 22.67 52.73 24.47 52.73 20.62 57.53 18.82"/><path id="_1-15" class="cls-13" d="m48.6,18.99l4.13,1.63,4.8-1.8-4.11-1.63-4.82,1.8Z"/></g><g><g id="_4-16"><polygon class="cls-9" points="48.6 14.51 53.42 12.71 57.53 14.34 57.53 18.19 52.73 19.99 48.63 18.39 48.63 14.52 48.6 14.51"/><path class="cls-6" d="m52.58,20.26l-4.11-1.6c-.12-.05-.2-.15-.2-.26v-3.76s-.03-.08-.03-.12c0-.11.08-.22.21-.26l4.82-1.8c.09-.04.2-.03.3,0l4.11,1.63c.12.05.2.15.2.26v3.85c0,.11-.08.22-.21.27l-4.8,1.8s-.1.03-.14.03-.1,0-.15-.03Zm4.6-5.73l-3.76-1.49-4.44,1.66v3.51s3.76,1.47,3.76,1.47l4.45-1.67v-3.48Z"/></g><polygon id="_3-16" class="cls-1" points="48.63 14.51 48.63 18.39 52.73 19.99 52.73 16.14 48.63 14.51"/><polygon id="_2-16" class="cls-12" points="57.53 14.34 57.53 18.19 52.73 19.99 52.73 16.14 57.53 14.34"/><path id="_1-16" class="cls-13" d="m48.6,14.51l4.13,1.63,4.8-1.8-4.11-1.63-4.82,1.8Z"/></g></g><g id="AAAA_OK_2_copy_5"><g><g id="_4-17"><polygon class="cls-9" points="20.6 22.58 25.42 20.78 29.53 22.41 29.53 26.28 24.73 28.08 20.62 26.47 20.62 22.59 20.6 22.58"/><path class="cls-6" d="m24.58,28.34l-4.11-1.61c-.12-.05-.2-.15-.2-.26v-3.78s-.03-.08-.03-.12c0-.11.08-.21.21-.26l4.82-1.8c.09-.04.2-.03.3,0l4.11,1.63c.12.05.2.15.2.26v3.87c0,.11-.08.22-.21.27l-4.8,1.8s-.1.03-.14.03-.1,0-.15-.03Zm4.6-5.75l-3.76-1.49-4.44,1.66v3.53s3.76,1.47,3.76,1.47l4.45-1.67v-3.5Z"/></g><polygon id="_3-17" class="cls-1" points="20.62 22.58 20.62 26.47 24.73 28.08 24.73 24.21 20.62 22.58"/><polygon id="_2-17" class="cls-12" points="29.53 22.41 29.53 26.28 24.73 28.08 24.73 24.21 29.53 22.41"/><path id="_1-17" class="cls-13" d="m20.6,22.58l4.13,1.63,4.8-1.81-4.11-1.63-4.82,1.8Z"/></g><g><g id="_4-18"><polygon class="cls-9" points="20.6 18.1 25.42 16.3 29.53 17.93 29.53 21.78 24.73 23.58 20.62 21.98 20.62 18.11 20.6 18.1"/><path class="cls-6" d="m24.58,23.85l-4.11-1.61c-.12-.05-.2-.15-.2-.26v-3.76s-.03-.08-.03-.12c0-.11.08-.22.21-.26l4.82-1.8c.09-.04.2-.03.29,0l4.11,1.63c.12.05.2.15.2.26v3.85c0,.11-.08.22-.21.27l-4.8,1.8s-.1.03-.14.03-.1,0-.15-.03Zm4.6-5.74l-3.76-1.49-4.44,1.66v3.51s3.76,1.47,3.76,1.47l4.45-1.67v-3.48Z"/></g><polygon id="_3-18" class="cls-1" points="20.62 18.1 20.62 21.98 24.73 23.58 24.73 19.73 20.62 18.1"/><polygon id="_2-18" class="cls-12" points="29.53 17.93 29.53 21.78 24.73 23.58 24.73 19.73 29.53 17.93"/><path id="_1-18" class="cls-13" d="m20.6,18.1l4.13,1.63,4.8-1.8-4.11-1.63-4.82,1.8Z"/></g><g><g id="_4-19"><polygon class="cls-9" points="20.6 13.66 25.42 11.86 29.53 13.48 29.53 17.33 24.73 19.14 20.62 17.53 20.62 13.67 20.6 13.66"/><path class="cls-6" d="m24.58,19.4l-4.11-1.6c-.12-.05-.2-.15-.2-.26v-3.76s-.03-.08-.03-.12c0-.11.08-.22.21-.26l4.82-1.8c.09-.04.2-.03.3,0l4.11,1.63c.12.05.2.15.2.26v3.85c0,.11-.08.22-.21.27l-4.8,1.8s-.1.03-.14.03-.1,0-.15-.03Zm4.6-5.73l-3.76-1.49-4.44,1.66v3.51s3.76,1.47,3.76,1.47l4.45-1.67v-3.48Z"/></g><polygon id="_3-19" class="cls-1" points="20.62 13.66 20.62 17.53 24.73 19.14 24.73 15.28 20.62 13.66"/><polygon id="_2-19" class="cls-12" points="29.53 13.48 29.53 17.33 24.73 19.14 24.73 15.28 29.53 13.48"/><path id="_1-19" class="cls-13" d="m20.6,13.66l4.13,1.63,4.8-1.8-4.11-1.63-4.82,1.8Z"/></g><g><g id="_4-20"><polygon class="cls-9" points="20.6 9.17 25.42 7.38 29.53 9 29.53 12.85 24.73 14.66 20.62 13.05 20.62 9.19 20.6 9.17"/><path class="cls-6" d="m24.58,14.92l-4.11-1.6c-.12-.05-.2-.15-.2-.26v-3.76s-.03-.08-.03-.12c0-.11.08-.22.21-.26l4.82-1.8c.09-.04.2-.03.3,0l4.11,1.63c.12.05.2.15.2.26v3.85c0,.11-.08.22-.21.27l-4.8,1.8s-.1.03-.14.03-.1,0-.15-.03Zm4.6-5.73l-3.76-1.49-4.44,1.66v3.51s3.76,1.47,3.76,1.47l4.45-1.67v-3.48Z"/></g><polygon id="_3-20" class="cls-1" points="20.62 9.17 20.62 13.05 24.73 14.66 24.73 10.8 20.62 9.17"/><polygon id="_2-20" class="cls-12" points="29.53 9 29.53 12.85 24.73 14.66 24.73 10.8 29.53 9"/><path id="_1-20" class="cls-13" d="m20.6,9.17l4.13,1.63,4.8-1.8-4.11-1.63-4.82,1.8Z"/></g><g><g id="_4-21"><polygon class="cls-9" points="25.52 24.69 30.35 22.89 34.46 24.52 34.46 28.39 29.66 30.19 25.55 28.59 25.55 24.7 25.52 24.69"/><path class="cls-6" d="m29.51,30.46l-4.11-1.61c-.12-.05-.2-.15-.2-.26v-3.78s-.03-.08-.03-.12c0-.11.08-.21.21-.26l4.82-1.8c.09-.04.2-.03.3,0l4.11,1.63c.12.05.2.15.2.26v3.87c0,.11-.08.22-.21.27l-4.8,1.8s-.1.03-.14.03-.1,0-.15-.03Zm4.6-5.75l-3.76-1.49-4.44,1.66v3.53s3.76,1.47,3.76,1.47l4.45-1.67v-3.5Z"/></g><polygon id="_3-21" class="cls-1" points="25.55 24.69 25.55 28.59 29.66 30.19 29.66 26.32 25.55 24.69"/><polygon id="_2-21" class="cls-12" points="34.46 24.52 34.46 28.39 29.66 30.19 29.66 26.32 34.46 24.52"/><path id="_1-21" class="cls-13" d="m25.52,24.69l4.13,1.63,4.8-1.81-4.11-1.63-4.82,1.8Z"/></g><g><g id="_4-22"><polygon class="cls-9" points="25.52 20.21 30.35 18.41 34.46 20.04 34.46 23.89 29.66 25.7 25.55 24.09 25.55 20.22 25.52 20.21"/><path class="cls-6" d="m29.51,25.96l-4.11-1.61c-.12-.05-.2-.15-.2-.26v-3.76s-.03-.08-.03-.12c0-.11.08-.22.21-.26l4.82-1.8c.09-.04.2-.03.29,0l4.11,1.63c.12.05.2.15.2.26v3.85c0,.11-.08.22-.21.27l-4.8,1.8s-.1.03-.14.03-.1,0-.15-.03Zm4.6-5.74l-3.76-1.49-4.44,1.66v3.51s3.76,1.47,3.76,1.47l4.45-1.67v-3.48Z"/></g><polygon id="_3-22" class="cls-1" points="25.55 20.21 25.55 24.09 29.66 25.7 29.66 21.84 25.55 20.21"/><polygon id="_2-22" class="cls-12" points="34.46 20.04 34.46 23.89 29.66 25.7 29.66 21.84 34.46 20.04"/><path id="_1-22" class="cls-13" d="m25.52,20.21l4.13,1.63,4.8-1.8-4.11-1.63-4.82,1.8Z"/></g><g><g id="_4-23"><polygon class="cls-9" points="25.52 15.77 30.35 13.97 34.46 15.59 34.46 19.45 29.66 21.25 25.55 19.64 25.55 15.78 25.52 15.77"/><path class="cls-6" d="m29.51,21.51l-4.11-1.6c-.12-.05-.2-.15-.2-.26v-3.76s-.03-.08-.03-.12c0-.11.08-.22.21-.26l4.82-1.8c.09-.04.2-.03.3,0l4.11,1.63c.12.05.2.15.2.26v3.85c0,.11-.08.22-.21.27l-4.8,1.8s-.1.03-.14.03-.1,0-.15-.03Zm4.6-5.73l-3.76-1.49-4.44,1.66v3.51s3.76,1.47,3.76,1.47l4.45-1.67v-3.48Z"/></g><polygon id="_3-23" class="cls-1" points="25.55 15.77 25.55 19.64 29.66 21.25 29.66 17.39 25.55 15.77"/><polygon id="_2-23" class="cls-12" points="34.46 15.59 34.46 19.45 29.66 21.25 29.66 17.39 34.46 15.59"/><path id="_1-23" class="cls-13" d="m25.52,15.77l4.13,1.63,4.8-1.8-4.11-1.63-4.82,1.8Z"/></g><g><g id="_4-24"><polygon class="cls-9" points="25.52 11.29 30.35 9.49 34.46 11.11 34.46 14.97 29.66 16.77 25.55 15.16 25.55 11.3 25.52 11.29"/><path class="cls-6" d="m29.51,17.03l-4.11-1.6c-.12-.05-.2-.15-.2-.26v-3.76s-.03-.08-.03-.12c0-.11.08-.22.21-.26l4.82-1.8c.09-.04.2-.03.3,0l4.11,1.63c.12.05.2.15.2.26v3.85c0,.11-.08.22-.21.27l-4.8,1.8s-.1.03-.14.03-.1,0-.15-.03Zm4.6-5.73l-3.76-1.49-4.44,1.66v3.51s3.76,1.47,3.76,1.47l4.45-1.67v-3.48Z"/></g><polygon id="_3-24" class="cls-1" points="25.55 11.29 25.55 15.16 29.66 16.77 29.66 12.91 25.55 11.29"/><polygon id="_2-24" class="cls-12" points="34.46 11.11 34.46 14.97 29.66 16.77 29.66 12.91 34.46 11.11"/><path id="_1-24" class="cls-13" d="m25.52,11.29l4.13,1.63,4.8-1.8-4.11-1.63-4.82,1.8Z"/></g><g><g id="_4-25"><polygon class="cls-9" points="30.67 26.8 35.49 25 39.61 26.63 39.61 30.5 34.81 32.3 30.7 30.7 30.7 26.81 30.67 26.8"/><path class="cls-6" d="m34.66,32.57l-4.11-1.61c-.12-.05-.2-.15-.2-.26v-3.78s-.03-.08-.03-.12c0-.11.08-.21.21-.26l4.82-1.8c.09-.04.2-.03.3,0l4.11,1.63c.12.05.2.15.2.26v3.87c0,.11-.08.22-.21.27l-4.8,1.8s-.1.03-.14.03-.1,0-.15-.03Zm4.6-5.75l-3.76-1.49-4.44,1.66v3.53s3.76,1.47,3.76,1.47l4.45-1.67v-3.5Z"/></g><polygon id="_3-25" class="cls-1" points="30.7 26.8 30.7 30.7 34.81 32.3 34.81 28.44 30.7 26.8"/><polygon id="_2-25" class="cls-12" points="39.61 26.63 39.61 30.5 34.81 32.3 34.81 28.44 39.61 26.63"/><path id="_1-25" class="cls-13" d="m30.67,26.8l4.13,1.63,4.8-1.81-4.11-1.63-4.82,1.8Z"/></g><g><g id="_4-26"><polygon class="cls-9" points="30.67 22.32 35.49 20.53 39.61 22.15 39.61 26.01 34.81 27.81 30.7 26.2 30.7 22.34 30.67 22.32"/><path class="cls-6" d="m34.66,28.07l-4.11-1.61c-.12-.05-.2-.15-.2-.26v-3.76s-.03-.08-.03-.12c0-.11.08-.22.21-.26l4.82-1.8c.09-.04.2-.03.29,0l4.11,1.63c.12.05.2.15.2.26v3.85c0,.11-.08.22-.21.27l-4.8,1.8s-.1.03-.14.03-.1,0-.15-.03Zm4.6-5.74l-3.76-1.49-4.44,1.66v3.51s3.76,1.47,3.76,1.47l4.45-1.67v-3.48Z"/></g><polygon id="_3-26" class="cls-1" points="30.7 22.32 30.7 26.2 34.81 27.81 34.81 23.95 30.7 22.32"/><polygon id="_2-26" class="cls-12" points="39.61 22.15 39.61 26.01 34.81 27.81 34.81 23.95 39.61 22.15"/><path id="_1-26" class="cls-13" d="m30.67,22.32l4.13,1.63,4.8-1.8-4.11-1.63-4.82,1.8Z"/></g><g><g id="_4-27"><polygon class="cls-9" points="30.67 17.88 35.49 16.08 39.61 17.71 39.61 21.56 34.81 23.36 30.7 21.76 30.7 17.89 30.67 17.88"/><path class="cls-6" d="m34.66,23.62l-4.11-1.6c-.12-.05-.2-.15-.2-.26v-3.76s-.03-.08-.03-.12c0-.11.08-.22.21-.26l4.82-1.8c.09-.04.2-.03.3,0l4.11,1.63c.12.05.2.15.2.26v3.85c0,.11-.08.22-.21.27l-4.8,1.8s-.1.03-.14.03-.1,0-.15-.03Zm4.6-5.73l-3.76-1.49-4.44,1.66v3.51s3.76,1.47,3.76,1.47l4.45-1.67v-3.48Z"/></g><polygon id="_3-27" class="cls-1" points="30.7 17.88 30.7 21.76 34.81 23.36 34.81 19.51 30.7 17.88"/><polygon id="_2-27" class="cls-12" points="39.61 17.71 39.61 21.56 34.81 23.36 34.81 19.51 39.61 17.71"/><path id="_1-27" class="cls-13" d="m30.67,17.88l4.13,1.63,4.8-1.8-4.11-1.63-4.82,1.8Z"/></g><g><g id="_4-28"><polygon class="cls-9" points="30.67 13.4 35.49 11.6 39.61 13.23 39.61 17.08 34.81 18.88 30.7 17.28 30.7 13.41 30.67 13.4"/><path class="cls-6" d="m34.66,19.14l-4.11-1.6c-.12-.05-.2-.15-.2-.26v-3.76s-.03-.08-.03-.12c0-.11.08-.22.21-.26l4.82-1.8c.09-.04.2-.03.3,0l4.11,1.63c.12.05.2.15.2.26v3.85c0,.11-.08.22-.21.27l-4.8,1.8s-.1.03-.14.03-.1,0-.15-.03Zm4.6-5.73l-3.76-1.49-4.44,1.66v3.51s3.76,1.47,3.76,1.47l4.45-1.67v-3.48Z"/></g><polygon id="_3-28" class="cls-1" points="30.7 13.4 30.7 17.28 34.81 18.88 34.81 15.03 30.7 13.4"/><polygon id="_2-28" class="cls-12" points="39.61 13.23 39.61 17.08 34.81 18.88 34.81 15.03 39.61 13.23"/><path id="_1-28" class="cls-13" d="m30.67,13.4l4.13,1.63,4.8-1.8-4.11-1.63-4.82,1.8Z"/></g><g><g id="_4-29"><polygon class="cls-9" points="35.6 28.91 40.42 27.11 44.53 28.74 44.53 32.61 39.73 34.42 35.63 32.81 35.63 28.93 35.6 28.91"/><path class="cls-6" d="m39.58,34.68l-4.11-1.61c-.12-.05-.2-.15-.2-.26v-3.78s-.03-.08-.03-.12c0-.11.08-.21.21-.26l4.82-1.8c.09-.04.2-.03.3,0l4.11,1.63c.12.05.2.15.2.26v3.87c0,.11-.08.22-.21.27l-4.8,1.8s-.1.03-.14.03-.1,0-.15-.03Zm4.6-5.75l-3.76-1.49-4.44,1.66v3.53s3.76,1.47,3.76,1.47l4.45-1.67v-3.5Z"/></g><polygon id="_3-29" class="cls-1" points="35.63 28.91 35.63 32.81 39.73 34.42 39.73 30.55 35.63 28.91"/><polygon id="_2-29" class="cls-12" points="44.53 28.74 44.53 32.61 39.73 34.42 39.73 30.55 44.53 28.74"/><path id="_1-29" class="cls-13" d="m35.6,28.91l4.13,1.63,4.8-1.81-4.11-1.63-4.82,1.8Z"/></g><g><g id="_4-30"><polygon class="cls-9" points="35.6 24.44 40.42 22.64 44.53 24.27 44.53 28.12 39.73 29.92 35.63 28.31 35.63 24.45 35.6 24.44"/><path class="cls-6" d="m39.58,30.19l-4.11-1.61c-.12-.05-.2-.15-.2-.26v-3.76s-.03-.08-.03-.12c0-.11.08-.22.21-.26l4.82-1.8c.09-.04.2-.03.29,0l4.11,1.63c.12.05.2.15.2.26v3.85c0,.11-.08.22-.21.27l-4.8,1.8s-.1.03-.14.03-.1,0-.15-.03Zm4.6-5.74l-3.76-1.49-4.44,1.66v3.51s3.76,1.47,3.76,1.47l4.45-1.67v-3.48Z"/></g><polygon id="_3-30" class="cls-1" points="35.63 24.44 35.63 28.31 39.73 29.92 39.73 26.07 35.63 24.44"/><polygon id="_2-30" class="cls-12" points="44.53 24.27 44.53 28.12 39.73 29.92 39.73 26.07 44.53 24.27"/><path id="_1-30" class="cls-13" d="m35.6,24.44l4.13,1.63,4.8-1.8-4.11-1.63-4.82,1.8Z"/></g><g><g id="_4-31"><polygon class="cls-9" points="35.6 19.99 40.42 18.19 44.53 19.82 44.53 23.67 39.73 25.47 35.63 23.87 35.63 20 35.6 19.99"/><path class="cls-6" d="m39.58,25.74l-4.11-1.6c-.12-.05-.2-.15-.2-.26v-3.76s-.03-.08-.03-.12c0-.11.08-.22.21-.26l4.82-1.8c.09-.04.2-.03.3,0l4.11,1.63c.12.05.2.15.2.26v3.85c0,.11-.08.22-.21.27l-4.8,1.8s-.1.03-.14.03-.1,0-.15-.03Zm4.6-5.73l-3.76-1.49-4.44,1.66v3.51s3.76,1.47,3.76,1.47l4.45-1.67v-3.48Z"/></g><polygon id="_3-31" class="cls-1" points="35.63 19.99 35.63 23.87 39.73 25.47 39.73 21.62 35.63 19.99"/><polygon id="_2-31" class="cls-12" points="44.53 19.82 44.53 23.67 39.73 25.47 39.73 21.62 44.53 19.82"/><path id="_1-31" class="cls-13" d="m35.6,19.99l4.13,1.63,4.8-1.8-4.11-1.63-4.82,1.8Z"/></g><g><g id="_4-32"><polygon class="cls-9" points="35.6 15.51 40.42 13.71 44.53 15.34 44.53 19.19 39.73 20.99 35.63 19.39 35.63 15.52 35.6 15.51"/><path class="cls-6" d="m39.58,21.26l-4.11-1.6c-.12-.05-.2-.15-.2-.26v-3.76s-.03-.08-.03-.12c0-.11.08-.22.21-.26l4.82-1.8c.09-.04.2-.03.3,0l4.11,1.63c.12.05.2.15.2.26v3.85c0,.11-.08.22-.21.27l-4.8,1.8s-.1.03-.14.03-.1,0-.15-.03Zm4.6-5.73l-3.76-1.49-4.44,1.66v3.51s3.76,1.47,3.76,1.47l4.45-1.67v-3.48Z"/></g><polygon id="_3-32" class="cls-1" points="35.63 15.51 35.63 19.39 39.73 20.99 39.73 17.14 35.63 15.51"/><polygon id="_2-32" class="cls-12" points="44.53 15.34 44.53 19.19 39.73 20.99 39.73 17.14 44.53 15.34"/><path id="_1-32" class="cls-13" d="m35.6,15.51l4.13,1.63,4.8-1.8-4.11-1.63-4.82,1.8Z"/></g></g><g id="AAAA_OK_2_copy_5-2"><g><g id="_4-33"><polygon class="cls-9" points="7.6 24.58 12.42 22.78 16.53 24.41 16.53 28.28 11.73 30.08 7.62 28.47 7.62 24.59 7.6 24.58"/><path class="cls-6" d="m11.58,30.34l-4.11-1.61c-.12-.05-.2-.15-.2-.26v-3.78s-.03-.08-.03-.12c0-.11.08-.21.21-.26l4.82-1.8c.09-.04.2-.03.3,0l4.11,1.63c.12.05.2.15.2.26v3.87c0,.11-.08.22-.21.27l-4.8,1.8s-.1.03-.14.03-.1,0-.15-.03Zm4.6-5.75l-3.76-1.49-4.44,1.66v3.53s3.76,1.47,3.76,1.47l4.45-1.67v-3.5Z"/></g><polygon id="_3-33" class="cls-1" points="7.62 24.58 7.62 28.47 11.73 30.08 11.73 26.21 7.62 24.58"/><polygon id="_2-33" class="cls-12" points="16.53 24.41 16.53 28.28 11.73 30.08 11.73 26.21 16.53 24.41"/><path id="_1-33" class="cls-13" d="m7.6,24.58l4.13,1.63,4.8-1.81-4.11-1.63-4.82,1.8Z"/></g><g><g id="_4-34"><polygon class="cls-9" points="7.6 20.1 12.42 18.3 16.53 19.93 16.53 23.78 11.73 25.58 7.62 23.98 7.62 20.11 7.6 20.1"/><path class="cls-6" d="m11.58,25.85l-4.11-1.61c-.12-.05-.2-.15-.2-.26v-3.76s-.03-.08-.03-.12c0-.11.08-.22.21-.26l4.82-1.8c.09-.04.2-.03.29,0l4.11,1.63c.12.05.2.15.2.26v3.85c0,.11-.08.22-.21.27l-4.8,1.8s-.1.03-.14.03-.1,0-.15-.03Zm4.6-5.74l-3.76-1.49-4.44,1.66v3.51s3.76,1.47,3.76,1.47l4.45-1.67v-3.48Z"/></g><polygon id="_3-34" class="cls-1" points="7.62 20.1 7.62 23.98 11.73 25.58 11.73 21.73 7.62 20.1"/><polygon id="_2-34" class="cls-12" points="16.53 19.93 16.53 23.78 11.73 25.58 11.73 21.73 16.53 19.93"/><path id="_1-34" class="cls-13" d="m7.6,20.1l4.13,1.63,4.8-1.8-4.11-1.63-4.82,1.8Z"/></g><g><g id="_4-35"><polygon class="cls-9" points="7.6 15.66 12.42 13.86 16.53 15.48 16.53 19.33 11.73 21.14 7.62 19.53 7.62 15.67 7.6 15.66"/><path class="cls-6" d="m11.58,21.4l-4.11-1.6c-.12-.05-.2-.15-.2-.26v-3.76s-.03-.08-.03-.12c0-.11.08-.22.21-.26l4.82-1.8c.09-.04.2-.03.3,0l4.11,1.63c.12.05.2.15.2.26v3.85c0,.11-.08.22-.21.27l-4.8,1.8s-.1.03-.14.03-.1,0-.15-.03Zm4.6-5.73l-3.76-1.49-4.44,1.66v3.51s3.76,1.47,3.76,1.47l4.45-1.67v-3.48Z"/></g><polygon id="_3-35" class="cls-1" points="7.62 15.66 7.62 19.53 11.73 21.14 11.73 17.28 7.62 15.66"/><polygon id="_2-35" class="cls-12" points="16.53 15.48 16.53 19.33 11.73 21.14 11.73 17.28 16.53 15.48"/><path id="_1-35" class="cls-13" d="m7.6,15.66l4.13,1.63,4.8-1.8-4.11-1.63-4.82,1.8Z"/></g><g><g id="_4-36"><polygon class="cls-9" points="7.6 11.17 12.42 9.38 16.53 11 16.53 14.85 11.73 16.66 7.62 15.05 7.62 11.19 7.6 11.17"/><path class="cls-6" d="m11.58,16.92l-4.11-1.6c-.12-.05-.2-.15-.2-.26v-3.76s-.03-.08-.03-.12c0-.11.08-.22.21-.26l4.82-1.8c.09-.04.2-.03.3,0l4.11,1.63c.12.05.2.15.2.26v3.85c0,.11-.08.22-.21.27l-4.8,1.8s-.1.03-.14.03-.1,0-.15-.03Zm4.6-5.73l-3.76-1.49-4.44,1.66v3.51s3.76,1.47,3.76,1.47l4.45-1.67v-3.48Z"/></g><polygon id="_3-36" class="cls-1" points="7.62 11.17 7.62 15.05 11.73 16.66 11.73 12.8 7.62 11.17"/><polygon id="_2-36" class="cls-12" points="16.53 11 16.53 14.85 11.73 16.66 11.73 12.8 16.53 11"/><path id="_1-36" class="cls-13" d="m7.6,11.17l4.13,1.63,4.8-1.8-4.11-1.63-4.82,1.8Z"/></g><g><g id="_4-37"><polygon class="cls-9" points="12.52 26.69 17.35 24.89 21.46 26.52 21.46 30.39 16.66 32.19 12.55 30.59 12.55 26.7 12.52 26.69"/><path class="cls-6" d="m16.51,32.46l-4.11-1.61c-.12-.05-.2-.15-.2-.26v-3.78s-.03-.08-.03-.12c0-.11.08-.21.21-.26l4.82-1.8c.09-.04.2-.03.3,0l4.11,1.63c.12.05.2.15.2.26v3.87c0,.11-.08.22-.21.27l-4.8,1.8s-.1.03-.14.03-.1,0-.15-.03Zm4.6-5.75l-3.76-1.49-4.44,1.66v3.53s3.76,1.47,3.76,1.47l4.45-1.67v-3.5Z"/></g><polygon id="_3-37" class="cls-1" points="12.55 26.69 12.55 30.59 16.66 32.19 16.66 28.32 12.55 26.69"/><polygon id="_2-37" class="cls-12" points="21.46 26.52 21.46 30.39 16.66 32.19 16.66 28.32 21.46 26.52"/><path id="_1-37" class="cls-13" d="m12.52,26.69l4.13,1.63,4.8-1.81-4.11-1.63-4.82,1.8Z"/></g><g><g id="_4-38"><polygon class="cls-9" points="12.52 22.21 17.35 20.41 21.46 22.04 21.46 25.89 16.66 27.7 12.55 26.09 12.55 22.22 12.52 22.21"/><path class="cls-6" d="m16.51,27.96l-4.11-1.61c-.12-.05-.2-.15-.2-.26v-3.76s-.03-.08-.03-.12c0-.11.08-.22.21-.26l4.82-1.8c.09-.04.2-.03.29,0l4.11,1.63c.12.05.2.15.2.26v3.85c0,.11-.08.22-.21.27l-4.8,1.8s-.1.03-.14.03-.1,0-.15-.03Zm4.6-5.74l-3.76-1.49-4.44,1.66v3.51s3.76,1.47,3.76,1.47l4.45-1.67v-3.48Z"/></g><polygon id="_3-38" class="cls-1" points="12.55 22.21 12.55 26.09 16.66 27.7 16.66 23.84 12.55 22.21"/><polygon id="_2-38" class="cls-12" points="21.46 22.04 21.46 25.89 16.66 27.7 16.66 23.84 21.46 22.04"/><path id="_1-38" class="cls-13" d="m12.52,22.21l4.13,1.63,4.8-1.8-4.11-1.63-4.82,1.8Z"/></g><g><g id="_4-39"><polygon class="cls-9" points="12.52 17.77 17.35 15.97 21.46 17.59 21.46 21.45 16.66 23.25 12.55 21.64 12.55 17.78 12.52 17.77"/><path class="cls-6" d="m16.51,23.51l-4.11-1.6c-.12-.05-.2-.15-.2-.26v-3.76s-.03-.08-.03-.12c0-.11.08-.22.21-.26l4.82-1.8c.09-.04.2-.03.3,0l4.11,1.63c.12.05.2.15.2.26v3.85c0,.11-.08.22-.21.27l-4.8,1.8s-.1.03-.14.03-.1,0-.15-.03Zm4.6-5.73l-3.76-1.49-4.44,1.66v3.51s3.76,1.47,3.76,1.47l4.45-1.67v-3.48Z"/></g><polygon id="_3-39" class="cls-1" points="12.55 17.77 12.55 21.64 16.66 23.25 16.66 19.39 12.55 17.77"/><polygon id="_2-39" class="cls-12" points="21.46 17.59 21.46 21.45 16.66 23.25 16.66 19.39 21.46 17.59"/><path id="_1-39" class="cls-13" d="m12.52,17.77l4.13,1.63,4.8-1.8-4.11-1.63-4.82,1.8Z"/></g><g><g id="_4-40"><polygon class="cls-9" points="12.52 13.29 17.35 11.49 21.46 13.11 21.46 16.97 16.66 18.77 12.55 17.16 12.55 13.3 12.52 13.29"/><path class="cls-6" d="m16.51,19.03l-4.11-1.6c-.12-.05-.2-.15-.2-.26v-3.76s-.03-.08-.03-.12c0-.11.08-.22.21-.26l4.82-1.8c.09-.04.2-.03.3,0l4.11,1.63c.12.05.2.15.2.26v3.85c0,.11-.08.22-.21.27l-4.8,1.8s-.1.03-.14.03-.1,0-.15-.03Zm4.6-5.73l-3.76-1.49-4.44,1.66v3.51s3.76,1.47,3.76,1.47l4.45-1.67v-3.48Z"/></g><polygon id="_3-40" class="cls-1" points="12.55 13.29 12.55 17.16 16.66 18.77 16.66 14.91 12.55 13.29"/><polygon id="_2-40" class="cls-12" points="21.46 13.11 21.46 16.97 16.66 18.77 16.66 14.91 21.46 13.11"/><path id="_1-40" class="cls-13" d="m12.52,13.29l4.13,1.63,4.8-1.8-4.11-1.63-4.82,1.8Z"/></g><g><g id="_4-41"><polygon class="cls-9" points="17.67 28.8 22.49 27 26.61 28.63 26.61 32.5 21.81 34.3 17.7 32.7 17.7 28.81 17.67 28.8"/><path class="cls-6" d="m21.66,34.57l-4.11-1.61c-.12-.05-.2-.15-.2-.26v-3.78s-.03-.08-.03-.12c0-.11.08-.21.21-.26l4.82-1.8c.09-.04.2-.03.3,0l4.11,1.63c.12.05.2.15.2.26v3.87c0,.11-.08.22-.21.27l-4.8,1.8s-.1.03-.14.03-.1,0-.15-.03Zm4.6-5.75l-3.76-1.49-4.44,1.66v3.53s3.76,1.47,3.76,1.47l4.45-1.67v-3.5Z"/></g><polygon id="_3-41" class="cls-1" points="17.7 28.8 17.7 32.7 21.81 34.3 21.81 30.44 17.7 28.8"/><polygon id="_2-41" class="cls-12" points="26.61 28.63 26.61 32.5 21.81 34.3 21.81 30.44 26.61 28.63"/><path id="_1-41" class="cls-13" d="m17.67,28.8l4.13,1.63,4.8-1.81-4.11-1.63-4.82,1.8Z"/></g><g><g id="_4-42"><polygon class="cls-9" points="17.67 24.32 22.49 22.53 26.61 24.15 26.61 28.01 21.81 29.81 17.7 28.2 17.7 24.34 17.67 24.32"/><path class="cls-6" d="m21.66,30.07l-4.11-1.61c-.12-.05-.2-.15-.2-.26v-3.76s-.03-.08-.03-.12c0-.11.08-.22.21-.26l4.82-1.8c.09-.04.2-.03.29,0l4.11,1.63c.12.05.2.15.2.26v3.85c0,.11-.08.22-.21.27l-4.8,1.8s-.1.03-.14.03-.1,0-.15-.03Zm4.6-5.74l-3.76-1.49-4.44,1.66v3.51s3.76,1.47,3.76,1.47l4.45-1.67v-3.48Z"/></g><polygon id="_3-42" class="cls-1" points="17.7 24.32 17.7 28.2 21.81 29.81 21.81 25.95 17.7 24.32"/><polygon id="_2-42" class="cls-12" points="26.61 24.15 26.61 28.01 21.81 29.81 21.81 25.95 26.61 24.15"/><path id="_1-42" class="cls-13" d="m17.67,24.32l4.13,1.63,4.8-1.8-4.11-1.63-4.82,1.8Z"/></g><g><g id="_4-43"><polygon class="cls-9" points="17.67 19.88 22.49 18.08 26.61 19.71 26.61 23.56 21.81 25.36 17.7 23.76 17.7 19.89 17.67 19.88"/><path class="cls-6" d="m21.66,25.62l-4.11-1.6c-.12-.05-.2-.15-.2-.26v-3.76s-.03-.08-.03-.12c0-.11.08-.22.21-.26l4.82-1.8c.09-.04.2-.03.3,0l4.11,1.63c.12.05.2.15.2.26v3.85c0,.11-.08.22-.21.27l-4.8,1.8s-.1.03-.14.03-.1,0-.15-.03Zm4.6-5.73l-3.76-1.49-4.44,1.66v3.51s3.76,1.47,3.76,1.47l4.45-1.67v-3.48Z"/></g><polygon id="_3-43" class="cls-1" points="17.7 19.88 17.7 23.76 21.81 25.36 21.81 21.51 17.7 19.88"/><polygon id="_2-43" class="cls-12" points="26.61 19.71 26.61 23.56 21.81 25.36 21.81 21.51 26.61 19.71"/><path id="_1-43" class="cls-13" d="m17.67,19.88l4.13,1.63,4.8-1.8-4.11-1.63-4.82,1.8Z"/></g><g><g id="_4-44"><polygon class="cls-9" points="17.67 15.4 22.49 13.6 26.61 15.23 26.61 19.08 21.81 20.88 17.7 19.28 17.7 15.41 17.67 15.4"/><path class="cls-6" d="m21.66,21.14l-4.11-1.6c-.12-.05-.2-.15-.2-.26v-3.76s-.03-.08-.03-.12c0-.11.08-.22.21-.26l4.82-1.8c.09-.04.2-.03.3,0l4.11,1.63c.12.05.2.15.2.26v3.85c0,.11-.08.22-.21.27l-4.8,1.8s-.1.03-.14.03-.1,0-.15-.03Zm4.6-5.73l-3.76-1.49-4.44,1.66v3.51s3.76,1.47,3.76,1.47l4.45-1.67v-3.48Z"/></g><polygon id="_3-44" class="cls-1" points="17.7 15.4 17.7 19.28 21.81 20.88 21.81 17.03 17.7 15.4"/><polygon id="_2-44" class="cls-12" points="26.61 15.23 26.61 19.08 21.81 20.88 21.81 17.03 26.61 15.23"/><path id="_1-44" class="cls-13" d="m17.67,15.4l4.13,1.63,4.8-1.8-4.11-1.63-4.82,1.8Z"/></g><g><g id="_4-45"><polygon class="cls-9" points="22.6 30.91 27.42 29.11 31.53 30.74 31.53 34.61 26.73 36.42 22.63 34.81 22.63 30.93 22.6 30.91"/><path class="cls-6" d="m26.58,36.68l-4.11-1.61c-.12-.05-.2-.15-.2-.26v-3.78s-.03-.08-.03-.12c0-.11.08-.21.21-.26l4.82-1.8c.09-.04.2-.03.3,0l4.11,1.63c.12.05.2.15.2.26v3.87c0,.11-.08.22-.21.27l-4.8,1.8s-.1.03-.14.03-.1,0-.15-.03Zm4.6-5.75l-3.76-1.49-4.44,1.66v3.53s3.76,1.47,3.76,1.47l4.45-1.67v-3.5Z"/></g><polygon id="_3-45" class="cls-1" points="22.63 30.91 22.63 34.81 26.73 36.42 26.73 32.55 22.63 30.91"/><polygon id="_2-45" class="cls-12" points="31.53 30.74 31.53 34.61 26.73 36.42 26.73 32.55 31.53 30.74"/><path id="_1-45" class="cls-13" d="m22.6,30.91l4.13,1.63,4.8-1.81-4.11-1.63-4.82,1.8Z"/></g><g><g id="_4-46"><polygon class="cls-9" points="22.6 26.44 27.42 24.64 31.53 26.27 31.53 30.12 26.73 31.92 22.63 30.31 22.63 26.45 22.6 26.44"/><path class="cls-6" d="m26.58,32.19l-4.11-1.61c-.12-.05-.2-.15-.2-.26v-3.76s-.03-.08-.03-.12c0-.11.08-.22.21-.26l4.82-1.8c.09-.04.2-.03.29,0l4.11,1.63c.12.05.2.15.2.26v3.85c0,.11-.08.22-.21.27l-4.8,1.8s-.1.03-.14.03-.1,0-.15-.03Zm4.6-5.74l-3.76-1.49-4.44,1.66v3.51s3.76,1.47,3.76,1.47l4.45-1.67v-3.48Z"/></g><polygon id="_3-46" class="cls-1" points="22.63 26.44 22.63 30.31 26.73 31.92 26.73 28.07 22.63 26.44"/><polygon id="_2-46" class="cls-12" points="31.53 26.27 31.53 30.12 26.73 31.92 26.73 28.07 31.53 26.27"/><path id="_1-46" class="cls-13" d="m22.6,26.44l4.13,1.63,4.8-1.8-4.11-1.63-4.82,1.8Z"/></g><g><g id="_4-47"><polygon class="cls-9" points="22.6 21.99 27.42 20.19 31.53 21.82 31.53 25.67 26.73 27.47 22.63 25.87 22.63 22 22.6 21.99"/><path class="cls-6" d="m26.58,27.74l-4.11-1.6c-.12-.05-.2-.15-.2-.26v-3.76s-.03-.08-.03-.12c0-.11.08-.22.21-.26l4.82-1.8c.09-.04.2-.03.3,0l4.11,1.63c.12.05.2.15.2.26v3.85c0,.11-.08.22-.21.27l-4.8,1.8s-.1.03-.14.03-.1,0-.15-.03Zm4.6-5.73l-3.76-1.49-4.44,1.66v3.51s3.76,1.47,3.76,1.47l4.45-1.67v-3.48Z"/></g><polygon id="_3-47" class="cls-1" points="22.63 21.99 22.63 25.87 26.73 27.47 26.73 23.62 22.63 21.99"/><polygon id="_2-47" class="cls-12" points="31.53 21.82 31.53 25.67 26.73 27.47 26.73 23.62 31.53 21.82"/><path id="_1-47" class="cls-13" d="m22.6,21.99l4.13,1.63,4.8-1.8-4.11-1.63-4.82,1.8Z"/></g><g><g id="_4-48"><polygon class="cls-9" points="22.6 17.51 27.42 15.71 31.53 17.34 31.53 21.19 26.73 22.99 22.63 21.39 22.63 17.52 22.6 17.51"/><path class="cls-6" d="m26.58,23.26l-4.11-1.6c-.12-.05-.2-.15-.2-.26v-3.76s-.03-.08-.03-.12c0-.11.08-.22.21-.26l4.82-1.8c.09-.04.2-.03.3,0l4.11,1.63c.12.05.2.15.2.26v3.85c0,.11-.08.22-.21.27l-4.8,1.8s-.1.03-.14.03-.1,0-.15-.03Zm4.6-5.73l-3.76-1.49-4.44,1.66v3.51s3.76,1.47,3.76,1.47l4.45-1.67v-3.48Z"/></g><polygon id="_3-48" class="cls-1" points="22.63 17.51 22.63 21.39 26.73 22.99 26.73 19.14 22.63 17.51"/><polygon id="_2-48" class="cls-12" points="31.53 17.34 31.53 21.19 26.73 22.99 26.73 19.14 31.53 17.34"/><path id="_1-48" class="cls-13" d="m22.6,17.51l4.13,1.63,4.8-1.8-4.11-1.63-4.82,1.8Z"/></g></g><g id="Layer_82_copy_8"><g id="carcasse_CONTOUR_"><path class="cls-3" d="m38.06,35.35l-6.22-3.54-.72-.8-.68-1.78-13.88-5.29-9.45,5.06v-3.24l8.6-4.78c.39-.21.85-.25,1.26-.09l15.16,5.78c.4.15.72.47.87.87l.71,1.87,3.35,1.72,2.94,3.65-1.96.58Z"/></g><path id="Arr_Roue_" d="m26.24,49.55c.3-1.28,2.09-1.37,2.09-1.37l-.58,2.54-2.1,1.37s.28-1.25.58-2.53Zm-15.58-5.39l2.1-1.37.49-2.16s-1.44-.31-2.02,1.06c-.3,1.28-.57,2.47-.57,2.47Z"/><path id="OK_ROUE_AV_G" d="m41.7,52.09c.7-.45.93-.69,1.54-1.29.46-.45.84-1.05.8-2.02-.09-1.95-1.58-4.26-3.33-5.16-.88-.45-1.66-.46-2.2-.1l-2.09,1.36s0,0,0,0h0s0,0,0,0c-.54.35-.85,1.05-.8,2.02.09,1.95,1.58,4.26,3.33,5.16.88.45,2.22.38,2.76.03Z"/><g id="OK_ROUE_AV_d"><path d="m31.81,56.59c.7-.45,1.4-.9,2.1-1.36.54-.35.84-1.05.8-2.02-.09-1.95-1.58-4.26-3.33-5.16-.88-.45-1.66-.46-2.2-.1l-2.09,1.36s0,0,0,0h0s0,0,0,0c-.54.35-.85,1.05-.8,2.02.09,1.95,1.58,4.26,3.33,5.16.88.45,1.65.45,2.19.1Zm-2.27-1.76c-.93-.48-1.72-1.7-1.77-2.73-.05-1.04.66-1.49,1.59-1.01.93.48,1.72,1.7,1.77,2.73.05,1.04-.66,1.49-1.59,1.01Z"/><path id="OK" class="cls-12" d="m30.49,54.57c-.24.15-.58.15-.97-.05-.39-.2-.74-.55-1.01-.96-.27-.41-.44-.88-.46-1.32-.02-.43.12-.74.36-.89.24-.16.58-.15.97.05.39.2.74.55,1.01.97.27.41.44.88.46,1.31.02.43-.12.74-.36.9Z"/><path class="cls-3" d="m29.36,51.08c.93.48,1.72,1.7,1.77,2.73s-.66,1.49-1.59,1.01c-.93-.48-1.72-1.7-1.77-2.73-.05-1.04.66-1.49,1.59-1.01Zm1.13,3.49c.24-.16.38-.46.36-.9-.02-.43-.19-.9-.46-1.31-.27-.41-.63-.77-1.01-.97-.39-.2-.73-.2-.97-.05-.24.15-.38.46-.36.89.02.43.2.9.46,1.32.27.41.62.76,1.01.96.39.2.73.2.97.05"/></g><g id="OK_ROUE_arr_d"><path id="R" class="cls-9" d="m16.25,40.15c-.88-.45-1.66-.46-2.2-.1l-2.1,1.36c.54-.35,1.32-.35,2.2.1,1.75.9,3.24,3.21,3.33,5.16.05.97-.26,1.67-.8,2.02.7-.45,1.4-.91,2.1-1.37.54-.35.84-1.05.8-2.02-.09-1.95-1.58-4.26-3.33-5.16Z"/><path id="_" class="cls-1" d="m14.16,41.51c1.75.9,3.24,3.21,3.33,5.16.09,1.95-1.25,2.81-3,1.91-1.75-.9-3.24-3.2-3.33-5.16-.09-1.95,1.25-2.81,3-1.91Zm.26,5.41c.93.48,1.64.02,1.59-1.01-.05-1.04-.84-2.26-1.77-2.73-.93-.48-1.64-.02-1.59,1.01.05,1.04.84,2.26,1.77,2.73"/><path d="m16.68,48.68c.7-.45,1.4-.9,2.1-1.36.54-.35.84-1.05.8-2.02-.09-1.95-1.58-4.26-3.33-5.16-.88-.45-1.66-.46-2.2-.1l-2.09,1.36s0,0,0,0h0s0,0,0,0c-.54.35-.85,1.05-.8,2.02.09,1.95,1.58,4.26,3.33,5.16.88.45,1.65.45,2.2.1Zm-2.27-1.76c-.93-.48-1.72-1.7-1.77-2.73-.05-1.04.66-1.49,1.59-1.01.93.48,1.72,1.7,1.77,2.73.05,1.04-.66,1.49-1.59,1.01Z"/><path id="OK-2" class="cls-12" d="m15.36,46.66c-.24.15-.58.15-.97-.05-.39-.2-.74-.55-1.01-.96-.27-.41-.44-.88-.46-1.32-.02-.43.12-.74.36-.89.24-.16.58-.15.97.05.39.2.74.55,1.01.97.27.41.44.88.46,1.31.02.43-.12.74-.36.9Z"/><path class="cls-3" d="m14.23,43.17c.93.48,1.72,1.7,1.77,2.73.05,1.04-.66,1.49-1.59,1.01-.93-.48-1.72-1.7-1.77-2.73-.05-1.04.66-1.49,1.59-1.01Zm1.13,3.49c.24-.16.38-.46.36-.9-.02-.43-.19-.9-.46-1.31-.27-.41-.63-.77-1.01-.97-.39-.2-.73-.2-.97-.05-.24.15-.38.46-.36.89.02.43.2.9.46,1.32.27.41.62.76,1.01.96.39.2.73.2.97.05"/></g><path id="carcasse_" class="cls-8" d="m45.33,45.44l-1.5-3.41-2.31-2.29-5.13-6.53-3.86-1.98-.92-2.41-15.16-5.78-9.24,5.13v11.54l.8,3.15,2.64,1.29.57-2.47c0-.15.98-1.91,3.23-.61,2.43,1.31,3.09,3.75,3.12,3.87h.01s.61,3.15.61,3.15l7.45,3.98.58-2.53c.07-.41.93-1.95,3.17-.57,2.57,1.52,3.29,3.77,3.33,3.89l.15,2.9.71.38,12.28-7.76-.04-.96-.18-.48-.32-1.5Zm-16.54.71l-5.17-2.66-.22-4.65,2.5,1.05,3.62,5.77-.73.48Zm3.14-1.78c-.58.36-1.35.17-1.68-.43l-1.85-3.31c-.31-.56-.13-1.26.41-1.6l6.12-3.74c.52-.33,1.2-.21,1.58.27l2.36,2.99c.44.56.3,1.38-.31,1.76l-6.63,4.06Z"/><g id="pare_brise_ok_"><path class="cls-10" d="m38.55,40.31l-6.63,4.06c-.58.36-1.35.17-1.68-.43l-1.85-3.31c-.31-.56-.13-1.26.41-1.6l6.12-3.74c.52-.33,1.2-.21,1.58.27l2.36,2.99c.44.56.3,1.38-.31,1.76Z"/><path class="cls-5" d="m38.55,40.31l-6.63,4.06c-.58.36-1.35.17-1.68-.43l-1.85-3.31c-.31-.56-.13-1.26.41-1.6l6.12-3.74c.52-.33,1.2-.21,1.58.27l2.36,2.99c.44.56.3,1.38-.31,1.76Z"/></g><g id="pare_brise_ok_-2" class="cls-2"><path class="cls-15" d="m38.55,40.31l-6.63,4.06c-.58.36-1.35.17-1.68-.43l-1.85-3.31c-.31-.56-.13-1.26.41-1.6l6.12-3.74c.52-.33,1.2-.21,1.58.27l2.36,2.99c.44.56.3,1.38-.31,1.76Z"/><path class="cls-5" d="m38.55,40.31l-6.63,4.06c-.58.36-1.35.17-1.68-.43l-1.85-3.31c-.31-.56-.13-1.26.41-1.6l6.12-3.74c.52-.33,1.2-.21,1.58.27l2.36,2.99c.44.56.3,1.38-.31,1.76Z"/></g><path id="Bas_de_caisse" class="cls-14" d="m10.87,41.52l-.11.52-.23,1.89-2.43-1.16-.75-2.82,3.52,1.58Zm7.14,3.62l.15,2.94,7.37,4.01.36-2.79-7.88-4.16Z"/><g id="Layer_150_copy_6"><path d="m7.37,27.84c-.09.02,14.64,6.73,14.03,6.64,0,0,8.86-4.71,8.86-4.71l-8.71,4.98s-.09.02-.14,0l-14.34-6.22c-.45-.19-.14-.9.31-.68h0Z"/><path d="m32.35,31.75l-8.67,4.15,8.32-4.81c.44-.25.81.44.35.66h0Z"/><path d="m21.31,49.51l.38-10.65.38,10.65c.01.51-.76.51-.75,0h0Z"/><path d="m24.19,37.4l2.85,1.32-2.94-1.09c-.16-.06-.06-.3.1-.23h0Z"/></g><g id="PHARES_ok_copy_6"><g id="PHARE_AV_G_"><path class="cls-3" d="m43.86,46.68c-.55,0-1.03-.33-1.24-.84l-.32-.8c-.24-.54-.08-1.18.37-1.55v-.02s.13-.07.13-.07h0c.08-.04.23-.12.54-.28.14-.08.32-.12.49-.12.33,0,.6.15.74.43.22.42.84,1.9.86,1.96.01.04.07.44-.29.7-.31.23-.57.37-.57.37-.21.14-.46.21-.72.21h0Z"/><path d="m43.84,43.13c.24,0,.49.1.63.37.22.42.86,1.95.86,1.95,0,0,.06.33-.25.55-.31.22-.55.37-.55.37-.21.14-.43.2-.66.2-.47,0-.93-.28-1.12-.76l-.32-.8c-.23-.53-.06-1.15.42-1.48.05-.03.2-.1.56-.29.12-.06.27-.1.43-.1m-.97.38s-.02.01-.02.02c-.02,0-.02.01-.02.01,0,0,.05-.03.05-.03m.97-.63c-.19,0-.38.05-.54.13-.33.17-.48.25-.54.28h0s-.08.04-.12.08c-.53.42-.7,1.12-.44,1.72l.31.79c.22.56.75.92,1.35.92.28,0,.56-.08.8-.24,0,0,0,0,0,0,0,0,.25-.15.56-.37.34-.25.38-.62.35-.8v-.03s-.02-.03-.02-.03c-.03-.06-.64-1.54-.87-1.97-.17-.32-.48-.5-.85-.5h0Z"/></g><g><path class="cls-3" d="m34.75,52.52c-.21,0-.41-.05-.59-.14l-.11-.06c-.54-.27-.98-1.23-.98-2.13,0-.99,1.32-1.42,1.38-1.44.25-.13.51-.2.76-.2.5,0,.92.29,1.14.79l.35.9c.22.58,0,1.25-.51,1.59l-.71.46c-.22.14-.47.22-.73.22Z"/><path d="m35.2,48.68c.46,0,.83.27,1.03.72l.35.9c.2.53.01,1.13-.46,1.44l-.71.46c-.2.13-.43.2-.66.2-.18,0-.37-.04-.54-.13l-.11-.06c-.46-.23-.91-1.11-.91-2.02,0-.91,1.29-1.32,1.29-1.32.26-.14.5-.2.73-.2m0-.25c-.27,0-.55.08-.84.23-.02,0-1.42.46-1.42,1.54,0,.94.47,1.95,1.05,2.24l.11.06c.2.1.42.15.65.15.28,0,.56-.08.79-.24l.71-.46c.57-.37.8-1.1.56-1.74l-.35-.9c-.25-.56-.71-.88-1.26-.88h0Z"/></g><path id="PHARE_ARR_" class="cls-4" d="m8.05,38.09c.46.24.86.85.88,1.37l.05,1.09-1.78-.81v-2.02l.84.38Z"/></g><polyline id="FEN_" class="cls-16" points="28.78 46.16 23.62 43.5 23.4 38.85 25.9 39.9 29.51 45.67 28.78 46.16"/><polyline id="FEN_-2" class="cls-11" points="28.78 46.16 23.62 43.5 23.4 38.85 25.9 39.9 29.51 45.67 28.78 46.16"/><path d="m23.4,38.85l2.5,1.05,3.62,5.77-.73.48-5.17-2.66-.22-4.65m0-.25c-.05,0-.1.02-.14.05-.07.05-.11.13-.11.22l.22,4.65c0,.09.06.17.14.21l5.17,2.66s.08.03.11.03c.05,0,.1-.01.14-.04l.73-.48c.11-.07.15-.23.07-.34l-3.62-5.77s-.07-.08-.11-.1l-2.5-1.05s-.06-.02-.1-.02h0Z"/><path id="carcasse_CONTOUR_-2" class="cls-7" d="m45.33,45.44l-1.5-3.41-2.31-2.29-5.13-6.53-3.86-1.98-.92-2.41-15.16-5.78-9.24,5.13v11.54l.8,3.15,2.64,1.29.57-2.47c0-.15.98-1.91,3.23-.61,2.43,1.31,3.09,3.75,3.12,3.87h.01s.61,3.15.61,3.15l7.45,3.98.58-2.53c.07-.41.93-1.95,3.17-.57,2.57,1.52,3.29,3.77,3.33,3.89l.15,2.9.71.38,12.28-7.76-.04-.96h0l-.18-.11-.32-1.87Zm-16.54.71l-5.17-2.66-.22-4.65,2.5,1.05,3.62,5.77-.73.48Zm3.14-1.78c-.58.36-1.35.17-1.68-.43l-1.85-3.31c-.31-.56-.13-1.26.41-1.6l6.12-3.74c.52-.33,1.2-.21,1.58.27l2.36,2.99c.44.56.3,1.38-.31,1.76l-6.63,4.06Z"/></g></svg>