<?xml version="1.0" encoding="UTF-8"?><svg xmlns="http://www.w3.org/2000/svg" xmlns:xlink="http://www.w3.org/1999/xlink" viewBox="0 0 64 64"><defs><style>.u{fill:url(#t);}.v{fill:#5a9ab8;}.v,.w{stroke-width:.5px;}.v,.w,.x,.y{stroke:#000;}.v,.x,.a`,.y,.aa{stroke-linecap:round;stroke-linejoin:round;}.w{fill:#82bddb;}.w,.ab{stroke-miterlimit:10;}.ac,.x{fill:#aadcfa;}.ad{fill:url(#c);}.ae{fill:#285977;}.af{fill:#003755;}.x,.y{stroke-width:.46px;}.ag{fill:url(#f);}.a`{fill:none;stroke-width:.15px;}.a`,.aa{stroke:#fff;}.y{fill:url(#p);}.ab{fill:#fff;stroke:#323232;stroke-width:.24px;}.aa{fill:url(#m);stroke-width:.25px;}.ah{fill:url(#e);}.ai{fill:url(#q);}.aj{fill:#ff0f0f;}</style><linearGradient id="c" x1="5.5" y1="51.52" x2="59.47" y2="51.52" gradientTransform="matrix(1, 0, 0, 1, 0, 0)" gradientUnits="userSpaceOnUse"><stop offset="0" stop-color="#3287af"/><stop offset="1" stop-color="#285a78"/></linearGradient><linearGradient id="e" x1="27.89" y1="50.94" x2="31.45" y2="50.94" gradientTransform="matrix(1, 0, 0, 1, 0, 0)" gradientUnits="userSpaceOnUse"><stop offset="0" stop-color="#3c7e96"/><stop offset=".07" stop-color="#4d8fa7"/><stop offset=".19" stop-color="#66a8c1"/><stop offset=".33" stop-color="#79bcd5"/><stop offset=".48" stop-color="#87cae3"/><stop offset=".67" stop-color="#8fd2eb"/><stop offset="1" stop-color="#92d5ee"/></linearGradient><linearGradient id="f" x1="14.53" y1="46.69" x2="51.08" y2="46.69" gradientTransform="matrix(1, 0, 0, 1, 0, 0)" gradientUnits="userSpaceOnUse"><stop offset=".15" stop-color="#82bddb"/><stop offset=".23" stop-color="#a6d0e5"/><stop offset=".38" stop-color="#fff"/><stop offset=".56" stop-color="#5a9ab8"/><stop offset=".78" stop-color="#92d5ee"/><stop offset="1" stop-color="#82bddb"/></linearGradient><linearGradient id="m" x1="76.75" y1="5.07" x2="78.06" y2="7.35" gradientTransform="translate(1.02 -.46) rotate(51.71) scale(.54 .35) skewX(55.87)" gradientUnits="userSpaceOnUse"><stop offset="0" stop-color="#fc3f05"/><stop offset="1" stop-color="#c10e00"/></linearGradient><linearGradient id="p" x1="52.37" y1="-5.3" x2="60.33" y2="1.19" gradientTransform="translate(-14.08 -6.41) rotate(43.3)" xlink:href="#e"/><linearGradient id="q" x1="25.14" y1="25.8" x2="31.86" y2="25.8" xlink:href="#e"/><linearGradient id="t" x1="23.77" y1="7.5" x2="33.22" y2="23.86" gradientTransform="matrix(1, 0, 0, 1, 0, 0)" gradientUnits="userSpaceOnUse"><stop offset="0" stop-color="#8cd7f5"/><stop offset=".11" stop-color="#88d3f1"/><stop offset=".22" stop-color="#7fc7e5"/><stop offset=".33" stop-color="#6fb3d1"/><stop offset=".43" stop-color="#5897b5"/><stop offset=".54" stop-color="#3b7391"/><stop offset=".56" stop-color="#376e8c"/></linearGradient></defs><g id="a"><g id="b"><path class="ad" d="M59.46,49.99c0,.2-.24,.4-.67,.52l-20.69,5.96c-.7,.2-1.67,.14-2.16-.13l-2.06-1.17c-.48-.27-1.46-.33-2.17-.13l-3.6,1.02c-.71,.2-1.69,.14-2.17-.13L5.77,44.61c-.18-.1-.27-.22-.27-.34v2.18c.01,.12,.1,.24,.28,.34l20.17,11.31c.48,.27,1.46,.33,2.17,.13l3.6-1.02c.71-.2,1.69-.14,2.17,.13l2.06,1.17c.48,.27,1.45,.33,2.16,.13l20.69-5.96c.44-.13,.68-.33,.67-.52v-2.18Z"/></g><g id="d"><g><path class="ah" d="M31.21,53.16c0-.1-.11-.18-.2-.23l-2.78-1.57c-.28-.16-.34-.33-.34-.45v-2.18h.24c0,.08,.07,.16,.2,.24l2.78,1.57c.28,.16,.33,.33,.33,.45v2.18h-.24Z"/><path d="M28.01,48.72c0,.12,.08,.24,.27,.34l2.78,1.57c.18,.1,.27,.22,.27,.34v2.18c0-.12-.08-.24-.26-.34l-2.78-1.57c-.18-.1-.28-.22-.28-.34v-2.18m.24,0h-.49v2.18c0,.15,.07,.37,.4,.55l2.78,1.57c.11,.06,.14,.11,.14,.13h.49v-2.18c0-.15-.07-.37-.4-.55l-2.78-1.57c-.12-.07-.14-.12-.14-.13h0Z"/></g><g><path class="ag" d="M50.84,51.93c0-.1-.13-.19-.2-.24l-13.28-7.55c-.26-.15-.7-.24-1.17-.24-.32,0-.63,.04-.9,.11l-4.38,1.33c-.28,.08-.61,.12-.95,.12-.53,0-1-.1-1.31-.27l-1.94-1.1c-.26-.15-.71-.24-1.19-.24-.32,0-.62,.04-.88,.11l-9.28,2.62c-.41,.12-.59,.28-.59,.4h-.24v-2.18c0-.27,.27-.5,.76-.64l9.28-2.62c.28-.08,.61-.12,.95-.12,.53,0,1,.1,1.31,.27l1.94,1.1c.26,.15,.71,.24,1.19,.24,.32,0,.62-.04,.88-.11l4.38-1.33c.29-.08,.62-.12,.97-.12,.52,0,1,.1,1.29,.27l13.28,7.55c.28,.16,.34,.33,.34,.45v2.18h-.24Z"/><path d="M25.51,41.57c.48,0,.95,.09,1.25,.25l1.94,1.1c.29,.17,.76,.25,1.25,.25,.32,0,.64-.04,.92-.12l4.38-1.33c.28-.08,.61-.12,.93-.12,.48,0,.94,.09,1.24,.25l13.28,7.55c.18,.1,.28,.22,.28,.34v2.18c0-.12-.08-.24-.26-.34l-13.28-7.55c-.29-.16-.76-.25-1.24-.25-.32,0-.65,.04-.93,.12l-4.38,1.33c-.28,.08-.6,.12-.92,.12-.48,0-.95-.09-1.25-.25l-1.94-1.1c-.29-.17-.76-.25-1.25-.25-.32,0-.64,.04-.92,.12l-9.28,2.62c-.44,.12-.68,.32-.68,.52v-2.18c0-.2,.23-.39,.67-.52l9.28-2.62c.28-.08,.6-.12,.92-.12m-10.86,5.44h0m10.86-5.68c-.35,0-.69,.04-.98,.13l-9.28,2.62c-.54,.15-.85,.43-.85,.75v2.18h.49s.1-.17,.5-.28l9.28-2.62c.25-.07,.54-.11,.85-.11,.46,0,.88,.08,1.13,.22l1.94,1.1c.32,.18,.82,.28,1.37,.28,.35,0,.69-.04,.98-.13l4.38-1.34c.25-.07,.55-.11,.86-.11,.46,0,.87,.08,1.11,.22l13.28,7.55c.12,.07,.14,.12,.14,.13h.49v-2.18c0-.15-.07-.37-.4-.55l-13.28-7.55c-.32-.18-.81-.28-1.36-.28-.36,0-.7,.04-1,.13l-4.38,1.34c-.24,.07-.54,.11-.85,.11-.46,0-.88-.08-1.13-.22l-1.94-1.1c-.32-.18-.82-.28-1.37-.28h0Z"/></g></g><path id="g" class="ab" d="M58.78,50.51l-20.69,5.96c-.7,.2-1.67,.14-2.16-.13l-2.06-1.17c-.48-.27-1.46-.33-2.17-.13l-3.6,1.02c-.71,.2-1.69,.14-2.17-.13L5.77,44.61c-.48-.27-.3-.66,.41-.86l27.11-7.67c.71-.2,1.69-.14,2.17,.13l23.73,13.43c.48,.27,.3,.66-.4,.87Zm-12.18,.69l3.68-.93c.71-.2,.89-.59,.41-.86l-13.27-7.55c-.48-.27-1.46-.33-2.17-.13l-4.39,1.33c-.7,.2-1.68,.14-2.16-.14l-1.94-1.1c-.48-.27-1.46-.33-2.16-.14l-9.28,2.62c-.71,.2-.89,.59-.4,.86l12.12,6.6c.48,.27,1.45,.33,2.16,.13l1.45-.41c.7-.2,.89-.59,.41-.86l-2.78-1.57c-.48-.27-.3-.66,.41-.86l1.3-.37c.71-.2,1.68-.14,2.16,.13l2.78,1.57c.48,.27,1.46,.33,2.17,.13l2.08-.7c.7-.2,1.63-.14,2.1,.13l3.2,1.95c.5,.28,1.43,.35,2.12,.15"/></g><g id="h"><g id="i"><g id="j"><path class="aj" d="M28.34,52.22c-.78,0-.83-.69-.83-.7v-17.5h1.73l.02,17.49s-.14,.7-.92,.7Z"/><path d="M29.16,34.1l.02,17.42s-.12,.63-.84,.63-.75-.63-.75-.63v-17.42h1.58m.15-.15h-1.88v17.57c.02,.27,.22,.78,.9,.78s.94-.49,.99-.75l-.02-17.45v-.15h0Z"/></g><g id="k"><path class="aj" d="M29.18,51.52s-.12,.63-.84,.63-.75-.63-.75-.63v-17.42h1.58l.02,17.42Z"/></g><line id="l" class="a`" x1="28.06" y1="51.5" x2="28.06" y2="43.66"/><line id="n" class="aa" x1="28.13" y1="38.7" x2="28.13" y2="35.96"/></g><g id="o"><polygon class="y" points="29.86 25.7 29.91 35.75 26.82 35.77 26.73 25.7 29.86 25.7"/><polygon class="ae" points="29.66 29.38 29.66 32.69 27.01 32.01 27.01 29.38 29.66 29.38"/><g><rect class="ai" x="25.14" y="20.16" width="6.72" height="11.28" rx=".32" ry=".32"/><path d="M31.54,20.48v10.64h-6.08v-10.64h6.08m0-.63h-6.08c-.35,0-.63,.28-.63,.63v10.64c0,.35,.28,.63,.63,.63h6.08c.35,0,.63-.28,.63-.63v-10.64c0-.35-.28-.63-.63-.63h0Z"/></g><polygon class="ae" points="31.54 28.38 31.54 30.61 25.44 30.01 25.44 28.38 31.54 28.38"/><polygon class="ae" points="31.54 14.14 31.54 25.51 25.44 24.41 25.44 12.62 31.54 14.14"/></g><g id="r"><polygon class="v" points="36.85 27.23 36.85 29.62 19.72 29.64 19.72 27.23 36.85 27.23"/><polygon class="w" points="33.34 27.23 33.34 29.62 23 29.64 23 27.23 33.34 27.23"/><polygon class="x" points="29.95 27.23 29.95 29.62 26.62 29.64 26.62 27.23 29.95 27.23"/></g><g id="s"><g><path class="u" d="M23.94,23.9c-.21,0-.38-.17-.38-.38V7.84c0-.17,.12-.32,.28-.36l6.08-1.52s.06-.01,.09-.01c.06,0,.12,.01,.17,.04l3.04,1.52c.13,.06,.21,.19,.21,.34v15.69c0,.21-.17,.38-.38,.38h-9.12Z"/><path class="af" d="M30.02,6.31l3.04,1.52v15.69h-9.12V7.84l6.08-1.52m0-.75c-.06,0-.12,0-.18,.02l-6.08,1.52c-.33,.08-.57,.38-.57,.73v15.69c0,.41,.34,.75,.75,.75h9.12c.41,0,.75-.34,.75-.75V7.84c0-.28-.16-.54-.41-.67l-3.04-1.52c-.1-.05-.22-.08-.34-.08h0Z"/></g><g><path class="ac" d="M30.02,22.25c-.14,0-.25-.11-.25-.25V10.36c0-.11,.07-.2,.17-.24l4.56-1.52s.05-.01,.08-.01c.04,0,.09,.01,.13,.04,.06,.04,.11,.1,.12,.17l1.52,8.6s0,.08,0,.12l-1.52,4.56c-.03,.1-.13,.17-.24,.17h-4.56Z"/><path d="M34.58,8.84l1.52,8.6-1.52,4.56h-4.56V10.36l4.56-1.52m0-.5c-.05,0-.11,0-.16,.03l-4.56,1.52c-.2,.07-.34,.26-.34,.47v11.64c0,.28,.22,.5,.5,.5h4.56c.22,0,.41-.14,.47-.34l1.52-4.56c.03-.08,.03-.16,.02-.25l-1.52-8.6c-.03-.14-.11-.27-.24-.34-.08-.05-.17-.07-.26-.07h0Z"/></g><g><path class="ac" d="M22.42,22.25c-.11,0-.2-.07-.24-.17l-1.52-4.56s-.02-.08,0-.12l1.52-8.6c.01-.07,.06-.13,.12-.17,.04-.02,.08-.04,.13-.04,.03,0,.05,0,.08,.01l4.56,1.52c.1,.03,.17,.13,.17,.24v11.64c0,.14-.11,.25-.25,.25h-4.56Z"/><path d="M22.41,8.84l4.56,1.52v11.64h-4.56l-1.52-4.56,1.52-8.6m0-.5c-.09,0-.18,.02-.26,.07-.12,.07-.21,.2-.24,.34l-1.52,8.6c-.01,.08,0,.17,.02,.25l1.52,4.56c.07,.2,.26,.34,.47,.34h4.56c.28,0,.5-.22,.5-.5V10.36c0-.22-.14-.41-.34-.47l-4.56-1.52c-.05-.02-.1-.03-.16-.03h0Z"/></g></g></g></svg>