<svg xmlns="http://www.w3.org/2000/svg" xmlns:xlink="http://www.w3.org/1999/xlink" width="64" height="64" viewBox="0 0 64 64">
  <defs>
    <linearGradient id="a" x1="34.737" y1="49.494" x2="25.966" y2="35.222" gradientUnits="userSpaceOnUse">
      <stop offset="0" stop-color="#b3b3b3"/>
      <stop offset="1" stop-color="#f0f0f0"/>
    </linearGradient>
    <linearGradient id="b" x1="21.271" y1="60.781" x2="11.514" y2="44.905" xlink:href="#a"/>
    <linearGradient id="c" x1="367.047" y1="264.538" x2="372.478" y2="264.538" gradientTransform="matrix(-0.41, -0.912, -0.912, 0.41, 431.405, 268.647)" gradientUnits="userSpaceOnUse">
      <stop offset="0" stop-color="#25667d"/>
      <stop offset="0.455" stop-color="#5199b0"/>
      <stop offset="1" stop-color="#83d2ea"/>
    </linearGradient>
    <linearGradient id="d" x1="-316.732" y1="4.103" x2="-318.349" y2="2.452" gradientTransform="translate(334.144 167.113) rotate(24.753)" gradientUnits="userSpaceOnUse">
      <stop offset="0.1" stop-color="#575757"/>
      <stop offset="0.5" stop-color="#c4c4c4"/>
      <stop offset="1" stop-color="#fff"/>
    </linearGradient>
    <linearGradient id="e" x1="367.047" y1="265.217" x2="372.478" y2="265.217" gradientTransform="matrix(-0.41, -0.912, -0.912, 0.41, 431.405, 268.647)" gradientUnits="userSpaceOnUse">
      <stop offset="0.1" stop-color="#195a72"/>
      <stop offset="0.5" stop-color="#5a9cb5"/>
      <stop offset="1" stop-color="#93d2f0"/>
    </linearGradient>
    <linearGradient id="f" x1="362.968" y1="254.669" x2="374.521" y2="254.669" gradientTransform="matrix(-0.41, -0.912, -0.912, 0.41, 431.405, 268.647)" gradientUnits="userSpaceOnUse">
      <stop offset="0" stop-color="#fff"/>
      <stop offset="0.5" stop-color="#c4c4c4"/>
      <stop offset="0.9" stop-color="#575757"/>
    </linearGradient>
    <linearGradient id="g" x1="361.782" y1="257.836" x2="373.481" y2="247.949" gradientTransform="matrix(-0.41, -0.912, -0.912, 0.41, 431.405, 268.647)" xlink:href="#d"/>
    <linearGradient id="h" x1="-19.999" y1="20.148" x2="-14.569" y2="20.148" gradientTransform="matrix(-0.826, -0.564, -0.564, 0.826, 30.922, 7.887)" xlink:href="#c"/>
    <linearGradient id="i" x1="134.985" y1="73.56" x2="133.368" y2="71.91" gradientTransform="translate(-104.357 -27.445) rotate(-6.748)" xlink:href="#d"/>
    <linearGradient id="j" x1="-19.999" y1="20.826" x2="-14.569" y2="20.826" gradientTransform="matrix(-0.826, -0.564, -0.564, 0.826, 30.922, 7.887)" xlink:href="#e"/>
    <linearGradient id="k" x1="-24.077" y1="10.279" x2="-12.525" y2="10.279" gradientTransform="matrix(-0.826, -0.564, -0.564, 0.826, 30.922, 7.887)" xlink:href="#f"/>
    <linearGradient id="l" x1="-25.267" y1="13.449" x2="-13.563" y2="3.559" gradientTransform="matrix(-0.826, -0.564, -0.564, 0.826, 30.922, 7.887)" xlink:href="#d"/>
    <linearGradient id="m" x1="42.752" y1="31.76" x2="48.182" y2="31.76" gradientTransform="translate(-18.268 -0.286) rotate(-0.149)" xlink:href="#c"/>
    <linearGradient id="n" x1="80.105" y1="41.897" x2="78.489" y2="40.248" gradientTransform="matrix(-0.756, -0.655, -0.655, 0.756, 114.075, 45.885)" xlink:href="#d"/>
    <linearGradient id="o" x1="41.9" y1="33.185" x2="48.771" y2="33.185" gradientTransform="translate(-18.268 -0.286) rotate(-0.149)" xlink:href="#e"/>
    <linearGradient id="p" x1="38.674" y1="21.891" x2="50.225" y2="21.891" gradientTransform="translate(-18.268 -0.286) rotate(-0.149)" xlink:href="#f"/>
    <linearGradient id="q" x1="36.529" y1="25.921" x2="49.687" y2="14.802" gradientTransform="translate(-18.268 -0.286) rotate(-0.149)" xlink:href="#d"/>
  </defs>
  <title>25775_DELMMG_AP_AppIcon_r21x</title>
  <g>
    <line x1="27.405" y1="29.898" x2="7.971" y2="40.052" fill="none" stroke="#6d6d6d" stroke-miterlimit="10"/>
    <g>
      <path d="M35.265,27.874a12.55,12.55,0,0,0-7.84,1.119L7.99,39.149a15.576,15.576,0,0,1,11.053-.707c7.148,1.993,13.437,9.7,13.437,13.1l13.9-15.478C46.38,33.389,41.019,28.856,35.265,27.874Z" stroke="#2d2d2d" stroke-linecap="round" stroke-linejoin="round" fill="url(#a)"/>
      <path d="M34.183,42.979c-1.082-1.3-2.072-3.718-5.263-5.154-2.436-1.1-9.368-1.227-7.81-3.507.847-1.238,5.9-1.115,8.768-.16,3.178,1.06,4.319,2.547,7.492,3.667,2.711.959,4.307-1.594,1.278-3.985a21.242,21.242,0,0,0-7.987-3.774" fill="none" stroke="#00415f" stroke-linecap="round" stroke-linejoin="round" stroke-width="0.8"/>
      <path d="M7.971,39.16l.019-.011a.093.093,0,0,1-.02.009Z" stroke="#6d6d6d" stroke-linecap="round" stroke-linejoin="round" fill="url(#b)"/>
    </g>
    <g opacity="0.3">
      <path d="M43.839,40.355c.685-.307.741-1.665.127-3.033S42.3,35.1,41.615,35.4s-.739,1.666-.127,3.035S43.157,40.661,43.839,40.355Z" fill="#fff"/>
      <path d="M41.615,35.4c.684-.306,1.736.555,2.351,1.921s.558,2.726-.127,3.033c0,0-6.8,3.051-7.011,3.15a1.246,1.246,0,0,1-.159.051A2.7,2.7,0,0,1,33.4,42.418a1.589,1.589,0,0,1-.161-.277,1.883,1.883,0,0,1-.1-.3,2.7,2.7,0,0,1,1.323-3.2.86.86,0,0,1,.143-.083Z" stroke="#00415f" stroke-linecap="round" stroke-linejoin="round" fill="url(#c)"/>
      <g>
        <path d="M43.545,38.6c-.15,0-.529-.219-.767-.748a1.1,1.1,0,0,1-.041-1.079c.1-.048,1.951-.877,2.828-1.271l.82,1.828-2.83,1.27Z" fill="url(#d)"/>
        <path d="M45.314,36.167l.411.916-2.187.981a1.077,1.077,0,0,1-.3-.414,1.066,1.066,0,0,1-.107-.5l2.187-.983m.5-1.322s-3.157,1.417-3.289,1.478c-.4.177-.565.946-.206,1.739A1.58,1.58,0,0,0,43.546,39.1a.521.521,0,0,0,.214-.043l3.286-1.475-1.228-2.741Z" fill="#6d6d6d"/>
      </g>
      <path d="M41.488,38.436c.616,1.366,1.669,2.225,2.351,1.919,0,0-6.8,3.051-7.011,3.15A2.714,2.714,0,1,1,34.6,38.553L41.615,35.4C40.931,35.708,40.876,37.067,41.488,38.436Z" stroke="#00415f" stroke-miterlimit="10" fill="url(#e)"/>
      <g>
        <path d="M49.1,40.138c-.934,0-2.483-1.242-3.515-3.542-1.148-2.559-.926-4.8-.008-5.211l2.1-.942,3.9,8.675c-.651.293-1.8.809-2.1.945A.926.926,0,0,1,49.1,40.138Z" fill="url(#f)"/>
        <path d="M47.424,31.1l1.744,3.882,1.743,3.881c-.635.285-1.407.632-1.641.739a.423.423,0,0,1-.17.032c-.646,0-2.064-1.032-3.057-3.248-1.128-2.512-.764-4.323-.258-4.55l1.639-.736m.5-1.322s-2.116.949-2.553,1.147c-1.325.594-1.431,3.222-.243,5.871,1.025,2.286,2.685,3.838,3.97,3.838a1.408,1.408,0,0,0,.58-.12c.421-.192,2.553-1.148,2.553-1.148s-1.341-2.988-2.153-4.794l-2.154-4.794Z" fill="#6d6d6d"/>
      </g>
      <g>
        <path d="M51.651,38.991c-.933,0-2.482-1.241-3.513-3.541a8.035,8.035,0,0,1-.778-3.482c.037-.9.319-1.527.77-1.73a.858.858,0,0,1,.36-.072,1.391,1.391,0,0,1,.261.026l.109.021,5.8,1.343,0,0,.279.064a1.475,1.475,0,0,1,.574,1.288l-3.033,5.567a1.015,1.015,0,0,1-.449.434A.9.9,0,0,1,51.651,38.991Z" fill="url(#g)"/>
        <path d="M48.491,30.665a.873.873,0,0,1,.166.018l.1.02,5.517,1.278,0,.011.454.1a1.238,1.238,0,0,1,.294.658l-.322.578.007.007-2.635,4.838-.03.051a.552.552,0,0,1-.227.235.4.4,0,0,1-.171.033c-.645,0-2.064-1.031-3.057-3.246a7.628,7.628,0,0,1-.733-3.256c.027-.669.213-1.177.478-1.3a.359.359,0,0,1,.152-.028m0-1a1.359,1.359,0,0,0-.565.117c-1.325.594-1.432,3.224-.244,5.872,1.024,2.284,2.683,3.837,3.969,3.837a1.4,1.4,0,0,0,.582-.121,1.516,1.516,0,0,0,.674-.634l.005,0,3.039-5.577h0a1.8,1.8,0,0,0-.906-2.019v0L48.854,29.7l-.008,0a1.909,1.909,0,0,0-.355-.036Z" fill="#6d6d6d"/>
      </g>
      <path d="M48.491,30.665a.873.873,0,0,1,.166.018l.1.02,5.517,1.278,0,.011.454.1a1.238,1.238,0,0,1,.294.658l-.322.578.007.007-2.635,4.838-.03.051a.561.561,0,0,1-.225.235s-2.136.957-2.554,1.148a.426.426,0,0,1-.17.032c-.529,0-1.51-.642-2.413-2.053l-.465-.726-.787.353-1.079.485-.818.368a1.1,1.1,0,0,1-.3-.415,1.064,1.064,0,0,1-.107-.5l1.9-.853.787-.353-.234-.83c-.519-1.842-.213-3.084.209-3.274s2.55-1.145,2.554-1.147a.359.359,0,0,1,.152-.028m0-1a1.359,1.359,0,0,0-.565.117s-2.116.949-2.553,1.147c-1.087.488-1.354,2.344-.759,4.456-.907.407-2.009.9-2.085.938-.4.177-.565.946-.206,1.739A1.58,1.58,0,0,0,43.546,39.1a.521.521,0,0,0,.214-.043c.074-.032,1.176-.529,2.085-.937.986,1.54,2.237,2.514,3.255,2.514a1.408,1.408,0,0,0,.58-.12c.421-.192,2.553-1.148,2.553-1.148a1.516,1.516,0,0,0,.674-.634l.005,0,3.039-5.577h0a1.8,1.8,0,0,0-.906-2.019v0L48.854,29.7l-.008,0a1.909,1.909,0,0,0-.355-.036Z" fill="#2d2d2d"/>
      <line x1="55.338" y1="32.214" x2="51.353" y2="36.35" fill="none" stroke="#2d2d2d" stroke-miterlimit="10" stroke-width="0.682"/>
      <path d="M55.007,31.178a.306.306,0,0,0-.124.026c-.279.124-.3.678-.051,1.237.217.483.565.81.836.81a.3.3,0,0,0,.124-.026c.282-.125.3-.68.051-1.237-.215-.483-.565-.81-.836-.81Z" fill="#2d2d2d"/>
    </g>
    <g opacity="0.6">
      <path d="M38.632,32.066c.424-.618-.238-1.806-1.477-2.65s-2.585-1.029-3.007-.409.239,1.8,1.478,2.649S38.21,32.686,38.632,32.066Z" fill="#fff"/>
      <path d="M34.148,29.007c.422-.62,1.769-.437,3.007.409s1.9,2.032,1.477,2.65L34.3,38.416c-.03.04-.066.084-.106.128a2.7,2.7,0,0,1-3.384.737,1.661,1.661,0,0,1-.281-.153,1.6,1.6,0,0,1-.248-.206,2.7,2.7,0,0,1-.544-3.419.779.779,0,0,1,.078-.147C29.954,35.15,34.148,29.007,34.148,29.007Z" stroke="#00415f" stroke-linecap="round" stroke-linejoin="round" fill="url(#h)"/>
      <g>
        <path d="M37.233,30.774a1.516,1.516,0,0,1-.813-.283c-.531-.362-.637-.807-.6-.9.062-.092,1.2-1.766,1.748-2.561l1.655,1.13-1.75,2.564a.46.46,0,0,1-.242.049Z" fill="url(#i)"/>
        <path d="M37.7,27.726l.829.566-1.351,1.979a1.105,1.105,0,0,1-.477-.193,1.084,1.084,0,0,1-.353-.371c.254-.373.883-1.3,1.352-1.981m-.261-1.39s-1.953,2.858-2.033,2.979c-.245.358.012,1.1.732,1.589a2,2,0,0,0,1.095.37.767.767,0,0,0,.654-.268l2.031-2.976L37.44,26.336Z" fill="#6d6d6d"/>
      </g>
      <path d="M35.626,31.656c1.238.846,2.584,1.03,3.006.41L34.3,38.416a2.715,2.715,0,0,1-4.485-3.06c.139-.206,4.333-6.349,4.333-6.349C33.725,29.625,34.387,30.812,35.626,31.656Z" stroke="#00415f" stroke-miterlimit="10" fill="url(#j)"/>
      <g>
        <path d="M41.983,29.363a7.371,7.371,0,0,1-3.826-1.415A6.566,6.566,0,0,1,35.3,24.414a1.171,1.171,0,0,1,.128-.9l1.3-1.9,7.855,5.361-1.3,1.895a1.551,1.551,0,0,1-1.3.5Z" fill="url(#k)"/>
        <path d="M36.855,22.306l3.515,2.4,3.515,2.4c-.391.573-.867,1.27-1.015,1.484a1.111,1.111,0,0,1-.886.275,6.857,6.857,0,0,1-3.545-1.329,6.065,6.065,0,0,1-2.649-3.212.759.759,0,0,1,.05-.53l1.015-1.486m-.262-1.389-1.579,2.312c-.819,1.2.464,3.5,2.861,5.131a7.792,7.792,0,0,0,4.109,1.5,1.971,1.971,0,0,0,1.713-.712c.261-.38,1.578-2.309,1.578-2.309s-2.707-1.848-4.342-2.962c-1.6-1.1-4.34-2.963-4.34-2.963Z" fill="#6d6d6d"/>
      </g>
      <g>
        <path d="M43.563,27.053a7.376,7.376,0,0,1-3.829-1.416A6.563,6.563,0,0,1,36.877,22.1a1.183,1.183,0,0,1,.128-.9.987.987,0,0,1,.5-.363l.225-.083,5.5-1.832,0,0,.3-.1h.012a1.234,1.234,0,0,1,.668.25,1.1,1.1,0,0,1,.483.548l.324,6.332a1.019,1.019,0,0,1-.155.606A1.55,1.55,0,0,1,43.563,27.053Z" fill="url(#l)"/>
        <path d="M43.6,19.327a1.056,1.056,0,0,1,.326.159,1.085,1.085,0,0,1,.27.252l.317,6.184v.037a.552.552,0,0,1-.069.319,1.11,1.11,0,0,1-.885.275,6.869,6.869,0,0,1-3.547-1.329,6.063,6.063,0,0,1-2.647-3.213.754.754,0,0,1,.053-.535.528.528,0,0,1,.259-.171l.215-.079,5.2-1.733.007.008.5-.174m-.033-1.007a.612.612,0,0,0-.2.031l0,0-6.028,2.009,0,.009a1.481,1.481,0,0,0-.742.55c-.82,1.2.462,3.5,2.86,5.133a7.8,7.8,0,0,0,4.11,1.5,1.968,1.968,0,0,0,1.712-.711,1.512,1.512,0,0,0,.242-.895l0,0L45.2,19.6h0a1.445,1.445,0,0,0-.7-.939,1.74,1.74,0,0,0-.923-.341Z" fill="#6d6d6d"/>
      </g>
      <path d="M43.6,19.327a1.056,1.056,0,0,1,.326.159,1.085,1.085,0,0,1,.27.252l.317,6.184v.037a.561.561,0,0,1-.068.319s-1.315,1.927-1.579,2.311a1.112,1.112,0,0,1-.886.274,5.75,5.75,0,0,1-2.372-.645l-.777-.376-.485.713-.871,1.277-.3.439a1.105,1.105,0,0,1-.477-.193,1.074,1.074,0,0,1-.353-.372c.22-.324.733-1.076,1.172-1.717l.487-.713-.633-.586c-1.405-1.3-1.794-2.518-1.535-2.9l1.582-2.316a.528.528,0,0,1,.259-.171l.215-.079,5.2-1.733.007.008.5-.174m-.033-1.007a.612.612,0,0,0-.2.031l0,0-6.028,2.009,0,.009a1.481,1.481,0,0,0-.742.55l-1.579,2.312c-.671.982.071,2.705,1.682,4.2-.562.82-1.243,1.819-1.289,1.891-.245.358.012,1.1.732,1.589a2,2,0,0,0,1.095.37.767.767,0,0,0,.654-.268c.045-.068.729-1.067,1.288-1.888a6.7,6.7,0,0,0,2.808.745,1.968,1.968,0,0,0,1.713-.712c.261-.38,1.578-2.309,1.578-2.309a1.512,1.512,0,0,0,.242-.895l0,0L45.2,19.6h0a1.445,1.445,0,0,0-.7-.939,1.74,1.74,0,0,0-.923-.341Z" fill="#2d2d2d"/>
      <line x1="44.183" y1="19.118" x2="43.275" y2="25.476" fill="none" stroke="#2d2d2d" stroke-miterlimit="10" stroke-width="0.682"/>
      <path d="M43.63,18.344a.418.418,0,0,0-.363.15c-.174.251.1.735.6,1.08a1.649,1.649,0,0,0,.868.319.414.414,0,0,0,.362-.152c.174-.253-.1-.736-.6-1.08a1.627,1.627,0,0,0-.864-.317Z" fill="#2d2d2d"/>
    </g>
    <g>
      <path d="M24.555,26.842c0-.75,1.213-1.363,2.71-1.366s2.717.6,2.72,1.352-1.214,1.359-2.714,1.363S24.558,27.592,24.555,26.842Z" fill="#fff"/>
      <path d="M29.985,26.828c0-.752-1.22-1.354-2.72-1.352s-2.713.616-2.71,1.366c0,0,.02,7.448.02,7.686a.912.912,0,0,0,.018.165A2.694,2.694,0,0,0,26.977,37.2a1.686,1.686,0,0,0,.317.031,1.726,1.726,0,0,0,.323-.032,2.7,2.7,0,0,0,2.37-2.523A1,1,0,0,0,30,34.514C30,34.267,29.985,26.828,29.985,26.828Z" stroke="#00415f" stroke-linecap="round" stroke-linejoin="round" fill="url(#m)"/>
      <g>
        <path d="M27.265,26.779c-.643,0-.978-.3-1-.4,0-.113-.007-2.138-.01-3.1l2-.007.008,3.1c-.018.094-.353.4-1,.405Z" fill="url(#n)"/>
        <path d="M27.763,23.772c0,.828,0,1.939.006,2.4a1.1,1.1,0,0,1-.5.109,1.086,1.086,0,0,1-.5-.106c0-.448,0-1.566-.007-2.4l1,0m1-1-3,.009s.008,3.465.011,3.6c0,.434.629.9,1.5.9h.006c.872,0,1.5-.469,1.5-.905,0-.145-.009-3.605-.009-3.605Z" fill="#6d6d6d"/>
      </g>
      <g>
        <path d="M26.938,38.232a3.218,3.218,0,0,1-3.214-3.207c0-.237-.02-7.659-.02-7.685l1,0c0,.339.878.851,2.2.851,1.522,0,2.672-.613,2.673-.861l1,0-.438,0h.438c0,.167,0,7.61,0,7.856,0,1.822-1.874,3.045-3.629,3.048Z" fill="url(#o)"/>
        <path d="M30.075,27.325v0m0,0c0,.168,0,7.618,0,7.863,0,1.5-1.63,2.538-3.13,2.541h-.008a2.714,2.714,0,0,1-2.713-2.708c0-.236-.021-7.661-.021-7.685,0,.747,1.211,1.349,2.7,1.349h.018c1.5,0,3.152-.611,3.155-1.36m-5.872.011h0m4.935-.242a3.784,3.784,0,0,1-2.22.591,2.537,2.537,0,0,1-1.744-.477.263.263,0,0,1,.029.125l-2,.006c0,.036.021,7.447.021,7.682a3.719,3.719,0,0,0,3.713,3.708,4.648,4.648,0,0,0,2.737-.909,3.269,3.269,0,0,0,1.4-2.634c0-.243,0-6.261,0-7.86h0l-1.637,0h-.363a.4.4,0,0,1,.063-.228Z" fill="#00415f"/>
      </g>
      <g>
        <path d="M27.234,23.7c-2.788,0-4.732-1.114-4.734-2.114l0-2.3,9.51-.025.006,2.3a1.178,1.178,0,0,1-.4.82,6.56,6.56,0,0,1-4.348,1.32Z" fill="url(#p)"/>
        <path d="M31.507,19.763c0,.691,0,1.531,0,1.8a.753.753,0,0,1-.256.464A6.093,6.093,0,0,1,27.234,23.2C24.5,23.2,23,22.134,23,21.585l0-1.8,4.255-.011,4.256-.011m1-1-5.256.013-5.254.014s0,2.336.006,2.8c0,1.446,2.344,2.613,5.234,2.613h.029c2.9-.008,5.254-1.189,5.248-2.64,0-.48-.007-2.8-.007-2.8Z" fill="#6d6d6d"/>
      </g>
      <path d="M32.2,17.941l0-.007L28.34,12.886h0a1.793,1.793,0,0,0-2.209.007h0l-3.831,5.065v.008a1.49,1.49,0,0,0-.3.875c0,1.453,2.359,2.623,5.26,2.615s5.255-1.189,5.25-2.643A1.5,1.5,0,0,0,32.2,17.941Z" fill="url(#q)"/>
      <path d="M27.241,12.457v1a1.088,1.088,0,0,1,.352.051l.243.325h.01l3.419,4.473.09.125a3,3,0,0,1,.067.722c.025.542.089,2.032.089,2.408,0,.415-.853.964-2.762,1.254l-.853.13,0,.863c0,.816,0,1.817,0,2.193a.96.96,0,0,1-.634.278,1.631,1.631,0,0,1-.888-.352v-.459c0-.472,0-1.112,0-1.666l0-.863-.854-.125C24.765,22.7,23,22.363,23,21.585c0-.449-.113-2.082-.141-2.48a2.266,2.266,0,0,1,.255-.62l.034-.05,3.265-4.317.009,0,.454-.612a1.065,1.065,0,0,1,.359-.054l.006-1m0,0h-.009a1.435,1.435,0,0,0-1.1.383h0l-3.831,5.066v.006a2.807,2.807,0,0,0-.437,1.2S22,21.124,22,21.587c0,1.191,1.206,1.9,3.378,2.217,0,1,0,2.267,0,2.347,0,.436,1.019,1.128,1.888,1.128h0c.872,0,1.632-.691,1.63-1.128,0-.083,0-1.352,0-2.347,2.17-.33,3.613-1.054,3.611-2.244,0-.48-.09-2.453-.09-2.453a2.618,2.618,0,0,0-.224-1.218l0-.008L28.34,12.833h0a1.427,1.427,0,0,0-1.1-.376Z" fill="#2d2d2d"/>
      <path d="M27.239,12.457h-.007c-.613,0-1.107.249-1.107.556s.489.551,1.095.551h.015c.612,0,1.11-.25,1.108-.556s-.494-.55-1.1-.55Z" fill="#2d2d2d"/>
      <path d="M23.284,19.584a8.176,8.176,0,0,0,3.97.895,8.176,8.176,0,0,0,4.011-.942" fill="none" stroke="#6d6d6d" stroke-linecap="round" stroke-linejoin="round"/>
    </g>
  </g>
</svg>
