<svg id="_9075_copy" data-name="9075 copy" xmlns="http://www.w3.org/2000/svg" xmlns:xlink="http://www.w3.org/1999/xlink" viewBox="0 0 64 64"><defs><style>.cls-1{fill:#797979;}.cls-2{fill:url(#linear-gradient);}.cls-3{fill:url(#linear-gradient-2);}.cls-4{fill:url(#New_Gradient_Swatch_1);}.cls-5{fill:url(#linear-gradient-3);}.cls-6{fill:#e1e1e1;}.cls-13,.cls-28,.cls-7{fill:none;}.cls-13,.cls-7{stroke:#000;stroke-width:0.25px;}.cls-14,.cls-21,.cls-26,.cls-27,.cls-28,.cls-7{stroke-linecap:round;}.cls-13,.cls-7,.cls-8{stroke-miterlimit:10;}.cls-8,.cls-9{fill:#323232;}.cls-26,.cls-27,.cls-28,.cls-8{stroke:#323232;}.cls-10{fill:url(#linear-gradient-4);}.cls-11{fill:url(#linear-gradient-5);}.cls-12{fill:#231f20;}.cls-14,.cls-21{stroke:#2d2d2d;}.cls-14,.cls-21,.cls-26,.cls-27,.cls-28{stroke-linejoin:round;}.cls-14{fill:url(#linear-gradient-6);}.cls-15{opacity:0.9;}.cls-16{fill:url(#linear-gradient-7);}.cls-17,.cls-20{fill:#343434;}.cls-18{fill:url(#linear-gradient-8);}.cls-19{fill:url(#linear-gradient-9);}.cls-20{opacity:0.7;}.cls-21{fill:url(#linear-gradient-10);}.cls-22{fill:url(#linear-gradient-11);}.cls-23{fill:url(#linear-gradient-12);}.cls-24{fill:#00415f;}.cls-25{fill:url(#linear-gradient-13);}.cls-26,.cls-27{fill:#fff;}.cls-27{stroke-width:0.5px;}.cls-29{fill:url(#linear-gradient-14);}.cls-30{fill:#003755;}.cls-31{fill:url(#linear-gradient-15);}.cls-32{fill:url(#linear-gradient-16);}</style><linearGradient id="linear-gradient" x1="7.81" y1="27.61" x2="21.1" y2="50.63" gradientUnits="userSpaceOnUse"><stop offset="0" stop-color="#fff"/><stop offset="1" stop-color="#d4d5d3"/></linearGradient><linearGradient id="linear-gradient-2" x1="44.81" y1="18.26" x2="57.64" y2="40.49" xlink:href="#linear-gradient"/><linearGradient id="New_Gradient_Swatch_1" x1="8.86" y1="16.96" x2="47.99" y2="16.96" gradientUnits="userSpaceOnUse"><stop offset="0" stop-color="#464646"/><stop offset="0.99" stop-color="#141414"/></linearGradient><linearGradient id="linear-gradient-3" x1="27.94" y1="12.02" x2="35.42" y2="24.96" xlink:href="#linear-gradient"/><linearGradient id="linear-gradient-4" x1="26.98" y1="10.83" x2="35.4" y2="10.83" xlink:href="#linear-gradient"/><linearGradient id="linear-gradient-5" x1="29.98" y1="17.6" x2="38.19" y2="17.6" xlink:href="#linear-gradient"/><linearGradient id="linear-gradient-6" x1="41.09" y1="22.96" x2="65.91" y2="61.51" gradientUnits="userSpaceOnUse"><stop offset="0" stop-color="#fff"/><stop offset="1" stop-color="#bfbfbf"/></linearGradient><linearGradient id="linear-gradient-7" x1="46.9" y1="227.25" x2="56.16" y2="236.07" gradientTransform="matrix(1, 0.4, 0, 1, 0, -218.59)" gradientUnits="userSpaceOnUse"><stop offset="0" stop-color="#f0f0f0"/><stop offset="1" stop-color="#b3b3b3"/></linearGradient><linearGradient id="linear-gradient-8" x1="41.35" y1="236.78" x2="50.62" y2="245.6" xlink:href="#linear-gradient-7"/><linearGradient id="linear-gradient-9" x1="47.11" y1="234.64" x2="56.37" y2="243.46" xlink:href="#linear-gradient-7"/><linearGradient id="linear-gradient-10" x1="41.09" y1="22.89" x2="65.91" y2="61.43" xlink:href="#linear-gradient-6"/><linearGradient id="linear-gradient-11" x1="47.29" y1="291.86" x2="55.03" y2="298.1" gradientTransform="matrix(1, 0.47, 0, 1, 0, -279.86)" gradientUnits="userSpaceOnUse"><stop offset="0" stop-color="#fff"/><stop offset="1" stop-color="#bbbdbf"/></linearGradient><linearGradient id="linear-gradient-12" x1="47.96" y1="32.25" x2="53.14" y2="44.15" gradientUnits="userSpaceOnUse"><stop offset="0" stop-color="#92d5ee"/><stop offset="1" stop-color="#6f9cae"/></linearGradient><linearGradient id="linear-gradient-13" x1="50.08" y1="292.07" x2="54.51" y2="295.64" gradientTransform="matrix(1, 0.47, 0, 1, 0, -279.86)" gradientUnits="userSpaceOnUse"><stop offset="0" stop-color="#92d5ee"/><stop offset="0.15" stop-color="#8ccfe8"/><stop offset="0.34" stop-color="#7cbed7"/><stop offset="0.57" stop-color="#60a3bb"/><stop offset="0.81" stop-color="#3b7c95"/><stop offset="1" stop-color="#185971"/></linearGradient><linearGradient id="linear-gradient-14" x1="33.35" y1="25.2" x2="41.49" y2="39.28" gradientUnits="userSpaceOnUse"><stop offset="0" stop-color="#8cd7f5"/><stop offset="1" stop-color="#376e8c"/></linearGradient><linearGradient id="linear-gradient-15" x1="34.49" y1="25.18" x2="38.15" y2="31.53" gradientUnits="userSpaceOnUse"><stop offset="0" stop-color="#a0e1fa"/><stop offset="1" stop-color="#73c3e1"/></linearGradient><linearGradient id="linear-gradient-16" x1="37.63" y1="29.4" x2="42.63" y2="38.06" xlink:href="#linear-gradient-14"/></defs><title>29159_A33AAe__R21XArtboard 1</title><g id="version2_64_copy" data-name="version2  64 copy"><g id="Layer_42_copy_6" data-name="Layer 42 copy 6"><g id="p1_copy_4" data-name="p1 copy 4"><polygon class="cls-1" points="13.03 48.92 9.05 47.98 9.05 23.58 13.06 24.57 13.03 48.92"/><polygon class="cls-1" points="12.07 54.99 7.03 53.98 9.05 47.98 13.03 48.92 12.07 54.99"/><polygon class="cls-2" points="17.04 23.6 17.04 52.97 12.07 54.99 13.03 48.92 13.06 24.57 17.04 23.6"/><path d="M13.14,23.75l3.9.85V53l-5,2L7,54l2-6V24.58l4.09-.83m0-.75L13,23l-4.08.83a.76.76,0,0,0-.61.73V47.86l-2,5.88a.75.75,0,0,0,.56,1l5,1,.15,0a.71.71,0,0,0,.28-.06l5-2a.74.74,0,0,0,.46-.69V24.6a.75.75,0,0,0-.59-.73L13.3,23l-.16,0Z"/></g><g id="p2_copy_4" data-name="p2 copy 4"><polygon class="cls-3" points="48.59 16.08 48.59 39.42 49.59 43.6 54 42.6 52.83 38.44 52.84 15.11 48.59 16.08"/><polygon class="cls-1" points="49.59 43.6 46.07 42.66 45.07 38.48 48.59 39.42 49.59 43.6"/><polygon class="cls-1" points="48.59 39.42 45.07 38.48 45.07 14.93 48.59 15.88 48.59 39.42"/><path d="M48.52,15l3.56.7V38.55l0,.09,1,3.4-3.45.79-2.91-.78-.88-3.68V15.73l2.7-.7m0-.76-3.42.87V38.46l1,4.2,3.52.94,4.41-1-1.17-4.16V15.11l-4.34-.84Z"/></g><g id="Layer_47_copy_4" data-name="Layer 47 copy 4"><polygon class="cls-4" points="45.92 9.89 47.99 13.54 8.86 24.03 11.61 17.92 45.92 9.89"/><polygon class="cls-5" points="49.37 10.49 52.45 15.12 12.89 25.29 15.48 19.21 49.37 10.49"/><polygon class="cls-6" points="49.37 10.49 15.49 19.22 11.61 17.92 45.92 9.89 49.37 10.49"/><polygon class="cls-1" points="12.89 25.29 15.49 19.22 11.61 17.92 8.86 24.03 12.89 25.29"/><polyline class="cls-7" points="12.89 25.29 15.43 19.22 49.37 10.49"/></g><polygon class="cls-8" points="35.5 19.33 30.5 20.62 30.5 17.83 35.5 16.75 35.5 19.33"/><polygon class="cls-1" points="35.67 22.64 34.71 22.35 34.71 17.07 35.67 17.35 35.67 22.64"/><polygon class="cls-9" points="34.71 17.07 34.71 22.35 35.67 22.64 35.67 17.35 34.71 17.07 34.71 17.07"/><polygon class="cls-10" points="33.01 11.76 26.98 10.41 29.3 9.9 35.4 11.19 33.01 11.76"/><polygon class="cls-1" points="26.98 10.41 23.98 13.94 23.98 14.97 25.33 14.64 29 15.7 29 23.75 29.99 24.02 29.98 16.01 33.01 11.76 26.98 10.41"/><polygon class="cls-11" points="35.4 11.19 38.19 14.26 38.19 22.06 35.67 22.64 35.67 17.35 32.32 18.15 32.34 23.48 29.99 24.02 29.98 16.01 33.01 11.76 35.4 11.19"/><path class="cls-12" d="M45.92,9.89l3.45.6,3.1,4.61L38.26,18.79v3.27l-2.61.58-.92-.29V19.59l-2.38.62v3.25L30,24l-1-.27V21.16L12.89,25.29,8.86,24l2.75-6.11L24,15V14l3-3.6,2.3-.5,6.1,1.29.91.94,9.61-2.24m0-.5-.12,0-9.33,2.17-.71-.74a.51.51,0,0,0-.26-.14L29.41,9.41H29.3l-.1,0-2.3.49a.46.46,0,0,0-.28.17l-3,3.6a.47.47,0,0,0-.12.32v.6l-12,2.83a.51.51,0,0,0-.34.28L8.4,23.82a.58.58,0,0,0,0,.41.54.54,0,0,0,.31.28l4,1.26a.39.39,0,0,0,.15,0H13l15.49-4v1.92a.5.5,0,0,0,.37.48l1,.27.13,0h.11L32.45,24a.51.51,0,0,0,.39-.49V20.6l1.38-.37v2.12a.5.5,0,0,0,.35.48l.92.29a.39.39,0,0,0,.15,0h.11l2.61-.58a.5.5,0,0,0,.39-.49V19.17l13.83-3.58a.48.48,0,0,0,.34-.31.5.5,0,0,0,0-.46l-3.09-4.61a.52.52,0,0,0-.33-.21L46,9.4Z"/><g id="Layer_54_copy_3" data-name="Layer 54 copy 3"><polyline class="cls-13" points="32.47 23.44 32.47 18.25 35.54 17.5 35.54 22.73"/><polyline class="cls-13" points="29.86 24.19 29.86 16.07 32.98 11.71 35.54 11.17 38.3 14.2 38.3 22.11"/><polyline class="cls-7" points="23.71 14.96 25.36 14.6 29.02 15.63 29.02 21.39"/><polyline class="cls-7" points="12.87 25.34 15.42 19.22 11.57 17.93"/><line class="cls-7" x1="33.03" y1="11.69" x2="26.96" y2="10.29"/></g></g><g id="Layer_66_copy_2" data-name="Layer 66 copy 2"><polygon class="cls-14" points="42.5 45.08 58.5 52.18 58.5 30.07 42.5 24.07 42.5 45.08"/><g class="cls-15"><polygon class="cls-16" points="48.5 33.14 48.5 30.22 52.5 31.84 52.5 34.76 48.5 33.14"/><path class="cls-17" d="M49,31l3,1.21V34l-3-1.21V31m-1-1.48v4l5,2v-4l-5-2Z"/><polygon class="cls-18" points="44.5 42.53 44.5 39.6 48.5 41.22 48.5 44.14 44.5 42.53"/><path class="cls-17" d="M45,40.35l3,1.21V43.4l-3-1.21V40.35m-1-1.49v4l5,2v-4l-5-2Z"/><polygon class="cls-19" points="52.5 45.76 52.5 42.84 56.5 44.45 56.5 47.37 52.5 45.76"/><path class="cls-17" d="M53,43.58l3,1.21v1.84l-3-1.21V43.58M52,42.1v4l5,2v-4l-5-2Z"/><polygon class="cls-20" points="54 40.9 51 39.69 51 37.69 53 38.5 53 37.5 52 37.1 52 36.1 51 35.69 51 33.69 50 33.29 50 35.29 49 34.88 49 35.88 48 35.48 48 36.48 50 37.29 50 39.29 47 38.08 46 37.67 46 39.67 47 40.08 47 39.08 54 41.9 54 42.9 55 43.31 55 41.31 54 40.9"/></g><g id="Layer_67_copy_2" data-name="Layer 67 copy 2"><polygon class="cls-21" points="42.5 45 58.5 52.1 58.5 30 42.5 24 42.5 45"/><path class="cls-22" d="M55.81,40.65c0-2.9-2.36-6.36-5.26-7.71s-5.26-.1-5.26,2.81,2.36,6.35,5.26,7.71S55.81,43.55,55.81,40.65Z"/><path class="cls-23" d="M48.33,33.4a4.33,4.33,0,0,1,1.8.45c2.53,1.18,4.68,4.3,4.68,6.8,0,1.49-.75,2.35-2,2.35a4.49,4.49,0,0,1-1.8-.45c-2.53-1.18-4.68-4.3-4.68-6.8,0-1.5.75-2.35,2-2.35m0-1c-1.79,0-3,1.24-3,3.35,0,2.9,2.36,6.35,5.26,7.71a5.29,5.29,0,0,0,2.22.54c1.79,0,3-1.24,3-3.35,0-2.9-2.36-6.36-5.26-7.71a5.29,5.29,0,0,0-2.22-.54Z"/><path class="cls-24" d="M48.33,32.4a5.29,5.29,0,0,1,2.22.54c2.9,1.35,5.26,4.81,5.26,7.71,0,2.11-1.25,3.35-3,3.35a5.29,5.29,0,0,1-2.22-.54c-2.9-1.36-5.26-4.81-5.26-7.71,0-2.11,1.25-3.35,3-3.35m0-1c-2.41,0-4,1.74-4,4.35,0,3.3,2.57,7.09,5.84,8.61a6.19,6.19,0,0,0,2.64.64c2.41,0,4-1.75,4-4.35,0-3.31-2.57-7.09-5.84-8.62a6.29,6.29,0,0,0-2.64-.63Z"/><path class="cls-25" d="M50.32,34.39A6.68,6.68,0,0,1,54,39.82a2.26,2.26,0,0,1-1,2l-2.72-3.78v-3.7"/><polygon class="cls-24" points="50.78 34.88 50.32 34.66 50.32 38.32 50.78 38.53 50.78 34.88"/><polygon class="cls-24" points="50.65 38.01 50.32 38.19 52.45 41.31 52.77 41.13 50.65 38.01"/><polygon class="cls-24" points="52.24 31.68 49.24 30.28 49.24 29.28 52.24 30.68 52.24 31.68"/><polygon class="cls-24" points="51.24 32.21 50.24 31.74 50.24 30.74 51.24 31.21 51.24 32.21"/><polygon class="cls-24" points="56.92 36.86 54.3 33.02 54.63 32.85 57.24 36.69 56.92 36.86"/><polygon class="cls-24" points="55.21 36.06 54.24 34.64 54.89 34.29 55.86 35.72 55.21 36.06"/></g></g><g id="Layer_68_copy_2" data-name="Layer 68 copy 2"><polygon class="cls-26" points="44.41 45.35 32.32 39.03 24.57 40.72 24.57 43.44 20.47 44.5 20.49 49.06 28.76 53.41 44.41 49.98 44.41 45.35"/><polygon class="cls-1" points="32.74 47.83 24.57 43.44 24.57 40.72 32.74 45.15 32.74 47.83"/><polygon class="cls-27" points="40.48 43.54 40.48 46.2 44.41 45.35 44.41 49.98 28.76 53.41 28.77 48.68 32.74 47.83 32.74 45.15 40.48 43.54"/><polygon class="cls-27" points="32.74 47.83 28.77 48.68 28.76 53.41 28.77 48.68 20.47 44.5 28.77 48.68 32.74 47.83"/><path class="cls-28" d="M32.32,39l-7.75,1.69v2.71h0l-4.1,1.07,0,4.56,8.27,4.35L44.41,50V45.35Z"/></g><g id="Layer_11_copy" data-name="Layer 11 copy"><polygon class="cls-26" points="28.06 34.66 20.55 36.43 20.55 42.84 26.5 45.74 29.43 45 29.43 42.18 33.58 41.27 33.59 37.5 28.06 34.66"/><polygon class="cls-27" points="33.59 37.5 26.5 39.19 26.5 45.24 26.5 39.19 20.55 36.43 26.5 39.19 33.59 37.5"/></g><g id="ok"><polygon class="cls-29" points="33.28 35.7 33.28 34.07 29.37 31.89 29.37 27.49 37.08 25.75 43.3 28.83 43.3 38.23 39.44 39.01 33.28 35.7"/><path class="cls-30" d="M37.05,26l6,3v9l-3.55.71-5.93-3.2V33.91l-3.91-2.18v-4L37.05,26m.07-.56-.19,0-7.41,1.68-.41.09v4.77l.27.15,3.64,2v1.63l.28.16,5.93,3.19.17.09.19,0,3.55-.71.43-.09V28.66l-.3-.15-6-3-.17-.08Z"/><polygon class="cls-30" points="33.69 35.45 33.69 31.01 39.35 33.87 39.35 38.5 33.69 35.45"/><path class="cls-30" d="M33.82,31.23,39.22,34v4.33l-5.4-2.91V31.23m-.27-.44v4.74l5.93,3.2V33.79l-5.93-3Z"/><polygon class="cls-30" points="29.77 31.65 29.77 27.93 34.94 30.77 34.95 34.52 29.77 31.65"/><path class="cls-30" d="M29.91,28.16l4.9,2.69v3.44l-4.9-2.72V28.16m-.27-.45v4l5.44,3V30.69l-5.44-3Z"/><polygon class="cls-31" points="30.02 27.76 37.08 26.16 42.63 28.94 35.1 30.55 30.02 27.76"/><path class="cls-30" d="M37,26.31l5.2,2.58-7.1,1.52-4.73-2.6L37,26.31m0-.28-7.41,1.68,5.44,3L43,29l-6-3Z"/><polygon class="cls-32" points="39.62 33.62 35.21 34.58 35.21 30.8 42.9 29.16 42.9 37.91 39.62 38.56 39.62 33.62"/><path class="cls-30" d="M42.76,29.32V37.8l-3,.6V33.46l-.32.07-4.08.88v-3.5l7.42-1.59M43,29l-8,1.7v4.06l4.4-1v4.94L43,38V29Z"/></g></g></svg>