<svg xmlns="http://www.w3.org/2000/svg" xmlns:xlink="http://www.w3.org/1999/xlink" width="64" height="64" viewBox="0 0 64 64">
  <defs>
    <linearGradient id="a" x1="26.1155" y1="49.1465" x2="44.3908" y2="49.1465" gradientUnits="userSpaceOnUse">
      <stop offset="0.0108" stop-color="#4d4d4d"/>
      <stop offset="1" stop-color="#c7c7c9"/>
    </linearGradient>
    <linearGradient id="b" x1="46.0486" y1="39.3041" x2="22.4835" y2="53.8629" gradientUnits="userSpaceOnUse">
      <stop offset="0" stop-color="#f0f0f0"/>
      <stop offset="1" stop-color="#b3b3b3"/>
    </linearGradient>
    <linearGradient id="c" x1="40.4503" y1="48.6836" x2="43.3358" y2="48.6836" xlink:href="#b"/>
    <linearGradient id="d" x1="29.0332" y1="41.4736" x2="31.3916" y2="41.4736" xlink:href="#b"/>
    <linearGradient id="e" x1="29.9409" y1="45.7646" x2="41.4696" y2="45.7646" xlink:href="#a"/>
    <linearGradient id="f" x1="29.9418" y1="43.0254" x2="41.4703" y2="43.0254" xlink:href="#b"/>
    <linearGradient id="g" x1="34.0615" y1="33.7598" x2="40.0215" y2="33.7598" xlink:href="#b"/>
    <linearGradient id="h" x1="38.6594" y1="38.0605" x2="31.8027" y2="38.0605" gradientUnits="userSpaceOnUse">
      <stop offset="0" stop-color="#f0f0f0"/>
      <stop offset="0.1191" stop-color="#e5e5e5"/>
      <stop offset="0.3256" stop-color="#c9c9c9"/>
      <stop offset="0.5945" stop-color="#9b9b9b"/>
      <stop offset="0.9123" stop-color="#5d5d5d"/>
      <stop offset="1" stop-color="#4a4a4a"/>
    </linearGradient>
    <linearGradient id="i" x1="41.4032" y1="33.9043" x2="30.5092" y2="41.7882" xlink:href="#b"/>
    <linearGradient id="j" x1="32.9579" y1="25.0739" x2="28.2228" y2="29.5459" gradientUnits="userSpaceOnUse">
      <stop offset="0.1774" stop-color="#f0f0f0"/>
      <stop offset="0.2958" stop-color="#e9e9e9"/>
      <stop offset="0.4695" stop-color="#d5d5d5"/>
      <stop offset="0.6773" stop-color="#b5b5b5"/>
      <stop offset="0.9097" stop-color="#888"/>
      <stop offset="1" stop-color="#757575"/>
    </linearGradient>
    <linearGradient id="k" x1="26.9372" y1="16.6203" x2="22.9169" y2="20.2129" gradientUnits="userSpaceOnUse">
      <stop offset="0.4086" stop-color="#f0f0f0"/>
      <stop offset="0.6147" stop-color="#d0d0d0"/>
      <stop offset="1" stop-color="#8c8c8c"/>
    </linearGradient>
    <linearGradient id="l" x1="21.133" y1="21.1646" x2="28.4271" y2="21.1646" xlink:href="#b"/>
    <linearGradient id="m" x1="23.4259" y1="21.2681" x2="26.5361" y2="21.2681" xlink:href="#b"/>
    <linearGradient id="n" x1="14.9543" y1="25.2673" x2="19.5746" y2="29.8876" gradientUnits="userSpaceOnUse">
      <stop offset="0" stop-color="#f0f0f0"/>
      <stop offset="1" stop-color="#919191"/>
    </linearGradient>
    <linearGradient id="o" x1="7.7238" y1="33.9453" x2="16.4094" y2="33.9453" xlink:href="#n"/>
    <linearGradient id="p" x1="27.2875" y1="20.501" x2="20.7312" y2="25.5879" xlink:href="#b"/>
    <linearGradient id="q" x1="7.3778" y1="35.0156" x2="14.8225" y2="35.0156" xlink:href="#b"/>
    <linearGradient id="r" x1="46.042" y1="12.1616" x2="37.1474" y2="19.9781" gradientUnits="userSpaceOnUse">
      <stop offset="0" stop-color="#fcfcfc"/>
      <stop offset="1" stop-color="#666"/>
    </linearGradient>
    <linearGradient id="s" x1="52.9874" y1="8.4975" x2="25.6034" y2="17.5895" gradientUnits="userSpaceOnUse">
      <stop offset="0" stop-color="#fcfcfc"/>
      <stop offset="0.2073" stop-color="#f4f4f4"/>
      <stop offset="0.527" stop-color="#dfdfdf"/>
      <stop offset="0.9172" stop-color="#bbb"/>
      <stop offset="1" stop-color="#b3b3b3"/>
    </linearGradient>
    <linearGradient id="t" x1="61.6266" y1="4.0781" x2="40.3852" y2="27.1603" gradientUnits="userSpaceOnUse">
      <stop offset="0" stop-color="#fcfcfc"/>
      <stop offset="1" stop-color="#919191"/>
    </linearGradient>
    <linearGradient id="u" x1="47.5" y1="14.5194" x2="47.5" y2="24.1612" gradientUnits="userSpaceOnUse">
      <stop offset="0.5" stop-color="#a5a7a8"/>
      <stop offset="0.5161" stop-color="#b3b3b3"/>
    </linearGradient>
    <linearGradient id="v" x1="52.2767" y1="20.5725" x2="45.5341" y2="23.6114" gradientUnits="userSpaceOnUse">
      <stop offset="0" stop-color="#92d5ee"/>
      <stop offset="0.012" stop-color="#91d4ed"/>
      <stop offset="1" stop-color="#3c7e96"/>
    </linearGradient>
    <linearGradient id="w" x1="47.9282" y1="14.5118" x2="42.7287" y2="26.5102" xlink:href="#v"/>
    <linearGradient id="x" x1="46.5" y1="18.5" x2="48.5" y2="18.5" xlink:href="#b"/>
    <linearGradient id="y" x1="41.1946" y1="22.1031" x2="62.5941" y2="55.3329" gradientUnits="userSpaceOnUse">
      <stop offset="0" stop-color="#fff"/>
      <stop offset="1" stop-color="#bfbfbf"/>
    </linearGradient>
    <linearGradient id="z" x1="46.842" y1="279.3568" x2="53.0381" y2="284.3534" gradientTransform="matrix(1, 0.4663, 0, 1, 0, -268.6675)" gradientUnits="userSpaceOnUse">
      <stop offset="0" stop-color="#fff"/>
      <stop offset="1" stop-color="#bbbdbf"/>
    </linearGradient>
    <linearGradient id="aa" x1="47.3748" y1="31.0847" x2="51.5267" y2="40.6194" gradientUnits="userSpaceOnUse">
      <stop offset="0" stop-color="#92d5ee"/>
      <stop offset="1" stop-color="#6f9cae"/>
    </linearGradient>
    <linearGradient id="ab" x1="49.0708" y1="279.5268" x2="52.62" y2="282.3889" gradientTransform="matrix(1, 0.4663, 0, 1, 0, -268.6675)" gradientUnits="userSpaceOnUse">
      <stop offset="0" stop-color="#92d5ee"/>
      <stop offset="0.1464" stop-color="#8ccfe8"/>
      <stop offset="0.3423" stop-color="#7cbed7"/>
      <stop offset="0.5662" stop-color="#60a3bb"/>
      <stop offset="0.809" stop-color="#3b7c95"/>
      <stop offset="1" stop-color="#185971"/>
    </linearGradient>
  </defs>
  <title>I_DELMLB_AP</title>
  <g>
    <g>
      <path d="M26.4177,44.7227c-.9014,2.4238,2.3926,5.8828,7.3545,7.7236s9.7129,1.3711,10.6123-1.0527a9.6527,9.6527,0,0,0,.3408-1.5284" stroke="#6d6d6d" stroke-linecap="round" stroke-linejoin="round" fill="url(#a)"/>
      <g>
        <path d="M40.0889,51.6133a17.4979,17.4979,0,0,1-5.9815-1.1641A16.4355,16.4355,0,0,1,28,46.6543c-1.5381-1.6152-2.1055-3.2588-1.5967-4.6279.5938-1.6016,2.5449-2.52,5.3545-2.52a17.497,17.497,0,0,1,5.9805,1.1641c5.3379,1.9814,8.7217,5.6816,7.7041,8.4229-.5938,1.6-2.5449,2.52-5.3535,2.52Z" fill="url(#b)"/>
        <path d="M31.7575,40.0067A17.054,17.054,0,0,1,37.5642,41.14c4.998,1.8555,8.3154,5.3389,7.4092,7.78-.5328,1.4377-2.41,2.1931-4.8852,2.1931a17.0655,17.0655,0,0,1-5.8072-1.1325c-4.9981-1.8555-8.3154-5.34-7.4092-7.78.5329-1.4377,2.411-2.1935,4.8857-2.1935m0-1c-3.03,0-5.1529,1.0373-5.8233,2.8459-.5783,1.5574.0268,3.3854,1.7039,5.1467A16.9524,16.9524,0,0,0,33.933,50.918a18.0113,18.0113,0,0,0,6.1552,1.195c3.03,0,5.1526-1.0372,5.8229-2.8456,1.115-3.004-2.3984-6.9861-7.9988-9.0653a18.0027,18.0027,0,0,0-6.1548-1.1954Z" fill="#6d6d6d"/>
      </g>
      <g>
        <path d="M42.0986,49.3389c-.0879,0-.1777-.0049-.2685-.0137a2.2948,2.2948,0,0,1-1.0938-.374c-.1875-.1358-.2968-.292-.2851-.4073.02-.2119.47-.5156,1.2324-.5156.0889,0,.18.0049.2715.0137.8672.083,1.4053.5254,1.38.7812-.02.21-.4727.5157-1.2364.5157Z" fill="url(#c)"/>
        <path d="M41.6838,48.5284c.0728,0,.1473.0036.2226.0108a1.9107,1.9107,0,0,1,.75.2179,1.7978,1.7978,0,0,1-.5583.0813c-.0722,0-.146-.0035-.2194-.0105a1.9161,1.9161,0,0,1-.7517-.2185,1.7942,1.7942,0,0,1,.5565-.081m0-1c-.9291,0-1.6774.4012-1.7309.9667-.0616.63.7578,1.2237,1.8291,1.3281.1072.01.213.0153.3164.0153.93,0,1.679-.4015,1.7344-.9674.0605-.6289-.76-1.2236-1.83-1.3272-.108-.01-.2146-.0155-.3189-.0155Z" fill="#6d6d6d"/>
      </g>
      <g>
        <path d="M30.2119,41.9658c-.72,0-1.1787-.3242-1.1787-.4931s.459-.4913,1.1787-.4913,1.18.3223,1.18.4913S30.9326,41.9658,30.2119,41.9658Z" fill="url(#d)"/>
        <path d="M30.2117,40.4814c-.9268,0-1.6788.4444-1.6788.9913,0,.5488.752.9931,1.6788.9931s1.68-.4443,1.68-.9931c0-.5469-.7529-.9913-1.68-.9913Z" fill="#6d6d6d"/>
      </g>
      <g>
        <path d="M35.5547,48.6113c-3.1895-.0722-5.6553-1.6025-5.6133-3.4853l.001-1.71a.5.5,0,0,1,.5-.5l10.5381.2354a.5.5,0,0,1,.4873.5439l-.1514,1.72c-.0381,1.81-2.418,3.1983-5.5342,3.1983Z" fill="url(#e)"/>
        <path d="M30.4421,43.416l10.5274.2354-.1514,1.72c-.0333,1.5383-2.2686,2.7426-5.0361,2.7426q-.1074,0-.2158-.0024c-2.8653-.0644-5.16-1.3965-5.125-2.9746l.0009-1.7207m0-1a1,1,0,0,0-1,1l-.0009,1.7207c-.0488,2.1774,2.5747,3.8955,6.1026,3.9748q.12.0029.2382.0027c3.3754,0,5.96-1.581,6.0349-3.684l.1488-1.6906a1,1,0,0,0-.9738-1.0875l-10.5274-.2354-.0224,0Z" fill="#6d6d6d"/>
      </g>
      <g>
        <path d="M35.63,46.4238a8.3672,8.3672,0,0,1-3.9424-1,2.9668,2.9668,0,0,1-1.7451-2.5283c.042-1.8652,2.4551-3.2715,5.6133-3.2715l.2265.002a7.2613,7.2613,0,0,1,4.9317,1.7607,2.4728,2.4728,0,0,1,.7558,1.7676c-.042,1.8652-2.4541,3.2725-5.6093,3.2725Z" fill="url(#f)"/>
        <path d="M35.5555,40.1236q.1073,0,.2157.0024c2.9073.0644,5.2354,1.416,5.1983,3.0166-.0352,1.5621-2.3019,2.7837-5.1091,2.7837-.0726,0-.1458-.0009-.2191-.0025-2.9072-.0654-5.2353-1.416-5.1992-3.0166.0353-1.5608,2.3048-2.7836,5.1134-2.7836m0-1c-3.4365,0-6.0646,1.6169-6.1131,3.761a3.4365,3.4365,0,0,0,1.9938,2.9716,8.8758,8.8758,0,0,0,4.1827,1.0673c.0808.0019.1615.0028.2415.0028,3.4342,0,6.0605-1.6169,6.1089-3.7611a2.9616,2.9616,0,0,0-.8945-2.1242,7.6537,7.6537,0,0,0-5.2814-1.9148q-.1194-.0025-.2379-.0026Z" fill="#6d6d6d"/>
      </g>
      <g>
        <path d="M35.249,37.3438a.5063.5063,0,0,1-.2031-.043c-.1006-.0449-.9844-.4834-.9844-2.0586a6.1617,6.1617,0,0,1,2.9307-4.7891,2.3157,2.3157,0,0,1,1.0859-.2773c.8965,0,1.9434.6074,1.9434,2.3193l-.083.5391a.5.5,0,0,1-.3916.4072l-3.6651.7617-.1338,2.666a.4972.4972,0,0,1-.2373.4A.5028.5028,0,0,1,35.249,37.3438Z" fill="url(#g)"/>
        <path d="M38.078,30.6759c.72,0,1.4432.4712,1.4432,1.8192l-.0761.457-4.044.84-.1523,3.0518s-.6875-.3057-.6875-1.6016a5.6453,5.6453,0,0,1,2.6709-4.3506,1.8013,1.8013,0,0,1,.8458-.2157m0-1a2.8178,2.8178,0,0,0-1.3235.3372,6.6108,6.6108,0,0,0-3.1932,5.2291,2.5574,2.5574,0,0,0,1.2812,2.5153,1,1,0,0,0,1.4051-.8639l.1138-2.28,3.2871-.6827a1,1,0,0,0,.7831-.8148l.0761-.457a1.0052,1.0052,0,0,0,.0135-.1643,2.4993,2.4993,0,0,0-2.4432-2.8192Z" fill="#6d6d6d"/>
      </g>
      <g>
        <path d="M35.707,44.8232c-1.8515,0-3.247-.7734-3.247-1.7988l.1513-7.4873a.5.5,0,0,1,.1983-.3887l2.2129-1.6777c.0771-.0566,1.7177-1.249,2.6445-1.7881a2.2938,2.2938,0,0,1,1.0976-.3847.7193.7193,0,0,1,.67.3642.49.49,0,0,1,.0517.2471l-.5342,11.14C38.9531,44.05,37.5576,44.8232,35.707,44.8232Z" fill="url(#h)"/>
        <path d="M38.7644,31.7979c.1793,0,.2226.0869.2226.0869l-.5341,11.14c0,.7178-1.23,1.2988-2.7461,1.2988s-2.7471-.581-2.7471-1.2988l.1514-7.4775,2.2129-1.6778s1.6787-1.2216,2.5947-1.7548a1.8275,1.8275,0,0,1,.8457-.3164m0-1a2.7178,2.7178,0,0,0-1.35.453c-.9478.5517-2.6084,1.7585-2.6787,1.81L32.507,34.75a1,1,0,0,0-.3957.7767L31.96,43.0042c0,1.3522,1.5757,2.319,3.7469,2.319s3.7461-.9668,3.7461-2.2988l.533-11.0917a1,1,0,0,0-.1039-.494,1.216,1.216,0,0,0-1.1176-.6408Z" fill="#6d6d6d"/>
      </g>
      <path d="M38.6052,30.7393l-2.2129-.9913s-4.0439-.458-4.0439,3.6622c0,1.7548.7627,2.1367.7627,2.1367l2.1377,1.2969V33.41S36.7742,30.6631,38.6052,30.7393Z" fill="#6d6d6d" stroke="#6d6d6d" stroke-linecap="round" stroke-linejoin="round"/>
      <g>
        <path d="M38.1855,38.0811a1.2144,1.2144,0,0,1-.621-.1641c-.8086-.4746-.879-1.7539-.1631-2.9756a2.6619,2.6619,0,0,1,2.0537-1.4746,1.2119,1.2119,0,0,1,.623.1641c.8076.4736.877,1.7519.1612,2.9746a2.665,2.665,0,0,1-2.0538,1.4756Z" fill="url(#i)"/>
        <path d="M39.4548,33.9664a.7215.7215,0,0,1,.37.0961c.545.3193.5362,1.3447-.0175,2.29a2.207,2.207,0,0,1-1.6219,1.2284.7193.7193,0,0,1-.3684-.0955c-.5459-.32-.5381-1.3458.0157-2.2911a2.2047,2.2047,0,0,1,1.622-1.2279m0-1A3.1126,3.1126,0,0,0,36.97,34.6883c-.86,1.4679-.7134,3.0409.3407,3.66a1.7288,1.7288,0,0,0,.8745.2331A3.1144,3.1144,0,0,0,40.67,36.859c.8606-1.4693.7145-3.042-.3393-3.6593a1.73,1.73,0,0,0-.8756-.2333Z" fill="#6d6d6d"/>
      </g>
      <g>
        <path d="M33.498,34.8438a.9049.9049,0,0,1-.3046-.07.5154.5154,0,0,1-.1329-.0966L24.0566,25.52a.5.5,0,0,1-.0625-.624l3.4336-5.2646a.5026.5026,0,0,1,.3848-.2256c.0117-.001.0225-.001.0342-.001a.5.5,0,0,1,.3779.1728l8.9277,10.3018c.1817.2256.5811.7217-1.3759,2.9463C34.7949,34.1533,34.0186,34.8438,33.498,34.8438Z" fill="url(#j)"/>
        <path d="M27.8464,19.9043l8.9278,10.3018c.3056.38-1.3731,2.289-1.3731,2.289s-1.37,1.8488-1.9037,1.8488a.1787.1787,0,0,1-.0807-.0177l-9.0039-9.1573,3.4336-5.2646m0-1q-.0339,0-.0681.0023a1,1,0,0,0-.77.4514l-3.4336,5.2646A1,1,0,0,0,23.7,25.87l9.0039,9.1573a1.0009,1.0009,0,0,0,.2667.1938,1.17,1.17,0,0,0,.527.1228c.3089,0,1.03,0,2.6822-2.22,1.8274-2.086,1.8713-2.9266,1.3737-3.5449l-8.9512-10.33a1,1,0,0,0-.7556-.3451Z" fill="#6d6d6d"/>
      </g>
      <g>
        <path d="M23.1162,25.5928a.5023.5023,0,0,1-.1953-.04L20.5332,24.541a3.0524,3.0524,0,0,1-1.79-2.2519,5.8058,5.8058,0,0,1,.291-3.4121c.7637-1.9815,2.4-3.3653,3.9814-3.3653a2.6261,2.6261,0,0,1,.9453.1738l2.627,1.086a.5012.5012,0,0,1,.27.2715.4953.4953,0,0,1-.001.3828l-3.28,7.8594a.4936.4936,0,0,1-.2724.2705A.5028.5028,0,0,1,23.1162,25.5928Z" fill="url(#k)"/>
        <path d="M23.0154,16.0118a2.1184,2.1184,0,0,1,.7656.14l2.6152,1.0811-3.28,7.8594-2.3877-1.0117c-1.5205-.585-2.07-2.835-1.2276-5.0245.7069-1.8348,2.1655-3.0447,3.5147-3.0448m0-1h0c-1.8113,0-3.5988,1.4812-4.4479,3.6853a6.3049,6.3049,0,0,0-.3107,3.7108,3.5909,3.5909,0,0,0,2.1124,2.6065l2.3566.9992a1,1,0,0,0,1.313-.5356l3.28-7.8594a1,1,0,0,0-.5408-1.3094l-2.6152-1.0811a3.145,3.145,0,0,0-1.1475-.2163Z" fill="#6d6d6d"/>
      </g>
      <g>
        <path d="M24.0215,25.7686a2.6209,2.6209,0,0,1-.9444-.1729,3.0667,3.0667,0,0,1-1.8066-2.26,5.7954,5.7954,0,0,1,.292-3.4111c.7627-1.9814,2.4-3.3643,3.9824-3.3643a2.6205,2.6205,0,0,1,.9444.1729c1.7753.6855,2.455,3.23,1.5146,5.6719-.7617,1.98-2.3994,3.3633-3.9824,3.3633Z" fill="url(#l)"/>
        <path d="M25.5448,17.06a2.1178,2.1178,0,0,1,.7645.14c1.5215.5869,2.07,2.8359,1.2276,5.0254-.7053,1.8337-2.1661,3.0435-3.5156,3.0435a2.1193,2.1193,0,0,1-.7647-.14c-1.52-.5859-2.0713-2.8359-1.2276-5.0244.7062-1.8346,2.1665-3.0444,3.5158-3.0444m0-1c-1.8126,0-3.6005,1.4809-4.449,3.6852a6.2979,6.2979,0,0,0-.3109,3.71,3.5935,3.5935,0,0,0,2.1122,2.6068,3.1163,3.1163,0,0,0,1.1242.2071c1.8134,0,3.6013-1.4807,4.449-3.6845,1.0566-2.7452.2655-5.52-1.8011-6.3174a3.1168,3.1168,0,0,0-1.1244-.2071Z" fill="#6d6d6d"/>
      </g>
      <g>
        <path d="M24.0244,23.4678a.8975.8975,0,0,1-.4531-.5176,3.1491,3.1491,0,0,1,.1611-2.27c.4942-1.1836,1.34-1.8027,1.92-1.8027a.7159.7159,0,0,1,.2793.0546l.6045.293-2.0175,4.4346Z" fill="url(#m)"/>
        <path d="M25.6521,19.3772a.2331.2331,0,0,1,.0723.01l.1542.0747-1.62,3.56-.0313-.0121a.4706.4706,0,0,1-.1941-.2505,2.638,2.638,0,0,1,.1606-1.8872c.4258-1.02,1.1217-1.4953,1.458-1.4954m0-1a3.0516,3.0516,0,0,0-2.3807,2.11c-.63,1.5088-.374,3.0527.5723,3.4463l.9346.3623,2.415-5.3086L26.1238,18.47a1.2188,1.2188,0,0,0-.4719-.0925Z" fill="#6d6d6d"/>
      </g>
      <g>
        <path d="M14.2734,34.8145a.4981.4981,0,0,1-.3242-.12L10.82,32.0234a.5.5,0,0,1-.0732-.6836l8.3935-10.9873c.47-.6269.708-.68.8936-.68a.5843.5843,0,0,1,.4853.3007,3.76,3.76,0,0,1,.1787,1.2715,9.4792,9.4792,0,0,0,.3028,2.2178,5.33,5.33,0,0,0,1.6513,2.2031.5007.5007,0,0,1,.0655.7578L14.63,34.665A.499.499,0,0,1,14.2734,34.8145Z" fill="url(#n)"/>
        <path d="M20.0338,20.1729a.04.04,0,0,1,.0382.0244,34.4584,34.4584,0,0,0,.458,3.4336,5.8489,5.8489,0,0,0,1.8311,2.4423l-8.0879,8.2413-3.1289-2.6709,8.3935-10.9873s.3622-.4834.496-.4834m0-1h0c-.45,0-.8259.2561-1.2961.8838L10.35,31.0365a1,1,0,0,0,.1454,1.3677l3.1289,2.6709a1,1,0,0,0,1.363-.06l8.0879-8.2413a1,1,0,0,0-.1323-1.514,4.8364,4.8364,0,0,1-1.4709-1.9653,9.2507,9.2507,0,0,1-.2746-2.08,3.8867,3.8867,0,0,0-.2306-1.4646,1.0816,1.0816,0,0,0-.9327-.5772Z" fill="#6d6d6d"/>
      </g>
      <g>
        <path d="M14.6553,37.8906a.497.497,0,0,1-.3262-.1211l-6.4316-5.542a.5.5,0,0,1-.04-.72l1.25-1.3379A.5838.5838,0,0,1,9.5049,30c.4219,0,1.6738.8936,3.7217,2.6563,3.1367,2.7031,3.17,3.1767,3.1816,3.332a.57.57,0,0,1-.1289.3916l-1.2578,1.3515A.5.5,0,0,1,14.6553,37.8906Z" fill="url(#o)"/>
        <path d="M9.5042,30.5A17.1983,17.1983,0,0,1,12.9,33.0352c1.7754,1.53,3.12,2.8808,3.002,3.0166L14.655,37.3906l-6.4316-5.542,1.249-1.3379A.04.04,0,0,1,9.5042,30.5m0-1a1.0777,1.0777,0,0,0-.7939.3638L7.4925,31.1662a1,1,0,0,0,.0782,1.44l6.4316,5.542a1,1,0,0,0,1.3845-.076l1.2471-1.3388a1.0685,1.0685,0,0,0,.2727-.78c-.0238-.3331-.06-.8365-3.3536-3.6753C10.3261,29.5,9.7914,29.5,9.5042,29.5Z" fill="#6d6d6d"/>
      </g>
      <path d="M27.63,22.2783c.63-1.5088.3731-3.0508-.5732-3.4463-.9444-.3935-2.2227.5088-2.8526,2.0176s-.372,3.0527.5743,3.4463S27.0007,23.7871,27.63,22.2783Z" stroke="#6d6d6d" stroke-linecap="round" stroke-linejoin="round" fill="url(#p)"/>
      <g>
        <path d="M14.2842,38.2969c-.5283,0-2.3154-1.4444-3.7217-2.6563-3.1382-2.7031-3.1724-3.1767-3.1836-3.333a.5308.5308,0,0,1,.5376-.5732c.5269,0,2.314,1.4443,3.7212,2.6562,3.1387,2.7051,3.1719,3.1778,3.1836,3.333a.5678.5678,0,0,1-.1289.3907A.5775.5775,0,0,1,14.2842,38.2969Z" fill="url(#q)"/>
        <path d="M7.9162,32.2341A17.1662,17.1662,0,0,1,11.3113,34.77c1.7754,1.53,3.1211,2.8819,3.0039,3.0166a.04.04,0,0,1-.0315.0111,17.1492,17.1492,0,0,1-3.3953-2.5355c-1.7764-1.53-3.1211-2.8818-3.0039-3.0166a.04.04,0,0,1,.0317-.011m0-1a1.0312,1.0312,0,0,0-1.036,1.11c.024.3331.06.8366,3.3556,3.6753,3.2227,2.7779,3.76,2.7779,4.0479,2.7779a1.0775,1.0775,0,0,0,.7913-.3609,1.024,1.024,0,0,0,.2446-.7487c-.0239-.3325-.06-.8351-3.3554-3.6756-3.225-2.7779-3.76-2.7779-4.048-2.7779Z" fill="#6d6d6d"/>
      </g>
      <path d="M23.0157,16.0011a2.1189,2.1189,0,0,1,.7653.14l2.6152,1.0811-.0049.0127a2.9549,2.9549,0,0,1,1.5274,2.7421l8.458,9.7588.0156.001,2.2129.9912-.0141,0c-.0341,0-.0677.0053-.1021.0062.56.16,1.0322.6631,1.0322,1.75l-.0761.457-.5147.1074L38.88,34.1211a1.272,1.272,0,0,1,.5817-.1637.7067.7067,0,0,1,.3636.0944c.545.3193.5362,1.3447-.0175,2.29a2.7661,2.7661,0,0,1-1.086,1.0811l-.1533,3.205A3.4015,3.4015,0,0,1,40.9324,42.77c3.0146,1.878,4.7226,4.3037,4.041,6.14l-.5889,2.4736c-.5294,1.4269-2.3933,2.1771-4.85,2.1771a16.9247,16.9247,0,0,1-5.7628-1.1244c-4.9619-1.8408-8.2559-5.3-7.3545-7.7236l.4541-2.5224c.5327-1.437,2.4106-2.1923,4.8844-2.1923.4061,0,.8283.02,1.2631.0614l.0918-4.5225s-.7627-.3818-.7627-2.1367c0-.0566.0088-.1045.0107-.16l-7.8926-8.0254a2.3162,2.3162,0,0,1-.43.0409,2.1761,2.1761,0,0,1-.723-.123L14.3,34.2764c1.0235.9531,1.6866,1.6689,1.6026,1.7646L14.655,37.38l-.34.3955a.04.04,0,0,1-.0315.0108,17.1046,17.1046,0,0,1-3.3953-2.5352,28.0792,28.0792,0,0,1-3.0039-3.0166s.169-.3223.3389-.3955L9.4724,30.5a.04.04,0,0,1,.0318-.0112A6.8206,6.8206,0,0,1,11.17,31.6006l7.95-10.4082a5.6573,5.6573,0,0,1,.3808-2.1465c.707-1.8343,2.1656-3.0448,3.515-3.0448m0-.8h0c-1.7289,0-3.4415,1.43-4.2614,3.5571a6.45,6.45,0,0,0-.4338,2.1629L11.019,30.48c-1.0731-.7911-1.2971-.7911-1.5147-.7912a.8785.8785,0,0,0-.6393.2906L7.7121,31.2143a1.8778,1.8778,0,0,0-.5361.6486.8.8,0,0,0,.0917.8809,28.66,28.66,0,0,0,3.0986,3.1133c3.1662,2.7291,3.6926,2.7291,3.9174,2.7291a.88.88,0,0,0,.6289-.2786l.3492-.4064,1.2257-1.3149c.5476-.6234.1144-1.2212-1.0435-2.3313l8.12-8.2377a2.9785,2.9785,0,0,0,.4725.0375q.066,0,.1324-.0029L31.55,33.5578a3.484,3.484,0,0,0,.7534,2.3342l-.0672,3.314q-.2433-.0089-.48-.0088c-2.9414,0-4.9951.9893-5.6345,2.7142a.8046.8046,0,0,0-.0372.1364l-.4424,2.4572c-.5032,1.4589.0893,3.174,1.6748,4.839a16.6262,16.6262,0,0,0,6.1771,3.8416A17.6713,17.6713,0,0,0,39.535,54.36c2.9222,0,4.9631-.9836,5.6-2.6988a.7966.7966,0,0,0,.0282-.093l.5784-2.43c.7515-2.1282-.8205-4.7425-4.1241-6.882a4.08,4.08,0,0,0-2.2232-2.1485l.1067-2.23a3.8016,3.8016,0,0,0,.9968-1.1316c.8027-1.37.6873-2.8255-.2681-3.3853q-.0387-.0228-.0785-.043a.8014.8014,0,0,0,.0835-.2457l.0761-.457a.8033.8033,0,0,0,.0108-.1314A2.44,2.44,0,0,0,39.17,30.1586a.838.838,0,0,0-.2375-.16l-2.0754-.93L28.7,19.6569a3.6836,3.6836,0,0,0-1.8355-3.0824.7749.7749,0,0,0-.1622-.0911l-2.6152-1.0811a2.94,2.94,0,0,0-1.071-.2012Z" fill="#343434"/>
    </g>
    <g>
      <polygon points="40.935 26.5 40.935 12.5 39 8.5 39 23.5 40.935 26.5" fill="url(#r)"/>
      <polygon points="39.42 8.5 40.42 12.5 54.492 12.5 52.492 8.5 39.42 8.5" fill="url(#s)"/>
      <rect x="40.9346" y="12.5" width="13" height="14" fill="url(#t)"/>
      <path d="M52.382,8.5,54,11.7361V25.5H40.335L39,23.228V8.5H52.382M53,7.5H38v16l1.7627,3H55v-15l-2-4Z" fill="#343434"/>
      <line x1="40.75" y1="11.5" x2="40.75" y2="25.5" fill="none" stroke="#6d6d6d" stroke-linecap="round" stroke-linejoin="bevel"/>
      <polyline points="54 11.875 40.347 11.875 39.097 8.5" fill="none" stroke="#6d6d6d" stroke-linecap="round" stroke-linejoin="bevel"/>
      <g>
        <rect x="42.5" y="14" width="10" height="10" fill="url(#u)"/>
        <path d="M52,14.5v9H43v-9h9m1-1H42v11H53v-11Z" fill="#6d6d6d"/>
      </g>
      <g>
        <polygon points="45.207 23 46.207 22 48.793 22 49.793 23 45.207 23" fill="url(#v)"/>
        <polygon points="49 21.5 46 21.5 45 22.5 43 22.5 43 23.5 52 23.5 52 22.5 50 22.5 49 21.5 49 21.5" fill="#00415f"/>
      </g>
      <polyline points="46 14.5 46 16.5 47 17.5 48 17.5 49 16.5 49 14.5" stroke="#00415f" stroke-linecap="round" stroke-linejoin="round" fill="url(#w)"/>
      <g>
        <rect x="46.5" y="17" width="2" height="3" rx="0.5" fill="url(#x)"/>
        <path d="M48,17.5v2H47v-2h1m0-1H47a1,1,0,0,0-1,1v2a1,1,0,0,0,1,1h1a1,1,0,0,0,1-1v-2a1,1,0,0,0-1-1Z" fill="#2d2d2d"/>
      </g>
    </g>
    <polygon points="42.5 40 56.5 47.097 56.5 30 42.5 23 42.5 40" stroke="#2d2d2d" stroke-linecap="round" stroke-linejoin="round" fill="url(#y)"/>
    <g>
      <g>
        <path d="M53.6621,37.8164a7.5911,7.5911,0,0,0-4.2109-6.1758c-2.3262-1.0849-4.2119-.0791-4.2119,2.2481a7.5913,7.5913,0,0,0,4.2119,6.1748C51.7764,41.1484,53.6621,40.1426,53.6621,37.8164Z" fill="url(#z)"/>
        <path d="M47.6728,32.2039a3.2969,3.2969,0,0,1,1.3559.3431,6.6129,6.6129,0,0,1,3.6334,5.2694c0,.6289-.1862,1.6839-1.433,1.6839a3.2947,3.2947,0,0,1-1.3555-.3432,6.6116,6.6116,0,0,1-3.6343-5.2684c0-.6292.1862-1.6848,1.4335-1.6848m0-1a2.3964,2.3964,0,0,0-2.4335,2.6848,7.5913,7.5913,0,0,0,4.2119,6.1748,4.2446,4.2446,0,0,0,1.7779.4368,2.3961,2.3961,0,0,0,2.433-2.6839,7.5911,7.5911,0,0,0-4.2109-6.1758,4.2487,4.2487,0,0,0-1.7784-.4367Z" fill="url(#aa)"/>
        <path d="M47.6728,31.2039a4.2487,4.2487,0,0,1,1.7784.4367,7.5911,7.5911,0,0,1,4.2109,6.1758A2.3961,2.3961,0,0,1,51.2291,40.5a4.2446,4.2446,0,0,1-1.7779-.4368,7.5913,7.5913,0,0,1-4.2119-6.1748,2.3964,2.3964,0,0,1,2.4335-2.6848m0-1a3.3754,3.3754,0,0,0-3.4335,3.6848A8.562,8.562,0,0,0,49.0288,40.97a5.2149,5.2149,0,0,0,2.2.53,3.3747,3.3747,0,0,0,3.433-3.6839,8.5634,8.5634,0,0,0-4.7884-7.0821,5.2173,5.2173,0,0,0-2.2009-.53Z" fill="#00415f"/>
      </g>
      <path d="M49.2676,32.8037A5.3394,5.3394,0,0,1,52.2324,37.15a1.8221,1.8221,0,0,1-.7881,1.6445l-2.1767-3.0273V32.8037" fill="url(#ab)"/>
      <polygon points="49.634 33.19 49.268 33.02 49.268 35.95 49.634 36.121 49.634 33.19" fill="#00415f"/>
      <polygon points="49.526 35.704 49.268 35.842 50.973 38.344 51.232 38.203 49.526 35.704" fill="#00415f"/>
      <polygon points="50.807 30.628 48.402 29.507 48.402 28.705 50.807 29.827 50.807 30.628" fill="#00415f"/>
      <polygon points="50.006 31.055 49.203 30.682 49.203 29.881 50.006 30.254 50.006 31.055" fill="#00415f"/>
      <polygon points="54.553 34.777 52.457 31.704 52.716 31.566 54.811 34.639 54.553 34.777" fill="#00415f"/>
      <polygon points="53.185 34.141 52.408 33.001 52.927 32.725 53.703 33.863 53.185 34.141" fill="#00415f"/>
    </g>
  </g>
</svg>
