<svg id="Layer_4" data-name="Layer 4" xmlns="http://www.w3.org/2000/svg" xmlns:xlink="http://www.w3.org/1999/xlink" viewBox="0 0 64 64"><defs><linearGradient id="linear-gradient" x1="15.55" y1="6.43" x2="40.45" y2="49.57" gradientUnits="userSpaceOnUse"><stop offset="0" stop-color="#f4f5f5"/><stop offset="0.99" stop-color="#d2d2d2"/></linearGradient><linearGradient id="linear-gradient-2" x1="23.19" y1="5.17" x2="55.24" y2="60.69" gradientUnits="userSpaceOnUse"><stop offset="0" stop-color="#82bddc"/><stop offset="1" stop-color="#275a78"/></linearGradient><linearGradient id="linear-gradient-3" x1="22.68" y1="21.79" x2="58.11" y2="83.15" xlink:href="#linear-gradient-2"/><linearGradient id="linear-gradient-4" x1="21.51" y1="31.38" x2="21.51" y2="31.38" xlink:href="#linear-gradient"/><linearGradient id="linear-gradient-5" x1="34.5" y1="31" x2="34.5" y2="31" xlink:href="#linear-gradient"/><linearGradient id="linear-gradient-6" x1="35.37" y1="24.07" x2="39.51" y2="31.23" gradientUnits="userSpaceOnUse"><stop offset="0" stop-color="#fff"/><stop offset="1" stop-color="#f0f0f0"/></linearGradient><linearGradient id="linear-gradient-7" x1="37.76" y1="31.88" x2="41.9" y2="39.05" xlink:href="#linear-gradient-6"/><linearGradient id="linear-gradient-8" x1="42.91" y1="39.39" x2="47.46" y2="47.27" xlink:href="#linear-gradient-6"/><linearGradient id="linear-gradient-9" x1="26.08" y1="29.34" x2="40.39" y2="54.12" gradientUnits="userSpaceOnUse"><stop offset="0" stop-color="#f4f5f5"/><stop offset="0.99" stop-color="#bebdbd"/></linearGradient><linearGradient id="linear-gradient-10" x1="37.07" y1="28.17" x2="40.44" y2="34.01" gradientUnits="userSpaceOnUse"><stop offset="0" stop-color="#fff"/><stop offset="1" stop-color="#d2d2d2"/></linearGradient><linearGradient id="linear-gradient-11" x1="40.59" y1="36.88" x2="43.17" y2="41.34" xlink:href="#linear-gradient-10"/><linearGradient id="linear-gradient-12" x1="46.42" y1="43.7" x2="49.42" y2="48.91" xlink:href="#linear-gradient-10"/><linearGradient id="linear-gradient-13" x1="43.65" y1="24.28" x2="49.78" y2="34.88" gradientUnits="userSpaceOnUse"><stop offset="0" stop-color="#a2ddf7"/><stop offset="1" stop-color="#73c3e1"/></linearGradient><linearGradient id="linear-gradient-14" x1="38" y1="29.87" x2="61.73" y2="70.97" xlink:href="#linear-gradient-2"/><linearGradient id="linear-gradient-15" x1="44.68" y1="26.07" x2="61.33" y2="54.92" gradientUnits="userSpaceOnUse"><stop offset="0" stop-color="#8bd6f4"/><stop offset="1" stop-color="#376e8c"/></linearGradient></defs><title>DELMFN_AP_AppIcon</title><rect x="8.5" y="10.5" width="39" height="35" fill="url(#linear-gradient)"/><path d="M47,11V45H9V11H47m1-1H8V46H48V10Z" fill="#323232"/><rect x="8.5" y="10.5" width="39" height="6" fill="url(#linear-gradient-2)"/><path d="M47,11v5H9V11H47m1-1H8v7H48V10Z" fill="#063755"/><rect x="8.5" y="26.5" width="39" height="9" fill="url(#linear-gradient-3)"/><path d="M47,27v8H9V27H47m1-1H8V36H48V26Z" fill="#063755"/><line x1="21.51" y1="17.38" x2="21.51" y2="45.38" stroke="#323232" stroke-linecap="square" stroke-linejoin="round" opacity="0.3" fill="url(#linear-gradient-4)"/><line x1="34.5" y1="17" x2="34.5" y2="45" stroke="#323232" stroke-linejoin="round" opacity="0.3" fill="url(#linear-gradient-5)"/><line x1="34.5" y1="25.67" x2="34.5" y2="35.67" fill="none" stroke="#063755" stroke-linejoin="round"/><g opacity="0.5"><path d="M55,45.67v0c-3-1.81-7.63-3-12.88-3s-10.07,1.21-13,3.07l12.77,7.74Z"/></g><path d="M55,45.67v0c-3-1.81-7.63-3-12.88-3s-10.07,1.21-13,3.07l12.77,7.74Z"/><polygon points="29 31.67 29 27.75 41.81 23.67 47.38 26.23 44.81 28.17 33.88 32.17 29 31.67" fill="url(#linear-gradient-6)"/><polygon points="32.5 40.29 32.5 34.92 45.84 30.23 48.98 33.79 47.21 35.98 35.23 41.73 32.5 40.29" stroke="#797979" stroke-linecap="round" stroke-linejoin="round" fill="url(#linear-gradient-7)"/><polygon points="37.38 46.45 36.91 42.85 50.63 37.35 53.88 41.73 49.38 46.17 40.94 48.67 37.38 46.45" stroke="#797979" stroke-linecap="round" stroke-linejoin="round" fill="url(#linear-gradient-8)"/><polygon points="28.5 27.94 28.5 45.5 41.5 53.48 41.5 46.67 37.5 44.67 37.5 38.67 33.5 36.67 33.5 30.23 28.5 27.94" stroke="#797979" stroke-linecap="round" stroke-linejoin="round" fill="url(#linear-gradient-9)"/><polygon points="44.5 26.54 33.5 30.23 33.5 36.5 44.5 31.67 44.5 26.54" stroke="#797979" stroke-linecap="round" stroke-linejoin="round" fill="url(#linear-gradient-10)"/><polygon points="37.5 38.67 46.5 34.29 46.5 39.42 37.5 44.35 37.5 38.67" stroke="#797979" stroke-linecap="round" stroke-linejoin="round" fill="url(#linear-gradient-11)"/><polygon points="41.5 46.54 54.5 39.42 54.5 45.67 41.5 53.48 41.5 46.54" stroke="#797979" stroke-linecap="round" stroke-linejoin="round" fill="url(#linear-gradient-12)"/><polygon points="52.5 38.5 50.36 37.35 46.5 38.86 46.5 36.16 47.06 35.98 48.97 33.79 45.8 30.23 44.5 30.65 44.5 28.17 47.22 26.23 41.48 23.67 28.5 27.75 28.5 31.67 28.5 45.67 41.41 53.48 54.5 45.67 54.5 39.42 52.5 38.5" fill="none" stroke="#323232" stroke-linecap="round" stroke-linejoin="round"/><polygon points="36.5 31 36.5 28.41 48.41 24.26 56.5 27.42 56.5 31 43.19 37.35 36.5 31" stroke="#063755" stroke-linecap="round" stroke-linejoin="round" fill="url(#linear-gradient-13)"/><polygon points="36.5 35.29 36.5 28.41 44.5 32.67 44.5 44.9 40.5 42.67 40.5 37.35 36.5 35.29" stroke="#063755" stroke-linecap="round" stroke-linejoin="round" fill="url(#linear-gradient-14)"/><polygon points="56.5 27.42 44.5 32.67 44.5 44.9 56.5 38.35 56.5 27.42" stroke="#063755" stroke-linecap="round" stroke-linejoin="round" fill="url(#linear-gradient-15)"/><line x1="21.5" y1="27" x2="21.5" y2="35" fill="none" stroke="#063755" stroke-linejoin="round"/></svg>