<svg xmlns="http://www.w3.org/2000/svg" xmlns:xlink="http://www.w3.org/1999/xlink" viewBox="0 0 64 64"><defs><linearGradient id="linear-gradient" x1="26.45" y1="26.03" x2="37.39" y2="44.97" gradientUnits="userSpaceOnUse"><stop offset="0" stop-color="#ababab"/><stop offset="1" stop-color="#5b5b5b"/></linearGradient><linearGradient id="linear-gradient-4" x1="29.21" y1="16.8" x2="36.09" y2="28.71" gradientUnits="userSpaceOnUse"><stop offset="0" stop-color="#f5f6f6"/><stop offset="0.99" stop-color="#bfbebe"/></linearGradient><linearGradient id="linear-gradient-7" x1="32.32" y1="45.14" x2="21.53" y2="26.45" gradientUnits="userSpaceOnUse"><stop offset="0" stop-color="#2a5b79"/><stop offset="1" stop-color="#84bedc"/></linearGradient><linearGradient id="linear-gradient-8" x1="42.68" y1="38.88" x2="37.41" y2="29.74" gradientUnits="userSpaceOnUse"><stop offset="0" stop-color="#386f8d"/><stop offset="1" stop-color="#8dd7f4"/></linearGradient><linearGradient id="linear-gradient-9" x1="36.69" y1="29.18" x2="31.07" y2="19.43" gradientUnits="userSpaceOnUse"><stop offset="0" stop-color="#74c4e2"/><stop offset="1" stop-color="#a4def6"/></linearGradient><linearGradient id="linear-gradient-11" x1="26.54" y1="17.17" x2="31.75" y2="17.17" gradientUnits="userSpaceOnUse"><stop offset="0.12" stop-color="#d7d7d7"/><stop offset="0.76" stop-color="#969696"/></linearGradient></defs><title>DELMDF_AP_AppIcon</title><g id="Layer_5" data-name="Layer 5"><g style="isolation:isolate"><polygon points="32.5 21.5 6.5 36.5 32.5 51.5 58.5 36.5 32.5 21.5" stroke="#333332" stroke-linecap="round" stroke-linejoin="round" fill="url(#linear-gradient)"/><polygon points="32.5 51.5 32.5 54.5 58.5 39.5 58.5 36.5 32.5 51.5" stroke="#333332" stroke-linecap="round" stroke-linejoin="round" fill="url(#linear-gradient)"/><polygon points="6.51 36.59 6.5 39.5 32.5 54.5 32.5 51.5 6.51 36.59" stroke="#333332" stroke-linecap="round" stroke-linejoin="round" fill="url(#linear-gradient)"/></g><g style="isolation:isolate"><polygon points="32.5 13.5 15.5 22.5 32.5 32 49.5 22.5 32.5 13.5" stroke="#797979" stroke-linecap="round" stroke-linejoin="round" fill="url(#linear-gradient-4)"/><polygon points="32.5 31.5 32.5 45.5 49.5 35.5 49.5 22.5 32.5 31.5" stroke="#797979" stroke-linecap="round" stroke-linejoin="round" fill="url(#linear-gradient-4)"/><polygon points="15.5 22.5 15.5 35.5 32.5 45.5 32.5 31.5 15.5 22.5" stroke="#797979" stroke-linecap="round" stroke-linejoin="round" fill="url(#linear-gradient-4)"/></g><polyline points="19.63 24.69 20.34 38.33 32.5 45.5 32.5 31.5" stroke="#053755" stroke-linecap="round" stroke-linejoin="round" stroke-width="2" fill="url(#linear-gradient-7)"/><path d="M47.78,23.46l-.27.66a28.4,28.4,0,0,0-.95,11.74l.23,1.24L32.5,45.5v-14Z" stroke="#053755" stroke-linecap="round" stroke-linejoin="round" stroke-width="2" fill="url(#linear-gradient-8)"/><path d="M19.63,24.55l3.74-2.45a20,20,0,0,1,17.86-1.5l6.55,2.86L32.75,32Z" fill="url(#linear-gradient-9)"/><polyline points="19.85 28.37 32.76 35.74 46.47 27.99" fill="none" stroke="#053755" stroke-linecap="round" stroke-linejoin="round" stroke-width="2"/><polyline points="20.04 31.95 32.73 39.24 46.33 31.62" fill="none" stroke="#053755" stroke-linecap="round" stroke-linejoin="round" stroke-width="2"/><polyline points="20.2 35.45 32.67 42.68 46.47 35.09" fill="none" stroke="#053755" stroke-linecap="round" stroke-linejoin="round" stroke-width="2"/></g><g id="Layer_6" data-name="Layer 6"><path d="M19.63,24.55l3.74-2.45a20,20,0,0,1,17.86-1.5l6.55,2.86L32.75,32" stroke="#053755" stroke-linecap="round" stroke-linejoin="round" stroke-width="2" fill="url(#linear-gradient-9)"/></g><g id="Layer_4" data-name="Layer 4"><path d="M29.06,19a25.6,25.6,0,0,0,3.57,13" fill="none" stroke="#003755" stroke-linecap="round" stroke-miterlimit="10" stroke-width="2"/><path d="M29.82,22.83H28.51a2,2,0,0,1-2-1.65L24.83,11.5H33.5l-1.71,9.68A2,2,0,0,1,29.82,22.83Z" stroke="#323232" stroke-linecap="round" stroke-linejoin="round" fill="url(#linear-gradient-11)"/></g></svg>