<svg xmlns="http://www.w3.org/2000/svg" xmlns:xlink="http://www.w3.org/1999/xlink" viewBox="0 0 64 64"><defs><style>.De-emphasized-WHITE-for-Vector-Highlights,.cls-13{fill:#fff;}.De-emphasized-WHITE-for-Vector-Highlights,.cls-16{stroke:#fff;stroke-width:3px;}.De-emphasized-WHITE-for-Vector-Highlights,.cls-11,.cls-14,.cls-15,.cls-16,.cls-17,.cls-18,.cls-19,.cls-20,.cls-21,.cls-22,.cls-23{stroke-linejoin:round;}.De-emphasized-WHITE-for-Vector-Highlights,.cls-12,.cls-2{opacity:0.5;}.DARK-GREY-Fill{fill:url(#linear-gradient);}.cls-1{fill:#f4f5f6;}.cls-2{fill:#646464;}.cls-3{fill:#e4e7ea;}.cls-4{fill:#ddd;}.cls-5{fill:#005686;}.cls-6{fill:#003c5a;}.cls-7{fill:#42a2da;}.cls-8{fill:url(#linear-gradient-2);}.cls-9{opacity:0.2;fill:url(#linear-gradient-3);}.cls-10{opacity:0.3;fill:url(#Dégradé_sans_nom_5);}.cls-11,.cls-16,.cls-19{fill:none;}.cls-11{stroke:#323232;}.cls-14,.cls-15,.cls-19,.cls-20,.cls-21,.cls-22,.cls-23{stroke:#3a3634;}.cls-14,.cls-15,.cls-17,.cls-18,.cls-19,.cls-20,.cls-21,.cls-22,.cls-23{stroke-width:0.92px;}.cls-14{fill:url(#linear-gradient-4);}.cls-15{fill:url(#linear-gradient-5);}.cls-17,.cls-18{stroke:#807c7b;}.cls-17{fill:url(#linear-gradient-6);}.cls-18{fill:url(#linear-gradient-7);}.cls-20{fill:url(#linear-gradient-8);}.cls-21{fill:url(#linear-gradient-9);}.cls-22{fill:url(#linear-gradient-10);}.cls-23{fill:url(#linear-gradient-11);}</style><linearGradient id="linear-gradient" x1="9" y1="27.5" x2="55" y2="27.5" gradientUnits="userSpaceOnUse"><stop offset="0" stop-color="#464646"/><stop offset="1" stop-color="#141414"/></linearGradient><linearGradient id="linear-gradient-2" x1="23" x2="24" xlink:href="#linear-gradient"/><linearGradient id="linear-gradient-3" x1="11" x2="23" xlink:href="#linear-gradient"/><linearGradient id="Dégradé_sans_nom_5" x1="20.91" y1="27.5" x2="54" y2="27.5" gradientUnits="userSpaceOnUse"><stop offset="0" stop-color="#fff"/><stop offset="1" stop-color="#fff" stop-opacity="0"/></linearGradient><linearGradient id="linear-gradient-4" x1="44.4" y1="32.53" x2="50.66" y2="43.38" gradientUnits="userSpaceOnUse"><stop offset="0" stop-color="#fff"/><stop offset="1" stop-color="#dddddb"/></linearGradient><linearGradient id="linear-gradient-5" x1="42.33" y1="44.05" x2="51.73" y2="60.32" xlink:href="#linear-gradient-4"/><linearGradient id="linear-gradient-6" x1="42.47" y1="44.29" x2="51.73" y2="60.32" gradientUnits="userSpaceOnUse"><stop offset="0" stop-color="#fafafb"/><stop offset="1" stop-color="#c9c6c5"/></linearGradient><linearGradient id="linear-gradient-7" x1="44.52" y1="32.56" x2="50.74" y2="43.33" xlink:href="#linear-gradient-6"/><linearGradient id="linear-gradient-8" x1="46.28" y1="49.18" x2="49.69" y2="55.08" gradientUnits="userSpaceOnUse"><stop offset="0" stop-color="#b4b1b0"/><stop offset="1" stop-color="#615d5c"/></linearGradient><linearGradient id="linear-gradient-9" x1="49.77" y1="30.73" x2="52.24" y2="35" gradientTransform="matrix(0.72, 0.72, -0.68, 0.68, 33.51, -10.2)" xlink:href="#linear-gradient-8"/><linearGradient id="linear-gradient-10" x1="50.15" y1="44.41" x2="53.16" y2="49.64" xlink:href="#linear-gradient-4"/><linearGradient id="linear-gradient-11" x1="19.86" y1="44.41" x2="22.88" y2="49.64" gradientTransform="matrix(-1, 0, 0, 1, 65, 0)" xlink:href="#linear-gradient-4"/></defs><g id="OutlineW"><rect class="De-emphasized-WHITE-for-Vector-Highlights" x="8.5" y="11.5" width="47" height="32" rx="1.83"/></g><g id="Screen"><rect class="DARK-GREY-Fill" x="9" y="12" width="46" height="31" rx="0.6"/><rect class="cls-1" x="10" y="13" width="44" height="29" rx="0.6"/><rect class="cls-2" x="52" y="27" width="1" height="14"/><rect class="cls-2" x="11" y="14" width="28" height="2"/><rect class="cls-2" x="11" y="14" width="28" height="2"/><rect class="cls-3" x="11" y="16" width="28" height="15"/><rect class="cls-4" x="11" y="36" width="28" height="5"/><rect class="cls-2" x="40" y="14" width="12" height="3"/><rect class="cls-2" x="40" y="18" width="12" height="3"/><rect class="cls-2" x="40" y="22" width="12" height="3"/><rect class="cls-2" x="40" y="26" width="12" height="3"/><circle class="cls-5" cx="41.5" cy="15.5" r="1.5"/><circle class="cls-5" cx="41.5" cy="19.5" r="1.5"/><circle class="cls-5" cx="41.5" cy="23.5" r="1.5"/><circle class="cls-5" cx="41.5" cy="27.5" r="1.5"/><rect class="cls-2" x="40" y="30" width="12" height="3"/><rect class="cls-2" x="40" y="34" width="12" height="3"/><circle class="cls-5" cx="41.5" cy="31.5" r="1.5"/><circle class="cls-5" cx="41.5" cy="35.5" r="1.5"/><rect class="cls-2" x="11" y="16" width="5" height="25"/><rect class="cls-2" x="11" y="16" width="5" height="15"/><rect class="cls-2" x="11" y="36" width="5" height="5"/><rect class="cls-5" x="18" y="16" width="8" height="3"/><rect class="cls-6" x="18" y="20" width="8" height="3"/><rect class="cls-7" x="20" y="24" width="8" height="3"/><rect class="cls-7" x="26" y="28" width="8" height="3"/><rect class="cls-2" x="38" y="24" width="1" height="7"/><rect class="cls-8" x="23" y="14" width="1" height="27"/><rect class="cls-9" x="11" y="14" width="12" height="27"/><path class="cls-10" d="M53.4,42H20.91L36.17,13H53.4a.6.6,0,0,1,.6.6V41.4A.6.6,0,0,1,53.4,42Z"/></g><g id="OutlineB"><rect class="cls-11" x="8.5" y="11.5" width="47" height="32" rx="1.83"/></g><g id="Supervisor"><g class="cls-12"><path class="cls-13" d="M43.13,42.38a6.43,6.43,0,0,0,2,1.34,5.88,5.88,0,0,0,2.42.49h.11A5.78,5.78,0,0,0,50,43.72a6.29,6.29,0,0,0,1.94-1.34,6.43,6.43,0,0,0,1.31-2,6.42,6.42,0,0,0,0-4.87,6.37,6.37,0,0,0-1.31-2A6.12,6.12,0,0,0,50,32.18a5.78,5.78,0,0,0-2.37-.49h-.11a5.88,5.88,0,0,0-2.42.49A6.29,6.29,0,0,0,41.31,38a6.18,6.18,0,0,0,.49,2.44A6.32,6.32,0,0,0,43.13,42.38Z"/><path class="cls-13" d="M57.14,49a7,7,0,0,0-1-1.91,7.86,7.86,0,0,0-1.51-1.54,7.6,7.6,0,0,0-1.44-.83l-1.32-1.32-3.53,2.65c-.28,0-.55.06-.84.06s-.35,0-.52,0l-3.56-2.67-1.1,1.1h0a7.57,7.57,0,0,0-1.94,1,7.86,7.86,0,0,0-1.51,1.54,7,7,0,0,0-1,1.91,6.59,6.59,0,0,0-.36,2.17v5.12a1.13,1.13,0,0,0,.36.85,1.24,1.24,0,0,0,.89.34h17.5a1.24,1.24,0,0,0,.89-.34,1.13,1.13,0,0,0,.36-.85V51.19A6.59,6.59,0,0,0,57.14,49Z"/><path class="cls-14" d="M43.13,42.38a6.43,6.43,0,0,0,2,1.34,5.88,5.88,0,0,0,2.42.49h.11A5.78,5.78,0,0,0,50,43.72a6.29,6.29,0,0,0,1.94-1.34,6.43,6.43,0,0,0,1.31-2,6.42,6.42,0,0,0,0-4.87,6.37,6.37,0,0,0-1.31-2A6.12,6.12,0,0,0,50,32.18a5.78,5.78,0,0,0-2.37-.49h-.11a5.88,5.88,0,0,0-2.42.49A6.29,6.29,0,0,0,41.31,38a6.18,6.18,0,0,0,.49,2.44A6.32,6.32,0,0,0,43.13,42.38Z"/><path class="cls-15" d="M57.14,49a7,7,0,0,0-1-1.91,7.86,7.86,0,0,0-1.51-1.54,7.6,7.6,0,0,0-1.44-.83l-1.32-1.32-3.53,2.65c-.28,0-.55.06-.84.06s-.35,0-.52,0l-3.56-2.67-1.1,1.1h0a7.57,7.57,0,0,0-1.94,1,7.86,7.86,0,0,0-1.51,1.54,7,7,0,0,0-1,1.91,6.59,6.59,0,0,0-.36,2.17v5.12a1.13,1.13,0,0,0,.36.85,1.24,1.24,0,0,0,.89.34h17.5a1.24,1.24,0,0,0,.89-.34,1.13,1.13,0,0,0,.36-.85V51.19A6.59,6.59,0,0,0,57.14,49Z"/><path class="cls-16" d="M43.13,42.38a6.43,6.43,0,0,0,2,1.34,5.88,5.88,0,0,0,2.42.49h.11A5.78,5.78,0,0,0,50,43.72a6.29,6.29,0,0,0,1.94-1.34,6.43,6.43,0,0,0,1.31-2,6.42,6.42,0,0,0,0-4.87,6.37,6.37,0,0,0-1.31-2A6.12,6.12,0,0,0,50,32.18a5.78,5.78,0,0,0-2.37-.49h-.11a5.88,5.88,0,0,0-2.42.49A6.29,6.29,0,0,0,41.31,38a6.18,6.18,0,0,0,.49,2.44A6.32,6.32,0,0,0,43.13,42.38Z"/><path class="cls-16" d="M57.14,49a7,7,0,0,0-1-1.91,7.86,7.86,0,0,0-1.51-1.54,7.6,7.6,0,0,0-1.44-.83l-1.32-1.32-3.53,2.65c-.28,0-.55.06-.84.06s-.35,0-.52,0l-3.56-2.67-1.1,1.1h0a7.57,7.57,0,0,0-1.94,1,7.86,7.86,0,0,0-1.51,1.54,7,7,0,0,0-1,1.91,6.59,6.59,0,0,0-.36,2.17v5.12a1.13,1.13,0,0,0,.36.85,1.24,1.24,0,0,0,.89.34h17.5a1.24,1.24,0,0,0,.89-.34,1.13,1.13,0,0,0,.36-.85V51.19A6.59,6.59,0,0,0,57.14,49Z"/></g><path class="cls-17" d="M52.69,44.52a7.57,7.57,0,0,1,1.94,1,7.86,7.86,0,0,1,1.51,1.54,7,7,0,0,1,1,1.91,6.59,6.59,0,0,1,.36,2.17v5.12a1.13,1.13,0,0,1-.36.85,1.24,1.24,0,0,1-.89.34H38.75a1.24,1.24,0,0,1-.89-.34,1.13,1.13,0,0,1-.36-.85V51.19A6.59,6.59,0,0,1,37.86,49a7,7,0,0,1,1-1.91,7.86,7.86,0,0,1,1.51-1.54,7.57,7.57,0,0,1,1.94-1,8.94,8.94,0,0,0,2.42,1.19,9.16,9.16,0,0,0,2.77.42A8.91,8.91,0,0,0,52.69,44.52Z"/><path class="cls-18" d="M53.73,38a6.18,6.18,0,0,1-.48,2.44,6.43,6.43,0,0,1-1.31,2A6.29,6.29,0,0,1,50,43.72a5.78,5.78,0,0,1-2.37.49,5.68,5.68,0,0,1-2.37-.49,6.25,6.25,0,0,1-1.93-1.34,6.43,6.43,0,0,1-1.31-2,6.42,6.42,0,0,1,0-4.87,6.37,6.37,0,0,1,1.31-2,6.08,6.08,0,0,1,1.93-1.34,5.68,5.68,0,0,1,2.37-.49,5.78,5.78,0,0,1,2.37.49,6.12,6.12,0,0,1,1.94,1.34,6.37,6.37,0,0,1,1.31,2A6.23,6.23,0,0,1,53.73,38Z"/><path class="cls-19" d="M53.73,38a6.18,6.18,0,0,1-.49,2.44,6.49,6.49,0,0,1-1.33,2,6.35,6.35,0,0,1-2,1.34,6,6,0,0,1-2.41.49,5.88,5.88,0,0,1-2.42-.49,6.43,6.43,0,0,1-2-1.34,6.32,6.32,0,0,1-1.33-2,6.3,6.3,0,0,1,0-4.87,6.23,6.23,0,0,1,3.3-3.34,5.88,5.88,0,0,1,2.42-.49,6,6,0,0,1,2.41.49,6.19,6.19,0,0,1,2,1.34,6.42,6.42,0,0,1,1.33,2A6.24,6.24,0,0,1,53.73,38Z"/><path class="cls-19" d="M52.69,44.52a7.57,7.57,0,0,1,1.94,1,7.86,7.86,0,0,1,1.51,1.54,7,7,0,0,1,1,1.91,6.59,6.59,0,0,1,.36,2.17v5.12a1.13,1.13,0,0,1-.36.85,1.24,1.24,0,0,1-.89.34H38.75a1.24,1.24,0,0,1-.89-.34,1.13,1.13,0,0,1-.36-.85V51.19A6.59,6.59,0,0,1,37.86,49a7,7,0,0,1,1-1.91,7.86,7.86,0,0,1,1.51-1.54,7.57,7.57,0,0,1,1.94-1,8.94,8.94,0,0,0,2.42,1.19,9.16,9.16,0,0,0,2.77.42A8.91,8.91,0,0,0,52.69,44.52Z"/><polygon class="cls-20" points="49.05 49.06 46.49 49.06 46.49 54.46 47.82 56.16 49.05 54.46 49.05 49.06"/><polygon class="cls-21" points="47.8 51.28 44.99 48.47 47.67 46.24 50.48 48.6 47.8 51.28"/><polygon class="cls-22" points="51.87 43.42 53.74 45.3 50.93 50.93 48.11 46.24 51.87 43.42"/><polygon class="cls-23" points="43.42 43.42 41.54 45.3 44.36 50.93 47.17 46.24 43.42 43.42"/></g></svg>