<svg xmlns="http://www.w3.org/2000/svg" xmlns:xlink="http://www.w3.org/1999/xlink" viewBox="0 0 64 64"><defs><style>.De-emphasized-WHITE-for-Vector-Highlights,.cls-12{fill:#fff;}.De-emphasized-WHITE-for-Vector-Highlights,.cls-13{stroke:#fff;stroke-width:3px;}.Blue-RIGHT\,-FRONT-\&amp;-SINGLE,.De-emphasized-WHITE-for-Vector-Highlights,.White-OUTLINE,.Yellow-WARNING,.cls-10,.cls-13,.cls-14,.cls-15,.cls-16,.cls-17,.cls-18,.cls-19,.cls-20,.cls-8,.cls-9{stroke-linejoin:round;}.De-emphasized-WHITE-for-Vector-Highlights,.cls-11,.cls-3{opacity:0.5;}.DARK-GREY-Fill{fill:url(#linear-gradient);}.cls-1{fill:#f4f5f6;}.cls-2{fill:#e4e7ea;}.cls-3{fill:#646464;}.cls-4{fill:#005686;}.cls-5{fill:#368ec4;}.cls-6{fill:#42a2da;}.cls-7{opacity:0.3;fill:url(#Dégradé_sans_nom_5);}.White-OUTLINE,.cls-10,.cls-13,.cls-16,.cls-8,.cls-9{fill:none;}.White-OUTLINE{stroke:#323232;}.Blue-RIGHT\,-FRONT-\&amp;-SINGLE{stroke:#003755;fill:url(#linear-gradient-2);}.cls-8{stroke:url(#linear-gradient-3);}.cls-9{stroke:url(#linear-gradient-4);}.cls-10{stroke:url(#linear-gradient-5);}.Yellow-WARNING{stroke:#963200;fill:url(#linear-gradient-6);}.cls-14,.cls-15{stroke:#807c7b;}.cls-14,.cls-15,.cls-16,.cls-17,.cls-18,.cls-19,.cls-20{stroke-width:0.92px;}.cls-14{fill:url(#linear-gradient-8);}.cls-15{fill:url(#linear-gradient-9);}.cls-16,.cls-17,.cls-18,.cls-19,.cls-20{stroke:#3a3634;}.cls-17{fill:url(#linear-gradient-10);}.cls-18{fill:url(#linear-gradient-11);}.cls-19{fill:url(#linear-gradient-12);}.cls-20{fill:url(#linear-gradient-13);}.cls-21{fill:url(#linear-gradient-14);}</style><linearGradient id="linear-gradient" x1="9" y1="27.5" x2="55" y2="27.5" gradientUnits="userSpaceOnUse"><stop offset="0" stop-color="#464646"/><stop offset="1" stop-color="#141414"/></linearGradient><linearGradient id="Dégradé_sans_nom_5" x1="20.91" y1="27.5" x2="54" y2="27.5" gradientUnits="userSpaceOnUse"><stop offset="0" stop-color="#fff"/><stop offset="1" stop-color="#fff" stop-opacity="0"/></linearGradient><linearGradient id="linear-gradient-2" x1="13.61" y1="32.44" x2="27.02" y2="55.66" gradientUnits="userSpaceOnUse"><stop offset="0" stop-color="#8cd7f5"/><stop offset="1" stop-color="#376e8c"/></linearGradient><linearGradient id="linear-gradient-3" x1="17.33" y1="38.46" x2="24.57" y2="51" gradientUnits="userSpaceOnUse"><stop offset="0" stop-color="#fff"/><stop offset="1" stop-color="#f0f0f0"/></linearGradient><linearGradient id="linear-gradient-4" x1="15.93" y1="39.27" x2="18.71" y2="44.09" xlink:href="#linear-gradient-3"/><linearGradient id="linear-gradient-5" x1="21.48" y1="44.51" x2="25.11" y2="50.81" xlink:href="#linear-gradient-3"/><linearGradient id="linear-gradient-6" x1="42.33" y1="44.05" x2="51.73" y2="60.32" gradientUnits="userSpaceOnUse"><stop offset="0" stop-color="#fbe86a"/><stop offset="1" stop-color="#f1cf2f"/></linearGradient><linearGradient id="linear-gradient-8" x1="42.47" y1="44.29" x2="51.73" y2="60.32" gradientUnits="userSpaceOnUse"><stop offset="0" stop-color="#fafafb"/><stop offset="1" stop-color="#c9c6c5"/></linearGradient><linearGradient id="linear-gradient-9" x1="44.52" y1="32.56" x2="50.74" y2="43.33" xlink:href="#linear-gradient-8"/><linearGradient id="linear-gradient-10" x1="46.28" y1="49.18" x2="49.69" y2="55.08" gradientUnits="userSpaceOnUse"><stop offset="0" stop-color="#b4b1b0"/><stop offset="1" stop-color="#615d5c"/></linearGradient><linearGradient id="linear-gradient-11" x1="49.77" y1="30.73" x2="52.24" y2="35" gradientTransform="matrix(0.72, 0.72, -0.68, 0.68, 33.51, -10.2)" xlink:href="#linear-gradient-10"/><linearGradient id="linear-gradient-12" x1="50.15" y1="44.41" x2="53.16" y2="49.64" gradientUnits="userSpaceOnUse"><stop offset="0" stop-color="#fff"/><stop offset="1" stop-color="#dddddb"/></linearGradient><linearGradient id="linear-gradient-13" x1="19.86" y1="44.41" x2="22.88" y2="49.64" gradientTransform="matrix(-1, 0, 0, 1, 65, 0)" xlink:href="#linear-gradient-12"/><linearGradient id="linear-gradient-14" x1="44.08" y1="28.08" x2="49.66" y2="37.74" xlink:href="#linear-gradient-6"/></defs><g id="OutlineW"><rect class="De-emphasized-WHITE-for-Vector-Highlights" x="8.5" y="11.5" width="47" height="32" rx="1.92"/></g><g id="Screen"><rect class="DARK-GREY-Fill" x="9" y="12" width="46" height="31" rx="0.6"/><rect class="cls-1" x="10" y="13" width="44" height="29" rx="0.6"/><rect class="cls-2" x="11" y="22" width="9" height="18"/><rect class="cls-3" x="11" y="15" width="9" height="8"/><rect class="cls-4" x="11" y="23" width="9" height="3"/><rect class="cls-3" x="11" y="33" width="9" height="3"/><rect class="cls-3" x="11" y="37" width="9" height="3"/><rect class="cls-5" x="11" y="33.06" width="4" height="2.78"/><rect class="cls-6" x="11" y="37" width="5" height="3"/><rect class="cls-2" x="22" y="22" width="9" height="18"/><rect class="cls-3" x="22" y="15" width="9" height="8"/><rect class="cls-4" x="22" y="23" width="9" height="3"/><rect class="cls-5" x="22" y="33" width="9" height="3"/><rect class="cls-6" x="22" y="37" width="9" height="3"/><rect class="cls-2" x="33" y="22" width="9" height="18"/><rect class="cls-3" x="33" y="15" width="9" height="8"/><rect class="cls-4" x="33" y="23" width="9" height="3"/><rect class="cls-3" x="33" y="33" width="9" height="3"/><rect class="cls-3" x="33" y="37" width="9" height="3"/><rect class="cls-5" x="33" y="33.06" width="5" height="2.78"/><rect class="cls-6" x="33" y="37" width="6" height="3"/><rect class="cls-2" x="44" y="22" width="9" height="18"/><rect class="cls-3" x="44" y="15" width="9" height="8"/><rect class="cls-4" x="44" y="23" width="9" height="3"/><rect class="cls-3" x="44" y="33" width="9" height="3"/><rect class="cls-3" x="44" y="37" width="9" height="3"/><rect class="cls-5" x="44" y="33.06" width="7" height="2.78"/><rect class="cls-6" x="44" y="37" width="6" height="3"/><path class="cls-7" d="M53.4,42H20.91L36.17,13H53.4a.6.6,0,0,1,.6.6V41.4A.6.6,0,0,1,53.4,42Z"/></g><g id="OutlineB"><rect class="White-OUTLINE" x="8.5" y="11.5" width="47" height="32" rx="1.92"/></g><g id="Engine"><polygon class="De-emphasized-WHITE-for-Vector-Highlights" points="32.5 38.5 30.5 38.5 30.5 41.5 28.5 41.5 28.5 38.5 24.5 38.5 24.5 36.5 20.5 36.5 20.5 34.5 24.5 34.5 24.5 32.5 13.5 32.5 13.5 34.5 17.5 34.5 17.5 36.5 13.5 36.5 13.5 37.5 11.5 37.5 11.5 41.5 9.5 41.5 9.5 37.5 7.5 37.5 7.5 48.5 9.5 48.5 9.5 44.5 11.5 44.5 11.5 48.5 13.5 48.5 16.5 52.5 28.5 52.5 28.5 49.5 30.5 49.5 30.5 52.5 32.5 52.5 33.5 49.5 33.5 41.5 32.5 38.5"/><polygon class="Blue-RIGHT,-FRONT-&amp;-SINGLE" points="32.5 38.5 30.5 38.5 30.5 41.5 28.5 41.5 28.5 38.5 24.5 38.5 24.5 36.5 20.5 36.5 20.5 34.5 24.5 34.5 24.5 32.5 13.5 32.5 13.5 34.5 17.5 34.5 17.5 36.5 13.5 36.5 13.5 37.5 11.5 37.5 11.5 41.5 9.5 41.5 9.5 37.5 7.5 37.5 7.5 48.5 9.5 48.5 9.5 44.5 11.5 44.5 11.5 48.5 13.5 48.5 16.5 52.5 28.5 52.5 28.5 49.5 30.5 49.5 30.5 52.5 32.5 52.5 33.5 49.5 33.5 41.5 32.5 38.5"/><path class="cls-8" d="M25.15,44.73h0l-.07,0-.21-.16L19,40.09a2.27,2.27,0,0,0-.53-.39h0a2.22,2.22,0,0,0-1.09-.29A2.28,2.28,0,0,0,15,41.68a4.07,4.07,0,0,0,.16.83h0c.16.38,5.26,7.19,5.76,7.57l0,0h0a3.4,3.4,0,0,0,4.16-5.38Z"/><circle class="cls-9" cx="17.32" cy="41.68" r="2.28"/><circle class="cls-10" cx="23.3" cy="47.66" r="3.13"/></g><g id="Operator"><g class="cls-11"><path class="cls-12" d="M57.14,49a7,7,0,0,0-1-1.91,7.86,7.86,0,0,0-1.51-1.54,7.6,7.6,0,0,0-1.44-.83l-1.32-1.32-3.53,2.65c-.28,0-.55.06-.84.06s-.35,0-.52,0l-3.56-2.67-1.1,1.1h0a7.57,7.57,0,0,0-1.94,1,7.86,7.86,0,0,0-1.51,1.54,7,7,0,0,0-1,1.91,6.59,6.59,0,0,0-.36,2.17v5.12a1.13,1.13,0,0,0,.36.85,1.24,1.24,0,0,0,.89.34h17.5a1.24,1.24,0,0,0,.89-.34,1.13,1.13,0,0,0,.36-.85V51.19A6.59,6.59,0,0,0,57.14,49Z"/><path class="cls-12" d="M41.61,35.48h.21s0,0,0,0a6.3,6.3,0,0,0,0,4.87,6.32,6.32,0,0,0,1.33,2,6.43,6.43,0,0,0,2,1.34,5.88,5.88,0,0,0,2.42.49h.11A5.78,5.78,0,0,0,50,43.72a6.29,6.29,0,0,0,1.94-1.34,6.43,6.43,0,0,0,1.31-2,6.42,6.42,0,0,0,0-4.87s0,0,0,0h0a1.26,1.26,0,0,0,1.24-1.27v-.66a1.25,1.25,0,0,0-1.24-1.26h-.33a4.75,4.75,0,0,0-4.71-4.79H46.65a4.75,4.75,0,0,0-4.71,4.79h-.33a1.25,1.25,0,0,0-1.24,1.26v.66A1.26,1.26,0,0,0,41.61,35.48Z"/><path class="Yellow-WARNING" d="M57.14,49a7,7,0,0,0-1-1.91,7.86,7.86,0,0,0-1.51-1.54,7.6,7.6,0,0,0-1.44-.83l-1.32-1.32-3.53,2.65c-.28,0-.55.06-.84.06s-.35,0-.52,0l-3.56-2.67-1.1,1.1h0a7.57,7.57,0,0,0-1.94,1,7.86,7.86,0,0,0-1.51,1.54,7,7,0,0,0-1,1.91,6.59,6.59,0,0,0-.36,2.17v5.12a1.13,1.13,0,0,0,.36.85,1.24,1.24,0,0,0,.89.34h17.5a1.24,1.24,0,0,0,.89-.34,1.13,1.13,0,0,0,.36-.85V51.19A6.59,6.59,0,0,0,57.14,49Z"/><path class="Yellow-WARNING" d="M41.61,35.48h.21s0,0,0,0a6.3,6.3,0,0,0,0,4.87,6.32,6.32,0,0,0,1.33,2,6.43,6.43,0,0,0,2,1.34,5.88,5.88,0,0,0,2.42.49h.11A5.78,5.78,0,0,0,50,43.72a6.29,6.29,0,0,0,1.94-1.34,6.43,6.43,0,0,0,1.31-2,6.42,6.42,0,0,0,0-4.87s0,0,0,0h0a1.26,1.26,0,0,0,1.24-1.27v-.66a1.25,1.25,0,0,0-1.24-1.26h-.33a4.75,4.75,0,0,0-4.71-4.79H46.65a4.75,4.75,0,0,0-4.71,4.79h-.33a1.25,1.25,0,0,0-1.24,1.26v.66A1.26,1.26,0,0,0,41.61,35.48Z"/><path class="cls-13" d="M57.14,49a7,7,0,0,0-1-1.91,7.86,7.86,0,0,0-1.51-1.54,7.6,7.6,0,0,0-1.44-.83l-1.32-1.32-3.53,2.65c-.28,0-.55.06-.84.06s-.35,0-.52,0l-3.56-2.67-1.1,1.1h0a7.57,7.57,0,0,0-1.94,1,7.86,7.86,0,0,0-1.51,1.54,7,7,0,0,0-1,1.91,6.59,6.59,0,0,0-.36,2.17v5.12a1.13,1.13,0,0,0,.36.85,1.24,1.24,0,0,0,.89.34h17.5a1.24,1.24,0,0,0,.89-.34,1.13,1.13,0,0,0,.36-.85V51.19A6.59,6.59,0,0,0,57.14,49Z"/><path class="cls-13" d="M41.61,35.48h.21s0,0,0,0a6.3,6.3,0,0,0,0,4.87,6.32,6.32,0,0,0,1.33,2,6.43,6.43,0,0,0,2,1.34,5.88,5.88,0,0,0,2.42.49h.11A5.78,5.78,0,0,0,50,43.72a6.29,6.29,0,0,0,1.94-1.34,6.43,6.43,0,0,0,1.31-2,6.42,6.42,0,0,0,0-4.87s0,0,0,0h0a1.26,1.26,0,0,0,1.24-1.27v-.66a1.25,1.25,0,0,0-1.24-1.26h-.33a4.75,4.75,0,0,0-4.71-4.79H46.65a4.75,4.75,0,0,0-4.71,4.79h-.33a1.25,1.25,0,0,0-1.24,1.26v.66A1.26,1.26,0,0,0,41.61,35.48Z"/></g><path class="cls-14" d="M52.69,44.52a7.57,7.57,0,0,1,1.94,1,7.86,7.86,0,0,1,1.51,1.54,7,7,0,0,1,1,1.91,6.59,6.59,0,0,1,.36,2.17v5.12a1.13,1.13,0,0,1-.36.85,1.24,1.24,0,0,1-.89.34H38.75a1.24,1.24,0,0,1-.89-.34,1.13,1.13,0,0,1-.36-.85V51.19A6.59,6.59,0,0,1,37.86,49a7,7,0,0,1,1-1.91,7.86,7.86,0,0,1,1.51-1.54,7.57,7.57,0,0,1,1.94-1,8.94,8.94,0,0,0,2.42,1.19,9.16,9.16,0,0,0,2.77.42A8.91,8.91,0,0,0,52.69,44.52Z"/><path class="cls-15" d="M53.73,38a6.18,6.18,0,0,1-.48,2.44,6.43,6.43,0,0,1-1.31,2A6.29,6.29,0,0,1,50,43.72a5.78,5.78,0,0,1-2.37.49,5.68,5.68,0,0,1-2.37-.49,6.25,6.25,0,0,1-1.93-1.34,6.43,6.43,0,0,1-1.31-2,6.42,6.42,0,0,1,0-4.87,6.37,6.37,0,0,1,1.31-2,6.08,6.08,0,0,1,1.93-1.34,5.68,5.68,0,0,1,2.37-.49,5.78,5.78,0,0,1,2.37.49,6.12,6.12,0,0,1,1.94,1.34,6.37,6.37,0,0,1,1.31,2A6.23,6.23,0,0,1,53.73,38Z"/><path class="cls-16" d="M53.73,38a6.18,6.18,0,0,1-.49,2.44,6.49,6.49,0,0,1-1.33,2,6.35,6.35,0,0,1-2,1.34,6,6,0,0,1-2.41.49,5.88,5.88,0,0,1-2.42-.49,6.43,6.43,0,0,1-2-1.34,6.32,6.32,0,0,1-1.33-2,6.3,6.3,0,0,1,0-4.87,6.23,6.23,0,0,1,3.3-3.34,5.88,5.88,0,0,1,2.42-.49,6,6,0,0,1,2.41.49,6.19,6.19,0,0,1,2,1.34,6.42,6.42,0,0,1,1.33,2A6.24,6.24,0,0,1,53.73,38Z"/><path class="cls-16" d="M52.69,44.52a7.57,7.57,0,0,1,1.94,1,7.86,7.86,0,0,1,1.51,1.54,7,7,0,0,1,1,1.91,6.59,6.59,0,0,1,.36,2.17v5.12a1.13,1.13,0,0,1-.36.85,1.24,1.24,0,0,1-.89.34H38.75a1.24,1.24,0,0,1-.89-.34,1.13,1.13,0,0,1-.36-.85V51.19A6.59,6.59,0,0,1,37.86,49a7,7,0,0,1,1-1.91,7.86,7.86,0,0,1,1.51-1.54,7.57,7.57,0,0,1,1.94-1,8.94,8.94,0,0,0,2.42,1.19,9.16,9.16,0,0,0,2.77.42A8.91,8.91,0,0,0,52.69,44.52Z"/><polygon class="cls-17" points="49.05 49.06 46.49 49.06 46.49 54.46 47.82 56.16 49.05 54.46 49.05 49.06"/><polygon class="cls-18" points="47.8 51.28 44.99 48.47 47.67 46.24 50.48 48.6 47.8 51.28"/><polygon class="cls-19" points="51.87 43.42 53.74 45.3 50.93 50.93 48.11 46.24 51.87 43.42"/><polygon class="cls-20" points="43.42 43.42 41.54 45.3 44.36 50.93 47.17 46.24 43.42 43.42"/><path class="cls-21" d="M41.61,35.48H53.26a1.26,1.26,0,0,0,1.24-1.27v-.66a1.25,1.25,0,0,0-1.24-1.26h-.33a4.75,4.75,0,0,0-4.71-4.79H46.65a4.75,4.75,0,0,0-4.71,4.79h-.33a1.25,1.25,0,0,0-1.24,1.26v.66A1.26,1.26,0,0,0,41.61,35.48Z"/><path class="Yellow-WARNING" d="M41.61,35.48H53.26a1.26,1.26,0,0,0,1.24-1.27v-.66a1.25,1.25,0,0,0-1.24-1.26h-.33a4.75,4.75,0,0,0-4.71-4.79H46.65a4.75,4.75,0,0,0-4.71,4.79h-.33a1.25,1.25,0,0,0-1.24,1.26v.66A1.26,1.26,0,0,0,41.61,35.48Z"/><line class="Yellow-WARNING" x1="45.08" y1="27.5" x2="45.08" y2="30.69"/><line class="Yellow-WARNING" x1="49.79" y1="27.5" x2="49.79" y2="30.69"/><path class="White-OUTLINE" d="M41.61,35.48H53.26a1.26,1.26,0,0,0,1.24-1.27v-.66a1.25,1.25,0,0,0-1.24-1.26h-.33a4.75,4.75,0,0,0-4.71-4.79H46.65a4.75,4.75,0,0,0-4.71,4.79h-.33a1.25,1.25,0,0,0-1.24,1.26v.66A1.26,1.26,0,0,0,41.61,35.48Z"/><line class="White-OUTLINE" x1="45.08" y1="27.5" x2="45.08" y2="30.69"/><line class="White-OUTLINE" x1="49.79" y1="27.5" x2="49.79" y2="30.69"/></g></svg>