<svg xmlns="http://www.w3.org/2000/svg" xmlns:xlink="http://www.w3.org/1999/xlink" width="64" height="64" viewBox="0 0 64 64">
  <defs>
    <linearGradient id="a" x1="59.753" y1="31.776" x2="46.268" y2="38.519" gradientUnits="userSpaceOnUse">
      <stop offset="0" stop-color="#c9c9c9"/>
      <stop offset="1" stop-color="#737373"/>
    </linearGradient>
    <linearGradient id="b" x1="48.402" y1="27.452" x2="56.098" y2="27.452" gradientUnits="userSpaceOnUse">
      <stop offset="0" stop-color="#f0f0f0"/>
      <stop offset="1" stop-color="#b3b3b3"/>
    </linearGradient>
    <linearGradient id="c" x1="56.735" y1="30.621" x2="20.645" y2="58.942" xlink:href="#b"/>
    <linearGradient id="d" x1="48.927" y1="29.745" x2="59.158" y2="20.14" gradientUnits="userSpaceOnUse">
      <stop offset="0" stop-color="#3c7e96"/>
      <stop offset="0.67" stop-color="#74b7d0"/>
      <stop offset="1" stop-color="#92d5ee"/>
    </linearGradient>
    <linearGradient id="e" x1="49.683" y1="5.363" x2="12.736" y2="38.233" xlink:href="#a"/>
    <linearGradient id="f" x1="25.557" y1="29.05" x2="-5.866" y2="53.241" xlink:href="#a"/>
    <linearGradient id="g" x1="12.903" y1="34.82" x2="21.879" y2="50.367" gradientUnits="userSpaceOnUse">
      <stop offset="0" stop-color="#fff"/>
      <stop offset="1" stop-color="#d2d2d2"/>
    </linearGradient>
    <linearGradient id="h" x1="12.357" y1="26.204" x2="17.839" y2="35.699" gradientUnits="userSpaceOnUse">
      <stop offset="0" stop-color="#fff"/>
      <stop offset="1" stop-color="#f1f0f0"/>
    </linearGradient>
    <linearGradient id="i" x1="34.183" y1="14.168" x2="-29.717" y2="56.311" gradientUnits="userSpaceOnUse">
      <stop offset="0" stop-color="#f7f7f7"/>
      <stop offset="1" stop-color="#737373"/>
    </linearGradient>
    <linearGradient id="j" x1="18.162" y1="17.51" x2="24.829" y2="17.51" xlink:href="#b"/>
    <linearGradient id="k" x1="28.784" y1="22.535" x2="42.762" y2="46.744" xlink:href="#g"/>
    <linearGradient id="l" x1="18.161" y1="16.618" x2="24.701" y2="16.618" xlink:href="#b"/>
    <linearGradient id="m" x1="11.501" y1="30.309" x2="18.638" y2="30.309" xlink:href="#b"/>
    <linearGradient id="n" x1="26.293" y1="34.66" x2="44.902" y2="34.66" gradientUnits="userSpaceOnUse">
      <stop offset="0" stop-color="#858585"/>
      <stop offset="0.297" stop-color="#838383"/>
      <stop offset="0.404" stop-color="#7c7c7c"/>
      <stop offset="0.48" stop-color="#717171"/>
      <stop offset="0.522" stop-color="#666"/>
    </linearGradient>
    <linearGradient id="o" x1="27.146" y1="36.894" x2="45.396" y2="36.894" xlink:href="#b"/>
    <linearGradient id="p" x1="57.02" y1="16.592" x2="38.664" y2="34.03" xlink:href="#b"/>
    <linearGradient id="q" x1="90.181" y1="13.119" x2="27.642" y2="47.734" xlink:href="#b"/>
    <linearGradient id="r" x1="57.588" y1="10.877" x2="49.832" y2="24.273" xlink:href="#a"/>
    <linearGradient id="s" x1="25.992" y1="49.561" x2="42.341" y2="34.477" xlink:href="#d"/>
    <linearGradient id="t" x1="27.81" y1="42.205" x2="39.864" y2="29.453" xlink:href="#d"/>
    <linearGradient id="u" x1="27.419" y1="44.079" x2="35.737" y2="35.273" xlink:href="#d"/>
    <linearGradient id="v" x1="11.508" y1="29.45" x2="18.639" y2="29.45" xlink:href="#b"/>
    <radialGradient id="w" cx="20.13" cy="19.709" r="7.294" gradientTransform="translate(12.316 -20.714) rotate(18.33) scale(1 1.822)" gradientUnits="userSpaceOnUse">
      <stop offset="0.425" stop-color="#f0f0f0"/>
      <stop offset="0.581" stop-color="#b3b3b3"/>
      <stop offset="1" stop-color="#5c5c5c"/>
    </radialGradient>
    <linearGradient id="x" x1="34.293" y1="33.451" x2="36.293" y2="33.451" xlink:href="#b"/>
    <linearGradient id="y" x1="32.293" y1="29.733" x2="38.293" y2="29.733" xlink:href="#d"/>
    <linearGradient id="z" x1="31.293" y1="26.131" x2="39.002" y2="26.131" xlink:href="#d"/>
    <linearGradient id="aa" x1="43.683" y1="31.59" x2="62.542" y2="60.874" gradientUnits="userSpaceOnUse">
      <stop offset="0" stop-color="#fff"/>
      <stop offset="1" stop-color="#bfbfbf"/>
    </linearGradient>
  </defs>
  <title>25773_DELMSG_AP_AppIcon_r21x</title>
  <g>
    <g>
      <polygon points="47.412 40.083 53.402 38.952 53.402 34.952 47.402 33.952 47.412 40.083" fill="url(#a)"/>
      <polygon points="48.402 24.952 56.098 22.952 56.098 29.952 48.402 31.952 48.402 24.952" stroke="#787878" stroke-linecap="round" stroke-linejoin="round" fill="url(#b)"/>
      <polygon points="60.402 32.952 50.054 36.076 48.402 32.952 48.402 31.952 56.402 29.952 60.402 32.952" fill="url(#c)"/>
      <polygon points="50.902 34.952 49.402 32.952 56.402 30.952 58.402 32.952 50.902 34.952" fill="#939393"/>
      <polyline points="53.34 35.558 49.996 36.561 47.59 32.952 47.59 31.749 56.03 29.638" fill="none" stroke="#787878" stroke-miterlimit="10"/>
      <g>
        <path d="M48.4,30.452a.5.5,0,0,1-.5-.5v-4a.5.5,0,0,1,.363-.481l7-2a.5.5,0,0,1,.637.481v4a.5.5,0,0,1-.362.481l-7,2A.546.546,0,0,1,48.4,30.452Z" fill="url(#d)"/>
        <path d="M55.4,23.952v4l-7,2v-4l7-2m0-1a.985.985,0,0,0-.274.038l-7,2a1,1,0,0,0-.726.962v4a1,1,0,0,0,1.275.961l7-2a1,1,0,0,0,.725-.961v-4a1,1,0,0,0-1-1Z" fill="#00415f"/>
      </g>
      <polygon points="24.598 51.452 12.598 36.952 12.598 14.585 24.598 24.952 24.598 51.452" fill="url(#e)"/>
      <polygon points="7.598 28.952 12.598 34.996 12.598 52.952 7.598 45.78 7.598 28.952" fill="url(#f)"/>
      <polygon points="22.598 32.952 22.598 49.952 12.598 52.952 12.598 34.996 22.598 32.952" stroke="#787979" stroke-linejoin="round" fill="url(#g)"/>
      <polygon points="17.398 27.201 22.598 32.952 12.598 34.996 7.598 28.952 17.398 27.201" stroke="#787979" stroke-linejoin="round" fill="url(#h)"/>
      <polygon points="12.795 14.585 24.598 24.952 47.649 18.975 36.241 9.952 12.795 14.585" fill="url(#i)"/>
      <line x1="24.598" y1="24.952" x2="12.598" y2="14.5" fill="none" stroke="#787979" stroke-linejoin="round"/>
      <g>
        <path d="M21.045,19.08c-.805,0-2.685-.114-2.752-1.164l-.127-1.062a.494.494,0,0,1,.112-.378.5.5,0,0,1,.352-.18L24.2,15.94a.5.5,0,0,1,.5.441l.13,1.089a.856.856,0,0,1-.227.649,4.874,4.874,0,0,1-2.952.941Q21.339,19.08,21.045,19.08Z" fill="url(#j)"/>
        <path d="M24.2,16.44l.13,1.089c.031.471-1.185.934-2.714,1.032-.2.013-.386.019-.57.019-1.262,0-2.228-.283-2.254-.7l-.13-1.089L24.2,16.44m0-1-.065,0L18.6,15.8a1,1,0,0,0-.929,1.116l.128,1.069c.09,1.03,1.242,1.6,3.249,1.6.205,0,.417-.007.634-.021.577-.037,2.519-.226,3.3-1.111a1.359,1.359,0,0,0,.352-.985c0-.018,0-.035,0-.053l-.13-1.089a1,1,0,0,0-.992-.881Z" fill="#787878"/>
      </g>
      <polygon points="47.598 43.952 24.598 51.452 24.598 24.952 47.598 18.952 47.598 43.952" stroke="#787979" stroke-linejoin="round" fill="url(#k)"/>
      <g>
        <path d="M20.919,17.991c-.806,0-2.689-.114-2.756-1.164-.064-1,1.674-1.466,3.183-1.563q.307-.02.6-.019c.806,0,2.689.113,2.754,1.164a.841.841,0,0,1-.229.62,4.872,4.872,0,0,1-2.95.942C21.314,17.984,21.113,17.991,20.919,17.991Z" fill="url(#l)"/>
        <path d="M21.945,15.745c1.262,0,2.23.282,2.255.7.031.472-1.184.934-2.713,1.032-.194.013-.384.019-.568.019-1.264,0-2.23-.283-2.257-.7-.03-.471,1.185-.933,2.716-1.032q.291-.018.567-.018m0-1c-.2,0-.415.006-.631.02-.884.057-3.76.377-3.65,2.094.068,1.052,1.224,1.632,3.255,1.632q.307,0,.632-.021c.578-.037,2.52-.227,3.3-1.111a1.359,1.359,0,0,0,.352-.985c-.065-1.049-1.221-1.629-3.253-1.629Z" fill="#787878"/>
      </g>
      <g>
        <path d="M14.618,31.89c-1.826,0-3.049-.6-3.117-1.521l.008-.7a.5.5,0,0,1,.464-.492l6.165-.448a.5.5,0,0,1,.5.507l-.009.659c.083,1.111-1.666,1.847-3.436,1.976C15,31.883,14.805,31.89,14.618,31.89Z" fill="url(#m)"/>
        <path d="M18.138,29.227l-.009.659c.051.7-1.28,1.361-2.973,1.485-.183.013-.363.019-.538.019-1.444,0-2.573-.437-2.618-1.057l.009-.66,6.129-.446m0-1c-.024,0-.049,0-.073,0l-6.129.446a1,1,0,0,0-.927.984L11,30.319c0,.029,0,.058,0,.086.088,1.206,1.507,1.985,3.615,1.985q.3,0,.611-.022c2.359-.173,3.951-1.2,3.9-2.5l.009-.627a1,1,0,0,0-1-1.013Zm0,2h0Z" fill="#787878"/>
      </g>
      <g>
        <polygon points="14.293 36.366 21.293 35.054 21.293 43.561 14.293 45.311 14.293 36.366" fill="#939393"/>
        <path d="M20.793,35.657v7.514l-6,1.5V36.782l6-1.125m1-1.2-8,1.5v10l8-2v-9.5Z" fill="#787878"/>
      </g>
      <g>
        <path d="M26.793,47.451a.508.508,0,0,1-.3-.1.5.5,0,0,1-.2-.4v-20a.5.5,0,0,1,.374-.484l17.609-4.583a.5.5,0,0,1,.126-.016.5.5,0,0,1,.5.5V41.951a.5.5,0,0,1-.363.482l-17.609,5A.531.531,0,0,1,26.793,47.451Z" fill="url(#n)"/>
        <path d="M44.4,22.369V41.952l-17.609,5v-20L44.4,22.369m0-1a.99.99,0,0,0-.252.032L26.541,25.984a1,1,0,0,0-.748.968v20a1,1,0,0,0,1,1,1.022,1.022,0,0,0,.273-.038l17.609-5a1,1,0,0,0,.727-.962V22.369a1,1,0,0,0-1-1Z" fill="#787878"/>
      </g>
      <polyline points="45.396 41.98 35.931 31.808 27.146 34.16" stroke="#787878" stroke-linecap="round" stroke-linejoin="round" fill="url(#o)"/>
      <g>
        <path d="M27.527,43.547a.5.5,0,0,1-.5-.472l-.381-6.623a.5.5,0,0,1,.358-.508l10.647-3.131a.487.487,0,0,1,.141-.021.5.5,0,0,1,.325.12l5.257,4.495a.5.5,0,0,1,.175.38v.624a.5.5,0,0,1-.357.48L27.67,43.526A.5.5,0,0,1,27.527,43.547Z" fill="url(#p)"/>
        <path d="M37.793,33.292l5.257,4.5v.623L27.527,43.047l-.381-6.624,10.647-3.131m0-1a1.013,1.013,0,0,0-.282.041L26.864,35.464a1,1,0,0,0-.716,1.017l.381,6.624a1,1,0,0,0,1.285.9l15.522-4.637a1,1,0,0,0,.714-.958v-.623a1,1,0,0,0-.35-.76l-5.257-4.5a1.006,1.006,0,0,0-.65-.24Z" fill="#787878"/>
      </g>
      <g>
        <path d="M26.793,47.451a.5.5,0,0,1-.5-.5v-2a.5.5,0,0,1,.356-.478l16.609-5a.48.48,0,0,1,.144-.022.5.5,0,0,1,.5.5v2.313a.5.5,0,0,1-.364.481L26.929,47.433A.53.53,0,0,1,26.793,47.451Z" fill="url(#q)"/>
        <path d="M43.4,39.952v2.312L26.793,46.952v-2l16.609-5m0-1a1.019,1.019,0,0,0-.288.042l-16.609,5a1,1,0,0,0-.712.958v2a1,1,0,0,0,1,1,1.014,1.014,0,0,0,.272-.038l16.609-4.687a1,1,0,0,0,.728-.963V39.952a1,1,0,0,0-1-1Z" fill="#787878"/>
      </g>
      <g>
        <path d="M44.834,42.007a.5.5,0,0,1-.486-.5v-19a.5.5,0,0,1,.276-.447l1-.5a.5.5,0,0,1,.224-.053.494.494,0,0,1,.262.075.5.5,0,0,1,.238.425V41.534a.5.5,0,0,1-.5.5Z" fill="url(#r)"/>
        <path d="M45.848,22.006V41.535l-1-.029v-19l1-.5m0-1a1,1,0,0,0-.448.106l-1,.5a1,1,0,0,0-.552.894v19a1,1,0,0,0,.971,1l1,.028h.029a1,1,0,0,0,1-1V22.006a1,1,0,0,0-1-1Z" fill="#787878"/>
      </g>
      <g>
        <path d="M29.793,43.451a.5.5,0,0,1-.412-.783l3.166-4.608a.51.51,0,0,1,.279-.2l6.427-1.775a.465.465,0,0,1,.133-.019.493.493,0,0,1,.32.117l3.088,2.579a.5.5,0,0,1-.177.862L29.937,43.43A.512.512,0,0,1,29.793,43.451Z" fill="url(#s)"/>
        <path d="M39.386,36.567l3.088,2.578L29.793,42.952l3.166-4.609,6.427-1.776m0-1a1.016,1.016,0,0,0-.267.036l-6.426,1.776a1,1,0,0,0-.558.4l-3.166,4.608a1,1,0,0,0,.824,1.567.979.979,0,0,0,.287-.043L42.761,40.1a1,1,0,0,0,.354-1.726L40.027,35.8a1,1,0,0,0-.641-.232Z" fill="#00415f"/>
      </g>
      <g>
        <path d="M30.245,43.451a.5.5,0,0,1-.37-.163l-3.084-3.382a.5.5,0,0,1,.013-.688l3.338-3.382a.5.5,0,0,1,.7-.016l2.327,2.156a.5.5,0,0,1,.1.611L30.681,43.2a.5.5,0,0,1-.379.253A.544.544,0,0,1,30.245,43.451Z" fill="url(#t)"/>
        <path d="M30.5,36.187l2.327,2.156-2.58,4.609L27.16,39.569,30.5,36.187m0-1a1,1,0,0,0-.712.3l-3.338,3.381a1,1,0,0,0-.027,1.377l3.085,3.382a1,1,0,0,0,.739.327,1.09,1.09,0,0,0,.114-.007,1,1,0,0,0,.759-.505l2.58-4.608a1,1,0,0,0-.193-1.222l-2.327-2.156a1,1,0,0,0-.68-.267Z" fill="#00415f"/>
      </g>
      <g>
        <path d="M32.705,38.778a.505.505,0,0,1-.34-.133l-2.326-2.158a.5.5,0,0,1,.2-.846l6.025-1.729a.492.492,0,0,1,.137-.019.5.5,0,0,1,.306.1l2.729,2.11a.5.5,0,0,1-.172.878l-6.428,1.776A.545.545,0,0,1,32.705,38.778Z" fill="url(#u)"/>
        <path d="M36.4,34.393l2.73,2.109-6.428,1.777-2.326-2.157L36.4,34.393m0-1a.993.993,0,0,0-.275.039L30.1,35.16a1,1,0,0,0-.4,1.7l2.326,2.157a1,1,0,0,0,.946.231L39.4,37.466a1,1,0,0,0,.345-1.755L37.015,33.6a1,1,0,0,0-.612-.209Z" fill="#00415f"/>
      </g>
      <g>
        <path d="M14.561,31.112c-1.359,0-2.974-.367-3.051-1.4-.08-1.127,1.729-1.774,3.444-1.9.216-.017.427-.024.632-.024,1.36,0,2.975.367,3.05,1.4a1.044,1.044,0,0,1-.282.773,4.9,4.9,0,0,1-3.162,1.125C14.977,31.105,14.766,31.112,14.561,31.112Z" fill="url(#v)"/>
        <path d="M15.586,28.288c1.416,0,2.511.385,2.552.939.047.629-1.289,1.24-2.982,1.363q-.3.023-.6.022c-1.415,0-2.51-.384-2.551-.939-.045-.629,1.289-1.24,2.981-1.363q.306-.022.6-.022m0-1q-.325,0-.669.025c-2.02.147-4.011.955-3.906,2.432.086,1.153,1.446,1.867,3.549,1.867q.327,0,.669-.024a5.3,5.3,0,0,0,3.5-1.3,1.54,1.54,0,0,0,.4-1.138c-.084-1.15-1.444-1.865-3.549-1.865Z" fill="#787878"/>
      </g>
      <path d="M17.2,28.99s-.1-1.245-.1-2.387a19.488,19.488,0,0,1,1.019-5.378A13.239,13.239,0,0,1,20.68,16.9s.137.173.933.173a3.444,3.444,0,0,0,2.006-.693s.484-3.942-2.905-3.942-5.992,5.191-6.683,7.4A29.794,29.794,0,0,0,12.9,26.494,27.773,27.773,0,0,0,13,29.51a3.643,3.643,0,0,0,2.041.534A2.247,2.247,0,0,0,17.2,28.99Z" stroke="#787878" stroke-linecap="round" stroke-linejoin="round" fill="url(#w)"/>
      <path d="M56.4,29.952l-.3.076V22.952l-8.5,2.209V18.988L36.241,9.952,22.108,12.745a3.05,3.05,0,0,0-1.394-.3A4.34,4.34,0,0,0,18,13.558l-5.4,1.027V28.058l-5,.894V45.78l5,7.172,10.607-3.183L24.6,51.452l23-7.5v-3.9l5.8-1.1V35.065l7-2.113Z" fill="none" stroke="#323232" stroke-linejoin="round"/>
      <g>
        <rect x="34.293" y="31.452" width="2" height="4" rx="0.5" fill="url(#x)"/>
        <path d="M35.793,31.952v3h-1v-3h1m0-1h-1a1,1,0,0,0-1,1v3a1,1,0,0,0,1,1h1a1,1,0,0,0,1-1v-3a1,1,0,0,0-1-1Z" fill="#2d2d2d"/>
      </g>
      <g>
        <path d="M35.091,32.014c-2.066,0-2.8-.905-2.8-1.681V27.952a.5.5,0,0,1,.5-.5l5,.019a.5.5,0,0,1,.5.5v2.362C38.293,31.437,36.682,32.014,35.091,32.014Z" fill="url(#y)"/>
        <path d="M32.793,27.952l5,.019v2.362c0,.655-1.209,1.181-2.7,1.181s-2.3-.526-2.3-1.181V27.952m0-1a1,1,0,0,0-1,1v2.381c0,1.006.864,2.181,3.3,2.181,2.18,0,3.7-.9,3.7-2.181V27.971a1,1,0,0,0-1-1l-5-.019Z" fill="#00415f"/>
      </g>
      <g>
        <path d="M34.889,28.889c-2.222,0-3.6-.882-3.6-1.7V25.34L39,23.374v4C39,27.993,37.4,28.889,34.889,28.889Z" fill="url(#z)"/>
        <path d="M38.5,24.017l0,3.335c-.1.285-1.356,1.037-3.616,1.037-2.175,0-3.1-.858-3.1-1.2v-1.46l6.71-1.712m1-1.287-8.709,2.222v2.237c0,1.112,1.549,2.2,4.1,2.2s4.613-.9,4.613-2.014V22.73Z" fill="#00415f"/>
      </g>
      <line x1="48.402" y1="26.952" x2="54.793" y2="25.251" fill="none" stroke="#fff" stroke-miterlimit="10"/>
      <line x1="48.402" y1="28.952" x2="51.402" y2="28.251" fill="none" stroke="#fff" stroke-miterlimit="10"/>
      <g>
        <rect x="15.793" y="37.952" width="1" height="1" fill="none" stroke="#00415f" stroke-miterlimit="10"/>
        <rect x="15.793" y="37.952" width="1" height="1" fill="#7abdd6"/>
      </g>
    </g>
    <g>
      <polygon points="45.5 48.952 56.5 54.048 56.5 36.952 45.5 31.952 45.5 48.952" stroke="#2d2d2d" stroke-linecap="round" stroke-linejoin="round" fill="url(#aa)"/>
      <polygon points="49 38.5 49 46.5 54 42.717 49 38.5" fill="#2d2d2d"/>
    </g>
  </g>
</svg>
