<svg xmlns="http://www.w3.org/2000/svg" xmlns:xlink="http://www.w3.org/1999/xlink" viewBox="0 0 64 64"><defs><style>.cls-1{fill:url(#linear-gradient);}.cls-2{fill:#6d6d6d;}.cls-3{fill:url(#linear-gradient-2);}.cls-4{fill:url(#linear-gradient-3);}.cls-10,.cls-5,.cls-8{fill:#5a9ab8;}.cls-10,.cls-11,.cls-12,.cls-13,.cls-5,.cls-6,.cls-7,.cls-8,.cls-9{stroke:#00415f;}.cls-10,.cls-11,.cls-12,.cls-13,.cls-15,.cls-17,.cls-5,.cls-6,.cls-7{stroke-linecap:round;}.De-emphasized-WHITE-for-Vector-Highlights,.White-OUTLINE-2,.White-RIGHT-\&amp;-FRONT,.cls-10,.cls-11,.cls-12,.cls-13,.cls-15,.cls-17,.cls-20,.cls-27,.cls-5,.cls-6,.cls-7,.cls-8,.cls-9{stroke-linejoin:round;}.cls-5,.cls-6,.cls-7,.cls-8,.cls-9{stroke-width:0.75px;}.cls-6{fill:#aadcfa;}.cls-11,.cls-7,.cls-9{fill:#82bddb;}.cls-10,.cls-11,.cls-12,.cls-13{stroke-width:0.5px;}.cls-12{fill:url(#linear-gradient-4);}.cls-13{fill:url(#linear-gradient-5);}.cls-14{fill:url(#linear-gradient-6);}.cls-15,.cls-17{stroke:#6d6d6d;stroke-width:0.99px;}.cls-15{fill:url(#linear-gradient-7);}.cls-16{fill:url(#linear-gradient-8);}.cls-17{fill:url(#linear-gradient-9);}.cls-18{fill:url(#linear-gradient-10);}.cls-19{fill:#2d2d2d;}.De-emphasized-WHITE-for-Vector-Highlights,.cls-25{fill:#fff;}.De-emphasized-WHITE-for-Vector-Highlights,.cls-27{stroke:#fff;}.De-emphasized-WHITE-for-Vector-Highlights{stroke-width:3px;}.De-emphasized-GREY-fill-2,.De-emphasized-WHITE-for-Vector-Highlights,.cls-24{opacity:0.5;}.White-RIGHT-\&amp;-FRONT{stroke:#787878;fill:url(#linear-gradient-11);}.cls-20{stroke:#003755;fill:url(#linear-gradient-12);}.De-emphasized-GREY-fill-2{fill:#646464;}.White-OUTLINE-2,.cls-27{fill:none;}.White-OUTLINE-2{stroke:#323232;}.DARK-GREY-Fill-3{fill:url(#linear-gradient-16);}.cls-21{fill:url(#linear-gradient-17);}.cls-22{fill:#00b8de;}.cls-23{fill:#007da3;}.cls-26{fill:url(#linear-gradient-18);}.cls-27{stroke-width:2px;}</style><linearGradient id="linear-gradient" x1="76.51" y1="76.52" x2="12.47" y2="27.37" gradientTransform="matrix(1, 0, 0, -1, 0, 66)" gradientUnits="userSpaceOnUse"><stop offset="0" stop-color="#fcfcfc"/><stop offset="1" stop-color="#b3b3b3"/></linearGradient><linearGradient id="linear-gradient-2" x1="22.88" y1="63.24" x2="7.6" y2="38.87" gradientTransform="matrix(1, 0, 0, -1, 0, 66)" gradientUnits="userSpaceOnUse"><stop offset="0" stop-color="#c9c9c9"/><stop offset="1" stop-color="#737373"/></linearGradient><linearGradient id="linear-gradient-3" x1="37.16" y1="43.68" x2="66.34" y2="43.68" gradientTransform="matrix(1, 0, 0, -1, 0, 66)" gradientUnits="userSpaceOnUse"><stop offset="0" stop-color="#787878"/><stop offset="1" stop-color="#fcfcfc"/></linearGradient><linearGradient id="linear-gradient-4" x1="26.11" y1="45.18" x2="35.9" y2="45.18" gradientTransform="matrix(1, 0, 0, -1, 0, 66)" gradientUnits="userSpaceOnUse"><stop offset="0.1" stop-color="#195a72"/><stop offset="0.5" stop-color="#5a9cb5"/><stop offset="1" stop-color="#93d2f0"/></linearGradient><linearGradient id="linear-gradient-5" x1="6.07" y1="42.67" x2="18.47" y2="42.67" xlink:href="#linear-gradient-4"/><linearGradient id="linear-gradient-6" x1="41.15" y1="55.3" x2="25.3" y2="41.73" xlink:href="#linear-gradient"/><linearGradient id="linear-gradient-7" x1="35.62" y1="46.18" x2="38.5" y2="46.18" xlink:href="#linear-gradient-2"/><linearGradient id="linear-gradient-8" x1="32" y1="53.88" x2="17.81" y2="40.73" xlink:href="#linear-gradient"/><linearGradient id="linear-gradient-9" x1="24.74" y1="43.34" x2="27.5" y2="43.34" xlink:href="#linear-gradient-2"/><linearGradient id="linear-gradient-10" x1="21.54" y1="50.52" x2="2.83" y2="36.33" xlink:href="#linear-gradient"/><linearGradient id="linear-gradient-11" x1="39.04" y1="32.3" x2="51.96" y2="54.7" gradientUnits="userSpaceOnUse"><stop offset="0" stop-color="#fff"/><stop offset="1" stop-color="#d2d2d2"/></linearGradient><linearGradient id="linear-gradient-12" x1="41.63" y1="26.8" x2="49.37" y2="40.2" gradientUnits="userSpaceOnUse"><stop offset="0" stop-color="#8cd7f5"/><stop offset="1" stop-color="#376e8c"/></linearGradient><linearGradient id="linear-gradient-16" x1="9.5" y1="57" x2="19.5" y2="57" gradientTransform="translate(-27 67.5) rotate(-90)" gradientUnits="userSpaceOnUse"><stop offset="0" stop-color="#464646"/><stop offset="1" stop-color="#141414"/></linearGradient><linearGradient id="linear-gradient-17" x1="28" y1="49.5" x2="31" y2="49.5" gradientUnits="userSpaceOnUse"><stop offset="0" stop-color="#3287af"/><stop offset="1" stop-color="#285a78"/></linearGradient><linearGradient id="linear-gradient-18" x1="12.85" y1="39.37" x2="21.36" y2="54.09" xlink:href="#linear-gradient-17"/></defs><g id="Factory"><g id="Usine_ok_2" data-name="Usine ok 2"><path class="cls-1" d="M16.18,38.92a.52.52,0,0,1-.41-.21l-9-12.95a.51.51,0,0,1-.06-.45A.52.52,0,0,1,7,25l26.43-7h.13a.51.51,0,0,1,.29.1L48,28.42a.51.51,0,0,1,.08.72.53.53,0,0,1-.23.16L16.32,38.9Z"/><path class="cls-2" d="M33.59,18.63,47.7,29,16.18,38.6l-9-12.94,26.43-7m0-1a1.13,1.13,0,0,0-.26,0l-26.43,7a1,1,0,0,0-.7,1.23,1,1,0,0,0,.14.3l9,12.94a1,1,0,0,0,.81.42,1.41,1.41,0,0,0,.29,0L48,29.92a1,1,0,0,0,.3-1.78L34.17,17.83a1,1,0,0,0-.58-.19Z"/><polygon class="cls-3" points="7 16.7 7 25.63 17.4 22.88 7 16.7"/><polygon class="cls-4" points="48 15.67 48 28.97 32.37 17.44 48 15.67"/><polygon class="cls-5" points="43.5 24.79 43.5 27.73 32.5 30.55 32.5 27.27 43.5 24.79"/><polygon class="cls-6" points="30.5 25.55 32.5 27.27 43.5 24.79 41.54 23.21 30.5 25.55"/><polygon class="cls-7" points="30.5 25.55 30.52 28.58 32.5 30.55 32.5 27.27 30.5 25.55"/><polygon class="cls-8" points="28.5 29 17.5 31.84 17.5 35.5 28.5 32.28 28.5 29"/><polygon class="cls-6" points="26.11 27.21 15.5 29.78 17.5 31.84 28.5 29 26.11 27.21"/><polygon class="cls-9" points="17.5 35.5 17.5 31.84 15.5 29.78 15.5 32.6 17.5 35.5"/><polygon class="cls-10" points="27.5 24.79 35.5 22.55 35.5 20.71 27.44 22.57 27.5 24.79"/><polygon class="cls-11" points="26.5 20.55 28.5 22.5 28.5 24.6 26.5 22.29 26.5 20.55"/><polygon class="cls-12" points="33.41 19.01 35.9 20.71 28.22 22.62 26.11 20.44 33.41 19.01"/><polygon class="cls-10" points="22.5 22.66 22.5 25.92 12.5 28.71 12.5 25.45 22.5 22.66"/><polygon class="cls-13" points="10.5 22.95 12.5 25.45 22.9 22.64 21.51 21.2 10.5 22.95"/><polygon class="cls-11" points="12.5 28.71 10.5 26 10.5 22.95 12.5 25.47 12.5 28.71"/><path class="cls-14" d="M38.14,22.42a.48.48,0,0,1-.37-.17l-9.63-11a.53.53,0,0,1-.12-.4.49.49,0,0,1,.22-.34l5.61-3.69a.5.5,0,0,1,.27-.08.5.5,0,0,1,.26.08L48,15.25a.49.49,0,0,1,.23.41.5.5,0,0,1-.22.42l-9.57,6.26A.46.46,0,0,1,38.14,22.42Z"/><path class="cls-2" d="M34.12,7.23,47.7,15.67l-9.56,6.26-9.62-11,5.6-3.68m-.12-1a1,1,0,0,0-.55.16l-5.57,3.67a1,1,0,0,0-.27,1.39l.07.09,9.62,11a1,1,0,0,0,.75.34,1,1,0,0,0,.54-.16l9.57-6.27a1,1,0,0,0,.27-1.39.87.87,0,0,0-.27-.27L34.52,6.39A1,1,0,0,0,34,6.24Z"/><polygon class="cls-15" points="38.5 17.72 38.5 21.93 35.62 19.75 38.5 17.72"/><path class="cls-16" d="M27.7,25.29a.52.52,0,0,1-.4-.21L18.62,13.17a.49.49,0,0,1,.1-.69l.05,0,6.67-4a.45.45,0,0,1,.25-.07.52.52,0,0,1,.29.09l12.45,8.82a.49.49,0,0,1,0,.81L28,25.2A.46.46,0,0,1,27.7,25.29Z"/><path class="cls-2" d="M25.69,8.91l12.45,8.82L27.7,24.79,19,12.88l6.67-4m0-1a1,1,0,0,0-.5.14l-6.68,4a1,1,0,0,0-.46.65,1,1,0,0,0,.17.78l8.7,11.92a1,1,0,0,0,.8.41,1,1,0,0,0,.56-.17l10.43-7.06a1,1,0,0,0,.22-1.4.92.92,0,0,0-.22-.22L26.27,8.11a1,1,0,0,0-.58-.19Z"/><polygon class="cls-17" points="27.5 20.52 27.5 24.79 24.73 22.27 27.5 20.52"/><path class="cls-18" d="M16.36,28.36a.53.53,0,0,1-.39-.18L6.78,17a.52.52,0,0,1-.11-.4.45.45,0,0,1,.22-.33l9.35-6a.5.5,0,0,1,.27-.08.46.46,0,0,1,.33.13L28,20.15a.49.49,0,0,1,.17.41.55.55,0,0,1-.23.38L16.63,28.28A.5.5,0,0,1,16.36,28.36Z"/><path class="cls-2" d="M16.51,10.65,27.7,20.52,16.36,27.86l-9.2-11.2,9.35-6m0-1a1,1,0,0,0-.54.15l-9.35,6a1,1,0,0,0-.44.68,1,1,0,0,0,.22.78l9.19,11.2a1,1,0,0,0,1.31.2l11.34-7.34a1,1,0,0,0,.28-1.39,1.37,1.37,0,0,0-.16-.18L17.17,9.9A1,1,0,0,0,16.51,9.66Z"/><path class="cls-19" d="M34.26,7,48,15.58V29.07l-31.89,9.7L7,25.66v-9.1l9.46-6.08L19,12.76l6.75-4,2.86,2L34.24,7m0-1a1,1,0,0,0-.56.16l-5,3.34L26.33,8a1,1,0,0,0-1.08,0l-6.12,3.63-2-1.76a1,1,0,0,0-.66-.26,1.06,1.06,0,0,0-.55.15L6.45,15.78a1,1,0,0,0-.45.84v9.09a1.06,1.06,0,0,0,.17.57l9.09,13.14a1,1,0,0,0,.82.42.76.76,0,0,0,.3,0L48.29,30A1,1,0,0,0,49,29V15.59a1,1,0,0,0-.46-.84L34.79,6.22a1,1,0,0,0-.52-.15Z"/></g></g><g id="Calendar"><polygon class="De-emphasized-WHITE-for-Vector-Highlights" points="54.5 31.5 54.5 29.5 52.5 29.5 52.5 31.5 46.5 31.5 46.5 29.5 44.5 29.5 44.5 31.5 38.5 31.5 38.5 29.5 36.5 29.5 36.5 31.5 33.5 31.5 33.5 35.5 33.5 36 33.5 51.5 57.5 51.5 57.5 36 57.5 35.5 57.5 31.5 54.5 31.5"/><rect class="White-RIGHT-&amp;-FRONT" x="33.5" y="35.5" width="24" height="16"/><rect class="cls-20" x="33.5" y="31.5" width="24" height="4"/><path class="De-emphasized-GREY-fill-2" d="M35,37V50H56V37Zm4,12H36V46h3Zm0-4H36V42h3Zm0-4H36V38h3Zm4,8H40V46h3Zm0-4H40V42h3Zm0-4H40V38h3Zm4,8H44V46h3Zm0-4H44V42h3Zm0-4H44V38h3Zm4,8H48V46h3Zm0-4H48V42h3Zm0-4H48V38h3Zm4,8H52V46h3Zm0-4H52V42h3Zm0-4H52V38h3Z"/><rect class="White-RIGHT-&amp;-FRONT" x="36.5" y="29.5" width="2" height="4"/><rect class="White-RIGHT-&amp;-FRONT" x="44.5" y="29.5" width="2" height="4"/><rect class="White-RIGHT-&amp;-FRONT" x="52.5" y="29.5" width="2" height="4"/><polyline class="White-OUTLINE-2" points="38.5 32 38.5 29.5 36.5 29.5 36.5 32"/><polyline class="White-OUTLINE-2" points="46.5 32 46.5 29.5 44.5 29.5 44.5 32"/><polyline class="White-OUTLINE-2" points="54.5 32 54.5 29.5 52.5 29.5 52.5 32"/><polyline class="White-OUTLINE-2" points="33.5 36 33.5 51.5 57.5 51.5 57.5 36"/></g><g id="Charts"><polygon class="De-emphasized-WHITE-for-Vector-Highlights" points="36 45 36 49 31 49 31 43 28 43 28 46 24 46 24 48 21 48 21 58 39 58 39 56 39 45 36 45"/><polygon class="DARK-GREY-Fill-3" points="39 56 39 58 21 58 21 48 23 48 23 56 39 56"/><rect class="cls-21" x="28" y="43" width="3" height="13"/><rect class="cls-22" x="20.5" y="49.5" width="10" height="3" transform="translate(-25.5 76.5) rotate(-90)"/><rect class="cls-23" x="30" y="51" width="7" height="3" transform="translate(-19 86) rotate(-90)"/><rect class="cls-22" x="32" y="49" width="11" height="3" transform="translate(-13 88) rotate(-90)"/><g class="cls-24"><path class="cls-25" d="M18,38c-.17,0-.33,0-.5,0A8.5,8.5,0,1,0,26,46.5c0-.17,0-.33,0-.5H18Z"/><path class="cls-25" d="M17,39v8h8a7.5,7.5,0,1,1-8-8m.5-1A8.5,8.5,0,1,0,26,46.5c0-.17,0-.33,0-.5H18V38c-.17,0-.33,0-.5,0Z"/><path class="cls-25" d="M19,37v8h8A8.48,8.48,0,0,0,19,37Z"/><path class="cls-26" d="M18,38c-.17,0-.33,0-.5,0A8.5,8.5,0,1,0,26,46.5c0-.17,0-.33,0-.5H18Z"/><path class="cls-22" d="M19,37v8h8A8.48,8.48,0,0,0,19,37Z"/><path class="cls-27" d="M18,38c-.17,0-.33,0-.5,0A8.5,8.5,0,1,0,26,46.5c0-.17,0-.33,0-.5H18Z"/><path class="cls-27" d="M17,39v8h8a7.5,7.5,0,1,1-8-8m.5-1A8.5,8.5,0,1,0,26,46.5c0-.17,0-.33,0-.5H18V38c-.17,0-.33,0-.5,0Z"/><path class="cls-27" d="M19,37v8h8A8.48,8.48,0,0,0,19,37Z"/></g><path class="cls-26" d="M18,38c-.17,0-.33,0-.5,0A8.5,8.5,0,1,0,26,46.5c0-.17,0-.33,0-.5H18Z"/><path class="cls-22" d="M19,37v8h8A8.48,8.48,0,0,0,19,37Z"/></g></svg>