<svg xmlns="http://www.w3.org/2000/svg" xmlns:xlink="http://www.w3.org/1999/xlink" width="64" height="64" viewBox="0 0 64 64">
  <defs>
    <linearGradient id="a" x1="37.3438" y1="20.282" x2="61.5145" y2="57.815" gradientUnits="userSpaceOnUse">
      <stop offset="0" stop-color="#fff"/>
      <stop offset="1" stop-color="#bfbfbf"/>
    </linearGradient>
    <linearGradient id="b" x1="42.8989" y1="216.19" x2="52.1627" y2="225.0084" gradientTransform="matrix(1, 0.404, 0, 1, 0, -208.8942)" gradientUnits="userSpaceOnUse">
      <stop offset="0" stop-color="#f0f0f0"/>
      <stop offset="1" stop-color="#b3b3b3"/>
    </linearGradient>
    <linearGradient id="c" x1="37.3511" y1="225.7169" x2="46.6157" y2="234.536" xlink:href="#b"/>
    <linearGradient id="d" x1="43.1084" y1="223.582" x2="52.3722" y2="232.4003" xlink:href="#b"/>
    <linearGradient id="e" x1="14.9275" y1="25.1893" x2="31.8455" y2="38.8321" gradientUnits="userSpaceOnUse">
      <stop offset="0" stop-color="#fff"/>
      <stop offset="1" stop-color="#bbbdbf"/>
    </linearGradient>
    <linearGradient id="f" x1="16.5358" y1="20.8401" x2="27.5658" y2="41.0271" gradientUnits="userSpaceOnUse">
      <stop offset="0" stop-color="#92d5ee"/>
      <stop offset="1" stop-color="#6f9cae"/>
    </linearGradient>
    <linearGradient id="g" x1="21.0119" y1="25.655" x2="30.7042" y2="33.471" gradientUnits="userSpaceOnUse">
      <stop offset="0" stop-color="#92d5ee"/>
      <stop offset="0.1464" stop-color="#8ccfe8"/>
      <stop offset="0.3423" stop-color="#7cbed7"/>
      <stop offset="0.5662" stop-color="#60a3bb"/>
      <stop offset="0.809" stop-color="#3b7c95"/>
      <stop offset="1" stop-color="#185971"/>
    </linearGradient>
  </defs>
  <title>I_DELMSD_AP</title>
  <g>
    <g>
      <polygon points="38.5 41.5 54.5 48.597 54.5 27.5 38.5 21.5 38.5 41.5" stroke="#2d2d2d" stroke-linecap="round" stroke-linejoin="round" fill="url(#a)"/>
      <g opacity="0.9">
        <g>
          <polygon points="44.5 30.163 44.5 27.241 48.5 28.856 48.5 31.778 44.5 30.163" fill="url(#b)"/>
          <path d="M45,27.9824l3,1.2117v1.843l-3-1.2117v-1.843M44,26.5v4l5,2.02v-4L44,26.5Z" fill="#343434"/>
        </g>
        <g>
          <polygon points="40.5 39.547 40.5 36.625 44.5 38.241 44.5 41.163 40.5 39.547" fill="url(#c)"/>
          <path d="M41,37.3665l3,1.2123v1.8428l-3-1.2123V37.3665m-1-1.4827v4l5,2.02v-4l-5-2.02Z" fill="#343434"/>
        </g>
        <g>
          <polygon points="48.5 42.779 48.5 39.857 52.5 41.473 52.5 44.395 48.5 42.779" fill="url(#d)"/>
          <path d="M49,40.5986,52,41.81v1.843l-3-1.2117v-1.843m-1-1.4824v4l5,2.02v-4l-5-2.02Z" fill="#343434"/>
        </g>
        <polygon points="50 37.924 47 36.712 47 34.712 49 35.52 49 34.52 48 34.116 48 33.116 47 32.712 47 30.712 46 30.308 46 32.308 45 31.904 45 32.904 44 32.5 44 33.5 46 34.308 46 36.308 43 35.096 42 34.691 42 36.691 43 37.096 43 36.096 50 38.924 50 39.924 51 40.328 51 38.328 50 37.924" fill="#343434" opacity="0.7"/>
      </g>
    </g>
    <g>
      <g>
        <circle cx="22.0508" cy="30.9336" r="11.5" fill="url(#e)"/>
        <path d="M22.0508,21.4336a9.5,9.5,0,1,1-9.5,9.5,9.5108,9.5108,0,0,1,9.5-9.5m0-2a11.5,11.5,0,1,0,11.5,11.5,11.5009,11.5009,0,0,0-11.5-11.5Z" fill="url(#f)"/>
        <path d="M22.0508,19.4336a11.5,11.5,0,1,1-11.5,11.5,11.5009,11.5009,0,0,1,11.5-11.5m0-1a12.5,12.5,0,1,0,12.5,12.5,12.5142,12.5142,0,0,0-12.5-12.5Z" fill="#00415f"/>
      </g>
      <path d="M21.5508,22.8428a8.0943,8.0943,0,0,1,5.9433,13.5908l-5.9433-5.4951V22.8428" fill="url(#g)"/>
      <rect x="21.5508" y="23.4336" width="1" height="8" fill="#00415f"/>
      <rect x="23.7325" y="29.8227" width="0.9999" height="6.585" transform="translate(-16.3185 26.8341) rotate(-45)" fill="#00415f"/>
      <rect x="19.5508" y="15.4336" width="5" height="1" fill="#00415f"/>
      <rect x="20.5508" y="16.4336" width="3" height="2" fill="#00415f"/>
      <rect x="31.879" y="18.0549" width="0.9998" height="4.9995" transform="translate(-5.0508 28.9158) rotate(-45.0002)" fill="#00415f"/>
      <rect x="30.3185" y="20.1154" width="1.9997" height="2.9997" transform="translate(-6.1113 28.4766) rotate(-45.0003)" fill="#00415f"/>
    </g>
  </g>
</svg>
