<svg xmlns="http://www.w3.org/2000/svg" xmlns:xlink="http://www.w3.org/1999/xlink" width="64" height="64" viewBox="0 0 64 64">
  <defs>
    <linearGradient id="a" x1="26.315" y1="24.3456" x2="47.1864" y2="43.4372" gradientUnits="userSpaceOnUse">
      <stop offset="0" stop-color="#f0f0f0"/>
      <stop offset="1" stop-color="#b3b3b3"/>
    </linearGradient>
    <linearGradient id="b" x1="36.8849" y1="38.38" x2="71.9765" y2="76.854" xlink:href="#a"/>
    <linearGradient id="c" x1="8.5064" y1="8.0284" x2="28.6643" y2="44.9213" xlink:href="#a"/>
    <linearGradient id="d" x1="27.9767" y1="24.2763" x2="53.8897" y2="44.0921" gradientUnits="userSpaceOnUse">
      <stop offset="0" stop-color="#92d5ee"/>
      <stop offset="0.4825" stop-color="#599bb4"/>
      <stop offset="1" stop-color="#185971"/>
    </linearGradient>
    <linearGradient id="e" x1="33.5568" y1="26.6617" x2="50.6796" y2="36.6092" xlink:href="#d"/>
    <linearGradient id="f" x1="9.8059" y1="4.1665" x2="43.1282" y2="52.1826" xlink:href="#d"/>
    <linearGradient id="g" x1="33.5568" y1="23.0787" x2="50.6796" y2="33.0262" xlink:href="#d"/>
    <linearGradient id="h" x1="32.7278" y1="21.4462" x2="37.5905" y2="30.3458" gradientUnits="userSpaceOnUse">
      <stop offset="0" stop-color="#00415f" stop-opacity="0.2"/>
      <stop offset="1" stop-color="#00415f"/>
    </linearGradient>
    <linearGradient id="i" x1="24.4895" y1="20.8632" x2="29.3522" y2="29.7628" xlink:href="#h"/>
    <linearGradient id="j" x1="41.0481" y1="16.8769" x2="45.9108" y2="25.7765" xlink:href="#h"/>
    <linearGradient id="k" x1="27.9767" y1="13.9013" x2="53.8897" y2="33.7171" xlink:href="#d"/>
    <linearGradient id="l" x1="33.5568" y1="16.2867" x2="50.6796" y2="26.2342" xlink:href="#d"/>
    <linearGradient id="m" x1="9.8059" y1="-6.2085" x2="43.1282" y2="41.8076" xlink:href="#d"/>
  </defs>
  <title>I_DELMBM_AP</title>
  <g>
    <polygon points="19.502 27.541 28.32 21.96 35.861 23.65 26.981 29.344 19.502 27.541" fill="url(#a)"/>
    <g>
      <path d="M35.4922,48.3574a.4993.4993,0,0,1-.5-.5v-8a.4988.4988,0,0,1,.2158-.4111l7.834-5.42a.5016.5016,0,0,1,.2842-.0889.4939.4939,0,0,1,.2324.0576.5.5,0,0,1,.2676.4424v7a.5019.5019,0,0,1-.1826.3867l-7.834,6.42A.5048.5048,0,0,1,35.4922,48.3574Z" fill="url(#b)"/>
      <path d="M43.3261,34.4375v7l-7.834,6.42v-8l7.834-5.42m0-1a1,1,0,0,0-.569.1776l-7.834,5.42a1,1,0,0,0-.4311.8224v8a1,1,0,0,0,1.6339.7735l7.834-6.42a1,1,0,0,0,.3661-.7735v-7a1,1,0,0,0-1-1Z" fill="#6d6d6d"/>
    </g>
    <polygon points="27.492 29.438 27.492 37.438 34.492 39.98 34.492 47.857 19.326 43.438 19.502 27.541 27.492 29.438" fill="url(#c)"/>
    <g>
      <polygon points="35.118 31.616 43.54 25.645 43.54 34.404 35.114 40.268 35.118 31.616" stroke="#00415f" stroke-linecap="round" stroke-linejoin="round" fill="url(#d)"/>
      <polygon points="26.981 29.631 35.861 23.938 43.492 25.645 35.118 31.616 26.981 29.631" stroke="#00415f" stroke-linecap="round" stroke-linejoin="round" fill="url(#e)"/>
      <polygon points="35.118 31.616 35.114 40.268 27.124 38.146 26.981 29.631 35.118 31.616" stroke="#00415f" stroke-linecap="round" stroke-linejoin="round" fill="url(#f)"/>
    </g>
    <path d="M28.4814,22.0664l8.0107,1.58,6.834,1.791v16l-8.0556,6.78-15.9444-4.78V27.4385l9.1553-5.3721m-.1787-1.0545-.3273.192L18.82,26.576l-.494.29V44.1817l.7129.2137,15.9443,4.78.5176.1552.4135-.348,8.0557-6.78.356-.3V24.6658L43.58,24.47l-6.834-1.791-.03-.0078-.03-.006-8.0107-1.58-.3723-.0734Z" fill="#343434"/>
    <line x1="19.6611" y1="27.4385" x2="26.9814" y2="29.3438" fill="none" stroke="#6d6d6d" stroke-linecap="round" stroke-linejoin="round"/>
    <g opacity="0.5">
      <polygon points="26.981 26.048 35.861 20.354 43.492 22.061 35.118 28.033 26.981 26.048" stroke="#00415f" stroke-linecap="round" stroke-linejoin="round" fill="url(#g)"/>
    </g>
    <line x1="35.1591" y1="31.1045" x2="35.1591" y2="20.6875" fill="none" stroke-linecap="round" stroke-linejoin="round" stroke="url(#h)"/>
    <line x1="26.9208" y1="30.5215" x2="26.9208" y2="20.1045" fill="none" stroke-linecap="round" stroke-linejoin="round" stroke="url(#i)"/>
    <line x1="43.4794" y1="26.5352" x2="43.4794" y2="16.1182" fill="none" stroke-linecap="round" stroke-linejoin="round" stroke="url(#j)"/>
    <g opacity="0.3">
      <polygon points="35.118 21.241 43.54 15.27 43.54 24.029 35.114 29.893 35.118 21.241" stroke="#00415f" stroke-linecap="round" stroke-linejoin="round" fill="url(#k)"/>
      <polygon points="26.981 19.256 35.861 13.563 43.492 15.27 35.118 21.241 26.981 19.256" stroke="#00415f" stroke-linecap="round" stroke-linejoin="round" fill="url(#l)"/>
      <polygon points="35.118 21.241 35.114 29.893 27.124 27.771 26.981 19.256 35.118 21.241" stroke="#00415f" stroke-linecap="round" stroke-linejoin="round" fill="url(#m)"/>
    </g>
  </g>
</svg>
