<svg id="Layer_11_copy_2" data-name="Layer 11 copy 2" xmlns="http://www.w3.org/2000/svg" xmlns:xlink="http://www.w3.org/1999/xlink" viewBox="0 0 64 64"><defs><style>.cls-1,.cls-10,.cls-9{fill:none;}.cls-2{fill:#797979;}.cls-10,.cls-2,.cls-9{stroke:#797979;}.cls-10,.cls-2,.cls-3,.cls-9{stroke-miterlimit:10;}.cls-3,.cls-7{fill:#fff;}.cls-3{stroke:#fff;stroke-width:0.8px;}.cls-4{fill:#5a9ab8;}.cls-5{clip-path:url(#clip-path);}.cls-6{fill:#2d6d8b;}.cls-8{fill:#00415f;}.cls-9{stroke-width:0.99px;}.cls-11{fill:url(#linear-gradient);}.cls-12{fill:url(#linear-gradient-2);}.cls-13{fill:url(#linear-gradient-3);}.cls-14{opacity:0.9;}.cls-15{fill:#343434;opacity:0.7;}.cls-16{fill:url(#linear-gradient-4);}.cls-17{fill:url(#linear-gradient-5);}.cls-18{fill:url(#linear-gradient-6);}.cls-19{fill:url(#linear-gradient-7);}.cls-20{fill:#285977;stroke:#285977;stroke-linecap:round;stroke-linejoin:round;stroke-width:0.4px;}.cls-21{fill:url(#linear-gradient-8);}.cls-22{fill:url(#linear-gradient-9);}</style><clipPath id="clip-path"><path class="cls-1" d="M20.77,47.85C24.25,47.54,27,44.28,27,40.5s-2.71-6.85-6.19-6.82S14.45,37,14.45,41.07,17.29,48.16,20.77,47.85Z"/></clipPath><linearGradient id="linear-gradient" x1="40.24" y1="23.76" x2="45.8" y2="28.24" gradientUnits="userSpaceOnUse"><stop offset="0" stop-color="#fff"/><stop offset="1" stop-color="#bbbdbf"/></linearGradient><linearGradient id="linear-gradient-2" x1="40.64" y1="22.09" x2="44.52" y2="29.2" gradientUnits="userSpaceOnUse"><stop offset="0" stop-color="#92d5ee"/><stop offset="1" stop-color="#6f9cae"/></linearGradient><linearGradient id="linear-gradient-3" x1="41.84" y1="23.91" x2="45.09" y2="26.53" gradientUnits="userSpaceOnUse"><stop offset="0" stop-color="#92d5ee"/><stop offset="0.15" stop-color="#8ccfe8"/><stop offset="0.34" stop-color="#7cbed7"/><stop offset="0.57" stop-color="#60a3bb"/><stop offset="0.81" stop-color="#3b7c95"/><stop offset="1" stop-color="#185971"/></linearGradient><linearGradient id="linear-gradient-4" x1="39.94" y1="244.19" x2="48.32" y2="252.17" gradientTransform="matrix(-0.02, 0.97, -1.04, 0.01, 299.58, -7.81)" gradientUnits="userSpaceOnUse"><stop offset="0" stop-color="#f0f0f0"/><stop offset="1" stop-color="#b3b3b3"/></linearGradient><linearGradient id="linear-gradient-5" x1="36.15" y1="251.27" x2="43.86" y2="258.61" gradientTransform="matrix(0.97, 0.02, 0, 1.04, 0.06, -221.65)" xlink:href="#linear-gradient-4"/><linearGradient id="linear-gradient-6" x1="40.68" y1="249.44" x2="48.18" y2="256.58" gradientTransform="matrix(0.97, 0.02, 0, 1.04, 0.06, -221.65)" xlink:href="#linear-gradient-4"/><linearGradient id="linear-gradient-7" x1="27.78" y1="18.66" x2="21.3" y2="24.22" gradientUnits="userSpaceOnUse"><stop offset="0" stop-color="#fcfcfc"/><stop offset="1" stop-color="#b3b3b3"/></linearGradient><linearGradient id="linear-gradient-8" x1="24.07" y1="19.29" x2="18.38" y2="24.58" xlink:href="#linear-gradient-7"/><linearGradient id="linear-gradient-9" x1="19.79" y1="20.63" x2="12.29" y2="26.33" xlink:href="#linear-gradient-7"/></defs><title>14626_A33AAe__R21XArtboard 1</title><g id="Layer_7_copy_6" data-name="Layer 7 copy 6"><polygon class="cls-2" points="55.5 47.65 8.5 53 8.5 11.75 55.5 17.1 55.5 47.65"/><polygon class="cls-3" points="55.98 48.6 7.93 53.32 7.92 11.32 55.88 17.56 55.98 48.6"/><g id="Layer_17_copy_14" data-name="Layer 17 copy 14"><polygon id="R_04" data-name="R  04" class="cls-4" points="33 16.84 54 18.85 54 32.01 33 31.95 33 16.84"/><polygon id="R_03" data-name="R  03" class="cls-4" points="33 32.79 54 32.74 54 45.89 33 47.91 33 32.79"/><polygon id="R_02" data-name="R  02" class="cls-4" points="11 32.85 32 32.79 32 47.99 11 50.08 11 32.85"/><polygon class="cls-4" points="11 14.66 32 16.76 32 31.95 11 31.89 11 14.66"/></g><g id="RRR_ok-3" data-name="RRR   *** ok"><g class="cls-5"><path class="cls-6" d="M20.77,47.85C24.25,47.54,27,44.28,27,40.5s-2.71-6.85-6.19-6.82S14.45,37,14.45,41.07,17.29,48.16,20.77,47.85Z"/><path class="cls-7" d="M25.86,40.32l1.14-.2-.25,1.94-1.31,3.06-1.21,1.25.46-1.83.12-1.25-.67-.87-.66-.79.12-1.2,1.67-.63Zm-9.33,2.2.55,1.1L17.7,45l-.23,2,1,.46.32-.49L20,45.43l.82-2-.82-.7h-.79l-.63-.87-1-.5Zm1.46-8a5.77,5.77,0,0,0-2.84,3.43,10.57,10.57,0,0,0-.44,2l.88.7.59,1.11L16.13,41l.06-.33L16,40.56l-.73-1.39L15.74,38l.52,0,.16,1,.25-.68.83-.58.62.34.66.16,1.25.07.34-.77-1.2.23-1.1-.16L17.94,37l.27-.18.29.48.81.07,1.13-.58,1,.07.58-.35-.64-.87h-.82l-.62-1,.07.58-1.23.83-.24-.85.18-.57S19.13,34,18,34.51Zm5.16,3.37.1.75.6.2.68-.21.07-.33h.77l.54.73-.14.39.51-.38-.37-.49-.1-.57.64,0,.57.64L27,39l.33.16a8.41,8.41,0,0,0-1.21-2.61,11.07,11.07,0,0,0-1.78-1.71l-.7.12.09.67-.09.15.33.36.13-.15v-.7l.31.21.27.45-.2.57-.41.17-.3-.09,0,.55,0,.55.3,0,0,.24Z"/></g></g><g id="RRR_ok-4" data-name="RRR   *** ok"><g class="cls-5"><path class="cls-8" d="M20.77,47.85C24.25,47.54,27,44.28,27,40.5s-2.71-6.85-6.19-6.82S14.45,37,14.45,41.07,17.29,48.16,20.77,47.85Z"/><path class="cls-7" d="M25.86,40.32l1.14-.2-.25,1.94-1.31,3.06-1.21,1.25.46-1.83.12-1.25-.67-.87-.66-.79.12-1.2,1.67-.63Zm-9.33,2.2.55,1.1L17.7,45l-.23,2,1,.46.32-.49L20,45.43l.82-2-.82-.7h-.79l-.63-.87-1-.5Zm1.46-8a5.77,5.77,0,0,0-2.84,3.43,10.57,10.57,0,0,0-.44,2l.88.7.59,1.11L16.13,41l.06-.33L16,40.56l-.73-1.39L15.74,38l.52,0,.16,1,.25-.68.83-.58.62.34.66.16,1.25.07.34-.77-1.2.23-1.1-.16L17.94,37l.27-.18.29.48.81.07,1.13-.58,1,.07.58-.35-.64-.87h-.82l-.62-1,.07.58-1.23.83-.24-.85.18-.57S19.13,34,18,34.51Zm5.16,3.37.1.75.6.2.68-.21.07-.33h.77l.54.73-.14.39.51-.38-.37-.49-.1-.57.64,0,.57.64L27,39l.33.16a8.41,8.41,0,0,0-1.21-2.61,11.07,11.07,0,0,0-1.78-1.71l-.7.12.09.67-.09.15.33.36.13-.15v-.7l.31.21.27.45-.2.57-.41.17-.3-.09,0,.55,0,.55.3,0,0,.24Z"/></g></g><polygon class="cls-9" points="56.5 48.5 7.5 53.5 7.5 11.5 56.5 16.5 56.5 48.5"/><line class="cls-10" x1="7.08" y1="54.44" x2="56" y2="48.47"/></g><path class="cls-11" d="M46.05,25.65c0-2.32-1.55-4.21-3.47-4.21s-3.47,1.89-3.47,4.21,1.55,4.2,3.47,4.2S46.05,28,46.05,25.65Z"/><path class="cls-12" d="M42.58,22.17c1.51,0,2.75,1.56,2.75,3.48s-1.24,3.48-2.75,3.48-2.75-1.56-2.75-3.48,1.24-3.48,2.75-3.48m0-.73c-1.92,0-3.47,1.89-3.47,4.21s1.55,4.2,3.47,4.2,3.47-1.88,3.47-4.2-1.55-4.21-3.47-4.21Z"/><path class="cls-8" d="M42.58,21.44c1.92,0,3.47,1.89,3.47,4.21s-1.55,4.2-3.47,4.2-3.47-1.88-3.47-4.2,1.55-4.21,3.47-4.21m0-.72c-2.32,0-4.2,2.21-4.2,4.93s1.88,4.93,4.2,4.93,4.2-2.21,4.2-4.93-1.88-4.93-4.2-4.93Z"/><path class="cls-13" d="M43,23a3,3,0,0,1,1.68,2.43,3.83,3.83,0,0,1-.7,2.15L42.65,26,42,23"/><rect class="cls-8" x="42" y="23" width="1" height="3"/><polygon class="cls-8" points="42.64 25.47 42.43 25.72 43.84 27.43 44.05 27.17 42.64 25.47"/><rect class="cls-8" x="41" y="19" width="3" height="1"/><rect class="cls-8" x="42.38" y="19.8" width="0.66" height="0.8"/><polygon class="cls-8" points="46.79 22.2 45.06 20.11 45.27 19.85 47 21.94 46.79 22.2"/><polygon class="cls-8" points="45.66 22.2 45.02 21.42 45.45 20.91 46.09 21.68 45.66 22.2"/><g class="cls-14"><polygon class="cls-15" points="46 40 43 40 43 39 45 39 45 38 43 38 43 37 42 37 42 38 41 38 41 39 42 39 42 40 39 40 39 42 40 42 40 41 43 41 46 41 46 42 47 42 47 40 46 40"/><rect class="cls-16" x="41.47" y="33.47" width="2.2" height="4.06" transform="translate(6.94 77.96) rotate(-89.82)"/><path class="cls-8" d="M44.2,34.8v1.4H40.93V34.8H44.2M45,34H40.14v3H45V34Z"/><polygon class="cls-17" points="38.4 42.4 41.6 42.4 41.6 45.02 38.4 45.33 38.4 42.4"/><path class="cls-8" d="M41.2,42.8v1.86l-2.4.23V42.8h2.4M42,42H38v3.77l4-.39V42Z"/><polygon class="cls-18" points="44.4 42.42 47.6 42.42 47.6 44.87 44.4 45.12 44.4 42.42"/><path class="cls-8" d="M47.2,42.82V44.5l-2.4.19V42.82h2.4M48,42H44v3.54l4-.32V42Z"/></g><g id="Layer_25_copy_2" data-name="Layer 25 copy 2"><path class="cls-19" d="M26.54,23.45a.19.19,0,0,1-.15-.07L22.5,18.93a.2.2,0,0,1-.05-.16.19.19,0,0,1,.09-.14l2.27-1.47a.2.2,0,0,1,.11,0,.19.19,0,0,1,.1,0l5.52,3.32a.21.21,0,0,1,.1.17.2.2,0,0,1-.09.17l-3.9,2.6A.2.2,0,0,1,26.54,23.45Z"/><path class="cls-8" d="M24.92,17.33l5.52,3.33-3.9,2.59-3.89-4.46,2.27-1.46m0-.4a.43.43,0,0,0-.22.06l-2.27,1.47a.39.39,0,0,0-.18.28.42.42,0,0,0,.1.32l3.89,4.46a.39.39,0,0,0,.3.13.34.34,0,0,0,.22-.07L30.66,21a.43.43,0,0,0,.18-.34.41.41,0,0,0-.19-.34L25.12,17a.36.36,0,0,0-.2-.06Z"/><polygon class="cls-20" points="26.52 21.57 26.51 23.46 25.38 22.38 26.52 21.57"/><path class="cls-21" d="M22.37,24.61a.21.21,0,0,1-.16-.08l-3.55-4.8a.18.18,0,0,1,0-.16.24.24,0,0,1,.09-.13l2.7-1.61a.19.19,0,0,1,.1,0,.28.28,0,0,1,.12,0l5,3.56a.2.2,0,0,1,0,.32l-4.18,2.85A.15.15,0,0,1,22.37,24.61Z"/><path class="cls-8" d="M21.51,18l5,3.56-4.17,2.85-3.55-4.8L21.51,18m0-.4a.36.36,0,0,0-.2.06l-2.7,1.61a.42.42,0,0,0-.19.26.41.41,0,0,0,.08.32l3.55,4.8a.42.42,0,0,0,.32.16.48.48,0,0,0,.23-.07l4.17-2.85a.39.39,0,0,0,.17-.33.4.4,0,0,0-.17-.33l-5-3.55a.38.38,0,0,0-.23-.08Z"/><polygon class="cls-20" points="22.28 22.69 22.28 24.59 21.21 23.39 22.28 22.69"/><path class="cls-22" d="M17.74,25.85a.21.21,0,0,1-.15-.07l-3.74-4.57a.2.2,0,0,1,0-.16.21.21,0,0,1,.1-.14l3.8-2.37a.19.19,0,0,1,.1,0,.24.24,0,0,1,.14,0l4.47,4a.2.2,0,0,1,.07.16.19.19,0,0,1-.09.15l-4.54,3A.2.2,0,0,1,17.74,25.85Z"/><path class="cls-8" d="M17.8,18.71l4.48,4-4.54,3L14,21.08l3.8-2.37m0-.4a.42.42,0,0,0-.21.06l-3.8,2.37a.39.39,0,0,0-.18.27.4.4,0,0,0,.08.32l3.74,4.57a.4.4,0,0,0,.31.15A.36.36,0,0,0,18,26l4.54-3a.42.42,0,0,0,.18-.3.4.4,0,0,0-.13-.33l-4.48-4a.39.39,0,0,0-.27-.1Z"/><path class="cls-8" d="M24.92,17.31l5.48,3.47V26L30,26,17.67,30,14,24.78v-3.6l3.76-2.49,1,.9L21.51,18l1.17.83,0,0,2.27-1.47m0-.4a.43.43,0,0,0-.22.06L22.65,18.3l-.91-.64a.38.38,0,0,0-.23-.08.36.36,0,0,0-.2.06L18.87,19.1l-.8-.71a.39.39,0,0,0-.27-.1.38.38,0,0,0-.22.07l-3.76,2.49a.4.4,0,0,0-.18.33v3.6a.39.39,0,0,0,.07.23l3.63,5.2a.4.4,0,0,0,.33.17l.12,0,12.28-4,.35,0a.4.4,0,0,0,.38-.4V20.78a.4.4,0,0,0-.19-.34L25.13,17a.39.39,0,0,0-.21-.06Z"/></g></svg>