<svg id="Layer_4" data-name="Layer 4" xmlns="http://www.w3.org/2000/svg" xmlns:xlink="http://www.w3.org/1999/xlink" viewBox="0 0 64 64"><defs><linearGradient id="linear-gradient" x1="13.69" y1="14.44" x2="25.83" y2="35.46" gradientUnits="userSpaceOnUse"><stop offset="0" stop-color="#fff"/><stop offset="1" stop-color="#d2d3d3"/></linearGradient><linearGradient id="linear-gradient-2" x1="21.69" y1="14.44" x2="33.83" y2="35.46" xlink:href="#linear-gradient"/><linearGradient id="linear-gradient-3" x1="29.69" y1="14.44" x2="41.83" y2="35.46" xlink:href="#linear-gradient"/><linearGradient id="linear-gradient-4" x1="37.69" y1="14.44" x2="49.83" y2="35.46" xlink:href="#linear-gradient"/><linearGradient id="linear-gradient-5" x1="45.69" y1="14.44" x2="57.83" y2="35.46" xlink:href="#linear-gradient"/><linearGradient id="linear-gradient-6" x1="43.35" y1="62.83" x2="26.12" y2="32.98" gradientTransform="translate(-12 59) rotate(-90)" gradientUnits="userSpaceOnUse"><stop offset="0" stop-color="#386f8d"/><stop offset="1" stop-color="#8dd7f4"/></linearGradient><linearGradient id="linear-gradient-7" x1="24.27" y1="26.82" x2="33.45" y2="42.72" xlink:href="#linear-gradient"/><linearGradient id="linear-gradient-8" x1="17.95" y1="29.64" x2="27.5" y2="46.19" xlink:href="#linear-gradient"/><linearGradient id="linear-gradient-9" x1="11.94" y1="32.14" x2="21.47" y2="48.64" xlink:href="#linear-gradient"/><linearGradient id="linear-gradient-10" x1="7.99" y1="36.63" x2="17.45" y2="53.01" gradientUnits="userSpaceOnUse"><stop offset="0" stop-color="#f5f6f6"/><stop offset="0.99" stop-color="#bfbebe"/></linearGradient><linearGradient id="linear-gradient-11" x1="25.26" y1="39.28" x2="29.98" y2="47.44" xlink:href="#linear-gradient"/><linearGradient id="linear-gradient-12" x1="39.5" y1="43.5" x2="57.5" y2="43.5" xlink:href="#linear-gradient"/><linearGradient id="linear-gradient-13" x1="40" y1="46.5" x2="61.5" y2="46.5" xlink:href="#linear-gradient"/></defs><title>DELMSB_AP_AppIcon</title><rect x="15.5" y="9.5" width="8" height="30" fill="url(#linear-gradient)"/><path d="M23,10V39H16V10h7m1-1H15V40h9V9Z" fill="#797979"/><rect x="23.5" y="9.5" width="8" height="30" fill="url(#linear-gradient-2)"/><path d="M31,10V39H24V10h7m1-1H23V40h9V9Z" fill="#797979"/><rect x="31.5" y="9.5" width="8" height="30" fill="url(#linear-gradient-3)"/><path d="M39,10V39H32V10h7m1-1H31V40h9V9Z" fill="#797979"/><rect x="39.5" y="9.5" width="8" height="30" fill="url(#linear-gradient-4)"/><path d="M47,10V39H40V10h7m1-1H39V40h9V9Z" fill="#797979"/><rect x="47.5" y="9.5" width="8" height="30" fill="url(#linear-gradient-5)"/><path d="M55,10V39H48V10h7m1-1H47V40h9V9Z" fill="#797979"/><rect x="15.5" y="19.5" width="40" height="10" fill="url(#linear-gradient-6)"/><path d="M55,20v9H16V20H55m1-1H15V30H56V19Z" fill="#053755"/><rect x="23" y="19" width="1" height="11" fill="#053755"/><rect x="31" y="19" width="1" height="11" fill="#053755"/><rect x="39" y="19" width="1" height="11" fill="#053755"/><rect x="47" y="19" width="1" height="11" fill="#053755"/><path d="M55,10V39H16V10H55m1-1H15V40H56V9Z" fill="#333332"/><polygon points="18.5 29.43 24.89 23.52 37.5 33.19 36.5 43 26.97 43 18.5 33.37 18.5 29.43" stroke="#797979" stroke-linecap="round" stroke-linejoin="round" fill="url(#linear-gradient-7)"/><polygon points="11.5 31.94 18.89 26.02 31.5 35.7 31.5 46 21.12 46 11.5 35.87 11.5 31.94" stroke="#797979" stroke-linecap="round" stroke-linejoin="round" fill="url(#linear-gradient-8)"/><polygon points="6.5 34.45 12.89 28.53 24.5 38.21 24.5 49 15.27 49 6.5 38.38 6.5 34.45" stroke="#797979" stroke-linecap="round" stroke-linejoin="round" fill="url(#linear-gradient-9)"/><polygon points="6.5 43.22 6.5 34.45 18.5 45.66 18.5 54.5 6.5 43.22" stroke="#797979" stroke-linecap="round" stroke-linejoin="round" fill="url(#linear-gradient-10)"/><polygon points="18.5 45.66 24.5 38.21 24.5 43.64 31.5 35.84 31.5 41.13 37.5 33.54 37.5 44.15 18.5 54.5 18.5 45.66" stroke="#797979" stroke-linecap="round" stroke-linejoin="round" fill="url(#linear-gradient-11)"/><path d="M45.5,37.5v-1a1,1,0,0,0-1-1h-4a1,1,0,0,0-1,1v15H56L57.5,49V38.5a1,1,0,0,0-1-1Z" stroke="#797979" stroke-linecap="round" stroke-linejoin="round" fill="url(#linear-gradient-12)"/><polygon points="40 51.5 47 41.5 61.5 41.5 61.5 43 57 51.5 40 51.5" stroke="#797979" stroke-linecap="round" stroke-linejoin="round" fill="url(#linear-gradient-13)"/><path d="M57.5,41.5v-3a1,1,0,0,0-1-1h-11v-1a1,1,0,0,0-1-1h-4a1,1,0,0,0-1,1v15H57L61.5,43V41.5Z" fill="none" stroke="#323232" stroke-linecap="round" stroke-linejoin="round"/><polygon points="37.5 33.19 24.89 23.52 20.69 27.4 18.89 26.02 14.3 29.7 12.89 28.53 6.5 34.45 6.5 38.38 6.5 43.22 18.5 54.5 37.5 44.15 37.5 33.54 37.46 33.59 37.5 33.19" fill="none" stroke="#323232" stroke-linecap="round" stroke-linejoin="round"/><path d="M21,53.11v-5a1.18,1.18,0,0,1,.53-1l.92-.61a1,1,0,0,1,1.55.83v4.11Z" fill="#231f20"/><path d="M27,49.87V44.5a1.49,1.49,0,0,1,.67-1.25l.78-.52a1,1,0,0,1,1.55.83v4.67Z" fill="#231f20"/><path d="M33,46.6V41.16a1.25,1.25,0,0,1,.55-1l.9-.59a1,1,0,0,1,1.55.83V45Z" fill="#231f20"/></svg>