<svg xmlns="http://www.w3.org/2000/svg" xmlns:xlink="http://www.w3.org/1999/xlink" width="64" height="64" viewBox="0 0 64 64">
  <defs>
    <mask id="a" x="21.024" y="7.866" width="23.351" height="49.134" maskUnits="userSpaceOnUse">
      <path d="M33.642,16.206a3.313,3.313,0,0,0,0-1.841s.324,0,.324-.217a1.345,1.345,0,0,0-.215-.542,6.683,6.683,0,0,0-.109-1.948c-.216-.758-.54-3.68-3.573-3.68-2.6,0-2.815,3.031-2.815,3.788s1.517,2.382,1.517,2.924a3.448,3.448,0,0,1-.651,2.491c-.758.974-3.14,2.706-4.331,4.546a22.575,22.575,0,0,0-2.275,5.956c-.107.649-.053,4.871-.107,6.307-.054,1.421-.215,4.087-.324,4.629a1.387,1.387,0,0,0,.06.977c.151.242.442.306.647.482.069.061.131.154.2.218.109.113.177.1.309.162.2.092.31.252.539.306a.3.3,0,0,0,.254-.043c.187-.087.633.108.5-.246-.116-.307-.405-.449-.48-.794-.064-.3-.051-.629.273-.753.219-.083.394.115.443.308a2.167,2.167,0,0,0,.178.606,3.485,3.485,0,0,0,.331.4s.109-2.057-.216-2.381-.974-.65-.974-1.408.785-4.033.839-5.224a11.992,11.992,0,0,1,.135-2.68c.216-.541,1.408-3.248,1.731-3.248s1.3,4.115,1.3,4.872-.756,3.358-.756,4.329.324,5.09.324,5.848-1.3,11.8-1.3,11.8a1.482,1.482,0,0,0,.216,1.081,22.044,22.044,0,0,0,2.708,2.492c.649.324,2.382.542,2.6-.217s-.755-1.406-.755-1.406-1.626-1.191-1.626-1.625a42.216,42.216,0,0,1,.759-7.038,78.446,78.446,0,0,0,2.706-8.228s.65,1.732,1.624,3.681a20.686,20.686,0,0,1,1.84,4.547,24.843,24.843,0,0,0,.65,3.248,35.107,35.107,0,0,1,1.949,5.631s.217,2.056.974,2.056a5.8,5.8,0,0,1,1.624.108,2.862,2.862,0,0,0,2.6.326c1.3-.541,1.082-.651,1.082-1.083s-.975-.866-1.841-.974-1.3-.433-1.408-.867a54.011,54.011,0,0,1-2.165-8.228c-.756-4.44-.866-4.44-1.082-6.713s-1.949-6.171-2.057-6.82c-.217-1.3-.976-3.9-.866-5.523s.431-3.68.757-3.573a24.182,24.182,0,0,1,1.407,3.248,5.355,5.355,0,0,0,.867,2.383c.541.758,2.8,4.5,3.031,5.088a13.824,13.824,0,0,0,.757,1.841v.65s-.431-.434-.649-.434-.325.325.218.759l.541.431s-.326-.106-.435,0,.649.543.649.543.976,0,1.085-.216a17.859,17.859,0,0,0,.65-1.733c0-.109-1.257-2.4-1.408-2.706-.651-1.328-1.082-3.9-1.733-5.522s-1.3-1.841-1.515-2.382-.542-2.707-.973-4.006-1.085-3.357-1.734-3.789S34.075,16.529,33.642,16.206Z" fill="#fff"/>
    </mask>
    <linearGradient id="b" x1="23.843" y1="40.702" x2="-3.805" y2="49.849" gradientUnits="userSpaceOnUse">
      <stop offset="0" stop-color="#92d5ee"/>
      <stop offset="0.483" stop-color="#599bb4"/>
      <stop offset="1" stop-color="#185971"/>
    </linearGradient>
    <linearGradient id="c" x1="21.801" y1="37.965" x2="19.742" y2="39.164" gradientUnits="userSpaceOnUse">
      <stop offset="0" stop-color="#d4d4d4"/>
      <stop offset="1" stop-color="#9a9c9e"/>
    </linearGradient>
    <linearGradient id="d" x1="23.15" y1="37.107" x2="20.382" y2="39.2" xlink:href="#c"/>
    <linearGradient id="e" x1="24.769" y1="40.042" x2="16.574" y2="43.957" xlink:href="#c"/>
    <linearGradient id="f" x1="26.539" y1="38.635" x2="23.67" y2="40.956" xlink:href="#c"/>
    <linearGradient id="g" x1="38.098" y1="34.567" x2="12.58" y2="49.595" xlink:href="#b"/>
    <linearGradient id="h" x1="36.365" y1="38.189" x2="18.465" y2="56.728" xlink:href="#b"/>
    <linearGradient id="i" x1="28.896" y1="11.901" x2="35.968" y2="11.901" xlink:href="#b"/>
    <radialGradient id="j" cx="31.319" cy="9.424" r="2.865" xlink:href="#b"/>
  </defs>
  <title>22168_DELMHT_AP_AppIcon_r21x</title>
  <g style="isolation: isolate">
    <g>
      <g>
        <path d="M42.325,57.35a3.441,3.441,0,0,1-1.733-.517,5.831,5.831,0,0,0-1.536-.11c-.995,0-1.264-1.813-1.323-2.369A31.033,31.033,0,0,0,36.08,49.48c-.11-.259-.2-.478-.275-.67a11.906,11.906,0,0,1-.475-2.183c-.059-.381-.119-.763-.19-1.12a20.1,20.1,0,0,0-1.811-4.459c-.511-1.024-.936-1.994-1.226-2.687-.534,1.993-1.481,4.534-2.032,6.009-.217.583-.376,1.005-.423,1.167a41.717,41.717,0,0,0-.745,6.939,7,7,0,0,0,1.483,1.342c.035.024,1.17.794.885,1.786-.081.286-.38.767-1.471.767a4,4,0,0,1-1.619-.334,20.949,20.949,0,0,1-2.8-2.563,1.837,1.837,0,0,1-.308-1.381c.359-3.049,1.295-11.139,1.295-11.743,0-.344-.071-1.434-.146-2.586-.088-1.344-.178-2.734-.178-3.263a15.036,15.036,0,0,1,.421-2.48,13.459,13.459,0,0,0,.335-1.849,23.582,23.582,0,0,0-1.005-4.3,24.556,24.556,0,0,0-1.351,2.806,4.413,4.413,0,0,0-.1,1.378c.005.36.009.758-.01,1.188a27.22,27.22,0,0,1-.473,2.969,20.767,20.767,0,0,0-.366,2.239c0,.429.292.669.6.923.1.082.194.16.272.238.379.376.362,1.82.318,2.647l-.048.889-.57-.683s-.163-.181-.194-.217a.869.869,0,0,1,.044.1.511.511,0,0,1-.03.494.544.544,0,0,1-.467.2l-.163,0a.959.959,0,0,1-.333.082h-.041l-.126-.022a1.18,1.18,0,0,1-.447-.228,1,1,0,0,0-.156-.1.908.908,0,0,1-.416-.237c-.031-.032-.066-.072-.1-.113a.816.816,0,0,0-.076-.087,1.179,1.179,0,0,0-.2-.124,1.3,1.3,0,0,1-.512-.433,1.683,1.683,0,0,1-.106-1.231,40.178,40.178,0,0,0,.675-4.575c.053-1.41,0-6.241,0-6.289.041-.245.868-4.275,2.08-6.15a18.364,18.364,0,0,1,2.979-3.214,14,14,0,0,0,1.369-1.357,2.864,2.864,0,0,0,.58-2.055l0-.221a4.8,4.8,0,0,0-.537-1.06,4.585,4.585,0,0,1-.8-1.864c0-1.373.69-3.971,3.3-3.971,2.9,0,3.333,2.369,3.516,3.381.029.156.052.288.08.386a6.563,6.563,0,0,1,.129,1.958,1.374,1.374,0,0,1,.208.628.51.51,0,0,1-.232.438,3.806,3.806,0,0,1-.04,1.434c.234.09.6.186.916.268a6.221,6.221,0,0,1,1.691.6c.653.434,1.194,1.934,1.783,3.7l.088.266a25.856,25.856,0,0,1,.63,2.572,12.89,12.89,0,0,0,.337,1.414,1.72,1.72,0,0,0,.326.446A5.834,5.834,0,0,1,41,27.228a24.835,24.835,0,0,1,.818,2.681,17.851,17.851,0,0,0,.9,2.818c.048.1.216.412.419.79,1.023,1.908,1.023,1.939,1.023,2.07a14.652,14.652,0,0,1-.686,1.889c-.057.113-.208.409-1.4.409h-.094l-.081-.046a1.7,1.7,0,0,1-.8-.689l-.079-.174.079-.126a1.581,1.581,0,0,1-.166-.288c-.158-.362-.115-.674.116-.837l.09-.064.2-.033a.34.34,0,0,1,.045,0,10.124,10.124,0,0,1-.561-1.335c-.045-.133-.089-.262-.153-.42-.214-.537-2.461-4.273-2.991-5.015a5.7,5.7,0,0,1-.932-2.587,18.476,18.476,0,0,0-1.076-2.5,18.2,18.2,0,0,0-.389,2.844A16.788,16.788,0,0,0,35.87,30.7c.116.526.221,1,.283,1.369.029.171.243.75.47,1.363a25.938,25.938,0,0,1,1.59,5.481,30.554,30.554,0,0,0,.487,3.351c.139.757.325,1.771.592,3.338a49.476,49.476,0,0,0,1.982,7.65c.094.279.157.467.178.551.1.4.66.548,1.112.6.831.1,2.147.555,2.147,1.322l.007.132c.043.576-.2.814-1.305,1.274A2.816,2.816,0,0,1,42.325,57.35ZM23.463,39.3c-.026,0-.065.077-.016.3a.722.722,0,0,0,.183.3l.017.021a1.8,1.8,0,0,1-.129-.444l-.035-.159C23.48,39.31,23.473,39.3,23.463,39.3Z" fill="#f0f1f1"/>
        <path d="M30.383,8.145c3.032,0,3.043,2.755,3.259,3.513a6.683,6.683,0,0,1,.109,1.948,1.345,1.345,0,0,1,.215.542c0,.217-.324.217-.324.217a3.313,3.313,0,0,1,0,1.841c.433.323,2.166.541,2.815.975s1.3,2.489,1.734,3.789.756,3.465.973,4.006.866.756,1.515,2.382,1.082,4.194,1.733,5.522c.151.307,1.408,2.6,1.408,2.706a17.859,17.859,0,0,1-.65,1.733c-.109.216-1.085.216-1.085.216-.228-.13-.55-.285-.659-.528-.014-.031.127-.039.252-.039.082,0,.156,0,.173,0a.935.935,0,0,1-.59-.553c-.043-.1-.12-.327,0-.409a.154.154,0,0,1,.09-.033c.132,0,.222.216.35.224h.02c.281,0,.1-.5.043-.617A13.824,13.824,0,0,1,41,33.745c-.234-.587-2.49-4.33-3.031-5.088a5.355,5.355,0,0,1-.867-2.383A24.182,24.182,0,0,0,35.7,23.026a.067.067,0,0,0-.024,0c-.318,0-.628,2-.733,3.577-.11,1.624.649,4.222.866,5.523.108.649,1.841,4.546,2.057,6.82s.326,2.273,1.082,6.713a54.011,54.011,0,0,0,2.165,8.228c.11.434.542.758,1.408.867s1.841.54,1.841.974.217.542-1.082,1.083a2.46,2.46,0,0,1-.954.193,3.282,3.282,0,0,1-1.646-.519,5.8,5.8,0,0,0-1.624-.108c-.757,0-.974-2.056-.974-2.056a35.107,35.107,0,0,0-1.949-5.631,24.843,24.843,0,0,1-.65-3.248,20.686,20.686,0,0,0-1.84-4.547c-.974-1.949-1.624-3.681-1.624-3.681a78.446,78.446,0,0,1-2.706,8.228,42.216,42.216,0,0,0-.759,7.038c0,.434,1.626,1.625,1.626,1.625s.973.649.755,1.406c-.107.379-.593.515-1.134.515a3.677,3.677,0,0,1-1.462-.3,22.044,22.044,0,0,1-2.708-2.492,1.482,1.482,0,0,1-.216-1.081s1.3-11.043,1.3-11.8-.324-4.872-.324-5.848.756-3.571.756-4.329-.974-4.872-1.3-4.872-1.515,2.707-1.731,3.248a11.992,11.992,0,0,0-.135,2.68c-.054,1.191-.839,4.467-.839,5.224s.649,1.083.974,1.408.216,2.381.216,2.381a3.485,3.485,0,0,1-.331-.4,2.167,2.167,0,0,1-.178-.606.4.4,0,0,0-.342-.328.271.271,0,0,0-.1.02c-.324.124-.337.456-.273.753.075.345.364.487.48.794.075.2-.03.224-.171.224-.052,0-.109,0-.163,0a.393.393,0,0,0-.164.026.37.37,0,0,1-.167.056.352.352,0,0,1-.087-.013c-.229-.054-.336-.214-.539-.306-.132-.06-.2-.049-.309-.162-.064-.064-.126-.157-.2-.218-.2-.176-.5-.24-.647-.482a1.387,1.387,0,0,1-.06-.977,39.466,39.466,0,0,0,.682-4.629c.054-1.436,0-6.307,0-6.307s.834-4.115,2.024-5.956,3.573-3.572,4.331-4.546a3.448,3.448,0,0,0,.651-2.491c0-.542-1.34-2.165-1.34-2.924s.351-3.621,2.952-3.621m0-.7c-2.889,0-3.652,2.827-3.652,4.321a4.664,4.664,0,0,0,.852,2.042,6.156,6.156,0,0,1,.492.929v.18a2.544,2.544,0,0,1-.507,1.833,14.051,14.051,0,0,1-1.33,1.315A18.624,18.624,0,0,0,23.2,21.346c-1.248,1.931-2.088,6.024-2.123,6.2l-.015.072v.075c0,.048.053,4.87,0,6.272a39.679,39.679,0,0,1-.668,4.518,2.055,2.055,0,0,0,.151,1.484,1.624,1.624,0,0,0,.638.554.838.838,0,0,1,.147.09s.016.022.031.04c.041.049.081.1.122.138a1.108,1.108,0,0,0,.477.293.585.585,0,0,1,.134.078,1.517,1.517,0,0,0,.575.288,1.086,1.086,0,0,0,.248.031.93.93,0,0,0,.374-.08h.017l.1,0a.874.874,0,0,0,.718-.3l.8.955.094-1.771c.126-2.369-.271-2.765-.42-2.914-.085-.084-.187-.17-.3-.26-.329-.27-.473-.413-.473-.652,0-.3.191-1.293.359-2.174a27.33,27.33,0,0,0,.48-3.018c.019-.443.015-.85.01-1.209a4.491,4.491,0,0,1,.076-1.245c.2-.5.6-1.38.941-2.054a22.955,22.955,0,0,1,.739,3.42,14.1,14.1,0,0,1-.326,1.774,15.043,15.043,0,0,0-.43,2.555c0,.542.091,1.936.179,3.285.071,1.1.145,2.231.145,2.563,0,.533-.8,7.471-1.294,11.72a2.147,2.147,0,0,0,.353,1.586l.024.031.027.029a19.289,19.289,0,0,0,2.9,2.635,4.386,4.386,0,0,0,1.776.372c1.321,0,1.7-.642,1.808-1.024.348-1.212-.9-2.084-1.041-2.18a8.072,8.072,0,0,1-1.312-1.159,41.5,41.5,0,0,1,.728-6.723c.042-.141.215-.605.415-1.142.469-1.255,1.224-3.278,1.771-5.091.24.541.526,1.158.847,1.8a20.025,20.025,0,0,1,1.78,4.372c.071.353.129.729.188,1.1a12.145,12.145,0,0,0,.492,2.25c.074.2.17.423.283.689a30.6,30.6,0,0,1,1.632,4.824c.094.832.439,2.629,1.664,2.629a9.309,9.309,0,0,1,1.349.051l.013.013a3.837,3.837,0,0,0,1.908.563,3.163,3.163,0,0,0,1.223-.247c.99-.412,1.586-.727,1.519-1.622,0-.033-.006-.068-.006-.107,0-1.077-1.6-1.563-2.454-1.669-.556-.069-.787-.228-.816-.343-.022-.087-.086-.284-.185-.576a49.186,49.186,0,0,1-1.969-7.6c-.267-1.569-.454-2.585-.593-3.343a30.561,30.561,0,0,1-.483-3.319,26.117,26.117,0,0,0-1.61-5.571c-.2-.538-.426-1.149-.453-1.3-.064-.382-.167-.848-.286-1.387a16.638,16.638,0,0,1-.572-3.973c.043-.643.111-1.241.185-1.741a11.369,11.369,0,0,1,.581,1.411,6.108,6.108,0,0,0,1,2.747c.581.815,2.76,4.463,2.951,4.941.062.155.1.279.148.406a9.137,9.137,0,0,0,.4,1c-.016.009-.03.019-.045.029a.978.978,0,0,0-.233,1.267q.032.072.069.141l-.058.089.154.357a1.869,1.869,0,0,0,.873.807l.078.044.162.092h.185c1.238,0,1.559-.3,1.709-.6a12.59,12.59,0,0,0,.726-2.05c0-.231,0-.25-1.077-2.256-.2-.363-.356-.662-.4-.759a17.477,17.477,0,0,1-.879-2.752,25.217,25.217,0,0,0-.833-2.722,6.221,6.221,0,0,0-1.251-2.039,1.513,1.513,0,0,1-.263-.343c-.074-.184-.2-.807-.32-1.356a25.221,25.221,0,0,0-.639-2.609l-.09-.27c-.631-1.895-1.174-3.385-1.92-3.882a6.443,6.443,0,0,0-1.8-.649c-.181-.047-.412-.107-.608-.166a4.014,4.014,0,0,0,.02-1.069.863.863,0,0,0,.206-.566,1.6,1.6,0,0,0-.2-.707,6.62,6.62,0,0,0-.149-1.975c-.025-.089-.045-.21-.071-.353-.182-1-.666-3.668-3.861-3.668Z" fill="#1c1c1c"/>
      </g>
      <path d="M26.841,24.083s2.361,2.362,3.542,8.265c0,0-2.361,1.18-3.542,0Z" fill="#6d6d6d" style="mix-blend-mode: darken"/>
      <g mask="url(#a)">
        <g opacity="0.3">
          <path d="M43.538,56.2a2.1,2.1,0,0,1-1.629-.187c-.52-.277-1.046-.457-1.554-.768a16.415,16.415,0,0,1-1.444-.965,3.53,3.53,0,0,1-.9-1.649A21.642,21.642,0,0,1,36.6,47.749a29.463,29.463,0,0,0-1.76-6.073,15.266,15.266,0,0,0-1.7-3.682.991.991,0,0,1-.188-1.218,1.159,1.159,0,0,1,.737-.621c.8-.287,2.07,0,2.086-1.158.006-.433.046-1.7-.607-1.681-.553.4-.8.92-1.516,1.161-.58.2-1.567.188-1.857.782a7.511,7.511,0,0,0-.389,2.384,15.286,15.286,0,0,1-.351,1.741c-.123.509-.451.939-.614,1.444-.17.529-.341,1.076-.512,1.615-.064.2-.372.957-.073,1.011.214.039.478-.625.533-.8.189-.577.3-1.19.5-1.768.124-.35.292-.68.419-1.027.3-.812.257-1.72.534-2.54.088-.261.478.391.5.43.173.376.334.76.47,1.151.21.6.488,1.169.714,1.769A38.741,38.741,0,0,1,35.2,45.013c.2.8.265,1.584.423,2.374a11.841,11.841,0,0,0,.588,1.8c.529,1.411,1.134,2.738,1.552,4.193a11.616,11.616,0,0,0,.712,2.375c.354.627,1.208.418,1.8.54.789.16,1.318.708,2.17.652.593-.042,1.37-.151,1.47-.826C43.792,56.157,43.679,56.172,43.538,56.2Z" fill="#1c1c1c"/>
          <path d="M37.323,27.683a17.7,17.7,0,0,0,.965,2.487c.4.709.9,1.353,1.352,2.021.5.737.905,1.52,1.328,2.276a8.416,8.416,0,0,1,.563,1.153c.111.286,0,.855.185,1.058.21.238.952.1,1.093-.117.1-.144.037-.323.108-.471s.216-.22.323-.362c-.07-.3-.8-.829-1.035-.432-.132.219.148.391.248.552a.73.73,0,0,1,.062.743.9.9,0,0,1-.5-.146c-.163-.161-.19-.492.123-.5-.449-.678-.95-1.493-.183-2.156-.486-.231-.608-.516-.853-1.056a7.306,7.306,0,0,0-.748-1.443A18.658,18.658,0,0,1,38.7,28.225c-.322-.661-.143-1.508-.506-2.1a2.964,2.964,0,0,1-.2-2.3,4.454,4.454,0,0,0,.153-1.409,3.739,3.739,0,0,0-.461-1.047c-.129-.235-1.3-1.419-1.56-1.282-.06.03-.163.837-.22.977a5.032,5.032,0,0,0-.5,1.336,3.284,3.284,0,0,0,.318,1.3C36.18,25.071,36.816,26.342,37.323,27.683Z" fill="#1c1c1c"/>
          <path d="M23.645,37.6l-.127-.034c-.006.023-.01.048-.018.071Z" fill="#1c1c1c"/>
          <path d="M30.683,55.252c-.164,0-.3.168-.468.183a1.176,1.176,0,0,1-.362-.079,3.942,3.942,0,0,1-1.515-.78c-.542-.434-.631-1.092-1.119-1.559-.245-.235-.529-.268-.785-.479a1.315,1.315,0,0,1-.415-.746,7.027,7.027,0,0,1,.2-3.3c.183-.95.306-1.878.434-2.838a29.315,29.315,0,0,0,.5-5.3,12.574,12.574,0,0,1,.462-3.861,2.289,2.289,0,0,0,.053-1.7,1.269,1.269,0,0,1,.207-1.472c.392-.436,1.3.065,1.84.18.291.062.94.281.724-.288-.113-.3-.386-.294-.644-.37a3.148,3.148,0,0,1-1.279-.668c-.282-.254-.5-.388-.5-.8a10.745,10.745,0,0,1,.188-1.228,3.675,3.675,0,0,1,.83-2.406c.36-.392,1.579-.831,1.364-1.527-.176-.576-1.118-.71-1.625-.828a10,10,0,0,1-1.939-.823c-.322-.154-.59-.449-.91-.589a2.819,2.819,0,0,0-.94-.069,4.5,4.5,0,0,0-1.812.279c-.427.143-.554.166-.742.623a4.673,4.673,0,0,0-.2.937,3.848,3.848,0,0,0-.072,1.844A1.81,1.81,0,0,0,23.3,28.92c.41.2.485.174.595.639a4.149,4.149,0,0,1,.111.938,7.05,7.05,0,0,1-.209,1.92c-.19.65-.474,1.277-.694,1.908a5.324,5.324,0,0,0-.4,1.868,2.338,2.338,0,0,0,.116.944c.142.307.407.353.7.434a9.323,9.323,0,0,0,.125-1.783,31.854,31.854,0,0,1,.392-3.411,32.8,32.8,0,0,1,.628-3.622c.1-.372.441-1.69.913-1.368.321.213.412.908.479,1.263.09.479.207.977.253,1.456a45.562,45.562,0,0,1-.1,4.57c-.015,1.661-.007,3.305-.108,4.962a10.478,10.478,0,0,1-.335,2.261,27.95,27.95,0,0,0-.649,3.316c-.385,2.768-.888,5.673.181,8.356.622,1.561,3.614,3.208,5.2,2.251C30.682,55.708,31.167,55.265,30.683,55.252Z" fill="#1c1c1c"/>
          <path d="M23.029,22.7c.289.095.524-.543.66-.724a4.086,4.086,0,0,1,.855-.718c.8-.6,1.71-1.091,2.457-1.735.548-.474,1.222-1.5,1.978-1.636.786-.148,1.561.557,2.342.439.315-.046-.749-.993-.85-1.043-.224-.111-1.01-.187-.972-.539.052-.484.884-.174,1.158-.1.466.127,1.007.506,1.488.262,1.125-.572-2.078-1.542-2.426-1.881-1.464-1.425-.822-3.5.394-4.827.334-.366.829-1.06.683-1.593-.2-.7-1.157-.674-1.746-.732a3.032,3.032,0,0,0-2.732,1.617,2.352,2.352,0,0,0-.21,2.013,12.758,12.758,0,0,1,.606,4.019,6.62,6.62,0,0,1-1.27,2.835c-.418.663-.839,1.341-1.312,1.951-.526.678-1.276,1.465-1.2,2.347A.493.493,0,0,0,23.029,22.7Z" fill="#1c1c1c"/>
          <path d="M33.121,13.663a.417.417,0,0,0,.047.1A1.112,1.112,0,0,0,33.121,13.663Z" fill="#1c1c1c"/>
          <path d="M33.3,13.853a.206.206,0,0,1-.133-.088c.007.019.013.036.018.054A.9.9,0,0,0,33.3,13.853Z" fill="#1c1c1c"/>
          <path d="M31.829,13.446c.267-.064.357-.321.649-.327a.775.775,0,0,1,.432.132c-.048-.243-.016-.465.3-.477.445-.015.24.462.562.559.024-.323.457-1.049.071-1.289-.333-.207-1.179.464-1.493.6s-1.044.335-1.168.663A1.412,1.412,0,0,0,31.829,13.446Z" fill="#1c1c1c"/>
          <path d="M33.121,13.663a1.056,1.056,0,0,0-.094-.3.418.418,0,0,0-.117-.112,1.544,1.544,0,0,0,.06.216A.576.576,0,0,1,33.121,13.663Z" fill="#1c1c1c"/>
        </g>
      </g>
      <path d="M33.642,15.988a.742.742,0,0,1-.867.541,7.859,7.859,0,0,1-2.706-1.081" fill="none" stroke="#f50" stroke-miterlimit="10" stroke-width="0.2"/>
      <path d="M33.21,14.4a.511.511,0,0,1-.235-.061,3.565,3.565,0,0,1,.471-.024c.127,0,.309.027.4-.083.166-.2-.148-.535-.252-.689a2.494,2.494,0,0,1-.436-.768.415.415,0,0,1-.011-.048" fill="none" stroke="#f50" stroke-linecap="round" stroke-linejoin="round" stroke-width="0.4"/>
      <path d="M33.245,12.656c.072-.138.217-.482.433-.4" fill="none" stroke="#f50" stroke-linecap="round" stroke-linejoin="round" stroke-width="0.4"/>
      <path d="M33.738,14.927c0,.145-.348.347-.476.379-.151.038-.72-.095-.789.1" fill="none" stroke="#f50" stroke-linecap="round" stroke-linejoin="round" stroke-width="0.4"/>
      <path d="M28.771,15.339a3.352,3.352,0,0,0,2.163,1.625c1.393.213,1.625-.435,1.625-.435" fill="none" stroke="#6d6d6d" stroke-linecap="round" stroke-linejoin="round" stroke-width="0.5"/>
      <path d="M41.044,33.889a1.746,1.746,0,0,1,.562-.664,1.5,1.5,0,0,1,.909-.175" fill="none" stroke="#6d6d6d" stroke-linecap="round" stroke-linejoin="round" stroke-width="0.5"/>
      <path d="M28.572,16.423c.36.4.817.943,1.2,1.316a3.708,3.708,0,0,0,1.582,1.04,1.131,1.131,0,0,0,1.348-.426,1.952,1.952,0,0,0-.125-1.787" fill="none" stroke="#6d6d6d" stroke-linecap="round" stroke-linejoin="round" stroke-width="0.5"/>
      <path d="M38.165,54.451a1.571,1.571,0,0,0,.828.251,3.333,3.333,0,0,0,.9-.113,7.7,7.7,0,0,0,.834-.219.77.77,0,0,0,.4-.3" fill="none" stroke="#6d6d6d" stroke-linecap="round" stroke-linejoin="round" stroke-width="0.5"/>
      <path d="M25.449,51.951a3.129,3.129,0,0,0,1.427.742A2.327,2.327,0,0,0,28,52.714a2.3,2.3,0,0,0,.549-.251" fill="none" stroke="#6d6d6d" stroke-linecap="round" stroke-linejoin="round" stroke-width="0.5"/>
      <path d="M32.1,37.075a2.64,2.64,0,0,1,1.457-1.306,2.368,2.368,0,0,0,1.115-.832" fill="none" stroke="#6d6d6d" stroke-linecap="round" stroke-linejoin="round" stroke-width="0.5"/>
      <path d="M26.876,31.831c.25.141.449.308.721.438a8.847,8.847,0,0,0,1.762.572,8.721,8.721,0,0,0,1.848.237,9.407,9.407,0,0,0,1.855-.033,3.247,3.247,0,0,0,2.475-1.469" fill="none" stroke="#6d6d6d" stroke-linecap="round" stroke-linejoin="round" stroke-width="0.5"/>
      <path d="M35.645,23.026a5.029,5.029,0,0,0,.271-.784c.088-.214.165-.445.243-.677.152-.45.26-1,.813-1.056" fill="none" stroke="#6d6d6d" stroke-linecap="round" stroke-linejoin="round" stroke-width="0.5"/>
      <path d="M25.9,25.218a1.069,1.069,0,0,1,.783-.433" fill="none" stroke="#6d6d6d" stroke-linecap="round" stroke-linejoin="round" stroke-width="0.5"/>
      <path d="M24.141,28.467a1.3,1.3,0,0,1-1.921-.677" fill="none" stroke="#6d6d6d" stroke-linecap="round" stroke-linejoin="round" stroke-width="0.5"/>
      <path d="M39.2,25.011c.063.615-.668,1.009-1.189,1.012" fill="none" stroke="#6d6d6d" stroke-linecap="round" stroke-linejoin="round" stroke-width="0.5"/>
      <polygon points="30.249 43.058 25.776 45.835 15.625 38.077 20.938 35.89 30.249 43.058" stroke="#00415f" stroke-linecap="round" stroke-linejoin="round" fill="url(#b)"/>
      <path d="M20.946,38.888l.749-.637s-.83-.27-1.154.034l-.2.2Z" stroke="#6d6d6d" stroke-linecap="round" stroke-linejoin="round" stroke-width="0.4" fill="url(#c)"/>
      <path d="M21.245,38.481s-.654-.3-.9,0v.8l.451.312.23-.118Z" stroke="#6d6d6d" stroke-linecap="round" stroke-linejoin="round" stroke-width="0.4" fill="url(#d)"/>
      <path d="M24.819,41.635l-.6.41,0-.87-1.563-1.868.5-.135,1.281,1.085a.99.99,0,0,1,.38.743C24.831,41.486,24.819,41.635,24.819,41.635Z" stroke="#6d6d6d" stroke-linecap="round" stroke-linejoin="round" stroke-width="0.4" fill="url(#e)"/>
      <path d="M23.722,40.666l.109.185v.923l.391.271v-.793a1.057,1.057,0,0,0-.342-.83,5.332,5.332,0,0,0-.722-.588A1.221,1.221,0,0,0,23.722,40.666Z" stroke="#6d6d6d" stroke-linecap="round" stroke-linejoin="round" stroke-width="0.4" fill="url(#f)"/>
      <path d="M24.521,37.73c-.18-.179-.394-.32-.574-.5-.515-.509-.559-.694-1.386-.569-.639.1-1.271-.341-1.621.37a6.553,6.553,0,0,0-.2,1.642,1.715,1.715,0,0,0,.076,1.22c.185.3.55.381.807.6.087.076.165.192.242.271.14.142.226.127.386.2.253.114.386.314.672.381a.362.362,0,0,0,.317-.054c.234-.108.791.136.623-.307-.148-.381-.506-.558-.6-.99-.078-.371-.062-.784.343-.938.268-.1.49.141.553.382a2.624,2.624,0,0,0,.22.757,4.452,4.452,0,0,0,.414.5S24.927,38.134,24.521,37.73Z" fill="#ffd5b3" stroke="#1c1c1c" stroke-linecap="round" stroke-linejoin="round" stroke-width="0.4"/>
      <polygon points="15.625 44.154 25.07 51.79 25.07 45.835 15.625 38.251 15.625 44.154" stroke="#00415f" stroke-linecap="round" stroke-linejoin="round" fill="url(#g)"/>
      <polygon points="25.07 51.79 29.793 49.047 29.793 43.058 25.07 45.835 25.07 51.79" stroke="#00415f" stroke-linecap="round" stroke-linejoin="round" fill="url(#h)"/>
      <path d="M31.242,13.319c.634-.57,1.025-.373,1.517-.57" fill="none" stroke="#f50" stroke-linecap="round" stroke-linejoin="round" stroke-width="0.4"/>
      <path d="M28.153,13.717a4.747,4.747,0,0,0,.359.5,1.038,1.038,0,0,1,.234.441c.05.219-.064.409-.026.623.067.385.64.82.92,1.082a2.292,2.292,0,0,0,1.384.679c.4.059,1.538,0,1.6-.566a.883.883,0,0,0,1.052-.71,3.235,3.235,0,0,0-.021-1.4c.588-.082.14-.774.075-1.059-.1-.468.019-.934-.124-1.4a8.717,8.717,0,0,1-.337-1.162,1.73,1.73,0,0,0-.242-.818,1.908,1.908,0,0,0-1.088-.407,4.039,4.039,0,0,0-2.436.759,6.236,6.236,0,0,0-1.268,1.137,3.982,3.982,0,0,0-.553,1.139c-.069.229-.1.365.05.545.057.07.17.091.236.174A3.841,3.841,0,0,1,28.153,13.717Z" fill="#d66924" style="mix-blend-mode: overlay"/>
      <path d="M33.052,9.724a.542.542,0,0,0,.037.05c.089.112.234.163.036.267-.183.1-.353.011-.549,0a3.506,3.506,0,0,0-1.213.128,3.791,3.791,0,0,0-1.116.514,1.726,1.726,0,0,0-.507.684c-.138.333.012.517.1.839.05.2-.1.363-.206.528a.526.526,0,0,0-.03.561c.095.176.26.309.064.472-.3.242-.436-.156-.509-.385s-.212-.622-.514-.475a.934.934,0,0,0-.309.8c-.241-.063-.212-.292-.354-.45-.061-.069-.158-.056-.231-.143a3.2,3.2,0,0,1-.235-.468,3.891,3.891,0,0,1-.074-2.646,2.5,2.5,0,0,1,.525-.917c.255-.31.4-.624.791-.8a3.5,3.5,0,0,1,2.478-.16,2.684,2.684,0,0,1,1.173.73c.117.128.24.253.345.39S32.945,9.574,33.052,9.724Z" fill="#1c1c1c"/>
      <path d="M29.25,14.031a.5.5,0,0,1-.251,0,.737.737,0,0,1-.258-.125c-.085-.063-.168-.128-.249-.182a1.232,1.232,0,0,1-.48-.612.631.631,0,0,1-.062-.288c.023-.116.114-.119.219-.144a.589.589,0,0,1,.652.226,1.076,1.076,0,0,1,.1.488c.009.141-.047.229.1.306a.411.411,0,0,1,.24.329Z" fill="#d6a88b" stroke="#f50" stroke-miterlimit="10" stroke-width="0.4"/>
      <path d="M41.584,33.2a1.762,1.762,0,0,0-.553.615,12.133,12.133,0,0,0,.73,1.774c.063.121.246.639-.063.616-.154-.01-.254-.323-.44-.191-.117.082-.04.313,0,.409a.935.935,0,0,0,.59.553c-.043,0-.448-.018-.425.034.109.243.431.4.659.528,0,0,.976,0,1.085-.216a17.859,17.859,0,0,0,.65-1.733c0-.1-1.069-2.055-1.354-2.6A1.9,1.9,0,0,0,41.584,33.2Z" fill="#d66924" style="mix-blend-mode: overlay"/>
      <path d="M41.816,36.29c-.172-.109-.334-.046-.331.166s.207.357.366.44a3.207,3.207,0,0,0,.626.324c.263.069.655-.347.78-.541a5.451,5.451,0,0,0,.471-1.02" fill="none" stroke="#f50" stroke-miterlimit="10" stroke-width="0.4"/>
      <path d="M23.18,40.864c-.164-.045-.326-.373-.453-.492a1.081,1.081,0,0,0-.581-.284" fill="none" stroke="#f50" stroke-linecap="round" stroke-linejoin="round" stroke-width="0.3"/>
      <path d="M22.788,40.885a1.1,1.1,0,0,1-.659-.417,1.854,1.854,0,0,1-.469-.7c-.072-.215-.11-.441-.182-.657" fill="none" stroke="#f50" stroke-linecap="round" stroke-linejoin="round" stroke-width="0.3"/>
      <path d="M21.615,40.169a1.534,1.534,0,0,1-.368-.952" fill="none" stroke="#f50" stroke-linecap="round" stroke-linejoin="round" stroke-width="0.3"/>
      <path d="M21.164,36.507c.311.005.609.131.948.134a2.3,2.3,0,0,0,1.056-.162" fill="none" stroke="#6d6d6d" stroke-linecap="round" stroke-linejoin="round" stroke-width="0.5"/>
      <polygon points="22.185 45.01 23.25 45.77 23.165 46.903 22.861 47.696 22.185 47.342 22.118 46.497 22.185 45.01" fill="#1c1c1c"/>
      <polygon points="17.514 40.612 18.577 41.372 18.492 42.505 18.247 43.413 17.571 43.059 17.446 42.098 17.514 40.612" fill="#1c1c1c"/>
      <line x1="31.564" y1="19.361" x2="33.334" y2="32.348" fill="none" stroke="#6d6d6d" stroke-linecap="round" stroke-linejoin="round" stroke-width="0.5"/>
      <path d="M35.955,11.575c.174.352-1.439,1.438-2.746,1.438A38.016,38.016,0,0,1,28.9,12.49l5.49-1.7S35.561,10.79,35.955,11.575Z" stroke="#00415f" stroke-linecap="round" stroke-linejoin="round" fill="url(#i)"/>
      <g>
        <path d="M28.9,11.99a2.614,2.614,0,0,1-1.869-.621,4.411,4.411,0,0,1,.85-2.979A2.971,2.971,0,0,1,30.2,7.5c2.928,0,3.672,3.422,3.693,3.518l0,0C33.862,11.016,33.428,11.99,28.9,11.99Z" fill="url(#j)"/>
        <path d="M30.2,8c2.1,0,2.9,2.068,3.126,2.819-.3.2-1.341.671-4.433.671a2.381,2.381,0,0,1-1.375-.36,3.718,3.718,0,0,1,.731-2.41A2.473,2.473,0,0,1,30.2,8m0-1c-4.183,0-3.662,4.575-3.662,4.575a2.869,2.869,0,0,0,2.355.915c5.751,0,5.49-1.569,5.49-1.569S33.6,7,30.2,7Z" fill="#00415f"/>
      </g>
    </g>
  </g>
</svg>
