<svg xmlns="http://www.w3.org/2000/svg" xmlns:xlink="http://www.w3.org/1999/xlink" width="64" height="64" viewBox="0 0 64 64">
  <defs>
    <linearGradient id="a" x1="29.917" y1="6.527" x2="35.083" y2="15.473" gradientUnits="userSpaceOnUse">
      <stop offset="0" stop-color="#8dd7f4"/>
      <stop offset="1" stop-color="#386e8c"/>
    </linearGradient>
    <linearGradient id="b" x1="15.917" y1="6.527" x2="21.083" y2="15.473" xlink:href="#a"/>
    <linearGradient id="d" x1="24.272" y1="26.823" x2="33.452" y2="42.723" gradientUnits="userSpaceOnUse">
      <stop offset="0" stop-color="#fff"/>
      <stop offset="1" stop-color="#d2d3d3"/>
    </linearGradient>
    <linearGradient id="e" x1="17.949" y1="29.636" x2="27.504" y2="46.187" xlink:href="#d"/>
    <linearGradient id="f" x1="11.945" y1="32.136" x2="21.471" y2="48.635" xlink:href="#d"/>
    <linearGradient id="g" x1="7.99" y1="36.627" x2="17.446" y2="53.005" gradientUnits="userSpaceOnUse">
      <stop offset="0" stop-color="#f5f6f6"/>
      <stop offset="0.992" stop-color="#bfbebe"/>
    </linearGradient>
    <linearGradient id="h" x1="25.263" y1="39.281" x2="29.976" y2="47.443" xlink:href="#d"/>
    <linearGradient id="i" x1="34.955" y1="31.272" x2="50.518" y2="58.227" gradientTransform="translate(0 -2)" xlink:href="#a"/>
  </defs>
  <title>DELPMR_AP_AppIcon3</title>
  <g>
    <rect x="26.5" y="8.5" width="12" height="5" stroke="#053755" stroke-linejoin="round" fill="url(#a)"/>
    <rect x="12.5" y="8.5" width="12" height="5" stroke="#053755" stroke-linejoin="round" fill="url(#b)"/>
    <rect x="12.5" y="13.5" width="12" height="20" fill="none" stroke="#053755" stroke-linejoin="round"/>
    <rect x="26.5" y="13.5" width="12" height="20" fill="none" stroke="#053755" stroke-linejoin="round"/>
    <rect x="40.5" y="8.5" width="12" height="5" stroke="#053755" stroke-linejoin="round" fill="url(#b)"/>
    <rect x="40.5" y="13.5" width="12" height="20" fill="none" stroke="#053755" stroke-linejoin="round"/>
  </g>
  <g>
    <g>
      <polygon points="18.5 29.434 24.889 23.515 37.5 33.194 36.5 43 26.971 43 18.5 33.368 18.5 29.434" stroke="#797979" stroke-linecap="round" stroke-linejoin="round" fill="url(#d)"/>
      <polygon points="11.5 31.94 18.889 26.022 31.5 35.7 31.5 46 21.122 46 11.5 35.874 11.5 31.94" stroke="#797979" stroke-linecap="round" stroke-linejoin="round" fill="url(#e)"/>
      <polygon points="6.5 34.447 12.889 28.528 24.5 38.207 24.5 49 15.273 49 6.5 38.381 6.5 34.447" stroke="#797979" stroke-linecap="round" stroke-linejoin="round" fill="url(#f)"/>
      <polygon points="6.5 43.22 6.5 34.447 18.5 45.657 18.5 54.5 6.5 43.22" stroke="#797979" stroke-linecap="round" stroke-linejoin="round" fill="url(#g)"/>
      <polygon points="18.5 45.657 24.5 38.207 24.5 43.638 31.5 35.839 31.5 41.131 37.5 33.542 37.5 44.145 18.5 54.5 18.5 45.657" stroke="#797979" stroke-linecap="round" stroke-linejoin="round" fill="url(#h)"/>
    </g>
    <polygon points="37.5 33.194 24.889 23.515 20.69 27.404 18.889 26.022 14.296 29.701 12.889 28.528 6.5 34.447 6.5 38.381 6.5 43.22 18.5 54.5 37.5 44.145 37.5 33.542 37.459 33.593 37.5 33.194" fill="none" stroke="#323232" stroke-linecap="round" stroke-linejoin="round"/>
    <path d="M21,53.11V48.134a1.184,1.184,0,0,1,.527-.985l.918-.613A1,1,0,0,1,24,47.369v4.112Z" fill="#231f20"/>
    <path d="M27,49.867V44.5a1.5,1.5,0,0,1,.668-1.248l.777-.518A1,1,0,0,1,30,43.561v4.671Z" fill="#231f20"/>
    <path d="M33,46.6V41.164a1.24,1.24,0,0,1,.552-1.032l.893-.6A1,1,0,0,1,36,40.369v4.593Z" fill="#231f20"/>
  </g>
  <g>
    <path d="M55.853,52.053a2.081,2.081,0,0,1-.12.7,1.726,1.726,0,0,1-.411.624,1.692,1.692,0,0,1-.638.411,2.208,2.208,0,0,1-.716.119,2.1,2.1,0,0,1-.7-.119,1.494,1.494,0,0,1-.6-.411L45.85,46.534a10.637,10.637,0,0,1-2.706,1.327,9.839,9.839,0,0,1-3.077.477,9.986,9.986,0,0,1-3.98-.8A10.236,10.236,0,0,1,30.649,42.1a10.348,10.348,0,0,1,0-7.96,10.223,10.223,0,0,1,5.438-5.437,10.334,10.334,0,0,1,7.959,0,10.223,10.223,0,0,1,5.438,5.437,9.981,9.981,0,0,1,.8,3.981A9.815,9.815,0,0,1,49.8,41.2a10.7,10.7,0,0,1-1.327,2.706l6.846,6.818a1.7,1.7,0,0,1,.411.624A2.068,2.068,0,0,1,55.853,52.053ZM31.974,38.125a7.826,7.826,0,0,0,.638,3.143,8.158,8.158,0,0,0,4.31,4.311,8.08,8.08,0,0,0,6.289,0,8.149,8.149,0,0,0,4.31-4.311,8.066,8.066,0,0,0,0-6.288,8.161,8.161,0,0,0-4.31-4.31,8.068,8.068,0,0,0-6.289,0,8.17,8.17,0,0,0-4.31,4.31A7.832,7.832,0,0,0,31.974,38.125Z" fill="url(#i)"/>
    <path d="M55.853,52.053a2.081,2.081,0,0,1-.12.7,1.726,1.726,0,0,1-.411.624,1.692,1.692,0,0,1-.638.411,2.208,2.208,0,0,1-.716.119,2.1,2.1,0,0,1-.7-.119,1.494,1.494,0,0,1-.6-.411L45.85,46.534a10.637,10.637,0,0,1-2.706,1.327,9.839,9.839,0,0,1-3.077.477,9.986,9.986,0,0,1-3.98-.8A10.236,10.236,0,0,1,30.649,42.1a10.348,10.348,0,0,1,0-7.96,10.223,10.223,0,0,1,5.438-5.437,10.334,10.334,0,0,1,7.959,0,10.223,10.223,0,0,1,5.438,5.437,9.981,9.981,0,0,1,.8,3.981A9.815,9.815,0,0,1,49.8,41.2a10.7,10.7,0,0,1-1.327,2.706l6.846,6.818a1.7,1.7,0,0,1,.411.624A2.068,2.068,0,0,1,55.853,52.053ZM31.974,38.125a7.826,7.826,0,0,0,.638,3.143,8.158,8.158,0,0,0,4.31,4.311,8.08,8.08,0,0,0,6.289,0,8.149,8.149,0,0,0,4.31-4.311,8.066,8.066,0,0,0,0-6.288,8.161,8.161,0,0,0-4.31-4.31,8.068,8.068,0,0,0-6.289,0,8.17,8.17,0,0,0-4.31,4.31A7.832,7.832,0,0,0,31.974,38.125Z" fill="none" stroke="#053755" stroke-linejoin="round"/>
  </g>
</svg>
