<?xml version="1.0" encoding="UTF-8"?><svg xmlns="http://www.w3.org/2000/svg" viewBox="0 0 64 64"><defs><style>.cls-1{fill:#fff;}.cls-2,.cls-3{fill:#2e6d8b;}.cls-4{fill:#323232;}.cls-5{fill:#063755;}.cls-6{fill:#e1e1e1;}.cls-6,.cls-7,.cls-8,.cls-3,.cls-9,.cls-10{stroke-miterlimit:10;}.cls-6,.cls-7,.cls-3,.cls-9,.cls-10{stroke:#063755;}.cls-6,.cls-7,.cls-9{stroke-width:.54px;}.cls-11{stroke:#46a523;stroke-width:2px;}.cls-11,.cls-7,.cls-8,.cls-10,.cls-12{fill:none;}.cls-11,.cls-12{stroke-linecap:round;stroke-linejoin:round;}.cls-8{stroke:#323232;}.cls-8,.cls-3,.cls-10{stroke-width:.27px;}.cls-9{fill:#abdbf5;}.cls-13{fill:#81bcda;}.cls-14{fill:#2d2d2d;}.cls-12{stroke:#dc2800;stroke-width:1.5px;}</style></defs><g id="Mod_01_copy"><g id="CONTOUR"><path class="cls-4" d="m35.76,5.95c1.53,0,6.12,2.9,8.41,3.52,2.96.59,5.4,1.53,6.3,2.25.89.72,2.41,5.67,2.39,7.22-.02,1.55-.95,4.75-.95,4.75l.04,5.33c0,.24.28,1.09.38,1.3.57,1.14,2.33,4.35,3.64,7.07,1.69,3.52-.42,6.71-1.22,7.63-.96,1.11-2.36,1.88-3.64,1.88-.27,0-.53-.03-.78-.1-1.59-.45-3.87-1.13-4.52-2.67-.55-1.29-.5-2.73-.39-3.61.07-.53-.14-1.05-.55-1.38l-1.8-1.47s-10.75,3.07-13.52,3.86c-2.76.79-5.32,2.93-5.32,2.93l-5.06.79c-.22.04-.44.12-.63.25l-3.05,2.08s-.92.67-2.2.67c-.41,0-.85-.07-1.32-.25-.42-.16-1.83-.52-3.06-1.14-.91-.91-2.6-3.19-1.43-6.26,1.17-3.07,3.18-4.23,4.3-4.29.25-.01.52-.02.79-.02.92,0,1.8.06,1.8.06l1.93-1.9.97-4,3.87-5.45,6.28-7.11s-1.06-4.57,1.35-7.83c1.97-2.66,2.95-2.65,3.89-3.04,0,0,1.6-1.08,3.13-1.08m0-.54c-1.54,0-3.08.94-3.38,1.14-.12.05-.24.09-.36.13-.87.3-1.94.68-3.71,3.07-2.21,2.99-1.69,6.91-1.5,7.99l-6.1,6.91-.02.02-.02.02-3.87,5.45-.06.08-.02.1-.93,3.85-1.65,1.62c-.33-.02-.95-.05-1.59-.05-.28,0-.56,0-.82.02-1.48.08-3.61,1.57-4.77,4.64-1.35,3.55.85,6.13,1.55,6.84l.06.06.08.04c.95.48,2,.81,2.63,1.01.21.07.38.12.48.16.49.19,1,.28,1.51.28,1.44,0,2.48-.74,2.52-.77l3.04-2.07c.12-.08.26-.14.4-.16l5.06-.79.15-.02.12-.1s2.51-2.08,5.13-2.83c2.5-.72,11.56-3.3,13.24-3.79l1.58,1.29c.27.22.4.55.36.9-.13,1.02-.15,2.52.43,3.89.77,1.81,3.34,2.54,4.87,2.97.29.08.6.13.92.13,1.39,0,2.94-.79,4.04-2.07.35-.4,3.32-4.01,1.3-8.22-.9-1.87-1.99-3.95-2.8-5.46-.37-.69-.67-1.26-.85-1.62-.08-.17-.31-.9-.32-1.07l-.04-5.24c.15-.51.93-3.33.95-4.81.02-1.64-1.5-6.77-2.59-7.65-1.05-.85-3.67-1.79-6.53-2.36-.94-.26-2.44-1-3.88-1.71-1.97-.98-3.67-1.82-4.64-1.82h0Z"/></g><g><path class="cls-13" d="m13.27,48.66c-.5,0-.99-.09-1.47-.27-.1-.04-.27-.09-.48-.16-.62-.2-1.67-.52-2.62-1l-.06-.03-.05-.05c-.69-.69-2.84-3.21-1.52-6.69,1.14-3.01,3.21-4.47,4.65-4.55.26-.01.54-.02.81-.02.68,0,1.33.03,1.64.05l1.72-1.69.96-3.97,3.91-5.52,6.17-6.99c-.18-.96-.76-4.95,1.46-7.95,1.74-2.35,2.8-2.72,3.64-3.02.14-.05.28-.1.41-.15,0,0,1.65-1.11,3.29-1.11.94,0,2.71.88,4.58,1.81,1.45.72,2.94,1.46,3.94,1.73,2.81.56,5.42,1.49,6.45,2.33,1.04.84,2.56,5.97,2.54,7.54-.02,1.49-.82,4.34-.95,4.8l.04,5.27c0,.17.25.94.34,1.12.18.36.48.93.85,1.63.8,1.51,1.9,3.59,2.79,5.45,1.98,4.13-.94,7.68-1.28,8.07-1.08,1.25-2.59,2.02-3.94,2.02-.31,0-.61-.04-.89-.12-1.51-.43-4.03-1.15-4.78-2.9-.58-1.34-.55-2.82-.42-3.82.05-.39-.1-.77-.41-1.02l-1.63-1.33c-1.49.43-10.78,3.08-13.31,3.81-2.65.76-5.15,2.83-5.18,2.85l-.09.07-5.17.81c-.16.03-.32.09-.46.18l-3.05,2.08s-1.03.74-2.43.74Zm.66-9.49c-.94.44-1.77,1.35-2.26,2.51-.5,1.18-.57,2.45-.2,3.45,1.37-.26,2.51-1.82,2.7-3.75.07-.77,0-1.52-.24-2.2Zm38-1.6c-.89.37-2,1.21-2.55,2.5-.6,1.42-.33,3,.21,4,1.03-.33,1.97-1.27,2.5-2.51.58-1.37.51-2.99-.16-3.99Zm-29.52-1.09c.99.32,4.3,1.37,5.98,1.63.11.02.25.02.41.02,1.99,0,6.88-1.22,6.92-1.23l2.34-.9c.86-.33,1.15-.63.81-2.57-.38-2.1-3.96-6.68-4.92-7.88l-6.39,4.48s-2.97,2.16-4.13,3.54c-.84,1-.99,2.33-1.02,2.91Zm20.2-3.07s.56.96,1.8,1.41c.12.04.26.06.43.06.89,0,2.07-.56,2.08-.56.45-.31,1.73-1.4,1.67-2.36-.06-1.04-.78-2.41-1.05-2.89l-1.99-.18-5.83-2.01,2.87,6.52Z"/><path class="cls-5" d="m35.76,5.95c1.53,0,6.12,2.9,8.41,3.52,2.96.59,5.4,1.53,6.3,2.25.89.72,2.41,5.67,2.39,7.22-.02,1.55-.95,4.75-.95,4.75l.04,5.33c0,.24.28,1.09.38,1.3.57,1.14,2.33,4.35,3.64,7.07,1.69,3.52-.42,6.71-1.22,7.63-.96,1.11-2.36,1.88-3.64,1.88-.27,0-.53-.03-.78-.1-1.59-.45-3.87-1.13-4.52-2.67-.55-1.29-.5-2.73-.39-3.61.07-.53-.14-1.05-.55-1.38l-1.8-1.47s-10.75,3.07-13.52,3.86c-2.76.79-5.32,2.93-5.32,2.93l-5.06.79c-.22.04-.44.12-.63.25l-3.05,2.08s-.92.67-2.2.67c-.41,0-.85-.07-1.32-.25-.42-.16-1.83-.52-3.06-1.14-.91-.91-2.6-3.19-1.43-6.26,1.17-3.07,3.18-4.23,4.3-4.29.25-.01.52-.02.79-.02.92,0,1.8.06,1.8.06l1.93-1.9.97-4,3.87-5.45,6.28-7.11s-1.06-4.57,1.35-7.83c1.97-2.66,2.95-2.65,3.89-3.04,0,0,1.6-1.08,3.13-1.08m-6.97,32.59c2.06,0,7.02-1.25,7.02-1.25,0,0,1.41-.54,2.39-.91,1.2-.46,1.41-1.09,1.06-3.02-.46-2.55-5.25-8.35-5.25-8.35l-6.7,4.69s-3,2.18-4.21,3.62c-1.2,1.44-1.12,3.46-1.12,3.46,0,0,4.29,1.42,6.33,1.74.13.02.29.03.47.03m16.05-3.25c1,0,2.26-.61,2.26-.61,0,0,1.98-1.35,1.9-2.74-.09-1.4-1.2-3.25-1.2-3.25l-2.2-.2-6.61-2.29,3.24,7.37s.61,1.11,2.04,1.63c.17.06.37.09.57.09m4.55,9.25c1.22-.26,2.42-1.3,3.06-2.82.72-1.69.48-3.6-.39-4.63-1.15.38-2.45,1.38-3.06,2.83-.69,1.63-.33,3.52.39,4.62m-38.18,1.03c1.67-.1,3.13-1.86,3.36-4.16.1-1.02-.06-1.98-.41-2.77-1.15.38-2.25,1.42-2.86,2.88-.61,1.45-.6,2.96-.08,4.05M35.76,5.14c-1.57,0-3.14.93-3.51,1.17-.11.04-.21.08-.32.12-.9.31-2.02.71-3.84,3.16-2.19,2.96-1.78,6.8-1.57,8.07l-6.02,6.81-.03.03-.03.04-3.87,5.45-.09.13-.04.15-.91,3.78-1.51,1.48c-.35-.02-.91-.04-1.49-.04-.28,0-.57,0-.83.02-1.62.09-3.8,1.61-5.01,4.81-1.41,3.71.88,6.39,1.62,7.12l.09.09.12.06c.97.49,2.04.83,2.67,1.02.2.06.36.11.47.15.52.2,1.06.3,1.61.3,1.51,0,2.57-.74,2.68-.83l3.03-2.06c.09-.06.19-.1.29-.12l5.06-.79.22-.03.17-.14s2.47-2.04,5.03-2.78c2.44-.7,11.12-3.18,13.11-3.75l1.47,1.2c.19.16.29.4.26.65-.13,1.05-.16,2.6.45,4.03.83,1.93,3.47,2.68,5.05,3.13.32.09.65.14,1,.14,1.46,0,3.09-.83,4.25-2.16.36-.41,3.44-4.15,1.34-8.51-.9-1.87-2-3.95-2.8-5.47-.37-.69-.66-1.26-.85-1.62-.07-.16-.28-.81-.3-.97l-.03-5.18c.17-.61.93-3.36.95-4.85.02-1.55-1.46-6.87-2.69-7.86-1.07-.87-3.73-1.84-6.62-2.41-.96-.27-2.42-.99-3.84-1.69-2.32-1.15-3.8-1.85-4.76-1.85h0Zm-12.92,31.05c.06-.61.26-1.6.9-2.36,1.13-1.35,4.03-3.46,4.06-3.48l6.07-4.25c1.51,1.9,4.3,5.68,4.6,7.4.32,1.79.08,1.88-.55,2.12l-2.34.89c-.5.12-4.94,1.21-6.78,1.21-.18,0-.28-.01-.34-.02-1.51-.24-4.38-1.12-5.61-1.52h0Zm20.12-2.99l-2.47-5.63,4.85,1.68.09.03h.1s1.77.17,1.77.17c.34.63.84,1.73.89,2.53.04.68-.96,1.61-1.5,1.99-.35.16-1.22.5-1.85.5-.16,0-.25-.02-.3-.04-1.01-.37-1.5-1.09-1.59-1.24h0Zm6.83,10.35c-.39-.93-.51-2.22-.04-3.32.44-1.03,1.26-1.74,2-2.13.38.81.47,2.08-.04,3.3-.42.99-1.14,1.78-1.92,2.15h0Zm-38.05,1.07c-.2-.84-.1-1.84.3-2.79.37-.88.96-1.61,1.63-2.06.11.49.14,1.02.09,1.56-.15,1.56-.99,2.88-2.02,3.29h0Z"/></g><path class="cls-5" d="m39,26.2l6.61,2.29,2.2.2s1.12,1.85,1.2,3.25-1.9,2.74-1.9,2.74c0,0-1.26.61-2.26.61-.21,0-.4-.03-.57-.09-1.43-.52-2.04-1.63-2.04-1.63l-3.24-7.37m-.5-.46l.25.57,3.24,7.37c.04.07.68,1.23,2.19,1.78.19.07.41.1.66.1,1.05,0,2.32-.61,2.38-.63.12-.08,2.15-1.47,2.05-3-.09-1.45-1.2-3.29-1.24-3.37l-.07-.12h-.14s-2.16-.21-2.16-.21l-6.58-2.28-.59-.2h0Z"/><path class="cls-5" d="m34.02,25s4.79,5.8,5.25,8.35c.35,1.93.14,2.57-1.06,3.02-.98.37-2.39.91-2.39.91,0,0-4.96,1.25-7.02,1.25-.18,0-.34,0-.47-.03-2.04-.32-6.33-1.74-6.33-1.74,0,0-.09-2.02,1.12-3.46,1.2-1.44,4.21-3.62,4.21-3.62l6.7-4.69m.05-.36l-.2.14-6.7,4.69c-.13.09-3.05,2.22-4.26,3.66-1.26,1.5-1.18,3.56-1.18,3.64v.19s.19.06.19.06c.18.06,4.33,1.43,6.37,1.75.14.02.31.03.51.03,2.07,0,6.89-1.2,7.09-1.25l2.42-.92c1.46-.56,1.56-1.48,1.23-3.32-.46-2.59-5.11-8.24-5.3-8.48l-.16-.19h0Z"/><path id="IN_TROU_ok" class="cls-3" d="m15.66,39.27c-.51-.22-1.07-.21-1.62-.03.29.66.42,1.45.34,2.29-.18,1.89-1.39,3.35-2.77,3.44.25.52.64.93,1.15,1.15,1.4.59,3.18-.46,3.99-2.35.8-1.89.32-3.9-1.08-4.5Z"/><path class="cls-9" d="m20.84,35.12c-1.31-.6-3.67,2.75-4.25,2.5-2.18-.92-5.08.47-6.32,3.41s-.49,6.06,1.69,6.99c1.31.56,2.87.16,4.12-.84.64-.51,1.91-1.33,2.47-1.68.18-.11.38-.19.59-.22,1.01-.15,4.16-.63,4.97-.78-.07-.96-2.5-9.02-3.26-9.37Zm-4.09,8.65c-.8,1.89-2.59,2.94-3.99,2.35-1.4-.59-1.89-2.61-1.08-4.5.8-1.89,2.59-2.94,3.99-2.35s1.89,2.61,1.08,4.5Z"/><ellipse id="_Ellipse_01_CONTOUR_ok" class="cls-10" cx="14.21" cy="42.69" rx="3.72" ry="2.75" transform="translate(-30.65 39.11) rotate(-67.02)"/><path class="cls-9" d="m55.9,37.07c-.32-.49-2.24-4.51-2.24-4.51l-7.19,6.56s.69.65.94,1.36c.19.52.17,1.11.14,1.51-.16,2.11.67,3.98,2.26,4.65,2.18.92,4.95-.71,6.19-3.65.93-2.2.82-4.5-.11-5.92Zm-1.3,5.32c-.8,1.89-2.59,2.94-3.99,2.35-1.4-.59-1.89-2.61-1.08-4.5.8-1.89,2.59-2.94,3.99-2.35,1.4.59,1.89,2.61,1.08,4.5Z"/><path class="cls-3" d="m53.52,37.89c-.51-.22-1.07-.21-1.62-.03.72.85.87,2.31.28,3.71-.53,1.26-1.53,2.12-2.53,2.33.24.37.57.66.97.83,1.4.59,3.18-.46,3.99-2.35.8-1.89.32-3.9-1.08-4.5Z"/><ellipse id="_Ellipse_01_to_" class="cls-8" cx="52.07" cy="41.32" rx="3.72" ry="2.75" transform="translate(-6.29 73.13) rotate(-67.02)"/><path class="cls-7" d="m43.08,37.95s1.35-.45,1.81-.22,2.21,2.04,2.46,2.75c.19.52.23,1.1.2,1.5-.16,2.11.67,3.98,2.26,4.65,2.18.92,5.09-.71,6.34-3.65"/><path class="cls-9" d="m49.95,11.71c-2.29-.96-6.99-.13-8.88,5.05-1.45,3.97-.5,8.18,2.38,9.4.93.58,1.66,2.75,4.24,2.28,3.35-.43,4.38-5.61,4.85-7.19.53-2.55,0-8.32-2.6-9.53Zm.83,9.02c-1.22,3.22-4.13,5.1-6.52,4.2-2.38-.9-3.33-4.24-2.12-7.46,1.22-3.22,4.13-5.1,6.52-4.2s3.33,4.24,2.12,7.46Z"/><g><path class="cls-2" d="m45.5,25.01c-.42,0-.82-.07-1.2-.22-2.31-.87-3.22-4.14-2.04-7.28.96-2.55,3.08-4.33,5.14-4.33.42,0,.82.07,1.2.22,1.11.42,1.94,1.4,2.33,2.77.39,1.38.29,2.98-.29,4.51-.96,2.55-3.08,4.33-5.14,4.33h0Z"/><path class="cls-4" d="m47.41,13.31c.4,0,.79.07,1.15.21,1.07.4,1.87,1.36,2.24,2.68.38,1.35.28,2.93-.28,4.43-.94,2.5-3.01,4.25-5.02,4.25-.4,0-.79-.07-1.15-.21-1.07-.4-1.87-1.36-2.24-2.68-.38-1.35-.28-2.93.28-4.43.94-2.5,3.01-4.25,5.02-4.25m0-.27c-2.08,0-4.26,1.75-5.27,4.42-1.22,3.22-.27,6.56,2.12,7.46.4.15.82.23,1.25.23,2.08,0,4.26-1.75,5.27-4.42,1.22-3.22.27-6.56-2.12-7.46-.4-.15-.82-.23-1.25-.23h0Z"/></g><g id="_Ellipse_01"><path class="cls-5" d="m47.41,13.31h0c.4,0,.79.07,1.15.21,1.07.4,1.87,1.36,2.24,2.68.38,1.35.28,2.93-.28,4.43-.94,2.5-3.01,4.25-5.02,4.25-.4,0-.79-.07-1.15-.21-1.07-.4-1.87-1.36-2.24-2.68-.38-1.35-.28-2.93.28-4.43.94-2.5,3.01-4.25,5.02-4.25m0-.27c-2.08,0-4.26,1.75-5.27,4.42-1.22,3.22-.27,6.56,2.12,7.46.4.15.82.23,1.25.23,2.08,0,4.26-1.75,5.27-4.42,1.22-3.22.27-6.56-2.12-7.46-.4-.15-.82-.23-1.25-.23h0Z"/></g><line class="cls-6" x1="43.68" y1="14.92" x2="51.29" y2="17.43"/><path class="cls-7" d="m27.1,17.89c1.29-1.32,3.92-2.53,4.18-3.07.37-.8-.86-1.36-.6-2.12.38-1.14,4.85-.98,5.63-.52,1.45,1.45.78,3.11,1.4,4.09,1.52,2.41,2.99,6.49,2.17,6.94-.88.48-1.13-.4-2.64-.26-1.66.98-2.87,1.87-2.87,1.87l4.64,1.38"/><g id="Reflet_top_Ht"><path class="cls-1" d="m20.23,34.12c1.15-1.17,2.34-2.31,3.52-3.46,0,0,13.31-8.39,13.31-8.39l.05.08-13.25,8.48c-1.11,1.05-2.38,2.28-3.56,3.36,0,0-.07-.07-.07-.07h0Z"/></g><g id="Reflet_top_Ht-2"><path class="cls-1" d="m25.04,42.15c1.42-.73,2.88-1.35,4.35-1.97,5.07-1.23,10.11-2.54,15.19-3.69l.07.26c-4.95,1.39-10.26,2.71-15.08,3.98-1.46.59-2.92,1.18-4.43,1.66l-.1-.25h0Z"/></g><g id="Reflet_top_Ht-3"><path class="cls-1" d="m22.56,23.86c2.53-2.34,4.36-5.43,7.36-7.24,0,0,1.7-1.16,1.7-1.16l1.71-1.15c.83-.48,2.24-1.88,2.97-.58.43,1.27-1.34,1.59-2.16,2.05-.94.42-2.84,1.24-3.78,1.65-1.91.66-3.4,2.24-4.76,3.67-.94.99-1.89,1.98-2.77,3.03-.16.19-.45-.07-.27-.25h0Z"/></g><g id="Reflet_top_Ht-4"><path class="cls-1" d="m32.07,7.76l10.39,4.16c.43.16.19.85-.25.69,0,0-10.63-3.51-10.63-3.51-.91-.31-.41-1.7.49-1.35h0Z"/></g></g><g id="OK_BLANC"><path class="cls-1" d="m27.46,37.49l-.79-.18-.08,6.48,1-.51,9.54.03c.55,0,1-.45,1-1v-2.34l.62-.19.92-1c.37-.38.57-.89.56-1.42,0-.53-.23-1.03-.61-1.4-.37-.36-.87-.56-1.39-.56-.2,0-.82.45-1.02.51-.15-.09-9.75,1.6-9.75,1.6Z"/></g><g id="Layer_20_copy"><g><path class="cls-1" d="m29.32,57.54c-.73,0-1.33-.59-1.33-1.33v-6.98c0-.35.14-.68.39-.94.25-.25.58-.39.94-.39h6.98c.73,0,1.33.59,1.33,1.33v6.98c0,.73-.59,1.33-1.33,1.33h-6.98Z"/><path class="cls-14" d="m36.3,48.41c.45,0,.83.37.83.83v6.98c0,.45-.37.83-.83.83h-6.98c-.45,0-.83-.37-.83-.83v-6.98c0-.45.37-.83.82-.83h6.98m0-1h-6.98c-.49,0-.94.19-1.29.54-.35.35-.54.8-.54,1.29v6.98c0,1.01.82,1.83,1.83,1.83h6.98c1.01,0,1.83-.82,1.83-1.83v-6.98c0-1.01-.82-1.83-1.83-1.83h0Z"/></g><g><path class="cls-1" d="m29.32,45.47c-.73,0-1.33-.59-1.33-1.33v-6.98c0-.35.14-.68.39-.94.25-.25.58-.39.94-.39h6.98c.73,0,1.33.59,1.33,1.33v6.98c0,.73-.59,1.33-1.33,1.33h-6.98Z"/><path class="cls-14" d="m36.3,36.34c.45,0,.83.37.83.83v6.98c0,.45-.37.83-.83.83h-6.98c-.45,0-.83-.37-.83-.83v-6.98c0-.45.37-.83.82-.83h6.98m0-1h-6.98c-.49,0-.94.19-1.29.54-.35.35-.54.8-.54,1.29v6.98c0,1.01.82,1.83,1.83,1.83h6.98c1.01,0,1.83-.82,1.83-1.83v-6.98c0-1.01-.82-1.83-1.83-1.83h0Z"/></g><line class="cls-12" x1="30.65" y1="50.56" x2="34.96" y2="54.88"/><line class="cls-12" x1="34.96" y1="50.56" x2="30.65" y2="54.88"/><polyline class="cls-11" points="30.65 39.58 33.33 42.45 38.22 37.39"/></g></svg>