<svg id="_64_IT_02_ok_copy" data-name="64   (IT 02) ok copy" xmlns="http://www.w3.org/2000/svg" xmlns:xlink="http://www.w3.org/1999/xlink" viewBox="0 0 64 64"><defs><style>.cls-1,.cls-10,.cls-11,.cls-12,.cls-17,.cls-25,.cls-42,.cls-43,.cls-44,.cls-5,.cls-6,.cls-7,.cls-8,.cls-9{stroke:#000;}.cls-1,.cls-14,.cls-17,.cls-18,.cls-19,.cls-20,.cls-21,.cls-25,.cls-28,.cls-30,.cls-32,.cls-33,.cls-48,.cls-5,.cls-50{stroke-miterlimit:10;}.cls-1,.cls-12,.cls-17,.cls-5{stroke-width:0.5px;}.cls-1{fill:url(#linear-gradient);}.cls-2,.cls-48{fill:#797979;}.cls-3{fill:url(#linear-gradient-2);}.cls-4{fill:url(#linear-gradient-3);}.cls-12,.cls-17,.cls-42,.cls-49,.cls-5{fill:none;}.cls-10,.cls-11,.cls-12,.cls-17,.cls-43,.cls-44,.cls-6,.cls-7,.cls-8,.cls-9{stroke-linecap:round;}.cls-10,.cls-11,.cls-12,.cls-42,.cls-43,.cls-44,.cls-6,.cls-7,.cls-8,.cls-9{stroke-linejoin:round;}.cls-10,.cls-11,.cls-14,.cls-25,.cls-43,.cls-44,.cls-6,.cls-7,.cls-8,.cls-9{stroke-width:0.25px;}.cls-6{fill:url(#linear-gradient-4);}.cls-7{fill:url(#linear-gradient-5);}.cls-8{fill:url(#linear-gradient-6);}.cls-9{fill:url(#linear-gradient-7);}.cls-10{fill:url(#linear-gradient-8);}.cls-11{fill:url(#linear-gradient-9);}.cls-13{fill:url(#linear-gradient-10);}.cls-14{stroke:#323232;fill:url(#linear-gradient-11);}.cls-15{fill:url(#linear-gradient-12);}.cls-16{fill:url(#linear-gradient-13);}.cls-18,.cls-21,.cls-39{fill:#aadcfa;}.cls-18,.cls-19,.cls-20,.cls-21{stroke:#003755;}.cls-19{fill:#82bddb;}.cls-19,.cls-20,.cls-21{stroke-width:0.11px;}.cls-20{fill:#285977;}.cls-22{fill:url(#linear-gradient-14);}.cls-23{fill:url(#linear-gradient-15);}.cls-24{fill:#323232;}.cls-25{fill:url(#linear-gradient-16);}.cls-26{fill:url(#linear-gradient-17);}.cls-27{fill:url(#linear-gradient-18);}.cls-28,.cls-30,.cls-32,.cls-33{stroke-width:0.13px;}.cls-28,.cls-30,.cls-32,.cls-33,.cls-35,.cls-42,.cls-48,.cls-49,.cls-50{isolation:isolate;}.cls-28{fill:url(#New_Gradient_Swatch_1);stroke:url(#white_left);}.cls-29{fill:url(#linear-gradient-19);}.cls-30{fill:url(#New_Gradient_Swatch_1-2);stroke:url(#white_left-2);}.cls-31{fill:url(#linear-gradient-20);}.cls-32{fill:url(#New_Gradient_Swatch_1-3);stroke:url(#white_left-3);}.cls-33{fill:url(#New_Gradient_Swatch_1-4);stroke:url(#white_left-4);}.cls-34{fill:url(#linear-gradient-21);}.cls-36{fill:url(#linear-gradient-22);}.cls-37{fill:#003755;}.cls-38{fill:#5a9ab8;}.cls-40{fill:url(#linear-gradient-23);}.cls-41{fill:#91bbd5;}.cls-43{fill:url(#linear-gradient-24);}.cls-44{fill:url(#linear-gradient-25);}.cls-45{fill:url(#linear-gradient-26);}.cls-46{fill:url(#linear-gradient-27);}.cls-47{fill:url(#linear-gradient-28);}.cls-48,.cls-50{stroke-width:0.16px;}.cls-48{stroke:url(#white_left-5);}.cls-50{fill:url(#New_Gradient_Swatch_1-5);stroke:url(#white_left-6);}.cls-51{fill:#e1e1e1;}.cls-52{fill:url(#linear-gradient-29);}.cls-53{fill:#556e7d;}.cls-54{fill:url(#linear-gradient-30);}</style><linearGradient id="linear-gradient" x1="43.7" y1="29.62" x2="55.2" y2="29.62" gradientUnits="userSpaceOnUse"><stop offset="0" stop-color="#fff"/><stop offset="1" stop-color="#d4d5d3"/></linearGradient><linearGradient id="linear-gradient-2" x1="42.6" y1="43.73" x2="55.17" y2="43.73" gradientUnits="userSpaceOnUse"><stop offset="0" stop-color="#464646"/><stop offset="1" stop-color="#141414"/></linearGradient><linearGradient id="linear-gradient-3" x1="39.38" y1="45.76" x2="47.12" y2="45.76" gradientUnits="userSpaceOnUse"><stop offset="0" stop-color="#aaa"/><stop offset="1" stop-color="#5a5a5a"/></linearGradient><linearGradient id="linear-gradient-4" x1="36.69" y1="46.16" x2="38.97" y2="50.1" gradientUnits="userSpaceOnUse"><stop offset="0" stop-color="#fff"/><stop offset="1" stop-color="#d2d2d2"/></linearGradient><linearGradient id="linear-gradient-5" x1="37.67" y1="45.27" x2="38.58" y2="46.86" xlink:href="#linear-gradient-4"/><linearGradient id="linear-gradient-6" x1="37.48" y1="40.26" x2="40.47" y2="45.43" xlink:href="#linear-gradient-4"/><linearGradient id="linear-gradient-7" x1="39.43" y1="38.93" x2="40.68" y2="41.1" gradientUnits="userSpaceOnUse"><stop offset="0" stop-color="#fff"/><stop offset="1" stop-color="#f0f0f0"/></linearGradient><linearGradient id="linear-gradient-8" x1="38.62" y1="33.65" x2="42.36" y2="40.13" xlink:href="#linear-gradient-4"/><linearGradient id="linear-gradient-9" x1="45.81" y1="29.52" x2="50.48" y2="37.61" xlink:href="#linear-gradient-4"/><linearGradient id="linear-gradient-10" x1="41.55" y1="38.24" x2="57.56" y2="37.96" gradientUnits="userSpaceOnUse"><stop offset="0" stop-color="#bebebe"/><stop offset="0.24" stop-color="#f3f3f3"/><stop offset="0.5" stop-color="silver"/></linearGradient><linearGradient id="linear-gradient-11" x1="41.2" y1="36.52" x2="57.74" y2="38.84" gradientUnits="userSpaceOnUse"><stop offset="0.19" stop-color="#aaa"/><stop offset="0.53" stop-color="#5a5a5a"/></linearGradient><linearGradient id="linear-gradient-12" x1="47.36" y1="30.62" x2="51.64" y2="38.04" xlink:href="#linear-gradient"/><linearGradient id="linear-gradient-13" x1="47.42" y1="30.72" x2="51.58" y2="37.94" xlink:href="#linear-gradient"/><linearGradient id="linear-gradient-14" x1="43.95" y1="28.86" x2="54.91" y2="30.21" gradientUnits="userSpaceOnUse"><stop offset="0" stop-color="#bebebe"/><stop offset="0.24" stop-color="#f3f3f3"/><stop offset="0.64" stop-color="silver"/><stop offset="1" stop-color="#bebebe"/></linearGradient><linearGradient id="linear-gradient-15" x1="43.95" y1="28.86" x2="54.91" y2="30.21" xlink:href="#linear-gradient-11"/><linearGradient id="linear-gradient-16" x1="44.33" y1="24.77" x2="55.2" y2="24.77" xlink:href="#linear-gradient"/><linearGradient id="linear-gradient-17" x1="7.87" y1="16.19" x2="15.68" y2="10.92" gradientTransform="translate(1.07 -0.83) rotate(1.76)" gradientUnits="userSpaceOnUse"><stop offset="0" stop-color="#323232"/><stop offset="0.08" stop-color="#424242"/><stop offset="0.23" stop-color="#6b6b6b"/><stop offset="0.44" stop-color="#aaa"/><stop offset="1" stop-color="#323232"/></linearGradient><linearGradient id="linear-gradient-18" x1="8.03" y1="22.42" x2="21.11" y2="13.6" gradientTransform="translate(1.07 -0.83) rotate(1.76)" gradientUnits="userSpaceOnUse"><stop offset="0" stop-color="#bebebe"/><stop offset="0.53" stop-color="#f3f3f3"/><stop offset="1" stop-color="#bebebe"/></linearGradient><linearGradient id="New_Gradient_Swatch_1" x1="15.77" y1="19.17" x2="20.71" y2="27.74" gradientTransform="translate(1.07 -0.83) rotate(1.76)" gradientUnits="userSpaceOnUse"><stop offset="0" stop-color="#464646"/><stop offset="0.99" stop-color="#141414"/></linearGradient><linearGradient id="white_left" x1="11.12" y1="23.46" x2="25.36" y2="23.46" gradientTransform="translate(1.07 -0.83) rotate(1.76)" gradientUnits="userSpaceOnUse"><stop offset="0" stop-color="#f5f5f5"/><stop offset="1" stop-color="#bebebe"/></linearGradient><linearGradient id="linear-gradient-19" x1="12.01" y1="25.64" x2="22.6" y2="18.49" gradientTransform="translate(1.07 -0.83) rotate(1.76)" gradientUnits="userSpaceOnUse"><stop offset="0" stop-color="#bebebe"/><stop offset="0.44" stop-color="#f3f3f3"/><stop offset="1" stop-color="#bebebe"/></linearGradient><linearGradient id="New_Gradient_Swatch_1-2" x1="16.99" y1="20.05" x2="20.09" y2="27.71" xlink:href="#New_Gradient_Swatch_1"/><linearGradient id="white_left-2" x1="12.76" y1="23.88" x2="24.31" y2="23.88" xlink:href="#white_left"/><linearGradient id="linear-gradient-20" x1="14.85" y1="27.38" x2="23.22" y2="21.73" xlink:href="#linear-gradient-19"/><linearGradient id="New_Gradient_Swatch_1-3" x1="17.2" y1="28.38" x2="26.16" y2="28.38" xlink:href="#New_Gradient_Swatch_1"/><linearGradient id="white_left-3" x1="17.13" y1="28.38" x2="26.22" y2="28.38" xlink:href="#white_left"/><linearGradient id="New_Gradient_Swatch_1-4" x1="16.76" y1="27.58" x2="25.78" y2="27.58" xlink:href="#New_Gradient_Swatch_1"/><linearGradient id="white_left-4" x1="16.7" y1="27.56" x2="25.84" y2="27.56" xlink:href="#white_left"/><linearGradient id="linear-gradient-21" x1="22.96" y1="29.87" x2="25.25" y2="33.84" gradientTransform="translate(1.07 -0.83) rotate(1.76)" xlink:href="#linear-gradient-3"/><linearGradient id="linear-gradient-22" x1="15.12" y1="34.33" x2="17.27" y2="38.04" gradientUnits="userSpaceOnUse"><stop offset="0" stop-color="#a0e1fa"/><stop offset="1" stop-color="#73c3e1"/></linearGradient><linearGradient id="linear-gradient-23" x1="25.18" y1="39.08" x2="27.65" y2="39.08" xlink:href="#linear-gradient-22"/><linearGradient id="linear-gradient-24" x1="27.82" y1="27.95" x2="32.63" y2="27.95" xlink:href="#linear-gradient-4"/><linearGradient id="linear-gradient-25" x1="14.02" y1="31" x2="18.92" y2="31" xlink:href="#linear-gradient-4"/><linearGradient id="linear-gradient-26" x1="24" y1="26.71" x2="29.69" y2="26.71" gradientTransform="matrix(1, 0, 0, 1, 0, 0)" xlink:href="#linear-gradient-18"/><linearGradient id="linear-gradient-27" x1="16.78" y1="28.52" x2="22.8" y2="28.52" gradientTransform="matrix(1, 0, 0, 1, 0, 0)" xlink:href="#linear-gradient-19"/><linearGradient id="linear-gradient-28" x1="21.24" y1="23.89" x2="25.85" y2="23.89" xlink:href="#linear-gradient-4"/><linearGradient id="white_left-5" x1="16.06" y1="32.61" x2="32.74" y2="32.61" gradientTransform="matrix(1, 0, 0, 1, 0, 0)" xlink:href="#white_left"/><linearGradient id="New_Gradient_Swatch_1-5" x1="21.52" y1="33.14" x2="28.21" y2="33.14" gradientTransform="matrix(1, 0, 0, 1, 0, 0)" xlink:href="#New_Gradient_Swatch_1"/><linearGradient id="white_left-6" x1="21.44" y1="33.14" x2="28.29" y2="33.14" gradientTransform="matrix(1, 0, 0, 1, 0, 0)" xlink:href="#white_left"/><linearGradient id="linear-gradient-29" x1="31.18" y1="26.79" x2="33.26" y2="30.38" xlink:href="#linear-gradient-22"/><linearGradient id="linear-gradient-30" x1="21.02" y1="23.42" x2="23.94" y2="28.48" xlink:href="#linear-gradient-22"/></defs><title>4602__A33AAe__R21XArtboard 1</title><g id="tool_2_ok_copy" data-name="tool  2 *** ok copy"><path class="cls-1" d="M49.76,24.07c-3,0-5.43.32-5.43.7L43.7,34c0,.38,2.75,1.12,5.75,1.12s5.12-.74,5.12-1.12l.63-9.27C55.2,24.39,52.77,24.07,49.76,24.07Z"/><g id="bloc_copy_3" data-name="bloc    **** copy 3"><polygon class="cls-2" points="55.7 46.03 44.33 48.64 56.1 40.45 55.7 46.03"/><polygon class="cls-2" points="44.49 42.5 39.85 42.5 40.06 41.12 42.6 40.29 44.49 42.5"/><polygon class="cls-3" points="55.17 41.11 46.82 47.18 42.6 40.29 55.17 41.11"/><g id="_Path_0.25" data-name="&lt;Path&gt;  0.25"><polygon class="cls-4" points="47.12 44.79 46.82 47.18 43.35 49.3 43.62 44.8 39.38 45.37 39.8 42.32 44.54 42.21 47.12 44.79"/></g><path id="contour_0.5" data-name="contour  0.5" class="cls-5" d="M56.1,40.45l-1,.66L42.6,40.2l-2.54.8-.68,4.37,4.24-.57-.27,4.5,1.06-.68L55.7,46Z"/></g><g id="B1_2_copy_3" data-name="B1 2 ***** copy 3"><polygon id="a1" class="cls-6" points="38.5 50.37 36.62 48.32 37.14 45.9 38.5 47 38.5 50.37"/><polygon id="a2" class="cls-7" points="39.2 46.16 38.09 45.03 37.01 45.9 38.33 47 39.2 46.16"/><polygon id="b1" class="cls-8" points="39.2 46.16 38.09 45.03 38.38 39.74 40.06 41 39.2 46.16"/><polygon id="b2" class="cls-9" points="41.82 40.45 39.4 38.95 38.38 39.74 40.06 41 41.82 40.45"/><polygon id="c1" class="cls-10" points="41.82 40.45 39.4 38.95 39.38 33.21 41.37 34.47 41.82 40.45"/><polygon id="c2" class="cls-11" points="56.87 33.92 52.96 32.3 39.42 33.21 41.4 34.49 56.87 33.92"/><polyline id="contour" class="cls-12" points="56.87 33.92 52.96 32.3 39.42 33.21 39.38 33.21 39.4 38.95 38.38 39.74 38.09 45.03 37.01 45.9 36.62 48.32 38.5 50.37"/></g><g id="cyl_2_copy_4" data-name="cyl 2 copy 4"><path id="corps" class="cls-13" d="M57.5,34.33c0,.72-1.69,1.39-7.64,1.51-4.68.1-8.38-.63-8.38-1.34l.38,5.89c0,.72,3.57,1.45,7.81,1.45s7.83-.58,7.83-1.3Z"/><path id="corps-2" data-name="corps" class="cls-14" d="M57.5,34.33c0,.72-1.69,1.39-7.64,1.51-4.68.1-8.38-.63-8.38-1.34l.38,5.89c0,.72,3.57,1.45,7.81,1.45s7.83-.58,7.83-1.3Z"/><path class="cls-15" d="M57.67,34.34c0,.83-4,1.5-8.37,1.5s-8-.67-8-1.5,3.56-1.51,8-1.51S57.67,33.5,57.67,34.34Z"/><path class="cls-16" d="M49.3,35.72c-4.62,0-7.84-.73-7.84-1.38S44.68,33,49.3,33s8.25.74,8.25,1.38S53.94,35.72,49.3,35.72Z"/><path d="M49.3,33.08c5,0,8.12.81,8.12,1.26s-3.08,1.25-8.12,1.25-7.71-.83-7.71-1.25,2.72-1.26,7.71-1.26m0-.25c-4.4,0-8,.67-8,1.51s3.56,1.5,8,1.5,8.37-.67,8.37-1.5-4-1.51-8.37-1.51Z"/></g><path class="cls-17" d="M41.86,40.39c0,.72,3.57,1.45,7.81,1.45s7.83-.58,7.83-1.3c0,0,.17-6.28.17-6.38"/><g id="CUT_grand_copy_4" data-name="CUT + grand copy 4"><polygon class="cls-18" points="44.53 45.37 43.61 44.81 39.38 45.37 38.75 44.74 36.22 45.15 35.27 52.64 36.32 53.8 43.48 52.43 44.53 45.37"/><polygon class="cls-19" points="43.48 52.43 36.32 53.8 37.38 46.53 44.54 45.37 43.48 52.43"/><polygon class="cls-20" points="35.27 52.64 36.32 53.8 37.38 46.53 36.22 45.15 35.27 52.64"/><polygon id="ciseau" class="cls-21" points="38.75 44.74 39.38 45.37 43.61 44.81 44.53 45.37 37.7 46.48 37.38 46.53 36.22 45.15 36.22 45.15 38.75 44.74"/></g><g id="cyl_1_copy_4" data-name="cyl 1 copy 4"><g id="Contour_cyl" data-name="Contour  cyl"><path class="cls-22" d="M49.45,35c-3,0-5.51-.71-5.63-1l.63-9.25c.12-.24,2.08-.58,5.31-.58s5.2.34,5.32.58L54.44,34C54.39,34.28,52.54,35,49.45,35Z"/><path d="M49.76,24.32a16.72,16.72,0,0,1,5.19.51L54.32,34c-.23.28-2.09.91-4.87.91A13.56,13.56,0,0,1,44,34l.62-9.15c.32-.22,2.23-.52,5.19-.52m0-.25c-3,0-5.43.32-5.43.7L43.7,34c0,.38,2.75,1.12,5.75,1.12s5.12-.74,5.12-1.12l.63-9.27c0-.38-2.43-.7-5.44-.7Z"/></g><g id="Contour_cyl-2" data-name="Contour  cyl"><path class="cls-23" d="M49.45,35c-3,0-5.51-.71-5.63-1l.63-9.25c.12-.24,2.08-.58,5.31-.58s5.2.34,5.32.58L54.44,34C54.39,34.28,52.54,35,49.45,35Z"/><path class="cls-24" d="M49.76,24.32a16.72,16.72,0,0,1,5.19.51L54.32,34c-.23.28-2.09.91-4.87.91A13.56,13.56,0,0,1,44,34l.62-9.15c.32-.22,2.23-.52,5.19-.52m0-.25c-3,0-5.43.32-5.43.7L43.7,34c0,.38,2.75,1.12,5.75,1.12s5.12-.74,5.12-1.12l.63-9.27c0-.38-2.43-.7-5.44-.7Z"/></g><ellipse id="top_cyl" data-name="top cyl" class="cls-25" cx="49.76" cy="24.77" rx="5.44" ry="0.7"/></g></g><g id="version_02_revision_copy_4" data-name="version 02 revision copy 4"><g id="corps_copy" data-name="corps copy"><ellipse id="arr_non_visible_" data-name="arr (non visible)" class="cls-24" cx="10.69" cy="11.94" rx="3.85" ry="2.4" transform="translate(-4.79 7.8) rotate(-33.17)"/><g id="corps_arr_01" data-name="corps arr   01"><path class="cls-26" d="M9.78,17.58,7.47,14.05a2.31,2.31,0,0,1,.27-2.5,5.51,5.51,0,0,1,4.8-2.49,1.87,1.87,0,0,1,1.37.78l4.78,4.35c-.34-.53-3.21-1.52-3.85-1.6a5.48,5.48,0,0,0-4.79,2.48A2.3,2.3,0,0,0,9.78,17.58Z"/></g><g id="corps_arr_02" data-name="corps arr   02"><path class="cls-27" d="M12,27.49l-4.05-8.7c-.65-1-.55-2.43.42-3.94,1.61-2.51,5-4.26,7.55-3.92a3,3,0,0,1,2.17,1.22l7.11,6.7a3.83,3.83,0,0,0-2.82-1.59c-3.34-.45-7.74,1.84-9.83,5.1C11.27,24.33,11.14,26.22,12,27.49Z"/></g><path id="ccc_2_" data-name="ccc  2**" class="cls-28" d="M24.63,24c-2.09,3.27-6.49,5.55-9.83,5.1s-4.36-3.46-2.27-6.72,6.49-5.55,9.83-5.1S26.72,20.72,24.63,24Zm-1.15-.15c1.69-2.64.87-5.08-1.84-5.44s-6.26,1.48-8,4.12-.88,5.08,1.83,5.45,6.26-1.49,8-4.13"/><path id="lune_" data-name="lune ***" class="cls-29" d="M13.52,27.1l-.29-.43c-.67-1-.57-2.56.46-4.16,1.69-2.64,5.25-4.49,8-4.12a3.12,3.12,0,0,1,2.29,1.28l.28.44a3.08,3.08,0,0,0-2.28-1.29c-2.71-.36-6.27,1.49-8,4.13C13,24.55,12.84,26.07,13.52,27.1Z"/><path id="ccc_1" data-name="ccc 1" class="cls-30" d="M23.76,24.26c-1.69,2.65-5.26,4.49-8,4.13S12.28,25.59,14,23s5.25-4.49,8-4.13S25.45,21.62,23.76,24.26Zm-1.06-.14c1.33-2.07.69-4-1.44-4.27A7.18,7.18,0,0,0,15,23.09c-1.32,2.07-.68,4,1.44,4.27a7.17,7.17,0,0,0,6.24-3.24"/><path id="corps_arr_03" data-name="corps arr   03" class="cls-31" d="M17.25,30.3l-2.58-3.95A3,3,0,0,1,15,23.09a7.18,7.18,0,0,1,6.24-3.24,2.47,2.47,0,0,1,1.8,1l2.58,3.95a2.41,2.41,0,0,0-1.79-1A7.13,7.13,0,0,0,17.61,27,3,3,0,0,0,17.25,30.3Z"/><path class="cls-32" d="M25.7,28.71A7.12,7.12,0,0,1,19.46,32c-2.12-.28-2.76-2.2-1.43-4.27a7.17,7.17,0,0,1,6.24-3.24C26.39,24.73,27,26.64,25.7,28.71Zm-.64-.08c1.1-1.73.56-3.32-1.2-3.55a6,6,0,0,0-5.19,2.69c-1.1,1.72-.56,3.31,1.2,3.55a6,6,0,0,0,5.19-2.69"/><path class="cls-33" d="M17.67,30.94l-.42-.64A3,3,0,0,1,17.61,27a7.13,7.13,0,0,1,6.24-3.23,2.41,2.41,0,0,1,1.79,1l.42.64a2.47,2.47,0,0,0-1.79-1A7.17,7.17,0,0,0,18,27.68,3,3,0,0,0,17.67,30.94Z"/><path class="cls-34" d="M22.77,34.53a2.61,2.61,0,0,1-.4,0A1.72,1.72,0,0,1,21,33.64a2.21,2.21,0,0,1,.23-2l.12-.2A5.52,5.52,0,0,1,25.6,29a2.68,2.68,0,0,1,.4,0,1.58,1.58,0,0,1,1.54,1.59A2.87,2.87,0,0,1,27,32.08a5.54,5.54,0,0,1-4.26,2.45Z"/><path class="cls-24" d="M25.6,29.06a2.55,2.55,0,0,1,.39,0,1.48,1.48,0,0,1,1.45,1.49,2.7,2.7,0,0,1-.5,1.46,5.42,5.42,0,0,1-4.17,2.4,2.55,2.55,0,0,1-.39,0,1.61,1.61,0,0,1-1.3-.81,2.11,2.11,0,0,1,.22-1.94l.12-.2a5.45,5.45,0,0,1,4.18-2.4m0-.2a5.63,5.63,0,0,0-4.34,2.49,2.39,2.39,0,0,0-.13.21c-.84,1.5-.32,2.84,1.22,3.05l.42,0a5.6,5.6,0,0,0,4.34-2.49,3.09,3.09,0,0,0,.53-1.56A1.68,1.68,0,0,0,26,28.88l-.42,0Z"/><path class="cls-24" d="M21.06,33.94l-2.6-3.35a2.42,2.42,0,0,1,.21-2.82,6,6,0,0,1,5.19-2.69,2,2,0,0,1,1.56,1h0l1,1.86,1,1.87A1.82,1.82,0,0,0,26,28.88a5.47,5.47,0,0,0-4.76,2.47A2.23,2.23,0,0,0,21.06,33.94Z"/></g><g id="_G_grandroup_" data-name="&lt;G+ grandroup&gt;" class="cls-35"><polygon class="cls-36" points="13.92 35.9 13.9 35.03 17.18 34.46 18.47 36.46 18.49 37.33 15.12 37.99 13.92 35.9"/><path class="cls-37" d="M17.12,34.6l1.24,1.93v.69l-3.17.63-1.16-2v-.7l3.09-.54m.12-.28-.16,0-3.1.54-.21,0v1l0,.06L15,38l.09.16.18,0,3.17-.62.21,0v-1l0-.06-1.24-1.93-.1-.14Z"/><polygon class="cls-37" points="15.19 37.84 14.03 35.84 14.03 35.14 15.19 37.15 15.19 37.84"/><polygon class="cls-38" points="18.36 36.53 18.36 37.22 15.19 37.84 15.19 37.15 18.36 36.53"/><polygon class="cls-39" points="15.19 37.15 14.03 35.14 17.12 34.6 18.36 36.53 15.19 37.15"/></g><g id="_grand" data-name="+   grand" class="cls-35"><polygon class="cls-40" points="25.18 39.74 25.41 36.42 26.36 36.32 27.65 38.41 27.42 41.74 26.47 41.85 25.18 39.74"/><path class="cls-37" d="M26.29,36.45l1.26,2-.25,3.14-.76.09-1.26-2,.25-3.14.76-.09m.13-.27-.16,0-.76.08-.21,0,0,.21L25,39.66v.08l.05.07,1.25,2,.09.14.16,0,.76-.09.21,0,0-.21.24-3.14v-.08l0-.07-1.25-2-.09-.14Z"/><polygon id="_bottom_" data-name="(bottom )" class="cls-41" points="26.54 41.71 25.29 39.68 26.05 39.57 27.3 41.62 26.54 41.71"/><polygon class="cls-38" points="27.55 38.48 27.3 41.62 26.54 41.71 26.78 38.56 27.55 38.48"/><g id="face_G" data-name="face G"><polygon class="cls-37" points="26.54 41.71 25.29 39.68 25.52 36.54 26.78 38.56 26.54 41.71"/></g><g id="top"><polygon class="cls-39" points="26.78 38.56 25.52 36.54 26.29 36.45 27.55 38.48 26.78 38.56"/></g></g><g id="contour_copy_5" data-name="contour copy 5"><g id="prof_1_copy_7" data-name="prof 1 copy 7"><path class="cls-42" d="M32.63,29.62,30.49,26a.3.3,0,0,0-.33-.11l-.13,0-2.16.46-.32-.54a3.77,3.77,0,0,0-2.15-1.63L24,21.87a.29.29,0,0,0-.33-.12l-2.61.57a.75.75,0,0,0-.37.29l-.05,2.05a8,8,0,0,0-3.85,4.1l-2.41.51a.42.42,0,0,0-.35.38L14,32s2.17,3.6,2.17,3.6l.27.13,2.49-.53a3.62,3.62,0,0,0,2.33,2.18l1.47,2.4c0,.09.29.14.44.11l2.44-.54c.2,0,.39-.22.39-.39l0-.15,0-1.88a7.42,7.42,0,0,0,3.89-4.07l2.21-.47.13,0a.44.44,0,0,0,.37-.39l0-2.21A.25.25,0,0,0,32.63,29.62Z"/><path class="cls-24" d="M22.68,39.65V39.5l0-1.88L20.56,34l0,1.88v.14a.28.28,0,0,0,0,.13l2.14,3.59A.27.27,0,0,1,22.68,39.65Z"/><path class="cls-43" d="M30.49,26a.3.3,0,0,0-.33-.11l-.13,0-2.21.47L30,30l2.21-.47.13,0a.27.27,0,0,1,.33.11Z"/><g id="_" data-name="****"><path class="cls-2" d="M16.14,35.46l0-2.21L14,29.65l0,2.22A.27.27,0,0,0,14,32l2.14,3.59A.21.21,0,0,1,16.14,35.46Z"/><path class="cls-44" d="M16.78,28.76l-2.21.47-.18,0a.44.44,0,0,0-.37.38l2.14,3.6a.45.45,0,0,1,.37-.39l.18,0,2.21-.47Z"/><path id="cyl" class="cls-45" d="M27.55,25.86l2.14,3.6a4.17,4.17,0,0,0-3.54-1.89L24,24A4.21,4.21,0,0,1,27.55,25.86Z"/></g><path class="cls-46" d="M18.92,32.35l-2.14-3.59a7.38,7.38,0,0,1,3.88-4.08l2.14,3.6A7.37,7.37,0,0,0,18.92,32.35Z"/><path class="cls-2" d="M20.62,24.63l0-1.93a.52.52,0,0,1,.43-.46L23.31,26l-.1,0a.39.39,0,0,0-.32.31l-.05,2.14Z"/><path d="M21.05,22.31l2.14,3.59a.46.46,0,0,0-.37.39l-.05,1.88-2.09-3.58V22.7a.45.45,0,0,1,.37-.39m.07-.17-.1,0a.6.6,0,0,0-.49.54v1.93l0,0,2.09,3.57.27.46v-.53l0-1.88a.31.31,0,0,1,.25-.24l.21,0-.11-.18-2.14-3.6-.06-.09Z"/><path class="cls-47" d="M21.24,22.46,23.69,22h0c.1,0,.14,0,.16,0l2,3.26h-.07l-2.53.56Z"/><path d="M23.78,22l1.87,3.14-2.34.49-1.87-3.14L23.71,22h.07m0-.24h-.09l-2.61.56,2.14,3.59,2.61-.55h.09a.28.28,0,0,1,.25.12L24,21.87a.25.25,0,0,0-.24-.12Z"/><path id="face" class="cls-48" d="M32.3,29.51c.21-.05.37.06.37.23l0,2.21a.44.44,0,0,1-.37.39l-.13,0-2.21.47a7.4,7.4,0,0,1-3.88,4.07l0,1.88v.15a.46.46,0,0,1-.37.39l-2.61.55c-.21,0-.37-.06-.37-.23V39.5l0-1.88a4,4,0,0,1-3.81-2.44l-2.21.48-.18,0c-.2.05-.36-.06-.36-.23l0-2.21a.45.45,0,0,1,.37-.39l.18,0,2.21-.47a7.37,7.37,0,0,1,3.88-4.07l0-1.88v-.11a.46.46,0,0,1,.37-.39l2.61-.55c.2-.05.37.06.37.23v.11l0,1.88A4,4,0,0,1,30,30l2.21-.47Z"/><g id="Layer_42_copy_6" data-name="Layer 42 copy 6"><path d="M24.46,29.78a3.6,3.6,0,0,1,1.67,0,2.31,2.31,0,0,1,1.21.78,2.2,2.2,0,0,1,.17.25,2.45,2.45,0,0,0-1-.49,3.42,3.42,0,0,0-1.66,0,4.55,4.55,0,0,0-1.68.74A4.19,4.19,0,0,0,22,32.34a3.07,3.07,0,0,0-.47,1.51,2.11,2.11,0,0,0,.27,1.08,1.86,1.86,0,0,1-.27-.29,2.08,2.08,0,0,1-.44-1.32,3.07,3.07,0,0,1,.47-1.51,4.31,4.31,0,0,1,1.23-1.29A4.62,4.62,0,0,1,24.46,29.78Z"/><path class="cls-49" d="M24.9,30.31a3.42,3.42,0,0,1,1.66,0,2.45,2.45,0,0,1,1,.49,2.37,2.37,0,0,1,.27.28,2.05,2.05,0,0,1,.43,1.32,2.9,2.9,0,0,1-.46,1.51,4.52,4.52,0,0,1-2.91,2,3.47,3.47,0,0,1-1.67,0A2.31,2.31,0,0,1,22,35.18l-.17-.25a2.11,2.11,0,0,1-.27-1.08A3.07,3.07,0,0,1,22,32.34a4.19,4.19,0,0,1,1.23-1.29A4.55,4.55,0,0,1,24.9,30.31Z"/></g></g><g id="Layer_42_copy_6-2" data-name="Layer 42 copy 6"><path d="M24.46,29.78a3.6,3.6,0,0,1,1.67,0,2.31,2.31,0,0,1,1.21.78,2.2,2.2,0,0,1,.17.25,2.45,2.45,0,0,0-1-.49,3.42,3.42,0,0,0-1.66,0,4.55,4.55,0,0,0-1.68.74A4.19,4.19,0,0,0,22,32.34a3.07,3.07,0,0,0-.47,1.51,2.11,2.11,0,0,0,.27,1.08,1.86,1.86,0,0,1-.27-.29,2.08,2.08,0,0,1-.44-1.32,3.07,3.07,0,0,1,.47-1.51,4.31,4.31,0,0,1,1.23-1.29A4.62,4.62,0,0,1,24.46,29.78Z"/><path class="cls-50" d="M24.9,30.31a3.42,3.42,0,0,1,1.66,0,2.45,2.45,0,0,1,1,.49,2.37,2.37,0,0,1,.27.28,2.05,2.05,0,0,1,.43,1.32,2.9,2.9,0,0,1-.46,1.51,4.52,4.52,0,0,1-2.91,2,3.47,3.47,0,0,1-1.67,0A2.31,2.31,0,0,1,22,35.18l-.17-.25a2.11,2.11,0,0,1-.27-1.08A3.07,3.07,0,0,1,22,32.34a4.19,4.19,0,0,1,1.23-1.29A4.55,4.55,0,0,1,24.9,30.31Z"/><path class="cls-51" d="M24.9,30.31a3.42,3.42,0,0,1,1.66,0,2.45,2.45,0,0,1,1,.49,2.37,2.37,0,0,1,.27.28,2.05,2.05,0,0,1,.43,1.32,2.9,2.9,0,0,1-.46,1.51,4.52,4.52,0,0,1-2.91,2,3.47,3.47,0,0,1-1.67,0A2.31,2.31,0,0,1,22,35.18l-.17-.25a2.11,2.11,0,0,1-.27-1.08A3.07,3.07,0,0,1,22,32.34a4.19,4.19,0,0,1,1.23-1.29A4.55,4.55,0,0,1,24.9,30.31Z"/></g></g><g id="_grand-2" data-name="   + grand" class="cls-35"><polygon class="cls-52" points="29.96 28.41 29.94 27.5 33.26 26.95 34.49 28.77 34.51 29.66 31.09 30.31 29.96 28.41"/><path class="cls-37" d="M33.2,27.09l1.18,1.76v.7l-3.23.62-1.08-1.82v-.74l3.13-.52m.12-.28-.16,0L30,27.36l-.22,0v1l0,.06,1.08,1.82.09.15.18,0,3.23-.61.21,0v-1l0-.07-1.19-1.76-.09-.13Z"/><polygon class="cls-53" points="34.38 29.55 33.2 27.92 33.2 27.09 34.38 28.85 34.38 29.55"/><polygon class="cls-37" points="31.15 30.17 30.07 28.35 30.07 27.61 31.15 29.43 31.15 30.17"/><polygon class="cls-39" points="31.15 29.43 30.07 27.61 33.2 27.09 34.38 28.85 31.15 29.43"/><polygon class="cls-38" points="34.38 28.85 34.38 29.55 31.15 30.17 31.15 29.43 34.38 28.85"/></g><g id="_1_grand" data-name="1**  + grand" class="cls-35"><polygon class="cls-54" points="21.37 26.62 21.35 23.23 22.31 23.12 23.61 25.3 23.62 28.66 22.67 28.77 21.37 26.62"/><path class="cls-37" d="M22.24,23.26l1.26,2.11v3.17l-.77.09-1.25-2.07V23.34l.76-.08m.13-.28-.16,0-.76.09-.23,0v3.52l0,.06,1.25,2.08.09.14.16,0,.77-.09.22,0V25.3l0-.06-1.26-2.11L22.37,23Z"/><polygon class="cls-41" points="22.73 28.63 21.48 26.55 22.24 26.46 23.5 28.55 22.73 28.63"/><polygon class="cls-37" points="22.73 28.63 21.48 26.55 21.48 23.34 22.73 25.45 22.73 28.63"/><polygon class="cls-38" points="23.5 25.37 23.5 28.55 22.73 28.63 22.73 25.45 23.5 25.37"/><polygon class="cls-39" points="22.73 25.45 21.48 23.34 22.24 23.26 23.5 25.37 22.73 25.45"/></g></g></svg>