<svg id="ajusteùent" xmlns="http://www.w3.org/2000/svg" xmlns:xlink="http://www.w3.org/1999/xlink" viewBox="0 0 64 64"><defs><style>.cls-1{fill:url(#linear-gradient);}.cls-2{fill:url(#linear-gradient-2);}.cls-25,.cls-29,.cls-3,.cls-34,.cls-36,.cls-8{fill:none;}.cls-13,.cls-25,.cls-3{stroke:#6d6d6d;}.cls-13,.cls-3,.cls-8{stroke-linecap:round;}.cls-13,.cls-3{stroke-linejoin:round;}.cls-4{fill:#929292;}.cls-5{fill:#fff;}.cls-6{fill:url(#linear-gradient-3);}.cls-7{fill:#00415f;}.cls-8{stroke:#fff;}.cls-25,.cls-29,.cls-34,.cls-8{stroke-miterlimit:10;}.cls-9{fill:url(#linear-gradient-4);}.cls-10{fill:url(#linear-gradient-5);}.cls-11{fill:url(#linear-gradient-6);}.cls-12{fill:#6d6d6d;}.cls-13{fill:url(#linear-gradient-7);}.cls-14{fill:#797979;}.cls-15{fill:url(#linear-gradient-8);}.cls-16{fill:url(#linear-gradient-9);}.cls-17{fill:url(#linear-gradient-10);}.cls-18{fill:url(#linear-gradient-11);}.cls-19{fill:url(#linear-gradient-12);}.cls-20{fill:#2d2d2d;}.cls-21{fill:url(#linear-gradient-13);}.cls-22{fill:url(#linear-gradient-14);}.cls-23{fill:url(#linear-gradient-15);}.cls-24{fill:url(#linear-gradient-16);}.cls-26{fill:url(#linear-gradient-17);}.cls-27{fill:url(#linear-gradient-18);}.cls-28{fill:url(#linear-gradient-19);}.cls-29{stroke:#00415f;}.cls-30{fill:#7abcd4;}.cls-31{fill:url(#linear-gradient-20);}.cls-32{fill:url(#linear-gradient-21);}.cls-33{fill:url(#radial-gradient);}.cls-34{stroke:#000;stroke-width:1.99px;}.cls-35{fill:url(#linear-gradient-22);}</style><linearGradient id="linear-gradient" x1="59.26" y1="27.52" x2="45.78" y2="34.27" gradientUnits="userSpaceOnUse"><stop offset="0" stop-color="#c9c9c9"/><stop offset="1" stop-color="#737373"/></linearGradient><linearGradient id="linear-gradient-2" x1="55.27" y1="27.16" x2="21.7" y2="53.51" gradientUnits="userSpaceOnUse"><stop offset="0" stop-color="#f0f0f0"/><stop offset="1" stop-color="#b3b3b3"/></linearGradient><linearGradient id="linear-gradient-3" x1="47.74" y1="26.48" x2="59.26" y2="15.67" gradientUnits="userSpaceOnUse"><stop offset="0" stop-color="#3d7f95"/><stop offset="0.68" stop-color="#76b7cf"/><stop offset="1" stop-color="#92d3eb"/></linearGradient><linearGradient id="linear-gradient-4" x1="47.83" y1="1.94" x2="11.58" y2="34.19" xlink:href="#linear-gradient"/><linearGradient id="linear-gradient-5" x1="63.31" y1="0.92" x2="11.15" y2="55.65" xlink:href="#linear-gradient-2"/><linearGradient id="linear-gradient-6" x1="25.59" y1="30.73" x2="44.2" y2="30.73" gradientUnits="userSpaceOnUse"><stop offset="0" stop-color="#e1e1e1"/><stop offset="0.28" stop-color="#dfdfdf"/><stop offset="0.38" stop-color="#d8d8d8"/><stop offset="0.45" stop-color="#cdcdcd"/><stop offset="0.5" stop-color="#bebebe"/></linearGradient><linearGradient id="linear-gradient-7" x1="25.57" y1="33.09" x2="43.45" y2="33.09" gradientUnits="userSpaceOnUse"><stop offset="0" stop-color="#c9c9c9"/><stop offset="0" stop-color="#c9c9c9"/><stop offset="0.07" stop-color="#aeaeae"/><stop offset="0.15" stop-color="#989898"/><stop offset="0.25" stop-color="#878787"/><stop offset="0.37" stop-color="#7c7c7c"/><stop offset="0.54" stop-color="#757575"/><stop offset="1" stop-color="#737373"/></linearGradient><linearGradient id="linear-gradient-8" x1="92.8" y1="6.94" x2="26.81" y2="43.47" xlink:href="#linear-gradient-2"/><linearGradient id="linear-gradient-9" x1="25.63" y1="45.19" x2="41.77" y2="30.29" xlink:href="#linear-gradient-3"/><linearGradient id="linear-gradient-10" x1="26.71" y1="37.56" x2="38.42" y2="25.18" xlink:href="#linear-gradient-3"/><linearGradient id="linear-gradient-11" x1="26.74" y1="39.46" x2="35.06" y2="30.66" xlink:href="#linear-gradient-3"/><linearGradient id="linear-gradient-12" x1="33.59" y1="29.52" x2="35.59" y2="29.52" xlink:href="#linear-gradient-2"/><linearGradient id="linear-gradient-13" x1="31.59" y1="25.81" x2="37.59" y2="25.81" xlink:href="#linear-gradient-3"/><linearGradient id="linear-gradient-14" x1="30.59" y1="22.2" x2="38.3" y2="22.2" xlink:href="#linear-gradient-3"/><linearGradient id="linear-gradient-15" x1="56.94" y1="6.67" x2="49.05" y2="20.31" xlink:href="#linear-gradient"/><linearGradient id="linear-gradient-16" x1="33.48" y1="10.24" x2="-30.42" y2="52.38" gradientUnits="userSpaceOnUse"><stop offset="0" stop-color="#f7f7f7"/><stop offset="1" stop-color="#737373"/></linearGradient><linearGradient id="linear-gradient-17" x1="25.1" y1="25.08" x2="-6.41" y2="49.34" xlink:href="#linear-gradient"/><linearGradient id="linear-gradient-18" x1="29.14" y1="15.61" x2="0.64" y2="69.27" xlink:href="#linear-gradient-2"/><linearGradient id="linear-gradient-19" x1="6.97" y1="26.5" x2="22.59" y2="26.5" xlink:href="#linear-gradient-2"/><linearGradient id="linear-gradient-20" x1="17.56" y1="13.81" x2="24.14" y2="13.81" xlink:href="#linear-gradient-2"/><linearGradient id="linear-gradient-21" x1="10.8" y1="26.21" x2="17.94" y2="26.21" xlink:href="#linear-gradient-2"/><radialGradient id="radial-gradient" cx="19.6" cy="15.59" r="7.64" gradientTransform="translate(9.93 -17.54) rotate(18.33) scale(1 1.82)" gradientUnits="userSpaceOnUse"><stop offset="0.42" stop-color="#f0f0f0"/><stop offset="0.58" stop-color="#b3b3b3"/><stop offset="1" stop-color="#5c5c5c"/></radialGradient><linearGradient id="linear-gradient-22" x1="35.69" y1="52.68" x2="48.98" y2="29.66" gradientUnits="userSpaceOnUse"><stop offset="0" stop-color="#379614"/><stop offset="1" stop-color="#55b432"/></linearGradient></defs><g id="Layer_15_copy" data-name="Layer 15 copy"><g id="PC_copy" data-name="PC  ** copy"><polygon class="cls-1" points="47.1 36.18 53.09 34.18 53.09 31.04 47.09 30.04 47.1 36.18"/><polygon class="cls-2" points="58.73 29.79 49.37 32.64 47.24 29.5 47.24 28.14 55.4 25.86 58.7 29.36 58.73 29.79"/><polyline class="cls-3" points="53.86 31.3 49.24 32.63 46.64 28.77 46.64 27.82 55.42 25.41"/><polygon class="cls-4" points="49.9 30.81 48.53 28.85 54.8 27.11 56.52 28.95 49.9 30.81"/><polygon class="cls-5" points="47.03 21.37 54.94 19.28 54.94 25.94 47.03 28.12 47.03 21.37"/><path d="M54.44,19.93v5.63l-6.91,1.91V21.76l6.91-1.83m1-1.3L54.19,19l-6.91,1.83-.75.2v7.79l1.27-.35,6.91-1.91.73-.2V18.63Z"/><polygon class="cls-6" points="47.2 21.22 55.01 19.11 55.01 25.43 47.2 27.59 47.2 21.22"/><path class="cls-7" d="M54.51,19.76V25L47.7,26.93V21.6l6.81-1.84m1-1.3-1.26.34-6.81,1.84-.74.2v7.41L48,27.9,54.78,26l.73-.21V18.46Z"/><line id="pc_2" data-name="pc 2" class="cls-8" x1="48.9" y1="22.72" x2="53.19" y2="21.62"/><line id="pc_1" data-name="pc 1" class="cls-8" x1="48.9" y1="24.82" x2="51.9" y2="24.04"/></g><g id="BOX_copy" data-name="BOX   *** copy"><polygon class="cls-9" points="23.09 47.02 12.09 33.02 12.09 10.66 23.09 21.02 23.09 47.02"/><polygon class="cls-10" points="47.09 40.03 23.09 47.02 23.09 21.02 47.05 15.07 47.09 40.03"/><path class="cls-11" d="M26.09,43.52a.47.47,0,0,1-.3-.1.51.51,0,0,1-.2-.4V23a.51.51,0,0,1,.38-.48L43.58,18l.12,0a.51.51,0,0,1,.31.11.49.49,0,0,1,.19.39V38a.52.52,0,0,1-.36.49l-17.61,5Z"/><path class="cls-12" d="M43.7,18.44V38L26.09,43V23L43.7,18.44m0-1a1.07,1.07,0,0,0-.25,0L25.84,22.06a1,1,0,0,0-.75,1V43a1,1,0,0,0,.4.8.94.94,0,0,0,.6.2l.27,0L44,39a1,1,0,0,0,.73-1V18.44a1,1,0,0,0-.39-.79,1,1,0,0,0-.61-.21Z"/><polygon class="cls-13" points="43.45 38.15 34.42 28.04 25.61 30.25 25.57 36.72 43.45 38.15"/><path class="cls-14" d="M26.09,39.62a.57.57,0,0,1-.3-.1.52.52,0,0,1-.2-.4V32.5A.51.51,0,0,1,26,32l11.69-3.13h.13a.49.49,0,0,1,.3.1L44,33.46a.49.49,0,0,1,.2.4v.62a.52.52,0,0,1-.37.49L26.22,39.6Z"/><path class="cls-12" d="M37.79,29.37l5.91,4.49v.62L26.1,39.12V32.5l11.69-3.13m0-1a1.09,1.09,0,0,0-.26,0L25.84,31.53a1,1,0,0,0-.74,1v6.62a1,1,0,0,0,1,1,1.07,1.07,0,0,0,.25,0L44,35.45a1,1,0,0,0,.75-1v-.62a1,1,0,0,0-.4-.8l-5.91-4.49a1,1,0,0,0-.6-.2Z"/><path class="cls-15" d="M26.09,43.52a.49.49,0,0,1-.3-.1.51.51,0,0,1-.2-.4v-2.8a.5.5,0,0,1,.37-.48L43.47,35l.13,0a.46.46,0,0,1,.3.11.47.47,0,0,1,.2.39v2.33a.5.5,0,0,1-.36.48L26.23,43.5A.32.32,0,0,1,26.09,43.52Z"/><path class="cls-12" d="M43.6,35.49v2.33L26.09,43v-2.8L43.6,35.49m0-1a1.17,1.17,0,0,0-.26,0L25.83,39.26a1,1,0,0,0-.74,1V43a1,1,0,0,0,1,1,1,1,0,0,0,.29,0l17.51-5.2a1,1,0,0,0,.71-1V35.49a1,1,0,0,0-.39-.79,1,1,0,0,0-.61-.21Z"/><g id="ok_copy" data-name="ok ** copy"><g id="ok_" data-name="ok **"><path class="cls-16" d="M29.09,38.83a.5.5,0,0,1-.42-.22.51.51,0,0,1,0-.59L32,33.88a.48.48,0,0,1,.26-.18l6.57-1.85.14,0a.48.48,0,0,1,.32.13l3,2.61a.48.48,0,0,1,.16.49.5.5,0,0,1-.36.37L29.22,38.82Z"/><path class="cls-7" d="M38.92,32.33l3,2.62L29.09,38.33l3.25-4.15,6.58-1.85m0-1a1.26,1.26,0,0,0-.27,0l-6.58,1.85a1,1,0,0,0-.51.35L28.3,37.72a1,1,0,0,0,.79,1.61,1.07,1.07,0,0,0,.25,0l12.85-3.39a1,1,0,0,0,.72-.74,1,1,0,0,0-.32-1l-3-2.61a1,1,0,0,0-.65-.25Z"/></g><g id="pk_" data-name="pk **"><path class="cls-17" d="M29,38.68a.49.49,0,0,1-.39-.19l-2.53-3.24a.49.49,0,0,1,0-.64L29,31.39a.48.48,0,0,1,.36-.16h0a.51.51,0,0,1,.36.15l2.15,2.17a.5.5,0,0,1,.07.61l-2.52,4.28a.49.49,0,0,1-.4.24Z"/><path class="cls-7" d="M29.36,31.73l2.15,2.18L29,38.18l-2.53-3.24,2.9-3.21m0-1h0a1,1,0,0,0-.72.33l-2.9,3.21a1,1,0,0,0,0,1.29L28.2,38.8a1,1,0,0,0,.79.38h.07a1,1,0,0,0,.79-.49l2.52-4.28a1,1,0,0,0-.15-1.21L30.07,31a1,1,0,0,0-.71-.3Z"/></g><g id="ok_2" data-name="ok **"><path class="cls-18" d="M32,34.15a.5.5,0,0,1-.34-.13l-2.28-2.13a.49.49,0,0,1-.15-.48.52.52,0,0,1,.36-.37l6.13-1.64.13,0a.51.51,0,0,1,.31.11l2.58,2a.49.49,0,0,1,.18.49.48.48,0,0,1-.36.39l-6.42,1.78Z"/><path class="cls-7" d="M35.85,29.88l2.58,2L32,33.65l-2.28-2.12,6.13-1.65m0-1a1.17,1.17,0,0,0-.26,0l-6.13,1.64a1,1,0,0,0-.42,1.7l2.28,2.13a1,1,0,0,0,.68.26,1.24,1.24,0,0,0,.27,0l6.43-1.78a1,1,0,0,0,.71-.77,1,1,0,0,0-.37-1l-2.58-2a1,1,0,0,0-.61-.21Z"/></g><g id="ok_3" data-name="ok **"><rect class="cls-19" x="33.59" y="27.52" width="2" height="4" rx="0.5"/><path class="cls-20" d="M35.09,28v3h-1V28h1m0-1h-1a1,1,0,0,0-1,1v3a1,1,0,0,0,1,1h1a1,1,0,0,0,1-1V28a1,1,0,0,0-1-1Z"/></g><g id="ok_4" data-name="ok **"><path class="cls-21" d="M34.39,28.09c-2.07,0-2.8-.91-2.8-1.68V24a.47.47,0,0,1,.15-.35.51.51,0,0,1,.35-.15l5,0a.51.51,0,0,1,.5.5v2.37C37.59,27.51,36,28.09,34.39,28.09Z"/><path class="cls-7" d="M32.09,24l5,0v2.37c0,.65-1.21,1.18-2.7,1.18s-2.3-.53-2.3-1.18V24m0-1a1,1,0,0,0-1,1v2.39c0,1,.87,2.18,3.3,2.18,2.18,0,3.7-.9,3.7-2.18V24a1,1,0,0,0-1-1l-5,0Z"/></g><g id="ok_5" data-name="ok **"><path class="cls-22" d="M34.19,25c-2.22,0-3.6-.88-3.6-1.7V21.41l7.71-2v4C38.3,24.07,36.7,25,34.19,25Z"/><path class="cls-7" d="M37.8,20.09v3.33c-.09.29-1.35,1-3.61,1s-3.1-.86-3.1-1.2V21.8l6.71-1.71m1-1.29L30.09,21v2.24c0,1.11,1.55,2.2,4.1,2.2s4.61-.9,4.61-2V18.8Z"/></g></g><path class="cls-12" d="M43.7,18.44V38L26.09,43V23L43.7,18.44m0-1a1.07,1.07,0,0,0-.25,0L25.84,22.06a1,1,0,0,0-.75,1V43a1,1,0,0,0,.4.8.94.94,0,0,0,.6.2l.27,0L44,39a1,1,0,0,0,.73-1V18.44a1,1,0,0,0-.39-.79,1,1,0,0,0-.61-.21Z"/><g id="bx"><path class="cls-23" d="M44.07,38.41a.57.57,0,0,1-.31-.1.51.51,0,0,1-.19-.4V18.36a.5.5,0,0,1,.37-.49L45,17.59h.13a.54.54,0,0,1,.3.1.49.49,0,0,1,.2.4V37.61a.5.5,0,0,1-.37.48l-1.08.3Z"/><path class="cls-12" d="M45.15,18.08V37.61l-1.08.3V18.36l1.08-.28m0-1a1,1,0,0,0-.25,0l-1.08.28a1,1,0,0,0-.75,1V37.91a1,1,0,0,0,.39.8,1,1,0,0,0,.61.2.84.84,0,0,0,.27,0l1.08-.3a1,1,0,0,0,.73-1V18.08a1,1,0,0,0-.39-.79,1,1,0,0,0-.61-.21Z"/></g><polygon class="cls-24" points="12.09 10.66 23.09 21.02 46.95 15.05 35.54 6.02 12.09 10.66"/><line class="cls-25" x1="23.09" y1="21.02" x2="11.66" y2="10.38"/></g><g id="BLOC_copy" data-name="BLOC  *** copy"><polygon class="cls-26" points="7.09 25.02 12.09 31.02 12.09 49.02 7.09 42.54 7.09 25.02"/><g id="face_" data-name="face **"><path class="cls-27" d="M12.09,49.52a.55.55,0,0,1-.3-.09.54.54,0,0,1-.2-.41V30.57a.5.5,0,0,1,.4-.49L22,28h.1a.47.47,0,0,1,.32.12.49.49,0,0,1,.18.38V46a.5.5,0,0,1-.35.48l-10,3A.39.39,0,0,1,12.09,49.52Z"/><path class="cls-12" d="M22.09,28.44V46l-10,3V30.57l10-2.13m0-1a.76.76,0,0,0-.21,0l-10,2.12a1,1,0,0,0-.79,1V49a1,1,0,0,0,1,1,1,1,0,0,0,.29,0l10-3a1,1,0,0,0,.71-1V28.44a1,1,0,0,0-1-1Z"/></g><g id="top_" data-name="top  ***"><path class="cls-28" d="M12.09,30.52a.49.49,0,0,1-.37-.16L7.1,25.23a.49.49,0,0,1-.1-.49.46.46,0,0,1,.37-.33l9-1.92.1,0a.55.55,0,0,1,.34.13l5.6,5a.51.51,0,0,1,.14.51.47.47,0,0,1-.38.35l-10,2Z"/><path class="cls-12" d="M16.49,23,22.09,28l-10,2L7.47,24.89l9-1.92m0-1a.76.76,0,0,0-.21,0l-9,1.92a1,1,0,0,0-.53,1.64l4.62,5.13a1,1,0,0,0,.74.33h.2l10-2a1,1,0,0,0,.77-.72,1,1,0,0,0-.3-1l-5.6-5.05a1,1,0,0,0-.67-.26Z"/></g><polygon class="cls-4" points="13.59 32.44 20.59 31.13 20.59 39.63 13.59 41.38 13.59 32.44"/><path class="cls-12" d="M20.09,31.73v7.51l-6,1.5V32.85l6-1.12m1-1.21-8,1.5V42l8-2v-9.5Z"/><g id="boton"><rect class="cls-29" x="15.09" y="34.02" width="1" height="1"/><rect class="cls-30" x="15.09" y="34.02" width="1" height="1"/></g></g><g id="Tuyau_Raccord_copy" data-name="Tuyau Raccord ** copy"><g id="T1"><path class="cls-31" d="M20.74,15.5c-1.27,0-3.09-.43-3.15-1.39l0-1.41a.54.54,0,0,1,.14-.36.48.48,0,0,1,.36-.15l5.58-.06a.51.51,0,0,1,.35.15.48.48,0,0,1,.15.36v1.09c0,1.56-2.17,1.7-3,1.75Z"/><path class="cls-12" d="M23.64,12.63h0m0,0v1.09c0,.85-1,1.17-2.52,1.26l-.37,0c-1.39,0-2.62-.49-2.65-.92l0-1.39,5.58-.06m0-1h0l-5.58.06a1,1,0,0,0-.71.3,1,1,0,0,0-.28.72l0,1.39c.09,1.4,2.23,1.9,3.65,1.9l.44,0c.85-.05,3.45-.22,3.45-2.26V12.63a1,1,0,0,0-1-1Zm0,2Z"/></g><g id="ok_6" data-name="ok ***"><path class="cls-32" d="M14,28.27c-1.6,0-3.22-.49-3.22-1.59V25.09a.49.49,0,0,1,.46-.49l6.17-.45a.53.53,0,0,1,.34.13.52.52,0,0,1,.16.37v1.56c0,1.09-1.31,1.89-3.33,2A5.62,5.62,0,0,1,14,28.27Z"/><path class="cls-12" d="M17.44,24.65v1.56c0,.8-1.17,1.42-2.87,1.54a4.87,4.87,0,0,1-.54,0c-1.47,0-2.72-.43-2.72-1.09V25.1l6.13-.45m0-1h-.08l-6.13.45a1,1,0,0,0-.92,1v1.58c0,1.28,1.46,2.1,3.72,2.1.2,0,.41,0,.62,0,2.34-.17,3.79-1.14,3.79-2.54V24.66a1,1,0,0,0-1-1Zm0,2Z"/></g><g id="coude_" data-name="coude ***"><path class="cls-33" d="M14.4,26.36c-2.14,0-2.6-.73-2.68-.95a.33.33,0,0,1,0-.17c0-.07,0-1.59,0-2.7a30.87,30.87,0,0,1,1.15-6.77C13.48,13.76,16.14,8,20,8a3.2,3.2,0,0,1,2.5,1,4.92,4.92,0,0,1,.9,3.49.63.63,0,0,1-.08.23,3.83,3.83,0,0,1-2.42.9,3.5,3.5,0,0,1-.79-.08,12.93,12.93,0,0,0-2.23,3.89,19.23,19.23,0,0,0-1,5.22c0,1.1.1,2.06.1,2.07a.57.57,0,0,1,0,.13A2.56,2.56,0,0,1,14.4,26.36Z"/><path class="cls-12" d="M20,8.51c3.39,0,2.91,4,2.91,4a3.49,3.49,0,0,1-2,.69c-.79,0-.93-.17-.93-.17a13.13,13.13,0,0,0-2.56,4.32,19.24,19.24,0,0,0-1,5.38c0,1.14.1,2.12.1,2.12-.05.33-.78,1.06-2.1,1.06-2,0-2.22-.64-2.22-.64s0-1.55,0-2.65a30.05,30.05,0,0,1,1.13-6.65C14,13.71,16.62,8.51,20,8.51m0-1c-4.17,0-7,6-7.63,8.11a30.78,30.78,0,0,0-1.18,6.89c-.06,1.13,0,2.68,0,2.74a1,1,0,0,0,.07.35c.19.47.85,1.26,3.15,1.26,1.72,0,3-1,3.09-1.9a1.15,1.15,0,0,0,0-.26s-.1-.95-.1-2a18.62,18.62,0,0,1,1-5.05,12.27,12.27,0,0,1,2-3.51l.59,0A4.18,4.18,0,0,0,23.73,13a1,1,0,0,0,.18-.46,5.33,5.33,0,0,0-1-3.88A3.66,3.66,0,0,0,20,7.51Z"/></g></g><g id="contour"><path class="cls-20" d="M36.09,6l11,9v6L55,19v7l3.14,3.51-5,1.49v3l-6,2v4l-24,7L22.25,46,12.09,49l-5-6.48V25l5-1.09V10.66l5.2-1A4.39,4.39,0,0,1,20,8.51a3,3,0,0,1,1.4.31L36.09,6m0-1L35.9,5,21.52,7.78A4.1,4.1,0,0,0,20,7.51,5.17,5.17,0,0,0,16.86,8.7l-5,1a1,1,0,0,0-.81,1V23.13l-4.21.92a1,1,0,0,0-.79,1V42.54a1,1,0,0,0,.21.61l5,6.49a1,1,0,0,0,.79.38,1,1,0,0,0,.29,0l9.51-2.86.42.53a1,1,0,0,0,.78.37.86.86,0,0,0,.28,0l24-7a1,1,0,0,0,.72-1V36.75L53.41,35a1,1,0,0,0,.68-.95V31.77l4.33-1.28a1,1,0,0,0,.46-1.63L56,25.64V19a1,1,0,0,0-.38-.78A1,1,0,0,0,55,18a.67.67,0,0,0-.24,0l-6.67,1.68V15a1,1,0,0,0-.37-.77l-11-9A1,1,0,0,0,36.09,5Z"/></g><polyline id="bord_face_av" data-name="bord face av" class="cls-3" points="46.74 15.11 23.19 21.12 23.19 46.52"/></g><polygon class="cls-5" points="39.46 59.04 25.91 45.3 32.52 38.46 39.17 45.21 53.1 31.09 60.09 38.12 39.46 59.04"/><g id="CHECK_ok_copy" data-name="CHECK ok *** copy"><polyline id="Activate" class="cls-34" points="27.6 44.58 39.43 56.67 58.38 37.47"/><g id="DeActivate"><polygon class="cls-35" points="39.2 46.24 32.5 39.43 28.44 43.62 39.44 54.84 57.5 36.53 53.11 32.05 39.2 46.24"/></g><rect class="cls-36" x="-1.45" y="-4.15" width="64" height="64"/><rect id="cadre_32_" data-name="cadre   32 ****" class="cls-36" x="-1.45" y="-4.15" width="64" height="64"/></g></svg>