<svg id="Layer_36_copy_5" data-name="Layer 36 copy 5" xmlns="http://www.w3.org/2000/svg" xmlns:xlink="http://www.w3.org/1999/xlink" viewBox="0 0 64 64"><defs><style>.cls-1,.cls-10,.cls-2,.cls-4,.cls-5,.cls-8{stroke:#6d6d6d;}.cls-1,.cls-10,.cls-11,.cls-12,.cls-14,.cls-15,.cls-17,.cls-2,.cls-24,.cls-3,.cls-5,.cls-6,.cls-8,.cls-9{stroke-linecap:round;}.cls-1,.cls-10,.cls-11,.cls-12,.cls-13,.cls-14,.cls-15,.cls-17,.cls-2,.cls-20,.cls-3,.cls-4,.cls-5,.cls-6,.cls-8,.cls-9{stroke-linejoin:round;}.cls-1{fill:url(#linear-gradient);}.cls-10,.cls-11,.cls-12,.cls-13,.cls-16,.cls-2,.cls-3,.cls-4,.cls-5,.cls-6,.cls-8{stroke-width:0.75px;}.cls-2,.cls-3{fill:url(#linear-gradient-2);}.cls-11,.cls-12,.cls-13,.cls-3,.cls-9{stroke:#323232;}.cls-13,.cls-16,.cls-4,.cls-7{fill:#fff;}.cls-5{fill:url(#linear-gradient-4);}.cls-25,.cls-6,.cls-9{fill:#323232;}.cls-6{stroke:#000;}.cls-8{fill:url(#linear-gradient-5);}.cls-10{fill:url(#linear-gradient-6);}.cls-11{fill:url(#linear-gradient-7);}.cls-12,.cls-14,.cls-24{fill:none;}.cls-14,.cls-24{stroke:#2d2d2d;}.cls-15,.cls-16,.cls-17,.cls-20{stroke:#00415f;}.cls-15{fill:url(#linear-gradient-8);}.cls-16{stroke-linecap:square;}.cls-17{fill:url(#linear-gradient-9);}.cls-18{fill:url(#linear-gradient-10);}.cls-19{fill:#6d6d6d;}.cls-20{fill:url(#linear-gradient-11);}.cls-21{fill:url(#linear-gradient-12);}.cls-22{fill:url(#linear-gradient-13);}.cls-23{fill:#2d2d2d;}.cls-24{stroke-miterlimit:10;stroke-width:0.68px;}</style><linearGradient id="linear-gradient" x1="39.7" y1="16.5" x2="48.88" y2="46.52" gradientUnits="userSpaceOnUse"><stop offset="0" stop-color="#c9c9c9"/><stop offset="1" stop-color="#737373"/></linearGradient><linearGradient id="linear-gradient-2" x1="17.51" y1="23.62" x2="22.29" y2="33.81" gradientUnits="userSpaceOnUse"><stop offset="0" stop-color="#f0f0f0"/><stop offset="1" stop-color="#b3b3b3"/></linearGradient><linearGradient id="linear-gradient-4" x1="38.25" y1="21.78" x2="41.95" y2="29.68" xlink:href="#linear-gradient-2"/><linearGradient id="linear-gradient-5" x1="23.42" y1="22.81" x2="26.7" y2="33.54" xlink:href="#linear-gradient"/><linearGradient id="linear-gradient-6" x1="16.6" y1="23.85" x2="30.66" y2="69.85" xlink:href="#linear-gradient"/><linearGradient id="linear-gradient-7" x1="42.29" y1="26.15" x2="55.65" y2="54.69" xlink:href="#linear-gradient-2"/><linearGradient id="linear-gradient-8" x1="30.81" y1="32.32" x2="41.8" y2="50.64" gradientUnits="userSpaceOnUse"><stop offset="0" stop-color="#83d1e8"/><stop offset="0.23" stop-color="#79c4dc"/><stop offset="0.39" stop-color="#daf0fc"/><stop offset="0.58" stop-color="#69acc2"/><stop offset="1" stop-color="#5095ac"/></linearGradient><linearGradient id="linear-gradient-9" x1="48.7" y1="32.32" x2="55.93" y2="32.32" gradientUnits="userSpaceOnUse"><stop offset="0" stop-color="#83d1e8"/><stop offset="0.56" stop-color="#5097ae"/><stop offset="1" stop-color="#25677e"/></linearGradient><linearGradient id="linear-gradient-10" x1="50.81" y1="23.12" x2="53.81" y2="23.12" gradientUnits="userSpaceOnUse"><stop offset="0.1" stop-color="#575757"/><stop offset="0.5" stop-color="#c3c3c3"/><stop offset="1" stop-color="#fff"/></linearGradient><linearGradient id="linear-gradient-11" x1="48.7" y1="33.23" x2="55.93" y2="33.23" gradientUnits="userSpaceOnUse"><stop offset="0.1" stop-color="#195b73"/><stop offset="0.5" stop-color="#5a9bb4"/><stop offset="1" stop-color="#93d0ed"/></linearGradient><linearGradient id="linear-gradient-12" x1="43.03" y1="18.12" x2="58.82" y2="18.12" xlink:href="#linear-gradient-10"/><linearGradient id="linear-gradient-13" x1="41.37" y1="22.6" x2="57.43" y2="9.03" xlink:href="#linear-gradient-10"/></defs><title>38 804_OK_ Artboard 1</title><polygon class="cls-1" points="29.14 19.73 29.13 23.73 33.52 24.83 39.1 21.73 41.93 22.29 41.94 26.95 51.73 29.29 51.73 39 55.06 36.09 55.06 24.92 29.14 19.73"/><polygon class="cls-2" points="29.14 19.72 29.13 23.73 23.45 22.39 20.19 23.8 20.2 32.28 10.26 36.85 10.26 28.31 29.14 19.72"/><polygon class="cls-3" points="29.14 19.72 29.13 23.73 23.45 22.39 20.19 23.8 20.2 32.28 10.26 36.85 10.26 28.31 29.14 19.72"/><polygon class="cls-4" points="10.26 36.85 19.41 32.63 19.38 40.42 10.26 36.85"/><polygon class="cls-5" points="41.94 26.95 41.94 22.19 36.56 25.66 41.94 26.95"/><polygon class="cls-6" points="29.14 19.73 29.13 23.73 33.52 24.83 39.1 21.73 41.93 22.29 41.94 26.95 51.73 29.29 51.73 39 55.06 36.09 55.06 24.92 29.14 19.73"/><polygon class="cls-7" points="55.06 36.09 51.73 35.13 51.73 39.03 55.06 36.09"/><polygon class="cls-8" points="20.19 23.8 30.51 26.4 20.23 31.96 20.19 23.8"/><polygon class="cls-9" points="20.19 23.8 30.51 26.4 20.23 31.96 20.19 23.8"/><polygon id="_" data-name="****" class="cls-10" points="40.35 48.29 30.92 44.72 25.67 41.56 23.41 37.73 23.41 33.32 20.26 32.2 19.98 32.15 19.35 32.21 19.38 40.42 10.26 36.85 10.26 28.31 6.59 26.92 6.6 44.36 40.35 57.44 40.35 48.29"/><polygon class="cls-11" points="57.45 23.05 55.06 24.92 55.06 36.09 51.73 39 51.72 29.29 49.63 30.9 49.63 40.31 40.33 48.29 40.33 57.44 57.45 41.77 57.45 23.05"/><polyline class="cls-12" points="57.45 40.35 57.45 23.05 55.06 24.92 55.06 36.09 51.73 39 51.72 29.29 49.63 30.9 49.63 40.31"/><polygon class="cls-9" points="33.68 27.21 49.63 30.9 49.63 43.91 33.67 35.79 33.68 27.21"/><polygon class="cls-4" points="57.45 23.05 29.17 16.95 6.59 26.92 10.26 28.31 29.15 19.72 55.06 24.92 57.45 23.05"/><polyline class="cls-13" points="21.47 23.23 29.15 19.72 55.06 24.92 57.45 23.05 29.17 16.95 6.59 26.92"/><path class="cls-14" d="M57.45,23.05,29.17,17l-22.58,10V44.36L40.33,57.44,57.45,41.77Z"/><path class="cls-15" d="M49.63,43.91l-8.54-4.43c-3.28-1.54-7.41-4.79-7.41-8.7V27.21L23.39,33.32v4.41c0,4.43,4.77,8.85,9,10.38l7.91,3.78Z"/><path class="cls-16" d="M51.72,29.29,36.54,25.62l5.35-3.35-2.78-.55-5.6,3.11L23.37,22.36l-3.19,1.45,10.36,2.6S19,32.07,19.39,32.14l4,1.18,10.29-6.1,16,3.68Z"/><g id="tool_copy" data-name="tool *** copy"><path class="cls-7" d="M52.33,40.71a3.92,3.92,0,0,1-3.9-3.5V25.14A1.15,1.15,0,0,1,49,24.7l1-.35v-2.2l4.22,0v1l1,.34a7.94,7.94,0,0,0,1.18.28h0V37.21A4.18,4.18,0,0,1,52.33,40.71Z"/><path class="cls-7" d="M51.55,23.66h1.22v.61l2,.69L55,25V37.2a2.83,2.83,0,0,1-2.65,2,2.49,2.49,0,0,1-2.4-2V26l1.62-.53V23.66M45.44,19c0,1.66-.08,3.24,3.11,3.82v.46a2.25,2.25,0,0,0-1.62,1.79V37.21a5.42,5.42,0,0,0,5.4,5,5.68,5.68,0,0,0,5.65-5V23c0-.63-1.24-.55-2.21-.88,0-.64,0-1.43,0-1.43l-7.23,0s-.33-1-3.14-1.66Z"/><ellipse class="cls-7" cx="52.31" cy="25.83" rx="3.62" ry="1.81"/><path class="cls-17" d="M55.93,25.83c0-1-1.62-1.81-3.62-1.81s-3.61.81-3.61,1.81V37a2,2,0,0,0,0,.22,3.61,3.61,0,0,0,3.17,3.35,2,2,0,0,0,.42,0,2,2,0,0,0,.43,0,3.59,3.59,0,0,0,3.16-3.35,1,1,0,0,0,0-.22Z"/><path class="cls-18" d="M52.31,25.92c-1,0-1.5-.5-1.5-.7V20.33h3v4.89C53.81,25.42,53.29,25.92,52.31,25.92Z"/><path class="cls-19" d="M53.31,20.83v4.28a1.46,1.46,0,0,1-1,.31,1.48,1.48,0,0,1-1-.31V20.83h2m1-1h-4v5.39c0,.58.84,1.2,2,1.2s2-.62,2-1.2V19.83Z"/><path class="cls-20" d="M52.31,27.63c-2,0-3.61-.81-3.61-1.8V37a3.62,3.62,0,0,0,7.23,0V25.83C55.93,26.82,54.31,27.63,52.31,27.63Z"/><path class="cls-21" d="M52.31,21.23c-3.88,0-6.5-1.55-6.5-3V15h13v3.22C58.81,19.68,56.2,21.23,52.31,21.23Z"/><path class="cls-19" d="M58.31,15.51v2.72c0,1.05-2.28,2.5-6,2.5s-6-1.45-6-2.5V15.51h12m1-1h-14v3.72c0,1.94,3.14,3.5,7,3.5s7-1.56,7-3.5V14.51Z"/><path class="cls-22" d="M52.31,17.51c-3.88,0-6.5-1.55-6.5-3a1.51,1.51,0,0,1,.32-.88l.09-.13,5-6.6a1.53,1.53,0,0,1,1.07-.31,1.51,1.51,0,0,1,1.07.31l.15.2h0l4.91,6.46,0,.07a1.5,1.5,0,0,1,.31.88C58.81,16,56.2,17.51,52.31,17.51Z"/><path class="cls-19" d="M52.31,7.09a1.48,1.48,0,0,1,.7.14l.28.37h0L58,13.78l.1.14a1,1,0,0,1,.22.59c0,1-2.28,2.5-6,2.5s-6-1.46-6-2.5a1,1,0,0,1,.23-.59l.09-.14,4.7-6.18h0l.28-.37a1.46,1.46,0,0,1,.69-.14m0-1a1.9,1.9,0,0,0-1.47.51h0l-5.12,6.73h0a2,2,0,0,0-.41,1.17c0,1.93,3.14,3.5,7,3.5s7-1.57,7-3.5a2,2,0,0,0-.4-1.17h0L53.79,6.6h0a1.92,1.92,0,0,0-1.48-.51Z"/><path class="cls-23" d="M52.31,7.09a1.48,1.48,0,0,1,.7.14l.28.37h0L58,13.78l.1.14a1,1,0,0,1,.22.59v3.72c0,.86-1.55,2-4.14,2.37l-.86.12v4.39a1.46,1.46,0,0,1-1,.31,1.48,1.48,0,0,1-1-.31V20.72l-.85-.12c-2.6-.39-4.15-1.51-4.15-2.37V14.51a1,1,0,0,1,.23-.59l.09-.14,4.7-6.18h0l.28-.37a1.46,1.46,0,0,1,.69-.14m0-1a1.9,1.9,0,0,0-1.47.51h0l-5.12,6.73h0a2,2,0,0,0-.41,1.17v3.72c0,1.59,2.11,2.93,5,3.36v3.63c0,.58.84,1.2,2,1.2s2-.62,2-1.2V21.59c2.89-.43,5-1.77,5-3.36V14.51a2,2,0,0,0-.4-1.17h0L53.79,6.6h0a1.92,1.92,0,0,0-1.48-.51Z"/><line class="cls-24" x1="52.31" y1="6.83" x2="55.87" y2="14.29"/><path class="cls-23" d="M52.31,6.09c-.81,0-1.47.33-1.47.74s.66.74,1.47.74,1.48-.33,1.48-.74-.66-.74-1.48-.74Z"/></g><g id="raccord_copy" data-name="raccord    *** copy"><polygon class="cls-19" points="19.67 24.43 18.28 24.32 19.06 23.91 19.67 23.63 19.67 24.43"/><polygon class="cls-25" points="21.66 26.05 19.7 24.9 19.68 24.06 24.41 25.29 21.66 26.05"/><polygon class="cls-7" points="23.45 24.23 18.81 23.08 21.47 22.24 26.2 23.47 23.45 24.23"/><polygon class="cls-7" points="39.39 23.36 38.38 22.56 40.7 21.25 42.87 21.25 39.39 23.36"/></g></svg>