<svg id="Layer_1" data-name="Layer 1" xmlns="http://www.w3.org/2000/svg" xmlns:xlink="http://www.w3.org/1999/xlink" viewBox="0 0 64 64"><defs><style>.cls-1,.cls-10,.cls-18,.cls-21,.cls-22,.cls-25,.cls-26,.cls-29{stroke:#6d6d6d;}.cls-1,.cls-10,.cls-18,.cls-21,.cls-22,.cls-25,.cls-26,.cls-29,.cls-30,.cls-31{stroke-linecap:round;stroke-linejoin:round;}.cls-1{fill:url(#linear-gradient);}.cls-2{fill:url(#linear-gradient-2);}.cls-10,.cls-3{fill:#6d6d6d;}.cls-4{fill:url(#linear-gradient-3);}.cls-5{fill:url(#linear-gradient-4);}.cls-6{fill:url(#linear-gradient-5);}.cls-7{fill:url(#linear-gradient-6);}.cls-8{fill:url(#linear-gradient-7);}.cls-9{fill:url(#linear-gradient-8);}.cls-11{fill:url(#linear-gradient-9);}.cls-12{fill:url(#linear-gradient-10);}.cls-13{fill:url(#linear-gradient-11);}.cls-14{fill:url(#linear-gradient-12);}.cls-15{fill:url(#linear-gradient-13);}.cls-16{fill:url(#linear-gradient-14);}.cls-17{fill:url(#linear-gradient-15);}.cls-18{fill:url(#linear-gradient-16);}.cls-19{fill:url(#linear-gradient-17);}.cls-20{fill:#343434;}.cls-21{fill:url(#linear-gradient-18);}.cls-22{fill:url(#linear-gradient-19);}.cls-23{fill:url(#linear-gradient-20);}.cls-24{fill:#00415f;}.cls-25{fill:url(#linear-gradient-21);}.cls-26{fill:url(#linear-gradient-22);}.cls-27,.cls-29,.cls-30,.cls-31{fill:none;}.cls-27{stroke:#fff;stroke-miterlimit:10;}.cls-28{fill:#939393;}.cls-30{stroke:#343434;}.cls-31{stroke:#00415f;}</style><linearGradient id="linear-gradient" x1="36.95" y1="47.46" x2="56.23" y2="47.46" gradientUnits="userSpaceOnUse"><stop offset="0.01" stop-color="#4d4d4d"/><stop offset="1" stop-color="#c7c7c9"/></linearGradient><linearGradient id="linear-gradient-2" x1="57.94" y1="37.1" x2="33.17" y2="52.41" gradientUnits="userSpaceOnUse"><stop offset="0" stop-color="#f0f0f0"/><stop offset="1" stop-color="#b3b3b3"/></linearGradient><linearGradient id="linear-gradient-3" x1="52.04" y1="46.97" x2="55.14" y2="46.97" xlink:href="#linear-gradient-2"/><linearGradient id="linear-gradient-4" x1="40" y1="39.37" x2="42.54" y2="39.37" xlink:href="#linear-gradient-2"/><linearGradient id="linear-gradient-5" x1="40.5" y1="43.9" x2="52.61" y2="43.9" xlink:href="#linear-gradient"/><linearGradient id="linear-gradient-6" x1="41.01" y1="41" x2="53.12" y2="41" xlink:href="#linear-gradient-2"/><linearGradient id="linear-gradient-7" x1="45.36" y1="31.23" x2="51.59" y2="31.23" xlink:href="#linear-gradient-2"/><linearGradient id="linear-gradient-8" x1="50.16" y1="35.77" x2="42.98" y2="35.77" gradientUnits="userSpaceOnUse"><stop offset="0" stop-color="#f0f0f0"/><stop offset="0.12" stop-color="#e5e5e5"/><stop offset="0.33" stop-color="#c9c9c9"/><stop offset="0.59" stop-color="#9b9b9b"/><stop offset="0.91" stop-color="#5d5d5d"/><stop offset="1" stop-color="#4a4a4a"/></linearGradient><linearGradient id="linear-gradient-9" x1="53.04" y1="31.41" x2="41.69" y2="39.62" xlink:href="#linear-gradient-2"/><linearGradient id="linear-gradient-10" x1="44.15" y1="22.08" x2="39.19" y2="26.77" gradientUnits="userSpaceOnUse"><stop offset="0.18" stop-color="#f0f0f0"/><stop offset="0.3" stop-color="#e9e9e9"/><stop offset="0.47" stop-color="#d5d5d5"/><stop offset="0.68" stop-color="#b5b5b5"/><stop offset="0.91" stop-color="#888"/><stop offset="1" stop-color="#757575"/></linearGradient><linearGradient id="linear-gradient-11" x1="37.79" y1="13.17" x2="33.57" y2="16.94" gradientUnits="userSpaceOnUse"><stop offset="0.41" stop-color="#f0f0f0"/><stop offset="0.61" stop-color="#d0d0d0"/><stop offset="1" stop-color="#8c8c8c"/></linearGradient><linearGradient id="linear-gradient-12" x1="31.72" y1="17.94" x2="39.36" y2="17.94" xlink:href="#linear-gradient-2"/><linearGradient id="linear-gradient-13" x1="34.08" y1="18.06" x2="37.43" y2="18.06" xlink:href="#linear-gradient-2"/><linearGradient id="linear-gradient-14" x1="25.19" y1="22.29" x2="30.03" y2="27.13" gradientUnits="userSpaceOnUse"><stop offset="0" stop-color="#f0f0f0"/><stop offset="1" stop-color="#919191"/></linearGradient><linearGradient id="linear-gradient-15" x1="17.58" y1="31.43" x2="26.68" y2="31.43" xlink:href="#linear-gradient-14"/><linearGradient id="linear-gradient-16" x1="38.19" y1="17.24" x2="31.27" y2="22.61" xlink:href="#linear-gradient-2"/><linearGradient id="linear-gradient-17" x1="17.21" y1="32.55" x2="25.02" y2="32.55" xlink:href="#linear-gradient-2"/><linearGradient id="linear-gradient-18" x1="12.31" y1="48.04" x2="34.64" y2="48.04" xlink:href="#linear-gradient-2"/><linearGradient id="linear-gradient-19" x1="7.06" y1="42.01" x2="20.25" y2="42.01" xlink:href="#linear-gradient-2"/><linearGradient id="linear-gradient-20" x1="10.32" y1="45.17" x2="22.21" y2="34.01" gradientUnits="userSpaceOnUse"><stop offset="0" stop-color="#3c7e96"/><stop offset="0.67" stop-color="#74b7d0"/><stop offset="1" stop-color="#92d5ee"/></linearGradient><linearGradient id="linear-gradient-21" x1="12.11" y1="50.66" x2="24.13" y2="50.66" xlink:href="#linear-gradient-2"/><linearGradient id="linear-gradient-22" x1="8.77" y1="50.38" x2="12.5" y2="50.38" xlink:href="#linear-gradient-2"/></defs><title>27-25770_DELOLP_AP_AppIcon_r21x</title><g id="DELMIA___27-DELMIA_Robot_Programming" data-name="DELMIA _ 27-DELMIA Robot Programming"><path class="cls-1" d="M37.27,42.8c-1,2.55,2.52,6.2,7.76,8.14s10.24,1.45,11.19-1.11a9.86,9.86,0,0,0,.36-1.61"/><path class="cls-2" d="M51.69,50a18.5,18.5,0,0,1-6.3-1.23c-5.62-2.09-9.18-6-8.11-8.85.62-1.68,2.67-2.64,5.62-2.64a18.26,18.26,0,0,1,6.3,1.23c5.62,2.08,9.18,6,8.11,8.85C56.69,49.07,54.64,50,51.69,50Z"/><path class="cls-3" d="M42.9,37.82A17.9,17.9,0,0,1,49,39c5.27,1.95,8.77,5.63,7.81,8.2-.56,1.52-2.54,2.32-5.15,2.32a17.9,17.9,0,0,1-6.13-1.2c-5.27-2-8.77-5.63-7.81-8.21.56-1.51,2.54-2.31,5.15-2.31m0-1c-3.17,0-5.39,1.08-6.09,3-1.17,3.14,2.53,7.31,8.41,9.49a19,19,0,0,0,6.47,1.26c3.17,0,5.39-1.08,6.09-3,1.17-3.14-2.53-7.31-8.41-9.49a19,19,0,0,0-6.47-1.26Z"/><path class="cls-4" d="M53.81,47.69h-.29a2.46,2.46,0,0,1-1.16-.4c-.21-.15-.33-.32-.32-.46s.58-.57,1.33-.57l.29,0c.94.09,1.51.57,1.48.85s-.58.57-1.33.57Z"/><path class="cls-3" d="M53.37,46.75l.24,0a2,2,0,0,1,.91.29,1.72,1.72,0,0,1-.71.13h-.24a1.88,1.88,0,0,1-.91-.3,1.9,1.9,0,0,1,.71-.13m0-1c-1,0-1.77.43-1.82,1s.8,1.29,1.93,1.4h.33c1,0,1.77-.42,1.83-1s-.8-1.29-1.93-1.4l-.34,0Z"/><path class="cls-5" d="M41.27,39.91c-.79,0-1.27-.35-1.27-.54s.48-.55,1.27-.55,1.27.35,1.27.55S42.06,39.91,41.27,39.91Z"/><path class="cls-3" d="M41.27,39.32a1.73,1.73,0,0,1,.42,0,2.22,2.22,0,0,1-.84,0,1.73,1.73,0,0,1,.42,0m0-1c-1,0-1.77.47-1.77,1s.79,1,1.77,1S43,40,43,39.37s-.79-1-1.77-1Z"/><path class="cls-6" d="M46.39,46.87c-3.35-.08-5.93-1.68-5.89-3.65v-1.8a.48.48,0,0,1,.15-.36.5.5,0,0,1,.35-.14l11.12.25a.5.5,0,0,1,.36.16.47.47,0,0,1,.12.38l-.16,1.81c0,1.9-2.54,3.35-5.81,3.35Z"/><path class="cls-3" d="M41,41.42l11.11.25-.17,1.81c0,1.62-2.39,2.89-5.31,2.89H46.4c-3-.07-5.44-1.47-5.4-3.14V41.42m0-1a1,1,0,0,0-1,1v1.81c0,2.23,2.75,4.06,6.38,4.14h.25c3.53,0,6.24-1.64,6.31-3.83l.16-1.79a1,1,0,0,0-.25-.75,1,1,0,0,0-.72-.33L41,40.42Z"/><path class="cls-7" d="M47,44.56c-3.4-.07-6-1.7-6-3.69s2.58-3.43,5.9-3.43h.24a8.66,8.66,0,0,1,4.14,1,3.1,3.1,0,0,1,1.83,2.64c0,2-2.58,3.43-5.89,3.43Z"/><path class="cls-3" d="M46.9,37.94h.23c3.07.06,5.53,1.49,5.49,3.18s-2.43,2.93-5.39,2.93H47c-3.07-.07-5.52-1.49-5.49-3.18s2.43-2.94,5.39-2.94m0-1c-3.59,0-6.34,1.69-6.39,3.92a3.58,3.58,0,0,0,2.08,3.08A9.29,9.29,0,0,0,47,45.06h.25c3.59,0,6.34-1.68,6.39-3.91a3.58,3.58,0,0,0-2.08-3.09A9.25,9.25,0,0,0,47.16,37Z"/><path class="cls-8" d="M46.58,35a.45.45,0,0,1-.2,0c-.11,0-1-.5-1-2.15a6.43,6.43,0,0,1,3.08-5,2.35,2.35,0,0,1,1.13-.29c.93,0,2,.63,2,2.42l-.09.56a.5.5,0,0,1-.39.41l-3.89.81-.14,2.83a.49.49,0,0,1-.24.4A.48.48,0,0,1,46.58,35Z"/><path class="cls-3" d="M49.57,28c.76,0,1.52.49,1.52,1.92l-.08.48-4.27.88-.16,3.22s-.72-.32-.72-1.69a5.93,5.93,0,0,1,2.82-4.58,1.79,1.79,0,0,1,.89-.23m0-1a2.85,2.85,0,0,0-1.37.35,6.89,6.89,0,0,0-3.34,5.46,2.65,2.65,0,0,0,1.32,2.61,1,1,0,0,0,.4.08,1.08,1.08,0,0,0,.53-.14,1,1,0,0,0,.47-.81l.12-2.44,3.51-.73a1,1,0,0,0,.79-.82l.08-.48a.86.86,0,0,0,0-.16c0-2-1.27-2.92-2.52-2.92Z"/><path class="cls-9" d="M47.07,42.87c-1.94,0-3.4-.8-3.4-1.87l.16-7.89a.49.49,0,0,1,.2-.39L46.36,31c.08-.06,1.81-1.32,2.79-1.89a2.4,2.4,0,0,1,1.14-.4A.71.71,0,0,1,51,29a.54.54,0,0,1,.06.25L50.46,41C50.46,42.07,49,42.87,47.07,42.87Z"/><path class="cls-3" d="M50.29,29.16c.19,0,.24.09.24.09L50,41c0,.76-1.29,1.37-2.89,1.37s-2.9-.61-2.9-1.37l.16-7.88,2.33-1.77s1.77-1.29,2.74-1.86a2,2,0,0,1,.89-.33m0-1a2.82,2.82,0,0,0-1.39.47c-1,.58-2.75,1.85-2.82,1.91l-2.36,1.78a1,1,0,0,0-.39.78L43.17,41c0,1.4,1.64,2.39,3.9,2.39S51,42.38,51,41l.57-11.7a1.1,1.1,0,0,0-.11-.5,1.22,1.22,0,0,0-1.13-.64Z"/><path class="cls-10" d="M50,28l-2.33-1s-4.27-.48-4.27,3.86c0,1.85.81,2.26.81,2.26l2.25,1.36V30.86S48.11,28,50,28Z"/><path class="cls-11" d="M49.68,35.76a1.28,1.28,0,0,1-.64-.17,1.51,1.51,0,0,1-.67-1.39,3.44,3.44,0,0,1,.51-1.71A2.77,2.77,0,0,1,51,31a1.28,1.28,0,0,1,.64.17c.83.48.9,1.84.16,3.1a2.77,2.77,0,0,1-2.14,1.54Z"/><path class="cls-3" d="M51,31.45a.76.76,0,0,1,.39.1c.58.34.57,1.42,0,2.42a2.32,2.32,0,0,1-1.71,1.29.76.76,0,0,1-.39-.1c-.57-.34-.56-1.42,0-2.42A2.34,2.34,0,0,1,51,31.45m0-1a3.2,3.2,0,0,0-2.57,1.79,4,4,0,0,0-.58,1.95A2,2,0,0,0,48.79,36a1.7,1.7,0,0,0,.89.24,3.23,3.23,0,0,0,2.58-1.79c.89-1.52.74-3.15-.34-3.78a1.76,1.76,0,0,0-.9-.24Z"/><path class="cls-12" d="M44.74,32.35a1.08,1.08,0,0,1-.31-.07.71.71,0,0,1-.14-.1L34.8,22.52a.5.5,0,0,1-.07-.62l3.63-5.56a.47.47,0,0,1,.38-.22h0a.49.49,0,0,1,.37.18l9.42,10.86c.19.24.6.75-1.45,3.08C46.42,31.18,45.41,32.35,44.74,32.35Z"/><path class="cls-3" d="M38.78,16.61l9.41,10.87c.33.4-1.45,2.42-1.45,2.42s-1.44,2-2,2l-.09,0-9.5-9.66,3.63-5.56m0-1h-.07a1,1,0,0,0-.77.45l-3.62,5.55a1,1,0,0,0,.12,1.25l9.5,9.66a1.15,1.15,0,0,0,.26.19,1.13,1.13,0,0,0,.54.13c.31,0,1.06,0,2.78-2.33,1.91-2.17,2-3,1.45-3.66L39.53,16a1,1,0,0,0-.75-.35Z"/><path class="cls-13" d="M33.78,22.59a.65.65,0,0,1-.19,0l-2.52-1.07a3.17,3.17,0,0,1-1.87-2.36,6.12,6.12,0,0,1,.3-3.58C30.31,13.46,32,12,33.68,12a2.8,2.8,0,0,1,1,.18l2.77,1.14a.53.53,0,0,1,.27.28.5.5,0,0,1,0,.38l-3.46,8.29a.53.53,0,0,1-.28.27A.41.41,0,0,1,33.78,22.59Z"/><path class="cls-3" d="M33.68,12.51a2.24,2.24,0,0,1,.81.15l2.76,1.14-3.47,8.29L31.27,21c-1.61-.62-2.19-3-1.3-5.3.75-1.94,2.29-3.21,3.71-3.21m0-1h0c-1.89,0-3.75,1.55-4.64,3.85a6.64,6.64,0,0,0-.33,3.88A3.72,3.72,0,0,0,30.91,22L33.39,23a1.09,1.09,0,0,0,.39.08,1,1,0,0,0,.93-.62l3.46-8.29a1,1,0,0,0-.54-1.31l-2.76-1.14a3.3,3.3,0,0,0-1.19-.22Z"/><path class="cls-14" d="M34.74,22.77a2.8,2.8,0,0,1-1-.18,3.19,3.19,0,0,1-1.88-2.36,6.12,6.12,0,0,1,.3-3.58c.8-2.08,2.52-3.54,4.18-3.54a2.71,2.71,0,0,1,1,.19c1.86.71,2.57,3.38,1.59,5.94-.8,2.08-2.52,3.53-4.18,3.53Z"/><path class="cls-3" d="M36.35,13.61a2.22,2.22,0,0,1,.8.15c1.61.62,2.19,3,1.3,5.3-.75,1.94-2.29,3.21-3.71,3.21a2.27,2.27,0,0,1-.81-.14c-1.6-.62-2.18-3-1.29-5.3.74-1.94,2.28-3.22,3.71-3.22m0-1c-1.89,0-3.76,1.55-4.64,3.86a6.55,6.55,0,0,0-.33,3.88,3.73,3.73,0,0,0,2.19,2.71,3.32,3.32,0,0,0,1.17.21c1.89,0,3.76-1.54,4.64-3.85,1.11-2.87.28-5.76-1.87-6.59a3.27,3.27,0,0,0-1.16-.22Z"/><path class="cls-15" d="M34.73,20.4a1.29,1.29,0,0,1-.61-1,3.77,3.77,0,0,1,.29-2c.53-1.26,1.43-1.92,2.05-1.92a.81.81,0,0,1,.31.06l.66.32-2.15,4.73Z"/><path class="cls-3" d="M36.46,16l.1,0,.21.1L35,20l-.08,0c-.15-.06-.27-.3-.33-.62a3.35,3.35,0,0,1,.26-1.71c.46-1.09,1.22-1.61,1.59-1.61m0-1A3.22,3.22,0,0,0,34,17.23c-.67,1.59-.4,3.22.6,3.64l1,.38,2.55-5.6L37,15.1a1.24,1.24,0,0,0-.5-.1Z"/><path class="cls-16" d="M24.46,32.32a.52.52,0,0,1-.33-.12l-3.3-2.82a.51.51,0,0,1-.07-.69L29.61,17.1c.53-.7.79-.7.92-.7a.58.58,0,0,1,.49.3A4,4,0,0,1,31.21,18a9.53,9.53,0,0,0,.32,2.35,5.64,5.64,0,0,0,1.75,2.33.54.54,0,0,1,.21.37.51.51,0,0,1-.14.39l-8.54,8.7A.47.47,0,0,1,24.46,32.32Z"/><path class="cls-3" d="M30.53,16.9s0,0,0,0c.18.36.08,2.5.49,3.63A6.18,6.18,0,0,0,33,23.12l-8.53,8.7L21.16,29,30,17.41s.38-.51.52-.51m0-1c-.45,0-.84.26-1.32.91L20.36,28.39a1,1,0,0,0,.15,1.37l3.3,2.82a1,1,0,0,0,.65.24,1,1,0,0,0,.71-.3l8.53-8.7a1,1,0,0,0-.13-1.51A5.26,5.26,0,0,1,32,20.21,9.63,9.63,0,0,1,31.71,18a4,4,0,0,0-.24-1.52,1.09,1.09,0,0,0-.94-.58Z"/><path class="cls-17" d="M24.86,35.56a.52.52,0,0,1-.33-.12l-6.78-5.85a.47.47,0,0,1-.17-.35.51.51,0,0,1,.13-.37L19,27.46a.59.59,0,0,1,.4-.17c.54,0,2.42,1.52,3.9,2.8,3.3,2.84,3.34,3.33,3.35,3.49a.58.58,0,0,1-.13.4L25.23,35.4A.5.5,0,0,1,24.86,35.56Z"/><path class="cls-3" d="M19.43,27.79A18.27,18.27,0,0,1,23,30.47c1.87,1.61,3.29,3,3.17,3.18l-1.32,1.41-6.78-5.85,1.31-1.41h0m0-1a1.09,1.09,0,0,0-.8.36l-1.29,1.38A1,1,0,0,0,17.42,30l6.79,5.85a1,1,0,0,0,1.38-.08l1.32-1.41a1.07,1.07,0,0,0,.27-.78c0-.35-.06-.86-3.52-3.84s-3.94-2.92-4.23-2.92Z"/><path class="cls-18" d="M38.55,19.12c.66-1.59.39-3.22-.61-3.64s-2.34.54-3,2.13-.39,3.22.61,3.64S37.88,20.71,38.55,19.12Z"/><path class="cls-19" d="M24.47,36c-.55,0-2.43-1.52-3.91-2.8-2.19-1.88-3.32-3.06-3.35-3.49a.57.57,0,0,1,.13-.4.59.59,0,0,1,.41-.18c.55,0,2.43,1.52,3.91,2.8.91.79,1.75,1.56,2.36,2.17.8.8,1.24,1.28.86,1.71A.59.59,0,0,1,24.47,36Z"/><path class="cls-3" d="M17.75,29.62a18,18,0,0,1,3.58,2.68c1.88,1.61,3.29,3,3.17,3.18h0a18,18,0,0,1-3.58-2.68c-1.88-1.61-3.3-3-3.17-3.18h0m0-1a1,1,0,0,0-1,1.11c0,.34.06.86,3.52,3.84s3.94,2.92,4.24,2.92a1.08,1.08,0,0,0,.79-.36c.7-.81-.11-1.62-.89-2.4-.61-.62-1.46-1.4-2.38-2.19-3.39-2.92-3.94-2.92-4.24-2.92Z"/><path class="cls-20" d="M33.68,12.5a2.24,2.24,0,0,1,.81.15l2.76,1.14h0a3.1,3.1,0,0,1,1.61,2.89L47.77,27h0l2.33,1H50c.59.17,1.09.7,1.09,1.84l-.08.49-.54.11-.06,1.13a1.38,1.38,0,0,1,.62-.17.7.7,0,0,1,.38.1c.58.34.57,1.42,0,2.41a2.83,2.83,0,0,1-1.14,1.14l-.16,3.39a3.58,3.58,0,0,1,2.49,2.25c3.18,2,5,4.55,4.26,6.48l-.62,2.61c-.56,1.51-2.52,2.3-5.12,2.3A17.8,17.8,0,0,1,45,50.93c-5.24-1.94-8.71-5.59-7.76-8.15l.48-2.66c.56-1.51,2.54-2.31,5.15-2.31.43,0,.87,0,1.33.06l.1-4.77s-.81-.4-.81-2.25a1,1,0,0,1,0-.17l-8.33-8.46a3.42,3.42,0,0,1-.45,0,2.27,2.27,0,0,1-.77-.13l-9.51,9.65c1.08,1,1.78,1.76,1.7,1.86l-1.32,1.41-.36.42h0a18,18,0,0,1-3.58-2.68,28.69,28.69,0,0,1-3.17-3.18s.18-.34.36-.42l1.31-1.41h0A7.44,7.44,0,0,1,21.18,29l8.39-11a5.81,5.81,0,0,1,.4-2.26c.75-1.94,2.29-3.21,3.71-3.21m0-.8v0c-1.81,0-3.6,1.49-4.45,3.72a6.71,6.71,0,0,0-.46,2.28L21,27.83C19.88,27,19.64,27,19.43,27h0a.86.86,0,0,0-.64.29l-1.22,1.31a1.83,1.83,0,0,0-.56.67.81.81,0,0,0,.09.88,30.51,30.51,0,0,0,3.26,3.28c3.33,2.87,3.88,2.87,4.11,2.87A.88.88,0,0,0,25.1,36l.37-.43,1.29-1.39c.54-.61.17-1.18-1.13-2.43L34.24,23a4.38,4.38,0,0,0,.52,0h.15l7.82,8a3.56,3.56,0,0,0,.79,2.46L43.45,37H42.9c-3.08,0-5.23,1-5.9,2.83A.74.74,0,0,0,37,40l-.47,2.6c-.52,1.52.1,3.31,1.76,5.06a17.39,17.39,0,0,0,6.5,4,18.51,18.51,0,0,0,6.35,1.24c3.07,0,5.21-1,5.87-2.82L57,50l.61-2.57c.79-2.23-.87-5-4.34-7.22A4.31,4.31,0,0,0,50.91,38l.12-2.4a3.81,3.81,0,0,0,1-1.19c.84-1.42.72-2.93-.26-3.51l-.13-.07a.69.69,0,0,0,.11-.28l.08-.48a.66.66,0,0,0,0-.14,2.52,2.52,0,0,0-1.2-2.41.81.81,0,0,0-.24-.17l-2.19-1-8.63-9.95a3.85,3.85,0,0,0-1.91-3.23.56.56,0,0,0-.17-.09l-2.76-1.14a3,3,0,0,0-1.11-.21Z"/><polygon class="cls-21" points="20.25 43.8 8.8 47.4 12.11 52.28 24.2 48.09 20.25 43.8"/><polygon class="cls-22" points="18.8 36.62 7.06 40.03 8.8 47.4 20.25 43.8 18.8 36.62"/><path class="cls-23" d="M9.77,46.09A.52.52,0,0,1,9.52,46a.49.49,0,0,1-.24-.32L8.21,41.17a.5.5,0,0,1,.35-.59l9.23-2.64a.36.36,0,0,1,.14,0,.48.48,0,0,1,.26.07.49.49,0,0,1,.23.33l.89,4.41a.5.5,0,0,1-.34.58L9.91,46.07Z"/><path class="cls-24" d="M17.93,38.42l.89,4.41-9,2.76L8.7,41.06l9.23-2.64m0-1a.84.84,0,0,0-.27,0L8.42,40.1a1,1,0,0,0-.7,1.19l1.07,4.53a1,1,0,0,0,.48.63,1,1,0,0,0,.5.14,1,1,0,0,0,.29-.05l9-2.75a1,1,0,0,0,.69-1.15l-.89-4.42a1,1,0,0,0-.46-.66,1.07,1.07,0,0,0-.52-.14Z"/><polygon class="cls-25" points="24.13 49.02 12.13 53.37 12.11 52.28 24.08 47.96 24.13 49.02"/><polygon class="cls-26" points="9.17 47.4 8.77 48.01 12.5 53.37 12.5 52.28 9.17 47.4"/><line class="cls-27" x1="9.21" y1="42" x2="17.4" y2="39.69"/><line class="cls-27" x1="9.77" y1="44.46" x2="15.69" y2="42.72"/><polygon class="cls-28" points="13.11 50.19 11.68 48.28 20.26 45.42 21.69 47.33 13.11 50.19"/><polyline class="cls-29" points="16.42 50.39 15.63 49.21 18.73 48.18 19.66 49.32"/><polygon class="cls-30" points="24.2 48.18 20.25 43.89 18.8 36.7 18.18 36.5 6.5 39.83 8.4 48.09 12.13 53.45 24.13 49.11 24.09 48.22 24.2 48.18"/><path class="cls-31" d="M22.72,50.19s7,4.77,10.85,2.86a31.07,31.07,0,0,1,7.77-2.57"/></g></svg>