<svg xmlns="http://www.w3.org/2000/svg" xmlns:xlink="http://www.w3.org/1999/xlink" viewBox="0 0 64 64"><defs><linearGradient id="a" x1="6.5" y1="45.06" x2="57.5" y2="45.06" gradientUnits="userSpaceOnUse"><stop offset="0" stop-color="#f5f5f5"/><stop offset="1" stop-color="#bebebe"/></linearGradient><linearGradient id="b" x1="6.5" y1="45.06" x2="57.5" y2="45.06" gradientUnits="userSpaceOnUse"><stop offset="0" stop-color="#fff"/><stop offset="1" stop-color="#f0f0f0"/></linearGradient><linearGradient id="c" x1="27.36" y1="44.63" x2="40.67" y2="44.63" gradientUnits="userSpaceOnUse"><stop offset="0" stop-color="#464646"/><stop offset="1" stop-color="#141414"/></linearGradient><linearGradient id="d" x1="12.26" y1="19.34" x2="15.73" y2="25.34" xlink:href="#b"/><linearGradient id="e" x1="14.27" y1="25.89" x2="17.74" y2="31.9" xlink:href="#b"/><linearGradient id="f" x1="18.58" y1="32.18" x2="22.4" y2="38.79" xlink:href="#b"/><linearGradient id="g" x1="4.47" y1="23.76" x2="16.47" y2="44.54" gradientUnits="userSpaceOnUse"><stop offset="0" stop-color="#f4f5f5"/><stop offset="0.99" stop-color="#bebdbd"/></linearGradient><linearGradient id="h" x1="13.68" y1="22.78" x2="16.51" y2="27.68" gradientUnits="userSpaceOnUse"><stop offset="0" stop-color="#fff"/><stop offset="1" stop-color="#d2d2d2"/></linearGradient><linearGradient id="i" x1="16.64" y1="30.08" x2="18.8" y2="33.82" xlink:href="#h"/><linearGradient id="j" x1="21.52" y1="35.8" x2="24.04" y2="40.17" xlink:href="#h"/><linearGradient id="k" x1="19.21" y1="19.51" x2="24.34" y2="28.4" gradientUnits="userSpaceOnUse"><stop offset="0" stop-color="#a2ddf7"/><stop offset="1" stop-color="#73c3e1"/></linearGradient><linearGradient id="l" x1="14.46" y1="24.2" x2="34.37" y2="58.67" gradientUnits="userSpaceOnUse"><stop offset="0" stop-color="#82bddc"/><stop offset="1" stop-color="#275a78"/></linearGradient><linearGradient id="m" x1="20.06" y1="21.01" x2="34.03" y2="45.21" gradientUnits="userSpaceOnUse"><stop offset="0" stop-color="#8bd6f4"/><stop offset="1" stop-color="#376e8c"/></linearGradient><linearGradient id="n" x1="25.08" y1="21.18" x2="30.21" y2="30.08" xlink:href="#k"/><linearGradient id="o" x1="20.33" y1="25.87" x2="40.24" y2="60.34" xlink:href="#l"/><linearGradient id="p" x1="25.93" y1="22.69" x2="39.9" y2="46.88" xlink:href="#m"/><linearGradient id="q" x1="42.57" y1="32.8" x2="56.52" y2="32.8" gradientUnits="userSpaceOnUse"><stop offset="0.01" stop-color="#4d4d4d"/><stop offset="1" stop-color="#c7c7c9"/></linearGradient><linearGradient id="r" x1="57.94" y1="25.2" x2="39.6" y2="36.53" gradientUnits="userSpaceOnUse"><stop offset="0" stop-color="#f0f0f0"/><stop offset="1" stop-color="#b3b3b3"/></linearGradient><linearGradient id="s" x1="53.63" y1="32.45" x2="55.6" y2="32.45" xlink:href="#r"/><linearGradient id="t" x1="44.92" y1="26.95" x2="46.48" y2="26.95" xlink:href="#r"/><linearGradient id="u" x1="45.37" y1="30.22" x2="54.41" y2="30.22" xlink:href="#q"/><linearGradient id="v" x1="45.37" y1="28.13" x2="54.41" y2="28.13" xlink:href="#r"/><linearGradient id="w" x1="48.52" y1="21.06" x2="53.31" y2="21.06" xlink:href="#r"/><linearGradient id="x" x1="52.24" y1="24.34" x2="46.77" y2="24.34" gradientUnits="userSpaceOnUse"><stop offset="0" stop-color="#f0f0f0"/><stop offset="0.12" stop-color="#e5e5e5"/><stop offset="0.33" stop-color="#c9c9c9"/><stop offset="0.59" stop-color="#9b9b9b"/><stop offset="0.91" stop-color="#5d5d5d"/><stop offset="1" stop-color="#4a4a4a"/></linearGradient><linearGradient id="y" x1="54.37" y1="21.07" x2="45.51" y2="27.48" xlink:href="#r"/><linearGradient id="z" x1="47.87" y1="14.35" x2="44.1" y2="17.92" gradientUnits="userSpaceOnUse"><stop offset="0.18" stop-color="#f0f0f0"/><stop offset="0.3" stop-color="#e9e9e9"/><stop offset="0.47" stop-color="#d5d5d5"/><stop offset="0.68" stop-color="#b5b5b5"/><stop offset="0.91" stop-color="#888"/><stop offset="1" stop-color="#757575"/></linearGradient><linearGradient id="aa" x1="43.29" y1="7.89" x2="40.13" y2="10.71" gradientUnits="userSpaceOnUse"><stop offset="0.41" stop-color="#f0f0f0"/><stop offset="0.61" stop-color="#d0d0d0"/><stop offset="1" stop-color="#8c8c8c"/></linearGradient><linearGradient id="ab" x1="38.65" y1="11.44" x2="44.46" y2="11.44" xlink:href="#r"/><linearGradient id="ac" x1="40.64" y1="11.5" x2="42.74" y2="11.5" xlink:href="#r"/><linearGradient id="ad" x1="33.98" y1="14.5" x2="37.66" y2="18.19" gradientUnits="userSpaceOnUse"><stop offset="0" stop-color="#f0f0f0"/><stop offset="1" stop-color="#919191"/></linearGradient><linearGradient id="ae" x1="28.41" y1="21.2" x2="35.31" y2="21.2" xlink:href="#ad"/><linearGradient id="af" x1="43.47" y1="10.94" x2="38.46" y2="14.82" xlink:href="#r"/><linearGradient id="ag" x1="28.15" y1="22.02" x2="34.07" y2="22.02" xlink:href="#r"/><linearGradient id="ah" x1="28.73" y1="13.02" x2="39.17" y2="21.53" gradientTransform="translate(-3.32 4.74) rotate(-0.6)" gradientUnits="userSpaceOnUse"><stop offset="0" stop-color="#757575"/><stop offset="0.1" stop-color="#929292"/><stop offset="0.23" stop-color="#b4b4b4"/><stop offset="0.37" stop-color="#cecece"/><stop offset="0.52" stop-color="#e1e1e1"/><stop offset="0.66" stop-color="#ececec"/><stop offset="0.82" stop-color="#f0f0f0"/></linearGradient><linearGradient id="ai" x1="31.04" y1="26.67" x2="39.01" y2="24.41" xlink:href="#q"/><linearGradient id="aj" x1="26.68" y1="28.22" x2="42.97" y2="26.25" xlink:href="#q"/><linearGradient id="ak" x1="29.59" y1="23.91" x2="31.04" y2="23.91" gradientTransform="translate(-3.32 4.74) rotate(-0.6)" xlink:href="#q"/><linearGradient id="al" x1="22.59" y1="21.46" x2="35.26" y2="17.69" xlink:href="#q"/><linearGradient id="am" x1="20.37" y1="26.11" x2="32.81" y2="18.89" xlink:href="#q"/><linearGradient id="an" x1="21.86" y1="28.89" x2="35.74" y2="26.89" xlink:href="#ad"/><linearGradient id="ao" x1="19.99" y1="24.53" x2="33.58" y2="21.77" xlink:href="#ad"/><mask id="ap" x="20.45" y="13.53" width="19.59" height="19.78" maskUnits="userSpaceOnUse"><rect x="20.45" y="13.53" width="19.59" height="19.78" fill="#fff"/><polygon points="29.68 17.55 28.17 19.16 33.89 24.13 35.66 22.43 29.68 17.55"/></mask><linearGradient id="aq" x1="46.54" y1="-31.75" x2="49.76" y2="-28.53" gradientTransform="matrix(1, 0, 0, -1, 0, 18)" gradientUnits="userSpaceOnUse"><stop offset="0.04" stop-color="#a39f9f"/><stop offset="0.2" stop-color="#ddd"/><stop offset="0.4" stop-color="#c6c6c5"/><stop offset="0.68" stop-color="#f5f5f5"/><stop offset="1" stop-color="#bebebe"/></linearGradient><linearGradient id="ar" x1="33.73" y1="-12.15" x2="44.63" y2="-31.03" gradientTransform="matrix(1, 0, 0, -1, 0, 18)" xlink:href="#h"/><linearGradient id="as" x1="34.31" y1="-13.16" x2="44.05" y2="-30.02" gradientTransform="matrix(1, 0, 0, -1, 0, 18)" gradientUnits="userSpaceOnUse"><stop offset="0"/><stop offset="1" stop-color="#fff"/></linearGradient><linearGradient id="at" x1="49.15" y1="-29.3" x2="54.76" y2="-39.02" gradientTransform="matrix(1, 0, 0, -1, 0, 18)" gradientUnits="userSpaceOnUse"><stop offset="0" stop-color="#8dd7f4"/><stop offset="1" stop-color="#386e8c"/></linearGradient><linearGradient id="au" x1="49.56" y1="-30.01" x2="54.19" y2="-38.02" gradientTransform="matrix(1, 0, 0, -1, 0, 18)" gradientUnits="userSpaceOnUse"><stop offset="0" stop-color="#8dd7f4"/><stop offset="0.26" stop-color="#8bd4f1"/><stop offset="0.44" stop-color="#83cbe8"/><stop offset="0.61" stop-color="#76bbd8"/><stop offset="0.76" stop-color="#64a4c2"/><stop offset="0.9" stop-color="#4d88a6"/><stop offset="1" stop-color="#386e8c"/></linearGradient></defs><polygon points="57.5 40.28 38.24 57.5 6.5 44.55 25.76 32.62 57.5 40.28" fill="url(#a)"/><path d="M25.93,33.69,55.41,40.8,38,56.34,8.7,44.37,25.93,33.69m-.17-1.07L6.5,44.55l31.74,13L57.5,40.28,25.76,32.62Z" fill="url(#b)"/><path d="M25.8,32.89,57,40.41,38.19,57.21,7.05,44.51,25.8,32.89m0-.27L6.5,44.55l31.74,13L57.5,40.28,25.76,32.62Z" fill="#323232"/><path d="M32.26,40.55l-3,2.06m7.46,5.19,2.72-2.21-10.08-2.9L23.84,41l-2.66,1.78" fill="none" stroke="#323232" stroke-linecap="round" stroke-miterlimit="10"/><path d="M32,46.26,40.67,49,36,52.69l-8.6-3.19ZM27.4,39.18l8.66,2.52,4.07-2.83-8.79-2.3Z" fill="url(#c)"/><path d="M13.25,44.23l7.15,2.69L25.05,44l-7.58-2.46Z" fill="none" stroke="#000" stroke-miterlimit="10"/><line x1="11.53" y1="20.68" x2="11.53" y2="29.06" fill="none" stroke="#063755" stroke-linejoin="round"/><g opacity="0.5"><path d="M28.72,37.45h0a21.61,21.61,0,0,0-10.79-2.51c-4.47,0-8.46,1-10.88,2.58L17.76,44Z"/></g><path d="M28.72,37.45h0a21.61,21.61,0,0,0-10.79-2.51c-4.47,0-8.46,1-10.88,2.58L17.76,44Z"/><polygon points="6.92 25.71 6.92 22.43 17.66 19 22.33 21.15 20.18 22.77 11.01 26.13 6.92 25.71" fill="url(#d)"/><polygon points="9.85 32.94 9.85 28.43 21.04 24.5 23.68 27.49 22.19 29.32 12.14 34.15 9.85 32.94" stroke="#797979" stroke-linecap="round" stroke-linejoin="round" fill="url(#e)"/><polygon points="13.94 38.1 13.55 35.09 25.05 30.48 27.78 34.15 24 37.87 16.93 39.96 13.94 38.1" stroke="#797979" stroke-linecap="round" stroke-linejoin="round" fill="url(#f)"/><polygon points="6.5 22.58 6.5 37.31 17.4 44 17.4 38.29 14.05 36.61 14.05 31.58 10.69 29.9 10.69 24.5 6.5 22.58" stroke="#797979" stroke-linecap="round" stroke-linejoin="round" fill="url(#g)"/><polygon points="19.92 21.41 10.69 24.5 10.69 29.76 19.92 25.71 19.92 21.41" stroke="#797979" stroke-linecap="round" stroke-linejoin="round" fill="url(#h)"/><polygon points="14.05 31.58 21.59 27.91 21.59 32.21 14.05 36.35 14.05 31.58" stroke="#797979" stroke-linecap="round" stroke-linejoin="round" fill="url(#i)"/><polygon points="17.4 38.18 28.3 32.21 28.3 37.45 17.4 44 17.4 38.18" stroke="#797979" stroke-linecap="round" stroke-linejoin="round" fill="url(#j)"/><polygon points="26.63 31.44 24.83 30.48 21.59 31.74 21.59 29.48 22.07 29.32 23.66 27.49 21 24.5 19.92 24.86 19.92 22.77 22.2 21.15 17.39 19 6.5 22.43 6.5 25.71 6.5 37.45 17.32 44 28.3 37.45 28.3 32.21 26.63 31.44" fill="none" stroke="#323232" stroke-linecap="round" stroke-linejoin="round"/><polygon points="13.21 25.15 13.21 22.97 23.19 19.49 29.98 22.14 29.98 25.15 18.82 30.47 13.21 25.15" stroke="#063755" stroke-linecap="round" stroke-linejoin="round" fill="url(#k)"/><polygon points="13.21 28.74 13.21 22.97 19.92 26.54 19.92 36.8 16.56 34.93 16.56 30.47 13.21 28.74" stroke="#063755" stroke-linecap="round" stroke-linejoin="round" fill="url(#l)"/><polygon points="29.98 22.14 19.92 26.54 19.92 36.8 29.98 31.31 29.98 22.14" stroke="#063755" stroke-linecap="round" stroke-linejoin="round" fill="url(#m)"/><g opacity="0.3"><polygon points="19.08 26.82 19.08 24.64 29.06 21.17 35.85 23.82 35.85 26.82 24.69 32.15 19.08 26.82" stroke="#063755" stroke-linecap="round" stroke-linejoin="round" fill="url(#n)"/><polygon points="19.08 30.42 19.08 24.64 25.79 28.22 25.79 38.48 22.43 36.6 22.43 32.15 19.08 30.42" stroke="#063755" stroke-linecap="round" stroke-linejoin="round" fill="url(#o)"/><polygon points="35.85 23.82 25.79 28.22 25.79 38.48 35.85 32.99 35.85 23.82" stroke="#063755" stroke-linecap="round" stroke-linejoin="round" fill="url(#p)"/></g><path d="M42.8,29.43c-.69,1.85,1.83,4.49,5.62,5.89s7.41,1,8.1-.8a7.89,7.89,0,0,0,.26-1.17" stroke="#6d6d6d" stroke-linecap="round" stroke-linejoin="round" fill="url(#q)"/><path d="M53.24,34.81a13.4,13.4,0,0,1-4.61-.9c-4.13-1.54-6.75-4.43-6-6.58.47-1.27,2-2,4.2-2a13.66,13.66,0,0,1,4.61.89c4.13,1.54,6.75,4.43,5.95,6.59-.47,1.27-2,2-4.2,2Z" fill="url(#r)"/><path d="M46.88,25.83a13.06,13.06,0,0,1,4.43.86c3.82,1.42,6.35,4.08,5.66,5.94-.41,1.1-1.84,1.68-3.73,1.68a13.09,13.09,0,0,1-4.43-.87C45,32,42.46,29.36,43.15,27.5c.41-1.1,1.84-1.67,3.73-1.67m0-1c-2.42,0-4.12.84-4.67,2.32-.91,2.46,1.77,5.57,6.25,7.23a14.1,14.1,0,0,0,4.78.93c2.42,0,4.12-.85,4.67-2.33.91-2.46-1.78-5.57-6.25-7.23a14.12,14.12,0,0,0-4.78-.92Z" fill="#6d6d6d"/><path d="M54.78,32.83h-.2a1.64,1.64,0,0,1-.78-.26c-.13-.1-.17-.18-.17-.2s.28-.29.83-.29h.19c.64.06,1,.37,1,.47s-.28.28-.82.28Z" fill="url(#s)"/><path d="M54.46,31.57c-.71,0-1.28.31-1.32.74s.57.93,1.39,1h.24c.71,0,1.29-.3,1.33-.74s-.58-.93-1.4-1Z" fill="#6d6d6d"/><path d="M45.7,27.2a1,1,0,0,1-.78-.26,1,1,0,0,1,.78-.25c.47,0,.76.19.78.27A1.1,1.1,0,0,1,45.7,27.2Z" fill="url(#t)"/><path d="M45.7,26.19c-.71,0-1.28.34-1.28.76s.57.75,1.28.75S47,27.36,47,27s-.57-.76-1.28-.76Z" fill="#6d6d6d"/><path d="M49.78,32.51c-2.51,0-4.44-1.27-4.41-2.78v-1.3a.49.49,0,0,1,.15-.36.48.48,0,0,1,.35-.14l8,.18a.5.5,0,0,1,.37.17.5.5,0,0,1,.12.37L54.29,30c0,1.44-1.89,2.55-4.34,2.55Z" fill="url(#u)"/><path d="M45.88,28.43l8,.18-.11,1.31c0,1.18-1.74,2.1-3.85,2.1h-.16c-2.19,0-3.94-1.06-3.92-2.27V28.43m0-1a1,1,0,0,0-1,1v1.31c0,1.79,2.07,3.21,4.89,3.27H50c2.71,0,4.78-1.31,4.84-3l.12-1.28a1,1,0,0,0-1-1.09l-8-.18Z" fill="#6d6d6d"/><path d="M49.83,30.84c-2.53-.05-4.49-1.29-4.45-2.81s1.92-2.61,4.4-2.61H50A6.4,6.4,0,0,1,53,26.2a2.35,2.35,0,0,1,1.39,2c0,1.49-1.92,2.62-4.4,2.62Z" fill="url(#v)"/><path d="M49.78,25.92h.16c2.22,0,4,1.08,4,2.3s-1.76,2.13-3.9,2.13h-.17c-2.22-.05-4-1.08-4-2.3s1.75-2.12,3.9-2.12m0-1c-2.76,0-4.87,1.33-4.9,3.1a2.87,2.87,0,0,0,1.63,2.48,7,7,0,0,0,3.31.84H50c2.75,0,4.86-1.34,4.9-3.11a2.89,2.89,0,0,0-1.64-2.48,7.13,7.13,0,0,0-3.3-.84Z" fill="#6d6d6d"/><path d="M49.54,23.91a.48.48,0,0,1-.2,0,1.7,1.7,0,0,1-.82-1.68,4.82,4.82,0,0,1,2.3-3.76,1.83,1.83,0,0,1,.88-.23c.74,0,1.61.5,1.61,1.89l-.07.43a.49.49,0,0,1-.39.41l-2.71.56-.1,2a.48.48,0,0,1-.23.4A.52.52,0,0,1,49.54,23.91Z" fill="url(#w)"/><path d="M51.7,18.7c.55,0,1.11.36,1.11,1.39l-.06.35-3.09.64-.12,2.33S49,23.18,49,22.19a4.31,4.31,0,0,1,2-3.32,1.42,1.42,0,0,1,.64-.17m0-1a2.31,2.31,0,0,0-1.12.29A5.3,5.3,0,0,0,48,22.19a2.23,2.23,0,0,0,1.12,2.14,1.14,1.14,0,0,0,.4.08,1,1,0,0,0,.53-.15,1,1,0,0,0,.47-.8l.08-1.56L53,21.42a1,1,0,0,0,.78-.81l.06-.35a1,1,0,0,0,0-.17A2.14,2.14,0,0,0,51.7,17.7Z" fill="#6d6d6d"/><path d="M49.89,29.62c-1.5,0-2.59-.63-2.59-1.49l.11-5.72a.55.55,0,0,1,.2-.39l1.69-1.28c.06,0,1.32-1,2-1.37a1.85,1.85,0,0,1,.9-.31.69.69,0,0,1,.62.34.7.7,0,0,1,0,.25l-.41,8.51C52.49,29,51.4,29.62,49.89,29.62Z" fill="url(#x)"/><path d="M52.23,19.56c.14,0,.17.07.17.07L52,28.13c0,.55-.94,1-2.1,1s-2.09-.44-2.09-1l.11-5.71,1.69-1.28s1.28-.93,2-1.34a1.42,1.42,0,0,1,.65-.24m0-1a2.28,2.28,0,0,0-1.15.38c-.74.42-2,1.35-2.07,1.39l-1.7,1.29a1,1,0,0,0-.4.78l-.11,5.71c0,1.17,1.3,2,3.09,2s3.1-.84,3.1-2l.41-8.46a.93.93,0,0,0-.11-.49,1.16,1.16,0,0,0-1.06-.62Z" fill="#6d6d6d"/><path d="M52.11,18.75,50.42,18a2.69,2.69,0,0,0-3.09,2.8c0,1.34.58,1.63.58,1.63l1.63,1V20.79S50.71,18.69,52.11,18.75Z" fill="#6d6d6d" stroke="#6d6d6d" stroke-linecap="round" stroke-linejoin="round"/><path d="M51.79,24.47a1,1,0,0,1-.54-.14c-.67-.39-.74-1.44-.16-2.43a2.14,2.14,0,0,1,1.66-1.19,1,1,0,0,1,.54.15c.68.39.75,1.44.17,2.43a2.16,2.16,0,0,1-1.67,1.18Z" fill="url(#y)"/><path d="M52.76,21.22a.55.55,0,0,1,.28.07c.41.24.41,1,0,1.75a1.66,1.66,0,0,1-1.23.93.51.51,0,0,1-.28-.07c-.42-.24-.42-1,0-1.75a1.67,1.67,0,0,1,1.24-.93m0-1a2.6,2.6,0,0,0-2.11,1.43,3.14,3.14,0,0,0-.45,1.55,1.7,1.7,0,0,0,.8,1.56,1.53,1.53,0,0,0,.79.21,2.6,2.6,0,0,0,2.1-1.43c.72-1.23.57-2.57-.35-3.11a1.5,1.5,0,0,0-.78-.21Z" fill="#6d6d6d"/><path d="M48.21,22a.94.94,0,0,1-.29-.06l-.13-.1-6.87-7a.49.49,0,0,1-.07-.62l2.62-4a.52.52,0,0,1,.39-.23h0a.5.5,0,0,1,.38.17L51.09,18c.18.23.51.63-1.05,2.4C48.87,22,48.37,22,48.21,22Z" fill="url(#z)"/><path d="M43.89,10.48l6.82,7.86c.23.29-1.05,1.75-1.05,1.75s-1,1.41-1.45,1.41h-.06l-6.88-7,2.62-4m0-1h-.07a1,1,0,0,0-.76.45l-2.63,4a1,1,0,0,0,.13,1.25l6.87,7a.83.83,0,0,0,.27.19,1.13,1.13,0,0,0,.51.12c.29,0,.9,0,2.23-1.78,1.3-1.48,1.59-2.33,1.05-3l-6.84-7.9a1,1,0,0,0-.76-.34Z" fill="#6d6d6d"/><path d="M40.28,14.94a.41.41,0,0,1-.19,0l-1.83-.77A2.3,2.3,0,0,1,37,12.87a4.33,4.33,0,0,1,.05-3.22A3.71,3.71,0,0,1,40.21,7a2.18,2.18,0,0,1,.76.14L43,8a.51.51,0,0,1,.27.27.5.5,0,0,1,0,.38l-2.51,6a.48.48,0,0,1-.27.27A.41.41,0,0,1,40.28,14.94Z" fill="url(#aa)"/><path d="M40.21,7.51a1.46,1.46,0,0,1,.58.11l2,.82-2.51,6-1.82-.77c-1.16-.45-1.58-2.17-.94-3.84a3.27,3.27,0,0,1,2.69-2.32m0-1h0a4.21,4.21,0,0,0-3.62,3,5.07,5.07,0,0,0-.25,3A3,3,0,0,0,38.1,14.6l1.79.76a1.09,1.09,0,0,0,.39.08,1,1,0,0,0,.92-.61l2.51-6a1,1,0,0,0,0-.77,1,1,0,0,0-.54-.54l-2-.83a2.72,2.72,0,0,0-1-.18Z" fill="#6d6d6d"/><path d="M41,15.08a2.18,2.18,0,0,1-.76-.14,2.46,2.46,0,0,1-1.45-1.81A4.56,4.56,0,0,1,39,10.45a3.7,3.7,0,0,1,3.15-2.64A2.18,2.18,0,0,1,42.9,8c1.44.55,2,2.52,1.22,4.48A3.73,3.73,0,0,1,41,15.08Z" fill="url(#ab)"/><path d="M42.14,8.31a1.46,1.46,0,0,1,.58.11c1.16.44,1.58,2.16.94,3.83A3.29,3.29,0,0,1,41,14.58a1.66,1.66,0,0,1-.58-.11c-1.16-.45-1.58-2.17-.94-3.84a3.27,3.27,0,0,1,2.69-2.32m0-1a4.2,4.2,0,0,0-3.62,3,5.07,5.07,0,0,0-.25,3A3,3,0,0,0,40,15.4a2.53,2.53,0,0,0,.94.18,4.23,4.23,0,0,0,3.62-3c.85-2.22.19-4.47-1.51-5.13a2.74,2.74,0,0,0-.94-.17Z" fill="#6d6d6d"/><path d="M41,13.09a.59.59,0,0,1-.28-.33,2.28,2.28,0,0,1,.12-1.64c.35-.85,1-1.31,1.36-1.31a.35.35,0,0,1,.17,0l.35.17L41.29,13.2Z" fill="url(#ac)"/><path d="M42,10.4l-.87,1.91a2.18,2.18,0,0,1,.18-1A2.1,2.1,0,0,1,42,10.4m.21-1.09a2.34,2.34,0,0,0-1.82,1.61c-.48,1.16-.29,2.34.44,2.64l.71.27,1.84-4.05-.81-.4a1.15,1.15,0,0,0-.36-.07Z" fill="#6d6d6d"/><path d="M33.53,22a.49.49,0,0,1-.32-.12l-2.39-2a.49.49,0,0,1-.07-.68l6.4-8.39c.35-.47.57-.56.78-.56a.57.57,0,0,1,.48.29,3,3,0,0,1,.14,1,7.64,7.64,0,0,0,.23,1.66A3.93,3.93,0,0,0,40,14.78a.49.49,0,0,1,.2.37.45.45,0,0,1-.14.39l-6.17,6.29A.51.51,0,0,1,33.53,22Z" fill="url(#ad)"/><path d="M37.93,10.68l0,0c.13.26.06,1.81.35,2.62a4.42,4.42,0,0,0,1.4,1.87l-6.18,6.29-2.39-2,6.41-8.39s.28-.37.38-.37m0-1a1.52,1.52,0,0,0-1.18.77l-6.4,8.38a1,1,0,0,0,.14,1.37l2.39,2a1,1,0,0,0,.65.24,1,1,0,0,0,.71-.3l6.18-6.29a1,1,0,0,0,.28-.79,1,1,0,0,0-.41-.72,3.53,3.53,0,0,1-1-1.39,6.91,6.91,0,0,1-.2-1.52,2.91,2.91,0,0,0-.2-1.21,1.06,1.06,0,0,0-.92-.58Z" fill="#6d6d6d"/><path d="M33.82,24.33a.49.49,0,0,1-.32-.12L28.59,20a.5.5,0,0,1-.18-.35.55.55,0,0,1,.14-.37l.95-1a.52.52,0,0,1,.39-.17c.15,0,.53,0,2.92,2.05,2.83,2.45,2.64,2.67,2.34,3l-1,1A.49.49,0,0,1,33.82,24.33Z" fill="url(#ae)"/><path d="M29.89,18.57a13.22,13.22,0,0,1,2.59,1.93,10.43,10.43,0,0,1,2.29,2.31l-1,1L28.91,19.6l1-1h0m0-1a1,1,0,0,0-.78.36l-.93,1a1,1,0,0,0,.08,1.44l4.91,4.23a1,1,0,0,0,.65.24,1,1,0,0,0,.73-.32l1-1a1.05,1.05,0,0,0,.27-.78c0-.34-.06-.73-2.64-3s-2.95-2.18-3.25-2.18Z" fill="#6d6d6d"/><path d="M43.73,12.29c.48-1.15.28-2.33-.44-2.63s-1.7.39-2.18,1.54-.28,2.33.44,2.63S43.25,13.44,43.73,12.29Z" stroke="#6d6d6d" stroke-linecap="round" stroke-linejoin="round" fill="url(#af)"/><path d="M33.54,24.64c-.15,0-.53,0-2.92-2.06S28.16,20.12,28.15,20a.54.54,0,0,1,.13-.39.54.54,0,0,1,.4-.18c.13,0,.53,0,2.92,2.06s2.46,2.47,2.47,2.62a.54.54,0,0,1-.13.39A.55.55,0,0,1,33.54,24.64Z" fill="url(#ag)"/><path d="M28.68,19.89a13,13,0,0,1,2.59,1.94,10.77,10.77,0,0,1,2.29,2.3s0,0,0,0A13,13,0,0,1,31,22.2a10.72,10.72,0,0,1-2.3-2.3h0m0-1a1.06,1.06,0,0,0-.78.36,1,1,0,0,0-.25.74c0,.35.05.74,2.64,3s3,2.18,3.25,2.18a1.06,1.06,0,0,0,.78-.36c.67-.77-.09-1.54-.65-2.11s-1.07-1-1.75-1.6c-2.53-2.18-2.94-2.18-3.24-2.18Z" fill="#6d6d6d"/><path d="M40.21,7.5a1.49,1.49,0,0,1,.58.11l2,.82h0A2.27,2.27,0,0,1,44,10.54L50.41,18h0l1.69.75H52c.42.12.79.5.79,1.33l-.06.35-.39.08,0,.82a.94.94,0,0,1,.44-.12.55.55,0,0,1,.28.07c.41.24.41,1,0,1.75a2,2,0,0,1-.82.82l-.12,2.45a2.58,2.58,0,0,1,1.8,1.64c2.3,1.43,3.61,3.28,3.09,4.68l-.45,1.89c-.41,1.09-1.83,1.66-3.7,1.66a13.07,13.07,0,0,1-4.4-.85c-3.79-1.41-6.31-4.05-5.62-5.9l.35-1.93c.41-1.09,1.84-1.67,3.73-1.67a7.92,7.92,0,0,1,1,.05l.07-3.46s-.58-.29-.58-1.63c0,0,0-.08,0-.12l-6-6.13a1.84,1.84,0,0,1-.33,0,1.76,1.76,0,0,1-.55-.09l-6.88,7c.78.73,1.29,1.28,1.22,1.35l-1,1-.26.3h0A13.22,13.22,0,0,1,31,22.2a21.32,21.32,0,0,1-2.3-2.31.85.85,0,0,1,.26-.3l1-1s0,0,0,0a5.16,5.16,0,0,1,1.27.85l6.07-7.95a4.44,4.44,0,0,1,.29-1.64A3.27,3.27,0,0,1,40.21,7.5m0-.8h0a4,4,0,0,0-3.43,2.84,5,5,0,0,0-.35,1.65L31,18.29c-.68-.49-.9-.53-1.12-.53h0a.85.85,0,0,0-.63.29L28.4,19a1.6,1.6,0,0,0-.45.55.79.79,0,0,0,.09.88,21.69,21.69,0,0,0,2.38,2.4c2.48,2.13,2.88,2.13,3.12,2.13a.85.85,0,0,0,.62-.27l.27-.32.93-1c.51-.58.13-1.13-.67-1.91l6-6.08H41L46.53,21a2.88,2.88,0,0,0,.58,1.77l0,2.27h-.18c-2.33,0-4,.8-4.48,2.19a.74.74,0,0,0,0,.14L42,29.21c-.4,1.18.07,2.56,1.32,3.88a12.94,12.94,0,0,0,4.79,3,13.77,13.77,0,0,0,4.68.9c2.31,0,3.93-.79,4.45-2.18l0-.09.44-1.85c.59-1.7-.62-3.76-3.18-5.43a3.21,3.21,0,0,0-1.66-1.63L53,24.3a3.13,3.13,0,0,0,.73-.87c.65-1.1.56-2.28-.19-2.79,0,0,0-.05,0-.07l.06-.35s0-.09,0-.14a2.11,2.11,0,0,0-1-1.93.77.77,0,0,0-.21-.14l-1.54-.69-6.16-7.11a3,3,0,0,0-1.48-2.43.83.83,0,0,0-.16-.09l-2-.82a2.34,2.34,0,0,0-.89-.17Z" fill="#343434"/><path d="M34.8,27.16a.45.45,0,0,1-.31-.11l-9.9-7.75A.58.58,0,0,1,24.4,19a.51.51,0,0,1,.12-.38l1.58-1.86a.46.46,0,0,1,.36-.17l.92,0,.13,0a2.45,2.45,0,0,1,.88.6c.48.43,1.75,1.52,1.75,1.52a.48.48,0,0,1,.18.35.51.51,0,0,1-.13.37l-.36.39,3.93,3.31.28-.31a.53.53,0,0,1,.37-.15.52.52,0,0,1,.33.12l1.92,1.68a.5.5,0,0,1,.05.7L35.19,27A.51.51,0,0,1,34.8,27.16Z" fill="url(#ah)"/><path d="M27.38,17a2.51,2.51,0,0,1,.68.49c.48.43,1.76,1.53,1.76,1.53l-.71.78,4.69,3.95.61-.65,1.92,1.68L34.8,26.66,24.9,18.9l1.58-1.85.9,0m0-1h0l-.9,0a1,1,0,0,0-.74.35l-1.57,1.86a1,1,0,0,0-.23.75,1,1,0,0,0,.37.68l9.9,7.76a1,1,0,0,0,.62.21,1,1,0,0,0,.77-.36l1.53-1.86A1,1,0,0,0,37,24.05l-1.92-1.68a1,1,0,0,0-.66-.25,1,1,0,0,0-.69.27l-3.17-2.67h0a1,1,0,0,0,.26-.73,1,1,0,0,0-.35-.7s-1.27-1.09-1.75-1.52a3,3,0,0,0-1.08-.7,1.17,1.17,0,0,0-.26,0Z" fill="#6d6d6d"/><path d="M24.9,18.9l8.41,7.18,1.51.64s.12,0-.28-.35l-8.1-6.92a2,2,0,0,0-.82-.48A4.65,4.65,0,0,0,24.9,18.9Z" fill="#96989a"/><path d="M34.8,26.72s.12,0-.28-.35l-8.09-6.92A2.11,2.11,0,0,0,25.6,19a4.65,4.65,0,0,0-.72-.07" fill="none" stroke="#6d6d6d" stroke-linecap="round" stroke-linejoin="round"/><polygon points="32.18 27.43 33.6 25.63 32.36 25.23 30.99 26.86 32.18 27.43" fill="url(#ai)"/><polygon points="26.99 27.79 28.57 28.83 32.18 27.43 30.99 26.86 26.99 27.79" fill="url(#aj)"/><polygon points="26.89 27.73 27.97 28.4 27.51 28.93 26.52 28.19 26.89 27.73" fill="url(#ak)"/><polygon points="25.66 19.55 24.08 21.47 24.93 21.76 26.65 19.69 25.66 19.55" fill="url(#al)"/><polygon points="24.36 26.29 23.55 25.77 24.08 21.47 24.93 21.76 24.36 26.29" fill="url(#am)"/><polygon points="34.14 26.11 32.62 28.02 28.45 29.51 27.51 28.93 27.97 28.4 28.64 28.8 32.18 27.43 33.6 25.63 34.14 26.11" fill="url(#an)"/><polygon points="27.22 20.23 25.74 21.98 25.01 25.98 25.66 26.48 25.21 26.95 24.36 26.29 24.93 21.76 26.65 19.69 27.22 20.23" fill="url(#ao)"/><line x1="31.17" y1="26.98" x2="32.52" y2="27.53" fill="none" stroke="#6d6d6d" stroke-linecap="round" stroke-linejoin="round"/><line x1="24.15" y1="21.69" x2="24.98" y2="21.98" fill="none" stroke="#6d6d6d" stroke-linecap="round" stroke-linejoin="round"/><g mask="url(#ap)"><path d="M27.38,17a2.51,2.51,0,0,1,.68.49c.48.43,1.76,1.53,1.76,1.53l-.71.78,3.53,3,1.16,1,.61-.65,1.92,1.68-1.52,1.85c0,.07,0,.07,0,.07h0l-.88-.37L32.62,28l-4.11,1.47,0,.05-1.94-1.35.35-.43,1.05.26,3-1.17,1.35-1.6L26.9,20.61,25.74,22,25,26l.65.5-.45.47-.85-.66-.82-.52.54-4.3,1.58-1.92h0l-.76-.65,1.58-1.85.9,0m0-1h0l-.9,0a1,1,0,0,0-.74.35l-1.57,1.86a1,1,0,0,0,.11,1.4h0l-1,1.16a1,1,0,0,0-.22.51l-.54,4.3a1,1,0,0,0,.46,1l.77.49.81.64a1,1,0,0,0,.62.21,1,1,0,0,0,.38-.08,1,1,0,0,0,0,.46A1,1,0,0,0,26,29l1.94,1.35a1,1,0,0,0,.57.18l.2,0a1,1,0,0,0,.38-.17L33,29a1,1,0,0,0,.45-.32l.85-1.07.18.07a1,1,0,0,0,.39.08,1,1,0,0,0,.9-.54l.06-.13,1.32-1.61A1,1,0,0,0,37,24.05l-1.92-1.68a1,1,0,0,0-.66-.25,1,1,0,0,0-.69.27L33.28,22l-2.73-2.31h0a1,1,0,0,0,.26-.73,1,1,0,0,0-.35-.7s-1.27-1.09-1.75-1.52a3,3,0,0,0-1.08-.7,1.17,1.17,0,0,0-.26,0Zm-.7,6.4L27,22l3.92,3.35-.54.64-2.51,1-.74-.19a1,1,0,0,0-.25,0,1,1,0,0,0-.29,0,1.07,1.07,0,0,0,0-.4,1,1,0,0,0-.38-.71l-.17-.13.58-3.14Z" fill="#343434"/></g><g opacity="0.5"><path d="M54.71,57.11A2.33,2.33,0,0,1,53,56.43L46.69,50l-1.11-1.1a11.18,11.18,0,0,1-6.4,2,11.29,11.29,0,1,1,9.6-5.35L50,46.71l6.44,6.34a2.38,2.38,0,0,1-1.7,4.06ZM39.18,31.42a8.18,8.18,0,1,0,8.18,8.17A8.17,8.17,0,0,0,39.18,31.42Z" fill="#fff"/><path d="M39.18,28.69a10.89,10.89,0,0,1,9.1,16.89L49.69,47l6.44,6.33a2,2,0,0,1-2.83,2.84L47,49.71l-1.35-1.34a10.9,10.9,0,1,1-6.44-19.68m0,19.47a8.57,8.57,0,1,0-8.57-8.57,8.57,8.57,0,0,0,8.57,8.57m0-20.25a11.68,11.68,0,0,0,0,23.36,11.55,11.55,0,0,0,6.35-1.89l.89.88,6.33,6.44a2.73,2.73,0,0,0,2,.8,2.76,2.76,0,0,0,2-4.73l-6.44-6.34-1-1A11.68,11.68,0,0,0,39.18,27.91Zm0,19.47A7.79,7.79,0,1,1,47,39.59,7.79,7.79,0,0,1,39.18,47.38Z" fill="#fff"/></g><path d="M48.13,50.88l-2.72-2.72,2.72-2.73,2.73,2.73Z" fill="url(#aq)"/><polygon points="48.13 49.55 46.35 47.77 45.96 48.16 48.13 50.33 50.31 48.16 49.92 47.77 48.13 49.55" opacity="0.3" style="isolation:isolate"/><polygon points="48.13 46.76 49.92 48.55 50.31 48.16 48.13 45.98 45.96 48.16 46.35 48.55 48.13 46.76" fill="#fff" opacity="0.3" style="isolation:isolate"/><path d="M48.78,46.63,48.13,46,46,48.16l.9.89A12.47,12.47,0,0,0,48.78,46.63Z" fill="#646565" opacity="0.5" style="isolation:isolate"/><circle cx="39.18" cy="39.59" r="9.73" fill="#fff" opacity="0.2" style="isolation:isolate"/><path d="M39.18,28.69a10.9,10.9,0,1,0,10.9,10.9A10.9,10.9,0,0,0,39.18,28.69Zm0,19.47a8.57,8.57,0,1,1,8.56-8.57A8.57,8.57,0,0,1,39.18,48.16Z" stroke="#787979" stroke-linejoin="round" fill="url(#ar)"/><path d="M45.05,40.65h0a1.43,1.43,0,0,0-1.63.7,5,5,0,0,1-2.09,2.09,1.43,1.43,0,0,0-.7,1.63h0a1.42,1.42,0,0,0,1.75,1,1.57,1.57,0,0,0,.3-.12,7.9,7.9,0,0,0,3.24-3.24,1.42,1.42,0,0,0-.58-1.92A1.78,1.78,0,0,0,45.05,40.65Z" fill="#fff" opacity="0.3" style="isolation:isolate"/><path d="M31.78,39.73h2.83a5.1,5.1,0,0,1,5.1-5.09V31.8A7.93,7.93,0,0,0,31.78,39.73Z" fill="#fff" opacity="0.5" style="isolation:isolate"/><path d="M39.18,29.86a9.73,9.73,0,1,0,9.73,9.73A9.73,9.73,0,0,0,39.18,29.86Zm0,18.69a9,9,0,1,1,9-9A8.95,8.95,0,0,1,39.18,48.55Z" opacity="0.3" fill="url(#as)" style="isolation:isolate"/><path d="M50.86,48.16l-2.58-2.58a11,11,0,1,0-2.66,2.79l2.51,2.51Z" fill="none" stroke="#323232" stroke-linejoin="round"/><path d="M56.13,53.32,49.69,47,47,49.71l6.33,6.45a2,2,0,0,0,2.83-2.84Z" fill="url(#at)"/><path d="M56.13,53.32,49.69,47,47,49.71l6.33,6.45a2,2,0,0,0,2.83-2.84Z" fill="none" stroke="#053755" stroke-linejoin="round"/><path d="M55.85,55.09a1.56,1.56,0,0,1-1.14.46h0a1.6,1.6,0,0,1-1.13-.45L47.9,49.32l-.39.39,6.07,6.17a1.59,1.59,0,0,0,1.13.45h0a1.56,1.56,0,0,0,1.6-1.53v-.07a1.74,1.74,0,0,0-.05-.39A1.43,1.43,0,0,1,55.85,55.09Z" opacity="0.3" style="isolation:isolate"/><path d="M49.69,48.31l6.17,6.07a1.49,1.49,0,0,1,.4.74,1.74,1.74,0,0,0,.05-.39,1.67,1.67,0,0,0-.45-1.14l-6.17-6.06-2.18,2.18.39.39Z" fill="#fff" opacity="0.3" style="isolation:isolate"/><path d="M55.14,54l-1.56-1.56L49.3,48.16l-1.17,1.16L54,55.16c.43.43.45.39.78.39a.72.72,0,0,0,.78-.68v-.1A1.22,1.22,0,0,0,55.14,54Z" fill="url(#au)"/></svg>