<svg id="OK_41_538" data-name="OK  ***  41 538" xmlns="http://www.w3.org/2000/svg" xmlns:xlink="http://www.w3.org/1999/xlink" viewBox="0 0 64 64"><defs><style>.cls-1{fill:none;}.cls-2{fill:#f1f0f0;}.cls-3{fill:#323232;}.cls-4{fill:#053755;}.cls-5{fill:url(#linear-gradient);}.cls-6{fill:#797979;}.cls-7{clip-path:url(#clip-path);}.cls-8{fill:#003755;}.cls-9{fill:#fff;stroke:#fff;stroke-width:2px;}.cls-14,.cls-15,.cls-16,.cls-17,.cls-18,.cls-19,.cls-20,.cls-21,.cls-22,.cls-23,.cls-24,.cls-25,.cls-27,.cls-29,.cls-9{stroke-linecap:round;stroke-linejoin:round;}.cls-10{fill:url(#linear-gradient-2);}.cls-11{fill:#6d6d6d;}.cls-12{fill:url(#linear-gradient-3);}.cls-13{fill:url(#linear-gradient-4);}.cls-14,.cls-15,.cls-16,.cls-17,.cls-18,.cls-19,.cls-20,.cls-21,.cls-22,.cls-23,.cls-24,.cls-25{stroke:#00415f;}.cls-14,.cls-15,.cls-16,.cls-17,.cls-18,.cls-19,.cls-20,.cls-21,.cls-22,.cls-23,.cls-24,.cls-25,.cls-27,.cls-29{stroke-width:0.9px;}.cls-14{fill:url(#linear-gradient-5);}.cls-15{fill:url(#linear-gradient-6);}.cls-16{fill:url(#linear-gradient-7);}.cls-17{fill:url(#linear-gradient-8);}.cls-18{fill:url(#linear-gradient-9);}.cls-19{fill:url(#linear-gradient-10);}.cls-20{fill:url(#linear-gradient-11);}.cls-21{fill:url(#linear-gradient-12);}.cls-22{fill:url(#linear-gradient-13);}.cls-23{fill:url(#linear-gradient-14);}.cls-24{fill:url(#linear-gradient-15);}.cls-25{fill:url(#linear-gradient-16);}.cls-26{fill:url(#linear-gradient-17);}.cls-27,.cls-29{stroke:#6d6d6d;}.cls-27{fill:url(#linear-gradient-18);}.cls-28{fill:url(#linear-gradient-19);}.cls-29{fill:url(#linear-gradient-20);}.cls-30{fill:url(#linear-gradient-21);}.cls-31{fill:#2d2d2d;}</style><linearGradient id="linear-gradient" x1="37" y1="7.99" x2="37" y2="12" gradientUnits="userSpaceOnUse"><stop offset="0" stop-color="#8cd7f5"/><stop offset="0.2" stop-color="#7fc7e5"/><stop offset="0.59" stop-color="#5e9fbd"/><stop offset="1" stop-color="#376e8c"/></linearGradient><clipPath id="clip-path"><polygon class="cls-1" points="55 37 34 37 34 29 17 26 17 15 29 15 55 15 55 37"/></clipPath><linearGradient id="linear-gradient-2" x1="70.05" y1="11.11" x2="11.84" y2="55.8" gradientUnits="userSpaceOnUse"><stop offset="0" stop-color="#fcfcfc"/><stop offset="1" stop-color="#b3b3b3"/></linearGradient><linearGradient id="linear-gradient-3" x1="21.44" y1="23.05" x2="7.55" y2="45.21" gradientUnits="userSpaceOnUse"><stop offset="0" stop-color="#c9c9c9"/><stop offset="1" stop-color="#737373"/></linearGradient><linearGradient id="linear-gradient-4" x1="34.01" y1="40.83" x2="60.54" y2="40.83" gradientUnits="userSpaceOnUse"><stop offset="0" stop-color="#787878"/><stop offset="1" stop-color="#fcfcfc"/></linearGradient><linearGradient id="linear-gradient-5" x1="23.4" y1="50.38" x2="36.99" y2="41.44" gradientUnits="userSpaceOnUse"><stop offset="0.1" stop-color="#195a72"/><stop offset="0.5" stop-color="#5a9cb5"/><stop offset="1" stop-color="#93d2f0"/></linearGradient><linearGradient id="linear-gradient-6" x1="23.1" y1="51.65" x2="50.7" y2="38.33" xlink:href="#linear-gradient-5"/><linearGradient id="linear-gradient-7" x1="28.09" y1="47.24" x2="41.45" y2="38.02" xlink:href="#linear-gradient-5"/><linearGradient id="linear-gradient-8" x1="12.39" y1="54.22" x2="43.78" y2="38.76" xlink:href="#linear-gradient-5"/><linearGradient id="linear-gradient-9" x1="10.44" y1="52.77" x2="24.59" y2="44.98" xlink:href="#linear-gradient-5"/><linearGradient id="linear-gradient-10" x1="15.17" y1="50.65" x2="24.9" y2="39.24" xlink:href="#linear-gradient-5"/><linearGradient id="linear-gradient-11" x1="26.16" y1="41.19" x2="33.14" y2="41.19" xlink:href="#linear-gradient-5"/><linearGradient id="linear-gradient-12" x1="24.24" y1="41.07" x2="26.16" y2="41.07" xlink:href="#linear-gradient-5"/><linearGradient id="linear-gradient-13" x1="24.24" y1="39.46" x2="33.14" y2="39.46" xlink:href="#linear-gradient-5"/><linearGradient id="linear-gradient-14" x1="9.92" y1="46.81" x2="39.34" y2="34.21" xlink:href="#linear-gradient-5"/><linearGradient id="linear-gradient-15" x1="5.96" y1="41.75" x2="17.27" y2="41.75" xlink:href="#linear-gradient-5"/><linearGradient id="linear-gradient-16" x1="11.83" y1="43.09" x2="-0.71" y2="53.82" xlink:href="#linear-gradient-5"/><linearGradient id="linear-gradient-17" x1="37.9" y1="30.27" x2="23.5" y2="42.6" xlink:href="#linear-gradient-2"/><linearGradient id="linear-gradient-18" x1="32.55" y1="38.57" x2="35.18" y2="38.57" xlink:href="#linear-gradient-3"/><linearGradient id="linear-gradient-19" x1="29.6" y1="31.57" x2="16.7" y2="43.53" xlink:href="#linear-gradient-2"/><linearGradient id="linear-gradient-20" x1="23.17" y1="41.14" x2="25.69" y2="41.14" xlink:href="#linear-gradient-3"/><linearGradient id="linear-gradient-21" x1="20.08" y1="34.61" x2="3.08" y2="47.51" xlink:href="#linear-gradient-2"/></defs><g id="TAB_ok_" data-name="TAB ok ***"><g id="TAB_" data-name="TAB  ***"><g id="ok"><rect class="cls-2" x="17" y="8" width="40" height="30"/><path class="cls-3" d="M57,8V38H17V8H57M17,7a.9.9,0,0,0-1,1V38a1.09,1.09,0,0,0,1.06,1h40A1,1,0,0,0,58,38V8a1,1,0,0,0-1-1Z"/></g><path id="_" data-name="**" class="cls-4" d="M58,8a1,1,0,0,0-1-1H17a1,1,0,0,0-1,1v5H58Zm-1,4H17V8H57Z"/><rect class="cls-5" x="17" y="7.99" width="39.99" height="4.01"/></g><path class="cls-6" d="M27,36H26V28h1Zm9-2H35v2h1Zm11-1H46v3h1ZM27,23H26V15h1Zm10-8H36V29h1Zm10,0H46V33h1Z"/><g id="ok_ok" data-name="ok **** ok"><g class="cls-7"><path class="cls-8" d="M55,33H42V30H55Zm-6-6H36V24H49ZM15,24H10v3h5Zm28-6H19v3H43Z"/></g></g></g><polyline id="detour_ok" data-name="detour ok" class="cls-9" points="44.87 38.39 44.72 34.26 31.51 25.96 26.44 29.3 23.99 27.57 17.91 31.05 16.28 29.61"/><g id="Layer_10" data-name="Layer 10"><path class="cls-10" d="M15.21,56.06a.47.47,0,0,1-.37-.19L6.64,44.1a.46.46,0,0,1,0-.41.44.44,0,0,1,.3-.28l24-6.37H31a.43.43,0,0,1,.26.09l12.84,9.4a.46.46,0,0,1,.17.44.43.43,0,0,1-.31.35L15.34,56Z"/><path class="cls-11" d="M31,37.48l12.83,9.4L15.21,55.61,7,43.84l24-6.36m0-.9a.85.85,0,0,0-.23,0L6.78,43a.92.92,0,0,0-.62.56.91.91,0,0,0,.11.83l8.2,11.77a.91.91,0,0,0,.74.38.75.75,0,0,0,.26,0l28.66-8.73a.89.89,0,0,0,.27-1.58L31.57,36.75a1,1,0,0,0-.53-.17Z"/><polygon class="cls-12" points="7.01 35.72 7.01 43.84 16.47 41.34 7.01 35.72"/><polygon class="cls-13" points="43.87 34.79 43.87 46.88 29.66 36.4 43.87 34.79"/><g id="Layer_8" data-name="Layer 8"><polygon class="cls-14" points="28.33 43.71 30.97 45.63 39.21 43.41 36.26 41.7 28.33 43.71"/><polygon class="cls-15" points="39.21 43.41 39.21 46.1 30.97 48.63 30.97 45.63 39.21 43.41"/><polygon class="cls-16" points="28.33 43.71 28.35 46.04 30.97 48.63 30.97 45.63 28.33 43.71"/><polygon class="cls-17" points="26.32 46.98 16.62 49.85 16.62 52.84 26.31 49.65 26.32 46.98"/><polygon class="cls-18" points="24.24 45.03 14.44 47.62 16.62 49.85 26.32 46.98 24.24 45.03"/><polygon class="cls-19" points="16.62 52.84 16.62 49.85 14.44 47.62 14.44 50.27 16.62 52.84"/><polygon class="cls-20" points="26.23 43.01 33.14 41.05 33.14 39.37 26.16 41.1 26.23 43.01"/><polygon class="cls-21" points="24.24 39.12 26.16 41 26.16 43.01 24.24 40.79 24.24 39.12"/><polygon class="cls-22" points="30.88 37.82 33.14 39.37 26.16 41.1 24.24 39.12 30.88 37.82"/><polygon class="cls-23" points="21.32 41.12 21.32 44.1 12.15 46.66 12.15 43.68 21.32 41.12"/><polygon class="cls-24" points="10.01 40.79 12.15 43.68 21.32 41.12 20.05 39.81 11.5 40.39 10.01 40.79"/><polygon class="cls-25" points="12.15 46.66 10.04 43.71 10.01 40.79 12.15 43.68 12.15 46.66"/></g><g id="Layer_9" data-name="Layer 9"><path class="cls-26" d="M35.18,40.93a.44.44,0,0,1-.34-.16l-8.75-10a.44.44,0,0,1,.09-.67l5.09-3.35a.46.46,0,0,1,.25-.08.55.55,0,0,1,.24.07L44.11,34.4a.47.47,0,0,1,.21.38.44.44,0,0,1-.2.38l-8.7,5.69A.43.43,0,0,1,35.18,40.93Z"/><path class="cls-11" d="M31.52,27.11l12.35,7.68-8.69,5.69-8.76-10,5.1-3.35m0-.9a.91.91,0,0,0-.5.15l-5.09,3.35a.9.9,0,0,0-.4.63.91.91,0,0,0,.22.71l8.75,10a.89.89,0,0,0,1.17.16l8.69-5.69a.91.91,0,0,0,.41-.76.89.89,0,0,0-.42-.76L32,26.35a.89.89,0,0,0-.47-.14Z"/><polygon class="cls-27" points="35.17 36.66 35.17 40.48 32.55 38.5 35.17 36.66"/><path class="cls-28" d="M25.69,43.53a.46.46,0,0,1-.37-.18L17.43,32.52a.45.45,0,0,1-.08-.36.45.45,0,0,1,.21-.29l6.07-3.61a.46.46,0,0,1,.23-.06.42.42,0,0,1,.26.08l11.32,8a.44.44,0,0,1,.19.37.48.48,0,0,1-.2.37l-9.49,6.41A.49.49,0,0,1,25.69,43.53Z"/><path class="cls-11" d="M23.86,28.65l11.32,8-9.49,6.41-7.9-10.83,6.07-3.6m0-.9a.93.93,0,0,0-.46.12l-6.07,3.61a.88.88,0,0,0-.42.59.93.93,0,0,0,.15.71L25,43.61a.91.91,0,0,0,1.23.22l9.49-6.42a.9.9,0,0,0,0-1.48l-11.32-8a.91.91,0,0,0-.52-.16Z"/><polygon class="cls-29" points="25.69 39.2 25.69 43.08 23.17 40.79 25.69 39.2"/><path class="cls-30" d="M15.37,46.32a.41.41,0,0,1-.34-.16L6.66,36a.46.46,0,0,1-.09-.36.44.44,0,0,1,.2-.31l8.5-5.47a.51.51,0,0,1,.24-.07.48.48,0,0,1,.3.11l10.18,9a.48.48,0,0,1,.15.37.47.47,0,0,1-.21.35L15.62,46.25A.45.45,0,0,1,15.37,46.32Z"/><path class="cls-11" d="M15.51,30.22l10.18,9L15.37,45.87,7,35.69l8.5-5.47m0-.9a.88.88,0,0,0-.49.15l-8.5,5.46a.93.93,0,0,0-.4.62.88.88,0,0,0,.2.71l8.36,10.18a.9.9,0,0,0,1.18.19L26.18,40a.89.89,0,0,0,.1-1.43l-10.17-9a.9.9,0,0,0-.6-.23Z"/><path class="cls-31" d="M31.52,27.11l12.35,7.68V46.88L15.21,55.62,7,43.84V35.69l8.5-5.47,2.28,2,6.07-3.6,2.56,1.81,5.1-3.35m0-.9a.91.91,0,0,0-.5.15l-4.58,3-2.06-1.46a.91.91,0,0,0-.52-.16.93.93,0,0,0-.46.12l-5.5,3.27-1.79-1.59a.9.9,0,0,0-.6-.23.88.88,0,0,0-.49.15l-8.5,5.46a.92.92,0,0,0-.41.76v8.15a.87.87,0,0,0,.16.52l8.2,11.77a.89.89,0,0,0,.74.39,1.09,1.09,0,0,0,.26,0l28.66-8.74a.89.89,0,0,0,.64-.86V34.79a.91.91,0,0,0-.42-.77L32,26.35a.89.89,0,0,0-.47-.14Z"/></g></g></svg>