<svg xmlns="http://www.w3.org/2000/svg" xmlns:xlink="http://www.w3.org/1999/xlink" width="64" height="64" viewBox="0 0 64 64">
  <defs>
    <linearGradient id="a" x1="37.3438" y1="19.282" x2="61.5145" y2="56.815" gradientUnits="userSpaceOnUse">
      <stop offset="0" stop-color="#fff"/>
      <stop offset="1" stop-color="#bfbfbf"/>
    </linearGradient>
    <linearGradient id="b" x1="42.8989" y1="215.19" x2="52.1627" y2="224.0084" gradientTransform="matrix(1, 0.404, 0, 1, 0, -208.8942)" gradientUnits="userSpaceOnUse">
      <stop offset="0" stop-color="#f0f0f0"/>
      <stop offset="1" stop-color="#b3b3b3"/>
    </linearGradient>
    <linearGradient id="c" x1="37.3511" y1="224.7169" x2="46.6157" y2="233.536" xlink:href="#b"/>
    <linearGradient id="d" x1="43.1084" y1="222.582" x2="52.3722" y2="231.4003" xlink:href="#b"/>
    <linearGradient id="e" x1="16.8179" y1="18.9882" x2="37.6892" y2="38.0796" gradientTransform="matrix(1, 0, 0, 1, 0, 0)" xlink:href="#b"/>
    <linearGradient id="f" x1="27.553" y1="32.9009" x2="64.7929" y2="73.7301" gradientTransform="matrix(1, 0, 0, 1, 0, 0)" xlink:href="#b"/>
    <linearGradient id="g" x1="-0.8983" y1="2.6206" x2="19.2597" y2="39.5134" gradientTransform="matrix(1, 0, 0, 1, 0, 0)" xlink:href="#b"/>
    <linearGradient id="h" x1="18.7079" y1="18.6622" x2="44.11" y2="38.0873" gradientUnits="userSpaceOnUse">
      <stop offset="0" stop-color="#92d5ee"/>
      <stop offset="0.4825" stop-color="#599bb4"/>
      <stop offset="1" stop-color="#185971"/>
    </linearGradient>
    <linearGradient id="i" x1="24.0598" y1="21.0172" x2="41.1826" y2="30.9647" xlink:href="#h"/>
    <linearGradient id="j" x1="0.3087" y1="-1.478" x2="33.6311" y2="46.538" xlink:href="#h"/>
  </defs>
  <title>I_DELPRD_AP</title>
  <g>
    <g>
      <polygon points="38.5 40.5 54.5 47.597 54.5 26.5 38.5 20.5 38.5 40.5" stroke="#2d2d2d" stroke-linecap="round" stroke-linejoin="round" fill="url(#a)"/>
      <g opacity="0.9">
        <g>
          <polygon points="44.5 29.163 44.5 26.241 48.5 27.856 48.5 30.778 44.5 29.163" fill="url(#b)"/>
          <path d="M45,26.9824l3,1.2117v1.843l-3-1.2117v-1.843M44,25.5v4l5,2.02v-4L44,25.5Z" fill="#343434"/>
        </g>
        <g>
          <polygon points="40.5 38.547 40.5 35.625 44.5 37.241 44.5 40.163 40.5 38.547" fill="url(#c)"/>
          <path d="M41,36.3665l3,1.2123v1.8428l-3-1.2123V36.3665m-1-1.4827v4l5,2.02v-4l-5-2.02Z" fill="#343434"/>
        </g>
        <g>
          <polygon points="48.5 41.779 48.5 38.857 52.5 40.473 52.5 43.395 48.5 41.779" fill="url(#d)"/>
          <path d="M49,39.5986,52,40.81v1.843l-3-1.2117v-1.843m-1-1.4824v4l5,2.02v-4l-5-2.02Z" fill="#343434"/>
        </g>
        <polygon points="50 36.924 47 35.712 47 33.712 49 34.52 49 33.52 48 33.116 48 32.116 47 31.712 47 29.712 46 29.308 46 31.308 45 30.904 45 31.904 44 31.5 44 32.5 46 33.308 46 35.308 43 34.096 42 33.691 42 35.691 43 36.096 43 35.096 50 37.924 50 38.924 51 39.328 51 37.328 50 36.924" fill="#343434" opacity="0.7"/>
      </g>
    </g>
    <g>
      <polygon points="10.005 22.184 18.823 16.603 26.364 18.293 17.484 23.986 10.005 22.184" fill="url(#e)"/>
      <g>
        <path d="M25.9951,43a.5093.5093,0,0,1-.2246-.0527.5.5,0,0,1-.2754-.4473v-8a.4991.4991,0,0,1,.2051-.4033l8-5.8438a.5.5,0,0,1,.7949.4034v7.89a.5029.5029,0,0,1-.2012.4014l-8,5.9541A.5.5,0,0,1,25.9951,43Z" fill="url(#f)"/>
        <path d="M33.9951,28.6563v7.89l-8,5.9541v-8l8-5.8437m0-1a1,1,0,0,0-.59.1925l-8,5.8437a1,1,0,0,0-.41.8075v8a1,1,0,0,0,1.597.8022l8-5.9541a1,1,0,0,0,.403-.8022v-7.89a1,1,0,0,0-1-1Z" fill="#6d6d6d"/>
      </g>
      <polygon points="17.484 23.986 17.627 32.501 24.995 34.623 24.995 42.5 10.005 37.963 10.005 22.184 17.484 23.986" fill="url(#g)"/>
      <polygon points="25.621 25.972 33.835 19.553 33.835 28.76 25.617 34.623 25.621 25.972" stroke="#00415f" stroke-linecap="round" stroke-linejoin="round" fill="url(#h)"/>
      <polygon points="17.484 23.986 26.364 18.293 33.995 20 25.621 25.972 17.484 23.986" stroke="#00415f" stroke-linecap="round" stroke-linejoin="round" fill="url(#i)"/>
      <polygon points="25.621 25.972 25.617 34.623 17.627 32.501 17.484 23.986 25.621 25.972" stroke="#00415f" stroke-linecap="round" stroke-linejoin="round" fill="url(#j)"/>
      <path d="M18.9844,16.5l7.539,1.6914L33.9951,20v8.6563l-.16,7.89L25.7734,42.86,10.164,37.8613v-15.78l8.82-5.5811M18.8,15.4337l-.35.2213-8.82,5.5811-.4653.2944V38.5911l.695.2226,15.6094,4.9991.5046.1615.417-.3267,8.0615-6.3145.3736-.2925.01-.4744.16-7.89,0-8.6766v-.7868l-.7647-.1851L26.7587,17.22l-7.5554-1.6952L18.8,15.4337Z" fill="#343434"/>
    </g>
    <line x1="9.5557" y1="22.1836" x2="17.5" y2="24.5" fill="none" stroke="#818182" stroke-miterlimit="10"/>
  </g>
</svg>
