<svg xmlns="http://www.w3.org/2000/svg" xmlns:xlink="http://www.w3.org/1999/xlink" width="64" height="64" viewBox="0 0 64 64">
  <defs>
    <linearGradient id="a" x1="36.765" y1="24.78" x2="42.95" y2="45.011" gradientUnits="userSpaceOnUse">
      <stop offset="0" stop-color="#c9c9c9"/>
      <stop offset="1" stop-color="#737373"/>
    </linearGradient>
    <linearGradient id="b" x1="17.66" y1="29.313" x2="22.294" y2="39.206" gradientUnits="userSpaceOnUse">
      <stop offset="0" stop-color="#f0f0f0"/>
      <stop offset="1" stop-color="#b3b3b3"/>
    </linearGradient>
    <linearGradient id="c" x1="23.488" y1="31.163" x2="26.218" y2="40.091" xlink:href="#a"/>
    <linearGradient id="d" x1="26.909" y1="35.918" x2="31.109" y2="44.886" xlink:href="#b"/>
    <linearGradient id="e" x1="36.113" y1="30.875" x2="38.85" y2="36.718" xlink:href="#b"/>
    <linearGradient id="f" x1="18.074" y1="29.127" x2="28.73" y2="63.98" xlink:href="#a"/>
    <linearGradient id="g" x1="40.275" y1="31.847" x2="49.572" y2="51.696" xlink:href="#b"/>
    <linearGradient id="h" x1="36.739" y1="33.464" x2="41.262" y2="48.259" xlink:href="#a"/>
    <linearGradient id="i" x1="21.272" y1="29.843" x2="64.921" y2="51.038" gradientUnits="userSpaceOnUse">
      <stop offset="0" stop-color="#83d2ea"/>
      <stop offset="0.545" stop-color="#5199b0"/>
      <stop offset="1" stop-color="#25667d"/>
    </linearGradient>
    <linearGradient id="j" x1="45.385" y1="36.065" x2="52.615" y2="36.065" xlink:href="#i"/>
    <linearGradient id="k" x1="47.5" y1="27.635" x2="50.5" y2="27.635" gradientUnits="userSpaceOnUse">
      <stop offset="0.1" stop-color="#575757"/>
      <stop offset="0.5" stop-color="#c4c4c4"/>
      <stop offset="1" stop-color="#fff"/>
    </linearGradient>
    <linearGradient id="l" x1="45.385" y1="36.969" x2="52.615" y2="36.969" gradientUnits="userSpaceOnUse">
      <stop offset="0.1" stop-color="#195a72"/>
      <stop offset="0.5" stop-color="#5a9cb5"/>
      <stop offset="1" stop-color="#93d2f0"/>
    </linearGradient>
    <linearGradient id="m" x1="39.714" y1="22.923" x2="55.504" y2="22.923" xlink:href="#k"/>
    <linearGradient id="n" x1="38.054" y1="27.409" x2="54.119" y2="13.833" xlink:href="#k"/>
  </defs>
  <title>25776_DELPMG_AP_AppIcon_r21x</title>
  <g>
    <polygon points="27.919 27.485 27.919 32.347 31.912 33.103 36.727 30.626 39.149 31.035 39.149 34.561 46.08 35.951 46.08 37.662 49.785 38.44 49.785 30.867 27.919 27.485" stroke="#6d6d6d" stroke-linecap="round" stroke-linejoin="round" fill="url(#a)"/>
    <polygon points="27.919 27.485 27.919 32.347 22.441 31.283 20.132 32.189 20.132 37.637 12.247 41.484 12.247 33.103 27.919 27.485" stroke="#6d6d6d" stroke-linecap="round" stroke-linejoin="round" fill="url(#b)"/>
    <polygon points="44.468 44.001 38.308 49.959 25.432 45.724 32.444 40.856 44.468 44.001" fill="#fff" stroke="#6d6d6d" stroke-linejoin="round"/>
    <polygon points="49.785 38.44 46.08 37.662 46.08 42.317 49.785 38.44" fill="#fff" stroke="#6d6d6d" stroke-linejoin="round"/>
    <polygon points="20.132 32.189 29.756 34.212 22.517 37.936 22.517 38.261 20.132 37.637 20.132 32.189" stroke="#6d6d6d" stroke-linecap="round" stroke-linejoin="round" fill="url(#c)"/>
    <polygon points="25.432 45.724 32.444 40.856 32.444 34.777 25.432 38.691 25.432 45.724" stroke="#6d6d6d" stroke-linecap="round" stroke-linejoin="round" fill="url(#d)"/>
    <polygon points="39.149 34.561 39.149 31.035 34.455 33.655 39.149 34.561" stroke="#6d6d6d" stroke-linecap="round" stroke-linejoin="round" fill="url(#e)"/>
    <polygon points="12.247 41.484 20.132 37.637 22.517 38.261 22.517 44.787 12.247 41.484" fill="#fff" stroke="#6d6d6d" stroke-linejoin="round"/>
    <polygon points="38.308 49.959 25.432 45.724 25.432 38.691 22.517 37.936 22.517 44.787 12.247 41.484 12.247 33.103 8.574 32.032 8.574 43.401 38.308 53.895 38.308 49.959" stroke="#6d6d6d" stroke-linecap="round" stroke-linejoin="round" fill="url(#f)"/>
    <polygon points="51.426 29.408 49.785 30.867 49.785 38.44 46.08 42.317 46.08 35.951 44.468 37.305 44.468 44.001 38.308 49.959 38.308 53.895 51.426 39.028 51.426 29.408" stroke="#6d6d6d" stroke-linecap="round" stroke-linejoin="round" fill="url(#g)"/>
    <polygon points="32.444 34.777 44.468 37.305 44.468 44.001 32.444 40.856 32.444 34.777" stroke="#6d6d6d" stroke-linecap="round" stroke-linejoin="round" fill="url(#h)"/>
    <polygon points="46.08 35.951 34.455 33.655 39.149 31.035 36.727 30.626 31.912 33.103 22.441 31.283 20.132 32.189 29.756 34.212 22.517 37.936 25.432 38.691 32.444 34.777 44.468 37.305 46.08 35.951" stroke="#00415f" stroke-linecap="round" stroke-linejoin="round" fill="url(#i)"/>
    <polygon points="51.426 29.408 27.923 26.011 8.574 32.032 12.247 33.103 27.919 27.485 49.785 30.867 51.426 29.408" fill="#fff" stroke="#6d6d6d" stroke-linejoin="round"/>
    <path d="M51.426,29.408l-23.5-3.4L8.574,32.032V43.4L38.308,53.9,51.426,39.028Z" fill="none" stroke="#2d2d2d" stroke-linecap="round" stroke-linejoin="round"/>
    <g>
      <ellipse cx="49" cy="30.043" rx="3.615" ry="1.808" fill="#fff"/>
      <path d="M52.615,30.043c0-1-1.619-1.807-3.615-1.807s-3.615.809-3.615,1.807V40.28a1.3,1.3,0,0,0,.023.221,3.591,3.591,0,0,0,3.166,3.351,2.132,2.132,0,0,0,.852,0A3.591,3.591,0,0,0,52.592,40.5a1.3,1.3,0,0,0,.023-.221Z" stroke="#00415f" stroke-linecap="round" stroke-linejoin="round" fill="url(#j)"/>
      <g>
        <path d="M49,30.136c-.975,0-1.5-.5-1.5-.7v-4.3h3v4.3C50.5,29.639,49.975,30.136,49,30.136Z" fill="url(#k)"/>
        <path d="M50,25.634v3.7a1.8,1.8,0,0,1-2,0v-3.7h2m1-1H47v4.8c0,.58.841,1.2,2,1.2s2-.621,2-1.2v-4.8Z" fill="#6d6d6d"/>
      </g>
      <path d="M49,31.851c-2,0-3.615-.809-3.615-1.808V40.28a3.615,3.615,0,0,0,7.23,0V30.043C52.615,31.042,51,31.851,49,31.851Z" stroke="#00415f" stroke-miterlimit="10" fill="url(#l)"/>
      <g>
        <path d="M49,26.037c-3.888,0-6.5-1.552-6.5-3V19.81h13v3.227C55.5,24.485,52.888,26.037,49,26.037Z" fill="url(#m)"/>
        <path d="M55,20.31v2.727c0,1.044-2.283,2.5-6,2.5s-6-1.456-6-2.5V20.31H55m1-1H42v3.727c0,1.933,3.135,3.5,7,3.5s7-1.567,7-3.5V19.31Z" fill="#6d6d6d"/>
      </g>
      <g>
        <path d="M49,22.31c-3.888,0-6.5-1.551-6.5-3a1.521,1.521,0,0,1,.313-.875l.092-.132,5.024-6.6a2.033,2.033,0,0,1,2.142,0l.15.2h.007l4.912,6.46.047.073a1.521,1.521,0,0,1,.313.875C55.5,20.759,52.888,22.31,49,22.31Z" fill="url(#n)"/>
        <path d="M49,11.9a1.478,1.478,0,0,1,.7.139l.275.368h.008l4.7,6.179.1.142A1.032,1.032,0,0,1,55,19.31c0,1.044-2.283,2.5-6,2.5s-6-1.456-6-2.5a1.032,1.032,0,0,1,.222-.587l.1-.141,4.7-6.18h.011l.273-.368A1.463,1.463,0,0,1,49,11.9m0-1a1.92,1.92,0,0,0-1.473.507h0L42.4,18.136v.01A2.009,2.009,0,0,0,42,19.31c0,1.934,3.135,3.5,7,3.5s7-1.566,7-3.5a2.009,2.009,0,0,0-.405-1.164v-.01L50.476,11.4h0A1.92,1.92,0,0,0,49,10.9Z" fill="#6d6d6d"/>
      </g>
      <path d="M49,11.9a1.478,1.478,0,0,1,.7.139l.275.368h.008l4.7,6.179.1.142A1.032,1.032,0,0,1,55,19.31v3.727c0,.858-1.551,1.977-4.147,2.364L50,25.528v3.8a1.8,1.8,0,0,1-2,0v-3.8l-.853-.127C44.551,25.014,43,23.9,43,23.037V19.31a1.032,1.032,0,0,1,.222-.587l.1-.141,4.7-6.18h.011l.273-.368A1.463,1.463,0,0,1,49,11.9m0-1a1.92,1.92,0,0,0-1.473.507h0L42.4,18.136v.01A2.009,2.009,0,0,0,42,19.31v3.727c0,1.586,2.109,2.922,5,3.353v3.045c0,.58.841,1.2,2,1.2s2-.621,2-1.2V26.39c2.891-.431,5-1.767,5-3.353V19.31a2.009,2.009,0,0,0-.405-1.164v-.01L50.476,11.4h0A1.92,1.92,0,0,0,49,10.9Z" fill="#2d2d2d"/>
      <line x1="49" y1="11.633" x2="52.555" y2="19.091" fill="none" stroke="#2d2d2d" stroke-miterlimit="10" stroke-width="0.682"/>
      <path d="M49,10.9c-.816,0-1.477.329-1.477.738s.661.739,1.477.739,1.477-.33,1.477-.739S49.816,10.9,49,10.9Z" fill="#2d2d2d"/>
    </g>
  </g>
</svg>
