<svg xmlns="http://www.w3.org/2000/svg" xmlns:xlink="http://www.w3.org/1999/xlink" viewBox="0 0 64 64"><defs><style>.cls-1{fill:url(#linear-gradient);}.cls-2{fill:url(#linear-gradient-2);}.cls-11,.cls-18,.cls-20,.cls-3{stroke:#6d6d6d;}.cls-10,.cls-11,.cls-12,.cls-13,.cls-14,.cls-15,.cls-18,.cls-20,.cls-23,.cls-3,.cls-4,.cls-5,.cls-6,.cls-7,.cls-8,.cls-9{stroke-linecap:round;stroke-linejoin:round;}.cls-3{fill:url(#linear-gradient-3);}.cls-10,.cls-12,.cls-13,.cls-14,.cls-15,.cls-4,.cls-5,.cls-6,.cls-7,.cls-8,.cls-9{stroke:#00415f;}.cls-4{fill:url(#linear-gradient-4);}.cls-5{fill:url(#linear-gradient-5);}.cls-6{fill:url(#linear-gradient-6);}.cls-7{fill:url(#linear-gradient-7);}.cls-8{fill:url(#linear-gradient-8);}.cls-9{fill:url(#linear-gradient-9);}.cls-10{fill:url(#linear-gradient-10);}.cls-11{fill:url(#linear-gradient-11);}.cls-12{fill:url(#linear-gradient-12);}.cls-13{fill:url(#linear-gradient-13);}.cls-14{fill:url(#linear-gradient-14);}.cls-15{fill:url(#linear-gradient-15);}.cls-16{fill:url(#linear-gradient-16);}.cls-17{fill:#6d6d6d;}.cls-18{fill:url(#linear-gradient-17);}.cls-19{fill:url(#linear-gradient-18);}.cls-20{fill:url(#linear-gradient-19);}.cls-21{fill:url(#linear-gradient-20);}.cls-22{fill:#2d2d2d;}.cls-23{stroke:#2d2d2d;fill:url(#linear-gradient-21);}.cls-24{opacity:0.9;}.cls-25{fill:url(#linear-gradient-22);}.cls-26,.cls-29{fill:#343434;}.cls-27{fill:url(#linear-gradient-23);}.cls-28{fill:url(#linear-gradient-24);}.cls-29{opacity:0.7;}.cls-30{fill:url(#linear-gradient-25);}.cls-31{fill:url(#linear-gradient-26);}.cls-32{fill:#00415f;}.cls-33{fill:url(#linear-gradient-27);}</style><linearGradient id="linear-gradient" x1="40.05" y1="34.09" x2="69.5" y2="34.09" gradientUnits="userSpaceOnUse"><stop offset="0" stop-color="#787878"/><stop offset="1" stop-color="#fcfcfc"/></linearGradient><linearGradient id="linear-gradient-2" x1="25.77" y1="14.75" x2="10.8" y2="38.62" gradientUnits="userSpaceOnUse"><stop offset="0" stop-color="#c9c9c9"/><stop offset="1" stop-color="#737373"/></linearGradient><linearGradient id="linear-gradient-3" x1="78.61" y1="1.86" x2="15.28" y2="50.48" gradientUnits="userSpaceOnUse"><stop offset="0" stop-color="#fcfcfc"/><stop offset="1" stop-color="#b3b3b3"/></linearGradient><linearGradient id="linear-gradient-4" x1="28.83" y1="44.4" x2="43.74" y2="34.59" gradientUnits="userSpaceOnUse"><stop offset="0.1" stop-color="#195a72"/><stop offset="0.5" stop-color="#5a9cb5"/><stop offset="1" stop-color="#93d2f0"/></linearGradient><linearGradient id="linear-gradient-5" x1="28.84" y1="45.72" x2="59.29" y2="31.02" xlink:href="#linear-gradient-4"/><linearGradient id="linear-gradient-6" x1="34.02" y1="40.7" x2="49.69" y2="29.88" xlink:href="#linear-gradient-4"/><linearGradient id="linear-gradient-7" x1="16.64" y1="48.76" x2="52.68" y2="31.01" xlink:href="#linear-gradient-4"/><linearGradient id="linear-gradient-8" x1="14.02" y1="46.98" x2="30.05" y2="38.16" xlink:href="#linear-gradient-4"/><linearGradient id="linear-gradient-9" x1="19.05" y1="44.69" x2="31.04" y2="30.63" xlink:href="#linear-gradient-4"/><linearGradient id="linear-gradient-10" x1="31.74" y1="33.91" x2="39.5" y2="33.91" xlink:href="#linear-gradient-4"/><linearGradient id="linear-gradient-11" x1="29.39" y1="34.83" x2="31.5" y2="34.83" xlink:href="#linear-gradient-2"/><linearGradient id="linear-gradient-12" x1="29.56" y1="32.52" x2="39.5" y2="32.52" xlink:href="#linear-gradient-4"/><linearGradient id="linear-gradient-13" x1="14.01" y1="40.39" x2="46.77" y2="26.36" xlink:href="#linear-gradient-4"/><linearGradient id="linear-gradient-14" x1="9.23" y1="34.77" x2="21.87" y2="34.77" xlink:href="#linear-gradient-4"/><linearGradient id="linear-gradient-15" x1="16.43" y1="36.17" x2="0.81" y2="49.54" xlink:href="#linear-gradient-4"/><linearGradient id="linear-gradient-16" x1="44.5" y1="22.05" x2="28.87" y2="35.43" xlink:href="#linear-gradient-3"/><linearGradient id="linear-gradient-17" x1="38.59" y1="31.24" x2="41.5" y2="31.24" xlink:href="#linear-gradient-2"/><linearGradient id="linear-gradient-18" x1="35.58" y1="23.47" x2="21.34" y2="36.67" xlink:href="#linear-gradient-3"/><linearGradient id="linear-gradient-19" x1="28.42" y1="34.1" x2="31.33" y2="34.1" xlink:href="#linear-gradient-2"/><linearGradient id="linear-gradient-20" x1="24.87" y1="26.81" x2="6.12" y2="41.04" xlink:href="#linear-gradient-3"/><linearGradient id="linear-gradient-21" x1="33.07" y1="10.64" x2="68.23" y2="65.24" gradientUnits="userSpaceOnUse"><stop offset="0" stop-color="#fff"/><stop offset="1" stop-color="#bfbfbf"/></linearGradient><linearGradient id="linear-gradient-22" x1="42.9" y1="231.39" x2="52.16" y2="240.2" gradientTransform="matrix(1, 0.4, 0, 1, 0, -218.59)" gradientUnits="userSpaceOnUse"><stop offset="0" stop-color="#f0f0f0"/><stop offset="1" stop-color="#b3b3b3"/></linearGradient><linearGradient id="linear-gradient-23" x1="37.35" y1="240.91" x2="46.62" y2="249.73" xlink:href="#linear-gradient-22"/><linearGradient id="linear-gradient-24" x1="43.11" y1="238.78" x2="52.37" y2="247.6" xlink:href="#linear-gradient-22"/><linearGradient id="linear-gradient-25" x1="42.29" y1="280.19" x2="50.03" y2="286.43" gradientTransform="matrix(1, 0.47, 0, 1, 0, -279.86)" gradientUnits="userSpaceOnUse"><stop offset="0" stop-color="#fff"/><stop offset="1" stop-color="#bbbdbf"/></linearGradient><linearGradient id="linear-gradient-26" x1="42.96" y1="18.25" x2="48.14" y2="30.15" gradientUnits="userSpaceOnUse"><stop offset="0" stop-color="#92d5ee"/><stop offset="1" stop-color="#6f9cae"/></linearGradient><linearGradient id="linear-gradient-27" x1="44.58" y1="280.41" x2="49.19" y2="284.13" gradientTransform="matrix(1, 0.47, 0, 1, 0, -279.86)" gradientUnits="userSpaceOnUse"><stop offset="0" stop-color="#92d5ee"/><stop offset="0.15" stop-color="#8ccfe8"/><stop offset="0.34" stop-color="#7cbed7"/><stop offset="0.57" stop-color="#60a3bb"/><stop offset="0.81" stop-color="#3b7c95"/><stop offset="1" stop-color="#185971"/></linearGradient></defs><g id="Layer_1" data-name="Layer 1"><g id="DELMIA___20-DELMIA_Plant_Layout_Definition" data-name="DELMIA _ 20-DELMIA Plant Layout Definition"><polygon class="cls-1" points="51 27 51 41.18 35.23 28.84 51 27"/><polygon class="cls-2" points="10 27.93 10 37.02 20.5 35.12 10 27.93"/><polygon class="cls-3" points="18.5 50.5 50.69 40.72 37.16 30.04 9.5 37.5 18.5 50.5"/><polygon class="cls-4" points="34.13 36.92 37.44 39.13 46.27 36.92 42.96 34.71 34.13 36.92"/><polygon class="cls-5" points="46.5 36.4 46.5 39.6 37.5 42.34 37.5 39.13 46.5 36.4"/><polygon class="cls-6" points="34.5 36.05 34.5 39.55 37.5 42.61 37.5 38.96 34.5 36.05"/><polygon class="cls-7" points="32.5 40.16 21.5 43.78 21.5 47.16 32.5 43.54 32.5 40.16"/><polygon class="cls-8" points="28.6 38.02 18.66 41.34 21.15 43.78 31.92 40.23 28.6 38.02"/><polygon class="cls-9" points="20.5 47.09 20.5 43.78 18.5 41.25 18.5 44.24 20.5 47.09"/><polygon class="cls-10" points="31.82 36.17 39.5 33.99 39.5 31.65 31.74 33.83 31.82 36.17"/><polygon class="cls-11" points="30 33.49 31.5 35.19 31.5 36.17 29.39 33.7 30 33.49"/><polygon class="cls-12" points="38.01 30.76 39.5 32.1 31.75 34.28 29.56 31.81 38.01 30.76"/><polygon class="cls-13" points="26.71 34.07 26.63 37.39 16.5 40.23 16.5 36.92 26.71 34.07"/><polygon class="cls-14" points="13.76 33.7 16.18 36.92 26.39 34.07 24.96 32.63 15.46 33.26 13.76 33.7"/><polygon class="cls-15" points="16.5 40.23 14.5 36.95 14.5 33.7 16.5 36.92 16.5 40.23"/><path class="cls-16" d="M41.76,33.86a.52.52,0,0,1-.38-.17L31.65,22.55a.53.53,0,0,1-.12-.4.47.47,0,0,1,.23-.35l5.67-3.67a.5.5,0,0,1,.27-.08.56.56,0,0,1,.27.08l13.3,8.45a.49.49,0,0,1,.23.41.5.5,0,0,1-.22.42L42,33.77A.47.47,0,0,1,41.76,33.86Z"/><path class="cls-17" d="M37.7,18.55,51,27l-9.24,6.36L32,22.22l5.67-3.67m0-1a1,1,0,0,0-.54.16l-5.68,3.67a1,1,0,0,0-.21,1.5L41,34a1,1,0,0,0,.75.34,1,1,0,0,0,.57-.18l9.24-6.36A1,1,0,0,0,52,27a1,1,0,0,0-.46-.82L38.23,17.71a.94.94,0,0,0-.53-.16Z"/><polygon class="cls-18" points="41.5 29.13 41.5 33.36 38.59 31.17 41.5 29.13"/><path class="cls-19" d="M31.34,36.75a.51.51,0,0,1-.41-.2L22,24.56a.56.56,0,0,1-.09-.4.51.51,0,0,1,.24-.33l6.74-4a.48.48,0,0,1,.26-.07.52.52,0,0,1,.29.09l12.57,8.89a.51.51,0,0,1,.21.41.49.49,0,0,1-.22.41L31.62,36.66A.51.51,0,0,1,31.34,36.75Z"/><path class="cls-17" d="M29.19,20.24l12.57,8.89L31.34,36.25l-8.9-12,6.75-4m0-1a1,1,0,0,0-.51.14l-6.75,4a1,1,0,0,0-.47.67,1,1,0,0,0,.18.79l8.89,12a1,1,0,0,0,.81.41,1,1,0,0,0,.56-.18L42.33,30a1,1,0,0,0,.43-.82,1,1,0,0,0-.42-.82L29.77,19.42a1,1,0,0,0-.58-.18Z"/><polygon class="cls-20" points="31.1 31.95 31.34 36.25 28.42 33.71 31.1 31.95"/><path class="cls-21" d="M19.76,39.85a.5.5,0,0,1-.39-.18L10,28.25a.52.52,0,0,1-.11-.4.51.51,0,0,1,.23-.34l9.51-5.93a.5.5,0,0,1,.26-.08.55.55,0,0,1,.34.13l11.19,9.94a.53.53,0,0,1,.16.41.51.51,0,0,1-.22.39L20,39.77A.45.45,0,0,1,19.76,39.85Z"/><path class="cls-17" d="M19.91,22,31.1,32l-11.34,7.4L10.41,27.93,19.91,22m0-1a1,1,0,0,0-.53.16l-9.5,5.92a1,1,0,0,0-.25,1.48L19,40a1,1,0,0,0,1.32.2l11.34-7.41A1,1,0,0,0,32.1,32a1,1,0,0,0-.33-.82L20.58,21.26a1,1,0,0,0-.67-.26Z"/><path class="cls-22" d="M37.26,18.46,51,27.16v13l-1,0-30.9,10-9.1-13v-9l9.44-6.24L22,24.18l6.75-4,2.92,2.06-.07-.08,5.68-3.68m0-1a1,1,0,0,0-.54.16L31.58,21l-2.27-1.61a1,1,0,0,0-.58-.18,1.06,1.06,0,0,0-.51.14L22.09,23l-2-1.77a1,1,0,0,0-1.22-.09L9.45,27.33a1,1,0,0,0-.45.84v9a1,1,0,0,0,.18.57l9.1,13a1,1,0,0,0,.82.43,1.12,1.12,0,0,0,.31,0l30.77-10,.87,0a1,1,0,0,0,1-1v-13a1,1,0,0,0-.46-.84L37.8,17.62a1,1,0,0,0-.54-.16Z"/></g></g><g id="Calque_4" data-name="Calque 4"><polygon class="cls-23" points="38.5 47 54.5 54.1 54.5 16 38.5 10 38.5 47"/><g class="cls-24"><polygon class="cls-25" points="44.5 35.66 44.5 32.74 48.5 34.36 48.5 37.28 44.5 35.66"/><path class="cls-26" d="M45,33.48l3,1.21v1.85l-3-1.21V33.48M44,32v4l5,2V34l-5-2Z"/><polygon class="cls-27" points="40.5 45.05 40.5 42.13 44.5 43.74 44.5 46.66 40.5 45.05"/><path class="cls-26" d="M41,42.87l3,1.21v1.84l-3-1.21V42.87m-1-1.49v4l5,2v-4l-5-2Z"/><polygon class="cls-28" points="48.5 48.28 48.5 45.36 52.5 46.97 52.5 49.9 48.5 48.28"/><path class="cls-26" d="M49,46.1l3,1.21v1.84l-3-1.21V46.1m-1-1.48v4l5,2v-4l-5-2Z"/><polygon class="cls-29" points="50 43.42 47 42.21 47 40.21 49 41.02 49 40.02 48 39.62 48 38.62 47 38.21 47 36.21 46 35.81 46 37.81 45 37.4 45 38.4 44 38 44 39 46 39.81 46 41.81 43 40.6 42 40.19 42 42.19 43 42.6 43 41.6 50 44.42 50 45.42 51 45.83 51 43.83 50 43.42"/></g><path class="cls-30" d="M50.81,26.65c0-2.9-2.36-6.36-5.26-7.71s-5.26-.1-5.26,2.81,2.36,6.35,5.26,7.71S50.81,29.55,50.81,26.65Z"/><path class="cls-31" d="M43.33,19.4a4.33,4.33,0,0,1,1.8.45c2.53,1.18,4.68,4.3,4.68,6.8,0,1.49-.75,2.35-2,2.35a4.49,4.49,0,0,1-1.8-.45c-2.53-1.18-4.68-4.3-4.68-6.8,0-1.5.75-2.35,2-2.35m0-1c-1.79,0-3,1.24-3,3.35,0,2.9,2.36,6.35,5.26,7.71a5.29,5.29,0,0,0,2.22.54c1.79,0,3-1.24,3-3.35,0-2.9-2.36-6.36-5.26-7.71a5.26,5.26,0,0,0-2.22-.54Z"/><path class="cls-32" d="M43.33,18.4a5.26,5.26,0,0,1,2.22.54c2.9,1.35,5.26,4.81,5.26,7.71,0,2.11-1.25,3.35-3,3.35a5.29,5.29,0,0,1-2.22-.54c-2.9-1.36-5.26-4.81-5.26-7.71,0-2.11,1.25-3.35,3-3.35m0-1c-2.41,0-4,1.74-4,4.35,0,3.3,2.57,7.09,5.84,8.61a6.19,6.19,0,0,0,2.64.64c2.41,0,4-1.75,4-4.35,0-3.31-2.57-7.09-5.84-8.62a6.29,6.29,0,0,0-2.64-.63Z"/><path class="cls-33" d="M45,20.39a6.7,6.7,0,0,1,3.7,5.43,2.26,2.26,0,0,1-1,2.05L45,24.09V20"/><polygon class="cls-32" points="45.65 24.01 45.32 24.18 47.45 27.31 47.77 27.13 45.65 24.01"/><polygon class="cls-32" points="47 17.68 44 16.28 44 15.28 47 16.68 47 17.68"/><polygon class="cls-32" points="46 18.21 45 17.74 45 16.74 46 17.21 46 18.21"/><polygon class="cls-32" points="51.92 22.86 49.3 19.02 49.63 18.85 52.24 22.68 51.92 22.86"/><polygon class="cls-32" points="50.21 22.06 49.24 20.64 49.89 20.29 50.86 21.72 50.21 22.06"/></g></svg>