<?xml version="1.0" encoding="UTF-8"?><svg id="Layer_31_copy_2" xmlns="http://www.w3.org/2000/svg" xmlns:xlink="http://www.w3.org/1999/xlink" viewBox="0 0 64 64"><defs><style>.cls-1{fill:url(#linear-gradient-9);stroke:#831300;}.cls-1,.cls-2,.cls-3,.cls-4{stroke-linejoin:round;}.cls-5{fill:url(#linear-gradient-2);}.cls-6{fill:#fff;}.cls-7{fill:url(#Dark_BLUE_gradient_LEFT);}.cls-8{fill:url(#linear-gradient-6);}.cls-9{fill:#323232;}.cls-10{fill:#020000;}.cls-11{fill:#063755;}.cls-12{fill:#003755;}.cls-13{fill:url(#Light_BLUE_gradient_TOP);}.cls-14{fill:url(#white_front_right-2);}.cls-15{fill:url(#linear-gradient-10);}.cls-16{fill:url(#white_front_right-3);}.cls-17,.cls-2,.cls-3,.cls-4{opacity:.3;}.cls-18{fill:url(#Light_BLUE_gradient_TOP-3);}.cls-19{clip-path:url(#clippath);}.cls-20{fill:none;}.cls-21{fill:url(#linear-gradient-7);}.cls-22{fill:#00415f;}.cls-2{fill:url(#linear-gradient-4);}.cls-2,.cls-3,.cls-4{stroke:#323232;}.cls-23{fill:url(#linear-gradient);}.cls-3{fill:url(#linear-gradient-3);}.cls-24{fill:#f2f2f2;}.cls-25{fill:url(#white_front_right);}.cls-26{fill:url(#linear-gradient-8);}.cls-27{fill:url(#Light_BLUE_gradient_TOP-2);}.cls-4{fill:url(#linear-gradient-5);}</style><linearGradient id="linear-gradient" x1="21.51" y1="14.88" x2="41.33" y2="49.22" gradientUnits="userSpaceOnUse"><stop offset="0" stop-color="#f4f5f5"/><stop offset=".99" stop-color="#d2d2d2"/></linearGradient><linearGradient id="Dark_BLUE_gradient_LEFT" x1="21.32" y1="24.61" x2="47.82" y2="19.11" gradientUnits="userSpaceOnUse"><stop offset="0" stop-color="#82bedc"/><stop offset="1" stop-color="#285a78"/></linearGradient><linearGradient id="linear-gradient-2" x1="23.04" y1="36.75" x2="43.6" y2="31.28" xlink:href="#linear-gradient"/><linearGradient id="linear-gradient-3" x1="40.5" y1="34.5" x2="40.5" y2="34.5" xlink:href="#linear-gradient"/><linearGradient id="linear-gradient-4" x1="31.5" y1="35.5" x2="31.5" y2="35.5" xlink:href="#linear-gradient"/><linearGradient id="linear-gradient-5" x1="22.5" y1="35.5" x2="22.5" y2="35.5" xlink:href="#linear-gradient"/><clipPath id="clippath"><polygon class="cls-20" points="32 31 46 55 58 55 58 27 32 27 32 31"/></clipPath><linearGradient id="linear-gradient-6" x1="39.21" y1="38.03" x2="54.44" y2="50.31" gradientUnits="userSpaceOnUse"><stop offset="0" stop-color="#fff"/><stop offset="1" stop-color="#bbbdbf"/></linearGradient><linearGradient id="linear-gradient-7" x1="40.66" y1="34.12" x2="50.59" y2="52.28" gradientUnits="userSpaceOnUse"><stop offset="0" stop-color="#92d5ee"/><stop offset="1" stop-color="#6f9cae"/></linearGradient><linearGradient id="linear-gradient-8" x1="44.69" y1="38.45" x2="53.41" y2="45.48" gradientUnits="userSpaceOnUse"><stop offset="0" stop-color="#92d5ee"/><stop offset=".15" stop-color="#8ccfe8"/><stop offset=".34" stop-color="#7bbed7"/><stop offset=".57" stop-color="#60a2bb"/><stop offset=".81" stop-color="#3a7c94"/><stop offset="1" stop-color="#185971"/></linearGradient><linearGradient id="linear-gradient-9" x1="15.76" y1="-19.14" x2="30.15" y2="-44.06" gradientTransform="translate(0 18) scale(1 -1)" gradientUnits="userSpaceOnUse"><stop offset="0" stop-color="#fc3f05"/><stop offset="1" stop-color="#c10e00"/></linearGradient><linearGradient id="linear-gradient-10" x1="22.56" y1="-21.98" x2="30.78" y2="-36.22" gradientTransform="translate(0 18) scale(1 -1)" gradientUnits="userSpaceOnUse"><stop offset="0" stop-color="#fff"/><stop offset="1" stop-color="#d2d2d2"/></linearGradient><linearGradient id="Light_BLUE_gradient_TOP" x1="24.5" y1="17.5" x2="32.5" y2="17.5" gradientUnits="userSpaceOnUse"><stop offset="0" stop-color="#a0e1fa"/><stop offset=".99" stop-color="#73c3e1"/></linearGradient><linearGradient id="white_front_right" x1="27" y1="17.5" x2="30" y2="17.5" gradientUnits="userSpaceOnUse"><stop offset="0" stop-color="#fff"/><stop offset="1" stop-color="#d2d2d2"/></linearGradient><linearGradient id="Light_BLUE_gradient_TOP-2" x1="7.5" y1="24.5" x2="15.5" y2="24.5" xlink:href="#Light_BLUE_gradient_TOP"/><linearGradient id="white_front_right-2" x1="10" y1="24.5" x2="13" y2="24.5" xlink:href="#white_front_right"/><linearGradient id="Light_BLUE_gradient_TOP-3" x1="7.5" y1="11.5" x2="15.5" y2="11.5" xlink:href="#Light_BLUE_gradient_TOP"/><linearGradient id="white_front_right-3" x1="10" y1="11.5" x2="13" y2="11.5" xlink:href="#white_front_right"/></defs><g id="Layer_27_copy_5"><g><path class="cls-23" d="M13.5,44.5V19.5H49c.28,0,.5,.22,.5,.5v24.5H13.5Z"/><path class="cls-9" d="M49,20v24H14V20H49m0-1H13v26H50V20c0-.55-.45-1-1-1h0Z"/></g><g><path class="cls-7" d="M13.5,25.5v-6H49c.28,0,.5,.22,.5,.5v5.5H13.5Z"/><path class="cls-11" d="M49,20v5H14v-5H49m0-1H13v7H50v-6c0-.55-.45-1-1-1h0Z"/></g><g class="cls-17"><rect class="cls-5" x="13.5" y="31.5" width="36" height="6"/><path class="cls-9" d="M49,32v5H14v-5H49m1-1H13v7H50v-7h0Z"/></g><line class="cls-3" x1="40.5" y1="25" x2="40.5" y2="44"/><line class="cls-2" x1="31.5" y1="26" x2="31.5" y2="45"/><line class="cls-4" x1="22.5" y1="26" x2="22.5" y2="45"/></g><g><path class="cls-6" d="M49.03,27.5h-6.52c-.55,0-1,.45-1,1v2.57s0,0,0,0c-2.57,.9-6.39,3.21-7.19,6.92l3.16,5.53h-1.96l.68,1.52h13.78l.05-14.54v-2c0-.55-.45-1-1-1Z"/><path id="TRIANGLE" class="cls-6" d="M31.66,45.04l-5.63-9.95-5.82,9.95h-5.04l7.33-13.97c.4-.76,1.02-1.36,1.8-1.74,.96-.47,2.05-.53,3.06-.18,1.01,.35,1.83,1.08,2.3,2.04l7.17,13.84h-5.17Zm-6.48-11.62s0,.02,.02,.03l-.02-.03Zm1.74-.01h0s0,0,0,0Z"/></g><g class="cls-19"><g><circle class="cls-8" cx="45.62" cy="43.2" r="10.35"/><path class="cls-21" d="M45.62,34.65c4.71,0,8.55,3.84,8.55,8.55s-3.84,8.55-8.55,8.55-8.55-3.84-8.55-8.55,3.84-8.55,8.55-8.55m0-1.8c-5.72,0-10.35,4.63-10.35,10.35s4.63,10.35,10.35,10.35,10.35-4.63,10.35-10.35-4.63-10.35-10.35-10.35h0Z"/><path class="cls-22" d="M45.62,32.85c5.72,0,10.35,4.63,10.35,10.35s-4.63,10.35-10.35,10.35-10.35-4.63-10.35-10.35,4.63-10.35,10.35-10.35m0-.9c-6.2,0-11.25,5.05-11.25,11.25s5.05,11.25,11.25,11.25,11.25-5.05,11.25-11.25-5.05-11.25-11.25-11.25h0Z"/></g><path class="cls-26" d="M45.17,35.92c4.02,0,7.29,3.26,7.29,7.29,0,1.91-.73,3.65-1.94,4.95l-5.35-4.95v-7.29"/><rect class="cls-22" x="45.17" y="36.45" width=".9" height="7.2"/><rect class="cls-22" x="47.14" y="42.2" width=".9" height="5.93" transform="translate(-18 46.88) rotate(-45)"/><rect class="cls-22" x="43.37" y="29.25" width="4.5" height=".9"/><rect class="cls-22" x="44.27" y="30.15" width="2.7" height="1.8"/><rect class="cls-22" x="54.47" y="31.61" width=".9" height="4.5" transform="translate(-7.86 48.75) rotate(-45)"/><rect class="cls-22" x="53.07" y="33.46" width="1.8" height="2.7" transform="translate(-8.81 48.36) rotate(-45)"/></g><g id="Fail"><path class="cls-1" d="M24.71,32.24l-12.16,22.97c-.39,.74-.11,1.65,.63,2.05,.22,.11,.46,.17,.7,.18h23.89c.84,0,1.51-.69,1.5-1.53,0-.23-.05-.45-.15-.65l-11.71-22.97c-.37-.75-1.27-1.06-2.02-.7-.29,.14-.53,.37-.68,.66Z"/><path class="cls-15" d="M25.85,51.45l-.54-9.25v-3.81h2.72v3.81l-.54,9.25h-1.63Zm-.54,4.35v-2.72h2.72v2.72h-2.72Z"/><path class="cls-24" d="M25.85,51.45l-.54-9.25v-3.81h2.72v3.81l-.54,9.25h-1.63Zm-.54,4.35v-2.72h2.72v2.72h-2.72Z"/></g><g id="Process_copy_2"><g id="_3"><polygon class="cls-6" points="22 20 22 23 22 27 18 27 18 31 6 31 6 19 15 19 15 17 6 17 6 6 17 6 17 10 21 10 21 15 23 15 23 12 35 12 35 24 22 24 22 20"/></g><polygon id="para" class="cls-12" points="20 25 14 25 14 24 19 24 19 12 14 12 14 11 20 11 20 25"/><rect id="para-2" class="cls-12" x="19" y="17" width="6" height="1"/><g id="_3-2"><rect class="cls-13" x="24.5" y="13.5" width="8" height="8"/><path class="cls-10" d="M32,14v7h-7v-7h7m1-1h-9v9h9V13h0Z"/></g><rect id="_3-3" class="cls-25" x="27" y="16" width="3" height="3"/><g id="_2"><rect class="cls-27" x="7.5" y="20.5" width="8" height="8"/><path class="cls-10" d="M15,21v7h-7v-7h7m1-1H7v9h9v-9h0Z"/></g><rect id="_2-2" class="cls-14" x="10" y="23" width="3" height="3"/><g id="_1"><rect class="cls-18" x="7.5" y="7.5" width="8" height="8"/><path class="cls-10" d="M15,8v7h-7v-7h7m1-1H7v9h9V7h0Z"/></g><rect id="_1-2" class="cls-16" x="10" y="10" width="3" height="3"/></g></svg>