<svg id="Layer_1" data-name="Layer 1" xmlns="http://www.w3.org/2000/svg" xmlns:xlink="http://www.w3.org/1999/xlink" viewBox="0 0 64 64"><defs><style>.cls-1{isolation:isolate;}.cls-2{fill:#dbdcdd;opacity:0.5;}.cls-3{fill:#343434;}.cls-4{fill:#f7f7f8;}.cls-5{stroke:#2d2d2d;stroke-linecap:round;stroke-linejoin:round;fill:url(#linear-gradient);}.cls-6{fill:#2d2d2d;}.cls-7{fill:url(#linear-gradient-2);}.cls-8{fill:#00415f;}.cls-9{fill:url(#linear-gradient-3);}.cls-10{fill:url(#linear-gradient-4);}.cls-11{fill:url(#linear-gradient-5);}.cls-12{fill:url(#linear-gradient-6);}.cls-13{fill:url(#linear-gradient-7);}.cls-14{fill:url(#linear-gradient-8);}.cls-15{fill:url(#linear-gradient-9);}</style><linearGradient id="linear-gradient" x1="44.18" y1="21.86" x2="64.33" y2="53.15" gradientUnits="userSpaceOnUse"><stop offset="0" stop-color="#fff"/><stop offset="1" stop-color="#bfbfbf"/></linearGradient><linearGradient id="linear-gradient-2" x1="14.8" y1="37.1" x2="-3.74" y2="59.58" gradientUnits="userSpaceOnUse"><stop offset="0" stop-color="#92d5ee"/><stop offset="0.48" stop-color="#599bb4"/><stop offset="1" stop-color="#185971"/></linearGradient><linearGradient id="linear-gradient-3" x1="30.56" y1="21.13" x2="8.71" y2="47.61" xlink:href="#linear-gradient-2"/><linearGradient id="linear-gradient-4" x1="13.83" y1="20.97" x2="-8.17" y2="47.63" xlink:href="#linear-gradient-2"/><linearGradient id="linear-gradient-5" x1="15.14" y1="26.51" x2="4.28" y2="39.67" xlink:href="#linear-gradient-2"/><linearGradient id="linear-gradient-6" x1="18.62" y1="24.93" x2="4.58" y2="41.94" xlink:href="#linear-gradient-2"/><linearGradient id="linear-gradient-7" x1="36.38" y1="30.72" x2="23.93" y2="45.81" xlink:href="#linear-gradient-2"/><linearGradient id="linear-gradient-8" x1="39.86" y1="29.13" x2="24.23" y2="48.08" xlink:href="#linear-gradient-2"/><linearGradient id="linear-gradient-9" x1="44.07" y1="25.18" x2="20.48" y2="53.76" xlink:href="#linear-gradient-2"/></defs><title>22-29195_DELPSU_AP_AppIcon_r21x</title><g id="DELMIA___22-DELMIA_Process_Flow_Simulation" data-name="DELMIA _ 22-DELMIA Process Flow Simulation"><g class="cls-1"><polygon class="cls-2" points="32 32 31.98 40 40.28 40 38.28 32 32 32"/><polygon class="cls-3" points="42.8 31 45.3 41 35 41 35.01 36 36 36 36 40 44.3 40 42.3 32 36 32 36 36 35 36 35 31 42.8 31"/><path class="cls-3" d="M8.18,47H18.8l.7-9H11.18ZM20.5,37l-1,11H6.8l3.5-11H21"/><path class="cls-3" d="M20,35l.5-7H14.19l-2.07,7Zm1.5-8-.7,9h-10l3-9H22"/></g><polygon class="cls-2" points="8.26 47 18.8 47 19.5 38 11.26 38 8.26 47"/><polygon class="cls-4" points="37 33 41 33 42 39 37 39 37 33"/><polygon class="cls-4" points="15 29 19 29 19 34 14 34 15 29"/><polygon class="cls-4" points="11.94 39 18 39 18 46 9.92 46 11.94 39"/><polygon class="cls-5" points="46.5 39 57.5 46.1 57.5 29 46.5 22 46.5 39"/><polygon class="cls-6" points="49 29.5 49 37.5 54.85 33.72 49 29.5"/><path class="cls-7" d="M12,45a4.5,4.5,0,0,1,0-9,5.07,5.07,0,0,1,.55,0,4.56,4.56,0,0,1,3.9,3.76,4.47,4.47,0,0,1-1.27,3.89.49.49,0,0,1-.35.15.51.51,0,0,1-.36-.15l-2-2V44.5A.5.5,0,0,1,12,45Z"/><path class="cls-8" d="M12,36.5a4,4,0,0,1,2.83,6.83L12,40.5v4a4,4,0,0,1,0-8m0-1h0a5,5,0,0,0,0,10,1,1,0,0,0,1-1V42.91L14.12,44a1,1,0,0,0,.71.29,1,1,0,0,0,.7-.29,5,5,0,0,0,1.41-4.32,5,5,0,0,0-4.33-4.18,4.17,4.17,0,0,0-.61,0Z"/><path class="cls-9" d="M12,45a.5.5,0,0,1-.5-.5v-4a.5.5,0,0,1,.31-.46A.43.43,0,0,1,12,40a.47.47,0,0,1,.35.15L15.18,43a.5.5,0,0,1,0,.71A4.47,4.47,0,0,1,12,45Z"/><path class="cls-8" d="M12,40.5l2.83,2.83A4,4,0,0,1,12,44.5v-4m0-1a.84.84,0,0,0-.38.08,1,1,0,0,0-.62.92v4a1,1,0,0,0,1,1A5,5,0,0,0,15.54,44a1,1,0,0,0,0-1.41l-2.83-2.83A1,1,0,0,0,12,39.5Z"/><polygon class="cls-10" points="10 31.5 9.5 31 9.5 19 10 18.5 11 18.5 11.5 19 11.5 31 11 31.5 10 31.5"/><path class="cls-8" d="M11,19V31H10V19h1m0-1H10L9,19V31l1,1h1l1-1V19l-1-1Z"/><polygon class="cls-11" points="13 31.5 12.5 31 12.5 26 13 25.5 14 25.5 14.5 26 14.5 31 14 31.5 13 31.5"/><path class="cls-8" d="M14,26v5H13V26h1m0-1H13l-1,1v5l1,1h1l1-1V26l-1-1Z"/><polygon class="cls-12" points="16 31.5 15.5 31 15.5 24 16 23.5 17 23.5 17.5 24 17.5 31 17 31.5 16 31.5"/><path class="cls-8" d="M17,24v7H16V24h1m0-1H16l-1,1v7l1,1h1l1-1V24l-1-1Z"/><polygon class="cls-13" points="34 36.5 33.5 36 33.5 30 34 29.5 35 29.5 35.5 30 35.5 36 35 36.5 34 36.5"/><path class="cls-8" d="M35,30v6H34V30h1m0-1H34l-1,1v6l1,1h1l1-1V30l-1-1Z"/><polygon class="cls-14" points="37 36.5 36.5 36 36.5 28 37 27.5 38 27.5 38.5 28 38.5 36 38 36.5 37 36.5"/><path class="cls-8" d="M38,28v8H37V28h1m0-1H37l-1,1v8l1,1h1l1-1V28l-1-1Z"/><polygon class="cls-15" points="40 36.5 39.5 36 39.5 23 40 22.5 41 22.5 41.5 23 41.5 36 41 36.5 40 36.5"/><path class="cls-8" d="M41,23V36H40V23h1m0-1H40l-1,1V36l1,1h1l1-1V23l-1-1Z"/><polygon class="cls-8" points="29.88 44 21 44 21 42 29 42 29 36.08 30 35 34 35 34 37 31 37 30.91 42.97 29.88 44"/><polygon class="cls-8" points="34 35 30 35 29 34 29 32 22 32 22 30 29.5 30 31 30.5 31 34 34 34 34 35"/></g></svg>