<svg xmlns="http://www.w3.org/2000/svg" xmlns:xlink="http://www.w3.org/1999/xlink" viewBox="0 0 64 64"><defs><style>.cls-1{isolation:isolate;}.cls-2{fill:#779aaf;}.cls-3{fill:#95c1db;}.cls-4{fill:#00304b;}.cls-5{fill:#627e8f;}.cls-6{fill:#001c2b;}.cls-10,.cls-11,.cls-12,.cls-7,.cls-8,.cls-9{stroke:#323232;}.cls-10,.cls-11,.cls-12,.cls-18,.cls-7,.cls-8,.cls-9{stroke-miterlimit:10;}.cls-7{fill:url(#linear-gradient);}.cls-8{fill:url(#linear-gradient-2);}.cls-9{fill:url(#linear-gradient-3);}.cls-10{fill:url(#linear-gradient-4);}.cls-11{fill:url(#linear-gradient-5);}.cls-12{fill:#82bddb;}.cls-13,.cls-14,.cls-15{stroke:#00415f;stroke-linecap:round;stroke-linejoin:round;}.cls-13{fill:url(#Medium_BLUE_gradient_FRONT);}.cls-14,.cls-15,.cls-16{fill:#fff;}.cls-14,.cls-15{stroke-width:0.75px;}.cls-15{mix-blend-mode:darken;}.cls-17{fill:url(#New_Gradient_Swatch_1);}.cls-18{fill:none;stroke:#000;stroke-width:1.02px;}.cls-19{fill:#409f1d;}</style><linearGradient id="linear-gradient" x1="28.01" y1="38.5" x2="28.01" y2="33.5" gradientTransform="matrix(-1, 0, 0, 1, 71.01, 0)" gradientUnits="userSpaceOnUse"><stop offset="0" stop-color="#f5f5f5"/><stop offset="0.02" stop-color="#ebebeb"/><stop offset="0.08" stop-color="#d7d7d7"/><stop offset="0.14" stop-color="#c9c9c9"/><stop offset="0.22" stop-color="silver"/><stop offset="0.35" stop-color="#bebebe"/></linearGradient><linearGradient id="linear-gradient-2" x1="19.51" y1="29" x2="36.51" y2="29" gradientTransform="matrix(-1, 0, 0, 1, 71.01, 0)" gradientUnits="userSpaceOnUse"><stop offset="0.33" stop-color="#bebebe"/><stop offset="1" stop-color="#f5f5f5"/></linearGradient><linearGradient id="linear-gradient-3" x1="29.51" y1="13" x2="39.51" y2="13" gradientTransform="matrix(-1, 0, 0, 1, 71.01, 0)" gradientUnits="userSpaceOnUse"><stop offset="0.48" stop-color="#bebebe"/><stop offset="1" stop-color="#f5f5f5"/></linearGradient><linearGradient id="linear-gradient-4" x1="22.51" y1="13" x2="30.51" y2="13" gradientTransform="matrix(-1, 0, 0, 1, 71.01, 0)" gradientUnits="userSpaceOnUse"><stop offset="0" stop-color="#f5f5f5"/><stop offset="0.73" stop-color="#bebebe"/></linearGradient><linearGradient id="linear-gradient-5" x1="26.51" y1="21.77" x2="36.28" y2="21.77" gradientTransform="matrix(-1, 0, 0, 1, 71.01, 0)" gradientUnits="userSpaceOnUse"><stop offset="0.3" stop-color="#bebebe"/><stop offset="1" stop-color="#f5f5f5"/></linearGradient><linearGradient id="Medium_BLUE_gradient_FRONT" x1="38" y1="45" x2="58" y2="45" gradientUnits="userSpaceOnUse"><stop offset="0" stop-color="#8cd7f5"/><stop offset="1" stop-color="#376e8c"/></linearGradient><linearGradient id="New_Gradient_Swatch_1" x1="11.2" y1="23" x2="22.8" y2="23" gradientUnits="userSpaceOnUse"><stop offset="0" stop-color="#464646"/><stop offset="0.99" stop-color="#141414"/></linearGradient></defs><title>1813_AAAe__R21XArtboard 1</title><g class="cls-1"><g id="Robot_1X_copy_2" data-name="Robot  1X copy 2"><g id="Layer_253_copy_2" data-name="Layer 253 copy 2"><g id="data_copy_2" data-name="data *** copy 2"><g id="_3_" data-name="3 ***"><path class="cls-2" d="M28.83,42.62l.67.18a.82.82,0,0,0-.44,0l-.68-.19A1,1,0,0,1,28.83,42.62Z"/><polygon class="cls-2" points="26.58 43.34 25.95 43.16 28.38 42.61 29.06 42.8 26.58 43.34"/><polygon class="cls-2" points="25.61 49.2 25 49.01 25.01 44.31 25.62 44.5 25.61 49.2"/><path class="cls-2" d="M25.62,44.5,25,44.31a1.06,1.06,0,0,1,.27-.72,1.19,1.19,0,0,1,.67-.43l.63.18a1.27,1.27,0,0,0-.68.43A1.12,1.12,0,0,0,25.62,44.5Z"/><path class="cls-3" d="M29.73,42.92a.68.68,0,0,1,.27.59v4.7l-4.38,1V44.5a1.12,1.12,0,0,1,.28-.73,1.27,1.27,0,0,1,.68-.43l2.48-.54A.77.77,0,0,1,29.73,42.92Z"/><path class="cls-4" d="M29.73,42.92a.68.68,0,0,1,.27.59v4.7l-4.38,1V44.5a1.12,1.12,0,0,1,.28-.73,1.27,1.27,0,0,1,.68-.43l2.48-.54A.77.77,0,0,1,29.73,42.92Z"/></g><g id="_2_" data-name="2  ***"><path class="cls-2" d="M21.84,40.21l.61.18a.86.86,0,0,0-.45,0l-.66-.18A1.2,1.2,0,0,1,21.84,40.21Z"/><polygon class="cls-2" points="18.67 50.81 18 50.63 18 41.9 18.67 42.09 18.67 50.81"/><polygon class="cls-2" points="19.62 40.94 18.95 40.75 21.34 40.22 22 40.39 19.62 40.94"/><path class="cls-2" d="M18.67,42.09,18,41.9a1.1,1.1,0,0,1,.26-.72,1.22,1.22,0,0,1,.69-.43l.67.18a1.39,1.39,0,0,0-.72.44A1.06,1.06,0,0,0,18.67,42.09Z"/><path class="cls-3" d="M22.67,40.5a.72.72,0,0,1,.27.61v8.72l-4.26,1V42.09a1.06,1.06,0,0,1,.23-.72,1.39,1.39,0,0,1,.72-.44L22,40.39A.76.76,0,0,1,22.67,40.5Z"/><path class="cls-4" d="M22.67,40.5a.72.72,0,0,1,.27.61v8.72l-4.26,1V42.09a1.06,1.06,0,0,1,.23-.72,1.39,1.39,0,0,1,.72-.44L22,40.39A.76.76,0,0,1,22.67,40.5Z"/></g><g id="_1_" data-name="1  ***"><path class="cls-2" d="M14.91,48.12l.61.19a.89.89,0,0,0-.46,0l-.64-.19A1,1,0,0,1,14.91,48.12Z"/><polygon class="cls-2" points="11.73 52.36 11.12 52.17 11.12 49.82 11.73 50 11.73 52.36"/><polygon class="cls-2" points="12.69 48.85 12.08 48.67 14.42 48.12 15.06 48.31 12.69 48.85"/><path class="cls-2" d="M11.73,50l-.61-.18a1.08,1.08,0,0,1,.28-.73,1.2,1.2,0,0,1,.68-.42l.61.18a1.21,1.21,0,0,0-.68.43A1.07,1.07,0,0,0,11.73,50Z"/><path class="cls-3" d="M15.73,48.42A.7.7,0,0,1,16,49v2.35l-4.27,1V50a1.07,1.07,0,0,1,.28-.72,1.21,1.21,0,0,1,.68-.43l2.37-.54A.73.73,0,0,1,15.73,48.42Z"/><path class="cls-4" d="M15.73,48.42A.7.7,0,0,1,16,49v2.35l-4.27,1V50a1.07,1.07,0,0,1,.28-.72,1.21,1.21,0,0,1,.68-.43l2.37-.54A.73.73,0,0,1,15.73,48.42Z"/></g></g><g id="eclair_" data-name="eclair ***"><polygon class="cls-5" points="11.59 45.86 10.96 45.67 10.96 41.49 11.6 41.68 11.59 45.86"/><polygon class="cls-6" points="24.25 39.53 23.53 39.29 18.89 35.84 19.7 36.06 24.25 39.53"/><polygon class="cls-5" points="11.6 41.68 10.96 41.49 19.13 31.69 19.74 31.88 11.6 41.68"/><polygon class="cls-5" points="24.28 35.35 23.7 35.16 30.78 26.63 31.32 26.81 24.28 35.35"/><polygon class="cls-4" points="24.25 39.53 19.7 36.06 11.59 45.86 11.6 41.68 19.74 31.88 24.28 35.35 31.32 26.81 31.32 30.99 24.25 39.53"/></g><g id="equerre_" data-name="equerre   ***"><polygon class="cls-2" points="9 54.59 7.91 54.28 32.99 48.71 34 49 9 54.59"/><path class="cls-5" d="M7.51,56.66l-.67-.15a2.56,2.56,0,0,1-.57-.15.7.7,0,0,1-.27-.6L7,56a.71.71,0,0,0,.29.61A.55.55,0,0,0,7.51,56.66Z"/><polygon class="cls-5" points="7 55.95 6 55.76 6.01 34.8 6.99 35 7 55.95"/><polygon class="cls-2" points="6.99 35 6.01 34.8 8.01 34.43 9 34.65 6.99 35"/><path class="cls-4" d="M9,54.59,34,49v2L8.09,56.67a1.12,1.12,0,0,1-.8-.11A.71.71,0,0,1,7,56V35l2-.35Z"/></g></g><g id="Layer_41_copy_18" data-name="Layer 41 copy 18"><polygon class="cls-7" points="34.5 38.5 42.83 38.5 51.5 38.5 51.5 34.5 48.5 34.5 48.5 33.5 42.83 33.5 37.5 33.5 37.5 34.5 34.5 34.5 34.5 38.5"/><rect class="cls-8" x="34.5" y="25.5" width="17" height="7"/><polygon class="cls-9" points="31.5 17.5 39.04 17.5 41.5 15.62 41.5 8.5 36.1 8.5 31.5 12.79 31.5 17.5"/><polygon class="cls-10" points="40.5 14.5 46.5 14.5 46.5 16.5 48.5 16.5 48.5 9.5 46.77 9.5 46.77 9.5 40.5 9.5 40.5 14.5"/><polygon class="cls-11" points="37.87 28.65 41.57 31.05 44.5 28.11 44.5 19.08 39.21 12.5 36.87 12.5 34.72 14.79 37.5 20.59 37.5 25.33 37.87 28.65"/><polygon class="cls-12" points="50.5 14.5 52.93 14.5 54.17 16.5 59.5 16.5 59.5 13.5 55.08 13.5 55.15 10.5 59.5 10.5 59.5 8.5 54.3 8.5 53.01 9.5 50.5 9.5 50.5 8.5 49.5 8.5 49.5 16.5 50.5 16.5 50.5 14.5"/></g><g id="PLAY_GRD_copy_2" data-name="PLAY GRD   *** copy 2"><path class="cls-13" d="M58,45A10,10,0,1,1,48,35,10,10,0,0,1,58,45Z"/><path class="cls-14" d="M55,45a7,7,0,1,1-7-7A7,7,0,0,1,55,45Z"/><path class="cls-15" d="M55,45a7,7,0,1,1-7-7A7,7,0,0,1,55,45Z"/><polygon points="53 45 45 49 45 41 53 45"/></g><g id="check_copy_2" data-name="check  *** copy 2"><g id="defonse_BLANC" data-name="defonse BLANC"><path class="cls-16" d="M25.82,16l2,2-.69.7.69.67L23,24.22V27.4A1.6,1.6,0,0,1,21.4,29H12.6A1.6,1.6,0,0,1,11,27.4V18.6A1.6,1.6,0,0,1,12.6,17h8.8A1.6,1.6,0,0,1,23,18.6v.19L25.82,16m0-.8a.83.83,0,0,0-.57.23l-1.86,1.86a2.39,2.39,0,0,0-2-1.06H12.6a2.41,2.41,0,0,0-2.4,2.4v8.8a2.39,2.39,0,0,0,2.4,2.4h8.8a2.41,2.41,0,0,0,2.4-2.4V24.55l4.62-4.62a.82.82,0,0,0,.24-.57.81.81,0,0,0-.25-.57l-.1-.1.12-.13a.8.8,0,0,0,0-1.13l-2.05-2a.8.8,0,0,0-.56-.23Z"/></g><rect class="cls-16" x="12" y="18" width="10" height="10" rx="1.02"/><path class="cls-17" d="M21,18a1,1,0,0,1,1,1v8a1,1,0,0,1-1,1H13a1,1,0,0,1-1-1V19a1,1,0,0,1,1-1h8m0-.8H13A1.83,1.83,0,0,0,11.2,19v8A1.83,1.83,0,0,0,13,28.8h8A1.83,1.83,0,0,0,22.8,27V19A1.83,1.83,0,0,0,21,17.2Z"/><polyline id="Activate" class="cls-18" points="15.55 23.23 19.3 26.96 27.45 18.83"/><polygon id="DeActivate" class="cls-19" points="19.35 22.46 16.91 20.01 14.95 21.93 19.45 26.43 27.87 18 25.82 15.96 19.35 22.46"/><polygon id="DeActivate-2" data-name="DeActivate" class="cls-19" points="19.35 22.46 16.91 20.01 14.95 21.93 19.45 26.43 27.87 18 25.82 15.96 19.35 22.46"/></g></g></g></svg>