<svg id="IT_1_OK_-_r21x" data-name="IT 1 OK - r21x" xmlns="http://www.w3.org/2000/svg" xmlns:xlink="http://www.w3.org/1999/xlink" viewBox="0 0 64 64"><defs><style>.Yellow-WARNING,.cls-1{stroke:#963200;}.Blue-RIGHT\,-FRONT-\&amp;-SINGLE,.De-emphasized-WHITE-for-Vector-Highlights,.Yellow-WARNING,.cls-1,.cls-10,.cls-13,.cls-14,.cls-2,.cls-23,.cls-3,.cls-33,.cls-4,.cls-5,.cls-6,.cls-7{stroke-linejoin:round;}.Yellow-WARNING{fill:url(#linear-gradient);}.cls-1{fill:url(#linear-gradient-2);}.cls-11,.cls-13,.cls-2,.cls-5{fill:none;}.cls-2{stroke:#00415f;}.cls-10,.cls-13,.cls-14,.cls-2,.cls-23,.cls-3,.cls-33,.cls-4,.cls-5,.cls-6,.cls-7{stroke-linecap:round;}.cls-10,.cls-14,.cls-23,.cls-3,.cls-33,.cls-4,.cls-5,.cls-6,.cls-7{stroke:#6d6d6d;}.cls-3{fill:url(#linear-gradient-3);}.cls-4{fill:url(#linear-gradient-4);}.cls-6{fill:url(#linear-gradient-5);}.cls-7{fill:url(#linear-gradient-6);}.cls-8{fill:url(#linear-gradient-7);}.cls-9{fill:#00415f;}.cls-10{fill:url(#linear-gradient-8);}.De-emphasized-WHITE-for-Vector-Highlights,.cls-11{stroke:#fff;}.cls-11{stroke-miterlimit:10;}.cls-12{fill:#939393;}.cls-13{stroke:#343434;}.cls-14{fill:url(#linear-gradient-9);}.cls-15{fill:url(#linear-gradient-10);}.cls-16,.cls-23{fill:#6d6d6d;}.cls-17{fill:url(#linear-gradient-11);}.cls-18{fill:url(#linear-gradient-12);}.cls-19{fill:url(#linear-gradient-13);}.cls-20{fill:url(#linear-gradient-14);}.cls-21{fill:url(#linear-gradient-15);}.cls-22{fill:url(#linear-gradient-16);}.cls-24{fill:url(#linear-gradient-17);}.cls-25{fill:url(#linear-gradient-18);}.cls-26{fill:url(#linear-gradient-19);}.cls-27{fill:#003755;}.cls-28{fill:url(#linear-gradient-20);}.cls-29{fill:url(#linear-gradient-21);}.cls-30{fill:url(#linear-gradient-22);}.cls-31{fill:url(#linear-gradient-23);}.cls-32{fill:url(#linear-gradient-24);}.cls-33{fill:url(#linear-gradient-25);}.cls-34{fill:url(#linear-gradient-26);}.cls-35{fill:#343434;}.cls-36{fill:url(#linear-gradient-27);}.cls-37{fill:url(#linear-gradient-28);}.cls-38{fill:url(#linear-gradient-29);}.cls-39{fill:url(#linear-gradient-30);}.De-emphasized-WHITE-for-Vector-Highlights{fill:#fff;stroke-width:3px;opacity:0.5;}.Blue-RIGHT\,-FRONT-\&amp;-SINGLE{stroke:#003755;fill:url(#linear-gradient-31);}.DARK-GREY-Fill{fill:url(#linear-gradient-32);}</style><linearGradient id="linear-gradient" x1="16.87" y1="18.79" x2="23.63" y2="30.5" gradientUnits="userSpaceOnUse"><stop offset="0" stop-color="#fbe86a"/><stop offset="1" stop-color="#f1cf2f"/></linearGradient><linearGradient id="linear-gradient-2" x1="7.58" y1="32.67" x2="12.99" y2="42.03" xlink:href="#linear-gradient"/><linearGradient id="linear-gradient-3" x1="18.07" y1="51.7" x2="21.98" y2="51.7" gradientUnits="userSpaceOnUse"><stop offset="0" stop-color="#f0f0f0"/><stop offset="1" stop-color="#b3b3b3"/></linearGradient><linearGradient id="linear-gradient-4" x1="16.07" y1="38.95" x2="28.97" y2="38.95" xlink:href="#linear-gradient-3"/><linearGradient id="linear-gradient-5" x1="22.16" y1="49.25" x2="45.57" y2="49.25" xlink:href="#linear-gradient-3"/><linearGradient id="linear-gradient-6" x1="16.66" y1="42.92" x2="30.49" y2="42.92" xlink:href="#linear-gradient-3"/><linearGradient id="linear-gradient-7" x1="20.1" y1="46.23" x2="32.5" y2="34.58" gradientUnits="userSpaceOnUse"><stop offset="0" stop-color="#3c7e96"/><stop offset="0.67" stop-color="#74b7d0"/><stop offset="1" stop-color="#92d5ee"/></linearGradient><linearGradient id="linear-gradient-8" x1="21.95" y1="52" x2="34.55" y2="52" xlink:href="#linear-gradient-3"/><linearGradient id="linear-gradient-9" x1="35.17" y1="42.17" x2="55.38" y2="42.17" gradientUnits="userSpaceOnUse"><stop offset="0.01" stop-color="#4d4d4d"/><stop offset="1" stop-color="#c7c7c9"/></linearGradient><linearGradient id="linear-gradient-10" x1="57.14" y1="31.33" x2="31.24" y2="47.33" xlink:href="#linear-gradient-3"/><linearGradient id="linear-gradient-11" x1="50.97" y1="41.66" x2="54.27" y2="41.66" xlink:href="#linear-gradient-3"/><linearGradient id="linear-gradient-12" x1="38.34" y1="33.69" x2="41.06" y2="33.69" xlink:href="#linear-gradient-3"/><linearGradient id="linear-gradient-13" x1="39.45" y1="38.43" x2="52.1" y2="38.43" xlink:href="#linear-gradient-9"/><linearGradient id="linear-gradient-14" x1="39.45" y1="35.4" x2="52.1" y2="35.4" xlink:href="#linear-gradient-3"/><linearGradient id="linear-gradient-15" x1="44.01" y1="25.16" x2="50.5" y2="25.16" xlink:href="#linear-gradient-3"/><linearGradient id="linear-gradient-16" x1="49" y1="29.91" x2="41.52" y2="29.91" gradientUnits="userSpaceOnUse"><stop offset="0" stop-color="#f0f0f0"/><stop offset="0.12" stop-color="#e5e5e5"/><stop offset="0.33" stop-color="#c9c9c9"/><stop offset="0.59" stop-color="#9b9b9b"/><stop offset="0.91" stop-color="#5d5d5d"/><stop offset="1" stop-color="#4a4a4a"/></linearGradient><linearGradient id="linear-gradient-17" x1="52.01" y1="25.36" x2="40.23" y2="33.89" xlink:href="#linear-gradient-3"/><linearGradient id="linear-gradient-18" x1="42.7" y1="15.58" x2="37.53" y2="20.46" gradientUnits="userSpaceOnUse"><stop offset="0.18" stop-color="#f0f0f0"/><stop offset="0.3" stop-color="#e9e9e9"/><stop offset="0.47" stop-color="#d5d5d5"/><stop offset="0.68" stop-color="#b5b5b5"/><stop offset="0.91" stop-color="#888"/><stop offset="1" stop-color="#757575"/></linearGradient><linearGradient id="linear-gradient-19" x1="38.16" y1="6.36" x2="46.54" y2="20.88" gradientUnits="userSpaceOnUse"><stop offset="0" stop-color="#8cd7f5"/><stop offset="1" stop-color="#376e8c"/></linearGradient><linearGradient id="linear-gradient-20" x1="36.04" y1="6.24" x2="31.63" y2="10.17" gradientUnits="userSpaceOnUse"><stop offset="0.41" stop-color="#f0f0f0"/><stop offset="0.61" stop-color="#d0d0d0"/><stop offset="1" stop-color="#8c8c8c"/></linearGradient><linearGradient id="linear-gradient-21" x1="29.71" y1="11.23" x2="37.67" y2="11.23" xlink:href="#linear-gradient-3"/><linearGradient id="linear-gradient-22" x1="32.14" y1="11.35" x2="35.7" y2="11.35" xlink:href="#linear-gradient-3"/><linearGradient id="linear-gradient-23" x1="22.86" y1="15.8" x2="27.9" y2="20.83" gradientUnits="userSpaceOnUse"><stop offset="0" stop-color="#f0f0f0"/><stop offset="1" stop-color="#919191"/></linearGradient><linearGradient id="linear-gradient-24" x1="14.88" y1="25.36" x2="24.38" y2="25.36" gradientUnits="userSpaceOnUse"><stop offset="0" stop-color="#919191"/><stop offset="1" stop-color="#f0f0f0"/></linearGradient><linearGradient id="linear-gradient-25" x1="36.47" y1="10.49" x2="29.22" y2="16.12" xlink:href="#linear-gradient-3"/><linearGradient id="linear-gradient-26" x1="14.5" y1="26.54" x2="22.64" y2="26.54" xlink:href="#linear-gradient-3"/><linearGradient id="linear-gradient-27" x1="23.16" y1="10.08" x2="28.89" y2="19.99" xlink:href="#linear-gradient-19"/><linearGradient id="linear-gradient-28" x1="14.06" y1="27.22" x2="21.85" y2="27.22" xlink:href="#linear-gradient-24"/><linearGradient id="linear-gradient-29" x1="14.13" y1="28.34" x2="20.01" y2="28.34" xlink:href="#linear-gradient-24"/><linearGradient id="linear-gradient-30" x1="14.08" y1="29.62" x2="17.75" y2="29.62" xlink:href="#linear-gradient-24"/><linearGradient id="linear-gradient-31" x1="44.25" y1="40.77" x2="53.75" y2="57.23" xlink:href="#linear-gradient-19"/><linearGradient id="linear-gradient-32" x1="46" y1="49" x2="54" y2="49" gradientUnits="userSpaceOnUse"><stop offset="0" stop-color="#464646"/><stop offset="1" stop-color="#141414"/></linearGradient></defs><path class="Yellow-WARNING" d="M9.25,38.65A1,1,0,0,1,8.49,37l22-26A1,1,0,1,1,32,12.29l-22,26A1,1,0,0,1,9.25,38.65Z"/><polyline class="cls-1" points="10.58 34.48 9.97 35.23 9.43 32.1 8.63 34.66 6.51 33.29 7.91 36.58 4.49 37.74 8.51 38.29 6.51 41.29 9.51 39.29 10.88 43.25 11.03 38.83 13.68 40.85 11.98 38.02 15.38 35.7 11.7 36.25 12.49 35.31"/><path class="cls-2" d="M32.5,47.5c3.52-2.92-4.06-8.08,3.36-8.37"/><polygon class="cls-3" points="18.48 48.57 18.07 49.21 21.98 54.83 21.98 53.7 18.48 48.57"/><polygon class="cls-4" points="28.32 37.06 16.07 40.55 16.66 40.85 28.97 37.27 28.32 37.06"/><polyline class="cls-5" points="26.47 51.71 25.65 50.48 28.9 49.4 29.88 50.59"/><polygon class="cls-6" points="30.49 44.81 18.48 48.57 21.95 53.7 34.63 49.31 30.49 44.81"/><polygon class="cls-7" points="28.97 37.27 16.66 40.85 18.48 48.57 30.49 44.81 28.97 37.27"/><path class="cls-8" d="M19.5,47.18a.45.45,0,0,1-.25-.07.52.52,0,0,1-.24-.32l-1.12-4.74a.5.5,0,0,1,.35-.6l9.68-2.77.14,0a.59.59,0,0,1,.26.07.55.55,0,0,1,.23.33l.93,4.63a.51.51,0,0,1-.35.58l-9.48,2.89Z"/><path class="cls-9" d="M28.06,39.16,29,43.79,19.5,46.68l-1.12-4.75,9.68-2.77m0-1a.9.9,0,0,0-.28,0L18.1,41a1,1,0,0,0-.7,1.19l1.13,4.75a1,1,0,0,0,.47.63,1,1,0,0,0,.5.14.93.93,0,0,0,.29,0l9.49-2.88A1,1,0,0,0,30,43.59L29,39a1,1,0,0,0-.46-.65,1,1,0,0,0-.52-.15Z"/><polygon class="cls-10" points="34.55 50.28 21.98 54.83 21.95 53.7 34.5 49.17 34.55 50.28"/><line class="cls-11" x1="18.92" y1="42.92" x2="27.5" y2="40.5"/><line class="cls-11" x1="19.5" y1="45.5" x2="25.71" y2="43.67"/><polygon class="cls-12" points="23 51.5 21.5 49.5 30.5 46.5 32 48.5 23 51.5"/><polygon class="cls-13" points="34.63 49.4 30.49 44.9 28.97 37.36 28.32 37.15 16.07 40.64 18.07 49.3 21.98 54.92 34.55 50.37 34.51 49.44 34.63 49.4"/><path class="cls-14" d="M35.5,37.28c-1,2.68,2.65,6.5,8.14,8.54s10.74,1.51,11.73-1.16a11,11,0,0,0,.38-1.7"/><path class="cls-15" d="M50.62,44.84A19.26,19.26,0,0,1,44,43.56c-5.88-2.18-9.61-6.24-8.49-9.25.65-1.74,2.79-2.75,5.87-2.75A19.29,19.29,0,0,1,48,32.85c5.88,2.18,9.61,6.24,8.49,9.24-.65,1.75-2.79,2.75-5.87,2.75Z"/><path class="cls-16" d="M41.41,32.06a18.74,18.74,0,0,1,6.42,1.26c5.53,2,9.2,5.9,8.19,8.6-.59,1.59-2.66,2.42-5.4,2.42a18.71,18.71,0,0,1-6.42-1.25C38.67,41,35,37.19,36,34.49c.59-1.59,2.66-2.43,5.4-2.43m0-1c-3.3,0-5.62,1.12-6.34,3.08-1.21,3.27,2.64,7.61,8.78,9.89a19.82,19.82,0,0,0,6.77,1.31c3.31,0,5.62-1.12,6.34-3.07,1.21-3.27-2.64-7.61-8.78-9.89a19.85,19.85,0,0,0-6.77-1.32Z"/><path class="cls-17" d="M52.85,42.44l-.31,0c-1-.1-1.6-.61-1.57-.92s.6-.62,1.42-.62a1.51,1.51,0,0,1,.3,0c1,.09,1.6.61,1.57.92S53.66,42.44,52.85,42.44Z"/><path class="cls-16" d="M52.39,41.38h.25a2,2,0,0,1,1,.37,1.79,1.79,0,0,1-.83.18l-.26,0a2,2,0,0,1-1-.36,1.8,1.8,0,0,1,.84-.18m0-1c-1,0-1.86.44-1.92,1.07s.84,1.35,2,1.47l.36,0c1,0,1.85-.45,1.91-1.07s-.84-1.36-2-1.47l-.35,0Z"/><path class="cls-18" d="M39.7,34.28c-.82,0-1.36-.36-1.36-.6s.54-.59,1.36-.59,1.36.36,1.36.59S40.52,34.28,39.7,34.28Z"/><path class="cls-16" d="M39.7,33.59a1.7,1.7,0,0,1,.62.1,2.18,2.18,0,0,1-1.24,0,1.7,1.7,0,0,1,.62-.1m0-1c-1,0-1.86.49-1.86,1.09s.83,1.1,1.86,1.1,1.86-.49,1.86-1.1-.84-1.09-1.86-1.09Z"/><path class="cls-19" d="M45.61,41.53c-3.5-.08-6.2-1.75-6.16-3.8v-1.9a.47.47,0,0,1,.15-.35.45.45,0,0,1,.35-.15l11.65.26a.53.53,0,0,1,.36.17.47.47,0,0,1,.12.38L51.93,38c0,2-2.65,3.49-6.07,3.49Z"/><path class="cls-16" d="M40,35.83l11.64.26L51.43,38c0,1.7-2.51,3-5.57,3h-.24c-3.17-.08-5.7-1.55-5.67-3.29V35.83m0-1a1,1,0,0,0-1,1v1.91c-.05,2.31,2.87,4.2,6.65,4.29h.26c3.67,0,6.49-1.71,6.57-4l.16-1.87a1,1,0,0,0-.25-.75,1,1,0,0,0-.72-.34L40,34.83Z"/><path class="cls-20" d="M45.69,39.11A9.27,9.27,0,0,1,41.36,38a3.22,3.22,0,0,1-1.9-2.75c0-2,2.68-3.57,6.15-3.57h.25a9.09,9.09,0,0,1,4.33,1.09,3.26,3.26,0,0,1,1.91,2.75c-.05,2-2.69,3.57-6.15,3.57Z"/><path class="cls-16" d="M45.61,32.19h.24c3.21.07,5.79,1.56,5.75,3.33S49.05,38.61,46,38.61H45.7C42.49,38.53,39.91,37,40,35.27s2.54-3.08,5.65-3.08m0-1c-3.74,0-6.6,1.75-6.65,4.06a3.69,3.69,0,0,0,2.15,3.19,9.75,9.75,0,0,0,4.57,1.17H46c3.74,0,6.59-1.74,6.65-4.06a3.72,3.72,0,0,0-2.16-3.19,9.6,9.6,0,0,0-4.57-1.16Z"/><path class="cls-21" d="M45.27,29.07a.46.46,0,0,1-.2-.05C45,29,44,28.5,44,26.79a6.78,6.78,0,0,1,3.21-5.25,2.58,2.58,0,0,1,1.18-.3c1,0,2.1.66,2.1,2.52l-.1.58a.49.49,0,0,1-.39.41l-4.09.85-.15,3a.5.5,0,0,1-.24.4A.5.5,0,0,1,45.27,29.07Z"/><path class="cls-16" d="M48.4,21.74c.8,0,1.6.53,1.6,2l-.09.5-4.47.93-.17,3.38s-.76-.34-.76-1.78a6.25,6.25,0,0,1,3-4.81,2,2,0,0,1,.94-.24m0-1a3,3,0,0,0-1.42.37,7.17,7.17,0,0,0-3.47,5.68,2.72,2.72,0,0,0,1.35,2.69,1,1,0,0,0,.93-.06,1,1,0,0,0,.48-.8L46.4,26l3.71-.77a1,1,0,0,0,.79-.81l.08-.51a.88.88,0,0,0,0-.16c0-2.08-1.31-3-2.6-3Z"/><path class="cls-22" d="M45.78,37.34c-2,0-3.54-.84-3.54-1.94l.17-8.28a.49.49,0,0,1,.19-.39l2.45-1.85c.09-.06,1.9-1.38,2.92-2a2.51,2.51,0,0,1,1.19-.42.75.75,0,0,1,.69.38.4.4,0,0,1,0,.24l-.59,12.32C49.31,36.5,47.79,37.34,45.78,37.34Z"/><path class="cls-16" d="M49.16,23c.2,0,.24.09.24.09L48.81,35.4c0,.79-1.36,1.44-3,1.44s-3-.65-3-1.44l.17-8.27,2.44-1.85s1.86-1.36,2.87-1.94a2,2,0,0,1,.94-.35m0-1a2.9,2.9,0,0,0-1.44.48c-1,.61-2.88,1.94-2.95,2L42.3,26.33a1,1,0,0,0-.39.78l-.17,8.27c0,1.43,1.7,2.46,4,2.46s4-1,4-2.44l.59-12.27a1,1,0,0,0-.1-.5A1.25,1.25,0,0,0,49.16,22Z"/><path class="cls-23" d="M49,21.81l-2.45-1.09s-4.47-.51-4.47,4.05c0,1.94.85,2.36.85,2.36l2.36,1.44v-3.8S47,21.73,49,21.81Z"/><path class="cls-24" d="M48.52,29.88a1.32,1.32,0,0,1-.66-.17,1.6,1.6,0,0,1-.7-1.45,3.73,3.73,0,0,1,.54-1.77,2.88,2.88,0,0,1,2.22-1.61,1.26,1.26,0,0,1,.66.18c.86.5.93,1.91.16,3.21a2.88,2.88,0,0,1-2.22,1.61Z"/><path class="cls-16" d="M49.92,25.38a.81.81,0,0,1,.41.11c.6.35.59,1.49,0,2.53a2.45,2.45,0,0,1-1.79,1.36.72.72,0,0,1-.41-.11c-.6-.35-.59-1.48,0-2.53a2.45,2.45,0,0,1,1.79-1.36m0-1a3.32,3.32,0,0,0-2.65,1.86,4.14,4.14,0,0,0-.61,2,2.08,2.08,0,0,0,1,1.88,1.77,1.77,0,0,0,.91.24,3.33,3.33,0,0,0,2.65-1.85c.92-1.57.78-3.25-.33-3.9a1.84,1.84,0,0,0-.92-.25Z"/><path class="cls-25" d="M43.33,26.3a1.16,1.16,0,0,1-.31-.07l-.13-.1L32.93,16a.51.51,0,0,1-.06-.63l3.8-5.82a.48.48,0,0,1,.38-.23h0a.49.49,0,0,1,.38.18L47.33,20.9c.2.24.62.76-1.52,3.19C45.08,25.08,44,26.3,43.33,26.3Z"/><path class="cls-16" d="M37.08,9.83,47,21.22c.33.43-1.52,2.54-1.52,2.54s-1.52,2-2.11,2l-.09,0-10-10.12,3.79-5.83m0-1H37a1,1,0,0,0-.77.45l-3.8,5.82a1,1,0,0,0,.12,1.25l10,10.12a1.05,1.05,0,0,0,.27.2,1.18,1.18,0,0,0,.53.12c.33,0,1.09,0,2.89-2.42,2.09-2.38,2-3.22,1.52-3.78L37.84,9.18a1,1,0,0,0-.76-.35Z"/><path class="cls-26" d="M47.06,20.5a.48.48,0,0,1-.37-.17L45,18.39a.42.42,0,0,1-.09-.14c0-.11-.07-.16-.08-.19a1,1,0,0,1-.25-.5,12.49,12.49,0,0,0-2.38-4.64A15.43,15.43,0,0,0,37.38,9a.48.48,0,0,1-.25-.29s-.08-.25-.18-.52a1.7,1.7,0,0,0-.21-.36A.5.5,0,0,1,37.13,7l.17,0a16.94,16.94,0,0,1,6.21,4.79A14,14,0,0,1,46.19,17,10.85,10.85,0,0,0,47.08,19c.14.26.29.52.43.8a.5.5,0,0,1-.17.64A.47.47,0,0,1,47.06,20.5Z"/><path class="cls-27" d="M37.13,7.53a16.29,16.29,0,0,1,6,4.63,13.46,13.46,0,0,1,2.59,5A18.7,18.7,0,0,0,47.06,20l-1.68-1.94c-.22-.54-.16-.14-.33-.65a12.7,12.7,0,0,0-2.47-4.8,15.56,15.56,0,0,0-5-4s-.08-.26-.18-.54a2.15,2.15,0,0,0-.29-.51m0-1a1,1,0,0,0-.82.43,1,1,0,0,0,0,1.21c0,.05.09.14.12.2.09.27.17.52.18.52a1,1,0,0,0,.49.58,14.79,14.79,0,0,1,4.66,3.77,11.81,11.81,0,0,1,2.29,4.47,1.74,1.74,0,0,0,.31.64l0,.08a1.05,1.05,0,0,0,.17.29l1.69,1.94a1,1,0,0,0,.75.34,1,1,0,0,0,.56-.17A1,1,0,0,0,48,19.55c-.14-.29-.29-.55-.43-.82a9.93,9.93,0,0,1-.85-1.84,14.66,14.66,0,0,0-2.77-5.36,17.1,17.1,0,0,0-6.43-4.94,1,1,0,0,0-.34-.06Z"/><path class="cls-28" d="M31.85,16.07a.43.43,0,0,1-.19,0L29,14.91a3.31,3.31,0,0,1-1.95-2.45,6.33,6.33,0,0,1,.32-3.74C28.23,6.54,30,5,31.74,5a2.77,2.77,0,0,1,1,.19l2.9,1.2a.48.48,0,0,1,.27.27.5.5,0,0,1,0,.38l-3.63,8.69A.48.48,0,0,1,32,16,.41.41,0,0,1,31.85,16.07Z"/><path class="cls-16" d="M31.74,5.53a2.45,2.45,0,0,1,.85.15l2.89,1.2-3.63,8.69-2.64-1.12c-1.68-.65-2.29-3.13-1.35-5.55.78-2,2.39-3.37,3.88-3.37m0-1h0c-2,0-3.89,1.61-4.82,4a6.93,6.93,0,0,0-.34,4,3.85,3.85,0,0,0,2.27,2.8l2.61,1.11a1.09,1.09,0,0,0,.39.08,1,1,0,0,0,.38-.07,1,1,0,0,0,.55-.54l3.62-8.7a.92.92,0,0,0,0-.76A1,1,0,0,0,35.86,6L33,4.76a3.27,3.27,0,0,0-1.23-.23Z"/><path class="cls-29" d="M32.85,16.27a2.93,2.93,0,0,1-1-.19,3.37,3.37,0,0,1-2-2.46,6.38,6.38,0,0,1,.33-3.75C31,7.7,32.81,6.19,34.54,6.19a2.72,2.72,0,0,1,1,.19c1.94.74,2.68,3.53,1.65,6.2-.84,2.17-2.63,3.69-4.36,3.69Z"/><path class="cls-16" d="M34.54,6.69a2.4,2.4,0,0,1,.84.15c1.69.65,2.29,3.14,1.36,5.56-.78,2-2.39,3.37-3.89,3.37a2.24,2.24,0,0,1-.84-.16c-1.68-.65-2.29-3.14-1.36-5.56.78-2,2.4-3.36,3.89-3.36m0-1c-2,0-3.9,1.61-4.82,4a6.73,6.73,0,0,0-.34,4,3.85,3.85,0,0,0,2.27,2.81,3.28,3.28,0,0,0,1.2.23c2,0,3.9-1.61,4.83-4,1.14-3,.29-6-1.94-6.85a3.23,3.23,0,0,0-1.2-.22Z"/><path class="cls-30" d="M32.84,13.82a1.33,1.33,0,0,1-.66-1.06,3.87,3.87,0,0,1,.31-2.09c.55-1.33,1.51-2,2.17-2a1,1,0,0,1,.33.07l.71.35-2.27,5Z"/><path class="cls-16" d="M34.66,9.14l.12,0,.27.13-1.88,4.13L33,13.37a.91.91,0,0,1-.37-.69A3.57,3.57,0,0,1,33,10.86c.49-1.18,1.3-1.72,1.71-1.72m0-1A3.38,3.38,0,0,0,32,10.48c-.69,1.67-.41,3.37.64,3.81l1,.4,2.67-5.87-1.18-.57a1.35,1.35,0,0,0-.52-.11Z"/><path class="cls-31" d="M22.07,26.27a.49.49,0,0,1-.32-.12l-3.46-3a.5.5,0,0,1-.07-.68L27.5,10.36c.55-.73.81-.73.94-.73a.58.58,0,0,1,.49.3,4.23,4.23,0,0,1,.2,1.39,10.61,10.61,0,0,0,.33,2.47,6,6,0,0,0,1.85,2.46.49.49,0,0,1,.07.75l-8.95,9.12A.51.51,0,0,1,22.07,26.27Z"/><path class="cls-16" d="M28.44,10.13a.05.05,0,0,1,0,0c.19.38.08,2.61.5,3.79a6.47,6.47,0,0,0,2,2.7l-8.95,9.12-3.46-3L27.9,10.66s.4-.53.54-.53m0-1c-.46,0-.85.27-1.34.93L17.82,22.21A1,1,0,0,0,18,23.58l3.46,3a1,1,0,0,0,1.37-.06l8.94-9.12a.94.94,0,0,0,.28-.78,1,1,0,0,0-.41-.73,5.49,5.49,0,0,1-1.67-2.22,10.21,10.21,0,0,1-.3-2.33,4.42,4.42,0,0,0-.25-1.58,1,1,0,0,0-.94-.58Z"/><path class="cls-32" d="M22.5,29.67a.5.5,0,0,1-.33-.12l-7.11-6.13a.47.47,0,0,1-.17-.35A.5.5,0,0,1,15,22.7l1.38-1.48a.59.59,0,0,1,.4-.17c.57,0,2.53,1.59,4.08,2.92,2.29,2,3.47,3.21,3.5,3.65a.58.58,0,0,1-.13.4l-1.39,1.49A.48.48,0,0,1,22.5,29.67Z"/><path class="cls-16" d="M16.8,21.55a18.93,18.93,0,0,1,3.76,2.8c2,1.7,3.45,3.19,3.32,3.34L22.5,29.17,15.38,23l1.39-1.48h0m0-1a1.08,1.08,0,0,0-.79.36l-1.36,1.45a1,1,0,0,0,.08,1.44l7.11,6.13a1,1,0,0,0,1.39-.08l1.38-1.48a1.07,1.07,0,0,0,.27-.78c0-.33-.06-.89-3.67-4s-4.13-3.05-4.41-3.05Z"/><path class="cls-33" d="M36.84,12.46c.7-1.67.42-3.38-.63-3.81s-2.46.56-3.15,2.23-.42,3.37.63,3.81S36.15,14.13,36.84,12.46Z"/><path class="cls-34" d="M22.09,30.12c-.57,0-2.54-1.59-4.09-2.93-2.29-2-3.46-3.2-3.5-3.64a.57.57,0,0,1,.13-.4A.59.59,0,0,1,15,23c.57,0,2.54,1.59,4.09,2.92.95.83,1.83,1.64,2.47,2.28.83.83,1.28,1.32.9,1.76A.61.61,0,0,1,22.09,30.12Z"/><path class="cls-16" d="M15,23.47a18.93,18.93,0,0,1,3.76,2.8c2,1.69,3.45,3.19,3.32,3.34h0a18.93,18.93,0,0,1-3.76-2.8c-2-1.7-3.45-3.19-3.32-3.34h0m0-1a1.08,1.08,0,0,0-.79.36,1.13,1.13,0,0,0-.25.75c0,.33.07.88,3.68,4s4.12,3.05,4.41,3.05a1.08,1.08,0,0,0,.79-.36c.7-.81-.13-1.64-.93-2.45-.64-.65-1.53-1.46-2.5-2.3-3.53-3-4.12-3-4.41-3Z"/><path class="cls-35" d="M31.74,5.52a2.45,2.45,0,0,1,.85.15l2.89,1.2h0a3.26,3.26,0,0,1,1.69,3l9.36,10.8h0L49,21.8h-.13c.62.18,1.15.73,1.15,1.93l-.09.51-.57.12-.05,1.18a1.48,1.48,0,0,1,.64-.18.8.8,0,0,1,.4.11c.6.35.59,1.48,0,2.53a3.06,3.06,0,0,1-1.2,1.2l-.17,3.54a3.75,3.75,0,0,1,2.62,2.37c3.33,2.08,5.22,4.76,4.46,6.79l-.65,2.73c-.58,1.58-2.64,2.41-5.36,2.41a18.61,18.61,0,0,1-6.37-1.24c-5.49-2-9.13-5.86-8.14-8.54L36,34.48c.59-1.59,2.66-2.43,5.4-2.43a13.34,13.34,0,0,1,1.39.07l.11-5s-.85-.42-.85-2.36c0-.07,0-.12,0-.18L33.35,15.7a2.61,2.61,0,0,1-.48.05,2.45,2.45,0,0,1-.8-.14l-10,10.12c1.14,1.05,1.87,1.84,1.78,1.95L22.5,29.16l-.38.44h0a19.19,19.19,0,0,1-3.76-2.81A31.48,31.48,0,0,1,15,23.47s.19-.36.37-.44l1.39-1.48s0,0,0,0a7.52,7.52,0,0,1,1.84,1.23l8.79-11.51a6.23,6.23,0,0,1,.43-2.38c.78-2,2.39-3.36,3.88-3.36m0-.8h0c-1.88,0-3.74,1.56-4.63,3.88A7.07,7.07,0,0,0,26.63,11L18.49,21.65c-1.22-.91-1.47-.91-1.69-.91a.87.87,0,0,0-.64.29L14.88,22.4a2,2,0,0,0-.58.7.81.81,0,0,0,.09.88,32.87,32.87,0,0,0,3.42,3.43c3.48,3,4.06,3,4.28,3a.9.9,0,0,0,.63-.28l.38-.45,1.36-1.46c.55-.62.15-1.21-1.21-2.51l9.07-9.21a3.31,3.31,0,0,0,.55.05h.18l8.21,8.36a3.73,3.73,0,0,0,.84,2.58L42,31.27l-.61,0c-3.22,0-5.46,1.08-6.15,3a.65.65,0,0,0,0,.13l-.49,2.73c-.55,1.58.1,3.45,1.83,5.27a18.33,18.33,0,0,0,6.8,4.23A19.61,19.61,0,0,0,50,47.85c3.19,0,5.42-1.07,6.11-2.93l0-.09.64-2.69c.82-2.32-.91-5.19-4.55-7.53a4.38,4.38,0,0,0-2.47-2.38l.12-2.57A3.87,3.87,0,0,0,51,28.41c.86-1.47.75-3-.26-3.62l-.17-.09a.83.83,0,0,0,.13-.32l.08-.5a.68.68,0,0,0,0-.14,2.61,2.61,0,0,0-1.25-2.5.81.81,0,0,0-.24-.17L47,20,38,9.59a4,4,0,0,0-2-3.37,1.4,1.4,0,0,0-.17-.09l-2.9-1.2a3.21,3.21,0,0,0-1.15-.21Z"/><path class="cls-36" d="M21.17,24.37a.49.49,0,0,1-.28-.09l-.68-.47a.5.5,0,0,1-.14-.69,10.18,10.18,0,0,0,1.1-2.55l.28-.83a21.85,21.85,0,0,0,.66-3.16,17,17,0,0,1,1.32-5c1.46-2.8,3.93-4.19,7.45-5.51A.92.92,0,0,1,31.26,6a.74.74,0,0,1,.7.37A.6.6,0,0,1,31.9,7a2.34,2.34,0,0,1-1.15,1c-3.18,1.15-4.31,2-5.76,4.32A12.51,12.51,0,0,0,23.82,17a18.94,18.94,0,0,1-.63,3.34c-.11.36-.2.61-.28.85a12.16,12.16,0,0,1-1.32,3A.52.52,0,0,1,21.17,24.37Z"/><path class="cls-27" d="M31.26,6.5c.17,0,.33.07.23.21a1.84,1.84,0,0,1-.91.83c-3.26,1.18-4.48,2.07-6,4.52-1.25,2-1.1,5.85-1.84,8.1-.1.3-.19.58-.28.84a11.38,11.38,0,0,1-1.26,2.87l-.69-.47a10.42,10.42,0,0,0,1.16-2.67c.08-.26.18-.54.27-.84.77-2.32.75-5.75,2-8.08,1.39-2.69,3.85-4,7.17-5.27a.49.49,0,0,1,.21,0m0-1a1.69,1.69,0,0,0-.56.1C27.17,6.93,24.51,8.41,23,11.35a17.4,17.4,0,0,0-1.38,5.15A20.25,20.25,0,0,1,21,19.58c-.09.3-.18.58-.27.83a10.55,10.55,0,0,1-1,2.4,1,1,0,0,0,.24,1.41l.69.48a1.06,1.06,0,0,0,.57.17,1,1,0,0,0,.82-.43,13.56,13.56,0,0,0,1.38-3.12c.08-.23.17-.48.26-.75l0-.1A20.54,20.54,0,0,0,24.32,17a12.55,12.55,0,0,1,1.09-4.45c1.39-2.22,2.42-3,5.51-4.11a2.62,2.62,0,0,0,1.33-1.11l.06-.08a1.11,1.11,0,0,0,.09-1.15,1.23,1.23,0,0,0-1.14-.64Z"/><path class="cls-37" d="M20.14,30.73a.48.48,0,0,1-.36-.16s-1.4-1.47-2.7-2.58A19.34,19.34,0,0,0,14.31,26a.5.5,0,0,1-.15-.73l1.05-1.41a.53.53,0,0,1,.4-.19.46.46,0,0,1,.23.05,22.45,22.45,0,0,1,2.93,1.87,25.43,25.43,0,0,1,3,3,.49.49,0,0,1,0,.66L20.5,30.57a.48.48,0,0,1-.36.16Z"/><path class="cls-16" d="M15.61,24.21A21.15,21.15,0,0,1,18.46,26,24.5,24.5,0,0,1,21.35,29l-1.21,1.26s-1.4-1.47-2.73-2.62a20.56,20.56,0,0,0-2.85-2l1-1.4m0-1a1,1,0,0,0-.8.39L13.76,25a1,1,0,0,0-.18.8,1,1,0,0,0,.49.66,21.18,21.18,0,0,1,2.69,1.9c1.27,1.1,2.64,2.53,2.66,2.55a1,1,0,0,0,.72.31h0a1,1,0,0,0,.72-.31l1.21-1.26a1,1,0,0,0,.05-1.33,24.58,24.58,0,0,0-3.05-3.09,22.31,22.31,0,0,0-3-1.92,1,1,0,0,0-.47-.11Z"/><path class="cls-38" d="M17.62,31.12A.52.52,0,0,1,17.3,31l-3-2.48a.5.5,0,0,1-.16-.53l.66-2.1a.51.51,0,0,1,.29-.32.58.58,0,0,1,.19,0,.42.42,0,0,1,.24.07,17.43,17.43,0,0,1,4.36,3.73.5.5,0,0,1,.11.42.49.49,0,0,1-.27.34l-1.89,1A.42.42,0,0,1,17.62,31.12Z"/><path class="cls-16" d="M15.29,26.05a17.4,17.4,0,0,1,4.22,3.62l-1.89.95-3-2.47.66-2.1m0-1a.94.94,0,0,0-.37.07,1,1,0,0,0-.59.63l-.65,2.1A1,1,0,0,0,14,28.92l3,2.47a1,1,0,0,0,.64.23,1,1,0,0,0,.45-.1l1.89-1a1,1,0,0,0,.53-.69,1,1,0,0,0-.21-.84,18.17,18.17,0,0,0-4.5-3.85,1,1,0,0,0-.49-.13Z"/><path class="cls-39" d="M16,31.34a.47.47,0,0,1-.3-.1l-1.42-1a.49.49,0,0,1-.21-.4v-1a.55.55,0,0,1,.12-.33l.34-.4a.52.52,0,0,1,.39-.17.5.5,0,0,1,.32.11L17.57,30a.51.51,0,0,1,.1.65l-.28.43a.47.47,0,0,1-.38.23Z"/><path class="cls-16" d="M14.93,28.4l2.32,1.93-.28.43-1,.08-1.42-1.05v-1l.34-.4m0-1a1,1,0,0,0-.77.35l-.34.4a1,1,0,0,0-.23.65v1a1,1,0,0,0,.4.8l1.42,1.06a1.09,1.09,0,0,0,.6.19h.08l1-.08a1,1,0,0,0,.76-.46l.28-.43a1,1,0,0,0-.2-1.31l-2.32-1.93a1,1,0,0,0-.64-.23Z"/><path class="cls-35" d="M15.61,24.23a22.37,22.37,0,0,1,2.85,1.82A24.5,24.5,0,0,1,21.35,29l-1.21,1.26-.64-.55-1.88.95-.34-.28-.31.42-1,.08-1.42-1.08v-1l.34-.4-.3-.24.63-2-.7-.52,1-1.4m0-1a1,1,0,0,0-.8.4L13.76,25a1,1,0,0,0-.19.75,1,1,0,0,0,.4.66l.13.09-.42,1.35a.94.94,0,0,0,0,.55.91.91,0,0,0-.08.39v1a1,1,0,0,0,.39.79l1.42,1.08a1,1,0,0,0,.61.21h.08l1-.07a1.1,1.1,0,0,0,.44-.15h.13a1,1,0,0,0,.45-.11l1.28-.65.13.12a1,1,0,0,0,.66.24,1,1,0,0,0,.72-.3l1.21-1.26a1,1,0,0,0,.05-1.34,25.31,25.31,0,0,0-3.05-3.09,22.88,22.88,0,0,0-3-1.91,1,1,0,0,0-.47-.12Z"/><circle class="De-emphasized-WHITE-for-Vector-Highlights" cx="49" cy="49" r="9.5"/><path class="Blue-RIGHT,-FRONT-&amp;-SINGLE" d="M49,39.5A9.5,9.5,0,1,1,39.5,49,9.5,9.5,0,0,1,49,39.5Zm0,16A6.5,6.5,0,1,0,42.5,49,6.51,6.51,0,0,0,49,55.5Z"/><path class="DARK-GREY-Fill" d="M46.76,44.3a.68.68,0,0,1,.38.12l6.5,3.94A.73.73,0,0,1,54,49a.71.71,0,0,1-.36.64l-6.5,3.94a.68.68,0,0,1-.38.12.75.75,0,0,1-.76-.76V45.06A.75.75,0,0,1,46.76,44.3Z"/></svg>