<svg id="copy_3X_64_ok" data-name="copy 3X   64   ok" xmlns="http://www.w3.org/2000/svg" xmlns:xlink="http://www.w3.org/1999/xlink" viewBox="0 0 64 64"><defs><style>.cls-1{fill:#797979;stroke:#fff;}.cls-1,.cls-3{stroke-width:0.25px;}.cls-2{fill:#82bddb;}.cls-29,.cls-3,.cls-4{fill:none;}.cls-3,.cls-4{stroke:#000;}.cls-4{stroke-width:0.52px;}.cls-14,.cls-20,.cls-5{stroke:#6d6d6d;}.cls-14,.cls-20,.cls-29,.cls-5{stroke-linecap:round;stroke-linejoin:round;}.cls-5{fill:url(#linear-gradient);}.cls-6{fill:url(#linear-gradient-2);}.cls-14,.cls-7{fill:#6d6d6d;}.cls-8{fill:url(#linear-gradient-3);}.cls-9{fill:url(#linear-gradient-4);}.cls-10{fill:url(#linear-gradient-5);}.cls-11{fill:url(#linear-gradient-6);}.cls-12{fill:url(#linear-gradient-7);}.cls-13{fill:url(#linear-gradient-8);}.cls-15{fill:url(#linear-gradient-9);}.cls-16{fill:url(#linear-gradient-10);}.cls-17{fill:url(#linear-gradient-11);}.cls-18{fill:url(#linear-gradient-12);}.cls-19{fill:url(#linear-gradient-13);}.cls-20{fill:url(#linear-gradient-14);}.cls-21{fill:url(#linear-gradient-15);}.cls-22{fill:url(#linear-gradient-16);}.cls-23{fill:url(#linear-gradient-17);}.cls-24{fill:#343434;}.cls-25{fill:url(#linear-gradient-18);}.cls-26{fill:url(#linear-gradient-19);}.cls-27{fill:#00415f;}.cls-28{fill:url(#linear-gradient-20);}.cls-29{stroke:#00415f;stroke-width:0.75px;}.cls-30{fill:url(#linear-gradient-21);}.cls-31{fill:url(#linear-gradient-22);}</style><linearGradient id="linear-gradient" x1="41.58" y1="51.41" x2="58.69" y2="51.41" gradientUnits="userSpaceOnUse"><stop offset="0.01" stop-color="#4d4d4d"/><stop offset="1" stop-color="#c7c7c9"/></linearGradient><linearGradient id="linear-gradient-2" x1="59.52" y1="43.33" x2="38.26" y2="56.47" gradientUnits="userSpaceOnUse"><stop offset="0" stop-color="#f0f0f0"/><stop offset="1" stop-color="#b3b3b3"/></linearGradient><linearGradient id="linear-gradient-3" x1="54.24" y1="51.77" x2="57.22" y2="51.77" xlink:href="#linear-gradient-2"/><linearGradient id="linear-gradient-4" x1="44.02" y1="45.31" x2="46.52" y2="45.31" xlink:href="#linear-gradient-2"/><linearGradient id="linear-gradient-5" x1="45.42" y1="48.13" x2="55.85" y2="48.13" xlink:href="#linear-gradient"/><linearGradient id="linear-gradient-6" x1="45.42" y1="45.67" x2="55.85" y2="45.67" xlink:href="#linear-gradient-2"/><linearGradient id="linear-gradient-7" x1="48.9" y1="30.5" x2="54.34" y2="30.5" xlink:href="#linear-gradient-2"/><linearGradient id="linear-gradient-8" x1="52.84" y1="37.88" x2="46.99" y2="37.88" gradientUnits="userSpaceOnUse"><stop offset="0" stop-color="#f0f0f0"/><stop offset="0.12" stop-color="#e5e5e5"/><stop offset="0.33" stop-color="#c9c9c9"/><stop offset="0.59" stop-color="#9b9b9b"/><stop offset="0.91" stop-color="#5d5d5d"/><stop offset="1" stop-color="#4a4a4a"/></linearGradient><linearGradient id="linear-gradient-9" x1="55.8" y1="30.7" x2="45.8" y2="37.93" xlink:href="#linear-gradient-2"/><linearGradient id="linear-gradient-10" x1="48.93" y1="21.33" x2="43.97" y2="26.02" gradientTransform="translate(4.96 -7.42) rotate(9.51)" gradientUnits="userSpaceOnUse"><stop offset="0.18" stop-color="#f0f0f0"/><stop offset="0.3" stop-color="#e9e9e9"/><stop offset="0.47" stop-color="#d5d5d5"/><stop offset="0.68" stop-color="#b5b5b5"/><stop offset="0.91" stop-color="#888"/><stop offset="1" stop-color="#757575"/></linearGradient><linearGradient id="linear-gradient-11" x1="47.52" y1="12.53" x2="43.87" y2="15.79" gradientTransform="translate(6.77 -11.18) rotate(18.43)" gradientUnits="userSpaceOnUse"><stop offset="0.41" stop-color="#f0f0f0"/><stop offset="0.61" stop-color="#d0d0d0"/><stop offset="1" stop-color="#8c8c8c"/></linearGradient><linearGradient id="linear-gradient-12" x1="42.23" y1="16.64" x2="48.88" y2="16.64" gradientTransform="translate(6.77 -11.18) rotate(18.43)" xlink:href="#linear-gradient-2"/><linearGradient id="linear-gradient-13" x1="44.38" y1="16.73" x2="47.05" y2="16.73" gradientTransform="translate(6.77 -11.18) rotate(18.43)" xlink:href="#linear-gradient-2"/><linearGradient id="linear-gradient-14" x1="47.79" y1="16.05" x2="41.92" y2="20.6" gradientTransform="translate(6.77 -11.18) rotate(18.43)" xlink:href="#linear-gradient-2"/><linearGradient id="linear-gradient-15" x1="37.22" y1="16.67" x2="41.36" y2="20.81" gradientTransform="translate(15.33 -20.13) rotate(39.6)" gradientUnits="userSpaceOnUse"><stop offset="0" stop-color="#f0f0f0"/><stop offset="1" stop-color="#919191"/></linearGradient><linearGradient id="linear-gradient-16" x1="38.22" y1="25.15" x2="45.42" y2="25.15" gradientTransform="matrix(0.2, 0.98, -0.98, 0.2, 41.92, -26.59)" xlink:href="#linear-gradient-15"/><linearGradient id="linear-gradient-17" x1="37.94" y1="26.02" x2="44.14" y2="26.02" gradientTransform="matrix(0.2, 0.98, -0.98, 0.2, 41.92, -26.59)" xlink:href="#linear-gradient-2"/><linearGradient id="linear-gradient-18" x1="21.38" y1="34.41" x2="8.01" y2="41.22" gradientUnits="userSpaceOnUse"><stop offset="0.23" stop-color="#083854"/><stop offset="0.49" stop-color="#306885" stop-opacity="0.7"/><stop offset="1" stop-color="#8cd7f5" stop-opacity="0"/></linearGradient><linearGradient id="linear-gradient-19" x1="37.11" y1="19.12" x2="46.86" y2="27.08" gradientTransform="matrix(0.17, 0.99, -0.99, 0.17, 36.59, -23.9)" gradientUnits="userSpaceOnUse"><stop offset="0" stop-color="#3c7e96"/><stop offset="0.07" stop-color="#4e90a8"/><stop offset="0.19" stop-color="#66a9c1"/><stop offset="0.33" stop-color="#7abdd5"/><stop offset="0.48" stop-color="#88cae3"/><stop offset="0.67" stop-color="#90d3ec"/><stop offset="1" stop-color="#92d5ee"/></linearGradient><linearGradient id="linear-gradient-20" x1="40.62" y1="29.85" x2="44.2" y2="25.49" gradientTransform="translate(41.39 -21.51) rotate(80.8)" gradientUnits="userSpaceOnUse"><stop offset="0" stop-color="#175369"/><stop offset="0.08" stop-color="#347288"/><stop offset="0.18" stop-color="#5190a8"/><stop offset="0.29" stop-color="#69a9c1"/><stop offset="0.41" stop-color="#7bbdd5"/><stop offset="0.54" stop-color="#88cbe3"/><stop offset="0.71" stop-color="#90d3ec"/><stop offset="1" stop-color="#92d5ee"/></linearGradient><linearGradient id="linear-gradient-21" x1="33.11" y1="15.87" x2="43.16" y2="24.06" xlink:href="#linear-gradient-19"/><linearGradient id="linear-gradient-22" x1="33.39" y1="26.09" x2="35.46" y2="23.57" xlink:href="#linear-gradient-20"/></defs><title>4676__A33AAe__R21XArtboard 1</title><g id="Layer_64_copy_8" data-name="Layer 64 copy 8"><g id="Layer_45_copy_14" data-name="Layer 45 copy 14"><path class="cls-1" d="M48.79,38.5,30.93,28.67l-12.8,4.74s2.68-1.85,3.38,1.75a3.31,3.31,0,0,1,2.29-1.3A14.61,14.61,0,0,1,34.35,36.4c.23.15.46.31.67.47,2.83,2.14,2.79,4.86.33,5.94,5.14.24,4,2.54,3.91,2.85Z"/><path class="cls-2" d="M35.35,42.81a5,5,0,0,1-.85.28,11.82,11.82,0,0,1-5.93-.41,7.59,7.59,0,0,1-1.71-.61,27.15,27.15,0,0,1-3.63-2.18c-2-1.77-2.49-3.55-1.72-4.73-.7-3.6-3.38-1.75-3.38-1.75L5.62,38.22,26.4,55.27l12.86-9.61C39.4,45.35,40.49,43.06,35.35,42.81Z"/><polyline class="cls-3" points="18.13 33.41 5.63 38.22 26.4 55.27 39.26 45.66"/><path d="M18.13,33.41c-2,.91-4.1,1.76-6.16,2.64l-6.2,2.54.11-.68,5.23,4.22,5.21,4.23c3.43,2.89,6.92,5.7,10.3,8.63h-.43l6.51-4.69,6.56-4.63-6.3,5-6.35,4.91-.21.17-.23-.18c-3.53-2.74-7-5.61-10.47-8.41l-5.17-4.29L5.37,38.53l-.54-.45.65-.23,6.31-2.27C13.9,34.85,16,34.1,18.13,33.41Z"/><path class="cls-4" d="M34.57,43.14c3.3-.79,3.55-3.52.56-6.09s-8.07-4-11.37-3.23A3.87,3.87,0,0,0,21.6,35l.11,0-.11,0c-1,1.23-.49,3.09,1.59,4.89A13.74,13.74,0,0,0,26,41.72,32.1,32.1,0,0,0,29.51,43,11.23,11.23,0,0,0,34.57,43.14Z"/></g><g id="socle_copy_10" data-name="socle copy 10"><path class="cls-5" d="M41.73,46.68s0,2,0,2.2c-.09,2.1,2.71,4.77,6.72,6.26,4.44,1.65,9.68,1.23,10.49-.94.08-.22,0-2.37,0-2.37"/><path class="cls-6" d="M54.12,54.45a15.59,15.59,0,0,1-5.38-1.05c-4.81-1.78-7.85-5.13-6.93-7.61.54-1.46,2.31-2.29,4.85-2.29a15.58,15.58,0,0,1,5.37,1c4.81,1.78,7.85,5.12,6.93,7.61-.54,1.45-2.3,2.29-4.84,2.29Z"/><path class="cls-7" d="M46.66,44a15.43,15.43,0,0,1,5.2,1c4.47,1.67,7.45,4.79,6.63,7-.47,1.29-2.16,2-4.37,2a15.13,15.13,0,0,1-5.2-1c-4.48-1.66-7.45-4.78-6.64-7,.48-1.28,2.16-2,4.38-2m0-1c-2.76,0-4.7,1-5.32,2.62-1,2.79,2.07,6.34,7.23,8.25A16.09,16.09,0,0,0,54.12,55c2.76,0,4.69-1,5.31-2.62,1-2.79-2.07-6.34-7.23-8.25A16,16,0,0,0,46.66,43Z"/><path class="cls-8" d="M55.92,52.56l-.26,0c-.88-.08-1.45-.55-1.41-.91s.6-.64,1.3-.64h.26c.87.09,1.45.55,1.41.92s-.61.64-1.3.64Z"/><path class="cls-7" d="M55.55,51.24h.23c.77.07,1.21.46,1.19.64s-.38.42-1,.42l-.24,0c-.77-.07-1.2-.45-1.19-.64s.39-.41,1.06-.41m0-.5c-.84,0-1.51.36-1.55.86s.67,1.1,1.63,1.19l.29,0c.83,0,1.5-.36,1.55-.87s-.68-1.1-1.64-1.19Z"/><path class="cls-9" d="M45.27,46c-.74,0-1.25-.33-1.25-.64s.51-.64,1.25-.64,1.25.34,1.25.64S46,46,45.27,46Z"/><path class="cls-7" d="M45.27,44.93c.65,0,1,.29,1,.38s-.34.39-1,.39-1-.29-1-.39.34-.38,1-.38m0-.5c-.83,0-1.5.39-1.5.88s.67.89,1.5.89,1.5-.4,1.5-.89-.67-.88-1.5-.88Z"/></g><g id="bloc_copy_10" data-name="bloc copy 10"><path class="cls-10" d="M50.5,50.73c-2.88-.07-5.12-1.46-5.08-3.18V46a.51.51,0,0,1,.15-.35.49.49,0,0,1,.35-.15l9.44.21a.53.53,0,0,1,.36.17.48.48,0,0,1,.13.38l-.14,1.54c0,1.64-2.19,2.91-5,2.91Z"/><path class="cls-7" d="M45.92,46l9.43.21-.13,1.54c0,1.38-2,2.46-4.52,2.46h-.19c-2.57-.06-4.62-1.25-4.59-2.67V46m0-1a1,1,0,0,0-1,1v1.54c0,2,2.35,3.6,5.57,3.67h.21c3.08,0,5.44-1.46,5.51-3.4l.14-1.51a1,1,0,0,0-1-1.09L45.94,45Z"/><path class="cls-11" d="M50.57,48.77c-2.93-.07-5.19-1.48-5.15-3.22s2.22-3,5.08-3h.21a7.55,7.55,0,0,1,3.55.9,2.69,2.69,0,0,1,1.59,2.31c0,1.7-2.22,3-5.07,3Z"/><path class="cls-7" d="M50.5,43.07h.19c2.61.05,4.69,1.26,4.66,2.7s-2.06,2.49-4.58,2.49h-.19c-2.61-.06-4.69-1.27-4.66-2.7s2.06-2.5,4.58-2.5m0-1c-3.14,0-5.53,1.5-5.58,3.47a3.19,3.19,0,0,0,1.84,2.76,8.06,8.06,0,0,0,3.8,1h.21c3.14,0,5.54-1.49,5.58-3.47a3.16,3.16,0,0,0-1.84-2.75,7.94,7.94,0,0,0-3.79-1Z"/><path class="cls-12" d="M50,33.76a.52.52,0,0,1-.21,0,1.93,1.93,0,0,1-.91-1.9,5.56,5.56,0,0,1,2.65-4.33,2.1,2.1,0,0,1,1-.26c.83,0,1.79.56,1.79,2.13l-.07.5a.5.5,0,0,1-.39.4l-3.25.68-.11,2.34a.52.52,0,0,1-.24.41A.59.59,0,0,1,50,33.76Z"/><path class="cls-7" d="M52.55,27.73c.65,0,1.29.43,1.29,1.63l-.06.41-3.63.76L50,33.26s-.62-.27-.62-1.44a5.05,5.05,0,0,1,2.39-3.89,1.62,1.62,0,0,1,.76-.2m0-1a2.65,2.65,0,0,0-1.23.32,6,6,0,0,0-2.92,4.77,2.4,2.4,0,0,0,1.21,2.35,1,1,0,0,0,.93-.06,1,1,0,0,0,.48-.8l.09-2,2.87-.6a1,1,0,0,0,.78-.81l.07-.41a1,1,0,0,0,0-.17,2.34,2.34,0,0,0-2.29-2.63Z"/><path class="cls-13" d="M50.64,47.33c-1.5,0-3.09-.58-3.09-1.66V32a.52.52,0,0,1,.24-.43l5-3.1a.48.48,0,0,1,.26-.07.5.5,0,0,1,.24.06.51.51,0,0,1,.26.44V45.67C53.55,46.64,52.33,47.33,50.64,47.33Z"/><path class="cls-7" d="M53.05,28.93V45.67c0,.64-1,1.16-2.41,1.16s-2.59-.52-2.59-1.16V32l5-3.1m0-1a1,1,0,0,0-.53.15l-5,3.1a1,1,0,0,0-.47.85V45.67c0,1.42,1.8,2.16,3.59,2.16,2,0,3.41-.9,3.41-2.16V28.93a1,1,0,0,0-.51-.88,1.07,1.07,0,0,0-.49-.12Z"/><path class="cls-14" d="M53.23,27.9l-2-.89s-3.62-.41-3.62,3.28c0,1.58.68,1.92.68,1.92l1.92,1.16V30.29S51.59,27.83,53.23,27.9Z"/><path class="cls-15" d="M52.86,34.53a1.2,1.2,0,0,1-.59-.15c-.75-.44-.82-1.62-.16-2.74A2.44,2.44,0,0,1,54,30.29a1.09,1.09,0,0,1,.59.16c.75.44.82,1.61.16,2.73a2.44,2.44,0,0,1-1.88,1.35Z"/><path class="cls-7" d="M54,30.79a.67.67,0,0,1,.34.09c.48.28.48,1.2,0,2.05A2,2,0,0,1,52.86,34a.63.63,0,0,1-.33-.09c-.49-.28-.48-1.2,0-2A2,2,0,0,1,54,30.79m0-1a2.88,2.88,0,0,0-2.31,1.6,3.45,3.45,0,0,0-.51,1.73A1.86,1.86,0,0,0,52,34.81a1.72,1.72,0,0,0,.84.22,2.87,2.87,0,0,0,2.31-1.6c.8-1.36.66-2.83-.34-3.41a1.63,1.63,0,0,0-.84-.23Z"/></g><g id="bras_1" data-name="bras 1"><path class="cls-16" d="M49,32.52a1.3,1.3,0,0,1-1-.63L40.75,19.35a.48.48,0,0,1,.07-.58l3.81-4.15a.52.52,0,0,1,.37-.16h.06a.48.48,0,0,1,.38.26l7,13.49a.83.83,0,0,1,.05.66,3.86,3.86,0,0,1-1.81,1.83,2,2,0,0,0-.6.82C49.8,32,49.51,32.52,49,32.52Z"/><path class="cls-7" d="M45,15l7,13.49c.21.38-.61,1.32-1.56,1.82C49.69,30.65,49.47,32,49,32c-.16,0-.34-.12-.57-.43L41.19,19.1,45,15m0-1a1,1,0,0,0-.74.32l-3.81,4.15a1,1,0,0,0-.13,1.17l7.2,12.49.07.1A1.81,1.81,0,0,0,49,33c.85,0,1.26-.76,1.53-1.26a2.38,2.38,0,0,1,.4-.61,4.36,4.36,0,0,0,2-2.13,1.35,1.35,0,0,0-.1-1.06l-7-13.46a1,1,0,0,0-.76-.53Z"/></g><g id="bras_2_copy_12" data-name="bras 2 copy 12"><path class="cls-17" d="M42.19,22.38a.51.51,0,0,1-.33-.13l-1.74-1.53a2.8,2.8,0,0,1-.91-2.47,5.24,5.24,0,0,1,1.23-2.84A4.78,4.78,0,0,1,44,13.52a2.56,2.56,0,0,1,1.64.56l1.93,1.67a.51.51,0,0,1,.17.34.49.49,0,0,1-.12.37l-5,5.75a.49.49,0,0,1-.34.17Z"/><path class="cls-7" d="M44,14a2.08,2.08,0,0,1,1.33.45l1.91,1.66-5,5.75-1.74-1.54c-1.13-.93-1-3,.38-4.61A4.27,4.27,0,0,1,44,14m0-1h0a5.27,5.27,0,0,0-3.91,2.07,5.71,5.71,0,0,0-1.33,3.12,3.31,3.31,0,0,0,1.09,2.9l1.72,1.52a1,1,0,0,0,.66.25h.06a1,1,0,0,0,.69-.34l5-5.75a1,1,0,0,0-.1-1.42l-1.92-1.66A3.08,3.08,0,0,0,44,13Z"/><path class="cls-18" d="M43.63,22.9A2.56,2.56,0,0,1,42,22.33a2.75,2.75,0,0,1-.91-2.47A5.29,5.29,0,0,1,42.29,17a4.77,4.77,0,0,1,3.52-1.88,2.55,2.55,0,0,1,1.65.56c1.36,1.12,1.22,3.46-.32,5.32a4.76,4.76,0,0,1-3.51,1.89Z"/><path class="cls-7" d="M45.81,15.63a2,2,0,0,1,1.33.45c1.12.93,1,3-.38,4.62a4.31,4.31,0,0,1-3.13,1.7A2.08,2.08,0,0,1,42.3,22c-1.13-.93-1-3,.38-4.62a4.31,4.31,0,0,1,3.13-1.7m0-1a5.23,5.23,0,0,0-3.9,2.07,5.7,5.7,0,0,0-1.34,3.12,3.31,3.31,0,0,0,1.09,2.9,3.08,3.08,0,0,0,2,.68,5.3,5.3,0,0,0,3.9-2.07c1.71-2.08,1.82-4.73.24-6a3,3,0,0,0-2-.68Z"/><path class="cls-19" d="M43.45,20.71a1,1,0,0,1-.2-.89A3.16,3.16,0,0,1,44,18.34a2.69,2.69,0,0,1,1.81-1,.73.73,0,0,1,.48.16l.39.38L43.78,21Z"/><path class="cls-7" d="M45.81,17.82h0a.24.24,0,0,1,.14,0l0,0-2.23,2.4a.74.74,0,0,1,0-.38,2.5,2.5,0,0,1,.63-1.23,2.17,2.17,0,0,1,1.43-.85m0-1A3.14,3.14,0,0,0,43.62,18c-1,1.1-1.18,2.49-.49,3.09l.7.57,3.55-3.82-.76-.75a1.21,1.21,0,0,0-.81-.28Z"/><path class="cls-20" d="M46.82,20.77c1-1.11,1.18-2.49.49-3.09s-2-.2-3,.9-1.19,2.49-.49,3.09S45.86,21.87,46.82,20.77Z"/><path class="cls-21" d="M25.05,22.65a.48.48,0,0,1-.36-.15.51.51,0,0,1-.14-.39l.34-3.85a.51.51,0,0,1,.42-.45l16.17-2.6a2.63,2.63,0,0,1,.57-.08.61.61,0,0,1,.52.22.51.51,0,0,1,.1.45,3.18,3.18,0,0,1-.61,1A8.65,8.65,0,0,0,41,18.49a4.67,4.67,0,0,0-.11,2.43.52.52,0,0,1-.08.42.51.51,0,0,1-.37.21Z"/><path class="cls-7" d="M42.05,15.63c.09,0,.15,0,.14.06-.08.33-1.3,1.68-1.65,2.63a5.31,5.31,0,0,0-.13,2.73l-15.36,1.1.34-3.85,16.17-2.6a3,3,0,0,1,.49-.07m0-1a3.63,3.63,0,0,0-.69.09l-16.13,2.6a1,1,0,0,0-.84.89l-.34,3.85a1,1,0,0,0,.28.79,1,1,0,0,0,.72.3h.07l15.36-1.1a1,1,0,0,0,.75-.42,1,1,0,0,0,.15-.83,4.33,4.33,0,0,1,.1-2.14,8.56,8.56,0,0,1,1-1.57,3.54,3.54,0,0,0,.69-1.17A1.09,1.09,0,0,0,43,15a1.12,1.12,0,0,0-.91-.4Z"/></g><g id="poignet_copy_12" data-name="poignet copy 12"><path class="cls-22" d="M24.68,23.32a.45.45,0,0,1-.25-.07l-1.28-.77a.5.5,0,0,1-.18-.67l3.33-6a.49.49,0,0,1,.31-.24l.13,0a.59.59,0,0,1,.26.07l1.26.77c.38.21.64.36-1.26,3.79-1.73,3.11-2.06,3.12-2.32,3.12Z"/><path class="cls-7" d="M26.74,16.07l1.26.77A11.47,11.47,0,0,1,26.56,20a12.48,12.48,0,0,1-1.88,2.86h0l-1.26-.77,3.33-6m0-1a1.15,1.15,0,0,0-.26,0,1.06,1.06,0,0,0-.62.48l-3.32,6a1,1,0,0,0,.35,1.34l1.26.77a1,1,0,0,0,.53.15c.53,0,.87,0,2.76-3.38,1.69-3,2-3.94,1-4.48l-1.23-.74a1,1,0,0,0-.52-.15Z"/><path class="cls-23" d="M23.05,22.35a.54.54,0,0,1-.5-.38c-.05-.16-.15-.53,1.49-3.48,1.74-3.13,2.06-3.13,2.32-3.13a.59.59,0,0,1,.26.07c.38.22.66.37-1.25,3.8C23.64,22.35,23.31,22.35,23.05,22.35Z"/><path class="cls-7" d="M26.36,15.86h0A11.12,11.12,0,0,1,24.94,19a12.63,12.63,0,0,1-1.89,2.87h0a11.7,11.7,0,0,1,1.44-3.12,12.41,12.41,0,0,1,1.88-2.87m0-1h0c-.51,0-.88,0-2.76,3.38-1.74,3.14-1.63,3.52-1.53,3.86a1,1,0,0,0,.49.62,1.09,1.09,0,0,0,.49.13c.51,0,.88,0,2.76-3.38,1.79-3.21,2-4,1.05-4.47a1,1,0,0,0-.5-.14Z"/></g><g id="contour_robot" data-name="contour robot"><path class="cls-24" d="M43.93,14a2.11,2.11,0,0,1,1.36.44l1.91,1.66h0A2.74,2.74,0,0,1,47.69,19a2.83,2.83,0,0,1-.15.53L51.74,28a1,1,0,0,1,.76-.31,1.3,1.3,0,0,1,1.31,1.19l-.1,1.92a.52.52,0,0,1,.25-.06.76.76,0,0,1,.37.11c.48.28.48,1.2,0,2.05A2.13,2.13,0,0,1,53.05,34v9.48c1.39.48,2.32,1.34,2.3,2.3,0,.15-.09,1-.09,1a7.6,7.6,0,0,1,3.32,3.76s.08,3.21,0,3.43c-.38,1.07-2.18,1.7-4.52,1.7a16.08,16.08,0,0,1-5.6-1.07c-4-1.53-6.31-4-6.31-6.11V46.8a2.18,2.18,0,0,1,.13-.84c.48-1.28,2.16-2,4.38-2h.28a4.6,4.6,0,0,1,1.11-.55L48.1,31.1l-4.89-8.74c-1.45-.21-1.59-1.23-1.61-1.41-1,.09-16.35,1.19-16.35,1.19-.29.42-.5.68-.57.68h0l-1.26-.77,3.33-6,1.26.77c.07,0-.09.46-.39,1.11l13.22-2.13A3.87,3.87,0,0,1,43.93,14m0-1v0a4.86,4.86,0,0,0-3.67,1.87L29,16.71a.93.93,0,0,0-.52-.75l-1.23-.74a1,1,0,0,0-.52-.15,1.15,1.15,0,0,0-.26,0,1.06,1.06,0,0,0-.62.48l-3.32,6a1,1,0,0,0,.35,1.34l1.26.77a1,1,0,0,0,.53.15,1.34,1.34,0,0,0,1.11-.72c2.33-.17,12.18-.87,15.13-1.1a2.64,2.64,0,0,0,1.64,1.24l4.54,8.12-.05,11.43-.39.21c-2.77,0-4.7,1-5.32,2.62a3.27,3.27,0,0,0-.19,1.21v1.65c0,2.67,2.73,5.43,7,7.05a17.33,17.33,0,0,0,6,1.13c2.9,0,4.95-.89,5.46-2.37.07-.18.14-.39.06-3.79a.92.92,0,0,0,0-.28,8.36,8.36,0,0,0-3.21-4c0-.2,0-.38,0-.46a3.38,3.38,0,0,0-2.3-3V34.64a3.64,3.64,0,0,0,1.12-1.21c.8-1.36.66-2.83-.34-3.41L54.76,30l.05-1v-.06a2.28,2.28,0,0,0-2.31-2.19l-.28,0-3.6-7.28c0-.07,0-.14,0-.21A3.64,3.64,0,0,0,48,15.49l-.11-.12-1.92-1.66a3.11,3.11,0,0,0-2-.68Z"/></g><polyline class="cls-25" points="6.87 38.37 17.62 25.66 18.75 26.44 17.4 47.1"/><g id="tete_copy_13" data-name="tete copy 13"><path class="cls-26" d="M18.51,27.13a.45.45,0,0,1-.16,0l-1.08-.52a.47.47,0,0,1-.2-.22.39.39,0,0,1,0-.3l1.21-2.18L18,23.71a.35.35,0,0,1-.19-.22.42.42,0,0,1,0-.29l4.35-7.94a.38.38,0,0,1,.33-.2.41.41,0,0,1,.18,0L25,16.34a.38.38,0,0,1,.16.5l-3.89,8a.39.39,0,0,1-.23.19l-.11,0a.45.45,0,0,1-.19-.05l-.46-.28L18.83,27A.37.37,0,0,1,18.51,27.13Z"/><path class="cls-27" d="M22.53,15.44l2.3,1.23-3.89,8-.76-.46-1.67,2.57-1.08-.52,1.39-2.51-.65-.35,4.36-7.94m0-.75a.73.73,0,0,0-.65.39L17.52,23a.74.74,0,0,0-.06.58.72.72,0,0,0,.34.43l-1,1.85a.72.72,0,0,0-.06.59.73.73,0,0,0,.39.45l1.08.51a.72.72,0,0,0,.32.08.77.77,0,0,0,.63-.34l1.27-2,.15.09a.75.75,0,0,0,.38.1.78.78,0,0,0,.22,0,.74.74,0,0,0,.46-.39l3.89-8a.76.76,0,0,0-.32-1l-2.3-1.23a.77.77,0,0,0-.36-.09Z"/><polygon class="cls-28" points="18.18 23.38 18.52 24.01 17.42 26.23 17.96 26.5 20.82 21.6 19.77 20.68 18.18 23.38"/><line class="cls-29" x1="17.77" y1="26.53" x2="22.48" y2="17.43"/><path class="cls-30" d="M22.76,24.12a.51.51,0,0,1-.26-.07L18.27,21.5a.51.51,0,0,1-.19-.66l5.37-10.7a.55.55,0,0,1,.31-.25l.14,0a.48.48,0,0,1,.26.07l4.24,2.61a.49.49,0,0,1,.23.33l.2,1a.38.38,0,0,1,0,.15,2.83,2.83,0,0,1-.51,1.09l-1.43,2.32a.5.5,0,0,1-.32.23h-.11a.5.5,0,0,1-.27-.08l-.57-.37-1.5,3.06.51.34a.5.5,0,0,1,.15.68l-1.59,2.54A.51.51,0,0,1,22.76,24.12Z"/><path class="cls-27" d="M23.9,10.37,28.14,13l.2,1a2.71,2.71,0,0,1-.44.88c-.41.64-1.44,2.33-1.44,2.33l-1-.67L23.48,20.5l.87.58-1.59,2.54-4.23-2.55,5.37-10.7m0-1a.84.84,0,0,0-.27,0,1,1,0,0,0-.62.51l-5.38,10.7a1,1,0,0,0,.38,1.3l4.24,2.56a1.06,1.06,0,0,0,.51.14,1,1,0,0,0,.85-.47l1.59-2.54a1,1,0,0,0-.29-1.36l-.14-.09L25.82,18l.1.06a1,1,0,0,0,.54.16l.22,0a1,1,0,0,0,.63-.46s1-1.67,1.44-2.31a3.49,3.49,0,0,0,.58-1.31.94.94,0,0,0,0-.29l-.2-1a1,1,0,0,0-.45-.67l-4.24-2.6a1,1,0,0,0-.53-.15Z"/><path class="cls-31" d="M23.9,10.37l-5,8.86-.46,1.87s0,.14.35-.39l4.75-8.45a2.47,2.47,0,0,0,.4-1A5.84,5.84,0,0,0,23.9,10.37Z"/><path class="cls-29" d="M18.46,21.08s0,.14.35-.38l4.75-8.46a2.47,2.47,0,0,0,.4-1.05,5.84,5.84,0,0,0-.06-.84"/></g></g></svg>