<?xml version="1.0" encoding="UTF-8"?><svg xmlns="http://www.w3.org/2000/svg" xmlns:xlink="http://www.w3.org/1999/xlink" viewBox="0 0 64 64"><defs><style>.cls-1{fill:url(#linear-gradient-2);}.cls-2{stroke-width:.5px;}.cls-2,.cls-3,.cls-4,.cls-5,.cls-6,.cls-7,.cls-8,.cls-9{stroke-linecap:round;}.cls-2,.cls-6{stroke:#fff;}.cls-2,.cls-6,.cls-10{fill:none;}.cls-11{fill:url(#linear-gradient-6);}.cls-11,.cls-12,.cls-13,.cls-14,.cls-15{stroke:#323232;}.cls-11,.cls-12,.cls-15{stroke-width:.75px;}.cls-3{fill:#e1e1e1;}.cls-3,.cls-4,.cls-14,.cls-5,.cls-7,.cls-8,.cls-9{stroke-width:.31px;}.cls-3,.cls-4,.cls-5,.cls-7,.cls-8,.cls-9{stroke:#000;stroke-linejoin:round;}.cls-16{fill:#aadcfa;}.cls-4{fill:url(#top_white-2);}.cls-17{fill:#8c8c8c;}.cls-18{isolation:isolate;}.cls-19{fill:#323232;}.cls-12{fill:url(#linear-gradient-7);}.cls-20{fill:#003755;}.cls-13{fill:url(#linear-gradient-4);stroke-width:.47px;}.cls-14,.cls-21{fill:#82bddb;}.cls-15{fill:url(#linear-gradient-5);}.cls-5{fill:url(#top_white);}.cls-6{stroke-width:.3px;}.cls-7{fill:#797979;}.cls-22{clip-path:url(#clippath);}.cls-23{fill:#00415f;}.cls-24{fill:url(#linear-gradient-3);}.cls-8{fill:url(#top_white-4);}.cls-25{fill:url(#linear-gradient);}.cls-26{fill:#5a9ab8;}.cls-9{fill:url(#top_white-3);}</style><clipPath id="clippath"><path class="cls-10" d="M34.57,15.36c6.32,1.79,5.68,7.98,5.68,7.98,1.85,.13,3.55,.55,6,2.04,3.77,2.3,4.26,6.57,4.26,6.57h7.76V5.61l-23.6,.1-.1,9.66Z"/></clipPath><linearGradient id="linear-gradient" x1="39.57" y1="14.62" x2="54.8" y2="26.9" gradientTransform="matrix(1, 0, 0, 1, 0, 0)" gradientUnits="userSpaceOnUse"><stop offset="0" stop-color="#fff"/><stop offset="1" stop-color="#bbbdbf"/></linearGradient><linearGradient id="linear-gradient-2" x1="41.02" y1="10.71" x2="50.95" y2="28.87" gradientTransform="matrix(1, 0, 0, 1, 0, 0)" gradientUnits="userSpaceOnUse"><stop offset="0" stop-color="#92d5ee"/><stop offset="1" stop-color="#6f9cae"/></linearGradient><linearGradient id="linear-gradient-3" x1="45.05" y1="15.04" x2="53.77" y2="22.07" gradientTransform="matrix(1, 0, 0, 1, 0, 0)" gradientUnits="userSpaceOnUse"><stop offset="0" stop-color="#92d5ee"/><stop offset=".15" stop-color="#8ccfe8"/><stop offset=".34" stop-color="#7bbed7"/><stop offset=".57" stop-color="#60a2bb"/><stop offset=".81" stop-color="#3a7c94"/><stop offset="1" stop-color="#185971"/></linearGradient><linearGradient id="linear-gradient-4" x1="10.39" y1="24.67" x2="25.67" y2="24.67" gradientTransform="matrix(1, 0, 0, 1, 0, 0)" gradientUnits="userSpaceOnUse"><stop offset=".17" stop-color="#aadcfa"/><stop offset=".25" stop-color="#aadcfa"/><stop offset=".77" stop-color="#376e8c"/><stop offset="1" stop-color="#aadcfa"/></linearGradient><linearGradient id="linear-gradient-5" x1="10.39" y1="24.67" x2="25.67" y2="24.67" gradientTransform="matrix(1, 0, 0, 1, 0, 0)" gradientUnits="userSpaceOnUse"><stop offset="0" stop-color="#aadcfa"/><stop offset=".13" stop-color="#d9effc"/><stop offset=".23" stop-color="#fff"/><stop offset=".32" stop-color="#fff"/><stop offset=".68" stop-color="#5a9ab8"/><stop offset=".75" stop-color="#5a9ab8"/><stop offset="1" stop-color="#fff"/></linearGradient><linearGradient id="top_white" x1="7.51" y1="48.85" x2="20.09" y2="48.85" gradientTransform="matrix(1, 0, 0, 1, 0, 0)" gradientUnits="userSpaceOnUse"><stop offset="0" stop-color="#fff"/><stop offset="1" stop-color="#f0f0f0"/></linearGradient><linearGradient id="top_white-2" x1="10.19" y1="44.8" x2="22.84" y2="44.8" xlink:href="#top_white"/><linearGradient id="top_white-3" x1="12.83" y1="40.77" x2="25.49" y2="40.77" xlink:href="#top_white"/><linearGradient id="top_white-4" x1="15.51" y1="34.7" x2="37.25" y2="34.7" xlink:href="#top_white"/><linearGradient id="linear-gradient-6" x1="27.16" y1="36.53" x2="47.93" y2="36.53" xlink:href="#linear-gradient-5"/><linearGradient id="linear-gradient-7" x1="27.16" y1="36.53" x2="47.93" y2="36.53" xlink:href="#linear-gradient-5"/></defs><g id="detour_01"><g class="cls-22"><g><circle class="cls-25" cx="45.98" cy="19.79" r="10.35"/><path class="cls-1" d="M45.98,11.24c4.71,0,8.55,3.84,8.55,8.55s-3.84,8.55-8.55,8.55-8.55-3.84-8.55-8.55,3.84-8.55,8.55-8.55m0-1.8c-5.72,0-10.35,4.63-10.35,10.35s4.63,10.35,10.35,10.35,10.35-4.63,10.35-10.35-4.63-10.35-10.35-10.35h0Z"/><path class="cls-23" d="M45.98,9.44c5.72,0,10.35,4.63,10.35,10.35s-4.63,10.35-10.35,10.35-10.35-4.63-10.35-10.35,4.63-10.35,10.35-10.35m0-.9c-6.2,0-11.25,5.05-11.25,11.25s5.05,11.25,11.25,11.25,11.25-5.05,11.25-11.25-5.05-11.25-11.25-11.25h0Z"/></g><path class="cls-24" d="M45.53,12.51c4.02,0,7.29,3.26,7.29,7.29,0,1.91-.73,3.65-1.94,4.95l-5.35-4.95v-7.29"/><rect class="cls-23" x="45.53" y="13.04" width=".9" height="7.2"/><rect class="cls-23" x="47.5" y="18.79" width=".9" height="5.93" transform="translate(-1.34 40.27) rotate(-45)"/><rect class="cls-23" x="43.73" y="5.84" width="4.5" height=".9"/><rect class="cls-23" x="44.63" y="6.74" width="2.7" height="1.8"/><rect class="cls-23" x="54.83" y="8.2" width=".9" height="4.5" transform="translate(8.8 42.15) rotate(-45)"/><rect class="cls-23" x="53.42" y="10.05" width="1.8" height="2.7" transform="translate(7.85 41.75) rotate(-45)"/></g></g><g id="A_reduire_copy"><g class="cls-18"><path id="C_2" class="cls-13" d="M25.25,11.14c-.37-.95-.84-1.5-1.09-1.79-.17-.18-.42-.45-.77-.7-.44-.32-.7-.45-1.08-.64-.79-.4-1.84-.62-2.19-.69-.56-.12-2.57-.45-4.95,.16-2.2,.56-3.12,1.66-3.47,2.07-.15,.18-.4,.56-.54,.81-.25,.46-.33,.7-.45,1.03,0,0-.15,.44-.23,.87-.07,.4-.08,.58-.09,.91v24.89c0,.61,.25,1.24,.78,1.83,1.86,2.06,6.43,2.93,10.22,1.93,2.7-.71,4.27-2.18,4.27-3.72V13.2c0-.25,0-1-.42-2.06Zm-9.97-3.62c3.1-.82,6.84-.11,8.36,1.58,1.52,1.69,.24,3.72-2.85,4.54-3.1,.82-6.84,.11-8.36-1.58-1.52-1.69-.24-3.72,2.85-4.54Z"/><path id="Base" class="cls-17" d="M24.88,11.29c1.86,2.06,.3,4.55-3.49,5.55-3.78,1-8.36,.14-10.22-1.93s-.3-4.55,3.49-5.55,8.36-.14,10.22,1.93Zm-4.05,1.07c-.76-.84-2.63-1.2-4.18-.79s-2.19,1.43-1.43,2.27,2.63,1.2,4.18,.79,2.19-1.43,1.43-2.27"/><path id="Base-2" class="cls-17" d="M24.88,36.26c1.86,2.06,.3,4.55-3.49,5.55s-8.36,.14-10.22-1.93c-1.86-2.06-.3-4.55,3.49-5.55s8.36-.14,10.22,1.93Zm-4.05,1.07c-.76-.84-2.63-1.2-4.18-.79s-2.19,1.43-1.43,2.27,2.63,1.2,4.18,.79,2.19-1.43,1.43-2.27"/><path id="C_2-2" class="cls-15" d="M25.25,11.14c-.37-.95-.84-1.5-1.09-1.79-.17-.18-.42-.45-.77-.7-.44-.32-.7-.45-1.08-.64-.79-.4-1.84-.62-2.19-.69-.56-.12-2.57-.45-4.95,.16-2.2,.56-3.12,1.66-3.47,2.07-.15,.18-.4,.56-.54,.81-.25,.46-.33,.7-.45,1.03,0,0-.15,.44-.23,.87-.07,.4-.08,.58-.09,.91v24.89c0,.61,.25,1.24,.78,1.83,1.86,2.06,6.43,2.93,10.22,1.93,2.7-.71,4.27-2.18,4.27-3.72V13.2c0-.25,0-1-.42-2.06Z"/><path id="C_2-3" class="cls-15" d="M25.25,11.14c-.37-.95-.84-1.5-1.09-1.79-.17-.18-.42-.45-.77-.7-.44-.32-.7-.45-1.08-.64-.79-.4-1.84-.62-2.19-.69-.56-.12-2.57-.45-4.95,.16-2.2,.56-3.12,1.66-3.47,2.07-.15,.18-.4,.56-.54,.81-.25,.46-.33,.7-.45,1.03,0,0-.15,.44-.23,.87-.07,.4-.08,.58-.09,.91v24.89c0,.61,.25,1.24,.78,1.83,1.86,2.06,6.43,2.93,10.22,1.93,2.7-.71,4.27-2.18,4.27-3.72V13.2c0-.25,0-1-.42-2.06Zm-9.97-3.62c3.1-.82,6.84-.11,8.36,1.58,1.52,1.69,.24,3.72-2.85,4.54-3.1,.82-6.84,.11-8.36-1.58-1.52-1.69-.24-3.72,2.85-4.54Z"/><ellipse class="cls-14" cx="18.03" cy="8.61" rx="1.7" ry="3.12" transform="translate(9.35 26.61) rotate(-89.77)"/></g><g id="Pied_citerne_1_copy_6"><path class="cls-3" d="M35.07,47.34l-1.12-.5v-11.04c0-.62,.5-1.12,1.12-1.12s1.12,.5,1.12,1.12v11.04l-1.12,.5Z"/><path class="cls-3" d="M26.33,50.46l-1.12-.5v-11.04c0-.62,.5-1.12,1.12-1.12s1.12,.5,1.12,1.12v11.04l-1.12,.5Z"/><path class="cls-3" d="M17.6,46.72l-1.12-.5v-11.04c0-.62,.5-1.12,1.12-1.12s1.12,.5,1.12,1.12v11.04l-1.12,.5Z"/><g id="Pied_citerne_1_copy_6-2"><polygon class="cls-7" points="35.07 47.34 35.07 34.68 36.2 35.8 36.2 46.84 35.07 47.34"/><polygon class="cls-7" points="26.33 50.46 26.33 37.8 27.46 38.92 27.46 49.96 26.33 50.46"/><polygon class="cls-7" points="17.6 46.72 17.6 34.06 18.72 35.18 18.72 46.22 17.6 46.72"/></g></g><g id="Nouveau_symbole_10_copy_5"><g><polyline class="cls-7" points="10.22 49.54 16.24 52.9 16.24 54.22 10.24 50.87 10.22 49.54"/><polygon class="cls-7" points="10.22 48.34 16.24 51.7 25.25 37.7 19.54 35.09 10.22 48.34"/><polygon class="cls-3" points="25.25 37.7 16.24 51.7 16.24 54.19 25.25 49.97 25.25 37.7"/></g><g><polygon class="cls-7" points="17.57 53.76 20.13 52.19 20.09 50.83 17.56 52.29 17.57 53.76"/><polygon class="cls-5" points="7.51 46.92 17.56 52.29 20.09 50.83 10.13 45.41 7.51 46.92"/><polygon class="cls-3" points="7.53 48.26 17.57 53.76 17.56 52.29 7.51 46.92 7.53 48.26"/></g><g><polygon class="cls-7" points="20.25 49.71 22.84 48.14 22.84 46.78 20.24 48.24 20.25 49.71"/><polygon class="cls-4" points="10.19 42.87 20.24 48.24 22.84 46.78 12.81 41.36 10.19 42.87"/><polygon class="cls-3" points="10.21 44.22 20.25 49.71 20.24 48.24 10.19 42.87 10.21 44.22"/></g><g><polygon class="cls-7" points="22.84 45.68 25.49 44.1 25.49 42.74 22.84 44.21 22.84 45.68"/><polygon class="cls-9" points="12.83 38.83 22.84 44.21 25.49 42.74 15.51 37.32 12.83 38.83"/><polygon class="cls-3" points="12.84 40.18 22.84 45.68 22.84 44.21 12.83 38.83 12.84 40.18"/></g></g><g><polygon class="cls-3" points="25.49 41.29 15.51 35.93 15.51 34.48 25.49 39.87 25.49 41.29"/><polygon class="cls-8" points="37.25 34.91 25.49 39.87 15.51 34.48 27.22 29.54 37.25 34.91"/><polygon class="cls-7" points="37.25 36.34 25.49 41.29 25.49 39.87 37.25 34.91 37.25 36.34"/></g><g id="Pied_citerne_1_copy_6-3"><g><path d="M45.68,52.96c-.83,0-1.5-.29-1.5-1.12v-11.66c0-.83,.67-1.5,1.5-1.5s1.5,.67,1.5,1.5v11.66c0,.83-.67,1.12-1.5,1.12Z"/><g><path class="cls-16" d="M45.68,52.39c-.52,0-.94-.04-.94-.56v-11.66c0-.52,.42-.94,.94-.94s.94,.42,.94,.94v11.66c0,.52-.42,.56-.94,.56Z"/><path class="cls-19" d="M44.75,48.94v-8.76c0-.52,.42-.94,.94-.94s.94,.42,.94,.94v7.96c0,.52-1.87,1.32-1.87,.8Z"/></g></g><g><path d="M37.57,57.29c-.83,0-1.5-.25-1.5-1.08v-11.66c0-.83,.67-1.5,1.5-1.5s1.5,.67,1.5,1.5v11.66c0,.83-.67,1.08-1.5,1.08Z"/><g><path class="cls-16" d="M37.57,56.72c-.52,0-.94,0-.94-.52v-11.66c0-.52,.42-.94,.94-.94s.94,.42,.94,.94v11.66c0,.52-.42,.52-.94,.52Z"/><path class="cls-19" d="M36.63,50.61v-6.06c0-.52,.42-.94,.94-.94s.94,.42,.94,.94v6.76c0,.52-1.87-.18-1.87-.7Z"/></g></g><g><path d="M30.06,52.96c-.83,0-1.48-.29-1.48-1.12v-11.66c0-.83,.67-1.5,1.5-1.5s1.5,.67,1.5,1.5v11.66c0,.83-.69,1.12-1.52,1.12Z"/><g><path class="cls-16" d="M30.06,52.39c-.52,0-.92-.04-.92-.56v-11.66c0-.52,.42-.94,.94-.94s.94,.42,.94,.94v11.66c0,.52-.44,.56-.96,.56Z"/><path class="cls-19" d="M29.14,48.08v-8.06c0-.52,.42-.94,.94-.94s.94,.42,.94,.94v8.96c0,.52-1.87-.38-1.87-.9Z"/></g></g></g><g id="citerne_01_ok" class="cls-18"><path id="OK____" class="cls-11" d="M47.36,29.24c-.5-.95-1.14-1.5-1.48-1.79-.23-.18-.58-.45-1.04-.7-.6-.32-.95-.45-1.47-.64-1.08-.4-2.5-.62-2.97-.69-.76-.12-3.5-.45-6.73,.16-2.99,.56-4.25,1.66-4.72,2.08-.2,.18-.54,.56-.73,.81-.34,.46-.45,.7-.62,1.03,0,0-.21,.44-.31,.87-.1,.4-.1,.58-.12,.91v12.4c0,.61,.34,1.24,1.06,1.83,2.52,2.06,8.74,2.93,13.89,1.92,3.67-.71,5.81-2.19,5.81-3.72v-12.4c0-.25,0-1-.56-2.06Z"/><path id="OK____-2" class="cls-12" d="M47.36,29.24c-.5-.95-1.14-1.5-1.48-1.79-.23-.18-.58-.45-1.04-.7-.6-.32-.95-.45-1.47-.64-1.08-.4-2.5-.62-2.97-.69-.76-.12-3.5-.45-6.73,.16-2.99,.56-4.25,1.66-4.72,2.08-.2,.18-.54,.56-.73,.81-.34,.46-.45,.7-.62,1.03,0,0-.21,.44-.31,.87-.1,.4-.1,.58-.12,.91v12.4c0,.61,.34,1.24,1.06,1.83,2.52,2.06,8.74,2.93,13.89,1.92,3.67-.71,5.81-2.19,5.81-3.72v-12.4c0-.25,0-1-.56-2.06Zm-13.55-3.62c4.21-.82,9.29-.11,11.36,1.57,2.07,1.69,.33,3.72-3.88,4.54s-9.29,.11-11.36-1.57-.33-3.72,3.88-4.54Z"/><ellipse class="cls-14" cx="37.55" cy="26.71" rx="1.7" ry="4.24" transform="translate(10.76 64.2) rotate(-89.88)"/><g><path class="cls-26" d="M37.39,27.47c-.78,0-1.51-.28-1.84-.72-.18-.24-.24-.5-.15-.76,.12-.38,.53-.72,1.1-.89,.29-.09,.6-.14,.92-.14,.78,0,1.51,.28,1.84,.72,.18,.24,.24,.5,.15,.76-.12,.38-.53,.72-1.1,.89-.29,.09-.6,.14-.92,.14Z"/><path class="cls-20" d="M37.42,25.08c.75,0,1.43,.26,1.74,.67,.16,.21,.2,.43,.13,.65-.11,.34-.49,.65-1.02,.81-.28,.09-.58,.13-.88,.13-.75,0-1.43-.26-1.74-.67-.16-.21-.2-.43-.13-.65,.11-.34,.49-.65,1.02-.81,.28-.09,.58-.13,.88-.13m0-.25c-.32,0-.65,.05-.96,.14-1.08,.34-1.53,1.17-1.01,1.85,.37,.49,1.14,.77,1.94,.77,.32,0,.65-.05,.96-.14,1.08-.34,1.53-1.17,1.01-1.85-.37-.49-1.14-.77-1.94-.77h0Z"/></g><g><path class="cls-21" d="M32.15,29.79c-.68,0-1.3-.23-1.6-.6-.18-.22-.24-.48-.17-.72,.11-.35,.47-.64,.99-.79,.24-.07,.5-.1,.76-.1,.68,0,1.3,.23,1.6,.6,.18,.22,.24,.48,.17,.72-.11,.35-.47,.64-.99,.79-.24,.07-.5,.1-.76,.1Z"/><path class="cls-20" d="M32.13,27.7c.62,0,1.22,.2,1.51,.55,.41,.49,.06,1.07-.76,1.31-.23,.07-.48,.1-.73,.1-.62,0-1.22-.2-1.51-.55-.41-.49-.06-1.07,.76-1.31,.23-.07,.48-.1,.73-.1m0-.25c-.28,0-.54,.04-.79,.11-.56,.16-.96,.48-1.08,.87-.09,.29-.02,.58,.19,.84,.33,.4,.98,.64,1.7,.64,.28,0,.54-.04,.79-.11,.56-.16,.96-.48,1.08-.87,.09-.29,.02-.58-.19-.84-.33-.4-.98-.64-1.7-.64h0Z"/></g></g><g id="Layer_33_copy_3"><g><path d="M32.05,29.28c-.83,0-1.5-.67-1.5-1.5v-.85c0-1.96-1.18-3.69-3-4.41l-10.2-4.03c-.77-.3-1.15-1.18-.84-1.95,.31-.77,1.17-1.15,1.95-.84l10.2,4.03c2.97,1.18,4.9,4,4.9,7.2v.85c0,.83-.67,1.5-1.5,1.5Z"/><path class="cls-21" d="M32.05,28.71c-.52,0-.94-.42-.94-.94v-.85c0-2.19-1.32-4.13-3.35-4.93l-10.2-4.03c-.48-.19-.72-.73-.53-1.21,.19-.48,.74-.71,1.21-.53l10.2,4.03c2.76,1.09,4.54,3.71,4.54,6.67v.85c0,.52-.42,.94-.94,.94Z"/></g><line class="cls-6" x1="17.74" y1="16.7" x2="28.81" y2="21.2"/><path class="cls-6" d="M30.14,21.92c.44,.35,1.3,1.04,1.66,2.34"/><g><path d="M37.42,26.7c-.83,0-1.5-.67-1.5-1.5v-.97c0-2.31-1.47-4.35-3.66-5.09l-8.59-2.88c-.79-.26-1.21-1.11-.95-1.9,.26-.79,1.11-1.21,1.9-.95l8.59,2.88c3.41,1.14,5.71,4.33,5.71,7.93v.97c0,.83-.67,1.5-1.5,1.5Z"/><path class="cls-21" d="M37.42,26.14c-.52,0-.94-.42-.94-.94v-.97c0-2.55-1.62-4.81-4.04-5.62l-8.59-2.88c-.49-.16-.75-.7-.59-1.19s.7-.75,1.19-.59l8.59,2.88c3.18,1.07,5.32,4.04,5.32,7.4v.97c0,.52-.42,.94-.94,.94Z"/></g><line class="cls-6" x1="24.17" y1="14.47" x2="34.22" y2="18.13"/><path class="cls-6" d="M35.58,19.04c.44,.35,1.3,1.04,1.66,2.34"/></g><g id="Layer_33_copy_3-2"><g><path d="M54.98,42.13c-.83,0-1.5-.32-1.5-1.15,0-1.3-.41-1.65-2.33-2.11-.22-.05-4.87-1.29-4.87-1.29-.81-.15-1.35-.94-1.19-1.75,.15-.81,.94-1.34,1.75-1.19,0,0,4.79,1.28,5,1.33,1.73,.42,4.63,1.23,4.63,5.02,0,.83-.67,1.15-1.5,1.15Z"/><path class="cls-21" d="M54.98,41.57c-.52,0-.94-.07-.94-.59,0-1.79-.9-2.21-2.76-2.66-.23-.06-4.89-1.29-4.89-1.29-.51-.1-.84-.59-.75-1.09s.58-.84,1.09-.75c0,0,4.76,1.27,4.98,1.32,1.67,.4,4.2,1.12,4.2,4.47,0,.52-.42,.59-.94,.59Z"/></g><line class="cls-6" x1="46.41" y1="35.68" x2="53.11" y2="37.59"/><line class="cls-2" x1="54.04" y1="38.05" x2="54.35" y2="38.28"/><g id="rob_01_ok"><path d="M50.75,44.39c-.83,0-1.4-.37-1.4-1.2,0-1.3-.41-1.52-2.33-1.98-.24-.06-5.42-1.28-5.42-1.28-.81-.19-1.31-1-1.12-1.8,.19-.81,1-1.31,1.8-1.12,0,0,5.22,1.23,5.43,1.28,1.73,.42,4.63,1.11,4.63,4.9,0,.83-.77,1.2-1.6,1.2Z"/><path class="cls-21" d="M50.75,43.83c-.52,0-.84-.12-.84-.64,0-1.79-.9-2.08-2.76-2.53-.23-.06-5.42-1.28-5.42-1.28-.5-.12-.82-.62-.7-1.12,.12-.5,.63-.82,1.12-.7,0,0,5.21,1.23,5.43,1.28,1.67,.4,4.2,1.01,4.2,4.35,0,.52-.52,.64-1.04,.64Z"/></g><line class="cls-2" x1="50.17" y1="40.56" x2="50.48" y2="40.88"/><line class="cls-6" x1="42.26" y1="38.19" x2="49.11" y2="40"/></g></g></svg>