<svg xmlns="http://www.w3.org/2000/svg" xmlns:xlink="http://www.w3.org/1999/xlink" viewBox="0 0 64 64"><defs><style>.cls-1,.cls-28,.cls-42,.cls-43,.cls-46,.cls-47{fill:none;}.cls-2{isolation:isolate;}.cls-3{fill:url(#linear-gradient);}.cls-4,.cls-6{fill:#6d6d6d;}.cls-5{fill:url(#linear-gradient-2);}.cls-12,.cls-17,.cls-6{stroke:#6d6d6d;}.cls-12,.cls-17,.cls-19,.cls-25,.cls-30,.cls-49,.cls-6{stroke-linecap:round;stroke-linejoin:round;}.cls-6{stroke-width:0.92px;}.cls-7{fill:url(#linear-gradient-3);}.cls-8{fill:url(#linear-gradient-4);}.cls-9{fill:url(#linear-gradient-5);}.cls-10{fill:url(#linear-gradient-6);}.cls-11{fill:url(#linear-gradient-7);}.cls-12{stroke-width:0.76px;fill:url(#linear-gradient-8);}.cls-13{fill:url(#linear-gradient-9);}.cls-14{fill:url(#linear-gradient-10);}.cls-15{fill:#323232;}.cls-16{fill:#343434;}.cls-17{stroke-width:0.76px;fill:url(#linear-gradient-11);}.cls-18{fill:url(#linear-gradient-12);}.cls-19,.cls-44,.cls-47{stroke:#323232;}.cls-19{stroke-width:0.75px;fill:url(#linear-gradient-13);}.cls-20{fill:url(#linear-gradient-14);}.cls-21,.cls-33,.cls-36,.cls-39,.cls-48{fill:#fff;}.cls-22{clip-path:url(#clip-path);}.cls-23{fill:#285977;}.cls-24{fill:url(#white_left);}.cls-25,.cls-30,.cls-40{fill:#003755;}.cls-25,.cls-41,.cls-43,.cls-49{stroke:#003755;}.cls-26{fill:#2d6d8b;}.cls-27{mix-blend-mode:multiply;fill:url(#ds_infrastructure_1);}.cls-28,.cls-42,.cls-46,.cls-48,.cls-50{stroke:#fff;}.cls-28{stroke-width:0.25px;}.cls-29{opacity:0.55;fill:url(#white_left-2);}.cls-30,.cls-37,.cls-38,.cls-39{stroke:#000;}.cls-30{stroke-width:0.55px;}.cls-31,.cls-37,.cls-38,.cls-44{fill:#e1e1e1;}.cls-31{opacity:0.63;}.cls-32{opacity:0.75;}.cls-33,.cls-36{font-size:2.25px;font-family:Myriad-Roman, Myriad Roman;}.cls-33{letter-spacing:0.4em;}.cls-34{letter-spacing:0.3em;}.cls-35{letter-spacing:0em;}.cls-37{stroke-width:0.5px;}.cls-38,.cls-39{stroke-width:0.15px;}.cls-41{fill:#5a9ab8;}.cls-41,.cls-43,.cls-44,.cls-47{stroke-width:0.39px;}.cls-42,.cls-46{stroke-width:0.09px;}.cls-45{fill:#797979;}.cls-46{opacity:0.58;}.cls-48{stroke-width:2.2px;}.cls-49{stroke-width:0.7px;fill:url(#linear-gradient-15);}.cls-50{stroke-miterlimit:1;}</style><linearGradient id="linear-gradient" x1="90.06" y1="20.83" x2="95.39" y2="20.83" gradientTransform="matrix(-1, 0, 0, 1, 120.91, 0)" gradientUnits="userSpaceOnUse"><stop offset="0" stop-color="#f0f0f0"/><stop offset="1" stop-color="#b3b3b3"/></linearGradient><linearGradient id="linear-gradient-2" x1="94.77" y1="25.81" x2="88.19" y2="25.81" gradientTransform="matrix(-1, 0, 0, 1, 120.91, 0)" gradientUnits="userSpaceOnUse"><stop offset="0" stop-color="#f0f0f0"/><stop offset="0.12" stop-color="#e5e5e5"/><stop offset="0.33" stop-color="#c9c9c9"/><stop offset="0.59" stop-color="#9b9b9b"/><stop offset="0.91" stop-color="#5d5d5d"/><stop offset="1" stop-color="#4a4a4a"/></linearGradient><linearGradient id="linear-gradient-3" x1="96.93" y1="20.72" x2="86.58" y2="28.21" xlink:href="#linear-gradient"/><linearGradient id="linear-gradient-4" x1="97.51" y1="21.41" x2="88" y2="28.29" gradientTransform="matrix(-1.01, -0.01, 0.01, 1.02, 121.29, 0.64)" xlink:href="#linear-gradient"/><linearGradient id="linear-gradient-5" x1="90.66" y1="2.67" x2="86.67" y2="6.44" gradientTransform="matrix(-0.99, 0.17, 0.17, 0.99, 120.25, -3.79)" gradientUnits="userSpaceOnUse"><stop offset="0.18" stop-color="#f0f0f0"/><stop offset="0.3" stop-color="#e9e9e9"/><stop offset="0.47" stop-color="#d5d5d5"/><stop offset="0.68" stop-color="#b5b5b5"/><stop offset="0.91" stop-color="#888"/><stop offset="1" stop-color="#757575"/></linearGradient><linearGradient id="linear-gradient-6" x1="87.86" y1="-16.1" x2="84.99" y2="-13.54" gradientTransform="matrix(-0.95, 0.32, 0.32, 0.95, 122.97, -4.82)" gradientUnits="userSpaceOnUse"><stop offset="0.41" stop-color="#f0f0f0"/><stop offset="0.61" stop-color="#d0d0d0"/><stop offset="1" stop-color="#8c8c8c"/></linearGradient><linearGradient id="linear-gradient-7" x1="83.65" y1="-12.94" x2="88.99" y2="-12.94" gradientTransform="matrix(-0.95, 0.32, 0.32, 0.95, 122.97, -4.82)" xlink:href="#linear-gradient"/><linearGradient id="linear-gradient-8" x1="85.17" y1="-12.26" x2="88.39" y2="-12.26" gradientTransform="matrix(-0.95, 0.32, 0.32, 0.95, 122.97, -4.82)" xlink:href="#linear-gradient"/><linearGradient id="linear-gradient-9" x1="73.54" y1="-35.69" x2="80.69" y2="-28.54" gradientTransform="matrix(-0.77, 0.64, 0.64, 0.77, 126.39, -10.34)" gradientUnits="userSpaceOnUse"><stop offset="0" stop-color="#f0f0f0"/><stop offset="1" stop-color="#919191"/></linearGradient><linearGradient id="linear-gradient-10" x1="50.75" y1="19.49" x2="59.08" y2="19.49" gradientTransform="translate(72.55 -36.98) rotate(90)" xlink:href="#linear-gradient-9"/><linearGradient id="linear-gradient-11" x1="88.29" y1="-12.86" x2="83.66" y2="-9.27" gradientTransform="matrix(-0.95, 0.32, 0.32, 0.95, 122.97, -4.82)" xlink:href="#linear-gradient"/><linearGradient id="linear-gradient-12" x1="52.57" y1="-69.38" x2="56.92" y2="-69.38" gradientTransform="translate(-10.05 -42.43) rotate(96.89)" xlink:href="#linear-gradient"/><linearGradient id="linear-gradient-13" x1="49.19" y1="-77.31" x2="56.54" y2="-71.32" gradientTransform="matrix(-0.15, 0.99, -0.99, -0.15, -16.61, -42.45)" xlink:href="#linear-gradient-2"/><linearGradient id="linear-gradient-14" x1="46.56" y1="-79.91" x2="53.88" y2="-73.94" gradientTransform="matrix(-0.15, 0.99, -0.99, -0.15, -16.61, -42.45)" xlink:href="#linear-gradient-9"/><clipPath id="clip-path"><path class="cls-1" d="M27.9,39.16l3.8,10.73L5.21,55V19.4l50.56,0V44.51L49.71,33.77a3.54,3.54,0,0,0-3.13-2.21l-16.18,0a2,2,0,0,0-2,1.78l-.72,4A4,4,0,0,0,27.9,39.16Z"/></clipPath><linearGradient id="white_left" x1="11.57" y1="41.96" x2="52.71" y2="41.96" gradientUnits="userSpaceOnUse"><stop offset="0" stop-color="#f5f5f5"/><stop offset="1" stop-color="#bebebe"/></linearGradient><linearGradient id="ds_infrastructure_1" x1="34.36" y1="46.04" x2="52.19" y2="46.04" gradientTransform="translate(33.38 -5.55) rotate(29.84)" gradientUnits="userSpaceOnUse"><stop offset="0" stop-color="#fff"/><stop offset="1" stop-color="#0f218b"/></linearGradient><linearGradient id="white_left-2" x1="36.84" y1="35.67" x2="40.04" y2="35.67" gradientTransform="translate(33.38 -5.55) rotate(29.84)" xlink:href="#white_left"/><linearGradient id="linear-gradient-15" x1="10.73" y1="34.28" x2="33.28" y2="73.33" gradientUnits="userSpaceOnUse"><stop offset="0" stop-color="#8cd7f5"/><stop offset="1" stop-color="#376e8c"/></linearGradient></defs><g class="cls-2"><g id="VERSION_03_DEL_RPA----_copy_2" data-name="VERSION 03  DEL RPA---- copy 2"><g id="ROBOT_OK_copy_2" data-name="ROBOT OK copy 2"><path class="cls-3" d="M29.62,23.7a.43.43,0,0,1-.26-.09.45.45,0,0,1-.19-.36l0-1.07-3.35-1.5a.46.46,0,0,1-.27-.42v-.35A1.83,1.83,0,0,1,27.45,18a2.1,2.1,0,0,1,.88.19l.1.05A3.7,3.7,0,0,1,30.85,22a1.68,1.68,0,0,1-1.09,1.65A.32.32,0,0,1,29.62,23.7Z"/><path class="cls-4" d="M27.45,18.42a1.62,1.62,0,0,1,.68.14A3.31,3.31,0,0,1,30.39,22a1.25,1.25,0,0,1-.77,1.23l0-1.36L26,20.26v-.35a1.38,1.38,0,0,1,1.46-1.49m0-.92h0a2.3,2.3,0,0,0-2.38,2.41v.35a.9.9,0,0,0,.54.83l3.09,1.39v.77a.89.89,0,0,0,.38.73.93.93,0,0,0,.53.17.86.86,0,0,0,.28,0A2.16,2.16,0,0,0,31.31,22a4.17,4.17,0,0,0-2.69-4.25l-.09,0a2.41,2.41,0,0,0-1.08-.24Z"/><path class="cls-5" d="M29.15,33.8c-1.42,0-2.85-.47-2.85-1.37l-.09-10.91L25.5,21a.42.42,0,0,1-.15-.31V19.28c0-.68,1.22-1.46,2.29-1.46a2.1,2.1,0,0,1,.56.07A3,3,0,0,1,30,19.16l2,2.74a.39.39,0,0,1,.07.23v10.3C32.09,33.32,30.58,33.8,29.15,33.8Z"/><path class="cls-4" d="M27.64,18.19a1.82,1.82,0,0,1,.46.06,2.63,2.63,0,0,1,1.57,1.1l2,2.78v10.3c0,.55-1.24,1-2.57,1s-2.47-.45-2.47-1l-.1-11.1-.86-.63s0-1,0-1.42.93-1.09,1.91-1.09m0-.75h0c-1.17,0-2.66.87-2.66,1.84V20.7a.77.77,0,0,0,.31.61l.55.4.1,10.73c0,1.19,1.67,1.74,3.22,1.74s3.32-.55,3.32-1.75V22.13a.74.74,0,0,0-.15-.45l-2-2.75a3.39,3.39,0,0,0-2-1.4,2.39,2.39,0,0,0-.66-.09Z"/><path class="cls-6" d="M26.6,18.63,28.36,18a11.33,11.33,0,0,1,1.12-.6c.95.25,2.22.68,2.23,3.5,0,1.35,0,4.07,0,4.07l-1.66.72V20.9S28.21,18.57,26.6,18.63Z"/><g id="ok_" data-name="ok ***"><path class="cls-7" d="M26.67,24.65a11.89,11.89,0,0,1-1.36-1.46,8,8,0,0,1-.76-1.77l.13-.34s.51-.31.72-.41a1.14,1.14,0,0,1,.52-.12,2.57,2.57,0,0,1,1.94,1.25,2.37,2.37,0,0,1,.45,1.82,1,1,0,0,1-.54.7L27,24.7Z"/><path class="cls-4" d="M25.92,20.85A2.3,2.3,0,0,1,27.62,22c.58.86.58,1.79,0,2.08l-.76.38A11.77,11.77,0,0,1,25.55,23a8.4,8.4,0,0,1-.72-1.69l.71-.4a.79.79,0,0,1,.38-.08m0-.6h0a1.45,1.45,0,0,0-.66.15c-.21.11-.73.42-.73.42l-.26.69a8.17,8.17,0,0,0,.79,1.84,12.24,12.24,0,0,0,1.4,1.52l.66.1s.57-.27.79-.39a1.37,1.37,0,0,0,.69-.88,2.72,2.72,0,0,0-.49-2.07,2.85,2.85,0,0,0-2.19-1.38Z"/></g><g id="bas_ok_" data-name="bas ok **"><path class="cls-8" d="M26.31,24.93a2.6,2.6,0,0,1-1.93-1.26,2.38,2.38,0,0,1-.45-1.82,1,1,0,0,1,.52-.67,1.06,1.06,0,0,1,.5-.12,2.58,2.58,0,0,1,1.92,1.26,2.37,2.37,0,0,1,.45,1.83,1,1,0,0,1-.52.67A1.1,1.1,0,0,1,26.31,24.93Z"/><path class="cls-4" d="M25,21.36a2.32,2.32,0,0,1,1.68,1.13c.58.86.6,1.78,0,2.07a.86.86,0,0,1-.36.08,2.33,2.33,0,0,1-1.69-1.13c-.57-.86-.59-1.79,0-2.07a.77.77,0,0,1,.37-.08m0-.59a1.33,1.33,0,0,0-.63.15,1.31,1.31,0,0,0-.67.85,2.66,2.66,0,0,0,.49,2.06,2.85,2.85,0,0,0,2.17,1.4,1.33,1.33,0,0,0,.63-.15,1.31,1.31,0,0,0,.67-.86,2.7,2.7,0,0,0-.49-2.06A2.88,2.88,0,0,0,25,20.77Z"/></g><g id="bras_1_" data-name="bras 1  **"><path class="cls-9" d="M31.09,22.45c-.5,0-.84-.41-1.18-.8a2.46,2.46,0,0,0-.7-.65,3.46,3.46,0,0,1-1.75-1.57.69.69,0,0,1,.06-.54l7.79-9.63a.41.41,0,0,1,.3-.14l.13,0,4,1.44a.37.37,0,0,1,.23.24.38.38,0,0,1-.06.34L32,21.91a1.23,1.23,0,0,1-.93.54Z"/><path class="cls-4" d="M35.61,9.5l4,1.43L31.71,21.68a.84.84,0,0,1-.62.39c-.6,0-1-1.09-1.73-1.42-.92-.42-1.73-1.23-1.52-1.55l7.77-9.6m0-.76A.76.76,0,0,0,35,9l-7.77,9.6,0,.07a1,1,0,0,0-.11.85,3.68,3.68,0,0,0,1.95,1.8,2.4,2.4,0,0,1,.57.55,2,2,0,0,0,1.47.93,1.56,1.56,0,0,0,1.2-.65l0,0,7.92-10.75a.76.76,0,0,0,.11-.67.74.74,0,0,0-.47-.49l-4-1.43a.74.74,0,0,0-.25,0Z"/></g><path class="cls-10" d="M39,12.61a.38.38,0,0,1-.26-.11L34.7,8.43a.42.42,0,0,1-.11-.29.43.43,0,0,1,.15-.28L36.3,6.69a2.17,2.17,0,0,1,1.3-.39,4,4,0,0,1,2.81,1.32,3.32,3.32,0,0,1,1,2.49,1.87,1.87,0,0,1-.75,1.34l-1.41,1.08A.38.38,0,0,1,39,12.61Z"/><path class="cls-4" d="M37.6,6.68a3.67,3.67,0,0,1,2.54,1.2c1.08,1.15,1.22,2.61.3,3.26L39,12.23,35,8.17,36.52,7a1.81,1.81,0,0,1,1.08-.32m0-.76a2.6,2.6,0,0,0-1.52.46L34.52,7.56a.75.75,0,0,0-.3.55.72.72,0,0,0,.22.59l4.06,4.06a.76.76,0,0,0,1,.07l1.42-1.09a2.18,2.18,0,0,0,.88-1.6,3.65,3.65,0,0,0-1.1-2.78A4.43,4.43,0,0,0,37.6,5.92Z"/><path class="cls-11" d="M37.87,13a4,4,0,0,1-2.81-1.32,3.26,3.26,0,0,1-1-2.48,1.87,1.87,0,0,1,.75-1.35,2.24,2.24,0,0,1,1.3-.38,4,4,0,0,1,2.81,1.32,3.28,3.28,0,0,1,1,2.48,1.87,1.87,0,0,1-.75,1.35A2.26,2.26,0,0,1,37.87,13Z"/><path class="cls-4" d="M36.1,7.81A3.68,3.68,0,0,1,38.64,9c1.08,1.14,1.22,2.6.3,3.26a1.82,1.82,0,0,1-1.07.31,3.67,3.67,0,0,1-2.54-1.2c-1.08-1.14-1.22-2.6-.31-3.26a1.88,1.88,0,0,1,1.08-.32m0-.75h0a2.6,2.6,0,0,0-1.52.46,2.17,2.17,0,0,0-.9,1.61,3.65,3.65,0,0,0,1.1,2.78,4.41,4.41,0,0,0,3.09,1.44,2.6,2.6,0,0,0,1.52-.46,2.19,2.19,0,0,0,.9-1.61,3.63,3.63,0,0,0-1.1-2.78A4.43,4.43,0,0,0,36.1,7.06Z"/><path id="ok_2" data-name="ok ***" class="cls-12" d="M38.24,12.25c.56-.43.38-1.41-.4-2.19a2.09,2.09,0,0,0-2.48-.57l-.62.52,3,2.7Z"/><path class="cls-13" d="M53.83,19.65a.39.39,0,0,1-.18,0L40.07,12.16a.38.38,0,0,1-.19-.44A3,3,0,0,0,40,9.86a6.14,6.14,0,0,0-.85-1.19,2.16,2.16,0,0,1-.5-.71.4.4,0,0,1,.07-.35.54.54,0,0,1,.46-.17c.34,0,1,.1,1.06.1a.34.34,0,0,1,.14,0l14.15,8a.37.37,0,0,1,.19.39l-.54,3.33a.39.39,0,0,1-.2.28A.51.51,0,0,1,53.83,19.65Z"/><path class="cls-4" d="M39.2,7.82c.32,0,1,.09,1,.09l14.16,8-.54,3.33L40.25,11.83a3.64,3.64,0,0,0,.12-2.11A20.2,20.2,0,0,0,39,7.86s.06,0,.17,0m0-.75a.92.92,0,0,0-.76.31.77.77,0,0,0-.14.67,2.47,2.47,0,0,0,.58.87A5.23,5.23,0,0,1,39.67,10a2.75,2.75,0,0,1-.15,1.6.76.76,0,0,0,.36.88l13.59,7.45a.74.74,0,0,0,.36.09.75.75,0,0,0,.33-.07.78.78,0,0,0,.42-.56l.53-3.33a.74.74,0,0,0-.37-.78l-14.15-8a.71.71,0,0,0-.28-.09,11.08,11.08,0,0,0-1.11-.1Z"/><path class="cls-14" d="M52.62,22.1c-2.21,0-3.7-2.31-3.7-4.46S53,14,53.47,13.79l.13,0a.36.36,0,0,1,.27.12l3.24,3.45a.38.38,0,0,1,0,.44C56.92,18.22,54.74,22.1,52.62,22.1Z"/><path class="cls-15" d="M53.6,14.15l3.23,3.45s-2.25,4.12-4.21,4.12S49.3,19.6,49.3,17.64s4.3-3.49,4.3-3.49m0-.76a.8.8,0,0,0-.26,0c-.8.28-4.8,1.82-4.8,4.2s1.64,4.84,4.08,4.84,4.46-3.77,4.87-4.52a.76.76,0,0,0-.11-.88l-3.23-3.45a.79.79,0,0,0-.55-.24Z"/><g id="contour_robot" data-name="contour robot"><path class="cls-16" d="M37.68,6.66a3.06,3.06,0,0,1,2.39,1.2c6.07,3.39,12.43,7,12.43,7l-1.63,2.76s-9.71-5.21-10.89-6a2.19,2.19,0,0,1-1.75,1.09l-6.52,9V33a4.51,4.51,0,0,1,1.06.46h.28c2.17,0,3.82.58,4.29,1.68a1.94,1.94,0,0,1,.13.71v1.44c0,1.82-2.27,3.92-6.19,5.22a17.61,17.61,0,0,1-5.49.91c-2.29,0-4.06-.53-4.43-1.45-.07-.19,0-2.93,0-2.93a6.76,6.76,0,0,1,3.26-3.22s-.09-.71-.09-.84c0-.82.75-1.55,2.12-2V24.6a1.24,1.24,0,0,1-.33,0,2.18,2.18,0,0,1-1.56-.92c-.71-.9-.72-2-.24-2.23s1.2-.64,1.2-.64V19.39c0-.6,1.07-1.18,1.92-1.18a1.08,1.08,0,0,1,.73.23l6.33-7.86a1.73,1.73,0,0,1-.11-.37,1.71,1.71,0,0,1,.4-2h0L36.52,7a2,2,0,0,1,1.16-.34m0-.76h0a2.75,2.75,0,0,0-1.6.48L34.52,7.56l-.09.08a2.47,2.47,0,0,0-.58,2.77v0l-5.71,7.08a2.1,2.1,0,0,0-.51-.05,3.46,3.46,0,0,0-1.66.46,1.78,1.78,0,0,0-1,1.47v1c-.27.15-.6.33-.79.42a1.38,1.38,0,0,0-.69,1,3,3,0,0,0,.69,2.41,3.14,3.14,0,0,0,1.72,1.16v7.11c-1.37.55-2.15,1.46-2.12,2.52,0,.07,0,.23,0,.41a7.21,7.21,0,0,0-3.16,3.37.61.61,0,0,0,0,.24c-.08,2.9,0,3.08.05,3.23.69,1.74,3.82,1.93,5.13,1.93a18.65,18.65,0,0,0,5.73-.95c4.13-1.38,6.7-3.65,6.7-5.94V35.83a2.41,2.41,0,0,0-.19-1c-.57-1.36-2.39-2.13-5-2.13H33c-.17-.09-.33-.17-.5-.24V22l6.2-8.55a3.2,3.2,0,0,0,1.49-.78c2.41,1.4,10,5.47,10.35,5.67a.8.8,0,0,0,.36.09.76.76,0,0,0,.65-.38l1.63-2.76a.68.68,0,0,0,.08-.57.76.76,0,0,0-.35-.47c-.06,0-6.34-3.63-12.32-7A3.8,3.8,0,0,0,37.68,5.9Z"/></g><path id="ik_" data-name="ik **" class="cls-17" d="M35.28,12.07c-.78-.78-1-1.75-.4-2.18s1.65-.14,2.43.64,1,1.76.4,2.18S36.06,12.85,35.28,12.07Z"/><g id="Layer_181_copy_2" data-name="Layer 181 copy 2"><path class="cls-18" d="M50.34,22.2a.44.44,0,0,1-.29-.11.43.43,0,0,1-.11-.3c0-.14,0-.42,1.94-2a8.26,8.26,0,0,1,2.31-1.52.45.45,0,0,1,.29.12.41.41,0,0,1,.11.3c0,.13,0,.42-1.94,2A8,8,0,0,1,50.34,22.2Z"/><path class="cls-15" d="M54.19,18.67h0c.09.08-.72.84-1.8,1.71a10,10,0,0,1-2.07,1.44h0c-.09-.08.72-.85,1.8-1.71a9.55,9.55,0,0,1,2.07-1.44m0-.75h0c-.19,0-.56,0-2.54,1.6s-2.08,2-2.09,2.25a.81.81,0,0,0,.23.59.8.8,0,0,0,.55.22c.19,0,.56,0,2.54-1.6S55,19,55,18.73a.81.81,0,0,0-.23-.59.8.8,0,0,0-.55-.22Z"/><polygon class="cls-19" points="51.41 17.35 53.29 18.89 47.98 23.26 47.46 22.74 45.27 24.3 44.69 23.63 46.65 22 46.22 21.58 51.41 17.35"/><path class="cls-20" d="M49.7,23.31a.39.39,0,0,1-.27-.11l-2.68-2.8a.37.37,0,0,1-.1-.28.36.36,0,0,1,.12-.26l6.53-5.78a.36.36,0,0,1,.25-.1.39.39,0,0,1,.28.12l2.67,2.84a.41.41,0,0,1,.1.3l-.09.74a.21.21,0,0,1,0,.12,2.12,2.12,0,0,1-.65.62L54.2,19.91A.36.36,0,0,1,54,20a.38.38,0,0,1-.28-.12l-.39-.44-1.83,1.65.3.33a.38.38,0,0,1,.08.29.34.34,0,0,1-.15.26l-1.79,1.29A.36.36,0,0,1,49.7,23.31Z"/><path class="cls-15" d="M53.55,14.36l2.67,2.84-.08.74s-.07.16-.53.48S54,19.61,54,19.61l-.65-.72L51,21l.53.62L49.7,22.94,47,20.14l6.53-5.78m0-.75a.72.72,0,0,0-.49.19l-6.53,5.78a.72.72,0,0,0-.26.53.81.81,0,0,0,.21.55l2.68,2.8a.76.76,0,0,0,.54.23.79.79,0,0,0,.44-.14l1.79-1.29a.81.81,0,0,0,.31-.53.75.75,0,0,0-.18-.57L52,21.1,53.28,20l.14.16a.77.77,0,0,0,.56.25.73.73,0,0,0,.44-.15L56,19a2.25,2.25,0,0,0,.78-.77.6.6,0,0,0,.06-.23l.09-.75a.77.77,0,0,0-.2-.6L54.1,13.84a.78.78,0,0,0-.55-.23Z"/><path class="cls-15" d="M54.17,16,45,23.88l-.39-.38s8.14-7.24,8.68-7.76S54.17,16,54.17,16Z"/></g></g><path class="cls-21" d="M27.9,39.16l2.81,8s19.48-7.48,20.19-8a5.88,5.88,0,0,0,1-1.24l-2.21-4.08a3.54,3.54,0,0,0-3.13-2.21l-16.18,0a2,2,0,0,0-2,1.78l-.72,4A4,4,0,0,0,27.9,39.16Z"/><g id="convoyeur_copy_15" data-name="convoyeur copy 15"><g class="cls-22"><g class="cls-2"><path class="cls-23" d="M40.85,27.91a6.16,6.16,0,0,0-4.21-.19l-25.4,6.17c-2.58.47-5.48,1.2-5.4,4.16a5.74,5.74,0,0,0,.72,3c.58,1.08,3.38,5.78,4.46,7.56a4.87,4.87,0,0,0,2.73,2.5,3.59,3.59,0,0,1-2.17-3.21c-.08-3,3.07-6.21,7-7.26l28.11-8.05a6.16,6.16,0,0,1,4.21.19Z"/><path class="cls-24" d="M46.72,32.55c3.24-.86,5.92.4,6,2.83s-2.52,5.09-5.77,5.95l-28,10c-4,1-7.24-.5-7.31-3.45s3.07-6.21,7-7.26Z"/><path d="M46.72,32.55c3.24-.86,5.92.4,6,2.83s-2.52,5.09-5.77,5.95l-28,10c-4,1-7.24-.5-7.31-3.45s3.07-6.21,7-7.26ZM18.85,50l28.06-9.75c2.49-.66,4.46-2.69,4.41-4.54s-2.1-2.82-4.58-2.17l-28.1,8.28c-3,.8-5.43,3.29-5.37,5.55s2.56,3.44,5.58,2.63"/></g></g></g><g id="telecommandeOK_" data-name="telecommandeOK ***"><g id="TELE_COMMANDE_OK_copy_12" data-name="TELE COMMANDE OK copy 12"><path class="cls-25" d="M47.12,33.54l-16.55.07m0,0-.77,4.08,7.06,19.78,20.56-.06,1.78-3L47.12,33.54l-16.55.07"/><polygon class="cls-26" points="38.62 54.38 36.86 57.47 29.8 37.69 30.57 33.61 38.62 54.38"/><polygon class="cls-27" points="36.86 57.47 38.62 54.38 59.17 54.38 57.42 57.41 36.86 57.47"/><polygon class="cls-21" points="47.12 33.55 30.57 33.61 38.62 54.38 59.17 54.38 47.12 33.55"/><polyline class="cls-28" points="30.57 33.61 38.62 54.38 59.17 54.38"/><polygon points="51.89 45.9 47.86 45.95 44.03 39.27 48.06 39.22 51.89 45.9"/><polygon class="cls-29" points="50.46 45.15 48.23 45.18 47.48 43.89 49.7 43.86 50.46 45.15"/><polyline class="cls-30" points="32.54 34.48 34.3 37.52 47.9 37.48 46.16 34.45 32.54 34.48"/><path id="REFLET" class="cls-31" d="M45.5,37.34s1.75-.18.31-2.28c-6.41-.18-11.74.9-11.67,1.63L33,34.82s10.12.06,13-.07c1.9,3.29,1.41,2.52,1.41,2.52Z"/><g id="TEXTE"><g class="cls-32"><path class="cls-21" d="M36.41,40.64a1,1,0,0,1-.8-.49c-.18-.31,0-.5.25-.5a1,1,0,0,1,.8.48c.21.35,0,.5-.25.51Zm-.07-.13c.19,0,.25-.16.12-.37a.69.69,0,0,0-.53-.36c-.24,0-.23.19-.12.37a.7.7,0,0,0,.53.36Z"/><path class="cls-21" d="M36.79,39.93a3,3,0,0,0-.15-.26h.17l.1.15h0c0-.08.07-.17.25-.17a.72.72,0,0,1,.62.4l.33.56h-.2l-.31-.54a.5.5,0,0,0-.42-.28c-.13,0-.18.08-.16.17a.13.13,0,0,0,0,.08l.33.57h-.2Z"/><path class="cls-21" d="M40.33,40.62a1,1,0,0,1-.81-.48c-.18-.31-.05-.5.25-.5a1,1,0,0,1,.81.48c.2.35,0,.5-.25.5Zm-.07-.12c.19,0,.24-.16.12-.37a.72.72,0,0,0-.54-.36c-.23,0-.22.19-.12.37a.72.72,0,0,0,.54.36Z"/><path class="cls-21" d="M41.12,40.6l-.47-.81H40.5l-.07-.13h.15l0,0c-.08-.13-.11-.25-.06-.32a.22.22,0,0,1,.21-.09l.19,0,0,.14-.14,0c-.17,0-.14.12-.06.27l0,0H41l.07.13h-.26l.47.81Z"/><path class="cls-21" d="M41.78,40.6l-.47-.81h-.15l-.08-.13h.15l0,0c-.08-.13-.11-.25-.06-.33s.12-.08.21-.08l.18,0,.05.13-.14,0c-.16,0-.13.13-.05.28l0,0h.26l.08.13h-.26l.47.81Z"/></g><path d="M36.46,40.56a1,1,0,0,1-.81-.48c-.18-.32,0-.5.25-.5a1,1,0,0,1,.81.48c.2.35,0,.5-.25.5Zm-.07-.13c.19,0,.24-.15.11-.37A.69.69,0,0,0,36,39.7c-.23,0-.22.19-.12.37a.68.68,0,0,0,.54.36Z"/><path d="M36.84,39.85l-.16-.25h.17l.11.16h0c0-.09.08-.18.26-.18a.75.75,0,0,1,.62.4l.32.56H38L37.65,40a.5.5,0,0,0-.42-.28.14.14,0,0,0-.16.18.41.41,0,0,0,0,.08l.33.57h-.19Z"/><path d="M40.37,40.55a1,1,0,0,1-.8-.48c-.19-.32,0-.5.25-.5a.94.94,0,0,1,.8.48c.2.35,0,.5-.25.5Zm-.07-.13c.19,0,.24-.15.12-.37a.69.69,0,0,0-.54-.36c-.23,0-.22.19-.12.37a.69.69,0,0,0,.54.36Z"/><path d="M41.17,40.53l-.47-.82h-.15l-.08-.14h.15l0,0c-.07-.13-.11-.25-.06-.33a.25.25,0,0,1,.21-.09.84.84,0,0,1,.19,0l0,.13-.14,0c-.17,0-.14.13-.05.27l0,0h.26l.08.13h-.27l.48.82Z"/><path d="M41.82,40.52l-.47-.81H41.2l-.07-.13h.15l0,0c-.08-.13-.11-.26-.06-.33a.25.25,0,0,1,.21-.09.54.54,0,0,1,.19,0l0,.13-.14,0c-.17,0-.14.13-.06.27l0,0h.27l.07.13h-.26l.47.81Z"/></g><g id="Ecran_Text" data-name="Ecran Text"><text class="cls-33" transform="matrix(1, 0, 0.5, 0.86, 36.05, 36.83)">A<tspan class="cls-34" x="2.27" y="0">1</tspan><tspan class="cls-35" x="4.11" y="0" xml:space="preserve">   .</tspan></text><text class="cls-36" transform="matrix(1, 0, 0.5, 0.86, 40.31, 36.82)"><tspan xml:space="preserve"> .</tspan></text><text class="cls-36" transform="matrix(1, 0, 0.5, 0.86, 41.09, 36.82)"><tspan xml:space="preserve"> .</tspan></text></g><g id="Btn_ON_OFF_copy_14" data-name="Btn ON OFF copy 14"><path class="cls-37" d="M38.08,41.52a.42.42,0,0,0,.15.62l.82.56-.22.38A2.13,2.13,0,0,0,40,44.81c1,.67,2.16.8,2.63.29l.44-.76c.34-.61,0-1.47-1-2.14a2.8,2.8,0,0,0-2.21-.53L39,41.11c-.24-.16-.64-.16-.77.07Z"/><path class="cls-38" d="M40.41,44.05a2.13,2.13,0,0,1-1.13-1.73l-.82-.55a.47.47,0,0,1-.22-.5l-.14.26a.43.43,0,0,0,.14.62l.82.55-.22.39A2.1,2.1,0,0,0,40,44.81c1,.67,2.16.8,2.62.29l.44-.76C42.57,44.85,41.39,44.72,40.41,44.05Z"/><g id="BTN_On_Off" data-name="BTN   On Off"><path d="M42.09,44.64a1.9,1.9,0,0,1-.49-.06c-.21.33-.49.72-.83.65a4,4,0,0,0,.64.17l.31,0S42,44.76,42.09,44.64Z"/><polygon points="40.17 44.95 39.82 44.73 40.27 43.95 40.62 44.18 40.17 44.95"/><polygon points="39.69 44.59 39.53 44.47 39.98 43.7 40.14 43.81 39.69 44.59"/></g><path class="cls-39" d="M42.09,42.21a2.87,2.87,0,0,0-2.22-.54l-.82-.55a.58.58,0,0,0-.74,0,.43.43,0,0,0,.15.63l.82.55a2.13,2.13,0,0,0,1.13,1.73c1,.67,2.16.8,2.62.29S43.07,42.88,42.09,42.21Z"/></g><g id="BOUTON_" data-name="BOUTON  **"><path class="cls-40" d="M51.27,51.67c-1.47-.84-2.27-2.22-1.78-3.07s2.08-.86,3.55,0,2.27,2.22,1.78,3.07S52.74,52.51,51.27,51.67Z"/><path class="cls-41" d="M53.76,47.14c-1.07-.61-2.21-.63-2.55,0l-1.14,2c-.34.59.26,1.56,1.33,2.18s2.22.63,2.55.05l1.14-2C55.43,48.73,54.83,47.76,53.76,47.14Z"/><path class="cls-23" d="M54.16,49.62A3.2,3.2,0,0,1,53,49.34c-.57.75-1.34,1.5-2,1.39l.12.1.31.19a3.7,3.7,0,0,0,.77.34l0,0,.33.07.15,0a1.91,1.91,0,0,0,.28,0C53.35,51,53.92,50,54.16,49.62Z"/><path class="cls-42" d="M52.66,49.07c-1-.59-1.61-1.47-1.32-2s1.35-.44,2.37.15,1.6,1.46,1.32,2S53.68,49.65,52.66,49.07Z"/><path class="cls-43" d="M53.76,47.14c-1.07-.61-2.21-.63-2.55,0l-1.14,2c-.34.59.26,1.56,1.33,2.18s2.22.63,2.55.05l1.14-2C55.43,48.73,54.83,47.76,53.76,47.14Z"/><path class="cls-40" d="M40.7,51.7c-1.47-.84-2.26-2.22-1.77-3.07s2.08-.86,3.55,0,2.26,2.22,1.77,3.07S42.17,52.54,40.7,51.7Z"/><path class="cls-44" d="M43.2,47.17c-1.07-.61-2.22-.63-2.55-.05l-1.14,2c-.34.59.26,1.56,1.33,2.18s2.21.64,2.55.05l1.14-2C44.87,48.76,44.27,47.79,43.2,47.17Z"/><path class="cls-45" d="M43.6,49.69a3,3,0,0,1-1.17-.27c-.57.75-1.34,1.5-2,1.39l.12.09a3.28,3.28,0,0,0,.31.2,3.7,3.7,0,0,0,.77.34h0a1.67,1.67,0,0,0,.32.08l.15,0a1.91,1.91,0,0,0,.28,0C42.79,51,43.36,50.12,43.6,49.69Z"/><path class="cls-46" d="M42.1,49.12c-1-.58-1.61-1.46-1.32-2s1.35-.43,2.37.15,1.6,1.47,1.32,2S43.12,49.7,42.1,49.12Z"/><path class="cls-47" d="M43.2,47.17c-1.07-.61-2.22-.63-2.55-.05l-1.14,2c-.34.59.26,1.56,1.33,2.18s2.21.64,2.55.05l1.14-2C44.87,48.76,44.27,47.79,43.2,47.17Z"/></g></g></g><g id="PLAY_Ok_" data-name="PLAY  Ok ***"><path class="cls-48" d="M18.33,39.71a7.39,7.39,0,1,0,7.39,7.39A7.39,7.39,0,0,0,18.33,39.71Z"/><path class="cls-48" d="M18.24,39.88a7.39,7.39,0,1,0,7.39,7.4A7.4,7.4,0,0,0,18.24,39.88Z"/><path class="cls-49" d="M18.24,39.88a7.39,7.39,0,1,0,7.39,7.4A7.4,7.4,0,0,0,18.24,39.88Zm0,13a5.63,5.63,0,1,1,5.63-5.62A5.64,5.64,0,0,1,18.24,52.9Z"/><polygon points="16.11 44.18 22.03 47.37 16.11 50.52 16.11 44.18"/></g><g id="RADIO_OK_" data-name="RADIO OK ***"><path id="radio" class="cls-50" d="M9.87,20.37A1.79,1.79,0,1,1,10,17.84,1.79,1.79,0,0,1,9.87,20.37Zm2.88-7.58-2,1.83a6.32,6.32,0,0,1,1.79,4.62,6.46,6.46,0,0,1-2.13,4.4h0l1.82,2a8.86,8.86,0,0,0,3-6.25A9,9,0,0,0,12.75,12.79Zm3.33-3.11-1.95,1.83a11.19,11.19,0,0,1-.47,15.58l1.83,2a13.81,13.81,0,0,0,4.25-9.23A13.6,13.6,0,0,0,16.08,9.68Z"/><path id="radio-2" data-name="radio" d="M9.87,20.37A1.79,1.79,0,1,1,10,17.84,1.79,1.79,0,0,1,9.87,20.37Zm2.88-7.58-2,1.83a6.32,6.32,0,0,1,1.79,4.62,6.46,6.46,0,0,1-2.13,4.4h0l1.82,2a8.86,8.86,0,0,0,3-6.25A9,9,0,0,0,12.75,12.79Zm3.33-3.11-1.95,1.83a11.19,11.19,0,0,1-.47,15.58l1.83,2a13.81,13.81,0,0,0,4.25-9.23A13.6,13.6,0,0,0,16.08,9.68Z"/></g></g></g></svg>