<svg id="Layer_1" data-name="Layer 1" xmlns="http://www.w3.org/2000/svg" xmlns:xlink="http://www.w3.org/1999/xlink" viewBox="0 0 64 64"><defs><style>.cls-1,.cls-29,.cls-42,.cls-5,.cls-8{fill:none;}.cls-1,.cls-17,.cls-24,.cls-26,.cls-27,.cls-29,.cls-30,.cls-31,.cls-32,.cls-34,.cls-35,.cls-37,.cls-39,.cls-40,.cls-41{stroke:#00415f;}.cls-1,.cls-17,.cls-24,.cls-26,.cls-27,.cls-30,.cls-31,.cls-32,.cls-34,.cls-35,.cls-37,.cls-39,.cls-40,.cls-41,.cls-42,.cls-45,.cls-5,.cls-6,.cls-8{stroke-linecap:round;}.cls-1,.cls-17,.cls-24,.cls-26,.cls-27,.cls-30,.cls-31,.cls-32,.cls-34,.cls-35,.cls-37,.cls-39,.cls-40,.cls-41,.cls-42,.cls-45,.cls-6,.cls-8{stroke-linejoin:round;}.cls-2{fill:url(#linear-gradient);}.cls-3{fill:url(#linear-gradient-2);}.cls-4{fill:url(#linear-gradient-3);}.cls-5,.cls-6,.cls-8{stroke:#6d6d6d;}.cls-5{stroke-linejoin:bevel;}.cls-6{fill:url(#linear-gradient-4);}.cls-7{fill:url(#linear-gradient-5);}.cls-9{fill:url(#linear-gradient-6);}.cls-10{fill:#6d6d6d;}.cls-11{fill:url(#linear-gradient-7);}.cls-12{fill:url(#linear-gradient-8);}.cls-13{fill:url(#linear-gradient-9);}.cls-14{fill:url(#linear-gradient-10);}.cls-15{fill:#00415f;}.cls-16{opacity:0.5;}.cls-17{fill:url(#linear-gradient-11);}.cls-18{fill:url(#linear-gradient-12);}.cls-19{fill:url(#linear-gradient-13);}.cls-20{fill:url(#linear-gradient-14);}.cls-21{fill:url(#linear-gradient-15);}.cls-22{fill:url(#linear-gradient-16);}.cls-23{fill:url(#linear-gradient-17);}.cls-24{fill:url(#linear-gradient-18);}.cls-25{fill:url(#linear-gradient-19);}.cls-26{fill:url(#linear-gradient-20);}.cls-27{fill:url(#linear-gradient-21);}.cls-28{fill:url(#linear-gradient-22);}.cls-29{stroke-miterlimit:10;}.cls-30{fill:url(#linear-gradient-23);}.cls-31{fill:url(#linear-gradient-24);}.cls-32{fill:url(#linear-gradient-25);}.cls-33{fill:url(#linear-gradient-26);}.cls-34{fill:url(#linear-gradient-27);}.cls-35{fill:url(#linear-gradient-28);}.cls-36{fill:url(#linear-gradient-29);}.cls-37{fill:url(#linear-gradient-30);}.cls-38{fill:url(#linear-gradient-31);}.cls-39{fill:url(#linear-gradient-32);}.cls-40{fill:url(#linear-gradient-33);}.cls-41{fill:url(#linear-gradient-34);}.cls-42{stroke:#343434;}.cls-43{fill:url(#linear-gradient-35);}.cls-44{fill:#fff;}.cls-45{stroke:#2d2d2d;fill:url(#linear-gradient-36);}.cls-46{fill:#2d2d2d;}</style><linearGradient id="linear-gradient" x1="47.51" y1="22.69" x2="39.03" y2="30.14" gradientUnits="userSpaceOnUse"><stop offset="0" stop-color="#fcfcfc"/><stop offset="1" stop-color="#666"/></linearGradient><linearGradient id="linear-gradient-2" x1="49.78" y1="22.28" x2="26.16" y2="30.12" gradientUnits="userSpaceOnUse"><stop offset="0" stop-color="#fcfcfc"/><stop offset="0.21" stop-color="#f4f4f4"/><stop offset="0.53" stop-color="#dfdfdf"/><stop offset="0.92" stop-color="#bbb"/><stop offset="1" stop-color="#b3b3b3"/></linearGradient><linearGradient id="linear-gradient-3" x1="59.14" y1="18.22" x2="39.47" y2="39.59" gradientUnits="userSpaceOnUse"><stop offset="0" stop-color="#fcfcfc"/><stop offset="1" stop-color="#919191"/></linearGradient><linearGradient id="linear-gradient-4" x1="25.83" y1="48.12" x2="44.2" y2="48.12" gradientUnits="userSpaceOnUse"><stop offset="0.01" stop-color="#4d4d4d"/><stop offset="1" stop-color="#c7c7c9"/></linearGradient><linearGradient id="linear-gradient-5" x1="45.18" y1="38.65" x2="23.08" y2="52.3" gradientUnits="userSpaceOnUse"><stop offset="0" stop-color="#f0f0f0"/><stop offset="1" stop-color="#b3b3b3"/></linearGradient><linearGradient id="linear-gradient-6" x1="40.23" y1="47.65" x2="43.14" y2="47.65" xlink:href="#linear-gradient-5"/><linearGradient id="linear-gradient-7" x1="28.76" y1="40.41" x2="31.13" y2="40.41" xlink:href="#linear-gradient-5"/><linearGradient id="linear-gradient-8" x1="28.5" y1="44.72" x2="40.08" y2="44.72" xlink:href="#linear-gradient-4"/><linearGradient id="linear-gradient-9" x1="29.68" y1="41.97" x2="41.26" y2="41.97" xlink:href="#linear-gradient-5"/><linearGradient id="linear-gradient-10" x1="38.55" y1="36.97" x2="32.09" y2="36.97" gradientUnits="userSpaceOnUse"><stop offset="0" stop-color="#92d5ee"/><stop offset="0.01" stop-color="#91d4ed"/><stop offset="1" stop-color="#3c7e96"/></linearGradient><linearGradient id="linear-gradient-11" x1="36.38" y1="28.53" x2="33.27" y2="33" xlink:href="#linear-gradient-10"/><linearGradient id="linear-gradient-12" x1="32.7" y1="23.93" x2="27.95" y2="28.42" xlink:href="#linear-gradient-10"/><linearGradient id="linear-gradient-13" x1="26.65" y1="15.43" x2="22.61" y2="19.04" xlink:href="#linear-gradient-10"/><linearGradient id="linear-gradient-14" x1="28.79" y1="16.08" x2="14.33" y2="29.26" xlink:href="#linear-gradient-10"/><linearGradient id="linear-gradient-15" x1="23.12" y1="20.1" x2="26.25" y2="20.1" xlink:href="#linear-gradient-10"/><linearGradient id="linear-gradient-16" x1="14.61" y1="24.12" x2="19.25" y2="28.76" xlink:href="#linear-gradient-10"/><linearGradient id="linear-gradient-17" x1="7.35" y1="32.84" x2="16.07" y2="32.84" xlink:href="#linear-gradient-10"/><linearGradient id="linear-gradient-18" x1="26.1" y1="20.04" x2="19.51" y2="25.15" xlink:href="#linear-gradient-10"/><linearGradient id="linear-gradient-19" x1="24.16" y1="15.23" x2="10.66" y2="34.03" xlink:href="#linear-gradient-10"/><linearGradient id="linear-gradient-20" x1="30.5" y1="33.43" x2="33.13" y2="33.43" xlink:href="#linear-gradient-10"/><linearGradient id="linear-gradient-21" x1="33.14" y1="32.94" x2="38.3" y2="32.94" xlink:href="#linear-gradient-10"/><linearGradient id="linear-gradient-22" x1="34.79" y1="26.53" x2="30.7" y2="31.83" xlink:href="#linear-gradient-10"/><linearGradient id="linear-gradient-23" x1="36.07" y1="33.26" x2="38.59" y2="33.26" xlink:href="#linear-gradient-10"/><linearGradient id="linear-gradient-24" x1="36.6" y1="32.04" x2="39.09" y2="32.04" xlink:href="#linear-gradient-10"/><linearGradient id="linear-gradient-25" x1="39.63" y1="31.88" x2="38.16" y2="35.74" xlink:href="#linear-gradient-10"/><linearGradient id="linear-gradient-26" x1="17.15" y1="41.39" x2="25.37" y2="41.39" xlink:href="#linear-gradient-10"/><linearGradient id="linear-gradient-27" x1="17.64" y1="40.45" x2="25.37" y2="40.45" xlink:href="#linear-gradient-10"/><linearGradient id="linear-gradient-28" x1="22.03" y1="23.6" x2="24.14" y2="23.6" gradientUnits="userSpaceOnUse"><stop offset="0" stop-color="#3c7e96"/><stop offset="0.99" stop-color="#91d4ed"/><stop offset="1" stop-color="#92d5ee"/></linearGradient><linearGradient id="linear-gradient-29" x1="23.84" y1="28.36" x2="27.81" y2="20.63" xlink:href="#linear-gradient-28"/><linearGradient id="linear-gradient-30" x1="25.84" y1="25.07" x2="30.57" y2="25.07" xlink:href="#linear-gradient-10"/><linearGradient id="linear-gradient-31" x1="21.29" y1="32.66" x2="25.98" y2="34.47" xlink:href="#linear-gradient-10"/><linearGradient id="linear-gradient-32" x1="27.12" y1="25.49" x2="30.88" y2="25.49" xlink:href="#linear-gradient-28"/><linearGradient id="linear-gradient-33" x1="31.64" y1="24.52" x2="19.51" y2="33.73" xlink:href="#linear-gradient-10"/><linearGradient id="linear-gradient-34" x1="39.42" y1="33.88" x2="40.75" y2="33.88" xlink:href="#linear-gradient-10"/><linearGradient id="linear-gradient-35" x1="60.09" y1="17.73" x2="43.77" y2="32.52" xlink:href="#linear-gradient-10"/><linearGradient id="linear-gradient-36" x1="45.85" y1="32.18" x2="62.99" y2="58.8" gradientUnits="userSpaceOnUse"><stop offset="0" stop-color="#fff"/><stop offset="1" stop-color="#bfbfbf"/></linearGradient></defs><g id="DELMIA___30-DELMIA_Realistic_Robot_Simulation_II" data-name="DELMIA _ 30-DELMIA Realistic Robot Simulation II"><path class="cls-1" d="M49.68,36.91c3.18,2,1.67,5.6-2.12,5.15s-3.79,1.06-5.45,2.27"/><polygon class="cls-2" points="40 37.97 39.97 24.92 38.86 21.61 38.18 35.24 40 37.97"/><polygon class="cls-3" points="38.03 22 39.03 26 51.16 26 49.16 22 38.03 22"/><rect class="cls-4" x="40" y="26" width="12" height="13"/><line class="cls-5" x1="40.5" y1="25.5" x2="40.5" y2="31.5"/><polyline class="cls-5" points="51.5 24.5 39.53 24.5 38.4 21.43"/><path class="cls-6" d="M26.13,43.67c-.9,2.44,2.41,5.92,7.39,7.77s9.77,1.37,10.67-1.06a10.07,10.07,0,0,0,.34-1.54"/><path class="cls-7" d="M44.78,47.89c.91-2.45-2.42-6-7.45-7.82s-9.83-1.39-10.74,1.07S29,47.09,34,49,43.87,50.35,44.78,47.89Z"/><path class="cls-8" d="M26.59,41.14C25.68,43.59,29,47.09,34,49s9.83,1.39,10.74-1.07"/><path class="cls-9" d="M41.89,48.32l-.27,0c-.87-.08-1.41-.53-1.39-.79s.48-.52,1.25-.52l.27,0c.87.08,1.41.53,1.39.79S42.66,48.32,41.89,48.32Z"/><path class="cls-10" d="M41.48,47.49h.22a2.07,2.07,0,0,1,.77.23,1.72,1.72,0,0,1-.58.09l-.22,0a1.92,1.92,0,0,1-.77-.22,1.72,1.72,0,0,1,.58-.09m0-1c-.94,0-1.69.41-1.74,1s.76,1.23,1.83,1.33l.32,0c.94,0,1.69-.41,1.75-1s-.77-1.23-1.84-1.33l-.32,0Z"/><path class="cls-11" d="M30,40.91c-.74,0-1.19-.33-1.19-.5s.46-.5,1.19-.5,1.18.33,1.18.5S30.68,40.91,30,40.91Z"/><path class="cls-10" d="M30,39.41c-.94,0-1.69.45-1.69,1s.75,1,1.69,1,1.68-.45,1.68-1-.75-1-1.68-1Z"/><path class="cls-12" d="M34.14,47.58c-3.21-.07-5.68-1.61-5.64-3.5V42.36a.51.51,0,0,1,.15-.36.5.5,0,0,1,.35-.14l10.59.24a.48.48,0,0,1,.36.16.53.53,0,0,1,.13.38l-.15,1.73c0,1.82-2.43,3.21-5.56,3.21Z"/><path class="cls-10" d="M29,42.36l10.58.24-.15,1.73c0,1.54-2.28,2.75-5.06,2.75h-.22c-2.88-.06-5.19-1.4-5.15-3V42.36m0-1a1,1,0,0,0-1,1v1.73c-.05,2.19,2.58,3.91,6.13,4h.24c3.39,0,6-1.58,6.06-3.7l.15-1.69a1,1,0,0,0-.25-.76,1,1,0,0,0-.73-.33L29,41.36Z"/><path class="cls-13" d="M35.39,45.38c-3.25-.07-5.76-1.63-5.71-3.54s2.46-3.29,5.63-3.29h.23a8.57,8.57,0,0,1,4,1,3,3,0,0,1,1.75,2.54c0,1.87-2.47,3.28-5.64,3.28Z"/><path class="cls-10" d="M35.31,39.05h.22c2.92.07,5.26,1.43,5.23,3s-2.32,2.79-5.14,2.79H35.4c-2.92-.06-5.26-1.42-5.22-3s2.31-2.8,5.13-2.8m0-1c-3.45,0-6.08,1.63-6.13,3.78a3.44,3.44,0,0,0,2,3,8.91,8.91,0,0,0,4.2,1.07h.24c3.45,0,6.09-1.62,6.14-3.77a3.46,3.46,0,0,0-2-3,8.82,8.82,0,0,0-4.2-1.07Z"/><path class="cls-14" d="M35.77,43.67c-1.75,0-3.06-.77-3.06-1.79l.14-7.4A.47.47,0,0,1,33,34.1l2.06-1.66c.07-.06,1.6-1.24,2.47-1.77a2.1,2.1,0,0,1,1-.39.7.7,0,0,1,.66.37.69.69,0,0,1,0,.24l-.5,11C38.83,42.9,37.51,43.67,35.77,43.67Z"/><path class="cls-15" d="M38.62,30.78c.17,0,.21.09.21.09l-.5,11c0,.71-1.15,1.29-2.56,1.29s-2.56-.58-2.56-1.29l.14-7.39,2.06-1.66S37,31.62,37.83,31.1a1.64,1.64,0,0,1,.79-.32m0-1a2.52,2.52,0,0,0-1.32.47c-.88.54-2.43,1.74-2.5,1.79l-2.08,1.67a1,1,0,0,0-.37.76l-.14,7.39c0,1.35,1.5,2.31,3.56,2.31s3.56-1,3.56-2.29l.5-11a1.1,1.1,0,0,0-.1-.47,1.19,1.19,0,0,0-1.11-.66Z"/><g class="cls-16"><path class="cls-17" d="M37.87,29.62l-2.22-1s-4.06-.46-4.06,3.69c0,1.76.76,2.14.76,2.14l2.15,1.31V32.31S36,29.54,37.87,29.62Z"/><path class="cls-18" d="M33.25,33.74a.82.82,0,0,1-.31-.07.38.38,0,0,1-.13-.09l-9-9.21a.5.5,0,0,1-.06-.62l3.45-5.29a.52.52,0,0,1,.38-.23h0a.52.52,0,0,1,.38.17l9,10.36c.18.22.58.72-1.38,2.95C34.55,33.05,33.77,33.74,33.25,33.74Z"/><path class="cls-15" d="M27.57,18.73l9,10.35c.31.39-1.38,2.3-1.38,2.3s-1.38,1.86-1.91,1.86h-.08l-9-9.21,3.45-5.29m0-1H27.5a1,1,0,0,0-.77.46l-3.45,5.29a1,1,0,0,0,.12,1.24l9.05,9.21a1,1,0,0,0,.27.19,1.18,1.18,0,0,0,.53.12c.31,0,1,0,2.69-2.23,1.83-2.09,1.88-2.93,1.38-3.55l-9-10.38a1,1,0,0,0-.75-.35Z"/><path class="cls-19" d="M22.81,24.45a.65.65,0,0,1-.19,0l-2.4-1a3.06,3.06,0,0,1-1.8-2.26,5.94,5.94,0,0,1,.29-3.43c.77-2,2.42-3.38,4-3.38a2.75,2.75,0,0,1,.95.17l2.64,1.09a.53.53,0,0,1,.27.28.5.5,0,0,1,0,.38l-3.29,7.9a.53.53,0,0,1-.28.27A.58.58,0,0,1,22.81,24.45Z"/><path class="cls-15" d="M22.71,14.82a2,2,0,0,1,.77.14l2.63,1.09L22.81,24l-2.39-1c-1.53-.59-2.09-2.85-1.24-5.05.71-1.84,2.18-3.06,3.53-3.06m0-1h0c-1.81,0-3.61,1.49-4.46,3.7a6.29,6.29,0,0,0-.31,3.73,3.58,3.58,0,0,0,2.12,2.61l2.36,1a1.09,1.09,0,0,0,.39.08,1,1,0,0,0,.93-.62L27,16.43a1,1,0,0,0,0-.77,1,1,0,0,0-.55-.54L23.87,14a3.18,3.18,0,0,0-1.16-.22Z"/><path class="cls-20" d="M23.72,24.62a2.74,2.74,0,0,1-.94-.17A3.1,3.1,0,0,1,21,22.18a5.87,5.87,0,0,1,.3-3.43c.76-2,2.41-3.38,4-3.38a2.53,2.53,0,0,1,.94.18c1.79.68,2.47,3.24,1.52,5.69-.76,2-2.41,3.38-4,3.38Z"/><path class="cls-15" d="M25.26,15.87A2.18,2.18,0,0,1,26,16c1.53.59,2.08,2.85,1.24,5-.71,1.85-2.18,3.06-3.53,3.06A2,2,0,0,1,23,24c-1.53-.59-2.09-2.85-1.24-5.05.71-1.84,2.18-3.06,3.54-3.06m0-1c-1.82,0-3.62,1.49-4.47,3.7a6.37,6.37,0,0,0-.31,3.73,3.62,3.62,0,0,0,2.12,2.62,3.28,3.28,0,0,0,1.13.2c1.81,0,3.61-1.48,4.46-3.7,1.06-2.75.27-5.54-1.81-6.34a3,3,0,0,0-1.12-.21Z"/><path class="cls-21" d="M23.73,22.31a1.16,1.16,0,0,1-.57-.92,3.64,3.64,0,0,1,.27-1.88c.5-1.19,1.35-1.81,1.93-1.81a.64.64,0,0,1,.28.05l.61.3-2,4.46Z"/><path class="cls-15" d="M25.36,18.2h.08l.16.07L24,21.87h0a.76.76,0,0,1-.28-.55,3.05,3.05,0,0,1,.24-1.61c.43-1,1.13-1.5,1.47-1.5m0-1A3.06,3.06,0,0,0,23,19.32c-.63,1.51-.37,3.07.58,3.46l.94.37,2.42-5.34-1.07-.52a1.28,1.28,0,0,0-.48-.09Z"/><path class="cls-22" d="M13.93,33.71a.52.52,0,0,1-.33-.12l-3.14-2.68a.49.49,0,0,1-.07-.68l8.43-11c.51-.68.76-.68.9-.68a.57.57,0,0,1,.48.3,3.67,3.67,0,0,1,.18,1.28,9.09,9.09,0,0,0,.31,2.23,5.27,5.27,0,0,0,1.66,2.21.49.49,0,0,1,.2.37.45.45,0,0,1-.14.39l-8.13,8.28A.47.47,0,0,1,13.93,33.71Z"/><path class="cls-15" d="M19.72,19a.05.05,0,0,1,0,0c.17.34.07,2.37.46,3.45a5.8,5.8,0,0,0,1.84,2.45l-8.13,8.28-3.15-2.68,8.44-11s.36-.49.5-.49m0-1c-.45,0-.83.26-1.3.89L10,29.92a1,1,0,0,0,.14,1.37L13.28,34a1,1,0,0,0,.65.24,1,1,0,0,0,.71-.3l8.13-8.28a1,1,0,0,0,.28-.79,1,1,0,0,0-.41-.72,4.88,4.88,0,0,1-1.48-2,9.19,9.19,0,0,1-.28-2.09,4,4,0,0,0-.23-1.47,1.08,1.08,0,0,0-.93-.58Z"/><path class="cls-23" d="M14.31,36.81a.48.48,0,0,1-.33-.13L7.52,31.11a.49.49,0,0,1-.17-.35.51.51,0,0,1,.13-.37l1.26-1.34a.58.58,0,0,1,.39-.17c.53,0,2.33,1.45,3.74,2.67,3.15,2.71,3.19,3.19,3.2,3.35a.56.56,0,0,1-.13.39l-1.26,1.36A.54.54,0,0,1,14.31,36.81Z"/><path class="cls-15" d="M9.13,29.38a16.87,16.87,0,0,1,3.42,2.55c1.78,1.54,3.13,2.89,3,3l-1.25,1.35L7.85,30.74,9.1,29.39h0m0-1a1.08,1.08,0,0,0-.79.36L7.12,30.05a1,1,0,0,0-.27.74,1,1,0,0,0,.35.7l6.46,5.57a1,1,0,0,0,.65.25A1,1,0,0,0,15,37l1.26-1.35a1.05,1.05,0,0,0,.27-.78c0-.33-.06-.84-3.37-3.69s-3.78-2.79-4.07-2.79Z"/><path class="cls-24" d="M27.35,21.12c.63-1.52.38-3.07-.57-3.47s-2.24.52-2.87,2-.38,3.07.58,3.47S26.72,22.63,27.35,21.12Z"/><path class="cls-25" d="M13.94,37.21c-.53,0-2.33-1.45-3.74-2.67C7.05,31.83,7,31.35,7,31.2a.54.54,0,0,1,.13-.39.57.57,0,0,1,.41-.19c.53,0,2.32,1.45,3.74,2.67.87.75,1.67,1.49,2.25,2.07.77.78,1.19,1.24.82,1.67A.59.59,0,0,1,13.94,37.21Z"/><path class="cls-15" d="M7.54,31.12A17.73,17.73,0,0,1,11,33.67c1.79,1.54,3.14,2.9,3,3h0a16.84,16.84,0,0,1-3.41-2.54c-1.79-1.54-3.14-2.9-3-3h0m0-1a1,1,0,0,0-1,1.11c0,.34.06.84,3.37,3.69s3.78,2.79,4.07,2.79a1,1,0,0,0,.79-.36c.69-.8-.13-1.62-.85-2.34s-1.4-1.34-2.28-2.1c-3.24-2.79-3.77-2.79-4.06-2.79Z"/></g><path class="cls-26" d="M33.13,34.35,31,34a.57.57,0,0,1-.47-.58V32.5"/><path class="cls-27" d="M35.25,29.38c-.53-.13-1.33,1.23-1.8,3.05s-.41,3.4.11,3.54c0,0,.1-.09.82-.09a7.44,7.44,0,0,1,2.12.63l0-3L38.3,30Z"/><path class="cls-28" d="M30.63,23.55,36.76,30s.22.39-.29,1.66-1.24,3.25-2.06,3.25c-.48,0-6.56-5.67-6.56-5.67Z"/><path class="cls-29" d="M31.06,32.19l3.35,2.75c.82,0,1.56-2,2.06-3.25s.29-1.66.29-1.66l-1.09-1"/><path class="cls-30" d="M36.55,33.49s2.11-2,2-2.67c-.05-.48-.19-.79-.41-.85-.52-.13-1.33,1.23-1.79,3.05s-.42,3.41.11,3.54Z"/><path class="cls-31" d="M38,30.6l1.11.25a18.92,18.92,0,0,1-2.49,2.64S37.19,30.82,38,30.6Z"/><path class="cls-32" d="M40.57,32,39,31.78s-1.75,1.62-1.75,2.76c0,.5.76.9.76.9l1.59.33Z"/><path class="cls-33" d="M17.15,41c-.09.28,1.57,1,3.71,1.72s3.93,1,4,.7l.49-1.77-7.73-2.43Z"/><path class="cls-34" d="M25.37,41.67c.06-.2-1.62-.91-3.75-1.58s-3.92-1.05-4-.85,1.61.9,3.75,1.57S25.31,41.86,25.37,41.67Z"/><path class="cls-35" d="M24.14,20.77c-.67.08-1.46,1.12-1.87,2.53S22,26,22.5,26.43"/><path class="cls-36" d="M23.63,28.26c-1.12-.32-1.48-2.47-.81-4.8s2.13-3.95,3.25-3.62l3.44,1-2.42,8.39Z"/><path class="cls-37" d="M26.18,24.48c-.67,2.33-.31,4.47.81,4.8s2.57-1.3,3.24-3.63.31-4.47-.81-4.79S26.85,22.15,26.18,24.48Z"/><path class="cls-38" d="M24.32,25.94c.46.1,1.55,2.9,2.44,3.23l.66.2L23.17,41s-1.41-.29-2.13-.53a7.56,7.56,0,0,1-1.45-.64S23.28,27,23.66,26.4,24.32,25.94,24.32,25.94Z"/><path class="cls-39" d="M27.86,28.37c-.75-.22-1-1.76-.48-3.45s1.49-2.87,2.25-2.65l1.25.4-1.67,6.08Z"/><path class="cls-40" d="M28.73,25.3c-.49,1.69-.27,3.23.48,3.45s1.76-1,2.24-2.66.28-3.22-.48-3.44S29.22,23.62,28.73,25.3Z"/><path class="cls-41" d="M40.54,34c.27-1,.28-1.94,0-2s-.68.73-.94,1.77-.28,1.93,0,2S40.28,35,40.54,34Z"/><path class="cls-42" d="M51.5,38.5H39.43l-.17,1.7a2.54,2.54,0,0,1,1.72,2c3,1.89,4.66,4.33,4,6.17h0a2.85,2.85,0,0,1-.35,2c-1,2.71-5.27,3.31-10.7,1.25s-8.39-4.73-7.41-7.44A10.46,10.46,0,0,0,27,42.61a2.41,2.41,0,0,1,.14-1c.63-1.74,3.18-2.48,6.37-2.11l.07-3.6a4.24,4.24,0,0,1-.06-1.18L32,34.44a.57.57,0,0,1-.47-.58V32.68c-1.59-1.45-3.15-2.94-3.15-2.94l.06-.12a1.31,1.31,0,0,1-.76.14l.27.08L23.87,41.13c1.24.46,2.08.86,2,1l-.48,1.77c-.09.29-1.86,0-3.95-.7s-3.73-1.44-3.64-1.72l.48-1.78c0-.13.84,0,2,.3.41-1.44,2.4-8.48,3.39-11.63a2.83,2.83,0,0,1-.58-1.57l0,.09c-.51-.42-.62-1.72-.22-3.13s1.18-2.45,1.83-2.53l0,.09c.62-.78,1.31-1.2,1.91-1l3.38,1v0A2,2,0,0,1,31,23l.26.09a.44.44,0,0,1,.2,0c.52.15.78,1,.71,2l4.57,4.93,1.81.26V21.5H49.7l1.8,3.76Z"/><path class="cls-29" d="M23,27.72s.67-2.59,1.35-1.95A39.86,39.86,0,0,1,26.85,29"/><rect class="cls-43" x="42.5" y="27.5" width="7" height="6"/><path class="cls-15" d="M49,28v5H43V28h6m1-1H42v7h8V27Z"/><rect class="cls-44" x="43" y="29" width="5" height="1"/><rect class="cls-44" x="43" y="31" width="4" height="1"/><rect class="cls-10" x="47" y="34" width="2" height="3"/><polygon class="cls-45" points="47.5 47.97 57.5 52.6 57.5 37.06 47.5 32.51 47.5 47.97"/><polygon class="cls-46" points="51 38.88 51 46.15 55.54 42.71 51 38.88"/></g></svg>