<svg id="_41_540_copy_2" data-name="41 540 copy 2" xmlns="http://www.w3.org/2000/svg" xmlns:xlink="http://www.w3.org/1999/xlink" viewBox="0 0 64 64"><defs><style>.cls-1{fill:none;}.cls-2{fill:#5a9ab8;}.cls-3{fill:#00304b;}.cls-4{fill:#285977;}.cls-5{fill:#aadcfa;}.cls-6{clip-path:url(#clip-path);}.cls-7{fill:url(#linear-gradient);}.cls-8{fill:#131313;}.cls-9{fill:#e1e1e1;}.cls-10,.cls-11,.cls-12,.cls-13,.cls-15,.cls-9{stroke:#000;}.cls-15,.cls-16,.cls-17,.cls-18,.cls-19,.cls-9{stroke-linecap:round;stroke-linejoin:round;}.cls-15,.cls-9{stroke-width:0.75px;}.cls-10,.cls-11,.cls-12,.cls-13,.cls-17{stroke-width:0.53px;}.cls-10{fill:url(#linear-gradient-2);}.cls-11{fill:url(#linear-gradient-3);}.cls-12{fill:url(#linear-gradient-4);}.cls-13{fill:url(#linear-gradient-5);}.cls-14{fill:url(#linear-gradient-6);}.cls-15{fill:url(#linear-gradient-7);}.cls-16,.cls-18{fill:#fff;}.cls-16{stroke:#797979;}.cls-17{fill:url(#New_Gradient_Swatch_1);stroke:url(#New_Gradient_Swatch_1-2);}.cls-18{stroke:#2d6d8b;}.cls-19{fill:url(#New_Gradient_Swatch_1-3);stroke:url(#New_Gradient_Swatch_1-4);}</style><clipPath id="clip-path"><polygon id="cadre_64_" data-name="cadre   64  **" class="cls-1" points="64.01 39.03 43.83 39 33 35.42 20.83 35.63 0.25 30.42 0.01 0.03 64.01 0.03 64.01 39.03"/></clipPath><linearGradient id="linear-gradient" x1="18.57" y1="47.99" x2="49.76" y2="47.99" gradientUnits="userSpaceOnUse"><stop offset="0" stop-color="#fff"/><stop offset="0.12" stop-color="#fbfdfe"/><stop offset="0.24" stop-color="#eef6fa"/><stop offset="0.37" stop-color="#d9eaf5"/><stop offset="0.5" stop-color="#bbd9ed"/><stop offset="0.63" stop-color="#95c4e3"/><stop offset="0.76" stop-color="#67aad6"/><stop offset="0.9" stop-color="#318cc8"/><stop offset="1" stop-color="#0071bb"/></linearGradient><linearGradient id="linear-gradient-2" x1="27.44" y1="55.28" x2="31.22" y2="55.28" gradientUnits="userSpaceOnUse"><stop offset="0.06" stop-color="#0074bc"/><stop offset="0.2" stop-color="#308ec9"/><stop offset="0.42" stop-color="#79b6dc"/><stop offset="0.62" stop-color="#b2d5eb"/><stop offset="0.79" stop-color="#dcecf6"/><stop offset="0.92" stop-color="#f6fafd"/><stop offset="1" stop-color="#fff"/><stop offset="1" stop-color="#fcfdfe"/><stop offset="1" stop-color="#f3f9fc"/><stop offset="1" stop-color="#e4f0f8"/><stop offset="1" stop-color="#cfe4f2"/><stop offset="1" stop-color="#b3d5eb"/><stop offset="1" stop-color="#91c2e2"/><stop offset="1" stop-color="#68abd7"/><stop offset="1" stop-color="#3991ca"/><stop offset="1" stop-color="#0674bd"/><stop offset="1" stop-color="#0071bb"/></linearGradient><linearGradient id="linear-gradient-3" x1="24.61" y1="53.7" x2="29.7" y2="53.7" xlink:href="#linear-gradient-2"/><linearGradient id="linear-gradient-4" x1="21.13" y1="52.34" x2="26.78" y2="52.34" xlink:href="#linear-gradient-2"/><linearGradient id="linear-gradient-5" x1="18.2" y1="50.3" x2="24.13" y2="50.3" xlink:href="#linear-gradient-2"/><linearGradient id="linear-gradient-6" x1="24.42" y1="43.48" x2="44.1" y2="43.48" gradientUnits="userSpaceOnUse"><stop offset="0" stop-color="#fff"/><stop offset="1" stop-color="#0071bb"/></linearGradient><linearGradient id="linear-gradient-7" x1="24.42" y1="43.48" x2="44.1" y2="43.48" gradientUnits="userSpaceOnUse"><stop offset="0" stop-color="#fff"/><stop offset="0.17" stop-color="#fcfdfe"/><stop offset="0.3" stop-color="#f2f8fc"/><stop offset="0.42" stop-color="#e2eff7"/><stop offset="0.53" stop-color="#cae2f1"/><stop offset="0.64" stop-color="#acd1e9"/><stop offset="0.74" stop-color="#87bcdf"/><stop offset="0.84" stop-color="#5ba4d3"/><stop offset="0.93" stop-color="#2a88c6"/><stop offset="1" stop-color="#0071bb"/></linearGradient><linearGradient id="New_Gradient_Swatch_1" x1="6.5" y1="42.5" x2="18.5" y2="42.5" gradientUnits="userSpaceOnUse"><stop offset="0" stop-color="#464646"/><stop offset="0.99" stop-color="#141414"/></linearGradient><linearGradient id="New_Gradient_Swatch_1-2" x1="6.23" x2="18.77" xlink:href="#New_Gradient_Swatch_1"/><linearGradient id="New_Gradient_Swatch_1-3" x1="49.5" y1="50" x2="57.5" y2="50" xlink:href="#New_Gradient_Swatch_1"/><linearGradient id="New_Gradient_Swatch_1-4" x1="49" y1="50" x2="58" y2="50" xlink:href="#New_Gradient_Swatch_1"/></defs><g id="E4_" data-name="E4   **"><path class="cls-2" d="M52.58,7.59l.81.24a1.25,1.25,0,0,0-.61,0L52,7.59A1.14,1.14,0,0,1,52.58,7.59Z"/><path class="cls-2" d="M49,8.27a1.56,1.56,0,0,0-.85.49,1.25,1.25,0,0,0-.34.85l.8.24A1.25,1.25,0,0,1,49,9a1.59,1.59,0,0,1,.84-.5Z"/><polygon class="cls-2" points="48.63 29.29 47.82 29.05 47.83 9.61 48.63 9.85 48.63 29.29"/><polygon class="cls-2" points="49.82 8.51 49.02 8.27 51.97 7.59 52.78 7.83 49.82 8.51"/><path class="cls-3" d="M53.62,7.94a.78.78,0,0,1,.32.69V28.08l-5.32,1.21V9.85A1.25,1.25,0,0,1,49,9a1.59,1.59,0,0,1,.84-.5l3-.68A1,1,0,0,1,53.62,7.94Z"/></g><g id="E3_" data-name="E3  **"><path class="cls-2" d="M44.37,17.69l.81.24a1.14,1.14,0,0,0-.61,0l-.8-.24A1,1,0,0,1,44.37,17.69Z"/><polygon class="cls-2" points="40.43 31.2 39.62 30.92 39.62 19.7 40.43 19.94 40.43 31.2"/><path class="cls-2" d="M40.82,18.37a1.5,1.5,0,0,0-.85.49,1.23,1.23,0,0,0-.35.84l.81.24a1.21,1.21,0,0,1,.35-.83,1.51,1.51,0,0,1,.84-.5Z"/><polygon class="cls-2" points="41.62 18.61 40.82 18.37 43.77 17.69 44.57 17.93 41.62 18.61"/><path class="cls-3" d="M45.41,18a.74.74,0,0,1,.33.68V29.94L40.43,31.2V19.94a1.21,1.21,0,0,1,.35-.83,1.51,1.51,0,0,1,.84-.5l3-.68A1,1,0,0,1,45.41,18Z"/></g><g id="E2_" data-name="E2   **"><path class="cls-2" d="M32.73,26.61a1.6,1.6,0,0,0-.84.51,1.21,1.21,0,0,0-.35.83l.8.25a1.26,1.26,0,0,1,.35-.84,1.52,1.52,0,0,1,.85-.5Z"/><path class="cls-2" d="M36.28,25.94l.8.24a1.21,1.21,0,0,0-.6,0l-.8-.25A1.1,1.1,0,0,1,36.28,25.94Z"/><polygon class="cls-2" points="33.54 26.86 32.73 26.61 35.68 25.93 36.48 26.18 33.54 26.86"/><polygon class="cls-2" points="32.34 33 31.54 32.76 31.54 27.95 32.34 28.2 32.34 33"/><path class="cls-3" d="M37.32,26.3a.73.73,0,0,1,.34.67v4.81L32.34,33V28.2a1.26,1.26,0,0,1,.35-.84,1.52,1.52,0,0,1,.85-.5l2.94-.68A1,1,0,0,1,37.32,26.3Z"/></g><g id="E_1" data-name="E 1"><path class="cls-2" d="M28,23.8l.8.24a1.25,1.25,0,0,0-.61,0l-.8-.24A1.25,1.25,0,0,1,28,23.8Z"/><polygon class="cls-2" points="25.2 24.72 24.39 24.48 27.34 23.8 28.14 24.05 25.2 24.72"/><polygon class="cls-2" points="24.01 34.9 23.2 34.66 23.2 25.81 24 26.05 24.01 34.9"/><path class="cls-2" d="M24.39,24.48a1.55,1.55,0,0,0-.84.5,1.21,1.21,0,0,0-.35.83l.8.24a1.26,1.26,0,0,1,.35-.83,1.54,1.54,0,0,1,.85-.5Z"/><path class="cls-3" d="M29,24.15a.76.76,0,0,1,.34.68v8.85L24,34.9V26.05a1.26,1.26,0,0,1,.35-.83,1.54,1.54,0,0,1,.85-.5L28.14,24A1.06,1.06,0,0,1,29,24.15Z"/></g><g id="ECLAIR_" data-name="ECLAIR  **"><polygon class="cls-4" points="18.11 28.6 17.07 28.4 17.07 24.59 18.1 24.79 18.11 28.6"/><polygon class="cls-3" points="38.01 11 37.18 10.86 34.13 7.8 34.96 7.94 38.01 11"/><polygon class="cls-3" points="43 16.04 42.23 15.82 39.34 12.88 39.97 12.95 43 16.04"/><polygon class="cls-4" points="18.1 24.79 17.07 24.59 25.18 15.43 26.07 15.72 18.1 24.79"/><polygon class="cls-4" points="30.61 18.79 29.98 18.34 37.18 10.86 38.01 11 30.61 18.79"/><polygon class="cls-4" points="34.96 7.94 34.11 7.8 44.09 5.8 45 5.95 34.96 7.94"/><polygon class="cls-5" points="30.58 22.59 26.1 19.46 18.11 28.6 18.1 24.79 26.07 15.72 30.61 18.79 38.01 11 34.96 7.94 45 5.95 43 16.05 39.97 12.94 30.58 22.59"/></g><g id="EQUERRE_" data-name="EQUERRE ***"><g class="cls-6"><path class="cls-4" d="M12.32,43.91a.7.7,0,0,1-.33-.7L11,43a.78.78,0,0,0,.33.69.82.82,0,0,0,.25.12l1,.24A1,1,0,0,1,12.32,43.91Z"/><polygon class="cls-2" points="11.99 43.21 11 42.97 11 13.81 12.01 14.06 11.99 43.21"/><polygon class="cls-5" points="14.99 41.2 14.01 40.95 56.09 31.01 57.08 31.25 14.99 41.2"/><polygon class="cls-5" points="12.01 14.06 11 13.81 14.01 13.28 15 13.51 12.01 14.06"/><path class="cls-4" d="M15,41.2l42.09-10v2.53L13.06,44a.87.87,0,0,1-.77-.11.73.73,0,0,1-.3-.68V14.06l3-.55Z"/></g></g><g id="ok_" data-name="ok **"><path class="cls-7" d="M28.94,56.9a1.35,1.35,0,0,1-.63-.26c-.26-.15-.39-.29-.39-.4a2.28,2.28,0,0,1,.48-1.06l-.6-.46a4.43,4.43,0,0,1-1.13,1,.48.48,0,0,1-.22,0A2.16,2.16,0,0,1,25.09,55c0-.07-.05-.26.25-.91l.08-.16.12-.31-.29-.16a.76.76,0,0,0-.23-.09l-.19-.11-.25.08-.1.05a4.09,4.09,0,0,1-1.73.7,1.59,1.59,0,0,1-1-.74c-.12-.2-.14-.33-.12-.39a3.37,3.37,0,0,1,.8-1.1l.24-.24-.06-.07,0,0-.14-.24L22.34,51l-.27.12a3.84,3.84,0,0,1-.6.2L21,51.5a5.09,5.09,0,0,1-1.36.27h-.15a1.18,1.18,0,0,1-.4-.45,2.12,2.12,0,0,1-.34-1A3.36,3.36,0,0,1,20.83,49,4.68,4.68,0,0,1,22,48.82a2.37,2.37,0,0,1,1.24.29l.2.12.2-.13c.37-.23.77-.45,1.17-.68a8.85,8.85,0,0,0,4.07-3.62l.48-.9-1.46.58a7.43,7.43,0,0,1-1.54.32l-.28,0a1,1,0,0,1-1.13-1.14c.57-.59,1.1-1.22,1.62-1.83a20.72,20.72,0,0,1,2.19-2.35,6.1,6.1,0,0,1,2.79-.41,38.43,38.43,0,0,1,5.11.45,14.51,14.51,0,0,1,3.77,1.26A10.84,10.84,0,0,1,42,42.49c.9,1.08,1.47,1.75,1.92,1.87a19.94,19.94,0,0,0,2,.06c1.34,0,3,0,3.72,0v9.18c-1.45-.24-6.12-1-9-1.51h-.11a2.79,2.79,0,0,0-1.48.72c-.89.7-2.25,1.76-8.06,2h-.26l-.08.25a3.17,3.17,0,0,1-.49.9,2.84,2.84,0,0,1-1.11,1A.4.4,0,0,1,28.94,56.9Z"/><path class="cls-8" d="M31.52,39.47a37.13,37.13,0,0,1,5,.44,13.19,13.19,0,0,1,3.67,1.22,10.69,10.69,0,0,1,1.47,1.6c1,1.17,1.55,1.84,2.11,2l.06,0h0a16.74,16.74,0,0,0,2,0c1.14,0,2.51,0,3.34,0v8.35c-1.79-.29-5.91-1-8.5-1.43l-.11,0h-.11a3.15,3.15,0,0,0-1.67.79c-.86.67-2.16,1.69-7.84,1.89H30.5l-.17.5a2.79,2.79,0,0,1-.43.79,2.46,2.46,0,0,1-1,.87,1.38,1.38,0,0,1-.44-.2.68.68,0,0,1-.2-.15,3,3,0,0,1,.41-.79l-1.19-.91a3.81,3.81,0,0,1-1,.89h-.05a1.75,1.75,0,0,1-1-.54,3.05,3.05,0,0,1,.22-.59.67.67,0,0,0,.08-.18l.26-.62-.59-.32a1.07,1.07,0,0,0-.32-.12l-.34-.21-.38.21-.1.06a4,4,0,0,1-1.54.65h0A1.56,1.56,0,0,1,22,53a3.34,3.34,0,0,1,.68-.92l.48-.46-.12-.15,0-.06-.3-.39-.35-.47-.54.23a4.11,4.11,0,0,1-.56.19l-.48.14a5,5,0,0,1-1.26.26h0a2.37,2.37,0,0,1-.49-1,3.08,3.08,0,0,1,1.8-1.1A4.41,4.41,0,0,1,22,49.2a2.19,2.19,0,0,1,1.05.22l.4.25.39-.25c.36-.23.74-.44,1.15-.67A9.31,9.31,0,0,0,29.2,45l.95-1.81-1.9.76-.47.19-.1,0a7.25,7.25,0,0,1-1.43.28h-.19a.85.85,0,0,1-.59-.18.78.78,0,0,1-.16-.44c.54-.56,1-1.15,1.52-1.73a21,21,0,0,1,2.11-2.26,5.83,5.83,0,0,1,2.58-.36m0-.75a6.51,6.51,0,0,0-3,.5c-1.41,1.2-2.53,2.88-3.95,4.3a1.41,1.41,0,0,0,1.51,1.67,2.33,2.33,0,0,0,.32,0A8,8,0,0,0,28,44.85l.58-.22c-1.26,2.39-3.46,3.1-5.11,4.16A2.79,2.79,0,0,0,22,48.45a4.69,4.69,0,0,0-1.25.17,3.68,3.68,0,0,0-2.32,1.53c-.24.4.49,2,1.05,2h.17a8.21,8.21,0,0,0,1.94-.42,4.14,4.14,0,0,0,.65-.23s0,.06,0,.08a3.58,3.58,0,0,0-.88,1.23c-.25.6.8,1.6,1.31,1.64h.12a4.61,4.61,0,0,0,2-.8c.11.06.2.05.31.12-.11.26-.59,1.11-.26,1.46a2.52,2.52,0,0,0,1.64.88,1,1,0,0,0,.39-.08A4.74,4.74,0,0,0,28.08,55a2.57,2.57,0,0,0-.54,1.28c0,.34.33.57.58.71a1.62,1.62,0,0,0,.82.31.65.65,0,0,0,.27-.05,3.11,3.11,0,0,0,1.28-1.11,3.36,3.36,0,0,0,.55-1c8.53-.3,7.72-2.46,9.58-2.68C44,53,50,54,50,54V44s-2.31,0-4.09,0C45,44,44.27,44,44,44c-.68-.18-2.49-2.94-3.38-3.5a14.11,14.11,0,0,0-3.92-1.32,37.27,37.27,0,0,0-5.18-.46Z"/><path class="cls-9" d="M30.5,36.88S27.79,35.85,22,40c-4.38-1.24-9-2-9-2l3.23,10.8a14.38,14.38,0,0,1,3.59,1.53c3.12,2,6.34,1,8.31,2.42a6.34,6.34,0,0,1,2.18,2.08,19.72,19.72,0,0,0,.9,2.12.9.9,0,0,0,1.28.47,1.24,1.24,0,0,0,.71-1.6A24.32,24.32,0,0,0,32,52.71a15.82,15.82,0,0,0-2-2.08,13.75,13.75,0,0,1,2,2.06,14.63,14.63,0,0,1,1.26,3.24,1.18,1.18,0,0,0,1.86.48c1-.58.13-3-.82-4.78-1.44-1.49-2.57-2.8-2.57-2.8l.08.13,2.48,2.64s1.46,2.78,1.23,3.85c.12.74,1.1.61,1.61.33,1.06-.59.56-2.2.11-4.06A16.2,16.2,0,0,0,35,48.36a13.57,13.57,0,0,1,2.67,2.39,7.22,7.22,0,0,1,1,2.46c.25.62.59,1.46,1.12,1.54.91.15,1.64,0,1.88-.37.17-1.09-1.36-4.58-1.36-4.58s-2.16-4.56-4-5.09C35,44.17,33.67,43.47,31,42.4l.19-.43.75-1.06,1.18-.24s.8-.5,2.7.12,2.13-1.3,2.15-2.12C36.5,37.88,30.5,36.88,30.5,36.88Z"/><path class="cls-10" d="M28.4,54.49a3.64,3.64,0,0,0-.86,1.66c-.05.69,1.19,1.21,1.57,1.1a3.11,3.11,0,0,0,1.38-1.14,2.9,2.9,0,0,0,.56-1,1.66,1.66,0,0,0-.24-1.54C30.11,53,29.15,53.51,28.4,54.49Z"/><path class="cls-11" d="M26.08,52.45A4,4,0,0,0,24.75,55c0,.53,1.28,1.15,1.63,1.12.63,0,1.23-.58,2-1.41,1.13-1.12,1.54-2.54.92-3.17S27.22,51.33,26.08,52.45Z"/><path class="cls-12" d="M23.19,50.85c-1.09.63-1.91,1.47-1.91,2.21,0,.46.83,1.26,1.14,1.35.73.22,1.52-.29,2.4-.78,1.37-.81,2.13-2.08,1.68-2.85S24.57,50,23.19,50.85Z"/><path class="cls-13" d="M20.73,48.62a3.66,3.66,0,0,0-2.33,1.51,2.52,2.52,0,0,0,.85,1.95,4.64,4.64,0,0,0,2.32-.35c1.54-.42,2.6-1.45,2.36-2.31S22.27,48.2,20.73,48.62Z"/><path class="cls-14" d="M44,44.15l-1.45,3a4.07,4.07,0,0,1-3,1.11c-1.38-2.37-2.29-3.42-3.32-3.8-1.7-.76-2.36-1.07-3.9-1.75-1.29.21-3.93,2-4.31,2.17a8,8,0,0,1-1.57.32,1.48,1.48,0,0,1-1.83-1.65c1.42-1.42,2.54-3.1,3.95-4.3,1.8-1.11,8.2,0,8.2,0a14.11,14.11,0,0,1,3.92,1.32c.89.56,2.67,3.47,3.35,3.65"/><path class="cls-15" d="M42.52,47.12a3.52,3.52,0,0,1-2.86,1.11c-1.38-2.37-2.47-3.42-3.5-3.8-1.7-.76-2.36-1.07-3.9-1.75-1.29.21-3.93,2-4.31,2.17a8,8,0,0,1-1.57.32,1.48,1.48,0,0,1-1.83-1.65c1.42-1.42,2.54-3.1,3.95-4.3,1.8-1.11,8.2,0,8.2,0a14.11,14.11,0,0,1,3.92,1.32c.89.56,2.67,3.7,3.35,3.89"/><polygon id="G_m1" data-name="G m1" class="cls-16" points="15.5 50.5 8.5 47.5 11.5 36.5 19.5 38.5 16.58 46 15.5 50.5"/><polygon id="G_m2" data-name="G m2" class="cls-17" points="12.5 51.5 6.5 50.5 6.5 33.5 18.5 36.5 18.5 37.5 17.5 37.5 13.5 47.5 12.78 50.1 13.5 50.5 12.5 51.5"/><rect id="D_ma_1_" data-name="D ma 1  **" class="cls-18" x="47.5" y="43.5" width="7" height="13"/><rect id="D_ma_2_" data-name="D ma 2  **" class="cls-19" x="49.5" y="42.5" width="8" height="15"/></g></svg>