<svg xmlns="http://www.w3.org/2000/svg" xmlns:xlink="http://www.w3.org/1999/xlink" viewBox="0 0 64 64"><defs><style>.cls-1,.cls-3,.cls-5,.cls-7,.cls-9{fill:none;}.cls-2{clip-path:url(#clip-path);}.cls-3,.cls-6{stroke:#797979;}.cls-11,.cls-12,.cls-14,.cls-17,.cls-18,.cls-3,.cls-5,.cls-6,.cls-7,.cls-9{stroke-miterlimit:10;}.cls-4{fill:#003755;}.cls-5,.cls-7{stroke:#fff;}.cls-15,.cls-5{stroke-width:0.5px;}.cls-16,.cls-6{fill:#fff;}.cls-7{stroke-width:2px;}.cls-14,.cls-8{fill:#aadcfa;}.cls-9{stroke:#003755;stroke-width:0.8px;}.cls-10{clip-path:url(#clip-path-2);}.cls-11,.cls-15{stroke:#000507;}.cls-11{stroke-width:0.75px;fill:url(#linear-gradient);}.cls-12,.cls-13,.cls-14,.cls-17,.cls-18{stroke:#000;}.cls-12,.cls-13,.cls-14,.cls-17{stroke-width:0.42px;}.cls-13{fill:#285977;}.cls-13,.cls-15{stroke-linecap:round;stroke-linejoin:round;}.cls-15{fill:url(#linear-gradient-2);}.cls-17{fill:url(#linear-gradient-3);}.cls-18{stroke-width:0.34px;fill:url(#linear-gradient-4);}</style><clipPath id="clip-path"><path class="cls-1" d="M24,58H6V6H9v7l5,6,2,9,8,6ZM58,6H53v8l-4,4L47,28l-7,6V58H58Z"/></clipPath><clipPath id="clip-path-2"><polygon id="corps_1_ok" data-name="corps 1**  ok" class="cls-1" points="25.39 58.5 25.39 28.47 38.5 28.5 38.5 58.5 25.39 58.5"/></clipPath><linearGradient id="linear-gradient" x1="26.5" y1="45.5" x2="37.5" y2="45.5" gradientUnits="userSpaceOnUse"><stop offset="0" stop-color="#8cd7f5"/><stop offset="0.76" stop-color="#376e8c"/></linearGradient><linearGradient id="linear-gradient-2" x1="14.96" y1="16.79" x2="48.36" y2="16.79" xlink:href="#linear-gradient"/><linearGradient id="linear-gradient-3" x1="13.08" y1="12.33" x2="50.24" y2="12.33" xlink:href="#linear-gradient"/><linearGradient id="linear-gradient-4" x1="25.5" y1="8.32" x2="37.82" y2="8.32" gradientUnits="userSpaceOnUse"><stop offset="0" stop-color="#82bedc"/><stop offset="0.04" stop-color="#76b0ce"/><stop offset="0.16" stop-color="#5a91af"/><stop offset="0.29" stop-color="#447997"/><stop offset="0.42" stop-color="#346886"/><stop offset="0.56" stop-color="#2b5d7b"/><stop offset="0.73" stop-color="#285a78"/></linearGradient></defs><g id="points_radar_ok_copy" data-name="points radar  ok ** copy"><g class="cls-2"><path class="cls-3" d="M32.33,57a25,25,0,1,1,25-25A25,25,0,0,1,32.33,57ZM51.08,32A18.75,18.75,0,1,0,32.33,50.75,18.74,18.74,0,0,0,51.08,32Zm-6.25,0a12.5,12.5,0,1,0-12.5,12.5A12.49,12.49,0,0,0,44.83,32Z"/><line class="cls-3" x1="32.33" y1="32" x2="32.33" y2="57"/><line class="cls-3" x1="32.33" y1="32" x2="56.11" y2="39.73"/><line class="cls-3" x1="32.33" y1="32" x2="47.03" y2="11.77"/><line class="cls-3" x1="32.33" y1="32" x2="17.64" y2="11.77"/><polygon class="cls-4" points="32.33 32 7.12 43.88 5.99 41.1 32.33 32"/><line class="cls-5" x1="32.33" y1="32" x2="6.55" y2="42.49"/></g><path class="cls-6" d="M47,45a2,2,0,1,1-2-2A2,2,0,0,1,47,45Zm8-25a2,2,0,1,0,2,2A2,2,0,0,0,55,20Z"/><circle class="cls-7" cx="13.55" cy="34" r="2"/><circle class="cls-8" cx="13.55" cy="34" r="2"/><circle class="cls-9" cx="13.55" cy="34" r="2"/></g><g id="TOWER_04_OK_copy" data-name="TOWER 04*** OK copy"><g class="cls-10"><path id="corps_1_ok-2" data-name="corps 1**  ok" class="cls-11" d="M26.5,58.5v-28a.65.65,0,0,0,.37.43c1.3.74,4.5,1.05,7.15.69,2.24-.32,3.12-.79,3.48-1.12v28c0,2-3,2-3,2h-5S26.5,60.5,26.5,58.5Z"/></g><path id="base_tour_" data-name="base tour **" class="cls-12" d="M43,27c-2.07,1.19-3.35,2.08-5.31,3.43-1.19.81-3.72,1.09-5.69,1.09a12.21,12.21,0,0,1-5.44-1.09L21,27c3,1.69,7.94,2,11,2S41.82,27.64,43,27Z"/><path id="tour_" data-name="tour **" class="cls-13" d="M19.44,25.56,17.5,18.85c0,.5.46,1,1.45,1.49,3.44,1.69,11.93,2.4,19,1.58,5-.58,7.94-1.78,7.94-3l-2,6.67C43.39,27,41.81,30,32.06,30S19.61,26.09,19.44,25.56Z"/><path id="fenettre_bas" data-name="fenettre bas" d="M23.78,27.08l-2.63-1.42-1.27-3.39,3.71,1.34Zm5.84-2.94-4.45-.36,0,3.69,4.57,1.05Z"/><path id="fenettre_bas-2" data-name="fenettre bas" d="M36.39,28.11l.82-4.28-5.51.33-.07,4.45Zm1.77-.36,3.38-1.15,1.51-4-3.78,1Z"/><ellipse id="TOP_" data-name="TOP  **" class="cls-14" cx="31.66" cy="18.87" rx="3.39" ry="14.17" transform="translate(12.74 50.5) rotate(-89.91)"/><path id="base_tour_2" data-name="base tour *****" class="cls-15" d="M48.36,12.94c-3.11,1.78-6.28,5.7-9.42,6.89a15.31,15.31,0,0,1-3.74.68c-4,.36-8.89,0-10.86-.69L15,12.92c4.52,1.69,15.64,2.4,24.85,1.58A35.14,35.14,0,0,0,48.36,12.94Z"/><path id="fenetre" class="cls-16" d="M24.42,19.05l-2.73-2-1.88-1.94,4.13.77Zm12.5.33L37.64,16a72,72,0,0,1-12.21-.06l.31,3.34A29.15,29.15,0,0,0,36.92,19.38Zm1.41-.12,1.74-.61,4.35-3.58s-3.76.8-5.25.88Z"/><path id="fenetre_top" data-name="fenetre  top" d="M24.42,19.05l-2.73-2-1.88-1.94,4.13.77Zm12.5.33L37.64,16a72,72,0,0,1-12.21-.06l.31,3.34A29.15,29.15,0,0,0,36.92,19.38Zm1.41-.12,1.74-.61,4.35-3.58s-3.76.8-5.25.88Z"/><ellipse id="TOP_2" data-name="TOP  *****" class="cls-14" cx="31.66" cy="9.83" rx="3.39" ry="18.56" transform="translate(21.8 41.48) rotate(-89.93)"/><path id="tour_2" data-name="tour *****" class="cls-17" d="M13.08,11.43l0-1.62c0,.5.61,1,1.9,1.49,4.52,1.69,15.64,2.4,24.84,1.58,6.58-.58,10.39-1.78,10.4-3l0,1.62c0,1.25-3.82,2.45-10.4,3-9.2.82-20.32.11-24.84-1.58C13.69,12.44,13.08,11.93,13.08,11.43Z"/><path class="cls-18" d="M37.82,10.84c-1.81,1-3.68,1.13-6,1.13s-5.81-.26-6.3-1.13a6.16,6.16,0,0,1,12.32,0Z"/></g></svg>