<svg xmlns="http://www.w3.org/2000/svg" xmlns:xlink="http://www.w3.org/1999/xlink" width="64" height="64" viewBox="0 0 64 64">
  <defs>
    <linearGradient id="a" x1="41.958" y1="23.18" x2="71.404" y2="23.18" gradientUnits="userSpaceOnUse">
      <stop offset="0" stop-color="#787878"/>
      <stop offset="1" stop-color="#fcfcfc"/>
    </linearGradient>
    <linearGradient id="b" x1="27.673" y1="4.253" x2="12.711" y2="28.12" gradientUnits="userSpaceOnUse">
      <stop offset="0" stop-color="#c9c9c9"/>
      <stop offset="1" stop-color="#737373"/>
    </linearGradient>
    <linearGradient id="c" x1="78.986" y1="-7.667" x2="17.703" y2="39.377" gradientUnits="userSpaceOnUse">
      <stop offset="0" stop-color="#fcfcfc"/>
      <stop offset="1" stop-color="#b3b3b3"/>
    </linearGradient>
    <linearGradient id="d" x1="30.327" y1="33.901" x2="45.238" y2="24.091" gradientUnits="userSpaceOnUse">
      <stop offset="0.1" stop-color="#195a72"/>
      <stop offset="0.5" stop-color="#5a9cb5"/>
      <stop offset="1" stop-color="#93d2f0"/>
    </linearGradient>
    <linearGradient id="e" x1="29.616" y1="35.383" x2="60.849" y2="20.309" xlink:href="#d"/>
    <linearGradient id="f" x1="35.223" y1="30.118" x2="49.963" y2="19.94" xlink:href="#d"/>
    <linearGradient id="g" x1="17.892" y1="38.156" x2="53.172" y2="20.779" xlink:href="#d"/>
    <linearGradient id="h" x1="15.52" y1="36.482" x2="31.554" y2="27.664" xlink:href="#d"/>
    <linearGradient id="i" x1="21.04" y1="34.15" x2="32.057" y2="21.223" xlink:href="#d"/>
    <linearGradient id="j" x1="33.245" y1="23.41" x2="41.003" y2="23.41" xlink:href="#d"/>
    <linearGradient id="k" x1="31.136" y1="24.33" x2="33.245" y2="24.33" xlink:href="#b"/>
    <linearGradient id="l" x1="31.06" y1="22.021" x2="41.003" y2="22.021" xlink:href="#d"/>
    <linearGradient id="m" x1="15.192" y1="29.887" x2="47.95" y2="15.857" xlink:href="#d"/>
    <linearGradient id="n" x1="10.734" y1="24.271" x2="23.37" y2="24.271" xlink:href="#d"/>
    <linearGradient id="o" x1="17.348" y1="25.75" x2="3.253" y2="37.818" xlink:href="#d"/>
    <linearGradient id="p" x1="46.364" y1="11.39" x2="30.146" y2="25.276" xlink:href="#c"/>
    <linearGradient id="q" x1="40.349" y1="20.743" x2="43.262" y2="20.743" xlink:href="#b"/>
    <linearGradient id="r" x1="37.084" y1="12.967" x2="22.842" y2="26.169" xlink:href="#c"/>
    <linearGradient id="s" x1="29.923" y1="23.598" x2="32.835" y2="23.598" xlink:href="#b"/>
    <linearGradient id="t" x1="26.374" y1="16.314" x2="7.618" y2="30.542" xlink:href="#c"/>
    <linearGradient id="u" x1="41.195" y1="21.603" x2="62.594" y2="54.833" gradientUnits="userSpaceOnUse">
      <stop offset="0" stop-color="#fff"/>
      <stop offset="1" stop-color="#bfbfbf"/>
    </linearGradient>
    <linearGradient id="v" x1="30.948" y1="47.552" x2="35.082" y2="43.418" gradientUnits="userSpaceOnUse">
      <stop offset="0.04" stop-color="#a39f9f"/>
      <stop offset="0.2" stop-color="#ddd"/>
      <stop offset="0.4" stop-color="#c6c6c5"/>
      <stop offset="0.68" stop-color="#f5f5f5"/>
      <stop offset="0.996" stop-color="#bebebe"/>
    </linearGradient>
    <linearGradient id="w" x1="14.499" y1="22.374" x2="28.501" y2="46.626" gradientUnits="userSpaceOnUse">
      <stop offset="0" stop-color="#fff"/>
      <stop offset="1" stop-color="#d2d2d2"/>
    </linearGradient>
    <linearGradient id="x" x1="15.249" y1="23.673" x2="27.751" y2="45.327" gradientUnits="userSpaceOnUse">
      <stop offset="0"/>
      <stop offset="1" stop-color="#fff"/>
    </linearGradient>
    <linearGradient id="y" x1="34.306" y1="44.401" x2="41.51" y2="56.878" gradientUnits="userSpaceOnUse">
      <stop offset="0" stop-color="#8dd7f4"/>
      <stop offset="1" stop-color="#386e8c"/>
    </linearGradient>
    <linearGradient id="z" x1="34.83" y1="45.309" x2="40.772" y2="55.6" gradientUnits="userSpaceOnUse">
      <stop offset="0" stop-color="#8dd7f4"/>
      <stop offset="0.256" stop-color="#8bd4f1"/>
      <stop offset="0.442" stop-color="#83cbe8"/>
      <stop offset="0.606" stop-color="#76bbd8"/>
      <stop offset="0.757" stop-color="#64a4c2"/>
      <stop offset="0.898" stop-color="#4d88a6"/>
      <stop offset="1" stop-color="#386e8c"/>
    </linearGradient>
  </defs>
  <title>24587_DELSIM_AP_AppIcon_r21x</title>
  <g>
    <polygon points="52.904 15.68 52.904 30.68 37.13 18.344 52.904 15.68" fill="url(#a)"/>
    <polygon points="11.906 17.43 11.904 26.515 22.41 24.621 11.906 17.43" fill="url(#b)"/>
    <polygon points="21.078 39.729 52.193 30.215 38.662 19.543 11.904 26.515 21.078 39.729" stroke="#6d6d6d" stroke-linecap="round" stroke-linejoin="round" fill="url(#c)"/>
    <g>
      <polygon points="35.625 26.419 38.939 28.628 47.775 26.419 44.462 24.21 35.625 26.419" stroke="#00415f" stroke-linecap="round" stroke-linejoin="round" fill="url(#d)"/>
      <polygon points="47.73 25.819 47.73 29.108 38.498 31.917 38.498 28.628 47.73 25.819" stroke="#00415f" stroke-linecap="round" stroke-linejoin="round" fill="url(#e)"/>
      <polygon points="35.677 25.744 35.677 29.033 38.498 31.917 38.498 28.485 35.677 25.744" stroke="#00415f" stroke-linecap="round" stroke-linejoin="round" fill="url(#f)"/>
    </g>
    <g>
      <polygon points="33.416 29.732 22.648 33.276 22.648 36.59 33.416 33.047 33.416 29.732" stroke="#00415f" stroke-linecap="round" stroke-linejoin="round" fill="url(#g)"/>
      <polygon points="30.102 27.523 20.16 30.837 22.648 33.276 33.416 29.732 30.102 27.523" stroke="#00415f" stroke-linecap="round" stroke-linejoin="round" fill="url(#h)"/>
      <polygon points="22.648 36.59 22.648 33.276 20.254 30.746 20.254 33.737 22.648 36.59" stroke="#00415f" stroke-linecap="round" stroke-linejoin="round" fill="url(#i)"/>
    </g>
    <g>
      <polygon points="33.323 25.67 41.003 23.491 41.003 21.149 33.245 23.328 33.323 25.67" stroke="#00415f" stroke-linecap="round" stroke-linejoin="round" fill="url(#j)"/>
      <polygon points="31.749 22.99 33.245 24.685 33.245 25.67 31.136 23.202 31.749 22.99" stroke="#6d6d6d" stroke-linecap="round" stroke-linejoin="round" fill="url(#k)"/>
      <polygon points="39.506 20.262 41.003 21.602 33.245 23.779 31.06 21.311 39.506 20.262" stroke="#00415f" stroke-linecap="round" stroke-linejoin="round" fill="url(#l)"/>
    </g>
    <g>
      <polygon points="27.893 23.574 27.809 26.887 17.684 29.732 17.684 26.417 27.893 23.574" stroke="#00415f" stroke-linecap="round" stroke-linejoin="round" fill="url(#m)"/>
      <polygon points="15.257 23.203 17.684 26.417 27.893 23.574 26.461 22.126 16.955 22.76 15.257 23.203" stroke="#00415f" stroke-linecap="round" stroke-linejoin="round" fill="url(#n)"/>
      <polygon points="17.684 29.732 15.334 26.45 15.334 23.203 17.684 26.417 17.684 29.732" stroke="#00415f" stroke-linecap="round" stroke-linejoin="round" fill="url(#o)"/>
    </g>
    <g>
      <path d="M43.262,23.359a.5.5,0,0,1-.377-.171L33.15,12.047a.5.5,0,0,1,.106-.749L38.927,7.63a.5.5,0,0,1,.529-.008l13.8,8.321a.5.5,0,0,1,.019.844l-9.738,6.488A.5.5,0,0,1,43.262,23.359Z" fill="url(#p)"/>
      <path d="M39.2,8.05,53,16.371l-9.738,6.488L33.527,11.718,39.2,8.05m0-1a1,1,0,0,0-.543.16l-5.671,3.668a1,1,0,0,0-.21,1.5l9.735,11.141a1,1,0,0,0,1.307.175L53.554,17.2a1,1,0,0,0-.038-1.688l-13.8-8.322A1.008,1.008,0,0,0,39.2,7.05Z" fill="#6d6d6d"/>
    </g>
    <polygon points="43.262 18.627 43.262 22.859 40.349 20.672 43.262 18.627" stroke="#6d6d6d" stroke-linecap="round" stroke-linejoin="round" fill="url(#q)"/>
    <g>
      <path d="M32.835,26.249a.5.5,0,0,1-.4-.2L23.542,14.06a.5.5,0,0,1,.146-.728l6.745-4.02a.5.5,0,0,1,.544.021L43.55,18.219a.5.5,0,0,1-.006.821L33.117,26.162A.5.5,0,0,1,32.835,26.249Z" fill="url(#r)"/>
      <path d="M30.689,9.741l12.573,8.886L32.835,25.749,23.943,13.762l6.746-4.021m0-1a1.006,1.006,0,0,0-.512.141L23.431,12.9a1,1,0,0,0-.291,1.454l8.892,11.988a1,1,0,0,0,1.367.23l10.427-7.122a1,1,0,0,0,.013-1.643L31.266,8.925a1,1,0,0,0-.578-.184Z" fill="#6d6d6d"/>
    </g>
    <polygon points="32.605 21.446 32.835 25.749 29.923 23.209 32.605 21.446" stroke="#6d6d6d" stroke-linecap="round" stroke-linejoin="round" fill="url(#s)"/>
    <g>
      <path d="M21.259,29.352a.5.5,0,0,1-.387-.184L11.52,17.747a.5.5,0,0,1-.107-.4.506.506,0,0,1,.229-.343l9.506-5.925a.5.5,0,0,1,.6.05l11.192,9.942a.508.508,0,0,1,.167.411.5.5,0,0,1-.226.382L21.532,29.271A.505.505,0,0,1,21.259,29.352Z" fill="url(#t)"/>
      <path d="M21.413,11.5,32.6,21.446,21.259,28.852,11.906,17.43,21.413,11.5m0-1a1,1,0,0,0-.529.151l-9.507,5.926a1,1,0,0,0-.244,1.482l9.352,11.422a1,1,0,0,0,1.32.2l11.346-7.405a1,1,0,0,0,.118-1.585L22.077,10.756a1,1,0,0,0-.664-.252Z" fill="#6d6d6d"/>
    </g>
    <path d="M39.2,8,52.9,16.68V29.626l-1,.054-30.826,10L12,26.68v-9l9.413-6.226,2.537,2.254,6.738-4.017L33.6,11.747l-.07-.079L39.2,8m0-1a1,1,0,0,0-.543.16L33.53,10.475l-2.264-1.6a1,1,0,0,0-1.09-.043l-6.109,3.642-1.99-1.768a1,1,0,0,0-1.216-.086l-9.413,6.226A1,1,0,0,0,11,17.68v9a1,1,0,0,0,.18.572l9.078,13a1,1,0,0,0,1.129.379l30.7-9.96.87-.046a1,1,0,0,0,.946-1V16.68a1,1,0,0,0-.465-.845L39.733,7.155A1,1,0,0,0,39.2,7Z" fill="#2d2d2d"/>
  </g>
  <g>
    <polygon points="42.5 39.5 56.5 46.597 56.5 29.5 42.5 22.5 42.5 39.5" stroke="#2d2d2d" stroke-linecap="round" stroke-linejoin="round" fill="url(#u)"/>
    <polygon points="47.5 30 47.5 38 53.351 34.217 47.5 30" fill="#2d2d2d"/>
  </g>
  <g>
    <path d="M43.273,52.136,33.192,42.192a14.088,14.088,0,1,0-3.417,3.583l9.861,10a2.572,2.572,0,0,0,3.637-3.637Z" fill="#fff" stroke="#fff" stroke-linejoin="round" stroke-width="3" opacity="0.5"/>
    <g>
      <path d="M33,49l-3.5-3.5L33,42l3.5,3.5Z" fill="url(#v)"/>
      <polygon points="33 47.293 30.707 45 30.207 45.5 33 48.293 35.793 45.5 35.293 45 33 47.293" opacity="0.3"/>
      <polygon points="33 43.707 35.293 46 35.793 45.5 33 42.707 30.207 45.5 30.707 46 33 43.707" fill="#fff" opacity="0.3"/>
      <path d="M33.828,43.535,33,42.707,30.207,45.5l1.154,1.154A15.949,15.949,0,0,0,33.828,43.535Z" fill="#646565" opacity="0.5"/>
    </g>
    <g>
      <circle cx="21.5" cy="34.5" r="12.5" fill="#fff" opacity="0.2"/>
      <path d="M21.5,20.5a14,14,0,1,0,14,14A14,14,0,0,0,21.5,20.5Zm0,25a11,11,0,1,1,11-11A11,11,0,0,1,21.5,45.5Z" stroke="#787979" stroke-linejoin="round" fill="url(#w)"/>
      <path d="M28.681,36.065h0a1.8,1.8,0,0,0-2.066.894,6.5,6.5,0,0,1-2.656,2.656,1.8,1.8,0,0,0-.894,2.066h0a1.806,1.806,0,0,0,2.6,1.1,10.108,10.108,0,0,0,4.123-4.123A1.806,1.806,0,0,0,28.681,36.065Z" fill="#fff" opacity="0.3"/>
      <path d="M12,35h3.571A6.43,6.43,0,0,1,22,28.571V25A10,10,0,0,0,12,35Z" fill="#fff" opacity="0.5"/>
      <path d="M21.5,22A12.5,12.5,0,1,0,34,34.5,12.5,12.5,0,0,0,21.5,22Zm0,24A11.5,11.5,0,1,1,33,34.5,11.513,11.513,0,0,1,21.5,46Z" opacity="0.3" fill="url(#x)"/>
    </g>
    <path d="M36.5,45.5l-3.308-3.308a14.088,14.088,0,1,0-3.417,3.583L33,49Z" fill="none" stroke="#323232" stroke-linejoin="round"/>
    <g>
      <path d="M43.273,52.136,35,44l-3.5,3.5,8.136,8.273a2.572,2.572,0,0,0,3.637-3.637Z" fill="url(#y)"/>
      <path d="M43.273,52.136,35,44l-3.5,3.5,8.136,8.273a2.572,2.572,0,0,0,3.637-3.637Z" fill="none" stroke="#053755" stroke-linejoin="round"/>
      <path d="M42.914,54.411A2.085,2.085,0,0,1,41.451,55h0a2.064,2.064,0,0,1-1.454-.581L32.7,47l-.5.5,7.789,7.919A2.064,2.064,0,0,0,41.447,56h0A2.012,2.012,0,0,0,43.5,53.948a2.161,2.161,0,0,0-.066-.5A2.018,2.018,0,0,1,42.914,54.411Z" opacity="0.3"/>
      <path d="M35,45.7l7.918,7.787a2.016,2.016,0,0,1,.516.957,2.171,2.171,0,0,0,.066-.5,2.072,2.072,0,0,0-.582-1.46L35,44.7l-2.8,2.8.5.5Z" fill="#fff" opacity="0.3"/>
      <path d="M42,53l-2-2-5.5-5.5L33,47l7.5,7.5c.544.544.57.5,1,.5a.943.943,0,0,0,1-1A1.634,1.634,0,0,0,42,53Z" fill="url(#z)"/>
    </g>
  </g>
</svg>
