<svg xmlns="http://www.w3.org/2000/svg" xmlns:xlink="http://www.w3.org/1999/xlink" width="64" height="64" viewBox="0 0 64 64">
  <defs>
    <linearGradient id="a" x1="17.053" y1="23.343" x2="30.296" y2="66.66" gradientUnits="userSpaceOnUse">
      <stop offset="0" stop-color="#c9c9c9"/>
      <stop offset="1" stop-color="#737373"/>
    </linearGradient>
    <linearGradient id="b" x1="38.956" y1="36.983" x2="45.83" y2="51.659" gradientUnits="userSpaceOnUse">
      <stop offset="0" stop-color="#f0f0f0"/>
      <stop offset="1" stop-color="#b3b3b3"/>
    </linearGradient>
    <linearGradient id="c" x1="25.351" y1="24.098" x2="38.694" y2="46.359" gradientUnits="userSpaceOnUse">
      <stop offset="0" stop-color="#83d2ea"/>
      <stop offset="0.231" stop-color="#78c5dd"/>
      <stop offset="0.387" stop-color="#d9f5ff"/>
      <stop offset="0.581" stop-color="#6aaec4"/>
      <stop offset="1" stop-color="#5096ae"/>
    </linearGradient>
    <linearGradient id="d" x1="43.88" y1="35.42" x2="51.111" y2="35.42" gradientUnits="userSpaceOnUse">
      <stop offset="0" stop-color="#83d2ea"/>
      <stop offset="0.545" stop-color="#5199b0"/>
      <stop offset="1" stop-color="#25667d"/>
    </linearGradient>
    <linearGradient id="e" x1="45.995" y1="26.99" x2="48.995" y2="26.99" gradientUnits="userSpaceOnUse">
      <stop offset="0.1" stop-color="#575757"/>
      <stop offset="0.5" stop-color="#c4c4c4"/>
      <stop offset="1" stop-color="#fff"/>
    </linearGradient>
    <linearGradient id="f" x1="43.88" y1="36.324" x2="51.111" y2="36.324" gradientUnits="userSpaceOnUse">
      <stop offset="0.1" stop-color="#195a72"/>
      <stop offset="0.5" stop-color="#5a9cb5"/>
      <stop offset="1" stop-color="#93d2f0"/>
    </linearGradient>
    <linearGradient id="g" x1="38.209" y1="22.278" x2="53.999" y2="22.278" xlink:href="#e"/>
    <linearGradient id="h" x1="36.55" y1="26.764" x2="52.614" y2="13.188" xlink:href="#e"/>
  </defs>
  <title>29175_DELSMG_AP_AppIcon_r21x</title>
  <g>
    <polygon points="47.397 37.795 43.692 37.017 43.692 41.672 47.397 37.795" fill="#fff" stroke="#6d6d6d" stroke-linejoin="round"/>
    <path d="M36.231,33.288a6.555,6.555,0,0,1-5.324-6.412V21.083l-2.393-.243v5.723a9.247,9.247,0,0,0,7.738,9.108l12.787,2.712V35.762Z" fill="none" stroke="#6d6d6d" stroke-linecap="round" stroke-linejoin="round"/>
    <polygon points="49.039 35.762 35.92 49.315 35.92 53.25 49.039 38.383 49.039 35.762" fill="none" stroke="#2d2d2d" stroke-linecap="round" stroke-linejoin="round"/>
    <g>
      <path d="M13.166,26.093l-3.307-.551v7.076c0,6.691,3.164,12.543,9.436,14.757L35.92,53.25V49.315" stroke="#6d6d6d" stroke-linecap="round" stroke-linejoin="round" fill="url(#a)"/>
      <polyline points="35.92 49.315 35.92 53.25 49.039 38.383 49.039 35.762" stroke="#6d6d6d" stroke-linecap="round" stroke-linejoin="round" fill="url(#b)"/>
      <polygon points="9.859 25.542 28.514 20.84 30.907 21.083 13.166 26.093 9.859 25.542" fill="#fff" stroke="#6d6d6d" stroke-linejoin="round"/>
      <path d="M30.324,21.75l-.806,4.836a1,1,0,0,0-.014.164c0,3.052,2.717,8.191,6.811,8.982a1,1,0,0,0,.189.018,1.014,1.014,0,0,0,.262-.035l3.039-.822a.949.949,0,0,0,.117-.04L48.5,36.57v1.807L36.2,52.58,19.837,46.807c-5.669-2-9.333-7.519-9.333-14.057V26.5L26.648,21.75h3.676m1.18-1h-5l-17,5v7c0,6.69,3.728,12.786,10,15l17,6,13-15v-3l-10-2,.039.178L36.5,34.75c-3.451-.667-6-5.265-6-8l1-6Z" fill="#2d2d2d"/>
      <g>
        <path d="M21.663,43.275C17.548,41.956,15,36.785,15,32.75V26.11l17-5.666V26.75a6.347,6.347,0,0,0,5.406,6.491l12.044,1.853L36.37,48.178Z" fill="url(#c)"/>
        <path d="M31.5,21.137V26.75a6.826,6.826,0,0,0,5.848,6.988l11.05,1.7L36.234,47.606,21.81,42.8C17.915,41.549,15.5,36.61,15.5,32.75V26.471l16-5.334m1-1.387-18,6v7c0,4.428,2.756,9.639,7,11l15,5,14-14-13-2a5.847,5.847,0,0,1-5-6v-7Z" fill="#00415f"/>
      </g>
    </g>
    <g>
      <path d="M43.88,29.4c0-1,1.619-1.807,3.616-1.807s3.615.809,3.615,1.807-1.619,1.808-3.615,1.808S43.88,30.4,43.88,29.4Z" fill="#fff"/>
      <path d="M51.111,29.4c0-1-1.619-1.807-3.615-1.807S43.88,28.4,43.88,29.4V39.635a1.21,1.21,0,0,0,.024.221,3.59,3.59,0,0,0,3.166,3.351,2.127,2.127,0,0,0,.851,0,3.59,3.59,0,0,0,3.166-3.351,1.21,1.21,0,0,0,.024-.221Z" stroke="#00415f" stroke-linecap="round" stroke-linejoin="round" fill="url(#d)"/>
      <g>
        <path d="M47.5,29.491c-.974,0-1.5-.5-1.5-.7v-4.3h3v4.3C49,28.994,48.47,29.491,47.5,29.491Z" fill="url(#e)"/>
        <path d="M48.5,24.989v3.7a1.8,1.8,0,0,1-2,0v-3.7h2m1-1h-4v4.8c0,.58.84,1.2,2,1.2s2-.621,2-1.2v-4.8Z" fill="#6d6d6d"/>
      </g>
      <path d="M47.5,31.206c-2,0-3.616-.809-3.616-1.808V39.635a3.616,3.616,0,0,0,7.231,0V29.4C51.111,30.4,49.492,31.206,47.5,31.206Z" stroke="#00415f" stroke-miterlimit="10" fill="url(#f)"/>
      <g>
        <path d="M47.5,25.392c-3.888,0-6.5-1.552-6.5-3V19.165H54v3.227C54,23.84,51.383,25.392,47.5,25.392Z" fill="url(#g)"/>
        <path d="M53.5,19.665v2.727c0,1.044-2.283,2.5-6,2.5s-6-1.456-6-2.5V19.665h12m1-1h-14v3.727c0,1.933,3.134,3.5,7,3.5s7-1.567,7-3.5V18.665Z" fill="#6d6d6d"/>
      </g>
      <g>
        <path d="M47.5,21.665c-3.888,0-6.5-1.551-6.5-3a1.522,1.522,0,0,1,.315-.875l.091-.133,5.024-6.6a1.56,1.56,0,0,1,1.07-.3,1.51,1.51,0,0,1,1.072.306l.151.2h.006l4.91,6.459.048.074a1.516,1.516,0,0,1,.313.875C54,20.114,51.383,21.665,47.5,21.665Z" fill="url(#h)"/>
        <path d="M47.5,11.25a1.459,1.459,0,0,1,.7.139l.276.368h.007l4.7,6.179.1.142a1.027,1.027,0,0,1,.223.587c0,1.044-2.283,2.5-6,2.5s-6-1.456-6-2.5a1.025,1.025,0,0,1,.222-.587l.1-.141,4.7-6.18h.01l.273-.368a1.472,1.472,0,0,1,.7-.139m0-1a1.92,1.92,0,0,0-1.473.507h0L40.9,17.491v.01a2.009,2.009,0,0,0-.405,1.164c0,1.934,3.134,3.5,7,3.5s7-1.566,7-3.5A2.01,2.01,0,0,0,54.09,17.5v-.01l-5.12-6.734h0A1.917,1.917,0,0,0,47.5,10.25Z" fill="#6d6d6d"/>
      </g>
      <path d="M47.5,11.25a1.459,1.459,0,0,1,.7.139l.276.368h.007l4.7,6.179.1.142a1.027,1.027,0,0,1,.223.587v3.727c0,.858-1.552,1.977-4.148,2.364l-.852.127v3.8a1.8,1.8,0,0,1-2,0v-3.8l-.853-.127c-2.6-.387-4.147-1.506-4.147-2.364V18.665a1.025,1.025,0,0,1,.222-.587l.1-.141,4.7-6.18h.01l.273-.368a1.472,1.472,0,0,1,.7-.139m0-1a1.92,1.92,0,0,0-1.473.507h0L40.9,17.491v.01a2.009,2.009,0,0,0-.405,1.164v3.727c0,1.585,2.109,2.922,5,3.353V28.79c0,.58.84,1.2,2,1.2s2-.621,2-1.2V25.745c2.89-.431,5-1.768,5-3.353V18.665A2.01,2.01,0,0,0,54.09,17.5v-.01l-5.12-6.734h0A1.917,1.917,0,0,0,47.5,10.25Z" fill="#2d2d2d"/>
      <line x1="47.496" y1="10.988" x2="51.05" y2="18.446" fill="none" stroke="#2d2d2d" stroke-miterlimit="10" stroke-width="0.682"/>
      <path d="M47.5,10.25c-.817,0-1.477.329-1.477.738s.66.739,1.477.739,1.476-.33,1.476-.739-.66-.738-1.476-.738Z" fill="#2d2d2d"/>
    </g>
  </g>
</svg>
