<svg xmlns="http://www.w3.org/2000/svg" xmlns:xlink="http://www.w3.org/1999/xlink" width="64" height="64" viewBox="0 0 64 64">
  <defs>
    <linearGradient id="a" x1="30.3947" y1="30.4911" x2="11.7668" y2="30.4911" gradientUnits="userSpaceOnUse">
      <stop offset="0.7742" stop-color="#fff"/>
      <stop offset="1"/>
    </linearGradient>
    <linearGradient id="b" x1="42.6514" y1="33.3169" x2="60.8922" y2="61.6418" gradientUnits="userSpaceOnUse">
      <stop offset="0" stop-color="#fff"/>
      <stop offset="1" stop-color="#bfbfbf"/>
    </linearGradient>
    <linearGradient id="c" x1="47.382" y1="288.6079" x2="52.5275" y2="292.7573" gradientTransform="matrix(1, 0.4663, 0, 1, 0, -268.6675)" gradientUnits="userSpaceOnUse">
      <stop offset="0" stop-color="#fff"/>
      <stop offset="1" stop-color="#bbbdbf"/>
    </linearGradient>
    <linearGradient id="d" x1="47.8245" y1="40.8332" x2="51.2723" y2="48.7509" gradientUnits="userSpaceOnUse">
      <stop offset="0" stop-color="#92d5ee"/>
      <stop offset="1" stop-color="#6f9cae"/>
    </linearGradient>
    <linearGradient id="e" x1="49.2329" y1="288.7491" x2="52.1804" y2="291.126" gradientTransform="matrix(1, 0.4663, 0, 1, 0, -268.6675)" gradientUnits="userSpaceOnUse">
      <stop offset="0" stop-color="#92d5ee"/>
      <stop offset="0.1464" stop-color="#8ccfe8"/>
      <stop offset="0.3423" stop-color="#7cbed7"/>
      <stop offset="0.5662" stop-color="#60a3bb"/>
      <stop offset="0.809" stop-color="#3b7c95"/>
      <stop offset="1" stop-color="#185971"/>
    </linearGradient>
    <mask id="f" x="6.1" y="11.8071" width="56.7201" height="37.3681" maskUnits="userSpaceOnUse">
      <rect x="9.9529" y="12.2071" width="52.4672" height="36.5681" stroke="#1c1c1c" stroke-miterlimit="10" stroke-width="0.8" fill="url(#a)"/>
    </mask>
    <mask id="g" x="-29" y="-13" width="119" height="90" maskUnits="userSpaceOnUse">
      <path d="M5.969,23.285S5.3518,27.8768,9.19,30.0692s10.28,5.9629,12.336,6.7852,7.9775,2.9375,11.1025,2.1943c1.44-.3437,11.9844-5.8857,16.3115-9.8017,1.4395-1.3018,2.1934-.5479,2.1934-.5479s5.0039.0684,5.8945-.4805,1.7129-1.5068,2.1934-1.6435a2.7221,2.7221,0,0,0,1.164-.7549A8.8086,8.8086,0,0,0,61.53,23.5243c0-.4248-.6153-2.0068-1.1582-2.0068s-.4.708-.4.8506a2.2051,2.2051,0,0,1-.1426.496s-.7793-1.4179-1.4883-1.0869c-.707.3311.4024,1.7237.4024,1.7237s-.166.7793-.26,1.0859l-.6855.26s-.4-1.1094-.7559-1.2041a13.8861,13.8861,0,0,0-1.959-.0235c-.5195,0-.4726.6133-.0234.7793a2.118,2.118,0,0,0,1.1562.2129s-.0224.6846.1182.7549a2.511,2.511,0,0,1-.7793.1895c-.33,0-2.29-.8262-2.29-1.2051,0-.377,1.37-.4951,1.37-.4951S55.98,23.288,55.98,22.84s-.5674-.8271-1.5352-.8271a4.35,4.35,0,0,0-2.0781.6387c-.3066.165-.9922.26-1.5352.5429S49.2259,24.5868,48.8948,24.8s-.543.165-1.3691.6377-9.54,4.2275-10.91,4.8652a18.7047,18.7047,0,0,0-5.3379,3.211A10.4523,10.4523,0,0,0,28.42,31.4589c-2.1953-1.2276-7.957-4.6748-9.8223-5.1006s-4.038-.4961-4.8886-1.3692" fill="#fff"/>
    </mask>
  </defs>
  <title>I_DELSTM_AP</title>
  <g style="isolation: isolate">
    <g>
      <g>
        <polygon points="43.5 49.251 55.5 54.749 55.5 38.652 43.5 34.251 43.5 49.251" stroke="#2d2d2d" stroke-linecap="round" stroke-linejoin="round" fill="url(#b)"/>
        <g>
          <g>
            <path d="M53.0459,46.4234a6.3054,6.3054,0,0,0-3.4971-5.129c-1.9316-.9-3.498-.0654-3.498,1.8673a6.3055,6.3055,0,0,0,3.498,5.1278C51.48,49.19,53.0459,48.355,53.0459,46.4234Z" fill="url(#c)"/>
            <path d="M48.0722,41.932a2.5711,2.5711,0,0,1,1.0539.2687,5.3061,5.3061,0,0,1,2.92,4.2227c0,.56-.1771,1.2286-1.021,1.2286a2.5681,2.5681,0,0,1-1.0536-.2688,5.3048,5.3048,0,0,1-2.92-4.2215c0-.561.1772-1.23,1.0214-1.23m0-1a1.99,1.99,0,0,0-2.0214,2.23,6.3058,6.3058,0,0,0,3.498,5.1279,3.526,3.526,0,0,0,1.4761.3624,1.99,1.99,0,0,0,2.021-2.2286,6.3054,6.3054,0,0,0-3.4971-5.129,3.5288,3.5288,0,0,0-1.4766-.3624Z" fill="url(#d)"/>
            <path d="M48.0722,40.932a3.5288,3.5288,0,0,1,1.4766.3624,6.3054,6.3054,0,0,1,3.4971,5.129,1.99,1.99,0,0,1-2.021,2.2286,3.526,3.526,0,0,1-1.4761-.3624,6.3058,6.3058,0,0,1-3.498-5.1279,1.99,1.99,0,0,1,2.0214-2.23m0-1a2.9951,2.9951,0,0,0-3.0214,3.23,7.2932,7.2932,0,0,0,4.0755,6.0342,4.5,4.5,0,0,0,1.8986.4561,2.9944,2.9944,0,0,0,3.021-3.2286,7.2945,7.2945,0,0,0-4.0744-6.0352,4.5029,4.5029,0,0,0-1.8993-.4562Z" fill="#00415f"/>
          </g>
          <path d="M49.3965,42.26a4.4361,4.4361,0,0,1,2.4619,3.61,1.5127,1.5127,0,0,1-.6543,1.3652l-1.8076-2.5138V42.26" fill="url(#e)"/>
          <polygon points="49.7 42.582 49.397 42.44 49.397 44.874 49.7 45.015 49.7 42.582" fill="#00415f"/>
          <polygon points="49.611 44.669 49.397 44.784 50.813 46.861 51.027 46.745 49.611 44.669" fill="#00415f"/>
          <polygon points="50.674 40.454 48.678 39.523 48.678 38.857 50.674 39.789 50.674 40.454" fill="#00415f"/>
          <polygon points="50.009 40.808 49.343 40.499 49.343 39.833 50.009 40.143 50.009 40.808" fill="#00415f"/>
          <polygon points="53.785 43.9 52.045 41.347 52.26 41.233 54 43.785 53.785 43.9" fill="#00415f"/>
          <polygon points="52.649 43.371 52.004 42.424 52.435 42.195 53.079 43.14 52.649 43.371" fill="#00415f"/>
        </g>
      </g>
      <g>
        <path d="M6.5332,24.0365S5.9725,28.2082,9.4593,30.2s11.4145,5.4174,13.2822,6.1645,7.2477,2.6688,10.0869,1.9936c1.3078-.3123,8.8134-5.3473,12.7447-8.9051,1.3078-1.1827,1.9927-.4978,1.9927-.4978s4.5462.0622,5.3553-.4365,1.5562-1.369,1.9928-1.4932a2.4731,2.4731,0,0,0,1.0575-.6858,8.0047,8.0047,0,0,0,1.04-2.0859c0-.3859-.559-1.8232-1.0523-1.8232s-.3637.6432-.3637.7728a2.0032,2.0032,0,0,1-.13.4506s-.708-1.2882-1.3521-.9875c-.6424.3008.3656,1.566.3656,1.566s-.1509.708-.2361.9866l-.6228.236s-.3637-1.0079-.6867-1.0939a12.6216,12.6216,0,0,0-1.78-.0214c-.472,0-.4294.5572-.0213.708a1.9248,1.9248,0,0,0,1.05.1935s-.02.6219.1073.6858a2.281,2.281,0,0,1-.708.1722c-.3,0-2.08-.7506-2.08-1.0949,0-.3425,1.2448-.45,1.2448-.45s1.2226-.5155,1.2226-.9228-.5155-.7514-1.3948-.7514a3.9513,3.9513,0,0,0-1.888.58c-.2785.15-.9014.2359-1.3948.4932s-1.4585,1.2652-1.7593,1.4586-.4933.15-1.2439.5794-8.6674,3.8408-9.9121,4.42a16.9945,16.9945,0,0,0-4.85,2.9173,9.4981,9.4981,0,0,0-2.5961-1.8667c-1.9944-1.1153-7.2291-4.2472-8.9237-4.6341s-3.6687-.4507-4.4414-1.2439" fill="#fff"/>
        <g mask="url(#f)">
          <path d="M6.5332,24.0365S5.9725,28.2082,9.4593,30.2s11.4145,5.4174,13.2822,6.1645,7.2477,2.6688,10.0869,1.9936c1.3078-.3123,8.8134-5.3473,12.7447-8.9051,1.3078-1.1827,1.9927-.4978,1.9927-.4978s4.5462.0622,5.3553-.4365,1.5562-1.369,1.9928-1.4932a2.4731,2.4731,0,0,0,1.0575-.6858,8.0047,8.0047,0,0,0,1.04-2.0859c0-.3859-.559-1.8232-1.0523-1.8232s-.3637.6432-.3637.7728a2.0032,2.0032,0,0,1-.13.4506s-.708-1.2882-1.3521-.9875c-.6424.3008.3656,1.566.3656,1.566s-.1509.708-.2361.9866l-.6228.236s-.3637-1.0079-.6867-1.0939a12.6216,12.6216,0,0,0-1.78-.0214c-.472,0-.4294.5572-.0213.708a1.9248,1.9248,0,0,0,1.05.1935s-.02.6219.1073.6858a2.281,2.281,0,0,1-.708.1722c-.3,0-2.08-.7506-2.08-1.0949,0-.3425,1.2448-.45,1.2448-.45s1.2226-.5155,1.2226-.9228-.5155-.7514-1.3948-.7514a3.9513,3.9513,0,0,0-1.888.58c-.2785.15-.9014.2359-1.3948.4932s-1.4585,1.2652-1.7593,1.4586-.4933.15-1.2439.5794-8.6674,3.8408-9.9121,4.42a16.9945,16.9945,0,0,0-4.85,2.9173,9.4981,9.4981,0,0,0-2.5961-1.8667c-1.9944-1.1153-7.2291-4.2472-8.9237-4.6341s-3.6687-.4507-4.4414-1.2439" fill="#fff" stroke="#1c1c1c" stroke-miterlimit="10" stroke-width="0.8"/>
        </g>
        <path d="M29.5267,33.3294a5.61,5.61,0,0,1,2.0241,3.15" fill="none" stroke="#fff" stroke-miterlimit="10"/>
        <path d="M31.0867,36.8872S28.439,34.5537,29.626,33.254" fill="none" stroke="#fff" stroke-miterlimit="10"/>
        <g mask="url(#g)">
          <g>
            <g opacity="0.3">
              <image width="112" height="85" transform="translate(-29 -8)" xlink:href="I_DELSTM_AP1.png"/>
            </g>
            <g opacity="0.3">
              <image width="112" height="85" transform="translate(-22 -13)" xlink:href="I_DELSTM_AP2.png"/>
            </g>
          </g>
        </g>
        <path d="M56.2145,23.6177c.1128-.1925.2236-1.2722.8908-1.2722s.2866,1.43.2866,1.43a13.3969,13.3969,0,0,1-1.0345,1.86" fill="#fff" stroke="#1c1c1c" stroke-miterlimit="10" stroke-width="0.8"/>
        <path d="M29.8381,32.9266A5.8133,5.8133,0,0,1,31.86,36.141" fill="none" stroke="#6d6d6d" stroke-linecap="round" stroke-linejoin="round" stroke-width="0.5"/>
        <path d="M30.66,36.928S28,34.5449,29.2126,33.2185" fill="none" stroke="#6d6d6d" stroke-linecap="round" stroke-linejoin="round" stroke-width="0.6"/>
        <path d="M13.67,26.1374a9.5,9.5,0,0,1-3.8612.0764" fill="none" stroke="#6d6d6d" stroke-linecap="round" stroke-linejoin="round" stroke-width="0.5"/>
        <path d="M14.3852,25.9974A9.4985,9.4985,0,0,1,10.74,27.2723" fill="none" stroke="#6d6d6d" stroke-linecap="round" stroke-linejoin="round" stroke-width="0.5"/>
        <path d="M11.2852,29.2419c7.95,5.7918,20.1316,7.7224,20.1316,7.7224s13.6426-9.4463,13.9593-9.3664" fill="none" stroke="#6d6d6d" stroke-miterlimit="10" stroke-width="0.6"/>
        <path d="M56.0007,22.4307c-.4933,0-.3637.6432-.3637.7728a2.0032,2.0032,0,0,1-.13.4506s-.708-1.2882-1.3521-.9875c-.6424.3008.3656,1.566.3656,1.566s-.1509.708-.2361.9866l-.6228.236s-.3637-1.0079-.6867-1.0939a11.8408,11.8408,0,0,0-1.7434-.0231c-.1446.078-.27.1384-.3514.1748a.4306.4306,0,0,0,.2937.5349,1.9248,1.9248,0,0,0,1.05.1935s-.02.6219.1073.6858a2.281,2.281,0,0,1-.708.1722c-.3,0-2.0805-.7506-2.0805-1.0949,0-.3425,1.2448-.45,1.2448-.45s.039-.0169.0922-.0417a.3141.3141,0,0,1,.315-.1731l.0364-.0017c.35-.1872.779-.4649.779-.7063,0-.4072-.5155-.7514-1.3948-.7514a3.9513,3.9513,0,0,0-1.888.58c-.2785.15-.9014.2359-1.3948.4932s-1.4585,1.2652-1.7593,1.4586a6.3374,6.3374,0,0,1-.75.3238,7.5035,7.5035,0,0,0,1.5562,3.1923,1.0832,1.0832,0,0,1,1.227.0266s4.5462.0622,5.3553-.4365,1.5562-1.369,1.9928-1.4932a2.4731,2.4731,0,0,0,1.0575-.6858,8.0047,8.0047,0,0,0,1.04-2.0859C57.053,23.868,56.494,22.4307,56.0007,22.4307Z" fill="#d66924" style="mix-blend-mode: overlay"/>
        <path d="M45.1881,25.87a3.8326,3.8326,0,0,0,1.2741,2.7433" fill="none" stroke="#6d6d6d" stroke-linecap="round" stroke-miterlimit="10"/>
        <g>
          <path d="M51.3818,23.6045c-.1712.3558-.9679.4675-1.3309.5128-.4729.0594-.9262.141-1.3947.21-.5136.0762-1.3406.18-1.612.6831-.3435.64,1.3609,1.52,1.8454,1.6316.3318.0763,1.5012.2538,1.7656.0515.5855-.4481-.4472-.944-.7516-1.1055-.3291-.1757-1.1888-.6087-.6689-.9378a7.3764,7.3764,0,0,1,.8154-.0727,5.3591,5.3591,0,0,0,.9121-.29.7685.7685,0,0,0,.56-.66Z" fill="#d66924" opacity="0.5"/>
          <path d="M52.0419,24.6434c.3674-.0186.8118-.2085.9574.2794a2.5084,2.5084,0,0,1,.094.5369c.0035.3132-.1793.2918-.4507.3673-.66.1827-.2946-.473-.7648-.575a2.5,2.5,0,0,1-.7666-.2635c-.0745-.0435-.3363-.165-.31-.2848.03-.1375.2636.0266.339.0426A3.2915,3.2915,0,0,0,52.0419,24.6434Z" fill="#d66924" opacity="0.5"/>
          <path d="M54.3833,22.62c-.3611.2281-.2893.5572-.0311.8376a1.7428,1.7428,0,0,0,.3594.2839,2.8776,2.8776,0,0,1,.3531.19c.2191.1846.0923.4747-.0816.6512a2.7229,2.7229,0,0,1-.4161.2947,2.6234,2.6234,0,0,1-.339.2493c-.1623.08-.2643.1242-.28-.1065a1.0254,1.0254,0,0,1,.0905-.4108,1.1149,1.1149,0,0,0,.063-.5457,2.16,2.16,0,0,0-.2271-.4312.9616.9616,0,0,1-.05-.8863.42.42,0,0,1,.5128-.1419Z" fill="#d66924" opacity="0.5"/>
          <path d="M53.3612,25.5386s1.8757-.5722,1.9714-.6512a7.7989,7.7989,0,0,0,1.3025-2.2022" fill="none" stroke="#d66924" stroke-linecap="round" stroke-linejoin="round" stroke-width="0.8" opacity="0.5"/>
          <path d="M55.9253,23.5068a1.6284,1.6284,0,0,1-.2688.9662,4.615,4.615,0,0,1-.6947.9343,3.7952,3.7952,0,0,1-1.3415.5785,6.5176,6.5176,0,0,1-1.1836.2449,1.74,1.74,0,0,1-.74.0292,1.1889,1.1889,0,0,1,.692-.4143c.3753-.1366.7684-.2334,1.1428-.3611.6423-.22,1.5722-.4356,1.8215-1.149a3.3636,3.3636,0,0,0,.0736-1.3113,1.1013,1.1013,0,0,1,.1677-.7311c.1748-.2325.4391-.13.3948.1393A6.6784,6.6784,0,0,0,55.9253,23.5068Z" fill="#d66924" opacity="0.5"/>
        </g>
      </g>
    </g>
  </g>
</svg>
