<svg id="Layer_1" data-name="Layer 1" xmlns="http://www.w3.org/2000/svg" xmlns:xlink="http://www.w3.org/1999/xlink" viewBox="0 0 64 64"><defs><style>.cls-1{fill:#fff;}.cls-11,.cls-19,.cls-2,.cls-22,.cls-23,.cls-26,.cls-27,.cls-28,.cls-29,.cls-32{stroke:#6d6d6d;}.cls-11,.cls-19,.cls-2,.cls-22,.cls-23,.cls-26,.cls-27,.cls-28,.cls-29,.cls-32,.cls-33,.cls-34{stroke-linecap:round;stroke-linejoin:round;}.cls-2{fill:url(#linear-gradient);}.cls-3{fill:url(#linear-gradient-2);}.cls-11,.cls-4{fill:#6d6d6d;}.cls-5{fill:url(#linear-gradient-3);}.cls-6{fill:url(#linear-gradient-4);}.cls-7{fill:url(#linear-gradient-5);}.cls-8{fill:url(#linear-gradient-6);}.cls-9{fill:url(#linear-gradient-7);}.cls-10{fill:url(#linear-gradient-8);}.cls-12{fill:url(#linear-gradient-9);}.cls-13{fill:url(#linear-gradient-10);}.cls-14{fill:url(#linear-gradient-11);}.cls-15{fill:url(#linear-gradient-12);}.cls-16{fill:url(#linear-gradient-13);}.cls-17{fill:url(#linear-gradient-14);}.cls-18{fill:url(#linear-gradient-15);}.cls-19{fill:url(#linear-gradient-16);}.cls-20{fill:url(#linear-gradient-17);}.cls-21{fill:#343434;}.cls-22{fill:url(#linear-gradient-18);}.cls-23{fill:url(#linear-gradient-19);}.cls-24{fill:url(#linear-gradient-20);}.cls-25{fill:#00415f;}.cls-26{fill:url(#linear-gradient-21);}.cls-27{fill:url(#linear-gradient-22);}.cls-28{fill:url(#linear-gradient-23);}.cls-29{fill:url(#linear-gradient-24);}.cls-30,.cls-32,.cls-33,.cls-34{fill:none;}.cls-30{stroke:#fff;stroke-miterlimit:10;}.cls-31{fill:#939393;}.cls-33{stroke:#343434;}.cls-34{stroke:#00415f;}.cls-35{fill:url(#linear-gradient-25);}.cls-36{fill:#96989a;}.cls-37{fill:url(#linear-gradient-26);}.cls-38{fill:url(#linear-gradient-27);}.cls-39{fill:url(#linear-gradient-28);}.cls-40{fill:url(#linear-gradient-29);}.cls-41{fill:url(#linear-gradient-30);}.cls-42{fill:url(#linear-gradient-31);}.cls-43{fill:url(#linear-gradient-32);}.cls-44{mask:url(#mask);}</style><linearGradient id="linear-gradient" x1="35.42" y1="46.67" x2="55.63" y2="46.67" gradientUnits="userSpaceOnUse"><stop offset="0.01" stop-color="#4d4d4d"/><stop offset="1" stop-color="#c7c7c9"/></linearGradient><linearGradient id="linear-gradient-2" x1="57.39" y1="35.83" x2="31.49" y2="51.83" gradientUnits="userSpaceOnUse"><stop offset="0" stop-color="#f0f0f0"/><stop offset="1" stop-color="#b3b3b3"/></linearGradient><linearGradient id="linear-gradient-3" x1="51.22" y1="46.16" x2="54.52" y2="46.16" xlink:href="#linear-gradient-2"/><linearGradient id="linear-gradient-4" x1="38.59" y1="38.19" x2="41.31" y2="38.19" xlink:href="#linear-gradient-2"/><linearGradient id="linear-gradient-5" x1="39.5" y1="42.93" x2="52.14" y2="42.93" xlink:href="#linear-gradient"/><linearGradient id="linear-gradient-6" x1="39.7" y1="39.9" x2="52.35" y2="39.9" xlink:href="#linear-gradient-2"/><linearGradient id="linear-gradient-7" x1="44.26" y1="29.66" x2="50.75" y2="29.66" xlink:href="#linear-gradient-2"/><linearGradient id="linear-gradient-8" x1="49.25" y1="34.41" x2="41.77" y2="34.41" gradientUnits="userSpaceOnUse"><stop offset="0" stop-color="#f0f0f0"/><stop offset="0.12" stop-color="#e5e5e5"/><stop offset="0.33" stop-color="#c9c9c9"/><stop offset="0.59" stop-color="#9b9b9b"/><stop offset="0.91" stop-color="#5d5d5d"/><stop offset="1" stop-color="#4a4a4a"/></linearGradient><linearGradient id="linear-gradient-9" x1="52.26" y1="29.86" x2="40.48" y2="38.39" xlink:href="#linear-gradient-2"/><linearGradient id="linear-gradient-10" x1="42.95" y1="20.08" x2="37.78" y2="24.96" gradientUnits="userSpaceOnUse"><stop offset="0.18" stop-color="#f0f0f0"/><stop offset="0.3" stop-color="#e9e9e9"/><stop offset="0.47" stop-color="#d5d5d5"/><stop offset="0.68" stop-color="#b5b5b5"/><stop offset="0.91" stop-color="#888"/><stop offset="1" stop-color="#757575"/></linearGradient><linearGradient id="linear-gradient-11" x1="36.29" y1="10.74" x2="31.88" y2="14.67" gradientUnits="userSpaceOnUse"><stop offset="0.41" stop-color="#f0f0f0"/><stop offset="0.61" stop-color="#d0d0d0"/><stop offset="1" stop-color="#8c8c8c"/></linearGradient><linearGradient id="linear-gradient-12" x1="29.96" y1="15.73" x2="37.92" y2="15.73" xlink:href="#linear-gradient-2"/><linearGradient id="linear-gradient-13" x1="32.39" y1="15.85" x2="35.95" y2="15.85" xlink:href="#linear-gradient-2"/><linearGradient id="linear-gradient-14" x1="23.11" y1="20.3" x2="28.15" y2="25.34" gradientUnits="userSpaceOnUse"><stop offset="0" stop-color="#f0f0f0"/><stop offset="1" stop-color="#919191"/></linearGradient><linearGradient id="linear-gradient-15" x1="15.13" y1="29.86" x2="24.63" y2="29.86" xlink:href="#linear-gradient-14"/><linearGradient id="linear-gradient-16" x1="36.72" y1="14.99" x2="29.47" y2="20.62" xlink:href="#linear-gradient-2"/><linearGradient id="linear-gradient-17" x1="14.75" y1="31.05" x2="22.89" y2="31.05" xlink:href="#linear-gradient-2"/><linearGradient id="linear-gradient-18" x1="22.41" y1="47.75" x2="45.82" y2="47.75" xlink:href="#linear-gradient-2"/><linearGradient id="linear-gradient-19" x1="16.91" y1="41.43" x2="30.74" y2="41.43" xlink:href="#linear-gradient-2"/><linearGradient id="linear-gradient-20" x1="18.87" y1="45.49" x2="46.58" y2="22.91" gradientUnits="userSpaceOnUse"><stop offset="0" stop-color="#3c7e96"/><stop offset="0.99" stop-color="#91d4ed"/><stop offset="1" stop-color="#92d5ee"/></linearGradient><linearGradient id="linear-gradient-21" x1="22.2" y1="50.5" x2="34.8" y2="50.5" xlink:href="#linear-gradient-2"/><linearGradient id="linear-gradient-22" x1="18.59" y1="50.21" x2="22.5" y2="50.21" xlink:href="#linear-gradient-2"/><linearGradient id="linear-gradient-23" x1="16.32" y1="37.46" x2="29.22" y2="37.46" xlink:href="#linear-gradient-2"/><linearGradient id="linear-gradient-24" x1="16.32" y1="43.39" x2="18.74" y2="43.39" xlink:href="#linear-gradient-2"/><linearGradient id="linear-gradient-25" x1="14.29" y1="25.86" x2="29.06" y2="37.91" gradientTransform="translate(-3.62 -1.13) rotate(-0.6)" gradientUnits="userSpaceOnUse"><stop offset="0" stop-color="#757575"/><stop offset="0.1" stop-color="#929292"/><stop offset="0.23" stop-color="#b4b4b4"/><stop offset="0.37" stop-color="#cecece"/><stop offset="0.52" stop-color="#e1e1e1"/><stop offset="0.66" stop-color="#ececec"/><stop offset="0.82" stop-color="#f0f0f0"/></linearGradient><linearGradient id="linear-gradient-26" x1="18.72" y1="37.79" x2="30.27" y2="34.52" xlink:href="#linear-gradient"/><linearGradient id="linear-gradient-27" x1="12.41" y1="40.03" x2="36" y2="37.18" xlink:href="#linear-gradient"/><linearGradient id="linear-gradient-28" x1="15.36" y1="41.49" x2="17.46" y2="41.49" gradientTransform="translate(-3.62 -1.13) rotate(-0.6)" xlink:href="#linear-gradient"/><linearGradient id="linear-gradient-29" x1="6.48" y1="30.24" x2="24.83" y2="24.79" xlink:href="#linear-gradient"/><linearGradient id="linear-gradient-30" x1="3.26" y1="36.98" x2="21.28" y2="26.52" xlink:href="#linear-gradient"/><linearGradient id="linear-gradient-31" x1="5.42" y1="41" x2="25.52" y2="38.1" xlink:href="#linear-gradient-14"/><linearGradient id="linear-gradient-32" x1="2.71" y1="34.68" x2="22.4" y2="30.68" xlink:href="#linear-gradient-14"/><mask id="mask" x="3.38" y="18.76" width="28.37" height="28.65" maskUnits="userSpaceOnUse"><rect class="cls-1" x="3.38" y="18.76" width="28.37" height="28.65"/><polygon points="16.74 24.58 14.56 26.9 22.85 34.1 25.41 31.64 16.74 24.58"/></mask></defs><title>28-25769_DELSWG2_AP_AppIcon_r21x</title><g id="DELMIA___28-DELMIA_Spot_Weld_Programming" data-name="DELMIA _ 28-DELMIA Spot Weld Programming"><path class="cls-2" d="M35.75,41.78c-1,2.68,2.65,6.51,8.14,8.54s10.74,1.52,11.73-1.16A10.87,10.87,0,0,0,56,47.47"/><path class="cls-3" d="M50.87,49.35a19.29,19.29,0,0,1-6.59-1.29c-5.88-2.18-9.61-6.24-8.49-9.24.65-1.75,2.79-2.76,5.87-2.76a19.29,19.29,0,0,1,6.59,1.29c5.88,2.18,9.61,6.24,8.49,9.25-.65,1.74-2.79,2.75-5.87,2.75Z"/><path class="cls-4" d="M41.66,36.56a18.74,18.74,0,0,1,6.42,1.26c5.53,2,9.2,5.9,8.19,8.6-.59,1.59-2.66,2.43-5.4,2.43a18.74,18.74,0,0,1-6.42-1.26c-5.53-2.05-9.2-5.9-8.19-8.6.59-1.59,2.66-2.43,5.4-2.43m0-1c-3.3,0-5.62,1.13-6.34,3.08-1.21,3.27,2.64,7.61,8.78,9.89a19.85,19.85,0,0,0,6.77,1.32c3.31,0,5.62-1.12,6.34-3.08,1.21-3.27-2.64-7.61-8.78-9.89a19.85,19.85,0,0,0-6.77-1.32Z"/><path class="cls-5" d="M53.1,46.94l-.31,0c-1-.1-1.6-.61-1.57-.92s.6-.62,1.42-.62l.3,0c1,.1,1.6.61,1.57.92S53.91,46.94,53.1,46.94Z"/><path class="cls-4" d="M52.64,45.88h.25a2,2,0,0,1,1,.37,1.79,1.79,0,0,1-.83.18l-.26,0a2,2,0,0,1-1-.36,1.8,1.8,0,0,1,.84-.18m0-1c-1,0-1.86.45-1.92,1.07s.84,1.35,2,1.47l.36,0c1,0,1.85-.45,1.91-1.07S54.17,45,53,44.9l-.35,0Z"/><path class="cls-6" d="M40,38.78c-.82,0-1.36-.36-1.36-.59s.54-.6,1.36-.6,1.36.36,1.36.6S40.77,38.78,40,38.78Z"/><path class="cls-4" d="M40,38.09a1.7,1.7,0,0,1,.62.1,2.18,2.18,0,0,1-1.24,0,1.7,1.7,0,0,1,.62-.1m0-1c-1,0-1.86.49-1.86,1.1s.83,1.09,1.86,1.09,1.86-.49,1.86-1.09S41,37.09,40,37.09Z"/><path class="cls-7" d="M45.65,46c-3.49-.08-6.2-1.75-6.15-3.8v-1.9a.47.47,0,0,1,.15-.35.51.51,0,0,1,.35-.15l11.65.27a.48.48,0,0,1,.36.16.49.49,0,0,1,.13.38L52,42.54c0,2-2.65,3.49-6.06,3.49Z"/><path class="cls-4" d="M40,40.33l11.64.27-.17,1.9c0,1.7-2.51,3-5.57,3h-.23C42.5,45.46,40,44,40,42.24V40.33m0-1a1,1,0,0,0-.7.29,1,1,0,0,0-.3.71v1.91c0,2.31,2.87,4.2,6.64,4.29h.26c3.68,0,6.49-1.71,6.57-4l.17-1.88a1,1,0,0,0-.25-.75,1,1,0,0,0-.73-.33L40,39.34Z"/><path class="cls-8" d="M45.94,43.61a9.27,9.27,0,0,1-4.33-1.1,3.22,3.22,0,0,1-1.9-2.75c0-2,2.68-3.57,6.15-3.57h.25a9,9,0,0,1,4.33,1.1A3.24,3.24,0,0,1,52.35,40c-.05,2-2.69,3.57-6.15,3.57Z"/><path class="cls-4" d="M45.86,36.69h.24c3.21.07,5.79,1.56,5.75,3.33s-2.55,3.08-5.65,3.08H46c-3.21-.07-5.79-1.57-5.74-3.34s2.54-3.08,5.65-3.08m0-1c-3.74,0-6.6,1.75-6.65,4.06a3.68,3.68,0,0,0,2.15,3.19,9.63,9.63,0,0,0,4.57,1.17h.27c3.73,0,6.59-1.74,6.65-4a3.72,3.72,0,0,0-2.16-3.2,9.71,9.71,0,0,0-4.57-1.16Z"/><path class="cls-9" d="M45.52,33.57a.46.46,0,0,1-.2,0c-.11,0-1.06-.52-1.06-2.22a6.76,6.76,0,0,1,3.21-5.25,2.46,2.46,0,0,1,1.18-.3c1,0,2.1.65,2.1,2.51l-.1.59a.49.49,0,0,1-.39.4l-4.09.85-.15,3a.49.49,0,0,1-.24.4A.5.5,0,0,1,45.52,33.57Z"/><path class="cls-4" d="M48.65,26.25c.8,0,1.6.52,1.6,2l-.09.5-4.47.93-.17,3.38s-.76-.34-.76-1.77a6.21,6.21,0,0,1,3-4.81,2,2,0,0,1,.94-.24m0-1a2.94,2.94,0,0,0-1.42.36,7.19,7.19,0,0,0-3.47,5.69A2.71,2.71,0,0,0,45.11,34a1,1,0,0,0,.93-.06,1,1,0,0,0,.48-.8l.13-2.61,3.71-.77a1,1,0,0,0,.79-.81l.08-.51a.88.88,0,0,0,0-.16c0-2.08-1.31-3-2.6-3Z"/><path class="cls-10" d="M46,41.84c-2,0-3.54-.83-3.54-1.94l.17-8.28a.51.51,0,0,1,.19-.39l2.45-1.85c.09-.06,1.9-1.38,2.92-2A2.47,2.47,0,0,1,49.41,27a.74.74,0,0,1,.69.37.43.43,0,0,1,0,.25l-.59,12.32C49.56,41,48,41.84,46,41.84Z"/><path class="cls-4" d="M49.41,27.49c.2,0,.24.09.24.09L49.06,39.9c0,.8-1.36,1.44-3,1.44s-3-.64-3-1.44l.17-8.27,2.44-1.85s1.86-1.35,2.87-1.94a2,2,0,0,1,.94-.35m0-1A2.9,2.9,0,0,0,48,27c-1,.61-2.88,1.94-2.95,2l-2.47,1.87a1,1,0,0,0-.39.77L42,39.88c0,1.43,1.7,2.46,4,2.46s4-1,4-2.44l.59-12.27a.92.92,0,0,0-.1-.49,1.23,1.23,0,0,0-1.14-.65Z"/><path class="cls-11" d="M49.21,26.32l-2.45-1.1s-4.47-.51-4.47,4.05c0,1.94.85,2.36.85,2.36l2.36,1.44v-3.8S47.19,26.23,49.21,26.32Z"/><path class="cls-12" d="M48.77,34.38a1.32,1.32,0,0,1-.66-.17,1.59,1.59,0,0,1-.7-1.44A3.74,3.74,0,0,1,48,31a2.89,2.89,0,0,1,2.22-1.6,1.25,1.25,0,0,1,.66.17c.86.5.93,1.91.16,3.22a2.89,2.89,0,0,1-2.22,1.6Z"/><path class="cls-4" d="M50.17,29.89a.8.8,0,0,1,.41.1c.6.35.59,1.49,0,2.53a2.42,2.42,0,0,1-1.79,1.36.8.8,0,0,1-.41-.1c-.6-.36-.59-1.49,0-2.54a2.43,2.43,0,0,1,1.79-1.35m0-1a3.31,3.31,0,0,0-2.65,1.85,4.14,4.14,0,0,0-.61,2,2.07,2.07,0,0,0,1,1.88,1.77,1.77,0,0,0,.91.24A3.33,3.33,0,0,0,51.42,33c.92-1.57.78-3.25-.33-3.9a1.83,1.83,0,0,0-.92-.24Z"/><path class="cls-13" d="M43.58,30.8a.87.87,0,0,1-.31-.07.41.41,0,0,1-.13-.1l-10-10.12a.51.51,0,0,1-.06-.63l3.8-5.82a.47.47,0,0,1,.38-.22h0a.49.49,0,0,1,.38.18L47.58,25.4c.2.24.62.76-1.52,3.19C45.33,29.58,44.28,30.8,43.58,30.8Z"/><path class="cls-4" d="M37.33,14.34l9.88,11.39c.33.42-1.52,2.53-1.52,2.53s-1.52,2-2.11,2a.15.15,0,0,1-.09,0l-10-10.12,3.79-5.82m0-1h-.06a1,1,0,0,0-.77.45l-3.8,5.82a1,1,0,0,0,.12,1.25L42.78,31a1.05,1.05,0,0,0,.27.2,1.18,1.18,0,0,0,.53.12c.33,0,1.09,0,2.89-2.41,2.09-2.39,2-3.23,1.52-3.79l-9.9-11.42a1,1,0,0,0-.76-.35Z"/><path class="cls-14" d="M32.1,20.57a.43.43,0,0,1-.19,0l-2.64-1.12A3.29,3.29,0,0,1,27.32,17a6.33,6.33,0,0,1,.32-3.74c.83-2.17,2.63-3.69,4.35-3.69a2.77,2.77,0,0,1,1,.19l2.9,1.2a.51.51,0,0,1,.27.27.5.5,0,0,1,0,.38l-3.63,8.69a.49.49,0,0,1-.27.28A.58.58,0,0,1,32.1,20.57Z"/><path class="cls-4" d="M32,10a2.25,2.25,0,0,1,.85.16l2.89,1.19L32.1,20.07,29.46,19c-1.68-.64-2.29-3.13-1.35-5.55C28.89,11.37,30.5,10,32,10m0-1h0c-2,0-3.89,1.61-4.82,4a6.93,6.93,0,0,0-.34,4,3.87,3.87,0,0,0,2.27,2.81L31.71,21a.91.91,0,0,0,.39.08,1,1,0,0,0,.38-.07,1,1,0,0,0,.55-.54l3.62-8.69a.94.94,0,0,0,0-.77,1,1,0,0,0-.54-.54l-2.89-1.2A3.27,3.27,0,0,0,32,9Z"/><path class="cls-15" d="M33.1,20.77a2.93,2.93,0,0,1-1-.19,3.35,3.35,0,0,1-2-2.46,6.41,6.41,0,0,1,.32-3.74c.84-2.17,2.63-3.69,4.36-3.69a2.72,2.72,0,0,1,1,.19c1.94.74,2.68,3.53,1.65,6.2-.84,2.17-2.63,3.69-4.35,3.69Z"/><path class="cls-4" d="M34.79,11.19a2.4,2.4,0,0,1,.84.15c1.69.65,2.29,3.14,1.36,5.56-.78,2-2.39,3.37-3.89,3.37a2.24,2.24,0,0,1-.84-.16C30.58,19.46,30,17,30.9,14.56c.78-2,2.4-3.37,3.89-3.37m0-1c-2,0-3.9,1.61-4.82,4a6.77,6.77,0,0,0-.34,4,3.89,3.89,0,0,0,2.27,2.81,3.49,3.49,0,0,0,1.2.22c2,0,3.9-1.61,4.83-4,1.14-3,.29-6-1.94-6.85a3.23,3.23,0,0,0-1.2-.22Z"/><path class="cls-16" d="M33.09,18.32a1.33,1.33,0,0,1-.66-1.05,3.89,3.89,0,0,1,.31-2.1c.55-1.33,1.51-2,2.17-2a1,1,0,0,1,.33.06l.71.35-2.27,5Z"/><path class="cls-4" d="M34.91,13.65H35l.27.14-1.88,4.12-.13-.05a.89.89,0,0,1-.37-.69,3.57,3.57,0,0,1,.28-1.82c.49-1.18,1.3-1.71,1.71-1.71m0-1A3.38,3.38,0,0,0,32.27,15c-.69,1.67-.41,3.38.64,3.81l1,.4,2.67-5.87-1.18-.57a1.34,1.34,0,0,0-.52-.1Z"/><path class="cls-17" d="M22.32,30.77a.49.49,0,0,1-.32-.12L18.54,27.7a.51.51,0,0,1-.07-.69l9.28-12.15c.55-.73.81-.73.94-.73a.6.6,0,0,1,.49.3,4.23,4.23,0,0,1,.2,1.39,10.53,10.53,0,0,0,.33,2.47,5.92,5.92,0,0,0,1.85,2.46.52.52,0,0,1,.21.36.53.53,0,0,1-.14.4l-8.95,9.11A.51.51,0,0,1,22.32,30.77Z"/><path class="cls-4" d="M28.69,14.63a.05.05,0,0,1,0,0c.19.38.08,2.62.5,3.8a6.6,6.6,0,0,0,2,2.7l-8.95,9.11-3.46-2.95,9.29-12.15s.4-.54.54-.54m0-1h0c-.46,0-.85.27-1.34.94L18.07,26.71a1,1,0,0,0,.14,1.37l3.46,3A1,1,0,0,0,23,31L32,21.86a1,1,0,0,0-.13-1.52,5.42,5.42,0,0,1-1.67-2.22,10.21,10.21,0,0,1-.3-2.33,4.47,4.47,0,0,0-.25-1.58,1,1,0,0,0-.94-.58Z"/><path class="cls-18" d="M22.75,34.17a.5.5,0,0,1-.33-.12l-7.11-6.13a.47.47,0,0,1-.17-.35.51.51,0,0,1,.13-.37l1.38-1.48a.59.59,0,0,1,.4-.17c.57,0,2.53,1.59,4.08,2.93,2.29,2,3.47,3.2,3.5,3.64a.57.57,0,0,1-.13.4L23.11,34A.48.48,0,0,1,22.75,34.17Z"/><path class="cls-4" d="M17.05,26.05a19.19,19.19,0,0,1,3.76,2.81c2,1.69,3.45,3.18,3.32,3.33l-1.38,1.48-7.12-6.13L17,26.06h0m0-1a1.08,1.08,0,0,0-.79.36L14.9,26.86A1,1,0,0,0,15,28.3l7.11,6.13a1,1,0,0,0,1.39-.08l1.38-1.48a1.05,1.05,0,0,0,.27-.78c0-.33-.06-.88-3.67-4s-4.13-3.05-4.41-3.05Z"/><path class="cls-19" d="M37.09,17c.7-1.67.42-3.37-.63-3.81s-2.46.56-3.15,2.23-.42,3.38.63,3.81S36.4,18.63,37.09,17Z"/><path class="cls-20" d="M22.34,34.62c-.57,0-2.54-1.59-4.09-2.92-2.29-2-3.46-3.21-3.5-3.65a.57.57,0,0,1,.13-.4.59.59,0,0,1,.41-.18c.57,0,2.54,1.59,4.09,2.92.95.83,1.83,1.64,2.47,2.28.83.83,1.28,1.32.9,1.77A.59.59,0,0,1,22.34,34.62Z"/><path class="cls-4" d="M15.29,28a18.93,18.93,0,0,1,3.76,2.8c2,1.7,3.45,3.19,3.32,3.34h0a18.93,18.93,0,0,1-3.76-2.8c-2-1.69-3.45-3.19-3.32-3.34h0m0-1a1.08,1.08,0,0,0-.79.36,1.13,1.13,0,0,0-.25.75c0,.33.07.88,3.68,4s4.12,3,4.41,3a1.08,1.08,0,0,0,.79-.36c.7-.81-.13-1.64-.93-2.45-.64-.64-1.53-1.46-2.5-2.29C16.17,27,15.58,27,15.29,27Z"/><path class="cls-21" d="M32,10a2.45,2.45,0,0,1,.85.15l2.89,1.2h0a3.26,3.26,0,0,1,1.69,3l9.36,10.79h0l2.45,1.09H49.1c.62.18,1.15.73,1.15,1.94l-.09.5-.57.12-.05,1.19a1.35,1.35,0,0,1,.64-.18.79.79,0,0,1,.4.1c.6.35.59,1.49,0,2.53a3.06,3.06,0,0,1-1.2,1.2l-.17,3.54a3.75,3.75,0,0,1,2.62,2.37c3.33,2.08,5.22,4.76,4.46,6.79l-.65,2.74c-.58,1.57-2.64,2.4-5.36,2.4a18.61,18.61,0,0,1-6.37-1.24c-5.49-2-9.13-5.86-8.14-8.54L36.26,39c.59-1.59,2.66-2.43,5.4-2.43.45,0,.91,0,1.39.07l.11-5s-.85-.42-.85-2.36c0-.06,0-.12,0-.18L33.6,20.21a2.59,2.59,0,0,1-.48,0,2.44,2.44,0,0,1-.8-.13l-10,10.11c1.14,1.05,1.87,1.84,1.78,1.95l-1.38,1.48-.38.44h0a18.93,18.93,0,0,1-3.76-2.8A32.08,32.08,0,0,1,15.26,28s.19-.36.37-.44L17,26.05s0,0,0,0a7.52,7.52,0,0,1,1.84,1.23l8.79-11.51a6.21,6.21,0,0,1,.43-2.37C28.89,11.36,30.5,10,32,10m0-.8h0c-1.88,0-3.74,1.56-4.63,3.88a7.07,7.07,0,0,0-.48,2.39L18.74,26.15c-1.22-.91-1.47-.91-1.69-.91a.87.87,0,0,0-.64.29l-1.28,1.38a1.87,1.87,0,0,0-.58.69.81.81,0,0,0,.09.88,32.87,32.87,0,0,0,3.42,3.43c3.48,3,4.06,3,4.28,3a.9.9,0,0,0,.63-.28l.38-.45,1.36-1.45c.55-.63.15-1.22-1.21-2.52L32.57,21a2.5,2.5,0,0,0,.55.05h.18l8.21,8.35A3.71,3.71,0,0,0,42.35,32l-.08,3.79-.61,0c-3.22,0-5.46,1.08-6.15,3a.57.57,0,0,0,0,.14L35,41.56c-.55,1.58.1,3.45,1.83,5.27a18.33,18.33,0,0,0,6.8,4.23,19.37,19.37,0,0,0,6.65,1.29c3.19,0,5.42-1.06,6.11-2.93l0-.09L57,46.64c.82-2.32-.91-5.18-4.55-7.53A4.41,4.41,0,0,0,50,36.73l.12-2.56a4.09,4.09,0,0,0,1.11-1.25c.86-1.48.75-3-.27-3.63a.8.8,0,0,0-.16-.08,1,1,0,0,0,.13-.33l.08-.5a.69.69,0,0,0,0-.13,2.62,2.62,0,0,0-1.25-2.51,1,1,0,0,0-.24-.17l-2.31-1-9-10.44a4,4,0,0,0-2-3.37l-.17-.1-2.9-1.2A3.21,3.21,0,0,0,32,9.22Z"/><polygon class="cls-22" points="30.74 43.31 18.73 47.08 22.2 52.2 34.88 47.81 30.74 43.31"/><polygon class="cls-23" points="29.22 35.78 16.91 39.35 18.73 47.08 30.74 43.31 29.22 35.78"/><path class="cls-24" d="M19.75,45.68a.45.45,0,0,1-.25-.07.49.49,0,0,1-.24-.32l-1.12-4.74a.51.51,0,0,1,.35-.6l9.68-2.77.14,0a.52.52,0,0,1,.49.4l.93,4.63a.5.5,0,0,1-.35.58L19.9,45.66Z"/><path class="cls-25" d="M28.31,37.66l.93,4.63-9.49,2.89-1.12-4.75,9.68-2.77m0-1a1.35,1.35,0,0,0-.28,0l-9.68,2.77a1,1,0,0,0-.7,1.19l1.13,4.75a1,1,0,0,0,.47.64,1.09,1.09,0,0,0,.5.13.92.92,0,0,0,.29,0l9.49-2.89a1,1,0,0,0,.69-1.16l-.93-4.62a1,1,0,0,0-.46-.66,1,1,0,0,0-.52-.15Z"/><polygon class="cls-26" points="34.8 48.78 22.23 53.34 22.2 52.2 34.75 47.67 34.8 48.78"/><polygon class="cls-27" points="19 47.08 18.59 47.71 22.5 53.34 22.5 52.2 19 47.08"/><polygon class="cls-28" points="28.57 35.56 16.32 39.06 16.91 39.35 29.22 35.78 28.57 35.56"/><polygon class="cls-29" points="18.73 47.08 18.32 47.71 16.32 39.06 16.91 39.35 18.73 47.08"/><line class="cls-30" x1="19.17" y1="41.42" x2="27.75" y2="39"/><line class="cls-30" x1="19.75" y1="44" x2="25.96" y2="42.17"/><polygon class="cls-31" points="23.25 50 21.75 48 30.75 45 32.25 47 23.25 50"/><polyline class="cls-32" points="26.72 50.21 25.9 48.98 29.15 47.9 30.13 49.1"/><polygon class="cls-33" points="34.88 47.9 30.74 43.4 29.22 35.87 28.57 35.65 16.32 39.15 18.32 47.8 22.23 53.42 34.8 48.87 34.76 47.94 34.88 47.9"/><path class="cls-34" d="M30.75,50s1,5,5,3a32.51,32.51,0,0,1,8.14-2.69"/><path class="cls-35" d="M24.16,38.27a.5.5,0,0,1-.31-.1L9.51,26.93a.5.5,0,0,1-.18-.34.48.48,0,0,1,.11-.38l2.29-2.69a.49.49,0,0,1,.36-.17l1.32,0h.13a3.67,3.67,0,0,1,1.19.81c.7.63,2.54,2.21,2.54,2.21a.5.5,0,0,1,.05.72l-.68.75,6,5.08.56-.6a.49.49,0,0,1,.37-.16.54.54,0,0,1,.33.12l2.78,2.44a.51.51,0,0,1,.05.7l-2.21,2.69A.51.51,0,0,1,24.16,38.27Z"/><path class="cls-4" d="M13.41,23.82a3,3,0,0,1,1,.7c.7.62,2.55,2.21,2.55,2.21l-1,1.13,6.79,5.72.89-.94,2.78,2.44-2.22,2.69L9.82,26.54l2.29-2.69,1.3,0m0-1h0l-1.31,0a1,1,0,0,0-.74.35L9.06,25.89a1,1,0,0,0-.23.75,1,1,0,0,0,.38.69L23.54,38.56a1,1,0,0,0,.62.21,1,1,0,0,0,.77-.36l2.22-2.7A1,1,0,0,0,27,34.33l-2.78-2.44a1,1,0,0,0-1.39.07l-.24.25-5.27-4.44.33-.36a1.05,1.05,0,0,0,.26-.74A1,1,0,0,0,17.6,26s-1.84-1.59-2.54-2.21a4,4,0,0,0-1.39-.92,1.09,1.09,0,0,0-.26,0Z"/><path class="cls-36" d="M9.82,26.54,22,36.93l2.19.93s.17,0-.4-.5l-11.73-10a3.1,3.1,0,0,0-1.2-.7A6,6,0,0,0,9.82,26.54Z"/><path class="cls-32" d="M24.17,37.86s.17,0-.41-.5L12,27.33a3.08,3.08,0,0,0-1.21-.7,5.89,5.89,0,0,0-1-.09"/><polygon class="cls-37" points="20.36 38.88 22.43 36.28 20.63 35.7 18.64 38.05 20.36 38.88"/><polygon class="cls-38" points="12.85 39.41 15.14 40.92 20.36 38.88 18.64 38.05 12.85 39.41"/><polygon class="cls-39" points="12.71 39.31 14.27 40.29 13.61 41.06 12.16 39.99 12.71 39.31"/><polygon class="cls-40" points="10.92 27.48 8.64 30.25 9.87 30.67 12.36 27.68 10.92 27.48"/><polygon class="cls-41" points="9.04 37.23 7.86 36.48 8.64 30.25 9.87 30.67 9.04 37.23"/><polygon class="cls-42" points="23.2 36.98 21 39.74 14.96 41.9 13.61 41.06 14.27 40.29 15.25 40.86 20.36 38.88 22.43 36.28 23.2 36.98"/><polygon class="cls-43" points="13.19 28.46 11.04 30.98 9.98 36.79 10.92 37.51 10.27 38.19 9.04 37.23 9.87 30.67 12.36 27.68 13.19 28.46"/><line class="cls-32" x1="18.9" y1="38.24" x2="20.86" y2="39.03"/><line class="cls-32" x1="8.74" y1="30.58" x2="9.94" y2="30.99"/><g class="cls-44"><path class="cls-21" d="M13.41,23.82a3,3,0,0,1,1,.7c.7.62,2.55,2.21,2.55,2.21l-1,1.13L21,32.17l1.68,1.41.89-.94,2.78,2.44-2.21,2.68c.08.1,0,.1,0,.1h0l-1.27-.54L21,39.74l-5.95,2.13-.05.07L12.2,40l.51-.63,1.51.39,4.42-1.7,2-2.32L12.72,29,11,31,10,36.79l.94.72-.65.68L9,37.23l-1.18-.75.78-6.23,2.28-2.77h0l-1.1-.94,2.29-2.69,1.3,0m0-1h0l-1.31,0a1,1,0,0,0-.74.35L9.06,25.89a1,1,0,0,0,.11,1.41l.35.3-1.65,2a1,1,0,0,0-.22.51l-.78,6.24a1,1,0,0,0,.45,1l1.14.73,1.2.93a1,1,0,0,0,.61.21,1,1,0,0,0,.73-.31l.64-.69a.94.94,0,0,0,.27-.76,1,1,0,0,0-.38-.71l-.45-.35L12,31.43l.86-1,6.36,5.43L18,37.21,14.16,38.7,13,38.39a1.07,1.07,0,0,0-.25,0,1,1,0,0,0-.78.37l-.51.63a1,1,0,0,0-.21.77,1,1,0,0,0,.42.68l2.8,1.95a1,1,0,0,0,.57.18.75.75,0,0,0,.21,0,1,1,0,0,0,.42-.2l5.71-2a1.09,1.09,0,0,0,.44-.32l1.45-1.83.57.24a1,1,0,0,0,.39.08,1.06,1.06,0,0,0,.91-.55,1,1,0,0,0,.07-.19l2-2.41A1,1,0,0,0,27,34.33l-2.78-2.44a1,1,0,0,0-1.39.07l-.24.25-.95-.8-4.32-3.64.33-.36a1.05,1.05,0,0,0,.26-.74A1,1,0,0,0,17.6,26s-1.84-1.59-2.54-2.21a4,4,0,0,0-1.39-.92,1.09,1.09,0,0,0-.26,0Z"/></g></g></svg>