<svg id="Layer_1" data-name="Layer 1" xmlns="http://www.w3.org/2000/svg" xmlns:xlink="http://www.w3.org/1999/xlink" viewBox="0 0 64 64"><defs><style>.cls-1{fill:#fff;}.cls-11,.cls-19,.cls-2{stroke:#6d6d6d;}.cls-11,.cls-19,.cls-2,.cls-25{stroke-linecap:round;stroke-linejoin:round;}.cls-2{fill:url(#linear-gradient);}.cls-3{fill:url(#linear-gradient-2);}.cls-11,.cls-4{fill:#6d6d6d;}.cls-5{fill:url(#linear-gradient-3);}.cls-6{fill:url(#linear-gradient-4);}.cls-7{fill:url(#linear-gradient-5);}.cls-8{fill:url(#linear-gradient-6);}.cls-9{fill:url(#linear-gradient-7);}.cls-10{fill:url(#linear-gradient-8);}.cls-12{fill:url(#linear-gradient-9);}.cls-13{fill:url(#linear-gradient-10);}.cls-14{fill:url(#linear-gradient-11);}.cls-15{fill:url(#linear-gradient-12);}.cls-16{fill:url(#linear-gradient-13);}.cls-17{fill:url(#linear-gradient-14);}.cls-18{fill:url(#linear-gradient-15);}.cls-19{fill:url(#linear-gradient-16);}.cls-20{fill:url(#linear-gradient-17);}.cls-21{fill:#343434;}.cls-22{fill:url(#linear-gradient-18);}.cls-23{fill:#00415f;}.cls-24{fill:url(#linear-gradient-19);}.cls-25{fill:none;stroke:#00415f;}.cls-26{fill:url(#linear-gradient-20);}.cls-27{fill:url(#linear-gradient-21);}.cls-28{fill:url(#linear-gradient-22);}.cls-29{fill:url(#linear-gradient-23);}.cls-30{fill:url(#linear-gradient-24);}.cls-31{fill:url(#linear-gradient-25);}.cls-32{fill:url(#linear-gradient-26);}.cls-33{mask:url(#mask);}</style><linearGradient id="linear-gradient" x1="34.92" y1="47.17" x2="55.13" y2="47.17" gradientUnits="userSpaceOnUse"><stop offset="0.01" stop-color="#4d4d4d"/><stop offset="1" stop-color="#c7c7c9"/></linearGradient><linearGradient id="linear-gradient-2" x1="56.89" y1="36.33" x2="30.99" y2="52.33" gradientUnits="userSpaceOnUse"><stop offset="0" stop-color="#f0f0f0"/><stop offset="1" stop-color="#b3b3b3"/></linearGradient><linearGradient id="linear-gradient-3" x1="50.72" y1="46.66" x2="54.02" y2="46.66" xlink:href="#linear-gradient-2"/><linearGradient id="linear-gradient-4" x1="38.09" y1="38.69" x2="40.81" y2="38.69" xlink:href="#linear-gradient-2"/><linearGradient id="linear-gradient-5" x1="39.5" y1="43.43" x2="52.14" y2="43.43" xlink:href="#linear-gradient"/><linearGradient id="linear-gradient-6" x1="39.2" y1="40.4" x2="51.85" y2="40.4" xlink:href="#linear-gradient-2"/><linearGradient id="linear-gradient-7" x1="43.76" y1="30.16" x2="50.25" y2="30.16" xlink:href="#linear-gradient-2"/><linearGradient id="linear-gradient-8" x1="48.75" y1="34.91" x2="41.27" y2="34.91" gradientUnits="userSpaceOnUse"><stop offset="0" stop-color="#f0f0f0"/><stop offset="0.12" stop-color="#e5e5e5"/><stop offset="0.33" stop-color="#c9c9c9"/><stop offset="0.59" stop-color="#9b9b9b"/><stop offset="0.91" stop-color="#5d5d5d"/><stop offset="1" stop-color="#4a4a4a"/></linearGradient><linearGradient id="linear-gradient-9" x1="51.76" y1="30.36" x2="39.98" y2="38.89" xlink:href="#linear-gradient-2"/><linearGradient id="linear-gradient-10" x1="42.45" y1="20.58" x2="37.28" y2="25.46" gradientUnits="userSpaceOnUse"><stop offset="0.18" stop-color="#f0f0f0"/><stop offset="0.3" stop-color="#e9e9e9"/><stop offset="0.47" stop-color="#d5d5d5"/><stop offset="0.68" stop-color="#b5b5b5"/><stop offset="0.91" stop-color="#888"/><stop offset="1" stop-color="#757575"/></linearGradient><linearGradient id="linear-gradient-11" x1="35.79" y1="11.24" x2="31.38" y2="15.17" gradientUnits="userSpaceOnUse"><stop offset="0.41" stop-color="#f0f0f0"/><stop offset="0.61" stop-color="#d0d0d0"/><stop offset="1" stop-color="#8c8c8c"/></linearGradient><linearGradient id="linear-gradient-12" x1="29.46" y1="16.23" x2="37.42" y2="16.23" xlink:href="#linear-gradient-2"/><linearGradient id="linear-gradient-13" x1="31.89" y1="16.35" x2="35.45" y2="16.35" xlink:href="#linear-gradient-2"/><linearGradient id="linear-gradient-14" x1="22.61" y1="20.8" x2="27.65" y2="25.83" gradientUnits="userSpaceOnUse"><stop offset="0" stop-color="#f0f0f0"/><stop offset="1" stop-color="#919191"/></linearGradient><linearGradient id="linear-gradient-15" x1="14.63" y1="30.36" x2="24.13" y2="30.36" xlink:href="#linear-gradient-14"/><linearGradient id="linear-gradient-16" x1="36.22" y1="15.49" x2="28.97" y2="21.12" xlink:href="#linear-gradient-2"/><linearGradient id="linear-gradient-17" x1="14.25" y1="31.54" x2="22.39" y2="31.54" xlink:href="#linear-gradient-2"/><linearGradient id="linear-gradient-18" x1="14" y1="24.23" x2="28.78" y2="36.28" gradientTransform="translate(-3.6 1.49) rotate(-0.6)" gradientUnits="userSpaceOnUse"><stop offset="0" stop-color="#3c7e96"/><stop offset="0.07" stop-color="#4e90a8"/><stop offset="0.19" stop-color="#66a9c1"/><stop offset="0.33" stop-color="#7abdd5"/><stop offset="0.48" stop-color="#88cae3"/><stop offset="0.67" stop-color="#90d3ec"/><stop offset="1" stop-color="#92d5ee"/></linearGradient><linearGradient id="linear-gradient-19" x1="16.53" y1="33.46" x2="19.4" y2="29.96" gradientUnits="userSpaceOnUse"><stop offset="0" stop-color="#175369"/><stop offset="0.08" stop-color="#347288"/><stop offset="0.18" stop-color="#5190a8"/><stop offset="0.29" stop-color="#69a9c1"/><stop offset="0.41" stop-color="#7bbdd5"/><stop offset="0.54" stop-color="#88cbe3"/><stop offset="0.71" stop-color="#90d3ec"/><stop offset="1" stop-color="#92d5ee"/></linearGradient><linearGradient id="linear-gradient-20" x1="31.42" y1="33.9" x2="18.44" y2="38.99" gradientUnits="userSpaceOnUse"><stop offset="0" stop-color="#92d5ee"/><stop offset="0.48" stop-color="#599bb4"/><stop offset="1" stop-color="#185971"/></linearGradient><linearGradient id="linear-gradient-21" x1="25.99" y1="38.39" x2="12.64" y2="41.38" xlink:href="#linear-gradient-20"/><linearGradient id="linear-gradient-22" x1="15.08" y1="39.86" x2="17.18" y2="39.86" xlink:href="#linear-gradient-18"/><linearGradient id="linear-gradient-23" x1="17.13" y1="26.59" x2="11.4" y2="29.89" gradientTransform="translate(-3.6 1.49) rotate(-0.6)" xlink:href="#linear-gradient-20"/><linearGradient id="linear-gradient-24" x1="16.06" y1="29.62" x2="6.92" y2="35.86" xlink:href="#linear-gradient-20"/><linearGradient id="linear-gradient-25" x1="5.15" y1="42" x2="25.24" y2="39.1" gradientTransform="matrix(1, 0, 0, 1, 0, 0)" xlink:href="#linear-gradient-18"/><linearGradient id="linear-gradient-26" x1="2.44" y1="35.68" x2="22.13" y2="31.68" gradientTransform="matrix(1, 0, 0, 1, 0, 0)" xlink:href="#linear-gradient-18"/><mask id="mask" x="3.11" y="19.76" width="28.37" height="28.65" maskUnits="userSpaceOnUse"><rect class="cls-1" x="3.11" y="19.76" width="28.37" height="28.65"/><polygon points="16.46 25.58 14.28 27.9 22.57 35.1 25.13 32.64 16.46 25.58"/></mask></defs><title>25-25772_DELSWG1_AP_AppIcon_r21x</title><g id="DELMIA___25-DELMIA_Spot_Welding_Simulation" data-name="DELMIA _ 25-DELMIA Spot Welding Simulation"><path class="cls-2" d="M35.25,42.28c-1,2.68,2.65,6.5,8.14,8.54s10.74,1.51,11.73-1.16A11,11,0,0,0,55.5,48"/><path class="cls-3" d="M50.37,49.84a19.26,19.26,0,0,1-6.59-1.28c-5.88-2.18-9.61-6.24-8.49-9.25.65-1.74,2.79-2.75,5.87-2.75a19.29,19.29,0,0,1,6.59,1.29c5.88,2.18,9.61,6.24,8.49,9.24-.65,1.75-2.79,2.75-5.87,2.75Z"/><path class="cls-4" d="M41.16,37.06a18.74,18.74,0,0,1,6.42,1.26c5.53,2,9.2,5.9,8.19,8.6-.59,1.59-2.66,2.42-5.4,2.42A18.71,18.71,0,0,1,44,48.09c-5.53-2.05-9.2-5.9-8.19-8.6.59-1.59,2.66-2.43,5.4-2.43m0-1c-3.3,0-5.62,1.12-6.34,3.08-1.21,3.27,2.64,7.61,8.78,9.89a19.82,19.82,0,0,0,6.77,1.31c3.31,0,5.62-1.12,6.34-3.07,1.21-3.27-2.64-7.61-8.78-9.89a19.85,19.85,0,0,0-6.77-1.32Z"/><path class="cls-5" d="M52.6,47.44l-.31,0c-1-.1-1.6-.61-1.57-.92s.6-.62,1.42-.62a1.51,1.51,0,0,1,.3,0c1,.09,1.6.61,1.57.92S53.41,47.44,52.6,47.44Z"/><path class="cls-4" d="M52.14,46.38h.25a2,2,0,0,1,1,.37,1.79,1.79,0,0,1-.83.18l-.26,0a2,2,0,0,1-1-.36,1.8,1.8,0,0,1,.84-.18m0-1c-1,0-1.86.44-1.92,1.07s.84,1.35,2,1.47l.36,0c1,0,1.85-.45,1.91-1.07s-.84-1.36-2-1.47l-.35,0Z"/><path class="cls-6" d="M39.45,39.28c-.82,0-1.36-.36-1.36-.6s.54-.59,1.36-.59,1.36.36,1.36.59S40.27,39.28,39.45,39.28Z"/><path class="cls-4" d="M39.45,38.59a1.7,1.7,0,0,1,.62.1,2.18,2.18,0,0,1-1.24,0,1.7,1.7,0,0,1,.62-.1m0-1c-1,0-1.86.49-1.86,1.09s.83,1.1,1.86,1.1,1.86-.49,1.86-1.1-.84-1.09-1.86-1.09Z"/><path class="cls-7" d="M45.65,46.53c-3.49-.08-6.2-1.75-6.15-3.8v-1.9a.51.51,0,0,1,.5-.5l11.65.26a.53.53,0,0,1,.36.17.48.48,0,0,1,.13.38L52,43c0,2-2.65,3.49-6.06,3.49Z"/><path class="cls-4" d="M40,40.83l11.64.26L51.47,43c0,1.7-2.51,3-5.57,3h-.23C42.5,46,40,44.48,40,42.74V40.83m0-1a1,1,0,0,0-.7.29,1,1,0,0,0-.3.71v1.91c0,2.31,2.87,4.2,6.64,4.29h.26c3.68,0,6.49-1.71,6.57-4l.17-1.87a1,1,0,0,0-1-1.09L40,39.83Z"/><path class="cls-8" d="M45.44,44.11A9.27,9.27,0,0,1,41.11,43a3.22,3.22,0,0,1-1.9-2.75c0-2,2.68-3.57,6.15-3.57h.25a9.09,9.09,0,0,1,4.33,1.09,3.26,3.26,0,0,1,1.91,2.75c-.05,2-2.69,3.57-6.15,3.57Z"/><path class="cls-4" d="M45.36,37.19h.24c3.21.07,5.79,1.56,5.75,3.33s-2.55,3.08-5.65,3.08h-.25c-3.21-.08-5.78-1.57-5.74-3.34s2.54-3.08,5.65-3.08m0-1c-3.74,0-6.6,1.75-6.65,4.06a3.69,3.69,0,0,0,2.15,3.19,9.75,9.75,0,0,0,4.57,1.17h.27c3.73,0,6.59-1.74,6.65-4.06a3.72,3.72,0,0,0-2.16-3.19,9.6,9.6,0,0,0-4.57-1.16Z"/><path class="cls-9" d="M45,34.07a.46.46,0,0,1-.2,0c-.11-.05-1.06-.52-1.06-2.23A6.78,6.78,0,0,1,47,26.54a2.58,2.58,0,0,1,1.18-.3c1,0,2.1.66,2.1,2.52l-.1.58a.49.49,0,0,1-.39.41l-4.09.85-.15,3a.5.5,0,0,1-.24.4A.5.5,0,0,1,45,34.07Z"/><path class="cls-4" d="M48.15,26.74c.8,0,1.6.53,1.6,2l-.09.5-4.47.93L45,33.57s-.76-.34-.76-1.78a6.25,6.25,0,0,1,3-4.81,2,2,0,0,1,.94-.24m0-1a3,3,0,0,0-1.42.37,7.17,7.17,0,0,0-3.47,5.68,2.72,2.72,0,0,0,1.35,2.69,1,1,0,0,0,.93-.06,1,1,0,0,0,.48-.8L46.15,31l3.71-.77a1,1,0,0,0,.79-.81l.08-.51a.88.88,0,0,0,0-.16c0-2.08-1.31-3-2.6-3Z"/><path class="cls-10" d="M45.53,42.34c-2,0-3.54-.84-3.54-1.94l.17-8.28a.49.49,0,0,1,.19-.39l2.45-1.85c.09-.06,1.9-1.38,2.92-2a2.51,2.51,0,0,1,1.19-.42.75.75,0,0,1,.69.38.4.4,0,0,1,0,.24l-.59,12.32C49.06,41.5,47.54,42.34,45.53,42.34Z"/><path class="cls-4" d="M48.91,28c.2,0,.24.09.24.09L48.56,40.4c0,.79-1.36,1.44-3,1.44s-3-.65-3-1.44l.17-8.27,2.44-1.85S47,28.92,48,28.34a2,2,0,0,1,.94-.35m0-1a2.9,2.9,0,0,0-1.44.48c-1,.61-2.88,1.94-2.95,2l-2.47,1.86a1,1,0,0,0-.39.78l-.17,8.27c0,1.43,1.7,2.46,4,2.46s4-1,4-2.44l.59-12.27a1,1,0,0,0-.1-.5A1.25,1.25,0,0,0,48.91,27Z"/><path class="cls-11" d="M49.21,26.81l-2.45-1.09s-4.47-.51-4.47,4.05c0,1.94.85,2.36.85,2.36l2.36,1.44v-3.8S47.19,26.73,49.21,26.81Z"/><path class="cls-12" d="M48.27,34.88a1.32,1.32,0,0,1-.66-.17,1.6,1.6,0,0,1-.7-1.45,3.73,3.73,0,0,1,.54-1.77,2.88,2.88,0,0,1,2.22-1.61,1.26,1.26,0,0,1,.66.18c.86.5.93,1.91.16,3.21a2.88,2.88,0,0,1-2.22,1.61Z"/><path class="cls-4" d="M49.67,30.38a.81.81,0,0,1,.41.11c.6.35.59,1.49,0,2.53a2.45,2.45,0,0,1-1.79,1.36.72.72,0,0,1-.41-.11c-.6-.35-.59-1.48,0-2.53a2.45,2.45,0,0,1,1.79-1.36m0-1A3.32,3.32,0,0,0,47,31.24a4.14,4.14,0,0,0-.61,2,2.08,2.08,0,0,0,1,1.88,1.77,1.77,0,0,0,.91.24,3.33,3.33,0,0,0,2.65-1.85c.92-1.57.78-3.25-.33-3.9a1.84,1.84,0,0,0-.92-.25Z"/><path class="cls-13" d="M43.08,31.3a1.16,1.16,0,0,1-.31-.07l-.13-.1L32.68,21a.51.51,0,0,1-.06-.63l3.8-5.82a.48.48,0,0,1,.38-.23h0a.49.49,0,0,1,.38.18L47.08,25.9c.2.24.62.76-1.52,3.19C44.83,30.08,43.78,31.3,43.08,31.3Z"/><path class="cls-4" d="M36.83,14.83l9.88,11.39c.33.43-1.52,2.54-1.52,2.54s-1.52,2-2.11,2l-.09,0L33,20.66l3.79-5.83m0-1h-.06a1,1,0,0,0-.77.45l-3.8,5.82a1,1,0,0,0,.12,1.25l10,10.12a1.05,1.05,0,0,0,.27.2,1.18,1.18,0,0,0,.53.12c.33,0,1.09,0,2.89-2.42,2.09-2.38,2-3.22,1.52-3.78l-9.9-11.42a1,1,0,0,0-.76-.35Z"/><path class="cls-14" d="M31.6,21.07a.43.43,0,0,1-.19,0l-2.64-1.12a3.31,3.31,0,0,1-1.95-2.45,6.33,6.33,0,0,1,.32-3.74C28,11.54,29.77,10,31.49,10a2.77,2.77,0,0,1,1,.19l2.9,1.2a.48.48,0,0,1,.27.27.5.5,0,0,1,0,.38l-3.63,8.69a.45.45,0,0,1-.27.27A.41.41,0,0,1,31.6,21.07Z"/><path class="cls-4" d="M31.49,10.53a2.45,2.45,0,0,1,.85.15l2.89,1.2L31.6,20.57,29,19.45c-1.68-.65-2.29-3.13-1.35-5.55.78-2,2.39-3.37,3.88-3.37m0-1h0c-2,0-3.89,1.61-4.82,4a6.93,6.93,0,0,0-.34,4,3.85,3.85,0,0,0,2.27,2.8l2.61,1.11a1.09,1.09,0,0,0,.39.08A1,1,0,0,0,32,21.5a1,1,0,0,0,.55-.54l3.62-8.7a.92.92,0,0,0,0-.76,1,1,0,0,0-.54-.55L32.72,9.76a3.27,3.27,0,0,0-1.23-.23Z"/><path class="cls-15" d="M32.6,21.27a2.93,2.93,0,0,1-1-.19,3.37,3.37,0,0,1-2-2.46,6.45,6.45,0,0,1,.32-3.75c.84-2.17,2.63-3.68,4.36-3.68a2.72,2.72,0,0,1,1,.19c1.94.74,2.68,3.53,1.65,6.2-.84,2.17-2.63,3.69-4.35,3.69Z"/><path class="cls-4" d="M34.29,11.69a2.4,2.4,0,0,1,.84.15c1.69.65,2.29,3.14,1.36,5.56-.78,2-2.39,3.37-3.89,3.37a2.24,2.24,0,0,1-.84-.16c-1.68-.65-2.29-3.14-1.36-5.56.78-2,2.4-3.36,3.89-3.36m0-1c-2,0-3.9,1.61-4.82,4a6.73,6.73,0,0,0-.34,4,3.85,3.85,0,0,0,2.27,2.81,3.28,3.28,0,0,0,1.2.23c2,0,3.9-1.61,4.83-4,1.14-3,.29-6-1.94-6.85a3.23,3.23,0,0,0-1.2-.22Z"/><path class="cls-16" d="M32.59,18.82a1.33,1.33,0,0,1-.66-1.06,3.87,3.87,0,0,1,.31-2.09c.55-1.33,1.51-2,2.17-2a1,1,0,0,1,.33.07l.71.35-2.27,5Z"/><path class="cls-4" d="M34.41,14.14l.12,0,.27.13-1.88,4.13-.13-.05a.91.91,0,0,1-.37-.69,3.57,3.57,0,0,1,.28-1.82c.49-1.18,1.3-1.72,1.71-1.72m0-1a3.38,3.38,0,0,0-2.64,2.34c-.69,1.67-.41,3.37.64,3.81l1,.4,2.67-5.87-1.18-.57a1.35,1.35,0,0,0-.52-.11Z"/><path class="cls-17" d="M21.82,31.27a.49.49,0,0,1-.32-.12l-3.46-3a.5.5,0,0,1-.07-.68l9.28-12.15c.55-.73.81-.73.94-.73a.58.58,0,0,1,.49.3,4.23,4.23,0,0,1,.2,1.39,10.61,10.61,0,0,0,.33,2.47,6,6,0,0,0,1.85,2.46.49.49,0,0,1,.07.75l-8.95,9.12A.51.51,0,0,1,21.82,31.27Z"/><path class="cls-4" d="M28.19,15.13a.05.05,0,0,1,0,0c.19.38.08,2.61.5,3.79a6.47,6.47,0,0,0,2,2.7l-8.95,9.12-3.46-3,9.29-12.15s.4-.53.54-.53m0-1c-.46,0-.85.27-1.34.93L17.57,27.21a1,1,0,0,0,.14,1.37l3.46,3a1,1,0,0,0,1.37-.06l8.94-9.12a.94.94,0,0,0,.28-.78,1,1,0,0,0-.41-.73,5.49,5.49,0,0,1-1.67-2.22,10.21,10.21,0,0,1-.3-2.33,4.42,4.42,0,0,0-.25-1.58,1,1,0,0,0-.94-.58Z"/><path class="cls-18" d="M22.25,34.67a.5.5,0,0,1-.33-.12l-7.11-6.13a.47.47,0,0,1-.17-.35.5.5,0,0,1,.13-.37l1.38-1.48a.59.59,0,0,1,.4-.17c.57,0,2.53,1.59,4.08,2.92,2.29,2,3.47,3.21,3.5,3.65A.58.58,0,0,1,24,33l-1.39,1.49A.48.48,0,0,1,22.25,34.67Z"/><path class="cls-4" d="M16.55,26.55a18.93,18.93,0,0,1,3.76,2.8c2,1.7,3.45,3.19,3.32,3.34l-1.38,1.48L15.13,28l1.39-1.48h0m0-1a1.08,1.08,0,0,0-.79.36L14.4,27.36a1,1,0,0,0,.08,1.44l7.11,6.13A1,1,0,0,0,23,34.85l1.38-1.48a1.07,1.07,0,0,0,.27-.78c0-.33-.06-.89-3.67-4s-4.13-3.05-4.41-3.05Z"/><path class="cls-19" d="M36.59,17.46c.7-1.67.42-3.38-.63-3.81s-2.46.56-3.15,2.23-.42,3.37.63,3.81S35.9,19.13,36.59,17.46Z"/><path class="cls-20" d="M21.84,35.12c-.57,0-2.54-1.59-4.09-2.93-2.29-2-3.46-3.2-3.5-3.64a.57.57,0,0,1,.13-.4.59.59,0,0,1,.41-.18c.57,0,2.54,1.59,4.09,2.92.95.83,1.83,1.64,2.47,2.28.83.83,1.28,1.32.9,1.76A.61.61,0,0,1,21.84,35.12Z"/><path class="cls-4" d="M14.79,28.47a18.93,18.93,0,0,1,3.76,2.8c2,1.69,3.45,3.19,3.32,3.34h0a18.93,18.93,0,0,1-3.76-2.8c-2-1.7-3.45-3.19-3.32-3.34h0m0-1a1.08,1.08,0,0,0-.79.36,1.13,1.13,0,0,0-.25.75c0,.33.07.88,3.68,4s4.12,3,4.41,3a1.08,1.08,0,0,0,.79-.36c.7-.81-.13-1.64-.93-2.45-.64-.65-1.53-1.46-2.5-2.3-3.53-3-4.12-3-4.41-3Z"/><path class="cls-21" d="M31.49,10.52a2.45,2.45,0,0,1,.85.15l2.89,1.2h0a3.26,3.26,0,0,1,1.69,3l9.36,10.8h0l2.45,1.09H48.6c.62.18,1.15.73,1.15,1.93l-.09.51-.57.12L49,30.55a1.48,1.48,0,0,1,.64-.18.8.8,0,0,1,.4.11c.6.35.59,1.48,0,2.53a3.06,3.06,0,0,1-1.2,1.2l-.17,3.54a3.75,3.75,0,0,1,2.62,2.37c3.33,2.08,5.22,4.76,4.46,6.79l-.65,2.73c-.58,1.58-2.64,2.41-5.36,2.41a18.61,18.61,0,0,1-6.37-1.24c-5.49-2-9.13-5.86-8.14-8.54l.51-2.79c.59-1.59,2.66-2.43,5.4-2.43a13.34,13.34,0,0,1,1.39.07l.11-5s-.85-.42-.85-2.36c0-.07,0-.12,0-.18L33.1,20.7a2.61,2.61,0,0,1-.48.05,2.45,2.45,0,0,1-.8-.14l-10,10.12c1.14,1.05,1.87,1.84,1.78,1.95l-1.38,1.48-.38.44h0a19.19,19.19,0,0,1-3.76-2.81,31.48,31.48,0,0,1-3.32-3.33s.19-.36.37-.44l1.39-1.48s0,0,0,0a7.52,7.52,0,0,1,1.84,1.23l8.79-11.51a6.23,6.23,0,0,1,.43-2.38c.78-2,2.39-3.36,3.88-3.36m0-.8h0c-1.88,0-3.74,1.56-4.63,3.88A7.07,7.07,0,0,0,26.38,16L18.24,26.65c-1.22-.91-1.47-.91-1.69-.91a.87.87,0,0,0-.64.29L14.63,27.4a2,2,0,0,0-.58.7.81.81,0,0,0,.09.88,32.87,32.87,0,0,0,3.42,3.43c3.48,3,4.06,3,4.28,3a.9.9,0,0,0,.63-.28l.38-.45,1.36-1.46c.55-.62.15-1.21-1.21-2.51l9.07-9.21a3.31,3.31,0,0,0,.55.05h.18L41,29.9a3.73,3.73,0,0,0,.84,2.58l-.08,3.79-.61,0c-3.22,0-5.46,1.08-6.15,3a.65.65,0,0,0,0,.13l-.49,2.73c-.55,1.58.1,3.45,1.83,5.27a18.33,18.33,0,0,0,6.8,4.23,19.61,19.61,0,0,0,6.65,1.29c3.19,0,5.42-1.07,6.11-2.93l0-.09.64-2.69c.82-2.32-.91-5.19-4.55-7.53a4.38,4.38,0,0,0-2.47-2.38l.12-2.57a3.87,3.87,0,0,0,1.11-1.25c.86-1.47.75-3-.26-3.62l-.17-.09a.83.83,0,0,0,.13-.32l.08-.5a.68.68,0,0,0,0-.14,2.61,2.61,0,0,0-1.25-2.5.81.81,0,0,0-.24-.17l-2.31-1-9-10.45a4,4,0,0,0-2-3.37,1.4,1.4,0,0,0-.17-.09l-2.9-1.2a3.21,3.21,0,0,0-1.15-.21Z"/><path class="cls-22" d="M23.88,39.27a.49.49,0,0,1-.3-.1L9.24,27.93a.47.47,0,0,1-.19-.34.53.53,0,0,1,.12-.38l2.28-2.69a.52.52,0,0,1,.37-.17l1.31,0h.14a3.69,3.69,0,0,1,1.18.81c.7.63,2.55,2.21,2.55,2.21a.53.53,0,0,1,.17.35.5.5,0,0,1-.13.37l-.67.75,6,5.08.56-.6a.46.46,0,0,1,.36-.16.5.5,0,0,1,.33.12l2.78,2.44a.51.51,0,0,1,.06.7l-2.22,2.69A.5.5,0,0,1,23.88,39.27Z"/><path class="cls-23" d="M13.13,24.82a3,3,0,0,1,1,.7c.7.62,2.55,2.21,2.55,2.21l-1,1.13,6.79,5.72.88-.94,2.78,2.44-2.22,2.69L9.55,27.54l2.28-2.69,1.3,0m0-1h0l-1.3,0a1,1,0,0,0-.74.35L8.79,26.89a1,1,0,0,0-.24.75,1,1,0,0,0,.38.69L23.27,39.56a1,1,0,0,0,1.39-.15l2.21-2.7a1,1,0,0,0-.11-1.38L24,32.89a1,1,0,0,0-.66-.25,1,1,0,0,0-.73.32l-.23.25-5.28-4.44.33-.36a1,1,0,0,0,.26-.74,1,1,0,0,0-.35-.69s-1.84-1.59-2.53-2.21a4.24,4.24,0,0,0-1.39-.92,1.24,1.24,0,0,0-.27,0Z"/><path class="cls-24" d="M9.55,27.54,21.72,37.93l2.19.93s.18,0-.4-.5l-11.73-10a3.1,3.1,0,0,0-1.2-.7A5.89,5.89,0,0,0,9.55,27.54Z"/><path class="cls-25" d="M23.89,38.86s.17,0-.4-.5l-11.73-10a3.1,3.1,0,0,0-1.2-.7,6,6,0,0,0-1-.09"/><polygon class="cls-26" points="20.09 39.88 22.16 37.28 20.35 36.7 18.37 39.05 20.09 39.88"/><polygon class="cls-27" points="12.57 40.41 14.86 41.92 20.09 39.88 18.37 39.05 12.57 40.41"/><polygon class="cls-28" points="12.44 40.31 13.99 41.29 13.33 42.06 11.89 40.99 12.44 40.31"/><polygon class="cls-29" points="10.64 28.48 8.36 31.25 9.59 31.67 12.09 28.68 10.64 28.48"/><polygon class="cls-30" points="8.76 38.23 7.58 37.48 8.36 31.25 9.59 31.67 8.76 38.23"/><polygon class="cls-31" points="22.93 37.98 20.73 40.74 14.68 42.9 13.33 42.06 13.99 41.29 14.97 41.86 20.09 39.88 22.16 37.28 22.93 37.98"/><polygon class="cls-32" points="12.91 29.46 10.76 31.98 9.71 37.79 10.64 38.51 9.99 39.19 8.76 38.23 9.59 31.67 12.09 28.68 12.91 29.46"/><line class="cls-25" x1="18.63" y1="39.24" x2="20.58" y2="40.03"/><line class="cls-25" x1="8.46" y1="31.58" x2="9.67" y2="31.99"/><g class="cls-33"><path class="cls-21" d="M13.13,24.82a3,3,0,0,1,1,.7c.7.62,2.55,2.21,2.55,2.21l-1,1.13,5.11,4.31,1.68,1.41.88-.94,2.78,2.44-2.2,2.68c.07.1,0,.1,0,.1h0l-1.26-.54-1.93,2.42-5.94,2.13,0,.07L11.92,41l.52-.63,1.5.39,4.43-1.7,1.95-2.32L12.44,30l-1.68,2-1,5.8.93.72-.64.68-1.24-1-1.18-.75.78-6.23,2.28-2.77h0l-1.1-.94,2.28-2.69,1.3,0m0-1h0l-1.3,0a1,1,0,0,0-.74.35L8.79,26.89A1,1,0,0,0,8.9,28.3l.35.3-1.66,2a1,1,0,0,0-.22.51l-.78,6.24a1,1,0,0,0,.46,1l1.13.73,1.2.93a1,1,0,0,0,.61.21,1,1,0,0,0,.73-.31l.65-.69a1,1,0,0,0-.12-1.47l-.45-.35.9-4.94.86-1,6.36,5.43-1.15,1.36L13.88,39.7l-1.2-.31a1,1,0,0,0-1,.34l-.51.63a1,1,0,0,0,.2,1.45l2.81,1.95a1,1,0,0,0,.57.18.65.65,0,0,0,.2,0,.91.91,0,0,0,.42-.2l5.71-2a1.12,1.12,0,0,0,.45-.32L23,39.54l.56.24a1.09,1.09,0,0,0,.39.08,1,1,0,0,0,.91-.55l.08-.19,2-2.41a1,1,0,0,0-.11-1.38L24,32.89a1,1,0,0,0-.66-.25,1,1,0,0,0-.73.32l-.23.25-1-.8-4.32-3.64.33-.36a1,1,0,0,0,.26-.74,1,1,0,0,0-.35-.69s-1.84-1.59-2.53-2.21a4.24,4.24,0,0,0-1.39-.92,1.24,1.24,0,0,0-.27,0Z"/></g></g></svg>