<svg xmlns="http://www.w3.org/2000/svg" xmlns:xlink="http://www.w3.org/1999/xlink" width="64" height="64" viewBox="0 0 64 64">
  <defs>
    <radialGradient id="a" cx="38.6635" cy="25.8114" r="34.3882" gradientTransform="translate(2.3945 -0.001)" gradientUnits="userSpaceOnUse">
      <stop offset="0.0056" stop-color="#dcdcda"/>
      <stop offset="0.1726" stop-color="#d8d8d6"/>
      <stop offset="0.3548" stop-color="#cacac9"/>
      <stop offset="0.5443" stop-color="#b5b5b3"/>
      <stop offset="0.7375" stop-color="#969695"/>
      <stop offset="0.8602" stop-color="#7f7f7e"/>
    </radialGradient>
    <radialGradient id="b" cx="41.3454" cy="28.2919" r="197.4662" gradientUnits="userSpaceOnUse">
      <stop offset="0.0506" stop-color="#fff"/>
      <stop offset="0.1273" stop-color="#d7d7d7"/>
      <stop offset="0.2183" stop-color="#afafaf"/>
      <stop offset="0.3015" stop-color="#929292"/>
      <stop offset="0.3733" stop-color="gray"/>
      <stop offset="0.4254" stop-color="#7a7a7a"/>
    </radialGradient>
    <linearGradient id="c" x1="51.025" y1="22.964" x2="45.2429" y2="31.1018" gradientUnits="userSpaceOnUse">
      <stop offset="0" stop-color="#92d5ee"/>
      <stop offset="0.6695" stop-color="#5a9cb4"/>
      <stop offset="1" stop-color="#3c7e96"/>
    </linearGradient>
    <linearGradient id="d" x1="45.4007" y1="26.5433" x2="40.5112" y2="33.3885" xlink:href="#c"/>
    <linearGradient id="e" x1="50.014" y1="24.6069" x2="37.9274" y2="39.3799" gradientUnits="userSpaceOnUse">
      <stop offset="0" stop-color="#92d5ee"/>
      <stop offset="0.4825" stop-color="#599bb4"/>
      <stop offset="1" stop-color="#185971"/>
    </linearGradient>
    <linearGradient id="f" x1="54.3408" y1="27.8481" x2="33.1835" y2="59.584" xlink:href="#e"/>
    <linearGradient id="g" x1="23.316" y1="13.2404" x2="17.5339" y2="21.3782" xlink:href="#c"/>
    <linearGradient id="h" x1="17.6917" y1="16.8196" x2="12.8023" y2="23.6649" xlink:href="#c"/>
    <linearGradient id="i" x1="22.305" y1="14.8833" x2="10.2184" y2="29.6563" xlink:href="#e"/>
    <linearGradient id="j" x1="26.6318" y1="18.1245" x2="5.4745" y2="49.8604" xlink:href="#e"/>
  </defs>
  <title>I_DELSLG_AP</title>
  <g>
    <g>
      <path d="M36.28,52.626A18.813,18.813,0,1,1,55.0928,33.8105,18.8356,18.8356,0,0,1,36.28,52.626Z" fill="url(#a)"/>
      <path d="M36.28,15.5a18.313,18.313,0,1,1-18.3135,18.31A18.3132,18.3132,0,0,1,36.28,15.5m0-1a19.313,19.313,0,1,0,19.3125,19.31A19.3338,19.3338,0,0,0,36.28,14.5Z" fill="#343434"/>
    </g>
    <g>
      <path d="M37.8477,50.0127c-.7188,0-.8789-.4316-.91-.6885-.0117-.0068-.251-.1719-.251-.1719a1.1278,1.1278,0,0,1-.3808-.85,1.4888,1.4888,0,0,0-.0342-.2168,3.7241,3.7241,0,0,0-.2285-.3116,2.7129,2.7129,0,0,1-.461-.7255c-.0429-.127-.1718-.5108.4659-1.4122l-.0127-.0244a.939.939,0,0,1-.0547-.5664,1.4755,1.4755,0,0,0,.0166-.1875,2.745,2.745,0,0,0-.2149-.2929c-.5566-.9073-.6718-1.3936-.4414-1.7325a2.0292,2.0292,0,0,1-.2685-.0361,2.6033,2.6033,0,0,1-.9287-.5127.7825.7825,0,0,0-.2393.1055,1,1,0,0,1-.6875.2314,1.1584,1.1584,0,0,1-.7383-.2451c-.0771.0107-.1533.0215-.2392.0313-.083.01-.1739.02-.2715.0273-.11.0078-.2032.0127-.2813.0127a.7535.7535,0,0,1-.8154-.57c-.0635-.1065-.5752-.67-.85-.9727l-.2295-.2539c-.4033-.4473-.7227-.8017-.5068-1.5254a2.3,2.3,0,0,0,.1533-1.0176,1.4938,1.4938,0,0,1,.3037-1.455,8.91,8.91,0,0,1,1.52-1.2588c-.0273-.0049.0918-.2217.1562-.3379a2.2713,2.2713,0,0,1,.3213-.4893,1.044,1.044,0,0,1,.5547-.2666.9705.9705,0,0,1-.2217-.0644.6232.6232,0,0,1-.3535-.4082,1.4461,1.4461,0,0,1,.2246-1,2.0265,2.0265,0,0,0-.1279-.418.7306.7306,0,0,1,.0342-.708.74.74,0,0,1,.6416-.377h.0557l.1181.0206c.1758.0429.8643.163,1.2881.206a1.4632,1.4632,0,0,0-.1475-.0439l-.0654-.0147L33.68,31.459a.7825.7825,0,0,1-.4473-.5869l-.02-.251a.7133.7133,0,0,1-.3145-.5029h-.0117a.7062.7062,0,0,1-.4385-.15.6867.6867,0,0,1-.4179-.8389,1.331,1.331,0,0,1,.4433-.6523.7536.7536,0,0,1,.6387-.4141h.07l.127.0273.0107-.0068a1.031,1.031,0,0,1,.0195-.3271l.0176-.1065c.0371-.2822.209-.6181.81-.6181a.8245.8245,0,0,1,.7217.3417,1.2263,1.2263,0,0,1,.2177.1446.6225.6225,0,0,1,.2647.7168.544.544,0,0,1-.1631.2383.6525.6525,0,0,1,.11.3056,1.092,1.092,0,0,1,.1162.211.9635.9635,0,0,1,.1006.0732,1.2962,1.2962,0,0,0,.1093.083.7107.7107,0,0,1,.2647.3008.7047.7047,0,0,1,.3125-.2754,1.3826,1.3826,0,0,1,.41-.084l.1426-.0176a.8345.8345,0,0,1-.0019-.5214.7554.7554,0,0,1-.4786-.42.854.854,0,0,1,.0049-.7646.9922.9922,0,0,1,.7881-1.2022,4.3033,4.3033,0,0,0,1.1445-.4013,4.7978,4.7978,0,0,1,1.7852-1.461c.2129-.1093.3926-.209.5547-.3a3.8624,3.8624,0,0,1,1.3271-.5361,2.1161,2.1161,0,0,1,.3477-.0313,1.0585,1.0585,0,0,1,.5166.1172,5.15,5.15,0,0,1,.5459-.0312,1.6723,1.6723,0,0,1,.69.1094c.0938.0293.55.0742.8223.1015a2.6854,2.6854,0,0,1,.959.1709c.0273.0147.0869.0381.1533.0674a1.8841,1.8841,0,0,1,.6543.3809,2.0395,2.0395,0,0,1,.3223-.1241l.19-.0488a.838.838,0,0,0,.3974-.1728,2.37,2.37,0,0,1,.4063-.251.8615.8615,0,0,0,.2978-.211,2.2967,2.2967,0,0,1,.4708-.3759,1.3351,1.3351,0,0,0,.4834-.4463l.1484-.2569a4.9356,4.9356,0,0,0,.3467-.667l.2978-.79.55.6416a18.74,18.74,0,0,1,4.5088,12.19v.0723l-.0224.1807-.0342.14c-.0244.1045-.0528.23-.0977.376a8.7724,8.7724,0,0,1-.8584,1.7812,2.7759,2.7759,0,0,0-.1035.4786c-.0137.083-.0283.1689-.0449.2578l.164.0634.14.2706a1.081,1.081,0,0,1-.0957.8134c-.1358.5459-.4121.6465-.624.6465l-.1016-.001-.1416-.0507c-.03-.0127-.0586-.0264-.0859-.04a.6477.6477,0,0,1-.459.2432c-.1113,0-.6641-.042-.6641-.8692a.3369.3369,0,0,1-.0576-.0771,3.3284,3.3284,0,0,1-.1875-.3193,2.1529,2.1529,0,0,1-.1768-.9375,1.1765,1.1765,0,0,1-.5078-.3252l-.0234-.0225h-.0733a3.778,3.778,0,0,0-.7011.0586,2.4791,2.4791,0,0,1-.3408.06,1.074,1.074,0,0,0-.1211.02,1.1681,1.1681,0,0,1-.2168.1338l.0019.0068a1.7034,1.7034,0,0,1-.7,1.46,1.0448,1.0448,0,0,0-.3144.3486,1.9892,1.9892,0,0,1-1.1807.9082.6859.6859,0,0,1-.3447.25.6.6,0,0,1,.0517.0918c.26.5625-.2089,1.6338-.8134,2.3447a7.34,7.34,0,0,1-1.208,1.1084,2.9959,2.9959,0,0,0-.3223.2666c-.0654.2813-.4024.5059-.7588.7432a2.9015,2.9015,0,0,0-.36.2646c-.07.0811-.0839.2744.0694.9873a1.365,1.365,0,0,1,.0332.377.8064.8064,0,0,1,.5449-.2344h.0488a.3181.3181,0,0,1,.0274-.0244,1.5794,1.5794,0,0,1,.2246-.1621.5439.5439,0,0,0,.0635-.1426.6985.6985,0,0,1,.5332-.55l.122-.0762.1192.001a.5472.5472,0,0,1,.54.5049.7085.7085,0,0,1-.0263.7l-.1456.3428c-.0732.1738-.1123.2675-.1435.33l-.0264.0948a1.9047,1.9047,0,0,1-.3515.8437.7866.7866,0,0,1-.5557.3526c.0019.0048-.0264.0273-.0557.0478a.9453.9453,0,0,1-.5439.208h0a.6985.6985,0,0,1-.4209-.1435.5245.5245,0,0,0-.1-.06.6907.6907,0,0,1-.417-.57.5814.5814,0,0,1,.0625-.6094,3.04,3.04,0,0,1-.7842.3906,2.7478,2.7478,0,0,0-.2568.1026,1.0629,1.0629,0,0,1,.0508.2549.8415.8415,0,0,1-.0206.4472l-.124.3184-.4.0273a.97.97,0,0,1-.18-.02,2.3151,2.3151,0,0,1-.6455.6826L40.78,49.09a1.2652,1.2652,0,0,1-.5742.46,7.26,7.26,0,0,1-2.0567.45C38.0342,50.0078,37.9346,50.0127,37.8477,50.0127ZM43.54,46.4814a1.204,1.204,0,0,1-.0986.1241c.04-.0264.0791-.0479.1113-.0655C43.5479,46.52,43.543,46.5,43.54,46.4814ZM37.57,34.9961a.8521.8521,0,0,1,.89.5771c.039.0147.2461.0528.4111.0831a.7407.7407,0,0,1,.0732-.1836,1.1346,1.1346,0,0,1,.6524-.46l-.6123-.7a1.8375,1.8375,0,0,1-.4414.334l-.295.1553-.2568-.212a.5968.5968,0,0,1-.2588-.6894l.0489-.1348c-.3584-.3037-.9415-.7539-1.0723-.84a1.0483,1.0483,0,0,0-.1133-.0225.6245.6245,0,0,1-.4756.2188.7253.7253,0,0,1-.4033-.1289c-.0039.0175-.0088.0351-.0137.0527a.8228.8228,0,0,1-.77.498.7528.7528,0,0,1-.0527.1924.5007.5007,0,0,1-.03.0655c.3818-.03.7646-.0372,1.0371-.0372a7.8359,7.8359,0,0,1,1.3945.0967.631.631,0,0,1,.42.3672A.8693.8693,0,0,1,37.57,34.9961Zm2.86.2432a3.0155,3.0155,0,0,1,.3662.18,1.6727,1.6727,0,0,0,.7607.1622c.1592.01.3194.02.4815.0459a1.6307,1.6307,0,0,0,.2519.0234.24.24,0,0,0,.1865-.0527,1.879,1.879,0,0,0,.209-.2237,3.9409,3.9409,0,0,1,.2754-.3008c-.001-.0087.0088-.0947.0166-.1562-.0322.0029-.0644.0049-.0967.0049a1.1456,1.1456,0,0,1-.3437-.0557.692.692,0,0,1-.5674.2344,1.5341,1.5341,0,0,1-.8262-.2568,1.6182,1.6182,0,0,1-.1631-.128,1.0616,1.0616,0,0,1-.4082.0938l-.124.0342a1.5382,1.5382,0,0,1-.2666.1152l.043.0967A.616.616,0,0,1,40.4307,35.2393Zm7.3935-2.1846a.4919.4919,0,0,1-.0381.1182c.1094-.0342.1446-.0674.1514-.0811l-.0117.002a.1663.1663,0,0,1-.0987-.0538Zm-5.3721-.3135h.0059a.5886.5886,0,0,1,.3145-.2637,1.9547,1.9547,0,0,1,.23-.07c-.0293-.042-.0722-.1152-.0722-.1152a1.6086,1.6086,0,0,1-.2-.06,1.1442,1.1442,0,0,1-.0948.0684,1.3331,1.3331,0,0,1-.2334.3818Q42.4258,32.709,42.4521,32.7412Zm5.0743-.39a1.7131,1.7131,0,0,1,.16.1806.5236.5236,0,0,1,.0362-.1045c-.0323-.0254-.0674-.0527-.1055-.0849-.0752-.0635-.1045-.0684-.1231-.07C47.5068,32.3008,47.5176,32.3271,47.5264,32.3516ZM39.8857,28.8c.0645.0283.1241.0615.1788.0908l.0126.0078a.1555.1555,0,0,0,.0284-.05c.0547-.4814.2461-.7353.5781-.8154a.5774.5774,0,0,1,.0019-.1289.6067.6067,0,0,1,.0186-.0869.6328.6328,0,0,1-.0693-.0674.5942.5942,0,0,1-.0869-.1328.9861.9861,0,0,1-.2325.626.7493.7493,0,0,1-.2793.1982l-.0048.0127A1.58,1.58,0,0,1,39.8857,28.8Zm.5977-1.542c.001-.039.0117-.1621.0117-.1621-.0224.0234-.043.0459-.0625.0674A.7091.7091,0,0,1,40.4834,27.2578ZM21.4854,45.36a18.6265,18.6265,0,0,1-3.8877-9.8038l-.1006-1.1035.4707.3448a1.2931,1.2931,0,0,1,.0771-.2862.6989.6989,0,0,0,.0293-.1045.6562.6562,0,0,1,.56-.5556l.1025-.0069a1.5583,1.5583,0,0,1,.6485.1924l.2158.1143.043.24a1.379,1.379,0,0,0,.166.4355,1.8359,1.8359,0,0,0,.2861.3165c.0156.0146.0313.0293.0459.0439l.0107-.002c.3721,0,.5694.3438.7432.6475.2813.4932.3408.6455.334.8574l.0693.1436c.1172.2832.1221.2939.5332.6924a4.0409,4.0409,0,0,1,1.1309,1.7646c.0615.19.1094.2266.291.3662a3.32,3.32,0,0,1,.5234.48,4.9625,4.9625,0,0,0,.4463.4619,4.6843,4.6843,0,0,1,.3965.4014,4.35,4.35,0,0,0,.3916.3769,1.5706,1.5706,0,0,1,.4766.5694.7656.7656,0,0,1,.1308,1.0654.8956.8956,0,0,1-.4267.3711l-.0235.05a.9109.9109,0,0,0-.0585.1475,1.13,1.13,0,0,1-.1407.5175l-.083.1905c-.13.2988-.2637.6074-.72.6582a1.361,1.361,0,0,1-.1787.0146c-.0059,0-.124,0-.3408.01a1.67,1.67,0,0,0-.2881.0361.7077.7077,0,0,1-.6406.459H22.668l-.0821-.0137a1.5,1.5,0,0,1-.2578-.0869,1.1538,1.1538,0,0,1-.2715.1543l-.3447.1309Zm1.5273-16.9395L22.9,28.4082a1.1961,1.1961,0,0,1-.8887-.5264,1.052,1.052,0,0,1-.2969.0411,1.5237,1.5237,0,0,1-.1777-.0118l-.02.01-.16.0176a.63.63,0,0,1-.5439-.3711l-.2871.0771a1.54,1.54,0,0,1-.3037.0479l-.0459.248-.3106.1446-.1338.1025-.2226.0273a.75.75,0,0,1-.5332-.2793l-.3281-.3173.0595-.3633a18.6268,18.6268,0,0,1,3.7022-6.05l.9541-1.0459-.086,1.4131c-.0449.7422-.1113,1.833-.1113,2.05a3.4048,3.4048,0,0,0,.1768,1.0342c.0293.0644.0508.1025.0674.1318a1.1273,1.1273,0,0,1,.1347.6816,2.8658,2.8658,0,0,1-.11,1.0088.5515.5515,0,0,1,.1006.2256,1.033,1.033,0,0,1,.1669.8916.5148.5148,0,0,0-.0146.1318.621.621,0,0,1-.6367.6934Zm7.2725-2.3633-.2149-.3144a.7.7,0,0,1-.0351-.56.8264.8264,0,0,1-.2461-1.0156.64.64,0,0,1,.6084-.4375,1.1908,1.1908,0,0,1,.4423.1113l.085.0332.1143.0908c.0429-.0019.4277,0,.4277,0a1.3722,1.3722,0,0,1,.583.1162l.19.0635c.3946.1328.6114.3506.6475.6484a.6843.6843,0,0,1-.2139.57.9983.9983,0,0,1-.3174.375,1.1826,1.1826,0,0,1-.6259.2265.6846.6846,0,0,1-.4014-.126,1.8683,1.8683,0,0,0-.2529.0157.8983.8983,0,0,0-.12.0752l-.1338.1-.2364.0273Zm-4.8487-.8838a.929.929,0,0,1-.8291-.4883,1.3605,1.3605,0,0,1-.0859-.1777l-.05-.0762a1.5979,1.5979,0,0,1-.3018-1.0761l.0088-.0967c.001-.0469.0039-.1436.0108-.3447a3.9508,3.9508,0,0,0,.0078-.4385c-.0039-.0449-.0078-.0957-.0078-.2334V21.709a.314.314,0,0,0-.0176-.0986.8991.8991,0,0,1,.1054-.7715,1.4123,1.4123,0,0,1,.2862-.3584l.0166-.1094a1.1211,1.1211,0,0,1,.0488-.3467,1.5476,1.5476,0,0,1,.1182-.3389c.0058-.0312.0127-.07.0234-.1132l-.2187-.38.3486-.2656A18.5951,18.5951,0,0,1,30.5186,15.99l.8584-.2744-.2217.874a1.3511,1.3511,0,0,0-.0518.667A4.1983,4.1983,0,0,1,32.625,18.7a.8446.8446,0,0,1,.4287-.1133,1.1146,1.1146,0,0,1,1.0371.625l.11.3486-.3233.2872a2.1277,2.1277,0,0,1-.8652.2744.9869.9869,0,0,1-.3936.3613.6664.6664,0,0,1-.3408.6973.61.61,0,0,1-.1367.5224,1.762,1.762,0,0,1-.15.166c-.0361.0362-.0879.0889-.19.1993a.8783.8783,0,0,1-.2188.1816l-.02.0488a1.0828,1.0828,0,0,0-.1.294,1.3432,1.3432,0,0,1-.0615.3047.87.87,0,0,0-.03.1347.5643.5643,0,0,1-.626.51h-.38l-.5654.0449a1.0505,1.0505,0,0,0-.2012.041,1.6921,1.6921,0,0,1-.4453.07h0a1.2479,1.2479,0,0,1-.5693-.1406c-.0235-.0117-.041-.0205-.0557-.0263l-.1279.0126a.5511.5511,0,0,1-.5508.2891,1.6364,1.6364,0,0,1-.5586.1221,1.06,1.06,0,0,1-.3262-.0518.8307.8307,0,0,1-.3837.3125l-.0284.041a.6328.6328,0,0,1-.5224.7784l-.4444.1318Zm15.1953-2.7324-.2783-.0371A.8482.8482,0,0,1,39.69,22.1l-.129-.1865.0147-.1016a.5091.5091,0,0,1-.18-.1445l-.1113-.0293-.1231-.3213c-.0771-.3359.1768-.5488.3623-.7041a2.6654,2.6654,0,0,0,.2393-.2217.6445.6445,0,0,1,.4941-.2343l.1241.0068a.8844.8844,0,0,1,.206.0469c.0352-.0088.6992-.2207.6992-.2207a1.5368,1.5368,0,0,1,.3828-.0411,2.2364,2.2364,0,0,1,.462.0469.5532.5532,0,0,0,.1211.0127,1.266,1.266,0,0,0,.3945-.0869,2.38,2.38,0,0,1,.664-.1582h.2647l.1982.2334.1485.2187-.0957.2725a.9148.9148,0,0,1-.6309.7871.624.624,0,0,1-.1943.543l-.5108.5107-.0048-.0107-.06.0635-.2237.0029a.711.711,0,0,1-.3154-.0879A1.3838,1.3838,0,0,1,41.4746,22a.4007.4007,0,0,0-.1094-.09l-.0088.01a1.1793,1.1793,0,0,0-.0859.1367.6493.6493,0,0,1-.5937.3848Z" fill="url(#b)"/>
      <path d="M30.6709,16.4668c-.085.335-.2031,1.0234.1631,1.1914a4.1651,4.1651,0,0,1,1.4443,1.4258.4951.4951,0,0,0,.31.1016.6562.6562,0,0,0,.2678-.0606.4926.4926,0,0,1,.1975-.0385c.3241,0,.6666.26.5359.352a2.0044,2.0044,0,0,1-.7558.2011c-.2207.02-.1973.2881-.4434.3985a3.31,3.31,0,0,0-.3135.1572.0441.0441,0,0,0-.0172-.0039c-.0214,0-.0494.021,0,.16.0664.1992.1748.2636-.07.4209a.207.207,0,0,1-.1117.0387c-.0779,0-.1164-.0655-.1314-.0655-.0118,0-.0092.04,0,.184.0225.4.0869.3555,0,.4678-.09.1093-.09.0908-.3125.332-.08.0882-.12.0986-.1471.0986l-.0226-.001c-.0329,0-.0579.0225-.1643.2813a2.5633,2.5633,0,0,0-.1767.6445c-.0889.2891,0,.2891-.1778.2891h-.38s-.2675.0225-.6006.0459c-.2246.0151-.3993.1106-.6112.1106a.7539.7539,0,0,1-.3458-.0881.6776.6776,0,0,0-.2849-.0932c-.0654,0-.0908.0279-.1318.0279a.1523.1523,0,0,1-.0745-.0246c-.0863-.05-.0968-.1137-.1245-.1137-.0219,0-.0544.04-.1431.1577-.1992.2685,0,.2685-.1992.2685-.1553,0-.3384.1216-.5583.1216a.5621.5621,0,0,1-.1956-.0347,1.7221,1.7221,0,0,0-.3629-.1177c-.0551,0-.0868.0321-.1058.1177-.044.2022.0224.0684-.1114.2451-.1328.18-.1552-.0429-.3789.3125-.2217.3575.1338.4688-.2441.5772l-.3789.1123a.4191.4191,0,0,1-.0776.0064.4273.4273,0,0,1-.39-.2271c-.0659-.1222-.0674-.1369-.0628-.1369l.0044.0015a1.3024,1.3024,0,0,0-.0969-.1527,1.0965,1.0965,0,0,1-.2226-.7588,3.0193,3.0193,0,0,0,.0215-.4678,6.1151,6.1151,0,0,0,0-.6894V21.709c0-.292-.1534-.3115.0234-.625.1777-.3115.3115-.2227.3574-.5791.042-.3526-.0459-.02.042-.3526a3.9114,3.9114,0,0,0,.1338-.4248c.0449-.2451.1328-.0683.0449-.2451-.02-.04-.0527-.0986-.0869-.1582a18.1239,18.1239,0,0,1,5.4668-2.8574m12.64,3.7964c.0407,0,.0616.0117.05.0415-.044.1133-.044.4453-.3116.4892a7.9414,7.9414,0,0,1-.9336.1582c-.2246,0-.2461.11-.1787.1778.0655.0654.2666.0654.3789.0654.1094,0,.5352.0654.3321.2686a.1567.1567,0,0,0-.1248-.0919c-.0526,0-.1217.0369-.2073.1573-.1641.2334-.07.3546-.1135.3546a.425.425,0,0,1-.1062-.0421c-.249-.1123-.3164-.3125-.5586-.4014-.1759-.0644-.1466-.1163-.1727-.1163a.2867.2867,0,0,0-.0724.0265c-.1553.0664-.1328,0-.335.2685-.167.2243-.1473.3224-.28.3224a.5642.5642,0,0,1-.0965-.0108c-.2481-.044-.5352-.0235-.49-.2012a.9027.9027,0,0,1,.1993-.3555c.0664-.0888.0429-.1133-.1553-.1133-.1451,0-.2666.1068-.3225.1068-.0212,0-.033-.0154-.033-.0579,0-.1582-.333.0205.0664-.3145.3364-.2806.3116-.3392.4126-.3392.0193,0,.043.0021.0747.0052.123.0131.1213.0594.2116.0594a1.3528,1.3528,0,0,0,.347-.0789c.4912-.1572.5547-.1787.5547-.1787a1.5093,1.5093,0,0,1,.224-.0148,1.73,1.73,0,0,1,.3571.0363,1.0732,1.0732,0,0,0,.2253.0236,1.7117,1.7117,0,0,0,.553-.1125,2.4564,2.4564,0,0,1,.5058-.1323M22.7783,21.542c-.0459.7529-.1123,1.86-.1123,2.08a3.8232,3.8232,0,0,0,.2236,1.2461c.1329.292.1553.1787.1553.6015,0,.4209,0,.8672-.1553.8907-.1552.0205-.3134.0205-.2451.1562.0645.1309.378.1748.4.2861s.2666.3594.1787.6465c-.0834.2636.0388.4714-.1732.4714a.5.5,0,0,1-.0748-.0065.7367.7367,0,0,1-.62-.4219c-.1582-.2647-.4678-.1787-.29-.4883.1768-.3125.2676-.5127.2676-.5127s.2881-.0859.0869-.2891c-.2011-.2-.0869-.0654-.2881-.2216-.1992-.1563-.0224.0449-.291-.3125a3.0725,3.0725,0,0,0-.4892-.5323s-.1145-.0121-.2011-.0121c-.084,0-.1417.0114-.0431.0561a1.6074,1.6074,0,0,1,.4453.4014s-.1543.0224-.1777.3095c-.0234.29-.1553.1348,0,.4463a1.6974,1.6974,0,0,0,.2451.3994s.1113.1348.1563.2012.3125.29.2011.3994a.3587.3587,0,0,1-.2623.0855,1.3517,1.3517,0,0,1-.2035-.0191l-.0259-.0017c-.0673,0-.0971.0367-.13.0367s-.0648-.0341-.1366-.1678c-.1562-.2881.0225-.2-.2-.376-.2226-.1787-.292-.247-.3574-.247-.0361,0-.1118-.0387-.1733-.0387-.0516,0-.0933.0273-.0933.1275v.4258a1.08,1.08,0,0,1-.2467.0323c-.129,0-.2648-.0335-.2875-.169-.0257-.156-.0969-.2743-.147-.2743-.0356,0-.0605.0595-.0512.2069a1.9634,1.9634,0,0,1,.02.4688c-.02.2011.1338.1328-.02.2011-.0862.0363-.1116.0868-.1545.0868-.0345,0-.08-.0325-.1775-.1307-.0782-.0781-.1241-.12-.1563-.1533a18.2212,18.2212,0,0,1,3.6035-5.8887m27.3408.4287a18.16,18.16,0,0,1,4.3887,11.8652c0,.0391-.0019.0723-.0019.1114-.0352.1191-.0625.2871-.1309.5117a8.6492,8.6492,0,0,1-.7715,1.6162,4.0988,4.0988,0,0,0-.2959,1.1865,2.9368,2.9368,0,0,1-.665,1.3057c-.12,0-.1641-.1631-.1641-.3692,0-.208-.1338-.2988-.3-.624a1.9435,1.9435,0,0,1-.1162-.8467c.0352-.1169-.06-.3715-.2168-.3715a.1656.1656,0,0,0-.0674.0151.1354.1354,0,0,1-.06.0136c-.18,0-.3963-.3263-.5172-.3534a1.4041,1.4041,0,0,0-.2492-.0148,4.21,4.21,0,0,0-.8192.0733c-.2969.0762-.459.0313-.64.1631a.5377.5377,0,0,1-.3474.1292,1.1176,1.1176,0,0,1-.3489-.07.8959.8959,0,0,0-.2357-.06c-.08,0-.0921.0581-.2839.1361a.5826.5826,0,0,1-.2159.0406,2.5441,2.5441,0,0,1-.6581-.1764c-.3115-.0869-.5039-.414-.624-.4756a.0626.0626,0,0,0-.0267-.0063c-.1033,0-.1654.2923-.15.5132.0147.2353-.0166.3271.2969.3691.31.044.2969.3281.37.4766.0281.0543.1018.0743.1942.0743a1.7893,1.7893,0,0,0,.5031-.1036c.209-.0762.168-.416.2822-.5059a.1443.1443,0,0,1,.0748-.0374c.0458,0,.0521.0805.0746.2288.0123.0946.0918.1194.1969.1194.1165,0,.2644-.0305.3875-.0305l.0367.001c.2373.0166-.0879.7129-.4443.9785a1.4821,1.4821,0,0,0-.4736.55,1.5007,1.5007,0,0,1-1.01.67c-.1348.0576-.0459.2061-.3125.2344a3.8937,3.8937,0,0,0-1.1152.67,2.4834,2.4834,0,0,1-.9225.3571l-.01-.0006c-.0859-.02-.1318-.4327-.1484-.5508-.0127-.1182-.1445-.3994-.1748-.5781s.03-.43-.2978-.4893c-.3272-.0615-.2959-.165-.2959-.165a4.56,4.56,0,0,0-.3272-1.0811c-.1334-.3431-.3122-.7316-.5875-.7316a.33.33,0,0,0-.11.02c-.3427.1172.0743.3984.4893,1.54a3.7122,3.7122,0,0,0,1.291,2.0166c.4141.2246-.5947.2705.12.3877a.963.963,0,0,0,.16.0132c.6517,0,1.26-.6293,1.6184-.7241a.1853.1853,0,0,1,.049-.0071c.3168,0,.1074,1.0268-.6262,1.89-.7725.9053-1.5283,1.2168-1.6016,1.501-.0771.2812-.8027.6074-1.04.874s-.2227.6074-.0459,1.4248c.1807.8135-.8291.9629-1.2441,1.1719-.418.208-.1631.8437-.211.9668-.0068.02-.028.0268-.0586.0268-.0872,0-.251-.0585-.38-.0585-.0923,0-.1666.03-.1818.1332-.0459.295-.3857.5479-.6094.7246-.2216.18-.1035.252-.5322.461a6.9417,6.9417,0,0,1-1.8721.4c-.1016.0067-.1906.0113-.268.0113-.2613,0-.3895-.052-.4136-.2486-.0283-.253-.25-.3721-.459-.52-.207-.1494-.1357-.64-.2529-.875a11.6921,11.6921,0,0,1-.6651-.9785c-.0908-.27.3409-.89.4737-1.0683.1308-.1787.0136-.3106-.0459-.43s.0127-.2969.0127-.5352-.34-.623-.34-.623c-.2685-.4453-.5185-.9639-.3984-1.127.1172-.165.0586-.3418.0127-.5791-.043-.2353-.3242-.1621-.5918-.2207a2.5131,2.5131,0,0,1-.8-.4746.3057.3057,0,0,0-.1926-.0561,1.1135,1.1135,0,0,0-.6248.2475.5374.5374,0,0,1-.3458.0955.6545.6545,0,0,1-.414-.1258.47.47,0,0,0-.3326-.1082c-.1488,0-.3249.033-.5385.0487-.097.0073-.1776.0121-.2448.0121-.21,0-.29-.0464-.3343-.2055a10.557,10.557,0,0,0-1.1884-1.4258c-.3995-.4433-.5323-.6035-.3995-1.0488a2.851,2.851,0,0,0,.1631-1.2637,1.0092,1.0092,0,0,1,.1768-1.0068,9.0179,9.0179,0,0,1,1.35-1.1416c.209-.0918.4775-.7725.6406-.9365a.8728.8728,0,0,1,.5368-.1478l.0257,0c.0791-.0773.2641-.2753.3975-.2753a.1114.1114,0,0,1,.0469.01c.08.0329.1127.1028.269.1028a1.8659,1.8659,0,0,0,.5923-.1487,7.0167,7.0167,0,0,1,1.9252-.1943,7.1106,7.1106,0,0,1,1.2506.0751c.2949.09-.0918.4463-.1641.7735-.0762.3232.34.3828.5957.3828.249,0,.31.03.4414.2978.1358.2676.7129.3409,1.0264.4a.3105.3105,0,0,0,.0582.0058c.2457,0,.2107-.3546.2816-.4784a.744.744,0,0,1,.5027-.253.1579.1579,0,0,1,.1507.0733c.1025.1924.0439.0439.52.3125a3.6984,3.6984,0,0,0,1.4092.2666,2.191,2.191,0,0,0,.3307.0292.7244.7244,0,0,0,.4837-.15c.1631-.1182.3428-.3848.5313-.5635.1953-.1748.15-.5635.2129-.6963a.7741.7741,0,0,0,.0585-.4589.09.09,0,0,0-.0843-.0352.9985.9985,0,0,0-.3463.1064.5984.5984,0,0,1-.2651.0688.8406.8406,0,0,1-.3-.0688.3314.3314,0,0,0-.1151-.0219.4082.4082,0,0,0-.3146.2182c-.021.0335-.0888.0521-.18.0521a1.0352,1.0352,0,0,1-.5462-.1712c-.2812-.1953-.2373-.2979-.2959-.5039a3.0445,3.0445,0,0,1-.0742-.3565c-.0067-.02-.0708-.0254-.1536-.0254-.1094,0-.2515.01-.3376.01-.1475,0-.2656.2822-.3252.34-.06.0595.3545.1054.5049.2685.1474.1641-.1924.1338-.3438.1641-.1465.0263-.2959.1787-.5166.1787-.2226,0-.1328-.4483-.1328-.5967s-.1631-.1484-.24-.251c-.0723-.1035-.0293-.1787-.1172-.4756-.0908-.2959-1.01-.7714-1.083-.8584a.4223.4223,0,0,0-.281-.0682.7776.7776,0,0,0-.2093.0233c-.0888.03-.0166.0733.2237.28.2373.208.0146.3125.1914.373.1722.0562.1928.3563.3893.3563l.0267-.0018.0254-.0016c.2059,0,.3457.3112.3457.3112a.4516.4516,0,0,0-.1514-.1172l-.0074-.0009c-.0535,0-.0785.1484-.0785.1484-.0283.3428-.4746.5781-.4746.5781s-.1787-.1475-.0752-.1475.2383-.163.2383-.2968a10.32,10.32,0,0,0-1.4981-1.2578,1.08,1.08,0,0,0-.4606-.1055c-.12,0-.2224.0275-.2523.1055-.0327.0845-.0832.12-.1413.12a.3594.3594,0,0,1-.2317-.1353.1729.1729,0,0,0-.138-.06,2.7817,2.7817,0,0,0-.4519.1328c-.2383.0605-.0293.1943-.0742.3418s-.5361.1641-.6807.18c-.1513.0146-.0595.3115-.123.46a6.0822,6.0822,0,0,1-1.1826.6944.0849.0849,0,0,1-.0423.0106c-.1427,0-.359-.2987-.3308-.3632.03-.0771-.3857-.0166-.5937-.1064-.207-.0879.0439-.6231.1494-.7715.1025-.1484-.1055-.7256-.1641-.831a.2684.2684,0,0,1,.2351-.3492.2844.2844,0,0,1,.0628.0074,11.8256,11.8256,0,0,0,1.6365.2341.5.5,0,0,0,.1135-.0095c.2207-.06.207-.5049.18-.711-.0332-.207-.5674-.3261-.5674-.3261s-.2813-.1514-.1533-.2481c.1269-.0947.2363-.0644.3759-.081a.4689.4689,0,0,0,.3194-.1543c.0849-.0918.4668-.0518.5488-.0743a.616.616,0,0,0,.2686-.1709c.081-.08.2109-.2058.2756-.2058a.0328.0328,0,0,1,.0281.0135.3142.3142,0,0,0,.2175.0595.5686.5686,0,0,0,.259-.0595c.1836-.0987.2286-.41.3614-.4668.1347-.06.5771-.0411.6523-.1485.0762-.1133.3555-.1328.3262-.2246-.0293-.0869-.3106-.46-.0664-.6494a.4831.4831,0,0,1,.2753-.1239c.0948,0,.1518.0669.1485.1884-.0068.2148-.1348.3642-.0605.5205a.3719.3719,0,0,0,.3837.208,8.21,8.21,0,0,0,1.3975-.1719.15.15,0,0,1,.0612-.0121c.168,0,.407.2237.5752.2237a.15.15,0,0,0,.0619-.0124.7163.7163,0,0,0,.4072-.4228c.0664-.2-.0166-.458.2676-.4952.2812-.04.5927-.165.5341-.3134-.0625-.1475-.3652-.1993-.081-.3184a6.3442,6.3442,0,0,1,1.1826-.1309c.1367-.0322.3672-.2929.2969-.4033a.3372.3372,0,0,0-.2882-.1179.5031.5031,0,0,0-.1542.0232,3.976,3.976,0,0,1-.9423.229.4847.4847,0,0,1-.0763-.0054c-.2568-.0468-.3623.0577-.331-.27.0283-.3252-.0088-.4961.3193-.666.3252-.1719.4229-.1777.5694-.3945.1494-.2149.1494-.3506-.0225-.4893a.2641.2641,0,0,0-.1764-.06,1.2534,1.2534,0,0,0-.4164.1262,6.9469,6.9469,0,0,0-1.4023,1.3945c-.043.2159.1631.2217.1855.4161.0225.1923-.0674.46-.2744.46s-.2.5049-.3838.6279a1.0388,1.0388,0,0,1-.5338.2053.4074.4074,0,0,1-.35-.1877c-.2519-.3642-.1787-.4316-.4013-.624-.1438-.126-.1828-.188-.2533-.188a.4427.4427,0,0,0-.1637.0542,1.7326,1.7326,0,0,1-.6518.2057.2793.2793,0,0,1-.2818-.16c-.1455-.3359.1191-.373.0527-.6006a.5027.5027,0,0,1,.3994-.6767,3.4929,3.4929,0,0,0,1.41-.5713,4.4559,4.4559,0,0,1,1.6318-1.333,6.0657,6.0657,0,0,1,1.7344-.7871,1.6751,1.6751,0,0,1,.2669-.0245c.3076,0,.3311.13.4342.13l.02-.0015a4.6278,4.6278,0,0,1,.6086-.0418,1.3328,1.3328,0,0,1,.4822.0633c.2451.1132,1.5947.17,1.7442.2539.1474.08.6962.2724.6884.3759a.5372.5372,0,0,1-.3681.418,2.73,2.73,0,0,1-.5182.0468,1.4491,1.4491,0,0,1-.24-.0155,2.2612,2.2612,0,0,0-.4371-.0689.3217.3217,0,0,0-.187.0444c-.1318.0967-.415.6289.0137.7852a1.6685,1.6685,0,0,0,.5435.1238.704.704,0,0,0,.4878-.199c.3125-.2744.496-.4883.705-.666a2.4631,2.4631,0,0,1,.8223-.4746,1.7213,1.7213,0,0,0,.7646-.3125c.2833-.2227.5-.2227.7647-.52.2666-.2949.74-.415,1.0176-.9111a8.1031,8.1031,0,0,0,.5263-.9912m-2.5107,11.744a.9661.9661,0,0,0,.2021-.0223c.5811-.1231.7842-.5772.4776-.8692-.3145-.29.1221-.1855.04-.4336-.084-.249-.0176-.125-.3945-.4335-.3711-.3125-.5156-.0645-.3711-.3125.1465-.2471.3281-.2471.4775-.3106.1426-.06.3916-.041.4932-.331a.8648.8648,0,0,0,.083-.3907s-.2951-.3111-.5187-.3111a.1857.1857,0,0,0-.1424.0611c-.2061.23,0,.3311-.3086.4141a1.246,1.246,0,0,0-.4375.1435c-.2481.125-.04.4141-.3281.4356-.29.0225-.6241.1455-.583.3086.1044.418.4365.333.54.4775a1.2986,1.2986,0,0,1,.2285.4336c0,.084.4531.3526.1856.4561a.399.399,0,0,0-.2686.3515.7318.7318,0,0,0,.625.3329M43.5245,32.22c-.0391,0-.0846-.05-.1641-.1827-.1866-.3115-.2276-.1455-.5811-.331a.49.49,0,0,0-.1859-.0743c-.0861,0-.0386.1405-.2477.26-.2881.167-.02.1045-.3506.498s-.083.1641-.1045.3731c-.0176.2061.0967.1289.2471.4111.0578.1034.0351.1353.0391.1353a.7055.7055,0,0,1,.3359-.0708c.5176-.042.2666-.23.4346-.292a3.0829,3.0829,0,0,1,.7226-.1426,2.0189,2.0189,0,0,1,.2466-.03c.1186,0-.0795.0862.1069.1956.0933.0551.1164.0687.132.0687a.2916.2916,0,0,1,.0834-.0131,1.2323,1.2323,0,0,1,.2182.0274.9018.9018,0,0,0,.17.0189c.2572,0,.2552-.1788.4319-.37.208-.23.123-.0635.1455-.1885.0186-.1231-.0615,0-.623-.31-.5577-.3115-.2481-.1865-.2276-.27s.4551-.2275.4141-.415c-.0213-.0964-.1208-.12-.22-.1195-.0921,0-.1843.02-.2143.02-.0615,0-.0615.0381-.2891.2032s-.165.25-.331.415c-.0954.0948-.1363.1827-.1884.1827M30.397,24.2305a.8308.8308,0,0,1,.2593.0761c.0576.0254.0351.0254.1464.1114.0542.0431.0722.0534.12.0534.0444,0,.1144-.0087.262-.0087.03,0,.0632,0,.1.0012a1.4848,1.4848,0,0,1,.7968.1562c.57.1914.1787.4375.1787.4375a.5785.5785,0,0,1-.1884.27.7186.7186,0,0,1-.3416.1378.179.179,0,0,1-.1409-.0606.4279.4279,0,0,0-.2866-.0691,2.3905,2.3905,0,0,0-.3755.0359,1.4238,1.4238,0,0,0-.2714.1582.1188.1188,0,0,1-.0705.0276c-.0894,0-.1324-.15-.0409-.2854.1114-.1709.01-.1368.044-.2813s-.0889-.0889-.2451-.2012a.3345.3345,0,0,1-.09-.4384c.0352-.0869.0778-.1211.1431-.1211m3.77,3.3008c.0654,0,.2812.0185.31.1367s.1446.0976.31.2343c.168.1368.1758.23-.1367.23-.3106,0-.2324.1084-.2627.2344-.0283.1289.06.0391.2529.2236.1973.1865.1768.1865.1856.3115.0117.127.1054.127.1767.36.03.1066.0385.1226.0559.1226.0075,0,.0167-.003.03-.003a.2066.2066,0,0,1,.1261.064c.1875.1582.2032.1182.2559.2441.0449.126-.0215.1553-.1973.1553-.1738,0-.1738.0586-.2226.1572-.0479.0967-.0879.1534-.3018.1924a.3747.3747,0,0,1-.0651.0063c-.15,0-.1688-.1189-.3323-.1674a.3526.3526,0,0,0-.1142-.0224c-.1,0-.1613.0656-.3155.1445-.2041.1083-.1055.1083-.2735.1083-.1592,0-.3483-.2308-.1961-.2308l.0116,0,.0194,0c.1616,0,.2173-.0929.3028-.1108a2.5922,2.5922,0,0,0,.2725-.125c.0986-.0429-.1367-.1084-.1826-.1943-.0508-.0879-.041-.1172.0644-.2754.0506-.07.0859-.0858.1231-.0858.0292,0,.06.01.1.01a.2569.2569,0,0,0,.069-.01c.1475-.0391.1192-.0118.1553-.126.04-.1182-.0752-.2529-.0752-.2529s-.1758-.1944-.2832-.3213a1.0669,1.0669,0,0,1-.1943-.4268c-.0489-.167,0-.2256.0175-.4.0235-.1748.1377-.1845.3145-.1845m-.5852.98c.02,0,.0023.05.03.1078,0,0-.042.1973-.09.3428-.0459.1455-.2022.544-.3487.5791a1.1324,1.1324,0,0,1-.2866.0771.2075.2075,0,0,1-.1323-.0449c-.125-.0957-.3-.1064-.2432-.3105a.9.9,0,0,1,.3125-.43c.1021-.0935.1364-.2707.2882-.2707a.2534.2534,0,0,1,.07.0109.9973.9973,0,0,0,.1978.0435c.0439,0,.0736-.019.1352-.0649.0376-.0286.0564-.0405.0662-.0405M18.7359,34.3448a1.2063,1.2063,0,0,1,.4155.1347,1.8913,1.8913,0,0,0,.2422.625,5.2858,5.2858,0,0,0,.5771.6221c.033.0367.0565.05.0745.05.0473,0,.0577-.0911.1074-.0911.0468,0,.1286.0811.3093.3965.4453.78.1563.4229.335.8457a1.9667,1.9667,0,0,0,.6875.958,3.5658,3.5658,0,0,1,1.0019,1.5567c.18.5556.47.5127.9131,1.0234.4473.5127.4922.4678.8477.8672s.6875.5791.7773.8018c.0879.2226.3975.27.1777.6025s-.288.043-.4892.4912c-.1992.4424,0,.2207-.1992.666-.2.4434-.2.5332-.4024.5557-.1982.0225-.02,0-.4883.0225a1.3775,1.3775,0,0,0-.6669.1552s-.06.3393-.237.3393a.1505.1505,0,0,1-.0306-.0033c-.1735-.0411-.311-.144-.4039-.144a.0937.0937,0,0,0-.0424.0092c-.0869.0439-.1533.0869-.1533.0869a.7817.7817,0,0,1-.21.1367,18.1273,18.1273,0,0,1-3.7832-9.541.5288.5288,0,0,0,.2532.1207c.0493,0,.0846-.0291.0915-.106a2.8515,2.8515,0,0,1,.0674-.8243c.086-.2226.041-.333.1973-.3554a.2348.2348,0,0,1,.0308-.0019m34.8107,3.2061a.2147.2147,0,0,1,.0764.02c.125.0459.0713.31-.0107.4648-.0775.1376-.0657.3794-.1815.3794a.1236.1236,0,0,1-.048-.0112.5934.5934,0,0,1-.2275-.1533s.0615-.334.0615-.37.0488-.2989.19-.31c.0866-.0083.1117-.02.1394-.02M45.41,45.258c.0227,0,.0379.03.0533.1268.0351.2256.1426.0468,0,.3828-.1436.332-.2637.6328-.2891.667a4.2427,4.2427,0,0,1-.2734.7881c-.1074.1074-.0713.1679-.2988.2138-.18.04-.3392.246-.5009.246a.1958.1958,0,0,1-.12-.0429c-.2012-.1533-.2969-.1064-.3223-.2968-.0254-.1934-.1758-.2032.1689-.3828.3477-.1787.4786.0234.334-.2393a.7888.7888,0,0,1-.1328-.3682.3866.3866,0,0,1,.2422-.1407.164.164,0,0,1,.08.0206.32.32,0,0,0,.1322.05c.0741,0,.0621-.1046.192-.2174.18-.1543.2734-.1309.3691-.3438.0957-.2168.085-.3721.2139-.3955.0769-.0134.1212-.0672.1518-.0672M32.0839,14.964l-1.7181.55a19.0868,19.0868,0,0,0-5.7684,3.0148l-.6645.5071.0159-.26L22.04,20.8679A19.134,19.134,0,0,0,18.2384,27.08l-.2221.5927.4407.4544.08.0792.0873.0855a1.2221,1.2221,0,0,0,.8841.4231,1.0686,1.0686,0,0,0,.63-.207,1.12,1.12,0,0,0,.4239-.3581c.0241-.005.0447-.01.0614-.0139a1.0122,1.0122,0,0,0,.732.3026h.2273l.04-.0183c.03.0016.0609.0024.0914.0024q.0491,0,.0959-.0027a1.718,1.718,0,0,0,1.0329.4857,1.4091,1.4091,0,0,0,.2064.0152A1.1187,1.1187,0,0,0,24.1877,27.74a.0863.0863,0,0,0,0-.0243l0,0a1.6262,1.6262,0,0,0-.2069-1.271l-.0117-.0306a4.1779,4.1779,0,0,0,.0762-.9445,1.61,1.61,0,0,0-.1993-.9267c-.0115-.0206-.0267-.047-.0458-.089a3.13,3.13,0,0,1-.1338-.8314,2.1635,2.1635,0,0,0,.3829,1.0755l.03.047c.0311.0735.0634.1333.0863.1757a1.4253,1.4253,0,0,0,1.27.7526,1.41,1.41,0,0,0,.2832-.0278l.04-.0083.0389-.0115.3789-.1123a1.1409,1.1409,0,0,0,.8941-.9983q.0411-.0314.08-.0668c.0465.0041.0935.0062.1407.0062a1.9776,1.9776,0,0,0,.6412-.1192l.017-.0055a1.0718,1.0718,0,0,0,.6331-.232,1.6952,1.6952,0,0,0,.5708.1006c.0355,0,.07-.0011.1033-.003a1.3012,1.3012,0,0,0,.238,1.157,1.1829,1.1829,0,0,0,.1345.6257,1.0835,1.0835,0,0,0,.9566.58,1.1066,1.1066,0,0,0,.6351-.202,1.216,1.216,0,0,0,.51.11,1.6317,1.6317,0,0,0,.8865-.2993,1.5477,1.5477,0,0,0,.4635-.5059,1.1626,1.1626,0,0,0,.3032-.9256,1.2842,1.2842,0,0,0-.9837-1.063l-.19-.0638a2.4342,2.4342,0,0,0-.4666-.1271,1.1992,1.1992,0,0,0,.1214-.3729.3881.3881,0,0,1,.0135-.0615,1.8812,1.8812,0,0,0,.08-.386c.0074-.0228.0176-.0506.0314-.086a1.5465,1.5465,0,0,0,.1837-.1728c.09-.0971.138-.1457.1719-.18a2.1888,2.1888,0,0,0,.1732-.19,1.19,1.19,0,0,0,.2652-.62,1.1413,1.1413,0,0,0,.344-.6667,1.4614,1.4614,0,0,0,.1645-.1634,2.27,2.27,0,0,0,.8776-.33,1.0617,1.0617,0,0,0,.3975-1.192,1.5987,1.5987,0,0,0-1.5136-.9744,1.5526,1.5526,0,0,0-.2435.0189A5.2267,5.2267,0,0,0,31.5949,16.94a2.1459,2.1459,0,0,1,.0453-.2268l.4437-1.7487Zm-8.2463,5.6365.0908-1.49.299.521c-.0251.0682-.051.15-.0808.2613a1.7974,1.7974,0,0,0-.06.3585,1.898,1.898,0,0,0-.2426.3374l-.0067.012Zm19.473-1.3373h0a2.6235,2.6235,0,0,0-.7973.1755,1.1379,1.1379,0,0,1-.2615.0693,2.8926,2.8926,0,0,0-.5824-.06,2.3673,2.3673,0,0,0-.3884.0284l-.071.0131-.0853.0261c-.0093.0031-.0985.0326-.5388.1735l-.0024.0007a1.4116,1.4116,0,0,0-.1456-.0232c-.081-.008-.136-.0108-.1805-.0108a1.1464,1.1464,0,0,0-.8543.3872,2.2834,2.2834,0,0,1-.1989.1841,1.204,1.204,0,0,0-.53,1.201,1.047,1.047,0,0,0,.3222.5386,1.027,1.027,0,0,0,.15.1586,1.0774,1.0774,0,0,0,.1311.2585,1.318,1.318,0,0,0,1.0187.5173c.0358.0041.0731.0078.1091.0141a1.5238,1.5238,0,0,0,.2711.0262,1.0974,1.0974,0,0,0,.7816-.3115,1.7132,1.7132,0,0,0,.2264.1234,1.1763,1.1763,0,0,0,.51.1305l.0217.0479a2.6987,2.6987,0,0,0-.3968.0372,4.3088,4.3088,0,0,0-1.4912.5935c-.1575.0875-.3325.185-.5387.2906a5.6957,5.6957,0,0,0-1.9149,1.5341,5.537,5.537,0,0,1-.8983.2864,1.5194,1.5194,0,0,0-1,.7115,1.5042,1.5042,0,0,0-.192.9137,1.35,1.35,0,0,0-.05.1777,1.4275,1.4275,0,0,0-.3154-.35,1.67,1.67,0,0,0-.1838-.1321,1.3429,1.3429,0,0,0-1.0677-.4635,1.2077,1.2077,0,0,0-1.3056,1.0513l-.0008.0054a1.23,1.23,0,0,0-.7712.5618,1.7805,1.7805,0,0,0-.5412.8452,1.1677,1.1677,0,0,0,.6334,1.3982l0,0a1.1814,1.1814,0,0,0,.3331.1677c.01.0191.02.0381.0307.0569a1.2375,1.2375,0,0,0,.17.2265,1.2547,1.2547,0,0,0-.2232-.02,1.2645,1.2645,0,0,0-1.1252,1.8052c.0138.0326.031.0816.0462.1309a1.77,1.77,0,0,0-.1742,1.2025,1.152,1.152,0,0,0,.12.2786,2.7691,2.7691,0,0,0-.3777.5724c-.0372.0674-.0923.1672-.1347.2364A11.8648,11.8648,0,0,0,29.38,36.3074a1.9955,1.9955,0,0,0-.4282,1.9116,2.151,2.151,0,0,1-.1446.76,1.88,1.88,0,0,0,.6145,2.0055l.2294.2537c.214.2359.6431.709.78.9a1.243,1.243,0,0,0,1.2559.8085c.0878,0,.1932-.0054.32-.0149.1029-.0076.2-.0186.2907-.0291l.0569-.0071a1.6949,1.6949,0,0,0,.8623.2243,1.5965,1.5965,0,0,0,.8846-.249,2.9649,2.9649,0,0,0,.6207.34,3.2325,3.2325,0,0,0,.5788,1.54l.0466.0771.06.0677c.0233.0269.0515.0638.0759.0985a1.5879,1.5879,0,0,0,.01.5712,1.8234,1.8234,0,0,0-.3835,1.6446,3.1068,3.1068,0,0,0,.54.8713c.0552.0708.11.1379.1515.1965.0036.0271.0063.0554.01.0838a1.6007,1.6007,0,0,0,.58,1.1935l.0975.0676.0113.0077a1.2818,1.2818,0,0,0,1.3489.8819c.0965,0,.2074-.005.3339-.0134a7.799,7.799,0,0,0,2.2412-.4977,1.7816,1.7816,0,0,0,.7566-.6079,3.4492,3.4492,0,0,0,.5879-.5554,1.0382,1.0382,0,0,0,.9269-.6961.96.96,0,0,0,.0626-.33,1.1955,1.1955,0,0,0,.5983.6141,1.2449,1.2449,0,0,0,.7462.2571,1.42,1.42,0,0,0,.8265-.2953,1.2328,1.2328,0,0,0,.7143-.4932,2.3932,2.3932,0,0,0,.4479-1.0316l.0127-.0457c.0333-.0726.0748-.1711.1357-.3159l.1429-.3362a1.2315,1.2315,0,0,0,.0377-1.09,1.0333,1.0333,0,0,0-1.5033-.6911,1.1744,1.1744,0,0,0-.7439.8072l-.04.029c-.0341-.177-.05-.2895-.0562-.3608.0556-.038.1293-.0872.1858-.1248a2.4106,2.4106,0,0,0,.9136-.88c.0532-.0441.12-.0921.1937-.149a7.8838,7.8838,0,0,0,1.2842-1.1807,3.5979,3.5979,0,0,0,.9864-2.5527l.0213-.0209a2.4339,2.4339,0,0,0,1.2632-.9761l.093-.134.0082-.0452a1.0357,1.0357,0,0,1,.15-.14,2.5191,2.5191,0,0,0,.9175-1.5388,2.7675,2.7675,0,0,0,.2894-.0578,3.1746,3.1746,0,0,1,.4508-.04,1.8226,1.8226,0,0,0,.2363.1753,2.35,2.35,0,0,0,.2141.8244,3.9547,3.9547,0,0,0,.2029.3514,1.1857,1.1857,0,0,0,1.1571,1.1979,1,1,0,0,0,.5409-.1627l.2473.0108a1.1135,1.1135,0,0,0,1.0911-.9578l.0024-.0121h0a1.53,1.53,0,0,0,.0927-1.1691,1.12,1.12,0,0,0-.2265-.363c.018-.1056.04-.2312.0575-.2993a9.563,9.563,0,0,0,.8857-1.87c.0467-.1534.0785-.289.1047-.4028.01-.0422.0174-.0791.0267-.1106l.041-.1387v-.1447l.0019-.1114A19.24,19.24,0,0,0,50.8783,21.32l-1.0993-1.282-.5956,1.58a4.5036,4.5036,0,0,1-.3108.5905c-.0541.0925-.1065.1823-.1541.268a.9493.9493,0,0,1-.3216.27,2.7945,2.7945,0,0,0-.5635.4554c-.0335.0375-.0372.0417-.1579.1037a2.7984,2.7984,0,0,0-.483.3c-.0543.0434-.0553.0442-.2111.0823-.0672.0165-.1371.0339-.2117.0553q-.0519.0147-.1029.0318a3.5738,3.5738,0,0,0-.5368-.2691c-.0514-.0221-.0978-.0412-.13-.0568a2.9463,2.9463,0,0,0-1.13-.2187c-.2253-.0225-.5936-.0594-.73-.0875a2.2306,2.2306,0,0,0-.8322-.1259c-.162,0-.3239.0086-.4616.02a1.4606,1.4606,0,0,0-.28-.0789l.7875-.788a1.1771,1.1771,0,0,0,.3184-.5595,1.4543,1.4543,0,0,0,.6387-.9943l.1712-.4409-.2968-.4615a1.04,1.04,0,0,0-.8757-.4514Zm-7.5291,9.2757a1.0338,1.0338,0,0,0,.06-.1365l.012-.0363a1.2958,1.2958,0,0,0,.223.3245q-.0317.0118-.0633.0258-.0342.0145-.0662.0309l-.0185-.013a.7738.7738,0,0,1-.069-.0523l-.0284-.0232q-.0183-.0341-.0368-.0649c-.004-.0187-.0083-.0371-.013-.055ZM18.736,33.3448H18.67l-.0958.0105a1.1152,1.1152,0,0,0-.877.624l-.7854-.5758L17.1,35.6024a19.1285,19.1285,0,0,0,3.9913,10.0662l.4536.58.6887-.2611a1.4307,1.4307,0,0,0,.1537-.0693c.023.0066.0466.0127.0709.0185l.1137.0269.1474.0033a1.16,1.16,0,0,0,.9452-.4954h0c.2076-.01.27-.01.3035-.01h.0358a1.7443,1.7443,0,0,0,.22-.0177,1.3412,1.3412,0,0,0,1.121-.9562l.08-.1816a1.9487,1.9487,0,0,0,.1784-.5743,1.4868,1.4868,0,0,0,.4322-.442,1.2624,1.2624,0,0,0-.14-1.6492,2.2217,2.2217,0,0,0-.5539-.6385,3.8082,3.8082,0,0,1-.3479-.3338,5.3286,5.3286,0,0,0-.4323-.4373,4.4289,4.4289,0,0,1-.409-.4225,3.7819,3.7819,0,0,0-.5944-.5479,1.0212,1.0212,0,0,1-.114-.0918l.0011,0c.0033,0-.0019-.016-.0078-.0344a4.5764,4.5764,0,0,0-1.2616-1.9711c-.3328-.3224-.3328-.3224-.415-.5212l-.0355-.0854a2.378,2.378,0,0,0-.3953-.9707,1.56,1.56,0,0,0-.9692-.881.9754.9754,0,0,1-.1364-.1568.9126.9126,0,0,1-.09-.252l-.0921-.4683-.4238-.2329a2.0218,2.0218,0,0,0-.8826-.2505Z" fill="#6d6d6d"/>
    </g>
    <g style="isolation: isolate">
      <g>
        <path d="M48.8184,33.49a.5023.5023,0,0,1-.253-.0683L41.623,29.3525a.5.5,0,0,1-.1484-.73l5.5313-7.4209A.501.501,0,0,1,47.4072,21a.4943.4943,0,0,1,.2647.0762l6.373,3.9726a.4995.4995,0,0,1,.1524.6992l-4.9619,7.5176A.4985.4985,0,0,1,48.8184,33.49Z" fill="url(#c)"/>
        <path d="M47.4072,21.5,53.78,25.4727,48.8184,32.99,41.876,28.9209,47.4072,21.5m.0007-1a.9993.9993,0,0,0-.8025.4025l-5.5312,7.4209a1,1,0,0,0,.2961,1.46l6.9424,4.0693a1,1,0,0,0,1.34-.3118l4.9619-7.5175a1,1,0,0,0-.3056-1.3995l-6.3731-3.9727a.9961.9961,0,0,0-.5283-.1515Z" fill="#00415f"/>
      </g>
      <g>
        <path d="M43.47,35.4629a.499.499,0,0,1-.2773-.084l-6.2608-4.1738a.5.5,0,0,1-.1171-.7227l4.8691-6.2607a.5.5,0,0,1,.665-.1143L49.15,28.4736a.5011.5011,0,0,1,.1025.7539l-5.41,6.0684A.5.5,0,0,1,43.47,35.4629Z" fill="url(#d)"/>
        <path d="M42.0781,24.5283,48.88,28.8945l-5.41,6.0684L37.209,30.7891l4.8691-6.2608m.0007-1a.9992.9992,0,0,0-.79.3862L36.42,30.1752a1,1,0,0,0,.2347,1.4459l6.2607,4.1738a1,1,0,0,0,1.3011-.1665l5.41-6.0684a1,1,0,0,0-.2062-1.507l-6.8018-4.3662a.9961.9961,0,0,0-.5395-.1586Z" fill="#00415f"/>
      </g>
      <g>
        <path d="M44.166,41.7236a.4945.4945,0,0,1-.2568-.0713l-6.9571-4.1738a.4978.4978,0,0,1-.2431-.4287V30.7891a.4991.4991,0,0,1,.5-.5.4945.4945,0,0,1,.2568.0713l6.9571,4.1738a.4978.4978,0,0,1,.2431.4287v6.2607a.4991.4991,0,0,1-.5.5Z" fill="url(#e)"/>
        <path d="M37.209,30.7891l6.957,4.1738v6.2607L37.209,37.05V30.7891m0-1a1,1,0,0,0-1,1V37.05a1,1,0,0,0,.4855.8575l6.957,4.1738a1,1,0,0,0,1.5145-.8575V34.9629a1,1,0,0,0-.4855-.8575l-6.957-4.1738a1,1,0,0,0-.5145-.1425Z" fill="#00415f"/>
      </g>
      <g>
        <path d="M44.166,41.7236a.4992.4992,0,0,1-.5-.5V34.9629a.4981.4981,0,0,1,.1055-.3066l4.8691-6.2618a.5006.5006,0,0,1,.3946-.1933.4892.4892,0,0,1,.1621.0273.5.5,0,0,1,.3379.4727v2.6367l4.2695-5.874a.5.5,0,0,1,.9043.2939V36.1924a.4993.4993,0,0,1-.2764.4472L44.39,41.6709A.5006.5006,0,0,1,44.166,41.7236Z" fill="url(#f)"/>
        <path d="M54.209,25.7578V36.1924L44.166,41.2236V34.9629l4.8692-6.2617V32.876l5.1738-7.1182m0-1a1,1,0,0,0-.809.4122l-3.3649,4.6294V28.7012a1,1,0,0,0-1.7894-.6139L43.3766,34.349a1,1,0,0,0-.2106.6139v6.2607a1,1,0,0,0,1.4479.8941l10.043-5.0312a1,1,0,0,0,.5521-.8941V25.7578a1,1,0,0,0-1-1Z" fill="#00415f"/>
      </g>
    </g>
    <g style="isolation: isolate">
      <g>
        <path d="M21.1094,23.7666a.5026.5026,0,0,1-.253-.0684l-6.9423-4.0693a.5006.5006,0,0,1-.1485-.7305l5.5313-7.4209a.5012.5012,0,0,1,.4013-.2011.4946.4946,0,0,1,.2647.0761l6.373,3.9727a.4995.4995,0,0,1,.1524.6992L21.5264,23.542A.4984.4984,0,0,1,21.1094,23.7666Z" fill="url(#g)"/>
        <path d="M19.6982,11.7764l6.3731,3.9726-4.9619,7.5176L14.167,19.1973l5.5312-7.4209m.0007-1a.9993.9993,0,0,0-.8025.4025L13.3652,18.6a1,1,0,0,0,.2961,1.46l6.9424,4.0693a1,1,0,0,0,1.34-.3118L26.9059,16.3A1,1,0,0,0,26.6,14.9l-6.3731-3.9726a.9961.9961,0,0,0-.5283-.1515Z" fill="#00415f"/>
      </g>
      <g>
        <path d="M15.7607,25.7393a.4992.4992,0,0,1-.2773-.084L9.2227,21.4814a.5.5,0,0,1-.1172-.7226l4.8691-6.2608a.5.5,0,0,1,.665-.1142L21.4414,18.75a.5011.5011,0,0,1,.1025.7539l-5.41,6.0684A.5.5,0,0,1,15.7607,25.7393Z" fill="url(#h)"/>
        <path d="M14.3691,14.8047l6.8018,4.3662-5.41,6.0684L9.5,21.0654l4.8691-6.2607m.0007-1a.9992.9992,0,0,0-.79.3862L8.7106,20.4515a1,1,0,0,0,.2347,1.4459l6.2607,4.1739a1,1,0,0,0,1.3011-.1665l5.41-6.0684a1,1,0,0,0-.2062-1.507l-6.8018-4.3662a.9961.9961,0,0,0-.54-.1586Z" fill="#00415f"/>
      </g>
      <g>
        <path d="M16.457,32a.4948.4948,0,0,1-.2568-.0713l-6.957-4.1738A.4978.4978,0,0,1,9,27.3262V21.0654a.4994.4994,0,0,1,.5-.5.4955.4955,0,0,1,.2568.0713l6.9571,4.1738a.4981.4981,0,0,1,.2431.4288V31.5a.4994.4994,0,0,1-.5.5Z" fill="url(#i)"/>
        <path d="M9.5,21.0654l6.957,4.1739V31.5L9.5,27.3262V21.0654m0-1a1,1,0,0,0-1,1v6.2608a1,1,0,0,0,.4855.8575l6.957,4.1738A1,1,0,0,0,17.457,31.5V25.2393a1,1,0,0,0-.4855-.8575l-6.957-4.1739A1,1,0,0,0,9.5,20.0654Z" fill="#00415f"/>
      </g>
      <g>
        <path d="M16.457,32a.4992.4992,0,0,1-.5-.5V25.2393a.4984.4984,0,0,1,.1055-.3067l4.8691-6.2617a.5007.5007,0,0,1,.3946-.1934.4864.4864,0,0,1,.1621.0274.4994.4994,0,0,1,.3379.4726v2.6368l4.27-5.8741a.5.5,0,0,1,.9043.294V26.4688a.4991.4991,0,0,1-.2764.4472L16.6807,31.9473A.5023.5023,0,0,1,16.457,32Z" fill="url(#j)"/>
        <path d="M26.5,16.0342V26.4688L16.457,31.5V25.2393l4.8692-6.2618v4.1748L26.5,16.0342m0-1a1,1,0,0,0-.809.4122l-3.3649,4.6294V18.9775a1,1,0,0,0-1.7894-.6139l-4.8692,6.2618a1,1,0,0,0-.2106.6139V31.5a1,1,0,0,0,1.4479.8941l10.043-5.0312a1,1,0,0,0,.5521-.8941V16.0342a1,1,0,0,0-1-1Z" fill="#00415f"/>
      </g>
    </g>
    <path d="M36.2715,31.9072S32.9561,17.6943,19.5,25.5" fill="none" stroke="#00415f" stroke-miterlimit="10" stroke-width="2"/>
  </g>
</svg>
