<svg xmlns="http://www.w3.org/2000/svg" xmlns:xlink="http://www.w3.org/1999/xlink" width="64" height="64" viewBox="0 0 64 64">
  <defs>
    <linearGradient id="a" x1="40.958" y1="27.18" x2="70.404" y2="27.18" gradientUnits="userSpaceOnUse">
      <stop offset="0" stop-color="#787878"/>
      <stop offset="1" stop-color="#fcfcfc"/>
    </linearGradient>
    <linearGradient id="b" x1="73.539" y1="-56.086" x2="14.958" y2="37.364" gradientUnits="userSpaceOnUse">
      <stop offset="0" stop-color="#c9c9c9"/>
      <stop offset="1" stop-color="#737373"/>
    </linearGradient>
    <linearGradient id="c" x1="77.986" y1="-3.667" x2="16.703" y2="43.377" gradientUnits="userSpaceOnUse">
      <stop offset="0" stop-color="#fcfcfc"/>
      <stop offset="1" stop-color="#b3b3b3"/>
    </linearGradient>
    <linearGradient id="d" x1="25.826" y1="29.734" x2="30.174" y2="37.266" gradientUnits="userSpaceOnUse">
      <stop offset="0" stop-color="#fff"/>
      <stop offset="1" stop-color="#d2d2d2"/>
    </linearGradient>
    <linearGradient id="e" x1="19.835" y1="28.384" x2="25.382" y2="37.991" gradientUnits="userSpaceOnUse">
      <stop offset="0" stop-color="#f5f5f5"/>
      <stop offset="1" stop-color="#bebebe"/>
    </linearGradient>
    <linearGradient id="f" x1="24.517" y1="25.681" x2="27.483" y2="30.819" gradientUnits="userSpaceOnUse">
      <stop offset="0" stop-color="#fff"/>
      <stop offset="1" stop-color="#f1f0f0"/>
    </linearGradient>
    <linearGradient id="g" x1="24.945" y1="30.243" x2="26.994" y2="33.792" gradientUnits="userSpaceOnUse">
      <stop offset="0" stop-color="#8dd7f4"/>
      <stop offset="1" stop-color="#386e8c"/>
    </linearGradient>
    <linearGradient id="h" x1="20.701" y1="27.884" x2="24.516" y2="34.491" gradientUnits="userSpaceOnUse">
      <stop offset="0" stop-color="#83bedc"/>
      <stop offset="1" stop-color="#285a78"/>
    </linearGradient>
    <linearGradient id="i" x1="22.769" y1="26.69" x2="25.231" y2="30.953" gradientUnits="userSpaceOnUse">
      <stop offset="0" stop-color="#a3def6"/>
      <stop offset="1" stop-color="#74c3e1"/>
    </linearGradient>
    <linearGradient id="j" x1="39.826" y1="25.734" x2="44.174" y2="33.266" xlink:href="#d"/>
    <linearGradient id="m" x1="38.945" y1="26.243" x2="40.994" y2="29.792" xlink:href="#g"/>
    <linearGradient id="p" x1="44.955" y1="15.637" x2="25.416" y2="32.366" xlink:href="#c"/>
    <linearGradient id="q" x1="34.587" y1="20.743" x2="37.5" y2="20.743" xlink:href="#b"/>
    <linearGradient id="r" x1="33.115" y1="15.448" x2="21.005" y2="26.675" xlink:href="#c"/>
    <linearGradient id="s" x1="24.923" y1="22.829" x2="27.5" y2="22.829" xlink:href="#b"/>
    <linearGradient id="t" x1="22.803" y1="18.294" x2="5.269" y2="31.596" xlink:href="#c"/>
    <linearGradient id="u" x1="41.195" y1="27.603" x2="62.594" y2="60.833" gradientUnits="userSpaceOnUse">
      <stop offset="0" stop-color="#fff"/>
      <stop offset="1" stop-color="#bfbfbf"/>
    </linearGradient>
    <linearGradient id="v" x1="7.917" y1="42.259" x2="11.083" y2="47.741" xlink:href="#g"/>
    <linearGradient id="w" x1="10.484" y1="40.509" x2="14.516" y2="47.491" xlink:href="#g"/>
    <linearGradient id="x" x1="12.402" y1="36.134" x2="18.598" y2="46.866" xlink:href="#g"/>
    <linearGradient id="y" x1="16.484" y1="40.509" x2="20.516" y2="47.491" xlink:href="#g"/>
    <linearGradient id="z" x1="19.917" y1="42.259" x2="23.083" y2="47.741" xlink:href="#g"/>
  </defs>
  <title>19927_DELSLA_AP_AppIcon_r21x</title>
  <g>
    <polygon points="51.904 19.68 51.904 34.68 36.13 22.344 51.904 19.68" fill="url(#a)"/>
    <polygon points="10.906 21.43 10.904 30.515 37.662 23.543 38.198 12.05 32.597 15.747 29.689 13.741 22.943 17.762 20.413 15.504 10.906 21.43" fill="url(#b)"/>
    <polygon points="20.078 43.729 51.193 34.215 37.662 23.543 10.904 30.515 20.078 43.729" stroke="#6d6d6d" stroke-linecap="round" stroke-linejoin="round" fill="url(#c)"/>
    <g>
      <polygon points="31.5 36.5 24.5 38.5 24.5 30.5 31.5 28.5 31.5 36.5" stroke="#787979" stroke-linejoin="round" fill="url(#d)"/>
      <polygon points="20.5 35.5 24.5 38.5 24.5 30.5 20.5 28 20.5 35.5" stroke="#787979" stroke-linejoin="round" fill="url(#e)"/>
      <polygon points="31.5 28.5 24.5 30.5 20.5 28 27 26.5 31.5 28.5" stroke="#787979" stroke-linejoin="round" fill="url(#f)"/>
      <polygon points="27 26.5 20.5 28 20.5 35.5 24.5 38.5 31.5 36.5 31.5 28.5 27 26.5" fill="none" stroke="#323232" stroke-linejoin="round"/>
      <polygon points="24.5 34.5 27.5 33.5 27.5 29.643 24.5 30.5 24.5 34.5" stroke="#053755" stroke-linejoin="round" fill="url(#g)"/>
      <polygon points="20.5 31.5 24.5 34.5 24.5 30.5 20.5 28 20.5 31.5" stroke="#053755" stroke-linejoin="round" fill="url(#h)"/>
      <polygon points="27.5 29.643 23.584 27.288 20.5 28 24.5 30.5 27.5 29.643" stroke="#053755" stroke-linejoin="round" fill="url(#i)"/>
    </g>
    <g>
      <polygon points="45.5 32.5 38.5 34.5 38.5 26.5 45.5 24.5 45.5 32.5" stroke="#787979" stroke-linejoin="round" fill="url(#j)"/>
      <polygon points="34.5 31.5 38.5 34.5 38.5 26.5 34.5 24 34.5 31.5" stroke="#787979" stroke-linejoin="round" fill="url(#e)"/>
      <polygon points="45.5 24.5 38.5 26.5 34.5 24 41 22.5 45.5 24.5" stroke="#787979" stroke-linejoin="round" fill="url(#f)"/>
      <polygon points="41 22.5 34.5 24 34.5 31.5 38.5 34.5 45.5 32.5 45.5 24.5 41 22.5" fill="none" stroke="#323232" stroke-linejoin="round"/>
      <polygon points="38.5 30.5 41.5 29.5 41.5 25.643 38.5 26.5 38.5 30.5" stroke="#053755" stroke-linejoin="round" fill="url(#m)"/>
      <polygon points="34.5 27.5 38.5 30.5 38.5 26.5 34.5 24 34.5 27.5" stroke="#053755" stroke-linejoin="round" fill="url(#h)"/>
      <polygon points="41.5 25.643 37.584 23.288 34.5 24 38.5 26.5 41.5 25.643" stroke="#053755" stroke-linejoin="round" fill="url(#i)"/>
    </g>
    <g>
      <path d="M42.526,27.183a.5.5,0,0,1-.306-.106L30.132,17.693a.5.5,0,0,1,.027-.809l7.759-5.248a.5.5,0,0,1,.28-.086.5.5,0,0,1,.258.072l13.8,8.321a.5.5,0,0,1,.019.844L42.8,27.1A.5.5,0,0,1,42.526,27.183Z" fill="url(#p)"/>
      <path d="M38.2,12.05,52,20.371l-9.473,6.312L30.439,17.3,38.2,12.05m0-1a.993.993,0,0,0-.56.172L29.879,16.47a1,1,0,0,0-.053,1.618l12.087,9.385a1,1,0,0,0,1.168.042L52.554,21.2a1,1,0,0,0-.038-1.688l-13.8-8.322a1.011,1.011,0,0,0-.517-.143Z" fill="#6d6d6d"/>
    </g>
    <polygon points="37.5 18.627 37.5 22.859 34.587 20.672 37.5 18.627" stroke="#6d6d6d" stroke-linecap="round" stroke-linejoin="round" fill="url(#q)"/>
    <g>
      <path d="M28.033,25.122a.5.5,0,0,1-.4-.2l-5.089-6.86a.5.5,0,0,1,.146-.728l6.745-4.02a.5.5,0,0,1,.544.021l7.345,5.191a.5.5,0,0,1-.021.831l-9,5.69A.5.5,0,0,1,28.033,25.122Z" fill="url(#r)"/>
      <path d="M29.688,13.741l7.346,5.191-9,5.69-5.089-6.86,6.745-4.021m0-1a1.006,1.006,0,0,0-.512.141L22.431,16.9a1,1,0,0,0-.291,1.454l5.089,6.861a1,1,0,0,0,1.338.25l9-5.691a1,1,0,0,0,.043-1.661l-7.345-5.191a1,1,0,0,0-.578-.184Z" fill="#6d6d6d"/>
    </g>
    <polygon points="27.5 20.5 27.5 25.157 24.923 22.209 27.5 20.5" stroke="#6d6d6d" stroke-linecap="round" stroke-linejoin="round" fill="url(#s)"/>
    <g>
      <path d="M16.35,28.577a.5.5,0,0,1-.387-.183L10.52,21.747a.5.5,0,0,1-.107-.4.506.506,0,0,1,.229-.343l9.506-5.925a.5.5,0,0,1,.585.04l6.587,5.5a.5.5,0,0,1-.043.8L16.626,28.493A.491.491,0,0,1,16.35,28.577Z" fill="url(#t)"/>
      <path d="M20.413,15.5,27,21,16.35,28.078,10.906,21.43,20.413,15.5m0-1a1,1,0,0,0-.529.151l-9.507,5.926a1,1,0,0,0-.244,1.482l5.443,6.648a1,1,0,0,0,1.327.2l10.65-7.077a1,1,0,0,0,.088-1.6l-6.587-5.5a1,1,0,0,0-.641-.232Z" fill="#6d6d6d"/>
    </g>
    <path d="M38.2,12,51.9,20.68V33.626l-1,.054-30.826,10L11,30.68v-9l9.413-6.226,2.537,2.254,6.738-4.017L32.6,15.747l-.07-.079L38.2,12m0-1a1,1,0,0,0-.543.16L32.53,14.475l-2.264-1.6a1,1,0,0,0-1.09-.043l-6.109,3.642-1.99-1.768a1,1,0,0,0-1.216-.086l-9.413,6.226A1,1,0,0,0,10,21.68v9a1,1,0,0,0,.18.572l9.078,13a1,1,0,0,0,1.129.379l30.7-9.96.87-.046a1,1,0,0,0,.946-1V20.68a1,1,0,0,0-.465-.845l-13.706-8.68A1,1,0,0,0,38.2,11Z" fill="#2d2d2d"/>
  </g>
  <g>
    <polygon points="42.5 45.5 56.5 52.597 56.5 35.5 42.5 28.5 42.5 45.5" stroke="#2d2d2d" stroke-linecap="round" stroke-linejoin="round" fill="url(#u)"/>
    <polygon points="47.5 36 47.5 44 53.351 40.217 47.5 36" fill="#2d2d2d"/>
  </g>
  <g>
    <g opacity="0.5">
      <path d="M21.5,49.5a2,2,0,0,1-1.5-.679,2,2,0,0,1-3,0,2,2,0,0,1-3,0,2,2,0,0,1-3,0A2,2,0,0,1,7.5,47.5v-5a2,2,0,0,1,3-1.731V40.5a2,2,0,0,1,3-1.731V35.5a2,2,0,0,1,4,0v3.269a2,2,0,0,1,3,1.731v.269a2,2,0,0,1,3,1.731v5A2,2,0,0,1,21.5,49.5Z" fill="#fff"/>
      <path d="M15.5,34A1.5,1.5,0,0,1,17,35.5v5a1.5,1.5,0,0,1,3,0v2a1.5,1.5,0,0,1,3,0v5a1.5,1.5,0,0,1-3,0,1.5,1.5,0,0,1-3,0,1.5,1.5,0,0,1-3,0,1.5,1.5,0,0,1-3,0,1.5,1.5,0,0,1-3,0v-5a1.5,1.5,0,0,1,3,0v-2a1.5,1.5,0,0,1,3,0v-5A1.5,1.5,0,0,1,15.5,34m0-1A2.5,2.5,0,0,0,13,35.5v2.55a2.5,2.5,0,0,0-2.961,2.009A2.459,2.459,0,0,0,9.5,40,2.5,2.5,0,0,0,7,42.5v5a2.5,2.5,0,0,0,4,2,2.5,2.5,0,0,0,3,0,2.5,2.5,0,0,0,3,0,2.5,2.5,0,0,0,3,0,2.5,2.5,0,0,0,4-2v-5A2.5,2.5,0,0,0,21.5,40a2.459,2.459,0,0,0-.539.059A2.5,2.5,0,0,0,18,38.05V35.5A2.5,2.5,0,0,0,15.5,33Z" fill="#fff"/>
    </g>
    <rect x="8.5" y="41.5" width="2" height="7" rx="1" stroke="#053755" stroke-linejoin="round" fill="url(#v)"/>
    <rect x="11.5" y="39.5" width="2" height="9" rx="1" stroke="#053755" stroke-linejoin="round" fill="url(#w)"/>
    <rect x="14.5" y="34.5" width="2" height="14" rx="1" stroke="#053755" stroke-linejoin="round" fill="url(#x)"/>
    <rect x="17.5" y="39.5" width="2" height="9" rx="1" stroke="#053755" stroke-linejoin="round" fill="url(#y)"/>
    <rect x="20.5" y="41.5" width="2" height="7" rx="1" stroke="#053755" stroke-linejoin="round" fill="url(#z)"/>
  </g>
</svg>
