<svg xmlns="http://www.w3.org/2000/svg" xmlns:xlink="http://www.w3.org/1999/xlink" width="64" height="64" viewBox="0 0 64 64">
  <defs>
    <linearGradient id="a" x1="28.9175" y1="43.8604" x2="28.9175" y2="49.7289" gradientUnits="userSpaceOnUse">
      <stop offset="0" stop-color="#fff"/>
      <stop offset="0.2453" stop-color="#c5c5c5"/>
      <stop offset="0.8077" stop-color="#333"/>
      <stop offset="1"/>
    </linearGradient>
    <linearGradient id="b" x1="58.2006" y1="2.2539" x2="41.5564" y2="40.4653" gradientUnits="userSpaceOnUse">
      <stop offset="0" stop-color="#c9c9c9"/>
      <stop offset="1" stop-color="#737373"/>
    </linearGradient>
    <linearGradient id="c" x1="53.4135" y1="13.8426" x2="33.8554" y2="31.8963" gradientUnits="userSpaceOnUse">
      <stop offset="0" stop-color="#fff"/>
      <stop offset="1" stop-color="#b3b3b3"/>
    </linearGradient>
    <linearGradient id="d" x1="54.7179" y1="37.2222" x2="34.7452" y2="53.9614" xlink:href="#b"/>
    <linearGradient id="e" x1="60.5105" y1="19.6487" x2="33.1309" y2="68.8882" gradientUnits="userSpaceOnUse">
      <stop offset="0" stop-color="#d4d4d4"/>
      <stop offset="1" stop-color="#9a9c9e"/>
    </linearGradient>
    <linearGradient id="f" x1="12.298" y1="55.3213" x2="34.0915" y2="39.4389" gradientUnits="userSpaceOnUse">
      <stop offset="0" stop-color="#92d5ee"/>
      <stop offset="0.4825" stop-color="#599bb4"/>
      <stop offset="1" stop-color="#185971"/>
    </linearGradient>
    <linearGradient id="g" x1="33.0668" y1="41.7378" x2="53.1453" y2="41.7378" xlink:href="#f"/>
    <linearGradient id="h" x1="44.2996" y1="39.0626" x2="41.2716" y2="41.9292" gradientUnits="userSpaceOnUse">
      <stop offset="0" stop-color="#185971"/>
      <stop offset="1" stop-color="#5ea0b8"/>
    </linearGradient>
    <linearGradient id="i" x1="63.4411" y1="18.7203" x2="32.0283" y2="63.6205" xlink:href="#f"/>
    <linearGradient id="j" x1="58.1953" y1="17.4182" x2="28.6949" y2="59.5849" xlink:href="#f"/>
    <linearGradient id="k" x1="52.1204" y1="16.8065" x2="25.5066" y2="54.8472" xlink:href="#f"/>
    <linearGradient id="l" x1="31.3097" y1="39.6255" x2="35.553" y2="39.6255" xlink:href="#f"/>
    <linearGradient id="m" x1="31.0417" y1="28.2598" x2="1.9985" y2="61.3618" xlink:href="#c"/>
    <linearGradient id="n" x1="37.3329" y1="22.2184" x2="27.1781" y2="46.7412" xlink:href="#f"/>
    <linearGradient id="o" x1="43.869" y1="19.5882" x2="40.7484" y2="23.3994" gradientUnits="userSpaceOnUse">
      <stop offset="0" stop-color="#185971"/>
      <stop offset="0.5175" stop-color="#599bb4"/>
      <stop offset="1" stop-color="#92d5ee"/>
    </linearGradient>
    <linearGradient id="p" x1="58.0468" y1="5.943" x2="29.4881" y2="46.7636" xlink:href="#f"/>
    <linearGradient id="q" x1="44.0474" y1="21.2445" x2="15.0875" y2="62.6386" xlink:href="#f"/>
    <linearGradient id="r" x1="54.616" y1="7.5315" x2="18.4442" y2="59.234" xlink:href="#f"/>
    <linearGradient id="s" x1="40.668" y1="22.2027" x2="22.3115" y2="42.5645" xlink:href="#f"/>
    <mask id="t" x="-28" y="9" width="86.001" height="76" maskUnits="userSpaceOnUse">
      <rect x="-0.166" y="33.167" width="58.167" height="17.1963" fill="url(#a)"/>
    </mask>
  </defs>
  <title>I_DELTSA_AP</title>
  <g>
    <g>
      <g>
        <g>
          <path d="M49.0293,47.4258a.5031.5031,0,0,1-.33-.124l-7.1933-6.3194a.5012.5012,0,0,1-.17-.376l-.0224-24.3476a.4992.4992,0,0,1,.7627-.4248l7.2158,4.4619a.4993.4993,0,0,1,.2373.4248V46.9258a.5013.5013,0,0,1-.5.5Z" fill="url(#b)"/>
          <path d="M41.8135,16.2588l7.2159,4.4619V46.9258L41.836,40.6064l-.0225-24.3476m0-1a1,1,0,0,0-1,1.0009l.0225,24.3476a1,1,0,0,0,.34.75l7.1934,6.3194a1,1,0,0,0,1.66-.7513V20.7207a1,1,0,0,0-.4741-.8505l-7.2159-4.4619a.9994.9994,0,0,0-.526-.1495Z" fill="#6d6d6d"/>
        </g>
        <polygon points="41.806 16.259 49.649 20.889 56.814 19.002 48.519 14.402 41.806 16.259" fill="url(#c)"/>
        <g>
          <path d="M50.8115,41.4834a.5.5,0,0,1-.4912-.5928l.9238-4.8818a.5.5,0,0,1,.7149-.3545L57.37,38.36a.5.5,0,0,1-.0615.92l-6.335,2.1758A.4884.4884,0,0,1,50.8115,41.4834Z" fill="url(#d)"/>
          <path d="M51.7354,36.1016l5.4112,2.706-6.335,2.1758.9238-4.8818m0-1a1,1,0,0,0-.9826.8141l-.9238,4.8818a1,1,0,0,0,1.3074,1.1317l6.335-2.1758a1,1,0,0,0,.1224-1.84l-5.4112-2.706a.9992.9992,0,0,0-.4472-.1056Z" fill="#6d6d6d"/>
        </g>
        <g>
          <path d="M49.0488,48a.5006.5006,0,0,1-.5-.5l-.02-25.8291a.5.5,0,0,1,.3691-.4824l8.02-2.1709a.4994.4994,0,0,1,.6308.4824v7a.4984.4984,0,0,1-.3144.4639l-4.6856,1.875V39.7617l4.3145-1.7256A.49.49,0,0,1,57.0488,38a.5.5,0,0,1,.5.5v6a.5.5,0,0,1-.3242.4678l-8,3A.495.495,0,0,1,49.0488,48Z" fill="url(#e)"/>
          <path d="M57.0489,19.5v7l-5,2v12l5-2v6l-8,3-.02-25.8291,8.02-2.1709m0-1a1,1,0,0,0-.2612.0347l-8.02,2.1709a1,1,0,0,0-.7387.966l.02,25.8292a1,1,0,0,0,1.3511.9355l8-3a1,1,0,0,0,.6489-.9363v-6a1,1,0,0,0-1.3714-.9285L53.0489,39.023V29.177L57.42,27.4285a1,1,0,0,0,.6286-.9285v-7a1,1,0,0,0-1-1Z" fill="#6d6d6d"/>
        </g>
        <g>
          <path d="M33.6182,45.1787a.5016.5016,0,0,1-.3858-.1816l-5.0517-6.1084a.5.5,0,0,1,.3857-.8184c.0195,0,.0381.001.0576.0029l3.2432.377a.5035.5035,0,0,1,.31.1582l1.8086,1.96a.4949.4949,0,0,1,.1328.3388v3.7715a.5.5,0,0,1-.3311.4707A.505.505,0,0,1,33.6182,45.1787Z" fill="url(#f)"/>
          <path d="M28.5664,38.57l3.2431.377,1.8087,1.96v3.7715L28.5664,38.57m0-1a1,1,0,0,0-.77,1.6373l5.0517,6.1084a1,1,0,0,0,1.7707-.6373V40.9072a1,1,0,0,0-.2651-.6782l-1.8087-1.96a1,1,0,0,0-.6194-.3151l-3.2431-.377a1.003,1.003,0,0,0-.1158-.0067Z" fill="#00415f"/>
        </g>
        <g>
          <path d="M42.2764,45.3965l-7.3145-1.3574a.4986.4986,0,0,1-.3857-.34l-1.584-4.9775a.4993.4993,0,0,1,.4766-.6514.4947.4947,0,0,1,.1064.0117l3.4687.7539a.4979.4979,0,0,1,.252.14l5.43,5.581a.5.5,0,0,1-.3584.8487A.4808.4808,0,0,1,42.2764,45.3965Z" fill="url(#g)"/>
          <path d="M33.4688,38.57l3.4688.7539,5.43,5.5811-7.3145-1.3574L33.4688,38.57m0-1a1,1,0,0,0-.9529,1.3032L34.1,43.8511a1,1,0,0,0,.77.68l7.3145,1.3574a1,1,0,0,0,.8992-1.6805l-5.43-5.5811a1,1,0,0,0-.5044-.28l-3.4688-.7539a1.0011,1.0011,0,0,0-.2123-.0228Z" fill="#00415f"/>
        </g>
        <g>
          <path d="M42.3672,45.4053a.499.499,0,0,1-.3584-.1514l-5.43-5.581a.5.5,0,0,1,.1953-.8213l4.374-1.5078a.496.496,0,0,1,.1631-.0274.5012.5012,0,0,1,.3467.14l5.6563,5.4287a.5.5,0,0,1-.1768.831l-4.6006,1.66A.5151.5151,0,0,1,42.3672,45.4053Z" fill="url(#h)"/>
          <path d="M41.3116,37.8164l5.6562,5.4287-4.6,1.66-5.43-5.5811,4.374-1.5078m0-1a.9994.9994,0,0,0-.3257.0546l-4.374,1.5078a1,1,0,0,0-.3909,1.6427l5.43,5.5811a1,1,0,0,0,1.0562.2433l4.6005-1.66a1,1,0,0,0,.353-1.6621L42.004,37.0949a1,1,0,0,0-.6926-.2785Z" fill="#00415f"/>
        </g>
        <g>
          <path d="M42.7158,47.4258a.5.5,0,0,1-.5-.5V45.1211a.4983.4983,0,0,1,.3145-.4639l4.51-1.8037a.4909.4909,0,0,1,.1856-.0361.5.5,0,0,1,.5.5v1.8037a.4983.4983,0,0,1-.3145.4639l-4.51,1.8046A.4891.4891,0,0,1,42.7158,47.4258Z" fill="url(#i)"/>
          <path d="M47.2257,43.3174v1.8037l-4.51,1.8047V45.1211l4.51-1.8037m0-1a1,1,0,0,0-.3713.0715l-4.51,1.8037a1,1,0,0,0-.6286.9285v1.8047a1,1,0,0,0,1.3715.9284l4.51-1.8047a1,1,0,0,0,.6285-.9284V43.3174a1,1,0,0,0-1-1Z" fill="#00415f"/>
        </g>
        <polygon points="34.049 43.5 34.049 45.5 43.049 47.5 43.049 45.5 34.049 43.5" fill="url(#j)"/>
        <line x1="42.7159" y1="45.1211" x2="34.5977" y2="43.3174" fill="none" stroke="#00415f" stroke-miterlimit="10"/>
        <polygon points="35.053 40.38 35.053 43.548 33.618 44.679 33.618 40.907 35.053 40.38" stroke="#00415f" stroke-linecap="round" stroke-linejoin="round" fill="url(#k)"/>
        <g>
          <path d="M33.6182,41.4072a.4987.4987,0,0,1-.3672-.1611l-1.8086-1.96a.5005.5005,0,0,1,.1728-.8l1.4317-.6035a.5014.5014,0,0,1,.5683.1289l1.8116,2.0362a.5.5,0,0,1-.2012.8017l-1.4346.5274A.5074.5074,0,0,1,33.6182,41.4072Z" fill="url(#l)"/>
          <path d="M33.2413,38.3438,35.0528,40.38l-1.4346.5273-1.8087-1.96,1.4318-.6035m0-1a.9993.9993,0,0,0-.3882.0785l-1.4317.6035a1,1,0,0,0-.3465,1.6l1.8087,1.96a1,1,0,0,0,1.08.26l1.4345-.5273A1,1,0,0,0,35.8,39.7152l-1.8115-2.0361a1,1,0,0,0-.7474-.3353Z" fill="#00415f"/>
        </g>
        <polygon points="12.951 28.886 22.872 42.416 40.911 37.004 28.303 25.372 12.951 28.886" fill="url(#m)"/>
        <polygon points="35.746 20.769 42.716 25.278 33.64 33.216 28.284 28.011 35.746 20.769" fill="url(#n)"/>
        <polygon points="41.317 19.326 47.631 22.934 42.716 24.376 36.401 20.769 41.317 19.326" fill="url(#o)"/>
        <g>
          <path d="M41.8135,27.582a.5012.5012,0,0,1-.5-.5V25.2783a.5011.5011,0,0,1,.3418-.4746L47.0674,23a.52.52,0,0,1,.1582-.0254.5012.5012,0,0,1,.5.5v1.8037a.5009.5009,0,0,1-.3418.4746l-5.4121,1.8037A.5207.5207,0,0,1,41.8135,27.582Z" fill="url(#p)"/>
          <path d="M47.2257,23.4746v1.8037L41.8135,27.082V25.2783l5.4122-1.8037m0-1a1,1,0,0,0-.3161.0513L41.4973,24.33a1,1,0,0,0-.6838.9487V27.082a1,1,0,0,0,1.3161.9487l5.4122-1.8037a1,1,0,0,0,.6839-.9487V23.4746a1,1,0,0,0-1-1Z" fill="#00415f"/>
        </g>
        <g>
          <path d="M33.6963,33.8955a.5.5,0,0,1-.3535-.8535L41.46,24.9248a.5.5,0,0,1,.8535.3535V27.082a.5.5,0,0,1-.1465.3535L35.8535,33.749a.4993.4993,0,0,1-.3535.1465Z" fill="url(#q)"/>
          <path d="M41.8135,25.2783V27.082L35.5,33.3955H33.6964l8.1171-8.1172m0-1a1,1,0,0,0-.7073.2929l-8.1171,8.1172a1,1,0,0,0,.7071,1.7071H35.5a1,1,0,0,0,.7071-.2929l6.3134-6.3135a1,1,0,0,0,.2929-.7071V25.2783a1,1,0,0,0-1-1Z" fill="#00415f"/>
        </g>
        <g>
          <rect x="33.5488" y="33" width="3" height="5" rx="0.5" fill="url(#r)"/>
          <path d="M36.0489,33.5v4h-2v-4h2m0-1h-2a1,1,0,0,0-1,1v4a1,1,0,0,0,1,1h2a1,1,0,0,0,1-1v-4a1,1,0,0,0-1-1Z" fill="#00415f"/>
        </g>
        <g>
          <path d="M34.0488,38a.5011.5011,0,0,1-.3574-.15l-5.7646-5.9082a.4983.4983,0,0,1-.1426-.35V27.9844a.5.5,0,0,1,.3037-.46.4946.4946,0,0,1,.1963-.04.5.5,0,0,1,.3457.1386l5.7646,5.5157a.5.5,0,0,1,.1543.3613v4a.4993.4993,0,0,1-.3115.4629A.4872.4872,0,0,1,34.0488,38Z" fill="url(#s)"/>
          <path d="M28.2842,27.9844,34.0489,33.5v4l-5.7647-5.9082V27.9844m0-1a1,1,0,0,0-1,1v3.6074a1,1,0,0,0,.2843.6984l5.7646,5.9082A1,1,0,0,0,35.0489,37.5v-4a1,1,0,0,0-.3087-.7225l-5.7646-5.5156a1,1,0,0,0-.6916-.2775Z" fill="#00415f"/>
        </g>
        <path d="M39.9258,31.2617l.002,2.2472-1.2511-1.1542,1.2491-1.093m.9981-2.2021L37.1807,32.335,40.93,35.7939,40.9239,29.06Z" fill="#2d2d2d"/>
        <line x1="30.0879" y1="40.6113" x2="40.9112" y2="37.9063" fill="none" stroke="#6d6d6d" stroke-miterlimit="10"/>
      </g>
      <path d="M50.0489,14.5l7,5v7l-5,2v8l5,2v6l-8,3-2-2-4,2-10-2-2.961-4.8887L23.0489,42.5,12.9511,28.9834,28.0489,25.5l2,1,5.6973-5.6338,5.5713-1.4424.7314.0762v-3l8-2M36.9376,39.4219l4.374-1.5078.5225.5009-.0108-11.2382-.01.0029L36.22,32.7734l4.6914,4.3282L35.585,38.6992a.8638.8638,0,0,1,.0782.4453l1.2744.2774m-1.6563-7.5137.2422-.2422-.2588.2266.0166.0156M50.0488,13.7a.8007.8007,0,0,0-.194.0239l-8,2a.8.8,0,0,0-.6059.7761v2.1267a.8083.8083,0,0,0-.1319.0226l-5.5713,1.4424a.8008.8008,0,0,0-.362.2056l-5.29,5.2308-1.4873-.7436a.7994.7994,0,0,0-.5376-.064L12.7713,28.2039a.8.8,0,0,0-.4611,1.2583L22.408,42.9788a.8.8,0,0,0,.8482.2939l6.4587-1.733,2.65,4.3747a.8.8,0,0,0,.5274.37l10,2a.8.8,0,0,0,.5146-.069l3.4843-1.7421,1.5923,1.5923a.8.8,0,0,0,.8466.1834l8-3a.8.8,0,0,0,.5191-.7491v-6a.8.8,0,0,0-.5029-.7428l-4.4971-1.7988V29.0416l4.4971-1.7988a.8.8,0,0,0,.5029-.7428v-7a.8.8,0,0,0-.335-.651l-7-5a.8005.8005,0,0,0-.4651-.149ZM37.3744,32.75l3.6507-3.6508.0068,7.0251L37.3744,32.75Z" fill="#343434"/>
      <line x1="42.0489" y1="16.5" x2="48.0489" y2="20.5" fill="none" stroke="#6d6d6d" stroke-miterlimit="10"/>
      <line x1="36.0489" y1="20.5" x2="42.0489" y2="24.5" fill="none" stroke="#135471" stroke-miterlimit="10"/>
      <line x1="42.0489" y1="19.5" x2="47.0489" y2="22.5" fill="none" stroke="#135471" stroke-miterlimit="10"/>
      <rect x="42.0489" y="45.5" width="1" height="2" fill="#00415f"/>
      <line x1="28.0489" y1="27.5" x2="29.0489" y2="26.5" fill="none" stroke="#00415f" stroke-miterlimit="10"/>
    </g>
    <g>
      <g mask="url(#t)">
        <image width="80" height="76" transform="translate(-28 9)" xlink:href="I_DELTSA_AP1.png"/>
      </g>
      <g>
        <rect x="6.8096" y="15.8096" width="9.3809" height="8.3809" rx="2.6904" fill="#fff"/>
        <path d="M13.5,16.119A2.3837,2.3837,0,0,1,15.881,18.5v3A2.3837,2.3837,0,0,1,13.5,23.881h-4A2.3837,2.3837,0,0,1,7.119,21.5v-3A2.3837,2.3837,0,0,1,9.5,16.119h4m0-.619h-4a3.0088,3.0088,0,0,0-3,3v3a3.0088,3.0088,0,0,0,3,3h4a3.0088,3.0088,0,0,0,3-3v-3a3.0088,3.0088,0,0,0-3-3Z" fill="#2d2d2d"/>
      </g>
      <g>
        <rect x="6.8096" y="25.8096" width="9.3809" height="9.3809" rx="2.6904" fill="#fff"/>
        <path d="M13.5,26.119A2.3837,2.3837,0,0,1,15.881,28.5v4A2.3837,2.3837,0,0,1,13.5,34.881h-4A2.3837,2.3837,0,0,1,7.119,32.5v-4A2.3837,2.3837,0,0,1,9.5,26.119h4m0-.619h-4a3.0088,3.0088,0,0,0-3,3v4a3.0088,3.0088,0,0,0,3,3h4a3.0088,3.0088,0,0,0,3-3v-4a3.0088,3.0088,0,0,0-3-3Z" fill="#2d2d2d"/>
      </g>
      <g>
        <path d="M9.5016,36.81H13.5a2.69,2.69,0,0,1,2.69,2.69v4a2.69,2.69,0,0,1-2.69,2.69H9.501a2.69,2.69,0,0,1-2.69-2.69V39.5007A2.6911,2.6911,0,0,1,9.5016,36.81Z" fill="#fff"/>
        <path d="M13.5,37.119A2.3837,2.3837,0,0,1,15.881,39.5v4A2.3837,2.3837,0,0,1,13.5,45.881H9.502A2.3844,2.3844,0,0,1,7.12,43.5l-.0008-4A2.3891,2.3891,0,0,1,9.5,37.119h4m0-.619h-4a3.0081,3.0081,0,0,0-2.9994,3l.0008,4a3.01,3.01,0,0,0,3.0006,3H13.5a3.0088,3.0088,0,0,0,3-3v-4a3.0088,3.0088,0,0,0-3-3Z" fill="#2d2d2d"/>
      </g>
      <polyline points="8 19.478 10 22.478 15 17.478" fill="none" stroke="#15689c" stroke-miterlimit="10"/>
      <line x1="8.5" y1="27.5" x2="14.5" y2="33.5" fill="none" stroke="#15689c" stroke-miterlimit="10"/>
      <line x1="14.5" y1="27.5" x2="8.5" y2="33.5" fill="none" stroke="#15689c" stroke-miterlimit="10"/>
    </g>
  </g>
</svg>
