<svg xmlns="http://www.w3.org/2000/svg" xmlns:xlink="http://www.w3.org/1999/xlink" width="64" height="64" viewBox="0 0 64 64">
  <defs>
    <linearGradient id="a" x1="7.431" y1="21.326" x2="38.847" y2="0.87" gradientUnits="userSpaceOnUse">
      <stop offset="0" stop-color="#fff"/>
      <stop offset="1" stop-color="#757273"/>
    </linearGradient>
    <linearGradient id="b" x1="19.063" y1="27.074" x2="0.761" y2="36.564" gradientUnits="userSpaceOnUse">
      <stop offset="0" stop-color="#fff"/>
      <stop offset="1"/>
    </linearGradient>
    <linearGradient id="c" x1="27.37" y1="38.384" x2="13.763" y2="38.384" xlink:href="#b"/>
    <linearGradient id="d" x1="17.262" y1="27.565" x2="23.259" y2="25.799" xlink:href="#b"/>
    <linearGradient id="e" x1="23.965" y1="40.122" x2="28.309" y2="35.951" xlink:href="#b"/>
    <mask id="f" x="17.983" y="12.192" width="32.992" height="39.342" maskUnits="userSpaceOnUse">
      <path d="M42.645,39.306c-.957-.683-1.882-1.412-2.812-2.131s-1.879-1.46-2.813-2.2c-.313-.247-.626-.495-.936-.746-.216-.175-.714-.42-.751-.671-.053-.357.366-.618.386-.969a1.578,1.578,0,0,0-.791-1.477c-.212-.089-.5.15-.679.009-.114-.09-.172-.46-.2-.592-.051-.235,0-.462-.25-.589a1.061,1.061,0,0,0-.629-.02,3.134,3.134,0,0,0-1.3.4c-.242.2-.21.462-.589.471-.343.007-.638-.249-.951-.366a8.242,8.242,0,0,1-1.815-1.072,5.153,5.153,0,0,1-1.468-1.546c-.821-1.436-.1-4.72-.1-4.72s2.976,2.669,3.387,2.976a5.583,5.583,0,0,0,1.744,1.026c.719.2,5.782,1.215,5.782,1.215l.922-1.439a11.869,11.869,0,0,1-2.5-.8,11.525,11.525,0,0,0-2.874-1.232,11.45,11.45,0,0,0-1.435-.1c-.31-.1-1.313-2.868-3.7-4.721a4.078,4.078,0,0,0-2.464-1.129,3.078,3.078,0,0,1-.605-.065,2.454,2.454,0,0,0-.291-.068c-.057,0-.148.04-.2.028-.25-.065.024-.544.106-.7.055-.1.081-.21.132-.307s.158-.153.217-.26c-.16-.22-.08-.569-.152-.835a1.951,1.951,0,0,0-.975-1.14,2.214,2.214,0,0,1-.571-.325,2.57,2.57,0,0,1-.326-.618,5.832,5.832,0,0,1-.346-.791c-.059-.166-.08-.255-.224-.343a1.027,1.027,0,0,1-.371-.713c-.023-.121-.016-.384-.107-.471-.156-.151-.422-.07-.578.009a2.531,2.531,0,0,0-1.265,1.056,2.489,2.489,0,0,0-.286.957,3.267,3.267,0,0,0,.089.393,5.533,5.533,0,0,0,.232,1.164c.278.7.761,1.317.52,2.119a5.931,5.931,0,0,1-.748,1.627c-.616.923-2.051,1.745-2.051,3.8,0,.822.409,1.642,1.129,3.591a29.015,29.015,0,0,0,1.025,2.977c.387.771.762,1.8,1.437,2.976a11.022,11.022,0,0,0,.923,1.129c1.129,1.436,1.377,2.038,2.567,2.771,1.334.821,4,2.771,4.822,3.388s3.9,3.59,4.926,4.513,4.619,3.7,6.055,5.031c0,0,.1.1.308,0,0,0,.924,1.333,1.334,1.333s1.23-.924,1.437-1.642a6.845,6.845,0,0,1,.718-1.848,3.044,3.044,0,0,0,.616-1.539,1.014,1.014,0,0,0-.923-1.027c-1.027,0-1.336,1.746-2.156,1.746,0,0,.308-.1-.2-.411a47.538,47.538,0,0,1-4.105-3.182c-1.539-1.334-6.466-6.875-6.466-6.875A46.343,46.343,0,0,1,36.8,38.9c.923.718,1.23,1.129,1.949,1.642s3.284,1.847,4.516,2.667,3.181,2.361,3.283,2.463,0-.1,0-.1a5.521,5.521,0,0,0,1.54,1.025s.514-.1,1.026-1.231,1.129-2.462,1.436-2.975.925-1.95-.307-1.95c-1.129,0-1.54,2.051-2.361,2.051h-.2a1.866,1.866,0,0,0-.411-.306C47.058,42.077,44.081,40.332,42.645,39.306Z" fill="#fff"/>
    </mask>
    <linearGradient id="g" x1="11.812" y1="17.475" x2="21.307" y2="11.292" xlink:href="#a"/>
  </defs>
  <title>25763_DELVOA_AP_AppIcon_r21x</title>
  <g style="isolation: isolate">
    <g>
      <g>
        <g>
          <path d="M13.747,19.939a1.956,1.956,0,0,1-1-.3.5.5,0,0,1-.223-.416V14.784c-.1-1.059,1.1-1.945,1.235-2.042,2-1.211,5.569-1.224,5.719-1.224.549,0,.9.537.9,1.369V16.8a.983.983,0,0,1-1,1c-.107,0-.189-.007-.271-.007a6.453,6.453,0,0,0-4.17,1.521A1.453,1.453,0,0,1,13.747,19.939Z" fill="url(#a)"/>
          <path d="M19.482,12.018c.4,0,.4.869.4.869V16.8a.493.493,0,0,1-.5.5c-.089,0-.18-.007-.271-.007a6.871,6.871,0,0,0-4.57,1.722.96.96,0,0,1-.794.419,1.455,1.455,0,0,1-.719-.217V14.784c-.078-.85,1.025-1.634,1.025-1.634,1.873-1.132,5.429-1.132,5.429-1.132m0-1c-.156,0-3.859.014-5.946,1.276-.022.013-.042.026-.063.041a3.2,3.2,0,0,0-1.445,2.487v4.4a1,1,0,0,0,.446.832,2.445,2.445,0,0,0,1.273.385,1.964,1.964,0,0,0,1.594-.819,6.087,6.087,0,0,1,3.77-1.322c.074,0,.146,0,.218.005l.053,0a1.474,1.474,0,0,0,1.5-1.5V12.887c0-1.118-.564-1.869-1.4-1.869Z"/>
        </g>
        <g>
          <path d="M20.463,36.865c-1.591-.109-1.911-1.027-1.97-1.3-.25-.619-3.673-9.09-4.833-12.28a4.413,4.413,0,0,1-.13-3.394,2.263,2.263,0,0,1,1.181-1.153c.119-.055,3.625-1.612,4.242-1.818a1.7,1.7,0,0,1,.536-.077,4.974,4.974,0,0,1,1.441.283l.212.077,3.343,16.961L20.6,36.874Z" fill="url(#b)"/>
          <path d="M19.489,17.248a4.568,4.568,0,0,1,1.3.259L24.042,33.99,20.49,36.466c-1.512-.1-1.612-1.011-1.612-1.011s-3.632-8.974-4.842-12.3.808-4.033.808-4.033,3.63-1.613,4.235-1.815a1.3,1.3,0,0,1,.41-.057m0-.8a2.1,2.1,0,0,0-.664.1c-.615.206-3.842,1.637-4.289,1.836a2.674,2.674,0,0,0-1.367,1.342,4.784,4.784,0,0,0,.115,3.7c1.142,3.139,4.465,11.371,4.822,12.252a2.285,2.285,0,0,0,2.33,1.585l.281.019.231-.161L24.5,34.647l.429-.3-.1-.512L21.578,17.352l-.087-.442-.424-.155a5.3,5.3,0,0,0-1.578-.307Z"/>
        </g>
        <g>
          <path d="M26.339,43.759c-1.832,0-4.461-2.483-5.223-3.243a10.332,10.332,0,0,1-1.3-2.673.841.841,0,0,1,.5-.992l5.807-3.842.212.118c8.66,4.8,8.583,5.03,8.455,5.416a11.183,11.183,0,0,1-2.022,2.181C32.245,41.073,28.121,43.759,26.339,43.759Z" fill="url(#c)"/>
          <path d="M26.137,33.477s8.37,4.637,8.269,4.939a18.954,18.954,0,0,1-1.917,2.017s-4.436,2.926-6.15,2.926S21.9,40.735,21.4,40.233a10.741,10.741,0,0,1-1.21-2.522c-.1-.3.3-.5.3-.5l5.647-3.732m-.037-.935-.4.267L20.082,36.52a1.219,1.219,0,0,0-.652,1.444,9.956,9.956,0,0,0,1.4,2.834c.79.789,3.521,3.361,5.506,3.361,1.86,0,5.816-2.548,6.591-3.058l.058-.039.05-.048c1.961-1.851,2.069-2.171,2.127-2.343.251-.755.311-.934-8.641-5.894l-.424-.235Z"/>
        </g>
        <g>
          <path d="M20.875,35.5a3.475,3.475,0,0,1-.274-.4c-.011-.04-4.109-10.342-5-12.924-.729-2.1.68-2.834.843-2.91.018-.008,2.512-1.105,3.593-1.5a2.822,2.822,0,0,1,.693-.176l2.415,16.429A11.673,11.673,0,0,0,20.875,35.5Z" fill="url(#d)"/>
          <path d="M20.312,18.2,22.6,33.727a11.935,11.935,0,0,0-1.585,1.028c-.6-1.506-4.122-10.387-4.939-12.749-.55-1.589.311-2.159.565-2.286.025-.011,2.5-1.1,3.57-1.488.037-.014.072-.026.106-.037m.492-1.113a2.872,2.872,0,0,0-.94.21c-1.109.4-3.631,1.513-3.631,1.513s-2.015.907-1.107,3.528,5.041,13.009,5.041,13.009.4.7.7.808A11.12,11.12,0,0,1,23.7,34.333l-2.52-17.141s-.073-.11-.371-.11Z" fill="#6d6d6d"/>
        </g>
        <g>
          <path d="M26.166,40.9a2.563,2.563,0,0,1-.953-.162c-1.4-.559-3.663-2.916-4.346-3.7-.041-.047-.074-.087-.1-.122l.1-.122a40.9,40.9,0,0,1,5.38-3.548c1.061.126,6.894.831,8.963,1.281.445.1.564.224.571.253.031.116-.086.457-1.2,1.436-.136.119-.25.219-.323.294-.192.192-1.149.9-4.614,3.2l-.25.166A6.712,6.712,0,0,1,26.167,40.9Z" fill="url(#e)"/>
          <path d="M26.352,33.766c1.394.168,6.786.827,8.746,1.254a9.01,9.01,0,0,1-.851.824c-.146.129-.268.237-.346.315-.158.153-.956.765-4.535,3.136l-.255.169a6.216,6.216,0,0,1-2.945.937,2.077,2.077,0,0,1-.767-.126,15.993,15.993,0,0,1-3.955-3.337,51.562,51.562,0,0,1,4.908-3.172m-.215-1.032S21.3,35.557,20.49,36.466c0,0-.7.1,0,.905S23.516,40.6,25.027,41.2a3.064,3.064,0,0,0,1.139.2,7.156,7.156,0,0,0,3.5-1.106c.6-.4,4.436-2.924,4.94-3.428s3.027-2.319.706-2.824-9.176-1.309-9.176-1.309Z" fill="#6d6d6d"/>
        </g>
      </g>
      <g>
        <path d="M42.542,51.407c-.444,0-1.063-.743-1.459-1.29l-.046,0a.493.493,0,0,1-.347-.131c-.813-.756-2.347-1.994-3.7-3.088-1.02-.824-1.9-1.536-2.344-1.933-.345-.311-.922-.854-1.569-1.462-1.249-1.175-2.8-2.637-3.336-3.034-.971-.729-3.528-2.59-4.8-3.372a6.3,6.3,0,0,1-1.972-1.956c-.192-.257-.407-.548-.673-.885-.1-.125-.213-.253-.331-.383a4.906,4.906,0,0,1-.616-.782,21.547,21.547,0,0,1-1.037-2.108c-.144-.322-.275-.618-.408-.884a5.715,5.715,0,0,1-.476-1.265c-.1-.353-.23-.837-.562-1.742-.165-.446-.313-.832-.445-1.174a7.352,7.352,0,0,1-.7-2.522,4.506,4.506,0,0,1,1.519-3.272,6.141,6.141,0,0,0,.583-.691,3.116,3.116,0,0,0,.563-1.154c.031-.119.065-.25.12-.416.086-.258.344-.388.767-.388a12.935,12.935,0,0,1,3,.713,4.041,4.041,0,0,0,1.54.394,4.33,4.33,0,0,1,2.648,1.192,13.432,13.432,0,0,1,3.28,4.08,5.049,5.049,0,0,0,.386.624,1.112,1.112,0,0,1,.16-.024c.082-.007.178-.016.3-.016a4.542,4.542,0,0,1,.875.1,8.7,8.7,0,0,1,2.344.946c.2.1.4.207.6.312a11.639,11.639,0,0,0,2.42.776l.433.085L38,28.643l-.2-.04c-.207-.041-5.084-1.015-5.806-1.221a5.29,5.29,0,0,1-1.7-.966l-.142-.107c-.328-.246-2.179-1.9-3.009-2.638-.158.957-.4,3,.166,3.992.861,1.506,5.838,4.41,7.712,5.5a7.249,7.249,0,0,1,.962.591c.232.22,5.393,4.271,6.838,5.3,1.4,1,4.361,2.741,4.577,2.85a1.875,1.875,0,0,1,.394.275h.088c.218,0,.492-.411.734-.772.382-.57.858-1.28,1.627-1.28a.958.958,0,0,1,.913.446c.39.69-.272,1.83-.349,1.958-.3.511-.956,1.926-1.419,2.945-.549,1.209-1.131,1.379-1.242,1.4l-.058.011-.058-.011A4.316,4.316,0,0,1,46.584,46h-.125l-.127-.117c-.144-.134-2.039-1.626-3.237-2.425-.632-.421-1.647-.994-2.54-1.5-.873-.492-1.626-.918-1.984-1.173a9.717,9.717,0,0,1-.958-.795c-.268-.245-.565-.514-1-.855a30.379,30.379,0,0,0-4.022-1.989c1.5,1.66,4.425,4.876,5.531,5.836a48.049,48.049,0,0,0,4.064,3.151,1.257,1.257,0,0,1,.312.245,3.277,3.277,0,0,0,.442-.549c.335-.478.753-1.074,1.452-1.074a1.311,1.311,0,0,1,1.223,1.327,3.291,3.291,0,0,1-.7,1.751,6.882,6.882,0,0,0-.641,1.718C44.039,50.343,43.144,51.407,42.542,51.407Z" fill="#fff"/>
        <path d="M21.267,17.776a12.879,12.879,0,0,1,2.906.7,4.233,4.233,0,0,0,1.64.411,4.078,4.078,0,0,1,2.464,1.129c2.383,1.853,3.386,4.618,3.7,4.721a.573.573,0,0,0,.19.03c.11,0,.228-.023.429-.023a4.115,4.115,0,0,1,.816.095,11.525,11.525,0,0,1,2.874,1.232,11.869,11.869,0,0,0,2.5.8l-.922,1.439s-5.063-1.01-5.782-1.215a5.583,5.583,0,0,1-1.744-1.026c-.411-.307-3.387-2.976-3.387-2.976s-.717,3.284.1,4.72c1.13,1.978,8.516,5.952,8.723,6.158s5.438,4.309,6.875,5.336,4.413,2.771,4.617,2.874a1.866,1.866,0,0,1,.411.306h.2c.821,0,1.232-2.051,2.361-2.051,1.232,0,.615,1.436.307,1.95s-.923,1.847-1.436,2.975-1.026,1.231-1.026,1.231a5.521,5.521,0,0,1-1.54-1.025s.066.131.039.131c-.006,0-.019-.008-.039-.029-.1-.1-2.052-1.642-3.283-2.463s-3.8-2.155-4.516-2.667S37.719,39.614,36.8,38.9a46.343,46.343,0,0,0-5.338-2.566s4.927,5.541,6.466,6.875a47.538,47.538,0,0,0,4.105,3.182c.513.308.2.411.2.411.82,0,1.129-1.746,2.156-1.746a1.014,1.014,0,0,1,.923,1.027,3.044,3.044,0,0,1-.616,1.539,6.845,6.845,0,0,0-.718,1.848c-.207.718-1.027,1.642-1.437,1.642s-1.334-1.333-1.334-1.333a.391.391,0,0,1-.171.044.205.205,0,0,1-.137-.044c-1.436-1.335-5.029-4.107-6.055-5.031s-4.105-3.9-4.926-4.513-3.488-2.567-4.822-3.388c-1.19-.733-1.438-1.335-2.567-2.771a11.022,11.022,0,0,1-.923-1.129c-.675-1.175-1.05-2.2-1.437-2.976a29.015,29.015,0,0,1-1.025-2.977c-.72-1.949-1.129-2.769-1.129-3.591,0-2.052,1.435-2.874,2.051-3.8a4.131,4.131,0,0,0,.719-1.642c.044-.132.225-.184.481-.184m0-.6c-.7,0-.96.323-1.05.594-.058.174-.094.311-.127.435a2.814,2.814,0,0,1-.522,1.063,5.758,5.758,0,0,1-.553.655,4.816,4.816,0,0,0-1.6,3.476,7.494,7.494,0,0,0,.724,2.629c.13.34.278.726.443,1.17.328.892.458,1.369.554,1.718a6,6,0,0,0,.5,1.319c.132.263.261.555.4.873a21.872,21.872,0,0,0,1.051,2.134,5.073,5.073,0,0,0,.653.834c.113.125.225.248.319.367.263.335.477.623.667.879a6.606,6.606,0,0,0,2.056,2.032c1.263.777,3.809,2.63,4.777,3.357.519.387,2.067,1.844,3.311,3.014.648.609,1.227,1.153,1.573,1.465.448.4,1.332,1.117,2.356,1.944,1.351,1.09,2.881,2.326,3.693,3.08a.77.77,0,0,0,.435.2c.961,1.3,1.448,1.3,1.615,1.3.808,0,1.779-1.259,2.014-2.076a7.479,7.479,0,0,1,.583-1.608,3.536,3.536,0,0,0,.774-1.945c0-.054,0-.108-.007-.161.117.094.2.159.226.186a.638.638,0,0,0,.328.181,4.332,4.332,0,0,0,1.508.9l.116.022.115-.022c.192-.038.864-.262,1.458-1.572.46-1.013,1.106-2.417,1.4-2.915.14-.233.816-1.44.353-2.259a1.253,1.253,0,0,0-1.175-.6c-.929,0-1.477.817-1.876,1.414a3.445,3.445,0,0,1-.482.622,2.057,2.057,0,0,0-.354-.229c-.239-.124-3.15-1.836-4.533-2.824-1.406-1-6.524-5.02-6.809-5.281a6.246,6.246,0,0,0-1.016-.63c-1.677-.978-6.781-3.956-7.6-5.393a6.251,6.251,0,0,1-.213-3.249c.926.826,2.323,2.065,2.616,2.284l.139.106a5.638,5.638,0,0,0,1.8,1.016c.734.209,5.622,1.185,5.83,1.226l.4.08.221-.345.921-1.438.475-.741-.863-.171a11.379,11.379,0,0,1-2.345-.75c-.207-.1-.406-.208-.6-.309a8.887,8.887,0,0,0-2.424-.975,4.823,4.823,0,0,0-.934-.107c-.135,0-.239.008-.328.016-.072-.116-.171-.29-.263-.449a13.666,13.666,0,0,0-3.355-4.169,4.651,4.651,0,0,0-2.833-1.255,3.667,3.667,0,0,1-1.373-.348l-.032-.016-.035-.013a12.808,12.808,0,0,0-3.106-.731Zm21.2,28.781c-.053-.036-.1-.064-.132-.084a47.034,47.034,0,0,1-4.022-3.121c-.894-.775-3-3.047-4.553-4.758a19.519,19.519,0,0,1,2.664,1.375c.425.332.709.59.984.84a10.129,10.129,0,0,0,.984.817c.371.265,1.131.694,2.011,1.191s1.9,1.073,2.521,1.488c.333.221.723.5,1.114.788a2.518,2.518,0,0,0-1.35,1.161c-.062.087-.142.2-.221.3Z"/>
      </g>
      <path d="M22.272,33.9s-.554-.982.682-2.092a8.969,8.969,0,0,1,5.614-2.433" fill="none" stroke="#6d6d6d" stroke-miterlimit="10" stroke-width="0.4"/>
      <path d="M20.17,23.4s.924.512,1.335.718,3.8,4,4.207,4.208a7.156,7.156,0,0,1,1.539.512c.923.411,3.8,1.849,4,1.951s.616-.308.821-.513a5.649,5.649,0,0,1,1.334-.513l.309-.1-.309.719s0-.205-.307.2a.538.538,0,0,0,0,.72c.206.205,1.231-.308,1.231-.308s.616-.514.718-.308-.1.41-.41.616-1.128.513-1.128.614.924,0,.924,0a6.512,6.512,0,0,1,.717-.2c.1,0,.308.1,0,.409-.2.206,0,.1,0,.206s0,.206-.2.309-.1.1-.1.1.1.1-.2.308a2.192,2.192,0,0,1-1.232.412,3.689,3.689,0,0,1-1.847-.72,29.316,29.316,0,0,0-3.9-1.333,15.67,15.67,0,0,1-3.386-1.231c-.717-.514-4.1-3.079-5.233-4.824" fill="#fff" stroke="#6d6d6d" stroke-linecap="round" stroke-linejoin="round" stroke-width="0.4"/>
      <path d="M20.786,17.96A1.987,1.987,0,0,0,20.8,16.9a5.568,5.568,0,0,1-.8-2.429,2.5,2.5,0,0,1,4.909-.633,5.745,5.745,0,0,1,.359,1.813c0,.36-.154.427-.188.547a3.908,3.908,0,0,0-.018.771c.018.153.172.342.172.53s-.377.291-.325.291-.154.341-.085.461c0,0-.035.189-.137.239s.137.222-.138.531a.9.9,0,0,1-.922.171v.1l-.189.033.017.958s-.051.18-.119.052a2.5,2.5,0,0,1-.189-.976A3.714,3.714,0,0,1,20.786,17.96Z" fill="#f0f1f1" stroke="#f50" stroke-miterlimit="10" stroke-width="0.4"/>
      <g mask="url(#f)">
        <g>
          <path d="M24.275,19.089c.017.479.164.848-.176,1.218a1.481,1.481,0,0,1-1.559.31c-.758-.279-1.526-1.467-2.216-.554A5.085,5.085,0,0,0,19.2,22.627a5.561,5.561,0,0,0,.575,2.414,6.273,6.273,0,0,0,.9,1.691c.361.445,3.04,1.855,2.578,2.584-.133.207-.428.084-.62.126-.264.058-.222.041-.42.272a1.326,1.326,0,0,0-.307,1.173,3.816,3.816,0,0,0,1.56,2.212c.285.145.558.25.861.369a8.714,8.714,0,0,1,1.842,1.013c1.359.948,1.865,2.526,3.068,3.592a29.923,29.923,0,0,1,3.708,3.339,12.279,12.279,0,0,0,2.311,2.039c.766.576,1.417,1.283,2.156,1.9A18.808,18.808,0,0,0,39.5,47.013c.514.313,1.141,1.121,1.757.873.3-.122.426-.42.627-.667a9.293,9.293,0,0,1,.756-.689c.32-.316.71-1.455,1.228-1.163-.166.361-1.272,2.132-.661,2.2.276-.757.566-1.561,1.387-1.844,1.043-.361.719,1.514.5,2.1A9.2,9.2,0,0,1,43.72,50.8c-1.3,1.32-2.833.606-4.294-.152-1.091-.569-2.037-1.33-3.129-1.91a18.96,18.96,0,0,1-3.575-2.555c-1.265-1.089-2.833-1.841-3.89-3.139-.868-1.065-1.788-2.1-2.645-3.184a25.141,25.141,0,0,0-2.463-2.849,10.28,10.28,0,0,0-1.646-1.036c-1.136-.742-1.78-2.445-2.28-3.656a10.314,10.314,0,0,1-.343-2.444,16.005,16.005,0,0,0-.526-1.961,23.926,23.926,0,0,1-.866-3.433c-.287-1.984.18-4.883,1.687-6.222.657-.584,1.528-.089,2.27.254.477.222,1.948,1.472,2.358.577Z" opacity="0.3"/>
          <path d="M19.369,24.863q.039.063.081.126A10.712,10.712,0,0,0,20.6,26.275a7.063,7.063,0,0,0,1.265.94,9.293,9.293,0,0,1,1.737,1.316c.2.224.458.393.676.6a3.87,3.87,0,0,1,.368.526,1.332,1.332,0,0,0,.458.335c.439.277.825.631,1.28.9a7.253,7.253,0,0,0,1.3.568,8.938,8.938,0,0,0,1.607.557,8.932,8.932,0,0,0,2.087-.025,1.625,1.625,0,0,0,.508-.061c.08-.033.183-.149.24-.166a1.93,1.93,0,0,1,1.181.192c.317.187.319.323.338.719.014.258.072.6-.134.753-.346.263-1.148-.243-1.493-.364-1.466-.509-3.061-.769-4.548-1.348a18.892,18.892,0,0,1-4.493-2.464,21.652,21.652,0,0,1-3.843-3.833c-.945-1.181-1.766-3.757.3-4.348,0,.558-.49,1.046-.527,1.652A3.644,3.644,0,0,0,19.369,24.863Z" opacity="0.4"/>
          <path d="M27.182,21.316c.17.127.375.186.508.379a3.091,3.091,0,0,1,.283.79,6.483,6.483,0,0,0,1.072,1.768,5.274,5.274,0,0,0,1.309,1.075c.276.182.656.526,1.015.472.468-.07.343-.593.64-.843.038-.032.588-.259.509-.122-.377.652-.755,1.389.035,1.918a6.2,6.2,0,0,0,1.985.634,11.965,11.965,0,0,0,1.807.37,1.243,1.243,0,0,0,1.55-.932.674.674,0,0,1,.6,1.116c-.222.346-.649.205-1.031.186-.564-.025-1.132.022-1.7-.007a13.8,13.8,0,0,1-5.3-1.464,8.518,8.518,0,0,1-3.094-2.47,2.142,2.142,0,0,1-.4-1.4c0-.273-.013-.549,0-.821.012-.251.107-.481.106-.735A.742.742,0,0,0,27.182,21.316Z" opacity="0.3"/>
          <path d="M28.68,32.8a.559.559,0,0,0-.165-.027c.544.113.639.6,1.03.95a6.819,6.819,0,0,0,2.29,1.178,25.847,25.847,0,0,1,6.123,3.662,37.293,37.293,0,0,0,4.617,3.111c.586.314,1.189.587,1.756.942.3.19.6.38.914.556.249.139.608.548.915.59.442.06.586-.6.662-.926a2.045,2.045,0,0,0,1.715-.687,15.646,15.646,0,0,1,.881-1.439c.236-.24.38-.137.442.207a1.184,1.184,0,0,1-.228.818,1.665,1.665,0,0,0-.282.823c.023.324.263.447.351.717a2.939,2.939,0,0,1,.025.96c-.032.339-.23.519-.374.826-.314.653-.521,1.458-1.3,1.7-.811.256-1.636-.414-2.131-.985-.345-.4-.627-.826-1.191-.9a1.913,1.913,0,0,0-1.23.269c-.256.139-.515.431-.794.506a1.71,1.71,0,0,1-.837-.168,10.13,10.13,0,0,1-1.465-.779A20.3,20.3,0,0,1,38.661,43.4a8.675,8.675,0,0,1-1.384-1.492,9.276,9.276,0,0,0-1.716-1.81c-.654-.482-1.084-1.342-1.721-1.9-1.089-.947-2.228-1.852-3.261-2.835a6.51,6.51,0,0,1-1.01-1.425C29.359,33.6,29.113,32.94,28.68,32.8Z" opacity="0.3"/>
          <path d="M26.994,23.5a11.077,11.077,0,0,1-1.361,1.848,1.484,1.484,0,0,0-.437,1.588c.4,1.02,2.184,1.558,3.1,1.829.279-.39-.155-.908-.272-1.3-.136-.458-.2-.943-.371-1.395a15.792,15.792,0,0,0-.706-2.412Z" opacity="0.3"/>
          <path d="M20.649,12.829a3.317,3.317,0,0,0-.2,1.095,3.544,3.544,0,0,0,.394,1.019c.265.477.8.24,1.137.615.229.254.056.342-.034.626-.262.819.7.819,1.135,1.187.552.467-.377.836-.038,1.346.2.3.639.206.716.611.168.905-1.082.31-1.445.213a4.933,4.933,0,0,1-1.02-.281c-.684-.349-.562-.8-.442-1.437.11-.576-.22-1.011-.405-1.54a5.783,5.783,0,0,1-.351-1.605,3.266,3.266,0,0,1,.089-1.071C20.278,13.311,20.6,13.1,20.649,12.829Z" opacity="0.2"/>
        </g>
      </g>
      <path d="M47.588,42.417c-.178-.046-.256-.142-.435-.011a1.245,1.245,0,0,0-.3.387,3.613,3.613,0,0,0-.46,1.071,2.973,2.973,0,0,0-.086,1.067c.023.23.054.591.274.706.018.01.046.026.057.03" fill="none" stroke="#6d6d6d" stroke-miterlimit="10" stroke-width="0.4"/>
      <path d="M42.234,46.849c-.1-.134-.008-.221-.173-.319-.2-.118-.42.139-.546.294a3.653,3.653,0,0,0-.631,1.346c-.11.4-.426,1.462.1,1.62a.183.183,0,0,0,.04.005" fill="none" stroke="#6d6d6d" stroke-miterlimit="10" stroke-width="0.4"/>
      <path d="M41.5,47.027a2.747,2.747,0,0,0,1.092-.358" fill="none" stroke="#6d6d6d" stroke-miterlimit="10" stroke-width="0.4"/>
      <path d="M50.953,40.984c.036-.223-.1-.228-.273-.164-.232.091-.232.259-.318.483s-.173.458-.261.687a10.374,10.374,0,0,1-.577,1.312c-.137.241-.263.493-.4.737-.3.536-.571,1.083-.891,1.612a1.551,1.551,0,0,0-.264.884.44.44,0,0,0,.483-.24" fill="none" stroke="#6d6d6d" stroke-miterlimit="10" stroke-width="0.4"/>
      <path d="M47.028,42.692a1.4,1.4,0,0,0,.766-.109,1.617,1.617,0,0,0,.7-.5" fill="none" stroke="#6d6d6d" stroke-miterlimit="10" stroke-width="0.4"/>
      <path d="M45.122,45.49a.592.592,0,0,0-.629.244,5.258,5.258,0,0,0-.453.533,7.065,7.065,0,0,0-.816,1.226,9.568,9.568,0,0,0-.764,2.613,1.378,1.378,0,0,0,.053.923,1.605,1.605,0,0,1,.314.1" fill="none" stroke="#6d6d6d" stroke-miterlimit="10" stroke-width="0.4"/>
      <path d="M31.458,36.33A19.732,19.732,0,0,0,29.3,33.943c-.847-.692-1.744-1.359-.9-2" fill="none" stroke="#6d6d6d" stroke-miterlimit="10" stroke-width="0.4"/>
      <path d="M25.8,28.437c-.186-.018-.223-.072-.412,0a2.663,2.663,0,0,0-.443.258" fill="none" stroke="#000" stroke-miterlimit="10" stroke-width="0.4"/>
      <path d="M26.97,23.165c.009-.387.093-.739.105-1.125a2.1,2.1,0,0,1,.124-.922" fill="none" stroke="#6d6d6d" stroke-miterlimit="10" stroke-width="0.4"/>
      <path d="M25.131,15.925c-.052.409-.564.479-.89.479a1.864,1.864,0,0,0-.616.1c-.146.047-.392.213-.529.139" fill="none" stroke="#f50" stroke-miterlimit="10" stroke-width="0.4"/>
      <path d="M23.3,16.729c.115.026.258.122.372.081a.441.441,0,0,0,.242-.321" fill="none" stroke="#f50" stroke-miterlimit="10" stroke-width="0.4"/>
      <path d="M25.113,17.669a2.347,2.347,0,0,0-.358.035c-.124.007-.416,0-.428-.163-.005-.055,0-.193.076-.179" fill="none" stroke="#f50" stroke-miterlimit="10" stroke-width="0.4"/>
      <path d="M24.788,18.216a1.062,1.062,0,0,1-.6.078.978.978,0,0,0-.607.179" fill="none" stroke="#f50" stroke-miterlimit="10" stroke-width="0.4"/>
      <path d="M23.686,19.167a1.852,1.852,0,0,1-.62-.261,7.37,7.37,0,0,1-.694-.417,1.991,1.991,0,0,1-.8-.9" fill="none" stroke="#f50" stroke-miterlimit="10" stroke-width="0.4"/>
      <path d="M20.982,16.775c.056.026.113.048.172.069.324.11.8.181.879-.25.064-.354-.191-.721-.061-1.09.091-.261.334-.342.484-.559.082-.118.023-.3.143-.4A1.6,1.6,0,0,1,23,14.4a2.413,2.413,0,0,1,1.46-.143c.216.079.516.239.683-.009a.752.752,0,0,0,.018-.644,3.356,3.356,0,0,0-.429-.68,1.764,1.764,0,0,0-.52-.61,4.447,4.447,0,0,0-.983-.453,1.94,1.94,0,0,0-.457-.058,3.709,3.709,0,0,0-.863.035,2.622,2.622,0,0,0-.881.375,2.825,2.825,0,0,0-1.046,1.25A2.628,2.628,0,0,0,20.982,16.775Z"/>
      <path d="M20.074,15.821c.008-.057.024-.116.031-.167.014-.091-.014-.1.08-.166a.437.437,0,0,1,.241-.049.737.737,0,0,1,.523.31c.129.2-.016.39,0,.585.017.136.271.47-.052.453-.276-.012-.432-.222-.568-.433a3.757,3.757,0,0,1-.244-.328A.37.37,0,0,1,20.074,15.821Z" fill="#ffa9a2"/>
      <path d="M24.772,16.292a.615.615,0,0,1,.058.275,1.266,1.266,0,0,0,.075.292,1.073,1.073,0,0,0,.26.391" fill="none" stroke="#f50" stroke-miterlimit="10" stroke-width="0.4"/>
      <path d="M36.992,28.157l1.136.229.922-1.439a13.808,13.808,0,0,1-1.691-.467A1.857,1.857,0,0,0,36.992,28.157Z" fill="#d66924" stroke="#d66924" stroke-linecap="round" stroke-linejoin="round" stroke-width="0.4" opacity="0.5" style="mix-blend-mode: overlay"/>
      <path d="M36.992,28.157l1.136.229.922-1.439a13.808,13.808,0,0,1-1.691-.467A1.857,1.857,0,0,0,36.992,28.157Z" fill="none" stroke="#ff4d00" stroke-linecap="round" stroke-linejoin="round" stroke-width="0.4"/>
      <path d="M37.154,27.375c.165.066.116-.538.144-.615.093-.255.4-.283.626-.294.2-.012.553-.128.6.114a.3.3,0,0,1-.088.283c-.093.084-.229.066-.333.131a.226.226,0,0,0,.037.4.3.3,0,0,1,0,.074" fill="none" stroke="#ff4d00" stroke-miterlimit="10" stroke-width="0.4"/>
      <path d="M39.4,29.955a.255.255,0,0,1-.2.037c0-.063.1-.216-.017-.137-.054.034-.09.1-.148.128a.353.353,0,0,1-.289.021c-.018-.141-.047-.2.04-.329a1.544,1.544,0,0,1,.2-.27c.145-.134.373-.22.484-.387-.068-.019-.1-.038-.165-.013s-.12.105-.181.138c-.114.061-.23.033-.343.066-.084-.23.151-.395.331-.477a1.563,1.563,0,0,0,.243-.088c.091-.062.226-.206.068-.245-.193-.046-.508.426-.731.206-.2-.2.166-.411.291-.489a1.223,1.223,0,0,0,.572-.969l.042.009c0-.04.006-.085,0-.125.338-.053.383.42.352.662.13.015.155.3.16.4a.9.9,0,0,1-.167.5c-.009.013.069.282.069.331a1.071,1.071,0,0,1-.2.55,2.415,2.415,0,0,1-.147.238A1.019,1.019,0,0,1,39.4,29.955Z" fill="#ff4d00" stroke="#ff4d00" stroke-miterlimit="10" stroke-width="0.4"/>
      <path d="M39.4,28.444c.116.051.162-.1.2-.185s.106-.192.149-.294a.907.907,0,0,0,.091-.571" fill="#ff4d00" stroke="#ff4d00" stroke-miterlimit="10" stroke-width="0.4"/>
      <path d="M39.412,29.069c.131.048.349-.188.412-.288a1.457,1.457,0,0,0,.187-.414" fill="#ff4d00" stroke="#ff4d00" stroke-miterlimit="10" stroke-width="0.4"/>
      <path d="M39.267,29.814a1.8,1.8,0,0,0,.1-.178,1.273,1.273,0,0,1,.145-.157,1.193,1.193,0,0,1,.215-.177c.106-.068.251-.133.3-.259" fill="#ff4d00" stroke="#ff4d00" stroke-miterlimit="10" stroke-width="0.4"/>
      <path d="M31.275,30.773c-.564-.011-.8,1.659-.388,1.7" fill="none" stroke="#6d6d6d" stroke-miterlimit="10" stroke-width="0.4"/>
      <path d="M35.236,31.712a6.487,6.487,0,0,0-.716.2s-.925.105-.925,0,.82-.409,1.128-.614.513-.411.41-.616-.718.308-.718.308-1.025.513-1.231.308a.538.538,0,0,1,0-.72c.307-.409.307-.2.307-.2l.309-.719-.309.1a5.649,5.649,0,0,0-1.334.513c-.2.205-.616.616-.821.513l-.175-.088a2.082,2.082,0,0,0-.431,1.656,7.175,7.175,0,0,1,.914.381,3.689,3.689,0,0,0,1.847.72,2.192,2.192,0,0,0,1.232-.412c.308-.2.2-.308.2-.308s-.1,0,.1-.1.2-.206.2-.309-.2,0,0-.206C35.544,31.815,35.339,31.712,35.236,31.712Z" fill="none" stroke="#f50" stroke-linecap="round" stroke-linejoin="round" stroke-width="0.4"/>
      <path d="M20.786,17.96A1.987,1.987,0,0,0,20.8,16.9a5.568,5.568,0,0,1-.8-2.429,2.5,2.5,0,0,1,4.909-.633,5.745,5.745,0,0,1,.359,1.813c0,.36-.154.427-.188.547a3.908,3.908,0,0,0-.018.771c.018.153.172.342.172.53s-.377.291-.325.291-.154.341-.085.461c0,0-.035.189-.137.239s.137.222-.138.531a.9.9,0,0,1-.922.171v.1l-.189.033.017.958s-.051.18-.119.052a2.5,2.5,0,0,1-.189-.976A3.714,3.714,0,0,1,20.786,17.96Z" fill="#d66924" style="mix-blend-mode: overlay"/>
      <path d="M35.236,31.712a6.487,6.487,0,0,0-.716.2s-.925.105-.925,0,.82-.409,1.128-.614.513-.411.41-.616-.718.308-.718.308-1.025.513-1.231.308a.538.538,0,0,1,0-.72c.307-.409.307-.2.307-.2l.309-.719-.309.1a5.649,5.649,0,0,0-1.334.513c-.2.205-.616.616-.821.513l-.175-.088a2.082,2.082,0,0,0-.431,1.656,7.175,7.175,0,0,1,.914.381,3.689,3.689,0,0,0,1.847.72,2.192,2.192,0,0,0,1.232-.412c.308-.2.2-.308.2-.308s-.1,0,.1-.1.2-.206.2-.309-.2,0,0-.206C35.544,31.815,35.339,31.712,35.236,31.712Z" fill="#d66924" stroke="#d66924" stroke-linecap="round" stroke-linejoin="round" stroke-width="0.5" opacity="0.5" style="mix-blend-mode: overlay"/>
      <path d="M38.366,24.816c-1.425-.588-3.418.964-4.449,3.464a7.521,7.521,0,0,0-.593,2.894l.075.006.712-.275a5.739,5.739,0,0,1,.085-.72,4.594,4.594,0,0,0,.008,1.68s.8-1.283,1.706-1.283a1.713,1.713,0,0,1,.5.066h0a.9.9,0,0,1,.156.063.627.627,0,0,1,.137.475c0,.333-.179.245-.563.885a1.962,1.962,0,0,0-.372.882,1.327,1.327,0,0,1-.671.023l-.935.6a1.655,1.655,0,0,0,.468.3c1.426.588,3.417-.964,4.448-3.466S39.792,25.4,38.366,24.816Zm.263,3.775.039-.1s.138-.083.281-.191a6.118,6.118,0,0,1-.148.734A.9.9,0,0,0,38.629,28.591Zm-.454-2.79a1.443,1.443,0,0,1,.737,1.035l-.006.005a1.679,1.679,0,0,1-.123-.324c-.038-.167-.1-.012-.1-.012a2.333,2.333,0,0,0-.628.974c-.091.205-.158.09-.681.436-.564.372-.667.692-1.3.886a7.262,7.262,0,0,1-1.552.217l-.079.184a7.051,7.051,0,0,1,.264-.671C35.606,26.56,37.159,25.338,38.175,25.8Zm-3.784,3.586.011.006a4.314,4.314,0,0,0-.153.526C34.287,29.744,34.336,29.567,34.391,29.387Zm2.671,2.761a.736.736,0,0,1,.258-.693,2.639,2.639,0,0,0,.4-.539l.024-.062h0c.031.019.056.055.092.064a.376.376,0,0,0,.2-.027A6.022,6.022,0,0,1,37.062,32.148Z"/>
      <path d="M14.53,12.9a46.472,46.472,0,0,0-.083,5.666" stroke="#6d6d6d" stroke-linecap="round" stroke-linejoin="round" fill="url(#g)"/>
      <path d="M30.927,30.378A5.442,5.442,0,0,1,33.7,29.236" fill="none" stroke="#000" stroke-miterlimit="10" stroke-width="0.8"/>
      <path d="M25.555,28.137c-.567-.37-.736-1.392-.961-2-.653-1.742-.533-3.658-1.1-5.434" fill="none" stroke="#6d6d6d" stroke-miterlimit="10" stroke-width="0.5"/>
    </g>
  </g>
</svg>
