<svg xmlns="http://www.w3.org/2000/svg" xmlns:xlink="http://www.w3.org/1999/xlink" viewBox="0 0 64 64"><defs><style>.cls-1,.cls-15,.cls-29,.cls-30,.cls-33,.cls-34,.cls-49,.cls-8{fill:none;}.cls-2{isolation:isolate;}.cls-10,.cls-20,.cls-23,.cls-26,.cls-3,.cls-9{fill:#fff;}.cls-4{clip-path:url(#clip-path);}.cls-5{fill:#285977;}.cls-6{fill:url(#white_left);}.cls-7{fill:#aadcfa;}.cls-17,.cls-24,.cls-25,.cls-26,.cls-45,.cls-51,.cls-52,.cls-8,.cls-9{stroke:#000;}.cls-44,.cls-45,.cls-49,.cls-50,.cls-51,.cls-52,.cls-8,.cls-9{stroke-miterlimit:1;}.cls-24,.cls-44,.cls-45,.cls-8,.cls-9{stroke-width:0.5px;}.cls-10,.cls-15,.cls-29,.cls-33{stroke:#fff;}.cls-10{stroke-width:2.2px;}.cls-11,.cls-12,.cls-28,.cls-30{stroke:#003755;}.cls-11,.cls-12,.cls-17,.cls-37{stroke-linecap:round;stroke-linejoin:round;}.cls-11{stroke-width:0.7px;fill:url(#linear-gradient);}.cls-12,.cls-17,.cls-27{fill:#003755;}.cls-13{fill:#2d6d8b;}.cls-14{mix-blend-mode:multiply;fill:url(#ds_infrastructure_1);}.cls-15{stroke-width:0.25px;}.cls-16{opacity:0.55;fill:url(#white_left-2);}.cls-17{stroke-width:0.55px;}.cls-18,.cls-24,.cls-25,.cls-31{fill:#e1e1e1;}.cls-18{opacity:0.63;}.cls-19{opacity:0.75;}.cls-20,.cls-23{font-size:2.25px;font-family:Myriad-Roman, Myriad Roman;}.cls-20{letter-spacing:0.4em;}.cls-21{letter-spacing:0.3em;}.cls-22{letter-spacing:0em;}.cls-25,.cls-26{stroke-width:0.15px;}.cls-28{fill:#5a9ab8;}.cls-28,.cls-30,.cls-31,.cls-34{stroke-width:0.39px;}.cls-29,.cls-33{stroke-width:0.09px;}.cls-31,.cls-34,.cls-37,.cls-44,.cls-49,.cls-50{stroke:#323232;}.cls-32{fill:#797979;}.cls-33{opacity:0.58;}.cls-35{fill:url(#linear-gradient-2);}.cls-36{fill:#6d6d6d;}.cls-37,.cls-39,.cls-50{fill:#323232;}.cls-37{stroke-width:0.53px;}.cls-38{fill:url(#linear-gradient-3);}.cls-40{fill:url(#linear-gradient-4);}.cls-41{fill:url(#linear-gradient-5);}.cls-42{fill:url(#linear-gradient-6);}.cls-43{fill:url(#linear-gradient-7);}.cls-44{fill:#f1f0f0;}.cls-46{fill:url(#linear-gradient-8);}.cls-47{fill:url(#linear-gradient-9);}.cls-48{fill:url(#linear-gradient-10);}.cls-49{stroke-width:0.59px;}.cls-51,.cls-52{stroke-width:0.44px;}.cls-51{fill:url(#New_Gradient_Swatch_1);}.cls-52{fill:url(#New_Gradient_Swatch_1-2);}.cls-53{fill:url(#linear-gradient-11);}</style><clipPath id="clip-path"><path class="cls-1" d="M27.9,39.16l3.8,10.73L5.21,55V19.4l50.56,0V44.51L49.71,33.77a3.54,3.54,0,0,0-3.13-2.21l-16.18,0a2,2,0,0,0-2,1.78l-.72,4A4,4,0,0,0,27.9,39.16Z"/></clipPath><linearGradient id="white_left" x1="11.57" y1="41.96" x2="52.71" y2="41.96" gradientUnits="userSpaceOnUse"><stop offset="0" stop-color="#f5f5f5"/><stop offset="1" stop-color="#bebebe"/></linearGradient><linearGradient id="linear-gradient" x1="8.82" y1="36.1" x2="31.37" y2="75.16" gradientUnits="userSpaceOnUse"><stop offset="0" stop-color="#8cd7f5"/><stop offset="1" stop-color="#376e8c"/></linearGradient><linearGradient id="ds_infrastructure_1" x1="34.36" y1="46.04" x2="52.19" y2="46.04" gradientTransform="translate(33.38 -5.55) rotate(29.84)" gradientUnits="userSpaceOnUse"><stop offset="0" stop-color="#fff"/><stop offset="1" stop-color="#0f218b"/></linearGradient><linearGradient id="white_left-2" x1="36.84" y1="35.67" x2="40.04" y2="35.67" gradientTransform="translate(33.38 -5.55) rotate(29.84)" xlink:href="#white_left"/><linearGradient id="linear-gradient-2" x1="5.75" y1="8.75" x2="58.13" y2="8.75" gradientUnits="userSpaceOnUse"><stop offset="0.18" stop-color="#f0f0f0"/><stop offset="0.3" stop-color="#e9e9e9"/><stop offset="0.47" stop-color="#d5d5d5"/><stop offset="0.68" stop-color="#b5b5b5"/><stop offset="0.91" stop-color="#888"/><stop offset="1" stop-color="#757575"/></linearGradient><linearGradient id="linear-gradient-3" x1="48.6" y1="10.8" x2="54.62" y2="10.8" gradientUnits="userSpaceOnUse"><stop offset="0" stop-color="#f0f0f0"/><stop offset="1" stop-color="#919191"/></linearGradient><linearGradient id="linear-gradient-4" x1="41.71" y1="11.6" x2="55.84" y2="11.6" xlink:href="#linear-gradient-3"/><linearGradient id="linear-gradient-5" x1="47.9" y1="14.69" x2="53.77" y2="14.69" xlink:href="#linear-gradient-3"/><linearGradient id="linear-gradient-6" x1="43.45" y1="10.86" x2="47.47" y2="10.86" xlink:href="#linear-gradient-3"/><linearGradient id="linear-gradient-7" x1="43.44" y1="10.12" x2="45.89" y2="10.12" xlink:href="#linear-gradient-3"/><linearGradient id="linear-gradient-8" x1="44.93" y1="23.02" x2="58.06" y2="23.02" xlink:href="#linear-gradient-3"/><linearGradient id="linear-gradient-9" x1="53.28" y1="18.81" x2="58.23" y2="18.81" xlink:href="#linear-gradient-3"/><linearGradient id="linear-gradient-10" x1="54.22" y1="16.67" x2="58.11" y2="16.67" xlink:href="#linear-gradient-3"/><linearGradient id="New_Gradient_Swatch_1" x1="13.74" y1="18.64" x2="15.13" y2="18.64" gradientUnits="userSpaceOnUse"><stop offset="0" stop-color="#464646"/><stop offset="0.99" stop-color="#141414"/></linearGradient><linearGradient id="New_Gradient_Swatch_1-2" x1="12.2" y1="14.2" x2="16.63" y2="14.2" xlink:href="#New_Gradient_Swatch_1"/><linearGradient id="linear-gradient-11" x1="10.55" y1="10.59" x2="18.56" y2="10.59" xlink:href="#linear-gradient-2"/></defs><g class="cls-2"><g id="DEL_VCA_OK_" data-name="DEL VCA OK  ***"><path class="cls-3" d="M27.9,39.16l2.86,8L50.37,39.8,52,37.9l-2.25-4.13a3.54,3.54,0,0,0-3.13-2.21l-16.18,0a2,2,0,0,0-2,1.78l-.72,4A4,4,0,0,0,27.9,39.16Z"/><g id="CONVOYEUR_" data-name="CONVOYEUR ***"><g class="cls-4"><g class="cls-2"><path class="cls-5" d="M11,48.57a4.87,4.87,0,0,0,2.73,2.5,3.59,3.59,0,0,1-2.17-3.21c-.08-3,3.07-6.21,7-7.26l-7.37-6.71c-2.58.47-5.48,1.2-5.4,4.16a5.74,5.74,0,0,0,.72,3C7.14,42.09,9.94,46.79,11,48.57Z"/><path class="cls-5" d="M40.85,27.91a6.16,6.16,0,0,0-4.21-.19l-25.4,6.17,7.37,6.71,28.11-8.05a6.16,6.16,0,0,1,4.21.19Z"/><path class="cls-6" d="M46.72,32.55c3.24-.86,5.92.4,6,2.83s-2.52,5.09-5.77,5.95l-28,10c-4,1-7.24-.5-7.31-3.45s3.07-6.21,7-7.26Z"/><path d="M46.72,32.55c3.24-.86,5.92.4,6,2.83s-2.52,5.09-5.77,5.95l-28,10c-4,1-7.24-.5-7.31-3.45s3.07-6.21,7-7.26ZM18.85,50l28.06-9.75c2.49-.66,4.46-2.69,4.41-4.54s-2.1-2.82-4.58-2.17l-28.1,8.28c-3,.8-5.43,3.29-5.37,5.55s2.56,3.44,5.58,2.63"/></g></g></g><g id="bouteille_copy_2" data-name="bouteille copy 2"><g id="Layer_122_copy" data-name="Layer 122 copy"><path id="gris" class="cls-3" d="M11.6,30.57V37.3c0,.26.29.53.86.73a7.49,7.49,0,0,0,4.3,0c.62-.22.93-.5.93-.78V30.52c0-1-.82-1.38-1.61-1.67l-.08,0a.42.42,0,0,1-.24-.23.77.77,0,0,1-.08-.27V26.06h0V25.8c0-.39-.67-.48-1.06-.48s-1.08.19-1.08.48a2.57,2.57,0,0,0,0,.28h0c0,.05,0,2.13,0,2.24a.8.8,0,0,1,0,.28.54.54,0,0,1-.31.26h0c-1.11.43-1.57.92-1.6,1.71"/><path id="gris-2" data-name="gris" class="cls-7" d="M11.6,34.35V37.3c0,.26.29.53.86.73a7.49,7.49,0,0,0,4.3,0c.62-.22.93-.5.93-.78v-3c0-1-.18-1.29-1-1.48-.39-.09-.82.08-1.36,0a2.58,2.58,0,0,1-.79-.42c0-.08.76-.16.71-.73s-.42-.83-.51-1.42l-.11-1.55a14.13,14.13,0,0,1-.36,1.83c0,.05-.68.84-.46,1.37s.76.42.73.5-.77.15-.85.18a2.63,2.63,0,0,0-.79.05,1.67,1.67,0,0,0-1.3,1.75"/><path id="contour" class="cls-8" d="M11.6,30.57V37.3c0,.26.29.53.86.73a7.49,7.49,0,0,0,4.3,0c.62-.22.93-.5.93-.78V30.52c0-1-.82-1.38-1.61-1.67l-.08,0a.42.42,0,0,1-.24-.23.77.77,0,0,1-.08-.27V26.06h0V25.8c0-.39-.67-.48-1.06-.48s-1.08.19-1.08.48a2.57,2.57,0,0,0,0,.28h0c0,.05,0,2.13,0,2.24a.8.8,0,0,1,0,.28.54.54,0,0,1-.31.26h0c-1.11.43-1.57.92-1.6,1.71"/></g><g id="Layer_126" data-name="Layer 126"><path class="cls-9" d="M21.65,27.57V34.3c0,.26.28.53.85.73a7.49,7.49,0,0,0,4.3,0c.62-.22.93-.5.93-.78V27.52c0-1-.82-1.38-1.61-1.67l-.07,0a.41.41,0,0,1-.25-.23.77.77,0,0,1-.07-.27c0-.1,0-2.2,0-2.26h0V22.8c0-.39-.68-.48-1.06-.48s-1.08.19-1.08.48a2.57,2.57,0,0,0,0,.28h0v2.24a.79.79,0,0,1,0,.28.49.49,0,0,1-.31.26h0c-1.11.43-1.57.92-1.59,1.71"/><path class="cls-7" d="M21.65,27.57V34.3c0,.26.28.53.85.73a7.49,7.49,0,0,0,4.3,0c.62-.22.93-.5.93-.78V27.52c0-1-.82-1.38-1.61-1.67l-.07,0a.41.41,0,0,1-.25-.23.77.77,0,0,1-.07-.27c0-.1,0-2.2,0-2.26h0V22.8c0-.39-.68-.48-1.06-.48s-1.08.19-1.08.48a2.57,2.57,0,0,0,0,.28h0v2.24a.79.79,0,0,1,0,.28.49.49,0,0,1-.31.26h0c-1.11.43-1.57.92-1.59,1.71"/><path id="contour-2" data-name="contour" class="cls-8" d="M21.65,27.57V34.3c0,.26.28.53.85.73a7.49,7.49,0,0,0,4.3,0c.62-.22.93-.5.93-.78V27.52c0-1-.82-1.38-1.61-1.67l-.07,0a.41.41,0,0,1-.25-.23.77.77,0,0,1-.07-.27c0-.1,0-2.2,0-2.26h0V22.8c0-.39-.68-.48-1.06-.48s-1.08.19-1.08.48a2.57,2.57,0,0,0,0,.28h0v2.24a.79.79,0,0,1,0,.28.49.49,0,0,1-.31.26h0c-1.11.43-1.57.92-1.59,1.71"/></g><polygon id="_canon_fin_" data-name="&lt;canon  fin&gt;" points="37.14 22.88 40.72 22.52 45.65 22.96 45.61 24.12 40.72 23.68 37.1 24.04 37.14 22.88"/><g id="Layer_127" data-name="Layer 127"><path class="cls-9" d="M33.64,20.57V28.3c0,.26.28.53.85.73a7.49,7.49,0,0,0,4.3,0c.62-.22.93-.5.93-.78V20.52c0-.95-.82-1.38-1.61-1.67l-.08,0a.42.42,0,0,1-.24-.23,1.07,1.07,0,0,1-.08-.27V16.06h0V15.8c0-.39-.67-.48-1.06-.48s-1.07.19-1.07.48a1.29,1.29,0,0,0,0,.28h0v2.24a.79.79,0,0,1,0,.28.48.48,0,0,1-.31.26h0c-1.11.42-1.57.91-1.6,1.7"/><path class="cls-7" d="M33.64,20.57V28.3c0,.26.28.53.85.73a7.49,7.49,0,0,0,4.3,0c.62-.22.93-.5.93-.78V20.52c0-.95-.82-1.38-1.61-1.67l-.08,0a.42.42,0,0,1-.24-.23,1.07,1.07,0,0,1-.08-.27V16.06h0V15.8c0-.39-.67-.48-1.06-.48s-1.07.19-1.07.48a1.29,1.29,0,0,0,0,.28h0v2.24a.79.79,0,0,1,0,.28.48.48,0,0,1-.31.26h0c-1.11.42-1.57.91-1.6,1.7"/><path class="cls-8" d="M33.64,20.57V28.3c0,.26.28.53.85.73a7.49,7.49,0,0,0,4.3,0c.62-.22.93-.5.93-.78V20.52c0-.95-.82-1.38-1.61-1.67l-.08,0a.42.42,0,0,1-.24-.23,1.07,1.07,0,0,1-.08-.27V16.06h0V15.8c0-.39-.67-.48-1.06-.48s-1.07.19-1.07.48a1.29,1.29,0,0,0,0,.28h0v2.24a.79.79,0,0,1,0,.28.48.48,0,0,1-.31.26h0c-1.11.42-1.57.91-1.6,1.7"/></g></g><g id="PLAY_Ok_" data-name="PLAY  Ok ***"><path class="cls-10" d="M16.33,41.71a7.39,7.39,0,1,0,7.39,7.39A7.39,7.39,0,0,0,16.33,41.71Z"/><path class="cls-11" d="M16.33,41.71a7.39,7.39,0,1,0,7.39,7.39A7.39,7.39,0,0,0,16.33,41.71Zm0,13A5.64,5.64,0,1,1,22,49.1,5.64,5.64,0,0,1,16.33,54.73Z"/><polygon points="14.2 46 20.12 49.2 14.2 52.34 14.2 46"/></g><g id="TELE_COMMANDE_OK_" data-name="TELE COMMANDE OK ***"><path class="cls-12" d="M47.12,33.59H30.57m0,0-.77,4.1,7.06,19.78,20.56-.06,1.78-3L47.12,33.59H30.57"/><polygon class="cls-13" points="38.62 54.38 36.86 57.47 29.8 37.69 30.57 33.59 38.62 54.38"/><polygon class="cls-14" points="36.86 57.47 38.62 54.38 59.17 54.38 57.42 57.41 36.86 57.47"/><polygon class="cls-3" points="47.12 33.59 30.57 33.59 38.62 54.38 59.17 54.38 47.12 33.59"/><polyline class="cls-15" points="30.57 33.59 38.62 54.38 59.17 54.38"/><polygon points="51.89 45.9 47.86 45.95 44.03 39.27 48.06 39.22 51.89 45.9"/><polygon class="cls-16" points="50.46 45.15 48.23 45.18 47.48 43.89 49.7 43.86 50.46 45.15"/><polyline class="cls-17" points="32.54 34.48 34.3 37.52 47.9 37.48 46.16 34.45 32.54 34.48"/><path id="REFLET" class="cls-18" d="M45.5,37.34s1.75-.18.31-2.28c-6.41-.18-11.74.9-11.67,1.63L33,34.82s10.12.06,13-.07c1.9,3.29,1.41,2.52,1.41,2.52Z"/><g id="TEXTE"><g class="cls-19"><path class="cls-3" d="M36.41,40.64a1,1,0,0,1-.8-.49c-.18-.31,0-.5.25-.5a1,1,0,0,1,.8.48c.21.35,0,.5-.25.51Zm-.07-.13c.19,0,.25-.16.12-.37a.69.69,0,0,0-.53-.36c-.24,0-.23.19-.12.37a.7.7,0,0,0,.53.36Z"/><path class="cls-3" d="M36.79,39.93a3,3,0,0,0-.15-.26h.17l.1.15h0c0-.08.07-.17.25-.17a.72.72,0,0,1,.62.4l.33.56h-.2l-.31-.54a.5.5,0,0,0-.42-.28c-.13,0-.18.08-.16.17a.13.13,0,0,0,0,.08l.33.57h-.2Z"/><path class="cls-3" d="M40.33,40.62a1,1,0,0,1-.81-.48c-.18-.31-.05-.5.25-.5a1,1,0,0,1,.81.48c.2.35,0,.5-.25.5Zm-.07-.12c.19,0,.24-.16.12-.37a.72.72,0,0,0-.54-.36c-.23,0-.22.19-.12.37a.72.72,0,0,0,.54.36Z"/><path class="cls-3" d="M41.12,40.6l-.47-.81H40.5l-.07-.13h.15l0,0c-.08-.13-.11-.25-.06-.32a.22.22,0,0,1,.21-.09l.19,0,0,.14-.14,0c-.17,0-.14.12-.06.27l0,0H41l.07.13h-.26l.47.81Z"/><path class="cls-3" d="M41.78,40.6l-.47-.81h-.15l-.08-.13h.15l0,0c-.08-.13-.11-.25-.06-.33s.12-.08.21-.08l.18,0,.05.13-.14,0c-.16,0-.13.13-.05.28l0,0h.26l.08.13h-.26l.47.81Z"/></g><path d="M36.46,40.56a1,1,0,0,1-.81-.48c-.18-.32,0-.5.25-.5a1,1,0,0,1,.81.48c.2.35,0,.5-.25.5Zm-.07-.13c.19,0,.24-.15.11-.37A.69.69,0,0,0,36,39.7c-.23,0-.22.19-.12.37a.68.68,0,0,0,.54.36Z"/><path d="M36.84,39.85l-.16-.25h.17l.11.16h0c0-.09.08-.18.26-.18a.75.75,0,0,1,.62.4l.32.56H38L37.65,40a.5.5,0,0,0-.42-.28.14.14,0,0,0-.16.18.41.41,0,0,0,0,.08l.33.57h-.19Z"/><path d="M40.37,40.55a1,1,0,0,1-.8-.48c-.19-.32,0-.5.25-.5a.94.94,0,0,1,.8.48c.2.35,0,.5-.25.5Zm-.07-.13c.19,0,.24-.15.12-.37a.69.69,0,0,0-.54-.36c-.23,0-.22.19-.12.37a.69.69,0,0,0,.54.36Z"/><path d="M41.17,40.53l-.47-.82h-.15l-.08-.14h.15l0,0c-.07-.13-.11-.25-.06-.33a.25.25,0,0,1,.21-.09.84.84,0,0,1,.19,0l0,.13-.14,0c-.17,0-.14.13-.05.27l0,0h.26l.08.13h-.27l.48.82Z"/><path d="M41.82,40.52l-.47-.81H41.2l-.07-.13h.15l0,0c-.08-.13-.11-.26-.06-.33a.25.25,0,0,1,.21-.09.54.54,0,0,1,.19,0l0,.13-.14,0c-.17,0-.14.13-.06.27l0,0h.27l.07.13h-.26l.47.81Z"/></g><g id="Ecran_Text" data-name="Ecran Text"><text class="cls-20" transform="matrix(1, 0, 0.5, 0.86, 36.05, 36.83)">A<tspan class="cls-21" x="2.27" y="0">1</tspan><tspan class="cls-22" x="4.11" y="0" xml:space="preserve">   .</tspan></text><text class="cls-23" transform="matrix(1, 0, 0.5, 0.86, 40.31, 36.82)"><tspan xml:space="preserve"> .</tspan></text><text class="cls-23" transform="matrix(1, 0, 0.5, 0.86, 41.09, 36.82)"><tspan xml:space="preserve"> .</tspan></text></g><g id="Btn_ON_OFF_copy_12" data-name="Btn ON OFF copy 12"><path class="cls-24" d="M38.08,41.52a.42.42,0,0,0,.15.62l.82.56-.22.38A2.13,2.13,0,0,0,40,44.81c1,.67,2.16.8,2.63.29l.44-.76c.34-.61,0-1.47-1-2.14a2.8,2.8,0,0,0-2.21-.53L39,41.11c-.24-.16-.64-.16-.77.07Z"/><path class="cls-25" d="M40.41,44.05a2.13,2.13,0,0,1-1.13-1.73l-.82-.55a.47.47,0,0,1-.22-.5l-.14.26a.43.43,0,0,0,.14.62l.82.55-.22.39A2.1,2.1,0,0,0,40,44.81c1,.67,2.16.8,2.62.29l.44-.76C42.57,44.85,41.39,44.72,40.41,44.05Z"/><g id="BTN_On_Off" data-name="BTN   On Off"><path d="M42.09,44.64a1.9,1.9,0,0,1-.49-.06c-.21.33-.49.72-.83.65a4,4,0,0,0,.64.17l.31,0S42,44.76,42.09,44.64Z"/><polygon points="40.17 44.95 39.82 44.73 40.27 43.95 40.62 44.18 40.17 44.95"/><polygon points="39.69 44.59 39.53 44.47 39.98 43.7 40.14 43.81 39.69 44.59"/></g><path class="cls-26" d="M42.09,42.21a2.87,2.87,0,0,0-2.22-.54l-.82-.55a.58.58,0,0,0-.74,0,.43.43,0,0,0,.15.63l.82.55a2.13,2.13,0,0,0,1.13,1.73c1,.67,2.16.8,2.62.29S43.07,42.88,42.09,42.21Z"/></g><g id="BOUTON_" data-name="BOUTON  **"><path class="cls-27" d="M51.27,51.67c-1.47-.84-2.27-2.22-1.78-3.07s2.08-.86,3.55,0,2.27,2.22,1.78,3.07S52.74,52.51,51.27,51.67Z"/><path class="cls-28" d="M53.76,47.14c-1.07-.61-2.21-.63-2.55,0l-1.14,2c-.34.59.26,1.56,1.33,2.18s2.22.63,2.55.05l1.14-2C55.43,48.73,54.83,47.76,53.76,47.14Z"/><path class="cls-5" d="M54.16,49.62A3.2,3.2,0,0,1,53,49.34c-.57.75-1.34,1.5-2,1.39l.12.1.31.19a3.7,3.7,0,0,0,.77.34l0,0,.33.07.15,0a1.91,1.91,0,0,0,.28,0C53.35,51,53.92,50,54.16,49.62Z"/><path class="cls-29" d="M52.66,49.07c-1-.59-1.61-1.47-1.32-2s1.35-.44,2.37.15,1.6,1.46,1.32,2S53.68,49.65,52.66,49.07Z"/><path class="cls-30" d="M53.76,47.14c-1.07-.61-2.21-.63-2.55,0l-1.14,2c-.34.59.26,1.56,1.33,2.18s2.22.63,2.55.05l1.14-2C55.43,48.73,54.83,47.76,53.76,47.14Z"/><path class="cls-27" d="M40.7,51.7c-1.47-.84-2.26-2.22-1.77-3.07s2.08-.86,3.55,0,2.26,2.22,1.77,3.07S42.17,52.54,40.7,51.7Z"/><path class="cls-31" d="M43.2,47.17c-1.07-.61-2.22-.63-2.55-.05l-1.14,2c-.34.59.26,1.56,1.33,2.18s2.21.64,2.55.05l1.14-2C44.87,48.76,44.27,47.79,43.2,47.17Z"/><path class="cls-32" d="M43.6,49.69a3,3,0,0,1-1.17-.27c-.57.75-1.34,1.5-2,1.39l.12.09a3.28,3.28,0,0,0,.31.2,3.7,3.7,0,0,0,.77.34h0a1.67,1.67,0,0,0,.32.08l.15,0a1.91,1.91,0,0,0,.28,0C42.79,51,43.36,50.12,43.6,49.69Z"/><path class="cls-33" d="M42.1,49.12c-1-.58-1.61-1.46-1.32-2s1.35-.43,2.37.15,1.6,1.47,1.32,2S43.12,49.7,42.1,49.12Z"/><path class="cls-34" d="M43.2,47.17c-1.07-.61-2.22-.63-2.55-.05l-1.14,2c-.34.59.26,1.56,1.33,2.18s2.21.64,2.55.05l1.14-2C44.87,48.76,44.27,47.79,43.2,47.17Z"/></g></g><g id="_Rect_Rail_" data-name="&lt;Rect Rail ***"><rect class="cls-35" x="5.75" y="7.67" width="52.38" height="2.16" rx="0.38"/><path class="cls-36" d="M57.76,8.05V9.46H6.13V8.05H57.76m0-.75H6.13a.76.76,0,0,0-.76.75V9.46a.76.76,0,0,0,.76.75H57.76a.76.76,0,0,0,.75-.75V8.05a.76.76,0,0,0-.75-.75Z"/></g><g id="ROBOTS_OK_" data-name="ROBOTS OK ***"><polygon class="cls-37" points="55.59 6.71 56.65 7.75 53.5 9.9 51.47 7.87 55.59 6.71"/><polygon class="cls-38" points="48.69 12.52 48.6 12.09 52.98 8.35 53.35 8.41 54.62 10.52 54.55 10.85 51.32 13.2 51.1 13.24 48.69 12.52"/><path class="cls-39" d="M53.14,8.54l1.26,2.1L51.17,13l-2.41-.72,4.38-3.74m-.32-.38L48.43,11.9l.19.86,2.41.72.44-.07,3.23-2.36.13-.66L53.57,8.28l-.75-.12Z"/><path class="cls-40" d="M48.87,16.74a.2.2,0,0,1-.11,0L43.67,14.1l-1.88-1.82a.25.25,0,0,1,0-.35l1-1.12a.25.25,0,0,1,.18-.08l1.15,0a.23.23,0,0,1,.11,0l.9.46,5.38-4.67a.27.27,0,0,1,.17-.06h4.91a.24.24,0,0,1,.24.2.24.24,0,0,1-.15.28L53,8.07l.33.27a.26.26,0,0,1,.1.19.25.25,0,0,1-.09.2l-4,3.44,2.85.81a.26.26,0,0,1,.11.07l.63.63a.28.28,0,0,1,.07.23l-.37,1.83a.24.24,0,0,1-.09.15l-.45.36a.25.25,0,0,1-.16.06l-.09,0-1.5-.6-1.25,1A.3.3,0,0,1,48.87,16.74Z"/><path class="cls-39" d="M55.59,6.71h0m0,0L52.47,8l.67.53-4.38,3.74,3.3.94.63.64-.37,1.84-.45.36-1.63-.66-1.37,1.09-5.09-2.61L42,12.1,43,11l1.14,0,1.82.93-.77-.4,5.51-4.77h4.91m0-.5H50.68a.5.5,0,0,0-.33.12L45.1,10.89l-.76-.39a.59.59,0,0,0-.22-.05h0l-1.14,0a.52.52,0,0,0-.36.16l-1,1.12a.5.5,0,0,0,0,.69l1.82,1.79.12.09,5.09,2.61a.68.68,0,0,0,.23,0,.51.51,0,0,0,.31-.11L50.32,16l1.37.55a.58.58,0,0,0,.18,0,.54.54,0,0,0,.32-.11l.45-.36a.58.58,0,0,0,.18-.3L53.18,14a.52.52,0,0,0-.13-.45l-.63-.64a.61.61,0,0,0-.22-.13l-2.41-.69,3.67-3.13a.5.5,0,0,0,.18-.39.47.47,0,0,0-.19-.38h0l2.33-1a.51.51,0,0,0,.32-.47.5.5,0,0,0-.5-.5Zm0,1Z"/><path class="cls-41" d="M51,17.69a3.07,3.07,0,0,1-2.4-1.1,3.22,3.22,0,0,1,.35-4.32,2.6,2.6,0,0,1,1.68-.58A3.18,3.18,0,0,1,53,12.87a3,3,0,0,1-.22,4.19A2.84,2.84,0,0,1,51,17.69Z"/><path class="cls-39" d="M50.6,11.94A2.87,2.87,0,0,1,52.84,13a2.79,2.79,0,0,1-.18,3.84,2.62,2.62,0,0,1-1.69.57,2.83,2.83,0,0,1-2.21-1,3,3,0,0,1,.32-4,2.36,2.36,0,0,1,1.52-.52m0-.5h0a2.9,2.9,0,0,0-1.84.64,3.48,3.48,0,0,0-.39,4.66,3.3,3.3,0,0,0,2.6,1.2,3.08,3.08,0,0,0,2-.69,3.28,3.28,0,0,0,.25-4.54,3.42,3.42,0,0,0-2.63-1.27Z"/><path class="cls-39" d="M56.08,18c-5.63-2.15-5.71-2.22-5.75-2.25a1.4,1.4,0,0,1-.47-.94,1.36,1.36,0,0,1,.33-1,1.4,1.4,0,0,1,1-.45h.18l.31.08,5.15,1.37.18.3-.61,2.7Z"/><path class="cls-39" d="M51.2,13.62h.15l.27.07h0l5.16,1.37-.62,2.7s-5.58-2.14-5.67-2.21a1.1,1.1,0,0,1,.71-1.94m.42.08h0m-1.14,1.85h0m.72-2.43a1.6,1.6,0,0,0-1.19.54,1.56,1.56,0,0,0-.4,1.17,1.64,1.64,0,0,0,.54,1.1A61.93,61.93,0,0,0,56,18.24l.66-.36.61-2.7-.35-.59-5.15-1.37-.31-.08-.25,0Z"/><path class="cls-42" d="M45.76,13.05a1,1,0,0,1-.63-.23L43.8,11.56a1.65,1.65,0,0,1,0-2.09,1.7,1.7,0,0,1,1.32-.8.9.9,0,0,1,.6.22l1.32,1.22a1.65,1.65,0,0,1,0,2.14A1.72,1.72,0,0,1,45.76,13.05Z"/><path class="cls-39" d="M45.16,8.92a.66.66,0,0,1,.44.16l1.31,1.21a1.41,1.41,0,0,1,0,1.82,1.44,1.44,0,0,1-1.11.69.75.75,0,0,1-.47-.17L44,11.38a1.42,1.42,0,0,1,.08-1.77,1.45,1.45,0,0,1,1.11-.69m0-.5h0a1.93,1.93,0,0,0-1.52.91,1.86,1.86,0,0,0,0,2.43L45,13a1.19,1.19,0,0,0,.81.31,1.92,1.92,0,0,0,1.52-.91,1.89,1.89,0,0,0,0-2.48l-1.3-1.2a1.2,1.2,0,0,0-.78-.29Z"/><path class="cls-43" d="M44.21,11.6a.74.74,0,0,1-.48-.17c-.44-.37-.38-1.23.13-2a1.7,1.7,0,0,1,1.26-.83.7.7,0,0,1,.48.18c.44.36.38,1.22-.13,2A1.72,1.72,0,0,1,44.21,11.6Z"/><path class="cls-39" d="M45.12,8.89a.47.47,0,0,1,.32.12c.33.28.25,1-.18,1.62a1.46,1.46,0,0,1-1,.72.52.52,0,0,1-.32-.11c-.33-.28-.25-1,.17-1.63a1.49,1.49,0,0,1,1.06-.72m0-.5h0a1.93,1.93,0,0,0-1.47.94,1.75,1.75,0,0,0-.08,2.29,1,1,0,0,0,.64.23,1.91,1.91,0,0,0,1.46-.93,1.76,1.76,0,0,0,.09-2.3,1,1,0,0,0-.64-.23Z"/><path class="cls-39" d="M56.84,22.49c0-1,.51-1.77,1-1.75s.93.85.89,1.84-.52,1.78-1.05,1.75S56.79,23.49,56.84,22.49Z"/><polygon id="_canon_fin_2" data-name="&lt;canon  fin&gt;" class="cls-44" points="35.16 25.76 39.41 25.75 44.48 23.5 44.72 25.24 39.62 26.87 35.4 26.88 35.16 25.76"/><path id="_canon_gras_" data-name="&lt;canon   gras&gt;" class="cls-45" d="M43,24.48c-.17-.85-.3-1.53.55-1.7L52,21.73a1.19,1.19,0,0,1,1.56,1l.27.19c.17.85-.53,1.27-1.38,1.44l-8.26,1.44c-.85.17-1-.52-1.15-1.36Z"/><g id="_corps_" data-name="&lt;corps &gt;"><path class="cls-46" d="M45.88,26a.25.25,0,0,1-.07-.49,4.75,4.75,0,0,0-.15-2.35,1.56,1.56,0,0,0-.38-.77l-.1,0a.25.25,0,0,1-.24-.18.24.24,0,0,1,.14-.3.39.39,0,0,1,.18,0l.45-.09C48,21.38,54.92,20,57.06,20c.45,0,.67.05.79.2.53.67-.1,3.65-.3,4.55a.27.27,0,0,1-.22.2c-.11,0-10.23.94-11.42,1.09Z"/><path class="cls-39" d="M57.06,20.25c.32,0,.53,0,.59.1.5.63-.35,4.35-.35,4.35s-10.22.94-11.42,1.09c.58-.08.13-3.57-.59-3.61,1.36-.27,9.46-1.93,11.77-1.93M45.28,22.18h0l-.11,0a.16.16,0,0,1,.1,0m.6,3.61h0m11.18-6c-2.16,0-9.1,1.38-11.38,1.84l-.45.09a.65.65,0,0,0-.26.06.5.5,0,0,0,.21,1h0a5.3,5.3,0,0,1,.42,2.67.51.51,0,0,0-.23.49.51.51,0,0,0,.5.43h.06c1.18-.15,11.31-1.09,11.41-1.1a.49.49,0,0,0,.44-.38c.34-1.48.81-4.06.26-4.77a1.22,1.22,0,0,0-1-.29ZM45.88,26.29h0Z"/></g><path class="cls-47" d="M55.68,22.91a2.5,2.5,0,0,1-.94-.21,2.19,2.19,0,0,1-1.42-2.31l.84-4.05a2,2,0,0,1,2-1.63,3,3,0,0,1,.77.11,2.21,2.21,0,0,1,1.12,3l-1,4.18A1.33,1.33,0,0,1,55.68,22.91Z"/><path class="cls-39" d="M56.17,15a2.41,2.41,0,0,1,.69.1c1.47.64,1.14,2,1,2.66l-1,4.18a1.07,1.07,0,0,1-1.12.76,2,2,0,0,1-.83-.19,2,2,0,0,1-1.29-2l.84-4.06A1.73,1.73,0,0,1,56.17,15m0-.5h0a2.23,2.23,0,0,0-2.25,1.8l-.85,4.09a2.43,2.43,0,0,0,1.57,2.57,2.46,2.46,0,0,0,1,.24A1.58,1.58,0,0,0,57.29,22l1-4.18a2.46,2.46,0,0,0-1.25-3.24,2.78,2.78,0,0,0-.89-.14Z"/><path class="cls-48" d="M56.16,18.61a1.92,1.92,0,0,1-1.09-.33A2,2,0,0,1,54.25,17a1.92,1.92,0,0,1,.31-1.45,1.94,1.94,0,0,1,1.6-.85,1.91,1.91,0,0,1,1.1.34,1.88,1.88,0,0,1,.81,1.24,1.93,1.93,0,0,1-1.91,2.3Z"/><path class="cls-39" d="M56.16,15a1.69,1.69,0,0,1,1.4,2.65,1.69,1.69,0,0,1-1.4.73,1.66,1.66,0,0,1-.95-.29A1.69,1.69,0,0,1,56.16,15m0-.5a2.2,2.2,0,0,0-1.81,1A2.19,2.19,0,0,0,58,17.91a2.19,2.19,0,0,0-1.81-3.43Z"/><polyline id="_Sur_canon_2_cadre" data-name="&lt;Sur canon   2&gt; cadre" class="cls-49" points="44.3 23.84 47.57 23.18 48.04 23.65"/><polygon id="_Sur_canon_1_" data-name="&lt;Sur canon   1 &gt;" class="cls-3" points="44.22 24.5 48.16 24.01 47.35 23.22 44.16 23.85 44.22 24.5"/></g><g id="OK_" data-name="OK  ***"><g id="OK_2" data-name="OK   ***"><path class="cls-50" d="M14.3,8.47C12.37,8.09,11,7,11.22,6s2-1.41,3.9-1,3.31,1.47,3.09,2.43S16.23,8.86,14.3,8.47Z"/><polygon id="_canon_fin_3" data-name="&lt;canon  fin&gt;" class="cls-51" points="13.74 21.63 13.76 15.68 15.13 15.65 15.12 21.63 13.74 21.63"/><path id="_canon_gras_2" data-name="&lt;canon   gras&gt;" class="cls-52" d="M14.58,18.07c-1,0-1.84,0-1.86-.9L12.2,12.4a2.12,2.12,0,0,1,2.17-2.08h0a2.13,2.13,0,0,1,2.26,2l-.25,4.78c0,.93-.79.95-1.8,1Z"/><g id="_corps_2" data-name="&lt;corps &gt;"><path class="cls-53" d="M12.11,15.41a.37.37,0,0,1-.36-.27.54.54,0,0,1,0-.15h0c-.09-.86-.3-2.18-.53-3.57a43.56,43.56,0,0,1-.65-5,.39.39,0,0,1,.21-.34,3.44,3.44,0,0,1,1.51-.31c2.55,0,6,2,6.1,2a.38.38,0,0,1,.18.41c0,.06-1.27,5.37-1.33,6.75a.38.38,0,0,1-.38.36h0a.38.38,0,0,1-.35-.29,5.51,5.51,0,0,0-2.14-.31,4.1,4.1,0,0,0-1.84.28.38.38,0,0,1-.31.41Z"/><path class="cls-36" d="M12.27,6.15c2.47,0,5.91,2,5.91,2s-1.27,5.38-1.34,6.81c0-.37-1.27-.59-2.51-.59s-2.19.18-2.23.59c-.2-2.08-1.17-6.9-1.17-8.52a3,3,0,0,1,1.34-.27m-.17,8.79V15a.38.38,0,0,1,0-.1m4.74,0h0M12.27,5.39a3.79,3.79,0,0,0-1.68.35.75.75,0,0,0-.42.68,46.9,46.9,0,0,0,.66,5.05c.22,1.36.43,2.65.52,3.5a1.24,1.24,0,0,0,0,.27.76.76,0,0,0,.73.55h.14a.75.75,0,0,0,.58-.52,5.29,5.29,0,0,1,1.5-.16,6.52,6.52,0,0,1,1.86.22.34.34,0,0,0,.09.12h0a.71.71,0,0,0,.3.21.93.93,0,0,0,.24,0h0a.7.7,0,0,0,.25,0h0a.65.65,0,0,0,.23-.13h0a.75.75,0,0,0,.23-.32h0A.86.86,0,0,0,17.6,15c0-1.12,1-5.19,1.32-6.67a.77.77,0,0,0-.36-.83c-.15-.08-3.64-2.08-6.29-2.08ZM16.84,15.7h0Z"/></g></g></g></g></g></svg>