<svg xmlns="http://www.w3.org/2000/svg" xmlns:xlink="http://www.w3.org/1999/xlink" width="64" height="64" viewBox="0 0 64 64">
  <defs>
    <linearGradient id="a" x1="36.944" y1="14.975" x2="45.055" y2="29.024" gradientUnits="userSpaceOnUse">
      <stop offset="0" stop-color="#f5f5f5"/>
      <stop offset="1" stop-color="#bebebe"/>
    </linearGradient>
    <linearGradient id="b" x1="45.225" y1="10.194" x2="50.775" y2="19.805" gradientUnits="userSpaceOnUse">
      <stop offset="0" stop-color="#fff"/>
      <stop offset="1" stop-color="#f1f0f0"/>
    </linearGradient>
    <linearGradient id="c" x1="44.719" y1="15.218" x2="54.281" y2="31.78" gradientUnits="userSpaceOnUse">
      <stop offset="0" stop-color="#fff"/>
      <stop offset="1" stop-color="#d2d2d2"/>
    </linearGradient>
    <linearGradient id="d" x1="49.5" y1="19.019" x2="49.5" y2="28.66" gradientUnits="userSpaceOnUse">
      <stop offset="0.5" stop-color="#a5a7a8"/>
      <stop offset="0.516" stop-color="#b3b3b3"/>
    </linearGradient>
    <linearGradient id="e" x1="48.158" y1="25.176" x2="50.842" y2="29.823" gradientUnits="userSpaceOnUse">
      <stop offset="0" stop-color="#3387af"/>
      <stop offset="1" stop-color="#285a78"/>
    </linearGradient>
    <linearGradient id="f" x1="48.072" y1="22.999" x2="50.072" y2="22.999" gradientUnits="userSpaceOnUse">
      <stop offset="0" stop-color="#f0f0f0"/>
      <stop offset="1" stop-color="#b3b3b3"/>
    </linearGradient>
    <linearGradient id="g" x1="49.43" y1="19.008" x2="44.273" y2="30.908" gradientUnits="userSpaceOnUse">
      <stop offset="0" stop-color="#92d5ee"/>
      <stop offset="0.012" stop-color="#91d4ed"/>
      <stop offset="1" stop-color="#3c7e96"/>
    </linearGradient>
    <linearGradient id="h" x1="25.977" y1="41.646" x2="44.252" y2="41.646" gradientUnits="userSpaceOnUse">
      <stop offset="0.011" stop-color="#4d4d4d"/>
      <stop offset="1" stop-color="#c7c7c9"/>
    </linearGradient>
    <linearGradient id="i" x1="45.909" y1="31.803" x2="22.345" y2="46.362" xlink:href="#f"/>
    <linearGradient id="j" x1="40.311" y1="41.183" x2="43.196" y2="41.183" xlink:href="#f"/>
    <linearGradient id="k" x1="28.894" y1="33.973" x2="31.252" y2="33.973" xlink:href="#f"/>
    <linearGradient id="l" x1="29.802" y1="38.264" x2="41.33" y2="38.264" xlink:href="#h"/>
    <linearGradient id="m" x1="29.803" y1="35.524" x2="41.331" y2="35.524" xlink:href="#f"/>
    <linearGradient id="n" x1="33.922" y1="26.259" x2="39.882" y2="26.259" xlink:href="#f"/>
    <linearGradient id="o" x1="38.52" y1="30.56" x2="31.664" y2="30.56" gradientUnits="userSpaceOnUse">
      <stop offset="0" stop-color="#f0f0f0"/>
      <stop offset="0.119" stop-color="#e5e5e5"/>
      <stop offset="0.326" stop-color="#c9c9c9"/>
      <stop offset="0.594" stop-color="#9b9b9b"/>
      <stop offset="0.912" stop-color="#5d5d5d"/>
      <stop offset="1" stop-color="#4a4a4a"/>
    </linearGradient>
    <linearGradient id="p" x1="41.263" y1="26.403" x2="30.37" y2="34.287" xlink:href="#f"/>
    <linearGradient id="q" x1="32.819" y1="17.573" x2="28.084" y2="22.045" gradientUnits="userSpaceOnUse">
      <stop offset="0.177" stop-color="#f0f0f0"/>
      <stop offset="0.296" stop-color="#e9e9e9"/>
      <stop offset="0.469" stop-color="#d5d5d5"/>
      <stop offset="0.677" stop-color="#b5b5b5"/>
      <stop offset="0.91" stop-color="#888"/>
      <stop offset="1" stop-color="#757575"/>
    </linearGradient>
    <linearGradient id="r" x1="26.798" y1="9.119" x2="22.78" y2="12.71" gradientUnits="userSpaceOnUse">
      <stop offset="0.409" stop-color="#f0f0f0"/>
      <stop offset="0.615" stop-color="#d0d0d0"/>
      <stop offset="1" stop-color="#8c8c8c"/>
    </linearGradient>
    <linearGradient id="s" x1="20.994" y1="13.664" x2="28.288" y2="13.664" xlink:href="#f"/>
    <linearGradient id="t" x1="23.287" y1="13.767" x2="26.397" y2="13.767" xlink:href="#f"/>
    <linearGradient id="u" x1="14.815" y1="17.767" x2="19.435" y2="22.387" gradientUnits="userSpaceOnUse">
      <stop offset="0" stop-color="#f0f0f0"/>
      <stop offset="1" stop-color="#919191"/>
    </linearGradient>
    <linearGradient id="v" x1="7.585" y1="26.444" x2="16.27" y2="26.444" xlink:href="#u"/>
    <linearGradient id="w" x1="27.149" y1="13" x2="20.592" y2="18.087" xlink:href="#f"/>
    <linearGradient id="x" x1="7.239" y1="27.515" x2="14.683" y2="27.515" xlink:href="#f"/>
    <linearGradient id="y" x1="42.195" y1="31.602" x2="63.594" y2="64.832" gradientUnits="userSpaceOnUse">
      <stop offset="0" stop-color="#fff"/>
      <stop offset="1" stop-color="#bfbfbf"/>
    </linearGradient>
  </defs>
  <title>22161_DELWU1_AP_AppIcon_r21x</title>
  <g>
    <g>
      <polygon points="42.5 30.499 42.5 16.499 39.5 13.499 39.5 27.5 42.5 30.499" stroke="#787979" stroke-linejoin="round" fill="url(#a)"/>
      <polygon points="39.5 13.499 42.5 16.499 56.5 16.499 53.5 13.499 39.5 13.499" stroke="#787979" stroke-linejoin="round" fill="url(#b)"/>
      <rect x="42.5" y="16.499" width="14" height="14" stroke="#787979" stroke-linejoin="round" fill="url(#c)"/>
      <polygon points="53.5 13.499 39.5 13.499 39.5 27.5 42.5 30.499 56.5 30.499 56.5 16.499 53.5 13.499" fill="none" stroke="#323232" stroke-linejoin="round"/>
      <rect x="44.5" y="18.499" width="10" height="10" stroke="#6d6d6d" stroke-linecap="round" stroke-linejoin="round" fill="url(#d)"/>
      <polygon points="45 26.999 46.572 26.999 47.572 25.999 50.572 25.999 51.572 26.999 54 26.999 54 27.999 45 27.999 45 26.999" fill="url(#e)"/>
      <g>
        <rect x="48.072" y="21.499" width="2" height="3" rx="0.5" fill="url(#f)"/>
        <path d="M49.572,22v2h-1V22h1m0-1h-1a1,1,0,0,0-1,1v2a1,1,0,0,0,1,1h1a1,1,0,0,0,1-1V22a1,1,0,0,0-1-1Z" fill="#2d2d2d"/>
      </g>
      <polyline points="47.5 19 47.5 21 48.572 21.999 49.572 21.999 50.5 21 50.5 19" stroke="#00415f" stroke-linejoin="round" fill="url(#g)"/>
    </g>
    <g>
      <path d="M26.279,37.222c-.9,2.424,2.392,5.883,7.354,7.724s9.713,1.371,10.613-1.053a9.645,9.645,0,0,0,.34-1.529" stroke="#6d6d6d" stroke-linecap="round" stroke-linejoin="round" fill="url(#h)"/>
      <g>
        <path d="M39.949,44.112a17.49,17.49,0,0,1-5.981-1.164,16.43,16.43,0,0,1-6.107-3.8c-1.538-1.615-2.105-3.258-1.6-4.628.593-1.6,2.545-2.519,5.354-2.519A17.49,17.49,0,0,1,37.6,33.17c5.338,1.981,8.721,5.682,7.7,8.423-.594,1.6-2.545,2.519-5.354,2.519Z" fill="url(#i)"/>
        <path d="M31.618,32.506a17.044,17.044,0,0,1,5.807,1.133c5,1.855,8.316,5.339,7.409,7.78-.532,1.438-2.41,2.193-4.885,2.193a17.07,17.07,0,0,1-5.807-1.132c-5-1.856-8.315-5.34-7.409-7.781.533-1.437,2.411-2.193,4.885-2.193m0-1c-3.03,0-5.152,1.037-5.823,2.846-.578,1.557.027,3.385,1.7,5.147a16.954,16.954,0,0,0,6.295,3.918,18.006,18.006,0,0,0,6.155,1.2c3.03,0,5.153-1.037,5.823-2.845,1.115-3-2.4-6.986-8-9.066a18,18,0,0,0-6.155-1.2Z" fill="#6d6d6d"/>
      </g>
      <g>
        <path d="M41.959,41.838c-.088,0-.178-.005-.269-.014A2.3,2.3,0,0,1,40.6,41.45c-.188-.136-.3-.292-.285-.407.019-.212.469-.516,1.232-.516.089,0,.18,0,.271.014.868.083,1.406.525,1.38.781-.02.21-.472.516-1.236.516Z" fill="url(#j)"/>
        <path d="M41.545,41.028a2.088,2.088,0,0,1,.222.011,1.933,1.933,0,0,1,.751.217,1.782,1.782,0,0,1-.559.082c-.072,0-.146,0-.219-.011a1.926,1.926,0,0,1-.752-.218,1.8,1.8,0,0,1,.557-.081m0-1c-.929,0-1.678.4-1.731.966-.062.63.758,1.224,1.829,1.328a3.1,3.1,0,0,0,.316.016c.93,0,1.679-.4,1.735-.968.06-.629-.76-1.223-1.83-1.327-.108-.01-.215-.015-.319-.015Z" fill="#6d6d6d"/>
      </g>
      <g>
        <path d="M30.073,34.465c-.72,0-1.179-.324-1.179-.493s.459-.492,1.179-.492,1.179.323,1.179.492S30.793,34.465,30.073,34.465Z" fill="url(#k)"/>
        <path d="M30.073,32.981c-.927,0-1.679.444-1.679.991s.752.993,1.679.993,1.679-.444,1.679-.993-.753-.991-1.679-.991Z" fill="#6d6d6d"/>
      </g>
      <g>
        <path d="M35.415,41.11c-3.189-.072-5.655-1.6-5.613-3.485v-1.71a.5.5,0,0,1,.5-.5l10.538.235a.5.5,0,0,1,.487.544l-.151,1.72c-.038,1.81-2.418,3.2-5.534,3.2Z" fill="url(#l)"/>
        <path d="M30.3,35.915l10.528.236-.152,1.719c-.033,1.539-2.268,2.743-5.036,2.743l-.216,0c-2.865-.065-5.16-1.4-5.125-2.975V35.915m0-1a1,1,0,0,0-1,1v1.72c-.049,2.178,2.575,3.9,6.1,3.975.079,0,.159,0,.238,0,3.375,0,5.96-1.581,6.035-3.684l.149-1.691a1,1,0,0,0-.974-1.087l-10.528-.235Z" fill="#6d6d6d"/>
      </g>
      <g>
        <path d="M35.49,38.923a8.37,8.37,0,0,1-3.942-1A2.969,2.969,0,0,1,29.8,35.4c.042-1.866,2.455-3.272,5.612-3.272l.228,0a7.26,7.26,0,0,1,4.931,1.761,2.469,2.469,0,0,1,.756,1.767c-.042,1.866-2.454,3.273-5.609,3.273Z" fill="url(#m)"/>
        <path d="M35.416,32.623l.216,0c2.908.065,5.236,1.416,5.2,3.017-.036,1.562-2.3,2.784-5.11,2.784l-.219,0c-2.907-.065-5.235-1.416-5.2-3.017.035-1.56,2.3-2.783,5.113-2.783m0-1c-3.436,0-6.064,1.617-6.113,3.761A3.436,3.436,0,0,0,31.3,38.355a8.886,8.886,0,0,0,4.183,1.068l.241,0c3.435,0,6.061-1.617,6.109-3.762a2.96,2.96,0,0,0-.894-2.124,7.651,7.651,0,0,0-5.282-1.914c-.079,0-.159,0-.238,0Z" fill="#6d6d6d"/>
      </g>
      <g>
        <path d="M35.109,29.843a.5.5,0,0,1-.2-.043c-.1-.045-.984-.483-.984-2.059a6.165,6.165,0,0,1,2.931-4.789,2.308,2.308,0,0,1,1.085-.277c.9,0,1.944.607,1.944,2.319l-.083.539a.5.5,0,0,1-.392.408l-3.665.761-.134,2.666a.494.494,0,0,1-.237.4A.5.5,0,0,1,35.109,29.843Z" fill="url(#n)"/>
        <path d="M37.939,23.175c.72,0,1.443.471,1.443,1.819l-.076.457-4.044.84-.152,3.052s-.688-.306-.688-1.6a5.645,5.645,0,0,1,2.671-4.35,1.8,1.8,0,0,1,.846-.216m0-1a2.824,2.824,0,0,0-1.324.337,6.611,6.611,0,0,0-3.193,5.229A2.557,2.557,0,0,0,34.7,30.257a.991.991,0,0,0,.406.086,1,1,0,0,0,1-.95l.113-2.28,3.287-.683a1,1,0,0,0,.784-.814l.076-.457a1.019,1.019,0,0,0,.013-.165,2.5,2.5,0,0,0-2.443-2.819Z" fill="#6d6d6d"/>
      </g>
      <g>
        <path d="M35.567,37.322c-1.85,0-3.246-.773-3.246-1.8l.151-7.487a.5.5,0,0,1,.2-.388l2.213-1.678c.077-.056,1.718-1.248,2.644-1.788a2.3,2.3,0,0,1,1.1-.385.719.719,0,0,1,.67.365.488.488,0,0,1,.052.246l-.534,11.14C38.813,36.549,37.418,37.322,35.567,37.322Z" fill="url(#o)"/>
        <path d="M38.625,24.3c.18,0,.223.087.223.087l-.534,11.14c0,.717-1.23,1.3-2.746,1.3s-2.747-.581-2.747-1.3l.151-7.478,2.213-1.678s1.679-1.221,2.595-1.754a1.824,1.824,0,0,1,.845-.317m0-1a2.719,2.719,0,0,0-1.35.453c-.948.552-2.608,1.759-2.678,1.81l-2.229,1.689a1,1,0,0,0-.4.777L31.821,35.5c0,1.353,1.576,2.319,3.747,2.319s3.746-.966,3.746-2.3l.533-11.092a1,1,0,0,0-.1-.494,1.215,1.215,0,0,0-1.118-.641Z" fill="#6d6d6d"/>
      </g>
      <path d="M38.466,23.239l-2.213-.992s-4.044-.458-4.044,3.662c0,1.755.763,2.137.763,2.137l2.138,1.3V25.909S36.635,23.162,38.466,23.239Z" fill="#6d6d6d" stroke="#6d6d6d" stroke-linecap="round" stroke-linejoin="round"/>
      <g>
        <path d="M38.046,30.58a1.217,1.217,0,0,1-.621-.163c-.809-.476-.878-1.755-.163-2.977a2.663,2.663,0,0,1,2.053-1.475,1.214,1.214,0,0,1,.623.165c.808.474.877,1.752.162,2.974a2.665,2.665,0,0,1-2.054,1.476Z" fill="url(#p)"/>
        <path d="M39.316,26.466a.722.722,0,0,1,.37.1c.545.319.536,1.344-.018,2.29a2.206,2.206,0,0,1-1.622,1.228.726.726,0,0,1-.368-.095c-.546-.321-.538-1.346.016-2.291a2.2,2.2,0,0,1,1.622-1.228m0-1a3.11,3.11,0,0,0-2.485,1.722c-.86,1.467-.713,3.04.341,3.659a1.724,1.724,0,0,0,.874.233,3.115,3.115,0,0,0,2.485-1.722c.86-1.469.714-3.042-.34-3.659a1.72,1.72,0,0,0-.875-.233Z" fill="#6d6d6d"/>
      </g>
      <g>
        <path d="M33.357,27.343a.9.9,0,0,1-.3-.07.46.46,0,0,1-.134-.1l-9-9.157a.5.5,0,0,1-.062-.624l3.434-5.265a.5.5,0,0,1,.384-.226h.035a.5.5,0,0,1,.377.173l8.928,10.3c.181.226.581.721-1.375,2.946C34.654,26.653,33.879,27.343,33.357,27.343Z" fill="url(#q)"/>
        <path d="M27.707,12.4l8.928,10.3c.306.38-1.373,2.289-1.373,2.289s-1.37,1.849-1.9,1.849a.177.177,0,0,1-.08-.018l-9-9.157L27.707,12.4m0-1c-.022,0-.045,0-.068,0a1,1,0,0,0-.769.451l-3.434,5.265a1,1,0,0,0,.125,1.247l9,9.158a1,1,0,0,0,.266.193,1.166,1.166,0,0,0,.527.123c.309,0,1.03,0,2.683-2.22,1.827-2.086,1.871-2.926,1.373-3.545L28.463,11.749a1,1,0,0,0-.756-.345Z" fill="#6d6d6d"/>
      </g>
      <g>
        <path d="M22.977,18.092a.507.507,0,0,1-.2-.039l-2.388-1.012c-1.76-.678-2.439-3.222-1.5-5.665.763-1.981,2.4-3.365,3.981-3.365a2.611,2.611,0,0,1,.946.174l2.626,1.086a.491.491,0,0,1,.271.271.5.5,0,0,1,0,.383l-3.281,7.86a.5.5,0,0,1-.461.307Z" fill="url(#r)"/>
        <path d="M22.876,8.511a2.1,2.1,0,0,1,.766.141l2.615,1.081-3.28,7.859L20.589,16.58c-1.52-.585-2.07-2.835-1.227-5.024.707-1.835,2.165-3.045,3.514-3.045m0-1h0c-1.811,0-3.6,1.481-4.447,3.685a6.3,6.3,0,0,0-.311,3.711,3.592,3.592,0,0,0,2.112,2.607l2.357,1a.992.992,0,0,0,.39.079,1,1,0,0,0,.923-.615l3.28-7.859a1,1,0,0,0-.541-1.309L24.024,7.727a3.155,3.155,0,0,0-1.147-.216Z" fill="#6d6d6d"/>
      </g>
      <g>
        <path d="M23.883,18.268a2.622,2.622,0,0,1-.945-.173,3.062,3.062,0,0,1-1.806-2.259,5.784,5.784,0,0,1,.292-3.412c.762-1.981,2.4-3.365,3.982-3.365a2.642,2.642,0,0,1,.944.173c1.775.685,2.455,3.23,1.515,5.673-.762,1.98-2.4,3.363-3.982,3.363Z" fill="url(#s)"/>
        <path d="M25.406,9.559a2.131,2.131,0,0,1,.764.14c1.522.587,2.071,2.836,1.228,5.026-.7,1.834-2.166,3.043-3.516,3.043a2.11,2.11,0,0,1-.764-.14c-1.521-.586-2.072-2.836-1.228-5.024.706-1.835,2.166-3.045,3.516-3.045m0-1c-1.813,0-3.6,1.481-4.449,3.686a6.292,6.292,0,0,0-.311,3.709,3.591,3.591,0,0,0,2.112,2.607,3.1,3.1,0,0,0,1.124.207c1.814,0,3.6-1.48,4.449-3.684,1.057-2.745.266-5.52-1.8-6.318a3.125,3.125,0,0,0-1.124-.207Z" fill="#6d6d6d"/>
      </g>
      <g>
        <path d="M23.885,15.966a.9.9,0,0,1-.453-.517,3.143,3.143,0,0,1,.162-2.27c.494-1.183,1.339-1.8,1.919-1.8a.734.734,0,0,1,.279.054l.6.293-2.018,4.435Z" fill="url(#t)"/>
        <path d="M25.513,11.876a.227.227,0,0,1,.072.011l.155.074-1.62,3.561-.031-.012a.473.473,0,0,1-.2-.251,2.645,2.645,0,0,1,.161-1.887c.426-1.02,1.122-1.495,1.458-1.5m0-1a3.054,3.054,0,0,0-2.381,2.111c-.63,1.508-.374,3.052.573,3.446l.934.362,2.415-5.308-1.069-.518a1.215,1.215,0,0,0-.472-.093Z" fill="#6d6d6d"/>
      </g>
      <g>
        <path d="M14.134,27.314a.5.5,0,0,1-.324-.12l-3.129-2.671a.5.5,0,0,1-.073-.684L19,12.852c.47-.627.708-.68.894-.68a.582.582,0,0,1,.485.3,3.73,3.73,0,0,1,.179,1.271,9.542,9.542,0,0,0,.3,2.217,5.34,5.34,0,0,0,1.651,2.2.494.494,0,0,1,.207.363.5.5,0,0,1-.141.393l-8.088,8.242A.5.5,0,0,1,14.134,27.314Z" fill="url(#u)"/>
        <path d="M19.9,12.672a.041.041,0,0,1,.038.025,34.436,34.436,0,0,0,.458,3.433,5.847,5.847,0,0,0,1.831,2.442l-8.088,8.242-3.129-2.671L19.4,13.156s.362-.484.5-.484m0-1h0c-.451,0-.826.256-1.3.884l-8.387,10.98a1,1,0,0,0,.145,1.367l3.129,2.671a1,1,0,0,0,1.363-.06l8.088-8.241a1,1,0,0,0-.132-1.514,4.832,4.832,0,0,1-1.471-1.965,9.242,9.242,0,0,1-.275-2.08,3.871,3.871,0,0,0-.231-1.465,1.081,1.081,0,0,0-.932-.577Z" fill="#6d6d6d"/>
      </g>
      <g>
        <path d="M14.516,30.39a.5.5,0,0,1-.326-.121L7.758,24.727a.5.5,0,0,1-.039-.721l1.249-1.338a.586.586,0,0,1,.4-.169c.422,0,1.675.894,3.722,2.657,3.136,2.7,3.171,3.176,3.182,3.332a.578.578,0,0,1-.128.391L14.882,30.23A.5.5,0,0,1,14.516,30.39Z" fill="url(#v)"/>
        <path d="M9.365,23a17.2,17.2,0,0,1,3.4,2.535c1.776,1.531,3.12,2.881,3,3.017L14.516,29.89,8.084,24.348,9.333,23.01A.039.039,0,0,1,9.365,23m0-1a1.078,1.078,0,0,0-.794.364l-1.218,1.3a1,1,0,0,0,.079,1.44l6.431,5.542a1,1,0,0,0,1.385-.076L16.5,29.233a1.076,1.076,0,0,0,.273-.781c-.024-.333-.06-.836-3.354-3.675C10.187,22,9.652,22,9.365,22Z" fill="#6d6d6d"/>
      </g>
      <path d="M27.491,14.778c.63-1.509.373-3.051-.574-3.447s-2.222.509-2.852,2.018-.372,3.053.574,3.446S26.862,16.286,27.491,14.778Z" stroke="#6d6d6d" stroke-linecap="round" stroke-linejoin="round" fill="url(#w)"/>
      <g>
        <path d="M14.145,30.8c-.529,0-2.316-1.444-3.722-2.656-3.137-2.7-3.172-3.177-3.183-3.332a.57.57,0,0,1,.128-.391.578.578,0,0,1,.409-.184c.527,0,2.315,1.445,3.722,2.657,3.138,2.7,3.172,3.178,3.183,3.333a.571.571,0,0,1-.129.391A.579.579,0,0,1,14.145,30.8Z" fill="url(#x)"/>
        <path d="M7.777,24.733a17.153,17.153,0,0,1,3.4,2.536c1.776,1.53,3.121,2.882,3,3.016a.037.037,0,0,1-.031.011,17.135,17.135,0,0,1-3.4-2.535c-1.776-1.53-3.121-2.882-3-3.017a.04.04,0,0,1,.031-.011m0-1a1.031,1.031,0,0,0-1.036,1.11c.024.333.06.837,3.356,3.676C13.319,31.3,13.856,31.3,14.145,31.3a1.076,1.076,0,0,0,.791-.36,1.025,1.025,0,0,0,.245-.749c-.024-.333-.06-.835-3.356-3.676-3.225-2.778-3.76-2.778-4.048-2.778Z" fill="#6d6d6d"/>
      </g>
      <path d="M22.877,8.5a2.12,2.12,0,0,1,.765.141l2.615,1.081-.005.013a2.954,2.954,0,0,1,1.528,2.742l8.458,9.759h.015l2.213.991h-.014c-.034,0-.068.006-.1.007.56.16,1.032.663,1.032,1.75l-.076.457-.515.107-.05,1.072a1.275,1.275,0,0,1,.581-.163.708.708,0,0,1,.364.094c.545.319.536,1.345-.018,2.29a2.754,2.754,0,0,1-1.086,1.081l-.153,3.205a3.4,3.4,0,0,1,2.364,2.142c3.015,1.878,4.723,4.3,4.041,6.139l-.588,2.474c-.53,1.427-2.394,2.177-4.85,2.177a16.925,16.925,0,0,1-5.763-1.124c-4.962-1.841-8.256-5.3-7.354-7.724l.454-2.522c.532-1.437,2.41-2.193,4.884-2.193.406,0,.828.021,1.263.062l.092-4.523s-.763-.381-.763-2.136c0-.057.009-.105.011-.16l-7.892-8.026a2.338,2.338,0,0,1-.431.041,2.184,2.184,0,0,1-.723-.123l-9.013,9.145c1.023.953,1.686,1.669,1.6,1.764l-1.247,1.339-.34.4a.04.04,0,0,1-.031.01,17.089,17.089,0,0,1-3.4-2.535,28.058,28.058,0,0,1-3-3.016s.169-.323.338-.4L9.333,23a.043.043,0,0,1,.032-.011A6.826,6.826,0,0,1,11.031,24.1l7.95-10.408a5.659,5.659,0,0,1,.381-2.147C20.069,9.711,21.527,8.5,22.877,8.5m0-.8h0c-1.729,0-3.442,1.43-4.262,3.557a6.475,6.475,0,0,0-.434,2.163l-7.3,9.559c-1.073-.791-1.3-.791-1.515-.791a.877.877,0,0,0-.639.291L7.573,23.714a1.865,1.865,0,0,0-.536.648.8.8,0,0,0,.092.881,28.563,28.563,0,0,0,3.1,3.113c3.166,2.729,3.693,2.729,3.918,2.729a.881.881,0,0,0,.629-.278l.349-.407,1.226-1.314c.547-.624.114-1.222-1.044-2.332l8.12-8.237a2.965,2.965,0,0,0,.472.037l.133,0,7.381,7.506a3.482,3.482,0,0,0,.754,2.334L32.1,31.705q-.243-.009-.48-.009c-2.941,0-5,.99-5.634,2.715a.808.808,0,0,0-.038.136L25.5,37c-.5,1.459.089,3.174,1.675,4.839a16.614,16.614,0,0,0,6.177,3.842A17.679,17.679,0,0,0,39.4,46.859c2.922,0,4.963-.983,5.6-2.7a.912.912,0,0,0,.028-.093l.578-2.429c.752-2.128-.82-4.743-4.124-6.882a4.081,4.081,0,0,0-2.223-2.149l.107-2.229a3.8,3.8,0,0,0,1-1.132c.8-1.37.688-2.825-.268-3.385-.026-.015-.052-.03-.078-.043a.794.794,0,0,0,.083-.246l.076-.457a.717.717,0,0,0,.011-.131,2.44,2.44,0,0,0-1.151-2.326.83.83,0,0,0-.238-.16l-2.075-.93-8.157-9.412a3.685,3.685,0,0,0-1.836-3.082.752.752,0,0,0-.162-.091L23.948,7.9a2.943,2.943,0,0,0-1.071-.2Z" fill="#343434"/>
    </g>
    <g>
      <polygon points="43.5 49.499 57.5 56.596 57.5 39.499 43.5 32.499 43.5 49.499" stroke="#2d2d2d" stroke-linecap="round" stroke-linejoin="round" fill="url(#y)"/>
      <polygon points="48 39.999 48 47.999 53.851 44.216 48 39.999" fill="#2d2d2d"/>
    </g>
  </g>
</svg>
