<svg xmlns="http://www.w3.org/2000/svg" xmlns:xlink="http://www.w3.org/1999/xlink" width="64" height="64" viewBox="0 0 64 64">
  <defs>
    <linearGradient id="a" x1="37.3712" y1="23.282" x2="61.5419" y2="60.815" gradientUnits="userSpaceOnUse">
      <stop offset="0" stop-color="#fff"/>
      <stop offset="1" stop-color="#bfbfbf"/>
    </linearGradient>
    <linearGradient id="b" x1="42.9262" y1="219.179" x2="52.1901" y2="227.9973" gradientTransform="matrix(1, 0.404, 0, 1, 0, -208.8942)" gradientUnits="userSpaceOnUse">
      <stop offset="0" stop-color="#f0f0f0"/>
      <stop offset="1" stop-color="#b3b3b3"/>
    </linearGradient>
    <linearGradient id="c" x1="37.3784" y1="228.7059" x2="46.643" y2="237.525" xlink:href="#b"/>
    <linearGradient id="d" x1="43.1357" y1="226.5709" x2="52.3995" y2="235.3893" xlink:href="#b"/>
    <linearGradient id="e" x1="8.8233" y1="10.6505" x2="48.4683" y2="74.291" gradientUnits="userSpaceOnUse">
      <stop offset="0" stop-color="#fcfcfc"/>
      <stop offset="1" stop-color="#b3b3b3"/>
    </linearGradient>
    <linearGradient id="f" x1="12.893" y1="9.6835" x2="39.5676" y2="52.5032" gradientUnits="userSpaceOnUse">
      <stop offset="0" stop-color="#92d5ee"/>
      <stop offset="0.4825" stop-color="#599bb4"/>
      <stop offset="1" stop-color="#185971"/>
    </linearGradient>
    <linearGradient id="g" x1="12.354" y1="17.1814" x2="19.6462" y2="23.8518" gradientTransform="matrix(1, 0, 0, 1, 0, 0)" xlink:href="#b"/>
    <linearGradient id="h" x1="17.634" y1="24.1519" x2="31.4867" y2="39.3398" gradientTransform="matrix(1, 0, 0, 1, 0, 0)" xlink:href="#b"/>
    <linearGradient id="i" x1="17.4794" y1="20.1369" x2="26.4016" y2="28.1394" xlink:href="#f"/>
    <linearGradient id="j" x1="14.8584" y1="17.6137" x2="24.4853" y2="22.7853" xlink:href="#f"/>
    <linearGradient id="k" x1="18.815" y1="19.8068" x2="-1.9337" y2="31.8061" gradientTransform="matrix(1, 0, 0, 1, 0, 0)" xlink:href="#b"/>
    <linearGradient id="l" x1="15.4666" y1="19.3717" x2="24.1327" y2="28.3707" xlink:href="#f"/>
  </defs>
  <title>I_DELWKD_AP</title>
  <g>
    <g>
      <polygon points="38.527 44.5 54.527 51.597 54.527 30.5 38.527 24.5 38.527 44.5" stroke="#2d2d2d" stroke-linecap="round" stroke-linejoin="round" fill="url(#a)"/>
      <g opacity="0.9">
        <g>
          <polygon points="44.527 33.163 44.527 30.241 48.527 31.856 48.527 34.778 44.527 33.163" fill="url(#b)"/>
          <path d="M45.0273,30.9824l3,1.2117v1.843l-3-1.2117v-1.843m-1-1.4824v4l5,2.02v-4l-5-2.02Z" fill="#343434"/>
        </g>
        <g>
          <polygon points="40.527 42.547 40.527 39.625 44.527 41.241 44.527 44.163 40.527 42.547" fill="url(#c)"/>
          <path d="M41.0273,40.3665l3,1.2123v1.8428l-3-1.2123V40.3665m-1-1.4827v4l5,2.02v-4l-5-2.02Z" fill="#343434"/>
        </g>
        <g>
          <polygon points="48.527 45.779 48.527 42.857 52.527 44.473 52.527 47.395 48.527 45.779" fill="url(#d)"/>
          <path d="M49.0273,43.5986l3,1.2117v1.843l-3-1.2117v-1.843m-1-1.4824v4l5,2.02v-4l-5-2.02Z" fill="#343434"/>
        </g>
        <polygon points="50.027 40.924 47.027 39.712 47.027 37.712 49.027 38.52 49.027 37.52 48.027 37.116 48.027 36.116 47.027 35.712 47.027 33.712 46.027 33.308 46.027 35.308 45.027 34.904 45.027 35.904 44.027 35.5 44.027 36.5 46.027 37.308 46.027 39.308 43.027 38.096 42.027 37.691 42.027 39.691 43.027 40.096 43.027 39.096 50.027 41.924 50.027 42.924 51.027 43.328 51.027 41.328 50.027 40.924" fill="#343434" opacity="0.7"/>
      </g>
    </g>
    <g>
      <g>
        <path d="M33,51a.5.5,0,0,1-.1641-.0273l-23-8A.501.501,0,0,1,9.5,42.5v-29A.5.5,0,0,1,10,13a.4612.4612,0,0,1,.126.0166l23,6A.4984.4984,0,0,1,33.5,19.5v31a.5.5,0,0,1-.5.5Z" fill="url(#e)"/>
        <path d="M10,13.5l23,6v31l-23-8v-29m0-1a1,1,0,0,0-1,1v29a1,1,0,0,0,.6715.9445l23,8A1,1,0,0,0,34,50.5v-31a1,1,0,0,0-.7476-.9676l-23-6A1.001,1.001,0,0,0,10,12.5Z" fill="#2d2d2d"/>
      </g>
      <polygon points="10 13.5 33 19.5 33 34.5 10 27.5 10 13.5" fill="url(#f)"/>
      <line x1="10" y1="27.5" x2="33" y2="34.5" fill="none" stroke="#2b6c86" stroke-linecap="round" stroke-linejoin="round"/>
      <g>
        <line x1="14.6523" y1="18.0723" x2="11.0107" y2="17.1641" fill="url(#g)"/>
        <line x1="18.5313" y1="27.127" x2="18.5332" y2="23.1465" fill="url(#h)"/>
        <line x1="18.5332" y1="23.1465" x2="18.5352" y2="19.0195" fill="url(#i)"/>
        <line x1="18.5352" y1="19.0195" x2="14.6523" y2="18.0723" fill="url(#j)"/>
        <polygon points="14.652 18.072 14.72 22.135 18.533 23.147 18.531 27.127 11 25.127 11.011 17.164 14.652 18.072" fill="url(#k)"/>
        <polygon points="18.535 19.02 18.533 23.147 14.72 22.135 14.652 18.072 18.535 19.02" stroke="#00415f" stroke-linecap="round" stroke-linejoin="round" fill="url(#l)"/>
        <line x1="11" y1="17.127" x2="15" y2="18.127" fill="none" stroke="#6d6d6d" stroke-linecap="round" stroke-linejoin="round"/>
        <rect x="18" y="23.127" width="1" height="4" fill="#6d6d6d"/>
        <path d="M11.8,17.5246l6.4,1.6v7.3508l-6.4-1.6V17.5246M11,16.5v9l8,2v-9l-8-2Z" fill="#4f4f4f"/>
      </g>
      <line x1="12" y1="32.5" x2="29" y2="37.5" fill="none" stroke="#818182" stroke-miterlimit="10"/>
      <line x1="12" y1="35.5" x2="29" y2="41" fill="none" stroke="#818182" stroke-miterlimit="10"/>
      <line x1="12" y1="38.5" x2="23" y2="42.5" fill="none" stroke="#818182" stroke-miterlimit="10"/>
    </g>
  </g>
</svg>
