<svg id="version_1X_copy" data-name="version 1X copy" xmlns="http://www.w3.org/2000/svg" xmlns:xlink="http://www.w3.org/1999/xlink" viewBox="0 0 64 64"><defs><style>.cls-1,.cls-16{fill:none;}.cls-2{fill:#abdbf5;}.cls-3{fill:url(#Light_BLUE_gradient_TOP);}.cls-4{fill:url(#white_front_right);}.cls-5{fill:url(#linear-gradient);}.cls-6{fill:url(#linear-gradient-2);}.cls-7{fill:url(#linear-gradient-3);}.cls-8{fill:url(#linear-gradient-5);}.cls-9{fill:#fff;}.cls-10{fill:url(#top_white);}.cls-11{fill:url(#linear-gradient-6);}.cls-12{fill:url(#linear-gradient-7);}.cls-13{fill:url(#white_front_right-2);}.cls-14{fill:url(#linear-gradient-8);}.cls-15{opacity:0.2;}.cls-16{stroke:#003755;stroke-linecap:round;}.cls-16,.cls-18,.cls-26,.cls-28{stroke-miterlimit:10;}.cls-16,.cls-26,.cls-28{stroke-width:0.25px;}.cls-17{isolation:isolate;}.cls-18,.cls-19{fill:#587282;}.cls-18,.cls-26,.cls-28{stroke:#000;}.cls-18{stroke-width:0.75px;}.cls-20{fill:#86adc5;}.cls-21{fill:url(#New_Gradient_Swatch_1);}.cls-22{fill:#797979;}.cls-23{fill:url(#white_left);}.cls-24{fill:#f1f0f0;}.cls-25{fill:#e1e1e1;}.cls-26{fill:#323232;}.cls-27{fill:url(#Dark_BLUE_gradient_LEFT);}.cls-28{fill:#aadcfa;}.cls-29{clip-path:url(#clip-path);}.cls-30{fill:url(#linear-gradient-9);}.cls-31{fill:#ff0;}</style><linearGradient id="Light_BLUE_gradient_TOP" x1="7.77" y1="39.24" x2="56.63" y2="39.24" gradientUnits="userSpaceOnUse"><stop offset="0" stop-color="#a2ddf7"/><stop offset="0.99" stop-color="#73c3e1"/></linearGradient><linearGradient id="white_front_right" x1="51.63" y1="30.32" x2="56.63" y2="30.32" gradientUnits="userSpaceOnUse"><stop offset="0" stop-color="#fff"/><stop offset="1" stop-color="#d2d2d2"/></linearGradient><linearGradient id="linear-gradient" x1="46.15" y1="30.2" x2="51.63" y2="30.2" gradientUnits="userSpaceOnUse"><stop offset="0" stop-color="#aaa"/><stop offset="1" stop-color="#5a5a5a"/></linearGradient><linearGradient id="linear-gradient-2" x1="39.3" y1="29.93" x2="46.15" y2="29.93" gradientUnits="userSpaceOnUse"><stop offset="0" stop-color="#464646"/><stop offset="1" stop-color="#141414"/></linearGradient><linearGradient id="linear-gradient-3" x1="22.32" y1="36.65" x2="43.61" y2="31.73" gradientUnits="userSpaceOnUse"><stop offset="0.38" stop-color="#275a78"/><stop offset="0.57" stop-color="#295c79"/><stop offset="0.66" stop-color="#30617f"/><stop offset="0.7" stop-color="#386784"/><stop offset="0.73" stop-color="#3e6e8b"/><stop offset="0.78" stop-color="#4e809e"/><stop offset="0.83" stop-color="#689ebd"/><stop offset="0.87" stop-color="#82bddc"/><stop offset="0.91" stop-color="#82bddc"/><stop offset="0.93" stop-color="#7eb9d8"/><stop offset="0.95" stop-color="#72abca"/><stop offset="0.97" stop-color="#5e96b4"/><stop offset="0.99" stop-color="#427796"/><stop offset="1" stop-color="#275a78"/></linearGradient><linearGradient id="linear-gradient-5" x1="22.32" y1="36.65" x2="43.61" y2="31.73" gradientUnits="userSpaceOnUse"><stop offset="0.38" stop-color="#275a78"/><stop offset="0.48" stop-color="#3b708e"/><stop offset="0.67" stop-color="#6fa8c6"/><stop offset="0.73" stop-color="#82bddb"/><stop offset="0.78" stop-color="#89c2e0"/><stop offset="0.84" stop-color="#9cd1ef"/><stop offset="0.87" stop-color="#aadcfa"/><stop offset="0.89" stop-color="#a6d9f7"/><stop offset="0.9" stop-color="#98ceed"/><stop offset="0.91" stop-color="#82bddc"/><stop offset="0.93" stop-color="#7eb9d8"/><stop offset="0.95" stop-color="#72abca"/><stop offset="0.97" stop-color="#5e96b4"/><stop offset="0.99" stop-color="#427796"/><stop offset="1" stop-color="#275a78"/></linearGradient><linearGradient id="top_white" x1="6.65" y1="25.73" x2="56.64" y2="25.73" gradientUnits="userSpaceOnUse"><stop offset="0" stop-color="#fff"/><stop offset="1" stop-color="#f0f0f0"/></linearGradient><linearGradient id="linear-gradient-6" x1="18.85" y1="34.45" x2="26.02" y2="34.45" xlink:href="#linear-gradient-2"/><linearGradient id="linear-gradient-7" x1="8.86" y1="26.38" x2="20.5" y2="46.54" xlink:href="#linear-gradient"/><linearGradient id="white_front_right-2" x1="22.64" y1="37.87" x2="27.63" y2="37.87" xlink:href="#white_front_right"/><linearGradient id="linear-gradient-8" x1="26.44" y1="16.23" x2="36.84" y2="34.23" xlink:href="#top_white"/><linearGradient id="New_Gradient_Swatch_1" x1="38.82" y1="47.1" x2="50.91" y2="47.1" gradientUnits="userSpaceOnUse"><stop offset="0" stop-color="#464646"/><stop offset="0.99" stop-color="#141414"/></linearGradient><linearGradient id="white_left" x1="42.83" y1="45.38" x2="46.9" y2="45.38" gradientUnits="userSpaceOnUse"><stop offset="0" stop-color="#f5f5f5"/><stop offset="1" stop-color="#bebebe"/></linearGradient><linearGradient id="Dark_BLUE_gradient_LEFT" x1="28.99" y1="14.51" x2="45.44" y2="14.51" gradientUnits="userSpaceOnUse"><stop offset="0" stop-color="#82bedc"/><stop offset="1" stop-color="#285a78"/></linearGradient><clipPath id="clip-path"><polygon class="cls-1" points="46.67 43.3 33.05 43.3 33.11 20.12 46.73 20.12 46.67 43.3"/></clipPath><linearGradient id="linear-gradient-9" x1="34.34" y1="19.14" x2="48.04" y2="42.86" gradientUnits="userSpaceOnUse"><stop offset="0" stop-color="#fbe86a"/><stop offset="1" stop-color="#f1cf2f"/></linearGradient></defs><title>3368__A33AAe__R21XArtboard 1</title><g id="modeleR_2_copy_5" data-name="modeleR 2 copy 5"><g id="OUI_" data-name="OUI ****"><g id="TOP_base_" data-name="TOP base  ***"><path class="cls-2" d="M22.64,45.3,7.77,41.61l36.66-8.44L56.63,36l-5,1.79-5.48-1.42-4.27.86c6.07,1.46,3,3.36-.54,4-1.19.23-3.63.53-5.36.68a45.19,45.19,0,0,1-12.62-.79l-4.51,1,8.59,2.14Z"/><path class="cls-3" d="M44.43,33.33l11.65,2.74-4.46,1.6-5.43-1.41h-.07l-4.27.86-.69.14.69.16c2.91.7,3.33,1.41,3.32,1.77,0,.71-1.64,1.52-3.86,1.93-1.14.22-3.54.52-5.34.68-1,.08-2.12.13-3.32.13A40.54,40.54,0,0,1,23.41,41h-.08l-4.51,1-.66.14.66.17,7.93,2-4.11.88L8.44,41.62l36-8.29m0-.16L7.77,41.61,22.64,45.3l4.8-1-8.59-2.14,4.51-1a40.83,40.83,0,0,0,9.29.92c1.16,0,2.3,0,3.33-.13,1.73-.15,4.17-.45,5.36-.68,3.52-.64,6.61-2.54.54-4l4.27-.86,5.48,1.42,5-1.79-12.2-2.87Z"/></g><g id="contour_modele_" data-name="contour modele ***"><path d="M44.63,20l12,2.83V36l-5,1.79-5.48-1.42-1.46.31s.6,2.05.63,2.4-.25.76-.9,1.14a9.86,9.86,0,0,1-3.08,1A46.14,46.14,0,0,1,36,42c-1.08.08-2.28.12-3.5.12S30.11,42,29,42c-.52,0-.84-.07-1.33-.12v2.44l-5,1-16-4V27.66l38-7.69m0-.51-.11,0-38,7.69-.4.08V41.7l.38.09,16,4,.11,0,.11,0,5-1,.4-.08V42.39l.8.06c1.13.08,2.33.12,3.55.12s2.44,0,3.54-.12a47.5,47.5,0,0,0,5.43-.69,9.93,9.93,0,0,0,3.22-1.07c1-.58,1.17-1.19,1.14-1.6a15.38,15.38,0,0,0-.49-2l.82-.18,5.37,1.39.15,0,.14-.05,5-1.79.33-.12v-14l-.38-.09-12-2.83-.11,0Z"/></g><g id="COT2_OK_" data-name="COT2   OK ***"><g id="D1"><polygon class="cls-4" points="51.63 37.83 51.63 23.97 56.63 22.8 56.63 36.04 51.63 37.83"/></g><g id="D2"><polygon class="cls-5" points="46.15 36.41 46.15 22.58 51.63 23.97 51.63 37.83 46.15 36.41"/></g><polygon id="D3" class="cls-6" points="41.88 37.28 39.3 23.99 46.15 22.58 46.15 36.41 41.88 37.28"/></g><path id="ronde_" data-name="ronde **" class="cls-7" d="M41.81,25.31c.16.94-2.55,1.48-2.86,1.55a26.08,26.08,0,0,1-3.37.44A34.85,34.85,0,0,1,26,26.78L23.37,41.17A45.28,45.28,0,0,0,36,42a48.55,48.55,0,0,0,5.36-.68c2.92-.64,4.3-1.47,3.92-2.33Z"/><path id="ronde_2" data-name="ronde **" class="cls-7" d="M41.81,25.31c.16.94-2.55,1.48-2.86,1.55a26.08,26.08,0,0,1-3.37.44A34.85,34.85,0,0,1,26,26.78L23.37,41.17A45.28,45.28,0,0,0,36,42a48.55,48.55,0,0,0,5.36-.68c2.92-.64,4.3-1.47,3.92-2.33Z"/><path id="ronde_3" data-name="ronde **" class="cls-8" d="M41.81,25.31c.16.94-2.55,1.48-2.86,1.55a26.08,26.08,0,0,1-3.37.44A34.85,34.85,0,0,1,26,26.78L23.37,41.17A45.28,45.28,0,0,0,36,42a48.55,48.55,0,0,0,5.36-.68c2.92-.64,4.3-1.47,3.92-2.33Z"/><g id="TOP_contour_blanc" data-name="TOP  contour blanc"><path class="cls-9" d="M22.64,31.48l-16-3.82,38-7.69,12,2.83-5,1.17-5.48-1.39L39.3,24c3.49.82,3.33,2.1-.35,2.87a26.08,26.08,0,0,1-3.37.44A34.85,34.85,0,0,1,26,26.78l-7.16,1.5,8.81,2.15Z"/><path class="cls-10" d="M44.63,20.23,55.55,22.8l-3.91.92-5.43-1.38H46.1l-6.85,1.4a.28.28,0,0,0-.2.25.25.25,0,0,0,.2.24c1.72.4,2.32.88,2.32,1.16s-.71.81-2.67,1.22a25.92,25.92,0,0,1-3.34.44c-.93.07-1.9.11-2.88.11a31.06,31.06,0,0,1-6.61-.62H26L18.81,28a.25.25,0,0,0,0,.49l7.74,1.88-3.89.82L7.81,27.68l36.82-7.45m0-.26-38,7.69,16,3.82,5-1.05-8.81-2.15L26,26.78a31.26,31.26,0,0,0,6.66.63c1,0,2,0,2.9-.11A26.08,26.08,0,0,0,39,26.86c3.68-.77,3.84-2.05.35-2.87l6.85-1.41L51.63,24l5-1.17L44.63,20Z"/></g></g><g id="OK_copy" data-name="OK **** copy"><polygon id="G3" class="cls-11" points="18.85 42.13 18.86 28.28 26.02 26.78 23.38 41.17 18.85 42.13"/><g id="G2"><polygon class="cls-12" points="6.63 41.29 6.65 27.66 22.64 31.48 22.64 45.3 6.63 41.29"/></g><g id="g1"><polygon class="cls-13" points="22.64 45.3 22.64 31.48 27.63 30.43 27.63 44.27 22.64 45.3"/></g><path id="TOP_" data-name="TOP **" class="cls-14" d="M22.64,31.48l-16-3.82,38-7.69,12,2.83-5,1.17-5.48-1.39L39.3,24c3.49.82,3.33,2.1-.35,2.87a26.08,26.08,0,0,1-3.37.44A34.85,34.85,0,0,1,26,26.78l-7.16,1.5,8.77,2.15Z"/></g><g id="OMBRAGE_copy" data-name="OMBRAGE copy"><polygon class="cls-15" points="49.88 37.38 46.13 36.4 46.13 22.81 49.88 37.38"/><path class="cls-15" d="M34.24,42.05a55.91,55.91,0,0,1-6.6-.17V30.43l-8.79-2.15L26,26.78a30.67,30.67,0,0,0,3.94.54S34.32,34.59,34.24,42.05Z"/></g><line id="PENTE" class="cls-16" x1="41.95" y1="25.39" x2="45.42" y2="39.05"/></g><g id="laserR_copy" data-name="laserR copy"><g id="plus_grand_copy" data-name="plus grand copy"><g class="cls-17"><path id="CONTOUR_" data-name="CONTOUR  ***" class="cls-18" d="M53.09,50.41V48s.11-1-2.73-1.66a5.39,5.39,0,0,0-3.46-1.55v-.39s-.22-.51-2-.52-2.06.51-2.06.52v.38c-2.75.35-3.45,1.54-3.46,1.54-.67.16-2.76.75-2.76,1.74V50.4c0,.85,1.71,1.64,4.62,2a26,26,0,0,0,6.22.14C53.15,52,53.09,50.5,53.09,50.41ZM46.9,44.77v-.39s-.22-.51-2-.52-2.06.51-2.06.52c0,.18-.07.32,0,.38"/><path class="cls-19" d="M43.89,52.67a25.55,25.55,0,0,1-2.66-.22c-2.91-.4-4.61-1.21-4.61-2.05V48c0,.84,1.69,1.65,4.6,2a23.26,23.26,0,0,0,2.67.22c.28,0,.42,0,.71,0h1.07a23.5,23.5,0,0,0,2.81-.22c2.92-.39,4.61-1.2,4.61-2v2.39c0,.85-1.7,1.66-4.61,2-.91.12-1.86.19-2.82.22-.35,0-.71,0-1.07,0Z"/><path class="cls-20" d="M52.25,47c2,1.14.31,2.5-3.77,3s-9,.08-11-1.06-.31-2.5,3.77-3S50.25,45.88,52.25,47Z"/><path id="CLOCHE" class="cls-21" d="M42.87,44.76c1.53-.21,4.63-.28,6.53.76a1.67,1.67,0,0,0-1.07-.2,10.3,10.3,0,0,0-5.16-.5c-1.92.26-2.71.9-1.77,1.43a10.07,10.07,0,0,0,5.16.5c1.92-.25,2.71-.9,1.77-1.43a1.67,1.67,0,0,1,1.07.2,3.27,3.27,0,0,1,1.08,1,2.58,2.58,0,0,1,.43,1.41c0,.62-1.25,1.21-3.39,1.5-3,.4-6.61.05-8.08-.78-.42-.24-.62-.49-.62-.74a2.37,2.37,0,0,1,.3-1.19,2.81,2.81,0,0,1,.74-.88A5.64,5.64,0,0,1,42.87,44.76Z"/><ellipse id="DESSUS_" data-name="DESSUS ***" class="cls-22" cx="44.87" cy="45.79" rx="1.07" ry="3.86" transform="translate(-1.01 90.57) rotate(-89.89)"/><path id="TETON_C" data-name="TETON C" class="cls-23" d="M42.83,45.77V44.41c0,.09.06.17.2.25a5.45,5.45,0,0,0,2.72.27c.72-.1,1.14-.3,1.14-.51v1.36c0,.21-.42.41-1.14.51A5.43,5.43,0,0,1,43,46C42.9,45.94,42.83,45.86,42.83,45.77Z"/><ellipse id="TETON_T" data-name="TETON T" class="cls-24" cx="44.87" cy="44.42" rx="0.56" ry="2.03" transform="translate(0.37 89.2) rotate(-89.89)"/></g><g id="TOP_OK_" data-name="TOP   OK   ***" class="cls-17"><path id="CONTOUR_2" data-name="CONTOUR  ***" class="cls-18" d="M39.84,10a26.79,26.79,0,0,0-6.24.11c-2.91.4-4.6,1.2-4.6,2s0,1.65,0,2.37c0,1,2,1.55,2.71,1.72,0,0,.83,1.25,3.47,1.57v.83s.25.52,2.08.52,2-.51,2-.52v-.83a5.26,5.26,0,0,0,3.46-1.53c2.92-.76,2.74-1.7,2.74-1.71s0-2,0-2.39C45.44,12.1,45.53,10.57,39.84,10Z"/><path class="cls-25" d="M35.18,18.62V17.26c0,.08.06.16.2.24a5.31,5.31,0,0,0,2.71.26c.71-.09,1.13-.29,1.13-.5v1.36c0,.21-.42.41-1.13.5a5.28,5.28,0,0,1-2.71-.26Q35.18,18.74,35.18,18.62Z"/><path class="cls-26" d="M32.67,17.06a2.64,2.64,0,0,1-1.5-2.37c0,.24.2.5.62.74,1.47.83,5.09,1.18,8.08.78,2.14-.29,3.39-.88,3.39-1.5a2.66,2.66,0,0,1-.85,1.9,5.06,5.06,0,0,1-2.33,1.07C37.86,18.17,34.36,18,32.67,17.06Z"/><path id="B_" data-name="B ***" class="cls-27" d="M29,14.56V12.17c0,.34.27.68.84,1,2,1.14,6.92,1.62,11,1.07,2.91-.39,4.6-1.2,4.6-2v2.39c0,.84-1.69,1.65-4.6,2-4.07.55-9,.08-11-1.06C29.26,15.25,29,14.9,29,14.56Z"/><ellipse id="DESSUS_2" data-name="DESSUS **" class="cls-28" cx="37.22" cy="12.18" rx="2.28" ry="8.22" transform="translate(24.97 49.38) rotate(-89.89)"/></g></g><g class="cls-29"><g id="_22" data-name="22"><polygon points="35.31 18 38.31 18 46 44 43 44 35.31 18"/></g><g id="_33" data-name="33"><polygon class="cls-30" points="36.31 18 38.31 18 46.07 44 44.07 44 36.31 18"/></g><g id="_33-2" data-name="33"><polygon class="cls-31" points="36.31 18 38.31 18 46.07 44 44.07 44 36.31 18"/></g></g></g></svg>