<svg id="Layer_27_copy" data-name="Layer 27 copy" xmlns="http://www.w3.org/2000/svg" xmlns:xlink="http://www.w3.org/1999/xlink" viewBox="0 0 64 64"><defs><style>.cls-1{fill:none;}.cls-2{isolation:isolate;}.cls-3{clip-path:url(#clip-path);}.cls-4{fill:#767676;}.cls-5{clip-path:url(#clip-path-2);}.cls-6{fill:#acacac;}.cls-7{fill:#a7a7a7;}.cls-8{fill:#a3a3a3;}.cls-9{fill:#9e9e9e;}.cls-10{fill:#9a9a9a;}.cls-11{fill:#959595;}.cls-12{fill:#919191;}.cls-13{fill:#b0b0b0;}.cls-14{fill:#b5b5b5;}.cls-15{fill:#b9b9b9;}.cls-16{fill:#bebebe;}.cls-17{fill:#c2c2c2;}.cls-18{fill:#c7c7c7;}.cls-19{fill:#cbcbcb;}.cls-20{fill:#d0d0d0;}.cls-21{fill:#d4d4d4;}.cls-22{fill:#d9d9d9;}.cls-23{fill:#ddd;}.cls-24{fill:#e2e2e2;}.cls-25{fill:#e6e6e6;}.cls-26{fill:#e7e7e7;}.cls-27{fill:#e8e8e8;}.cls-28{fill:#e9e9e9;}.cls-29{fill:#eaeaea;}.cls-30{fill:#ebebeb;}.cls-31{fill:#ececec;}.cls-32{clip-path:url(#clip-path-3);}.cls-33{clip-path:url(#clip-path-4);}.cls-34{fill:#888;}.cls-35{fill:#8c8c8c;}.cls-36{fill:#a1a1a1;}.cls-37{fill:#dedede;}.cls-38{clip-path:url(#clip-path-5);}.cls-39{fill:#c3c3c3;}.cls-40{fill:#a5a5a5;}.cls-41{clip-path:url(#clip-path-6);}.cls-42{fill:#838383;}.cls-43{fill:#7f7f7f;}.cls-44{fill:#7a7a7a;}.cls-45{clip-path:url(#clip-path-7);}.cls-46{fill:#ededed;}.cls-47{fill:#eee;}.cls-48{fill:#efefef;}.cls-49{fill:#f0f0f0;}.cls-50{fill:#f1f1f1;}.cls-51{fill:#8d8d8d;}.cls-52{fill:#ccc;}.cls-53{fill:#737373;}.cls-54{fill:#b7b7b7;}.cls-55{clip-path:url(#clip-path-8);}.cls-56{clip-path:url(#clip-path-9);}.cls-57{fill:#f2f2f2;}.cls-58{fill:#717171;}.cls-59{fill:#a4a4a4;}.cls-60{clip-path:url(#clip-path-10);}.cls-61{clip-path:url(#clip-path-11);}.cls-62{fill:url(#linear-gradient);}.cls-63,.cls-69{fill:#285977;}.cls-63{stroke:#323232;stroke-width:0.71px;}.cls-64{fill:#f1f0f0;stroke-width:0.05px;}.cls-64,.cls-65,.cls-66,.cls-67{stroke:#787878;stroke-linecap:round;stroke-linejoin:round;}.cls-65{fill:#fff;stroke-width:0.05px;}.cls-66,.cls-67{stroke-width:0.24px;}.cls-66{fill:url(#linear-gradient-2);}.cls-67{fill:url(#linear-gradient-3);}.cls-68{fill:#5a9ab8;}</style><clipPath id="clip-path"><path class="cls-1" d="M121.05,30.9l-.16-4.72c.22,6.26,5.11,10.4,5.52,10.74l.17,4.72C126.17,41.3,121.28,37.17,121.05,30.9Z"/></clipPath><clipPath id="clip-path-2"><path class="cls-1" d="M156.63.79l-.18,0c-.15-.52-17,3.57-26.22,12-13,11.93-2.1,21.13.18,23.06l-4,1c-.65-.55-13-11,1.52-24.34,9.82-9,28.2-13.94,30.65-12.25s-4.58,8.18-5,8.52l-2.38-2.41c.33-.3,5.3-5.63,5.22-5.61Z"/></clipPath><clipPath id="clip-path-3"><path class="cls-1" d="M156.45.84h0l.16,0Z"/></clipPath><clipPath id="clip-path-4"><path class="cls-1" d="M159.1,1.3,159.27,6c.08,2.43-5.16,7.26-5.48,7.55l-.16-4.72C153.94,8.55,159.19,3.73,159.1,1.3Z"/></clipPath><clipPath id="clip-path-5"><path class="cls-1" d="M180.38,26.23l-2.11-.4c.44-.29,8.83-5.85,11.58-4l-2.13.51C187.81,21.91,180.62,26.07,180.38,26.23Z"/></clipPath><clipPath id="clip-path-6"><path class="cls-1" d="M190.49,23.41l.17,4.72c.15,4.17-5.85,14.82-16,21.25C157,60.57,142,52.14,141.16,51.69L141,47c.79.44,15.83,8.88,33.49-2.31C184.64,38.23,190.64,27.58,190.49,23.41Z"/></clipPath><clipPath id="clip-path-7"><path class="cls-1" d="M187.72,22.38l2.13-.51c2.75,1.9-3.45,15.24-15.37,22.79C156.82,55.85,141.78,47.41,141,47l-.29-4c2.76,1.56,16,9,31.8-1C183.66,34.88,188.73,22.66,187.72,22.38Z"/></clipPath><clipPath id="clip-path-8"><path class="cls-1" d="M.17,123.58,0,118.86a2,2,0,0,0,.7,1.64c2.92,2,11.08-3.71,11.51-4l.16,4.72c-.42.3-8.58,6-11.5,4A2,2,0,0,1,.17,123.58Z"/></clipPath><clipPath id="clip-path-9"><path class="cls-1" d="M10,113.92l2.18,2.57c-.43.3-8.59,6-11.51,4s3.46-15.24,15.38-22.78C33.74,86.53,48.79,95,49.58,95.4l.21,1.84c-2.76-1.55-16-9-31.81,1C6.81,105.34,1.6,117.42,2.76,117.82,2.81,118.42,9.72,114.13,10,113.92Z"/></clipPath><clipPath id="clip-path-10"><path class="cls-1" d="M60.08,104.33l4.08,1.12c.65.55,13,11-1.52,24.34C52.81,138.79,35,144.09,32,142s4.4-8.3,4.79-8.63l2.22.31c-.35.3-5.84,5.58-5,5.64.68.86,17-3.54,26.23-12C73.27,115.46,62.36,106.25,60.08,104.33Z"/></clipPath><clipPath id="clip-path-11"><path class="cls-1" d="M69.68,116.19l.16,4.72c.14,3.86-1.49,8.52-7,13.6-9.82,9-27.67,14.31-30.65,12.25a1.53,1.53,0,0,1-.71-1.26l-.17-4.73A1.55,1.55,0,0,0,32,142c3,2.05,20.83-3.25,30.66-12.25C68.18,124.71,69.81,120.05,69.68,116.19Z"/></clipPath><linearGradient id="linear-gradient" x1="19.69" y1="12.15" x2="45.43" y2="56.73" gradientUnits="userSpaceOnUse"><stop offset="0" stop-color="#464646"/><stop offset="0.99" stop-color="#141414"/></linearGradient><linearGradient id="linear-gradient-2" x1="15.84" y1="23.09" x2="38.44" y2="18.28" gradientTransform="translate(8.07 -8.34) rotate(21.96)" gradientUnits="userSpaceOnUse"><stop offset="0.05" stop-color="#fff"/><stop offset="0.07" stop-color="#fff"/><stop offset="0.09" stop-color="#fefefe"/><stop offset="0.15" stop-color="#f6fbfe"/><stop offset="0.23" stop-color="#e0f2fd"/><stop offset="0.32" stop-color="#bde4fb"/><stop offset="0.37" stop-color="#aadcfa"/><stop offset="0.41" stop-color="#bbe3fb"/><stop offset="0.49" stop-color="#d8effd"/><stop offset="0.58" stop-color="#eef8fe"/><stop offset="0.66" stop-color="#fbfdff"/><stop offset="0.73" stop-color="#fff"/><stop offset="0.96" stop-color="#aadcfa"/></linearGradient><linearGradient id="linear-gradient-3" x1="48.42" y1="18.23" x2="71.32" y2="19.08" gradientTransform="matrix(1, 0.09, 0.09, -1, -14.35, 42.45)" gradientUnits="userSpaceOnUse"><stop offset="0" stop-color="#fff"/><stop offset="0.21" stop-color="#aadcfa"/><stop offset="0.53" stop-color="#fff"/></linearGradient><symbol id="Nouveau_symbole_1" data-name="Nouveau symbole 1" viewBox="0 0 190.66 147.2"><g class="cls-2"><g class="cls-2"><g class="cls-3"><g class="cls-2"><path class="cls-4" d="M126.41,36.92l.17,4.72c-.41-.34-5.3-4.47-5.53-10.74l-.16-4.72c.22,6.26,5.11,10.4,5.52,10.74"/></g></g></g><g class="cls-2"><g class="cls-5"><g class="cls-2"><path class="cls-6" d="M130.41,35.88l-4,1c-.1-.08-.43-.36-.9-.83L129,34.61c.59.56,1.09,1,1.42,1.27"/><path class="cls-7" d="M129,34.61l-3.48,1.48a18.6,18.6,0,0,1-1.92-2.3l3.2-1.64a20.66,20.66,0,0,0,2.2,2.46"/><path class="cls-8" d="M126.79,32.15l-3.2,1.64a15.88,15.88,0,0,1-1.41-2.42l3.13-1.56a17,17,0,0,0,1.48,2.34"/><path class="cls-9" d="M125.31,29.81l-3.13,1.56a13.72,13.72,0,0,1-.93-2.62l3.11-1.38a13.74,13.74,0,0,0,1,2.44"/><path class="cls-10" d="M124.36,27.37l-3.11,1.38a12.43,12.43,0,0,1-.37-3L124,24.64a11,11,0,0,0,.4,2.73"/><path class="cls-11" d="M124,24.64l-3.08,1.12a13.06,13.06,0,0,1,.59-3.87l3-.74a11.28,11.28,0,0,0-.5,3.49"/><path class="cls-12" d="M124.46,21.15l-3,.74c.88-2.85,2.84-6,6.46-9.31C136.54,4.69,151.73-.08,157,0l-1.32.85c-3.43.54-17.4,4.59-25.45,12-3.24,3-5,5.77-5.77,8.33"/><path class="cls-11" d="M155.68.85,157,0a5.51,5.51,0,0,1,.61,0L156.06.8l-.38,0"/><path class="cls-10" d="M156.06.8,157.61,0l.31,0-1.7.71h-.16"/><path class="cls-9" d="M156.22.79l1.7-.71.24.06-1.83.65h-.11"/><path class="cls-8" d="M156.33.79l1.83-.65.16,0L156.39.8h-.06"/><path class="cls-7" d="M156.39.8l1.93-.61.14.07-2,.56,0,0"/><path class="cls-6" d="M156.43.82l2-.56a.35.35,0,0,1,.12.07h0l-2.13.51h0a0,0,0,0,0,0,0"/><path class="cls-13" d="M156.45.84l2.13-.51a.18.18,0,0,1,.07,0l-2.19.45h0"/><path class="cls-14" d="M156.46.83l2.19-.45.06,0-2.24.4h0"/><path class="cls-15" d="M156.47.83l2.24-.4.06,0-2.3.35h0"/><path class="cls-16" d="M156.47.83l2.3-.35,0,.06-2.35.29h0"/><path class="cls-17" d="M156.47.83l2.35-.29,0,0-2.39.24h0"/><path class="cls-18" d="M156.47.83l2.39-.24.06.09-2.46.16h0"/><path class="cls-19" d="M156.46.84l2.46-.16.06.1-2.54.08,0,0"/><path class="cls-20" d="M156.44.86,159,.78s0,.07,0,.11h-2.6l0,0"/><path class="cls-21" d="M156.42.89H159a.5.5,0,0,1,0,.13L156.39.93l0,0"/><path class="cls-22" d="M156.39.93l2.67.09a1.43,1.43,0,0,1,0,.22L156.32,1l.07-.08"/><path class="cls-23" d="M156.32,1l2.78.23V1.5l-2.88-.38.1-.11"/><path class="cls-24" d="M156.22,1.12l2.88.38c0,.1,0,.21,0,.33l-3-.56.14-.15"/><path class="cls-25" d="M156.08,1.27l3,.56a3.71,3.71,0,0,1-.12.41l-3.05-.74.2-.23"/><path class="cls-26" d="M155.88,1.5l3.05.74c-.06.17-.14.34-.22.52l-3.11-1,.28-.3"/><path class="cls-27" d="M155.6,1.8l3.11,1a7.23,7.23,0,0,1-.39.71l-3.14-1.21.42-.46"/><path class="cls-28" d="M155.18,2.26l3.14,1.21a11.81,11.81,0,0,1-.75,1.09L154.47,3l.71-.76"/><path class="cls-29" d="M154.47,3l3.1,1.54a22.88,22.88,0,0,1-1.46,1.77l-2.89-2L154.47,3"/><path class="cls-30" d="M153.22,4.36l2.89,2c-.64.71-1.26,1.34-1.72,1.79l-2.54-2.3,1.37-1.46"/><path class="cls-30" d="M151.85,5.82l2.54,2.3c-.35.34-.6.58-.72.68l-2.38-2.4.56-.58"/><path class="cls-31" d="M151.29,6.4l2.38,2.4,0,0-2.38-2.41,0,0"/></g></g></g><g class="cls-2"><g class="cls-32"><g class="cls-2"><polyline class="cls-6" points="156.45 0.84 156.63 0.79 156.63 0.79 156.45 0.84 156.45 0.84"/><path class="cls-13" d="M156.45.84l.18,0h0l-.19,0h0"/><path class="cls-14" d="M156.46.83l.19,0h0l-.19,0h0"/><polyline class="cls-15" points="156.47 0.83 156.66 0.79 156.66 0.8 156.47 0.83 156.47 0.83"/></g></g></g><g class="cls-2"><g class="cls-33"><g class="cls-2"><path class="cls-34" d="M159.1,1.3,159.27,6a2.19,2.19,0,0,1,0,.36l-.16-4.72a2.3,2.3,0,0,0,0-.36"/><path class="cls-35" d="M159.08,1.66l.16,4.72a3.24,3.24,0,0,1-.16.63l-.17-4.72a3.3,3.3,0,0,0,.17-.63"/><path class="cls-12" d="M158.91,2.29,159.08,7a9.3,9.3,0,0,1-1.17,2.05l-.17-4.72a9.12,9.12,0,0,0,1.17-2"/><path class="cls-11" d="M157.74,4.34l.17,4.72a34.35,34.35,0,0,1-4.12,4.51l-.16-4.72a35.3,35.3,0,0,0,4.11-4.51"/></g></g></g><polygon class="cls-36" points="153.63 8.85 153.79 13.57 141.18 23.27 141.01 18.54 153.63 8.85"/><polygon class="cls-37" points="151.25 6.44 153.63 8.85 141.01 18.54 137.93 16.67 151.25 6.44"/><polygon class="cls-23" points="137.93 16.67 141.01 18.54 141.46 26.98 138.47 26.89 137.93 16.67"/><g class="cls-2"><g class="cls-38"><g class="cls-2"><path class="cls-12" d="M180.38,26.23l-2.11-.4a38,38,0,0,1,7.29-3.78l.25,1.14c-2.13,1.11-5.27,2.93-5.43,3"/><path class="cls-35" d="M185.81,23.19l-.25-1.14a10.28,10.28,0,0,1,2.11-.52l-.64,1c-.32.15-.75.36-1.22.61"/><path class="cls-12" d="M187,22.58l.64-1a5.49,5.49,0,0,1,.79-.05l-1.07.94-.36.16"/><path class="cls-11" d="M187.39,22.42l1.07-.94.39,0-1.32.86-.14.05"/><path class="cls-10" d="M187.53,22.37l1.32-.86.19,0-1.45.82h-.06"/><path class="cls-9" d="M187.59,22.36l1.45-.82.17,0-1.57.77h0"/><path class="cls-8" d="M187.64,22.35l1.57-.77.16.05-1.69.72h0"/><path class="cls-7" d="M187.68,22.35l1.69-.72.12.05-1.79.67h0"/><path class="cls-6" d="M187.7,22.35l1.79-.67.1,0-1.88.63h0"/><path class="cls-13" d="M187.71,22.35l1.88-.63.1.05-2,.59h0"/><path class="cls-14" d="M187.72,22.36l2-.59.1.06-2.07.54h0"/><path class="cls-15" d="M187.72,22.37l2.07-.54.06,0-2.13.51h0"/></g></g></g><polygon class="cls-39" points="138.47 26.89 141.46 26.98 153.79 35.47 152.51 36.56 138.47 26.89"/><polygon class="cls-10" points="166.79 36.58 165.59 35.48 178.27 25.83 180.38 26.23 166.79 36.58"/><polygon class="cls-40" points="152.51 36.56 153.79 35.47 165.59 35.48 166.79 36.58 152.51 36.56"/><g class="cls-2"><g class="cls-41"><g class="cls-2"><path class="cls-34" d="M190.49,23.41l.17,4.72a5.83,5.83,0,0,1-.06,1l-.17-4.72a5.83,5.83,0,0,0,.06-1"/><path class="cls-35" d="M190.43,24.4l.17,4.72a12.08,12.08,0,0,1-.65,2.42l-.17-4.72a12.26,12.26,0,0,0,.65-2.42"/><path class="cls-12" d="M189.78,26.82l.17,4.72a30.67,30.67,0,0,1-3.88,7l-.17-4.72a30.29,30.29,0,0,0,3.88-7"/><path class="cls-11" d="M185.9,33.82l.17,4.72a42.1,42.1,0,0,1-11.42,10.84c-.49.31-1,.61-1.47.89L173,45.55c.49-.28,1-.58,1.47-.89A42.1,42.1,0,0,0,185.9,33.82"/><path class="cls-12" d="M173,45.55l.17,4.72a37.92,37.92,0,0,1-6.49,3l-.17-4.72a37.92,37.92,0,0,0,6.49-3"/><path class="cls-35" d="M166.52,48.54l.17,4.72a35.28,35.28,0,0,1-4,1.14l-.17-4.73a32.71,32.71,0,0,0,4-1.13"/><path class="cls-34" d="M162.52,49.67l.17,4.73c-1.16.25-2.3.43-3.4.56l-.17-4.73a30.84,30.84,0,0,0,3.4-.56"/><path class="cls-42" d="M159.12,50.23l.17,4.73c-1.12.12-2.21.18-3.25.19l-.17-4.72a30.62,30.62,0,0,0,3.25-.2"/><path class="cls-43" d="M155.87,50.43l.17,4.72a32,32,0,0,1-3.46-.14l-.17-4.72a32.15,32.15,0,0,0,3.46.14"/><path class="cls-44" d="M152.41,50.29l.17,4.72a32.84,32.84,0,0,1-4.15-.66l-.17-4.73a33.37,33.37,0,0,0,4.15.67"/><path class="cls-4" d="M148.26,49.62l.17,4.73a28,28,0,0,1-7.27-2.66L141,47a27.74,27.74,0,0,0,7.27,2.65"/></g></g></g><g class="cls-2"><g class="cls-45"><g class="cls-2"><path class="cls-13" d="M187.72,22.38l2.13-.51,0,0-2.15.5h0"/><path class="cls-14" d="M187.73,22.39l2.15-.5L190,22l-2.19.45h0"/><path class="cls-15" d="M187.76,22.4,190,22,190,22l-2.25.4s0,0,0,0"/><path class="cls-16" d="M187.78,22.42,190,22l.06.08-2.29.35,0,0"/><path class="cls-17" d="M187.8,22.45l2.29-.35a.27.27,0,0,1,.07.08l-2.34.3,0,0"/><path class="cls-18" d="M187.82,22.48l2.34-.3.07.12-2.4.24s0,0,0-.06"/><path class="cls-19" d="M187.83,22.54l2.4-.24a2,2,0,0,1,.1.21l-2.48.14s0-.08,0-.11"/><path class="cls-20" d="M187.85,22.65l2.48-.14a1.37,1.37,0,0,1,.07.24l-2.56,0a.66.66,0,0,0,0-.14"/><path class="cls-21" d="M187.84,22.79l2.56,0a2.19,2.19,0,0,1,.08.47l-2.68-.11a2.14,2.14,0,0,0,0-.32"/><path class="cls-22" d="M187.8,23.11l2.68.11a4.94,4.94,0,0,1,0,.77l-2.82-.33c.06-.21.11-.39.14-.55"/><path class="cls-23" d="M187.66,23.66l2.82.33a10.26,10.26,0,0,1-.22,1.29l-3-.63q.22-.55.36-1"/><path class="cls-24" d="M187.3,24.65l3,.63a16.52,16.52,0,0,1-.63,1.93l-3-1c.28-.58.52-1.11.7-1.58"/><path class="cls-25" d="M186.6,26.23l3,1c-.29.73-.65,1.52-1.08,2.35l-3-1.33c.41-.71.77-1.39,1.08-2"/><path class="cls-26" d="M185.52,28.23l3,1.33c-.4.77-.86,1.57-1.38,2.39l-3-1.62c.49-.73.92-1.43,1.31-2.1"/><path class="cls-27" d="M184.21,30.33l3,1.62c-.45.71-.94,1.43-1.47,2.15l-2.85-1.85c.49-.65.94-1.3,1.36-1.92"/><path class="cls-28" d="M182.85,32.25l2.85,1.85c-.44.61-.91,1.21-1.41,1.82l-2.74-2c.46-.55.89-1.1,1.3-1.64"/><path class="cls-29" d="M181.55,33.89l2.74,2c-.43.52-.87,1-1.34,1.55l-2.62-2.17c.43-.47.83-.94,1.22-1.41"/><path class="cls-30" d="M180.33,35.3,183,37.47c-.4.44-.81.88-1.24,1.31L179.2,36.5c.39-.4.77-.8,1.13-1.2"/><path class="cls-30" d="M179.2,36.5l2.51,2.28c-.37.39-.76.77-1.16,1.15l-2.43-2.38q.56-.51,1.08-1"/><path class="cls-31" d="M178.12,37.55l2.43,2.38c-.36.34-.73.67-1.11,1l-2.34-2.45c.35-.31.69-.62,1-.94"/><path class="cls-46" d="M177.1,38.49l2.34,2.45c-.34.29-.67.58-1,.86l-2.26-2.51c.32-.27.64-.53.94-.8"/><path class="cls-46" d="M176.16,39.29l2.26,2.51-1,.8L175.23,40c.32-.24.63-.49.93-.74"/><path class="cls-47" d="M175.23,40l2.18,2.57-1,.74-2.11-2.62.91-.69"/><path class="cls-47" d="M174.32,40.72l2.11,2.62-1,.68-2-2.66.91-.64"/><path class="cls-48" d="M173.41,41.36l2,2.66-1,.64,0,0-2-2.71,0,0c.31-.19.61-.39.91-.59"/><path class="cls-48" d="M172.47,42l2,2.71c-.43.27-.86.54-1.29.79l-1.84-2.8c.39-.22.77-.45,1.16-.7"/><path class="cls-49" d="M171.31,42.67l1.84,2.8c-.42.25-.85.48-1.28.71l-1.7-2.87c.38-.2.76-.41,1.14-.64"/><path class="cls-49" d="M170.17,43.31l1.7,2.87c-.61.33-1.23.64-1.84.93l-1.51-3c.55-.25,1.1-.53,1.65-.83"/><path class="cls-50" d="M168.52,44.14l1.51,3A37,37,0,0,1,165.2,49l-1-3.17a29.88,29.88,0,0,0,4.32-1.67"/><path class="cls-49" d="M164.2,45.81l1,3.17-1.52.42-.84-3.21c.45-.11.9-.24,1.36-.38"/><path class="cls-49" d="M162.84,46.19l.84,3.21c-.33.09-.67.16-1,.24L162,46.4c.3-.06.59-.13.89-.21"/><path class="cls-48" d="M162,46.4l.73,3.24-.93.19-.63-3.25.83-.18"/><path class="cls-48" d="M161.12,46.58l.63,3.25L161,50l-.56-3.27.65-.11"/><path class="cls-47" d="M160.47,46.69,161,50l-.71.12-.49-3.29.64-.1"/><path class="cls-47" d="M159.83,46.79l.49,3.29c-.24,0-.47.07-.71.09l-.42-3.3.64-.08"/><path class="cls-46" d="M159.19,46.87l.42,3.3-.63.08-.36-3.31.57-.07"/><path class="cls-46" d="M158.62,46.94l.36,3.31-.64.06L158.05,47l.57-.05"/><path class="cls-31" d="M158.05,47l.29,3.32-.62,0L157.48,47l.57,0"/><path class="cls-30" d="M157.48,47l.24,3.33-.63,0-.18-3.34.57,0"/><path class="cls-30" d="M156.91,47.06l.18,3.34-.64,0-.11-3.34.57,0"/><path class="cls-29" d="M156.34,47.08l.11,3.34h-.62l-.06-3.35h.57"/><path class="cls-28" d="M155.77,47.08l.06,3.35h-.63V47.07h.58"/><path class="cls-27" d="M155.19,47.07v3.36h-.71l.06-3.37.64,0"/><path class="cls-26" d="M154.55,47.05l-.06,3.37-.68,0,.11-3.37.63,0"/><path class="cls-25" d="M153.92,47l-.11,3.37-.71,0,.17-3.37.65.05"/><path class="cls-24" d="M153.27,47l-.17,3.37-.81-.06.24-3.38.74.07"/><path class="cls-23" d="M152.53,46.9l-.24,3.38-.78-.09.3-3.39.72.1"/><path class="cls-22" d="M151.81,46.8l-.3,3.39-.93-.13.36-3.39.87.13"/><path class="cls-21" d="M150.94,46.67l-.36,3.39-.92-.15.41-3.4.87.16"/><path class="cls-20" d="M150.07,46.51l-.41,3.4c-.39-.07-.76-.15-1.12-.23l.48-3.4,1,.23"/><path class="cls-19" d="M149,46.28l-.48,3.4c-.42-.09-.82-.18-1.2-.28l.53-3.42,1.15.3"/><path class="cls-18" d="M147.87,46l-.53,3.42c-.47-.12-.91-.25-1.33-.37l.56-3.45c.42.14.85.27,1.3.4"/><path class="cls-17" d="M146.57,45.58,146,49c-.53-.16-1-.33-1.47-.49l.56-3.48c.46.18,1,.35,1.47.52"/><path class="cls-16" d="M145.1,45.06l-.56,3.48c-.56-.2-1.07-.4-1.51-.59l.47-3.56c.48.22,1,.45,1.6.67"/><path class="cls-15" d="M143.5,44.39,143,48c-.56-.24-1-.45-1.36-.62l.2-3.73c.46.24,1,.51,1.63.79"/><path class="cls-14" d="M141.87,43.6l-.2,3.73L141,47l-.29-4c.28.16.67.38,1.17.64"/></g></g></g><polygon class="cls-10" points="49.79 97.24 49.58 95.4 126.41 36.92 130.41 35.88 49.79 97.24"/><polygon class="cls-36" points="140.99 46.97 141.16 51.69 64.33 110.17 64.16 105.45 140.99 46.97"/><polygon class="cls-51" points="36.77 106.9 36.93 111.62 25.13 111.61 24.96 106.89 36.77 106.9"/><polygon class="cls-52" points="37.98 103.64 36.77 106.9 24.96 106.89 23.7 103.63 37.98 103.64"/><polygon class="cls-37" points="140.7 42.96 140.99 46.97 64.16 105.45 60.08 104.33 140.7 42.96"/><polygon class="cls-36" points="24.96 106.89 25.13 111.61 12.37 121.21 12.21 116.49 24.96 106.89"/><polygon class="cls-37" points="23.7 103.63 24.96 106.89 12.21 116.49 10.03 113.92 23.7 103.63"/><polygon class="cls-53" points="49.09 115.39 49.26 120.12 36.93 111.62 36.77 106.9 49.09 115.39"/><polygon class="cls-54" points="52 113.31 49.09 115.39 36.77 106.9 37.98 103.64 52 113.31"/><g class="cls-2"><g class="cls-55"><g class="cls-2"><path class="cls-11" d="M12.21,116.49l.16,4.72c-.16.11-1.38,1-3,1.9l-.16-4.72c1.62-.93,2.85-1.79,3-1.9"/><path class="cls-12" d="M9.2,118.39l.16,4.72a26.09,26.09,0,0,1-4.16,2L5,120.37a26.2,26.2,0,0,0,4.17-2"/><path class="cls-35" d="M5,120.37l.17,4.72a13.64,13.64,0,0,1-1.36.4l-.17-4.73A10.81,10.81,0,0,0,5,120.37"/><path class="cls-34" d="M3.67,120.76l.17,4.73-.76.12-.17-4.72a7.11,7.11,0,0,0,.76-.13"/><path class="cls-42" d="M2.91,120.89l.17,4.72-.54,0-.17-4.73a4.89,4.89,0,0,0,.54,0"/><path class="cls-43" d="M2.37,120.92l.17,4.73-.44,0-.17-4.72a3.23,3.23,0,0,0,.44,0"/><path class="cls-44" d="M1.93,120.91l.17,4.72a3.11,3.11,0,0,1-.44-.07l-.17-4.72.44.07"/><path class="cls-4" d="M1.49,120.84l.17,4.72a2.34,2.34,0,0,1-.79-.34,2,2,0,0,1-.7-1.64L0,118.86a2,2,0,0,0,.7,1.64,2.34,2.34,0,0,0,.79.34"/></g></g></g><g class="cls-2"><g class="cls-56"><g class="cls-2"><path class="cls-47" d="M10,113.92l2.18,2.57-.09.06L10,114l.06,0"/><path class="cls-48" d="M10,114l2.15,2.59c-.23.16-.86.59-1.72,1.12l-1.81-2.86L10,114"/><path class="cls-48" d="M8.59,114.81l1.81,2.86c-.5.31-1.08.66-1.71,1l-1.43-3.07,1.33-.8"/><path class="cls-49" d="M7.26,115.61l1.43,3.07c-.36.2-.73.4-1.11.59l-1.15-3.18.83-.48"/><path class="cls-49" d="M6.43,116.09l1.15,3.18-.88.42-.89-3.24.62-.36"/><path class="cls-50" d="M5.81,116.45l.89,3.24L6,120l-.66-3.27.51-.29"/><path class="cls-50" d="M5.3,116.74,6,120c-.23.1-.45.19-.68.27L4.85,117l.45-.25"/><path class="cls-50" d="M4.85,117l.43,3.29c-.25.09-.5.18-.75.25l-.15-3.29.47-.25"/><path class="cls-57" d="M4.38,117.24l.15,3.29a8.21,8.21,0,0,1-1,.26l.27-3.26.58-.29"/><path class="cls-50" d="M3.8,117.53l-.27,3.26-.36.07.43-3.24.2-.09"/><path class="cls-50" d="M3.6,117.62l-.43,3.24-.24,0,.55-3.21.12-.06"/><path class="cls-50" d="M3.48,117.68l-.55,3.21H2.82l.6-3.2.06,0"/><path class="cls-49" d="M3.42,117.7l-.6,3.2H2.71l.66-3.19,0,0"/><path class="cls-49" d="M3.37,117.72l-.66,3.19H2.6l.72-3.18.05,0"/><path class="cls-48" d="M3.32,117.74l-.72,3.18H2.49l.78-3.16,0,0"/><path class="cls-48" d="M3.27,117.76l-.78,3.16H2.38l.84-3.14,0,0"/><path class="cls-47" d="M3.22,117.78l-.84,3.14H2.3l.89-3.13h0"/><path class="cls-47" d="M3.19,117.79l-.89,3.13H2.24l.92-3.12h0"/><path class="cls-46" d="M3.16,117.8l-.92,3.12H2.18l1-3.11h0"/><path class="cls-46" d="M3.14,117.81l-1,3.11H2.12l1-3.1h0"/><path class="cls-31" d="M3.11,117.82l-1,3.1H2.06l1-3.09h0"/><path class="cls-30" d="M3.09,117.83l-1,3.09H2l1.07-3.08h0"/><path class="cls-30" d="M3.07,117.83,2,120.91H2l1.1-3.07h0"/><path class="cls-29" d="M3.05,117.84,2,120.91H1.89L3,117.85h0"/><path class="cls-28" d="M3,117.85,1.89,120.9H1.83L3,117.85H3"/><path class="cls-27" d="M3,117.85,1.83,120.9H1.78l1.2-3H3"/><path class="cls-26" d="M3,117.86l-1.2,3H1.72l1.24-3H3"/><path class="cls-25" d="M3,117.86l-1.24,3H1.66l1.28-3H3"/><path class="cls-24" d="M2.94,117.87l-1.28,3H1.59l1.33-3h0"/><path class="cls-23" d="M2.92,117.87l-1.33,3H1.53l1.38-3h0"/><path class="cls-22" d="M2.91,117.87l-1.38,3-.06,0,1.42-3h0"/><path class="cls-21" d="M2.89,117.88l-1.42,3H1.41l1.46-2.94h0"/><path class="cls-20" d="M2.87,117.88l-1.46,2.94-.06,0,1.5-2.92h0"/><path class="cls-19" d="M2.85,117.88l-1.5,2.92-.06,0,1.55-2.9h0"/><path class="cls-18" d="M2.84,117.88l-1.55,2.9-.06,0,1.6-2.88h0"/><path class="cls-17" d="M2.83,117.88l-1.6,2.88-.06,0,1.64-2.87h0"/><path class="cls-16" d="M2.81,117.87l-1.64,2.87L1,120.67l1.77-2.81h0"/><path class="cls-15" d="M2.78,117.86,1,120.67l-.16-.08,1.92-2.74h0"/><path class="cls-14" d="M2.77,117.85.85,120.59.7,120.5h0l2.06-2.67h0a0,0,0,0,0,0,0"/><path class="cls-13" d="M2.76,117.82.7,120.49l-.09-.06,2.11-2.63,0,0"/><path class="cls-6" d="M2.72,117.8.61,120.43l-.08-.08,2.16-2.57,0,0"/><path class="cls-7" d="M2.69,117.78.53,120.35a.6.6,0,0,1-.08-.08l2.22-2.52s0,0,0,0"/><path class="cls-8" d="M2.67,117.75.45,120.27l-.07-.09,2.26-2.47,0,0"/><path class="cls-9" d="M2.64,117.71.38,120.18.29,120l2.33-2.4s0,0,0,.07"/><path class="cls-10" d="M2.62,117.64.29,120a1.33,1.33,0,0,1-.11-.24l2.42-2.3a.59.59,0,0,0,0,.14"/><path class="cls-11" d="M2.6,117.5.18,119.8a1.89,1.89,0,0,1-.11-.36l2.54-2.16a1.77,1.77,0,0,0,0,.22"/><path class="cls-12" d="M2.61,117.28.07,119.44a5.08,5.08,0,0,1,.06-2L3,115.85a6,6,0,0,0-.37,1.43"/><path class="cls-35" d="M3,115.85.13,117.48c0-.26.11-.54.19-.82l2.91-1.46c-.09.23-.18.44-.25.65"/><path class="cls-12" d="M3.23,115.2.32,116.66c1.38-5,7.11-13.47,15.76-18.94a37.86,37.86,0,0,1,9.58-4.41l.89,1a34.14,34.14,0,0,0-8.57,4A40.47,40.47,0,0,0,3.23,115.2"/><path class="cls-11" d="M26.55,94.31l-.89-1A33,33,0,0,1,31,92.19l.34,1.13a30.84,30.84,0,0,0-4.82,1"/><path class="cls-10" d="M31.37,93.32,31,92.19a33.06,33.06,0,0,1,4-.25l0,1.19a28.42,28.42,0,0,0-3.63.19"/><path class="cls-9" d="M35,93.13l0-1.19c1.22,0,2.39.07,3.49.18l-.34,1.22A27,27,0,0,0,35,93.13"/><path class="cls-8" d="M38.19,93.34l.34-1.22c1.15.13,2.23.3,3.23.51l-.54,1.24a28.85,28.85,0,0,0-3-.53"/><path class="cls-7" d="M41.22,93.87l.54-1.24c1.14.24,2.18.52,3.1.81l-.65,1.28a30.89,30.89,0,0,0-3-.85"/><path class="cls-6" d="M44.21,94.72l.65-1.28a29.38,29.38,0,0,1,3,1.12L47.36,96a29.39,29.39,0,0,0-3.15-1.26"/><path class="cls-13" d="M47.36,96l.51-1.42c1,.43,1.57.76,1.71.84l.21,1.84C49.3,97,48.48,96.5,47.36,96"/></g></g></g><polygon class="cls-58" points="49.55 123.83 49.72 128.55 49.26 120.12 49.09 115.39 49.55 123.83"/><polygon class="cls-59" points="52.56 123.55 49.55 123.83 49.09 115.39 52 113.31 52.56 123.55"/><polygon class="cls-10" points="38.99 133.72 36.77 133.41 49.55 123.83 52.56 123.55 38.99 133.72"/><path class="cls-19" d="M187.72,22.38c1,.28-4.06,12.5-15.22,19.57-15.8,10-29,2.57-31.8,1L60.08,104.33c2.28,1.92,13.19,11.13.18,23-9.22,8.44-25.55,12.84-26.23,12-.88-.06,4.61-5.34,5-5.64l13.57-10.17L52,113.31l-14-9.67H23.7L10,113.92c-.31.21-7.22,4.5-7.27,3.9C1.6,117.42,6.81,105.34,18,98.26c15.8-10,29.05-2.57,31.81-1l80.62-61.36c-2.28-1.93-13.19-11.13-.18-23.06,9.18-8.41,26.07-12.5,26.22-12,.36-.3-4.86,5.29-5.2,5.6L137.93,16.67l.54,10.22,14,9.67,14.28,0,13.59-10.35C180.62,26.07,187.81,21.91,187.72,22.38Z"/><g class="cls-2"><g class="cls-60"><g class="cls-2"><path class="cls-15" d="M60.08,104.33l4.08,1.12.48.43-3.69-.8-.87-.75"/><path class="cls-16" d="M61,105.08l3.69.8a16.21,16.21,0,0,1,1.22,1.28l-3.39-.58c-.55-.59-1.07-1.1-1.52-1.5"/><path class="cls-17" d="M62.47,106.58l3.39.58a17,17,0,0,1,1.29,1.68l-3.26-.53a20.24,20.24,0,0,0-1.42-1.73"/><path class="cls-18" d="M63.89,108.31l3.26.53a16.28,16.28,0,0,1,1.09,1.86L65,110.11a16.14,16.14,0,0,0-1.13-1.8"/><path class="cls-19" d="M65,110.11l3.22.59a13.78,13.78,0,0,1,.79,1.92l-3.2-.7a11.86,11.86,0,0,0-.81-1.81"/><path class="cls-20" d="M65.83,111.92l3.2.7a13.51,13.51,0,0,1,.49,2l-3.19-.86a10.48,10.48,0,0,0-.5-1.81"/><path class="cls-21" d="M66.33,113.73l3.19.86a14.33,14.33,0,0,1,.17,2l-3.16-1a10.91,10.91,0,0,0-.2-1.83"/><path class="cls-22" d="M66.53,115.56l3.16,1a12.71,12.71,0,0,1-.16,2l-3.12-1.24a11.18,11.18,0,0,0,.12-1.8"/><path class="cls-23" d="M66.41,117.36l3.12,1.24a15.16,15.16,0,0,1-.43,1.87L66,119a10.63,10.63,0,0,0,.38-1.68"/><path class="cls-24" d="M66,119l3.07,1.43c-.17.52-.37,1.06-.61,1.61l-3-1.59A12.76,12.76,0,0,0,66,119"/><path class="cls-25" d="M65.5,120.49l3,1.59q-.28.66-.66,1.35l-2.92-1.73c.22-.41.42-.81.59-1.21"/><path class="cls-26" d="M64.91,121.7l2.92,1.73q-.33.6-.72,1.2l-2.85-1.86c.24-.36.45-.72.65-1.07"/><path class="cls-27" d="M64.26,122.77l2.85,1.86c-.24.37-.49.73-.77,1.1l-2.76-2c.25-.33.47-.66.68-1"/><path class="cls-28" d="M63.58,123.76l2.76,2q-.34.48-.75,1l-2.68-2.07c.24-.29.46-.58.67-.86"/><path class="cls-29" d="M62.91,124.62l2.68,2.07c-.26.32-.53.64-.82,1l-2.6-2.18c.26-.28.51-.56.74-.84"/><path class="cls-30" d="M62.17,125.46l2.6,2.18c-.26.3-.53.59-.82.88l-2.51-2.27c.25-.27.5-.53.73-.79"/><path class="cls-30" d="M61.44,126.25,64,128.52c-.28.29-.58.58-.89.87L60.64,127l.8-.77"/><path class="cls-31" d="M60.64,127l2.42,2.37-.42.4-.48.43-2.35-2.44c.16-.13.3-.26.45-.4l.38-.36"/><path class="cls-46" d="M59.81,127.78l2.35,2.44c-.3.26-.6.52-.91.77L59,128.5c.28-.23.57-.47.84-.72"/><path class="cls-46" d="M59,128.5,61.25,131c-.32.27-.65.53-1,.79L58,129.24c.32-.24.62-.49.93-.74"/><path class="cls-47" d="M58,129.24l2.22,2.54-1.06.79L57.05,130c.33-.25.67-.49,1-.74"/><path class="cls-47" d="M57.05,130l2.15,2.59c-.4.29-.8.57-1.21.84l-2.06-2.66c.38-.25.75-.51,1.12-.77"/><path class="cls-48" d="M55.93,130.75,58,133.41c-.46.31-.92.62-1.39.91l-2-2.73q.66-.41,1.29-.84"/><path class="cls-48" d="M54.64,131.59l2,2.73c-.55.34-1.1.68-1.66,1l-1.82-2.81,1.52-.92"/><path class="cls-49" d="M53.12,132.51l1.82,2.81c-.67.39-1.36.77-2,1.14l-1.64-2.91c.62-.34,1.25-.68,1.87-1"/><path class="cls-49" d="M51.25,133.55l1.64,2.91c-.89.47-1.79.91-2.69,1.33l-1.39-3c.81-.38,1.62-.79,2.44-1.22"/><path class="cls-50" d="M48.81,134.77l1.39,3c-1.36.65-2.73,1.23-4.06,1.75l-1-3.17c1.18-.48,2.4-1,3.64-1.6"/><path class="cls-50" d="M45.17,136.37l1,3.17a52.55,52.55,0,0,1-7.45,2.32l.08-3.25a62.76,62.76,0,0,0,6.4-2.24"/><path class="cls-50" d="M38.77,138.61l-.08,3.25c-.51.12-1,.22-1.46.3l.35-3.23,1.19-.32"/><path class="cls-49" d="M37.58,138.93l-.35,3.23-.82.13.52-3.21.65-.15"/><path class="cls-49" d="M36.93,139.08l-.52,3.21-.51.07.64-3.19a2.74,2.74,0,0,0,.39-.09"/><path class="cls-48" d="M36.54,139.17l-.64,3.19-.49,0,.76-3.16.37-.08"/><path class="cls-48" d="M36.17,139.25l-.76,3.16-.28,0,.82-3.15.22,0"/><path class="cls-47" d="M36,139.29l-.82,3.15-.26,0,.89-3.13.19,0"/><path class="cls-47" d="M35.76,139.33l-.89,3.13h-.25l1-3.11.18,0"/><path class="cls-46" d="M35.58,139.36l-1,3.11h-.24l1-3.09.17,0"/><path class="cls-46" d="M35.41,139.39l-1,3.09h-.2l1.09-3.07.14,0"/><path class="cls-31" d="M35.27,139.41l-1.09,3.07H34l1.13-3.06h.11"/><path class="cls-30" d="M35.16,139.42,34,142.48h-.15l1.19-3h.09"/><path class="cls-30" d="M35.07,139.43l-1.19,3h-.14l1.23-3h.1"/><path class="cls-29" d="M35,139.44l-1.23,3H33.6l1.28-3H35"/><path class="cls-28" d="M34.88,139.45l-1.28,3h-.13l1.32-3h.09"/><path class="cls-27" d="M34.79,139.46l-1.32,3h-.13l1.37-3h.08"/><path class="cls-26" d="M34.71,139.46l-1.37,3h-.11l1.41-3h.07"/><path class="cls-25" d="M34.64,139.47l-1.41,3h-.11l1.45-2.95h.07"/><path class="cls-24" d="M34.57,139.47l-1.45,2.95-.1,0,1.49-2.93h.06"/><path class="cls-23" d="M34.51,139.47,33,142.4l-.1,0,1.53-2.91h.06"/><path class="cls-22" d="M34.45,139.47l-1.53,2.91-.1,0,1.58-2.89h.05"/><path class="cls-21" d="M34.4,139.47l-1.58,2.89-.09,0,1.62-2.88h0"/><path class="cls-20" d="M34.35,139.46l-1.62,2.88-.09,0,1.66-2.86h.05"/><path class="cls-19" d="M34.3,139.46l-1.66,2.86-.09,0,1.71-2.85h0"/><path class="cls-18" d="M34.26,139.45l-1.71,2.85-.13-.05,1.77-2.81h.07"/><path class="cls-17" d="M34.19,139.44l-1.77,2.81-.14-.05,1.85-2.78.06,0"/><path class="cls-16" d="M34.13,139.42l-1.85,2.78-.13-.06,1.93-2.74.05,0"/><path class="cls-15" d="M34.08,139.4l-1.93,2.74-.11-.06,2-2.7,0,0"/><path class="cls-14" d="M34.05,139.38l-2,2.7L32,142l-.05,0L34,139.36h0l0,0"/><path class="cls-13" d="M34,139.36,31.93,142l-.1-.08L34,139.35h0"/><path class="cls-6" d="M34,139.35l-2.16,2.57a.34.34,0,0,1-.09-.08l2.23-2.5h0"/><path class="cls-7" d="M34,139.34l-2.23,2.5-.09-.09,2.3-2.42h0"/><path class="cls-8" d="M34,139.33l-2.3,2.42-.09-.11,2.38-2.34s0,0,0,0"/><path class="cls-9" d="M33.94,139.3l-2.38,2.34-.09-.14,2.47-2.24v0"/><path class="cls-10" d="M33.94,139.26l-2.47,2.24-.08-.15,2.55-2.14v0"/><path class="cls-11" d="M33.94,139.21l-2.55,2.14a2.76,2.76,0,0,1-.08-.27l2.67-2,0,.1"/><path class="cls-12" d="M34,139.11l-2.67,2a1.67,1.67,0,0,1,0-.5l2.83-1.7a1.42,1.42,0,0,0-.13.23"/><path class="cls-35" d="M34.11,138.88l-2.83,1.7A5.58,5.58,0,0,1,32.43,138l3-.7a14.07,14.07,0,0,0-1.34,1.62"/><path class="cls-12" d="M35.45,137.26l-3,.7a28.63,28.63,0,0,1,4.34-4.55l2.22.31c-.21.17-2.13,2-3.54,3.54"/></g></g></g><g class="cls-2"><g class="cls-61"><g class="cls-2"><path class="cls-34" d="M69.68,116.19l.16,4.72a11.8,11.8,0,0,1-.11,2.2l-.17-4.73a12.59,12.59,0,0,0,.12-2.19"/><path class="cls-35" d="M69.56,118.38l.17,4.73a13.76,13.76,0,0,1-.72,2.82l-.17-4.72a13.69,13.69,0,0,0,.72-2.83"/><path class="cls-12" d="M68.84,121.21l.17,4.72a17.83,17.83,0,0,1-2.36,4.34l-.17-4.73a17.78,17.78,0,0,0,2.36-4.33"/><path class="cls-11" d="M66.48,125.54l.17,4.73a28.52,28.52,0,0,1-3.85,4.24,44.79,44.79,0,0,1-7.93,5.67l-.16-4.72a45.16,45.16,0,0,0,7.93-5.67,28,28,0,0,0,3.84-4.25"/><path class="cls-12" d="M54.71,135.46l.16,4.72A64.23,64.23,0,0,1,44.24,145l-.17-4.72a64.69,64.69,0,0,0,10.64-4.84"/><path class="cls-35" d="M44.07,140.3l.17,4.72a50.43,50.43,0,0,1-5.62,1.62l-.16-4.72a49.7,49.7,0,0,0,5.61-1.62"/><path class="cls-34" d="M38.46,141.92l.16,4.72a27.47,27.47,0,0,1-2.71.46l-.17-4.72c.82-.09,1.73-.25,2.72-.46"/><path class="cls-42" d="M35.74,142.38l.17,4.72a13.61,13.61,0,0,1-1.48.1l-.16-4.72c.44,0,.94,0,1.47-.1"/><path class="cls-43" d="M34.27,142.48l.16,4.72q-.47,0-.87,0l-.17-4.72c.27,0,.56,0,.88,0"/><path class="cls-44" d="M33.39,142.45l.17,4.72a4.08,4.08,0,0,1-.64-.1l-.16-4.72a5.21,5.21,0,0,0,.63.1"/><path class="cls-4" d="M32.76,142.35l.16,4.72a2,2,0,0,1-.77-.31,1.53,1.53,0,0,1-.71-1.26l-.17-4.73A1.55,1.55,0,0,0,32,142a2.27,2.27,0,0,0,.78.31"/></g></g></g></g></symbol></defs><title>16280_A33AAe__R21XArtboard 1</title><g id="Layer_32" data-name="Layer 32"><path id="FOND" class="cls-62" d="M59.08,47.84,55,30.72a5.29,5.29,0,0,0-2-2.83L39.13,19.33a28.53,28.53,0,0,0-3.25-1.39,28.92,28.92,0,0,0-3.37-1.12L18.6,13.49a2.88,2.88,0,0,0-2.86,1.32L6.3,30.05c-.6,1-.27,1.87.73,2l23.59,3.43a6.27,6.27,0,0,0,.75,1.19,4.64,4.64,0,0,0,3.12,1.22,5.07,5.07,0,0,0,1.38-.41l22.06,11.4C58.81,49.34,59.33,48.87,59.08,47.84Z"/><path id="FOND-2" data-name="FOND" class="cls-63" d="M59.08,47.84,55,30.72a5.29,5.29,0,0,0-2-2.83L39.13,19.33a28.53,28.53,0,0,0-3.25-1.39,28.92,28.92,0,0,0-3.37-1.12L18.6,13.49a2.88,2.88,0,0,0-2.86,1.32L6.3,30.05c-.6,1-.27,1.87.73,2l23.59,3.43a6.27,6.27,0,0,0,.75,1.19,4.64,4.64,0,0,0,3.12,1.22,5.07,5.07,0,0,0,1.38-.41l22.06,11.4C58.81,49.34,59.33,48.87,59.08,47.84Z"/><path class="cls-64" d="M33.68,35.34,8.25,31.43s2.68-1.86,4.12-2.81c9.14,2.15,16.39-2.42,20.18-.06,3.1,1.82,2.17,4.16,2.17,4.16Z"/><path class="cls-64" d="M34.72,35.65,57.64,47.48s-.73-3.25-1-4.54c-8.89-3.27-12.32-11.15-15.43-11.8-2.54-.63-5.5,1.89-5.5,1.89Z"/><polygon class="cls-65" points="11.84 28.03 6.91 31.02 10.88 24.25 17.47 13.2 19.08 12.5 11.84 28.03"/><path class="cls-66" d="M35.25,32.28s1.18-4.76-5.45-5.21c-12.53,2.7-17.28,1.08-17.28,1.08s3.88-8.47,7.36-16.3c5.95,1.86,8.32-.95,13.52,1.26,3.71,1.58,3.53,4.3,3.53,4.3Z"/><path class="cls-67" d="M54.28,25s-4-3.65-9.66-8A6.39,6.39,0,0,0,37.07,17s-.83,7.11-1.77,15.45c7-5.29,8.46.38,12.73,4.14,3.36,3,9.68,6.29,9.68,6.29Z"/><g id="g1"><path class="cls-68" d="M26.28,29.8l.4-.19c.25-.11.62-.26,1.07-.41a11,11,0,0,1,1.56-.4,6.2,6.2,0,0,1,1.83-.06A3.35,3.35,0,0,1,32,29a3,3,0,0,1,.79.47l.31.27.29.29.24.31.2.31a2.54,2.54,0,0,1,.27.62,1.57,1.57,0,0,1,.06.55.87.87,0,0,1-.09.37l-.07.11h0a0,0,0,0,1,0,0,.27.27,0,0,0,0-.11.67.67,0,0,0,0-.3,1.65,1.65,0,0,0-.17-.4,3.29,3.29,0,0,0-.34-.48c-.13-.17-.29-.34-.45-.51l-.54-.58A2.71,2.71,0,0,0,31,29.15a5.84,5.84,0,0,0-1.72,0,10.37,10.37,0,0,0-1.54.28,12.09,12.09,0,0,0-1.48.47s0,0,0,0A.05.05,0,0,1,26.28,29.8Z"/><path class="cls-68" d="M10,30.37l1.06.25,1.22.25c.47.09,1,.2,1.59.28s1.23.18,1.91.26,1.39.14,2.14.18a41.1,41.1,0,0,0,4.71,0c.8-.05,1.61-.11,2.41-.2l2.33-.28c.76-.09,1.5-.17,2.21-.2a5.66,5.66,0,0,1,2,.17,4,4,0,0,1,1.38.92,3.36,3.36,0,0,1,.74,1.06,1.8,1.8,0,0,1,.17.86,1,1,0,0,1,0,.32.05.05,0,0,1,0,0l0,0s0,0,0-.08a2,2,0,0,0,0-.22,1.91,1.91,0,0,0-.25-.76,3.41,3.41,0,0,0-.8-.9c-.09-.08-.76-.52-.82-.55s-.45-.16-.51-.18a6.15,6.15,0,0,0-1.85-.08c-.69.06-1.42.14-2.18.23,1.28-.13.45,0-2.34.22-.8.06-1.61.1-2.42.13a40.69,40.69,0,0,1-4.73-.13q-.57,0-1.11-.12c-.35,0-.7-.08-1-.13-.68-.1-1.32-.2-1.9-.32s-1.11-.23-1.58-.34L11,30.71l-1.05-.28s0,0,0,0A0,0,0,0,1,10,30.37Z"/></g><g id="d2"><path class="cls-69" d="M55.75,44.36a6.66,6.66,0,0,1-.7-.2c-.28-.1-.52-.16-.91-.32s-.76-.3-1.23-.51L52.22,43l-.75-.37c-.51-.27-1-.57-1.58-.9a38.34,38.34,0,0,1-3.28-2.25c-.54-.41-1.07-.83-1.6-1.25L43.5,37c-.49-.4-1-.78-1.42-1.11l-.34-.24a3.24,3.24,0,0,0-.35-.21,3.18,3.18,0,0,0-.68-.31,1.94,1.94,0,0,0-.33-.07A3.27,3.27,0,0,0,40,35l-.66,0c-.42,0-.79,0-1.08,0s-.45-.14-.6-.1-.13-.11-.13-.11l0,0s0,.1.15,0a7.78,7.78,0,0,1,1.15-.12,5.14,5.14,0,0,1,.59,0c.21,0,.43,0,.67,0a2.64,2.64,0,0,1,.78,0,5.11,5.11,0,0,1,1.53.73c.49.32,1,.71,1.48,1.11,1,.81,2,1.73,3,2.58a34.94,34.94,0,0,0,3.18,2.34c.52.35,1,.66,1.55.95l.73.41.7.36c.45.22.87.42,1.24.58s.53.21.79.32l.69.24Z"/><path class="cls-69" d="M44.63,34.43c-2.89-3-5.89-3.13-8.79-.39,1.29-1.65,3.2-2.65,4.2-2.46A5.08,5.08,0,0,1,44.63,34.43Z"/></g></g><g id="Layer_33_copy" data-name="Layer 33 copy"><use width="190.66" height="147.2" transform="translate(12.33 16) scale(0.25)" xlink:href="#Nouveau_symbole_1"/><use width="190.66" height="147.2" transform="translate(12.33 16) scale(0.25)" xlink:href="#Nouveau_symbole_1"/></g></svg>