<?xml version="1.0" encoding="UTF-8"?><svg id="DEL_FAI_AP_V02_ok_copy" xmlns="http://www.w3.org/2000/svg" xmlns:xlink="http://www.w3.org/1999/xlink" viewBox="0 0 64 64"><defs><style>.cls-1{fill:url(#linear-gradient-2);}.cls-2{fill:#fff;}.cls-3{fill:url(#white_front_right-3);}.cls-3,.cls-4,.cls-5,.cls-6,.cls-7{stroke-width:.25px;}.cls-3,.cls-8,.cls-9,.cls-10,.cls-5,.cls-11,.cls-6,.cls-7,.cls-12{stroke-linecap:round;stroke-linejoin:round;}.cls-3,.cls-9,.cls-5,.cls-13,.cls-11,.cls-14,.cls-6,.cls-7{stroke:#003755;}.cls-15{fill:url(#white_front_right-6);}.cls-4{stroke:#323232;}.cls-4,.cls-13,.cls-14{stroke-miterlimit:10;}.cls-4,.cls-11{fill:#7a7a7a;}.cls-8{fill:url(#linear-gradient-10);}.cls-8,.cls-10,.cls-12{stroke:#6d6d6d;}.cls-16{fill:url(#linear-gradient-6);}.cls-17{fill:#323232;}.cls-18{fill:url(#Dark_BLUE_gradient_LEFT_2-2);}.cls-19{fill:#003755;}.cls-20{fill:#e0e0e0;}.cls-9{fill:#285977;}.cls-21{fill:url(#linear-gradient-11);}.cls-10{fill:url(#linear-gradient-5);}.cls-5{fill:url(#white_front_right-4);}.cls-22{fill:#00b8de;}.cls-13{stroke-width:1.02px;}.cls-13,.cls-23,.cls-14{fill:none;}.cls-24{clip-path:url(#clippath);}.cls-11{stroke-width:.5px;}.cls-25{fill:url(#white_front_right-7);}.cls-26{fill:url(#linear-gradient-7);}.cls-27{fill:#2d2d2d;}.cls-28{fill:url(#white_front_right-5);}.cls-29{fill:#007da3;}.cls-30{fill:url(#linear-gradient-9);}.cls-6{fill:url(#white_front_right-2);}.Dark_Grey_Gradient_3{fill:url(#linear-gradient);}.cls-31{fill:#6d6d6d;}.cls-32{fill:url(#Dark_BLUE_gradient_LEFT_2-3);}.cls-33{fill:url(#linear-gradient-4);}.cls-7{fill:url(#white_front_right);}.cls-12{fill:url(#linear-gradient-3);}.cls-34{fill:url(#linear-gradient-8);}.cls-35{fill:url(#Dark_BLUE_gradient_LEFT_2);}</style><linearGradient id="linear-gradient" x1="38.09" y1="53.2" x2="39.4" y2="55.46" gradientUnits="userSpaceOnUse"><stop offset="0" stop-color="#464646"/><stop offset=".99" stop-color="#161616"/></linearGradient><linearGradient id="linear-gradient-2" x1="44.62" y1="8.06" x2="20.45" y2="28.75" gradientUnits="userSpaceOnUse"><stop offset="0" stop-color="#fcfcfc"/><stop offset="1" stop-color="#b3b3b3"/></linearGradient><linearGradient id="linear-gradient-3" x1="36.63" y1="15.9" x2="41.8" y2="15.9" gradientUnits="userSpaceOnUse"><stop offset="0" stop-color="#c9c9c9"/><stop offset="1" stop-color="#737373"/></linearGradient><linearGradient id="linear-gradient-4" x1="35.62" y1="8.58" x2="15.58" y2="27.16" xlink:href="#linear-gradient-2"/><linearGradient id="linear-gradient-5" x1="25.92" y1="19.03" x2="30.38" y2="19.03" xlink:href="#linear-gradient-3"/><linearGradient id="linear-gradient-6" x1="23.77" y1="12.73" x2="-.51" y2="31.15" xlink:href="#linear-gradient-2"/><linearGradient id="linear-gradient-7" x1="-649.5" y1="59" x2="-645.5" y2="59" gradientTransform="translate(81 -616.5) rotate(-90) scale(1 -1)" gradientUnits="userSpaceOnUse"><stop offset="0" stop-color="#464646"/><stop offset="1" stop-color="#141414"/></linearGradient><linearGradient id="linear-gradient-8" x1="21" y1="-9.5" x2="23" y2="-9.5" gradientTransform="translate(0 18) scale(1 -1)" gradientUnits="userSpaceOnUse"><stop offset="0" stop-color="#3287af"/><stop offset="1" stop-color="#285a78"/></linearGradient><linearGradient id="linear-gradient-9" x1="35.62" y1="8.58" x2="15.58" y2="27.16" xlink:href="#linear-gradient-2"/><linearGradient id="linear-gradient-10" x1="25.92" y1="19.03" x2="30.38" y2="19.03" xlink:href="#linear-gradient-3"/><linearGradient id="linear-gradient-11" x1="23.77" y1="12.73" x2="-.51" y2="31.15" xlink:href="#linear-gradient-2"/><linearGradient id="white_front_right" x1="12.33" y1="38.28" x2="27.65" y2="38.28" gradientUnits="userSpaceOnUse"><stop offset="0" stop-color="#fff"/><stop offset="1" stop-color="#d2d2d2"/></linearGradient><linearGradient id="white_front_right-2" x1="6.73" y1="44.85" x2="16.8" y2="44.85" xlink:href="#white_front_right"/><linearGradient id="white_front_right-3" x1="24.43" y1="42.37" x2="34.49" y2="42.37" xlink:href="#white_front_right"/><linearGradient id="white_front_right-4" x1="12.94" y1="47.4" x2="28.64" y2="47.4" xlink:href="#white_front_right"/><clipPath id="clippath"><path class="cls-23" d="m39.72,17.09s.05,10.24.05,10.32h6.47c.55,0,1,.45,1,1s.45,1,1,1h1c.55,0,1,.36,1,.79s.45.79,1,.79h1.76c.55,0,1,.45,1,1v1.82l2.99,2.34v-19.07h-17.27Z"/></clipPath><linearGradient id="white_front_right-5" x1="39.02" y1="41.33" x2="51.3" y2="55.74" xlink:href="#white_front_right"/><linearGradient id="white_front_right-6" x1="36.24" y1="34.42" x2="49.24" y2="34.42" xlink:href="#white_front_right"/><linearGradient id="white_front_right-7" x1="39.24" y1="31.92" x2="46.24" y2="31.92" xlink:href="#white_front_right"/><linearGradient id="Dark_BLUE_gradient_LEFT_2" x1="43.05" y1="55.13" x2="47.29" y2="55.13" gradientUnits="userSpaceOnUse"><stop offset="0" stop-color="#81bbd9"/><stop offset="1" stop-color="#275a78"/></linearGradient><linearGradient id="Dark_BLUE_gradient_LEFT_2-2" y1="47.13" y2="47.13" xlink:href="#Dark_BLUE_gradient_LEFT_2"/><linearGradient id="Dark_BLUE_gradient_LEFT_2-3" y1="41.13" y2="41.13" xlink:href="#Dark_BLUE_gradient_LEFT_2"/></defs><g id="Usine_OK_OK_copy_6"><g id="contour_OK"><path class="cls-2" d="m17.5,48.47s-.09,0-.14-.02l-10.5-2.97c-.22-.06-.36-.26-.36-.48v-28c0-.18.1-.35.26-.44l10.56-5.74c.07-.04.16-.06.24-.06.07,0,.13.01.2.04l3.7,1.59,5.53-3.32c.08-.05.17-.07.26-.07.04,0,.08,0,.12.01l4.9,1.23,4.38-2.92c.08-.06.18-.08.28-.08.04,0,.08,0,.11.01l14.08,3.27c.23.05.39.25.39.49v33.99c0,.26-.2.48-.46.5,0,0-33.53,2.97-33.55,2.97Z"/><path class="cls-27" d="m36.92,7.74l14.08,3.27v33.99l-33.5,2.97-10.5-2.97v-28l10.56-5.74,3.94,1.69,5.75-3.45,5.12,1.28,4.56-3.04m0-1c-.2,0-.39.06-.55.17l-4.2,2.8-4.69-1.18c-.08-.02-.16-.03-.24-.03-.18,0-.36.05-.51.14l-5.31,3.18-3.47-1.49c-.13-.05-.26-.08-.39-.08-.16,0-.33.04-.48.12l-10.56,5.74c-.32.17-.52.51-.52.88v28c0,.45.3.84.73.96l10.5,2.97c.09.03.18.04.27.04.03,0,.06,0,.09,0l33.5-2.97c.52-.05.91-.48.91-1V11.01c0-.47-.32-.87-.77-.97l-14.08-3.27c-.07-.02-.15-.03-.23-.03h0Z"/></g><g id="TOIT_ok_copy_7"><g id="T_P3"><path class="cls-1" d="m41.32,18.8c-.07,0-.13-.01-.2-.04l-12.32-5.28c-.17-.07-.28-.23-.3-.41s.07-.36.22-.46l7.92-5.28c.08-.06.18-.08.28-.08.04,0,.08,0,.11.01l14.08,3.27c.19.04.34.19.38.38.04.19-.03.39-.19.5l-9.68,7.29c-.09.07-.19.1-.3.1Z"/><path class="cls-31" d="m36.92,7.74l14.08,3.27-9.68,7.29-12.32-5.28,7.92-5.28m0-1c-.2,0-.39.06-.55.17l-7.92,5.28c-.31.2-.47.56-.44.92.03.37.26.68.6.83l12.32,5.28c.13.05.26.08.39.08.21,0,.43-.07.6-.2l9.68-7.29c.31-.23.46-.63.38-1.01-.08-.38-.37-.68-.75-.77l-14.08-3.27c-.07-.02-.15-.03-.23-.03h0Z"/></g><polygon class="cls-12" points="41.8 13.01 41.35 18.78 36.63 16.82 41.8 13.01"/><g id="T_p2"><path class="cls-33" d="m29.88,21.44c-.08,0-.16-.02-.24-.06l-11.44-6.16c-.16-.08-.26-.25-.26-.43s.09-.35.24-.44l8.8-5.28c.08-.05.17-.07.26-.07.04,0,.08,0,.12.01l14.08,3.52c.19.05.34.2.37.4s-.05.39-.21.5l-11.44,7.92c-.08.06-.18.09-.28.09Z"/><path class="cls-31" d="m27.24,9.5l14.08,3.52-11.44,7.92-11.44-6.16,8.8-5.28m0-1c-.18,0-.36.05-.51.14l-8.8,5.28c-.31.18-.49.52-.49.88,0,.36.21.69.53.86l11.44,6.16c.15.08.31.12.47.12.2,0,.4-.06.57-.18l11.44-7.92c.32-.22.48-.62.41-1-.07-.39-.36-.7-.74-.79l-14.08-3.52c-.08-.02-.16-.03-.24-.03h0Z"/></g><polygon class="cls-10" points="30.38 16.59 29.94 21.48 25.92 19.62 30.38 16.59"/><g id="T_p1"><path class="cls-16" d="m17.56,24.96c-.1,0-.2-.03-.29-.09l-10.56-7.46c-.14-.1-.22-.26-.21-.44s.11-.33.26-.41l10.56-5.74c.07-.04.16-.06.24-.06.07,0,.13.01.2.04l12.32,5.28c.17.07.29.23.3.42.02.18-.07.36-.23.46l-12.32,7.92c-.08.05-.18.08-.27.08Z"/><path class="cls-31" d="m17.56,11.26l12.32,5.28-12.32,7.92-10.56-7.46,10.56-5.74m0-1c-.16,0-.33.04-.48.12l-10.56,5.74c-.3.16-.5.48-.52.82-.02.34.14.68.42.88l10.56,7.46c.17.12.37.18.58.18.19,0,.38-.05.54-.16l12.32-7.92c.31-.2.49-.56.46-.92-.03-.37-.26-.69-.6-.84l-12.32-5.28c-.13-.05-.26-.08-.39-.08h0Z"/></g></g></g><g id="Layer_36_copy_2"><polygon class="cls-26" points="31 32 31 33 13 33 13 29 15 29 15 32 31 32"/><rect class="cls-22" x="17" y="27" width="2" height="4"/><rect class="cls-34" x="21" y="24" width="2" height="7"/><rect class="cls-29" x="25" y="25" width="2" height="6"/><rect class="cls-22" x="29" y="29" width="2" height="2"/></g><g id="Usine_OK_OK_copy_6-2"><g id="TOIT_ok_copy_7-2"><g id="T_P3-2"><path class="cls-1" d="m41.32,18.8c-.07,0-.13-.01-.2-.04l-12.32-5.28c-.17-.07-.28-.23-.3-.41s.07-.36.22-.46l7.92-5.28c.08-.06.18-.08.28-.08.04,0,.08,0,.11.01l14.08,3.27c.19.04.34.19.38.38.04.19-.03.39-.19.5l-9.68,7.29c-.09.07-.19.1-.3.1Z"/><path class="cls-31" d="m36.92,7.74l14.08,3.27-9.68,7.29-12.32-5.28,7.92-5.28m0-1c-.2,0-.39.06-.55.17l-7.92,5.28c-.31.2-.47.56-.44.92.03.37.26.68.6.83l12.32,5.28c.13.05.26.08.39.08.21,0,.43-.07.6-.2l9.68-7.29c.31-.23.46-.63.38-1.01-.08-.38-.37-.68-.75-.77l-14.08-3.27c-.07-.02-.15-.03-.23-.03h0Z"/></g><polygon class="cls-12" points="41.8 13.01 41.35 18.78 36.63 16.82 41.8 13.01"/><g id="T_p2-2"><path class="cls-30" d="m29.88,21.44c-.08,0-.16-.02-.24-.06l-11.44-6.16c-.16-.08-.26-.25-.26-.43s.09-.35.24-.44l8.8-5.28c.08-.05.17-.07.26-.07.04,0,.08,0,.12.01l14.08,3.52c.19.05.34.2.37.4s-.05.39-.21.5l-11.44,7.92c-.08.06-.18.09-.28.09Z"/><path class="cls-31" d="m27.24,9.5l14.08,3.52-11.44,7.92-11.44-6.16,8.8-5.28m0-1c-.18,0-.36.05-.51.14l-8.8,5.28c-.31.18-.49.52-.49.88,0,.36.21.69.53.86l11.44,6.16c.15.08.31.12.47.12.2,0,.4-.06.57-.18l11.44-7.92c.32-.22.48-.62.41-1-.07-.39-.36-.7-.74-.79l-14.08-3.52c-.08-.02-.16-.03-.24-.03h0Z"/></g><polygon class="cls-8" points="30.38 16.59 29.94 21.48 25.92 19.62 30.38 16.59"/><g id="T_p1-2"><path class="cls-21" d="m17.56,24.96c-.1,0-.2-.03-.29-.09l-10.56-7.46c-.14-.1-.22-.26-.21-.44s.11-.33.26-.41l10.56-5.74c.07-.04.16-.06.24-.06.07,0,.13.01.2.04l12.32,5.28c.17.07.29.23.3.42.02.18-.07.36-.23.46l-12.32,7.92c-.08.05-.18.08-.27.08Z"/><path class="cls-31" d="m17.56,11.26l12.32,5.28-12.32,7.92-10.56-7.46,10.56-5.74m0-1c-.16,0-.33.04-.48.12l-10.56,5.74c-.3.16-.5.48-.52.82-.02.34.14.68.42.88l10.56,7.46c.17.12.37.18.58.18.19,0,.38-.05.54-.16l12.32-7.92c.31-.2.49-.56.46-.92-.03-.37-.26-.69-.6-.84l-12.32-5.28c-.13-.05-.26-.08-.39-.08h0Z"/></g></g><g id="contour_OK-2"><path class="cls-27" d="m36.92,7.74l14.08,3.27v33.99l-33.5,2.97-10.5-2.97v-28l10.56-5.74,3.93,1.69,5.75-3.45,5.11,1.28,4.56-3.04m0-1c-.2,0-.39.06-.55.17l-4.2,2.8-4.69-1.18c-.08-.02-.16-.03-.24-.03-.18,0-.36.05-.51.14l-5.31,3.18-3.46-1.49c-.13-.05-.26-.08-.39-.08-.16,0-.33.04-.48.12l-10.56,5.74c-.32.17-.52.51-.52.88v28c0,.45.3.84.73.96l10.5,2.97c.09.03.18.04.27.04.03,0,.06,0,.09,0l33.5-2.97c.52-.05.91-.48.91-1V11.01c0-.47-.32-.87-.77-.97l-14.08-3.27c-.07-.02-.15-.03-.23-.03h0Z"/></g></g><g id="caisse_copy_2"><g><polygon points="6.72 51.05 6.72 45.99 12.08 44.41 36.95 44.41 36.95 48.51 18.42 55.6 6.72 51.05"/><path class="cls-19" d="m36.44,44.91v3.25l-18.02,6.9-11.21-4.36v-4.34l4.93-1.45h24.3m1-1H12l-5.78,1.7v5.77l12.2,4.75,19.02-7.28v-4.94h0Z"/></g><g id="AAA1"><polygon class="cls-9" points="22.23 35.3 12.33 39.23 12.33 48.65 17.75 50.68 27.64 46.73 27.65 37.32 22.23 35.3"/><polygon id="_2" class="cls-20" points="12.33 39.23 12.33 48.65 17.75 50.68 17.75 41.27 12.33 39.23"/><polygon id="_3" class="cls-11" points="27.65 37.32 27.64 46.73 17.75 50.68 17.75 41.27 27.65 37.32"/><path id="_1" class="cls-7" d="m22.23,35.3l-9.9,3.94,5.42,2.03,9.9-3.94-5.42-2.03Z"/></g><g id="AAA"><polygon class="cls-9" points="11.37 42.88 6.73 44.72 6.73 50.46 12.15 52.54 16.79 50.64 16.8 44.91 11.37 42.88"/><polygon id="_2-2" class="cls-20" points="6.73 44.72 6.73 50.46 12.15 52.54 12.15 46.82 6.73 44.72"/><polygon id="_3-2" class="cls-11" points="16.8 44.91 16.79 50.64 12.15 52.54 12.15 46.82 16.8 44.91"/><path id="_1-2" class="cls-6" d="m11.37,42.88l-4.64,1.84,5.42,2.1,4.65-1.91-5.42-2.03Z"/></g><g id="AAA-2"><polygon class="cls-9" points="29.07 40.47 24.43 42.2 24.43 48.44 29.85 50.53 34.49 48.74 34.49 42.5 29.07 40.47"/><polygon id="_2-3" class="cls-20" points="24.43 42.2 24.43 48.44 29.85 50.53 29.85 44.28 24.43 42.2"/><polygon id="_3-3" class="cls-11" points="34.49 42.5 34.49 48.74 29.85 50.53 29.85 44.28 34.49 42.5"/><path id="_1-3" class="cls-3" d="m29.07,40.47l-4.64,1.73,5.42,2.08,4.64-1.79-5.42-2.03Z"/></g><g id="AAA1-2"><polygon class="cls-9" points="23.23 44.37 12.94 48.33 12.94 52.85 18.36 54.93 28.64 50.98 28.64 46.48 23.23 44.37"/><polygon id="_2-4" class="cls-20" points="12.94 48.33 12.94 52.85 18.36 54.93 18.36 50.43 12.94 48.33"/><polygon id="_3-4" class="cls-4" points="28.64 46.48 28.64 50.98 18.36 54.93 18.36 50.43 28.64 46.48"/><polygon id="_3-5" class="cls-11" points="28.64 46.48 28.64 50.98 18.36 54.93 18.36 50.43 28.64 46.48"/><path id="_1-4" class="cls-5" d="m23.23,44.37l-10.29,3.96,5.42,2.1,10.28-3.95-5.41-2.11Z"/></g></g><path id="masque_CAMENBERT_" class="cls-2" d="m52.2,19.6c.53,0-2.48-.79-2.63-.79-5.78-.05-8.47,4.09-8.47,9.35,0,4.17,4.16,7.56,8.34,7.56s7.56-3.38,7.56-7.56v-.44h-4.79v-8.11Z"/><g id="ok_cAMENBERT_"><g class="cls-24"><path class="cls-22" d="m49.77,18.71v7.11h7.11c-.21-3.84-3.27-6.9-7.11-7.11Z"/><path class="cls-19" d="m48.88,19.6h-.44c-4.17,0-7.56,3.38-7.56,7.56s3.38,7.56,7.56,7.56,7.56-3.38,7.56-7.56v-.44h-7.11v-7.11Z"/></g></g><g id="Layer_19_copy_2"><path class="cls-2" d="m50.45,42c0,.55-.4,1.21-.89,1.46l-9.29,4.82c-.49.25-1.28.68-1.76.95l-6.19,2.45c-.51.21-.92-.07-.92-.62v-16.06c0-1.66,1.4-3,3.05-3h15c.55,0,1,.45,1,1v9Z"/><g><g><rect class="cls-28" x="33.5" y="33.5" width="19" height="25" rx="1.5" ry="1.5"/><path class="cls-17" d="m51,34c.55,0,1,.45,1,1v22c0,.55-.45,1-1,1h-16c-.55,0-1-.45-1-1v-22c0-.55.45-1,1-1h16m0-1h-16c-1.1,0-2,.9-2,2v22c0,1.1.9,2,2,2h16c1.1,0,2-.9,2-2v-22c0-1.1-.9-2-2-2h0Z"/></g><g><rect class="cls-15" x="36.24" y="32.42" width="13" height="4" rx="1" ry="1"/><rect class="cls-14" x="36.24" y="32.42" width="13" height="4" rx="1" ry="1"/></g><g><rect class="cls-25" x="39.24" y="30.42" width="7" height="3" rx="1" ry="1"/><rect class="cls-14" x="39.24" y="30.42" width="7" height="3" rx="1" ry="1"/></g></g><g id="Layer_21_copy_2"><g id="txt_ok"><rect class="cls-35" x="42.38" y="54.63" width="6" height="1"/><rect class="cls-18" x="42.38" y="46.63" width="6" height="1"/><rect class="cls-32" x="42.38" y="40.63" width="6" height="1"/></g><polygon id="_1a" class="Dark_Grey_Gradient_3" points="37.76 56.4 36.33 54.97 36.33 54.21 37.09 54.21 37.76 54.89 39.88 52.77 40.64 52.77 40.64 53.53 37.76 56.4"/><polygon id="_1b" class="Dark_Grey_Gradient_3" points="37.76 56.4 36.33 54.97 36.33 54.21 37.09 54.21 37.76 54.89 39.88 52.77 40.64 52.77 40.64 53.53 37.76 56.4"/><polygon id="_2a" class="Dark_Grey_Gradient_3" points="37.76 48.88 36.33 47.45 36.33 46.69 37.09 46.69 37.76 47.37 39.88 45.25 40.64 45.25 40.64 46.01 37.76 48.88"/><polygon id="_2b" class="Dark_Grey_Gradient_3" points="37.76 48.88 36.33 47.45 36.33 46.69 37.09 46.69 37.76 47.37 39.88 45.25 40.64 45.25 40.64 46.01 37.76 48.88"/><polygon id="_3a" class="Dark_Grey_Gradient_3" points="37.76 42.36 36.33 40.93 36.33 40.17 37.09 40.17 37.76 40.85 39.88 38.73 40.64 38.73 40.64 39.49 37.76 42.36"/><polygon id="_3b" class="Dark_Grey_Gradient_3" points="37.76 42.36 36.33 40.93 36.33 40.17 37.09 40.17 37.76 40.85 39.88 38.73 40.64 38.73 40.64 39.49 37.76 42.36"/></g></g><g id="valid_ok_ok_2_copy_2"><polygon id="DeActivate" class="cls-2" points="49.05 50.32 45.62 46.83 42.59 49.94 49.17 56.69 59.37 46.31 56.17 43.05 49.05 50.32"/><polyline id="Activate" class="cls-13" points="42.59 49.94 49.17 56.69 59.37 46.31"/><polygon id="DeActivate-2" class="cls-19" points="49.05 50.32 45.62 46.83 43.54 48.98 49.17 54.72 58.42 45.35 56.17 43.05 49.05 50.32"/></g></svg>