<svg id="governance" xmlns="http://www.w3.org/2000/svg" xmlns:xlink="http://www.w3.org/1999/xlink" viewBox="0 0 64 64"><defs><style>.cls-1{fill:#fff;}.cls-2{mask:url(#mask);}.cls-3{fill:#d5e8f2;}.cls-4{fill:#368ec4;}.cls-5{fill:none;stroke:#053755;stroke-linejoin:round;stroke-width:1.13px;}.cls-6{fill:#005686;}.cls-7{fill:url(#Dégradé_sans_nom_21);}</style><mask id="mask" x="-1.78" y="1.64" width="67.56" height="59.11" maskUnits="userSpaceOnUse"><circle class="cls-1" cx="32" cy="32.04" r="23.65"/></mask><linearGradient id="Dégradé_sans_nom_21" x1="33.13" y1="37.56" x2="55.38" y2="50.41" gradientUnits="userSpaceOnUse"><stop offset="0" stop-color="#e6e6e6"/><stop offset="1" stop-color="#b3b3b3"/></linearGradient></defs><g class="cls-2"><path class="cls-3" d="M5,43.3V54a6.76,6.76,0,1,0,13.51,0A6.76,6.76,0,1,0,32,54a6.76,6.76,0,1,0,13.51,0A6.76,6.76,0,1,0,59,54V43.3Z"/><path class="cls-4" d="M-1.78,34.29V45a6.76,6.76,0,0,0,13.51,0,6.76,6.76,0,0,0,13.51,0,6.76,6.76,0,0,0,13.52,0,6.76,6.76,0,0,0,13.51,0,6.76,6.76,0,0,0,13.51,0V34.29Z"/><path class="cls-3" d="M5,25.28V36a6.76,6.76,0,0,0,13.51,0A6.76,6.76,0,0,0,32,36a6.76,6.76,0,0,0,13.51,0A6.76,6.76,0,0,0,59,36V25.28Z"/><path class="cls-4" d="M-1.78,16.27V27a6.76,6.76,0,1,0,13.51,0,6.76,6.76,0,1,0,13.51,0,6.76,6.76,0,1,0,13.52,0,6.76,6.76,0,1,0,13.51,0,6.76,6.76,0,1,0,13.51,0V16.27Z"/><path class="cls-3" d="M5,7.27V18a6.76,6.76,0,1,0,13.51,0A6.76,6.76,0,1,0,32,18a6.76,6.76,0,1,0,13.51,0A6.76,6.76,0,1,0,59,18V7.27Z"/><path class="cls-4" d="M38.76,1.64h-27V9A6.76,6.76,0,1,0,25.24,9,6.76,6.76,0,1,0,38.76,9,6.76,6.76,0,1,0,52.27,9V1.64Z"/></g><circle class="cls-5" cx="32" cy="32.04" r="24.21"/><g id="Calque_23_-_copie_13" data-name="Calque 23 - copie 13"><g id="Calque_13_-_copie_3" data-name="Calque 13 - copie 3"><rect class="cls-1" x="16.82" y="35.89" width="29.67" height="12.83"/><rect class="cls-6" x="18.89" y="37.49" width="1" height="1"/><rect class="cls-6" x="21.89" y="37.49" width="8.72" height="1"/><rect class="cls-6" x="18.89" y="40.49" width="11.72" height="1"/><rect class="cls-6" x="18.89" y="43.49" width="11.72" height="1"/><rect class="cls-6" x="18.89" y="46.49" width="5.98" height="1"/><rect class="cls-6" x="35.95" y="37.49" width="8.72" height="1"/><rect class="cls-6" x="36.07" y="40.49" width="8.6" height="1"/><rect class="cls-6" x="32.95" y="43.49" width="11.72" height="1"/></g><rect class="cls-6" x="31.83" y="12.13" width="6.69" height="20.87"/><path class="cls-1" d="M37.52,13.13V32H32.83V13.13h4.69m2-2H30.83V34h8.69V11.13Z"/><rect class="cls-6" x="38.86" y="16.06" width="6.69" height="16.94"/><path class="cls-1" d="M44.55,17.06V32H39.86V17.06h4.69m2-2H37.86V34h8.69V15.06Z"/><rect class="cls-6" x="24.8" y="16.06" width="6.69" height="16.94"/><path class="cls-1" d="M30.49,17.06V32H25.8V17.06h4.69m2-2H23.8V34h8.69V15.06Z"/><rect class="cls-6" x="17.77" y="22.35" width="6.69" height="10.65"/><path class="cls-1" d="M23.45,23.35V32H18.77V23.35h4.68m2-2H16.77V34h8.68V21.35Z"/></g><path class="cls-7" d="M44.25,56.84a11.16,11.16,0,0,1-2.46-.25l-.19-.05V53.23a.85.85,0,0,0-.5-.83,1.89,1.89,0,0,0-.81-.3.94.94,0,0,0-.67.28L37.2,54.74l-.16-.1c-.33-.21-.66-.43-1-.68a5.88,5.88,0,0,1-.94-.87,6.11,6.11,0,0,1-.85-.91c-.25-.33-.47-.66-.67-1L33.49,51l2.36-2.42a.91.91,0,0,0,.29-.66,2.5,2.5,0,0,0-.28-.8.84.84,0,0,0-.85-.51H31.69l0-.19a12.23,12.23,0,0,1,0-4.92l0-.19H35a.86.86,0,0,0,.83-.5,2.06,2.06,0,0,0,.3-.81.91.91,0,0,0-.29-.66l-2.36-2.43.11-.17a12.13,12.13,0,0,1,1.53-1.9,10.28,10.28,0,0,1,.93-.8l1.13-.85,2.43,2.37a.91.91,0,0,0,.67.29,2.43,2.43,0,0,0,.79-.28.84.84,0,0,0,.52-.85V31.43l.2,0A10.48,10.48,0,0,1,43,31.2a12.38,12.38,0,0,1,1.26-.06,12,12,0,0,1,1.25.06,10.64,10.64,0,0,1,1.2.19l.2,0v3.32a.83.83,0,0,0,.48.85,2.26,2.26,0,0,0,.83.28.87.87,0,0,0,.66-.29l2.43-2.37.17.13a8.72,8.72,0,0,1,.92.77c.28.26.58.52.9.8s.57.64.83.92a11.61,11.61,0,0,1,.76.92l.13.17-2.37,2.43a1,1,0,0,0-.29.67,2.42,2.42,0,0,0,.28.79.83.83,0,0,0,.85.52h3.33l0,.2c.08.41.14.8.18,1.19A12.38,12.38,0,0,1,57.09,44,12,12,0,0,1,57,45.24q-.06.59-.18,1.2l0,.2H53.48a.84.84,0,0,0-.85.48,2.32,2.32,0,0,0-.28.83.91.91,0,0,0,.29.66L55,51l-.12.17A16.5,16.5,0,0,1,53.3,53c-.32.32-.62.62-.91.88a6.59,6.59,0,0,1-.93.72l-.17.1-2.42-2.36a.9.9,0,0,0-.66-.28,2.3,2.3,0,0,0-.8.27.84.84,0,0,0-.51.86v3.31l-.2.05A11.06,11.06,0,0,1,44.25,56.84Zm0-17a4,4,0,0,0-2.92,1.22,4.1,4.1,0,0,0,0,5.82,4,4,0,0,0,2.92,1.22,4.13,4.13,0,0,0,0-8.26Z"/><path d="M44.25,31.39a11.78,11.78,0,0,1,1.23.06q.57.06,1.17.18v3.12a1.09,1.09,0,0,0,.63,1.08,2.51,2.51,0,0,0,.93.3,1.15,1.15,0,0,0,.84-.36l2.27-2.22a11.17,11.17,0,0,1,.9.75l.9.81.81.9a11.17,11.17,0,0,1,.75.9l-2.22,2.28a1.15,1.15,0,0,0-.36.84,2.79,2.79,0,0,0,.3.9,1.09,1.09,0,0,0,1.08.66H56.6q.12.6.18,1.17a12.64,12.64,0,0,1,0,2.46q-.06.57-.18,1.17H53.48A1.09,1.09,0,0,0,52.4,47a2.51,2.51,0,0,0-.3.93,1.15,1.15,0,0,0,.36.84l2.22,2.28a15.65,15.65,0,0,1-1.56,1.8c-.32.31-.62.61-.9.86a5.44,5.44,0,0,1-.9.7l-2.27-2.22a1.15,1.15,0,0,0-.84-.36,2.71,2.71,0,0,0-.9.3,1.09,1.09,0,0,0-.66,1.08v3.12a12.12,12.12,0,0,1-4.8,0V53.23a1.1,1.1,0,0,0-.63-1,2.34,2.34,0,0,0-.93-.33,1.15,1.15,0,0,0-.84.36l-2.28,2.22q-.48-.3-1-.66a6.45,6.45,0,0,1-.9-.84,5.9,5.9,0,0,1-.84-.9c-.24-.33-.46-.64-.66-1L36,48.79a1.15,1.15,0,0,0,.36-.84,2.79,2.79,0,0,0-.3-.9A1.09,1.09,0,0,0,35,46.39H31.89a12.12,12.12,0,0,1,0-4.8H35A1.1,1.1,0,0,0,36.06,41a2.34,2.34,0,0,0,.33-.93,1.15,1.15,0,0,0-.36-.84l-2.22-2.28a11.31,11.31,0,0,1,1.5-1.86,8.39,8.39,0,0,1,.9-.78l1-.72,2.28,2.22a1.15,1.15,0,0,0,.84.36,2.79,2.79,0,0,0,.9-.3,1.09,1.09,0,0,0,.66-1.08V31.63q.6-.12,1.17-.18a11.78,11.78,0,0,1,1.23-.06m0,17a4.4,4.4,0,1,0-3.09-1.29,4.22,4.22,0,0,0,3.09,1.29m0-17.48c-.45,0-.88,0-1.28.06s-.81.11-1.22.19l-.4.08v3.53a.58.58,0,0,1-.37.62,2.35,2.35,0,0,1-.7.26.68.68,0,0,1-.48-.21l-2.28-2.23-.31-.29-.34.25-.55.41-.41.31a11,11,0,0,0-1,.83,11.74,11.74,0,0,0-1.56,1.94l-.22.33.28.29,2.22,2.28a.66.66,0,0,1,.22.49,2,2,0,0,1-.27.7.63.63,0,0,1-.61.36H31.5l-.1.38a12.78,12.78,0,0,0,0,5l.1.39H35a.57.57,0,0,1,.62.37,2.59,2.59,0,0,1,.26.69.66.66,0,0,1-.21.48l-2.23,2.29-.27.28.21.33c.2.33.43.66.68,1a6,6,0,0,0,.88,1,6.14,6.14,0,0,0,1,.89c.33.24.66.47,1,.68l.33.21.29-.28,2.28-2.22a.64.64,0,0,1,.49-.21,1.69,1.69,0,0,1,.69.27.6.6,0,0,1,.37.61v3.51l.38.09a12.29,12.29,0,0,0,5,0l.39-.09V53.23a.59.59,0,0,1,.36-.63,2.55,2.55,0,0,1,.7-.25.62.62,0,0,1,.48.21L51,54.78l.28.28.33-.21a6.52,6.52,0,0,0,1-.75c.28-.26.58-.56.91-.88a16,16,0,0,0,1.61-1.86l.25-.34-.3-.3-2.22-2.28A.67.67,0,0,1,52.6,48a2.2,2.2,0,0,1,.26-.72.58.58,0,0,1,.62-.34H57l.08-.41a10.81,10.81,0,0,0,.19-1.21c0-.4.06-.83.06-1.28s0-.88-.06-1.28a11,11,0,0,0-.19-1.22l-.08-.4H53.48a.59.59,0,0,1-.62-.37A2.74,2.74,0,0,1,52.6,40a.66.66,0,0,1,.22-.49L55,37.26l.3-.31-.26-.34a10.52,10.52,0,0,0-.78-.94l-.8-.89,0,0,0,0-.88-.79a11.69,11.69,0,0,0-1-.79l-.34-.25-.3.29L48.7,35.41a.67.67,0,0,1-.49.22,1.93,1.93,0,0,1-.72-.25.59.59,0,0,1-.34-.63V31.22l-.4-.08c-.42-.08-.83-.14-1.22-.19s-.83-.06-1.28-.06Zm0,17A3.93,3.93,0,1,1,47,46.72a3.7,3.7,0,0,1-2.73,1.15Z"/></svg>