<svg xmlns="http://www.w3.org/2000/svg" xmlns:xlink="http://www.w3.org/1999/xlink" viewBox="0 0 64 64"><defs><linearGradient id="linear-gradient" x1="14.33" y1="9.02" x2="41.45" y2="56" gradientUnits="userSpaceOnUse"><stop offset="0" stop-color="#fff"/><stop offset="1" stop-color="#d2d2d2"/></linearGradient><linearGradient id="linear-gradient-2" x1="33.95" y1="9.79" x2="42.84" y2="25.19" gradientUnits="userSpaceOnUse"><stop offset="0" stop-color="#f5f5f5"/><stop offset="1" stop-color="#bebebe"/></linearGradient><linearGradient id="linear-gradient-3" x1="49.54" y1="59.46" x2="34.78" y2="33.89" gradientUnits="userSpaceOnUse"><stop offset="0" stop-color="#386f8d"/><stop offset="1" stop-color="#8dd7f4"/></linearGradient><linearGradient id="linear-gradient-4" x1="42" y1="52.65" x2="42" y2="42.65" gradientUnits="userSpaceOnUse"><stop offset="0" stop-color="#161616"/><stop offset="1" stop-color="#515151"/></linearGradient></defs><g id="FINAL_ART" data-name="FINAL ART"><polygon points="47.5 52.5 13.5 52.5 13.5 9.5 35.47 9.5 47.5 21.57 47.5 52.5" stroke="#787878" stroke-linecap="round" stroke-linejoin="round" fill="url(#linear-gradient)"/><polygon points="34.5 22.5 34.45 9.5 35.55 9.5 47.5 21.5 47.5 22.5 34.5 22.5" stroke="#787878" stroke-linecap="round" stroke-linejoin="round" fill="url(#linear-gradient-2)"/><polygon points="47.5 52.5 13.5 52.5 13.5 9.5 35.47 9.5 47.5 21.57 47.5 52.5" fill="none" stroke="#323232" stroke-linecap="round" stroke-linejoin="round"/><rect x="17" y="25" width="27" height="2" fill="#b2b2b2"/><rect x="17" y="15" width="14" height="2" fill="#b2b2b2"/><path d="M51.5,37.5a9.51,9.51,0,0,0-19,0v3h4v-2c0-.16,0-.33,0-.5a5.5,5.5,0,0,1,11,0c0,.17,0,.34,0,.5v2h4Z" fill="#b4b4b4" stroke="#333332" stroke-linecap="round" stroke-linejoin="round"/><path d="M30.5,40.5v11a3,3,0,0,0,3,3h17a3,3,0,0,0,3-3v-11Z" stroke="#053755" stroke-linecap="round" stroke-linejoin="round" fill="url(#linear-gradient-3)"/><path d="M32,51.56V42H53V41H31V51.35a2.85,2.85,0,0,0,2.86,2.82h.93A2.72,2.72,0,0,1,32,51.56Z" fill="#fff" opacity="0.4"/><path d="M43.5,45h-3c-.55,0-.5,1-.5,1.5s.45.5,1,.5v5h2V47c.55,0,1,0,1-.5S44.05,45,43.5,45Z" fill-rule="evenodd" fill="url(#linear-gradient-4)"/><path d="M30.34,35H17v2H30A11.76,11.76,0,0,1,30.34,35Z" fill="#b2b2b2"/><rect x="17" y="45" width="11" height="2" fill="#b2b2b2"/></g></svg>