<?xml version="1.0" encoding="UTF-8"?><svg xmlns="http://www.w3.org/2000/svg" xmlns:xlink="http://www.w3.org/1999/xlink" viewBox="0 0 64 64"><defs><linearGradient id="linear-gradient" x1="34.44" y1="7.65" x2="47.56" y2="30.35" gradientUnits="userSpaceOnUse"><stop offset="0" stop-color="#8cd7f5"/><stop offset="1" stop-color="#376e8c"/></linearGradient><linearGradient id="linear-gradient-2" x1="40.28" y1="36.1" x2="51.72" y2="55.9" gradientUnits="userSpaceOnUse"><stop offset="0" stop-color="#fff"/><stop offset="1" stop-color="#d4d5d3"/></linearGradient><linearGradient id="linear-gradient-3" x1="23.19" y1="25.28" x2="25.78" y2="29.76" gradientTransform="translate(.06 -9.81) scale(1 1.38)" xlink:href="#linear-gradient-2"/><linearGradient id="linear-gradient-4" x1="27.57" y1="13.3" x2="40.93" y2="36.45" xlink:href="#linear-gradient"/><linearGradient id="linear-gradient-5" x1="15.33" y1="40.05" x2="24.73" y2="56.32" xlink:href="#linear-gradient-2"/><linearGradient id="linear-gradient-6" x1="17.59" y1="23.14" x2="26.35" y2="38.32" xlink:href="#linear-gradient-2"/><linearGradient id="linear-gradient-7" x1="17.4" y1="28.53" x2="23.66" y2="39.38" gradientUnits="userSpaceOnUse"><stop offset="0" stop-color="#fff"/><stop offset="1" stop-color="#dddddb"/></linearGradient><linearGradient id="linear-gradient-8" x1="15.33" y1="40.05" x2="24.73" y2="56.32" xlink:href="#linear-gradient-7"/><linearGradient id="linear-gradient-9" x1="12.33" y1="31.56" x2="26.16" y2="55.5" xlink:href="#linear-gradient-2"/><linearGradient id="linear-gradient-10" x1="12.33" y1="31.56" x2="26.16" y2="55.5" xlink:href="#linear-gradient-2"/><linearGradient id="linear-gradient-11" x1="17.52" y1="28.56" x2="23.74" y2="39.33" gradientUnits="userSpaceOnUse"><stop offset="0" stop-color="#fafafb"/><stop offset="1" stop-color="#c9c6c5"/></linearGradient><linearGradient id="linear-gradient-12" x1="23.19" y1="25.28" x2="25.78" y2="29.76" gradientTransform="translate(.06 -9.81) scale(1 1.38)" xlink:href="#linear-gradient-2"/><linearGradient id="linear-gradient-13" x1="27.63" y1="31.17" x2="30.41" y2="35.98" xlink:href="#linear-gradient-2"/><linearGradient id="linear-gradient-14" x1="28.25" y1="28.2" x2="29.75" y2="30.8" xlink:href="#linear-gradient-2"/><linearGradient id="linear-gradient-15" x1="19.66" y1="45.41" x2="22.59" y2="50.48" gradientUnits="userSpaceOnUse"><stop offset="0" stop-color="#b4b1b0"/><stop offset="1" stop-color="#615d5c"/></linearGradient><linearGradient id="linear-gradient-16" x1="28.16" y1="47.24" x2="30.61" y2="51.48" gradientTransform="translate(33.51 -10.2) rotate(45) scale(1.01 .96)" xlink:href="#linear-gradient-15"/><linearGradient id="linear-gradient-17" x1="46" y1="51" x2="46" y2="41.77" gradientUnits="userSpaceOnUse"><stop offset="0" stop-color="#fff"/><stop offset="1" stop-color="#000"/></linearGradient></defs><g id="Layer_1"><rect x="29.5" y="10.5" width="23" height="17" fill="url(#linear-gradient)" stroke="#003755" stroke-linejoin="round"/><polygon points="27.5 29.5 27.5 14.5 25.5 14.5 25.5 31.5 49.5 31.5 49.5 29.5 27.5 29.5" fill="url(#linear-gradient-4)" stroke="#003755" stroke-linejoin="round"/><rect x="32" y="14" width="18" height="2" fill="#fff"/><rect x="32" y="18" width="18" height="2" fill="#fff"/><rect x="32" y="22" width="11" height="2" fill="#fff"/></g><g id="Layer_5"><g opacity=".5"><g><path d="M29.14,43.11c-.43-.58-.93-1.09-1.52-1.54-.23-.18-.48-.33-.73-.48-.22-.13-.46-.25-.7-.35l-1.32-1.32-3.53,2.65c-.28,.02-.55,.06-.84,.06-.18,0-.35-.03-.52-.04l-3.56-2.67-1.1,1.1s0,0,0,0c-.71,.26-1.35,.61-1.94,1.06-.58,.45-1.09,.96-1.52,1.54s-.76,1.21-1,1.91c-.24,.7-.36,1.42-.36,2.18v5.11c0,.34,.12,.62,.36,.85,.24,.23,.54,.34,.89,.34H29.25c.35,0,.65-.11,.89-.34,.24-.23,.36-.51,.36-.85v-5.11c0-.76-.12-1.48-.36-2.18s-.57-1.33-1-1.91Z" fill="#fff"/><path d="M14.5,30.5c0,.46,.09,.86,.22,1.24-.27,.7-.41,1.43-.41,2.21,0,.87,.16,1.69,.49,2.44,.33,.76,.77,1.42,1.33,1.98,.56,.57,1.22,1.01,1.97,1.34,.75,.33,1.56,.49,2.42,.49,.02,0,.04,0,.06,0,.02,0,.04,0,.06,0,.83,0,1.62-.16,2.36-.49,.74-.33,1.39-.78,1.94-1.34,.55-.57,.99-1.23,1.31-1.98,.32-.75,.48-1.57,.48-2.44,0-.8-.14-1.55-.42-2.27,.11-.36,.19-.75,.19-1.18v-1.18l1.26-.67c-.17,.24-.26,.53-.26,.85,0,.58,.33,1.07,.81,1.32-.14,.13-.24,.27-.27,.45l-.53,4c-.09,.66,.61,1.23,1.49,1.23s1.53-.53,1.5-1.16l-.18-4.01c-.01-.26-.18-.47-.43-.63,.37-.27,.61-.71,.61-1.2,0-.83-.67-1.5-1.5-1.5,0,0,0,0,0,0l1.45-.77-9.94-4.73-10,4.73,4,2.11v1.16Z" fill="#fff"/></g><g><path d="M29.14,43.11c-.43-.58-.93-1.09-1.52-1.54-.23-.18-.48-.33-.73-.48-.22-.13-.46-.25-.7-.35l-1.32-1.32-3.53,2.65c-.28,.02-.55,.06-.84,.06-.18,0-.35-.03-.52-.04l-3.56-2.67-1.1,1.1s0,0,0,0c-.71,.26-1.35,.61-1.94,1.06-.58,.45-1.09,.96-1.52,1.54s-.76,1.21-1,1.91c-.24,.7-.36,1.42-.36,2.18v5.11c0,.34,.12,.62,.36,.85,.24,.23,.54,.34,.89,.34H29.25c.35,0,.65-.11,.89-.34,.24-.23,.36-.51,.36-.85v-5.11c0-.76-.12-1.48-.36-2.18s-.57-1.33-1-1.91Z" fill="url(#linear-gradient-5)" stroke="#323232" stroke-linejoin="round"/><path d="M14.5,30.5c0,.46,.09,.86,.22,1.24-.27,.7-.41,1.43-.41,2.21,0,.87,.16,1.69,.49,2.44,.33,.76,.77,1.42,1.33,1.98,.56,.57,1.22,1.01,1.97,1.34,.75,.33,1.56,.49,2.42,.49,.02,0,.04,0,.06,0,.02,0,.04,0,.06,0,.83,0,1.62-.16,2.36-.49,.74-.33,1.39-.78,1.94-1.34,.55-.57,.99-1.23,1.31-1.98,.32-.75,.48-1.57,.48-2.44,0-.8-.14-1.55-.42-2.27,.11-.36,.19-.75,.19-1.18v-1.18l1.26-.67c-.17,.24-.26,.53-.26,.85,0,.58,.33,1.07,.81,1.32-.14,.13-.24,.27-.27,.45l-.53,4c-.09,.66,.61,1.23,1.49,1.23s1.53-.53,1.5-1.16l-.18-4.01c-.01-.26-.18-.47-.43-.63,.37-.27,.61-.71,.61-1.2,0-.83-.67-1.5-1.5-1.5,0,0,0,0,0,0l1.45-.77-9.94-4.73-10,4.73,4,2.11v1.16Z" fill="url(#linear-gradient-6)" stroke="#323232" stroke-linejoin="round"/></g><g><path d="M29.14,43.11c-.43-.58-.93-1.09-1.52-1.54-.23-.18-.48-.33-.73-.48-.22-.13-.46-.25-.7-.35l-1.32-1.32-3.53,2.65c-.28,.02-.55,.06-.84,.06-.18,0-.35-.03-.52-.04l-3.56-2.67-1.1,1.1s0,0,0,0c-.71,.26-1.35,.61-1.94,1.06-.58,.45-1.09,.96-1.52,1.54s-.76,1.21-1,1.91c-.24,.7-.36,1.42-.36,2.18v5.11c0,.34,.12,.62,.36,.85,.24,.23,.54,.34,.89,.34H29.25c.35,0,.65-.11,.89-.34,.24-.23,.36-.51,.36-.85v-5.11c0-.76-.12-1.48-.36-2.18s-.57-1.33-1-1.91Z" fill="none" stroke="#fff" stroke-linejoin="round" stroke-width="3"/><path d="M14.5,30.5c0,.46,.09,.86,.22,1.24-.27,.7-.41,1.43-.41,2.21,0,.87,.16,1.69,.49,2.44,.33,.76,.77,1.42,1.33,1.98,.56,.57,1.22,1.01,1.97,1.34,.75,.33,1.56,.49,2.42,.49,.02,0,.04,0,.06,0,.02,0,.04,0,.06,0,.83,0,1.62-.16,2.36-.49,.74-.33,1.39-.78,1.94-1.34,.55-.57,.99-1.23,1.31-1.98,.32-.75,.48-1.57,.48-2.44,0-.8-.14-1.55-.42-2.27,.11-.36,.19-.75,.19-1.18v-1.18l1.26-.67c-.17,.24-.26,.53-.26,.85,0,.58,.33,1.07,.81,1.32-.14,.13-.24,.27-.27,.45l-.53,4c-.09,.66,.61,1.23,1.49,1.23s1.53-.53,1.5-1.16l-.18-4.01c-.01-.26-.18-.47-.43-.63,.37-.27,.61-.71,.61-1.2,0-.83-.67-1.5-1.5-1.5,0,0,0,0,0,0l1.45-.77-9.94-4.73-10,4.73,4,2.11v1.16Z" fill="none" stroke="#fff" stroke-linejoin="round" stroke-width="3"/></g></g><g opacity=".5"><g><path d="M16.13,38.38c.56,.57,1.22,1.01,1.97,1.34,.75,.33,1.56,.49,2.42,.49,.02,0,.04,0,.06,0,.02,0,.04,0,.06,0,.83,0,1.62-.16,2.36-.49,.74-.33,1.39-.78,1.94-1.34,.55-.57,.99-1.23,1.31-1.98,.32-.75,.48-1.57,.48-2.44s-.16-1.66-.48-2.43c-.32-.77-.76-1.43-1.31-2-.55-.57-1.2-1.01-1.94-1.34-.74-.33-1.53-.49-2.36-.49-.02,0-.04,0-.06,0-.02,0-.04,0-.06,0-.87,0-1.67,.16-2.42,.49-.75,.33-1.4,.78-1.97,1.34-.56,.57-1.01,1.23-1.33,2-.32,.77-.49,1.58-.49,2.43s.16,1.69,.49,2.44c.33,.76,.77,1.42,1.33,1.98Z" fill="#fff"/><path d="M30.14,45.02c-.24-.7-.57-1.33-1-1.91-.43-.58-.93-1.09-1.52-1.54-.44-.34-.92-.6-1.43-.83l-1.32-1.32-3.53,2.65c-.28,.02-.55,.06-.84,.06-.18,0-.35-.03-.52-.04l-3.56-2.67-1.1,1.1s0,0,0,0c-.71,.26-1.35,.61-1.94,1.06-.58,.45-1.09,.96-1.52,1.54s-.76,1.21-1,1.91c-.24,.7-.36,1.42-.36,2.18v5.11c0,.34,.12,.62,.36,.85,.24,.23,.54,.34,.89,.34H29.25c.35,0,.65-.11,.89-.34,.24-.23,.36-.51,.36-.85v-5.11c0-.76-.12-1.48-.36-2.18Z" fill="#fff"/></g><g><path d="M16.13,38.38c.56,.57,1.22,1.01,1.97,1.34,.75,.33,1.56,.49,2.42,.49,.02,0,.04,0,.06,0,.02,0,.04,0,.06,0,.83,0,1.62-.16,2.36-.49,.74-.33,1.39-.78,1.94-1.34,.55-.57,.99-1.23,1.31-1.98,.32-.75,.48-1.57,.48-2.44s-.16-1.66-.48-2.43c-.32-.77-.76-1.43-1.31-2-.55-.57-1.2-1.01-1.94-1.34-.74-.33-1.53-.49-2.36-.49-.02,0-.04,0-.06,0-.02,0-.04,0-.06,0-.87,0-1.67,.16-2.42,.49-.75,.33-1.4,.78-1.97,1.34-.56,.57-1.01,1.23-1.33,2-.32,.77-.49,1.58-.49,2.43s.16,1.69,.49,2.44c.33,.76,.77,1.42,1.33,1.98Z" fill="url(#linear-gradient-7)" stroke="#3a3634" stroke-linejoin="round" stroke-width=".92"/><path d="M30.14,45.02c-.24-.7-.57-1.33-1-1.91-.43-.58-.93-1.09-1.52-1.54-.44-.34-.92-.6-1.43-.83l-1.32-1.32-3.53,2.65c-.28,.02-.55,.06-.84,.06-.18,0-.35-.03-.52-.04l-3.56-2.67-1.1,1.1s0,0,0,0c-.71,.26-1.35,.61-1.94,1.06-.58,.45-1.09,.96-1.52,1.54s-.76,1.21-1,1.91c-.24,.7-.36,1.42-.36,2.18v5.11c0,.34,.12,.62,.36,.85,.24,.23,.54,.34,.89,.34H29.25c.35,0,.65-.11,.89-.34,.24-.23,.36-.51,.36-.85v-5.11c0-.76-.12-1.48-.36-2.18Z" fill="url(#linear-gradient-8)" stroke="#3a3634" stroke-linejoin="round" stroke-width=".92"/></g><g><path d="M16.13,38.38c.56,.57,1.22,1.01,1.97,1.34,.75,.33,1.56,.49,2.42,.49,.02,0,.04,0,.06,0,.02,0,.04,0,.06,0,.83,0,1.62-.16,2.36-.49,.74-.33,1.39-.78,1.94-1.34,.55-.57,.99-1.23,1.31-1.98,.32-.75,.48-1.57,.48-2.44s-.16-1.66-.48-2.43c-.32-.77-.76-1.43-1.31-2-.55-.57-1.2-1.01-1.94-1.34-.74-.33-1.53-.49-2.36-.49-.02,0-.04,0-.06,0-.02,0-.04,0-.06,0-.87,0-1.67,.16-2.42,.49-.75,.33-1.4,.78-1.97,1.34-.56,.57-1.01,1.23-1.33,2-.32,.77-.49,1.58-.49,2.43s.16,1.69,.49,2.44c.33,.76,.77,1.42,1.33,1.98Z" fill="none" stroke="#fff" stroke-linejoin="round" stroke-width="3"/><path d="M30.14,45.02c-.24-.7-.57-1.33-1-1.91-.43-.58-.93-1.09-1.52-1.54-.44-.34-.92-.6-1.43-.83l-1.32-1.32-3.53,2.65c-.28,.02-.55,.06-.84,.06-.18,0-.35-.03-.52-.04l-3.56-2.67-1.1,1.1s0,0,0,0c-.71,.26-1.35,.61-1.94,1.06-.58,.45-1.09,.96-1.52,1.54s-.76,1.21-1,1.91c-.24,.7-.36,1.42-.36,2.18v5.11c0,.34,.12,.62,.36,.85,.24,.23,.54,.34,.89,.34H29.25c.35,0,.65-.11,.89-.34,.24-.23,.36-.51,.36-.85v-5.11c0-.76-.12-1.48-.36-2.18Z" fill="none" stroke="#fff" stroke-linejoin="round" stroke-width="3"/></g></g><g><g><path d="M25.69,40.52c.71,.26,1.35,.61,1.94,1.06,.58,.45,1.09,.96,1.52,1.54,.43,.58,.76,1.21,1,1.91s.36,1.42,.36,2.18v5.11c0,.34-.12,.62-.36,.85s-.54,.34-.89,.34H11.75c-.35,0-.65-.11-.89-.34-.24-.23-.36-.51-.36-.85v-5.11c0-.75,.12-1.48,.36-2.18,.24-.7,.57-1.33,1-1.91s.93-1.09,1.52-1.54c.58-.45,1.23-.8,1.94-1.06,.73,.52,1.54,.91,2.42,1.19,.88,.28,1.81,.42,2.77,.42,1.92,0,3.64-.54,5.19-1.61Z" fill="url(#linear-gradient-9)"/><path d="M26.73,33.95c0,.87-.16,1.69-.48,2.44-.32,.75-.76,1.42-1.31,1.98-.55,.57-1.2,1.01-1.94,1.34-.74,.33-1.53,.49-2.36,.49s-1.64-.16-2.38-.49c-.74-.33-1.38-.78-1.93-1.34-.55-.57-.99-1.23-1.31-1.98-.32-.75-.48-1.57-.48-2.44s.16-1.66,.48-2.43c.32-.77,.76-1.43,1.31-2,.55-.57,1.19-1.01,1.93-1.34,.73-.33,1.53-.49,2.38-.49s1.62,.16,2.36,.49c.74,.33,1.39,.78,1.94,1.34,.55,.57,.99,1.23,1.31,2,.32,.77,.48,1.58,.48,2.43Z" fill="url(#linear-gradient-10)"/></g><g><path d="M25.69,40.52c.71,.26,1.35,.61,1.94,1.06,.58,.45,1.09,.96,1.52,1.54,.43,.58,.76,1.21,1,1.91s.36,1.42,.36,2.18v5.11c0,.34-.12,.62-.36,.85s-.54,.34-.89,.34H11.75c-.35,0-.65-.11-.89-.34-.24-.23-.36-.51-.36-.85v-5.11c0-.75,.12-1.48,.36-2.18,.24-.7,.57-1.33,1-1.91s.93-1.09,1.52-1.54c.58-.45,1.23-.8,1.94-1.06,.73,.52,1.54,.91,2.42,1.19,.88,.28,1.81,.42,2.77,.42,1.92,0,3.64-.54,5.19-1.61Z" fill="url(#linear-gradient)" stroke="#003755" stroke-linejoin="round"/><path d="M26.73,33.95c0,.87-.16,1.69-.48,2.44-.32,.75-.76,1.42-1.31,1.98-.55,.57-1.2,1.01-1.94,1.34-.74,.33-1.53,.49-2.36,.49s-1.64-.16-2.38-.49c-.74-.33-1.38-.78-1.93-1.34-.55-.57-.99-1.23-1.31-1.98-.32-.75-.48-1.57-.48-2.44s.16-1.66,.48-2.43c.32-.77,.76-1.43,1.31-2,.55-.57,1.19-1.01,1.93-1.34,.73-.33,1.53-.49,2.38-.49s1.62,.16,2.36,.49c.74,.33,1.39,.78,1.94,1.34,.55,.57,.99,1.23,1.31,2,.32,.77,.48,1.58,.48,2.43Z" fill="url(#linear-gradient-11)" stroke="#807c7b" stroke-linejoin="round" stroke-width=".92"/></g><g><path d="M25.69,40.52c.71,.26,1.35,.61,1.94,1.06,.58,.45,1.09,.96,1.52,1.54,.43,.58,.76,1.21,1,1.91s.36,1.42,.36,2.18v5.11c0,.34-.12,.62-.36,.85s-.54,.34-.89,.34H11.75c-.35,0-.65-.11-.89-.34-.24-.23-.36-.51-.36-.85v-5.11c0-.75,.12-1.48,.36-2.18,.24-.7,.57-1.33,1-1.91s.93-1.09,1.52-1.54c.58-.45,1.23-.8,1.94-1.06,.73,.52,1.54,.91,2.42,1.19,.88,.28,1.81,.42,2.77,.42,1.92,0,3.64-.54,5.19-1.61Z" fill="none" stroke="#323232" stroke-linejoin="round"/><path d="M26.73,33.95c0,.87-.16,1.69-.48,2.44-.32,.75-.76,1.42-1.31,1.98-.55,.57-1.2,1.01-1.94,1.34-.74,.33-1.53,.49-2.36,.49s-1.64-.16-2.38-.49c-.74-.33-1.38-.78-1.93-1.34-.55-.57-.99-1.23-1.31-1.98-.32-.75-.48-1.57-.48-2.44s.16-1.66,.48-2.43c.32-.77,.76-1.43,1.31-2,.55-.57,1.19-1.01,1.93-1.34,.73-.33,1.53-.49,2.38-.49s1.62,.16,2.36,.49c.74,.33,1.39,.78,1.94,1.34,.55,.57,.99,1.23,1.31,2,.32,.77,.48,1.58,.48,2.43Z" fill="none" stroke="#323232" stroke-linejoin="round"/></g></g><path d="M14.5,26.5v4c0,2.7,2.29,4,6,4s6-1.3,6-4v-4H14.5Z" fill="url(#linear-gradient)" stroke="#003755" stroke-linejoin="round"/><polygon points="20.5 22.5 10.5 27.23 20.5 32.5 30.44 27.23 20.5 22.5" fill="url(#linear-gradient)" stroke="#003755" stroke-linejoin="round"/><g><path d="M28.64,29c-.14,0-.27-.1-.34-.28-.31-.83-1.31-1.72-2.29-1.72-.33,0-.81,.25-1.37,.53-1.07,.55-2.53,1.31-4.32,.96-.21-.04-.35-.29-.32-.57s.22-.46,.42-.42c1.59,.3,2.89-.37,3.94-.91,.62-.32,1.16-.6,1.64-.6,1.32,0,2.54,1.16,2.96,2.28,.09,.25,.02,.55-.17,.67-.05,.04-.11,.05-.17,.05Z" fill="url(#linear-gradient-12)" stroke="#323232" stroke-linejoin="round"/><ellipse cx="21" cy="27.5" rx="1.5" ry="1" fill="url(#linear-gradient)" stroke="#003755" stroke-linejoin="round"/><path d="M30.32,31.33l.18,4.01c.03,.63-.65,1.16-1.5,1.16h0c-.89,0-1.58-.57-1.49-1.23l.53-4c.06-.44,.55-.77,1.14-.77h0c.62,0,1.12,.37,1.14,.83Z" fill="url(#linear-gradient-13)" stroke="#323232" stroke-linejoin="round"/><circle cx="29" cy="29.5" r="1.5" fill="url(#linear-gradient-14)" stroke="#323232" stroke-linejoin="round"/></g><g><polygon points="22.5 45.5 19.5 45.5 19.5 49.97 20.82 51.5 22.5 49.97 22.5 45.5" fill="url(#linear-gradient-15)" stroke="#3a3634" stroke-linejoin="round" stroke-width=".92"/><polygon points="21.06 47 18.5 44.21 20.94 42 23.5 44.35 21.06 47" fill="url(#linear-gradient-16)" stroke="#3a3634" stroke-linejoin="round" stroke-width=".92"/><polygon points="24.87 39.42 26.75 41.3 23.93 46.93 21.11 42.24 24.87 39.42" fill="url(#linear-gradient)" stroke="#003755" stroke-linejoin="round"/><polygon points="16.42 39.42 14.54 41.3 17.36 46.93 20.18 42.24 16.42 39.42" fill="url(#linear-gradient)" stroke="#003755" stroke-linejoin="round"/></g></g><g id="Layer_4"><g><g><path d="M53.86,50.25c0,.3,.05,.59,.16,.87,.11,.28,.28,.54,.52,.77l.8,.8c-.74,1.03-1.62,1.92-2.65,2.65l-.8-.8c-.23-.24-.49-.41-.77-.52-.28-.11-.57-.16-.87-.16-.31,0-.61,.05-.89,.16-.28,.11-.53,.27-.75,.48-.22,.21-.4,.46-.53,.75s-.2,.61-.2,.95v1.13c-.31,.05-.63,.09-.94,.12-.31,.03-.63,.05-.94,.05s-.63-.01-.94-.05c-.31-.03-.63-.07-.94-.12v-1.13c0-.34-.07-.66-.2-.95-.13-.29-.31-.54-.53-.75s-.47-.37-.76-.48c-.29-.11-.58-.16-.88-.16s-.59,.05-.87,.16c-.28,.11-.54,.28-.77,.52l-.8,.8c-1.03-.74-1.92-1.62-2.65-2.65l.8-.8c.23-.24,.41-.49,.52-.77,.11-.28,.16-.57,.16-.87s-.06-.59-.16-.88-.27-.54-.48-.76c-.21-.22-.46-.39-.75-.53-.29-.13-.61-.2-.95-.2h-1.13c-.05-.31-.09-.63-.12-.94-.03-.31-.05-.63-.05-.94s.01-.63,.05-.94c.03-.31,.07-.63,.12-.94h1.13c.34,0,.66-.07,.95-.2,.29-.13,.54-.31,.75-.53,.21-.22,.37-.47,.48-.75,.11-.28,.16-.58,.16-.89s-.06-.59-.16-.87-.28-.54-.52-.77l-.8-.8c.74-1.03,1.62-1.92,2.65-2.65l.8,.8c.23,.24,.49,.41,.77,.52,.28,.11,.57,.16,.87,.16s.59-.05,.88-.16c.29-.11,.54-.27,.76-.48s.39-.46,.53-.74c.13-.28,.2-.6,.2-.96v-1.13c.31-.05,.63-.09,.94-.12,.31-.03,.63-.05,.94-.05s.63,.02,.94,.05c.31,.03,.63,.07,.94,.12v1.13c0,.36,.07,.69,.2,.97,.13,.29,.31,.54,.53,.74,.22,.2,.47,.36,.75,.47,.28,.11,.58,.16,.89,.16,.28,0,.57-.05,.86-.15,.29-.1,.55-.27,.79-.5l.8-.82c1.03,.74,1.92,1.62,2.65,2.65l-.8,.8c-.23,.24-.41,.49-.52,.77-.11,.28-.16,.57-.16,.87,0,.31,.05,.61,.16,.89,.11,.28,.27,.53,.48,.75,.21,.22,.46,.39,.74,.53,.28,.13,.6,.2,.96,.2h1.13c.05,.31,.09,.63,.12,.94,.03,.31,.05,.63,.05,.94s-.02,.63-.05,.94c-.03,.31-.07,.63-.12,.94h-1.13c-.36,0-.68,.07-.96,.2-.28,.13-.53,.31-.74,.53-.21,.22-.37,.47-.48,.76-.11,.29-.16,.58-.16,.88Zm-7.86-.75c.48,0,.93-.09,1.36-.28s.8-.44,1.11-.75c.32-.32,.57-.69,.75-1.11,.18-.43,.28-.88,.28-1.36s-.09-.93-.28-1.36c-.19-.43-.44-.8-.75-1.11-.32-.32-.69-.57-1.11-.75s-.88-.28-1.36-.28-.93,.09-1.36,.28c-.43,.19-.8,.44-1.11,.75-.32,.32-.57,.69-.75,1.11-.18,.43-.28,.88-.28,1.36s.09,.93,.28,1.36c.19,.43,.44,.8,.75,1.11,.32,.32,.69,.57,1.11,.75,.43,.19,.88,.28,1.36,.28Z" fill="#fff" opacity=".7" stroke="#fff" stroke-linejoin="round" stroke-width="3"/><path d="M53.86,50.25c0,.3,.05,.59,.16,.87,.11,.28,.28,.54,.52,.77l.8,.8c-.74,1.03-1.62,1.92-2.65,2.65l-.8-.8c-.23-.24-.49-.41-.77-.52-.28-.11-.57-.16-.87-.16-.31,0-.61,.05-.89,.16-.28,.11-.53,.27-.75,.48-.22,.21-.4,.46-.53,.75s-.2,.61-.2,.95v1.13c-.31,.05-.63,.09-.94,.12-.31,.03-.63,.05-.94,.05s-.63-.01-.94-.05c-.31-.03-.63-.07-.94-.12v-1.13c0-.34-.07-.66-.2-.95-.13-.29-.31-.54-.53-.75s-.47-.37-.76-.48c-.29-.11-.58-.16-.88-.16s-.59,.05-.87,.16c-.28,.11-.54,.28-.77,.52l-.8,.8c-1.03-.74-1.92-1.62-2.65-2.65l.8-.8c.23-.24,.41-.49,.52-.77,.11-.28,.16-.57,.16-.87s-.06-.59-.16-.88-.27-.54-.48-.76c-.21-.22-.46-.39-.75-.53-.29-.13-.61-.2-.95-.2h-1.13c-.05-.31-.09-.63-.12-.94-.03-.31-.05-.63-.05-.94s.01-.63,.05-.94c.03-.31,.07-.63,.12-.94h1.13c.34,0,.66-.07,.95-.2,.29-.13,.54-.31,.75-.53,.21-.22,.37-.47,.48-.75,.11-.28,.16-.58,.16-.89s-.06-.59-.16-.87-.28-.54-.52-.77l-.8-.8c.74-1.03,1.62-1.92,2.65-2.65l.8,.8c.23,.24,.49,.41,.77,.52,.28,.11,.57,.16,.87,.16s.59-.05,.88-.16c.29-.11,.54-.27,.76-.48s.39-.46,.53-.74c.13-.28,.2-.6,.2-.96v-1.13c.31-.05,.63-.09,.94-.12,.31-.03,.63-.05,.94-.05s.63,.02,.94,.05c.31,.03,.63,.07,.94,.12v1.13c0,.36,.07,.69,.2,.97,.13,.29,.31,.54,.53,.74,.22,.2,.47,.36,.75,.47,.28,.11,.58,.16,.89,.16,.28,0,.57-.05,.86-.15,.29-.1,.55-.27,.79-.5l.8-.82c1.03,.74,1.92,1.62,2.65,2.65l-.8,.8c-.23,.24-.41,.49-.52,.77-.11,.28-.16,.57-.16,.87,0,.31,.05,.61,.16,.89,.11,.28,.27,.53,.48,.75,.21,.22,.46,.39,.74,.53,.28,.13,.6,.2,.96,.2h1.13c.05,.31,.09,.63,.12,.94,.03,.31,.05,.63,.05,.94s-.02,.63-.05,.94c-.03,.31-.07,.63-.12,.94h-1.13c-.36,0-.68,.07-.96,.2-.28,.13-.53,.31-.74,.53-.21,.22-.37,.47-.48,.76-.11,.29-.16,.58-.16,.88Zm-7.86-.75c.48,0,.93-.09,1.36-.28s.8-.44,1.11-.75c.32-.32,.57-.69,.75-1.11,.18-.43,.28-.88,.28-1.36s-.09-.93-.28-1.36c-.19-.43-.44-.8-.75-1.11-.32-.32-.69-.57-1.11-.75s-.88-.28-1.36-.28-.93,.09-1.36,.28c-.43,.19-.8,.44-1.11,.75-.32,.32-.57,.69-.75,1.11-.18,.43-.28,.88-.28,1.36s.09,.93,.28,1.36c.19,.43,.44,.8,.75,1.11,.32,.32,.69,.57,1.11,.75,.43,.19,.88,.28,1.36,.28Z" fill="url(#linear-gradient-2)" stroke="#323232" stroke-linejoin="round"/></g><g opacity=".2"><path d="M38.44,40.7c.07,.18,.12,.37,.15,.56,.03-.17,.05-.34,.05-.51,0-.36-.07-.71-.2-1.05-.13-.34-.34-.66-.63-.95l-.02-.02c-.16,.18-.32,.34-.47,.53l.49,.49c.28,.28,.49,.6,.63,.95Z"/><path d="M53.56,39.7c-.13,.34-.2,.69-.2,1.05,0,.17,.02,.34,.05,.51,.03-.19,.08-.38,.15-.56,.13-.34,.34-.66,.63-.94l.49-.49c-.15-.19-.31-.36-.47-.53l-.03,.03c-.28,.29-.5,.6-.63,.94Z"/><path d="M56.96,45.89c-.02,.16-.04,.33-.06,.49h-.69c-.44,0-.83,.08-1.18,.25-.34,.16-.63,.37-.89,.63-.26,.27-.46,.58-.59,.93-.13,.34-.2,.7-.2,1.06,0,.17,.02,.33,.05,.5,.03-.19,.08-.37,.15-.55,.13-.35,.33-.66,.59-.93,.25-.26,.55-.47,.89-.63,.34-.16,.74-.25,1.18-.25h.69c.02-.16,.04-.33,.06-.49,.03-.3,.04-.59,.04-.89,0-.17-.02-.33-.02-.5,0,.13,0,.26-.02,.39Z"/><path d="M38.44,49.19c.07,.18,.12,.37,.15,.55,.03-.16,.05-.33,.05-.5,0-.35-.07-.71-.2-1.06-.13-.35-.33-.67-.59-.93-.25-.26-.56-.48-.9-.63-.35-.16-.74-.25-1.16-.25h-.69c-.02-.16-.04-.33-.06-.49-.01-.13-.01-.26-.02-.39,0,.17-.02,.33-.02,.5,0,.3,.01,.59,.04,.89,.02,.16,.04,.33,.06,.49h.69c.42,0,.81,.08,1.16,.25,.35,.16,.65,.37,.9,.63,.26,.27,.46,.58,.59,.93Z"/><path d="M52.74,53.68l-.49-.49c-.28-.29-.6-.5-.95-.63-.69-.27-1.47-.26-2.12,0-.34,.13-.65,.33-.92,.59-.26,.26-.48,.56-.64,.9-.16,.35-.25,.74-.25,1.16v.69c-.16,.02-.33,.04-.49,.05-.59,.06-1.18,.06-1.78,0-.16-.02-.32-.03-.49-.05v-.69c0-.41-.08-.8-.25-1.16-.16-.34-.37-.65-.64-.9-.27-.26-.58-.46-.93-.59-.69-.26-1.44-.26-2.11,0-.35,.13-.67,.35-.95,.63l-.49,.49c-.54-.42-1.02-.9-1.48-1.41l-.47,.47c.56,.73,1.22,1.38,1.95,1.95l.49-.49c.28-.28,.6-.5,.95-.63,.67-.26,1.42-.26,2.11,0,.35,.13,.66,.33,.93,.59,.26,.26,.48,.56,.64,.9,.16,.36,.25,.75,.25,1.16v.69c.16,.02,.32,.04,.49,.05,.6,.06,1.18,.06,1.78,0,.16-.02,.33-.03,.49-.05v-.69c0-.42,.08-.81,.25-1.16,.16-.34,.37-.65,.64-.9,.27-.26,.58-.46,.92-.59,.66-.26,1.43-.27,2.12,0,.34,.13,.66,.34,.95,.63l.49,.49c.73-.56,1.38-1.22,1.95-1.95l-.47-.47c-.45,.51-.94,.99-1.48,1.41Z"/></g><g opacity=".3"><path d="M53.56,42.82c-.07-.18-.12-.37-.15-.56-.03,.16-.05,.33-.05,.49,0,.38,.07,.74,.2,1.07,.13,.34,.33,.65,.59,.92,.25,.26,.55,.47,.89,.63,.35,.16,.74,.25,1.18,.25h.69c.02,.16,.04,.33,.06,.49,.01,.13,.01,.26,.02,.39,0-.17,.02-.33,.02-.5,0-.3-.01-.59-.04-.89-.02-.16-.04-.33-.06-.49h-.69c-.43,0-.83-.08-1.18-.25-.34-.16-.63-.37-.89-.63-.26-.27-.46-.58-.59-.92Z" fill="#fff"/><path d="M39.26,38.32l.49,.49c.28,.29,.6,.5,.95,.63,.68,.26,1.42,.26,2.11,0,.35-.13,.67-.33,.94-.59,.26-.25,.47-.55,.63-.88,.17-.35,.25-.75,.25-1.18v-.69c.16-.02,.33-.04,.49-.05,.59-.06,1.18-.06,1.78,0,.16,.01,.32,.03,.49,.05v.69c0,.43,.08,.83,.25,1.18,.16,.35,.38,.65,.64,.9,.27,.25,.57,.44,.91,.57,.64,.25,1.38,.27,2.1,.02,.36-.13,.69-.33,.98-.63l.49-.51c.54,.42,1.02,.9,1.47,1.41l.47-.47c-.56-.73-1.21-1.38-1.94-1.94l-.49,.51c-.29,.29-.62,.5-.98,.63-.71,.25-1.45,.23-2.1-.02-.34-.13-.64-.32-.91-.57-.26-.24-.48-.54-.64-.9-.16-.35-.25-.75-.25-1.18v-.69c-.16-.02-.32-.04-.49-.05-.6-.06-1.19-.06-1.78,0-.17,.02-.33,.03-.49,.05v.69c0,.43-.08,.83-.25,1.18-.16,.33-.37,.63-.63,.88-.27,.26-.58,.46-.94,.59-.68,.26-1.43,.26-2.11,0-.34-.13-.66-.34-.95-.63l-.49-.49c-.73,.56-1.38,1.22-1.95,1.95l.47,.47c.45-.51,.94-.99,1.48-1.41Z" fill="#fff"/><path d="M53.56,51.3c-.07-.18-.12-.36-.15-.55-.03,.17-.05,.33-.05,.5,0,.36,.07,.71,.2,1.05,.13,.34,.34,.66,.63,.95l.02,.02c.16-.18,.32-.34,.47-.53l-.49-.49c-.29-.29-.5-.6-.63-.95Z" fill="#fff"/><path d="M38.44,52.3c.13-.34,.2-.69,.2-1.05,0-.17-.02-.34-.05-.5-.03,.19-.08,.37-.15,.55-.13,.35-.34,.66-.63,.95l-.49,.49c.14,.19,.31,.36,.47,.53l.03-.03c.28-.28,.49-.6,.63-.95Z" fill="#fff"/><path d="M35.04,46.11c.02-.16,.04-.33,.06-.49h.69c.41,0,.8-.08,1.16-.25,.35-.16,.65-.37,.9-.63,.26-.27,.45-.58,.59-.92,.13-.34,.2-.7,.2-1.07,0-.17-.02-.33-.05-.49-.03,.19-.08,.38-.15,.56-.13,.34-.33,.65-.59,.92-.25,.26-.56,.48-.9,.63-.36,.16-.75,.25-1.16,.25h-.69c-.02,.16-.04,.33-.06,.49-.03,.3-.04,.59-.04,.89,0,.17,.02,.33,.02,.5,0-.13,0-.26,.02-.39Z" fill="#fff"/></g><path d="M46,41c-2.76,0-5,2.24-5,5s2.24,5,5,5,5-2.24,5-5-2.24-5-5-5Zm0,9c-2.21,0-4-1.79-4-4s1.79-4,4-4,4,1.79,4,4-1.79,4-4,4Z" fill="url(#linear-gradient-17)" opacity=".3"/></g></g></svg>