<svg xmlns="http://www.w3.org/2000/svg" xmlns:xlink="http://www.w3.org/1999/xlink" viewBox="0 0 64 64"><defs><linearGradient id="a" x1="17.77" y1="40.5" x2="44.7" y2="40.5" gradientUnits="userSpaceOnUse"><stop offset="0" stop-color="#8cd7f5"/><stop offset="1" stop-color="#376e8c"/></linearGradient><linearGradient id="b" x1="18.2" y1="46.75" x2="44.31" y2="46.75" gradientUnits="userSpaceOnUse"><stop offset="0" stop-color="#fff"/><stop offset="1"/></linearGradient><linearGradient id="c" x1="29.52" y1="24.29" x2="43.97" y2="49.32" gradientUnits="userSpaceOnUse"><stop offset="0"/><stop offset="1" stop-opacity="0"/></linearGradient><linearGradient id="d" x1="23.77" y1="15.25" x2="39.79" y2="43" xlink:href="#a"/><linearGradient id="e" x1="8.33" y1="29.01" x2="55.67" y2="29.01" gradientUnits="userSpaceOnUse"><stop offset="0.47" stop-color="#fff"/><stop offset="0.48" stop-color="#d1d1d1"/><stop offset="0.49" stop-color="#888"/><stop offset="0.51" stop-color="#4e4e4e"/><stop offset="0.51" stop-color="#232323"/><stop offset="0.52" stop-color="#0a0a0a"/><stop offset="0.53"/></linearGradient><linearGradient id="f" x1="50.77" y1="35.28" x2="57.52" y2="46.96" gradientUnits="userSpaceOnUse"><stop offset="0" stop-color="#fff"/><stop offset="1" stop-color="#d4d5d3"/></linearGradient><linearGradient id="g" x1="30.99" y1="30.73" x2="55.04" y2="30.73" gradientUnits="userSpaceOnUse"><stop offset="0"/><stop offset="0.62" stop-opacity="0.37"/><stop offset="0.68" stop-opacity="0.2"/><stop offset="1"/></linearGradient><linearGradient id="h" x1="53.5" y1="30.77" x2="55.5" y2="34.23" xlink:href="#f"/><linearGradient id="i" x1="40.04" y1="23.99" x2="46.97" y2="36" xlink:href="#f"/><radialGradient id="j" cx="30.71" cy="28.13" r="3.04" xlink:href="#a"/><linearGradient id="k" x1="52.48" y1="48.14" x2="52.54" y2="41" gradientUnits="userSpaceOnUse"><stop offset="0" stop-color="#646464"/><stop offset="0.22" stop-color="#646464" stop-opacity="0.83"/><stop offset="0.67" stop-color="#646464" stop-opacity="0.38"/><stop offset="1" stop-color="#646464" stop-opacity="0"/></linearGradient><linearGradient id="l" x1="53.44" y1="48.15" x2="53.49" y2="43.41" gradientUnits="userSpaceOnUse"><stop offset="0" stop-color="#646464"/><stop offset="1" stop-color="#646464" stop-opacity="0"/></linearGradient><linearGradient id="m" x1="54.44" y1="48.15" x2="54.54" y2="37.78" gradientUnits="userSpaceOnUse"><stop offset="0" stop-color="#646464"/><stop offset="0.18" stop-color="#646464" stop-opacity="0.95"/><stop offset="0.39" stop-color="#646464" stop-opacity="0.81"/><stop offset="0.62" stop-color="#646464" stop-opacity="0.57"/><stop offset="0.86" stop-color="#646464" stop-opacity="0.23"/><stop offset="1" stop-color="#646464" stop-opacity="0"/></linearGradient><linearGradient id="n" x1="55.44" y1="48.16" x2="55.5" y2="41.43" gradientUnits="userSpaceOnUse"><stop offset="0" stop-color="#646464"/><stop offset="0.17" stop-color="#646464" stop-opacity="0.93"/><stop offset="0.4" stop-color="#646464" stop-opacity="0.74"/><stop offset="0.68" stop-color="#646464" stop-opacity="0.43"/><stop offset="1" stop-color="#646464" stop-opacity="0.01"/><stop offset="1" stop-color="#646464" stop-opacity="0"/></linearGradient><linearGradient id="o" x1="56.14" y1="48.17" x2="56.23" y2="37.79" gradientUnits="userSpaceOnUse"><stop offset="0" stop-color="#646464"/><stop offset="0.38" stop-color="#646464" stop-opacity="0.98"/><stop offset="0.55" stop-color="#646464" stop-opacity="0.9"/><stop offset="0.69" stop-color="#646464" stop-opacity="0.78"/><stop offset="0.8" stop-color="#646464" stop-opacity="0.59"/><stop offset="0.89" stop-color="#646464" stop-opacity="0.36"/><stop offset="0.98" stop-color="#646464" stop-opacity="0.07"/><stop offset="1" stop-color="#646464" stop-opacity="0"/></linearGradient></defs><path d="M15.5,27.5v14c0,6.63,7.39,12,16.5,12s16.5-5.37,16.5-12v-14Z" stroke="#003755" stroke-linejoin="round" fill="url(#a)"/><path d="M32,52c-8.82,0-16-5.16-16-11.5v1C16,47.84,23.18,53,32,53s16-5.16,16-11.5v-1C48,46.84,40.82,52,32,52Z" opacity="0.2" fill="url(#b)"/><g opacity="0.8"><path d="M18.5,33.5l21,16a22.47,22.47,0,0,0,2.1,1.18c3.88-2.1,6.4-5.43,6.4-9.18V28H23.08Z" fill="url(#c)"/></g><polygon points="32 10.5 7.5 29.5 32 47.5 56.5 29.5 32 10.5" stroke="#003755" stroke-linejoin="round" fill="url(#d)"/><path d="M32,12.4,54,29.47,32,45.64,10,29.47,32,12.4m0-1.27L8.33,29.49,32,46.88,55.67,29.49,32,11.13Z" opacity="0.3" fill="url(#e)"/><path d="M56.57,35.57l.33,10a2.79,2.79,0,0,1-2.8,2.9h0a2.8,2.8,0,0,1-2.79-3.08l1-10a2.14,2.14,0,0,1,2.12-1.92h0A2.13,2.13,0,0,1,56.57,35.57Z" stroke="#323232" stroke-linejoin="round" fill="url(#f)"/><path d="M54,31c-1.5-.58-4,0-6.5.5-3.43.69-7.09,1.71-15.5.5-.55-.08-1.08-2.45-1-3s2.09,1.43,2.64,1.51c6.77,1,11.54-.52,14.86-1,2.47-.36,4.76-.88,6.32.55C55.51,30.68,54.37,31.14,54,31Z" opacity="0.2" fill="url(#g)"/><circle cx="54.5" cy="32.5" r="2" stroke="#323232" stroke-linejoin="round" fill="url(#h)"/><path d="M54.5,31.5a1,1,0,0,1-.89-.55A7.44,7.44,0,0,0,47.5,27.5a12.35,12.35,0,0,0-3.64,1.06c-2.85,1.1-6.75,2.61-11.5,1.93a1,1,0,1,1,.28-2c4.24.6,7.71-.74,10.5-1.81a13.08,13.08,0,0,1,4.36-1.2,9.33,9.33,0,0,1,7.89,4.55A1,1,0,0,1,55,31.39.93.93,0,0,1,54.5,31.5Z" stroke="#323232" stroke-linejoin="round" fill="url(#i)"/><path d="M37.83,28.87l-1.19,1.19c-.48.05-1,.08-1.49.09l1.06-1.06C36.77,29,37.31,29,37.83,28.87Z" fill="#646464" opacity="0.5"/><path d="M42.73,27.39l-.41,1.22c-.38.14-.77.28-1.18.41l.39-1.19Z" fill="#646464" opacity="0.5"/><path d="M46.7,26.07l-.22,1.07c-.34.08-.7.19-1.08.32l.22-1.12A8.51,8.51,0,0,1,46.7,26.07Z" fill="#646464" opacity="0.5"/><path d="M50.15,27.51A6.89,6.89,0,0,0,49,27.18h0l-.26-1.08a10.3,10.3,0,0,1,1.1.25Z" fill="#646464" opacity="0.5"/><path d="M53.55,28.47l-.4,1a7.72,7.72,0,0,0-.79-.7l.38-1A9,9,0,0,1,53.55,28.47Z" fill="#646464" opacity="0.5"/><ellipse cx="32" cy="29" rx="3.5" ry="2.5" stroke="#003755" stroke-linejoin="round" fill="url(#j)"/><path d="M53,47.7V36h-.25L52,43.52v3.1a2.24,2.24,0,0,0,.39.62A2.45,2.45,0,0,0,53,47.7Z" opacity="0.5" fill="url(#k)"/><path d="M53,36V47.7A2.32,2.32,0,0,0,54,48V36Z" opacity="0.5" fill="url(#l)"/><path d="M54,36V48a2.29,2.29,0,0,0,1-.16V36Z" opacity="0.5" fill="url(#m)"/><path d="M55,36V47.8a2.23,2.23,0,0,0,.76-.5A2.34,2.34,0,0,0,56,47V36Z" opacity="0.5" fill="url(#n)"/><path d="M56,47a2.27,2.27,0,0,0,.4-1.37L56.08,36H56Z" opacity="0.5" fill="url(#o)"/></svg>