<svg xmlns="http://www.w3.org/2000/svg" xmlns:xlink="http://www.w3.org/1999/xlink" viewBox="0 0 64 64"><defs><linearGradient id="linear-gradient" x1="14.94" y1="16.8" x2="29.87" y2="42.65" gradientUnits="userSpaceOnUse"><stop offset="0" stop-color="#f5f6f6"/><stop offset="0.99" stop-color="#d2d3d3"/></linearGradient><linearGradient id="linear-gradient-2" x1="17.07" y1="20.3" x2="31.99" y2="46.15" xlink:href="#linear-gradient"/><linearGradient id="linear-gradient-3" x1="37.29" y1="39.3" x2="46.71" y2="55.63" gradientUnits="userSpaceOnUse"><stop offset="0" stop-color="#fae664"/><stop offset="1" stop-color="#f0cd28"/></linearGradient><linearGradient id="linear-gradient-4" x1="36" y1="47.72" x2="17.53" y2="15.73" gradientUnits="userSpaceOnUse"><stop offset="0" stop-color="#386f8d"/><stop offset="1" stop-color="#8dd7f4"/></linearGradient><linearGradient id="linear-gradient-5" x1="36.31" y1="46.3" x2="19.83" y2="17.76" xlink:href="#linear-gradient-4"/></defs><title>ENOCOLS_AP_AppIcon</title><g id="Layer_3" data-name="Layer 3"><polygon points="11.5 49.5 11.5 14.5 34.5 12 34.5 19.5 36.5 41.5 11.5 49.5" fill="url(#linear-gradient)"/><polygon points="11.5 49.5 11.5 14.5 34.5 12 34.5 19.5 36.5 41.5 11.5 49.5" fill="none" stroke="#333332" stroke-linecap="round" stroke-linejoin="round"/><polygon points="14.5 52.5 14.5 17.5 32.5 15.5 39.5 22.5 39.5 44.5 14.5 52.5" fill="url(#linear-gradient-2)"/><polyline points="32.5 15.5 32.5 23.5 39.5 22.5" fill="none" stroke="#787878" stroke-linecap="round" stroke-linejoin="round"/><polygon points="14.5 52.5 14.5 17.5 32.5 15.5 39.5 22.5 39.5 44.5 14.5 52.5" fill="none" stroke="#333332" stroke-linecap="round" stroke-linejoin="round"/><path d="M36,52.5a.52.52,0,0,1-.43-.24.51.51,0,0,1,0-.48l8-16a.5.5,0,0,1,.9,0l8,16a.51.51,0,0,1,0,.48.52.52,0,0,1-.43.24Z" fill="url(#linear-gradient-3)"/><path d="M44,36l8,16H36l8-16m0-1a1,1,0,0,0-.89.55l-8,16A1,1,0,0,0,36,53H52a1,1,0,0,0,.89-1.45l-8-16A1,1,0,0,0,44,35Z" fill="#963200"/><rect x="43" y="40" width="2" height="7" fill="#161616"/><rect x="43" y="48" width="2" height="2" fill="#161616"/></g><g id="Layer_5" data-name="Layer 5"><path d="M35.33,42l-13-19.57A2,2,0,1,0,20.5,23.5h.12L33.67,43.05a1,1,0,0,0,.83.45.94.94,0,0,0,.55-.17A1,1,0,0,0,35.33,42Z" stroke="#053755" stroke-linecap="round" stroke-linejoin="round" fill="url(#linear-gradient-4)"/><path d="M23.5,21.5s-9.59,2.55-6,9C20,35,25,31,25,31s2.5-2,3.5-.5c1.11,1.66-3.5,2.5-4,6s3,4.5,5,4c2.17-.54,4.5-2,4,3a5.34,5.34,0,0,0,3-4c.5-3-1.94-3.09-3-3-.9.07-8.5,2.5-2-3,2.56-2.17,2.61-5.8-1-7C26,25,21.78,29.18,21,28c-1-1.5,3-4.5,4.5-4.5s6.11-1.21,5-4C29.5,17,24.5,18.5,23.5,21.5Z" stroke="#053755" stroke-linecap="round" stroke-linejoin="round" fill="url(#linear-gradient-5)"/></g></svg>