<svg id="Layer_24_copy" data-name="Layer 24 copy" xmlns="http://www.w3.org/2000/svg" viewBox="0 0 64 64"><defs><style>.cls-1{isolation:isolate;}.cls-2{fill:#415f6e;}.cls-3{fill:#52778a;}.cls-4{fill:#71a4be;}.cls-5{fill:#193d4d;}.cls-6{fill:#275f79;}.cls-7{fill:#173746;}.cls-8{fill:#1c4355;}</style></defs><title>1 151_ENOAUTH_AP_AppIcon_R21XArtboard 1</title><g id="V_1X_copy" data-name="V 1X copy"><g id="version_OK" data-name="version OK"><g class="cls-1"><path class="cls-2" d="M23.83,50.13l-.06,0,.06,0Z"/><path class="cls-2" d="M23.58,50h0l.19.08Z"/><polygon class="cls-3" points="31.73 48.5 31.73 48.5 34.41 51.16 34.41 51.16 31.73 48.5"/><polygon class="cls-3" points="25.46 48.5 25.46 48.5 28.13 51.16 28.13 51.16 25.46 48.5"/><path class="cls-4" d="M27.87,51.42l-.29-.06.19-.2-2.31-2.31-1.39,1.39-.24-.11,1.63-1.63,2.67,2.66Z"/><polygon class="cls-3" points="38.48 48.03 38.48 48.03 40.29 49.85 40.29 49.85 38.48 48.03"/><polygon class="cls-3" points="32.2 48.03 32.2 48.03 34.88 50.7 34.88 50.7 32.2 48.03"/><polygon class="cls-2" points="34.88 50.7 34.88 50.7 37.54 48.03 37.54 48.03 34.88 50.7"/><polygon class="cls-2" points="23.19 49.83 23.19 49.83 24.99 48.03 24.99 48.03 23.19 49.83"/><polygon class="cls-2" points="28.6 50.7 28.6 50.7 31.27 48.03 31.27 48.03 28.6 50.7"/><polygon class="cls-3" points="25.93 48.03 25.93 48.03 28.6 50.7 28.6 50.7 25.93 48.03"/><polygon class="cls-2" points="38.48 48.03 38.48 48.03 40.47 46.03 40.47 46.03 38.48 48.03"/><polygon class="cls-3" points="22.92 45.95 22.92 45.95 24.99 48.03 24.99 48.03 22.92 45.95"/><polygon class="cls-3" points="34.87 45.36 34.87 45.36 37.54 48.03 37.54 48.03 34.87 45.36"/><polygon class="cls-3" points="29.07 44.89 29.07 44.89 31.73 47.56 31.73 47.56 29.07 44.89"/><polygon class="cls-2" points="25.46 47.56 25.46 47.56 28.13 44.89 28.13 44.89 25.46 47.56"/><polygon class="cls-3" points="35.33 44.89 35.33 44.89 38.01 47.56 38.01 47.56 35.33 44.89"/><polygon class="cls-2" points="31.73 47.56 31.73 47.56 34.41 44.89 34.41 44.89 31.73 47.56"/><polygon class="cls-2" points="25.46 47.2 25.46 47.2 27.77 44.89 27.77 44.89 25.46 47.2"/><path class="cls-4" d="M28.13,44.89l-2.67,2.67L24,46.11h.36l1.09,1.09,2.31-2.31-.22-.22.16-.2Z"/><polygon class="cls-3" points="29.42 44.89 29.42 44.89 31.73 47.2 31.73 47.2 29.42 44.89"/><polygon class="cls-2" points="31.73 47.2 31.73 47.2 34.05 44.89 34.05 44.89 31.73 47.2"/><path class="cls-4" d="M34.41,44.89l-2.68,2.67-2.66-2.67,2.66-2.66Zm-2.68-2.31-2.31,2.31,2.31,2.31,2.32-2.31-2.32-2.31"/><polygon class="cls-3" points="31.73 42.23 31.73 42.23 34.41 44.89 34.41 44.89 31.73 42.23"/><polygon class="cls-3" points="32.2 41.76 32.2 41.76 34.88 44.42 34.88 44.42 32.2 41.76"/><polygon class="cls-2" points="28.6 44.42 28.6 44.42 31.27 41.76 31.27 41.76 28.6 44.42"/><polygon class="cls-3" points="29.48 39.97 29.48 39.97 31.27 41.76 31.27 41.76 29.48 39.97"/><polygon class="cls-4" points="33.21 39.87 31.73 41.33 30.25 39.87 30.67 39.87 31.73 40.93 32.8 39.87 33.21 39.87"/><polygon class="cls-2" points="32.2 41.76 32.2 41.76 34.09 39.87 34.09 39.87 32.2 41.76"/><path class="cls-4" d="M39.5,46.12a5.15,5.15,0,0,0,1-.09l-2,2,1.82,1.82-.63.29L38,48.5l-2.68,2.66.28.27a16.77,16.77,0,0,1-1.75.27l.55-.54L31.73,48.5l-2.66,2.66.53.53a16.81,16.81,0,0,1-1.73-.27l.26-.26L25.46,48.5l-1.63,1.63L23.58,50l-.06,0-.33-.16L25,48,22.92,46,23,46a4.47,4.47,0,0,0,1,.14l1.45,1.45,2.67-2.67-.42-.42a3.63,3.63,0,0,0,.39-.55l.5.5,2.67-2.66L29.48,40l0-.1h.74l1.48,1.46,1.48-1.46h.88L32.2,41.76l2.67,2.66.6-.59a4.17,4.17,0,0,0,.37.56l-.51.5L38,47.56l1.43-1.44ZM28.6,50.7,31.27,48,28.6,45.36,25.93,48,28.6,50.7m6.27,0L37.54,48l-2.67-2.67L32.2,48l2.67,2.67m-5.8-5.81,2.66,2.67,2.68-2.67-2.68-2.66-2.66,2.66"/><path class="cls-4" d="M33.86,51.7l-.39,0,.58-.58-2.32-2.31-2.31,2.31.57.57-.39,0-.53-.53,2.66-2.66,2.68,2.66Z"/><polygon class="cls-2" points="22.95 49.71 22.95 49.71 24.64 48.03 24.64 48.03 22.95 49.71"/><path class="cls-2" d="M19.71,47.63l-.13-.1h0l.13.1Z"/><path class="cls-4" d="M23.19,49.83,23,49.71,24.64,48l-2.27-2.27a3.58,3.58,0,0,0,.55.19L25,48Z"/><path class="cls-4" d="M22.31,45.74l-2.2,2.2-.05,0-.34-.26h0l.2.15,2.16-2.16Z"/><polygon class="cls-2" points="19.91 47.78 19.91 47.78 22.07 45.62 22.07 45.62 19.91 47.78"/><polygon class="cls-3" points="41.47 45.69 41.47 45.69 43.59 47.81 43.59 47.81 41.47 45.69"/><path class="cls-4" d="M41.47,45.69a4.3,4.3,0,0,0,.59-.34l2,2-.52.41Z"/><polygon class="cls-2" points="19.39 47.37 19.39 47.37 21.5 45.25 21.5 45.25 19.39 47.37"/><polygon class="cls-2" points="19.19 47.2 19.19 47.2 21.3 45.09 21.3 45.09 19.19 47.2"/><path class="cls-4" d="M19.58,47.53l-.09-.07-.18-.16-.18-.14L19,47l-.17-.15-.18-.16-.16-.15-.18-.17-.16-.16L17.93,46l-.15-.16-.17-.18-.16-.16-.16-.18-.15-.17L17,45l-.07-.07,2.27,2.26,2.11-2.11.2.16-2.11,2.12Z"/><polygon class="cls-3" points="16.93 44.94 16.93 44.94 19.19 47.2 19.19 47.2 16.93 44.94"/><path class="cls-4" d="M39.88,44.09l.23,0-.22,0Z"/><polygon class="cls-3" points="42.06 45.34 42.06 45.34 44.11 47.4 44.11 47.4 42.06 45.34"/><polygon class="cls-3" points="42.27 45.19 42.27 45.19 44.28 47.2 44.28 47.2 42.27 45.19"/><path class="cls-4" d="M26.6,42.43a3.08,3.08,0,0,1-.31.63h0a3.08,3.08,0,0,0,.31-.63Z"/><path class="cls-4" d="M37,42.3a2,2,0,0,0,.29.65h0a2.57,2.57,0,0,1-.29-.65Z"/><path class="cls-2" d="M26.64,42.3a1,1,0,0,1,0-.14.83.83,0,0,0,0,.15Z"/><rect class="cls-5" x="28.04" y="37.86" width="7.51"/><polygon class="cls-3" points="41.63 33.31 41.63 33.31 43.81 35.49 43.81 35.49 41.63 33.31"/><polygon class="cls-4" points="38.63 24.39 38.45 23.85 40.67 26.08 39.57 27.18 39.48 26.92 40.32 26.08 38.63 24.39"/><polygon class="cls-3" points="38.45 23.85 38.45 23.85 40.67 26.08 40.67 26.08 38.45 23.85"/><polygon class="cls-2" points="35.29 18.56 35.29 18.56 37.18 16.67 37.18 16.67 35.29 18.56"/><path class="cls-4" d="M32.2,16.67,34.87,14l2.67,2.67-2,2-.24-.12,1.89-1.89-2.31-2.32-2.31,2.32,1.49,1.49-.4-.05Z"/><polygon class="cls-2" points="16.31 44.17 16.31 44.17 18.72 41.76 18.72 41.76 16.31 44.17"/><polygon class="cls-3" points="44.75 41.76 44.75 41.76 47.2 44.22 47.2 44.22 44.75 41.76"/><polygon class="cls-2" points="13.98 40.24 13.98 40.24 15.59 38.62 15.59 38.62 13.98 40.24"/><polygon class="cls-3" points="16.52 38.62 16.52 38.62 19.19 41.29 19.19 41.29 16.52 38.62"/><polygon class="cls-3" points="47.88 38.62 47.88 38.62 49.55 40.29 49.55 40.29 47.88 38.62"/><polygon class="cls-2" points="44.28 41.29 44.28 41.29 46.94 38.62 46.94 38.62 44.28 41.29"/><polygon class="cls-3" points="44.28 35.95 44.28 35.95 46.94 38.62 46.94 38.62 44.28 35.95"/><polygon class="cls-3" points="44.75 35.49 44.75 35.49 47.41 38.15 47.41 38.15 44.75 35.49"/><polygon class="cls-2" points="47.41 38.15 47.41 38.15 50.09 35.49 50.09 35.49 47.41 38.15"/><polygon class="cls-2" points="16.06 38.15 16.06 38.15 18.72 35.49 18.72 35.49 16.06 38.15"/><polygon class="cls-3" points="13.38 35.49 13.38 35.49 16.06 38.15 16.06 38.15 13.38 35.49"/><polygon class="cls-3" points="47.41 32.81 47.41 32.81 50.09 35.49 50.09 35.49 47.41 32.81"/><polygon class="cls-2" points="47.41 37.8 47.41 37.8 49.73 35.49 49.73 35.49 47.41 37.8"/><polygon class="cls-3" points="45.11 35.49 45.11 35.49 47.41 37.8 47.41 37.8 45.11 35.49"/><path class="cls-4" d="M50.08,35.49l-2.67,2.66-2.66-2.66,2.66-2.68Zm-2.67-2.32-2.3,2.32,2.3,2.31,2.31-2.31-2.31-2.32"/><polygon class="cls-3" points="16.06 32.81 16.06 32.81 18.72 35.49 18.72 35.49 16.06 32.81"/><polygon class="cls-3" points="47.88 32.35 47.88 32.35 50.55 35.02 50.55 35.02 47.88 32.35"/><polygon class="cls-2" points="44.28 35.02 44.28 35.02 46.94 32.35 46.94 32.35 44.28 35.02"/><polygon class="cls-3" points="41.61 32.35 41.61 32.35 44.28 35.02 44.28 35.02 41.61 32.35"/><polygon class="cls-2" points="19.19 35.02 19.19 35.02 21.86 32.35 21.86 32.35 19.19 35.02"/><polygon class="cls-3" points="16.52 32.35 16.52 32.35 19.19 35.02 19.19 35.02 16.52 32.35"/><polygon class="cls-2" points="12.92 35.02 12.92 35.02 15.59 32.35 15.59 32.35 12.92 35.02"/><polygon class="cls-3" points="48.24 32.35 48.24 32.35 50.55 34.66 50.55 34.66 48.24 32.35"/><path class="cls-4" d="M51.18,30.67,50.55,30l-2.31,2.31,2.31,2.31.62-.62c0,.13,0,.26,0,.39l-.58.59-2.67-2.67,2.67-2.67.59.6C51.15,30.41,51.17,30.54,51.18,30.67Z"/><polygon class="cls-3" points="41.97 32.35 41.97 32.35 44.28 34.66 44.28 34.66 41.97 32.35"/><polygon class="cls-2" points="44.28 34.66 44.28 34.66 46.59 32.35 46.59 32.35 44.28 34.66"/><path class="cls-4" d="M46.94,32.35,44.28,35l-2.67-2.67,2.67-2.67ZM44.28,30,42,32.35l2.31,2.31,2.31-2.31L44.28,30"/><polygon class="cls-2" points="41.15 31.88 41.15 31.88 43.81 29.21 43.81 29.21 41.15 31.88"/><polygon class="cls-3" points="13.38 29.21 13.38 29.21 16.06 31.89 16.06 31.89 13.38 29.21"/><polygon class="cls-2" points="47.41 31.89 47.41 31.89 50.09 29.21 50.09 29.21 47.41 31.89"/><polygon class="cls-3" points="44.75 29.21 44.75 29.21 47.41 31.89 47.41 31.89 44.75 29.21"/><polygon class="cls-2" points="16.06 31.89 16.06 31.89 18.72 29.21 18.72 29.21 16.06 31.89"/><polygon class="cls-3" points="19.66 29.21 19.66 29.21 22.33 31.89 22.33 31.89 19.66 29.21"/><path class="cls-2" d="M12.63,28.81h0l0-.08v-.07A.77.77,0,0,0,12.63,28.81Z"/><polygon class="cls-3" points="41.14 26.55 41.14 26.55 43.81 29.21 43.81 29.21 41.14 26.55"/><polygon class="cls-2" points="47.41 31.53 47.41 31.53 49.73 29.21 49.73 29.21 47.41 31.53"/><polygon class="cls-3" points="45.11 29.21 45.11 29.21 47.41 31.53 47.41 31.53 45.11 29.21"/><path class="cls-4" d="M47.41,26.55l2.67,2.66-2.67,2.68-2.66-2.68Zm-2.3,2.66,2.3,2.32,2.31-2.32L47.41,26.9l-2.3,2.31"/><polygon class="cls-3" points="16.06 26.54 16.06 26.54 18.72 29.21 18.72 29.21 16.06 26.54"/><polygon class="cls-3" points="16.52 26.08 16.52 26.08 19.19 28.75 19.19 28.75 16.52 26.08"/><polygon class="cls-3" points="47.88 26.08 47.88 26.08 50.55 28.75 50.55 28.75 47.88 26.08"/><polygon class="cls-2" points="12.92 28.75 12.92 28.75 15.59 26.08 15.59 26.08 12.92 28.75"/><polygon class="cls-2" points="19.19 28.75 19.19 28.75 21.86 26.08 21.86 26.08 19.19 28.75"/><polygon class="cls-3" points="41.61 26.08 41.61 26.08 44.28 28.75 44.28 28.75 41.61 26.08"/><polygon class="cls-2" points="44.28 28.75 44.28 28.75 46.94 26.08 46.94 26.08 44.28 28.75"/><polygon class="cls-2" points="47.88 26.08 47.88 26.08 49.57 24.39 49.57 24.39 47.88 26.08"/><polygon class="cls-2" points="44.28 28.39 44.28 28.39 46.59 26.08 46.59 26.08 44.28 28.39"/><polygon class="cls-3" points="41.97 26.08 41.97 26.08 44.28 28.39 44.28 28.39 41.97 26.08"/><path class="cls-4" d="M41.61,26.08l2.67-2.67,2.66,2.67-2.66,2.67Zm2.67,2.31,2.31-2.31-2.31-2.31L42,26.08l2.31,2.31"/><polygon class="cls-3" points="44.28 23.41 44.28 23.41 46.94 26.08 46.94 26.08 44.28 23.41"/><polygon class="cls-2" points="41.14 25.61 41.14 25.61 43.81 22.94 43.81 22.94 41.14 25.61"/><polygon class="cls-3" points="38.48 22.94 38.48 22.94 41.14 25.61 41.14 25.61 38.48 22.94"/><polygon class="cls-3" points="19.66 22.94 19.66 22.94 22.33 25.61 22.33 25.61 19.66 22.94"/><polygon class="cls-2" points="16.06 25.61 16.06 25.61 18.73 22.94 18.73 22.94 16.06 25.61"/><polygon class="cls-2" points="22.33 25.61 22.33 25.61 24.99 22.94 24.99 22.94 22.33 25.61"/><polygon class="cls-3" points="44.75 22.94 44.75 22.94 47.41 25.61 47.41 25.61 44.75 22.94"/><polygon class="cls-3" points="16.31 20.52 16.31 20.52 18.73 22.94 18.73 22.94 16.31 20.52"/><polygon class="cls-2" points="44.75 22.94 44.75 22.94 47.23 20.46 47.23 20.46 44.75 22.94"/><polygon class="cls-3" points="14.27 23.82 14.27 23.82 16.06 25.61 16.06 25.61 14.27 23.82"/><polygon class="cls-2" points="16.06 25.25 16.06 25.25 18.37 22.94 18.37 22.94 16.06 25.25"/><path class="cls-4" d="M14.15,24.06l0-.06a3.18,3.18,0,0,1,.16-.32,1,1,0,0,1,0-.1l1.68,1.67,2.31-2.31-2.22-2.22.26-.34.05-.06-.15.2,2.42,2.42-2.67,2.67-1.8-1.79A2.56,2.56,0,0,1,14.15,24.06Z"/><polygon class="cls-3" points="38.84 22.94 38.84 22.94 41.14 25.25 41.14 25.25 38.84 22.94"/><polygon class="cls-2" points="41.14 25.25 41.14 25.25 43.45 22.94 43.45 22.94 41.14 25.25"/><path class="cls-4" d="M38.47,22.94l2.67-2.66,2.67,2.66-2.67,2.67Zm5,0-2.3-2.31-2.32,2.31,2.31,2.31,2.31-2.31"/><polygon class="cls-3" points="22.33 20.28 22.33 20.28 24.99 22.94 24.99 22.94 22.33 20.28"/><polygon class="cls-3" points="41.14 20.28 41.14 20.28 43.81 22.94 43.81 22.94 41.14 20.28"/><polygon class="cls-3" points="22.8 19.81 22.8 19.81 25.39 22.4 25.39 22.4 22.8 19.81"/><polygon class="cls-3" points="41.61 19.81 41.61 19.81 44.28 22.47 44.28 22.47 41.61 19.81"/><polygon class="cls-2" points="19.19 22.47 19.19 22.47 21.86 19.81 21.86 19.81 19.19 22.47"/><polygon class="cls-2" points="37.97 22.43 37.97 22.43 40.68 19.81 40.68 19.81 37.97 22.43"/><polygon class="cls-3" points="38.01 17.14 38.01 17.14 40.68 19.81 40.68 19.81 38.01 17.14"/><path class="cls-2" d="M19.9,16.91h0l-.12.1.08-.07Z"/><polygon class="cls-2" points="35.53 18.68 35.53 18.68 37.54 16.67 37.54 16.67 35.53 18.68"/><polygon class="cls-2" points="22.33 19.34 22.33 19.34 24.99 16.67 24.99 16.67 22.33 19.34"/><polygon class="cls-3" points="25.93 16.67 25.93 16.67 27.89 18.63 27.89 18.63 25.93 16.67"/><polygon class="cls-3" points="38.48 16.67 38.48 16.67 41.14 19.34 41.14 19.34 38.48 16.67"/><polygon class="cls-3" points="38.84 16.67 38.84 16.67 41.14 18.98 41.14 18.98 38.84 16.67"/><path class="cls-4" d="M41.14,19.34l-2.67-2.67,1.86-1.85.13.07.1,0-1.73,1.73L41.14,19l2.28-2.28.2.16Z"/><path class="cls-2" d="M40.33,14.82h0l-.12-.05.1.05Z"/><path class="cls-2" d="M23.82,14.56h0l0,0Z"/><polygon class="cls-3" points="26.29 16.67 26.29 16.67 28.13 18.51 28.13 18.51 26.29 16.67"/><path class="cls-4" d="M25.93,16.67,28.6,14l2.67,2.67L29.84,18.1l-.39,0,1.46-1.46L28.6,14.35l-2.31,2.32,1.84,1.84-.24.12Z"/><polygon class="cls-2" points="31.73 16.2 31.73 16.2 34.41 13.54 34.41 13.54 31.73 16.2"/><polygon class="cls-2" points="25.46 16.2 25.46 16.2 28.13 13.54 28.13 13.54 25.46 16.2"/><polygon class="cls-3" points="35.33 13.54 35.33 13.54 38.01 16.2 38.01 16.2 35.33 13.54"/><polygon class="cls-3" points="29.07 13.54 29.07 13.54 31.73 16.2 31.73 16.2 29.07 13.54"/><path class="cls-4" d="M47.88,32.35,50.55,35l.58-.59a18.14,18.14,0,0,1-.28,1.82l-.3-.3-2.67,2.67,1.67,1.67-.3.64-1.84-1.84-2.66,2.67,2.44,2.46-.41.51-2.5-2.5-.33.33a4.8,4.8,0,0,0,.14-1.46l.19.19,2.66-2.67L44.28,36,43,37.26l-.24-.69,1.08-1.08-2.18-2.18-.48-1.43,2.66-2.67-2.67-2.66-1.33,1.33-.24-.7,1.1-1.1-2.22-2.23L38,22.44l2.71-2.63L38,17.14l-1.93,1.92a5.36,5.36,0,0,0-.55-.38l2-2L34.87,14,32.2,16.67l1.45,1.44H32.7l-1-1-1,1h-.93l1.43-1.43L28.6,14l-2.67,2.67,2,2a4.28,4.28,0,0,0-.57.37l-1.86-1.86L22.8,19.81l2.59,2.59L24.9,24l-2.1,2.11,1.09,1.1-.22.71-1.34-1.35-2.67,2.67,2.67,2.68.12-.12L22,33.12l-2.36,2.37,1.23,1.23-.22.71L19.19,36l-2.67,2.67,2.67,2.67.49-.49a4.39,4.39,0,0,0,0,1,5.16,5.16,0,0,0,.23,1.17l-.7-.7-2.47,2.46-.16-.19-.1-.12-.15-.21,2.41-2.41-2.66-2.67-1.79,1.79a2.59,2.59,0,0,1-.12-.25,1,1,0,0,0-.07-.15l-.1-.24,1.61-1.62L12.91,36l-.22.24-.06-.31,0-.18c0-.17-.06-.34-.08-.5a2.51,2.51,0,0,1,0-.27c0-.13,0-.26-.05-.4l.49.49,2.67-2.67-2.68-2.67-.48.49c0-.14,0-.28.05-.41l0-.25c0-.17.05-.34.08-.51a1.29,1.29,0,0,1,0-.19c0-.1,0-.2,0-.3l.24.24,2.67-2.67L14,24.46l.11-.24.07-.16a2.56,2.56,0,0,0,.11-.24l1.8,1.79,2.67-2.67-2.42-2.42.15-.2.1-.12.08-.1a.86.86,0,0,1,.07-.1l2.48,2.47,2.67-2.66-2.48-2.48.28-.23.24-.19,2.43,2.43L25,16.67l-1.8-1.81.24-.12.15-.06.24-.12,1.64,1.64,2.67-2.66-.27-.28c.3-.07.61-.12.93-.17l.24,0,.59-.08-.55.56,2.66,2.66,2.68-2.66L33.84,13a15.63,15.63,0,0,1,1.8.27l-.31.3L38,16.2l1.67-1.67.25.11.15.07.25.11-1.86,1.85,2.67,2.67,2.48-2.48c.18.13.35.27.52.41l-2.53,2.54,2.67,2.66,2.53-2.53.41.52-2.47,2.48,2.66,2.67,1.86-1.85.3.64-1.69,1.68,2.67,2.67.31-.31a18.54,18.54,0,0,1,.28,1.84l-.59-.6Zm-34.5-3.14,2.68,2.68,2.66-2.68-2.66-2.67-2.68,2.67m28.23-3.13,2.67,2.67,2.66-2.67-2.66-2.67-2.67,2.67m8.47,3.13-2.67-2.66-2.66,2.66,2.66,2.68,2.67-2.68m-8.47,3.14L44.28,35l2.66-2.67-2.66-2.67-2.67,2.67m5.8,5.8,2.67-2.66-2.67-2.68-2.66,2.68,2.66,2.66M25,22.94l-2.66-2.66-2.67,2.66,2.67,2.67L25,22.94m-3.13,9.41-2.67-2.67-2.67,2.67L19.19,35l2.67-2.67m-5.8,5.8,2.66-2.66-2.66-2.68-2.68,2.68,2.68,2.66m3.13-9.4,2.67-2.67-2.67-2.67-2.67,2.67,2.67,2.67m19.28-5.81,2.67,2.67,2.67-2.67-2.67-2.66-2.67,2.66"/><path class="cls-6" d="M44.09,41.1A4.8,4.8,0,0,1,44,42.56a4.36,4.36,0,0,1-.17.51,4.28,4.28,0,0,1-.31.69,4.65,4.65,0,0,1-1.2,1.43l-.21.16a4.3,4.3,0,0,1-.59.34l-.25.11-.26.1a2.8,2.8,0,0,1-.31.09l-.18,0a5.15,5.15,0,0,1-1,.09h-.4A4.56,4.56,0,0,1,36,44.58l-.16-.19a4.17,4.17,0,0,1-.37-.56c0-.08-.09-.16-.12-.24a4.24,4.24,0,0,1-.31-.84l-.85-2.62-.09-.26H29.51l0,.1-.09.27-.79,2.47a4.41,4.41,0,0,1-.37,1l-.13.23a3.63,3.63,0,0,1-.39.55l-.16.2a4.55,4.55,0,0,1-3.18,1.44H24A4.47,4.47,0,0,1,23,46a4,4,0,0,1-.62-.21l-.3-.14a4.28,4.28,0,0,1-.57-.37l-.2-.16a4.53,4.53,0,0,1-1-1.27c-.06-.1-.11-.2-.16-.3a6.07,6.07,0,0,1-.24-.59,5.16,5.16,0,0,1-.23-1.17,4.39,4.39,0,0,1,0-1c0-.15.05-.3.08-.44l.09-.34.73-2.32.09-.27.22-.71.09-.27.88-2.81.16-.52.43-1.35.16-.53,1-3.08.09-.27.22-.71.09-.27.76-2.42L24.9,24l.49-1.57.1-.31.28-.88a4.45,4.45,0,0,1,1.35-2.05l.2-.16a4.28,4.28,0,0,1,.57-.37l.24-.12a4.56,4.56,0,0,1,1.32-.38l.39,0h3.81l.4.05a4.5,4.5,0,0,1,1.24.4l.24.12a5.36,5.36,0,0,1,.55.38l.2.16a4.52,4.52,0,0,1,1.25,1.91l.26.78.18.53.48,1.41.18.54.85,2.53.09.26.24.7.09.27L41,31.37l.17.51.48,1.43.19.54.82,2.45.09.27.24.69.09.27.81,2.4a5.06,5.06,0,0,1,.18.77C44.07,40.83,44.08,41,44.09,41.1ZM40.49,44A2.91,2.91,0,0,0,42,40.57l-.33-1-.49-1.45L41,37.65l-1.18-3.51-.23-.69-1.12-3.31L38,28.72l-.19-.54-1.15-3.42-.23-.7-.78-2.3a2.42,2.42,0,0,0-1-1.26,2.46,2.46,0,0,0-1.34-.4H30a2.2,2.2,0,0,0-.58.07,2.3,2.3,0,0,0-.67.27,2.48,2.48,0,0,0-1.09,1.38L27,24l-.23.71-1.08,3.46-.17.54-.39,1.22-2.32,7.4-.33,1-.71,2.26a2.83,2.83,0,0,0,1.34,3.26,2.26,2.26,0,0,0,.39.15l.13,0a2.51,2.51,0,0,0,.55.06,2.56,2.56,0,0,0,2-.87l.15-.19a3.08,3.08,0,0,0,.31-.63c0-.09,0-.17.08-.27L28,37.86h7.51L37,42.2l0,.11a2.51,2.51,0,0,0,2.51,1.82l.39,0,.22,0h.07l.11,0,.11,0,.09,0"/><path class="cls-4" d="M23.62,44.05h0l-.13,0Z"/><path class="cls-4" d="M19.19,42.58l-2.31,2.31-.05-.06a2.43,2.43,0,0,1-.2-.25l-.07-.08.16.19,2.47-2.46.7.7a6.07,6.07,0,0,0,.24.59Z"/><polygon class="cls-2" points="16.72 44.69 16.72 44.69 19.19 42.23 19.19 42.23 16.72 44.69"/><polygon class="cls-2" points="16.16 43.98 16.16 43.98 18.37 41.76 18.37 41.76 16.16 43.98"/><polygon class="cls-2" points="19.66 41.76 19.66 41.76 19.66 41.76 19.66 41.76"/><path class="cls-2" d="M14.15,40.63l.09.19h0l0-.07-.06-.11Z"/><path class="cls-4" d="M14.15,40.63h0l-.07-.15h0Z"/><polygon class="cls-3" points="32.56 41.76 32.56 41.76 34.87 44.06 34.87 44.06 32.56 41.76"/><path class="cls-4" d="M35.47,43.83l-.6.59L32.2,41.76l1.89-1.89.1.26-1.63,1.63,2.31,2.3.48-.47C35.38,43.67,35.43,43.75,35.47,43.83Z"/><polygon class="cls-2" points="14.27 40.88 14.27 40.88 16.06 39.09 16.06 39.09 14.27 40.88"/><path class="cls-4" d="M16.46,44.38l-.3-.4,2.21-2.22-2.31-2.31-1.67,1.67-.12-.24,1.79-1.79,2.66,2.67-2.41,2.41Z"/><polygon class="cls-2" points="44.28 40.93 44.28 40.93 46.59 38.62 46.59 38.62 44.28 40.93"/><path class="cls-4" d="M44.05,40.7l.23.23,2.31-2.31-2.31-2.31-1.22,1.22L43,37.26,44.28,36l2.66,2.67-2.66,2.67-.19-.19C44.08,41,44.07,40.83,44.05,40.7Z"/><path class="cls-4" d="M14.08,40.48l0,0c-.05-.13-.11-.26-.17-.39l0-.07,1.37-1.37-2.32-2.31-.17.17,0-.14a.43.43,0,0,0,0-.11c0-.11,0-.23-.07-.34a2.64,2.64,0,0,1,.07.3l.22-.24,2.68,2.67L14,40.24Z"/><path class="cls-4" d="M12.6,35.7h0a.43.43,0,0,0,0-.11c0-.12,0-.24-.05-.36v0h0C12.54,35.36,12.57,35.53,12.6,35.7Z"/><polygon class="cls-4" points="22.02 33.12 21.86 33.64 20.02 35.49 20.98 36.45 20.89 36.72 19.66 35.49 22.02 33.12"/><polygon class="cls-3" points="13.74 35.49 13.74 35.49 16.06 37.8 16.06 37.8 13.74 35.49"/><polygon class="cls-2" points="16.06 37.8 16.06 37.8 18.37 35.49 18.37 35.49 16.06 37.8"/><path class="cls-4" d="M16.06,38.15l-2.68-2.66,2.68-2.68,2.66,2.68Zm2.31-2.66-2.31-2.32-2.32,2.32,2.32,2.31,2.31-2.31"/><polygon class="cls-3" points="16.88 32.35 16.88 32.35 19.19 34.66 19.19 34.66 16.88 32.35"/><polygon class="cls-2" points="19.19 34.66 19.19 34.66 21.5 32.35 21.5 32.35 19.19 34.66"/><path class="cls-4" d="M16.52,32.35l2.67-2.67,2.67,2.67L19.19,35Zm2.67,2.31,2.31-2.31L19.19,30l-2.32,2.31,2.32,2.31"/><path class="cls-4" d="M12.48,29.76h0c0-.08,0-.16,0-.25h0Z"/><polygon class="cls-2" points="41.14 31.53 41.14 31.53 43.45 29.21 43.45 29.21 41.14 31.53"/><polygon class="cls-4" points="40.98 31.37 41.14 31.53 43.45 29.21 41.14 26.9 39.9 28.15 39.8 27.88 41.14 26.55 43.81 29.21 41.15 31.88 40.98 31.37"/><polygon class="cls-2" points="16.06 31.53 16.06 31.53 18.37 29.21 18.37 29.21 16.06 31.53"/><polygon class="cls-3" points="13.74 29.21 13.74 29.21 16.06 31.53 16.06 31.53 13.74 29.21"/><path class="cls-4" d="M13.38,29.21l2.68-2.67,2.66,2.67-2.66,2.68Zm2.68,2.32,2.31-2.32L16.06,26.9l-2.32,2.31,2.32,2.32"/><polygon class="cls-2" points="12.92 28.39 12.92 28.39 15.23 26.08 15.23 26.08 12.92 28.39"/><polygon class="cls-3" points="13.97 24.46 13.97 24.46 15.59 26.08 15.59 26.08 13.97 24.46"/><path class="cls-4" d="M15.59,26.08l-2.67,2.67-.24-.24c0-.07,0-.15.05-.22v-.08l.18.18,2.31-2.31-1.37-1.37,0-.06.18-.4,0,0c0,.09-.07.17-.11.25Z"/><polygon class="cls-4" points="24.9 23.97 24.73 24.5 23.15 26.08 23.98 26.91 23.89 27.18 22.8 26.08 24.9 23.97"/><polygon class="cls-3" points="14.38 23.58 14.38 23.58 16.06 25.25 16.06 25.25 14.38 23.58"/><polygon class="cls-3" points="45.11 22.94 45.11 22.94 47.41 25.25 47.41 25.25 45.11 22.94"/><path class="cls-4" d="M47.22,20.46l.16.2-2.27,2.28,2.3,2.31,1.74-1.73.12.24-1.86,1.85-2.66-2.67Z"/><polygon class="cls-2" points="22.33 25.25 22.33 25.25 24.64 22.94 24.64 22.94 22.33 25.25"/><polygon class="cls-3" points="20.02 22.94 20.02 22.94 22.33 25.25 22.33 25.25 20.02 22.94"/><path class="cls-4" d="M19.66,22.94l2.67-2.66L25,22.94l-2.66,2.67Zm2.67,2.31,2.31-2.31-2.31-2.31L20,22.94l2.31,2.31"/><path class="cls-2" d="M16.55,20.2l.05-.06,0,.06Z"/><polygon class="cls-3" points="16.71 20 16.71 20 19.19 22.47 19.19 22.47 16.71 20"/><polygon class="cls-3" points="16.88 19.81 16.88 19.81 19.19 22.12 19.19 22.12 16.88 19.81"/><polygon class="cls-3" points="19.38 17.33 19.38 17.33 21.86 19.81 21.86 19.81 19.38 17.33"/><polygon class="cls-3" points="41.97 19.81 41.97 19.81 44.28 22.12 44.28 22.12 41.97 19.81"/><polygon class="cls-2" points="44.28 22.12 44.28 22.12 46.59 19.81 46.59 19.81 44.28 22.12"/><path class="cls-4" d="M44.14,17.27a20.41,20.41,0,0,1,2.67,2.67l-2.53,2.53-2.67-2.66Zm.14,4.85,2.31-2.31L44.28,17.5,42,19.81l2.31,2.31"/><polygon class="cls-4" points="30.77 18.1 31.73 17.14 32.7 18.1 32.34 18.1 31.73 17.5 31.13 18.1 30.77 18.1"/><path class="cls-2" d="M19.72,17.05l.06,0-.08,0Z"/><polygon class="cls-3" points="19.9 16.91 19.9 16.91 22.33 19.34 22.33 19.34 19.9 16.91"/><polygon class="cls-3" points="20.1 16.75 20.1 16.75 22.33 18.98 22.33 18.98 20.1 16.75"/><polygon class="cls-2" points="22.33 18.98 22.33 18.98 24.64 16.67 24.64 16.67 22.33 18.98"/><path class="cls-4" d="M25,16.67l-2.66,2.67L19.9,16.91l.13-.1.07,0L22.33,19l2.31-2.31L23,15l.24-.12Z"/><path class="cls-2" d="M40.08,14.71h0l.06,0,.07,0Z"/><path class="cls-2" d="M23.43,14.74h0l.15-.07h0Z"/><polygon class="cls-2" points="25.46 15.85 25.46 15.85 27.77 13.54 27.77 13.54 25.46 15.85"/><path class="cls-4" d="M28.13,13.54,25.46,16.2l-1.64-1.64L24,14.5l.1-.05,1.39,1.4,2.31-2.31-.21-.22.3-.06Z"/><polygon class="cls-2" points="31.73 15.85 31.73 15.85 34.05 13.54 34.05 13.54 31.73 15.85"/><polygon class="cls-3" points="29.42 13.54 29.42 13.54 31.73 15.85 31.73 15.85 29.42 13.54"/><path class="cls-4" d="M29.07,13.54l.54-.56h.1l.19,0H30l-.59.6,2.31,2.31,2.32-2.31-.61-.61.22,0h.18l.57.57L31.73,16.2Z"/><path class="cls-6" d="M31.76,10.84A21.49,21.49,0,1,0,53.24,32.32,21.51,21.51,0,0,0,31.76,10.84ZM51.13,34.43a18.14,18.14,0,0,1-.28,1.82l-.06.3A19.76,19.76,0,0,1,49.66,40a1.89,1.89,0,0,0-.11.25l-.3.64-.12.23A20,20,0,0,1,47.35,44l-.16.21-.41.51a19.81,19.81,0,0,1-2.67,2.67l-.52.41-.21.15a19.38,19.38,0,0,1-2.85,1.77l-.24.12-.63.29-.25.11a18.9,18.9,0,0,1-3.51,1.12l-.29.06a16.77,16.77,0,0,1-1.75.27l-.39,0c-.56,0-1.13.07-1.71.07A17.21,17.21,0,0,1,30,51.73l-.39,0c-.58-.06-1.16-.15-1.73-.26l-.29-.07a18.9,18.9,0,0,1-3.51-1.12L23.52,50l-.33-.16L23,49.71a19.49,19.49,0,1,1,20.47-33,1.56,1.56,0,0,0,.2.16c.18.13.35.27.52.41a20.41,20.41,0,0,1,2.67,2.67l.41.52.16.2a19.48,19.48,0,0,1,1.77,2.86l.12.24.3.64c0,.08.07.16.11.25a20.3,20.3,0,0,1,1.12,3.49l.06.3a18.54,18.54,0,0,1,.28,1.84c0,.13,0,.26,0,.39,0,.54.07,1.09.07,1.65s0,1.15-.08,1.72c0,.13,0,.26,0,.39"/><path class="cls-2" d="M23.58,50h0l-.06,0Z"/><polygon class="cls-2" points="29.07 51.16 29.07 51.16 31.73 48.5 31.73 48.5 29.07 51.16"/><path class="cls-4" d="M39.41,50.25,38,48.85l-2.32,2.31.21.21-.29.06-.28-.27L38,48.5l1.65,1.64Z"/><polygon class="cls-2" points="35.33 51.16 35.33 51.16 38.01 48.5 38.01 48.5 35.33 51.16"/><polygon class="cls-2" points="23.83 50.13 23.83 50.13 25.46 48.5 25.46 48.5 23.83 50.13"/><polygon class="cls-3" points="38.01 48.5 38.01 48.5 39.66 50.14 39.66 50.14 38.01 48.5"/><polygon class="cls-3" points="38.84 48.03 38.84 48.03 40.53 49.73 40.53 49.73 38.84 48.03"/><polygon class="cls-2" points="28.6 50.34 28.6 50.34 30.91 48.03 30.91 48.03 28.6 50.34"/><polygon class="cls-3" points="26.29 48.03 26.29 48.03 28.6 50.34 28.6 50.34 26.29 48.03"/><polygon class="cls-2" points="34.87 50.34 34.87 50.34 37.18 48.03 37.18 48.03 34.87 50.34"/><polygon class="cls-3" points="32.56 48.03 32.56 48.03 34.87 50.34 34.87 50.34 32.56 48.03"/><path class="cls-4" d="M40.65,46A2.8,2.8,0,0,0,41,45.9L38.83,48l1.7,1.7-.24.12L38.47,48l2-2Z"/><path class="cls-4" d="M43.59,47.81l-.21.15L41.22,45.8l.25-.11Z"/><polygon class="cls-3" points="28.6 45.36 28.6 45.36 31.27 48.03 31.27 48.03 28.6 45.36"/><polygon class="cls-2" points="25.93 48.03 25.93 48.03 28.6 45.36 28.6 45.36 25.93 48.03"/><path class="cls-4" d="M31.27,48,28.6,50.7,25.93,48l2.67-2.67ZM28.6,45.72,26.29,48l2.31,2.31L30.91,48,28.6,45.72"/><polygon class="cls-2" points="32.2 48.03 32.2 48.03 34.87 45.36 34.87 45.36 32.2 48.03"/><path class="cls-4" d="M37.54,48,34.87,50.7,32.2,48l2.67-2.67Zm-5,0,2.31,2.31L37.18,48l-2.31-2.31L32.56,48"/><path class="cls-4" d="M19.39,47.37l2.11-2.12a4.28,4.28,0,0,0,.57.37l-2.16,2.16-.2-.15-.13-.1Z"/><polygon class="cls-3" points="35.69 44.89 35.69 44.89 38.01 47.2 38.01 47.2 35.69 44.89"/><polygon class="cls-2" points="44.28 47.2 44.28 47.2 46.59 44.89 46.59 44.89 44.28 47.2"/><path class="cls-4" d="M39.44,46.12,38,47.56l-2.68-2.67.51-.5.16.19-.31.31L38,47.2l1.09-1.09Z"/><path class="cls-2" d="M16.46,44.38h0l.1.12h0Z"/><path class="cls-2" d="M23.49,44a2.26,2.26,0,0,1-.39-.15A2.26,2.26,0,0,0,23.49,44Z"/><path class="cls-2" d="M26.18,43.2l0,0h0Z"/><path class="cls-2" d="M26.21,43.16v0l.06-.08h0l-.1.13Z"/><path class="cls-2" d="M26.62,42.35a.24.24,0,0,1,0,.08h0v-.08Z"/><polygon class="cls-3" points="44.28 42.23 44.28 42.23 46.78 44.73 46.78 44.73 44.28 42.23"/><path class="cls-4" d="M44.28,42.23l2.5,2.5a19.81,19.81,0,0,1-2.67,2.67l-2-2,.21-.16,2,2,2.31-2.31-2.31-2.31-.5.49a4.36,4.36,0,0,0,.17-.51Z"/><polygon class="cls-2" points="29.07 44.89 29.07 44.89 31.73 42.23 31.73 42.23 29.07 44.89"/><polygon class="cls-3" points="45.11 41.76 45.11 41.76 47.35 44.01 47.35 44.01 45.11 41.76"/><polygon class="cls-2" points="28.6 44.06 28.6 44.06 30.91 41.76 30.91 41.76 28.6 44.06"/><path class="cls-4" d="M31.27,41.76,28.6,44.42l-.5-.5.13-.23.37.37,2.31-2.3-1.52-1.52.09-.27Z"/><polygon class="cls-3" points="47.41 39.09 47.41 39.09 49.24 40.93 49.24 40.93 47.41 39.09"/><polygon class="cls-3" points="16.06 39.09 16.06 39.09 18.72 41.76 18.72 41.76 16.06 39.09"/><polygon class="cls-2" points="44.75 41.76 44.75 41.76 47.41 39.09 47.41 39.09 44.75 41.76"/><path class="cls-4" d="M49.13,41.16l-1.72-1.71-2.3,2.31L47.35,44l-.16.21-2.44-2.46,2.66-2.67,1.84,1.84Z"/><polygon class="cls-3" points="16.88 38.62 16.88 38.62 19.19 40.93 19.19 40.93 16.88 38.62"/><polygon class="cls-4" points="41.65 39.59 41.64 39.59 41.16 38.14 41.65 39.59"/><path class="cls-4" d="M20.58,37.7l-1.39-1.39-2.32,2.31,2.32,2.31.57-.57c0,.14-.06.29-.08.44l-.49.49-2.67-2.67L19.19,36l1.48,1.48Z"/><polygon class="cls-2" points="47.88 38.62 47.88 38.62 50.55 35.95 50.55 35.95 47.88 38.62"/><polygon class="cls-2" points="16.52 38.62 16.52 38.62 19.19 35.95 19.19 35.95 16.52 38.62"/><path class="cls-4" d="M50.79,36.55l-.24-.24-2.31,2.31L49.66,40a1.89,1.89,0,0,0-.11.25l-1.67-1.67L50.55,36l.3.3Z"/><polygon class="cls-3" points="12.91 35.95 12.91 35.95 15.59 38.62 15.59 38.62 12.91 35.95"/><path class="cls-4" d="M12.63,35.88h0v0l0-.09v0h0Z"/><path class="cls-4" d="M12.51,35.19a2.34,2.34,0,0,0,0-.26h0a2.51,2.51,0,0,0,0,.27Z"/><polygon class="cls-4" points="39.58 33.45 39.81 34.14 39.81 34.15 39.57 33.45 39.58 33.45"/><polygon class="cls-4" points="42.73 36.57 42.64 36.3 43.45 35.49 41.82 33.85 41.63 33.31 43.81 35.49 42.73 36.57"/><polygon class="cls-2" points="19.66 35.49 19.66 35.49 22.02 33.12 22.02 33.12 19.66 35.49"/><polygon class="cls-2" points="13.38 35.49 13.38 35.49 16.06 32.81 16.06 32.81 13.38 35.49"/><polygon class="cls-2" points="44.75 35.49 44.75 35.49 47.41 32.81 47.41 32.81 44.75 35.49"/><polygon class="cls-2" points="12.92 34.66 12.92 34.66 15.23 32.35 15.23 32.35 12.92 34.66"/><polygon class="cls-2" points="47.88 32.35 47.88 32.35 50.55 29.68 50.55 29.68 47.88 32.35"/><path class="cls-4" d="M12.48,34.93a.06.06,0,0,1,0,0l0-.21,0-.25a1.23,1.23,0,0,0,0-.19.49.49,0,0,0,0-.12l.54.54,2.31-2.31L12.91,30l-.53.53a.49.49,0,0,0,0-.12,1.11,1.11,0,0,0,0-.19l0-.25,0-.21v0c0,.13,0,.27,0,.41l.48-.49,2.68,2.67L12.92,35l-.49-.49C12.44,34.67,12.46,34.8,12.48,34.93Z"/><polygon class="cls-3" points="19.19 29.68 19.19 29.68 21.86 32.35 21.86 32.35 19.19 29.68"/><polygon class="cls-2" points="16.52 32.35 16.52 32.35 19.19 29.68 19.19 29.68 16.52 32.35"/><polygon class="cls-3" points="44.28 29.68 44.28 29.68 46.94 32.35 46.94 32.35 44.28 29.68"/><polygon class="cls-2" points="41.61 32.35 41.61 32.35 44.28 29.68 44.28 29.68 41.61 32.35"/><polygon class="cls-3" points="12.91 29.68 12.91 29.68 15.59 32.35 15.59 32.35 12.91 29.68"/><polygon class="cls-3" points="20.02 29.21 20.02 29.21 22.33 31.53 22.33 31.53 20.02 29.21"/><path class="cls-4" d="M12.51,29.51h0v0c0-.12,0-.25.05-.36s0-.08,0-.11h0C12.56,29.17,12.54,29.34,12.51,29.51Z"/><path class="cls-2" d="M12.59,29h0v-.06l0-.09v0h0A1.29,1.29,0,0,0,12.59,29Z"/><polygon class="cls-4" points="38.46 30.14 38.46 30.13 37.98 28.72 37.98 28.72 38.46 30.14"/><polygon class="cls-4" points="25.51 28.71 25.52 28.7 25.13 29.93 25.51 28.71"/><path class="cls-2" d="M12.68,28.51h0l0,.15,0-.11Z"/><polygon class="cls-2" points="44.75 29.21 44.75 29.21 47.41 26.55 47.41 26.55 44.75 29.21"/><polygon class="cls-3" points="47.41 26.55 47.41 26.55 50.09 29.21 50.09 29.21 47.41 26.55"/><polygon class="cls-4" points="22.45 31.77 22.33 31.89 19.66 29.21 22.33 26.54 23.67 27.89 23.58 28.16 22.33 26.9 20.02 29.21 22.33 31.53 22.61 31.24 22.45 31.77"/><polygon class="cls-2" points="13.38 29.21 13.38 29.21 16.06 26.54 16.06 26.54 13.38 29.21"/><polygon class="cls-2" points="19.66 29.21 19.66 29.21 22.33 26.54 22.33 26.54 19.66 29.21"/><polygon class="cls-3" points="16.88 26.08 16.88 26.08 19.19 28.39 19.19 28.39 16.88 26.08"/><polygon class="cls-2" points="19.19 28.39 19.19 28.39 21.5 26.08 21.5 26.08 19.19 28.39"/><polygon class="cls-3" points="48.24 26.08 48.24 26.08 50.55 28.39 50.55 28.39 48.24 26.08"/><path class="cls-4" d="M49.57,24.4c0,.08.07.16.11.25l-1.44,1.43,2.31,2.31.25-.25.06.3-.31.31-2.67-2.67Z"/><polygon class="cls-4" points="36.42 24.06 36.65 24.77 36.65 24.77 36.41 24.07 36.42 24.06"/><path class="cls-4" d="M14.08,24.22h0l.07-.15h0Z"/><polygon class="cls-4" points="26.99 24 26.99 24 26.77 24.71 26.76 24.71 26.99 24"/><polygon class="cls-2" points="22.8 26.08 22.8 26.08 24.9 23.97 24.9 23.97 22.8 26.08"/><polygon class="cls-2" points="47.41 25.61 47.41 25.61 49.27 23.76 49.27 23.76 47.41 25.61"/><polygon class="cls-2" points="47.41 25.25 47.41 25.25 49.15 23.52 49.15 23.52 47.41 25.25"/><polygon class="cls-2" points="41.61 26.08 41.61 26.08 44.28 23.41 44.28 23.41 41.61 26.08"/><polygon class="cls-2" points="16.52 26.08 16.52 26.08 19.19 23.41 19.19 23.41 16.52 26.08"/><path class="cls-4" d="M16.52,26.08l2.67-2.67,2.67,2.67-2.67,2.67Zm2.67,2.31,2.31-2.31-2.31-2.31-2.32,2.31,2.32,2.31"/><polygon class="cls-3" points="19.19 23.41 19.19 23.41 21.86 26.08 21.86 26.08 19.19 23.41"/><polygon class="cls-2" points="38.48 22.94 38.48 22.94 41.14 20.28 41.14 20.28 38.48 22.94"/><polygon class="cls-2" points="19.66 22.94 19.66 22.94 22.33 20.28 22.33 20.28 19.66 22.94"/><path class="cls-2" d="M16.46,20.32h0l.09-.12h0Z"/><path class="cls-4" d="M34.66,20.5h0a2.41,2.41,0,0,0-.65-.3h0A2.26,2.26,0,0,1,34.66,20.5Z"/><path class="cls-4" d="M29.43,20.17h0a2.05,2.05,0,0,0-.67.27h0A2.3,2.3,0,0,1,29.43,20.17Z"/><polygon class="cls-2" points="44.28 22.47 44.28 22.47 46.81 19.94 46.81 19.94 44.28 22.47"/><polygon class="cls-2" points="19.19 22.12 19.19 22.12 21.5 19.81 21.5 19.81 19.19 22.12"/><polygon class="cls-3" points="23.15 19.81 23.15 19.81 25.46 22.12 25.46 22.12 23.15 19.81"/><polygon class="cls-2" points="38.01 22.12 38.01 22.12 40.32 19.81 40.32 19.81 38.01 22.12"/><polygon class="cls-2" points="16.88 19.81 16.88 19.81 16.88 19.81 16.88 19.81 16.88 19.81"/><path class="cls-4" d="M16.72,20v0l.15-.17,2.31,2.31,2.31-2.31L19.19,17.5l-2.31,2.31a19.17,19.17,0,0,1,1.51-1.61c.25-.24.51-.47.77-.69l.22-.18,2.48,2.48-2.67,2.66Z"/><polygon class="cls-2" points="41.61 19.81 41.61 19.81 44.14 17.27 44.14 17.27 41.61 19.81"/><path class="cls-4" d="M36.08,19.06,38,17.14l2.67,2.67L38,22.47l0,0-.18-.53.22.21,2.31-2.31L38,17.5l-1.73,1.72Z"/><polygon class="cls-2" points="22.8 19.81 22.8 19.81 25.46 17.14 25.46 17.14 22.8 19.81"/><polygon class="cls-2" points="36.08 19.06 36.08 19.06 38.01 17.14 38.01 17.14 36.08 19.06"/><polygon class="cls-3" points="25.46 17.14 25.46 17.14 27.32 19 27.32 19 25.46 17.14"/><path class="cls-4" d="M22.8,19.81l2.66-2.67L27.32,19l-.2.16L25.46,17.5l-2.31,2.31,2.31,2.31,0,0-.1.31Z"/><polygon class="cls-2" points="41.14 19.34 41.14 19.34 43.62 16.86 43.62 16.86 41.14 19.34"/><polygon class="cls-2" points="41.14 18.98 41.14 18.98 43.42 16.7 43.42 16.7 41.14 18.98"/><polygon class="cls-3" points="23.19 14.86 23.19 14.86 24.99 16.67 24.99 16.67 23.19 14.86"/><polygon class="cls-2" points="38.48 16.67 38.48 16.67 40.33 14.82 40.33 14.82 38.48 16.67"/><path class="cls-2" d="M23.43,14.74l-.14.07h0l.06,0,.05,0Z"/><path class="cls-2" d="M39.93,14.64h0l.15.07h0Z"/><path class="cls-2" d="M23.58,14.68h0l.08,0,.12-.05Z"/><polygon class="cls-3" points="23.82 14.56 23.82 14.56 25.46 16.2 25.46 16.2 23.82 14.56"/><polygon class="cls-2" points="38.01 16.2 38.01 16.2 39.68 14.53 39.68 14.53 38.01 16.2"/><polygon class="cls-2" points="32.2 16.67 32.2 16.67 34.88 14 34.88 14 32.2 16.67"/><polygon class="cls-3" points="34.88 14 34.88 14 37.54 16.67 37.54 16.67 34.88 14"/><polygon class="cls-3" points="28.6 14 28.6 14 31.27 16.67 31.27 16.67 28.6 14"/><polygon class="cls-2" points="25.93 16.67 25.93 16.67 28.6 14 28.6 14 25.93 16.67"/><polygon class="cls-3" points="35.69 13.54 35.69 13.54 38.01 15.85 38.01 15.85 35.69 13.54"/><path class="cls-4" d="M35.33,13.54l.31-.3h0l.12,0,.13,0-.24.24L38,15.85l1.43-1.43.07,0,.38.17,0,0-.25-.11L38,16.2Z"/></g></g><g id="version_OK-2" data-name="version OK"><g class="cls-1"><rect class="cls-5" x="28.04" y="37.86" width="7.51"/><polygon class="cls-7" points="19.85 40.02 19.85 40.02 25.77 21.21 25.77 21.21 19.85 40.02"/><polygon class="cls-8" points="37.53 21.13 37.53 21.13 43.87 39.93 43.87 39.93 37.53 21.13"/><rect class="cls-5" x="30.01" y="18.1" width="3.31"/><path class="cls-6" d="M31.76,10.84A21.49,21.49,0,1,1,10.27,32.32,21.5,21.5,0,0,1,31.76,10.84Zm0,41A19.49,19.49,0,1,0,12.27,32.32,19.5,19.5,0,0,0,31.76,51.81"/><path class="cls-6" d="M43.87,39.93a4.79,4.79,0,0,1-.4,3.83A4.49,4.49,0,0,1,40.65,46a4.89,4.89,0,0,1-1.15.13A4.51,4.51,0,0,1,35,42.75l-.94-2.88H29.51l-.91,2.84a4.49,4.49,0,0,1-4.43,3.41A4.77,4.77,0,0,1,23,46a4.29,4.29,0,0,1-2.7-2.15,4.84,4.84,0,0,1-.44-3.8l5.92-18.81A4.42,4.42,0,0,1,30,18.1h3.31a4.42,4.42,0,0,1,4.21,3Zm-3.69,4.12A2.82,2.82,0,0,0,42,40.57L35.64,21.76a2.45,2.45,0,0,0-2.32-1.66H30a2.45,2.45,0,0,0-2.34,1.72L21.76,40.63A2.77,2.77,0,0,0,23.49,44a3.08,3.08,0,0,0,.68.08,2.5,2.5,0,0,0,2.51-2L28,37.86h7.51L37,42.2a2.51,2.51,0,0,0,2.54,1.93,3.08,3.08,0,0,0,.68-.08"/></g></g></g></svg>