<svg id="Layer_13" data-name="Layer 13" xmlns="http://www.w3.org/2000/svg" xmlns:xlink="http://www.w3.org/1999/xlink" viewBox="0 0 64 64"><defs><linearGradient id="linear-gradient" x1="15.44" y1="11.88" x2="23.28" y2="25.47" gradientUnits="userSpaceOnUse"><stop offset="0" stop-color="#f5f6f6"/><stop offset="0.99" stop-color="#d2d3d3"/></linearGradient><linearGradient id="linear-gradient-3" x1="41.29" y1="13.17" x2="43.93" y2="17.74" gradientUnits="userSpaceOnUse"><stop offset="0" stop-color="#3c9b19"/><stop offset="0.99" stop-color="#28780a"/></linearGradient><linearGradient id="linear-gradient-4" x1="47.48" y1="47.11" x2="31.61" y2="19.63" gradientUnits="userSpaceOnUse"><stop offset="0" stop-color="#386f8d"/><stop offset="1" stop-color="#8dd7f4"/></linearGradient></defs><title>EnoviaTeam&amp;amp;Approvals</title><polygon points="10.47 12.5 27.47 12.5 27.47 23.5 24.47 23.5 20.47 28.5 20.47 23.5 10.47 23.5 10.47 12.5" stroke="#333332" stroke-linecap="round" stroke-linejoin="round" fill="url(#linear-gradient)"/><polygon points="33.47 10.5 33.47 21.5 37.47 21.5 37.47 26.5 41.47 21.5 50.47 21.5 50.47 10.5 33.47 10.5" stroke="#333332" stroke-linecap="round" stroke-linejoin="round" fill="url(#linear-gradient)"/><path d="M41.47,19a1,1,0,0,1-.63-.22l-3.28-2.62,1.25-1.57,2.54,2,4-4.54,1.49,1.33-4.66,5.24A1,1,0,0,1,41.47,19Z" fill="url(#linear-gradient-3)"/><path d="M19.65,20H18.19V19.6a2.41,2.41,0,0,1,.23-1.11,3.59,3.59,0,0,1,.94-1,7.52,7.52,0,0,0,.84-.71.9.9,0,0,0,.21-.58,1,1,0,0,0-.38-.76,1.5,1.5,0,0,0-1-.31,1.56,1.56,0,0,0-1,.33,1.68,1.68,0,0,0-.57,1L16,16.32a2.24,2.24,0,0,1,.87-1.64A3.19,3.19,0,0,1,19,14a3.32,3.32,0,0,1,2.19.68A2,2,0,0,1,22,16.27a1.65,1.65,0,0,1-.3.95,6.61,6.61,0,0,1-1.28,1.23,2.25,2.25,0,0,0-.63.64A2,2,0,0,0,19.65,20Zm-1.46,2V20.48H19.8V22Z"/><path d="M55,26.13a.84.84,0,0,1-.31.67C52.61,28.46,42.35,36.58,41,37.62a12.24,12.24,0,0,0-2.83,2.88c-.47.71-2.23,4.6-3.39,7.18-1.47,3.24-1.49,3.26-1.61,3.37a1.51,1.51,0,0,1-1,.45h-1a1.49,1.49,0,0,1-1-.31A1.51,1.51,0,0,1,29.62,50a1.62,1.62,0,0,1,.16-.71l4.63-10.53c.2-.59.2-1.06-.34-2.31l-.57-1.4c-.92-2.25-2.84-7-3.72-9l-.31-.75h3.15a1.6,1.6,0,0,1,1,.44,1.57,1.57,0,0,1,.42.63c.05.1.28.65.61,1.47.63,1.57,1.7,4.21,2.58,6.27.27.57.47.73.88.73a1.35,1.35,0,0,0,.84-.3c.27-.21.52-.43.78-.63l9.94-7.84a3.22,3.22,0,0,1,2-.77h2.52A.81.81,0,0,1,55,26.13ZM40.18,30.88A2.88,2.88,0,1,0,37.3,28,2.88,2.88,0,0,0,40.18,30.88Z" stroke="#053755" stroke-linecap="round" stroke-linejoin="round" fill="url(#linear-gradient-4)"/><path d="M36,29.13a.84.84,0,0,1-.31.67C33.58,31.46,23.32,39.58,22,40.62a12.24,12.24,0,0,0-2.83,2.88c-.47.71-2.23,4.6-3.4,7.18-1.46,3.24-1.48,3.26-1.6,3.37a1.51,1.51,0,0,1-1,.45h-1a1.46,1.46,0,0,1-1-.31A1.51,1.51,0,0,1,10.59,53a1.62,1.62,0,0,1,.16-.71l4.63-10.53c.2-.59.2-1.06-.34-2.31l-.57-1.4c-.92-2.25-2.84-7-3.72-9l-.31-.75h3.15a1.6,1.6,0,0,1,1,.44,1.57,1.57,0,0,1,.42.63c.05.1.28.65.61,1.47.63,1.57,1.7,4.21,2.58,6.27.27.57.47.73.88.73a1.35,1.35,0,0,0,.84-.3c.27-.21.52-.43.78-.63l9.94-7.84a3.22,3.22,0,0,1,2-.77H35.2A.81.81,0,0,1,36,29.13ZM21.14,33.88A2.88,2.88,0,1,0,18.27,31,2.88,2.88,0,0,0,21.14,33.88Z" stroke="#053755" stroke-linecap="round" stroke-linejoin="round" fill="url(#linear-gradient-4)"/></svg>