<svg id="_29248_ENOBIEX_AP_AppIcon_R21x" data-name="29248_ENOBIEX_AP_AppIcon_R21x" xmlns="http://www.w3.org/2000/svg" xmlns:xlink="http://www.w3.org/1999/xlink" viewBox="0 0 64 64"><defs><style>.cls-1,.cls-2{fill:none;stroke:#285978;}.cls-1,.cls-14,.cls-19,.cls-2,.cls-24,.cls-29,.cls-3,.cls-34,.cls-39,.cls-44,.cls-49,.cls-54,.cls-59,.cls-64,.cls-69,.cls-74,.cls-79,.cls-84,.cls-9{stroke-miterlimit:10;}.cls-2{stroke-width:2px;}.cls-14,.cls-19,.cls-24,.cls-29,.cls-3,.cls-34,.cls-39,.cls-44,.cls-49,.cls-54,.cls-59,.cls-64,.cls-69,.cls-74,.cls-79,.cls-84,.cls-9{stroke:#323232;}.cls-3{fill:url(#linear-gradient);}.cls-10,.cls-13,.cls-15,.cls-18,.cls-20,.cls-23,.cls-25,.cls-28,.cls-30,.cls-33,.cls-35,.cls-38,.cls-4,.cls-40,.cls-43,.cls-45,.cls-48,.cls-5,.cls-50,.cls-53,.cls-55,.cls-58,.cls-60,.cls-63,.cls-65,.cls-68,.cls-70,.cls-73,.cls-75,.cls-78,.cls-8,.cls-80,.cls-83,.cls-85,.cls-88{opacity:0.7;}.cls-4{fill:url(#linear-gradient-2);}.cls-5{fill:#abdbf5;}.cls-11,.cls-16,.cls-21,.cls-26,.cls-31,.cls-36,.cls-41,.cls-46,.cls-51,.cls-56,.cls-6,.cls-61,.cls-66,.cls-71,.cls-76,.cls-81,.cls-86{opacity:0.4;}.cls-6{fill:url(#top_white);}.cls-12,.cls-17,.cls-22,.cls-27,.cls-32,.cls-37,.cls-42,.cls-47,.cls-52,.cls-57,.cls-62,.cls-67,.cls-7,.cls-72,.cls-77,.cls-82,.cls-87{opacity:0.6;}.cls-7{fill:url(#top_white-2);}.cls-8{fill:url(#top_white-3);}.cls-9{fill:url(#linear-gradient-3);}.cls-10{fill:url(#linear-gradient-4);}.cls-11{fill:url(#top_white-4);}.cls-12{fill:url(#top_white-5);}.cls-13{fill:url(#top_white-6);}.cls-14{fill:url(#linear-gradient-5);}.cls-15{fill:url(#linear-gradient-6);}.cls-16{fill:url(#top_white-7);}.cls-17{fill:url(#top_white-8);}.cls-18{fill:url(#top_white-9);}.cls-19{fill:url(#linear-gradient-7);}.cls-20{fill:url(#linear-gradient-8);}.cls-21{fill:url(#top_white-10);}.cls-22{fill:url(#top_white-11);}.cls-23{fill:url(#top_white-12);}.cls-24{fill:url(#linear-gradient-9);}.cls-25{fill:url(#linear-gradient-10);}.cls-26{fill:url(#top_white-13);}.cls-27{fill:url(#top_white-14);}.cls-28{fill:url(#top_white-15);}.cls-29{fill:url(#linear-gradient-11);}.cls-30{fill:url(#linear-gradient-12);}.cls-31{fill:url(#top_white-16);}.cls-32{fill:url(#top_white-17);}.cls-33{fill:url(#top_white-18);}.cls-34,.cls-39,.cls-44,.cls-49,.cls-54,.cls-59,.cls-64,.cls-69,.cls-74,.cls-79,.cls-84{stroke-width:0.5px;}.cls-34{fill:url(#linear-gradient-13);}.cls-35{fill:url(#linear-gradient-14);}.cls-36{fill:url(#top_white-19);}.cls-37{fill:url(#top_white-20);}.cls-38{fill:url(#top_white-21);}.cls-39{fill:url(#linear-gradient-15);}.cls-40{fill:url(#linear-gradient-16);}.cls-41{fill:url(#top_white-22);}.cls-42{fill:url(#top_white-23);}.cls-43{fill:url(#top_white-24);}.cls-44{fill:url(#linear-gradient-17);}.cls-45{fill:url(#linear-gradient-18);}.cls-46{fill:url(#top_white-25);}.cls-47{fill:url(#top_white-26);}.cls-48{fill:url(#top_white-27);}.cls-49{fill:url(#linear-gradient-19);}.cls-50{fill:url(#linear-gradient-20);}.cls-51{fill:url(#top_white-28);}.cls-52{fill:url(#top_white-29);}.cls-53{fill:url(#top_white-30);}.cls-54{fill:url(#linear-gradient-21);}.cls-55{fill:url(#linear-gradient-22);}.cls-56{fill:url(#top_white-31);}.cls-57{fill:url(#top_white-32);}.cls-58{fill:url(#top_white-33);}.cls-59{fill:url(#linear-gradient-23);}.cls-60{fill:url(#linear-gradient-24);}.cls-61{fill:url(#top_white-34);}.cls-62{fill:url(#top_white-35);}.cls-63{fill:url(#top_white-36);}.cls-64{fill:url(#linear-gradient-25);}.cls-65{fill:url(#linear-gradient-26);}.cls-66{fill:url(#top_white-37);}.cls-67{fill:url(#top_white-38);}.cls-68{fill:url(#top_white-39);}.cls-69{fill:url(#linear-gradient-27);}.cls-70{fill:url(#linear-gradient-28);}.cls-71{fill:url(#top_white-40);}.cls-72{fill:url(#top_white-41);}.cls-73{fill:url(#top_white-42);}.cls-74{fill:url(#linear-gradient-29);}.cls-75{fill:url(#linear-gradient-30);}.cls-76{fill:url(#top_white-43);}.cls-77{fill:url(#top_white-44);}.cls-78{fill:url(#top_white-45);}.cls-79{fill:url(#linear-gradient-31);}.cls-80{fill:url(#linear-gradient-32);}.cls-81{fill:url(#top_white-46);}.cls-82{fill:url(#top_white-47);}.cls-83{fill:url(#top_white-48);}.cls-84{fill:url(#linear-gradient-33);}.cls-85{fill:url(#linear-gradient-34);}.cls-86{fill:url(#top_white-49);}.cls-87{fill:url(#top_white-50);}.cls-88{fill:url(#top_white-51);}</style><linearGradient id="linear-gradient" x1="21.6" y1="53.54" x2="21.6" y2="41.81" gradientUnits="userSpaceOnUse"><stop offset="0" stop-color="#376e8c"/><stop offset="1" stop-color="#8bd6f4"/></linearGradient><linearGradient id="linear-gradient-2" x1="21.48" y1="43.11" x2="21.48" y2="51.05" gradientUnits="userSpaceOnUse"><stop offset="0" stop-color="#8bd6f4"/><stop offset="0.33" stop-color="#89d4f2"/><stop offset="0.51" stop-color="#83ccea"/><stop offset="0.65" stop-color="#78bedc"/><stop offset="0.77" stop-color="#68aac8"/><stop offset="0.88" stop-color="#5391af"/><stop offset="0.99" stop-color="#3b7391"/><stop offset="1" stop-color="#376e8c"/></linearGradient><linearGradient id="top_white" x1="18.24" y1="45.06" x2="25.12" y2="45.06" gradientUnits="userSpaceOnUse"><stop offset="0" stop-color="#fff"/><stop offset="1" stop-color="#f0f0f0"/></linearGradient><linearGradient id="top_white-2" x1="19.64" y1="43.51" x2="24.02" y2="43.51" xlink:href="#top_white"/><linearGradient id="top_white-3" x1="19.48" y1="44.28" x2="24.18" y2="44.28" xlink:href="#top_white"/><linearGradient id="linear-gradient-3" x1="19.66" y1="35.71" x2="19.66" y2="27.83" xlink:href="#linear-gradient"/><linearGradient id="linear-gradient-4" x1="19.24" y1="28.99" x2="19.24" y2="33.52" xlink:href="#linear-gradient-2"/><linearGradient id="top_white-4" x1="17.23" y1="30.07" x2="21.56" y2="30.07" xlink:href="#top_white"/><linearGradient id="top_white-5" x1="18.19" y1="28.99" x2="21.13" y2="28.99" xlink:href="#top_white"/><linearGradient id="top_white-6" x1="18.18" y1="29.59" x2="21.03" y2="29.59" xlink:href="#top_white"/><linearGradient id="linear-gradient-5" x1="25.5" y1="22.8" x2="25.5" y2="15.91" xlink:href="#linear-gradient"/><linearGradient id="linear-gradient-6" x1="25.49" y1="16.65" x2="25.49" y2="21.56" xlink:href="#linear-gradient-2"/><linearGradient id="top_white-7" x1="23.65" y1="18.17" x2="27.55" y2="18.17" xlink:href="#top_white"/><linearGradient id="top_white-8" x1="24.32" y1="17.16" x2="26.89" y2="17.16" xlink:href="#top_white"/><linearGradient id="top_white-9" x1="24.36" y1="17.72" x2="27.02" y2="17.72" xlink:href="#top_white"/><linearGradient id="linear-gradient-7" x1="44.55" y1="25.04" x2="44.55" y2="16.9" xlink:href="#linear-gradient"/><linearGradient id="linear-gradient-8" x1="44.55" y1="17.99" x2="44.55" y2="23.5" xlink:href="#linear-gradient-2"/><linearGradient id="top_white-10" x1="42.3" y1="19.35" x2="47.08" y2="19.35" xlink:href="#top_white"/><linearGradient id="top_white-11" x1="43.17" y1="18.15" x2="46.21" y2="18.15" xlink:href="#top_white"/><linearGradient id="top_white-12" x1="43.17" y1="18.8" x2="46.42" y2="18.8" xlink:href="#top_white"/><linearGradient id="linear-gradient-9" x1="34.09" y1="37.17" x2="34.09" y2="25.24" xlink:href="#linear-gradient"/><linearGradient id="linear-gradient-10" x1="34.09" y1="26.21" x2="34.09" y2="34.99" xlink:href="#linear-gradient-2"/><linearGradient id="top_white-13" x1="30.59" y1="28.77" x2="37.59" y2="28.77" xlink:href="#top_white"/><linearGradient id="top_white-14" x1="32.02" y1="26.89" x2="36.47" y2="26.89" xlink:href="#top_white"/><linearGradient id="top_white-15" x1="31.85" y1="27.65" x2="36.63" y2="27.65" xlink:href="#top_white"/><linearGradient id="linear-gradient-11" x1="43.65" y1="46.57" x2="43.65" y2="37.11" xlink:href="#linear-gradient"/><linearGradient id="linear-gradient-12" x1="43.77" y1="38.47" x2="43.77" y2="44.88" xlink:href="#linear-gradient-2"/><linearGradient id="top_white-16" x1="40.88" y1="39.85" x2="46.42" y2="39.85" xlink:href="#top_white"/><linearGradient id="top_white-17" x1="42.01" y1="38.57" x2="45.53" y2="38.57" xlink:href="#top_white"/><linearGradient id="top_white-18" x1="41.88" y1="39.21" x2="45.66" y2="39.21" xlink:href="#top_white"/><linearGradient id="linear-gradient-13" x1="11.4" y1="30.25" x2="11.4" y2="28" xlink:href="#linear-gradient"/><linearGradient id="linear-gradient-14" x1="11.37" y1="28.33" x2="11.37" y2="29.62" xlink:href="#linear-gradient-2"/><linearGradient id="top_white-19" x1="10.75" y1="28.57" x2="11.79" y2="28.57" xlink:href="#top_white"/><linearGradient id="top_white-20" x1="11.01" y1="28.22" x2="11.6" y2="28.22" xlink:href="#top_white"/><linearGradient id="top_white-21" x1="10.98" y1="28.38" x2="11.72" y2="28.38" xlink:href="#top_white"/><linearGradient id="linear-gradient-15" x1="10.95" y1="36.11" x2="10.95" y2="33.87" xlink:href="#linear-gradient"/><linearGradient id="linear-gradient-16" x1="10.92" y1="34.19" x2="10.92" y2="35.49" xlink:href="#linear-gradient-2"/><linearGradient id="top_white-22" x1="10.29" y1="34.43" x2="11.34" y2="34.43" xlink:href="#top_white"/><linearGradient id="top_white-23" x1="10.56" y1="34.08" x2="11.15" y2="34.08" xlink:href="#top_white"/><linearGradient id="top_white-24" x1="10.53" y1="34.24" x2="11.28" y2="34.24" xlink:href="#top_white"/><linearGradient id="linear-gradient-17" x1="15.76" y1="26.36" x2="15.76" y2="24.12" xlink:href="#linear-gradient"/><linearGradient id="linear-gradient-18" x1="15.72" y1="24.45" x2="15.72" y2="25.74" xlink:href="#linear-gradient-2"/><linearGradient id="top_white-25" x1="15.1" y1="24.68" x2="16.15" y2="24.68" xlink:href="#top_white"/><linearGradient id="top_white-26" x1="15.37" y1="24.33" x2="15.96" y2="24.33" xlink:href="#top_white"/><linearGradient id="top_white-27" x1="15.34" y1="24.49" x2="16.08" y2="24.49" xlink:href="#top_white"/><linearGradient id="linear-gradient-19" x1="19.24" y1="15.79" x2="19.24" y2="13.55" xlink:href="#linear-gradient"/><linearGradient id="linear-gradient-20" x1="19.2" y1="13.88" x2="19.2" y2="15.17" xlink:href="#linear-gradient-2"/><linearGradient id="top_white-28" x1="18.58" y1="14.11" x2="19.63" y2="14.11" xlink:href="#top_white"/><linearGradient id="top_white-29" x1="18.85" y1="13.76" x2="19.43" y2="13.76" xlink:href="#top_white"/><linearGradient id="top_white-30" x1="18.82" y1="13.92" x2="19.56" y2="13.92" xlink:href="#top_white"/><linearGradient id="linear-gradient-21" x1="20.24" y1="12.31" x2="20.24" y2="10.06" xlink:href="#linear-gradient"/><linearGradient id="linear-gradient-22" x1="20.2" y1="10.39" x2="20.2" y2="11.68" xlink:href="#linear-gradient-2"/><linearGradient id="top_white-31" x1="19.58" y1="10.63" x2="20.63" y2="10.63" xlink:href="#top_white"/><linearGradient id="top_white-32" x1="19.85" y1="10.28" x2="20.44" y2="10.28" xlink:href="#top_white"/><linearGradient id="top_white-33" x1="19.82" y1="10.44" x2="20.56" y2="10.44" xlink:href="#top_white"/><linearGradient id="linear-gradient-23" x1="24.69" y1="12.72" x2="24.69" y2="10.48" xlink:href="#linear-gradient"/><linearGradient id="linear-gradient-24" x1="24.65" y1="10.81" x2="24.65" y2="12.1" xlink:href="#linear-gradient-2"/><linearGradient id="top_white-34" x1="24.03" y1="11.04" x2="25.08" y2="11.04" xlink:href="#top_white"/><linearGradient id="top_white-35" x1="24.3" y1="10.69" x2="24.89" y2="10.69" xlink:href="#top_white"/><linearGradient id="top_white-36" x1="24.27" y1="10.85" x2="25.01" y2="10.85" xlink:href="#top_white"/><linearGradient id="linear-gradient-25" x1="27.62" y1="13.54" x2="27.62" y2="11.29" xlink:href="#linear-gradient"/><linearGradient id="linear-gradient-26" x1="27.58" y1="11.62" x2="27.58" y2="12.91" xlink:href="#linear-gradient-2"/><linearGradient id="top_white-37" x1="26.96" y1="11.86" x2="28.01" y2="11.86" xlink:href="#top_white"/><linearGradient id="top_white-38" x1="27.23" y1="11.51" x2="27.82" y2="11.51" xlink:href="#top_white"/><linearGradient id="top_white-39" x1="27.2" y1="11.67" x2="27.94" y2="11.67" xlink:href="#top_white"/><linearGradient id="linear-gradient-27" x1="43.55" y1="13.92" x2="43.55" y2="11.67" xlink:href="#linear-gradient"/><linearGradient id="linear-gradient-28" x1="43.52" y1="12" x2="43.52" y2="13.29" xlink:href="#linear-gradient-2"/><linearGradient id="top_white-40" x1="42.9" y1="12.24" x2="43.94" y2="12.24" xlink:href="#top_white"/><linearGradient id="top_white-41" x1="43.16" y1="11.88" x2="43.75" y2="11.88" xlink:href="#top_white"/><linearGradient id="top_white-42" x1="43.13" y1="12.05" x2="43.88" y2="12.05" xlink:href="#top_white"/><linearGradient id="linear-gradient-29" x1="52.31" y1="14.04" x2="52.31" y2="11.79" xlink:href="#linear-gradient"/><linearGradient id="linear-gradient-30" x1="52.28" y1="12.12" x2="52.28" y2="13.41" xlink:href="#linear-gradient-2"/><linearGradient id="top_white-43" x1="51.66" y1="12.36" x2="52.7" y2="12.36" xlink:href="#top_white"/><linearGradient id="top_white-44" x1="51.93" y1="12.01" x2="52.51" y2="12.01" xlink:href="#top_white"/><linearGradient id="top_white-45" x1="51.89" y1="12.17" x2="52.64" y2="12.17" xlink:href="#top_white"/><linearGradient id="linear-gradient-31" x1="53.3" y1="45.92" x2="53.3" y2="43.68" xlink:href="#linear-gradient"/><linearGradient id="linear-gradient-32" x1="53.26" y1="44.01" x2="53.26" y2="45.3" xlink:href="#linear-gradient-2"/><linearGradient id="top_white-46" x1="52.64" y1="44.24" x2="53.69" y2="44.24" xlink:href="#top_white"/><linearGradient id="top_white-47" x1="52.91" y1="43.89" x2="53.5" y2="43.89" xlink:href="#top_white"/><linearGradient id="top_white-48" x1="52.88" y1="44.05" x2="53.62" y2="44.05" xlink:href="#top_white"/><linearGradient id="linear-gradient-33" x1="52.23" y1="39.91" x2="52.23" y2="37.66" xlink:href="#linear-gradient"/><linearGradient id="linear-gradient-34" x1="52.19" y1="37.99" x2="52.19" y2="39.28" xlink:href="#linear-gradient-2"/><linearGradient id="top_white-49" x1="51.57" y1="38.23" x2="52.62" y2="38.23" xlink:href="#top_white"/><linearGradient id="top_white-50" x1="51.84" y1="37.88" x2="52.43" y2="37.88" xlink:href="#top_white"/><linearGradient id="top_white-51" x1="51.81" y1="38.04" x2="52.55" y2="38.04" xlink:href="#top_white"/></defs><title>29248_ENOBIEX_AP_AppIcon_R21x</title><g id="BIOVIA_-_032_-_BEX_-_BioKnowledge_Explorer" data-name="BIOVIA - 032 - BEX - BioKnowledge Explorer"><line class="cls-1" x1="19.18" y1="14.46" x2="23.94" y2="18.03"/><line class="cls-1" x1="20.11" y1="10.84" x2="23.94" y2="18.03"/><line class="cls-1" x1="24.65" y1="11.34" x2="25.35" y2="16.86"/><line class="cls-1" x1="27.27" y1="12.79" x2="25.2" y2="17.4"/><line class="cls-1" x1="43.59" y1="11.83" x2="44.65" y2="18.08"/><line class="cls-1" x1="52.67" y1="12.56" x2="44.05" y2="18.7"/><line class="cls-1" x1="19.36" y1="32.06" x2="10.81" y2="34.99"/><line class="cls-1" x1="44.39" y1="42.96" x2="53.98" y2="45"/><line class="cls-1" x1="44" y1="42.04" x2="53.06" y2="38.97"/><line class="cls-2" x1="44" y1="42.04" x2="33.25" y2="32.06"/><line class="cls-2" x1="33.47" y1="29.72" x2="19" y2="32.18"/><line class="cls-2" x1="21.75" y1="47.22" x2="32.46" y2="31.71"/><line class="cls-1" x1="18.6" y1="31.3" x2="10.68" y2="28.75"/><line class="cls-1" x1="18.6" y1="30.92" x2="15.23" y2="24.82"/><line class="cls-2" x1="33.14" y1="30.7" x2="24.74" y2="18.92"/><line class="cls-2" x1="44.82" y1="20.89" x2="33.99" y2="29.59"/><path class="cls-3" d="M27.47,47.68a5.87,5.87,0,1,1-5.87-5.87A5.86,5.86,0,0,1,27.47,47.68Z"/><path class="cls-4" d="M26.66,47.08c0,2.2-2.32,4-5.18,4s-5.19-1.77-5.19-4,2.32-4,5.19-4S26.66,44.89,26.66,47.08Z"/><path class="cls-5" d="M25.58,46.39c0,1.82-2,3.29-4.43,3.29s-4.42-1.47-4.42-3.29,2-3.28,4.42-3.28S25.58,44.58,25.58,46.39Z"/><path class="cls-6" d="M25.12,45.06c0,1.25-1.54,2.27-3.44,2.27s-3.44-1-3.44-2.27,1.54-2.27,3.44-2.27S25.12,43.81,25.12,45.06Z"/><path class="cls-7" d="M24,44.23a3.66,3.66,0,0,0-2.19-.9,3.66,3.66,0,0,0-2.19.9s.05-1.42,2.19-1.44S24,44.23,24,44.23Z"/><path class="cls-8" d="M24.18,44.28c0,.81-1.06,1.47-2.35,1.47s-2.35-.66-2.35-1.47,1.05-1.48,2.35-1.48S24.18,43.46,24.18,44.28Z"/><path class="cls-9" d="M23.6,31.77a3.95,3.95,0,1,1-3.94-3.94A3.95,3.95,0,0,1,23.6,31.77Z"/><path class="cls-10" d="M22.19,31.26c0,1.25-1.32,2.26-3,2.26s-3-1-3-2.26S17.6,29,19.24,29,22.19,30,22.19,31.26Z"/><path class="cls-5" d="M22,30.66c0,1.1-1.2,2-2.67,2s-2.67-.89-2.67-2,1.19-2,2.67-2S22,29.56,22,30.66Z"/><path class="cls-11" d="M21.56,30.07c0,.79-1,1.43-2.17,1.43s-2.16-.64-2.16-1.43,1-1.42,2.16-1.42S21.56,29.28,21.56,30.07Z"/><path class="cls-12" d="M21.13,29.48a2.46,2.46,0,0,0-1.48-.61,2.41,2.41,0,0,0-1.46.61s0-1,1.46-1S21.13,29.48,21.13,29.48Z"/><path class="cls-13" d="M21,29.59c0,.49-.64.89-1.43.89s-1.42-.4-1.42-.89.64-.9,1.42-.9S21,29.09,21,29.59Z"/><path class="cls-14" d="M29,19.36a3.45,3.45,0,1,1-3.45-3.45A3.45,3.45,0,0,1,29,19.36Z"/><path class="cls-15" d="M28.43,19.11a2.73,2.73,0,0,1-2.94,2.45,2.73,2.73,0,0,1-2.94-2.45,2.73,2.73,0,0,1,2.94-2.46A2.73,2.73,0,0,1,28.43,19.11Z"/><path class="cls-5" d="M27.81,18.72a2.32,2.32,0,0,1-2.51,2.07,2.32,2.32,0,0,1-2.5-2.07,2.31,2.31,0,0,1,2.5-2.06A2.31,2.31,0,0,1,27.81,18.72Z"/><path class="cls-16" d="M27.55,18.17c0,.71-.87,1.28-1.95,1.28s-2-.57-2-1.28.88-1.29,2-1.29S27.55,17.46,27.55,18.17Z"/><path class="cls-17" d="M26.89,17.58a2.17,2.17,0,0,0-1.29-.53,2.12,2.12,0,0,0-1.28.53s0-.83,1.28-.85S26.89,17.58,26.89,17.58Z"/><path class="cls-18" d="M27,17.72c0,.46-.6.84-1.33.84s-1.33-.38-1.33-.84.59-.83,1.33-.83S27,17.26,27,17.72Z"/><path class="cls-19" d="M48.62,21a4.07,4.07,0,1,1-4.07-4.07A4.07,4.07,0,0,1,48.62,21Z"/><path class="cls-20" d="M48.15,20.75c0,1.52-1.61,2.75-3.6,2.75S41,22.27,41,20.75,42.57,18,44.55,18,48.15,19.23,48.15,20.75Z"/><path class="cls-5" d="M47.39,20.27c0,1.26-1.37,2.28-3.06,2.28s-3.07-1-3.07-2.28S42.63,18,44.33,18,47.39,19,47.39,20.27Z"/><path class="cls-21" d="M47.08,19.35c0,.86-1.07,1.57-2.39,1.57s-2.39-.71-2.39-1.57,1.07-1.58,2.39-1.58S47.08,18.48,47.08,19.35Z"/><path class="cls-22" d="M46.21,18.65a2.17,2.17,0,0,0-3,0s0-1,1.52-1S46.21,18.65,46.21,18.65Z"/><path class="cls-23" d="M46.42,18.8c0,.57-.73,1-1.63,1s-1.62-.45-1.62-1,.72-1,1.62-1S46.42,18.24,46.42,18.8Z"/><path class="cls-24" d="M40.05,31.21a6,6,0,1,1-6-6A6,6,0,0,1,40.05,31.21Z"/><path class="cls-25" d="M39.36,30.6C39.36,33,37,35,34.09,35s-5.27-2-5.27-4.39,2.36-4.39,5.27-4.39S39.36,28.17,39.36,30.6Z"/><path class="cls-5" d="M38.05,30.12c0,1.85-2,3.34-4.49,3.34s-4.5-1.49-4.5-3.34,2-3.34,4.5-3.34S38.05,28.28,38.05,30.12Z"/><path class="cls-26" d="M37.59,28.77c0,1.27-1.57,2.3-3.5,2.3s-3.5-1-3.5-2.3,1.57-2.31,3.5-2.31S37.59,27.49,37.59,28.77Z"/><path class="cls-27" d="M36.47,27.62a3.75,3.75,0,0,0-2.23-.91,3.7,3.7,0,0,0-2.22.91s0-1.44,2.22-1.46S36.47,27.62,36.47,27.62Z"/><path class="cls-28" d="M36.63,27.65c0,.83-1.07,1.5-2.39,1.5s-2.39-.67-2.39-1.5,1.07-1.5,2.39-1.5S36.63,26.82,36.63,27.65Z"/><path class="cls-29" d="M48.38,41.84a4.73,4.73,0,1,1-4.73-4.73A4.73,4.73,0,0,1,48.38,41.84Z"/><path class="cls-30" d="M48,41.67c0,1.77-1.87,3.21-4.18,3.21s-4.18-1.44-4.18-3.21,1.87-3.2,4.18-3.2S48,39.91,48,41.67Z"/><path class="cls-5" d="M46.94,41c0,1.46-1.6,2.65-3.57,2.65S39.81,42.49,39.81,41s1.59-2.65,3.56-2.65S46.94,39.57,46.94,41Z"/><path class="cls-31" d="M46.42,39.85c0,1-1.24,1.82-2.77,1.82s-2.77-.81-2.77-1.82S42.12,38,43.65,38,46.42,38.84,46.42,39.85Z"/><path class="cls-32" d="M45.53,39.15a2.49,2.49,0,0,0-3.52,0s0-1.15,1.76-1.16S45.53,39.15,45.53,39.15Z"/><path class="cls-33" d="M45.66,39.21c0,.66-.85,1.19-1.89,1.19s-1.89-.53-1.89-1.19S42.72,38,43.77,38,45.66,38.56,45.66,39.21Z"/><path class="cls-34" d="M12.52,29.12A1.12,1.12,0,1,1,11.4,28,1.13,1.13,0,0,1,12.52,29.12Z"/><path class="cls-35" d="M12.21,29a.77.77,0,0,1-.84.64c-.47,0-.85-.29-.85-.64a.77.77,0,0,1,.85-.65A.77.77,0,0,1,12.21,29Z"/><path class="cls-5" d="M12.12,28.78c0,.32-.34.58-.77.58s-.78-.26-.78-.58.35-.57.78-.57S12.12,28.46,12.12,28.78Z"/><path class="cls-36" d="M11.79,28.57c0,.19-.23.34-.52.34s-.52-.15-.52-.34.23-.35.52-.35S11.79,28.38,11.79,28.57Z"/><path class="cls-37" d="M11.6,28.31a.48.48,0,0,0-.29-.12.49.49,0,0,0-.3.12s0-.19.3-.19S11.6,28.31,11.6,28.31Z"/><path class="cls-38" d="M11.72,28.38c0,.12-.16.23-.37.23S11,28.5,11,28.38s.17-.24.37-.24S11.72,28.25,11.72,28.38Z"/><path class="cls-39" d="M12.07,35A1.12,1.12,0,1,1,11,33.87,1.12,1.12,0,0,1,12.07,35Z"/><path class="cls-40" d="M11.76,34.84a.77.77,0,0,1-.84.65.67.67,0,1,1,0-1.3A.77.77,0,0,1,11.76,34.84Z"/><path class="cls-5" d="M11.67,34.65c0,.31-.34.57-.77.57s-.78-.26-.78-.57.35-.58.78-.58S11.67,34.33,11.67,34.65Z"/><path class="cls-41" d="M11.34,34.43c0,.19-.23.34-.52.34s-.53-.15-.53-.34.24-.35.53-.35S11.34,34.24,11.34,34.43Z"/><path class="cls-42" d="M11.15,34.18a.47.47,0,0,0-.29-.13.51.51,0,0,0-.3.13s0-.2.3-.2S11.15,34.18,11.15,34.18Z"/><path class="cls-43" d="M11.28,34.24c0,.13-.17.23-.38.23s-.37-.1-.37-.23.17-.23.37-.23S11.28,34.11,11.28,34.24Z"/><path class="cls-44" d="M16.88,25.24a1.12,1.12,0,1,1-1.12-1.12A1.12,1.12,0,0,1,16.88,25.24Z"/><path class="cls-45" d="M16.57,25.09a.77.77,0,0,1-.85.65.67.67,0,1,1,0-1.29C16.19,24.45,16.57,24.74,16.57,25.09Z"/><path class="cls-5" d="M16.48,24.9c0,.32-.35.58-.78.58s-.77-.26-.77-.58.35-.58.77-.58S16.48,24.58,16.48,24.9Z"/><path class="cls-46" d="M16.15,24.68c0,.19-.24.35-.52.35s-.53-.16-.53-.35.24-.34.53-.34S16.15,24.49,16.15,24.68Z"/><path class="cls-47" d="M16,24.43a.49.49,0,0,0-.3-.12.48.48,0,0,0-.29.12s0-.19.29-.2S16,24.43,16,24.43Z"/><path class="cls-48" d="M16.08,24.49c0,.13-.16.24-.37.24s-.37-.11-.37-.24.17-.23.37-.23S16.08,24.36,16.08,24.49Z"/><path class="cls-49" d="M20.36,14.67a1.13,1.13,0,1,1-1.12-1.12A1.12,1.12,0,0,1,20.36,14.67Z"/><path class="cls-50" d="M20,14.52a.87.87,0,0,1-1.68,0,.87.87,0,0,1,1.68,0Z"/><path class="cls-5" d="M20,14.33c0,.32-.35.58-.78.58s-.78-.26-.78-.58.35-.58.78-.58S20,14,20,14.33Z"/><path class="cls-51" d="M19.63,14.11c0,.19-.24.35-.53.35s-.52-.16-.52-.35.23-.34.52-.34S19.63,13.92,19.63,14.11Z"/><path class="cls-52" d="M19.43,13.86a.41.41,0,0,0-.58,0s0-.19.29-.2S19.43,13.86,19.43,13.86Z"/><path class="cls-53" d="M19.56,13.92c0,.13-.17.23-.37.23s-.37-.1-.37-.23.16-.23.37-.23S19.56,13.79,19.56,13.92Z"/><path class="cls-54" d="M21.36,11.18a1.12,1.12,0,1,1-1.12-1.12A1.13,1.13,0,0,1,21.36,11.18Z"/><path class="cls-55" d="M21.05,11c0,.35-.38.64-.85.64a.77.77,0,0,1-.84-.64.87.87,0,0,1,1.69,0Z"/><path class="cls-5" d="M21,10.84c0,.32-.35.58-.78.58s-.77-.26-.77-.58.34-.57.77-.57S21,10.53,21,10.84Z"/><path class="cls-56" d="M20.63,10.63c0,.19-.24.34-.53.34s-.52-.15-.52-.34.24-.35.52-.35S20.63,10.44,20.63,10.63Z"/><path class="cls-57" d="M20.44,10.37a.49.49,0,0,0-.3-.12.48.48,0,0,0-.29.12s0-.19.29-.19S20.44,10.37,20.44,10.37Z"/><path class="cls-58" d="M20.56,10.44c0,.13-.17.23-.37.23s-.37-.1-.37-.23.16-.24.37-.24S20.56,10.31,20.56,10.44Z"/><path class="cls-59" d="M25.81,11.6a1.12,1.12,0,1,1-1.12-1.12A1.12,1.12,0,0,1,25.81,11.6Z"/><path class="cls-60" d="M25.5,11.45a.87.87,0,0,1-1.69,0,.76.76,0,0,1,.84-.64C25.12,10.81,25.5,11.09,25.5,11.45Z"/><path class="cls-5" d="M25.41,11.26c0,.32-.35.57-.78.57s-.77-.25-.77-.57.34-.58.77-.58S25.41,10.94,25.41,11.26Z"/><path class="cls-61" d="M25.08,11c0,.19-.24.35-.53.35S24,11.23,24,11s.24-.34.52-.34S25.08,10.85,25.08,11Z"/><path class="cls-62" d="M24.89,10.79a.49.49,0,0,0-.3-.12.48.48,0,0,0-.29.12s0-.19.29-.2S24.89,10.79,24.89,10.79Z"/><path class="cls-63" d="M25,10.85c0,.13-.17.23-.37.23s-.37-.1-.37-.23.16-.23.37-.23S25,10.72,25,10.85Z"/><path class="cls-64" d="M28.74,12.41a1.12,1.12,0,1,1-1.12-1.12A1.13,1.13,0,0,1,28.74,12.41Z"/><path class="cls-65" d="M28.43,12.27c0,.35-.38.64-.85.64a.77.77,0,0,1-.84-.64.87.87,0,0,1,1.69,0Z"/><path class="cls-5" d="M28.34,12.07c0,.32-.35.58-.78.58s-.77-.26-.77-.58.34-.57.77-.57S28.34,11.75,28.34,12.07Z"/><path class="cls-66" d="M28,11.86c0,.19-.24.34-.52.34s-.53-.15-.53-.34.24-.35.53-.35S28,11.67,28,11.86Z"/><path class="cls-67" d="M27.82,11.6a.49.49,0,0,0-.3-.12.48.48,0,0,0-.29.12s0-.19.29-.19S27.82,11.6,27.82,11.6Z"/><path class="cls-68" d="M27.94,11.67c0,.12-.16.23-.37.23s-.37-.11-.37-.23.17-.24.37-.24S27.94,11.54,27.94,11.67Z"/><path class="cls-69" d="M44.67,12.79a1.12,1.12,0,1,1-1.12-1.12A1.13,1.13,0,0,1,44.67,12.79Z"/><path class="cls-70" d="M44.36,12.65a.77.77,0,0,1-.84.64c-.47,0-.85-.29-.85-.64a.87.87,0,0,1,1.69,0Z"/><path class="cls-5" d="M44.27,12.45c0,.32-.34.58-.77.58s-.78-.26-.78-.58.35-.57.78-.57S44.27,12.13,44.27,12.45Z"/><path class="cls-71" d="M43.94,12.24c0,.19-.23.34-.52.34s-.52-.15-.52-.34.23-.35.52-.35S43.94,12,43.94,12.24Z"/><path class="cls-72" d="M43.75,12a.48.48,0,0,0-.29-.12.53.53,0,0,0-.3.12s0-.19.3-.19S43.75,12,43.75,12Z"/><path class="cls-73" d="M43.88,12.05c0,.12-.17.23-.38.23s-.37-.11-.37-.23.17-.24.37-.24S43.88,11.92,43.88,12.05Z"/><path class="cls-74" d="M53.44,12.91a1.13,1.13,0,1,1-1.12-1.12A1.13,1.13,0,0,1,53.44,12.91Z"/><path class="cls-75" d="M53.12,12.77a.77.77,0,0,1-.84.64c-.47,0-.85-.29-.85-.64a.87.87,0,0,1,1.69,0Z"/><path class="cls-5" d="M53,12.57c0,.32-.35.58-.78.58s-.78-.26-.78-.58.35-.57.78-.57S53,12.25,53,12.57Z"/><path class="cls-76" d="M52.7,12.36c0,.19-.23.34-.52.34s-.52-.15-.52-.34.23-.35.52-.35S52.7,12.17,52.7,12.36Z"/><path class="cls-77" d="M52.51,12.1a.41.41,0,0,0-.58,0s0-.19.29-.19S52.51,12.1,52.51,12.1Z"/><path class="cls-78" d="M52.64,12.17c0,.12-.17.23-.37.23s-.38-.11-.38-.23.17-.24.38-.24S52.64,12,52.64,12.17Z"/><path class="cls-79" d="M54.42,44.8a1.12,1.12,0,1,1-1.12-1.12A1.12,1.12,0,0,1,54.42,44.8Z"/><path class="cls-80" d="M54.1,44.65a.87.87,0,1,1-.84-.64C53.73,44,54.1,44.29,54.1,44.65Z"/><path class="cls-5" d="M54,44.46c0,.32-.35.58-.78.58s-.78-.26-.78-.58.35-.58.78-.58S54,44.14,54,44.46Z"/><path class="cls-81" d="M53.69,44.24c0,.19-.24.35-.53.35s-.52-.16-.52-.35.23-.34.52-.34S53.69,44.05,53.69,44.24Z"/><path class="cls-82" d="M53.5,44a.53.53,0,0,0-.3-.12.48.48,0,0,0-.29.12s0-.19.29-.2S53.5,44,53.5,44Z"/><path class="cls-83" d="M53.62,44.05c0,.13-.17.23-.37.23s-.37-.1-.37-.23.16-.23.37-.23S53.62,43.92,53.62,44.05Z"/><path class="cls-84" d="M53.35,38.78a1.12,1.12,0,1,1-1.12-1.12A1.13,1.13,0,0,1,53.35,38.78Z"/><path class="cls-85" d="M53,38.64c0,.35-.38.64-.85.64a.67.67,0,1,1,.85-.64Z"/><path class="cls-5" d="M53,38.44c0,.32-.35.58-.78.58s-.77-.26-.77-.58.34-.57.77-.57S53,38.13,53,38.44Z"/><path class="cls-86" d="M52.62,38.23c0,.19-.24.34-.53.34s-.52-.15-.52-.34.24-.35.52-.35S52.62,38,52.62,38.23Z"/><path class="cls-87" d="M52.43,38a.49.49,0,0,0-.3-.12.48.48,0,0,0-.29.12s0-.19.29-.19S52.43,38,52.43,38Z"/><path class="cls-88" d="M52.55,38c0,.13-.17.23-.37.23s-.37-.1-.37-.23.16-.24.37-.24S52.55,37.91,52.55,38Z"/></g></svg>