<svg id="REMORD" xmlns="http://www.w3.org/2000/svg" xmlns:xlink="http://www.w3.org/1999/xlink" viewBox="0 0 64 64"><defs><style>.cls-1,.cls-10,.cls-11,.cls-2,.cls-3,.cls-4,.cls-5,.cls-7,.cls-8,.cls-9{stroke:#797979;stroke-width:0.5px;}.cls-1,.cls-10,.cls-11,.cls-14,.cls-15,.cls-2,.cls-3,.cls-4,.cls-5,.cls-6,.cls-7,.cls-8,.cls-9{stroke-linecap:round;}.cls-1,.cls-10,.cls-11,.cls-2,.cls-3,.cls-4,.cls-5,.cls-6,.cls-7,.cls-8,.cls-9{stroke-linejoin:round;}.cls-1{fill:url(#linear-gradient);}.cls-2{fill:url(#linear-gradient-2);}.cls-3{fill:url(#linear-gradient-3);}.cls-4{fill:url(#linear-gradient-4);}.cls-5{fill:url(#linear-gradient-5);}.cls-14,.cls-15,.cls-16,.cls-6{fill:none;}.cls-6{stroke:#323232;}.cls-7{fill:url(#linear-gradient-6);}.cls-8{fill:url(#linear-gradient-7);}.cls-9{fill:url(#linear-gradient-8);}.cls-10{fill:url(#linear-gradient-9);}.cls-11{fill:url(#linear-gradient-10);}.cls-12{fill:url(#linear-gradient-11);}.cls-13{fill:#003755;}.cls-14,.cls-15,.cls-16{stroke:#fff;stroke-miterlimit:10;}.cls-14{opacity:0.7;}.cls-15,.cls-16{opacity:0.5;}</style><linearGradient id="linear-gradient" x1="25.39" y1="25.61" x2="31.61" y2="36.39" gradientUnits="userSpaceOnUse"><stop offset="0" stop-color="#d7d7d7"/><stop offset="1" stop-color="#969696"/></linearGradient><linearGradient id="linear-gradient-2" x1="5.89" y1="15.85" x2="21.21" y2="42.4" gradientUnits="userSpaceOnUse"><stop offset="0" stop-color="#fff"/><stop offset="1" stop-color="#d2d2d2"/></linearGradient><linearGradient id="linear-gradient-3" x1="14.49" y1="10.89" x2="17.86" y2="16.72" gradientUnits="userSpaceOnUse"><stop offset="0" stop-color="#fff"/><stop offset="1" stop-color="#f0f0f0"/></linearGradient><linearGradient id="linear-gradient-4" x1="18.44" y1="15.57" x2="23.56" y2="24.43" xlink:href="#linear-gradient"/><linearGradient id="linear-gradient-5" x1="16.5" y1="25.5" x2="32.5" y2="25.5" xlink:href="#linear-gradient-3"/><linearGradient id="linear-gradient-6" x1="51.39" y1="37.61" x2="57.61" y2="48.39" xlink:href="#linear-gradient"/><linearGradient id="linear-gradient-7" x1="31.67" y1="27.98" x2="47" y2="54.52" xlink:href="#linear-gradient-2"/><linearGradient id="linear-gradient-8" x1="39.91" y1="23.22" x2="43.11" y2="28.77" xlink:href="#linear-gradient-3"/><linearGradient id="linear-gradient-9" x1="43.58" y1="28.3" x2="48.35" y2="36.55" xlink:href="#linear-gradient"/><linearGradient id="linear-gradient-10" x1="41.5" y1="37.5" x2="58.5" y2="37.5" xlink:href="#linear-gradient-3"/><linearGradient id="linear-gradient-11" x1="12.92" y1="30.53" x2="27.61" y2="55.97" gradientUnits="userSpaceOnUse"><stop offset="0" stop-color="#82bedc"/><stop offset="1" stop-color="#285a78"/></linearGradient></defs><title>QQQ__A33AAe__R21XArtboard 1</title><g id="_64_ok_copy_5" data-name="64  ok *** copy 5"><g id="P_AR_copy_3" data-name="P   AR copy 3"><polygon class="cls-1" points="32.5 30.5 24.5 40.5 24.5 30.5 32.5 21.5 32.5 30.5"/><polygon class="cls-2" points="16.5 17.5 16.5 28.5 24.5 30.5 24.5 40.5 6.5 34.5 6.5 15.5 16.5 17.5"/><polygon class="cls-3" points="17.5 10.5 25.5 11.5 16.5 17.5 6.5 15.5 17.5 10.5"/><polygon class="cls-4" points="16.5 28.5 25.5 20.5 25.5 11.5 16.5 17.5 16.5 28.5"/><polygon class="cls-5" points="32.5 21.5 24.5 30.5 16.5 28.5 25.5 20.5 32.5 21.5"/><polygon class="cls-6" points="32.5 21.5 25.5 20.5 25.5 11.5 17.5 10.5 6.5 15.5 6.5 34.5 24.5 40.5 32.5 30.5 32.5 21.5"/></g><g id="P_Avant_1_copy_4" data-name="P   Avant 1 copy 4"><polygon class="cls-7" points="58.5 42.5 50.5 52.5 50.5 42.5 58.5 33.5 58.5 42.5"/><polygon class="cls-8" points="41.5 29.5 41.5 40.5 50.5 42.5 50.5 52.5 32.5 47.5 32.5 27.5 41.5 29.5"/><polygon class="cls-9" points="43.56 22.49 50.52 24.49 41.5 29.5 32.5 27.5 43.56 22.49"/><polygon class="cls-10" points="41.5 40.5 50.5 32.5 50.52 24.49 41.5 29.5 41.5 40.5"/><polygon class="cls-11" points="58.5 33.5 50.5 42.5 41.5 40.5 50.5 32.5 58.5 33.5"/><polygon class="cls-6" points="58.5 33.5 50.5 32.5 50.52 24.49 43.56 22.49 32.5 27.5 32.5 47.5 50.5 52.5 58.5 42.5 58.5 33.5"/></g><g id="FL_" data-name="FL  ****"><polygon class="cls-12" points="28.5 54.5 28.5 51.5 9.5 51.49 9.5 32.5 15.5 32.5 15.5 45.53 28.5 45.5 28.5 42.5 30.16 42.5 38.88 48.6 30.15 54.5 28.5 54.5"/><path class="cls-13" d="M15,33V46l14,0V43h1l8,5.59L30,54H29V51H10V33h5m1-1H9V52H28v3h2.31l.25-.17,8-5.41,1.21-.82-1.2-.83-8-5.59L30.31,42H28v3L16,45V32Z"/><line id="pointe" class="cls-14" x1="37.66" y1="48.98" x2="28.66" y2="42.5"/><line id="pointe-2" data-name="pointe" class="cls-14" x1="37.66" y1="48.98" x2="28.66" y2="42.5"/><line id="L_50pc" data-name="L 50pc" class="cls-15" x1="15.3" y1="46.52" x2="28.68" y2="46.52"/><line id="L_50pc-2" data-name="L 50pc" class="cls-15" x1="15.3" y1="46.52" x2="28.68" y2="46.52"/><line id="Q_50pc" data-name="Q 50pc" class="cls-16" x1="9.3" y1="33.52" x2="15.68" y2="33.52"/><line id="Q_50pc-2" data-name="Q 50pc" class="cls-16" x1="9.3" y1="33.52" x2="15.68" y2="33.52"/><path class="cls-13" d="M15,33V46l14,0V43h1l8,5.59L30,54H29V51H10V33h5m1-1H9V52H28v3h2.31l.25-.17,8-5.41,1.21-.82-1.2-.83-8-5.59L30.31,42H28v3L16,45V32Z"/></g></g></svg>