<svg id="_19930_ENOBIED_AP_AppIcon_r21x" data-name="19930_ENOBIED_AP_AppIcon_r21x" xmlns="http://www.w3.org/2000/svg" xmlns:xlink="http://www.w3.org/1999/xlink" viewBox="0 0 64 64"><defs><style>.cls-1,.cls-2,.cls-75{fill:none;}.cls-1,.cls-2{stroke:#285978;}.cls-1,.cls-14,.cls-19,.cls-2,.cls-24,.cls-29,.cls-3,.cls-34,.cls-39,.cls-44,.cls-49,.cls-54,.cls-59,.cls-64,.cls-69,.cls-75,.cls-9{stroke-miterlimit:10;}.cls-2{stroke-width:2px;}.cls-14,.cls-19,.cls-24,.cls-29,.cls-3,.cls-34,.cls-39,.cls-44,.cls-49,.cls-54,.cls-59,.cls-64,.cls-69,.cls-9{stroke:#323232;}.cls-3{fill:url(#linear-gradient);}.cls-10,.cls-13,.cls-15,.cls-18,.cls-20,.cls-23,.cls-25,.cls-28,.cls-30,.cls-33,.cls-35,.cls-38,.cls-4,.cls-40,.cls-43,.cls-45,.cls-48,.cls-5,.cls-50,.cls-53,.cls-55,.cls-58,.cls-60,.cls-63,.cls-65,.cls-68,.cls-70,.cls-73,.cls-8{opacity:0.7;}.cls-4{fill:url(#linear-gradient-2);}.cls-5{fill:#abdbf5;}.cls-11,.cls-16,.cls-21,.cls-26,.cls-31,.cls-36,.cls-41,.cls-46,.cls-51,.cls-56,.cls-6,.cls-61,.cls-66,.cls-71{opacity:0.4;}.cls-6{fill:url(#top_white);}.cls-12,.cls-17,.cls-22,.cls-27,.cls-32,.cls-37,.cls-42,.cls-47,.cls-52,.cls-57,.cls-62,.cls-67,.cls-7,.cls-72{opacity:0.6;}.cls-7{fill:url(#top_white-2);}.cls-8{fill:url(#top_white-3);}.cls-9{fill:url(#linear-gradient-3);}.cls-10{fill:url(#linear-gradient-4);}.cls-11{fill:url(#top_white-4);}.cls-12{fill:url(#top_white-5);}.cls-13{fill:url(#top_white-6);}.cls-14{fill:url(#linear-gradient-5);}.cls-15{fill:url(#linear-gradient-6);}.cls-16{fill:url(#top_white-7);}.cls-17{fill:url(#top_white-8);}.cls-18{fill:url(#top_white-9);}.cls-19{fill:url(#linear-gradient-7);}.cls-20{fill:url(#linear-gradient-8);}.cls-21{fill:url(#top_white-10);}.cls-22{fill:url(#top_white-11);}.cls-23{fill:url(#top_white-12);}.cls-24{fill:url(#linear-gradient-9);}.cls-25{fill:url(#linear-gradient-10);}.cls-26{fill:url(#top_white-13);}.cls-27{fill:url(#top_white-14);}.cls-28{fill:url(#top_white-15);}.cls-29,.cls-34,.cls-39,.cls-44,.cls-49,.cls-54,.cls-59,.cls-64,.cls-69{stroke-width:0.5px;}.cls-29{fill:url(#linear-gradient-11);}.cls-30{fill:url(#linear-gradient-12);}.cls-31{fill:url(#top_white-16);}.cls-32{fill:url(#top_white-17);}.cls-33{fill:url(#top_white-18);}.cls-34{fill:url(#linear-gradient-13);}.cls-35{fill:url(#linear-gradient-14);}.cls-36{fill:url(#top_white-19);}.cls-37{fill:url(#top_white-20);}.cls-38{fill:url(#top_white-21);}.cls-39{fill:url(#linear-gradient-15);}.cls-40{fill:url(#linear-gradient-16);}.cls-41{fill:url(#top_white-22);}.cls-42{fill:url(#top_white-23);}.cls-43{fill:url(#top_white-24);}.cls-44{fill:url(#linear-gradient-17);}.cls-45{fill:url(#linear-gradient-18);}.cls-46{fill:url(#top_white-25);}.cls-47{fill:url(#top_white-26);}.cls-48{fill:url(#top_white-27);}.cls-49{fill:url(#linear-gradient-19);}.cls-50{fill:url(#linear-gradient-20);}.cls-51{fill:url(#top_white-28);}.cls-52{fill:url(#top_white-29);}.cls-53{fill:url(#top_white-30);}.cls-54{fill:url(#linear-gradient-21);}.cls-55{fill:url(#linear-gradient-22);}.cls-56{fill:url(#top_white-31);}.cls-57{fill:url(#top_white-32);}.cls-58{fill:url(#top_white-33);}.cls-59{fill:url(#linear-gradient-23);}.cls-60{fill:url(#linear-gradient-24);}.cls-61{fill:url(#top_white-34);}.cls-62{fill:url(#top_white-35);}.cls-63{fill:url(#top_white-36);}.cls-64{fill:url(#linear-gradient-25);}.cls-65{fill:url(#linear-gradient-26);}.cls-66{fill:url(#top_white-37);}.cls-67{fill:url(#top_white-38);}.cls-68{fill:url(#top_white-39);}.cls-69{fill:url(#linear-gradient-27);}.cls-70{fill:url(#linear-gradient-28);}.cls-71{fill:url(#top_white-40);}.cls-72{fill:url(#top_white-41);}.cls-73{fill:url(#top_white-42);}.cls-74,.cls-75{stroke:#545454;}.cls-74{stroke-linejoin:round;fill:url(#linear-gradient-29);}</style><linearGradient id="linear-gradient" x1="19.6" y1="53.55" x2="19.6" y2="41.82" gradientUnits="userSpaceOnUse"><stop offset="0" stop-color="#376e8c"/><stop offset="1" stop-color="#8bd6f4"/></linearGradient><linearGradient id="linear-gradient-2" x1="19.48" y1="43.12" x2="19.48" y2="51.06" gradientUnits="userSpaceOnUse"><stop offset="0" stop-color="#8bd6f4"/><stop offset="0.33" stop-color="#89d4f2"/><stop offset="0.51" stop-color="#83ccea"/><stop offset="0.65" stop-color="#78bedc"/><stop offset="0.77" stop-color="#68aac8"/><stop offset="0.88" stop-color="#5391af"/><stop offset="0.99" stop-color="#3b7391"/><stop offset="1" stop-color="#376e8c"/></linearGradient><linearGradient id="top_white" x1="16.24" y1="45.07" x2="23.12" y2="45.07" gradientUnits="userSpaceOnUse"><stop offset="0" stop-color="#fff"/><stop offset="1" stop-color="#f0f0f0"/></linearGradient><linearGradient id="top_white-2" x1="17.64" y1="43.52" x2="22.02" y2="43.52" xlink:href="#top_white"/><linearGradient id="top_white-3" x1="17.48" y1="44.28" x2="22.18" y2="44.28" xlink:href="#top_white"/><linearGradient id="linear-gradient-3" x1="17.66" y1="35.71" x2="17.66" y2="27.83" xlink:href="#linear-gradient"/><linearGradient id="linear-gradient-4" x1="17.24" y1="29" x2="17.24" y2="33.53" xlink:href="#linear-gradient-2"/><linearGradient id="top_white-4" x1="15.23" y1="30.08" x2="19.56" y2="30.08" xlink:href="#top_white"/><linearGradient id="top_white-5" x1="16.19" y1="29" x2="19.13" y2="29" xlink:href="#top_white"/><linearGradient id="top_white-6" x1="16.18" y1="29.6" x2="19.03" y2="29.6" xlink:href="#top_white"/><linearGradient id="linear-gradient-5" x1="23.5" y1="22.81" x2="23.5" y2="15.92" xlink:href="#linear-gradient"/><linearGradient id="linear-gradient-6" x1="23.49" y1="16.66" x2="23.49" y2="21.57" xlink:href="#linear-gradient-2"/><linearGradient id="top_white-7" x1="21.65" y1="18.18" x2="25.55" y2="18.18" xlink:href="#top_white"/><linearGradient id="top_white-8" x1="22.32" y1="17.16" x2="24.89" y2="17.16" xlink:href="#top_white"/><linearGradient id="top_white-9" x1="22.36" y1="17.73" x2="25.02" y2="17.73" xlink:href="#top_white"/><linearGradient id="linear-gradient-7" x1="32.09" y1="37.18" x2="32.09" y2="25.25" xlink:href="#linear-gradient"/><linearGradient id="linear-gradient-8" x1="32.09" y1="26.22" x2="32.09" y2="35" xlink:href="#linear-gradient-2"/><linearGradient id="top_white-10" x1="28.59" y1="28.77" x2="35.59" y2="28.77" xlink:href="#top_white"/><linearGradient id="top_white-11" x1="30.02" y1="26.9" x2="34.47" y2="26.9" xlink:href="#top_white"/><linearGradient id="top_white-12" x1="29.85" y1="27.66" x2="34.63" y2="27.66" xlink:href="#top_white"/><linearGradient id="linear-gradient-9" x1="41.65" y1="46.58" x2="41.65" y2="37.12" xlink:href="#linear-gradient"/><linearGradient id="linear-gradient-10" x1="41.77" y1="38.48" x2="41.77" y2="44.88" xlink:href="#linear-gradient-2"/><linearGradient id="top_white-13" x1="38.88" y1="39.85" x2="44.42" y2="39.85" xlink:href="#top_white"/><linearGradient id="top_white-14" x1="40.01" y1="38.58" x2="43.53" y2="38.58" xlink:href="#top_white"/><linearGradient id="top_white-15" x1="39.88" y1="39.22" x2="43.66" y2="39.22" xlink:href="#top_white"/><linearGradient id="linear-gradient-11" x1="9.4" y1="30.25" x2="9.4" y2="28.01" xlink:href="#linear-gradient"/><linearGradient id="linear-gradient-12" x1="9.37" y1="28.34" x2="9.37" y2="29.63" xlink:href="#linear-gradient-2"/><linearGradient id="top_white-16" x1="8.75" y1="28.57" x2="9.79" y2="28.57" xlink:href="#top_white"/><linearGradient id="top_white-17" x1="9.01" y1="28.22" x2="9.6" y2="28.22" xlink:href="#top_white"/><linearGradient id="top_white-18" x1="8.98" y1="28.38" x2="9.72" y2="28.38" xlink:href="#top_white"/><linearGradient id="linear-gradient-13" x1="8.95" y1="36.12" x2="8.95" y2="33.87" xlink:href="#linear-gradient"/><linearGradient id="linear-gradient-14" x1="8.92" y1="34.2" x2="8.92" y2="35.5" xlink:href="#linear-gradient-2"/><linearGradient id="top_white-19" x1="8.29" y1="34.44" x2="9.34" y2="34.44" xlink:href="#top_white"/><linearGradient id="top_white-20" x1="8.56" y1="34.09" x2="9.15" y2="34.09" xlink:href="#top_white"/><linearGradient id="top_white-21" x1="8.53" y1="34.25" x2="9.28" y2="34.25" xlink:href="#top_white"/><linearGradient id="linear-gradient-15" x1="13.76" y1="26.37" x2="13.76" y2="24.13" xlink:href="#linear-gradient"/><linearGradient id="linear-gradient-16" x1="13.72" y1="24.46" x2="13.72" y2="25.75" xlink:href="#linear-gradient-2"/><linearGradient id="top_white-22" x1="13.1" y1="24.69" x2="14.15" y2="24.69" xlink:href="#top_white"/><linearGradient id="top_white-23" x1="13.37" y1="24.34" x2="13.96" y2="24.34" xlink:href="#top_white"/><linearGradient id="top_white-24" x1="13.34" y1="24.5" x2="14.08" y2="24.5" xlink:href="#top_white"/><linearGradient id="linear-gradient-17" x1="17.24" y1="15.8" x2="17.24" y2="13.55" xlink:href="#linear-gradient"/><linearGradient id="linear-gradient-18" x1="17.2" y1="13.88" x2="17.2" y2="15.18" xlink:href="#linear-gradient-2"/><linearGradient id="top_white-25" x1="16.58" y1="14.12" x2="17.63" y2="14.12" xlink:href="#top_white"/><linearGradient id="top_white-26" x1="16.85" y1="13.77" x2="17.43" y2="13.77" xlink:href="#top_white"/><linearGradient id="top_white-27" x1="16.82" y1="13.93" x2="17.56" y2="13.93" xlink:href="#top_white"/><linearGradient id="linear-gradient-19" x1="18.24" y1="12.31" x2="18.24" y2="10.07" xlink:href="#linear-gradient"/><linearGradient id="linear-gradient-20" x1="18.2" y1="10.4" x2="18.2" y2="11.69" xlink:href="#linear-gradient-2"/><linearGradient id="top_white-28" x1="17.58" y1="10.63" x2="18.63" y2="10.63" xlink:href="#top_white"/><linearGradient id="top_white-29" x1="17.85" y1="10.28" x2="18.44" y2="10.28" xlink:href="#top_white"/><linearGradient id="top_white-30" x1="17.82" y1="10.44" x2="18.56" y2="10.44" xlink:href="#top_white"/><linearGradient id="linear-gradient-21" x1="22.69" y1="12.73" x2="22.69" y2="10.48" xlink:href="#linear-gradient"/><linearGradient id="linear-gradient-22" x1="22.65" y1="10.81" x2="22.65" y2="12.11" xlink:href="#linear-gradient-2"/><linearGradient id="top_white-31" x1="22.03" y1="11.05" x2="23.08" y2="11.05" xlink:href="#top_white"/><linearGradient id="top_white-32" x1="22.3" y1="10.7" x2="22.89" y2="10.7" xlink:href="#top_white"/><linearGradient id="top_white-33" x1="22.27" y1="10.86" x2="23.01" y2="10.86" xlink:href="#top_white"/><linearGradient id="linear-gradient-23" x1="25.62" y1="13.54" x2="25.62" y2="11.3" xlink:href="#linear-gradient"/><linearGradient id="linear-gradient-24" x1="25.58" y1="11.63" x2="25.58" y2="12.92" xlink:href="#linear-gradient-2"/><linearGradient id="top_white-34" x1="24.96" y1="11.86" x2="26.01" y2="11.86" xlink:href="#top_white"/><linearGradient id="top_white-35" x1="25.23" y1="11.51" x2="25.82" y2="11.51" xlink:href="#top_white"/><linearGradient id="top_white-36" x1="25.2" y1="11.67" x2="25.94" y2="11.67" xlink:href="#top_white"/><linearGradient id="linear-gradient-25" x1="51.3" y1="45.93" x2="51.3" y2="43.68" xlink:href="#linear-gradient"/><linearGradient id="linear-gradient-26" x1="51.26" y1="44.01" x2="51.26" y2="45.31" xlink:href="#linear-gradient-2"/><linearGradient id="top_white-37" x1="50.64" y1="44.25" x2="51.69" y2="44.25" xlink:href="#top_white"/><linearGradient id="top_white-38" x1="50.91" y1="43.9" x2="51.5" y2="43.9" xlink:href="#top_white"/><linearGradient id="top_white-39" x1="50.88" y1="44.06" x2="51.62" y2="44.06" xlink:href="#top_white"/><linearGradient id="linear-gradient-27" x1="50.23" y1="39.91" x2="50.23" y2="37.67" xlink:href="#linear-gradient"/><linearGradient id="linear-gradient-28" x1="50.19" y1="38" x2="50.19" y2="39.29" xlink:href="#linear-gradient-2"/><linearGradient id="top_white-40" x1="49.57" y1="38.23" x2="50.62" y2="38.23" xlink:href="#top_white"/><linearGradient id="top_white-41" x1="49.84" y1="37.88" x2="50.43" y2="37.88" xlink:href="#top_white"/><linearGradient id="top_white-42" x1="49.81" y1="38.04" x2="50.55" y2="38.04" xlink:href="#top_white"/><linearGradient id="linear-gradient-29" x1="35.13" y1="20.04" x2="56.63" y2="20.04" gradientUnits="userSpaceOnUse"><stop offset="0" stop-color="#fff"/><stop offset="1" stop-color="#b3b3b3"/></linearGradient></defs><title>19930_ENOBIED_AP_AppIcon_r21x</title><g id="BIOVIA___BioKnowledge_Editor" data-name="BIOVIA _ BioKnowledge Editor"><line class="cls-1" x1="17.18" y1="14.46" x2="21.94" y2="18.04"/><line class="cls-1" x1="18.11" y1="10.84" x2="21.94" y2="18.04"/><line class="cls-1" x1="22.65" y1="11.35" x2="23.35" y2="16.87"/><line class="cls-1" x1="25.27" y1="12.8" x2="23.2" y2="17.41"/><line class="cls-1" x1="17.36" y1="32.07" x2="8.81" y2="35"/><line class="cls-1" x1="42.39" y1="42.97" x2="51.98" y2="45"/><line class="cls-1" x1="42" y1="42.04" x2="51.06" y2="38.97"/><line class="cls-2" x1="42" y1="42.04" x2="31.25" y2="32.07"/><line class="cls-2" x1="31.47" y1="29.73" x2="17" y2="32.19"/><line class="cls-2" x1="19.75" y1="47.23" x2="30.46" y2="31.72"/><line class="cls-1" x1="16.6" y1="31.31" x2="8.68" y2="28.76"/><line class="cls-1" x1="16.6" y1="30.93" x2="13.23" y2="24.83"/><line class="cls-2" x1="31.14" y1="30.71" x2="22.74" y2="18.93"/><path class="cls-3" d="M25.47,47.68a5.87,5.87,0,1,1-5.87-5.86A5.87,5.87,0,0,1,25.47,47.68Z"/><path class="cls-4" d="M24.66,47.09c0,2.19-2.32,4-5.18,4s-5.19-1.78-5.19-4,2.32-4,5.19-4S24.66,44.9,24.66,47.09Z"/><path class="cls-5" d="M23.58,46.4c0,1.82-2,3.29-4.43,3.29s-4.42-1.47-4.42-3.29,2-3.28,4.42-3.28S23.58,44.59,23.58,46.4Z"/><path class="cls-6" d="M23.12,45.07c0,1.25-1.54,2.26-3.44,2.26s-3.44-1-3.44-2.26,1.54-2.27,3.44-2.27S23.12,43.81,23.12,45.07Z"/><path class="cls-7" d="M22,44.24a3.66,3.66,0,0,0-2.19-.9,3.66,3.66,0,0,0-2.19.9s.05-1.42,2.19-1.44S22,44.24,22,44.24Z"/><path class="cls-8" d="M22.18,44.28c0,.82-1.06,1.48-2.35,1.48s-2.35-.66-2.35-1.48,1.05-1.47,2.35-1.47S22.18,43.47,22.18,44.28Z"/><path class="cls-9" d="M21.6,31.77a3.95,3.95,0,1,1-3.94-3.94A3.94,3.94,0,0,1,21.6,31.77Z"/><path class="cls-10" d="M20.19,31.26c0,1.25-1.32,2.27-3,2.27s-3-1-3-2.27S15.6,29,17.24,29,20.19,30,20.19,31.26Z"/><path class="cls-5" d="M20,30.67c0,1.09-1.2,2-2.67,2s-2.67-.89-2.67-2,1.19-2,2.67-2S20,29.57,20,30.67Z"/><path class="cls-11" d="M19.56,30.08c0,.79-1,1.43-2.17,1.43s-2.16-.64-2.16-1.43,1-1.43,2.16-1.43S19.56,29.29,19.56,30.08Z"/><path class="cls-12" d="M19.13,29.48a2.48,2.48,0,0,0-1.48-.6,2.43,2.43,0,0,0-1.46.6s0-.95,1.46-1S19.13,29.48,19.13,29.48Z"/><path class="cls-13" d="M19,29.59c0,.5-.64.9-1.43.9s-1.42-.4-1.42-.9.64-.89,1.42-.89S19,29.1,19,29.59Z"/><path class="cls-14" d="M27,19.37a3.45,3.45,0,1,1-3.45-3.45A3.45,3.45,0,0,1,27,19.37Z"/><path class="cls-15" d="M26.43,19.12a2.73,2.73,0,0,1-2.94,2.45,2.73,2.73,0,0,1-2.94-2.45,2.73,2.73,0,0,1,2.94-2.46A2.73,2.73,0,0,1,26.43,19.12Z"/><path class="cls-5" d="M25.81,18.73a2.31,2.31,0,0,1-2.51,2.06,2.31,2.31,0,0,1-2.5-2.06,2.32,2.32,0,0,1,2.5-2.07A2.32,2.32,0,0,1,25.81,18.73Z"/><path class="cls-16" d="M25.55,18.17c0,.71-.87,1.29-1.95,1.29s-2-.58-2-1.29.88-1.28,2-1.28S25.55,17.46,25.55,18.17Z"/><path class="cls-17" d="M24.89,17.59a2.17,2.17,0,0,0-1.29-.53,2.12,2.12,0,0,0-1.28.53s0-.84,1.28-.85S24.89,17.59,24.89,17.59Z"/><path class="cls-18" d="M25,17.73c0,.46-.6.84-1.33.84s-1.33-.38-1.33-.84.59-.83,1.33-.83S25,17.27,25,17.73Z"/><path class="cls-19" d="M38.05,31.21a6,6,0,1,1-6-6A6,6,0,0,1,38.05,31.21Z"/><path class="cls-20" d="M37.36,30.61C37.36,33,35,35,32.09,35s-5.27-2-5.27-4.39,2.36-4.39,5.27-4.39S37.36,28.18,37.36,30.61Z"/><path class="cls-5" d="M36.05,30.13c0,1.85-2,3.34-4.49,3.34s-4.5-1.49-4.5-3.34,2-3.34,4.5-3.34S36.05,28.29,36.05,30.13Z"/><path class="cls-21" d="M35.59,28.77c0,1.28-1.57,2.31-3.5,2.31s-3.5-1-3.5-2.31,1.57-2.3,3.5-2.3S35.59,27.5,35.59,28.77Z"/><path class="cls-22" d="M34.47,27.63a3.73,3.73,0,0,0-2.23-.92,3.69,3.69,0,0,0-2.22.92s.05-1.44,2.22-1.47S34.47,27.63,34.47,27.63Z"/><path class="cls-23" d="M34.63,27.66c0,.83-1.07,1.5-2.39,1.5s-2.39-.67-2.39-1.5,1.07-1.5,2.39-1.5S34.63,26.83,34.63,27.66Z"/><path class="cls-24" d="M46.38,41.85a4.73,4.73,0,1,1-4.73-4.73A4.73,4.73,0,0,1,46.38,41.85Z"/><path class="cls-25" d="M46,41.68c0,1.77-1.87,3.2-4.18,3.2s-4.18-1.43-4.18-3.2,1.87-3.2,4.18-3.2S46,39.91,46,41.68Z"/><path class="cls-5" d="M44.94,41c0,1.46-1.6,2.64-3.57,2.64S37.81,42.5,37.81,41s1.59-2.65,3.56-2.65S44.94,39.57,44.94,41Z"/><path class="cls-26" d="M44.42,39.85c0,1-1.24,1.83-2.77,1.83s-2.77-.82-2.77-1.83S40.12,38,41.65,38,44.42,38.84,44.42,39.85Z"/><path class="cls-27" d="M43.53,39.16a2.49,2.49,0,0,0-3.52,0s0-1.15,1.76-1.16S43.53,39.16,43.53,39.16Z"/><path class="cls-28" d="M43.66,39.22c0,.66-.85,1.19-1.89,1.19s-1.89-.53-1.89-1.19S40.72,38,41.77,38,43.66,38.57,43.66,39.22Z"/><path class="cls-29" d="M10.52,29.13A1.12,1.12,0,1,1,9.4,28,1.12,1.12,0,0,1,10.52,29.13Z"/><path class="cls-30" d="M10.21,29a.77.77,0,0,1-.84.64c-.47,0-.85-.29-.85-.64a.77.77,0,0,1,.85-.65A.77.77,0,0,1,10.21,29Z"/><path class="cls-5" d="M10.12,28.79c0,.32-.34.58-.77.58s-.78-.26-.78-.58.35-.58.78-.58S10.12,28.47,10.12,28.79Z"/><path class="cls-31" d="M9.79,28.57c0,.19-.23.35-.52.35s-.52-.16-.52-.35.23-.34.52-.34S9.79,28.38,9.79,28.57Z"/><path class="cls-32" d="M9.6,28.32a.48.48,0,0,0-.29-.12.49.49,0,0,0-.3.12s0-.19.3-.19S9.6,28.32,9.6,28.32Z"/><path class="cls-33" d="M9.72,28.38c0,.13-.16.24-.37.24S9,28.51,9,28.38s.17-.23.37-.23S9.72,28.26,9.72,28.38Z"/><path class="cls-34" d="M10.07,35A1.12,1.12,0,1,1,9,33.87,1.12,1.12,0,0,1,10.07,35Z"/><path class="cls-35" d="M9.76,34.85a.77.77,0,0,1-.84.65.67.67,0,1,1,0-1.3A.77.77,0,0,1,9.76,34.85Z"/><path class="cls-5" d="M9.67,34.65c0,.32-.34.58-.77.58s-.78-.26-.78-.58.35-.57.78-.57S9.67,34.34,9.67,34.65Z"/><path class="cls-36" d="M9.34,34.44c0,.19-.23.34-.52.34s-.53-.15-.53-.34.24-.35.53-.35S9.34,34.25,9.34,34.44Z"/><path class="cls-37" d="M9.15,34.18a.48.48,0,0,0-.29-.12.53.53,0,0,0-.3.12s0-.19.3-.19S9.15,34.18,9.15,34.18Z"/><path class="cls-38" d="M9.28,34.25c0,.13-.17.23-.38.23s-.37-.1-.37-.23S8.7,34,8.9,34,9.28,34.12,9.28,34.25Z"/><path class="cls-39" d="M14.88,25.25a1.12,1.12,0,1,1-1.12-1.12A1.12,1.12,0,0,1,14.88,25.25Z"/><path class="cls-40" d="M14.57,25.1a.77.77,0,0,1-.85.65.67.67,0,1,1,0-1.29C14.19,24.46,14.57,24.74,14.57,25.1Z"/><path class="cls-5" d="M14.48,24.91c0,.32-.35.57-.78.57s-.77-.25-.77-.57.35-.58.77-.58S14.48,24.59,14.48,24.91Z"/><path class="cls-41" d="M14.15,24.69c0,.19-.24.35-.52.35s-.53-.16-.53-.35.24-.35.53-.35S14.15,24.5,14.15,24.69Z"/><path class="cls-42" d="M14,24.44a.49.49,0,0,0-.3-.12.48.48,0,0,0-.29.12s0-.19.29-.2S14,24.44,14,24.44Z"/><path class="cls-43" d="M14.08,24.5c0,.13-.16.23-.37.23s-.37-.1-.37-.23.17-.23.37-.23S14.08,24.37,14.08,24.5Z"/><path class="cls-44" d="M18.36,14.68a1.13,1.13,0,0,1-2.25,0,1.13,1.13,0,1,1,2.25,0Z"/><path class="cls-45" d="M18,14.53a.76.76,0,0,1-.84.65.76.76,0,0,1-.84-.65.76.76,0,0,1,.84-.65A.76.76,0,0,1,18,14.53Z"/><path class="cls-5" d="M18,14.34c0,.31-.35.57-.78.57s-.78-.26-.78-.57.35-.58.78-.58S18,14,18,14.34Z"/><path class="cls-46" d="M17.63,14.12c0,.19-.24.34-.53.34s-.52-.15-.52-.34.23-.35.52-.35S17.63,13.93,17.63,14.12Z"/><path class="cls-47" d="M17.43,13.87a.39.39,0,0,0-.58,0s0-.2.29-.2S17.43,13.87,17.43,13.87Z"/><path class="cls-48" d="M17.56,13.93c0,.13-.17.23-.37.23s-.37-.1-.37-.23.16-.23.37-.23S17.56,13.8,17.56,13.93Z"/><path class="cls-49" d="M19.36,11.19a1.12,1.12,0,1,1-1.12-1.12A1.12,1.12,0,0,1,19.36,11.19Z"/><path class="cls-50" d="M19.05,11.05c0,.35-.38.64-.85.64a.77.77,0,0,1-.84-.64.87.87,0,0,1,1.69,0Z"/><path class="cls-5" d="M19,10.85c0,.32-.35.58-.78.58s-.77-.26-.77-.58.34-.58.77-.58S19,10.53,19,10.85Z"/><path class="cls-51" d="M18.63,10.63c0,.2-.24.35-.53.35s-.52-.15-.52-.35.24-.34.52-.34S18.63,10.44,18.63,10.63Z"/><path class="cls-52" d="M18.44,10.38a.49.49,0,0,0-.3-.12.48.48,0,0,0-.29.12s0-.19.29-.19S18.44,10.38,18.44,10.38Z"/><path class="cls-53" d="M18.56,10.45c0,.12-.17.23-.37.23s-.37-.11-.37-.23.16-.24.37-.24S18.56,10.32,18.56,10.45Z"/><path class="cls-54" d="M23.81,11.61a1.12,1.12,0,1,1-1.12-1.13A1.12,1.12,0,0,1,23.81,11.61Z"/><path class="cls-55" d="M23.5,11.46a.87.87,0,0,1-1.69,0,.87.87,0,0,1,1.69,0Z"/><path class="cls-5" d="M23.41,11.27c0,.31-.35.57-.78.57s-.77-.26-.77-.57.34-.58.77-.58S23.41,11,23.41,11.27Z"/><path class="cls-56" d="M23.08,11.05c0,.19-.24.34-.53.34s-.52-.15-.52-.34.24-.35.52-.35S23.08,10.86,23.08,11.05Z"/><path class="cls-57" d="M22.89,10.79a.49.49,0,0,0-.3-.12.48.48,0,0,0-.29.12s0-.19.29-.19S22.89,10.79,22.89,10.79Z"/><path class="cls-58" d="M23,10.86c0,.13-.17.23-.37.23s-.37-.1-.37-.23.16-.23.37-.23S23,10.73,23,10.86Z"/><path class="cls-59" d="M26.74,12.42a1.12,1.12,0,1,1-1.12-1.12A1.12,1.12,0,0,1,26.74,12.42Z"/><path class="cls-60" d="M26.43,12.28c0,.35-.38.64-.85.64a.77.77,0,0,1-.84-.64.87.87,0,0,1,1.69,0Z"/><path class="cls-5" d="M26.34,12.08c0,.32-.35.58-.78.58s-.77-.26-.77-.58.34-.58.77-.58S26.34,11.76,26.34,12.08Z"/><path class="cls-61" d="M26,11.86c0,.19-.24.35-.52.35s-.53-.16-.53-.35.24-.34.53-.34S26,11.67,26,11.86Z"/><path class="cls-62" d="M25.82,11.61a.49.49,0,0,0-.3-.12.48.48,0,0,0-.29.12s0-.19.29-.19S25.82,11.61,25.82,11.61Z"/><path class="cls-63" d="M25.94,11.67c0,.13-.16.24-.37.24s-.37-.11-.37-.24.17-.23.37-.23S25.94,11.55,25.94,11.67Z"/><path class="cls-64" d="M52.42,44.81a1.12,1.12,0,1,1-1.12-1.13A1.12,1.12,0,0,1,52.42,44.81Z"/><path class="cls-65" d="M52.1,44.66a.87.87,0,1,1-.84-.65A.76.76,0,0,1,52.1,44.66Z"/><path class="cls-5" d="M52,44.47c0,.31-.35.57-.78.57s-.78-.26-.78-.57.35-.58.78-.58S52,44.15,52,44.47Z"/><path class="cls-66" d="M51.69,44.25c0,.19-.24.34-.53.34s-.52-.15-.52-.34.23-.35.52-.35S51.69,44.06,51.69,44.25Z"/><path class="cls-67" d="M51.5,44a.51.51,0,0,0-.3-.13.47.47,0,0,0-.29.13s0-.2.29-.2S51.5,44,51.5,44Z"/><path class="cls-68" d="M51.62,44.06c0,.13-.17.23-.37.23s-.37-.1-.37-.23.16-.23.37-.23S51.62,43.93,51.62,44.06Z"/><path class="cls-69" d="M51.35,38.79a1.12,1.12,0,1,1-1.12-1.12A1.12,1.12,0,0,1,51.35,38.79Z"/><path class="cls-70" d="M51,38.65c0,.35-.38.64-.85.64a.67.67,0,1,1,.85-.64Z"/><path class="cls-5" d="M51,38.45c0,.32-.35.58-.78.58s-.77-.26-.77-.58.34-.58.77-.58S51,38.13,51,38.45Z"/><path class="cls-71" d="M50.62,38.23c0,.19-.24.35-.53.35s-.52-.16-.52-.35.24-.34.52-.34S50.62,38,50.62,38.23Z"/><path class="cls-72" d="M50.43,38a.49.49,0,0,0-.3-.12.48.48,0,0,0-.29.12s0-.19.29-.19S50.43,38,50.43,38Z"/><path class="cls-73" d="M50.55,38c0,.13-.17.24-.37.24s-.37-.11-.37-.24.16-.23.37-.23S50.55,37.92,50.55,38Z"/><path class="cls-74" d="M40.5,14.5l-5.37,5.57L40.5,25.5l16.13.07L56.5,14.5Z"/><circle class="cls-75" cx="41.13" cy="20.07" r="1.5"/></g></svg>