<svg xmlns="http://www.w3.org/2000/svg" xmlns:xlink="http://www.w3.org/1999/xlink" width="64" height="64" viewBox="0 0 64 64">
  <defs>
    <linearGradient id="a" x1="30.621" y1="10.121" x2="49.245" y2="42.379" gradientUnits="userSpaceOnUse">
      <stop offset="0" stop-color="#fff"/>
      <stop offset="1" stop-color="#f1f0f0"/>
    </linearGradient>
    <linearGradient id="b" x1="43.225" y1="17.814" x2="55.416" y2="38.93" gradientUnits="userSpaceOnUse">
      <stop offset="0" stop-color="#fff"/>
      <stop offset="1" stop-color="#d2d2d2"/>
    </linearGradient>
    <linearGradient id="c" x1="27.88" y1="11.703" x2="46.986" y2="44.797" gradientUnits="userSpaceOnUse">
      <stop offset="0.177" stop-color="#83bedc"/>
      <stop offset="1" stop-color="#285a78"/>
    </linearGradient>
    <linearGradient id="d" x1="25.756" y1="20.738" x2="43.356" y2="51.222" gradientUnits="userSpaceOnUse">
      <stop offset="0" stop-color="#285a78"/>
      <stop offset="0.176" stop-color="#2d5f7d"/>
      <stop offset="0.39" stop-color="#3a6e8c"/>
      <stop offset="0.624" stop-color="#5187a5"/>
      <stop offset="0.871" stop-color="#70a9c7"/>
      <stop offset="1" stop-color="#83bedc"/>
    </linearGradient>
    <linearGradient id="e" x1="23.621" y1="14.121" x2="42.245" y2="46.379" xlink:href="#a"/>
    <linearGradient id="f" x1="36.225" y1="21.814" x2="48.416" y2="42.93" xlink:href="#b"/>
    <linearGradient id="g" x1="20.88" y1="15.703" x2="39.986" y2="48.797" xlink:href="#c"/>
    <linearGradient id="h" x1="18.756" y1="24.738" x2="36.356" y2="55.222" xlink:href="#d"/>
    <linearGradient id="i" x1="16.621" y1="18.121" x2="35.245" y2="50.379" xlink:href="#a"/>
    <linearGradient id="j" x1="29.225" y1="25.814" x2="41.416" y2="46.93" xlink:href="#b"/>
    <linearGradient id="k" x1="13.88" y1="19.703" x2="32.986" y2="52.797" xlink:href="#c"/>
    <linearGradient id="l" x1="11.756" y1="28.738" x2="29.356" y2="59.222" xlink:href="#d"/>
  </defs>
  <title>29134_ENOCOCL_Ap_AppIcon_r21x</title>
  <g>
    <polygon points="52.5 40.5 52.5 12.5 31.5 11.5 26.5 12.5 26.5 38.5 52.5 40.5" stroke="#053755" stroke-linejoin="round" fill="url(#a)"/>
    <g>
      <polygon points="45.5 16.5 51.5 13.5 51.5 39.688 47.5 43.5 47 43 45.5 16.5" stroke="#787979" stroke-miterlimit="10" fill="url(#b)"/>
      <polygon points="50 40.438 49 41.375 49 15.306 50 14.812 50 40.438" opacity="0.2"/>
      <polygon points="50 40.438 51 39.479 51 14.312 50 14.812 50 40.438" opacity="0.1"/>
    </g>
    <g>
      <polygon points="47.5 44.5 47.5 15.5 26.5 12.5 26.5 39.5 47.5 44.5" stroke="#053755" stroke-linejoin="round" fill="url(#c)"/>
      <polygon points="47 43.859 46 43.594 46 15.794 47 15.935 47 43.859" fill="#fff" opacity="0.15"/>
      <polygon points="32 40.281 33 40.531 33 13.935 32 13.8 32 40.281" fill="#fff" opacity="0.15"/>
    </g>
    <g>
      <polygon points="31.5 40.69 26.5 39.5 26.5 12.5 31.5 13.214 31.5 40.69" stroke="#053755" stroke-linejoin="round" fill="url(#d)"/>
      <polygon points="29 39.578 28 39.328 28 13.219 29 13.344 29 39.578" opacity="0.2"/>
      <polygon points="31 40.031 30 39.781 30 13.531 31 13.688 31 40.031" fill="#fff" opacity="0.15"/>
    </g>
  </g>
  <g>
    <polygon points="45.5 44.5 45.5 16.5 24.5 15.5 19.5 16.5 19.5 42.5 45.5 44.5" stroke="#053755" stroke-linejoin="round" fill="url(#e)"/>
    <g>
      <polygon points="38.5 20.5 44.5 17.5 44.5 43.688 40.5 47.5 40 47 38.5 20.5" stroke="#787979" stroke-miterlimit="10" fill="url(#f)"/>
      <polygon points="43 44.438 42 45.375 42 19.306 43 18.812 43 44.438" opacity="0.2"/>
      <polygon points="43 44.438 44 43.479 44 18.312 43 18.812 43 44.438" opacity="0.1"/>
    </g>
    <g>
      <polygon points="40.5 48.5 40.5 19.5 19.5 16.5 19.5 43.5 40.5 48.5" stroke="#053755" stroke-linejoin="round" fill="url(#g)"/>
      <polygon points="40 47.859 39 47.594 39 19.794 40 19.935 40 47.859" fill="#fff" opacity="0.15"/>
      <polygon points="25 44.281 26 44.531 26 17.935 25 17.8 25 44.281" fill="#fff" opacity="0.15"/>
    </g>
    <g>
      <polygon points="24.5 44.69 19.5 43.5 19.5 16.5 24.5 17.214 24.5 44.69" stroke="#053755" stroke-linejoin="round" fill="url(#h)"/>
      <polygon points="22 43.578 21 43.328 21 17.219 22 17.344 22 43.578" opacity="0.2"/>
      <polygon points="24 44.031 23 43.781 23 17.531 24 17.688 24 44.031" fill="#fff" opacity="0.15"/>
    </g>
  </g>
  <g>
    <polygon points="38.5 48.5 38.5 20.5 17.5 19.5 12.5 20.5 12.5 46.5 38.5 48.5" stroke="#053755" stroke-linejoin="round" fill="url(#i)"/>
    <g>
      <polygon points="31.5 24.5 37.5 21.5 37.5 47.688 33.5 51.5 33 51 31.5 24.5" stroke="#787979" stroke-miterlimit="10" fill="url(#j)"/>
      <polygon points="36 48.438 35 49.375 35 23.306 36 22.812 36 48.438" opacity="0.2"/>
      <polygon points="36 48.438 37 47.479 37 22.312 36 22.812 36 48.438" opacity="0.1"/>
    </g>
    <g>
      <polygon points="33.5 52.5 33.5 23.5 12.5 20.5 12.5 47.5 33.5 52.5" stroke="#053755" stroke-linejoin="round" fill="url(#k)"/>
      <polygon points="33 51.859 32 51.594 32 23.794 33 23.935 33 51.859" fill="#fff" opacity="0.15"/>
      <polygon points="18 48.281 19 48.531 19 21.935 18 21.8 18 48.281" fill="#fff" opacity="0.15"/>
    </g>
    <g>
      <polygon points="17.5 48.69 12.5 47.5 12.5 20.5 17.5 21.214 17.5 48.69" stroke="#053755" stroke-linejoin="round" fill="url(#l)"/>
      <polygon points="15 47.578 14 47.328 14 21.219 15 21.344 15 47.578" opacity="0.2"/>
      <polygon points="17 48.031 16 47.781 16 21.531 17 21.688 17 48.031" fill="#fff" opacity="0.15"/>
    </g>
  </g>
</svg>
