<svg id="Layer_4" data-name="Layer 4" xmlns="http://www.w3.org/2000/svg" xmlns:xlink="http://www.w3.org/1999/xlink" viewBox="0 0 64 64"><defs><radialGradient id="radial-gradient" cx="31.52" cy="31.5" fx="24.23220255233594" fy="19.832855907624506" r="21" gradientUnits="userSpaceOnUse"><stop offset="0" stop-color="#84bedc"/><stop offset="0.15" stop-color="#7db6d4"/><stop offset="0.38" stop-color="#6aa1bf"/><stop offset="0.66" stop-color="#4a7f9d"/><stop offset="0.9" stop-color="#2a5b79"/></radialGradient><linearGradient id="linear-gradient" x1="28.27" y1="33.11" x2="20.82" y2="20.21" gradientUnits="userSpaceOnUse"><stop offset="0" stop-color="#161616"/><stop offset="1" stop-color="#515151"/></linearGradient></defs><title>ENOVIAFormatConverter</title><circle cx="31.52" cy="31.5" r="21" fill="url(#radial-gradient)"/><path d="M47.26,31.6a34.31,34.31,0,0,0-10.14-7.93,2.73,2.73,0,0,0,.4-1.42,3.27,3.27,0,0,0,0-.44,39.94,39.94,0,0,1,11.86-1.38q-.31-.53-.66-1a41.14,41.14,0,0,0-11.54,1.46,2.75,2.75,0,0,0-2.37-1.37,2.63,2.63,0,0,0-.8.13,48,48,0,0,0-5.15-8.94l-1.11.17a47.48,47.48,0,0,1,5.37,9.23,2.84,2.84,0,0,0-.94,1.4,54.92,54.92,0,0,0-17-3.09c-.25.32-.49.65-.73,1a53.8,53.8,0,0,1,17.66,3.13c0,.08,0,.17,0,.25a26.09,26.09,0,0,0-6.23,4.12A24.51,24.51,0,0,0,19.49,36a2.74,2.74,0,0,0-2,1.27,44.09,44.09,0,0,1-6.73-8.48c-.07.55-.11,1.1-.14,1.66a44,44,0,0,0,5.92,7.3c-1.95-.13-3.68-.32-5.14-.5q.15.53.33,1c1.54.18,3.34.36,5.35.48a2.69,2.69,0,0,0,1,2,39.23,39.23,0,0,0-.85,6c.31.29.62.58.94.85a38.42,38.42,0,0,1,.81-6.29,2.59,2.59,0,0,0,.88.16,2.79,2.79,0,0,0,.87-.15A38.68,38.68,0,0,0,32.29,47.3a35.06,35.06,0,0,1-3.5,5c.4.05.8.09,1.21.12a34.13,34.13,0,0,0,3.27-4.82,41.13,41.13,0,0,0,9.62,1.54c.47-.3.91-.62,1.35-1a38.91,38.91,0,0,1-10.51-1.44,29.54,29.54,0,0,0,2.66-7.28,2.33,2.33,0,0,0,.38,0,2.75,2.75,0,0,0,2.75-2.75c0-.12,0-.24,0-.36a34.81,34.81,0,0,0,7.57-3.48,32.39,32.39,0,0,1,4,6.26c.16-.42.33-.85.47-1.28a33.42,33.42,0,0,0-3.62-5.53,27.23,27.23,0,0,0,4.4-3.66c-.05-.42-.1-.83-.18-1.24A26.85,26.85,0,0,1,47.26,31.6ZM32.74,46.46h-.05a37.55,37.55,0,0,1-11.12-5.63,2.75,2.75,0,0,0,.93-1.88,63.72,63.72,0,0,0,11.72-1.16,2.81,2.81,0,0,0,1.21,1.36A27.64,27.64,0,0,1,32.74,46.46ZM34,36.75s0,0,0,0A62.08,62.08,0,0,1,22.39,38a2.73,2.73,0,0,0-1.86-1.83,23.55,23.55,0,0,1,6-8.49,25.13,25.13,0,0,1,5.94-3.94A2.75,2.75,0,0,0,34.77,25h.06A30.79,30.79,0,0,1,36,34.11,2.75,2.75,0,0,0,34,36.75Zm5.16-1.3A2.7,2.7,0,0,0,37,34a31.85,31.85,0,0,0-1.22-9.24,2.62,2.62,0,0,0,.61-.35,33.26,33.26,0,0,1,10,7.69A33.64,33.64,0,0,1,39.18,35.45Z" fill="#fff" opacity="0.65"/><circle cx="31.52" cy="31.5" r="21" fill="none" stroke="#053755" stroke-linecap="round" stroke-linejoin="round"/><g opacity="0.45"><path d="M41.52,12.5h0m0,0s-18,6-25.5,21l1.5,1L9.4,44c-.4-1.78-1.88-8,.12-13.5l1.53.92S22,13.5,41.52,12.5m0-1h-.06c-17.58.91-28.24,14.93-30.72,18.57l-.7-.43a1.07,1.07,0,0,0-.52-.14,1,1,0,0,0-.33.06,1,1,0,0,0-.61.6c-2,5.65-.64,11.88-.18,13.93l0,.13a1,1,0,0,0,1,.78,1,1,0,0,0,.76-.35l8.12-9.5a1,1,0,0,0-.2-1.48l-.76-.51c7.34-13.66,23.84-19.48,24.5-19.7a1,1,0,0,0-.29-2Zm0,2h0Z" fill="#fff"/><path d="M54.64,21.5c.4,1.78,1.88,8-.12,13.5L53,34.08S42,52,22.52,53c0,0,18-6,25.5-21l-1.5-1,8.12-9.5m0-1a1,1,0,0,0-.76.35l-8.12,9.5a1,1,0,0,0-.23.79,1,1,0,0,0,.44.69l.75.51C39.27,46.21,22.38,52,22.21,52.05a1,1,0,0,0,.31,2h.05c17.6-.9,28.25-14.93,30.73-18.57l.71.43a1,1,0,0,0,.51.14,1,1,0,0,0,.34-.06,1,1,0,0,0,.6-.6c2.06-5.65.65-11.88.19-13.93l0-.13a1,1,0,0,0-1-.78Z" fill="#fff"/></g><path d="M17.52,34.5l-1.5-1c7.5-15,25.5-21,25.5-21C22,13.5,11.05,31.42,11.05,31.42L9.52,30.5C7.52,36,9,42.22,9.4,44Z" fill-rule="evenodd" fill="url(#linear-gradient)"/><path d="M46.52,31,48,32c-7.5,15-25.5,21-25.5,21C42,52,53,34.08,53,34.08l1.53.92c2-5.5.52-11.72.12-13.5Z" fill-rule="evenodd" fill="url(#linear-gradient)"/></svg>