<svg xmlns="http://www.w3.org/2000/svg" xmlns:xlink="http://www.w3.org/1999/xlink" viewBox="0 0 64 64"><defs><style>.cls-1,.cls-13{fill:#fff;}.cls-2{fill:none;}.cls-3{isolation:isolate;}.cls-4{fill:url(#linear-gradient);}.cls-5{fill:#323232;}.cls-6{fill:url(#linear-gradient-2);}.cls-7{fill:#adbdd3;}.cls-8{fill:url(#linear-gradient-3);}.cls-9{fill:#dc2e17;}.cls-10{clip-path:url(#clip-path);}.cls-11{opacity:0.6;mix-blend-mode:multiply;}.cls-12{fill:#153243;}.cls-12,.cls-13{fill-rule:evenodd;}.cls-14{fill:url(#linear-gradient-4);}.cls-15{mask:url(#mask);}.cls-16{opacity:0.2;}.cls-17{fill:#545454;}.cls-18{fill:#797979;}.cls-19{clip-path:url(#clip-path-2);}.cls-20{fill:#ed4f13;}.cls-21{fill:#46a4f1;}.cls-22{fill:#7fba00;}.cls-23{fill:#f4b800;}</style><linearGradient id="linear-gradient" x1="8.1" y1="14.69" x2="77.19" y2="61.83" gradientUnits="userSpaceOnUse"><stop offset="0" stop-color="#fff"/><stop offset="1" stop-color="#b3b3b3"/></linearGradient><linearGradient id="linear-gradient-2" x1="9.52" y1="20.01" x2="54.5" y2="20.01" gradientUnits="userSpaceOnUse"><stop offset="0" stop-color="#d8e5f3"/><stop offset="1" stop-color="#c3d9ff"/></linearGradient><linearGradient id="linear-gradient-3" x1="12.98" y1="21.03" x2="78.46" y2="65.7" gradientUnits="userSpaceOnUse"><stop offset="0" stop-color="#9eb7ca"/><stop offset="1" stop-color="#33546b"/></linearGradient><clipPath id="clip-path"><rect class="cls-2" x="11.02" y="24.02" width="42" height="21"/></clipPath><linearGradient id="linear-gradient-4" x1="9.5" y1="46.52" x2="54.48" y2="46.52" xlink:href="#linear-gradient-2"/><mask id="mask" x="5.09" y="16" width="53.85" height="36.25" maskUnits="userSpaceOnUse"><polygon class="cls-1" points="5.09 49.36 9.9 37.83 54.13 37.83 58.94 49.36 58.94 52.25 5.09 52.25 5.09 49.36"/></mask><clipPath id="clip-path-2"><circle class="cls-2" cx="13.02" cy="18.02" r="3"/></clipPath></defs><title>CollaborationForMicrosoft</title><g class="cls-3"><g id="Layer_1" data-name="Layer 1"><rect class="cls-4" x="7.5" y="12.5" width="49" height="37" rx="1.46"/><path class="cls-5" d="M55,13a1,1,0,0,1,1,1V48a1,1,0,0,1-1,1H9a1,1,0,0,1-1-1V14a1,1,0,0,1,1-1H55m0-1H9a2,2,0,0,0-2,2V48a2,2,0,0,0,2,2H55a2,2,0,0,0,2-2V14a2,2,0,0,0-2-2Z"/><rect class="cls-6" x="9.52" y="17.5" width="44.98" height="5.02"/><path class="cls-7" d="M54,18v4H10V18H54m1-1H9v6H55V17Z"/><rect class="cls-8" x="9.02" y="24.02" width="45.98" height="19.98"/><rect class="cls-9" x="53.02" y="13.02" width="3" height="2"/><rect class="cls-1" x="50.02" y="13.02" width="2" height="2"/><rect class="cls-1" x="47.02" y="13.02" width="2" height="2"/><g class="cls-10"><g class="cls-11"><path class="cls-12" d="M30.62,26.2c1.77,0,3.47.33,3.87.79.64.73-.45,2.53-3.8,5a4.68,4.68,0,0,0-1.23,1.12.19.19,0,0,0,.14.29A3,3,0,0,0,31,33c3-1.45,6.39-4.39,5.72-6.4-.41-1.24-2.62-1.61-4.49-1.52s-3.54.52-3.43.86S30.15,26.2,30.62,26.2Z"/><path class="cls-12" d="M32.52,35.11A8,8,0,0,0,28,34.22c-1.39.07-3.76.51-3.67,1s1.59.33,2.28.33c1.51,0,3.91.09,4.29,1.06.82,2.11-4.72,5.89-5.9,5.52-.53-.16,1.09-2.91,1.67-3.89.35-.59.89-1.52.43-1.58s-1.07.8-1.43,1.3a39.44,39.44,0,0,0-2.8,4.39c-.25.47-1.08,1.9-.79,2.08s1.53-.07,3.14-.71c5.06-2,7.34-4.62,8-6.78A1.62,1.62,0,0,0,32.52,35.11Z"/><path class="cls-12" d="M40.65,32.74c.51,0,1.54,0,1.34-.44s-.94-.47-1.88-.63c-1.65-.27-4.59-.37-5.6,1.17-.78,1.2.7,2.83,2,4.41,1.08,1.27,2.25,2.48,1.77,3.19s-2.89.57-3.75.62a18.89,18.89,0,0,0-2.81.2c-.24.13-.37.52.52.68a24.81,24.81,0,0,0,4.18.39c1.86,0,3.82-.31,4.24-1.75.34-1.16-.84-2.4-1.88-3.66s-2.29-2.36-2.19-3.33C36.69,32.83,38.18,32.79,40.65,32.74Z"/></g><path class="cls-13" d="M30.62,27.2c1.77,0,3.47.33,3.87.79.64.73-.45,2.53-3.8,5a4.68,4.68,0,0,0-1.23,1.12.19.19,0,0,0,.14.29A3,3,0,0,0,31,34c3-1.45,6.39-4.39,5.72-6.4-.41-1.24-2.62-1.61-4.49-1.52s-3.54.52-3.43.86S30.15,27.2,30.62,27.2Z"/><path class="cls-13" d="M32.52,36.11A8,8,0,0,0,28,35.22c-1.39.07-3.76.51-3.67,1s1.59.33,2.28.33c1.51,0,3.91.09,4.29,1.06.82,2.11-4.72,5.89-5.9,5.52-.53-.16,1.09-2.91,1.67-3.89.35-.59.89-1.52.43-1.58s-1.07.8-1.43,1.3a39.44,39.44,0,0,0-2.8,4.39c-.25.47-1.08,1.9-.79,2.08s1.53-.07,3.14-.71c5.06-2,7.34-4.62,8-6.78A1.62,1.62,0,0,0,32.52,36.11Z"/><path class="cls-13" d="M40.65,33.74c.51,0,1.54,0,1.34-.44s-.94-.47-1.88-.63c-1.65-.27-4.59-.37-5.6,1.17-.78,1.2.7,2.83,2,4.41,1.08,1.27,2.25,2.48,1.77,3.19s-2.89.57-3.75.62a18.89,18.89,0,0,0-2.81.2c-.24.13-.37.52.52.68a24.81,24.81,0,0,0,4.18.39c1.86,0,3.82-.31,4.24-1.75.34-1.16-.84-2.4-1.88-3.66s-2.29-2.36-2.19-3.33C36.69,33.83,38.18,33.79,40.65,33.74Z"/></g><rect class="cls-14" x="9.5" y="45.52" width="44.98" height="2"/><path class="cls-7" d="M54,46v1H10V46H54m1-1H9v3H55V45Z"/><rect class="cls-7" x="18.02" y="18" width="1" height="4.02"/><rect class="cls-7" x="27.02" y="18" width="1" height="4.02"/><rect class="cls-7" x="36.02" y="18" width="1" height="4.02"/><rect class="cls-7" x="45.02" y="18" width="1" height="4.02"/><g class="cls-15"><g class="cls-16"><path class="cls-17" d="M55.08,17A1.93,1.93,0,0,1,57,18.92V48.08A1.93,1.93,0,0,1,55.08,50H8.92A1.93,1.93,0,0,1,7,48.08V18.92A1.93,1.93,0,0,1,8.92,17H55.08m0-1H8.92A2.92,2.92,0,0,0,6,18.92V48.08A2.92,2.92,0,0,0,8.92,51H55.08A2.92,2.92,0,0,0,58,48.08V18.92A2.92,2.92,0,0,0,55.08,16Z"/></g></g><polygon class="cls-18" points="53.02 15.02 53.02 13.02 52.02 13.02 52.02 15.02 50.02 15.02 50.02 13.02 49.02 13.02 49.02 15.02 47.02 15.02 47.02 13.02 46.02 13.02 46.02 15.02 46.02 16.02 47.02 16.02 49.02 16.02 50.02 16.02 52.02 16.02 53.02 16.02 56.02 16.02 56.02 15.02 53.02 15.02"/><path class="cls-18" d="M54,23H9V45H55V23Zm0,21H10V24H54Z"/><g class="cls-19"><rect class="cls-20" x="10.16" y="15.16" width="2.86" height="2.86"/><rect class="cls-21" x="10.16" y="18.02" width="2.86" height="2.86"/><rect class="cls-22" x="13.02" y="15.16" width="2.86" height="2.86"/><rect class="cls-23" x="13.02" y="18.02" width="2.86" height="2.86"/></g><path class="cls-18" d="M13,15a3,3,0,1,1-3,3,3,3,0,0,1,3-3m0-1a4,4,0,1,0,4,4,4,4,0,0,0-4-4Z"/></g></g></svg>