<svg xmlns="http://www.w3.org/2000/svg" xmlns:xlink="http://www.w3.org/1999/xlink" viewBox="0 0 64 64"><defs><linearGradient id="linear-gradient" x1="27.33" y1="45.21" x2="18.42" y2="29.77" gradientUnits="userSpaceOnUse"><stop offset="0" stop-color="#2a5b79"/><stop offset="1" stop-color="#84bedc"/></linearGradient><linearGradient id="linear-gradient-2" x1="41.17" y1="48.51" x2="33.03" y2="34.4" xlink:href="#linear-gradient"/><linearGradient id="linear-gradient-3" x1="44.07" y1="36.94" x2="38.46" y2="27.22" xlink:href="#linear-gradient"/><linearGradient id="linear-gradient-6" x1="24.21" y1="26.47" x2="17.33" y2="14.55" gradientUnits="userSpaceOnUse"><stop offset="0" stop-color="#74c4e2"/><stop offset="1" stop-color="#a4def6"/></linearGradient><linearGradient id="linear-gradient-7" x1="34.98" y1="15.16" x2="32.11" y2="10.18" xlink:href="#linear-gradient-6"/><linearGradient id="linear-gradient-8" x1="48.25" y1="30.35" x2="40.09" y2="16.23" xlink:href="#linear-gradient-6"/><linearGradient id="linear-gradient-9" x1="48.18" y1="46.01" x2="42.7" y2="36.52" gradientUnits="userSpaceOnUse"><stop offset="0" stop-color="#386f8d"/><stop offset="1" stop-color="#8dd7f4"/></linearGradient><linearGradient id="linear-gradient-10" x1="33.67" y1="51.21" x2="24.66" y2="35.61" xlink:href="#linear-gradient-9"/><linearGradient id="linear-gradient-12" x1="41.66" y1="32.12" x2="34.06" y2="18.96" xlink:href="#linear-gradient"/><linearGradient id="linear-gradient-13" x1="21.81" y1="19.77" x2="37.09" y2="35.05" gradientUnits="userSpaceOnUse"><stop offset="0" stop-color="#fa3c05"/><stop offset="1" stop-color="#c81400"/></linearGradient></defs><title>Complaints&amp;amp;NCR</title><g id="Layer_5" data-name="Layer 5"><polygon points="18.5 46.5 13.5 41.5 13.5 30.25 28.19 26.45 31.49 43.19 18.5 46.5" stroke="#053755" stroke-linecap="round" stroke-linejoin="round" fill="url(#linear-gradient)"/><polygon points="40.5 49.25 29 40.13 29.45 34.31 33.24 32.12 38.98 33.46 40.99 35.49 40.5 49.25" stroke="#053755" stroke-linecap="round" stroke-linejoin="round" fill="url(#linear-gradient-2)"/><polygon points="40.41 36.73 31.49 29.75 42.04 28.23 50.5 33.47 40.41 36.73" stroke="#053755" stroke-linecap="round" stroke-linejoin="round" fill="url(#linear-gradient-3)"/><polygon points="20.5 36.17 30.84 32.93 37.5 37.7 35.2 44.25 21.51 42.58 20.5 36.17" stroke="#053755" stroke-linecap="round" stroke-linejoin="round" fill="url(#linear-gradient)"/><polygon points="39.67 12.93 39.67 19.67 27 19.67 27 12 31.58 15.03 39.67 12.93" stroke="#053755" stroke-linecap="round" stroke-linejoin="round" fill="url(#linear-gradient)"/><polygon points="13.57 26.5 13.55 14.54 24.08 12.45 28.64 15.67 18.5 18.35 18.5 30.61 13.57 26.5" fill="url(#linear-gradient-6)"/><polygon points="27.38 12 34.46 10.57 39.47 12.93 31.53 14.93 27.38 12" fill="url(#linear-gradient-7)"/><polygon points="34.55 16.83 43.01 14.49 50.29 17.9 50.59 30 40.6 33.09 40.57 20.96 34.55 16.83" fill="url(#linear-gradient-8)"/><polygon points="40.41 36.73 50.4 33.5 50.59 45.39 40.58 49.22 40.41 36.73" fill="url(#linear-gradient-9)"/><polygon points="20.5 36.17 26.43 41.19 37.5 37.7 37.5 50.28 26.5 54.24 20.37 48.32 20.5 36.17" fill="url(#linear-gradient-10)"/><polygon points="18.5 30.73 28.95 28.27 28.91 15.77 18.5 18.35 18.5 30.73" stroke="#053755" stroke-linecap="round" stroke-linejoin="round" fill="url(#linear-gradient)"/><polyline points="34.25 16.83 34.25 28.59 40.5 33.12 40.57 20.96 34.25 16.83" stroke="#053755" stroke-linecap="round" stroke-linejoin="round" fill="url(#linear-gradient-12)"/><line x1="31.53" y1="14.93" x2="31.53" y2="19.25" fill="none" stroke="#053755" stroke-linecap="round" stroke-linejoin="round"/><line x1="13.5" y1="26.5" x2="13.5" y2="14.5" fill="none" stroke="#053755" stroke-linecap="round" stroke-linejoin="round"/><line x1="40.5" y1="36.73" x2="50.5" y2="33.5" fill="none" stroke="#053755" stroke-linecap="round" stroke-linejoin="round"/><polyline points="20.5 36.17 26.5 41.24 37.5 37.7" fill="none" stroke="#053755" stroke-linecap="round" stroke-linejoin="round"/><line x1="13.5" y1="30.25" x2="18.5" y2="34.48" fill="none" stroke="#053755" stroke-linecap="round" stroke-linejoin="round"/><polyline points="18.5 46.5 18.5 34.5 29.78 30.97" fill="none" stroke="#053755" stroke-linecap="round" stroke-linejoin="round"/><line x1="20.5" y1="48.5" x2="20.5" y2="36.17" fill="none" stroke="#053755" stroke-linecap="round" stroke-linejoin="round"/><line x1="18.5" y1="30.73" x2="13.5" y2="26.5" fill="none" stroke="#053755" stroke-linecap="round" stroke-linejoin="round"/><line x1="37.5" y1="37.7" x2="37.5" y2="50.28" fill="none" stroke="#053755" stroke-linecap="round" stroke-linejoin="round"/><line x1="37.5" y1="22" x2="37.5" y2="33.96" fill="none" stroke="#831300" stroke-linecap="round" stroke-linejoin="round"/><polyline points="20.5 20.5 31.57 17.55 20.5 20.5 20.5 32.42 26.5 37.5 37.5 34.06 37.5 21.5 31.57 17.55" stroke="#831300" stroke-linecap="round" stroke-linejoin="round" fill="url(#linear-gradient-13)"/><line x1="24" y1="12.5" x2="28.91" y2="15.77" fill="none" stroke="#053755" stroke-linecap="round" stroke-linejoin="round"/><line x1="40.5" y1="36.73" x2="40.5" y2="49.25" fill="none" stroke="#053755" stroke-linecap="round" stroke-linejoin="round"/><polyline points="34.25 16.83 40.5 21 40.5 33.12" fill="none" stroke="#053755" stroke-linecap="round" stroke-linejoin="round"/><line x1="27" y1="12" x2="31.58" y2="15.05" fill="none" stroke="#053755" stroke-linecap="round" stroke-linejoin="round"/><line x1="26.5" y1="54.5" x2="20.5" y2="48.5" fill="none" stroke="#053755" stroke-linecap="round" stroke-linejoin="round"/><polyline points="37.5 50.38 26.5 54.5 26.5 41.24" fill="none" stroke="#053755" stroke-linecap="round" stroke-linejoin="round"/><polyline points="50.5 33.5 50.5 45.5 40.51 49.25" fill="none" stroke="#053755" stroke-linecap="round" stroke-linejoin="round"/><line x1="40.52" y1="33.12" x2="50.5" y2="30" fill="none" stroke="#053755" stroke-linecap="round" stroke-linejoin="round"/><line x1="26.5" y1="25" x2="20.93" y2="20.5" stroke="#831300" stroke-linecap="round" stroke-linejoin="round" fill="url(#linear-gradient-13)"/><polyline points="40.51 20.91 50.5 18 50.5 30" fill="none" stroke="#053755" stroke-linecap="round" stroke-linejoin="round"/><polyline points="26.5 37.37 26.5 25 37.51 21.79" fill="none" stroke="#831300" stroke-linecap="round" stroke-linejoin="round"/><line x1="39.67" y1="12.93" x2="31.58" y2="15.05" fill="none" stroke="#053755" stroke-linecap="round" stroke-linejoin="round"/><polyline points="18.5 30.73 18.5 18.5 28.91 15.77" fill="none" stroke="#053755" stroke-linecap="round" stroke-linejoin="round"/><line x1="34.25" y1="16.83" x2="43" y2="14.5" fill="none" stroke="#053755" stroke-linecap="round" stroke-linejoin="round"/><line x1="43.01" y1="14.49" x2="50.5" y2="18" fill="none" stroke="#053755" stroke-linecap="round" stroke-linejoin="round"/><polyline points="27 12 34.5 10.5 39.67 12.93" fill="none" stroke="#053755" stroke-linecap="round" stroke-linejoin="round"/><polyline points="24 12.5 13.5 14.5 18.45 18.5" fill="none" stroke="#053755" stroke-linecap="round" stroke-linejoin="round"/></g></svg>