<?xml version="1.0" encoding="utf-8"?>
<!-- Generator: Adobe Illustrator 24.0.0, SVG Export Plug-In . SVG Version: 6.00 Build 0)  -->
<svg version="1.1" id="Layer_1" xmlns="http://www.w3.org/2000/svg" xmlns:xlink="http://www.w3.org/1999/xlink" x="0px" y="0px"
	 viewBox="0 0 64 64" style="enable-background:new 0 0 64 64;" xml:space="preserve">
<style type="text/css">
	.st0{fill:url(#SVGID_1_);}
	.st1{fill:url(#SVGID_2_);}
	.st2{fill:url(#SVGID_3_);}
	.st3{fill:url(#SVGID_4_);}
	.st4{fill:url(#SVGID_5_);}
	.st5{fill:url(#SVGID_6_);}
	.st6{fill:url(#SVGID_7_);}
	.st7{fill:url(#SVGID_8_);}
	.st8{fill:#787878;}
	.st9{fill:#323232;}
	.st10{fill:url(#SVGID_9_);stroke:#053755;stroke-linejoin:round;stroke-miterlimit:10;}
	.st11{fill:url(#SVGID_10_);stroke:#053755;stroke-linejoin:round;stroke-miterlimit:10;}
	.st12{fill:url(#SVGID_11_);stroke:#053755;stroke-linejoin:round;stroke-miterlimit:10;}
	.st13{fill:#FFFFFF;stroke:url(#SVGID_12_);stroke-linejoin:round;stroke-miterlimit:10;}
	.st14{fill:url(#SVGID_13_);}
</style>
<g>
	<linearGradient id="SVGID_1_" gradientUnits="userSpaceOnUse" x1="14.2596" y1="7.2728" x2="44.5442" y2="59.7272">
		<stop  offset="0" style="stop-color:#FFFFFF"/>
		<stop  offset="1" style="stop-color:#D4D5D3"/>
	</linearGradient>
	<polygon class="st0" points="13,56 13,8 39,8 51,20 51,56 	"/>
</g>
<linearGradient id="SVGID_2_" gradientUnits="userSpaceOnUse" x1="30" y1="24" x2="48" y2="24">
	<stop  offset="0" style="stop-color:#464646"/>
	<stop  offset="0.9921" style="stop-color:#141414"/>
</linearGradient>
<rect x="30" y="22" class="st1" width="18" height="4"/>
<linearGradient id="SVGID_3_" gradientUnits="userSpaceOnUse" x1="30" y1="18" x2="48" y2="18">
	<stop  offset="0" style="stop-color:#464646"/>
	<stop  offset="0.9921" style="stop-color:#141414"/>
</linearGradient>
<rect x="30" y="16" class="st2" width="18" height="4"/>
<linearGradient id="SVGID_4_" gradientUnits="userSpaceOnUse" x1="30" y1="36" x2="48" y2="36">
	<stop  offset="0" style="stop-color:#464646"/>
	<stop  offset="0.9921" style="stop-color:#141414"/>
</linearGradient>
<rect x="30" y="34" class="st3" width="18" height="4"/>
<linearGradient id="SVGID_5_" gradientUnits="userSpaceOnUse" x1="30" y1="30" x2="48" y2="30">
	<stop  offset="0" style="stop-color:#464646"/>
	<stop  offset="0.9921" style="stop-color:#141414"/>
</linearGradient>
<rect x="30" y="28" class="st4" width="18" height="4"/>
<linearGradient id="SVGID_6_" gradientUnits="userSpaceOnUse" x1="30" y1="48" x2="48" y2="48">
	<stop  offset="0" style="stop-color:#464646"/>
	<stop  offset="0.9921" style="stop-color:#141414"/>
</linearGradient>
<rect x="30" y="46" class="st5" width="18" height="4"/>
<linearGradient id="SVGID_7_" gradientUnits="userSpaceOnUse" x1="30" y1="42" x2="48" y2="42">
	<stop  offset="0" style="stop-color:#464646"/>
	<stop  offset="0.9921" style="stop-color:#141414"/>
</linearGradient>
<rect x="30" y="40" class="st6" width="18" height="4"/>
<g>
	<linearGradient id="SVGID_8_" gradientUnits="userSpaceOnUse" x1="44.503" y1="14.497" x2="41.8455" y2="17.1545">
		<stop  offset="0" style="stop-color:#F5F5F5"/>
		<stop  offset="1" style="stop-color:#BEBEBE"/>
	</linearGradient>
	<path class="st7" d="M39,20.5c-0.28,0-0.5-0.22-0.5-0.5V7.5h0.29L51.5,20.21v0.29H39z"/>
	<path class="st8" d="M39,8.41L50.59,20H39V8.41 M39,7h-1v13c0,0.55,0.45,1,1,1h13v-1L39,7L39,7z"/>
</g>
<g>
	<path class="st9" d="M38.59,8L51,20.41V56H13V8H38.59 M39,7H13c-0.55,0-1,0.45-1,1v48c0,0.55,0.45,1,1,1h38c0.55,0,1-0.45,1-1V20
		L39,7L39,7z"/>
</g>
<linearGradient id="SVGID_9_" gradientUnits="userSpaceOnUse" x1="18.9264" y1="15.6764" x2="25.0736" y2="26.3236">
	<stop  offset="0" style="stop-color:#8DD7F4"/>
	<stop  offset="1" style="stop-color:#386E8C"/>
</linearGradient>
<rect x="17.5" y="16.5" class="st10" width="9" height="9"/>
<linearGradient id="SVGID_10_" gradientUnits="userSpaceOnUse" x1="18.9264" y1="27.6764" x2="25.0736" y2="38.3236">
	<stop  offset="0" style="stop-color:#8DD7F4"/>
	<stop  offset="1" style="stop-color:#386E8C"/>
</linearGradient>
<rect x="17.5" y="28.5" class="st11" width="9" height="9"/>
<linearGradient id="SVGID_11_" gradientUnits="userSpaceOnUse" x1="18.9264" y1="39.6764" x2="25.0736" y2="50.3236">
	<stop  offset="0" style="stop-color:#8DD7F4"/>
	<stop  offset="1" style="stop-color:#386E8C"/>
</linearGradient>
<rect x="17.5" y="40.5" class="st12" width="9" height="9"/>
<linearGradient id="SVGID_12_" gradientUnits="userSpaceOnUse" x1="34.0339" y1="52.8867" x2="44.5329" y2="34.702" gradientTransform="matrix(0.9455 -0.3256 0.3256 0.9455 -11.9012 15.881)">
	<stop  offset="0" style="stop-color:#399745"/>
	<stop  offset="1" style="stop-color:#56B447"/>
</linearGradient>
<circle class="st13" cx="39.5" cy="44.5" r="10"/>
<g>
	<linearGradient id="SVGID_13_" gradientUnits="userSpaceOnUse" x1="38.3949" y1="41.3261" x2="41.6583" y2="46.9785">
		<stop  offset="0" style="stop-color:#55B432"/>
		<stop  offset="1" style="stop-color:#379614"/>
	</linearGradient>
	<polygon class="st14" points="37.79,49.21 33.5,44.93 35.21,43.16 37.79,45.79 43.79,39.79 45.5,41.55 	"/>
</g>
</svg>
