<svg xmlns="http://www.w3.org/2000/svg" xmlns:xlink="http://www.w3.org/1999/xlink" viewBox="0 0 64 64"><defs><linearGradient id="linear-gradient" x1="24" y1="36.5" x2="36" y2="36.5" gradientUnits="userSpaceOnUse"><stop offset="0" stop-color="#231f20"/><stop offset="1" stop-color="#fff"/></linearGradient><linearGradient id="linear-gradient-2" x1="11.27" y1="26.07" x2="25.06" y2="49.96" gradientUnits="userSpaceOnUse"><stop offset="0" stop-color="#f5f6f6"/><stop offset="0.99" stop-color="#bfbebe"/></linearGradient><linearGradient id="linear-gradient-3" x1="24.71" y1="29.34" x2="34.41" y2="46.13" gradientUnits="userSpaceOnUse"><stop offset="0" stop-color="#fff"/><stop offset="1" stop-color="#d2d3d3"/></linearGradient><linearGradient id="linear-gradient-4" x1="22.17" y1="10.33" x2="25.95" y2="16.87" gradientUnits="userSpaceOnUse"><stop offset="0" stop-color="#fff"/><stop offset="1" stop-color="#f1f0f0"/></linearGradient><linearGradient id="linear-gradient-6" x1="13.76" y1="18.59" x2="19.03" y2="27.71" gradientUnits="userSpaceOnUse"><stop offset="0" stop-color="#ababab"/><stop offset="1" stop-color="#5b5b5b"/></linearGradient><linearGradient id="linear-gradient-7" x1="21.03" y1="37.98" x2="13.4" y2="24.77" gradientUnits="userSpaceOnUse"><stop offset="0" stop-color="#2a5b79"/><stop offset="1" stop-color="#3388b0"/></linearGradient><linearGradient id="linear-gradient-8" x1="15.22" y1="36.28" x2="17.91" y2="40.94" gradientUnits="userSpaceOnUse"><stop offset="0" stop-color="#f5f6f6"/><stop offset="0.99" stop-color="#d2d3d3"/></linearGradient><filter id="luminosity-invert" filterUnits="userSpaceOnUse" color-interpolation-filters="sRGB"><feColorMatrix values="-1 0 0 0 1 0 -1 0 0 1 0 0 -1 0 1 0 0 0 1 0"/></filter><mask id="mask" x="24" y="28" width="12" height="17" maskUnits="userSpaceOnUse"><path d="M36,39.33l-4-11a.51.51,0,0,0-.59-.32l-4,1a.51.51,0,0,0-.37.39l-3,15a.48.48,0,0,0,.18.49.51.51,0,0,0,.31.11.52.52,0,0,0,.21,0l3.5-1.6a.47.47,0,0,0,.28-.37l.45-2.62,3.2-1.2.37,1.58a.48.48,0,0,0,.27.33.47.47,0,0,0,.43,0L35.71,40A.51.51,0,0,0,36,39.33ZM29,37l.5-4.5L31,32l.5,4Z" fill="url(#linear-gradient)" filter="url(#luminosity-invert)"/></mask><linearGradient id="linear-gradient-10" x1="31.42" y1="42.43" x2="24.59" y2="30.6" xlink:href="#linear-gradient-7"/><linearGradient id="linear-gradient-15" x1="43.79" y1="30.49" x2="39.85" y2="27.68" gradientUnits="userSpaceOnUse"><stop offset="0.31" stop-color="#386f8d"/><stop offset="1" stop-color="#8dd7f4"/></linearGradient><linearGradient id="linear-gradient-16" x1="35.39" y1="34.45" x2="37.25" y2="37.68" xlink:href="#linear-gradient-2"/><linearGradient id="linear-gradient-17" x1="49.45" y1="15.83" x2="51.66" y2="19.65" xlink:href="#linear-gradient-6"/><linearGradient id="linear-gradient-19" x1="49.5" y1="52.93" x2="41.5" y2="39.07" xlink:href="#linear-gradient-7"/><linearGradient id="linear-gradient-20" x1="50.77" y1="49.81" x2="45.09" y2="39.97" xlink:href="#linear-gradient-7"/></defs><title>ENOCOEX_AP_AppIcon</title><g id="Layer_6" data-name="Layer 6"><polygon points="11.5 21.5 22.5 27.5 22.5 54.5 11.5 44.5 11.5 21.5" stroke="#797979" stroke-linecap="round" stroke-linejoin="round" fill="url(#linear-gradient-2)"/><polygon points="22.5 27.5 37.5 22.5 37.5 46.5 22.5 54.5 22.5 27.5" stroke="#797979" stroke-linecap="round" stroke-linejoin="round" fill="url(#linear-gradient-3)"/><polygon points="16.5 16.5 16.5 12.5 31.5 10.5 31.5 14.5 16.5 16.5" stroke="#797979" stroke-linecap="round" stroke-linejoin="round" fill="url(#linear-gradient-4)"/><polygon points="22.5 27.5 16.5 16.5 31.5 14.5 37.5 22.5 22.5 27.5" stroke="#797979" stroke-linecap="round" stroke-linejoin="round" fill="url(#linear-gradient-4)"/><polygon points="11.5 21.5 16.5 16.5 22.5 27.5 11.5 21.5" stroke="#787878" stroke-linecap="round" stroke-linejoin="round" fill="url(#linear-gradient-6)"/><polygon points="11.5 44.5 11.5 21.5 16.5 16.5 16.5 12.5 31.5 10.5 31.5 14.5 37.5 22.5 37.5 46.5 22.5 54.5 11.5 44.5" fill="none" stroke="#333332" stroke-linecap="round" stroke-linejoin="round"/><polygon points="13 25 13 33 21 38 21 29 13 25" fill="url(#linear-gradient-7)"/><line x1="13.5" y1="36.5" x2="19.5" y2="40.5" stroke="#333332" stroke-linecap="round" stroke-linejoin="round" fill="url(#linear-gradient-8)"/><line x1="13.5" y1="40.5" x2="19.5" y2="44.5" stroke="#333332" stroke-linecap="round" stroke-linejoin="round" fill="url(#linear-gradient-8)"/><g mask="url(#mask)"><path d="M36,39.33l-4-11a.51.51,0,0,0-.59-.32l-4,1a.51.51,0,0,0-.37.39l-3,15a.48.48,0,0,0,.18.49.51.51,0,0,0,.31.11.52.52,0,0,0,.21,0l3.5-1.6a.47.47,0,0,0,.28-.37l.45-2.62,3.2-1.2.37,1.58a.48.48,0,0,0,.27.33.47.47,0,0,0,.43,0L35.71,40A.51.51,0,0,0,36,39.33ZM29,37l.5-4.5L31,32l.5,4Z" fill="url(#linear-gradient-10)"/></g><line x1="31.5" y1="29.5" x2="33.5" y2="31.5" stroke="#333332" stroke-linecap="round" stroke-linejoin="round" fill="url(#linear-gradient-8)"/><line x1="31.5" y1="32.5" x2="33.5" y2="34.5" stroke="#333332" stroke-linecap="round" stroke-linejoin="round" fill="url(#linear-gradient-8)"/><line x1="31.5" y1="35.5" x2="33.5" y2="37.5" stroke="#333332" stroke-linecap="round" stroke-linejoin="round" fill="url(#linear-gradient-8)"/><line x1="31.5" y1="38.5" x2="33.5" y2="40.5" stroke="#333332" stroke-linecap="round" stroke-linejoin="round" fill="url(#linear-gradient-8)"/><polygon points="34.5 39.5 36 33.5 47.5 17.5 51.5 20.5 40 36.5 34.5 39.5" stroke="#053755" stroke-linecap="round" stroke-linejoin="round" fill="url(#linear-gradient-15)"/><path d="M34.5,39.5l1.5-6a3.59,3.59,0,0,1,2.5.5A3.23,3.23,0,0,1,40,36.5Z" stroke="#323232" stroke-linecap="round" stroke-linejoin="round" fill="url(#linear-gradient-16)"/><polygon points="34.5 39.5 35 37.5 36.5 38.5 34.5 39.5" fill="#161616"/><path d="M47.5,17.5S50,14,52,15.5s-.5,5-.5,5Z" stroke="#333332" stroke-linecap="round" stroke-linejoin="round" fill="url(#linear-gradient-17)"/><g opacity="0.45"><path d="M47,35.5a.5.5,0,0,1,0,1h-.5V36h-2v.5H44a.5.5,0,0,1,0-1h3m0-1H44a1.5,1.5,0,0,0,0,3h.5a1,1,0,0,0,.87-.5h.26a1,1,0,0,0,.87.5H47a1.5,1.5,0,0,0,0-3Z" fill="#fff"/><path d="M46.5,36v1.56a8.36,8.36,0,0,0-2,0V36h2m0-1h-2a1,1,0,0,0-1,1v1.56a1,1,0,0,0,1,1h.11c.32,0,.61,0,.89,0s.57,0,.89,0h.11a1,1,0,0,0,1-1V36a1,1,0,0,0-1-1Z" fill="#fff"/><path d="M51.79,38.5l.15.15-.15.14-.29-.29h.29m0-1H51.5a1,1,0,0,0-.92.62,1,1,0,0,0,.21,1.09l.3.29a1,1,0,0,0,.7.29,1,1,0,0,0,.71-.29l.15-.15a1,1,0,0,0,.29-.7,1,1,0,0,0-.29-.71l-.15-.15a1,1,0,0,0-.71-.29Z" fill="#fff"/><path d="M53.35,40.06l.15.15v.29l-.29-.29.14-.15m0-1a1,1,0,0,0-.7.29l-.15.15a1,1,0,0,0,0,1.41l.29.3a1,1,0,0,0,.71.29.84.84,0,0,0,.38-.08,1,1,0,0,0,.62-.92v-.29a1,1,0,0,0-.29-.71l-.15-.15a1,1,0,0,0-.71-.29Z" fill="#fff"/><path d="M52.21,37.5l2.29,2.29V41a.5.5,0,0,1-1,0v-.79l-.15-.15-.14.15-.68.68a9.53,9.53,0,0,0-1.42-1.42l.68-.68.15-.14-.15-.15H51a.5.5,0,0,1,0-1h1.21m0-1H51a1.5,1.5,0,0,0-.86,2.73,1.53,1.53,0,0,0,0,.3,1,1,0,0,0,.38.73,8.21,8.21,0,0,1,1.25,1.25,1,1,0,0,0,.73.38h.06a1,1,0,0,0,.24,0A1.5,1.5,0,0,0,55.5,41V39.79a1,1,0,0,0-.29-.7l-2.3-2.3a1,1,0,0,0-.7-.29Z" fill="#fff"/><path d="M45.5,37.5a8.26,8.26,0,0,1,1,.06,9,9,0,0,1,4.61,1.91,9.53,9.53,0,0,1,1.42,1.42,9,9,0,1,1-8-3.33,8.26,8.26,0,0,1,1-.06m0,17a8,8,0,1,0-8-8,8,8,0,0,0,8,8m0-18a8.7,8.7,0,0,0-1.11.07,10,10,0,1,0,8.92,3.69,11.65,11.65,0,0,0-1.57-1.57,9.94,9.94,0,0,0-5.13-2.12,8.7,8.7,0,0,0-1.11-.07Zm0,17a7,7,0,1,1,7-7,7,7,0,0,1-7,7Z" fill="#fff"/><path d="M45.5,39.5a7,7,0,1,1-7,7,7,7,0,0,1,7-7m2.5,11a.47.47,0,0,0,.35-.15.48.48,0,0,0,0-.7l-.7-.71L45.5,46.79V41a.49.49,0,0,0-.4-.48l-.1,0a.5.5,0,0,0-.5.5v6a.47.47,0,0,0,.15.35l3,3a.47.47,0,0,0,.35.15m-2.5-12a8,8,0,1,0,8,8,8,8,0,0,0-8-8Z" fill="#fff"/><path d="M45.5,38.5a8,8,0,1,1-8,8,8,8,0,0,1,8-8m0,15a7,7,0,1,0-7-7,7,7,0,0,0,7,7m0-16a9,9,0,1,0,9,9,9,9,0,0,0-9-9Zm0,15a6,6,0,1,1,6-6,6,6,0,0,1-6,6Z" fill="#fff"/><path d="M45.5,38.5a8,8,0,1,1-8,8,8,8,0,0,1,8-8m0,15a7,7,0,1,0-7-7,7,7,0,0,0,7,7m0-16a9,9,0,1,0,9,9,9,9,0,0,0-9-9Zm0,15a6,6,0,1,1,6-6,6,6,0,0,1-6,6Z" fill="#fff"/><path d="M45,40.5l.1,0a.49.49,0,0,1,.4.48v5.79l2.15,2.15.7.71a.48.48,0,0,1,0,.7.48.48,0,0,1-.7,0l-3-3A.47.47,0,0,1,44.5,47V41a.5.5,0,0,1,.5-.5m0-1A1.5,1.5,0,0,0,43.5,41v6a1.5,1.5,0,0,0,.44,1.06l3,3a1.5,1.5,0,0,0,2.12-2.12l-.71-.71L46.5,46.38V41a1.49,1.49,0,0,0-1.19-1.46,1.12,1.12,0,0,0-.31,0Z" fill="#fff"/></g><line x1="44" y1="35.5" x2="47" y2="35.5" fill="none" stroke="#053755" stroke-linecap="round" stroke-linejoin="round"/><rect x="44.5" y="35.5" width="2" height="2" fill="#053755"/><polyline points="51 37.5 52 37.5 54 39.5 54 40.5" fill="none" stroke="#053755" stroke-linecap="round" stroke-miterlimit="10"/><line x1="50" y1="41.5" x2="53" y2="38.5" fill="none" stroke="#053755" stroke-miterlimit="10" stroke-width="2"/><circle cx="45.5" cy="46" r="8.5" stroke="#333332" stroke-linecap="round" stroke-linejoin="round" fill="url(#linear-gradient-8)"/><circle cx="45.5" cy="46" r="7.5" fill="none" stroke-linecap="round" stroke-linejoin="round" stroke="url(#linear-gradient-19)"/><path d="M45.5,40a4.19,4.19,0,0,0-.5,0V46.5l4.21,4.21A6,6,0,0,0,45.5,40Z" fill="url(#linear-gradient-20)"/><polyline points="45 40.5 45 46.5 48 49.5" fill="none" stroke="#333332" stroke-linecap="round" stroke-linejoin="round"/></g></svg>