<svg id="Layer_10_copy" data-name="Layer 10 copy" xmlns="http://www.w3.org/2000/svg" xmlns:xlink="http://www.w3.org/1999/xlink" viewBox="0 0 64 64"><defs><linearGradient id="linear-gradient" x1="19.12" y1="11.89" x2="39.84" y2="47.78" gradientUnits="userSpaceOnUse"><stop offset="0" stop-color="#f5f6f6"/><stop offset="0.99" stop-color="#d2d3d3"/></linearGradient><linearGradient id="linear-gradient-2" x1="38.17" y1="48.39" x2="19.72" y2="16.43" gradientUnits="userSpaceOnUse"><stop offset="0" stop-color="#386f8d"/><stop offset="1" stop-color="#8dd7f4"/></linearGradient><linearGradient id="linear-gradient-4" x1="21.88" y1="44.28" x2="8.74" y2="21.52" gradientUnits="userSpaceOnUse"><stop offset="0" stop-color="#161616"/><stop offset="1" stop-color="#515151"/></linearGradient><linearGradient id="linear-gradient-5" x1="41.52" y1="30.59" x2="45.28" y2="37.11" gradientUnits="userSpaceOnUse"><stop offset="0" stop-color="#fff"/><stop offset="1" stop-color="#f1f0f0"/></linearGradient><linearGradient id="linear-gradient-6" x1="36.23" y1="34.57" x2="42.54" y2="45.5" gradientUnits="userSpaceOnUse"><stop offset="0" stop-color="#f5f6f6"/><stop offset="0.99" stop-color="#bfbebe"/></linearGradient><linearGradient id="linear-gradient-7" x1="43.5" y1="36.45" x2="48.03" y2="44.31" gradientUnits="userSpaceOnUse"><stop offset="0" stop-color="#fff"/><stop offset="1" stop-color="#d2d3d3"/></linearGradient><linearGradient id="linear-gradient-20" x1="55.39" y1="48.23" x2="52.98" y2="44.07" gradientUnits="userSpaceOnUse"><stop offset="0" stop-color="#74c4e2"/><stop offset="1" stop-color="#a4def6"/></linearGradient><linearGradient id="linear-gradient-21" x1="51.89" y1="53.24" x2="49.31" y2="48.76" gradientUnits="userSpaceOnUse"><stop offset="0" stop-color="#2a5b79"/><stop offset="1" stop-color="#84bedc"/></linearGradient><linearGradient id="linear-gradient-22" x1="55.77" y1="52.04" x2="53.1" y2="47.4" xlink:href="#linear-gradient-2"/></defs><title>XCEConfiguredBOM</title><rect x="9.5" y="11.5" width="39" height="35" stroke="#333332" stroke-linecap="round" stroke-linejoin="round" fill="url(#linear-gradient)"/><rect x="9.5" y="27.5" width="39" height="10" stroke="#053755" stroke-linecap="round" stroke-linejoin="round" fill="url(#linear-gradient-2)"/><rect x="22" y="18" width="1" height="28" fill="#9e9e9e"/><rect x="35" y="18" width="1" height="28" fill="#9e9e9e"/><rect x="35" y="27" width="1" height="11" fill="#053755"/><rect x="22" y="27" width="1" height="11" fill="#053755"/><rect x="9.5" y="11.5" width="39" height="7" stroke="#053755" stroke-linecap="round" stroke-linejoin="round" fill="url(#linear-gradient-2)"/><path d="M16.5,35h4a.5.5,0,0,0,.5-.5v-4a.5.5,0,0,0-.5-.5h-4a.5.5,0,0,0-.5.5V32H14V25h1.5a.5.5,0,0,0,.5-.5v-4a.5.5,0,0,0-.5-.5h-4a.5.5,0,0,0-.5.5v4a.5.5,0,0,0,.5.5H13V42.5a.5.5,0,0,0,.5.5H16v1.5a.5.5,0,0,0,.5.5h4a.5.5,0,0,0,.5-.5v-4a.5.5,0,0,0-.5-.5h-4a.5.5,0,0,0-.5.5V42H14V33h2v1.5A.5.5,0,0,0,16.5,35Z" fill-rule="evenodd" fill="url(#linear-gradient-4)"/><polygon points="36.66 32.29 45.03 30.5 50.41 33.79 50.41 34.98 41.44 37.97 36.66 34.38 36.66 32.29" stroke="#797979" stroke-linecap="round" stroke-linejoin="round" fill="url(#linear-gradient-5)"/><polygon points="36.66 32.29 36.66 42.75 41.44 47.53 41.44 36.18 36.66 32.29" stroke="#797979" stroke-linecap="round" stroke-linejoin="round" fill="url(#linear-gradient-6)"/><polygon points="50.41 33.79 41.44 36.18 41.44 47.53 50.41 43.95 50.41 33.79" stroke="#797979" stroke-linecap="round" stroke-linejoin="round" fill="url(#linear-gradient-7)"/><polygon points="43.24 39.17 50.41 37.37 53.99 40.06 53.99 41.56 46.82 43.65 43.24 40.96 43.24 39.17" stroke="#797979" stroke-linecap="round" stroke-linejoin="round" fill="url(#linear-gradient-5)"/><polygon points="43.24 39.17 43.24 47.53 46.82 51.12 46.82 42.16 43.24 39.17" stroke="#797979" stroke-linecap="round" stroke-linejoin="round" fill="url(#linear-gradient-6)"/><polygon points="53.99 40.06 46.82 42.16 46.82 51.12 53.99 48.43 53.99 40.06" stroke="#797979" stroke-linecap="round" stroke-linejoin="round" fill="url(#linear-gradient-7)"/><polygon points="26.5 35.28 34.87 33.49 40.25 36.78 40.25 37.97 31.28 40.96 26.5 37.37 26.5 35.28" stroke="#797979" stroke-linecap="round" stroke-linejoin="round" fill="url(#linear-gradient-5)"/><polygon points="26.5 35.28 26.5 45.74 31.28 50.52 31.28 39.17 26.5 35.28" stroke="#797979" stroke-linecap="round" stroke-linejoin="round" fill="url(#linear-gradient-6)"/><polygon points="40.25 36.78 31.28 39.17 31.28 50.52 40.25 46.94 40.25 36.78" stroke="#797979" stroke-linecap="round" stroke-linejoin="round" fill="url(#linear-gradient-7)"/><polygon points="33.08 42.16 40.25 40.36 43.83 43.05 43.83 44.55 36.66 46.64 33.08 43.95 33.08 42.16" stroke="#797979" stroke-linecap="round" stroke-linejoin="round" fill="url(#linear-gradient-5)"/><polygon points="33.08 42.16 33.08 50.52 36.66 54.11 36.66 45.14 33.08 42.16" stroke="#797979" stroke-linecap="round" stroke-linejoin="round" fill="url(#linear-gradient-6)"/><polygon points="43.83 43.05 36.66 45.14 36.66 54.11 43.83 51.42 43.83 43.05" stroke="#797979" stroke-linecap="round" stroke-linejoin="round" fill="url(#linear-gradient-7)"/><polygon points="39.05 47.83 43.83 46.34 46.82 48.43 46.82 49.92 41.44 51.72 39.05 49.33 39.05 47.83" stroke="#797979" stroke-linecap="round" stroke-linejoin="round" fill="url(#linear-gradient-5)"/><polygon points="39.05 47.83 39.05 54.11 41.44 56.5 41.44 49.92 39.05 47.83" stroke="#797979" stroke-linecap="round" stroke-linejoin="round" fill="url(#linear-gradient-6)"/><polygon points="46.82 48.43 41.44 49.92 41.44 56.5 46.82 54.71 46.82 48.43" stroke="#797979" stroke-linecap="round" stroke-linejoin="round" fill="url(#linear-gradient-7)"/><polygon points="50.41 37.37 50.41 34.98 50.41 33.79 45.03 30.5 36.66 32.29 36.66 34.38 36.66 34.58 34.87 33.49 26.5 35.28 26.5 37.37 26.5 45.74 31.28 50.52 33.08 49.81 33.08 50.52 36.66 54.11 39.05 53.21 39.05 54.11 41.44 56.5 46.82 54.71 46.82 51.12 53.99 48.43 53.99 41.56 53.99 40.06 50.41 37.37" fill="none" stroke="#333332" stroke-linecap="round" stroke-linejoin="round"/><polygon points="51.6 44.1 53.99 43.35 56.98 45.44 56.98 46.94 53.99 49.33 51.6 47.24 51.6 44.1" stroke="#053755" stroke-linecap="round" stroke-linejoin="round" fill="url(#linear-gradient-20)"/><polygon points="49.21 48.13 49.21 51.12 51.6 53.51 51.6 50.22 49.21 48.13" stroke="#053755" stroke-linecap="round" stroke-linejoin="round" fill="url(#linear-gradient-21)"/><polygon points="56.98 45.44 56.98 51.72 51.6 53.51 51.6 50.22 53.99 49.33 53.99 46.34 56.98 45.44" stroke="#053755" stroke-linecap="round" stroke-linejoin="round" fill="url(#linear-gradient-22)"/><polygon points="49.21 48.13 51.6 47.24 53.99 49.33 51.6 50.22 49.21 48.13" stroke="#053755" stroke-linecap="round" stroke-linejoin="round" fill="url(#linear-gradient-20)"/><polygon points="51.6 44.25 53.99 46.34 53.99 49.33 51.6 47.24 51.6 44.25" stroke="#053755" stroke-linecap="round" stroke-linejoin="round" fill="url(#linear-gradient-22)"/></svg>