<svg xmlns="http://www.w3.org/2000/svg" xmlns:xlink="http://www.w3.org/1999/xlink" viewBox="0 0 64 64"><defs><linearGradient id="a" x1="17.65" y1="7.14" x2="44.5" y2="53.66" gradientUnits="userSpaceOnUse"><stop offset="0" stop-color="#2f85b1"/><stop offset="1" stop-color="#285677"/></linearGradient><clipPath id="b"><polygon points="12.59 39.67 12.8 24.05 48.01 17.93 47.8 33.56 12.59 39.67" fill="none"/></clipPath><clipPath id="c"><polygon points="13.84 40.93 14.05 25.31 49.27 19.19 49.06 34.81 13.84 40.93" fill="none"/></clipPath><linearGradient id="d" x1="25.2" y1="38.17" x2="33.45" y2="52.45" gradientUnits="userSpaceOnUse"><stop offset="0" stop-color="#f5f5f5"/><stop offset="1" stop-color="#bebebe"/></linearGradient><linearGradient id="e" x1="37.9" y1="40.38" x2="43.23" y2="49.62" gradientUnits="userSpaceOnUse"><stop offset="0" stop-color="#fff"/><stop offset="1" stop-color="#d2d2d2"/></linearGradient><linearGradient id="f" x1="34.39" y1="32.87" x2="40.61" y2="43.63" xlink:href="#e"/><linearGradient id="g" x1="33.89" y1="30.74" x2="39.66" y2="40.72" gradientUnits="userSpaceOnUse"><stop offset="0" stop-color="#fff"/><stop offset="1" stop-color="#f0f0f0"/></linearGradient><linearGradient id="h" x1="31.21" y1="27.55" x2="38.66" y2="40.45" xlink:href="#g"/><linearGradient id="i" x1="48.01" y1="-64.29" x2="50.57" y2="-59.87" gradientTransform="matrix(0.8, 0.6, -0.82, 1.08, -53.44, 72.8)" gradientUnits="userSpaceOnUse"><stop offset="0" stop-color="#3287af"/><stop offset="1" stop-color="#285a78"/></linearGradient></defs><path d="M57,32A25,25,0,1,1,13.12,15.62L7.7,12.88,21,12,16.91,24.24l-1.84-6.3A22,22,0,1,0,32,10V7A25,25,0,0,1,57,32Z" fill="url(#a)"/><g style="isolation:isolate"><g clip-path="url(#b)"><path d="M26.69,21.64a2,2,0,0,0-1,.51l-13,12.21,1.94,2.77L26.27,26.19l7.16,9.12a1.38,1.38,0,0,0,1.2.53l.15,0a2.09,2.09,0,0,0,1.16-.7l9-10.31-2.27-2.42L35.07,31.1l-7-9a1.36,1.36,0,0,0-1.35-.5" fill="#3d3d3d"/><polyline points="40.03 19.64 42.62 22.39 44.89 24.81 47.48 27.56 48 18.7 40.03 19.64" fill="#3d3d3d"/></g></g><g style="isolation:isolate"><g clip-path="url(#c)"><path d="M28,22.9a2,2,0,0,0-1,.51l-13,12.21,1.94,2.77L27.53,27.44l7.15,9.13a1.39,1.39,0,0,0,1.2.53l.16,0a2,2,0,0,0,1.16-.69l8.94-10.31-2.27-2.42-7.55,8.71-7-9A1.36,1.36,0,0,0,28,22.9" fill="#b4b6ba"/><polyline points="41.28 20.9 43.87 23.65 46.14 26.07 48.73 28.82 49.26 19.96 41.28 20.9" fill="#b4b6ba"/></g></g><polygon points="25.5 38 25.5 46 32.5 53 32.5 43.5 25.5 38" stroke="#787878" stroke-linejoin="round" fill="url(#d)"/><polygon points="49.5 38.5 49.5 46 32.5 53 32.5 43.5 49.5 38.5" stroke="#787878" stroke-linejoin="round" fill="url(#e)"/><polygon points="49.5 38.5 32.5 43.5 25.5 38 42 33.5 49.5 38.5" stroke="#787878" stroke-linejoin="round" fill="url(#f)"/><path d="M25.5,38c5-1.5,14-4.5,14-10.5l8,5c-1.41,4.24-4.65,7.71-15,11Z" stroke="#787878" stroke-linejoin="round" fill="url(#g)"/><path d="M25.5,38c4.24-.47,11-3.15,11-13.5l7,4a15.25,15.25,0,0,1-11,15Z" stroke="#787878" stroke-linejoin="round" fill="url(#h)"/><path d="M34.91,34.18C36.13,32.6,38,31.89,39,32.65s.91,2.78-.3,4.35-3.08,2.1-4.09,1.35S33.7,35.75,34.91,34.18Z" fill="url(#i)"/><polygon points="28.64 38.85 32.09 41.71 34.56 40.62 31.15 37.94 28.64 38.85" fill="#646464" opacity="0.5"/><polygon points="37.73 27.14 37.52 29.31 41.14 32.03 41.5 29.47 37.73 27.14" fill="#646464" opacity="0.5"/><polyline points="49.03 40.77 32.56 45.94 25.97 40.29" fill="none" stroke="#646464" stroke-miterlimit="10" opacity="0.5"/><polyline points="49.03 42.65 32.56 48.29 25.97 42.18" fill="none" stroke="#787878" stroke-miterlimit="10"/><polyline points="49.03 44.53 32.56 50.65 25.97 44.06" fill="none" stroke="#646464" stroke-miterlimit="10" opacity="0.5"/><path d="M45.7,36a12,12,0,0,0,1.8-3.47L43.43,30a14.48,14.48,0,0,0,.07-1.46l-7-4c0,6.19-2.42,9.62-5.27,11.49a55.69,55.69,0,0,1-5.73,2v8l7,7,17-7V38.5Z" fill="none" stroke="#323232" stroke-linejoin="round"/></svg>