<svg xmlns="http://www.w3.org/2000/svg" xmlns:xlink="http://www.w3.org/1999/xlink" viewBox="0 0 64 64"><defs><linearGradient id="linear-gradient" x1="19.12" y1="11.89" x2="39.84" y2="47.78" gradientUnits="userSpaceOnUse"><stop offset="0" stop-color="#f5f6f6"/><stop offset="0.99" stop-color="#d2d3d3"/></linearGradient><linearGradient id="linear-gradient-2" x1="38.17" y1="48.39" x2="19.72" y2="16.43" gradientUnits="userSpaceOnUse"><stop offset="0" stop-color="#386f8d"/><stop offset="1" stop-color="#8dd7f4"/></linearGradient><linearGradient id="linear-gradient-4" x1="21.88" y1="44.28" x2="8.74" y2="21.52" gradientUnits="userSpaceOnUse"><stop offset="0" stop-color="#161616"/><stop offset="1" stop-color="#515151"/></linearGradient><linearGradient id="linear-gradient-6" x1="41.1" y1="24.08" x2="43.63" y2="28.45" gradientUnits="userSpaceOnUse"><stop offset="0" stop-color="#ababab"/><stop offset="1" stop-color="#5b5b5b"/></linearGradient><linearGradient id="linear-gradient-10" x1="53.09" y1="44.58" x2="44.57" y2="29.83" xlink:href="#linear-gradient-2"/></defs><title>BOM&amp;amp;DMR_3</title><g id="Layer_10" data-name="Layer 10"><rect x="9.5" y="11.5" width="39" height="35" stroke="#333332" stroke-linecap="round" stroke-linejoin="round" fill="url(#linear-gradient)"/><rect x="9.5" y="27.5" width="39" height="10" stroke="#053755" stroke-linecap="round" stroke-linejoin="round" fill="url(#linear-gradient-2)"/><rect x="22" y="18" width="1" height="28" fill="#9e9e9e"/><rect x="35" y="18" width="1" height="28" fill="#9e9e9e"/><rect x="35" y="27" width="1" height="11" fill="#053755"/><rect x="22" y="27" width="1" height="11" fill="#053755"/><rect x="9.5" y="11.5" width="39" height="7" stroke="#053755" stroke-linecap="round" stroke-linejoin="round" fill="url(#linear-gradient-2)"/><path d="M16.5,35h4a.5.5,0,0,0,.5-.5v-4a.5.5,0,0,0-.5-.5h-4a.5.5,0,0,0-.5.5V32H14V25h1.5a.5.5,0,0,0,.5-.5v-4a.5.5,0,0,0-.5-.5h-4a.5.5,0,0,0-.5.5v4a.5.5,0,0,0,.5.5H13V42.5a.5.5,0,0,0,.5.5H16v1.5a.5.5,0,0,0,.5.5h4a.5.5,0,0,0,.5-.5v-4a.5.5,0,0,0-.5-.5h-4a.5.5,0,0,0-.5.5V42H14V33h2v1.5A.5.5,0,0,0,16.5,35Z" fill-rule="evenodd" fill="url(#linear-gradient-4)"/></g><g id="Layer_11" data-name="Layer 11"><path d="M58,29.33a1.53,1.53,0,0,0-.43-.89l-3-3a1.5,1.5,0,0,0-2.12,2.12L55,30.15a13.36,13.36,0,0,1-7,11.62,13.24,13.24,0,0,1-7-11.61l2.59-2.6a1.5,1.5,0,0,0-2.12-2.12l-3,3a1.53,1.53,0,0,0-.43.89c0,.41-1,10,9.22,15.46h0l.06,0,.2.07.12.05A1.65,1.65,0,0,0,48,45h0a1.65,1.65,0,0,0,.38,0l.13-.05.19-.07.06,0h0C59,39.37,58,29.74,58,29.33Z" stroke="#333332" stroke-linecap="round" stroke-linejoin="round" fill="url(#linear-gradient)"/><circle cx="42.5" cy="26.5" r="3" stroke="#333332" stroke-linecap="round" stroke-linejoin="round" fill="url(#linear-gradient-6)"/><circle cx="53.5" cy="26.5" r="3" stroke="#333332" stroke-linecap="round" stroke-linejoin="round" fill="url(#linear-gradient-6)"/><path d="M40.5,53.5a9,9,0,0,1-9-9,1.5,1.5,0,0,1,3,0,6,6,0,0,0,12,0,1.5,1.5,0,0,1,3,0A9,9,0,0,1,40.5,53.5Z" stroke="#053755" stroke-linecap="round" stroke-linejoin="round" fill="url(#linear-gradient-2)"/><circle cx="32.5" cy="42.5" r="7" stroke="#333332" stroke-linecap="round" stroke-linejoin="round" fill="url(#linear-gradient)"/><path d="M53.84,35.5A14,14,0,0,1,48,41.77a14,14,0,0,1-5.86-6.27H38.89a16.73,16.73,0,0,0,8.34,9.29h0l.06,0,.2.07.12.05A1.65,1.65,0,0,0,48,45h0a1.65,1.65,0,0,0,.38,0l.13-.05.19-.07.06,0h0a16.73,16.73,0,0,0,8.34-9.29Z" stroke="#053755" stroke-linecap="round" stroke-linejoin="round" fill="url(#linear-gradient-10)"/><circle cx="32.5" cy="42.5" r="4" stroke="#333332" stroke-linecap="round" stroke-linejoin="round" fill="url(#linear-gradient)"/></g></svg>