<svg xmlns="http://www.w3.org/2000/svg" xmlns:xlink="http://www.w3.org/1999/xlink" viewBox="0 0 64 64"><defs><linearGradient id="linear-gradient" x1="50.63" y1="30.82" x2="35.34" y2="4.34" gradientUnits="userSpaceOnUse"><stop offset="0" stop-color="#386f8d"/><stop offset="1" stop-color="#8dd7f4"/></linearGradient><linearGradient id="linear-gradient-2" x1="12.77" y1="13.24" x2="26.86" y2="37.65" gradientUnits="userSpaceOnUse"><stop offset="0" stop-color="#f5f6f6"/><stop offset="0.99" stop-color="#d2d3d3"/></linearGradient><linearGradient id="linear-gradient-3" x1="35.77" y1="29.24" x2="49.86" y2="53.65" xlink:href="#linear-gradient-2"/><linearGradient id="linear-gradient-4" x1="15.71" y1="34.93" x2="23.66" y2="48.71" xlink:href="#linear-gradient-2"/><linearGradient id="linear-gradient-5" x1="21.59" y1="34.56" x2="26.06" y2="42.29" gradientUnits="userSpaceOnUse"><stop offset="0" stop-color="#55b432"/><stop offset="1" stop-color="#379614"/></linearGradient><linearGradient id="linear-gradient-6" x1="21.34" y1="34.13" x2="26.31" y2="42.73" gradientUnits="userSpaceOnUse"><stop offset="0" stop-color="#3c9b19"/><stop offset="0.99" stop-color="#28780a"/></linearGradient></defs><title>DocumentControl</title><g id="Layer_5" data-name="Layer 5"><path d="M51.68,17.32C49.86,14.89,45.09,9.5,38.5,9.5a16.33,16.33,0,0,0-11,4l1,2c12-5.5,17.64,4.23,18.82,6.18L44.5,24.5h10v-10Z" stroke="#053755" stroke-linecap="round" stroke-linejoin="round" fill="url(#linear-gradient)"/><polygon points="10.5 10.5 10.5 37.5 31.5 37.5 31.5 17.5 24.5 10.5 10.5 10.5" fill="url(#linear-gradient-2)"/><polyline points="24.5 10.5 24.5 17.5 31.5 17.5" fill="none" stroke="#797979" stroke-linecap="round" stroke-linejoin="round"/><line x1="13.5" y1="21.5" x2="28.5" y2="21.5" fill="none" stroke="#797979" stroke-linecap="round" stroke-linejoin="round"/><line x1="13.5" y1="25.5" x2="28.5" y2="25.5" fill="none" stroke="#797979" stroke-linecap="round" stroke-linejoin="round"/><line x1="13.5" y1="29.5" x2="28.5" y2="29.5" fill="none" stroke="#797979" stroke-linecap="round" stroke-linejoin="round"/><polygon points="10.5 10.5 10.5 37.5 31.5 37.5 31.5 17.5 24.5 10.5 10.5 10.5" fill="none" stroke="#333332" stroke-linecap="round" stroke-linejoin="round"/><polygon points="33.5 26.5 33.5 53.5 54.5 53.5 54.5 33.5 47.5 26.5 33.5 26.5" fill="url(#linear-gradient-3)"/><polyline points="47.5 26.5 47.5 33.5 54.5 33.5" fill="none" stroke="#797979" stroke-linecap="round" stroke-linejoin="round"/><line x1="36.5" y1="37.5" x2="51.5" y2="37.5" fill="none" stroke="#797979" stroke-linecap="round" stroke-linejoin="round"/><line x1="36.5" y1="41.5" x2="51.5" y2="41.5" fill="none" stroke="#797979" stroke-linecap="round" stroke-linejoin="round"/><line x1="36.5" y1="45.5" x2="51.5" y2="45.5" fill="none" stroke="#797979" stroke-linecap="round" stroke-linejoin="round"/><line x1="36.5" y1="49.5" x2="51.5" y2="49.5" fill="none" stroke="#797979" stroke-linecap="round" stroke-linejoin="round"/><polygon points="33.5 26.5 33.5 53.5 54.5 53.5 54.5 33.5 47.5 26.5 33.5 26.5" fill="none" stroke="#333332" stroke-linecap="round" stroke-linejoin="round"/><rect x="12.5" y="34.5" width="14" height="14" stroke="#333332" stroke-linecap="round" stroke-linejoin="round" fill="url(#linear-gradient-4)"/><polygon points="14.5 39.5 16.5 37.5 20.5 41.5 29.5 32.5 31.5 34.5 20.5 45.5 14.5 39.5" stroke-linecap="round" stroke-linejoin="round" fill="url(#linear-gradient-5)" stroke="url(#linear-gradient-6)"/></g></svg>