<svg xmlns="http://www.w3.org/2000/svg" xmlns:xlink="http://www.w3.org/1999/xlink" viewBox="0 0 64 64"><defs><linearGradient id="linear-gradient" x1="19.63" y1="16.63" x2="35.74" y2="44.55" gradientUnits="userSpaceOnUse"><stop offset="0" stop-color="#f5f6f6"/><stop offset="0.99" stop-color="#d2d3d3"/></linearGradient><linearGradient id="linear-gradient-2" x1="24.08" y1="42.53" x2="18.65" y2="33.13" gradientUnits="userSpaceOnUse"><stop offset="0" stop-color="#386f8d"/><stop offset="1" stop-color="#8dd7f4"/></linearGradient><linearGradient id="linear-gradient-3" x1="12.96" y1="39.91" x2="16.7" y2="46.37" gradientTransform="translate(51.54 16.3) rotate(72.96)" gradientUnits="userSpaceOnUse"><stop offset="0" stop-color="#f5f6f6"/><stop offset="0.99" stop-color="#bfbebe"/></linearGradient><linearGradient id="linear-gradient-4" x1="13.78" y1="41.13" x2="15.98" y2="44.93" gradientTransform="translate(51.55 16.18) rotate(72.96)" xlink:href="#linear-gradient-3"/><linearGradient id="linear-gradient-6" x1="11.84" y1="22.49" x2="13.94" y2="26.13" gradientUnits="userSpaceOnUse"><stop offset="0" stop-color="#ababab"/><stop offset="1" stop-color="#5b5b5b"/></linearGradient><clipPath id="clip-path"><polygon points="27.5 36.5 46.5 31.5 46.5 37 27.5 42.5 27.5 36.5" fill="none"/></clipPath></defs><title>ENODEID_AP_AppIcon</title><g id="Layer_7" data-name="Layer 7"><polygon points="7.5 19 7.5 53 49.5 39.5 49.5 11 7.5 19" stroke="#333332" stroke-linecap="round" stroke-linejoin="round" fill="url(#linear-gradient)"/><path d="M19,44s5.5-2.5,5.5-11h-3s0,5-3,7Z" stroke="#053755" stroke-linecap="round" stroke-linejoin="round" fill="url(#linear-gradient-2)"/><ellipse cx="14.75" cy="43" rx="5" ry="4.25" transform="translate(-30.68 44.5) rotate(-72.96)" stroke="#323232" stroke-linecap="round" stroke-linejoin="round" fill="url(#linear-gradient-3)"/><ellipse cx="14.83" cy="42.95" rx="2.94" ry="2.5" transform="translate(-30.58 44.54) rotate(-72.96)" stroke="#323232" stroke-linecap="round" stroke-linejoin="round" fill="url(#linear-gradient-4)"/><path d="M10.5,24.5S9,33,21.5,33h3V26s0-3.5-2-4.5c-2.41-1.2-3,1-3,1l2,3.5v4S15,30,14,26.5C12.89,22.62,10.5,24.5,10.5,24.5Z" stroke="#333332" stroke-linecap="round" stroke-linejoin="round" fill="url(#linear-gradient)"/><circle cx="13" cy="24.5" r="2.5" stroke="#333332" stroke-linecap="round" stroke-linejoin="round" fill="url(#linear-gradient-6)"/><circle cx="20" cy="21.5" r="2.5" stroke="#333332" stroke-linecap="round" stroke-linejoin="round" fill="url(#linear-gradient-6)"/><line x1="28.5" y1="20" x2="45.5" y2="16" fill="none" stroke="#333332" stroke-linecap="round" stroke-linejoin="round"/><line x1="28.5" y1="24" x2="45.5" y2="20" fill="none" stroke="#333332" stroke-linecap="round" stroke-linejoin="round"/><line x1="28.5" y1="28" x2="45.5" y2="24" fill="none" stroke="#333332" stroke-linecap="round" stroke-linejoin="round"/><line x1="28.5" y1="32" x2="45.5" y2="28" fill="none" stroke="#333332" stroke-linecap="round" stroke-linejoin="round"/><g clip-path="url(#clip-path)"><path d="M45.5,30.5a.5.5,0,0,0-.5.5v7a.5.5,0,0,0,1,0V31A.5.5,0,0,0,45.5,30.5Z" fill="#161616"/><path d="M31,34.5a1,1,0,0,0-1,1v6a1,1,0,0,0,2,0v-6A1,1,0,0,0,31,34.5Z" fill="#161616"/><path d="M28.5,35.5a.5.5,0,0,0-.5.5v6.5a.5.5,0,0,0,1,0V36A.5.5,0,0,0,28.5,35.5Z" fill="#161616"/><path d="M33.5,34a.5.5,0,0,0-.5.5V41a.5.5,0,0,0,1,0V34.5A.5.5,0,0,0,33.5,34Z" fill="#161616"/><path d="M40.5,32a.5.5,0,0,0-.5.5V39a.5.5,0,0,0,1,0V32.5A.5.5,0,0,0,40.5,32Z" fill="#161616"/><path d="M38,33a1,1,0,0,0-1,1v5.5a1,1,0,0,0,2,0V34A1,1,0,0,0,38,33Z" fill="#161616"/><path d="M35.5,33.5a.5.5,0,0,0-.5.5v6.5a.5.5,0,0,0,1,0V34A.5.5,0,0,0,35.5,33.5Z" fill="#161616"/></g></g><g id="Layer_5" data-name="Layer 5"><g opacity="0.45"><path d="M42,32.31l13,6.5V54.69l-13-6.5V32.31m0-1a1,1,0,0,0-.53.15,1,1,0,0,0-.47.85V48.19a1,1,0,0,0,.55.9l13,6.5a1,1,0,0,0,1-.05,1,1,0,0,0,.47-.85V38.81a1,1,0,0,0-.55-.9l-13-6.5a1,1,0,0,0-.45-.1Z" fill="#fff"/><path d="M41.5,31a.54.54,0,0,1,.22.05l14,7a.51.51,0,0,1,.28.45v17a.52.52,0,0,1-.24.43.59.59,0,0,1-.26.07.54.54,0,0,1-.22,0l-14-7A.51.51,0,0,1,41,48.5v-17a.52.52,0,0,1,.24-.43A.48.48,0,0,1,41.5,31M55,54.69V38.81l-13-6.5V48.19l13,6.5M41.5,30a1.57,1.57,0,0,0-.79.22A1.5,1.5,0,0,0,40,31.5v17a1.5,1.5,0,0,0,.83,1.34l14,7a1.57,1.57,0,0,0,.67.16,1.5,1.5,0,0,0,.78-.22A1.48,1.48,0,0,0,57,55.5v-17a1.5,1.5,0,0,0-.83-1.34l-14-7A1.44,1.44,0,0,0,41.5,30ZM43,47.57V33.93l11,5.5V53.07l-11-5.5Z" fill="#fff"/></g><polygon points="41.5 31.5 41.5 48.5 55.5 55.5 55.5 38.5 41.5 31.5" stroke="#333332" stroke-linecap="round" stroke-linejoin="round" fill="url(#linear-gradient)"/><path d="M44.5,47.5v-4s.5-1.5,4,0,4,4,4,4v4Z" fill="#333332" stroke="#333332" stroke-miterlimit="10"/><ellipse cx="48.5" cy="40" rx="2.2" ry="3.2" transform="translate(-12.6 54.79) rotate(-53.12)" fill="#333332" stroke="#333332" stroke-miterlimit="10"/></g></svg>