<svg id="Layer_11" data-name="Layer 11" xmlns="http://www.w3.org/2000/svg" xmlns:xlink="http://www.w3.org/1999/xlink" viewBox="0 0 64 64"><defs><linearGradient id="linear-gradient" x1="27.16" y1="12.79" x2="43.06" y2="40.32" gradientUnits="userSpaceOnUse"><stop offset="0" stop-color="#f5f6f6"/><stop offset="0.99" stop-color="#d2d3d3"/></linearGradient><linearGradient id="linear-gradient-2" x1="44.66" y1="48.94" x2="19.62" y2="5.56" gradientUnits="userSpaceOnUse"><stop offset="0" stop-color="#386f8d"/><stop offset="1" stop-color="#8dd7f4"/></linearGradient><linearGradient id="linear-gradient-3" x1="21.58" y1="25.98" x2="25.99" y2="25.98" gradientUnits="userSpaceOnUse"><stop offset="0" stop-color="#84bedc"/><stop offset="1" stop-color="#2a5b79"/></linearGradient><linearGradient id="linear-gradient-4" x1="20.16" y1="16.79" x2="36.06" y2="44.32" xlink:href="#linear-gradient"/><linearGradient id="linear-gradient-6" x1="14.58" y1="29.98" x2="18.99" y2="29.98" xlink:href="#linear-gradient-3"/><linearGradient id="linear-gradient-7" x1="13.16" y1="20.79" x2="29.06" y2="48.32" xlink:href="#linear-gradient"/><linearGradient id="linear-gradient-9" x1="7.58" y1="33.98" x2="11.99" y2="33.98" xlink:href="#linear-gradient-3"/><linearGradient id="linear-gradient-10" x1="40.01" y1="31.23" x2="50.7" y2="49.73" xlink:href="#linear-gradient"/><linearGradient id="linear-gradient-11" x1="53.8" y1="40.87" x2="50.3" y2="34.8" xlink:href="#linear-gradient-2"/><linearGradient id="linear-gradient-12" x1="46.77" y1="45.17" x2="41" y2="35.17" gradientUnits="userSpaceOnUse"><stop offset="0" stop-color="#2a5b79"/><stop offset="1" stop-color="#84bedc"/></linearGradient><linearGradient id="linear-gradient-13" x1="49.47" y1="35.05" x2="46.87" y2="30.55" gradientUnits="userSpaceOnUse"><stop offset="0" stop-color="#74c4e2"/><stop offset="1" stop-color="#a4def6"/></linearGradient></defs><title>ENODELC_AP_AppIcon</title><polygon points="47.5 11.5 26.5 10.5 21.5 11.5 21.5 39.5 42.5 43.5 42.5 42.5 47.5 38.5 47.5 11.5" stroke="#003755" stroke-linecap="round" stroke-linejoin="round" fill="url(#linear-gradient)"/><polyline points="46.5 38 46.5 12.5 42.5 14.5" fill="none" stroke="#787878" stroke-linecap="square" stroke-linejoin="round"/><polygon points="21.5 39.5 21.5 11.5 42.5 14.5 42.5 43.5 21.5 39.5" stroke="#053755" stroke-linecap="round" stroke-linejoin="round" fill="url(#linear-gradient-2)"/><line x1="44.5" y1="14" x2="44.5" y2="39.5" fill="none" stroke="#787878" stroke-linecap="square" stroke-linejoin="round" opacity="0.38"/><polygon points="26.5 12.21 21.5 11.5 21.5 39.5 26.5 40.45 26.5 12.21" stroke="#053755" stroke-linecap="round" stroke-linejoin="round" fill="url(#linear-gradient-3)"/><polygon points="40.5 15.5 19.5 14.5 14.5 15.5 14.5 43.5 35.5 47.5 35.5 46.5 40.5 42.5 40.5 15.5" stroke="#003755" stroke-linecap="round" stroke-linejoin="round" fill="url(#linear-gradient-4)"/><polyline points="39.5 42 39.5 16.5 35.5 18.5" fill="none" stroke="#787878" stroke-linecap="square" stroke-linejoin="round"/><polygon points="14.5 43.5 14.5 15.5 35.5 18.5 35.5 47.5 14.5 43.5" stroke="#053755" stroke-linecap="round" stroke-linejoin="round" fill="url(#linear-gradient-2)"/><line x1="37.5" y1="18" x2="37.5" y2="43.5" fill="none" stroke="#787878" stroke-linecap="square" stroke-linejoin="round" opacity="0.38"/><polygon points="19.5 16.21 14.5 15.5 14.5 43.5 19.5 44.45 19.5 16.21" stroke="#053755" stroke-linecap="round" stroke-linejoin="round" fill="url(#linear-gradient-6)"/><polygon points="33.5 19.5 12.5 18.5 7.5 19.5 7.5 47.5 28.5 51.5 28.5 50.5 33.5 46.5 33.5 19.5" stroke="#003755" stroke-linecap="round" stroke-linejoin="round" fill="url(#linear-gradient-7)"/><polyline points="32.5 46 32.5 20.5 28.5 22.5" fill="none" stroke="#787878" stroke-linecap="square" stroke-linejoin="round"/><polygon points="7.5 47.5 7.5 19.5 28.5 22.5 28.5 51.5 7.5 47.5" stroke="#053755" stroke-linecap="round" stroke-linejoin="round" fill="url(#linear-gradient-2)"/><line x1="30.5" y1="22" x2="30.5" y2="47.5" fill="none" stroke="#787878" stroke-linecap="square" stroke-linejoin="round" opacity="0.38"/><polygon points="12.5 20.21 7.5 19.5 7.5 47.5 12.5 48.45 12.5 20.21" stroke="#053755" stroke-linecap="round" stroke-linejoin="round" fill="url(#linear-gradient-9)"/><polygon points="32.5 47.5 32.5 32.5 41.5 27.5 56.5 30.5 56.5 45.5 47.5 53.5 32.5 47.5" fill="url(#linear-gradient-10)"/><polyline points="32.5 32.5 47.5 36.5 47.5 53.5" fill="none" stroke="#787878" stroke-linecap="round" stroke-linejoin="round"/><polygon points="56.5 38 47.5 45 47.5 36.5 56.5 30.5 56.5 38" stroke="#053755" stroke-linecap="round" stroke-linejoin="round" fill="url(#linear-gradient-11)"/><polygon points="39.5 42.5 47.5 45 47.5 36.5 39.5 34.5 39.5 42.5" stroke="#053755" stroke-linecap="round" stroke-linejoin="round" fill="url(#linear-gradient-12)"/><polygon points="39.5 34.5 47.5 36.5 56.5 30.5 48.35 28.87 39.5 34.5" stroke="#053755" stroke-linecap="round" stroke-linejoin="round" fill="url(#linear-gradient-13)"/><polygon points="32.5 47.5 32.5 32.5 41.5 27.5 56.5 30.5 56.5 45.5 47.5 53.5 32.5 47.5" fill="none" stroke="#333332" stroke-linecap="round" stroke-linejoin="round"/></svg>