<svg xmlns="http://www.w3.org/2000/svg" xmlns:xlink="http://www.w3.org/1999/xlink" width="64" height="64" viewBox="0 0 64 64">
  <defs>
    <linearGradient id="a" data-name="New Gradient Swatch 2" x1="13.5" y1="45" x2="44.5" y2="45" gradientUnits="userSpaceOnUse">
      <stop offset="0" stop-color="#8c8c8c"/>
      <stop offset="0.183" stop-color="#fff"/>
      <stop offset="0.292" stop-color="#fbfbfb"/>
      <stop offset="0.41" stop-color="#eee"/>
      <stop offset="0.53" stop-color="#d8d8d8"/>
      <stop offset="0.602" stop-color="#c8c8c8"/>
      <stop offset="0.694" stop-color="#d9d9d9"/>
      <stop offset="0.796" stop-color="#f0f0f0"/>
      <stop offset="1" stop-color="#d2d2d2"/>
    </linearGradient>
    <linearGradient id="b" x1="23.632" y1="29.702" x2="47.332" y2="70.751" gradientUnits="userSpaceOnUse">
      <stop offset="0" stop-color="#8c8c8c"/>
      <stop offset="0.027" stop-color="#a5a5a5"/>
      <stop offset="0.074" stop-color="#ccc"/>
      <stop offset="0.117" stop-color="#e8e8e8"/>
      <stop offset="0.155" stop-color="#f9f9f9"/>
      <stop offset="0.183" stop-color="#fff"/>
      <stop offset="0.218" stop-color="#fbfbfb"/>
      <stop offset="0.255" stop-color="#eee"/>
      <stop offset="0.294" stop-color="#d8d8d8"/>
      <stop offset="0.317" stop-color="#c8c8c8"/>
      <stop offset="0.353" stop-color="#d9d9d9"/>
      <stop offset="0.393" stop-color="#f0f0f0"/>
      <stop offset="1" stop-color="#d2d2d2"/>
    </linearGradient>
    <linearGradient id="c" y1="34" y2="34" xlink:href="#a"/>
    <linearGradient id="d" x1="23.632" y1="18.702" x2="47.332" y2="59.751" xlink:href="#b"/>
    <linearGradient id="e" y1="23" y2="23" xlink:href="#a"/>
    <linearGradient id="f" x1="23.632" y1="7.702" x2="47.332" y2="48.751" xlink:href="#b"/>
    <linearGradient id="g" x1="38.984" y1="35.334" x2="46.451" y2="48.268" gradientUnits="userSpaceOnUse">
      <stop offset="0" stop-color="#8cd7f5"/>
      <stop offset="1" stop-color="#376e8c"/>
    </linearGradient>
    <linearGradient id="h" x1="46.984" y1="31.334" x2="54.451" y2="44.268" gradientTransform="translate(93 63) rotate(180)" xlink:href="#g"/>
  </defs>
  <title>16610_ENOEXCH_AP_AppIcon_r21x</title>
  <g>
    <g>
      <path d="M29,51.5c-7.514,0-15.5-1.577-15.5-4.5V39a.5.5,0,0,1,.5-.5H44a.5.5,0,0,1,.5.5v8C44.5,49.923,36.514,51.5,29,51.5Z" fill="url(#a)"/>
      <path d="M44,39v8c0,2.209-6.717,4-15,4s-15-1.791-15-4V39H44m0-1H14a1,1,0,0,0-1,1v8c0,3.435,8.294,5,16,5s16-1.565,16-5V39a1,1,0,0,0-1-1Z" fill="#797979"/>
    </g>
    <g>
      <ellipse cx="29" cy="39" rx="15.5" ry="4.5" fill="url(#b)"/>
      <path d="M29,35c8.283,0,15,1.791,15,4s-6.717,4-15,4-15-1.791-15-4,6.716-4,15-4m0-1c-7.706,0-16,1.565-16,5s8.294,5,16,5,16-1.565,16-5-8.294-5-16-5Z" fill="#787878"/>
    </g>
  </g>
  <g>
    <g>
      <path d="M29,40.5c-7.514,0-15.5-1.577-15.5-4.5V28a.5.5,0,0,1,.5-.5H44a.5.5,0,0,1,.5.5v8C44.5,38.923,36.514,40.5,29,40.5Z" fill="url(#c)"/>
      <path d="M44,28v8c0,2.209-6.717,4-15,4s-15-1.791-15-4V28H44m0-1H14a1,1,0,0,0-1,1v8c0,3.435,8.294,5,16,5s16-1.565,16-5V28a1,1,0,0,0-1-1Z" fill="#797979"/>
    </g>
    <g>
      <ellipse cx="29" cy="28" rx="15.5" ry="4.5" fill="url(#d)"/>
      <path d="M29,24c8.283,0,15,1.791,15,4s-6.717,4-15,4-15-1.791-15-4,6.716-4,15-4m0-1c-7.706,0-16,1.565-16,5s8.294,5,16,5,16-1.565,16-5-8.294-5-16-5Z" fill="#787878"/>
    </g>
  </g>
  <g>
    <g>
      <path d="M29,29.5c-7.514,0-15.5-1.577-15.5-4.5V17a.5.5,0,0,1,.5-.5H44a.5.5,0,0,1,.5.5v8C44.5,27.923,36.514,29.5,29,29.5Z" fill="url(#e)"/>
      <path d="M44,17v8c0,2.209-6.717,4-15,4s-15-1.791-15-4V17H44m0-1H14a1,1,0,0,0-1,1v8c0,3.435,8.294,5,16,5s16-1.565,16-5V17a1,1,0,0,0-1-1Z" fill="#797979"/>
    </g>
    <g>
      <ellipse cx="29" cy="17" rx="15.5" ry="4.5" fill="url(#f)"/>
      <path d="M29,13c8.283,0,15,1.791,15,4s-6.717,4-15,4-15-1.791-15-4,6.716-4,15-4m0-1c-7.706,0-16,1.565-16,5s8.294,5,16,5,16-1.565,16-5-8.294-5-16-5Z" fill="#787878"/>
    </g>
  </g>
  <path d="M29,13c8.283,0,15,1.791,15,4v8c0,.531-.4,1.037-1.1,1.5.7.463,1.1.969,1.1,1.5v8c0,.531-.4,1.036-1.1,1.5.7.464,1.1.969,1.1,1.5v8c0,2.209-6.717,4-15,4s-15-1.791-15-4V39c0-.531.4-1.036,1.1-1.5-.7-.464-1.1-.969-1.1-1.5V28c0-.531.4-1.037,1.1-1.5-.7-.463-1.1-.969-1.1-1.5V17c0-2.209,6.716-4,15-4m0-1c-7.706,0-16,1.565-16,5v8a2.3,2.3,0,0,0,.584,1.5A2.3,2.3,0,0,0,13,28v8a2.3,2.3,0,0,0,.584,1.5A2.3,2.3,0,0,0,13,39v8c0,3.435,8.294,5,16,5s16-1.565,16-5V39a2.3,2.3,0,0,0-.584-1.5A2.3,2.3,0,0,0,45,36V28a2.3,2.3,0,0,0-.584-1.5A2.3,2.3,0,0,0,45,25V17c0-3.435-8.294-5-16-5Z" fill="#323232"/>
  <g opacity="0.5">
    <path d="M46,48.5a.5.5,0,0,1-.5-.5V45.5H33a.5.5,0,0,1-.5-.5V38a.5.5,0,0,1,.5-.5H45.5V35a.5.5,0,0,1,.5-.5h2a.5.5,0,0,1,.367.161l6,6.5a.5.5,0,0,1,0,.678l-6,6.5A.5.5,0,0,1,48,48.5Z" fill="#fff"/>
    <path d="M48,35l6,6.5L48,48H46V45H33V38H46V35h2m0-1H46a1,1,0,0,0-1,1v2H33a1,1,0,0,0-1,1v7a1,1,0,0,0,1,1H45v2a1,1,0,0,0,1,1h2a1,1,0,0,0,.735-.322l6-6.5a1,1,0,0,0,0-1.356l-6-6.5A1,1,0,0,0,48,34Z" fill="#fff"/>
  </g>
  <g opacity="0.5">
    <path d="M37,32.5a.5.5,0,0,1-.367-.161l-6-6.5a.5.5,0,0,1,0-.678l6-6.5A.5.5,0,0,1,37,18.5h2a.5.5,0,0,1,.5.5v2.5H52a.5.5,0,0,1,.5.5v7a.5.5,0,0,1-.5.5H39.5V32a.5.5,0,0,1-.5.5Z" fill="#fff"/>
    <path d="M39,19v3H52v7H39v3H37l-6-6.5L37,19h2m0-1H37a1,1,0,0,0-.735.322l-6,6.5a1,1,0,0,0,0,1.356l6,6.5A1,1,0,0,0,37,33h2a1,1,0,0,0,1-1V30H52a1,1,0,0,0,1-1V22a1,1,0,0,0-1-1H40V19a1,1,0,0,0-1-1Z" fill="#fff"/>
  </g>
  <g>
    <polygon points="46.5 47.5 46.5 44.5 33.5 44.5 33.5 38.5 46.5 38.5 46.5 35.5 47.781 35.5 53.319 41.5 47.781 47.5 46.5 47.5" fill="url(#g)"/>
    <path d="M47.562,36l5.077,5.5L47.562,47H47V44H34V39H47V36h.562M48,35H46v3H33v7H46v3h2l6-6.5L48,35Z" fill="#003755"/>
  </g>
  <g>
    <polygon points="37.219 31.5 31.681 25.5 37.219 19.5 38.5 19.5 38.5 22.5 51.5 22.5 51.5 28.5 38.5 28.5 38.5 31.5 37.219 31.5" fill="url(#h)"/>
    <path d="M38,20v3H51v5H38v3h-.562l-5.077-5.5L37.438,20H38m1-1H37l-6,6.5L37,32h2V29H52V22H39V19Z" fill="#003755"/>
  </g>
</svg>
