<?xml version="1.0" encoding="utf-8"?>
<!-- Generator: Adobe Illustrator 24.0.0, SVG Export Plug-In . SVG Version: 6.00 Build 0)  -->
<svg version="1.1" id="Layer_1" xmlns="http://www.w3.org/2000/svg" xmlns:xlink="http://www.w3.org/1999/xlink" x="0px" y="0px"
	 viewBox="0 0 64 64" style="enable-background:new 0 0 64 64;" xml:space="preserve">
<style type="text/css">
	.White_x0020_SINGLE{fill:url(#SVGID_1_);stroke:#323232;stroke-linejoin:round;stroke-miterlimit:10;}
	.Blue_x0020_LEFT{fill:url(#SVGID_2_);stroke:#053755;stroke-linejoin:round;stroke-miterlimit:10;}
	
		.De_x002D_emphasized_x0020_WHITE_x0020_for_x0020_Vector_x0020_Highlights{opacity:0.5;fill:#FFFFFF;stroke:#FFFFFF;stroke-width:3;stroke-linejoin:round;stroke-miterlimit:10;}
	.st0{fill:url(#SVGID_3_);stroke:#323232;stroke-linejoin:round;stroke-miterlimit:10;}
	.st1{fill:url(#SVGID_4_);stroke:#787979;stroke-linejoin:round;stroke-miterlimit:10;}
	.st2{fill:url(#SVGID_5_);stroke:#787979;stroke-linejoin:round;stroke-miterlimit:10;}
	.st3{fill:url(#SVGID_6_);stroke:#787979;stroke-linejoin:round;stroke-miterlimit:10;}
	.st4{fill:url(#SVGID_7_);stroke:#787979;stroke-linejoin:round;stroke-miterlimit:10;}
	.st5{fill:none;stroke:#323232;stroke-linejoin:round;stroke-miterlimit:10;}
	.st6{fill:url(#SVGID_8_);stroke:#323232;stroke-linecap:round;stroke-linejoin:round;stroke-miterlimit:1;}
	.st7{fill:url(#SVGID_9_);stroke:#323232;stroke-linecap:round;stroke-linejoin:round;stroke-miterlimit:1;}
	.st8{fill:#FFFFFF;stroke:#231F20;stroke-width:0.2697;stroke-linecap:round;stroke-linejoin:round;stroke-miterlimit:10;}
	.st9{fill:url(#SVGID_10_);stroke:#323232;stroke-linecap:round;stroke-linejoin:round;stroke-miterlimit:1;}
	.st10{fill:none;stroke:#231F20;stroke-width:1.0787;stroke-miterlimit:10;}
	.st11{fill:url(#SVGID_11_);stroke:#063755;stroke-linecap:round;stroke-linejoin:round;stroke-miterlimit:1;}
	.st12{fill:url(#SVGID_12_);stroke:#063755;stroke-linecap:round;stroke-linejoin:round;stroke-miterlimit:1;}
	.st13{fill:url(#SVGID_13_);stroke:#063755;stroke-linecap:round;stroke-linejoin:round;stroke-miterlimit:1;}
	.st14{fill:url(#SVGID_14_);stroke:#323232;stroke-linejoin:round;stroke-miterlimit:10;}
	.st15{opacity:0.5;}
	.st16{fill:#FFFFFF;}
	.st17{fill:url(#SVGID_15_);stroke:url(#SVGID_16_);stroke-linecap:round;stroke-linejoin:round;stroke-miterlimit:10;}
	.st18{fill:none;stroke:#FFFFFF;stroke-width:3;stroke-linejoin:round;stroke-miterlimit:10;}
	.st19{fill:url(#SVGID_17_);stroke:url(#SVGID_18_);stroke-linecap:round;stroke-linejoin:round;stroke-miterlimit:10;}
	.st20{fill:url(#SVGID_19_);stroke:#053755;stroke-linejoin:round;stroke-miterlimit:10;}
</style>
<linearGradient id="SVGID_1_" gradientUnits="userSpaceOnUse" x1="0" y1="0" x2="0.5" y2="0.866">
	<stop  offset="0" style="stop-color:#FFFFFF"/>
	<stop  offset="1" style="stop-color:#D4D5D3"/>
</linearGradient>
<linearGradient id="SVGID_2_" gradientUnits="userSpaceOnUse" x1="0" y1="0" x2="0.5" y2="0.866">
	<stop  offset="0" style="stop-color:#83BEDC"/>
	<stop  offset="1" style="stop-color:#285A78"/>
</linearGradient>
<g>
	<linearGradient id="SVGID_3_" gradientUnits="userSpaceOnUse" x1="10.2089" y1="11.6501" x2="24.5559" y2="36.4998">
		<stop  offset="0" style="stop-color:#FFFFFF"/>
		<stop  offset="1" style="stop-color:#D4D5D3"/>
	</linearGradient>
	<polygon class="st0" points="6.5,13.79 17.09,9.87 23.46,11.28 23.46,19.02 30.5,20.31 30.5,29.55 22.12,37.91 6.5,31.71 	"/>
	<linearGradient id="SVGID_4_" gradientUnits="userSpaceOnUse" x1="13.4998" y1="9.838" x2="16.6134" y2="15.2309">
		<stop  offset="0" style="stop-color:#FFFFFF"/>
		<stop  offset="1" style="stop-color:#D4D5D3"/>
	</linearGradient>
	<polygon class="st1" points="13.68,15.82 6.65,13.79 17.09,9.87 23.46,11.28 	"/>
	<linearGradient id="SVGID_5_" gradientUnits="userSpaceOnUse" x1="16.2371" y1="14.2175" x2="20.191" y2="21.066">
		<stop  offset="0" style="stop-color:#FFFFFF"/>
		<stop  offset="1" style="stop-color:#D4D5D3"/>
	</linearGradient>
	<polygon class="st2" points="13.5,24.93 13.46,15.82 23.46,11.28 23.46,19.02 	"/>
	<linearGradient id="SVGID_6_" gradientUnits="userSpaceOnUse" x1="20.8197" y1="20.549" x2="23.9109" y2="25.9031">
		<stop  offset="0" style="stop-color:#FFFFFF"/>
		<stop  offset="1" style="stop-color:#D4D5D3"/>
	</linearGradient>
	<path class="st3" d="M21.61,27.23l8.89-7l-7.04-1.21c-3.24,1.97-6.72,3.95-9.97,5.92C16.3,25.76,18.8,26.42,21.61,27.23z"/>
	<linearGradient id="SVGID_7_" gradientUnits="userSpaceOnUse" x1="23.3149" y1="24.4586" x2="28.6851" y2="33.76">
		<stop  offset="0" style="stop-color:#FFFFFF"/>
		<stop  offset="1" style="stop-color:#D4D5D3"/>
	</linearGradient>
	<polygon class="st4" points="21.5,37.91 21.53,27.38 30.5,20.31 30.5,29.55 	"/>
	<polygon class="st5" points="6.5,13.79 17.09,9.87 23.46,11.28 23.46,19.02 30.5,20.31 30.5,29.55 22.12,37.91 6.5,31.71 	"/>
</g>
<g>
	<linearGradient id="SVGID_8_" gradientUnits="userSpaceOnUse" x1="29.4949" y1="31.8685" x2="44.8314" y2="58.432">
		<stop  offset="0" style="stop-color:#F4F5F5"/>
		<stop  offset="0.9921" style="stop-color:#D2D2D2"/>
	</linearGradient>
	<polygon class="st6" points="30.54,31.26 30.54,50.43 47.5,56.89 47.5,46.31 39.5,43.08 39.5,33.37 	"/>
	<linearGradient id="SVGID_9_" gradientUnits="userSpaceOnUse" x1="38.1352" y1="26.827" x2="41.4225" y2="32.5208">
		<stop  offset="0" style="stop-color:#F4F5F5"/>
		<stop  offset="0.9921" style="stop-color:#D2D2D2"/>
	</linearGradient>
	<polygon class="st7" points="49.01,28.14 40.5,26.5 30.54,31.21 39.5,33.5 	"/>
	<polygon class="st8" points="49.42,36.06 55.89,38.22 48.34,44.69 40.79,41.46 	"/>
	<polygon class="st8" points="49.42,28.51 40,33 39.71,42.54 49.42,36.06 	"/>
	<linearGradient id="SVGID_10_" gradientUnits="userSpaceOnUse" x1="49.1291" y1="42.6906" x2="54.8709" y2="52.6357">
		<stop  offset="0" style="stop-color:#F4F5F5"/>
		<stop  offset="0.9921" style="stop-color:#D2D2D2"/>
	</linearGradient>
	<polygon class="st9" points="56.5,47.27 56.5,38.43 47.5,45.92 47.5,56.89 	"/>
	<path class="st10" d="M47.54,34.97"/>
	<path class="st10" d="M38.72,32.9"/>
	<path class="st10" d="M47.54,34.97"/>
	<path class="st10" d="M47.54,45.84"/>
	<path class="st10" d="M56.68,38.32"/>
	<path class="st10" d="M56.68,29.42"/>
	<path class="st10" d="M47.65,35.12"/>
	<path class="st10" d="M38.89,33.06"/>
	<path class="st10" d="M47.65,35.12"/>
	<path class="st10" d="M47.65,45.92"/>
	<path class="st10" d="M56.74,38.45"/>
	<path class="st10" d="M56.74,29.6"/>
	<linearGradient id="SVGID_11_" gradientUnits="userSpaceOnUse" x1="46.661" y1="29.2253" x2="49.5878" y2="34.2946">
		<stop  offset="0" style="stop-color:#A2DDF7"/>
		<stop  offset="1" style="stop-color:#73C3E1"/>
	</linearGradient>
	<polygon class="st11" points="39.5,33.36 48.9,28.11 56.43,29.6 47.5,35.5 	"/>
	<linearGradient id="SVGID_12_" gradientUnits="userSpaceOnUse" x1="40.7306" y1="34.5946" x2="60.474" y2="68.7912">
		<stop  offset="0" style="stop-color:#82BDDC"/>
		<stop  offset="1" style="stop-color:#275A78"/>
	</linearGradient>
	<polygon class="st12" points="39.5,43.26 39.5,33.37 47.5,35.52 47.5,46.31 	"/>
	<linearGradient id="SVGID_13_" gradientUnits="userSpaceOnUse" x1="46.9402" y1="29.1926" x2="62.1447" y2="55.5277">
		<stop  offset="0" style="stop-color:#8BD6F4"/>
		<stop  offset="1" style="stop-color:#376E8C"/>
	</linearGradient>
	<polygon class="st13" points="56.5,38.45 56.5,29.6 47.5,35.52 47.5,46.31 	"/>
</g>
<linearGradient id="SVGID_14_" gradientUnits="userSpaceOnUse" x1="12.0359" y1="34.0359" x2="22.9641" y2="52.9641">
	<stop  offset="0" style="stop-color:#FFFFFF"/>
	<stop  offset="1" style="stop-color:#D4D5D3"/>
</linearGradient>
<rect x="9.5" y="35.5" class="st14" width="16" height="16"/>
<g class="st15">
	<g>
		<polygon class="st16" points="12.15,42.34 18.42,48.6 31.65,35.36 28.97,32.68 18.42,43.23 14.84,39.65 		"/>
	</g>
	<g>
		<linearGradient id="SVGID_15_" gradientUnits="userSpaceOnUse" x1="20.4837" y1="36.3942" x2="25.2527" y2="44.6545">
			<stop  offset="0" style="stop-color:#55B432"/>
			<stop  offset="1" style="stop-color:#379614"/>
		</linearGradient>
		<linearGradient id="SVGID_16_" gradientUnits="userSpaceOnUse" x1="20.2337" y1="35.9612" x2="25.5027" y2="45.0875">
			<stop  offset="0" style="stop-color:#3C9B19"/>
			<stop  offset="0.9946" style="stop-color:#28780A"/>
		</linearGradient>
		<polygon class="st17" points="12.15,42.34 18.42,48.6 31.65,35.36 28.97,32.68 18.42,43.23 14.84,39.65 		"/>
	</g>
	<g>
		<polygon class="st18" points="12.15,42.34 18.42,48.6 31.65,35.36 28.97,32.68 18.42,43.23 14.84,39.65 		"/>
	</g>
</g>
<g>
	<linearGradient id="SVGID_17_" gradientUnits="userSpaceOnUse" x1="20.4837" y1="36.3942" x2="25.2527" y2="44.6545">
		<stop  offset="0" style="stop-color:#55B432"/>
		<stop  offset="1" style="stop-color:#379614"/>
	</linearGradient>
	<linearGradient id="SVGID_18_" gradientUnits="userSpaceOnUse" x1="20.2337" y1="35.9612" x2="25.5027" y2="45.0875">
		<stop  offset="0" style="stop-color:#3C9B19"/>
		<stop  offset="0.9946" style="stop-color:#28780A"/>
	</linearGradient>
	<polygon class="st19" points="12.15,42.34 18.42,48.6 31.65,35.36 28.97,32.68 18.42,43.23 14.84,39.65 	"/>
</g>
<linearGradient id="SVGID_19_" gradientUnits="userSpaceOnUse" x1="35.072" y1="6.5136" x2="47.7174" y2="28.4159">
	<stop  offset="0" style="stop-color:#83BEDC"/>
	<stop  offset="1" style="stop-color:#285A78"/>
</linearGradient>
<path class="st20" d="M24,15c0,0,5.44-3.13,10.5-2.5c8,1,11.5,8.5,11.5,8.5l-3.5,3.5h12v-12l-4,3c0,0-6-8-13-8C28.5,7.5,24,15,24,15
	z"/>
</svg>
