<svg id="Layer_10" data-name="Layer 10" xmlns="http://www.w3.org/2000/svg" xmlns:xlink="http://www.w3.org/1999/xlink" viewBox="0 0 64 64"><defs><linearGradient id="linear-gradient" x1="19.12" y1="11.89" x2="39.84" y2="47.78" gradientUnits="userSpaceOnUse"><stop offset="0" stop-color="#f5f6f6"/><stop offset="0.99" stop-color="#d2d3d3"/></linearGradient><linearGradient id="linear-gradient-2" x1="38.17" y1="48.39" x2="19.72" y2="16.43" gradientUnits="userSpaceOnUse"><stop offset="0" stop-color="#386f8d"/><stop offset="1" stop-color="#8dd7f4"/></linearGradient><linearGradient id="linear-gradient-4" x1="21.88" y1="44.28" x2="8.74" y2="21.52" gradientUnits="userSpaceOnUse"><stop offset="0" stop-color="#161616"/><stop offset="1" stop-color="#515151"/></linearGradient><linearGradient id="linear-gradient-5" x1="38.01" y1="30.23" x2="48.7" y2="48.73" xlink:href="#linear-gradient"/><linearGradient id="linear-gradient-6" x1="51.8" y1="39.87" x2="48.3" y2="33.8" xlink:href="#linear-gradient-2"/><linearGradient id="linear-gradient-7" x1="44.77" y1="44.17" x2="39" y2="34.17" gradientUnits="userSpaceOnUse"><stop offset="0" stop-color="#2a5b79"/><stop offset="1" stop-color="#84bedc"/></linearGradient><linearGradient id="linear-gradient-8" x1="47.47" y1="34.05" x2="44.87" y2="29.55" gradientUnits="userSpaceOnUse"><stop offset="0" stop-color="#74c4e2"/><stop offset="1" stop-color="#a4def6"/></linearGradient></defs><title>EngineeringBOMManagement2</title><rect x="9.5" y="11.5" width="39" height="35" stroke="#333332" stroke-linecap="round" stroke-linejoin="round" fill="url(#linear-gradient)"/><rect x="9.5" y="27.5" width="39" height="10" stroke="#053755" stroke-linecap="round" stroke-linejoin="round" fill="url(#linear-gradient-2)"/><rect x="22" y="18" width="1" height="28" fill="#9e9e9e"/><rect x="35" y="18" width="1" height="28" fill="#9e9e9e"/><rect x="35" y="27" width="1" height="11" fill="#053755"/><rect x="22" y="27" width="1" height="11" fill="#053755"/><rect x="9.5" y="11.5" width="39" height="7" stroke="#053755" stroke-linecap="round" stroke-linejoin="round" fill="url(#linear-gradient-2)"/><path d="M16.5,35h4a.5.5,0,0,0,.5-.5v-4a.5.5,0,0,0-.5-.5h-4a.5.5,0,0,0-.5.5V32H14V25h1.5a.5.5,0,0,0,.5-.5v-4a.5.5,0,0,0-.5-.5h-4a.5.5,0,0,0-.5.5v4a.5.5,0,0,0,.5.5H13V42.5a.5.5,0,0,0,.5.5H16v1.5a.5.5,0,0,0,.5.5h4a.5.5,0,0,0,.5-.5v-4a.5.5,0,0,0-.5-.5h-4a.5.5,0,0,0-.5.5V42H14V33h2v1.5A.5.5,0,0,0,16.5,35Z" fill-rule="evenodd" fill="url(#linear-gradient-4)"/><polygon points="30.5 46.5 30.5 31.5 39.5 26.5 54.5 29.5 54.5 44.5 45.5 52.5 30.5 46.5" fill="url(#linear-gradient-5)"/><polyline points="30.5 31.5 45.5 35.5 45.5 52.5" fill="none" stroke="#787878" stroke-linecap="round" stroke-linejoin="round"/><polygon points="54.5 37 45.5 44 45.5 35.5 54.5 29.5 54.5 37" stroke="#053755" stroke-linecap="round" stroke-linejoin="round" fill="url(#linear-gradient-6)"/><polygon points="37.5 41.5 45.5 44 45.5 35.5 37.5 33.5 37.5 41.5" stroke="#053755" stroke-linecap="round" stroke-linejoin="round" fill="url(#linear-gradient-7)"/><polygon points="37.5 33.5 45.5 35.5 54.5 29.5 46.35 27.87 37.5 33.5" stroke="#053755" stroke-linecap="round" stroke-linejoin="round" fill="url(#linear-gradient-8)"/><polygon points="30.5 46.5 30.5 31.5 39.5 26.5 54.5 29.5 54.5 44.5 45.5 52.5 30.5 46.5" fill="none" stroke="#333332" stroke-linecap="round" stroke-linejoin="round"/></svg>