<?xml version="1.0" encoding="utf-8"?>
<!-- Generator: Adobe Illustrator 25.2.3, SVG Export Plug-In . SVG Version: 6.00 Build 0)  -->
<svg version="1.1" id="Layer_1" xmlns="http://www.w3.org/2000/svg" xmlns:xlink="http://www.w3.org/1999/xlink" x="0px" y="0px"
	 viewBox="0 0 64 64" style="enable-background:new 0 0 64 64;" xml:space="preserve">
<style type="text/css">
	
		.Blue_x0020_RIGHT_x002C__x0020_FRONT_x0020__x0026__x0020_SINGLE_x0020_2{fill:url(#SVGID_1_);stroke:#053755;stroke-linejoin:round;stroke-miterlimit:10;}
	.White_x0020_SINGLE_x0020_3{fill:url(#SVGID_2_);stroke:#323232;stroke-linejoin:round;stroke-miterlimit:10;}
	.SKETCH_x0020_Blue_x0020_Fill{fill:url(#SVGID_3_);}
	.De_x002D_emphasized_x0020_GREY_x0020_flat_x0020_fill{opacity:0.5;fill:#656565;}
	.st0{fill:#333232;}
	.st1{fill:url(#SVGID_4_);stroke:#053755;stroke-linejoin:round;stroke-miterlimit:10;}
	.st2{fill:url(#SVGID_5_);stroke:#323232;stroke-linejoin:round;stroke-miterlimit:10;}
	.st3{fill:url(#SVGID_6_);stroke:#323232;stroke-linejoin:round;stroke-miterlimit:10;}
	.st4{fill:url(#SVGID_7_);}
	.st5{fill:url(#SVGID_8_);}
	.st6{opacity:0.2;fill:#FFFFFF;}
</style>
<linearGradient id="SVGID_1_" gradientUnits="userSpaceOnUse" x1="0" y1="0" x2="0.5" y2="0.866">
	<stop  offset="0" style="stop-color:#8DD7F4"/>
	<stop  offset="1" style="stop-color:#386E8C"/>
</linearGradient>
<linearGradient id="SVGID_2_" gradientUnits="userSpaceOnUse" x1="0" y1="0" x2="0.5" y2="0.866">
	<stop  offset="0" style="stop-color:#FFFFFF"/>
	<stop  offset="1" style="stop-color:#D4D5D3"/>
</linearGradient>
<linearGradient id="SVGID_3_" gradientUnits="userSpaceOnUse" x1="0" y1="0" x2="0.5" y2="0.866">
	<stop  offset="0" style="stop-color:#3388B0"/>
	<stop  offset="1" style="stop-color:#285B79"/>
</linearGradient>
<rect x="22" y="17" class="st0" width="19" height="3"/>
<path class="st0" d="M31,19v24.89c0,2.27,1.84,4.11,4.11,4.11H48v-3H36c-1.34,0-2.03-1.09-2.03-2.42L34,19H31z"/>
<linearGradient id="SVGID_4_" gradientUnits="userSpaceOnUse" x1="8.1299" y1="9.1363" x2="24.8701" y2="38.1312">
	<stop  offset="0" style="stop-color:#8DD7F4"/>
	<stop  offset="1" style="stop-color:#386E8C"/>
</linearGradient>
<polygon class="st1" points="25.5,37.77 16.5,30.5 7.5,37.77 7.5,9.5 25.5,9.5 "/>
<linearGradient id="SVGID_5_" gradientUnits="userSpaceOnUse" x1="40.1928" y1="9.1" x2="50.8072" y2="27.4848">
	<stop  offset="0" style="stop-color:#FFFFFF"/>
	<stop  offset="1" style="stop-color:#D4D5D3"/>
</linearGradient>
<polygon class="st2" points="51.5,27.08 45.5,22.5 39.5,27.08 39.5,9.5 51.5,9.5 "/>
<linearGradient id="SVGID_6_" gradientUnits="userSpaceOnUse" x1="45.1928" y1="37.1" x2="55.8072" y2="55.4848">
	<stop  offset="0" style="stop-color:#FFFFFF"/>
	<stop  offset="1" style="stop-color:#D4D5D3"/>
</linearGradient>
<polygon class="st3" points="56.5,55.08 50.5,50.5 44.5,55.08 44.5,37.5 56.5,37.5 "/>
<polygon class="De_x002D_emphasized_x0020_GREY_x0020_flat_x0020_fill" points="49.99,25.31 49,24.57 49,10 50,10 "/>
<g>
	<linearGradient id="SVGID_7_" gradientUnits="userSpaceOnUse" x1="4.9412" y1="12.9207" x2="15.812" y2="31.7494">
		<stop  offset="0" style="stop-color:#3388B0"/>
		<stop  offset="1" style="stop-color:#285B79"/>
	</linearGradient>
	<polygon class="st4" points="11.01,34.3 10,35.1 10,10 11,10 	"/>
</g>
<g>
	<linearGradient id="SVGID_8_" gradientUnits="userSpaceOnUse" x1="17.1113" y1="12.8225" x2="28.2237" y2="32.0696">
		<stop  offset="0" style="stop-color:#3388B0"/>
		<stop  offset="1" style="stop-color:#285B79"/>
	</linearGradient>
	<polygon class="st5" points="22.99,35.09 21.99,34.3 22,10 23,10 	"/>
</g>
<path class="st6" d="M8,9.96V12c0-0.56,0.24-1.02,0.53-1.02h15.94c0.29,0,0.53,0.46,0.53,1.02V9.96H8z"/>
<polygon class="De_x002D_emphasized_x0020_GREY_x0020_flat_x0020_fill" points="42,24.55 41,25.31 41,10 42,10 "/>
<rect x="40" y="10" class="st6" width="11" height="1"/>
<polygon class="De_x002D_emphasized_x0020_GREY_x0020_flat_x0020_fill" points="54.99,53.31 54,52.57 54,38 55,38 "/>
<polygon class="De_x002D_emphasized_x0020_GREY_x0020_flat_x0020_fill" points="47,52.55 46,53.31 46,38 47,38 "/>
<rect x="45" y="38" class="st6" width="11" height="1"/>
</svg>
