<?xml version="1.0" encoding="utf-8"?>
<!-- Generator: Adobe Illustrator 24.0.0, SVG Export Plug-In . SVG Version: 6.00 Build 0)  -->
<svg version="1.1" id="Layer_1" xmlns="http://www.w3.org/2000/svg" xmlns:xlink="http://www.w3.org/1999/xlink" x="0px" y="0px"
	 viewBox="0 0 64 64" style="enable-background:new 0 0 64 64;" xml:space="preserve">
<style type="text/css">
	.st0{fill:url(#SVGID_1_);stroke:#053755;stroke-linejoin:round;stroke-miterlimit:10;}
	.st1{fill:url(#SVGID_2_);stroke:#053755;stroke-linejoin:round;stroke-miterlimit:10;}
	.st2{fill:none;stroke:#053755;stroke-linejoin:round;stroke-miterlimit:10;}
	.st3{fill:url(#SVGID_3_);stroke:#053755;stroke-linejoin:round;stroke-miterlimit:10;}
	.st4{fill:url(#SVGID_4_);}
</style>
<g>
	
		<linearGradient id="SVGID_1_" gradientUnits="userSpaceOnUse" x1="15.3999" y1="10.1356" x2="38.4037" y2="49.9793" gradientTransform="matrix(1 0 0 1 2.3945 -1.000000e-03)">
		<stop  offset="0" style="stop-color:#FFFFFF"/>
		<stop  offset="1" style="stop-color:#D4D5D3"/>
	</linearGradient>
	<path class="st0" d="M52.3,30.1c0-12.7-10.3-23-23-23c-12.7,0-23,10.3-23,23c0,12.7,10.3,23,23,23C42,53.1,52.3,42.8,52.3,30.1z"/>
	<linearGradient id="SVGID_2_" gradientUnits="userSpaceOnUse" x1="17.7335" y1="10.2214" x2="39.2272" y2="47.4496">
		<stop  offset="0" style="stop-color:#8DD7F4"/>
		<stop  offset="1" style="stop-color:#386E8C"/>
	</linearGradient>
	<path class="st1" d="M46.8,15.6c-0.2,0.4-0.5,0.9-0.7,1.2c-0.4,0.6-0.9,0.8-1.3,1.1c-0.3,0.4-0.6,0.4-1,0.6c-0.4,0.3-0.6,0.3-1,0.4
		c-0.4,0.1-0.8,0.4-1,0.6c-0.3,0.2-0.5,0.5-0.9,0.8c-0.4,0.3-0.8,0.3-1.3,0.1c-0.5-0.2-0.2-0.9,0-1c0.2-0.1,0.6,0,0.8,0
		c0.2,0,0.7,0,1,0c0.3-0.1,0.5-0.4,0.5-0.5c0-0.1-0.7-0.4-0.9-0.5c-0.2-0.1-1.9-0.2-2.2-0.3c-0.3-0.1-1.2-0.1-1.4,0
		c-0.2,0-0.2-0.2-0.9-0.1c-0.8,0.1-1.2,0.5-2.2,1c-1.2,0.6-1.9,1.4-2.1,1.6c-0.2,0.3-1.2,0.6-1.8,0.7c-0.6,0.1-0.6,0.6-0.5,0.8
		c0.1,0.3-0.3,0.3-0.1,0.7c0.2,0.4,0.9,0.1,1.2-0.1c0.3-0.1,0.2-0.1,0.5,0.2c0.3,0.2,0.2,0.3,0.5,0.8c0.3,0.4,0.9,0.1,1.1,0
		c0.2-0.2,0.2-0.8,0.5-0.8c0.3,0,0.4-0.3,0.3-0.6c0-0.2-0.3-0.2-0.2-0.5c0.1-0.3,1.6-1.7,1.8-1.7c0.2-0.1,0.5-0.3,0.7-0.1
		c0.2,0.2,0.2,0.3,0,0.6C36.2,21,36,21,35.6,21.2c-0.4,0.2-0.4,0.4-0.4,0.8c0,0.4,0.1,0.3,0.4,0.3c0.3,0.1,1.1-0.2,1.3-0.3
		c0.2-0.1,0.5,0,0.6,0.1c0.1,0.1-0.2,0.5-0.4,0.5c-0.2,0-1.1,0-1.5,0.2c-0.4,0.1,0,0.2,0.1,0.4c0.1,0.2-0.3,0.3-0.7,0.4
		c-0.4,0-0.3,0.4-0.3,0.6c-0.1,0.2-0.3,0.4-0.5,0.5c-0.2,0.1-0.6-0.3-0.9-0.2c-0.2,0.1-1.5,0.2-1.8,0.2c-0.2,0-0.4-0.1-0.5-0.3
		c-0.1-0.2,0.1-0.4,0.1-0.6c0-0.3-0.2-0.3-0.5-0.1c-0.3,0.2,0,0.7,0.1,0.8c0,0.1-0.3,0.1-0.4,0.3C30.2,25,29.6,25,29.4,25
		c-0.2,0.1-0.2,0.5-0.5,0.6c-0.2,0.1-0.5,0.1-0.6,0c-0.1-0.1-0.3,0.1-0.4,0.2c-0.1,0.1-0.2,0.2-0.3,0.2c-0.1,0-0.6,0-0.7,0.1
		c-0.1,0.1-0.2,0.2-0.4,0.2c-0.2,0-0.3,0-0.5,0.1c-0.2,0.1,0.2,0.3,0.2,0.3s0.7,0.1,0.7,0.4c0,0.3,0.1,0.8-0.2,0.9
		c-0.3,0.1-1.9-0.2-2.2-0.3c-0.3-0.1-0.5,0.3-0.4,0.4c0.1,0.1,0.3,0.8,0.2,1c-0.1,0.2-0.5,0.8-0.2,1c0.3,0.1,0.8,0,0.8,0.1
		c0,0.1,0.3,0.5,0.5,0.4c0.2-0.1,1.4-0.7,1.5-0.9c0.1-0.2,0-0.6,0.2-0.6c0.2,0,0.8,0,0.9-0.2c0.1-0.2-0.2-0.3,0.1-0.4
		c0.3-0.1,0.6-0.3,0.7-0.1c0.2,0.2,0.4,0.3,0.5,0c0.1-0.2,0.8-0.1,0.9,0c0.2,0.1,1.9,1.4,1.9,1.6c0,0.2-0.2,0.4-0.3,0.4
		c-0.1,0,0.1,0.2,0.1,0.2s0.6-0.3,0.6-0.7c0,0,0-0.2,0.1-0.2c0.1,0,0.2,0.1,0.2,0.1s-0.2-0.4-0.5-0.4c-0.3,0-0.3-0.4-0.5-0.4
		c-0.2-0.1,0.1-0.2-0.2-0.5c-0.3-0.3-0.4-0.3-0.3-0.3c0.1,0,0.5-0.1,0.6,0.1c0.1,0.1,1.3,0.7,1.4,1.1c0.1,0.4,0.1,0.5,0.1,0.6
		c0.1,0.1,0.3,0.1,0.3,0.3c0,0.2-0.1,0.7,0.2,0.7c0.3,0,0.5-0.2,0.7-0.2c0.2,0,0.6,0,0.4-0.2c-0.2-0.2-0.7-0.3-0.6-0.3
		c0.1-0.1,0.2-0.4,0.4-0.4c0.2,0,0.6,0,0.6,0c0,0.1,0,0.2,0.1,0.4c0.1,0.3,0,0.4,0.4,0.6c0.4,0.2,0.8,0.3,0.9,0.1
		c0.1-0.1,0.2-0.4,0.5-0.2c0.3,0.1,0.5,0.1,0.7,0c0.2-0.1,0.5-0.2,0.5-0.1c0.1,0.1,0,0.4-0.1,0.6c-0.1,0.2,0,0.6-0.3,0.9
		c-0.2,0.2-0.5,0.6-0.7,0.7c-0.2,0.1-0.4,0.2-1,0.1c-0.6-0.1-1.2,0-1.8-0.3c-0.6-0.3-0.5-0.1-0.7-0.4c-0.1-0.2-0.7,0.1-0.8,0.2
		c-0.1,0.2,0,0.7-0.4,0.6c-0.4-0.1-1.1-0.2-1.3-0.5c-0.2-0.3-0.2-0.4-0.6-0.4c-0.3,0-0.8-0.1-0.8-0.5c0.1-0.4,0.6-0.8,0.2-1
		c-0.4-0.1-3.1-0.2-4,0.1c-0.9,0.3-0.9,0.1-1.1,0.1c-0.2-0.1-0.4,0.2-0.6,0.3c0,0-0.5,0-0.7,0.2c-0.2,0.2-0.5,1-0.8,1.2
		c-0.3,0.1-1.3,1-1.7,1.4s-0.3,0.8-0.2,1.2c0.1,0.4,0,1-0.2,1.6c-0.2,0.6,0,0.7,0.5,1.3c0.5,0.6,1.4,1.5,1.5,1.8
		c0.1,0.3,0.2,0.3,0.7,0.2c0.5,0,0.8-0.1,1.1,0.1c0.3,0.2,0.8,0.2,1,0c0.1-0.1,0.8-0.4,1-0.2c0.3,0.2,0.7,0.5,1,0.6
		c0.3,0.1,0.7,0,0.7,0.3c0.1,0.3,0.1,0.5,0,0.7c-0.2,0.2,0.2,0.8,0.5,1.4c0,0,0.4,0.5,0.4,0.8c0,0.3-0.1,0.5,0,0.7
		c0.1,0.1,0.2,0.3,0.1,0.5c-0.2,0.2-0.7,1-0.6,1.3c0.1,0.3,0.7,0.9,0.8,1.2c0.1,0.3,0.1,0.9,0.3,1.1c0.3,0.2,0.5,0.3,0.6,0.6
		c0,0.3,0.3,0.3,0.9,0.3c0.6,0,1.8-0.2,2.4-0.5c0.5-0.3,0.4-0.3,0.7-0.6c0.3-0.2,0.7-0.5,0.8-0.9c0.1-0.4,0.7,0,0.8-0.1
		c0.1-0.2-0.3-0.9,0.3-1.2c0.5-0.3,1.8-0.4,1.6-1.5c-0.2-1-0.2-1.4,0.1-1.8c0.3-0.3,1.2-0.7,1.3-1.1c0.1-0.4,1-0.7,2-1.9
		c1-1.1,1.2-2.5,0.7-2.3c-0.5,0.1-1.3,1-2.2,0.9c-0.9-0.1,0.4-0.2-0.2-0.5c-0.5-0.3-1.1-1.1-1.6-2.5c-0.5-1.4-1.1-1.8-0.6-1.9
		c0.4-0.1,0.7,0.4,0.9,0.9c0.2,0.5,0.3,0.8,0.4,1.3c0,0,0,0.1,0.4,0.2c0.4,0.1,0.3,0.4,0.4,0.6c0,0.2,0.2,0.6,0.2,0.7
		c0,0.1,0.1,0.7,0.2,0.7c0.1,0,0.9-0.2,1.2-0.4c0.3-0.2,1.1-0.8,1.4-0.8c0.3,0,0.2-0.2,0.4-0.3c0.2-0.1,0.7-0.1,1.3-0.8
		c0,0,0.1-0.3,0.6-0.7c0.5-0.3,0.9-1.2,0.6-1.2c-0.3,0-0.8,0.1-0.8-0.1c0-0.3,0-0.3-0.2-0.2c-0.1,0.1-0.1,0.5-0.4,0.6
		c-0.3,0.1-0.8,0.2-0.9,0c-0.1-0.2-0.1-0.5-0.5-0.6c-0.4-0.1-0.4-0.2-0.4-0.5c0-0.3,0.1-0.7,0.2-0.6c0.2,0.1,0.4,0.5,0.8,0.6
		c0.4,0.1,0.7,0.3,1.1,0.2c0.4-0.1,0.2-0.2,0.7-0.1c0.4,0.1,0.7,0.1,0.9-0.1c0.2-0.2,0.4-0.1,0.8-0.2c0.4-0.1,1.2-0.1,1.3-0.1
		c0.2,0,0.5,0.5,0.7,0.4c0.2-0.1,0.4,0.3,0.4,0.4c0,0-0.1,0.6,0.1,1c0.2,0.4,0.4,0.5,0.4,0.8c0,0.3,0.1,0.5,0.2,0.5
		c0.1,0,0.7-1,0.8-1.6c0.1-0.6,0.2-1.2,0.4-1.5c0.2-0.3,0.8-1.5,1-2c0.1-0.2,0.1-0.4,0.1-0.6c0-0.1,0-0.2,0-0.3
		C52.3,24.6,50.2,19.5,46.8,15.6z M40.4,28.8c-0.3,0.3-0.2,0.5-0.8,0.4c-0.5-0.1-0.2,0.1-0.5-0.1c-0.3-0.2,0.2-0.3-0.4-0.2
		c-0.7,0.1-0.7,0.1-0.9,0.2c-0.2,0.1,0.1,0.3-0.5,0.4c-0.7,0.1-0.3,0.2-0.5-0.1c-0.2-0.3-0.3-0.3-0.3-0.5c0-0.3-0.3,0,0.1-0.5
		c0.4-0.5,0.1-0.4,0.4-0.6c0.4-0.2,0.1-0.5,0.5-0.2c0.4,0.2,0.5,0,0.7,0.4c0.2,0.4,0.2,0.2,0.4,0c0.2-0.2,0.1-0.3,0.4-0.5
		c0.3-0.2,0.3-0.3,0.4-0.3c0.1,0,0.5-0.1,0.5,0.1c0.1,0.2-0.5,0.4-0.5,0.5c0,0.1-0.4-0.1,0.3,0.3c0.7,0.4,0.8,0.2,0.8,0.4
		C40.5,28.8,40.6,28.6,40.4,28.8z M44.7,26.7c-0.1,0.4-0.4,0.3-0.6,0.4c-0.2,0.1-0.4,0.1-0.6,0.4c-0.2,0.3,0,0,0.5,0.4
		c0.5,0.4,0.4,0.2,0.5,0.5c0.1,0.3-0.4,0.2-0.1,0.5c0.4,0.4,0.1,0.9-0.6,1.1c-0.7,0.2-1-0.4-1-0.4s0-0.3,0.3-0.4
		c0.3-0.1-0.2-0.5-0.2-0.6c0-0.1-0.2-0.4-0.3-0.5c-0.1-0.2-0.6-0.1-0.7-0.6c-0.1-0.2,0.4-0.4,0.7-0.4c0.4,0,0.1-0.4,0.4-0.5
		c0.3-0.2,0.2-0.1,0.6-0.2c0.4-0.1,0.1-0.2,0.4-0.5c0.3-0.3,0.8,0.3,0.8,0.3S44.9,26.4,44.7,26.7z M38.8,46.5c0.4-0.2,0.6,0,0.4-0.3
		c-0.2-0.3-0.2-0.5-0.2-0.5s0.2-0.3,0.4-0.1c0.3,0.2,0.2,0,0.4-0.2c0.2-0.2,0.3-0.2,0.5-0.4c0.1-0.3,0.1-0.5,0.3-0.5
		c0.2,0,0.2-0.2,0.3,0.1c0,0.3,0.2,0.1,0,0.5c-0.2,0.4-0.3,0.8-0.4,0.8c0,0-0.2,0.8-0.3,1c-0.1,0.1-0.1,0.2-0.4,0.3
		c-0.3,0.1-0.5,0.4-0.8,0.3c-0.3-0.2-0.4-0.1-0.4-0.4C38.6,46.7,38.4,46.7,38.8,46.5z M50.9,35.9c-0.2-0.1-0.3-0.2-0.3-0.2
		s0.1-0.4,0.1-0.5c0,0,0.1-0.4,0.2-0.4c0.2,0,0.1,0,0.3,0c0.2,0.1,0.1,0.4,0,0.6C51.1,35.6,51.1,36,50.9,35.9z M13.3,43.4
		c-0.6,0-0.8,0.2-0.8,0.2s-0.1,0.5-0.3,0.4c-0.3-0.1-0.4-0.2-0.6-0.2c-0.1,0.1-0.2,0.1-0.2,0.1s-0.1,0.1-0.2,0.1
		c-2.6-3.3-4.3-7.3-4.7-11.7c0.2,0.1,0.3,0.1,0.3-0.1c0-0.4,0-0.7,0.1-1c0.1-0.3,0.1-0.4,0.2-0.4c0.2,0,0.6,0.2,0.6,0.2
		s0.1,0.4,0.3,0.8c0.2,0.3,0.5,0.5,0.7,0.8c0.3,0.3,0.1-0.5,0.6,0.4c0.6,1,0.2,0.5,0.4,1c0.2,0.5,0.2,0.6,0.9,1.2
		c0.7,0.6,1,1.2,1.3,1.9c0.2,0.7,0.6,0.6,1.2,1.3c0.6,0.6,0.6,0.6,1.1,1.1c0.4,0.5,0.9,0.7,1,1c0.1,0.3,0.5,0.3,0.2,0.7
		c-0.3,0.4-0.4,0.1-0.6,0.6c-0.3,0.5,0,0.3-0.3,0.8c-0.3,0.5-0.3,0.7-0.5,0.7C13.6,43.4,13.9,43.4,13.3,43.4z M24.2,12.8
		c-0.3,0.1-0.4,0.2-0.4,0.2s-0.1-0.1,0,0.2c0.1,0.2,0.2,0.3-0.1,0.5c-0.3,0.2-0.3-0.3-0.3,0.2c0,0.5,0.1,0.4,0,0.6
		c-0.1,0.1-0.1,0.1-0.4,0.4c-0.3,0.3-0.2-0.1-0.4,0.5c-0.3,0.6-0.1,0.4-0.2,0.8c-0.1,0.4,0,0.4-0.2,0.4c-0.2,0-0.5,0-0.5,0
		s-0.3,0-0.8,0.1c-0.4,0-0.7,0.3-1.2,0c-0.5-0.2-0.4,0-0.6-0.1c-0.2-0.1-0.1-0.3-0.3,0.1c-0.3,0.3,0,0.3-0.3,0.3
		c-0.3,0-0.6,0.2-1,0.1c-0.4-0.1-0.5-0.2-0.6,0c-0.1,0.3,0,0.1-0.1,0.3c-0.2,0.2-0.2-0.1-0.5,0.4c-0.3,0.4,0.2,0.6-0.3,0.7
		c-0.5,0.1-0.5,0.1-0.5,0.1s-0.4,0.1-0.6-0.3c-0.2-0.4,0.1,0-0.2-0.4c-0.3-0.4-0.3-0.6-0.3-0.9c0-0.3,0,0.2,0-0.6c0-0.7,0-0.5,0-0.9
		c0-0.4,0-0.3,0-0.7c0-0.4-0.2-0.4,0-0.8c0.2-0.4,0.4-0.3,0.5-0.7c0.1-0.4-0.1,0,0.1-0.4c0.1-0.4,0.1-0.2,0.2-0.5
		c0.1-0.3,0.2-0.1,0.1-0.3c0,0-0.1-0.1-0.1-0.2c2.1-1.5,4.4-2.7,6.9-3.5c-0.1,0.4-0.3,1.3,0.2,1.5c0.6,0.3,1.4,1.1,1.8,1.8
		c0,0,0.3,0.2,0.7,0.1c0.5-0.2,1.1,0.3,0.9,0.4c-0.2,0.1-0.7,0.2-1,0.2C24.5,12.3,24.5,12.6,24.2,12.8z M36.6,14.3
		c-0.3,0-0.3,0.1-0.2,0.2c0.1,0.1,0.3,0.1,0.5,0.1c0.1,0,0.7,0.1,0.4,0.3c0,0-0.1-0.3-0.4,0.1c-0.3,0.4,0,0.5-0.3,0.4
		c-0.3-0.1-0.4-0.4-0.7-0.5c-0.3-0.1-0.1-0.2-0.3-0.1c-0.2,0.1-0.2,0-0.4,0.3c-0.3,0.3-0.2,0.4-0.5,0.4c-0.3-0.1-0.7,0-0.6-0.2
		c0.1-0.2,0.2-0.3,0.3-0.4c0.1-0.1,0.1-0.1-0.2-0.1c-0.3,0-0.4,0.3-0.4,0.1c0-0.2-0.4,0,0.1-0.4c0.5-0.4,0.4-0.4,0.6-0.4
		c0.3,0,0.1,0.2,0.7,0c0.6-0.2,0.7-0.2,0.7-0.2s0.3-0.1,0.7,0c0.4,0.1,0.7,0,1-0.1c0.3-0.1,0.8-0.2,0.7-0.1
		c-0.1,0.1-0.1,0.6-0.4,0.6C37.5,14.2,36.9,14.3,36.6,14.3z M25.7,25.5c0.2,0,0.3-0.1,0.4-0.1c0.1,0,0.2-0.1,0.3-0.2
		c0.1-0.1-0.2-0.1-0.2-0.2c-0.1-0.1-0.1-0.1,0.1-0.3c0.1-0.2,0.2-0.1,0.4-0.1c0.2,0,0.2,0,0.2-0.2c0.1-0.1-0.1-0.3-0.1-0.3
		s-0.2-0.2-0.4-0.4c-0.1-0.2-0.2-0.3-0.2-0.5c-0.1-0.2,0-0.3,0-0.5c0-0.2,0.2-0.2,0.4-0.2c0.1,0,0.4,0,0.4,0.2
		c0,0.1,0.2,0.1,0.4,0.3c0.2,0.2,0.2,0.3-0.2,0.3c-0.4,0-0.3,0.1-0.3,0.3c0,0.2,0.1,0,0.3,0.3c0.2,0.2,0.2,0.2,0.2,0.4
		c0,0.2,0.1,0.2,0.2,0.4c0.1,0.3,0,0,0.3,0.2c0.2,0.2,0.3,0.1,0.3,0.3c0.1,0.2,0,0.2-0.2,0.2c-0.2,0-0.2,0.1-0.3,0.2
		c-0.1,0.1-0.1,0.2-0.4,0.2c-0.3,0-0.3-0.1-0.5-0.2c-0.2-0.1-0.3,0-0.5,0.2c-0.3,0.1-0.1,0.1-0.3,0.1C25.7,25.8,25.5,25.5,25.7,25.5
		z M24.5,24.6c0.1-0.3,0.2-0.4,0.4-0.5c0.1-0.1,0.2-0.4,0.5-0.3c0.3,0.1,0.3,0.1,0.4,0c0.1-0.1,0.1,0,0.1,0.1c0,0-0.1,0.2-0.1,0.4
		c-0.1,0.2-0.3,0.7-0.4,0.7c-0.2,0.1-0.4,0.2-0.5,0C24.7,24.9,24.4,24.8,24.5,24.6z M12.1,20.8c-0.3-0.2-0.1-0.1-0.4-0.3
		c-0.3-0.2,0,0.1-0.4-0.4c-0.3-0.4-0.6-0.7-0.6-0.7s-0.6-0.1-0.3,0.1C10.7,19.7,11,20,11,20s-0.2,0-0.2,0.4c0,0.4-0.2,0.2,0,0.6
		c0.2,0.4,0.3,0.5,0.3,0.5s0.1,0.2,0.2,0.2c0.1,0.1,0.4,0.4,0.3,0.5c-0.1,0.1-0.4,0.1-0.6,0.1c-0.2,0-0.2,0.2-0.4-0.2
		c-0.2-0.4,0-0.2-0.3-0.5c-0.3-0.2-0.4-0.3-0.5-0.3c-0.1,0-0.3-0.2-0.3,0.1c0,0.3,0,0.5,0,0.5s-0.6,0.2-0.7-0.2
		c-0.1-0.3-0.3-0.5-0.3-0.1c0,0.4,0.1,0.3,0,0.6c0,0.2,0.2,0.2,0,0.2c-0.2,0.1-0.1,0.2-0.4-0.1C8.1,22.4,8,22.4,8,22.3
		c1-2.7,2.6-5.2,4.6-7.3c-0.1,0.9-0.1,2.3-0.1,2.6c0,0.4,0.1,1.2,0.3,1.5c0.2,0.4,0.2,0.2,0.2,0.7c0,0.5,0,1.1-0.2,1.1
		c-0.2,0-0.4,0-0.3,0.2c0.1,0.2,0.5,0.2,0.5,0.4c0,0.1,0.3,0.4,0.2,0.8c-0.1,0.4,0.1,0.6-0.3,0.6c-0.4-0.1-0.6-0.2-0.8-0.5
		c-0.2-0.3-0.6-0.2-0.4-0.6c0.2-0.4,0.3-0.6,0.3-0.6S12.3,21.1,12.1,20.8z M22,19.7c0.1-0.2,0-0.2,0.1-0.3c0-0.2-0.1-0.1-0.3-0.2
		c-0.2-0.1-0.2-0.3-0.1-0.5c0.1-0.2,0.2-0.2,0.5-0.1c0.1,0,0,0,0.2,0.1c0.1,0.1,0.1,0,0.6,0.1c0.5,0,0.3,0,1,0.2
		c0.7,0.2,0.2,0.5,0.2,0.5s-0.1,0.2-0.2,0.3c-0.2,0.1-0.5,0.3-0.6,0.1c-0.2-0.2-0.8,0-0.8,0s-0.2,0.1-0.3,0.2
		C22,20.1,21.9,19.9,22,19.7z"/>
	<path class="st2" d="M52.3,30.1c0-12.7-10.3-23-23-23c-12.7,0-23,10.3-23,23c0,12.7,10.3,23,23,23C42,53.1,52.3,42.8,52.3,30.1z"/>
</g>
<g>
	<linearGradient id="SVGID_3_" gradientUnits="userSpaceOnUse" x1="35.4435" y1="23.7065" x2="51.7463" y2="51.9438">
		<stop  offset="0" style="stop-color:#FFFFFF"/>
		<stop  offset="1" style="stop-color:#F1F0F0"/>
	</linearGradient>
	<path class="st3" d="M56.5,27.1v17.7c0,0.9-0.2,1.8-0.6,2.6c-0.4,0.8-0.9,1.6-1.5,2.3c-0.6,0.7-1.4,1.3-2.2,1.9
		c-0.8,0.6-1.6,1.1-2.5,1.5c-2,1.1-4.2,2-6.7,2.7c-2.5-0.8-4.8-1.7-6.7-2.7c-0.8-0.5-1.7-1-2.5-1.5c-0.8-0.6-1.5-1.2-2.2-1.9
		c-0.6-0.7-1.1-1.4-1.5-2.3c-0.4-0.8-0.6-1.7-0.6-2.6V27.1L43,24.9L56.5,27.1z"/>
	<linearGradient id="SVGID_4_" gradientUnits="userSpaceOnUse" x1="36.7059" y1="26.5319" x2="50.1365" y2="49.7942">
		<stop  offset="0" style="stop-color:#8DD7F4"/>
		<stop  offset="1" style="stop-color:#386E8C"/>
	</linearGradient>
	<path class="st4" d="M32,29.2v15.3c0,1,0.4,2,1.1,2.9c0.8,0.9,1.7,1.7,2.8,2.4c1.1,0.7,2.3,1.4,3.6,1.9c1.3,0.5,2.4,1,3.4,1.3
		c1-0.3,2.1-0.7,3.4-1.3c1.3-0.5,2.5-1.2,3.6-1.9c1.1-0.7,2.1-1.5,2.8-2.4c0.8-0.9,1.1-1.9,1.1-2.9V29.2l-11-1.8L32,29.2z"/>
</g>
</svg>
