<svg id="Layer_3" data-name="Layer 3" xmlns="http://www.w3.org/2000/svg" xmlns:xlink="http://www.w3.org/1999/xlink" viewBox="0 0 64 64"><defs><style>.SINGLE-White-Item-5,.cls-1,.cls-2{stroke:#333332;}.\33 D-Blue-Front-Right,.\33 D-White-Front-Right,.\33 D-White-Left,.\33 D-White-Top,.SINGLE-White-Item-5,.cls-1,.cls-2{stroke-linecap:round;stroke-linejoin:round;}.cls-1{fill:url(#radial-gradient);}.\33 D-Blue-Front-Right{stroke:#053755;fill:url(#linear-gradient);}.\33 D-White-Front-Right,.\33 D-White-Left,.\33 D-White-Top{stroke:#797979;}.\33 D-White-Top{fill:url(#linear-gradient-2);}.\33 D-White-Front-Right{fill:url(#linear-gradient-3);}.\33 D-White-Left{fill:url(#linear-gradient-4);}.cls-2{fill:none;}.SINGLE-White-Item-5{fill:url(#linear-gradient-5);}.cls-3{fill:url(#linear-gradient-8);}.Error-Red-2{fill:url(#linear-gradient-9);}</style><radialGradient id="radial-gradient" cx="17.89" cy="20.3" r="20.23" gradientUnits="userSpaceOnUse"><stop offset="0" stop-color="#cfcfcf"/><stop offset="0.19" stop-color="#c1c1c1"/><stop offset="0.41" stop-color="#ababab"/><stop offset="0.61" stop-color="#898989"/><stop offset="0.86" stop-color="#5b5b5b"/></radialGradient><linearGradient id="linear-gradient" x1="33.84" y1="36.79" x2="22.37" y2="16.92" gradientUnits="userSpaceOnUse"><stop offset="0" stop-color="#386f8d"/><stop offset="1" stop-color="#8dd7f4"/></linearGradient><linearGradient id="linear-gradient-2" x1="38.52" y1="25.52" x2="46.99" y2="40.2" gradientUnits="userSpaceOnUse"><stop offset="0" stop-color="#fff"/><stop offset="1" stop-color="#f1f0f0"/></linearGradient><linearGradient id="linear-gradient-3" x1="48.53" y1="35.02" x2="54.74" y2="45.79" gradientUnits="userSpaceOnUse"><stop offset="0" stop-color="#fff"/><stop offset="1" stop-color="#d2d3d3"/></linearGradient><linearGradient id="linear-gradient-4" x1="31.91" y1="32.97" x2="42.73" y2="51.7" gradientUnits="userSpaceOnUse"><stop offset="0" stop-color="#f5f6f6"/><stop offset="0.99" stop-color="#bfbebe"/></linearGradient><linearGradient id="linear-gradient-5" x1="49.94" y1="12.06" x2="55.31" y2="21.37" gradientUnits="userSpaceOnUse"><stop offset="0" stop-color="#f5f6f6"/><stop offset="0.99" stop-color="#d2d3d3"/></linearGradient><linearGradient id="linear-gradient-8" x1="53.23" y1="12.98" x2="56.28" y2="18.26" gradientUnits="userSpaceOnUse"><stop offset="0" stop-color="#55b432"/><stop offset="1" stop-color="#379614"/></linearGradient><linearGradient id="linear-gradient-9" x1="49.41" y1="25.41" x2="55.83" y2="31.83" gradientUnits="userSpaceOnUse"><stop offset="0" stop-color="#fa3c05"/><stop offset="1" stop-color="#c81400"/></linearGradient></defs><circle class="cls-1" cx="21" cy="26" r="14.5"/><polygon class="3D-Blue-Front-Right" points="28.5 41.5 15.5 47.5 23.5 36.5 14.5 32.5 25.5 28.5 22.5 14.5 29.5 23.5 33.5 12.5 36.5 21.5 45.5 14.5 42.5 21.5 49.5 25 28.5 41.5"/><polygon class="3D-White-Top" points="28.5 31.47 41.19 21.5 57.5 27.84 57.5 33.73 45.72 42.8 28.5 38.72 28.5 31.47"/><polygon class="3D-White-Front-Right" points="57.5 27.84 45.5 38.5 45.5 52.5 57.5 40.53 57.5 27.84"/><polygon class="3D-White-Left" points="28.5 31.47 28.5 45.06 45.5 52.5 45.5 38.5 28.5 31.47"/><polygon class="cls-2" points="41.19 21.5 28.5 31.47 28.5 38.72 28.5 45.06 45.5 52.5 57.5 40.53 57.5 33.73 57.5 27.84 41.19 21.5"/><rect class="SINGLE-White-Item-5" x="47.5" y="11.5" width="10" height="10" rx="1"/><rect class="SINGLE-White-Item-5" x="47.5" y="23.5" width="10" height="10" rx="1"/><rect class="SINGLE-White-Item-5" x="47.5" y="35.5" width="10" height="10" rx="1"/><path class="cls-3" d="M53,20a1,1,0,0,1-.71-.29l-3-3a1,1,0,0,1,1.42-1.42L53,17.59l4.79-4.8a1,1,0,0,1,1.42,1.42l-5.5,5.5A1,1,0,0,1,53,20Z"/><path class="Error-Red-2" d="M53.91,28.5l1.8-1.79a1,1,0,0,0-1.42-1.42l-1.79,1.8-1.79-1.8a1,1,0,0,0-1.42,1.42l1.8,1.79-1.8,1.79a1,1,0,0,0,0,1.42,1,1,0,0,0,1.42,0l1.79-1.8,1.79,1.8a1,1,0,0,0,1.42,0,1,1,0,0,0,0-1.42Z"/></svg>