<svg xmlns="http://www.w3.org/2000/svg" xmlns:xlink="http://www.w3.org/1999/xlink" width="64" height="64" viewBox="0 0 64 64">
  <defs>
    <linearGradient id="a" x1="25.252" y1="18.095" x2="40.484" y2="44.477" gradientUnits="userSpaceOnUse">
      <stop offset="0" stop-color="#3287af"/>
      <stop offset="1" stop-color="#285a78"/>
    </linearGradient>
    <radialGradient id="d" cx="29.691" cy="19.285" r="12.344" gradientTransform="translate(2.675 32.191) rotate(-38.924) scale(0.976 0.421)" gradientUnits="userSpaceOnUse">
      <stop offset="0" stop-color="#fff"/>
      <stop offset="1" stop-color="#fff" stop-opacity="0"/>
    </radialGradient>
    <radialGradient id="e" cx="33.168" cy="27.709" r="10.692" gradientTransform="matrix(0.696, -0.684, 0.327, 0.333, 1.566, 42.003)" xlink:href="#d"/>
    <radialGradient id="f" cx="41.283" cy="36.936" r="14.804" gradientTransform="matrix(0.66, -0.752, 0.384, 0.337, -0.123, 55.528)" xlink:href="#d"/>
  </defs>
  <g>
    <line x1="21.264" y1="11" x2="40.939" y2="53" fill="none" stroke="#b4b6ba" stroke-miterlimit="10" stroke-dasharray="1 1"/>
    <g>
      <path d="M28.481,26.409c6.861-3.212,11.6-7.578,10.582-9.751s-7.4-1.33-14.266,1.882-11.6,7.578-10.583,9.751S21.619,29.621,28.481,26.409Zm-3.3-7.04c3.2-1.5,6.188-1.88,6.67-.851S30.132,21.6,26.93,23.1s-6.189,1.88-6.671.851S21.982,20.868,25.185,19.369Z" fill="url(#a)"/>
      <path d="M46.4,21.553c-.711-1.519-3.292-1.983-6.864-1.5A15.479,15.479,0,0,1,36.53,23.12a.214.214,0,0,1,.013.019c.75,1.6-2.166,4.549-6.511,6.583s-8.477,2.386-9.226.785a.155.155,0,0,1-.007-.023,15.47,15.47,0,0,1-4.286.345,16.3,16.3,0,0,0-2.367,2.625l-2.27-.907A2.471,2.471,0,0,0,12,31.809a2.528,2.528,0,1,0-.556,1.554l2.21.886a3.137,3.137,0,0,0-.382,2.814c1.392,2.974,9.937,1.912,19.086-2.371S47.8,24.526,46.4,21.553Z" fill="url(#a)"/>
      <path d="M54.5,24.805a2.524,2.524,0,1,0-1.521-.528l-.8,1.876a15.557,15.557,0,0,0-5.4-.378,20.111,20.111,0,0,1-4.172,4.311,1.645,1.645,0,0,1,.5.605c.963,2.058-2.891,5.9-8.609,8.574s-11.135,3.178-12.1,1.12a1.634,1.634,0,0,1-.143-.772,20.1,20.1,0,0,1-5.984.443c-2.988,3.077-4.351,5.988-3.389,8.044,1.981,4.231,13.043,3.235,24.708-2.226s19.515-13.318,17.534-17.55a3.9,3.9,0,0,0-2.085-1.858l.753-1.774A2.488,2.488,0,0,0,54.5,24.805Z" fill="url(#a)"/>
    </g>
    <g>
      <path d="M25.185,19.369c3.2-1.5,6.188-1.88,6.67-.851.317.676-.531,1.793-2.055,2.9.808.026,1.636.077,2.49.163a4.862,4.862,0,0,1,2.49,1.147c3.184-2.338,4.942-4.666,4.283-6.074-1.017-2.173-7.4-1.33-14.266,1.882a34.8,34.8,0,0,0-7.768,4.842,31.72,31.72,0,0,1,3.91-1.14A14.014,14.014,0,0,1,25.185,19.369Z" opacity="0.2" fill="url(#d)"/>
      <path d="M40.782,29.742c4.212-3.133,6.521-6.268,5.621-8.189-.711-1.519-3.292-1.983-6.864-1.5A15.479,15.479,0,0,1,36.53,23.12a.214.214,0,0,1,.013.019c.652,1.392-1.467,3.8-4.884,5.741A32.7,32.7,0,0,1,40.782,29.742Z" opacity="0.2" fill="url(#e)"/>
      <path d="M54.5,24.805a2.524,2.524,0,1,0-1.521-.528l-.8,1.876a15.557,15.557,0,0,0-5.4-.378,20.111,20.111,0,0,1-4.172,4.311,1.645,1.645,0,0,1,.5.605c.834,1.781-1.944,4.895-6.412,7.436,3.743-.641,9.877-1.369,13.211-.03,4.235-3.693,6.362-7.335,5.22-9.773a3.9,3.9,0,0,0-2.085-1.858l.753-1.774A2.488,2.488,0,0,0,54.5,24.805Z" opacity="0.2" fill="url(#f)"/>
    </g>
    <g opacity="0.6">
      <path d="M14.214,28.291c1.018,2.173,7.4,1.33,14.267-1.882,6.71-3.141,11.385-7.384,10.638-9.6-.627,2.342-4.885,5.846-10.638,8.539-6.862,3.212-13.249,4.055-14.267,1.882a1.545,1.545,0,0,1-.055-.148A1.743,1.743,0,0,0,14.214,28.291Z" fill="#003755"/>
      <path d="M32.358,33.629C23.209,37.912,14.664,38.974,13.272,36a1.927,1.927,0,0,1-.13-.393,2.321,2.321,0,0,0,.13,1.456c1.392,2.974,9.937,1.912,19.086-2.371,8.758-4.1,14.89-9.664,14.177-12.741C45.911,25.134,40.183,29.966,32.358,33.629Z" fill="#003755"/>
      <path d="M37.593,44.811c-11.665,5.461-22.727,6.457-24.708,2.226a3.207,3.207,0,0,1-.264-.908,3.526,3.526,0,0,0,.264,1.971c1.981,4.231,13.043,3.235,24.708-2.226,10.878-5.093,18.435-12.268,17.8-16.645C54.837,33.64,47.631,40.112,37.593,44.811Z" fill="#003755"/>
    </g>
    <circle cx="9.5" cy="31.809" r="1.5" fill="#fff"/>
    <circle cx="54.5" cy="22.305" r="1.5" fill="#fff"/>
  </g>
</svg>
