<svg id="Layer_11_copy" data-name="Layer 11 copy" xmlns="http://www.w3.org/2000/svg" xmlns:xlink="http://www.w3.org/1999/xlink" viewBox="0 0 64 64"><defs><linearGradient id="linear-gradient" x1="27.16" y1="12.79" x2="43.06" y2="40.32" gradientUnits="userSpaceOnUse"><stop offset="0" stop-color="#f5f6f6"/><stop offset="0.99" stop-color="#d2d3d3"/></linearGradient><linearGradient id="linear-gradient-2" x1="44.66" y1="48.94" x2="19.62" y2="5.56" gradientUnits="userSpaceOnUse"><stop offset="0" stop-color="#386f8d"/><stop offset="1" stop-color="#8dd7f4"/></linearGradient><linearGradient id="linear-gradient-3" x1="21.58" y1="25.98" x2="25.99" y2="25.98" gradientUnits="userSpaceOnUse"><stop offset="0" stop-color="#84bedc"/><stop offset="1" stop-color="#2a5b79"/></linearGradient><linearGradient id="linear-gradient-4" x1="20.16" y1="16.79" x2="36.06" y2="44.32" xlink:href="#linear-gradient"/><linearGradient id="linear-gradient-6" x1="14.58" y1="29.98" x2="18.99" y2="29.98" xlink:href="#linear-gradient-3"/><linearGradient id="linear-gradient-7" x1="13.16" y1="20.79" x2="29.06" y2="48.32" xlink:href="#linear-gradient"/><linearGradient id="linear-gradient-9" x1="7.58" y1="33.98" x2="11.99" y2="33.98" xlink:href="#linear-gradient-3"/><linearGradient id="linear-gradient-10" x1="30.29" y1="32.98" x2="42.08" y2="53.39" gradientUnits="userSpaceOnUse"><stop offset="0" stop-color="#f5f6f6"/><stop offset="0.99" stop-color="#bfbebe"/></linearGradient><linearGradient id="linear-gradient-11" x1="43.41" y1="36.04" x2="52.1" y2="51.11" gradientUnits="userSpaceOnUse"><stop offset="0" stop-color="#fff"/><stop offset="1" stop-color="#d2d3d3"/></linearGradient><linearGradient id="linear-gradient-13" x1="47.86" y1="37.88" x2="53.54" y2="47.72" xlink:href="#linear-gradient"/><linearGradient id="linear-gradient-14" x1="47.71" y1="42.13" x2="49.37" y2="45.01" xlink:href="#linear-gradient"/></defs><title>IP_Protection_Classification</title><polygon points="47.5 11.5 26.5 10.5 21.5 11.5 21.5 39.5 42.5 43.5 42.5 42.5 47.5 38.5 47.5 11.5" stroke="#003755" stroke-linecap="round" stroke-linejoin="round" fill="url(#linear-gradient)"/><polyline points="46.5 38 46.5 12.5 42.5 14.5" fill="none" stroke="#787878" stroke-linecap="square" stroke-linejoin="round"/><polygon points="21.5 39.5 21.5 11.5 42.5 14.5 42.5 43.5 21.5 39.5" stroke="#053755" stroke-linecap="round" stroke-linejoin="round" fill="url(#linear-gradient-2)"/><line x1="44.5" y1="14" x2="44.5" y2="39.5" fill="none" stroke="#787878" stroke-linecap="square" stroke-linejoin="round" opacity="0.38"/><polygon points="26.5 12.21 21.5 11.5 21.5 39.5 26.5 40.45 26.5 12.21" stroke="#053755" stroke-linecap="round" stroke-linejoin="round" fill="url(#linear-gradient-3)"/><polygon points="40.5 15.5 19.5 14.5 14.5 15.5 14.5 43.5 35.5 47.5 35.5 46.5 40.5 42.5 40.5 15.5" stroke="#003755" stroke-linecap="round" stroke-linejoin="round" fill="url(#linear-gradient-4)"/><polyline points="39.5 42 39.5 16.5 35.5 18.5" fill="none" stroke="#787878" stroke-linecap="square" stroke-linejoin="round"/><polygon points="14.5 43.5 14.5 15.5 35.5 18.5 35.5 47.5 14.5 43.5" stroke="#053755" stroke-linecap="round" stroke-linejoin="round" fill="url(#linear-gradient-2)"/><line x1="37.5" y1="18" x2="37.5" y2="43.5" fill="none" stroke="#787878" stroke-linecap="square" stroke-linejoin="round" opacity="0.38"/><polygon points="19.5 16.21 14.5 15.5 14.5 43.5 19.5 44.45 19.5 16.21" stroke="#053755" stroke-linecap="round" stroke-linejoin="round" fill="url(#linear-gradient-6)"/><polygon points="33.5 19.5 12.5 18.5 7.5 19.5 7.5 47.5 28.5 51.5 28.5 50.5 33.5 46.5 33.5 19.5" stroke="#003755" stroke-linecap="round" stroke-linejoin="round" fill="url(#linear-gradient-7)"/><polyline points="32.5 46 32.5 20.5 28.5 22.5" fill="none" stroke="#787878" stroke-linecap="square" stroke-linejoin="round"/><polygon points="7.5 47.5 7.5 19.5 28.5 22.5 28.5 51.5 7.5 47.5" stroke="#053755" stroke-linecap="round" stroke-linejoin="round" fill="url(#linear-gradient-2)"/><line x1="30.5" y1="22" x2="30.5" y2="47.5" fill="none" stroke="#787878" stroke-linecap="square" stroke-linejoin="round" opacity="0.38"/><polygon points="12.5 20.21 7.5 19.5 7.5 47.5 12.5 48.45 12.5 20.21" stroke="#053755" stroke-linecap="round" stroke-linejoin="round" fill="url(#linear-gradient-9)"/><polygon points="31.5 28.5 31.5 48.5 39.5 57.5 39.5 35.5 31.5 28.5" stroke="#797979" stroke-linecap="round" stroke-linejoin="round" fill="url(#linear-gradient-10)"/><polygon points="56.5 30.5 39.5 35.5 39.5 57.5 56.5 50.5 56.5 30.5" stroke="#797979" stroke-linecap="round" stroke-linejoin="round" fill="url(#linear-gradient-11)"/><polygon points="31.5 28.5 47.5 24.5 56.5 30.5 39.5 35.5 31.5 28.5" stroke="#797979" stroke-linecap="round" stroke-linejoin="round" fill="url(#linear-gradient-10)"/><polygon points="41.5 37.5 54.5 33.5 54.5 48.5 41.5 53.5 41.5 37.5" fill="none" stroke="#797979" stroke-linecap="round" stroke-linejoin="round"/><path d="M48.5,51.5a1,1,0,0,1-1-1V44.12l-5.45-2.73a1,1,0,0,1,.45-1.89,1,1,0,0,1,.45.11l5.35,2.67,5.49-5.49a1,1,0,0,1,1.42,0,1,1,0,0,1,0,1.42l-5.71,5.7V50.5A1,1,0,0,1,48.5,51.5Z" fill="url(#linear-gradient-13)"/><path d="M54.5,37a.47.47,0,0,1,.35.15.48.48,0,0,1,0,.7L49,43.71V50.5a.5.5,0,0,1-1,0V43.81L42.28,41a.5.5,0,0,1,.22-1,.54.54,0,0,1,.22,0l5.68,2.84,5.75-5.74A.47.47,0,0,1,54.5,37m0-1a1.5,1.5,0,0,0-1.06.44L48.2,41.67l-5-2.51A1.44,1.44,0,0,0,42.5,39a1.5,1.5,0,0,0-.67,2.84L47,44.43V50.5a1.5,1.5,0,0,0,3,0V44.12l5.56-5.56A1.5,1.5,0,0,0,54.5,36Z" fill="#333332"/><circle cx="48.5" cy="43.5" r="2" stroke="#333332" stroke-linecap="round" stroke-linejoin="round" fill="url(#linear-gradient-14)"/><polygon points="47.5 24.5 31.5 28.5 31.5 48.5 39.5 57.5 56.5 50.5 56.5 30.5 47.5 24.5" fill="none" stroke="#333332" stroke-linecap="round" stroke-linejoin="round"/></svg>