<?xml version="1.0" encoding="utf-8"?>
<!-- Generator: Adobe Illustrator 24.0.0, SVG Export Plug-In . SVG Version: 6.00 Build 0)  -->
<svg version="1.1" id="Layer_1" xmlns="http://www.w3.org/2000/svg" xmlns:xlink="http://www.w3.org/1999/xlink" x="0px" y="0px"
	 viewBox="0 0 64 64" style="enable-background:new 0 0 64 64;" xml:space="preserve">
<style type="text/css">
	.st0{fill:url(#SVGID_1_);stroke:#323232;stroke-linejoin:round;stroke-miterlimit:10;}
	.st1{fill:url(#SVGID_2_);stroke:#053755;stroke-linejoin:round;stroke-miterlimit:10;}
	.st2{fill:#FFFFFF;}
	.st3{fill:#053755;}
</style>
<linearGradient id="SVGID_1_" gradientUnits="userSpaceOnUse" x1="16.7311" y1="4.6745" x2="48.28" y2="59.3188">
	<stop  offset="0" style="stop-color:#F5F5F5"/>
	<stop  offset="1" style="stop-color:#BEBEBE"/>
</linearGradient>
<path class="st0" d="M53.9,8.5c1.2,0,2.2,0.5,3,1.6c0.4,0.6,0.6,1.3,0.6,2c0,5.7,0,34.1,0,39.8c0,0.7-0.2,1.4-0.6,2
	c-0.8,1.1-1.8,1.6-3,1.6l-42.9,0c-0.7,0-1.4-0.2-2-0.6c-1.1-0.8-1.6-1.8-1.6-3l0-39.8c0-0.7,0.2-1.4,0.6-2c0.8-1,1.8-1.6,3-1.6H53.9
	z"/>
<linearGradient id="SVGID_2_" gradientUnits="userSpaceOnUse" x1="19.9223" y1="10.2147" x2="45.0777" y2="53.7853">
	<stop  offset="0" style="stop-color:#8DD7F4"/>
	<stop  offset="1" style="stop-color:#386E8C"/>
</linearGradient>
<polygon class="st1" points="12.5,18.5 12.5,14.5 52.5,14.5 52.5,49.5 12.5,49.5 12.5,45.5 15.5,45.5 15.5,38.5 12.5,38.5 
	12.5,25.5 15.5,25.5 15.5,18.5 "/>
<path class="st2" d="M32,22.8v5.6c-0.8,0.4-1.7,1-2.3,1.9c-0.7,0.9-1,2-1,3.2c0,0.2,0,0.3,0,0.5c0,0.2,0,0.3,0.1,0.5l-4.9,2.9
	c-0.6,0.4-0.9,0.9-0.9,1.5c0,0.5,0.2,0.9,0.5,1.2c0.4,0.4,0.8,0.5,1.3,0.5c0.2,0,0.5-0.1,0.9-0.3l4.9-2.8c1,0.9,2.1,1.3,3.5,1.3
	c1.4,0,2.5-0.4,3.5-1.3l4.9,2.8c0.3,0.2,0.6,0.3,0.9,0.3c0.5,0,0.9-0.2,1.3-0.5c0.4-0.4,0.5-0.8,0.5-1.2c0-0.6-0.3-1.2-0.9-1.5
	l-4.9-2.9c0-0.2,0.1-0.3,0.1-0.5c0-0.2,0-0.3,0-0.5c0-1.2-0.3-2.2-1-3.2c-0.7-0.9-1.5-1.6-2.8-1.9l-0.1-5.6c0,0,0.1-1.8-1.7-1.8
	C31.9,20.9,32,22.8,32,22.8z"/>
<path class="st3" d="M34.1,30.4c0.8,0,1.6,0.3,2.2,0.9c0.6,0.6,0.9,1.4,0.9,2.2c0,0.8-0.3,1.6-0.9,2.2c-0.6,0.6-1.4,0.9-2.2,0.9
	c-0.8,0-1.6-0.3-2.2-0.9c-0.6-0.6-0.9-1.4-0.9-2.2c0-0.8,0.3-1.6,0.9-2.2C32.5,30.7,33.2,30.4,34.1,30.4z"/>
</svg>
