<svg id="Layer_1" data-name="Layer 1" xmlns="http://www.w3.org/2000/svg" xmlns:xlink="http://www.w3.org/1999/xlink" viewBox="0 0 64 64"><defs><style>.cls-1,.cls-2,.cls-3{stroke:#00425f;}.cls-1,.cls-2,.cls-3,.cls-4{stroke-linecap:round;stroke-linejoin:round;stroke-width:1.01px;}.cls-1{fill:url(#linear-gradient);}.cls-2{fill:url(#linear-gradient-2);}.cls-3{fill:url(#linear-gradient-3);}.cls-4{stroke:#323232;fill:url(#linear-gradient-4);}</style><linearGradient id="linear-gradient" x1="9.93" y1="18.52" x2="22.58" y2="55.73" gradientUnits="userSpaceOnUse"><stop offset="0" stop-color="#8bd6f4"/><stop offset="1" stop-color="#376e8c"/></linearGradient><linearGradient id="linear-gradient-2" x1="26.73" y1="18.52" x2="39.39" y2="55.73" xlink:href="#linear-gradient"/><linearGradient id="linear-gradient-3" x1="43.54" y1="18.52" x2="56.2" y2="55.73" xlink:href="#linear-gradient"/><linearGradient id="linear-gradient-4" x1="18.11" y1="10.03" x2="43.02" y2="53.19" gradientUnits="userSpaceOnUse"><stop offset="0" stop-color="#f5f5f5"/><stop offset="0.99" stop-color="#d2d2d2"/></linearGradient></defs><title>Collaborative Lifecycle Management</title><polygon class="cls-1" points="7.07 26.5 18.32 26.5 23.32 31.5 17.69 36.5 7.07 36.5 12.69 31.5 7.07 26.5"/><polygon class="cls-2" points="23.88 26.5 35.13 26.5 40.13 31.5 34.5 36.5 23.88 36.5 29.5 31.5 23.88 26.5"/><polygon class="cls-3" points="40.68 26.5 51.93 26.5 56.93 31.5 51.31 36.5 40.68 36.5 46.31 31.5 40.68 26.5"/><path class="cls-4" d="M52.5,11.29V24.5H39.29L43,20.84A15,15,0,0,0,15.79,24.5H8.39a22.19,22.19,0,0,1,39.75-8.85ZM13,47.35a22.31,22.31,0,0,0,18,9.16,21.78,21.78,0,0,0,21.88-18h-7.4a15.3,15.3,0,0,1-14.4,10.8,15,15,0,0,1-12.76-7.14L22,38.5H8.5V51.71Z"/></svg>