<svg id="Layer_11" data-name="Layer 11" xmlns="http://www.w3.org/2000/svg" xmlns:xlink="http://www.w3.org/1999/xlink" viewBox="0 0 64 64"><defs><style>.cls-1,.cls-4,.cls-5{fill:none;}.cls-2{fill:url(#white_left);}.cls-3{fill:url(#white_front_right);}.cls-4,.cls-5{stroke:#000;stroke-miterlimit:10;}.cls-4{stroke-linecap:round;}.cls-6{clip-path:url(#clip-path);}.cls-7{fill:url(#linear-gradient);}.cls-8{fill:#003755;}.cls-9{fill:#aadcfa;}</style><linearGradient id="white_left" x1="12.5" y1="47.06" x2="51.88" y2="47.06" gradientUnits="userSpaceOnUse"><stop offset="0" stop-color="#f5f5f5"/><stop offset="1" stop-color="#bebebe"/></linearGradient><linearGradient id="white_front_right" x1="11.69" y1="18.03" x2="51.5" y2="18.03" gradientUnits="userSpaceOnUse"><stop offset="0" stop-color="#fff"/><stop offset="1" stop-color="#d2d2d2"/></linearGradient><clipPath id="clip-path"><polygon id="contour" class="cls-1" points="39 33.37 34.42 37.99 27 37.99 27 36.61 29.93 32.62 29.93 32.31 27 28.33 27 27 34.45 27 39 31.53 39 33.37"/></clipPath><linearGradient id="linear-gradient" x1="28.55" y1="26.87" x2="34.55" y2="37.26" gradientUnits="userSpaceOnUse"><stop offset="0" stop-color="#8cd7f5"/><stop offset="1" stop-color="#376e8c"/></linearGradient></defs><title>aaaaaa_A33AAe__R21X00008_I_SafetyAreaTemplate_Appicon</title><g id="contour_copy" data-name="contour copy"><path id="fond_Gris" data-name="fond Gris" class="cls-2" d="M51.88,39.56s-4.71,15-19.71,15C19.17,54.56,16,47.1,16,47.1L12.5,50.56v-11h12L21,43.1s1.21,5.46,11.21,5.46c9.33,0,13.32-9,13.32-9Z"/><path id="fond_Gris_2" data-name="fond Gris 2" class="cls-3" d="M11.69,25.56S15.75,10.49,31.5,10.49C43.5,10.49,48,18,48,18l3.46-3.44v11h-12L43,22S41.5,16.49,31.5,16.49s-13.56,9.07-13.56,9.07Z"/><path class="cls-4" d="M51.88,39.56s-4.79,15-19.71,15C19.17,54.56,16,47.1,16,47.1L12.5,50.56v-11h12L21,43.1s1.21,5.46,11.21,5.46c9.29,0,13.32-9,13.32-9Z"/><path class="cls-5" d="M11.69,25.56s4-15.13,19.81-15.07C43.5,10.54,48,18,48,18l3.46-3.44v11h-12L43,22S41.5,16.49,31.5,16.49s-13.56,9.07-13.56,9.07Z"/></g><g class="cls-6"><polygon class="cls-7" points="27.54 37.46 27.54 36.51 30.43 32.79 30.43 32.13 27.54 28.43 27.54 27.46 34.23 27.46 38.5 31.75 38.5 33.17 34.21 37.46 27.54 37.46"/><path class="cls-8" d="M34,28l4,4v1l-4,4H28v-.28L30.93,33V32L28,28.26V28h6m.42-1H27V28.6l.21.28,2.68,3.42v.32l-2.68,3.45-.21.27V38h7.37l.3-.29,4-4,.29-.3V31.55l-.29-.3-4-4L34.44,27Z"/><polygon class="cls-9" points="35.02 28.97 28.58 28.97 28.05 28.27 28.05 27.96 34.02 27.96 35.02 28.97"/></g></svg>