<svg id="version_1_X_copy" data-name="version 1 X copy" xmlns="http://www.w3.org/2000/svg" xmlns:xlink="http://www.w3.org/1999/xlink" viewBox="0 0 64 64"><defs><style>.cls-1,.cls-6,.cls-7,.cls-8,.cls-9{stroke:#00425f;}.cls-1,.cls-12,.cls-13,.cls-2,.cls-3,.cls-4,.cls-5,.cls-6,.cls-7,.cls-8,.cls-9{stroke-linecap:round;}.cls-1,.cls-12,.cls-13,.cls-15,.cls-2,.cls-3,.cls-4,.cls-5,.cls-6,.cls-7,.cls-8,.cls-9{stroke-linejoin:round;}.cls-1{fill:url(#linear-gradient);}.cls-2,.cls-3,.cls-4,.cls-5{stroke:#797979;}.cls-2{fill:url(#linear-gradient-2);}.cls-3{fill:url(#linear-gradient-3);}.cls-4{fill:url(#top_white);}.cls-5{fill:url(#top_white-2);}.cls-6{fill:url(#linear-gradient-4);}.cls-7{fill:url(#linear-gradient-5);}.cls-8{fill:url(#linear-gradient-6);}.cls-9{fill:url(#linear-gradient-7);}.cls-10{fill:#fff;}.cls-11,.cls-16,.cls-23{fill:#323232;}.cls-11{stroke:#323232;}.cls-11,.cls-16{stroke-miterlimit:10;}.cls-12,.cls-13,.cls-15,.cls-16{stroke:#000;}.cls-12{fill:url(#linear-gradient-8);}.cls-13,.cls-15{fill:none;}.cls-13{stroke-width:0.57px;}.cls-14{fill:url(#linear-gradient-9);}.cls-15,.cls-16{stroke-width:1.42px;}.cls-17{fill:url(#linear-gradient-10);}.cls-18{fill:url(#linear-gradient-11);}.cls-19{fill:#f1f0f0;}.cls-20{fill:url(#top_white-3);}.cls-21{fill:url(#linear-gradient-12);}.cls-22{fill:url(#linear-gradient-13);}.cls-24{fill:#797979;}.cls-25{fill:url(#linear-gradient-14);}</style><linearGradient id="linear-gradient" x1="15.15" y1="38.2" x2="-0.18" y2="57.81" gradientUnits="userSpaceOnUse"><stop offset="0" stop-color="#275a78"/><stop offset="0.65" stop-color="#82bddc"/><stop offset="1" stop-color="#275a78"/></linearGradient><linearGradient id="linear-gradient-2" x1="15.34" y1="22.28" x2="6.76" y2="22.28" gradientUnits="userSpaceOnUse"><stop offset="0" stop-color="#bebdbd"/><stop offset="0.63" stop-color="#f4f5f5"/><stop offset="1" stop-color="#bebdbd"/></linearGradient><linearGradient id="linear-gradient-3" x1="23.03" y1="18.59" x2="15.34" y2="18.59" xlink:href="#linear-gradient-2"/><linearGradient id="top_white" x1="18.37" y1="9.78" x2="19.96" y2="12.55" gradientUnits="userSpaceOnUse"><stop offset="0" stop-color="#fff"/><stop offset="1" stop-color="#f0f0f0"/></linearGradient><linearGradient id="top_white-2" x1="10.11" y1="10.84" x2="11.71" y2="13.61" xlink:href="#top_white"/><linearGradient id="linear-gradient-4" x1="21.28" y1="28.15" x2="40.88" y2="28.15" gradientUnits="userSpaceOnUse"><stop offset="0" stop-color="#a2ddf7"/><stop offset="0.99" stop-color="#73c3e1"/></linearGradient><linearGradient id="linear-gradient-5" x1="14.48" y1="30.36" x2="34.45" y2="30.36" xlink:href="#linear-gradient-4"/><linearGradient id="linear-gradient-6" x1="5.87" y1="32.58" x2="27.35" y2="32.58" xlink:href="#linear-gradient-4"/><linearGradient id="linear-gradient-7" x1="24.74" y1="23.72" x2="41.49" y2="72.96" gradientUnits="userSpaceOnUse"><stop offset="0" stop-color="#8bd6f4"/><stop offset="1" stop-color="#376e8c"/></linearGradient><linearGradient id="linear-gradient-8" x1="34.4" y1="12.43" x2="46.85" y2="34.01" gradientTransform="matrix(0.99, 0.15, -0.15, 0.99, 3.48, -5.77)" gradientUnits="userSpaceOnUse"><stop offset="0" stop-color="#fff"/><stop offset="1" stop-color="#d2d2d2"/></linearGradient><linearGradient id="linear-gradient-9" x1="34.4" y1="12.44" x2="46.85" y2="34.01" xlink:href="#linear-gradient-8"/><linearGradient id="linear-gradient-10" x1="-9199.32" y1="-8165.03" x2="-9200.07" y2="-8164.14" gradientTransform="matrix(0.78, 0.19, -0.52, 1.15, 2972.86, 11188.47)" gradientUnits="userSpaceOnUse"><stop offset="0" stop-color="#fff"/><stop offset="0.24" stop-color="#fcfcfc"/><stop offset="0.43" stop-color="#f2f2f2"/><stop offset="0.46" stop-color="#f0f0f0"/></linearGradient><linearGradient id="linear-gradient-11" x1="-9200.01" y1="-8164.24" x2="-9199.23" y2="-8162.9" gradientTransform="matrix(0.78, 0.19, -0.52, 1.15, 2972.86, 11188.47)" xlink:href="#linear-gradient-8"/><linearGradient id="top_white-3" x1="-9201.12" y1="-8166.52" x2="-9196.78" y2="-8166.52" gradientTransform="matrix(0.78, 0.19, -0.52, 1.15, 2972.86, 11188.47)" xlink:href="#top_white"/><linearGradient id="linear-gradient-12" x1="-9199.95" y1="-8165.44" x2="-9200.85" y2="-8163.87" gradientTransform="matrix(0.78, 0.19, -0.52, 1.15, 2972.86, 11188.47)" gradientUnits="userSpaceOnUse"><stop offset="0.16" stop-color="#f5f5f5"/><stop offset="0.27" stop-color="#e7e7e7"/><stop offset="0.48" stop-color="#c1c1c1"/><stop offset="0.5" stop-color="#bebebe"/></linearGradient><linearGradient id="linear-gradient-13" x1="-9199.73" y1="-8164.83" x2="-9195.85" y2="-8164.83" gradientTransform="matrix(0.78, 0.19, -0.52, 1.15, 2972.86, 11188.47)" gradientUnits="userSpaceOnUse"><stop offset="0" stop-color="#f5f5f5"/><stop offset="1" stop-color="#bebebe"/></linearGradient><linearGradient id="linear-gradient-14" x1="-9193.37" y1="-8168.17" x2="-9184.55" y2="-8152.9" gradientTransform="matrix(0.78, 0.19, -0.52, 1.15, 2972.86, 11188.47)" gradientUnits="userSpaceOnUse"><stop offset="0.04" stop-color="#141414"/><stop offset="1" stop-color="#464646"/></linearGradient></defs><title>wwwwww__A33AAe__R21XArtboard 1</title><g id="Layer_32_copy" data-name="Layer 32 copy"><polygon class="cls-1" points="5.87 36.71 5.87 29.61 19.82 42.9 19.82 52.68 5.87 36.71"/><polyline class="cls-2" points="13.78 12.22 15.34 32.34 6.76 29.14 8.04 12.22"/><polyline class="cls-3" points="16.29 11.16 15.34 24.09 23.03 26.02 22.03 11.16"/><path class="cls-4" d="M22,11.16c0-.44-1.28-.8-2.87-.8s-2.87.36-2.87.8,1.29.81,2.87.81S22,11.61,22,11.16Z"/><path class="cls-5" d="M13.78,12.23c0-.45-1.29-.81-2.87-.81S8,11.78,8,12.23s1.28.8,2.87.8S13.78,12.67,13.78,12.23Z"/><polygon class="cls-6" points="21.28 22.53 24 19.66 40.88 27.77 34.45 36.63 21.28 22.53"/><polygon class="cls-7" points="18.32 20.92 14.48 25.01 27.35 39.81 34.45 29.69 18.32 20.92"/><polygon class="cls-8" points="5.87 29.61 12.22 22.25 27.35 32.34 19.82 42.9 5.87 29.61"/><polygon class="cls-9" points="19.82 52.68 19.82 42.9 27.35 32.34 27.35 39.81 34.45 29.69 34.45 36.63 40.88 27.77 40.88 42.23 19.82 52.68"/></g><g id="LOUPE_SEARCH_copy_2" data-name="LOUPE SEARCH copy 2"><path id="bord_int_blanc" data-name="bord int  blanc" class="cls-10" d="M51.48,24.49,51.2,23.4l-.07-.27,0-.14v0h0s0-.07,0,.06l0-.07-.2-.53a6.76,6.76,0,0,0-.44-1,7.58,7.58,0,0,0-.52-.91,10.82,10.82,0,0,0-1.27-1.67,10.28,10.28,0,0,0-1.57-1.38,7.36,7.36,0,0,0-.88-.57l-.41-.24-.51-.24-.51-.25L44.29,16a4.78,4.78,0,0,0-1-.3,5.85,5.85,0,0,0-1-.21,5.15,5.15,0,0,0-1-.11,6,6,0,0,0-1,0,6,6,0,0,0-1,.09,7.35,7.35,0,0,0-1,.2l-.46.11-.54.17a5.28,5.28,0,0,0-1,.37,6.39,6.39,0,0,0-.91.45,8,8,0,0,0-.88.54,7.14,7.14,0,0,0-.82.63,6.39,6.39,0,0,0-.76.71,10.38,10.38,0,0,0-.69.78,6.51,6.51,0,0,0-.62.84l-.15.21-.07.11,0,.05,0,0s0,.06,0,0h0v0l-.26.5-.5,1a8,8,0,0,0-.32,1,7.92,7.92,0,0,0-.29,1l-.17,1.05a4.73,4.73,0,0,0-.07,1.06l0,1.08-1,.13-.28-2.15,1-.13.28,2.15-1,.13a13.14,13.14,0,0,1-.17-2.35l.07-1.19a6.38,6.38,0,0,1,.24-1.2,10.16,10.16,0,0,1,.33-1.18l.44-1,.22-.52h0l0-.08,0,0,0-.07.08-.13.16-.25a7.62,7.62,0,0,1,.66-1,7.78,7.78,0,0,1,.78-.94,12.23,12.23,0,0,1,1.81-1.6,8.45,8.45,0,0,1,1-.66,7.6,7.6,0,0,1,1.1-.57,8.06,8.06,0,0,1,1.12-.44l.53-.18c.27-.08.42-.1.63-.15A7.92,7.92,0,0,1,39,13.6a8.11,8.11,0,0,1,1.21-.09,8.12,8.12,0,0,1,1.21,0,8.17,8.17,0,0,1,1.21.15,8.15,8.15,0,0,1,1.19.26,8.92,8.92,0,0,1,1.17.39l.58.23.51.26.49.26a5.94,5.94,0,0,1,.55.35,8.33,8.33,0,0,1,1,.7,11.39,11.39,0,0,1,1.72,1.68,9.61,9.61,0,0,1,.72,1,7.12,7.12,0,0,1,.62,1,10,10,0,0,1,.51,1.1A9.89,9.89,0,0,1,52,22l.15.54,0,.07,0,.08h0v.06l0,.14,0,.27.16,1.12Z"/><g id="verre"><path class="cls-11" d="M51.63,21.72l.28,2.16a10.66,10.66,0,0,0-.32-1.59,11.51,11.51,0,0,0-22.5,4.55l-.28-2.16a11.29,11.29,0,0,1,1.38-7.1,11.52,11.52,0,0,1,21.12,2.55A12.1,12.1,0,0,1,51.63,21.72Z"/><path class="cls-11" d="M52.62,21.6l.28,2.16a12.31,12.31,0,0,1-1.51,7.73,12.54,12.54,0,0,1-17,4.72A12.41,12.41,0,0,1,28.11,27l-.28-2.16a12.4,12.4,0,0,0,6.24,9.23,12.53,12.53,0,0,0,17-4.72A12.38,12.38,0,0,0,52.62,21.6Z"/><path class="cls-12" d="M46.36,12.36a12.46,12.46,0,1,1-17,4.74A12.43,12.43,0,0,1,46.36,12.36Zm-3,21.88a11.44,11.44,0,0,0,2.57-21,11.56,11.56,0,0,0-15.69,4.36,11.46,11.46,0,0,0,4.37,15.61,11.45,11.45,0,0,0,8.75,1.05"/><path id="contour" class="cls-13" d="M48.85,34.87a12.37,12.37,0,0,0,2.61-3.2,12.88,12.88,0,0,0,1.62-7.87s-.57-7.53-6.65-11.25a12.53,12.53,0,0,0-17,4.73A13.67,13.67,0,0,0,27.86,22,18.37,18.37,0,0,0,28,27.14,12.65,12.65,0,0,0,44.2,37.46"/><path class="cls-14" d="M46.36,12.37a12.46,12.46,0,1,1-17,4.73A12.43,12.43,0,0,1,46.36,12.37Zm-3,21.88A11.46,11.46,0,1,0,30.19,17.59,11.46,11.46,0,0,0,34.56,33.2a11.54,11.54,0,0,0,8.75,1"/></g><path class="cls-15" d="M57.76,50.9a1,1,0,0,0,0-.68L48.9,36.33l-3,1.48-.45.56-.13,1.14S53.46,52.22,54,53.06s2.47,0,2.86-.45A2.89,2.89,0,0,0,57.76,50.9Z"/><path class="cls-16" d="M45.4,39.71l2.71-1.34a2,2,0,0,0,.86-.92l.4-1a.83.83,0,0,0,0-.78l-.77-1.4c0-.09-.17-.11-.35,0l-3,1.46a2.35,2.35,0,0,0-1,1.05,12.38,12.38,0,0,0-.12,1.33l.78,1.38C44.94,39.56,45.29,39.76,45.4,39.71Z"/><g id="fixation_manche_ok" data-name="fixation manche   ok"><path class="cls-10" d="M49.36,35.73c0-.15-.16-.19-.37-.1l-3.06,1.46.13.41,3.06-1.45c.18-.08.3,0,.32.08C49.41,36,49.39,35.86,49.36,35.73Z"/><path id="c3_angle" data-name="c3 angle" class="cls-17" d="M45.2,38.42l-.26-.27a1.66,1.66,0,0,1,1-1.06l.13.41C45.76,37.64,45.26,38,45.2,38.42Z"/><path class="cls-18" d="M45.2,38.42l-.26-.27a6,6,0,0,0-.07,1.37l.26.2A6.81,6.81,0,0,1,45.2,38.42Z"/><path id="b5" class="cls-19" d="M48.58,34.3l.76,1.36c-.05-.09-.17-.11-.35,0l-.76-1.36C48.41,34.19,48.53,34.21,48.58,34.3Z"/><polygon id="b4" class="cls-20" points="45.93 37.09 45.18 35.73 48.23 34.27 48.99 35.63 45.93 37.09"/><path class="cls-21" d="M45.93,37.09l-.75-1.36a2.35,2.35,0,0,0-1,1.05,12.38,12.38,0,0,0-.12,1.33l.76,1.36a10.19,10.19,0,0,1,.11-1.32A1.6,1.6,0,0,1,45.93,37.09Z"/><path id="contour_face" data-name="contour face" class="cls-22" d="M49.12,36.05c.3-.14.42.06.25.43l-.4,1a2,2,0,0,1-.86.92L45.4,39.71c-.3.14-.29-.12-.29-.12l.09-1.17c0-.44.56-.78.86-.92Zm-.25,1.45.4-1c.14-.31,0-.47-.21-.36L46,37.62c-.25.11-.67.44-.71.76l-.09,1.16s0,.17.24.06l2.71-1.35a1.73,1.73,0,0,0,.71-.75"/><path id="face" class="cls-23" d="M49.06,36.16c.26-.11.35.05.21.36l-.4,1a1.73,1.73,0,0,1-.71.75L45.45,39.6c-.25.11-.24-.06-.24-.06l.09-1.16c0-.41.46-.65.71-.76Z"/></g><g id="Layer_55_copy_5" data-name="Layer 55 copy 5"><path class="cls-23" d="M57.76,50.9s.08-.78-.12-.69c.37.83-2.31,2.61-2.89,2.26-.31-.2-8.84-14.66-8.84-14.66l-.42.54-.15,1.15S53.46,52.22,54,53.06s2.47,0,2.86-.45a2.89,2.89,0,0,0,.88-1.71Z"/><path class="cls-11" d="M57.76,50.9a1,1,0,0,0,0-.68L49.17,36.37l-.27,0-3,1.48-.45.56-.13,1.14S53.46,52.22,54,53.06s2.47,0,2.86-.45A2.89,2.89,0,0,0,57.76,50.9Z"/><path id="rel_" data-name="rel ***" class="cls-24" d="M45.91,37.81l3-1.48.27,0L57.68,50.2s.23.62-1.1,1.56-1.83.71-1.83.71l-9.27-14.1.43-.56Z"/><path id="dessus_" data-name="dessus****" class="cls-25" d="M57.64,50.14c.36.8-2.6,2.78-3.06,2L45.91,37.81l3-1.48S57.46,49.74,57.64,50.14Z"/><polygon id="rel_2" data-name="rel ***" class="cls-24" points="45.91 37.81 54.62 52.34 54.45 52.32 45.48 38.37 45.91 37.81 45.91 37.81"/></g></g></svg>