<svg id="Layer_14" data-name="Layer 14" xmlns="http://www.w3.org/2000/svg" xmlns:xlink="http://www.w3.org/1999/xlink" viewBox="0 0 64 64"><defs><linearGradient id="linear-gradient" x1="31.38" y1="32.2" x2="44.65" y2="55.19" gradientUnits="userSpaceOnUse"><stop offset="0" stop-color="#50af28"/><stop offset="1" stop-color="#3c8c19"/></linearGradient><linearGradient id="linear-gradient-2" x1="31.13" y1="31.77" x2="44.9" y2="55.62" gradientUnits="userSpaceOnUse"><stop offset="0" stop-color="#287300"/><stop offset="0.99" stop-color="#004100"/></linearGradient><linearGradient id="linear-gradient-5" x1="42.4" y1="22.94" x2="47.03" y2="30.97" xlink:href="#linear-gradient-2"/><linearGradient id="linear-gradient-6" x1="33.48" y1="36.2" x2="42.75" y2="52.24" xlink:href="#linear-gradient-2"/><linearGradient id="linear-gradient-7" x1="33.02" y1="47.83" x2="17.74" y2="21.37" gradientUnits="userSpaceOnUse"><stop offset="0" stop-color="#2a5b79"/><stop offset="1" stop-color="#84bedc"/></linearGradient><linearGradient id="linear-gradient-8" x1="31.01" y1="43.72" x2="16.47" y2="18.53" gradientUnits="userSpaceOnUse"><stop offset="0" stop-color="#74c4e2"/><stop offset="1" stop-color="#a4def6"/></linearGradient><linearGradient id="linear-gradient-9" x1="30.78" y1="43.32" x2="15.46" y2="16.79" gradientUnits="userSpaceOnUse"><stop offset="0" stop-color="#161616"/><stop offset="1" stop-color="#515151"/></linearGradient><linearGradient id="linear-gradient-10" x1="39.83" y1="19.91" x2="37.14" y2="15.25" gradientUnits="userSpaceOnUse"><stop offset="0" stop-color="#386f8d"/><stop offset="1" stop-color="#8dd7f4"/></linearGradient><linearGradient id="linear-gradient-11" x1="9.77" y1="46.66" x2="7.26" y2="42.31" xlink:href="#linear-gradient-10"/><linearGradient id="linear-gradient-12" x1="22.8" y1="26.29" x2="25.85" y2="31.57" gradientUnits="userSpaceOnUse"><stop offset="0" stop-color="#55b432"/><stop offset="1" stop-color="#379614"/></linearGradient></defs><title>MaterialsCompliance</title><path d="M54.5,49.5s-9,2-12-15L30,33,26.5,46.5S38,57.5,54.5,49.5Z" stroke-linecap="round" stroke-linejoin="round" fill="url(#linear-gradient)" stroke="url(#linear-gradient-2)"/><path d="M39.5,19.5c7-4,14,4.5,20,3,0,0-6.49,14-17,14a24.27,24.27,0,0,1-10-2L32,30Z" stroke-linecap="round" stroke-linejoin="round" fill="url(#linear-gradient)" stroke="url(#linear-gradient-2)"/><path d="M54.46,25.67a33.09,33.09,0,0,0-4.85-.58,26.82,26.82,0,0,0-4.83.14,15,15,0,0,0-4.54,1.18,8.67,8.67,0,0,0-3.45,2.7l0,0a1,1,0,0,1-1.39.22,1,1,0,0,1-.22-1.4l.05-.06a10.51,10.51,0,0,1,4.45-3,16.57,16.57,0,0,1,5-.87,27.81,27.81,0,0,1,5,.27,36.28,36.28,0,0,1,4.85,1,.18.18,0,0,1,.12.22.18.18,0,0,1-.2.12Z" fill="url(#linear-gradient-5)"/><path d="M31.64,37.51a9.12,9.12,0,0,1,2.46.94,10.09,10.09,0,0,1,2.07,1.47A10.45,10.45,0,0,1,38.93,44a7.69,7.69,0,0,0,2.44,3.62,7.82,7.82,0,0,0,4.13,1.67h0a.17.17,0,0,1,.15.19.16.16,0,0,1-.17.15,8.38,8.38,0,0,1-4.58-1.39,8.74,8.74,0,0,1-3.06-3.78,9.2,9.2,0,0,0-2.71-3.36,8.4,8.4,0,0,0-3.79-1.65h-.08a1,1,0,1,1,.28-2Z" fill="url(#linear-gradient-6)"/><path d="M24.5,14.37l12.71,3.09a3,3,0,0,1,2.09,4L28.07,50.58a3,3,0,0,1-3.77,1.76L11.08,47.82a3,3,0,0,1-1.79-4L21,16.12A3,3,0,0,1,24.5,14.37Z" stroke="#053755" stroke-linecap="round" stroke-linejoin="round" fill="url(#linear-gradient-7)"/><path d="M23,11.1l12.7,3.09a3,3,0,0,1,2.09,4L26.54,47.31a3,3,0,0,1-3.77,1.76L9.55,44.54a3,3,0,0,1-1.79-4L19.5,12.85A3,3,0,0,1,23,11.1Z" stroke="#053755" stroke-linecap="round" stroke-linejoin="round" fill="url(#linear-gradient-8)"/><path d="M23.74,47.23a.87.87,0,0,1-.32-.06L10.2,42.65a1,1,0,0,1-.59-.54,1,1,0,0,1,0-.8L21.35,13.63a1,1,0,0,1,.92-.61l.23,0,12.71,3.09a1,1,0,0,1,.65.5,1,1,0,0,1,0,.83L24.67,46.59A1,1,0,0,1,23.74,47.23Z" fill-rule="evenodd" fill="url(#linear-gradient-9)"/><line x1="37.63" y1="15.72" x2="39.36" y2="19.46" stroke="#053755" stroke-linecap="round" stroke-linejoin="round" fill="url(#linear-gradient-10)"/><line x1="7.71" y1="42.75" x2="9.33" y2="46.24" stroke="#053755" stroke-linecap="round" stroke-linejoin="round" fill="url(#linear-gradient-11)"/><path d="M24,47.19a1,1,0,0,0,.7-.6L35.9,17.47a1,1,0,0,0,0-.83,1,1,0,0,0-.65-.5L22.5,13.05l-.23,0a1,1,0,0,0-.91.59Z" fill="#fff" fill-rule="evenodd" opacity="0.18"/><polyline points="17.5 30.5 20.5 33.5 29.5 24.5" fill="none" stroke-linecap="round" stroke-linejoin="round" stroke-width="2" stroke="url(#linear-gradient-12)"/></svg>