<?xml version="1.0" encoding="utf-8"?>
<!-- Generator: Adobe Illustrator 24.0.0, SVG Export Plug-In . SVG Version: 6.00 Build 0)  -->
<svg version="1.1" id="MarketRegistration" xmlns="http://www.w3.org/2000/svg" xmlns:xlink="http://www.w3.org/1999/xlink" x="0px"
	 y="0px" viewBox="0 0 64 64" style="enable-background:new 0 0 64 64;" xml:space="preserve">
<style type="text/css">
	
		.Blue_x0020_RIGHT_x0020__x002F__x0020_FRONT_x0020_or_x0020_SINGLE{fill:url(#SVGID_1_);stroke:#053755;stroke-linejoin:round;stroke-miterlimit:10;}
	.White_x0020_SINGLE_x0020_4{fill:url(#SVGID_2_);stroke:#323232;stroke-linejoin:round;stroke-miterlimit:10;}
	
		.Blue_x0020_RIGHT_x0020__x002F__x0020_FRONT_x0020_or_x0020_SINGLE_x0020_2{fill:url(#SVGID_3_);stroke:#053755;stroke-linejoin:round;stroke-miterlimit:10;}
	.st0{fill:url(#SVGID_4_);stroke:#787979;stroke-linejoin:round;stroke-miterlimit:10;}
	.st1{fill:url(#SVGID_5_);stroke:#787979;stroke-linejoin:round;stroke-miterlimit:10;}
	.st2{fill:url(#SVGID_6_);stroke:#787979;stroke-linejoin:round;stroke-miterlimit:10;}
	.st3{fill:url(#SVGID_7_);stroke:#323232;stroke-linejoin:round;stroke-miterlimit:10;}
	.st4{fill:url(#SVGID_8_);stroke:#053755;stroke-linejoin:round;stroke-miterlimit:10;}
	.st5{fill:url(#SVGID_9_);stroke:#053755;stroke-linejoin:round;stroke-miterlimit:10;}
	.st6{fill:url(#SVGID_10_);}
	.st7{fill:url(#SVGID_11_);}
	.st8{fill:url(#SVGID_12_);}
	.st9{fill:url(#SVGID_13_);}
	.st10{fill:url(#SVGID_14_);}
	.st11{fill:url(#SVGID_15_);}
	.st12{fill:url(#SVGID_16_);stroke:#053755;stroke-linejoin:round;stroke-miterlimit:10;}
	.st13{fill:url(#SVGID_17_);}
	.st14{fill:url(#SVGID_18_);stroke:#323232;stroke-width:0.2273;stroke-miterlimit:10;}
	.st15{fill:none;stroke:#053755;stroke-linejoin:round;stroke-miterlimit:10;}
</style>
<linearGradient id="SVGID_1_" gradientUnits="userSpaceOnUse" x1="0" y1="0" x2="0.5" y2="0.866">
	<stop  offset="0" style="stop-color:#8DD7F4"/>
	<stop  offset="1" style="stop-color:#386E8C"/>
</linearGradient>
<linearGradient id="SVGID_2_" gradientUnits="userSpaceOnUse" x1="0" y1="0" x2="0.5" y2="0.866">
	<stop  offset="0" style="stop-color:#FFFFFF"/>
	<stop  offset="1" style="stop-color:#D4D5D3"/>
</linearGradient>
<linearGradient id="SVGID_3_" gradientUnits="userSpaceOnUse" x1="0" y1="0" x2="0.5" y2="0.866">
	<stop  offset="0" style="stop-color:#8DD7F4"/>
	<stop  offset="1" style="stop-color:#386E8C"/>
</linearGradient>
<g>
	<radialGradient id="SVGID_4_" cx="28.6777" cy="28.533" r="19.6777" gradientUnits="userSpaceOnUse">
		<stop  offset="0" style="stop-color:#FFFFFF"/>
		<stop  offset="1" style="stop-color:#BEBEBE"/>
	</radialGradient>
	<circle class="st0" cx="28.68" cy="28.53" r="19.68"/>
	<linearGradient id="SVGID_5_" gradientUnits="userSpaceOnUse" x1="33.3378" y1="11.4231" x2="47.9044" y2="36.6531">
		<stop  offset="0" style="stop-color:#FFFFFF"/>
		<stop  offset="1" style="stop-color:#F1F0F0"/>
	</linearGradient>
	<path class="st1" d="M35.61,10.11c0,0-2.3,2.4-0.51,3.39c1.8,0.99,3.34-0.12,3.53,0.87c0.19,0.99-2.41,0.37-1.73,1.24
		c0.68,0.87,1.24,2.1,2.17,1.67c0.93-0.43,0.49-1.73,1.3-1.79c0.8-0.06,1.24,0.68,1.49,1.18c0.25,0.49-3.88-0.19-4.45,2.17
		c-0.57,2.35-2.11,2.85-0.94,3.9c1.17,1.05,0.68,2.35,2.1,3.09c1.42,0.74,2.29,1.37,3.71,0.72c1.42-0.65,2.48,3.8,2.04,5.1
		c-0.43,1.3-2.23,2.66-1.86,4.76c0.37,2.11-1.49,3.18-0.5,3.51c0.99,0.33,5.34-5.03,5.34-5.03s3.73-9.41-3.94-19.43
		C41.39,12.87,35.61,10.11,35.61,10.11z"/>
	<linearGradient id="SVGID_6_" gradientUnits="userSpaceOnUse" x1="16.2717" y1="13.0513" x2="31.3263" y2="39.1266">
		<stop  offset="0" style="stop-color:#FFFFFF"/>
		<stop  offset="1" style="stop-color:#F1F0F0"/>
	</linearGradient>
	<path class="st2" d="M23.74,9.48c0,0,1.33,2.78,2.51,2.97c1.17,0.19,0.8,0.5,0.86,0.74c0.06,0.25,1.86,0.43-2.04,0.56
		c-3.9,0.12-3.96,0.87-4.58,1.92c-0.62,1.05-2.48,0.56-2.17,1.92c0.31,1.36-0.03,1.98-0.03,1.98h-1.33c0,0,1.11-0.87,0-1.49
		c-1.11-0.62-3.47,3.4-3.47,3.4s0.25,0.25,1.11,0c0.87-0.25,1.18,0.31,1.3,0.68c0.12,0.37-0.93,1.27,0,1.56
		c0.93,0.29,1.36,0.48,1.36,0.48s0-0.8,1.55-1.11c1.55-0.31,3.59-0.99,4.15-0.06c0.56,0.93-0.25,0.99,0.93,1.17
		c1.17,0.19,1.67-0.62,2.23,0c0.56,0.62-1.42,1.8-0.19,2.05c1.24,0.25,5.23-0.5,5.09,1.49c-0.14,1.98-1.62,1.53-1.44,2.74
		c0.19,1.22,0.43,2.33,0.06,2.89c-0.37,0.56-2.41-0.31-3.22,1.3c-0.81,1.61,0.25,3.22-2.29,3.65c-2.54,0.43-1.48,3.36-0.25,4.28
		c1.24,0.92-0.19,0.42-0.19,0.42s-2.23-0.97-2.23-3.12c0-2.14-1.98-0.32-1.61-2.1c0.37-1.78,1.18-1.96,0.62-4.01
		c-0.56-2.04-3.28-1.57-3.9-3.32c-0.62-1.75-0.62-3.55,0.43-4.48c1.05-0.93,0.56-1.3-0.25-1.3c-0.8,0-1.92-0.02-2.47-0.97
		c-0.56-0.95-1.18,0.17-2.1-0.33c-0.93-0.49-1.99-1.93-1.43-3.04C15.37,11.21,23.74,9.48,23.74,9.48z"/>
</g>
<linearGradient id="SVGID_7_" gradientUnits="userSpaceOnUse" x1="34.9324" y1="23.3624" x2="51.4434" y2="51.9603">
	<stop  offset="0" style="stop-color:#FFFFFF"/>
	<stop  offset="1" style="stop-color:#D4D5D3"/>
</linearGradient>
<polygon class="st3" points="56.5,49.04 31.5,58.11 31.5,25.34 56.5,20.03 "/>
<linearGradient id="SVGID_8_" gradientUnits="userSpaceOnUse" x1="36.2914" y1="45.3784" x2="38.6186" y2="49.4093">
	<stop  offset="0" style="stop-color:#8DD7F4"/>
	<stop  offset="1" style="stop-color:#386E8C"/>
</linearGradient>
<polygon class="st4" points="39.5,48.9 35.5,50.25 35.5,45.84 39.5,44.69 "/>
<linearGradient id="SVGID_9_" gradientUnits="userSpaceOnUse" x1="36.2914" y1="37.8804" x2="38.5736" y2="41.8333">
	<stop  offset="0" style="stop-color:#8DD7F4"/>
	<stop  offset="1" style="stop-color:#386E8C"/>
</linearGradient>
<polygon class="st5" points="39.5,41.3 35.5,42.65 35.5,38.34 39.5,37.3 "/>
<g>
	<linearGradient id="SVGID_10_" gradientUnits="userSpaceOnUse" x1="42" y1="38.5654" x2="54" y2="38.5654">
		<stop  offset="0" style="stop-color:#464647"/>
		<stop  offset="0.9921" style="stop-color:#151515"/>
	</linearGradient>
	<polygon class="st6" points="42,39.48 54,36.17 54,37.65 42,40.97 	"/>
	<linearGradient id="SVGID_11_" gradientUnits="userSpaceOnUse" x1="42" y1="35.6673" x2="54" y2="35.6673">
		<stop  offset="0" style="stop-color:#464647"/>
		<stop  offset="0.9921" style="stop-color:#151515"/>
	</linearGradient>
	<polygon class="st7" points="42,36.64 54,33.32 54,34.7 42,38.01 	"/>
	<linearGradient id="SVGID_12_" gradientUnits="userSpaceOnUse" x1="42" y1="45.6683" x2="54" y2="45.6683">
		<stop  offset="0" style="stop-color:#464647"/>
		<stop  offset="0.9921" style="stop-color:#151515"/>
	</linearGradient>
	<polygon class="st8" points="42,46.87 54,42.98 54,44.35 42,48.35 	"/>
	<linearGradient id="SVGID_13_" gradientUnits="userSpaceOnUse" x1="42" y1="42.9408" x2="54" y2="42.9408">
		<stop  offset="0" style="stop-color:#464647"/>
		<stop  offset="0.9921" style="stop-color:#151515"/>
	</linearGradient>
	<polygon class="st9" points="42,44.03 54,40.37 54,41.63 42,45.51 	"/>
	<linearGradient id="SVGID_14_" gradientUnits="userSpaceOnUse" x1="42" y1="31.3487" x2="54" y2="31.3487">
		<stop  offset="0" style="stop-color:#464647"/>
		<stop  offset="0.9921" style="stop-color:#151515"/>
	</linearGradient>
	<polygon class="st10" points="42,32.21 54,29.01 54,30.38 42,33.69 	"/>
	<linearGradient id="SVGID_15_" gradientUnits="userSpaceOnUse" x1="42" y1="28.4507" x2="54" y2="28.4507">
		<stop  offset="0" style="stop-color:#464647"/>
		<stop  offset="0.9921" style="stop-color:#151515"/>
	</linearGradient>
	<polygon class="st11" points="42,29.25 54,26.17 54,27.65 42,30.74 	"/>
</g>
<linearGradient id="SVGID_16_" gradientUnits="userSpaceOnUse" x1="36.2239" y1="30.2999" x2="38.6411" y2="34.4865">
	<stop  offset="0" style="stop-color:#8DD7F4"/>
	<stop  offset="1" style="stop-color:#386E8C"/>
</linearGradient>
<polygon class="st12" points="39.5,33.99 35.5,35.03 35.5,30.72 39.5,29.99 "/>
<g>
	<g>
		
			<linearGradient id="SVGID_17_" gradientUnits="userSpaceOnUse" x1="41.4279" y1="6.0635" x2="50.5101" y2="21.7945" gradientTransform="matrix(1 0 0 1 1 1)">
			<stop  offset="0" style="stop-color:#8DD7F4"/>
			<stop  offset="1" style="stop-color:#386E8C"/>
		</linearGradient>
		<path class="st13" d="M42.91,16.46l5.63,8.05l6.61-7.05l-3.75-0.24c-0.24-9.93-9.13-10.95-13.96-7.17
			c0.6,0.24,1.18,0.51,1.75,0.81c7.74-0.3,7.67,3.97,7.32,6.03L42.91,16.46z"/>
	</g>
	<g>
		<linearGradient id="SVGID_18_" gradientUnits="userSpaceOnUse" x1="46.2921" y1="8.0219" x2="46.2921" y2="24.5119">
			<stop  offset="0" style="stop-color:#275A78"/>
			<stop  offset="0.1052" style="stop-color:#437896"/>
			<stop  offset="0.2206" style="stop-color:#5A91B0"/>
			<stop  offset="0.3494" style="stop-color:#6CA5C4"/>
			<stop  offset="0.4967" style="stop-color:#78B3D1"/>
			<stop  offset="0.6788" style="stop-color:#80BBDA"/>
			<stop  offset="1" style="stop-color:#82BDDC"/>
		</linearGradient>
		<path class="st14" d="M42.91,16.46l5.63,8.05l6.61-7.05l-3.75-0.24c-0.24-9.93-9.13-10.95-13.96-7.17
			c0.6,0.24,1.18,0.51,1.75,0.81c7.74-0.3,7.67,3.97,7.32,6.03L42.91,16.46z"/>
	</g>
	<g>
		<path class="st15" d="M42.91,16.46l5.63,8.05l6.61-7.05l-3.75-0.24c-0.24-9.93-9.13-10.95-13.96-7.17
			c0.6,0.24,1.18,0.51,1.75,0.81c7.74-0.3,7.67,3.97,7.32,6.03L42.91,16.46z"/>
	</g>
</g>
</svg>
