<svg id="Layer_10_copy" data-name="Layer 10 copy" xmlns="http://www.w3.org/2000/svg" xmlns:xlink="http://www.w3.org/1999/xlink" viewBox="0 0 64 64"><defs><linearGradient id="linear-gradient" x1="19.12" y1="11.89" x2="39.84" y2="47.78" gradientUnits="userSpaceOnUse"><stop offset="0" stop-color="#f5f6f6"/><stop offset="0.99" stop-color="#d2d3d3"/></linearGradient><linearGradient id="linear-gradient-2" x1="38.17" y1="48.39" x2="19.72" y2="16.43" gradientUnits="userSpaceOnUse"><stop offset="0" stop-color="#386f8d"/><stop offset="1" stop-color="#8dd7f4"/></linearGradient><linearGradient id="linear-gradient-4" x1="21.88" y1="44.28" x2="8.74" y2="21.52" gradientUnits="userSpaceOnUse"><stop offset="0" stop-color="#161616"/><stop offset="1" stop-color="#515151"/></linearGradient><linearGradient id="linear-gradient-5" x1="39.98" y1="36.65" x2="34.11" y2="36.65" gradientUnits="userSpaceOnUse"><stop offset="0" stop-color="#bebdbd"/><stop offset="0.63" stop-color="#f4f5f5"/><stop offset="1" stop-color="#bebdbd"/></linearGradient><linearGradient id="linear-gradient-6" x1="45.23" y1="34.13" x2="39.98" y2="34.13" xlink:href="#linear-gradient-5"/><linearGradient id="top_white" x1="42.04" y1="28.11" x2="43.14" y2="30" gradientUnits="userSpaceOnUse"><stop offset="0" stop-color="#fff"/><stop offset="1" stop-color="#f0f0f0"/></linearGradient><linearGradient id="top_white-2" x1="36.4" y1="28.83" x2="37.49" y2="30.72" xlink:href="#top_white"/><linearGradient id="linear-gradient-7" x1="39.84" y1="47.53" x2="29.37" y2="60.93" gradientUnits="userSpaceOnUse"><stop offset="0" stop-color="#275a78"/><stop offset="0.65" stop-color="#82bddc"/><stop offset="1" stop-color="#275a78"/></linearGradient><linearGradient id="linear-gradient-8" x1="44.04" y1="40.66" x2="57.44" y2="40.66" gradientUnits="userSpaceOnUse"><stop offset="0" stop-color="#a2ddf7"/><stop offset="0.99" stop-color="#73c3e1"/></linearGradient><linearGradient id="linear-gradient-9" x1="39.38" y1="42.17" x2="53.04" y2="42.17" xlink:href="#linear-gradient-8"/><linearGradient id="linear-gradient-10" x1="33.5" y1="43.69" x2="48.18" y2="43.69" xlink:href="#linear-gradient-8"/><linearGradient id="linear-gradient-11" x1="46.4" y1="37.64" x2="57.85" y2="71.28" gradientUnits="userSpaceOnUse"><stop offset="0" stop-color="#8bd6f4"/><stop offset="1" stop-color="#376e8c"/></linearGradient><linearGradient id="linear-gradient-12" x1="54.93" y1="51.54" x2="52.82" y2="47.89" xlink:href="#linear-gradient-4"/><linearGradient id="linear-gradient-13" x1="50.93" y1="53.52" x2="48.83" y2="49.89" xlink:href="#linear-gradient-4"/><linearGradient id="linear-gradient-14" x1="46.92" y1="55.51" x2="44.83" y2="51.89" xlink:href="#linear-gradient-4"/></defs><title>ManufacturingBOMManagement</title><rect x="9.5" y="11.5" width="39" height="35" stroke="#333332" stroke-linecap="round" stroke-linejoin="round" fill="url(#linear-gradient)"/><rect x="9.5" y="27.5" width="39" height="10" stroke="#053755" stroke-linecap="round" stroke-linejoin="round" fill="url(#linear-gradient-2)"/><rect x="22" y="18" width="1" height="28" fill="#9e9e9e"/><rect x="35" y="18" width="1" height="28" fill="#9e9e9e"/><rect x="35" y="27" width="1" height="11" fill="#053755"/><rect x="22" y="27" width="1" height="11" fill="#053755"/><rect x="9.5" y="11.5" width="39" height="7" stroke="#053755" stroke-linecap="round" stroke-linejoin="round" fill="url(#linear-gradient-2)"/><path d="M16.5,35h4a.5.5,0,0,0,.5-.5v-4a.5.5,0,0,0-.5-.5h-4a.5.5,0,0,0-.5.5V32H14V25h1.5a.5.5,0,0,0,.5-.5v-4a.5.5,0,0,0-.5-.5h-4a.5.5,0,0,0-.5.5v4a.5.5,0,0,0,.5.5H13V42.5a.5.5,0,0,0,.5.5H16v1.5a.5.5,0,0,0,.5.5h4a.5.5,0,0,0,.5-.5v-4a.5.5,0,0,0-.5-.5h-4a.5.5,0,0,0-.5.5V42H14V33h2v1.5A.5.5,0,0,0,16.5,35Z" fill-rule="evenodd" fill="url(#linear-gradient-4)"/><polyline points="38.91 29.78 39.98 43.52 34.11 41.34 34.98 29.78" stroke="#797979" stroke-linecap="round" stroke-linejoin="round" fill="url(#linear-gradient-5)"/><polyline points="40.63 29.05 39.98 37.89 45.23 39.2 44.55 29.05" stroke="#797979" stroke-linecap="round" stroke-linejoin="round" fill="url(#linear-gradient-6)"/><path d="M44.55,29.05c0-.3-.88-.55-2-.55s-2,.25-2,.55.88.55,2,.55S44.55,29.36,44.55,29.05Z" stroke="#797979" stroke-linecap="round" stroke-linejoin="round" fill="url(#top_white)"/><path d="M38.91,29.78c0-.31-.88-.56-2-.56s-2,.25-2,.56.87.55,2,.55S38.91,30.08,38.91,29.78Z" stroke="#797979" stroke-linecap="round" stroke-linejoin="round" fill="url(#top_white-2)"/><path d="M45.23,39.2,40,37.89l.65-8.84c0-.3.88-.55,2-.55s2,.25,2,.55ZM37,29.22c-1.09,0-2,.25-2,.56l-.88,11.56L40,43.52,38.91,29.78C38.91,29.47,38,29.22,37,29.22Z" fill="none" stroke="#333332" stroke-linecap="round" stroke-linejoin="round"/><polygon points="33.5 46.52 33.5 41.66 43.04 50.74 43.04 57.43 33.5 46.52" stroke="#00425f" stroke-linecap="round" stroke-linejoin="round" fill="url(#linear-gradient-7)"/><polygon points="44.03 36.82 45.9 34.86 57.44 40.4 53.04 46.46 44.03 36.82" stroke="#00425f" stroke-linecap="round" stroke-linejoin="round" fill="url(#linear-gradient-8)"/><polygon points="42.01 35.72 39.38 38.52 48.18 48.63 53.04 41.72 42.01 35.72" stroke="#00425f" stroke-linecap="round" stroke-linejoin="round" fill="url(#linear-gradient-9)"/><polygon points="33.5 41.66 37.84 36.63 48.18 43.52 43.04 50.74 33.5 41.66" stroke="#00425f" stroke-linecap="round" stroke-linejoin="round" fill="url(#linear-gradient-10)"/><polygon points="43.04 57.43 43.04 50.74 48.18 43.52 48.18 48.63 53.04 41.72 53.04 46.46 57.44 40.4 57.44 50.28 43.04 57.43" stroke="#00425f" stroke-linecap="round" stroke-linejoin="round" fill="url(#linear-gradient-11)"/><path d="M54.69,47a.48.48,0,0,0-.54.11l-1,1a.47.47,0,0,0-.15.35v4l2-1v-4A.5.5,0,0,0,54.69,47Z" fill="url(#linear-gradient-12)"/><path d="M51,49.5a.5.5,0,0,0-.31-.46.48.48,0,0,0-.54.11l-1,1a.47.47,0,0,0-.15.35v4l2-1Z" fill="url(#linear-gradient-13)"/><path d="M47,55.46v-4a.5.5,0,0,0-.31-.46.47.47,0,0,0-.54.11l-1,1a.47.47,0,0,0-.15.35v4Z" fill="url(#linear-gradient-14)"/></svg>