<svg xmlns="http://www.w3.org/2000/svg" xmlns:xlink="http://www.w3.org/1999/xlink" viewBox="0 0 64 64"><defs><linearGradient id="linear-gradient" x1="45.83" y1="29.77" x2="38.19" y2="16.54" gradientUnits="userSpaceOnUse"><stop offset="0" stop-color="#386f8d"/><stop offset="1" stop-color="#8dd7f4"/></linearGradient><linearGradient id="linear-gradient-2" x1="43.06" y1="44.37" x2="25.39" y2="13.77" xlink:href="#linear-gradient"/><linearGradient id="linear-gradient-3" x1="35.81" y1="19.14" x2="32.17" y2="12.82" xlink:href="#linear-gradient"/><linearGradient id="linear-gradient-4" x1="43.99" y1="32.96" x2="55.55" y2="52.97" gradientUnits="userSpaceOnUse"><stop offset="0" stop-color="#f5f6f6"/><stop offset="0.99" stop-color="#d2d3d3"/></linearGradient><linearGradient id="linear-gradient-5" x1="3.04" y1="19.3" x2="17.75" y2="44.77" gradientUnits="userSpaceOnUse"><stop offset="0" stop-color="#f5f6f6"/><stop offset="0.99" stop-color="#bfbebe"/></linearGradient><linearGradient id="linear-gradient-6" x1="15.77" y1="8.26" x2="19.34" y2="14.43" gradientUnits="userSpaceOnUse"><stop offset="0" stop-color="#fff"/><stop offset="1" stop-color="#f1f0f0"/></linearGradient><linearGradient id="linear-gradient-7" x1="12.71" y1="15.97" x2="24.59" y2="36.55" gradientUnits="userSpaceOnUse"><stop offset="0" stop-color="#fff"/><stop offset="1" stop-color="#d2d3d3"/></linearGradient><linearGradient id="linear-gradient-13" x1="21.28" y1="37.92" x2="29.25" y2="51.72" xlink:href="#linear-gradient-5"/><linearGradient id="linear-gradient-14" x1="28.33" y1="40.01" x2="34.5" y2="50.7" xlink:href="#linear-gradient-5"/><linearGradient id="linear-gradient-16" x1="27.89" y1="31.95" x2="29.16" y2="34.15" xlink:href="#linear-gradient-5"/><linearGradient id="linear-gradient-17" x1="27.26" y1="48.27" x2="21.74" y2="38.73" gradientUnits="userSpaceOnUse"><stop offset="0" stop-color="#2a5b79"/><stop offset="1" stop-color="#3388b0"/></linearGradient></defs><title>ENOMERL_AP_AppIcon</title><g id="Layer_5" data-name="Layer 5"><polygon points="40.5 17.5 41.5 18 47.5 25.5 44.5 28.5 37.5 22.5 38.5 18.5 40.5 17.5" stroke="#053755" stroke-linecap="round" stroke-linejoin="round" fill="url(#linear-gradient)"/><path d="M39.5,24.5a15.93,15.93,0,0,1,0-3c.15-1.11,1-4,1-4l-2-1h-9l-2,1s-2.15,2.39-2,3.5a22.59,22.59,0,0,0,1,3.5,24.42,24.42,0,0,0-1,7,20.69,20.69,0,0,0,2,8,4.39,4.39,0,0,0,2.5,3,9.93,9.93,0,0,0,4,0,9.93,9.93,0,0,0,4,0,4.39,4.39,0,0,0,2.5-3,20.69,20.69,0,0,1-2-8A24.42,24.42,0,0,1,39.5,24.5Z" stroke="#053755" stroke-linecap="round" stroke-linejoin="round" fill="url(#linear-gradient-2)"/><ellipse cx="34" cy="16" rx="3.5" ry="2.5" stroke="#053755" stroke-linecap="round" stroke-linejoin="round" fill="url(#linear-gradient-3)"/><g opacity="0.45"><path d="M43,31.31l13,6.5V53.69l-13-6.5V31.31m0-1a1,1,0,0,0-.53.15,1,1,0,0,0-.47.85V47.19a1,1,0,0,0,.55.9l13,6.5a1,1,0,0,0,1-.05,1,1,0,0,0,.47-.85V37.81a1,1,0,0,0-.55-.9l-13-6.5a1,1,0,0,0-.45-.1Z" fill="#fff"/><path d="M42.5,30a.54.54,0,0,1,.22.05l14,7a.51.51,0,0,1,.28.45v17a.52.52,0,0,1-.24.43.59.59,0,0,1-.26.07.54.54,0,0,1-.22,0l-14-7A.51.51,0,0,1,42,47.5v-17a.52.52,0,0,1,.24-.43A.48.48,0,0,1,42.5,30M56,53.69V37.81l-13-6.5V47.19l13,6.5M42.5,29a1.57,1.57,0,0,0-.79.22A1.5,1.5,0,0,0,41,30.5v17a1.5,1.5,0,0,0,.83,1.34l14,7a1.57,1.57,0,0,0,.67.16,1.5,1.5,0,0,0,.78-.22A1.48,1.48,0,0,0,58,54.5v-17a1.5,1.5,0,0,0-.83-1.34l-14-7A1.44,1.44,0,0,0,42.5,29ZM44,46.57V32.93l11,5.5V52.07l-11-5.5Z" fill="#fff"/></g><polygon points="42.5 30.5 42.5 47.5 56.5 54.5 56.5 37.5 42.5 30.5" stroke="#333332" stroke-linecap="round" stroke-linejoin="round" fill="url(#linear-gradient-4)"/><path d="M45.5,46.5v-4s.5-1.5,4,0,4,4,4,4v4Z" fill="#333332" stroke="#333332" stroke-miterlimit="10"/><ellipse cx="49.5" cy="39" rx="2.2" ry="3.2" transform="translate(-11.4 55.19) rotate(-53.12)" fill="#333332" stroke="#333332" stroke-miterlimit="10"/></g><g id="Layer_4" data-name="Layer 4"><polygon points="7.5 12 7.5 43.5 13.5 50.5 13.5 46 9.5 41.5 9.5 14 7.5 12" stroke="#797979" stroke-linecap="round" stroke-linejoin="round" fill="url(#linear-gradient-5)"/><polygon points="7.5 12 25 9 27.5 10.5 9.5 14 7.5 12" stroke="#797979" stroke-linecap="round" stroke-linejoin="round" fill="url(#linear-gradient-6)"/><polygon points="27.5 10.5 27.5 37.5 9.5 41.5 9.5 14 27.5 10.5" stroke="#797979" stroke-linecap="round" stroke-linejoin="round" fill="url(#linear-gradient-7)"/><polygon points="13.5 50.5 32.5 45.5 32.5 41.5 13.5 46 13.5 50.5" stroke="#797979" stroke-linecap="round" stroke-linejoin="round" fill="url(#linear-gradient-7)"/><polygon points="9.5 41.5 27.5 37.5 32.5 41.5 13.5 46 9.5 41.5" stroke="#797979" stroke-linecap="round" stroke-linejoin="round" fill="url(#linear-gradient-6)"/><polygon points="27.5 37.5 27.5 10.5 25 9 7.5 12 7.5 43.5 13.5 50.5 32.5 45.5 32.5 41.5 27.5 37.5" fill="none" stroke="#333332" stroke-linecap="round" stroke-linejoin="round"/><polygon points="9.5 34.5 27.5 30.5 32.5 34.5 13.5 39 9.5 34.5" stroke="#053755" stroke-linecap="round" stroke-linejoin="round" fill="url(#linear-gradient-3)"/><polygon points="9.5 26.5 27.5 22.5 32.5 26.5 13.5 31 9.5 26.5" stroke="#053755" stroke-linecap="round" stroke-linejoin="round" fill="url(#linear-gradient-3)"/><polygon points="9.5 18.5 27.5 14.5 32.5 18.5 13.5 23 9.5 18.5" stroke="#053755" stroke-linecap="round" stroke-linejoin="round" fill="url(#linear-gradient-3)"/></g><g id="Layer_6" data-name="Layer 6"><polygon points="21.5 48.5 27.5 54.5 27.5 38.5 24.5 33.5 21.5 36.5 21.5 48.5" stroke="#797979" stroke-linecap="round" stroke-linejoin="round" fill="url(#linear-gradient-13)"/><polygon points="35.5 51.5 27.5 54.5 27.5 38.5 35.5 36.5 35.5 51.5" stroke="#797979" stroke-linecap="round" stroke-linejoin="round" fill="url(#linear-gradient-14)"/><polygon points="24.5 33.5 24.5 30.5 32.5 29.5 32.5 32.5 35.5 36.5 27.5 38.5 24.5 33.5" stroke="#797979" stroke-linecap="round" stroke-linejoin="round" fill="url(#linear-gradient-7)"/><line x1="24.5" y1="33.5" x2="32.5" y2="32.5" stroke="#797979" stroke-linecap="round" stroke-linejoin="round" fill="url(#linear-gradient-16)"/><polygon points="32.5 32.5 32.5 29.5 24.5 30.5 24.5 33.5 21.5 36.5 21.5 48.5 27.5 54.5 35.5 51.5 35.5 36.5 32.5 32.5" fill="none" stroke="#333332" stroke-linecap="round" stroke-linejoin="round"/><polygon points="23 38 23 46 26 49 26 41 23 38 23 38" fill="url(#linear-gradient-17)"/></g></svg>