<svg xmlns="http://www.w3.org/2000/svg" xmlns:xlink="http://www.w3.org/1999/xlink" viewBox="0 0 64 64"><defs><linearGradient id="linear-gradient" x1="50.83" y1="29.77" x2="43.19" y2="16.54" gradientUnits="userSpaceOnUse"><stop offset="0" stop-color="#386f8d"/><stop offset="1" stop-color="#8dd7f4"/></linearGradient><linearGradient id="linear-gradient-2" x1="48.06" y1="44.37" x2="30.39" y2="13.77" xlink:href="#linear-gradient"/><linearGradient id="linear-gradient-3" x1="40.81" y1="19.14" x2="37.17" y2="12.82" xlink:href="#linear-gradient"/><linearGradient id="linear-gradient-4" x1="8.04" y1="19.3" x2="22.75" y2="44.77" gradientUnits="userSpaceOnUse"><stop offset="0" stop-color="#f5f6f6"/><stop offset="0.99" stop-color="#bfbebe"/></linearGradient><linearGradient id="linear-gradient-5" x1="20.77" y1="8.26" x2="24.34" y2="14.43" gradientUnits="userSpaceOnUse"><stop offset="0" stop-color="#fff"/><stop offset="1" stop-color="#f1f0f0"/></linearGradient><linearGradient id="linear-gradient-6" x1="17.71" y1="15.97" x2="29.59" y2="36.55" gradientUnits="userSpaceOnUse"><stop offset="0" stop-color="#fff"/><stop offset="1" stop-color="#d2d3d3"/></linearGradient><linearGradient id="linear-gradient-12" x1="26.28" y1="37.92" x2="34.25" y2="51.72" xlink:href="#linear-gradient-4"/><linearGradient id="linear-gradient-13" x1="33.33" y1="40.01" x2="39.5" y2="50.7" xlink:href="#linear-gradient-4"/><linearGradient id="linear-gradient-15" x1="32.89" y1="31.95" x2="34.16" y2="34.15" xlink:href="#linear-gradient-4"/><linearGradient id="linear-gradient-16" x1="32.26" y1="48.27" x2="26.74" y2="38.73" gradientUnits="userSpaceOnUse"><stop offset="0" stop-color="#2a5b79"/><stop offset="1" stop-color="#3388b0"/></linearGradient></defs><title>ENOMERR_AP_AppIcon</title><g id="Layer_6" data-name="Layer 6"><polygon points="45.5 17.5 46.5 18 52.5 25.5 49.5 28.5 42.5 22.5 43.5 18.5 45.5 17.5" stroke="#053755" stroke-linecap="round" stroke-linejoin="round" fill="url(#linear-gradient)"/><path d="M44.5,24.5a15.93,15.93,0,0,1,0-3c.15-1.11,1-4,1-4l-2-1h-9l-2,1s-2.15,2.39-2,3.5a22.59,22.59,0,0,0,1,3.5,24.42,24.42,0,0,0-1,7,20.69,20.69,0,0,0,2,8,4.39,4.39,0,0,0,2.5,3,9.93,9.93,0,0,0,4,0,9.93,9.93,0,0,0,4,0,4.39,4.39,0,0,0,2.5-3,20.69,20.69,0,0,1-2-8A24.42,24.42,0,0,1,44.5,24.5Z" stroke="#053755" stroke-linecap="round" stroke-linejoin="round" fill="url(#linear-gradient-2)"/><ellipse cx="39" cy="16" rx="3.5" ry="2.5" stroke="#053755" stroke-linecap="round" stroke-linejoin="round" fill="url(#linear-gradient-3)"/><polygon points="12.5 12 12.5 43.5 18.5 50.5 18.5 46 14.5 41.5 14.5 14 12.5 12" stroke="#797979" stroke-linecap="round" stroke-linejoin="round" fill="url(#linear-gradient-4)"/><polygon points="12.5 12 30 9 32.5 10.5 14.5 14 12.5 12" stroke="#797979" stroke-linecap="round" stroke-linejoin="round" fill="url(#linear-gradient-5)"/><polygon points="32.5 10.5 32.5 37.5 14.5 41.5 14.5 14 32.5 10.5" stroke="#797979" stroke-linecap="round" stroke-linejoin="round" fill="url(#linear-gradient-6)"/><polygon points="18.5 50.5 37.5 45.5 37.5 41.5 18.5 46 18.5 50.5" stroke="#797979" stroke-linecap="round" stroke-linejoin="round" fill="url(#linear-gradient-6)"/><polygon points="14.5 41.5 32.5 37.5 37.5 41.5 18.5 46 14.5 41.5" stroke="#797979" stroke-linecap="round" stroke-linejoin="round" fill="url(#linear-gradient-5)"/><polygon points="32.5 37.5 32.5 10.5 30 9 12.5 12 12.5 43.5 18.5 50.5 37.5 45.5 37.5 41.5 32.5 37.5" fill="none" stroke="#333332" stroke-linecap="round" stroke-linejoin="round"/><polygon points="14.5 34.5 32.5 30.5 37.5 34.5 18.5 39 14.5 34.5" stroke="#053755" stroke-linecap="round" stroke-linejoin="round" fill="url(#linear-gradient-3)"/><polygon points="14.5 26.5 32.5 22.5 37.5 26.5 18.5 31 14.5 26.5" stroke="#053755" stroke-linecap="round" stroke-linejoin="round" fill="url(#linear-gradient-3)"/><polygon points="14.5 18.5 32.5 14.5 37.5 18.5 18.5 23 14.5 18.5" stroke="#053755" stroke-linecap="round" stroke-linejoin="round" fill="url(#linear-gradient-3)"/><polygon points="26.5 48.5 32.5 54.5 32.5 38.5 29.5 33.5 26.5 36.5 26.5 48.5" stroke="#797979" stroke-linecap="round" stroke-linejoin="round" fill="url(#linear-gradient-12)"/><polygon points="40.5 51.5 32.5 54.5 32.5 38.5 40.5 36.5 40.5 51.5" stroke="#797979" stroke-linecap="round" stroke-linejoin="round" fill="url(#linear-gradient-13)"/><polygon points="29.5 33.5 29.5 30.5 37.5 29.5 37.5 32.5 40.5 36.5 32.5 38.5 29.5 33.5" stroke="#797979" stroke-linecap="round" stroke-linejoin="round" fill="url(#linear-gradient-6)"/><line x1="29.5" y1="33.5" x2="37.5" y2="32.5" stroke="#797979" stroke-linecap="round" stroke-linejoin="round" fill="url(#linear-gradient-15)"/><polygon points="37.5 32.5 37.5 29.5 29.5 30.5 29.5 33.5 26.5 36.5 26.5 48.5 32.5 54.5 40.5 51.5 40.5 36.5 37.5 32.5" fill="none" stroke="#333332" stroke-linecap="round" stroke-linejoin="round"/><polygon points="28 38 28 46 31 49 31 41 28 38 28 38" fill="url(#linear-gradient-16)"/></g></svg>