<svg id="Layer_5" data-name="Layer 5" xmlns="http://www.w3.org/2000/svg" xmlns:xlink="http://www.w3.org/1999/xlink" viewBox="0 0 64 64"><defs><linearGradient id="linear-gradient" x1="31.62" y1="10.15" x2="37.92" y2="21.07" gradientUnits="userSpaceOnUse"><stop offset="0" stop-color="#fff"/><stop offset="1" stop-color="#f1f0f0"/></linearGradient><linearGradient id="linear-gradient-2" x1="22.77" y1="16.81" x2="33.33" y2="35.1" gradientUnits="userSpaceOnUse"><stop offset="0" stop-color="#f5f6f6"/><stop offset="0.99" stop-color="#bfbebe"/></linearGradient><linearGradient id="linear-gradient-3" x1="34.93" y1="19.96" x2="42.53" y2="33.11" gradientUnits="userSpaceOnUse"><stop offset="0" stop-color="#fff"/><stop offset="1" stop-color="#d2d3d3"/></linearGradient><linearGradient id="linear-gradient-16" x1="54.83" y1="39.66" x2="50.81" y2="32.7" gradientUnits="userSpaceOnUse"><stop offset="0" stop-color="#74c4e2"/><stop offset="1" stop-color="#a4def6"/></linearGradient><linearGradient id="linear-gradient-17" x1="48.98" y1="48.04" x2="44.66" y2="40.56" gradientUnits="userSpaceOnUse"><stop offset="0" stop-color="#2a5b79"/><stop offset="1" stop-color="#84bedc"/></linearGradient><linearGradient id="linear-gradient-18" x1="55.47" y1="46.04" x2="51" y2="38.28" gradientUnits="userSpaceOnUse"><stop offset="0" stop-color="#386f8d"/><stop offset="1" stop-color="#8dd7f4"/></linearGradient><linearGradient id="linear-gradient-21" x1="-249.21" y1="45.62" x2="-245.49" y2="41.79" gradientTransform="matrix(-1, 0, 0, 1, -226.66, 0)" gradientUnits="userSpaceOnUse"><stop offset="0.31" stop-color="#161616"/><stop offset="0.77" stop-color="#515151"/><stop offset="0.83" stop-color="#535353"/><stop offset="0.87" stop-color="#5b5b5b"/><stop offset="0.9" stop-color="#696969"/><stop offset="0.92" stop-color="#7c7c7c"/><stop offset="0.94" stop-color="#959595"/><stop offset="0.96" stop-color="#b4b4b4"/><stop offset="0.98" stop-color="#d8d8d8"/><stop offset="1" stop-color="#fff"/></linearGradient><filter id="AI_3DS_GlowBlur_64x" x="-50" y="-50" width="200" height="200" name="AI_3DS_GlowBlur_64x"><feGaussianBlur stdDeviation="3"/></filter><linearGradient id="linear-gradient-22" x1="-261.43" y1="29.33" x2="-266.38" y2="20.75" gradientTransform="matrix(-1, 0, 0, 1, -226.66, 0)" gradientUnits="userSpaceOnUse"><stop offset="0" stop-color="#161616"/><stop offset="1" stop-color="#515151"/></linearGradient><linearGradient id="linear-gradient-25" x1="-258.29" y1="31.09" x2="-254.01" y2="38.49" gradientTransform="matrix(-1, 0, 0, 1, -226.66, 0)" gradientUnits="userSpaceOnUse"><stop offset="0" stop-color="#f5f6f6"/><stop offset="0.99" stop-color="#d2d3d3"/></linearGradient></defs><title>ENONCON_AP_AppIcon</title><polygon points="23.5 13 37.5 10 46.5 15.5 46.5 17.5 31.5 22.5 23.5 16.5 23.5 13" stroke="#797979" stroke-linecap="round" stroke-linejoin="round" fill="url(#linear-gradient)"/><polygon points="23.5 13 23.5 30.5 31.5 38.5 31.5 19.5 23.5 13" stroke="#797979" stroke-linecap="round" stroke-linejoin="round" fill="url(#linear-gradient-2)"/><polygon points="46.5 15.5 31.5 19.5 31.5 38.5 46.5 32.5 46.5 15.5" stroke="#797979" stroke-linecap="round" stroke-linejoin="round" fill="url(#linear-gradient-3)"/><polygon points="34.5 24.5 46.5 21.5 52.5 26 52.5 28.5 40.5 32 34.5 27.5 34.5 24.5" stroke="#797979" stroke-linecap="round" stroke-linejoin="round" fill="url(#linear-gradient)"/><polygon points="34.5 24.5 34.5 38.5 40.5 44.5 40.5 29.5 34.5 24.5" stroke="#797979" stroke-linecap="round" stroke-linejoin="round" fill="url(#linear-gradient-2)"/><polygon points="52.5 26 40.5 29.5 40.5 44.5 52.5 40 52.5 26" stroke="#797979" stroke-linecap="round" stroke-linejoin="round" fill="url(#linear-gradient-3)"/><polygon points="6.5 18 20.5 15 29.5 20.5 29.5 22.5 14.5 27.5 6.5 21.5 6.5 18" stroke="#797979" stroke-linecap="round" stroke-linejoin="round" fill="url(#linear-gradient)"/><polygon points="6.5 18 6.5 35.5 14.5 43.5 14.5 24.5 6.5 18" stroke="#797979" stroke-linecap="round" stroke-linejoin="round" fill="url(#linear-gradient-2)"/><polygon points="29.5 20.5 14.5 24.5 14.5 43.5 29.5 37.5 29.5 20.5" stroke="#797979" stroke-linecap="round" stroke-linejoin="round" fill="url(#linear-gradient-3)"/><polygon points="17.5 29.5 29.5 26.5 35.5 31 35.5 33.5 23.5 37 17.5 32.5 17.5 29.5" stroke="#797979" stroke-linecap="round" stroke-linejoin="round" fill="url(#linear-gradient)"/><polygon points="17.5 29.5 17.5 43.5 23.5 49.5 23.5 34.5 17.5 29.5" stroke="#797979" stroke-linecap="round" stroke-linejoin="round" fill="url(#linear-gradient-2)"/><polygon points="35.5 31 23.5 34.5 23.5 49.5 35.5 45 35.5 31" stroke="#797979" stroke-linecap="round" stroke-linejoin="round" fill="url(#linear-gradient-3)"/><polygon points="27.5 39 35.5 36.5 40.5 40 40.5 42.5 31.5 45.5 27.5 41.5 27.5 39" stroke="#797979" stroke-linecap="round" stroke-linejoin="round" fill="url(#linear-gradient)"/><polygon points="27.5 39 27.5 49.5 31.5 53.5 31.5 42.5 27.5 39" stroke="#797979" stroke-linecap="round" stroke-linejoin="round" fill="url(#linear-gradient-2)"/><polygon points="40.5 40 31.5 42.5 31.5 53.5 40.5 50.5 40.5 40" stroke="#797979" stroke-linecap="round" stroke-linejoin="round" fill="url(#linear-gradient-3)"/><polygon points="46.5 21.5 46.5 17.5 46.5 15.5 37.5 10 23.5 13 23.5 16.5 23.5 16.83 20.5 15 6.5 18 6.5 21.5 6.5 35.5 14.5 43.5 17.5 42.3 17.5 43.5 23.5 49.5 27.5 48 27.5 49.5 31.5 53.5 40.5 50.5 40.5 44.5 52.5 40 52.5 28.5 52.5 26 46.5 21.5" fill="none" stroke="#333332" stroke-linecap="round" stroke-linejoin="round"/><polygon points="48.5 32.75 52.5 31.5 57.5 35 57.5 37.5 52.5 41.5 48.5 38 48.5 32.75" stroke="#053755" stroke-linecap="round" stroke-linejoin="round" fill="url(#linear-gradient-16)"/><polygon points="44.5 39.5 44.5 44.5 48.5 48.5 48.5 43 44.5 39.5" stroke="#053755" stroke-linecap="round" stroke-linejoin="round" fill="url(#linear-gradient-17)"/><polygon points="57.5 35 57.5 45.5 48.5 48.5 48.5 43 52.5 41.5 52.5 36.5 57.5 35" stroke="#053755" stroke-linecap="round" stroke-linejoin="round" fill="url(#linear-gradient-18)"/><polygon points="44.5 39.5 48.5 38 52.5 41.5 48.5 43 44.5 39.5" stroke="#053755" stroke-linecap="round" stroke-linejoin="round" fill="url(#linear-gradient-16)"/><polygon points="48.5 33 52.5 36.5 52.5 41.5 48.5 38 48.5 33" stroke="#053755" stroke-linecap="round" stroke-linejoin="round" fill="url(#linear-gradient-18)"/><path d="M34.24,32.3a1,1,0,0,1,0,1.4L10.75,57.21a1,1,0,0,1-1.42,0L6.89,54.85a1,1,0,0,1,0-1.41L30.42,30a1,1,0,0,1,1.43,0Z" fill-rule="evenodd" fill="url(#linear-gradient-21)"/><g filter="url(#AI_3DS_GlowBlur_64x)"><polygon points="37.56 19.5 36 22.68 32.5 23.18 35.03 25.65 34.44 29.14 37.56 27.49 40.7 29.14 40.1 25.65 42.63 23.18 39.13 22.68 37.56 19.5" fill="#fff" fill-rule="evenodd"/></g><g filter="url(#AI_3DS_GlowBlur_64x)"><polygon points="40.13 32.43 38.94 34.85 36.26 35.24 38.2 37.12 37.74 39.79 40.13 38.53 42.52 39.79 42.06 37.12 44 35.24 41.33 34.85 40.13 32.43" fill="#fff" fill-rule="evenodd"/></g><g filter="url(#AI_3DS_GlowBlur_64x)"><polygon points="22.8 17.16 20.74 21.33 16.14 22 19.47 25.24 18.68 29.83 22.8 27.66 26.91 29.83 26.13 25.24 29.46 22 24.86 21.33 22.8 17.16" fill="#fff" fill-rule="evenodd"/></g><g filter="url(#AI_3DS_GlowBlur_64x)"><polygon points="37.56 19.5 36 22.68 32.5 23.18 35.03 25.65 34.44 29.14 37.56 27.49 40.7 29.14 40.1 25.65 42.63 23.18 39.13 22.68 37.56 19.5" fill="#fff" fill-rule="evenodd"/></g><g filter="url(#AI_3DS_GlowBlur_64x)"><polygon points="40.13 32.43 38.94 34.85 36.26 35.24 38.2 37.12 37.74 39.79 40.13 38.53 42.52 39.79 42.06 37.12 44 35.24 41.33 34.85 40.13 32.43" fill="#fff" fill-rule="evenodd"/></g><g filter="url(#AI_3DS_GlowBlur_64x)"><polygon points="22.8 17.16 20.74 21.33 16.14 22 19.47 25.24 18.68 29.83 22.8 27.66 26.91 29.83 26.13 25.24 29.46 22 24.86 21.33 22.8 17.16" fill="#fff" fill-rule="evenodd"/></g><polygon points="37.56 19.5 36 22.68 32.5 23.18 35.03 25.65 34.44 29.14 37.56 27.49 40.7 29.14 40.1 25.65 42.63 23.18 39.13 22.68 37.56 19.5" fill-rule="evenodd" fill="url(#linear-gradient-22)"/><polygon points="40.13 32.43 38.94 34.85 36.26 35.24 38.2 37.12 37.74 39.79 40.13 38.53 42.52 39.79 42.06 37.12 44 35.24 41.33 34.85 40.13 32.43" fill-rule="evenodd" fill="url(#linear-gradient-22)"/><polygon points="22.8 17.16 20.74 21.33 16.14 22 19.47 25.24 18.68 29.83 22.8 27.66 26.91 29.83 26.13 25.24 29.46 22 24.86 21.33 22.8 17.16" fill-rule="evenodd" fill="url(#linear-gradient-22)"/><path d="M34.24,32.3a1,1,0,0,1,0,1.4L10.75,57.21a1,1,0,0,1-1.42,0L6.89,54.85a1,1,0,0,1,0-1.41L30.42,30a1,1,0,0,1,1.43,0Z" fill="none" stroke="#333332" stroke-linecap="round" stroke-linejoin="round"/><path d="M34.24,32.3a1,1,0,0,1,0,1.4l-5.51,5.51a1,1,0,0,1-1.42,0l-2.44-2.37a.83.83,0,0,1,0-1.27L30.42,30a1,1,0,0,1,1.43,0Z" stroke="#333332" stroke-linecap="round" stroke-linejoin="round" fill="url(#linear-gradient-25)"/></svg>