<?xml version="1.0" encoding="utf-8"?>
<!-- Generator: Adobe Illustrator 25.2.3, SVG Export Plug-In . SVG Version: 6.00 Build 0)  -->
<svg version="1.1" id="Layer_1" xmlns="http://www.w3.org/2000/svg" xmlns:xlink="http://www.w3.org/1999/xlink" x="0px" y="0px"
	 viewBox="0 0 64 64" style="enable-background:new 0 0 64 64;" xml:space="preserve">
<style type="text/css">
	
		.De_x002D_emphasized_x0020_WHITE_x0020_for_x0020_Vector_x0020_Highlights{opacity:0.5;fill:#FFFFFF;stroke:#FFFFFF;stroke-width:3;stroke-linejoin:round;stroke-miterlimit:10;}
	.BLUE_x0020_Fill{fill:url(#SVGID_1_);}
	.st0{fill:url(#SVGID_2_);stroke:#043855;stroke-miterlimit:10;}
	.st1{fill:url(#SVGID_3_);}
	.st2{fill:url(#SVGID_4_);stroke:#797979;stroke-miterlimit:10;}
	.st3{fill:none;stroke:#333232;stroke-miterlimit:10;}
	.st4{fill:url(#SVGID_5_);stroke:#043855;stroke-miterlimit:10;}
	.st5{fill:url(#SVGID_6_);}
	.st6{fill:url(#SVGID_7_);}
	.st7{opacity:0.5;}
	.st8{fill:#FFFFFF;}
	.st9{fill:url(#SVGID_8_);}
	.st10{fill:#333232;}
	.st11{fill:url(#SVGID_9_);}
	.st12{opacity:0.4;}
	.st13{fill:url(#SVGID_10_);}
	.st14{fill:url(#SVGID_11_);}
	.st15{opacity:0.4;fill:#FFFFFF;}
	.st16{fill:none;stroke:#FFFFFF;stroke-width:3;stroke-linejoin:round;stroke-miterlimit:10;}
	.st17{fill:url(#SVGID_12_);}
	.st18{fill:url(#SVGID_13_);}
	.st19{fill:url(#SVGID_14_);}
	.st20{fill:url(#SVGID_15_);}
</style>
<linearGradient id="SVGID_1_" gradientUnits="userSpaceOnUse" x1="0" y1="0" x2="0.5" y2="0.866">
	<stop  offset="0" style="stop-color:#3387AF"/>
	<stop  offset="1" style="stop-color:#285A78"/>
</linearGradient>
<g>
	<linearGradient id="SVGID_2_" gradientUnits="userSpaceOnUse" x1="12.1455" y1="20.7918" x2="24.9944" y2="43.0467">
		<stop  offset="0" style="stop-color:#84BFDC"/>
		<stop  offset="1" style="stop-color:#285B79"/>
	</linearGradient>
	<polygon class="st0" points="6.61,30.88 20.32,16.07 27.18,16.24 27.18,41.79 6.61,41.79 	"/>
	<g>
		<g>
			<linearGradient id="SVGID_3_" gradientUnits="userSpaceOnUse" x1="14.0184" y1="7.2211" x2="43.7852" y2="58.7789">
				<stop  offset="0" style="stop-color:#FFFFFF"/>
				<stop  offset="1" style="stop-color:#D4D5D3"/>
			</linearGradient>
			<polygon class="st1" points="49.46,55.5 13.54,55.5 13.54,7.5 37.04,7.5 37.04,7.5 49.46,19.5 			"/>
		</g>
		<linearGradient id="SVGID_4_" gradientUnits="userSpaceOnUse" x1="35.574" y1="7.4779" x2="44.2523" y2="22.5091">
			<stop  offset="0" style="stop-color:#F5F6F6"/>
			<stop  offset="1" style="stop-color:#BFBEBE"/>
		</linearGradient>
		<polygon class="st2" points="35.54,19.5 35.54,7.5 36.92,7.5 49.46,19.45 49.46,19.5 		"/>
		<polygon class="st3" points="49.46,55.5 13.54,55.5 13.54,7.5 36.92,7.5 49.46,19.44 		"/>
	</g>
	<linearGradient id="SVGID_5_" gradientUnits="userSpaceOnUse" x1="16.355" y1="25.8308" x2="32.7162" y2="54.1692">
		<stop  offset="0" style="stop-color:#8DD7F4"/>
		<stop  offset="1" style="stop-color:#386F8D"/>
	</linearGradient>
	<rect x="6.54" y="31.5" class="st4" width="36" height="17"/>
</g>
<g>
	<g>
		
			<linearGradient id="SVGID_6_" gradientUnits="userSpaceOnUse" x1="17.8337" y1="11.0351" x2="26.6632" y2="26.3282" gradientTransform="matrix(1 0 0 1 1 0)">
			<stop  offset="0" style="stop-color:#3588B0"/>
			<stop  offset="1" style="stop-color:#285B79"/>
		</linearGradient>
		<path class="st5" d="M20.54,26.28c0-1.47,1.14-2.14,2.58-2.14c1.44,0,2.55,0.67,2.55,2.14c0,1.47-1.11,2.11-2.55,2.11
			C21.68,28.39,20.54,27.75,20.54,26.28z M25.69,10l-0.75,13h-3.51l-0.8-13H25.69z"/>
	</g>
</g>
<g>
	<linearGradient id="SVGID_7_" gradientUnits="userSpaceOnUse" x1="28.1233" y1="18.0947" x2="32.3479" y2="25.412">
		<stop  offset="0" style="stop-color:#3387AF"/>
		<stop  offset="1" style="stop-color:#285A78"/>
	</linearGradient>
	<path class="st6" d="M27.93,27.27c-0.11,0-0.21-0.04-0.3-0.12c-0.09-0.08-0.13-0.18-0.13-0.31V18.7c0-0.12,0.04-0.22,0.13-0.31
		c0.09-0.08,0.19-0.12,0.3-0.12c0.07,0,0.14,0.02,0.21,0.05l8.12,4.07c0.08,0.04,0.14,0.09,0.18,0.16c0.04,0.07,0.06,0.14,0.06,0.22
		c0,0.08-0.02,0.15-0.06,0.22c-0.04,0.07-0.1,0.12-0.18,0.16l-8.12,4.07C28.07,27.26,28,27.27,27.93,27.27z"/>
</g>
<g>
	<g class="st7">
		<g>
			<g>
				<path class="st8" d="M50.1,42.06c-2.71,0-4.91-2.2-4.91-4.91c0-2.71,2.2-4.91,4.91-4.91c2.71,0,4.91,2.2,4.91,4.91
					C55.01,39.86,52.81,42.06,50.1,42.06z"/>
				<path class="st8" d="M50.1,32.71c2.45,0,4.44,1.99,4.44,4.44s-1.99,4.44-4.44,4.44s-4.44-1.99-4.44-4.44S47.65,32.71,50.1,32.71
					 M50.1,31.78c-2.97,0-5.37,2.41-5.37,5.37s2.41,5.37,5.37,5.37s5.37-2.41,5.37-5.37S53.07,31.78,50.1,31.78L50.1,31.78z"/>
			</g>
			<g>
				<path class="st8" d="M50,56.44c-4.22,0-6.5-0.94-6.5-1.33v-7.16c0-3.2,2.6-5.8,5.8-5.8h1.39c3.2,0,5.8,2.6,5.8,5.8v7.16
					C56.5,55.49,54.22,56.44,50,56.44z"/>
				<path class="st8" d="M50.7,42.61c2.94,0,5.34,2.4,5.34,5.34v7c-0.46,0.38-2.59,1.02-6.04,1.02s-5.57-0.64-6.04-1.02v-7
					c0-2.94,2.4-5.34,5.34-5.34H50.7 M50.7,41.68H49.3c-3.46,0-6.27,2.81-6.27,6.27v7.16c0,0.99,3.12,1.79,6.96,1.79
					s6.96-0.8,6.96-1.79v-7.16C56.96,44.48,54.16,41.68,50.7,41.68L50.7,41.68z"/>
			</g>
			<g>
				<g>
					<g>
						<path class="st8" d="M48.31,37.15c0-1.97,0.8-3.58,1.79-3.58c-1.97,0-3.58,1.61-3.58,3.58S48.31,39.12,48.31,37.15z"/>
					</g>
					<g>
						<path class="st8" d="M53.2,44.18c0.61,0.98,0.98,2.25,0.98,3.65v6.89c0.47-0.14,0.79-0.28,0.93-0.4v-6.3
							C55.11,46.45,54.35,45.07,53.2,44.18z"/>
					</g>
					<g>
						<path class="st8" d="M46.75,54.99v-7.01c0-2.96,1.43-5.37,3.18-5.37h-0.27c-2.63,0-4.78,2.41-4.78,5.37v7.01
							C45.3,55.38,47.02,55.38,46.75,54.99z"/>
					</g>
					<path class="st8" d="M51.33,33.57c-0.47,0-0.78,0.39-0.78,1.04c0,1.2,1.03,2.54,1.9,2.54c0.47,0,0.78-0.4,0.78-1.04
						C53.23,34.9,52.2,33.57,51.33,33.57z"/>
				</g>
			</g>
		</g>
		<g>
			<g>
				<linearGradient id="SVGID_8_" gradientUnits="userSpaceOnUse" x1="47.6472" y1="32.8996" x2="52.5549" y2="41.4">
					<stop  offset="0" style="stop-color:#F5F6F6"/>
					<stop  offset="1" style="stop-color:#BFBEBE"/>
				</linearGradient>
				<path class="st9" d="M50.1,42.06c-2.71,0-4.91-2.2-4.91-4.91c0-2.71,2.2-4.91,4.91-4.91c2.71,0,4.91,2.2,4.91,4.91
					C55.01,39.86,52.81,42.06,50.1,42.06z"/>
				<path class="st10" d="M50.1,32.71c2.45,0,4.44,1.99,4.44,4.44s-1.99,4.44-4.44,4.44s-4.44-1.99-4.44-4.44
					S47.65,32.71,50.1,32.71 M50.1,31.78c-2.97,0-5.37,2.41-5.37,5.37s2.41,5.37,5.37,5.37s5.37-2.41,5.37-5.37
					S53.07,31.78,50.1,31.78L50.1,31.78z"/>
			</g>
			<g>
				<linearGradient id="SVGID_9_" gradientUnits="userSpaceOnUse" x1="45.7029" y1="43.325" x2="53.5613" y2="56.9361">
					<stop  offset="0" style="stop-color:#F5F6F6"/>
					<stop  offset="1" style="stop-color:#BFBEBE"/>
				</linearGradient>
				<path class="st11" d="M50,56.44c-4.22,0-6.5-0.94-6.5-1.33v-7.16c0-3.2,2.6-5.8,5.8-5.8h1.39c3.2,0,5.8,2.6,5.8,5.8v7.16
					C56.5,55.49,54.22,56.44,50,56.44z"/>
				<path class="st10" d="M50.7,42.61c2.94,0,5.34,2.4,5.34,5.34v7c-0.46,0.38-2.59,1.02-6.04,1.02s-5.57-0.64-6.04-1.02v-7
					c0-2.94,2.4-5.34,5.34-5.34H50.7 M50.7,41.68H49.3c-3.46,0-6.27,2.81-6.27,6.27v7.16c0,0.99,3.12,1.79,6.96,1.79
					s6.96-0.8,6.96-1.79v-7.16C56.96,44.48,54.16,41.68,50.7,41.68L50.7,41.68z"/>
			</g>
			<g>
				<g>
					<g class="st12">
						<linearGradient id="SVGID_10_" gradientUnits="userSpaceOnUse" x1="48.3101" y1="33.7359" x2="48.3101" y2="38.4957">
							<stop  offset="0" style="stop-color:#FFFFFF"/>
							<stop  offset="1" style="stop-color:#FFFFFF;stop-opacity:0"/>
						</linearGradient>
						<path class="st13" d="M48.31,37.15c0-1.97,0.8-3.58,1.79-3.58c-1.97,0-3.58,1.61-3.58,3.58S48.31,39.12,48.31,37.15z"/>
					</g>
					<g class="st12">
						<path class="st8" d="M53.2,44.18c0.61,0.98,0.98,2.25,0.98,3.65v6.89c0.47-0.14,0.79-0.28,0.93-0.4v-6.3
							C55.11,46.45,54.35,45.07,53.2,44.18z"/>
					</g>
					<g class="st12">
						<linearGradient id="SVGID_11_" gradientUnits="userSpaceOnUse" x1="47.4133" y1="42.6071" x2="47.4133" y2="55.2811">
							<stop  offset="0" style="stop-color:#FFFFFF"/>
							<stop  offset="1" style="stop-color:#FFFFFF;stop-opacity:0"/>
						</linearGradient>
						<path class="st14" d="M46.75,54.99v-7.01c0-2.96,1.43-5.37,3.18-5.37h-0.27c-2.63,0-4.78,2.41-4.78,5.37v7.01
							C45.3,55.38,47.02,55.38,46.75,54.99z"/>
					</g>
					<path class="st15" d="M51.33,33.57c-0.47,0-0.78,0.39-0.78,1.04c0,1.2,1.03,2.54,1.9,2.54c0.47,0,0.78-0.4,0.78-1.04
						C53.23,34.9,52.2,33.57,51.33,33.57z"/>
				</g>
			</g>
		</g>
		<g>
			<g>
				<path class="st16" d="M50.1,42.06c-2.71,0-4.91-2.2-4.91-4.91c0-2.71,2.2-4.91,4.91-4.91c2.71,0,4.91,2.2,4.91,4.91
					C55.01,39.86,52.81,42.06,50.1,42.06z"/>
				<path class="st16" d="M50.1,32.71c2.45,0,4.44,1.99,4.44,4.44s-1.99,4.44-4.44,4.44s-4.44-1.99-4.44-4.44
					S47.65,32.71,50.1,32.71 M50.1,31.78c-2.97,0-5.37,2.41-5.37,5.37s2.41,5.37,5.37,5.37s5.37-2.41,5.37-5.37
					S53.07,31.78,50.1,31.78L50.1,31.78z"/>
			</g>
			<g>
				<path class="st16" d="M50,56.44c-4.22,0-6.5-0.94-6.5-1.33v-7.16c0-3.2,2.6-5.8,5.8-5.8h1.39c3.2,0,5.8,2.6,5.8,5.8v7.16
					C56.5,55.49,54.22,56.44,50,56.44z"/>
				<path class="st16" d="M50.7,42.61c2.94,0,5.34,2.4,5.34,5.34v7c-0.46,0.38-2.59,1.02-6.04,1.02s-5.57-0.64-6.04-1.02v-7
					c0-2.94,2.4-5.34,5.34-5.34H50.7 M50.7,41.68H49.3c-3.46,0-6.27,2.81-6.27,6.27v7.16c0,0.99,3.12,1.79,6.96,1.79
					s6.96-0.8,6.96-1.79v-7.16C56.96,44.48,54.16,41.68,50.7,41.68L50.7,41.68z"/>
			</g>
			<g>
				<g>
					<g>
						<path class="st16" d="M48.31,37.15c0-1.97,0.8-3.58,1.79-3.58c-1.97,0-3.58,1.61-3.58,3.58S48.31,39.12,48.31,37.15z"/>
					</g>
					<g>
						<path class="st16" d="M53.2,44.18c0.61,0.98,0.98,2.25,0.98,3.65v6.89c0.47-0.14,0.79-0.28,0.93-0.4v-6.3
							C55.11,46.45,54.35,45.07,53.2,44.18z"/>
					</g>
					<g>
						<path class="st16" d="M46.75,54.99v-7.01c0-2.96,1.43-5.37,3.18-5.37h-0.27c-2.63,0-4.78,2.41-4.78,5.37v7.01
							C45.3,55.38,47.02,55.38,46.75,54.99z"/>
					</g>
					<path class="st16" d="M51.33,33.57c-0.47,0-0.78,0.39-0.78,1.04c0,1.2,1.03,2.54,1.9,2.54c0.47,0,0.78-0.4,0.78-1.04
						C53.23,34.9,52.2,33.57,51.33,33.57z"/>
				</g>
			</g>
		</g>
	</g>
	<g>
		<g>
			<linearGradient id="SVGID_12_" gradientUnits="userSpaceOnUse" x1="47.6472" y1="32.8996" x2="52.5549" y2="41.4">
				<stop  offset="0" style="stop-color:#F5F6F6"/>
				<stop  offset="1" style="stop-color:#BFBEBE"/>
			</linearGradient>
			<path class="st17" d="M50.1,42.06c-2.71,0-4.91-2.2-4.91-4.91c0-2.71,2.2-4.91,4.91-4.91c2.71,0,4.91,2.2,4.91,4.91
				C55.01,39.86,52.81,42.06,50.1,42.06z"/>
			<path class="st10" d="M50.1,32.71c2.45,0,4.44,1.99,4.44,4.44s-1.99,4.44-4.44,4.44s-4.44-1.99-4.44-4.44S47.65,32.71,50.1,32.71
				 M50.1,31.78c-2.97,0-5.37,2.41-5.37,5.37s2.41,5.37,5.37,5.37s5.37-2.41,5.37-5.37S53.07,31.78,50.1,31.78L50.1,31.78z"/>
		</g>
		<g>
			<linearGradient id="SVGID_13_" gradientUnits="userSpaceOnUse" x1="45.7029" y1="43.325" x2="53.5613" y2="56.9361">
				<stop  offset="0" style="stop-color:#F5F6F6"/>
				<stop  offset="1" style="stop-color:#BFBEBE"/>
			</linearGradient>
			<path class="st18" d="M50,56.44c-4.22,0-6.5-0.94-6.5-1.33v-7.16c0-3.2,2.6-5.8,5.8-5.8h1.39c3.2,0,5.8,2.6,5.8,5.8v7.16
				C56.5,55.49,54.22,56.44,50,56.44z"/>
			<path class="st10" d="M50.7,42.61c2.94,0,5.34,2.4,5.34,5.34v7c-0.46,0.38-2.59,1.02-6.04,1.02s-5.57-0.64-6.04-1.02v-7
				c0-2.94,2.4-5.34,5.34-5.34H50.7 M50.7,41.68H49.3c-3.46,0-6.27,2.81-6.27,6.27v7.16c0,0.99,3.12,1.79,6.96,1.79
				s6.96-0.8,6.96-1.79v-7.16C56.96,44.48,54.16,41.68,50.7,41.68L50.7,41.68z"/>
		</g>
		<g>
			<g>
				<g class="st12">
					<linearGradient id="SVGID_14_" gradientUnits="userSpaceOnUse" x1="48.3101" y1="33.7359" x2="48.3101" y2="38.4957">
						<stop  offset="0" style="stop-color:#FFFFFF"/>
						<stop  offset="1" style="stop-color:#FFFFFF;stop-opacity:0"/>
					</linearGradient>
					<path class="st19" d="M48.31,37.15c0-1.97,0.8-3.58,1.79-3.58c-1.97,0-3.58,1.61-3.58,3.58S48.31,39.12,48.31,37.15z"/>
				</g>
				<g class="st12">
					<path class="st8" d="M53.2,44.18c0.61,0.98,0.98,2.25,0.98,3.65v6.89c0.47-0.14,0.79-0.28,0.93-0.4v-6.3
						C55.11,46.45,54.35,45.07,53.2,44.18z"/>
				</g>
				<g class="st12">
					<linearGradient id="SVGID_15_" gradientUnits="userSpaceOnUse" x1="47.4133" y1="42.6071" x2="47.4133" y2="55.2811">
						<stop  offset="0" style="stop-color:#FFFFFF"/>
						<stop  offset="1" style="stop-color:#FFFFFF;stop-opacity:0"/>
					</linearGradient>
					<path class="st20" d="M46.75,54.99v-7.01c0-2.96,1.43-5.37,3.18-5.37h-0.27c-2.63,0-4.78,2.41-4.78,5.37v7.01
						C45.3,55.38,47.02,55.38,46.75,54.99z"/>
				</g>
				<path class="st15" d="M51.33,33.57c-0.47,0-0.78,0.39-0.78,1.04c0,1.2,1.03,2.54,1.9,2.54c0.47,0,0.78-0.4,0.78-1.04
					C53.23,34.9,52.2,33.57,51.33,33.57z"/>
			</g>
		</g>
	</g>
</g>
<g>
	<path class="st8" d="M21.27,41.72l2.38,0.75c-0.37,1.33-0.97,2.31-1.82,2.96c-0.85,0.65-1.93,0.97-3.23,0.97
		c-1.62,0-2.94-0.55-3.98-1.66c-1.04-1.11-1.56-2.61-1.56-4.53c0-2.03,0.52-3.6,1.57-4.72s2.42-1.68,4.13-1.68
		c1.49,0,2.7,0.44,3.63,1.32c0.55,0.52,0.97,1.27,1.25,2.24l-2.43,0.58c-0.14-0.63-0.44-1.13-0.9-1.49
		c-0.46-0.37-1.01-0.55-1.66-0.55c-0.9,0-1.63,0.32-2.2,0.97c-0.56,0.65-0.84,1.7-0.84,3.15c0,1.54,0.28,2.63,0.83,3.29
		c0.55,0.65,1.27,0.98,2.16,0.98c0.65,0,1.21-0.21,1.69-0.62S21.06,42.61,21.27,41.72z"/>
	<path class="st8" d="M27,46V34h9v2h-7v3h6v2h-6v3h7v2H27z"/>
</g>
</svg>
