<svg id="_1X_copy_2" data-name="1X copy 2" xmlns="http://www.w3.org/2000/svg" xmlns:xlink="http://www.w3.org/1999/xlink" viewBox="0 0 64 64"><defs><style>.cls-1{fill:url(#white_left);}.cls-2{fill:url(#top_white);}.cls-3{fill:#323232;}.cls-4{fill:none;stroke:#323232;}.cls-10,.cls-11,.cls-12,.cls-16,.cls-4,.cls-5,.cls-6,.cls-8,.cls-9{stroke-linecap:round;}.cls-14,.cls-15,.cls-16,.cls-17,.cls-4{stroke-miterlimit:10;}.DARK-GREY-Fill{fill:url(#linear-gradient);}.cls-14,.cls-5,.cls-6,.cls-8,.cls-9{stroke:#6d6d6d;}.cls-10,.cls-11,.cls-12,.cls-5,.cls-6,.cls-8,.cls-9{stroke-linejoin:round;}.cls-5,.cls-6{stroke-width:0.25px;}.cls-5{fill:url(#linear-gradient-2);}.cls-6{fill:url(#linear-gradient-3);}.cls-7{fill:url(#linear-gradient-4);}.cls-8{fill:url(#linear-gradient-5);}.cls-9{fill:url(#linear-gradient-6);}.cls-10,.cls-11,.cls-12,.cls-15{stroke:#00415f;}.cls-10{fill:url(#linear-gradient-7);}.cls-11{fill:url(#linear-gradient-8);}.cls-12{fill:url(#linear-gradient-9);}.cls-13{fill:#343434;}.cls-14,.cls-15,.cls-16,.cls-17{stroke-width:0.69px;}.cls-14{fill:url(#linear-gradient-10);}.cls-15{fill:url(#linear-gradient-11);}.cls-16{fill:#2d2d2d;}.cls-16,.cls-17{stroke:#2d2d2d;}.cls-17{fill:url(#linear-gradient-12);}</style><linearGradient id="white_left" x1="6" y1="44.11" x2="58.72" y2="44.11" gradientUnits="userSpaceOnUse"><stop offset="0" stop-color="#f5f5f5"/><stop offset="1" stop-color="#bebebe"/></linearGradient><linearGradient id="top_white" x1="6" y1="44.11" x2="58.72" y2="44.11" gradientUnits="userSpaceOnUse"><stop offset="0" stop-color="#fff"/><stop offset="1" stop-color="#f0f0f0"/></linearGradient><linearGradient id="linear-gradient" x1="12.98" y1="43.66" x2="41.33" y2="43.66" gradientUnits="userSpaceOnUse"><stop offset="0" stop-color="#464646"/><stop offset="1" stop-color="#141414"/></linearGradient><linearGradient id="linear-gradient-2" x1="41.31" y1="17.68" x2="63.36" y2="37.85" gradientUnits="userSpaceOnUse"><stop offset="0" stop-color="#f0f0f0"/><stop offset="1" stop-color="#b3b3b3"/></linearGradient><linearGradient id="linear-gradient-3" x1="50.85" y1="31.16" x2="88.44" y2="72.38" xlink:href="#linear-gradient-2"/><linearGradient id="linear-gradient-4" x1="23.65" y1="1.67" x2="43.29" y2="37.6" xlink:href="#linear-gradient-2"/><linearGradient id="linear-gradient-5" x1="37.12" y1="20.72" x2="51.63" y2="33.99" xlink:href="#linear-gradient-2"/><linearGradient id="linear-gradient-6" x1="43.85" y1="28.26" x2="49.44" y2="38.5" xlink:href="#linear-gradient-2"/><linearGradient id="linear-gradient-7" x1="40.41" y1="16.04" x2="70.07" y2="38.72" gradientUnits="userSpaceOnUse"><stop offset="0" stop-color="#92d5ee"/><stop offset="0.48" stop-color="#599bb4"/><stop offset="1" stop-color="#185971"/></linearGradient><linearGradient id="linear-gradient-8" x1="48.25" y1="19.9" x2="66.23" y2="30.35" xlink:href="#linear-gradient-7"/><linearGradient id="linear-gradient-9" x1="25.41" y1="-0.58" x2="56.08" y2="43.63" xlink:href="#linear-gradient-7"/><linearGradient id="linear-gradient-10" x1="275.95" y1="-73.59" x2="271.74" y2="-77.81" gradientTransform="matrix(0.91, -0.42, 0.42, 0.91, -195.57, 209.78)" gradientUnits="userSpaceOnUse"><stop offset="0.1" stop-color="#575757"/><stop offset="0.5" stop-color="#c4c4c4"/><stop offset="1" stop-color="#fff"/></linearGradient><linearGradient id="linear-gradient-11" x1="275.92" y1="-73.56" x2="271.71" y2="-77.78" gradientTransform="matrix(0.91, -0.42, 0.42, 0.91, -195.57, 209.78)" gradientUnits="userSpaceOnUse"><stop offset="0.1" stop-color="#195a72"/><stop offset="0.5" stop-color="#5a9cb5"/><stop offset="1" stop-color="#93d2f0"/></linearGradient><linearGradient id="linear-gradient-12" x1="280.04" y1="-86.13" x2="284.27" y2="-81.89" gradientTransform="matrix(0.91, -0.42, 0.42, 0.91, -195.57, 209.78)" gradientUnits="userSpaceOnUse"><stop offset="0" stop-color="#505050"/><stop offset="0.9" stop-color="#2d2d2d"/></linearGradient></defs><title>8966_A33AAe__R21XArtboard 1</title><g id="Layer_37_copy_4" data-name="Layer 37 copy 4"><polygon class="cls-1" points="58.72 39.16 38.81 56.97 6 43.59 25.91 31.25 58.72 39.16"/><path class="cls-2" d="M26.08,32.32l30.56,7.37-18,16.12L8.2,43.4,26.08,32.32m-.17-1.07L6,43.59,38.81,57,58.72,39.16,25.91,31.25Z"/><path class="cls-3" d="M26,31.52,58.2,39.29,38.76,56.68,6.55,43.54l19.4-12m0-.27L6,43.59,38.81,57,58.72,39.16,25.91,31.25Z"/><path class="cls-4" d="M32.63,39.45l-3.14,2.12M37.2,47,40,44.66l-10.42-3-5.67-1.8L21.17,41.7"/><path class="DARK-GREY-Fill" d="M32.32,45.35l9,2.83L36.45,52l-8.89-3.31ZM13,43.25,20.37,46l4.81-3-7.84-2.54ZM27.61,38l9,2.61,4.21-2.93-9.09-2.38Z"/></g><g id="CUBE_copy_11" data-name="CUBE copy 11"><polygon class="cls-5" points="34.55 20.57 43.62 15.68 50.96 17.42 41.59 22.61 34.55 20.57"/><polygon class="cls-6" points="48.49 32.8 58.45 27.35 58.45 34.53 48.49 40.72 48.49 32.8"/><polygon class="cls-7" points="41.59 22.61 41.59 30.87 48.49 32.8 48.49 40.72 34.56 35.97 34.55 20.57 41.59 22.61"/><line class="cls-8" x1="41.59" y1="22.61" x2="34.55" y2="20.57"/><line class="cls-9" x1="48.49" y1="32.81" x2="48.49" y2="40.72"/><polygon class="cls-10" points="48.49 24.56 58.45 19.25 58.45 27.35 48.49 32.8 48.49 24.56"/><polygon class="cls-11" points="41.59 22.61 50.96 17.42 58.45 19.25 48.49 24.56 41.59 22.61"/><polygon class="cls-12" points="48.49 24.56 48.49 32.8 41.59 30.87 41.59 22.61 48.49 24.56"/><path class="cls-13" d="M43.62,15.67l14.82,3.58V34.53l-9.95,6.19L34.56,36V20.57l9.07-4.9m-.14-1.07-.34.19-9.06,4.9-.53.29v16.7l.68.23,13.93,4.76.45.15.4-.25L59,35.38l.47-.3V18.46l-.76-.18L43.85,14.69l-.37-.09Z"/></g><path class="cls-14" d="M26.89,14.13c-1.55-.57-3.09-.27-3.44.68L17.1,31.91c-.89,2.39.1,8.2.1,8.2s4.57-3.73,5.46-6.12L29,16.89C29.39,15.94,28.43,14.71,26.89,14.13Z"/><polygon class="cls-15" points="21.39 20.32 26.98 22.41 22.66 33.99 17.1 31.91 21.39 20.32"/><path class="cls-16" d="M19.72,37.82l-2.92-1.1c.14,1.83.4,3.39.4,3.39S18.43,39.11,19.72,37.82Z"/><path class="cls-17" d="M29,16.89c.36-1-.6-2.18-2.14-2.76s-3.09-.27-3.44.68l-.83,2.24,5.58,2.08Z"/></svg>