<svg xmlns="http://www.w3.org/2000/svg" xmlns:xlink="http://www.w3.org/1999/xlink" viewBox="0 0 64 64"><defs><linearGradient id="linear-gradient" x1="25.15" y1="11.68" x2="42.79" y2="42.24" gradientUnits="userSpaceOnUse"><stop offset="0" stop-color="#f5f6f6"/><stop offset="0.99" stop-color="#d2d3d3"/></linearGradient><linearGradient id="linear-gradient-2" x1="32.36" y1="13.92" x2="36.08" y2="20.38" xlink:href="#linear-gradient"/><linearGradient id="linear-gradient-3" x1="22.68" y1="20.92" x2="19.32" y2="15.08" gradientUnits="userSpaceOnUse"><stop offset="0" stop-color="#2a5b79"/><stop offset="1" stop-color="#3388b0"/></linearGradient><linearGradient id="linear-gradient-4" x1="28.25" y1="22.8" x2="26.75" y2="20.2" xlink:href="#linear-gradient-3"/><linearGradient id="linear-gradient-5" x1="43.38" y1="29.52" x2="40.76" y2="24.98" xlink:href="#linear-gradient-3"/><linearGradient id="linear-gradient-7" x1="17.52" y1="28.84" x2="15.53" y2="25.39" xlink:href="#linear-gradient-3"/><linearGradient id="linear-gradient-8" x1="37.39" y1="39.6" x2="34.75" y2="35.03" xlink:href="#linear-gradient-3"/><linearGradient id="linear-gradient-9" x1="34.31" y1="45.45" x2="32.39" y2="42.12" xlink:href="#linear-gradient-3"/><linearGradient id="linear-gradient-10" x1="38.65" y1="33.15" x2="36.6" y2="29.6" xlink:href="#linear-gradient-3"/><linearGradient id="linear-gradient-11" x1="30.26" y1="31.72" x2="28.37" y2="28.45" xlink:href="#linear-gradient-3"/><linearGradient id="linear-gradient-12" x1="24.24" y1="29.53" x2="22.76" y2="26.97" xlink:href="#linear-gradient-3"/><linearGradient id="linear-gradient-14" x1="46" y1="48.93" x2="38" y2="35.07" xlink:href="#linear-gradient-3"/><linearGradient id="linear-gradient-15" x1="47.27" y1="45.81" x2="41.59" y2="35.97" xlink:href="#linear-gradient-3"/></defs><title>ProjectResourceExecution</title><g id="Layer_7" data-name="Layer 7"><polygon points="11.5 14.5 16.59 25.34 56.5 37.5 40.5 18.5 29.5 14.5 11.5 14.5" stroke="#333332" stroke-linecap="round" stroke-linejoin="round" fill="url(#linear-gradient)"/><polygon points="29.5 14.5 29.5 18.5 40.5 18.5 29.5 14.5" stroke="#333332" stroke-linecap="round" stroke-linejoin="round" fill="url(#linear-gradient-2)"/><polygon points="25 17 16 17 17 19 26 19 25 17 25 17" fill="url(#linear-gradient-3)"/><path d="M27.5,20A1.5,1.5,0,1,0,29,21.5,1.5,1.5,0,0,0,27.5,20Z" fill="url(#linear-gradient-4)"/><polygon points="39 26 44 26 46 28 39 28 39 26" fill="url(#linear-gradient-5)"/><polygon points="7.5 26.5 30.5 50.5 56.5 37.5 36.5 22.5 21.5 22.5 7.5 26.5" stroke="#333332" stroke-linecap="round" stroke-linejoin="round" fill="url(#linear-gradient)"/><polygon points="19.5 25 11.73 27.58 13.47 29.38 21.32 26.64 19.5 25 19.5 25" fill="url(#linear-gradient-7)"/><polygon points="45.32 31.85 24.38 41.02 26.59 43.2 47.76 33.62 45.32 31.85 45.32 31.85" fill="url(#linear-gradient-8)"/><polygon points="36.49 40.84 27.84 44.75 30.09 47 38.86 42.82 36.49 40.84 36.49 40.84" fill="url(#linear-gradient-9)"/><polygon points="40.75 28.5 32 32.25 34.38 34.54 43.25 30.5 40.75 28.5 40.75 28.5" fill="url(#linear-gradient-10)"/><polygon points="31 28 25.25 30.25 27.54 32.48 33.37 29.93 31 28 31 28" fill="url(#linear-gradient-11)"/><path d="M23.5,27c-1.1,0-2,.56-2,1.25s.9,1.25,2,1.25,2-.56,2-1.25S24.6,27,23.5,27Z" fill="url(#linear-gradient-12)"/><polygon points="21.5 22.5 26.5 26.5 36.5 22.5 21.5 22.5" fill="none" stroke="#333332" stroke-linecap="round" stroke-linejoin="round"/></g><g id="Layer_8" data-name="Layer 8"><g opacity="0.45"><path d="M43.5,31a.5.5,0,0,1,0,1H43v-.5H41V32h-.5a.5.5,0,0,1,0-1h3m0-1h-3a1.5,1.5,0,0,0,0,3H41a1,1,0,0,0,.87-.5h.26A1,1,0,0,0,43,33h.5a1.5,1.5,0,0,0,0-3Z" fill="#fff"/><path d="M43,31.5v1.56a8.36,8.36,0,0,0-2,0V31.5h2m0-1H41a1,1,0,0,0-1,1v1.56a1,1,0,0,0,1,1h.11c.32,0,.61,0,.89,0s.57,0,.89,0H43a1,1,0,0,0,1-1V31.5a1,1,0,0,0-1-1Z" fill="#fff"/><path d="M48.29,34l.15.15-.15.14L48,34h.29m0-1H48a1,1,0,0,0-.92.62,1,1,0,0,0,.21,1.09l.3.29a1,1,0,0,0,.7.29A1,1,0,0,0,49,35l.15-.15a1,1,0,0,0,.29-.7,1,1,0,0,0-.29-.71L49,33.29a1,1,0,0,0-.71-.29Z" fill="#fff"/><path d="M49.85,35.56l.15.15V36l-.29-.29.14-.15m0-1a1,1,0,0,0-.7.29L49,35a1,1,0,0,0,0,1.41l.29.3A1,1,0,0,0,50,37a.84.84,0,0,0,.38-.08A1,1,0,0,0,51,36v-.29a1,1,0,0,0-.29-.71l-.15-.15a1,1,0,0,0-.71-.29Z" fill="#fff"/><path d="M48.71,33,51,35.29V36.5a.5.5,0,0,1-1,0v-.79l-.15-.15-.14.15-.68.68A9.53,9.53,0,0,0,47.61,35l.68-.68.15-.14L48.29,34H47.5a.5.5,0,0,1,0-1h1.21m0-1H47.5a1.5,1.5,0,0,0-.86,2.73,1.53,1.53,0,0,0,0,.3,1,1,0,0,0,.38.73A8.21,8.21,0,0,1,48.24,37a1,1,0,0,0,.73.38H49a1,1,0,0,0,.24,0A1.5,1.5,0,0,0,52,36.5V35.29a1,1,0,0,0-.29-.7l-2.3-2.3a1,1,0,0,0-.7-.29Z" fill="#fff"/><path d="M42,33a8.26,8.26,0,0,1,1,.06A9,9,0,0,1,47.61,35,9.53,9.53,0,0,1,49,36.39a9,9,0,1,1-8-3.33A8.26,8.26,0,0,1,42,33m0,17a8,8,0,1,0-8-8,8,8,0,0,0,8,8m0-18a8.7,8.7,0,0,0-1.11.07,10,10,0,1,0,8.92,3.69,11.65,11.65,0,0,0-1.57-1.57,9.94,9.94,0,0,0-5.13-2.12A8.7,8.7,0,0,0,42,32Zm0,17a7,7,0,1,1,7-7,7,7,0,0,1-7,7Z" fill="#fff"/><path d="M42,35a7,7,0,1,1-7,7,7,7,0,0,1,7-7m2.5,11a.47.47,0,0,0,.35-.15.48.48,0,0,0,0-.7l-.7-.71L42,42.29V36.5a.49.49,0,0,0-.4-.48l-.1,0a.5.5,0,0,0-.5.5v6a.47.47,0,0,0,.15.35l3,3a.47.47,0,0,0,.35.15M42,34a8,8,0,1,0,8,8,8,8,0,0,0-8-8Z" fill="#fff"/><path d="M42,34a8,8,0,1,1-8,8,8,8,0,0,1,8-8m0,15a7,7,0,1,0-7-7,7,7,0,0,0,7,7m0-16a9,9,0,1,0,9,9,9,9,0,0,0-9-9Zm0,15a6,6,0,1,1,6-6,6,6,0,0,1-6,6Z" fill="#fff"/><path d="M42,34a8,8,0,1,1-8,8,8,8,0,0,1,8-8m0,15a7,7,0,1,0-7-7,7,7,0,0,0,7,7m0-16a9,9,0,1,0,9,9,9,9,0,0,0-9-9Zm0,15a6,6,0,1,1,6-6,6,6,0,0,1-6,6Z" fill="#fff"/><path d="M41.5,36l.1,0a.49.49,0,0,1,.4.48v5.79l2.15,2.15.7.71a.48.48,0,0,1,0,.7.48.48,0,0,1-.7,0l-3-3A.47.47,0,0,1,41,42.5v-6a.5.5,0,0,1,.5-.5m0-1A1.5,1.5,0,0,0,40,36.5v6a1.5,1.5,0,0,0,.44,1.06l3,3a1.5,1.5,0,0,0,2.12-2.12l-.71-.71L43,41.88V36.5A1.49,1.49,0,0,0,41.81,35a1.12,1.12,0,0,0-.31,0Z" fill="#fff"/></g><line x1="40.5" y1="31.5" x2="43.5" y2="31.5" fill="none" stroke="#053755" stroke-linecap="round" stroke-linejoin="round"/><rect x="41" y="31.5" width="2" height="2" fill="#053755"/><polyline points="47.5 33.5 48.5 33.5 50.5 35.5 50.5 36.5" fill="none" stroke="#053755" stroke-linecap="round" stroke-miterlimit="10"/><line x1="46.5" y1="37.5" x2="49.5" y2="34.5" fill="none" stroke="#053755" stroke-miterlimit="10" stroke-width="2"/><circle cx="42" cy="42" r="8.5" stroke="#333332" stroke-linecap="round" stroke-linejoin="round" fill="url(#linear-gradient)"/><circle cx="42" cy="42" r="7.5" fill="none" stroke-linecap="round" stroke-linejoin="round" stroke="url(#linear-gradient-14)"/><path d="M42,36a4.19,4.19,0,0,0-.5,0V42.5l4.21,4.21A6,6,0,0,0,42,36Z" fill="url(#linear-gradient-15)"/><polyline points="41.5 36.5 41.5 42.5 44.5 45.5" fill="none" stroke="#333332" stroke-linecap="round" stroke-linejoin="round"/></g></svg>