<svg xmlns="http://www.w3.org/2000/svg" xmlns:xlink="http://www.w3.org/1999/xlink" viewBox="0 0 64 64"><defs><linearGradient id="linear-gradient" x1="32.7" y1="36.87" x2="14.05" y2="4.57" gradientUnits="userSpaceOnUse"><stop offset="0" stop-color="#386f8d"/><stop offset="1" stop-color="#8dd7f4"/></linearGradient><linearGradient id="linear-gradient-2" x1="37.91" y1="41.47" x2="23.95" y2="17.29" xlink:href="#linear-gradient"/><linearGradient id="linear-gradient-3" x1="40.26" y1="34.78" x2="49.13" y2="50.16" gradientUnits="userSpaceOnUse"><stop offset="0" stop-color="#f5f6f6"/><stop offset="0.99" stop-color="#bfbebe"/></linearGradient><linearGradient id="linear-gradient-4" x1="42.73" y1="39.66" x2="44.34" y2="42.46" xlink:href="#linear-gradient-3"/></defs><title>ENOPJR_AP_AppIcon</title><g id="Layer_11" data-name="Layer 11"><polygon points="8.5 43.5 8.5 13 17.5 10.5 17.5 17.5 45.5 10.5 45.5 24.5 9.5 43.5 8.5 43.5" stroke="#053755" stroke-linecap="round" stroke-linejoin="round" fill="url(#linear-gradient)"/><polygon points="53.5 15.5 16.5 25.5 8.5 43.5 9.5 43.5 47 32.5 53.5 15.5" stroke="#053755" stroke-linecap="round" stroke-linejoin="round" fill="url(#linear-gradient-2)"/></g><g id="Layer_12" data-name="Layer 12"><polygon points="38.5 28.5 41.5 27.5 44.5 30.5 46.5 28.5 48.5 28.5 49.5 30.5 50.5 30.5 51.5 31.5 51.5 34.5 52.5 34.5 55.5 37.5 55.5 38.5 52.5 41.5 52.5 42.5 53.5 44.5 53.5 47.5 52.5 48.5 48.5 48.5 48.5 52.5 45.5 53.5 42.5 51.5 40.5 53.5 37.5 53.5 34.5 50.5 34.5 48.5 31.5 45.5 30.5 41.5 34.5 39 32.5 35.5 32.5 34.5 34.5 32.5 38 32.5 38.5 28.5" fill="#a4a4a4"/><polygon points="48.5 48.5 52.5 48.5 53.5 47.5 53.5 44.5 52.5 42.5 52.5 41.5 55.5 39.5 55.5 37.5 52.5 34.5 51.5 34.5 51.5 31.5 49.5 30.5 47 33 44.5 30.5 41 31.5 40.5 35.5 37 35.5 35.5 37.5 35.5 38.5 37.5 41.5 33.5 44.5 34.5 48.5 37.5 48.5 37.5 53.5 40.5 53.5 42.5 51.5 45.5 53.5 48.5 52.5 48.5 48.5" fill="url(#linear-gradient-3)"/><ellipse cx="44.5" cy="42.25" rx="3" ry="3.75" fill="#797979" stroke="#797979" stroke-miterlimit="10"/><path d="M41.5,42.25a4.61,4.61,0,0,0,.14,1.07,2.28,2.28,0,0,0,.86.18c1.66,0,3-1.68,3-3.75a4.61,4.61,0,0,0-.14-1.07,2.28,2.28,0,0,0-.86-.18C42.84,38.5,41.5,40.18,41.5,42.25Z" stroke="#323232" stroke-linecap="round" stroke-linejoin="round" fill="url(#linear-gradient-4)"/><polygon points="51 34.5 51 37 54.5 37 52.5 34.5 51 34.5" fill="#a4a4a4"/><path d="M38.5,28.5l3-1,3,3,2-2h2l1,2h1l1,1v3h1l3,3v2l-3,2v1l1,2v3l-1,1h-4v4l-3,1-3-2-2,2h-3l-3-3v-2l-3-3-.8-2.8a1,1,0,0,1,.41-1.1L35,39l-2.5-3V34.5l2-2H38Z" fill="none" stroke="#333332" stroke-linecap="round" stroke-linejoin="round"/></g></svg>