<svg id="Layer_3" data-name="Layer 3" xmlns="http://www.w3.org/2000/svg" xmlns:xlink="http://www.w3.org/1999/xlink" viewBox="0 0 64 64"><defs><linearGradient id="linear-gradient" x1="19.39" y1="15.31" x2="34.28" y2="41.1" gradientUnits="userSpaceOnUse"><stop offset="0" stop-color="#f5f6f6"/><stop offset="0.99" stop-color="#d2d3d3"/></linearGradient><linearGradient id="linear-gradient-2" x1="15.55" y1="14.31" x2="32.58" y2="43.81" xlink:href="#linear-gradient"/><linearGradient id="linear-gradient-3" x1="21.06" y1="13.4" x2="37.98" y2="42.71" xlink:href="#linear-gradient"/><linearGradient id="linear-gradient-4" x1="34.66" y1="11.58" x2="37.96" y2="17.29" xlink:href="#linear-gradient"/><linearGradient id="linear-gradient-5" x1="26.84" y1="39.01" x2="30.51" y2="45.37" xlink:href="#linear-gradient"/><linearGradient id="linear-gradient-6" x1="20.7" y1="35.27" x2="7.13" y2="11.77" gradientUnits="userSpaceOnUse"><stop offset="0" stop-color="#386f8d"/><stop offset="1" stop-color="#8dd7f4"/></linearGradient><linearGradient id="linear-gradient-7" x1="37.2" y1="33.72" x2="47.43" y2="51.43" xlink:href="#linear-gradient"/><clipPath id="clip-path"><polygon points="42 35.71 42 18.21 17.5 18.21 17.5 53.62 42 42.21 42 35.71" fill="none"/></clipPath><linearGradient id="linear-gradient-8" x1="34.91" y1="29.54" x2="47.88" y2="52" gradientUnits="userSpaceOnUse"><stop offset="0" stop-color="#ababab"/><stop offset="1" stop-color="#5b5b5b"/></linearGradient><clipPath id="clip-path-2"><polygon points="42 35.71 42 18.21 66.5 18.21 66.5 53.62 42 42.21 42 35.71" fill="none"/></clipPath><linearGradient id="linear-gradient-9" x1="35.97" y1="31.37" x2="48.79" y2="53.58" xlink:href="#linear-gradient"/><clipPath id="clip-path-3"><polygon points="42.08 41.96 66.5 53.62 35.08 67.28 19.97 52.47 42.08 41.96" fill="none"/></clipPath><linearGradient id="linear-gradient-10" x1="36.11" y1="31.61" x2="48.59" y2="53.23" gradientUnits="userSpaceOnUse"><stop offset="0" stop-color="#d7d7d7"/><stop offset="1" stop-color="#969696"/></linearGradient><linearGradient id="linear-gradient-11" x1="41.33" y1="27.54" x2="42.73" y2="29.97" xlink:href="#linear-gradient-10"/><linearGradient id="linear-gradient-12" x1="30.12" y1="47.49" x2="30.27" y2="47.74" xlink:href="#linear-gradient-10"/><linearGradient id="linear-gradient-13" x1="53.45" y1="46.68" x2="54.77" y2="48.96" xlink:href="#linear-gradient-10"/><linearGradient id="linear-gradient-14" x1="45.2" y1="46.41" x2="37.8" y2="33.59" gradientUnits="userSpaceOnUse"><stop offset="0" stop-color="#161616"/><stop offset="1" stop-color="#515151"/></linearGradient><linearGradient id="linear-gradient-15" x1="40.86" y1="42.2" x2="46.56" y2="52.06" gradientUnits="userSpaceOnUse"><stop offset="0" stop-color="#fae86a"/><stop offset="1" stop-color="#f1cf30"/></linearGradient></defs><title>ENOPJRI_AP_AppIcon</title><path d="M28.27,48.23c.29,0,.57,0,.86,0s.73-.11,1.09-.11h0v.06A17.6,17.6,0,0,0,41.46,43a56.07,56.07,0,0,0-13.79-1.64A55.12,55.12,0,0,0,13,43.22a17.45,17.45,0,0,0,12.15,5.05Z"/><path d="M33.83,25.83a9.1,9.1,0,0,0-3.49-7.31c-4.09.25-7.34,4.05-7.34,8.73a5.83,5.83,0,0,0,0,.59,11.45,11.45,0,0,0,.21,1.55c0,.12.05.24.08.36s0,.11.05.16a8.71,8.71,0,0,0,3.13,4.65C30.58,34.32,33.83,30.51,33.83,25.83Z" fill="none"/><path d="M25.58,11.25C15.3,11.25,10.44,14.43,10.44,26s3.73,20.87,14,20.87S43.08,37.49,43.08,26,35.87,11.25,25.58,11.25Zm.5,23.33c-4.28,0-7.75-3.91-7.75-8.75s3.47-8.75,7.75-8.75,7.75,3.92,7.75,8.75S30.36,34.58,26.08,34.58Z" stroke="#333332" stroke-linecap="round" stroke-linejoin="round" fill="url(#linear-gradient)"/><path d="M25.12,48.25C14.84,48.25,6.5,38.9,6.5,27.38S14.84,6.5,25.12,6.5l6.16.14L18.89,26.17l11.36,22Z" stroke="#333332" stroke-linecap="round" stroke-linejoin="round" fill="url(#linear-gradient-2)"/><path d="M29.13,6.5C18.84,6.5,10.5,15.85,10.5,27.38s8.34,20.87,18.63,20.87S47.75,38.9,47.75,27.38,39.41,6.5,29.13,6.5ZM30.75,36C26.47,36,23,32.08,23,27.25s3.47-8.75,7.75-8.75,7.75,3.92,7.75,8.75S35,36,30.75,36Z" stroke="#333332" stroke-linecap="round" stroke-linejoin="round" fill="url(#linear-gradient-3)"/><line x1="34.73" y1="19.74" x2="37.73" y2="8.86" stroke="#333332" stroke-linecap="round" stroke-linejoin="round" fill="url(#linear-gradient-4)"/><line x1="26.91" y1="48.1" x2="30.26" y2="35.98" stroke="#333332" stroke-linecap="round" stroke-linejoin="round" fill="url(#linear-gradient-5)"/><path d="M24.8,21.57l-9.65-8.11L11.67,13A22.17,22.17,0,0,0,7.13,32.58h3.79l12.5-2.5S21.83,25.17,24.8,21.57Z" stroke="#053755" stroke-linecap="round" stroke-linejoin="round" fill="url(#linear-gradient-6)"/><path d="M10.92,32.58S8.33,21.5,15.15,13.46" fill="none" stroke="#053755" stroke-linecap="round" stroke-linejoin="round"/><circle cx="42.07" cy="42.16" r="12.29" stroke="#333332" stroke-linecap="round" stroke-linejoin="round" fill="url(#linear-gradient-7)"/><g clip-path="url(#clip-path)"><path d="M42.08,31A10.92,10.92,0,1,1,31.17,42,10.93,10.93,0,0,1,42.08,31m0-4.5A15.42,15.42,0,1,0,57.5,42,15.41,15.41,0,0,0,42.08,26.54Z" stroke="#333332" stroke-linecap="round" stroke-linejoin="round" fill="url(#linear-gradient-8)"/></g><g clip-path="url(#clip-path-2)"><path d="M42.08,31A10.92,10.92,0,1,1,31.17,42,10.93,10.93,0,0,1,42.08,31m0-4.5A15.42,15.42,0,1,0,57.5,42,15.41,15.41,0,0,0,42.08,26.54Z" stroke="#333332" stroke-linecap="round" stroke-linejoin="round" fill="url(#linear-gradient-9)"/></g><g clip-path="url(#clip-path-3)"><path d="M42.08,31A10.92,10.92,0,1,1,31.17,42,10.93,10.93,0,0,1,42.08,31m0-4.5A15.42,15.42,0,1,0,57.5,42,15.41,15.41,0,0,0,42.08,26.54Z" stroke="#323232" stroke-linecap="round" stroke-linejoin="round" fill="url(#linear-gradient-10)"/></g><line x1="42" y1="26.71" x2="42" y2="30.71" stroke="#323232" stroke-linecap="round" stroke-linejoin="round" fill="url(#linear-gradient-11)"/><line x1="28.16" y1="48.58" x2="32.23" y2="46.64" stroke="#323232" stroke-linecap="round" stroke-linejoin="round" fill="url(#linear-gradient-12)"/><line x1="55.94" y1="48.58" x2="52.22" y2="46.97" stroke="#323232" stroke-linecap="round" stroke-linejoin="round" fill="url(#linear-gradient-13)"/><path d="M47.12,35H35.5a.5.5,0,0,0-.5.5v9a.5.5,0,0,0,.5.5h12a.5.5,0,0,0,.5-.5v-9a.5.5,0,0,0-.5-.5ZM41,41v2H39V41Zm-2-1V38h2v2Zm3,1h2v2H42Zm0-1V38h2v2Zm-6-2h2v2H36Zm0,3h2v2H36Zm11,2H45V41h2Zm0-3H45V38h2Z" fill="url(#linear-gradient-14)"/><path d="M39.94,50a.48.48,0,0,1-.43-.25.48.48,0,0,1,0-.49l5-9.1a.5.5,0,0,1,.88,0l5,9.1a.5.5,0,0,1,0,.49A.48.48,0,0,1,50,50Z" fill="url(#linear-gradient-15)"/><path d="M45,40.4l5,9.1H39.94l5-9.1m0-1a1,1,0,0,0-.88.52l-5,9.1a1,1,0,0,0,.88,1.48H50a1,1,0,0,0,.86-.49,1,1,0,0,0,0-1l-5-9.1A1,1,0,0,0,45,39.4Z" fill="#96351f"/><path d="M44.3,48.36a.55.55,0,0,1,.59-.55.54.54,0,0,1,.59.55.55.55,0,0,1-.59.56A.55.55,0,0,1,44.3,48.36Zm.25-1.28-.14-4.29h1l-.14,4.29Z"/></svg>