<svg xmlns="http://www.w3.org/2000/svg" xmlns:xlink="http://www.w3.org/1999/xlink" viewBox="0 0 64 64"><defs><linearGradient id="linear-gradient" x1="25.15" y1="11.68" x2="42.79" y2="42.24" gradientUnits="userSpaceOnUse"><stop offset="0" stop-color="#f5f6f6"/><stop offset="0.99" stop-color="#d2d3d3"/></linearGradient><linearGradient id="linear-gradient-2" x1="32.36" y1="13.92" x2="36.08" y2="20.38" xlink:href="#linear-gradient"/><linearGradient id="linear-gradient-3" x1="22.68" y1="20.92" x2="19.32" y2="15.08" gradientUnits="userSpaceOnUse"><stop offset="0" stop-color="#2a5b79"/><stop offset="1" stop-color="#3388b0"/></linearGradient><linearGradient id="linear-gradient-4" x1="28.25" y1="22.8" x2="26.75" y2="20.2" xlink:href="#linear-gradient-3"/><linearGradient id="linear-gradient-5" x1="43.38" y1="29.52" x2="40.76" y2="24.98" xlink:href="#linear-gradient-3"/><linearGradient id="linear-gradient-7" x1="17.52" y1="28.84" x2="15.53" y2="25.39" xlink:href="#linear-gradient-3"/><linearGradient id="linear-gradient-8" x1="37.39" y1="39.6" x2="34.75" y2="35.03" xlink:href="#linear-gradient-3"/><linearGradient id="linear-gradient-9" x1="34.31" y1="45.45" x2="32.39" y2="42.12" xlink:href="#linear-gradient-3"/><linearGradient id="linear-gradient-10" x1="38.65" y1="33.15" x2="36.6" y2="29.6" xlink:href="#linear-gradient-3"/><linearGradient id="linear-gradient-11" x1="30.26" y1="31.72" x2="28.37" y2="28.45" xlink:href="#linear-gradient-3"/><linearGradient id="linear-gradient-12" x1="24.24" y1="29.53" x2="22.76" y2="26.97" xlink:href="#linear-gradient-3"/><linearGradient id="linear-gradient-13" x1="48.56" y1="53.29" x2="32.5" y2="25.48" gradientUnits="userSpaceOnUse"><stop offset="0" stop-color="#161616"/><stop offset="1" stop-color="#515151"/></linearGradient></defs><title>ProjectGantt</title><g id="Layer_7" data-name="Layer 7"><polygon points="11.5 14.5 16.59 25.34 56.5 37.5 40.5 18.5 29.5 14.5 11.5 14.5" stroke="#333332" stroke-linecap="round" stroke-linejoin="round" fill="url(#linear-gradient)"/><polygon points="29.5 14.5 29.5 18.5 40.5 18.5 29.5 14.5" stroke="#333332" stroke-linecap="round" stroke-linejoin="round" fill="url(#linear-gradient-2)"/><polygon points="25 17 16 17 17 19 26 19 25 17 25 17" fill="url(#linear-gradient-3)"/><path d="M27.5,20A1.5,1.5,0,1,0,29,21.5,1.5,1.5,0,0,0,27.5,20Z" fill="url(#linear-gradient-4)"/><polygon points="39 26 44 26 46 28 39 28 39 26" fill="url(#linear-gradient-5)"/><polygon points="7.5 26.5 30.5 50.5 56.5 37.5 36.5 22.5 21.5 22.5 7.5 26.5" stroke="#333332" stroke-linecap="round" stroke-linejoin="round" fill="url(#linear-gradient)"/><polygon points="19.5 25 11.73 27.58 13.47 29.38 21.32 26.64 19.5 25 19.5 25" fill="url(#linear-gradient-7)"/><polygon points="45.32 31.85 24.38 41.02 26.59 43.2 47.76 33.62 45.32 31.85 45.32 31.85" fill="url(#linear-gradient-8)"/><polygon points="36.49 40.84 27.84 44.75 30.09 47 38.86 42.82 36.49 40.84 36.49 40.84" fill="url(#linear-gradient-9)"/><polygon points="40.75 28.5 32 32.25 34.38 34.54 43.25 30.5 40.75 28.5 40.75 28.5" fill="url(#linear-gradient-10)"/><polygon points="31 28 25.25 30.25 27.54 32.48 33.37 29.93 31 28 31 28" fill="url(#linear-gradient-11)"/><path d="M23.5,27c-1.1,0-2,.56-2,1.25s.9,1.25,2,1.25,2-.56,2-1.25S24.6,27,23.5,27Z" fill="url(#linear-gradient-12)"/><polygon points="21.5 22.5 26.5 26.5 36.5 22.5 21.5 22.5" fill="none" stroke="#333332" stroke-linecap="round" stroke-linejoin="round"/></g><g id="Layer_8" data-name="Layer 8"><g opacity="0.45"><path d="M38,26a9,9,0,1,1-9,9,9,9,0,0,1,9-9m0-1A10,10,0,1,0,48,35,10,10,0,0,0,38,25Z" fill="#fff"/><path d="M38,24a11,11,0,0,1,9.06,17.23l6.35,6.36a2,2,0,1,1-2.82,2.82l-6.36-6.35A11,11,0,1,1,38,24m0,20a9,9,0,1,0-9-9,9,9,0,0,0,9,9m0-21a12,12,0,0,0,0,24,11.85,11.85,0,0,0,6.09-1.67l5.79,5.79a3,3,0,0,0,4.24-4.24l-5.79-5.79A11.85,11.85,0,0,0,50,35,12,12,0,0,0,38,23Zm0,20a8,8,0,1,1,8-8,8,8,0,0,1-8,8Z" fill="#fff"/></g><path d="M53.41,47.59l-6.35-6.36a11,11,0,1,0-2.83,2.83l6.36,6.35a2,2,0,0,0,2.82-2.82ZM29,35a9,9,0,1,1,9,9A9,9,0,0,1,29,35Z" fill-rule="evenodd" fill="url(#linear-gradient-13)"/></g></svg>