<svg id="Layer_5_copy_3" data-name="Layer 5 copy 3" xmlns="http://www.w3.org/2000/svg" xmlns:xlink="http://www.w3.org/1999/xlink" viewBox="0 0 64 64"><defs><style>.cls-1,.cls-2,.cls-9{fill:none;}.cls-2,.cls-9{stroke:#323232;}.cls-17,.cls-2,.cls-9{stroke-miterlimit:10;}.cls-3{isolation:isolate;}.cls-4{fill:#c2c2c2;}.cls-5{fill:#aeaeae;}.cls-6{fill:#797979;}.cls-7{fill:#e1e1e1;}.cls-8{fill:url(#top_white);}.cls-9{stroke-width:0.8px;}.cls-10{fill:#2d6d8b;}.cls-11{fill:#5a9ab8;}.cls-12{fill:#aadcfa;}.cls-13{clip-path:url(#clip-path);}.cls-14{fill:url(#top_white-2);}.cls-15,.cls-17{fill:#fff;}.cls-16{fill:#323232;}.cls-17{stroke:#2d6d8b;stroke-width:0.03px;}.cls-18{fill:url(#linear-gradient);}.cls-19{fill:url(#white_front_right);}.cls-20{fill:#f1f0f0;}.cls-21{fill:url(#top_white-3);}.cls-22{fill:url(#linear-gradient-2);}.cls-23{fill:url(#white_left);}.cls-24{fill:url(#linear-gradient-3);}</style><linearGradient id="top_white" x1="6.29" y1="19.85" x2="32.05" y2="19.85" gradientUnits="userSpaceOnUse"><stop offset="0" stop-color="#fff"/><stop offset="1" stop-color="#f0f0f0"/></linearGradient><clipPath id="clip-path"><circle class="cls-1" cx="37.58" cy="23.26" r="12.23"/></clipPath><linearGradient id="top_white-2" x1="1.99" y1="16.75" x2="34.2" y2="16.75" xlink:href="#top_white"/><linearGradient id="linear-gradient" x1="-9201.66" y1="-8169.94" x2="-9202.41" y2="-8169.05" gradientTransform="matrix(0.8, 0.07, -0.35, 1.22, 4590.82, 10636.22)" gradientUnits="userSpaceOnUse"><stop offset="0" stop-color="#fff"/><stop offset="0.24" stop-color="#fcfcfc"/><stop offset="0.43" stop-color="#f2f2f2"/><stop offset="0.46" stop-color="#f0f0f0"/></linearGradient><linearGradient id="white_front_right" x1="-9202.35" y1="-8169.16" x2="-9201.57" y2="-8167.81" gradientTransform="matrix(0.8, 0.07, -0.35, 1.22, 4590.82, 10636.22)" gradientUnits="userSpaceOnUse"><stop offset="0" stop-color="#fff"/><stop offset="1" stop-color="#d2d2d2"/></linearGradient><linearGradient id="top_white-3" x1="-9203.46" y1="-8171.43" x2="-9199.11" y2="-8171.43" gradientTransform="matrix(0.8, 0.07, -0.35, 1.22, 4590.82, 10636.22)" xlink:href="#top_white"/><linearGradient id="linear-gradient-2" x1="-9202.29" y1="-8170.36" x2="-9203.19" y2="-8168.79" gradientTransform="matrix(0.8, 0.07, -0.35, 1.22, 4590.82, 10636.22)" gradientUnits="userSpaceOnUse"><stop offset="0.16" stop-color="#f5f5f5"/><stop offset="0.27" stop-color="#e7e7e7"/><stop offset="0.48" stop-color="#c1c1c1"/><stop offset="0.5" stop-color="#bebebe"/></linearGradient><linearGradient id="white_left" x1="-9202.07" y1="-8169.75" x2="-9198.19" y2="-8169.75" gradientTransform="matrix(0.8, 0.07, -0.35, 1.22, 4590.82, 10636.22)" gradientUnits="userSpaceOnUse"><stop offset="0" stop-color="#f5f5f5"/><stop offset="1" stop-color="#bebebe"/></linearGradient><linearGradient id="linear-gradient-3" x1="-9195.7" y1="-8173.09" x2="-9186.88" y2="-8157.8" gradientTransform="matrix(0.8, 0.07, -0.35, 1.22, 4590.82, 10636.22)" gradientUnits="userSpaceOnUse"><stop offset="0.04" stop-color="#141414"/><stop offset="1" stop-color="#464646"/></linearGradient></defs><title>QQQ__A33AAe__R21XArtboard 1 </title><g id="Layer_24_copy_5" data-name="Layer 24 copy 5"><polygon class="cls-2" points="23.46 12.38 6.29 22.35 6.29 42.13 23.44 52.06 40.65 42.08 40.65 22.3 23.46 12.38"/><g class="cls-3"><polygon class="cls-4" points="14.87 37.19 32.03 27.22 40.65 32.18 23.47 42.18 14.87 37.19"/><polygon class="cls-5" points="14.9 27.31 32.05 17.34 32.03 27.22 14.87 37.19 14.9 27.31"/><polygon class="cls-6" points="23.47 42.18 40.65 32.18 40.62 42.08 23.44 52.06 23.47 42.18"/><polygon class="cls-7" points="14.9 27.31 14.87 37.19 23.47 42.18 23.44 52.06 14.85 47.1 6.29 42.13 6.29 32.23 6.29 22.35 14.9 27.31"/><polygon class="cls-8" points="6.29 22.35 23.46 12.38 32.05 17.34 14.9 27.31 6.29 22.35"/></g><polygon class="cls-9" points="32.05 17.34 14.9 27.31 14.87 37.19 23.47 42.18 40.65 32.18 40.67 22.3 32.05 17.34"/><polygon class="cls-10" points="23.49 32.27 40.67 22.3 40.65 32.18 23.47 42.18 23.49 32.27"/><polygon class="cls-11" points="23.49 32.27 23.47 42.18 14.87 37.19 14.9 27.31 23.49 32.27"/><polygon class="cls-12" points="14.9 27.31 32.05 17.34 40.67 22.3 23.49 32.27 14.9 27.31"/></g><g id="Layer_20" data-name="Layer 20"><g class="cls-13"><polygon class="cls-2" points="23.45 7.42 1.99 19.88 1.99 44.61 23.43 57.03 44.94 44.55 44.94 19.82 23.45 7.42"/><g class="cls-3"><polygon class="cls-4" points="12.72 38.42 34.16 25.97 44.94 32.17 23.46 44.67 12.72 38.42"/><polygon class="cls-5" points="12.76 26.08 34.2 13.62 34.16 25.97 12.72 38.42 12.76 26.08"/><polygon class="cls-6" points="23.46 44.67 44.94 32.17 44.9 44.55 23.43 57.03 23.46 44.67"/><polygon class="cls-7" points="12.76 26.08 12.72 38.42 23.46 44.67 23.43 57.03 12.69 50.83 1.99 44.61 1.99 32.23 1.99 19.88 12.76 26.08"/><polygon class="cls-14" points="1.99 19.88 23.45 7.42 34.2 13.62 12.76 26.08 1.99 19.88"/></g><polygon class="cls-9" points="34.2 13.62 12.76 26.08 12.72 38.42 23.46 44.67 44.94 32.17 44.97 19.82 34.2 13.62"/><polygon class="cls-10" points="23.5 32.28 44.97 19.82 44.94 32.17 23.46 44.67 23.5 32.28"/><polygon class="cls-11" points="23.5 32.28 23.46 44.67 12.72 38.42 12.76 26.08 23.5 32.28"/><polygon class="cls-12" points="12.76 26.08 34.2 13.62 44.97 19.82 23.5 32.28 12.76 26.08"/></g></g><g id="New_Symbol_12" data-name="New Symbol 12"><path class="cls-15" d="M49.36,21.84l-.44-1-.11-.26-.05-.13,0,0v0h0s0-.07,0,.06l0-.06-.27-.5a7.75,7.75,0,0,0-.58-.9,7.08,7.08,0,0,0-.65-.82,11,11,0,0,0-1.51-1.47A9.51,9.51,0,0,0,44,15.53a6.18,6.18,0,0,0-1-.43l-.45-.18L42,14.76l-.54-.17-.49-.1a6.33,6.33,0,0,0-1-.15,6,6,0,0,0-1-.06,5.93,5.93,0,0,0-1,.05,5.7,5.7,0,0,0-1,.14,5.74,5.74,0,0,0-1,.25,5.68,5.68,0,0,0-1,.34l-.44.18-.51.24a6.87,6.87,0,0,0-.91.51,7.42,7.42,0,0,0-.84.58,8.34,8.34,0,0,0-.78.67,6.35,6.35,0,0,0-.72.75,6.23,6.23,0,0,0-.65.81,8,8,0,0,0-.56.87,6.84,6.84,0,0,0-.5.92l-.11.24-.06.12,0,.05v0l0-.05h0l-.18.54-.35,1.07a7.61,7.61,0,0,0-.17,1,8.35,8.35,0,0,0-.14,1V25.7A4.18,4.18,0,0,0,28,26.76l.14,1.07-1,.28L26.62,26l1-.28.6,2.09-1,.28a12.88,12.88,0,0,1-.52-2.31l-.11-1.19a7.23,7.23,0,0,1,.06-1.22,11.11,11.11,0,0,1,.15-1.21l.29-1.09.14-.55h0l0-.08v0l0-.07.06-.14.11-.28A9,9,0,0,1,28,18.83a7.19,7.19,0,0,1,.63-1,9.83,9.83,0,0,1,.73-1,8.74,8.74,0,0,1,.83-.89,8.68,8.68,0,0,1,.91-.8,6.71,6.71,0,0,1,1-.72,7.76,7.76,0,0,1,1-.61l.5-.26.6-.24a9.25,9.25,0,0,1,1.16-.38,7.77,7.77,0,0,1,1.18-.27,8.17,8.17,0,0,1,1.21-.15,8.15,8.15,0,0,1,1.21,0,7,7,0,0,1,1.21.09,6.63,6.63,0,0,1,1.22.21l.61.14.54.17.53.19c.26.1.39.17.59.26a9.08,9.08,0,0,1,1.07.56,11.2,11.2,0,0,1,2,1.4,8.53,8.53,0,0,1,.86.84,8.24,8.24,0,0,1,.76.92,8.84,8.84,0,0,1,.67,1,8.78,8.78,0,0,1,.55,1l.23.52,0,.06,0,.07h0V20l0,.14.08.26.33,1.08Z"/><path class="cls-16" d="M49.1,19.08l.6,2.09a12,12,0,0,0-.55-1.52,11.51,11.51,0,0,0-21.58,7.83L27,25.39a11.25,11.25,0,0,1,.32-7.23,11.49,11.49,0,0,1,21.81.92Z"/><path class="cls-16" d="M50.06,18.81l.6,2.1a12.33,12.33,0,0,1-.35,7.87,12.51,12.51,0,0,1-23.69-1L26,25.67a12.5,12.5,0,0,0,24-6.86Z"/><path class="cls-17" d="M42.51,10.6a12.47,12.47,0,1,1-16.15,7.21A12.43,12.43,0,0,1,42.51,10.6Zm.22,22.1A11.46,11.46,0,1,0,27.29,18.16,11.44,11.44,0,0,0,33.92,33a11.52,11.52,0,0,0,8.81-.25"/><g id="fixation_manche_ok" data-name="fixation manche   ok"><path class="cls-15" d="M48.22,32.9c0-.14-.19-.17-.39,0L45,34.75l.19.39L48,33.25c.17-.11.29-.09.33,0C48.31,33.15,48.26,33,48.22,32.9Z"/><path id="c3_angle" data-name="c3 angle" class="cls-18" d="M44.5,36.18,44.21,36a1.63,1.63,0,0,1,.82-1.2l.19.39A1.41,1.41,0,0,0,44.5,36.18Z"/><path class="cls-19" d="M44.5,36.18,44.21,36a6,6,0,0,0,.13,1.36l.29.17A6.09,6.09,0,0,1,44.5,36.18Z"/><path id="b5" class="cls-20" d="M47.23,31.6l1,1.24c-.06-.09-.18-.09-.35,0l-.95-1.24C47.05,31.52,47.17,31.52,47.23,31.6Z"/><polygon id="b4" class="cls-21" points="45.03 34.75 44.08 33.52 46.88 31.62 47.83 32.86 45.03 34.75"/><path class="cls-22" d="M45,34.75l-1-1.23a2.32,2.32,0,0,0-.82,1.19A10.73,10.73,0,0,0,43.34,36l.95,1.23A10.58,10.58,0,0,1,44.21,36,1.58,1.58,0,0,1,45,34.75Z"/><path id="contour_face" data-name="contour face" class="cls-23" d="M48,33.25c.29-.18.43,0,.31.39l-.25,1a2.09,2.09,0,0,1-.71,1l-2.48,1.73c-.28.17-.31-.09-.31-.09l-.08-1.16a1.38,1.38,0,0,1,.72-1Zm0,1.47.25-1c.1-.33,0-.48-.25-.33l-2.81,1.9a1.26,1.26,0,0,0-.59.85l.08,1.16c-.09.33,0,.17.25,0l2.48-1.73a1.66,1.66,0,0,0,.59-.85"/><path id="face" class="cls-16" d="M48,33.37c.23-.15.35,0,.25.33l-.25,1a1.66,1.66,0,0,1-.59.85L44.92,37.3c-.23.15-.25,0-.25,0l-.08-1.16a1,1,0,0,1,.59-.85Z"/></g><g id="Layer_55_copy" data-name="Layer 55 copy"><path class="cls-16" d="M58.77,46.68c0-.06,0-.79-.22-.67.49.76-1.9,2.92-2.52,2.66-.35-.14-10.92-13.21-10.92-13.21l-.34.61,0,1.16s9.91,11.38,10.58,12.13,2.45-.37,2.77-.87a2.9,2.9,0,0,0,.62-1.81C58.79,46.47,58.73,47.15,58.77,46.68Z"/><path class="cls-16" d="M58.77,46.68a1,1,0,0,0-.15-.67L48.12,33.56h-.27l-2.73,1.9-.36.62,0,1.15s9.91,11.38,10.58,12.13,2.45-.37,2.77-.87A2.92,2.92,0,0,0,58.77,46.68Z"/><path id="rel_" data-name="rel ***" class="cls-6" d="M45.11,35.46l2.74-1.9h.27L58.58,46s.32.58-.85,1.71-1.7,1-1.7,1L44.76,36.08l.35-.62Z"/><path id="dessus_" data-name="dessus****" class="cls-24" d="M58.54,45.94c.47.74-2.16,3.14-2.73,2.46L45.11,35.46l2.74-1.9S58.3,45.57,58.54,45.94Z"/><polygon id="rel_2" data-name="rel ***" class="cls-6" points="45.11 35.46 55.88 48.57 55.71 48.57 44.76 36.08 45.11 35.46 45.11 35.46"/></g></g></svg>