<?xml version="1.0" encoding="utf-8"?>
<!-- Generator: Adobe Illustrator 24.0.0, SVG Export Plug-In . SVG Version: 6.00 Build 0)  -->
<svg version="1.1" id="it_1_-_OK_-_r2021x" xmlns="http://www.w3.org/2000/svg" xmlns:xlink="http://www.w3.org/1999/xlink" x="0px"
	 y="0px" viewBox="0 0 64 64" style="enable-background:new 0 0 64 64;" xml:space="preserve">
<style type="text/css">
	.Dark_x0020_Grey_x0020_gradient_x0020_fill{fill-rule:evenodd;clip-rule:evenodd;fill:url(#SVGID_1_);}
	.st0{fill:url(#SVGID_2_);stroke:#053755;stroke-linejoin:round;stroke-miterlimit:10;}
	.st1{fill:url(#SVGID_3_);stroke:#787979;stroke-miterlimit:10;}
	.st2{opacity:0.2;}
	.st3{opacity:0.1;}
	.st4{fill:url(#SVGID_4_);stroke:#053755;stroke-linejoin:round;stroke-miterlimit:10;}
	.st5{opacity:0.15;fill:#FFFFFF;}
	.st6{fill:url(#SVGID_5_);stroke:#053755;stroke-width:1.1335;stroke-linejoin:round;stroke-miterlimit:10;}
	.st7{fill:url(#SVGID_6_);stroke:#053755;stroke-linejoin:round;stroke-miterlimit:10;}
	.st8{fill:url(#SVGID_7_);stroke:#787979;stroke-miterlimit:10;}
	.st9{fill:url(#SVGID_8_);stroke:#053755;stroke-linejoin:round;stroke-miterlimit:10;}
	.st10{fill:url(#SVGID_9_);stroke:#053755;stroke-width:1.1335;stroke-linejoin:round;stroke-miterlimit:10;}
	.st11{fill:url(#SVGID_10_);stroke:#053755;stroke-linejoin:round;stroke-miterlimit:10;}
	.st12{fill:url(#SVGID_11_);stroke:#787979;stroke-miterlimit:10;}
	.st13{fill:url(#SVGID_12_);stroke:#053755;stroke-linejoin:round;stroke-miterlimit:10;}
	.st14{fill:url(#SVGID_13_);stroke:#053755;stroke-width:1.1335;stroke-linejoin:round;stroke-miterlimit:10;}
	.st15{fill:#FFFFFF;filter:url(#DS_GaussianBlur_2);}
	.st16{fill-rule:evenodd;clip-rule:evenodd;fill:url(#SVGID_14_);}
</style>
<filter  height="200%" id="DS_GaussianBlur_2" width="200%" x="-50%" y="-50%">
	<feGaussianBlur  stdDeviation="1"></feGaussianBlur>
</filter>
<linearGradient id="SVGID_1_" gradientUnits="userSpaceOnUse" x1="0" y1="0" x2="-0.5" y2="-0.866">
	<stop  offset="0" style="stop-color:#161616"/>
	<stop  offset="1" style="stop-color:#515151"/>
</linearGradient>
<g>
	<linearGradient id="SVGID_2_" gradientUnits="userSpaceOnUse" x1="29.0963" y1="6.4876" x2="49.8696" y2="42.468">
		<stop  offset="0" style="stop-color:#FFFFFF"/>
		<stop  offset="1" style="stop-color:#F1F0F0"/>
	</linearGradient>
	<polygon class="st0" points="53.5,40.4 53.5,9.1 30.1,8 24.5,9.1 24.5,38.1 	"/>
	<g>
		<linearGradient id="SVGID_3_" gradientUnits="userSpaceOnUse" x1="43.1198" y1="14.9197" x2="56.9387" y2="38.8549">
			<stop  offset="0" style="stop-color:#FFFFFF"/>
			<stop  offset="1" style="stop-color:#D2D2D2"/>
		</linearGradient>
		<polygon class="st1" points="45.7,13.4 52.5,10 52.5,39.7 48,44 47.4,43.5 		"/>
		<polygon class="st2" points="51.1,40.6 49.9,41.6 49.9,12.1 51.1,11.5 		"/>
		<polygon class="st3" points="51.1,40.6 52.2,39.5 52.2,11 51.1,11.5 		"/>
	</g>
	<g>
		<linearGradient id="SVGID_4_" gradientUnits="userSpaceOnUse" x1="26.0769" y1="8.8366" x2="47.9128" y2="46.6575">
			<stop  offset="0.1766" style="stop-color:#83BEDC"/>
			<stop  offset="1" style="stop-color:#285A78"/>
		</linearGradient>
		<polygon class="st4" points="48.5,46.3 48.5,13.2 24.5,9.7 24.5,40.6 		"/>
		<polygon class="st5" points="47.7,45.4 46.5,45.1 46.5,13.6 47.7,13.8 		"/>
		<polygon class="st5" points="30.7,41.4 31.8,41.7 31.8,11.5 30.7,11.4 		"/>
	</g>
	<g>
		<linearGradient id="SVGID_5_" gradientUnits="userSpaceOnUse" x1="23.5811" y1="19.2346" x2="43.5309" y2="53.7887">
			<stop  offset="0" style="stop-color:#285A78"/>
			<stop  offset="0.1756" style="stop-color:#2D5F7D"/>
			<stop  offset="0.3898" style="stop-color:#3A6E8C"/>
			<stop  offset="0.624" style="stop-color:#5187A5"/>
			<stop  offset="0.8708" style="stop-color:#70A9C7"/>
			<stop  offset="1" style="stop-color:#83BEDC"/>
		</linearGradient>
		<polygon class="st6" points="30.1,41.9 24.4,40.5 24.4,9.9 30.1,10.7 		"/>
		<polygon class="st2" points="27.3,40.6 26.1,40.3 26.1,10.7 27.3,10.9 		"/>
		<polygon class="st5" points="29.5,41.1 28.4,40.8 28.4,11.1 29.5,11.2 		"/>
	</g>
</g>
<g>
	<linearGradient id="SVGID_6_" gradientUnits="userSpaceOnUse" x1="21.0963" y1="11.0216" x2="41.8696" y2="47.0021">
		<stop  offset="0" style="stop-color:#FFFFFF"/>
		<stop  offset="1" style="stop-color:#F1F0F0"/>
	</linearGradient>
	<polygon class="st7" points="45.5,44.9 45.5,13.7 22.1,12.6 16.5,13.7 16.5,42.7 	"/>
	<g>
		<linearGradient id="SVGID_7_" gradientUnits="userSpaceOnUse" x1="35.1198" y1="19.4538" x2="48.9387" y2="43.3889">
			<stop  offset="0" style="stop-color:#FFFFFF"/>
			<stop  offset="1" style="stop-color:#D2D2D2"/>
		</linearGradient>
		<polygon class="st8" points="37.7,18 44.5,14.6 44.5,44.2 40,48.6 39.4,48 		"/>
		<polygon class="st2" points="43.1,45.1 42,46.2 42,16.6 43.1,16.1 		"/>
		<polygon class="st3" points="43.1,45.1 44.3,44 44.3,15.5 43.1,16.1 		"/>
	</g>
	<g>
		<linearGradient id="SVGID_8_" gradientUnits="userSpaceOnUse" x1="18.0769" y1="13.3706" x2="39.9128" y2="51.1915">
			<stop  offset="0.1766" style="stop-color:#83BEDC"/>
			<stop  offset="1" style="stop-color:#285A78"/>
		</linearGradient>
		<polygon class="st9" points="40.5,50.9 40.5,17.7 16.5,14.3 16.5,45.1 		"/>
		<polygon class="st5" points="39.7,50 38.6,49.7 38.6,18.2 39.7,18.3 		"/>
		<polygon class="st5" points="22.7,45.9 23.9,46.2 23.9,16.1 22.7,15.9 		"/>
	</g>
	<g>
		<linearGradient id="SVGID_9_" gradientUnits="userSpaceOnUse" x1="15.6465" y1="23.7686" x2="35.5964" y2="58.3228">
			<stop  offset="0" style="stop-color:#285A78"/>
			<stop  offset="0.1756" style="stop-color:#2D5F7D"/>
			<stop  offset="0.3898" style="stop-color:#3A6E8C"/>
			<stop  offset="0.624" style="stop-color:#5187A5"/>
			<stop  offset="0.8708" style="stop-color:#70A9C7"/>
			<stop  offset="1" style="stop-color:#83BEDC"/>
		</linearGradient>
		<polygon class="st10" points="22.2,46.4 16.5,45 16.5,14.4 22.2,15.2 		"/>
		<polygon class="st2" points="19.3,45.1 18.2,44.8 18.2,15.2 19.3,15.4 		"/>
		<polygon class="st5" points="21.6,45.6 20.5,45.4 20.5,15.6 21.6,15.8 		"/>
	</g>
</g>
<g>
	<linearGradient id="SVGID_10_" gradientUnits="userSpaceOnUse" x1="13.0963" y1="15.5556" x2="33.8696" y2="51.5361">
		<stop  offset="0" style="stop-color:#FFFFFF"/>
		<stop  offset="1" style="stop-color:#F1F0F0"/>
	</linearGradient>
	<polygon class="st11" points="37.5,49.4 37.5,18.2 14.1,17.1 8.5,18.2 8.5,47.2 	"/>
	<g>
		<linearGradient id="SVGID_11_" gradientUnits="userSpaceOnUse" x1="27.1198" y1="23.9878" x2="40.9387" y2="47.9229">
			<stop  offset="0" style="stop-color:#FFFFFF"/>
			<stop  offset="1" style="stop-color:#D2D2D2"/>
		</linearGradient>
		<polygon class="st12" points="29.7,22.5 36.5,19.1 36.5,48.8 32,53.1 31.4,52.5 		"/>
		<polygon class="st2" points="35.2,49.9 34.1,51 34.1,21.1 35.2,20.6 		"/>
		<polygon class="st3" points="35.2,49.9 36.3,48.8 36.3,20 35.2,20.6 		"/>
	</g>
	<g>
		<linearGradient id="SVGID_12_" gradientUnits="userSpaceOnUse" x1="10.0769" y1="17.9046" x2="31.9128" y2="55.7255">
			<stop  offset="0.1766" style="stop-color:#83BEDC"/>
			<stop  offset="1" style="stop-color:#285A78"/>
		</linearGradient>
		<polygon class="st13" points="32.5,55.4 32.5,22.2 8.5,18.8 8.5,49.7 		"/>
		<polygon class="st5" points="31.8,54.5 30.7,54.2 30.7,22.7 31.8,22.9 		"/>
		<polygon class="st5" points="14.8,50.5 15.9,50.7 15.9,20.6 14.8,20.4 		"/>
	</g>
	<g>
		<linearGradient id="SVGID_13_" gradientUnits="userSpaceOnUse" x1="7.712" y1="28.3026" x2="27.6618" y2="62.8568">
			<stop  offset="0" style="stop-color:#285A78"/>
			<stop  offset="0.1756" style="stop-color:#2D5F7D"/>
			<stop  offset="0.3898" style="stop-color:#3A6E8C"/>
			<stop  offset="0.624" style="stop-color:#5187A5"/>
			<stop  offset="0.8708" style="stop-color:#70A9C7"/>
			<stop  offset="1" style="stop-color:#83BEDC"/>
		</linearGradient>
		<polygon class="st14" points="14.2,50.9 8.6,49.6 8.6,19 14.2,19.8 		"/>
		<polygon class="st2" points="11.4,49.7 10.3,49.4 10.3,19.8 11.4,19.9 		"/>
		<polygon class="st5" points="13.7,50.2 12.5,49.9 12.5,20.1 13.7,20.3 		"/>
	</g>
</g>
<g>
	<g>
		<g>
			<path class="st15" d="M48.9,33.6c0,0,0,0.2,0,0.2l0.8,3.1c0.1,0.3,0.3,0.5,0.5,0.6c0.1,0,0.2,0.1,0.3,0.1c0.2,0,0.3-0.1,0.5-0.2
				l2.4-1.8c0,0,0.1,0,0.1-0.1l2.2,2.2c0,0,0,0.1-0.1,0.1l-1.8,2.4c-0.2,0.2-0.2,0.5-0.1,0.7c0.1,0.2,0.3,0.4,0.5,0.5l3.2,0.8
				c0.1,0,0.2,0,0.2,0v3.1c0,0-0.2,0-0.2,0l-3.1,0.8c-0.3,0.1-0.5,0.2-0.6,0.5c-0.1,0.2-0.1,0.5,0.1,0.7l1.8,2.4c0,0,0,0.1,0.1,0.1
				L53.4,52c0,0-0.1,0-0.1-0.1l-2.4-1.8c-0.1-0.1-0.3-0.2-0.5-0.2c-0.1,0-0.2,0-0.3,0c-0.2,0.1-0.4,0.3-0.5,0.5l-0.8,3.2
				c0,0.1,0,0.2,0,0.2h-3.1c0,0,0-0.2,0-0.2L45,50.6c-0.1-0.3-0.2-0.5-0.5-0.6c-0.1,0-0.2-0.1-0.3-0.1c-0.2,0-0.3,0.1-0.5,0.2
				L41.4,52c0,0-0.1,0-0.1,0.1l-2.2-2.2c0,0,0-0.1,0.1-0.1l1.8-2.4c0.2-0.2,0.2-0.5,0.1-0.7c-0.1-0.2-0.3-0.4-0.5-0.5l-3.2-0.8
				c-0.1,0-0.2,0-0.2,0v-3.1c0,0,0.2,0,0.3,0l3.1-1.2c0.2-0.1,0.4-0.3,0.5-0.5c0.1-0.2,0-0.5-0.2-0.7l-1.8-2c0,0,0,0,0,0l2.2-2.2
				c0,0,0.1,0,0.1,0.1l2.4,1.8c0.1,0.1,0.3,0.2,0.5,0.2c0.1,0,0.2,0,0.3,0c0.2-0.1,0.4-0.3,0.5-0.5l0.8-3.2c0-0.1,0-0.2,0-0.2h2.8
				 M47.4,47.7c2.1,0,3.9-1.7,3.9-3.9c0-2.1-1.7-3.9-3.9-3.9c-2.1,0-3.9,1.7-3.9,3.9C43.5,45.9,45.2,47.7,47.4,47.7"/>
		</g>
	</g>
	<g>
		<g>
			<linearGradient id="SVGID_14_" gradientUnits="userSpaceOnUse" x1="52.4355" y1="52.6038" x2="42.2723" y2="35.0006">
				<stop  offset="0" style="stop-color:#161616"/>
				<stop  offset="1" style="stop-color:#515151"/>
			</linearGradient>
			<path class="st16" d="M48.9,33.6c0,0,0,0.2,0,0.2l0.8,3.1c0.1,0.3,0.3,0.5,0.5,0.6c0.1,0,0.2,0.1,0.3,0.1c0.2,0,0.3-0.1,0.5-0.2
				l2.4-1.8c0,0,0.1,0,0.1-0.1l2.2,2.2c0,0,0,0.1-0.1,0.1l-1.8,2.4c-0.2,0.2-0.2,0.5-0.1,0.7c0.1,0.2,0.3,0.4,0.5,0.5l3.2,0.8
				c0.1,0,0.2,0,0.2,0v3.1c0,0-0.2,0-0.2,0l-3.1,0.8c-0.3,0.1-0.5,0.2-0.6,0.5c-0.1,0.2-0.1,0.5,0.1,0.7l1.8,2.4c0,0,0,0.1,0.1,0.1
				L53.4,52c0,0-0.1,0-0.1-0.1l-2.4-1.8c-0.1-0.1-0.3-0.2-0.5-0.2c-0.1,0-0.2,0-0.3,0c-0.2,0.1-0.4,0.3-0.5,0.5l-0.8,3.2
				c0,0.1,0,0.2,0,0.2h-3.1c0,0,0-0.2,0-0.2L45,50.6c-0.1-0.3-0.2-0.5-0.5-0.6c-0.1,0-0.2-0.1-0.3-0.1c-0.2,0-0.3,0.1-0.5,0.2
				L41.4,52c0,0-0.1,0-0.1,0.1l-2.2-2.2c0,0,0-0.1,0.1-0.1l1.8-2.4c0.2-0.2,0.2-0.5,0.1-0.7c-0.1-0.2-0.3-0.4-0.5-0.5l-3.2-0.8
				c-0.1,0-0.2,0-0.2,0v-3.1c0,0,0.2,0,0.3,0l3.1-1.2c0.2-0.1,0.4-0.3,0.5-0.5c0.1-0.2,0-0.5-0.2-0.7l-1.8-2c0,0,0,0,0,0l2.2-2.2
				c0,0,0.1,0,0.1,0.1l2.4,1.8c0.1,0.1,0.3,0.2,0.5,0.2c0.1,0,0.2,0,0.3,0c0.2-0.1,0.4-0.3,0.5-0.5l0.8-3.2c0-0.1,0-0.2,0-0.2h2.8
				 M47.4,47.7c2.1,0,3.9-1.7,3.9-3.9c0-2.1-1.7-3.9-3.9-3.9c-2.1,0-3.9,1.7-3.9,3.9C43.5,45.9,45.2,47.7,47.4,47.7"/>
		</g>
	</g>
</g>
</svg>
