<svg id="v_64px_copy" data-name="v   64px copy" xmlns="http://www.w3.org/2000/svg" xmlns:xlink="http://www.w3.org/1999/xlink" viewBox="0 0 64 64"><defs><style>.cls-1,.cls-11{fill:none;}.cls-2{fill:url(#linear-gradient);}.cls-3{fill:#323232;}.cls-4{fill:url(#Dark_BLUE_gradient_LEFT);}.cls-5{fill:#063755;}.cls-6{fill:url(#linear-gradient-2);}.cls-7{fill:#787878;}.cls-8,.cls-9{stroke:#323232;opacity:0.3;}.cls-13,.cls-14,.cls-15,.cls-16,.cls-17,.cls-8,.cls-9{stroke-linejoin:round;}.cls-8{fill:url(#linear-gradient-3);}.cls-9{fill:url(#linear-gradient-4);}.cls-10{clip-path:url(#clip-path);}.cls-11,.cls-18{stroke:#000;stroke-miterlimit:10;}.cls-12{clip-path:url(#clip-path-2);}.cls-13,.cls-14,.cls-15,.cls-16,.cls-17{stroke:#003755;stroke-linecap:round;}.cls-13{fill:url(#linear-gradient-5);}.cls-14{fill:url(#linear-gradient-6);}.cls-15{fill:url(#linear-gradient-7);}.cls-16{fill:url(#linear-gradient-8);}.cls-17{fill:url(#linear-gradient-9);}.cls-18{fill:#fff;}</style><linearGradient id="linear-gradient" x1="13.73" y1="7.75" x2="38.27" y2="50.25" gradientUnits="userSpaceOnUse"><stop offset="0" stop-color="#f4f5f5"/><stop offset="0.99" stop-color="#d2d2d2"/></linearGradient><linearGradient id="Dark_BLUE_gradient_LEFT" x1="14.53" y1="17.38" x2="44.52" y2="11.15" gradientUnits="userSpaceOnUse"><stop offset="0" stop-color="#82bedc"/><stop offset="1" stop-color="#285a78"/></linearGradient><linearGradient id="linear-gradient-2" x1="18.71" y1="18.87" x2="33.29" y2="44.13" gradientUnits="userSpaceOnUse"><stop offset="0" stop-color="#d7d7d7"/><stop offset="1" stop-color="#969696"/></linearGradient><linearGradient id="linear-gradient-3" x1="33.5" y1="32" x2="33.5" y2="32" xlink:href="#linear-gradient"/><linearGradient id="linear-gradient-4" x1="21.5" y1="32" x2="21.5" y2="32" xlink:href="#linear-gradient"/><clipPath id="clip-path"><polygon class="cls-1" points="47 12 5 12 5 46 47 46 47 44 45 44 45 26 47 26 47 12"/></clipPath><clipPath id="clip-path-2"><rect class="cls-1" x="29" y="28" width="23" height="21"/></clipPath><linearGradient id="linear-gradient-5" x1="57.98" y1="54.18" x2="54.19" y2="49.32" gradientUnits="userSpaceOnUse"><stop offset="0" stop-color="#285a78"/><stop offset="1" stop-color="#82bedc"/></linearGradient><linearGradient id="linear-gradient-6" x1="41.68" y1="54.43" x2="37.58" y2="49.18" xlink:href="#linear-gradient-5"/><linearGradient id="linear-gradient-7" x1="41.68" y1="41.43" x2="37.58" y2="36.18" xlink:href="#linear-gradient-5"/><linearGradient id="linear-gradient-8" x1="41.68" y1="28.43" x2="37.58" y2="23.18" xlink:href="#linear-gradient-5"/><linearGradient id="linear-gradient-9" x1="23.68" y1="28.43" x2="19.58" y2="23.18" xlink:href="#linear-gradient-5"/></defs><title>aaavvv_A33AAe__R21XArtboard 1</title><g id="tableaux_copy_3" data-name="tableaux copy 3"><g id="Layer_46_copy_2" data-name="Layer 46 copy 2"><rect class="cls-2" x="5.5" y="12.5" width="41" height="33"/><path class="cls-3" d="M46,13V45H6V13H46m1-1H5V46H47V12Z"/><rect class="cls-4" x="5.5" y="12.5" width="41" height="5"/><path class="cls-5" d="M46,13v4H6V13H46m1-1H5v6H47V12Z"/><rect class="cls-6" x="5.5" y="26.5" width="41" height="10"/><path class="cls-7" d="M46,27v9H6V27H46m1-1H5V37H47V26Z"/><line class="cls-8" x1="33.5" y1="18" x2="33.5" y2="46"/><line class="cls-9" x1="21.5" y1="18" x2="21.5" y2="46"/><g class="cls-10"><path class="cls-3" d="M46,13V45H6V13H46m1-1H5V46H47V12Z"/></g></g><g id="Layer_45_copy_2" data-name="Layer 45 copy 2"><rect x="8" y="19" width="5" height="5"/><rect x="13" y="29" width="5" height="5"/><rect x="13" y="39" width="5" height="5"/><polyline class="cls-11" points="14 41.5 10.5 41.5 10.5 32"/><polyline class="cls-11" points="14 31.5 10.5 31.5 10.5 24"/></g><g class="cls-12"><path class="cls-7" d="M46,13V45H6V13H46m1-1H5V46H47V12Z"/></g></g><g id="Layer_40_copy_3" data-name="Layer 40 copy 3"><g id="Layer_41_copy_5" data-name="Layer 41 copy 5"><rect class="cls-13" x="52.5" y="48.5" width="6" height="5"/><rect class="cls-14" x="35.5" y="48.5" width="7" height="5"/><rect class="cls-15" x="35.5" y="35.5" width="7" height="5"/><rect class="cls-16" x="35.5" y="22.5" width="7" height="5"/><rect class="cls-17" x="17.5" y="22.5" width="7" height="5"/></g><g id="FL_ronde" data-name="FL ronde"><path class="cls-18" d="M48.94,24.5H46.5v3h2.44c2.83,0,5.48,1,5.48,4s-3.08,3.92-5.92,3.92v-2L44,37l4.5,3.63V38.54s9,1.13,9-6.58C57.46,26.13,53.33,24.5,48.94,24.5Z"/><path class="cls-18" d="M28,37.5H32.5v3H28c-2.84,0-5.46,1-5.46,4s2.94,3.92,5.94,3.92v-2L33,50.08,28.5,53.63V51.54s-9,1.13-9-6.58C19.52,39.12,23.63,37.5,28,37.5Z"/></g><polygon class="cls-18" points="29.46 28.33 33.51 25.03 29.5 21.58 29.5 23.5 27.5 23.5 27.5 26.5 29.5 26.5 29.46 28.33"/><polygon class="cls-18" points="48.5 54.29 44.49 51.03 48.5 47.8 48.5 49.5 50.5 49.5 50.5 52.5 48.5 52.5 48.5 54.29"/></g></svg>