<?xml version="1.0" encoding="utf-8"?>
<!-- Generator: Adobe Illustrator 25.2.3, SVG Export Plug-In . SVG Version: 6.00 Build 0)  -->
<svg version="1.1" id="Layer_1" xmlns="http://www.w3.org/2000/svg" xmlns:xlink="http://www.w3.org/1999/xlink" x="0px" y="0px"
	 viewBox="0 0 64 64" style="enable-background:new 0 0 64 64;" xml:space="preserve">
<style type="text/css">
	.White_x0020_SINGLE{fill:url(#SVGID_1_);stroke:#333232;stroke-linejoin:round;stroke-miterlimit:10;}
	.White_x0020_SINGLE_x0020_2{fill:url(#SVGID_2_);stroke:#323232;stroke-linejoin:round;stroke-miterlimit:10;}
	
		.De_x002D_emphasized_x0020_WHITE_x0020_for_x0020_Vector_x0020_Highlights_x0020_4{opacity:0.5;fill:#FFFFFF;stroke:#FFFFFF;stroke-width:3;stroke-linejoin:round;stroke-miterlimit:10;}
	.st0{fill:url(#SVGID_3_);stroke:#053755;stroke-linejoin:round;stroke-miterlimit:10;}
	.st1{fill:url(#SVGID_4_);stroke:#053755;stroke-linejoin:round;stroke-miterlimit:10;}
	.st2{fill:url(#SVGID_5_);stroke:#053755;stroke-linejoin:round;stroke-miterlimit:10;}
	.st3{fill:url(#SVGID_6_);stroke:#053755;stroke-linejoin:round;stroke-miterlimit:10;}
	.st4{fill:url(#SVGID_7_);stroke:#053755;stroke-linejoin:round;stroke-miterlimit:10;}
	.st5{fill:#333232;}
	.st6{fill:url(#SVGID_8_);stroke:#333232;stroke-linejoin:round;stroke-miterlimit:10;}
	.st7{fill:#FFFFFF;}
	.st8{fill:url(#SVGID_9_);stroke:#323232;stroke-linejoin:round;stroke-miterlimit:10;}
</style>
<linearGradient id="SVGID_1_" gradientUnits="userSpaceOnUse" x1="-74" y1="0" x2="-73.5" y2="0.866">
	<stop  offset="0" style="stop-color:#FFFFFF"/>
	<stop  offset="1" style="stop-color:#D4D5D3"/>
</linearGradient>
<linearGradient id="SVGID_2_" gradientUnits="userSpaceOnUse" x1="-74" y1="0" x2="-73.5" y2="0.866">
	<stop  offset="0" style="stop-color:#FFFFFF"/>
	<stop  offset="1" style="stop-color:#D4D5D3"/>
</linearGradient>
<g>
	<linearGradient id="SVGID_3_" gradientUnits="userSpaceOnUse" x1="46.2495" y1="8.2361" x2="51.7505" y2="17.7639">
		<stop  offset="0" style="stop-color:#8ED7F3"/>
		<stop  offset="1" style="stop-color:#3A6F8D"/>
	</linearGradient>
	<circle class="st0" cx="49" cy="13" r="5.5"/>
	<linearGradient id="SVGID_4_" gradientUnits="userSpaceOnUse" x1="45.2495" y1="37.2361" x2="50.7505" y2="46.7639">
		<stop  offset="0" style="stop-color:#8ED7F3"/>
		<stop  offset="1" style="stop-color:#3A6F8D"/>
	</linearGradient>
	<circle class="st1" cx="48" cy="42" r="5.5"/>
	<linearGradient id="SVGID_5_" gradientUnits="userSpaceOnUse" x1="14.2495" y1="45.2361" x2="19.7505" y2="54.7639">
		<stop  offset="0" style="stop-color:#8ED7F3"/>
		<stop  offset="1" style="stop-color:#3A6F8D"/>
	</linearGradient>
	<circle class="st2" cx="17" cy="50" r="5.5"/>
	<linearGradient id="SVGID_6_" gradientUnits="userSpaceOnUse" x1="10.2495" y1="22.2361" x2="15.7505" y2="31.7639">
		<stop  offset="0" style="stop-color:#8ED7F3"/>
		<stop  offset="1" style="stop-color:#3A6F8D"/>
	</linearGradient>
	<circle class="st3" cx="13" cy="27" r="5.5"/>
	<linearGradient id="SVGID_7_" gradientUnits="userSpaceOnUse" x1="22.2495" y1="7.2361" x2="27.7505" y2="16.7639">
		<stop  offset="0" style="stop-color:#8ED7F3"/>
		<stop  offset="1" style="stop-color:#3A6F8D"/>
	</linearGradient>
	<circle class="st4" cx="25" cy="12" r="5.5"/>
	
		<rect x="40.33" y="36.28" transform="matrix(0.5326 -0.8464 0.8464 0.5326 -12.6148 52.4831)" class="st5" width="1.75" height="2.76"/>
	
		<rect x="39.92" y="17.12" transform="matrix(-0.7443 -0.6678 0.6678 -0.7443 56.4137 65.7555)" class="st5" width="1.75" height="9.91"/>
	
		<rect x="22.11" y="39.12" transform="matrix(0.7882 0.6154 -0.6154 0.7882 30.8519 -5.2059)" class="st5" width="1.75" height="6.2"/>
	
		<rect x="20.61" y="28.07" transform="matrix(-0.2839 0.9588 -0.9588 -0.2839 56.0948 17.5558)" class="st5" width="1.75" height="3.31"/>
	
		<rect x="26.6" y="18.67" transform="matrix(-0.9664 0.2572 -0.2572 -0.9664 59.5355 35.0894)" class="st5" width="1.75" height="5.54"/>
	<linearGradient id="SVGID_8_" gradientUnits="userSpaceOnUse" x1="27.5686" y1="26.8254" x2="35.0783" y2="39.8327">
		<stop  offset="0" style="stop-color:#FFFFFF"/>
		<stop  offset="1" style="stop-color:#D4D5D3"/>
	</linearGradient>
	<path class="st6" d="M31.32,25.81c1.03,0,2.01,0.2,2.93,0.6c0.92,0.4,1.71,0.94,2.38,1.61s1.2,1.46,1.6,2.38
		c0.4,0.92,0.6,1.9,0.6,2.93c0,1.04-0.2,2.01-0.6,2.93c-0.4,0.92-0.94,1.71-1.6,2.38c-0.67,0.67-1.46,1.2-2.38,1.6
		c-0.92,0.4-1.9,0.6-2.93,0.6s-2.01-0.2-2.93-0.6c-0.92-0.4-1.71-0.93-2.38-1.6c-0.67-0.67-1.2-1.46-1.6-2.38
		c-0.4-0.92-0.6-1.9-0.6-2.93c0-1.03,0.2-2.01,0.6-2.93c0.4-0.92,0.94-1.71,1.6-2.38s1.46-1.2,2.38-1.61
		C29.31,26.01,30.29,25.81,31.32,25.81z"/>
</g>
<g>
	<path class="De_x002D_emphasized_x0020_WHITE_x0020_for_x0020_Vector_x0020_Highlights_x0020_4" d="M52.88,46.02
		c0,0.32,0.06,0.62,0.17,0.92c0.12,0.3,0.3,0.58,0.55,0.83l0.85,0.85c-0.78,1.1-1.73,2.04-2.82,2.83l-0.85-0.85
		c-0.25-0.25-0.52-0.43-0.82-0.55c-0.3-0.12-0.61-0.17-0.93-0.17c-0.32,0-0.63,0.06-0.94,0.17c-0.31,0.12-0.58,0.29-0.81,0.51
		s-0.42,0.49-0.56,0.8s-0.21,0.65-0.21,1.01v1.2c-0.33,0.05-0.67,0.09-1,0.12c-0.33,0.03-0.67,0.05-1,0.05c-0.33,0-0.67-0.02-1-0.05
		c-0.33-0.03-0.67-0.07-1-0.12v-1.2c0-0.37-0.07-0.7-0.21-1.01s-0.33-0.58-0.56-0.8s-0.5-0.4-0.8-0.51
		c-0.3-0.12-0.62-0.17-0.95-0.17c-0.32,0-0.63,0.06-0.93,0.17c-0.3,0.12-0.57,0.3-0.82,0.55l-0.85,0.85
		c-1.1-0.78-2.04-1.73-2.82-2.83l0.85-0.85c0.25-0.25,0.43-0.53,0.55-0.83c0.12-0.3,0.18-0.61,0.18-0.92c0-0.33-0.06-0.65-0.18-0.95
		c-0.12-0.3-0.29-0.57-0.51-0.8c-0.23-0.23-0.49-0.42-0.79-0.56c-0.3-0.14-0.64-0.21-1.02-0.21h-1.2c-0.05-0.33-0.09-0.67-0.13-1
		s-0.05-0.67-0.05-1c0-0.33,0.02-0.67,0.05-1c0.03-0.33,0.08-0.67,0.13-1h1.2c0.38,0,0.72-0.07,1.02-0.21
		c0.3-0.14,0.56-0.33,0.79-0.56c0.22-0.23,0.4-0.5,0.51-0.81c0.12-0.31,0.18-0.62,0.18-0.94s-0.06-0.62-0.18-0.92
		c-0.12-0.3-0.3-0.58-0.55-0.83l-0.85-0.85c0.78-1.1,1.73-2.04,2.82-2.83l0.85,0.85c0.25,0.25,0.52,0.43,0.82,0.55
		c0.3,0.12,0.61,0.17,0.93,0.17c0.33,0,0.65-0.06,0.95-0.17s0.57-0.29,0.8-0.51s0.42-0.49,0.56-0.8s0.21-0.65,0.21-1.01v-1.2
		c0.33-0.05,0.67-0.09,1-0.12c0.33-0.03,0.67-0.05,1-0.05c0.33,0,0.67,0.02,1,0.05c0.33,0.03,0.67,0.07,1,0.12v1.2
		c0,0.38,0.07,0.73,0.21,1.04c0.14,0.31,0.33,0.57,0.56,0.79s0.5,0.38,0.81,0.5c0.31,0.12,0.62,0.17,0.94,0.17
		c0.3,0,0.6-0.05,0.91-0.16s0.59-0.29,0.84-0.54l0.85-0.88c1.1,0.78,2.04,1.73,2.82,2.83l-0.85,0.85c-0.25,0.25-0.43,0.53-0.55,0.83
		c-0.12,0.3-0.17,0.61-0.17,0.92s0.06,0.63,0.17,0.94c0.12,0.31,0.29,0.58,0.51,0.81c0.22,0.23,0.49,0.42,0.8,0.56
		c0.31,0.14,0.65,0.21,1.01,0.21h1.2c0.05,0.33,0.09,0.67,0.13,1c0.03,0.33,0.05,0.67,0.05,1c0,0.33-0.02,0.67-0.05,1
		s-0.08,0.67-0.13,1h-1.2c-0.37,0-0.7,0.07-1.01,0.21c-0.31,0.14-0.58,0.33-0.8,0.56c-0.23,0.23-0.4,0.5-0.51,0.8
		C52.93,45.38,52.88,45.69,52.88,46.02z"/>
	<g>
		<g>
			<circle class="st7" cx="44.5" cy="41.5" r="4.5"/>
		</g>
		<g>
			<linearGradient id="SVGID_9_" gradientUnits="userSpaceOnUse" x1="38.4103" y1="30.9523" x2="50.5897" y2="52.0477">
				<stop  offset="0" style="stop-color:#FFFFFF"/>
				<stop  offset="1" style="stop-color:#D4D5D3"/>
			</linearGradient>
			<path class="st8" d="M52.88,46.02c0,0.32,0.06,0.62,0.17,0.92c0.12,0.3,0.3,0.58,0.55,0.83l0.85,0.85
				c-0.78,1.1-1.73,2.04-2.82,2.83l-0.85-0.85c-0.25-0.25-0.52-0.43-0.82-0.55c-0.3-0.12-0.61-0.17-0.93-0.17
				c-0.32,0-0.63,0.06-0.94,0.17c-0.31,0.12-0.58,0.29-0.81,0.51s-0.42,0.49-0.56,0.8s-0.21,0.65-0.21,1.01v1.2
				c-0.33,0.05-0.67,0.09-1,0.12c-0.33,0.03-0.67,0.05-1,0.05c-0.33,0-0.67-0.02-1-0.05c-0.33-0.03-0.67-0.07-1-0.12v-1.2
				c0-0.37-0.07-0.7-0.21-1.01s-0.33-0.58-0.56-0.8s-0.5-0.4-0.8-0.51c-0.3-0.12-0.62-0.17-0.95-0.17c-0.32,0-0.63,0.06-0.93,0.17
				c-0.3,0.12-0.57,0.3-0.82,0.55l-0.85,0.85c-1.1-0.78-2.04-1.73-2.82-2.83l0.85-0.85c0.25-0.25,0.43-0.53,0.55-0.83
				c0.12-0.3,0.18-0.61,0.18-0.92c0-0.33-0.06-0.65-0.18-0.95c-0.12-0.3-0.29-0.57-0.51-0.8c-0.23-0.23-0.49-0.42-0.79-0.56
				c-0.3-0.14-0.64-0.21-1.02-0.21h-1.2c-0.05-0.33-0.09-0.67-0.13-1s-0.05-0.67-0.05-1c0-0.33,0.02-0.67,0.05-1
				c0.03-0.33,0.08-0.67,0.13-1h1.2c0.38,0,0.72-0.07,1.02-0.21c0.3-0.14,0.56-0.33,0.79-0.56c0.22-0.23,0.4-0.5,0.51-0.81
				c0.12-0.31,0.18-0.62,0.18-0.94s-0.06-0.62-0.18-0.92c-0.12-0.3-0.3-0.58-0.55-0.83l-0.85-0.85c0.78-1.1,1.73-2.04,2.82-2.83
				l0.85,0.85c0.25,0.25,0.52,0.43,0.82,0.55c0.3,0.12,0.61,0.17,0.93,0.17c0.33,0,0.65-0.06,0.95-0.17s0.57-0.29,0.8-0.51
				s0.42-0.49,0.56-0.8s0.21-0.65,0.21-1.01v-1.2c0.33-0.05,0.67-0.09,1-0.12c0.33-0.03,0.67-0.05,1-0.05c0.33,0,0.67,0.02,1,0.05
				c0.33,0.03,0.67,0.07,1,0.12v1.2c0,0.38,0.07,0.73,0.21,1.04c0.14,0.31,0.33,0.57,0.56,0.79s0.5,0.38,0.81,0.5
				c0.31,0.12,0.62,0.17,0.94,0.17c0.3,0,0.6-0.05,0.91-0.16s0.59-0.29,0.84-0.54l0.85-0.88c1.1,0.78,2.04,1.73,2.82,2.83
				l-0.85,0.85c-0.25,0.25-0.43,0.53-0.55,0.83c-0.12,0.3-0.17,0.61-0.17,0.92s0.06,0.63,0.17,0.94c0.12,0.31,0.29,0.58,0.51,0.81
				c0.22,0.23,0.49,0.42,0.8,0.56c0.31,0.14,0.65,0.21,1.01,0.21h1.2c0.05,0.33,0.09,0.67,0.13,1c0.03,0.33,0.05,0.67,0.05,1
				c0,0.33-0.02,0.67-0.05,1s-0.08,0.67-0.13,1h-1.2c-0.37,0-0.7,0.07-1.01,0.21c-0.31,0.14-0.58,0.33-0.8,0.56
				c-0.23,0.23-0.4,0.5-0.51,0.8C52.93,45.38,52.88,45.69,52.88,46.02z M44.76,45.96c0.6,0,1.17-0.12,1.71-0.35s1-0.55,1.4-0.94
				c0.4-0.4,0.71-0.86,0.95-1.4c0.23-0.53,0.35-1.1,0.35-1.71c0-0.6-0.12-1.17-0.35-1.71c-0.23-0.53-0.55-1-0.95-1.4
				c-0.4-0.4-0.86-0.71-1.4-0.94s-1.1-0.35-1.71-0.35c-0.6,0-1.17,0.12-1.71,0.35s-1,0.55-1.4,0.94c-0.4,0.4-0.71,0.86-0.94,1.4
				c-0.23,0.53-0.35,1.1-0.35,1.71c0,0.6,0.12,1.17,0.35,1.71c0.23,0.54,0.55,1,0.94,1.4c0.4,0.4,0.86,0.71,1.4,0.94
				S44.15,45.96,44.76,45.96z"/>
		</g>
	</g>
</g>
</svg>
