<svg id="Layer_13" data-name="Layer 13" xmlns="http://www.w3.org/2000/svg" xmlns:xlink="http://www.w3.org/1999/xlink" viewBox="0 0 64 64"><defs><style>.\33 D-White-Front-Right,.\33 D-White-Left,.\33 D-White-Top{stroke:#797979;}.\33 D-Blue-Front-Right,.\33 D-Blue-Left,.\33 D-Blue-Top,.\33 D-White-Front-Right,.\33 D-White-Left,.\33 D-White-Top,.SINGLE-White-Item-3,.cls-1,.cls-6{stroke-linecap:round;}.\33 D-Blue-Front-Right,.\33 D-Blue-Left,.\33 D-Blue-Top,.\33 D-White-Front-Right,.\33 D-White-Left,.\33 D-White-Top,.SINGLE-White-Item-3,.cls-1{stroke-linejoin:round;}.\33 D-White-Front-Right{fill:url(#linear-gradient);}.\33 D-White-Top{fill:url(#linear-gradient-2);}.\33 D-White-Left{fill:url(#linear-gradient-3);}.cls-1,.cls-8{fill:none;}.SINGLE-White-Item-3,.cls-1{stroke:#333332;}.\33 D-Blue-Front-Right,.\33 D-Blue-Left,.\33 D-Blue-Top{stroke:#053755;}.\33 D-Blue-Top{fill:url(#linear-gradient-4);}.\33 D-Blue-Left{fill:url(#linear-gradient-5);}.\33 D-Blue-Front-Right{fill:url(#linear-gradient-6);}.SINGLE-White-Item-3{fill:url(#linear-gradient-7);}.cls-2{fill:url(#linear-gradient-10);}.Error-Red{fill:url(#linear-gradient-11);}.cls-3,.cls-6,.cls-7,.cls-8{stroke:#2d2d2d;}.cls-3,.cls-4,.cls-5,.cls-6,.cls-7,.cls-8{stroke-miterlimit:10;}.cls-3{fill:url(#linear-gradient-12);}.cls-4{stroke:#6d6d6d;fill:url(#linear-gradient-13);}.cls-5{stroke:#00415f;fill:url(#linear-gradient-14);}.cls-6{fill:#2d2d2d;}.cls-7{fill:url(#linear-gradient-15);}</style><linearGradient id="linear-gradient" x1="40.53" y1="24.26" x2="49.87" y2="40.44" gradientUnits="userSpaceOnUse"><stop offset="0" stop-color="#fff"/><stop offset="1" stop-color="#d2d3d3"/></linearGradient><linearGradient id="linear-gradient-2" x1="30.59" y1="13.22" x2="39.85" y2="29.26" gradientUnits="userSpaceOnUse"><stop offset="0" stop-color="#fff"/><stop offset="1" stop-color="#f1f0f0"/></linearGradient><linearGradient id="linear-gradient-3" x1="22.42" y1="20.1" x2="37.53" y2="46.28" gradientUnits="userSpaceOnUse"><stop offset="0" stop-color="#f5f6f6"/><stop offset="0.99" stop-color="#bfbebe"/></linearGradient><linearGradient id="linear-gradient-4" x1="42.29" y1="24.34" x2="37.8" y2="16.56" gradientUnits="userSpaceOnUse"><stop offset="0" stop-color="#74c4e2"/><stop offset="1" stop-color="#a4def6"/></linearGradient><linearGradient id="linear-gradient-5" x1="38.69" y1="35.62" x2="30.53" y2="21.49" gradientUnits="userSpaceOnUse"><stop offset="0" stop-color="#2a5b79"/><stop offset="1" stop-color="#84bedc"/></linearGradient><linearGradient id="linear-gradient-6" x1="47.64" y1="30.07" x2="42.5" y2="21.17" gradientUnits="userSpaceOnUse"><stop offset="0" stop-color="#386f8d"/><stop offset="1" stop-color="#8dd7f4"/></linearGradient><linearGradient id="linear-gradient-7" x1="47.94" y1="12.06" x2="53.31" y2="21.37" gradientUnits="userSpaceOnUse"><stop offset="0" stop-color="#f5f6f6"/><stop offset="0.99" stop-color="#d2d3d3"/></linearGradient><linearGradient id="linear-gradient-10" x1="51.23" y1="12.98" x2="54.28" y2="18.26" gradientUnits="userSpaceOnUse"><stop offset="0" stop-color="#55b432"/><stop offset="1" stop-color="#379614"/></linearGradient><linearGradient id="linear-gradient-11" x1="47.41" y1="25.41" x2="53.83" y2="31.83" gradientUnits="userSpaceOnUse"><stop offset="0" stop-color="#fa3c05"/><stop offset="1" stop-color="#c81400"/></linearGradient><linearGradient id="linear-gradient-12" x1="14.22" y1="20.96" x2="32.05" y2="79.27" gradientUnits="userSpaceOnUse"><stop offset="0" stop-color="#fff"/><stop offset="0.5" stop-color="#c4c4c4"/><stop offset="0.9" stop-color="#575757"/></linearGradient><linearGradient id="linear-gradient-13" x1="22.05" y1="43.56" x2="16.56" y2="38.07" gradientUnits="userSpaceOnUse"><stop offset="0.1" stop-color="#575757"/><stop offset="0.5" stop-color="#c4c4c4"/><stop offset="1" stop-color="#fff"/></linearGradient><linearGradient id="linear-gradient-14" x1="22.02" y1="43.6" x2="16.53" y2="38.1" gradientTransform="translate(34.53 -1.66) rotate(45.01)" gradientUnits="userSpaceOnUse"><stop offset="0.1" stop-color="#195a72"/><stop offset="0.5" stop-color="#5a9cb5"/><stop offset="1" stop-color="#93d2f0"/></linearGradient><linearGradient id="linear-gradient-15" x1="27.38" y1="27.22" x2="32.9" y2="32.74" gradientUnits="userSpaceOnUse"><stop offset="0" stop-color="#505050"/><stop offset="0.9" stop-color="#2d2d2d"/></linearGradient></defs><polygon class="3D-White-Front-Right" points="50.5 15.5 39.5 23.5 39.5 48.5 50.5 36.5 50.5 15.5"/><polygon class="3D-White-Top" points="18.5 17.5 32.5 11.5 50.5 15.5 50.5 22.5 39.5 31.5 18.5 24.5 18.5 17.5"/><polygon class="3D-White-Left" points="18.5 17.5 18.5 39.5 39.5 48.5 39.5 23.5 18.5 17.5"/><polygon class="cls-1" points="32.5 11.5 18.5 17.5 18.5 24.5 18.5 39.5 39.5 48.5 50.5 36.5 50.5 22.5 50.5 15.5 32.5 11.5"/><polygon class="3D-Blue-Top" points="28.5 23.5 28.5 20.5 41.5 13.5 50.5 15.5 50.5 18.5 39.5 26.5 28.5 23.5"/><polygon class="3D-Blue-Left" points="28.5 31.5 28.5 20.5 39.5 23.5 39.5 35.5 28.5 31.5"/><polygon class="3D-Blue-Front-Right" points="50.5 15.5 39.5 23.5 39.5 35.5 50.5 26 50.5 15.5"/><rect class="SINGLE-White-Item-3" x="45.5" y="11.5" width="10" height="10" rx="1"/><rect class="SINGLE-White-Item-3" x="45.5" y="23.5" width="10" height="10" rx="1"/><rect class="SINGLE-White-Item-3" x="45.5" y="35.5" width="10" height="10" rx="1"/><path class="cls-2" d="M51,20a1,1,0,0,1-.71-.29l-3-3a1,1,0,0,1,1.42-1.42L51,17.59l4.79-4.8a1,1,0,0,1,1.42,1.42l-5.5,5.5A1,1,0,0,1,51,20Z"/><path class="Error-Red" d="M51.91,28.5l1.8-1.79a1,1,0,0,0-1.42-1.42l-1.79,1.8-1.79-1.8a1,1,0,0,0-1.42,1.42l1.8,1.79-1.8,1.79a1,1,0,0,0,0,1.42,1,1,0,0,0,1.42,0l1.79-1.8,1.79,1.8a1,1,0,0,0,1.42,0,1,1,0,0,0,0-1.42Z"/><path class="cls-3" d="M33.14,47.61,12.47,27C11.54,26.05,9.55,26.52,8,28s-2,3.5-1.06,4.43L27.64,53.1c.94.93,2.92.46,4.44-1.06S34.07,48.54,33.14,47.61Z"/><path class="cls-4" d="M32.09,28c-1.52-1.52-3.5-2-4.44-1.06L10.83,43.8c-2.35,2.35-4.32,9.78-4.32,9.78S14,51.65,16.32,49.3L33.15,32.47C34.08,31.54,33.61,29.55,32.09,28Z"/><rect class="cls-5" x="11.21" y="36.97" width="16.12" height="7.77" transform="translate(-23.24 25.6) rotate(-45.01)"/><path class="cls-6" d="M10.76,52.24,7.87,49.35C7,51.59,6.51,53.58,6.51,53.58S8.51,53.06,10.76,52.24Z"/><path class="cls-7" d="M33.15,32.47c.93-.93.46-2.92-1.06-4.43s-3.5-2-4.44-1.06l-2.2,2.2,5.49,5.49Z"/><path class="cls-8" d="M32.09,28c-1.52-1.52-3.5-2-4.44-1.06L10.83,43.8a17.28,17.28,0,0,0-3,5.55v0c-.05.12-.09.25-.14.37a0,0,0,0,1,0,0c0,.13-.09.26-.14.39h0c-.05.13-.09.26-.13.39h0c-.58,1.69-.93,3-.93,3s1.53-.4,3.41-1h0l.38-.13,0,0,.35-.12,0,0a17.12,17.12,0,0,0,5.56-2.94L33.15,32.47C34.08,31.54,33.61,29.55,32.09,28Z"/><line class="cls-8" x1="27.21" y1="41.88" x2="25.41" y2="43.68"/><line class="cls-8" x1="28.56" y1="43.23" x2="27.21" y2="44.58"/><line class="cls-8" x1="29.91" y1="44.58" x2="28.56" y2="45.93"/><line class="cls-8" x1="31.26" y1="45.93" x2="29.91" y2="47.28"/><line class="cls-8" x1="32.61" y1="47.28" x2="30.81" y2="49.08"/><line class="cls-8" x1="12.8" y1="27.47" x2="11" y2="29.27"/><line class="cls-8" x1="14.15" y1="28.82" x2="12.8" y2="30.17"/><line class="cls-8" x1="15.5" y1="30.17" x2="14.15" y2="31.52"/><line class="cls-8" x1="16.85" y1="31.52" x2="15.5" y2="32.87"/><line class="cls-8" x1="18.2" y1="32.87" x2="16.4" y2="34.67"/></svg>