<svg xmlns="http://www.w3.org/2000/svg" xmlns:xlink="http://www.w3.org/1999/xlink" width="64" height="64" viewBox="0 0 64 64">
  <defs>
    <linearGradient id="a" x1="21.248" y1="13.377" x2="42.752" y2="50.623" gradientUnits="userSpaceOnUse">
      <stop offset="0" stop-color="#8dd7f4"/>
      <stop offset="1" stop-color="#386e8c"/>
    </linearGradient>
    <linearGradient id="b" x1="30.783" y1="25.661" x2="36.364" y2="35.326" gradientUnits="userSpaceOnUse">
      <stop offset="0" stop-color="#d7d7d7"/>
      <stop offset="1" stop-color="#969696"/>
    </linearGradient>
  </defs>
  <title>29126_ENORERE_AP_AppIcon_r21x</title>
  <g>
    <path d="M32,10.5A21.5,21.5,0,1,0,53.5,32,21.5,21.5,0,0,0,32,10.5Zm2.773,38.436L32,44.5l-2.77,4.432a2.018,2.018,0,0,1-2.257.868A18.525,18.525,0,0,1,14.2,37.027a2.011,2.011,0,0,1,.864-2.254L19.5,32l-4.432-2.77a2.018,2.018,0,0,1-.868-2.257A18.525,18.525,0,0,1,26.973,14.2a2.011,2.011,0,0,1,2.254.864L32,19.5l2.77-4.432a2.018,2.018,0,0,1,2.257-.868A18.525,18.525,0,0,1,49.8,26.973a2.018,2.018,0,0,1-.868,2.257L44.5,32l4.432,2.77a2.018,2.018,0,0,1,.868,2.257A18.525,18.525,0,0,1,37.027,49.8,2.011,2.011,0,0,1,34.773,48.936Z" stroke="#053755" stroke-linejoin="round" fill="url(#a)"/>
    <g opacity="0.2">
      <path d="M49.2,33.346,46.243,31.5l-.8.5L49.2,34.346a2.516,2.516,0,0,1,1.123,1.619A2.523,2.523,0,0,0,49.2,33.346Z"/>
      <path d="M14.8,34.349,18.557,32l-.8-.5L14.8,33.349a2.519,2.519,0,0,0-1.119,2.614A2.508,2.508,0,0,1,14.8,34.349Z"/>
      <path d="M32,52A21.013,21.013,0,0,1,11.025,31.5c0,.168-.025.331-.025.5a21,21,0,0,0,42,0c0-.169-.021-.332-.025-.5A21.013,21.013,0,0,1,32,52Z"/>
      <path d="M50.281,25.838A19.093,19.093,0,0,0,37.162,12.719,2.53,2.53,0,0,0,34.346,13.8L32,17.557,29.651,13.8a2.525,2.525,0,0,0-2.813-1.079A19.093,19.093,0,0,0,13.719,25.838a2.506,2.506,0,0,0-.038,1.2c.012-.065.019-.131.038-.2A19.093,19.093,0,0,1,26.838,13.719,2.525,2.525,0,0,1,29.651,14.8L32,18.557,34.346,14.8a2.53,2.53,0,0,1,2.816-1.084A19.093,19.093,0,0,1,50.281,26.838a1.9,1.9,0,0,1,.038.2A2.505,2.505,0,0,0,50.281,25.838Z"/>
    </g>
    <g opacity="0.3">
      <path d="M49.2,29.654,45.443,32l.8.5L49.2,30.654a2.523,2.523,0,0,0,1.123-2.619A2.512,2.512,0,0,1,49.2,29.654Z" fill="#fff"/>
      <path d="M32,12A21.013,21.013,0,0,1,52.975,32.5c0-.168.025-.331.025-.5a21,21,0,0,0-42,0c0,.169.021.332.025.5A21.013,21.013,0,0,1,32,12Z" fill="#fff"/>
      <path d="M13.719,38.162A19.089,19.089,0,0,0,26.838,51.281,2.536,2.536,0,0,0,29.654,50.2L32,46.443,34.349,50.2h0a2.522,2.522,0,0,0,2.813,1.079A19.089,19.089,0,0,0,50.281,38.162a2.506,2.506,0,0,0,.038-1.2c-.012.065-.019.131-.038.2A19.089,19.089,0,0,1,37.162,50.281,2.522,2.522,0,0,1,34.349,49.2h0L32,45.443,29.654,49.2a2.536,2.536,0,0,1-2.816,1.085A19.089,19.089,0,0,1,13.719,37.162c-.019-.066-.026-.133-.039-.2A2.527,2.527,0,0,0,13.719,38.162Z" fill="#fff"/>
      <path d="M14.8,30.654,17.757,32.5l.8-.5L14.8,29.654a2.516,2.516,0,0,1-1.123-1.619A2.523,2.523,0,0,0,14.8,30.654Z" fill="#fff"/>
    </g>
  </g>
  <g>
    <path d="M40.5,23.5l3,3c-4,2-11,10-13.5,12.5a43.484,43.484,0,0,0-7.5-6.5A22.586,22.586,0,0,1,25,29a49.608,49.608,0,0,1,5,5A60.833,60.833,0,0,1,40.5,23.5Z" stroke="#323232" stroke-linejoin="round" fill="url(#b)"/>
    <path d="M31.684,35.517c-.65.689-1.223,1.3-1.687,1.773a48.608,48.608,0,0,0-6.373-5.652c-.148.223-.3.452-.445.695A44.934,44.934,0,0,1,30,38.29c.464-.477,1.037-1.084,1.687-1.773,3.121-3.309,7.743-8.207,10.992-10.135l-.613-.612C38.865,27.905,34.613,32.411,31.684,35.517Z" opacity="0.2"/>
    <path d="M25.049,30.714a47.117,47.117,0,0,1,4.571,4.611.51.51,0,0,0,.392.175.5.5,0,0,0,.383-.193A59.523,59.523,0,0,1,40.469,25.176l1.594,1.594c.209-.14.414-.27.613-.388l-2.207-2.206A59.523,59.523,0,0,0,30.4,34.307a.5.5,0,0,1-.383.193.51.51,0,0,1-.392-.175,47.117,47.117,0,0,0-4.571-4.611,22.738,22.738,0,0,0-1.87,2.619c.148.095.3.2.445.3A23.678,23.678,0,0,1,25.049,30.714Z" fill="#fff" opacity="0.4"/>
  </g>
</svg>
