<svg id="Layer_3" data-name="Layer 3" xmlns="http://www.w3.org/2000/svg" xmlns:xlink="http://www.w3.org/1999/xlink" viewBox="0 0 64 64"><defs><linearGradient id="linear-gradient" x1="26.16" y1="12.92" x2="43.99" y2="71.23" gradientUnits="userSpaceOnUse"><stop offset="0" stop-color="#fff"/><stop offset="0.5" stop-color="#c4c4c4"/><stop offset="0.9" stop-color="#575757"/></linearGradient><linearGradient id="linear-gradient-2" x1="33.99" y1="35.52" x2="28.5" y2="30.03" gradientUnits="userSpaceOnUse"><stop offset="0.1" stop-color="#575757"/><stop offset="0.5" stop-color="#c4c4c4"/><stop offset="1" stop-color="#fff"/></linearGradient><linearGradient id="linear-gradient-3" x1="33.96" y1="35.56" x2="28.46" y2="30.06" gradientTransform="translate(32.35 -12.46) rotate(45.01)" gradientUnits="userSpaceOnUse"><stop offset="0.1" stop-color="#195a72"/><stop offset="0.5" stop-color="#5a9cb5"/><stop offset="1" stop-color="#93d2f0"/></linearGradient><linearGradient id="linear-gradient-4" x1="39.32" y1="19.18" x2="44.84" y2="24.7" gradientUnits="userSpaceOnUse"><stop offset="0" stop-color="#505050"/><stop offset="0.9" stop-color="#2d2d2d"/></linearGradient></defs><title>ENOR3D_AP_AppIcon</title><path d="M45.07,39.57,24.41,18.94C23.48,18,21.49,18.48,20,20s-2,3.5-1,4.43L39.58,45.06c.93.93,2.92.46,4.44-1.06S46,40.5,45.07,39.57Z" stroke="#2d2d2d" stroke-miterlimit="10" fill="url(#linear-gradient)"/><path d="M44,20c-1.52-1.52-3.51-2-4.44-1.06L22.77,35.76c-2.35,2.35-4.32,9.78-4.32,9.78s7.46-1.93,9.81-4.28L45.08,24.43C46,23.5,45.54,21.51,44,20Z" stroke="#6d6d6d" stroke-miterlimit="10" fill="url(#linear-gradient-2)"/><rect x="23.15" y="28.93" width="16.12" height="7.77" transform="translate(-14.06 31.68) rotate(-45.01)" stroke="#00415f" stroke-miterlimit="10" fill="url(#linear-gradient-3)"/><path d="M22.7,44.2l-2.89-2.89c-.83,2.24-1.36,4.23-1.36,4.23S20.44,45,22.7,44.2Z" fill="#2d2d2d" stroke="#2d2d2d" stroke-linecap="round" stroke-miterlimit="10"/><path d="M45.08,24.43c.94-.93.46-2.92-1-4.43s-3.51-2-4.44-1.06l-2.2,2.2,5.49,5.49Z" stroke="#2d2d2d" stroke-miterlimit="10" fill="url(#linear-gradient-4)"/><path d="M44,20c-1.52-1.52-3.51-2-4.44-1.06L22.77,35.76a17.28,17.28,0,0,0-3,5.55v0c-.05.12-.09.25-.14.37s0,0,0,0l-.14.39h0l-.14.39h0c-.57,1.69-.92,3-.92,3s1.52-.4,3.41-1h0l.37-.13.05,0,.35-.12.05,0a17.22,17.22,0,0,0,5.56-2.94L45.08,24.43C46,23.5,45.54,21.51,44,20Z" fill="none" stroke="#2d2d2d" stroke-miterlimit="10"/><line x1="39.14" y1="33.84" x2="37.34" y2="35.64" fill="none" stroke="#2d2d2d" stroke-miterlimit="10"/><line x1="40.49" y1="35.19" x2="39.14" y2="36.54" fill="none" stroke="#2d2d2d" stroke-miterlimit="10"/><line x1="41.84" y1="36.54" x2="40.49" y2="37.89" fill="none" stroke="#2d2d2d" stroke-miterlimit="10"/><line x1="43.19" y1="37.89" x2="41.84" y2="39.24" fill="none" stroke="#2d2d2d" stroke-miterlimit="10"/><line x1="44.54" y1="39.24" x2="42.74" y2="41.04" fill="none" stroke="#2d2d2d" stroke-miterlimit="10"/><line x1="24.74" y1="19.43" x2="22.94" y2="21.23" fill="none" stroke="#2d2d2d" stroke-miterlimit="10"/><line x1="26.09" y1="20.78" x2="24.74" y2="22.13" fill="none" stroke="#2d2d2d" stroke-miterlimit="10"/><line x1="27.44" y1="22.13" x2="26.09" y2="23.48" fill="none" stroke="#2d2d2d" stroke-miterlimit="10"/><line x1="28.79" y1="23.48" x2="27.44" y2="24.83" fill="none" stroke="#2d2d2d" stroke-miterlimit="10"/><line x1="30.14" y1="24.83" x2="28.34" y2="26.63" fill="none" stroke="#2d2d2d" stroke-miterlimit="10"/></svg>