<svg xmlns="http://www.w3.org/2000/svg" xmlns:xlink="http://www.w3.org/1999/xlink" viewBox="0 0 64 64"><defs><linearGradient id="a" x1="40.53" y1="24.26" x2="49.87" y2="40.44" gradientUnits="userSpaceOnUse"><stop offset="0" stop-color="#fff"/><stop offset="1" stop-color="#d2d3d3"/></linearGradient><linearGradient id="b" x1="30.59" y1="13.22" x2="39.85" y2="29.26" gradientUnits="userSpaceOnUse"><stop offset="0" stop-color="#fff"/><stop offset="1" stop-color="#f1f0f0"/></linearGradient><linearGradient id="c" x1="22.42" y1="20.1" x2="37.53" y2="46.28" gradientUnits="userSpaceOnUse"><stop offset="0" stop-color="#f5f6f6"/><stop offset="0.99" stop-color="#bfbebe"/></linearGradient><linearGradient id="d" x1="42.29" y1="24.34" x2="37.8" y2="16.56" gradientUnits="userSpaceOnUse"><stop offset="0" stop-color="#74c4e2"/><stop offset="1" stop-color="#a4def6"/></linearGradient><linearGradient id="e" x1="38.69" y1="35.62" x2="30.53" y2="21.49" gradientUnits="userSpaceOnUse"><stop offset="0" stop-color="#2a5b79"/><stop offset="1" stop-color="#84bedc"/></linearGradient><linearGradient id="f" x1="47.64" y1="30.07" x2="42.5" y2="21.17" gradientUnits="userSpaceOnUse"><stop offset="0" stop-color="#386f8d"/><stop offset="1" stop-color="#8dd7f4"/></linearGradient><linearGradient id="g" x1="49.94" y1="12.06" x2="55.31" y2="21.37" gradientUnits="userSpaceOnUse"><stop offset="0" stop-color="#f5f6f6"/><stop offset="0.99" stop-color="#d2d3d3"/></linearGradient><linearGradient id="j" x1="53.23" y1="12.98" x2="56.28" y2="18.26" gradientUnits="userSpaceOnUse"><stop offset="0" stop-color="#55b432"/><stop offset="1" stop-color="#379614"/></linearGradient><linearGradient id="k" x1="49.41" y1="25.41" x2="55.83" y2="31.83" gradientUnits="userSpaceOnUse"><stop offset="0" stop-color="#fa3c05"/><stop offset="1" stop-color="#c81400"/></linearGradient><linearGradient id="l" x1="39.04" y1="37.72" x2="12.29" y2="57.77" gradientUnits="userSpaceOnUse"><stop offset="0" stop-color="#fff"/><stop offset="1" stop-color="#d4d5d3"/></linearGradient><linearGradient id="m" x1="11.76" y1="43.6" x2="15.18" y2="49.52" gradientUnits="userSpaceOnUse"><stop offset="0" stop-color="#ef4423"/><stop offset="1" stop-color="#c02026"/></linearGradient><linearGradient id="n" x1="20.61" y1="38.16" x2="23.28" y2="42.79" gradientUnits="userSpaceOnUse"><stop offset="0" stop-color="#fae769"/><stop offset="1" stop-color="#f1cf30"/></linearGradient><linearGradient id="o" x1="29.6" y1="42.79" x2="32.27" y2="38.16" gradientUnits="userSpaceOnUse"><stop offset="0" stop-color="#399745"/><stop offset="1" stop-color="#56b447"/></linearGradient><linearGradient id="p" x1="29.35" y1="43.22" x2="32.52" y2="37.73" gradientUnits="userSpaceOnUse"><stop offset="0" stop-color="#2b793c"/><stop offset="1" stop-color="#3d9b46"/></linearGradient><linearGradient id="q" x1="36.61" y1="42.3" x2="41.13" y2="50.13" gradientUnits="userSpaceOnUse"><stop offset="0" stop-color="#a3def6"/><stop offset="1" stop-color="#74c3e1"/></linearGradient><linearGradient id="r" x1="26.32" y1="47.3" x2="30.65" y2="54.8" gradientUnits="userSpaceOnUse"><stop offset="0" stop-color="#3387af"/><stop offset="1" stop-color="#285a78"/></linearGradient><radialGradient id="s" cx="25.89" cy="54.62" r="2" gradientUnits="userSpaceOnUse"><stop offset="0.07" stop-color="#fff"/><stop offset="0.52" stop-color="#82bddb"/></radialGradient></defs><polygon points="50.5 15.5 39.5 23.5 39.5 48.5 50.5 36.5 50.5 15.5" stroke="#797979" stroke-linecap="round" stroke-linejoin="round" fill="url(#a)"/><polygon points="18.5 17.5 32.5 11.5 50.5 15.5 50.5 22.5 39.5 31.5 18.5 24.5 18.5 17.5" stroke="#797979" stroke-linecap="round" stroke-linejoin="round" fill="url(#b)"/><polygon points="18.5 17.5 18.5 39.5 39.5 48.5 39.5 23.5 18.5 17.5" stroke="#797979" stroke-linecap="round" stroke-linejoin="round" fill="url(#c)"/><polygon points="32.5 11.5 18.5 17.5 18.5 24.5 18.5 39.5 39.5 48.5 50.5 36.5 50.5 22.5 50.5 15.5 32.5 11.5" fill="none" stroke="#333332" stroke-linecap="round" stroke-linejoin="round"/><polygon points="28.5 23.5 28.5 20.5 41.5 13.5 50.5 15.5 50.5 18.5 39.5 26.5 28.5 23.5" stroke="#053755" stroke-linecap="round" stroke-linejoin="round" fill="url(#d)"/><polygon points="28.5 31.5 28.5 20.5 39.5 23.5 39.5 35.5 28.5 31.5" stroke="#053755" stroke-linecap="round" stroke-linejoin="round" fill="url(#e)"/><polygon points="50.5 15.5 39.5 23.5 39.5 35.5 50.5 26 50.5 15.5" stroke="#053755" stroke-linecap="round" stroke-linejoin="round" fill="url(#f)"/><rect x="47.5" y="11.5" width="10" height="10" rx="1" stroke="#333332" stroke-linecap="round" stroke-linejoin="round" fill="url(#g)"/><rect x="47.5" y="23.5" width="10" height="10" rx="1" stroke="#333332" stroke-linecap="round" stroke-linejoin="round" fill="url(#g)"/><rect x="47.5" y="35.5" width="10" height="10" rx="1" stroke="#333332" stroke-linecap="round" stroke-linejoin="round" fill="url(#g)"/><path d="M53,20a1,1,0,0,1-.71-.29l-3-3a1,1,0,0,1,1.42-1.42L53,17.59l4.79-4.8a1,1,0,0,1,1.42,1.42l-5.5,5.5A1,1,0,0,1,53,20Z" fill="url(#j)"/><path d="M53.91,28.5l1.8-1.79a1,1,0,0,0-1.42-1.42l-1.79,1.8-1.79-1.8a1,1,0,0,0-1.42,1.42l1.8,1.79-1.8,1.79a1,1,0,0,0,0,1.42,1,1,0,0,0,1.42,0l1.79-1.8,1.79,1.8a1,1,0,0,0,1.42,0,1,1,0,0,0,0-1.42Z" fill="url(#k)"/><path d="M46.34,50.08h0L26.43,56.55,6.54,50.09c1.06-4.62,6.6-15.59,19.9-15.59S45.27,45.46,46.34,50.08Z" stroke="#323232" stroke-linejoin="round" fill="url(#l)"/><path d="M6.54,50.09c1.06-4.62,6.6-15.59,19.9-15.59s18.83,11,19.9,15.58h0" fill="none" stroke="#053755" stroke-linejoin="round"/><path d="M15.14,41.65A17.4,17.4,0,0,0,10,49.1l3.81,1.24a13.48,13.48,0,0,1,3.72-5.45Z" stroke="#821918" stroke-linejoin="round" fill="url(#m)"/><path d="M16.73,40.44l2.35,3.24h0a13.35,13.35,0,0,1,6.35-2.14v-4A17.43,17.43,0,0,0,16.73,40.44Z" stroke="#96341f" stroke-linejoin="round" fill="url(#n)"/><path d="M27.44,37.53v4a13.35,13.35,0,0,1,6.35,2.14h0l2.35-3.24A17.43,17.43,0,0,0,27.44,37.53Z" stroke-linejoin="round" fill="url(#o)" stroke="url(#p)"/><path d="M37.74,41.65l-2.35,3.24a13.55,13.55,0,0,1,3.72,5.44l3.81-1.23A17.4,17.4,0,0,0,37.74,41.65Z" stroke="#053755" stroke-linejoin="round" fill="url(#q)"/><path d="M32,46.6A1.51,1.51,0,0,0,29.17,46l-4.09,8.9a1.44,1.44,0,0,0-.14.63,1.5,1.5,0,0,0,2.86.63l4.1-8.9A1.6,1.6,0,0,0,32,46.6Z" fill="url(#r)"/><circle cx="26.44" cy="55.5" r="2" stroke="#003654" stroke-miterlimit="10" fill="url(#s)"/></svg>