<?xml version="1.0" encoding="utf-8"?>
<!-- Generator: Adobe Illustrator 24.0.0, SVG Export Plug-In . SVG Version: 6.00 Build 0)  -->
<svg version="1.1" id="Layer_1" xmlns="http://www.w3.org/2000/svg" xmlns:xlink="http://www.w3.org/1999/xlink" x="0px" y="0px"
	 viewBox="0 0 64 64" style="enable-background:new 0 0 64 64;" xml:space="preserve">
<style type="text/css">
	.st0{fill:url(#SVGID_1_);stroke:#053755;stroke-linejoin:round;stroke-miterlimit:10;}
	.st1{fill:url(#SVGID_2_);stroke:#053755;stroke-linejoin:round;stroke-miterlimit:10;}
	.st2{fill:url(#SVGID_3_);stroke:#053755;stroke-linejoin:round;stroke-miterlimit:10;}
	.st3{fill:url(#SVGID_4_);stroke:#053755;stroke-linejoin:round;stroke-miterlimit:10;}
	.st4{fill:url(#SVGID_5_);stroke:#053755;stroke-linejoin:round;stroke-miterlimit:10;}
	.st5{fill:#323232;}
	.st6{fill:url(#SVGID_6_);stroke:#323232;stroke-linejoin:round;stroke-miterlimit:10;}
</style>
<g>
	<linearGradient id="SVGID_1_" gradientUnits="userSpaceOnUse" x1="48.2495" y1="8.2361" x2="53.7505" y2="17.7639">
		<stop  offset="0" style="stop-color:#8DD7F4"/>
		<stop  offset="1" style="stop-color:#386E8C"/>
	</linearGradient>
	<circle class="st0" cx="51" cy="13" r="5.5"/>
	<linearGradient id="SVGID_2_" gradientUnits="userSpaceOnUse" x1="48.2495" y1="39.2361" x2="53.7505" y2="48.7639">
		<stop  offset="0" style="stop-color:#8DD7F4"/>
		<stop  offset="1" style="stop-color:#386E8C"/>
	</linearGradient>
	<circle class="st1" cx="51" cy="44" r="5.5"/>
	<linearGradient id="SVGID_3_" gradientUnits="userSpaceOnUse" x1="16.2495" y1="46.2361" x2="21.7505" y2="55.7639">
		<stop  offset="0" style="stop-color:#8DD7F4"/>
		<stop  offset="1" style="stop-color:#386E8C"/>
	</linearGradient>
	<circle class="st2" cx="19" cy="51" r="5.5"/>
	<linearGradient id="SVGID_4_" gradientUnits="userSpaceOnUse" x1="10.2495" y1="24.2361" x2="15.7505" y2="33.7639">
		<stop  offset="0" style="stop-color:#8DD7F4"/>
		<stop  offset="1" style="stop-color:#386E8C"/>
	</linearGradient>
	<circle class="st3" cx="13" cy="29" r="5.5"/>
	<linearGradient id="SVGID_5_" gradientUnits="userSpaceOnUse" x1="23.2495" y1="8.2361" x2="28.7505" y2="17.7639">
		<stop  offset="0" style="stop-color:#8DD7F4"/>
		<stop  offset="1" style="stop-color:#386E8C"/>
	</linearGradient>
	<circle class="st4" cx="26" cy="13" r="5.5"/>
	
		<rect x="42.5" y="37.3" transform="matrix(0.5326 -0.8464 0.8464 0.5326 -12.7676 55.0392)" class="st5" width="1.9" height="3.6"/>
	
		<rect x="41.8" y="17.3" transform="matrix(-0.7443 -0.6678 0.6678 -0.7443 59.2423 68.3575)" class="st5" width="1.9" height="11.1"/>
	<rect x="23.9" y="40.8" transform="matrix(0.7882 0.6154 -0.6154 0.7882 31.8799 -6.1198)" class="st5" width="1.9" height="5"/>
	
		<rect x="21.1" y="28.4" transform="matrix(-0.2839 0.9588 -0.9588 -0.2839 57.4842 18.0463)" class="st5" width="1.9" height="4.1"/>
	<rect x="28" y="19" transform="matrix(-0.9664 0.2572 -0.2572 -0.9664 62.5455 35.9769)" class="st5" width="1.9" height="6.2"/>
	<linearGradient id="SVGID_6_" gradientUnits="userSpaceOnUse" x1="28.9752" y1="27.5935" x2="36.9021" y2="41.3234">
		<stop  offset="0" style="stop-color:#FFFFFF"/>
		<stop  offset="1" style="stop-color:#D4D5D3"/>
	</linearGradient>
	<path class="st6" d="M32.9,26.5c1.1,0,2.1,0.2,3.1,0.6c1,0.4,1.8,1,2.5,1.7s1.3,1.5,1.7,2.5c0.4,1,0.6,2,0.6,3.1
		c0,1.1-0.2,2.1-0.6,3.1c-0.4,1-1,1.8-1.7,2.5c-0.7,0.7-1.5,1.3-2.5,1.7c-1,0.4-2,0.6-3.1,0.6c-1.1,0-2.1-0.2-3.1-0.6
		c-1-0.4-1.8-1-2.5-1.7c-0.7-0.7-1.3-1.5-1.7-2.5c-0.4-1-0.6-2-0.6-3.1c0-1.1,0.2-2.1,0.6-3.1c0.4-1,1-1.8,1.7-2.5
		c0.7-0.7,1.5-1.3,2.5-1.7C30.8,26.7,31.8,26.5,32.9,26.5z"/>
</g>
</svg>
