<svg id="it_4" data-name="it 4" xmlns="http://www.w3.org/2000/svg" xmlns:xlink="http://www.w3.org/1999/xlink" viewBox="0 0 64 64"><defs><style>.cls-1{opacity:0.4;}.YELLOW-Warning-3{stroke:#96341f;fill:url(#linear-gradient);}.Medium-GREY-2,.White-SINGLE,.YELLOW-Warning-3,.cls-12,.cls-3{stroke-linejoin:round;}.Medium-GREY-2,.White-SINGLE,.cls-16,.cls-2,.cls-3,.cls-5,.cls-6{stroke:#323232;}.cls-16,.cls-2,.cls-5,.cls-6{stroke-miterlimit:10;}.cls-2{fill:url(#linear-gradient-2);}.cls-12,.cls-3{fill:none;}.cls-3{stroke-linecap:round;}.cls-4{opacity:0.6;}.cls-5{fill:url(#linear-gradient-4);}.cls-6{fill:url(#linear-gradient-6);}.White-SINGLE{fill:url(#linear-gradient-7);}.De-emphasized-GREY-Fill{fill:#646565;opacity:0.5;}.Medium-GREY-2{fill:url(#linear-gradient-8);}.cls-7{fill:url(#radial-gradient);}.cls-8{fill:url(#linear-gradient-9);}.cls-9{fill:url(#linear-gradient-10);}.cls-10{fill:url(#linear-gradient-11);}.cls-11{fill:url(#linear-gradient-12);}.cls-12{stroke:#053755;}.cls-13{fill:url(#linear-gradient-13);}.DARK-GREY-Fill-2{fill:url(#linear-gradient-14);}.cls-14,.cls-17{opacity:0.3;}.cls-15{fill:url(#Dégradé_sans_nom_16);}.cls-16{fill:url(#linear-gradient-16);}.cls-18{fill:#fff;}</style><linearGradient id="linear-gradient" x1="12.32" y1="9.69" x2="15.15" y2="14.59" gradientUnits="userSpaceOnUse"><stop offset="0" stop-color="#fae769"/><stop offset="1" stop-color="#f1cf30"/></linearGradient><linearGradient id="linear-gradient-2" x1="13.59" y1="11.15" x2="14.88" y2="13.38" gradientUnits="userSpaceOnUse"><stop offset="0" stop-color="#b4b1b0"/><stop offset="1" stop-color="#615d5c"/></linearGradient><linearGradient id="linear-gradient-4" x1="29" y1="13.18" x2="30.8" y2="16.3" xlink:href="#linear-gradient-2"/><linearGradient id="linear-gradient-6" x1="11" y1="20.18" x2="12.8" y2="23.3" xlink:href="#linear-gradient-2"/><linearGradient id="linear-gradient-7" x1="38.99" y1="40.37" x2="47.05" y2="54.32" gradientUnits="userSpaceOnUse"><stop offset="0" stop-color="#fff"/><stop offset="1" stop-color="#d4d5d3"/></linearGradient><linearGradient id="linear-gradient-8" x1="49.93" y1="49.76" x2="53.19" y2="55.41" gradientUnits="userSpaceOnUse"><stop offset="0" stop-color="#ababab"/><stop offset="1" stop-color="#5a5b5b"/></linearGradient><radialGradient id="radial-gradient" cx="36.03" cy="36.49" fy="27.633542671848076" r="29.46" gradientTransform="translate(2.37 2.83) scale(0.82 0.82)" gradientUnits="userSpaceOnUse"><stop offset="0" stop-color="#8dd7f4"/><stop offset="0.98" stop-color="#386e8c"/></radialGradient><linearGradient id="linear-gradient-9" x1="16.72" y1="32.39" x2="28.76" y2="53.24" gradientUnits="userSpaceOnUse"><stop offset="0" stop-color="#3387af"/><stop offset="1" stop-color="#285a78"/></linearGradient><linearGradient id="linear-gradient-10" x1="17.92" y1="31.7" x2="21.7" y2="38.25" xlink:href="#linear-gradient-9"/><linearGradient id="linear-gradient-11" x1="29.26" y1="22.81" x2="30.27" y2="24.56" xlink:href="#linear-gradient-9"/><linearGradient id="linear-gradient-12" x1="34.64" y1="21.94" x2="44.34" y2="38.75" xlink:href="#linear-gradient-9"/><linearGradient id="linear-gradient-13" x1="16.14" y1="31.96" x2="17.36" y2="34.07" gradientTransform="matrix(1, 0, 0, 0.72, 7.4, 4.55)" gradientUnits="userSpaceOnUse"><stop offset="0" stop-color="#fff"/><stop offset="1" stop-color="#f1f0f0"/></linearGradient><linearGradient id="linear-gradient-14" x1="21.5" y1="27.55" x2="24.91" y2="27.55" gradientUnits="userSpaceOnUse"><stop offset="0" stop-color="#464647"/><stop offset="1" stop-color="#151515"/></linearGradient><linearGradient id="Dégradé_sans_nom_16" x1="23.06" y1="9.06" x2="23.06" y2="34.06" gradientUnits="userSpaceOnUse"><stop offset="0.01" stop-color="#fff"/><stop offset="0.05" stop-color="#fdfdfd"/><stop offset="0.07" stop-color="#f6f6f6"/><stop offset="0.08" stop-color="#ebebeb"/><stop offset="0.08" stop-color="#e6e6e6"/><stop offset="0.74" stop-color="#e6e6e6"/><stop offset="0.85" stop-color="#e6e6e6"/><stop offset="0.86" stop-color="#dedede"/><stop offset="0.88" stop-color="#c9c9c9"/><stop offset="0.9" stop-color="#a7a7a7"/><stop offset="0.92" stop-color="#787878"/><stop offset="0.94" stop-color="#3b3b3b"/><stop offset="0.96"/></linearGradient><linearGradient id="linear-gradient-16" x1="18.8" y1="21.59" x2="25.9" y2="33.88" xlink:href="#linear-gradient-2"/></defs><g class="cls-1"><path class="YELLOW-Warning-3" d="M17.15,13.25a.33.33,0,0,1-.09.22.29.29,0,0,1-.22.09h-5a.29.29,0,0,1-.22-.09.33.33,0,0,1-.09-.22.47.47,0,0,1,0-.16l2.49-4.37a.28.28,0,0,1,.12-.12.33.33,0,0,1,.15,0,.42.42,0,0,1,.15,0,.26.26,0,0,1,.11.12l2.49,4.37A.32.32,0,0,1,17.15,13.25Z"/><path class="cls-2" d="M15.58,12.13h-.12a.55.55,0,0,0-.54-.53h-.11a.73.73,0,0,0-.72-.64.74.74,0,0,0-.74.73s0,.09,0,.13h-.08a.54.54,0,0,0-.54.54.54.54,0,0,0,.54.54h2.3a.39.39,0,1,0,0-.78Z"/><path class="cls-3" d="M14.42,12a.57.57,0,0,1,.39-.33"/></g><g class="cls-4"><path class="YELLOW-Warning-3" d="M34,16.13a.44.44,0,0,1-.12.3.4.4,0,0,1-.31.13h-7a.39.39,0,0,1-.31-.13.44.44,0,0,1-.12-.3.43.43,0,0,1,.06-.22l3.48-6.13a.35.35,0,0,1,.16-.16.42.42,0,0,1,.21-.06.37.37,0,0,1,.21.06.43.43,0,0,1,.17.16l3.48,6.13A.42.42,0,0,1,34,16.13Z"/><path class="cls-5" d="M31.78,14.56H31.6a.75.75,0,0,0-.75-.73l-.15,0a1,1,0,0,0-2,.12,1.21,1.21,0,0,0,0,.19l-.12,0a.76.76,0,0,0-.75.76.75.75,0,0,0,.75.75h3.23a.55.55,0,1,0,0-1.09Z"/><path class="cls-3" d="M30.15,14.31a.76.76,0,0,1,.55-.46"/></g><g class="cls-1"><path class="YELLOW-Warning-3" d="M16,23.13a.44.44,0,0,1-.12.3.4.4,0,0,1-.31.13h-7a.39.39,0,0,1-.31-.13.44.44,0,0,1-.12-.3.43.43,0,0,1,.06-.22l3.48-6.13a.35.35,0,0,1,.16-.16.42.42,0,0,1,.21-.06.37.37,0,0,1,.21.06.43.43,0,0,1,.17.16l3.48,6.13A.42.42,0,0,1,16,23.13Z"/><path class="cls-6" d="M13.78,21.56H13.6a.75.75,0,0,0-.75-.73l-.15,0a1,1,0,0,0-2,.12,1.21,1.21,0,0,0,0,.19l-.12,0a.76.76,0,0,0-.75.76.75.75,0,0,0,.75.75h3.23a.55.55,0,1,0,0-1.09Z"/><path class="cls-3" d="M12.15,21.31a.76.76,0,0,1,.55-.46"/></g><polygon class="White-SINGLE" points="47.79 53.89 36.51 42.53 38.25 40.8 49.53 52.16 47.79 53.89"/><path class="De-emphasized-GREY-Fill" d="M38.24,41.38l-1.15,1.15,3.94,4c.57-.19,1.15-.38,1.76-.55Z"/><path class="Medium-GREY-2" d="M54.32,48.79a1.23,1.23,0,0,0-1.76,1.71,1.68,1.68,0,0,1-1.21,2.87,1.68,1.68,0,0,1-1.17-.51l-2-2.08c.29.29,0,1-.34,1.34s-1.13.66-1.41.37l2,2.08a4.06,4.06,0,0,0,2.89,1.25h0a4.07,4.07,0,0,0,2.88-1.18A4.17,4.17,0,0,0,54.32,48.79Z"/><path class="cls-7" d="M45.5,19.5c-13.7,0-16.61,3.1-21.94,8.41-5.5,5.48-8.48,7-8.06,21.59.74.37,3,2.24,5,6,6.41-5.63,11.93-5,13-5a28.48,28.48,0,0,1,5-8,18.91,18.91,0,0,1,8-5,21.93,21.93,0,0,1,4-13C47.73,23,46.52,21.84,45.5,19.5Z"/><path class="cls-8" d="M19.63,40.53c.92-5.81,2.67-10.1,4.26-12.28,0,1.76,2.34,8.91,3.93,12.28a69,69,0,0,0,5.68,10,17.22,17.22,0,0,0-13,5C20.17,53.4,18.71,46.33,19.63,40.53Z"/><path class="cls-9" d="M20.31,31.13c1.18-1,2.42-2,3.58-2.88-1.74,2-6.71,5.87-8.16,13.45C16.29,36.2,17.86,33.7,20.31,31.13Z"/><path class="cls-10" d="M23.89,28.24c.05-.07.84-1.24,1.93-2.56h0a18.27,18.27,0,0,1,10.41-5.5A33.09,33.09,0,0,0,23.89,28.24Z"/><path class="cls-11" d="M46.5,37.5a103.45,103.45,0,0,0-9.75-5.3c-4.68-2.19-10.69-4-12.86-4h0C26.9,25.89,34.08,24,38,23.71c6-.52,11.47.23,12.5.79C49,26.22,46.43,30.66,46.5,37.5Z"/><path class="cls-12" d="M45.5,19.5c-13.7,0-16.61,3.1-21.94,8.41-5.5,5.48-8.44,7-8,21.53.74.38,3,2.3,5,6.06,6.37-5.59,11.9-5.07,13-5a28.71,28.71,0,0,1,5-8,18.91,18.91,0,0,1,8-5,21.93,21.93,0,0,1,4-13C47.73,23,46.52,21.84,45.5,19.5Z"/><ellipse class="cls-13" cx="24.11" cy="28.47" rx="1.84" ry="0.67" transform="translate(-13.07 25.44) rotate(-45.07)"/><path class="DARK-GREY-Fill-2" d="M23.06,29.16l-1.21-1.22a1.24,1.24,0,0,1,0-1.74,1.22,1.22,0,0,1,1.73,0l1.21,1.22c.29.29-.06.91-.41,1.26S23.35,29.45,23.06,29.16Z"/><path class="YELLOW-Warning-3" d="M37.56,32.94a1.62,1.62,0,0,1-.46,1.13,1.47,1.47,0,0,1-1.14.49H10.16A1.46,1.46,0,0,1,9,34.07a1.66,1.66,0,0,1-.45-1.13,1.69,1.69,0,0,1,.21-.81L21.67,9.37a1.55,1.55,0,0,1,.61-.61,1.65,1.65,0,0,1,.78-.2,1.68,1.68,0,0,1,.79.2,1.6,1.6,0,0,1,.6.61l12.9,22.76A1.69,1.69,0,0,1,37.56,32.94Z"/><g class="cls-14"><path class="cls-15" d="M23.11,10.06l0,0L36,32.83a.22.22,0,0,1,0,.11s0,0-.1.12H10.12c-.06-.06-.06-.08-.06-.12a.35.35,0,0,1,0-.07L23,10.08l.08,0h.05m-.05-1a1.21,1.21,0,0,0-.55.14,1,1,0,0,0-.4.42L9.21,32.37a1.16,1.16,0,0,0-.15.57,1.11,1.11,0,0,0,.32.79,1,1,0,0,0,.78.33H36a1,1,0,0,0,.78-.33,1.13,1.13,0,0,0,.32-.79,1.22,1.22,0,0,0-.15-.58L24,9.62a1,1,0,0,0-.41-.42,1.18,1.18,0,0,0-.55-.14Z"/></g><path class="cls-16" d="M29.5,27a6.3,6.3,0,0,0-.65,0,2.94,2.94,0,0,0-2.83-3,2.6,2.6,0,0,0-.56.06,4,4,0,0,0-3.81-3.68,4,4,0,0,0-3.87,4.18,4.53,4.53,0,0,0,.07.74,3.44,3.44,0,0,0-.45-.05,3.07,3.07,0,0,0,0,6.13H29.5a2.24,2.24,0,0,0,0-4.46Z"/><path class="cls-3" d="M23.39,26.06a2.92,2.92,0,0,1,2.06-1.88"/><path class="cls-17" d="M29.5,30H17.4a2.41,2.41,0,0,1-2.29-2.06,2.73,2.73,0,0,0,0,.5A2.46,2.46,0,0,0,17.4,31H29.5a1.66,1.66,0,0,0,1.56-1.73,2.08,2.08,0,0,0-.07-.5A1.6,1.6,0,0,1,29.5,30Z"/><g class="cls-14"><path class="cls-18" d="M23.86,26.23a2.67,2.67,0,0,1,4.49,1.87l0,.53c.87-.08,2.2-.38,2.62,1.14a2,2,0,0,0,.07-.5,1.66,1.66,0,0,0-1.56-1.73c-.34,0-.59,0-1.13.09l0-.53a2.39,2.39,0,0,0-2.78-2.43h0A2.42,2.42,0,0,0,23.86,26.23Z"/><path class="cls-18" d="M21.65,22a3.3,3.3,0,0,1,3,2c.1-.05.19-.11.29-.15A3.42,3.42,0,0,0,21.65,21a3.54,3.54,0,0,0-3.37,3.68,3.87,3.87,0,0,0,0,.49A3.48,3.48,0,0,1,21.65,22Z"/><path class="cls-18" d="M19.28,27a1.91,1.91,0,0,0-.85-1,6.07,6.07,0,0,0-1-.13,2.46,2.46,0,0,0-2.34,2.57,2.83,2.83,0,0,0,0,.5C15.61,26.14,18.46,26.65,19.28,27Z"/></g></svg>