<svg id="Layer_3" data-name="Layer 3" xmlns="http://www.w3.org/2000/svg" xmlns:xlink="http://www.w3.org/1999/xlink" viewBox="0 0 64 64"><defs><linearGradient id="linear-gradient" x1="19.39" y1="15.31" x2="34.28" y2="41.1" gradientUnits="userSpaceOnUse"><stop offset="0" stop-color="#f5f6f6"/><stop offset="0.99" stop-color="#d2d3d3"/></linearGradient><linearGradient id="linear-gradient-2" x1="15.55" y1="14.31" x2="32.58" y2="43.81" xlink:href="#linear-gradient"/><linearGradient id="linear-gradient-3" x1="21.06" y1="13.4" x2="37.98" y2="42.71" xlink:href="#linear-gradient"/><linearGradient id="linear-gradient-4" x1="34.66" y1="11.58" x2="37.96" y2="17.29" xlink:href="#linear-gradient"/><linearGradient id="linear-gradient-5" x1="26.84" y1="39.01" x2="30.51" y2="45.37" xlink:href="#linear-gradient"/><linearGradient id="linear-gradient-6" x1="20.7" y1="35.27" x2="7.13" y2="11.77" gradientUnits="userSpaceOnUse"><stop offset="0" stop-color="#386f8d"/><stop offset="1" stop-color="#8dd7f4"/></linearGradient><linearGradient id="linear-gradient-7" x1="42.14" y1="38.94" x2="51.29" y2="54.79" xlink:href="#linear-gradient"/><linearGradient id="linear-gradient-8" x1="47.22" y1="55.03" x2="39.07" y2="40.9" gradientUnits="userSpaceOnUse"><stop offset="0" stop-color="#2a5b79"/><stop offset="1" stop-color="#3388b0"/></linearGradient><linearGradient id="linear-gradient-9" x1="53.05" y1="50.33" x2="46.83" y2="39.56" xlink:href="#linear-gradient-8"/></defs><title>ENOSEPV_AP_AppIcon</title><path d="M28.27,48.23c.29,0,.57,0,.86,0s.73-.11,1.09-.11h0v.06A17.6,17.6,0,0,0,41.46,43a56.07,56.07,0,0,0-13.79-1.64A55.12,55.12,0,0,0,13,43.22a17.45,17.45,0,0,0,12.15,5.05Z"/><path d="M33.83,25.83a9.1,9.1,0,0,0-3.49-7.31c-4.09.25-7.34,4.05-7.34,8.73a5.83,5.83,0,0,0,0,.59,11.45,11.45,0,0,0,.21,1.55c0,.12.05.24.08.36s0,.11.05.16a8.71,8.71,0,0,0,3.13,4.65C30.58,34.32,33.83,30.51,33.83,25.83Z" fill="none"/><path d="M25.58,11.25C15.3,11.25,10.44,14.43,10.44,26s3.73,20.87,14,20.87S43.08,37.49,43.08,26,35.87,11.25,25.58,11.25Zm.5,23.33c-4.28,0-7.75-3.91-7.75-8.75s3.47-8.75,7.75-8.75,7.75,3.92,7.75,8.75S30.36,34.58,26.08,34.58Z" stroke="#333332" stroke-linecap="round" stroke-linejoin="round" fill="url(#linear-gradient)"/><path d="M25.12,48.25C14.84,48.25,6.5,38.9,6.5,27.38S14.84,6.5,25.12,6.5l6.16.14L18.89,26.17l11.36,22Z" stroke="#333332" stroke-linecap="round" stroke-linejoin="round" fill="url(#linear-gradient-2)"/><path d="M29.13,6.5C18.84,6.5,10.5,15.85,10.5,27.38s8.34,20.87,18.63,20.87S47.75,38.9,47.75,27.38,39.41,6.5,29.13,6.5ZM30.75,36C26.47,36,23,32.08,23,27.25s3.47-8.75,7.75-8.75,7.75,3.92,7.75,8.75S35,36,30.75,36Z" stroke="#333332" stroke-linecap="round" stroke-linejoin="round" fill="url(#linear-gradient-3)"/><line x1="34.73" y1="19.74" x2="37.73" y2="8.86" stroke="#333332" stroke-linecap="round" stroke-linejoin="round" fill="url(#linear-gradient-4)"/><line x1="26.91" y1="48.1" x2="30.26" y2="35.98" stroke="#333332" stroke-linecap="round" stroke-linejoin="round" fill="url(#linear-gradient-5)"/><path d="M24.8,21.57l-9.65-8.11L11.67,13A22.17,22.17,0,0,0,7.13,32.58h3.79l12.5-2.5S21.83,25.17,24.8,21.57Z" stroke="#053755" stroke-linecap="round" stroke-linejoin="round" fill="url(#linear-gradient-6)"/><path d="M10.92,32.58S8.33,21.5,15.15,13.46" fill="none" stroke="#053755" stroke-linecap="round" stroke-linejoin="round"/><circle cx="46.5" cy="46.5" r="11" stroke="#333332" stroke-linecap="round" stroke-linejoin="round" fill="url(#linear-gradient-7)"/><path d="M47,53a6,6,0,0,1-6-6,5.93,5.93,0,0,1,.53-2.43l.75.38a.54.54,0,0,0,.22,0,.59.59,0,0,0,.26-.07A.52.52,0,0,0,43,44.5v-5a.5.5,0,0,0-.8-.4l-4,3a.5.5,0,0,0-.2.44.51.51,0,0,0,.28.41l1.47.73A7.87,7.87,0,0,0,39,47a8,8,0,0,0,8,8,1,1,0,0,0,0-2Z" fill="url(#linear-gradient-8)"/><path d="M53.47,48.77a6.24,6.24,0,0,0-9-7.84,1,1,0,0,0,1,1.7A4.25,4.25,0,0,1,52,46.25a4.08,4.08,0,0,1-.11.93l-1-1a.48.48,0,0,0-.48-.13.5.5,0,0,0-.36.36l-1,4a.49.49,0,0,0,.14.47.47.47,0,0,0,.35.15h.12l4-1a.5.5,0,0,0,.36-.36.48.48,0,0,0-.13-.48Z" fill="url(#linear-gradient-9)"/></svg>