<svg id="Layer_12" data-name="Layer 12" xmlns="http://www.w3.org/2000/svg" xmlns:xlink="http://www.w3.org/1999/xlink" viewBox="0 0 64 64"><defs><linearGradient id="linear-gradient" x1="27.16" y1="12.79" x2="43.06" y2="40.32" gradientUnits="userSpaceOnUse"><stop offset="0" stop-color="#f5f6f6"/><stop offset="0.99" stop-color="#d2d3d3"/></linearGradient><linearGradient id="linear-gradient-2" x1="44.66" y1="48.94" x2="19.62" y2="5.56" gradientUnits="userSpaceOnUse"><stop offset="0" stop-color="#386f8d"/><stop offset="1" stop-color="#8dd7f4"/></linearGradient><linearGradient id="linear-gradient-3" x1="21.58" y1="25.98" x2="25.99" y2="25.98" gradientUnits="userSpaceOnUse"><stop offset="0" stop-color="#84bedc"/><stop offset="1" stop-color="#2a5b79"/></linearGradient><linearGradient id="linear-gradient-4" x1="20.16" y1="16.79" x2="36.06" y2="44.32" xlink:href="#linear-gradient"/><linearGradient id="linear-gradient-6" x1="14.58" y1="29.98" x2="18.99" y2="29.98" xlink:href="#linear-gradient-3"/><linearGradient id="linear-gradient-7" x1="13.16" y1="20.79" x2="29.06" y2="48.32" xlink:href="#linear-gradient"/><linearGradient id="linear-gradient-9" x1="7.58" y1="33.98" x2="11.99" y2="33.98" xlink:href="#linear-gradient-3"/><linearGradient id="linear-gradient-10" x1="47.78" y1="51.01" x2="35.71" y2="30.11" gradientUnits="userSpaceOnUse"><stop offset="0" stop-color="#2a5b79"/><stop offset="1" stop-color="#84bedc"/></linearGradient><linearGradient id="linear-gradient-11" x1="37.95" y1="32.81" x2="46.23" y2="47.14" xlink:href="#linear-gradient"/><linearGradient id="linear-gradient-12" x1="38.67" y1="37.9" x2="37.33" y2="35.6" gradientUnits="userSpaceOnUse"><stop offset="0" stop-color="#2a5b79"/><stop offset="1" stop-color="#3388b0"/></linearGradient><linearGradient id="linear-gradient-13" x1="46.95" y1="47.02" x2="38.55" y2="32.48" xlink:href="#linear-gradient-12"/><linearGradient id="linear-gradient-14" x1="46.97" y1="39.79" x2="42.03" y2="31.21" xlink:href="#linear-gradient-12"/><linearGradient id="linear-gradient-15" x1="48.56" y1="43.97" x2="47.44" y2="42.03" xlink:href="#linear-gradient-12"/><linearGradient id="linear-gradient-16" x1="43.99" y1="42.46" x2="42.01" y2="39.04" xlink:href="#linear-gradient-12"/></defs><title>IPExportClassification</title><polygon points="47.5 11.5 26.5 10.5 21.5 11.5 21.5 39.5 42.5 43.5 42.5 42.5 47.5 38.5 47.5 11.5" stroke="#003755" stroke-linecap="round" stroke-linejoin="round" fill="url(#linear-gradient)"/><polyline points="46.5 38 46.5 12.5 42.5 14.5" fill="none" stroke="#787878" stroke-linecap="square" stroke-linejoin="round"/><polygon points="21.5 39.5 21.5 11.5 42.5 14.5 42.5 43.5 21.5 39.5" stroke="#053755" stroke-linecap="round" stroke-linejoin="round" fill="url(#linear-gradient-2)"/><line x1="44.5" y1="14" x2="44.5" y2="39.5" fill="none" stroke="#787878" stroke-linecap="square" stroke-linejoin="round" opacity="0.38"/><polygon points="26.5 12.21 21.5 11.5 21.5 39.5 26.5 40.45 26.5 12.21" stroke="#053755" stroke-linecap="round" stroke-linejoin="round" fill="url(#linear-gradient-3)"/><polygon points="40.5 15.5 19.5 14.5 14.5 15.5 14.5 43.5 35.5 47.5 35.5 46.5 40.5 42.5 40.5 15.5" stroke="#003755" stroke-linecap="round" stroke-linejoin="round" fill="url(#linear-gradient-4)"/><polyline points="39.5 42 39.5 16.5 35.5 18.5" fill="none" stroke="#787878" stroke-linecap="square" stroke-linejoin="round"/><polygon points="14.5 43.5 14.5 15.5 35.5 18.5 35.5 47.5 14.5 43.5" stroke="#053755" stroke-linecap="round" stroke-linejoin="round" fill="url(#linear-gradient-2)"/><line x1="37.5" y1="18" x2="37.5" y2="43.5" fill="none" stroke="#787878" stroke-linecap="square" stroke-linejoin="round" opacity="0.38"/><polygon points="19.5 16.21 14.5 15.5 14.5 43.5 19.5 44.45 19.5 16.21" stroke="#053755" stroke-linecap="round" stroke-linejoin="round" fill="url(#linear-gradient-6)"/><polygon points="33.5 19.5 12.5 18.5 7.5 19.5 7.5 47.5 28.5 51.5 28.5 50.5 33.5 46.5 33.5 19.5" stroke="#003755" stroke-linecap="round" stroke-linejoin="round" fill="url(#linear-gradient-7)"/><polyline points="32.5 46 32.5 20.5 28.5 22.5" fill="none" stroke="#787878" stroke-linecap="square" stroke-linejoin="round"/><polygon points="7.5 47.5 7.5 19.5 28.5 22.5 28.5 51.5 7.5 47.5" stroke="#053755" stroke-linecap="round" stroke-linejoin="round" fill="url(#linear-gradient-2)"/><line x1="30.5" y1="22" x2="30.5" y2="47.5" fill="none" stroke="#787878" stroke-linecap="square" stroke-linejoin="round" opacity="0.38"/><polygon points="12.5 20.21 7.5 19.5 7.5 47.5 12.5 48.45 12.5 20.21" stroke="#053755" stroke-linecap="round" stroke-linejoin="round" fill="url(#linear-gradient-9)"/><polygon points="29.5 30.5 46.5 27.5 56.5 46.5 37.5 54.5 29.5 30.5" stroke="#053755" stroke-linecap="round" stroke-linejoin="round" fill="url(#linear-gradient-10)"/><polygon points="33.5 33 45 30.5 52.5 45 39.5 50 33.5 33" fill="url(#linear-gradient-11)"/><line x1="41" y1="36" x2="35" y2="37.5" fill="none" stroke-linejoin="round" stroke="url(#linear-gradient-12)"/><line x1="39.5" y1="32" x2="46" y2="47.5" fill="none" stroke-linejoin="round" stroke="url(#linear-gradient-13)"/><line x1="42.5" y1="31" x2="46.5" y2="40" fill="none" stroke-linejoin="round" stroke="url(#linear-gradient-14)"/><line x1="51" y1="42" x2="45" y2="44" fill="none" stroke-linejoin="round" stroke="url(#linear-gradient-15)"/><line x1="49" y1="39" x2="37" y2="42.5" fill="none" stroke-linejoin="round" stroke="url(#linear-gradient-16)"/><polygon points="33.5 33 45 30.5 52.5 45 39.5 50 33.5 33" fill="none" stroke="#003755" stroke-linecap="round" stroke-linejoin="round"/></svg>