<svg xmlns="http://www.w3.org/2000/svg" xmlns:xlink="http://www.w3.org/1999/xlink" width="64" height="64" viewBox="0 0 64 64">
  <defs>
    <linearGradient id="a" data-name="white left" x1="8.5" y1="46.75" x2="58.5" y2="46.75" gradientUnits="userSpaceOnUse">
      <stop offset="0" stop-color="#f5f5f5"/>
      <stop offset="1" stop-color="#bebebe"/>
    </linearGradient>
    <linearGradient id="b" data-name="top white" x1="8.5" y1="46.75" x2="58.5" y2="46.75" gradientUnits="userSpaceOnUse">
      <stop offset="0" stop-color="#fff"/>
      <stop offset="1" stop-color="#f0f0f0"/>
    </linearGradient>
    <linearGradient id="c" x1="15.703" y1="46.962" x2="42.398" y2="46.962" gradientUnits="userSpaceOnUse">
      <stop offset="0" stop-color="#464646"/>
      <stop offset="1" stop-color="#141414"/>
    </linearGradient>
    <linearGradient id="d" x1="-76.033" y1="18.808" x2="-60.977" y2="44.885" gradientTransform="matrix(-1, 0, 0, 1, -39, 0)" xlink:href="#a"/>
    <linearGradient id="e" x1="-66.017" y1="13.011" x2="-54.511" y2="32.942" gradientTransform="matrix(-1, 0, 0, 1, -39, 0)" xlink:href="#b"/>
    <linearGradient id="f" x1="-62.11" y1="25.005" x2="-51.484" y2="43.41" gradientTransform="matrix(-1, 0, 0, 1, -39, 0)" gradientUnits="userSpaceOnUse">
      <stop offset="0" stop-color="#fff"/>
      <stop offset="1" stop-color="#d2d2d2"/>
    </linearGradient>
    <linearGradient id="g" x1="-73.65" y1="17.432" x2="-63.314" y2="35.333" gradientTransform="matrix(-1, 0, 0, 1, -39, 0)" gradientUnits="userSpaceOnUse">
      <stop offset="0" stop-color="#82bedc"/>
      <stop offset="1" stop-color="#285a78"/>
    </linearGradient>
    <linearGradient id="h" x1="-69.911" y1="15.258" x2="-62.138" y2="28.72" gradientTransform="matrix(-1, 0, 0, 1, -39, 0)" gradientUnits="userSpaceOnUse">
      <stop offset="0" stop-color="#a0e1fa"/>
      <stop offset="1" stop-color="#73c3e1"/>
    </linearGradient>
    <linearGradient id="i" x1="-63.625" y1="25.88" x2="-58.52" y2="34.722" gradientTransform="matrix(-1, 0, 0, 1, -39, 0)" gradientUnits="userSpaceOnUse">
      <stop offset="0" stop-color="#8cd7f5"/>
      <stop offset="1" stop-color="#376e8c"/>
    </linearGradient>
    <linearGradient id="j" x1="43.948" y1="34.552" x2="48.082" y2="30.418" gradientUnits="userSpaceOnUse">
      <stop offset="0.04" stop-color="#a39f9f"/>
      <stop offset="0.2" stop-color="#ddd"/>
      <stop offset="0.4" stop-color="#c6c6c5"/>
      <stop offset="0.68" stop-color="#f5f5f5"/>
      <stop offset="0.996" stop-color="#bebebe"/>
    </linearGradient>
    <linearGradient id="k" x1="27.499" y1="9.374" x2="41.501" y2="33.626" gradientTransform="matrix(1, 0, 0, 1, 0, 0)" xlink:href="#f"/>
    <linearGradient id="l" x1="28.249" y1="10.673" x2="40.751" y2="32.327" gradientUnits="userSpaceOnUse">
      <stop offset="0"/>
      <stop offset="1" stop-color="#fff"/>
    </linearGradient>
    <linearGradient id="m" x1="47.306" y1="31.401" x2="54.51" y2="43.878" gradientUnits="userSpaceOnUse">
      <stop offset="0" stop-color="#8dd7f4"/>
      <stop offset="1" stop-color="#386e8c"/>
    </linearGradient>
    <linearGradient id="n" x1="47.83" y1="32.309" x2="53.772" y2="42.6" gradientUnits="userSpaceOnUse">
      <stop offset="0" stop-color="#8dd7f4"/>
      <stop offset="0.256" stop-color="#8bd4f1"/>
      <stop offset="0.442" stop-color="#83cbe8"/>
      <stop offset="0.606" stop-color="#76bbd8"/>
      <stop offset="0.757" stop-color="#64a4c2"/>
      <stop offset="0.898" stop-color="#4d88a6"/>
      <stop offset="1" stop-color="#386e8c"/>
    </linearGradient>
  </defs>
  <title>4767_ENOSCEN_AP_AppIcon_r21x</title>
  <g>
    <g>
      <polygon points="58.5 42.725 38.161 57.555 8.5 46.114 27.992 35.945 58.5 42.725" fill="url(#a)"/>
      <path d="M28.131,37l27.991,6.221L38.012,56.426,10.924,45.978,28.131,37m-.139-1.055L8.5,46.114,38.161,57.555,58.5,42.725l-30.508-6.78Z" fill="url(#b)"/>
    </g>
    <path d="M35.619,42.725l-4.238,2.542m5.085,5.085L40.7,47.809l-9.322-2.542-5.932-1.7-2.542,1.7" fill="none" stroke="#323232" stroke-linecap="round" stroke-miterlimit="10"/>
    <path d="M33.924,48.233l7.627,2.542-3.39,2.967-7.627-2.967ZM15.7,45.691l6.356,2.33,4.238-2.33-6.78-2.119Zm15.678-2.966,7.627,1.694,3.39-2.542-7.627-1.7Z" fill="url(#c)"/>
  </g>
  <g>
    <g>
      <polygon points="23.5 43.833 23.5 25.185 29.23 18.5 36.5 18.5 36.5 36.793 26.054 47.239 23.5 43.833" fill="url(#d)"/>
      <path d="M36,19V36.586l-9.892,9.892L24,43.667V25.37L29.46,19H36m1-1H29l-6,7V44l3,4L37,37V18Z" fill="#787878"/>
    </g>
    <g>
      <polygon points="11.423 30.582 9.566 21.762 21.082 15.524 36.316 18.38 22.545 28.46 19.781 32.439 11.423 30.582" fill="url(#e)"/>
      <path d="M21.164,16.048l13.925,2.611L22.317,28.008l-.135.1-.1.138-2.524,3.634-7.716-1.714-1.714-8.14,11.032-5.976M21,15,9,21.5,11,31l9,2,2.908-4.186L37,18.5V18L21,15Z" fill="#787878"/>
    </g>
    <g>
      <polygon points="9.5 41.688 9.5 22.149 25.5 26.385 25.5 47.295 9.5 41.688" fill="url(#f)"/>
      <path d="M10,22.8,25,26.77V46.59L10,41.333V22.8M9,21.5V42.042L26,48V26L9,21.5Z" fill="#787878"/>
    </g>
    <path d="M21.164,16.048,36,18.83V36.586l-.482.482a1,1,0,0,0,.49,1.683l20.114,4.47L38.012,56.426,10.924,45.978l2.909-1.518a1,1,0,0,0-.132-1.83l-3.7-1.3V22.1l11.164-6.048M21,15,9,21.5V42.042l4.37,1.531L8.5,46.114,38.161,57.555,58.5,42.725l-22.275-4.95L37,37V18L21,15Z" fill="#323232"/>
    <g>
      <polygon points="23.5 33.793 23.5 23.207 28.207 18.5 36.5 18.5 36.5 27.763 26.034 36.326 23.5 33.793" fill="url(#g)"/>
      <path d="M36,19v8.526l-9.933,8.127L24,33.586V23.414L28.414,19H36m1-1H28l-5,5V34l3,3,11-9V18Z" fill="#003755"/>
    </g>
    <g>
      <polygon points="19.381 26.551 18.593 24.093 29.35 17.083 36.324 18.383 24.45 27.308 19.381 26.551" fill="url(#h)"/>
      <path d="M29.456,17.611l5.659,1.055-10.8,8.117-4.555-.68-.577-1.8,10.271-6.693m-.211-1.056L18,23.882,19,27l5.583.833L37,18.5V18l-7.755-1.445Z" fill="#003755"/>
    </g>
    <g>
      <polygon points="18.5 34.133 18.5 24.532 25.5 26.385 25.5 36.32 18.5 34.133" fill="url(#i)"/>
      <path d="M19,25.182l6,1.588v8.87l-6-1.875V25.182m-1-1.3V34.5L26,37V26l-8-2.118Z" fill="#003755"/>
    </g>
  </g>
  <g>
    <g opacity="0.5">
      <path d="M54.447,44a3.035,3.035,0,0,1-2.164-.877l-8.139-8.275L42.72,33.428A14.363,14.363,0,0,1,34.5,36a14.514,14.514,0,1,1,12.329-6.878l1.525,1.524,8.269,8.134A3.054,3.054,0,0,1,54.447,44ZM34.5,11A10.5,10.5,0,1,0,45,21.5,10.512,10.512,0,0,0,34.5,11Z" fill="#fff"/>
      <path d="M34.5,7.5A13.993,13.993,0,0,1,46.192,29.192L48,31l8.273,8.136a2.619,2.619,0,0,1-.005,3.632,2.62,2.62,0,0,1-3.632.005L44.5,34.5l-1.725-1.725A13.994,13.994,0,1,1,34.5,7.5m0,25a11,11,0,1,0-11-11,11,11,0,0,0,11,11m0-26a15,15,0,0,0,0,30,14.851,14.851,0,0,0,8.158-2.428l1.135,1.135,8.13,8.267A3.536,3.536,0,0,0,54.447,44.5a3.553,3.553,0,0,0,2.533-6.073L48.7,30.287l-1.242-1.242A14.993,14.993,0,0,0,34.5,6.5Zm0,25a10,10,0,1,1,10-10,10.011,10.011,0,0,1-10,10Z" fill="#fff"/>
    </g>
    <g>
      <path d="M46,36l-3.5-3.5L46,29l3.5,3.5Z" fill="url(#j)"/>
      <polygon points="46 34.293 43.707 32 43.207 32.5 46 35.293 48.793 32.5 48.293 32 46 34.293" opacity="0.3"/>
      <polygon points="46 30.707 48.293 33 48.793 32.5 46 29.707 43.207 32.5 43.707 33 46 30.707" fill="#fff" opacity="0.3"/>
      <path d="M46.828,30.535,46,29.707,43.207,32.5l1.154,1.154A15.949,15.949,0,0,0,46.828,30.535Z" fill="#646565" opacity="0.5"/>
    </g>
    <g>
      <circle cx="34.5" cy="21.5" r="12.5" fill="#fff" opacity="0.2"/>
      <path d="M34.5,7.5a14,14,0,1,0,14,14A14,14,0,0,0,34.5,7.5Zm0,25a11,11,0,1,1,11-11A11,11,0,0,1,34.5,32.5Z" stroke="#787979" stroke-linejoin="round" fill="url(#k)"/>
      <path d="M42.036,22.863h0a1.817,1.817,0,0,0-2.087.9,6.555,6.555,0,0,1-2.683,2.683,1.817,1.817,0,0,0-.9,2.087h0a1.825,1.825,0,0,0,2.623,1.113,10.192,10.192,0,0,0,4.163-4.163A1.825,1.825,0,0,0,42.036,22.863Z" fill="#fff" opacity="0.3"/>
      <path d="M25,21.682h3.636a6.546,6.546,0,0,1,6.546-6.546V11.5A10.182,10.182,0,0,0,25,21.682Z" fill="#fff" opacity="0.5"/>
      <path d="M34.5,9A12.5,12.5,0,1,0,47,21.5,12.5,12.5,0,0,0,34.5,9Zm0,24A11.5,11.5,0,1,1,46,21.5,11.513,11.513,0,0,1,34.5,33Z" opacity="0.3" fill="url(#l)"/>
    </g>
    <path d="M49.5,32.5l-3.308-3.308a14.088,14.088,0,1,0-3.417,3.583L46,36Z" fill="none" stroke="#323232" stroke-linejoin="round"/>
    <g>
      <path d="M56.273,39.136,48,31l-3.5,3.5,8.136,8.273a2.572,2.572,0,0,0,3.637-3.637Z" fill="url(#m)"/>
      <path d="M56.273,39.136,48,31l-3.5,3.5,8.136,8.273a2.572,2.572,0,0,0,3.637-3.637Z" fill="none" stroke="#053755" stroke-linejoin="round"/>
      <path d="M55.914,41.411A2.085,2.085,0,0,1,54.451,42h0a2.064,2.064,0,0,1-1.454-.581L45.7,34l-.5.5,7.789,7.919A2.064,2.064,0,0,0,54.447,43h0A2.012,2.012,0,0,0,56.5,40.948a2.161,2.161,0,0,0-.066-.5A2.018,2.018,0,0,1,55.914,41.411Z" opacity="0.3"/>
      <path d="M48,32.7l7.918,7.787a2.016,2.016,0,0,1,.516.957,2.171,2.171,0,0,0,.066-.5,2.072,2.072,0,0,0-.582-1.46L48,31.7l-2.8,2.8.5.5Z" fill="#fff" opacity="0.3"/>
      <path d="M55,40l-2-2-5.5-5.5L46,34l7.5,7.5c.544.544.57.5,1,.5a.943.943,0,0,0,1-1A1.634,1.634,0,0,0,55,40Z" fill="url(#n)"/>
    </g>
  </g>
</svg>
