<svg id="System_architecture_release" data-name="System architecture release" xmlns="http://www.w3.org/2000/svg" xmlns:xlink="http://www.w3.org/1999/xlink" viewBox="0 0 64 64"><defs><style>.cls-1,.cls-18,.cls-26{fill:none;}.cls-2{fill:url(#linear-gradient);}.cls-3{fill:#323232;}.cls-4,.cls-5{stroke:#323232;stroke-linejoin:round;opacity:0.3;}.cls-4{fill:url(#linear-gradient-2);}.cls-5{fill:#e1e1e1;}.cls-6{fill:url(#Dark_BLUE_gradient_LEFT);}.cls-7{fill:#063755;}.cls-8{clip-path:url(#clip-path);}.cls-9{fill:#fff;}.cls-10{fill:url(#linear-gradient-3);}.cls-11{fill:url(#linear-gradient-4);}.cls-12{fill:url(#linear-gradient-5);}.cls-13{fill:#003755;}.cls-14{fill:url(#linear-gradient-6);}.cls-15{fill:#963200;}.cls-16{fill:url(#linear-gradient-7);}.cls-17{fill:#831300;}.cls-18{stroke:#003755;}.cls-18,.cls-19,.cls-26{stroke-miterlimit:10;}.cls-19{stroke:#003654;stroke-linecap:round;stroke-width:3px;fill:url(#linear-gradient-8);}.cls-20{fill:url(#radial-gradient);}.cls-21{fill:#003654;}.cls-22{fill:url(#linear-gradient-9);}.cls-23,.cls-25{fill:#545454;}.cls-23{opacity:0.4;}.cls-24{opacity:0.6;}.cls-26{stroke:#545454;opacity:0.7;}</style><linearGradient id="linear-gradient" x1="21.15" y1="5.08" x2="41.85" y2="40.92" gradientUnits="userSpaceOnUse"><stop offset="0" stop-color="#f4f5f5"/><stop offset="0.99" stop-color="#d2d2d2"/></linearGradient><linearGradient id="linear-gradient-2" x1="25.5" y1="27" x2="37.5" y2="27" xlink:href="#linear-gradient"/><linearGradient id="Dark_BLUE_gradient_LEFT" x1="21.28" y1="15.12" x2="48" y2="9.57" gradientUnits="userSpaceOnUse"><stop offset="0" stop-color="#82bedc"/><stop offset="1" stop-color="#285a78"/></linearGradient><clipPath id="clip-path"><polygon id="cadre" class="cls-1" points="43.11 38.19 25.05 43.35 7 38.19 7 21 25.05 21 43.11 21 43.11 38.19"/></clipPath><linearGradient id="linear-gradient-3" x1="31.81" y1="35.26" x2="38.9" y2="35.26" gradientUnits="userSpaceOnUse"><stop offset="0" stop-color="#379614"/><stop offset="1" stop-color="#55b432"/></linearGradient><linearGradient id="linear-gradient-4" x1="31.81" y1="35.26" x2="38.9" y2="35.26" gradientUnits="userSpaceOnUse"><stop offset="0" stop-color="#28780a"/><stop offset="1" stop-color="#3c9b19"/></linearGradient><linearGradient id="linear-gradient-5" x1="25.58" y1="30.77" x2="32.95" y2="30.77" gradientUnits="userSpaceOnUse"><stop offset="0" stop-color="#8cd7f5"/><stop offset="1" stop-color="#376e8c"/></linearGradient><linearGradient id="linear-gradient-6" x1="16.58" y1="30.8" x2="23.91" y2="30.8" gradientUnits="userSpaceOnUse"><stop offset="0" stop-color="#fbe86a"/><stop offset="1" stop-color="#f1cf2f"/></linearGradient><linearGradient id="linear-gradient-7" x1="11" y1="35.33" x2="17.38" y2="35.33" gradientUnits="userSpaceOnUse"><stop offset="0" stop-color="#fc3f05"/><stop offset="1" stop-color="#c10e00"/></linearGradient><linearGradient id="linear-gradient-8" x1="25.38" y1="38.86" x2="40.83" y2="55.79" gradientUnits="userSpaceOnUse"><stop offset="0" stop-color="#f0f0f0"/><stop offset="1" stop-color="#b3b3b3"/></linearGradient><radialGradient id="radial-gradient" cx="52.43" cy="9.65" r="2.07" gradientTransform="matrix(0.97, 0.19, -0.19, 0.98, -24.91, 23.31)" gradientUnits="userSpaceOnUse"><stop offset="0.07" stop-color="#fff"/><stop offset="0.52" stop-color="#82bddb"/></radialGradient><linearGradient id="linear-gradient-9" x1="31.79" y1="37.17" x2="67.09" y2="61.25" gradientUnits="userSpaceOnUse"><stop offset="0" stop-color="#fff"/><stop offset="1" stop-color="#b3b3b3"/></linearGradient></defs><title>System_architecture_release</title><g id="Layer_7" data-name="Layer 7"><g id="base_" data-name="base **"><rect class="cls-2" x="13.5" y="9.5" width="36" height="27"/><path class="cls-3" d="M49,10V36H14V10H49m1-1H13V37H50V9Z"/></g><path id="V_GRIS" data-name="V GRIS" class="cls-4" d="M37.5,17V37m-12-20V37"/><path id="V_GRIS-2" data-name="V GRIS" class="cls-5" d="M13.5,23.5v7h36v-7Z"/><g id="top_" data-name="top **"><rect class="cls-6" x="13.5" y="9.5" width="36" height="7"/><path class="cls-7" d="M49,10v6H14V10H49m1-1H13v8H50V9Z"/></g><g id="base_contour_" data-name="base contour  **"><path class="cls-3" d="M49,10V36H14V10H49m1-1H13V37H50V9Z"/></g></g><g id="Layer_6" data-name="Layer 6"><g class="cls-8"><path id="fond_crc" data-name="fond crc" class="cls-9" d="M41.73,38.33C41.73,47.6,34.21,50,24.94,50S7.29,47.6,7.29,38.33s8.37-15.07,17.65-15.07S41.73,29.05,41.73,38.33Z"/><g id="ROUE_OK" data-name="ROUE OK"><g id="_4_" data-name="4**"><path class="cls-10" d="M35,39.31l3.9-1.26a14.81,14.81,0,0,0-4.67-6.85l-2.42,3.33A10.72,10.72,0,0,1,35,39.31Z"/><path class="cls-11" d="M34.32,31.93a14.35,14.35,0,0,1,3.94,5.8l-2.95,1a11.19,11.19,0,0,0-2.83-4.23l1.84-2.53m-.09-.73-2.42,3.33A10.72,10.72,0,0,1,35,39.31l3.9-1.26a14.81,14.81,0,0,0-4.67-6.85Z"/></g><g id="_3_" data-name="3 **"><path class="cls-12" d="M30.83,33.46a10.89,10.89,0,0,0-5.25-1.77V28.08A14.54,14.54,0,0,1,33,30.55Z"/><path class="cls-13" d="M25.83,28.34a14.13,14.13,0,0,1,6.76,2.28l-1.82,2.51a11.14,11.14,0,0,0-4.94-1.67V28.34m-.5-.53v4.11a10.7,10.7,0,0,1,5.56,1.89l2.41-3.32a14.74,14.74,0,0,0-8-2.68Z"/></g><g id="_2_" data-name="2**"><path class="cls-14" d="M16.58,30.6a14.49,14.49,0,0,1,7.33-2.52V31.7a11,11,0,0,0-5.22,1.81Z"/><path class="cls-15" d="M23.66,28.35v3.12a11.22,11.22,0,0,0-4.9,1.7l-1.83-2.51a14.23,14.23,0,0,1,6.73-2.31m.5-.53a14.68,14.68,0,0,0-7.94,2.72l2.41,3.32a10.64,10.64,0,0,1,5.53-1.93V27.82Z"/></g><g id="_1_" data-name="1**"><path class="cls-16" d="M11,37.92a14.65,14.65,0,0,1,4.25-6.3l2.13,2.93A11.07,11.07,0,0,0,14.43,39Z"/><path class="cls-17" d="M15.21,32l1.84,2.53a11.23,11.23,0,0,0-2.78,4.2l-2.95-1A14.37,14.37,0,0,1,15.21,32m.09-.73a14.78,14.78,0,0,0-4.61,6.82l3.89,1.27a10.7,10.7,0,0,1,3.14-4.76L15.3,31.26Z"/></g></g><circle id="cercle_contour" data-name="cercle contour" class="cls-18" cx="24.92" cy="42.63" r="16.79"/><circle id="cercle_contour-2" data-name="cercle contour" class="cls-18" cx="24.92" cy="42.63" r="16.79"/></g><g id="aiguille_" data-name="aiguille **"><line id="aiguille" class="cls-19" x1="24.62" y1="43.78" x2="28.15" y2="36.13"/><g id="M2_S1" data-name="M2 S1"><path class="cls-20" d="M24.63,45.86a2.16,2.16,0,0,1-1-.28,2,2,0,0,1-1-1.5,2.07,2.07,0,0,1,.51-1.68,2,2,0,0,1,1.52-.69,2.15,2.15,0,0,1,1,.27,2,2,0,0,1,1,1.5,2.13,2.13,0,0,1-.51,1.69A2,2,0,0,1,24.63,45.86Z"/><path class="cls-21" d="M24.62,41.93h0a1.89,1.89,0,0,1,.94.25,1.74,1.74,0,0,1,.88,1.33A1.88,1.88,0,0,1,26,45a1.85,1.85,0,0,1-1.36.62,2,2,0,0,1-.94-.25,1.81,1.81,0,0,1-.89-1.33,2,2,0,0,1,.46-1.52,1.82,1.82,0,0,1,1.36-.61m0-.44a2.29,2.29,0,0,0-2.25,2.62,2.19,2.19,0,0,0,1.11,1.66,2.37,2.37,0,0,0,1.15.31,2.3,2.3,0,0,0,2.25-2.62,2.21,2.21,0,0,0-1.11-1.67,2.35,2.35,0,0,0-1.15-.3Z"/></g><g id="M2_S1-2" data-name="M2 S1"><path class="cls-21" d="M24.62,42h0a1.88,1.88,0,0,1,.91.24,1.72,1.72,0,0,1,.85,1.28A1.82,1.82,0,0,1,25.94,45a1.74,1.74,0,0,1-1.31.6,1.89,1.89,0,0,1-.91-.25,1.74,1.74,0,0,1-.86-1.28,1.92,1.92,0,0,1,.44-1.47A1.77,1.77,0,0,1,24.62,42m0-.5a2.29,2.29,0,0,0-2.25,2.62,2.19,2.19,0,0,0,1.11,1.66,2.37,2.37,0,0,0,1.15.31,2.3,2.3,0,0,0,2.25-2.62,2.21,2.21,0,0,0-1.11-1.67,2.35,2.35,0,0,0-1.15-.3Z"/></g></g></g><g id="logic"><rect class="cls-22" x="31.5" y="35.5" width="25" height="20" rx="1.5"/><path class="cls-3" d="M55,36a1,1,0,0,1,1,1V54a1,1,0,0,1-1,1H33a1,1,0,0,1-1-1V37a1,1,0,0,1,1-1H55m0-1H33a2,2,0,0,0-2,2V54a2,2,0,0,0,2,2H55a2,2,0,0,0,2-2V37a2,2,0,0,0-2-2Z"/><rect class="cls-23" x="35" y="38" width="6" height="6"/><g class="cls-24"><path class="cls-25" d="M40,39v4H36V39h4m1-1H35v6h6V38Z"/></g><rect class="cls-23" x="47" y="38" width="6" height="6"/><g class="cls-24"><path class="cls-25" d="M52,39v4H48V39h4m1-1H47v6h6V38Z"/></g><polyline class="cls-26" points="47 50.49 43.49 50.5 43.49 40.5 41 40.5"/><rect class="cls-23" x="47" y="47" width="6" height="6"/><g class="cls-24"><path class="cls-25" d="M52,48v4H48V48h4m1-1H47v6h6V47Z"/></g><line class="cls-26" x1="44" y1="40.51" x2="46.76" y2="40.51"/></g></svg>