<svg id="Layer_3" data-name="Layer 3" xmlns="http://www.w3.org/2000/svg" xmlns:xlink="http://www.w3.org/1999/xlink" viewBox="0 0 64 64"><defs><linearGradient id="linear-gradient" x1="26.09" y1="8.16" x2="32.4" y2="19.1" gradientUnits="userSpaceOnUse"><stop offset="0" stop-color="#f5f6f6"/><stop offset="0.99" stop-color="#d2d3d3"/></linearGradient><linearGradient id="linear-gradient-2" x1="17.61" y1="30.52" x2="28.85" y2="49.99" xlink:href="#linear-gradient"/><linearGradient id="linear-gradient-3" x1="25.82" y1="13.66" x2="42.74" y2="42.95" xlink:href="#linear-gradient"/><linearGradient id="linear-gradient-4" x1="39.41" y1="11.83" x2="42.71" y2="17.54" xlink:href="#linear-gradient"/><linearGradient id="linear-gradient-5" x1="31.59" y1="39.26" x2="35.26" y2="45.62" xlink:href="#linear-gradient"/><linearGradient id="linear-gradient-6" x1="20.18" y1="31.35" x2="7.82" y2="9.95" gradientUnits="userSpaceOnUse"><stop offset="0" stop-color="#386f8d"/><stop offset="1" stop-color="#8dd7f4"/></linearGradient><linearGradient id="linear-gradient-7" x1="42.14" y1="38.94" x2="51.29" y2="54.79" xlink:href="#linear-gradient"/><linearGradient id="linear-gradient-8" x1="47.22" y1="55.03" x2="39.07" y2="40.9" gradientUnits="userSpaceOnUse"><stop offset="0" stop-color="#2a5b79"/><stop offset="1" stop-color="#3388b0"/></linearGradient><linearGradient id="linear-gradient-9" x1="53.05" y1="50.33" x2="46.83" y2="39.56" xlink:href="#linear-gradient-8"/></defs><title>ENOSEPJ_AP_AppIcon</title><path d="M27.5,18.18a7,7,0,0,1,3.33-.85c4.28,0,7.75,3.92,7.75,8.75s-3.47,8.75-7.75,8.75A7.69,7.69,0,0,1,24,30.21" fill="none" stroke="#333332" stroke-linecap="round" stroke-linejoin="round"/><path d="M29.57,21.87,36,6.89l-6.15-.14A17.45,17.45,0,0,0,17.6,12Z" stroke="#333332" stroke-linecap="round" stroke-linejoin="round" fill="url(#linear-gradient)"/><path d="M11.49,30.82c1.38,10,9.07,17.68,18.39,17.68l5.12,0L25,29Z" stroke="#333332" stroke-linecap="round" stroke-linejoin="round" fill="url(#linear-gradient-2)"/><path d="M33.88,6.75a17.76,17.76,0,0,0-13.91,7l9.6,8.1a7.4,7.4,0,0,1,5.93-3.12c4.28,0,7.75,3.92,7.75,8.75s-3.47,8.75-7.75,8.75a7.92,7.92,0,0,1-7.37-6L15.85,32.79c2,9,9.33,15.71,18,15.71,10.28,0,18.62-9.35,18.62-20.88S44.16,6.75,33.88,6.75Z" stroke="#333332" stroke-linecap="round" stroke-linejoin="round" fill="url(#linear-gradient-3)"/><line x1="39.48" y1="19.99" x2="42.48" y2="9.11" stroke="#333332" stroke-linecap="round" stroke-linejoin="round" fill="url(#linear-gradient-4)"/><line x1="31.66" y1="48.35" x2="35.01" y2="36.23" stroke="#333332" stroke-linecap="round" stroke-linejoin="round" fill="url(#linear-gradient-5)"/><path d="M23,19.5l-8.41-6.59L12,11S6,16.5,8,27l3.12,1.5L22,27A7.1,7.1,0,0,1,23,19.5Z" stroke="#053755" stroke-linecap="round" stroke-linejoin="round" fill="url(#linear-gradient-6)"/><path d="M11.12,28.5s-2.12-9,3.47-15.59" fill="none" stroke="#053755" stroke-linecap="round" stroke-linejoin="round"/><circle cx="46.5" cy="46.5" r="11" stroke="#333332" stroke-linecap="round" stroke-linejoin="round" fill="url(#linear-gradient-7)"/><path d="M47,53a6,6,0,0,1-6-6,5.93,5.93,0,0,1,.53-2.43l.75.38a.54.54,0,0,0,.22,0,.59.59,0,0,0,.26-.07A.52.52,0,0,0,43,44.5v-5a.5.5,0,0,0-.8-.4l-4,3a.5.5,0,0,0-.2.44.51.51,0,0,0,.28.41l1.47.73A7.87,7.87,0,0,0,39,47a8,8,0,0,0,8,8,1,1,0,0,0,0-2Z" fill="url(#linear-gradient-8)"/><path d="M53.47,48.77a6.24,6.24,0,0,0-9-7.84,1,1,0,0,0,1,1.7A4.25,4.25,0,0,1,52,46.25a4.08,4.08,0,0,1-.11.93l-1-1a.48.48,0,0,0-.48-.13.5.5,0,0,0-.36.36l-1,4a.49.49,0,0,0,.14.47.47.47,0,0,0,.35.15h.12l4-1a.5.5,0,0,0,.36-.36.48.48,0,0,0-.13-.48Z" fill="url(#linear-gradient-9)"/><polygon points="11.49 30.82 15.85 32.8 28.13 30.21 24.96 28.98 11.49 30.82" stroke="#333332" stroke-linecap="round" stroke-linejoin="round" fill="url(#linear-gradient-7)"/></svg>