<?xml version="1.0" encoding="utf-8"?>
<!-- Generator: Adobe Illustrator 24.0.0, SVG Export Plug-In . SVG Version: 6.00 Build 0)  -->
<svg version="1.1" id="Layer_1" xmlns="http://www.w3.org/2000/svg" xmlns:xlink="http://www.w3.org/1999/xlink" x="0px" y="0px"
	 viewBox="0 0 64 64" style="enable-background:new 0 0 64 64;" xml:space="preserve">
<style type="text/css">
	.De_x002D_emphasized_x0020_GREY_x0020_flat_x0020_fill{opacity:0.5;fill:#646565;}
	
		.Blue_x0020_RIGHT_x0020__x002F__x0020_FRONT_x0020_or_x0020_SINGLE{fill:url(#SVGID_1_);stroke:#063755;stroke-linejoin:round;stroke-miterlimit:10;}
	.st0{fill:url(#SVGID_2_);stroke:#323232;stroke-linecap:round;stroke-linejoin:round;stroke-miterlimit:1;}
	.st1{fill:url(#SVGID_3_);stroke:#063755;stroke-linejoin:round;stroke-miterlimit:10;}
	.st2{opacity:0.3;fill:url(#SVGID_4_);stroke:#323232;stroke-linejoin:round;stroke-miterlimit:1;}
	.st3{opacity:0.3;fill:url(#SVGID_5_);stroke:#323232;stroke-linejoin:round;stroke-miterlimit:1;}
	.st4{opacity:0.3;fill:url(#SVGID_6_);stroke:#323232;stroke-linejoin:round;stroke-miterlimit:1;}
	.st5{opacity:0.3;fill:url(#SVGID_7_);stroke:#323232;stroke-linejoin:round;stroke-miterlimit:1;}
	.st6{fill:url(#SVGID_8_);}
	.st7{fill:url(#SVGID_9_);stroke:#797979;stroke-linejoin:round;stroke-miterlimit:10;}
	.st8{fill:none;stroke:#323232;stroke-miterlimit:10;}
	.st9{fill:url(#SVGID_10_);stroke:#323232;stroke-linecap:round;stroke-linejoin:round;stroke-miterlimit:1;}
	.st10{fill:url(#SVGID_11_);stroke:#323232;stroke-linecap:round;stroke-linejoin:round;stroke-miterlimit:1;}
	.st11{fill:#FFFFFF;stroke:#231F20;stroke-width:0.25;stroke-linecap:round;stroke-linejoin:round;stroke-miterlimit:10;}
	.st12{fill:url(#SVGID_12_);stroke:#323232;stroke-linecap:round;stroke-linejoin:round;stroke-miterlimit:1;}
	.st13{fill:none;stroke:#231F20;stroke-miterlimit:10;}
	.st14{fill:url(#SVGID_13_);stroke:#063755;stroke-linecap:round;stroke-linejoin:round;stroke-miterlimit:1;}
	.st15{fill:url(#SVGID_14_);stroke:#063755;stroke-linecap:round;stroke-linejoin:round;stroke-miterlimit:1;}
	.st16{fill:url(#SVGID_15_);stroke:#063755;stroke-linecap:round;stroke-linejoin:round;stroke-miterlimit:1;}
</style>
<linearGradient id="SVGID_1_" gradientUnits="userSpaceOnUse" x1="0" y1="0" x2="0.5" y2="0.866">
	<stop  offset="0" style="stop-color:#8BD6F3"/>
	<stop  offset="1" style="stop-color:#376E8C"/>
</linearGradient>
<g>
	<linearGradient id="SVGID_2_" gradientUnits="userSpaceOnUse" x1="19.7058" y1="6.3397" x2="45.2942" y2="50.6603">
		<stop  offset="0" style="stop-color:#F4F5F5"/>
		<stop  offset="0.9921" style="stop-color:#D2D2D2"/>
	</linearGradient>
	<rect x="12.5" y="10.5" class="st0" width="40" height="36"/>
	<linearGradient id="SVGID_3_" gradientUnits="userSpaceOnUse" x1="25.768" y1="2.8397" x2="39.2321" y2="26.1603">
		<stop  offset="0" style="stop-color:#8BD6F3"/>
		<stop  offset="1" style="stop-color:#376E8C"/>
	</linearGradient>
	<rect x="12.5" y="10.5" class="st1" width="40" height="8"/>
	<linearGradient id="SVGID_4_" gradientUnits="userSpaceOnUse" x1="26.5" y1="33" x2="26.5" y2="33">
		<stop  offset="0" style="stop-color:#F4F5F5"/>
		<stop  offset="0.9921" style="stop-color:#D2D2D2"/>
	</linearGradient>
	<line class="st2" x1="26.5" y1="19" x2="26.5" y2="47"/>
	<linearGradient id="SVGID_5_" gradientUnits="userSpaceOnUse" x1="39.5" y1="33" x2="39.5" y2="33">
		<stop  offset="0" style="stop-color:#F4F5F5"/>
		<stop  offset="0.9921" style="stop-color:#D2D2D2"/>
	</linearGradient>
	<line class="st3" x1="39.5" y1="19" x2="39.5" y2="47"/>
	
		<linearGradient id="SVGID_6_" gradientUnits="userSpaceOnUse" x1="63.1909" y1="60.8091" x2="63.1909" y2="60.8091" gradientTransform="matrix(0 1 -1 0 93.3091 -35.6909)">
		<stop  offset="0" style="stop-color:#F4F5F5"/>
		<stop  offset="0.9921" style="stop-color:#D2D2D2"/>
	</linearGradient>
	<line class="st4" x1="52" y1="27.5" x2="13" y2="27.5"/>
	
		<linearGradient id="SVGID_7_" gradientUnits="userSpaceOnUse" x1="73.1909" y1="60.8091" x2="73.1909" y2="60.8091" gradientTransform="matrix(0 1 -1 0 93.3091 -35.6909)">
		<stop  offset="0" style="stop-color:#F4F5F5"/>
		<stop  offset="0.9921" style="stop-color:#D2D2D2"/>
	</linearGradient>
	<line class="st5" x1="52" y1="37.5" x2="13" y2="37.5"/>
</g>
<g>
	<g>
		<g>
			<linearGradient id="SVGID_8_" gradientUnits="userSpaceOnUse" x1="7.5301" y1="25.8382" x2="25.0295" y2="56.1481">
				<stop  offset="0" style="stop-color:#FFFFFF"/>
				<stop  offset="1" style="stop-color:#D2D2D2"/>
			</linearGradient>
			<path class="st6" d="M28.66,54H7.34C7.15,54,7,53.85,7,53.66V26.34C7,26.15,7.15,26,7.34,26h13.41L29,34.2v19.46
				C29,53.85,28.85,54,28.66,54z"/>
		</g>
		<linearGradient id="SVGID_9_" gradientUnits="userSpaceOnUse" x1="21.028" y1="33.972" x2="24.1002" y2="30.8998">
			<stop  offset="0" style="stop-color:#F4F5F5"/>
			<stop  offset="1" style="stop-color:#BEBDBD"/>
		</linearGradient>
		<path class="st7" d="M28.5,34.5h-7.66c-0.19,0-0.34-0.15-0.34-0.34V26.5l0,0L28.5,34.5L28.5,34.5z"/>
		<path class="st8" d="M28.16,54.5H6.84c-0.19,0-0.34-0.15-0.34-0.34V26.84c0-0.19,0.15-0.34,0.34-0.34H20.5l8,8v19.66
			C28.5,54.35,28.35,54.5,28.16,54.5z"/>
	</g>
	<g>
		<rect x="9" y="31" class="De_x002D_emphasized_x0020_GREY_x0020_flat_x0020_fill" width="9" height="2"/>
		<rect x="9" y="37" class="De_x002D_emphasized_x0020_GREY_x0020_flat_x0020_fill" width="17" height="2"/>
		<rect x="9" y="43" class="De_x002D_emphasized_x0020_GREY_x0020_flat_x0020_fill" width="17" height="2"/>
		<rect x="9" y="49" class="De_x002D_emphasized_x0020_GREY_x0020_flat_x0020_fill" width="17" height="2"/>
	</g>
</g>
<g>
	<linearGradient id="SVGID_10_" gradientUnits="userSpaceOnUse" x1="31.5495" y1="31.356" x2="45.8372" y2="56.1029">
		<stop  offset="0" style="stop-color:#F4F5F5"/>
		<stop  offset="0.9921" style="stop-color:#D2D2D2"/>
	</linearGradient>
	<polygon class="st9" points="32.42,30.86 32.42,48.62 48.42,54.61 48.42,44.81 40.42,41.81 40.42,32.81 	"/>
	<linearGradient id="SVGID_11_" gradientUnits="userSpaceOnUse" x1="39.4537" y1="26.7434" x2="42.5011" y2="32.0217">
		<stop  offset="0" style="stop-color:#F4F5F5"/>
		<stop  offset="0.9921" style="stop-color:#D2D2D2"/>
	</linearGradient>
	<polygon class="st10" points="49.54,27.96 43.17,26.8 32.42,30.81 40.42,32.81 	"/>
	<polygon class="st11" points="49.92,35.31 55.92,37.31 48.92,43.31 41.92,40.31 	"/>
	<polygon class="st11" points="49.92,28.31 40.92,32.31 40.92,41.31 49.92,35.31 	"/>
	<linearGradient id="SVGID_12_" gradientUnits="userSpaceOnUse" x1="49.7124" y1="41.375" x2="55.121" y2="50.7429">
		<stop  offset="0" style="stop-color:#F4F5F5"/>
		<stop  offset="0.9921" style="stop-color:#D2D2D2"/>
	</linearGradient>
	<polygon class="st12" points="56.42,45.69 56.42,37.5 48.42,44.44 48.42,54.61 	"/>
	<path class="st13" d="M48.17,34.29"/>
	<path class="st13" d="M39.99,32.37"/>
	<path class="st13" d="M48.17,34.29"/>
	<path class="st13" d="M48.17,44.37"/>
	<path class="st13" d="M56.64,37.4"/>
	<path class="st13" d="M56.64,29.15"/>
	<path class="st13" d="M48.28,34.43"/>
	<path class="st13" d="M40.15,32.52"/>
	<path class="st13" d="M48.28,34.43"/>
	<path class="st13" d="M48.28,44.44"/>
	<path class="st13" d="M56.7,37.51"/>
	<path class="st13" d="M56.7,29.32"/>
	<linearGradient id="SVGID_13_" gradientUnits="userSpaceOnUse" x1="47.1699" y1="28.9073" x2="50.0359" y2="33.8714">
		<stop  offset="0" style="stop-color:#A2DDF7"/>
		<stop  offset="1" style="stop-color:#73C3E1"/>
	</linearGradient>
	<polygon class="st14" points="40.42,32.81 49.56,27.99 56.41,29.32 48.42,34.81 	"/>
	<linearGradient id="SVGID_14_" gradientUnits="userSpaceOnUse" x1="41.7925" y1="33.8457" x2="60.4739" y2="66.2029">
		<stop  offset="0" style="stop-color:#82BDDC"/>
		<stop  offset="1" style="stop-color:#275A78"/>
	</linearGradient>
	<polygon class="st15" points="40.42,41.98 40.42,32.81 48.42,34.81 48.42,44.81 	"/>
	<linearGradient id="SVGID_15_" gradientUnits="userSpaceOnUse" x1="47.639" y1="28.7856" x2="61.9956" y2="53.6519">
		<stop  offset="0" style="stop-color:#8BD6F4"/>
		<stop  offset="1" style="stop-color:#376E8C"/>
	</linearGradient>
	<polygon class="st16" points="56.42,37.51 56.42,29.32 48.42,34.81 48.42,44.81 	"/>
</g>
</svg>
