<?xml version="1.0" encoding="utf-8"?>
<!-- Generator: Adobe Illustrator 24.0.0, SVG Export Plug-In . SVG Version: 6.00 Build 0)  -->
<svg version="1.1" id="Layer_1" xmlns="http://www.w3.org/2000/svg" xmlns:xlink="http://www.w3.org/1999/xlink" x="0px" y="0px"
	 viewBox="0 0 64 64" style="enable-background:new 0 0 64 64;" xml:space="preserve">
<style type="text/css">
	
		.Blue_x0020_RIGHT_x0020__x002F__x0020_FRONT_x0020_or_x0020_SINGLE_x0020_2{fill:url(#SVGID_1_);stroke:#053755;stroke-linejoin:round;stroke-miterlimit:10;}
	.Blue_x0020_LEFT{fill:url(#SVGID_2_);stroke:#053755;stroke-linejoin:round;stroke-miterlimit:10;}
	.White_x0020_SINGLE_x0020_2{fill:url(#SVGID_3_);stroke:#323232;stroke-linejoin:round;stroke-miterlimit:10;}
	.st0{fill:url(#SVGID_4_);stroke:#323232;stroke-linejoin:round;stroke-miterlimit:10;}
	.st1{fill:url(#SVGID_5_);stroke:#787979;stroke-linejoin:round;stroke-miterlimit:10;}
	.st2{fill:none;stroke:#787979;stroke-linejoin:round;stroke-miterlimit:10;}
	.st3{fill:url(#SVGID_6_);stroke:#053755;stroke-linejoin:round;stroke-miterlimit:10;}
	.st4{fill:url(#SVGID_7_);stroke:#053755;stroke-linejoin:round;stroke-miterlimit:10;}
	.st5{fill:url(#SVGID_8_);stroke:#053755;stroke-linejoin:round;stroke-miterlimit:10;}
	.st6{fill:url(#SVGID_9_);stroke:#053755;stroke-linejoin:round;stroke-miterlimit:10;}
	.st7{fill:none;stroke:#053755;stroke-linecap:round;stroke-linejoin:round;stroke-miterlimit:10;}
	.st8{fill:url(#SVGID_10_);stroke:#053755;stroke-linejoin:round;stroke-miterlimit:10;}
	.st9{fill:url(#SVGID_11_);stroke:#053755;stroke-linejoin:round;stroke-miterlimit:10;}
	.st10{fill:url(#SVGID_12_);stroke:#053755;stroke-linejoin:round;stroke-miterlimit:10;}
	.st11{fill:url(#SVGID_13_);stroke:#053755;stroke-linejoin:round;stroke-miterlimit:10;}
</style>
<linearGradient id="SVGID_1_" gradientUnits="userSpaceOnUse" x1="0" y1="0" x2="0.5" y2="0.866">
	<stop  offset="0" style="stop-color:#8DD7F4"/>
	<stop  offset="1" style="stop-color:#386E8C"/>
</linearGradient>
<linearGradient id="SVGID_2_" gradientUnits="userSpaceOnUse" x1="0" y1="0" x2="0.5" y2="0.866">
	<stop  offset="0" style="stop-color:#83BEDC"/>
	<stop  offset="1" style="stop-color:#285A78"/>
</linearGradient>
<linearGradient id="SVGID_3_" gradientUnits="userSpaceOnUse" x1="0" y1="0" x2="0.5" y2="0.866">
	<stop  offset="0" style="stop-color:#FFFFFF"/>
	<stop  offset="1" style="stop-color:#D4D5D3"/>
</linearGradient>
<linearGradient id="SVGID_4_" gradientUnits="userSpaceOnUse" x1="24.4498" y1="17.5575" x2="43.5572" y2="50.6524" gradientTransform="matrix(1 0 0 1 2.3945 -1.000000e-03)">
	<stop  offset="0" style="stop-color:#FFFFFF"/>
	<stop  offset="1" style="stop-color:#D4D5D3"/>
</linearGradient>
<path class="st0" d="M55.5,34.1c0-10.55-8.55-19.1-19.1-19.1c-10.55,0-19.1,8.55-19.1,19.1c0,10.55,8.55,19.11,19.1,19.11
	C46.95,53.21,55.5,44.65,55.5,34.1z"/>
<linearGradient id="SVGID_5_" gradientUnits="userSpaceOnUse" x1="26.9626" y1="17.9209" x2="44.6469" y2="48.551">
	<stop  offset="0" style="stop-color:#FFFFFF"/>
	<stop  offset="1" style="stop-color:#F1F0F0"/>
</linearGradient>
<path class="st1" d="M50.9,22.07c-0.13,0.34-0.38,0.71-0.55,1.02c-0.29,0.51-0.79,0.63-1.07,0.94c-0.28,0.31-0.51,0.31-0.8,0.53
	c-0.3,0.23-0.51,0.24-0.8,0.32c-0.29,0.08-0.64,0.3-0.86,0.49c-0.22,0.18-0.41,0.4-0.74,0.68c-0.33,0.28-0.63,0.24-1.08,0.08
	c-0.45-0.16-0.15-0.71-0.01-0.81c0.14-0.1,0.5-0.01,0.65,0.03c0.15,0.03,0.54,0.02,0.8-0.03c0.25-0.06,0.38-0.32,0.39-0.43
	c0.01-0.11-0.57-0.3-0.72-0.39c-0.16-0.09-1.57-0.14-1.83-0.26c-0.26-0.12-0.99-0.05-1.14-0.02c-0.15,0.02-0.13-0.21-0.76-0.11
	c-0.62,0.1-1,0.4-1.82,0.81c-1.02,0.51-1.57,1.15-1.71,1.37c-0.14,0.22-1.02,0.48-1.48,0.59c-0.46,0.11-0.49,0.46-0.42,0.7
	c0.07,0.23-0.21,0.27-0.06,0.62c0.15,0.34,0.75,0.06,0.98-0.05c0.23-0.11,0.2-0.06,0.44,0.14c0.23,0.2,0.16,0.27,0.42,0.64
	c0.27,0.37,0.73,0.11,0.93-0.02c0.19-0.13,0.18-0.65,0.4-0.65c0.22,0,0.31-0.28,0.29-0.47c-0.02-0.2-0.24-0.21-0.19-0.43
	c0.05-0.22,1.31-1.37,1.47-1.43c0.16-0.06,0.44-0.21,0.62-0.07c0.18,0.14,0.18,0.28,0.02,0.5c-0.15,0.22-0.26,0.23-0.6,0.41
	c-0.34,0.17-0.31,0.35-0.34,0.68c-0.03,0.34,0.08,0.23,0.35,0.28c0.27,0.04,0.9-0.18,1.07-0.23c0.16-0.05,0.39-0.02,0.46,0.1
	c0.07,0.11-0.17,0.38-0.31,0.41c-0.14,0.03-0.95,0.01-1.24,0.13c-0.3,0.12,0.02,0.18,0.08,0.33c0.06,0.15-0.27,0.28-0.56,0.32
	c-0.3,0.04-0.21,0.3-0.28,0.51c-0.07,0.21-0.24,0.35-0.43,0.43c-0.19,0.09-0.54-0.29-0.73-0.2c-0.19,0.08-1.27,0.18-1.47,0.18
	c-0.19,0-0.32-0.05-0.4-0.21c-0.08-0.16,0.06-0.31,0.06-0.53c0.01-0.22-0.19-0.27-0.44-0.07c-0.26,0.19,0.04,0.58,0.07,0.67
	c0.03,0.09-0.26,0.11-0.34,0.23c-0.08,0.11-0.54,0.09-0.68,0.15c-0.14,0.06-0.19,0.38-0.38,0.48c-0.2,0.1-0.45,0.06-0.5,0
	c-0.05-0.06-0.22,0.1-0.32,0.2c-0.1,0.1-0.19,0.15-0.28,0.18c-0.09,0.02-0.49-0.02-0.58,0.08c-0.08,0.09-0.19,0.14-0.34,0.16
	c-0.15,0.02-0.26-0.01-0.39,0.08c-0.13,0.1,0.16,0.25,0.16,0.25s0.56,0.12,0.6,0.34c0.03,0.21,0.04,0.67-0.19,0.73
	c-0.23,0.06-1.58-0.17-1.84-0.23c-0.27-0.06-0.37,0.25-0.31,0.35c0.06,0.11,0.28,0.7,0.17,0.85c-0.11,0.15-0.37,0.7-0.16,0.79
	c0.22,0.09,0.65,0.03,0.62,0.11c-0.03,0.07,0.25,0.44,0.39,0.36c0.14-0.07,1.18-0.56,1.24-0.71c0.07-0.15-0.03-0.46,0.13-0.47
	c0.15-0.02,0.67-0.03,0.71-0.18c0.05-0.15-0.17-0.29,0.08-0.35c0.25-0.06,0.48-0.23,0.62-0.07c0.14,0.15,0.31,0.21,0.39,0.02
	c0.08-0.2,0.63-0.08,0.75,0c0.13,0.07,1.57,1.16,1.57,1.29c0,0.14-0.14,0.31-0.25,0.31c-0.11,0,0.08,0.15,0.08,0.15
	s0.47-0.24,0.5-0.59c0,0,0.03-0.17,0.09-0.15c0.07,0.02,0.16,0.12,0.16,0.12s-0.16-0.35-0.39-0.32c-0.23,0.03-0.25-0.3-0.44-0.36
	c-0.19-0.06,0.05-0.17-0.2-0.38c-0.25-0.21-0.33-0.26-0.23-0.29c0.09-0.03,0.44-0.05,0.51,0.05c0.08,0.09,1.04,0.58,1.14,0.88
	c0.09,0.31,0.05,0.38,0.12,0.49c0.08,0.11,0.25,0.11,0.25,0.26s-0.09,0.61,0.14,0.61c0.23,0,0.39-0.16,0.54-0.18
	c0.16-0.03,0.52,0,0.36-0.17c-0.16-0.17-0.59-0.21-0.53-0.28c0.06-0.06,0.19-0.35,0.34-0.35c0.16,0,0.5-0.03,0.52,0.02
	c0.01,0.05,0.01,0.15,0.08,0.37c0.06,0.21,0.02,0.32,0.31,0.52c0.3,0.2,0.7,0.21,0.76,0.12c0.06-0.09,0.2-0.29,0.45-0.2
	c0.25,0.09,0.39,0.09,0.59,0c0.2-0.09,0.4-0.15,0.45-0.07c0.05,0.07,0,0.34-0.06,0.47c-0.07,0.14-0.02,0.54-0.22,0.72
	c-0.2,0.18-0.39,0.46-0.56,0.58c-0.17,0.12-0.36,0.2-0.85,0.12c-0.5-0.08-0.98,0-1.48-0.27c-0.5-0.28-0.44-0.12-0.55-0.32
	c-0.11-0.2-0.61,0.05-0.69,0.18c-0.08,0.14-0.03,0.55-0.36,0.49c-0.33-0.06-0.93-0.14-1.08-0.41c-0.14-0.27-0.2-0.31-0.46-0.31
	c-0.27,0-0.71-0.06-0.63-0.39c0.08-0.34,0.48-0.7,0.17-0.79c-0.31-0.09-2.57-0.15-3.33,0.12c-0.76,0.28-0.76,0.11-0.9,0.05
	c-0.14-0.06-0.37,0.18-0.47,0.27c0,0-0.42-0.02-0.59,0.15c-0.17,0.17-0.45,0.87-0.67,0.96c-0.22,0.09-1.11,0.85-1.42,1.17
	c-0.31,0.32-0.26,0.69-0.19,1.03c0.08,0.35-0.03,0.84-0.17,1.3c-0.14,0.46,0,0.62,0.42,1.08c0.42,0.46,1.18,1.25,1.25,1.47
	c0.06,0.22,0.19,0.23,0.61,0.2c0.42-0.03,0.7-0.12,0.91,0.06c0.22,0.18,0.67,0.15,0.8,0.03c0.12-0.12,0.64-0.37,0.86-0.2
	c0.22,0.17,0.56,0.42,0.84,0.49c0.28,0.06,0.58-0.02,0.62,0.23c0.05,0.24,0.11,0.43-0.01,0.6c-0.13,0.17,0.14,0.7,0.42,1.16
	c0,0,0.36,0.4,0.36,0.64c0,0.24-0.07,0.43-0.01,0.55c0.06,0.12,0.19,0.26,0.05,0.44c-0.14,0.18-0.59,0.82-0.5,1.1
	c0.09,0.27,0.58,0.76,0.7,1.01c0.12,0.24,0.05,0.75,0.27,0.9c0.22,0.15,0.45,0.27,0.48,0.53c0.03,0.26,0.25,0.27,0.72,0.24
	c0.47-0.03,1.51-0.2,1.96-0.41c0.45-0.21,0.33-0.29,0.56-0.47c0.23-0.18,0.59-0.44,0.64-0.74c0.05-0.31,0.61,0.01,0.65-0.1
	c0.05-0.13-0.22-0.78,0.22-0.99c0.44-0.21,1.5-0.37,1.31-1.2c-0.19-0.84-0.2-1.19,0.05-1.46c0.25-0.27,1.01-0.61,1.09-0.9
	c0.08-0.29,0.87-0.61,1.68-1.54c0.81-0.93,1.01-2.04,0.61-1.94c-0.41,0.11-1.12,0.85-1.87,0.73c-0.75-0.12,0.31-0.17-0.13-0.4
	c-0.44-0.23-0.92-0.9-1.35-2.07c-0.44-1.17-0.87-1.46-0.51-1.58c0.36-0.12,0.57,0.33,0.73,0.73c0.15,0.39,0.28,0.67,0.34,1.11
	c0,0-0.03,0.11,0.31,0.17c0.34,0.06,0.28,0.32,0.31,0.5c0.03,0.18,0.17,0.47,0.18,0.59c0.02,0.12,0.07,0.55,0.16,0.57
	c0.1,0.01,0.72-0.17,0.98-0.37c0.27-0.2,0.89-0.66,1.17-0.69c0.28-0.03,0.19-0.18,0.33-0.24c0.14-0.06,0.61-0.05,1.06-0.69
	c0,0,0.12-0.29,0.5-0.57c0.37-0.27,0.72-0.99,0.47-1.01c-0.25-0.01-0.62,0.12-0.65-0.09c-0.03-0.21-0.03-0.29-0.16-0.2
	c-0.12,0.09-0.08,0.44-0.3,0.52c-0.22,0.07-0.65,0.18-0.73,0.03c-0.08-0.15-0.06-0.44-0.39-0.49c-0.33-0.04-0.3-0.14-0.31-0.38
	c-0.02-0.25,0.06-0.58,0.19-0.52c0.13,0.06,0.33,0.4,0.65,0.49c0.33,0.09,0.61,0.26,0.92,0.14c0.31-0.12,0.17-0.2,0.55-0.08
	c0.37,0.12,0.54,0.08,0.73-0.06c0.19-0.14,0.36-0.09,0.67-0.17c0.31-0.07,0.98-0.09,1.12-0.06c0.14,0.03,0.41,0.44,0.61,0.35
	c0.21-0.09,0.34,0.23,0.3,0.37c0,0-0.05,0.54,0.12,0.87c0.17,0.33,0.31,0.43,0.31,0.64c0,0.21,0.05,0.38,0.17,0.38
	c0.12,0,0.57-0.8,0.7-1.34c0.12-0.53,0.14-1,0.31-1.22c0.17-0.21,0.68-1.25,0.81-1.66c0.06-0.2,0.09-0.35,0.12-0.47
	c0-0.09,0.01-0.17,0.01-0.26C55.48,29.56,53.75,25.33,50.9,22.07z M45.59,33.1c-0.22,0.23-0.18,0.45-0.63,0.36
	c-0.46-0.09-0.19,0.07-0.46-0.09c-0.26-0.15,0.19-0.26-0.37-0.17c-0.56,0.08-0.58,0.08-0.76,0.15c-0.18,0.06,0.09,0.26-0.46,0.3
	c-0.54,0.04-0.26,0.17-0.39-0.07c-0.16-0.29-0.28-0.21-0.26-0.42c0.02-0.21-0.24,0.02,0.11-0.38c0.35-0.4,0.07-0.34,0.37-0.51
	c0.31-0.17,0.09-0.38,0.45-0.19c0.37,0.19,0.41,0.02,0.61,0.34c0.19,0.32,0.19,0.17,0.37,0c0.17-0.17,0.11-0.26,0.35-0.43
	c0.24-0.17,0.24-0.21,0.3-0.21c0.07,0,0.41-0.09,0.46,0.1c0.04,0.19-0.41,0.34-0.43,0.43c-0.02,0.09-0.35-0.04,0.24,0.28
	c0.59,0.32,0.67,0.19,0.65,0.32C45.72,33.04,45.81,32.86,45.59,33.1z M49.23,31.35c-0.11,0.3-0.37,0.28-0.52,0.34
	c-0.16,0.07-0.35,0.07-0.5,0.32c-0.15,0.25,0,0,0.39,0.32c0.4,0.32,0.33,0.19,0.41,0.45c0.09,0.25-0.37,0.15-0.04,0.45
	c0.32,0.3,0.11,0.77-0.5,0.89c-0.61,0.13-0.87-0.32-0.87-0.32s0-0.25,0.28-0.36c0.28-0.11-0.19-0.38-0.19-0.47
	c0-0.08-0.13-0.3-0.24-0.45c-0.11-0.15-0.46-0.06-0.57-0.49c-0.04-0.17,0.31-0.29,0.61-0.32c0.3-0.02,0.08-0.32,0.34-0.45
	c0.26-0.13,0.13-0.06,0.46-0.15c0.32-0.09,0.11-0.19,0.32-0.43c0.22-0.23,0.69,0.26,0.69,0.26S49.34,31.06,49.23,31.35z
	 M44.29,47.76c0.36-0.18,0.5,0.02,0.35-0.25c-0.15-0.27-0.14-0.38-0.14-0.38s0.18-0.21,0.34-0.12c0.25,0.13,0.15-0.01,0.34-0.17
	c0.19-0.16,0.29-0.13,0.39-0.35c0.1-0.22,0.09-0.38,0.22-0.41c0.14-0.02,0.18-0.17,0.22,0.06c0.04,0.23,0.15,0.05,0,0.39
	c-0.15,0.34-0.28,0.65-0.3,0.69c-0.02,0.04-0.18,0.7-0.29,0.81c-0.11,0.11-0.07,0.17-0.31,0.22c-0.24,0.05-0.44,0.37-0.65,0.21
	c-0.21-0.16-0.31-0.11-0.34-0.31C44.09,47.95,43.93,47.94,44.29,47.76z M54.32,38.96c-0.17-0.07-0.24-0.16-0.24-0.16
	s0.06-0.34,0.06-0.38s0.05-0.31,0.2-0.32c0.15-0.01,0.12-0.04,0.23,0c0.13,0.05,0.07,0.32-0.01,0.48
	C54.47,38.74,54.5,39.04,54.32,38.96z M23.09,45.2c-0.49,0.02-0.7,0.16-0.7,0.16s-0.07,0.39-0.28,0.35
	c-0.21-0.05-0.37-0.18-0.47-0.14c-0.09,0.05-0.16,0.09-0.16,0.09s-0.09,0.08-0.19,0.12c-2.13-2.75-3.54-6.08-3.9-9.72
	c0.13,0.07,0.25,0.1,0.26-0.05c0.02-0.32-0.03-0.62,0.07-0.85c0.09-0.23,0.04-0.34,0.21-0.37c0.16-0.02,0.47,0.14,0.47,0.14
	s0.07,0.37,0.25,0.64c0.19,0.28,0.4,0.41,0.61,0.64c0.21,0.23,0.05-0.43,0.52,0.37c0.47,0.8,0.16,0.43,0.35,0.87
	c0.19,0.44,0.17,0.46,0.72,0.98c0.56,0.53,0.87,1.03,1.05,1.6c0.19,0.57,0.49,0.53,0.96,1.05c0.47,0.53,0.52,0.48,0.89,0.89
	c0.37,0.41,0.72,0.6,0.82,0.82c0.09,0.23,0.42,0.28,0.19,0.62c-0.23,0.34-0.3,0.04-0.51,0.5c-0.21,0.45,0,0.23-0.21,0.68
	c-0.21,0.46-0.21,0.55-0.42,0.57C23.4,45.2,23.58,45.18,23.09,45.2z M32.29,20.09c-0.26,0.12-0.33,0.16-0.33,0.16
	s-0.09-0.04-0.02,0.16c0.07,0.2,0.18,0.27-0.07,0.43C31.62,21,31.59,20.59,31.62,21c0.02,0.41,0.09,0.37,0,0.48
	c-0.09,0.11-0.09,0.09-0.33,0.34c-0.23,0.25-0.14-0.11-0.35,0.39c-0.21,0.5-0.09,0.37-0.19,0.66c-0.09,0.3,0,0.3-0.19,0.3
	c-0.19,0-0.4,0-0.4,0s-0.28,0.02-0.63,0.05c-0.35,0.02-0.59,0.23-1,0.02c-0.42-0.21-0.35,0-0.52-0.09
	c-0.16-0.09-0.07-0.23-0.28,0.05c-0.21,0.28,0,0.28-0.21,0.28c-0.21,0-0.47,0.21-0.79,0.09c-0.33-0.11-0.45-0.2-0.49,0
	c-0.05,0.21,0.02,0.07-0.12,0.25c-0.14,0.18-0.16-0.04-0.4,0.32c-0.23,0.37,0.14,0.48-0.26,0.59c-0.4,0.12-0.4,0.12-0.4,0.12
	s-0.33,0.07-0.49-0.23c-0.16-0.3,0.05,0.02-0.16-0.3c-0.21-0.32-0.26-0.53-0.23-0.78c0.02-0.25,0,0.14,0.02-0.48
	c0.02-0.62,0-0.39,0-0.71c0-0.32,0-0.25,0-0.55c0-0.3-0.16-0.32,0.02-0.64c0.19-0.32,0.33-0.23,0.38-0.6
	c0.04-0.36-0.05-0.02,0.04-0.36c0.09-0.34,0.09-0.19,0.14-0.44c0.05-0.25,0.14-0.07,0.05-0.25c-0.02-0.04-0.06-0.1-0.09-0.16
	c1.71-1.28,3.64-2.28,5.74-2.94c-0.09,0.34-0.21,1.05,0.17,1.22c0.51,0.23,1.14,0.89,1.52,1.47c0,0,0.24,0.2,0.61,0.04
	c0.37-0.16,0.94,0.21,0.77,0.32c-0.16,0.11-0.56,0.18-0.79,0.21C32.53,19.7,32.55,19.97,32.29,20.09z M42.5,21.02
	c-0.24,0-0.26,0.11-0.19,0.18c0.07,0.07,0.28,0.07,0.4,0.07c0.11,0,0.56,0.07,0.35,0.28c0,0-0.12-0.25-0.35,0.07
	c-0.23,0.32,0.02,0.44-0.23,0.32c-0.26-0.12-0.33-0.32-0.59-0.41c-0.26-0.09-0.1-0.16-0.26-0.09c-0.16,0.07-0.14,0-0.35,0.28
	c-0.21,0.28-0.14,0.37-0.4,0.32c-0.26-0.05-0.56-0.02-0.51-0.21c0.05-0.18,0.14-0.27,0.21-0.37c0.07-0.09,0.04-0.12-0.16-0.12
	c-0.21,0-0.37,0.21-0.37,0.05c0-0.16-0.35,0.02,0.07-0.32c0.42-0.34,0.3-0.36,0.51-0.34c0.21,0.02,0.07,0.14,0.59-0.02
	c0.52-0.16,0.58-0.18,0.58-0.18s0.28-0.05,0.61,0.02c0.33,0.07,0.6-0.02,0.82-0.09c0.21-0.07,0.63-0.21,0.58-0.09
	c-0.05,0.12-0.05,0.46-0.33,0.5C43.2,20.91,42.73,21.02,42.5,21.02z M33.42,30.36c0.19,0.01,0.24-0.09,0.34-0.11
	c0.09-0.02,0.18-0.09,0.29-0.13c0.1-0.04-0.14-0.11-0.19-0.2c-0.05-0.09-0.04-0.12,0.07-0.28c0.12-0.16,0.15-0.05,0.31-0.09
	c0.15-0.04,0.13-0.01,0.16-0.13c0.04-0.12-0.08-0.26-0.08-0.26s-0.18-0.2-0.3-0.33c-0.11-0.13-0.15-0.27-0.2-0.44
	c-0.05-0.17,0-0.23,0.02-0.41c0.02-0.18,0.14-0.19,0.33-0.19c0.07,0,0.3,0.02,0.33,0.14c0.03,0.12,0.15,0.1,0.32,0.24
	c0.18,0.14,0.18,0.24-0.14,0.24c-0.33,0-0.24,0.11-0.28,0.24c-0.03,0.13,0.06,0.04,0.27,0.23c0.21,0.19,0.19,0.19,0.19,0.32
	c0.01,0.13,0.11,0.13,0.19,0.37c0.07,0.24,0.03,0.03,0.22,0.19c0.2,0.16,0.21,0.12,0.27,0.25c0.05,0.13-0.02,0.16-0.21,0.16
	c-0.18,0-0.18,0.06-0.23,0.16c-0.05,0.1-0.09,0.16-0.32,0.2c-0.22,0.04-0.22-0.11-0.42-0.17c-0.19-0.07-0.24,0.02-0.45,0.13
	c-0.21,0.11-0.11,0.11-0.29,0.11C33.44,30.6,33.24,30.35,33.42,30.36z M32.42,29.57c0.06-0.21,0.2-0.33,0.33-0.44
	c0.12-0.11,0.15-0.33,0.38-0.27c0.22,0.06,0.22,0.07,0.35-0.02c0.12-0.09,0.06-0.02,0.1,0.07c0,0-0.04,0.2-0.09,0.35
	c-0.05,0.15-0.21,0.56-0.37,0.6c-0.15,0.04-0.31,0.13-0.44,0.03C32.54,29.79,32.36,29.78,32.42,29.57z M21.83,26.42
	c-0.21-0.21-0.09-0.07-0.3-0.23c-0.21-0.16-0.02,0.05-0.31-0.32c-0.28-0.37-0.51-0.55-0.51-0.55s-0.47-0.05-0.26,0.05
	c0.21,0.09,0.47,0.41,0.47,0.41s-0.16,0.02-0.19,0.32c-0.02,0.3-0.16,0.14,0,0.46c0.16,0.32,0.26,0.41,0.26,0.41
	s0.12,0.14,0.16,0.21c0.05,0.07,0.33,0.3,0.21,0.41c-0.12,0.12-0.33,0.09-0.49,0.07c-0.17-0.02-0.14,0.16-0.31-0.14
	c-0.16-0.3,0.02-0.21-0.21-0.39c-0.23-0.18-0.31-0.25-0.38-0.25c-0.07,0-0.28-0.13-0.28,0.09c0,0.23,0,0.44,0,0.44
	s-0.51,0.14-0.56-0.14c-0.05-0.27-0.23-0.43-0.21-0.07c0.02,0.37,0.04,0.28,0.02,0.48c-0.02,0.21,0.14,0.14-0.02,0.21
	c-0.16,0.07-0.12,0.18-0.35-0.05c-0.08-0.08-0.13-0.12-0.16-0.16c0.86-2.26,2.15-4.31,3.78-6.05c-0.05,0.77-0.12,1.91-0.12,2.14
	c0,0.34,0.09,0.98,0.23,1.28c0.14,0.3,0.16,0.18,0.16,0.62c0,0.43,0,0.89-0.16,0.92c-0.16,0.02-0.33,0.02-0.26,0.16
	c0.07,0.13,0.4,0.18,0.42,0.29c0.02,0.11,0.28,0.37,0.19,0.66c-0.1,0.3,0.07,0.53-0.26,0.48c-0.32-0.04-0.49-0.16-0.65-0.43
	c-0.17-0.27-0.49-0.18-0.3-0.5c0.19-0.32,0.28-0.53,0.28-0.53S22.04,26.63,21.83,26.42z M30.36,25.47c0.12-0.18,0.01-0.14,0.05-0.29
	c0.04-0.15-0.09-0.09-0.26-0.21c-0.16-0.12-0.16-0.28-0.09-0.45c0.07-0.17,0.17-0.14,0.42-0.05c0.06,0.03,0.04,0.03,0.15,0.11
	c0.12,0.09,0.07,0.04,0.51,0.05c0.44,0.01,0.24-0.04,0.84,0.16c0.6,0.2,0.19,0.45,0.19,0.45s-0.06,0.18-0.2,0.28
	c-0.14,0.09-0.38,0.22-0.51,0.08c-0.13-0.14-0.69-0.03-0.69-0.03s-0.14,0.06-0.28,0.16C30.34,25.83,30.24,25.64,30.36,25.47z"/>
<path class="st2" d="M55.5,34.1c0-10.55-8.55-19.1-19.1-19.1c-10.55,0-19.1,8.55-19.1,19.1c0,10.55,8.55,19.11,19.1,19.11
	C46.95,53.21,55.5,44.65,55.5,34.1z"/>
<g>
	<linearGradient id="SVGID_6_" gradientUnits="userSpaceOnUse" x1="9.3104" y1="20.6095" x2="16.6896" y2="33.3905">
		<stop  offset="0" style="stop-color:#83BEDC"/>
		<stop  offset="1" style="stop-color:#285A78"/>
	</linearGradient>
	<polygon class="st3" points="9.5,20.5 9.5,28.5 16.5,33.5 16.5,25.5 	"/>
	<linearGradient id="SVGID_7_" gradientUnits="userSpaceOnUse" x1="19.4264" y1="10.5425" x2="25.3726" y2="20.8415">
		<stop  offset="0" style="stop-color:#8DD7F4"/>
		<stop  offset="1" style="stop-color:#386E8C"/>
	</linearGradient>
	<polygon class="st4" points="16.5,14.5 22.5,22.5 27.5,15.5 19.5,10.5 	"/>
	<linearGradient id="SVGID_8_" gradientUnits="userSpaceOnUse" x1="16" y1="13.5" x2="16" y2="25.5">
		<stop  offset="0" style="stop-color:#8DD7F4"/>
		<stop  offset="1" style="stop-color:#386E8C"/>
	</linearGradient>
	<polygon class="st5" points="9.5,20.5 15.5,13.5 22.5,18.5 16.5,25.5 	"/>
	<linearGradient id="SVGID_9_" gradientUnits="userSpaceOnUse" x1="19.4779" y1="20.1316" x2="24.5221" y2="28.8684">
		<stop  offset="0" style="stop-color:#8DD7F4"/>
		<stop  offset="1" style="stop-color:#386E8C"/>
	</linearGradient>
	<polygon class="st6" points="16.5,25.5 22.5,18.5 22.5,22.5 27.5,15.5 27.5,27 16.5,33.5 	"/>
</g>
<path class="st7" d="M20.5,25.5c0,0,5-3,10-2S38,32,38,32"/>
<g>
	<linearGradient id="SVGID_10_" gradientUnits="userSpaceOnUse" x1="37.3104" y1="30.6095" x2="44.6896" y2="43.3905">
		<stop  offset="0" style="stop-color:#83BEDC"/>
		<stop  offset="1" style="stop-color:#285A78"/>
	</linearGradient>
	<polygon class="st8" points="37.5,30.5 37.5,38.5 44.5,43.5 44.5,35.5 	"/>
	<linearGradient id="SVGID_11_" gradientUnits="userSpaceOnUse" x1="47.4264" y1="20.5425" x2="53.3726" y2="30.8415">
		<stop  offset="0" style="stop-color:#8DD7F4"/>
		<stop  offset="1" style="stop-color:#386E8C"/>
	</linearGradient>
	<polygon class="st9" points="44.5,24.5 50.5,32.5 55.5,25.5 47.5,20.5 	"/>
	<linearGradient id="SVGID_12_" gradientUnits="userSpaceOnUse" x1="44" y1="23.5" x2="44" y2="35.5">
		<stop  offset="0" style="stop-color:#8DD7F4"/>
		<stop  offset="1" style="stop-color:#386E8C"/>
	</linearGradient>
	<polygon class="st10" points="37.5,30.5 43.5,23.5 50.5,28.5 44.5,35.5 	"/>
	<linearGradient id="SVGID_13_" gradientUnits="userSpaceOnUse" x1="47.4779" y1="30.1316" x2="52.5221" y2="38.8684">
		<stop  offset="0" style="stop-color:#8DD7F4"/>
		<stop  offset="1" style="stop-color:#386E8C"/>
	</linearGradient>
	<polygon class="st11" points="44.5,35.5 50.5,28.5 50.5,32.5 55.5,25.5 55.5,37 44.5,43.5 	"/>
</g>
</svg>
