<svg id="_5230_copy" data-name="5230 copy" xmlns="http://www.w3.org/2000/svg" xmlns:xlink="http://www.w3.org/1999/xlink" viewBox="0 0 64 64"><defs><style>.cls-1,.cls-4{fill:#fff;}.cls-1,.cls-2{stroke:#003755;stroke-width:1.33px;}.cls-1,.cls-2,.cls-6,.cls-7{stroke-linecap:round;}.cls-1,.cls-2,.cls-6,.cls-7,.cls-9{stroke-linejoin:round;}.cls-2{fill:url(#linear-gradient);}.cls-3{fill:url(#linear-gradient-2);}.cls-10,.cls-17,.cls-5{fill:#323232;}.cls-5{stroke:#323232;}.cls-10,.cls-5{stroke-miterlimit:10;}.cls-10,.cls-6,.cls-7,.cls-9{stroke:#000;}.cls-6{fill:url(#linear-gradient-3);}.cls-7,.cls-9{fill:none;}.cls-7{stroke-width:0.57px;}.cls-8{fill:url(#linear-gradient-4);}.cls-10,.cls-9{stroke-width:1.42px;}.cls-11{fill:url(#linear-gradient-5);}.cls-12{fill:url(#linear-gradient-6);}.cls-13{fill:#f1f0f0;}.cls-14{fill:url(#linear-gradient-7);}.cls-15{fill:url(#linear-gradient-8);}.cls-16{fill:url(#linear-gradient-9);}.cls-18{fill:#797979;}.cls-19{fill:url(#linear-gradient-10);}</style><linearGradient id="linear-gradient" x1="5.81" y1="5.99" x2="53.94" y2="89.36" gradientUnits="userSpaceOnUse"><stop offset="0" stop-color="#8cd7f5"/><stop offset="1" stop-color="#376e8c"/></linearGradient><linearGradient id="linear-gradient-2" x1="17.97" y1="26.13" x2="24.57" y2="37.57" gradientUnits="userSpaceOnUse"><stop offset="0" stop-color="#464646"/><stop offset="1" stop-color="#141414"/></linearGradient><linearGradient id="linear-gradient-3" x1="-8170.05" y1="-8179.53" x2="-8157.59" y2="-8157.96" gradientTransform="translate(7099.72 9162.79) rotate(7.3)" gradientUnits="userSpaceOnUse"><stop offset="0" stop-color="#fff"/><stop offset="1" stop-color="#d2d2d2"/></linearGradient><linearGradient id="linear-gradient-4" x1="-8170.05" y1="-8179.53" x2="-8157.59" y2="-8157.95" xlink:href="#linear-gradient-3"/><linearGradient id="linear-gradient-5" x1="-22017.26" y1="-14142.29" x2="-22018" y2="-14141.4" gradientTransform="matrix(0.79, 0.17, -0.5, 1.16, 10304.72, 20292.1)" gradientUnits="userSpaceOnUse"><stop offset="0" stop-color="#fff"/><stop offset="0.24" stop-color="#fcfcfc"/><stop offset="0.43" stop-color="#f2f2f2"/><stop offset="0.46" stop-color="#f0f0f0"/></linearGradient><linearGradient id="linear-gradient-6" x1="-22017.94" y1="-14141.51" x2="-22017.17" y2="-14140.16" gradientTransform="matrix(0.79, 0.17, -0.5, 1.16, 10304.72, 20292.1)" xlink:href="#linear-gradient-3"/><linearGradient id="linear-gradient-7" x1="-22019.05" y1="-14143.78" x2="-22014.71" y2="-14143.78" gradientTransform="matrix(0.79, 0.17, -0.5, 1.16, 10304.72, 20292.1)" gradientUnits="userSpaceOnUse"><stop offset="0" stop-color="#fff"/><stop offset="1" stop-color="#f0f0f0"/></linearGradient><linearGradient id="linear-gradient-8" x1="-22017.88" y1="-14142.71" x2="-22018.79" y2="-14141.14" gradientTransform="matrix(0.79, 0.17, -0.5, 1.16, 10304.72, 20292.1)" gradientUnits="userSpaceOnUse"><stop offset="0.16" stop-color="#f5f5f5"/><stop offset="0.27" stop-color="#e7e7e7"/><stop offset="0.48" stop-color="#c1c1c1"/><stop offset="0.5" stop-color="#bebebe"/></linearGradient><linearGradient id="linear-gradient-9" x1="-22017.66" y1="-14142.1" x2="-22013.79" y2="-14142.1" gradientTransform="matrix(0.79, 0.17, -0.5, 1.16, 10304.72, 20292.1)" gradientUnits="userSpaceOnUse"><stop offset="0" stop-color="#f5f5f5"/><stop offset="1" stop-color="#bebebe"/></linearGradient><linearGradient id="linear-gradient-10" x1="-22011.3" y1="-14145.44" x2="-22002.48" y2="-14130.17" gradientTransform="matrix(0.79, 0.17, -0.5, 1.16, 10304.72, 20292.1)" gradientUnits="userSpaceOnUse"><stop offset="0.04" stop-color="#141414"/><stop offset="1" stop-color="#464646"/></linearGradient></defs><title>wwwwww__A33AAe__R21XArtboard 2</title><g id="New_Symbol_13" data-name="New Symbol 13"><path class="cls-1" d="M21.84,18A15.78,15.78,0,1,0,37.62,33.74,15.78,15.78,0,0,0,21.84,18Z"/><path class="cls-2" d="M21.84,18A15.78,15.78,0,1,0,37.62,33.74,15.78,15.78,0,0,0,21.84,18Zm0,27.76a12,12,0,1,1,12-12A12,12,0,0,1,21.84,45.71Z"/><polygon class="cls-3" points="17.92 41.33 17.92 26.16 31.2 33.74 17.92 41.33"/></g><g id="LOUPE_SEARCH_copy" data-name="LOUPE SEARCH copy"><path id="bord_int_blanc" data-name="bord int  blanc" class="cls-4" d="M50.78,24.37l-.3-1.09L50.4,23l0-.13v-.06h0s0-.08,0,.05l0-.06-.21-.52a6.73,6.73,0,0,0-.46-1,6,6,0,0,0-.54-.9,11,11,0,0,0-1.31-1.65,9.86,9.86,0,0,0-1.6-1.35,6.64,6.64,0,0,0-.89-.55l-.42-.23-.51-.23-.51-.23L43.41,16a5.76,5.76,0,0,0-1-.28,6.09,6.09,0,0,0-1-.19,7.16,7.16,0,0,0-1-.09,6,6,0,0,0-1,0,7.2,7.2,0,0,0-1,.11,7,7,0,0,0-1,.22l-.46.12-.53.18a6.06,6.06,0,0,0-1,.39,6.47,6.47,0,0,0-.9.47,9.15,9.15,0,0,0-.87.56,7.1,7.1,0,0,0-.8.65,5.68,5.68,0,0,0-.74.73,7.27,7.27,0,0,0-.68.79,5.66,5.66,0,0,0-.6.85l-.15.22-.07.11,0,.05,0,0s0,.06,0-.05h0v0l-.24.51-.48,1a7.89,7.89,0,0,0-.31,1,8,8,0,0,0-.26,1l-.15,1.05a4.25,4.25,0,0,0,0,1.07v1.07l-1,.16-.33-2.15,1-.16L29,27.62l-1,.16a13.28,13.28,0,0,1-.22-2.36l0-1.19a7.22,7.22,0,0,1,.22-1.2,10.34,10.34,0,0,1,.3-1.19l.42-1,.21-.53h0l0-.08,0,0,0-.07.08-.13.15-.26a7.25,7.25,0,0,1,.64-1,7,7,0,0,1,.75-1,8.73,8.73,0,0,1,.85-.87,8.84,8.84,0,0,1,.94-.78,8.78,8.78,0,0,1,1-.68,8,8,0,0,1,1.09-.59,8.24,8.24,0,0,1,1.1-.47l.53-.19c.27-.08.42-.1.63-.16A7,7,0,0,1,38,13.75a8.27,8.27,0,0,1,1.21-.12,7.1,7.1,0,0,1,1.22,0,7.09,7.09,0,0,1,1.21.12,7,7,0,0,1,1.19.24,7.93,7.93,0,0,1,1.18.36l.59.22.51.24.5.25c.25.13.36.23.55.34a8.27,8.27,0,0,1,1,.68A11.47,11.47,0,0,1,49,17.74a7.46,7.46,0,0,1,.74.94,7.15,7.15,0,0,1,.64,1,8.31,8.31,0,0,1,.53,1.08,8,8,0,0,1,.42,1.11l.16.54,0,.06,0,.08h0v0l0,.14,0,.28.19,1.11Z"/><g id="verre"><path class="cls-5" d="M50.88,21.59l.32,2.16a11.68,11.68,0,0,0-.35-1.58,11.51,11.51,0,0,0-22.4,5L28.12,25a11.26,11.26,0,0,1,1.24-7.13A11.52,11.52,0,0,1,50.52,20,13.75,13.75,0,0,1,50.88,21.59Z"/><path class="cls-5" d="M51.86,21.45l.33,2.16a12.4,12.4,0,0,1-1.35,7.76,12.51,12.51,0,0,1-23.37-4l-.33-2.15a12.5,12.5,0,0,0,24.72-3.75Z"/><path class="cls-6" d="M45.41,12.35a12.47,12.47,0,1,1-16.93,5.1A12.42,12.42,0,0,1,45.41,12.35ZM42.82,34.29a11.48,11.48,0,1,0-8.77-.86,11.4,11.4,0,0,0,8.77.86"/><path id="contour" class="cls-7" d="M48.38,34.8a12.51,12.51,0,0,0,2.53-3.25,12.86,12.86,0,0,0,1.46-7.91s-.73-7.51-6.89-11.11a12.55,12.55,0,0,0-16.93,5.1,13.67,13.67,0,0,0-1.43,4.73,18.35,18.35,0,0,0,.24,5.15,12.64,12.64,0,0,0,16.42,10"/><path class="cls-8" d="M45.41,12.36a12.46,12.46,0,1,1-16.93,5.09A12.42,12.42,0,0,1,45.41,12.36ZM42.82,34.3A11.46,11.46,0,1,0,29.36,17.92a11.43,11.43,0,0,0,4.69,15.51,11.5,11.5,0,0,0,8.77.87"/></g><path class="cls-9" d="M57.62,50.64a.94.94,0,0,0-.06-.68l-9.1-13.7-3,1.54-.44.57L45,39.51s8.38,12.54,9,13.36,2.46,0,2.85-.5A3,3,0,0,0,57.62,50.64Z"/><path class="cls-10" d="M45,39.72l2.68-1.4a2,2,0,0,0,.84-.94l.38-1a.81.81,0,0,0,0-.78l-.8-1.38c-.05-.09-.17-.11-.35,0l-3,1.52a2.3,2.3,0,0,0-1,1.07,10.74,10.74,0,0,0-.09,1.34l.8,1.36C44.56,39.58,44.92,39.77,45,39.72Z"/><g id="fixation_manche_ok" data-name="fixation manche   ok"><path class="cls-4" d="M48.9,35.65c0-.14-.16-.19-.37-.09l-3,1.52.13.41,3-1.52c.18-.08.29,0,.32.08Z"/><path id="c3_angle" data-name="c3 angle" class="cls-11" d="M44.8,38.43l-.26-.26a1.64,1.64,0,0,1,1-1.09l.13.41A1.44,1.44,0,0,0,44.8,38.43Z"/><path class="cls-12" d="M44.8,38.43l-.26-.26a6.68,6.68,0,0,0,0,1.36l.27.2A6.9,6.9,0,0,1,44.8,38.43Z"/><path id="b5" class="cls-13" d="M48.09,34.24l.79,1.35c-.06-.1-.17-.11-.35,0l-.79-1.34C47.92,34.13,48,34.15,48.09,34.24Z"/><polygon id="b4" class="cls-14" points="45.51 37.08 44.72 35.74 47.74 34.22 48.53 35.56 45.51 37.08"/><path class="cls-15" d="M45.51,37.08l-.79-1.34a2.3,2.3,0,0,0-1,1.07,10.74,10.74,0,0,0-.09,1.34l.78,1.34a10.4,10.4,0,0,1,.09-1.32A1.62,1.62,0,0,1,45.51,37.08Z"/><path id="contour_face" data-name="contour face" class="cls-16" d="M48.67,36c.3-.14.42.05.26.43l-.38,1a2,2,0,0,1-.84.94L45,39.72c-.3.14-.3-.12-.3-.12l.07-1.17c0-.44.54-.8.84-.94Zm-.22,1.46.38-1c.13-.31,0-.47-.21-.35l-3,1.52a1.27,1.27,0,0,0-.69.78l-.07,1.16s0,.16.25.05l2.68-1.4a1.69,1.69,0,0,0,.69-.77"/><path id="face" class="cls-17" d="M48.62,36.09c.25-.12.34,0,.21.35l-.38,1a1.69,1.69,0,0,1-.69.77l-2.68,1.4c-.25.11-.25-.05-.25-.05l.07-1.16c0-.42.44-.66.69-.78Z"/></g><g id="Layer_55_copy_4" data-name="Layer 55 copy 4"><path class="cls-17" d="M57.62,50.64s.06-.79-.13-.69c.39.82-2.26,2.66-2.84,2.32-.32-.19-9.15-14.47-9.15-14.47l-.41.56L45,39.51s8.39,12.54,9,13.36,2.46,0,2.85-.5a2.92,2.92,0,0,0,.84-1.73C57.67,50.43,57.52,51.11,57.62,50.64Z"/><path class="cls-5" d="M57.62,50.64a.94.94,0,0,0-.06-.68L48.72,36.3l-.26,0-3,1.54-.44.57L45,39.51s8.38,12.54,9,13.36,2.46,0,2.85-.5A3,3,0,0,0,57.62,50.64Z"/><path id="rel_" data-name="rel ***" class="cls-18" d="M45.5,37.8l3-1.54.26,0,8.81,13.64s.24.62-1.07,1.59-1.81.74-1.81.74l-9.58-13.9.43-.57Z"/><path id="dessus_" data-name="dessus****" class="cls-19" d="M57.49,49.88c.37.79-2.55,2.84-3,2.1l-9-14.18,3-1.54S57.3,49.49,57.49,49.88Z"/><polygon id="rel_2" data-name="rel ***" class="cls-18" points="45.5 37.8 54.51 52.15 54.35 52.13 45.08 38.37 45.5 37.8 45.5 37.8"/></g></g></svg>