<svg id="_5214_copy" data-name="5214 copy" xmlns="http://www.w3.org/2000/svg" xmlns:xlink="http://www.w3.org/1999/xlink" viewBox="0 0 64 64"><defs><style>.cls-1{fill:#fff;}.cls-14,.cls-2,.cls-7{fill:#323232;}.cls-2{stroke:#323232;}.cls-2,.cls-7{stroke-miterlimit:10;}.cls-3,.cls-4,.cls-6,.cls-7{stroke:#000;}.cls-3,.cls-4{stroke-linecap:round;}.cls-3,.cls-4,.cls-6{stroke-linejoin:round;}.cls-3{fill:url(#linear-gradient);}.cls-4,.cls-6{fill:none;}.cls-4{stroke-width:0.57px;}.cls-5{fill:url(#linear-gradient-2);}.cls-6,.cls-7{stroke-width:1.42px;}.cls-8{fill:url(#linear-gradient-3);}.cls-9{fill:url(#linear-gradient-4);}.cls-10{fill:#f1f0f0;}.cls-11{fill:url(#linear-gradient-5);}.cls-12{fill:url(#linear-gradient-6);}.cls-13{fill:url(#linear-gradient-7);}.cls-15{fill:#797979;}.cls-16{fill:url(#linear-gradient-8);}.cls-17{fill:#285977;}</style><linearGradient id="linear-gradient" x1="6.78" y1="2.17" x2="19.23" y2="23.75" gradientUnits="userSpaceOnUse"><stop offset="0" stop-color="#fff"/><stop offset="1" stop-color="#d2d2d2"/></linearGradient><linearGradient id="linear-gradient-2" x1="6.78" y1="2.18" x2="19.23" y2="23.75" xlink:href="#linear-gradient"/><linearGradient id="linear-gradient-3" x1="-13841.17" y1="-5960.18" x2="-13841.92" y2="-5959.29" gradientTransform="matrix(0.8, 0.07, -0.35, 1.22, 9049.72, 8271.61)" gradientUnits="userSpaceOnUse"><stop offset="0" stop-color="#fff"/><stop offset="0.24" stop-color="#fcfcfc"/><stop offset="0.43" stop-color="#f2f2f2"/><stop offset="0.46" stop-color="#f0f0f0"/></linearGradient><linearGradient id="linear-gradient-4" x1="-13841.86" y1="-5959.39" x2="-13841.08" y2="-5958.05" gradientTransform="matrix(0.8, 0.07, -0.35, 1.22, 9049.72, 8271.61)" xlink:href="#linear-gradient"/><linearGradient id="linear-gradient-5" x1="-13842.97" y1="-5961.67" x2="-13838.63" y2="-5961.67" gradientTransform="matrix(0.8, 0.07, -0.35, 1.22, 9049.72, 8271.61)" gradientUnits="userSpaceOnUse"><stop offset="0" stop-color="#fff"/><stop offset="1" stop-color="#f0f0f0"/></linearGradient><linearGradient id="linear-gradient-6" x1="-13841.8" y1="-5960.59" x2="-13842.71" y2="-5959.02" gradientTransform="matrix(0.8, 0.07, -0.35, 1.22, 9049.72, 8271.61)" gradientUnits="userSpaceOnUse"><stop offset="0.16" stop-color="#f5f5f5"/><stop offset="0.27" stop-color="#e7e7e7"/><stop offset="0.48" stop-color="#c1c1c1"/><stop offset="0.5" stop-color="#bebebe"/></linearGradient><linearGradient id="linear-gradient-7" x1="-13841.58" y1="-5959.99" x2="-13837.7" y2="-5959.99" gradientTransform="matrix(0.8, 0.07, -0.35, 1.22, 9049.72, 8271.61)" gradientUnits="userSpaceOnUse"><stop offset="0" stop-color="#f5f5f5"/><stop offset="1" stop-color="#bebebe"/></linearGradient><linearGradient id="linear-gradient-8" x1="-13835.22" y1="-5963.32" x2="-13826.4" y2="-5948.05" gradientTransform="matrix(0.8, 0.07, -0.35, 1.22, 9049.72, 8271.61)" gradientUnits="userSpaceOnUse"><stop offset="0.04" stop-color="#141414"/><stop offset="1" stop-color="#464646"/></linearGradient><symbol id="SEARCH_LOUPE_" data-name="SEARCH LOUPE " viewBox="0 0 35.16 41.37"><g id="LOUPE_SEARCH_copy" data-name="LOUPE SEARCH copy"><path id="bord_int_blanc" data-name="bord int  blanc" class="cls-1" d="M24.33,12.56l-.45-1-.1-.26-.06-.13v-.05h0s0-.06,0,.06l0-.06-.28-.49a7.11,7.11,0,0,0-.57-.91,8.35,8.35,0,0,0-.65-.82,11,11,0,0,0-1.51-1.46,10,10,0,0,0-1.76-1.14,6.75,6.75,0,0,0-1-.43l-.45-.18L17,5.48l-.53-.17L16,5.21a6.29,6.29,0,0,0-1-.15,5.88,5.88,0,0,0-1-.06,5.88,5.88,0,0,0-1,0,5.94,5.94,0,0,0-1,.14,6.65,6.65,0,0,0-1,.25,5.68,5.68,0,0,0-1,.34L9.44,6l-.51.24A7,7,0,0,0,8,6.72a6.14,6.14,0,0,0-.83.57A7.27,7.27,0,0,0,6.39,8a7.2,7.2,0,0,0-.72.74A7.12,7.12,0,0,0,5,9.52a8.25,8.25,0,0,0-.57.88,6.12,6.12,0,0,0-.49.91l-.12.24-.05.12,0,.06,0,0,0-.06h0l-.17.54-.35,1.07a9.78,9.78,0,0,0-.18,1,8.63,8.63,0,0,0-.14,1v1.06A5.36,5.36,0,0,0,3,17.48l.15,1.07-1,.28-.61-2.09,1-.28.61,2.09-1,.28a13,13,0,0,1-.53-2.3l-.1-1.19a6.38,6.38,0,0,1,.06-1.23,9.3,9.3,0,0,1,.15-1.21l.28-1.09.14-.54v0l0-.08v0l0-.07,0-.14.12-.28A7.7,7.7,0,0,1,3,9.55a7.32,7.32,0,0,1,.62-1,8.57,8.57,0,0,1,.74-1,8.65,8.65,0,0,1,.82-.89A9.83,9.83,0,0,1,6,5.85a9.6,9.6,0,0,1,1-.72,7.68,7.68,0,0,1,1-.61l.5-.26L9.19,4a9.11,9.11,0,0,1,1.15-.38,7.9,7.9,0,0,1,1.19-.27,8,8,0,0,1,1.2-.15,8.29,8.29,0,0,1,1.22,0,7,7,0,0,1,1.21.09,6.53,6.53,0,0,1,1.21.21l.62.14.53.18.53.18c.27.1.39.17.59.26a8.49,8.49,0,0,1,1.08.56,11.59,11.59,0,0,1,2,1.4,8.43,8.43,0,0,1,.85.84,7.6,7.6,0,0,1,.77.93A8.64,8.64,0,0,1,24,9a8.17,8.17,0,0,1,.55,1l.23.51,0,.06,0,.07h0v.05l.05.14.08.27.33,1.08Z"/><g id="verre"><path class="cls-2" d="M24.07,9.79l.6,2.1a11.51,11.51,0,0,0-.56-1.52A11.5,11.5,0,0,0,8.92,4.59a11.44,11.44,0,0,0-6.39,13.6l-.6-2.09A11.44,11.44,0,0,1,8.32,2.5,11.48,11.48,0,0,1,23.51,8.27,12.06,12.06,0,0,1,24.07,9.79Z"/><path class="cls-2" d="M25,9.53l.6,2.09a12.5,12.5,0,0,1-24,6.86L1,16.39A12.5,12.5,0,0,0,25,9.53Z"/><path class="cls-3" d="M17.47,1.32A12.46,12.46,0,1,1,8.53,24.59,12.46,12.46,0,1,1,17.47,1.32Zm.22,22.09A11.46,11.46,0,1,0,8.32,2.5a11.46,11.46,0,1,0,9.37,20.91"/><path id="contour" class="cls-4" d="M23.27,23.21a12.66,12.66,0,0,0,2.1-3.54,12.87,12.87,0,0,0,.44-8S24.13,4.28,17.56,1.49A12.53,12.53,0,0,0,1.42,8.7,13.59,13.59,0,0,0,.6,13.57a18.34,18.34,0,0,0,.89,5.08A12.64,12.64,0,0,0,19,26.46"/><path class="cls-5" d="M17.47,1.33A12.46,12.46,0,1,1,8.53,24.6,12.46,12.46,0,1,1,17.47,1.33Zm.22,22.09A11.46,11.46,0,1,0,2.25,8.88,11.46,11.46,0,0,0,8.88,23.67a11.51,11.51,0,0,0,8.81-.25"/></g><path class="cls-6" d="M34.45,37.75a1,1,0,0,0-.15-.66L23.53,24.65l-2.73,1.9-.36.62,0,1.15s9.91,11.37,10.58,12.11,2.45-.36,2.77-.86A3,3,0,0,0,34.45,37.75Z"/><path class="cls-7" d="M20.57,28.52l2.48-1.74a2,2,0,0,0,.71-1l.25-1a.8.8,0,0,0-.13-.77l-1-1.27c-.06-.08-.19-.08-.35,0l-2.8,1.9a2.28,2.28,0,0,0-.82,1.19A10.73,10.73,0,0,0,19,27.13l1,1.25C20.09,28.43,20.47,28.58,20.57,28.52Z"/><g id="fixation_manche_ok" data-name="fixation manche   ok"><path class="cls-1" d="M23.9,24c0-.14-.19-.17-.39,0l-2.8,1.89.19.39,2.8-1.89c.17-.11.29-.09.33,0C24,24.24,23.94,24.11,23.9,24Z"/><path id="c3_angle" data-name="c3 angle" class="cls-8" d="M20.18,27.27,19.89,27a1.63,1.63,0,0,1,.82-1.2l.19.39A1.41,1.41,0,0,0,20.18,27.27Z"/><path class="cls-9" d="M20.18,27.27,19.89,27A6.59,6.59,0,0,0,20,28.4l.3.16A5.94,5.94,0,0,1,20.18,27.27Z"/><path id="b5" class="cls-10" d="M22.91,22.69l.95,1.24c-.06-.09-.18-.09-.35,0l-1-1.24C22.72,22.61,22.85,22.61,22.91,22.69Z"/><polygon id="b4" class="cls-11" points="20.71 25.84 19.76 24.61 22.56 22.71 23.51 23.95 20.71 25.84"/><path class="cls-12" d="M20.71,25.84l-.95-1.23a2.28,2.28,0,0,0-.82,1.19A10.73,10.73,0,0,0,19,27.13L20,28.36A10.58,10.58,0,0,1,19.89,27,1.56,1.56,0,0,1,20.71,25.84Z"/><path id="contour_face" data-name="contour face" class="cls-13" d="M23.7,24.34c.29-.18.43,0,.31.39l-.25,1a2,2,0,0,1-.71,1l-2.48,1.74c-.28.17-.31-.09-.31-.09l-.08-1.16a1.38,1.38,0,0,1,.72-1Zm0,1.47.25-1c.1-.32,0-.47-.25-.32l-2.81,1.9a1.26,1.26,0,0,0-.59.85l.08,1.16s0,.17.25,0l2.48-1.73a1.66,1.66,0,0,0,.59-.85"/><path id="face" class="cls-14" d="M23.67,24.46c.23-.15.35,0,.25.32l-.25,1a1.66,1.66,0,0,1-.59.85L20.6,28.39c-.23.15-.25,0-.25,0l-.08-1.16a1,1,0,0,1,.59-.85Z"/></g><g id="Layer_55_copy_4" data-name="Layer 55 copy 4"><path class="cls-14" d="M34.45,37.75s0-.79-.23-.67c.5.77-1.89,2.92-2.51,2.66-.35-.14-10.92-13.19-10.92-13.19l-.34.61,0,1.16s9.91,11.37,10.58,12.11,2.45-.36,2.77-.86a2.93,2.93,0,0,0,.62-1.82C34.47,37.54,34.41,38.23,34.45,37.75Z"/><path class="cls-2" d="M34.45,37.75a1,1,0,0,0-.15-.66L23.8,24.65h-.27l-2.73,1.9-.36.62,0,1.15s9.91,11.37,10.58,12.11,2.45-.36,2.77-.86A3,3,0,0,0,34.45,37.75Z"/><path id="rel_" data-name="rel ***" class="cls-15" d="M20.79,26.55l2.74-1.9h.27L34.26,37.06s.32.59-.85,1.72-1.7,1-1.7,1L20.44,27.17l.35-.62Z"/><path id="dessus_" data-name="dessus****" class="cls-16" d="M34.22,37c.47.74-2.17,3.14-2.73,2.47L20.79,26.55l2.74-1.9S34,36.64,34.22,37Z"/><polygon id="rel_2" data-name="rel ***" class="cls-15" points="20.79 26.55 31.56 39.64 31.39 39.64 20.44 27.17 20.79 26.55 20.79 26.55"/></g></g></symbol></defs><title>wwwwww__A33AAe__R21XArtboard 2</title><g id="Layer_52_copy_3" data-name="Layer 52 copy 3"><path class="cls-17" d="M35,44.18H22.43a.92.92,0,0,1-.92-.92V35.11h-14a.93.93,0,0,1,0-1.85h14V25.57a1,1,0,0,1,.27-.65.93.93,0,0,1,.65-.27h15a.93.93,0,0,1,0,1.85H23.35V42.34H35a.92.92,0,1,1,0,1.84Z"/><polygon id="_3" data-name="3" class="cls-17" points="27.74 38.93 35.99 38.93 43.26 38.93 43.26 43.28 43.26 47.63 35.99 47.63 27.74 47.63 27.74 43.28 27.74 38.93"/><polygon id="_2" data-name="2" class="cls-17" points="28.15 21.37 38.4 21.37 45.67 21.37 45.67 25.74 45.67 30.11 38.4 30.11 28.15 30.11 28.15 25.74 28.15 21.37"/><polygon id="_2G" data-name="2G" class="cls-17" points="32.15 20.37 38.4 20.37 46.67 20.37 46.67 25.74 46.67 31.11 38.4 31.11 32.15 31.11 32.15 25.74 32.15 20.37"/><polygon id="_1" data-name="1" class="cls-17" points="4.96 29.88 11.27 29.88 17.57 29.88 17.57 34.25 17.57 38.67 11.27 38.67 4.96 38.67 4.96 34.25 4.96 29.88"/></g><use width="35.16" height="41.37" transform="translate(32.72 7.84) rotate(12.91)" xlink:href="#SEARCH_LOUPE_"/></svg>