<svg id="Layer_1" data-name="Layer 1" xmlns="http://www.w3.org/2000/svg" xmlns:xlink="http://www.w3.org/1999/xlink" viewBox="0 0 64 64"><defs><linearGradient id="linear-gradient" x1="14.32" y1="16.1" x2="33.58" y2="49.46" gradientUnits="userSpaceOnUse"><stop offset="0" stop-color="#f5f6f6"/><stop offset="0.99" stop-color="#d2d3d3"/></linearGradient><linearGradient id="linear-gradient-2" x1="36.15" y1="53.92" x2="10.7" y2="9.83" gradientUnits="userSpaceOnUse"><stop offset="0" stop-color="#386f8d"/><stop offset="1" stop-color="#8dd7f4"/></linearGradient><linearGradient id="linear-gradient-3" x1="21.14" y1="9.78" x2="25.93" y2="18.08" gradientUnits="userSpaceOnUse"><stop offset="0" stop-color="#d7d7d7"/><stop offset="1" stop-color="#969696"/></linearGradient><linearGradient id="linear-gradient-4" x1="45.74" y1="34.08" x2="54.26" y2="48.84" xlink:href="#linear-gradient"/></defs><title>ENOTASK_AP_AppIcon</title><rect x="8.5" y="13.5" width="30" height="37" rx="1" stroke="#333332" stroke-linecap="round" stroke-linejoin="round" fill="url(#linear-gradient)"/><rect x="11.5" y="16.5" width="24" height="31" stroke="#053755" stroke-linecap="round" stroke-linejoin="round" fill="url(#linear-gradient-2)"/><path d="M17.5,10.5h12a1,1,0,0,1,1,1v5a0,0,0,0,1,0,0h-14a0,0,0,0,1,0,0v-5A1,1,0,0,1,17.5,10.5Z" stroke="#797979" stroke-linecap="round" stroke-linejoin="round" fill="url(#linear-gradient-3)"/><path d="M16.5,13.5v-2a1,1,0,0,1,1-1h12a1,1,0,0,1,1,1v2" fill="none" stroke="#333332" stroke-linecap="square" stroke-linejoin="round"/><polyline points="17 32 21.5 36.5 30 28" fill="none" stroke="#fff" stroke-linecap="round" stroke-linejoin="round" stroke-width="2"/><g opacity="0.45"><path d="M40.5,41A6.51,6.51,0,0,1,47,47.5v4A1.5,1.5,0,0,1,45.5,53h-10A1.5,1.5,0,0,1,34,51.5v-4A6.51,6.51,0,0,1,40.5,41m0-1A7.5,7.5,0,0,0,33,47.5v4A2.5,2.5,0,0,0,35.5,54h10A2.5,2.5,0,0,0,48,51.5v-4A7.5,7.5,0,0,0,40.5,40Z" fill="#fff"/><path d="M40.5,32A4.5,4.5,0,1,1,36,36.5,4.51,4.51,0,0,1,40.5,32m0-1A5.5,5.5,0,1,0,46,36.5,5.51,5.51,0,0,0,40.5,31Z" fill="#fff"/></g><g opacity="0.45"><path d="M50.5,38A6.51,6.51,0,0,1,57,44.5v4A1.5,1.5,0,0,1,55.5,50h-10A1.5,1.5,0,0,1,44,48.5v-4A6.51,6.51,0,0,1,50.5,38m0-1A7.5,7.5,0,0,0,43,44.5v4A2.5,2.5,0,0,0,45.5,51h10A2.5,2.5,0,0,0,58,48.5v-4A7.5,7.5,0,0,0,50.5,37Z" fill="#fff"/><path d="M50.5,29A4.5,4.5,0,1,1,46,33.5,4.51,4.51,0,0,1,50.5,29m0-1A5.5,5.5,0,1,0,56,33.5,5.51,5.51,0,0,0,50.5,28Z" fill="#fff"/></g><path d="M55.5,49.5h-10a1,1,0,0,1-1-1v-4a6,6,0,0,1,6-6h0a6,6,0,0,1,6,6v4A1,1,0,0,1,55.5,49.5Zm-1-16a4,4,0,1,0-4,4A4,4,0,0,0,54.5,33.5Z" stroke="#333332" stroke-linecap="round" stroke-linejoin="round" fill="url(#linear-gradient-4)"/><path d="M45.5,52.5h-10a1,1,0,0,1-1-1v-4a6,6,0,0,1,6-6h0a6,6,0,0,1,6,6v4A1,1,0,0,1,45.5,52.5Zm-1-16a4,4,0,1,0-4,4A4,4,0,0,0,44.5,36.5Z" stroke="#333332" stroke-linecap="round" stroke-linejoin="round" fill="url(#linear-gradient-4)"/></svg>