<?xml version="1.0" encoding="utf-8"?>
<!-- Generator: Adobe Illustrator 24.0.0, SVG Export Plug-In . SVG Version: 6.00 Build 0)  -->
<svg version="1.1" id="Layer_1" xmlns="http://www.w3.org/2000/svg" xmlns:xlink="http://www.w3.org/1999/xlink" x="0px" y="0px"
	 viewBox="0 0 64 64" style="enable-background:new 0 0 64 64;" xml:space="preserve">
<style type="text/css">
	
		.Blue_x0020_RIGHT_x0020__x002F__x0020_FRONT_x0020_or_x0020_SINGLE{fill:url(#SVGID_1_);stroke:#053755;stroke-linejoin:round;stroke-miterlimit:10;}
	
		.Blue_x0020_RIGHT_x0020__x002F__x0020_FRONT_x0020_or_x0020_SINGLE_x0020_2{fill:url(#SVGID_2_);stroke:#053755;stroke-linejoin:round;stroke-miterlimit:10;}
	.Blue_x0020_TOP{fill:url(#SVGID_3_);stroke:#053755;stroke-linejoin:round;stroke-miterlimit:10;}
	.Blue_x0020_LEFT{fill:url(#SVGID_4_);stroke:#053755;stroke-linejoin:round;stroke-miterlimit:10;}
	.Blue_x0020_TOP_x0020_2{fill:url(#SVGID_5_);stroke:#053755;stroke-linejoin:round;stroke-miterlimit:10;}
	.Blue_x0020_TOP_x0020_3{fill:url(#SVGID_6_);stroke:#053755;stroke-linejoin:round;stroke-miterlimit:10;}
	.st0{fill:url(#SVGID_7_);stroke:#323232;stroke-linejoin:round;stroke-miterlimit:10;}
	.st1{fill:url(#SVGID_8_);stroke:#323232;stroke-linejoin:round;stroke-miterlimit:10;}
	.st2{fill:url(#SVGID_9_);stroke:#323232;stroke-linejoin:round;stroke-miterlimit:10;}
	.st3{fill:url(#SVGID_10_);stroke:#053755;stroke-linejoin:round;stroke-miterlimit:10;}
	.st4{fill:url(#SVGID_11_);stroke:#053755;stroke-linejoin:round;stroke-miterlimit:10;}
	.st5{fill:url(#SVGID_12_);stroke:#053755;stroke-linejoin:round;stroke-miterlimit:10;}
	.st6{fill:url(#SVGID_13_);stroke:#053755;stroke-linejoin:round;stroke-miterlimit:10;}
	.st7{fill:url(#SVGID_14_);stroke:#053755;stroke-linejoin:round;stroke-miterlimit:10;}
	.st8{fill:url(#SVGID_15_);stroke:#053755;stroke-linejoin:round;stroke-miterlimit:10;}
	.st9{fill:url(#SVGID_16_);stroke:#053755;stroke-linejoin:round;stroke-miterlimit:10;}
	.st10{fill:url(#SVGID_17_);stroke:#053755;stroke-linejoin:round;stroke-miterlimit:10;}
	.st11{fill:#A4A4A4;}
	.st12{fill:url(#SVGID_18_);}
	.st13{fill:#797979;stroke:#797979;stroke-miterlimit:10;}
	.st14{fill:url(#SVGID_19_);stroke:#323232;stroke-linecap:round;stroke-linejoin:round;stroke-miterlimit:1;}
	.st15{fill:none;stroke:#333332;stroke-linecap:round;stroke-linejoin:round;stroke-miterlimit:1;}
</style>
<linearGradient id="SVGID_1_" gradientUnits="userSpaceOnUse" x1="0" y1="0" x2="0.5" y2="0.866">
	<stop  offset="0" style="stop-color:#8DD7F4"/>
	<stop  offset="1" style="stop-color:#386E8C"/>
</linearGradient>
<linearGradient id="SVGID_2_" gradientUnits="userSpaceOnUse" x1="0" y1="0" x2="0.5" y2="0.866">
	<stop  offset="0" style="stop-color:#8DD7F4"/>
	<stop  offset="1" style="stop-color:#386E8C"/>
</linearGradient>
<linearGradient id="SVGID_3_" gradientUnits="userSpaceOnUse" x1="0" y1="0" x2="0.5" y2="0.866">
	<stop  offset="0" style="stop-color:#A3DEF6"/>
	<stop  offset="1" style="stop-color:#74C3E1"/>
</linearGradient>
<linearGradient id="SVGID_4_" gradientUnits="userSpaceOnUse" x1="0" y1="0" x2="0.5" y2="0.866">
	<stop  offset="0" style="stop-color:#83BEDC"/>
	<stop  offset="1" style="stop-color:#285A78"/>
</linearGradient>
<linearGradient id="SVGID_5_" gradientUnits="userSpaceOnUse" x1="0" y1="0" x2="0.5" y2="0.866">
	<stop  offset="0" style="stop-color:#A3DEF6"/>
	<stop  offset="1" style="stop-color:#74C3E1"/>
</linearGradient>
<linearGradient id="SVGID_6_" gradientUnits="userSpaceOnUse" x1="0" y1="0" x2="0.5" y2="0.866">
	<stop  offset="0" style="stop-color:#A3DEF6"/>
	<stop  offset="1" style="stop-color:#74C3E1"/>
</linearGradient>
<g>
	<linearGradient id="SVGID_7_" gradientUnits="userSpaceOnUse" x1="10.8888" y1="14.5849" x2="27.6782" y2="43.6651">
		<stop  offset="0" style="stop-color:#FFFFFF"/>
		<stop  offset="1" style="stop-color:#D4D5D3"/>
	</linearGradient>
	<polygon class="st0" points="14.5,12.5 14.5,39.5 24.5,45.5 24.5,19.5 	"/>
	<linearGradient id="SVGID_8_" gradientUnits="userSpaceOnUse" x1="28.2034" y1="17.3619" x2="42.3636" y2="41.8881">
		<stop  offset="0" style="stop-color:#FFFFFF"/>
		<stop  offset="1" style="stop-color:#D4D5D3"/>
	</linearGradient>
	<polygon class="st1" points="24.5,19.5 24.5,45.5 46.5,39.5 46.5,14.5 	"/>
	<linearGradient id="SVGID_9_" gradientUnits="userSpaceOnUse" x1="26.067" y1="5.8218" x2="34.933" y2="21.1782">
		<stop  offset="0" style="stop-color:#FFFFFF"/>
		<stop  offset="1" style="stop-color:#D4D5D3"/>
	</linearGradient>
	<polygon class="st2" points="33.5,8.5 14.5,12.5 24.5,19.5 46.5,14.5 	"/>
</g>
<g>
	<linearGradient id="SVGID_10_" gradientUnits="userSpaceOnUse" x1="44.951" y1="16.3529" x2="52.049" y2="28.6471">
		<stop  offset="0" style="stop-color:#A3DEF6"/>
		<stop  offset="1" style="stop-color:#74C3E1"/>
	</linearGradient>
	<polygon class="st3" points="45.5,17.5 39.5,19.5 51.5,27.5 57.5,25.5 	"/>
	<linearGradient id="SVGID_11_" gradientUnits="userSpaceOnUse" x1="33.4085" y1="18.5114" x2="38.5915" y2="27.4886">
		<stop  offset="0" style="stop-color:#A3DEF6"/>
		<stop  offset="1" style="stop-color:#74C3E1"/>
	</linearGradient>
	<polygon class="st4" points="26.5,22.5 32.5,26.5 45.5,23.5 39.5,19.5 	"/>
	<linearGradient id="SVGID_12_" gradientUnits="userSpaceOnUse" x1="32.6119" y1="26.4354" x2="44.9551" y2="47.8146">
		<stop  offset="0" style="stop-color:#8DD7F4"/>
		<stop  offset="1" style="stop-color:#386E8C"/>
	</linearGradient>
	<polygon class="st5" points="32.5,26.5 32.5,51.5 45.5,47.5 45.5,23.5 	"/>
	<linearGradient id="SVGID_13_" gradientUnits="userSpaceOnUse" x1="22.2548" y1="24.951" x2="36.3122" y2="49.299">
		<stop  offset="0" style="stop-color:#8DD7F4"/>
		<stop  offset="1" style="stop-color:#386E8C"/>
	</linearGradient>
	<polygon class="st6" points="26.5,22.5 26.5,48.5 32.5,51.5 32.5,26.5 	"/>
	<linearGradient id="SVGID_14_" gradientUnits="userSpaceOnUse" x1="44.2859" y1="24.201" x2="52.7141" y2="38.799">
		<stop  offset="0" style="stop-color:#83BEDC"/>
		<stop  offset="1" style="stop-color:#285A78"/>
	</linearGradient>
	<polygon class="st7" points="45.5,23.5 45.5,35.5 51.5,39.5 51.5,27.5 	"/>
	<linearGradient id="SVGID_15_" gradientUnits="userSpaceOnUse" x1="37.2859" y1="39.201" x2="45.7141" y2="53.799">
		<stop  offset="0" style="stop-color:#8DD7F4"/>
		<stop  offset="1" style="stop-color:#386E8C"/>
	</linearGradient>
	<polygon class="st8" points="38.5,38.5 38.5,50.5 44.5,54.5 44.5,42.5 	"/>
	<linearGradient id="SVGID_16_" gradientUnits="userSpaceOnUse" x1="43.1585" y1="35.8104" x2="46.8415" y2="42.1896">
		<stop  offset="0" style="stop-color:#A3DEF6"/>
		<stop  offset="1" style="stop-color:#74C3E1"/>
	</linearGradient>
	<polygon class="st9" points="38.5,38.5 44.5,42.5 51.5,39.5 45.5,35.5 	"/>
	<linearGradient id="SVGID_17_" gradientUnits="userSpaceOnUse" x1="45.7123" y1="30.8415" x2="56.3056" y2="49.1896">
		<stop  offset="0" style="stop-color:#8DD7F4"/>
		<stop  offset="1" style="stop-color:#386E8C"/>
	</linearGradient>
	<polygon class="st10" points="51.5,27.5 51.5,39.5 44.5,42.5 44.5,54.5 57.5,48.5 57.5,25.5 	"/>
</g>
<g>
	<polygon class="st11" points="15.34,29.05 18.34,28.05 21.34,31.05 23.34,29.05 25.34,29.05 26.34,31.05 27.34,31.05 28.34,32.05 
		28.34,35.05 29.34,35.05 32.34,38.05 32.34,39.05 29.34,42.05 29.34,43.05 30.34,45.05 30.34,48.05 29.34,49.05 25.34,49.05 
		25.34,53.05 22.34,54.05 19.34,52.05 17.34,54.05 14.34,54.05 11.34,51.05 11.34,49.05 8.34,46.05 7.34,42.05 11.34,39.55 
		9.34,36.05 9.34,35.05 11.34,33.05 14.84,33.05 	"/>
	<linearGradient id="SVGID_18_" gradientUnits="userSpaceOnUse" x1="17.0993" y1="35.3328" x2="25.9765" y2="50.7085">
		<stop  offset="0" style="stop-color:#F5F6F6"/>
		<stop  offset="0.9921" style="stop-color:#BFBEBE"/>
	</linearGradient>
	<polygon class="st12" points="25.34,49.05 29.34,49.05 30.34,48.05 30.34,45.05 29.34,43.05 29.34,42.05 32.34,40.05 32.34,38.05 
		29.34,35.05 28.34,35.05 28.34,32.05 26.34,31.05 23.84,33.55 21.34,31.05 17.84,32.05 17.34,36.05 13.84,36.05 12.34,38.05 
		12.34,39.05 14.34,42.05 10.34,45.05 11.34,49.05 14.34,49.05 14.34,54.05 17.34,54.05 19.34,52.05 22.34,54.05 25.34,53.05 	"/>
	<ellipse class="st13" cx="21.34" cy="42.8" rx="3" ry="3.75"/>
	<linearGradient id="SVGID_19_" gradientUnits="userSpaceOnUse" x1="19.57" y1="40.2102" x2="21.1852" y2="43.0077">
		<stop  offset="0" style="stop-color:#F5F6F6"/>
		<stop  offset="0.9921" style="stop-color:#BFBEBE"/>
	</linearGradient>
	<path class="st14" d="M18.34,42.8c0,0.38,0.06,0.73,0.14,1.07c0.27,0.1,0.56,0.18,0.86,0.18c1.66,0,3-1.68,3-3.75
		c0-0.38-0.06-0.73-0.14-1.07c-0.27-0.1-0.56-0.18-0.86-0.18C19.69,39.05,18.34,40.73,18.34,42.8z"/>
	<polygon class="st11" points="27.84,35.05 27.84,37.55 31.34,37.55 29.34,35.05 	"/>
	<path class="st15" d="M15.34,29.05l3-1l3,3l2-2h2l1,2h1l1,1v3h1l3,3v2l-3,2v1l1,2v3l-1,1h-4v4l-3,1l-3-2l-2,2h-3l-3-3v-2l-3-3
		l-0.8-2.8c-0.12-0.42,0.04-0.87,0.41-1.11l3.89-2.6l-2.5-3v-1.5l2-2h3.5L15.34,29.05z"/>
</g>
</svg>
