<?xml version="1.0" encoding="utf-8"?>
<!-- Generator: Adobe Illustrator 25.2.1, SVG Export Plug-In . SVG Version: 6.00 Build 0)  -->
<svg version="1.1" xmlns="http://www.w3.org/2000/svg" xmlns:xlink="http://www.w3.org/1999/xlink" x="0px" y="0px"
	 viewBox="0 0 64 64" style="enable-background:new 0 0 64 64;" xml:space="preserve">
<style type="text/css">
	.st0{display:none;}
	.st1{display:inline;}
	.st2{fill:#EA4F37;}
	.st3{display:inline;opacity:0.5;fill:#D1D4D4;}
	.st4{display:inline;opacity:0.3;}
	.st5{fill:url(#);}
	.st6{opacity:0.5;fill:#FFFFFF;}
	.st7{fill:#F4F5F6;}
	.st8{fill:#D1D4D4;}
	.st9{fill:none;stroke:#00FF00;stroke-miterlimit:10;}
	.st10{fill:none;stroke:#00FF00;stroke-miterlimit:10;stroke-dasharray:3.2727,1.0909;}
	.st11{fill:none;stroke:#00FF00;stroke-miterlimit:10;stroke-dasharray:1.0909,1.0909,3.2727,1.0909;}
	.st12{fill:#EB2629;}
	.st13{fill:#B82025;}
	.st14{fill:#530303;}
	.st15{fill:#FFFFFF;}
	.st16{fill:none;stroke:#370101;stroke-width:0.9;stroke-linecap:round;stroke-linejoin:round;}
	.st17{fill:#075081;}
	.st18{opacity:0.98;fill:none;stroke:#FFFFFF;stroke-width:2;stroke-linecap:round;stroke-linejoin:round;stroke-miterlimit:10;}
	.st19{fill:url(#SVGID_1_);}
	.st20{fill:#4D4D4D;}
	.st21{fill:#212121;}
</style>
<g id="info" class="st0">
</g>
<g id="info_r2021x" class="st0">
</g>
<g id="Layer_3">
	<g id="FINAL_SolidWorks_reduced">
		<path class="st12" d="M15.77,21.78l18.14-5c0.85-0.24,1.76-0.21,2.6,0.09c0.59,0.14,17.34,4.8,17.34,4.8l0.06,2.42l-18.86,8.27
			l-19.22-6.94L15.77,21.78z"/>
		<path class="st13" d="M15.52,22.34V46.6l19.31,7.65V28.8c0.04-0.57-0.34-1.08-0.89-1.21l-17.81-5.78
			C15.55,21.6,15.55,22.35,15.52,22.34z"/>
		<path class="st14" d="M54.15,22.27v24.26l-19.31,7.65V28.73c-0.02-0.56,0.35-1.07,0.89-1.21l17.8-5.78
			C54.22,21.51,54.15,22.27,54.15,22.27z"/>
		<path class="st15" d="M49.49,45.09L47.12,46l-1.9-12.33l0,0L43,47.59l-2.5,1l-2.67-18.25l2.58-0.89l1.66,12l0,0l1.69-13l2.59-0.93
			l1.92,11.94l0,0l1.21-13l2.67-1L49.49,45.09z"/>
		<path class="st15" d="M21.82,39.88c-0.05,1.98,1.33,3.72,3.27,4.12c1.1,0.33,2.77,0.43,2.77-1.45s-2.14-3-4.25-4.34
			s-4.3-3.1-4.31-6.59c0-3.82,2.77-4.77,5.37-3.95c3.46,0.97,5.81,4.16,5.73,7.75l-3-0.94c0.05-1.74-1.13-3.29-2.83-3.68
			c-1-0.31-2.18-0.13-2.17,1.43c0.01,1.56,0.69,1.82,4.28,4.12c1,0.66,4.23,2.49,4.23,6.66c0,3.36-2,5.25-5.91,4.09
			c-3.71-1.08-6.23-4.53-6.13-8.4L21.82,39.88z"/>
		<path class="st16" d="M15.5,22.45V46c0.06,0.39,0.26,0.75,0.56,1l18.4,7.22c0.59,0.15,1.22,0.07,1.76-0.22l17.37-7.2
			c0.49-0.14,0.85-0.56,0.91-1.07V22.29c-0.07-0.53-0.47-0.96-1-1.05l-16.91-4.63c-0.97-0.17-1.97-0.12-2.92,0.12l-16.82,4.51
			C15.52,21.58,15.49,22.39,15.5,22.45z"/>
	</g>
	<g id="FINAL_BADGE">
		<path class="st15" d="M29,14.75c-0.02-4-3.28-7.23-7.29-7.21c-3.5,0.02-6.49,2.54-7.1,5.99c-3.99,0.35-6.94,3.87-6.58,7.86
			c0.35,3.99,3.87,6.94,7.86,6.58c3.27-0.29,5.94-2.74,6.5-5.97C26.14,21.66,29.01,18.52,29,14.75z"/>
		<path class="st17" d="M21.5,24.5c-3.54,0-6.74-2.07-8.2-5.29c-0.08-0.15-0.08-0.33,0-0.48c0.09-0.14,0.25-0.23,0.42-0.23h4.98
			c0.12,0,0.23,0.04,0.32,0.11c0.7,0.57,1.58,0.89,2.48,0.89c2.21,0,4-1.79,4-4s-1.79-4-4-4c-0.9,0-1.78,0.32-2.48,0.89
			c-0.09,0.07-0.2,0.11-0.32,0.11h-4.94c-0.17,0-0.33-0.09-0.42-0.23c-0.08-0.15-0.08-0.33,0-0.48c2.05-4.53,7.38-6.54,11.91-4.49
			s6.54,7.38,4.49,11.91C28.28,22.44,25.05,24.52,21.5,24.5z"/>
		<path class="st15" d="M21.5,7c4.69,0,8.5,3.8,8.51,8.49c0,4.69-3.8,8.5-8.49,8.51c-3.34,0-6.38-1.95-7.75-5h4.94
			c1.93,1.56,4.77,1.26,6.33-0.67c1.56-1.93,1.26-4.77-0.67-6.33c-1.65-1.33-4.01-1.33-5.66,0h-4.94C15.13,8.96,18.16,7,21.5,7
			 M21.5,6c-3.73,0.01-7.11,2.19-8.65,5.59c-0.14,0.31-0.11,0.67,0.07,0.95c0.18,0.29,0.5,0.46,0.84,0.46h4.94
			c0.23,0,0.45-0.08,0.63-0.22c0.61-0.5,1.38-0.78,2.17-0.78c1.93,0,3.5,1.57,3.5,3.5S23.43,19,21.5,19l0,0
			c-0.79,0-1.56-0.28-2.17-0.78C19.15,18.08,18.93,18,18.7,18h-4.94c-0.34,0-0.66,0.17-0.84,0.46c-0.18,0.28-0.21,0.64-0.07,0.95
			c2.16,4.78,7.79,6.91,12.57,4.75s6.91-7.79,4.75-12.57C28.63,8.18,25.24,6,21.5,6z"/>
		<path class="st17" d="M15.5,30.5c-4.97,0-9-4.03-9-9s4.03-9,9-9c3.53,0,6.74,2.07,8.2,5.29c0.08,0.15,0.08,0.33,0,0.48
			c-0.09,0.14-0.25,0.23-0.42,0.23H18.3c-0.12,0-0.23-0.04-0.32-0.11c-0.7-0.57-1.58-0.89-2.48-0.89c-2.21,0-4,1.79-4,4s1.79,4,4,4
			c0.91,0,1.8-0.31,2.5-0.89c0.09-0.07,0.2-0.11,0.32-0.11h4.94c0.17,0,0.33,0.09,0.42,0.23c0.08,0.15,0.08,0.33,0,0.48
			C22.23,28.42,19.03,30.49,15.5,30.5z"/>
		<path class="st15" d="M15.5,13c3.34,0,6.37,1.96,7.74,5H18.3c-1.93-1.56-4.77-1.26-6.33,0.67s-1.26,4.77,0.67,6.33
			c1.65,1.33,4.01,1.33,5.66,0h4.94c-1.93,4.28-6.97,6.18-11.25,4.25S5.82,22.28,7.75,18C9.12,14.95,12.16,13,15.5,13 M15.5,12
			c-5.25,0-9.5,4.25-9.51,9.49S10.24,31,15.48,31c3.74,0,7.13-2.18,8.67-5.59c0.14-0.31,0.11-0.67-0.07-0.95
			C23.9,24.17,23.58,24,23.24,24H18.3c-0.23,0-0.45,0.08-0.63,0.22C17.06,24.72,16.29,25,15.5,25c-1.93,0-3.5-1.57-3.5-3.5
			s1.57-3.5,3.5-3.5c0.79,0,1.56,0.28,2.17,0.78c0.18,0.14,0.4,0.22,0.63,0.22h4.94c0.34,0,0.66-0.17,0.84-0.46
			c0.18-0.28,0.21-0.64,0.07-0.95C22.61,14.19,19.23,12.01,15.5,12z"/>
	</g>
</g>
<g id="caliper">
	<path class="st18" d="M46.38,21.87c0.2,0,0.38-0.04,0.55-0.12v7.78h-1.09v-7.78C46,21.82,46.19,21.87,46.38,21.87z M57.76,48.13
		c0,5.61-4.06,10.27-9.41,11.21c0.9-0.2,0.47-0.84,1.62-1.34v0c4.03-1.47,6.91-5.33,6.91-9.88c0-10.35-9.96-6.08-9.96-17.51V30.4h0
		h-1.09v0.22c0,11.43-9.96,7.16-9.96,17.51c0,4.54,2.88,8.41,6.91,9.88l0,0c1.15,0.5,0.72,1.14,1.62,1.34
		C39.06,58.41,35,53.75,35,48.13c0-12.36,8.65-8.45,8.65-17.51V30.4h-2.03v-0.88h2.03V19.8c-0.89-0.68-1.52-1.68-1.73-2.82
		c0.43,2.09,2.28,3.66,4.49,3.66c1.57,0,2.95-0.79,3.78-1.99c-0.29,0.44-0.65,0.84-1.07,1.16v9.29h0.44v-0.22h0.04h0.4h0.04v0.22
		c0,0.11,0.09,0.2,0.2,0.21c0.11-0.01,0.2-0.1,0.2-0.21v-0.88h0.04h0.62h0.04v1.31h5.34v-0.44h0.04h0.4h0.04v1.75H56.9h-0.4h-0.04
		V30.4h-5.34v1.31h-0.04h-0.62h-0.04v-0.88c0-0.11-0.09-0.2-0.2-0.21c-0.11,0.01-0.2,0.1-0.2,0.21v0.22h-0.04h-0.4h-0.04v-0.22
		h-0.43C49.26,39.62,57.76,35.88,57.76,48.13z M46.93,21.75c-0.17,0.08-0.35,0.12-0.55,0.12c-0.2,0-0.38-0.04-0.55-0.12v7.78h1.09
		V21.75z M46.41,19.89c2.12,0,3.84-1.72,3.84-3.84s-1.72-3.84-3.84-3.84s-3.84,1.72-3.84,3.84S44.3,19.89,46.41,19.89z M41.92,16.98
		c0-0.01,0-0.01,0-0.02c-0.05-0.23-0.06-0.46-0.07-0.7c0-0.07-0.02-0.14-0.02-0.21c0-2.53,2.05-4.59,4.59-4.59S51,13.51,51,16.05
		c0,0.76-0.2,1.47-0.53,2.1c-0.05,0.09-0.1,0.19-0.15,0.28c-0.04,0.07-0.08,0.14-0.12,0.21c-0.83,1.2-2.21,1.99-3.78,1.99
		C44.2,20.64,42.35,19.07,41.92,16.98z M42.57,16.05c0,2.12,1.72,3.84,3.84,3.84s3.84-1.72,3.84-3.84s-1.72-3.84-3.84-3.84
		S42.57,13.93,42.57,16.05z"/>
	<g>
		<path class="st21" d="M49.12,30.84h0.47v0.22h0.44v-0.22c0-0.12,0.1-0.22,0.22-0.22c0.12,0,0.22,0.1,0.22,0.22v0.88h0.66V30.4
			h5.38v0.44h0.44v-1.75H56.5v0.44h-5.38v-1.31h-0.66v0.88c0,0.12-0.1,0.22-0.22,0.22c-0.12,0-0.22-0.1-0.22-0.22v-0.22h-0.44v0.22
			h-0.47V19.8c1.1-0.83,1.81-2.14,1.81-3.62c0-2.5-2.04-4.54-4.54-4.54c-2.5,0-4.54,2.04-4.54,4.54c0,1.48,0.71,2.79,1.81,3.62
			v10.82c0,9.06-8.65,5.15-8.65,17.51c0,5.61,4.06,10.27,9.41,11.21c-0.9-0.2-0.47-0.84-1.62-1.34l0,0
			c-4.03-1.47-6.91-5.34-6.91-9.88c0-10.35,9.96-6.08,9.96-17.51V30.4h1.09v0.22c0,11.43,9.96,7.16,9.96,17.51
			c0,4.54-2.88,8.41-6.91,9.88v0c-1.15,0.5-0.72,1.14-1.62,1.34c5.34-0.94,9.41-5.6,9.41-11.21C57.76,35.88,49.26,39.62,49.12,30.84
			z M46.93,29.53h-1.09v-7.78c0.17,0.08,0.35,0.12,0.55,0.12c0.2,0,0.38-0.04,0.55-0.12V29.53z M45.3,19.81l-1.66-0.46v0.03
			c-0.9-0.77-1.48-1.92-1.48-3.2c0-2.32,1.89-4.21,4.21-4.21c2.32,0,4.21,1.89,4.21,4.21c0,1.28-0.57,2.43-1.48,3.2v-0.03
			l-1.66,0.46"/>
		<path class="st21" d="M49.08,30.84h0.47v0.22h0.44v-0.22c0-0.12,0.1-0.22,0.22-0.22c0.12,0,0.22,0.1,0.22,0.22v0.88h0.66V30.4
			h5.38v0.44h0.44v-1.75h-0.44v0.44h-5.38v-1.31h-0.66v0.88c0,0.12-0.1,0.22-0.22,0.22c-0.12,0-0.22-0.1-0.22-0.22v-0.22h-0.44v0.22
			h-0.47"/>
		<g>
			<g>
				<path class="st21" d="M46.41,12.21c2.12,0,3.84,1.72,3.84,3.84s-1.72,3.84-3.84,3.84s-3.84-1.72-3.84-3.84
					S44.3,12.21,46.41,12.21 M46.41,11.46c-2.53,0-4.59,2.05-4.59,4.59s2.05,4.59,4.59,4.59S51,18.58,51,16.05
					S48.95,11.46,46.41,11.46L46.41,11.46z"/>
			</g>
		</g>
		<rect x="45.83" y="29.53" class="st21" width="1.09" height="0.88"/>
		<rect x="41.62" y="29.53" class="st21" width="2.07" height="0.88"/>
	</g>
</g>
</svg>
