<svg xmlns="http://www.w3.org/2000/svg" xmlns:xlink="http://www.w3.org/1999/xlink" viewBox="0 0 64 64"><defs><style>.cls-1{fill:#1f1f1f;}.cls-2,.cls-9{fill:#bababb;}.cls-3{fill:#262626;}.cls-4{opacity:0.39;fill:url(#radial-gradient);}.cls-4,.cls-5,.cls-8,.cls-9{isolation:isolate;}.cls-10,.cls-5{fill:#fff;}.cls-5{opacity:0.26;}.cls-6{opacity:0.73;}.cls-7,.cls-8{fill:#f1f1f2;}.cls-8{opacity:0.61;}.cls-9{opacity:0.9;}.cls-11{fill:#075081;}</style><radialGradient id="radial-gradient" cx="35.59" cy="24.95" r="0.5" gradientTransform="matrix(26.06, 0, 0, -26.06, -892.52, 685.2)" gradientUnits="userSpaceOnUse"><stop offset="0.11" stop-color="#fff"/><stop offset="0.21" stop-color="#fafafa" stop-opacity="0.98"/><stop offset="0.32" stop-color="#ededed" stop-opacity="0.93"/><stop offset="0.43" stop-color="#d7d7d7" stop-opacity="0.85"/><stop offset="0.55" stop-color="#b9b9b9" stop-opacity="0.73"/><stop offset="0.67" stop-color="#929292" stop-opacity="0.58"/><stop offset="0.8" stop-color="#626262" stop-opacity="0.39"/><stop offset="0.92" stop-color="#2b2b2b" stop-opacity="0.17"/><stop offset="1" stop-opacity="0"/></radialGradient></defs><g id="ENOUVZC_AP_appicon"><g id="Group_52" data-name="Group 52"><path id="Path_76" data-name="Path 76" class="cls-1" d="M35,56a21,21,0,1,1,14.85-6.15A21,21,0,0,1,35,56Z"/><path id="Path_77" data-name="Path 77" class="cls-2" d="M35,53.87a18.85,18.85,0,1,1,13.35-5.52A18.87,18.87,0,0,1,35,53.87Z"/><path id="Path_78" data-name="Path 78" class="cls-3" d="M35,54.18a18.23,18.23,0,1,1,12.9-5.34A18.24,18.24,0,0,1,35,54.18Z"/><path id="Path_79" data-name="Path 79" class="cls-4" d="M35,48a13,13,0,1,1,9.21-3.82A12.88,12.88,0,0,1,35,48Z"/><path id="Path_80" data-name="Path 80" class="cls-5" d="M36.86,37.19a11.87,11.87,0,0,0-3.4,10,11.61,11.61,0,0,0,2,.16,12,12,0,0,0,12-12,11.82,11.82,0,0,0-.1-1.57,11.69,11.69,0,0,0-2-.16A11.87,11.87,0,0,0,36.86,37.19Z"/><g id="Group_50" data-name="Group 50" class="cls-6"><path id="Path_81" data-name="Path 81" class="cls-7" d="M23,24.88l3.25,2.18a.43.43,0,0,0,.54-.06l.13-.13A9.92,9.92,0,0,1,33.54,24a.43.43,0,0,0,.4-.42V19.65a.42.42,0,0,0-.43-.42h0a14.7,14.7,0,0,0-10.64,5,.43.43,0,0,0,.05.6Z"/><path id="Path_82" data-name="Path 82" class="cls-7" d="M24.63,29.4l-3.25-2.18a.43.43,0,0,0-.59.11l0,.05a14.6,14.6,0,0,0-1.53,6.12.43.43,0,0,0,.41.44h3.88a.44.44,0,0,0,.43-.4,9.91,9.91,0,0,1,.83-3.63A.41.41,0,0,0,24.63,29.4Z"/></g><g id="Group_51" data-name="Group 51"><path id="Path_110" data-name="Path 110" class="cls-2" d="M27.49,25.37c1.33-.95,3-.92,3.71.08S31.41,28,30.08,29s-3,.92-3.71-.08S26.15,26.33,27.49,25.37Z"/><path id="Path_111" data-name="Path 111" class="cls-8" d="M32,31.15a1.83,1.83,0,0,1,2.53.06,1.83,1.83,0,0,1-.76,2.41,1.83,1.83,0,0,1-2.53-.06A1.84,1.84,0,0,1,32,31.15Z"/><path id="Path_112" data-name="Path 112" class="cls-8" d="M36.59,37a.94.94,0,0,1,1.31,0,1.09,1.09,0,0,1-1.7,1.22A.94.94,0,0,1,36.59,37Z"/><path id="Path_113" data-name="Path 113" class="cls-8" d="M35,34.92A.82.82,0,1,1,36,36.2.82.82,0,1,1,35,34.92Z"/><path id="Path_114" data-name="Path 114" class="cls-9" d="M39.89,41c1.33-1,3-.92,3.71.08s.21,2.58-1.12,3.54-3,.91-3.71-.08S38.55,41.93,39.89,41Z"/></g><path id="Path_83" data-name="Path 83" class="cls-2" d="M45.92,26.21v0a.16.16,0,0,0-.22,0,.14.14,0,0,0,0,.2A13.95,13.95,0,0,1,26.39,45.67a.16.16,0,0,0-.22,0,.17.17,0,0,0,0,.2h0A13.94,13.94,0,0,0,45.92,26.21Z"/></g></g><g id="FINAL_BADGE" data-name="FINAL BADGE"><path class="cls-10" d="M29,14.75a7.25,7.25,0,0,0-14.39-1.22A7.25,7.25,0,1,0,22.39,22,7.26,7.26,0,0,0,29,14.75Z"/><path class="cls-11" d="M21.5,24.5a9,9,0,0,1-8.2-5.29.51.51,0,0,1,0-.48.5.5,0,0,1,.42-.23H18.7a.52.52,0,0,1,.32.11,3.93,3.93,0,0,0,2.48.89,4,4,0,0,0,0-8,3.93,3.93,0,0,0-2.48.89.52.52,0,0,1-.32.11H13.76a.5.5,0,0,1-.42-.23.51.51,0,0,1,0-.48A9,9,0,1,1,21.5,24.5Z"/><path class="cls-10" d="M21.5,7a8.5,8.5,0,1,1-7.74,12H18.7a4.5,4.5,0,1,0,0-7H13.76A8.49,8.49,0,0,1,21.5,7m0-1a9.51,9.51,0,0,0-8.65,5.59,1,1,0,0,0,.07.95,1,1,0,0,0,.84.46H18.7a1,1,0,0,0,.63-.22A3.46,3.46,0,0,1,21.5,12a3.5,3.5,0,0,1,0,7,3.46,3.46,0,0,1-2.17-.78A1,1,0,0,0,18.7,18H13.76a1,1,0,0,0-.84.46,1,1,0,0,0-.07.95A9.5,9.5,0,1,0,21.5,6Z"/><path class="cls-11" d="M15.5,30.5a9,9,0,1,1,8.2-12.71.51.51,0,0,1,0,.48.5.5,0,0,1-.42.23H18.3a.52.52,0,0,1-.32-.11,3.93,3.93,0,0,0-2.48-.89,4,4,0,0,0,0,8A3.93,3.93,0,0,0,18,24.61a.52.52,0,0,1,.32-.11h4.94a.5.5,0,0,1,.42.23.51.51,0,0,1,0,.48A9,9,0,0,1,15.5,30.5Z"/><path class="cls-10" d="M15.5,13a8.49,8.49,0,0,1,7.74,5H18.3a4.5,4.5,0,1,0,0,7h4.94A8.5,8.5,0,1,1,15.5,13m0-1a9.5,9.5,0,1,0,8.65,13.41,1,1,0,0,0-.07-.95,1,1,0,0,0-.84-.46H18.3a1,1,0,0,0-.63.22A3.46,3.46,0,0,1,15.5,25a3.5,3.5,0,0,1,0-7,3.46,3.46,0,0,1,2.17.78,1,1,0,0,0,.63.22h4.94a1,1,0,0,0,.84-.46,1,1,0,0,0,.07-.95A9.51,9.51,0,0,0,15.5,12Z"/></g></svg>