<svg id="Layer_6_copy_2" data-name="Layer 6 copy 2" xmlns="http://www.w3.org/2000/svg" viewBox="0 0 64 64"><defs><style>.cls-1{fill:#283a97;}.cls-2{fill:#f7941d;}.cls-3{fill:#ee3524;}</style></defs><title>8967_ENOVMA_AP_AppIcon_R21XArtboard 1</title><path class="cls-1" d="M25.55,43.82a3.73,3.73,0,0,0-2-.44,4.8,4.8,0,0,0-2.94,1,3.58,3.58,0,0,0-1.42,2.67c0,1.35,1.24,1.76,2.41,1.76a8.55,8.55,0,0,0,2.93-.45L23.26,50a8.94,8.94,0,0,1-2.06.26c-1.77,0-4.28-.44-4.28-2.65a5.21,5.21,0,0,1,2.32-4.13A7.88,7.88,0,0,1,24.06,42a6.62,6.62,0,0,1,2.62.52Z"/><path class="cls-1" d="M32.76,50.06,31.88,44l-2.21,2.78h1.91l.12,1.26H30.44a2.72,2.72,0,0,0-2.48.87l-.89,1.14H24.69l6.68-7.9h2.35l1.22,7.9Z"/><path class="cls-1" d="M43.86,43.54H41.47l-2.26,6.52H37.05l2.27-6.52H36.15l.49-1.38H45Z"/><path class="cls-1" d="M45.89,50.06H43.72l2.79-7.9h2.17Z"/><path class="cls-1" d="M55.65,50.06,54.77,44l-2.22,2.78h1.92l.11,1.26H53.33a2.72,2.72,0,0,0-2.48.87L50,50.06H47.58l6.68-7.9h2.35l1.22,7.9Z"/><path class="cls-1" d="M22.24,26.6a19.41,19.41,0,0,0-9.38,0c-1,.28-1.66.56-1.61.89s.3.4,1.58.37a27.77,27.77,0,0,1,7.21.48c2,.56,2.23,1.58,1.25,3.59a11,11,0,0,1-2.15,2.91,23.3,23.3,0,0,1-6,4.09c-1.39.71-1.9.34-1.75-.36.19-.86,4.14-7.69,4.14-7.69.3-.52.35-1,0-1.16s-.84.3-1.4,1c-2.31,2.68-6.56,10.83-6.64,11.1s.12.28.2.28c1.8,0,12.85-3.28,16.42-10C26,28.59,25,27.43,22.24,26.6Z"/><path class="cls-2" d="M27.74,23.39c-2.23,1.93,1.08,5.11,2.64,6.93s3.35,4,3.43,4.79a1,1,0,0,1-.45,1c-.7.44-3.56.85-9.48.85-1.28,0-1.55.12-1.58.35s-.06.4,1.58.81c0,0,6.78,1.26,10.38,0s2.75-3.37,2.09-4.59c-1-1.88-5.7-7.35-6.08-8.1a.71.71,0,0,1,.16-1s.78-.94,7-.89c1.28,0,1.55-.12,1.58-.35s-.34-.61-1.57-.87S30.42,21.07,27.74,23.39Z"/><path class="cls-3" d="M19.69,12c-.5.14-1.5.42-1.41.79s.25.34,1.41.34a35.48,35.48,0,0,1,6,.42c2.83.51,2.16,1.93,1.36,3.29-1.95,3.32-7.2,7.06-7.51,7.27s-.18.43.17.3C24,22.85,28.29,20.11,30,16.79c1.47-2.81.42-4.15-1.82-4.78A17.81,17.81,0,0,0,19.69,12Z"/></svg>