<svg id="Layer_5" data-name="Layer 5" xmlns="http://www.w3.org/2000/svg" xmlns:xlink="http://www.w3.org/1999/xlink" viewBox="0 0 64 64"><defs><linearGradient id="linear-gradient" x1="38.18" y1="21.51" x2="31.72" y2="10.31" gradientUnits="userSpaceOnUse"><stop offset="0" stop-color="#74c4e2"/><stop offset="1" stop-color="#a4def6"/></linearGradient><linearGradient id="linear-gradient-7" x1="21.4" y1="26.88" x2="14.61" y2="15.12" gradientUnits="userSpaceOnUse"><stop offset="0" stop-color="#2a5b79"/><stop offset="1" stop-color="#84bedc"/></linearGradient><linearGradient id="linear-gradient-18" x1="55.47" y1="46.04" x2="51" y2="38.28" gradientUnits="userSpaceOnUse"><stop offset="0" stop-color="#386f8d"/><stop offset="1" stop-color="#8dd7f4"/></linearGradient></defs><title>Varient_Management_3</title><polygon points="23.5 13 37.5 10 46.5 15.5 46.5 17.5 31.5 22.5 23.5 16.5 23.5 13" stroke="#053755" stroke-linecap="round" stroke-linejoin="round" fill="url(#linear-gradient)"/><polygon points="23.5 13 23.5 30.5 31.5 38.5 31.5 19.5 23.5 13" stroke="#053755" stroke-linecap="round" stroke-linejoin="round" fill="url(#linear-gradient)"/><polygon points="46.5 15.5 31.5 19.5 31.5 38.5 46.5 32.5 46.5 15.5" stroke="#053755" stroke-linecap="round" stroke-linejoin="round" fill="url(#linear-gradient)"/><polygon points="34.5 24.5 46.5 21.5 52.5 26 52.5 28.5 40.5 32 34.5 27.5 34.5 24.5" stroke="#053755" stroke-linecap="round" stroke-linejoin="round" fill="url(#linear-gradient)"/><polygon points="34.5 24.5 34.5 38.5 40.5 44.5 40.5 29.5 34.5 24.5" stroke="#053755" stroke-linecap="round" stroke-linejoin="round" fill="url(#linear-gradient)"/><polygon points="52.5 26 40.5 29.5 40.5 44.5 52.5 40 52.5 26" stroke="#053755" stroke-linecap="round" stroke-linejoin="round" fill="url(#linear-gradient)"/><polygon points="6.5 18 20.5 15 29.5 20.5 29.5 22.5 14.5 27.5 6.5 21.5 6.5 18" stroke="#053755" stroke-linecap="round" stroke-linejoin="round" fill="url(#linear-gradient-7)"/><polygon points="6.5 18 6.5 35.5 14.5 43.5 14.5 24.5 6.5 18" stroke="#053755" stroke-linecap="round" stroke-linejoin="round" fill="url(#linear-gradient-7)"/><polygon points="29.5 20.5 14.5 24.5 14.5 43.5 29.5 37.5 29.5 20.5" stroke="#053755" stroke-linecap="round" stroke-linejoin="round" fill="url(#linear-gradient-7)"/><polygon points="17.5 29.5 29.5 26.5 35.5 31 35.5 33.5 23.5 37 17.5 32.5 17.5 29.5" stroke="#053755" stroke-linecap="round" stroke-linejoin="round" fill="url(#linear-gradient-7)"/><polygon points="17.5 29.5 17.5 43.5 23.5 49.5 23.5 34.5 17.5 29.5" stroke="#053755" stroke-linecap="round" stroke-linejoin="round" fill="url(#linear-gradient-7)"/><polygon points="35.5 31 23.5 34.5 23.5 49.5 35.5 45 35.5 31" stroke="#053755" stroke-linecap="round" stroke-linejoin="round" fill="url(#linear-gradient-7)"/><polygon points="27.5 39 35.5 36.5 40.5 40 40.5 42.5 31.5 45.5 27.5 41.5 27.5 39" stroke="#053755" stroke-linecap="round" stroke-linejoin="round" fill="url(#linear-gradient-7)"/><polygon points="27.5 39 27.5 49.5 31.5 53.5 31.5 42.5 27.5 39" stroke="#053755" stroke-linecap="round" stroke-linejoin="round" fill="url(#linear-gradient-7)"/><polygon points="40.5 40 31.5 42.5 31.5 53.5 40.5 50.5 40.5 40" stroke="#053755" stroke-linecap="round" stroke-linejoin="round" fill="url(#linear-gradient-7)"/><polygon points="48.5 32.75 52.5 31.5 57.5 35 57.5 37.5 52.5 41.5 48.5 38 48.5 32.75" stroke="#053755" stroke-linecap="round" stroke-linejoin="round" fill="url(#linear-gradient)"/><polygon points="44.5 39.5 44.5 44.5 48.5 48.5 48.5 43 44.5 39.5" stroke="#053755" stroke-linecap="round" stroke-linejoin="round" fill="url(#linear-gradient-7)"/><polygon points="57.5 35 57.5 45.5 48.5 48.5 48.5 43 52.5 41.5 52.5 36.5 57.5 35" stroke="#053755" stroke-linecap="round" stroke-linejoin="round" fill="url(#linear-gradient-18)"/><polygon points="44.5 39.5 48.5 38 52.5 41.5 48.5 43 44.5 39.5" stroke="#053755" stroke-linecap="round" stroke-linejoin="round" fill="url(#linear-gradient)"/><polygon points="48.5 33 52.5 36.5 52.5 41.5 48.5 38 48.5 33" stroke="#053755" stroke-linecap="round" stroke-linejoin="round" fill="url(#linear-gradient-18)"/></svg>