<svg xmlns="http://www.w3.org/2000/svg" xmlns:xlink="http://www.w3.org/1999/xlink" viewBox="0 0 49 47"><defs><linearGradient id="linear-gradient" x1="22" y1="35.5" x2="34" y2="35.5" gradientUnits="userSpaceOnUse"><stop offset="0" stop-color="#231f20"/><stop offset="1" stop-color="#fff"/></linearGradient><linearGradient id="linear-gradient-2" x1="9.27" y1="25.07" x2="23.06" y2="48.96" gradientUnits="userSpaceOnUse"><stop offset="0" stop-color="#f5f6f6"/><stop offset="0.99" stop-color="#bfbebe"/></linearGradient><linearGradient id="linear-gradient-3" x1="22.71" y1="28.34" x2="32.41" y2="45.13" gradientUnits="userSpaceOnUse"><stop offset="0" stop-color="#fff"/><stop offset="1" stop-color="#d2d3d3"/></linearGradient><linearGradient id="linear-gradient-4" x1="20.17" y1="9.33" x2="23.95" y2="15.87" gradientUnits="userSpaceOnUse"><stop offset="0" stop-color="#fff"/><stop offset="1" stop-color="#f1f0f0"/></linearGradient><linearGradient id="linear-gradient-6" x1="2.76" y1="8.59" x2="8.03" y2="17.71" gradientUnits="userSpaceOnUse"><stop offset="0" stop-color="#ababab"/><stop offset="1" stop-color="#5b5b5b"/></linearGradient><linearGradient id="linear-gradient-7" x1="10.03" y1="27.98" x2="2.4" y2="14.77" gradientUnits="userSpaceOnUse"><stop offset="0" stop-color="#2a5b79"/><stop offset="1" stop-color="#3388b0"/></linearGradient><linearGradient id="linear-gradient-8" x1="13.22" y1="35.28" x2="15.91" y2="39.94" gradientUnits="userSpaceOnUse"><stop offset="0" stop-color="#f5f6f6"/><stop offset="0.99" stop-color="#d2d3d3"/></linearGradient><filter id="luminosity-invert" filterUnits="userSpaceOnUse" color-interpolation-filters="sRGB"><feColorMatrix values="-1 0 0 0 1 0 -1 0 0 1 0 0 -1 0 1 0 0 0 1 0"/></filter><mask id="mask" x="13" y="18" width="12" height="17" maskUnits="userSpaceOnUse"><g filter="url(#luminosity-invert)"><g transform="translate(-9 -9)"><path d="M34,38.33l-4-11a.51.51,0,0,0-.59-.32l-4,1a.51.51,0,0,0-.37.39l-3,15a.48.48,0,0,0,.18.49.51.51,0,0,0,.31.11.52.52,0,0,0,.21,0l3.5-1.6a.47.47,0,0,0,.28-.37l.45-2.62,3.2-1.2.37,1.58a.48.48,0,0,0,.27.33.47.47,0,0,0,.43,0L33.71,39A.51.51,0,0,0,34,38.33ZM27,36l.5-4.5L29,31l.5,4Z" fill="url(#linear-gradient)"/></g></g></mask><linearGradient id="linear-gradient-10" x1="29.42" y1="41.43" x2="22.59" y2="29.6" xlink:href="#linear-gradient-7"/><linearGradient id="linear-gradient-15" x1="32.79" y1="20.49" x2="28.85" y2="17.68" gradientUnits="userSpaceOnUse"><stop offset="0.31" stop-color="#386f8d"/><stop offset="1" stop-color="#8dd7f4"/></linearGradient><linearGradient id="linear-gradient-16" x1="33.39" y1="33.45" x2="35.25" y2="36.68" xlink:href="#linear-gradient-2"/><linearGradient id="linear-gradient-17" x1="47.45" y1="14.83" x2="49.66" y2="18.65" xlink:href="#linear-gradient-6"/></defs><title>ENOWART_AP_AppIcon</title><g id="Layer_5" data-name="Layer 5"><polygon points="0.5 11.5 11.5 17.5 11.5 44.5 0.5 34.5 0.5 11.5" stroke="#797979" stroke-linecap="round" stroke-linejoin="round" fill="url(#linear-gradient-2)"/><polygon points="11.5 17.5 26.5 12.5 26.5 36.5 11.5 44.5 11.5 17.5" stroke="#797979" stroke-linecap="round" stroke-linejoin="round" fill="url(#linear-gradient-3)"/><polygon points="5.5 6.5 5.5 2.5 20.5 0.5 20.5 4.5 5.5 6.5" stroke="#797979" stroke-linecap="round" stroke-linejoin="round" fill="url(#linear-gradient-4)"/><polygon points="11.5 17.5 5.5 6.5 20.5 4.5 26.5 12.5 11.5 17.5" stroke="#797979" stroke-linecap="round" stroke-linejoin="round" fill="url(#linear-gradient-4)"/><polygon points="0.5 11.5 5.5 6.5 11.5 17.5 0.5 11.5" stroke="#787878" stroke-linecap="round" stroke-linejoin="round" fill="url(#linear-gradient-6)"/><polygon points="0.5 34.5 0.5 11.5 5.5 6.5 5.5 2.5 20.5 0.5 20.5 4.5 26.5 12.5 26.5 36.5 11.5 44.5 0.5 34.5" fill="none" stroke="#333332" stroke-linecap="round" stroke-linejoin="round"/><polygon points="2 15 2 23 10 28 10 19 2 15" fill="url(#linear-gradient-7)"/><line x1="2.5" y1="26.5" x2="8.5" y2="30.5" stroke="#333332" stroke-linecap="round" stroke-linejoin="round" fill="url(#linear-gradient-8)"/><line x1="2.5" y1="30.5" x2="8.5" y2="34.5" stroke="#333332" stroke-linecap="round" stroke-linejoin="round" fill="url(#linear-gradient-8)"/><g mask="url(#mask)"><path d="M34,38.33l-4-11a.51.51,0,0,0-.59-.32l-4,1a.51.51,0,0,0-.37.39l-3,15a.48.48,0,0,0,.18.49.51.51,0,0,0,.31.11.52.52,0,0,0,.21,0l3.5-1.6a.47.47,0,0,0,.28-.37l.45-2.62,3.2-1.2.37,1.58a.48.48,0,0,0,.27.33.47.47,0,0,0,.43,0L33.71,39A.51.51,0,0,0,34,38.33ZM27,36l.5-4.5L29,31l.5,4Z" transform="translate(-9 -9)" fill="url(#linear-gradient-10)"/></g><line x1="20.5" y1="19.5" x2="22.5" y2="21.5" stroke="#333332" stroke-linecap="round" stroke-linejoin="round" fill="url(#linear-gradient-8)"/><line x1="20.5" y1="22.5" x2="22.5" y2="24.5" stroke="#333332" stroke-linecap="round" stroke-linejoin="round" fill="url(#linear-gradient-8)"/><line x1="20.5" y1="25.5" x2="22.5" y2="27.5" stroke="#333332" stroke-linecap="round" stroke-linejoin="round" fill="url(#linear-gradient-8)"/><line x1="20.5" y1="28.5" x2="22.5" y2="30.5" stroke="#333332" stroke-linecap="round" stroke-linejoin="round" fill="url(#linear-gradient-8)"/></g><g id="Layer_6" data-name="Layer 6"><polygon points="23.5 29.5 25 23.5 36.5 7.5 40.5 10.5 29 26.5 23.5 29.5" stroke="#053755" stroke-linecap="round" stroke-linejoin="round" fill="url(#linear-gradient-15)"/><path d="M32.5,38.5l1.5-6a3.59,3.59,0,0,1,2.5.5A3.23,3.23,0,0,1,38,35.5Z" transform="translate(-9 -9)" stroke="#323232" stroke-linecap="round" stroke-linejoin="round" fill="url(#linear-gradient-16)"/><polygon points="23.5 29.5 24 27.5 25.5 28.5 23.5 29.5" fill="#161616"/><path d="M45.5,16.5S48,13,50,14.5s-.5,5-.5,5Z" transform="translate(-9 -9)" stroke="#333332" stroke-linecap="round" stroke-linejoin="round" fill="url(#linear-gradient-17)"/></g><g id="Layer_15" data-name="Layer 15"><g opacity="0.45"><path d="M43,31.31l13,6.5V53.69l-13-6.5V31.31m0-1a1,1,0,0,0-.53.15,1,1,0,0,0-.47.85V47.19a1,1,0,0,0,.55.9l13,6.5a1,1,0,0,0,1-.05,1,1,0,0,0,.47-.85V37.81a1,1,0,0,0-.55-.9l-13-6.5a1,1,0,0,0-.45-.1Z" transform="translate(-9 -9)" fill="#fff"/><path d="M42.5,30a.54.54,0,0,1,.22.05l14,7a.51.51,0,0,1,.28.45v17a.52.52,0,0,1-.24.43.59.59,0,0,1-.26.07.54.54,0,0,1-.22,0l-14-7A.51.51,0,0,1,42,47.5v-17a.52.52,0,0,1,.24-.43A.59.59,0,0,1,42.5,30M56,53.69V37.81l-13-6.5V47.19l13,6.5M42.5,29a1.57,1.57,0,0,0-.79.22A1.5,1.5,0,0,0,41,30.5v17a1.5,1.5,0,0,0,.83,1.34l14,7a1.44,1.44,0,0,0,.67.16,1.5,1.5,0,0,0,.78-.22A1.48,1.48,0,0,0,58,54.5v-17a1.5,1.5,0,0,0-.83-1.34l-14-7A1.44,1.44,0,0,0,42.5,29ZM44,46.57V32.93l11,5.5V52.07l-11-5.5Z" transform="translate(-9 -9)" fill="#fff"/></g><polygon points="33.5 21.5 33.5 38.5 47.5 45.5 47.5 28.5 33.5 21.5" stroke="#333332" stroke-linecap="round" stroke-linejoin="round" fill="url(#linear-gradient-8)"/><path d="M45.5,46.5v-4s.5-1.5,4,0,4,4,4,4v4Z" transform="translate(-9 -9)" fill="#333332" stroke="#333332" stroke-miterlimit="10"/><ellipse cx="49.5" cy="39" rx="2.2" ry="3.2" transform="translate(-20.4 46.19) rotate(-53.12)" fill="#333332" stroke="#333332" stroke-miterlimit="10"/></g></svg>