<svg xmlns="http://www.w3.org/2000/svg" xmlns:xlink="http://www.w3.org/1999/xlink" viewBox="0 0 64 64"><defs><linearGradient id="linear-gradient" x1="16.12" y1="15.47" x2="31.6" y2="42.28" gradientUnits="userSpaceOnUse"><stop offset="0" stop-color="#f5f6f6"/><stop offset="0.99" stop-color="#d2d3d3"/></linearGradient><linearGradient id="linear-gradient-2" x1="30.12" y1="26.47" x2="16.8" y2="3.4" gradientUnits="userSpaceOnUse"><stop offset="0" stop-color="#386f8d"/><stop offset="1" stop-color="#8dd7f4"/></linearGradient><linearGradient id="linear-gradient-3" x1="30.64" y1="42.3" x2="15.78" y2="16.56" xlink:href="#linear-gradient-2"/><linearGradient id="linear-gradient-5" x1="29.18" y1="32.99" x2="36.35" y2="45.42" gradientUnits="userSpaceOnUse"><stop offset="0" stop-color="#f5f6f6"/><stop offset="0.99" stop-color="#bfbebe"/></linearGradient><linearGradient id="linear-gradient-6" x1="38.23" y1="34.71" x2="43.79" y2="44.33" xlink:href="#linear-gradient-5"/><linearGradient id="linear-gradient-7" x1="36.19" y1="27.86" x2="39.98" y2="34.42" xlink:href="#linear-gradient-5"/><linearGradient id="linear-gradient-8" x1="30.28" y1="53.11" x2="16.15" y2="28.63" xlink:href="#linear-gradient-2"/></defs><title>ENOWPSP_AP_AppIcon</title><g id="Layer_7" data-name="Layer 7"><rect x="7.5" y="16" width="32" height="24.5" stroke="#333332" stroke-linecap="round" stroke-linejoin="round" fill="url(#linear-gradient)"/><rect x="7.5" y="12.5" width="32" height="5" stroke="#053755" stroke-linecap="round" stroke-linejoin="round" fill="url(#linear-gradient-2)"/><rect x="7.5" y="25.5" width="31.5" height="8" stroke="#053755" stroke-linecap="round" stroke-linejoin="round" fill="url(#linear-gradient-3)"/></g><g id="Layer_8" data-name="Layer 8"><circle cx="11.5" cy="21.5" r="1.5" fill="#797979"/><circle cx="15.5" cy="29.5" r="1.5" fill="#797979"/><circle cx="15.5" cy="37.5" r="1.5" fill="#797979"/><polyline points="11.5 21.5 11.5 37.5 15.5 37.5" fill="none" stroke="#797979" stroke-miterlimit="10"/><line x1="11.5" y1="29.5" x2="15.5" y2="29.5" fill="none" stroke="#797979" stroke-miterlimit="10"/><line x1="18.5" y1="18.5" x2="18.5" y2="24.5" fill="none" stroke="#797979" stroke-linecap="square" stroke-miterlimit="10"/><line x1="18.5" y1="26.5" x2="18.5" y2="32.5" fill="none" stroke="#053755" stroke-linecap="square" stroke-linejoin="round"/><line x1="28.5" y1="18.5" x2="28.5" y2="24.5" fill="none" stroke="#797979" stroke-linecap="square" stroke-miterlimit="10"/></g><g id="Layer_10" data-name="Layer 10"><polygon points="20.5 20.5 20.5 19.5 28.5 19.5 28.5 20.5 27.5 20.5 27.5 30.5 21.5 30.5 21.5 20.5 20.5 20.5" stroke="#333332" stroke-linecap="round" stroke-linejoin="round" fill="url(#linear-gradient)"/><line x1="25.5" y1="21.5" x2="27.5" y2="21.5" fill="none" stroke="#333332" stroke-linecap="round" stroke-linejoin="round"/><line x1="25.5" y1="27.5" x2="27.5" y2="27.5" fill="none" stroke="#333332" stroke-linecap="round" stroke-linejoin="round"/><polygon points="29.5 30.5 35.5 34.5 35.5 47.5 29.5 43 29.5 30.5" stroke="#797979" stroke-linecap="round" stroke-linejoin="round" fill="url(#linear-gradient-5)"/><polygon points="35.5 34.5 46.5 31.5 46.5 44 35.5 47.5 35.5 34.5" stroke="#797979" stroke-linecap="round" stroke-linejoin="round" fill="url(#linear-gradient-6)"/><polygon points="29.5 30.5 39.5 28.5 46.5 31.5 35.5 34.5 29.5 30.5" stroke="#797979" stroke-linecap="round" stroke-linejoin="round" fill="url(#linear-gradient-7)"/><polygon points="39.5 28.5 29.5 30.5 29.5 43 35.5 47.5 46.5 44 46.5 31.5 39.5 28.5" fill="none" stroke="#333332" stroke-linecap="round" stroke-linejoin="round"/><line x1="24.5" y1="24.5" x2="27.5" y2="24.5" fill="none" stroke="#333332" stroke-linecap="round" stroke-linejoin="round"/><path d="M21.5,29.5l-5.65,16a2,2,0,0,0,.41,2c1.11,1.19,3.55,3,8.24,3s7.13-1.79,8.24-3a2,2,0,0,0,.41-2l-5.65-16Z" fill-opacity="0.75" stroke="#053755" stroke-linecap="round" stroke-linejoin="round" fill="url(#linear-gradient-8)"/><path d="M19,36.58V49.43a13,13,0,0,0,5,1V30H21.32Z" fill="#fff" fill-opacity="0.5"/><path d="M27.5,29.5H25.73l4.5,19.82a8.42,8.42,0,0,0,2.51-1.8,2,2,0,0,0,.41-2Z" fill="#053755" opacity="0.54"/></g><g id="Layer_15" data-name="Layer 15"><g opacity="0.45"><path d="M43,31.31l13,6.5V53.69l-13-6.5V31.31m0-1a1,1,0,0,0-.53.15,1,1,0,0,0-.47.85V47.19a1,1,0,0,0,.55.9l13,6.5a1,1,0,0,0,1-.05,1,1,0,0,0,.47-.85V37.81a1,1,0,0,0-.55-.9l-13-6.5a1,1,0,0,0-.45-.1Z" fill="#fff"/><path d="M42.5,30a.54.54,0,0,1,.22.05l14,7a.51.51,0,0,1,.28.45v17a.52.52,0,0,1-.24.43.59.59,0,0,1-.26.07.54.54,0,0,1-.22,0l-14-7A.51.51,0,0,1,42,47.5v-17a.52.52,0,0,1,.24-.43A.48.48,0,0,1,42.5,30M56,53.69V37.81l-13-6.5V47.19l13,6.5M42.5,29a1.57,1.57,0,0,0-.79.22A1.5,1.5,0,0,0,41,30.5v17a1.5,1.5,0,0,0,.83,1.34l14,7a1.57,1.57,0,0,0,.67.16,1.5,1.5,0,0,0,.78-.22A1.48,1.48,0,0,0,58,54.5v-17a1.5,1.5,0,0,0-.83-1.34l-14-7A1.44,1.44,0,0,0,42.5,29ZM44,46.57V32.93l11,5.5V52.07l-11-5.5Z" fill="#fff"/></g><polygon points="42.5 30.5 42.5 47.5 56.5 54.5 56.5 37.5 42.5 30.5" stroke="#333332" stroke-linecap="round" stroke-linejoin="round" fill="url(#linear-gradient)"/><path d="M45.5,46.5v-4s.5-1.5,4,0,4,4,4,4v4Z" fill="#333332" stroke="#333332" stroke-miterlimit="10"/><ellipse cx="49.5" cy="39" rx="2.2" ry="3.2" transform="translate(-11.4 55.19) rotate(-53.12)" fill="#333332" stroke="#333332" stroke-miterlimit="10"/></g></svg>