<svg xmlns="http://www.w3.org/2000/svg" xmlns:xlink="http://www.w3.org/1999/xlink" viewBox="0 0 64 64"><defs><linearGradient id="linear-gradient" x1="7.26" y1="21.79" x2="25.09" y2="52.66" gradientUnits="userSpaceOnUse"><stop offset="0" stop-color="#f5f6f6"/><stop offset="0.99" stop-color="#bfbebe"/></linearGradient><linearGradient id="linear-gradient-2" x1="33.73" y1="34.34" x2="40.56" y2="46.17" gradientUnits="userSpaceOnUse"><stop offset="0" stop-color="#fff"/><stop offset="1" stop-color="#d2d3d3"/></linearGradient><linearGradient id="linear-gradient-3" x1="29.06" y1="27.76" x2="33.44" y2="35.34" gradientUnits="userSpaceOnUse"><stop offset="0" stop-color="#fff"/><stop offset="1" stop-color="#f1f0f0"/></linearGradient><linearGradient id="linear-gradient-6" x1="25.02" y1="52.3" x2="11.98" y2="29.7" gradientUnits="userSpaceOnUse"><stop offset="0" stop-color="#2a5b79"/><stop offset="1" stop-color="#3388b0"/></linearGradient><linearGradient id="linear-gradient-7" x1="43.99" y1="32.96" x2="55.55" y2="52.97" gradientUnits="userSpaceOnUse"><stop offset="0" stop-color="#f5f6f6"/><stop offset="0.99" stop-color="#d2d3d3"/></linearGradient></defs><title>ENOWPMK_AP_AppIcon</title><g id="Layer_6" data-name="Layer 6"><polygon points="6.5 16.5 6.5 44.5 30.5 53.5 30.5 38 17.5 34 17.5 19.5 6.5 16.5" stroke="#797979" stroke-linecap="round" stroke-linejoin="round" fill="url(#linear-gradient)"/><polygon points="30.5 53.5 43.5 40.5 43.5 26.5 30.5 38 30.5 53.5" stroke="#797979" stroke-linecap="round" stroke-linejoin="round" fill="url(#linear-gradient-2)"/><polygon points="17.5 34 32.5 24.5 43.5 26.5 30.5 38 17.5 34" stroke="#797979" stroke-linecap="round" stroke-linejoin="round" fill="url(#linear-gradient-3)"/><polygon points="17.5 19.5 32.5 12.5 32.5 24.5 17.5 34 17.5 19.5" stroke="#797979" stroke-linecap="round" stroke-linejoin="round" fill="url(#linear-gradient-2)"/><polygon points="6.5 16.5 22.5 10.5 32.5 12.5 17.5 19.5 6.5 16.5" stroke="#797979" stroke-linecap="round" stroke-linejoin="round" fill="url(#linear-gradient-3)"/><polygon points="6.5 44.5 6.5 16.5 22.5 10.5 32.5 12.5 32.5 24.5 43.5 26.5 43.5 40.5 30.5 53.5 6.5 44.5" fill="none" stroke="#333332" stroke-linecap="round" stroke-linejoin="round"/></g><g id="Layer_7" data-name="Layer 7"><path d="M27,38.33V40H25v2H24V39.44l1,.33v-2.1L12,33.33V35H10V32.67L8,32V43l2,.67V42.5h2v1.83l6,2v-2.1l-2-.67V42h2v2h2V42h2v2h2v1h1V44h2v1H25v1.56l-1-.33v2.1l1,.34V47h2v2.33L29,50V39ZM12,35.44l2,.67V37H12ZM10,40V38h2v2Zm6,1H14v1.89l-2-.66V41h2V40h2Zm6-1H20v1H18V39H16V36.77l2,.67V39h2v-.89l2,.66Zm0,7H20V44h2Z" fill="url(#linear-gradient-6)"/></g><g id="Layer_16" data-name="Layer 16"><g opacity="0.45"><path d="M43,31.31l13,6.5V53.69l-13-6.5V31.31m0-1a1,1,0,0,0-.53.15,1,1,0,0,0-.47.85V47.19a1,1,0,0,0,.55.9l13,6.5a1,1,0,0,0,1-.05,1,1,0,0,0,.47-.85V37.81a1,1,0,0,0-.55-.9l-13-6.5a1,1,0,0,0-.45-.1Z" fill="#fff"/><path d="M42.5,30a.54.54,0,0,1,.22.05l14,7a.51.51,0,0,1,.28.45v17a.52.52,0,0,1-.24.43.59.59,0,0,1-.26.07.54.54,0,0,1-.22,0l-14-7A.51.51,0,0,1,42,47.5v-17a.52.52,0,0,1,.24-.43A.59.59,0,0,1,42.5,30M56,53.69V37.81l-13-6.5V47.19l13,6.5M42.5,29a1.57,1.57,0,0,0-.79.22A1.5,1.5,0,0,0,41,30.5v17a1.5,1.5,0,0,0,.83,1.34l14,7a1.44,1.44,0,0,0,.67.16,1.5,1.5,0,0,0,.78-.22A1.48,1.48,0,0,0,58,54.5v-17a1.5,1.5,0,0,0-.83-1.34l-14-7A1.44,1.44,0,0,0,42.5,29ZM44,46.57V32.93l11,5.5V52.07l-11-5.5Z" fill="#fff"/></g><polygon points="42.5 30.5 42.5 47.5 56.5 54.5 56.5 37.5 42.5 30.5" stroke="#333332" stroke-linecap="round" stroke-linejoin="round" fill="url(#linear-gradient-7)"/><path d="M45.5,46.5v-4s.5-1.5,4,0,4,4,4,4v4Z" fill="#333332" stroke="#333332" stroke-miterlimit="10"/><ellipse cx="49.5" cy="39" rx="2.2" ry="3.2" transform="translate(-11.4 55.19) rotate(-53.12)" fill="#333332" stroke="#333332" stroke-miterlimit="10"/></g></svg>