<svg id="Layer_5" data-name="Layer 5" xmlns="http://www.w3.org/2000/svg" xmlns:xlink="http://www.w3.org/1999/xlink" viewBox="0 0 64 64"><defs><linearGradient id="linear-gradient" x1="23.06" y1="32.34" x2="14.7" y2="17.86" gradientUnits="userSpaceOnUse"><stop offset="0" stop-color="#161616"/><stop offset="1" stop-color="#515151"/></linearGradient><linearGradient id="linear-gradient-2" x1="12.98" y1="11.52" x2="19.09" y2="22.1" gradientUnits="userSpaceOnUse"><stop offset="0" stop-color="#f5f6f6"/><stop offset="0.99" stop-color="#d2d3d3"/></linearGradient><linearGradient id="linear-gradient-4" x1="39.4" y1="34.95" x2="25.52" y2="10.91" gradientUnits="userSpaceOnUse"><stop offset="0" stop-color="#386f8d"/><stop offset="1" stop-color="#8dd7f4"/></linearGradient><linearGradient id="linear-gradient-5" x1="39.94" y1="12.06" x2="45.31" y2="21.37" xlink:href="#linear-gradient-2"/><linearGradient id="linear-gradient-7" x1="43.23" y1="12.98" x2="46.28" y2="18.26" gradientUnits="userSpaceOnUse"><stop offset="0" stop-color="#55b432"/><stop offset="1" stop-color="#379614"/></linearGradient><linearGradient id="linear-gradient-8" x1="39.41" y1="25.41" x2="45.83" y2="31.83" gradientUnits="userSpaceOnUse"><stop offset="0" stop-color="#fa3c05"/><stop offset="1" stop-color="#c81400"/></linearGradient></defs><title>ENOWCAR_AP_AppIcon</title><path d="M30.81,23,20,25.08l-6.3-5.81a1,1,0,0,0-1.36,1.46l5.22,4.82L9.81,27A1,1,0,0,0,10,29l.19,0,7.2-1.37-5.25,8.88a1,1,0,0,0,.35,1.37A1,1,0,0,0,13,38a1,1,0,0,0,.86-.49L20,27.11,31.19,25a1,1,0,0,0-.38-2Z" fill-rule="evenodd" fill="url(#linear-gradient)"/><polygon points="6.5 13.5 25.5 10.5 25.5 19.5 6.5 23 6.5 13.5" stroke="#333332" stroke-linecap="round" stroke-linejoin="round" fill="url(#linear-gradient-2)"/><polygon points="6.5 35.5 25.5 32.5 25.5 41.5 6.5 45 6.5 35.5" stroke="#333332" stroke-linecap="round" stroke-linejoin="round" fill="url(#linear-gradient-2)"/><polygon points="29.5 12.5 35.5 11.5 35.5 33.5 29.5 34.5 29.5 12.5" stroke="#053755" stroke-linecap="round" stroke-linejoin="round" fill="url(#linear-gradient-4)"/><g opacity="0.45"><path d="M43,31.31l13,6.5V53.69l-13-6.5V31.31m0-1a1,1,0,0,0-.53.15,1,1,0,0,0-.47.85V47.19a1,1,0,0,0,.55.9l13,6.5a1,1,0,0,0,1-.05,1,1,0,0,0,.47-.85V37.81a1,1,0,0,0-.55-.9l-13-6.5a1,1,0,0,0-.45-.1Z" fill="#fff"/><path d="M42.5,30a.54.54,0,0,1,.22.05l14,7a.51.51,0,0,1,.28.45v17a.52.52,0,0,1-.24.43.59.59,0,0,1-.26.07.54.54,0,0,1-.22,0l-14-7A.51.51,0,0,1,42,47.5v-17a.52.52,0,0,1,.24-.43A.59.59,0,0,1,42.5,30M56,53.69V37.81l-13-6.5V47.19l13,6.5M42.5,29a1.57,1.57,0,0,0-.79.22A1.5,1.5,0,0,0,41,30.5v17a1.5,1.5,0,0,0,.83,1.34l14,7a1.44,1.44,0,0,0,.67.16,1.5,1.5,0,0,0,.78-.22A1.48,1.48,0,0,0,58,54.5v-17a1.5,1.5,0,0,0-.83-1.34l-14-7A1.44,1.44,0,0,0,42.5,29ZM44,46.57V32.93l11,5.5V52.07l-11-5.5Z" fill="#fff"/></g><rect x="37.5" y="11.5" width="10" height="10" rx="1" stroke="#333332" stroke-linecap="round" stroke-linejoin="round" fill="url(#linear-gradient-5)"/><rect x="37.5" y="23.5" width="10" height="10" rx="1" stroke="#333332" stroke-linecap="round" stroke-linejoin="round" fill="url(#linear-gradient-5)"/><path d="M43,20a1,1,0,0,1-.71-.29l-3-3a1,1,0,0,1,1.42-1.42L43,17.59l4.79-4.8a1,1,0,0,1,1.42,1.42l-5.5,5.5A1,1,0,0,1,43,20Z" fill="url(#linear-gradient-7)"/><path d="M43.91,28.5l1.8-1.79a1,1,0,0,0-1.42-1.42l-1.79,1.8-1.79-1.8a1,1,0,0,0-1.42,1.42l1.8,1.79-1.8,1.79a1,1,0,0,0,0,1.42,1,1,0,0,0,1.42,0l1.79-1.8,1.79,1.8a1,1,0,0,0,1.42,0,1,1,0,0,0,0-1.42Z" fill="url(#linear-gradient-8)"/><polygon points="42.5 30.5 42.5 47.5 56.5 54.5 56.5 37.5 42.5 30.5" stroke="#333332" stroke-linecap="round" stroke-linejoin="round" fill="url(#linear-gradient-2)"/><path d="M45.5,46.5v-4s.5-1.5,4,0,4,4,4,4v4Z" fill="#333332" stroke="#333332" stroke-miterlimit="10"/><ellipse cx="49.5" cy="39" rx="2.2" ry="3.2" transform="translate(-11.4 55.19) rotate(-53.12)" fill="#333332" stroke="#333332" stroke-miterlimit="10"/></svg>