<svg xmlns="http://www.w3.org/2000/svg" xmlns:xlink="http://www.w3.org/1999/xlink" viewBox="0 0 64 64"><defs><linearGradient id="linear-gradient" x1="11.07" y1="14.3" x2="25.99" y2="40.15" gradientUnits="userSpaceOnUse"><stop offset="0" stop-color="#f5f6f6"/><stop offset="0.99" stop-color="#d2d3d3"/></linearGradient><linearGradient id="linear-gradient-2" x1="14.07" y1="17.3" x2="28.99" y2="43.15" xlink:href="#linear-gradient"/><linearGradient id="linear-gradient-3" x1="17.07" y1="20.3" x2="31.99" y2="46.15" xlink:href="#linear-gradient"/><linearGradient id="linear-gradient-4" x1="43.99" y1="32.96" x2="55.55" y2="52.97" xlink:href="#linear-gradient"/><linearGradient id="linear-gradient-5" x1="27.02" y1="46.59" x2="19.94" y2="34.34" gradientTransform="translate(61.36 12.94) rotate(84.07)" gradientUnits="userSpaceOnUse"><stop offset="0" stop-color="#386f8d"/><stop offset="1" stop-color="#8dd7f4"/></linearGradient><linearGradient id="linear-gradient-6" x1="21.37" y1="35.5" x2="24.64" y2="41.16" gradientUnits="userSpaceOnUse"><stop offset="0" stop-color="#50af28"/><stop offset="1" stop-color="#3c8c19"/></linearGradient></defs><title>ENOWDEA_AP_AppIcon</title><g id="Layer_15" data-name="Layer 15"><polygon points="8.5 46.5 8.5 11.5 26.5 9.5 33.5 16.5 33.5 38.5 8.5 46.5" fill="url(#linear-gradient)"/><polyline points="26.5 9.5 26.5 17.5 33.5 16.5" fill="none" stroke="#787878" stroke-linecap="round" stroke-linejoin="round"/><polygon points="8.5 46.5 8.5 11.5 26.5 9.5 33.5 16.5 33.5 38.5 8.5 46.5" fill="none" stroke="#333332" stroke-linecap="round" stroke-linejoin="round"/><polygon points="11.5 49.5 11.5 14.5 29.5 12.5 36.5 19.5 36.5 41.5 11.5 49.5" fill="url(#linear-gradient-2)"/><polyline points="29.5 12.5 29.5 20.5 36.5 19.5" fill="none" stroke="#787878" stroke-linecap="round" stroke-linejoin="round"/><polygon points="11.5 49.5 11.5 14.5 29.5 12.5 36.5 19.5 36.5 41.5 11.5 49.5" fill="none" stroke="#333332" stroke-linecap="round" stroke-linejoin="round"/><polygon points="14.5 52.5 14.5 17.5 32.5 15.5 39.5 22.5 39.5 44.5 14.5 52.5" fill="url(#linear-gradient-3)"/><polyline points="32.5 15.5 32.5 23.5 39.5 22.5" fill="none" stroke="#787878" stroke-linecap="round" stroke-linejoin="round"/><polygon points="14.5 52.5 14.5 17.5 32.5 15.5 39.5 22.5 39.5 44.5 14.5 52.5" fill="none" stroke="#333332" stroke-linecap="round" stroke-linejoin="round"/><g opacity="0.45"><path d="M43,31.31l13,6.5V53.69l-13-6.5V31.31m0-1a1,1,0,0,0-.53.15,1,1,0,0,0-.47.85V47.19a1,1,0,0,0,.55.9l13,6.5a1,1,0,0,0,1-.05,1,1,0,0,0,.47-.85V37.81a1,1,0,0,0-.55-.9l-13-6.5a1,1,0,0,0-.45-.1Z" fill="#fff"/><path d="M42.5,30a.54.54,0,0,1,.22.05l14,7a.51.51,0,0,1,.28.45v17a.52.52,0,0,1-.24.43.59.59,0,0,1-.26.07.54.54,0,0,1-.22,0l-14-7A.51.51,0,0,1,42,47.5v-17a.52.52,0,0,1,.24-.43A.48.48,0,0,1,42.5,30M56,53.69V37.81l-13-6.5V47.19l13,6.5M42.5,29a1.57,1.57,0,0,0-.79.22A1.5,1.5,0,0,0,41,30.5v17a1.5,1.5,0,0,0,.83,1.34l14,7a1.57,1.57,0,0,0,.67.16,1.5,1.5,0,0,0,.78-.22A1.48,1.48,0,0,0,58,54.5v-17a1.5,1.5,0,0,0-.83-1.34l-14-7A1.44,1.44,0,0,0,42.5,29ZM44,46.57V32.93l11,5.5V52.07l-11-5.5Z" fill="#fff"/></g><polygon points="42.5 30.5 42.5 47.5 56.5 54.5 56.5 37.5 42.5 30.5" stroke="#333332" stroke-linecap="round" stroke-linejoin="round" fill="url(#linear-gradient-4)"/><path d="M45.5,46.5v-4s.5-1.5,4,0,4,4,4,4v4Z" fill="#333332" stroke="#333332" stroke-miterlimit="10"/><ellipse cx="49.5" cy="39" rx="2.2" ry="3.2" transform="translate(-11.4 55.19) rotate(-53.12)" fill="#333332" stroke="#333332" stroke-miterlimit="10"/></g><g id="Layer_16" data-name="Layer 16"><polyline points="22.5 30.5 22.5 32.5 24.5 32.5 24.5 30.5" fill="none" stroke="#161616" stroke-linecap="round" stroke-miterlimit="10"/><line x1="23.5" y1="32.5" x2="23.5" y2="34.5" fill="none" stroke="#161616" stroke-linecap="round" stroke-miterlimit="10"/><path d="M18.23,38A12.47,12.47,0,0,1,16.5,36.5a12.86,12.86,0,0,1,2.27.46c.57.15,1.13.35,1.68.55a34.63,34.63,0,0,1,4.18-1.84c.78-.27,1.57-.52,2.38-.72a15.42,15.42,0,0,1,2.49-.45,15.41,15.41,0,0,1-2,1.55c-.69.47-1.4.88-2.12,1.28a33.5,33.5,0,0,1-4.5,2l-.13.05a.78.78,0,0,1-.65-.06C19.46,38.92,18.83,38.51,18.23,38Zm8.63,2.75a.59.59,0,0,0-.43-.08l-.18,0L26,40.8l.9-.53A21,21,0,0,0,30.5,37.5a20.5,20.5,0,0,0-4.39,1.23c-.69.28-1.38.56-2.05.88s-1.23.61-1.83.94c-1.07.05-2.15.14-3.23.26a25.46,25.46,0,0,0-3.5.69,25.46,25.46,0,0,0,3.5.69c.62.07,1.24.13,1.86.17l-.66.25-.09,0a.89.89,0,0,0-.34.27c-.63.87-1.22,1.76-1.78,2.68A22.12,22.12,0,0,0,16.5,48.5,24.39,24.39,0,0,0,19,46.41c.7-.67,1.36-1.37,2-2.08.95-.27,1.88-.56,2.8-.89.5-.18,1-.36,1.48-.57s.84-.33,1.25-.52c.57.21,1.15.42,1.73.6a20.17,20.17,0,0,0,2.23.55,20,20,0,0,0-1.77-1.45C28.11,41.61,27.49,41.18,26.86,40.79Z" fill="#161616"/><ellipse cx="23.5" cy="40.5" rx="6" ry="4" transform="translate(-19.21 59.69) rotate(-84.07)" stroke="#053755" stroke-linecap="round" stroke-linejoin="round" fill="url(#linear-gradient-5)"/><path d="M27.4,38.5c-.4-2.18-1.65-3.8-3.28-4-2.2-.23-4.26,2.26-4.6,5.56l0,.41h2a2.17,2.17,0,0,0,2,1c2,0,3-3,3-3Z" stroke="#003755" stroke-linecap="round" stroke-linejoin="round" fill="url(#linear-gradient-6)"/><path d="M20.5,20.5S19,24,21,26s5,1,5,1l4,4s-1,3,1,5c2.5,2.5,6,1,6,1l-3.5-3.5v-2h2l3,3s1-3-1-5-5-1-5-1l-4-4s1-3-1-5c-1.27-1.27-2.5-1.5-5-1l3,3v2h-2Z" stroke="#053755" stroke-linecap="round" stroke-linejoin="round" fill="url(#linear-gradient-5)"/></g></svg>