<svg xmlns="http://www.w3.org/2000/svg" xmlns:xlink="http://www.w3.org/1999/xlink" viewBox="0 0 64 64"><defs><linearGradient id="linear-gradient" x1="25.15" y1="11.68" x2="42.79" y2="42.24" gradientUnits="userSpaceOnUse"><stop offset="0" stop-color="#f5f6f6"/><stop offset="0.99" stop-color="#d2d3d3"/></linearGradient><linearGradient id="linear-gradient-2" x1="32.36" y1="13.92" x2="36.08" y2="20.38" xlink:href="#linear-gradient"/><linearGradient id="linear-gradient-3" x1="22.68" y1="20.92" x2="19.32" y2="15.08" gradientUnits="userSpaceOnUse"><stop offset="0" stop-color="#2a5b79"/><stop offset="1" stop-color="#3388b0"/></linearGradient><linearGradient id="linear-gradient-4" x1="28.25" y1="22.8" x2="26.75" y2="20.2" xlink:href="#linear-gradient-3"/><linearGradient id="linear-gradient-5" x1="43.38" y1="29.52" x2="40.76" y2="24.98" xlink:href="#linear-gradient-3"/><linearGradient id="linear-gradient-7" x1="25.01" y1="42.34" x2="19.53" y2="32.85" gradientUnits="userSpaceOnUse"><stop offset="0" stop-color="#161616"/><stop offset="1" stop-color="#515151"/></linearGradient><linearGradient id="linear-gradient-8" x1="35.68" y1="34.44" x2="34.32" y2="32.06" xlink:href="#linear-gradient-7"/><linearGradient id="linear-gradient-9" x1="32.68" y1="31.44" x2="31.32" y2="29.06" xlink:href="#linear-gradient-7"/><linearGradient id="linear-gradient-10" x1="24.6" y1="30.1" x2="23.9" y2="28.9" xlink:href="#linear-gradient-7"/><linearGradient id="linear-gradient-11" x1="21.64" y1="27.86" x2="20.86" y2="26.5" xlink:href="#linear-gradient-7"/><linearGradient id="linear-gradient-12" x1="13.13" y1="28.38" x2="21.18" y2="36.43" gradientUnits="userSpaceOnUse"><stop offset="0" stop-color="#fa3c05"/><stop offset="1" stop-color="#c81400"/></linearGradient><linearGradient id="linear-gradient-13" x1="34.11" y1="46.36" x2="29.18" y2="37.82" xlink:href="#linear-gradient-7"/><linearGradient id="linear-gradient-14" x1="39.55" y1="43.82" x2="37.47" y2="40.21" xlink:href="#linear-gradient-7"/></defs><title>ENOWCLI_AP_AppIcon</title><g id="Layer_7_copy" data-name="Layer 7 copy"><polygon points="11.5 14.5 16.59 25.34 56.5 37.5 40.5 18.5 29.5 14.5 11.5 14.5" stroke="#333332" stroke-linecap="round" stroke-linejoin="round" fill="url(#linear-gradient)"/><polygon points="29.5 14.5 29.5 18.5 40.5 18.5 29.5 14.5" stroke="#333332" stroke-linecap="round" stroke-linejoin="round" fill="url(#linear-gradient-2)"/><polygon points="25 17 16 17 17 19 26 19 25 17 25 17" fill="url(#linear-gradient-3)"/><path d="M27.5,20A1.5,1.5,0,1,0,29,21.5,1.5,1.5,0,0,0,27.5,20Z" fill="url(#linear-gradient-4)"/><polygon points="39 26 44 26 46 28 39 28 39 26" fill="url(#linear-gradient-5)"/><polygon points="7.5 26.5 30.5 50.5 56.5 37.5 36.5 22.5 21.5 22.5 7.5 26.5" stroke="#333332" stroke-linecap="round" stroke-linejoin="round" fill="url(#linear-gradient)"/><polygon points="21.5 22.5 26.5 26.5 36.5 22.5 21.5 22.5" fill="none" stroke="#333332" stroke-linecap="round" stroke-linejoin="round"/></g><g id="Layer_7" data-name="Layer 7"><polygon points="17 37 23 43.5 23 39 28 39 21 32 17 35 17 37" fill-rule="evenodd" fill="url(#linear-gradient-7)"/><line x1="28.5" y1="36" x2="41.5" y2="30.5" fill="none" stroke-linecap="round" stroke-linejoin="round" stroke="url(#linear-gradient-8)"/><line x1="25.5" y1="33" x2="38.5" y2="27.5" fill="none" stroke-linecap="round" stroke-linejoin="round" stroke="url(#linear-gradient-9)"/><line x1="23" y1="30" x2="25.5" y2="29" fill="none" stroke-linecap="round" stroke-linejoin="round" stroke="url(#linear-gradient-10)"/><line x1="19.5" y1="27.86" x2="23" y2="26.5" fill="none" stroke-linecap="round" stroke-linejoin="round" stroke="url(#linear-gradient-11)"/><ellipse cx="17" cy="32.25" rx="6.5" ry="4.75" stroke="#831300" stroke-linecap="round" stroke-linejoin="round" fill="url(#linear-gradient-12)"/><path d="M28,44a2.23,2.23,0,0,1,2-1.5L32,47l.5-10.5s1-1,1,2" fill="none" stroke-linecap="round" stroke-linejoin="round" fill-rule="evenodd" stroke="url(#linear-gradient-13)"/><polyline points="34.5 42.5 34.5 44.5 35.5 44 35.5 45 36.5 45 36.5 41.5 38.5 43.5 42.5 39.5" fill="none" stroke-linecap="round" stroke-linejoin="round" fill-rule="evenodd" stroke="url(#linear-gradient-14)"/><g opacity="0.45"><path d="M43,31.31l13,6.5V53.69l-13-6.5V31.31m0-1a1,1,0,0,0-.53.15,1,1,0,0,0-.47.85V47.19a1,1,0,0,0,.55.9l13,6.5a1,1,0,0,0,1-.05,1,1,0,0,0,.47-.85V37.81a1,1,0,0,0-.55-.9l-13-6.5a1,1,0,0,0-.45-.1Z" fill="#fff"/><path d="M42.5,30a.54.54,0,0,1,.22.05l14,7a.51.51,0,0,1,.28.45v17a.52.52,0,0,1-.24.43.59.59,0,0,1-.26.07.54.54,0,0,1-.22,0l-14-7A.51.51,0,0,1,42,47.5v-17a.52.52,0,0,1,.24-.43A.48.48,0,0,1,42.5,30M56,53.69V37.81l-13-6.5V47.19l13,6.5M42.5,29a1.57,1.57,0,0,0-.79.22A1.5,1.5,0,0,0,41,30.5v17a1.5,1.5,0,0,0,.83,1.34l14,7a1.57,1.57,0,0,0,.67.16,1.5,1.5,0,0,0,.78-.22A1.48,1.48,0,0,0,58,54.5v-17a1.5,1.5,0,0,0-.83-1.34l-14-7A1.44,1.44,0,0,0,42.5,29ZM44,46.57V32.93l11,5.5V52.07l-11-5.5Z" fill="#fff"/></g><polygon points="42.5 30.5 42.5 47.5 56.5 54.5 56.5 37.5 42.5 30.5" stroke="#333332" stroke-linecap="round" stroke-linejoin="round" fill="url(#linear-gradient)"/><path d="M45.5,46.5v-4s.5-1.5,4,0,4,4,4,4v4Z" fill="#333332" stroke="#333332" stroke-miterlimit="10"/><ellipse cx="49.5" cy="39" rx="2.2" ry="3.2" transform="translate(-11.4 55.19) rotate(-53.12)" fill="#333332" stroke="#333332" stroke-miterlimit="10"/></g></svg>