<svg id="Layer_16" data-name="Layer 16" xmlns="http://www.w3.org/2000/svg" xmlns:xlink="http://www.w3.org/1999/xlink" viewBox="0 0 64 64"><defs><linearGradient id="linear-gradient" x1="11.07" y1="14.3" x2="25.99" y2="40.15" gradientUnits="userSpaceOnUse"><stop offset="0" stop-color="#f5f6f6"/><stop offset="0.99" stop-color="#d2d3d3"/></linearGradient><linearGradient id="linear-gradient-2" x1="14.07" y1="17.3" x2="28.99" y2="43.15" xlink:href="#linear-gradient"/><linearGradient id="linear-gradient-3" x1="17.07" y1="20.3" x2="31.99" y2="46.15" xlink:href="#linear-gradient"/><linearGradient id="linear-gradient-4" x1="21.35" y1="26.59" x2="18.25" y2="21.22" gradientUnits="userSpaceOnUse"><stop offset="0" stop-color="#161616"/><stop offset="1" stop-color="#515151"/></linearGradient><linearGradient id="linear-gradient-7" x1="32.03" y1="42.29" x2="29.97" y2="38.71" xlink:href="#linear-gradient-4"/><linearGradient id="linear-gradient-8" x1="32.14" y1="32.73" x2="29.86" y2="28.77" xlink:href="#linear-gradient-4"/><linearGradient id="linear-gradient-9" x1="29.34" y1="22.96" x2="27.66" y2="20.04" xlink:href="#linear-gradient-4"/><linearGradient id="linear-gradient-10" x1="43.99" y1="32.96" x2="55.55" y2="52.97" xlink:href="#linear-gradient"/><linearGradient id="linear-gradient-12" x1="30.98" y1="35.59" x2="32.08" y2="37.5" xlink:href="#linear-gradient"/><linearGradient id="linear-gradient-13" x1="37.31" y1="48.51" x2="33.05" y2="41.12" gradientUnits="userSpaceOnUse"><stop offset="0" stop-color="#74c4e2"/><stop offset="1" stop-color="#a4def6"/></linearGradient><linearGradient id="linear-gradient-15" x1="24.98" y1="36.59" x2="26.08" y2="38.5" xlink:href="#linear-gradient"/><linearGradient id="linear-gradient-18" x1="35.8" y1="52.26" x2="33.15" y2="47.67" gradientUnits="userSpaceOnUse"><stop offset="0" stop-color="#386f8d"/><stop offset="1" stop-color="#8dd7f4"/></linearGradient><linearGradient id="linear-gradient-19" x1="29.32" y1="55.38" x2="24.18" y2="46.47" gradientUnits="userSpaceOnUse"><stop offset="0" stop-color="#2a5b79"/><stop offset="1" stop-color="#84bedc"/></linearGradient></defs><title>ENOWMFC_AP_AppIcon</title><polygon points="8.5 46.5 8.5 11.5 26.5 9.5 33.5 16.5 33.5 38.5 8.5 46.5" fill="url(#linear-gradient)"/><polyline points="26.5 9.5 26.5 17.5 33.5 16.5" fill="none" stroke="#787878" stroke-linecap="round" stroke-linejoin="round"/><polygon points="8.5 46.5 8.5 11.5 26.5 9.5 33.5 16.5 33.5 38.5 8.5 46.5" fill="none" stroke="#333332" stroke-linecap="round" stroke-linejoin="round"/><polygon points="11.5 49.5 11.5 14.5 29.5 12.5 36.5 19.5 36.5 41.5 11.5 49.5" fill="url(#linear-gradient-2)"/><polyline points="29.5 12.5 29.5 20.5 36.5 19.5" fill="none" stroke="#787878" stroke-linecap="round" stroke-linejoin="round"/><polygon points="11.5 49.5 11.5 14.5 29.5 12.5 36.5 19.5 36.5 41.5 11.5 49.5" fill="none" stroke="#333332" stroke-linecap="round" stroke-linejoin="round"/><polygon points="14.5 52.5 14.5 17.5 32.5 15.5 39.5 22.5 39.5 44.5 14.5 52.5" fill="url(#linear-gradient-3)"/><polyline points="32.5 15.5 32.5 23.5 39.5 22.5" fill="none" stroke="#787878" stroke-linecap="round" stroke-linejoin="round"/><polygon points="14.5 52.5 14.5 17.5 32.5 15.5 39.5 22.5 39.5 44.5 14.5 52.5" fill="none" stroke="#333332" stroke-linecap="round" stroke-linejoin="round"/><path d="M23.82,22.62l-3-2.5a.5.5,0,0,0-.82.38v1.61l-3.62.9a.51.51,0,0,0-.38.49v2a.49.49,0,0,0,.19.39.51.51,0,0,0,.43.1L20,25.14V26.5a.5.5,0,0,0,.33.47.47.47,0,0,0,.17,0,.52.52,0,0,0,.38-.17l3-3.5A.52.52,0,0,0,24,23,.5.5,0,0,0,23.82,22.62Z" fill-rule="evenodd" fill="url(#linear-gradient-4)"/><path d="M23.82,32.62l-3-2.5a.5.5,0,0,0-.82.38v1.61l-3.62.9a.51.51,0,0,0-.38.49v2a.49.49,0,0,0,.19.39.48.48,0,0,0,.43.09L20,35.14V36.5a.5.5,0,0,0,.33.47.47.47,0,0,0,.17,0,.49.49,0,0,0,.38-.18l3-3.5a.49.49,0,0,0-.06-.7Z" fill-rule="evenodd" fill="url(#linear-gradient-4)"/><path d="M23.82,42.62l-3-2.5a.5.5,0,0,0-.82.38v1.61l-3.62.9a.51.51,0,0,0-.38.49v2a.49.49,0,0,0,.19.39.51.51,0,0,0,.43.1L20,45.14V46.5a.5.5,0,0,0,.33.47.47.47,0,0,0,.17,0,.52.52,0,0,0,.38-.17l3-3.5A.52.52,0,0,0,24,43,.5.5,0,0,0,23.82,42.62Z" fill-rule="evenodd" fill="url(#linear-gradient-4)"/><polygon points="26 43 26 41 36 38 36 40 26 43" fill="url(#linear-gradient-7)"/><polygon points="26 33 26 31 36 28.5 36 30.5 26 33" fill="url(#linear-gradient-8)"/><polygon points="26 23 26 21 31 20 31 22 26 23" fill="url(#linear-gradient-9)"/><g opacity="0.45"><path d="M43,31.31l13,6.5V53.69l-13-6.5V31.31m0-1a1,1,0,0,0-.53.15,1,1,0,0,0-.47.85V47.19a1,1,0,0,0,.55.9l13,6.5a1,1,0,0,0,1-.05,1,1,0,0,0,.47-.85V37.81a1,1,0,0,0-.55-.9l-13-6.5a1,1,0,0,0-.45-.1Z" fill="#fff"/><path d="M42.5,30a.54.54,0,0,1,.22.05l14,7a.51.51,0,0,1,.28.45v17a.52.52,0,0,1-.24.43.59.59,0,0,1-.26.07.54.54,0,0,1-.22,0l-14-7A.51.51,0,0,1,42,47.5v-17a.52.52,0,0,1,.24-.43A.59.59,0,0,1,42.5,30M56,53.69V37.81l-13-6.5V47.19l13,6.5M42.5,29a1.57,1.57,0,0,0-.79.22A1.5,1.5,0,0,0,41,30.5v17a1.5,1.5,0,0,0,.83,1.34l14,7a1.44,1.44,0,0,0,.67.16,1.5,1.5,0,0,0,.78-.22A1.48,1.48,0,0,0,58,54.5v-17a1.5,1.5,0,0,0-.83-1.34l-14-7A1.44,1.44,0,0,0,42.5,29ZM44,46.57V32.93l11,5.5V52.07l-11-5.5Z" fill="#fff"/></g><polygon points="42.5 30.5 42.5 47.5 56.5 54.5 56.5 37.5 42.5 30.5" stroke="#333332" stroke-linecap="round" stroke-linejoin="round" fill="url(#linear-gradient-10)"/><path d="M45.5,46.5v-4s.5-1.5,4,0,4,4,4,4v4Z" fill="#333332" stroke="#333332" stroke-miterlimit="10"/><ellipse cx="49.5" cy="39" rx="2.2" ry="3.2" transform="translate(-11.4 55.19) rotate(-53.12)" fill="#333332" stroke="#333332" stroke-miterlimit="10"/><rect x="29.5" y="36.5" width="4" height="8.5" stroke="#333332" stroke-linecap="round" stroke-linejoin="round" fill="url(#linear-gradient-10)"/><ellipse cx="31.5" cy="36.5" rx="2" ry="1" stroke="#333332" stroke-linecap="round" stroke-linejoin="round" fill="url(#linear-gradient-12)"/><polygon points="29.5 42.5 33.5 39.5 39.5 44.5 39.5 47.5 36.5 49.5 30.5 44.5 29.5 42.5" stroke="#053755" stroke-linecap="round" stroke-linejoin="round" fill="url(#linear-gradient-13)"/><rect x="23.5" y="37.5" width="4" height="8.5" stroke="#333332" stroke-linecap="round" stroke-linejoin="round" fill="url(#linear-gradient-10)"/><ellipse cx="25.5" cy="37.5" rx="2" ry="1" stroke="#333332" stroke-linecap="round" stroke-linejoin="round" fill="url(#linear-gradient-15)"/><polygon points="26 44 30 41 36 46 36 49 33 51 27 46 26 44" stroke="#053755" stroke-linecap="round" stroke-linejoin="round" fill="url(#linear-gradient-13)"/><polygon points="23.5 44.5 26.5 42.5 32.5 47.5 32.5 50.5 29.5 52.5 23.5 47.5 23.5 44.5" stroke="#053755" stroke-linecap="round" stroke-linejoin="round" fill="url(#linear-gradient-13)"/><polygon points="29.5 55.5 29.5 50.5 32.5 47.5 33.5 48.5 36 46 37 47 39.5 44.5 39.5 50.5 29.5 55.5" stroke="#053755" stroke-linecap="round" stroke-linejoin="round" fill="url(#linear-gradient-18)"/><polygon points="23.5 50.5 23.5 45.5 29.5 50.5 29.5 55.5 23.5 50.5" stroke="#053755" stroke-linecap="round" stroke-linejoin="round" fill="url(#linear-gradient-19)"/><line x1="31.5" y1="53.5" x2="31.5" y2="51.5" fill="none" stroke="#161616" stroke-linecap="round" stroke-miterlimit="10"/><line x1="37.5" y1="50.5" x2="37.5" y2="48.5" fill="none" stroke="#161616" stroke-linecap="round" stroke-miterlimit="10"/><line x1="34.5" y1="52" x2="34.5" y2="50" fill="none" stroke="#161616" stroke-linecap="round" stroke-miterlimit="10"/></svg>