<svg id="Layer_15" data-name="Layer 15" xmlns="http://www.w3.org/2000/svg" xmlns:xlink="http://www.w3.org/1999/xlink" viewBox="0 0 64 64"><defs><linearGradient id="linear-gradient" x1="9.07" y1="14.3" x2="23.99" y2="40.15" gradientUnits="userSpaceOnUse"><stop offset="0" stop-color="#f5f6f6"/><stop offset="0.99" stop-color="#d2d3d3"/></linearGradient><linearGradient id="linear-gradient-2" x1="12.07" y1="17.3" x2="26.99" y2="43.15" xlink:href="#linear-gradient"/><linearGradient id="linear-gradient-3" x1="15.07" y1="20.3" x2="29.99" y2="46.15" xlink:href="#linear-gradient"/><linearGradient id="linear-gradient-4" x1="39.85" y1="25.45" x2="49.57" y2="42.27" gradientTransform="translate(1)" gradientUnits="userSpaceOnUse"><stop offset="0" stop-color="#f5f6f6"/><stop offset="0.99" stop-color="#bfbebe"/></linearGradient><linearGradient id="linear-gradient-6" x1="40.85" y1="25.45" x2="50.57" y2="42.28" gradientUnits="userSpaceOnUse"><stop offset="0" stop-color="#d7d7d7"/><stop offset="1" stop-color="#969696"/></linearGradient><linearGradient id="linear-gradient-7" x1="40.83" y1="25.5" x2="49.82" y2="41.08" gradientUnits="userSpaceOnUse"><stop offset="0" stop-color="#fff"/><stop offset="1" stop-color="#d2d3d3"/></linearGradient><linearGradient id="linear-gradient-8" x1="28.08" y1="42.03" x2="22.65" y2="32.63" gradientUnits="userSpaceOnUse"><stop offset="0" stop-color="#386f8d"/><stop offset="1" stop-color="#8dd7f4"/></linearGradient><linearGradient id="linear-gradient-9" x1="16.96" y1="39.41" x2="20.7" y2="45.87" gradientTransform="translate(53.89 12.12) rotate(72.96)" xlink:href="#linear-gradient-4"/><linearGradient id="linear-gradient-10" x1="17.78" y1="40.63" x2="19.98" y2="44.43" gradientTransform="translate(53.9 12.01) rotate(72.96)" xlink:href="#linear-gradient-4"/><linearGradient id="linear-gradient-11" x1="19.96" y1="22.55" x2="25.94" y2="32.9" xlink:href="#linear-gradient"/><linearGradient id="linear-gradient-12" x1="15.84" y1="21.99" x2="17.94" y2="25.63" gradientUnits="userSpaceOnUse"><stop offset="0" stop-color="#ababab"/><stop offset="1" stop-color="#5b5b5b"/></linearGradient></defs><title>ENOWSUB_AP_AppIcon</title><polygon points="6.5 46.5 6.5 11.5 24.5 9.5 31.5 16.5 31.5 38.5 6.5 46.5" fill="url(#linear-gradient)"/><polyline points="24.5 9.5 24.5 17.5 31.5 16.5" fill="none" stroke="#787878" stroke-linecap="round" stroke-linejoin="round"/><polygon points="6.5 46.5 6.5 11.5 24.5 9.5 31.5 16.5 31.5 38.5 6.5 46.5" fill="none" stroke="#333332" stroke-linecap="round" stroke-linejoin="round"/><polygon points="9.5 49.5 9.5 14.5 27.5 12.5 34.5 19.5 34.5 41.5 9.5 49.5" fill="url(#linear-gradient-2)"/><polyline points="27.5 12.5 27.5 20.5 34.5 19.5" fill="none" stroke="#787878" stroke-linecap="round" stroke-linejoin="round"/><polygon points="9.5 49.5 9.5 14.5 27.5 12.5 34.5 19.5 34.5 41.5 9.5 49.5" fill="none" stroke="#333332" stroke-linecap="round" stroke-linejoin="round"/><polygon points="12.5 52.5 12.5 17.5 30.5 15.5 37.5 22.5 37.5 44.5 12.5 52.5" fill="url(#linear-gradient-3)"/><polyline points="30.5 15.5 30.5 23.5 37.5 22.5" fill="none" stroke="#787878" stroke-linecap="round" stroke-linejoin="round"/><polygon points="12.5 52.5 12.5 17.5 30.5 15.5 37.5 22.5 37.5 44.5 12.5 52.5" fill="none" stroke="#333332" stroke-linecap="round" stroke-linejoin="round"/><path d="M57.5,33.5a12,12,0,1,0-12,12A12,12,0,0,0,57.5,33.5Z" fill="url(#linear-gradient-4)"/><path d="M54.61,25.94a5.56,5.56,0,0,1-.35.64c-.18.32-.49.4-.67.59s-.32.19-.5.34a1.35,1.35,0,0,1-.51.2A1.78,1.78,0,0,0,52,28c-.14.12-.26.26-.46.43s-.4.15-.68,0-.1-.44,0-.5.31,0,.41,0a1.76,1.76,0,0,0,.5,0,.35.35,0,0,0,.24-.27c0-.07-.36-.19-.45-.24s-1-.09-1.15-.17a2,2,0,0,0-.72,0c-.1,0-.09-.13-.48-.07a4.15,4.15,0,0,0-1.14.51,3,3,0,0,0-1.08.86,2.19,2.19,0,0,1-.93.37.33.33,0,0,0-.26.44c0,.15-.13.17,0,.39s.47,0,.61,0,.13,0,.28.08.09.17.26.41.46.07.58,0,.12-.4.26-.4.19-.17.18-.3-.15-.13-.13-.27a4.65,4.65,0,0,1,.93-.9c.1,0,.28-.13.39,0s.11.18,0,.32-.16.14-.37.25-.19.22-.21.43,0,.14.22.17a2.14,2.14,0,0,0,.67-.14c.1,0,.25,0,.29.06s-.11.24-.2.26a4.33,4.33,0,0,0-.78.09c-.18.07,0,.11.06.2s-.17.18-.35.2-.14.19-.18.32a.47.47,0,0,1-.27.28c-.12,0-.34-.18-.46-.13a5.77,5.77,0,0,1-.92.11.23.23,0,0,1-.25-.14c-.05-.1,0-.19,0-.33s-.12-.17-.28,0,0,.36,0,.42-.16.07-.21.14-.34.06-.43.1-.12.23-.24.3a.34.34,0,0,1-.32,0s-.13.06-.2.12a.31.31,0,0,1-.17.11c-.06,0-.31,0-.36,0a.32.32,0,0,1-.22.1c-.09,0-.16,0-.24.05s.1.16.1.16.35.08.37.21,0,.42-.12.46A5.82,5.82,0,0,1,43,32.31a.17.17,0,0,0-.2.22c0,.07.18.44.11.53s-.23.45-.1.5.41,0,.39.07.16.28.25.23a4,4,0,0,0,.78-.45c0-.09,0-.29.08-.3s.42,0,.45-.11-.11-.18.05-.22.3-.15.39-.05.2.13.24,0,.4-.05.47,0a7.39,7.39,0,0,1,1,.81.2.2,0,0,1-.16.19c-.06,0,0,.1,0,.1s.3-.15.32-.37c0,0,0-.11,0-.1a.31.31,0,0,1,.1.08s-.1-.22-.24-.2-.16-.19-.28-.23,0-.11-.12-.24-.21-.16-.15-.18.27,0,.32,0,.66.36.72.55,0,.24.07.31.16.06.16.16-.06.38.09.38.24-.09.34-.11.32,0,.23-.11-.37-.13-.34-.17.12-.22.22-.22.31,0,.32,0a2,2,0,0,0,0,.23c0,.13,0,.2.2.33s.44.13.48.07a.22.22,0,0,1,.28-.12.47.47,0,0,0,.37,0c.13-.06.26-.1.29,0a.57.57,0,0,1,0,.3c0,.08,0,.33-.14.45s-.25.28-.35.36a.66.66,0,0,1-.54.08,2.55,2.55,0,0,1-.93-.17c-.31-.18-.27-.08-.34-.21s-.38,0-.43.12,0,.34-.23.3-.58-.08-.67-.25-.13-.2-.29-.2-.45,0-.4-.24.31-.44.11-.5A6.58,6.58,0,0,0,44,34c-.48.18-.48.07-.57,0s-.23.12-.29.18-.27,0-.37.09-.29.55-.43.61a5.61,5.61,0,0,0-.88.73.63.63,0,0,0-.12.65,1.78,1.78,0,0,1-.11.82c-.09.29,0,.39.26.67a6.2,6.2,0,0,1,.79.93c0,.13.12.14.38.12s.44-.08.57,0a.5.5,0,0,0,.5,0c.08-.08.41-.23.54-.13a1.57,1.57,0,0,0,.53.31c.18,0,.36,0,.39.14s.07.27,0,.38.09.44.26.72c0,0,.23.25.23.41s-.05.27,0,.34.12.16,0,.28-.37.52-.31.69a7.07,7.07,0,0,0,.44.63c.07.15,0,.47.16.57s.29.17.31.33.15.17.45.15a4.41,4.41,0,0,0,1.23-.25c.28-.14.2-.19.35-.3s.37-.28.4-.47.38,0,.41-.06-.14-.49.14-.63.94-.23.82-.76-.13-.74,0-.91.63-.39.69-.57.54-.38,1-1,.63-1.28.38-1.21-.7.53-1.17.46.19-.11-.08-.26a2.37,2.37,0,0,1-.85-1.3c-.27-.73-.55-.92-.32-1s.36.21.46.46a3.16,3.16,0,0,1,.21.7s0,.06.2.1.17.2.19.32.11.3.12.37,0,.34.1.36a1.62,1.62,0,0,0,.61-.23,2.49,2.49,0,0,1,.74-.44c.17,0,.11-.11.2-.15a1,1,0,0,0,.67-.43.88.88,0,0,1,.31-.35c.23-.18.45-.62.29-.64s-.39.08-.41-.05,0-.19-.1-.13,0,.28-.18.33-.41.11-.46,0,0-.28-.24-.31-.19-.09-.2-.24,0-.36.12-.32.2.25.41.3.38.16.57.09.11-.13.35,0,.34,0,.45,0,.23,0,.43-.1a2.53,2.53,0,0,1,.7,0c.09,0,.26.28.38.22s.21.14.19.23A1.3,1.3,0,0,0,56,36c.11.21.2.26.2.4s0,.24.11.24a1.88,1.88,0,0,0,.44-.85,2.93,2.93,0,0,1,.19-.76,5.71,5.71,0,0,0,.51-1c0-.12.06-.21.08-.29s0-.11,0-.16A11.63,11.63,0,0,0,54.61,25.94Zm-3.34,6.93c-.14.15-.11.28-.39.23s-.13,0-.29-.06.12-.16-.23-.1a1.89,1.89,0,0,0-.48.09c-.11,0,0,.16-.29.19s-.16.1-.24,0-.18-.13-.17-.26-.14,0,.07-.24,0-.22.23-.32.06-.24.29-.12.26,0,.38.21.12.11.23,0,.07-.16.22-.27.15-.13.19-.13.26-.05.29.07-.26.21-.27.26-.22,0,.15.18.42.12.41.2S51.41,32.72,51.27,32.87Zm2.29-1.1c-.06.19-.23.18-.32.22s-.22,0-.32.2,0,0,.25.2.2.12.26.28-.24.09,0,.28.07.48-.31.56a.5.5,0,0,1-.55-.2.26.26,0,0,1,.18-.23c.17-.06-.12-.24-.12-.29a.75.75,0,0,0-.16-.28c-.06-.1-.28,0-.35-.31,0-.11.19-.19.38-.2s.06-.2.22-.28a.76.76,0,0,1,.29-.09c.2-.06.07-.12.2-.27s.44.16.44.16A.59.59,0,0,1,53.56,31.77Zm-3.1,10.3c.23-.11.32,0,.22-.15a.62.62,0,0,1-.09-.24s.11-.13.22-.08.09,0,.21-.1.18-.09.24-.23.06-.24.14-.25.11-.11.14,0,.09,0,0,.24-.18.41-.19.44a3.11,3.11,0,0,1-.18.5c-.07.07-.05.11-.2.14s-.27.23-.41.13-.19-.07-.21-.19S50.23,42.19,50.46,42.07Zm6.3-5.52a.43.43,0,0,1-.15-.1s0-.21,0-.24,0-.19.12-.2.08,0,.15,0,0,.2,0,.3S56.87,36.6,56.76,36.55ZM37.14,40.47a.93.93,0,0,0-.44.1s0,.24-.17.22-.24-.12-.3-.09l-.1,0a.43.43,0,0,1-.12.08,11.94,11.94,0,0,1-2.45-6.11c.08.05.16.07.17,0a1.76,1.76,0,0,1,0-.53c.06-.14,0-.21.13-.23a.82.82,0,0,1,.3.09,1.13,1.13,0,0,0,.16.4,2.89,2.89,0,0,0,.38.4c.13.15,0-.27.32.23s.1.27.22.55a1.28,1.28,0,0,0,.45.62,2.16,2.16,0,0,1,.66,1c.12.36.31.33.61.66s.32.3.55.56.46.38.52.52.26.17.11.39-.19,0-.32.32,0,.14-.13.43-.13.34-.26.35A3,3,0,0,1,37.14,40.47Zm5.78-15.78-.2.11s-.06,0,0,.1.12.17,0,.27-.18-.16-.16.1,0,.23,0,.3l-.21.22c-.15.15-.09-.07-.22.24a1.9,1.9,0,0,0-.12.42c-.05.18,0,.18-.11.18h-.25l-.4,0c-.22,0-.37.15-.63,0s-.22,0-.32-.06-.05-.14-.18,0,0,.17-.13.17-.29.13-.5.06-.28-.13-.31,0,0,0-.07.16-.1,0-.25.2.09.3-.16.37l-.25.07a.3.3,0,0,1-.31-.14c-.1-.19,0,0-.1-.19a.73.73,0,0,1-.15-.49c0-.15,0,.09,0-.3s0-.24,0-.44v-.35c0-.19-.1-.2,0-.4s.21-.14.24-.37,0,0,0-.23a2.75,2.75,0,0,0,.09-.28c0-.15.09,0,0-.15l-.05-.11a11.9,11.9,0,0,1,3.6-1.84c-.06.22-.14.66.11.77a2.76,2.76,0,0,1,1,.92.35.35,0,0,0,.38,0c.23-.1.59.14.48.21a1.47,1.47,0,0,1-.5.13C43.07,24.45,43.08,24.62,42.92,24.69Zm6.41.59c-.15,0-.16.08-.12.12a.51.51,0,0,0,.25,0c.08,0,.36,0,.22.17s-.07-.15-.22.05,0,.27-.14.2-.21-.2-.37-.26-.06-.1-.16-.06-.09,0-.22.18-.09.22-.25.2-.35,0-.32-.13a.45.45,0,0,1,.13-.23c0-.06,0-.08-.1-.08s-.24.13-.24,0-.22,0,.05-.21.19-.23.32-.21,0,.08.36,0l.37-.11a1.18,1.18,0,0,1,.38,0,1,1,0,0,0,.52-.05c.13-.05.39-.13.36-.06s0,.28-.2.31A5.29,5.29,0,0,1,49.33,25.28Zm-5.7,5.87c.12,0,.15-.06.21-.07L44,31c.07,0-.09-.07-.12-.13s0-.08,0-.18.1,0,.2-.05.07,0,.1-.08a.24.24,0,0,0-.05-.17s-.12-.12-.19-.21a.75.75,0,0,1-.13-.27.46.46,0,0,1,0-.26c0-.11.09-.12.2-.12s.19,0,.21.09.09.06.2.15.12.15-.09.15-.15.07-.17.15,0,0,.17.15.11.12.12.2.07.08.11.23,0,0,.14.12.14.07.17.16,0,.1-.13.1-.11,0-.14.1a.22.22,0,0,1-.2.12c-.14,0-.14-.07-.27-.1s-.14,0-.28.08-.07.07-.18.07S43.52,31.14,43.63,31.15Zm-.63-.5a.61.61,0,0,1,.21-.28c.07-.07.09-.21.23-.17s.15.05.22,0,0,0,.07,0,0,.13-.06.23-.14.35-.23.37-.19.08-.28,0S43,30.78,43,30.65Zm-6.65-2c-.13-.13-.06,0-.19-.14s0,0-.19-.2a2.15,2.15,0,0,0-.32-.34s-.3,0-.16,0a1.13,1.13,0,0,1,.29.26s-.1,0-.12.2-.1.09,0,.29a1.11,1.11,0,0,0,.16.26l.11.13s.2.19.13.26-.21.05-.31,0-.09.1-.19-.09,0-.13-.13-.24-.2-.16-.24-.16S35,28.88,35,29v.27s-.33.09-.36-.08-.14-.28-.13-.05a1.23,1.23,0,0,1,0,.3c0,.13.08.09,0,.13s-.07.12-.22,0l-.1-.1a11.46,11.46,0,0,1,2.38-3.8c0,.48-.08,1.2-.08,1.34a2.37,2.37,0,0,0,.15.8c.09.19.1.12.1.39s0,.56-.1.58-.21,0-.16.1.25.11.26.18.18.23.12.42,0,.33-.16.3a.49.49,0,0,1-.41-.27c-.11-.17-.31-.12-.19-.32s.17-.33.17-.33S36.48,28.8,36.35,28.67Zm5.36-.6c.07-.11,0-.08,0-.18s0-.06-.16-.13a.22.22,0,0,1-.06-.28c.05-.11.11-.09.27,0l.1.07c.07.06,0,0,.31,0a1.07,1.07,0,0,1,.53.1c.37.13.12.28.12.28a.39.39,0,0,1-.13.18c-.09.06-.24.14-.32.05s-.43,0-.43,0a.68.68,0,0,0-.18.1C41.69,28.3,41.63,28.18,41.71,28.07Z" fill="url(#linear-gradient-4)"/><path d="M57.5,33.5a12,12,0,1,0-12,12A12,12,0,0,0,57.5,33.5Z" stroke="#797979" stroke-linecap="round" stroke-linejoin="round" fill="url(#linear-gradient-6)"/><path d="M54.61,25.94a5.56,5.56,0,0,1-.35.64c-.18.32-.49.4-.67.59s-.32.19-.5.34a1.35,1.35,0,0,1-.51.2A1.78,1.78,0,0,0,52,28c-.14.12-.26.26-.46.43s-.4.15-.68,0-.1-.44,0-.5.31,0,.41,0a1.76,1.76,0,0,0,.5,0,.35.35,0,0,0,.24-.27c0-.07-.36-.19-.45-.24s-1-.09-1.15-.17a2,2,0,0,0-.72,0c-.1,0-.09-.13-.48-.07a4.15,4.15,0,0,0-1.14.51,3,3,0,0,0-1.08.86,2.19,2.19,0,0,1-.93.37.33.33,0,0,0-.26.44c0,.15-.13.17,0,.39s.47,0,.61,0,.13,0,.28.08.09.17.26.41.46.07.58,0,.12-.4.26-.4.19-.17.18-.3-.15-.13-.13-.27a4.65,4.65,0,0,1,.93-.9c.1,0,.28-.13.39,0s.11.18,0,.32-.16.14-.37.25-.19.22-.21.43,0,.14.22.17a2.14,2.14,0,0,0,.67-.14c.1,0,.25,0,.29.06s-.11.24-.2.26a4.33,4.33,0,0,0-.78.09c-.18.07,0,.11.06.2s-.17.18-.35.2-.14.19-.18.32a.47.47,0,0,1-.27.28c-.12,0-.34-.18-.46-.13a5.77,5.77,0,0,1-.92.11.23.23,0,0,1-.25-.14c-.05-.1,0-.19,0-.33s-.12-.17-.28,0,0,.36,0,.42-.16.07-.21.14-.34.06-.43.1-.12.23-.24.3a.34.34,0,0,1-.32,0s-.13.06-.2.12a.31.31,0,0,1-.17.11c-.06,0-.31,0-.36,0a.32.32,0,0,1-.22.1c-.09,0-.16,0-.24.05s.1.16.1.16.35.08.37.21,0,.42-.12.46A5.82,5.82,0,0,1,43,32.31a.17.17,0,0,0-.2.22c0,.07.18.44.11.53s-.23.45-.1.5.41,0,.39.07.16.28.25.23a4,4,0,0,0,.78-.45c0-.09,0-.29.08-.3s.42,0,.45-.11-.11-.18.05-.22.3-.15.39-.05.2.13.24,0,.4-.05.47,0a7.39,7.39,0,0,1,1,.81.2.2,0,0,1-.16.19c-.06,0,0,.1,0,.1s.3-.15.32-.37c0,0,0-.11,0-.1a.31.31,0,0,1,.1.08s-.1-.22-.24-.2-.16-.19-.28-.23,0-.11-.12-.24-.21-.16-.15-.18.27,0,.32,0,.66.36.72.55,0,.24.07.31.16.06.16.16-.06.38.09.38.24-.09.34-.11.32,0,.23-.11-.37-.13-.34-.17.12-.22.22-.22.31,0,.32,0a2,2,0,0,0,0,.23c0,.13,0,.2.2.33s.44.13.48.07a.22.22,0,0,1,.28-.12.47.47,0,0,0,.37,0c.13-.06.26-.1.29,0a.57.57,0,0,1,0,.3c0,.08,0,.33-.14.45s-.25.28-.35.36a.66.66,0,0,1-.54.08,2.55,2.55,0,0,1-.93-.17c-.31-.18-.27-.08-.34-.21s-.38,0-.43.12,0,.34-.23.3-.58-.08-.67-.25-.13-.2-.29-.2-.45,0-.4-.24.31-.44.11-.5A6.58,6.58,0,0,0,44,34c-.48.18-.48.07-.57,0s-.23.12-.29.18-.27,0-.37.09-.29.55-.43.61a5.61,5.61,0,0,0-.88.73.63.63,0,0,0-.12.65,1.78,1.78,0,0,1-.11.82c-.09.29,0,.39.26.67a6.2,6.2,0,0,1,.79.93c0,.13.12.14.38.12s.44-.08.57,0a.5.5,0,0,0,.5,0c.08-.08.41-.23.54-.13a1.57,1.57,0,0,0,.53.31c.18,0,.36,0,.39.14s.07.27,0,.38.09.44.26.72c0,0,.23.25.23.41s-.05.27,0,.34.12.16,0,.28-.37.52-.31.69a7.07,7.07,0,0,0,.44.63c.07.15,0,.47.16.57s.29.17.31.33.15.17.45.15a4.41,4.41,0,0,0,1.23-.25c.28-.14.2-.19.35-.3s.37-.28.4-.47.38,0,.41-.06-.14-.49.14-.63.94-.23.82-.76-.13-.74,0-.91.63-.39.69-.57.54-.38,1-1,.63-1.28.38-1.21-.7.53-1.17.46.19-.11-.08-.26a2.37,2.37,0,0,1-.85-1.3c-.27-.73-.55-.92-.32-1s.36.21.46.46a3.16,3.16,0,0,1,.21.7s0,.06.2.1.17.2.19.32.11.3.12.37,0,.34.1.36a1.62,1.62,0,0,0,.61-.23,2.49,2.49,0,0,1,.74-.44c.17,0,.11-.11.2-.15a1,1,0,0,0,.67-.43.88.88,0,0,1,.31-.35c.23-.18.45-.62.29-.64s-.39.08-.41-.05,0-.19-.1-.13,0,.28-.18.33-.41.11-.46,0,0-.28-.24-.31-.19-.09-.2-.24,0-.36.12-.32.2.25.41.3.38.16.57.09.11-.13.35,0,.34,0,.45,0,.23,0,.43-.1a2.53,2.53,0,0,1,.7,0c.09,0,.26.28.38.22s.21.14.19.23A1.3,1.3,0,0,0,56,36c.11.21.2.26.2.4s0,.24.11.24a1.88,1.88,0,0,0,.44-.85,2.93,2.93,0,0,1,.19-.76,5.71,5.71,0,0,0,.51-1c0-.12.06-.21.08-.29s0-.11,0-.16A11.63,11.63,0,0,0,54.61,25.94Zm-3.34,6.93c-.14.15-.11.28-.39.23s-.13,0-.29-.06.12-.16-.23-.1a1.89,1.89,0,0,0-.48.09c-.11,0,0,.16-.29.19s-.16.1-.24,0-.18-.13-.17-.26-.14,0,.07-.24,0-.22.23-.32.06-.24.29-.12.26,0,.38.21.12.11.23,0,.07-.16.22-.27.15-.13.19-.13.26-.05.29.07-.26.21-.27.26-.22,0,.15.18.42.12.41.2S51.41,32.72,51.27,32.87Zm2.29-1.1c-.06.19-.23.18-.32.22s-.22,0-.32.2,0,0,.25.2.2.12.26.28-.24.09,0,.28.07.48-.31.56a.5.5,0,0,1-.55-.2.26.26,0,0,1,.18-.23c.17-.06-.12-.24-.12-.29a.75.75,0,0,0-.16-.28c-.06-.1-.28,0-.35-.31,0-.11.19-.19.38-.2s.06-.2.22-.28a.76.76,0,0,1,.29-.09c.2-.06.07-.12.2-.27s.44.16.44.16A.59.59,0,0,1,53.56,31.77Zm-3.1,10.3c.23-.11.32,0,.22-.15a.62.62,0,0,1-.09-.24s.11-.13.22-.08.09,0,.21-.1.18-.09.24-.23.06-.24.14-.25.11-.11.14,0,.09,0,0,.24-.18.41-.19.44a3.11,3.11,0,0,1-.18.5c-.07.07-.05.11-.2.14s-.27.23-.41.13-.19-.07-.21-.19S50.23,42.19,50.46,42.07Zm6.3-5.52a.43.43,0,0,1-.15-.1s0-.21,0-.24,0-.19.12-.2.08,0,.15,0,0,.2,0,.3S56.87,36.6,56.76,36.55ZM37.14,40.47a.93.93,0,0,0-.44.1s0,.24-.17.22-.24-.12-.3-.09l-.1,0a.43.43,0,0,1-.12.08,11.94,11.94,0,0,1-2.45-6.11c.08.05.16.07.17,0a1.76,1.76,0,0,1,0-.53c.06-.14,0-.21.13-.23a.82.82,0,0,1,.3.09,1.13,1.13,0,0,0,.16.4,2.89,2.89,0,0,0,.38.4c.13.15,0-.27.32.23s.1.27.22.55a1.28,1.28,0,0,0,.45.62,2.16,2.16,0,0,1,.66,1c.12.36.31.33.61.66s.32.3.55.56.46.38.52.52.26.17.11.39-.19,0-.32.32,0,.14-.13.43-.13.34-.26.35A3,3,0,0,1,37.14,40.47Zm5.78-15.78-.2.11s-.06,0,0,.1.12.17,0,.27-.18-.16-.16.1,0,.23,0,.3l-.21.22c-.15.15-.09-.07-.22.24a1.9,1.9,0,0,0-.12.42c-.05.18,0,.18-.11.18h-.25l-.4,0c-.22,0-.37.15-.63,0s-.22,0-.32-.06-.05-.14-.18,0,0,.17-.13.17-.29.13-.5.06-.28-.13-.31,0,0,0-.07.16-.1,0-.25.2.09.3-.16.37l-.25.07a.3.3,0,0,1-.31-.14c-.1-.19,0,0-.1-.19a.73.73,0,0,1-.15-.49c0-.15,0,.09,0-.3s0-.24,0-.44v-.35c0-.19-.1-.2,0-.4s.21-.14.24-.37,0,0,0-.23a2.75,2.75,0,0,0,.09-.28c0-.15.09,0,0-.15l-.05-.11a11.9,11.9,0,0,1,3.6-1.84c-.06.22-.14.66.11.77a2.76,2.76,0,0,1,1,.92.35.35,0,0,0,.38,0c.23-.1.59.14.48.21a1.47,1.47,0,0,1-.5.13C43.07,24.45,43.08,24.62,42.92,24.69Zm6.41.59c-.15,0-.16.08-.12.12a.51.51,0,0,0,.25,0c.08,0,.36,0,.22.17s-.07-.15-.22.05,0,.27-.14.2-.21-.2-.37-.26-.06-.1-.16-.06-.09,0-.22.18-.09.22-.25.2-.35,0-.32-.13a.45.45,0,0,1,.13-.23c0-.06,0-.08-.1-.08s-.24.13-.24,0-.22,0,.05-.21.19-.23.32-.21,0,.08.36,0l.37-.11a1.18,1.18,0,0,1,.38,0,1,1,0,0,0,.52-.05c.13-.05.39-.13.36-.06s0,.28-.2.31A5.29,5.29,0,0,1,49.33,25.28Zm-5.7,5.87c.12,0,.15-.06.21-.07L44,31c.07,0-.09-.07-.12-.13s0-.08,0-.18.1,0,.2-.05.07,0,.1-.08a.24.24,0,0,0-.05-.17s-.12-.12-.19-.21a.75.75,0,0,1-.13-.27.46.46,0,0,1,0-.26c0-.11.09-.12.2-.12s.19,0,.21.09.09.06.2.15.12.15-.09.15-.15.07-.17.15,0,0,.17.15.11.12.12.2.07.08.11.23,0,0,.14.12.14.07.17.16,0,.1-.13.1-.11,0-.14.1a.22.22,0,0,1-.2.12c-.14,0-.14-.07-.27-.1s-.14,0-.28.08-.07.07-.18.07S43.52,31.14,43.63,31.15Zm-.63-.5a.61.61,0,0,1,.21-.28c.07-.07.09-.21.23-.17s.15.05.22,0,0,0,.07,0,0,.13-.06.23-.14.35-.23.37-.19.08-.28,0S43,30.78,43,30.65Zm-6.65-2c-.13-.13-.06,0-.19-.14s0,0-.19-.2a2.15,2.15,0,0,0-.32-.34s-.3,0-.16,0a1.13,1.13,0,0,1,.29.26s-.1,0-.12.2-.1.09,0,.29a1.11,1.11,0,0,0,.16.26l.11.13s.2.19.13.26-.21.05-.31,0-.09.1-.19-.09,0-.13-.13-.24-.2-.16-.24-.16S35,28.88,35,29v.27s-.33.09-.36-.08-.14-.28-.13-.05a1.23,1.23,0,0,1,0,.3c0,.13.08.09,0,.13s-.07.12-.22,0l-.1-.1a11.46,11.46,0,0,1,2.38-3.8c0,.48-.08,1.2-.08,1.34a2.37,2.37,0,0,0,.15.8c.09.19.1.12.1.39s0,.56-.1.58-.21,0-.16.1.25.11.26.18.18.23.12.42,0,.33-.16.3a.49.49,0,0,1-.41-.27c-.11-.17-.31-.12-.19-.32s.17-.33.17-.33S36.48,28.8,36.35,28.67Zm5.36-.6c.07-.11,0-.08,0-.18s0-.06-.16-.13a.22.22,0,0,1-.06-.28c.05-.11.11-.09.27,0l.1.07c.07.06,0,0,.31,0a1.07,1.07,0,0,1,.53.1c.37.13.12.28.12.28a.39.39,0,0,1-.13.18c-.09.06-.24.14-.32.05s-.43,0-.43,0a.68.68,0,0,0-.18.1C41.69,28.3,41.63,28.18,41.71,28.07Z" stroke="#003755" stroke-linecap="round" stroke-linejoin="round" fill="url(#linear-gradient-7)"/><path d="M57.5,33.5a12,12,0,1,0-12,12A12,12,0,0,0,57.5,33.5Z" fill="none" stroke="#797979" stroke-linecap="round" stroke-linejoin="round"/><path d="M54.61,25.94a5.56,5.56,0,0,1-.35.64c-.18.32-.49.4-.67.59s-.32.19-.5.34a1.35,1.35,0,0,1-.51.2A1.78,1.78,0,0,0,52,28c-.14.12-.26.26-.46.43s-.4.15-.68,0-.1-.44,0-.5.31,0,.41,0a1.76,1.76,0,0,0,.5,0,.35.35,0,0,0,.24-.27c0-.07-.36-.19-.45-.24s-1-.09-1.15-.17a2,2,0,0,0-.72,0c-.1,0-.09-.13-.48-.07a4.15,4.15,0,0,0-1.14.51,3,3,0,0,0-1.08.86,2.19,2.19,0,0,1-.93.37.33.33,0,0,0-.26.44c0,.15-.13.17,0,.39s.47,0,.61,0,.13,0,.28.08.09.17.26.41.46.07.58,0,.12-.4.26-.4.19-.17.18-.3-.15-.13-.13-.27a4.65,4.65,0,0,1,.93-.9c.1,0,.28-.13.39,0s.11.18,0,.32-.16.14-.37.25-.19.22-.21.43,0,.14.22.17a2.14,2.14,0,0,0,.67-.14c.1,0,.25,0,.29.06s-.11.24-.2.26a4.33,4.33,0,0,0-.78.09c-.18.07,0,.11.06.2s-.17.18-.35.2-.14.19-.18.32a.47.47,0,0,1-.27.28c-.12,0-.34-.18-.46-.13a5.77,5.77,0,0,1-.92.11.23.23,0,0,1-.25-.14c-.05-.1,0-.19,0-.33s-.12-.17-.28,0,0,.36,0,.42-.16.07-.21.14-.34.06-.43.1-.12.23-.24.3a.34.34,0,0,1-.32,0s-.13.06-.2.12a.31.31,0,0,1-.17.11c-.06,0-.31,0-.36,0a.32.32,0,0,1-.22.1c-.09,0-.16,0-.24.05s.1.16.1.16.35.08.37.21,0,.42-.12.46A5.82,5.82,0,0,1,43,32.31a.17.17,0,0,0-.2.22c0,.07.18.44.11.53s-.23.45-.1.5.41,0,.39.07.16.28.25.23a4,4,0,0,0,.78-.45c0-.09,0-.29.08-.3s.42,0,.45-.11-.11-.18.05-.22.3-.15.39-.05.2.13.24,0,.4-.05.47,0a7.39,7.39,0,0,1,1,.81.2.2,0,0,1-.16.19c-.06,0,0,.1,0,.1s.3-.15.32-.37c0,0,0-.11,0-.1a.31.31,0,0,1,.1.08s-.1-.22-.24-.2-.16-.19-.28-.23,0-.11-.12-.24-.21-.16-.15-.18.27,0,.32,0,.66.36.72.55,0,.24.07.31.16.06.16.16-.06.38.09.38.24-.09.34-.11.32,0,.23-.11-.37-.13-.34-.17.12-.22.22-.22.31,0,.32,0a2,2,0,0,0,0,.23c0,.13,0,.2.2.33s.44.13.48.07a.22.22,0,0,1,.28-.12.47.47,0,0,0,.37,0c.13-.06.26-.1.29,0a.57.57,0,0,1,0,.3c0,.08,0,.33-.14.45s-.25.28-.35.36a.66.66,0,0,1-.54.08,2.55,2.55,0,0,1-.93-.17c-.31-.18-.27-.08-.34-.21s-.38,0-.43.12,0,.34-.23.3-.58-.08-.67-.25-.13-.2-.29-.2-.45,0-.4-.24.31-.44.11-.5A6.58,6.58,0,0,0,44,34c-.48.18-.48.07-.57,0s-.23.12-.29.18-.27,0-.37.09-.29.55-.43.61a5.61,5.61,0,0,0-.88.73.63.63,0,0,0-.12.65,1.78,1.78,0,0,1-.11.82c-.09.29,0,.39.26.67a6.2,6.2,0,0,1,.79.93c0,.13.12.14.38.12s.44-.08.57,0a.5.5,0,0,0,.5,0c.08-.08.41-.23.54-.13a1.57,1.57,0,0,0,.53.31c.18,0,.36,0,.39.14s.07.27,0,.38.09.44.26.72c0,0,.23.25.23.41s-.05.27,0,.34.12.16,0,.28-.37.52-.31.69a7.07,7.07,0,0,0,.44.63c.07.15,0,.47.16.57s.29.17.31.33.15.17.45.15a4.41,4.41,0,0,0,1.23-.25c.28-.14.2-.19.35-.3s.37-.28.4-.47.38,0,.41-.06-.14-.49.14-.63.94-.23.82-.76-.13-.74,0-.91.63-.39.69-.57.54-.38,1-1,.63-1.28.38-1.21-.7.53-1.17.46.19-.11-.08-.26a2.37,2.37,0,0,1-.85-1.3c-.27-.73-.55-.92-.32-1s.36.21.46.46a3.16,3.16,0,0,1,.21.7s0,.06.2.1.17.2.19.32.11.3.12.37,0,.34.1.36a1.62,1.62,0,0,0,.61-.23,2.49,2.49,0,0,1,.74-.44c.17,0,.11-.11.2-.15a1,1,0,0,0,.67-.43.88.88,0,0,1,.31-.35c.23-.18.45-.62.29-.64s-.39.08-.41-.05,0-.19-.1-.13,0,.28-.18.33-.41.11-.46,0,0-.28-.24-.31-.19-.09-.2-.24,0-.36.12-.32.2.25.41.3.38.16.57.09.11-.13.35,0,.34,0,.45,0,.23,0,.43-.1a2.53,2.53,0,0,1,.7,0c.09,0,.26.28.38.22s.21.14.19.23A1.3,1.3,0,0,0,56,36c.11.21.2.26.2.4s0,.24.11.24a1.88,1.88,0,0,0,.44-.85,2.93,2.93,0,0,1,.19-.76,5.71,5.71,0,0,0,.51-1c0-.12.06-.21.08-.29s0-.11,0-.16A11.63,11.63,0,0,0,54.61,25.94Zm-3.34,6.93c-.14.15-.11.28-.39.23s-.13,0-.29-.06.12-.16-.23-.1a1.89,1.89,0,0,0-.48.09c-.11,0,0,.16-.29.19s-.16.1-.24,0-.18-.13-.17-.26-.14,0,.07-.24,0-.22.23-.32.06-.24.29-.12.26,0,.38.21.12.11.23,0,.07-.16.22-.27.15-.13.19-.13.26-.05.29.07-.26.21-.27.26-.22,0,.15.18.42.12.41.2S51.41,32.72,51.27,32.87Zm2.29-1.1c-.06.19-.23.18-.32.22s-.22,0-.32.2,0,0,.25.2.2.12.26.28-.24.09,0,.28.07.48-.31.56a.5.5,0,0,1-.55-.2.26.26,0,0,1,.18-.23c.17-.06-.12-.24-.12-.29a.75.75,0,0,0-.16-.28c-.06-.1-.28,0-.35-.31,0-.11.19-.19.38-.2s.06-.2.22-.28a.76.76,0,0,1,.29-.09c.2-.06.07-.12.2-.27s.44.16.44.16A.59.59,0,0,1,53.56,31.77Zm-3.1,10.3c.23-.11.32,0,.22-.15a.62.62,0,0,1-.09-.24s.11-.13.22-.08.09,0,.21-.1.18-.09.24-.23.06-.24.14-.25.11-.11.14,0,.09,0,0,.24-.18.41-.19.44a3.11,3.11,0,0,1-.18.5c-.07.07-.05.11-.2.14s-.27.23-.41.13-.19-.07-.21-.19S50.23,42.19,50.46,42.07Zm6.3-5.52a.43.43,0,0,1-.15-.1s0-.21,0-.24,0-.19.12-.2.08,0,.15,0,0,.2,0,.3S56.87,36.6,56.76,36.55ZM37.14,40.47a.93.93,0,0,0-.44.1s0,.24-.17.22-.24-.12-.3-.09l-.1,0a.43.43,0,0,1-.12.08,11.94,11.94,0,0,1-2.45-6.11c.08.05.16.07.17,0a1.76,1.76,0,0,1,0-.53c.06-.14,0-.21.13-.23a.82.82,0,0,1,.3.09,1.13,1.13,0,0,0,.16.4,2.89,2.89,0,0,0,.38.4c.13.15,0-.27.32.23s.1.27.22.55a1.28,1.28,0,0,0,.45.62,2.16,2.16,0,0,1,.66,1c.12.36.31.33.61.66s.32.3.55.56.46.38.52.52.26.17.11.39-.19,0-.32.32,0,.14-.13.43-.13.34-.26.35A3,3,0,0,1,37.14,40.47Zm5.78-15.78-.2.11s-.06,0,0,.1.12.17,0,.27-.18-.16-.16.1,0,.23,0,.3l-.21.22c-.15.15-.09-.07-.22.24a1.9,1.9,0,0,0-.12.42c-.05.18,0,.18-.11.18h-.25l-.4,0c-.22,0-.37.15-.63,0s-.22,0-.32-.06-.05-.14-.18,0,0,.17-.13.17-.29.13-.5.06-.28-.13-.31,0,0,0-.07.16-.1,0-.25.2.09.3-.16.37l-.25.07a.3.3,0,0,1-.31-.14c-.1-.19,0,0-.1-.19a.73.73,0,0,1-.15-.49c0-.15,0,.09,0-.3s0-.24,0-.44v-.35c0-.19-.1-.2,0-.4s.21-.14.24-.37,0,0,0-.23a2.75,2.75,0,0,0,.09-.28c0-.15.09,0,0-.15l-.05-.11a11.9,11.9,0,0,1,3.6-1.84c-.06.22-.14.66.11.77a2.76,2.76,0,0,1,1,.92.35.35,0,0,0,.38,0c.23-.1.59.14.48.21a1.47,1.47,0,0,1-.5.13C43.07,24.45,43.08,24.62,42.92,24.69Zm6.41.59c-.15,0-.16.08-.12.12a.51.51,0,0,0,.25,0c.08,0,.36,0,.22.17s-.07-.15-.22.05,0,.27-.14.2-.21-.2-.37-.26-.06-.1-.16-.06-.09,0-.22.18-.09.22-.25.2-.35,0-.32-.13a.45.45,0,0,1,.13-.23c0-.06,0-.08-.1-.08s-.24.13-.24,0-.22,0,.05-.21.19-.23.32-.21,0,.08.36,0l.37-.11a1.18,1.18,0,0,1,.38,0,1,1,0,0,0,.52-.05c.13-.05.39-.13.36-.06s0,.28-.2.31A5.29,5.29,0,0,1,49.33,25.28Zm-5.7,5.87c.12,0,.15-.06.21-.07L44,31c.07,0-.09-.07-.12-.13s0-.08,0-.18.1,0,.2-.05.07,0,.1-.08a.24.24,0,0,0-.05-.17s-.12-.12-.19-.21a.75.75,0,0,1-.13-.27.46.46,0,0,1,0-.26c0-.11.09-.12.2-.12s.19,0,.21.09.09.06.2.15.12.15-.09.15-.15.07-.17.15,0,0,.17.15.11.12.12.2.07.08.11.23,0,0,.14.12.14.07.17.16,0,.1-.13.1-.11,0-.14.1a.22.22,0,0,1-.2.12c-.14,0-.14-.07-.27-.1s-.14,0-.28.08-.07.07-.18.07S43.52,31.14,43.63,31.15Zm-.63-.5a.61.61,0,0,1,.21-.28c.07-.07.09-.21.23-.17s.15.05.22,0,0,0,.07,0,0,.13-.06.23-.14.35-.23.37-.19.08-.28,0S43,30.78,43,30.65Zm-6.65-2c-.13-.13-.06,0-.19-.14s0,0-.19-.2a2.15,2.15,0,0,0-.32-.34s-.3,0-.16,0a1.13,1.13,0,0,1,.29.26s-.1,0-.12.2-.1.09,0,.29a1.11,1.11,0,0,0,.16.26l.11.13s.2.19.13.26-.21.05-.31,0-.09.1-.19-.09,0-.13-.13-.24-.2-.16-.24-.16S35,28.88,35,29v.27s-.33.09-.36-.08-.14-.28-.13-.05a1.23,1.23,0,0,1,0,.3c0,.13.08.09,0,.13s-.07.12-.22,0l-.1-.1a11.46,11.46,0,0,1,2.38-3.8c0,.48-.08,1.2-.08,1.34a2.37,2.37,0,0,0,.15.8c.09.19.1.12.1.39s0,.56-.1.58-.21,0-.16.1.25.11.26.18.18.23.12.42,0,.33-.16.3a.49.49,0,0,1-.41-.27c-.11-.17-.31-.12-.19-.32s.17-.33.17-.33S36.48,28.8,36.35,28.67Zm5.36-.6c.07-.11,0-.08,0-.18s0-.06-.16-.13a.22.22,0,0,1-.06-.28c.05-.11.11-.09.27,0l.1.07c.07.06,0,0,.31,0a1.07,1.07,0,0,1,.53.1c.37.13.12.28.12.28a.39.39,0,0,1-.13.18c-.09.06-.24.14-.32.05s-.43,0-.43,0a.68.68,0,0,0-.18.1C41.69,28.3,41.63,28.18,41.71,28.07Z" fill="none" stroke="#797979" stroke-linecap="round" stroke-linejoin="round"/><circle cx="45.5" cy="33.5" r="12" fill="none" stroke="#333332" stroke-linecap="round" stroke-linejoin="round"/><path d="M23,43.5s5.5-2.5,5.5-11h-3s0,5-3,7Z" stroke="#053755" stroke-linecap="round" stroke-linejoin="round" fill="url(#linear-gradient-8)"/><ellipse cx="18.75" cy="42.5" rx="5" ry="4.25" transform="translate(-27.38 47.97) rotate(-72.96)" stroke="#323232" stroke-linecap="round" stroke-linejoin="round" fill="url(#linear-gradient-9)"/><ellipse cx="18.83" cy="42.45" rx="2.94" ry="2.5" transform="translate(-27.27 48.02) rotate(-72.96)" stroke="#323232" stroke-linecap="round" stroke-linejoin="round" fill="url(#linear-gradient-10)"/><path d="M14.5,24s-1.5,8.5,11,8.5h3v-7s0-3.5-2-4.5c-2.41-1.2-3,1-3,1l2,3.5v4S19,29.5,18,26C16.89,22.12,14.5,24,14.5,24Z" stroke="#333332" stroke-linecap="round" stroke-linejoin="round" fill="url(#linear-gradient-11)"/><circle cx="17" cy="24" r="2.5" stroke="#333332" stroke-linecap="round" stroke-linejoin="round" fill="url(#linear-gradient-12)"/><circle cx="24" cy="21" r="2.5" stroke="#333332" stroke-linecap="round" stroke-linejoin="round" fill="url(#linear-gradient-12)"/><polygon points="42.5 29.5 37.5 24.5 36.5 24.5 36.5 27.5 30.5 27.5 30.5 32.5 36.5 32.5 36.5 35.5 37.5 35.5 42.5 30.5 42.5 29.5" stroke="#053755" stroke-linecap="round" stroke-linejoin="round" fill="url(#linear-gradient-8)"/><g opacity="0.45"><path d="M43,31.31l13,6.5V53.69l-13-6.5V31.31m0-1a1,1,0,0,0-.53.15,1,1,0,0,0-.47.85V47.19a1,1,0,0,0,.55.9l13,6.5a1,1,0,0,0,1-.05,1,1,0,0,0,.47-.85V37.81a1,1,0,0,0-.55-.9l-13-6.5a1,1,0,0,0-.45-.1Z" fill="#fff"/><path d="M42.5,30a.54.54,0,0,1,.22.05l14,7a.51.51,0,0,1,.28.45v17a.52.52,0,0,1-.24.43.59.59,0,0,1-.26.07.54.54,0,0,1-.22,0l-14-7A.51.51,0,0,1,42,47.5v-17a.52.52,0,0,1,.24-.43A.48.48,0,0,1,42.5,30M56,53.69V37.81l-13-6.5V47.19l13,6.5M42.5,29a1.57,1.57,0,0,0-.79.22A1.5,1.5,0,0,0,41,30.5v17a1.5,1.5,0,0,0,.83,1.34l14,7a1.57,1.57,0,0,0,.67.16,1.5,1.5,0,0,0,.78-.22A1.48,1.48,0,0,0,58,54.5v-17a1.5,1.5,0,0,0-.83-1.34l-14-7A1.44,1.44,0,0,0,42.5,29ZM44,46.57V32.93l11,5.5V52.07l-11-5.5Z" fill="#fff"/></g><polygon points="42.5 30.5 42.5 47.5 56.5 54.5 56.5 37.5 42.5 30.5" stroke="#333332" stroke-linecap="round" stroke-linejoin="round" fill="url(#linear-gradient-11)"/><path d="M45.5,46.5v-4s.5-1.5,4,0,4,4,4,4v4Z" fill="#333332" stroke="#333332" stroke-miterlimit="10"/><ellipse cx="49.5" cy="39" rx="2.2" ry="3.2" transform="translate(-11.4 55.19) rotate(-53.12)" fill="#333332" stroke="#333332" stroke-miterlimit="10"/></svg>