<?xml version="1.0" encoding="utf-8"?>
<!-- Generator: Adobe Illustrator 25.2.3, SVG Export Plug-In . SVG Version: 6.00 Build 0)  -->
<svg version="1.1" id="Layer_1" xmlns="http://www.w3.org/2000/svg" xmlns:xlink="http://www.w3.org/1999/xlink" x="0px" y="0px"
	 viewBox="0 0 64 64" style="enable-background:new 0 0 64 64;" xml:space="preserve">
<style type="text/css">
	.White_x0020_SINGLE{fill:url(#SVGID_1_);stroke:#323232;stroke-linejoin:round;stroke-miterlimit:10;}
	.White_x0020_SINGLE_x0020_2{fill:url(#SVGID_2_);stroke:#323232;stroke-linejoin:round;stroke-miterlimit:10;}
	
		.Blue_x0020_RIGHT_x002C__x0020_FRONT_x0020__x0026__x0020_SINGLE_x0020_2{fill:url(#SVGID_3_);stroke:#053755;stroke-linejoin:round;stroke-miterlimit:10;}
	.White_x0020_SINGLE_x0020_4{fill:url(#SVGID_4_);stroke:#323232;stroke-linejoin:round;stroke-miterlimit:10;}
	.st0{fill:url(#SVGID_5_);stroke:#323232;stroke-linejoin:round;stroke-miterlimit:10;}
	.st1{fill:url(#SVGID_6_);stroke:#323232;stroke-linejoin:round;stroke-miterlimit:10;}
	.st2{fill:url(#SVGID_7_);stroke:#323232;stroke-linejoin:round;stroke-miterlimit:10;}
	.st3{fill:url(#SVGID_8_);stroke:#323232;stroke-linejoin:round;stroke-miterlimit:10;}
	.st4{fill:url(#SVGID_9_);stroke:#323232;stroke-linejoin:round;stroke-miterlimit:10;}
	.st5{fill:url(#SVGID_10_);stroke:#053755;stroke-linejoin:round;stroke-miterlimit:10;}
	.st6{fill:url(#SVGID_11_);stroke:#063755;stroke-linejoin:round;stroke-miterlimit:10;}
	.st7{fill:url(#SVGID_12_);stroke:#063755;stroke-linejoin:round;stroke-miterlimit:10;}
</style>
<linearGradient id="SVGID_1_" gradientUnits="userSpaceOnUse" x1="-157" y1="-41" x2="-156.5" y2="-40.134">
	<stop  offset="0" style="stop-color:#FFFFFF"/>
	<stop  offset="1" style="stop-color:#D4D5D3"/>
</linearGradient>
<linearGradient id="SVGID_2_" gradientUnits="userSpaceOnUse" x1="-157" y1="-41" x2="-156.5" y2="-40.134">
	<stop  offset="0" style="stop-color:#FFFFFF"/>
	<stop  offset="1" style="stop-color:#D4D5D3"/>
</linearGradient>
<linearGradient id="SVGID_3_" gradientUnits="userSpaceOnUse" x1="-157" y1="-41" x2="-156.5" y2="-40.134">
	<stop  offset="0" style="stop-color:#8DD7F4"/>
	<stop  offset="1" style="stop-color:#386E8C"/>
</linearGradient>
<linearGradient id="SVGID_4_" gradientUnits="userSpaceOnUse" x1="-157" y1="-41" x2="-156.5" y2="-40.134">
	<stop  offset="0" style="stop-color:#FFFFFF"/>
	<stop  offset="1" style="stop-color:#D4D5D3"/>
</linearGradient>
<linearGradient id="SVGID_5_" gradientUnits="userSpaceOnUse" x1="22.9764" y1="26.5344" x2="39.4722" y2="55.1059">
	<stop  offset="0" style="stop-color:#FFFFFF"/>
	<stop  offset="1" style="stop-color:#D4D5D3"/>
</linearGradient>
<path class="st0" d="M45.6,36.52c-1.49-3.78-4.42-6.77-8.1-8.3l0.01-3.71H26.5l-0.01,3.71c-7.75,3.21-11.37,12.45-7.79,20.31
	c3.12,6.87,11.29,10.45,18.42,7.73C44.89,53.28,48.7,44.35,45.6,36.52z"/>
<linearGradient id="SVGID_6_" gradientUnits="userSpaceOnUse" x1="35.7498" y1="6.8346" x2="38.2502" y2="11.1654">
	<stop  offset="0" style="stop-color:#FFFFFF"/>
	<stop  offset="1" style="stop-color:#D4D5D3"/>
</linearGradient>
<circle class="st1" cx="37" cy="9" r="2.5"/>
<linearGradient id="SVGID_7_" gradientUnits="userSpaceOnUse" x1="30.9998" y1="13.2677" x2="33.0002" y2="16.7323">
	<stop  offset="0" style="stop-color:#FFFFFF"/>
	<stop  offset="1" style="stop-color:#D4D5D3"/>
</linearGradient>
<circle class="st2" cx="32" cy="15" r="2"/>
<linearGradient id="SVGID_8_" gradientUnits="userSpaceOnUse" x1="26.9999" y1="10.6338" x2="28.0001" y2="12.3662">
	<stop  offset="0" style="stop-color:#FFFFFF"/>
	<stop  offset="1" style="stop-color:#D4D5D3"/>
</linearGradient>
<circle class="st3" cx="27.5" cy="11.5" r="1"/>
<linearGradient id="SVGID_9_" gradientUnits="userSpaceOnUse" x1="29.1757" y1="17.1082" x2="34.8243" y2="26.8918">
	<stop  offset="0" style="stop-color:#FFFFFF"/>
	<stop  offset="1" style="stop-color:#D4D5D3"/>
</linearGradient>
<path class="st4" d="M38.77,24.5H25.23c-0.4,0-0.73-0.33-0.73-0.73v-3.54c0-0.4,0.33-0.73,0.73-0.73h13.54
	c0.4,0,0.73,0.33,0.73,0.73v3.54C39.5,24.17,39.17,24.5,38.77,24.5z"/>
<linearGradient id="SVGID_10_" gradientUnits="userSpaceOnUse" x1="28.7916" y1="37.5671" x2="36.9997" y2="51.784">
	<stop  offset="0" style="stop-color:#8DD7F4"/>
	<stop  offset="1" style="stop-color:#386E8C"/>
</linearGradient>
<path class="st5" d="M42.37,44.31c-0.82,4.34-4.31,7.85-8.65,8.7c-6.75,1.31-12.71-3.52-13.26-9.89c-0.05-0.56,0.36-1.07,0.91-1.2
	c0,0,3.6-1.71,9.39-3.16c4.49-1.13,9.67-1.42,9.67-1.42c0.58-0.14,1.17,0.18,1.39,0.74C42.55,39.95,42.79,42.09,42.37,44.31z"/>
<linearGradient id="SVGID_11_" gradientUnits="userSpaceOnUse" x1="34.0104" y1="45.5682" x2="36.2912" y2="49.5187">
	<stop  offset="0" style="stop-color:#FFFFFF"/>
	<stop  offset="1" style="stop-color:#D4D5D3"/>
</linearGradient>
<circle class="st6" cx="35.15" cy="47.54" r="2.28"/>
<linearGradient id="SVGID_12_" gradientUnits="userSpaceOnUse" x1="26.4851" y1="42.8928" x2="29.222" y2="47.6333">
	<stop  offset="0" style="stop-color:#FFFFFF"/>
	<stop  offset="1" style="stop-color:#D4D5D3"/>
</linearGradient>
<circle class="st7" cx="27.85" cy="45.26" r="2.74"/>
</svg>
