<svg xmlns="http://www.w3.org/2000/svg" xmlns:xlink="http://www.w3.org/1999/xlink" viewBox="0 0 64 64"><defs><linearGradient id="linear-gradient" x1="16.32" y1="15.29" x2="28.38" y2="36.18" gradientUnits="userSpaceOnUse"><stop offset="0" stop-color="#f5f6f6"/><stop offset="0.99" stop-color="#d2d3d3"/></linearGradient><linearGradient id="linear-gradient-5" x1="38.37" y1="34.51" x2="31.13" y2="21.99" gradientUnits="userSpaceOnUse"><stop offset="0" stop-color="#2a5b79"/><stop offset="1" stop-color="#3388b0"/></linearGradient><linearGradient id="linear-gradient-6" x1="39.4" y1="31.69" x2="34.28" y2="22.83" xlink:href="#linear-gradient-5"/><linearGradient id="linear-gradient-8" x1="22.78" y1="24.61" x2="23.25" y2="25.43" xlink:href="#linear-gradient"/><linearGradient id="linear-gradient-9" x1="22.78" y1="31.61" x2="23.25" y2="32.43" xlink:href="#linear-gradient"/><linearGradient id="linear-gradient-10" x1="22.78" y1="38.61" x2="23.25" y2="39.43" xlink:href="#linear-gradient"/></defs><title>ENOWIMP_AP_AppIcon</title><g id="Layer_8" data-name="Layer 8"><polygon points="6.5 43.5 6.5 17.5 38.5 8.5 38.5 32.5 6.5 43.5" stroke="#333332" stroke-linecap="round" stroke-linejoin="round" fill="url(#linear-gradient)"/><polygon points="9.5 45.5 9.5 19.5 41.5 10.5 41.5 34.5 9.5 45.5" stroke="#333332" stroke-linecap="round" stroke-linejoin="round" fill="url(#linear-gradient)"/><polygon points="12.5 47.5 12.5 21.5 44.5 12.5 44.5 36.5 12.5 47.5" stroke="#333332" stroke-linecap="round" stroke-linejoin="round" fill="url(#linear-gradient)"/></g><g id="Layer_9" data-name="Layer 9"><polyline points="16.5 24.5 17.5 23.5 17.5 28.5" fill="none" stroke="#161616" stroke-linecap="round" stroke-linejoin="round"/><path d="M16.5,31.5a1,1,0,0,1,1-1c1,0,1.12,1.06,1,1.5a20.56,20.56,0,0,1-2,3.5h2" fill="none" stroke="#161616" stroke-linecap="round" stroke-linejoin="round"/><path d="M16.5,37.5h2l-1,2a1.85,1.85,0,0,1,1,1.5c0,1-.5,1.5-2,1.5" fill="none" stroke="#161616" stroke-linecap="round" stroke-linejoin="round"/><path d="M34.75,21.87a6.19,6.19,0,0,1,6,6.38,6.19,6.19,0,0,1-6,6.38,6.19,6.19,0,0,1-6-6.38,6.19,6.19,0,0,1,6-6.38m2.13,10a.41.41,0,0,0,.3-.14.47.47,0,0,0,0-.64l-.6-.65-1.83-1.95V23.24a.44.44,0,0,0-.34-.44l-.09,0a.44.44,0,0,0-.42.46v5.47A.47.47,0,0,0,34,29l2.56,2.73a.41.41,0,0,0,.3.14m-2.13-11a7.19,7.19,0,0,0-7,7.38,7.19,7.19,0,0,0,7,7.38,7.19,7.19,0,0,0,7-7.38,7.19,7.19,0,0,0-7-7.38Z" fill="#fff"/><path d="M34.75,21a7.07,7.07,0,0,1,6.82,7.29,7.07,7.07,0,0,1-6.82,7.29,7.07,7.07,0,0,1-6.82-7.29A7.07,7.07,0,0,1,34.75,21m0,13.67a6.19,6.19,0,0,0,6-6.38,6.19,6.19,0,0,0-6-6.38,6.19,6.19,0,0,0-6,6.38,6.19,6.19,0,0,0,6,6.38m0-14.67a8.08,8.08,0,0,0-7.82,8.29,8.08,8.08,0,0,0,7.82,8.29,8.08,8.08,0,0,0,7.82-8.29A8.08,8.08,0,0,0,34.75,20Zm0,13.67a5.19,5.19,0,0,1-5-5.38,5.19,5.19,0,0,1,5-5.38,5.19,5.19,0,0,1,5,5.38,5.19,5.19,0,0,1-5,5.38Z" fill="#fff"/><path d="M34.75,21a7.07,7.07,0,0,1,6.82,7.29,7.07,7.07,0,0,1-6.82,7.29,7.07,7.07,0,0,1-6.82-7.29A7.07,7.07,0,0,1,34.75,21m0,13.67a6.19,6.19,0,0,0,6-6.38,6.19,6.19,0,0,0-6-6.38,6.19,6.19,0,0,0-6,6.38,6.19,6.19,0,0,0,6,6.38m0-14.67a8.08,8.08,0,0,0-7.82,8.29,8.08,8.08,0,0,0,7.82,8.29,8.08,8.08,0,0,0,7.82-8.29A8.08,8.08,0,0,0,34.75,20Zm0,13.67a5.19,5.19,0,0,1-5-5.38,5.19,5.19,0,0,1,5-5.38,5.19,5.19,0,0,1,5,5.38,5.19,5.19,0,0,1-5,5.38Z" fill="#fff"/><path d="M34.32,22.78l.09,0a.44.44,0,0,1,.34.44v5.28l1.83,1.95.6.65a.47.47,0,0,1,0,.64.39.39,0,0,1-.6,0L34,29a.47.47,0,0,1-.12-.32V23.24a.44.44,0,0,1,.42-.46m0-1a1.44,1.44,0,0,0-1.42,1.46v5.47a1.48,1.48,0,0,0,.39,1l2.56,2.74a1.44,1.44,0,0,0,1,.45,1.42,1.42,0,0,0,1-.45,1.47,1.47,0,0,0,0-2l-.6-.65-1.56-1.67V23.24a1.44,1.44,0,0,0-1.12-1.42,1.36,1.36,0,0,0-.31,0Z" fill="#fff"/><line x1="34.5" y1="18.5" x2="37.5" y2="18.5" fill="none" stroke="#053755" stroke-linecap="round" stroke-linejoin="round"/><rect x="35" y="18.5" width="2" height="2" fill="#053755"/><polyline points="39.5 19.5 40.5 19.5 42.5 21.5 42.5 22.5" fill="none" stroke="#053755" stroke-linecap="round" stroke-miterlimit="10"/><line x1="38.5" y1="23.5" x2="41.5" y2="20.5" fill="none" stroke="#053755" stroke-miterlimit="10" stroke-width="2"/><ellipse cx="34.75" cy="28.25" rx="7.25" ry="7.75" stroke="#333332" stroke-linecap="round" stroke-linejoin="round" fill="url(#linear-gradient)"/><ellipse cx="34.75" cy="28.25" rx="6.4" ry="6.84" fill="none" stroke-linecap="round" stroke-linejoin="round" stroke="url(#linear-gradient-5)"/><path d="M34.75,22.78l-.43,0v5.91l3.59,3.83a5.59,5.59,0,0,0,2-4.29A5.3,5.3,0,0,0,34.75,22.78Z" fill="url(#linear-gradient-6)"/><polyline points="34.32 23.23 34.32 28.71 36.88 31.44" fill="none" stroke="#333332" stroke-linecap="round" stroke-linejoin="round"/></g><g id="Layer_7" data-name="Layer 7"><g opacity="0.45"><path d="M43,31.31l13,6.5V53.69l-13-6.5V31.31m0-1a1,1,0,0,0-.53.15,1,1,0,0,0-.47.85V47.19a1,1,0,0,0,.55.9l13,6.5a1,1,0,0,0,1-.05,1,1,0,0,0,.47-.85V37.81a1,1,0,0,0-.55-.9l-13-6.5a1,1,0,0,0-.45-.1Z" fill="#fff"/><path d="M42.5,30a.54.54,0,0,1,.22.05l14,7a.51.51,0,0,1,.28.45v17a.52.52,0,0,1-.24.43.59.59,0,0,1-.26.07.54.54,0,0,1-.22,0l-14-7A.51.51,0,0,1,42,47.5v-17a.52.52,0,0,1,.24-.43A.59.59,0,0,1,42.5,30M56,53.69V37.81l-13-6.5V47.19l13,6.5M42.5,29a1.57,1.57,0,0,0-.79.22A1.5,1.5,0,0,0,41,30.5v17a1.5,1.5,0,0,0,.83,1.34l14,7a1.44,1.44,0,0,0,.67.16,1.5,1.5,0,0,0,.78-.22A1.48,1.48,0,0,0,58,54.5v-17a1.5,1.5,0,0,0-.83-1.34l-14-7A1.44,1.44,0,0,0,42.5,29ZM44,46.57V32.93l11,5.5V52.07l-11-5.5Z" fill="#fff"/></g><polygon points="42.5 30.5 42.5 47.5 56.5 54.5 56.5 37.5 42.5 30.5" stroke="#333332" stroke-linecap="round" stroke-linejoin="round" fill="url(#linear-gradient)"/><path d="M45.5,46.5v-4s.5-1.5,4,0,4,4,4,4v4Z" fill="#333332" stroke="#333332" stroke-miterlimit="10"/><ellipse cx="49.5" cy="39" rx="2.2" ry="3.2" transform="translate(-11.4 55.19) rotate(-53.12)" fill="#333332" stroke="#333332" stroke-miterlimit="10"/><line x1="21" y1="25.5" x2="25" y2="24.5" stroke="#333332" stroke-linecap="round" stroke-linejoin="round" fill="url(#linear-gradient-8)"/><line x1="21" y1="32.5" x2="25" y2="31.5" stroke="#333332" stroke-linecap="round" stroke-linejoin="round" fill="url(#linear-gradient-9)"/><line x1="21" y1="39.5" x2="25" y2="38.5" stroke="#333332" stroke-linecap="round" stroke-linejoin="round" fill="url(#linear-gradient-10)"/></g></svg>