<svg xmlns="http://www.w3.org/2000/svg" xmlns:xlink="http://www.w3.org/1999/xlink" viewBox="0 0 64 64"><defs><linearGradient id="linear-gradient" x1="11.07" y1="14.3" x2="25.99" y2="40.15" gradientUnits="userSpaceOnUse"><stop offset="0" stop-color="#f5f6f6"/><stop offset="0.99" stop-color="#d2d3d3"/></linearGradient><linearGradient id="linear-gradient-2" x1="14.07" y1="17.3" x2="28.99" y2="43.15" xlink:href="#linear-gradient"/><linearGradient id="linear-gradient-3" x1="17.07" y1="20.3" x2="31.99" y2="46.15" xlink:href="#linear-gradient"/><linearGradient id="linear-gradient-4" x1="43.99" y1="32.96" x2="55.55" y2="52.97" xlink:href="#linear-gradient"/><linearGradient id="linear-gradient-5" x1="29.84" y1="26.51" x2="26.59" y2="20.87" gradientUnits="userSpaceOnUse"><stop offset="0" stop-color="#161616"/><stop offset="1" stop-color="#515151"/></linearGradient><linearGradient id="linear-gradient-6" x1="30.07" y1="32.89" x2="25.37" y2="24.74" xlink:href="#linear-gradient-5"/><linearGradient id="linear-gradient-7" x1="29.39" y1="37.46" x2="25.45" y2="30.62" xlink:href="#linear-gradient-5"/><linearGradient id="linear-gradient-8" x1="28.46" y1="45.03" x2="24.28" y2="37.78" xlink:href="#linear-gradient-5"/><linearGradient id="linear-gradient-9" x1="32.31" y1="43.33" x2="22.63" y2="26.57" gradientTransform="translate(58.42 2.98) rotate(82.16)" gradientUnits="userSpaceOnUse"><stop offset="0" stop-color="#386f8d"/><stop offset="1" stop-color="#8dd7f4"/></linearGradient><linearGradient id="linear-gradient-10" x1="24.51" y1="28.2" x2="29.14" y2="36.23" gradientUnits="userSpaceOnUse"><stop offset="0" stop-color="#55b432"/><stop offset="1" stop-color="#379614"/></linearGradient></defs><title>ENOWDEF_AP_AppIcon</title><g id="Layer_15" data-name="Layer 15"><polygon points="8.5 46.5 8.5 11.5 26.5 9.5 33.5 16.5 33.5 38.5 8.5 46.5" fill="url(#linear-gradient)"/><polyline points="26.5 9.5 26.5 17.5 33.5 16.5" fill="none" stroke="#787878" stroke-linecap="round" stroke-linejoin="round"/><polygon points="8.5 46.5 8.5 11.5 26.5 9.5 33.5 16.5 33.5 38.5 8.5 46.5" fill="none" stroke="#333332" stroke-linecap="round" stroke-linejoin="round"/><polygon points="11.5 49.5 11.5 14.5 29.5 12.5 36.5 19.5 36.5 41.5 11.5 49.5" fill="url(#linear-gradient-2)"/><polyline points="29.5 12.5 29.5 20.5 36.5 19.5" fill="none" stroke="#787878" stroke-linecap="round" stroke-linejoin="round"/><polygon points="11.5 49.5 11.5 14.5 29.5 12.5 36.5 19.5 36.5 41.5 11.5 49.5" fill="none" stroke="#333332" stroke-linecap="round" stroke-linejoin="round"/><polygon points="14.5 52.5 14.5 17.5 32.5 15.5 39.5 22.5 39.5 44.5 14.5 52.5" fill="url(#linear-gradient-3)"/><polyline points="32.5 15.5 32.5 23.5 39.5 22.5" fill="none" stroke="#787878" stroke-linecap="round" stroke-linejoin="round"/><polygon points="14.5 52.5 14.5 17.5 32.5 15.5 39.5 22.5 39.5 44.5 14.5 52.5" fill="none" stroke="#333332" stroke-linecap="round" stroke-linejoin="round"/><g opacity="0.45"><path d="M43,31.31l13,6.5V53.69l-13-6.5V31.31m0-1a1,1,0,0,0-.53.15,1,1,0,0,0-.47.85V47.19a1,1,0,0,0,.55.9l13,6.5a1,1,0,0,0,1-.05,1,1,0,0,0,.47-.85V37.81a1,1,0,0,0-.55-.9l-13-6.5a1,1,0,0,0-.45-.1Z" fill="#fff"/><path d="M42.5,30a.54.54,0,0,1,.22.05l14,7a.51.51,0,0,1,.28.45v17a.52.52,0,0,1-.24.43.59.59,0,0,1-.26.07.54.54,0,0,1-.22,0l-14-7A.51.51,0,0,1,42,47.5v-17a.52.52,0,0,1,.24-.43A.48.48,0,0,1,42.5,30M56,53.69V37.81l-13-6.5V47.19l13,6.5M42.5,29a1.57,1.57,0,0,0-.79.22A1.5,1.5,0,0,0,41,30.5v17a1.5,1.5,0,0,0,.83,1.34l14,7a1.57,1.57,0,0,0,.67.16,1.5,1.5,0,0,0,.78-.22A1.48,1.48,0,0,0,58,54.5v-17a1.5,1.5,0,0,0-.83-1.34l-14-7A1.44,1.44,0,0,0,42.5,29ZM44,46.57V32.93l11,5.5V52.07l-11-5.5Z" fill="#fff"/></g><polygon points="42.5 30.5 42.5 47.5 56.5 54.5 56.5 37.5 42.5 30.5" stroke="#333332" stroke-linecap="round" stroke-linejoin="round" fill="url(#linear-gradient-4)"/><path d="M45.5,46.5v-4s.5-1.5,4,0,4,4,4,4v4Z" fill="#333332" stroke="#333332" stroke-miterlimit="10"/><ellipse cx="49.5" cy="39" rx="2.2" ry="3.2" transform="translate(-11.4 55.19) rotate(-53.12)" fill="#333332" stroke="#333332" stroke-miterlimit="10"/></g><g id="Layer_17" data-name="Layer 17"><path d="M30,21.5a.5.5,0,0,0-1,0V23H27V21.5a.5.5,0,0,0-1,0V25h1v2h2V25h1Z" fill="url(#linear-gradient-5)"/><path d="M18,30a20.75,20.75,0,0,1,3.09.51c1,.23,2,.52,2.94.83l-.89-.06a43.41,43.41,0,0,1,8.5-2.5l-.49.27c.83-.59,1.67-1.14,2.56-1.66A19.61,19.61,0,0,1,36.5,26a20.6,20.6,0,0,1-1.71,2.61c-.61.82-1.27,1.59-1.94,2.34l-.11.11-.38.16a42.73,42.73,0,0,1-8.5,2.5l-.6.11L23,33.66c-.87-.52-1.72-1.07-2.56-1.67A20.35,20.35,0,0,1,18,30Z" fill="url(#linear-gradient-6)"/><path d="M17,37a23,23,0,0,1,2.75-.68c.92-.18,1.83-.33,2.75-.44l-.3,0a35.79,35.79,0,0,1,4.4-1.62,37,37,0,0,1,4.55-1.05l-.37.17c1.06-.58,2.14-1.13,3.26-1.63a27.42,27.42,0,0,1,3.46-1.3A27.17,27.17,0,0,1,35,33.2c-.88.83-1.8,1.62-2.74,2.37l-.06,0-.31.12a39.16,39.16,0,0,1-4.45,1.45,35.56,35.56,0,0,1-4.6.88l-.3,0c-.92-.11-1.83-.26-2.75-.44A23,23,0,0,1,17,37Z" fill="url(#linear-gradient-7)"/><path d="M17.5,45.5A24.89,24.89,0,0,1,19.84,42,39.5,39.5,0,0,1,22.54,39l.15-.15.34-.14A45,45,0,0,1,31.65,36l.61-.12.25.19c.69.52,1.38,1,2.05,1.62a23.37,23.37,0,0,1,1.94,1.8,23.5,23.5,0,0,1-2.56-.7c-.83-.26-1.64-.57-2.45-.88l.86.07A45.1,45.1,0,0,1,24,41.34l.49-.29a40.07,40.07,0,0,1-3.3,2.43A24.34,24.34,0,0,1,17.5,45.5Z" fill="url(#linear-gradient-8)"/><ellipse cx="27.5" cy="35" rx="8.5" ry="5" transform="translate(-10.92 57.47) rotate(-82.16)" stroke="#053755" stroke-linecap="round" stroke-linejoin="round" fill="url(#linear-gradient-9)"/><path d="M32.53,32.49c-.31-3.2-1.79-5.62-3.87-5.91-2.74-.38-5.47,3.09-6.11,7.74A14.58,14.58,0,0,0,22.41,36L25.5,34.5s0,2,2.5,2,2.5-3,2.5-3Z" stroke="#003755" stroke-linecap="round" stroke-linejoin="round" fill="url(#linear-gradient-10)"/></g></svg>