<?xml version="1.0" encoding="utf-8"?>
<!-- Generator: Adobe Illustrator 24.0.0, SVG Export Plug-In . SVG Version: 6.00 Build 0)  -->
<svg version="1.1" xmlns="http://www.w3.org/2000/svg" xmlns:xlink="http://www.w3.org/1999/xlink" x="0px" y="0px"
	 viewBox="0 0 64 64" style="enable-background:new 0 0 64 64;" xml:space="preserve">
<style type="text/css">
	.st0{fill:url(#SVGID_1_);}
	.st1{fill:url(#SVGID_2_);}
	.st2{fill:none;stroke:#003755;stroke-width:0.9968;stroke-linejoin:round;stroke-miterlimit:10;}
	.st3{fill:none;stroke:#003755;stroke-width:0.9854;stroke-linejoin:round;stroke-miterlimit:10;}
	.st4{fill:url(#SVGID_3_);}
	.st5{fill:url(#SVGID_4_);}
	.st6{fill:none;stroke:#003755;stroke-linejoin:round;stroke-miterlimit:10;}
	.st7{fill:url(#SVGID_5_);stroke:#003755;stroke-width:0.9854;stroke-linejoin:round;stroke-miterlimit:10;}
	.st8{fill:#FFFFFF;}
	.st9{opacity:0.5;fill:#FFFFFF;stroke:#FFFFFF;stroke-width:2;stroke-linejoin:round;stroke-miterlimit:10;}
	.st10{fill:url(#SVGID_6_);}
	.st11{fill:none;stroke:#323232;stroke-width:1.5;stroke-linejoin:round;stroke-miterlimit:10;}
	.st12{fill:none;stroke:#323232;stroke-width:1.5;stroke-miterlimit:10;}
	.st13{fill:url(#SVGID_7_);stroke:#323232;stroke-width:1.5;stroke-linejoin:round;stroke-miterlimit:10;}
	.st14{fill:url(#SVGID_8_);}
	.st15{fill:url(#SVGID_9_);}
</style>
<g id="Layer_1">
	<g>
		<g>
			<linearGradient id="SVGID_1_" gradientUnits="userSpaceOnUse" x1="22.2345" y1="17.7817" x2="35.7655" y2="41.2183">
				<stop  offset="0" style="stop-color:#8CD7F5"/>
				<stop  offset="1" style="stop-color:#376E8C"/>
			</linearGradient>
			<rect x="8" y="26" class="st0" width="42" height="7"/>
			<linearGradient id="SVGID_2_" gradientUnits="userSpaceOnUse" x1="35.3595" y1="22.3284" x2="43.6405" y2="36.6716">
				<stop  offset="0" style="stop-color:#FFFFFF"/>
				<stop  offset="1" style="stop-color:#D4D5D3"/>
			</linearGradient>
			<rect x="29" y="26" class="st1" width="21" height="7"/>
			<rect x="28.5" y="25.5" class="st2" width="22" height="8"/>
			<rect x="7.5" y="25.5" class="st3" width="43" height="8"/>
		</g>
		<g>
			<linearGradient id="SVGID_3_" gradientUnits="userSpaceOnUse" x1="22.2345" y1="34.7817" x2="35.7655" y2="58.2183">
				<stop  offset="0" style="stop-color:#8CD7F5"/>
				<stop  offset="1" style="stop-color:#376E8C"/>
			</linearGradient>
			<rect x="8" y="43" class="st4" width="42" height="7"/>
			<linearGradient id="SVGID_4_" gradientUnits="userSpaceOnUse" x1="28.4845" y1="36.9468" x2="39.5155" y2="56.0532">
				<stop  offset="0" style="stop-color:#FFFFFF"/>
				<stop  offset="1" style="stop-color:#D4D5D3"/>
			</linearGradient>
			<rect x="18" y="43" class="st5" width="32" height="7"/>
			<rect x="17.5" y="42.5" class="st6" width="33" height="8"/>
			<rect x="7.5" y="42.5" class="st6" width="43" height="8"/>
		</g>
		<g>
			<linearGradient id="SVGID_5_" gradientUnits="userSpaceOnUse" x1="21.893" y1="0.1902" x2="36.1071" y2="24.8098">
				<stop  offset="0" style="stop-color:#8CD7F5"/>
				<stop  offset="1" style="stop-color:#376E8C"/>
			</linearGradient>
			<rect x="7.5" y="8.5" class="st7" width="43" height="8"/>
		</g>
	</g>
</g>
<g id="History">
	<g id="HistorySymbols">
	</g>
</g>
<g id="Attention">
	<g id="Triangle">
		<path class="st8" d="M1,144.3"/>
		<g>
			<path class="st9" d="M41.5,30.1c1.9,0,3.7,0.4,5.3,1.1c1.6,0.7,3.1,1.7,4.3,2.9s2.2,2.6,2.9,4.2c0.7,1.6,1.1,3.4,1.1,5.2
				c0,1.9-0.4,3.6-1.1,5.2c-0.7,1.6-1.7,3-2.9,4.2c-1.2,1.2-2.7,2.2-4.3,2.9c-1.6,0.7-3.4,1-5.3,1c-1.9,0-3.7-0.3-5.3-1
				c-1.6-0.7-3.1-1.7-4.3-2.9c-1.2-1.2-2.2-2.6-2.9-4.2c-0.7-1.6-1.1-3.4-1.1-5.2c0-1.9,0.4-3.6,1.1-5.2c0.7-1.6,1.7-3,2.9-4.2
				s2.7-2.2,4.3-2.9C37.9,30.4,39.6,30.1,41.5,30.1z"/>
			<g>
				<linearGradient id="SVGID_6_" gradientUnits="userSpaceOnUse" x1="35.722" y1="33.376" x2="47.3359" y2="53.4919">
					<stop  offset="0" style="stop-color:#FFFFFF"/>
					<stop  offset="1" style="stop-color:#D4D5D3"/>
				</linearGradient>
				<path class="st10" d="M41.5,55c1.6,0,3.2-0.3,4.6-0.9c1.4-0.6,2.7-1.4,3.7-2.5c1.1-1,1.9-2.3,2.5-3.7c0.6-1.4,0.9-2.9,0.9-4.5
					c0-1.6-0.3-3.1-0.9-4.5c-0.6-1.4-1.5-2.6-2.5-3.7c-1.1-1-2.3-1.9-3.7-2.5c-1.4-0.6-3-0.9-4.6-0.9s-3.2,0.3-4.6,0.9
					c-1.4,0.6-2.7,1.4-3.7,2.5c-1.1,1-1.9,2.3-2.5,3.7c-0.6,1.4-0.9,2.9-0.9,4.5c0,1.6,0.3,3.1,0.9,4.5c0.6,1.4,1.5,2.6,2.5,3.7
					c1.1,1,2.3,1.9,3.7,2.5C38.4,54.7,39.9,55,41.5,55z"/>
				<path class="st11" d="M41.5,31.5c1.7,0,3.3,0.3,4.8,0.9c1.5,0.6,2.8,1.5,3.9,2.6c1.1,1.1,2,2.3,2.6,3.8s1,3,1,4.7
					c0,1.7-0.3,3.2-1,4.7s-1.5,2.7-2.6,3.8c-1.1,1.1-2.4,1.9-3.9,2.6c-1.5,0.6-3.1,0.9-4.8,0.9c-1.7,0-3.3-0.3-4.8-0.9
					S34,53,32.8,51.9c-1.1-1.1-2-2.3-2.6-3.8s-1-3-1-4.7c0-1.7,0.3-3.2,1-4.7s1.5-2.7,2.6-3.8c1.1-1.1,2.4-1.9,3.9-2.6
					C38.2,31.8,39.8,31.5,41.5,31.5z"/>
			</g>
			<polyline class="st12" points="41,35 41,42.9 46.1,48.9 			"/>
		</g>
		<path class="st9" d="M57.3,55.2c0,0.2-0.1,0.4-0.2,0.6c-0.2,0.2-0.4,0.2-0.6,0.2h-14c-0.3,0-0.5-0.1-0.6-0.2
			c-0.2-0.2-0.2-0.4-0.2-0.6c0-0.1,0-0.3,0.1-0.4l7-11.4c0.1-0.1,0.2-0.2,0.3-0.3c0.1-0.1,0.3-0.1,0.4-0.1s0.3,0,0.4,0.1
			c0.1,0.1,0.2,0.2,0.3,0.3l7,11.4C57.3,54.9,57.3,55,57.3,55.2z"/>
		<linearGradient id="SVGID_7_" gradientUnits="userSpaceOnUse" x1="44.5341" y1="46.1657" x2="51.3912" y2="58.0426">
			<stop  offset="0" style="stop-color:#FFFFFF"/>
			<stop  offset="1" style="stop-color:#D4D5D3"/>
		</linearGradient>
		<path class="st13" d="M56.3,54.7c0,0.2-0.1,0.4-0.2,0.5c-0.1,0.2-0.3,0.2-0.5,0.2H43.4c-0.2,0-0.4-0.1-0.5-0.2
			c-0.1-0.2-0.2-0.3-0.2-0.5c0-0.1,0-0.3,0.1-0.4l6.1-10.6c0.1-0.1,0.2-0.2,0.3-0.3c0.1-0.1,0.2-0.1,0.4-0.1c0.1,0,0.3,0,0.4,0.1
			c0.1,0.1,0.2,0.2,0.3,0.3l6.1,10.6C56.3,54.5,56.3,54.6,56.3,54.7z"/>
		<g>
			<linearGradient id="SVGID_8_" gradientUnits="userSpaceOnUse" x1="48.6278" y1="49.5" x2="50.222" y2="49.5">
				<stop  offset="0" style="stop-color:#464646"/>
				<stop  offset="1" style="stop-color:#141414"/>
			</linearGradient>
			<path class="st14" d="M50.2,47.5c0-0.1-0.1-0.3-0.2-0.4C49.9,47,49.8,47,49.7,47h-0.5c-0.2,0-0.3,0-0.4,0.1
				c-0.1,0.1-0.2,0.2-0.2,0.4l0.1,4.5h1.4L50.2,47.5z"/>
			<linearGradient id="SVGID_9_" gradientUnits="userSpaceOnUse" x1="48.7603" y1="53.3206" x2="50.0895" y2="53.3206">
				<stop  offset="0" style="stop-color:#464646"/>
				<stop  offset="1" style="stop-color:#141414"/>
			</linearGradient>
			<path class="st15" d="M48.9,52.6c-0.1,0-0.1,0.1-0.1,0.1l0.1,1.2H50l0.1-1.2c0-0.1-0.1-0.1-0.1-0.1"/>
		</g>
	</g>
</g>
<g id="Combo">
</g>
</svg>
