<svg xmlns="http://www.w3.org/2000/svg" xmlns:xlink="http://www.w3.org/1999/xlink" width="64" height="64" viewBox="0 0 64 64">
  <defs>
    <linearGradient id="a" x1="16.498" y1="9.909" x2="34.502" y2="41.091" gradientUnits="userSpaceOnUse">
      <stop offset="0" stop-color="#fff"/>
      <stop offset="1" stop-color="#d4d5d3"/>
    </linearGradient>
    <linearGradient id="b" x1="19.036" y1="8.464" x2="31.354" y2="29.799" gradientTransform="translate(0 6)" gradientUnits="userSpaceOnUse">
      <stop offset="0" stop-color="#3387af"/>
      <stop offset="1" stop-color="#285a78"/>
    </linearGradient>
    <linearGradient id="c" x1="-96.033" y1="28.808" x2="-80.977" y2="54.885" gradientTransform="matrix(-1, 0, 0, 1, -39, 0)" gradientUnits="userSpaceOnUse">
      <stop offset="0" stop-color="#f5f5f5"/>
      <stop offset="1" stop-color="#bebebe"/>
    </linearGradient>
    <linearGradient id="d" x1="-86.017" y1="23.011" x2="-74.511" y2="42.942" gradientTransform="matrix(-1, 0, 0, 1, -39, 0)" gradientUnits="userSpaceOnUse">
      <stop offset="0" stop-color="#fff"/>
      <stop offset="1" stop-color="#f0f0f0"/>
    </linearGradient>
    <linearGradient id="e" x1="-82.11" y1="35.005" x2="-71.484" y2="53.41" gradientTransform="matrix(-1, 0, 0, 1, -39, 0)" gradientUnits="userSpaceOnUse">
      <stop offset="0" stop-color="#fff"/>
      <stop offset="1" stop-color="#d2d2d2"/>
    </linearGradient>
    <linearGradient id="f" x1="-93.65" y1="27.432" x2="-83.314" y2="45.334" gradientTransform="matrix(-1, 0, 0, 1, -39, 0)" gradientUnits="userSpaceOnUse">
      <stop offset="0" stop-color="#82bedc"/>
      <stop offset="1" stop-color="#285a78"/>
    </linearGradient>
    <linearGradient id="g" x1="-89.911" y1="25.258" x2="-82.138" y2="38.721" gradientTransform="matrix(-1, 0, 0, 1, -39, 0)" gradientUnits="userSpaceOnUse">
      <stop offset="0" stop-color="#a0e1fa"/>
      <stop offset="1" stop-color="#73c3e1"/>
    </linearGradient>
    <linearGradient id="h" x1="-83.625" y1="35.88" x2="-78.52" y2="44.722" gradientTransform="matrix(-1, 0, 0, 1, -39, 0)" gradientUnits="userSpaceOnUse">
      <stop offset="0" stop-color="#8cd7f5"/>
      <stop offset="1" stop-color="#376e8c"/>
    </linearGradient>
    <linearGradient id="i" x1="48.561" y1="14.202" x2="55.098" y2="25.523" gradientTransform="matrix(1, 0, 0, 1, 0, 0)" xlink:href="#h"/>
    <linearGradient id="j" x1="49" y1="18" x2="53" y2="18" gradientUnits="userSpaceOnUse">
      <stop offset="0" stop-color="#464646"/>
      <stop offset="1" stop-color="#141414"/>
    </linearGradient>
  </defs>
  <title>2185_ENX3DIR_AP_AppIcon_r21x</title>
  <g>
    <circle cx="25.5" cy="25.5" r="18" stroke="#323232" stroke-linejoin="round" fill="url(#a)"/>
    <path d="M21.41,35.716c0-2.054,1.6-3,3.609-3s3.571.933,3.571,3-1.556,2.958-3.571,2.958S21.41,37.771,21.41,35.716ZM28.581,13,27.547,31H22.683L21.572,13Z" fill="url(#b)"/>
  </g>
  <g>
    <g>
      <polygon points="43.5 53.833 43.5 35.185 49.229 28.5 56.5 28.5 56.5 46.793 46.054 57.239 43.5 53.833" fill="url(#c)"/>
      <path d="M56,29V46.586l-9.892,9.892L44,53.667V35.37L49.46,29H56m1-1H49l-6,7V54l3,4L57,47V28Z" fill="#787878"/>
    </g>
    <g>
      <polygon points="31.423 40.582 29.566 31.762 41.082 25.524 56.316 28.38 42.545 38.46 39.781 42.439 31.423 40.582" fill="url(#d)"/>
      <path d="M41.164,26.048l13.925,2.611L42.317,38.008l-.135.1-.1.138-2.524,3.634-7.716-1.714-1.714-8.14,11.032-5.976M41,25,29,31.5,31,41l9,2,2.908-4.186L57,28.5V28L41,25Z" fill="#787878"/>
    </g>
    <g>
      <polygon points="29.5 51.688 29.5 32.149 45.5 36.385 45.5 57.295 29.5 51.688" fill="url(#e)"/>
      <path d="M30,32.8,45,36.77V56.59L30,51.333V32.8m-1-1.3V52.042L46,58V36L29,31.5Z" fill="#787878"/>
    </g>
  </g>
  <g>
    <polygon points="45.392 34.908 31.674 31.189 30.444 31.855 45.392 35.908 55.109 28.663 54.037 28.462 45.392 34.908" fill="#fff" opacity="0.4"/>
    <polygon points="30 50.332 30 51.332 45.737 56.848 56 46.586 56 45.586 45.737 55.848 30 50.332" opacity="0.2"/>
  </g>
  <polyline points="29.5 43 29.5 51.7 45.8 57.5 56.5 47 56.5 37.5 56.575 28.5 43.5 26" fill="none" stroke="#323232" stroke-linecap="square" stroke-miterlimit="10"/>
  <g>
    <g>
      <polygon points="43.5 43.793 43.5 33.207 48.207 28.5 56.5 28.5 56.5 37.763 46.033 46.326 43.5 43.793" fill="url(#f)"/>
      <path d="M56,29v8.526l-9.933,8.127L44,43.586V33.414L48.414,29H56m1-1H48l-5,5V44l3,3,11-9V28Z" fill="#003755"/>
    </g>
    <g>
      <polygon points="39.381 36.551 38.593 34.093 49.351 27.083 56.324 28.383 44.45 37.308 39.381 36.551" fill="url(#g)"/>
      <path d="M49.456,27.611l5.659,1.055-10.8,8.117-4.555-.68-.577-1.8,10.271-6.693m-.211-1.056L38,33.882,39,37l5.583.833L57,28.5V28l-7.755-1.445Z" fill="#003755"/>
    </g>
    <g>
      <polygon points="38.5 44.133 38.5 34.532 45.5 36.385 45.5 46.32 38.5 44.133" fill="url(#h)"/>
      <path d="M39,35.182l6,1.588v8.87l-6-1.875V35.182m-1-1.3V44.5L46,47V36l-8-2.118Z" fill="#003755"/>
    </g>
  </g>
  <g>
    <g opacity="0.5">
      <path d="M51,29.5a.5.5,0,0,1-.446-.275l-4.482-8.891a5.3,5.3,0,0,1-.572-2.411,5.5,5.5,0,0,1,11,0,5.3,5.3,0,0,1-.572,2.411l-4.482,8.891A.5.5,0,0,1,51,29.5Z" fill="#fff"/>
      <path d="M51,13a4.962,4.962,0,0,1,5,4.923,4.843,4.843,0,0,1-.519,2.186L51,29l-4.481-8.891A4.843,4.843,0,0,1,46,17.923,4.962,4.962,0,0,1,51,13m0-1a5.969,5.969,0,0,0-6,5.923,5.8,5.8,0,0,0,.626,2.636l4.481,8.891a1,1,0,0,0,1.786,0l4.481-8.891A5.793,5.793,0,0,0,57,17.923,5.969,5.969,0,0,0,51,12Z" fill="#fff"/>
    </g>
    <g>
      <path d="M46.965,19.884a4.315,4.315,0,0,1-.465-1.961,4.5,4.5,0,0,1,9,0,4.315,4.315,0,0,1-.465,1.961l-4.035,8Z" fill="url(#i)"/>
      <path d="M51,14a3.966,3.966,0,0,1,4,3.923,3.824,3.824,0,0,1-.411,1.736L51,26.778l-3.588-7.119A3.812,3.812,0,0,1,47,17.923,3.966,3.966,0,0,1,51,14m0-1a4.962,4.962,0,0,0-5,4.923,4.843,4.843,0,0,0,.519,2.186L51,29l4.481-8.891A4.843,4.843,0,0,0,56,17.923,4.962,4.962,0,0,0,51,13Z" fill="#003755"/>
    </g>
    <circle cx="51" cy="18" r="2" fill="url(#j)"/>
  </g>
</svg>
