<svg xmlns="http://www.w3.org/2000/svg" xmlns:xlink="http://www.w3.org/1999/xlink" width="64" height="64" viewBox="0 0 64 64">
  <defs>
    <linearGradient id="a" x1="17.5" y1="34.402" x2="20.5" y2="39.598" gradientUnits="userSpaceOnUse">
      <stop offset="0" stop-color="#fff"/>
      <stop offset="1" stop-color="#d4d5d3"/>
    </linearGradient>
    <linearGradient id="b" x1="22.574" y1="34.53" x2="25.426" y2="39.47" gradientTransform="translate(33.192 -6.134) rotate(45)" xlink:href="#a"/>
    <linearGradient id="c" x1="10" y1="33.535" x2="14" y2="40.465" xlink:href="#a"/>
    <linearGradient id="d" x1="37.243" y1="38.761" x2="46.757" y2="55.239" xlink:href="#a"/>
    <linearGradient id="e" x1="41.243" y1="8.761" x2="50.757" y2="25.239" gradientUnits="userSpaceOnUse">
      <stop offset="0" stop-color="#8cd7f5"/>
      <stop offset="1" stop-color="#376e8c"/>
    </linearGradient>
    <linearGradient id="f" x1="49.085" y1="11.951" x2="54.915" y2="22.049" gradientUnits="userSpaceOnUse">
      <stop offset="0" stop-color="#3287af"/>
      <stop offset="1" stop-color="#285a78"/>
    </linearGradient>
    <linearGradient id="g" x1="50.973" y1="30.016" x2="45.277" y2="20.15" gradientUnits="userSpaceOnUse">
      <stop offset="0" stop-color="#151515"/>
      <stop offset="1" stop-color="#505150"/>
    </linearGradient>
  </defs>
  <title>8809_ENOBPCO_AP_AppIcon_r21x</title>
  <g opacity="0.5">
    <path d="M26.819,50.492a.493.493,0,0,1-.25-.067.5.5,0,0,1-.25-.433V48.5H23a.5.5,0,0,1-.5-.5V38.5H13a.5.5,0,0,1-.5-.5V36a.5.5,0,0,1,.5-.5h9.5V26a.5.5,0,0,1,.5-.5h3.319V24.008a.5.5,0,0,1,.5-.5.506.506,0,0,1,.25.067l5.181,2.992a.5.5,0,0,1,0,.866l-5.181,2.992a.5.5,0,0,1-.5,0,.5.5,0,0,1-.25-.433V28.5H25.5v17h.819V44.008a.5.5,0,0,1,.25-.433.5.5,0,0,1,.5,0l5.181,2.992a.5.5,0,0,1,0,.866l-5.181,2.992A.5.5,0,0,1,26.819,50.492Z" fill="#fff"/>
    <path d="M26.819,24.008,32,27l-5.181,2.992V28H25V46h1.819V44.008L32,47l-5.181,2.992V48H23V38H13V36H23V26h3.819V24.008m0-1a1,1,0,0,0-1,1V25H23a1,1,0,0,0-1,1v9H13a1,1,0,0,0-1,1v2a1,1,0,0,0,1,1h9v9a1,1,0,0,0,1,1h2.819v.992a1,1,0,0,0,1.5.866L32.5,47.866a1,1,0,0,0,0-1.732l-5.181-2.992A1,1,0,0,0,26,43.434V30.566a1,1,0,0,0,1.319.292L32.5,27.866a1,1,0,0,0,0-1.732l-5.181-2.992a1,1,0,0,0-.5-.134Z" fill="#fff"/>
  </g>
  <g>
    <g>
      <polyline points="27.694 27 24 27 24 47 27.694 47" fill="none" stroke="#323232" stroke-miterlimit="10" stroke-width="2"/>
      <polygon points="26.819 24.008 32 27 26.819 29.992 26.819 24.008" fill="#323232"/>
      <polygon points="26.819 49.992 32 47 26.819 44.008 26.819 49.992" fill="#323232"/>
    </g>
    <line x1="13" y1="37" x2="25" y2="37" stroke="#323232" stroke-miterlimit="10" stroke-width="2" fill="url(#a)"/>
  </g>
  <g>
    <rect x="21.672" y="34.672" width="4.657" height="4.657" transform="translate(-19.134 27.808) rotate(-45)" fill="url(#b)"/>
    <path d="M24,34.414,26.586,37,24,39.586,21.414,37,24,34.414M24,33l-4,4,4,4,4-4-4-4Z" fill="#323232"/>
  </g>
  <circle cx="12" cy="37" r="4" stroke="#323232" stroke-miterlimit="10" fill="url(#c)"/>
  <g>
    <g opacity="0.5">
      <rect x="31.5" y="20.5" width="21" height="13" rx="0.5" fill="#fff"/>
      <path d="M52,21V33H32V21H52m0-1H32a1,1,0,0,0-1,1V33a1,1,0,0,0,1,1H52a1,1,0,0,0,1-1V21a1,1,0,0,0-1-1Z" fill="#fff"/>
    </g>
    <rect x="32" y="21" width="20" height="12" fill="#646464" opacity="0.5"/>
  </g>
  <g>
    <g>
      <rect x="32.5" y="41.5" width="19" height="11" fill="url(#d)"/>
      <path d="M51,42V52H33V42H51m1-1H32V53H52V41Z" fill="#323232"/>
    </g>
    <polygon points="51 52 45 52 45 49 47 47 45 45 45 42 51 42 51 52" fill="#646464" opacity="0.5"/>
  </g>
  <g>
    <g>
      <rect x="36.5" y="11.5" width="19" height="11" fill="url(#e)"/>
      <path d="M55,12V22H37V12H55m1-1H36V23H56V11Z" fill="#003755"/>
    </g>
    <polygon points="55 22 49 22 49 19 51 17 49 15 49 12 55 12 55 22" fill="url(#f)"/>
  </g>
  <g>
    <g opacity="0.5">
      <path d="M44,30.5a.5.5,0,0,1-.5-.5V23a.5.5,0,0,1,.5-.5h.979a.5.5,0,0,1,.353.146l2.011,2h.013c.243,0,.683-.378,1.144-1.728V18a.5.5,0,0,1,.5-.5h2a.5.5,0,0,1,.5.5v5c0,.128-.021,2.851-1.688,4.1l1.542,1.542A.5.5,0,0,1,51.5,29v1a.5.5,0,0,1-.5.5Z" fill="#fff"/>
      <path d="M51,18v5s0,3.143-2,4l2,2v1H44V23h.98l2.01,2a.638.638,0,0,0,.42.16c.386,0,.99-.36,1.59-2.16V18h2m0-1H49a1,1,0,0,0-1,1v4.834a4.482,4.482,0,0,1-.571,1.192l-1.744-1.735A1,1,0,0,0,44.98,22H44a1,1,0,0,0-1,1v7a1,1,0,0,0,1,1h7a1,1,0,0,0,1-1V29a1,1,0,0,0-.293-.707l-1.169-1.169A6.627,6.627,0,0,0,52,23V18a1,1,0,0,0-1-1Z" fill="#fff"/>
    </g>
    <path d="M51,23s0,3.143-2,4l2,2v1H44V23h.98l2.01,2S48,26,49,23V18h2Z" fill-rule="evenodd" fill="url(#g)"/>
  </g>
</svg>
