<svg id="it_1" data-name="it 1" xmlns="http://www.w3.org/2000/svg" xmlns:xlink="http://www.w3.org/1999/xlink" viewBox="0 0 64 64"><defs><style>.Blue-RIGHT\,-FRONT-\&amp;-SINGLE{stroke:#003755;stroke-linejoin:round;fill:url(#linear-gradient);}.cls-1,.cls-11{opacity:0.75;}.cls-11,.cls-2{fill:#fff;}.cls-3{opacity:0.15;}.cls-4{fill:url(#linear-gradient-2);}.cls-5{fill:url(#linear-gradient-3);}.cls-6{fill:url(#Dégradé_sans_nom_5);}.cls-7{fill:url(#Dégradé_sans_nom_5-2);}.cls-8{fill:url(#Dégradé_sans_nom_5-3);}.cls-9{fill:url(#Dégradé_sans_nom_5-4);}.cls-10{fill:url(#Dégradé_sans_nom_5-5);}.cls-12{opacity:0.2;}.cls-13{fill:url(#linear-gradient-4);}.cls-14{opacity:0.5;}.cls-15{fill:url(#linear-gradient-5);}.cls-16{opacity:0.3;fill:url(#Dégradé_sans_nom_5-6);}</style><linearGradient id="linear-gradient" x1="16.75" y1="5.58" x2="47.25" y2="58.42" gradientUnits="userSpaceOnUse"><stop offset="0" stop-color="#8cd7f5"/><stop offset="1" stop-color="#376e8c"/></linearGradient><linearGradient id="linear-gradient-2" x1="45.14" y1="12.92" x2="49.86" y2="21.08" gradientUnits="userSpaceOnUse"><stop offset="0" stop-color="#3287af"/><stop offset="1" stop-color="#285a78"/></linearGradient><linearGradient id="linear-gradient-3" x1="45.14" y1="31.92" x2="49.86" y2="40.08" xlink:href="#linear-gradient-2"/><linearGradient id="Dégradé_sans_nom_5" x1="34.5" y1="43.01" x2="34.5" y2="43.98" gradientUnits="userSpaceOnUse"><stop offset="0" stop-color="#fff"/><stop offset="1" stop-color="#fff" stop-opacity="0"/></linearGradient><linearGradient id="Dégradé_sans_nom_5-2" y1="45.01" x2="34.5" y2="45.98" xlink:href="#Dégradé_sans_nom_5"/><linearGradient id="Dégradé_sans_nom_5-3" y1="47.01" x2="34.5" y2="47.98" xlink:href="#Dégradé_sans_nom_5"/><linearGradient id="Dégradé_sans_nom_5-4" y1="49.01" x2="34.5" y2="49.98" xlink:href="#Dégradé_sans_nom_5"/><linearGradient id="Dégradé_sans_nom_5-5" x1="32" y1="51.01" x2="32" y2="51.98" xlink:href="#Dégradé_sans_nom_5"/><linearGradient id="linear-gradient-4" x1="48.5" y1="43" x2="51.57" y2="48.32" xlink:href="#linear-gradient-2"/><linearGradient id="linear-gradient-5" x1="50.19" y1="46.53" x2="52.43" y2="50.41" xlink:href="#linear-gradient-2"/><linearGradient id="Dégradé_sans_nom_5-6" x1="38.4" y1="11.34" x2="38.4" y2="52.03" xlink:href="#Dégradé_sans_nom_5"/></defs><rect class="Blue-RIGHT,-FRONT-&amp;-SINGLE" x="7.5" y="10.5" width="49" height="43" rx="1"/><g class="cls-1"><path class="cls-2" d="M24.15,26.35l.65.65H22.91a5.6,5.6,0,0,0,0-2H24.8l-.65.65A.48.48,0,0,0,24.15,26.35Z"/><path class="cls-2" d="M35,16v2H29.5a.5.5,0,0,0-.5.5v4.3l-.65-.65a.48.48,0,0,0-.7,0L27,22.8V17.5A1.5,1.5,0,0,1,28.5,16Z"/><path class="cls-2" d="M29.5,35H35v2H28.5A1.5,1.5,0,0,1,27,35.5V29.2l.65.65a.48.48,0,0,0,.7,0L29,29.2v5.3A.5.5,0,0,0,29.5,35Z"/><circle class="cls-2" cx="17" cy="26" r="5"/><rect class="cls-2" x="26.03" y="24.03" width="3.95" height="3.95" transform="translate(-10.18 27.41) rotate(-45)"/><rect class="cls-2" x="34" y="13" width="16" height="8"/><g class="cls-3"><rect class="cls-4" x="45" y="13" width="5" height="8"/></g><rect class="cls-2" x="34" y="32" width="16" height="8"/><g class="cls-3"><rect class="cls-5" x="45" y="32" width="5" height="8"/></g></g><g class="cls-1"><rect class="cls-6" x="28" y="43" width="13" height="1"/><rect class="cls-7" x="28" y="45" width="13" height="1"/><rect class="cls-8" x="28" y="47" width="13" height="1"/><rect class="cls-9" x="28" y="49" width="13" height="1"/><rect class="cls-10" x="28" y="51" width="8" height="1"/></g><polygon class="cls-11" points="24 51 24 47 22 47 22 51 21 51 21 44 19 44 19 51 18 51 18 43 16 43 16 51 15 51 15 46 13 46 13 51 12 51 12 43 11 43 11 52 12 52 26 52 26 51 24 51"/><g class="cls-1"><path class="cls-2" d="M53,47.5a4.46,4.46,0,0,1-2.09,3.79A4.34,4.34,0,0,1,48.5,52,4.5,4.5,0,1,1,53,47.5Z"/><g class="cls-12"><path class="cls-13" d="M53,47.5H48.5V43A4.49,4.49,0,0,1,53,47.5Z"/></g><g class="cls-14"><path class="cls-15" d="M53,47.5a4.46,4.46,0,0,1-2.09,3.79L48.5,47.5Z"/></g></g><path class="cls-16" d="M55.5,11H40.33L20.79,53H55.5a.5.5,0,0,0,.5-.5v-41A.5.5,0,0,0,55.5,11Z"/></svg>