<?xml version="1.0" encoding="utf-8"?>
<!-- Generator: Adobe Illustrator 25.2.3, SVG Export Plug-In . SVG Version: 6.00 Build 0)  -->
<svg version="1.1" id="Layer_1" xmlns="http://www.w3.org/2000/svg" xmlns:xlink="http://www.w3.org/1999/xlink" x="0px" y="0px"
	 viewBox="0 0 64 64" style="enable-background:new 0 0 64 64;" xml:space="preserve">
<style type="text/css">
	
		.Blue_x0020_RIGHT_x0020__x002F__x0020_FRONT_x0020_or_x0020_SINGLE_x0020_2{fill:url(#SVGID_1_);stroke:#053755;stroke-linejoin:round;stroke-miterlimit:10;}
	.st0{fill:url(#SVGID_2_);stroke:#323232;stroke-linejoin:round;stroke-miterlimit:10;}
	.st1{fill:url(#SVGID_3_);stroke:#323232;stroke-linejoin:round;stroke-miterlimit:10;}
	.st2{fill:url(#SVGID_4_);stroke:#053755;stroke-linejoin:round;stroke-miterlimit:10;}
	.st3{fill:url(#SVGID_5_);}
	.st4{fill:none;stroke:#053755;stroke-linejoin:round;stroke-miterlimit:10;}
	.st5{fill:#FFFFFF;}
	.st6{fill:url(#SVGID_6_);stroke:#323232;stroke-linejoin:round;stroke-miterlimit:10;}
	.st7{fill:url(#SVGID_7_);stroke:#323232;stroke-linejoin:round;stroke-miterlimit:10;}
	.st8{fill:url(#SVGID_8_);stroke:#053755;stroke-linejoin:round;stroke-miterlimit:10;}
	.st9{fill:url(#SVGID_9_);stroke:#323232;stroke-linejoin:round;stroke-miterlimit:10;}
	.st10{fill:url(#SVGID_10_);stroke:#053755;stroke-linejoin:round;stroke-miterlimit:10;}
</style>
<linearGradient id="SVGID_1_" gradientUnits="userSpaceOnUse" x1="-34" y1="2" x2="-33.5" y2="2.866">
	<stop  offset="0" style="stop-color:#8ED7F3"/>
	<stop  offset="1" style="stop-color:#3A6F8D"/>
</linearGradient>
<linearGradient id="SVGID_2_" gradientUnits="userSpaceOnUse" x1="106.2119" y1="4.2427" x2="119.7881" y2="27.7573">
	<stop  offset="0" style="stop-color:#FFFFFF"/>
	<stop  offset="1" style="stop-color:#D4D5D3"/>
</linearGradient>
<path class="st0" d="M133.57,19.5H92.43c-1.06,0-1.93-0.86-1.93-1.93v-3.15c0-1.06,0.86-1.93,1.93-1.93h41.15
	c1.06,0,1.93,0.86,1.93,1.93v3.15C135.5,18.64,134.64,19.5,133.57,19.5z"/>
<linearGradient id="SVGID_3_" gradientUnits="userSpaceOnUse" x1="102.5231" y1="14.2905" x2="123.683" y2="50.9406">
	<stop  offset="0" style="stop-color:#FFFFFF"/>
	<stop  offset="1" style="stop-color:#D4D5D3"/>
</linearGradient>
<path class="st1" d="M130.96,46.5H95.04c-0.85,0-1.54-0.69-1.54-1.54V19.5h39v25.46C132.5,45.81,131.81,46.5,130.96,46.5z"/>
<linearGradient id="SVGID_4_" gradientUnits="userSpaceOnUse" x1="109.2925" y1="20.5784" x2="116.7075" y2="33.4216">
	<stop  offset="0" style="stop-color:#8DD7F4"/>
	<stop  offset="1" style="stop-color:#386E8C"/>
</linearGradient>
<rect x="102.5" y="24.5" class="st2" width="21" height="5"/>
<g>
	<g>
		<linearGradient id="SVGID_5_" gradientUnits="userSpaceOnUse" x1="122.4526" y1="30.757" x2="137.8631" y2="57.4487">
			<stop  offset="0" style="stop-color:#8ED7F3"/>
			<stop  offset="1" style="stop-color:#3A6F8D"/>
		</linearGradient>
		<path class="st3" d="M139.02,32.44c0.44,0,0.82,0.15,1.13,0.46c0.31,0.31,0.46,0.68,0.46,1.12v17.85c0,0.45-0.16,0.83-0.48,1.14
			c-0.32,0.31-0.71,0.47-1.17,0.47h-2.41v4.72l-5.53-4.72h-11.04c-0.44,0-0.82-0.15-1.13-0.46c-0.31-0.31-0.46-0.68-0.46-1.12V34.02
			c0-0.44,0.15-0.82,0.46-1.12c0.31-0.31,0.68-0.46,1.13-0.46H139.02z"/>
	</g>
	<g>
		<path class="st4" d="M139.02,32.44c0.44,0,0.82,0.15,1.13,0.46c0.31,0.31,0.46,0.68,0.46,1.12v17.85c0,0.45-0.16,0.83-0.48,1.14
			c-0.32,0.31-0.71,0.47-1.17,0.47h-2.41v4.72l-5.53-4.72h-11.04c-0.44,0-0.82-0.15-1.13-0.46c-0.31-0.31-0.46-0.68-0.46-1.12V34.02
			c0-0.44,0.15-0.82,0.46-1.12c0.31-0.31,0.68-0.46,1.13-0.46H139.02z"/>
	</g>
</g>
<g>
	<path class="st5" d="M127,48h4.67v4H127V48z"/>
</g>
<g>
	<path class="st5" d="M131.66,47h-4.68c0.02-0.48,0.1-1.44,0.46-2.4c0.52-1.41,1.28-2.28,2.89-3.6c0.69-0.55,1.03-1.06,1.03-1.52
		c0-1.01-0.65-1.46-1.66-1.46c-1.52,0-2.08,1.14-2.25,2.65l-4.93-0.6c0.35-3.68,2.62-5.96,7.25-5.96c4.6,0,6.78,2.55,6.78,5.26
		c0,1.97-1.45,3.25-3.04,4.48C132.32,44.79,131.66,45.43,131.66,47z"/>
</g>
<g>
	<linearGradient id="SVGID_6_" gradientUnits="userSpaceOnUse" x1="23.075" y1="5.8715" x2="35.925" y2="28.1285">
		<stop  offset="0" style="stop-color:#FFFFFF"/>
		<stop  offset="1" style="stop-color:#D4D5D3"/>
	</linearGradient>
	<path class="st6" d="M48.64,20.5H10.36c-1.03,0-1.86-0.83-1.86-1.86v-3.28c0-1.03,0.83-1.86,1.86-1.86h38.28
		c1.03,0,1.86,0.83,1.86,1.86v3.28C50.5,19.67,49.67,20.5,48.64,20.5z"/>
	<linearGradient id="SVGID_7_" gradientUnits="userSpaceOnUse" x1="19.6006" y1="15.8231" x2="39.5936" y2="50.452">
		<stop  offset="0" style="stop-color:#FFFFFF"/>
		<stop  offset="1" style="stop-color:#D4D5D3"/>
	</linearGradient>
	<path class="st7" d="M46.05,46.5h-33.1c-0.8,0-1.45-0.65-1.45-1.45V20.5h36v24.55C47.5,45.85,46.85,46.5,46.05,46.5z"/>
	<linearGradient id="SVGID_8_" gradientUnits="userSpaceOnUse" x1="26.384" y1="23.1029" x2="32.616" y2="33.8971">
		<stop  offset="0" style="stop-color:#8DD7F4"/>
		<stop  offset="1" style="stop-color:#386E8C"/>
	</linearGradient>
	<rect x="20.5" y="26.5" class="st8" width="18" height="4"/>
</g>
<g>
	<linearGradient id="SVGID_9_" gradientUnits="userSpaceOnUse" x1="39.1331" y1="31.4738" x2="51.8655" y2="53.5269">
		<stop  offset="0" style="stop-color:#FFFFFF"/>
		<stop  offset="1" style="stop-color:#D4D5D3"/>
	</linearGradient>
	<path class="st9" d="M48.28,54.46l-1.31-0.61c-0.93-0.44-2.01-0.44-2.94,0l-1.31,0.61c-1.11,0.53-2.45,0.08-3.01-1.02l-0.4-0.81
		c-0.04-0.08-0.08-0.15-0.13-0.22c-0.51-0.85-1.37-1.44-2.35-1.62c-0.51-0.09-0.98-0.35-1.32-0.75c-0.33-0.38-0.51-0.87-0.51-1.37
		c0-1.4,0.14-2.48-0.92-3.59l-1.07-1.13c-0.79-0.81-0.79-2.1,0-2.91l1.07-1.13c0.59-0.62,0.92-1.44,0.92-2.3v-1.29
		c0.02-1.06,0.79-1.95,1.84-2.12c1.07-0.19,1.99-0.87,2.47-1.84l0.4-0.81c0.57-1.1,1.9-1.55,3.01-1.02l1.31,0.61
		c0.93,0.44,2.01,0.44,2.94,0l1.31-0.61c1.11-0.53,2.45-0.08,3.01,1.02l0.4,0.81c0.49,0.97,1.41,1.65,2.47,1.84
		c1.05,0.17,1.82,1.06,1.84,2.12v1.29c0,0.85,0.33,1.68,0.92,2.3l1.07,1.13c0.79,0.81,0.79,2.1,0,2.91l-1.07,1.13
		C56.33,45.7,56,46.51,56,47.36c0,0.01,0,0.37,0,1.31c0,0.71-0.36,1.37-0.95,1.75c-0.26,0.18-0.57,0.31-0.88,0.36
		c-1.01,0.18-1.88,0.8-2.39,1.69c-0.03,0.05-0.06,0.1-0.09,0.15l-0.4,0.81C50.72,54.54,49.39,54.99,48.28,54.46L48.28,54.46z"/>
	<linearGradient id="SVGID_10_" gradientUnits="userSpaceOnUse" x1="41.4993" y1="35.5706" x2="49.5007" y2="49.4294">
		<stop  offset="0" style="stop-color:#8DD7F4"/>
		<stop  offset="1" style="stop-color:#386E8C"/>
	</linearGradient>
	<circle class="st10" cx="45.5" cy="42.5" r="8"/>
	<path class="st5" d="M48.46,39.56c0.19,0,0.35,0.07,0.49,0.21c0.07,0.07,0.12,0.15,0.16,0.24c0.03,0.09,0.05,0.18,0.05,0.26
		c0,0.19-0.07,0.36-0.21,0.5l-5.03,5.02l-2.57-2.56c-0.14-0.14-0.21-0.31-0.21-0.5c0-0.09,0.02-0.18,0.05-0.26
		c0.03-0.09,0.09-0.17,0.16-0.24c0.14-0.14,0.3-0.21,0.49-0.21c0.18,0,0.35,0.07,0.5,0.21l1.58,1.58l4.04-4.04
		c0.07-0.07,0.15-0.12,0.24-0.16C48.29,39.58,48.38,39.56,48.46,39.56z"/>
</g>
</svg>
