<svg xmlns="http://www.w3.org/2000/svg" xmlns:xlink="http://www.w3.org/1999/xlink" viewBox="0 0 64 64"><defs><style>.cls-1{fill:url(#linear-gradient);}.cls-2{fill:#323232;}.cls-3,.cls-4,.cls-7{stroke:#323232;}.Blue-TOP-6,.De-emphasized-WHITE-for-Vector-Highlights,.GREEN-Ok-\/-Validation,.Medium-Grey,.RED-Error-2,.SINGLE-White-Item,.White-TOP,.YELLOW-Warning,.cls-11,.cls-12,.cls-13,.cls-14,.cls-3,.cls-4,.cls-7,.cls-8{stroke-linejoin:round;}.cls-3,.cls-4{opacity:0.3;}.cls-3{fill:url(#linear-gradient-2);}.cls-4{fill:#e1e1e1;}.cls-5{fill:url(#Dark_BLUE_gradient_LEFT);}.cls-6{fill:#063755;}.De-emphasized-WHITE-for-Vector-Highlights{fill:#fff;stroke:#fff;stroke-width:3px;opacity:0.5;}.cls-7{fill:url(#linear-gradient-3);}.cls-8{fill:none;}.Blue-TOP-6,.cls-11,.cls-12,.cls-13,.cls-8{stroke:#053755;}.RED-Error-2{stroke:#821918;fill:url(#linear-gradient-4);}.YELLOW-Warning{stroke:#96341f;fill:url(#linear-gradient-5);}.GREEN-Ok-\/-Validation{fill:url(#linear-gradient-6);stroke:url(#linear-gradient-7);}.Blue-TOP-6{fill:url(#linear-gradient-8);}.cls-9{fill:url(#linear-gradient-9);}.cls-10{stroke:#003654;stroke-miterlimit:10;fill:url(#radial-gradient);}.Medium-Grey,.SINGLE-White-Item,.cls-11,.cls-12,.cls-13,.cls-14{stroke-linecap:round;}.cls-11{fill:url(#linear-gradient-10);}.Medium-Grey,.SINGLE-White-Item,.cls-14{stroke:#333332;}.SINGLE-White-Item{fill:url(#linear-gradient-11);}.Medium-Grey{fill:url(#linear-gradient-12);}.cls-12{fill:url(#linear-gradient-14);}.cls-13{fill:url(#linear-gradient-15);}.White-TOP{stroke:#787878;fill:url(#linear-gradient-16);}.cls-14{fill:url(#linear-gradient-17);}</style><linearGradient id="linear-gradient" x1="19.5" y1="6.46" x2="41.5" y2="44.54" gradientUnits="userSpaceOnUse"><stop offset="0" stop-color="#f4f5f5"/><stop offset="0.99" stop-color="#d2d2d2"/></linearGradient><linearGradient id="linear-gradient-2" x1="24.5" y1="28" x2="36.5" y2="28" xlink:href="#linear-gradient"/><linearGradient id="Dark_BLUE_gradient_LEFT" x1="20.28" y1="16.12" x2="47" y2="10.57" gradientUnits="userSpaceOnUse"><stop offset="0" stop-color="#82bedc"/><stop offset="1" stop-color="#285a78"/></linearGradient><linearGradient id="linear-gradient-3" x1="34.7" y1="28.4" x2="11.57" y2="45.73" gradientUnits="userSpaceOnUse"><stop offset="0" stop-color="#fff"/><stop offset="1" stop-color="#d4d5d3"/></linearGradient><linearGradient id="linear-gradient-4" x1="11.12" y1="33.49" x2="14.07" y2="38.61" gradientUnits="userSpaceOnUse"><stop offset="0" stop-color="#ef4423"/><stop offset="1" stop-color="#c02026"/></linearGradient><linearGradient id="linear-gradient-5" x1="18.58" y1="28.85" x2="20.79" y2="32.69" gradientUnits="userSpaceOnUse"><stop offset="0" stop-color="#fae769"/><stop offset="1" stop-color="#f1cf30"/></linearGradient><linearGradient id="linear-gradient-6" x1="26.43" y1="32.82" x2="28.77" y2="28.75" gradientUnits="userSpaceOnUse"><stop offset="0" stop-color="#399745"/><stop offset="1" stop-color="#56b447"/></linearGradient><linearGradient id="linear-gradient-7" x1="26.18" y1="33.25" x2="29.02" y2="28.32" gradientUnits="userSpaceOnUse"><stop offset="0" stop-color="#2b793c"/><stop offset="1" stop-color="#3d9b46"/></linearGradient><linearGradient id="linear-gradient-8" x1="32.59" y1="32.37" x2="36.5" y2="39.13" gradientUnits="userSpaceOnUse"><stop offset="0" stop-color="#a3def6"/><stop offset="1" stop-color="#74c3e1"/></linearGradient><linearGradient id="linear-gradient-9" x1="23.99" y1="36.68" x2="27.73" y2="43.17" gradientUnits="userSpaceOnUse"><stop offset="0" stop-color="#3387af"/><stop offset="1" stop-color="#285a78"/></linearGradient><radialGradient id="radial-gradient" cx="23.61" cy="43.29" r="1.54" gradientUnits="userSpaceOnUse"><stop offset="0.07" stop-color="#fff"/><stop offset="0.52" stop-color="#82bddb"/></radialGradient><linearGradient id="linear-gradient-10" x1="44.65" y1="54.41" x2="35.32" y2="38.24" gradientUnits="userSpaceOnUse"><stop offset="0" stop-color="#386f8d"/><stop offset="1" stop-color="#8dd7f4"/></linearGradient><linearGradient id="linear-gradient-11" x1="43.64" y1="25.98" x2="52.16" y2="40.74" gradientUnits="userSpaceOnUse"><stop offset="0" stop-color="#f5f6f6"/><stop offset="0.99" stop-color="#d2d3d3"/></linearGradient><linearGradient id="linear-gradient-12" x1="40.1" y1="24.08" x2="42.63" y2="28.45" gradientUnits="userSpaceOnUse"><stop offset="0" stop-color="#ababab"/><stop offset="1" stop-color="#5b5b5b"/></linearGradient><linearGradient id="linear-gradient-14" x1="52.09" y1="44.58" x2="43.57" y2="29.83" xlink:href="#linear-gradient-10"/><linearGradient id="linear-gradient-15" x1="38.7" y1="57.85" x2="29.36" y2="41.67" xlink:href="#linear-gradient-10"/><linearGradient id="linear-gradient-16" x1="29.91" y1="40.83" x2="32.9" y2="46.01" gradientUnits="userSpaceOnUse"><stop offset="0" stop-color="#fff"/><stop offset="1" stop-color="#f0f0f0"/></linearGradient><linearGradient id="linear-gradient-17" x1="18.29" y1="20.62" x2="32.87" y2="45.88" xlink:href="#linear-gradient-11"/></defs><g id="Layer"><g id="base_" data-name="base **"><rect class="cls-1" x="12.5" y="10.5" width="36" height="30"/><path class="cls-2" d="M48,11V40H13V11H48m1-1H12V41H49V10Z"/></g><path id="V_GRIS" data-name="V GRIS" class="cls-3" d="M36.5,18V38m-12-20V38"/><path id="V_GRIS-2" data-name="V GRIS" class="cls-4" d="M12.5,25.5v8h36v-8Z"/><g id="top_" data-name="top **"><rect class="cls-5" x="12.5" y="10.5" width="36" height="7"/><path class="cls-6" d="M48,11v6H13V11H48m1-1H12v8H49V10Z"/></g><g id="base_contour_" data-name="base contour  **"><path class="cls-2" d="M48,11V40H13V11H48m1-1H12V41H49V10Z"/></g></g><g id="Layer_4" data-name="Layer 4"><path class="De-emphasized-WHITE-for-Vector-Highlights" d="M41,39.09c-.92-4-5.7-13.47-17.2-13.47S7.52,35.1,6.6,39.1l15.51,5a1.73,1.73,0,0,0,3.38,0L41,39.1Z"/><g id="KPI"><path class="cls-7" d="M41,39.09h0L23.79,44.68,6.6,39.1c.92-4,5.7-13.48,17.2-13.48S40.08,35.09,41,39.09Z"/><path class="cls-8" d="M6.6,39.1c.92-4,5.7-13.48,17.2-13.48S40.08,35.09,41,39.09h0"/><path class="RED-Error-2" d="M14,31.8a15,15,0,0,0-4.47,6.44l3.29,1.07a11.66,11.66,0,0,1,3.21-4.71Z"/><path class="YELLOW-Warning" d="M15.41,30.75l1.91,2.81h0a10.32,10.32,0,0,1,5.17-1.85V28.24A13.67,13.67,0,0,0,15.41,30.75Z"/><path class="GREEN-Ok-/-Validation" d="M24.5,28.24v3.47a11.83,11.83,0,0,1,5.61,1.85h0l2.07-2.81A15.64,15.64,0,0,0,24.5,28.24Z"/><path class="Blue-TOP-6" d="M33.57,31.8l-2,2.8a11.72,11.72,0,0,1,3.21,4.7L38,38.24A15,15,0,0,0,33.57,31.8Z"/><path class="cls-9" d="M28.93,36.08a1.31,1.31,0,0,0-1.3-1.3,1.28,1.28,0,0,0-1.17.76l-3.55,7.69a1.29,1.29,0,0,0-.12.54,1.3,1.3,0,0,0,2.48.54l3.54-7.69A1.29,1.29,0,0,0,28.93,36.08Z"/><circle class="cls-10" cx="24.03" cy="43.96" r="1.54"/></g></g><g id="Medical_device" data-name="Medical device"><path class="De-emphasized-WHITE-for-Vector-Highlights" d="M52.66,41.12l.25-.27c.11-.11.21-.23.31-.35l.22-.25.29-.38.18-.23.29-.41c0-.06.09-.13.14-.2s.19-.29.28-.43a1.74,1.74,0,0,1,.11-.18c.09-.15.18-.3.26-.45l.09-.15c.08-.16.17-.32.25-.49l.06-.11.24-.51,0-.07c.08-.18.16-.36.23-.54v0A15.17,15.17,0,0,0,57,29.33a1.53,1.53,0,0,0-.43-.89l-1.17-1.17a3.25,3.25,0,0,0,.11-.77,3,3,0,1,0-3,3,3.25,3.25,0,0,0,.77-.11l.76.76a12.92,12.92,0,0,1-1.19,5.35q-.18.39-.39.78a.43.43,0,0,0,0,.07c-.13.24-.27.48-.43.72a1.3,1.3,0,0,1-.1.15q-.21.33-.45.66l-.18.23-.47.57-.29.31-.47.5-.43.38-.45.41-.61.46-.39.3c-.36.25-.74.49-1.14.73-.4-.24-.78-.48-1.14-.73l-.4-.3c-.21-.16-.42-.31-.61-.47l-.46-.4L44,39.48c-.17-.16-.32-.33-.47-.49l-.29-.31c-.17-.19-.32-.38-.47-.58a2.11,2.11,0,0,1-.19-.23c-.16-.22-.31-.43-.45-.65l-.1-.15c-.16-.24-.3-.49-.43-.73l0-.06q-.21-.39-.39-.78h0A12.58,12.58,0,0,1,40,30.16l.76-.77a3.25,3.25,0,0,0,.77.11,3,3,0,1,0-3-3,3.25,3.25,0,0,0,.11.77l-1.17,1.17a1.53,1.53,0,0,0-.43.89,15.17,15.17,0,0,0,1.09,6.73v0c.07.18.15.36.23.54l0,.07.24.51.06.11c.08.17.17.33.25.49L39,38c.08.15.17.3.26.45a1.74,1.74,0,0,1,.11.18c.09.14.18.29.28.43s.09.14.14.2l.29.41.18.23.29.38.22.25c.1.12.2.24.31.35l.25.27.32.33.29.29.33.3.34.3.33.29.4.3c.11.09.22.18.34.26s.3.22.45.32a4,4,0,0,0,.34.23l.55.36.29.18.19.1s0,.08,0,.12a6,6,0,0,1-10.44,4,6.31,6.31,0,0,1-.69-.94,5,5,0,1,0-2.92.91,8.57,8.57,0,0,0,.56,1,9,9,0,0,0,16.49-5s0-.08,0-.12l.19-.1L49,44.1l.55-.36a4,4,0,0,0,.34-.23c.15-.1.31-.21.45-.32s.23-.17.34-.26l.4-.3.33-.29.34-.3.33-.3.29-.29Zm-24.23,2.3A3,3,0,1,1,33,45.94a2.93,2.93,0,0,1-1.61.48,2.88,2.88,0,0,1-.59-.06A3,3,0,0,1,28.43,43.42Z"/><path class="cls-11" d="M47,43a1.5,1.5,0,0,0-1.5,1.5,6,6,0,0,1-10.44,4,6.91,6.91,0,0,1-3.05.95,9,9,0,0,0,16.49-5A1.5,1.5,0,0,0,47,43Z"/><path class="SINGLE-White-Item" d="M57,29.33a1.53,1.53,0,0,0-.43-.89l-3-3a1.5,1.5,0,0,0-2.12,2.12L54,30.15a13.36,13.36,0,0,1-7,11.62,13.24,13.24,0,0,1-7-11.61l2.59-2.6a1.5,1.5,0,0,0-2.12-2.12l-3,3a1.53,1.53,0,0,0-.43.89c0,.41-1,10,9.22,15.46h0l.06,0,.2.07.12.05A1.65,1.65,0,0,0,47,45h0a1.65,1.65,0,0,0,.38,0l.13-.05.19-.07.06,0h0C58,39.37,57,29.74,57,29.33Z"/><circle class="Medium-Grey" cx="41.5" cy="26.5" r="3"/><circle class="Medium-Grey" cx="52.5" cy="26.5" r="3"/><path class="cls-12" d="M52.84,35.5A14,14,0,0,1,47,41.77a14,14,0,0,1-5.86-6.27H37.89a16.73,16.73,0,0,0,8.34,9.29h0l.06,0,.2.07.12.05A1.65,1.65,0,0,0,47,45h0a1.65,1.65,0,0,0,.38,0l.13-.05.19-.07.06,0h0a16.73,16.73,0,0,0,8.34-9.29Z"/><path class="cls-13" d="M33.66,45.86a4,4,0,0,1-2.16.64,4.15,4.15,0,0,1-.79-.08,8.83,8.83,0,0,0,1.3,3,6.91,6.91,0,0,0,3.05-.95A6,6,0,0,1,33.66,45.86Z"/><path class="White-TOP" d="M33,45.94a2.93,2.93,0,0,1-1.61.48,2.88,2.88,0,0,1-.59-.06,3,3,0,1,1,2.2-.42Z"/><path class="cls-14" d="M31.5,38.5a5,5,0,0,0,0,10l.36,0A5.07,5.07,0,0,0,34,47.8a5,5,0,0,0-2.54-9.3ZM33,45.94a2.93,2.93,0,0,1-1.61.48,2.88,2.88,0,0,1-.59-.06,3,3,0,1,1,2.2-.42Z"/></g></svg>