<?xml version="1.0" encoding="utf-8"?>
<!-- Generator: Adobe Illustrator 24.0.0, SVG Export Plug-In . SVG Version: 6.00 Build 0)  -->
<svg version="1.1" id="Layer_1" xmlns="http://www.w3.org/2000/svg" xmlns:xlink="http://www.w3.org/1999/xlink" x="0px" y="0px"
	 viewBox="0 0 64 64" style="enable-background:new 0 0 64 64;" xml:space="preserve">
<style type="text/css">
	
		.De_x002D_emphasized_x0020_WHITE_x0020_for_x0020_Vector_x0020_Highlights{opacity:0.5;fill:#FFFFFF;stroke:#FFFFFF;stroke-width:3;stroke-linejoin:round;stroke-miterlimit:10;}
	.Sketch_x0020_Blue_x0020_Fill_x0020_14{fill:url(#SVGID_1_);}
	.Sketch_x0020_Blue_x0020_Fill_x0020_15{fill:url(#SVGID_2_);}
	.st0{fill:url(#SVGID_3_);}
	.st1{fill:url(#SVGID_4_);stroke:#787878;stroke-linecap:round;stroke-linejoin:round;stroke-miterlimit:10;}
	.st2{fill:url(#SVGID_5_);stroke:#787878;stroke-linecap:round;stroke-linejoin:round;stroke-miterlimit:10;}
	.st3{fill:url(#SVGID_6_);}
	.st4{fill:none;stroke:#787878;stroke-linecap:round;stroke-linejoin:round;stroke-miterlimit:10;}
	.st5{fill:none;stroke:#323232;stroke-linecap:round;stroke-linejoin:round;stroke-miterlimit:10;}
	.st6{fill:url(#SVGID_7_);stroke:#333332;stroke-linecap:round;stroke-linejoin:round;stroke-miterlimit:1;}
	.st7{fill:url(#SVGID_8_);stroke:#333332;stroke-linecap:round;stroke-linejoin:round;stroke-miterlimit:1;}
	.st8{fill:#797979;}
	.st9{opacity:0.4;fill:#FFFFFF;}
	.st10{opacity:0.5;}
	.st11{fill:#FFFFFF;}
	.st12{fill:url(#SVGID_9_);stroke:#053755;stroke-linecap:round;stroke-linejoin:round;stroke-miterlimit:1;}
	.st13{fill:url(#SVGID_10_);stroke:#053755;stroke-linecap:round;stroke-linejoin:round;stroke-miterlimit:1;}
	.st14{fill:none;stroke:#FFFFFF;stroke-width:3;stroke-linejoin:round;stroke-miterlimit:10;}
	.st15{fill:url(#SVGID_11_);stroke:#053755;stroke-linecap:round;stroke-linejoin:round;stroke-miterlimit:1;}
	.st16{fill:url(#SVGID_12_);stroke:#053755;stroke-linecap:round;stroke-linejoin:round;stroke-miterlimit:1;}
	.st17{fill:url(#SVGID_13_);}
	.st18{fill:url(#SVGID_14_);}
	.st19{fill:url(#SVGID_15_);}
	.st20{fill:url(#SVGID_16_);}
	.st21{fill:url(#SVGID_17_);}
	.st22{fill:url(#SVGID_18_);}
</style>
<linearGradient id="SVGID_1_" gradientUnits="userSpaceOnUse" x1="0" y1="0" x2="0.5" y2="0.866">
	<stop  offset="0" style="stop-color:#3388B0"/>
	<stop  offset="0.9921" style="stop-color:#2A5B79"/>
</linearGradient>
<linearGradient id="SVGID_2_" gradientUnits="userSpaceOnUse" x1="0" y1="0" x2="0.5" y2="0.866">
	<stop  offset="0" style="stop-color:#3388B0"/>
	<stop  offset="0.9921" style="stop-color:#2A5B79"/>
</linearGradient>
<g>
	<linearGradient id="SVGID_3_" gradientUnits="userSpaceOnUse" x1="18.7813" y1="45.6667" x2="46.5085" y2="45.6667">
		<stop  offset="0.1341" style="stop-color:#E1E1E1"/>
		<stop  offset="0.269" style="stop-color:#F1F0F0"/>
		<stop  offset="0.66" style="stop-color:#CCCCCC"/>
		<stop  offset="0.8" style="stop-color:#E1E1E1"/>
		<stop  offset="0.96" style="stop-color:#B9B9B9"/>
	</linearGradient>
	<path class="st0" d="M15.3,37.3v9.2c0,4.1,7.5,7.5,16.7,7.5s16.7-3.4,16.7-7.5v-9.2H15.3z"/>
	<linearGradient id="SVGID_4_" gradientUnits="userSpaceOnUse" x1="18.9135" y1="35.8333" x2="46.3634" y2="35.8333">
		<stop  offset="0.1341" style="stop-color:#E1E1E1"/>
		<stop  offset="0.269" style="stop-color:#F1F0F0"/>
		<stop  offset="0.66" style="stop-color:#CCCCCC"/>
		<stop  offset="0.8" style="stop-color:#E1E1E1"/>
		<stop  offset="0.96" style="stop-color:#B9B9B9"/>
	</linearGradient>
	<path class="st1" d="M15.5,27.5v9.2c0,4.1,7.4,7.5,16.5,7.5s16.5-3.4,16.5-7.5v-9.2H15.5z"/>
	<linearGradient id="SVGID_5_" gradientUnits="userSpaceOnUse" x1="18.9135" y1="25.8333" x2="46.3634" y2="25.8333">
		<stop  offset="0.1341" style="stop-color:#E1E1E1"/>
		<stop  offset="0.269" style="stop-color:#F1F0F0"/>
		<stop  offset="0.66" style="stop-color:#CCCCCC"/>
		<stop  offset="0.8" style="stop-color:#E1E1E1"/>
		<stop  offset="0.96" style="stop-color:#B9B9B9"/>
	</linearGradient>
	<path class="st2" d="M15.5,17.5v9.2c0,4.1,7.4,7.5,16.5,7.5s16.5-3.4,16.5-7.5v-9.2H15.5z"/>
	<linearGradient id="SVGID_6_" gradientUnits="userSpaceOnUse" x1="19.8218" y1="12.4067" x2="46.1041" y2="21.2406">
		<stop  offset="0.18" style="stop-color:#CCCCCC"/>
		<stop  offset="0.32" style="stop-color:#F1F0F0"/>
		<stop  offset="0.66" style="stop-color:#B9B9B9"/>
		<stop  offset="0.96" style="stop-color:#B9B9B9"/>
	</linearGradient>
	<ellipse class="st3" cx="32" cy="16.5" rx="16.7" ry="7.5"/>
	<path class="st4" d="M48.7,16.5c0,4.1-7.5,7.5-16.7,7.5s-16.7-3.4-16.7-7.5"/>
	<path class="st5" d="M48.5,16.7c0-4.1-7.4-7.5-16.5-7.5s-16.5,3.4-16.5,7.5c0,0.3,0,0.6,0.1,0.8h-0.1v9.2c0,0.3,0,0.6,0.1,0.8h-0.1
		v9.2c0,0.3,0,0.6,0.1,0.8h-0.1v9.2c0,4.1,7.4,7.5,16.5,7.5s16.5-3.4,16.5-7.5v-9.2h-0.1c0.1-0.3,0.1-0.6,0.1-0.8v-9.2h-0.1
		c0.1-0.3,0.1-0.6,0.1-0.8v-9.2h-0.1C48.5,17.2,48.5,16.9,48.5,16.7z"/>
</g>
<g>
	<g>
		<linearGradient id="SVGID_7_" gradientUnits="userSpaceOnUse" x1="11.3499" y1="36.5797" x2="22.1526" y2="55.2907">
			<stop  offset="0" style="stop-color:#F4F6F6"/>
			<stop  offset="0.9921" style="stop-color:#D2D3D3"/>
		</linearGradient>
		<path class="st6" d="M25,35.5H8c-0.3,0-0.5,0.2-0.5,0.5V55c0,0.3,0.2,0.5,0.5,0.5H25c0.3,0,0.5-0.2,0.5-0.5V36
			C25.5,35.7,25.3,35.5,25,35.5z"/>
		<linearGradient id="SVGID_8_" gradientUnits="userSpaceOnUse" x1="14.5357" y1="32.5978" x2="18.272" y2="39.0693">
			<stop  offset="0" style="stop-color:#F4F6F6"/>
			<stop  offset="0.9921" style="stop-color:#D2D3D3"/>
		</linearGradient>
		<path class="st7" d="M22,34.5h-1.5V33c0-0.3-0.2-0.5-0.5-0.5H13c-0.3,0-0.5,0.2-0.5,0.5v1.5H11c-0.3,0-0.5,0.2-0.5,0.5V37
			c0,0.3,0.2,0.5,0.5,0.5H22c0.3,0,0.5-0.2,0.5-0.5V35C22.5,34.7,22.3,34.5,22,34.5z"/>
		<polygon class="st8" points="22,36 22,37 11,37 11,36 10,36 10,37 10,38 10.9,38 23,38 23,37.5 23,37 23,36 		"/>
		<rect x="13" y="33.3" class="st9" width="6.9" height="0.9"/>
		<rect x="11" y="35.2" class="st9" width="11" height="0.9"/>
	</g>
</g>
<g>
	<g class="st10">
		<g>
			<polygon class="st11" points="48.5,46.5 48.5,42.5 39.5,42.5 39.5,38.5 38.5,38.5 33,43.7 33,45.1 38.5,50.5 39.5,50.5 
				39.5,46.5 			"/>
			<polygon class="st11" points="43.5,34.5 43.5,38.5 51.5,38.5 51.5,42.5 52.5,42.5 58,37.3 58,35.8 52.5,30.5 51.5,30.5 
				51.5,34.5 			"/>
		</g>
		<g>
			
				<linearGradient id="SVGID_9_" gradientUnits="userSpaceOnUse" x1="52.2546" y1="42.1" x2="42.5954" y2="25.3698" gradientTransform="matrix(0 -1 1 0 7.0827 91.4706)">
				<stop  offset="0" style="stop-color:#386F8D"/>
				<stop  offset="1" style="stop-color:#8DD7F4"/>
			</linearGradient>
			<polygon class="st12" points="48.5,46.5 48.5,42.5 39.5,42.5 39.5,38.5 38.5,38.5 33,43.7 33,45.1 38.5,50.5 39.5,50.5 
				39.5,46.5 			"/>
			
				<linearGradient id="SVGID_10_" gradientUnits="userSpaceOnUse" x1="-120.9704" y1="-127.7208" x2="-130.0672" y2="-143.477" gradientTransform="matrix(0 1 -1 0 -84.9173 162.4706)">
				<stop  offset="0" style="stop-color:#8DD7F4"/>
				<stop  offset="1" style="stop-color:#386F8D"/>
			</linearGradient>
			<polygon class="st13" points="43.5,34.5 43.5,38.5 51.5,38.5 51.5,42.5 52.5,42.5 58,37.3 58,35.8 52.5,30.5 51.5,30.5 
				51.5,34.5 			"/>
		</g>
		<g>
			<polygon class="st14" points="48.5,46.5 48.5,42.5 39.5,42.5 39.5,38.5 38.5,38.5 33,43.7 33,45.1 38.5,50.5 39.5,50.5 
				39.5,46.5 			"/>
			<polygon class="st14" points="43.5,34.5 43.5,38.5 51.5,38.5 51.5,42.5 52.5,42.5 58,37.3 58,35.8 52.5,30.5 51.5,30.5 
				51.5,34.5 			"/>
		</g>
	</g>
	<g>
		
			<linearGradient id="SVGID_11_" gradientUnits="userSpaceOnUse" x1="52.2546" y1="42.1" x2="42.5954" y2="25.3698" gradientTransform="matrix(0 -1 1 0 7.0827 91.4706)">
			<stop  offset="0" style="stop-color:#386F8D"/>
			<stop  offset="1" style="stop-color:#8DD7F4"/>
		</linearGradient>
		<polygon class="st15" points="48.5,46.5 48.5,42.5 39.5,42.5 39.5,38.5 38.5,38.5 33,43.7 33,45.1 38.5,50.5 39.5,50.5 39.5,46.5 
					"/>
		
			<linearGradient id="SVGID_12_" gradientUnits="userSpaceOnUse" x1="-120.9704" y1="-127.7208" x2="-130.0672" y2="-143.477" gradientTransform="matrix(0 1 -1 0 -84.9173 162.4706)">
			<stop  offset="0" style="stop-color:#8DD7F4"/>
			<stop  offset="1" style="stop-color:#386F8D"/>
		</linearGradient>
		<polygon class="st16" points="43.5,34.5 43.5,38.5 51.5,38.5 51.5,42.5 52.5,42.5 58,37.3 58,35.8 52.5,30.5 51.5,30.5 51.5,34.5 
					"/>
	</g>
</g>
<linearGradient id="SVGID_13_" gradientUnits="userSpaceOnUse" x1="11.3579" y1="41.0252" x2="12.4051" y2="42.839">
	<stop  offset="0" style="stop-color:#3388B0"/>
	<stop  offset="0.9921" style="stop-color:#2A5B79"/>
</linearGradient>
<polygon class="st17" points="9.5,42.2 10.4,41.3 11,41.9 13,40 13.9,41 11,43.8 "/>
<linearGradient id="SVGID_14_" gradientUnits="userSpaceOnUse" x1="11.3579" y1="44.8363" x2="12.4051" y2="46.6501">
	<stop  offset="0" style="stop-color:#3388B0"/>
	<stop  offset="0.9921" style="stop-color:#2A5B79"/>
</linearGradient>
<polygon class="st18" points="9.5,46 10.4,45.1 11,45.7 13,43.8 13.9,44.8 11,47.6 "/>
<linearGradient id="SVGID_15_" gradientUnits="userSpaceOnUse" x1="11.3579" y1="48.6473" x2="12.4051" y2="50.4611">
	<stop  offset="0" style="stop-color:#3388B0"/>
	<stop  offset="0.9921" style="stop-color:#2A5B79"/>
</linearGradient>
<polygon class="st19" points="9.5,49.8 10.4,48.9 11,49.5 13,47.6 13.9,48.6 11,51.4 "/>
<linearGradient id="SVGID_16_" gradientUnits="userSpaceOnUse" x1="17.436" y1="40.6571" x2="19.6678" y2="44.5227">
	<stop  offset="0" style="stop-color:#3388B0"/>
	<stop  offset="0.9921" style="stop-color:#2A5B79"/>
</linearGradient>
<rect x="14" y="42" class="st20" width="9" height="1"/>
<linearGradient id="SVGID_17_" gradientUnits="userSpaceOnUse" x1="17.436" y1="44.6571" x2="19.6678" y2="48.5227">
	<stop  offset="0" style="stop-color:#3388B0"/>
	<stop  offset="0.9921" style="stop-color:#2A5B79"/>
</linearGradient>
<rect x="14" y="46" class="st21" width="9" height="1"/>
<linearGradient id="SVGID_18_" gradientUnits="userSpaceOnUse" x1="17.436" y1="48.6571" x2="19.6678" y2="52.5227">
	<stop  offset="0" style="stop-color:#3388B0"/>
	<stop  offset="0.9921" style="stop-color:#2A5B79"/>
</linearGradient>
<rect x="14" y="50" class="st22" width="9" height="1"/>
</svg>
