<svg id="ENOVIA_socle_copy_2" data-name="ENOVIA  socle copy 2" xmlns="http://www.w3.org/2000/svg" xmlns:xlink="http://www.w3.org/1999/xlink" viewBox="0 0 64 64"><defs><style>.cls-1,.cls-18{fill:none;}.cls-2{fill:url(#linear-gradient);}.cls-3{fill:#323232;}.cls-4,.cls-5{stroke:#323232;opacity:0.3;}.cls-22,.cls-23,.cls-25,.cls-27,.cls-28,.cls-29,.cls-30,.cls-31,.cls-4,.cls-5{stroke-linejoin:round;}.cls-4{fill:url(#linear-gradient-2);}.cls-5{fill:#e1e1e1;}.cls-6{fill:url(#Dark_BLUE_gradient_LEFT);}.cls-7{fill:#063755;}.cls-8{clip-path:url(#clip-path);}.cls-9{fill:#fff;}.cls-10{fill:url(#linear-gradient-3);}.cls-11{fill:url(#linear-gradient-4);}.cls-12{fill:url(#linear-gradient-5);}.cls-13{fill:#003755;}.cls-14{fill:url(#linear-gradient-6);}.cls-15{fill:#963200;}.cls-16{fill:url(#linear-gradient-7);}.cls-17{fill:#831300;}.cls-18{stroke:#003755;}.cls-18,.cls-19{stroke-miterlimit:10;}.cls-19{stroke:#003654;stroke-width:3px;fill:url(#linear-gradient-8);}.cls-19,.cls-22,.cls-23,.cls-25,.cls-27,.cls-28,.cls-29,.cls-30,.cls-31{stroke-linecap:round;}.cls-20{fill:url(#radial-gradient);}.cls-21{fill:#003654;}.cls-22,.cls-23,.cls-25,.cls-27,.cls-28{stroke:#6d6d6d;}.cls-22{stroke-width:0.23px;fill:url(#linear-gradient-9);}.cls-23{fill:url(#linear-gradient-10);}.cls-24{fill:url(#linear-gradient-11);}.cls-25{fill:url(#linear-gradient-12);}.cls-26{fill:url(#linear-gradient-13);}.cls-27{stroke-width:0.91px;fill:url(#linear-gradient-14);}.cls-28{fill:url(#linear-gradient-15);}.cls-29,.cls-30,.cls-31{stroke:#00415f;}.cls-29{fill:url(#linear-gradient-16);}.cls-30{fill:url(#linear-gradient-17);}.cls-31{fill:url(#linear-gradient-18);}.cls-32{fill:#343434;}</style><linearGradient id="linear-gradient" x1="20.15" y1="3.08" x2="40.85" y2="38.92" gradientUnits="userSpaceOnUse"><stop offset="0" stop-color="#f4f5f5"/><stop offset="0.99" stop-color="#d2d2d2"/></linearGradient><linearGradient id="linear-gradient-2" x1="24.5" y1="25" x2="36.5" y2="25" xlink:href="#linear-gradient"/><linearGradient id="Dark_BLUE_gradient_LEFT" x1="20.28" y1="13.12" x2="47" y2="7.57" gradientUnits="userSpaceOnUse"><stop offset="0" stop-color="#82bedc"/><stop offset="1" stop-color="#285a78"/></linearGradient><clipPath id="clip-path"><polygon id="cadre" class="cls-1" points="47 37 26 43 5 37 5 17 26 17 47 17 47 37"/></clipPath><linearGradient id="linear-gradient-3" x1="33.86" y1="33.58" x2="42.1" y2="33.58" gradientUnits="userSpaceOnUse"><stop offset="0" stop-color="#379614"/><stop offset="1" stop-color="#55b432"/></linearGradient><linearGradient id="linear-gradient-4" x1="33.86" y1="33.58" x2="42.1" y2="33.58" gradientUnits="userSpaceOnUse"><stop offset="0" stop-color="#28780a"/><stop offset="1" stop-color="#3c9b19"/></linearGradient><linearGradient id="linear-gradient-5" x1="26.57" y1="28.37" x2="35.24" y2="28.37" gradientUnits="userSpaceOnUse"><stop offset="0" stop-color="#8cd7f5"/><stop offset="1" stop-color="#376e8c"/></linearGradient><linearGradient id="linear-gradient-6" x1="16.08" y1="28.4" x2="24.71" y2="28.4" gradientUnits="userSpaceOnUse"><stop offset="0" stop-color="#fbe86a"/><stop offset="1" stop-color="#f1cf2f"/></linearGradient><linearGradient id="linear-gradient-7" x1="9.6" y1="33.66" x2="17.13" y2="33.66" gradientUnits="userSpaceOnUse"><stop offset="0" stop-color="#fc3f05"/><stop offset="1" stop-color="#c10e00"/></linearGradient><linearGradient id="linear-gradient-8" x1="26.38" y1="37.77" x2="44.35" y2="57.47" gradientUnits="userSpaceOnUse"><stop offset="0" stop-color="#f0f0f0"/><stop offset="1" stop-color="#b3b3b3"/></linearGradient><radialGradient id="radial-gradient" cx="48.78" cy="14.1" r="2.45" gradientTransform="matrix(0.97, 0.19, -0.19, 0.98, -19.71, 19.17)" gradientUnits="userSpaceOnUse"><stop offset="0.07" stop-color="#fff"/><stop offset="0.52" stop-color="#82bddb"/></radialGradient><linearGradient id="linear-gradient-9" x1="41.25" y1="32.07" x2="65.79" y2="54.51" xlink:href="#linear-gradient-8"/><linearGradient id="linear-gradient-10" x1="36.91" y1="35.21" x2="53.55" y2="50.43" xlink:href="#linear-gradient-8"/><linearGradient id="linear-gradient-11" x1="51.59" y1="46.49" x2="89.07" y2="87.59" xlink:href="#linear-gradient-8"/><linearGradient id="linear-gradient-12" x1="47.29" y1="50.27" x2="73.98" y2="79.53" xlink:href="#linear-gradient-8"/><linearGradient id="linear-gradient-13" x1="22.4" y1="15.19" x2="43.05" y2="52.99" xlink:href="#linear-gradient-8"/><linearGradient id="linear-gradient-14" x1="36.69" y1="35.19" x2="53.42" y2="50.49" xlink:href="#linear-gradient-8"/><linearGradient id="linear-gradient-15" x1="44.8" y1="43.4" x2="50.46" y2="53.76" xlink:href="#linear-gradient-8"/><linearGradient id="linear-gradient-16" x1="41.66" y1="31.6" x2="70.04" y2="53.3" gradientUnits="userSpaceOnUse"><stop offset="0" stop-color="#92d5ee"/><stop offset="0.48" stop-color="#599bb4"/><stop offset="1" stop-color="#185971"/></linearGradient><linearGradient id="linear-gradient-17" x1="48.73" y1="34.68" x2="66.89" y2="45.23" xlink:href="#linear-gradient-16"/><linearGradient id="linear-gradient-18" x1="24.39" y1="12.12" x2="57.82" y2="60.29" xlink:href="#linear-gradient-16"/></defs><title>2765_A33AAe__R21XArtboard 1</title><g id="_1X_copy_2" data-name="1X *** copy 2"><g id="tableau_copy_3" data-name="tableau  ** copy 3"><g id="base_" data-name="base **"><rect class="cls-2" x="12.5" y="7.5" width="36" height="27"/><path class="cls-3" d="M48,8V34H13V8H48m1-1H12V35H49V7Z"/></g><path id="V_GRIS" data-name="V GRIS" class="cls-4" d="M36.5,15V35m-12-20V35"/><path id="V_GRIS-2" data-name="V GRIS" class="cls-5" d="M12.5,22.5v5h36v-5Z"/><g id="top_" data-name="top **"><rect class="cls-6" x="12.5" y="7.5" width="36" height="7"/><path class="cls-7" d="M48,8v6H13V8H48m1-1H12v8H49V7Z"/></g><g id="base_contour_" data-name="base contour  **"><path class="cls-3" d="M48,8V34H13V8H48m1-1H12V35H49V7Z"/></g></g><g id="cadran_copy_4" data-name="cadran  ** copy 4"><g class="cls-8"><path id="fond_crc" data-name="fond crc" class="cls-9" d="M45.39,37.16c0,10.78-8.74,13.53-19.53,13.53S5.33,47.94,5.33,37.16s9.75-17.53,20.53-17.53S45.39,26.37,45.39,37.16Z"/><g id="ROUE_OK" data-name="ROUE OK"><g id="_4_" data-name="4**"><path class="cls-10" d="M37.57,38.3l4.53-1.47a17.33,17.33,0,0,0-5.42-8l-2.82,3.87A12.55,12.55,0,0,1,37.57,38.3Z"/><path class="cls-11" d="M36.76,29.59a16.87,16.87,0,0,1,4.71,6.92l-3.59,1.17a13.05,13.05,0,0,0-3.35-5l2.23-3.07m-.08-.73-2.82,3.87a12.55,12.55,0,0,1,3.71,5.57l4.53-1.47a17.33,17.33,0,0,0-5.42-8Z"/></g><g id="_3_" data-name="3 **"><path class="cls-12" d="M32.73,31.55a12.73,12.73,0,0,0-6.16-2.08V25.19a16.86,16.86,0,0,1,8.67,2.91Z"/><path class="cls-13" d="M26.82,25.45a16.6,16.6,0,0,1,8.06,2.71l-2.21,3.05a13.06,13.06,0,0,0-5.85-2V25.45m-.5-.52v4.78a12.41,12.41,0,0,1,6.47,2.19L35.59,28a17.09,17.09,0,0,0-9.27-3.11Z"/></g><g id="_2_" data-name="2**"><path class="cls-14" d="M16.08,28.16a16.85,16.85,0,0,1,8.63-3v4.29a12.75,12.75,0,0,0-6.12,2.13Z"/><path class="cls-15" d="M24.46,25.46v3.79a12.92,12.92,0,0,0-5.81,2l-2.21-3.05a16.58,16.58,0,0,1,8-2.76m.5-.53a17.18,17.18,0,0,0-9.23,3.17L18.53,32A12.47,12.47,0,0,1,25,29.71V24.93Z"/></g><g id="_1_" data-name="1**"><path class="cls-16" d="M9.6,36.71a17.11,17.11,0,0,1,5-7.42l2.52,3.48A12.85,12.85,0,0,0,13.66,38Z"/><path class="cls-17" d="M14.57,29.66l2.23,3.08a12.92,12.92,0,0,0-3.29,5L9.92,36.55a16.8,16.8,0,0,1,4.65-6.89m.08-.73a17.3,17.3,0,0,0-5.36,7.94l4.53,1.47a12.61,12.61,0,0,1,3.65-5.54l-2.82-3.87Z"/></g></g><circle id="cercle_contour" data-name="cercle contour" class="cls-18" cx="25.85" cy="42.16" r="19.53"/><circle id="cercle_contour-2" data-name="cercle contour" class="cls-18" cx="25.85" cy="42.16" r="19.53"/></g><g id="aiguille_" data-name="aiguille **"><line id="aiguille" class="cls-19" x1="25.5" y1="43.5" x2="29.6" y2="34.6"/><g id="M2_S1" data-name="M2 S1"><path class="cls-20" d="M25.5,46a2.46,2.46,0,0,1-1.22-.33,2.35,2.35,0,0,1-1.19-1.77,2.51,2.51,0,0,1,.61-2,2.4,2.4,0,0,1,1.8-.82,2.46,2.46,0,0,1,1.22.33,2.35,2.35,0,0,1,1.19,1.77,2.54,2.54,0,0,1-.61,2A2.43,2.43,0,0,1,25.5,46Z"/><path class="cls-21" d="M25.5,41.27h0a2.3,2.3,0,0,1,1.12.3,2.16,2.16,0,0,1,1.07,1.6A2.31,2.31,0,0,1,27.14,45a2.21,2.21,0,0,1-1.64.74,2.3,2.3,0,0,1-1.12-.3,2.16,2.16,0,0,1-1.07-1.6A2.31,2.31,0,0,1,23.86,42a2.21,2.21,0,0,1,1.64-.74m0-.44a2.67,2.67,0,0,0-2.62,3.05,2.54,2.54,0,0,0,1.29,1.93,2.65,2.65,0,0,0,3.95-2.69,2.54,2.54,0,0,0-1.29-1.93,2.66,2.66,0,0,0-1.33-.36Z"/></g><g id="M2_S1-2" data-name="M2 S1"><path class="cls-21" d="M25.5,41.33h0a2.28,2.28,0,0,1,1.09.29,2.12,2.12,0,0,1,1,1.56A2.19,2.19,0,0,1,27.09,45a2.1,2.1,0,0,1-1.59.72,2.28,2.28,0,0,1-1.09-.29,2.12,2.12,0,0,1-1-1.56,2.23,2.23,0,0,1,.53-1.77,2.14,2.14,0,0,1,1.6-.72m0-.5a2.67,2.67,0,0,0-2.62,3.05,2.54,2.54,0,0,0,1.29,1.93,2.65,2.65,0,0,0,3.95-2.69,2.54,2.54,0,0,0-1.29-1.93,2.66,2.66,0,0,0-1.33-.36Z"/></g></g></g><g id="cube_copy_3" data-name="cube ** copy 3"><polygon class="cls-22" points="34 35 44.05 30 51.72 32.08 42 37.41 34 35"/><line class="cls-23" x1="42" y1="37.41" x2="34" y2="35"/><polygon class="cls-24" points="49.02 48.34 59 42.3 59 50 49.02 56 49.02 48.34"/><line id="angle" class="cls-25" x1="49.02" y1="56" x2="49.02" y2="48.34"/><polygon class="cls-26" points="42 37.41 42 46.32 49.02 48.34 49.02 56 34 52 34 35 42 37.41"/><line class="cls-27" x1="41.8" y1="37.4" x2="33.76" y2="34.98"/><line class="cls-28" x1="49.5" y1="48" x2="49.5" y2="56"/><polyline class="cls-29" points="59 42.31 49.56 48.49 49.56 39.54 59.02 34.02"/><polyline class="cls-30" points="59.02 34.02 49.56 39.54 42 37.4 51.68 32.06"/><polygon class="cls-31" points="49.56 39.54 49.56 48.49 42.01 46.33 42 37.4 49.56 39.54"/><path class="cls-32" d="M44.05,30l15,4V50L49,56,34,52V35l10-5M44,29l-.31.15-10,5-.5.26V52.7l.68.18,15,4,.37.1.33-.2,10-6,.44-.26V33.3l-.67-.18-15-4L44,29Z"/></g></g></svg>