<svg xmlns="http://www.w3.org/2000/svg" xmlns:xlink="http://www.w3.org/1999/xlink" viewBox="0 0 64 64"><defs><style>.\33 D-Blue-Left,.\33 D-Blue-Top,.Green-with-Outline,.cls-3,.cls-4,.cls-6{stroke-linecap:round;stroke-linejoin:round;}.Green-with-Outline{fill:url(#linear-gradient);stroke:url(#linear-gradient-2);}.cls-1{fill:url(#linear-gradient-5);}.cls-2{fill:url(#linear-gradient-6);}.\33 D-Blue-Left,.\33 D-Blue-Top,.cls-3,.cls-4{stroke:#053755;}.\33 D-Blue-Left{fill:url(#linear-gradient-7);}.\33 D-Blue-Top{fill:url(#linear-gradient-8);}.Dark-Grey-Fill,.cls-5{fill-rule:evenodd;}.Dark-Grey-Fill{fill:url(#linear-gradient-9);}.cls-3{fill:url(#linear-gradient-10);}.cls-4{fill:url(#linear-gradient-11);}.cls-5{fill:#fff;opacity:0.18;}.cls-6{fill:none;stroke-width:2px;stroke:url(#linear-gradient-12);}.cls-7{fill:#57b847;}</style><linearGradient id="linear-gradient" x1="32.61" y1="32.44" x2="42.06" y2="48.8" gradientUnits="userSpaceOnUse"><stop offset="0" stop-color="#50af28"/><stop offset="1" stop-color="#3c8c19"/></linearGradient><linearGradient id="linear-gradient-2" x1="32.36" y1="32" x2="42.31" y2="49.23" gradientUnits="userSpaceOnUse"><stop offset="0" stop-color="#287300"/><stop offset="0.99" stop-color="#004100"/></linearGradient><linearGradient id="linear-gradient-5" x1="40.04" y1="25.47" x2="43.68" y2="31.77" xlink:href="#linear-gradient-2"/><linearGradient id="linear-gradient-6" x1="33.58" y1="35.09" x2="40.57" y2="47.2" xlink:href="#linear-gradient-2"/><linearGradient id="linear-gradient-7" x1="33.45" y1="43.35" x2="22.44" y2="24.28" gradientUnits="userSpaceOnUse"><stop offset="0" stop-color="#2a5b79"/><stop offset="1" stop-color="#84bedc"/></linearGradient><linearGradient id="linear-gradient-8" x1="32" y1="40.57" x2="21.57" y2="22.51" gradientUnits="userSpaceOnUse"><stop offset="0" stop-color="#74c4e2"/><stop offset="1" stop-color="#a4def6"/></linearGradient><linearGradient id="linear-gradient-9" x1="31.68" y1="40.03" x2="21.02" y2="21.56" gradientUnits="userSpaceOnUse"><stop offset="0" stop-color="#161616"/><stop offset="1" stop-color="#515151"/></linearGradient><linearGradient id="linear-gradient-10" x1="38.46" y1="23.32" x2="36.62" y2="20.13" gradientUnits="userSpaceOnUse"><stop offset="0" stop-color="#386f8d"/><stop offset="1" stop-color="#8dd7f4"/></linearGradient><linearGradient id="linear-gradient-11" x1="16.99" y1="43.53" x2="14.73" y2="39.62" xlink:href="#linear-gradient-10"/><linearGradient id="linear-gradient-12" x1="25.74" y1="27.69" x2="28.11" y2="31.78" gradientUnits="userSpaceOnUse"><stop offset="0" stop-color="#55b432"/><stop offset="1" stop-color="#379614"/></linearGradient></defs><g id="Material"><path class="Green-with-Outline" d="M49.5,44.5s-7,1.86-9.13-10.47L32.5,32.5l-4,10A19.73,19.73,0,0,0,49.5,44.5Z"/><path class="Green-with-Outline" d="M38.5,22.5c5.08-2.9,8.65,4.09,13,3,0,0-3.38,10-11,10A18.43,18.43,0,0,1,33.12,34l-.37-3.26Z"/><path class="cls-1" d="M49,27.67a24.42,24.42,0,0,0-3.51-.36,18.26,18.26,0,0,0-3.48.16,10.64,10.64,0,0,0-3.23.89,6,6,0,0,0-2.36,1.93l0,0a1,1,0,0,1-1.64-1.15l.07-.09a7.88,7.88,0,0,1,3.36-2.18,12.14,12.14,0,0,1,3.72-.59,21.06,21.06,0,0,1,3.65.25,26.34,26.34,0,0,1,3.52.79.17.17,0,0,1,.12.21.18.18,0,0,1-.2.12Z"/><path class="cls-2" d="M32.53,35.94a6.94,6.94,0,0,1,1.86.73,7.76,7.76,0,0,1,3.54,4.21,5.45,5.45,0,0,0,1.68,2.61,5.64,5.64,0,0,0,2.93,1.25h0a.17.17,0,0,1,.15.19.17.17,0,0,1-.17.15,6.15,6.15,0,0,1-3.38-1,6.39,6.39,0,0,1-2.31-2.76,6.43,6.43,0,0,0-2-2.33,5.77,5.77,0,0,0-2.65-1.09h-.06a1,1,0,1,1,.23-2Z"/><path class="3D-Blue-Left" d="M27.5,19.5l9,2A1.86,1.86,0,0,1,38,24.07L30.32,45.22c-.43,1.09-2.06,1.5-3.17,1.12L17.5,43.5a2.16,2.16,0,0,1-1-3l8-20C24.92,19.52,26.46,19.25,27.5,19.5Z"/><path class="3D-Blue-Top" d="M26.5,17.5l8.92,1.8a2.18,2.18,0,0,1,1.52,2.9l-8,20.88a2.17,2.17,0,0,1-2.73,1.27l-9.71-3a2,2,0,0,1-1-2.81l8-20C23.92,17.52,25,17.1,26.5,17.5Z"/><path class="Dark-Grey-Fill" d="M26.73,42.78a1,1,0,0,1-.23,0l-9-2.84a.7.7,0,0,1-.43-.39.71.71,0,0,1,0-.57l8-19.53A.71.71,0,0,1,25.7,19l.17,0,8.72,1.69a.7.7,0,0,1,.47.37.72.72,0,0,1,0,.6L27.41,42.31A.74.74,0,0,1,26.73,42.78Z"/><line class="cls-3" x1="36.88" y1="20.5" x2="38.22" y2="22.97"/><line class="cls-4" x1="15.14" y1="40.01" x2="16.59" y2="43.15"/><path class="cls-5" d="M26.93,42.76a.71.71,0,0,0,.51-.43L35.1,21.65a.72.72,0,0,0,0-.6.7.7,0,0,0-.47-.37L25.87,19l-.17,0a.73.73,0,0,0-.66.43Z"/><polyline class="cls-6" points="22 31 24 33 31 27"/></g><g id="Circle"><path class="cls-7" d="M32,6l1.86,1.86L32,9.71A22.29,22.29,0,1,1,9.71,32a21.6,21.6,0,0,1,.34-3.71A30.88,30.88,0,0,0,14.54,28c3-.62,5-2.15,5.8-7a66.21,66.21,0,0,0,.52-7.53,33.09,33.09,0,0,1-3.57.48,34.36,34.36,0,0,0-6.18.79c-3.31.85-4.66,3.44-5.11,7A12.52,12.52,0,0,1,14.77,17c-5.88,2.4-8.37,7.31-8.48,11.24A25.45,25.45,0,0,0,6,32,26,26,0,1,0,32,6Z"/></g></svg>