<svg xmlns="http://www.w3.org/2000/svg" xmlns:xlink="http://www.w3.org/1999/xlink" viewBox="0 0 64 64"><defs><radialGradient id="a" cx="29.83" cy="15.54" r="8" gradientUnits="userSpaceOnUse"><stop offset="0" stop-color="#fff"/><stop offset="1" stop-color="#d2d2d2"/></radialGradient><linearGradient id="b" x1="26.76" y1="26.84" x2="37.04" y2="44.65" xlink:href="#a"/><linearGradient id="c" x1="36.8" y1="28.31" x2="37.86" y2="38" gradientUnits="userSpaceOnUse"><stop offset="0" stop-color="#fff"/><stop offset="0.09" stop-color="#fff" stop-opacity="0.98"/><stop offset="0.22" stop-color="#fff" stop-opacity="0.91"/><stop offset="0.36" stop-color="#fff" stop-opacity="0.8"/><stop offset="0.52" stop-color="#fff" stop-opacity="0.64"/><stop offset="0.69" stop-color="#fff" stop-opacity="0.45"/><stop offset="0.86" stop-color="#fff" stop-opacity="0.21"/><stop offset="1" stop-color="#fff" stop-opacity="0"/></linearGradient><linearGradient id="d" x1="31.84" y1="14.43" x2="39.3" y2="14.43" xlink:href="#c"/><linearGradient id="e" x1="32.5" y1="25.96" x2="32.5" y2="30.71" gradientUnits="userSpaceOnUse"><stop offset="0.3" stop-opacity="0.3"/><stop offset="1" stop-opacity="0"/></linearGradient><radialGradient id="f" cx="15.72" cy="18.08" r="8" gradientUnits="userSpaceOnUse"><stop offset="0" stop-color="#d7d7d7"/><stop offset="1" stop-color="#969696"/></radialGradient><linearGradient id="g" x1="12.76" y1="30.84" x2="23.04" y2="48.65" xlink:href="#f"/><linearGradient id="h" x1="22.8" y1="32.31" x2="23.86" y2="42" xlink:href="#c"/><linearGradient id="i" x1="17.84" y1="18.43" x2="25.3" y2="18.43" xlink:href="#c"/><linearGradient id="j" x1="18.5" y1="29.96" x2="18.5" y2="34.71" xlink:href="#e"/><radialGradient id="k" cx="42.83" cy="22.54" r="8" xlink:href="#a"/><linearGradient id="m" x1="49.8" y1="35.31" x2="50.86" y2="45" xlink:href="#c"/><linearGradient id="n" x1="44.84" y1="21.43" x2="52.3" y2="21.43" xlink:href="#c"/><linearGradient id="o" x1="45.5" y1="32.96" x2="45.5" y2="37.71" xlink:href="#e"/><linearGradient id="p" x1="2.42" y1="48.75" x2="53.41" y2="48.75" gradientUnits="userSpaceOnUse"><stop offset="0" stop-color="#376e8c"/><stop offset="0.1" stop-color="#5796b4"/><stop offset="0.23" stop-color="#7dc5e3"/><stop offset="0.29" stop-color="#8cd7f5"/><stop offset="0.44" stop-color="#7ec6e4"/><stop offset="0.74" stop-color="#5b9ab8"/><stop offset="1" stop-color="#376e8c"/></linearGradient><linearGradient id="q" x1="25.57" y1="31.86" x2="38.43" y2="54.14" gradientUnits="userSpaceOnUse"><stop offset="0" stop-color="#a0e1fa"/><stop offset="1" stop-color="#73c3e1"/></linearGradient></defs><circle cx="32.5" cy="17.5" r="8" stroke="#787878" stroke-linejoin="round" fill="url(#a)"/><path d="M31.5,25.5h2a9,9,0,0,1,9,9v7a0,0,0,0,1,0,0h-20a0,0,0,0,1,0,0v-7A9,9,0,0,1,31.5,25.5Z" stroke="#787878" stroke-linejoin="round" fill="url(#b)"/><path d="M33.39,27h-.31C35.79,27,38,30.3,38,34.37V40h3V34.37A7.49,7.49,0,0,0,33.39,27Z" opacity="0.3" fill="url(#c)"/><path d="M37.41,12.59C39,14.15,39.78,17.22,39,18s-2.44-1.44-4-3-3.78-3.22-3-4S35.85,11,37.41,12.59Z" opacity="0.3" fill="url(#d)"/><path d="M26.29,27.8A8.93,8.93,0,0,0,32.5,30a8.93,8.93,0,0,0,6.21-2.2A8.45,8.45,0,0,0,33.5,26h-2A8.45,8.45,0,0,0,26.29,27.8Z" opacity="0.3" fill="url(#e)"/><circle cx="18.5" cy="21.5" r="8" stroke="#787878" stroke-linejoin="round" fill="url(#f)"/><path d="M17.5,29.5h2a9,9,0,0,1,9,9v7a0,0,0,0,1,0,0H8.5a0,0,0,0,1,0,0v-7A9,9,0,0,1,17.5,29.5Z" stroke="#787878" stroke-linejoin="round" fill="url(#g)"/><path d="M19.39,31h-.31C21.79,31,24,34.3,24,38.37V44h3V38.37A7.49,7.49,0,0,0,19.39,31Z" opacity="0.3" fill="url(#h)"/><path d="M23.41,16.59C25,18.15,25.78,21.22,25,22s-2.44-1.44-4-3-3.78-3.22-3-4S21.85,15,23.41,16.59Z" opacity="0.3" fill="url(#i)"/><path d="M12.29,31.8A8.93,8.93,0,0,0,18.5,34a8.93,8.93,0,0,0,6.21-2.2A8.45,8.45,0,0,0,19.5,30h-2A8.45,8.45,0,0,0,12.29,31.8Z" opacity="0.3" fill="url(#j)"/><circle cx="45.5" cy="24.5" r="8" stroke="#787878" stroke-linejoin="round" fill="url(#k)"/><path d="M44.5,32.5h2a9,9,0,0,1,9,9v7a0,0,0,0,1,0,0h-20a0,0,0,0,1,0,0v-7A9,9,0,0,1,44.5,32.5Z" stroke="#787878" stroke-linejoin="round" fill="url(#b)"/><path d="M46.39,34h-.31C48.79,34,51,37.3,51,41.37V47h3V41.37A7.49,7.49,0,0,0,46.39,34Z" opacity="0.3" fill="url(#m)"/><path d="M50.41,19.59C52,21.15,52.78,24.22,52,25s-2.44-1.44-4-3-3.78-3.22-3-4S48.85,18,50.41,19.59Z" opacity="0.3" fill="url(#n)"/><path d="M39.29,34.8A8.93,8.93,0,0,0,45.5,37a8.93,8.93,0,0,0,6.21-2.2A8.45,8.45,0,0,0,46.5,33h-2A8.45,8.45,0,0,0,39.29,34.8Z" opacity="0.3" fill="url(#o)"/><path d="M46.5,32.5h-2a9.15,9.15,0,0,0-2.17.27,7.88,7.88,0,0,0-.28-1.06,8,8,0,1,0-1.59-13.42,6.85,6.85,0,0,0,0-.79,8,8,0,0,0-15.9-1.17,8,8,0,1,0,1.8,6.34,8,8,0,0,0,11.14,1,6.85,6.85,0,0,0,0,.79,7.91,7.91,0,0,0,.28,2.08A8.94,8.94,0,0,0,33.5,25.5h-2a9,9,0,0,0-8,4.94,8.87,8.87,0,0,0-4-.94h-2a9,9,0,0,0-9,9v7h20v-4h7v7h20v-7A9,9,0,0,0,46.5,32.5Z" fill="none" stroke="#323232" stroke-linejoin="round"/><path d="M7.5,43v7c0,2.49,11,4.5,24.5,4.5s24.5-2,24.5-4.5V43Z" stroke="#003755" stroke-linejoin="round" fill="url(#p)"/><path d="M32,53C17.13,53,8,50.67,8,49v1c0,1.67,9.13,4,24,4s24-2.33,24-4V49C56,50.67,46.87,53,32,53Z" opacity="0.3"/><ellipse cx="32" cy="43" rx="24.5" ry="4.5" stroke="#003755" stroke-linejoin="round" fill="url(#q)"/><path d="M32,46C18.56,46,9.84,44.1,8.28,42.5A.78.78,0,0,0,8,43c0,1.67,9.13,4,24,4s24-2.33,24-4a.78.78,0,0,0-.28-.5C54.16,44.1,45.44,46,32,46Z" fill="#fff" opacity="0.3"/></svg>