<svg xmlns="http://www.w3.org/2000/svg" xmlns:xlink="http://www.w3.org/1999/xlink" width="64" height="64" viewBox="0 0 64 64">
  <defs>
    <linearGradient id="a" x1="17.066" y1="11.768" x2="37.229" y2="46.691" gradientUnits="userSpaceOnUse">
      <stop offset="0" stop-color="#f5f5f5"/>
      <stop offset="1" stop-color="#bebebe"/>
    </linearGradient>
    <linearGradient id="b" x1="31.11" y1="3.618" x2="51.224" y2="38.456" gradientUnits="userSpaceOnUse">
      <stop offset="0" stop-color="#fff"/>
      <stop offset="1" stop-color="#f0f0f0"/>
    </linearGradient>
    <linearGradient id="c" x1="34.648" y1="18.503" x2="50.311" y2="45.633" gradientUnits="userSpaceOnUse">
      <stop offset="0" stop-color="#fff"/>
      <stop offset="1" stop-color="#d2d2d2"/>
    </linearGradient>
    <linearGradient id="d" x1="32.41" y1="42.634" x2="14.779" y2="22.31" gradientUnits="userSpaceOnUse">
      <stop offset="0.449"/>
      <stop offset="0.801" stop-opacity="0"/>
    </linearGradient>
    <linearGradient id="e" x1="13.804" y1="26.072" x2="32.196" y2="57.928" xlink:href="#c"/>
    <linearGradient id="f" x1="32.114" y1="5.623" x2="45.092" y2="28.102" gradientUnits="userSpaceOnUse">
      <stop offset="0" stop-color="#3287af"/>
      <stop offset="1" stop-color="#285a78"/>
    </linearGradient>
    <linearGradient id="g" x1="23" y1="35" x2="23" y2="32.156" gradientUnits="userSpaceOnUse">
      <stop offset="0" stop-color="#fff"/>
      <stop offset="1"/>
    </linearGradient>
    <linearGradient id="h" x1="25.25" y1="30.97" x2="28.75" y2="37.03" gradientUnits="userSpaceOnUse">
      <stop offset="0" stop-color="#aaa"/>
      <stop offset="1" stop-color="#5a5a5a"/>
    </linearGradient>
    <linearGradient id="i" x1="17.25" y1="30.97" x2="20.75" y2="37.03" xlink:href="#f"/>
    <linearGradient id="j" x1="23.75" y1="31.835" x2="26.25" y2="36.165" gradientUnits="userSpaceOnUse">
      <stop offset="0" stop-color="#8cd7f5"/>
      <stop offset="1" stop-color="#376e8c"/>
    </linearGradient>
    <linearGradient id="k" x1="23" y1="43" x2="23" y2="40.156" xlink:href="#g"/>
    <linearGradient id="l" x1="23.375" y1="38.32" x2="27.625" y2="45.68" xlink:href="#h"/>
    <linearGradient id="m" x1="15.375" y1="40.052" x2="17.625" y2="43.948" xlink:href="#f"/>
    <linearGradient id="n" x1="17.75" y1="39.835" x2="20.25" y2="44.165" xlink:href="#j"/>
    <linearGradient id="o" x1="23" y1="51" x2="23" y2="48.156" xlink:href="#g"/>
    <linearGradient id="p" x1="20.25" y1="45.238" x2="25.75" y2="54.762" xlink:href="#f"/>
    <linearGradient id="q" x1="30.75" y1="47.835" x2="33.25" y2="52.165" xlink:href="#j"/>
  </defs>
  <title>1811_I_ModelDefinition_AP_Appicon_r21x</title>
  <g>
    <g>
      <polygon points="17.5 37.304 17.5 11.517 31.5 11.983 31.5 49.75 30.06 50.83 17.5 37.304" fill="url(#a)"/>
      <path d="M18,12.034l13,.433V49.5l-.88.66L18,37.107V12.034M17,11V37.5l13,14L32,50V11.5L17,11Z" fill="#787878"/>
    </g>
    <g>
      <polygon points="38.5 26.748 17.673 11.375 39.434 7.023 55.486 14.807 54.52 36.553 38.5 38.438 38.5 26.748" fill="url(#b)"/>
      <path d="M39.366,7.547l15.606,7.566-.933,20.993L39,37.875V26.5l-.406-.3L18.879,11.644l20.487-4.1M39.5,6.5,17,11v.5L38,27V39l17-2,1-22.5-16.5-8Z" fill="#787878"/>
    </g>
    <g>
      <polygon points="30.5 20.898 55.5 15.128 55.5 42.638 30.5 50.811 30.5 20.898" fill="url(#c)"/>
      <path d="M55,15.757V42.275L31,50.121V21.3l24-5.539M56,14.5l-26,6v31L56,43V14.5Z" fill="#787878"/>
    </g>
    <polygon points="55 15.773 55 42.266 30.304 50.344 18 37.109 18 12.231 19 13 19 36.688 30.484 49.344 54 41.578 54 16 55 15.773" fill="#646464" opacity="0.3"/>
    <g opacity="0.2">
      <path d="M36,49H21l-2-2V23l12,5h5a2,2,0,0,1,2,2V47A2,2,0,0,1,36,49Z" fill="url(#d)"/>
    </g>
    <g>
      <rect x="8.5" y="28.5" width="29" height="27" rx="1.5" fill="url(#e)"/>
      <path d="M36,29a1,1,0,0,1,1,1V54a1,1,0,0,1-1,1H10a1,1,0,0,1-1-1V30a1,1,0,0,1,1-1H36m0-1H10a2,2,0,0,0-2,2V54a2,2,0,0,0,2,2H36a2,2,0,0,0,2-2V30a2,2,0,0,0-2-2Z" fill="#787878"/>
    </g>
    <path d="M39.366,7.547,55,15.126V42.275L37.689,47.934a1,1,0,0,0-.689.951V54a1,1,0,0,1-1,1H10a1,1,0,0,1-1-1V30a1,1,0,0,1,1-1h7a1,1,0,0,0,1-1V11.82L39.366,7.547M39.5,6.5,17,11V28H10a2,2,0,0,0-2,2V54a2,2,0,0,0,2,2H36a2,2,0,0,0,2-2V48.885L56,43V14.5l-16.5-8Z" fill="#323232"/>
    <polygon points="47 27 40 29 40 18.5 25.876 9.225 32.467 7.907 47 17 47 27" fill="url(#f)"/>
    <line x1="40" y1="18.692" x2="47" y2="17.077" fill="none" stroke="#fff" stroke-miterlimit="10" opacity="0.3"/>
  </g>
  <g>
    <g opacity="0.3">
      <rect x="12" y="32" width="22" height="4" rx="2" fill="url(#g)"/>
    </g>
    <rect x="21" y="33" width="12" height="2" rx="1" fill="url(#h)"/>
    <rect x="13" y="33" width="12" height="2" rx="1" fill="url(#i)"/>
    <path d="M14,34H32a.989.989,0,0,1,.846.5A.969.969,0,0,0,33,34a1,1,0,0,0-1-1H14a1,1,0,0,0-1,1,.969.969,0,0,0,.154.5A.989.989,0,0,1,14,34Z" fill="#646464" opacity="0.5"/>
    <circle cx="25" cy="35" r="3" fill="#646464" opacity="0.5"/>
    <g>
      <circle cx="25" cy="34" r="2.5" fill="url(#j)"/>
      <path d="M25,32a2,2,0,1,1-2,2,2,2,0,0,1,2-2m0-1a3,3,0,1,0,3,3,3,3,0,0,0-3-3Z" fill="#003755"/>
    </g>
  </g>
  <g>
    <g opacity="0.3">
      <rect x="12" y="40" width="22" height="4" rx="2" fill="url(#k)"/>
    </g>
    <rect x="18" y="41" width="15" height="2" rx="1" fill="url(#l)"/>
    <rect x="13" y="41" width="7" height="2" rx="1" fill="url(#m)"/>
    <path d="M14,42H32a.989.989,0,0,1,.846.5A.969.969,0,0,0,33,42a1,1,0,0,0-1-1H14a1,1,0,0,0-1,1,.969.969,0,0,0,.154.5A.989.989,0,0,1,14,42Z" fill="#646464" opacity="0.5"/>
    <circle cx="19" cy="43" r="3" fill="#646464" opacity="0.5"/>
    <g>
      <circle cx="19" cy="42" r="2.5" fill="url(#n)"/>
      <path d="M19,40a2,2,0,1,1-2,2,2,2,0,0,1,2-2m0-1a3,3,0,1,0,3,3,3,3,0,0,0-3-3Z" fill="#003755"/>
    </g>
  </g>
  <g>
    <g opacity="0.3">
      <rect x="12" y="48" width="22" height="4" rx="2" fill="url(#o)"/>
    </g>
    <rect x="13" y="49" width="20" height="2" rx="1" fill="url(#p)"/>
    <path d="M14,50H32a.989.989,0,0,1,.846.5A.969.969,0,0,0,33,50a1,1,0,0,0-1-1H14a1,1,0,0,0-1,1,.969.969,0,0,0,.154.5A.989.989,0,0,1,14,50Z" fill="#646464" opacity="0.5"/>
    <circle cx="32" cy="51" r="3" fill="#646464" opacity="0.5"/>
    <g>
      <circle cx="32" cy="50" r="2.5" fill="url(#q)"/>
      <path d="M32,48a2,2,0,1,1-2,2,2,2,0,0,1,2-2m0-1a3,3,0,1,0,3,3,3,3,0,0,0-3-3Z" fill="#003755"/>
    </g>
  </g>
</svg>
