<?xml version="1.0" encoding="utf-8"?>
<!-- Generator: Adobe Illustrator 24.0.0, SVG Export Plug-In . SVG Version: 6.00 Build 0)  -->
<svg version="1.1" id="Layer_1" xmlns="http://www.w3.org/2000/svg" xmlns:xlink="http://www.w3.org/1999/xlink" x="0px" y="0px"
	 viewBox="0 0 64 64" style="enable-background:new 0 0 64 64;" xml:space="preserve">
<style type="text/css">
	.SKETCH_x0020_BLUE_x0020_Fill{fill:url(#SVGID_1_);}
	.st0{fill:url(#SVGID_2_);}
	.st1{fill:#646464;}
	.st2{opacity:0.2;filter:url(#DS_GaussianBlur_2);}
	.st3{fill:url(#SVGID_3_);}
	.st4{fill:#787878;}
	.st5{fill:#323232;}
	.st6{fill:url(#SVGID_4_);stroke:#323232;stroke-linecap:round;stroke-linejoin:round;stroke-miterlimit:10;}
	.st7{fill:none;stroke:#323232;stroke-linejoin:round;stroke-miterlimit:10;}
	.st8{fill:url(#SVGID_5_);stroke:#053755;stroke-linecap:round;stroke-linejoin:round;stroke-miterlimit:10;}
	.st9{fill:none;stroke:#053755;stroke-miterlimit:10;}
	.st10{fill:url(#SVGID_6_);}
	.st11{fill:none;stroke:#053755;stroke-width:1.0954;stroke-miterlimit:10;}
	.st12{fill:url(#SVGID_7_);}
	.st13{fill:url(#SVGID_8_);}
	.st14{fill:url(#SVGID_9_);}
	.st15{fill:url(#SVGID_10_);stroke:#323232;stroke-linecap:round;stroke-linejoin:round;stroke-miterlimit:10;}
	.st16{fill:url(#SVGID_11_);stroke:#053755;stroke-linecap:round;stroke-linejoin:round;stroke-miterlimit:10;}
	.st17{fill:url(#SVGID_12_);}
	.st18{fill:url(#SVGID_13_);}
	.st19{fill:url(#SVGID_14_);}
	.st20{fill:url(#SVGID_15_);}
	.st21{fill:url(#SVGID_16_);stroke:#323232;stroke-linecap:round;stroke-linejoin:round;stroke-miterlimit:10;}
	.st22{fill:url(#SVGID_17_);stroke:#053755;stroke-linecap:round;stroke-linejoin:round;stroke-miterlimit:10;}
	.st23{fill:url(#SVGID_18_);}
	.st24{fill:url(#SVGID_19_);}
	.st25{fill:url(#SVGID_20_);}
	.st26{fill:url(#SVGID_21_);}
	.st27{fill:url(#SVGID_22_);stroke:#323232;stroke-linecap:round;stroke-linejoin:round;stroke-miterlimit:10;}
	.st28{fill:none;stroke:#323232;stroke-linecap:round;stroke-linejoin:round;stroke-miterlimit:10;}
	.st29{fill:url(#SVGID_23_);stroke:#053755;stroke-linecap:round;stroke-linejoin:round;stroke-miterlimit:10;}
	.st30{fill:none;stroke:#053755;stroke-linecap:round;stroke-linejoin:round;stroke-miterlimit:10;}
	.st31{fill:url(#SVGID_24_);}
	.st32{fill:none;stroke:#053755;stroke-width:0.9018;stroke-miterlimit:10;}
	.st33{fill:url(#SVGID_25_);}
	.st34{fill:url(#SVGID_26_);}
	.st35{fill:url(#SVGID_27_);}
	.st36{fill:none;stroke:#323232;stroke-miterlimit:10;}
	.st37{fill:url(#SVGID_28_);stroke:#323232;stroke-linecap:round;stroke-linejoin:round;stroke-miterlimit:10;}
	.st38{fill:url(#SVGID_29_);stroke:#053755;stroke-linecap:round;stroke-linejoin:round;stroke-miterlimit:10;}
	.st39{fill:url(#SVGID_30_);}
	.st40{fill:url(#SVGID_31_);stroke:#787878;stroke-linejoin:round;stroke-miterlimit:10;}
	.st41{fill:#053755;}
	.st42{fill:url(#SVGID_32_);stroke:#323232;stroke-linecap:round;stroke-linejoin:round;stroke-miterlimit:10;}
	.st43{fill:url(#SVGID_33_);stroke:#053755;stroke-linecap:round;stroke-linejoin:round;stroke-miterlimit:10;}
</style>
<filter  height="200%" id="DS_GaussianBlur_2" width="200%" x="-50%" y="-50%">
	<feGaussianBlur  stdDeviation="1"></feGaussianBlur>
</filter>
<linearGradient id="SVGID_1_" gradientUnits="userSpaceOnUse" x1="-548" y1="1" x2="-547.5" y2="1.866">
	<stop  offset="0" style="stop-color:#3387AF"/>
	<stop  offset="1" style="stop-color:#285A78"/>
</linearGradient>
<g>
	<linearGradient id="SVGID_2_" gradientUnits="userSpaceOnUse" x1="16.9692" y1="8.2618" x2="46.0425" y2="58.6182">
		<stop  offset="0" style="stop-color:#FFFFFF"/>
		<stop  offset="1" style="stop-color:#D4D5D3"/>
	</linearGradient>
	<polygon class="st0" points="15.8,55 15.8,9 40.7,9 52.2,20.5 52.2,55 	"/>
</g>
<rect x="26" y="14" class="st1" width="11" height="1"/>
<rect x="26" y="17" class="st1" width="23" height="1"/>
<rect x="26" y="20" class="st1" width="23" height="1"/>
<rect x="26" y="27" class="st1" width="23" height="1"/>
<rect x="26" y="30" class="st1" width="23" height="1"/>
<rect x="26" y="33" class="st1" width="23" height="1"/>
<rect x="26" y="43" class="st1" width="23" height="1"/>
<rect x="26" y="40" class="st1" width="23" height="1"/>
<rect x="26" y="46" class="st1" width="23" height="1"/>
<g class="st2">
	<path d="M41.7,22c-0.9,0-1.9-0.9-1.9-1.7V8.9l12.5,10.5l1,2.6H41.7z"/>
</g>
<g>
	<linearGradient id="SVGID_3_" gradientUnits="userSpaceOnUse" x1="45.9523" y1="15.0477" x2="43.0856" y2="17.9144">
		<stop  offset="0" style="stop-color:#F5F5F5"/>
		<stop  offset="1" style="stop-color:#BEBEBE"/>
	</linearGradient>
	<path class="st3" d="M40,21.5c-0.3,0-0.5-0.2-0.5-0.5V8.5h1.3l11.7,11.7v1.3H40z"/>
	<path class="st4" d="M40.6,9L52,20.4V21H40V9H40.6 M41,8h-2v13c0,0.5,0.4,1,1,1h13v-2L41,8L41,8z"/>
</g>
<g>
	<path class="st5" d="M40.6,9L52,20.4V55H16V9H40.6 M41,8H16c-0.5,0-1,0.4-1,1V55c0,0.5,0.4,1,1,1H52c0.5,0,1-0.4,1-1V20L41,8L41,8z
		"/>
</g>
<g>
	<linearGradient id="SVGID_4_" gradientUnits="userSpaceOnUse" x1="16.594" y1="35.537" x2="28.7638" y2="56.6157">
		<stop  offset="0" style="stop-color:#FFFFFF"/>
		<stop  offset="1" style="stop-color:#D4D5D3"/>
	</linearGradient>
	<polygon class="st6" points="11.6,38.4 19.4,34.5 33.5,37.5 33.5,52.5 25.5,58.5 11.6,54.2 	"/>
	<polyline class="st7" points="25.5,58.5 25.6,41.3 33.5,37.5 25.5,41.3 11.7,38.4 	"/>
	<linearGradient id="SVGID_5_" gradientUnits="userSpaceOnUse" x1="22.888" y1="37.1098" x2="28.9061" y2="47.5335">
		<stop  offset="0" style="stop-color:#8DD7F4"/>
		<stop  offset="1" style="stop-color:#386E8C"/>
	</linearGradient>
	<polygon class="st8" points="18.5,47.5 18.5,39.6 25.7,35.9 33.5,37.5 33.5,44.5 25.5,49.5 	"/>
	<polyline class="st9" points="25.5,49 25.5,41.5 33.5,37.5 25.5,41.5 18.4,39.8 	"/>
</g>
<g>
	<g>
		<linearGradient id="SVGID_6_" gradientUnits="userSpaceOnUse" x1="20.1425" y1="16.5611" x2="21.2303" y2="18.4452">
			<stop  offset="0" style="stop-color:#3387AF"/>
			<stop  offset="1" style="stop-color:#285A78"/>
		</linearGradient>
		<polygon class="st10" points="19.9,19.2 18.5,17.8 19.1,17.2 19.9,18 21.9,16 22.5,16.6 		"/>
	</g>
	<rect x="17.5" y="14.5" class="st11" width="6" height="6"/>
</g>
<g>
	<g>
		<linearGradient id="SVGID_7_" gradientUnits="userSpaceOnUse" x1="20.1425" y1="29.5611" x2="21.2303" y2="31.4452">
			<stop  offset="0" style="stop-color:#3387AF"/>
			<stop  offset="1" style="stop-color:#285A78"/>
		</linearGradient>
		<polygon class="st12" points="19.9,32.2 18.5,30.8 19.1,30.2 19.9,31 21.9,29 22.5,29.6 		"/>
	</g>
	<rect x="17.5" y="27.5" class="st11" width="6" height="6"/>
</g>
</svg>
