<?xml version="1.0" encoding="UTF-8"?>
<svg id="Layer_1" data-name="Layer 1" xmlns="http://www.w3.org/2000/svg" xmlns:xlink="http://www.w3.org/1999/xlink" viewBox="0 0 64 64">
  <defs>
    <linearGradient id="linear-gradient" x1="22.5874" y1="24.503" x2="42.4036" y2="24.503" gradientUnits="userSpaceOnUse">
      <stop offset="0" stop-color="#fae769"/>
      <stop offset="1" stop-color="#f1cf30"/>
    </linearGradient>
    <linearGradient id="linear-gradient-2" x1="24.1354" y1="32.7774" x2="38.6992" y2="58.0027" gradientUnits="userSpaceOnUse">
      <stop offset="0" stop-color="#8cd7f5"/>
      <stop offset="1" stop-color="#376e8c"/>
    </linearGradient>
  </defs>
  <g>
    <circle cx="32.5446" cy="24.503" r="9.8467" fill="url(#linear-gradient)" stroke="#000" stroke-linecap="round" stroke-linejoin="round"/>
    <line x1="32.5446" y1="5.0061" x2="32.5446" y2="9.8803" fill="none" stroke="#010101" stroke-linecap="round" stroke-miterlimit="10"/>
    <line x1="32.5446" y1="39.1258" x2="32.5446" y2="44" fill="none" stroke="#010101" stroke-linecap="round" stroke-miterlimit="10"/>
    <line x1="13.0354" y1="24.503" x2="17.9096" y2="24.503" fill="none" stroke="#010101" stroke-linecap="round" stroke-miterlimit="10"/>
    <line x1="47.1673" y1="24.503" x2="52.0416" y2="24.503" fill="none" stroke="#010101" stroke-linecap="round" stroke-miterlimit="10"/>
    <line x1="18.7936" y1="10.752" x2="22.2068" y2="14.1652" fill="none" stroke="#010101" stroke-linecap="round" stroke-miterlimit="10"/>
    <line x1="42.8701" y1="34.8408" x2="46.2833" y2="38.254" fill="none" stroke="#010101" stroke-linecap="round" stroke-miterlimit="10"/>
    <line x1="42.8701" y1="14.1652" x2="46.2833" y2="10.752" fill="none" stroke="#010101" stroke-linecap="round" stroke-miterlimit="10"/>
    <line x1="18.7936" y1="38.254" x2="22.2068" y2="34.8408" fill="none" stroke="#010101" stroke-linecap="round" stroke-miterlimit="10"/>
  </g>
  <g>
    <polygon points="37.3926 42.582 39.5879 46.3867 37 47.7529 37 40 44.6387 40 32.5 26.4497 20.3613 40 28 40 28 47.7227 25.4688 46.3867 27.6641 42.582 15.333 45.0684 19.5996 56.5566 21.7881 52.7656 28 56.0742 28 60 37 60 37 56.1055 43.2695 52.7656 45.457 56.5566 49.7236 45.0684 37.3926 42.582" fill="#fff" opacity=".5"/>
    <polygon points="39.3652 44 40.9728 46.7858 36 49.4124 36 39 42.4 39 32.5 27.9481 22.6 39 29 39 29 49.3816 24.0843 46.7858 25.6919 44 16.6781 45.8171 19.7972 54.2148 21.4048 51.429 29 55.4735 29 59 36 59 36 55.5045 43.6523 51.429 45.2599 54.2148 48.379 45.8171 39.3652 44" fill="url(#linear-gradient-2)"/>
    <path d="m32.5,29.4468l7.6617,8.5532h-5.1617v13.0715l1.467-.7749,4.9728-2.6266.918-.4849-.5189-.8992-.501-.8682,5.6962,1.1483-1.9711,5.3068-.5446-.9438-.4831-.8372-.8531.4543-7.6523,4.0755-.5299.2822v3.0959h-5v-3.1269l-.53-.2822-7.5952-4.0445-.8531-.4543-.4831.8371-.5446.9438-1.9711-5.3068,5.6962-1.1483-.501.8682-.519.8993.9181.4848,4.9157,2.5958,1.4669.7746v-13.0405h-5.1617l7.6617-8.5532m0-1.4988l-9.9,11.0519h6.4v10.3816l-4.9157-2.5958,1.6076-2.7858-9.0138,1.8171,3.1191,8.3978,1.6077-2.7859,7.5952,4.0446v3.5265h7v-3.4955l7.6523-4.0755,1.6077,2.7859,3.1191-8.3978-9.0139-1.8171,1.6077,2.7858-4.9728,2.6266v-10.4124h6.4l-9.9-11.0519h0Z" fill="#003755"/>
  </g>
</svg>