<?xml version="1.0" encoding="utf-8"?>
<!-- Generator: Adobe Illustrator 25.2.3, SVG Export Plug-In . SVG Version: 6.00 Build 0)  -->
<svg version="1.1" id="Layer_1" xmlns="http://www.w3.org/2000/svg" xmlns:xlink="http://www.w3.org/1999/xlink" x="0px" y="0px"
	 viewBox="0 0 64 64" style="enable-background:new 0 0 64 64;" xml:space="preserve">
<style type="text/css">
	
		.Blue_x0020_RIGHT_x002C__x0020_FRONT_x0020__x0026__x0020_SINGLE_x0020_4{fill:url(#SVGID_1_);stroke:#053755;stroke-linejoin:round;stroke-miterlimit:10;}
	
		.Blue_x0020_RIGHT_x002C__x0020_FRONT_x0020__x0026__x0020_SINGLE_x0020_7{fill:url(#SVGID_2_);stroke:#053755;stroke-linejoin:round;stroke-miterlimit:10;}
	
		.De_x002D_emphasized_x0020_WHITE_x0020_for_x0020_Vector_x0020_Highlights{opacity:0.5;fill:#FFFFFF;stroke:#FFFFFF;stroke-width:3;stroke-linejoin:round;stroke-miterlimit:10;}
	
		.Blue_x0020_RIGHT_x002C__x0020_FRONT_x0020__x0026__x0020_SINGLE_x0020_21{fill:url(#SVGID_3_);stroke:#053755;stroke-linejoin:round;stroke-miterlimit:10;}
	.White_x0020_SINGLE_x0020_9{fill:url(#SVGID_4_);stroke:#323232;stroke-linejoin:round;stroke-miterlimit:10;}
	.White_x0020_SINGLE_x0020_10{fill:url(#SVGID_5_);stroke:#323232;stroke-linejoin:round;stroke-miterlimit:10;}
	.st0{fill:url(#SVGID_6_);}
	.st1{fill:#333232;}
	.st2{fill:url(#SVGID_7_);stroke:#053755;stroke-linejoin:round;stroke-miterlimit:10;}
	.st3{fill:url(#SVGID_8_);}
	.st4{fill:url(#SVGID_9_);stroke:#333232;stroke-miterlimit:10;}
	.st5{fill:url(#SVGID_10_);stroke:#323232;stroke-linejoin:round;stroke-miterlimit:10;}
	.st6{fill:url(#SVGID_11_);stroke:#323232;stroke-linejoin:round;stroke-miterlimit:10;}
	.st7{fill:url(#SVGID_12_);}
	.st8{fill:url(#SVGID_13_);stroke:#053755;stroke-linejoin:round;stroke-miterlimit:10;}
	.st9{fill:none;stroke:#053755;stroke-linejoin:round;stroke-miterlimit:10;}
	.st10{fill:url(#SVGID_14_);}
	.st11{fill:url(#SVGID_15_);stroke:#053755;stroke-linejoin:round;stroke-miterlimit:10;}
</style>
<linearGradient id="SVGID_1_" gradientUnits="userSpaceOnUse" x1="-252" y1="0" x2="-251.5" y2="0.866">
	<stop  offset="0" style="stop-color:#8DD7F4"/>
	<stop  offset="1" style="stop-color:#386E8C"/>
</linearGradient>
<linearGradient id="SVGID_2_" gradientUnits="userSpaceOnUse" x1="-252" y1="0" x2="-251.5" y2="0.866">
	<stop  offset="0" style="stop-color:#8DD7F4"/>
	<stop  offset="1" style="stop-color:#386E8C"/>
</linearGradient>
<linearGradient id="SVGID_3_" gradientUnits="userSpaceOnUse" x1="-252" y1="0" x2="-251.5" y2="0.866">
	<stop  offset="0" style="stop-color:#8DD7F4"/>
	<stop  offset="1" style="stop-color:#386E8C"/>
</linearGradient>
<linearGradient id="SVGID_4_" gradientUnits="userSpaceOnUse" x1="-252" y1="0" x2="-251.5" y2="0.866">
	<stop  offset="0" style="stop-color:#FFFFFF"/>
	<stop  offset="1" style="stop-color:#D4D5D3"/>
</linearGradient>
<linearGradient id="SVGID_5_" gradientUnits="userSpaceOnUse" x1="-252" y1="0" x2="-251.5" y2="0.866">
	<stop  offset="0" style="stop-color:#FFFFFF"/>
	<stop  offset="1" style="stop-color:#D4D5D3"/>
</linearGradient>
<g>
	<linearGradient id="SVGID_6_" gradientUnits="userSpaceOnUse" x1="31.0252" y1="26.4091" x2="43.0771" y2="47.2836">
		<stop  offset="0" style="stop-color:#F5F6F6"/>
		<stop  offset="1" style="stop-color:#BFBEBE"/>
	</linearGradient>
	<path class="st0" d="M37.48,45.98c-9.75,0-9.86-1.46-9.86-1.52V33.55c0-3.3,1.83-6.34,4.79-7.93c1.35-0.73,2.89-1.12,4.45-1.12
		h1.54c1.49,0,2.97,0.36,4.28,1.03c3.06,1.57,4.95,4.64,4.95,8.02v10.91C47.62,44.99,45.5,45.98,37.48,45.98z"/>
	<path class="st1" d="M38.39,25c1.41,0,2.81,0.34,4.05,0.97c2.89,1.48,4.68,4.39,4.68,7.58v10.8c-0.26,0.21-1.81,1.13-9.64,1.13
		c-7.67,0-9.13-0.91-9.36-1.11V33.55c0-3.12,1.73-5.99,4.52-7.49c1.28-0.69,2.74-1.06,4.21-1.06H38.39 M38.39,24h-1.54
		c-1.7,0-3.29,0.43-4.68,1.18c-3.01,1.62-5.05,4.76-5.05,8.37v10.91c0,1.51,4.57,2.02,10.36,2.02s10.64-0.51,10.64-2.02V33.55
		c0-3.68-2.12-6.87-5.22-8.47C41.55,24.39,40.01,24,38.39,24L38.39,24z"/>
</g>
<linearGradient id="SVGID_7_" gradientUnits="userSpaceOnUse" x1="36.1514" y1="23.368" x2="41.1424" y2="32.0127">
	<stop  offset="0" style="stop-color:#8DD7F4"/>
	<stop  offset="1" style="stop-color:#386E8C"/>
</linearGradient>
<polyline class="st2" points="33.6,24.84 37.66,34.02 41.64,24.84 "/>
<g>
	<linearGradient id="SVGID_8_" gradientUnits="userSpaceOnUse" x1="33.6209" y1="11.144" x2="41.6193" y2="24.9976">
		<stop  offset="0" style="stop-color:#F5F6F6"/>
		<stop  offset="1" style="stop-color:#BFBEBE"/>
	</linearGradient>
	<circle class="st3" cx="37.62" cy="18.07" r="8"/>
	<path class="st1" d="M37.62,10.57c4.14,0,7.5,3.36,7.5,7.5s-3.36,7.5-7.5,7.5s-7.5-3.36-7.5-7.5S33.48,10.57,37.62,10.57
		 M37.62,9.57c-4.69,0-8.5,3.81-8.5,8.5s3.81,8.5,8.5,8.5s8.5-3.81,8.5-8.5S42.31,9.57,37.62,9.57L37.62,9.57z"/>
</g>
<linearGradient id="SVGID_9_" gradientUnits="userSpaceOnUse" x1="33.7593" y1="10.1133" x2="40.1583" y2="21.1966">
	<stop  offset="0" style="stop-color:#F5F6F6"/>
	<stop  offset="1" style="stop-color:#BFBEBE"/>
</linearGradient>
<path class="st4" d="M39.58,10.08c-0.12-1.06-0.88-1.92-1.97-1.92c-1.08,0-1.86,0.96-2,2c-3.4,0.86-6.25,4.18-6.25,7.74h16.49
	C45.87,13.92,43.16,10.89,39.58,10.08z"/>
<linearGradient id="SVGID_10_" gradientUnits="userSpaceOnUse" x1="36.0904" y1="8.7742" x2="39.1209" y2="14.0232">
	<stop  offset="0" style="stop-color:#FFFFFF"/>
	<stop  offset="1" style="stop-color:#D4D5D3"/>
</linearGradient>
<path class="st5" d="M37.62,14.58L37.62,14.58c-1.1,0-2-0.9-2-2v-2c0-1.37,0.89-2.42,2-2.42l0,0c1.1,0,2,0.88,2,2.42v2
	C39.62,13.68,38.72,14.58,37.62,14.58z"/>
<linearGradient id="SVGID_11_" gradientUnits="userSpaceOnUse" x1="35.0457" y1="13.1213" x2="40.1943" y2="22.0387">
	<stop  offset="0" style="stop-color:#FFFFFF"/>
	<stop  offset="1" style="stop-color:#D4D5D3"/>
</linearGradient>
<path class="st6" d="M46.03,18.58H29.21c-0.33,0-0.59-0.27-0.59-0.59v-0.81c0-0.33,0.27-0.59,0.59-0.59h16.81
	c0.33,0,0.59,0.27,0.59,0.59v0.81C46.62,18.31,46.35,18.58,46.03,18.58z"/>
<g>
	<g>
		<linearGradient id="SVGID_12_" gradientUnits="userSpaceOnUse" x1="11.5291" y1="32.6094" x2="25.1796" y2="56.2526">
			<stop  offset="0" style="stop-color:#F5F6F6"/>
			<stop  offset="1" style="stop-color:#BFBEBE"/>
		</linearGradient>
		<path class="st7" d="M18.84,54.72c-11.03,0-11.34-1.58-11.34-1.76V40.71c0-5.63,4.76-10.21,10.62-10.21h1.76
			c5.86,0,10.62,4.58,10.62,10.21v12.24C30.5,53.03,30.37,54.72,18.84,54.72z"/>
		<path class="st1" d="M19.88,31C25.46,31,30,35.36,30,40.71v12.17c-0.21,0.21-1.77,1.34-11.15,1.34c-9.22,0-10.66-1.13-10.85-1.33
			V40.71C8,35.36,12.54,31,18.12,31H19.88 M19.88,30h-1.76C11.98,30,7,34.8,7,40.71v12.24c0,1.69,5.22,2.26,11.85,2.26
			S31,54.65,31,52.96V40.71C31,34.8,26.02,30,19.88,30L19.88,30z"/>
	</g>
	<g>
		<linearGradient id="SVGID_13_" gradientUnits="userSpaceOnUse" x1="14.2301" y1="31.2606" x2="24.6469" y2="49.3029">
			<stop  offset="0" style="stop-color:#8DD7F4"/>
			<stop  offset="1" style="stop-color:#386E8C"/>
		</linearGradient>
		<polygon class="st8" points="18.83,31.06 15.03,30.8 17.73,36.85 15.6,48.65 18.89,52.62 22.48,48.56 20.02,36.85 22.64,30.8 		
			"/>
		<line class="st9" x1="18" y1="36.5" x2="20" y2="36.5"/>
	</g>
	<g>
		<linearGradient id="SVGID_14_" gradientUnits="userSpaceOnUse" x1="14.1361" y1="14.9273" x2="23.529" y2="31.1964">
			<stop  offset="0" style="stop-color:#F5F6F6"/>
			<stop  offset="1" style="stop-color:#BFBEBE"/>
		</linearGradient>
		<path class="st10" d="M18.83,32.46c-5.18,0-9.4-4.21-9.4-9.39c0-5.18,4.21-9.4,9.4-9.4c5.18,0,9.39,4.21,9.39,9.4
			C28.23,28.24,24.01,32.46,18.83,32.46z"/>
		<path class="st1" d="M18.83,14.17c4.9,0,8.89,3.99,8.89,8.89s-3.99,8.89-8.89,8.89s-8.89-3.99-8.89-8.89S13.93,14.17,18.83,14.17
			 M18.83,13.17c-5.46,0-9.89,4.43-9.89,9.89s4.43,9.89,9.89,9.89c5.46,0,9.89-4.43,9.89-9.89S24.3,13.17,18.83,13.17L18.83,13.17z"
			/>
	</g>
</g>
<g>
	<path class="De_x002D_emphasized_x0020_WHITE_x0020_for_x0020_Vector_x0020_Highlights" d="M27.45,56.22
		c-0.26,0-0.52-0.1-0.73-0.29c-0.5-0.47-1.07-1.08-1.57-1.61c-0.35-0.37-0.66-0.71-0.86-0.89c-0.2-0.19-0.32-0.46-0.33-0.74
		c-0.01-0.28,0.1-0.56,0.3-0.76l9.87-10.24c0.2-0.21,0.47-0.33,0.76-0.33c0.29,0,0.56,0.12,0.76,0.32l5.44,5.63l6.59-6.79
		l-2.08-2.19c-0.28-0.29-0.37-0.71-0.23-1.09c0.14-0.38,0.48-0.64,0.88-0.69l9.32-1.07c0.32-0.03,0.64,0.08,0.87,0.3
		c0.23,0.23,0.34,0.55,0.3,0.87l-1.08,9.28c-0.05,0.4-0.31,0.73-0.69,0.87c-0.38,0.14-0.8,0.05-1.09-0.22l-2.18-2.03
		c-1.42,1.42-2.86,2.93-4.32,4.45c-1.76,1.84-3.55,3.71-5.33,5.47c-0.2,0.2-0.48,0.27-0.75,0.3c-0.28,0-0.55-0.12-0.75-0.32
		c-0.91-0.93-1.75-1.75-2.57-2.54c-1.02-0.98-1.99-1.92-3.01-3.01c-1.17,1.2-2.17,2.25-3.16,3.28c-1.15,1.2-2.28,2.38-3.6,3.73
		C28,56.12,27.72,56.22,27.45,56.22L27.45,56.22z"/>
	<linearGradient id="SVGID_15_" gradientUnits="userSpaceOnUse" x1="37.5127" y1="39.6746" x2="45.0631" y2="52.7523">
		<stop  offset="0" style="stop-color:#8DD7F4"/>
		<stop  offset="1" style="stop-color:#386E8C"/>
	</linearGradient>
	<path class="st11" d="M27.45,56.22c-0.26,0-0.52-0.1-0.73-0.29c-0.5-0.47-1.07-1.08-1.57-1.61c-0.35-0.37-0.66-0.71-0.86-0.89
		c-0.2-0.19-0.32-0.46-0.33-0.74c-0.01-0.28,0.1-0.56,0.3-0.76l9.87-10.24c0.2-0.21,0.47-0.33,0.76-0.33c0.29,0,0.56,0.12,0.76,0.32
		l5.44,5.63l6.59-6.79l-2.08-2.19c-0.28-0.29-0.37-0.71-0.23-1.09c0.14-0.38,0.48-0.64,0.88-0.69l9.32-1.07
		c0.32-0.03,0.64,0.08,0.87,0.3c0.23,0.23,0.34,0.55,0.3,0.87l-1.08,9.28c-0.05,0.4-0.31,0.73-0.69,0.87
		c-0.38,0.14-0.8,0.05-1.09-0.22l-2.18-2.03c-1.42,1.42-2.86,2.93-4.32,4.45c-1.76,1.84-3.55,3.71-5.33,5.47
		c-0.2,0.2-0.48,0.27-0.75,0.3c-0.28,0-0.55-0.12-0.75-0.32c-0.91-0.93-1.75-1.75-2.57-2.54c-1.02-0.98-1.99-1.92-3.01-3.01
		c-1.17,1.2-2.17,2.25-3.16,3.28c-1.15,1.2-2.28,2.38-3.6,3.73C28,56.12,27.72,56.22,27.45,56.22L27.45,56.22z"/>
</g>
</svg>
