<svg xmlns="http://www.w3.org/2000/svg" xmlns:xlink="http://www.w3.org/1999/xlink" viewBox="0 0 64 64"><defs><linearGradient id="a" x1="18.7" y1="10.46" x2="45.3" y2="56.54" gradientUnits="userSpaceOnUse"><stop offset="0" stop-color="#9fd9f6"/><stop offset="1" stop-color="#366c8d"/></linearGradient><linearGradient id="b" x1="24.18" y1="20.99" x2="39.9" y2="48.21" xlink:href="#a"/><linearGradient id="c" x1="19.63" y1="11.07" x2="44.37" y2="53.93" gradientUnits="userSpaceOnUse"><stop offset="0" stop-color="#e0dfdf"/><stop offset="1" stop-color="#9f9c9a"/></linearGradient><linearGradient id="d" x1="19.66" y1="9.63" x2="44.34" y2="52.37" xlink:href="#c"/><linearGradient id="e" x1="20.16" y1="8.5" x2="43.84" y2="49.5" gradientUnits="userSpaceOnUse"><stop offset="0" stop-color="#fff"/><stop offset="1" stop-color="#dbdada"/></linearGradient><linearGradient id="f" x1="18.36" y1="31.76" x2="24.04" y2="41.59" gradientTransform="matrix(0.99, 0.1, 0, 1.01, 0.21, -2.4)" xlink:href="#a"/><linearGradient id="g" x1="23.38" y1="20.22" x2="25.62" y2="24.09" gradientTransform="matrix(1, 0.15, 0, 1, 0, -3.38)" gradientUnits="userSpaceOnUse"><stop offset="0" stop-color="#8cd7f5"/><stop offset="1" stop-color="#376e8c"/></linearGradient><linearGradient id="k" x1="21.17" y1="16.46" x2="22.17" y2="18.19" gradientTransform="matrix(0.63, 0.79, -0.68, 0.73, 19.81, -12.61)" gradientUnits="userSpaceOnUse"><stop offset="0" stop-color="#fff"/><stop offset="1" stop-color="#d4d5d3"/></linearGradient><linearGradient id="o" x1="18.3" y1="24.45" x2="20.7" y2="28.62" gradientTransform="matrix(1, 0.31, 0, 1, 0, -6.77)" xlink:href="#k"/><linearGradient id="p" x1="15" y1="25.29" x2="16" y2="27.02" gradientTransform="matrix(0.63, 0.79, -0.68, 0.73, 23.52, -6.32)" gradientUnits="userSpaceOnUse"><stop offset="0" stop-color="#fff"/><stop offset="1" stop-color="#d2d2d2"/></linearGradient><linearGradient id="q" x1="23" y1="25.29" x2="24" y2="27.02" gradientTransform="matrix(0.63, 0.79, -0.68, 0.73, 26.48, -11.42)" xlink:href="#p"/><linearGradient id="r" x1="19" y1="25.29" x2="20" y2="27.02" gradientTransform="matrix(0.63, 0.79, -0.68, 0.73, 25, -8.87)" xlink:href="#p"/><linearGradient id="s" x1="40.69" y1="15.91" x2="45.17" y2="23.68" gradientTransform="matrix(1, -0.15, 0, 1, 0, 6.47)" xlink:href="#k"/><linearGradient id="u" x1="43" y1="21.91" x2="45" y2="21.91" gradientTransform="matrix(1, -0.15, 0, 1, 0, 6.47)" gradientUnits="userSpaceOnUse"><stop offset="0" stop-color="#464646"/><stop offset="1" stop-color="#141414"/></linearGradient><linearGradient id="v" x1="38.99" y1="32.45" x2="44.36" y2="41.76" gradientTransform="matrix(1, -0.1, 0, 1, 0, 4.38)" gradientUnits="userSpaceOnUse"><stop offset="0" stop-color="#3287af"/><stop offset="1" stop-color="#285a78"/></linearGradient><linearGradient id="w" x1="42.44" y1="32.44" x2="44.56" y2="36.11" gradientTransform="matrix(1, -0.1, 0, 1, 0, 4.38)" xlink:href="#k"/><linearGradient id="x" x1="44.18" y1="35.66" x2="47.02" y2="40.57" xlink:href="#v"/><linearGradient id="y" x1="34" y1="38" x2="36" y2="38" gradientTransform="matrix(1, -0.1, 0, 1, 0, 4.38)" xlink:href="#u"/><linearGradient id="aa" x1="45.51" y1="37.97" x2="46.99" y2="40.53" gradientTransform="matrix(1, -0.1, 0, 1, 0, 4.38)" xlink:href="#k"/><linearGradient id="ac" x1="36.51" y1="39.16" x2="37.49" y2="40.84" gradientTransform="matrix(1, -0.1, 0, 1, 0, 4.38)" xlink:href="#k"/><linearGradient id="ad" x1="23.19" y1="31.4" x2="31.13" y2="31.4" gradientUnits="userSpaceOnUse"><stop offset="0" stop-opacity="0"/><stop offset="1"/></linearGradient><linearGradient id="ae" x1="23.19" y1="31.4" x2="31.13" y2="31.4" gradientTransform="matrix(-1, 0, 0, 1, 64, 0)" gradientUnits="userSpaceOnUse"><stop offset="0.44" stop-opacity="0"/><stop offset="1"/></linearGradient></defs><path d="M55.5,50.5H8.5a1,1,0,0,1-1-1v-32a1,1,0,0,1,1-1H28.17l3.83,4,4.08-4H55.5a1,1,0,0,1,1,1v32A1,1,0,0,1,55.5,50.5Z" stroke="#113553" stroke-linejoin="round" fill="url(#a)"/><path d="M35.5,50.5s0,1-3.5,1-3.5-1-3.5-1v-32h7Z" stroke="#113553" stroke-linejoin="round" fill="url(#b)"/><path d="M55.5,47.5a156.12,156.12,0,0,0-23.5,2,156.12,156.12,0,0,0-23.5-2v-30h47Z" stroke="#787878" stroke-linejoin="round" fill="url(#c)"/><path d="M32,49.5c-1.3-.86-8.77-2.93-22.5-3v-31c15.29.08,22.14,3.85,22.18,3.89l.32.25.32-.25s6.89-3.81,22.18-3.89v31C40.77,46.57,33.3,48.64,32,49.5Z" stroke="#787878" stroke-linejoin="round" fill="url(#d)"/><path d="M32,48.5c-1.3-.86-6.77-3.93-20.5-4v-31c10.59.06,17.83,1.84,20.5,4,2.64-2.15,9.89-3.94,20.5-4v31C38.77,44.57,33.3,47.64,32,48.5Z" stroke="#787878" stroke-linejoin="round" fill="url(#e)"/><path d="M54.5,17.5v-2c-.69,0-1.34,0-2,0v-2c-10.61.06-17.86,1.85-20.5,4-2.67-2.16-9.91-3.94-20.5-4v2c-.66,0-1.31,0-2,0v2h-1v30a156.12,156.12,0,0,1,23.5,2,156.12,156.12,0,0,1,23.5-2v-30Z" fill="none" stroke="#3a3634" stroke-linejoin="round"/><path d="M36.43,30.43a53.7,53.7,0,0,1,13-1.86" fill="none" stroke="#787878" stroke-linejoin="round"/><path d="M14.57,28.57a53.32,53.32,0,0,1,12.92,1.84" fill="none" stroke="#787878" stroke-linejoin="round"/><path d="M25.37,33.45a6.27,6.27,0,0,0-4.36-2,5.16,5.16,0,0,0-4.36,1.14,16.9,16.9,0,0,0-2.09,3.25c.79.88,3,.81,3,.81v4c0,.87,2.2,1.73,3.07,1.82l.4,0,.4,0c.87.09,3.07-.32,3.07-1.2v-4s2.18.51,3-.2A21.81,21.81,0,0,0,25.37,33.45Z" stroke="#113553" stroke-linejoin="round" fill="url(#f)"/><line x1="17.53" y1="38.12" x2="17.54" y2="34.59" fill="none" stroke="#113553" stroke-linecap="round" stroke-linejoin="round"/><line x1="24.47" y1="38.83" x2="24.47" y2="35.3" fill="none" stroke="#113553" stroke-linecap="round" stroke-linejoin="round"/><ellipse cx="21.01" cy="32.42" rx="1" ry="2.49" transform="translate(-13.72 49.35) rotate(-83.04)" fill="none" stroke="#113553" stroke-linejoin="round"/><polygon points="25.5 24.69 23.5 24.39 23.5 20.39 25.5 20.69 25.5 24.69" stroke="#003755" stroke-linejoin="round" fill="url(#g)"/><polygon points="22.38 16.68 20.96 17.87 23.79 21.14 25.21 19.94 22.38 16.68" stroke="#003755" stroke-linejoin="round" fill="url(#g)"/><polygon points="19.55 20.48 22.39 18.08 20.98 16.45 18.14 18.85 19.55 20.48" stroke="#003755" stroke-linejoin="round" fill="url(#g)"/><polygon points="18.14 19.33 19.06 22 20.3 19.49 18.14 19.33" stroke="#003755" stroke-linejoin="round" fill="url(#g)"/><ellipse cx="21.67" cy="17.27" rx="0.93" ry="1.08" transform="translate(-5.97 19.32) rotate(-42.8)" stroke="#323232" stroke-linejoin="round" fill="url(#k)"/><ellipse cx="24.5" cy="20.54" rx="0.93" ry="1.08" transform="translate(-7.43 22.12) rotate(-42.8)" stroke="#323232" stroke-linejoin="round" fill="url(#k)"/><polygon points="27.5 28 22.5 27.23 22.5 24.23 27.5 25 27.5 28" stroke="#003755" stroke-linejoin="round" fill="url(#g)"/><polygon points="27.5 25 25.5 24.69 25.5 22.69 27.5 23 27.5 25" stroke="#003755" stroke-linejoin="round" fill="url(#g)"/><path d="M15.5,24.15l8,1.23a1.22,1.22,0,0,1,1,1.16h0a.83.83,0,0,1-1,.84l-8-1.23a1.21,1.21,0,0,1-1-1.15h0A.84.84,0,0,1,15.5,24.15Z" fill="url(#o)"/><ellipse cx="15.5" cy="25.15" rx="0.93" ry="1.08" transform="translate(-12.96 17.23) rotate(-42.8)" stroke="#787878" stroke-linejoin="round" fill="url(#p)"/><ellipse cx="23.5" cy="26.38" rx="0.93" ry="1.08" transform="translate(-11.67 22.99) rotate(-42.8)" stroke="#787878" stroke-linejoin="round" fill="url(#q)"/><ellipse cx="19.5" cy="25.77" rx="0.93" ry="1.08" transform="translate(-12.32 20.11) rotate(-42.8)" stroke="#787878" stroke-linejoin="round" fill="url(#r)"/><path d="M15.5,24.15l8,1.23a1.22,1.22,0,0,1,1,1.16h0a.83.83,0,0,1-1,.84l-8-1.23a1.21,1.21,0,0,1-1-1.15h0A.84.84,0,0,1,15.5,24.15Z" fill="none" stroke="#323232" stroke-linejoin="round"/><path d="M46.5,16.3v6l-7,1.07v-3a.84.84,0,0,0-1-.85l-1,.15h0a2.42,2.42,0,0,1,2-2.3Z" fill="url(#s)"/><path d="M46.5,16.3l-7,1.07a2.42,2.42,0,0,0-2,2.3h0l1-.15a.84.84,0,0,1,1,.85v6a.83.83,0,0,0,1,.84l5-.76a1.21,1.21,0,0,0,1-1.15Z" fill="none" stroke="#003755" stroke-linejoin="round"/><line x1="47.5" y1="16.15" x2="44.5" y2="16.61" fill="none" stroke="#003755" stroke-linecap="round" stroke-linejoin="round"/><path d="M39.5,22.37a4.23,4.23,0,0,1,2-1.31c1-.15,2,.7,3,.55a6.08,6.08,0,0,0,2-.81v4.5a1.21,1.21,0,0,1-1,1.15l-5,.76a.83.83,0,0,1-1-.84Z" stroke="#003755" stroke-linejoin="round" fill="url(#g)"/><polygon points="45 19.03 45 18.03 44 18.18 43 18.33 43 25.33 44 25.18 45 25.03 45 24.03 44 24.18 44 23.18 45 23.03 45 22.03 44 22.18 44 21.18 45 21.03 45 20.03 44 20.18 44 19.18 45 19.03" fill="url(#u)"/><path d="M35,40.73l-1-3.4A24.93,24.93,0,0,1,42,35l1-3.1-1.5.15v-1l5-.52.5.95-2,.21v4l4-.42,1,2.4-4.51.47L44,39.79Z" fill="url(#v)"/><path d="M41.47,37.05a11.34,11.34,0,0,1,.86-4.58l3.74-.39.36,2.48a6.81,6.81,0,0,0-3.69,2.36Z" fill="url(#w)"/><path d="M45.65,32.63l.22,1.56a7.52,7.52,0,0,0-3.39,2.25l-.5.06a10.92,10.92,0,0,1,.7-3.57l3-.3m.85-1.1L42,32a11.39,11.39,0,0,0-1,5.6l2-.2A6.29,6.29,0,0,1,47,35l-.5-3.45Z" fill="#323232"/><path d="M48,39.37V34.6a4.36,4.36,0,0,0-1.67-.05,4.41,4.41,0,0,0-3.83,4.31c0,.37,0,1.08.14,1.07Z" fill="url(#x)"/><polygon points="34 37.33 35 36.73 36 40.63 35 40.73 34 37.33" fill="url(#y)"/><ellipse cx="46.25" cy="38.81" rx="3.42" ry="3.09" transform="translate(-13.74 45.63) rotate(-46.49)" fill="url(#y)"/><path d="M46,40.32A1.27,1.27,0,0,1,44.75,39,1.77,1.77,0,0,1,46.3,37.3h.16a1.26,1.26,0,0,1,1.29,1.3,1.77,1.77,0,0,1-1.55,1.71Z" fill="url(#aa)"/><path d="M46.46,37.8a.76.76,0,0,1,.79.8,1.27,1.27,0,0,1-1.1,1.21H46a.76.76,0,0,1-.79-.8,1.27,1.27,0,0,1,1.1-1.22h.11m0-1h-.21a2.27,2.27,0,0,0-2,2.21A1.76,1.76,0,0,0,46,40.82h.21a2.29,2.29,0,0,0,2-2.21,1.76,1.76,0,0,0-1.79-1.8Z" fill="#323232"/><ellipse cx="37" cy="40.52" rx="2.63" ry="2.37" transform="translate(-17.86 39.46) rotate(-46.49)" fill="url(#y)"/><path d="M36.84,41.53a.82.82,0,0,1-.84-.85,1.21,1.21,0,0,1,1-1.16h.11a.82.82,0,0,1,.84.85,1.21,1.21,0,0,1-1,1.16Z" fill="url(#ac)"/><path d="M37.16,40a.32.32,0,0,1,.34.35.71.71,0,0,1-.6.67h-.06a.32.32,0,0,1-.34-.35.7.7,0,0,1,.6-.66h.06m0-1H37a1.71,1.71,0,0,0-1.5,1.66A1.32,1.32,0,0,0,36.84,42H37a1.71,1.71,0,0,0,1.5-1.66A1.32,1.32,0,0,0,37.16,39Z" fill="#323232"/><path d="M31.69,17.89c-1.36-1.09-4.21-2.24-8.69-3v30a26,26,0,0,1,9,3V18A.51.51,0,0,1,31.69,17.89Z" opacity="0.4" fill="url(#ad)"/><path d="M32.31,17.89c1.36-1.09,4.21-2.24,8.69-3v30a26,26,0,0,0-9,3V18A.51.51,0,0,0,32.31,17.89Z" opacity="0.15" fill="url(#ae)"/></svg>