<?xml version="1.0" encoding="utf-8"?>
<!-- Generator: Adobe Illustrator 25.2.3, SVG Export Plug-In . SVG Version: 6.00 Build 0)  -->
<svg version="1.1" id="Layer_1" xmlns="http://www.w3.org/2000/svg" xmlns:xlink="http://www.w3.org/1999/xlink" x="0px" y="0px"
	 viewBox="0 0 64 64" style="enable-background:new 0 0 64 64;" xml:space="preserve">
<style type="text/css">
	.st0{fill:url(#SVGID_1_);}
	.st1{fill:#656565;}
	.st2{opacity:0.2;filter:url(#DS_GaussianBlur_2);}
	.st3{fill:#010101;}
	.st4{fill:url(#SVGID_2_);}
	.st5{fill:#797979;}
	.st6{fill:none;stroke:#333232;stroke-miterlimit:10;}
	.st7{fill:url(#SVGID_3_);}
	.st8{fill:#043855;}
	.st9{fill:url(#SVGID_4_);stroke:#333232;stroke-linejoin:round;stroke-miterlimit:10;}
	.st10{fill:url(#SVGID_5_);stroke:#053755;stroke-linejoin:round;stroke-miterlimit:10;}
</style>
<filter  height="200%" id="DS_GaussianBlur_2" width="200%" x="-50%" y="-50%">
	<feGaussianBlur  stdDeviation="1"></feGaussianBlur>
</filter>
<g>
	<linearGradient id="SVGID_1_" gradientUnits="userSpaceOnUse" x1="18.5096" y1="8.7058" x2="48.2942" y2="60.2942">
		<stop  offset="0" style="stop-color:#FFFFFF"/>
		<stop  offset="1" style="stop-color:#D4D5D3"/>
	</linearGradient>
	<polygon class="st0" points="18,57 18,9 42,9 54,21 54,57 	"/>
</g>
<rect x="23" y="15" class="st1" width="13" height="1"/>
<rect x="23" y="18" class="st1" width="26" height="1"/>
<rect x="23" y="21" class="st1" width="26" height="1"/>
<rect x="23" y="29" class="st1" width="26" height="1"/>
<rect x="23" y="32" class="st1" width="26" height="1"/>
<rect x="23" y="35" class="st1" width="26" height="1"/>
<rect x="23" y="46" class="st1" width="26" height="1"/>
<rect x="23" y="43" class="st1" width="26" height="1"/>
<rect x="23" y="49" class="st1" width="26" height="1"/>
<g class="st2">
	<path class="st3" d="M43.62,21.46c-1.52,0.21-2.11-1.05-2.11-2.11V7.78l12.63,12.36v1.33H43.62z"/>
</g>
<g>
	<linearGradient id="SVGID_2_" gradientUnits="userSpaceOnUse" x1="47.5448" y1="15.4552" x2="44.9003" y2="18.0997">
		<stop  offset="0" style="stop-color:#F5F6F6"/>
		<stop  offset="1" style="stop-color:#BFBEBE"/>
	</linearGradient>
	<path class="st4" d="M42.24,21.5c-0.41,0-0.74-0.33-0.74-0.74V8.5h0.37L54.5,21.13v0.37H42.24z"/>
	<path class="st5" d="M42,9.34L53.66,21H42.24C42.11,21,42,20.89,42,20.76V9.34 M42.08,8H41v12.76c0,0.69,0.56,1.24,1.24,1.24H55
		v-1.08L42.08,8L42.08,8z"/>
</g>
<path class="st6" d="M53.5,57.5h-35c-0.55,0-1-0.45-1-1v-47c0-0.55,0.45-1,1-1h23.35L54.5,21.01V56.5
	C54.5,57.05,54.05,57.5,53.5,57.5z"/>
<g>
	<g>
		<linearGradient id="SVGID_3_" gradientUnits="userSpaceOnUse" x1="13.1463" y1="21.1269" x2="22.8537" y2="37.9405">
			<stop  offset="0" style="stop-color:#8DD7F4"/>
			<stop  offset="1" style="stop-color:#386F8D"/>
		</linearGradient>
		<polygon class="st7" points="18,32.11 12.5,37.57 12.5,21.5 23.5,21.5 23.5,37.57 		"/>
		<path class="st8" d="M23,22v14.37l-4.3-4.26l-0.7-0.7l-0.7,0.7L13,36.37V22H23 M23.67,21H12.31C12.14,21,12,21.14,12,21.31v17.46
			l6-5.95l6,5.95V21.33C24,21.15,23.85,21,23.67,21L23.67,21z"/>
	</g>
</g>
<linearGradient id="SVGID_4_" gradientUnits="userSpaceOnUse" x1="12.9991" y1="8.9721" x2="24.0009" y2="28.0279">
	<stop  offset="0" style="stop-color:#FFFFFF"/>
	<stop  offset="1" style="stop-color:#D4D5D3"/>
</linearGradient>
<circle class="st9" cx="18.5" cy="18.5" r="11"/>
<linearGradient id="SVGID_5_" gradientUnits="userSpaceOnUse" x1="14.3507" y1="11.9512" x2="22.4084" y2="25.9075">
	<stop  offset="0" style="stop-color:#85BEDC"/>
	<stop  offset="1" style="stop-color:#285B79"/>
</linearGradient>
<path class="st10" d="M18.16,9.75l2.36,5.08l5.44,1.42l-3.98,3.34l1.38,5.76l-5.21-2.82l-5.21,2.82l1.38-5.76l-3.98-3.34l5.44-1.42
	L18.16,9.75z"/>
</svg>
