<?xml version="1.0" encoding="utf-8"?>
<!-- Generator: Adobe Illustrator 24.0.0, SVG Export Plug-In . SVG Version: 6.00 Build 0)  -->
<svg version="1.1" id="Layer_1" xmlns="http://www.w3.org/2000/svg" xmlns:xlink="http://www.w3.org/1999/xlink" x="0px" y="0px"
	 viewBox="0 0 64 64" style="enable-background:new 0 0 64 64;" xml:space="preserve">
<style type="text/css">
	.BLUE_x0020_Fill{fill:url(#SVGID_1_);}
	.De_x002D_emphasized_x0020_GREY_x0020_fill{opacity:0.5;fill:#646464;}
	.st0{fill:url(#SVGID_2_);}
	.st1{fill:url(#SVGID_3_);}
	.st2{fill:url(#SVGID_4_);}
	.st3{fill:none;stroke:#333333;stroke-width:2;stroke-miterlimit:10;}
	.st4{fill:#333333;}
	.st5{fill:url(#SVGID_5_);stroke:#323232;stroke-width:0.9173;stroke-linejoin:round;stroke-miterlimit:10;}
	.st6{fill:url(#SVGID_6_);}
	.st7{fill:url(#SVGID_7_);}
	.st8{fill:url(#SVGID_8_);}
</style>
<linearGradient id="SVGID_1_" gradientUnits="userSpaceOnUse" x1="-77" y1="0" x2="-76.5" y2="0.866">
	<stop  offset="0" style="stop-color:#3287AF"/>
	<stop  offset="1" style="stop-color:#285A78"/>
</linearGradient>
<g>
	<g>
		<g>
			<linearGradient id="SVGID_2_" gradientUnits="userSpaceOnUse" x1="9.6221" y1="9.176" x2="15.595" y2="19.5213">
				<stop  offset="0" style="stop-color:#3287AF"/>
				<stop  offset="1" style="stop-color:#285A78"/>
			</linearGradient>
			<rect x="10.7" y="18.7" class="st0" width="2.7" height="2.1"/>
			<linearGradient id="SVGID_3_" gradientUnits="userSpaceOnUse" x1="9.6221" y1="9.176" x2="15.595" y2="19.5213">
				<stop  offset="0" style="stop-color:#3287AF"/>
				<stop  offset="1" style="stop-color:#285A78"/>
			</linearGradient>
			<path class="st1" d="M14.6,9.5C13.8,9.1,12.8,9,11.7,9c-1.3,0-2.3,0.3-3.2,0.8c-1,0.7-1.5,1.7-1.5,3h2.8v0c0-0.5,0.1-0.9,0.4-1.2
				c0.4-0.4,0.9-0.6,1.7-0.6c0.5,0,0.9,0.1,1.3,0.3c0.4,0.3,0.6,0.7,0.6,1.3c0,0.4-0.1,0.7-0.3,1c-0.2,0.3-0.5,0.5-0.9,0.8
				c-0.9,0.5-1.4,1-1.7,1.4c-0.2,0.4-0.3,1-0.3,1.9h2.6c0-0.6,0.1-1,0.3-1.3c0.1-0.2,0.5-0.5,0.9-0.7c0.8-0.5,1.4-1,1.7-1.4
				c0.4-0.5,0.6-1.1,0.6-1.8C16.7,11.1,16,10.1,14.6,9.5z"/>
		</g>
	</g>
	<g>
		<linearGradient id="SVGID_4_" gradientUnits="userSpaceOnUse" x1="49.9502" y1="44.1287" x2="55.9849" y2="54.5812">
			<stop  offset="0" style="stop-color:#3287AF"/>
			<stop  offset="1" style="stop-color:#285A78"/>
		</linearGradient>
		<path class="st2" d="M53,48.6c-1.3,0-2.3-0.6-2.3-1.2s0.9-1.2,2.3-1.2c1,0,1.8,0.4,2.1,0.8H57c-0.2-1.1-1.4-2-3-2.3V43h-2v1.7
			c-1.7,0.3-3,1.4-3,2.7c0,0.8,0.5,1.5,1.2,2c0.7,0.5,1.7,0.8,2.8,0.8c1.3,0,2.3,0.6,2.3,1.2c0,0.6-0.9,1.2-2.3,1.2
			c-1,0-1.8-0.4-2.1-0.8h-1.9c0.2,1.1,1.5,2,3,2.3v1.8h2V54c1.8-0.3,3-1.4,3-2.7c0-0.8-0.5-1.5-1.2-2C55.1,48.9,54.1,48.6,53,48.6z"
			/>
	</g>
	<g>
		<g>
			<path class="st3" d="M26.1,8.7c5.4-0.7,12.8-1,18.1,1.6C57.8,17,54.5,38.9,54.5,38.9"/>
			<g>
				<polygon class="st4" points="28.5,13.5 19.1,10.1 26.7,3.6 				"/>
			</g>
		</g>
	</g>
	<g>
		<g>
			<path class="st3" d="M39.8,52.5c-5.6,0.5-13.4,0.7-18.9-1.5C6.2,45.1,10,24.8,10,24.8"/>
			<g>
				<polygon class="st4" points="37.7,47.7 46.9,51.5 39,57.6 				"/>
			</g>
		</g>
	</g>
	<g>
		<linearGradient id="SVGID_5_" gradientUnits="userSpaceOnUse" x1="23.9713" y1="14.4958" x2="43.0287" y2="47.5042">
			<stop  offset="0" style="stop-color:#FFFFFF"/>
			<stop  offset="1" style="stop-color:#D4D5D3"/>
		</linearGradient>
		<rect x="20.5" y="16.5" class="st5" width="26" height="29"/>
		<g>
			<rect x="23" y="32" class="De_x002D_emphasized_x0020_GREY_x0020_fill" width="21" height="1"/>
			<rect x="23" y="35" class="De_x002D_emphasized_x0020_GREY_x0020_fill" width="21" height="1"/>
			<rect x="23" y="38" class="De_x002D_emphasized_x0020_GREY_x0020_fill" width="21" height="1"/>
		</g>
		<g>
			<g>
				<linearGradient id="SVGID_6_" gradientUnits="userSpaceOnUse" x1="29.8919" y1="18.6973" x2="36.3214" y2="29.8335">
					<stop  offset="0" style="stop-color:#3287AF"/>
					<stop  offset="7.537689e-03" style="stop-color:#285A78"/>
				</linearGradient>
				<path class="st6" d="M25.8,27v-6h2.8c0.6,0,1,0.1,1.3,0.2c0.3,0.1,0.5,0.3,0.7,0.6c0.2,0.3,0.3,0.6,0.3,0.9
					c0,0.4-0.1,0.8-0.4,1.1c-0.3,0.3-0.7,0.5-1.3,0.6c0.2,0.1,0.4,0.2,0.5,0.3c0.2,0.2,0.5,0.5,0.7,0.8l1.1,1.6h-1.1l-0.8-1.2
					c-0.2-0.4-0.4-0.6-0.6-0.8s-0.3-0.3-0.4-0.4c-0.1-0.1-0.3-0.1-0.4-0.2c-0.1,0-0.3,0-0.5,0h-1V27H25.8z M26.7,23.7h1.8
					c0.4,0,0.7,0,0.9-0.1s0.4-0.2,0.5-0.4s0.2-0.3,0.2-0.5c0-0.3-0.1-0.5-0.3-0.7c-0.2-0.2-0.6-0.3-1-0.3h-2V23.7z"/>
				<linearGradient id="SVGID_7_" gradientUnits="userSpaceOnUse" x1="29.8919" y1="18.6973" x2="36.3214" y2="29.8335">
					<stop  offset="0" style="stop-color:#3287AF"/>
					<stop  offset="7.537689e-03" style="stop-color:#285A78"/>
				</linearGradient>
				<path class="st7" d="M32.2,27v-6h4.3v0.7H33v1.9h3v0.7h-3V27H32.2z"/>
				<linearGradient id="SVGID_8_" gradientUnits="userSpaceOnUse" x1="29.8919" y1="18.6973" x2="36.3214" y2="29.8335">
					<stop  offset="0" style="stop-color:#3287AF"/>
					<stop  offset="7.537689e-03" style="stop-color:#285A78"/>
				</linearGradient>
				<path class="st8" d="M36.9,27l1.7-2.3L37,22.7h1l0.7,1c0.1,0.2,0.2,0.4,0.3,0.5c0.1-0.2,0.2-0.3,0.3-0.5l0.8-1h0.9l-1.6,2
					l1.7,2.3h-1l-0.9-1.4L39,25.3L37.8,27H36.9z"/>
			</g>
		</g>
	</g>
</g>
</svg>
