<svg xmlns="http://www.w3.org/2000/svg" xmlns:xlink="http://www.w3.org/1999/xlink" width="64" height="64" viewBox="0 0 64 64">
  <defs>
    <linearGradient id="a" x1="19" y1="32" x2="23" y2="32" gradientUnits="userSpaceOnUse">
      <stop offset="0" stop-color="#464647"/>
      <stop offset="1" stop-color="#151515"/>
    </linearGradient>
    <linearGradient id="b" x1="26" y1="19" x2="38" y2="19" xlink:href="#a"/>
    <linearGradient id="c" x1="15.56" y1="9.578" x2="26.44" y2="28.422" gradientUnits="userSpaceOnUse">
      <stop offset="0" stop-color="#fff"/>
      <stop offset="1" stop-color="#d4d5d3"/>
    </linearGradient>
    <linearGradient id="d" data-name="White, Black" x1="15.811" y1="10.012" x2="26.189" y2="27.988" gradientUnits="userSpaceOnUse">
      <stop offset="0" stop-color="#fff"/>
      <stop offset="1"/>
    </linearGradient>
    <linearGradient id="e" x1="15.56" y1="35.578" x2="26.44" y2="54.422" xlink:href="#c"/>
    <linearGradient id="f" x1="15.811" y1="36.012" x2="26.189" y2="53.988" xlink:href="#d"/>
    <linearGradient id="g" x1="39" y1="17.5" x2="54.897" y2="17.5" gradientUnits="userSpaceOnUse">
      <stop offset="0" stop-color="#8dd7f4"/>
      <stop offset="0.492" stop-color="#386e8c"/>
      <stop offset="0.612" stop-color="#3b718f"/>
      <stop offset="0.708" stop-color="#437b99"/>
      <stop offset="0.795" stop-color="#508caa"/>
      <stop offset="0.877" stop-color="#63a4c1"/>
      <stop offset="0.955" stop-color="#7cc2df"/>
      <stop offset="1" stop-color="#8dd7f4"/>
    </linearGradient>
    <linearGradient id="h" x1="36.271" y1="23.5" x2="37.816" y2="23.5" gradientUnits="userSpaceOnUse">
      <stop offset="0" stop-color="#8dd7f4"/>
      <stop offset="1" stop-color="#386e8c"/>
    </linearGradient>
  </defs>
  <title>35877_ENXROUT_AP_AppIcon_r21x</title>
  <g>
    <rect x="19" y="24" width="4" height="16" opacity="0.5" stroke="#fff" stroke-linejoin="round" stroke-width="3" fill="#fff"/>
    <rect x="26" y="17" width="12" height="4" opacity="0.5" stroke="#fff" stroke-linejoin="round" stroke-width="3" fill="#fff"/>
    <rect x="19" y="24" width="4" height="16" fill="url(#a)"/>
    <rect x="26" y="17" width="12" height="4" fill="url(#b)"/>
    <polygon points="19 28 23 31.042 23 25 19 25 19 28" opacity="0.3"/>
    <polygon points="29.979 17.021 33.021 21 26.979 21 26.979 17.021 29.979 17.021" opacity="0.3"/>
  </g>
  <g>
    <rect x="12.5" y="10.5" width="17" height="17" rx="2" stroke="#323232" stroke-linejoin="round" fill="url(#c)"/>
    <path d="M27.5,11h-13A1.5,1.5,0,0,0,13,12.5v13A1.5,1.5,0,0,0,14.5,27h13A1.5,1.5,0,0,0,29,25.5v-13A1.5,1.5,0,0,0,27.5,11ZM28,25.5a.5.5,0,0,1-.5.5h-13a.5.5,0,0,1-.5-.5v-13a.5.5,0,0,1,.5-.5h13a.5.5,0,0,1,.5.5Z" opacity="0.2" fill="url(#d)"/>
  </g>
  <g>
    <rect x="12.5" y="36.5" width="17" height="17" rx="2" stroke="#323232" stroke-linejoin="round" fill="url(#e)"/>
    <path d="M27.5,37h-13A1.5,1.5,0,0,0,13,38.5v13A1.5,1.5,0,0,0,14.5,53h13A1.5,1.5,0,0,0,29,51.5v-13A1.5,1.5,0,0,0,27.5,37ZM28,51.5a.5.5,0,0,1-.5.5h-13a.5.5,0,0,1-.5-.5v-13a.5.5,0,0,1,.5-.5h13a.5.5,0,0,1,.5.5Z" opacity="0.2" fill="url(#f)"/>
  </g>
  <g>
    <path d="M36.5,14.5s2-4,6-4,5,4,9,4a4.333,4.333,0,0,0,4-2v10a4.333,4.333,0,0,1-4,2c-4,0-5-4-9-4-5,0-6,4-6,4Z" stroke="#053755" stroke-linejoin="round" fill="url(#g)"/>
    <path d="M37,10.5h0A1.5,1.5,0,0,1,38.5,12V36.5a0,0,0,0,1,0,0h-3a0,0,0,0,1,0,0V12A1.5,1.5,0,0,1,37,10.5Z" stroke="#053755" stroke-linejoin="round" fill="url(#h)"/>
  </g>
</svg>
