<?xml version="1.0" encoding="utf-8"?>
<!-- Generator: Adobe Illustrator 25.2.3, SVG Export Plug-In . SVG Version: 6.00 Build 0)  -->
<svg version="1.1" id="Layer_1" xmlns="http://www.w3.org/2000/svg" xmlns:xlink="http://www.w3.org/1999/xlink" x="0px" y="0px"
	 viewBox="0 0 64 64" style="enable-background:new 0 0 64 64;" xml:space="preserve">
<style type="text/css">
	
		.Blue_x0020_RIGHT_x002C__x0020_FRONT_x0020__x0026__x0020_SINGLE_x0020_2{fill:url(#SVGID_1_);stroke:#053755;stroke-linejoin:round;stroke-miterlimit:10;}
	.White_x0020_SINGLE_x0020_2{fill:url(#SVGID_2_);stroke:#323232;stroke-linejoin:round;stroke-miterlimit:10;}
	.st0{fill:none;stroke:#171717;stroke-linecap:round;stroke-miterlimit:10;}
	.st1{fill:none;stroke:#063755;stroke-linecap:round;stroke-miterlimit:10;}
	.st2{fill:url(#SVGID_3_);stroke:#053755;stroke-linejoin:round;stroke-miterlimit:10;}
	.st3{fill:none;stroke:#063755;stroke-linecap:round;stroke-linejoin:round;stroke-miterlimit:10;}
	.st4{opacity:0.5;}
	.st5{fill:#FFFFFF;}
	.st6{fill:none;stroke:#323232;stroke-linecap:round;stroke-miterlimit:10;}
	.st7{fill:url(#SVGID_4_);stroke:#323232;stroke-linejoin:round;stroke-miterlimit:10;}
	.st8{fill:none;stroke:#FFFFFF;stroke-width:3;stroke-linecap:round;stroke-linejoin:round;stroke-miterlimit:10;}
	.st9{fill:url(#SVGID_5_);stroke:#323232;stroke-linejoin:round;stroke-miterlimit:10;}
</style>
<linearGradient id="SVGID_1_" gradientUnits="userSpaceOnUse" x1="-72" y1="-77" x2="-71.5" y2="-76.134">
	<stop  offset="0" style="stop-color:#8DD7F4"/>
	<stop  offset="1" style="stop-color:#386E8C"/>
</linearGradient>
<linearGradient id="SVGID_2_" gradientUnits="userSpaceOnUse" x1="-72" y1="-77" x2="-71.5" y2="-76.134">
	<stop  offset="0" style="stop-color:#FFFFFF"/>
	<stop  offset="1" style="stop-color:#D4D5D3"/>
</linearGradient>
<g>
	<path class="st0" d="M13.96,25.07"/>
	<path class="st0" d="M27.07,38.19"/>
	<line class="st1" x1="19.5" y1="16.5" x2="19.5" y2="6.5"/>
	<line class="st1" x1="25.5" y1="16.5" x2="25.5" y2="6.5"/>
	<line class="st1" x1="31.5" y1="16.5" x2="31.5" y2="6.5"/>
	<line class="st1" x1="37.5" y1="16.5" x2="37.5" y2="6.5"/>
	<line class="st1" x1="43.5" y1="16.5" x2="43.5" y2="6.5"/>
	<line class="st1" x1="19.5" y1="56.5" x2="19.5" y2="46.5"/>
	<line class="st1" x1="25.5" y1="56.5" x2="25.5" y2="46.5"/>
	<line class="st1" x1="31.5" y1="56.5" x2="31.5" y2="46.5"/>
	<line class="st1" x1="37.5" y1="56.5" x2="37.5" y2="46.5"/>
	<line class="st1" x1="43.5" y1="56.5" x2="43.5" y2="46.5"/>
	<line class="st1" x1="46.5" y1="19.5" x2="56.5" y2="19.5"/>
	<line class="st1" x1="46.5" y1="25.5" x2="56.5" y2="25.5"/>
	<line class="st1" x1="46.5" y1="31.5" x2="56.5" y2="31.5"/>
	<line class="st1" x1="46.5" y1="37.5" x2="56.5" y2="37.5"/>
	<line class="st1" x1="46.5" y1="43.5" x2="56.5" y2="43.5"/>
	<line class="st1" x1="6.5" y1="19.5" x2="16.5" y2="19.5"/>
	<line class="st1" x1="6.5" y1="25.5" x2="16.5" y2="25.5"/>
	<line class="st1" x1="6.5" y1="31.5" x2="16.5" y2="31.5"/>
	<line class="st1" x1="6.5" y1="37.5" x2="16.5" y2="37.5"/>
	<line class="st1" x1="6.5" y1="43.5" x2="16.5" y2="43.5"/>
	<linearGradient id="SVGID_3_" gradientUnits="userSpaceOnUse" x1="20.3724" y1="12.2264" x2="42.6276" y2="50.7736">
		<stop  offset="0" style="stop-color:#8DD7F4"/>
		<stop  offset="1" style="stop-color:#386E8C"/>
	</linearGradient>
	<path class="st2" d="M45.86,48.5H17.14c-1.46,0-2.64-1.18-2.64-2.64V17.14c0-1.46,1.18-2.64,2.64-2.64h28.71
		c1.46,0,2.64,1.18,2.64,2.64v28.71C48.5,47.32,47.32,48.5,45.86,48.5z"/>
	<polyline class="st3" points="15,22.5 22.5,22.5 22.5,18.5 27.5,18.5 27.5,15 	"/>
	<polyline class="st3" points="33.5,14.5 33.5,18.5 27.91,24.09 	"/>
	<polyline class="st3" points="39.5,14.5 39.5,24.5 36.5,24.5 33.5,27.5 33.5,31.5 30.5,34.5 14.5,34.5 	"/>
	<polyline class="st3" points="14.5,42.5 21.25,42.5 25.5,39.5 32.5,39.5 	"/>
	<polyline class="st3" points="43.5,48.5 43.5,39.5 41.5,36.5 41.5,31.5 	"/>
	<circle class="st3" cx="41.5" cy="29.5" r="2"/>
	<circle class="st3" cx="26.5" cy="25.5" r="2"/>
	<circle class="st3" cx="34.5" cy="39.5" r="2"/>
</g>
<g>
	<g class="st4">
		<g>
			<g>
				<line class="st5" x1="32.5" y1="50.5" x2="23.5" y2="50.5"/>
				<line class="st5" x1="32.5" y1="44.5" x2="23.5" y2="44.5"/>
				<path class="st5" d="M39.33,55.5H30c0,0,1.95-3.75,1.95-8c0-4-1.95-8-1.95-8h9.33c2.19,0,4.17,0.88,5.62,2.3
					c0.58,0.57,1.49,1.58,2.38,2.6c1.36,1.55,2.67,3.1,2.67,3.1v0c0,0-1.28,1.56-2.67,3.14c-0.97,1.1-1.99,2.22-2.66,2.82
					C43.26,54.73,41.39,55.5,39.33,55.5z"/>
				<line class="st5" x1="56.5" y1="47.5" x2="50" y2="47.5"/>
			</g>
		</g>
		<g>
			<g>
				<line class="st6" x1="32.5" y1="50.5" x2="23.5" y2="50.5"/>
				<line class="st6" x1="32.5" y1="44.5" x2="23.5" y2="44.5"/>
				<linearGradient id="SVGID_4_" gradientUnits="userSpaceOnUse" x1="32.3038" y1="38.1699" x2="42.102" y2="55.1407">
					<stop  offset="0" style="stop-color:#FFFFFF"/>
					<stop  offset="1" style="stop-color:#D4D5D3"/>
				</linearGradient>
				<path class="st7" d="M39.33,55.5H30c0,0,1.95-3.75,1.95-8c0-4-1.95-8-1.95-8h9.33c2.19,0,4.17,0.88,5.62,2.3
					c0.58,0.57,1.49,1.58,2.38,2.6c1.36,1.55,2.67,3.1,2.67,3.1v0c0,0-1.28,1.56-2.67,3.14c-0.97,1.1-1.99,2.22-2.66,2.82
					C43.26,54.73,41.39,55.5,39.33,55.5z"/>
				<line class="st6" x1="56.5" y1="47.5" x2="50" y2="47.5"/>
			</g>
		</g>
		<g>
			<g>
				<line class="st8" x1="32.5" y1="50.5" x2="23.5" y2="50.5"/>
				<line class="st8" x1="32.5" y1="44.5" x2="23.5" y2="44.5"/>
				<path class="st8" d="M39.33,55.5H30c0,0,1.95-3.75,1.95-8c0-4-1.95-8-1.95-8h9.33c2.19,0,4.17,0.88,5.62,2.3
					c0.58,0.57,1.49,1.58,2.38,2.6c1.36,1.55,2.67,3.1,2.67,3.1v0c0,0-1.28,1.56-2.67,3.14c-0.97,1.1-1.99,2.22-2.66,2.82
					C43.26,54.73,41.39,55.5,39.33,55.5z"/>
				<line class="st8" x1="56.5" y1="47.5" x2="50" y2="47.5"/>
			</g>
		</g>
	</g>
	<g>
		<g>
			<line class="st6" x1="32.5" y1="50.5" x2="23.5" y2="50.5"/>
			<line class="st6" x1="32.5" y1="44.5" x2="23.5" y2="44.5"/>
			
				<linearGradient id="SVGID_5_" gradientUnits="userSpaceOnUse" x1="38.3" y1="23.2562" x2="48.9602" y2="41.7203" gradientTransform="matrix(0 -1 1 0 4.7146 90.2854)">
				<stop  offset="0" style="stop-color:#FFFFFF"/>
				<stop  offset="1" style="stop-color:#D4D5D3"/>
			</linearGradient>
			<path class="st9" d="M39.33,55.5H30c0,0,1.95-3.75,1.95-8c0-4-1.95-8-1.95-8h9.33c2.19,0,4.17,0.88,5.62,2.3
				c0.58,0.57,1.49,1.58,2.38,2.6c1.36,1.55,2.67,3.1,2.67,3.1v0c0,0-1.28,1.56-2.67,3.14c-0.97,1.1-1.99,2.22-2.66,2.82
				C43.26,54.73,41.39,55.5,39.33,55.5z"/>
			<line class="st6" x1="56.5" y1="47.5" x2="50" y2="47.5"/>
		</g>
	</g>
</g>
</svg>
