<svg id="_32_1_X_REPRISEa_copy_2" data-name="32  1 X  REPRISEa copy 2" xmlns="http://www.w3.org/2000/svg" xmlns:xlink="http://www.w3.org/1999/xlink" viewBox="0 0 64 64"><defs><style>.cls-1{fill:none;}.cls-2,.cls-3{fill:url(#linear-gradient);}.cls-3{stroke:#787878;}.cls-3,.cls-4,.cls-5,.cls-6,.cls-7,.cls-8{stroke-linecap:round;stroke-linejoin:round;stroke-width:0.25px;}.cls-4,.cls-5,.cls-6,.cls-7,.cls-8{stroke:#323232;}.cls-4{fill:url(#linear-gradient-3);}.cls-5{fill:url(#linear-gradient-4);}.cls-6{fill:url(#linear-gradient-5);}.cls-19,.cls-7{fill:#323232;}.cls-8{fill:url(#linear-gradient-6);}.cls-9{fill:url(#linear-gradient-7);}.cls-10{fill:url(#linear-gradient-8);}.cls-11{fill:url(#linear-gradient-9);}.cls-12{fill:#787878;}.DARK-GREY-Fill{fill:url(#linear-gradient-10);}.cls-13{clip-path:url(#clip-path);}.cls-14{fill:#fff;}.cls-15{fill:url(#linear-gradient-11);}.cls-16{fill:url(#linear-gradient-12);}.cls-17{fill:url(#linear-gradient-13);}.cls-18{fill:url(#linear-gradient-14);}.cls-20{opacity:0.5;}.cls-21{fill:#797979;}.cls-22{fill:url(#linear-gradient-15);}.cls-23{fill:#003755;}</style><linearGradient id="linear-gradient" x1="22.85" y1="40.7" x2="29.33" y2="51.92" gradientUnits="userSpaceOnUse"><stop offset="0" stop-color="#d7d7d7"/><stop offset="1" stop-color="#969696"/></linearGradient><linearGradient id="linear-gradient-3" x1="12.35" y1="46.76" x2="16.08" y2="53.23" gradientUnits="userSpaceOnUse"><stop offset="0" stop-color="#aaa"/><stop offset="1" stop-color="#5a5a5a"/></linearGradient><linearGradient id="linear-gradient-4" x1="15.67" y1="49.67" x2="39.79" y2="49.67" xlink:href="#linear-gradient-3"/><linearGradient id="linear-gradient-5" x1="18.65" y1="40.92" x2="22.06" y2="46.82" xlink:href="#linear-gradient-3"/><linearGradient id="linear-gradient-6" x1="21.38" y1="30.06" x2="30.66" y2="46.15" xlink:href="#linear-gradient-3"/><linearGradient id="linear-gradient-7" x1="1.25" y1="17.02" x2="15.33" y2="41.39" xlink:href="#linear-gradient-3"/><linearGradient id="linear-gradient-8" x1="7" y1="29" x2="9.08" y2="29" gradientUnits="userSpaceOnUse"><stop offset="0" stop-color="#aaa"/><stop offset="0.05" stop-color="#9c9c9c"/><stop offset="0.16" stop-color="#848484"/><stop offset="0.29" stop-color="#717171"/><stop offset="0.43" stop-color="#646464"/><stop offset="0.62" stop-color="#5c5c5c"/><stop offset="1" stop-color="#5a5a5a"/></linearGradient><linearGradient id="linear-gradient-9" x1="13.79" y1="10.5" x2="33.27" y2="44.23" xlink:href="#linear-gradient"/><linearGradient id="linear-gradient-10" x1="11.54" y1="28.89" x2="38.62" y2="28.89" gradientUnits="userSpaceOnUse"><stop offset="0" stop-color="#464646"/><stop offset="1" stop-color="#141414"/></linearGradient><clipPath id="clip-path"><polygon class="cls-1" points="38 18.26 13 17.11 13 40.54 38 37.18 38 18.26"/></clipPath><linearGradient id="linear-gradient-11" x1="27.7" y1="36.87" x2="43.98" y2="23.49" gradientUnits="userSpaceOnUse"><stop offset="0.01" stop-color="#fff"/><stop offset="0.1" stop-color="#f4f6f6"/><stop offset="0.26" stop-color="#d8dcdf"/><stop offset="0.47" stop-color="#aab3b9"/><stop offset="0.72" stop-color="#6a7a84"/><stop offset="1" stop-color="#1b3342"/></linearGradient><linearGradient id="linear-gradient-12" x1="11.2" y1="40.03" x2="38.84" y2="40.03" xlink:href="#linear-gradient-11"/><linearGradient id="linear-gradient-13" x1="11.19" y1="28.95" x2="11.54" y2="28.95" xlink:href="#linear-gradient-11"/><linearGradient id="linear-gradient-14" x1="21.23" y1="9.92" x2="28.88" y2="23.18" xlink:href="#linear-gradient-3"/><linearGradient id="linear-gradient-15" x1="39.49" y1="19.46" x2="50.51" y2="38.54" gradientUnits="userSpaceOnUse"><stop offset="0" stop-color="#82bedc"/><stop offset="1" stop-color="#285a78"/></linearGradient></defs><title>2852_XSW_ConnectedSoftware_AP_AppIcon_R21XArtboard 1</title><g id="ecran_OK_copy" data-name="ecran OK *** copy"><g id="pied_ecran_" data-name="pied ecran*****"><g id="top_support_surf" data-name="top support surf"><polygon class="cls-2" points="39.79 45.88 15.67 50.71 12.38 46.74 33.87 43.15 39.79 45.88"/></g><polyline id="top_support_contour" data-name="top  support contour" class="cls-3" points="15.67 50.71 12.38 46.74 33.87 43.15 39.79 45.88"/><polygon id="coté_support_G" data-name="coté support G" class="cls-4" points="15.67 50.71 12.38 46.74 12.38 48.65 15.67 53.47 15.67 50.71"/><polygon id="face" class="cls-5" points="39.79 48.21 15.67 53.47 15.67 50.71 39.79 45.88 39.79 48.21"/></g><g id="verticale_pied_copy" data-name="verticale  pied  *** copy"><polygon id="coté_support_VG" data-name="coté support VG" class="cls-6" points="20.79 40.49 19.68 40.32 19.68 46.83 20.79 47.55 20.79 40.49"/><polygon id="verticale_ombre" data-name="verticale ombre" class="cls-7" points="19.68 45.44 20.79 45.37 20.81 28.2 19.68 29.13 19.68 45.44"/><polygon id="verticale_face" data-name="verticale face" class="cls-8" points="31.91 45.43 20.79 47.55 20.81 30.39 31.91 29.82 31.91 45.43"/><polygon id="verticale_ombre_face_ok" data-name="verticale ombre face ok" class="cls-7" points="31.91 43.44 20.79 45.37 20.81 28.2 31.91 27.83 31.91 43.44"/></g><g id="ecran_" data-name="ecran   ***"><g id="b2"><polygon class="cls-9" points="9.08 45 7 44.4 7 13.7 9 13 9.08 45"/><path class="cls-10" d="M8.75,13.35l.08,31.32-1.58-.46V13.88l1.5-.53M9,13l-2,.7V44.4l2.08.6L9,13Z"/></g><g id="b2-2" data-name="b2"><polygon class="cls-11" points="9.16 13.17 40.84 15.15 40.84 39.86 9.24 44.81 9.16 13.17"/><path class="cls-12" d="M9.33,13.35l31.34,2V39.72L9.4,44.62,9.33,13.35M9,13l.08,32L41,40V15L9,13Z"/></g><polygon id="fond_ecran_" data-name="fond ecran ***" class="DARK-GREY-Fill" points="38.62 37.83 11.54 41.64 11.54 16.13 38.62 17.55 38.62 37.83"/></g><g id="_00111011101_" data-name="00111011101  ****"><g class="cls-13"><path id="_0_l4_" data-name="0 l4  ***" class="cls-14" d="M27.08,38.25A5.27,5.27,0,0,1,27.19,37a1.88,1.88,0,0,1,.32-.74.76.76,0,0,1,.54-.31.58.58,0,0,1,.41.09.81.81,0,0,1,.29.36,2.13,2.13,0,0,1,.18.6A5.05,5.05,0,0,1,29,38a5.66,5.66,0,0,1-.1,1.2,2,2,0,0,1-.32.75.86.86,0,0,1-.53.33.64.64,0,0,1-.68-.34A3.6,3.6,0,0,1,27.08,38.25Zm.49-.06a2.77,2.77,0,0,0,.14,1.09.35.35,0,0,0,.34.23q.19,0,.33-.33a3,3,0,0,0,.14-1.12A2.71,2.71,0,0,0,28.38,37c-.09-.17-.2-.25-.34-.24a.44.44,0,0,0-.32.28A3.15,3.15,0,0,0,27.57,38.19Z"/><path id="_1_l4_" data-name="1  l4 ***" class="cls-14" d="M25.74,40.62l-.67.1V37.56l-.67.58v-.89l.92-1,.42-.05Z"/><path id="_1_l4_2" data-name="1  l4 ***" class="cls-14" d="M22.29,41.13l-.7.1V38l-.72.6v-.92l1-1,.44,0Z"/><path id="_1_l4_3" data-name="1  l4 ***" class="cls-14" d="M19.38,41.56l-.74.11V38.34l-.75.62V38l1-1,.46,0Z"/><path id="_0_l4_2" data-name="0 l4  ***" class="cls-14" d="M14,40a5.57,5.57,0,0,1,.14-1.36,2,2,0,0,1,.4-.84,1,1,0,0,1,.66-.35.87.87,0,0,1,.51.09.94.94,0,0,1,.36.4,2.22,2.22,0,0,1,.22.66,5.22,5.22,0,0,1,.09,1.09A6.06,6.06,0,0,1,16.21,41a2.14,2.14,0,0,1-.39.83,1,1,0,0,1-.66.38.79.79,0,0,1-.83-.37A3.43,3.43,0,0,1,14,40Zm.62-.08a2.84,2.84,0,0,0,.16,1.21.43.43,0,0,0,.42.25.58.58,0,0,0,.41-.37,3.06,3.06,0,0,0,.17-1.24,2.74,2.74,0,0,0-.17-1.2.42.42,0,0,0-.42-.26.53.53,0,0,0-.39.32A3,3,0,0,0,14.58,39.87Z"/><path id="_1_l3_" data-name="1  l3 ***" class="cls-14" d="M29,34.14l-.63.06V31.13l-.64.53v-.87l.87-.91.4,0Z"/><path id="_0_l23_" data-name="0 l23  ***" class="cls-14" d="M20.86,32.62A5.13,5.13,0,0,1,21,31.33a2,2,0,0,1,.35-.77.82.82,0,0,1,.6-.29.79.79,0,0,1,.46.11.93.93,0,0,1,.32.4,2,2,0,0,1,.2.64,5.5,5.5,0,0,1,.08,1,5.36,5.36,0,0,1-.12,1.26,1.84,1.84,0,0,1-.35.77.82.82,0,0,1-.59.32.76.76,0,0,1-.75-.39A3.69,3.69,0,0,1,20.86,32.62Zm.55,0a2.82,2.82,0,0,0,.15,1.15c.1.19.22.27.37.26s.27-.12.37-.32a3.1,3.1,0,0,0,.15-1.18,2.85,2.85,0,0,0-.15-1.15c-.1-.18-.22-.27-.37-.26a.43.43,0,0,0-.36.28A3.13,3.13,0,0,0,21.41,32.58Z"/><path id="_0_l23_2" data-name="0 l23  ***" class="cls-14" d="M24.38,32.36a5.33,5.33,0,0,1,.12-1.25,1.74,1.74,0,0,1,.34-.75.76.76,0,0,1,.56-.28.63.63,0,0,1,.43.11.91.91,0,0,1,.31.38,2.78,2.78,0,0,1,.19.63,6.28,6.28,0,0,1,.07,1,5.88,5.88,0,0,1-.11,1.23,1.75,1.75,0,0,1-.33.74.76.76,0,0,1-.56.31.69.69,0,0,1-.7-.38A3.61,3.61,0,0,1,24.38,32.36Zm.52,0a2.68,2.68,0,0,0,.15,1.12c.09.18.21.27.35.25s.26-.11.35-.31a3.12,3.12,0,0,0,.14-1.14,3,3,0,0,0-.14-1.12c-.1-.18-.21-.26-.35-.25a.41.41,0,0,0-.34.27A3.12,3.12,0,0,0,24.9,32.32Z"/><path id="_1_l3_2" data-name="1  l3 ***" class="cls-14" d="M19.38,35.06l-.74.07V31.81l-.75.57v-.93l1-1,.46,0Z"/><path id="_1_l3_3" data-name="1  l3 ***" class="cls-14" d="M16.34,35.35l-.78.08V32l-.79.6v-1l1.08-1,.49,0Z"/><path id="_0_l2_" data-name="0 l2   ***" class="cls-14" d="M27.08,26a5.12,5.12,0,0,1,.11-1.22,1.73,1.73,0,0,1,.32-.71.71.71,0,0,1,.95-.12.91.91,0,0,1,.29.39,2.4,2.4,0,0,1,.18.62A5.17,5.17,0,0,1,29,26a5.49,5.49,0,0,1-.1,1.19,1.73,1.73,0,0,1-.32.71.68.68,0,0,1-.53.27.71.71,0,0,1-.68-.4A3.8,3.8,0,0,1,27.08,26Zm.49,0a2.87,2.87,0,0,0,.14,1.1c.09.18.2.27.34.26s.24-.1.33-.28A3,3,0,0,0,28.52,26a2.87,2.87,0,0,0-.14-1.1c-.09-.18-.2-.27-.34-.27a.38.38,0,0,0-.32.25A3,3,0,0,0,27.57,26Z"/><path id="_1_l2_" data-name="1  l2 ***" class="cls-14" d="M25.74,28.28l-.67,0v-3l-.67.51V25l.92-.89h.42Z"/><path id="_1_l2_2" data-name="1  l2 ***" class="cls-14" d="M23,28.4l-.7,0V25.38l-.7.53V25l1-.91H23Z"/><path id="_0_l2_2" data-name="0 l2   ***" class="cls-14" d="M17.88,26.27A5.78,5.78,0,0,1,18,25a1.79,1.79,0,0,1,.38-.77.81.81,0,0,1,.62-.27.88.88,0,0,1,.49.14,1.21,1.21,0,0,1,.34.42,2.78,2.78,0,0,1,.21.67,6,6,0,0,1,.07,1.06A5.65,5.65,0,0,1,20,27.5a1.84,1.84,0,0,1-.36.77.87.87,0,0,1-.62.29.83.83,0,0,1-.79-.44A3.69,3.69,0,0,1,17.88,26.27Zm.58,0a2.83,2.83,0,0,0,.16,1.19c.1.19.23.29.39.28s.28-.11.38-.31a2.86,2.86,0,0,0,.16-1.19A2.83,2.83,0,0,0,19.39,25a.4.4,0,0,0-.76,0A3,3,0,0,0,18.46,26.26Z"/><path id="_0_l2_3" data-name="0 l2 ***" class="cls-14" d="M14,26.39A5.49,5.49,0,0,1,14.08,25a1.88,1.88,0,0,1,.4-.8.91.91,0,0,1,.67-.28.9.9,0,0,1,.51.15,1.2,1.2,0,0,1,.36.43,2.8,2.8,0,0,1,.22.69,5.43,5.43,0,0,1,.08,1.1,5.33,5.33,0,0,1-.13,1.32,1.77,1.77,0,0,1-.38.79.94.94,0,0,1-.66.31.91.91,0,0,1-.83-.45A3.66,3.66,0,0,1,14,26.39Zm.61,0a2.94,2.94,0,0,0,.17,1.23c.12.2.25.3.42.29a.51.51,0,0,0,.41-.32,3,3,0,0,0,.17-1.23,2.92,2.92,0,0,0-.17-1.22.48.48,0,0,0-.42-.3.46.46,0,0,0-.39.28A2.85,2.85,0,0,0,14.56,26.37Z"/><path id="_1_l1_" data-name="1  l1 ***" class="cls-14" d="M29,22.14h-.63V19.56l-.65.42v-.87l.88-.82.39,0Z"/><path id="_0_l1_" data-name="0   l1 ***" class="cls-14" d="M24.38,19.87a5.74,5.74,0,0,1,.11-1.23,1.67,1.67,0,0,1,.34-.72.69.69,0,0,1,.56-.22.75.75,0,0,1,.44.15,1.13,1.13,0,0,1,.3.42,2.1,2.1,0,0,1,.19.64,5.47,5.47,0,0,1,.07,1,5.07,5.07,0,0,1-.11,1.22,1.57,1.57,0,0,1-.33.71.69.69,0,0,1-.55.26.8.8,0,0,1-.71-.46A3.91,3.91,0,0,1,24.38,19.87Zm.52,0A3,3,0,0,0,25,21c.1.19.22.29.36.29s.25-.09.35-.28a3,3,0,0,0,.14-1.12,2.8,2.8,0,0,0-.15-1.13c-.09-.19-.21-.29-.35-.29a.34.34,0,0,0-.33.23A2.84,2.84,0,0,0,24.9,19.89Z"/><path id="_0_l1_2" data-name="0   l1 ***" class="cls-14" d="M20.86,19.78A5.06,5.06,0,0,1,21,18.5a1.67,1.67,0,0,1,.36-.73.75.75,0,0,1,.59-.22.79.79,0,0,1,.46.15,1.12,1.12,0,0,1,.33.43,3,3,0,0,1,.2.66,5.84,5.84,0,0,1,.07,1,5.88,5.88,0,0,1-.11,1.25,1.82,1.82,0,0,1-.35.74.77.77,0,0,1-.59.26.85.85,0,0,1-.75-.48A3.76,3.76,0,0,1,20.86,19.78Zm.54,0A2.94,2.94,0,0,0,21.55,21c.1.2.23.3.38.3A.44.44,0,0,0,22.3,21a3,3,0,0,0,.15-1.16,3,3,0,0,0-.15-1.17.48.48,0,0,0-.38-.3.39.39,0,0,0-.35.24A3,3,0,0,0,21.4,19.79Z"/><path id="_1_l1_2" data-name="1  l1 ***" class="cls-14" d="M19.38,22.06h-.74V18.92l-.75.5v-.94l1-.89.47,0Z"/><path id="_1_l1_3" data-name="1  l1 ***" class="cls-14" d="M16.33,22h-.78V19.17l-.8.47v-1l1.09-.91.48,0Z"/></g></g><g id="cadre_in_ecran_copy" data-name="cadre in ecran*** copy"><polygon id="D_" data-name="D ***" class="cls-15" points="38.62 17.56 38.62 37.87 38.84 38.19 38.84 17.25 38.62 17.56"/><polygon id="bottom" class="cls-16" points="38.62 37.87 11.54 41.68 11.2 42.18 38.84 38.19 38.62 37.87"/><polygon id="G" class="cls-17" points="11.54 16.13 11.2 15.71 11.2 42.18 11.54 41.68 11.54 16.13"/><g id="top"><polygon class="cls-18" points="38.84 17.25 11.2 15.71 11.54 16.13 38.62 17.56 38.84 17.25"/><polygon class="cls-19" points="11.2 15.71 11.54 16.13 38.62 17.56 38.84 17.25 11.2 15.71 11.2 15.71"/></g></g></g><g id="petit_ok_copy" data-name="petit    ****ok copy"><g class="cls-20"><polygon class="cls-21" points="38.89 35.49 38.89 27.33 40.67 27.33 40.67 35.64 38.89 35.49"/><path class="cls-21" d="M40.33,27.67v7.61l-1.1-.09V27.67h1.1M41,27H38.56v8.8L41,36V27Z"/></g><rect class="cls-22" x="32.5" y="23.5" width="25" height="11"/><path class="cls-23" d="M57,24V34H33V24H57m1-1H32V35H58V23Z"/><path class="cls-23" d="M57,24V34H33V24H57m1-1H32V35H58V23Z"/><g id="a2"><path class="cls-14" d="M40,32l-6-2.32V28.36L40,26v1.5L35.34,29,40,30.47Z"/><path class="cls-14" d="M43,33l3-8h1.33l-3.12,8Z"/><path class="cls-14" d="M49,32V30.47L53.46,29,49,27.44V26l6,2.41v1.27Z"/></g></g></svg>