<?xml version="1.0" encoding="utf-8"?>
<!-- Generator: Adobe Illustrator 24.0.0, SVG Export Plug-In . SVG Version: 6.00 Build 0)  -->
<svg version="1.1" id="Layer_1" xmlns="http://www.w3.org/2000/svg" xmlns:xlink="http://www.w3.org/1999/xlink" x="0px" y="0px"
	 viewBox="0 0 64 64" style="enable-background:new 0 0 64 64;" xml:space="preserve">
<style type="text/css">
	.st0{fill:url(#SVGID_1_);}
	.st1{fill:url(#SVGID_2_);stroke:#797979;stroke-linecap:round;stroke-linejoin:round;stroke-miterlimit:1;}
	.st2{fill:none;stroke:#323232;stroke-miterlimit:10;}
	.st3{fill:url(#SVGID_3_);stroke:#053755;stroke-linejoin:round;stroke-miterlimit:10;}
	.st4{fill:url(#SVGID_4_);stroke:#323232;stroke-miterlimit:10;}
	.st5{fill:url(#SVGID_5_);stroke:#323232;stroke-miterlimit:10;}
	.st6{fill:url(#SVGID_6_);stroke:#053755;stroke-width:0.5;stroke-linejoin:round;stroke-miterlimit:10;}
	.st7{fill:url(#SVGID_7_);stroke:#053755;stroke-linejoin:round;stroke-miterlimit:10;}
	.st8{fill:url(#SVGID_8_);stroke:#053755;stroke-linejoin:round;stroke-miterlimit:10;}
	.st9{fill:url(#SVGID_9_);stroke:#053755;stroke-linecap:round;stroke-linejoin:round;stroke-miterlimit:10;}
	.st10{fill:url(#SVGID_10_);stroke:#053755;stroke-linejoin:round;stroke-miterlimit:10;}
	.st11{fill:none;stroke:#053755;stroke-miterlimit:10;}
	.st12{fill:url(#SVGID_11_);stroke:#323232;stroke-linejoin:round;stroke-miterlimit:10;}
	.st13{fill:none;stroke:#787979;stroke-miterlimit:10;}
	.st14{fill:url(#SVGID_12_);stroke:#053755;stroke-linejoin:round;stroke-miterlimit:10;}
</style>
<g>
	<g>
		<g>
			<linearGradient id="SVGID_1_" gradientUnits="userSpaceOnUse" x1="30.71" y1="13.3695" x2="52.808" y2="51.6443">
				<stop  offset="0" style="stop-color:#FFFFFF"/>
				<stop  offset="1" style="stop-color:#D4D5D3"/>
			</linearGradient>
			<path class="st0" d="M56.17,49.5H30.83c-0.74,0-1.33-0.6-1.33-1.33V14.84c0-0.74,0.6-1.34,1.34-1.34H48.5l9,9.02v25.65
				C57.5,48.9,56.9,49.5,56.17,49.5z"/>
		</g>
		<linearGradient id="SVGID_2_" gradientUnits="userSpaceOnUse" x1="48.8108" y1="15.214" x2="53.5948" y2="23.5002">
			<stop  offset="0" style="stop-color:#F5F6F6"/>
			<stop  offset="0.9921" style="stop-color:#BFBEBE"/>
		</linearGradient>
		<path class="st1" d="M48.5,13.86l0.02,7.83c0,0.45,0.37,0.82,0.82,0.82h7.84L48.5,13.86z"/>
		<path class="st2" d="M56.16,49.5H30.83c-0.74,0-1.33-0.6-1.33-1.33V14.84c0-0.74,0.6-1.34,1.34-1.34h17.33l9.33,9.33v25.33
			C57.5,48.9,56.9,49.5,56.16,49.5z"/>
	</g>
</g>
<g>
	<linearGradient id="SVGID_3_" gradientUnits="userSpaceOnUse" x1="27.6813" y1="26.0859" x2="34.6115" y2="38.0892">
		<stop  offset="0" style="stop-color:#8DD7F4"/>
		<stop  offset="1" style="stop-color:#386E8C"/>
	</linearGradient>
	<polygon class="st3" points="23.5,28.5 32.5,28.5 32.5,24.5 33.9,24.5 39.5,30.9 39.5,32.1 33.9,38.5 32.5,38.5 32.5,34.5 
		23.5,34.5 	"/>
</g>
<g>
	<linearGradient id="SVGID_4_" gradientUnits="userSpaceOnUse" x1="12.6274" y1="35.6944" x2="23.3726" y2="54.3056">
		<stop  offset="0" style="stop-color:#FFFFFF"/>
		<stop  offset="1" style="stop-color:#F1F0F0"/>
	</linearGradient>
	<rect x="9.5" y="37.5" class="st4" width="17" height="15"/>
	<linearGradient id="SVGID_5_" gradientUnits="userSpaceOnUse" x1="18" y1="39.5" x2="18" y2="50.5">
		<stop  offset="0" style="stop-color:#BEBEBE"/>
		<stop  offset="0.5196" style="stop-color:#F5F5F5"/>
	</linearGradient>
	<rect x="11.5" y="39.5" class="st5" width="13" height="11"/>
	<linearGradient id="SVGID_6_" gradientUnits="userSpaceOnUse" x1="21.4999" y1="41.1338" x2="22.5001" y2="42.8662">
		<stop  offset="0" style="stop-color:#8DD7F4"/>
		<stop  offset="1" style="stop-color:#386E8C"/>
	</linearGradient>
	<circle class="st6" cx="22" cy="42" r="1"/>
	<linearGradient id="SVGID_7_" gradientUnits="userSpaceOnUse" x1="19.9483" y1="46.7478" x2="22.7109" y2="51.5329">
		<stop  offset="0" style="stop-color:#8DD7F4"/>
		<stop  offset="1" style="stop-color:#386E8C"/>
	</linearGradient>
	<polygon class="st7" points="24.5,50.5 24.5,46.63 23.43,45.5 22.11,45.5 17.5,50.5 	"/>
	<linearGradient id="SVGID_8_" gradientUnits="userSpaceOnUse" x1="12.7535" y1="43.1448" x2="18.375" y2="52.8816">
		<stop  offset="0" style="stop-color:#8DD7F4"/>
		<stop  offset="1" style="stop-color:#386E8C"/>
	</linearGradient>
	<polygon class="st8" points="11.5,45.5 13.82,42.53 15.24,42.53 22.5,50.5 11.5,50.5 	"/>
	<linearGradient id="SVGID_9_" gradientUnits="userSpaceOnUse" x1="13.0718" y1="42.9515" x2="15.9735" y2="47.9774">
		<stop  offset="0" style="stop-color:#FFFFFF"/>
		<stop  offset="1" style="stop-color:#D4D5D3"/>
	</linearGradient>
	<path class="st9" d="M11.5,46.5v-1l2.31-2.98h1.42l3.3,3.62c0,0-0.22,0.67-0.68,0.68c-0.35,0.01-0.83-0.97-1.2-0.97
		c-0.38,0-0.57,1.03-1.04,1.03c-0.44,0-0.7-1.02-1.1-1.02c-0.4,0-0.63,0.97-1.04,0.97c-0.4,0-0.63-0.99-1.03-0.99
		C12.07,45.83,11.5,46.5,11.5,46.5z"/>
	<linearGradient id="SVGID_10_" gradientUnits="userSpaceOnUse" x1="21.4437" y1="45.8606" x2="23.304" y2="49.0828">
		<stop  offset="0" style="stop-color:#FFFFFF"/>
		<stop  offset="1" style="stop-color:#D4D5D3"/>
	</linearGradient>
	<path class="st10" d="M24.5,48.39v-1.7l-1.27-1.19h-1.16l-2.26,2l0.57-0.18c0,0,0.55,0.97,0.85,0.97c0.24,0,0.51-0.67,0.78-0.67
		c0.34,0,0.45,0.64,0.77,0.64c0.3,0,0.55-0.65,0.83-0.65C23.97,47.61,24.5,48.39,24.5,48.39z"/>
</g>
<g>
	<line class="st11" x1="12" y1="10.5" x2="22" y2="10.5"/>
	<line class="st11" x1="12" y1="12.5" x2="27" y2="12.5"/>
	<line class="st11" x1="12" y1="14.5" x2="27" y2="14.5"/>
	<line class="st11" x1="12" y1="16.5" x2="27" y2="16.5"/>
	<line class="st11" x1="12" y1="18.5" x2="27" y2="18.5"/>
</g>
<g>
	<linearGradient id="SVGID_11_" gradientUnits="userSpaceOnUse" x1="9.3104" y1="19.8774" x2="18.6896" y2="36.1226">
		<stop  offset="0" style="stop-color:#FFFFFF"/>
		<stop  offset="1" style="stop-color:#D4D5D3"/>
	</linearGradient>
	<rect x="6.5" y="21.5" class="st12" width="15" height="13"/>
	<line class="st13" x1="16.5" y1="24" x2="16.5" y2="34"/>
	<line class="st13" x1="11.5" y1="24" x2="11.5" y2="34"/>
	<linearGradient id="SVGID_12_" gradientUnits="userSpaceOnUse" x1="11.4755" y1="18.6274" x2="16.5245" y2="27.3726">
		<stop  offset="0" style="stop-color:#8DD7F4"/>
		<stop  offset="1" style="stop-color:#386E8C"/>
	</linearGradient>
	<rect x="6.5" y="21.5" class="st14" width="15" height="3"/>
</g>
<line class="st13" x1="7" y1="27.5" x2="21" y2="27.5"/>
<line class="st13" x1="7" y1="31.5" x2="21" y2="31.5"/>
</svg>
