<?xml version="1.0" encoding="utf-8"?>
<!-- Generator: Adobe Illustrator 27.0.1, SVG Export Plug-In . SVG Version: 6.00 Build 0)  -->
<svg version="1.1" id="Layer_1" xmlns="http://www.w3.org/2000/svg" xmlns:xlink="http://www.w3.org/1999/xlink" x="0px" y="0px"
	 viewBox="0 0 64 64" style="enable-background:new 0 0 64 64;" xml:space="preserve">
<style type="text/css">
	.st0{fill:#333232;}
	.st1{fill:url(#SVGID_1_);stroke:#323232;stroke-linejoin:round;stroke-miterlimit:10;}
	
		.st2{fill:url(#SVGID_00000015333116584729993670000011066899723176485522_);stroke:#323232;stroke-linejoin:round;stroke-miterlimit:10;}
	
		.st3{fill:url(#SVGID_00000118395105604860529520000015937701650200136843_);stroke:#333332;stroke-linecap:round;stroke-linejoin:round;stroke-miterlimit:1;}
	
		.st4{fill:url(#SVGID_00000008141923266262127720000015031534091325079186_);stroke:#053755;stroke-linecap:round;stroke-linejoin:round;stroke-miterlimit:1;}
	.st5{fill-rule:evenodd;clip-rule:evenodd;fill:url(#SVGID_00000147905688332086597750000006376531798114047619_);}
	.st6{fill-rule:evenodd;clip-rule:evenodd;fill:url(#SVGID_00000111185098470894181370000011382344221313709735_);}
	
		.st7{opacity:0.2;fill:none;stroke:#053755;stroke-linecap:round;stroke-linejoin:round;stroke-miterlimit:1;enable-background:new    ;}
	
		.st8{opacity:0.5;fill:none;stroke:#053755;stroke-linecap:round;stroke-linejoin:round;stroke-miterlimit:1;enable-background:new    ;}
	.st9{fill:url(#SVGID_00000096038174034131098180000001802003138657336452_);}
	.st10{fill:#053755;}
	
		.st11{fill:url(#SVGID_00000167383252973361076660000012399787993511610772_);stroke:#323232;stroke-linejoin:round;stroke-miterlimit:10;}
	.st12{fill:url(#SVGID_00000179632623224478084390000005244767395773946545_);}
	
		.st13{fill:url(#SVGID_00000149357710573575703340000009757543502646984110_);stroke:#323232;stroke-linejoin:round;stroke-miterlimit:10;}
	
		.st14{fill:url(#SVGID_00000039101840338781690280000006745081868824070035_);stroke:#333332;stroke-linecap:round;stroke-linejoin:round;stroke-miterlimit:1;}
	
		.st15{fill:url(#SVGID_00000173158046076098320160000013157661772373448637_);stroke:#053755;stroke-linecap:round;stroke-linejoin:round;stroke-miterlimit:1;}
	.st16{fill-rule:evenodd;clip-rule:evenodd;fill:url(#SVGID_00000004544825161154848550000010986833932625143481_);}
	.st17{fill-rule:evenodd;clip-rule:evenodd;fill:url(#SVGID_00000125595291655184054160000004460608453568544640_);}
</style>
<g>
	<g>
		<rect x="23" y="17" class="st0" width="16" height="3"/>
		<path class="st0" d="M29,19v24.9c0,2.3,1.8,4.1,4.1,4.1H46v-3H34c-1.3,0-2-1.1-2-2.4V19H29z"/>
	</g>
	
		<linearGradient id="SVGID_1_" gradientUnits="userSpaceOnUse" x1="37.5" y1="-30" x2="50.6008" y2="-30" gradientTransform="matrix(1 0 0 1 0 48)">
		<stop  offset="0" style="stop-color:#FFFFFF"/>
		<stop  offset="1" style="stop-color:#D4D5D3"/>
	</linearGradient>
	<path class="st1" d="M49.9,24.5H38.2c-0.4,0-0.7-0.3-0.7-0.7V12.2c0-0.4,0.3-0.7,0.7-0.7h11.6c0.4,0,0.7,0.3,0.7,0.7v11.5
		C50.6,24.2,50.3,24.5,49.9,24.5z"/>
	
		<linearGradient id="SVGID_00000052085693743792321860000005143127787577559719_" gradientUnits="userSpaceOnUse" x1="37.5" y1="-2" x2="50.6008" y2="-2" gradientTransform="matrix(1 0 0 1 0 48)">
		<stop  offset="0" style="stop-color:#FFFFFF"/>
		<stop  offset="1" style="stop-color:#D4D5D3"/>
	</linearGradient>
	
		<path style="fill:url(#SVGID_00000052085693743792321860000005143127787577559719_);stroke:#323232;stroke-linejoin:round;stroke-miterlimit:10;" d="
		M49.9,52.5H38.2c-0.4,0-0.7-0.3-0.7-0.7V40.2c0-0.4,0.3-0.7,0.7-0.7h11.6c0.4,0,0.7,0.3,0.7,0.7v11.5
		C50.6,52.2,50.3,52.5,49.9,52.5z"/>
	<g>
		<polygon points="40.4,49.6 41.3,45.2 51.9,34.5 53.7,34.5 55.5,36.3 55.5,38.1 44.8,48.7 		"/>
		
			<linearGradient id="SVGID_00000090277522419441374270000014265732094612887715_" gradientUnits="userSpaceOnUse" x1="45.9389" y1="-7.2836" x2="49.1732" y2="-3.6915" gradientTransform="matrix(1 0 0 1 0 48)">
			<stop  offset="0.2381" style="stop-color:#F5F6F6"/>
			<stop  offset="0.412" style="stop-color:#E5E6E6"/>
			<stop  offset="0.6587" style="stop-color:#D2D3D3"/>
		</linearGradient>
		
			<polygon style="fill:url(#SVGID_00000090277522419441374270000014265732094612887715_);stroke:#333332;stroke-linecap:round;stroke-linejoin:round;stroke-miterlimit:1;" points="
			40.4,49.6 41.3,45.2 51.9,34.5 53.7,34.5 55.5,36.3 55.5,38.1 44.8,48.7 		"/>
		
			<linearGradient id="SVGID_00000044898191403165611870000003213216253131070881_" gradientUnits="userSpaceOnUse" x1="45.6973" y1="-7.1356" x2="48.8683" y2="-3.6137" gradientTransform="matrix(1 0 0 1 0 48)">
			<stop  offset="0" style="stop-color:#8DD7F4"/>
			<stop  offset="0.1815" style="stop-color:#89D2EF"/>
			<stop  offset="0.3836" style="stop-color:#7EC5E2"/>
			<stop  offset="0.5956" style="stop-color:#6CAFCC"/>
			<stop  offset="0.8129" style="stop-color:#5390AE"/>
			<stop  offset="1" style="stop-color:#386F8D"/>
		</linearGradient>
		
			<polygon style="fill:url(#SVGID_00000044898191403165611870000003213216253131070881_);stroke:#053755;stroke-linecap:round;stroke-linejoin:round;stroke-miterlimit:1;" points="
			42.7,43.8 46.2,47.3 52,41.6 48.4,38 		"/>
		
			<linearGradient id="SVGID_00000094601514600108238680000009741123127156573878_" gradientUnits="userSpaceOnUse" x1="55.0919" y1="-8.6555" x2="51.9728" y2="-14.0581" gradientTransform="matrix(1 0 0 1 0 48)">
			<stop  offset="0" style="stop-color:#161616"/>
			<stop  offset="1" style="stop-color:#515151"/>
		</linearGradient>
		<path style="fill-rule:evenodd;clip-rule:evenodd;fill:url(#SVGID_00000094601514600108238680000009741123127156573878_);" d="
			M55.9,35.9l-1.8-1.8C54,34,53.9,34,53.8,34H52c-0.1,0-0.2,0-0.3,0.1l-1.3,1.3c-0.2,0.2-0.2,0.5,0,0.6l3.6,3.6
			c0.1,0.1,0.2,0.1,0.3,0.1s0.2,0,0.3-0.1l1.3-1.3C56,38.2,56,38.1,56,38v-1.8C56,36.1,56,36,55.9,35.9z"/>
		
			<linearGradient id="SVGID_00000068668434445771831560000000124095700294651036_" gradientUnits="userSpaceOnUse" x1="41.9478" y1="2.0394" x2="40.2891" y2="-0.8336" gradientTransform="matrix(1 0 0 1 0 48)">
			<stop  offset="0" style="stop-color:#161616"/>
			<stop  offset="1" style="stop-color:#515151"/>
		</linearGradient>
		<path style="fill-rule:evenodd;clip-rule:evenodd;fill:url(#SVGID_00000068668434445771831560000000124095700294651036_);" d="
			M43,48.8L41.2,47c-0.1-0.1-0.3-0.2-0.4-0.1c-0.2,0-0.3,0.2-0.3,0.3L40,49.5c0,0.1,0,0.3,0.1,0.4c0.1,0.1,0.2,0.1,0.3,0.1h0.1
			l2.2-0.4c0.2,0,0.3-0.2,0.3-0.3C43.1,49.1,43.1,48.9,43,48.8z"/>
		<line class="st7" x1="44" y1="44.7" x2="49.3" y2="39.3"/>
		<line class="st8" x1="45.3" y1="46" x2="50.7" y2="40.7"/>
	</g>
	<g>
		
			<linearGradient id="SVGID_00000031204548826801769540000003832829596203217800_" gradientUnits="userSpaceOnUse" x1="8.5" y1="-28.5" x2="24.5974" y2="-28.5" gradientTransform="matrix(1 0 0 1 0 48)">
			<stop  offset="0" style="stop-color:#8DD7F4"/>
			<stop  offset="0.1815" style="stop-color:#89D2EF"/>
			<stop  offset="0.3836" style="stop-color:#7EC5E2"/>
			<stop  offset="0.5956" style="stop-color:#6CAFCC"/>
			<stop  offset="0.8129" style="stop-color:#5390AE"/>
			<stop  offset="1" style="stop-color:#386F8D"/>
		</linearGradient>
		<path style="fill:url(#SVGID_00000031204548826801769540000003832829596203217800_);" d="M8.9,27.5c-0.2,0-0.4-0.2-0.4-0.4V11.9
			c0-0.2,0.2-0.4,0.4-0.4H24c0.2,0,0.4,0.2,0.4,0.4v15c0,0.3,0,0.4,0,0.4c-0.1,0.1-0.2,0.1-0.3,0.1H8.9V27.5z"/>
		<path class="st10" d="M24,12v14.9l0,0H9V12H24 M24.1,11H8.9C8.4,11,8,11.4,8,11.9V27c0,0.6,0.4,1,0.9,1h15.3c0.5,0,0.9-0.4,0.8-1
			V12C25,11.4,24.6,11,24.1,11L24.1,11z"/>
	</g>
</g>
</svg>
