<?xml version="1.0" encoding="utf-8"?>
<!-- Generator: Adobe Illustrator 27.0.1, SVG Export Plug-In . SVG Version: 6.00 Build 0)  -->
<svg version="1.1" id="Layer_1" xmlns="http://www.w3.org/2000/svg" xmlns:xlink="http://www.w3.org/1999/xlink" x="0px" y="0px"
	 viewBox="0 0 64 64" style="enable-background:new 0 0 64 64;" xml:space="preserve">
<style type="text/css">
	.White_x0020_SINGLE{fill:url(#SVGID_1_);stroke:#323232;stroke-miterlimit:10;}
	
		.st0{fill:url(#SVGID_00000119837992601825440010000015742332332045655949_);stroke:#787878;stroke-linecap:round;stroke-linejoin:round;stroke-miterlimit:10;}
	
		.st1{fill:url(#SVGID_00000009566473651573684970000013550801540947080580_);stroke:#787878;stroke-linecap:round;stroke-linejoin:round;stroke-miterlimit:10;}
	.st2{fill:none;stroke:#323232;stroke-linecap:round;stroke-linejoin:round;stroke-miterlimit:10;}
	.st3{fill:url(#SVGID_00000130607711310343704060000010187561850962315943_);}
	.st4{fill:#323232;}
	.st5{fill:url(#SVGID_00000039823597791627590070000008930661991752405652_);}
	.st6{fill:url(#SVGID_00000070811703994279678230000006187295431325914267_);}
	.st7{fill:url(#SVGID_00000164479365744643225710000003171520256193357500_);}
	.st8{fill:#003755;}
</style>
<linearGradient id="SVGID_1_" gradientUnits="userSpaceOnUse" x1="0" y1="0" x2="0.5" y2="0.866">
	<stop  offset="0" style="stop-color:#FFFFFF"/>
	<stop  offset="1" style="stop-color:#D4D5D3"/>
</linearGradient>
<g>
	
		<linearGradient id="SVGID_00000039847940713903500120000012252094651166814623_" gradientUnits="userSpaceOnUse" x1="15.4991" y1="6.0024" x2="44.4177" y2="56.0908">
		<stop  offset="0" style="stop-color:#FFFFFF"/>
		<stop  offset="1" style="stop-color:#D2D2D2"/>
	</linearGradient>
	
		<polygon style="fill:url(#SVGID_00000039847940713903500120000012252094651166814623_);stroke:#787878;stroke-linecap:round;stroke-linejoin:round;stroke-miterlimit:10;" points="
		50.6,52.5 14.6,52.5 14.6,6.5 38.3,6.5 50.6,18.8 	"/>
	
		<linearGradient id="SVGID_00000115488769377046202620000014025425593333639582_" gradientUnits="userSpaceOnUse" x1="36.0707" y1="6.8271" x2="45.633" y2="23.3894">
		<stop  offset="0" style="stop-color:#F5F5F5"/>
		<stop  offset="1" style="stop-color:#BEBEBE"/>
	</linearGradient>
	
		<polygon style="fill:url(#SVGID_00000115488769377046202620000014025425593333639582_);stroke:#787878;stroke-linecap:round;stroke-linejoin:round;stroke-miterlimit:10;" points="
		36.6,20.5 36.6,6.5 37.8,6.5 50.6,19.3 50.6,20.5 	"/>
	<polygon class="st2" points="50.6,52.5 14.6,52.5 14.6,6.5 38.3,6.5 50.6,18.8 	"/>
</g>
<g>
	<g>
		<g>
			
				<linearGradient id="SVGID_00000037693160868203223630000003213481682429119897_" gradientUnits="userSpaceOnUse" x1="37.8434" y1="33.6078" x2="50.7898" y2="56.0317">
				<stop  offset="0" style="stop-color:#FFFFFF"/>
				<stop  offset="1" style="stop-color:#D4D5D3"/>
			</linearGradient>
			<path style="fill:url(#SVGID_00000037693160868203223630000003213481682429119897_);" d="M44.3,57.8c-7.1,0-12.9-5.8-12.9-12.9
				c0-7.1,5.8-12.9,12.9-12.9c7.1,0,12.9,5.8,12.9,12.9C57.3,52,51.5,57.8,44.3,57.8z"/>
			<path class="st4" d="M44.3,32.4c6.9,0,12.4,5.6,12.4,12.4c0,6.9-5.6,12.4-12.4,12.4c-6.9,0-12.4-5.6-12.4-12.4
				C31.9,38,37.5,32.4,44.3,32.4 M44.3,31.4c-7.4,0-13.4,6-13.4,13.4c0,7.4,6,13.4,13.4,13.4c7.4,0,13.4-6,13.4-13.4
				C57.8,37.4,51.7,31.4,44.3,31.4L44.3,31.4z"/>
		</g>
		<g>
			
				<linearGradient id="SVGID_00000150796315116137917340000008718884425290464693_" gradientUnits="userSpaceOnUse" x1="38.3386" y1="34.465" x2="50.2953" y2="55.1747">
				<stop  offset="0" style="stop-color:#3287AF"/>
				<stop  offset="1" style="stop-color:#285A78"/>
			</linearGradient>
			<path style="fill:url(#SVGID_00000150796315116137917340000008718884425290464693_);" d="M44.3,33.9c6,0,11,4.9,11,11
				s-4.9,11-11,11c-6,0-11-4.9-11-11S38.3,33.9,44.3,33.9 M44.3,32.9c-6.6,0-12,5.4-12,12s5.4,12,12,12s12-5.4,12-12
				S50.9,32.9,44.3,32.9L44.3,32.9z"/>
		</g>
	</g>
	<g>
		
			<linearGradient id="SVGID_00000075128624548581869090000013460347262908803974_" gradientUnits="userSpaceOnUse" x1="48.905" y1="51.5994" x2="41.4002" y2="38.6007">
			<stop  offset="0" style="stop-color:#151515"/>
			<stop  offset="1" style="stop-color:#474647"/>
		</linearGradient>
		<polygon style="fill:url(#SVGID_00000075128624548581869090000013460347262908803974_);" points="42.8,38.8 43.6,37.3 44.3,38.8 
			44.3,44.8 51,50.1 50.3,50.8 42.8,46.3 		"/>
	</g>
</g>
<g>
	
		<linearGradient id="SVGID_00000089560425516917340810000005375817448842338232_" gradientUnits="userSpaceOnUse" x1="40.3962" y1="1.8934" x2="52.6593" y2="23.1337" gradientTransform="matrix(6.123234e-17 -1 1 6.123234e-17 5.9185 71.0045)">
		<stop  offset="0" style="stop-color:#8CD7F5"/>
		<stop  offset="1" style="stop-color:#376E8C"/>
	</linearGradient>
	<polygon style="fill:url(#SVGID_00000089560425516917340810000005375817448842338232_);" points="21.5,33.6 21.5,26.6 5.5,26.6 
		5.5,20.6 21.5,20.6 21.5,13.6 22.3,13.6 32.1,23.6 22.3,33.6 	"/>
	<path class="st8" d="M22.1,14.1l9.3,9.5l-9.3,9.5H22v-6v-1h-1H6v-5h15h1v-1L22.1,14.1L22.1,14.1 M22.5,13.1H21v7H5v7h16v7h1.5
		l10.3-10.5L22.5,13.1L22.5,13.1z"/>
</g>
</svg>
