<?xml version="1.0" encoding="utf-8"?>
<!-- Generator: Adobe Illustrator 25.2.3, SVG Export Plug-In . SVG Version: 6.00 Build 0)  -->
<svg version="1.1" id="Layer_1" xmlns="http://www.w3.org/2000/svg" xmlns:xlink="http://www.w3.org/1999/xlink" x="0px" y="0px"
	 viewBox="0 0 64 64" style="enable-background:new 0 0 64 64;" xml:space="preserve">
<style type="text/css">
	
		.Blue_x0020_RIGHT_x002C__x0020_FRONT_x0020__x0026__x0020_SINGLE_x0020_4{fill:url(#SVGID_1_);stroke:#053755;stroke-linejoin:round;stroke-miterlimit:10;}
	
		.Blue_x0020_RIGHT_x002C__x0020_FRONT_x0020__x0026__x0020_SINGLE_x0020_21{fill:url(#SVGID_2_);stroke:#053755;stroke-linejoin:round;stroke-miterlimit:10;}
	.White_x0020_SINGLE_x0020_9{fill:url(#SVGID_3_);stroke:#323232;stroke-linejoin:round;stroke-miterlimit:10;}
	.White_x0020_SINGLE_x0020_10{fill:url(#SVGID_4_);stroke:#323232;stroke-linejoin:round;stroke-miterlimit:10;}
	
		.Blue_x0020_RIGHT_x002C__x0020_FRONT_x0020__x0026__x0020_SINGLE_x0020_23{fill:url(#SVGID_5_);stroke:#053755;stroke-linejoin:round;stroke-miterlimit:10;}
	.st0{fill:url(#SVGID_6_);}
	.st1{fill:#333232;}
	.st2{fill:url(#SVGID_7_);stroke:#053755;stroke-linejoin:round;stroke-miterlimit:10;}
	.st3{fill:url(#SVGID_8_);}
	.st4{fill:url(#SVGID_9_);}
	.st5{fill:url(#SVGID_10_);stroke:#053755;stroke-linejoin:round;stroke-miterlimit:10;}
	.st6{fill:none;stroke:#053755;stroke-linejoin:round;stroke-miterlimit:10;}
	.st7{fill:url(#SVGID_11_);}
	.st8{opacity:0.5;fill:#FFFFFF;}
	.st9{fill:url(#SVGID_12_);stroke:#053755;stroke-linejoin:round;stroke-miterlimit:10;}
	.st10{fill:url(#SVGID_13_);stroke:#053755;stroke-linejoin:round;stroke-miterlimit:10;}
	.st11{fill:url(#SVGID_14_);stroke:#053755;stroke-linejoin:round;stroke-miterlimit:10;}
	.st12{fill:url(#SVGID_15_);stroke:#333232;stroke-miterlimit:10;}
	.st13{fill:url(#SVGID_16_);stroke:#323232;stroke-linejoin:round;stroke-miterlimit:10;}
	.st14{fill:url(#SVGID_17_);stroke:#323232;stroke-linejoin:round;stroke-miterlimit:10;}
</style>
<linearGradient id="SVGID_1_" gradientUnits="userSpaceOnUse" x1="-337.88" y1="-1.92" x2="-337.38" y2="-1.054">
	<stop  offset="0" style="stop-color:#8DD7F4"/>
	<stop  offset="1" style="stop-color:#386E8C"/>
</linearGradient>
<linearGradient id="SVGID_2_" gradientUnits="userSpaceOnUse" x1="-337.88" y1="-1.92" x2="-337.38" y2="-1.054">
	<stop  offset="0" style="stop-color:#8DD7F4"/>
	<stop  offset="1" style="stop-color:#386E8C"/>
</linearGradient>
<linearGradient id="SVGID_3_" gradientUnits="userSpaceOnUse" x1="-337.88" y1="-1.92" x2="-337.38" y2="-1.054">
	<stop  offset="0" style="stop-color:#FFFFFF"/>
	<stop  offset="1" style="stop-color:#D4D5D3"/>
</linearGradient>
<linearGradient id="SVGID_4_" gradientUnits="userSpaceOnUse" x1="-337.88" y1="-1.92" x2="-337.38" y2="-1.054">
	<stop  offset="0" style="stop-color:#FFFFFF"/>
	<stop  offset="1" style="stop-color:#D4D5D3"/>
</linearGradient>
<linearGradient id="SVGID_5_" gradientUnits="userSpaceOnUse" x1="-337.88" y1="-1.92" x2="-337.38" y2="-1.054">
	<stop  offset="0" style="stop-color:#8DD7F4"/>
	<stop  offset="1" style="stop-color:#386E8C"/>
</linearGradient>
<g>
	<linearGradient id="SVGID_6_" gradientUnits="userSpaceOnUse" x1="31.0251" y1="25.409" x2="43.077" y2="46.2835">
		<stop  offset="0" style="stop-color:#F5F6F6"/>
		<stop  offset="1" style="stop-color:#BFBEBE"/>
	</linearGradient>
	<path class="st0" d="M37.48,44.98c-9.75,0-9.86-1.46-9.86-1.52V32.55c0-3.3,1.83-6.34,4.79-7.93c1.35-0.73,2.89-1.12,4.45-1.12
		h1.54c1.49,0,2.97,0.36,4.28,1.03c3.06,1.57,4.95,4.64,4.95,8.02v10.91C47.62,43.99,45.5,44.98,37.48,44.98z"/>
	<path class="st1" d="M38.39,24c1.41,0,2.81,0.34,4.05,0.97c2.89,1.48,4.68,4.39,4.68,7.58v10.8c-0.26,0.21-1.81,1.13-9.64,1.13
		c-7.67,0-9.13-0.91-9.36-1.11V32.55c0-3.12,1.73-5.99,4.52-7.49c1.28-0.69,2.74-1.06,4.21-1.06H38.39 M38.39,23h-1.54
		c-1.7,0-3.29,0.43-4.68,1.18c-3.01,1.62-5.05,4.76-5.05,8.37v10.91c0,1.51,4.57,2.02,10.36,2.02s10.64-0.51,10.64-2.02V32.55
		c0-3.68-2.12-6.87-5.22-8.47C41.55,23.39,40.01,23,38.39,23L38.39,23z"/>
</g>
<linearGradient id="SVGID_7_" gradientUnits="userSpaceOnUse" x1="36.1514" y1="22.368" x2="41.1424" y2="31.0127">
	<stop  offset="0" style="stop-color:#8DD7F4"/>
	<stop  offset="1" style="stop-color:#386E8C"/>
</linearGradient>
<polyline class="st2" points="33.6,23.84 37.66,33.02 41.64,23.84 "/>
<g>
	<linearGradient id="SVGID_8_" gradientUnits="userSpaceOnUse" x1="33.6208" y1="10.1439" x2="41.6192" y2="23.9975">
		<stop  offset="0" style="stop-color:#F5F6F6"/>
		<stop  offset="1" style="stop-color:#BFBEBE"/>
	</linearGradient>
	<circle class="st3" cx="37.62" cy="17.07" r="8"/>
	<path class="st1" d="M37.62,9.57c4.14,0,7.5,3.36,7.5,7.5s-3.36,7.5-7.5,7.5s-7.5-3.36-7.5-7.5S33.48,9.57,37.62,9.57 M37.62,8.57
		c-4.69,0-8.5,3.81-8.5,8.5s3.81,8.5,8.5,8.5s8.5-3.81,8.5-8.5S42.31,8.57,37.62,8.57L37.62,8.57z"/>
</g>
<g>
	<g>
		<linearGradient id="SVGID_9_" gradientUnits="userSpaceOnUse" x1="11.529" y1="31.6093" x2="25.1795" y2="55.2526">
			<stop  offset="0" style="stop-color:#F5F6F6"/>
			<stop  offset="1" style="stop-color:#BFBEBE"/>
		</linearGradient>
		<path class="st4" d="M18.85,53.72c-11.03,0-11.35-1.58-11.35-1.76V39.71c0-5.63,4.76-10.21,10.62-10.21h1.76
			c5.86,0,10.62,4.58,10.62,10.21v12.24C30.5,52.03,30.37,53.72,18.85,53.72z"/>
		<path class="st1" d="M19.88,30C25.46,30,30,34.36,30,39.71v12.17c-0.21,0.21-1.77,1.34-11.15,1.34c-9.22,0-10.66-1.13-10.85-1.33
			V39.71C8,34.36,12.54,30,18.12,30H19.88 M19.88,29h-1.76C11.98,29,7,33.8,7,39.71v12.24c0,1.69,5.22,2.26,11.85,2.26
			S31,53.65,31,51.96V39.71C31,33.8,26.02,29,19.88,29L19.88,29z"/>
	</g>
	<g>
		<linearGradient id="SVGID_10_" gradientUnits="userSpaceOnUse" x1="14.2301" y1="30.2606" x2="24.6469" y2="48.3029">
			<stop  offset="0" style="stop-color:#8DD7F4"/>
			<stop  offset="1" style="stop-color:#386E8C"/>
		</linearGradient>
		<polygon class="st5" points="18.83,30.06 15.03,29.8 17.73,35.85 15.6,47.65 18.89,51.62 22.48,47.56 20.02,35.85 22.64,29.8 		
			"/>
		<line class="st6" x1="18" y1="35.5" x2="20" y2="35.5"/>
	</g>
	<g>
		<linearGradient id="SVGID_11_" gradientUnits="userSpaceOnUse" x1="14.1364" y1="13.9274" x2="23.5294" y2="30.1965">
			<stop  offset="0" style="stop-color:#F5F6F6"/>
			<stop  offset="1" style="stop-color:#BFBEBE"/>
		</linearGradient>
		<circle class="st7" cx="18.83" cy="22.06" r="9.39"/>
		<path class="st1" d="M18.83,13.17c4.9,0,8.89,3.99,8.89,8.89s-3.99,8.89-8.89,8.89s-8.89-3.99-8.89-8.89S13.93,13.17,18.83,13.17
			 M18.83,12.17c-5.46,0-9.89,4.43-9.89,9.89s4.43,9.89,9.89,9.89c5.46,0,9.89-4.43,9.89-9.89S24.3,12.17,18.83,12.17L18.83,12.17z"
			/>
	</g>
</g>
<g>
	<path class="st8" d="M23.35,56.08c-0.72-10,6.72-18.39,16.77-18.4c9.9,0,16.77,7.79,16.77,18.4H23.35z"/>
	<linearGradient id="SVGID_12_" gradientUnits="userSpaceOnUse" x1="25.9919" y1="45.0741" x2="31.9917" y2="55.4661">
		<stop  offset="0" style="stop-color:#8DD7F4"/>
		<stop  offset="1" style="stop-color:#386E8C"/>
	</linearGradient>
	<path class="st9" d="M24.75,54.58c0-4.61,1.94-9.12,5.96-12.23l4.7,7.37c-1.76,1.66-1.88,4.08-1.88,4.86H24.75z"/>
	<linearGradient id="SVGID_13_" gradientUnits="userSpaceOnUse" x1="39.1699" y1="37.3206" x2="46.308" y2="49.6843">
		<stop  offset="0" style="stop-color:#8DD7F4"/>
		<stop  offset="1" style="stop-color:#386E8C"/>
	</linearGradient>
	<path class="st10" d="M37.6,48.86l-4.94-7.78c2.26-1.22,5.3-1.85,7.81-1.85c4.7,0,9.27,2,12.08,6.21l-7.57,5.01
		c-1.29-1.35-3.01-1.98-4.86-1.98C39.26,48.48,38.39,48.51,37.6,48.86z"/>
	<linearGradient id="SVGID_14_" gradientUnits="userSpaceOnUse" x1="49.5147" y1="49.7629" x2="53.0901" y2="55.9556">
		<stop  offset="0" style="stop-color:#8DD7F4"/>
		<stop  offset="1" style="stop-color:#386E8C"/>
	</linearGradient>
	<path class="st11" d="M46.69,54.58c0-0.35-0.03-1.38-0.38-2.51l7.4-4.73c1.22,2.35,1.76,4.83,1.76,7.24H46.69z"/>
</g>
<linearGradient id="SVGID_15_" gradientUnits="userSpaceOnUse" x1="33.7593" y1="9.1133" x2="40.1583" y2="20.1966">
	<stop  offset="0" style="stop-color:#F5F6F6"/>
	<stop  offset="1" style="stop-color:#BFBEBE"/>
</linearGradient>
<path class="st12" d="M39.58,9.08c-0.12-1.06-0.88-1.92-1.97-1.92c-1.08,0-1.86,0.96-2,2c-3.4,0.86-6.25,4.18-6.25,7.74h16.49
	C45.87,12.92,43.16,9.89,39.58,9.08z"/>
<linearGradient id="SVGID_16_" gradientUnits="userSpaceOnUse" x1="36.0904" y1="7.7742" x2="39.1209" y2="13.0232">
	<stop  offset="0" style="stop-color:#FFFFFF"/>
	<stop  offset="1" style="stop-color:#D4D5D3"/>
</linearGradient>
<path class="st13" d="M37.62,13.58L37.62,13.58c-1.1,0-2-0.9-2-2v-2c0-1.37,0.89-2.42,2-2.42l0,0c1.1,0,2,0.88,2,2.42v2
	C39.62,12.68,38.72,13.58,37.62,13.58z"/>
<linearGradient id="SVGID_17_" gradientUnits="userSpaceOnUse" x1="35.0457" y1="12.1213" x2="40.1943" y2="21.0387">
	<stop  offset="0" style="stop-color:#FFFFFF"/>
	<stop  offset="1" style="stop-color:#D4D5D3"/>
</linearGradient>
<path class="st14" d="M46.03,17.58H29.21c-0.33,0-0.59-0.27-0.59-0.59v-0.81c0-0.33,0.27-0.59,0.59-0.59h16.81
	c0.33,0,0.59,0.27,0.59,0.59v0.81C46.62,17.31,46.35,17.58,46.03,17.58z"/>
</svg>
