<svg id="Data_Factory2" xmlns="http://www.w3.org/2000/svg" xmlns:xlink="http://www.w3.org/1999/xlink" viewBox="0 0 64 64"><defs><style>.cls-1{fill:#fff;}.cls-2{mask:url(#mask);}.cls-3{fill:#d5e8f2;}.cls-4{fill:#368ec4;}.cls-5{fill:none;stroke:#053755;stroke-linejoin:round;stroke-width:1.13px;}.cls-6{fill:#005686;}</style><mask id="mask" x="-1.78" y="1.64" width="67.56" height="59.11" maskUnits="userSpaceOnUse"><circle class="cls-1" cx="32" cy="32.04" r="23.65"/></mask></defs><g class="cls-2"><path class="cls-3" d="M5,43.3V54a6.76,6.76,0,1,0,13.51,0A6.76,6.76,0,1,0,32,54a6.76,6.76,0,1,0,13.51,0A6.76,6.76,0,1,0,59,54V43.3Z"/><path class="cls-4" d="M-1.78,34.29V45a6.76,6.76,0,0,0,13.51,0,6.76,6.76,0,0,0,13.51,0,6.76,6.76,0,0,0,13.52,0,6.76,6.76,0,0,0,13.51,0,6.76,6.76,0,0,0,13.51,0V34.29Z"/><path class="cls-3" d="M5,25.28V36a6.76,6.76,0,0,0,13.51,0A6.76,6.76,0,0,0,32,36a6.76,6.76,0,0,0,13.51,0A6.76,6.76,0,0,0,59,36V25.28Z"/><path class="cls-4" d="M-1.78,16.27V27a6.76,6.76,0,1,0,13.51,0,6.76,6.76,0,1,0,13.51,0,6.76,6.76,0,1,0,13.52,0,6.76,6.76,0,1,0,13.51,0,6.76,6.76,0,1,0,13.51,0V16.27Z"/><path class="cls-3" d="M5,7.27V18a6.76,6.76,0,1,0,13.51,0A6.76,6.76,0,1,0,32,18a6.76,6.76,0,1,0,13.51,0A6.76,6.76,0,1,0,59,18V7.27Z"/><path class="cls-4" d="M38.76,1.64h-27V9A6.76,6.76,0,1,0,25.24,9,6.76,6.76,0,1,0,38.76,9,6.76,6.76,0,1,0,52.27,9V1.64Z"/></g><circle class="cls-5" cx="32" cy="32.04" r="24.21"/><path class="cls-6" d="M14.76,42.72V31.49l1.68-.74,1.77-13.7h4.4l.68,5.4.67-5.4h4.4l1.47,11.7,4.65-2.1v4l8.76-4V42.72Zm11-12.12.19-.08Z"/><path class="cls-1" d="M27.49,18l1.27,10.15-2.14.93,0-3.95-2.87,1.3L24.84,18h2.65m-5.76,0,1.11,8.83-5.19,2.28L19.08,18h2.65M42.24,28.19V41.73H21.43V37.78H19.54v3.95H15.76V32.14l9-3.95v3.95l8.76-3.95v3.95l8.75-3.95M31.7,39.75h1.89v-2H31.7v2m-4.05,0h1.89v-2H27.65v2m-4.06,0h1.9v-2h-1.9v2m5.65-23.7H17.33l-.22,1.74L15.68,28.9l-.15,1.17-.57.25-1.19.52V43.71H44.23V25.12l-2.8,1.26-6,2.68V25.12l-2.8,1.26-2,.91L29.46,17.8l-.22-1.75Z"/><path class="cls-6" d="M43.24,47.12a12.49,12.49,0,0,1-2-.15,9,9,0,0,1-1.68-.42,4.29,4.29,0,0,1-1.26-.71,1.72,1.72,0,0,1-.67-1.32V42.13h.46l0,0A1.67,1.67,0,0,1,37.66,41V38.61h.46l0,0a1.67,1.67,0,0,1-.43-1.08V35a1.72,1.72,0,0,1,.67-1.32A4.29,4.29,0,0,1,39.59,33a8.25,8.25,0,0,1,1.68-.42,12.4,12.4,0,0,1,2-.15,12.53,12.53,0,0,1,2,.15,8,8,0,0,1,1.67.42,4,4,0,0,1,1.26.71A1.69,1.69,0,0,1,48.82,35v2.44a1.62,1.62,0,0,1-.45,1.11l.45,0V41a1.62,1.62,0,0,1-.45,1.11l.45,0v2.39a1.7,1.7,0,0,1-.66,1.32,4.23,4.23,0,0,1-1.27.71,8.76,8.76,0,0,1-1.68.42A12.4,12.4,0,0,1,43.24,47.12Z"/><path class="cls-1" d="M43.24,33.28a11.85,11.85,0,0,1,1.84.14,7.58,7.58,0,0,1,1.51.37,3.46,3.46,0,0,1,1,.57A.89.89,0,0,1,48,35v2.44a.89.89,0,0,1-.37.68,3.46,3.46,0,0,1-1,.56,7.54,7.54,0,0,1-1.51.38,11.85,11.85,0,0,1-1.84.14,12.14,12.14,0,0,1-1.51-.09,9,9,0,0,1-1.31-.25,5.44,5.44,0,0,1-1-.39,2.28,2.28,0,0,1-.67-.49.85.85,0,0,1-.23-.54V35a.91.91,0,0,1,.38-.68,3.4,3.4,0,0,1,1-.57,7.76,7.76,0,0,1,1.51-.37,12,12,0,0,1,1.84-.14M48,38.61V41a.89.89,0,0,1-.37.68,3.46,3.46,0,0,1-1,.56,7.54,7.54,0,0,1-1.51.38,11.85,11.85,0,0,1-1.84.14,12.14,12.14,0,0,1-1.51-.09,9,9,0,0,1-1.31-.25,5.44,5.44,0,0,1-1-.39,2.28,2.28,0,0,1-.67-.49A.85.85,0,0,1,38.5,41V38.61a1,1,0,0,0,.37.64,3.46,3.46,0,0,0,1,.55,8.17,8.17,0,0,0,1.5.38,12,12,0,0,0,1.85.14,12.13,12.13,0,0,0,1.83-.13,8.29,8.29,0,0,0,1.6-.41,3.32,3.32,0,0,0,1-.54,1,1,0,0,0,.35-.63m0,3.52v2.39a.89.89,0,0,1-.37.68,3.46,3.46,0,0,1-1,.56,7.54,7.54,0,0,1-1.51.38,12.16,12.16,0,0,1-3.68,0,7.72,7.72,0,0,1-1.51-.38,3.39,3.39,0,0,1-1-.56.91.91,0,0,1-.38-.68V42.13a1,1,0,0,0,.37.64,3.31,3.31,0,0,0,1,.56,8,8,0,0,0,1.51.37,10.62,10.62,0,0,0,1.83.14,10.94,10.94,0,0,0,1.83-.14,7.63,7.63,0,0,0,1.6-.4,3.32,3.32,0,0,0,1-.54,1,1,0,0,0,.35-.63M43.24,31.6a14.12,14.12,0,0,0-2.1.15,9.48,9.48,0,0,0-1.84.47,4.94,4.94,0,0,0-1.51.86,2.54,2.54,0,0,0-1,2v9.48a2.54,2.54,0,0,0,1,2,5.11,5.11,0,0,0,1.52.85,8.81,8.81,0,0,0,1.84.47,13.86,13.86,0,0,0,4.2,0,9.08,9.08,0,0,0,1.85-.47,4.93,4.93,0,0,0,1.51-.85,2.51,2.51,0,0,0,1-2V35a2.57,2.57,0,0,0-1-2,5.07,5.07,0,0,0-1.51-.86,9.4,9.4,0,0,0-1.85-.47,14,14,0,0,0-2.1-.15Z"/></svg>