<svg id="player_v2" xmlns="http://www.w3.org/2000/svg" xmlns:xlink="http://www.w3.org/1999/xlink" viewBox="0 0 64 64"><defs><style>.cls-1,.cls-4{fill:none;}.cls-2{fill:#d5e8f2;}.cls-3{fill:#368ec4;}.cls-4{stroke:#053755;stroke-width:1.13px;}.cls-4,.cls-7{stroke-linejoin:round;}.cls-5{fill:#fff;}.cls-6{fill:#005686;}.cls-7{stroke:#003755;stroke-width:1.12px;fill:url(#linear-gradient);}</style><linearGradient id="linear-gradient" x1="24.64" y1="21.4" x2="34.53" y2="38.52" gradientUnits="userSpaceOnUse"><stop offset="0" stop-color="#a0e1fa"/><stop offset="1" stop-color="#73c3e1"/></linearGradient></defs><path class="cls-1" d="M32,54a6.73,6.73,0,0,1-.39,2.25h.78A6.73,6.73,0,0,1,32,54Z"/><path class="cls-2" d="M32.39,56.24A24.11,24.11,0,0,0,46.1,51.71a5.83,5.83,0,0,1-.59,0A6.75,6.75,0,0,1,38.76,45a6.76,6.76,0,0,1-13.52,0,6.75,6.75,0,0,1-6.75,6.75,5.83,5.83,0,0,1-.59,0,24.11,24.11,0,0,0,13.71,4.53A6.73,6.73,0,0,0,32,54,6.73,6.73,0,0,0,32.39,56.24Z"/><path class="cls-2" d="M11.72,45.25l0,0c0-.1,0-.2,0-.3C11.73,45.08,11.72,45.16,11.72,45.25Z"/><path class="cls-2" d="M52.25,45.29l0,0c0-.09,0-.17,0-.26C52.27,45.09,52.26,45.19,52.25,45.29Z"/><path class="cls-3" d="M25.24,45a6.76,6.76,0,0,0,13.52,0,6.75,6.75,0,0,0,6.75,6.75,5.83,5.83,0,0,0,.59,0,24.25,24.25,0,0,0,6.15-6.42c0-.1,0-.2,0-.3,0,.09,0,.17,0,.26a22.34,22.34,0,0,0,1.53-2.7,6.49,6.49,0,0,1-1.54.18A6.76,6.76,0,0,1,45.51,36,6.76,6.76,0,0,1,32,36a6.76,6.76,0,0,1-13.51,0,6.76,6.76,0,0,1-6.76,6.75,6.49,6.49,0,0,1-1.54-.18,22.34,22.34,0,0,0,1.53,2.7c0-.09,0-.17,0-.26,0,.1,0,.2,0,.3a24.25,24.25,0,0,0,6.15,6.42,5.83,5.83,0,0,0,.59,0A6.75,6.75,0,0,0,25.24,45Z"/><path class="cls-2" d="M18.49,36A6.76,6.76,0,0,0,32,36a6.76,6.76,0,0,0,13.51,0,6.76,6.76,0,0,0,6.76,6.75,6.49,6.49,0,0,0,1.54-.18,24,24,0,0,0,2.37-9.46A6.74,6.74,0,0,1,52.27,27a6.76,6.76,0,1,1-13.51,0,6.76,6.76,0,1,1-13.52,0,6.76,6.76,0,1,1-13.51,0,6.74,6.74,0,0,1-3.91,6.12,24,24,0,0,0,2.37,9.46,6.49,6.49,0,0,0,1.54.18A6.76,6.76,0,0,0,18.49,36Z"/><path class="cls-3" d="M11.73,27a6.76,6.76,0,1,0,13.51,0,6.76,6.76,0,1,0,13.52,0,6.76,6.76,0,1,0,13.51,0,6.74,6.74,0,0,0,3.91,6.12q0-.53,0-1.05a24.25,24.25,0,0,0-1.31-7.85A6.77,6.77,0,0,1,45.51,18,6.76,6.76,0,1,1,32,18a6.76,6.76,0,1,1-13.51,0A6.77,6.77,0,0,1,9.1,24.19,24.25,24.25,0,0,0,7.79,32q0,.52,0,1.05A6.74,6.74,0,0,0,11.73,27Z"/><path class="cls-2" d="M18.49,18A6.76,6.76,0,1,0,32,18a6.76,6.76,0,1,0,13.51,0,6.77,6.77,0,0,0,9.39,6.23A24.17,24.17,0,0,0,49,14.76,6.74,6.74,0,0,1,38.76,9,6.76,6.76,0,1,1,25.24,9a6.74,6.74,0,0,1-10.19,5.81,24.17,24.17,0,0,0-6,9.43A6.77,6.77,0,0,0,18.49,18Z"/><path class="cls-3" d="M25.24,9A6.76,6.76,0,1,0,38.76,9,6.74,6.74,0,0,0,49,14.76a24.19,24.19,0,0,0-33.9,0A6.74,6.74,0,0,0,25.24,9Z"/><g id="Calque_23_-_copie_5" data-name="Calque 23 - copie 5"><circle class="cls-4" cx="32" cy="32.04" r="24.21"/><g id="Calque_13_-_copie" data-name="Calque 13 - copie"><rect class="cls-5" x="16.82" y="35.89" width="29.67" height="12.83"/><rect class="cls-6" x="18.89" y="37.49" width="1" height="1"/><rect class="cls-6" x="21.89" y="37.49" width="8.72" height="1"/><rect class="cls-6" x="18.89" y="40.49" width="11.72" height="1"/><rect class="cls-6" x="18.89" y="43.49" width="11.72" height="1"/><rect class="cls-6" x="18.89" y="46.49" width="5.98" height="1"/><rect class="cls-6" x="32.95" y="37.49" width="1" height="1"/><rect class="cls-6" x="35.95" y="37.49" width="8.72" height="1"/><rect class="cls-6" x="32.95" y="40.49" width="11.72" height="1"/><rect class="cls-6" x="32.95" y="43.49" width="11.72" height="1"/><rect class="cls-6" x="32.95" y="46.49" width="5.98" height="1"/></g><rect class="cls-6" x="31.83" y="12.13" width="6.69" height="20.87"/><path class="cls-5" d="M37.52,13.13V32H32.83V13.13h4.69m2-2H30.83V34h8.69V11.13Z"/><rect class="cls-6" x="38.86" y="16.06" width="6.69" height="16.94"/><path class="cls-5" d="M44.55,17.06V32H39.86V17.06h4.69m2-2H37.86V34h8.69V15.06Z"/><rect class="cls-6" x="24.8" y="16.06" width="6.69" height="16.94"/><path class="cls-5" d="M30.49,17.06V32H25.8V17.06h4.69m2-2H23.8V34h8.69V15.06Z"/><rect class="cls-6" x="17.77" y="22.35" width="6.69" height="10.65"/><path class="cls-5" d="M23.45,23.35V32H18.77V23.35h4.68m2-2H16.77V34h8.68V21.35Z"/></g><path class="cls-7" d="M43.26,31.48,25.8,21.4a1.16,1.16,0,0,0-1.73,1V42.56a1.15,1.15,0,0,0,1.73,1L43.26,33.49A1.16,1.16,0,0,0,43.26,31.48Z"/></svg>