<svg id="vok_2_copy" data-name="vok 2 copy" xmlns="http://www.w3.org/2000/svg" xmlns:xlink="http://www.w3.org/1999/xlink" viewBox="0 0 64 64"><defs><style>.cls-1,.cls-14,.cls-2,.cls-3{fill:none;}.cls-2,.cls-3{stroke:#797979;opacity:0.6;}.cls-10,.cls-11,.cls-12,.cls-14,.cls-15,.cls-16,.cls-17,.cls-18,.cls-19,.cls-2,.cls-20,.cls-21,.cls-22,.cls-24,.cls-25,.cls-3,.cls-44,.cls-45{stroke-linecap:round;stroke-linejoin:round;}.cls-4{clip-path:url(#clip-path);}.cls-5{fill:url(#linear-gradient);}.cls-6{fill:#797979;}.cls-12,.cls-20,.cls-44,.cls-7{fill:#fff;}.cls-8{fill:url(#linear-gradient-2);}.cls-9{fill:url(#linear-gradient-4);}.cls-10,.cls-12,.cls-14,.cls-17,.cls-21,.cls-24,.cls-25{stroke:#000;}.cls-10,.cls-11,.cls-12,.cls-15,.cls-16,.cls-17,.cls-18,.cls-19,.cls-20,.cls-21,.cls-22,.cls-24,.cls-25{stroke-width:0.25px;}.cls-10{fill:url(#linear-gradient-6);}.cls-11,.cls-15,.cls-16,.cls-18,.cls-19,.cls-20,.cls-22{stroke:#323232;}.cls-11{fill:url(#linear-gradient-7);}.cls-13{fill:#003755;}.cls-14{stroke-width:0.38px;}.cls-15{fill:url(#linear-gradient-8);}.cls-16{fill:url(#linear-gradient-9);}.cls-17{fill:url(#linear-gradient-10);}.cls-18{fill:url(#linear-gradient-11);}.cls-19{fill:url(#linear-gradient-12);}.cls-21{fill:url(#linear-gradient-13);}.cls-22{fill:url(#linear-gradient-14);}.cls-23{fill:url(#linear-gradient-15);}.cls-24{fill:url(#linear-gradient-17);}.cls-25{fill:url(#linear-gradient-18);}.cls-26{fill:url(#linear-gradient-19);}.cls-27{fill:url(#linear-gradient-20);}.cls-28{fill:url(#linear-gradient-21);}.cls-29{fill:url(#linear-gradient-22);}.cls-30{fill:url(#linear-gradient-23);}.cls-31{fill:#323232;}.cls-32{fill:#020000;}.cls-33{fill:url(#linear-gradient-24);}.cls-34{fill:url(#linear-gradient-25);}.cls-35{fill:url(#linear-gradient-26);}.cls-36{fill:url(#linear-gradient-27);}.cls-37{fill:url(#linear-gradient-28);}.cls-38{fill:url(#linear-gradient-29);}.cls-39{fill:url(#linear-gradient-30);}.cls-40{fill:url(#linear-gradient-31);}.cls-41{fill:url(#linear-gradient-32);}.cls-42{filter:url(#DS_GaussianBlur_4);}.cls-43{fill:#f2f2f2;}.cls-44,.cls-45{stroke:#003755;}.cls-45{fill:url(#linear-gradient-33);}</style><clipPath id="clip-path"><polygon class="cls-1" points="58 58 6 58 6 43 0 32.3 22 28.3 41.1 26.24 45.27 26.24 50.36 32.44 57.94 36.62 58 58"/></clipPath><linearGradient id="linear-gradient" x1="21.57" y1="19.19" x2="45.35" y2="60.38" gradientUnits="userSpaceOnUse"><stop offset="0" stop-color="#d7d7d7"/><stop offset="1" stop-color="#969696"/></linearGradient><linearGradient id="linear-gradient-2" x1="28.84" y1="13.44" x2="39.79" y2="32.42" gradientUnits="userSpaceOnUse"><stop offset="0" stop-color="#fff"/><stop offset="1" stop-color="#d2d2d2"/></linearGradient><linearGradient id="linear-gradient-4" x1="31.36" y1="8.1" x2="36.77" y2="17.48" xlink:href="#linear-gradient-2"/><linearGradient id="linear-gradient-6" x1="33.29" y1="17.59" x2="41.15" y2="31.2" xlink:href="#linear-gradient-2"/><linearGradient id="linear-gradient-7" x1="25.08" y1="16.04" x2="34.35" y2="32.11" gradientUnits="userSpaceOnUse"><stop offset="0" stop-color="#bebebe"/><stop offset="1" stop-color="#bebebe"/></linearGradient><linearGradient id="linear-gradient-8" x1="32.78" y1="13.19" x2="35.37" y2="17.68" xlink:href="#linear-gradient-2"/><linearGradient id="linear-gradient-9" x1="34.46" y1="10.32" x2="37.89" y2="16.26" xlink:href="#linear-gradient-2"/><linearGradient id="linear-gradient-10" x1="29.39" y1="9.81" x2="33.25" y2="16.5" xlink:href="#linear-gradient-7"/><linearGradient id="linear-gradient-11" x1="22.33" y1="25.62" x2="27.86" y2="35.21" xlink:href="#linear-gradient-2"/><linearGradient id="linear-gradient-12" x1="14.5" y1="23.79" x2="21.49" y2="35.89" xlink:href="#linear-gradient-7"/><linearGradient id="linear-gradient-13" x1="22.83" y1="21.02" x2="25.05" y2="24.87" xlink:href="#linear-gradient-2"/><linearGradient id="linear-gradient-14" x1="18.72" y1="20.21" x2="21.53" y2="25.07" xlink:href="#linear-gradient-7"/><linearGradient id="linear-gradient-15" x1="38.14" y1="23.94" x2="46.42" y2="38.28" xlink:href="#linear-gradient-2"/><linearGradient id="linear-gradient-17" x1="43.44" y1="29.18" x2="47.93" y2="36.96" xlink:href="#linear-gradient-2"/><linearGradient id="linear-gradient-18" x1="33.09" y1="27.3" x2="39.67" y2="38.69" xlink:href="#linear-gradient-7"/><linearGradient id="linear-gradient-19" x1="30.52" y1="36.77" x2="33.3" y2="41.6" xlink:href="#linear-gradient-2"/><linearGradient id="linear-gradient-20" x1="22.08" y1="34.37" x2="26.93" y2="42.77" xlink:href="#linear-gradient-7"/><linearGradient id="linear-gradient-21" x1="27.17" y1="31.43" x2="31.52" y2="38.97" gradientUnits="userSpaceOnUse"><stop offset="0" stop-color="#fff"/><stop offset="1" stop-color="#f0f0f0"/></linearGradient><linearGradient id="linear-gradient-22" x1="22.2" y1="34.29" x2="27.05" y2="42.7" xlink:href="#linear-gradient-7"/><linearGradient id="linear-gradient-23" x1="28.49" y1="31.3" x2="32.57" y2="38.36" xlink:href="#linear-gradient-21"/><linearGradient id="linear-gradient-24" x1="11.32" y1="42.3" x2="14.98" y2="35.95" gradientUnits="userSpaceOnUse"><stop offset="0" stop-color="#379614"/><stop offset="1" stop-color="#55b432"/></linearGradient><linearGradient id="linear-gradient-25" x1="11.41" y1="42.13" x2="14.76" y2="36.34" xlink:href="#linear-gradient-24"/><linearGradient id="linear-gradient-26" x1="11.41" y1="42.13" x2="14.76" y2="36.34" gradientUnits="userSpaceOnUse"><stop offset="0" stop-color="#28780a"/><stop offset="1" stop-color="#3c9b19"/></linearGradient><linearGradient id="linear-gradient-27" x1="7.45" y1="37.47" x2="10.81" y2="31.65" xlink:href="#linear-gradient-24"/><linearGradient id="linear-gradient-28" x1="7.55" y1="37.3" x2="10.59" y2="32.04" xlink:href="#linear-gradient-24"/><linearGradient id="linear-gradient-29" x1="7.55" y1="37.3" x2="10.59" y2="32.04" xlink:href="#linear-gradient-26"/><linearGradient id="linear-gradient-30" x1="5.53" y1="46.78" x2="10.12" y2="38.83" xlink:href="#linear-gradient-24"/><linearGradient id="linear-gradient-31" x1="5.65" y1="46.57" x2="9.82" y2="39.34" xlink:href="#linear-gradient-24"/><linearGradient id="linear-gradient-32" x1="5.65" y1="46.57" x2="9.82" y2="39.34" xlink:href="#linear-gradient-26"/><filter id="DS_GaussianBlur_4" x="-50" y="-50" width="400" height="400" name="DS_GaussianBlur_4"><feGaussianBlur stdDeviation="2"/></filter><linearGradient id="linear-gradient-33" x1="38.82" y1="30.85" x2="69.32" y2="83.69" gradientUnits="userSpaceOnUse"><stop offset="0" stop-color="#8cd7f5"/><stop offset="1" stop-color="#376e8c"/></linearGradient></defs><title>ZAZA__A33AAe__R21XArtboard 1</title><g id="ARR_PLAN_copy_2" data-name="ARR PLAN copy 2"><g id="Layer_53_copy_2" data-name="Layer 53 copy 2"><polygon id="B_contour" data-name="B  contour" class="cls-2" points="51.44 22.37 51.44 29.59 45.36 31.11 40.75 28.88 40.75 22.12 46.63 20.94 51.44 22.37"/><polygon id="B_D" data-name="B D" class="cls-2" points="51.44 22.37 51.44 29.59 45.36 31.11 45.35 23.72 51.44 22.37"/><polygon id="B_G" data-name="B G" class="cls-2" points="45.36 31.11 40.75 28.88 40.75 22.12 45.35 23.72 45.36 31.11"/></g><g id="Layer_52_copy_2" data-name="Layer 52 copy 2"><polygon id="B_contour-2" data-name="B  contour" class="cls-3" points="25.5 22.08 25.5 30.53 15.67 33.01 8.5 26.45 8.5 20.17 17.73 18.76 25.5 22.08"/><polygon id="B_top" data-name="B  top" class="cls-2" points="25.58 22.08 15.78 23.93 8.64 20.17 17.84 18.76 25.58 22.08"/><polygon id="B_top-2" data-name="B  top" class="cls-3" points="25.44 22.08 15.5 23.93 15.5 32.99 25.33 30.65 25.44 22.08"/></g><g id="Layer_51_copy_2" data-name="Layer 51 copy 2"><polygon id="B_contour-3" data-name="B  contour" class="cls-3" points="36.5 13.06 36.5 24.12 21.68 26.84 12.5 22.31 12.5 12.35 26.54 11.49 36.5 13.06"/><polygon id="B_D-2" data-name="B D" class="cls-3" points="36.5 13.06 36.5 24.12 21.5 26.84 21.5 14.87 36.5 13.06"/><polygon id="B_G-2" data-name="B G" class="cls-3" points="21.5 26.84 12.5 22.31 12.5 12.35 21.5 14.87 21.5 26.84"/></g><g id="Layer_50_copy_2" data-name="Layer 50 copy 2"><polygon id="B_contour-4" data-name="B  contour" class="cls-3" points="48.5 16.52 48.5 20.62 38.68 22.55 33.5 20.45 33.5 16.59 42.36 15.13 48.5 16.52"/><polygon id="B_D-3" data-name="B D" class="cls-3" points="48.5 16.52 48.5 20.62 38.44 22.55 38.52 18.26 48.5 16.52"/><polygon id="B_G-3" data-name="B G" class="cls-3" points="38.52 22.55 33.5 20.45 33.5 16.59 38.63 18.26 38.52 22.55"/></g></g><g id="SOL_" data-name="SOL  ***"><g class="cls-4"><polygon class="cls-5" points="23.79 54.55 6 60 2 51 17.29 46.41 3.63 29.55 38.81 22.42 70.53 36.22 34.97 50.22 46 60 28.63 60.36 23.79 54.55"/><path class="cls-6" d="M48.52,28.66l18,7.52L34.32,48.85a1.49,1.49,0,0,0-.44,2.52l8.23,7.21-12.88.28L25,53.6a1.48,1.48,0,0,0-1.16-.55,1.74,1.74,0,0,0-.45.06L4.31,59l-.69-6.94,14.1-4.23a1.51,1.51,0,0,0,.73-2.39L6.77,31.09,17,29l-.27,1.09-2.35.33a1.5,1.5,0,0,0-.8,2.59L26,44.28a1.52,1.52,0,0,0,1.47.32l24.9-8.05a1.5,1.5,0,0,0,.21-2.77l-5.81-2.91,1.77-2.21m-.47-1.81-3.63,4.53,7.47,3.74L27,43.17,14.62,31.91,18,31.44,19,27.07l-15,3,13.25,16.3L2,51,3,61l20.79-6.45,4.74,5.83L46,60,34.87,50.24l35.66-14L48.05,26.85Z"/><path id="Ligne_2" data-name="Ligne 2" class="cls-7" d="M35.05,57.2l1.08-.36,1.65,1.54-1.13.42ZM8.94,31.59l.75-.2,1.05,1.11-.78.24Zm2.89,2.83.79-.22,1.13,1.16-.83.26Zm2.89,2.83.83-.24,1.2,1.21-.87.28Zm2.89,2.82.87-.26,1.28,1.27-.92.3Zm2.88,2.83.92-.28,1.35,1.32-1,.33Zm8.67,8.48,1-.35,1.58,1.49-1.1.39Zm2.89,2.82,1.08-.36,1.65,1.54-1.13.42Z"/><path id="LIGNE_1_h" data-name="LIGNE  1  h" class="cls-7" d="M13.63,52.43l-.52-.83,2.7-1,.49.78Zm5.52-1.89-.51-.83,2.7-1,.48.78Zm12.06-4.27-.52-.84,2.7-.94.49.78Zm5.52-1.89-.51-.83,2.69-.95.49.78Zm5.53-1.89-.52-.83,2.7-.95.49.78Zm5.52-1.88-.51-.84,2.7-.94.48.77Zm5.53-1.89-.51-.84,2.69-.94.49.78Z"/><path id="LIGNE_1_h-2" data-name="LIGNE  1  h" class="cls-7" d="M7.63,54.43l-.52-.83,2.7-1,.49.78ZM47.31,40.72l-.51-.84,2.69-.94.49.78Z"/></g></g><g id="BAT_2_copy_2" data-name="BAT 2 copy 2"><g id="B_contour_ext_" data-name="B  contour  ext ***"><path class="cls-8" d="M33,33.48a.36.36,0,0,1-.2-.06L25.73,29a.38.38,0,0,1-.18-.32V15.55a.38.38,0,0,1,.33-.37L34.23,14h.14l7.84,1.81a.37.37,0,0,1,.29.36V30.64a.36.36,0,0,1-.28.36l-9.1,2.47Z"/><path d="M34.28,14.4l7.84,1.81V30.64L33,33.1l-7.09-4.46V15.55l8.35-1.15m0-.75h-.1l-8.36,1.15a.74.74,0,0,0-.64.74V28.64a.73.73,0,0,0,.35.63l7.09,4.47a.8.8,0,0,0,.4.11l.19,0,9.11-2.47a.73.73,0,0,0,.55-.72V16.21a.75.75,0,0,0-.58-.73l-7.84-1.81-.17,0Z"/></g><g id="B_contour_ext_2" data-name="B  contour  ext ***"><path class="cls-8" d="M33,33.48a.36.36,0,0,1-.2-.06L25.73,29a.38.38,0,0,1-.18-.32V15.55a.38.38,0,0,1,.33-.37L34.23,14h.14l7.84,1.81a.37.37,0,0,1,.29.36V30.64a.36.36,0,0,1-.28.36l-9.1,2.47Z"/><path d="M34.28,14.4l7.84,1.81V30.64L33,33.1l-7.09-4.46V15.55l8.35-1.15m0-.75h-.1l-8.36,1.15a.74.74,0,0,0-.64.74V28.64a.73.73,0,0,0,.35.63l7.09,4.47a.8.8,0,0,0,.4.11l.19,0,9.11-2.47a.73.73,0,0,0,.55-.72V16.21a.75.75,0,0,0-.58-.73l-7.84-1.81-.17,0Z"/></g><g id="B_contour_ext_top_" data-name="B  contour  ext top **"><path class="cls-9" d="M33.31,17H33.2l-4.32-1.24a.37.37,0,0,1-.27-.36V9.91a.37.37,0,0,1,.32-.37L34,8.75h.12l5,.92a.38.38,0,0,1,.31.37v5.68a.37.37,0,0,1-.32.37L33.36,17Z"/><path d="M34.07,9.12l5,.93v5.68l-5.74.86L29,15.35V9.91l5.08-.79m0-.75H34l-5.09.79a.74.74,0,0,0-.63.74v5.44a.74.74,0,0,0,.54.72l4.32,1.24a.76.76,0,0,0,.21,0h.11l5.74-.86a.75.75,0,0,0,.64-.74V10.05a.76.76,0,0,0-.62-.74l-5-.92-.14,0Z"/></g><g id="B_contour_ext_top_2" data-name="B  contour  ext top **"><path class="cls-9" d="M33.31,17H33.2l-4.32-1.24a.37.37,0,0,1-.27-.36V9.91a.37.37,0,0,1,.32-.37L34,8.75h.12l5,.92a.38.38,0,0,1,.31.37v5.68a.37.37,0,0,1-.32.37L33.36,17Z"/><path d="M34.07,9.12l5,.93v5.68l-5.74.86L29,15.35V9.91l5.08-.79m0-.75H34l-5.09.79a.74.74,0,0,0-.63.74v5.44a.74.74,0,0,0,.54.72l4.32,1.24a.76.76,0,0,0,.21,0h.11l5.74-.86a.75.75,0,0,0,.64-.74V10.05a.76.76,0,0,0-.62-.74l-5-.92-.14,0Z"/></g><polygon id="B_D-4" data-name="B D" class="cls-10" points="42.12 16.21 42.12 30.64 32.63 33.1 32.62 17.98 42.12 16.21"/><polygon id="B_G-4" data-name="B G" class="cls-11" points="32.63 33.1 25.93 28.64 25.93 15.55 32.62 17.98 32.63 33.1"/><polygon id="B_top_" data-name="B  top ***" class="cls-12" points="42.12 16.21 32.62 17.98 25.93 15.55 34.28 14.4 42.12 16.21"/><path id="BB_02_" data-name="BB 02   ***" class="cls-13" d="M30,18.86l1,.32V31.67L30,31ZM27,29.52l1,.68V18.48l-1-.33Zm8-9.31L36,20V32.2l-1,.35Zm2.3,11.52,1.39-.23.08-12-1.44.24Zm2.7-.57,1-.36V19l-1,.24Z"/><path id="angle_top_" data-name="angle  top  ***" class="cls-14" d="M25.94,15.57,32.54,18l0,15.12M25.94,15.57,32.54,18l9.52-1.72"/><g id="B_contour_ext_top_3" data-name="B  contour  ext top **"><path d="M34.07,9.12,39,10v5.59l-5.63.86-4.09-1.23V9.91l4.85-.79m0-.25h0l-4.85.78a.25.25,0,0,0-.21.25v5.34a.26.26,0,0,0,.17.24l4.09,1.23h.11L39,15.87a.25.25,0,0,0,.22-.25V10A.27.27,0,0,0,39,9.78l-4.87-.9Z"/></g><polygon id="B_bOTTOM" data-name="B  bOTTOM" class="cls-15" points="38.94 15.62 33.31 16.46 29.22 15.25 34.02 14.57 38.94 15.62"/><polygon id="B_D-5" data-name="B D" class="cls-16" points="39 15.62 39 10.05 33.36 10.96 33.31 16.46 39 15.62"/><polygon id="B_G_" data-name="B G   ***" class="cls-17" points="33.36 10.96 29.22 9.91 29.22 15.25 33.31 16.46 33.36 10.96"/><polygon id="B_top-3" data-name="B  top" class="cls-7" points="38.95 10.03 33.36 10.96 29.22 9.91 34.07 9.12 38.95 10.03"/><path id="angle_top_2" data-name="angle  top  ***" class="cls-14" d="M29.26,9.93l4.1,1,0,5.5M29.26,9.93l4.1,1L38.85,10"/></g><g id="BAT_1_copy_2" data-name="BAT 1 copy 2"><g id="B_contour-5" data-name="B  contour"><path d="M24,21.87l6.2,2.88v9.13l-9.86,2.69-5.23-4.73V23.45L24,21.87m0-.75h-.13L15,22.71a.76.76,0,0,0-.62.74v8.39a.76.76,0,0,0,.24.55l5.24,4.74a.73.73,0,0,0,.5.19.68.68,0,0,0,.2,0l9.85-2.7a.75.75,0,0,0,.56-.72V24.75a.75.75,0,0,0-.44-.68l-6.19-2.88a.71.71,0,0,0-.32-.07Z"/></g><g id="B_contour-6" data-name="B  contour"><path d="M24,21.87l6.2,2.88v9.13l-9.86,2.69-5.23-4.73V23.45L24,21.87m0-.75h-.13L15,22.71a.76.76,0,0,0-.62.74v8.39a.76.76,0,0,0,.24.55l5.24,4.74a.73.73,0,0,0,.5.19.68.68,0,0,0,.2,0l9.85-2.7a.75.75,0,0,0,.56-.72V24.75a.75.75,0,0,0-.44-.68l-6.19-2.88a.71.71,0,0,0-.32-.07Z"/></g><g id="B_contour-7" data-name="B  contour"><path d="M23.14,19.55l3.23,1.36v3.2L21.56,25l-3-1.69v-3l4.56-.74m0-.75H23l-4.56.74a.75.75,0,0,0-.63.74v3a.78.78,0,0,0,.38.66l3,1.69a.78.78,0,0,0,.37.09h.14l4.81-.91a.76.76,0,0,0,.61-.74v-3.2a.75.75,0,0,0-.46-.69l-3.23-1.36a.72.72,0,0,0-.29-.06Z"/></g><g id="B_contour-8" data-name="B  contour"><path d="M23.14,19.55l3.23,1.36v3.2L21.56,25l-3-1.69v-3l4.56-.74m0-.75H23l-4.56.74a.75.75,0,0,0-.63.74v3a.78.78,0,0,0,.38.66l3,1.69a.78.78,0,0,0,.37.09h.14l4.81-.91a.76.76,0,0,0,.61-.74v-3.2a.75.75,0,0,0-.46-.69l-3.23-1.36a.72.72,0,0,0-.29-.06Z"/></g><polygon id="B_D-6" data-name="B D" class="cls-18" points="30.17 24.75 30.17 33.88 20.31 36.58 20.3 26.79 30.17 24.75"/><polygon id="B_G-5" data-name="B G" class="cls-19" points="20.31 36.58 15.08 31.84 15.08 23.45 20.3 26.79 20.31 36.58"/><polygon id="B_top-4" data-name="B  top" class="cls-20" points="30.16 24.75 20.3 26.79 15.08 23.45 23.97 21.86 30.16 24.75"/><path id="angle_top_3" data-name="angle  top***" class="cls-14" d="M15.19,23.53l5.09,3.25,0,9.65m-5.12-12.9,5.09,3.25,9.73-2"/><path id="win_" data-name="win ***" class="cls-13" d="M21.68,32.78l1.13-.28v2.79l-1.13.31ZM23.74,35l1.13-.32V32l-1.13.28Zm2.11-.58L27,34.15V31.47l-1.13.28Zm2.06-.57,1.13-.3V31l-1.13.28Zm-6.23-5.43,1.13-.24V31l-1.13.27Zm2.07,2.34,1.13-.26V27.76L23.75,28Zm2.12-.5L27,30V27.3l-1.13.24Zm2.07-.5,1.13-.25V26.84l-1.13.24ZM19.1,32.33l-.82-.68V34.7l.82.7Zm-2.38-1.95-.82-.62v2.77l.82.76Zm2.38-2.53-.82-.55V30l.82.64Zm-2.38-1.64-.82-.55v2.58l.82.63Z"/><g id="B_contour-9" data-name="B  contour"><path d="M23.14,19.55l3.23,1.36v3.2l-4.81.95-3-1.73v-3l4.56-.74m0-.25h0L18.54,20a.25.25,0,0,0-.21.25v3a.25.25,0,0,0,.13.22l3,1.72a.2.2,0,0,0,.13,0h0l4.81-.95a.25.25,0,0,0,.21-.24v-3.2a.25.25,0,0,0-.16-.23l-3.22-1.36-.1,0Z"/></g><polygon id="B_D-7" data-name="B D" class="cls-21" points="26.37 20.91 26.37 24.11 21.56 25.06 21.55 21.76 26.37 20.91"/><polygon id="B_G-6" data-name="B G" class="cls-22" points="21.56 25.06 18.59 23.34 18.59 20.29 21.55 21.76 21.56 25.06"/><polygon id="B_top-5" data-name="B  top" class="cls-12" points="26.37 20.91 21.55 21.76 18.59 20.29 23.14 19.55 26.37 20.91"/><path id="angle_top_4" data-name="angle  top***" class="cls-14" d="M18.67,20.31l2.89,1.46V25m-2.89-4.69,2.89,1.46,4.77-.86"/></g><g id="mas_2_copy_2" data-name="mas 2 copy 2"><g id="B_contour-10" data-name="B  contour"><path class="cls-23" d="M39.78,39a.36.36,0,0,1-.2-.06L32.46,34.5a.37.37,0,0,1-.18-.33V27.55a.39.39,0,0,1,.29-.38L43.8,24.49h.09l.14,0,7.91,3a.4.4,0,0,1,.25.37v6.83a.4.4,0,0,1-.27.37L39.9,39Z"/><path d="M43.89,24.87l7.91,3v6.83l-12,3.89-7.12-4.45V27.55l11.23-2.68m0-.78a.57.57,0,0,0-.18,0L32.48,26.8a.76.76,0,0,0-.59.75v6.62a.79.79,0,0,0,.36.66l7.12,4.45a.78.78,0,0,0,.41.12,1,1,0,0,0,.24,0l12-3.9a.77.77,0,0,0,.54-.73V27.9a.78.78,0,0,0-.5-.73l-7.92-3a.63.63,0,0,0-.27-.06Z"/></g><g id="B_contour-11" data-name="B  contour"><path class="cls-23" d="M39.78,39a.36.36,0,0,1-.2-.06L32.46,34.5a.37.37,0,0,1-.18-.33V27.55a.39.39,0,0,1,.29-.38L43.8,24.49h.09l.14,0,7.91,3a.4.4,0,0,1,.25.37v6.83a.4.4,0,0,1-.27.37L39.9,39Z"/><path d="M43.89,24.87l7.91,3v6.83l-12,3.89-7.12-4.45V27.55l11.23-2.68m0-.78a.57.57,0,0,0-.18,0L32.48,26.8a.76.76,0,0,0-.59.75v6.62a.79.79,0,0,0,.36.66l7.12,4.45a.78.78,0,0,0,.41.12,1,1,0,0,0,.24,0l12-3.9a.77.77,0,0,0,.54-.73V27.9a.78.78,0,0,0-.5-.73l-7.92-3a.63.63,0,0,0-.27-.06Z"/></g><polygon id="B_D-8" data-name="B D" class="cls-24" points="51.8 27.9 51.8 34.73 39.79 38.62 39.79 31.28 51.8 27.9"/><polygon id="B_G-7" data-name="B G" class="cls-25" points="39.79 38.62 32.66 34.17 32.66 27.55 39.79 31.28 39.79 38.62"/><polygon id="B_top_2" data-name="B  top   ***" class="cls-12" points="51.8 27.9 39.78 31.28 32.66 27.55 43.89 24.87 51.8 27.9"/><path id="win_2" data-name="win ***" class="cls-13" d="M43,34.07l2-.65v3.5l-2,.7Zm4.5,2,2-.66V32l-2,.66Z"/><path id="angle_" data-name="angle***" class="cls-14" d="M32.76,27.6l7,3.69v7.29m-7-11,7,3.69L51.72,27.9"/><path id="angle_2" data-name="angle***" class="cls-14" d="M32.76,27.6l7,3.69v7.29m-7-11,7,3.69L51.72,27.9"/></g><g id="mas_1_copy_2" data-name="mas 1 copy 2"><g id="B_contour-12" data-name="B  contour"><path d="M30.92,32.17l6,3.68v3.66L27,42.72,21.77,38V34.54l9.15-2.37m0-.75a.58.58,0,0,0-.19,0l-9.15,2.37a.74.74,0,0,0-.56.72V38a.73.73,0,0,0,.25.56l5.25,4.73a.78.78,0,0,0,.5.19.67.67,0,0,0,.24,0l9.89-3.21a.74.74,0,0,0,.52-.71V35.85a.76.76,0,0,0-.36-.64l-6-3.68a.79.79,0,0,0-.39-.11Z"/></g><g id="B_contour-13" data-name="B  contour"><path d="M33.92,31l3,4.84v3.66L27,42.72,21.77,38V34.54l2.63-.88L33.92,31m0-.75a.64.64,0,0,0-.2,0L24.2,32.93l-2.67.9a.75.75,0,0,0-.51.71V38a.73.73,0,0,0,.25.56l5.25,4.73a.78.78,0,0,0,.5.19.67.67,0,0,0,.24,0l9.89-3.21a.74.74,0,0,0,.52-.71V35.85a.69.69,0,0,0-.12-.39l-3-4.85a.77.77,0,0,0-.64-.35Z"/></g><g id="B_contour-14" data-name="B  contour"><path d="M33.92,31l3,4.84v3.66L27,42.72,21.77,38V34.54l2.63-.88L33.92,31m0-.75a.64.64,0,0,0-.2,0L24.2,32.93l-2.67.9a.75.75,0,0,0-.51.71V38a.73.73,0,0,0,.25.56l5.25,4.73a.78.78,0,0,0,.5.19.67.67,0,0,0,.24,0l9.89-3.21a.74.74,0,0,0,.52-.71V35.85a.69.69,0,0,0-.12-.39l-3-4.85a.77.77,0,0,0-.64-.35Z"/></g><g id="B_D-9" data-name="B D"><polygon class="cls-26" points="36.92 35.85 36.92 39.51 27.02 42.72 27.02 38.78 36.92 35.85"/></g><g id="B_G-8" data-name="B G"><polygon class="cls-27" points="27.02 42.72 21.77 37.99 21.77 34.54 27.02 38.78 27.02 42.72"/></g><polygon id="B_top-6" data-name="B  top" class="cls-28" points="36.92 35.85 27.02 38.78 21.77 34.54 30.91 32.17 36.92 35.85"/><g id="B_G-9" data-name="B G"><polygon class="cls-29" points="27.02 42.72 24.4 40.36 21.77 37.99 21.77 36.27 21.77 34.54 24.4 33.66 27.02 38.78 27.02 40.75 27.02 42.72"/></g><polygon id="B_top-7" data-name="B  top" class="cls-30" points="36.92 35.85 31.97 37.31 27.02 38.78 24.4 33.66 33.92 31.01 36.92 35.85"/><path id="win_3" data-name="win  ***" class="cls-13" d="M23.5,37.66l1,.9v1.88l-1-.89Zm5,4.59,1.5-.5v-2l-1.5.45Zm3-1,1.5-.49v-1.9l-1.5.46Zm3-1,1.5-.48V38.05l-1.5.45Z"/><path id="angle_3" data-name="angle***" class="cls-14" d="M24.43,33.72l2.14,4.86V42.7m-2.14-9,2.14,4.86,10.35-2.73"/><path id="angle_4" data-name="angle***" class="cls-14" d="M24.43,33.72l2.14,4.86V42.7m-2.14-9,2.14,4.86,10.35-2.73"/></g><g id="TREE_copy_2" data-name="TREE copy 2"><polygon points="7.42 31.57 7.72 32.03 7.72 34.12 6.57 34.12 6.57 32.03 6.83 31.57 6.88 26.77 7.76 25.11 8.68 25.23 9.58 25.78 8.25 26.07 7.36 26.64 7.42 31.57"/><polygon points="16.88 42.59 17.28 43.21 17.28 46.04 15.73 46.04 15.73 43.21 16.08 42.59 16.16 36.09 17.34 33.84 18.59 34 19.82 34.74 18.01 35.13 16.8 35.9 16.88 42.59"/><path class="cls-31" d="M12.71,44c.07,0,.29-.46.29-1.32v-.13h-.18a.77.77,0,0,1-.55-.19,3.52,3.52,0,0,1-1-1.48,3.21,3.21,0,0,1-.26-.73c-.4-1.63.66-2.87,1.69-4.06l.34-.4a4.23,4.23,0,0,0,1,1.8c.7.82,1.31,1.54.48,3.42a3,3,0,0,1-1.44,1.64l-.14,0v.09c0,.85.24,1.33.32,1.33Z"/><path class="cls-32" d="M13,36a4.72,4.72,0,0,0,1,1.62c.71.83,1.27,1.48.46,3.29a2.82,2.82,0,0,1-1.32,1.58L13,42.5v-.07h-.24a.59.59,0,0,1-.46-.19,3.44,3.44,0,0,1-.92-1.42,3.27,3.27,0,0,1-.25-.7c-.38-1.57.66-2.78,1.67-3.95L13,36m0,7a5.82,5.82,0,0,0,.14,1.16h-.27A6.94,6.94,0,0,0,13,43m.11-7.59c-1.11,1.37-2.72,2.79-2.23,4.78a3.53,3.53,0,0,0,.26.75,3.75,3.75,0,0,0,1,1.52c.21.16.29,0,.6,0,0,1.26-.22,1.53-.22,1.53h1s-.25-.29-.25-1.54a2.65,2.65,0,0,0,1.44-1.6c1.42-3.19-1.22-3.11-1.57-5.46Z"/><g id="a4"><path class="cls-33" d="M13.09,42.88l-.46,0c-.83-.06-1-.45-1.39-1.31-.08-.16-.16-.34-.25-.54-1.05-2.19.29-3.75,1.47-5.12l.52-.61.27-.33.06.42a3.64,3.64,0,0,0,1,1.91c.71.84,1.45,1.7.53,3.76-.54,1.22-1,1.66-1.38,1.8A1.15,1.15,0,0,1,13.09,42.88Z"/><path d="M13.12,35.4c.35,2.35,3,2.37,1.57,5.56-.52,1.19-1,1.58-1.29,1.71a1.28,1.28,0,0,1-.31,0l-.43,0c-.87-.06-.89-.46-1.51-1.74-1.14-2.4.72-4,2-5.53m.25-.89-.54.65-.51.61c-1.16,1.34-2.6,3-1.5,5.32.09.2.17.38.25.54.39.87.61,1.35,1.57,1.42l.45,0a1.81,1.81,0,0,0,.39,0h0l0,0A3.54,3.54,0,0,0,15,41.12c1-2.18.18-3.08-.56-4a3.42,3.42,0,0,1-1-1.81l-.12-.84Z"/></g><g id="a4-2" data-name="a4"><path class="cls-34" d="M14.69,41c-.52,1.19-1,1.58-1.29,1.71a3,3,0,0,1-.74,0c-.87-.06-.89-.46-1.51-1.74-1.14-2.4.72-4,2-5.53C13.47,37.75,16.11,37.77,14.69,41Z"/><path class="cls-35" d="M13,36a4.72,4.72,0,0,0,1,1.62c.71.83,1.27,1.48.46,3.29-.49,1.11-.91,1.46-1.13,1.57h-.24l-.41,0c-.57,0-.65-.18-1-1.05l-.26-.55c-.92-1.93.27-3.31,1.42-4.65L13,36m.13-.55c-1.25,1.54-3.11,3.13-2,5.53.62,1.28.64,1.68,1.51,1.74l.43,0a1.28,1.28,0,0,0,.31,0c.29-.13.77-.52,1.29-1.71,1.42-3.19-1.22-3.21-1.57-5.56Z"/></g><path class="cls-31" d="M8.75,39c.06,0,.25-.44.25-1.21v-.12H8.83a.69.69,0,0,1-.5-.18,3.12,3.12,0,0,1-.89-1.34,2.85,2.85,0,0,1-.24-.65c-.36-1.49.6-2.6,1.53-3.68l.3-.36a3.87,3.87,0,0,0,1,1.62,2.41,2.41,0,0,1,.44,3.11,2.67,2.67,0,0,1-1.3,1.48L9,37.7v.09c0,.76.2,1.21.27,1.21Z"/><path class="cls-32" d="M9,31.72a4.17,4.17,0,0,0,.9,1.44,2.27,2.27,0,0,1,.42,3,2.63,2.63,0,0,1-1.19,1.42L9,37.6v-.05H8.77c-.2,0-.22,0-.41-.16a3.09,3.09,0,0,1-.82-1.28,2.67,2.67,0,0,1-.23-.63C7,34.05,7.91,33,8.82,31.9L9,31.72m0,6.75a3.6,3.6,0,0,0,.1.64H8.91A5.14,5.14,0,0,0,9,38.47m.1-7.29c-1,1.25-2.47,2.53-2,4.35a3.48,3.48,0,0,0,.24.68,3.39,3.39,0,0,0,.92,1.38c.19.14.27,0,.54,0,0,1.14-.2,1.39-.2,1.39h.87s-.22-.27-.22-1.4a2.47,2.47,0,0,0,1.31-1.45c1.29-2.91-1.11-2.83-1.43-5Z"/><g id="a4-3" data-name="a4"><path class="cls-36" d="M9.07,38H8.66c-.77-.06-.93-.42-1.29-1.2-.06-.15-.14-.31-.23-.49-.95-2,.27-3.43,1.35-4.68L9,31.06l.27-.33.06.42a3.26,3.26,0,0,0,.93,1.73,2.69,2.69,0,0,1,.48,3.43c-.49,1.12-1,1.52-1.27,1.65A1.13,1.13,0,0,1,9.07,38Z"/><path d="M9.1,31.18c.32,2.14,2.72,2.15,1.43,5.06-.48,1.07-.91,1.43-1.17,1.55l-.29,0-.39,0c-.79-.06-.81-.42-1.37-1.58-1-2.18.65-3.63,1.79-5m.25-.9-.54.66c-.14.18-.3.37-.46.55C7.29,32.72,6,34.25,7,36.37c.08.18.16.34.22.49.37.8.57,1.24,1.46,1.3l.41,0a2.11,2.11,0,0,0,.37,0h0l0,0a3.17,3.17,0,0,0,1.36-1.74,2.87,2.87,0,0,0-.51-3.63,3.14,3.14,0,0,1-.89-1.63l-.12-.85Z"/></g><g id="a4-4" data-name="a4"><path class="cls-37" d="M10.53,36.24c-.48,1.07-.91,1.43-1.17,1.55a3.85,3.85,0,0,1-.68,0c-.79-.06-.81-.42-1.37-1.58-1-2.18.65-3.63,1.79-5C9.42,33.32,11.82,33.33,10.53,36.24Z"/><path class="cls-38" d="M9,31.72a4.17,4.17,0,0,0,.9,1.44,2.27,2.27,0,0,1,.42,3,2.76,2.76,0,0,1-1,1.41H9.07l-.37,0c-.52,0-.58-.17-.93-.94-.07-.15-.14-.32-.23-.5-.83-1.75.24-3,1.28-4.2L9,31.72m.12-.54C8,32.58,6.27,34,7.31,36.21c.56,1.16.58,1.52,1.37,1.58l.39,0,.29,0c.26-.12.69-.48,1.17-1.55,1.29-2.91-1.11-2.92-1.43-5.06Z"/></g><path class="cls-31" d="M7.24,49A11.35,11.35,0,0,1,7,47.24v-.12h.11c-.34,0-.31-.07-.56-.25-.42-.29-.66-.8-1.16-1.86a4,4,0,0,1-.3-.91C4.59,42,5.94,40.5,7.22,39l.48-.55A5.06,5.06,0,0,0,9,40.75c.89,1,1.66,1.94.61,4.3C9,46.46,8.37,47,8,47.11l0,0v.08A6.14,6.14,0,0,0,8.07,49Z"/><path class="cls-32" d="M7.65,38.72a5.47,5.47,0,0,0,1.28,2.11c.89,1.05,1.6,1.88.58,4.17-.6,1.36-1.15,1.84-1.51,2v.23A17,17,0,0,0,7.91,49H7.4A2.73,2.73,0,0,0,8,47.24V47H7.55a1.08,1.08,0,0,1-.72-.24A4.24,4.24,0,0,1,5.61,45a3.81,3.81,0,0,1-.34-.88c-.49-2,.81-3.51,2.07-5,.11-.12.21-.24.31-.37m.14-.55c-1.4,1.71-3.39,3.48-2.79,6a4.73,4.73,0,0,0,.33.93A4.66,4.66,0,0,0,6.58,47c.27.19.37.07.76.08a3.93,3.93,0,0,1-.28,2H8.25A3.87,3.87,0,0,1,8,47a3.48,3.48,0,0,0,1.79-2c1.77-4-1.52-3.91-1.95-6.84Z"/><g id="a4-5" data-name="a4"><path class="cls-39" d="M7.75,47.51a3.91,3.91,0,0,1-.58,0c-1-.07-1.26-.56-1.75-1.63-.09-.2-.19-.43-.31-.68-1.31-2.75.36-4.69,1.84-6.4.22-.26.44-.51.64-.76L8,37.57l.08.56A4.51,4.51,0,0,0,9.31,40.5c.89,1,1.81,2.12.66,4.71-.68,1.53-1.32,2.07-1.73,2.25A1.39,1.39,0,0,1,7.75,47.51Z"/><path d="M7.79,38.17c.43,2.93,3.72,2.95,2,6.94-.65,1.47-1.25,2-1.6,2.13l-.39,0-.54,0c-1.09-.08-1.12-.58-1.88-2.18-1.42-3,.89-5,2.46-6.89M8.11,37l-.71.88c-.2.25-.42.5-.64.75-1.45,1.69-3.26,3.78-1.88,6.68l.31.67c.5,1.1.77,1.7,2,1.78a4.14,4.14,0,0,0,.57,0,1.84,1.84,0,0,0,.49,0h0l.05,0a4.42,4.42,0,0,0,1.86-2.38c1.21-2.73.19-3.92-.7-5A4.27,4.27,0,0,1,8.28,38.1L8.11,37Z"/></g><g id="a4-6" data-name="a4"><path class="cls-40" d="M9.74,45.11c-.65,1.47-1.25,2-1.6,2.13a4.81,4.81,0,0,1-.93,0c-1.09-.08-1.12-.58-1.88-2.18-1.42-3,.89-5,2.46-6.89C8.22,41.1,11.51,41.12,9.74,45.11Z"/><path class="cls-41" d="M7.65,38.72a5.47,5.47,0,0,0,1.28,2.11c.89,1.05,1.6,1.88.58,4.17-.62,1.42-1.17,1.86-1.45,2l-.31,0-.52,0c-.77-.06-.88-.31-1.36-1.35L5.56,45c-1.17-2.45.33-4.18,1.77-5.86.11-.12.22-.24.32-.37m.14-.55c-1.57,1.92-3.88,3.9-2.46,6.89.76,1.6.79,2.1,1.88,2.18l.54,0,.39,0c.35-.16.95-.66,1.6-2.13,1.77-4-1.52-4-1.95-6.94Z"/></g></g><g id="Layer_86_copy_2" data-name="Layer 86 copy 2"><g id="arr_plan_blur" data-name="arr plan blur" class="cls-42"><path class="cls-7" d="M49,57.93a9.5,9.5,0,1,1,9.5-9.49A9.5,9.5,0,0,1,49,57.93Z"/><path class="cls-43" d="M49,39.43a9,9,0,1,1-9,9,9,9,0,0,1,9-9m0-1a10,10,0,1,0,10,10,10,10,0,0,0-10-10Z"/></g><path class="cls-44" d="M49,38.43a10,10,0,1,0,10,10A10,10,0,0,0,49,38.43Z"/><path class="cls-45" d="M49,38.43a10,10,0,1,0,10,10A10,10,0,0,0,49,38.43ZM49,56a7.6,7.6,0,1,1,7.6-7.59A7.6,7.6,0,0,1,49,56Z"/><polygon points="45.9 43.62 54.3 48.43 45.9 53.24 45.9 43.62"/></g></svg>