<?xml version="1.0" encoding="utf-8"?>
<!-- Generator: Adobe Illustrator 25.4.1, SVG Export Plug-In . SVG Version: 6.00 Build 0)  -->
<svg version="1.1" id="Calque_1" xmlns="http://www.w3.org/2000/svg" xmlns:xlink="http://www.w3.org/1999/xlink" x="0px" y="0px"
	 viewBox="0 0 64 64" style="enable-background:new 0 0 64 64;" xml:space="preserve">
<style type="text/css">
	.st0{fill-rule:evenodd;clip-rule:evenodd;fill:url(#SVGID_1_);}
	.st1{fill:#003755;}
	.st2{fill-rule:evenodd;clip-rule:evenodd;fill:url(#SVGID_00000170998016447658761760000018237261511791650235_);}
	.st3{fill:#323232;}
	.st4{fill-rule:evenodd;clip-rule:evenodd;fill:url(#SVGID_00000172416628480582057250000011538091426728663944_);}
	.st5{fill-rule:evenodd;clip-rule:evenodd;fill:url(#SVGID_00000047748403384095217670000007912653165536085388_);}
	.st6{fill-rule:evenodd;clip-rule:evenodd;fill:url(#SVGID_00000119807678059092551470000014907667875276975512_);}
	.st7{fill-rule:evenodd;clip-rule:evenodd;fill:url(#SVGID_00000165194849475396735590000017747089279188740746_);}
	.st8{fill:#FFFFFF;}
	.st9{fill:url(#SVGID_00000180362447681914198870000013512989469951543469_);}
	.st10{fill:url(#SVGID_00000061430883013951239340000011287476442857812879_);}
</style>
<g id="Calque_7">
	<g>
		
			<linearGradient id="SVGID_1_" gradientUnits="userSpaceOnUse" x1="17.227" y1="49.9938" x2="36.3754" y2="16.8278" gradientTransform="matrix(1 0 0 -1 0 63.8898)">
			<stop  offset="0" style="stop-color:#8CD7F5"/>
			<stop  offset="1" style="stop-color:#376E8C"/>
		</linearGradient>
		<path class="st0" d="M10.7,18.9c-0.1-0.8,0.4-1.7,1.3-1.9l11.2-2.5c0.1,0,0.2,0,0.2,0c0.4,0,0.8,0.1,1.1,0.3l3.4,2.9
			c0.4,0.4,1.1,0.6,1.7,0.6c0.2,0,0.3,0,0.4,0L40.9,18H41c0.1,0,0.2,0,0.3,0c0.7,0,1.2,0.5,1.3,1.1l6.7,20.5l-34.1,9.7L10.7,18.9z"
			/>
		<path class="st1" d="M23.4,15c0.3,0,0.6,0.1,0.7,0.2l3.4,2.9c0.5,0.4,1.3,0.7,2,0.7c0.2,0,0.3,0,0.5,0l10.8-0.3h0.1H41
			c0.1,0,0.2,0,0.2,0c0.4,0,0.8,0.3,0.8,0.7v0.1v0.1l6.6,19.9l-33,9.4l-4.5-29.8c-0.1-0.6,0.3-1.2,0.9-1.3L23.2,15
			C23.3,15,23.3,15,23.4,15 M23.4,14c-0.1,0-0.2,0-0.4,0l-11.2,2.5c-1.1,0.2-1.8,1.3-1.7,2.4l4.7,30.9l35.1-10L43.1,19
			c-0.2-0.9-0.9-1.6-1.8-1.6c-0.1,0-0.3,0-0.5,0.1l-10.9,0.3c-0.1,0-0.2,0-0.4,0c-0.5,0-1-0.2-1.4-0.5l-3.4-2.9
			C24.4,14.2,23.9,14,23.4,14L23.4,14z"/>
	</g>
</g>
<g id="Calque_10">
	<g>
		
			<linearGradient id="SVGID_00000002379613560849267290000001573070895689492155_" gradientUnits="userSpaceOnUse" x1="21.8915" y1="48.465" x2="37.1012" y2="22.1211" gradientTransform="matrix(1 0 0 -1 0 63.8898)">
			<stop  offset="0" style="stop-color:#FFFFFF"/>
			<stop  offset="1" style="stop-color:#D4D5D3"/>
		</linearGradient>
		<path style="fill-rule:evenodd;clip-rule:evenodd;fill:url(#SVGID_00000002379613560849267290000001573070895689492155_);" d="
			M13.6,20.6c0-0.3,0.1-0.5,0.4-0.6l28-6.5h0.1c0.2,0,0.5,0.2,0.5,0.4l3.8,22.5l-29,8.7L13.6,20.6z"/>
		<path class="st3" d="M42.1,14L42.1,14l3.7,22l-28.1,8.4L14,20.5L42.1,14 M42.1,13c-0.1,0-0.2,0-0.2,0l-28.1,6.5
			c-0.5,0.1-0.8,0.6-0.8,1.1l3.9,25.1l30-9l-3.8-22.9C43,13.3,42.6,13,42.1,13L42.1,13z"/>
	</g>
</g>
<g id="Calque_9">
	<g>
		
			<linearGradient id="SVGID_00000080914327805534616690000012925909115080477063_" gradientUnits="userSpaceOnUse" x1="24.7415" y1="45.8105" x2="37.7472" y2="23.2839" gradientTransform="matrix(1 0 0 -1 0 63.8898)">
			<stop  offset="0" style="stop-color:#FFFFFF"/>
			<stop  offset="1" style="stop-color:#D4D5D3"/>
		</linearGradient>
		<path style="fill-rule:evenodd;clip-rule:evenodd;fill:url(#SVGID_00000080914327805534616690000012925909115080477063_);" d="
			M16.4,23.2c0-0.2,0.2-0.5,0.4-0.5l29.4-7.1h0.1c0.1,0,0.3,0.1,0.4,0.2c0.1,0.1,0.1,0.2,0.1,0.4L43.6,37c0,0.2-0.2,0.3-0.3,0.4
			l-25.9,8.3L16.4,23.2z"/>
		<path class="st3" d="M46.3,16.1L46.3,16.1L43.1,37l-25.3,8l-0.9-21.9L46.3,16.1 M46.3,15.1c-0.1,0-0.2,0-0.2,0l-29.4,7.1
			c-0.5,0.1-0.8,0.5-0.8,1l1,23.2l26.5-8.5c0.4-0.1,0.6-0.4,0.7-0.8l3.2-20.9C47.4,15.6,46.9,15.1,46.3,15.1L46.3,15.1z"/>
	</g>
</g>
<g id="Calque_8">
	<g>
		
			<linearGradient id="SVGID_00000181790518038536154080000017557359170781180570_" gradientUnits="userSpaceOnUse" x1="26.4606" y1="42.6453" x2="38.2398" y2="22.2432" gradientTransform="matrix(1 0 0 -1 0 63.8898)">
			<stop  offset="0" style="stop-color:#FFFFFF"/>
			<stop  offset="1" style="stop-color:#D4D5D3"/>
		</linearGradient>
		<path style="fill-rule:evenodd;clip-rule:evenodd;fill:url(#SVGID_00000181790518038536154080000017557359170781180570_);" d="
			M19.3,25.6c0-0.2,0.2-0.4,0.4-0.4l28.8-7.4h0.1c0.1,0,0.3,0.1,0.4,0.2c0.1,0.1,0.1,0.2,0.1,0.4l-3.6,19.2l-29,8.7L19.3,25.6z"/>
		<path class="st3" d="M48.6,18.3L45,37.1l-27.9,8.4l2.7-19.8L48.6,18.3 M48.6,17.3c-0.1,0-0.2,0-0.3,0l-28.8,7.4
			c-0.4,0.1-0.7,0.4-0.7,0.8l-2.9,21.3l30-9l3.7-19.5C49.7,17.8,49.2,17.3,48.6,17.3L48.6,17.3z"/>
	</g>
</g>
<g id="Calque_6">
	<g>
		
			<linearGradient id="SVGID_00000178901686876485807610000014281036677338844824_" gradientUnits="userSpaceOnUse" x1="30.1748" y1="38.1302" x2="41.047" y2="19.2991" gradientTransform="matrix(1 0 0 -1 0 63.8898)">
			<stop  offset="0" style="stop-color:#82BEDC"/>
			<stop  offset="1" style="stop-color:#285A78"/>
		</linearGradient>
		<path style="fill-rule:evenodd;clip-rule:evenodd;fill:url(#SVGID_00000178901686876485807610000014281036677338844824_);" d="
			M19,33.3c0.2-0.9,1-1.8,1.9-2.1l10.7-2.7c0.6-0.2,1.5-0.6,1.9-1.1l2.9-2.9c0.3-0.3,1-0.7,1.4-0.8l15.8-3.9c0.1,0,0.2,0,0.3,0
			s0.3,0,0.5,0.2c0.1,0.2,0.1,0.4,0.1,0.7L50,39.4l-33.9,9.7L19,33.3z"/>
		<path class="st1" d="M54,20.2L54,20.2L54,20.2c0.1,0,0.1,0.1,0,0.3L49.6,39l-32.9,9.4l2.7-15c0.1-0.7,0.9-1.5,1.6-1.7L31.7,29
			c0.7-0.2,1.6-0.7,2.1-1.2l2.9-2.9c0.3-0.3,0.9-0.6,1.2-0.7l15.8-3.9C53.8,20.2,53.9,20.2,54,20.2 M54,19.2c-0.1,0-0.3,0-0.5,0.1
			l-15.8,3.9c-0.5,0.1-1.3,0.6-1.7,0.9L33.1,27c-0.4,0.4-1.1,0.8-1.7,0.9l-10.7,2.7c-1.1,0.3-2.1,1.4-2.3,2.5l-3,16.6l35-10l4.6-19
			C55.2,19.8,54.8,19.2,54,19.2L54,19.2z"/>
	</g>
</g>
<g id="Calque_11">
	<g>
		
			<linearGradient id="SVGID_00000054988322555697382620000002148879542395205563_" gradientUnits="userSpaceOnUse" x1="34.587" y1="44.6354" x2="38.8128" y2="37.3162" gradientTransform="matrix(0.9853 3.999933e-02 2.582847e-02 -1.0138 -14.2432 79.2764)">
			<stop  offset="0" style="stop-color:#FFFFFF"/>
			<stop  offset="1" style="stop-color:#D4D5D3"/>
		</linearGradient>
		<path style="fill-rule:evenodd;clip-rule:evenodd;fill:url(#SVGID_00000054988322555697382620000002148879542395205563_);" d="
			M21.2,44.5c-0.1,0-0.3-0.1-0.4-0.2c-0.1-0.1-0.2-0.2-0.1-0.4l1.6-8.9c0-0.2,0.2-0.3,0.3-0.4l2.1-0.6h0.1c0.1,0,0.3,0.1,0.4,0.2
			c0.1,0.1,0.2,0.2,0.1,0.4l-1.6,8.9c0,0.2-0.2,0.3-0.3,0.4l-2.1,0.6C21.3,44.4,21.2,44.5,21.2,44.5z"/>
		<path class="st3" d="M24.9,34.4L24.9,34.4l-1.6,8.9l-2.1,0.6l1.6-8.9L24.9,34.4 M24.9,33.4c-0.1,0-0.2,0-0.3,0L22.5,34
			c-0.4,0.1-0.6,0.4-0.7,0.8l-1.6,8.9c-0.1,0.6,0.4,1.2,1,1.2c0.1,0,0.2,0,0.3,0l2.1-0.6c0.4-0.1,0.6-0.4,0.7-0.8l1.6-8.9
			C26,34,25.5,33.4,24.9,33.4L24.9,33.4z"/>
	</g>
</g>
<g id="Calque_5">
	<g>
		<g>
			<path class="st8" d="M45,59.5c-0.8,0-1.5-0.7-1.5-1.5v-9.5H40c-0.8,0-1.5-0.7-1.5-1.5v-0.6c0-0.4,0.2-0.8,0.4-1.1l6.1-6.1
				c0.5-0.5,1.1-0.7,1.8-0.7h1.3c0.7,0,1.3,0.3,1.8,0.7l6.1,6.1c0.3,0.3,0.4,0.7,0.4,1.1V47c0,0.8-0.7,1.5-1.5,1.5h-3.5V58
				c0,0.8-0.7,1.5-1.5,1.5H45z"/>
			<path class="st8" d="M48.2,39c0.5,0,1,0.2,1.4,0.6l6.1,6.1c0.2,0.2,0.3,0.4,0.3,0.7V47c0,0.6-0.4,1-1,1h-4v10c0,0.6-0.4,1-1,1h-5
				c-0.6,0-1-0.4-1-1V48h-4c-0.6,0-1-0.4-1-1v-0.6c0-0.3,0.1-0.5,0.3-0.7l6.1-6.1c0.4-0.4,0.9-0.6,1.4-0.6L48.2,39 M48.2,38h-1.3
				c-0.8,0-1.6,0.3-2.1,0.9L38.6,45c-0.4,0.4-0.6,0.9-0.6,1.4V47c0,1.1,0.9,2,2,2h3v9c0,1.1,0.9,2,2,2h5c1.1,0,2-0.9,2-2v-9h3
				c1.1,0,2-0.9,2-2v-0.6c0-0.5-0.2-1-0.6-1.4l-6.1-6.1C49.7,38.3,49,38,48.2,38L48.2,38z"/>
		</g>
		<g>
			<path class="st8" d="M55,41.5c-0.8,0-1.5-0.7-1.5-1.5v-2.5h-12V40c0,0.8-0.7,1.5-1.5,1.5h-2c-0.8,0-1.5-0.7-1.5-1.5v-6
				c0-0.8,0.7-1.5,1.5-1.5h19c0.8,0,1.5,0.7,1.5,1.5v6c0,0.8-0.7,1.5-1.5,1.5H55z"/>
			<path class="st8" d="M57,33c0.6,0,1,0.4,1,1v1v2v3c0,0.6-0.4,1-1,1h-2c-0.6,0-1-0.4-1-1v-3H41v3c0,0.6-0.4,1-1,1h-2
				c-0.6,0-1-0.4-1-1v-3v-2v-1c0-0.6,0.4-1,1-1H57 M57,32H38c-1.1,0-2,0.9-2,2v1v2v3c0,1.1,0.9,2,2,2h2c1.1,0,2-0.9,2-2v-2h11v2
				c0,1.1,0.9,2,2,2h2c1.1,0,2-0.9,2-2v-3v-2v-1C59,32.9,58.1,32,57,32L57,32z"/>
		</g>
	</g>
	<g>
		<g>
			
				<linearGradient id="SVGID_00000129885627588138129590000006034524778633225091_" gradientUnits="userSpaceOnUse" x1="40.0551" y1="28.8765" x2="52.1744" y2="7.8855" gradientTransform="matrix(1 0 0 -1 0 63.8898)">
				<stop  offset="0" style="stop-color:#8CD7F5"/>
				<stop  offset="1" style="stop-color:#376E8C"/>
			</linearGradient>
			<path style="fill:url(#SVGID_00000129885627588138129590000006034524778633225091_);" d="M45,58.5c-0.3,0-0.5-0.2-0.5-0.5V47.5
				H40c-0.3,0-0.5-0.2-0.5-0.5v-0.6c0-0.1,0.1-0.3,0.1-0.4l6.1-6.1c0.3-0.3,0.7-0.4,1.1-0.4h1.3c0.4,0,0.8,0.2,1.1,0.4l6.1,6.1
				c0.1,0.1,0.1,0.2,0.1,0.4V47c0,0.3-0.2,0.5-0.5,0.5h-4.5V58c0,0.3-0.2,0.5-0.5,0.5H45z"/>
			<path class="st1" d="M48.2,40c0.3,0,0.5,0.1,0.7,0.3l6.1,6.1V47h-4h-1v1v10h-5V48v-1h-1h-4v-0.6l6.1-6.1c0.2-0.2,0.4-0.3,0.7-0.3
				L48.2,40 M48.2,39h-1.3c-0.5,0-1,0.2-1.4,0.6l-6.1,6.1c-0.2,0.2-0.3,0.4-0.3,0.7V47c0,0.6,0.4,1,1,1h4v10c0,0.6,0.4,1,1,1h5
				c0.6,0,1-0.4,1-1V48h4c0.6,0,1-0.4,1-1v-0.6c0-0.3-0.1-0.5-0.3-0.7l-6.1-6.1C49.2,39.2,48.7,39,48.2,39L48.2,39z"/>
		</g>
		<g>
			
				<linearGradient id="SVGID_00000139291707508283537980000017239015770969310337_" gradientUnits="userSpaceOnUse" x1="44.2787" y1="32.4694" x2="57.724" y2="9.1814" gradientTransform="matrix(1 0 0 -1 0 63.8898)">
				<stop  offset="0" style="stop-color:#8CD7F5"/>
				<stop  offset="1" style="stop-color:#376E8C"/>
			</linearGradient>
			<path style="fill:url(#SVGID_00000139291707508283537980000017239015770969310337_);" d="M55,40.5c-0.3,0-0.5-0.2-0.5-0.5v-3.5
				h-14V40c0,0.3-0.2,0.5-0.5,0.5h-2c-0.3,0-0.5-0.2-0.5-0.5v-6c0-0.3,0.2-0.5,0.5-0.5h19c0.3,0,0.5,0.2,0.5,0.5v6
				c0,0.3-0.2,0.5-0.5,0.5H55z"/>
			<path class="st1" d="M57,34v1v2v3h-2v-3v-1h-1H41h-1v1v3h-2v-3v-2v-1H57 M57,33H38c-0.6,0-1,0.4-1,1v1v2v3c0,0.6,0.4,1,1,1h2
				c0.6,0,1-0.4,1-1v-3h13v3c0,0.6,0.4,1,1,1h2c0.6,0,1-0.4,1-1v-3v-2v-1C58,33.4,57.6,33,57,33L57,33z"/>
		</g>
	</g>
</g>
</svg>
