<svg id="Layer_3" data-name="Layer 3" xmlns="http://www.w3.org/2000/svg" xmlns:xlink="http://www.w3.org/1999/xlink" viewBox="0 0 64 64"><defs><linearGradient id="linear-gradient" x1="19.77" y1="13.98" x2="41.52" y2="51.65" gradientUnits="userSpaceOnUse"><stop offset="0" stop-color="#fff"/><stop offset="1" stop-color="#d4d5d3"/></linearGradient><linearGradient id="linear-gradient-2" x1="23.14" y1="19.73" x2="41.55" y2="51.63" gradientUnits="userSpaceOnUse"><stop offset="0" stop-color="#fff"/><stop offset="1" stop-color="#d2d2d2"/></linearGradient><linearGradient id="linear-gradient-3" x1="25.58" y1="-276.74" x2="38.63" y2="-299.33" gradientTransform="matrix(1, -0.35, 0, -1, 0, -255.83)" gradientUnits="userSpaceOnUse"><stop offset="0" stop-color="#8cd7f5"/><stop offset="1" stop-color="#376e8c"/></linearGradient><clipPath id="clip-path"><polygon points="23.85 47.57 27.06 28.97 30.02 29.4 26.81 48 23.85 47.57" fill="none"/></clipPath><linearGradient id="linear-gradient-4" x1="49.73" y1="18.27" x2="50.66" y2="18.27" gradientTransform="translate(-127.05 -46.94) rotate(9) scale(3.3)" gradientUnits="userSpaceOnUse"><stop offset="0" stop-color="#c9c6c5"/><stop offset="0.18" stop-color="#c9c6c5"/><stop offset="0.32" stop-color="#fafafb"/><stop offset="0.6" stop-color="#d0cecd"/><stop offset="0.8" stop-color="#e5e4e5"/><stop offset="0.96" stop-color="#aca5a4"/><stop offset="1" stop-color="#aca5a4"/></linearGradient><clipPath id="clip-path-2"><rect x="23.34" y="25.94" width="9.68" height="22.53" fill="none"/></clipPath><clipPath id="clip-path-3"><path d="M24.87,28.75l7.67,1.13a3.44,3.44,0,0,0-3.33-3.49q-.37,0-.75,0a3.41,3.41,0,0,0-3.59,2.41" fill="none"/></clipPath><linearGradient id="linear-gradient-5" x1="58.59" y1="21.25" x2="59.49" y2="21.25" gradientTransform="translate(-43.66 -375.85) rotate(60) scale(6.55)" xlink:href="#linear-gradient-4"/><clipPath id="clip-path-5"><polygon points="33.87 45.8 36.93 28.09 39.75 28.5 36.69 46.21 33.87 45.8" fill="none"/></clipPath><linearGradient id="linear-gradient-6" x1="52.64" y1="17.4" x2="53.52" y2="17.4" xlink:href="#linear-gradient-4"/><clipPath id="clip-path-6"><rect x="33.39" y="25.2" width="9.21" height="21.46" fill="none"/></clipPath><clipPath id="clip-path-7"><path d="M34.84,27.88,42.15,29A3.28,3.28,0,0,0,39,25.63h-.71a3.26,3.26,0,0,0-3.42,2.3" fill="none"/></clipPath><linearGradient id="linear-gradient-7" x1="59.24" y1="19.89" x2="60.1" y2="19.89" gradientTransform="translate(-43.66 -375.85) rotate(60) scale(6.55)" xlink:href="#linear-gradient-4"/><linearGradient id="linear-gradient-8" x1="38.66" y1="29.59" x2="50.09" y2="9.79" gradientTransform="matrix(1, 0, 0, -1, 0, 66)" xlink:href="#linear-gradient-3"/><linearGradient id="linear-gradient-9" x1="44.38" y1="14.69" x2="44.38" y2="23.92" gradientTransform="matrix(1, 0, 0, -1, 0, 66)" gradientUnits="userSpaceOnUse"><stop offset="0" stop-color="#fff"/><stop offset="1"/></linearGradient></defs><path d="M49.11,16.06a1.53,1.53,0,0,0-.39-.72h0l-.08-.07-2.94-2.78h0A1.44,1.44,0,0,0,44.27,12L14,17.47a2.28,2.28,0,0,0-1.82,2.18V49.19a1.71,1.71,0,0,0,0,.39,1.52,1.52,0,0,0,.5.81h0l2.86,2.68a1.42,1.42,0,0,0,.31.29h0a1.51,1.51,0,0,0,1.16.22l30.3-5.43A2.31,2.31,0,0,0,49.15,46V16.44A1.69,1.69,0,0,0,49.11,16.06Z" stroke="#323232" stroke-linejoin="round" fill="url(#linear-gradient)"/><path d="M47.32,48.16,17,53.59a1.49,1.49,0,0,1-1.78-1.13,1.29,1.29,0,0,1,0-.39V24.32l34-6.09V46A2.31,2.31,0,0,1,47.32,48.16Z" stroke="#787878" stroke-linejoin="round" fill="url(#linear-gradient-2)"/><line x1="12.56" y1="18.4" x2="15.58" y2="21.32" fill="none" stroke="#787878" stroke-linejoin="round"/><path d="M49.11,16.06a1.53,1.53,0,0,0-.39-.72h0l-.08-.07-2.94-2.78h0A1.44,1.44,0,0,0,44.27,12L14,17.47a2.28,2.28,0,0,0-1.82,2.18V49.19a1.71,1.71,0,0,0,0,.39,1.52,1.52,0,0,0,.5.81h0l2.86,2.68a1.42,1.42,0,0,0,.31.29h0a1.51,1.51,0,0,0,1.16.22l30.3-5.43A2.31,2.31,0,0,0,49.15,46V16.44A1.69,1.69,0,0,0,49.11,16.06Z" fill="none" stroke="#323232" stroke-linejoin="round"/><path d="M49.15,20.14,15.2,26.23v-3.7A2.32,2.32,0,0,1,17,20.34l30.3-5.42a1.49,1.49,0,0,1,1.79,1.14,1.69,1.69,0,0,1,0,.38Z" stroke="#003755" stroke-linejoin="round" fill="url(#linear-gradient-3)"/><g clip-path="url(#clip-path)"><polygon points="20.65 47.53 24 28.1 33.23 29.44 29.87 48.87 20.65 47.53" fill="url(#linear-gradient-4)"/></g><g clip-path="url(#clip-path-2)"><polygon points="23.86 47.56 27.07 28.96 30.03 29.39 26.82 47.99 23.86 47.56" fill="none" stroke="#3a3634" stroke-linejoin="round" stroke-width="1.02"/></g><g clip-path="url(#clip-path-3)"><polygon points="23.21 27.23 30.83 23.19 34.48 28.99 26.86 33.03 23.21 27.23" fill="url(#linear-gradient-5)"/></g><g clip-path="url(#clip-path-2)"><path d="M29.21,26.39a3.64,3.64,0,0,0-4.34,2.36l7.67,1.13A3.44,3.44,0,0,0,29.21,26.39Z" fill="none" stroke="#3a3634" stroke-linejoin="round" stroke-width="0.88"/></g><g clip-path="url(#clip-path-5)"><polygon points="30.82 45.77 34.02 27.26 42.8 28.53 39.61 47.04 30.82 45.77" fill="url(#linear-gradient-6)"/></g><g clip-path="url(#clip-path-6)"><polygon points="33.88 45.79 36.94 28.08 39.75 28.48 36.7 46.2 33.88 45.79" fill="none" stroke="#3a3634" stroke-linejoin="round" stroke-width="1.02"/></g><g clip-path="url(#clip-path-7)"><polygon points="33.27 26.43 40.52 22.58 44 28.11 36.74 31.95 33.27 26.43" fill="url(#linear-gradient-7)"/></g><g clip-path="url(#clip-path-6)"><path d="M39,25.63a3.47,3.47,0,0,0-4.13,2.25L42.15,29A3.28,3.28,0,0,0,39,25.63Z" fill="none" stroke="#3a3634" stroke-linejoin="round" stroke-width="0.88"/></g><path d="M52.22,50.56a2.36,2.36,0,0,0,.17.87,2.25,2.25,0,0,0,.51.77l.8.8a11.11,11.11,0,0,1-2.64,2.66l-.8-.8a2.06,2.06,0,0,0-.78-.52,2.27,2.27,0,0,0-.86-.17,2.43,2.43,0,0,0-.89.17,2.19,2.19,0,0,0-.75.48,2.62,2.62,0,0,0-.53.75,2.38,2.38,0,0,0-.2,1v1.13c-.31.05-.62.08-.93.11a8.44,8.44,0,0,1-1.88,0c-.31,0-.62-.06-.94-.11V56.52a2.24,2.24,0,0,0-.19-1,2.62,2.62,0,0,0-.53-.75,2.33,2.33,0,0,0-.76-.48,2.41,2.41,0,0,0-.88-.16,2.17,2.17,0,0,0-.87.16,2.23,2.23,0,0,0-.77.52l-.8.8A11.49,11.49,0,0,1,35.05,53l.8-.8a2.27,2.27,0,0,0,.52-.78,2.35,2.35,0,0,0,.16-.87,2.41,2.41,0,0,0-.16-.88,2.33,2.33,0,0,0-.48-.76,2.62,2.62,0,0,0-.75-.53,2.38,2.38,0,0,0-1-.2H33.06c0-.31-.08-.63-.11-.94a8.44,8.44,0,0,1,0-1.88c0-.31.07-.62.11-.93h1.13a2.42,2.42,0,0,0,1-.2,2.45,2.45,0,0,0,.74-.53,2.14,2.14,0,0,0,.48-.75,2.36,2.36,0,0,0,0-1.76,2.16,2.16,0,0,0-.51-.78l-.8-.8A11.3,11.3,0,0,1,37.7,37l.8.8a2.28,2.28,0,0,0,.77.52,2.35,2.35,0,0,0,.87.16,2.58,2.58,0,0,0,.87-.16,2.27,2.27,0,0,0,.77-.48,2.91,2.91,0,0,0,.52-.74,2.17,2.17,0,0,0,.2-1V35c.31,0,.63-.09.94-.12a9.74,9.74,0,0,1,1.87,0c.31,0,.63.07.94.12V36.1a2.32,2.32,0,0,0,1.48,2.19,2.42,2.42,0,0,0,.89.16,2.45,2.45,0,0,0,.85-.15,2.17,2.17,0,0,0,.79-.5l.79-.82a10.93,10.93,0,0,1,2.65,2.65l-.8.8a2.21,2.21,0,0,0-.51.77,2.36,2.36,0,0,0-.17.87,2.43,2.43,0,0,0,.17.89,2.19,2.19,0,0,0,.48.75,2.45,2.45,0,0,0,.74.53,2.1,2.1,0,0,0,1,.2h1.12c.05.32.09.63.12.94s0,.63,0,.94,0,.63,0,.94-.07.62-.12.94H54.57a2.12,2.12,0,0,0-1,.2,2.6,2.6,0,0,0-.74.52,2.27,2.27,0,0,0-.48.77A2.59,2.59,0,0,0,52.22,50.56Zm-7.84-.75a3.14,3.14,0,0,0,1.35-.28A3.5,3.5,0,0,0,47.59,45a3.52,3.52,0,0,0-1.86-1.86,3.45,3.45,0,0,0-2.71,0A3.56,3.56,0,0,0,41.16,45,3.5,3.5,0,0,0,43,49.53,3.19,3.19,0,0,0,44.38,49.81Z" fill="#fff" stroke="#fff" stroke-linejoin="round" stroke-width="3" opacity="0.5" style="isolation:isolate"/><path d="M52.22,50.56a2.36,2.36,0,0,0,.17.87,2.25,2.25,0,0,0,.51.77l.8.8a11.11,11.11,0,0,1-2.64,2.66l-.8-.8a2.06,2.06,0,0,0-.78-.52,2.27,2.27,0,0,0-.86-.17,2.43,2.43,0,0,0-.89.17,2.19,2.19,0,0,0-.75.48,2.62,2.62,0,0,0-.53.75,2.38,2.38,0,0,0-.2,1v1.13c-.31.05-.62.08-.93.11a8.44,8.44,0,0,1-1.88,0c-.31,0-.62-.06-.94-.11V56.52a2.24,2.24,0,0,0-.19-1,2.62,2.62,0,0,0-.53-.75,2.33,2.33,0,0,0-.76-.48,2.41,2.41,0,0,0-.88-.16,2.17,2.17,0,0,0-.87.16,2.23,2.23,0,0,0-.77.52l-.8.8A11.49,11.49,0,0,1,35.05,53l.8-.8a2.27,2.27,0,0,0,.52-.78,2.35,2.35,0,0,0,.16-.87,2.41,2.41,0,0,0-.16-.88,2.33,2.33,0,0,0-.48-.76,2.62,2.62,0,0,0-.75-.53,2.38,2.38,0,0,0-1-.2H33.06c0-.31-.08-.63-.11-.94a8.44,8.44,0,0,1,0-1.88c0-.31.07-.62.11-.93h1.13a2.42,2.42,0,0,0,1-.2,2.45,2.45,0,0,0,.74-.53,2.14,2.14,0,0,0,.48-.75,2.36,2.36,0,0,0,0-1.76,2.16,2.16,0,0,0-.51-.78l-.8-.8A11.3,11.3,0,0,1,37.7,37l.8.8a2.28,2.28,0,0,0,.77.52,2.35,2.35,0,0,0,.87.16,2.58,2.58,0,0,0,.87-.16,2.27,2.27,0,0,0,.77-.48,2.91,2.91,0,0,0,.52-.74,2.17,2.17,0,0,0,.2-1V35c.31,0,.63-.09.94-.12a9.74,9.74,0,0,1,1.87,0c.31,0,.63.07.94.12V36.1a2.32,2.32,0,0,0,1.48,2.19,2.42,2.42,0,0,0,.89.16,2.45,2.45,0,0,0,.85-.15,2.17,2.17,0,0,0,.79-.5l.79-.82a10.93,10.93,0,0,1,2.65,2.65l-.8.8a2.21,2.21,0,0,0-.51.77,2.36,2.36,0,0,0-.17.87,2.43,2.43,0,0,0,.17.89,2.19,2.19,0,0,0,.48.75,2.45,2.45,0,0,0,.74.53,2.1,2.1,0,0,0,1,.2h1.12c.05.32.09.63.12.94s0,.63,0,.94,0,.63,0,.94-.07.62-.12.94H54.57a2.12,2.12,0,0,0-1,.2,2.6,2.6,0,0,0-.74.52,2.27,2.27,0,0,0-.48.77A2.59,2.59,0,0,0,52.22,50.56Zm-7.84-.75a3.14,3.14,0,0,0,1.35-.28A3.5,3.5,0,0,0,47.59,45a3.52,3.52,0,0,0-1.86-1.86,3.45,3.45,0,0,0-2.71,0A3.56,3.56,0,0,0,41.16,45,3.5,3.5,0,0,0,43,49.53,3.19,3.19,0,0,0,44.38,49.81Z" stroke="#003755" stroke-linejoin="round" fill="url(#linear-gradient-8)"/><g opacity="0.2"><path d="M36.83,41a2.73,2.73,0,0,1,.15.56A2.78,2.78,0,0,0,36.83,40a2.6,2.6,0,0,0-.63-.94l0,0c-.16.18-.33.35-.47.53l.49.5A2.6,2.6,0,0,1,36.83,41Z"/><path d="M51.93,40a2.72,2.72,0,0,0-.2,1.05,2.78,2.78,0,0,0,0,.51,3.58,3.58,0,0,1,.16-.56,2.8,2.8,0,0,1,.62-.94l.5-.49c-.15-.19-.32-.36-.47-.54l0,0A2.8,2.8,0,0,0,51.93,40Z"/><path d="M55.31,46.2c0,.17,0,.33-.05.49h-.69a2.81,2.81,0,0,0-1.18.25,2.9,2.9,0,0,0-.88.63,2.77,2.77,0,0,0-.59.93,3.21,3.21,0,0,0-.2,1.06,2.73,2.73,0,0,0,.05.5,2.64,2.64,0,0,1,.15-.55,2.72,2.72,0,0,1,.59-.94,3.08,3.08,0,0,1,.88-.63,2.81,2.81,0,0,1,1.18-.25h.69c0-.16,0-.32.05-.48s0-.6,0-.89,0-.34,0-.5A2.48,2.48,0,0,1,55.31,46.2Z"/><path d="M36.83,49.5a2.73,2.73,0,0,1,.15.56,2.83,2.83,0,0,0,.05-.5,3,3,0,0,0-.2-1.06,2.68,2.68,0,0,0-.59-.93,2.89,2.89,0,0,0-.9-.64,2.67,2.67,0,0,0-1.15-.24H33.5l-.06-.49c0-.13,0-.26,0-.39,0,.17,0,.33,0,.5a8.83,8.83,0,0,0,0,.89l.06.49h.69a2.67,2.67,0,0,1,1.15.24,2.89,2.89,0,0,1,.9.64A2.77,2.77,0,0,1,36.83,49.5Z"/><path d="M51.1,54l-.49-.5a2.8,2.8,0,0,0-.94-.62,2.88,2.88,0,0,0-2.12,0,2.76,2.76,0,0,0-.92.58,3,3,0,0,0-.63.9,2.75,2.75,0,0,0-.25,1.16v.69l-.49.06a8.73,8.73,0,0,1-1.77,0L43,56.21v-.69a2.74,2.74,0,0,0-.24-1.16,3.15,3.15,0,0,0-.64-.9,2.71,2.71,0,0,0-.93-.58,2.82,2.82,0,0,0-2.1,0,2.63,2.63,0,0,0-1,.63l-.49.49a10.89,10.89,0,0,1-1.47-1.41l-.47.46a10.54,10.54,0,0,0,1.94,2l.49-.49a2.63,2.63,0,0,1,1-.63,2.82,2.82,0,0,1,2.1,0,2.71,2.71,0,0,1,.93.58,3.15,3.15,0,0,1,.64.9A2.74,2.74,0,0,1,43,56.52v.69l.49.06a8.73,8.73,0,0,0,1.77,0l.49-.06v-.69A2.75,2.75,0,0,1,46,55.36a3.11,3.11,0,0,1,.63-.9,2.76,2.76,0,0,1,.92-.58,2.88,2.88,0,0,1,2.12,0,2.68,2.68,0,0,1,.94.63l.49.49a10.54,10.54,0,0,0,1.94-2l-.46-.46A11.63,11.63,0,0,1,51.1,54Z"/></g><g opacity="0.3"><path d="M51.92,43.13a2.56,2.56,0,0,1-.15-.56,2.81,2.81,0,0,0,0,.5,2.6,2.6,0,0,0,.2,1.06,2.65,2.65,0,0,0,.58.93,3.08,3.08,0,0,0,.88.63,2.81,2.81,0,0,0,1.18.25h.69c0,.16,0,.32.05.48a2.55,2.55,0,0,1,0,.39c0-.16,0-.33,0-.5a8.65,8.65,0,0,0,0-.88c0-.17,0-.33-.05-.49h-.69a2.81,2.81,0,0,1-1.18-.25,3.08,3.08,0,0,1-.88-.63A2.68,2.68,0,0,1,51.92,43.13Z" fill="#fff"/><path d="M37.65,38.63l.49.49a2.63,2.63,0,0,0,1,.63,2.92,2.92,0,0,0,2.1,0,2.59,2.59,0,0,0,.93-.59,2.93,2.93,0,0,0,.64-.88A2.8,2.8,0,0,0,43,37.1v-.69l.49,0a8.82,8.82,0,0,1,1.78,0l.48,0v.69a2.82,2.82,0,0,0,1.8,2.65,3,3,0,0,0,2.09,0,2.54,2.54,0,0,0,1-.63l.49-.51A10.33,10.33,0,0,1,52.58,40l.47-.47a10.8,10.8,0,0,0-1.94-1.94l-.49.51a2.54,2.54,0,0,1-1,.63,3,3,0,0,1-2.09,0,2.82,2.82,0,0,1-1.8-2.65v-.69l-.48,0a8.82,8.82,0,0,0-1.78,0l-.49,0v.69a2.8,2.8,0,0,1-.24,1.18,3.1,3.1,0,0,1-.64.89,2.71,2.71,0,0,1-.93.58,2.82,2.82,0,0,1-2.1,0,2.74,2.74,0,0,1-1-.62l-.49-.5a10.85,10.85,0,0,0-1.94,1.95l.47.47A10.38,10.38,0,0,1,37.65,38.63Z" fill="#fff"/><path d="M51.92,51.61a3.44,3.44,0,0,1-.15-.55,2.81,2.81,0,0,0,0,.5,2.69,2.69,0,0,0,.2,1,2.74,2.74,0,0,0,.62,1l0,0c.15-.17.32-.34.47-.53l-.5-.49A2.77,2.77,0,0,1,51.92,51.61Z" fill="#fff"/><path d="M36.83,52.61a2.88,2.88,0,0,0,.2-1,2.92,2.92,0,0,0-.05-.5,2.73,2.73,0,0,1-.15.56,2.68,2.68,0,0,1-.63.94l-.49.5c.14.18.31.35.47.53l0,0A2.63,2.63,0,0,0,36.83,52.61Z" fill="#fff"/><path d="M33.44,46.42l.06-.48h.69a2.68,2.68,0,0,0,1.15-.25,2.86,2.86,0,0,0,.9-.63,2.89,2.89,0,0,0,.59-.92,3,3,0,0,0,.2-1.07,4.23,4.23,0,0,0-.05-.5,2.65,2.65,0,0,1-.15.57,2.89,2.89,0,0,1-.59.92,2.86,2.86,0,0,1-.9.63,2.68,2.68,0,0,1-1.15.25H33.5l-.06.48c0,.3,0,.6,0,.89s0,.34,0,.5C33.43,46.68,33.43,46.55,33.44,46.42Z" fill="#fff"/></g><path d="M44.38,41.31a5,5,0,1,0,5,5A5,5,0,0,0,44.38,41.31Zm0,9a4,4,0,1,1,4-4A4,4,0,0,1,44.38,50.31Z" opacity="0.3" fill="url(#linear-gradient-9)" style="isolation:isolate"/></svg>