<?xml version="1.0" encoding="utf-8"?>
<!-- Generator: Adobe Illustrator 25.4.1, SVG Export Plug-In . SVG Version: 6.00 Build 0)  -->
<svg version="1.1" id="Calque_1" xmlns="http://www.w3.org/2000/svg" xmlns:xlink="http://www.w3.org/1999/xlink" x="0px" y="0px"
	 viewBox="0 0 64 64" style="enable-background:new 0 0 64 64;" xml:space="preserve">
<style type="text/css">
	.st0{opacity:0.25;fill-rule:evenodd;clip-rule:evenodd;fill:#797979;}
	.st1{fill-rule:evenodd;clip-rule:evenodd;fill:url(#SVGID_1_);}
	.st2{fill:#323232;}
	.st3{fill-rule:evenodd;clip-rule:evenodd;fill:url(#SVGID_00000126321776179996360950000011858710815837998502_);}
	.st4{fill:url(#SVGID_00000023269033077279402570000016057993274604390840_);}
	.st5{fill:url(#SVGID_00000107551748829605825940000014460153820518141862_);}
	.st6{fill:#797979;}
	.st7{fill:none;stroke:#797979;stroke-width:0.5;stroke-linecap:round;stroke-miterlimit:10;}
	.st8{fill:url(#SVGID_00000039128438712431607050000010546189484173779608_);}
	.st9{fill:url(#SVGID_00000024694529207706151170000001443346373728040891_);}
	.st10{opacity:0.5;fill:url(#SVGID_00000079483050761414867120000011841014999945711792_);}
	.st11{fill:url(#SVGID_00000042715675397235057180000015049198918451068052_);}
	.st12{fill:url(#SVGID_00000178189155496570968640000012994370687371546499_);}
</style>
<g id="Calque_13">
	<path class="st0" d="M60.3,40.5L32.2,53.7c-1.5,0.7-3.3,0.4-4.5-0.8L3.1,28.4C2,27.3,2.5,25.4,4,25l12.6-3.4l2.8-0.8h16l0.8,0.5
		L60.6,37C61.9,37.8,61.8,39.8,60.3,40.5z"/>
	<g>
		<linearGradient id="SVGID_1_" gradientUnits="userSpaceOnUse" x1="21.845" y1="14.294" x2="42.1608" y2="49.482">
			<stop  offset="0" style="stop-color:#FFFFFF"/>
			<stop  offset="1" style="stop-color:#D4D5D3"/>
		</linearGradient>
		<path class="st1" d="M30.5,52.7c-0.9,0-1.8-0.4-2.5-1L3.4,27.1c-0.4-0.4-0.5-0.9-0.4-1.5c0.1-0.5,0.5-0.9,1.1-1.1l15.3-4.1h15.7
			l25.1,16c0.5,0.3,0.7,0.8,0.7,1.4c0,0.6-0.4,1-0.9,1.3L32,52.3C31.5,52.6,31,52.7,30.5,52.7z"/>
		<path class="st2" d="M35.1,21l0.6,0.4L60,36.9c0.3,0.2,0.5,0.5,0.5,0.9c0,0.2-0.1,0.6-0.6,0.8L31.8,51.9c-0.4,0.2-0.8,0.3-1.3,0.3
			c-0.8,0-1.6-0.3-2.1-0.9L3.8,26.7c-0.4-0.4-0.3-0.8-0.3-1c0-0.2,0.2-0.6,0.7-0.7l12.6-3.4l2.7-0.7H35.1 M35.3,20h-16l-2.8,0.8
			L4,24.1c-1.5,0.4-2,2.2-0.9,3.3L27.6,52c0.8,0.8,1.8,1.2,2.8,1.2c0.6,0,1.2-0.1,1.7-0.4l28.2-13.2c1.4-0.7,1.5-2.6,0.2-3.5
			L36.1,20.5L35.3,20L35.3,20z"/>
	</g>
	<g>
		
			<linearGradient id="SVGID_00000096050988901575297930000012545449417969056397_" gradientUnits="userSpaceOnUse" x1="25.3837" y1="17.1825" x2="29.5254" y2="24.3561">
			<stop  offset="0" style="stop-color:#FFFFFF"/>
			<stop  offset="1" style="stop-color:#D4D5D3"/>
		</linearGradient>
		<path style="fill-rule:evenodd;clip-rule:evenodd;fill:url(#SVGID_00000096050988901575297930000012545449417969056397_);" d="
			M26,24.2c-0.5,0-1-0.1-1.4-0.4l-5.2-2.9l0.3-0.3h15.5l0.4,0.3L26.9,24C26.6,24.1,26.3,24.2,26,24.2z"/>
		<path class="st2" d="M33.7,21l-7,2.5c-0.3,0.1-0.5,0.1-0.8,0.1c-0.4,0-0.8-0.1-1.2-0.3L20.7,21H33.7 M35.3,20h-16l-0.8,1l5.6,3.2
			c0.5,0.3,1.1,0.4,1.7,0.4c0.4,0,0.8-0.1,1.1-0.2l9.5-3.5L35.3,20L35.3,20z"/>
	</g>
</g>
<g id="Calque_14">
	<g>
		
			<linearGradient id="SVGID_00000169558397163113927240000017672243176517777573_" gradientUnits="userSpaceOnUse" x1="28.1596" y1="26.8473" x2="38.4434" y2="44.6594" gradientTransform="matrix(0.9077 -0.4195 0.4195 0.9077 -10.934 14.2797)">
			<stop  offset="0" style="stop-color:#CECECE"/>
			<stop  offset="1" style="stop-color:#9C9C9C"/>
		</linearGradient>
		<path style="fill:url(#SVGID_00000169558397163113927240000017672243176517777573_);" d="M44.9,39.5c-0.1,0-0.3,0-0.4-0.1
			l-12.2-3.5c-0.1-0.3-0.2-0.5-0.3-0.8c-0.3-0.7-0.6-1.5-0.3-2c0.1-0.3,0.5-0.5,1-0.6l13,3.7c0.3,0.1,0.5,0.4,0.5,0.7v2.3
			c0,0.2-0.1,0.3-0.3,0.3H44.9z"/>
		<path class="st2" d="M32.6,33l12.9,3.7c0.1,0,0.2,0.1,0.2,0.2V39h-0.7c-0.1,0-0.2,0-0.3,0l-12-3.5c-0.1-0.2-0.1-0.4-0.2-0.6
			c-0.2-0.5-0.5-1.3-0.3-1.5C32.1,33.2,32.3,33.1,32.6,33 M32.6,32c-2.9,0.6-1,3-0.8,4.3l12.5,3.6c0.2,0.1,0.4,0.1,0.6,0.1h0.9
			c0.4,0,0.8-0.3,0.8-0.8v-2.3c0-0.5-0.4-1-0.9-1.2L32.6,32L32.6,32z"/>
	</g>
	<g>
		
			<linearGradient id="SVGID_00000100372713563655293730000008926568542082822024_" gradientUnits="userSpaceOnUse" x1="23.9379" y1="27.0268" x2="35.5807" y2="47.1926">
			<stop  offset="0" style="stop-color:#CECECE"/>
			<stop  offset="1" style="stop-color:#9C9C9C"/>
		</linearGradient>
		<path style="fill:url(#SVGID_00000100372713563655293730000008926568542082822024_);" d="M37,45.5c-0.1,0-0.2,0-0.3-0.1l-7.5-7.5
			l-0.2,0c-0.4,0-0.8,0.1-1.1,0.1c-0.4,0-0.9,0-1.3-0.1c-2.2-0.2-4.1-1-5.5-2.2c-1.3-1.2-2-2.6-1.9-4c0.3-2.6,3.4-4.5,7.2-4.5
			c0.4,0,0.9,0,1.3,0.1c4.4,0.5,7.7,3.3,7.4,6.2c-0.1,0.9-0.6,1.8-1.4,2.6l-0.4,0.4l5.5,5.5c0.2,0.2,0.4,0.6,0.4,0.9v1.9
			c0,0.5-0.4,0.9-0.9,0.9H37z M25.5,29.5c-0.7,0-1.3,0.4-1.3,1c-0.1,0.6,0.5,1.2,1.3,1.3c0.1,0,0.1,0,0.2,0c0.7,0,1.3-0.4,1.3-1
			c0.1-0.6-0.5-1.2-1.3-1.3C25.7,29.5,25.6,29.5,25.5,29.5z"/>
		<path class="st2" d="M26.4,27.7c0.4,0,0.8,0,1.2,0.1c2.1,0.2,3.9,1,5.2,2.1c1.2,1.1,1.8,2.3,1.7,3.5c-0.1,0.8-0.5,1.6-1.2,2.2
			l-0.8,0.7l0.7,0.7l5.1,5.1c0.2,0.2,0.2,0.3,0.2,0.6v1.9c0,0.2-0.2,0.4-0.4,0.4h-1.2l-7.3-7.3l-0.3-0.3l-0.5,0
			c-0.4,0-0.7,0.1-1.1,0.1c-0.4,0-0.8,0-1.2-0.1c-4-0.4-7.2-3-6.9-5.6C19.9,29.4,22.8,27.7,26.4,27.7 M25.7,32.3
			c1,0,1.8-0.6,1.8-1.4c0.1-0.9-0.7-1.7-1.7-1.8c-0.1,0-0.2,0-0.3,0c-1,0-1.8,0.6-1.8,1.4c-0.1,0.9,0.7,1.7,1.7,1.8
			C25.5,32.3,25.6,32.3,25.7,32.3 M26.4,26.7c-4.1,0-7.4,2.1-7.7,5c-0.4,3.2,3.1,6.2,7.8,6.8c0.5,0.1,0.9,0.1,1.4,0.1
			c0.4,0,0.8,0,1.2-0.1l7.4,7.4c0.2,0.2,0.4,0.3,0.6,0.3h1.3c0.7,0,1.4-0.6,1.4-1.4v-1.9c0-0.5-0.2-0.9-0.5-1.3L34,36.4
			c0.9-0.8,1.4-1.8,1.6-2.9c0.4-3.2-3.1-6.2-7.8-6.8C27.3,26.7,26.9,26.7,26.4,26.7L26.4,26.7z M25.7,31.3c0,0-0.1,0-0.2,0
			c-0.5-0.1-0.9-0.4-0.9-0.7c0-0.3,0.4-0.5,0.9-0.5c0,0,0.1,0,0.2,0c0.5,0.1,0.9,0.4,0.9,0.7C26.5,31.1,26.2,31.3,25.7,31.3
			L25.7,31.3z"/>
	</g>
	<g>
		<path class="st6" d="M26.6,28.5L26.6,28.5c0.3,0,0.7,0,1,0.1c2.7,0.3,4.9,1.8,5.4,3.5l-8.9,3.7c-2-0.9-3.2-2.4-3-4
			C21.3,30,23.7,28.5,26.6,28.5 M26.6,28c-3.1,0-5.7,1.6-5.9,3.8c-0.2,1.8,1.3,3.6,3.5,4.6l9.5-4c-0.3-2.1-2.8-4-6-4.3
			C27.3,28.1,26.9,28,26.6,28L26.6,28z"/>
	</g>
	<g>
		<line class="st7" x1="32.1" y1="38.5" x2="37.1" y2="43.5"/>
	</g>
	<g>
		<line class="st7" x1="36.1" y1="35.5" x2="44.1" y2="37.8"/>
	</g>
</g>
<g id="Calque_15">
	<g>
		
			<linearGradient id="SVGID_00000091000174843433038230000009331132495697073318_" gradientUnits="userSpaceOnUse" x1="42.3666" y1="19.5875" x2="49.6026" y2="32.1206">
			<stop  offset="0" style="stop-color:#FFFFFF"/>
			<stop  offset="1" style="stop-color:#D4D5D3"/>
		</linearGradient>
		<path style="fill:url(#SVGID_00000091000174843433038230000009331132495697073318_);" d="M44.6,30c-6,0-11-3.7-11.9-8.5
			c-0.1,0.5-0.1,1-0.1,1.5c0,5.5,5.4,10,12,10s12-4.5,12-10c0-0.5-0.1-1-0.1-1.5C55.6,26.3,50.7,30,44.6,30z"/>
	</g>
	<g>
		
			<linearGradient id="SVGID_00000107576886487269154940000006789068010918644129_" gradientUnits="userSpaceOnUse" x1="40.3459" y1="12.0428" x2="45.345" y2="20.7015">
			<stop  offset="0" style="stop-color:#CECECE"/>
			<stop  offset="1" style="stop-color:#BABABA"/>
		</linearGradient>
		<path style="fill:url(#SVGID_00000107576886487269154940000006789068010918644129_);" d="M44.6,13c6,0,11,3.7,11.9,8.5
			c0.1-0.5,0.1-1,0.1-1.5c0-5.5-5.4-10-12-10s-12,4.5-12,10c0,0.5,0.1,1,0.1,1.5C33.7,16.7,38.6,13,44.6,13z"/>
	</g>
	<g>
		<g>
			<path class="st2" d="M44.6,14c6.1,0,11,4,11,9s-4.9,9-11,9s-11-4-11-9S38.6,14,44.6,14 M44.6,13c-6.6,0-12,4.5-12,10
				s5.4,10,12,10s12-4.5,12-10S51.3,13,44.6,13L44.6,13z"/>
		</g>
	</g>
	<g>
		
			<radialGradient id="SVGID_00000002366182982027496030000003138491084716409500_" cx="41.6529" cy="18.1602" r="13.471" gradientUnits="userSpaceOnUse">
			<stop  offset="0" style="stop-color:#F4FBFE"/>
			<stop  offset="1" style="stop-color:#D0EEFA"/>
		</radialGradient>
		
			<ellipse style="opacity:0.5;fill:url(#SVGID_00000002366182982027496030000003138491084716409500_);" cx="44.6" cy="21" rx="11.9" ry="9"/>
	</g>
	<g>
		<g>
			<path class="st2" d="M44.6,11c6.1,0,11,4,11,9s-4.9,9-11,9s-11-4-11-9S38.6,11,44.6,11 M44.6,10c-6.6,0-12,4.5-12,10
				s5.4,10,12,10s12-4.5,12-10S51.3,10,44.6,10L44.6,10z"/>
		</g>
	</g>
	<g>
		
			<linearGradient id="SVGID_00000086681593080815981540000009845038000761852325_" gradientUnits="userSpaceOnUse" x1="53.9919" y1="38.4131" x2="52.0586" y2="38.4014" gradientTransform="matrix(1.4541 -0.7728 1.2078 2.2724 -70.6887 -7.3901)">
			<stop  offset="0" style="stop-color:#DEDFDD"/>
			<stop  offset="0.6396" style="stop-color:#FFFFFF"/>
			<stop  offset="1" style="stop-color:#D4D5D3"/>
		</linearGradient>
		<path style="fill:url(#SVGID_00000086681593080815981540000009845038000761852325_);" d="M56.5,47.8c-0.7,0-1.4-0.4-1.7-1
			l-7.2-13.6c-0.6-1.1-0.2-2.4,0.9-3l0.4-0.2c0.2-0.1,0.4-0.2,0.6-0.2c0.5,0,0.9,0.3,1.2,0.7l7.6,14.4c0.5,1,0.1,2.2-0.8,2.7
			C57.2,47.7,56.8,47.8,56.5,47.8z"/>
		<path class="st2" d="M49.4,30.3c0.3,0,0.6,0.2,0.7,0.4l7.6,14.4c0.4,0.7,0.1,1.6-0.6,2c-0.2,0.1-0.4,0.2-0.7,0.2
			c-0.5,0-1-0.3-1.3-0.8L48,32.9c-0.4-0.8-0.1-1.8,0.7-2.3l0.4-0.2C49.2,30.3,49.3,30.3,49.4,30.3 M49.4,29.3
			c-0.3,0-0.6,0.1-0.9,0.2l-0.4,0.2c-1.3,0.7-1.8,2.3-1.1,3.6L54.3,47c0.4,0.8,1.3,1.3,2.2,1.3c0.4,0,0.8-0.1,1.2-0.3h0
			c1.2-0.6,1.7-2.1,1-3.3l-7.6-14.4C50.7,29.6,50.1,29.3,49.4,29.3L49.4,29.3z"/>
	</g>
	<g>
		
			<linearGradient id="SVGID_00000085933265460417115130000009251290919258134660_" gradientUnits="userSpaceOnUse" x1="53.991" y1="38.2883" x2="52.0596" y2="38.2766" gradientTransform="matrix(1.4541 -0.7728 0.9973 1.8764 -61.6384 9.6383)">
			<stop  offset="0" style="stop-color:#376E8C"/>
			<stop  offset="0.6396" style="stop-color:#8CD7F5"/>
			<stop  offset="1" style="stop-color:#376E8C"/>
		</linearGradient>
		<path style="fill:url(#SVGID_00000085933265460417115130000009251290919258134660_);" d="M56.5,47.8c-0.7,0-1.4-0.4-1.7-1
			l-5.6-10.5c-0.6-1.1-0.2-2.4,0.9-3l0.4-0.2c0.2-0.1,0.4-0.2,0.6-0.2c0.5,0,0.9,0.3,1.2,0.7l6,11.2c0.5,1,0.1,2.2-0.8,2.7
			C57.2,47.7,56.8,47.8,56.5,47.8z"/>
		<path class="st2" d="M51.1,33.5c0.3,0,0.6,0.2,0.7,0.4l6,11.2c0.2,0.3,0.2,0.7,0.1,1.1c-0.1,0.4-0.4,0.7-0.7,0.9
			c-0.2,0.1-0.4,0.2-0.7,0.2c-0.5,0-1-0.3-1.3-0.8L49.7,36c-0.2-0.4-0.3-0.9-0.1-1.3c0.1-0.4,0.4-0.8,0.8-1l0.4-0.2
			C50.9,33.5,51,33.5,51.1,33.5 M51.1,32.5c-0.3,0-0.6,0.1-0.9,0.2l-0.4,0.2c-1.3,0.7-1.8,2.3-1.1,3.6L54.3,47
			c0.4,0.8,1.3,1.3,2.2,1.3c0.4,0,0.8-0.1,1.2-0.3h0c1.2-0.6,1.7-2.1,1-3.3l-6-11.2C52.4,32.8,51.8,32.5,51.1,32.5L51.1,32.5z"/>
	</g>
</g>
</svg>
