<svg xmlns="http://www.w3.org/2000/svg" xmlns:xlink="http://www.w3.org/1999/xlink" viewBox="0 0 64 64"><defs><linearGradient id="linear-gradient" x1="11.47" y1="22.03" x2="32.27" y2="58.06" gradientUnits="userSpaceOnUse"><stop offset="0" stop-color="#f5f5f5"/><stop offset="1" stop-color="#bebebe"/></linearGradient><linearGradient id="linear-gradient-2" x1="3.73" y1="-14.12" x2="16.26" y2="7.57" gradientTransform="matrix(0.91, 0.42, -0.31, 0.67, 17.76, 40.44)" gradientUnits="userSpaceOnUse"><stop offset="0" stop-color="#82bedc"/><stop offset="1" stop-color="#285a78"/></linearGradient><linearGradient id="linear-gradient-3" x1="3.82" y1="-14.01" x2="16.09" y2="7.24" gradientTransform="matrix(0.91, 0.42, -0.31, 0.67, 17.76, 40.44)" gradientUnits="userSpaceOnUse"><stop offset="0" stop-color="#3287af"/><stop offset="1" stop-color="#285a78"/></linearGradient><linearGradient id="linear-gradient-4" x1="22.9" y1="28.52" x2="24.56" y2="28.52" gradientTransform="translate(6.84 15.45)" gradientUnits="userSpaceOnUse"><stop offset="0.18" stop-color="#bebebe"/><stop offset="0.32" stop-color="#f5f5f5"/><stop offset="0.6" stop-color="#c6c6c6"/><stop offset="0.8" stop-color="#ddd"/><stop offset="0.96" stop-color="#a49f9f"/></linearGradient><linearGradient id="linear-gradient-5" x1="44.67" y1="72.02" x2="44.72" y2="69.72" gradientTransform="matrix(0.92, -0.4, 0.4, 0.92, -31.13, -7.48)" xlink:href="#linear-gradient-4"/><linearGradient id="linear-gradient-6" x1="43.59" y1="76.24" x2="43.64" y2="73.98" gradientTransform="matrix(0.92, -0.4, 0.4, 0.92, -31.13, -7.48)" xlink:href="#linear-gradient-4"/><linearGradient id="linear-gradient-7" x1="42.01" y1="80.45" x2="42.06" y2="78.1" gradientTransform="matrix(0.92, -0.4, 0.4, 0.92, -31.13, -7.48)" xlink:href="#linear-gradient-4"/><linearGradient id="linear-gradient-8" x1="-99.25" y1="8.54" x2="-99.27" y2="6.42" gradientTransform="matrix(-0.92, -0.4, -0.4, 0.92, -59.3, -7.48)" xlink:href="#linear-gradient-4"/><linearGradient id="linear-gradient-9" x1="-100.6" y1="12.74" x2="-100.62" y2="10.58" gradientTransform="matrix(-0.92, -0.4, -0.4, 0.92, -59.3, -7.48)" xlink:href="#linear-gradient-4"/><linearGradient id="linear-gradient-10" x1="-102.04" y1="16.93" x2="-102.06" y2="14.91" gradientTransform="matrix(-0.92, -0.4, -0.4, 0.92, -59.3, -7.48)" xlink:href="#linear-gradient-4"/><linearGradient id="linear-gradient-11" x1="41.34" y1="39.48" x2="45.92" y2="39.48" gradientTransform="matrix(1, 0, 0, 1, 0, 0)" xlink:href="#linear-gradient-4"/><linearGradient id="linear-gradient-12" x1="40.66" y1="32.86" x2="50.28" y2="49.52" gradientUnits="userSpaceOnUse"><stop offset="0" stop-color="#aaa"/><stop offset="1" stop-color="#5a5a5a"/></linearGradient><linearGradient id="linear-gradient-13" x1="26.55" y1="13.3" x2="39.45" y2="35.62" gradientUnits="userSpaceOnUse"><stop offset="0" stop-color="#aaa"/><stop offset="0.04" stop-color="#a2a2a2"/><stop offset="0.19" stop-color="#838383"/><stop offset="0.35" stop-color="#6c6c6c"/><stop offset="0.49" stop-color="#5f5f5f"/><stop offset="0.62" stop-color="#5a5a5a"/></linearGradient><clipPath id="clip-path"><path d="M30.43,29.77c1.33-.19,3.86-.9,4-2.58.15-1.48,1.84-1.32,3-1.64a2.53,2.53,0,0,0,1.82-3.28c-.53-1.4-3-2.52-4.7-3.27-2.44-1.1-5.21,1.33-6.73,1.45s-3.91-.77-5.82-.32C19,20.84,18,22.05,18,23.59A3.26,3.26,0,0,0,20,26.23a7.64,7.64,0,0,1,1.11,1.1S23.23,30.82,30.43,29.77Z" fill="none"/></clipPath><linearGradient id="linear-gradient-14" x1="25.45" y1="17.66" x2="32.24" y2="29.42" gradientUnits="userSpaceOnUse"><stop offset="0" stop-color="#a0e1fa"/><stop offset="0.25" stop-color="#8cd7f5"/><stop offset="0.38" stop-color="#88d2f0"/><stop offset="0.53" stop-color="#7cc4e2"/><stop offset="0.7" stop-color="#69acca"/><stop offset="0.87" stop-color="#4f8ba9"/><stop offset="1" stop-color="#376e8c"/></linearGradient><linearGradient id="linear-gradient-15" x1="-134.7" y1="26.55" x2="-129.51" y2="26.55" gradientTransform="matrix(-1, 0, 0, 1, -88.47, 0)" xlink:href="#linear-gradient-4"/></defs><g style="isolation:isolate"><g id="Layer_3" data-name="Layer 3"><polygon points="9.57 23.1 9.57 44.96 34.73 56.61 56.43 45.97 56.38 25.82 22.34 18.52 9.57 23.1" fill="#f1f1f1"/><polygon points="9.57 23.1 9.57 44.96 34.73 56.61 56.43 45.97 56.38 25.82 22.34 18.52 9.57 23.1" fill="#646464" opacity="0.5"/><polygon points="9.63 23.1 9.63 44.96 34.78 56.61 34.78 56.61 34.77 36.26 22.39 18.52 9.63 23.1" fill="url(#linear-gradient)"/><polygon points="31.79 52.47 21.77 47.85 23.91 32.46 33.92 37.08 31.79 52.47" stroke="#003755" stroke-linejoin="round" stroke-width="1.5" fill="url(#linear-gradient-2)"/><path d="M31.24,52.12,22.08,47.9a.45.45,0,0,1-.26-.47l2-14.46a.46.46,0,0,1,.64-.35l9.16,4.23a.46.46,0,0,1,.26.47l-2,14.46A.45.45,0,0,1,31.24,52.12Z" fill="url(#linear-gradient-3)"/><rect x="29.75" y="39.44" width="1.66" height="9.06" transform="translate(9.85 -5.41) rotate(12.05)" fill="url(#linear-gradient-4)"/><polygon points="34.76 42.45 41.98 39.34 41.14 37.39 34.78 40.16 34.76 42.45" fill="url(#linear-gradient-5)"/><polygon points="34.76 47.02 43.3 43.29 42.51 41.46 34.76 44.85 34.76 47.02" fill="url(#linear-gradient-6)"/><polygon points="34.76 51.6 43.7 47.61 42.91 45.77 34.76 49.42 34.76 51.6" fill="url(#linear-gradient-7)"/><path d="M34.76,42.46,23.11,37.18a1,1,0,0,1-.6-1h0a1,1,0,0,1,1.39-.88l10.88,4.81Z" fill="url(#linear-gradient-8)"/><path d="M34.76,47,22.27,41.4a1,1,0,0,1-.61-.94h0a1,1,0,0,1,1.4-.9l11.7,5.12Z" fill="url(#linear-gradient-9)"/><path d="M34.76,51.62,21.54,45.69a1,1,0,0,1-.58-.92h0a1,1,0,0,1,1.4-.88l12.4,5.55Z" fill="url(#linear-gradient-10)"/><path d="M23.51,35.26a.92.92,0,0,1,.39.09l10.88,4.81,6.69-2.89.79,1.95-7.5,3.24L32,41.22l-.46,2.19,3.29,1.3,7.67-3.25.79,1.95L34.76,47,31.12,45.4l-.47,2.2,4.11,1.82,8.87-4,.79,1.95-9.66,4.29L21.54,45.69A1,1,0,0,1,22,43.8a1,1,0,0,1,.41.09l6.74,3,.47-2.21-7.3-3.3a1,1,0,0,1,.39-1.92,1.14,1.14,0,0,1,.4.08L30,42.71l.47-2.19-7.36-3.34a1,1,0,0,1,.4-1.92m0-.75h0a1.75,1.75,0,0,0-.7,3.36L29.61,41l-.15.69-6.09-2.76a1.81,1.81,0,0,0-.71-.15A1.75,1.75,0,0,0,22,42.09l6.74,3-.15.71L22.67,43.2a1.74,1.74,0,0,0-1.44,3.17L34.46,52.3a.63.63,0,0,0,.3.07.67.67,0,0,0,.31-.07L44.73,48a.76.76,0,0,0,.39-1l-.79-1.95a.79.79,0,0,0-.42-.42.87.87,0,0,0-.28,0,.7.7,0,0,0-.31.07l-8.56,3.9-3.25-1.44.15-.7,2.8,1.27a.77.77,0,0,0,.3.06.8.8,0,0,0,.3-.06L43.6,44.1a.76.76,0,0,0,.4-1l-.79-2a.82.82,0,0,0-.41-.41,1,1,0,0,0-.29,0,.72.72,0,0,0-.29.06L34.83,43.9l-2.42-1,.14-.66,1.9.87a.85.85,0,0,0,.31.06.73.73,0,0,0,.3-.06l7.5-3.24a.74.74,0,0,0,.39-1l-.79-2a.75.75,0,0,0-.41-.41.92.92,0,0,0-.28,0,.77.77,0,0,0-.3.06l-6.38,2.76L24.21,34.66a1.73,1.73,0,0,0-.7-.15Z" fill="#4d4d4d"/><path d="M41.34,29.35h4.58a0,0,0,0,1,0,0V47.41a2.2,2.2,0,0,1-2.2,2.2h-.19a2.2,2.2,0,0,1-2.2-2.2V29.35A0,0,0,0,1,41.34,29.35Z" stroke="#4d4d4d" stroke-miterlimit="10" stroke-width="0.75" fill="url(#linear-gradient-11)"/><polyline points="34.77 36.26 56.23 25.82 56.43 45.97 34.73 56.61 34.77 36.26" opacity="0.5" fill="url(#linear-gradient-12)" style="mix-blend-mode:multiply"/><polygon id="R_contour_" data-name="R contour " points="56.43 25.82 48.78 23.5 45.34 20.8 40.75 21.7 40.03 20.31 37.85 19.01 37.05 17.21 31.2 15.38 9.57 23.1 15.31 25.19 18.54 28.72 23.46 31.03 34.77 36.26 46.01 30.81 56.43 25.82" fill="url(#linear-gradient-13)"/><path d="M31.2,16.35,36.35,18,37,19.39a1,1,0,0,0,.37.42l2,1.16.6,1.16a.92.92,0,0,0,.82.49h.17l4.18-.82,3.11,2.44a.87.87,0,0,0,.3.16l7,2.12,0,2.79a.77.77,0,0,0,0,.15v16L34.74,55.6,10.52,44.38V27.73l0-4,20.73-7.4m0-1L9.55,23.11l0,4.63V45L34.76,56.62,56.45,46V29.29h0l0-3.46-7.64-2.32-3.45-2.7-4.58.9L40,20.32,37.83,19,37,17.22l-5.84-1.83Z" fill="#323232"/><g clip-path="url(#clip-path)"><path d="M30.43,29.77c1.33-.19,3.86-.9,4-2.58.15-1.48,1.84-1.32,3-1.64a2.53,2.53,0,0,0,1.82-3.28c-.53-1.4-3-2.52-4.7-3.27-2.44-1.1-5.21,1.33-6.73,1.45s-3.91-.77-5.82-.32C19,20.84,18,22.05,18,23.59A3.26,3.26,0,0,0,20,26.23a7.64,7.64,0,0,1,1.11,1.1S23.23,30.82,30.43,29.77Z" stroke="#003755" stroke-linejoin="round" fill="url(#linear-gradient-14)"/><path d="M40.78,28l-.82.6s-6.36-4.93-8.19-4.78-4.75.94-6.95,0-4.68,3.56-4.68,3.56l-.78-.58s2.71-4.22,4.75-3.95a16.17,16.17,0,0,0,6.83,0c2.68-.71,9.84,5.16,9.84,5.16" fill="#003755"/><path d="M20.13,29.86s2.53-3.68,5.44-3.37a48.6,48.6,0,0,0,6.75.4c.3-.06,3.82,2.95,6,5.09l-.78.6c-1.66-1.81-4.71-4.46-5.64-4.73-1.57-.46-4.2-.18-6.3-.76-.56-.15-4.54,2.3-5.74,3.75Z" fill="#003755"/><path d="M30.43,29.77c1.33-.19,3.86-.9,4-2.58.15-1.48,1.84-1.32,3-1.64a2.53,2.53,0,0,0,1.82-3.28c-.53-1.4-3-2.52-4.7-3.27-2.44-1.1-5.21,1.33-6.73,1.45s-3.91-.77-5.82-.32C19,20.84,18,22.05,18,23.59A3.26,3.26,0,0,0,20,26.23a7.64,7.64,0,0,1,1.11,1.1S23.23,30.82,30.43,29.77Z" fill="none" stroke="#003755" stroke-miterlimit="10" stroke-width="1.2"/></g><g id="R_contour_2" data-name="R contour "><path d="M31.22,16.44,36.32,18l.62,1.39a1.09,1.09,0,0,0,.4.45L39.27,21l.6,1.13a1,1,0,0,0,.88.54l.2,0,4.13-.81,3.09,2.42a.87.87,0,0,0,.33.17L53.67,26l-8.1,3.88L34.76,35.15l-10.88-5L19.14,27.9l-3.09-3.38a1.09,1.09,0,0,0-.4-.27l-3.13-1.14,18.7-6.67m0-1.06L9.57,23.1l5.74,2.09,3.23,3.53L23.46,31l11.31,5.23L46,30.81l10.42-5L48.79,23.5l-3.45-2.7-4.59.9L40,20.31,37.86,19l-.81-1.8L31.2,15.38Z" fill="#323232"/></g><ellipse cx="43.63" cy="26.55" rx="2.6" ry="1.41" fill="url(#linear-gradient-15)"/><path d="M43.63,25.64c1.16,0,2.1.41,2.1.91s-.94.91-2.1.91-2.09-.41-2.09-.91.93-.91,2.09-.91m0-1c-1.82,0-3.09.79-3.09,1.91s1.27,1.91,3.09,1.91,3.1-.78,3.1-1.91-1.27-1.91-3.1-1.91Z" fill="#323232"/></g></g></svg>