<svg xmlns="http://www.w3.org/2000/svg" xmlns:xlink="http://www.w3.org/1999/xlink" viewBox="0 0 64 64"><defs><linearGradient id="linear-gradient" x1="20.08" y1="17.2" x2="40.77" y2="53.04" gradientUnits="userSpaceOnUse"><stop offset="0" stop-color="#f5f5f5"/><stop offset="1" stop-color="#bebebe"/></linearGradient><linearGradient id="linear-gradient-2" x1="24.41" y1="13.93" x2="37.08" y2="35.88" gradientUnits="userSpaceOnUse"><stop offset="0" stop-color="#aaa"/><stop offset="0.04" stop-color="#a2a2a2"/><stop offset="0.19" stop-color="#838383"/><stop offset="0.35" stop-color="#6c6c6c"/><stop offset="0.49" stop-color="#5f5f5f"/><stop offset="0.62" stop-color="#5a5a5a"/></linearGradient><linearGradient id="linear-gradient-3" x1="24.22" y1="20.23" x2="41.93" y2="50.91" gradientUnits="userSpaceOnUse"><stop offset="0" stop-color="#aaa"/><stop offset="1" stop-color="#5a5a5a"/></linearGradient><linearGradient id="linear-gradient-4" x1="26.37" y1="18.94" x2="36" y2="35.63" gradientUnits="userSpaceOnUse"><stop offset="0" stop-color="#d7d7d7"/><stop offset="1" stop-color="#969696"/></linearGradient><linearGradient id="linear-gradient-5" x1="26.1" y1="23.62" x2="39.96" y2="47.63" xlink:href="#linear-gradient-4"/><linearGradient id="linear-gradient-6" x1="27.57" y1="22.67" x2="35.25" y2="35.96" gradientUnits="userSpaceOnUse"><stop offset="0" stop-color="#fff"/><stop offset="1" stop-color="#d4d5d3"/></linearGradient><linearGradient id="linear-gradient-7" x1="28.24" y1="26.45" x2="38.13" y2="43.57" gradientUnits="userSpaceOnUse"><stop offset="0" stop-color="#a0e1fa"/><stop offset="1" stop-color="#73c3e1"/></linearGradient><linearGradient id="linear-gradient-8" x1="22.62" y1="30.77" x2="39.48" y2="40.5" gradientUnits="userSpaceOnUse"><stop offset="0" stop-color="#b5e1f8"/><stop offset="0.12" stop-color="#a7d2e9"/><stop offset="0.34" stop-color="#82acc3"/><stop offset="0.64" stop-color="#476e86"/><stop offset="0.82" stop-color="#22475f"/><stop offset="1" stop-color="#102f47"/></linearGradient><linearGradient id="linear-gradient-9" x1="50.48" y1="27.26" x2="50.91" y2="28.01" xlink:href="#linear-gradient"/><linearGradient id="linear-gradient-10" x1="9.94" y1="22.86" x2="12.46" y2="27.23" xlink:href="#linear-gradient"/><linearGradient id="linear-gradient-11" x1="50.67" y1="9.55" x2="57.01" y2="20.54" xlink:href="#linear-gradient-3"/><linearGradient id="linear-gradient-12" x1="45.65" y1="11.14" x2="50.3" y2="19.19" xlink:href="#linear-gradient-4"/><linearGradient id="linear-gradient-13" x1="40.76" y1="11.54" x2="44.37" y2="17.8" xlink:href="#linear-gradient-7"/><linearGradient id="linear-gradient-14" x1="45.2" y1="13.86" x2="51.62" y2="24.98" xlink:href="#linear-gradient"/></defs><g style="isolation:isolate"><g id="Layer_3" data-name="Layer 3"><rect id="BG" width="64" height="64" fill="#fff" fill-opacity="0.1"/><polygon points="8.23 44.77 8.23 24.05 53.32 26.67 53.37 45.77 32.49 56.01 8.23 44.77" fill="url(#linear-gradient)"/><path d="M8.68,24.52l44.19,2.57.05,18.4-20.43,10-23.81-11v-20m-.9-.95V45.05L32.5,56.5,53.82,46.05l0-19.81-46-2.67Z" fill="#787878"/><polygon id="R_contour_" data-name="R contour " points="53.77 26.24 46.26 23.97 42.87 21.31 38.37 22.19 37.66 20.83 35.52 19.55 34.73 17.78 28.98 15.98 7.72 23.57 13.36 25.63 16.54 29.09 21.37 31.36 32.49 36.5 43.53 31.15 53.77 26.24" fill="url(#linear-gradient-2)"/><path d="M22.74,51.28l-2-6-.87-.76-1.26-5.28L18,38.44l-1-4.62-1.13-1-1.56-6.56S18.1,24,19.45,23A15,15,0,0,1,28,20.49a11,11,0,0,1,5.9,1.34,21.87,21.87,0,0,1,4.62,2.43c.82.61,3.59-.07,5.64.76a11.23,11.23,0,0,1,4.26,3.49l-1.56,5.84-.74.83-1.23,5.59-.61.55-1,4.75-1.13.81-1.64,4.19-.71,1.11L32.5,56Z" stroke="#323232" stroke-linejoin="round" stroke-width="0.9" fill="url(#linear-gradient-3)"/><path d="M18.65,29.45l-4.48-3.21S18,24,19.37,23a15,15,0,0,1,8.52-2.55,11,11,0,0,1,5.89,1.34,21.94,21.94,0,0,1,4.63,2.43c.82.61,3.59-.07,5.64.76a11.23,11.23,0,0,1,4.26,3.49l-3.59,2.08-2.6,1.11" stroke="#323232" stroke-linejoin="round" stroke-width="0.9" fill="url(#linear-gradient-4)"/><g opacity="0.7"><path d="M15.81,32.8s14.34-9.43,31,1.55l-.74.83s-13.91-10.27-29.5-1.53Z" fill="#323232"/><path d="M18,38.44s15.1-8.08,26.9,2.33l-.61.55s-10.36-8.83-25.6-2Z" fill="#323232"/><path d="M19.91,44.56S30.1,38,43.21,46.07l-1.13.81s-10.37-7.38-21.3-1.56Z" fill="#323232"/><path d="M22.74,51.28s10-5,17,.9L38.12,53,32.5,56c-2.21-.85-3.9-2.13-8.39-4.08Z" fill="#323232"/></g><path d="M26.19,48.59,25.55,48l-.76-2.65-1.09-1-.73-3-.68-.52-1.54-5.54-.89-1.44-1.21-4.37A9.31,9.31,0,0,1,21,26.66c3.57-2.48,4.85-2.26,6.61-2.4s5.88,0,8.52,1.22c1.8.84,4.34.88,5.92,2.07a9.76,9.76,0,0,1,2.66,3L43.57,35l-.71,1-.78,3.74-.61.69-.67,3.29-.87,1-2,3.57-.69.81-3.51,1.89h-4Z" stroke="#323232" stroke-miterlimit="10" stroke-width="0.9" fill="url(#linear-gradient-5)"/><path d="M22.32,31.29c-2.75-1.53-3.62-2-3.62-2a9.5,9.5,0,0,1,2.36-2.78c3.57-2.49,4.85-2.27,6.62-2.41s5.87,0,8.51,1.22c1.81.85,4.35.88,5.93,2.07a10,10,0,0,1,2.66,3.05L42.12,31.7" stroke="#323232" stroke-linejoin="round" stroke-width="0.9" fill="url(#linear-gradient-6)"/><g opacity="0.7"><path d="M19.86,33.82A16,16,0,0,1,31.74,28c7.83-.27,11.83,7,11.83,7l-.53.75A12.7,12.7,0,0,0,31.72,29c-8.24-.05-11.11,6-11.11,6Z" fill="#323232"/><path d="M22.29,40.8s9.45-10.67,19.79-1l-.61.69S33.78,32,23,41.32Z" fill="#323232"/><path d="M23.7,44.29s6.76-7.56,17.1-.51l-.87,1s-8.19-6.84-15.14.52Z" fill="#323232"/><path d="M26.19,48.59s4.56-5.07,11.1.59l-.92.49s-5-4.87-9.43-.56Z" fill="#323232"/></g><path d="M36,44.8l-3.19.78-4.2-1-2-2.82-.74-.67L25,37.79l-.58-.58L23.83,35l-.64-.5-.87-3.21s1.39-2.84,3.85-3.45c1.55-.39,3.42.38,4.75.27s2.7-1.46,4.69-.51A25.45,25.45,0,0,1,40,29.82a18.29,18.29,0,0,1,2.12,1.88l-.65,3-.83.65-.71,2.93-.69.56-.75,3.42-.82.69Z" stroke="#323232" stroke-linejoin="round" stroke-width="0.9" fill="url(#linear-gradient-7)"/><path d="M41.47,34.66l-.67.52S35.6,30.9,34.11,31s-3.88.81-5.68,0-4.6,4-4.6,4l-.64-.5s3-4.54,4.66-4.31a12.33,12.33,0,0,0,5.58,0c2.19-.62,8,4.48,8,4.48" fill="#003755"/><path d="M24.25,37.27s2.91-3.53,5.29-3.26A20.89,20.89,0,0,0,35,33.82c.49-.11,4.94,4.42,4.94,4.42l-.64.52s-3.13-3.65-4.61-4.11c-1.27-.4-3.36.39-5.07-.11s-4.69,3.25-4.69,3.25Z" fill="#003755"/><path d="M28.6,44.55s4.07-4.21,7.39.25c0,0-.13.32-.52.12-.79-.41-.69-1.1-2.9-1.53-1.5-.28-2.53.93-3.45,1.28A.44.44,0,0,1,28.6,44.55Z" fill="#003755"/><path d="M25.82,41.06c.81-2.73,6.27-4.4,8.78-3.18L38.55,42l-.2.39-4-3.81a7.69,7.69,0,0,0-8.27,2.83Z" fill="#003755"/><path d="M22.32,31.29s2.46,5.76,7.91,5.56c1.74-.07,2-1.45,5.1-1.81,2-.23,3.68-.16,4.31-.38a3.91,3.91,0,0,0,2.48-3l-.65,3-.83.65-.71,2.93-.69.56-.75,3.42L36,44.8l-3.19.78-4.2-1-2.78-3.49L25,37.79l-.58-.58L23.83,35l-.64-.5Z" stroke="#323232" stroke-linecap="round" stroke-linejoin="round" stroke-width="0.9" fill="url(#linear-gradient-8)"/><g opacity="0.7" style="mix-blend-mode:multiply"><path d="M24.43,37.21s6,4.3,15.5,1l-.69.56s-8.31,4.37-14.23-1Z" fill="#003755"/><path d="M25.82,41.06a15.21,15.21,0,0,0,12.67,1.16l-1.07,1.1s-6,2.26-10.58-1Z" fill="#003755"/></g><path d="M29,16.94l5.07,1.59.62,1.4a.93.93,0,0,0,.36.4L37,21.48l.59,1.14a.91.91,0,0,0,.8.48l.18,0,4.1-.8,3.06,2.4a.85.85,0,0,0,.3.15l6.87,2.09,0,2.74a.59.59,0,0,0,0,.14V45.49l-20.44,10-23.81-11V28.12l0-3.91L29,16.94m0-1L7.7,23.58l0,4.55V45.06L32.47,56.51,53.8,46.05V29.66h0l0-3.4L46.24,24l-3.39-2.66-4.51.89-.71-1.36-2.14-1.28-.79-1.77L29,16Z" fill="#323232"/><line x1="53.48" y1="26.53" x2="47.9" y2="28.75" stroke="#323232" stroke-linejoin="round" stroke-width="0.9" fill="url(#linear-gradient-9)"/><line x1="8.23" y1="23.84" x2="14.17" y2="26.24" stroke="#323232" stroke-linejoin="round" stroke-width="0.9" fill="url(#linear-gradient-10)"/><path d="M54.68,21.53,52.86,21a1.45,1.45,0,0,1-1-1.28V9.33a.78.78,0,0,1,1-.76L54.68,9a1.36,1.36,0,0,1,1,1.23V20.84A.74.74,0,0,1,54.68,21.53Z" stroke="#323232" stroke-linejoin="round" stroke-width="0.75" fill="url(#linear-gradient-11)"/><path d="M48.77,19.76l-1.69-.5A1.35,1.35,0,0,1,46.16,18V11.3a.71.71,0,0,1,.92-.72l1.69.4a1.31,1.31,0,0,1,1,1.19v6.92A.69.69,0,0,1,48.77,19.76Z" stroke="#323232" stroke-miterlimit="10" stroke-width="0.75" fill="url(#linear-gradient-12)"/><path d="M43.31,18.13l-1.56-.47a1.28,1.28,0,0,1-.85-1.16V11.9a.66.66,0,0,1,.85-.68l1.56.39a1.22,1.22,0,0,1,.88,1.15v4.71A.65.65,0,0,1,43.31,18.13Z" stroke="#323232" stroke-linejoin="round" stroke-width="0.75" fill="url(#linear-gradient-13)"/><polygon points="56.57 22.12 40.22 17.22 40.22 16.74 56.57 21.57 56.57 22.12" stroke="#323232" stroke-linejoin="round" stroke-width="1.06" fill="url(#linear-gradient-14)"/></g></g></svg>