<svg xmlns="http://www.w3.org/2000/svg" xmlns:xlink="http://www.w3.org/1999/xlink" width="64" height="64" viewBox="0 0 64 64">
  <defs>
    <linearGradient id="a" x1="11" y1="35.5" x2="24" y2="35.5" gradientUnits="userSpaceOnUse">
      <stop offset="0" stop-color="#bd3839"/>
      <stop offset="1" stop-color="#b53031"/>
    </linearGradient>
    <linearGradient id="b" x1="18" y1="44.5" x2="54" y2="44.5" gradientUnits="userSpaceOnUse">
      <stop offset="0" stop-color="#b53031"/>
      <stop offset="1" stop-color="#841418"/>
    </linearGradient>
    <linearGradient id="c" x1="11" y1="29.5" x2="54" y2="29.5" gradientUnits="userSpaceOnUse">
      <stop offset="0" stop-color="#de6d63"/>
      <stop offset="1" stop-color="#a52821"/>
    </linearGradient>
    <radialGradient id="d" cx="16" cy="20.25" r="35.36" gradientUnits="userSpaceOnUse">
      <stop offset="0" stop-color="#f77152"/>
      <stop offset="1" stop-color="#de454a"/>
    </radialGradient>
    <linearGradient id="k" data-name="New Gradient Swatch 1" x1="11.507" y1="17.146" x2="43.955" y2="23.469" gradientUnits="userSpaceOnUse">
      <stop offset="0" stop-color="#fff"/>
      <stop offset="1" stop-color="#fff" stop-opacity="0.2"/>
    </linearGradient>
    <radialGradient id="l" cx="19.345" cy="48.902" r="5.72" gradientTransform="matrix(0.905, -0.366, 0.215, 0.532, -9.121, 29.953)" gradientUnits="userSpaceOnUse">
      <stop offset="0" stop-color="#fff"/>
      <stop offset="1" stop-color="#fff" stop-opacity="0"/>
    </radialGradient>
  </defs>
  <title>4918_GEOSCON_AP_Appicon_r21x</title>
  <polygon points="11 17 11 21.5 18 54 24 49 16 17 11 17" fill="url(#a)"/>
  <polygon points="54 41.5 54 37 52 35 18 47 18 49.5 18 54 54 41.5" fill="url(#b)"/>
  <polygon points="11 17 18 49 54 37 42 10 11 17" fill="url(#c)"/>
  <g>
    <polygon points="48.435 30.854 35.339 34.819 37.356 39.952 50.5 35.5 48.435 30.854" fill="url(#d)"/>
    <polygon points="30.729 21.411 34.544 32.549 47.455 28.648 45.5 24.25 43 18.626 30.729 21.411" fill="url(#d)"/>
    <polygon points="32.882 35.618 27.073 37.381 28.847 42.834 34.595 40.887 32.882 35.618" fill="url(#d)"/>
    <polygon points="30.152 19.707 35.148 18.339 33.697 14.512 28.696 15.623 30.152 19.707" fill="url(#d)"/>
    <polygon points="37.672 17.726 42.099 16.597 40.5 13 35.915 14.019 37.672 17.726" fill="url(#d)"/>
    <polygon points="24.251 38.256 18.206 40.175 19.5 46 25.874 43.841 24.251 38.256" fill="url(#d)"/>
    <polygon points="17.656 37.702 32.134 33.5 26.422 16.128 13.5 19 16.5 32.5 17.656 37.702" fill="url(#d)"/>
  </g>
  <path d="M11,17l2.943,13.455a16.691,16.691,0,0,0,11.143.314c8.628-2.879,8.136-9.535,15.714-10.7a10.189,10.189,0,0,1,5.993.629L42.057,10Z" opacity="0.2" fill="url(#k)"/>
  <polygon points="16.688 43 18 49 18 53 19 53 19 50 24.243 48.392 24 47 19 48.595 18 43 16.688 43" opacity="0.2" fill="url(#l)"/>
</svg>
