<svg id="Layer_1" data-name="Layer 1" xmlns="http://www.w3.org/2000/svg" xmlns:xlink="http://www.w3.org/1999/xlink" viewBox="0 0 64 64"><defs><linearGradient id="linear-gradient" x1="11" y1="30.5" x2="24" y2="30.5" gradientTransform="matrix(1, 0, 0, -1, 0, 66)" gradientUnits="userSpaceOnUse"><stop offset="0" stop-color="#bd3839"/><stop offset="1" stop-color="#b53031"/></linearGradient><linearGradient id="linear-gradient-2" x1="18" y1="21.5" x2="54" y2="21.5" gradientTransform="matrix(1, 0, 0, -1, 0, 66)" gradientUnits="userSpaceOnUse"><stop offset="0" stop-color="#b53031"/><stop offset="1" stop-color="#841418"/></linearGradient><linearGradient id="linear-gradient-3" x1="11" y1="36.5" x2="54" y2="36.5" gradientTransform="matrix(1, 0, 0, -1, 0, 66)" gradientUnits="userSpaceOnUse"><stop offset="0" stop-color="#de6d63"/><stop offset="1" stop-color="#a52821"/></linearGradient><radialGradient id="radial-gradient" cx="16" cy="45.75" r="35.36" gradientTransform="matrix(1, 0, 0, -1, 0, 66)" gradientUnits="userSpaceOnUse"><stop offset="0" stop-color="#f77152"/><stop offset="1" stop-color="#de454a"/></radialGradient><linearGradient id="linear-gradient-4" x1="11.51" y1="48.85" x2="43.96" y2="42.53" gradientTransform="matrix(1, 0, 0, -1, 0, 66)" gradientUnits="userSpaceOnUse"><stop offset="0" stop-color="#fff"/><stop offset="1" stop-color="#fff" stop-opacity="0.2"/></linearGradient><radialGradient id="radial-gradient-8" cx="-221.84" cy="-900.73" r="5.72" gradientTransform="matrix(0.9, -0.37, -0.22, -0.53, 26.01, -511.49)" gradientUnits="userSpaceOnUse"><stop offset="0" stop-color="#fff"/><stop offset="1" stop-color="#fff" stop-opacity="0"/></radialGradient></defs><polygon points="11 17 11 21.5 18 54 24 49 16 17 11 17" fill="url(#linear-gradient)"/><polygon points="54 41.5 54 37 52 35 18 47 18 49.5 18 54 54 41.5" fill="url(#linear-gradient-2)"/><polygon points="11 17 18 49 54 37 42 10 11 17" fill="url(#linear-gradient-3)"/><polygon points="48.44 30.85 35.34 34.82 37.36 39.95 50.5 35.5 48.44 30.85" fill="url(#radial-gradient)"/><polygon points="30.73 21.41 34.54 32.55 47.45 28.65 45.5 24.25 43 18.63 30.73 21.41" fill="url(#radial-gradient)"/><polygon points="32.88 35.62 27.07 37.38 28.85 42.83 34.59 40.89 32.88 35.62" fill="url(#radial-gradient)"/><polygon points="30.15 19.71 35.15 18.34 33.7 14.51 28.7 15.62 30.15 19.71" fill="url(#radial-gradient)"/><polygon points="37.67 17.73 42.1 16.6 40.5 13 35.91 14.02 37.67 17.73" fill="url(#radial-gradient)"/><polygon points="24.25 38.26 18.21 40.17 19.5 46 25.87 43.84 24.25 38.26" fill="url(#radial-gradient)"/><polygon points="17.66 37.7 32.13 33.5 26.42 16.13 13.5 19 16.5 32.5 17.66 37.7" fill="url(#radial-gradient)"/><path d="M11,17l2.94,13.45a16.74,16.74,0,0,0,11.15.32c8.62-2.88,8.13-9.54,15.71-10.7a10.16,10.16,0,0,1,6,.63L42.06,10Z" opacity="0.2" fill="url(#linear-gradient-4)" style="isolation:isolate"/><polygon points="16.69 43 18 49 18 53 19 53 19 50 24.24 48.39 24 47 19 48.59 18 43 16.69 43" opacity="0.2" fill="url(#radial-gradient-8)" style="isolation:isolate"/><g id="FINAL_BADGE" data-name="FINAL BADGE"><path d="M29,14.75a7.25,7.25,0,0,0-14.39-1.22A7.25,7.25,0,1,0,22.42,22,7.26,7.26,0,0,0,29,14.75Z" fill="#fff"/><path d="M21.53,24.5a9,9,0,0,1-8.2-5.29.51.51,0,0,1,0-.48.5.5,0,0,1,.42-.23h5a.52.52,0,0,1,.32.11,3.94,3.94,0,0,0,2.48.89,4,4,0,0,0,0-8,3.94,3.94,0,0,0-2.48.89.52.52,0,0,1-.32.11H13.79a.5.5,0,0,1-.42-.23.51.51,0,0,1,0-.48A9,9,0,1,1,21.53,24.5Z" fill="#075081"/><path d="M21.53,7A8.5,8.5,0,1,1,13.8,19h4.94a4.5,4.5,0,1,0,0-7H13.8a8.47,8.47,0,0,1,7.73-5m0-1a9.52,9.52,0,0,0-8.65,5.59,1,1,0,0,0,.07.95,1,1,0,0,0,.84.46h4.94a1,1,0,0,0,.63-.22A3.43,3.43,0,0,1,21.53,12a3.5,3.5,0,0,1,0,7h0a3.43,3.43,0,0,1-2.17-.78,1,1,0,0,0-.63-.22H13.79a1,1,0,0,0-.84.46,1,1,0,0,0-.07.95A9.5,9.5,0,1,0,21.53,6Z" fill="#fff"/><path d="M15.53,30.5a9,9,0,1,1,8.2-12.71.51.51,0,0,1,0,.48.5.5,0,0,1-.42.23h-5a.52.52,0,0,1-.32-.11,3.94,3.94,0,0,0-2.48-.89,4,4,0,0,0,0,8,3.92,3.92,0,0,0,2.5-.89.52.52,0,0,1,.32-.11h4.94a.5.5,0,0,1,.42.23.51.51,0,0,1,0,.48A9,9,0,0,1,15.53,30.5Z" fill="#075081"/><path d="M15.53,13a8.49,8.49,0,0,1,7.74,5H18.33a4.5,4.5,0,1,0,0,7h4.94a8.5,8.5,0,1,1-7.74-12m0-1a9.5,9.5,0,1,0,8.65,13.41,1,1,0,0,0-.07-.95,1,1,0,0,0-.84-.46H18.33a1,1,0,0,0-.63.22,3.43,3.43,0,0,1-2.17.78,3.5,3.5,0,0,1,0-7,3.43,3.43,0,0,1,2.17.78,1,1,0,0,0,.63.22h4.94a1,1,0,0,0,.84-.46,1,1,0,0,0,.07-.95A9.52,9.52,0,0,0,15.53,12Z" fill="#fff"/></g></svg>