<svg xmlns="http://www.w3.org/2000/svg" xmlns:xlink="http://www.w3.org/1999/xlink" width="64" height="64" viewBox="0 0 64 64">
  <defs>
    <linearGradient id="a" x1="11" y1="35.5" x2="24" y2="35.5" gradientUnits="userSpaceOnUse">
      <stop offset="0" stop-color="#329a4f"/>
      <stop offset="1" stop-color="#2e914a"/>
    </linearGradient>
    <linearGradient id="b" x1="18" y1="44.5" x2="54" y2="44.5" gradientUnits="userSpaceOnUse">
      <stop offset="0" stop-color="#2d8e48"/>
      <stop offset="1" stop-color="#146230"/>
    </linearGradient>
    <radialGradient id="c" cx="11.667" cy="17.167" r="45.924" gradientUnits="userSpaceOnUse">
      <stop offset="0" stop-color="#c7db7a"/>
      <stop offset="0.215" stop-color="#52ad60"/>
      <stop offset="0.92" stop-color="#008641"/>
    </radialGradient>
    <radialGradient id="d" cx="13.833" cy="19.167" r="39.567" gradientUnits="userSpaceOnUse">
      <stop offset="0" stop-color="#75c151"/>
      <stop offset="1" stop-color="#52ad60"/>
    </radialGradient>
    <linearGradient id="f" data-name="New Gradient Swatch 1" x1="11.507" y1="17.146" x2="43.955" y2="23.469" gradientUnits="userSpaceOnUse">
      <stop offset="0" stop-color="#fff"/>
      <stop offset="1" stop-color="#fff" stop-opacity="0.2"/>
    </linearGradient>
    <radialGradient id="g" cx="19.345" cy="48.902" r="5.72" gradientTransform="matrix(0.905, -0.366, 0.215, 0.532, -9.121, 29.953)" gradientUnits="userSpaceOnUse">
      <stop offset="0" stop-color="#fff"/>
      <stop offset="1" stop-color="#fff" stop-opacity="0"/>
    </radialGradient>
  </defs>
  <title>4916_GEOWCON_AP_Appicon_r21x</title>
  <polygon points="11 17 11 21.5 18 54 24 49 16 17 11 17" fill="url(#a)"/>
  <polygon points="54 41.5 54 37 52 35 18 47 18 49.5 18 54 54 41.5" fill="url(#b)"/>
  <polygon points="11 17 18 49 54 37 42 10 11 17" fill="url(#c)"/>
  <g>
    <path d="M46.771,36.736,50.5,35.5,42.3,17.058c-2.695-.249-11.583-.523-17.794,5.71-6.1,6.117-5.821,16.933-5.264,22.16l.2.871,5.024-1.666-2.439-8.6,2.561-.521,2.425,8.274,4.455-1.478L27.079,29.329l2.561-.521,4.376,12.158,4.158-1.379L32.13,23.576l2.561-.52,6.035,15.685,3.489-1.157L36.991,19.019l2.561-.521Z" fill="url(#d)"/>
    <path d="M26.763,17.8A29.29,29.29,0,0,1,41.335,14.88L40.5,13,13.423,19.063l3.312,14.709C17.517,28.146,20.323,21.052,26.763,17.8Z" fill="url(#d)"/>
  </g>
  <path d="M11,17l2.943,13.455a16.691,16.691,0,0,0,11.143.314c8.628-2.879,8.136-9.535,15.714-10.7a10.189,10.189,0,0,1,5.993.629L42.057,10Z" opacity="0.2" fill="url(#f)"/>
  <polygon points="16.688 43 18 49 18 53 19 53 19 50 24.243 48.392 24 47 19 48.595 18 43 16.688 43" opacity="0.2" fill="url(#g)"/>
</svg>
