<svg id="Layer_10" data-name="Layer 10" xmlns="http://www.w3.org/2000/svg" xmlns:xlink="http://www.w3.org/1999/xlink" viewBox="0 0 64 64"><defs><style>.cls-1,.cls-43,.cls-45{fill:none;}.cls-2,.cls-44{fill:#053755;}.cls-2,.cls-43,.cls-45{stroke:#053755;stroke-linecap:round;}.cls-2,.cls-43{stroke-linejoin:round;}.cls-3{fill:#fff;}.cls-4{opacity:0.9;}.cls-5{fill:#285977;}.cls-6{clip-path:url(#clip-path);}.cls-7{fill:#231f20;}.cls-8{clip-path:url(#clip-path-2);}.cls-9{clip-path:url(#clip-path-3);}.cls-10{fill:#aadcfa;}.cls-11{fill:#797979;}.cls-12{fill:url(#New_Gradient_Swatch_1);}.cls-13{clip-path:url(#clip-path-4);}.cls-14{clip-path:url(#clip-path-6);}.cls-15{clip-path:url(#clip-path-7);}.cls-16{clip-path:url(#clip-path-8);}.cls-17{clip-path:url(#clip-path-9);}.cls-18{clip-path:url(#clip-path-10);}.cls-19{clip-path:url(#clip-path-11);}.cls-20{clip-path:url(#clip-path-12);}.cls-21{clip-path:url(#clip-path-13);}.cls-22{clip-path:url(#clip-path-14);}.cls-23{clip-path:url(#clip-path-15);}.cls-24{clip-path:url(#clip-path-16);}.cls-25{clip-path:url(#clip-path-17);}.cls-26{clip-path:url(#clip-path-18);}.cls-27{fill:url(#New_Gradient_Swatch_1-2);}.cls-28{fill:url(#linear-gradient);}.cls-29{clip-path:url(#clip-path-20);}.cls-30{clip-path:url(#clip-path-21);}.cls-31{clip-path:url(#clip-path-22);}.cls-32{clip-path:url(#clip-path-23);}.cls-33{clip-path:url(#clip-path-24);}.cls-34{clip-path:url(#clip-path-25);}.cls-35{clip-path:url(#clip-path-26);}.cls-36{fill:url(#New_Gradient_Swatch_1-3);}.cls-37{fill:url(#linear-gradient-2);}.cls-38{fill:url(#white_left);}.cls-39{fill:#323232;}.cls-40{fill:url(#linear-gradient-3);}.cls-41{fill:url(#linear-gradient-4);}.cls-42{fill:#ff0f0f;}.cls-43{stroke-width:0.5px;}.cls-45{stroke-miterlimit:10;stroke-width:0.25px;}</style><clipPath id="clip-path"><path class="cls-1" d="M23.15,43.29l.93,5.83L32,53.92,58.19,37.67V26s-8.75,9.78-13.42,14A124.78,124.78,0,0,1,32,49.33Z"/></clipPath><clipPath id="clip-path-2"><rect class="cls-1" x="18.56" y="44.13" width="7.31" height="7.43"/></clipPath><clipPath id="clip-path-3"><rect class="cls-1" x="18.56" y="51.56" width="7.31" height="7.43"/></clipPath><linearGradient id="New_Gradient_Swatch_1" x1="21.1" y1="31.23" x2="58.19" y2="31.23" gradientUnits="userSpaceOnUse"><stop offset="0" stop-color="#464646"/><stop offset="0.99" stop-color="#141414"/></linearGradient><clipPath id="clip-path-4"><polygon id="Rectangle_64_px" data-name="Rectangle 64 px" class="cls-1" points="60.08 38 32.01 55 32.01 33 60.08 22 60.08 38"/></clipPath><clipPath id="clip-path-6"><rect class="cls-1" x="55.09" y="21.84" width="7.31" height="7.43"/></clipPath><clipPath id="clip-path-7"><rect class="cls-1" x="55.09" y="29.27" width="7.31" height="7.43"/></clipPath><clipPath id="clip-path-8"><rect class="cls-1" x="55.09" y="36.7" width="7.31" height="7.43"/></clipPath><clipPath id="clip-path-9"><rect class="cls-1" x="47.78" y="21.84" width="7.31" height="7.43"/></clipPath><clipPath id="clip-path-10"><rect class="cls-1" x="47.78" y="29.27" width="7.31" height="7.43"/></clipPath><clipPath id="clip-path-11"><rect class="cls-1" x="47.78" y="36.7" width="7.31" height="7.43"/></clipPath><clipPath id="clip-path-12"><rect class="cls-1" x="40.48" y="36.7" width="7.31" height="7.43"/></clipPath><clipPath id="clip-path-13"><rect class="cls-1" x="40.48" y="44.13" width="7.31" height="7.43"/></clipPath><clipPath id="clip-path-14"><rect class="cls-1" x="33.17" y="36.7" width="7.31" height="7.43"/></clipPath><clipPath id="clip-path-15"><rect class="cls-1" x="33.17" y="44.13" width="7.31" height="7.43"/></clipPath><clipPath id="clip-path-16"><rect class="cls-1" x="33.17" y="51.56" width="7.31" height="7.43"/></clipPath><clipPath id="clip-path-17"><rect class="cls-1" x="25.87" y="44.13" width="7.31" height="7.43"/></clipPath><clipPath id="clip-path-18"><rect class="cls-1" x="25.87" y="51.56" width="7.31" height="7.43"/></clipPath><linearGradient id="New_Gradient_Swatch_1-2" x1="21.08" y1="31.23" x2="58.19" y2="31.23" xlink:href="#New_Gradient_Swatch_1"/><linearGradient id="linear-gradient" x1="9.16" y1="31.36" x2="20.58" y2="51.14" gradientUnits="userSpaceOnUse"><stop offset="0" stop-color="#aaa"/><stop offset="1" stop-color="#5a5a5a"/></linearGradient><clipPath id="clip-path-20"><polygon class="cls-1" points="23.35 44.51 22.24 37.23 6.49 27.43 6.49 32.9 23.35 44.51"/></clipPath><clipPath id="clip-path-21"><rect class="cls-1" x="18.56" y="29.27" width="7.31" height="7.43"/></clipPath><clipPath id="clip-path-22"><rect class="cls-1" x="18.56" y="36.7" width="7.31" height="7.43"/></clipPath><clipPath id="clip-path-23"><rect class="cls-1" x="11.25" y="29.27" width="7.31" height="7.43"/></clipPath><clipPath id="clip-path-24"><rect class="cls-1" x="11.25" y="36.7" width="7.31" height="7.43"/></clipPath><clipPath id="clip-path-25"><rect class="cls-1" x="3.95" y="21.84" width="7.31" height="7.43"/></clipPath><clipPath id="clip-path-26"><rect class="cls-1" x="3.95" y="29.27" width="7.31" height="7.43"/></clipPath><linearGradient id="New_Gradient_Swatch_1-3" x1="6.49" y1="20.07" x2="16.17" y2="20.07" xlink:href="#New_Gradient_Swatch_1"/><linearGradient id="linear-gradient-2" x1="36.32" y1="20.72" x2="42.83" y2="31.99" gradientUnits="userSpaceOnUse"><stop offset="0" stop-color="#aaa"/><stop offset="0.04" stop-color="#a2a2a2"/><stop offset="0.19" stop-color="#838383"/><stop offset="0.35" stop-color="#6c6c6c"/><stop offset="0.49" stop-color="#5f5f5f"/><stop offset="0.62" stop-color="#5a5a5a"/></linearGradient><linearGradient id="white_left" x1="16.17" y1="23.79" x2="42.04" y2="23.79" gradientUnits="userSpaceOnUse"><stop offset="0" stop-color="#f5f5f5"/><stop offset="1" stop-color="#bebebe"/></linearGradient><linearGradient id="linear-gradient-3" x1="6.49" y1="16.15" x2="37.22" y2="16.15" xlink:href="#linear-gradient-2"/><linearGradient id="linear-gradient-4" x1="43.49" y1="22.66" x2="53.85" y2="40.61" gradientUnits="userSpaceOnUse"><stop offset="0" stop-color="#fc3f05"/><stop offset="1" stop-color="#c10e00"/></linearGradient></defs><title>wwwwww__A33AAe__R21XArtboard 1X   (64px)</title><polyline id="R_contour_" data-name="R contour ***" class="cls-2" points="6.72 38.84 31.96 54.23 58.33 37.81"/><polygon id="f_blanc" data-name="f blanc" class="cls-3" points="31.96 53.92 31.96 34.92 21.08 29.83 16.18 24.77 13.86 19.68 6.49 15.38 6.49 19.17 6.49 23.62 6.49 27.43 6.49 32.9 6.49 38.17 24.08 49.12 31.96 53.92"/><g id="F01_copy_2" data-name="F01 copy 2" class="cls-4"><path id="_Path_couleur" data-name="&lt;Path&gt;  couleur" class="cls-5" d="M23.15,43.29l.93,5.83L32,53.92,58.19,37.67V26s-8.75,9.78-13.42,14A124.78,124.78,0,0,1,32,49.33Z"/><g class="cls-6"><path class="cls-7" d="M29.52,52.31a.74.74,0,0,0,.73-.75.73.73,0,1,0-1.46,0A.74.74,0,0,0,29.52,52.31Z"/><path class="cls-7" d="M29.52,48.59a.74.74,0,0,0,.73-.74.73.73,0,1,0-1.46,0A.74.74,0,0,0,29.52,48.59Z"/><path class="cls-7" d="M27.69,50.45a.74.74,0,0,0,.73-.75.73.73,0,1,0-1.46,0A.74.74,0,0,0,27.69,50.45Z"/><path class="cls-7" d="M31.35,50.45a.74.74,0,0,0,.73-.75.73.73,0,1,0-.73.75Z"/><path class="cls-7" d="M27.69,46.73A.74.74,0,1,0,27,46,.73.73,0,0,0,27.69,46.73Z"/><path class="cls-7" d="M25.87,48.59a.74.74,0,0,0,.73-.74.73.73,0,1,0-1.46,0A.73.73,0,0,0,25.87,48.59Z"/><path class="cls-7" d="M31.35,54.16a.74.74,0,1,0-.73-.74A.74.74,0,0,0,31.35,54.16Z"/><path class="cls-7" d="M29.52,52.31a.74.74,0,0,0,.73-.75.73.73,0,1,0-1.46,0A.74.74,0,0,0,29.52,52.31Z"/><path class="cls-7" d="M25.87,44.87a.74.74,0,1,0-.73-.74A.74.74,0,0,0,25.87,44.87Z"/><path class="cls-7" d="M22.21,44.87a.74.74,0,1,0-.73-.74A.73.73,0,0,0,22.21,44.87Z"/><path class="cls-7" d="M18.56,44.87a.74.74,0,1,0-.73-.74A.74.74,0,0,0,18.56,44.87Z"/><g class="cls-8"><path class="cls-7" d="M25.87,52.31a.74.74,0,0,0,.73-.75.73.73,0,1,0-.73.75Z"/><path class="cls-7" d="M22.21,52.31a.74.74,0,0,0,.73-.75.73.73,0,1,0-1.46,0A.74.74,0,0,0,22.21,52.31Z"/><path class="cls-7" d="M25.87,48.59a.74.74,0,0,0,.73-.74.73.73,0,1,0-1.46,0A.73.73,0,0,0,25.87,48.59Z"/><path class="cls-7" d="M22.21,48.59a.73.73,0,0,0,.73-.74.73.73,0,1,0-.73.74Z"/><path class="cls-7" d="M20.39,50.45a.74.74,0,0,0,.73-.75.73.73,0,1,0-.73.75Z"/><path class="cls-7" d="M24,50.45a.74.74,0,0,0,.73-.75.73.73,0,1,0-1.46,0A.74.74,0,0,0,24,50.45Z"/><path class="cls-7" d="M20.39,46.73a.74.74,0,1,0-.73-.74A.74.74,0,0,0,20.39,46.73Z"/><path class="cls-7" d="M24,46.73a.74.74,0,1,0-.73-.74A.74.74,0,0,0,24,46.73Z"/><path class="cls-7" d="M18.56,52.31a.74.74,0,0,0,.73-.75.73.73,0,1,0-1.46,0A.74.74,0,0,0,18.56,52.31Z"/><path class="cls-7" d="M18.56,48.59a.74.74,0,0,0,.73-.74.73.73,0,1,0-1.46,0A.74.74,0,0,0,18.56,48.59Z"/><path class="cls-7" d="M25.87,44.87a.74.74,0,1,0-.73-.74A.74.74,0,0,0,25.87,44.87Z"/><path class="cls-7" d="M22.21,44.87a.74.74,0,1,0-.73-.74A.73.73,0,0,0,22.21,44.87Z"/><path class="cls-7" d="M18.56,44.87a.74.74,0,1,0-.73-.74A.74.74,0,0,0,18.56,44.87Z"/></g><g class="cls-9"><path class="cls-7" d="M25.87,59.74A.74.74,0,0,0,26.6,59a.73.73,0,1,0-.73.75Z"/><path class="cls-7" d="M22.21,59.74a.74.74,0,0,0,.73-.75.73.73,0,1,0-1.46,0A.74.74,0,0,0,22.21,59.74Z"/><path class="cls-7" d="M25.87,56a.74.74,0,0,0,.73-.74.73.73,0,1,0-1.46,0A.73.73,0,0,0,25.87,56Z"/><path class="cls-7" d="M22.21,56a.73.73,0,0,0,.73-.74.73.73,0,1,0-.73.74Z"/><path class="cls-7" d="M20.39,57.88a.75.75,0,1,0-.73-.74A.74.74,0,0,0,20.39,57.88Z"/><path class="cls-7" d="M24,57.88a.75.75,0,1,0-.73-.74A.74.74,0,0,0,24,57.88Z"/><path class="cls-7" d="M20.39,54.16a.74.74,0,1,0-.73-.74A.74.74,0,0,0,20.39,54.16Z"/><path class="cls-7" d="M24,54.16a.74.74,0,1,0-.73-.74A.74.74,0,0,0,24,54.16Z"/><path class="cls-7" d="M18.56,59.74a.74.74,0,0,0,.73-.75.73.73,0,1,0-1.46,0A.74.74,0,0,0,18.56,59.74Z"/><path class="cls-7" d="M18.56,56a.74.74,0,0,0,.73-.74.73.73,0,1,0-1.46,0A.74.74,0,0,0,18.56,56Z"/><path class="cls-7" d="M25.87,52.31a.74.74,0,0,0,.73-.75.73.73,0,1,0-.73.75Z"/><path class="cls-7" d="M22.21,52.31a.74.74,0,0,0,.73-.75.73.73,0,1,0-1.46,0A.74.74,0,0,0,22.21,52.31Z"/><path class="cls-7" d="M18.56,52.31a.74.74,0,0,0,.73-.75.73.73,0,1,0-1.46,0A.74.74,0,0,0,18.56,52.31Z"/></g></g><path class="cls-10" d="M23.15,43.29l-.73-4.85L32,44.89l6.92-4.3,7.4-8.92L58.19,26s-8.75,9.78-13.42,14A124.78,124.78,0,0,1,32,49.33Z"/><polygon class="cls-11" points="21.74 34 22.42 38.44 31.96 44.88 38.88 40.59 46.28 31.67 31.96 39.33 21.74 34"/><polygon class="cls-12" points="21.74 34 21.1 29.83 31.96 34.92 58.19 23.12 58.19 25.99 46.28 31.67 31.96 39.33 21.74 34"/></g><g class="cls-13"><path class="cls-5" d="M23.15,43.29l.93,5.83L32,53.92,58.19,37.67V26s-8.75,9.78-13.42,14A124.78,124.78,0,0,1,32,49.33Z"/><g class="cls-6"><g class="cls-14"><path class="cls-7" d="M62.4,30a.74.74,0,1,0-.73-.74A.74.74,0,0,0,62.4,30Z"/><path class="cls-7" d="M58.74,30a.74.74,0,1,0-.73-.74A.73.73,0,0,0,58.74,30Z"/><path class="cls-7" d="M62.4,26.3a.75.75,0,0,0,0-1.49.75.75,0,0,0,0,1.49Z"/><path class="cls-7" d="M58.74,26.3a.75.75,0,1,0-.73-.75A.73.73,0,0,0,58.74,26.3Z"/><path class="cls-7" d="M56.92,28.16a.74.74,0,0,0,.73-.75.73.73,0,1,0-.73.75Z"/><path class="cls-7" d="M60.57,28.16a.74.74,0,0,0,.73-.75.73.73,0,1,0-1.46,0A.74.74,0,0,0,60.57,28.16Z"/><path class="cls-7" d="M56.92,24.44a.74.74,0,0,0,.73-.74.73.73,0,1,0-1.46,0A.73.73,0,0,0,56.92,24.44Z"/><path class="cls-7" d="M60.57,24.44a.74.74,0,0,0,.73-.74.73.73,0,1,0-1.46,0A.74.74,0,0,0,60.57,24.44Z"/><path class="cls-7" d="M55.09,30a.74.74,0,1,0-.73-.74A.74.74,0,0,0,55.09,30Z"/><path class="cls-7" d="M55.09,26.3a.75.75,0,1,0-.73-.75A.74.74,0,0,0,55.09,26.3Z"/><path class="cls-7" d="M62.4,22.58a.74.74,0,1,0-.73-.74A.74.74,0,0,0,62.4,22.58Z"/><path class="cls-7" d="M58.74,22.58a.74.74,0,1,0-.73-.74A.73.73,0,0,0,58.74,22.58Z"/><path class="cls-7" d="M55.09,22.58a.74.74,0,1,0-.73-.74A.74.74,0,0,0,55.09,22.58Z"/></g><g class="cls-15"><path class="cls-7" d="M62.4,37.44a.74.74,0,1,0-.73-.74A.74.74,0,0,0,62.4,37.44Z"/><path class="cls-7" d="M58.74,37.44A.74.74,0,1,0,58,36.7.73.73,0,0,0,58.74,37.44Z"/><path class="cls-7" d="M62.4,33.73a.74.74,0,0,0,.73-.74.73.73,0,1,0-1.46,0A.73.73,0,0,0,62.4,33.73Z"/><path class="cls-7" d="M58.74,33.73a.73.73,0,0,0,.73-.74.73.73,0,1,0-.73.74Z"/><path class="cls-7" d="M56.92,35.59a.74.74,0,0,0,.73-.75.73.73,0,1,0-.73.75Z"/><path class="cls-7" d="M60.57,35.59a.74.74,0,0,0,.73-.75.73.73,0,1,0-1.46,0A.74.74,0,0,0,60.57,35.59Z"/><path class="cls-7" d="M56.92,31.87a.74.74,0,0,0,.73-.74.73.73,0,1,0-1.46,0A.73.73,0,0,0,56.92,31.87Z"/><path class="cls-7" d="M60.57,31.87a.74.74,0,0,0,.73-.74.73.73,0,1,0-1.46,0A.74.74,0,0,0,60.57,31.87Z"/><path class="cls-7" d="M55.09,37.44a.74.74,0,1,0-.73-.74A.74.74,0,0,0,55.09,37.44Z"/><path class="cls-7" d="M55.09,33.73a.74.74,0,0,0,.73-.74.73.73,0,1,0-1.46,0A.74.74,0,0,0,55.09,33.73Z"/><path class="cls-7" d="M62.4,30a.74.74,0,1,0-.73-.74A.74.74,0,0,0,62.4,30Z"/><path class="cls-7" d="M58.74,30a.74.74,0,1,0-.73-.74A.73.73,0,0,0,58.74,30Z"/><path class="cls-7" d="M55.09,30a.74.74,0,1,0-.73-.74A.74.74,0,0,0,55.09,30Z"/></g><g class="cls-16"><path class="cls-7" d="M62.4,44.87a.74.74,0,1,0-.73-.74A.74.74,0,0,0,62.4,44.87Z"/><path class="cls-7" d="M58.74,44.87a.74.74,0,1,0-.73-.74A.73.73,0,0,0,58.74,44.87Z"/><path class="cls-7" d="M62.4,41.16a.74.74,0,0,0,.73-.74.73.73,0,1,0-1.46,0A.73.73,0,0,0,62.4,41.16Z"/><path class="cls-7" d="M58.74,41.16a.73.73,0,0,0,.73-.74.73.73,0,1,0-.73.74Z"/><path class="cls-7" d="M56.92,43a.74.74,0,0,0,.73-.75.73.73,0,1,0-.73.75Z"/><path class="cls-7" d="M60.57,43a.74.74,0,0,0,.73-.75.73.73,0,1,0-1.46,0A.74.74,0,0,0,60.57,43Z"/><path class="cls-7" d="M56.92,39.3a.74.74,0,1,0-.73-.74A.74.74,0,0,0,56.92,39.3Z"/><path class="cls-7" d="M60.57,39.3a.74.74,0,1,0-.73-.74A.74.74,0,0,0,60.57,39.3Z"/><path class="cls-7" d="M55.09,44.87a.74.74,0,1,0-.73-.74A.74.74,0,0,0,55.09,44.87Z"/><path class="cls-7" d="M55.09,41.16a.74.74,0,0,0,.73-.74.73.73,0,1,0-1.46,0A.74.74,0,0,0,55.09,41.16Z"/><path class="cls-7" d="M62.4,37.44a.74.74,0,1,0-.73-.74A.74.74,0,0,0,62.4,37.44Z"/><path class="cls-7" d="M58.74,37.44A.74.74,0,1,0,58,36.7.73.73,0,0,0,58.74,37.44Z"/><path class="cls-7" d="M55.09,37.44a.74.74,0,1,0-.73-.74A.74.74,0,0,0,55.09,37.44Z"/></g><g class="cls-17"><path class="cls-7" d="M55.09,30a.74.74,0,1,0-.73-.74A.74.74,0,0,0,55.09,30Z"/><path class="cls-7" d="M51.44,30a.74.74,0,1,0-.73-.74A.74.74,0,0,0,51.44,30Z"/><path class="cls-7" d="M55.09,26.3a.75.75,0,1,0-.73-.75A.74.74,0,0,0,55.09,26.3Z"/><path class="cls-7" d="M51.44,26.3a.75.75,0,0,0,0-1.49.75.75,0,0,0,0,1.49Z"/><path class="cls-7" d="M49.61,28.16a.74.74,0,0,0,.73-.75.73.73,0,1,0-1.46,0A.74.74,0,0,0,49.61,28.16Z"/><path class="cls-7" d="M53.26,28.16a.74.74,0,0,0,.73-.75.73.73,0,1,0-1.46,0A.74.74,0,0,0,53.26,28.16Z"/><path class="cls-7" d="M49.61,24.44a.74.74,0,0,0,.73-.74.73.73,0,1,0-1.46,0A.74.74,0,0,0,49.61,24.44Z"/><path class="cls-7" d="M53.26,24.44A.73.73,0,0,0,54,23.7a.73.73,0,1,0-.73.74Z"/><path class="cls-7" d="M47.78,30a.74.74,0,1,0-.73-.74A.73.73,0,0,0,47.78,30Z"/><path class="cls-7" d="M47.78,26.3a.75.75,0,1,0-.73-.75A.73.73,0,0,0,47.78,26.3Z"/><path class="cls-7" d="M55.09,22.58a.74.74,0,1,0-.73-.74A.74.74,0,0,0,55.09,22.58Z"/><path class="cls-7" d="M51.44,22.58a.74.74,0,1,0-.73-.74A.74.74,0,0,0,51.44,22.58Z"/><path class="cls-7" d="M47.78,22.58a.74.74,0,1,0-.73-.74A.73.73,0,0,0,47.78,22.58Z"/></g><g class="cls-18"><path class="cls-7" d="M55.09,37.44a.74.74,0,1,0-.73-.74A.74.74,0,0,0,55.09,37.44Z"/><path class="cls-7" d="M51.44,37.44a.74.74,0,1,0-.73-.74A.74.74,0,0,0,51.44,37.44Z"/><path class="cls-7" d="M55.09,33.73a.74.74,0,0,0,.73-.74.73.73,0,1,0-1.46,0A.74.74,0,0,0,55.09,33.73Z"/><path class="cls-7" d="M51.44,33.73a.74.74,0,0,0,.73-.74.73.73,0,1,0-1.46,0A.73.73,0,0,0,51.44,33.73Z"/><path class="cls-7" d="M49.61,35.59a.74.74,0,0,0,.73-.75.73.73,0,1,0-1.46,0A.74.74,0,0,0,49.61,35.59Z"/><path class="cls-7" d="M53.26,35.59a.74.74,0,0,0,.73-.75.73.73,0,1,0-1.46,0A.74.74,0,0,0,53.26,35.59Z"/><path class="cls-7" d="M49.61,31.87a.74.74,0,0,0,.73-.74.73.73,0,1,0-1.46,0A.74.74,0,0,0,49.61,31.87Z"/><path class="cls-7" d="M53.26,31.87a.73.73,0,0,0,.73-.74.73.73,0,1,0-.73.74Z"/><path class="cls-7" d="M47.78,37.44a.74.74,0,1,0-.73-.74A.73.73,0,0,0,47.78,37.44Z"/><path class="cls-7" d="M47.78,33.73a.73.73,0,0,0,.73-.74.73.73,0,1,0-.73.74Z"/><path class="cls-7" d="M55.09,30a.74.74,0,1,0-.73-.74A.74.74,0,0,0,55.09,30Z"/><path class="cls-7" d="M51.44,30a.74.74,0,1,0-.73-.74A.74.74,0,0,0,51.44,30Z"/><path class="cls-7" d="M47.78,30a.74.74,0,1,0-.73-.74A.73.73,0,0,0,47.78,30Z"/></g><g class="cls-19"><path class="cls-7" d="M55.09,44.87a.74.74,0,1,0-.73-.74A.74.74,0,0,0,55.09,44.87Z"/><path class="cls-7" d="M51.44,44.87a.74.74,0,1,0-.73-.74A.74.74,0,0,0,51.44,44.87Z"/><path class="cls-7" d="M55.09,41.16a.74.74,0,0,0,.73-.74.73.73,0,1,0-1.46,0A.74.74,0,0,0,55.09,41.16Z"/><path class="cls-7" d="M51.44,41.16a.74.74,0,0,0,.73-.74.73.73,0,1,0-1.46,0A.73.73,0,0,0,51.44,41.16Z"/><path class="cls-7" d="M49.61,43a.74.74,0,0,0,.73-.75.73.73,0,1,0-1.46,0A.74.74,0,0,0,49.61,43Z"/><path class="cls-7" d="M53.26,43a.74.74,0,0,0,.73-.75.73.73,0,1,0-1.46,0A.74.74,0,0,0,53.26,43Z"/><path class="cls-7" d="M49.61,39.3a.74.74,0,1,0-.73-.74A.74.74,0,0,0,49.61,39.3Z"/><path class="cls-7" d="M53.26,39.3a.74.74,0,1,0-.73-.74A.73.73,0,0,0,53.26,39.3Z"/><path class="cls-7" d="M47.78,44.87a.74.74,0,1,0-.73-.74A.73.73,0,0,0,47.78,44.87Z"/><path class="cls-7" d="M47.78,41.16a.73.73,0,0,0,.73-.74.73.73,0,1,0-.73.74Z"/><path class="cls-7" d="M55.09,37.44a.74.74,0,1,0-.73-.74A.74.74,0,0,0,55.09,37.44Z"/><path class="cls-7" d="M51.44,37.44a.74.74,0,1,0-.73-.74A.74.74,0,0,0,51.44,37.44Z"/><path class="cls-7" d="M47.78,37.44a.74.74,0,1,0-.73-.74A.73.73,0,0,0,47.78,37.44Z"/></g><g class="cls-20"><path class="cls-7" d="M47.78,44.87a.74.74,0,1,0-.73-.74A.73.73,0,0,0,47.78,44.87Z"/><path class="cls-7" d="M44.13,44.87a.74.74,0,1,0-.73-.74A.74.74,0,0,0,44.13,44.87Z"/><path class="cls-7" d="M47.78,41.16a.73.73,0,0,0,.73-.74.73.73,0,1,0-.73.74Z"/><path class="cls-7" d="M44.13,41.16a.74.74,0,0,0,.73-.74.73.73,0,1,0-1.46,0A.74.74,0,0,0,44.13,41.16Z"/><path class="cls-7" d="M42.3,43a.75.75,0,0,0,.74-.75.74.74,0,1,0-.74.75Z"/><path class="cls-7" d="M46,43a.74.74,0,0,0,.73-.75A.73.73,0,1,0,46,43Z"/><path class="cls-7" d="M42.3,39.3a.74.74,0,1,0-.73-.74A.74.74,0,0,0,42.3,39.3Z"/><path class="cls-7" d="M46,39.3a.74.74,0,1,0-.73-.74A.74.74,0,0,0,46,39.3Z"/><path class="cls-7" d="M40.48,44.87a.74.74,0,1,0-.73-.74A.74.74,0,0,0,40.48,44.87Z"/><path class="cls-7" d="M40.48,41.16a.74.74,0,0,0,.73-.74.73.73,0,1,0-1.46,0A.73.73,0,0,0,40.48,41.16Z"/><path class="cls-7" d="M47.78,37.44a.74.74,0,1,0-.73-.74A.73.73,0,0,0,47.78,37.44Z"/><path class="cls-7" d="M44.13,37.44a.74.74,0,1,0-.73-.74A.74.74,0,0,0,44.13,37.44Z"/><path class="cls-7" d="M40.48,37.44a.74.74,0,1,0-.73-.74A.74.74,0,0,0,40.48,37.44Z"/></g><g class="cls-21"><path class="cls-7" d="M47.78,52.31a.74.74,0,0,0,.73-.75.73.73,0,1,0-1.46,0A.74.74,0,0,0,47.78,52.31Z"/><path class="cls-7" d="M44.13,52.31a.74.74,0,0,0,.73-.75.73.73,0,1,0-1.46,0A.74.74,0,0,0,44.13,52.31Z"/><path class="cls-7" d="M47.78,48.59a.73.73,0,0,0,.73-.74.73.73,0,1,0-.73.74Z"/><path class="cls-7" d="M44.13,48.59a.74.74,0,0,0,.73-.74.73.73,0,1,0-1.46,0A.74.74,0,0,0,44.13,48.59Z"/><path class="cls-7" d="M42.3,50.45A.75.75,0,0,0,43,49.7a.74.74,0,1,0-.74.75Z"/><path class="cls-7" d="M46,50.45a.74.74,0,0,0,.73-.75.73.73,0,1,0-.73.75Z"/><path class="cls-7" d="M42.3,46.73a.74.74,0,1,0-.73-.74A.74.74,0,0,0,42.3,46.73Z"/><path class="cls-7" d="M46,46.73a.74.74,0,1,0-.73-.74A.74.74,0,0,0,46,46.73Z"/><path class="cls-7" d="M40.48,52.31a.74.74,0,0,0,.73-.75.73.73,0,1,0-.73.75Z"/><path class="cls-7" d="M40.48,48.59a.74.74,0,0,0,.73-.74.73.73,0,1,0-1.46,0A.73.73,0,0,0,40.48,48.59Z"/><path class="cls-7" d="M47.78,44.87a.74.74,0,1,0-.73-.74A.73.73,0,0,0,47.78,44.87Z"/><path class="cls-7" d="M44.13,44.87a.74.74,0,1,0-.73-.74A.74.74,0,0,0,44.13,44.87Z"/><path class="cls-7" d="M40.48,44.87a.74.74,0,1,0-.73-.74A.74.74,0,0,0,40.48,44.87Z"/></g><g class="cls-22"><path class="cls-7" d="M40.48,44.87a.74.74,0,1,0-.73-.74A.74.74,0,0,0,40.48,44.87Z"/><path class="cls-7" d="M36.83,44.87a.74.74,0,1,0-.73-.74A.74.74,0,0,0,36.83,44.87Z"/><path class="cls-7" d="M40.48,41.16a.74.74,0,0,0,.73-.74.73.73,0,1,0-1.46,0A.73.73,0,0,0,40.48,41.16Z"/><path class="cls-7" d="M36.83,41.16a.74.74,0,0,0,.73-.74.73.73,0,1,0-1.46,0A.73.73,0,0,0,36.83,41.16Z"/><path class="cls-7" d="M35,43a.74.74,0,0,0,.73-.75.73.73,0,1,0-1.46,0A.74.74,0,0,0,35,43Z"/><path class="cls-7" d="M38.65,43a.74.74,0,0,0,.73-.75.73.73,0,1,0-1.46,0A.74.74,0,0,0,38.65,43Z"/><path class="cls-7" d="M35,39.3a.74.74,0,1,0-.73-.74A.74.74,0,0,0,35,39.3Z"/><path class="cls-7" d="M38.65,39.3a.74.74,0,1,0-.73-.74A.73.73,0,0,0,38.65,39.3Z"/><path class="cls-7" d="M33.17,44.87a.74.74,0,1,0-.73-.74A.73.73,0,0,0,33.17,44.87Z"/><path class="cls-7" d="M33.17,41.16a.73.73,0,0,0,.73-.74.73.73,0,1,0-.73.74Z"/><path class="cls-7" d="M40.48,37.44a.74.74,0,1,0-.73-.74A.74.74,0,0,0,40.48,37.44Z"/><path class="cls-7" d="M36.83,37.44a.74.74,0,1,0-.73-.74A.74.74,0,0,0,36.83,37.44Z"/><path class="cls-7" d="M33.17,37.44a.74.74,0,1,0-.73-.74A.73.73,0,0,0,33.17,37.44Z"/></g><g class="cls-23"><path class="cls-7" d="M40.48,52.31a.74.74,0,0,0,.73-.75.73.73,0,1,0-.73.75Z"/><path class="cls-7" d="M36.83,52.31a.74.74,0,0,0,.73-.75.73.73,0,1,0-.73.75Z"/><path class="cls-7" d="M40.48,48.59a.74.74,0,0,0,.73-.74.73.73,0,1,0-1.46,0A.73.73,0,0,0,40.48,48.59Z"/><path class="cls-7" d="M36.83,48.59a.74.74,0,0,0,.73-.74.73.73,0,1,0-1.46,0A.73.73,0,0,0,36.83,48.59Z"/><path class="cls-7" d="M35,50.45a.74.74,0,0,0,.73-.75.73.73,0,1,0-1.46,0A.74.74,0,0,0,35,50.45Z"/><path class="cls-7" d="M38.65,50.45a.74.74,0,0,0,.73-.75.73.73,0,1,0-1.46,0A.74.74,0,0,0,38.65,50.45Z"/><path class="cls-7" d="M35,46.73a.74.74,0,1,0-.73-.74A.74.74,0,0,0,35,46.73Z"/><path class="cls-7" d="M38.65,46.73a.74.74,0,1,0-.73-.74A.73.73,0,0,0,38.65,46.73Z"/><path class="cls-7" d="M33.17,52.31a.74.74,0,0,0,.73-.75.73.73,0,1,0-1.46,0A.74.74,0,0,0,33.17,52.31Z"/><path class="cls-7" d="M33.17,48.59a.73.73,0,0,0,.73-.74.73.73,0,1,0-.73.74Z"/><path class="cls-7" d="M40.48,44.87a.74.74,0,1,0-.73-.74A.74.74,0,0,0,40.48,44.87Z"/><path class="cls-7" d="M36.83,44.87a.74.74,0,1,0-.73-.74A.74.74,0,0,0,36.83,44.87Z"/><path class="cls-7" d="M33.17,44.87a.74.74,0,1,0-.73-.74A.73.73,0,0,0,33.17,44.87Z"/></g><g class="cls-24"><path class="cls-7" d="M40.48,59.74a.74.74,0,0,0,.73-.75.73.73,0,1,0-.73.75Z"/><path class="cls-7" d="M36.83,59.74a.74.74,0,0,0,.73-.75.73.73,0,1,0-.73.75Z"/><path class="cls-7" d="M40.48,56a.74.74,0,0,0,.73-.74.73.73,0,1,0-1.46,0A.73.73,0,0,0,40.48,56Z"/><path class="cls-7" d="M36.83,56a.74.74,0,0,0,.73-.74.73.73,0,1,0-1.46,0A.73.73,0,0,0,36.83,56Z"/><path class="cls-7" d="M35,57.88a.75.75,0,1,0-.73-.74A.74.74,0,0,0,35,57.88Z"/><path class="cls-7" d="M38.65,57.88a.75.75,0,0,0,0-1.49.75.75,0,0,0,0,1.49Z"/><path class="cls-7" d="M35,54.16a.74.74,0,1,0-.73-.74A.74.74,0,0,0,35,54.16Z"/><path class="cls-7" d="M38.65,54.16a.74.74,0,1,0-.73-.74A.73.73,0,0,0,38.65,54.16Z"/><path class="cls-7" d="M33.17,59.74A.74.74,0,0,0,33.9,59a.73.73,0,1,0-1.46,0A.74.74,0,0,0,33.17,59.74Z"/><path class="cls-7" d="M33.17,56a.73.73,0,0,0,.73-.74.73.73,0,1,0-.73.74Z"/><path class="cls-7" d="M40.48,52.31a.74.74,0,0,0,.73-.75.73.73,0,1,0-.73.75Z"/><path class="cls-7" d="M36.83,52.31a.74.74,0,0,0,.73-.75.73.73,0,1,0-.73.75Z"/><path class="cls-7" d="M33.17,52.31a.74.74,0,0,0,.73-.75.73.73,0,1,0-1.46,0A.74.74,0,0,0,33.17,52.31Z"/></g><g class="cls-25"><path class="cls-7" d="M33.17,52.31a.74.74,0,0,0,.73-.75.73.73,0,1,0-1.46,0A.74.74,0,0,0,33.17,52.31Z"/><path class="cls-7" d="M29.52,52.31a.74.74,0,0,0,.73-.75.73.73,0,1,0-1.46,0A.74.74,0,0,0,29.52,52.31Z"/><path class="cls-7" d="M33.17,48.59a.73.73,0,0,0,.73-.74.73.73,0,1,0-.73.74Z"/><path class="cls-7" d="M29.52,48.59a.74.74,0,0,0,.73-.74.73.73,0,1,0-1.46,0A.74.74,0,0,0,29.52,48.59Z"/><path class="cls-7" d="M27.69,50.45a.74.74,0,0,0,.73-.75.73.73,0,1,0-1.46,0A.74.74,0,0,0,27.69,50.45Z"/><path class="cls-7" d="M31.35,50.45a.74.74,0,0,0,.73-.75.73.73,0,1,0-.73.75Z"/><path class="cls-7" d="M27.69,46.73A.74.74,0,1,0,27,46,.73.73,0,0,0,27.69,46.73Z"/><path class="cls-7" d="M31.35,46.73a.74.74,0,1,0-.73-.74A.74.74,0,0,0,31.35,46.73Z"/><path class="cls-7" d="M25.87,52.31a.74.74,0,0,0,.73-.75.73.73,0,1,0-.73.75Z"/><path class="cls-7" d="M25.87,48.59a.74.74,0,0,0,.73-.74.73.73,0,1,0-1.46,0A.73.73,0,0,0,25.87,48.59Z"/><path class="cls-7" d="M33.17,44.87a.74.74,0,1,0-.73-.74A.73.73,0,0,0,33.17,44.87Z"/><path class="cls-7" d="M29.52,44.87a.74.74,0,1,0-.73-.74A.74.74,0,0,0,29.52,44.87Z"/><path class="cls-7" d="M25.87,44.87a.74.74,0,1,0-.73-.74A.74.74,0,0,0,25.87,44.87Z"/></g><g class="cls-26"><path class="cls-7" d="M33.17,59.74A.74.74,0,0,0,33.9,59a.73.73,0,1,0-1.46,0A.74.74,0,0,0,33.17,59.74Z"/><path class="cls-7" d="M29.52,59.74a.74.74,0,0,0,.73-.75.73.73,0,1,0-1.46,0A.74.74,0,0,0,29.52,59.74Z"/><path class="cls-7" d="M33.17,56a.73.73,0,0,0,.73-.74.73.73,0,1,0-.73.74Z"/><path class="cls-7" d="M29.52,56a.74.74,0,0,0,.73-.74.73.73,0,1,0-1.46,0A.74.74,0,0,0,29.52,56Z"/><path class="cls-7" d="M27.69,57.88a.75.75,0,0,0,0-1.49.75.75,0,0,0,0,1.49Z"/><path class="cls-7" d="M31.35,57.88a.75.75,0,1,0-.73-.74A.74.74,0,0,0,31.35,57.88Z"/><path class="cls-7" d="M27.69,54.16a.74.74,0,1,0-.73-.74A.73.73,0,0,0,27.69,54.16Z"/><path class="cls-7" d="M31.35,54.16a.74.74,0,1,0-.73-.74A.74.74,0,0,0,31.35,54.16Z"/><path class="cls-7" d="M25.87,59.74A.74.74,0,0,0,26.6,59a.73.73,0,1,0-.73.75Z"/><path class="cls-7" d="M25.87,56a.74.74,0,0,0,.73-.74.73.73,0,1,0-1.46,0A.73.73,0,0,0,25.87,56Z"/><path class="cls-7" d="M33.17,52.31a.74.74,0,0,0,.73-.75.73.73,0,1,0-1.46,0A.74.74,0,0,0,33.17,52.31Z"/><path class="cls-7" d="M29.52,52.31a.74.74,0,0,0,.73-.75.73.73,0,1,0-1.46,0A.74.74,0,0,0,29.52,52.31Z"/><path class="cls-7" d="M25.87,52.31a.74.74,0,0,0,.73-.75.73.73,0,1,0-.73.75Z"/></g><g class="cls-8"><path class="cls-7" d="M25.87,52.31a.74.74,0,0,0,.73-.75.73.73,0,1,0-.73.75Z"/><path class="cls-7" d="M22.21,52.31a.74.74,0,0,0,.73-.75.73.73,0,1,0-1.46,0A.74.74,0,0,0,22.21,52.31Z"/><path class="cls-7" d="M25.87,48.59a.74.74,0,0,0,.73-.74.73.73,0,1,0-1.46,0A.73.73,0,0,0,25.87,48.59Z"/><path class="cls-7" d="M22.21,48.59a.73.73,0,0,0,.73-.74.73.73,0,1,0-.73.74Z"/><path class="cls-7" d="M20.39,50.45a.74.74,0,0,0,.73-.75.73.73,0,1,0-.73.75Z"/><path class="cls-7" d="M24,50.45a.74.74,0,0,0,.73-.75.73.73,0,1,0-1.46,0A.74.74,0,0,0,24,50.45Z"/><path class="cls-7" d="M20.39,46.73a.74.74,0,1,0-.73-.74A.74.74,0,0,0,20.39,46.73Z"/><path class="cls-7" d="M24,46.73a.74.74,0,1,0-.73-.74A.74.74,0,0,0,24,46.73Z"/><path class="cls-7" d="M18.56,52.31a.74.74,0,0,0,.73-.75.73.73,0,1,0-1.46,0A.74.74,0,0,0,18.56,52.31Z"/><path class="cls-7" d="M18.56,48.59a.74.74,0,0,0,.73-.74.73.73,0,1,0-1.46,0A.74.74,0,0,0,18.56,48.59Z"/><path class="cls-7" d="M25.87,44.87a.74.74,0,1,0-.73-.74A.74.74,0,0,0,25.87,44.87Z"/><path class="cls-7" d="M22.21,44.87a.74.74,0,1,0-.73-.74A.73.73,0,0,0,22.21,44.87Z"/><path class="cls-7" d="M18.56,44.87a.74.74,0,1,0-.73-.74A.74.74,0,0,0,18.56,44.87Z"/></g></g><path class="cls-10" d="M23.15,43.29l-.73-4.85L32,44.89l6.92-4.3,7.4-8.92L58.19,26s-8.75,9.78-13.42,14A124.78,124.78,0,0,1,32,49.33Z"/><polygon class="cls-11" points="21.74 34 22.42 38.44 31.96 44.88 38.88 40.59 46.28 31.67 31.96 39.33 21.74 34"/><polygon class="cls-27" points="21.74 34 21.08 29.83 31.96 34.92 58.19 23.12 58.19 25.99 46.28 31.67 31.96 39.33 21.74 34"/></g><polygon class="cls-28" points="23.35 44.51 24.08 49.12 6.49 38.17 6.49 32.9 23.35 44.51"/><polygon class="cls-5" points="23.35 44.51 22.24 37.23 6.49 27.43 6.49 32.9 23.35 44.51"/><g class="cls-29"><g class="cls-30"><path class="cls-7" d="M25.87,37.44a.74.74,0,1,0-.73-.74A.74.74,0,0,0,25.87,37.44Z"/><path class="cls-7" d="M22.21,37.44a.74.74,0,1,0-.73-.74A.73.73,0,0,0,22.21,37.44Z"/><path class="cls-7" d="M25.87,33.73A.74.74,0,0,0,26.6,33a.73.73,0,1,0-1.46,0A.73.73,0,0,0,25.87,33.73Z"/><path class="cls-7" d="M22.21,33.73a.73.73,0,0,0,.73-.74.73.73,0,1,0-.73.74Z"/><path class="cls-7" d="M20.39,35.59a.74.74,0,0,0,.73-.75.73.73,0,1,0-.73.75Z"/><path class="cls-7" d="M24,35.59a.74.74,0,0,0,.73-.75.73.73,0,1,0-1.46,0A.74.74,0,0,0,24,35.59Z"/><path class="cls-7" d="M20.39,31.87a.74.74,0,0,0,.73-.74.73.73,0,1,0-1.46,0A.73.73,0,0,0,20.39,31.87Z"/><path class="cls-7" d="M24,31.87a.74.74,0,0,0,.73-.74.73.73,0,1,0-1.46,0A.74.74,0,0,0,24,31.87Z"/><path class="cls-7" d="M18.56,37.44a.74.74,0,1,0-.73-.74A.74.74,0,0,0,18.56,37.44Z"/><path class="cls-7" d="M18.56,33.73a.74.74,0,0,0,.73-.74.73.73,0,1,0-1.46,0A.74.74,0,0,0,18.56,33.73Z"/><path class="cls-7" d="M25.87,30a.74.74,0,1,0-.73-.74A.74.74,0,0,0,25.87,30Z"/><path class="cls-7" d="M22.21,30a.74.74,0,1,0-.73-.74A.73.73,0,0,0,22.21,30Z"/><path class="cls-7" d="M18.56,30a.74.74,0,1,0-.73-.74A.74.74,0,0,0,18.56,30Z"/></g><g class="cls-31"><path class="cls-7" d="M25.87,44.87a.74.74,0,1,0-.73-.74A.74.74,0,0,0,25.87,44.87Z"/><path class="cls-7" d="M22.21,44.87a.74.74,0,1,0-.73-.74A.73.73,0,0,0,22.21,44.87Z"/><path class="cls-7" d="M25.87,41.16a.74.74,0,0,0,.73-.74.73.73,0,1,0-1.46,0A.73.73,0,0,0,25.87,41.16Z"/><path class="cls-7" d="M22.21,41.16a.73.73,0,0,0,.73-.74.73.73,0,1,0-.73.74Z"/><path class="cls-7" d="M20.39,43a.74.74,0,0,0,.73-.75.73.73,0,1,0-.73.75Z"/><path class="cls-7" d="M24,43a.74.74,0,0,0,.73-.75.73.73,0,1,0-1.46,0A.74.74,0,0,0,24,43Z"/><path class="cls-7" d="M20.39,39.3a.74.74,0,1,0-.73-.74A.74.74,0,0,0,20.39,39.3Z"/><path class="cls-7" d="M24,39.3a.74.74,0,1,0-.73-.74A.74.74,0,0,0,24,39.3Z"/><path class="cls-7" d="M18.56,44.87a.74.74,0,1,0-.73-.74A.74.74,0,0,0,18.56,44.87Z"/><path class="cls-7" d="M18.56,41.16a.74.74,0,0,0,.73-.74.73.73,0,1,0-1.46,0A.74.74,0,0,0,18.56,41.16Z"/><path class="cls-7" d="M25.87,37.44a.74.74,0,1,0-.73-.74A.74.74,0,0,0,25.87,37.44Z"/><path class="cls-7" d="M22.21,37.44a.74.74,0,1,0-.73-.74A.73.73,0,0,0,22.21,37.44Z"/><path class="cls-7" d="M18.56,37.44a.74.74,0,1,0-.73-.74A.74.74,0,0,0,18.56,37.44Z"/></g><g class="cls-32"><path class="cls-7" d="M18.56,37.44a.74.74,0,1,0-.73-.74A.74.74,0,0,0,18.56,37.44Z"/><path class="cls-7" d="M14.91,37.44a.74.74,0,1,0-.73-.74A.74.74,0,0,0,14.91,37.44Z"/><path class="cls-7" d="M18.56,33.73a.74.74,0,0,0,.73-.74.73.73,0,1,0-1.46,0A.74.74,0,0,0,18.56,33.73Z"/><path class="cls-7" d="M14.91,33.73a.74.74,0,0,0,.73-.74.73.73,0,1,0-1.46,0A.73.73,0,0,0,14.91,33.73Z"/><path class="cls-7" d="M13.08,35.59a.74.74,0,0,0,.73-.75.73.73,0,1,0-1.46,0A.74.74,0,0,0,13.08,35.59Z"/><path class="cls-7" d="M16.73,35.59a.74.74,0,0,0,.73-.75.73.73,0,1,0-1.46,0A.74.74,0,0,0,16.73,35.59Z"/><path class="cls-7" d="M13.08,31.87a.74.74,0,0,0,.73-.74.73.73,0,1,0-1.46,0A.74.74,0,0,0,13.08,31.87Z"/><path class="cls-7" d="M16.73,31.87a.73.73,0,0,0,.73-.74.73.73,0,1,0-.73.74Z"/><path class="cls-7" d="M11.25,37.44a.74.74,0,1,0-.73-.74A.74.74,0,0,0,11.25,37.44Z"/><path class="cls-7" d="M11.25,33.73A.74.74,0,0,0,12,33a.74.74,0,1,0-1.47,0A.74.74,0,0,0,11.25,33.73Z"/><path class="cls-7" d="M18.56,30a.74.74,0,1,0-.73-.74A.74.74,0,0,0,18.56,30Z"/><path class="cls-7" d="M14.91,30a.74.74,0,1,0-.73-.74A.74.74,0,0,0,14.91,30Z"/><path class="cls-7" d="M11.25,30a.74.74,0,1,0-.73-.74A.74.74,0,0,0,11.25,30Z"/></g><g class="cls-33"><path class="cls-7" d="M18.56,44.87a.74.74,0,1,0-.73-.74A.74.74,0,0,0,18.56,44.87Z"/><path class="cls-7" d="M14.91,44.87a.74.74,0,1,0-.73-.74A.74.74,0,0,0,14.91,44.87Z"/><path class="cls-7" d="M18.56,41.16a.74.74,0,0,0,.73-.74.73.73,0,1,0-1.46,0A.74.74,0,0,0,18.56,41.16Z"/><path class="cls-7" d="M14.91,41.16a.74.74,0,0,0,.73-.74.73.73,0,1,0-1.46,0A.73.73,0,0,0,14.91,41.16Z"/><path class="cls-7" d="M13.08,43a.74.74,0,0,0,.73-.75.73.73,0,1,0-1.46,0A.74.74,0,0,0,13.08,43Z"/><path class="cls-7" d="M16.73,43a.74.74,0,0,0,.73-.75.73.73,0,1,0-1.46,0A.74.74,0,0,0,16.73,43Z"/><path class="cls-7" d="M13.08,39.3a.74.74,0,1,0-.73-.74A.74.74,0,0,0,13.08,39.3Z"/><path class="cls-7" d="M16.73,39.3a.74.74,0,1,0-.73-.74A.73.73,0,0,0,16.73,39.3Z"/><path class="cls-7" d="M11.25,44.87a.74.74,0,1,0-.73-.74A.74.74,0,0,0,11.25,44.87Z"/><path class="cls-7" d="M11.25,41.16a.74.74,0,0,0,.74-.74.74.74,0,1,0-1.47,0A.74.74,0,0,0,11.25,41.16Z"/><path class="cls-7" d="M18.56,37.44a.74.74,0,1,0-.73-.74A.74.74,0,0,0,18.56,37.44Z"/><path class="cls-7" d="M14.91,37.44a.74.74,0,1,0-.73-.74A.74.74,0,0,0,14.91,37.44Z"/><path class="cls-7" d="M11.25,37.44a.74.74,0,1,0-.73-.74A.74.74,0,0,0,11.25,37.44Z"/></g><g class="cls-34"><path class="cls-7" d="M11.25,30a.74.74,0,1,0-.73-.74A.74.74,0,0,0,11.25,30Z"/><path class="cls-7" d="M7.6,30a.74.74,0,1,0-.73-.74A.73.73,0,0,0,7.6,30Z"/><path class="cls-7" d="M11.25,26.3a.75.75,0,1,0-.73-.75A.74.74,0,0,0,11.25,26.3Z"/><path class="cls-7" d="M7.6,26.3a.75.75,0,1,0-.73-.75A.73.73,0,0,0,7.6,26.3Z"/><path class="cls-7" d="M5.78,28.16a.74.74,0,0,0,.73-.75.74.74,0,1,0-1.47,0A.75.75,0,0,0,5.78,28.16Z"/><path class="cls-7" d="M9.43,28.16a.74.74,0,0,0,.73-.75.73.73,0,1,0-.73.75Z"/><path class="cls-7" d="M5.78,24.44a.74.74,0,0,0,.73-.74.74.74,0,1,0-.73.74Z"/><path class="cls-7" d="M9.43,24.44a.74.74,0,0,0,.73-.74.73.73,0,1,0-1.46,0A.73.73,0,0,0,9.43,24.44Z"/><path class="cls-7" d="M4,30a.74.74,0,1,0-.73-.74A.74.74,0,0,0,4,30Z"/><path class="cls-7" d="M4,26.3a.75.75,0,1,0-.73-.75A.74.74,0,0,0,4,26.3Z"/><path class="cls-7" d="M11.25,22.58a.74.74,0,1,0-.73-.74A.74.74,0,0,0,11.25,22.58Z"/><path class="cls-7" d="M7.6,22.58a.74.74,0,1,0-.73-.74A.73.73,0,0,0,7.6,22.58Z"/><path class="cls-7" d="M4,22.58a.74.74,0,1,0-.73-.74A.74.74,0,0,0,4,22.58Z"/></g><g class="cls-35"><path class="cls-7" d="M11.25,37.44a.74.74,0,1,0-.73-.74A.74.74,0,0,0,11.25,37.44Z"/><path class="cls-7" d="M7.6,37.44a.74.74,0,1,0-.73-.74A.73.73,0,0,0,7.6,37.44Z"/><path class="cls-7" d="M11.25,33.73A.74.74,0,0,0,12,33a.74.74,0,1,0-1.47,0A.74.74,0,0,0,11.25,33.73Z"/><path class="cls-7" d="M7.6,33.73A.73.73,0,0,0,8.33,33a.73.73,0,1,0-.73.74Z"/><path class="cls-7" d="M5.78,35.59a.74.74,0,0,0,.73-.75.74.74,0,1,0-1.47,0A.75.75,0,0,0,5.78,35.59Z"/><path class="cls-7" d="M9.43,35.59a.74.74,0,0,0,.73-.75.73.73,0,1,0-.73.75Z"/><path class="cls-7" d="M5.78,31.87a.74.74,0,0,0,.73-.74.74.74,0,1,0-.73.74Z"/><path class="cls-7" d="M9.43,31.87a.74.74,0,0,0,.73-.74.73.73,0,1,0-1.46,0A.73.73,0,0,0,9.43,31.87Z"/><path class="cls-7" d="M4,37.44a.74.74,0,1,0-.73-.74A.74.74,0,0,0,4,37.44Z"/><path class="cls-7" d="M4,33.73A.74.74,0,0,0,4.68,33a.73.73,0,1,0-1.46,0A.74.74,0,0,0,4,33.73Z"/><path class="cls-7" d="M11.25,30a.74.74,0,1,0-.73-.74A.74.74,0,0,0,11.25,30Z"/><path class="cls-7" d="M7.6,30a.74.74,0,1,0-.73-.74A.73.73,0,0,0,7.6,30Z"/><path class="cls-7" d="M4,30a.74.74,0,1,0-.73-.74A.74.74,0,0,0,4,30Z"/></g></g><polygon class="cls-10" points="21.47 32.1 22.24 37.23 6.49 27.43 6.49 23.62 21.47 32.1"/><polygon class="cls-11" points="21.47 32.1 21.1 29.83 16.17 24.77 6.49 19.17 6.49 23.62 21.47 32.1"/><polygon class="cls-36" points="16.17 24.77 6.49 19.17 6.49 15.38 13.86 19.68 16.17 24.77"/><polygon class="cls-11" points="21.1 29.83 24.08 29.56 24.62 28 25.91 27.43 29.13 26.92 28 25.63 30.57 25.99 31.69 24.77 31.94 23.25 34.58 23.79 35.5 22.59 38.27 22.59 42.04 21.24 42.04 21.24 47.99 20.06 52.46 22.32 58.19 23.12 31.96 34.92 21.1 29.83"/><polygon class="cls-37" points="21.1 29.83 24.08 29.56 24.62 28 25.91 27.43 29.13 26.92 28 25.63 30.57 25.99 31.69 24.77 31.94 23.25 34.58 23.79 35.5 22.59 38.27 22.59 42.04 21.24 42.04 21.24 47.99 20.06 52.46 22.32 58.19 23.12 31.96 34.92 21.1 29.83"/><polygon id="pente_2" data-name="pente 2" class="cls-38" points="21.1 29.83 24.08 29.56 24.62 28 25.91 27.43 29.13 26.92 28 25.63 30.57 25.99 31.69 24.77 31.94 23.25 34.58 23.79 35.5 22.59 38.27 22.59 42.04 21.24 41.1 19.43 38.27 17.75 35.41 18.96 34.19 19.21 29.48 18.58 30.82 19.92 29.72 20.15 27.27 19.54 24.08 20.29 23.58 22.33 21.01 21.97 18.87 21.76 18.13 24.21 16.17 24.77 21.1 29.83"/><polygon class="cls-39" points="13.86 19.68 18.13 19.42 17.07 17.38 21.01 18.81 23.58 19.17 24.08 17.13 27.27 16.37 29.72 16.98 30.82 16.76 29.48 15.41 34.19 16.05 35.41 15.79 37.22 15.41 38.27 17.75 35.41 18.96 34.19 19.21 29.48 18.58 30.82 19.92 29.72 20.15 27.27 19.54 24.08 20.29 23.58 22.33 21.01 21.97 18.87 21.76 18.13 24.21 16.17 24.77 13.86 19.68"/><polygon class="cls-11" points="37.22 15.41 27.14 12.63 6.49 15.41 13.86 19.68 18.13 19.42 17.07 17.38 21.01 18.81 23.58 19.17 24.08 17.13 27.27 16.37 29.72 16.98 30.82 16.76 29.48 15.41 34.19 16.05 35.41 15.79 37.22 15.41"/><polygon class="cls-40" points="37.22 15.41 27.14 12.63 6.49 15.41 13.86 19.68 18.13 19.42 17.07 17.38 21.01 18.81 23.58 19.17 24.08 17.13 27.27 16.37 29.72 16.98 30.82 16.76 29.48 15.41 34.19 16.05 35.41 15.79 37.22 15.41"/><path class="cls-3" d="M25.75,26.92l-4.11-1.5-1,2.07L21.11,24l-1.91-.34,1.55-1,.89-.55,1.94.27-.66,1.84Zm4.06-5.75-.29-1.08-1.06-.26.67,1.29-1.7-1-.2,1.59.28,2.54.58-2.65,3.44,3.13Zm6.92-1.59-.86,1-1.68-1.33L33,19.05l-.39,1.07,1,3,.3-3L38.74,22Z"/><g id="R00_Yellow" data-name="R00***  Yellow"><path class="cls-41" d="M56,31.51l-1.64,1.18-1.6-7.16L50,25l-.74-4.25L48,20.06l-.64,5.52,3.61.74L51.73,37l-3.16,2.57-1.24,1.77-1,2.34.53,1,11.33-7V32Z"/></g><g id="R00_Yellow-2" data-name="R00***  Yellow"><path class="cls-42" d="M52.72,25.53,50,25l-.74-4.25L48,20.06l-.64,5.52,3.61.74Z"/></g><polygon id="R_contour_2" data-name="R contour ***" class="cls-43" points="58.5 23.19 52.46 22.32 47.99 20.06 42.04 21.24 41.1 19.43 38.27 17.75 37.22 15.41 27.14 12.63 6.49 15.41 6.5 38.5 31.96 53.92 58.5 37.5 58.5 23.19"/><g id="bord_peut_etre_" data-name="bord    (peut etre)*"><path class="cls-44" d="M6.49,15.41l7.44,4.15a.15.15,0,0,1,.05.06l2.35,5.08,0-.06,5,5-.07,0L32.07,34.7h-.21l13.36-5.93Q51.91,25.83,58.63,23,52,26.07,45.37,29.11l-13.31,6a.23.23,0,0,1-.2,0L21,30,20.94,30,16,24.9l0,0-2.27-5.11.06.06Z"/></g><line id="cesure" class="cls-45" x1="21.08" y1="29.83" x2="24.11" y2="49.15"/><line id="cesure_angle" data-name="cesure  angle" class="cls-45" x1="31.96" y1="34.92" x2="31.96" y2="53.92"/></svg>