<svg id="Layer_4" data-name="Layer 4" xmlns="http://www.w3.org/2000/svg" xmlns:xlink="http://www.w3.org/1999/xlink" viewBox="0 0 53 41.5"><defs><style>.cls-1,.cls-2,.cls-3{stroke:#323232;}.Medium-Grey,.SINGLE-Blue-Item,.cls-1,.cls-2,.cls-6{stroke-linecap:round;stroke-linejoin:round;}.cls-1{fill:url(#radial-gradient);}.cls-2{fill:url(#linear-gradient);}.cls-3{fill:none;stroke-miterlimit:10;}.cls-4{opacity:0.45;}.cls-5{fill:#fff;}.Medium-Grey{stroke:#333332;fill:url(#linear-gradient-2);}.SINGLE-Blue-Item{stroke:#053755;fill:url(#linear-gradient-3);}.cls-6{stroke:#003755;fill:url(#linear-gradient-5);}</style><radialGradient id="radial-gradient" cx="27.61" cy="31.5" r="19.5" gradientTransform="translate(2.39 0)" gradientUnits="userSpaceOnUse"><stop offset="0" stop-color="#d7d7d7"/><stop offset="1" stop-color="#969696"/></radialGradient><linearGradient id="linear-gradient" x1="22.4" y1="18.5" x2="37.02" y2="43.81" gradientUnits="userSpaceOnUse"><stop offset="0" stop-color="#fff"/><stop offset="1" stop-color="#d2d3d3"/></linearGradient><linearGradient id="linear-gradient-2" x1="46.03" y1="31.36" x2="54.65" y2="46.29" gradientUnits="userSpaceOnUse"><stop offset="0" stop-color="#ababab"/><stop offset="1" stop-color="#5b5b5b"/></linearGradient><linearGradient id="linear-gradient-3" x1="49.47" y1="54.68" x2="36.05" y2="31.42" gradientUnits="userSpaceOnUse"><stop offset="0" stop-color="#386f8d"/><stop offset="1" stop-color="#8dd7f4"/></linearGradient><linearGradient id="linear-gradient-5" x1="5.32" y1="4.48" x2="7.8" y2="8.77" gradientUnits="userSpaceOnUse"><stop offset="0" stop-color="#f5f6f6"/><stop offset="0.99" stop-color="#d2d3d3"/></linearGradient></defs><path class="cls-1" d="M49.5,31.5A19.5,19.5,0,1,0,30,51,19.5,19.5,0,0,0,49.5,31.5Z" transform="translate(-6 -11.5)"/><path class="cls-2" d="M44.8,19.22a11.45,11.45,0,0,1-.56,1c-.3.52-.81.64-1.09.95s-.52.32-.82.55a1.94,1.94,0,0,1-.82.33,2.7,2.7,0,0,0-.88.49c-.23.19-.42.42-.76.7s-.64.25-1.1.08-.16-.72,0-.82.51,0,.67,0a2.85,2.85,0,0,0,.81,0,.59.59,0,0,0,.4-.44c0-.11-.58-.31-.74-.39s-1.61-.15-1.87-.27a3.09,3.09,0,0,0-1.17,0c-.15,0-.13-.21-.77-.11a6.64,6.64,0,0,0-1.86.83,4.65,4.65,0,0,0-1.74,1.4,3.83,3.83,0,0,1-1.51.59.53.53,0,0,0-.43.71c.07.24-.21.28-.06.63s.77.07,1,0,.21-.07.45.14.16.27.43.65.74.12.94,0,.19-.66.42-.66.31-.28.29-.48-.25-.21-.2-.43a7.45,7.45,0,0,1,1.5-1.47c.17-.06.46-.22.64-.07s.18.29,0,.52-.26.23-.61.41-.31.36-.34.7.08.23.35.28a3.51,3.51,0,0,0,1.1-.23.43.43,0,0,1,.47.1c.07.11-.17.39-.32.42a6.6,6.6,0,0,0-1.27.14c-.3.12,0,.18.09.33s-.27.29-.57.33-.22.31-.29.52a.75.75,0,0,1-.43.44c-.2.09-.55-.29-.75-.21a8.53,8.53,0,0,1-1.5.18.4.4,0,0,1-.41-.21c-.08-.17.06-.33.07-.55s-.19-.27-.46-.07,0,.59.07.68-.27.12-.35.24-.55.09-.7.15-.19.39-.38.49-.47.07-.51,0-.23.11-.33.21a.72.72,0,0,1-.29.18c-.08,0-.49,0-.58.07a.5.5,0,0,1-.35.16c-.15,0-.26,0-.4.09s.17.26.17.26.57.13.6.34.05.69-.19.75A9.4,9.4,0,0,1,26,29.56a.28.28,0,0,0-.32.36c.06.11.28.72.17.87s-.38.72-.16.81.67,0,.64.11.25.45.4.37A6.53,6.53,0,0,0,28,31.36c.06-.16,0-.47.13-.49s.68,0,.73-.19-.18-.29.08-.35.49-.24.63-.08.32.21.4,0,.64-.08.76,0a10.6,10.6,0,0,1,1.61,1.32.34.34,0,0,1-.26.31c-.11,0,.08.15.08.15s.48-.24.51-.6c0,0,0-.17.09-.16a.49.49,0,0,1,.16.12s-.16-.35-.39-.32-.26-.31-.45-.37,0-.18-.2-.39-.34-.27-.24-.3.44-.05.52,0,1.06.59,1.16.9,0,.39.13.5.25.11.25.26-.09.63.15.63.39-.16.55-.19.53,0,.37-.17-.61-.22-.54-.28.19-.36.34-.36.51,0,.53,0,0,.15.08.37,0,.32.32.53.72.22.78.12a.38.38,0,0,1,.46-.2.7.7,0,0,0,.6,0c.21-.09.41-.16.46-.08a.77.77,0,0,1-.06.48c-.07.14,0,.55-.23.73s-.39.47-.57.6a1,1,0,0,1-.87.12,4,4,0,0,1-1.51-.28c-.51-.28-.45-.12-.56-.32s-.62,0-.7.18,0,.56-.36.5-.95-.14-1.1-.42-.2-.31-.47-.31-.72-.07-.64-.4.49-.72.18-.82a11,11,0,0,0-3.41.13c-.77.28-.77.11-.92,0s-.38.18-.47.28a1,1,0,0,0-.61.15c-.17.17-.46.89-.68,1A9.69,9.69,0,0,0,23.36,35,1.07,1.07,0,0,0,23.17,36,2.91,2.91,0,0,1,23,37.36c-.14.47,0,.64.43,1.1A11.1,11.1,0,0,1,24.7,40c.06.22.19.23.62.2s.71-.12.93.06a.79.79,0,0,0,.82,0c.12-.13.65-.38.87-.2a2.71,2.71,0,0,0,.86.49c.28.06.59,0,.63.23s.11.44,0,.61.14.72.43,1.18c0,0,.36.41.36.66s-.08.43,0,.56.18.26,0,.45-.6.84-.5,1.12a12.51,12.51,0,0,0,.71,1c.13.24.05.76.27.92s.46.27.49.54.26.28.73.25a7.43,7.43,0,0,0,2-.42c.46-.22.33-.3.57-.48s.6-.46.65-.76.62,0,.66-.11-.22-.8.23-1,1.53-.37,1.33-1.22-.2-1.22,0-1.5,1-.62,1.12-.92.88-.62,1.71-1.57,1-2.09.62-2-1.14.87-1.91.75.32-.17-.12-.41a3.87,3.87,0,0,1-1.39-2.11c-.44-1.2-.89-1.5-.52-1.62s.59.34.75.75a5.13,5.13,0,0,1,.35,1.13s0,.11.31.18.29.32.32.51.18.48.19.61.07.55.16.57a2.53,2.53,0,0,0,1-.37,4.21,4.21,0,0,1,1.19-.7c.29,0,.19-.19.34-.25a1.59,1.59,0,0,0,1.08-.7,1.49,1.49,0,0,1,.51-.58c.38-.28.73-1,.47-1S43,35,43,34.76s0-.29-.16-.2-.08.45-.31.53-.66.19-.74,0-.07-.45-.4-.5-.3-.14-.32-.39.06-.59.19-.53.34.41.67.5.62.27.94.14.17-.2.55-.08a.7.7,0,0,0,.75-.06c.19-.14.37-.09.68-.17A4.35,4.35,0,0,1,46,34c.14,0,.41.45.62.36s.34.23.3.37a1.93,1.93,0,0,0,.13.89c.17.34.32.43.32.65s0,.39.17.39a3,3,0,0,0,.71-1.37A4.58,4.58,0,0,1,48.53,34a8.59,8.59,0,0,0,.83-1.69c.06-.2.09-.36.12-.48s0-.17,0-.26A18.89,18.89,0,0,0,44.8,19.22ZM39.38,30.48c-.22.23-.18.45-.65.36s-.19.07-.46-.08.2-.27-.38-.18a3.93,3.93,0,0,0-.77.15c-.18.07.09.26-.47.31s-.26.17-.4-.07-.28-.21-.26-.43-.24,0,.11-.39.06-.35.37-.52.09-.4.47-.2.42,0,.62.35.2.17.38,0,.11-.26.35-.44.25-.21.31-.21.42-.09.47.1-.43.35-.45.44-.35,0,.25.28.69.2.67.33S39.6,30.23,39.38,30.48Zm3.72-1.79c-.11.31-.37.29-.53.35s-.35.07-.51.33,0,0,.4.32.33.2.42.46-.38.15,0,.45.11.79-.51.92a.81.81,0,0,1-.89-.33.42.42,0,0,1,.29-.37c.29-.11-.2-.39-.2-.48a1.54,1.54,0,0,0-.24-.45c-.12-.15-.47-.07-.58-.5-.05-.17.31-.3.62-.33s.09-.32.35-.45a1.44,1.44,0,0,1,.47-.16c.33-.08.11-.19.33-.43s.71.26.71.26A.94.94,0,0,1,43.1,28.69Zm-5,16.74c.37-.18.51,0,.36-.25a.8.8,0,0,1-.14-.38s.17-.22.34-.13.16,0,.35-.18.29-.13.39-.36.09-.39.23-.41.18-.18.22.06.16,0,0,.4-.28.67-.31.7a4.15,4.15,0,0,1-.29.83c-.12.11-.08.18-.32.22s-.45.38-.67.22-.31-.12-.34-.31S37.69,45.62,38.06,45.43Zm10.24-9a.76.76,0,0,1-.25-.16s.07-.35.07-.39.05-.31.2-.33.13,0,.23,0,.08.33,0,.49S48.47,36.53,48.3,36.46ZM16.42,42.82a1.4,1.4,0,0,0-.71.17s-.08.39-.29.35-.38-.19-.48-.14a1,1,0,0,0-.16.09.76.76,0,0,1-.19.12,19.39,19.39,0,0,1-4-9.92c.13.07.26.1.27-.05a2.92,2.92,0,0,1,.07-.87c.09-.23.05-.34.21-.37a1.19,1.19,0,0,1,.48.14,2,2,0,0,0,.26.66,5.5,5.5,0,0,0,.62.65c.21.23.05-.44.52.37s.17.45.36.89a2,2,0,0,0,.74,1,3.75,3.75,0,0,1,1.07,1.64c.2.58.51.54,1,1.07s.53.49.91.91.73.61.83.84.43.28.19.63-.31,0-.52.52,0,.23-.22.7-.21.56-.43.58S16.92,42.8,16.42,42.82Zm9.39-25.63a2.47,2.47,0,0,0-.33.17s-.1-.05,0,.16.18.28-.08.44-.29-.25-.26.17.09.37,0,.49-.1.09-.33.35-.15-.12-.36.39a2.36,2.36,0,0,0-.19.68c-.1.3,0,.3-.19.3h-.41l-.64.05c-.36,0-.6.23-1,0s-.35,0-.52-.09-.07-.23-.29.05,0,.28-.21.28-.48.21-.81.09-.46-.21-.5,0,0,.07-.12.26-.17-.05-.41.32.15.5-.26.61l-.4.12a.49.49,0,0,1-.51-.23c-.16-.31,0,0-.16-.31a1.12,1.12,0,0,1-.24-.79,3.62,3.62,0,0,0,0-.49,5.37,5.37,0,0,0,0-.73v-.56c0-.3-.16-.32,0-.65s.33-.24.38-.61,0,0,.05-.37.09-.19.14-.44.14-.08.05-.26l-.1-.17a19.94,19.94,0,0,1,5.86-3c-.09.36-.22,1.08.17,1.25a4.42,4.42,0,0,1,1.55,1.5.58.58,0,0,0,.62,0c.38-.16,1,.22.79.33a2.06,2.06,0,0,1-.81.21C26.05,16.79,26.07,17.08,25.81,17.19Zm10.42,1c-.24,0-.27.12-.19.19a.82.82,0,0,0,.4.06c.12,0,.57.07.36.29,0,0-.12-.26-.36.07s0,.44-.23.32-.34-.32-.6-.42-.1-.16-.27-.09-.14,0-.35.28-.15.37-.41.33-.57,0-.52-.21a.9.9,0,0,1,.21-.38c.07-.09,0-.12-.17-.12s-.38.22-.38.05-.35,0,.07-.33.31-.37.53-.35.07.14.6,0l.59-.18a1.83,1.83,0,0,1,.62,0,1.58,1.58,0,0,0,.84-.09c.21-.07.64-.21.59-.1s-.05.47-.33.51A8.38,8.38,0,0,1,36.23,18.15ZM27,27.68c.19,0,.25-.1.35-.12s.18-.09.29-.13-.15-.11-.2-.2,0-.13.07-.29.16-.05.31-.09.13,0,.17-.13a.34.34,0,0,0-.08-.27s-.19-.2-.3-.34a1,1,0,0,1-.21-.44c-.05-.18,0-.24,0-.42s.14-.2.33-.2.3,0,.34.15.15.1.33.24.19.24-.15.24-.25.12-.28.25.06,0,.27.23.19.2.2.33.11.13.19.38,0,0,.23.19.21.12.27.26,0,.16-.21.16-.19.06-.24.16-.09.17-.32.21-.23-.12-.43-.17-.24,0-.46.13-.11.11-.29.11S26.78,27.67,27,27.68Zm-1-.81a.89.89,0,0,1,.34-.45c.12-.11.15-.34.38-.28s.23.08.36,0,.05,0,.1.07-.05.21-.1.36-.21.57-.37.61-.31.14-.45,0S25.88,27.08,25.94,26.87ZM15.13,23.66c-.21-.21-.09-.07-.31-.24s0,0-.31-.32a2.89,2.89,0,0,0-.52-.56s-.48-.05-.26,0a1.87,1.87,0,0,1,.47.43s-.16,0-.19.32-.16.14,0,.47a2.39,2.39,0,0,0,.26.42l.17.21c.05.07.34.3.22.42s-.34.09-.5.07-.15.16-.31-.14,0-.21-.22-.4-.31-.26-.38-.26S13,24,13,24.22v.44s-.52.14-.57-.14-.24-.44-.21-.07a2.26,2.26,0,0,1,0,.49c0,.21.14.14,0,.21s-.12.19-.36,0L11.66,25a18.79,18.79,0,0,1,3.86-6.18c0,.79-.12,1.95-.12,2.18a4.05,4.05,0,0,0,.23,1.31c.15.3.17.19.17.63s0,.91-.17.93-.33,0-.26.17.41.18.43.3.29.37.19.68.07.53-.26.48a.8.8,0,0,1-.67-.44c-.17-.28-.5-.19-.31-.51S15,24,15,24,15.35,23.87,15.13,23.66Zm8.7-1c.12-.18,0-.14.05-.29s-.09-.1-.26-.21a.35.35,0,0,1-.1-.46c.08-.18.18-.15.43,0,.07,0,0,0,.16.12s.07,0,.52,0a1.72,1.72,0,0,1,.85.17c.61.2.19.46.19.46a.63.63,0,0,1-.2.28c-.15.09-.39.22-.52.08s-.71,0-.71,0A2,2,0,0,0,24,23C23.81,23.06,23.71,22.86,23.83,22.68Z" transform="translate(-6 -11.5)"/><path class="cls-3" d="M49.5,31.5A19.5,19.5,0,1,0,30,51,19.5,19.5,0,0,0,49.5,31.5Z" transform="translate(-6 -11.5)"/><g class="cls-4"><path class="cls-5" d="M43.5,40A6.51,6.51,0,0,1,50,46.5v4A1.5,1.5,0,0,1,48.5,52h-10A1.5,1.5,0,0,1,37,50.5v-4A6.51,6.51,0,0,1,43.5,40m0-1A7.5,7.5,0,0,0,36,46.5v4A2.5,2.5,0,0,0,38.5,53h10A2.5,2.5,0,0,0,51,50.5v-4A7.5,7.5,0,0,0,43.5,39Z" transform="translate(-6 -11.5)"/><path class="cls-5" d="M43.5,31A4.5,4.5,0,1,1,39,35.5,4.51,4.51,0,0,1,43.5,31m0-1A5.5,5.5,0,1,0,49,35.5,5.51,5.51,0,0,0,43.5,30Z" transform="translate(-6 -11.5)"/></g><g class="cls-4"><path class="cls-5" d="M51.5,36.5A6.51,6.51,0,0,1,58,43v4a1.5,1.5,0,0,1-1.5,1.5h-10A1.5,1.5,0,0,1,45,47V43a6.51,6.51,0,0,1,6.5-6.5m0-1A7.5,7.5,0,0,0,44,43v4a2.5,2.5,0,0,0,2.5,2.5h10A2.5,2.5,0,0,0,59,47V43a7.5,7.5,0,0,0-7.5-7.5Z" transform="translate(-6 -11.5)"/><path class="cls-5" d="M51.5,27.5A4.5,4.5,0,1,1,47,32a4.51,4.51,0,0,1,4.5-4.5m0-1A5.5,5.5,0,1,0,57,32a5.51,5.51,0,0,0-5.5-5.5Z" transform="translate(-6 -11.5)"/></g><path class="Medium-Grey" d="M56.5,48h-10a1,1,0,0,1-1-1V43a6,6,0,0,1,6-6h0a6,6,0,0,1,6,6v4A1,1,0,0,1,56.5,48Zm-1-16a4,4,0,1,0-4,4A4,4,0,0,0,55.5,32Z" transform="translate(-6 -11.5)"/><path class="SINGLE-Blue-Item" d="M48.5,51.5h-10a1,1,0,0,1-1-1v-4a6,6,0,0,1,6-6h0a6,6,0,0,1,6,6v4A1,1,0,0,1,48.5,51.5Zm-1-16a4,4,0,1,0-4,4A4,4,0,0,0,47.5,35.5Z" transform="translate(-6 -11.5)"/><path class="SINGLE-Blue-Item" d="M18.5,18a6,6,0,0,0-12,0,5.93,5.93,0,0,0,.93,3.2h0L12,30.5a.5.5,0,0,0,1,0l4.58-9.3h0A5.93,5.93,0,0,0,18.5,18Z" transform="translate(-6 -11.5)"/><circle class="cls-6" cx="6.5" cy="6.52" r="2.98"/></svg>