<?xml version="1.0" encoding="utf-8"?>
<!-- Generator: Adobe Illustrator 26.2.1, SVG Export Plug-In . SVG Version: 6.00 Build 0)  -->
<svg version="1.1" id="Calque_1" xmlns="http://www.w3.org/2000/svg" xmlns:xlink="http://www.w3.org/1999/xlink" x="0px" y="0px"
	 viewBox="0 0 64 64" style="enable-background:new 0 0 64 64;" xml:space="preserve">
<style type="text/css">
	.st0{fill:#CCCCCC;stroke:#000000;stroke-width:0.75;stroke-miterlimit:10;}
	.st1{fill:url(#SVGID_1_);stroke:#000000;stroke-width:0.75;stroke-miterlimit:10;}
	
		.st2{fill:url(#SVGID_00000097474524844591110680000009130591085029254838_);stroke:#000000;stroke-width:0.75;stroke-miterlimit:10;}
	.st3{fill:#B3B3B3;}
	.st4{fill:url(#SVGID_00000105418178705632808430000003045318602505517502_);}
	.st5{fill:url(#SVGID_00000005971977048883136960000001155099874962023560_);}
	.st6{fill:url(#SVGID_00000093858640815102923960000015486961153697338813_);}
	
		.st7{fill:url(#SVGID_00000011739404913724708810000006054096926692471431_);stroke:#FFFFFF;stroke-width:0.25;stroke-miterlimit:10;}
	.st8{fill:#B2B2B2;}
	.st9{fill:#9F9F9F;}
	.st10{fill:#7C7C7C;}
	.st11{fill:url(#SVGID_00000114772069342036468660000013991160202956606111_);}
</style>
<g>
	<g id="NETCHAN_AP_AppIcon">
		
			<image style="overflow:visible;opacity:0.45;enable-background:new    ;" width="55" height="52" xlink:href="67A3835E95B14402.png"  transform="matrix(1 0 0 1 4 6)">
		</image>
		<path class="st0" d="M51.9,53.5H11.3c-1.7,0-3-1.3-3-3V18.6c0-1.1,0.9-2,2-2h43.6v34.9C53.9,52.6,53,53.5,51.9,53.5z"/>
		
			<linearGradient id="SVGID_1_" gradientUnits="userSpaceOnUse" x1="8.28" y1="30.985" x2="54.86" y2="30.985" gradientTransform="matrix(1 0 0 -1 0 66)">
			<stop  offset="0" style="stop-color:#CCCCCC"/>
			<stop  offset="4.000000e-02" style="stop-color:#C8C8C8"/>
			<stop  offset="8.000000e-02" style="stop-color:#BDBDBD"/>
			<stop  offset="0.11" style="stop-color:#AAAAAA"/>
			<stop  offset="0.15" style="stop-color:#8F8F8F"/>
			<stop  offset="0.19" style="stop-color:#6C6C6C"/>
			<stop  offset="0.22" style="stop-color:#414141"/>
			<stop  offset="0.26" style="stop-color:#101010"/>
			<stop  offset="0.27" style="stop-color:#000000"/>
		</linearGradient>
		<path class="st1" d="M52.9,53.5H11.3c-1.7,0-3-1.3-3-3V18.6c0-1.1,0.9-2,2-2h44.6v34.9C54.9,52.6,54,53.5,52.9,53.5z"/>
		
			<linearGradient id="SVGID_00000108271018538591121120000010162767277007995265_" gradientUnits="userSpaceOnUse" x1="33.06" y1="57.39" x2="33.06" y2="12.54" gradientTransform="matrix(1 0 0 -1 0 66)">
			<stop  offset="0.41" style="stop-color:#FFFFFF"/>
			<stop  offset="0.67" style="stop-color:#FDFDFD"/>
			<stop  offset="0.77" style="stop-color:#F6F6F6"/>
			<stop  offset="0.84" style="stop-color:#EBEBEB"/>
			<stop  offset="0.89" style="stop-color:#DADADA"/>
			<stop  offset="0.94" style="stop-color:#C4C4C4"/>
			<stop  offset="0.98" style="stop-color:#A9A9A9"/>
			<stop  offset="1" style="stop-color:#999999"/>
		</linearGradient>
		
			<path style="fill:url(#SVGID_00000108271018538591121120000010162767277007995265_);stroke:#000000;stroke-width:0.75;stroke-miterlimit:10;" d="
			M52.9,53.5H11.2c3.4,0,3.5-3,3.5-4.3V10.6c0-0.5,0.2-1,0.6-1.4c0.4-0.4,0.9-0.6,1.4-0.6h36.2c1.1,0,2,0.9,2,2v40.9
			C54.9,52.6,54,53.5,52.9,53.5z"/>
		<rect x="36.1" y="25.1" class="st3" width="15.9" height="1"/>
		
			<linearGradient id="SVGID_00000077300020066961542920000009038945700664434316_" gradientUnits="userSpaceOnUse" x1="21.0886" y1="52.5237" x2="23.9686" y2="47.5237" gradientTransform="matrix(1 0 0 -1 0 66)">
			<stop  offset="0" style="stop-color:#3486AF"/>
			<stop  offset="1" style="stop-color:#285A79"/>
		</linearGradient>
		<rect x="17.6" y="15.5" style="fill:url(#SVGID_00000077300020066961542920000009038945700664434316_);" width="9.8" height="1"/>
		
			<linearGradient id="SVGID_00000044888469919017674610000013125419857829145521_" gradientUnits="userSpaceOnUse" x1="45.6019" y1="52.5267" x2="48.4919" y2="47.5267" gradientTransform="matrix(1 0 0 -1 0 66)">
			<stop  offset="0" style="stop-color:#3486AF"/>
			<stop  offset="1" style="stop-color:#285A79"/>
		</linearGradient>
		<rect x="42.1" y="15.5" style="fill:url(#SVGID_00000044888469919017674610000013125419857829145521_);" width="9.8" height="1"/>
		<rect x="36.1" y="29.1" class="st3" width="15.9" height="1"/>
		<rect x="36.1" y="33" class="st3" width="15.9" height="1"/>
		<rect x="36.1" y="36.9" class="st3" width="11.6" height="1"/>
		
			<linearGradient id="SVGID_00000160896435688735580240000003370064490463762067_" gradientUnits="userSpaceOnUse" x1="20.3096" y1="43.2758" x2="30.7804" y2="25.1342" gradientTransform="matrix(1 0 0 -1 0 66)">
			<stop  offset="0" style="stop-color:#3486AF"/>
			<stop  offset="1" style="stop-color:#285A79"/>
		</linearGradient>
		<path style="fill:url(#SVGID_00000160896435688735580240000003370064490463762067_);" d="M18.6,23.9h13.9c0.6,0,1,0.4,1,1v13.9
			c0,0.6-0.4,1-1,1H18.6c-0.6,0-1-0.4-1-1V24.9C17.6,24.3,18.1,23.9,18.6,23.9z"/>
		
			<linearGradient id="SVGID_00000181803572879843143540000017247830533375223968_" gradientUnits="userSpaceOnUse" x1="30.8799" y1="50.705" x2="39.0999" y2="50.705" gradientTransform="matrix(1 0 0 -1 0 66)">
			<stop  offset="0" style="stop-color:#3486AF"/>
			<stop  offset="1" style="stop-color:#285A79"/>
		</linearGradient>
		
			<path style="fill:url(#SVGID_00000181803572879843143540000017247830533375223968_);stroke:#FFFFFF;stroke-width:0.25;stroke-miterlimit:10;" d="
			M30.9,11.2c0.7,0,1.5,0.1,2.2,0.3c0.7,0.2,1.4,0.5,2,0.8c0.6,0.4,1.2,0.8,1.7,1.3c0.5,0.5,0.9,1.1,1.3,1.7c0.4,0.6,0.6,1.3,0.8,2
			c0.2,0.7,0.3,1.4,0.3,2.2h-1.8c0-0.6-0.1-1.2-0.2-1.7c-0.2-0.5-0.4-1.1-0.7-1.5c-0.3-0.5-0.6-0.9-1-1.3c-0.4-0.4-0.8-0.7-1.3-1
			c-1-0.6-2.1-0.9-3.3-0.9L30.9,11.2z M30.9,14.1c0.9,0,1.9,0.2,2.7,0.7c0.4,0.2,0.8,0.5,1.1,0.8c0.7,0.6,1.1,1.5,1.4,2.3
			c0.1,0.5,0.2,0.9,0.2,1.4h-1.8c0-0.5-0.1-1-0.3-1.4c-0.2-0.4-0.4-0.8-0.8-1.1c-0.3-0.3-0.7-0.6-1.1-0.8c-0.4-0.2-0.9-0.3-1.4-0.3
			V14.1z M32,17c0.2,0,0.3,0,0.5,0.1c0.1,0.1,0.3,0.2,0.4,0.3c0.1,0.1,0.2,0.2,0.2,0.4c0.1,0.1,0.1,0.3,0.1,0.5c0,0.2,0,0.3-0.1,0.5
			c-0.1,0.1-0.1,0.3-0.2,0.4c-0.1,0.1-0.2,0.2-0.4,0.2c-0.3,0.1-0.6,0.1-0.9,0c-0.1-0.1-0.3-0.1-0.4-0.2c-0.1-0.1-0.2-0.2-0.2-0.4
			c-0.1-0.1-0.1-0.3-0.1-0.5c0-0.2,0-0.3,0.1-0.5c0.1-0.1,0.1-0.3,0.2-0.4c0.1-0.1,0.2-0.2,0.4-0.3C31.7,17,31.9,17,32,17z"/>
		<rect x="17.7" y="44.7" class="st8" width="15.9" height="1"/>
		<rect x="17.7" y="48.4" class="st9" width="15.9" height="1"/>
		<rect x="17.6" y="52.1" class="st10" width="15.9" height="1"/>
		
			<linearGradient id="SVGID_00000114052935544634315940000002179986154842841525_" gradientUnits="userSpaceOnUse" x1="39.8785" y1="24.8839" x2="48.088" y2="10.6648" gradientTransform="matrix(1 0 0 -1 0 66)">
			<stop  offset="0" style="stop-color:#3486AF"/>
			<stop  offset="1" style="stop-color:#25415A"/>
		</linearGradient>
		<path style="fill:url(#SVGID_00000114052935544634315940000002179986154842841525_);" d="M36.1,53.1v-9.2c0-0.5,0.4-1,1-1H51
			c0.5,0,1,0.4,1,1v9.2H36.1z"/>
	</g>
</g>
</svg>
