<svg id="NETFEED_AP_AppIcon" xmlns="http://www.w3.org/2000/svg" xmlns:xlink="http://www.w3.org/1999/xlink" viewBox="0 0 64 64"><defs><style>.cls-1{fill:url(#Nouvelle_nuance_de_dégradé_1_2);}</style><linearGradient id="Nouvelle_nuance_de_dégradé_1_2" x1="42.07" y1="58.48" x2="7.92" y2="-0.67" gradientTransform="translate(0.14 7.06)" gradientUnits="userSpaceOnUse"><stop offset="0" stop-color="#285a78"/><stop offset="1" stop-color="#3287af"/></linearGradient></defs><title>NETFEED - FeedReader00008_I_SafetyAreaTemplate_Appicon</title><path class="cls-1" d="M13.66,43.66a6.64,6.64,0,1,0,6.66,6.64A6.65,6.65,0,0,0,13.66,43.66ZM7,23.67v9.72a23.41,23.41,0,0,1,16.53,7A23.57,23.57,0,0,1,30.61,57h9.72A33.61,33.61,0,0,0,7,23.67ZM7,7v9.72A40.26,40.26,0,0,1,47.28,57H57A50.07,50.07,0,0,0,7,7Z"/></svg>