<svg id="NETMISO_AP_AppIcon" xmlns="http://www.w3.org/2000/svg" xmlns:xlink="http://www.w3.org/1999/xlink" viewBox="0 0 64 64"><defs><style>.cls-1{fill:#969696;opacity:0.5;}.cls-2{fill:url(#Nouvelle_nuance_de_dégradé_1_2);}</style><linearGradient id="Nouvelle_nuance_de_dégradé_1_2" x1="40.35" y1="51.24" x2="23.28" y2="21.68" gradientUnits="userSpaceOnUse"><stop offset="0" stop-color="#285a78"/><stop offset="1" stop-color="#3287af"/></linearGradient></defs><title>NETMISO - MetricsReader00008_I_SafetyAreaTemplate_Appicon</title><path class="cls-1" d="M17.44,19.73v2.2H9.75v-2.2ZM9.75,25.22V23h7.69v2.19Zm0,3.3v-2.2h7.69v2.2ZM24,16.43v2.2H18.54v-2.2Zm0,3.3v2.2H18.54v-2.2Zm-5.49,5.49V23H24v2.19Zm0,3.3v-2.2H24v2.2ZM30.62,16.44v2.19h-5.5v-2.2Zm0,3.29v2.2h-5.5v-2.2ZM25.13,23h5.5v2.19h-5.5Zm0,5.49v-2.2h5.5v2.2Z"/><path class="cls-2" d="M53.5,26.2,57,28.32,44.78,48.69,34.65,26.09,27.37,45.51l-8.91-11.9-7.9,13.66L7,45.24l11-19,8.2,10.86,8.17-21.75,11,24.47Z"/></svg>