<svg id="Calque_26" data-name="Calque 26" xmlns="http://www.w3.org/2000/svg" xmlns:xlink="http://www.w3.org/1999/xlink" viewBox="0 0 64 64"><defs><style>.cls-1{fill:#969696;opacity:0.5;}.cls-2{fill:url(#linear-gradient);}</style><linearGradient id="linear-gradient" x1="24.96" y1="40.98" x2="57" y2="40.98" gradientUnits="userSpaceOnUse"><stop offset="0" stop-color="#3486af"/><stop offset="1" stop-color="#285a79"/></linearGradient></defs><g id="Calque_27" data-name="Calque 27"><path class="cls-1" d="M18.43,26.87V15.17l6.44-2.93V23.36ZM9.65,23.36V12.24l6.44,2.93v11.7ZM27.05,8.7a1.43,1.43,0,0,0-1.34-.19l-7.11,4H15.92l-7.12-4a1.5,1.5,0,0,0-1.34.19c-.3.25-.16,1-.15,1.79V23.36a2.3,2.3,0,0,0,1.32,1.92l7.29,4.23H18.6l7.33-4.23c1.13-.73,1.28-1.31,1.28-1.92V10.49C27.21,9.69,27.35,9,27.05,8.7Z"/><path class="cls-1" d="M42.15,26.87V15.17l6.44-2.93V23.36Zm-8.77-3.51V12.24l6.43,2.93v11.7ZM50.77,8.7a1.41,1.41,0,0,0-1.33-.19l-7.11,4H39.64l-7.11-4a1.49,1.49,0,0,0-1.34.19c-.3.25-.16,1-.15,1.79V23.36a2.28,2.28,0,0,0,1.32,1.92l7.28,4.23h2.69l7.32-4.23c1.14-.73,1.28-1.31,1.28-1.92V10.49C50.93,9.69,51.07,9,50.77,8.7Z"/><path class="cls-1" d="M18.43,48.88V37.18l6.44-2.93V45.37ZM9.65,45.37V34.25l6.44,2.93v11.7Zm17.4-14.66a1.43,1.43,0,0,0-1.34-.19L18.6,34.47H15.92L8.8,30.52a1.5,1.5,0,0,0-1.34.19c-.3.25-.16,1-.15,1.79V45.37a2.31,2.31,0,0,0,1.32,1.92l7.29,4.23H18.6l7.33-4.23c1.13-.74,1.28-1.31,1.28-1.92V32.5C27.21,31.7,27.35,31,27.05,30.71Z"/></g><path class="cls-2" d="M51.93,46.9a3.37,3.37,0,0,0,.23,1.21,3.1,3.1,0,0,0,.72,1.08L54,50.3A15.39,15.39,0,0,1,50.3,54l-1.11-1.11a3.1,3.1,0,0,0-1.08-.72,3.37,3.37,0,0,0-1.21-.23,3.41,3.41,0,0,0-1.24.23,3,3,0,0,0-1,.67,3.44,3.44,0,0,0-.74,1.05,3.18,3.18,0,0,0-.27,1.32v1.57c-.44.07-.88.12-1.31.16a12.29,12.29,0,0,1-2.62,0c-.43,0-.87-.09-1.3-.16V55.2a3.18,3.18,0,0,0-.28-1.32,3.44,3.44,0,0,0-.74-1.05,3.08,3.08,0,0,0-1.06-.67,3.48,3.48,0,0,0-1.23-.23,3.42,3.42,0,0,0-1.21.23,3,3,0,0,0-1.07.72L31.66,54A15.39,15.39,0,0,1,28,50.3l1.11-1.11a3.1,3.1,0,0,0,.72-1.08A3.37,3.37,0,0,0,30,46.9a3.48,3.48,0,0,0-.23-1.23,3.08,3.08,0,0,0-.67-1.06,3.32,3.32,0,0,0-1.05-.74,3.18,3.18,0,0,0-1.32-.27H25.19c-.07-.44-.12-.88-.16-1.31a12.29,12.29,0,0,1,0-2.62c0-.43.09-.87.16-1.31h1.57a3.18,3.18,0,0,0,1.32-.27,3.32,3.32,0,0,0,1.05-.74,3,3,0,0,0,.67-1.05,3.38,3.38,0,0,0,0-2.45,3.1,3.1,0,0,0-.72-1.08L28,31.66A15.39,15.39,0,0,1,31.66,28l1.12,1.11a3,3,0,0,0,1.07.72,3.42,3.42,0,0,0,1.21.23,3.48,3.48,0,0,0,1.23-.23,3.08,3.08,0,0,0,1.06-.67,3.47,3.47,0,0,0,.74-1,3.18,3.18,0,0,0,.28-1.34V25.19c.43-.07.87-.12,1.3-.16a12.29,12.29,0,0,1,2.62,0c.43,0,.87.09,1.31.16v1.57a3.13,3.13,0,0,0,1,2.39,3.15,3.15,0,0,0,1,.65A3.41,3.41,0,0,0,46.9,30a3.6,3.6,0,0,0,1.19-.21,3.05,3.05,0,0,0,1.1-.71L50.3,28A15.39,15.39,0,0,1,54,31.66l-1.11,1.11a3.1,3.1,0,0,0-.72,1.08,3.38,3.38,0,0,0,0,2.45,3,3,0,0,0,.67,1.05,3.6,3.6,0,0,0,1,.74,3.18,3.18,0,0,0,1.34.27h1.57c.07.44.12.88.16,1.31a12.29,12.29,0,0,1,0,2.62c0,.43-.09.87-.16,1.31H55.2a3.18,3.18,0,0,0-1.34.27,3.6,3.6,0,0,0-1,.74,3.08,3.08,0,0,0-.67,1.06A3.48,3.48,0,0,0,51.93,46.9Zm-11-.36a5.45,5.45,0,0,0,2.16-.44,5.73,5.73,0,0,0,3-3,5.52,5.52,0,0,0,0-4.32,5.73,5.73,0,0,0-3-3,5.52,5.52,0,0,0-4.32,0,5.73,5.73,0,0,0-3,3,5.52,5.52,0,0,0,0,4.32,5.73,5.73,0,0,0,3,3A5.45,5.45,0,0,0,41,46.54Z"/></svg>