<svg id="NETTRAC_AP_AppIcon" xmlns="http://www.w3.org/2000/svg" xmlns:xlink="http://www.w3.org/1999/xlink" viewBox="0 0 64 64"><defs><style>.cls-1{fill:url(#Nouvelle_nuance_de_dégradé_1_2);}</style><linearGradient id="Nouvelle_nuance_de_dégradé_1_2" x1="50.12" y1="49.09" x2="24" y2="3.84" gradientUnits="userSpaceOnUse"><stop offset="0" stop-color="#285a78"/><stop offset="1" stop-color="#3287af"/></linearGradient></defs><title>NETTRAC - Tracked Topic
00008_I_SafetyAreaTemplate_Appicon</title><path class="cls-1" d="M11,13.17a4.68,4.68,0,0,0,.2.45,1.47,1.47,0,0,0,.24.34L28,38.74v14L36.42,57V38.74L52.49,13.89a2.07,2.07,0,0,0,.58-1.27c0-1.55-2.17-2.88-6.45-4A58.89,58.89,0,0,0,32,7,59,59,0,0,0,17.34,8.65c-4.27,1.09-6.41,2.42-6.41,4v.11a1,1,0,0,0,.11.44Z"/></svg>