<svg id="NETTEXT_AP_AppIcon" xmlns="http://www.w3.org/2000/svg" xmlns:xlink="http://www.w3.org/1999/xlink" viewBox="0 0 64 64"><defs><style>.cls-1{fill:url(#Nouvelle_nuance_de_dégradé_1);}</style><linearGradient id="Nouvelle_nuance_de_dégradé_1" x1="49.81" y1="55.21" x2="18.6" y2="1.16" gradientUnits="userSpaceOnUse"><stop offset="0" stop-color="#285a78"/><stop offset="1" stop-color="#3287af"/></linearGradient></defs><title>NETTEXT – NETVIBES TextEdit00008_I_SafetyAreaTemplate_Appicon</title><path class="cls-1" d="M55.53,7H8.47v14.7h2.94a23.07,23.07,0,0,1,2.95-5.88c1.57-2.39,4.55-2.76,5.88-2.94-.8.1,5.88,0,5.88,0V51.12a3.15,3.15,0,0,1-2.94,2.94c-3.1,0-5.88,0-5.88,0V57H46.7V54.06s-5,0-5.88,0a3.53,3.53,0,0,1-2.94-2.94V12.89s7,.14,5.88,0c1.33.18,4.31.55,5.88,2.94a23.07,23.07,0,0,1,3,5.88h2.94Z"/></svg>