<svg id="etape_1_copy_2" data-name="etape 1 copy 2" xmlns="http://www.w3.org/2000/svg" xmlns:xlink="http://www.w3.org/1999/xlink" viewBox="0 0 64 64"><defs><style>.cls-1{fill:none;}.cls-2{fill:url(#top_white);}.cls-3{fill:#323232;}.cls-4{fill:#fff;}.cls-4,.cls-7{opacity:0.5;}.cls-5{fill:#5a9ab8;}.cls-6{clip-path:url(#clip-path);}.cls-7{fill:#797979;}.cls-8{fill:url(#linear-gradient);}.cls-9{fill:#053755;}.DARK-GREY-Fill-7{fill:url(#linear-gradient-2);}.cls-10{fill:url(#white_left);}.cls-11{fill:url(#white_left-2);}.cls-12{fill:url(#white_left-3);}.cls-13{fill:url(#white_left-4);}.cls-14{fill:url(#linear-gradient-6);}.cls-15{fill:#6d6d6d;}.cls-16{fill:url(#linear-gradient-7);}.cls-17{fill:url(#linear-gradient-8);}.cls-18,.cls-19,.cls-20,.cls-21,.cls-22,.cls-23,.cls-24,.cls-25,.cls-26,.cls-27,.cls-28,.cls-29{stroke:#00415f;}.cls-18,.cls-19,.cls-20,.cls-21,.cls-22,.cls-23,.cls-24,.cls-25,.cls-26,.cls-27,.cls-28,.cls-29,.cls-31,.cls-33{stroke-linecap:round;stroke-linejoin:round;stroke-width:0.9px;}.cls-18{fill:url(#linear-gradient-9);}.cls-19{fill:url(#linear-gradient-10);}.cls-20{fill:url(#linear-gradient-11);}.cls-21{fill:url(#linear-gradient-12);}.cls-22{fill:url(#linear-gradient-13);}.cls-23{fill:url(#linear-gradient-14);}.cls-24{fill:url(#linear-gradient-15);}.cls-25{fill:url(#linear-gradient-16);}.cls-26{fill:url(#linear-gradient-17);}.cls-27{fill:url(#linear-gradient-18);}.cls-28{fill:url(#linear-gradient-19);}.cls-29{fill:url(#linear-gradient-20);}.cls-30{fill:url(#linear-gradient-21);}.cls-31,.cls-33{stroke:#6d6d6d;}.cls-31{fill:url(#linear-gradient-22);}.cls-32{fill:url(#linear-gradient-23);}.cls-33{fill:url(#linear-gradient-24);}.cls-34{fill:url(#linear-gradient-25);}.cls-35{fill:#2d2d2d;}.cls-36{fill:#00273c;}.cls-37{fill:#00304b;}.cls-38{fill:#002031;}</style><linearGradient id="top_white" x1="-8761.62" y1="-9140.95" x2="-8722.85" y2="-9073.81" gradientTransform="matrix(0, -0.5, -0.5, 0, -4507.87, -4341.87)" gradientUnits="userSpaceOnUse"><stop offset="0" stop-color="#fff"/><stop offset="1" stop-color="#f0f0f0"/></linearGradient><clipPath id="clip-path"><rect class="cls-1" x="33" y="18" width="7" height="5"/></clipPath><linearGradient id="linear-gradient" x1="-9088.99" y1="-7604.07" x2="-9111.89" y2="-7643.73" gradientTransform="matrix(-0.5, 0, 0, 0.5, -4504.37, 3824.37)" gradientUnits="userSpaceOnUse"><stop offset="0" stop-color="#386e8c"/><stop offset="1" stop-color="#8dd7f4"/></linearGradient><linearGradient id="linear-gradient-2" x1="31" y1="11.5" x2="35" y2="11.5" gradientUnits="userSpaceOnUse"><stop offset="0" stop-color="#464646"/><stop offset="1" stop-color="#141414"/></linearGradient><linearGradient id="white_left" x1="32.1" y1="9.94" x2="33.89" y2="13.05" gradientUnits="userSpaceOnUse"><stop offset="0" stop-color="#f5f5f5"/><stop offset="1" stop-color="#bebebe"/></linearGradient><linearGradient id="white_left-2" x1="39.1" y1="9.94" x2="40.89" y2="13.05" xlink:href="#white_left"/><linearGradient id="white_left-3" x1="46.1" y1="9.94" x2="47.89" y2="13.05" xlink:href="#white_left"/><linearGradient id="white_left-4" x1="53.1" y1="9.94" x2="54.89" y2="13.05" xlink:href="#white_left"/><linearGradient id="linear-gradient-6" x1="70.05" y1="7.11" x2="11.84" y2="51.8" gradientUnits="userSpaceOnUse"><stop offset="0" stop-color="#fcfcfc"/><stop offset="1" stop-color="#b3b3b3"/></linearGradient><linearGradient id="linear-gradient-7" x1="21.44" y1="19.05" x2="7.55" y2="41.21" gradientUnits="userSpaceOnUse"><stop offset="0" stop-color="#c9c9c9"/><stop offset="1" stop-color="#737373"/></linearGradient><linearGradient id="linear-gradient-8" x1="34.01" y1="36.83" x2="60.54" y2="36.83" gradientUnits="userSpaceOnUse"><stop offset="0" stop-color="#787878"/><stop offset="1" stop-color="#fcfcfc"/></linearGradient><linearGradient id="linear-gradient-9" x1="23.4" y1="46.38" x2="36.99" y2="37.44" gradientUnits="userSpaceOnUse"><stop offset="0.1" stop-color="#195a72"/><stop offset="0.5" stop-color="#5a9cb5"/><stop offset="1" stop-color="#93d2f0"/></linearGradient><linearGradient id="linear-gradient-10" x1="23.1" y1="47.65" x2="50.7" y2="34.33" xlink:href="#linear-gradient-9"/><linearGradient id="linear-gradient-11" x1="28.09" y1="43.24" x2="41.45" y2="34.02" xlink:href="#linear-gradient-9"/><linearGradient id="linear-gradient-12" x1="12.34" y1="50.25" x2="44.09" y2="34.61" xlink:href="#linear-gradient-9"/><linearGradient id="linear-gradient-13" x1="10.3" y1="48.68" x2="24.64" y2="40.8" xlink:href="#linear-gradient-9"/><linearGradient id="linear-gradient-14" x1="15.17" y1="46.65" x2="24.9" y2="35.24" xlink:href="#linear-gradient-9"/><linearGradient id="linear-gradient-15" x1="26.16" y1="37.19" x2="33.14" y2="37.19" xlink:href="#linear-gradient-9"/><linearGradient id="linear-gradient-16" x1="24.24" y1="37.07" x2="26.16" y2="37.07" xlink:href="#linear-gradient-9"/><linearGradient id="linear-gradient-17" x1="24.24" y1="35.46" x2="33.14" y2="35.46" xlink:href="#linear-gradient-9"/><linearGradient id="linear-gradient-18" x1="9.92" y1="42.81" x2="39.34" y2="30.21" xlink:href="#linear-gradient-9"/><linearGradient id="linear-gradient-19" x1="5.96" y1="37.75" x2="17.27" y2="37.75" xlink:href="#linear-gradient-9"/><linearGradient id="linear-gradient-20" x1="11.83" y1="39.09" x2="-0.71" y2="49.82" xlink:href="#linear-gradient-9"/><linearGradient id="linear-gradient-21" x1="37.9" y1="26.27" x2="23.5" y2="38.6" xlink:href="#linear-gradient-6"/><linearGradient id="linear-gradient-22" x1="32.55" y1="34.57" x2="35.18" y2="34.57" xlink:href="#linear-gradient-7"/><linearGradient id="linear-gradient-23" x1="29.6" y1="27.57" x2="16.7" y2="39.53" xlink:href="#linear-gradient-6"/><linearGradient id="linear-gradient-24" x1="23.17" y1="37.14" x2="25.69" y2="37.14" xlink:href="#linear-gradient-7"/><linearGradient id="linear-gradient-25" x1="20.08" y1="30.61" x2="3.08" y2="43.51" xlink:href="#linear-gradient-6"/></defs><title>166_AAAe__R21XArtboard 1</title><g id="CALENDAR_copy_2" data-name="CALENDAR copy 2"><rect class="cls-2" x="29" y="14" width="30" height="27" rx="1"/><path class="cls-3" d="M58,14V40H30V14Zm1,0a1,1,0,0,0-1-1H30a1,1,0,0,0-1,1V40a1,1,0,0,0,1,1H58a1,1,0,0,0,1-1Z"/><path class="cls-4" d="M42,19V38H41V19Zm-6,0V38h1V19Zm16,0V38H51V19Zm-6,0V38h1V19Z"/><path class="cls-4" d="M32,33H56v1H32Zm0-10H56v1H32Zm0,6H56V28H32Z"/><path class="cls-5" d="M47,38V35h3v3Zm-5,0V35h3v3Zm-5,0V35h3v3Zm-5,0V35h3v3Zm20-5V30h3v3Zm-5,0V30h3v3Zm-5,0V30h3v3Zm-5,0V30h3v3Zm-5,0V30h3v3Zm20-5V25h3v3Zm-5,0V25h3v3Zm-5,0V25h3v3Zm-5,0V25h3v3Zm-5,0V25h3v3Zm20-5V20h3v3Zm-5,0V20h3v3Zm-5,0V20h3v3Z"/><path class="cls-5" d="M55,20v2H53V20h2m-5,0v2H48V20h2m-5,0v2H43V20h2m10,5v2H53V25h2m-5,0v2H48V25h2m-5,0v2H43V25h2m-5,0v2H38V25h2m-5,0v2H33V25h2m20,5v2H53V30h2m-5,0v2H48V30h2m-5,0v2H43V30h2m-5,0v2H38V30h2m-5,0v2H33V30h2m15,5v2H48V35h2m-5,0v2H43V35h2m-5,0v2H38V35h2m-5,0v2H33V35h2M56,19H52v4h4V19Zm-5,0H47v4h4V19Zm-5,0H42v4h4V19Zm10,5H52v4h4V24Zm-5,0H47v4h4V24Zm-5,0H42v4h4V24Zm-5,0H37v4h4V24Zm-5,0H32v4h4V24Zm20,5H52v4h4V29Zm-5,0H47v4h4V29Zm-5,0H42v4h4V29Zm-5,0H37v4h4V29Zm-5,0H32v4h4V29Zm15,5H47v4h4V34Zm-5,0H42v4h4V34Zm-5,0H37v4h4V34Zm-5,0H32v4h4V34Z"/><g id="grille"><g class="cls-6"><path class="cls-7" d="M42,19V38H41V19Zm-6,0V38h1V19Zm16,0V38H51V19Zm-6,0V38h1V19Z"/><path class="cls-7" d="M32,33H56v1H32Zm0-10H56v1H32Zm0,6H56V28H32Z"/></g></g><g id="Bandeau"><rect class="cls-8" x="30" y="12" width="28" height="4"/><path class="cls-9" d="M30,12H58v4H30V12Zm29,0a1,1,0,0,0-1-1H30a1,1,0,0,0-1,1v5H59Z"/></g><g id="Layer_104_copy_2" data-name="Layer 104 copy 2"><path id="_" data-name="**" class="DARK-GREY-Fill-7" d="M35,10a1,1,0,0,0-1-1H32a1,1,0,0,0-1,1v3a1.11,1.11,0,0,0,1,1h2a1,1,0,0,0,1-1Zm-1,3H32V10h2Z"/><rect class="cls-10" x="32" y="10" width="1.99" height="3"/><path id="_2" data-name="**" class="DARK-GREY-Fill-7" d="M42,10a1,1,0,0,0-1-1H39a1,1,0,0,0-1,1v3a1.11,1.11,0,0,0,1,1h2a1,1,0,0,0,1-1Zm-1,3H39V10h2Z"/><rect class="cls-11" x="39" y="10" width="1.99" height="3"/><path id="_3" data-name="**" class="DARK-GREY-Fill-7" d="M49,10a1,1,0,0,0-1-1H46a1,1,0,0,0-1,1v3a1.11,1.11,0,0,0,1,1h2a1,1,0,0,0,1-1Zm-1,3H46V10h2Z"/><rect class="cls-12" x="46" y="10" width="1.99" height="3"/><path id="_4" data-name="**" class="DARK-GREY-Fill-7" d="M56,10a1,1,0,0,0-1-1H53a1,1,0,0,0-1,1v3a1.11,1.11,0,0,0,1,1h2a1,1,0,0,0,1-1Zm-1,3H53V10h2Z"/><rect class="cls-13" x="53" y="10" width="1.99" height="3"/></g></g><g id="Factory_copy" data-name="Factory  **** copy"><path class="cls-14" d="M15.21,52.06a.47.47,0,0,1-.37-.19L6.64,40.1a.46.46,0,0,1,0-.41.44.44,0,0,1,.3-.28l24-6.37H31a.43.43,0,0,1,.26.09l12.84,9.4a.46.46,0,0,1,.17.44.43.43,0,0,1-.31.35L15.34,52Z"/><path class="cls-15" d="M31,33.48l12.83,9.4L15.21,51.61,7,39.84l24-6.36m0-.9a.85.85,0,0,0-.23,0L6.78,39a.92.92,0,0,0-.62.56.91.91,0,0,0,.11.83l8.2,11.77a.91.91,0,0,0,.74.38.75.75,0,0,0,.26,0l28.66-8.73a.89.89,0,0,0,.27-1.58L31.57,32.75a1,1,0,0,0-.53-.17Z"/><polygon class="cls-16" points="7.01 31.72 7.01 39.84 16.47 37.34 7.01 31.72"/><polygon class="cls-17" points="43.87 30.79 43.87 42.88 29.66 32.4 43.87 30.79"/><polygon class="cls-18" points="28.33 39.71 30.97 41.63 39.21 39.41 36.26 37.7 28.33 39.71"/><polygon class="cls-19" points="39.21 39.41 39.21 42.1 30.97 44.63 30.97 41.63 39.21 39.41"/><polygon class="cls-20" points="28.33 39.71 28.35 42.04 30.97 44.63 30.97 41.63 28.33 39.71"/><polygon class="cls-21" points="26.31 42.66 16.62 45.85 16.62 48.84 26.31 45.65 26.31 42.66"/><polygon class="cls-22" points="23.33 40.68 14.44 43.62 16.62 45.85 26.31 42.66 23.33 40.68"/><polygon class="cls-23" points="16.62 48.84 16.62 45.85 14.44 43.62 14.44 46.27 16.62 48.84"/><polygon class="cls-24" points="26.23 39.01 33.14 37.05 33.14 35.37 26.16 37.1 26.23 39.01"/><polygon class="cls-25" points="24.24 35.12 26.16 37 26.16 39.01 24.24 36.79 24.24 35.12"/><polygon class="cls-26" points="30.88 33.82 33.14 35.37 26.16 37.1 24.24 35.12 30.88 33.82"/><polygon class="cls-27" points="21.32 37.12 21.32 40.1 12.15 42.66 12.15 39.68 21.32 37.12"/><polygon class="cls-28" points="10.01 36.79 12.15 39.68 21.32 37.12 20.05 35.81 11.5 36.39 10.01 36.79"/><polygon class="cls-29" points="12.15 42.66 10.04 39.71 10.01 36.79 12.15 39.68 12.15 42.66"/><path class="cls-30" d="M35.18,36.93a.44.44,0,0,1-.34-.16l-8.75-10a.44.44,0,0,1,.09-.67l5.09-3.35a.46.46,0,0,1,.25-.08.55.55,0,0,1,.24.07L44.11,30.4a.45.45,0,0,1,.21.38.44.44,0,0,1-.2.38l-8.7,5.69A.43.43,0,0,1,35.18,36.93Z"/><path class="cls-15" d="M31.52,23.11l12.35,7.68-8.69,5.69-8.76-10,5.1-3.35m0-.9a.91.91,0,0,0-.5.15l-5.09,3.35a.9.9,0,0,0-.4.63.91.91,0,0,0,.22.71l8.75,10a.89.89,0,0,0,1.17.16l8.69-5.69a.91.91,0,0,0,.41-.76.89.89,0,0,0-.42-.76L32,22.35a.89.89,0,0,0-.47-.14Z"/><polygon class="cls-31" points="35.17 32.66 35.17 36.48 32.55 34.5 35.17 32.66"/><path class="cls-32" d="M25.69,39.53a.46.46,0,0,1-.37-.18L17.43,28.52a.45.45,0,0,1-.08-.36.45.45,0,0,1,.21-.29l6.07-3.61a.46.46,0,0,1,.23-.06.42.42,0,0,1,.26.08l11.32,8a.44.44,0,0,1,.19.37.48.48,0,0,1-.2.37l-9.49,6.41A.49.49,0,0,1,25.69,39.53Z"/><path class="cls-15" d="M23.86,24.65l11.32,8-9.49,6.41-7.9-10.83,6.07-3.6m0-.9a.93.93,0,0,0-.46.12l-6.07,3.61a.88.88,0,0,0-.42.59.93.93,0,0,0,.15.71L25,39.61a.91.91,0,0,0,1.23.22l9.49-6.42a.9.9,0,0,0,0-1.48l-11.32-8a.91.91,0,0,0-.52-.16Z"/><polygon class="cls-33" points="25.69 35.2 25.69 39.08 23.17 36.79 25.69 35.2"/><path class="cls-34" d="M15.37,42.32a.44.44,0,0,1-.35-.16L6.66,32a.46.46,0,0,1-.09-.36.44.44,0,0,1,.2-.31l8.5-5.47a.51.51,0,0,1,.24-.07.46.46,0,0,1,.3.11l10.18,9a.48.48,0,0,1,.15.37.47.47,0,0,1-.21.35L15.62,42.25A.45.45,0,0,1,15.37,42.32Z"/><path class="cls-15" d="M15.51,26.22l10.18,9L15.37,41.87,7,31.69l8.5-5.47m0-.9a.88.88,0,0,0-.49.15l-8.5,5.46a.93.93,0,0,0-.4.62.88.88,0,0,0,.2.71l8.36,10.18a.9.9,0,0,0,1.18.19L26.18,36a.89.89,0,0,0,.1-1.43l-10.17-9a.9.9,0,0,0-.6-.23Z"/><path class="cls-35" d="M31.52,23.11l12.35,7.68V42.88L15.21,51.62,7,39.84V31.69l8.5-5.47,2.28,2,6.07-3.6,2.56,1.81,5.1-3.35m0-.9a.91.91,0,0,0-.5.15l-4.58,3-2.06-1.46a.91.91,0,0,0-.52-.16.93.93,0,0,0-.46.12l-5.5,3.27-1.79-1.59a.9.9,0,0,0-.6-.23.88.88,0,0,0-.49.15l-8.5,5.46a.92.92,0,0,0-.41.76v8.15a.87.87,0,0,0,.16.52l8.2,11.77a.89.89,0,0,0,.74.39,1.09,1.09,0,0,0,.26,0l28.66-8.74a.89.89,0,0,0,.64-.86V30.79a.91.91,0,0,0-.42-.77L32,22.35a.89.89,0,0,0-.47-.14Z"/></g><g id="_2_graph_copy_5" data-name="2 graph copy 5"><g id="_2_D" data-name="2 D"><path class="cls-36" d="M53.77,37.59a1.25,1.25,0,0,0-.59-.13h-3a1.19,1.19,0,0,0-.87.34,1.1,1.1,0,0,0-.36.83l-.05,16.68.8.43L49.7,39a1.07,1.07,0,0,1,.36-.83,1.18,1.18,0,0,1,.87-.34h3a1.25,1.25,0,0,1,.59.13Z"/><path class="cls-37" d="M54.83,38.19a1.09,1.09,0,0,1,.34.83V55.75h-5.5L49.7,39a1.07,1.07,0,0,1,.36-.83,1.18,1.18,0,0,1,.87-.34h3A1.21,1.21,0,0,1,54.83,38.19Z"/></g><g id="_2_C" data-name="2 C"><path class="cls-36" d="M45.78,47.6a1.34,1.34,0,0,0-.58-.13h-3a1.22,1.22,0,0,0-.87.34,1.12,1.12,0,0,0-.36.83l0,6.69.78.41,0-6.7a1.13,1.13,0,0,1,.36-.83,1.22,1.22,0,0,1,.87-.34h3a1.34,1.34,0,0,1,.58.13Z"/><path class="cls-37" d="M46.84,48.2a1.1,1.1,0,0,1,.32.83v6.72H41.68l0-6.7a1.13,1.13,0,0,1,.36-.83,1.22,1.22,0,0,1,.87-.34h3A1.2,1.2,0,0,1,46.84,48.2Z"/></g><g id="_2B" data-name="2B"><polygon class="cls-38" points="33.85 55.76 33.07 55.38 33.09 43.66 33.87 44.06 33.85 55.76"/><path class="cls-36" d="M37.94,42.62a1.28,1.28,0,0,0-.59-.13h-3l.78.4h3a1.28,1.28,0,0,1,.59.13Z"/><path class="cls-36" d="M33.87,44.06l-.78-.4a1.14,1.14,0,0,1,.35-.83,1.24,1.24,0,0,1,.87-.33l.78.4a1.24,1.24,0,0,0-.87.33A1.14,1.14,0,0,0,33.87,44.06Z"/><path class="cls-37" d="M39,43.22a1.09,1.09,0,0,1,.34.82V55.76H33.85l0-11.7a1.14,1.14,0,0,1,.35-.83,1.24,1.24,0,0,1,.87-.33h3A1.18,1.18,0,0,1,39,43.22Z"/></g><g id="_2A" data-name="2A"><polygon class="cls-38" points="25.86 55.75 25.08 55.38 25.1 53.31 25.88 53.71 25.86 55.75"/><path class="cls-36" d="M29.94,52.26a1.34,1.34,0,0,0-.58-.13h-3l.78.4h3a1.34,1.34,0,0,1,.58.13Z"/><path class="cls-36" d="M25.88,53.71l-.78-.4a1.11,1.11,0,0,1,.35-.83,1.22,1.22,0,0,1,.87-.34l.78.4a1.26,1.26,0,0,0-.87.34A1.13,1.13,0,0,0,25.88,53.71Z"/><path class="cls-37" d="M31,52.86a1.12,1.12,0,0,1,.34.83v2.06H25.86l0-2a1.13,1.13,0,0,1,.35-.83,1.26,1.26,0,0,1,.87-.34h3A1.2,1.2,0,0,1,31,52.86Z"/></g></g></svg>