<svg xmlns="http://www.w3.org/2000/svg" xmlns:xlink="http://www.w3.org/1999/xlink" viewBox="0 0 64 64"><defs><linearGradient id="linear-gradient" x1="30.26" y1="46.99" x2="26.54" y2="40.56" gradientUnits="userSpaceOnUse"><stop offset="0" stop-color="#8cd7f5"/><stop offset="1" stop-color="#376e8c"/></linearGradient><linearGradient id="linear-gradient-2" x1="-212.96" y1="-29.58" x2="-216.67" y2="-36.01" gradientTransform="translate(-203 10) rotate(180)" xlink:href="#linear-gradient"/><clipPath id="clip-path"><polygon points="41.47 20.47 51.17 30.18 51.17 10.76 41.47 20.47" fill="none"/></clipPath><clipPath id="clip-path-2"><polygon points="41.47 20.47 31.76 10.76 31.76 30.18 41.47 20.47" fill="none"/></clipPath><linearGradient id="linear-gradient-3" x1="32.24" y1="20.47" x2="50.69" y2="20.47" gradientUnits="userSpaceOnUse"><stop offset="0" stop-color="#464646"/><stop offset="1" stop-color="#141414"/></linearGradient><clipPath id="clip-path-3"><polygon points="20.11 29.21 30.79 18.53 30.79 39.89 20.11 29.21" fill="none"/></clipPath><clipPath id="clip-path-4"><polygon points="20.11 29.21 9.43 39.89 9.43 18.53 20.11 29.21" fill="none"/></clipPath><linearGradient id="linear-gradient-4" x1="16.61" y1="32.13" x2="23.61" y2="44.25" xlink:href="#linear-gradient"/><linearGradient id="linear-gradient-6" x1="38.53" y1="24.76" x2="44.4" y2="34.91" gradientUnits="userSpaceOnUse"><stop offset="0" stop-color="#d7d7d7"/><stop offset="1" stop-color="#969696"/></linearGradient><clipPath id="clip-path-5"><polygon points="47.29 37.95 57 47.66 57 28.24 47.29 37.95" fill="none"/></clipPath><clipPath id="clip-path-6"><polygon points="47.29 37.95 37.58 28.24 37.58 47.66 47.29 37.95" fill="none"/></clipPath></defs><g id="Layer_4" data-name="Layer 4"><g opacity="0.45"><path d="M29.82,39.4a.48.48,0,0,1,.36.17L33.1,43a.5.5,0,0,1,0,.63L30.18,47a.48.48,0,0,1-.36.17.47.47,0,0,1-.17,0,.49.49,0,0,1-.32-.46V44.26H23.5V42.32h5.83V39.89a.5.5,0,0,1,.32-.46.47.47,0,0,1,.17,0m0-1a1.3,1.3,0,0,0-.52.1,1.48,1.48,0,0,0-1,1.39v1.43H23.5a1,1,0,0,0-1,1v1.94a1,1,0,0,0,1,1h4.83v1.42a1.48,1.48,0,0,0,1.49,1.49,1.47,1.47,0,0,0,1.12-.52l2.92-3.4a1.47,1.47,0,0,0,0-1.93l-2.92-3.4a1.47,1.47,0,0,0-1.12-.52Z" fill="#fff"/></g><path d="M30.18,47l2.92-3.4a.5.5,0,0,0,0-.63l-2.92-3.4a.48.48,0,0,0-.53-.14.5.5,0,0,0-.32.46v2.43H23.5v1.94h5.83v2.42a.49.49,0,0,0,.32.46A.48.48,0,0,0,30.18,47Z" stroke="#003755" stroke-linejoin="round" fill-rule="evenodd" fill="url(#linear-gradient)"/><g opacity="0.45"><path d="M10.4,39.4l.17,0a.49.49,0,0,1,.31.46v2.43h5.83v1.94H10.88v2.42a.48.48,0,0,1-.31.46l-.17,0A.48.48,0,0,1,10,47L7.12,43.6a.47.47,0,0,1,0-.63L10,39.57a.48.48,0,0,1,.37-.17m0-1a1.48,1.48,0,0,0-1.13.52l-2.91,3.4a1.47,1.47,0,0,0,0,1.93l2.91,3.4a1.48,1.48,0,0,0,1.13.52,1.54,1.54,0,0,0,.52-.09,1.51,1.51,0,0,0,1-1.4V45.26h4.83a1,1,0,0,0,1-1V42.32a1,1,0,0,0-1-1H11.88V39.89a1.5,1.5,0,0,0-1-1.4,1.44,1.44,0,0,0-.51-.09Z" fill="#fff"/></g><path d="M10,39.57,7.12,43a.47.47,0,0,0,0,.63L10,47a.5.5,0,0,0,.54.14.48.48,0,0,0,.31-.46V44.26h5.83V42.32H10.88V39.89a.49.49,0,0,0-.31-.46A.5.5,0,0,0,10,39.57Z" stroke="#003755" stroke-linejoin="round" fill-rule="evenodd" fill="url(#linear-gradient-2)"/><g clip-path="url(#clip-path)"><g opacity="0.45"><path d="M41.47,30.19a9.72,9.72,0,1,1,9.72-9.72A9.73,9.73,0,0,1,41.47,30.19Z" fill="#fff"/><path d="M41.47,11.25a9.22,9.22,0,1,1-9.23,9.22,9.24,9.24,0,0,1,9.23-9.22m0-1A10.22,10.22,0,1,0,51.69,20.47,10.23,10.23,0,0,0,41.47,10.25Z" fill="#fff"/></g><path d="M41.47,29.69a9.22,9.22,0,1,1,9.22-9.22A9.23,9.23,0,0,1,41.47,29.69Zm0-17.47a8.25,8.25,0,1,0,8.25,8.25A8.27,8.27,0,0,0,41.47,12.22Z" fill="#333332"/><path d="M41.47,26.78a6.31,6.31,0,1,1,6.31-6.31A6.32,6.32,0,0,1,41.47,26.78Zm0-11.65a5.34,5.34,0,1,0,5.34,5.34A5.35,5.35,0,0,0,41.47,15.13Z" fill="#333332"/></g><g clip-path="url(#clip-path-2)"><g opacity="0.45"><path d="M41.47,30.19a9.72,9.72,0,1,1,9.72-9.72A9.73,9.73,0,0,1,41.47,30.19Z" fill="#fff"/><path d="M41.47,11.25a9.22,9.22,0,1,1-9.23,9.22,9.24,9.24,0,0,1,9.23-9.22m0-1A10.22,10.22,0,1,0,51.69,20.47,10.23,10.23,0,0,0,41.47,10.25Z" fill="#fff"/></g><path d="M41.47,11.25a9.22,9.22,0,1,1-9.23,9.22A9.24,9.24,0,0,1,41.47,11.25Zm0,17.47a8.25,8.25,0,1,0-8.26-8.25A8.26,8.26,0,0,0,41.47,28.72Z" fill="url(#linear-gradient-3)"/><path d="M41.47,14.16a6.31,6.31,0,1,1-6.31,6.31A6.32,6.32,0,0,1,41.47,14.16Zm0,11.65a5.34,5.34,0,1,0-5.34-5.34A5.35,5.35,0,0,0,41.47,25.81Z" fill="#333332"/></g><g clip-path="url(#clip-path-3)"><g opacity="0.45"><path d="M20.11,39.9A10.7,10.7,0,1,1,30.8,29.21,10.7,10.7,0,0,1,20.11,39.9Z" fill="#fff"/><path d="M20.11,19a10.2,10.2,0,1,1-10.2,10.2A10.21,10.21,0,0,1,20.11,19m0-1A11.2,11.2,0,1,0,31.3,29.21,11.21,11.21,0,0,0,20.11,18Z" fill="#fff"/></g><path d="M20.11,39.4A10.2,10.2,0,1,1,30.3,29.21,10.21,10.21,0,0,1,20.11,39.4Zm0-19.41a9.22,9.22,0,1,0,9.22,9.22A9.23,9.23,0,0,0,20.11,20Zm0,16.5a7.28,7.28,0,1,1,7.28-7.28A7.29,7.29,0,0,1,20.11,36.49Zm0-13.59a6.31,6.31,0,1,0,6.31,6.31A6.32,6.32,0,0,0,20.11,22.9Z" fill="#333332"/></g><g clip-path="url(#clip-path-4)"><g opacity="0.45"><path d="M20.11,39.9A10.7,10.7,0,1,1,30.8,29.21,10.7,10.7,0,0,1,20.11,39.9Z" fill="#fff"/><path d="M20.11,19a10.2,10.2,0,1,1-10.2,10.2A10.21,10.21,0,0,1,20.11,19m0-1A11.2,11.2,0,1,0,31.3,29.21,11.21,11.21,0,0,0,20.11,18Z" fill="#fff"/></g><path d="M20.11,19a10.2,10.2,0,1,1-10.2,10.2A10.21,10.21,0,0,1,20.11,19Zm0,19.42a9.22,9.22,0,1,0-9.23-9.22A9.24,9.24,0,0,0,20.11,38.43Zm0-16.5a7.28,7.28,0,1,1-7.28,7.28A7.29,7.29,0,0,1,20.11,21.93Zm0,13.59a6.31,6.31,0,1,0-6.31-6.31A6.32,6.32,0,0,0,20.11,35.52Z" fill="#333332"/></g><rect x="19.14" y="30.67" width="1.94" height="15.05" stroke="#003755" stroke-linejoin="round" fill="url(#linear-gradient-4)"/><circle cx="20.11" cy="29.21" r="3.88" stroke="#003755" stroke-linejoin="round" fill="url(#linear-gradient-4)"/><rect x="40.5" y="23.63" width="1.94" height="12.42" stroke="#787878" stroke-linejoin="round" fill="url(#linear-gradient-6)"/><circle cx="41.47" cy="20.47" r="2.91" stroke="#787878" stroke-linejoin="round" fill="url(#linear-gradient-6)"/><g clip-path="url(#clip-path-5)"><g opacity="0.45"><path d="M47.29,47.67A9.73,9.73,0,1,1,57,38,9.73,9.73,0,0,1,47.29,47.67Z" fill="#fff"/><path d="M47.29,28.72A9.23,9.23,0,1,1,38.07,38a9.23,9.23,0,0,1,9.22-9.23m0-1A10.23,10.23,0,1,0,57.51,38,10.23,10.23,0,0,0,47.29,27.72Z" fill="#fff"/></g><path d="M47.29,47.17A9.23,9.23,0,1,1,56.51,38,9.24,9.24,0,0,1,47.29,47.17Zm0-17.48A8.26,8.26,0,1,0,55.54,38,8.27,8.27,0,0,0,47.29,29.69Z" fill="#333332"/><path d="M47.29,44.26A6.31,6.31,0,1,1,53.6,38,6.32,6.32,0,0,1,47.29,44.26Zm0-11.65A5.34,5.34,0,1,0,52.63,38,5.35,5.35,0,0,0,47.29,32.61Z" fill="#333332"/></g><g clip-path="url(#clip-path-6)"><g opacity="0.45"><path d="M47.29,47.67A9.73,9.73,0,1,1,57,38,9.73,9.73,0,0,1,47.29,47.67Z" fill="#fff"/><path d="M47.29,28.72A9.23,9.23,0,1,1,38.07,38a9.23,9.23,0,0,1,9.22-9.23m0-1A10.23,10.23,0,1,0,57.51,38,10.23,10.23,0,0,0,47.29,27.72Z" fill="#fff"/></g><path d="M47.29,28.72A9.23,9.23,0,1,1,38.07,38,9.23,9.23,0,0,1,47.29,28.72Zm0,17.48A8.26,8.26,0,1,0,39,38,8.26,8.26,0,0,0,47.29,46.2Z" fill="#333332"/><path d="M47.29,31.64A6.31,6.31,0,1,1,41,38,6.32,6.32,0,0,1,47.29,31.64Zm0,11.65A5.34,5.34,0,1,0,42,38,5.35,5.35,0,0,0,47.29,43.29Z" fill="#333332"/></g><rect x="46.32" y="40.82" width="1.94" height="12.42" stroke="#787878" stroke-linejoin="round" fill="url(#linear-gradient-6)"/><circle cx="47.29" cy="37.95" r="2.91" stroke="#787878" stroke-linejoin="round" fill="url(#linear-gradient-6)"/></g></svg>