<svg id="SIMULIA_2020_AppIcons" xmlns="http://www.w3.org/2000/svg" xmlns:xlink="http://www.w3.org/1999/xlink" viewBox="0 0 64 64"><defs><style>.cls-1{opacity:0.2;filter:url(#DS_GaussianBlur_2);}.cls-2{fill:#1d1d1b;}.cls-3{fill:url(#linear-gradient);}.cls-4{fill:#003755;}.cls-5{fill:url(#linear-gradient-2);}</style><filter id="DS_GaussianBlur_2" x="-50" y="-50" width="200" height="200" name="DS_GaussianBlur_2"><feGaussianBlur stdDeviation="1"/></filter><linearGradient id="linear-gradient" x1="24.32809" y1="11.3313" x2="39.29801" y2="37.25996" gradientUnits="userSpaceOnUse"><stop offset="0" stop-color="#8cd7f5"/><stop offset="1" stop-color="#376e8c"/></linearGradient><linearGradient id="linear-gradient-2" x1="28.702" y1="24.74004" x2="43.67192" y2="50.66869" xlink:href="#linear-gradient"/></defs><title>SIMULIA _ Run Abaqus - SIMABQX</title><g id="SIMULIA___Run_Abaqus_-_SIMABQX" data-name="SIMULIA _ Run Abaqus - SIMABQX"><g class="cls-1"><path class="cls-2" d="M49.99666,51.9876c-.00305-1.10494-6.72143-1.992-15.00782-1.98758-8.28634.00639-14.99993.90559-14.99217,2.01177.00322,1.103,6.72622,1.99457,15.00939,1.98818C43.291,53.99358,50.00294,53.08929,49.99666,51.9876Z"/></g><path class="cls-3" d="M13.5293,28.5c.69482-5.96484,13.51758-10.98193,13.65088-11.03369L27.5,17.34277V9.5h13v7.84277l.32031.12354c.13282.05176,12.95508,5.06885,13.65039,11.03369Z"/><path class="cls-4" d="M40,10v7.6861l.64013.2469c3.46012,1.33462,12.06,5.5729,13.22781,10.067H14.13235c1.16868-4.48947,9.76779-8.73066,13.22774-10.06708L28,17.68575V10H40m1-1H27v8S13,22.4,13,29H55c0-6.6-14-12-14-12V9Z"/><path class="cls-5" d="M27.5,52.5V44.65723l-.31982-.124c-.1333-.05078-12.95606-5.06933-13.65088-11.0332H54.4707c-.69336,5.96777-13.51757,10.98242-13.65039,11.0332l-.32031.124V52.5Z"/><path class="cls-4" d="M53.86765,34c-1.16868,4.48947-9.7678,8.73066-13.22774,10.06708L40,44.31425V52H28V44.3139l-.64013-.2469c-3.46012-1.33462-12.06-5.57289-13.22781-10.067H53.86765M55,33H13c0,6.6,14,12,14,12v8H41V45s14-5.4,14-12Z"/></g></svg>