<svg xmlns="http://www.w3.org/2000/svg" viewBox="0 0 64 64"><g id="CST"><rect x="15" y="15" width="40" height="40" style="fill:#001771"/><path d="M22,37V23a1,1,0,0,1,1-1H41a1,1,0,0,0,1-1V19a1,1,0,0,0-1-1H19a1,1,0,0,0-1,1V41a1,1,0,0,0,1,1H41a1,1,0,0,0,1-1V39a1,1,0,0,0-1-1H23A1,1,0,0,1,22,37Z" style="fill:#fff"/><path d="M48,33V47a1,1,0,0,1-1,1H29a1,1,0,0,0-1,1v2a1,1,0,0,0,1,1H51a1,1,0,0,0,1-1V29a1,1,0,0,0-1-1H29a1,1,0,0,0-1,1v2a1,1,0,0,0,1,1H47A1,1,0,0,1,48,33Z" style="fill:#fff"/></g><g id="FINAL_BADGE" data-name="FINAL BADGE"><path d="M29,14.75a7.25,7.25,0,0,0-14.39-1.22A7.25,7.25,0,1,0,22.39,22,7.26,7.26,0,0,0,29,14.75Z" style="fill:#fff"/><path d="M21.5,24.5a9,9,0,0,1-8.2-5.29.51.51,0,0,1,0-.48.5.5,0,0,1,.42-.23H18.7a.52.52,0,0,1,.32.11,3.93,3.93,0,0,0,2.48.89,4,4,0,0,0,0-8,3.93,3.93,0,0,0-2.48.89.52.52,0,0,1-.32.11H13.76a.5.5,0,0,1-.42-.23.51.51,0,0,1,0-.48A9,9,0,1,1,21.5,24.5Z" style="fill:#075081"/><path d="M21.5,7a8.5,8.5,0,1,1-7.74,12H18.7a4.5,4.5,0,1,0,0-7H13.76A8.49,8.49,0,0,1,21.5,7m0-1a9.51,9.51,0,0,0-8.65,5.59,1,1,0,0,0,.07.95,1,1,0,0,0,.84.46H18.7a1,1,0,0,0,.63-.22A3.46,3.46,0,0,1,21.5,12a3.5,3.5,0,0,1,0,7,3.46,3.46,0,0,1-2.17-.78A1,1,0,0,0,18.7,18H13.76a1,1,0,0,0-.84.46,1,1,0,0,0-.07.95A9.5,9.5,0,1,0,21.5,6Z" style="fill:#fff"/><path d="M15.5,30.5a9,9,0,1,1,8.2-12.71.51.51,0,0,1,0,.48.5.5,0,0,1-.42.23H18.3a.52.52,0,0,1-.32-.11,3.93,3.93,0,0,0-2.48-.89,4,4,0,0,0,0,8A3.93,3.93,0,0,0,18,24.61a.52.52,0,0,1,.32-.11h4.94a.5.5,0,0,1,.42.23.51.51,0,0,1,0,.48A9,9,0,0,1,15.5,30.5Z" style="fill:#075081"/><path d="M15.5,13a8.49,8.49,0,0,1,7.74,5H18.3a4.5,4.5,0,1,0,0,7h4.94A8.5,8.5,0,1,1,15.5,13m0-1a9.5,9.5,0,1,0,8.65,13.41,1,1,0,0,0-.07-.95,1,1,0,0,0-.84-.46H18.3a1,1,0,0,0-.63.22A3.46,3.46,0,0,1,15.5,25a3.5,3.5,0,0,1,0-7,3.46,3.46,0,0,1,2.17.78,1,1,0,0,0,.63.22h4.94a1,1,0,0,0,.84-.46,1,1,0,0,0,.07-.95A9.51,9.51,0,0,0,15.5,12Z" style="fill:#fff"/></g></svg>