<?xml version="1.0" encoding="UTF-8"?><svg id="new_logo_copy" xmlns="http://www.w3.org/2000/svg" viewBox="0 0 64 64"><defs><style>.cls-1{fill:#fff;}.cls-2{fill:#001871;}</style></defs><rect id="rect8" class="cls-2" x="8" y="8" width="48" height="48"/><g id="g24"><path id="PART_1_G" class="cls-1" d="M41,38.47c0,1-.54,1.53-1.54,1.53H17s-3,0-3-2.99c0-2.77,0-19.57,0-19.97,0-3.04,3-3.04,3-3.04h22.41c1,0,1.59,.49,1.59,1.49v2.02c0,1-.53,1.49-1.53,1.49H21.65c-3,0-2.65,2.59-2.65,2.59v10.87s-.35,2.55,2.65,2.55h17.8c1,0,1.54,.5,1.54,1.5v1.97Z"/><path id="PART_2_D" class="cls-1" d="M24,45.5c0-1,.54-1.5,1.54-1.5h17.8c3,0,2.65-2.55,2.65-2.55v-10.87s.35-2.59-2.65-2.59H25.54c-1,0-1.53-.49-1.53-1.49v-2.02c0-1,.59-1.49,1.59-1.49h22.41s3,0,3,3.04c0,.4,0,17.2,0,19.97,0,2.99-3,2.99-3,2.99H25.54c-1,0-1.54-.53-1.54-1.53v-1.97Z"/></g></svg>