<svg id="CST" xmlns="http://www.w3.org/2000/svg" viewBox="0 0 64 64"><defs><style>.cls-1{fill:#001771;}.cls-2{fill:#fff;}</style></defs><rect class="cls-1" x="12" y="13" width="40" height="40"/><path class="cls-2" d="M19,35V21a1,1,0,0,1,1-1H38a1,1,0,0,0,1-1V17a1,1,0,0,0-1-1H16a1,1,0,0,0-1,1V39a1,1,0,0,0,1,1H38a1,1,0,0,0,1-1V37a1,1,0,0,0-1-1H20A1,1,0,0,1,19,35Z"/><path class="cls-2" d="M45,31V45a1,1,0,0,1-1,1H26a1,1,0,0,0-1,1v2a1,1,0,0,0,1,1H48a1,1,0,0,0,1-1V27a1,1,0,0,0-1-1H26a1,1,0,0,0-1,1v2a1,1,0,0,0,1,1H44A1,1,0,0,1,45,31Z"/></svg>