<?xml version="1.0" encoding="utf-8"?>
<!-- Generator: Adobe Illustrator 26.0.3, SVG Export Plug-In . SVG Version: 6.00 Build 0)  -->
<svg version="1.1" xmlns="http://www.w3.org/2000/svg" xmlns:xlink="http://www.w3.org/1999/xlink" x="0px" y="0px"
	 viewBox="0 0 64 64" style="enable-background:new 0 0 64 64;" xml:space="preserve">
<style type="text/css">
	.st0{fill:none;}
	.st1{fill:#844138;}
	.st2{display:none;}
	.st3{display:inline;opacity:0.15;fill:url(#SVGID_1_);}
	.st4{display:inline;}
	.st5{opacity:0.5;fill:#FFFFFF;}
	.st6{fill:#F4F5F6;}
	.st7{fill:#D1D4D4;}
	.st8{display:inline;opacity:0.3;}
	.st9{fill:url(#SVGID_00000045612858773480614640000014074725890012011958_);}
	.st10{fill:#FF5528;}
	.st11{fill:none;stroke:#AAAAAA;stroke-miterlimit:10;}
	.st12{fill:none;stroke:#AAAAAA;stroke-miterlimit:10;stroke-dasharray:3.2727,1.0909;}
	.st13{fill:none;stroke:#AAAAAA;stroke-miterlimit:10;stroke-dasharray:1.0909,1.0909,3.2727,1.0909;}
	.st14{display:inline;fill:#323232;}
	.st15{fill:#FFFFFF;}
	.st16{filter:url(#Adobe_OpacityMaskFilter);}
	.st17{opacity:0.75;mask:url(#SVGID_00000106831290252788071320000010217517337783016850_);}
	.st18{opacity:0.9;}
	.st19{fill:#1C75BC;}
	.st20{filter:url(#Adobe_OpacityMaskFilter_00000053547117845387967560000014974259347215939726_);}
	.st21{opacity:0.75;mask:url(#SVGID_00000079482537363626775790000006233518337959804834_);}
	.st22{opacity:0.83;}
	.st23{fill:#0C4A7C;}
</style>
<pattern  y="64" width="20" height="20" patternUnits="userSpaceOnUse" id="New_Pattern_Swatch_2" viewBox="22.1 -42.1 20 20" style="overflow:visible;">
	<g>
		<rect x="22.1" y="-42.1" class="st0" width="20" height="20"/>
		<rect x="49.1" y="-26.3" transform="matrix(0.7071 -0.7071 0.7071 0.7071 23.837 33.3051)" class="st1" width="6" height="28.3"/>
		<rect x="29.1" y="-26.3" transform="matrix(0.7071 -0.7071 0.7071 0.7071 17.9792 19.163)" class="st1" width="6" height="28.3"/>
		<rect x="9.1" y="-26.3" transform="matrix(0.7071 -0.7071 0.7071 0.7071 12.1213 5.0208)" class="st1" width="6" height="28.3"/>
		
			<rect x="49.1" y="-46.3" transform="matrix(0.7071 -0.7071 0.7071 0.7071 37.9792 27.4472)" class="st1" width="6" height="28.3"/>
		
			<rect x="29.1" y="-46.3" transform="matrix(0.7071 -0.7071 0.7071 0.7071 32.1213 13.3051)" class="st1" width="6" height="28.3"/>
		<rect x="9.1" y="-46.3" transform="matrix(0.7071 -0.7071 0.7071 0.7071 26.2635 -0.837)" class="st1" width="6" height="28.3"/>
		
			<rect x="49.1" y="-66.3" transform="matrix(0.7071 -0.7071 0.7071 0.7071 52.1213 21.5894)" class="st1" width="6" height="28.3"/>
		<rect x="29.1" y="-66.3" transform="matrix(0.7071 -0.7071 0.7071 0.7071 46.2635 7.4472)" class="st1" width="6" height="28.3"/>
		<rect x="9.1" y="-66.3" transform="matrix(0.7071 -0.7071 0.7071 0.7071 40.4056 -6.6949)" class="st1" width="6" height="28.3"/>
	</g>
</pattern>
<g id="Guide" class="st2">
	<g id="pedestal_r2021x" class="st4">
		<path class="st5" d="M63,64H1c-0.6,0-1-0.4-1-1V1c0-0.6,0.4-1,1-1h62c0.6,0,1,0.4,1,1v62C64,63.6,63.6,64,63,64z"/>
		<rect x="1" y="1" class="st6" width="62" height="62"/>
		<rect x="1" y="1" class="st7" width="2" height="62"/>
	</g>
	<g id="no-go_zone_1_" class="st8">
		<pattern  id="SVGID_1_" xlink:href="#New_Pattern_Swatch_2" patternTransform="matrix(1 0 0 1 -3 -3)"  style="opacity:0.3;">
		</pattern>
		<path style="fill:url(#SVGID_1_);" d="M0,0v64h64V0H0z M57,57H7V7h50V57z"/>
	</g>
	<g class="st4">
		<path class="st10" d="M57,7v50H7V7H57 M58,6h-1H7H6v1v50v1h1h50h1v-1V7V6L58,6z"/>
	</g>
</g>
<g id="Background_check" class="st2">
	<rect x="0" y="0" class="st14" width="64" height="64"/>
</g>
<g id="Raster_reference">
</g>
<g id="Vector_reference">
</g>
<g id="Scaled_raster_reference">
</g>
<g id="Work">
</g>
<g id="Work_2">
</g>
<g id="FINAL_ART">
	<g>
		<g>
			<g>
				<path class="st15" d="M58,55.7c0,1.3-1,2.3-2.3,2.3H8.3C7.1,58,6,57,6,55.7V8.3C6,7.1,7,6,8.3,6h47.3C56.9,6,58,7,58,8.3V55.7z"
					/>
			</g>
			<defs>
				<filter id="Adobe_OpacityMaskFilter" filterUnits="userSpaceOnUse" x="6" y="6" width="52" height="52">
					<feColorMatrix  type="matrix" values="1 0 0 0 0  0 1 0 0 0  0 0 1 0 0  0 0 0 1 0"/>
				</filter>
			</defs>
			
				<mask maskUnits="userSpaceOnUse" x="6" y="6" width="52" height="52" id="SVGID_00000106831290252788071320000010217517337783016850_">
				<g class="st16">
					
						<image style="overflow:visible;enable-background:new    ;" width="2745" height="2745" xlink:href="223AC74F.jpg"  transform="matrix(1.904997e-02 0 0 1.905000e-02 5.8885 5.8303)">
					</image>
				</g>
			</mask>
			<g class="st17">
				<path class="st15" d="M58,55.7c0,1.3-1,2.3-2.3,2.3H8.3C7.1,58,6,57,6,55.7V8.3C6,7.1,7,6,8.3,6h47.3C56.9,6,58,7,58,8.3V55.7z"
					/>
			</g>
		</g>
		<g class="st18">
			<g>
				<path class="st19" d="M58,55.7c0,1.3-1,2.3-2.3,2.3H8.3C7.1,58,6,57,6,55.7V8.3C6,7.1,7,6,8.3,6h47.3C56.9,6,58,7,58,8.3V55.7z"
					/>
			</g>
			<defs>
				
					<filter id="Adobe_OpacityMaskFilter_00000007424245130002664300000016121901975566075552_" filterUnits="userSpaceOnUse" x="6" y="6" width="52" height="52">
					<feColorMatrix  type="matrix" values="1 0 0 0 0  0 1 0 0 0  0 0 1 0 0  0 0 0 1 0"/>
				</filter>
			</defs>
			
				<mask maskUnits="userSpaceOnUse" x="6" y="6" width="52" height="52" id="SVGID_00000079482537363626775790000006233518337959804834_">
				<g style="filter:url(#Adobe_OpacityMaskFilter_00000007424245130002664300000016121901975566075552_);">
					
						<image style="overflow:visible;enable-background:new    ;" width="2745" height="2745" xlink:href="223AC74D.jpg"  transform="matrix(1.904997e-02 0 0 1.905000e-02 5.8885 5.8303)">
					</image>
				</g>
			</mask>
			<g class="st21">
				<path class="st19" d="M58,55.7c0,1.3-1,2.3-2.3,2.3H8.3C7.1,58,6,57,6,55.7V8.3C6,7.1,7,6,8.3,6h47.3C56.9,6,58,7,58,8.3V55.7z"
					/>
			</g>
		</g>
		<g class="st22">
			<path class="st23" d="M30.2,30.8C21.6,20.4,14.9,12.2,9.8,6H7.7L6,7.8v25.2c3.5-1.9,8-2.8,12-2.4c4.2,0.4,8,2.2,10.9,5.4
				c2.7,3,4.5,7.1,4.5,11.2c0.1,4.2-1.6,8.1-5.1,10.7h5.5c1.7-1.5,2.9-4.6,3.3-6.6c0.6-2.5,0.6-4.9,0.2-7.5
				C36.4,38.5,33.4,34.8,30.2,30.8"/>
			<path class="st23" d="M57.9,56.7c0,0,0.1-0.1,0.1-0.1V41.8c-4.5-0.5-9.4-2.9-13.1-5.1c-4.1-2.5-7.7-5.4-11.2-8.6
				c-7-6.6-12.5-14-17.5-22.1h-4.7c8.8,10.8,23,28.2,42.7,52h2.1C57,57.7,57.5,57.3,57.9,56.7z"/>
			<path class="st23" d="M58,36.9V26.1c-7.3,0-14.3-1.6-20.7-5.1c-6.3-3.4-11.7-8.5-14.9-15h-4.2c4.1,7.3,10.2,14.4,16.6,19.8
				C41.3,31.3,49.1,35.9,58,36.9z"/>
			<path class="st23" d="M56.5,6H24c3.2,6,8.3,10.2,14.5,12.7c6.3,2.5,12.8,2.9,19.5,2.6V7.4C57.6,6.8,57,6.4,56.5,6z"/>
			<path class="st23" d="M6,41.4v14.9L7.7,58h5.2c-2.5-2.2-3.8-5.2-3.7-8.6c0.1-3.3,1.7-6.3,4.7-8c2.8-1.5,6.5-1.6,9.4-0.1
				c2.9,1.6,4.5,5,3.5,8.2c-1,3.3-4.5,4.9-7.8,4.1c-1.7-0.4-3.1-1.6-3.7-3.3c-0.5-1.4-0.3-3.1,0.6-4.4c1-1.4,2.7-2.1,4.4-1.8
				c1.6,0.3,2.9,1.4,3.1,3.1c0.1,1-0.2,1.9-1,2.6c-0.7,0.5-1.6,0.8-2.5,0.4c-0.7-0.2-1.2-0.9-1.1-1.7c0.1-0.6,0.7-1.3,1.4-1
				c-0.6-0.1-1.1,0.4-1.1,1c0,0.5,0.4,1,0.9,1.2c1,0.4,2.1-0.1,2.5-1c0.5-1.1,0.2-2.4-0.7-3.2c-1.2-1.1-3-1-4.3-0.1
				c-1.9,1.4-1.9,4.4-0.2,6c1.9,1.8,5.2,1.5,6.9-0.4c1.6-1.7,1.6-4.4,0.4-6.3c-1.4-2.3-4.1-3.1-6.6-2.8c-5.5,0.6-8,6-5.7,10.8
				c1.1,2.2,3.1,3.7,5.5,4.4c2.4,0.6,4.8,0.3,7-0.8c2-1,3.4-2.6,4.3-4.6c1.1-2.5,1.1-5.2,0.3-7.8c-0.6-1.9-1.7-3.7-3.2-5.1
				c-2.1-2-4.7-2.9-7.5-3.1c-2.1-0.1-4,0.1-6,0.8C10,37.4,7.7,39,6,41.4"/>
		</g>
		<g>
			<polygon class="st15" points="41.1,43.6 22.6,43.6 14.6,48.6 49,48.6 			"/>
			<polygon class="st15" points="22,41.4 30.9,26.1 30.9,17.4 14.2,46.2 			"/>
			<polygon class="st15" points="33,26.2 41.9,41.5 49.9,46.6 33,17.3 			"/>
		</g>
	</g>
</g>
</svg>
