<svg id="Layer_3" data-name="Layer 3" xmlns="http://www.w3.org/2000/svg" xmlns:xlink="http://www.w3.org/1999/xlink" viewBox="0 0 64 64"><defs><linearGradient id="linear-gradient" x1="6.78" y1="2.17" x2="19.23" y2="23.75" gradientUnits="userSpaceOnUse"><stop offset="0" stop-color="#fff"/><stop offset="1" stop-color="#d2d2d2"/></linearGradient><linearGradient id="linear-gradient-2" x1="6.78" y1="2.18" x2="19.23" y2="23.75" xlink:href="#linear-gradient"/><linearGradient id="linear-gradient-3" x1="-13841.17" y1="-5960.18" x2="-13841.92" y2="-5959.29" gradientTransform="matrix(0.8, 0.07, -0.35, 1.22, 9049.72, 8271.61)" gradientUnits="userSpaceOnUse"><stop offset="0" stop-color="#fff"/><stop offset="0.24" stop-color="#fcfcfc"/><stop offset="0.43" stop-color="#f2f2f2"/><stop offset="0.46" stop-color="#f0f0f0"/></linearGradient><linearGradient id="linear-gradient-4" x1="-13841.86" y1="-5959.39" x2="-13841.08" y2="-5958.05" gradientTransform="matrix(0.8, 0.07, -0.35, 1.22, 9049.72, 8271.61)" xlink:href="#linear-gradient"/><linearGradient id="top_white" x1="-13842.97" y1="-5961.67" x2="-13838.63" y2="-5961.67" gradientTransform="matrix(0.8, 0.07, -0.35, 1.22, 9049.72, 8271.61)" gradientUnits="userSpaceOnUse"><stop offset="0" stop-color="#fff"/><stop offset="1" stop-color="#f0f0f0"/></linearGradient><linearGradient id="linear-gradient-5" x1="-13841.8" y1="-5960.59" x2="-13842.71" y2="-5959.02" gradientTransform="matrix(0.8, 0.07, -0.35, 1.22, 9049.72, 8271.61)" gradientUnits="userSpaceOnUse"><stop offset="0.16" stop-color="#f5f5f5"/><stop offset="0.27" stop-color="#e7e7e7"/><stop offset="0.48" stop-color="#c1c1c1"/><stop offset="0.5" stop-color="#bebebe"/></linearGradient><linearGradient id="white_left" x1="-13841.58" y1="-5959.99" x2="-13837.7" y2="-5959.99" gradientTransform="matrix(0.8, 0.07, -0.35, 1.22, 9049.72, 8271.61)" gradientUnits="userSpaceOnUse"><stop offset="0" stop-color="#f5f5f5"/><stop offset="1" stop-color="#bebebe"/></linearGradient><linearGradient id="linear-gradient-6" x1="-13835.22" y1="-5963.32" x2="-13826.4" y2="-5948.05" gradientTransform="matrix(0.8, 0.07, -0.35, 1.22, 9049.72, 8271.61)" gradientUnits="userSpaceOnUse"><stop offset="0.04" stop-color="#141414"/><stop offset="1" stop-color="#464646"/></linearGradient><linearGradient id="linear-gradient-7" x1="32.66" y1="16.96" x2="24.05" y2="16.96" gradientUnits="userSpaceOnUse"><stop offset="0" stop-color="#f7f7f7"/><stop offset="0.18" stop-color="#f0f0f0"/><stop offset="0.45" stop-color="#dcdcdc"/><stop offset="0.78" stop-color="#bcbcbc"/><stop offset="1" stop-color="#a1a1a1"/></linearGradient><linearGradient id="linear-gradient-8" x1="6.76" y1="17.14" x2="33.55" y2="17.14" gradientUnits="userSpaceOnUse"><stop offset="0" stop-color="#666"/><stop offset="0.15" stop-color="#dbdcdd"/><stop offset="0.87" stop-color="#c6c8c9"/><stop offset="1" stop-color="#f2f2f2"/></linearGradient><linearGradient id="linear-gradient-9" x1="6.61" y1="18.22" x2="32.4" y2="11" gradientUnits="userSpaceOnUse"><stop offset="0.01" stop-color="#fff"/><stop offset="0.05" stop-color="#f9f9f9"/><stop offset="0.11" stop-color="#e9e9e9"/><stop offset="0.18" stop-color="#cecece"/><stop offset="0.22" stop-color="#bababa"/><stop offset="1" stop-color="#fff"/></linearGradient><linearGradient id="linear-gradient-10" x1="30.22" y1="7.97" x2="32.3" y2="7.97" gradientUnits="userSpaceOnUse"><stop offset="0" stop-color="#8a8a8a"/><stop offset="1" stop-color="#383838"/></linearGradient><linearGradient id="linear-gradient-11" x1="29.46" y1="16.14" x2="31.46" y2="16.14" xlink:href="#linear-gradient-10"/><linearGradient id="linear-gradient-12" x1="8.26" y1="20.7" x2="10.67" y2="20.7" xlink:href="#linear-gradient-10"/><linearGradient id="linear-gradient-13" x1="55.61" y1="25.36" x2="47" y2="25.36" xlink:href="#linear-gradient-7"/><linearGradient id="linear-gradient-14" x1="29.71" y1="25.55" x2="56.5" y2="25.55" xlink:href="#linear-gradient-8"/><linearGradient id="linear-gradient-15" x1="29.56" y1="26.62" x2="55.35" y2="19.41" xlink:href="#linear-gradient-9"/><linearGradient id="linear-gradient-16" x1="35.59" y1="25.91" x2="48.87" y2="25.91" gradientUnits="userSpaceOnUse"><stop offset="0" stop-color="#c9c9c9"/><stop offset="1" stop-color="#737373"/></linearGradient><linearGradient id="linear-gradient-17" x1="53.17" y1="16.37" x2="55.25" y2="16.37" xlink:href="#linear-gradient-10"/><linearGradient id="linear-gradient-18" x1="52.41" y1="24.54" x2="54.41" y2="24.54" xlink:href="#linear-gradient-10"/><linearGradient id="linear-gradient-19" x1="31.21" y1="29.1" x2="33.62" y2="29.1" xlink:href="#linear-gradient-10"/><linearGradient id="linear-gradient-20" x1="35.58" y1="25.81" x2="48.06" y2="25.81" gradientUnits="userSpaceOnUse"><stop offset="0" stop-color="#c9c9c9"/><stop offset="0.88" stop-color="#c2c2c2"/><stop offset="1" stop-color="#737373"/></linearGradient><linearGradient id="linear-gradient-21" x1="35.6" y1="25.91" x2="48.81" y2="25.91" gradientUnits="userSpaceOnUse"><stop offset="0" stop-color="#c9c9c9"/><stop offset="0.88" stop-color="#737373"/><stop offset="1" stop-color="#525252"/></linearGradient><linearGradient id="linear-gradient-22" x1="35.08" y1="25.68" x2="48.15" y2="25.68" gradientUnits="userSpaceOnUse"><stop offset="0" stop-color="#c9c9ca"/><stop offset="0.35" stop-color="#b4b4b5"/><stop offset="0.71" stop-color="#a5a5a5"/><stop offset="1" stop-color="#a0a0a0"/></linearGradient><linearGradient id="linear-gradient-23" x1="55.66" y1="46.96" x2="47.05" y2="46.96" xlink:href="#linear-gradient-7"/><linearGradient id="linear-gradient-24" x1="29.76" y1="47.14" x2="56.55" y2="47.14" xlink:href="#linear-gradient-8"/><linearGradient id="linear-gradient-25" x1="29.61" y1="48.22" x2="55.4" y2="41" xlink:href="#linear-gradient-9"/><linearGradient id="linear-gradient-26" x1="35.63" y1="47.5" x2="48.92" y2="47.5" xlink:href="#linear-gradient-16"/><linearGradient id="linear-gradient-27" x1="53.22" y1="37.97" x2="55.3" y2="37.97" xlink:href="#linear-gradient-10"/><linearGradient id="linear-gradient-28" x1="52.46" y1="46.14" x2="54.46" y2="46.14" xlink:href="#linear-gradient-10"/><linearGradient id="linear-gradient-29" x1="31.26" y1="50.7" x2="33.67" y2="50.7" xlink:href="#linear-gradient-10"/><linearGradient id="linear-gradient-30" x1="35.63" y1="47.41" x2="48.11" y2="47.41" xlink:href="#linear-gradient-20"/><linearGradient id="linear-gradient-31" x1="35.65" y1="47.5" x2="48.86" y2="47.5" xlink:href="#linear-gradient-21"/><linearGradient id="linear-gradient-32" x1="35.13" y1="47.28" x2="48.2" y2="47.28" xlink:href="#linear-gradient-22"/><linearGradient id="linear-gradient-33" x1="31.6" y1="38.06" x2="23.31" y2="23.69" gradientUnits="userSpaceOnUse"><stop offset="0" stop-color="#161616"/><stop offset="1" stop-color="#515151"/></linearGradient><linearGradient id="linear-gradient-34" x1="28.76" y1="33.13" x2="26.13" y2="28.59" gradientUnits="userSpaceOnUse"><stop offset="0" stop-color="#386f8d"/><stop offset="1" stop-color="#8dd7f4"/></linearGradient><linearGradient id="linear-gradient-35" x1="43.75" y1="46.29" x2="44.77" y2="48.06" gradientUnits="userSpaceOnUse"><stop offset="0" stop-color="#ababab"/><stop offset="1" stop-color="#5b5b5b"/></linearGradient><symbol id="SEARCH_LOUPE_" data-name="SEARCH LOUPE " viewBox="0 0 35.16 41.37"><g id="LOUPE_SEARCH_copy" data-name="LOUPE SEARCH copy"><g id="verre"><path d="M24.07,9.79l.6,2.1a11.51,11.51,0,0,0-.56-1.52A11.5,11.5,0,0,0,8.92,4.59a11.44,11.44,0,0,0-6.39,13.6l-.6-2.09A11.44,11.44,0,0,1,8.32,2.5,11.48,11.48,0,0,1,23.51,8.27,12.06,12.06,0,0,1,24.07,9.79Z" style="fill:#323232;stroke:#323232;stroke-miterlimit:10"/><path d="M25,9.53l.6,2.09a12.5,12.5,0,0,1-24,6.86L1,16.39A12.5,12.5,0,0,0,25,9.53Z" style="fill:#323232;stroke:#323232;stroke-miterlimit:10"/><path d="M17.47,1.32A12.46,12.46,0,1,1,8.53,24.59,12.46,12.46,0,1,1,17.47,1.32Zm.22,22.09A11.46,11.46,0,1,0,8.32,2.5a11.46,11.46,0,1,0,9.37,20.91" style="stroke:#000;stroke-linecap:round;stroke-linejoin:round;fill:url(#linear-gradient)"/><path id="contour" d="M23.27,23.21a12.66,12.66,0,0,0,2.1-3.54,12.87,12.87,0,0,0,.44-8S24.13,4.28,17.56,1.49A12.53,12.53,0,0,0,1.42,8.7,13.59,13.59,0,0,0,.6,13.57a18.34,18.34,0,0,0,.89,5.08A12.64,12.64,0,0,0,19,26.46" style="fill:none;stroke:#000;stroke-linecap:round;stroke-linejoin:round;stroke-width:0.566929px"/><path d="M17.47,1.33A12.46,12.46,0,1,1,8.53,24.6,12.46,12.46,0,1,1,17.47,1.33Zm.22,22.09A11.46,11.46,0,1,0,2.25,8.88,11.46,11.46,0,0,0,8.88,23.67a11.51,11.51,0,0,0,8.81-.25" style="fill:url(#linear-gradient-2)"/></g><path d="M34.45,37.75a1,1,0,0,0-.15-.66L23.53,24.65l-2.73,1.9-.36.62,0,1.15s9.91,11.37,10.58,12.11,2.45-.36,2.77-.86A3,3,0,0,0,34.45,37.75Z" style="fill:none;stroke:#000;stroke-linejoin:round;stroke-width:1.4173200000000001px"/><path d="M20.57,28.52l2.48-1.74a2,2,0,0,0,.71-1l.25-1a.8.8,0,0,0-.13-.77l-1-1.27c-.06-.08-.19-.08-.35,0l-2.8,1.9a2.28,2.28,0,0,0-.82,1.19A10.73,10.73,0,0,0,19,27.13l1,1.25C20.09,28.43,20.47,28.58,20.57,28.52Z" style="fill:#323232;stroke:#000;stroke-miterlimit:10;stroke-width:1.4173200000000001px"/><g id="fixation_manche_ok" data-name="fixation manche   ok"><path d="M23.9,24c0-.14-.19-.17-.39,0l-2.8,1.89.19.39,2.8-1.89c.17-.11.29-.09.33,0C24,24.24,23.94,24.11,23.9,24Z" style="fill:#fff"/><path id="c3_angle" data-name="c3 angle" d="M20.18,27.27,19.89,27a1.63,1.63,0,0,1,.82-1.2l.19.39A1.41,1.41,0,0,0,20.18,27.27Z" style="fill:url(#linear-gradient-3)"/><path d="M20.18,27.27,19.89,27A6.59,6.59,0,0,0,20,28.4l.3.16A5.94,5.94,0,0,1,20.18,27.27Z" style="fill:url(#linear-gradient-4)"/><path id="b5" d="M22.91,22.69l.95,1.24c-.06-.09-.18-.09-.35,0l-1-1.24C22.72,22.61,22.85,22.61,22.91,22.69Z" style="fill:#f1f0f0"/><polygon id="b4" points="20.71 25.84 19.76 24.61 22.56 22.71 23.51 23.95 20.71 25.84" style="fill:url(#top_white)"/><path d="M20.71,25.84l-.95-1.23a2.28,2.28,0,0,0-.82,1.19A10.73,10.73,0,0,0,19,27.13L20,28.36A10.58,10.58,0,0,1,19.89,27,1.56,1.56,0,0,1,20.71,25.84Z" style="fill:url(#linear-gradient-5)"/><path id="contour_face" data-name="contour face" d="M23.7,24.34c.29-.18.43,0,.31.39l-.25,1a2,2,0,0,1-.71,1l-2.48,1.74c-.28.17-.31-.09-.31-.09l-.08-1.16a1.38,1.38,0,0,1,.72-1Zm0,1.47.25-1c.1-.32,0-.47-.25-.32l-2.81,1.9a1.26,1.26,0,0,0-.59.85l.08,1.16s0,.17.25,0l2.48-1.73a1.66,1.66,0,0,0,.59-.85" style="fill:url(#white_left)"/><path id="face" d="M23.67,24.46c.23-.15.35,0,.25.32l-.25,1a1.66,1.66,0,0,1-.59.85L20.6,28.39c-.23.15-.25,0-.25,0l-.08-1.16a1,1,0,0,1,.59-.85Z" style="fill:#323232"/></g><g id="Layer_55_copy_4" data-name="Layer 55 copy 4"><path d="M34.45,37.75s0-.79-.23-.67c.5.77-1.89,2.92-2.51,2.66-.35-.14-10.92-13.19-10.92-13.19l-.34.61,0,1.16s9.91,11.37,10.58,12.11,2.45-.36,2.77-.86a2.93,2.93,0,0,0,.62-1.82C34.47,37.54,34.41,38.23,34.45,37.75Z" style="fill:#323232"/><path d="M34.45,37.75a1,1,0,0,0-.15-.66L23.8,24.65h-.27l-2.73,1.9-.36.62,0,1.15s9.91,11.37,10.58,12.11,2.45-.36,2.77-.86A3,3,0,0,0,34.45,37.75Z" style="fill:#323232;stroke:#323232;stroke-miterlimit:10"/><path id="rel_" data-name="rel ***" d="M20.79,26.55l2.74-1.9h.27L34.26,37.06s.32.59-.85,1.72-1.7,1-1.7,1L20.44,27.17l.35-.62Z" style="fill:#797979"/><path id="dessus_" data-name="dessus****" d="M34.22,37c.47.74-2.17,3.14-2.73,2.47L20.79,26.55l2.74-1.9S34,36.64,34.22,37Z" style="fill:url(#linear-gradient-6)"/><polygon id="rel_2" data-name="rel ***" points="20.79 26.55 31.56 39.64 31.39 39.64 20.44 27.17 20.79 26.55 20.79 26.55" style="fill:#797979"/></g></g></symbol></defs><path d="M27.82,15.67a9.09,9.09,0,0,1,2.4-.58c.89,0,2.31.36,2.31,1.29l-.23.71-5.19,1.74Z" style="stroke:#6d6d6d;stroke-linecap:round;stroke-linejoin:round;fill:url(#linear-gradient-7)"/><path d="M6.76,21.05l.71,4.31c.27.71,1.6,1.28,3.33.71,1.35-.45,1.67-1.09,2.94-1.6,1.86-.76,8.75-2.31,11.72-3.33,2.38-.82,5.07-1.65,6-2s.84-.89.84-.89l.23-1.87c0,.4-.8.71-.8.71s-2,.63-2.93,1-1.12-.53-1.12-.53.18-2.62.27-3.87A1.7,1.7,0,0,1,29,12.12s2-.58,3.06-.85,1.11-.57,1.11-.57L33.55,8s-7.38.57-11.11,2.17-10,8.31-10,8.31Z" style="stroke:#6d6d6d;stroke-linecap:round;stroke-linejoin:round;fill:url(#linear-gradient-8)"/><path d="M24.44,8.34c-1.06.31-3.91,1.11-7.73,5-4,4.14-5.12,5.07-6.39,5.51-2.05.71-4,1.34-3.47,2.49s2.78,1.12,3.73.58c1.56-.89,2.24-3,7.78-7.07,3.2-2.35,4.88-3.6,7.59-4.44,1.6-.5,5.51-1.33,6.76-1.73s1.46-1.6-1.92-1.6A59.22,59.22,0,0,0,24.44,8.34Z" style="stroke:#6d6d6d;stroke-linecap:round;stroke-linejoin:round;fill:url(#linear-gradient-9)"/><path d="M32.3,8c0-.23-.43-.45-1-.49s-1.06.12-1.07.35.43.46,1,.5S32.29,8.28,32.3,8Z" style="stroke:#6d6d6d;stroke-linecap:round;stroke-linejoin:round;fill:url(#linear-gradient-10)"/><path d="M31.46,16.21c0-.26-.42-.5-1-.54s-1,.14-1,.4.42.5,1,.53S31.44,16.46,31.46,16.21Z" style="stroke:#6d6d6d;stroke-linecap:round;stroke-linejoin:round;fill:url(#linear-gradient-11)"/><path d="M10.66,20.41c-.08-.33-.68-.48-1.34-.32s-1.13.55-1.05.89.68.48,1.34.33S10.74,20.75,10.66,20.41Z" style="stroke:#6d6d6d;stroke-linecap:round;stroke-linejoin:round;fill:url(#linear-gradient-12)"/><path d="M33.54,8c0-.44-.68-.89-2.75-.89a59.22,59.22,0,0,0-6.35,1.24c-1.06.31-3.91,1.11-7.73,5-4,4.14-5.12,5.07-6.39,5.51-1.85.64-3.64,1.22-3.55,2.18h0v.07a.06.06,0,0,1,0,0l.69,4.2c.27.71,1.6,1.28,3.33.71,1.35-.45,1.67-1.09,2.94-1.6,1.86-.76,8.75-2.31,11.72-3.33,2.38-.82,5.07-1.65,6-2s.84-.89.84-.89l.23-1.87a.43.43,0,0,1-.06.18l.06-.18c0-.93-1.42-1.29-2.31-1.29a9.09,9.09,0,0,0-2.4.58v0c.05-.72.1-1.51.14-2A1.7,1.7,0,0,1,29,12.12s2-.58,3.06-.85,1.11-.57,1.11-.57L33.55,8Z" style="fill:none;stroke:#333332;stroke-linecap:round;stroke-linejoin:round"/><path d="M50.77,24.07a9.22,9.22,0,0,1,2.4-.57c.89,0,2.31.35,2.31,1.28l-.22.71-5.2,1.74Z" style="stroke:#6d6d6d;stroke-linecap:round;stroke-linejoin:round;fill:url(#linear-gradient-13)"/><path d="M29.71,29.45l.72,4.31c.26.71,1.59,1.29,3.33.71,1.34-.45,1.66-1.09,2.93-1.6,1.86-.76,8.75-2.31,11.73-3.33,2.37-.82,5.06-1.65,6-2s.85-.89.85-.89l.22-1.87c0,.4-.8.71-.8.71s-2,.63-2.93,1-1.11-.53-1.11-.53.17-2.62.26-3.87A1.7,1.7,0,0,1,52,20.52s2-.58,3.06-.84,1.11-.58,1.11-.58l.36-2.71s-7.37.58-11.11,2.17-10,8.31-10,8.31Z" style="stroke:#6d6d6d;stroke-linecap:round;stroke-linejoin:round;fill:url(#linear-gradient-14)"/><path d="M47.39,16.74c-1.06.31-3.91,1.11-7.73,5-4,4.14-5.11,5.07-6.39,5.51-2.05.71-4,1.34-3.47,2.49s2.79,1.12,3.73.58c1.56-.89,2.24-3,7.78-7.07,3.2-2.35,4.88-3.59,7.59-4.44,1.6-.5,5.51-1.33,6.76-1.73s1.46-1.6-1.91-1.6A59.37,59.37,0,0,0,47.39,16.74Z" style="stroke:#6d6d6d;stroke-linecap:round;stroke-linejoin:round;fill:url(#linear-gradient-15)"/><path d="M48.15,20.74c-2.88.76-10.63,6.58-12.44,9.42-.31.49,0,1.15.8.89s3.42-1.07,6.13-1.69S47.79,28,47.79,28s.85-.09.85-1.29.22-5.42.22-5.42S49,20.52,48.15,20.74Z" style="stroke:#6d6d6d;stroke-linecap:round;stroke-linejoin:round;fill:url(#linear-gradient-16)"/><path d="M55.25,16.45c0-.24-.43-.46-1-.5s-1.06.12-1.07.35.44.46,1,.5S55.24,16.68,55.25,16.45Z" style="stroke:#6d6d6d;stroke-linecap:round;stroke-linejoin:round;fill:url(#linear-gradient-17)"/><path d="M54.41,24.61c0-.26-.42-.5-1-.54s-1,.14-1,.4.42.5,1,.54S54.39,24.87,54.41,24.61Z" style="stroke:#6d6d6d;stroke-linecap:round;stroke-linejoin:round;fill:url(#linear-gradient-18)"/><path d="M33.61,28.81c-.08-.33-.68-.48-1.34-.32s-1.13.56-1.05.89.68.48,1.34.33S33.69,29.15,33.61,28.81Z" style="stroke:#6d6d6d;stroke-linecap:round;stroke-linejoin:round;fill:url(#linear-gradient-19)"/><path d="M35.62,30.83a.83.83,0,0,0,.58,0c.22-.09,10.93-3.43,10.93-3.43a.9.9,0,0,0,.75-.93c0-.84.18-5.73.18-5.73l-.36.18-.17,5.55a.8.8,0,0,1-.62.62L36.07,30.43a.35.35,0,0,1-.45-.14,1.77,1.77,0,0,0,0,.31A.62.62,0,0,0,35.62,30.83Z" style="stroke:#6d6d6d;stroke-linecap:round;stroke-linejoin:round;fill:url(#linear-gradient-20)"/><path d="M48.1,20.74l-.1,0c0,.86-.13,4.95-.17,5.7a.9.9,0,0,1-.75.93s-10.71,3.34-10.93,3.43a.8.8,0,0,1-.55,0c.12.22.4.35.86.21.84-.27,3.42-1.07,6.13-1.69S47.74,28,47.74,28s.84-.09.84-1.29.23-5.42.23-5.42S48.94,20.52,48.1,20.74Z" style="stroke:#6d6d6d;stroke-linecap:round;stroke-linejoin:round;fill:url(#linear-gradient-21)"/><path d="M35.84,31a.8.8,0,0,1-.67-.36.5.5,0,0,1-.06-.46,1.15,1.15,0,0,1,.12-.25c1.74-2.74,8.83-8.23,12.25-9.48a.47.47,0,0,1,.17,0,.49.49,0,0,1,.5.51L48,26.49a1.28,1.28,0,0,1-1,1.08L36.2,30.89A.83.83,0,0,1,35.84,31Z" style="fill:url(#linear-gradient-22)"/><path d="M47.65,20.89h0m0,0-.18,5.58a.78.78,0,0,1-.62.62L36,30.43a.37.37,0,0,1-.17,0,.3.3,0,0,1-.26-.15l.08-.16c1.72-2.7,8.83-8.11,12-9.27m0-1h0a.8.8,0,0,0-.34.07c-3.2,1.19-10.56,6.66-12.46,9.66a1.51,1.51,0,0,0-.18.36,1,1,0,0,0,.12.92,1.32,1.32,0,0,0,1.08.57,1.27,1.27,0,0,0,.53-.11l10.78-3.31a1.8,1.8,0,0,0,1.32-1.48V26.5L48.65,21v-.1a1,1,0,0,0-1-1Zm0,2Z" style="fill:#6d6d6d"/><path d="M56.49,16.39c0-.44-.68-.89-2.74-.89a59.37,59.37,0,0,0-6.36,1.24c-1.06.31-3.91,1.11-7.73,5-4,4.14-5.11,5.07-6.39,5.51-1.85.64-3.63,1.22-3.55,2.18h0l0,.07v0l.7,4.2c.26.71,1.59,1.29,3.33.71,1.34-.45,1.66-1.09,2.93-1.6,1.86-.76,8.75-2.31,11.73-3.33,2.37-.82,5.06-1.65,6-2s.85-.89.85-.89l.22-1.87a.3.3,0,0,1-.06.18l.06-.18c0-.93-1.42-1.28-2.31-1.28a9.22,9.22,0,0,0-2.4.57v0c.05-.72.1-1.5.14-2A1.7,1.7,0,0,1,52,20.52s2-.58,3.06-.84,1.11-.58,1.11-.58l.36-2.71Z" style="fill:none;stroke:#333332;stroke-linecap:round;stroke-linejoin:round"/><path d="M50.82,45.67a9.09,9.09,0,0,1,2.4-.58c.89,0,2.31.36,2.31,1.29l-.23.71-5.19,1.74Z" style="stroke:#6d6d6d;stroke-linecap:round;stroke-linejoin:round;fill:url(#linear-gradient-23)"/><path d="M29.76,51.05l.71,4.31c.27.71,1.6,1.28,3.33.71,1.35-.45,1.67-1.09,2.94-1.6,1.86-.76,8.75-2.31,11.72-3.33,2.38-.82,5.07-1.65,6-2s.84-.89.84-.89l.23-1.87c0,.4-.8.71-.8.71s-2,.63-2.93,1-1.12-.53-1.12-.53.18-2.62.27-3.87A1.7,1.7,0,0,1,52,42.12s2-.58,3.06-.85,1.11-.57,1.11-.57L56.55,38s-7.38.57-11.11,2.17-10,8.31-10,8.31Z" style="stroke:#6d6d6d;stroke-linecap:round;stroke-linejoin:round;fill:url(#linear-gradient-24)"/><path d="M47.44,38.34c-1.06.31-3.91,1.11-7.73,5-4,4.14-5.12,5.07-6.39,5.51-2.05.71-4,1.34-3.47,2.49s2.78,1.12,3.73.58c1.56-.89,2.24-3,7.78-7.07,3.2-2.35,4.88-3.6,7.59-4.44,1.6-.5,5.51-1.33,6.76-1.73s1.46-1.6-1.92-1.6A59.22,59.22,0,0,0,47.44,38.34Z" style="stroke:#6d6d6d;stroke-linecap:round;stroke-linejoin:round;fill:url(#linear-gradient-25)"/><path d="M48.2,42.34c-2.88.76-10.64,6.58-12.44,9.42-.31.49,0,1.15.8.89S40,51.58,42.69,51s5.15-1.33,5.15-1.33.85-.09.85-1.29.22-5.42.22-5.42S49,42.12,48.2,42.34Z" style="stroke:#6d6d6d;stroke-linecap:round;stroke-linejoin:round;fill:url(#linear-gradient-26)"/><path d="M55.3,38c0-.23-.43-.45-1-.49s-1.06.12-1.07.35.43.46,1,.5S55.29,38.28,55.3,38Z" style="stroke:#6d6d6d;stroke-linecap:round;stroke-linejoin:round;fill:url(#linear-gradient-27)"/><path d="M54.46,46.21c0-.26-.42-.5-1-.54s-1,.14-1,.4.42.5,1,.53S54.44,46.46,54.46,46.21Z" style="stroke:#6d6d6d;stroke-linecap:round;stroke-linejoin:round;fill:url(#linear-gradient-28)"/><path d="M33.66,50.41c-.08-.33-.68-.48-1.34-.32s-1.13.55-1.05.89.68.48,1.34.33S33.74,50.75,33.66,50.41Z" style="stroke:#6d6d6d;stroke-linecap:round;stroke-linejoin:round;fill:url(#linear-gradient-29)"/><path d="M35.67,52.43a.78.78,0,0,0,.58,0C36.47,52.34,47.18,49,47.18,49a.9.9,0,0,0,.75-.93c0-.84.18-5.73.18-5.73l-.36.18-.17,5.55a.8.8,0,0,1-.63.62L36.11,52s-.31.14-.44-.13a1.77,1.77,0,0,0,0,.31A.62.62,0,0,0,35.67,52.43Z" style="stroke:#6d6d6d;stroke-linecap:round;stroke-linejoin:round;fill:url(#linear-gradient-30)"/><path d="M48.15,42.34l-.1,0c0,.86-.13,5-.17,5.7a.92.92,0,0,1-.76.93s-10.7,3.34-10.92,3.42a.8.8,0,0,1-.55,0c.12.22.4.35.86.21.84-.27,3.42-1.07,6.13-1.69s5.15-1.33,5.15-1.33.84-.09.84-1.29.23-5.42.23-5.42S49,42.12,48.15,42.34Z" style="stroke:#6d6d6d;stroke-linecap:round;stroke-linejoin:round;fill:url(#linear-gradient-31)"/><path d="M35.89,52.57a.8.8,0,0,1-.67-.36.48.48,0,0,1-.06-.46,1.15,1.15,0,0,1,.12-.25C37,48.76,44.11,43.27,47.53,42a.33.33,0,0,1,.17,0,.53.53,0,0,1,.29.1.53.53,0,0,1,.21.42L48,48.09a1.29,1.29,0,0,1-1,1.08l-10.8,3.32A.83.83,0,0,1,35.89,52.57Z" style="fill:url(#linear-gradient-32)"/><path d="M47.7,42.48h0m0,0-.18,5.59a.78.78,0,0,1-.62.62L36.06,52a.32.32,0,0,1-.17,0,.3.3,0,0,1-.26-.15.6.6,0,0,1,.08-.16c1.72-2.7,8.83-8.11,12-9.28m0-1h0a1.21,1.21,0,0,0-.34.07c-3.2,1.2-10.56,6.67-12.47,9.67a2,2,0,0,0-.17.36,1,1,0,0,0,.12.92,1.32,1.32,0,0,0,1.08.57,1.45,1.45,0,0,0,.53-.11L47.2,49.65a1.83,1.83,0,0,0,1.32-1.48V48.1l.18-5.51v-.11a1,1,0,0,0-1-1Zm0,2Z" style="fill:#6d6d6d"/><path d="M56.54,38c0-.44-.68-.89-2.75-.89a59.22,59.22,0,0,0-6.35,1.24c-1.06.31-3.91,1.11-7.73,5-4,4.14-5.12,5.07-6.39,5.51-1.85.64-3.64,1.22-3.55,2.18h0v.07a.06.06,0,0,1,0,0l.69,4.2c.27.71,1.6,1.28,3.33.71,1.35-.45,1.67-1.09,2.94-1.6,1.86-.76,8.75-2.31,11.72-3.33,2.38-.82,5.07-1.65,6-2s.84-.89.84-.89l.23-1.87a.43.43,0,0,1-.06.18l.06-.18c0-.93-1.42-1.29-2.31-1.29a9.09,9.09,0,0,0-2.4.58v0c0-.72.1-1.51.14-2A1.7,1.7,0,0,1,52,42.12s2-.58,3.06-.85,1.11-.57,1.11-.57L56.55,38Z" style="fill:none;stroke:#333332;stroke-linecap:round;stroke-linejoin:round"/><use width="35.16" height="41.37" transform="matrix(-1, 0, 0, 1, 41, 16.5)" xlink:href="#SEARCH_LOUPE_"/><g style="opacity:0.449999979883716"><path d="M27.45,21.37a.5.5,0,0,1,.5.5V23.4a7.5,7.5,0,0,1,7,7h1.52a.5.5,0,0,1,.5.5.5.5,0,0,1-.5.5H34.93a7.51,7.51,0,0,1-7,7v1.52a.5.5,0,0,1-.5.5.5.5,0,0,1-.5-.5V38.35a7.5,7.5,0,0,1-7-7H18.45a.5.5,0,0,1-.5-.5.51.51,0,0,1,.5-.5H20a7.5,7.5,0,0,1,7-7V21.87a.51.51,0,0,1,.5-.5m0-1a1.51,1.51,0,0,0-1.5,1.5v.65a8.53,8.53,0,0,0-6.86,6.85h-.64a1.5,1.5,0,0,0,0,3h.64A8.53,8.53,0,0,0,26,39.23v.64a1.5,1.5,0,0,0,3,0v-.64a8.52,8.52,0,0,0,6.86-6.86h.64a1.5,1.5,0,0,0,0-3h-.64A8.52,8.52,0,0,0,29,22.52v-.65a1.5,1.5,0,0,0-1.5-1.5Z" style="fill:#fff"/></g><path d="M36.45,30.37H34.93a7.5,7.5,0,0,0-7-7V21.87a.5.5,0,0,0-.5-.5.51.51,0,0,0-.5.5V23.4a7.5,7.5,0,0,0-7,7H18.45a.51.51,0,0,0-.5.5.5.5,0,0,0,.5.5H20a7.5,7.5,0,0,0,7,7v1.52a.5.5,0,0,0,.5.5.5.5,0,0,0,.5-.5V38.35a7.51,7.51,0,0,0,7-7h1.52a.5.5,0,0,0,.5-.5A.5.5,0,0,0,36.45,30.37Zm-2.52,0H28v-6A6.5,6.5,0,0,1,33.93,30.37Zm-7-6v6H21A6.49,6.49,0,0,1,27,24.4Zm-6,7h6v6A6.5,6.5,0,0,1,21,31.37Zm7,6v-6h6A6.51,6.51,0,0,1,28,37.35Z" style="fill-rule:evenodd;fill:url(#linear-gradient-33)"/><circle cx="27.45" cy="30.87" r="2" style="stroke:#053755;stroke-linecap:round;stroke-linejoin:round;fill:url(#linear-gradient-34)"/><path d="M41.86,47.82l3.85-2.76a.5.5,0,0,1,.79.41v1.65a.5.5,0,0,1-.36.48l-3.86,1.1A.49.49,0,0,1,41.86,47.82Z" style="stroke:#333332;stroke-linecap:round;stroke-linejoin:round;fill:url(#linear-gradient-35)"/></svg>