<svg id="Layer_3" data-name="Layer 3" xmlns="http://www.w3.org/2000/svg" xmlns:xlink="http://www.w3.org/1999/xlink" viewBox="0 0 64 64"><defs><linearGradient id="linear-gradient" x1="33.84" y1="20.82" x2="33.84" y2="53.35" gradientUnits="userSpaceOnUse"><stop offset="0.04" stop-color="#ff1515"/><stop offset="0.28" stop-color="#ffbf00"/><stop offset="0.39" stop-color="#ffff21"/><stop offset="0.56" stop-color="#59e900"/><stop offset="0.76" stop-color="#2a99ff"/><stop offset="1" stop-color="blue"/></linearGradient><linearGradient id="linear-gradient-2" x1="33.84" y1="20.32" x2="33.84" y2="53.85" gradientUnits="userSpaceOnUse"><stop offset="0.09" stop-color="#8e1515"/><stop offset="0.32" stop-color="#b36100"/><stop offset="0.56" stop-color="#286800"/><stop offset="0.76" stop-color="#2033a0"/><stop offset="1" stop-color="#00004f"/></linearGradient><linearGradient id="linear-gradient-3" x1="46.86" y1="42.01" x2="35.11" y2="21.66" gradientUnits="userSpaceOnUse"><stop offset="0" stop-color="#386f8d"/><stop offset="1" stop-color="#8dd7f4"/></linearGradient><linearGradient id="linear-gradient-4" x1="7.5" y1="40" x2="27.5" y2="40" xlink:href="#linear-gradient-3"/></defs><title>SIMAPW_AP_AppIcon</title><path d="M56.74,20.82,35.71,32l.09-2.53-3.4-.16-.14,4.41L30,34.88l0,1.61L10.82,44.74v-.56c0-.42-.49-.81-1.1-.87s-1.11.22-1.11.63v1.68l-1.1.44v1.49l22,2.64-.05,1.61,3.05.38a4.19,4.19,0,0,0,2.42,1.13c1.81.23,3.33-.69,3.39-2.07A2.68,2.68,0,0,0,36.87,49l19.56-22.9,3.42.12.33-5.31Zm-27.15,27-14.36-1.6,14.6-6.45Zm4.51-2,.31-9,17.42-10Z" fill="url(#linear-gradient)"/><path d="M56.74,20.82,35.71,32l.09-2.53-3.4-.16-.14,4.41L30,34.88l0,1.61L10.82,44.74v-.56c0-.42-.49-.81-1.1-.87s-1.11.22-1.11.63v1.68l-1.1.44v1.49l22,2.64-.05,1.61,3.05.38a4.19,4.19,0,0,0,2.42,1.13c1.81.23,3.33-.69,3.39-2.07A2.68,2.68,0,0,0,36.87,49l19.56-22.9,3.42.12.33-5.31Zm-27.15,27-14.36-1.6,14.6-6.45Zm4.51-2,.31-9,17.42-10Z" fill="none" stroke-linecap="round" stroke-linejoin="round" stroke="url(#linear-gradient-2)"/><path d="M50.5,11.5l-18,14.09V22.5h-3v5.43l-2,1.57v21h2.78a3,3,0,0,0,5.22-2A3,3,0,0,0,34.11,46L50.5,17.5h3v-6Zm-19,31v-11l15-13Z" stroke="#053755" stroke-linecap="round" stroke-linejoin="round" fill="url(#linear-gradient-3)"/><path d="M27.5,31.5l-17,12.75V43.5a1,1,0,0,0-2,0v2.25l-1,.75v2h20v-3h-13l13-10Z" stroke="#053755" stroke-linecap="round" stroke-linejoin="round" fill="url(#linear-gradient-4)"/></svg>