<svg id="Layer_8_copy_2" data-name="Layer 8 copy 2" xmlns="http://www.w3.org/2000/svg" xmlns:xlink="http://www.w3.org/1999/xlink" viewBox="0 0 64 64"><defs><style>.cls-1{fill:#285977;}.cls-2{fill:#2d6d8b;}.cls-3{fill:#5a9ab8;}.cls-4{fill:none;stroke:#323232;stroke-miterlimit:10;}.cls-5{fill:#fff;}.cls-6{fill:url(#top_white);}</style><linearGradient id="top_white" x1="28.08" y1="31.36" x2="35.26" y2="31.36" gradientUnits="userSpaceOnUse"><stop offset="0" stop-color="#fff"/><stop offset="1" stop-color="#f0f0f0"/></linearGradient></defs><title>aaavvv_A33AAe__R21XArtboard 1</title><g id="onde_copy_2" data-name="onde copy 2"><path class="cls-1" d="M9.41,14A13.66,13.66,0,0,0,6.8,22.47a14,14,0,0,0,2.61,8.41H8a13.36,13.36,0,0,1-2.72-8.41A13.66,13.66,0,0,1,8,14Z"/><path class="cls-2" d="M17.36,16.57a9.52,9.52,0,0,0-1.82,5.89,9.71,9.71,0,0,0,1.82,5.84h-1a9.32,9.32,0,0,1-1.88-5.84,9.54,9.54,0,0,1,1.88-5.89Z"/><path class="cls-3" d="M21.83,18.59a6.16,6.16,0,0,0-1.2,3.86,6.34,6.34,0,0,0,1.2,3.84h-.66a6.11,6.11,0,0,1-1.24-3.84,6.19,6.19,0,0,1,1.24-3.86Z"/><path class="cls-3" d="M42.46,26.29a6.43,6.43,0,0,0,1.19-3.87,6.26,6.26,0,0,0-1.19-3.83h.64a6,6,0,0,1,1.24,3.84,6.2,6.2,0,0,1-1.24,3.86Z"/><path class="cls-2" d="M46.89,28.3a9.66,9.66,0,0,0,1.82-5.88,9.54,9.54,0,0,0-1.82-5.85h1a9.19,9.19,0,0,1,1.89,5.86,9.34,9.34,0,0,1-1.89,5.87Z"/><path class="cls-1" d="M54.62,30.88a14,14,0,0,0,2.61-8.47A13.7,13.7,0,0,0,54.62,14H56a13.2,13.2,0,0,1,2.72,8.44A13.41,13.41,0,0,1,56,30.88Z"/></g><g id="Layer_55_copy_3" data-name="Layer 55 copy 3"><g id="CONTOUR_copy_3" data-name="CONTOUR copy 3"><path class="cls-4" d="M35.26,13.89l-1.49.82V36.63a6.24,6.24,0,0,1-.18,1.75,3,3,0,0,1-.57-.25c-1.3-.75-2.05-2.26-2-4.77V11.43l-1.41-.82-1.49.82v21.9A8.33,8.33,0,0,0,31,40.1l0,8.29a2.32,2.32,0,1,0,3.66,1.89,2.3,2.3,0,0,0-.84-1.77l0-7.61a2.18,2.18,0,0,0,.23-.09h0L35.41,40c.76-.45,1.25-1.58,1.26-3.46V14.71Z"/></g><g id="diapason_copy_3" data-name="diapason copy 3"><path class="cls-1" d="M34.59,50.28A2.32,2.32,0,1,1,32.27,48,2.31,2.31,0,0,1,34.59,50.28Z"/><polygon class="cls-1" points="32.37 40.88 33.78 40.06 33.75 48.68 32.34 49.5 32.37 40.88"/><path class="cls-1" d="M33,38.13c-1.3-.75-2.05-2.26-2-4.77V11.43l-1.41.82V34.18c0,2.51.74,4,2,4.77.61.35,1.1.44,1.45.23l1.41-.82C34.12,38.57,33.63,38.48,33,38.13Z"/><path class="cls-1" d="M35.26,15.53V37.36c0,1.88-.5,3-1.26,3.46L35.41,40c.76-.45,1.25-1.58,1.26-3.46V14.71Z"/><path id="dessus_blanc" data-name="dessus blanc" class="cls-5" d="M33.77,14.71l1.49-.82,1.41.82-1.41.82Zm-4.2-2.46L31,11.43l-1.41-.82-1.49.82Z"/><path class="cls-6" d="M33.77,14.71V36.63c0,2.48-.71,3.16-2.16,2.32-1.3-.75-2.05-2.26-2-4.77V12.25l-1.49-.82v21.9A8.33,8.33,0,0,0,31,40.1l0,8.58a2.13,2.13,0,0,0,0,2.6c-.11-1.21.44-1.61.89-1.74.3-.08.54-.2.56-.4a3.17,3.17,0,0,0,0-.52l0-7.74c1.7.57,2.88-.53,2.89-3.52V15.53Z"/></g></g></svg>