<svg id="v01_copy_2" data-name="v01 copy 2" xmlns="http://www.w3.org/2000/svg" xmlns:xlink="http://www.w3.org/1999/xlink" viewBox="0 0 64 64"><defs><style>.cls-1,.cls-19,.cls-2,.cls-20,.cls-21,.cls-25,.cls-26,.cls-29,.cls-30,.cls-4{fill:none;}.cls-1,.cls-29,.cls-3,.cls-31{stroke:#00415f;}.cls-1,.cls-11,.cls-14,.cls-15,.cls-16,.cls-17,.cls-19,.cls-2,.cls-20,.cls-21,.cls-24,.cls-25,.cls-26,.cls-29,.cls-3,.cls-30,.cls-31,.cls-4,.cls-8{stroke-linecap:round;}.cls-1,.cls-11,.cls-14,.cls-15,.cls-16,.cls-17,.cls-2,.cls-20,.cls-21,.cls-24,.cls-25,.cls-26,.cls-29,.cls-3,.cls-30,.cls-31,.cls-4,.cls-8{stroke-linejoin:round;}.cls-1{stroke-width:2.78px;}.cls-2,.cls-30,.cls-31{stroke-width:0.93px;}.cls-2{stroke:url(#linear-gradient);}.cls-3{stroke-width:1.02px;fill:url(#linear-gradient-2);}.cls-17,.cls-18,.cls-20,.cls-26,.cls-27,.cls-28,.cls-4{stroke:#797979;}.cls-21,.cls-4,.cls-5{stroke-width:0.84px;}.cls-5,.cls-6{fill:#323232;}.cls-5,.cls-8{stroke:#323232;}.cls-12,.cls-13,.cls-18,.cls-19,.cls-27,.cls-28,.cls-5{stroke-miterlimit:10;}.cls-7{fill:url(#linear-gradient-3);}.cls-8{stroke-width:0.14px;}.cls-23,.cls-8{fill:url(#top_white);}.cls-9{fill:url(#top_white-2);}.cls-10,.cls-12,.cls-13,.cls-15{fill:#797979;}.cls-11,.cls-16,.cls-24{fill:#f1f0f0;}.cls-11,.cls-13,.cls-16,.cls-24,.cls-25{stroke:#787878;}.cls-11,.cls-17,.cls-18,.cls-20{stroke-width:0.47px;}.cls-12,.cls-14,.cls-15{stroke:#6d6d6d;}.cls-12,.cls-13,.cls-14,.cls-15{stroke-width:0.59px;}.cls-14{fill:url(#linear-gradient-4);}.cls-16{stroke-width:0.24px;}.cls-17{fill:url(#top_white-3);}.cls-18{fill:#285977;}.cls-19{stroke:#285977;stroke-width:0.47px;}.cls-21{stroke:#000;}.cls-22{fill:url(#linear-gradient-5);}.cls-24{stroke-width:0.25px;}.cls-25,.cls-26{stroke-width:0.24px;}.cls-27{fill:#e1e1e1;}.cls-27,.cls-28{stroke-width:0.59px;}.cls-28{fill:url(#top_white-5);}.cls-29{stroke-width:3px;}.cls-30{stroke:url(#linear-gradient-6);}.cls-31{fill:url(#linear-gradient-7);}</style><linearGradient id="linear-gradient" x1="11.14" y1="31.34" x2="23.76" y2="31.34" gradientUnits="userSpaceOnUse"><stop offset="0" stop-color="#92d5ee"/><stop offset="0.26" stop-color="#6aacc5"/><stop offset="0.6" stop-color="#3e7f98"/><stop offset="0.85" stop-color="#22637c"/><stop offset="1" stop-color="#185971"/></linearGradient><linearGradient id="linear-gradient-2" x1="10.01" y1="22.3" x2="14.07" y2="27.75" xlink:href="#linear-gradient"/><linearGradient id="linear-gradient-3" x1="16.26" y1="35.06" x2="26.79" y2="53.3" gradientUnits="userSpaceOnUse"><stop offset="0" stop-color="#fff"/><stop offset="1" stop-color="#d2d2d2"/></linearGradient><linearGradient id="top_white" x1="29.25" y1="34.79" x2="31.29" y2="38.32" gradientUnits="userSpaceOnUse"><stop offset="0" stop-color="#fff"/><stop offset="1" stop-color="#f0f0f0"/></linearGradient><linearGradient id="top_white-2" x1="16.52" y1="33.32" x2="30.25" y2="33.32" xlink:href="#top_white"/><linearGradient id="linear-gradient-4" x1="36.76" y1="35.63" x2="43.97" y2="35.63" gradientUnits="userSpaceOnUse"><stop offset="0" stop-color="#c9c9c9"/><stop offset="1" stop-color="#737373"/></linearGradient><linearGradient id="top_white-3" x1="21.13" y1="28.1" x2="53.52" y2="28.1" xlink:href="#top_white"/><linearGradient id="linear-gradient-5" x1="19.4" y1="40.48" x2="26.8" y2="53.3" xlink:href="#linear-gradient-3"/><linearGradient id="top_white-5" x1="29.65" y1="42.19" x2="35.42" y2="42.19" xlink:href="#top_white"/><linearGradient id="linear-gradient-6" x1="28.45" y1="41.12" x2="34.79" y2="41.12" gradientTransform="translate(-9.25 18.84) rotate(-56.28)" xlink:href="#linear-gradient"/><linearGradient id="linear-gradient-7" x1="23.36" y1="40.17" x2="28.13" y2="46.58" gradientTransform="translate(-9.25 18.84) rotate(-56.28)" xlink:href="#linear-gradient"/></defs><title>COR RI_A2CST -3_Reprise__Artboard 1</title><g id="Layer_44_copy_4" data-name="Layer 44 copy 4"><g id="FL_2_copy_4" data-name="FL 2 copy 4"><path class="cls-1" d="M11.6,36.63a4.84,4.84,0,0,0,2.65,2.45c3.08,1.12,6.84-1.45,8.38-5.72s.3-8.64-2.78-9.76A5.57,5.57,0,0,0,14.4,25"/><path class="cls-2" d="M11.6,36.63a4.84,4.84,0,0,0,2.65,2.45c3.08,1.12,6.84-1.45,8.38-5.72s.3-8.64-2.78-9.76A5.57,5.57,0,0,0,14.4,25"/><path class="cls-3" d="M12.33,22.48a2.7,2.7,0,0,1,3,1.75c1,2.2.5,3.29.5,3.29l-5.69.3Z"/></g><g id="Layer_68_copy_4" data-name="Layer 68 copy 4"><path class="cls-4" d="M37.6,34.71l-4-1.86L30.7,34.4V31.47l-3.83-1.86L16,34.76l0,14.57L26.85,53.7l10.78-4.43Zm-14,3.46v2.59a1.19,1.19,0,0,1-.85-1.23A4,4,0,0,1,25,36.39a1.55,1.55,0,0,1,2,.2Zm9,5-2.2-1h-.09v-.78c0-.64,1-1.23,1.68-1.54,1.08-.51,2-.1,2,.9A3.27,3.27,0,0,1,32.58,43.2Z"/><path class="cls-5" d="M20,36.56l10.29-4.85V43.78L20,50.23Zm4.84,4A3.92,3.92,0,0,0,27,37.43c0-1.15-1-1.62-2.24-1a3.92,3.92,0,0,0-2.22,3.14c0,1.16,1,1.62,2.24,1"/><polygon id="int_dessus" data-name="int dessus" class="cls-6" points="23.43 47.26 19.97 45.63 30.25 42.2 33.69 43.83 23.43 47.26"/><polygon class="cls-7" points="23.39 38.17 23.43 47.26 19.97 45.63 19.96 36.56 16.52 34.91 16.53 49.1 26.84 53.27 26.84 39.8 23.39 38.17"/><polygon id="dessus_1" data-name="dessus 1" class="cls-8" points="26.83 39.8 23.39 38.17 33.69 33.31 37.15 34.94 26.83 39.8"/><polygon id="dessus_2" data-name="dessus 2" class="cls-9" points="19.96 36.56 16.52 34.91 26.84 30.07 30.25 31.71 19.96 36.56"/><path class="cls-10" d="M26.83,39.8l10.32-4.86,0,14.12L26.84,53.27Zm5,3.72a3.44,3.44,0,0,0,1.94-2.74c0-1-.88-1.41-1.95-.9a3.41,3.41,0,0,0-1.94,2.73c0,1,.88,1.41,2,.91"/><polygon class="cls-11" points="36.4 38.98 31.89 36.8 31.89 24.99 36.4 26.89 36.4 38.98"/><path class="cls-12" d="M33.24,34.75l-3.88-1.84A1.17,1.17,0,0,1,30,34.05a3.84,3.84,0,0,1-2.18,3.08,1.81,1.81,0,0,1-1.55.12l3.88,1.84A1.81,1.81,0,0,0,31.7,39a3.81,3.81,0,0,0,2.18-3.07A1.16,1.16,0,0,0,33.24,34.75Z"/><path class="cls-13" d="M24.62,35.8l15-7.06v9.08l-15,7.07Z"/><polygon class="cls-14" points="43.97 42.52 36.76 39.17 39.6 37.84 39.6 28.74 43.97 30.8 43.97 42.52"/><path id="_" data-name="**" class="cls-15" d="M44,30.8l9.55-4.49V38.12L44,42.52Z"/><polygon class="cls-16" points="24.59 44.89 21.19 43.25 21.19 34.19 24.62 35.8 24.59 44.89"/><path id="top" class="cls-17" d="M41.42,20.4,32,24.93l4.59,1.93L21.13,34.15l3.49,1.65,15-7.06L44,30.8l9.55-4.49Z"/><line class="cls-18" x1="43.97" y1="30.8" x2="43.97" y2="42.52"/><path class="cls-19" d="M21.19,34.19l3.43,1.61,15-7.06L44,30.8l9.55-4.49M24.59,44.89l0-9.09-3.43-1.61M39.61,38V28.9"/><polyline class="cls-20" points="32.68 25.22 36.51 26.88 32.68 28.72"/><path id="contour" class="cls-21" d="M53.52,26.31,41.41,20.4,32.15,25v3.74L21,34v9.28l3.56,1.64,12.16-5.72L44,42.52l9.55-4.4Z"/><path class="cls-4" d="M33.87,33.57,37.52,35l0,14.21"/><path class="cls-10" d="M26.83,39.8l10.32-4.86,0,14.12L26.84,53.27Zm5,4a4,4,0,0,0,2.23-3.14c0-1.16-1-1.62-2.25-1a3.9,3.9,0,0,0-2.22,3.14c0,1.15,1,1.62,2.24,1"/><polygon class="cls-22" points="23.39 38.17 23.43 47.28 16.53 49.1 26.84 53.27 26.86 39.8 23.39 38.17"/><polygon id="dessus_1_" data-name="dessus 1  *" class="cls-23" points="26.83 39.8 23.39 38.17 33.69 33.31 37.15 34.94 26.83 39.8"/><polygon class="cls-24" points="23.39 38.17 23.43 47.26 19.97 45.63 19.96 36.56 16.52 34.91 16.53 49.1 26.84 53.27 26.84 39.8 23.39 38.17"/><polyline class="cls-25" points="26.84 53.27 26.84 39.8 23.39 38.17 23.43 47.26 19.87 45.71 19.88 36.56 16.52 34.91"/><polyline id="dessus_1_2" data-name="dessus 1  *" class="cls-26" points="23.39 38.17 33.69 33.31 37.15 34.94"/></g><path class="cls-27" d="M33.82,40.64c1.24-.59,2.26-.12,2.26,1a4,4,0,0,1-2.24,3.16c-1.23.58-2.24.11-2.25-1A3.94,3.94,0,0,1,33.82,40.64Z"/><path class="cls-28" d="M33.47,39.55a1.87,1.87,0,0,0-1.59.13,3.93,3.93,0,0,0-2.23,3.14A1.2,1.2,0,0,0,30.3,44l1.95,1a1.23,1.23,0,0,1-.66-1.17,3.94,3.94,0,0,1,2.23-3.14,1.89,1.89,0,0,1,1.6-.13Z"/><g id="FL_1_copy_4" data-name="FL 1 copy 4"><line class="cls-29" x1="42.5" y1="12.11" x2="42.5" y2="18.61"/><line class="cls-30" x1="42.5" y1="12.11" x2="42.5" y2="18.61"/><path class="cls-31" d="M38.84,19.9a5.73,5.73,0,0,1,3.64-1.33,5.43,5.43,0,0,1,3.57,1.33l-3.47,4.4Z"/></g></g></svg>