<svg xmlns="http://www.w3.org/2000/svg" xmlns:xlink="http://www.w3.org/1999/xlink" width="64" height="64" viewBox="0 0 64 64">
  <defs>
    <linearGradient id="a" x1="17.74" y1="26.302" x2="39.549" y2="64.075" gradientUnits="userSpaceOnUse">
      <stop offset="0" stop-color="#3287af"/>
      <stop offset="1" stop-color="#285a78"/>
    </linearGradient>
    <linearGradient id="b" x1="31.439" y1="31.225" x2="34.473" y2="45.787" gradientUnits="userSpaceOnUse">
      <stop offset="0"/>
      <stop offset="1" stop-opacity="0"/>
    </linearGradient>
    <linearGradient id="c" x1="20.914" y1="10.159" x2="36.556" y2="37.252" gradientUnits="userSpaceOnUse">
      <stop offset="0" stop-color="#f5f5f5"/>
      <stop offset="1" stop-color="#bebebe"/>
    </linearGradient>
    <linearGradient id="d" x1="27.252" y1="6.489" x2="38.305" y2="25.633" gradientUnits="userSpaceOnUse">
      <stop offset="0" stop-color="#fff"/>
      <stop offset="1" stop-color="#f0f0f0"/>
    </linearGradient>
    <linearGradient id="e" x1="30.023" y1="18.102" x2="41.173" y2="37.414" gradientUnits="userSpaceOnUse">
      <stop offset="0" stop-color="#fff"/>
      <stop offset="1" stop-color="#d2d2d2"/>
    </linearGradient>
    <linearGradient id="f" x1="38.209" y1="20.879" x2="39.791" y2="23.621" xlink:href="#a"/>
    <linearGradient id="g" x1="37.992" y1="28.496" x2="40.008" y2="25.004" gradientUnits="userSpaceOnUse">
      <stop offset="0" stop-color="#379614"/>
      <stop offset="1" stop-color="#55b432"/>
    </linearGradient>
    <linearGradient id="h" x1="37.992" y1="28.496" x2="40.008" y2="25.004" gradientUnits="userSpaceOnUse">
      <stop offset="0" stop-color="#28780a"/>
      <stop offset="1" stop-color="#3c9b19"/>
    </linearGradient>
    <linearGradient id="i" x1="20.161" y1="17.081" x2="29.88" y2="33.915" gradientUnits="userSpaceOnUse">
      <stop offset="0" stop-color="#bebebe"/>
      <stop offset="1" stop-color="#bebebe" stop-opacity="0"/>
    </linearGradient>
  </defs>
  <title>6186_SIMEERS_AP_AppIcon_r21x</title>
  <path d="M34,48V45h8.6a3,3,0,0,0,2.966-3.445l-2.1-14A3,3,0,0,0,40.5,25H20.8a3,3,0,0,0-2.985,2.7l-1.4,14A3,3,0,0,0,19.4,45H28v3H7v6H57V48Z" fill="url(#a)"/>
  <rect x="7" y="52" width="50" height="1" fill="#fff" opacity="0.2"/>
  <path d="M19,30l5,15h4v3h6V45h8.6a2.98,2.98,0,0,0,2.966-3.445C45.3,39.9,45.034,38,45.034,38L32.542,29Z" opacity="0.3" fill="url(#b)"/>
  <g>
    <g>
      <polygon points="19.5 29.819 19.5 10.976 28.817 10.51 39.474 20.197 37.533 36.688 29.119 41.362 19.5 29.819" fill="url(#c)"/>
      <path d="M28.635,11.02l10.312,9.374-1.88,15.981-7.829,4.349L20,29.638V11.451l8.635-.431M29,10l-10,.5V30L29,42l9-5,2-17L29,10Z" fill="#787878"/>
    </g>
    <g>
      <polygon points="32.257 20.567 19.656 10.874 30.914 8.529 42.439 15.252 40.632 24.29 32.257 20.567" fill="url(#d)"/>
      <path d="M30.828,9.057,41.879,15.5l-1.615,8.075-7.749-3.444L20.824,11.141l10-2.084M31,8,19,10.5V11L32,21l9,4,2-10L31,8Z" fill="#787878"/>
    </g>
    <g>
      <polygon points="29.5 18.404 42.5 15.619 42.5 36.647 29.5 41.29 29.5 18.404" fill="url(#e)"/>
      <path d="M42,16.237V36.3L30,40.581V18.808l12-2.571M43,15,29,18V42l14-5V15Z" fill="#787878"/>
    </g>
    <polygon points="40 23.5 38 24 38 21 40 20.5 40 23.5" fill="url(#f)"/>
    <g>
      <polygon points="40 28 38 28.5 38 25.5 40 25 40 28" fill="url(#g)"/>
      <path d="M39,26.281v0M40,25l-2,.5v3l2-.5V25Z" fill="url(#h)"/>
    </g>
    <path d="M30.828,9.057,42,15.574V36.3L29.321,40.823,20,29.638V11.313L30.828,9.057M31,8,19,10.5V30L29,42l14-5V15L31,8Z" fill="#323232"/>
    <path d="M33,18.167V20l-1,.333v-2l-1,.292v2.042L30,21v1l1-.333v1L30,23v1l1-.333v1L30,25v1l1-.333v1L30,27v1l1-.333v1L30,29v1l1-.333v1L30,31v1l1-.333v1L30,33v1l1-.333v1L30,35v1h0l1-.334v1L30,37v1l1-.333V40.25l1-.375V37.333L33,37v2.542l1-.32v-21.3ZM33,36l-1,.333v-1L33,35Zm0-2-1,.333v-1L33,33Zm0-2-1,.333v-1L33,31Zm0-2-1,.333v-1L33,29Zm0-2-1,.333v-1L33,27Zm0-2-1,.333v-1L33,25Zm0-2-1,.333v-1L33,23Zm0-2-1,.333v-1L33,21Z" fill="#646464" opacity="0.5"/>
    <path d="M28,35l-7-7V17.174a1,1,0,0,1,1.651-.759l5,4.286A1,1,0,0,1,28,21.46Z" opacity="0.6" fill="url(#i)"/>
  </g>
</svg>
