<svg xmlns="http://www.w3.org/2000/svg" xmlns:xlink="http://www.w3.org/1999/xlink" width="64" height="64" viewBox="0 0 64 64">
  <defs>
    <linearGradient id="a" x1="16.987" y1="7.656" x2="43.575" y2="53.71" gradientUnits="userSpaceOnUse">
      <stop offset="0" stop-color="#3287af"/>
      <stop offset="1" stop-color="#285a78"/>
    </linearGradient>
    <linearGradient id="b" x1="25.143" y1="20.129" x2="35.592" y2="38.228" gradientUnits="userSpaceOnUse">
      <stop offset="0" stop-color="#f5f5f5"/>
      <stop offset="1" stop-color="#bebebe"/>
    </linearGradient>
    <linearGradient id="c" x1="29.574" y1="17.541" x2="36.963" y2="30.34" gradientUnits="userSpaceOnUse">
      <stop offset="0" stop-color="#fff"/>
      <stop offset="1" stop-color="#f0f0f0"/>
    </linearGradient>
    <linearGradient id="d" x1="31.757" y1="25.731" x2="38.858" y2="38.029" gradientUnits="userSpaceOnUse">
      <stop offset="0" stop-color="#fff"/>
      <stop offset="1" stop-color="#d2d2d2"/>
    </linearGradient>
    <linearGradient id="e" x1="37.05" y1="27.971" x2="37.95" y2="29.529" xlink:href="#a"/>
    <linearGradient id="f" x1="40.283" y1="36.099" x2="51.717" y2="55.903" gradientUnits="userSpaceOnUse">
      <stop offset="0" stop-color="#fff"/>
      <stop offset="1" stop-color="#d4d5d3"/>
    </linearGradient>
    <linearGradient id="g" x1="46" y1="51" x2="46" y2="41.77" gradientUnits="userSpaceOnUse">
      <stop offset="0" stop-color="#fff"/>
      <stop offset="1"/>
    </linearGradient>
  </defs>
  <title>6962_SIMEEXA_AP_AppIcon_r21x</title>
  <g>
    <g opacity="0.5">
      <path d="M15,56.5A2.5,2.5,0,0,1,12.5,54V48A2.5,2.5,0,0,1,15,45.5h3.8l6.487-9.267L16.5,39.58V42A2.5,2.5,0,0,1,14,44.5H8A2.5,2.5,0,0,1,5.5,42V36A2.5,2.5,0,0,1,8,33.5h6a2.492,2.492,0,0,1,1.944.941L26.829,30.3l-10.6-7.807A2.21,2.21,0,0,1,16,22.5H10A2.5,2.5,0,0,1,7.5,20V14A2.5,2.5,0,0,1,10,11.5h6A2.5,2.5,0,0,1,18.5,14v3.947l12.685,9.347,6.64-12.072A2.454,2.454,0,0,1,37.5,14V8A2.5,2.5,0,0,1,40,5.5h6A2.5,2.5,0,0,1,48.5,8v6A2.5,2.5,0,0,1,46,16.5H42.828l-6.048,11,9.72-1.944V24A2.5,2.5,0,0,1,49,21.5h6A2.5,2.5,0,0,1,57.5,24v6A2.5,2.5,0,0,1,55,32.5H49a2.514,2.514,0,0,1-2.414-1.868L36.208,32.708,42.252,41.5H46A2.5,2.5,0,0,1,48.5,44v6A2.5,2.5,0,0,1,46,52.5H40A2.5,2.5,0,0,1,37.5,50V44a2.348,2.348,0,0,1,.058-.5l-5.577-8.111L23.456,47.565A2.214,2.214,0,0,1,23.5,48v6A2.5,2.5,0,0,1,21,56.5Z" fill="#fff"/>
      <path d="M46,6a2,2,0,0,1,2,2v6a2,2,0,0,1-2,2H42.532L35.824,28.2,47,25.961V24a2,2,0,0,1,2-2h6a2,2,0,0,1,2,2v6a2,2,0,0,1-2,2H49a2,2,0,0,1-2-1.961L35.366,32.366,41.99,42H46a2,2,0,0,1,2,2v6a2,2,0,0,1-2,2H40a2,2,0,0,1-2-2V44a1.96,1.96,0,0,1,.1-.6l-6.116-8.9L22.918,47.462A2,2,0,0,1,23,48v6a2,2,0,0,1-2,2H15a2,2,0,0,1-2-2V48a2,2,0,0,1,2-2h4.059l7.569-10.813L16,39.235V42a2,2,0,0,1-2,2H8a2,2,0,0,1-2-2V36a2,2,0,0,1,2-2h6a1.993,1.993,0,0,1,1.75,1.05l12.113-4.614-11.5-8.473A1.979,1.979,0,0,1,16,22H10a2,2,0,0,1-2-2V14a2,2,0,0,1,2-2h6a2,2,0,0,1,2,2v4.2l13.348,9.835L38.408,15.2A1.98,1.98,0,0,1,38,14V8a2,2,0,0,1,2-2h6m0-1H40a3,3,0,0,0-3,3v6a2.95,2.95,0,0,0,.26,1.212L31.022,26.553,19,17.694V14a3,3,0,0,0-3-3H10a3,3,0,0,0-3,3v6a3,3,0,0,0,3,3h6.083l9.711,7.155-9.71,3.7A2.98,2.98,0,0,0,14,33H8a3,3,0,0,0-3,3v6a3,3,0,0,0,3,3h6a3,3,0,0,0,3-3V39.925l6.942-2.645L18.538,45H15a3,3,0,0,0-3,3v6a3,3,0,0,0,3,3h6a3,3,0,0,0,3-3V48a2.564,2.564,0,0,0-.019-.313l8-11.424,5.051,7.347A2.726,2.726,0,0,0,37,44v6a3,3,0,0,0,3,3h6a3,3,0,0,0,3-3V44a3,3,0,0,0-3-3H42.516l-5.467-7.951,9.211-1.842A3.014,3.014,0,0,0,49,33h6a3,3,0,0,0,3-3V24a3,3,0,0,0-3-3H49a3,3,0,0,0-3,3v1.141l-8.263,1.652L43.123,17H46a3,3,0,0,0,3-3V8a3,3,0,0,0-3-3Z" fill="#fff"/>
    </g>
    <path d="M55,22H49a2,2,0,0,0-2,2v1.961L35.824,28.2,42.532,16H46a2,2,0,0,0,2-2V8a2,2,0,0,0-2-2H40a2,2,0,0,0-2,2v6a1.98,1.98,0,0,0,.408,1.2l-7.06,12.836L18,18.2V14a2,2,0,0,0-2-2H10a2,2,0,0,0-2,2v6a2,2,0,0,0,2,2h6a1.979,1.979,0,0,0,.364-.037l11.5,8.473L15.75,35.05A1.993,1.993,0,0,0,14,34H8a2,2,0,0,0-2,2v6a2,2,0,0,0,2,2h6a2,2,0,0,0,2-2V39.235l10.628-4.048L19.059,46H15a2,2,0,0,0-2,2v6a2,2,0,0,0,2,2h6a2,2,0,0,0,2-2V48a2,2,0,0,0-.082-.538l9.067-12.953L38.1,43.4a1.96,1.96,0,0,0-.1.6v6a2,2,0,0,0,2,2h6a2,2,0,0,0,2-2V44a2,2,0,0,0-2-2H41.99l-6.624-9.634L47,30.039A2,2,0,0,0,49,32h6a2,2,0,0,0,2-2V24A2,2,0,0,0,55,22Z" fill="url(#a)"/>
  </g>
  <g>
    <g>
      <polygon points="24.5 33.313 24.5 20.5 30.793 20.5 37.461 27.168 35.545 37.708 31.081 40.833 24.5 33.313" fill="url(#b)"/>
      <path d="M30.586,21l6.336,6.337L35.09,37.417l-3.928,2.749L25,33.124V21h5.586M31,20H24V33.5l7,8L36,38l2-11-7-7Z" fill="#787878"/>
    </g>
    <g>
      <polygon points="34.226 28.535 24.641 20.389 31.914 19.025 39.457 23.268 38.58 29.406 34.226 28.535" fill="url(#c)"/>
      <path d="M31.827,19.55l7.086,3.986-.753,5.276-3.71-.742-8.686-7.383,6.063-1.137M32,18.5,24,20v.5L34,29l5,1,1-7-8-4.5Z" fill="#787878"/>
    </g>
    <g>
      <polygon points="31.5 25.88 39.5 23.658 39.5 37.658 31.5 40.77 31.5 25.88" fill="url(#d)"/>
      <path d="M39,24.316v13l-7,2.722V26.26l7-1.944M40,23l-9,2.5v16L40,38V23Z" fill="#787878"/>
    </g>
    <polygon points="33 25.975 33 27.5 32 28 32 29 33 28.5 33 29.5 32 30 32 31 33 30.5 33 31.5 32 32 32 33 33 32.5 33 33.5 32 34 32 35 33 34.5 33 35.5 32 36 32 37 33 36.5 33 39.719 34 39.4 34 25.723 33 25.975" fill="#646464" opacity="0.5"/>
    <polygon points="38 29.5 37 30 37 28 38 27.5 38 29.5" fill="url(#e)"/>
    <path d="M31.827,19.55,39,23.585V37.316l-7.709,3L25,33.124V20.83l6.827-1.28M32,18.5,24,20V33.5l7,8L40,38V23l-8-4.5Z" fill="#323232"/>
  </g>
  <g>
    <g>
      <path d="M53.862,50.249a2.368,2.368,0,0,0,.165.868,2.249,2.249,0,0,0,.516.775l.8.8a11.242,11.242,0,0,1-2.652,2.652l-.8-.8a2.193,2.193,0,0,0-.774-.517,2.344,2.344,0,0,0-.868-.165,2.407,2.407,0,0,0-.892.165,2.2,2.2,0,0,0-.751.481,2.436,2.436,0,0,0-.528.751,2.249,2.249,0,0,0-.2.95v1.127c-.312.047-.626.086-.938.116a9.4,9.4,0,0,1-1.878,0q-.47-.045-.938-.116V56.21a2.265,2.265,0,0,0-.2-.95,2.453,2.453,0,0,0-.528-.751,2.178,2.178,0,0,0-.763-.481,2.437,2.437,0,0,0-.88-.165,2.34,2.34,0,0,0-.868.165,2.193,2.193,0,0,0-.774.517l-.8.8a11.242,11.242,0,0,1-2.652-2.652l.8-.8a2.249,2.249,0,0,0,.516-.775,2.368,2.368,0,0,0,.165-.868,2.459,2.459,0,0,0-.165-.88,2.212,2.212,0,0,0-.481-.764,2.445,2.445,0,0,0-.751-.527,2.249,2.249,0,0,0-.95-.2H34.665q-.072-.471-.118-.939a9.4,9.4,0,0,1,0-1.878q.047-.468.118-.939h1.126a2.249,2.249,0,0,0,.95-.2,2.448,2.448,0,0,0,.751-.528,2.229,2.229,0,0,0,.481-.752,2.422,2.422,0,0,0,.165-.891,2.356,2.356,0,0,0-.165-.868,2.239,2.239,0,0,0-.516-.775l-.8-.8a11.242,11.242,0,0,1,2.652-2.652l.8.8a2.207,2.207,0,0,0,.774.517,2.36,2.36,0,0,0,.868.165,2.459,2.459,0,0,0,.88-.165,2.208,2.208,0,0,0,.763-.481,2.524,2.524,0,0,0,.528-.739,2.242,2.242,0,0,0,.2-.962V34.665q.468-.07.938-.116a9.022,9.022,0,0,1,1.878,0c.312.03.626.069.938.116v1.127a2.3,2.3,0,0,0,1.479,2.182,2.428,2.428,0,0,0,.892.165,2.536,2.536,0,0,0,.856-.154,2.067,2.067,0,0,0,.786-.5l.8-.822a11.242,11.242,0,0,1,2.652,2.652l-.8.8a2.239,2.239,0,0,0-.516.775,2.356,2.356,0,0,0-.165.868,2.422,2.422,0,0,0,.165.891,2.229,2.229,0,0,0,.481.752,2.505,2.505,0,0,0,.739.528,2.224,2.224,0,0,0,.962.2h1.126c.048.314.086.627.118.939s.047.625.047.938-.016.627-.047.94-.07.625-.118.939H56.209a2.224,2.224,0,0,0-.962.2,2.5,2.5,0,0,0-.739.527,2.212,2.212,0,0,0-.481.764A2.459,2.459,0,0,0,53.862,50.249ZM46,49.5a3.358,3.358,0,0,0,1.359-.278,3.545,3.545,0,0,0,1.863-1.863,3.461,3.461,0,0,0,0-2.718,3.542,3.542,0,0,0-1.863-1.864,3.472,3.472,0,0,0-2.718,0,3.542,3.542,0,0,0-1.863,1.864,3.461,3.461,0,0,0,0,2.718,3.545,3.545,0,0,0,1.863,1.863A3.358,3.358,0,0,0,46,49.5Z" fill="#fff" stroke="#fff" stroke-linejoin="round" stroke-width="3" opacity="0.5"/>
      <path d="M53.862,50.249a2.368,2.368,0,0,0,.165.868,2.249,2.249,0,0,0,.516.775l.8.8a11.242,11.242,0,0,1-2.652,2.652l-.8-.8a2.193,2.193,0,0,0-.774-.517,2.344,2.344,0,0,0-.868-.165,2.407,2.407,0,0,0-.892.165,2.2,2.2,0,0,0-.751.481,2.436,2.436,0,0,0-.528.751,2.249,2.249,0,0,0-.2.95v1.127c-.312.047-.626.086-.938.116a9.4,9.4,0,0,1-1.878,0q-.47-.045-.938-.116V56.21a2.265,2.265,0,0,0-.2-.95,2.453,2.453,0,0,0-.528-.751,2.178,2.178,0,0,0-.763-.481,2.437,2.437,0,0,0-.88-.165,2.34,2.34,0,0,0-.868.165,2.193,2.193,0,0,0-.774.517l-.8.8a11.242,11.242,0,0,1-2.652-2.652l.8-.8a2.249,2.249,0,0,0,.516-.775,2.368,2.368,0,0,0,.165-.868,2.459,2.459,0,0,0-.165-.88,2.212,2.212,0,0,0-.481-.764,2.445,2.445,0,0,0-.751-.527,2.249,2.249,0,0,0-.95-.2H34.665q-.072-.471-.118-.939a9.4,9.4,0,0,1,0-1.878q.047-.468.118-.939h1.126a2.249,2.249,0,0,0,.95-.2,2.448,2.448,0,0,0,.751-.528,2.229,2.229,0,0,0,.481-.752,2.422,2.422,0,0,0,.165-.891,2.356,2.356,0,0,0-.165-.868,2.239,2.239,0,0,0-.516-.775l-.8-.8a11.242,11.242,0,0,1,2.652-2.652l.8.8a2.207,2.207,0,0,0,.774.517,2.36,2.36,0,0,0,.868.165,2.459,2.459,0,0,0,.88-.165,2.208,2.208,0,0,0,.763-.481,2.524,2.524,0,0,0,.528-.739,2.242,2.242,0,0,0,.2-.962V34.665q.468-.07.938-.116a9.022,9.022,0,0,1,1.878,0c.312.03.626.069.938.116v1.127a2.3,2.3,0,0,0,1.479,2.182,2.428,2.428,0,0,0,.892.165,2.536,2.536,0,0,0,.856-.154,2.067,2.067,0,0,0,.786-.5l.8-.822a11.242,11.242,0,0,1,2.652,2.652l-.8.8a2.239,2.239,0,0,0-.516.775,2.356,2.356,0,0,0-.165.868,2.422,2.422,0,0,0,.165.891,2.229,2.229,0,0,0,.481.752,2.505,2.505,0,0,0,.739.528,2.224,2.224,0,0,0,.962.2h1.126c.048.314.086.627.118.939s.047.625.047.938-.016.627-.047.94-.07.625-.118.939H56.209a2.224,2.224,0,0,0-.962.2,2.5,2.5,0,0,0-.739.527,2.212,2.212,0,0,0-.481.764A2.459,2.459,0,0,0,53.862,50.249ZM46,49.5a3.358,3.358,0,0,0,1.359-.278,3.545,3.545,0,0,0,1.863-1.863,3.461,3.461,0,0,0,0-2.718,3.542,3.542,0,0,0-1.863-1.864,3.472,3.472,0,0,0-2.718,0,3.542,3.542,0,0,0-1.863,1.864,3.461,3.461,0,0,0,0,2.718,3.545,3.545,0,0,0,1.863,1.863A3.358,3.358,0,0,0,46,49.5Z" stroke="#323232" stroke-linejoin="round" fill="url(#f)"/>
    </g>
    <g opacity="0.2">
      <path d="M38.438,40.7a2.906,2.906,0,0,1,.153.558,2.944,2.944,0,0,0,.047-.508,2.887,2.887,0,0,0-.2-1.05,2.737,2.737,0,0,0-.627-.947l-.025-.025c-.157.177-.324.345-.469.533l.494.492A2.737,2.737,0,0,1,38.438,40.7Z"/>
      <path d="M53.563,39.7a2.855,2.855,0,0,0-.2,1.052,2.956,2.956,0,0,0,.047.509,2.828,2.828,0,0,1,.154-.561,2.71,2.71,0,0,1,.625-.944l.495-.493c-.145-.188-.312-.356-.469-.533l-.026.026A2.71,2.71,0,0,0,53.563,39.7Z"/>
      <path d="M56.956,45.89c-.017.163-.035.326-.056.489h-.691a2.716,2.716,0,0,0-1.176.247,3,3,0,0,0-.886.633,2.7,2.7,0,0,0-.587.932,2.973,2.973,0,0,0-.2,1.058,2.855,2.855,0,0,0,.047.5,3.007,3.007,0,0,1,.151-.555,2.7,2.7,0,0,1,.587-.932,3,3,0,0,1,.886-.633,2.716,2.716,0,0,1,1.176-.247H56.9c.021-.163.039-.326.056-.489.029-.3.044-.592.044-.89,0-.167-.015-.333-.025-.5C56.968,45.63,56.969,45.76,56.956,45.89Z"/>
      <path d="M38.44,49.192a3.1,3.1,0,0,1,.151.554,2.864,2.864,0,0,0,.047-.5,3,3,0,0,0-.2-1.057,2.715,2.715,0,0,0-.587-.933,2.94,2.94,0,0,0-.9-.635,2.737,2.737,0,0,0-1.159-.245H35.1c-.021-.163-.039-.327-.056-.491-.013-.129-.012-.259-.019-.388-.009.167-.025.334-.025.5a8.771,8.771,0,0,0,.044.888c.017.164.035.328.056.491h.691a2.737,2.737,0,0,1,1.159.245,2.94,2.94,0,0,1,.9.635A2.715,2.715,0,0,1,38.44,49.192Z"/>
      <path d="M52.737,53.684l-.491-.492a2.7,2.7,0,0,0-.947-.629,2.952,2.952,0,0,0-2.122,0,2.72,2.72,0,0,0-.918.586,2.964,2.964,0,0,0-.636.9,2.747,2.747,0,0,0-.246,1.159V55.9c-.163.021-.326.038-.489.055a8.531,8.531,0,0,1-1.779,0c-.162-.016-.324-.033-.486-.054V55.21a2.764,2.764,0,0,0-.246-1.159,2.986,2.986,0,0,0-.636-.9,2.691,2.691,0,0,0-.93-.586,2.912,2.912,0,0,0-2.107,0,2.688,2.688,0,0,0-.948.629l-.493.493a10.786,10.786,0,0,1-1.477-1.413l-.469.467a10.8,10.8,0,0,0,1.946,1.946l.493-.493a2.688,2.688,0,0,1,.948-.629,2.912,2.912,0,0,1,2.107,0,2.691,2.691,0,0,1,.93.586,2.986,2.986,0,0,1,.636.9,2.764,2.764,0,0,1,.246,1.159V56.9c.162.021.324.038.486.054a8.531,8.531,0,0,0,1.779,0c.163-.017.326-.034.489-.055V56.21a2.747,2.747,0,0,1,.246-1.159,2.964,2.964,0,0,1,.636-.9,2.72,2.72,0,0,1,.918-.586,2.952,2.952,0,0,1,2.122,0,2.7,2.7,0,0,1,.947.629l.491.492a10.8,10.8,0,0,0,1.946-1.946l-.469-.467A10.786,10.786,0,0,1,52.737,53.684Z"/>
    </g>
    <g opacity="0.3">
      <path d="M53.561,42.822a2.79,2.79,0,0,1-.152-.56,2.769,2.769,0,0,0-.047.491,2.905,2.905,0,0,0,.2,1.069,2.7,2.7,0,0,0,.586.921,3,3,0,0,0,.886.633,2.735,2.735,0,0,0,1.176.247H56.9c.021.163.039.326.056.489.013.13.012.259.019.389.01-.167.025-.333.025-.5q0-.444-.044-.888c-.017-.163-.035-.326-.056-.489h-.691a2.735,2.735,0,0,1-1.176-.247,3,3,0,0,1-.886-.633A2.7,2.7,0,0,1,53.561,42.822Z" fill="#fff"/>
      <path d="M39.263,38.318l.491.492a2.7,2.7,0,0,0,.947.629,2.92,2.92,0,0,0,2.106,0,2.706,2.706,0,0,0,.935-.589,3.034,3.034,0,0,0,.633-.885,2.732,2.732,0,0,0,.248-1.177V36.1c.162-.021.325-.039.49-.055a8.531,8.531,0,0,1,1.779,0c.162.015.323.033.485.054v.69a2.806,2.806,0,0,0,1.8,2.648,2.99,2.99,0,0,0,2.1.018,2.593,2.593,0,0,0,.979-.627l.493-.508a10.779,10.779,0,0,1,1.472,1.409l.469-.467a10.781,10.781,0,0,0-1.941-1.942l-.493.508a2.593,2.593,0,0,1-.979.627,2.99,2.99,0,0,1-2.1-.018,2.8,2.8,0,0,1-1.8-2.648V35.1c-.162-.021-.323-.039-.485-.054a8.531,8.531,0,0,0-1.779,0c-.165.016-.328.034-.49.055v.69a2.732,2.732,0,0,1-.248,1.177,3.034,3.034,0,0,1-.633.885,2.706,2.706,0,0,1-.935.589,2.92,2.92,0,0,1-2.106,0,2.7,2.7,0,0,1-.947-.629l-.491-.492a10.8,10.8,0,0,0-1.946,1.946l.469.467A10.786,10.786,0,0,1,39.263,38.318Z" fill="#fff"/>
      <path d="M53.561,51.3a2.888,2.888,0,0,1-.152-.551,2.942,2.942,0,0,0-.047.5,2.881,2.881,0,0,0,.2,1.048,2.724,2.724,0,0,0,.628.949l.025.025c.157-.177.324-.345.469-.533l-.494-.492A2.724,2.724,0,0,1,53.561,51.3Z" fill="#fff"/>
      <path d="M38.438,52.3a2.9,2.9,0,0,0,.2-1.049,2.942,2.942,0,0,0-.047-.5,2.963,2.963,0,0,1-.153.552,2.73,2.73,0,0,1-.626.947l-.495.493c.145.188.312.356.469.533l.026-.026A2.73,2.73,0,0,0,38.438,52.3Z" fill="#fff"/>
      <path d="M35.044,46.112c.017-.163.035-.326.056-.489h.691a2.756,2.756,0,0,0,1.159-.245,2.94,2.94,0,0,0,.9-.635,2.739,2.739,0,0,0,.585-.918,2.94,2.94,0,0,0,.2-1.072,2.8,2.8,0,0,0-.047-.492,2.885,2.885,0,0,1-.153.564,2.739,2.739,0,0,1-.585.918,2.94,2.94,0,0,1-.9.635,2.756,2.756,0,0,1-1.159.245H35.1c-.021.163-.039.326-.056.489A8.829,8.829,0,0,0,35,46c0,.167.016.333.025.5C35.032,46.371,35.031,46.242,35.044,46.112Z" fill="#fff"/>
    </g>
    <path d="M46,41a5,5,0,1,0,5,5A5,5,0,0,0,46,41Zm0,9a4,4,0,1,1,4-4A4,4,0,0,1,46,50Z" opacity="0.3" fill="url(#g)"/>
  </g>
</svg>
