<svg id="Layer_3" data-name="Layer 3" xmlns="http://www.w3.org/2000/svg" xmlns:xlink="http://www.w3.org/1999/xlink" viewBox="0 0 64 64"><defs><radialGradient id="radial-gradient" cx="24.09" cy="32.41" fy="21.873915687484732" r="28.2" gradientTransform="translate(-0.51 -3.64) rotate(-0.81) scale(1 1.12)" gradientUnits="userSpaceOnUse"><stop offset="0.38" stop-color="#8dd7f4"/><stop offset="0.44" stop-color="#7cc2df"/><stop offset="0.57" stop-color="#508daa"/><stop offset="0.64" stop-color="#386f8d"/></radialGradient><linearGradient id="linear-gradient" x1="53.13" y1="54.72" x2="40.3" y2="32.48" gradientUnits="userSpaceOnUse"><stop offset="0" stop-color="#386f8d"/><stop offset="1" stop-color="#8dd7f4"/></linearGradient></defs><title>SIMHCNT_AP</title><ellipse cx="22.75" cy="50.25" rx="10.75" ry="2.75" opacity="0.1"/><path d="M38.07,21.44a27.16,27.16,0,0,0-13.82,2.08,12.93,12.93,0,0,1,6.63-5.77.5.5,0,0,0,.21-.77l-3.32-4.15a.5.5,0,0,0-.64-.12C23.35,14.87-7.59,33.57,22.61,50.5c0,0,11.89-3.6,11.89-14.41,0-4.17-1.66-6.61-3.69-8.06A18,18,0,0,1,38.5,26.5V21.94A.49.49,0,0,0,38.07,21.44Z" stroke="#053755" stroke-linecap="round" stroke-linejoin="round" fill="url(#radial-gradient)"/><path d="M26.35,40A4.5,4.5,0,1,0,19,35" fill="none" stroke="#053755" stroke-linecap="round" stroke-linejoin="round"/><path d="M28.5,29.5s2.86-2.86,9.5-3a.51.51,0,0,0,.5-.5V21.94a.49.49,0,0,0-.43-.5c-2.22-.26-12.47-1-19.57,6.06a4.06,4.06,0,0,0-7,0" fill="none" stroke="#053755" stroke-linecap="round" stroke-linejoin="round"/><g opacity="0.45"><path d="M30.91,28.17A12.88,12.88,0,0,1,31.75,33c0,10-9.19,14.48-12.25,15.68.94.62,1.94,1.24,3,1.86,0,0,11.88-3.6,11.88-14.41C34.42,32.05,32.86,29.63,30.91,28.17Z" fill="#053755"/></g><path d="M18,27s3-8.5,11.5-12l1.57,2a.5.5,0,0,1-.2.77A11.83,11.83,0,0,0,24.5,23.5a28.77,28.77,0,0,0-6,4Z" fill="#053755" opacity="0.26"/><path d="M28.5,29.5a5.57,5.57,0,0,0-1.24,6s-4.76,1-4.76,7" fill="none" stroke="#053755" stroke-linecap="round" stroke-linejoin="round"/><g opacity="0.45"><path d="M54.5,45a.5.5,0,0,1,.5.5v5a.5.5,0,0,1-.5.5h-13a.5.5,0,0,1-.5-.5v-5a.5.5,0,0,1,.5-.5h3a.5.5,0,0,1,.5.5V47h6V45.5a.5.5,0,0,1,.5-.5h3m0-1h-3A1.5,1.5,0,0,0,50,45.5V46H46v-.5A1.5,1.5,0,0,0,44.5,44h-3A1.5,1.5,0,0,0,40,45.5v5A1.5,1.5,0,0,0,41.5,52h13A1.5,1.5,0,0,0,56,50.5v-5A1.5,1.5,0,0,0,54.5,44Z" fill="#fff"/><path d="M49.5,32a.5.5,0,0,1,.5.5V39h2.5a.5.5,0,0,1,.5.5v1a.47.47,0,0,1-.15.35l-4,4a.47.47,0,0,1-.35.15h-1a.47.47,0,0,1-.35-.15l-4-4A.47.47,0,0,1,43,40.5v-1a.5.5,0,0,1,.5-.5H46V32.5a.5.5,0,0,1,.5-.5h3m0-1h-3A1.5,1.5,0,0,0,45,32.5V38H43.5A1.5,1.5,0,0,0,42,39.5v1a1.5,1.5,0,0,0,.44,1.06l4,4A1.5,1.5,0,0,0,47.5,46h1a1.5,1.5,0,0,0,1.06-.44l4-4A1.5,1.5,0,0,0,54,40.5v-1A1.5,1.5,0,0,0,52.5,38H51V32.5A1.5,1.5,0,0,0,49.5,31Z" fill="#fff"/></g><path d="M54.5,45.5v5h-13v-5h3v2h7v-2Zm-2-5v-1h-3v-7h-3v7h-3v1l4,4h1Z" stroke="#053755" stroke-linecap="round" stroke-linejoin="round" fill="url(#linear-gradient)"/><path d="M23,32.5s2-9.5,15.5-9v3s-12-.5-12,7.5Z" fill="#053755" opacity="0.3"/></svg>