<svg id="v01_copy" data-name="v01 copy" xmlns="http://www.w3.org/2000/svg" xmlns:xlink="http://www.w3.org/1999/xlink" viewBox="0 0 64 64"><defs><style>.cls-1,.cls-19,.cls-2,.cls-20,.cls-22,.cls-26,.cls-27,.cls-28,.cls-32,.cls-34,.cls-35,.cls-36,.cls-37,.cls-4{fill:none;}.cls-1,.cls-3,.cls-33{stroke:#00415f;}.cls-1,.cls-11,.cls-14,.cls-15,.cls-16,.cls-18,.cls-2,.cls-20,.cls-22,.cls-25,.cls-26,.cls-27,.cls-3,.cls-32,.cls-33,.cls-34,.cls-35,.cls-36,.cls-37,.cls-4,.cls-8{stroke-linecap:round;}.cls-1,.cls-11,.cls-14,.cls-15,.cls-16,.cls-18,.cls-2,.cls-20,.cls-22,.cls-25,.cls-26,.cls-27,.cls-3,.cls-32,.cls-33,.cls-35,.cls-36,.cls-37,.cls-4,.cls-8{stroke-linejoin:round;}.cls-1{stroke-width:2.78px;}.cls-2,.cls-32,.cls-33{stroke-width:0.93px;}.cls-2{stroke:url(#linear-gradient);}.cls-3{stroke-width:1.02px;fill:url(#linear-gradient-2);}.cls-18,.cls-20,.cls-21,.cls-27,.cls-29,.cls-30,.cls-31,.cls-4{stroke:#797979;}.cls-22,.cls-4,.cls-5{stroke-width:0.84px;}.cls-5,.cls-6{fill:#323232;}.cls-5,.cls-8{stroke:#323232;}.cls-12,.cls-13,.cls-17,.cls-19,.cls-21,.cls-28,.cls-29,.cls-30,.cls-31,.cls-34,.cls-5{stroke-miterlimit:10;}.cls-7{fill:url(#linear-gradient-3);}.cls-8{stroke-width:0.14px;}.cls-24,.cls-8{fill:url(#top_white);}.cls-9{fill:url(#top_white-2);}.cls-10,.cls-12,.cls-13,.cls-15,.cls-17{fill:#797979;}.cls-11,.cls-16,.cls-25{fill:#f1f0f0;}.cls-11,.cls-13,.cls-16,.cls-25,.cls-26{stroke:#787878;}.cls-11,.cls-18,.cls-19,.cls-20,.cls-21{stroke-width:0.47px;}.cls-12,.cls-14,.cls-15{stroke:#6d6d6d;}.cls-12,.cls-13,.cls-14,.cls-15,.cls-17{stroke-width:0.59px;}.cls-14{fill:url(#linear-gradient-4);}.cls-16{stroke-width:0.24px;}.cls-17,.cls-28,.cls-34,.cls-35{stroke:#fff;}.cls-18{fill:url(#top_white-3);}.cls-19{stroke:#285977;}.cls-21{fill:#285977;}.cls-22,.cls-36{stroke:#000;}.cls-23{fill:url(#linear-gradient-5);}.cls-25{stroke-width:0.25px;}.cls-26,.cls-27{stroke-width:0.24px;}.cls-28{stroke-width:0.09px;}.cls-29{fill:#e1e1e1;}.cls-29,.cls-30,.cls-31{stroke-width:0.59px;}.cls-30{fill:url(#top_white-5);}.cls-31{fill:url(#top_white-6);}.cls-32{stroke:url(#linear-gradient-6);}.cls-33{fill:url(#linear-gradient-7);}.cls-34,.cls-35{stroke-width:4px;}.cls-36,.cls-37{stroke-width:2px;}.cls-37{stroke:#003755;}</style><linearGradient id="linear-gradient" x1="6.31" y1="29.34" x2="18.92" y2="29.34" gradientUnits="userSpaceOnUse"><stop offset="0" stop-color="#92d5ee"/><stop offset="0.26" stop-color="#6aacc5"/><stop offset="0.6" stop-color="#3e7f98"/><stop offset="0.85" stop-color="#22637c"/><stop offset="1" stop-color="#185971"/></linearGradient><linearGradient id="linear-gradient-2" x1="5.18" y1="20.3" x2="9.23" y2="25.75" xlink:href="#linear-gradient"/><linearGradient id="linear-gradient-3" x1="11.43" y1="33.06" x2="21.96" y2="51.3" gradientUnits="userSpaceOnUse"><stop offset="0" stop-color="#fff"/><stop offset="1" stop-color="#d2d2d2"/></linearGradient><linearGradient id="top_white" x1="24.42" y1="32.79" x2="26.45" y2="36.32" gradientUnits="userSpaceOnUse"><stop offset="0" stop-color="#fff"/><stop offset="1" stop-color="#f0f0f0"/></linearGradient><linearGradient id="top_white-2" x1="11.68" y1="31.32" x2="25.41" y2="31.32" xlink:href="#top_white"/><linearGradient id="linear-gradient-4" x1="31.93" y1="33.63" x2="39.13" y2="33.63" gradientUnits="userSpaceOnUse"><stop offset="0" stop-color="#c9c9c9"/><stop offset="1" stop-color="#737373"/></linearGradient><linearGradient id="top_white-3" x1="16.74" y1="26.15" x2="48.63" y2="26.15" xlink:href="#top_white"/><linearGradient id="linear-gradient-5" x1="14.56" y1="38.48" x2="21.96" y2="51.3" xlink:href="#linear-gradient-3"/><linearGradient id="top_white-5" x1="24.34" y1="39.81" x2="30.11" y2="39.81" xlink:href="#top_white"/><linearGradient id="top_white-6" x1="24.81" y1="40.19" x2="30.59" y2="40.19" xlink:href="#top_white"/><linearGradient id="linear-gradient-6" x1="27.4" y1="35.94" x2="33.73" y2="35.94" gradientTransform="translate(-9.25 18.84) rotate(-56.28)" xlink:href="#linear-gradient"/><linearGradient id="linear-gradient-7" x1="22.34" y1="35.04" x2="27.11" y2="41.45" gradientTransform="translate(-9.25 18.84) rotate(-56.28)" xlink:href="#linear-gradient"/></defs><title>aaavvv_A33AAe__R21XArtboard 1</title><g id="Layer_44_copy_3" data-name="Layer 44 copy 3"><g id="FL_2_copy_3" data-name="FL 2 copy 3"><path class="cls-1" d="M6.77,34.63a4.85,4.85,0,0,0,2.64,2.45c3.09,1.12,6.84-1.45,8.39-5.72s.3-8.64-2.78-9.76A5.58,5.58,0,0,0,9.56,23"/><path class="cls-2" d="M6.77,34.63a4.85,4.85,0,0,0,2.64,2.45c3.09,1.12,6.84-1.45,8.39-5.72s.3-8.64-2.78-9.76A5.58,5.58,0,0,0,9.56,23"/><path class="cls-3" d="M7.49,20.48a2.71,2.71,0,0,1,3,1.75c1,2.2.5,3.29.5,3.29l-5.69.3Z"/></g><g id="Layer_68_copy_3" data-name="Layer 68 copy 3"><path class="cls-4" d="M32.77,32.71l-4-1.86L25.86,32.4V29.47L22,27.61,11.19,32.76l0,14.57L22,51.7l10.77-4.43Zm-14,3.46v2.59a1.18,1.18,0,0,1-.85-1.23,3.93,3.93,0,0,1,2.23-3.14,1.55,1.55,0,0,1,2,.2Zm9,5-2.2-1h-.09v-.78c0-.64,1-1.23,1.68-1.54,1.07-.51,2-.1,2,.9A3.26,3.26,0,0,1,27.75,41.2Z"/><path class="cls-5" d="M15.13,34.56l10.28-4.85V41.78L15.14,46.93Zm4.83,4a3.93,3.93,0,0,0,2.23-3.14c0-1.15-1-1.62-2.24-1a3.93,3.93,0,0,0-2.23,3.14c0,1.16,1,1.62,2.24,1"/><polygon id="int_dessus" data-name="int dessus" class="cls-6" points="18.59 45.26 15.14 43.63 25.41 40.2 28.86 41.83 18.59 45.26"/><polygon class="cls-7" points="18.56 36.17 18.59 45.26 15.14 43.63 15.13 34.56 11.68 32.91 11.69 47.1 22 51.27 22.01 37.8 18.56 36.17"/><polygon id="dessus_1" data-name="dessus 1" class="cls-8" points="21.99 37.8 18.56 36.17 28.86 31.31 32.31 32.94 21.99 37.8"/><polygon id="dessus_2" data-name="dessus 2" class="cls-9" points="15.13 34.56 11.68 32.91 22.01 28.07 25.41 29.71 15.13 34.56"/><path class="cls-10" d="M22,37.8l10.32-4.86,0,14.12L22,51.27Zm5,3.72A3.42,3.42,0,0,0,29,38.78c0-1-.88-1.41-1.95-.9a3.4,3.4,0,0,0-1.93,2.73c0,1,.87,1.41,1.94.91"/><polygon class="cls-11" points="31.28 36.87 27.05 34.8 27.05 22.99 31.34 25.06 31.28 36.87"/><path class="cls-12" d="M28.41,32.75l-3.88-1.84a1.19,1.19,0,0,1,.64,1.14A3.86,3.86,0,0,1,23,35.13a1.83,1.83,0,0,1-1.56.12l3.88,1.84A1.84,1.84,0,0,0,26.87,37a3.85,3.85,0,0,0,2.18-3.07A1.18,1.18,0,0,0,28.41,32.75Z"/><path class="cls-13" d="M19.78,33.8l15-7.06,0,9.08-15,7.07ZM26.86,37A3.83,3.83,0,0,0,29,33.88c0-1.13-1-1.59-2.19-1a3.84,3.84,0,0,0-2.18,3.08c0,1.12,1,1.58,2.19,1"/><polygon class="cls-14" points="39.13 40.52 31.93 37.17 34.76 35.84 34.76 26.74 39.13 28.82 39.13 40.52"/><path id="_" data-name="**" class="cls-15" d="M39.13,28.8l9.5-4.49V36.12l-9.5,4.4Z"/><polygon class="cls-16" points="19.78 42.89 16.36 41.25 16.36 32.19 19.78 33.8 19.78 42.89"/><path id="cercle" class="cls-17" d="M26.79,37.14A3.92,3.92,0,0,0,29,34c0-1.15-1-1.62-2.24-1a4,4,0,0,0-2.23,3.14c0,1.16,1,1.62,2.24,1"/><path id="top" class="cls-18" d="M36.45,18.49,27,23l4.71,2.07-15,7.13,3,1.61,15-7.06,4.37,2.06,9.5-4.49Z"/><path class="cls-19" d="M16.36,32.19l3.42,1.61,15-7.06,4.38,2.06,9.5-4.49M19.78,42.89V33.8l-3.42-1.61M34.77,36V26.9"/><polyline class="cls-20" points="27.84 23.38 31.34 25.15 27.84 26.73"/><line class="cls-21" x1="39.13" y1="28.8" x2="39.13" y2="40.52"/><path id="contour" class="cls-22" d="M48.84,24.31,36.58,18.38v0L27.31,23v3.74L16.19,32v9.28l3.5,1.64,12.22-5.72,7.22,3.35,9.61-4.4ZM26.86,37c-1.21.57-2.19.11-2.19-1A4,4,0,0,1,27,32.86c.08,0,.34,0,.34-.08v2l1.3.7A4.4,4.4,0,0,1,26.86,37Z"/><path class="cls-4" d="M29,31.57,32.69,33l0,14.21"/><path class="cls-10" d="M22,37.8l10.32-4.86,0,14.12L22,51.27Zm5,4a3.93,3.93,0,0,0,2.23-3.14c0-1.16-1-1.62-2.24-1a3.92,3.92,0,0,0-2.23,3.14c0,1.15,1,1.62,2.24,1"/><polygon class="cls-23" points="18.56 36.17 18.59 45.28 11.69 47.1 22 51.27 22.02 37.8 18.56 36.17"/><polygon id="dessus_1_" data-name="dessus 1  *" class="cls-24" points="21.99 37.8 18.56 36.17 28.86 31.31 32.31 32.94 21.99 37.8"/><polygon class="cls-25" points="18.56 36.17 18.59 45.26 15.14 43.63 15.13 34.56 11.68 32.91 11.69 47.1 22 51.27 22.01 37.8 18.56 36.17"/><polyline class="cls-26" points="22 51.27 22.01 37.8 18.56 36.17 18.59 45.26 15.04 43.71 15.04 34.56 11.68 32.91"/><polyline id="dessus_1_2" data-name="dessus 1  *" class="cls-27" points="18.56 36.17 28.86 31.31 32.31 32.94"/><path class="cls-28" d="M27,41.79a3.93,3.93,0,0,0,2.23-3.14c0-1.16-1-1.62-2.24-1a3.92,3.92,0,0,0-2.23,3.14c0,1.15,1,1.62,2.24,1"/><path class="cls-29" d="M28.52,38.26c1.24-.58,2.24-.11,2.25,1a3.94,3.94,0,0,1-2.24,3.14c-1.23.58-2.24.12-2.24-1A3.93,3.93,0,0,1,28.52,38.26Z"/><path class="cls-30" d="M28.17,37.17a1.93,1.93,0,0,0-1.6.13,4,4,0,0,0-2.23,3.14A1.2,1.2,0,0,0,25,41.61l2,1a1.2,1.2,0,0,1-.65-1.17,3.93,3.93,0,0,1,2.23-3.14,1.9,1.9,0,0,1,1.59-.13Z"/><path class="cls-29" d="M29,38.64c1.24-.59,2.25-.12,2.25,1A4,4,0,0,1,29,42.83c-1.23.58-2.24.11-2.24-1A3.94,3.94,0,0,1,29,38.64Z"/><path class="cls-31" d="M28.64,37.55a1.89,1.89,0,0,0-1.6.13,4,4,0,0,0-2.23,3.14A1.19,1.19,0,0,0,25.47,42l1.94,1a1.2,1.2,0,0,1-.65-1.17A3.94,3.94,0,0,1,29,38.64a1.89,1.89,0,0,1,1.6-.13Z"/></g><g id="FL_1_copy_3" data-name="FL 1 copy 3"><line class="cls-1" x1="37.61" y1="10.11" x2="37.61" y2="16.61"/><line class="cls-32" x1="37.61" y1="10.11" x2="37.61" y2="16.61"/><path class="cls-33" d="M34,17.9a5.74,5.74,0,0,1,3.65-1.33,5.43,5.43,0,0,1,3.57,1.33l-3.47,4.4Z"/></g></g><g id="Layer_102_copy_2" data-name="Layer 102 copy 2"><path id="Eq_BLANC_" data-name="Eq  BLANC   ****" class="cls-34" d="M37.79,32.41V51.6A1.18,1.18,0,0,0,39,52.76l19,0"/><line id="linear_BLANC" data-name="linear BLANC" class="cls-35" x1="39.11" y1="51.73" x2="56.85" y2="36.1"/><path id="Equerre_NOIR" data-name="Equerre  NOIR" class="cls-36" d="M37.79,32.41V51.6A1.18,1.18,0,0,0,39,52.76h19"/><line class="cls-37" x1="39.11" y1="51.73" x2="56.84" y2="36.1"/></g></svg>