<svg id="Linear_Structural_Valid_R_copy_3" data-name="Linear_Structural_Valid_R copy 3" xmlns="http://www.w3.org/2000/svg" xmlns:xlink="http://www.w3.org/1999/xlink" viewBox="0 0 64 64"><defs><style>.cls-1,.cls-10,.cls-11,.cls-16,.cls-17,.cls-20,.cls-21,.cls-9{fill:none;}.cls-1,.cls-17{stroke:#797979;}.cls-1,.cls-10,.cls-11,.cls-16,.cls-17,.cls-20,.cls-21,.cls-7,.cls-9{stroke-linecap:round;}.cls-1,.cls-11,.cls-16,.cls-17,.cls-20,.cls-21,.cls-7,.cls-9{stroke-linejoin:round;}.cls-2{fill:#797979;}.cls-3{fill:url(#linear-gradient);}.cls-4{fill:url(#linear-gradient-2);}.cls-5{fill:url(#linear-gradient-3);}.cls-6{fill:url(#linear-gradient-4);}.cls-7{fill:#ff0;}.cls-16,.cls-7{stroke:#787878;}.cls-8{fill:url(#linear-gradient-5);}.cls-10,.cls-9{stroke:#000;}.cls-9{stroke-width:0.57px;}.cls-10{stroke-miterlimit:10;stroke-width:0.99px;}.cls-11{stroke:#323232;}.cls-12{fill:url(#white_front_right);}.cls-13{fill:url(#top_white);}.cls-14{fill:url(#top_white-2);}.cls-15{fill:url(#white_front_right-2);}.cls-17{stroke-width:0.28px;}.cls-18{fill:#fff;}.cls-19{fill:#2d2d2d;}.cls-20{stroke:#dc2800;}.cls-20,.cls-21{stroke-width:1.5px;}.cls-21{stroke:#46a523;}</style><linearGradient id="linear-gradient" x1="25.33" y1="25.73" x2="29.81" y2="25.73" gradientUnits="userSpaceOnUse"><stop offset="0.32" stop-color="red"/><stop offset="0.39" stop-color="#ff0500"/><stop offset="0.47" stop-color="#fe1500"/><stop offset="0.57" stop-color="#fc2f00"/><stop offset="0.67" stop-color="#fa5200"/><stop offset="0.77" stop-color="#f88000"/><stop offset="0.88" stop-color="#f5b900"/><stop offset="0.99" stop-color="#f1fa00"/><stop offset="1" stop-color="#f1ff00"/></linearGradient><linearGradient id="linear-gradient-2" x1="17.16" y1="33.51" x2="34.67" y2="33.51" gradientUnits="userSpaceOnUse"><stop offset="0" stop-color="#f1ff00"/><stop offset="0.07" stop-color="#f1fb00"/><stop offset="0.14" stop-color="#f2f000"/><stop offset="0.2" stop-color="#f3de00"/><stop offset="0.26" stop-color="#f4c400"/><stop offset="0.32" stop-color="#f6a300"/><stop offset="0.38" stop-color="#f87a00"/><stop offset="0.44" stop-color="#fb4a00"/><stop offset="0.5" stop-color="#fe1300"/><stop offset="0.52" stop-color="red"/></linearGradient><linearGradient id="linear-gradient-3" x1="29.48" y1="30.49" x2="38.47" y2="30.49" xlink:href="#linear-gradient"/><linearGradient id="linear-gradient-4" x1="37.21" y1="28.87" x2="47.27" y2="28.87" gradientUnits="userSpaceOnUse"><stop offset="0" stop-color="red"/><stop offset="0.03" stop-color="#ff0500"/><stop offset="0.06" stop-color="#fe1500"/><stop offset="0.1" stop-color="#fc2f00"/><stop offset="0.13" stop-color="#fa5200"/><stop offset="0.17" stop-color="#f88000"/><stop offset="0.22" stop-color="#f5b900"/><stop offset="0.26" stop-color="#f1fa00"/><stop offset="0.26" stop-color="#f1ff00"/><stop offset="0.34" stop-color="#dfee10"/><stop offset="0.51" stop-color="#aec438"/><stop offset="0.74" stop-color="#617e79"/><stop offset="1" stop-color="#0028ca"/></linearGradient><linearGradient id="linear-gradient-5" x1="23.28" y1="35.92" x2="37.37" y2="11.52" gradientUnits="userSpaceOnUse"><stop offset="0" stop-color="#f1ff00"/><stop offset="0.06" stop-color="#f1fc00"/><stop offset="0.1" stop-color="#f2f400"/><stop offset="0.13" stop-color="#f2e500"/><stop offset="0.16" stop-color="#f4d000"/><stop offset="0.19" stop-color="#f5b400"/><stop offset="0.22" stop-color="#f79300"/><stop offset="0.24" stop-color="#f96b00"/><stop offset="0.27" stop-color="#fc3d00"/><stop offset="0.29" stop-color="#fe0a00"/><stop offset="0.29" stop-color="red"/><stop offset="0.33" stop-color="#ff0500"/><stop offset="0.38" stop-color="#fe1500"/><stop offset="0.43" stop-color="#fc2f00"/><stop offset="0.48" stop-color="#fa5200"/><stop offset="0.54" stop-color="#f88000"/><stop offset="0.61" stop-color="#f5b900"/><stop offset="0.67" stop-color="#f1fa00"/><stop offset="0.67" stop-color="#f1ff00"/><stop offset="0.7" stop-color="#e7f609"/><stop offset="0.74" stop-color="#cbdd20"/><stop offset="0.79" stop-color="#9eb545"/><stop offset="0.86" stop-color="#607d7a"/><stop offset="0.93" stop-color="#1138bb"/><stop offset="0.94" stop-color="#0028ca"/></linearGradient><linearGradient id="white_front_right" x1="10.26" y1="36.67" x2="20.18" y2="53.86" gradientUnits="userSpaceOnUse"><stop offset="0" stop-color="#fff"/><stop offset="1" stop-color="#d2d2d2"/></linearGradient><linearGradient id="top_white" x1="22.21" y1="29.76" x2="24.36" y2="33.49" gradientUnits="userSpaceOnUse"><stop offset="0" stop-color="#fff"/><stop offset="1" stop-color="#f0f0f0"/></linearGradient><linearGradient id="top_white-2" x1="14" y1="25.64" x2="15.94" y2="28.99" xlink:href="#top_white"/><linearGradient id="white_front_right-2" x1="7.57" y1="41.9" x2="19.44" y2="41.9" xlink:href="#white_front_right"/></defs><title>848_A33AAe__R21XArtboard 1</title><g id="Layer_31_copy_7" data-name="Layer 31 copy 7"><path id="CONTOUR" class="cls-1" d="M31.14,29,19.6,22.41,7.85,29.53V48.81l11.57,5.46,11.64-5.66Z"/><g id="Layer_29_copy_8" data-name="Layer 29 copy 8"><path class="cls-2" d="M19.42,36.1l11.72-6.49-.07,19L19.44,54.29Z"/><polygon class="cls-3" points="29.81 34.85 25.33 32.1 25.33 16.6 29.81 19.17 29.81 34.85"/><path class="cls-4" d="M16,31.62,33.46,21.44v16.1L16,45.57Z"/><polygon class="cls-5" points="38.47 39.53 29.48 35.45 33.46 37.54 33.46 21.44 38.44 24.25 38.47 39.53"/><path id="_" data-name="**" class="cls-6" d="M38.44,24.25,48.5,18.2V33.87l-10,5.66Z"/><polygon id="_220_40_0" data-name="220 40 0" class="cls-7" points="15.95 46.03 12.02 43.94 12.04 29.43 15.95 31.62 15.95 46.03"/><path class="cls-8" d="M35.47,10.42,25.33,16.6l4.48,2.57L12,29.43,16,31.62,33.46,21.44l5,2.81L48.5,18.2Z"/></g><path class="cls-9" d="M12,29.43,16,31.64l17.51-10.2,5,2.81L48.5,18.2M16,34V31.64L12,29.43m18,9.82,3.4-2V21.44m-7.8.28,4.25-2.5L25.33,16.6"/><path class="cls-10" d="M22.06,45.48m16.41-5.95,0-15.14"/><path id="contour-2" data-name="contour" class="cls-11" d="M29.9,39.13l3.45-1.92,5.12,2.32,10-5.66V18.2l-13-7.78h0L25.33,16.6v5.16L12,29.43v2.22"/><g id="Layer_27_copy_7" data-name="Layer 27 copy 7"><path class="cls-1" d="M27.22,27.66l3.8,2,0,19"/><path class="cls-2" d="M19.42,36.1,31,29.64l0,19L19.44,54.27Z"/><polygon class="cls-12" points="15.55 33.61 15.54 45.78 7.59 48.49 19.44 54.29 19.42 36.1 15.55 33.61"/><polygon id="dessus_1_" data-name="dessus 1  *" class="cls-13" points="19.42 36.1 15.55 33.61 26.92 27.5 31.02 29.64 19.42 36.1"/><polygon id="dessus_1_2" data-name="dessus 1  *" class="cls-14" points="11.53 29.17 11.52 31.54 7.57 29.52 19.6 22.41 21.41 23.44 11.53 29.17"/><polygon class="cls-15" points="7.57 29.52 11.62 31.73 11.58 43.73 15.54 45.78 15.55 33.61 19.42 36.1 19.44 54.29 7.59 48.49 7.57 29.52"/><polygon class="cls-16" points="7.57 29.52 11.62 31.73 11.58 43.73 15.54 45.78 15.55 33.61 19.42 36.1 19.44 54.29 7.59 48.49 7.57 29.52"/><polyline id="dessus_1_3" data-name="dessus 1  *" class="cls-17" points="15.55 33.61 26.92 27.5 31.02 29.64"/></g></g><g id="CHECK_ok_copy_5" data-name="CHECK   ok *** copy 5"><rect class="cls-18" x="45.5" y="24.5" width="9" height="10" rx="1.33"/><path class="cls-19" d="M53.17,25a.83.83,0,0,1,.83.83v7.34a.83.83,0,0,1-.83.83H46.83a.83.83,0,0,1-.83-.83V25.83a.83.83,0,0,1,.83-.83h6.34m0-1H46.83A1.83,1.83,0,0,0,45,25.83v7.34A1.83,1.83,0,0,0,46.83,35h6.34A1.83,1.83,0,0,0,55,33.17V25.83A1.83,1.83,0,0,0,53.17,24Z"/><rect class="cls-18" x="45.5" y="12.5" width="9" height="10" rx="1.33"/><path class="cls-19" d="M53.17,13a.83.83,0,0,1,.83.83v7.34a.83.83,0,0,1-.83.83H46.83a.83.83,0,0,1-.83-.83V13.83a.83.83,0,0,1,.83-.83h6.34m0-1H46.83A1.83,1.83,0,0,0,45,13.83v7.34A1.83,1.83,0,0,0,46.83,23h6.34A1.83,1.83,0,0,0,55,21.17V13.83A1.83,1.83,0,0,0,53.17,12Z"/><rect class="cls-18" x="45.5" y="36.5" width="9" height="10" rx="1.33"/><path class="cls-19" d="M53.17,37a.83.83,0,0,1,.83.83v7.34a.83.83,0,0,1-.83.83H46.83a.83.83,0,0,1-.83-.83V37.83a.83.83,0,0,1,.83-.83h6.34m0-1H46.83A1.83,1.83,0,0,0,45,37.83v7.34A1.83,1.83,0,0,0,46.83,47h6.34A1.83,1.83,0,0,0,55,45.17V37.83A1.83,1.83,0,0,0,53.17,36Z"/><line class="cls-20" x1="48.06" y1="27.35" x2="52.38" y2="31.67"/><line class="cls-20" x1="52.38" y1="27.35" x2="48.06" y2="31.67"/><polyline class="cls-21" points="48.06 16.57 50.74 19.44 55.63 14.37"/></g></svg>