<?xml version="1.0" encoding="iso-8859-1"?>
<!-- Generator: Adobe Illustrator 23.1.0, SVG Export Plug-In . SVG Version: 6.00 Build 0)  -->
<svg version="1.1" xmlns="http://www.w3.org/2000/svg" xmlns:xlink="http://www.w3.org/1999/xlink" x="0px" y="0px"
	 viewBox="0 0 64 64" style="enable-background:new 0 0 64 64;" xml:space="preserve">
<pattern  width="20" height="20" patternUnits="userSpaceOnUse" id="New_Pattern_Swatch_2" viewBox="22.121 -42.121 20 20" style="overflow:visible;">
	<g>
		<rect x="22.121" y="-42.121" style="fill:none;" width="20" height="20"/>
		
			<rect x="49.121" y="-26.263" transform="matrix(0.7071 -0.7071 0.7071 0.7071 23.837 33.3051)" style="fill:#844138;" width="6" height="28.284"/>
		
			<rect x="29.121" y="-26.263" transform="matrix(0.7071 -0.7071 0.7071 0.7071 17.9792 19.163)" style="fill:#844138;" width="6" height="28.284"/>
		
			<rect x="9.121" y="-26.263" transform="matrix(0.7071 -0.7071 0.7071 0.7071 12.1213 5.0208)" style="fill:#844138;" width="6" height="28.284"/>
		
			<rect x="49.121" y="-46.263" transform="matrix(0.7071 -0.7071 0.7071 0.7071 37.9792 27.4472)" style="fill:#844138;" width="6" height="28.284"/>
		
			<rect x="29.121" y="-46.263" transform="matrix(0.7071 -0.7071 0.7071 0.7071 32.1213 13.3051)" style="fill:#844138;" width="6" height="28.284"/>
		
			<rect x="9.121" y="-46.263" transform="matrix(0.7071 -0.7071 0.7071 0.7071 26.2635 -0.837)" style="fill:#844138;" width="6" height="28.284"/>
		
			<rect x="49.121" y="-66.263" transform="matrix(0.7071 -0.7071 0.7071 0.7071 52.1213 21.5894)" style="fill:#844138;" width="6" height="28.284"/>
		
			<rect x="29.121" y="-66.263" transform="matrix(0.7071 -0.7071 0.7071 0.7071 46.2635 7.4472)" style="fill:#844138;" width="6" height="28.284"/>
		
			<rect x="9.121" y="-66.263" transform="matrix(0.7071 -0.7071 0.7071 0.7071 40.4056 -6.6949)" style="fill:#844138;" width="6" height="28.284"/>
	</g>
</pattern>
<g id="Layer_1" style="display:none;">
</g>
<g id="info_r2021x" style="display:none;">
	<g id="pedestal_r2021x" style="display:inline;">
		<path style="opacity:0.5;fill:#FFFFFF;" d="M63.002,64h-62c-0.552,0-1-0.448-1-1V1c0-0.552,0.448-1,1-1h62c0.552,0,1,0.448,1,1v62
			C64.002,63.552,63.554,64,63.002,64z"/>
		<rect x="1.002" y="1" style="fill:#F4F5F6;" width="62" height="62"/>
		<rect x="1.002" y="1" style="fill:#D1D4D4;" width="2" height="62"/>
	</g>
	<g id="no-go_zone_1_" style="display:inline;opacity:0.3;">
		<path style="fill:url(#New_Pattern_Swatch_2);" d="M0,0v64h64V0H0z M57,57H7V7h50V57z"/>
	</g>
	<g style="display:inline;">
		<path style="fill:#EA4F37;" d="M57,7v50H7V7H57 M58,6h-1H7H6v1v50v1h1h50h1v-1V7V6L58,6z"/>
	</g>
</g>
<g id="Notes" style="display:none;">
</g>
<g id="vector_references" style="display:none;">
</g>
<g id="PNG_references" style="display:none;">
	
		<image style="display:inline;overflow:visible;" width="64" height="64" xlink:href="C:\Users\duc\Desktop\temp\SIMMAN_AP_AppIcon.png" >
	</image>
</g>
<g id="Work" style="display:none;">
	<g style="display:inline;">
		<linearGradient id="SVGID_1_" gradientUnits="userSpaceOnUse" x1="15.358" y1="11.9432" x2="26.7218" y2="31.6259">
			<stop  offset="0" style="stop-color:#F5F6F6"/>
			<stop  offset="0.9921" style="stop-color:#D2D3D3"/>
		</linearGradient>
		
			<polygon style="fill:url(#SVGID_1_);stroke:#333332;stroke-width:0.9957;stroke-linecap:round;stroke-linejoin:round;stroke-miterlimit:1;" points="
			9.542,12.038 32.542,8.018 32.542,30.308 9.542,35.558 		"/>
		<polyline style="fill:none;stroke:#161616;stroke-width:0.9957;stroke-miterlimit:10;" points="20.661,15.076 20.661,26.499 
			12.806,28.192 		"/>
		<linearGradient id="SVGID_2_" gradientUnits="userSpaceOnUse" x1="16.1995" y1="30.6517" x2="12.8598" y2="24.8672">
			<stop  offset="0" style="stop-color:#386F8D"/>
			<stop  offset="1" style="stop-color:#8DD7F4"/>
		</linearGradient>
		
			<polygon style="fill:url(#SVGID_2_);stroke:#053755;stroke-width:0.9957;stroke-linecap:round;stroke-linejoin:round;stroke-miterlimit:1;" points="
			12.592,25.958 16.543,25.112 16.543,29.562 12.592,30.538 		"/>
		
			<line style="fill:none;stroke:#161616;stroke-width:0.9957;stroke-miterlimit:10;" x1="12.806" y1="16.671" x2="28.859" y2="13.268"/>
		<linearGradient id="SVGID_3_" gradientUnits="userSpaceOnUse" x1="16.1995" y1="19.4979" x2="12.8598" y2="13.7134">
			<stop  offset="0" style="stop-color:#386F8D"/>
			<stop  offset="1" style="stop-color:#8DD7F4"/>
		</linearGradient>
		
			<polygon style="fill:url(#SVGID_3_);stroke:#053755;stroke-width:0.9957;stroke-linecap:round;stroke-linejoin:round;stroke-miterlimit:1;" points="
			12.592,14.804 16.543,13.958 16.543,18.408 12.592,19.384 		"/>
	</g>
	<g style="display:inline;">
		<linearGradient id="SVGID_4_" gradientUnits="userSpaceOnUse" x1="48.0329" y1="16.4329" x2="51.8183" y2="22.9894">
			<stop  offset="0" style="stop-color:#ABABAB"/>
			<stop  offset="1" style="stop-color:#5B5B5B"/>
		</linearGradient>
		
			<circle style="fill:url(#SVGID_4_);stroke:#333332;stroke-linecap:round;stroke-linejoin:round;stroke-miterlimit:1;" cx="50.126" cy="20.058" r="4.5"/>
		<linearGradient id="SVGID_5_" gradientUnits="userSpaceOnUse" x1="50.3412" y1="17.4669" x2="54.085" y2="23.9514">
			<stop  offset="0" style="stop-color:#F5F6F6"/>
			<stop  offset="0.9921" style="stop-color:#D2D3D3"/>
		</linearGradient>
		
			<circle style="fill:url(#SVGID_5_);stroke:#333332;stroke-linecap:round;stroke-linejoin:round;stroke-miterlimit:1;" cx="52.126" cy="20.558" r="4.5"/>
	</g>
	
		<radialGradient id="SVGID_6_" cx="26.4679" cy="41.1579" r="4.9882" gradientTransform="matrix(1.0272 0 0 0.9325 -0.3946 3.3531)" gradientUnits="userSpaceOnUse">
		<stop  offset="0" style="stop-color:#8DD7F4"/>
		<stop  offset="1" style="stop-color:#386F8D"/>
	</radialGradient>
	
		<path style="display:inline;fill:url(#SVGID_6_);stroke:#053755;stroke-width:0.9787;stroke-linecap:round;stroke-linejoin:round;stroke-miterlimit:1;" d="
		M28.045,45.058c2.38,0,4.357-0.52,5.542-1.421c0-1.973-2.816-3.579-5.542-3.579s-5.458,1.571-5.458,3.533
		C23.772,44.492,25.665,45.058,28.045,45.058z"/>
	
		<line style="display:inline;fill:none;stroke:#323232;stroke-width:2;stroke-linecap:round;stroke-miterlimit:10;" x1="28.087" y1="37.058" x2="28.087" y2="41.058"/>
	<g style="display:inline;">
		<g>
			<g>
				
					<linearGradient id="SVGID_7_" gradientUnits="userSpaceOnUse" x1="-50.1351" y1="37.2661" x2="-53.4047" y2="31.6029" gradientTransform="matrix(1 0 0 1 80.0713 0.2806)">
					<stop  offset="0" style="stop-color:#2A5B79"/>
					<stop  offset="1" style="stop-color:#84BEDC"/>
				</linearGradient>
				<path style="fill:url(#SVGID_7_);" d="M28.087,35.079c-2.485,0-4.5-0.757-4.5-2v2.5h0.05c0.252,1.123,2.136,2,4.45,2
					s4.198-0.877,4.45-2h0.05v-2.5C32.587,34.322,30.572,35.079,28.087,35.079z"/>
			</g>
			
				<linearGradient id="SVGID_8_" gradientUnits="userSpaceOnUse" x1="-50.1351" y1="37.2661" x2="-53.4047" y2="31.6029" gradientTransform="matrix(1 0 0 1 80.0713 0.2806)">
				<stop  offset="0" style="stop-color:#2A5B79"/>
				<stop  offset="1" style="stop-color:#84BEDC"/>
			</linearGradient>
			<ellipse style="fill:url(#SVGID_8_);" cx="28.087" cy="33.329" rx="4.5" ry="1.75"/>
		</g>
		<g>
			<g>
				<linearGradient id="SVGID_9_" gradientUnits="userSpaceOnUse" x1="30.5404" y1="38.5931" x2="25.8445" y2="30.4595">
					<stop  offset="0" style="stop-color:#386F8D"/>
					<stop  offset="1" style="stop-color:#8DD7F4"/>
				</linearGradient>
				<path style="fill:url(#SVGID_9_);stroke:#053755;stroke-linecap:round;stroke-linejoin:round;stroke-miterlimit:1;" d="
					M28.087,35.079c-2.485,0-4.5-0.757-4.5-2v2.5h0.05c0.252,1.123,2.136,2,4.45,2s4.198-0.877,4.45-2h0.05v-2.5
					C32.587,34.322,30.572,35.079,28.087,35.079z"/>
			</g>
			<linearGradient id="SVGID_10_" gradientUnits="userSpaceOnUse" x1="29.3231" y1="35.4696" x2="27.0447" y2="31.5234">
				<stop  offset="0" style="stop-color:#74C4E2"/>
				<stop  offset="1" style="stop-color:#A4DEF6"/>
			</linearGradient>
			
				<ellipse style="fill:url(#SVGID_10_);stroke:#053755;stroke-linecap:round;stroke-linejoin:round;stroke-miterlimit:1;" cx="28.087" cy="33.329" rx="4.5" ry="1.75"/>
		</g>
		<g>
			<g>
				<path style="fill:none;stroke:#053755;stroke-linecap:round;stroke-linejoin:round;stroke-miterlimit:1;" d="M28.087,35.079
					c-2.485,0-4.5-0.757-4.5-2v2.5h0.05c0.252,1.123,2.136,2,4.45,2s4.198-0.877,4.45-2h0.05v-2.5
					C32.587,34.322,30.572,35.079,28.087,35.079z"/>
			</g>
			
				<ellipse style="fill:none;stroke:#053755;stroke-linecap:round;stroke-linejoin:round;stroke-miterlimit:1;" cx="28.087" cy="33.329" rx="4.5" ry="1.75"/>
		</g>
	</g>
	<linearGradient id="SVGID_11_" gradientUnits="userSpaceOnUse" x1="25.268" y1="26.8083" x2="30.7574" y2="26.8083">
		<stop  offset="0" style="stop-color:#D2D3D3"/>
		<stop  offset="0.4186" style="stop-color:#F5F6F6"/>
		<stop  offset="0.9921" style="stop-color:#999999"/>
	</linearGradient>
	
		<path style="display:inline;fill:url(#SVGID_11_);stroke:#333332;stroke-linecap:round;stroke-linejoin:round;stroke-miterlimit:1;" d="
		M24.587,19.558v13c0,0.828,1.567,1.5,3.5,1.5s3.5-0.672,3.5-1.5v-13H24.587z"/>
	<g style="display:inline;">
		<g>
			<linearGradient id="SVGID_12_" gradientUnits="userSpaceOnUse" x1="30.5404" y1="22.0725" x2="25.8445" y2="13.9389">
				<stop  offset="0" style="stop-color:#386F8D"/>
				<stop  offset="1" style="stop-color:#8DD7F4"/>
			</linearGradient>
			<path style="fill:url(#SVGID_12_);stroke:#053755;stroke-linecap:round;stroke-linejoin:round;stroke-miterlimit:1;" d="
				M28.087,18.558c-2.485,0-4.5-0.757-4.5-2v2.5h0.05c0.252,1.123,2.136,2,4.45,2s4.198-0.877,4.45-2h0.05v-2.5
				C32.587,17.801,30.572,18.558,28.087,18.558z"/>
		</g>
		<linearGradient id="SVGID_13_" gradientUnits="userSpaceOnUse" x1="29.3231" y1="18.9489" x2="27.0447" y2="15.0027">
			<stop  offset="0" style="stop-color:#74C4E2"/>
			<stop  offset="1" style="stop-color:#A4DEF6"/>
		</linearGradient>
		
			<ellipse style="fill:url(#SVGID_13_);stroke:#053755;stroke-linecap:round;stroke-linejoin:round;stroke-miterlimit:1;" cx="28.087" cy="16.808" rx="4.5" ry="1.75"/>
	</g>
	
		<line style="display:inline;fill:none;stroke:#323232;stroke-width:2;stroke-linecap:round;stroke-miterlimit:10;" x1="28.087" y1="12.558" x2="28.087" y2="16.058"/>
	<linearGradient id="SVGID_14_" gradientUnits="userSpaceOnUse" x1="42.9605" y1="13.6631" x2="35.0095" y2="-0.1084">
		<stop  offset="0" style="stop-color:#74C4E2"/>
		<stop  offset="1" style="stop-color:#A4DEF6"/>
	</linearGradient>
	
		<path style="display:inline;fill:url(#SVGID_14_);stroke:#053755;stroke-linecap:round;stroke-linejoin:round;stroke-miterlimit:1;" d="
		M22.542,4.558l23.5-3.5c0,0,6-0.5,8.343,3.5c3.237,5.525-0.5,1-0.5,1s-6-3.5-13-0.5s-17.843,3-17.843,3L22.542,4.558z"/>
	<linearGradient id="SVGID_15_" gradientUnits="userSpaceOnUse" x1="47.3064" y1="16.536" x2="52.6667" y2="7.4235">
		<stop  offset="0" style="stop-color:#2A5B79"/>
		<stop  offset="0.4637" style="stop-color:#68A0BE"/>
		<stop  offset="1" style="stop-color:#2A5B79"/>
	</linearGradient>
	
		<path style="display:inline;fill:url(#SVGID_15_);stroke:#053755;stroke-width:1.268;stroke-linecap:round;stroke-linejoin:round;stroke-miterlimit:1;" d="
		M51.323,5.871c-0.473-0.181-0.956-0.288-1.438-0.341c1.166,1.309,1.53,3.409,0.768,5.405c-1.028,2.693-3.708,4.17-5.987,3.301
		c-0.529-0.202-0.982-0.522-1.366-0.914c0.47,1.826,1.755,3.391,3.613,4.1c3.093,1.181,6.587-0.448,7.805-3.637
		S54.416,7.051,51.323,5.871z"/>
	<linearGradient id="SVGID_16_" gradientUnits="userSpaceOnUse" x1="49.0046" y1="24.0431" x2="36.6134" y2="2.581">
		<stop  offset="0" style="stop-color:#386F8D"/>
		<stop  offset="1" style="stop-color:#8DD7F4"/>
	</linearGradient>
	
		<path style="display:inline;fill:url(#SVGID_16_);stroke:#053755;stroke-linecap:round;stroke-linejoin:round;stroke-miterlimit:1;" d="
		M58.542,13.941c-1-11.382-10-10.5-10-10.5l-23,3v6.618l9-1.118c0,0,8,7.5,11.5,7s5.5,2,6,2.5S59.462,24.412,58.542,13.941z
		 M52.675,13.209c-1.017,2.664-3.586,4.158-5.737,3.337c-2.152-0.821-3.072-3.647-2.055-6.311c1.017-2.664,3.586-4.158,5.737-3.337
		C52.772,7.719,53.692,10.544,52.675,13.209z"/>
	<linearGradient id="SVGID_17_" gradientUnits="userSpaceOnUse" x1="26.2921" y1="12.4559" x2="22.3837" y2="5.6862">
		<stop  offset="0" style="stop-color:#2A5B79"/>
		<stop  offset="1" style="stop-color:#84BEDC"/>
	</linearGradient>
	
		<polygon style="display:inline;fill:url(#SVGID_17_);stroke:#053755;stroke-linecap:round;stroke-linejoin:round;stroke-miterlimit:1;" points="
		25.542,6.558 22.542,4.558 22.542,10.558 25.542,13.058 	"/>
	<g style="display:inline;">
		<g>
			<circle style="fill:#FFFFFF;" cx="54.626" cy="18.058" r="0.5"/>
			<path style="fill:#003755;" d="M54.626,17.058c-0.552,0-1,0.448-1,1s0.448,1,1,1s1-0.448,1-1S55.178,17.058,54.626,17.058
				L54.626,17.058z"/>
		</g>
		<g>
			<circle style="fill:#FFFFFF;" cx="54.626" cy="18.058" r="0.5"/>
		</g>
	</g>
	<defs>
		<filter id="Adobe_OpacityMaskFilter" filterUnits="userSpaceOnUse" x="23.941" y="23.329" width="8" height="2.25">
			<feColorMatrix  type="matrix" values="1 0 0 0 0  0 1 0 0 0  0 0 1 0 0  0 0 0 1 0"/>
		</filter>
	</defs>
	<mask maskUnits="userSpaceOnUse" x="23.941" y="23.329" width="8" height="2.25" id="SVGID_18_" style="display:inline;">
		<g style="filter:url(#Adobe_OpacityMaskFilter);">
			<linearGradient id="SVGID_19_" gradientUnits="userSpaceOnUse" x1="28.8446" y1="23.9767" x2="24.2998" y2="23.9355">
				<stop  offset="0" style="stop-color:#FFFFFF"/>
				<stop  offset="1" style="stop-color:#000000"/>
			</linearGradient>
			<rect x="23.736" y="21.895" style="fill:url(#SVGID_19_);" width="9.11" height="4.154"/>
		</g>
	</mask>
	<path style="display:inline;mask:url(#SVGID_18_);fill:#333332;" d="M27.941,24.579c-1.858,0-3-0.729-3-1.25h-1
		c0,1.282,1.72,2.25,4,2.25s4-0.968,4-2.25h-1C30.941,23.85,29.8,24.579,27.941,24.579z"/>
	<defs>
		<filter id="Adobe_OpacityMaskFilter_1_" filterUnits="userSpaceOnUse" x="23.941" y="20.329" width="8" height="2.25">
			<feColorMatrix  type="matrix" values="1 0 0 0 0  0 1 0 0 0  0 0 1 0 0  0 0 0 1 0"/>
		</filter>
	</defs>
	<mask maskUnits="userSpaceOnUse" x="23.941" y="20.329" width="8" height="2.25" id="SVGID_20_" style="display:inline;">
		<g style="filter:url(#Adobe_OpacityMaskFilter_1_);">
			<linearGradient id="SVGID_21_" gradientUnits="userSpaceOnUse" x1="28.8446" y1="20.9766" x2="24.2998" y2="20.9355">
				<stop  offset="0" style="stop-color:#FFFFFF"/>
				<stop  offset="1" style="stop-color:#000000"/>
			</linearGradient>
			<rect x="23.736" y="18.895" style="fill:url(#SVGID_21_);" width="9.11" height="4.154"/>
		</g>
	</mask>
	<path style="display:inline;mask:url(#SVGID_20_);fill:#333332;" d="M27.941,21.579c-1.858,0-3-0.729-3-1.25h-1
		c0,1.282,1.72,2.25,4,2.25s4-0.968,4-2.25h-1C30.941,20.85,29.8,21.579,27.941,21.579z"/>
	<defs>
		<filter id="Adobe_OpacityMaskFilter_2_" filterUnits="userSpaceOnUse" x="23.941" y="26.329" width="8" height="2.25">
			<feColorMatrix  type="matrix" values="1 0 0 0 0  0 1 0 0 0  0 0 1 0 0  0 0 0 1 0"/>
		</filter>
	</defs>
	<mask maskUnits="userSpaceOnUse" x="23.941" y="26.329" width="8" height="2.25" id="SVGID_22_" style="display:inline;">
		<g style="filter:url(#Adobe_OpacityMaskFilter_2_);">
			<linearGradient id="SVGID_23_" gradientUnits="userSpaceOnUse" x1="28.8446" y1="26.9767" x2="24.2998" y2="26.9355">
				<stop  offset="0" style="stop-color:#FFFFFF"/>
				<stop  offset="1" style="stop-color:#000000"/>
			</linearGradient>
			<rect x="23.736" y="24.895" style="fill:url(#SVGID_23_);" width="9.11" height="4.154"/>
		</g>
	</mask>
	<path style="display:inline;mask:url(#SVGID_22_);fill:#333332;" d="M27.941,27.579c-1.858,0-3-0.729-3-1.25h-1
		c0,1.282,1.72,2.25,4,2.25s4-0.968,4-2.25h-1C30.941,26.85,29.8,27.579,27.941,27.579z"/>
	<defs>
		<filter id="Adobe_OpacityMaskFilter_3_" filterUnits="userSpaceOnUse" x="23.941" y="29.329" width="8" height="2.25">
			<feColorMatrix  type="matrix" values="1 0 0 0 0  0 1 0 0 0  0 0 1 0 0  0 0 0 1 0"/>
		</filter>
	</defs>
	<mask maskUnits="userSpaceOnUse" x="23.941" y="29.329" width="8" height="2.25" id="SVGID_24_" style="display:inline;">
		<g style="filter:url(#Adobe_OpacityMaskFilter_3_);">
			<linearGradient id="SVGID_25_" gradientUnits="userSpaceOnUse" x1="28.8446" y1="29.9767" x2="24.2998" y2="29.9356">
				<stop  offset="0" style="stop-color:#FFFFFF"/>
				<stop  offset="1" style="stop-color:#000000"/>
			</linearGradient>
			<rect x="23.736" y="27.895" style="fill:url(#SVGID_25_);" width="9.11" height="4.154"/>
		</g>
	</mask>
	<path style="display:inline;mask:url(#SVGID_24_);fill:#333332;" d="M27.941,30.579c-1.858,0-3-0.729-3-1.25h-1
		c0,1.282,1.72,2.25,4,2.25s4-0.968,4-2.25h-1C30.941,29.85,29.8,30.579,27.941,30.579z"/>
	<g style="display:inline;">
		<linearGradient id="SVGID_26_" gradientUnits="userSpaceOnUse" x1="49.1066" y1="37.6369" x2="43.551" y2="28.0142">
			<stop  offset="0" style="stop-color:#2A5B79"/>
			<stop  offset="1" style="stop-color:#84BEDC"/>
		</linearGradient>
		
			<path style="fill:url(#SVGID_26_);stroke:#053755;stroke-width:1.0914;stroke-linecap:round;stroke-linejoin:round;stroke-miterlimit:1;" d="
			M50.551,26.315c-0.425-1.257-1.771-2.263-3.45-1.757c-2.128,0.641-7.475,7.15-7.475,9.321c0,2.86,2.574,5.179,5.75,5.179
			c3.176,0,5.75-2.319,5.75-5.179C51.126,32.7,50.761,26.937,50.551,26.315z"/>
		<linearGradient id="SVGID_27_" gradientUnits="userSpaceOnUse" x1="51.1725" y1="40.3267" x2="43.2344" y2="26.5777">
			<stop  offset="0" style="stop-color:#386F8D"/>
			<stop  offset="1" style="stop-color:#8DD7F4"/>
		</linearGradient>
		<path style="fill:url(#SVGID_27_);stroke:#053755;stroke-linecap:round;stroke-linejoin:round;stroke-miterlimit:1;" d="
			M51.126,27.755c-0.617-1.696-1.906-1.935-3-1.696c-1.889,0.412-6.5,6.904-6.5,9c0,2.761,2.239,5,5,5s5-2.239,5-5
			C51.626,33.92,51.336,28.332,51.126,27.755z"/>
	</g>
	<g style="display:inline;">
		<linearGradient id="SVGID_28_" gradientUnits="userSpaceOnUse" x1="49.3572" y1="31.9694" x2="45.7681" y2="36.3244">
			<stop  offset="0" style="stop-color:#D2D3D3"/>
			<stop  offset="0.2801" style="stop-color:#F5F6F6"/>
			<stop  offset="0.4369" style="stop-color:#EFF0F0"/>
			<stop  offset="0.6428" style="stop-color:#DFE0E0"/>
			<stop  offset="0.875" style="stop-color:#C4C5C5"/>
			<stop  offset="1" style="stop-color:#B3B3B3"/>
		</linearGradient>
		
			<path style="fill:url(#SVGID_28_);stroke:#333332;stroke-width:1.0109;stroke-linecap:round;stroke-linejoin:round;stroke-miterlimit:1;" d="
			M49.065,30.638c-0.153-0.137-0.322-0.258-0.509-0.357c-1.464-0.777-3.401,0.008-4.326,1.753c-0.833,1.57-0.556,3.374,0.573,4.287
			l3.642,3.046l4.304-5.461L49.065,30.638z"/>
		
			<linearGradient id="SVGID_29_" gradientUnits="userSpaceOnUse" x1="44.6281" y1="30.8805" x2="47.4419" y2="35.7541" gradientTransform="matrix(0.8833 0.4687 -0.4687 0.8833 25.4645 -14.3191)">
			<stop  offset="0" style="stop-color:#F5F6F6"/>
			<stop  offset="0.9921" style="stop-color:#D2D3D3"/>
		</linearGradient>
		<path style="fill:url(#SVGID_29_);stroke:#333332;stroke-linecap:round;stroke-linejoin:round;stroke-miterlimit:1;" d="
			M53.158,37.964c-0.906,1.708-2.827,2.462-4.291,1.686c-1.464-0.777-1.916-2.79-1.01-4.498c0.906-1.708,2.827-2.462,4.291-1.686
			C53.613,34.243,54.065,36.257,53.158,37.964z"/>
	</g>
	<g style="display:inline;">
		<linearGradient id="SVGID_30_" gradientUnits="userSpaceOnUse" x1="27.0579" y1="1.4611" x2="28.9783" y2="4.7873">
			<stop  offset="0" style="stop-color:#E6E6E6"/>
			<stop  offset="1" style="stop-color:#B3B3B3"/>
		</linearGradient>
		
			<path style="fill:url(#SVGID_30_);stroke:#333332;stroke-width:1.1318;stroke-linecap:round;stroke-linejoin:round;stroke-miterlimit:1;" d="
			M30.58,2.161c-0.307,0-0.28-0.257-0.623-0.257l-3.739,0.06c-0.343,0-0.423-0.003-0.623,0.197v1.923c0,0.025,0,0.113,0,0.136
			c0,0.531,1.116,0.961,2.492,0.961c0.001,0,0.002,0,0.003,0c0.001,0,0.002,0,0.003,0c1.373,0,2.486-0.426,2.486-0.95
			c0-0.002-0.001-0.003-0.001-0.005c0-0.002,0.001-0.004,0.001-0.005c0-0.023,0-0.111,0-0.136V2.161z"/>
		<linearGradient id="SVGID_31_" gradientUnits="userSpaceOnUse" x1="27.3858" y1="0.9464" x2="28.6542" y2="3.1433">
			<stop  offset="0" style="stop-color:#E6E6E6"/>
			<stop  offset="1" style="stop-color:#CCCCCC"/>
		</linearGradient>
		
			<ellipse style="fill:url(#SVGID_31_);stroke:#333332;stroke-width:1.1318;stroke-linecap:round;stroke-linejoin:round;stroke-miterlimit:1;" cx="28.087" cy="2.161" rx="2.492" ry="0.98"/>
	</g>
</g>
<g id="Work_copy">
	<g>
		<linearGradient id="SVGID_32_" gradientUnits="userSpaceOnUse" x1="13.2707" y1="21.4536" x2="24.6345" y2="41.1362">
			<stop  offset="0" style="stop-color:#F5F6F6"/>
			<stop  offset="0.9921" style="stop-color:#D2D3D3"/>
		</linearGradient>
		
			<polygon style="fill:url(#SVGID_32_);stroke:#333332;stroke-width:0.9957;stroke-linecap:round;stroke-linejoin:round;stroke-miterlimit:1;" points="
			7.455,21.548 30.455,17.528 30.455,39.819 7.455,45.069 		"/>
		<polyline style="fill:none;stroke:#161616;stroke-width:0.9957;stroke-miterlimit:10;" points="18.573,24.587 18.573,36.01 
			10.719,37.702 		"/>
		<linearGradient id="SVGID_33_" gradientUnits="userSpaceOnUse" x1="14.1122" y1="40.1621" x2="10.7725" y2="34.3776">
			<stop  offset="0" style="stop-color:#386F8D"/>
			<stop  offset="1" style="stop-color:#8DD7F4"/>
		</linearGradient>
		
			<polygon style="fill:url(#SVGID_33_);stroke:#053755;stroke-width:0.9957;stroke-linecap:round;stroke-linejoin:round;stroke-miterlimit:1;" points="
			10.505,35.468 14.455,34.622 14.455,39.072 10.505,40.048 		"/>
		
			<line style="fill:none;stroke:#161616;stroke-width:0.9957;stroke-miterlimit:10;" x1="10.719" y1="26.181" x2="26.771" y2="22.779"/>
		<linearGradient id="SVGID_34_" gradientUnits="userSpaceOnUse" x1="14.1122" y1="29.0082" x2="10.7725" y2="23.2237">
			<stop  offset="0" style="stop-color:#386F8D"/>
			<stop  offset="1" style="stop-color:#8DD7F4"/>
		</linearGradient>
		
			<polygon style="fill:url(#SVGID_34_);stroke:#053755;stroke-width:0.9957;stroke-linecap:round;stroke-linejoin:round;stroke-miterlimit:1;" points="
			10.505,24.314 14.455,23.468 14.455,27.919 10.505,28.894 		"/>
	</g>
	<g>
		<linearGradient id="SVGID_35_" gradientUnits="userSpaceOnUse" x1="45.9455" y1="25.9432" x2="49.7309" y2="32.4997">
			<stop  offset="0" style="stop-color:#ABABAB"/>
			<stop  offset="1" style="stop-color:#5B5B5B"/>
		</linearGradient>
		
			<circle style="fill:url(#SVGID_35_);stroke:#333332;stroke-linecap:round;stroke-linejoin:round;stroke-miterlimit:1;" cx="48.039" cy="29.569" r="4.5"/>
		<linearGradient id="SVGID_36_" gradientUnits="userSpaceOnUse" x1="48.2539" y1="26.9773" x2="51.9977" y2="33.4617">
			<stop  offset="0" style="stop-color:#F5F6F6"/>
			<stop  offset="0.9921" style="stop-color:#D2D3D3"/>
		</linearGradient>
		
			<circle style="fill:url(#SVGID_36_);stroke:#333332;stroke-linecap:round;stroke-linejoin:round;stroke-miterlimit:1;" cx="50.039" cy="30.069" r="4.5"/>
	</g>
	
		<radialGradient id="SVGID_37_" cx="24.4359" cy="51.3562" r="4.9882" gradientTransform="matrix(1.0272 0 0 0.9325 -0.3946 3.3531)" gradientUnits="userSpaceOnUse">
		<stop  offset="0" style="stop-color:#8DD7F4"/>
		<stop  offset="1" style="stop-color:#386F8D"/>
	</radialGradient>
	
		<path style="fill:url(#SVGID_37_);stroke:#053755;stroke-width:0.9787;stroke-linecap:round;stroke-linejoin:round;stroke-miterlimit:1;" d="
		M25.958,54.569c2.38,0,4.357-0.52,5.542-1.421c0-1.973-2.816-3.579-5.542-3.579S20.5,51.14,20.5,53.102
		C21.685,54.002,23.577,54.569,25.958,54.569z"/>
	
		<line style="fill:none;stroke:#323232;stroke-width:2;stroke-linecap:round;stroke-miterlimit:10;" x1="26" y1="46.569" x2="26" y2="50.569"/>
	<g>
		<g>
			<g>
				<linearGradient id="SVGID_38_" gradientUnits="userSpaceOnUse" x1="27.8489" y1="47.057" x2="24.5793" y2="41.3938">
					<stop  offset="0" style="stop-color:#2A5B79"/>
					<stop  offset="1" style="stop-color:#84BEDC"/>
				</linearGradient>
				<path style="fill:url(#SVGID_38_);" d="M26,44.589c-2.485,0-4.5-0.757-4.5-2v2.5h0.05c0.252,1.123,2.136,2,4.45,2
					s4.198-0.877,4.45-2h0.05v-2.5C30.5,43.832,28.485,44.589,26,44.589z"/>
			</g>
			<linearGradient id="SVGID_39_" gradientUnits="userSpaceOnUse" x1="27.8489" y1="47.057" x2="24.5793" y2="41.3938">
				<stop  offset="0" style="stop-color:#2A5B79"/>
				<stop  offset="1" style="stop-color:#84BEDC"/>
			</linearGradient>
			<ellipse style="fill:url(#SVGID_39_);" cx="26" cy="42.839" rx="4.5" ry="1.75"/>
		</g>
		<g>
			<g>
				<linearGradient id="SVGID_40_" gradientUnits="userSpaceOnUse" x1="28.4531" y1="48.1035" x2="23.7572" y2="39.9699">
					<stop  offset="0" style="stop-color:#386F8D"/>
					<stop  offset="1" style="stop-color:#8DD7F4"/>
				</linearGradient>
				<path style="fill:url(#SVGID_40_);stroke:#053755;stroke-linecap:round;stroke-linejoin:round;stroke-miterlimit:1;" d="
					M26,44.589c-2.485,0-4.5-0.757-4.5-2v2.5h0.05c0.252,1.123,2.136,2,4.45,2s4.198-0.877,4.45-2h0.05v-2.5
					C30.5,43.832,28.485,44.589,26,44.589z"/>
			</g>
			<linearGradient id="SVGID_41_" gradientUnits="userSpaceOnUse" x1="27.2358" y1="44.9799" x2="24.9574" y2="41.0337">
				<stop  offset="0" style="stop-color:#74C4E2"/>
				<stop  offset="1" style="stop-color:#A4DEF6"/>
			</linearGradient>
			
				<ellipse style="fill:url(#SVGID_41_);stroke:#053755;stroke-linecap:round;stroke-linejoin:round;stroke-miterlimit:1;" cx="26" cy="42.839" rx="4.5" ry="1.75"/>
		</g>
		<g>
			<g>
				<path style="fill:none;stroke:#053755;stroke-linecap:round;stroke-linejoin:round;stroke-miterlimit:1;" d="M26,44.589
					c-2.485,0-4.5-0.757-4.5-2v2.5h0.05c0.252,1.123,2.136,2,4.45,2s4.198-0.877,4.45-2h0.05v-2.5
					C30.5,43.832,28.485,44.589,26,44.589z"/>
			</g>
			
				<ellipse style="fill:none;stroke:#053755;stroke-linecap:round;stroke-linejoin:round;stroke-miterlimit:1;" cx="26" cy="42.839" rx="4.5" ry="1.75"/>
		</g>
	</g>
	<linearGradient id="SVGID_42_" gradientUnits="userSpaceOnUse" x1="23.1807" y1="36.3187" x2="28.6701" y2="36.3187">
		<stop  offset="0" style="stop-color:#D2D3D3"/>
		<stop  offset="0.4186" style="stop-color:#F5F6F6"/>
		<stop  offset="0.9921" style="stop-color:#999999"/>
	</linearGradient>
	<path style="fill:url(#SVGID_42_);stroke:#333332;stroke-linecap:round;stroke-linejoin:round;stroke-miterlimit:1;" d="
		M22.5,29.069v13c0,0.828,1.567,1.5,3.5,1.5s3.5-0.672,3.5-1.5v-13H22.5z"/>
	<g>
		<g>
			<linearGradient id="SVGID_43_" gradientUnits="userSpaceOnUse" x1="28.4531" y1="31.5829" x2="23.7572" y2="23.4493">
				<stop  offset="0" style="stop-color:#386F8D"/>
				<stop  offset="1" style="stop-color:#8DD7F4"/>
			</linearGradient>
			<path style="fill:url(#SVGID_43_);stroke:#053755;stroke-linecap:round;stroke-linejoin:round;stroke-miterlimit:1;" d="
				M26,28.069c-2.485,0-4.5-0.757-4.5-2v2.5h0.05c0.252,1.123,2.136,2,4.45,2s4.198-0.877,4.45-2h0.05v-2.5
				C30.5,27.311,28.485,28.069,26,28.069z"/>
		</g>
		<linearGradient id="SVGID_44_" gradientUnits="userSpaceOnUse" x1="27.2358" y1="28.4593" x2="24.9574" y2="24.5131">
			<stop  offset="0" style="stop-color:#74C4E2"/>
			<stop  offset="1" style="stop-color:#A4DEF6"/>
		</linearGradient>
		
			<ellipse style="fill:url(#SVGID_44_);stroke:#053755;stroke-linecap:round;stroke-linejoin:round;stroke-miterlimit:1;" cx="26" cy="26.319" rx="4.5" ry="1.75"/>
	</g>
	
		<line style="fill:none;stroke:#323232;stroke-width:2;stroke-linecap:round;stroke-miterlimit:10;" x1="26" y1="22.069" x2="26" y2="25.569"/>
	<g>
		<g>
			<circle style="fill:#FFFFFF;" cx="52.539" cy="27.568" r="0.5"/>
			<path style="fill:#003755;" d="M52.539,26.569c-0.552,0-1,0.448-1,1c0,0.552,0.448,1,1,1s1-0.448,1-1
				C53.539,27.016,53.091,26.569,52.539,26.569L52.539,26.569z"/>
		</g>
		<g>
			<circle style="fill:#FFFFFF;" cx="52.539" cy="27.569" r="0.5"/>
		</g>
	</g>
	<defs>
		<filter id="Adobe_OpacityMaskFilter_4_" filterUnits="userSpaceOnUse" x="21.854" y="32.839" width="8" height="2.25">
			<feColorMatrix  type="matrix" values="1 0 0 0 0  0 1 0 0 0  0 0 1 0 0  0 0 0 1 0"/>
		</filter>
	</defs>
	<mask maskUnits="userSpaceOnUse" x="21.854" y="32.839" width="8" height="2.25" id="SVGID_45_">
		<g style="filter:url(#Adobe_OpacityMaskFilter_4_);">
			<linearGradient id="SVGID_46_" gradientUnits="userSpaceOnUse" x1="26.7573" y1="33.487" x2="22.2125" y2="33.4459">
				<stop  offset="0" style="stop-color:#FFFFFF"/>
				<stop  offset="1" style="stop-color:#000000"/>
			</linearGradient>
			<rect x="21.649" y="31.405" style="fill:url(#SVGID_46_);" width="9.11" height="4.154"/>
		</g>
	</mask>
	<path style="mask:url(#SVGID_45_);fill:#333332;" d="M25.854,34.089c-1.858,0-3-0.729-3-1.25h-1c0,1.282,1.72,2.25,4,2.25
		s4-0.968,4-2.25h-1C28.854,33.361,27.713,34.089,25.854,34.089z"/>
	<defs>
		<filter id="Adobe_OpacityMaskFilter_5_" filterUnits="userSpaceOnUse" x="21.854" y="29.839" width="8" height="2.25">
			<feColorMatrix  type="matrix" values="1 0 0 0 0  0 1 0 0 0  0 0 1 0 0  0 0 0 1 0"/>
		</filter>
	</defs>
	<mask maskUnits="userSpaceOnUse" x="21.854" y="29.839" width="8" height="2.25" id="SVGID_47_">
		<g style="filter:url(#Adobe_OpacityMaskFilter_5_);">
			<linearGradient id="SVGID_48_" gradientUnits="userSpaceOnUse" x1="26.7573" y1="30.487" x2="22.2125" y2="30.4459">
				<stop  offset="0" style="stop-color:#FFFFFF"/>
				<stop  offset="1" style="stop-color:#000000"/>
			</linearGradient>
			<rect x="21.649" y="28.405" style="fill:url(#SVGID_48_);" width="9.11" height="4.154"/>
		</g>
	</mask>
	<path style="mask:url(#SVGID_47_);fill:#333332;" d="M25.854,31.089c-1.858,0-3-0.729-3-1.25h-1c0,1.282,1.72,2.25,4,2.25
		s4-0.968,4-2.25h-1C28.854,30.361,27.713,31.089,25.854,31.089z"/>
	<defs>
		<filter id="Adobe_OpacityMaskFilter_6_" filterUnits="userSpaceOnUse" x="21.854" y="35.839" width="8" height="2.25">
			<feColorMatrix  type="matrix" values="1 0 0 0 0  0 1 0 0 0  0 0 1 0 0  0 0 0 1 0"/>
		</filter>
	</defs>
	<mask maskUnits="userSpaceOnUse" x="21.854" y="35.839" width="8" height="2.25" id="SVGID_49_">
		<g style="filter:url(#Adobe_OpacityMaskFilter_6_);">
			<linearGradient id="SVGID_50_" gradientUnits="userSpaceOnUse" x1="26.7573" y1="36.487" x2="22.2125" y2="36.4459">
				<stop  offset="0" style="stop-color:#FFFFFF"/>
				<stop  offset="1" style="stop-color:#000000"/>
			</linearGradient>
			<rect x="21.649" y="34.405" style="fill:url(#SVGID_50_);" width="9.11" height="4.154"/>
		</g>
	</mask>
	<path style="mask:url(#SVGID_49_);fill:#333332;" d="M25.854,37.089c-1.858,0-3-0.729-3-1.25h-1c0,1.282,1.72,2.25,4,2.25
		s4-0.968,4-2.25h-1C28.854,36.361,27.713,37.089,25.854,37.089z"/>
	<defs>
		<filter id="Adobe_OpacityMaskFilter_7_" filterUnits="userSpaceOnUse" x="21.854" y="38.839" width="8" height="2.25">
			<feColorMatrix  type="matrix" values="1 0 0 0 0  0 1 0 0 0  0 0 1 0 0  0 0 0 1 0"/>
		</filter>
	</defs>
	<mask maskUnits="userSpaceOnUse" x="21.854" y="38.839" width="8" height="2.25" id="SVGID_51_">
		<g style="filter:url(#Adobe_OpacityMaskFilter_7_);">
			<linearGradient id="SVGID_52_" gradientUnits="userSpaceOnUse" x1="26.7573" y1="39.4871" x2="22.2125" y2="39.4459">
				<stop  offset="0" style="stop-color:#FFFFFF"/>
				<stop  offset="1" style="stop-color:#000000"/>
			</linearGradient>
			<rect x="21.649" y="37.405" style="fill:url(#SVGID_52_);" width="9.11" height="4.154"/>
		</g>
	</mask>
	<path style="mask:url(#SVGID_51_);fill:#333332;" d="M25.854,40.089c-1.858,0-3-0.729-3-1.25h-1c0,1.282,1.72,2.25,4,2.25
		s4-0.968,4-2.25h-1C28.854,39.361,27.713,40.089,25.854,40.089z"/>
	<g>
		<linearGradient id="SVGID_53_" gradientUnits="userSpaceOnUse" x1="47.0193" y1="47.1472" x2="41.4637" y2="37.5245">
			<stop  offset="0" style="stop-color:#2A5B79"/>
			<stop  offset="1" style="stop-color:#84BEDC"/>
		</linearGradient>
		
			<path style="fill:url(#SVGID_53_);stroke:#053755;stroke-width:1.0914;stroke-linecap:round;stroke-linejoin:round;stroke-miterlimit:1;" d="
			M48.463,35.826c-0.425-1.257-1.771-2.263-3.45-1.757c-2.128,0.641-7.475,7.15-7.475,9.321c0,2.86,2.574,5.179,5.75,5.179
			c3.176,0,5.75-2.319,5.75-5.179C49.038,42.211,48.674,36.447,48.463,35.826z"/>
		<linearGradient id="SVGID_54_" gradientUnits="userSpaceOnUse" x1="49.0852" y1="49.8371" x2="41.1471" y2="36.088">
			<stop  offset="0" style="stop-color:#386F8D"/>
			<stop  offset="1" style="stop-color:#8DD7F4"/>
		</linearGradient>
		<path style="fill:url(#SVGID_54_);stroke:#053755;stroke-linecap:round;stroke-linejoin:round;stroke-miterlimit:1;" d="
			M49.038,37.265c-0.617-1.696-1.906-1.935-3-1.696c-1.889,0.412-6.5,6.904-6.5,9c0,2.761,2.239,5,5,5s5-2.239,5-5
			C49.538,43.43,49.249,37.843,49.038,37.265z"/>
	</g>
	<g>
		<linearGradient id="SVGID_55_" gradientUnits="userSpaceOnUse" x1="47.2699" y1="41.4798" x2="43.6808" y2="45.8348">
			<stop  offset="0" style="stop-color:#D2D3D3"/>
			<stop  offset="0.2801" style="stop-color:#F5F6F6"/>
			<stop  offset="0.4369" style="stop-color:#EFF0F0"/>
			<stop  offset="0.6428" style="stop-color:#DFE0E0"/>
			<stop  offset="0.875" style="stop-color:#C4C5C5"/>
			<stop  offset="1" style="stop-color:#B3B3B3"/>
		</linearGradient>
		
			<path style="fill:url(#SVGID_55_);stroke:#333332;stroke-width:1.0109;stroke-linecap:round;stroke-linejoin:round;stroke-miterlimit:1;" d="
			M46.978,40.149c-0.153-0.137-0.322-0.258-0.509-0.357c-1.464-0.777-3.401,0.008-4.326,1.753c-0.833,1.57-0.556,3.374,0.573,4.287
			l3.642,3.046l4.304-5.461L46.978,40.149z"/>
		
			<linearGradient id="SVGID_56_" gradientUnits="userSpaceOnUse" x1="47.242" y1="40.2599" x2="50.0557" y2="45.1335" gradientTransform="matrix(0.8833 0.4687 -0.4687 0.8833 25.4645 -14.3191)">
			<stop  offset="0" style="stop-color:#F5F6F6"/>
			<stop  offset="0.9921" style="stop-color:#D2D3D3"/>
		</linearGradient>
		<path style="fill:url(#SVGID_56_);stroke:#333332;stroke-linecap:round;stroke-linejoin:round;stroke-miterlimit:1;" d="
			M51.071,47.475c-0.906,1.708-2.827,2.462-4.291,1.686s-1.916-2.79-1.01-4.498c0.906-1.708,2.827-2.462,4.291-1.686
			C51.525,43.754,51.977,45.767,51.071,47.475z"/>
	</g>
	<g>
		<linearGradient id="SVGID_57_" gradientUnits="userSpaceOnUse" x1="51.0667" y1="11.3082" x2="24.2096" y2="18.8797">
			<stop  offset="0.014" style="stop-color:#18059F"/>
			<stop  offset="0.1963" style="stop-color:#04B3CD"/>
			<stop  offset="0.3257" style="stop-color:#EAD818"/>
			<stop  offset="0.446" style="stop-color:#7D1825"/>
			<stop  offset="0.574" style="stop-color:#C82127"/>
			<stop  offset="0.7244" style="stop-color:#8F0000"/>
			<stop  offset="0.825" style="stop-color:#E6E400"/>
			<stop  offset="1" style="stop-color:#472F92"/>
		</linearGradient>
		<path style="fill:url(#SVGID_57_);" d="M20.379,13.92l23.5-3.5c0,0,6-0.5,8.343,3.5c3.237,5.525-0.5,1-0.5,1s-6-3.5-13-0.5
			s-17.843,3-17.843,3L20.379,13.92z"/>
		<linearGradient id="SVGID_58_" gradientUnits="userSpaceOnUse" x1="55.1922" y1="25.2487" x2="25.0493" y2="13.2487">
			<stop  offset="0" style="stop-color:#0FD1DF"/>
			<stop  offset="0.0363" style="stop-color:#14CCDA"/>
			<stop  offset="0.0819" style="stop-color:#24BDCA"/>
			<stop  offset="0.1326" style="stop-color:#3DA5B0"/>
			<stop  offset="0.1867" style="stop-color:#61848D"/>
			<stop  offset="0.2438" style="stop-color:#8F585F"/>
			<stop  offset="0.3025" style="stop-color:#C62427"/>
			<stop  offset="0.3174" style="stop-color:#D51618"/>
			<stop  offset="0.3209" style="stop-color:#D61D17"/>
			<stop  offset="0.3431" style="stop-color:#DD4612"/>
			<stop  offset="0.3681" style="stop-color:#E36C0E"/>
			<stop  offset="0.3954" style="stop-color:#E98C0A"/>
			<stop  offset="0.4255" style="stop-color:#EDA807"/>
			<stop  offset="0.4594" style="stop-color:#F1BE04"/>
			<stop  offset="0.4991" style="stop-color:#F4CF02"/>
			<stop  offset="0.5482" style="stop-color:#F6DA01"/>
			<stop  offset="0.617" style="stop-color:#F7E100"/>
			<stop  offset="0.808" style="stop-color:#F7E300"/>
			<stop  offset="0.911" style="stop-color:#00E2F6"/>
			<stop  offset="1" style="stop-color:#7B18CB"/>
		</linearGradient>
		<path style="fill:url(#SVGID_58_);" d="M56.379,23.302c-1-11.382-10-10.5-10-10.5l-23,3v6.618l9-1.118c0,0,8,7.5,11.5,7
			s5.5,2,6,2.5S57.299,33.774,56.379,23.302z M50.513,22.57c-1.017,2.664-3.586,4.158-5.737,3.337
			c-2.152-0.821-3.072-3.647-2.055-6.311c1.017-2.664,3.586-4.158,5.737-3.337C50.61,17.081,51.53,19.906,50.513,22.57z"/>
		<polygon style="fill:#8312C6;" points="23.379,15.92 20.379,13.92 20.379,19.92 23.379,22.42 		"/>
		<g>
			<circle style="fill:#FFFFFF;" cx="52.463" cy="27.42" r="1"/>
		</g>
		<g>
			<circle style="fill:#FFFFFF;" cx="52.463" cy="27.42" r="0.5"/>
		</g>
		
			<radialGradient id="SVGID_59_" cx="35.1792" cy="17.7306" r="2.1476" gradientTransform="matrix(-0.8447 -0.2347 0.2276 -0.8027 63.2499 41.4941)" gradientUnits="userSpaceOnUse">
			<stop  offset="0.1565" style="stop-color:#0083EE"/>
			<stop  offset="0.307" style="stop-color:#0088EE"/>
			<stop  offset="0.496" style="stop-color:#0098F0"/>
			<stop  offset="0.7054" style="stop-color:#00B1F2"/>
			<stop  offset="0.9282" style="stop-color:#00D5F5"/>
			<stop  offset="1" style="stop-color:#00E2F6"/>
		</radialGradient>
		<path style="fill:url(#SVGID_59_);stroke:#7CE585;stroke-miterlimit:10;" d="M41.003,19.889c-0.258,1.23-2.484,1.803-4.971,1.281
			c-2.487-0.522-4.294-1.942-4.036-3.172s2.484-1.803,4.971-1.281C39.454,17.24,41.261,18.66,41.003,19.889z"/>
		<radialGradient id="SVGID_60_" cx="48.5815" cy="22.3902" r="8.5764" gradientUnits="userSpaceOnUse">
			<stop  offset="0.4848" style="stop-color:#0FD1DF"/>
			<stop  offset="0.6207" style="stop-color:#0FCFDF"/>
			<stop  offset="0.6816" style="stop-color:#11C8DF"/>
			<stop  offset="0.7274" style="stop-color:#13BBDF"/>
			<stop  offset="0.7658" style="stop-color:#17A9DE"/>
			<stop  offset="0.7994" style="stop-color:#1B91DE"/>
			<stop  offset="0.8293" style="stop-color:#2075DE"/>
			<stop  offset="0.8566" style="stop-color:#2754DD"/>
			<stop  offset="0.8578" style="stop-color:#2752DD"/>
			<stop  offset="1" style="stop-color:#7B18CB"/>
		</radialGradient>
		<path style="fill:url(#SVGID_60_);" d="M46.379,12.802l-1.153,0.15c4.968,1.981,8.16,7.226,8.867,13.335
			c0.116,1,0.974,2.009,1.701,2.732c0.545-1.234,0.818-3.056,0.585-5.717C55.379,11.92,46.379,12.802,46.379,12.802z"/>
		
			<linearGradient id="SVGID_61_" gradientUnits="userSpaceOnUse" x1="50.7776" y1="28.5998" x2="46.7978" y2="26.3256" gradientTransform="matrix(0.7415 -0.0941 -0.0941 1.1697 18.4785 -0.7546)">
			<stop  offset="0" style="stop-color:#C57A02"/>
			<stop  offset="0.0318" style="stop-color:#CE8D02"/>
			<stop  offset="0.0874" style="stop-color:#DBA801"/>
			<stop  offset="0.1514" style="stop-color:#E5BE01"/>
			<stop  offset="0.2262" style="stop-color:#EDCF00"/>
			<stop  offset="0.3185" style="stop-color:#F3DA00"/>
			<stop  offset="0.4482" style="stop-color:#F6E100"/>
			<stop  offset="0.808" style="stop-color:#F7E300"/>
		</linearGradient>
		<path style="fill:url(#SVGID_61_);stroke:#7CE585;stroke-width:0.75;stroke-miterlimit:10;stroke-opacity:0.5;" d="M55.31,26.997
			c-0.307,1.462-2.011,2.343-3.806,1.966s-3.421-2.025-2.694-3.331c1.704-3.062,1.743-0.769,3.538-0.392S55.617,25.535,55.31,26.997
			z"/>
		<g>
			<g>
				<g>
					<circle style="fill:#FFFFFF;" cx="52.463" cy="27.416" r="0.5"/>
				</g>
			</g>
		</g>
		<path style="fill:#053755;" d="M52.259,32.089c-1.28,0-2.402-0.461-2.697-0.756L49.4,31.165c-0.671-0.715-2.459-2.618-5.415-2.19
			c-3.446,0.494-10.346-5.683-11.74-6.97l-8.769,1.089c-0.142,0.022-0.285-0.025-0.393-0.121c-0.107-0.095-0.169-0.231-0.169-0.375
			V15.98c0-0.251,0.187-0.463,0.436-0.496l23-3c0.162-0.018,3.637-0.326,6.611,2.143c2.274,1.887,3.604,4.851,3.951,8.809
			c0.391,4.444-0.535,7.222-2.751,8.255C53.541,31.981,52.881,32.089,52.259,32.089z M44.824,27.914
			c2.896,0,4.679,1.898,5.306,2.566l0.139,0.146c0.216,0.169,2.113,0.896,3.625,0.081c1.658-0.896,2.357-3.38,2.023-7.184l0,0
			c-0.323-3.676-1.528-6.407-3.582-8.118c-2.646-2.204-5.841-1.933-5.872-1.929l-22.548,2.941v5.613l8.438-1.048
			c0.146-0.022,0.295,0.029,0.403,0.131c2.177,2.041,8.406,7.26,11.088,6.87C44.183,27.936,44.511,27.914,44.824,27.914z
			 M46.033,26.809c-0.474,0-0.944-0.083-1.4-0.257c-1.185-0.452-2.077-1.438-2.513-2.776c-0.424-1.301-0.363-2.785,0.17-4.181
			c1.112-2.917,3.971-4.544,6.383-3.625c2.405,0.918,3.456,4.04,2.343,6.958l0,0C50.112,25.292,48.059,26.809,46.033,26.809z
			 M47.261,16.711c-1.618,0-3.286,1.273-4.037,3.241c-0.451,1.182-0.506,2.43-0.152,3.514c0.34,1.045,1.021,1.81,1.919,2.152
			c1.89,0.716,4.174-0.646,5.092-3.049l0,0c0.916-2.402,0.124-4.944-1.767-5.666C47.974,16.773,47.618,16.711,47.261,16.711z
			 M50.549,22.748h0.01H50.549z"/>
		<path style="fill:#3E244D;" d="M23.415,23.098c-0.115,0-0.229-0.039-0.32-0.116l-3-2.5c-0.114-0.095-0.18-0.235-0.18-0.384v-6
			c0-0.185,0.102-0.354,0.264-0.441c0.163-0.087,0.359-0.078,0.514,0.025l3,2c0.139,0.093,0.223,0.249,0.223,0.416v6.5
			c0,0.194-0.112,0.37-0.288,0.453C23.559,23.082,23.487,23.098,23.415,23.098z M20.915,19.864l2,1.667v-5.166l-2-1.333V19.864z"/>
		<path style="fill:#053755;" d="M52.689,13.845c-2.475-4.223-8.562-3.767-8.848-3.742l-23.5,3.5
			c-0.046,0.007-0.085,0.027-0.125,0.045c0.155-0.068,0.333-0.062,0.476,0.033l1.079,0.72l22.184-3.305
			c0.053-0.004,4.733-0.34,7.2,2.366c0.602,0.296,1.213,0.673,1.805,1.164c0.13,0.108,0.246,0.232,0.369,0.346
			C53.151,14.645,52.947,14.285,52.689,13.845z"/>
		<path style="fill:#053755;" d="M20.17,13.665c-0.07,0.04-0.126,0.096-0.17,0.162C20.043,13.761,20.1,13.705,20.17,13.665z"/>
		<path style="fill:#053755;" d="M19.926,14.057c0.005-0.063,0.022-0.123,0.049-0.179C19.948,13.934,19.931,13.993,19.926,14.057z"
			/>
		<linearGradient id="SVGID_62_" gradientUnits="userSpaceOnUse" x1="47.061" y1="24.3746" x2="49.2846" y2="19.7339">
			<stop  offset="0.1565" style="stop-color:#14379C"/>
			<stop  offset="0.3273" style="stop-color:#143597"/>
			<stop  offset="0.5416" style="stop-color:#152F87"/>
			<stop  offset="0.7782" style="stop-color:#15266E"/>
			<stop  offset="1" style="stop-color:#161B4F"/>
		</linearGradient>
		<path style="fill:url(#SVGID_62_);" d="M49.514,16.711c-0.418-0.16-0.844-0.254-1.27-0.302c1.03,1.157,1.352,3.012,0.679,4.775
			c-0.908,2.379-3.277,3.685-5.29,2.916c-0.468-0.179-0.868-0.461-1.207-0.808c0.415,1.614,1.55,2.996,3.193,3.623
			c2.733,1.043,5.82-0.396,6.896-3.214S52.247,17.754,49.514,16.711z"/>
		<path style="fill:none;stroke:#053755;stroke-width:1.1126;stroke-linecap:round;stroke-linejoin:round;stroke-miterlimit:1;" d="
			M49.459,16.627c-0.406-0.162-0.819-0.258-1.233-0.307c0.999,1.176,1.312,3.061,0.659,4.854c-0.881,2.418-3.179,3.745-5.133,2.964
			c-0.454-0.181-0.842-0.469-1.171-0.821c0.403,1.64,1.504,3.045,3.098,3.682c2.652,1.06,5.648-0.402,6.691-3.266
			S52.111,17.687,49.459,16.627z"/>
	</g>
	<g>
		<linearGradient id="SVGID_63_" gradientUnits="userSpaceOnUse" x1="24.9706" y1="10.9715" x2="26.891" y2="14.2976">
			<stop  offset="0" style="stop-color:#E6E6E6"/>
			<stop  offset="1" style="stop-color:#B3B3B3"/>
		</linearGradient>
		
			<path style="fill:url(#SVGID_63_);stroke:#333332;stroke-width:1.1318;stroke-linecap:round;stroke-linejoin:round;stroke-miterlimit:1;" d="
			M28.492,11.672c-0.307,0-0.28-0.257-0.623-0.257l-3.739,0.06c-0.343,0-0.423-0.003-0.623,0.197v1.923c0,0.025,0,0.113,0,0.136
			c0,0.531,1.116,0.961,2.492,0.961c0.001,0,0.002,0,0.003,0s0.002,0,0.003,0c1.373,0,2.486-0.426,2.486-0.95
			c0-0.002-0.001-0.003-0.001-0.005s0.001-0.004,0.001-0.005c0-0.023,0-0.111,0-0.136V11.672z"/>
		<linearGradient id="SVGID_64_" gradientUnits="userSpaceOnUse" x1="25.2985" y1="10.4568" x2="26.5669" y2="12.6537">
			<stop  offset="0" style="stop-color:#E6E6E6"/>
			<stop  offset="1" style="stop-color:#CCCCCC"/>
		</linearGradient>
		
			<ellipse style="fill:url(#SVGID_64_);stroke:#333332;stroke-width:1.1318;stroke-linecap:round;stroke-linejoin:round;stroke-miterlimit:1;" cx="26" cy="11.672" rx="2.492" ry="0.98"/>
	</g>
	<g>
		<circle style="fill:#003755;" cx="52.5" cy="27.5" r="0.75"/>
		<path style="fill:#003755;" d="M52.5,26c-0.828,0-1.5,0.672-1.5,1.5s0.672,1.5,1.5,1.5s1.5-0.672,1.5-1.5S53.328,26,52.5,26
			L52.5,26z"/>
	</g>
	<g>
		<ellipse style="fill:#FFFFFF;" cx="52.501" cy="27.494" rx="0.519" ry="0.537"/>
	</g>
</g>
</svg>
