<svg id="Layer_6_copy" data-name="Layer 6 copy" xmlns="http://www.w3.org/2000/svg" xmlns:xlink="http://www.w3.org/1999/xlink" viewBox="0 0 64 64"><defs><linearGradient id="linear-gradient" x1="39.8" y1="43.85" x2="32.97" y2="32.02" gradientUnits="userSpaceOnUse"><stop offset="0" stop-color="#2a5b79"/><stop offset="1" stop-color="#3388b0"/></linearGradient><linearGradient id="linear-gradient-2" x1="34.01" y1="30.28" x2="36.09" y2="33.89" gradientUnits="userSpaceOnUse"><stop offset="0" stop-color="#f5f6f6"/><stop offset="0.99" stop-color="#d2d3d3"/></linearGradient><linearGradient id="linear-gradient-6" x1="26.54" y1="28.59" x2="15.4" y2="9.3" gradientUnits="userSpaceOnUse"><stop offset="0" stop-color="#386f8d"/><stop offset="1" stop-color="#8dd7f4"/></linearGradient><linearGradient id="linear-gradient-7" x1="18.82" y1="15.22" x2="23.39" y2="23.15" xlink:href="#linear-gradient-2"/><linearGradient id="linear-gradient-8" x1="21.79" y1="20.75" x2="19.13" y2="16.14" gradientUnits="userSpaceOnUse"><stop offset="0" stop-color="#161616"/><stop offset="1" stop-color="#515151"/></linearGradient></defs><path d="M47,53H22a1,1,0,0,1-1-1V27" style="fill:none;stroke:#000;stroke-linecap:round;stroke-miterlimit:10;stroke-width:2px"/><polyline points="26 46 35 32 41 42 48 32" style="fill:none;stroke-linecap:round;stroke-linejoin:round;stroke-width:2px;stroke:url(#linear-gradient)"/><circle cx="35" cy="32" r="2.5" style="stroke:#333332;stroke-linecap:round;stroke-linejoin:round;fill:url(#linear-gradient-2)"/><circle cx="41" cy="42" r="2.5" style="stroke:#333332;stroke-linecap:round;stroke-linejoin:round;fill:url(#linear-gradient-2)"/><circle cx="48" cy="32" r="2.5" style="stroke:#333332;stroke-linecap:round;stroke-linejoin:round;fill:url(#linear-gradient-2)"/><circle cx="26" cy="46" r="2.5" style="stroke:#333332;stroke-linecap:round;stroke-linejoin:round;fill:url(#linear-gradient-2)"/><circle cx="21" cy="19" r="8.5" style="stroke:#053755;stroke-linecap:round;stroke-linejoin:round;fill:url(#linear-gradient-6)"/><circle cx="21" cy="19" r="5.5" style="stroke:#333332;stroke-linecap:round;stroke-linejoin:round;fill:url(#linear-gradient-7)"/><path d="M23.76,18.58l-4-2.5a.47.47,0,0,0-.5,0,.51.51,0,0,0-.26.44v5a.51.51,0,0,0,.26.44.5.5,0,0,0,.24.06.5.5,0,0,0,.26-.08l4-2.5a.49.49,0,0,0,0-.84Z" style="fill-rule:evenodd;fill:url(#linear-gradient-8)"/></svg>