<svg id="_49_903_1X_copy_3" data-name="49 903  1X copy 3" xmlns="http://www.w3.org/2000/svg" xmlns:xlink="http://www.w3.org/1999/xlink" viewBox="0 0 64 64"><defs><style>.cls-1,.cls-15,.cls-18,.cls-34,.cls-36,.cls-37{fill:none;}.cls-10,.cls-11,.cls-13,.cls-14,.cls-2,.cls-23,.cls-24,.cls-25,.cls-27,.cls-30,.cls-31,.cls-4,.cls-5,.cls-7,.cls-9{stroke:#797979;}.cls-10,.cls-11,.cls-15,.cls-2,.cls-30,.cls-31,.cls-37,.cls-4,.cls-5,.cls-7,.cls-9{stroke-linecap:round;}.cls-10,.cls-11,.cls-2,.cls-30,.cls-31,.cls-37,.cls-4,.cls-5,.cls-7,.cls-9{stroke-linejoin:round;}.cls-10,.cls-11,.cls-13,.cls-14,.cls-2,.cls-23,.cls-24,.cls-25,.cls-27,.cls-4,.cls-5,.cls-7,.cls-9{stroke-width:0.25px;}.cls-2{fill:url(#linear-gradient);}.cls-3{fill:#323232;}.cls-4{fill:url(#white_left);}.cls-5{fill:url(#top_white);}.cls-6{fill:#285977;}.cls-7{fill:url(#white_left-2);}.cls-8{fill:#797979;}.cls-9{fill:url(#linear-gradient-2);}.cls-10{fill:url(#white_left-3);}.cls-11{fill:url(#top_white-2);}.cls-12{isolation:isolate;}.cls-13,.cls-14,.cls-15,.cls-17,.cls-18,.cls-23,.cls-24,.cls-25,.cls-26,.cls-27,.cls-34,.cls-36{stroke-miterlimit:10;}.cls-13{fill:url(#linear-gradient-3);}.cls-14{fill:url(#linear-gradient-4);}.cls-15,.cls-36{stroke:#000;}.cls-15{stroke-width:0.29px;}.cls-16{fill:#5a9ab8;}.cls-17{fill:#aadcfa;stroke:#aadcfa;stroke-width:0.14px;}.cls-18{stroke:#003755;}.cls-19{fill:url(#linear-gradient-5);}.cls-20{fill:url(#linear-gradient-6);}.cls-21{fill:url(#linear-gradient-7);}.cls-22{fill:url(#linear-gradient-8);}.cls-23{fill:url(#linear-gradient-9);}.cls-24{fill:url(#linear-gradient-10);}.cls-25{fill:url(#linear-gradient-11);}.cls-26{fill:#2d6d8b;stroke:#00415f;stroke-width:0.1px;}.cls-27{fill:url(#linear-gradient-12);}.cls-28{clip-path:url(#clip-path);}.cls-29{clip-path:url(#clip-path-2);}.cls-30,.cls-31{stroke-width:0.06px;}.cls-30{fill:url(#top_white-3);}.cls-31{fill:url(#top_white-4);}.cls-32{fill:url(#top_white-5);}.cls-33{filter:url(#DS_GaussianBlur_2);}.cls-34{stroke:#fff;stroke-width:0.75px;}.cls-35{fill:#fff;}.cls-36{stroke-width:1.5px;}.cls-37{stroke:#5a9ab8;stroke-width:1.2px;}.cls-38{font-size:14px;fill:#003755;font-family:MyriadPro-Regular, Myriad Pro;}</style><linearGradient id="linear-gradient" x1="10.32" y1="38.45" x2="14.16" y2="38.45" gradientUnits="userSpaceOnUse"><stop offset="0.01" stop-color="#323232"/><stop offset="0.05" stop-color="#3d3d3d"/><stop offset="0.12" stop-color="#5a5a5a"/><stop offset="0.22" stop-color="#898989"/><stop offset="0.33" stop-color="#cacaca"/><stop offset="0.37" stop-color="#e1e1e1"/><stop offset="0.41" stop-color="#ccc"/><stop offset="0.5" stop-color="#9d9d9d"/><stop offset="0.58" stop-color="#777"/><stop offset="0.67" stop-color="#595959"/><stop offset="0.75" stop-color="#434343"/><stop offset="0.84" stop-color="#363636"/><stop offset="0.91" stop-color="#323232"/></linearGradient><linearGradient id="white_left" x1="7.29" y1="40.53" x2="12.26" y2="40.53" gradientUnits="userSpaceOnUse"><stop offset="0" stop-color="#f5f5f5"/><stop offset="1" stop-color="#bebebe"/></linearGradient><linearGradient id="top_white" x1="7.3" y1="34.26" x2="28.5" y2="34.26" gradientUnits="userSpaceOnUse"><stop offset="0" stop-color="#fff"/><stop offset="1" stop-color="#f0f0f0"/></linearGradient><linearGradient id="white_left-2" x1="12.32" y1="45.21" x2="19.86" y2="45.21" xlink:href="#white_left"/><linearGradient id="linear-gradient-2" x1="34.29" y1="39.52" x2="38.1" y2="39.52" xlink:href="#linear-gradient"/><linearGradient id="white_left-3" x1="20.44" y1="44.46" x2="24.26" y2="51.09" xlink:href="#white_left"/><linearGradient id="top_white-2" x1="19.87" y1="41.51" x2="41.08" y2="41.51" xlink:href="#top_white"/><linearGradient id="linear-gradient-3" x1="34.53" y1="36.37" x2="37.92" y2="36.37" gradientUnits="userSpaceOnUse"><stop offset="0" stop-color="#fff"/><stop offset="0.6" stop-color="#323232"/><stop offset="1" stop-color="#e1e1e1"/></linearGradient><linearGradient id="linear-gradient-4" x1="10.54" y1="35.37" x2="13.92" y2="35.37" xlink:href="#linear-gradient-3"/><linearGradient id="linear-gradient-5" x1="21.19" y1="31.64" x2="28.72" y2="28.91" gradientUnits="userSpaceOnUse"><stop offset="0" stop-color="#82bedc"/><stop offset="0.73" stop-color="#285a78"/><stop offset="1" stop-color="#82bedc"/></linearGradient><linearGradient id="linear-gradient-6" x1="22.07" y1="31.46" x2="27.92" y2="28.08" gradientUnits="userSpaceOnUse"><stop offset="0" stop-color="#82bedc"/><stop offset="0.67" stop-color="#285a78"/><stop offset="1" stop-color="#82bedc"/></linearGradient><linearGradient id="linear-gradient-7" x1="22.9" y1="29.8" x2="27.09" y2="28.28" gradientUnits="userSpaceOnUse"><stop offset="0" stop-color="#82bedc"/><stop offset="0.73" stop-color="#285a78"/><stop offset="1" stop-color="#82bedc"/></linearGradient><linearGradient id="linear-gradient-8" x1="23.04" y1="24.87" x2="26.94" y2="24.87" gradientUnits="userSpaceOnUse"><stop offset="0" stop-color="#82bedc"/><stop offset="0.81" stop-color="#285a78"/><stop offset="1" stop-color="#82bedc"/></linearGradient><linearGradient id="linear-gradient-9" x1="34.4" y1="28.53" x2="37.79" y2="28.53" xlink:href="#linear-gradient-3"/><linearGradient id="linear-gradient-10" x1="10.54" y1="27.73" x2="13.92" y2="27.73" xlink:href="#linear-gradient-3"/><linearGradient id="linear-gradient-11" x1="34.4" y1="20.42" x2="37.79" y2="20.42" gradientUnits="userSpaceOnUse"><stop offset="0" stop-color="#fff"/><stop offset="0.6" stop-color="#797979"/><stop offset="1" stop-color="#e1e1e1"/></linearGradient><linearGradient id="linear-gradient-12" x1="10.54" y1="20.14" x2="13.92" y2="20.14" xlink:href="#linear-gradient-11"/><clipPath id="clip-path"><polygon class="cls-1" points="15.36 30.43 12.18 31.87 9.36 30.58 9.15 23.83 15.87 23.12 15.36 30.43"/></clipPath><clipPath id="clip-path-2"><polygon class="cls-1" points="39.84 31.31 35.74 32.34 32.84 31.46 32.84 23.41 39.84 23.41 39.84 31.31"/></clipPath><linearGradient id="top_white-3" x1="20.29" y1="5.4" x2="30.08" y2="22.35" xlink:href="#top_white"/><linearGradient id="top_white-4" x1="6.85" y1="13.88" x2="43.51" y2="13.88" xlink:href="#top_white"/><linearGradient id="top_white-5" x1="9.65" y1="13.42" x2="40.72" y2="13.42" xlink:href="#top_white"/><filter id="DS_GaussianBlur_2" x="-50" y="-50" width="200" height="200" name="DS_GaussianBlur_2"><feGaussianBlur stdDeviation="1"/></filter></defs><title>ddd__A33AAe__R21XArtboard 1</title><g id="Layer_54_copy_9" data-name="Layer 54 copy 9"><g id="SUPPORT_ok_2_copy_7" data-name="SUPPORT *** ok 2 copy 7"><g id="g1_" data-name="g1  **"><path class="cls-2" d="M14.13,37.45l0,3.1a.94.94,0,0,0-.56-.78,3,3,0,0,0-2.7,0,.94.94,0,0,0-.56.77c0-1.8,0-1.3,0-3.1a.94.94,0,0,1,.55-.78,3,3,0,0,1,2.69,0A1,1,0,0,1,14.13,37.45Z"/><polygon class="cls-3" points="28.5 30.98 28.49 34.08 12.25 43.51 12.26 40.41 28.5 30.98"/><polygon class="cls-4" points="12.26 40.41 12.25 43.51 7.29 40.65 7.3 37.55 12.26 40.41"/><path class="cls-5" d="M23.54,28.11l5,2.87L12.26,40.41l-5-2.86ZM10.88,38.44a3,3,0,0,0,2.69,0,.82.82,0,0,0,0-1.56,3,3,0,0,0-2.69,0,.82.82,0,0,0,0,1.56"/></g><polygon class="cls-6" points="36.17 37.39 36.17 38.4 19.85 47.89 19.86 46.87 36.17 37.39"/><polygon class="cls-7" points="19.86 46.85 19.85 47.89 12.32 43.45 12.33 42.53 19.86 46.85"/><path class="cls-8" d="M36,37.48,19.86,46.86l-7.53-4.33L28.5,33.14Z"/><g id="d1_" data-name="d1   ***"><path class="cls-9" d="M37.54,37.69a3,3,0,0,0-2.69,0,1,1,0,0,0-.56.77v3.2a1,1,0,0,1,.55-.78,3,3,0,0,1,2.69,0,1,1,0,0,1,.56.79V38.48A1,1,0,0,0,37.54,37.69Z"/><polygon class="cls-10" points="24.84 47.66 24.83 50.76 19.86 47.89 19.87 44.79 24.84 47.66"/><polygon class="cls-3" points="41.08 38.23 41.07 41.33 24.83 50.76 24.84 47.66 41.08 38.23"/><path class="cls-11" d="M36.11,35.36l5,2.87L24.84,47.66l-5-2.87Zm1.43,2.36a3,3,0,0,0-2.7,0,.83.83,0,0,0,0,1.56,3,3,0,0,0,2.7,0,.82.82,0,0,0,0-1.56"/></g></g><g id="dessous"><g class="cls-12"><path class="cls-13" d="M37.43,34a2.63,2.63,0,0,1-2.38,0,.85.85,0,0,1-.5-.69c0,3.47,0,1.59,0,5.06a.83.83,0,0,0,.49.7,2.63,2.63,0,0,0,2.38,0,.84.84,0,0,0,.48-.69l0-5.06A.84.84,0,0,1,37.43,34Z"/><path class="cls-3" d="M35.05,34a.73.73,0,0,1,0-1.38,2.69,2.69,0,0,1,2.38,0c.66.39.66,1,0,1.38A2.63,2.63,0,0,1,35.05,34Z"/></g><g class="cls-12"><path class="cls-14" d="M13.92,32.15c0,3.47,0,2,0,5.48a.84.84,0,0,1-.48.68,2.63,2.63,0,0,1-2.38,0,.83.83,0,0,1-.49-.69c0-3.47,0-2,0-5.47a.83.83,0,0,0,.49.69,2.63,2.63,0,0,0,2.38,0A.84.84,0,0,0,13.92,32.15Z"/><path class="cls-3" d="M13.43,31.46a.73.73,0,0,1,0,1.38,2.63,2.63,0,0,1-2.38,0,.73.73,0,0,1,0-1.38A2.63,2.63,0,0,1,13.43,31.46Zm-2.26,1.31"/></g></g><g id="VIS_G_" data-name="VIS  G  ***"><path class="cls-15" d="M13.83,30.05a.84.84,0,0,1-.34.77,2.6,2.6,0,0,1-2.33.48c-.43-.14-.65-.42-.63-.73"/><path class="cls-15" d="M13.83,31.08a.85.85,0,0,1-.34.78,2.62,2.62,0,0,1-2.33.47c-.43-.14-.65-.42-.63-.73"/><path class="cls-15" d="M13.83,32.12a.82.82,0,0,1-.34.77,2.61,2.61,0,0,1-2.32.48c-.44-.15-.66-.42-.64-.73"/><path class="cls-15" d="M13.83,33.15a.83.83,0,0,1-.33.77,2.6,2.6,0,0,1-2.33.48c-.43-.14-.65-.42-.64-.73"/><path class="cls-15" d="M13.83,34.18a.82.82,0,0,1-.33.78,2.66,2.66,0,0,1-2.33.48c-.43-.15-.65-.43-.64-.73"/><path class="cls-15" d="M13.83,35.22a.81.81,0,0,1-.33.77,2.61,2.61,0,0,1-2.32.48c-.44-.15-.66-.42-.65-.73"/><path class="cls-15" d="M13.83,36.25a.8.8,0,0,1-.33.77,2.58,2.58,0,0,1-2.32.48c-.44-.14-.66-.42-.64-.73"/><path class="cls-15" d="M13.83,37.29a.81.81,0,0,1-.33.77,2.6,2.6,0,0,1-2.32.48c-.43-.15-.66-.43-.64-.73"/></g><g id="VIS_D_" data-name="VIS  D  ***"><path class="cls-15" d="M37.87,30.7a.84.84,0,0,1-.34.77A2.64,2.64,0,0,1,35.2,32c-.43-.15-.65-.43-.63-.73"/><path class="cls-15" d="M37.87,31.75a.84.84,0,0,1-.34.77A2.66,2.66,0,0,1,35.2,33c-.43-.15-.65-.43-.63-.73"/><path class="cls-15" d="M37.87,32.79a.83.83,0,0,1-.34.77,2.58,2.58,0,0,1-2.32.48c-.44-.14-.66-.42-.64-.73"/><path class="cls-15" d="M37.87,33.84a.82.82,0,0,1-.33.77,2.61,2.61,0,0,1-2.33.48c-.44-.14-.66-.42-.64-.73"/><path class="cls-15" d="M37.87,34.89a.83.83,0,0,1-.33.77,2.63,2.63,0,0,1-2.33.48c-.43-.14-.65-.42-.64-.73"/><path class="cls-15" d="M37.87,35.94a.83.83,0,0,1-.33.77,2.61,2.61,0,0,1-2.32.48c-.44-.15-.66-.42-.65-.73"/><path class="cls-15" d="M37.87,37a.81.81,0,0,1-.33.77,2.61,2.61,0,0,1-2.32.48c-.44-.15-.66-.43-.64-.73"/><path class="cls-15" d="M37.87,38a.82.82,0,0,1-.33.78,2.63,2.63,0,0,1-2.32.48c-.43-.15-.66-.43-.64-.74"/></g><g id="BLEU_0_copy_5" data-name="BLEU **0** copy 5"><g id="trou" class="cls-12"><path class="cls-6" d="M35,31.54a.81.81,0,0,0-.48.67V31.12a.8.8,0,0,1,.48-.66,2.5,2.5,0,0,1,2.32,0,1,1,0,0,1,.46.48c0,.37,0,.67,0,1.09h0a1,1,0,0,0-.46-.49A2.56,2.56,0,0,0,35,31.54Z"/><path class="cls-6" d="M11.07,30.87a.81.81,0,0,0-.47.67V30.45a.83.83,0,0,1,.47-.67,2.58,2.58,0,0,1,2.33,0,.94.94,0,0,1,.45.49v1.09h0a.93.93,0,0,0-.46-.49A2.56,2.56,0,0,0,11.07,30.87Z"/></g><g id="contour"><polygon class="cls-6" points="41.15 31.14 41.15 32.22 24.83 41.7 24.83 40.62 41.15 31.14"/><polygon class="cls-16" points="24.83 40.62 24.83 41.7 7.21 31.53 7.22 30.45 24.83 40.62"/></g><path class="cls-17" d="M23.54,21.06,41,31.14,24.83,40.53,7.37,30.45ZM11.09,31.13a2.56,2.56,0,0,0,2.32,0,.71.71,0,0,0,0-1.34,2.56,2.56,0,0,0-2.32,0c-.64.37-.63,1,0,1.34m26.21-.67a2.56,2.56,0,0,0-2.32,0,.71.71,0,0,0,0,1.34,2.56,2.56,0,0,0,2.32,0c.64-.37.63-1,0-1.34"/></g><g id="OS_0_copy_6" data-name="OS    **0** copy 6"><path class="cls-18" d="M29.11,30.65a1.52,1.52,0,0,0,0-.21,2.58,2.58,0,0,0-1.35-2.11h0a5,5,0,0,0-.7-.33S27,28,27,28h0V20H23v8c0,.09-.47.19-.7.32a2.58,2.58,0,0,0-1.46,2.19c0,.08,0,.36,0,.43a2.24,2.24,0,0,0,.6,1.49,5.19,5.19,0,0,0,4.88,1.18c.29-.06,2.75-.61,2.81-2.69A1.46,1.46,0,0,0,29.11,30.65Z"/><g id="éééé"><path class="cls-6" d="M28,29.21a6.47,6.47,0,0,0-5.86-.06,2.11,2.11,0,0,0-1.28,1.74,2.24,2.24,0,0,0,.6,1.49,5.21,5.21,0,0,0,4.89,1.18c.28-.06,2.74-.61,2.8-2.69A2,2,0,0,0,28,29.21Z"/><path class="cls-19" d="M22.33,28.27a5.92,5.92,0,0,1,5.46.06l-.13,0a5.75,5.75,0,0,0-5.22-.05c-1.48.82-1.52,2.18-.11,3a5.75,5.75,0,0,0,5.22,0c1.47-.82,1.52-2.18.11-3l.13,0a2.58,2.58,0,0,1,1.35,2.11,2.11,2.11,0,0,1-1.27,1.74A6.47,6.47,0,0,1,22,32.12a2,2,0,0,1-1.16-1.66A2.58,2.58,0,0,1,22.33,28.27Z"/><g id="sssssss"><path class="cls-20" d="M27.66,28.28a4.06,4.06,0,0,0-1-.42.72.72,0,0,1,.18.36c.7.53.61,1.3-.24,1.77a2.59,2.59,0,0,1-.38.17,4.73,4.73,0,0,1-2.45,0,2.07,2.07,0,0,1-.45-.21c-.79-.48-.85-1.21-.18-1.73a.24.24,0,0,1,0-.08v0l0-.09h0a.41.41,0,0,1,.05-.09h0l.05-.06a4.06,4.06,0,0,0-.88.36c-1.48.82-1.52,2.18-.11,3a5.75,5.75,0,0,0,5.22,0C29,30.49,29.07,29.13,27.66,28.28Z"/></g><path class="cls-21" d="M26.66,28.1s-.09,0-.13-.06h0c.27.17.31.27.32.29a1,1,0,0,1-.58.78,2.89,2.89,0,0,1-2.64,0,1,1,0,0,1-.52-.75.58.58,0,0,1,.18-.2l.12-.08.07,0h0l-.11,0a1.15,1.15,0,0,0-.71,1,1.12,1.12,0,0,0,.64.92,3.61,3.61,0,0,0,3.28,0,1.17,1.17,0,0,0,.71-1A1.14,1.14,0,0,0,26.66,28.1Z"/></g><path class="cls-22" d="M26.93,28.14s.23,1.29-2,1.29-1.89-1.29-1.89-1.29V20.3h3.88Z"/></g><g id="PILE_1" data-name="PILE 1"><g id="dessous-2" data-name="dessous"><g class="cls-12"><path class="cls-23" d="M37.3,25.49a2.61,2.61,0,0,1-2.37,0,.85.85,0,0,1-.5-.69c0,3.46,0,3,0,6.48a.85.85,0,0,0,.5.69,2.63,2.63,0,0,0,2.38,0,.84.84,0,0,0,.48-.68l0-6.49A.83.83,0,0,1,37.3,25.49Z"/><path class="cls-3" d="M34.93,25.49a.73.73,0,0,1,0-1.38,2.63,2.63,0,0,1,2.38,0,.73.73,0,0,1,0,1.38A2.61,2.61,0,0,1,34.93,25.49Z"/></g><g class="cls-12"><path class="cls-24" d="M13.92,24c0,3.47,0,3,0,6.47a.81.81,0,0,1-.48.68,2.63,2.63,0,0,1-2.38,0,.83.83,0,0,1-.49-.69c0-3.47,0-3,0-6.47a.83.83,0,0,0,.49.69,2.63,2.63,0,0,0,2.38,0A.84.84,0,0,0,13.92,24Z"/><path class="cls-3" d="M13.43,23.32a.73.73,0,0,1,0,1.38,2.63,2.63,0,0,1-2.38,0c-.65-.38-.66-1,0-1.37A2.66,2.66,0,0,1,13.43,23.32Zm-2.26,1.31"/></g></g><g id="L2_Lisse" data-name="L2 Lisse" class="cls-12"><path class="cls-25" d="M37.3,15.36a2.64,2.64,0,0,1-2.37,0,.86.86,0,0,1-.5-.7c0,3.47,0,7,0,10.51a.85.85,0,0,0,.5.69,2.63,2.63,0,0,0,2.38,0,.83.83,0,0,0,.48-.68l0-10.51A.81.81,0,0,1,37.3,15.36Z"/><path class="cls-26" d="M34.93,15.37a.73.73,0,0,1,0-1.38,2.63,2.63,0,0,1,2.38,0,.72.72,0,0,1,0,1.37A2.64,2.64,0,0,1,34.93,15.37Z"/></g><g id="L_Lisse" data-name="L Lisse" class="cls-12"><path class="cls-27" d="M13.92,15.1c0,3.47,0,5.66,0,9.13a.84.84,0,0,1-.48.68,2.63,2.63,0,0,1-2.38,0,.83.83,0,0,1-.49-.69c0-3.47,0-5.66,0-9.13a.83.83,0,0,0,.49.69,2.63,2.63,0,0,0,2.38,0A.83.83,0,0,0,13.92,15.1Z"/><path class="cls-26" d="M13.43,14.41a.72.72,0,0,1,0,1.37,2.63,2.63,0,0,1-2.38,0,.73.73,0,0,1,0-1.37A2.63,2.63,0,0,1,13.43,14.41Zm-2.26,1.31"/></g><g id="pas_de_vis_G1" data-name="pas de vis * G1"><g class="cls-28"><g id="Blend_G1" data-name="Blend  G1"><path class="cls-15" d="M13.83,23.93a.84.84,0,0,1-.34.77,2.63,2.63,0,0,1-2.33.48c-.43-.15-.65-.42-.63-.73"/><path class="cls-15" d="M13.83,25.13a.82.82,0,0,1-.34.77,2.61,2.61,0,0,1-2.32.48c-.44-.14-.66-.42-.64-.73"/><path class="cls-15" d="M13.83,26.33a.82.82,0,0,1-.33.77,2.61,2.61,0,0,1-2.33.48c-.44-.14-.66-.42-.64-.73"/><path class="cls-15" d="M13.83,27.53a.82.82,0,0,1-.33.78,2.62,2.62,0,0,1-2.33.47c-.43-.14-.65-.42-.64-.73"/><path class="cls-15" d="M13.83,28.74a.81.81,0,0,1-.33.77,2.61,2.61,0,0,1-2.32.48c-.44-.15-.66-.43-.64-.73"/><path class="cls-15" d="M13.83,29.94a.81.81,0,0,1-.33.77,2.6,2.6,0,0,1-2.32.48c-.43-.15-.66-.42-.64-.73"/></g></g></g><g id="pas_de_vis_D1" data-name="pas de vis * D1"><g class="cls-29"><g id="Blend_G1-2" data-name="Blend  G1"><path class="cls-15" d="M37.74,24.84a.84.84,0,0,1-.34.77,2.64,2.64,0,0,1-2.33.48c-.44-.15-.65-.42-.64-.73"/><path class="cls-15" d="M37.74,26a.84.84,0,0,1-.34.77,2.6,2.6,0,0,1-2.33.48c-.43-.14-.65-.42-.63-.73"/><path class="cls-15" d="M37.74,27.2a.83.83,0,0,1-.34.77,2.58,2.58,0,0,1-2.32.48c-.44-.14-.66-.42-.64-.73"/><path class="cls-15" d="M37.74,28.38a.84.84,0,0,1-.33.78,2.63,2.63,0,0,1-2.33.47c-.43-.14-.66-.42-.64-.73"/><path class="cls-15" d="M37.74,29.57a.83.83,0,0,1-.33.77,2.61,2.61,0,0,1-2.32.48c-.44-.15-.66-.43-.65-.73"/><path class="cls-15" d="M37.74,30.75a.83.83,0,0,1-.33.77,2.61,2.61,0,0,1-2.32.48c-.44-.15-.66-.42-.65-.73"/></g></g></g></g><g id="TOP_0_" data-name="TOP  **0**"><g class="cls-12"><path class="cls-30" d="M42.77,13.26c1.13.48,1.14,1.25,0,1.73L27.87,21.33a6,6,0,0,1-4.08,0L7.59,14.49c-1.13-.48-1.13-1.25,0-1.73L22.49,6.42a6,6,0,0,1,4.08,0Z"/><path id="dessus" class="cls-31" d="M42.69,13.3c1.09.45,1.09,1.2,0,1.66L27.79,21.3a5.74,5.74,0,0,1-3.92,0L7.67,14.46c-1.08-.46-1.09-1.21,0-1.67L22.57,6.45a5.74,5.74,0,0,1,3.92,0Z"/><path class="cls-3" d="M42.75,15,27.87,21.33a6,6,0,0,1-4.08,0L7.59,14.49c-.57-.24-.85-.56-.85-.87v.66c0,.32.28.63.85.87L23.79,22a6,6,0,0,0,4.08,0l14.88-6.44c.52-.23,1-.27.87-1.58C43.57,14,43.84,14.51,42.75,15Z"/></g><path class="cls-32" d="M25.83,19.93a5,5,0,0,1-1.92-.34L10.39,13.88c-.47-.2-.74-.46-.74-.72s.26-.51.73-.71L22.63,7.24a5.56,5.56,0,0,1,3.83,0L40,13c.47.2.74.46.74.72s-.26.52-.73.71L27.74,19.59A5,5,0,0,1,25.83,19.93Z"/><path class="cls-8" d="M24.54,7a5,5,0,0,1,1.87.32l13.52,5.72c.42.17.67.4.67.6s-.25.42-.66.6L27.69,19.48a4.88,4.88,0,0,1-1.86.32A5,5,0,0,1,24,19.48L10.44,13.77c-.42-.18-.67-.41-.67-.61s.25-.42.65-.6L22.68,7.35A4.88,4.88,0,0,1,24.54,7m0-.25a5.2,5.2,0,0,0-2,.34L10.33,12.33c-1.08.46-1.07,1.21,0,1.67l13.52,5.71a5.29,5.29,0,0,0,2,.34,5.11,5.11,0,0,0,2-.34L40,14.5c1.08-.46,1.07-1.21,0-1.66L26.5,7.12a5.2,5.2,0,0,0-2-.34Z"/><path class="cls-3" d="M40.42,14.4,27.74,19.78a5.82,5.82,0,0,1-4-.06L10.24,14c-.57-.24-.84-.56-.84-.87v.66c0,.32.29.63.86.87l13.5,5.69a6,6,0,0,0,4.09.06l12.56-5.38c.76-.35.55-.85.55-1.52A.84.84,0,0,1,40.42,14.4Z"/></g></g><g id="ANALYSE_copy_5" data-name="ANALYSE   *** copy 5"><g id="Absiise_ORD._Highlight" data-name="Absiise ORD.  Highlight" class="cls-33"><polyline class="cls-34" points="31.03 42.75 31.03 56.12 55.69 56.12"/><polygon class="cls-35" points="55.34 57.31 57.41 56.12 55.34 54.92 55.34 57.31"/></g><g id="Absiise_ORDONNE_aa" data-name="Absiise ORDONNE  aa"><polyline class="cls-36" points="31.03 39.19 31.03 56.12 54.96 56.12"/><polygon points="28.64 39.89 31.03 35.75 33.42 39.89 28.64 39.89"/><polygon points="54.26 58.51 58.41 56.12 54.26 53.72 54.26 58.51"/></g><path id="crv" class="cls-37" d="M53.94,38.8S40.15,44.17,40.15,52v1.25"/><g id="Layer_75_copy_5" data-name="Layer 75 copy 5"><text class="cls-38" transform="translate(41.56 38.81)">σ</text><text class="cls-38" transform="translate(50.27 49.7)">ε</text></g></g></svg>