<svg id="Layer_23_copy" data-name="Layer 23 copy" xmlns="http://www.w3.org/2000/svg" xmlns:xlink="http://www.w3.org/1999/xlink" viewBox="0 0 64 64"><defs><style>.cls-1,.cls-15,.cls-16,.cls-17,.cls-18,.cls-19,.cls-2,.cls-3,.cls-7{stroke:#820057;}.cls-1,.cls-10,.cls-12,.cls-15,.cls-16,.cls-17,.cls-18,.cls-19,.cls-2,.cls-20,.cls-21,.cls-22,.cls-26,.cls-3,.cls-4,.cls-7{stroke-linecap:round;}.cls-1,.cls-10,.cls-12,.cls-15,.cls-16,.cls-17,.cls-18,.cls-19,.cls-2,.cls-20,.cls-21,.cls-22,.cls-3,.cls-4,.cls-7{stroke-linejoin:round;}.cls-1,.cls-10,.cls-15,.cls-16,.cls-17,.cls-18,.cls-19,.cls-2,.cls-3,.cls-7{stroke-width:0.78px;}.cls-1{fill:url(#linear-gradient);}.cls-2{fill:#276880;}.cls-3{fill:url(#linear-gradient-2);}.cls-12,.cls-20,.cls-21,.cls-24,.cls-25,.cls-4{stroke:#000;}.cls-4{stroke-width:0.39px;fill:url(#linear-gradient-3);}.cls-5{fill:url(#linear-gradient-4);}.cls-6{opacity:0.3;}.cls-7{fill:url(#linear-gradient-5);}.cls-8{fill:url(#linear-gradient-6);}.cls-9{fill:#820057;}.cls-10{fill:#323232;stroke:#323232;}.cls-11{fill:url(#linear-gradient-7);}.cls-12,.cls-22,.cls-26{stroke-width:0.28px;}.cls-13{fill:url(#top_white);}.cls-14{opacity:0.4;}.cls-15{fill:url(#linear-gradient-8);}.cls-16{fill:url(#linear-gradient-9);}.cls-17{fill:url(#linear-gradient-10);}.cls-18{fill:url(#linear-gradient-11);}.cls-19{fill:url(#linear-gradient-12);}.cls-20{fill:url(#Medium_BLUE_gradient_FRONT);}.cls-21{fill:url(#Dark_BLUE_gradient_LEFT);}.cls-22,.cls-26{fill:none;}.cls-22,.cls-23,.cls-26{stroke:#fff;}.cls-23,.cls-24,.cls-25,.cls-26{stroke-miterlimit:10;}.cls-23{stroke-width:2.83px;fill:url(#Medium_BLUE_gradient_FRONT-2);}.cls-24{fill:url(#Medium_BLUE_gradient_FRONT-3);}.cls-25{fill:url(#Dark_BLUE_gradient_LEFT-2);}</style><linearGradient id="linear-gradient" x1="37.84" y1="18.66" x2="30.13" y2="36.94" gradientUnits="userSpaceOnUse"><stop offset="0.01" stop-color="#8fd2eb"/><stop offset="0.13" stop-color="#25667e"/><stop offset="0.22" stop-color="#8fd2eb"/><stop offset="0.77" stop-color="#78bbd4"/><stop offset="0.91" stop-color="#8dd0e9"/><stop offset="1" stop-color="#286a82"/></linearGradient><linearGradient id="linear-gradient-2" x1="30.23" y1="35.38" x2="14.27" y2="43.89" gradientUnits="userSpaceOnUse"><stop offset="0" stop-color="#fafafa"/><stop offset="1" stop-color="#d0d1d3"/></linearGradient><linearGradient id="linear-gradient-3" x1="26.64" y1="38.45" x2="13.29" y2="42.01" gradientUnits="userSpaceOnUse"><stop offset="0" stop-color="#fafafa"/><stop offset="1" stop-color="#a8a8a8"/></linearGradient><linearGradient id="linear-gradient-4" x1="33.17" y1="30.89" x2="14.95" y2="45.16" gradientUnits="userSpaceOnUse"><stop offset="0" stop-color="#fafafa"/><stop offset="1" stop-color="#d0d0d0"/></linearGradient><linearGradient id="linear-gradient-5" x1="28.34" y1="21.36" x2="28.34" y2="24.12" gradientUnits="userSpaceOnUse"><stop offset="0" stop-color="#8fd2eb"/><stop offset="1" stop-color="#286a82"/></linearGradient><linearGradient id="linear-gradient-6" x1="22.58" y1="24.22" x2="13.2" y2="32.18" gradientUnits="userSpaceOnUse"><stop offset="0" stop-color="#fafafa"/><stop offset="0.22" stop-color="#f6f6f6"/><stop offset="0.45" stop-color="#e8e8e8"/><stop offset="0.7" stop-color="#d3d3d3"/><stop offset="0.71" stop-color="#d1d1d1"/><stop offset="1" stop-color="#989898"/></linearGradient><linearGradient id="linear-gradient-7" x1="60.7" y1="10.67" x2="-10.86" y2="36.8" xlink:href="#linear-gradient-4"/><linearGradient id="top_white" x1="43.69" y1="20.95" x2="4.96" y2="58.56" gradientUnits="userSpaceOnUse"><stop offset="0" stop-color="#fff"/><stop offset="1" stop-color="#f0f0f0"/></linearGradient><linearGradient id="linear-gradient-8" x1="10.94" y1="37.19" x2="14.99" y2="37.19" xlink:href="#linear-gradient-2"/><linearGradient id="linear-gradient-9" x1="19.72" y1="41.28" x2="6.96" y2="39.71" xlink:href="#linear-gradient-4"/><linearGradient id="linear-gradient-10" x1="19.95" y1="38.57" x2="-3.41" y2="48.09" xlink:href="#linear-gradient-4"/><linearGradient id="linear-gradient-11" x1="8.08" y1="40.97" x2="31.59" y2="20.9" gradientUnits="userSpaceOnUse"><stop offset="0" stop-color="#286a82"/><stop offset="0.09" stop-color="#8dd0e9"/><stop offset="0.23" stop-color="#78bbd4"/><stop offset="0.78" stop-color="#8fd2eb"/><stop offset="0.87" stop-color="#25667e"/><stop offset="0.99" stop-color="#8fd2eb"/></linearGradient><linearGradient id="linear-gradient-12" x1="31.61" y1="24.76" x2="-31.11" y2="69.39" gradientUnits="userSpaceOnUse"><stop offset="0" stop-color="#92d5ee"/><stop offset="0.48" stop-color="#599bb4"/><stop offset="1" stop-color="#185971"/></linearGradient><linearGradient id="Medium_BLUE_gradient_FRONT" x1="50.29" y1="11.77" x2="55.31" y2="18.5" gradientUnits="userSpaceOnUse"><stop offset="0" stop-color="#8cd7f5"/><stop offset="1" stop-color="#376e8c"/></linearGradient><linearGradient id="Dark_BLUE_gradient_LEFT" x1="50.29" y1="11.77" x2="55.31" y2="18.5" gradientUnits="userSpaceOnUse"><stop offset="0" stop-color="#82bedc"/><stop offset="1" stop-color="#285a78"/></linearGradient><linearGradient id="Medium_BLUE_gradient_FRONT-2" x1="26.99" y1="40.48" x2="41.21" y2="40.48" xlink:href="#Medium_BLUE_gradient_FRONT"/><linearGradient id="Medium_BLUE_gradient_FRONT-3" x1="31.91" y1="39.28" x2="43.74" y2="47.16" xlink:href="#Medium_BLUE_gradient_FRONT"/><linearGradient id="Dark_BLUE_gradient_LEFT-2" x1="31.91" y1="39.28" x2="43.74" y2="47.16" xlink:href="#Dark_BLUE_gradient_LEFT"/></defs><title>29152_AAAe__R21XArtboard 1</title><g id="V_1x_copy" data-name="V  1x copy"><g id="SUJET"><g id="contour"><path d="M40.8,15a2.39,2.39,0,0,1,1.88.89,2.75,2.75,0,0,1,.49,2.2,5.3,5.3,0,0,1-1,3.1c-.07.19-.15.37-.24.56a2.52,2.52,0,0,1-2,1.52h-.11l-12,16.51a2.93,2.93,0,0,1-.77,2.55,2.44,2.44,0,0,1-1.73.9,1.22,1.22,0,0,1-1-.44.25.25,0,0,0,0-.07C22,44,18,46.18,18,46.18a3.11,3.11,0,0,1-1.11.41,2.79,2.79,0,0,1-.44,0,2.77,2.77,0,0,1-2.56-1.38h0l0,0c-.67-.54-1.15-1.53-.95-3.33a5.59,5.59,0,0,1,3.89-4.51c.73-.23,7.68-1.46,7.68-1.46a2.48,2.48,0,0,1,.45,0,1.53,1.53,0,0,1,1.27.64l8.95-12.45L14.68,30.47a3,3,0,0,1-.91.13,2.85,2.85,0,0,1-2.91-2.1,2.82,2.82,0,0,1-.56-1.76,4.63,4.63,0,0,1,3.16-4.64s26.54-6.94,26.9-7A1.72,1.72,0,0,1,40.8,15m0-.78a2.45,2.45,0,0,0-.62.07c-.36.08-24.2,6.31-26.92,7a5.43,5.43,0,0,0-3.74,5.4,3.63,3.63,0,0,0,.62,2.1,3.66,3.66,0,0,0,3.63,2.55,3.88,3.88,0,0,0,1.14-.17l18.25-5.66-7.1,9.86a2.22,2.22,0,0,0-1.12-.28,2.68,2.68,0,0,0-.62.07c-1.14.2-7,1.24-7.75,1.48a6.32,6.32,0,0,0-4.43,5.16,4.32,4.32,0,0,0,1.12,3.93,3.54,3.54,0,0,0,3.15,1.62,3.19,3.19,0,0,0,.57,0,4,4,0,0,0,1.37-.5c.34-.18,3.64-1.92,5.88-3.15a2,2,0,0,0,1.14.33,3.18,3.18,0,0,0,2.31-1.16,3.84,3.84,0,0,0,1-2.88L40.3,24.06a3.41,3.41,0,0,0,2.34-1.92,4.58,4.58,0,0,0,.24-.54A6.07,6.07,0,0,0,44,18.14a2.32,2.32,0,0,1,0-.24,3.24,3.24,0,0,0-.65-2.43l0,0a3.17,3.17,0,0,0-2.49-1.18Z"/></g><path class="cls-1" d="M37,18.83a2.6,2.6,0,0,1,1.78-2,.91.91,0,0,0-.42-.2c-.85-.19-1.74.84-2,2.3a3.74,3.74,0,0,0,.22,2.15l1.43.8h0L36.86,21A3.84,3.84,0,0,1,37,18.83Z"/><path class="cls-2" d="M39.44,19.66a3,3,0,0,0-.71-2.79,2.6,2.6,0,0,0-1.78,2A3.84,3.84,0,0,0,36.86,21l1.12.93A2.78,2.78,0,0,0,39.44,19.66Z"/><path class="cls-3" d="M17.89,44a2.59,2.59,0,0,0,.72-3.12c-.56-.8-1.81-.7-2.78.23a2.6,2.6,0,0,0-.72,3.12C15.68,45,16.92,44.88,17.89,44Z"/><path class="cls-4" d="M13.61,42.77a5.59,5.59,0,0,1,3.89-4.51c.73-.23,7.68-1.46,7.68-1.46a1.65,1.65,0,0,1,1.37.23,1.67,1.67,0,0,0-2-1s-6.95,1.23-7.68,1.47A5.57,5.57,0,0,0,13,42c-.21,1.81.28,2.8.94,3.33A4.42,4.42,0,0,1,13.61,42.77Z"/><path class="cls-5" d="M16.72,46.87a3.37,3.37,0,0,1-2.4-1,4,4,0,0,1-.76-3.23c.36-3.18,3.45-4.27,3.8-4.38C18.07,38,25,36.8,25,36.79a2.27,2.27,0,0,1,.43,0c1.43,0,1.75,1.82,1.75,2.46a4.85,4.85,0,0,1-1.49,3c-.73.51-7.84,4.23-7.91,4.27a3.06,3.06,0,0,1-1.07.39Z"/><path d="M25.45,36.88h0c1.31,0,1.61,1.72,1.61,2.32a4.73,4.73,0,0,1-1.43,2.89c-.58.4-5.42,3-7.92,4.27a2.74,2.74,0,0,1-1,.37,3.23,3.23,0,0,1-2.3-1,3.87,3.87,0,0,1-.72-3.11,5.39,5.39,0,0,1,3.7-4.27c.57-.18,5.25-1,7.66-1.45a1.81,1.81,0,0,1,.39,0m0-.28a1.82,1.82,0,0,0-.45,0s-6.95,1.23-7.68,1.46a5.58,5.58,0,0,0-3.9,4.51C13,46.89,16.32,47,16.72,47h0a3,3,0,0,0,1.1-.41s7.19-3.76,7.93-4.28a5,5,0,0,0,1.55-3.12c0-.82-.41-2.6-1.89-2.6Z"/><g class="cls-6"><path class="cls-7" d="M27.64,20.65a2.24,2.24,0,0,1,2.42-1.23h0c-.79-.68-2.07-.24-2.85,1s-.79,2.77,0,3.45a1.24,1.24,0,0,0,.43.25C26.86,23.41,26.86,21.87,27.64,20.65Z"/><path class="cls-2" d="M30.06,22.87c.78-1.23.78-2.77,0-3.45a2.24,2.24,0,0,0-2.42,1.23c-.78,1.22-.78,2.76,0,3.45A2.26,2.26,0,0,0,30.06,22.87Z"/></g><path class="cls-8" d="M11.37,29.25a.21.21,0,0,1-.1,0,3.51,3.51,0,0,1-1-2.38,4.8,4.8,0,0,1,3.26-4.78c1.09-.28,26.55-6.94,26.92-7a2,2,0,0,1,.44,0,2.57,2.57,0,0,1,2.37,1.87.16.16,0,0,1,0,.16.17.17,0,0,1-.1,0H43A8.68,8.68,0,0,0,41,16.18L14.24,23.25a4.11,4.11,0,0,0-3.09,4.3A3.8,3.8,0,0,0,11.5,29a.15.15,0,0,1,0,.18A.16.16,0,0,1,11.37,29.25Z"/><path class="cls-9" d="M40.87,15.12A2.44,2.44,0,0,1,43.1,16.9,8.59,8.59,0,0,0,41,16h0L14.2,23.12A4.27,4.27,0,0,0,11,27.55a3.81,3.81,0,0,0,.36,1.55,3.35,3.35,0,0,1-1-2.27,4.63,4.63,0,0,1,3.16-4.64s26.54-6.94,26.91-7a1.42,1.42,0,0,1,.41-.05m0-.28h0a2.51,2.51,0,0,0-.48.05c-.36.08-25.83,6.74-26.91,7a4.94,4.94,0,0,0-3.37,4.91,3.62,3.62,0,0,0,1.07,2.48.27.27,0,0,0,.36,0,.28.28,0,0,0,.09-.35,3.55,3.55,0,0,1-.33-1.43,4,4,0,0,1,3-4.16L41,16.31a9.68,9.68,0,0,1,2,.84.33.33,0,0,0,.14,0,.32.32,0,0,0,.19-.07.31.31,0,0,0,.08-.33,2.71,2.71,0,0,0-2.5-1.95Z"/><path class="cls-10" d="M40.88,18.14a1.25,1.25,0,0,1,0,.21A1.61,1.61,0,0,1,39.78,20L13.61,27.76a1.43,1.43,0,0,1-.43,0,1,1,0,0,0,1.29.56l26.17-7.78a1.63,1.63,0,0,0,1.12-1.64C41.76,18.09,41.16,18.09,40.88,18.14Z"/><path class="cls-11" d="M13.85,30.5a2.63,2.63,0,0,1-2.8-2.68,4.38,4.38,0,0,1,3-4.45L41,16.23a1.86,1.86,0,0,1,.43-.05,1.68,1.68,0,0,1,1.22.45,2.14,2.14,0,0,1,.46,1.57c-.1,3.14-2,4-2.78,4.25-.64.18-24.56,7.61-25.58,7.93a3,3,0,0,1-.86.12ZM41.07,17.93a1.25,1.25,0,0,0-.39.06L14.1,25.45a1.75,1.75,0,0,0-1.23,1.87c.1,1.15.9,1.27,1.23,1.27a1.84,1.84,0,0,0,.41,0L40.7,20.77A1.83,1.83,0,0,0,42,18.94C42,18,41.34,17.93,41.07,17.93Z"/><path d="M41.39,16.38a1.47,1.47,0,0,1,1.07.39,1.92,1.92,0,0,1,.41,1.43c-.1,3-1.88,3.84-2.64,4.06s-24.56,7.61-25.58,7.93a2.92,2.92,0,0,1-.8.11,2.43,2.43,0,0,1-2.6-2.48,4.19,4.19,0,0,1,2.87-4.26L41,16.42a1.37,1.37,0,0,1,.38,0M14.1,28.79a2.1,2.1,0,0,0,.48-.06L40.74,21a2,2,0,0,0,1.41-2,1.07,1.07,0,0,0-1.08-1.21,1.68,1.68,0,0,0-.43.06L14.05,25.26a2,2,0,0,0-1.37,2.08,1.39,1.39,0,0,0,1.42,1.45M41.39,16a2.24,2.24,0,0,0-.48,0L14,23.18a4.61,4.61,0,0,0-3.16,4.64,2.81,2.81,0,0,0,3,2.87,3.05,3.05,0,0,0,.92-.13s24.93-7.74,25.57-7.92c1.34-.39,2.83-1.63,2.92-4.43C43.32,16.3,42.12,16,41.39,16ZM14.1,28.4c-.44,0-1-.21-1-1.09a1.57,1.57,0,0,1,1.09-1.67l26.59-7.47a1.05,1.05,0,0,1,.32-.05c.3,0,.69.13.69.82a1.63,1.63,0,0,1-1.12,1.64L14.47,28.36a2,2,0,0,1-.37,0Z"/><path class="cls-12" d="M41.66,18.31l-1.37-.77a2.18,2.18,0,0,0-2.07.89,4.48,4.48,0,0,0-.74,2.68l-11.8,16.4a2.4,2.4,0,0,0-1.72.9,2.54,2.54,0,0,0-.49,3.1l1,1.3,2.31-3.92L39,22.07Z"/><path class="cls-13" d="M41.9,18.61c-.74-.53-1.89.07-2.56,1.34a3.67,3.67,0,0,0-.44,2.1L26.71,38.91a2.4,2.4,0,0,0-1.72.9,2.55,2.55,0,0,0-.49,3.11c.6.73,1.81.52,2.69-.46A3,3,0,0,0,28,39.9L40,23.39a2.43,2.43,0,0,0,2-1.52C42.71,20.6,42.65,19.14,41.9,18.61Z"/><g id="remanence" class="cls-14"><path class="cls-15" d="M14,38.63a2.59,2.59,0,0,0,.73-3.12c-.57-.8-1.81-.7-2.78.23a2.59,2.59,0,0,0-.72,3.12C11.78,39.66,13,39.56,14,38.63Z"/><path class="cls-16" d="M13.59,45.45c1.22.84,3.17.46,4.73-1,1.86-1.79,2.49-4.48,1.4-6a2.49,2.49,0,0,0-1.16-.88l-7.08-2.4a3.37,3.37,0,0,0-3.17.79c-1.53,1.24-2.16,3.28-1.39,4.56a3.77,3.77,0,0,0,1,1Z"/><path class="cls-17" d="M14.09,46.25c1.23.83,3.17.45,4.73-1,1.86-1.78,2.49-4.47,1.4-6a2.44,2.44,0,0,0-1.16-.88L12,35.92a3.33,3.33,0,0,0-3.17.78C7.28,38,6.66,40,7.42,41.26a3.8,3.8,0,0,0,.95,1Z"/><path class="cls-18" d="M8.25,41l1.07,1.63L32.57,21.54l-1.41-1.25c-.79-.71-2.08-.3-2.88.91A3.64,3.64,0,0,0,27.66,23L11.71,36.91a2.52,2.52,0,0,0-2.36.53,2.93,2.93,0,0,0-1,3.56"/><path class="cls-19" d="M32.38,21.34c-.78-.71-2.07-.3-2.88.91a3.63,3.63,0,0,0-.61,1.84L12.62,38.37a2.48,2.48,0,0,0-2.35.54,2.92,2.92,0,0,0-1,3.55c.6,1,2,1.12,3.22.19A3.31,3.31,0,0,0,13.76,40L29.69,25.89c.79.45,1.92,0,2.65-1.08S33.17,22.05,32.38,21.34Z"/></g></g><g id="Layer_25_copy" data-name="Layer 25 copy"><path class="cls-20" d="M59.12,12.7a1.37,1.37,0,0,0-1.7-.93l-6.67,2-.14.06A5.53,5.53,0,0,0,48.89,12L45.8,16.8l5.15,2a5.37,5.37,0,0,0,.46-2.45h.11l6.67-2A1.37,1.37,0,0,0,59.12,12.7Z"/><path class="cls-21" d="M59.12,12.7a1.37,1.37,0,0,0-1.7-.93l-6.67,2-.14.06A5.53,5.53,0,0,0,48.89,12L45.8,16.8l5.15,2a5.37,5.37,0,0,0,.46-2.45h.11l6.67-2A1.37,1.37,0,0,0,59.12,12.7Z"/><path class="cls-22" d="M58.67,13c-.21-.73-.82-.85-1.55-.64l-6.77,2A5.5,5.5,0,0,0,49,12.76l-2.45,3.76"/></g><g id="_Group_ok" data-name="&lt;Group&gt;  ***ok"><path id="CONTOUR_OK_" data-name="CONTOUR OK ***" class="cls-23" d="M28.33,44.36a1.28,1.28,0,0,0-.61.15,1.33,1.33,0,0,0-.58,1.79,6.09,6.09,0,0,0,3.34,3.07,5.8,5.8,0,0,0,2,.35c3.33,0,6.55-2.74,8-6.8a11.13,11.13,0,0,0,.37-6.81,6.54,6.54,0,0,0-3.91-4.53,6.44,6.44,0,0,0-5.31.61.63.63,0,0,1-.67,0,2.5,2.5,0,0,0-1.63-.51l-2.13,5.17,5.4-.28a4.53,4.53,0,0,0-.07-1.31.61.61,0,0,1,.29-.64,3.8,3.8,0,0,1,3.21-.5,4,4,0,0,1,2.26,2.76A8.67,8.67,0,0,1,38,42c-1.05,2.92-3.37,5-5.52,5a3.09,3.09,0,0,1-1-.18,3.5,3.5,0,0,1-1.87-1.77A1.34,1.34,0,0,0,28.33,44.36Z"/><path class="cls-24" d="M28.33,44.36a1.28,1.28,0,0,0-.61.15,1.33,1.33,0,0,0-.58,1.79,6.09,6.09,0,0,0,3.34,3.07,5.8,5.8,0,0,0,2,.35c3.33,0,6.55-2.74,8-6.8a11.13,11.13,0,0,0,.37-6.81,6.54,6.54,0,0,0-3.91-4.53,6.44,6.44,0,0,0-5.31.61.63.63,0,0,1-.67,0,2.5,2.5,0,0,0-1.63-.51l-2.13,5.17,5.4-.28a4.53,4.53,0,0,0-.07-1.31.61.61,0,0,1,.29-.64,3.8,3.8,0,0,1,3.21-.5,4,4,0,0,1,2.26,2.76A8.67,8.67,0,0,1,38,42c-1.05,2.92-3.37,5-5.52,5a3.09,3.09,0,0,1-1-.18,3.5,3.5,0,0,1-1.87-1.77A1.34,1.34,0,0,0,28.33,44.36Z"/><path class="cls-25" d="M28.33,44.36a1.28,1.28,0,0,0-.61.15,1.33,1.33,0,0,0-.58,1.79,6.09,6.09,0,0,0,3.34,3.07,5.8,5.8,0,0,0,2,.35c3.33,0,6.55-2.74,8-6.8a11.13,11.13,0,0,0,.37-6.81,6.54,6.54,0,0,0-3.91-4.53,6.44,6.44,0,0,0-5.31.61.63.63,0,0,1-.67,0,2.5,2.5,0,0,0-1.63-.51l-2.13,5.17,5.4-.28a4.53,4.53,0,0,0-.07-1.31.61.61,0,0,1,.29-.64,3.8,3.8,0,0,1,3.21-.5,4,4,0,0,1,2.26,2.76A8.67,8.67,0,0,1,38,42c-1.05,2.92-3.37,5-5.52,5a3.09,3.09,0,0,1-1-.18,3.5,3.5,0,0,1-1.87-1.77A1.34,1.34,0,0,0,28.33,44.36Z"/><path class="cls-26" d="M40.4,36.71c-.63-2.21-1.52-3.86-3.38-4.54a6.42,6.42,0,0,0-5.3.62.61.61,0,0,1-.67,0,2.83,2.83,0,0,0-1.35-.5l-1.69,4m10.32,6.35c-1.06,2.92-3.65,5-5.79,5a3,3,0,0,1-1.05-.18,4.36,4.36,0,0,1-2.17-1.87c-.23-.44-.4-.63-.9-.63a1.43,1.43,0,0,0-.61.14"/></g></g></svg>