<svg id="Layer_34_copy_2" data-name="Layer 34 copy 2" xmlns="http://www.w3.org/2000/svg" xmlns:xlink="http://www.w3.org/1999/xlink" viewBox="0 0 64 64"><defs><style>.cls-1,.cls-13,.cls-16,.cls-17,.cls-18,.cls-19,.cls-2,.cls-20,.cls-21,.cls-22,.cls-23,.cls-24,.cls-25,.cls-26,.cls-27,.cls-32,.cls-35,.cls-37,.cls-38,.cls-41,.cls-8{fill:none;}.cls-2,.cls-40,.cls-41,.cls-42,.cls-43{stroke:#797979;}.cls-12,.cls-2,.cls-35,.cls-38,.cls-41,.cls-7,.cls-8{stroke-linecap:round;stroke-linejoin:round;}.cls-3{fill:#323232;}.cls-4{fill:url(#white_front_right);}.cls-5{fill:url(#top_white);}.cls-6{fill:#797979;}.cls-38,.cls-7{stroke:#323232;}.cls-7{stroke-width:0.17px;fill:url(#top_white-2);}.cls-8{stroke:#787878;}.cls-41,.cls-8{stroke-width:0.28px;}.cls-12,.cls-9{fill:#82bddb;}.cls-10{fill:url(#New_Gradient_Swatch_1);}.cls-11{fill:#5a9ab8;}.cls-12{stroke:#aadcfa;stroke-width:0.3px;}.cls-13{stroke:#fff;stroke-width:0.1px;}.cls-13,.cls-16,.cls-29,.cls-36,.cls-37,.cls-40,.cls-42,.cls-43{stroke-miterlimit:10;}.cls-14{fill:#fff;}.cls-15{clip-path:url(#clip-path);}.cls-16,.cls-17,.cls-18,.cls-19,.cls-20,.cls-21,.cls-22,.cls-23,.cls-24,.cls-25,.cls-26,.cls-27,.cls-29{stroke:#231f20;}.cls-16,.cls-17,.cls-18,.cls-19,.cls-20,.cls-21,.cls-22,.cls-23,.cls-24,.cls-25,.cls-26,.cls-27,.cls-29,.cls-32,.cls-33{stroke-width:0.19px;}.cls-17{stroke-miterlimit:9.18;}.cls-18{stroke-miterlimit:8.36;}.cls-19{stroke-miterlimit:7.55;}.cls-20{stroke-miterlimit:6.73;}.cls-21{stroke-miterlimit:5.91;}.cls-22{stroke-miterlimit:5.09;}.cls-23{stroke-miterlimit:4.27;}.cls-24{stroke-miterlimit:3.45;}.cls-25{stroke-miterlimit:2.64;}.cls-26{stroke-miterlimit:1.82;}.cls-27,.cls-32,.cls-33{stroke-miterlimit:1;}.cls-28{clip-path:url(#clip-path-2);}.cls-29,.cls-33{fill:#231f20;}.cls-30{clip-path:url(#clip-path-3);}.cls-31{clip-path:url(#clip-path-5);}.cls-32,.cls-33{stroke:#000;}.cls-34{clip-path:url(#clip-path-6);}.cls-35,.cls-36,.cls-37{stroke:#285977;stroke-width:0.57px;}.cls-36{fill:#285977;}.cls-39{fill:url(#white_front_right-2);}.cls-40{stroke-width:0.25px;fill:url(#top_white-3);}.cls-42{fill:#e1e1e1;}.cls-42,.cls-43{stroke-width:0.71px;}.cls-43{fill:url(#top_white-4);}</style><linearGradient id="white_front_right" x1="10.7" y1="29.95" x2="24.02" y2="53.02" gradientUnits="userSpaceOnUse"><stop offset="0" stop-color="#fff"/><stop offset="1" stop-color="#d2d2d2"/></linearGradient><linearGradient id="top_white" x1="11.99" y1="27.08" x2="26.81" y2="27.08" gradientUnits="userSpaceOnUse"><stop offset="0" stop-color="#fff"/><stop offset="1" stop-color="#f0f0f0"/></linearGradient><linearGradient id="top_white-2" x1="25.89" y1="29.75" x2="27.77" y2="33" xlink:href="#top_white"/><linearGradient id="New_Gradient_Swatch_1" x1="25.35" y1="34" x2="28.82" y2="28.24" gradientUnits="userSpaceOnUse"><stop offset="0" stop-color="#5a9ab8"/><stop offset="0.47" stop-color="#aadcfa"/><stop offset="0.53" stop-color="#9accea"/><stop offset="0.65" stop-color="#71a3c1"/><stop offset="0.81" stop-color="#306280"/><stop offset="0.83" stop-color="#285a78"/></linearGradient><clipPath id="clip-path"><polygon class="cls-1" points="41.64 39.42 33.84 34.84 36.89 33.08 36.89 21.01 41.65 23.77 41.64 39.42"/></clipPath><clipPath id="clip-path-2"><path id="_" data-name="**" class="cls-1" d="M41.65,23.75l10.21-6V33.45l-10.23,6Z"/></clipPath><clipPath id="clip-path-3"><polygon class="cls-1" points="20.74 42.42 17.04 40.25 17.04 28.23 20.74 30.38 20.74 42.42"/></clipPath><clipPath id="clip-path-5"><path class="cls-1" d="M20.74,30.38,36.89,21l0,12.05L20.74,42.42Zm7.63,4.17a5.17,5.17,0,0,0,2.36-4.07c0-1.5-1.07-2.1-2.37-1.35A5.18,5.18,0,0,0,26,33.2c0,1.5,1.06,2.11,2.36,1.35"/></clipPath><clipPath id="clip-path-6"><path class="cls-1" d="M38.72,10.08,28.54,16l4.67,2.75L17,28.23l3.7,2.15L36.89,21l4.76,2.74,10.21-6Z"/></clipPath><linearGradient id="white_front_right-2" x1="14.43" y1="36.39" x2="24.03" y2="53.02" xlink:href="#white_front_right"/><linearGradient id="top_white-3" x1="25.89" y1="29.75" x2="27.76" y2="32.99" xlink:href="#top_white"/><linearGradient id="top_white-4" x1="25.65" y1="38.34" x2="31.88" y2="38.34" xlink:href="#top_white"/></defs><title>5210_AAAe__R21XArtboard 1</title><g id="version_1_X_ok_copy_2" data-name="version 1 X ok copy 2"><path class="cls-2" d="M34.74,28.93l-4.28-2.47L27.3,28.52V24.63l-4.13-2.47L11.47,29l0,19.3,11.64,5.79,11.63-5.86ZM19.65,33.52V37a1.57,1.57,0,0,1-.91-1.63,5.28,5.28,0,0,1,2.4-4.16c.93-.54,1.72-.39,2.13.26Zm9.68,6.66-2.55-1.33H26.5v-1c0-.85,1.28-1.63,2-2,1.16-.67,2.24-.13,2.24,1.2A4.45,4.45,0,0,1,29.33,40.18Z"/><g id="_copy_2" data-name="** copy 2"><path class="cls-3" d="M15.71,31.39,26.81,25V41L15.72,49.5Zm5.22,5.31a5.3,5.3,0,0,0,2.4-4.16c0-1.54-1.08-2.15-2.41-1.38a5.29,5.29,0,0,0-2.41,4.16c0,1.53,1.09,2.15,2.42,1.38"/><polygon id="int_dessus" data-name="int dessus" class="cls-3" points="19.45 45.57 15.72 43.41 26.81 38.85 30.53 41.01 19.45 45.57"/><polygon class="cls-4" points="19.41 33.52 19.45 45.57 15.72 43.41 15.71 31.39 11.99 29.2 12 48 23.13 53.53 23.13 35.68 19.41 33.52"/><polygon id="dessus_2" data-name="dessus 2" class="cls-5" points="15.71 31.39 11.99 29.2 23.14 22.78 26.81 24.95 15.71 31.39"/><path class="cls-6" d="M23.12,35.68l11.13-6.44,0,18.71L23.13,53.53Zm5.42,4.92A4.61,4.61,0,0,0,30.63,37c0-1.33-.95-1.87-2.1-1.2a4.59,4.59,0,0,0-2.09,3.62c0,1.33.94,1.87,2.1,1.2"/><polygon id="dessus_1" data-name="dessus 1" class="cls-7" points="23.12 35.68 19.41 33.52 30.53 27.08 34.25 29.24 23.12 35.68"/><polyline class="cls-8" points="23.13 53.53 23.13 35.68 19.41 33.52 19.45 45.57 15.61 43.51 15.62 31.39 11.99 29.2"/></g><g id="Layer_27_copy_2" data-name="Layer 27 copy 2"><polygon class="cls-9" points="33.14 34.44 28.58 31.69 28.58 16.04 33.21 18.79 33.14 34.44"/><path class="cls-10" d="M30,29l-4.18-2.44a1.67,1.67,0,0,1,.69,1.52,5.17,5.17,0,0,1-2.36,4.07,1.66,1.66,0,0,1-1.68.17l4.19,2.43a1.66,1.66,0,0,0,1.68-.16,5.19,5.19,0,0,0,2.35-4.08A1.63,1.63,0,0,0,30,29Z"/><path class="cls-11" d="M20.74,30.38,36.89,21l0,12.05L20.74,42.42Zm7.63,4.17a5.17,5.17,0,0,0,2.36-4.07c0-1.5-1.07-2.1-2.37-1.35A5.18,5.18,0,0,0,26,33.2c0,1.5,1.06,2.11,2.36,1.35"/><polygon class="cls-9" points="41.64 39.42 33.84 34.84 36.89 33.08 36.89 21.01 41.65 23.77 41.64 39.42"/><path id="_2" data-name="**" class="cls-11" d="M41.65,23.75l10.21-6V33.45l-10.23,6Z"/><polygon class="cls-12" points="20.74 42.42 17.04 40.25 17.04 28.23 20.74 30.38 20.74 42.42"/><path id="cercle" class="cls-13" d="M28.3,34.8a5.3,5.3,0,0,0,2.41-4.16c0-1.53-1.09-2.15-2.42-1.38a5.31,5.31,0,0,0-2.41,4.17c0,1.53,1.09,2.14,2.42,1.37"/><path id="top" class="cls-14" d="M38.72,10.08,28.54,16l5.08,2.75L17.45,28.23l3.29,2.15L36.89,21l4.76,2.74,10.21-6Z"/></g><g id="Layer_30_copy_2" data-name="Layer 30 copy 2"><g class="cls-15"><g id="Blend_v" data-name="Blend   v"><line class="cls-16" x1="51.18" y1="13.19" x2="51.18" y2="52.9"/><line class="cls-17" x1="47.95" y1="12.37" x2="47.95" y2="52.08"/><line class="cls-18" x1="44.71" y1="11.55" x2="44.71" y2="51.26"/><line class="cls-19" x1="41.48" y1="10.73" x2="41.48" y2="50.43"/><line class="cls-20" x1="38.24" y1="9.91" x2="38.25" y2="49.61"/><line class="cls-21" x1="35.01" y1="9.09" x2="35.01" y2="48.79"/><line class="cls-22" x1="31.78" y1="8.27" x2="31.78" y2="47.97"/><line class="cls-23" x1="28.54" y1="7.45" x2="28.55" y2="47.15"/><line class="cls-24" x1="25.31" y1="6.63" x2="25.32" y2="46.33"/><line class="cls-25" x1="22.07" y1="5.81" x2="22.08" y2="45.51"/><line class="cls-26" x1="18.84" y1="4.99" x2="18.85" y2="44.69"/><line class="cls-27" x1="15.61" y1="4.17" x2="15.62" y2="43.87"/></g></g><g id="cote_" data-name="cote   **"><g class="cls-28"><g id="Blend_v-2" data-name="Blend v"><line class="cls-29" x1="28.07" y1="60.17" x2="62.13" y2="39.75"/><line class="cls-29" x1="26.84" y1="56.68" x2="60.91" y2="36.27"/><line class="cls-29" x1="25.62" y1="53.19" x2="59.69" y2="32.79"/><line class="cls-29" x1="24.4" y1="49.7" x2="58.46" y2="29.3"/><line class="cls-29" x1="23.17" y1="46.21" x2="57.24" y2="25.82"/><line class="cls-29" x1="21.95" y1="42.72" x2="56.02" y2="22.34"/><line class="cls-29" x1="20.72" y1="39.23" x2="54.8" y2="18.86"/><line class="cls-29" x1="19.5" y1="35.74" x2="53.57" y2="15.37"/><line class="cls-29" x1="18.28" y1="32.24" x2="52.35" y2="11.89"/></g><g id="Blend_h" data-name="Blend  h"><line class="cls-29" x1="27.97" y1="53.53" x2="27.97" y2="13.84"/><line class="cls-29" x1="30.92" y1="52.66" x2="30.92" y2="12.97"/><line class="cls-29" x1="33.87" y1="51.79" x2="33.86" y2="12.1"/><line class="cls-29" x1="36.82" y1="50.92" x2="36.81" y2="11.23"/><line class="cls-29" x1="39.77" y1="50.05" x2="39.76" y2="10.36"/><line class="cls-29" x1="42.73" y1="49.19" x2="42.71" y2="9.48"/><line class="cls-29" x1="45.68" y1="48.32" x2="45.65" y2="8.61"/><line class="cls-29" x1="48.63" y1="47.45" x2="48.6" y2="7.74"/><line class="cls-29" x1="51.58" y1="46.58" x2="51.55" y2="6.87"/><line class="cls-29" x1="54.53" y1="45.71" x2="54.49" y2="6"/><line class="cls-29" x1="57.48" y1="44.84" x2="57.44" y2="5.13"/><line class="cls-29" x1="60.43" y1="43.97" x2="60.39" y2="4.26"/></g></g></g><g id="face_" data-name="face   *"><g class="cls-30"><g id="Blend_h-2" data-name="Blend  h"><line class="cls-29" x1="34.2" y1="59.39" x2="-0.13" y2="41.79"/><line class="cls-29" x1="34.56" y1="56.53" x2="0.2" y2="38.65"/><line class="cls-29" x1="34.92" y1="53.66" x2="0.52" y2="35.51"/><line class="cls-29" x1="35.28" y1="50.8" x2="0.85" y2="32.36"/><line class="cls-29" x1="35.64" y1="47.93" x2="1.17" y2="29.22"/><line class="cls-29" x1="35.99" y1="45.07" x2="1.5" y2="26.07"/><line class="cls-29" x1="36.35" y1="42.21" x2="1.82" y2="22.93"/><line class="cls-29" x1="36.71" y1="39.34" x2="2.15" y2="19.78"/></g><g id="Blend_v-3" data-name="Blend   v"><line class="cls-29" x1="35.23" y1="17.19" x2="35.23" y2="56.9"/><line class="cls-29" x1="33.18" y1="16.71" x2="33.18" y2="56.41"/><line class="cls-29" x1="31.12" y1="16.23" x2="31.12" y2="55.93"/><line class="cls-29" x1="29.06" y1="15.75" x2="29.07" y2="55.45"/><line class="cls-29" x1="27.01" y1="15.26" x2="27.01" y2="54.97"/><line class="cls-29" x1="24.95" y1="14.78" x2="24.96" y2="54.48"/><line class="cls-29" x1="22.9" y1="14.3" x2="22.9" y2="54"/><line class="cls-29" x1="20.84" y1="13.82" x2="20.85" y2="53.52"/><line class="cls-29" x1="18.78" y1="13.33" x2="18.79" y2="53.03"/><line class="cls-29" x1="16.73" y1="12.85" x2="16.74" y2="52.55"/><line class="cls-29" x1="14.67" y1="12.37" x2="14.68" y2="52.07"/><line class="cls-29" x1="12.62" y1="11.88" x2="12.63" y2="51.59"/></g></g></g><g id="c1_" data-name="c1    *"><g class="cls-15"><g id="Blend_h-3" data-name="Blend  h"><line class="cls-29" x1="49.59" y1="60.42" x2="15.26" y2="39.17"/><line class="cls-29" x1="50.26" y1="56.73" x2="15.92" y2="35.66"/><line class="cls-29" x1="50.93" y1="53.04" x2="16.58" y2="32.15"/><line class="cls-29" x1="51.61" y1="49.35" x2="17.24" y2="28.65"/><line class="cls-29" x1="52.28" y1="45.66" x2="17.9" y2="25.14"/><line class="cls-29" x1="52.95" y1="41.97" x2="18.55" y2="21.64"/><line class="cls-29" x1="53.62" y1="38.28" x2="19.21" y2="18.13"/><line class="cls-29" x1="54.29" y1="34.59" x2="19.87" y2="14.63"/><line class="cls-29" x1="54.96" y1="30.9" x2="20.53" y2="11.12"/></g><g id="Blend_v-4" data-name="Blend   v"><line class="cls-16" x1="51.17" y1="13.19" x2="51.17" y2="52.9"/><line class="cls-17" x1="47.94" y1="12.37" x2="47.94" y2="52.08"/><line class="cls-18" x1="44.7" y1="11.55" x2="44.7" y2="51.26"/><line class="cls-19" x1="41.47" y1="10.73" x2="41.47" y2="50.43"/><line class="cls-20" x1="38.24" y1="9.91" x2="38.24" y2="49.61"/><line class="cls-21" x1="35" y1="9.09" x2="35.01" y2="48.79"/><line class="cls-22" x1="31.77" y1="8.27" x2="31.78" y2="47.97"/><line class="cls-23" x1="28.54" y1="7.45" x2="28.54" y2="47.15"/><line class="cls-24" x1="25.31" y1="6.63" x2="25.31" y2="46.33"/><line class="cls-25" x1="22.07" y1="5.81" x2="22.08" y2="45.51"/><line class="cls-26" x1="18.84" y1="4.99" x2="18.85" y2="44.69"/><line class="cls-27" x1="15.61" y1="4.17" x2="15.62" y2="43.87"/></g></g></g><g id="_Clip_Group_ok" data-name="&lt;Clip Group&gt;ok"><g class="cls-31"><g id="Blend_h-4" data-name="Blend  h"><line class="cls-32" x1="47.76" y1="38.21" x2="12.24" y2="57.39"/><line class="cls-33" x1="46.77" y1="34.84" x2="11.41" y2="54.14"/><line class="cls-33" x1="45.77" y1="31.47" x2="10.59" y2="50.89"/><line class="cls-33" x1="44.77" y1="28.1" x2="9.77" y2="47.64"/><line class="cls-33" x1="43.78" y1="24.74" x2="8.95" y2="44.39"/><line class="cls-33" x1="42.78" y1="21.37" x2="8.12" y2="41.14"/><line class="cls-33" x1="41.78" y1="18" x2="7.3" y2="37.89"/><line class="cls-33" x1="40.78" y1="14.63" x2="6.48" y2="34.63"/></g><g id="Blend_h-5" data-name="Blend  h"><line class="cls-32" x1="37.18" y1="18.78" x2="37.18" y2="59.15"/><line class="cls-33" x1="33.7" y1="17.96" x2="33.7" y2="58.24"/><line class="cls-33" x1="30.22" y1="17.14" x2="30.23" y2="57.32"/><line class="cls-33" x1="26.74" y1="16.32" x2="26.76" y2="56.41"/><line class="cls-33" x1="23.26" y1="15.5" x2="23.28" y2="55.49"/><line class="cls-33" x1="19.78" y1="14.68" x2="19.81" y2="54.58"/><line class="cls-33" x1="16.3" y1="13.86" x2="16.33" y2="53.66"/><line class="cls-33" x1="12.82" y1="13.05" x2="12.86" y2="52.75"/></g></g></g><g id="top_ok" data-name="top   * ok"><g class="cls-34"><g id="Blend_h-6" data-name="Blend  h"><line class="cls-29" x1="30.23" y1="44.98" x2="-4.64" y2="23.75"/><line class="cls-29" x1="33.69" y1="43.09" x2="-1.12" y2="21.9"/><line class="cls-29" x1="37.15" y1="41.2" x2="2.39" y2="20.05"/><line class="cls-29" x1="40.62" y1="39.31" x2="5.91" y2="18.21"/><line class="cls-29" x1="44.08" y1="37.42" x2="9.43" y2="16.36"/><line class="cls-29" x1="47.55" y1="35.54" x2="12.94" y2="14.51"/><line class="cls-29" x1="51.01" y1="33.65" x2="16.46" y2="12.66"/><line class="cls-29" x1="54.47" y1="31.76" x2="19.98" y2="10.81"/><line class="cls-29" x1="57.94" y1="29.87" x2="23.49" y2="8.96"/><line class="cls-29" x1="61.4" y1="27.98" x2="27.01" y2="7.11"/><line class="cls-29" x1="64.86" y1="26.1" x2="30.53" y2="5.26"/><line class="cls-29" x1="68.33" y1="24.21" x2="34.05" y2="3.42"/></g><g id="Blend_v-5" data-name="Blend   v"><line class="cls-29" x1="69.58" y1="26.76" x2="35.29" y2="46.78"/><line class="cls-29" x1="66.95" y1="24.44" x2="32.66" y2="44.45"/><line class="cls-29" x1="64.31" y1="22.11" x2="30.02" y2="42.12"/><line class="cls-29" x1="61.67" y1="19.78" x2="27.38" y2="39.79"/><line class="cls-29" x1="59.04" y1="17.45" x2="24.75" y2="37.46"/><line class="cls-29" x1="56.4" y1="15.12" x2="22.11" y2="35.14"/><line class="cls-29" x1="53.76" y1="12.79" x2="19.48" y2="32.81"/><line class="cls-29" x1="51.13" y1="10.46" x2="16.84" y2="30.48"/><line class="cls-29" x1="48.49" y1="8.14" x2="14.2" y2="28.15"/><line class="cls-29" x1="45.86" y1="5.81" x2="11.57" y2="25.82"/><line class="cls-29" x1="43.22" y1="3.48" x2="8.93" y2="23.5"/><line class="cls-29" x1="40.58" y1="1.15" x2="6.29" y2="21.17"/></g></g></g></g><g id="renfort_copy_2" data-name="renfort copy 2"><polyline class="cls-35" points="29.43 16.57 33.21 18.91 29.43 21"/><line class="cls-36" x1="41.51" y1="23.74" x2="41.51" y2="38.85"/><path class="cls-37" d="M17,28.23l3.7,2.15L36.89,21l4.76,2.74,10.21-6M20.74,42.42v-12L17,28.23m18.14,5.45,1.73-1V21.23"/><path id="contour_" data-name="contour **" class="cls-38" d="M52.09,17.79,38.86,9.93v0L28.86,16v5L16.86,28v12.3l3.77,2.17,13.2-7.58,7.81,4.58,10.34-6ZM28.37,34.55c-1.3.76-2.36.15-2.36-1.35a5.3,5.3,0,0,1,2.49-4.07c.07,0,.36-.07.36-.1v2.66l1.4.94A5.2,5.2,0,0,1,28.37,34.55Z"/></g><g id="RRRRR_copy_2" data-name="RRRRR copy 2"><path class="cls-2" d="M30.72,27.42l3.94,1.9,0,18.83"/><path class="cls-6" d="M23.12,35.67l11.13-6.43,0,18.71L23.13,53.53ZM28.56,41A5.28,5.28,0,0,0,31,36.8c0-1.53-1.09-2.15-2.42-1.38a5.31,5.31,0,0,0-2.4,4.16c0,1.53,1.09,2.15,2.42,1.38"/><polygon class="cls-39" points="19.41 33.52 19.45 45.59 12 48 23.13 53.53 23.15 35.68 19.41 33.52"/><polygon id="dessus_1_plat_" data-name="dessus 1 plat *" class="cls-40" points="23.12 35.67 19.41 33.52 30.53 27.08 34.25 29.24 23.12 35.67"/><polyline id="dessus_1_" data-name="dessus 1  *" class="cls-41" points="19.41 33.52 30.53 27.08 34.25 29.24"/><g id="_Group_" data-name="&lt;Group&gt; **"><path class="cls-42" d="M30.16,36.28c1.34-.77,2.43-.15,2.43,1.38a5.34,5.34,0,0,1-2.41,4.17c-1.33.77-2.42.15-2.42-1.38A5.3,5.3,0,0,1,30.16,36.28Z"/><path class="cls-43" d="M29.78,34.84a1.71,1.71,0,0,0-1.72.17,5.34,5.34,0,0,0-2.41,4.17,1.7,1.7,0,0,0,.71,1.54L28.46,42a1.7,1.7,0,0,1-.7-1.55,5.3,5.3,0,0,1,2.4-4.17,1.68,1.68,0,0,1,1.72-.16Z"/></g></g></g></svg>