<svg xmlns="http://www.w3.org/2000/svg" xmlns:xlink="http://www.w3.org/1999/xlink" viewBox="0 0 64 64"><defs><style>.cls-1{filter:url(#luminosity-noclip);}.cls-2{fill:url(#linear-gradient);}.cls-3{fill:#831300;}.cls-4{isolation:isolate;}.cls-5{fill:url(#white_left);}.cls-6{fill:url(#top_white);}.cls-7{fill:#323232;}.cls-25,.cls-38,.cls-45,.cls-49,.cls-50,.cls-52,.cls-8{fill:none;}.cls-15,.cls-16,.cls-17,.cls-38,.cls-8{stroke:#000;}.cls-15,.cls-16,.cls-17,.cls-25,.cls-30,.cls-31,.cls-47,.cls-50,.cls-52,.cls-53,.cls-8{stroke-linecap:round;stroke-linejoin:round;}.cls-9{fill:url(#New_Gradient_Swatch_3);}.cls-10{fill:#2d2d2d;}.cls-11{fill:url(#linear-gradient-2);}.cls-12{fill:url(#linear-gradient-3);}.cls-13{fill:url(#linear-gradient-4);}.cls-14{fill:#e1e1e1;}.cls-15,.cls-16,.cls-28,.cls-29{stroke-width:0.2px;}.cls-15{fill:url(#linear-gradient-5);}.cls-16{fill:url(#linear-gradient-6);}.cls-17,.cls-49,.cls-50,.cls-55{stroke-width:0.5px;}.cls-17{fill:url(#linear-gradient-7);}.cls-18{fill:#00415f;}.cls-19{fill:url(#linear-gradient-8);}.cls-20{fill:url(#linear-gradient-9);}.cls-21{fill:url(#linear-gradient-10);}.cls-22{fill:url(#linear-gradient-11);}.cls-23{fill:url(#linear-gradient-12);}.cls-24{opacity:0.6;mix-blend-mode:multiply;}.cls-25{stroke:#2d2d2d;}.cls-25,.cls-27{stroke-width:0.15px;}.cls-26{mix-blend-mode:overlay;}.cls-27,.cls-28,.cls-29{stroke:#00415f;}.cls-27,.cls-28,.cls-29,.cls-38,.cls-45,.cls-49,.cls-55,.cls-57,.cls-58{stroke-miterlimit:10;}.cls-27{fill:url(#linear-gradient-13);}.cls-28{fill:url(#linear-gradient-14);}.cls-29{fill:url(#linear-gradient-15);}.cls-30,.cls-31,.cls-47{stroke:#323232;}.cls-30,.cls-31,.cls-38{stroke-width:0.25px;}.cls-30{fill:url(#linear-gradient-16);}.cls-31{fill:url(#linear-gradient-17);}.cls-32{fill:url(#linear-gradient-18);}.cls-33{fill:#6d6d6d;}.cls-34{fill:url(#linear-gradient-19);}.cls-35{fill:url(#linear-gradient-20);}.cls-36{fill:url(#linear-gradient-21);}.cls-37{fill:url(#linear-gradient-22);}.cls-39{fill:url(#linear-gradient-23);}.cls-40{mask:url(#mask);}.cls-41{mix-blend-mode:luminosity;fill:url(#linear-gradient-24);}.cls-42,.cls-53,.cls-55,.cls-58{fill:#285977;}.cls-43{fill:url(#linear-gradient-25);}.cls-44{fill:url(#top_white-2);}.cls-45{stroke:#fff;stroke-width:0.44px;}.cls-46{fill:#003755;}.cls-47{stroke-width:0.09px;fill:url(#top_white-3);}.cls-48{fill:#82bddb;}.cls-49,.cls-50,.cls-52,.cls-53,.cls-55,.cls-57,.cls-58{stroke:#003755;}.cls-51{fill:#fff;}.cls-52{stroke-width:0.28px;}.cls-53{stroke-width:0.81px;}.cls-54{fill:url(#top_white-4);}.cls-56{fill:#f1f0f0;}.cls-57{stroke-width:0.36px;fill:url(#top_white-5);}.cls-58{stroke-width:0.41px;}</style><linearGradient id="linear-gradient" x1="8.82" y1="31.36" x2="12.36" y2="37.47" gradientUnits="userSpaceOnUse"><stop offset="0" stop-color="#fc3f05"/><stop offset="1" stop-color="#c10e00"/></linearGradient><linearGradient id="white_left" x1="5" y1="42.48" x2="59.01" y2="42.48" gradientUnits="userSpaceOnUse"><stop offset="0" stop-color="#f5f5f5"/><stop offset="1" stop-color="#bebebe"/></linearGradient><linearGradient id="top_white" x1="5" y1="42.48" x2="59.01" y2="42.48" gradientUnits="userSpaceOnUse"><stop offset="0" stop-color="#fff"/><stop offset="1" stop-color="#f0f0f0"/></linearGradient><linearGradient id="New_Gradient_Swatch_3" x1="10.74" y1="42.77" x2="41.49" y2="42.77" gradientUnits="userSpaceOnUse"><stop offset="0" stop-color="#464646"/><stop offset="0.99" stop-color="#141414"/></linearGradient><linearGradient id="linear-gradient-2" x1="35.09" y1="18.49" x2="32.27" y2="29.42" gradientUnits="userSpaceOnUse"><stop offset="0" stop-color="#e3e3e3"/><stop offset="1" stop-color="#737373"/></linearGradient><linearGradient id="linear-gradient-3" x1="27.25" y1="15.28" x2="30.5" y2="27.65" gradientUnits="userSpaceOnUse"><stop offset="0" stop-color="#595959"/><stop offset="0.31" stop-color="#737373"/><stop offset="0.77" stop-color="#e3e3e3"/><stop offset="0.84" stop-color="#e0e0e0"/><stop offset="0.88" stop-color="#d6d7d7"/><stop offset="0.92" stop-color="#c6c7c8"/><stop offset="0.96" stop-color="#b0b1b2"/><stop offset="1" stop-color="#929496"/><stop offset="1" stop-color="#919395"/></linearGradient><linearGradient id="linear-gradient-4" x1="30.01" y1="14.23" x2="31.46" y2="19.55" gradientUnits="userSpaceOnUse"><stop offset="0" stop-color="#a6a6a6"/><stop offset="0.01" stop-color="#a8a8a8"/><stop offset="0.07" stop-color="#bebebe"/><stop offset="0.15" stop-color="#cfcfcf"/><stop offset="0.25" stop-color="#dadada"/><stop offset="0.39" stop-color="#e1e1e1"/><stop offset="0.77" stop-color="#e3e3e3"/></linearGradient><linearGradient id="linear-gradient-5" x1="40.39" y1="22.03" x2="1.32" y2="46.51" xlink:href="#linear-gradient-2"/><linearGradient id="linear-gradient-6" x1="47.48" y1="8.83" x2="11.14" y2="29.37" xlink:href="#linear-gradient-2"/><linearGradient id="linear-gradient-7" x1="46.56" y1="9.94" x2="12.1" y2="29.42" xlink:href="#linear-gradient-2"/><linearGradient id="linear-gradient-8" x1="26.88" y1="19.99" x2="31.3" y2="27.64" xlink:href="#linear-gradient"/><linearGradient id="linear-gradient-9" x1="26.56" y1="31.53" x2="36.15" y2="14.93" gradientUnits="userSpaceOnUse"><stop offset="0" stop-color="#379614"/><stop offset="1" stop-color="#55b432"/></linearGradient><linearGradient id="linear-gradient-10" x1="24.66" y1="21.27" x2="28.93" y2="28.66" gradientUnits="userSpaceOnUse"><stop offset="0" stop-color="#a0e1fa"/><stop offset="1" stop-color="#73c3e1"/></linearGradient><linearGradient id="linear-gradient-11" x1="21.46" y1="23.12" x2="23.35" y2="26.4" gradientUnits="userSpaceOnUse"><stop offset="0" stop-color="#fbe86a"/><stop offset="1" stop-color="#f1cf2f"/></linearGradient><linearGradient id="linear-gradient-12" x1="36.38" y1="19.91" x2="37.84" y2="22.45" xlink:href="#linear-gradient-11"/><linearGradient id="linear-gradient-13" x1="32.4" y1="17.86" x2="27.05" y2="33.51" gradientUnits="userSpaceOnUse"><stop offset="0" stop-color="#93d2f0"/><stop offset="0.5" stop-color="#5a9cb5"/><stop offset="0.9" stop-color="#195a72"/></linearGradient><linearGradient id="linear-gradient-14" x1="256.58" y1="-26.44" x2="255.6" y2="-23.56" gradientTransform="matrix(1.46, -0.1, -0.01, 1.01, -354.2, 74.39)" xlink:href="#linear-gradient-13"/><linearGradient id="linear-gradient-15" x1="-376.08" y1="329.46" x2="-370.76" y2="324.79" gradientTransform="matrix(0.65, 0.28, -0.13, 0.96, 328.84, -185.26)" xlink:href="#linear-gradient-13"/><linearGradient id="linear-gradient-16" x1="27.65" y1="15.82" x2="32.89" y2="15.82" gradientUnits="userSpaceOnUse"><stop offset="0" stop-color="#737373"/><stop offset="1" stop-color="#e3e3e3"/></linearGradient><linearGradient id="linear-gradient-17" x1="31.26" y1="13.62" x2="15.32" y2="30.83" xlink:href="#linear-gradient-2"/><linearGradient id="linear-gradient-18" x1="29.36" y1="13.93" x2="31.18" y2="13.93" xlink:href="#linear-gradient-16"/><linearGradient id="linear-gradient-19" x1="38.44" y1="6.34" x2="13.36" y2="21.33" xlink:href="#linear-gradient-13"/><linearGradient id="linear-gradient-20" x1="28.24" y1="11.87" x2="28.77" y2="10.89" gradientUnits="userSpaceOnUse"><stop offset="0" stop-color="#737373"/><stop offset="0.82" stop-color="#e3e3e3"/></linearGradient><linearGradient id="linear-gradient-21" x1="31.78" y1="10.83" x2="32.21" y2="11.81" gradientUnits="userSpaceOnUse"><stop offset="0.18" stop-color="#e3e3e3"/><stop offset="1" stop-color="#737373"/></linearGradient><linearGradient id="linear-gradient-22" x1="30.26" y1="12.17" x2="19.87" y2="18.38" xlink:href="#linear-gradient-13"/><linearGradient id="linear-gradient-23" x1="8.27" y1="30.24" x2="13.21" y2="38.78" xlink:href="#linear-gradient"/><filter id="luminosity-noclip" x="7.85" y="30.5" width="5.87" height="7.81" filterUnits="userSpaceOnUse" color-interpolation-filters="sRGB"><feFlood flood-color="#fff" result="bg"/><feBlend in="SourceGraphic" in2="bg"/></filter><mask id="mask" x="7.85" y="30.5" width="5.87" height="7.81" maskUnits="userSpaceOnUse"><g id="mercure_" data-name="mercure **" class="cls-1"><path class="cls-2" d="M10.8,38A2.53,2.53,0,0,1,8.21,35.5a2.18,2.18,0,0,1,1.27-2l.2-.1V30.86H11.9v2.5l.19.11a2.27,2.27,0,0,1,1.26,2A2.47,2.47,0,0,1,10.8,38Z"/><path class="cls-3" d="M11.54,31.22v2.35l.37.21A2,2,0,0,1,13,35.51a2.12,2.12,0,0,1-2.19,2.08A2.17,2.17,0,0,1,8.57,35.5a1.85,1.85,0,0,1,1.07-1.7l.4-.2V31.22h1.5m.73-.72H9.32v2.65A2.56,2.56,0,0,0,7.85,35.5a2.89,2.89,0,0,0,3,2.81,2.84,2.84,0,0,0,2.92-2.8,2.65,2.65,0,0,0-1.45-2.36V30.5Z"/></g></mask><linearGradient id="linear-gradient-24" x1="10.23" y1="34.1" x2="10.23" y2="37.78" gradientUnits="userSpaceOnUse"><stop offset="0" stop-color="#fff"/><stop offset="1"/></linearGradient><linearGradient id="linear-gradient-25" x1="9.49" y1="23.26" x2="12.52" y2="23.26" gradientUnits="userSpaceOnUse"><stop offset="0" stop-color="#93acbb"/><stop offset="1" stop-color="#8ca4b3"/></linearGradient><linearGradient id="top_white-2" x1="9.98" y1="23.51" x2="12.03" y2="23.51" xlink:href="#top_white"/><linearGradient id="top_white-3" x1="35.51" y1="30.54" x2="43.44" y2="30.54" xlink:href="#top_white"/><linearGradient id="top_white-4" x1="42.69" y1="31.69" x2="43.79" y2="33.6" xlink:href="#top_white"/><linearGradient id="top_white-5" x1="42.88" y1="36.39" x2="46.01" y2="36.39" xlink:href="#top_white"/></defs><title>aaavvv_A33AAe__R21XArtboard 1</title><g class="cls-4"><g id="_1X_copy_2" data-name="1X copy 2"><polygon class="cls-5" points="59.01 36.6 37.21 56.55 5 42.91 29.19 28.4 59.01 36.6"/><path class="cls-6" d="M29.34,29.48,57,37.08,37,55.38,7.2,42.75,29.34,29.48m-.15-1.08L5,42.91,37.21,56.55,59,36.6,29.19,28.4Z"/><path class="cls-7" d="M29.23,28.67l29.28,8L37.16,56.26,5.55,42.87l23.68-14.2m0-.27L5,42.91,37.21,56.55,59,36.6,29.19,28.4Z"/><path class="cls-8" d="M33.13,38.27,28,41.39m4.15,5.78,3.51-2.74-14.52-5-3.75,1.84"/><path class="cls-9" d="M29,44.18,40,47.69l-5.29,3.66L23.81,47.27ZM10.74,42.11l7.64,2.83,5.54-2.75-8-2.84Zm14.81-5.29,10.56,3.31,5.38-2.88-11-3Z"/><g id="Layer_77_copy_2" data-name="Layer 77 copy 2"><path class="cls-10" d="M38.07,12.92c1.8,0,3.07,2.1,3.07,2.1l-.37,1.18-4.91,1.19a12.6,12.6,0,0,0,.86,3.77c.53,1.05,1.65,3,2.62,3l-.59.25,2.47-.77.45,1a2.32,2.32,0,0,1-1,.6L24,30.53a.62.62,0,0,1-.4.13C21.3,30.66,19,23.25,19,19.73c0,0-.13-2.64.85-3l.14,0,8-1.64V15h-.32l.24-.17c0-.5.08-1.06,2.08-1.2V13h1v.63a2.17,2.17,0,0,1,1.45.46l5.62-1.17m0-.25h0l-5.64,1.14a2.22,2.22,0,0,0-1.38-.4v-.07c0-.14.21-.35.07-.35H29.5c-.14,0-.5.21-.5.35v.07c-1,.19-2,.68-2,1.27v.2L19.55,16.5c-.07,0,0,.05-.06.1-1,.54-.82,2.87-.81,3.15,0,3.57,2.34,11.16,4.92,11.16a.9.9,0,0,0,.51-.15l16.65-5.32a2.55,2.55,0,0,0,1.1-.68.25.25,0,0,0,0-.26l-.45-1a.24.24,0,0,0-.22-.14h-.08l-1.7.53-.1,0c-.59,0-1.51-1.09-2.39-2.86a11.37,11.37,0,0,1-.81-3.46l4.68-1.14a.23.23,0,0,0,.18-.17l.38-1.18a.24.24,0,0,0,0-.2c-.05-.09-1.36-2.22-3.28-2.22Z"/><path class="cls-11" d="M41.65,24.6a2.24,2.24,0,0,1-1,.6L23.83,30.59l.45-.9Z"/><path class="cls-12" d="M39.33,24.15c-1,0-2.09-1.94-2.62-3a15.57,15.57,0,0,1-1-4.72L19.79,17l-.45,1.1-.15,2.57c0,2.55,2.32,9.51,4.12,9.51S39.33,24.15,39.33,24.15Z"/><path class="cls-13" d="M41.12,15s-1.27-2.1-3.07-2.1L19.79,16.74l2.55,3.14Z"/><path class="cls-14" d="M23.61,30.79c-2.46,0-4.77-7.6-4.77-11.06,0-.08-.1-2.13.59-2.85a.75.75,0,0,1,.58-.26c1.27,0,2.46,2.65,2.51,2.76l-.14.75c0,.05-.05-.13-.1-.13h0c-.05,0-.09.2-.11.16-.35-.78-1.4-2.66-2.14-2.66-.18,0-.47.57-.47,1.95,0,5.73,3.05,9.93,3.47,9.94a.63.63,0,0,0,.63-.34c0-.05.06-.05.11-.05h0a.12.12,0,0,1,.11.05l.52,1A.8.8,0,0,1,23.61,30.79Z"/><path d="M20,16.74c1.2,0,2.4,2.7,2.4,2.7l-.15.89S21,17.49,20,17.49c-.3,0-.59.6-.59,2,0,5.61,3,10,3.59,10a.75.75,0,0,0,.75-.45l.52,1.05a.73.73,0,0,1-.67.52c-2.32,0-4.64-7.41-4.64-10.93,0,0-.15-3,1-3m0-.25a.91.91,0,0,0-.67.3c-.71.75-.63,2.73-.62,3,0,3.57,2.31,11.16,4.89,11.16a1,1,0,0,0,.91-.7.22.22,0,0,0,0-.18l-.52-1c0-.09-.13-.06-.22-.06h0c-.1,0-.19,0-.22.09s-.12.24-.51.24c-.49-.16-3.34-4.34-3.34-9.8,0-1.37.28-1.76.35-1.78.55,0,1.51,1.57,2,2.69a.25.25,0,0,0,.23.15h0a.26.26,0,0,0,.22-.2l.15-.9a.39.39,0,0,0,0-.15c-.13-.29-1.3-2.84-2.63-2.84Z"/><polygon class="cls-15" points="41.2 23.63 41.65 24.6 24.28 30.14 23.76 29.09 41.2 23.63"/><polygon class="cls-16" points="40.75 16.2 22.26 20.69 22.41 19.43 41.12 15.02 40.75 16.2"/><line class="cls-17" x1="40.75" y1="16.2" x2="22.34" y2="20.66"/><path d="M38.07,12.92c1.8,0,3.07,2.1,3.07,2.1l-.37,1.18-4.91,1.19a12.6,12.6,0,0,0,.86,3.77c.53,1.05,1.65,3,2.62,3l-.59.25,2.47-.77.45,1a2.32,2.32,0,0,1-1,.6L24,30.53a.62.62,0,0,1-.4.13C21.3,30.66,19,23.25,19,19.73c0,0-.13-2.64.85-3l.14,0,8-1.64V15h-.32l.24-.17c0-.5.08-1.06,2.08-1.2V13h1v.63a2.17,2.17,0,0,1,1.45.46l5.62-1.17m0-.5H38l-5.39,1.13a3.94,3.94,0,0,0-1-.28.45.45,0,0,0-.48-.28H29.5c-.23,0-.5.08-.56.28C27.78,13.52,27,14,27,14.73v0l-7.38,1.55a.38.38,0,0,0-.23.16c-1,.61-1,2.68-.93,3.34,0,3.29,2.24,11.4,5.15,11.4a1.18,1.18,0,0,0,.62-.17l16.62-5.32a2.6,2.6,0,0,0,1.2-.76.49.49,0,0,0,.07-.52l-.45-1a.49.49,0,0,0-.45-.29.39.39,0,0,0-.15,0l-1.63.51h-.1c-.39,0-1.23-.85-2.17-2.72a10.92,10.92,0,0,1-.76-3.16l4.47-1.09a.5.5,0,0,0,.36-.33l.38-1.18a.53.53,0,0,0,0-.41c-.06-.1-1.45-2.34-3.5-2.34Z"/><path class="cls-18" d="M38.13,17.46c.24,0,.28.11.6.22a1.35,1.35,0,0,0,.5.07l.63,0h.19a3.73,3.73,0,0,1,1.52.32c.4.22.22.81.2,1.2a2,2,0,0,1-.06.41,1.69,1.69,0,0,1,.33,0c.32,0,.66.09.76.34.16.45-.36.85-.59,1.17s-.46.53-.76.53a.94.94,0,0,1-.43-.13c-.19-.11-.52-.16-.76-.27a4.08,4.08,0,0,0-1.23.33c-.42.2-.52.6-.7,1a2.22,2.22,0,0,1-.8,1c-.28.22-.59.38-.87.56a1.46,1.46,0,0,1-1.08.43.92.92,0,0,1-.4-.08c-.27-.17-.46-.45-.72-.65s-.4-.17-.54-.28a2.13,2.13,0,0,1-.33.63c-.38.5-1,.45-1.59.55a3.16,3.16,0,0,0-.13,1c0,.32,0,.65-.38.81a2.09,2.09,0,0,1-.62.1.43.43,0,0,1-.31-.08c-.16-.2.27-.33,0-.63a.74.74,0,0,0-.64-.28,3.55,3.55,0,0,0-1,.2,3.28,3.28,0,0,0-.74.33,1.21,1.21,0,0,1-.67.3.71.71,0,0,1-.2,0,5.18,5.18,0,0,0-1-.27.63.63,0,0,0-.41.16.89.89,0,0,1-.59.22,2.59,2.59,0,0,1-.92-.25,1.68,1.68,0,0,0-.58-.13,1.06,1.06,0,0,0-.42.09c-.26.12-.38.33-.7.35h-.05c-.21,0-.47-.08-.7-.08a.51.51,0,0,0-.27.06c-.21.11-.32.42-.42.62a1.19,1.19,0,0,1-1,.5,1.14,1.14,0,0,1-.43-.08,2.43,2.43,0,0,1-.58-.43c-.15-.13-.34-.46-.52-.49h-.05a3.42,3.42,0,0,0-.9.31,4.82,4.82,0,0,1-1.3.56h-.16c-.48,0-1.53-.15-1.21-.72.22-.38,1.14-.6,1.52-.71a4.65,4.65,0,0,1,1-.15h.05l.55,0a1,1,0,0,0,.25,0,4.5,4.5,0,0,0,.73-.43,5.16,5.16,0,0,1,.77-.31c.62-.19,1.18-.48,1.8-.7a1.34,1.34,0,0,0,.63-.31,2.7,2.7,0,0,0,.36-.72c.16-.44-.24-1.07.39-1.1h.1c.66,0,1.31.35,2,.35h.13c.28,0,.69-.07.53-.4s-.45-.24-.34-.57a5.22,5.22,0,0,1,.33-.54,3.83,3.83,0,0,1,.43-.83,1.26,1.26,0,0,1,.87-.35c.31,0,.63-.08.85-.08h0c.58,0,1.06.4,1.62.49a2.68,2.68,0,0,0,.49.11c.28,0,.52-.06.56-.44s-.27-.57-.08-.86.48-.26.78-.26l.29,0a2.57,2.57,0,0,1,1,.38c.73.35,1.3,1,2.06,1a1.56,1.56,0,0,0,.66-.15c.29-.13.31-.52.59-.66a.45.45,0,0,1,.2,0,2.43,2.43,0,0,1,.72.23,1.25,1.25,0,0,0,.23-.23c.21-.3-.25-.66-.38-1s-.1-.4-.28-.4h-.06l-.19.1c-.08.18-.46.37-.61.46a1.88,1.88,0,0,1-1,.25h0c-.37,0-1.11-.27-.74-.73a4.3,4.3,0,0,1,1.83-.55l1.07-.15c.36-.05.72,0,1.08-.09l.21,0m0-.25-.25,0a5.07,5.07,0,0,1-.56.05l-.51,0-.67.09-.4.06a4.16,4.16,0,0,0-2,.65.57.57,0,0,0-.11.62,1.22,1.22,0,0,0,1,.52A2.16,2.16,0,0,0,35.77,19l.09,0a2.48,2.48,0,0,0,.57-.67l0-.25h0s0,.28,0,.3a1.31,1.31,0,0,0,.06.27,1.88,1.88,0,0,0,.22.42c.09.12.23.34.19.4l-.08.1-.06,0a1.49,1.49,0,0,0-.61-.17.65.65,0,0,0-.31.08.91.91,0,0,0-.39.42.55.55,0,0,1-.2.24,1.4,1.4,0,0,1-.55.12,2.37,2.37,0,0,1-1.24-.52,4.92,4.92,0,0,0-.71-.42l-.22-.12a2,2,0,0,0-.86-.29h-.3a1.13,1.13,0,0,0-1,.38.76.76,0,0,0,0,.73,1,1,0,0,1,.06.26c0,.17-.07.24-.31.24a2.72,2.72,0,0,1-.39,0h-.06a3.68,3.68,0,0,1-.63-.17,3.37,3.37,0,0,0-1-.21h-.35l-.51,0a1.45,1.45,0,0,0-1.05.31,2.06,2.06,0,0,0-.35.63l-.12.25-.12.2a1.34,1.34,0,0,0-.22.38.55.55,0,0,0,.23.66.35.35,0,0,1,.11.09,1.07,1.07,0,0,1-.32.05h-.11a3.45,3.45,0,0,1-.92-.17,4.13,4.13,0,0,0-1-.18h-.11a.63.63,0,0,0-.47.2.84.84,0,0,0-.13.67,1,1,0,0,1,0,.39,2.46,2.46,0,0,1-.31.65.75.75,0,0,1-.37.18l-.15.05-.79.31a10.31,10.31,0,0,1-1,.39,3.84,3.84,0,0,0-.81.33c-.1,0-.2.12-.31.19a1.53,1.53,0,0,1-.38.22l-.18,0H18l-.29,0h-.06a4.72,4.72,0,0,0-1,.16l-.11,0c-.63.18-1.33.4-1.56.8a.58.58,0,0,0,0,.59c.28.48,1.26.5,1.45.5h.19a2.48,2.48,0,0,0,.95-.37c.13-.07.27-.15.41-.21l.13,0a2.53,2.53,0,0,1,.68-.24,1,1,0,0,1,.22.23l.18.2a2.9,2.9,0,0,0,.64.47,1.49,1.49,0,0,0,.54.1,1.46,1.46,0,0,0,1.27-.64l.06-.14c.07-.13.15-.32.25-.37a.33.33,0,0,1,.15,0c.11,0,.22.09.32.11s.26.12.38.12h0l.06-.08a1.09,1.09,0,0,0,.58-.28,1.1,1.1,0,0,1,.21-.14.65.65,0,0,1,.31-.08,1.25,1.25,0,0,1,.49.11l.06,0a2.73,2.73,0,0,0,.95.25,1.12,1.12,0,0,0,.75-.29.36.36,0,0,1,.25-.1,1.49,1.49,0,0,1,.49.13,3.06,3.06,0,0,0,.43.13l.26,0a1.18,1.18,0,0,0,.69-.27l.11-.07a3,3,0,0,1,.69-.3,3.24,3.24,0,0,1,.88-.19.5.5,0,0,1,.45.18.16.16,0,0,1,0,.1.42.42,0,0,0,0,.53.63.63,0,0,0,.51.18,2.22,2.22,0,0,0,.73-.13,1,1,0,0,0,.52-1v-.09a3.45,3.45,0,0,1,.07-.67l.2,0a1.88,1.88,0,0,0,1.4-.6,2.34,2.34,0,0,0,.26-.43l.06,0a1.83,1.83,0,0,1,.2.1,2.37,2.37,0,0,1,.28.27,2.5,2.5,0,0,0,.46.39,1,1,0,0,0,.53.12,1.79,1.79,0,0,0,1.25-.49l.21-.13a5.42,5.42,0,0,0,.64-.42,2.61,2.61,0,0,0,.88-1.06l.09-.21a1.1,1.1,0,0,1,.48-.67,3.8,3.8,0,0,1,1.1-.29l.31.1a1.63,1.63,0,0,1,.36.13,1.14,1.14,0,0,0,.55.16,1.24,1.24,0,0,0,1-.63l.17-.21A1.55,1.55,0,0,0,43,19.7a1.09,1.09,0,0,0-1-.7h0s0,.12,0,.07a1,1,0,0,1,0-.15c.05-.39.12-.88-.35-1.13a3.59,3.59,0,0,0-1.41-.31h-.42l-.32,0h-.31a1.45,1.45,0,0,1-.42-.05,1.94,1.94,0,0,1-.24-.11.77.77,0,0,0-.44-.13Z"/><g id="rouge"><path class="cls-19" d="M42.8,20c-.13-.34-.71-.38-1.09-.31a2,2,0,0,0,.06-.41c0-.39.2-1-.2-1.2a3.73,3.73,0,0,0-1.52-.32,5.79,5.79,0,0,1-1.32-.06c-.4-.14-.36-.27-.81-.2s-.72,0-1.08.09l-1.07.15a4.31,4.31,0,0,0-1.83.56c-.37.46.37.73.75.73a1.88,1.88,0,0,0,1-.25c.15-.1.53-.29.61-.47l.19-.1c.24-.05.25.2.34.4s.59.67.38,1a1.25,1.25,0,0,1-.23.23c-.27-.09-.62-.33-.92-.19s-.3.53-.59.67c-1.13.49-1.8-.38-2.72-.83a2.57,2.57,0,0,0-1-.38c-.32,0-.88,0-1.07.26s.1.57.08.87c-.06.6-.63.48-1.05.42a9.9,9.9,0,0,0-1.63-.38c-.46,0-1.39-.15-1.72.2a3.83,3.83,0,0,0-.43.83,5.22,5.22,0,0,0-.33.54c-.11.33.22.34.34.57s-.25.38-.53.4c-.73.06-1.46-.38-2.2-.34s-.23.66-.39,1.1a2.7,2.7,0,0,1-.36.72,1.34,1.34,0,0,1-.63.31c-.62.22-1.18.51-1.8.7a5.16,5.16,0,0,0-.77.31,4.5,4.5,0,0,1-.73.43,4,4,0,0,1-.85,0,4.65,4.65,0,0,0-1,.15c-.38.11-1.3.33-1.52.71-.37.65,1,.75,1.37.71a4.82,4.82,0,0,0,1.3-.56,2.86,2.86,0,0,1,.95-.31c.18,0,.37.36.52.49a2.43,2.43,0,0,0,.58.43,1.28,1.28,0,0,0,1.47-.42c.1-.2.21-.51.42-.62s.71,0,1,0,.44-.23.7-.35a1.28,1.28,0,0,1,1,0c.54.21,1,.43,1.51,0s.88,0,1.39.11.55-.08.87-.28a3.28,3.28,0,0,1,.74-.33c.48-.15,1.24-.4,1.6.08.24.3-.19.43,0,.63s.77,0,.93,0c.34-.16.36-.49.38-.81a3.16,3.16,0,0,1,.13-1c.55-.1,1.21-.05,1.59-.55a2.13,2.13,0,0,0,.33-.63c.14.11.4.18.54.28s.45.48.72.65a1.46,1.46,0,0,0,1.48-.35c.28-.18.59-.34.87-.56a2.22,2.22,0,0,0,.8-1c.18-.39.28-.79.7-1a4.08,4.08,0,0,1,1.23-.33c.24.11.57.16.76.27.54.3.85.05,1.19-.4S43,20.43,42.8,20Z"/></g><g id="vv"><path class="cls-20" d="M42.8,20c-.13-.34-.71-.38-1.09-.31a2,2,0,0,0,.06-.41c0-.39.2-1-.2-1.2s-2.39.54-3.4,1c-.79.38-.35,1.51-.42,1.59-.67-.09-1.4-1.23-1.74-1.07s-.3.53-.59.67a13.13,13.13,0,0,0-3.84,1.86c-1,.83-1.21-.71-3.29.12a8.5,8.5,0,0,0-1.79,2.08c.17.71-3,.67-7.21,2.86-.19.11.38.34.58.43a1.28,1.28,0,0,0,1.47-.42c.1-.2.21-.51.42-.62s.71,0,1,0,.44-.23.7-.35.68-1.08,1-1c.54.21,1,.43,1.51,0s.88,0,1.39.11,1.55-1.58,1.87-1.78a3.28,3.28,0,0,1,.74-.33c.48-.15,1.24-.4,1.6.08.24.3-.19.43,0,.63s.77,0,.93,0c.34-.16.36-.49.38-.81s.23-.55.34-.91c.56-.1,2-.11,2.38-.61a2.13,2.13,0,0,0,.33-.63c.14.11.4.18.54.28s.45.48.72.65-.8,2.52-.52,2.15c.28-.18.59-.34.87-.56a2.22,2.22,0,0,0,.8-1c.18-.39.28-.79.7-1a4.08,4.08,0,0,1,1.23-.33c.24.11.57.16.76.27.54.3.85.05,1.19-.4S43,20.43,42.8,20Z"/></g><g id="bleu"><path class="cls-21" d="M30.74,25.58s-.34.75-.18,1,.77,0,.93,0c.34-.16.36-.49.38-.81a3.16,3.16,0,0,1,.13-1c.55-.1,1.21-.05,1.59-.55a2.13,2.13,0,0,0,.33-.63c.14.11.4.18.54.28s.45.48.72.65a1.46,1.46,0,0,0,1.48-.35c.28-.18.59-.34.87-.56a2.22,2.22,0,0,0,.8-1,3,3,0,0,1-2.66.78,13.5,13.5,0,0,0-4.27.38,5.22,5.22,0,0,0-.33.54c-.11.33.22.34.34.57s-.4.69-.67.71m-6.93,0c-.62.22-1.19.51-1.81.7a5.16,5.16,0,0,0-.77.31,4.5,4.5,0,0,1-.73.43c-.24.07-2.59-1-2.85-1a4.65,4.65,0,0,0-1,.15c-.38.11-1.3.33-1.52.71-.37.65,1,.75,1.37.71a4.82,4.82,0,0,0,1.3-.56,2.86,2.86,0,0,1,.95-.31c.18,0,.37.36.52.49a2.43,2.43,0,0,0,.58.43,1.28,1.28,0,0,0,1.47-.42c.1-.2.21-.51.42-.62s.71,0,1,0S23.66,26,23.81,25.56Z"/></g><g id="yellow"><path class="cls-22" d="M26.33,20.43c-.13.26-.29.57-.43.83a5.22,5.22,0,0,0-.33.54c-.11.33.22.34.34.57s-.25.38-.53.4c-.73.06-1.46-.38-2.2-.34s-.23.66-.39,1.1a2.7,2.7,0,0,1-.36.72,1.34,1.34,0,0,1-.63.31c-.62.22-1.18.51-1.8.7a5.16,5.16,0,0,0-.77.31,4.5,4.5,0,0,1-.73.43,4,4,0,0,1-.85,0,4.65,4.65,0,0,0-1,.15c-.38.11-1.3.33-1.52.71-.37.65,1,.75,1.37.71a4.82,4.82,0,0,0,1.3-.56,2.86,2.86,0,0,1,.95-.31c.18,0,.37.36.52.49s.38-1.16.58-1.07a1.28,1.28,0,0,0,1.47-.42c.1-.2.21-.51.42-.62s.71,0,1,0,.44-.23.7-.35a1.43,1.43,0,0,1,1,0c2.6.75,3.69-2.34,3.85-2.41.34-.16,0-.86,0-1.18a2.59,2.59,0,0,1,.13-.87C28.77,20.29,26.58,20,26.33,20.43Z"/></g><g id="yellow-2" data-name="yellow"><path class="cls-23" d="M36.57,19.8c-.11.33.22.34.34.57s-.25.38-.53.4a3.75,3.75,0,0,0-1.8.73c-.15.18.68.46.46.54-.62.22-1.34,1.4-1,1.38s.82.74,1.08.62.08-1.37.4-1.25c.54.21.54-.57,1-1s.38-.51.89-.39.55-.08.87-.28S40,20,40.29,20c.48-.15.37-.51.2-.45A6.18,6.18,0,0,1,36.57,19.8Z"/></g><g class="cls-24"><line class="cls-25" x1="34.46" y1="20.57" x2="34.32" y2="23.58"/><polyline class="cls-25" points="34.46 20.57 36.39 22.43 35.61 24.54 34.32 23.58"/><polyline class="cls-25" points="30.5 23.84 31.95 24.68 34.32 23.58 32.2 22.71"/><line class="cls-25" x1="30.44" y1="20.4" x2="28.54" y2="20.85"/><polyline class="cls-25" points="30.25 21.93 30.5 23.84 29.42 25.49 31 26.3 31.95 24.68"/><polygon class="cls-25" points="18.66 26.68 20.59 26.46 20.37 25.27 18.7 25.98 18.66 26.68"/><polygon class="cls-25" points="22.67 24.42 23.19 25.79 20.59 26.46 20.37 25.27 22.67 24.42"/><polyline class="cls-25" points="24.23 22.86 26.42 22.6 28.05 23.73"/><polyline class="cls-25" points="26.42 22.6 28.67 20.89 30.18 21.85 28.05 23.73 28.65 24.67"/><polyline class="cls-25" points="28.65 24.67 29.42 25.49 28.23 26.48 26.53 26.16"/><polyline class="cls-25" points="25.05 26.53 23.19 25.79 25.43 24.06 28.05 23.73"/><polyline class="cls-25" points="22.67 24.42 24.23 22.86 25.43 24.06 26.53 26.16 25.05 26.53"/><line class="cls-25" x1="28.54" y1="20.85" x2="26.5" y2="20.59"/><polyline class="cls-25" points="30.5 23.84 32.2 22.71 32.49 20.9 30.18 21.85"/><polyline class="cls-25" points="36.39 22.43 39.08 20.91 37.71 19.33 34.46 20.57 32.49 20.9 30.45 20.4"/><polyline class="cls-25" points="37.71 19.33 38.95 17.62 41.85 18.09 39.08 20.91"/><polyline class="cls-25" points="39.08 20.91 38.44 23.22 35.83 24.59"/></g><g class="cls-26"><path class="cls-10" d="M36.29,23.26a2.31,2.31,0,0,1,.76-.79c.23-.18.8-.38.94-.62A2.42,2.42,0,0,0,38,21c-1,0-1.64.76-2.5,1-.34.11-.8,0-1.11.11s-.4.43-.58.66a4.35,4.35,0,0,1-1.67,1.3c-1,.46-.94.93-1,2a3.18,3.18,0,0,0,.58-1.63,9.64,9.64,0,0,0,1.31-.2c.45-.2.7-.65,1.11-.9.35.26.39.63.83.88a2.13,2.13,0,0,0,1.32.31c.33-1,2.6-.55,2.38-2-.62.14-1.13.65-1.73.85S36.26,23.41,36.29,23.26Z"/><path class="cls-10" d="M31.91,22.07c-.39.25-.22.6.11.75a1.76,1.76,0,0,0,1.25-.15c.3-.17.41-.8.5-.86C33.23,22.11,32.35,21.78,31.91,22.07Z"/><path class="cls-10" d="M29.49,21.91c-.28-.18-.88.51-1,.68a1.84,1.84,0,0,0-.64,1.68,1.53,1.53,0,0,0,1.31-.59C29.36,23.43,29.91,22.19,29.49,21.91Z"/><path class="cls-10" d="M25.07,25.21c-.55-.23-1.21.35-1.65.6a12.33,12.33,0,0,1-2.85.75,4.62,4.62,0,0,1-1.43.25c-.13,0-.52-.07-.63,0-.65.4.62.73.89.74.56,0,1-.44,1.58-.48a4.66,4.66,0,0,0,1.12,0c.49-.14.81-.58,1.26-.74s.63.07,1.05.05.57-.13.86-.15a8.78,8.78,0,0,0,1.7,0A8.39,8.39,0,0,1,29,25.81c.62,0,1.15.2,1.73.15-.25-.74-1.39-.82-2.05-.79a3.6,3.6,0,0,0-1.44.36,1.79,1.79,0,0,1-1.25.28C25.64,25.71,25.42,25.36,25.07,25.21Z"/><path class="cls-10" d="M42.11,19.05c-.28,1.29-3.66,1.36-3.48,3h.15c.3-.44.34-.61.84-.8s.86-.23,1.27-.42,1.56-1.1,1.28-1.73Z"/><path class="cls-10" d="M36.57,17.94c.23.13.21.36.35.54s.31.2.35.29c.21.46-.19.58-.42.86a1.2,1.2,0,0,0,1-.47c.29-.42.08-.65-.12-1-.28,0-1,.06-.94-.32Z"/><path class="cls-10" d="M34.41,17.81c.3,0,.7,0,.94,0,.8,0,.41.77-.21.94-.31.09-1,.23-1.28-.08s0-.67.32-.78Z"/><path class="cls-10" d="M26.22,20.16c.13.67.2,2.45-.89,2.31a3.88,3.88,0,0,1-.06-1.31c.1-.3.53-1.08.9-1.05Z"/></g><path class="cls-27" d="M21.53,23.13c0,.39-.89.85-2.11,1s-2.25,0-2.3-.4.88-.85,2.1-1S21.47,22.73,21.53,23.13Zm21.54-.67c-.44,0-.77.33-.73.65s.41.54.85.49.77-.33.74-.65S43.51,22.41,43.07,22.46Z"/><path class="cls-28" d="M21.53,23.13c0,.39-.89.85-2.11,1s-2.25,0-2.3-.4.88-.85,2.1-1S21.47,22.73,21.53,23.13Z"/><path class="cls-29" d="M43.93,23c0,.32-.3.61-.74.65s-.82-.17-.85-.49.29-.61.73-.65S43.9,22.63,43.93,23Z"/><path class="cls-30" d="M27.65,15.82c0,.6,1.17,1.09,2.62,1.09s2.62-.49,2.62-1.09V14.73H27.65Z"/><path class="cls-31" d="M32.89,14.69c0-.61-1.17-1.11-2.62-1.11s-2.62.5-2.62,1.11,1.17,1.11,2.62,1.11S32.89,15.31,32.89,14.69Z"/><path class="cls-32" d="M30.27,14.64c-.45,0-.91-.12-.91-.39v-.9a.12.12,0,0,1,.12-.12h1.58a.12.12,0,0,1,.12.12v.9C31.18,14.52,30.72,14.64,30.27,14.64Z"/><path class="cls-33" d="M31.06,13.35v.9c0,.14-.36.26-.79.26s-.79-.12-.79-.26v-.9h1.58m0-.25H29.48a.25.25,0,0,0-.25.25v.9c0,.38.54.51,1,.51s1-.13,1-.51v-.9a.25.25,0,0,0-.25-.25Z"/><path class="cls-34" d="M30.27,13.4c-2.69,0-4.8-1-4.8-2.21s2-2,4.8-2,4.8.86,4.8,2S33,13.4,30.27,13.4Zm0-2.75a7.42,7.42,0,0,0-3.22.41,6.45,6.45,0,0,0,3.22.6A5.9,5.9,0,0,0,33.48,11,8.26,8.26,0,0,0,30.27,10.65Z"/><path class="cls-18" d="M30.27,9.26c2.58,0,4.68.78,4.68,1.93s-2.1,2.08-4.68,2.08-4.68-.93-4.68-2.08,2.1-1.93,4.68-1.93m0,2.52c1.84,0,3.34-.45,3.34-.74s-1.5-.52-3.34-.52-3.34.24-3.34.52,1.5.74,3.34.74m0-2.77c-2.9,0-4.93.9-4.93,2.18s2.17,2.33,4.93,2.33,4.93-1,4.93-2.33S33.17,9,30.27,9Zm-3,2.05a11,11,0,0,1,3-.29,11,11,0,0,1,3,.29,8,8,0,0,1-3,.47,8,8,0,0,1-3-.47Z"/><path class="cls-35" d="M29.9,11.9a9.49,9.49,0,0,1-1.45-.14A5.25,5.25,0,0,1,27.11,11a.83.83,0,0,1-.18-.54.37.37,0,0,1,.4-.25,1.7,1.7,0,0,1,.63.16l2.35,1.29a.14.14,0,0,1,.06.14.14.14,0,0,1-.11.1l-.36,0Z"/><path class="cls-7" d="M27.33,10.31a1.75,1.75,0,0,1,.58.15l2.34,1.29a2,2,0,0,1-.35,0,10.56,10.56,0,0,1-1.43-.13,5.38,5.38,0,0,1-1.27-.75.74.74,0,0,1-.15-.45.3.3,0,0,1,.28-.13m0-.25a.51.51,0,0,0-.5.27.23.23,0,0,0,0,.11,1,1,0,0,0,.22.63,5.47,5.47,0,0,0,1.35.8l.06,0A12.23,12.23,0,0,0,29.9,12l.37,0a.24.24,0,0,0,.22-.2.26.26,0,0,0-.12-.27L28,10.24a2.09,2.09,0,0,0-.7-.18Z"/><path class="cls-36" d="M30.49,11.91c-.27,0-.41,0-.45-.12s.09-.21.16-.25l2.71-1.28a1.1,1.1,0,0,1,.46-.12.42.42,0,0,1,.3.11.48.48,0,0,1,.09.37l-.07.39a.16.16,0,0,1-.07.09l-1.43.65a12.47,12.47,0,0,1-1.65.17Z"/><path class="cls-7" d="M33.37,10.26c.15,0,.29.08.27.35l-.08.38-1.42.65a15.36,15.36,0,0,1-1.6.15h-.05c-.25,0-.46,0-.22-.15L33,10.37a1,1,0,0,1,.4-.11m0-.25h0a1.47,1.47,0,0,0-.52.13l-2.69,1.27c-.11.08-.3.21-.23.42s.28.21.47.21h.09c.62,0,1.64-.15,1.69-.15l.07,0,1.42-.66a.26.26,0,0,0,.14-.18l.07-.37a.61.61,0,0,0-.12-.49.53.53,0,0,0-.39-.16Z"/><path class="cls-37" d="M31.56,12.62c0-.21-.92-.38-2-.38s-2.06.17-2.06.38.92.39,2.06.39S31.56,12.84,31.56,12.62Z"/><path class="cls-38" d="M30.27,9.26c-2.58,0-4.68.78-4.68,1.93s2.1,2.08,4.68,2.08S35,12.34,35,11.19,32.85,9.26,30.27,9.26Z"/></g><g id="thermometre_copy_2" data-name="thermometre *** copy 2"><g id="mercure_2" data-name="mercure **"><path class="cls-39" d="M11,39.5a3.48,3.48,0,0,1-3.5-3.45A3.08,3.08,0,0,1,9.23,33.2l.27-.14V29.53h3V33l.25.14a3.25,3.25,0,0,1,1.71,2.88A3.4,3.4,0,0,1,11,39.5Z"/><path class="cls-3" d="M12,30v3.3l.5.28A2.74,2.74,0,0,1,14,36.06,2.91,2.91,0,0,1,11,39a3,3,0,0,1-3-3,2.58,2.58,0,0,1,1.44-2.41l.54-.27V30h2m1-1H9v3.72a3.6,3.6,0,0,0-2,3.3,4,4,0,0,0,4,4A3.92,3.92,0,0,0,15,36.06a3.72,3.72,0,0,0-2-3.31V29Z"/></g><g class="cls-40"><path class="cls-41" d="M11.73,35.25a1.5,1.5,0,1,1-1.5-1.5A1.5,1.5,0,0,1,11.73,35.25Z"/></g><g id="Blend_" data-name="Blend   **"><path class="cls-42" d="M9,29h4V19.14A2,2,0,0,0,11,17a2,2,0,0,0-2,2Z"/><path class="cls-43" d="M9.49,29h3v-10A1.42,1.42,0,0,0,11,17.5,1.4,1.4,0,0,0,9.49,19Z"/><path class="cls-44" d="M10,29h2V19c0-.86-.42-1-1-1s-1,.16-1,1Z"/></g><line id="sepa_" data-name="sepa   **" class="cls-45" x1="9.09" y1="28.89" x2="12.47" y2="28.89"/></g><g id="Layer_42_copy_13" data-name="Layer 42 copy 13"><g id="ext_0.75_th_" data-name="ext 0.75$th&gt;"><path class="cls-46" d="M50,22.39l7.53,2.88v7.61l-6,4.13L47.23,34.8V40l-6,4.12-5.73-2.31V31.46l5.56-3,.86.39,2.32-1.33V25.26L50,22.39m0-.5a.59.59,0,0,0-.23.05L44,24.81a.49.49,0,0,0-.27.45v1.93L41.9,28.25,41.28,28a.49.49,0,0,0-.45,0L35.27,31a.48.48,0,0,0-.26.43v10.3a.52.52,0,0,0,.31.47l5.74,2.31a.57.57,0,0,0,.18,0,.52.52,0,0,0,.29-.09l6-4.12a.5.5,0,0,0,.22-.41V35.63l3.5,1.83a.69.69,0,0,0,.24,0,.51.51,0,0,0,.28-.09l6-4.13a.49.49,0,0,0,.22-.41V25.27a.51.51,0,0,0-.32-.47l-7.53-2.88a.57.57,0,0,0-.18,0Z"/></g><path id="int_" data-name="int *" d="M44.73,36.88l-1.26-.51,0-6.86-5.92,3.14v6.48l1.71.69Z"/><polygon id="dessus_2_arr" data-name="dessus 2 arr" class="cls-47" points="37.52 32.66 35.51 31.46 41.07 28.42 43.44 29.52 37.52 32.66"/><polygon class="cls-48" points="51.47 37.01 46.66 34.52 48.56 33.44 48.56 27.44 51.47 28.82 51.47 37.01"/><path id="_" data-name="**" class="cls-42" d="M51.47,28.83l6-3.56v7.61l-6,4.13Z"/><polygon id="bleue_" data-name="bleue **" class="cls-48" points="46.61 34.11 44.24 32.98 44.24 25.26 46.61 26.39 46.61 34.11"/><polygon class="cls-48" points="40.16 38.25 38.21 37.45 38.21 30.99 40.16 31.98 40.16 38.25"/><path class="cls-42" d="M40.16,32l8.4-4.54v6l-8.4,4.81Z"/><g id="les_contours_copy_5" data-name="les contours copy 5"><line id="verticale" class="cls-49" x1="51.47" y1="28.83" x2="51.47" y2="37.01"/><path id="contour_1" data-name="contour  1" class="cls-49" d="M38.3,31.05l1.86.93,8.4-4.54,2.91,1.39,6-3.56m-17.32,13V32l-1.86-.93m9.27,3,1-.57v-6"/></g><path id="contour_globale" data-name="contour   globale" class="cls-50" d="M57.48,25.27,50,22.39h0l-5.71,2.87v2.22l-6,3.51v6.46l1.95.8,6.52-3.72L51.47,37l6-4.13Z"/><g id="top_en_blanc" data-name="top en blanc"><path class="cls-51" d="M50,22.39l-5.71,2.87,2.37,1.13-8.17,4.73,1.71.86,8.41-4.54,2.91,1.39,6-3.56Z"/></g><polyline id="contour_2" data-name="contour 2" class="cls-52" points="44.08 25.25 46.46 26.36 44.33 27.53"/><path class="cls-53" d="M41.25,34.86l6-3.25V40l-6,4.12Zm2.84,2.65a2.67,2.67,0,0,0,1.21-2.09c0-.77-.55-1.08-1.22-.69a2.65,2.65,0,0,0-1.21,2.09c0,.77.55,1.08,1.22.69"/><polygon id="dessus_1_" data-name="dessus 1  *" class="cls-54" points="41.24 34.86 39.25 33.68 45.1 30.48 47.23 31.61 41.24 34.86"/><line id="dessus_1_2" data-name="dessus 1  *" class="cls-55" x1="41.25" y1="34.86" x2="47.23" y2="31.61"/><polygon id="surface" class="cls-56" points="39.25 33.68 39.24 39.82 37.53 39.13 37.52 32.66 35.51 31.46 35.51 41.76 41.24 44.07 41.24 34.86 39.25 33.68"/><polyline class="cls-50" points="41.24 44.07 41.24 34.86 39.25 33.68"/><polyline id="contour_1_" data-name="contour  1  *" class="cls-50" points="47.47 35.36 47.47 31.75 45.1 30.48 39.25 33.68 39.24 39.82 37.53 39.13 37.52 32.66 35.51 31.46"/><g id="axe_ok" data-name="axe ok"><path class="cls-57" d="M45,34.64a.85.85,0,0,0-.86.08,2.68,2.68,0,0,0-1.21,2.09.86.86,0,0,0,.35.78l1.06.64a.85.85,0,0,1-.35-.78,2.67,2.67,0,0,1,1.2-2.09.85.85,0,0,1,.87-.08Z"/><path class="cls-58" d="M45.14,35.35c.67-.39,1.21-.08,1.22.69a2.64,2.64,0,0,1-1.22,2.09c-.66.39-1.21.08-1.21-.69A2.65,2.65,0,0,1,45.14,35.35Z"/></g></g></g></g></svg>