<svg id="Layer_13_copy_2" data-name="Layer 13 copy 2" xmlns="http://www.w3.org/2000/svg" xmlns:xlink="http://www.w3.org/1999/xlink" viewBox="0 0 64 64"><defs><style>.cls-1,.cls-10,.cls-11,.cls-17,.cls-2,.cls-21,.cls-26,.cls-27,.cls-28,.cls-31,.cls-36,.cls-37,.cls-9{fill:none;}.cls-2,.cls-21,.cls-27,.cls-28,.cls-31,.cls-36,.cls-37{stroke:#000;}.cls-10,.cls-16,.cls-2,.cls-27,.cls-28,.cls-36,.cls-9{stroke-linecap:round;}.cls-10,.cls-13,.cls-16,.cls-17,.cls-2,.cls-26,.cls-27,.cls-36,.cls-37,.cls-7,.cls-9{stroke-linejoin:round;}.cls-2{stroke-width:1.42px;}.cls-3{isolation:isolate;}.cls-4{fill:#aeaeae;}.cls-5{fill:#797979;}.cls-6{fill:#e1e1e1;}.cls-13,.cls-7{stroke:#797979;}.cls-10,.cls-7{stroke-width:0.26px;}.cls-7{fill:url(#top_white);}.cls-8{fill:#fff;}.cls-10,.cls-11,.cls-17,.cls-26,.cls-9{stroke:#323232;}.cls-9{stroke-width:0.43px;}.cls-11,.cls-19,.cls-21,.cls-28,.cls-31{stroke-miterlimit:10;}.cls-11,.cls-13,.cls-16,.cls-26{stroke-width:0.72px;}.cls-12{fill:#c2c2c2;}.cls-13{fill:url(#top_white-2);}.cls-14{fill:#2d6d8b;}.cls-15{fill:#aadcfa;}.cls-16{fill:#5a9ab8;stroke:#2d6d8b;}.cls-17,.cls-37{stroke-width:0.42px;}.cls-18{clip-path:url(#clip-path);}.cls-19{fill:#231f20;stroke:#231f20;stroke-width:0.19px;}.cls-20{clip-path:url(#clip-path-2);}.cls-21{stroke-width:0.2px;}.cls-22{clip-path:url(#clip-path-3);}.cls-23{clip-path:url(#clip-path-4);}.cls-24{clip-path:url(#clip-path-5);}.cls-25{clip-path:url(#clip-path-6);}.cls-27{stroke-width:0.5px;}.cls-28{stroke-width:0.75px;}.cls-29{fill:#f1f0f0;}.cls-30{clip-path:url(#clip-path-7);}.cls-31{stroke-width:0.28px;}.cls-32{clip-path:url(#clip-path-8);}.cls-33{clip-path:url(#clip-path-9);}.cls-34{clip-path:url(#clip-path-10);}.cls-35{clip-path:url(#clip-path-11);}.cls-36{stroke-width:0.57px;}</style><linearGradient id="top_white" x1="35.95" y1="33.19" x2="54.36" y2="33.19" gradientUnits="userSpaceOnUse"><stop offset="0" stop-color="#fff"/><stop offset="1" stop-color="#f0f0f0"/></linearGradient><linearGradient id="top_white-2" x1="4.88" y1="12.79" x2="23.38" y2="12.79" xlink:href="#top_white"/><clipPath id="clip-path"><polygon class="cls-1" points="17.32 21.63 17.32 35.9 4.89 28.66 4.89 14.29 17.32 21.63"/></clipPath><clipPath id="clip-path-2"><polygon class="cls-1" points="17.32 21.63 29.61 14.3 29.57 28.61 17.32 35.9 17.32 21.63"/></clipPath><clipPath id="clip-path-3"><polygon class="cls-1" points="4.89 14.29 17.16 7.17 29.61 14.3 17.32 21.63 4.89 14.29"/></clipPath><clipPath id="clip-path-4"><polygon class="cls-1" points="47.12 19.19 59.38 11.91 59.38 19.05 47.12 26.26 47.12 19.19"/></clipPath><clipPath id="clip-path-5"><polygon class="cls-1" points="40.99 15.51 53.25 8.33 59.38 11.91 47.12 19.19 40.99 15.51"/></clipPath><clipPath id="clip-path-6"><polygon class="cls-1" points="47.12 19.19 47.12 26.26 40.99 22.67 40.99 15.51 47.12 19.19"/></clipPath><clipPath id="clip-path-7"><polygon class="cls-1" points="41.97 38.59 54.24 31.31 54.23 38.45 41.97 45.67 41.97 38.59"/></clipPath><clipPath id="clip-path-8"><polygon class="cls-1" points="42.23 45.5 54.48 38.32 60.62 41.9 48.35 49.18 42.23 45.5"/></clipPath><clipPath id="clip-path-9"><polygon class="cls-1" points="48.23 49.3 60.5 42.09 60.48 49.23 48.21 56.4 48.23 49.3"/></clipPath><clipPath id="clip-path-10"><polygon class="cls-1" points="42.11 38.57 42.11 45.71 48.23 49.3 48.21 56.4 35.95 49.26 35.95 34.98 42.11 38.57"/></clipPath><clipPath id="clip-path-11"><polygon class="cls-1" points="35.95 34.98 48.23 27.81 54.36 31.38 42.11 38.57 35.95 34.98"/></clipPath></defs><title>25750_eeeeeee_R21XArtboard 1</title><g id="link_copy_2" data-name="link copy 2"><polyline class="cls-2" points="38.36 43.5 32.86 43.5 32.86 21"/><line class="cls-2" x1="23.36" y1="20.5" x2="46.36" y2="20.5"/></g><g id="elements_copy_2" data-name="elements copy 2"><g id="AA"><g class="cls-3"><polygon class="cls-4" points="42.11 38.57 54.36 31.38 54.34 38.51 42.11 45.71 42.11 38.57"/><polygon class="cls-5" points="48.23 49.3 60.5 42.09 60.48 49.23 48.21 56.4 48.23 49.3"/><polygon class="cls-6" points="42.11 38.57 42.11 45.71 48.23 49.3 48.21 56.4 35.95 49.26 35.95 34.98 42.11 38.57"/><polygon class="cls-7" points="35.95 34.98 48.23 27.81 54.36 31.38 42.11 38.57 35.95 34.98"/><polygon class="cls-8" points="42.11 45.71 54.34 38.51 60.5 42.09 48.23 49.3 42.11 45.71"/></g><polygon class="cls-9" points="54.36 31.38 42.11 38.57 42.11 45.71 48.23 49.3 60.5 42.09 54.3 38.53 54.36 31.38"/><polygon class="cls-10" points="42.11 45.71 48.23 49.3 60.5 42.09 54.3 38.53 42.11 45.71"/><polygon class="cls-11" points="54.36 31.38 48.23 27.81 35.95 34.98 35.95 49.26 48.21 56.4 60.48 49.23 60.5 42.09 54.3 38.53 54.36 31.38"/></g></g><g id="maillage_copy_2" data-name="maillage copy 2"><g id="Total_GOOD_copy_2" data-name="Total GOOD copy 2"><g class="cls-3"><polygon class="cls-12" points="11.06 25.31 23.36 18.1 29.55 21.69 17.22 28.92 11.06 25.31"/><polygon class="cls-4" points="11.08 18.17 23.38 10.98 23.36 18.1 11.06 25.31 11.08 18.17"/><polygon class="cls-5" points="17.22 28.92 29.55 21.69 29.53 28.85 17.2 36.06 17.22 28.92"/><polygon class="cls-6" points="11.08 18.17 11.06 25.31 17.22 28.92 17.2 36.06 11.04 32.47 4.88 28.89 4.88 21.72 4.88 14.58 11.08 18.17"/><polygon class="cls-13" points="4.88 14.58 17.22 7.41 23.38 10.98 11.08 18.17 4.88 14.58"/></g><polygon class="cls-14" points="17.24 21.75 29.57 14.55 29.55 21.69 17.22 28.92 17.24 21.75"/><polygon class="cls-15" points="11.08 18.17 23.38 10.98 29.57 14.55 17.24 21.75 11.08 18.17"/><polygon class="cls-16" points="17.24 21.75 17.22 28.92 11.06 25.31 11.08 18.17 17.24 21.75"/><polygon class="cls-11" points="23.38 10.98 11.07 18.17 11.07 25.31 17.22 28.92 29.55 21.69 29.57 14.55 23.38 10.98"/><polygon class="cls-11" points="23.38 10.98 17.22 7.41 4.88 14.58 4.88 21.72 4.88 28.89 11.04 32.47 17.2 36.06 29.53 28.85 29.55 21.69 29.57 14.55 23.38 10.98"/></g><g id="Layer_29_copy_4" data-name="Layer 29 copy 4"><g id="Elem_1" data-name="Elem 1"><polygon class="cls-14" points="47.13 19.1 59.4 11.9 59.38 19.04 47.12 26.27 47.13 19.1"/><polygon class="cls-15" points="41 15.52 53.24 8.33 59.4 11.9 47.13 19.1 41 15.52"/><polygon class="cls-16" points="47.13 19.1 47.12 26.27 40.98 22.66 41 15.52 47.13 19.1"/><polygon class="cls-11" points="53.24 8.33 40.99 15.52 40.99 22.66 47.12 26.27 59.38 19.04 59.4 11.9 53.24 8.33"/><polygon class="cls-17" points="40.99 15.52 40.99 22.66 47.12 26.27 47.12 19.19 40.99 15.52"/></g></g><g id="Bloc_complet_copy_2" data-name="Bloc complet copy 2"><g id="Elem_bloc_complet" data-name="Elem bloc complet"><g class="cls-18"><g id="Blend_h" data-name="Blend  h"><line class="cls-19" x1="19.3" y1="36.98" x2="2.29" y2="27.16"/><line class="cls-19" x1="19.96" y1="33.79" x2="2.45" y2="23.68"/><line class="cls-19" x1="20.63" y1="30.61" x2="2.6" y2="20.19"/><line class="cls-19" x1="21.29" y1="27.42" x2="2.76" y2="16.71"/><line class="cls-19" x1="21.95" y1="24.23" x2="2.91" y2="13.23"/></g><g id="Blend_v_3" data-name="Blend   v 3"><line class="cls-19" x1="17.32" y1="15.51" x2="17.32" y2="37.39"/><line class="cls-19" x1="14.23" y1="13.89" x2="14.23" y2="35.5"/><line class="cls-19" x1="11.14" y1="12.27" x2="11.14" y2="33.61"/><line class="cls-19" x1="8.06" y1="10.65" x2="8.06" y2="31.71"/><line class="cls-19" x1="4.97" y1="9.02" x2="4.97" y2="29.82"/></g></g><g id="ok_3" data-name="ok  3"><g class="cls-20"><g id="Blend_h-2" data-name="Blend  h"><line class="cls-21" x1="17.26" y1="38.76" x2="17.33" y2="18.66"/><line class="cls-21" x1="20.36" y1="37.09" x2="20.42" y2="17.07"/><line class="cls-21" x1="23.45" y1="35.41" x2="23.51" y2="15.47"/><line class="cls-21" x1="26.54" y1="33.74" x2="26.6" y2="13.88"/><line class="cls-21" x1="29.63" y1="32.06" x2="29.69" y2="12.29"/></g><g id="Blend_v_3-2" data-name="Blend   v 3"><line class="cls-21" x1="33.65" y1="26.29" x2="14.76" y2="37.36"/><line class="cls-21" x1="33.04" y1="23.04" x2="14.38" y2="34"/><line class="cls-21" x1="32.44" y1="19.79" x2="14" y2="30.65"/><line class="cls-21" x1="31.84" y1="16.53" x2="13.63" y2="27.29"/><line class="cls-21" x1="31.23" y1="13.28" x2="13.25" y2="23.93"/></g></g></g><g id="ok_1" data-name="ok 1"><g class="cls-22"><g id="Blend_h-3" data-name="Blend  h"><line class="cls-19" x1="18.93" y1="22.53" x2="2.77" y2="13.07"/><line class="cls-19" x1="22.05" y1="20.77" x2="5.99" y2="11.36"/><line class="cls-19" x1="25.17" y1="19.01" x2="9.21" y2="9.65"/><line class="cls-19" x1="28.28" y1="17.25" x2="12.42" y2="7.94"/><line class="cls-19" x1="31.4" y1="15.48" x2="15.64" y2="6.24"/></g><g id="Blend_v_3-3" data-name="Blend   v 3"><line class="cls-19" x1="32.89" y1="12.33" x2="14" y2="23.52"/><line class="cls-19" x1="29.55" y1="10.71" x2="10.89" y2="21.71"/><line class="cls-19" x1="26.21" y1="9.09" x2="7.77" y2="19.9"/><line class="cls-19" x1="22.87" y1="7.47" x2="4.66" y2="18.09"/><line class="cls-19" x1="19.53" y1="5.85" x2="1.54" y2="16.28"/></g></g></g></g></g><g id="A3_petit_bloc_copy_2" data-name="A3   petit bloc   ** copy 2"><g id="maille"><g id="ok_3_Gd_Cote" data-name="ok  3  Gd Cote"><g class="cls-23"><g id="Blend_h-4" data-name="Blend  h"><line class="cls-21" x1="47.15" y1="28.22" x2="47.15" y2="16.27"/><line class="cls-21" x1="49.63" y1="26.88" x2="49.63" y2="14.99"/><line class="cls-21" x1="52.1" y1="25.54" x2="52.1" y2="13.72"/><line class="cls-21" x1="54.57" y1="24.19" x2="54.57" y2="12.44"/><line class="cls-21" x1="57.05" y1="22.85" x2="57.05" y2="11.17"/><line class="cls-21" x1="59.52" y1="21.51" x2="59.52" y2="9.89"/></g><g id="Blend_v_3-4" data-name="Blend   v 3"><line class="cls-21" x1="63.47" y1="16.64" x2="44.59" y2="27.76"/><line class="cls-21" x1="62.27" y1="13.77" x2="43.83" y2="24.65"/><line class="cls-21" x1="61.06" y1="10.9" x2="43.07" y2="21.54"/></g></g></g><g id="ok_1_dessus" data-name="ok 1   dessus"><g class="cls-24"><g id="Blend_h-5" data-name="Blend  h"><line class="cls-19" x1="48.97" y1="20.31" x2="38.72" y2="14.15"/><line class="cls-19" x1="51.42" y1="18.84" x2="41.22" y2="12.75"/><line class="cls-19" x1="53.87" y1="17.38" x2="43.71" y2="11.34"/><line class="cls-19" x1="56.32" y1="15.91" x2="46.2" y2="9.93"/><line class="cls-19" x1="58.77" y1="14.45" x2="48.7" y2="8.53"/><line class="cls-19" x1="61.22" y1="12.98" x2="51.19" y2="7.12"/></g><g id="Blend_v_3-5" data-name="Blend   v 3"><line class="cls-19" x1="61.56" y1="10.61" x2="42.68" y2="21.8"/><line class="cls-19" x1="58.52" y1="8.82" x2="40.09" y2="19.69"/><line class="cls-19" x1="55.48" y1="7.02" x2="37.5" y2="17.59"/></g></g></g><g id="ok_ptt_cote" data-name="ok ptt cote"><g class="cls-25"><g id="Blend_h-6" data-name="Blend  h"><line class="cls-19" x1="48.14" y1="26.87" x2="39.68" y2="21.92"/><line class="cls-19" x1="48.73" y1="23.67" x2="39.27" y2="18.1"/><line class="cls-19" x1="49.31" y1="20.47" x2="38.86" y2="14.28"/></g><g id="Blend_v_3-6" data-name="Blend   v 3"><line class="cls-19" x1="53.27" y1="16.68" x2="53.27" y2="38.57"/><line class="cls-19" x1="50.2" y1="15.06" x2="50.2" y2="36.68"/><line class="cls-19" x1="47.13" y1="13.44" x2="47.13" y2="34.78"/><line class="cls-19" x1="44.06" y1="11.82" x2="44.06" y2="32.89"/><line class="cls-19" x1="40.99" y1="10.2" x2="40.99" y2="31"/></g></g></g></g><polygon class="cls-26" points="53.24 8.33 40.99 15.51 40.99 22.66 47.12 26.27 59.38 19.05 59.38 11.91 53.24 8.33"/><polygon class="cls-27" points="47.13 19.1 59.4 11.9 59.38 19.04 47.12 26.27 47.13 19.1"/><polyline class="cls-28" points="59.4 12.04 59.38 19.04 47.25 26.23"/></g><g id="AA2_BLOC_AV_copy_2" data-name="AA2 BLOC AV   ** copy 2"><g class="cls-3"><polygon class="cls-29" points="42.11 45.71 54.34 38.51 60.5 42.09 48.23 49.3 42.11 45.71"/><polygon class="cls-4" points="42.11 38.57 54.36 31.38 54.34 38.51 42.11 45.71 42.11 38.57"/><g id="IN"><g id="okIN_Cote" data-name="okIN Cote"><g class="cls-30"><g id="Blend_h-7" data-name="Blend  h"><line class="cls-31" x1="42.01" y1="47.62" x2="42.01" y2="35.67"/><line class="cls-31" x1="44.48" y1="46.28" x2="44.48" y2="34.39"/><line class="cls-31" x1="46.96" y1="44.94" x2="46.96" y2="33.12"/><line class="cls-31" x1="49.43" y1="43.6" x2="49.43" y2="31.84"/><line class="cls-31" x1="51.9" y1="42.25" x2="51.9" y2="30.57"/><line class="cls-31" x1="54.38" y1="40.91" x2="54.38" y2="29.29"/></g><g id="Blend_v_3-7" data-name="Blend   v 3"><line class="cls-31" x1="58.33" y1="36.2" x2="39.44" y2="47.32"/><line class="cls-31" x1="57.12" y1="33.25" x2="38.69" y2="44.13"/><line class="cls-31" x1="55.92" y1="30.3" x2="37.93" y2="40.94"/></g></g></g><g id="ok_1_dessus-2" data-name="ok 1   dessus"><g class="cls-32"><g id="Blend_h-8" data-name="Blend  h"><line class="cls-19" x1="49.63" y1="50.3" x2="39.38" y2="44.14"/><line class="cls-19" x1="52.08" y1="48.83" x2="41.88" y2="42.74"/><line class="cls-19" x1="54.53" y1="47.37" x2="44.37" y2="41.33"/><line class="cls-19" x1="56.98" y1="45.9" x2="46.86" y2="39.92"/><line class="cls-19" x1="59.43" y1="44.44" x2="49.36" y2="38.52"/><line class="cls-19" x1="61.88" y1="42.97" x2="51.85" y2="37.11"/></g><g id="Blend_v_3-8" data-name="Blend   v 3"><line class="cls-19" x1="62.8" y1="40.6" x2="43.91" y2="51.79"/><line class="cls-19" x1="60.77" y1="39.4" x2="42.19" y2="50.38"/><line class="cls-19" x1="58.74" y1="38.21" x2="40.46" y2="48.98"/><line class="cls-19" x1="56.72" y1="37.01" x2="38.74" y2="47.58"/></g></g></g></g><g id="cote_droit_Bas" data-name="cote droit Bas"><g class="cls-33"><g id="Blend_h-9" data-name="Blend  h"><line class="cls-21" x1="48.15" y1="57.72" x2="48.15" y2="45.77"/><line class="cls-21" x1="50.62" y1="56.38" x2="50.62" y2="44.49"/><line class="cls-21" x1="53.1" y1="55.03" x2="53.1" y2="43.22"/><line class="cls-21" x1="55.57" y1="53.69" x2="55.57" y2="41.94"/><line class="cls-21" x1="58.04" y1="52.35" x2="58.04" y2="40.67"/><line class="cls-21" x1="60.52" y1="51.01" x2="60.52" y2="39.39"/></g><g id="Blend_v_3-9" data-name="Blend   v 3"><line class="cls-21" x1="64.47" y1="46.71" x2="45.59" y2="57.78"/><line class="cls-21" x1="63.67" y1="44.5" x2="45.08" y2="55.36"/><line class="cls-21" x1="62.86" y1="42.29" x2="44.58" y2="52.94"/><line class="cls-21" x1="62.06" y1="40.08" x2="44.07" y2="50.52"/></g></g></g><g id="cote_g" data-name="cote g"><g class="cls-34"><g id="Blend_h-10" data-name="Blend  h"><line class="cls-19" x1="50.21" y1="57.5" x2="33.2" y2="47.68"/><line class="cls-19" x1="50.87" y1="54.31" x2="33.36" y2="44.19"/><line class="cls-19" x1="51.54" y1="51.13" x2="33.51" y2="40.71"/><line class="cls-19" x1="52.2" y1="47.94" x2="33.67" y2="37.23"/><line class="cls-19" x1="52.86" y1="44.75" x2="33.83" y2="33.75"/></g><g id="Blend_v_3-10" data-name="Blend   v 3"><line class="cls-19" x1="48.23" y1="37.86" x2="48.23" y2="59.75"/><line class="cls-19" x1="45.77" y1="36.57" x2="45.77" y2="58.23"/><line class="cls-19" x1="43.32" y1="35.27" x2="43.32" y2="56.72"/><line class="cls-19" x1="40.86" y1="33.97" x2="40.86" y2="55.2"/><line class="cls-19" x1="38.41" y1="32.68" x2="38.41" y2="53.69"/><line class="cls-19" x1="35.95" y1="31.38" x2="35.95" y2="52.17"/></g></g></g><g id="dessus"><g class="cls-35"><g id="Blend_h-11" data-name="Blend  h"><line class="cls-19" x1="44.08" y1="39.86" x2="33.84" y2="33.71"/><line class="cls-19" x1="46.53" y1="38.4" x2="36.33" y2="32.3"/><line class="cls-19" x1="48.99" y1="36.93" x2="38.83" y2="30.89"/><line class="cls-19" x1="51.44" y1="35.47" x2="41.32" y2="29.49"/><line class="cls-19" x1="53.89" y1="34" x2="43.81" y2="28.08"/><line class="cls-19" x1="56.34" y1="32.53" x2="46.31" y2="26.67"/></g><g id="Blend_v_3-11" data-name="Blend   v 3"><line class="cls-19" x1="60.19" y1="29.29" x2="41.31" y2="40.36"/><line class="cls-19" x1="56.99" y1="28.36" x2="38.41" y2="39.21"/><line class="cls-19" x1="53.8" y1="27.42" x2="35.51" y2="38.06"/><line class="cls-19" x1="50.6" y1="26.48" x2="32.61" y2="36.92"/></g></g></g></g><polygon class="cls-9" points="54.36 31.38 42.11 38.57 42.11 45.71 48.23 49.3 60.5 42.09 54.3 38.53 54.36 31.38"/><polygon class="cls-10" points="42.11 45.71 48.23 49.3 60.5 42.09 54.3 38.53 42.11 45.71"/><polygon class="cls-11" points="54.36 31.38 48.23 27.81 35.95 34.98 35.95 49.26 48.21 56.4 60.48 49.23 60.5 42.09 54.3 38.53 54.36 31.38"/></g><polygon class="cls-36" points="17.24 21.75 17.2 36.06 29.57 29.02 29.57 14.72 17.24 21.75"/><polygon id="AA2" class="cls-37" points="42.11 38.57 42.11 45.71 48.23 49.3 48.21 56.4 35.95 49.26 35.95 34.98 42.11 38.57"/><polygon class="cls-36" points="11.08 18.17 17.24 21.75 17.22 28.92 17.2 36.06 11.04 32.47 4.88 28.89 4.88 21.72 4.88 14.58 11.08 18.17"/><polygon class="cls-11" points="23.38 10.98 11.07 18.17 11.07 25.31 17.22 28.92 29.55 21.69 29.57 14.55 23.38 10.98"/><polygon class="cls-11" points="23.38 10.98 17.22 7.41 4.88 14.58 4.88 21.72 4.88 28.89 11.04 32.47 17.2 36.06 29.53 28.85 29.55 21.69 29.57 14.55 23.38 10.98"/></g></svg>