<svg id="_49_894_TEST_DATA_Explorer_copy_2" data-name="49 894  TEST DATA Explorer  ** copy 2" xmlns="http://www.w3.org/2000/svg" xmlns:xlink="http://www.w3.org/1999/xlink" viewBox="0 0 64 64"><defs><style>.cls-1{fill:none;}.cls-2{clip-path:url(#clip-path);}.cls-3{fill:#003755;}.cls-4{clip-path:url(#clip-path-2);}.cls-5{fill:url(#linear-gradient);}.cls-6{fill:url(#linear-gradient-2);}.cls-7{fill:url(#linear-gradient-3);}.cls-8{fill:url(#linear-gradient-4);}.cls-9{fill:url(#linear-gradient-5);}.cls-10{fill:url(#linear-gradient-6);}.cls-11{fill:url(#linear-gradient-7);}.cls-12{fill:url(#linear-gradient-8);}.cls-13,.cls-15{fill:#fff;}.cls-14{fill:#323232;}.cls-15{stroke:#2d6d8b;stroke-miterlimit:10;stroke-width:0.03px;}.cls-16{fill:url(#linear-gradient-9);}.cls-17{fill:url(#white_front_right);}.cls-18{fill:#f1f0f0;}.cls-19{fill:url(#top_white);}.cls-20{fill:url(#linear-gradient-10);}.cls-21{fill:url(#white_left);}.cls-22{fill:#797979;}.cls-23{fill:url(#linear-gradient-11);}</style><clipPath id="clip-path"><path class="cls-1" d="M64,57H0V14.18H24l.08,11.47S25.37,41,39.24,41c1.47,0,3.55.3,4.76,0,1.69,2,11.57,12.8,13,13,1.8.25,5.77-6.15,5-7-3.81-4.19-9.75-10.87-10.93-12.13a21.17,21.17,0,0,0,3.78-9.22V14.18H64Z"/></clipPath><clipPath id="clip-path-2"><ellipse class="cls-1" cx="39.65" cy="25.25" rx="11.89" ry="11.08"/></clipPath><linearGradient id="linear-gradient" x1="2.44" y1="28.71" x2="8.95" y2="39.98" gradientUnits="userSpaceOnUse"><stop offset="0" stop-color="#8cd7f5"/><stop offset="1" stop-color="#376e8c"/></linearGradient><linearGradient id="linear-gradient-2" x1="7.6" y1="23.45" x2="19.57" y2="44.19" xlink:href="#linear-gradient"/><linearGradient id="linear-gradient-3" x1="11.55" y1="20.16" x2="30.35" y2="52.73" xlink:href="#linear-gradient"/><linearGradient id="linear-gradient-4" x1="24.27" y1="25.49" x2="32.37" y2="39.52" xlink:href="#linear-gradient"/><linearGradient id="linear-gradient-5" x1="29.19" y1="21.42" x2="42.17" y2="43.89" xlink:href="#linear-gradient"/><linearGradient id="linear-gradient-6" x1="37.18" y1="29.7" x2="48.92" y2="50.04" xlink:href="#linear-gradient"/><linearGradient id="linear-gradient-7" x1="44.43" y1="23.45" x2="56.4" y2="44.19" xlink:href="#linear-gradient"/><linearGradient id="linear-gradient-8" x1="55.21" y1="31.48" x2="60.35" y2="40.37" xlink:href="#linear-gradient"/><linearGradient id="linear-gradient-9" x1="-9199.16" y1="-8162.57" x2="-9199.91" y2="-8161.68" gradientTransform="matrix(0.79, 0.07, -0.34, 1.2, 4546.96, 10523.14)" gradientUnits="userSpaceOnUse"><stop offset="0" stop-color="#fff"/><stop offset="0.24" stop-color="#fcfcfc"/><stop offset="0.43" stop-color="#f2f2f2"/><stop offset="0.46" stop-color="#f0f0f0"/></linearGradient><linearGradient id="white_front_right" x1="-9199.85" y1="-8161.79" x2="-9199.07" y2="-8160.44" gradientTransform="matrix(0.79, 0.07, -0.34, 1.2, 4546.96, 10523.14)" gradientUnits="userSpaceOnUse"><stop offset="0" stop-color="#fff"/><stop offset="1" stop-color="#d2d2d2"/></linearGradient><linearGradient id="top_white" x1="-9200.96" y1="-8164.06" x2="-9196.62" y2="-8164.06" gradientTransform="matrix(0.79, 0.07, -0.34, 1.2, 4546.96, 10523.14)" gradientUnits="userSpaceOnUse"><stop offset="0" stop-color="#fff"/><stop offset="1" stop-color="#f0f0f0"/></linearGradient><linearGradient id="linear-gradient-10" x1="-9199.79" y1="-8162.98" x2="-9200.69" y2="-8161.42" gradientTransform="matrix(0.79, 0.07, -0.34, 1.2, 4546.96, 10523.14)" gradientUnits="userSpaceOnUse"><stop offset="0.16" stop-color="#f5f5f5"/><stop offset="0.27" stop-color="#e7e7e7"/><stop offset="0.48" stop-color="#c1c1c1"/><stop offset="0.5" stop-color="#bebebe"/></linearGradient><linearGradient id="white_left" x1="-9199.57" y1="-8162.38" x2="-9195.69" y2="-8162.38" gradientTransform="matrix(0.79, 0.07, -0.34, 1.2, 4546.96, 10523.14)" gradientUnits="userSpaceOnUse"><stop offset="0" stop-color="#f5f5f5"/><stop offset="1" stop-color="#bebebe"/></linearGradient><linearGradient id="linear-gradient-11" x1="-9193.21" y1="-8165.72" x2="-9184.38" y2="-8150.43" gradientTransform="matrix(0.79, 0.07, -0.34, 1.2, 4546.96, 10523.14)" gradientUnits="userSpaceOnUse"><stop offset="0.04" stop-color="#141414"/><stop offset="1" stop-color="#464646"/></linearGradient></defs><title>aaavvv_A33AAe__R21XArtboard 1</title><g id="CODE_BARRE_" data-name="CODE BARRE  ***"><g class="cls-2"><g id="a"><path class="cls-3" d="M7.75,40.65A1.9,1.9,0,0,1,6,38.85V33.49a1.94,1.94,0,0,1,1.8-1.84,1.94,1.94,0,0,1,1.8,1.84v5.36A1.9,1.9,0,0,1,7.75,40.65Z"/></g><g id="a-2" data-name="a"><path class="cls-3" d="M14.08,44.24a1.9,1.9,0,0,1-1.83-1.76V28.85a1.83,1.83,0,0,1,1.83-1.69,1.86,1.86,0,0,1,1.77,1.78V42.45A1.87,1.87,0,0,1,14.08,44.24Z"/></g><g id="a-3" data-name="a"><path class="cls-3" d="M20.4,51.4a1.88,1.88,0,0,1-1.81-1.76V25.27a1.83,1.83,0,0,1,1.83-1.69,1.78,1.78,0,0,1,1.68,1.78l0,24.26A1.78,1.78,0,0,1,20.4,51.4Z"/></g><g id="a-4" data-name="a"><path class="cls-3" d="M26.76,45.14a1.9,1.9,0,0,1-1.83-1.77V28a1.85,1.85,0,0,1,1.84-1.7,1.8,1.8,0,0,1,1.69,1.79v15.3A1.8,1.8,0,0,1,26.76,45.14Z"/></g><g id="a-5" data-name="a"><path class="cls-3" d="M33,47.82a1.9,1.9,0,0,1-1.83-1.76V30.64A1.83,1.83,0,0,1,33,29a1.81,1.81,0,0,1,1.7,1.79V46A1.8,1.8,0,0,1,33,47.82Z"/></g><g id="a-6" data-name="a"><path class="cls-3" d="M39.28,45.15a1.9,1.9,0,0,1-1.83-1.76V28a1.83,1.83,0,0,1,1.83-1.69A1.8,1.8,0,0,1,41,28.06v15.3A1.81,1.81,0,0,1,39.28,45.15Z"/></g><g id="a-7" data-name="a"><path class="cls-3" d="M45.66,48.72A1.9,1.9,0,0,1,43.83,47V31.54a1.84,1.84,0,0,1,1.84-1.69,1.8,1.8,0,0,1,1.69,1.79v15.3A1.79,1.79,0,0,1,45.66,48.72Z"/></g><g id="a-8" data-name="a"><path class="cls-3" d="M51.88,44.25a1.9,1.9,0,0,1-1.83-1.76V34.24a1.83,1.83,0,0,1,1.83-1.69,1.81,1.81,0,0,1,1.7,1.79v8.12A1.81,1.81,0,0,1,51.88,44.25Z"/></g><path class="cls-3" d="M57.25,40.65a1.9,1.9,0,0,1-1.8-1.8v-3.6a1.8,1.8,0,0,1,3.6,0v3.6A1.9,1.9,0,0,1,57.25,40.65Z"/></g></g><g id="IN_LOUPE_" data-name="IN LOUPE   ***"><g class="cls-4"><path class="cls-5" d="M5.69,41.45a2.63,2.63,0,0,1-2.63-2.63V29.87a2.63,2.63,0,1,1,5.26,0v9A2.63,2.63,0,0,1,5.69,41.45Z"/><path class="cls-3" d="M6,27.5a2.37,2.37,0,0,1,2.36,2.37v9a2.37,2.37,0,0,1-4.73,0V29.87A2.38,2.38,0,0,1,6,27.5M6,27H6a2.91,2.91,0,0,0-2.9,2.89v9A2.91,2.91,0,0,0,6,41.71H6a2.9,2.9,0,0,0,2.89-2.89V29.87A2.9,2.9,0,0,0,6,27Z"/><path class="cls-6" d="M13.59,47.23A2.64,2.64,0,0,1,11,44.6V23a2.64,2.64,0,0,1,5.27,0V44.6A2.63,2.63,0,0,1,13.59,47.23Z"/><path class="cls-3" d="M13.32,20.67A2.37,2.37,0,0,1,15.69,23V44.6a2.37,2.37,0,0,1-4.74,0V23a2.37,2.37,0,0,1,2.37-2.36M10.43,23V44.6a2.9,2.9,0,1,0,5.79,0V23a2.87,2.87,0,0,0-2.86-2.89h0A2.92,2.92,0,0,0,10.43,23Z"/><path class="cls-7" d="M21,57.76a2.63,2.63,0,0,1-2.63-2.63V17.77a2.63,2.63,0,0,1,5.26,0V55.13A2.63,2.63,0,0,1,21,57.76Z"/><path class="cls-3" d="M20.69,15.4a2.38,2.38,0,0,1,2.37,2.37V55.13a2.37,2.37,0,0,1-4.74,0V17.77a2.38,2.38,0,0,1,2.37-2.37m-2.9,2.37V55.13a2.9,2.9,0,0,0,5.79,0V17.77a2.84,2.84,0,0,0-2.82-2.89h0A2.93,2.93,0,0,0,17.79,17.77Z"/><path class="cls-8" d="M28.32,41.45a2.63,2.63,0,0,1-2.63-2.63V26.19a2.63,2.63,0,1,1,5.26,0V38.82A2.63,2.63,0,0,1,28.32,41.45Z"/><path class="cls-3" d="M28.05,23.82a2.37,2.37,0,0,1,2.37,2.37V38.82a2.37,2.37,0,0,1-4.73,0V26.19a2.37,2.37,0,0,1,2.36-2.37m-2.89,2.37V38.82a2.9,2.9,0,0,0,5.79,0V26.19a2.81,2.81,0,0,0-2.78-2.89h-.06A3,3,0,0,0,25.16,26.19Z"/><path class="cls-9" d="M35.68,47.23a2.63,2.63,0,0,1-2.63-2.63V20.71a2.63,2.63,0,0,1,5.26,0V44.6A2.63,2.63,0,0,1,35.68,47.23Z"/><path class="cls-3" d="M36,18.34a2.37,2.37,0,0,1,2.36,2.37V44.6a2.37,2.37,0,1,1-4.73,0V20.71A2.37,2.37,0,0,1,36,18.34m-2.9,2.37V44.6a2.9,2.9,0,1,0,5.79,0V20.71a3,3,0,0,0-3-2.9h.06A2.86,2.86,0,0,0,33.05,20.71Z"/><path class="cls-10" d="M43.05,53a2.63,2.63,0,0,1-2.63-2.63v-21a2.63,2.63,0,1,1,5.26,0v21A2.63,2.63,0,0,1,43.05,53Z"/><path class="cls-3" d="M43.31,27a2.37,2.37,0,0,1,2.37,2.37v21a2.37,2.37,0,1,1-4.74,0v-21A2.38,2.38,0,0,1,43.31,27m-2.89,2.37v21a2.9,2.9,0,1,0,5.79,0v-21a3,3,0,0,0-3-2.9h0A2.87,2.87,0,0,0,40.42,29.35Z"/><path class="cls-11" d="M50.41,47.23a2.63,2.63,0,0,1-2.63-2.63V23a2.64,2.64,0,0,1,5.27,0V44.6A2.64,2.64,0,0,1,50.41,47.23Z"/><path class="cls-3" d="M50.68,20.67A2.37,2.37,0,0,1,53.05,23V44.6a2.37,2.37,0,0,1-4.74,0V23a2.37,2.37,0,0,1,2.37-2.36M47.78,23V44.6a2.9,2.9,0,1,0,5.79,0V23a2.93,2.93,0,0,0-2.93-2.89h0A2.89,2.89,0,0,0,47.78,23Z"/><path class="cls-12" d="M57.78,41.45a2.63,2.63,0,0,1-2.63-2.63V33a2.63,2.63,0,1,1,5.26,0v5.79A2.63,2.63,0,0,1,57.78,41.45Z"/><path class="cls-3" d="M58,30.66A2.37,2.37,0,0,1,60.41,33v5.79a2.37,2.37,0,0,1-4.73,0V33A2.37,2.37,0,0,1,58,30.66m0-.52A2.9,2.9,0,0,0,55.15,33v5.79a2.9,2.9,0,0,0,5.79,0V33A2.91,2.91,0,0,0,58,30.14Z"/></g></g><g id="SEARCH_copy_2" data-name="SEARCH copy 2"><path class="cls-13" d="M28,29.21a12.79,12.79,0,0,1,.25-7.3,11.73,11.73,0,0,1,4.95-6.22,12.07,12.07,0,0,1,16,3,11.36,11.36,0,0,1,1.44,2.68c.11.3.53,1.07.39,1.37s-.48.77-.69.84a6.75,6.75,0,0,0-.8-1.88A11.26,11.26,0,0,0,40,15.65c-4.24-.1-8.78,2.6-10.24,6.69-.08.22-.4,1.13-.51,1.56A10.93,10.93,0,0,0,29.06,28c0,.21.17,1.4.24,1.88A11.16,11.16,0,0,1,28,29.21Z"/><path class="cls-14" d="M50.11,21.23l.6,2.07a11.87,11.87,0,0,0-.55-1.51,11.42,11.42,0,0,0-21,.6,11.21,11.21,0,0,0-.31,7.15l-.6-2.07a11.14,11.14,0,0,1,.32-7.15,11.36,11.36,0,0,1,21.59.91Z"/><path class="cls-14" d="M51.06,21l.6,2.08a12.22,12.22,0,0,1-.35,7.79,12.38,12.38,0,0,1-23.45-1l-.6-2.07a12.27,12.27,0,0,0,7.47,8.12A12.35,12.35,0,0,0,51.06,21Z"/><path class="cls-15" d="M43.58,12.84A12.34,12.34,0,1,1,27.6,20,12.3,12.3,0,0,1,43.58,12.84Zm.22,21.87A11.35,11.35,0,1,0,34.52,14a11.4,11.4,0,0,0-6,6.32A11.16,11.16,0,0,0,28.76,29a11.38,11.38,0,0,0,15,5.72"/><g id="fixation_manche_ok" data-name="fixation manche   ok"><path class="cls-13" d="M49.24,34.91c-.05-.14-.19-.16-.38,0l-2.78,1.87.19.39,2.78-1.88c.17-.1.28-.08.32,0C49.33,35.16,49.28,35,49.24,34.91Z"/><path id="c3_angle" data-name="c3 angle" class="cls-16" d="M45.56,38.16l-.29-.23a1.62,1.62,0,0,1,.81-1.19l.19.39A1.41,1.41,0,0,0,45.56,38.16Z"/><path class="cls-17" d="M45.56,38.16l-.29-.23a5.92,5.92,0,0,0,.13,1.35l.28.16A6.49,6.49,0,0,1,45.56,38.16Z"/><path id="b5" class="cls-18" d="M48.26,33.63l1,1.22c-.07-.08-.19-.09-.35,0l-.94-1.22C48.08,33.54,48.2,33.55,48.26,33.63Z"/><polygon id="b4" class="cls-19" points="46.08 36.74 45.14 35.52 47.92 33.65 48.86 34.87 46.08 36.74"/><path class="cls-20" d="M46.08,36.74l-.94-1.22a2.38,2.38,0,0,0-.81,1.18A10.58,10.58,0,0,0,44.41,38l.94,1.22a10.42,10.42,0,0,1-.08-1.31A1.6,1.6,0,0,1,46.08,36.74Z"/><path id="contour_face" data-name="contour face" class="cls-21" d="M49.05,35.25c.28-.17.42,0,.31.39l-.25,1a2.12,2.12,0,0,1-.71,1L46,39.39c-.28.17-.31-.08-.31-.08l-.08-1.15a1.36,1.36,0,0,1,.71-1Zm0,1.46.25-1c.09-.33,0-.47-.26-.32l-2.78,1.87a1.27,1.27,0,0,0-.58.85l.08,1.15c-.09.32,0,.16.25,0l2.45-1.72a1.65,1.65,0,0,0,.59-.84"/><path id="face" class="cls-14" d="M49,35.38c.23-.15.35,0,.26.32l-.25,1a1.65,1.65,0,0,1-.59.84L46,39.27c-.23.14-.25,0-.25,0l-.08-1.15a1.06,1.06,0,0,1,.58-.85Z"/></g><g id="Layer_55_copy_3" data-name="Layer 55 copy 3"><path class="cls-14" d="M59.69,48.55s0-.78-.23-.66c.49.75-1.87,2.89-2.49,2.63-.34-.14-10.8-13.07-10.8-13.07l-.34.6,0,1.14s9.82,11.28,10.49,12,2.41-.37,2.73-.86a2.93,2.93,0,0,0,.62-1.8C59.7,48.34,59.65,49,59.69,48.55Z"/><path class="cls-14" d="M59.69,48.55a1,1,0,0,0-.15-.66L49.14,35.56h-.26l-2.71,1.89-.35.61,0,1.14s9.81,11.27,10.48,12,2.41-.37,2.73-.86A3,3,0,0,0,59.69,48.55Z"/><path id="rel_" data-name="rel ***" class="cls-22" d="M46.17,37.45l2.71-1.89h.26L59.5,47.87s.32.58-.85,1.69-1.68,1-1.68,1L45.82,38.06l.35-.61Z"/><path id="dessus_" data-name="dessus****" class="cls-23" d="M59.46,47.82c.47.73-2.14,3.1-2.7,2.44L46.17,37.45l2.71-1.89S59.23,47.46,59.46,47.82Z"/><polygon id="rel_2" data-name="rel ***" class="cls-22" points="46.17 37.45 56.82 50.42 56.66 50.42 45.82 38.06 46.17 37.45 46.17 37.45"/></g></g></svg>