<svg id="Layer_4" data-name="Layer 4" xmlns="http://www.w3.org/2000/svg" xmlns:xlink="http://www.w3.org/1999/xlink" viewBox="0 0 64 64"><defs><style>.cls-1{fill:#fff;}.cls-10,.cls-18,.cls-19,.cls-2,.cls-20,.cls-21,.cls-24,.cls-25,.cls-6{fill:none;}.cls-2{stroke:#285977;}.cls-3{fill:red;}.cls-4{fill:blue;}.cls-5{fill:#285977;}.cls-25,.cls-26,.cls-27,.cls-6{stroke:#797979;}.cls-10,.cls-20,.cls-21,.cls-24,.cls-25,.cls-6{stroke-linecap:round;}.cls-10,.cls-24,.cls-25,.cls-6{stroke-linejoin:round;}.cls-7{fill:#323232;}.cls-8{fill:url(#linear-gradient);}.cls-9{fill:url(#linear-gradient-2);}.cls-10,.cls-20,.cls-21{stroke:#831300;}.cls-11{fill:url(#linear-gradient-3);}.cls-12{fill:url(#linear-gradient-4);}.cls-13{fill:url(#linear-gradient-5);}.cls-14{fill:url(#linear-gradient-6);}.cls-15{fill:url(#linear-gradient-7);}.cls-16{fill:url(#linear-gradient-8);}.cls-17{fill:url(#linear-gradient-9);}.cls-18,.cls-19{stroke:#000;stroke-width:0.25px;}.cls-18{stroke-miterlimit:1;}.cls-19,.cls-20,.cls-21,.cls-26,.cls-27{stroke-miterlimit:10;}.cls-20{stroke-width:0.75px;}.cls-21{stroke-width:0.57px;}.cls-22{fill:#797979;}.cls-23{fill:url(#linear-gradient-11);}.cls-24{stroke:#787878;stroke-width:0.43px;}.cls-25{stroke-width:0.28px;}.cls-26{fill:#e1e1e1;}.cls-26,.cls-27{stroke-width:0.71px;}.cls-27{fill:url(#linear-gradient-12);}</style><linearGradient id="linear-gradient" x1="18.12" y1="31.9" x2="30.66" y2="10.19" gradientTransform="matrix(1, 0, 0, -1, 0, 64)" gradientUnits="userSpaceOnUse"><stop offset="0" stop-color="#fff"/><stop offset="1" stop-color="#d2d2d2"/></linearGradient><linearGradient id="linear-gradient-2" x1="25.54" y1="36.12" x2="27.43" y2="32.83" gradientTransform="matrix(1, 0, 0, -1, 0, 64)" gradientUnits="userSpaceOnUse"><stop offset="0" stop-color="#fff"/><stop offset="1" stop-color="#f0f0f0"/></linearGradient><linearGradient id="linear-gradient-3" x1="35.54" y1="36.44" x2="40.1" y2="36.44" gradientTransform="matrix(1, 0, 0, -1, 0, 64)" gradientUnits="userSpaceOnUse"><stop offset="0" stop-color="#fcee21"/><stop offset="0.06" stop-color="#fbe920"/><stop offset="0.14" stop-color="#f7d91e"/><stop offset="0.23" stop-color="#f0c01a"/><stop offset="0.32" stop-color="#e79d15"/><stop offset="0.42" stop-color="#db700e"/><stop offset="0.52" stop-color="#cc3906"/><stop offset="0.59" stop-color="#c10e00"/><stop offset="0.92" stop-color="#c10e00"/></linearGradient><linearGradient id="linear-gradient-4" x1="32.33" y1="27.73" x2="35.79" y2="33.49" gradientTransform="matrix(1, 0, 0, -1, 0, 64)" gradientUnits="userSpaceOnUse"><stop offset="0" stop-color="#39b54a"/><stop offset="0" stop-color="#3eb749"/><stop offset="0" stop-color="#4dbb46"/><stop offset="0" stop-color="#66c241"/><stop offset="0" stop-color="#88cc39"/><stop offset="0" stop-color="#b4d930"/><stop offset="0" stop-color="#e9e925"/><stop offset="0" stop-color="#fcee21"/><stop offset="0" stop-color="#fbec21"/><stop offset="0" stop-color="#fae520"/><stop offset="0" stop-color="#f6d81e"/><stop offset="0" stop-color="#f1c61b"/><stop offset="0" stop-color="#ebaf18"/><stop offset="0" stop-color="#e49213"/><stop offset="0" stop-color="#db700e"/><stop offset="0" stop-color="#d04809"/><stop offset="0" stop-color="#c51c02"/><stop offset="0" stop-color="#c10e00"/><stop offset="0" stop-color="#cc3906"/><stop offset="0" stop-color="#db700e"/><stop offset="0" stop-color="#e79d15"/><stop offset="0" stop-color="#f0c01a"/><stop offset="0" stop-color="#f7d91e"/><stop offset="0" stop-color="#fbe920"/><stop offset="0" stop-color="#fcee21"/><stop offset="0.15" stop-color="#cbc04c"/><stop offset="0.38" stop-color="#847c8b"/><stop offset="0.59" stop-color="#4b47bd"/><stop offset="0.77" stop-color="#2220e1"/><stop offset="0.91" stop-color="#0909f7"/><stop offset="1" stop-color="blue"/></linearGradient><linearGradient id="linear-gradient-5" x1="27.67" y1="30.03" x2="43.9" y2="30.03" gradientTransform="matrix(1, 0, 0, -1, 0, 64)" gradientUnits="userSpaceOnUse"><stop offset="0.17" stop-color="#39b54a"/><stop offset="0.2" stop-color="#3eb749"/><stop offset="0.24" stop-color="#4dbb46"/><stop offset="0.27" stop-color="#66c241"/><stop offset="0.31" stop-color="#88cc39"/><stop offset="0.36" stop-color="#b4d930"/><stop offset="0.4" stop-color="#e9e925"/><stop offset="0.41" stop-color="#fcee21"/><stop offset="0.54" stop-color="#fbec21"/><stop offset="0.6" stop-color="#fae520"/><stop offset="0.64" stop-color="#f6d81e"/><stop offset="0.67" stop-color="#f1c61b"/><stop offset="0.7" stop-color="#ebaf18"/><stop offset="0.73" stop-color="#e49213"/><stop offset="0.76" stop-color="#db700e"/><stop offset="0.78" stop-color="#d04809"/><stop offset="0.8" stop-color="#c51c02"/><stop offset="0.81" stop-color="#c10e00"/><stop offset="1" stop-color="#c10e00"/></linearGradient><linearGradient id="linear-gradient-6" x1="40.68" y1="31.5" x2="48.61" y2="31.5" gradientTransform="matrix(1, 0, 0, -1, 0, 64)" gradientUnits="userSpaceOnUse"><stop offset="0.26" stop-color="#c10e00"/><stop offset="0.55" stop-color="#c10e00"/><stop offset="0.6" stop-color="#cc3906"/><stop offset="0.68" stop-color="#db700e"/><stop offset="0.75" stop-color="#e79d15"/><stop offset="0.83" stop-color="#f0c01a"/><stop offset="0.89" stop-color="#f7d91e"/><stop offset="0.95" stop-color="#fbe920"/><stop offset="1" stop-color="#fcee21"/></linearGradient><linearGradient id="linear-gradient-7" x1="47.54" y1="35.26" x2="60.36" y2="30.85" gradientTransform="matrix(1, 0, 0, -1, 0, 64)" gradientUnits="userSpaceOnUse"><stop offset="0" stop-color="#39b54a"/><stop offset="0" stop-color="#3eb749"/><stop offset="0" stop-color="#4dbb46"/><stop offset="0" stop-color="#66c241"/><stop offset="0" stop-color="#88cc39"/><stop offset="0" stop-color="#b4d930"/><stop offset="0" stop-color="#e9e925"/><stop offset="0" stop-color="#fcee21"/><stop offset="0" stop-color="#fbec21"/><stop offset="0" stop-color="#fae520"/><stop offset="0" stop-color="#f6d81e"/><stop offset="0" stop-color="#f1c61b"/><stop offset="0" stop-color="#ebaf18"/><stop offset="0" stop-color="#e49213"/><stop offset="0" stop-color="#db700e"/><stop offset="0" stop-color="#d04809"/><stop offset="0" stop-color="#c51c02"/><stop offset="0" stop-color="#c10e00"/><stop offset="0" stop-color="#cc3906"/><stop offset="0" stop-color="#db700e"/><stop offset="0" stop-color="#e79d15"/><stop offset="0" stop-color="#f0c01a"/><stop offset="0" stop-color="#f7d91e"/><stop offset="0" stop-color="#fbe920"/><stop offset="0" stop-color="#fcee21"/><stop offset="0.09" stop-color="#eee72e"/><stop offset="0.27" stop-color="#c8d352"/><stop offset="0.5" stop-color="#8bb48a"/><stop offset="0.68" stop-color="#5a9ab8"/><stop offset="1" stop-color="#285977"/></linearGradient><linearGradient id="linear-gradient-8" x1="24.34" y1="26.26" x2="27.68" y2="26.26" gradientTransform="matrix(1, 0, 0, -1, 0, 64)" gradientUnits="userSpaceOnUse"><stop offset="0.13" stop-color="#39b54a"/><stop offset="0.48" stop-color="#39b54a"/></linearGradient><linearGradient id="linear-gradient-9" x1="35.16" y1="26.95" x2="48.64" y2="50.29" gradientTransform="matrix(1, 0, 0, -1, 0, 64)" gradientUnits="userSpaceOnUse"><stop offset="0.13" stop-color="#39b54a"/><stop offset="0.15" stop-color="#3eb749"/><stop offset="0.18" stop-color="#4dbb46"/><stop offset="0.2" stop-color="#66c241"/><stop offset="0.23" stop-color="#88cc39"/><stop offset="0.25" stop-color="#b4d930"/><stop offset="0.28" stop-color="#e9e925"/><stop offset="0.29" stop-color="#fcee21"/><stop offset="0.35" stop-color="#fbec21"/><stop offset="0.38" stop-color="#fae520"/><stop offset="0.4" stop-color="#f6d81e"/><stop offset="0.42" stop-color="#f1c61b"/><stop offset="0.44" stop-color="#ebaf18"/><stop offset="0.45" stop-color="#e49213"/><stop offset="0.46" stop-color="#db700e"/><stop offset="0.48" stop-color="#d04809"/><stop offset="0.49" stop-color="#c51c02"/><stop offset="0.49" stop-color="#c10e00"/><stop offset="0.6" stop-color="#c10e00"/><stop offset="0.6" stop-color="#c41a02"/><stop offset="0.61" stop-color="#d04608"/><stop offset="0.61" stop-color="#da6e0e"/><stop offset="0.62" stop-color="#e39113"/><stop offset="0.63" stop-color="#ebae18"/><stop offset="0.64" stop-color="#f1c61b"/><stop offset="0.65" stop-color="#f6d81e"/><stop offset="0.66" stop-color="#f9e420"/><stop offset="0.68" stop-color="#fbec21"/><stop offset="0.71" stop-color="#fcee21"/><stop offset="0.75" stop-color="#dbdd40"/><stop offset="0.81" stop-color="#adc56a"/><stop offset="0.86" stop-color="#89b28c"/><stop offset="0.92" stop-color="#6fa5a4"/><stop offset="0.96" stop-color="#5f9db3"/><stop offset="1" stop-color="#5a9ab8"/></linearGradient><linearGradient id="linear-gradient-11" x1="32.99" y1="31.78" x2="34.89" y2="28.49" xlink:href="#linear-gradient-2"/><linearGradient id="linear-gradient-12" x1="32.73" y1="23.18" x2="38.96" y2="23.18" xlink:href="#linear-gradient-2"/></defs><title>29148_PhysicsResult_R21XArtboard 1</title><g id="Layer_114_copy_8" data-name="Layer 114 copy 8"><rect id="page_02_degradé_linéaire" data-name="page  02  degradé linéaire" class="cls-1" x="7" y="9.01" width="26" height="20"/><rect id="page_03_degrade_diagonale" data-name="page  03  degrade  diagonale" class="cls-2" x="6.5" y="9.51" width="27" height="20"/><path class="cls-3" d="M9.56,24.27l1.75-4.62a.91.91,0,0,1,.59-.56l.18-.05,2.85-.86-.75.59,2.2-3.18.19-.27a1,1,0,0,1,1.37-.25,1,1,0,0,1,.41.64l.53,2.82-.1-.13,2.27.66L21,19l2.34,1.2-3,.67,2.94-3.75.2-.25a.92.92,0,0,1,1.29-.16,1.07,1.07,0,0,1,.18.19l2.81,3.95-.78,0,.82-2.15a.81.81,0,0,1,1-.47h.05l2.3,1a.53.53,0,0,1,.27.7.51.51,0,0,1-.39.31l-2.48.42,1.11-.45L27.73,21.5l-.11.07a.54.54,0,0,1-.67-.06l-3.56-3.27L25.06,18l-1.21,4.6a1.73,1.73,0,0,1-2.12,1.24,1.81,1.81,0,0,1-.88-.56h0l-1.69-2-.08-.07L18.22,19l0,0-.07-.09-1.8-2.24,2,.12-1.81,3.41a1.15,1.15,0,0,1-.67.56l-.08,0-2.83.91.77-.61-3.23,3.74a.52.52,0,0,1-.88-.52Z"/><path class="cls-4" d="M29.73,20.7a3.37,3.37,0,0,0-1.3.79c-.36.34-.68.73-1,1.11a.38.38,0,0,1-.52.06l-.09-.07a29.72,29.72,0,0,0-3.39-2.43l1.82-.47-1.78,5.09-.09.25a.72.72,0,0,1-.91.44.73.73,0,0,1-.41-.38,8.48,8.48,0,0,0-1.12-1.74,15.15,15.15,0,0,0-1.38-1.51A20.16,20.16,0,0,0,18,20.5a12.52,12.52,0,0,0-1.8-1.14l2.2-.09a5.27,5.27,0,0,0-1.15.64,8,8,0,0,0-.94.79l-.14.13h0a16,16,0,0,0-1.78,1.09,14.64,14.64,0,0,0-1.59,1.36,18.61,18.61,0,0,1-1.55,1.41,2.79,2.79,0,0,1-2,.84.69.69,0,0,1-.66-.72.58.58,0,0,1,0-.19,2.83,2.83,0,0,1,1.47-1.53A20.49,20.49,0,0,1,12,22.14a13,13,0,0,0,1.84-1,16.93,16.93,0,0,0,1.65-1.28l-.14.13a10.36,10.36,0,0,0,.48-1.13,5.7,5.7,0,0,0,.28-1.28,1.11,1.11,0,0,1,1.21-1,1.09,1.09,0,0,1,.93.73l.06.17a10.63,10.63,0,0,0,.92,1.92,17.08,17.08,0,0,0,1.14,1.72,15.21,15.21,0,0,0,1.33,1.56A8.17,8.17,0,0,0,23.29,24l-1.41.32,1.26-5.24.05-.19a1,1,0,0,1,1.18-.72,1,1,0,0,1,.59.44,31.75,31.75,0,0,0,2.48,3.34h-.61a13.58,13.58,0,0,0,1.23-.87A3.28,3.28,0,0,0,29,19.87a.61.61,0,0,1,1.11.5A.65.65,0,0,1,29.73,20.7Z"/><g id="page_03_degrade_diagonale-2" data-name="page  03  degrade  diagonale"><polyline class="cls-2" points="15.67 29.47 6.53 29.47 6.53 17.3"/><polygon class="cls-5" points="14.28 27.43 21.87 29.47 14.28 31.5 14.28 27.43"/><polygon class="cls-5" points="8.56 18.69 6.53 11.1 4.49 18.69 8.56 18.69"/></g></g><g id="Layer_5" data-name="Layer 5"><path id="CONTOUR" class="cls-6" d="M41.4,31.51l-4-2.36L34.3,30.81l0-3.69L30.2,24.65,18.5,31.48V48.75L30,54.55,41.4,48.64ZM26.73,36v3.43a1.58,1.58,0,0,1-.92-1.63,5.32,5.32,0,0,1,2.41-4.16c.92-.54,1.72-.39,2.13.26Zm9.68,6.66-2.6-1.33H33.5v-1c0-.85,1.31-1.63,2-2,1.16-.67,2.26-.13,2.26,1.2A4.51,4.51,0,0,1,36.41,42.66Z"/><g id="Layer_1_copy_34" data-name="Layer 1 copy 34"><path class="cls-7" d="M22.76,33.86,33.9,27.42l0,16L22.76,50V33.86ZM28,39.18A5.32,5.32,0,0,0,30.41,35c0-1.54-1.09-2.15-2.42-1.38a5.28,5.28,0,0,0-2.4,4.16c0,1.53,1.09,2.15,2.42,1.38"/><polygon class="cls-8" points="26.49 36 26.5 48.07 22.76 45.95 22.76 33.86 18.96 31.61 18.97 48.45 30.21 54.06 30.21 38.16 26.49 36"/><polygon id="dessus_1_" data-name="dessus 1  *" class="cls-9" points="22.76 33.86 19.07 31.69 30.15 25.22 33.9 27.38 22.76 33.86"/></g><path id="contour-2" data-name="contour" class="cls-10" d="M59.51,20,45.9,12.39h0L35.54,18.31v5.34L24.33,30.58V42.72l3.35,2.18,13-7.65L48.6,42l10.92-6.4Z"/><g id="Layer_23_copy_6" data-name="Layer 23 copy 6"><polygon id="color" class="cls-11" points="40.1 36.81 35.54 33.96 35.54 18.31 40.08 20.83 40.1 36.81"/><path id="color_" data-name="color&gt;" class="cls-12" d="M37,31.24l-4.18-2.43a1.65,1.65,0,0,1,.68,1.51,5.18,5.18,0,0,1-2.35,4.08,1.66,1.66,0,0,1-1.68.16L33.68,37a1.66,1.66,0,0,0,1.68-.17,5.16,5.16,0,0,0,2.35-4.07A1.64,1.64,0,0,0,37,31.24Z"/><path id="color_ok" data-name="color ok" class="cls-13" d="M27.68,32.74,43.9,23V35.32L27.67,44.91Zm7.67,4.08a5.15,5.15,0,0,0,2.35-4.08c0-1.49-1-2.1-2.29-1.34A5.23,5.23,0,0,0,33,35.47c0,1.5,1.06,2.1,2.36,1.35"/><polygon id="color-2" data-name="color" class="cls-14" points="48.61 41.97 40.68 37.25 43.9 35.32 43.9 23.03 48.6 25.67 48.61 41.97"/><path id="color_2" data-name="color**" class="cls-15" d="M48.6,25.67l11-5.66,0,15.56L48.61,42Z"/><polygon id="color_bout_tenon_color_ok_" data-name="color bout tenon color ok   ***" class="cls-16" points="27.67 44.91 24.34 42.72 24.34 30.57 27.68 32.73 27.67 44.91"/><path id="color_top_ok_" data-name="color top ok    ***" class="cls-17" d="M45.9,12.39,35.57,18.31l4.51,2.52L24.33,30.57l3.35,2.17L43.9,23l4.7,2.64,11-5.66Z"/></g><g id="tenon_copy_26" data-name="tenon copy 26"><path class="cls-18" d="M37.91,32.85a4.56,4.56,0,0,1-.45,1.85l-.08.16a3,3,0,0,1-.19.36,4.68,4.68,0,0,1-1.63,1.7,1.7,1.7,0,0,1-1.58.21,1.64,1.64,0,0,1-.22-.14,1.72,1.72,0,0,1-.57-1.42,4.65,4.65,0,0,1,.57-2.08c.08-.15.15-.28.24-.42a4.73,4.73,0,0,1,1.54-1.57,1.76,1.76,0,0,1,1.51-.23,1.09,1.09,0,0,1,.33.19l.06.05A1.84,1.84,0,0,1,37.91,32.85Zm-10.25,8v4l2.87-1.67v-4.1Zm2.87-1.76v4.1l3.34-2V37.33Zm10.12-1.84,3.26-1.77v-4l-3.26,1.84Zm-6.78-3.94-3.34,1.73v4l3.34-1.78M30.53,31l-2.87,1.7v4.1l2.87-1.76Zm0,4-2.87,1.76v4l2.87-1.76Zm6.67.29v3.91l3.45-2v-4Zm-3.33,5.92,3.33-2V35.35M33.87,29l-3.34,2v4l3.34-1.73Zm3.33,6.32,3.45-2V29L37.2,31.18m0,0L40.65,29V25L37.2,27Zm3.45,2.14,3.26-1.85V27.15L40.65,29Zm0-4.29,3.26-1.88V23.06L40.65,25Z"/><path class="cls-19" d="M45.5,32.32l-1.62-1V27.21l1.62,1Zm0,0-1.62-1v4l1.62,1.12Zm0-8.28-1.62-1v4.13l1.62,1Zm0,12.44,3.1,1.9V34.21l-3.1-1.89Zm-1.62-1.12-2.38,1.4v1l4,2.38V36.48Zm1.62-7.18,3.1,1.87V25.89L45.5,24Zm0,4.14,3.1,1.89V30.05l-3.1-1.87Zm0,7.8L48.61,42V38.39l-3.1-1.91Z"/><path class="cls-19" d="M59.2,24.8v4L56,30.4v-4ZM56,34.25l3.22-1.66V28.77L56,30.4ZM52.31,23.73,48.7,25.64V30l3.61-1.75Zm0,4.54L56,26.43l0-4.73-3.69,2ZM59.2,24.8V20.2L56,21.7l0,4.73Zm-6.89,7.43L48.7,33.84V38.2l3.61-2Zm0-4L48.7,30v3.83l3.61-1.62Zm0,4v4l3.67-2V30.4ZM56,30.4v-4l-3.67,1.84v4ZM48.7,38.2v3.59l3.61-2.14V36.21Zm3.61,1.45L56,37.51V34.25l-3.67,2ZM56,34.25v3.26l3.22-1.92v-3Z"/><path class="cls-19" d="M26,39.92l-1.86-1.15v-4.1L26,35.83Zm0,4L27.6,45v-4.1l-1.6-1Zm0-12.16-1.86-1.15v4.09L26,35.83Zm-1.86,7v3.82L26,43.89v-4ZM26,39.92l1.6,1v-4.1l-1.6-1Zm0-4.09,1.6,1V32.74l-1.6-1Z"/><path class="cls-19" d="M45.69,15.92,42.74,14.2l3.16-1.81L48.83,14Zm-3.37,2-3-1.76-3.46,2L38.94,20Zm3.37-2L42.74,14.2l-3.46,2,3,1.76ZM39,24l-2.08-1.19-3.32,2.06,2,1.15Zm1.25-3.25-3.33,2.06L39,24l3.4-2ZM42.32,18l-3.38,2,3.44,2,3.39-2Zm6.83,0-3.46-2-3.37,2,3.45,2Zm-6.77,4,3.44,2,3.41-2-3.46-2Zm3.39-2,3.46,2,3.4-2-3.48-2Zm6.86,0L55.94,18l-3.56-2-3.23,1.92Zm-3.48-2L52.38,16l-3.55-2-3.14,1.9ZM28.8,30.05l1.72,1,3.39-2L32.2,28Zm17-6.09,2.87,1.66,3.62-1.88L49.23,22Zm3.41-2,3.08,1.78,3.61-1.87L52.63,20Zm3.4-2,3.29,1.91L59.51,20l-3.57-2ZM42.38,22,39,24l1.68,1L43.9,23l1.79,1,.13-.07ZM32.2,28l-2-1.11L26.92,29l1.88,1.08ZM26.92,29l-2.58,1.6,1.71,1.11,2.75-1.63Zm8.67-3-2-1.15-3.33,2.06,2,1.11Zm-9.54,5.68,1.63,1L30.52,31l-1.72-1ZM35.59,26l1.7,1,3.38-2L39,24ZM32.2,28l1.71,1,3.38-2-1.7-1Z"/></g><path id="contour-3" data-name="contour" class="cls-10" d="M59.51,20,45.9,12.39h0L35.57,18.31l0,5.34-11.2,6.93V42.72l3.35,2.18,13-7.65L48.6,42l10.92-6.4Z"/><g id="Layer_25_copy_6" data-name="Layer 25 copy 6"><path class="cls-20" d="M48.61,42l0-16.33"/><path id="contour-4" data-name="contour" class="cls-10" d="M59.51,20,45.9,12.39h0L35.57,18.31l0,5.34-11.2,6.93V42.72l3.34,2.19,13-7.66L48.6,42l10.92-6.4Z"/><path class="cls-21" d="M24.34,30.57l3.34,2.17L43.9,23l4.69,2.61L59.51,20M27.67,44.91V32.73l-3.34-2.16M43.9,35.32V23m-3.79-2.17-4.54-2.55"/></g><g id="Layer_1_copy_34-2" data-name="Layer 1 copy 34"><path class="cls-6" d="M37.8,29.66l3.6,2.09V48.64"/><path class="cls-22" d="M30.21,38.16,41.4,31.75V48.4L30.21,54Zm5.42,5.28A5.29,5.29,0,0,0,38,39.28c0-1.53-1.09-2.15-2.42-1.38a5.28,5.28,0,0,0-2.4,4.16c0,1.53,1.08,2.15,2.41,1.38"/><polygon class="cls-8" points="26.49 36 26.5 48.07 22.76 45.95 22.76 33.86 18.96 31.61 18.97 48.45 30.21 54.06 30.21 38.16 26.49 36"/><polygon id="dessus_1_2" data-name="dessus 1  *" class="cls-23" points="30.21 38.16 26.49 36 37.6 29.56 41.4 31.75 30.21 38.16"/><polyline class="cls-24" points="30.21 53.98 30.21 38.16 26.49 36 26.5 48.07 22.76 45.95 22.76 33.86 19.07 31.69"/><polyline id="dessus_1_3" data-name="dessus 1  *" class="cls-25" points="26.49 36 37.6 29.56 41.4 31.75"/><path class="cls-26" d="M37.24,38.76c1.33-.77,2.42-.15,2.43,1.38a5.32,5.32,0,0,1-2.42,4.17c-1.33.77-2.41.15-2.42-1.38A5.34,5.34,0,0,1,37.24,38.76Z"/><path class="cls-27" d="M36.86,37.32a1.71,1.71,0,0,0-1.72.17,5.34,5.34,0,0,0-2.41,4.17,1.68,1.68,0,0,0,.71,1.54l2.1,1.27a1.7,1.7,0,0,1-.71-1.54,5.34,5.34,0,0,1,2.41-4.17A1.71,1.71,0,0,1,39,38.59Z"/></g></g></svg>