<svg xmlns="http://www.w3.org/2000/svg" xmlns:xlink="http://www.w3.org/1999/xlink" viewBox="0 0 64 64"><defs><linearGradient id="linear-gradient" x1="29.81" y1="48.49" x2="16.88" y2="26.09" gradientUnits="userSpaceOnUse"><stop offset="0" stop-color="#2a5b79"/><stop offset="1" stop-color="#84bedc"/></linearGradient><linearGradient id="linear-gradient-2" x1="19.14" y1="30.08" x2="14.96" y2="22.83" gradientUnits="userSpaceOnUse"><stop offset="0" stop-color="#74c4e2"/><stop offset="1" stop-color="#a4def6"/></linearGradient><linearGradient id="linear-gradient-3" x1="32.12" y1="21.81" x2="29.36" y2="17.03" xlink:href="#linear-gradient-2"/><linearGradient id="linear-gradient-4" x1="40.36" y1="41.64" x2="29.56" y2="22.94" xlink:href="#linear-gradient-2"/><linearGradient id="linear-gradient-5" x1="35.82" y1="40.73" x2="28.78" y2="28.54" xlink:href="#linear-gradient-2"/><linearGradient id="linear-gradient-6" x1="55.63" y1="24.05" x2="51.25" y2="16.46" xlink:href="#linear-gradient-2"/><linearGradient id="linear-gradient-7" x1="59.32" y1="46.95" x2="47.79" y2="26.97" xlink:href="#linear-gradient"/><linearGradient id="linear-gradient-8" x1="53.71" y1="42.42" x2="47.1" y2="30.98" xlink:href="#linear-gradient-2"/><linearGradient id="linear-gradient-9" x1="32" y1="27.5" x2="32" y2="41.5" gradientUnits="userSpaceOnUse"><stop offset="0.04" stop-color="#ff1515"/><stop offset="0.28" stop-color="#ffbf00"/><stop offset="0.39" stop-color="#ffff21"/><stop offset="0.56" stop-color="#59e900"/><stop offset="0.76" stop-color="#2a99ff"/><stop offset="1" stop-color="blue"/></linearGradient><linearGradient id="linear-gradient-10" x1="45.5" y1="22.5" x2="45.5" xlink:href="#linear-gradient-9"/><linearGradient id="linear-gradient-11" x1="41.5" y1="22.5" x2="41.5" y2="27.5" gradientUnits="userSpaceOnUse"><stop offset="0" stop-color="#ffbf00"/><stop offset="0.96" stop-color="#ff1515"/></linearGradient><linearGradient id="linear-gradient-12" x1="9.56" y1="30.27" x2="13.58" y2="37.24" gradientUnits="userSpaceOnUse"><stop offset="0" stop-color="#ababab"/><stop offset="1" stop-color="#5b5b5b"/></linearGradient></defs><title>SIMPLIM_AP_AppIcon</title><g id="Layer_6" data-name="Layer 6"><polygon points="8.5 27.5 24.5 27.5 24.5 22.5 31.5 22.5 31.5 26.5 28.5 26.5 28.5 43.5 32.5 43.5 32.5 47.5 24.5 47.5 24.5 40.5 8.5 40.5 8.5 27.5" stroke="#053755" stroke-linecap="round" stroke-linejoin="round" fill="url(#linear-gradient)"/><polygon points="8.5 27.5 11.5 23.5 24.5 23.5 24.5 27.5 8.5 27.5" stroke="#053755" stroke-linecap="round" stroke-linejoin="round" fill="url(#linear-gradient-2)"/><polygon points="24.5 22.5 30.5 15.5 36.5 15.5 31.5 22.5 24.5 22.5" stroke="#053755" stroke-linecap="round" stroke-linejoin="round" fill="url(#linear-gradient-3)"/><polygon points="31.5 26.5 34.5 23 34.5 40.5 32.5 43.5 32.5 47.5 36.5 41.5 36.5 15.5 31.5 22.5 31.5 26.5" stroke="#053755" stroke-linecap="round" stroke-linejoin="round" fill="url(#linear-gradient-4)"/><polygon points="28.5 43.5 28.5 26.5 31.5 26.5 34.5 23 34.5 40.5 32.5 43.5 28.5 43.5" stroke="#053755" stroke-linecap="round" stroke-linejoin="round" fill="url(#linear-gradient-5)"/><polygon points="48.5 23.5 50.5 15.5 57.5 15.5 57.5 23.5 48.5 23.5" stroke="#053755" stroke-linecap="round" stroke-linejoin="round" fill="url(#linear-gradient-6)"/><polygon points="48.5 27.5 48.5 23.5 57.5 23.5 57.5 48.5 48.5 48.5 48.5 44.5 51.5 44.5 51.5 27.5 48.5 27.5" stroke="#053755" stroke-linecap="round" stroke-linejoin="round" fill="url(#linear-gradient-7)"/><polygon points="48.5 44.5 49.5 36.5 49.5 27.5 51.5 27.5 51.5 44.5 48.5 44.5" stroke="#053755" stroke-linecap="round" stroke-linejoin="round" fill="url(#linear-gradient-8)"/><line x1="49.5" y1="36.5" x2="51.5" y2="36.5" fill="none" stroke="#053755" stroke-linecap="round" stroke-linejoin="round"/><circle cx="53.5" cy="28.5" r="1.5" fill="#053755"/><circle cx="26.5" cy="29.5" r="1.5" fill="#053755"/><circle cx="20.5" cy="29.5" r="1.5" fill="#053755"/><circle cx="26.5" cy="38.5" r="1.5" fill="#053755"/><circle cx="20.5" cy="38.5" r="1.5" fill="#053755"/><circle cx="53.5" cy="43.5" r="1.5" fill="#053755"/></g><g id="Layer_4" data-name="Layer 4"><polygon points="19.5 32.5 19.5 35.5 36.5 35.5 36.5 41.5 44.5 41.5 44.5 27.5 36.5 27.5 36.5 32.5 19.5 32.5" stroke="#053755" stroke-linecap="round" stroke-linejoin="round" fill="url(#linear-gradient-9)"/><polygon points="44.5 27.5 46.5 22.5 46.5 37.5 44.5 41.5 44.5 27.5" stroke="#053755" stroke-linecap="round" stroke-linejoin="round" fill="url(#linear-gradient-10)"/><polygon points="36.5 27.5 39 22.5 46.5 22.5 44.5 27.5 36.5 27.5" stroke="#053755" stroke-linecap="round" stroke-linejoin="round" fill="url(#linear-gradient-11)"/></g><g id="Layer_5" data-name="Layer 5"><polygon points="6.5 32.5 8.5 30.5 15.5 30.5 17.5 33.5 17.5 34.5 15.5 37.5 8.5 37.5 6.5 35.5 6.5 32.5" stroke="#333332" stroke-linecap="round" stroke-linejoin="round" fill="url(#linear-gradient-12)"/></g></svg>