<svg id="Layer_3_copy" data-name="Layer 3 copy" xmlns="http://www.w3.org/2000/svg" xmlns:xlink="http://www.w3.org/1999/xlink" viewBox="0 0 64 64"><defs><linearGradient id="linear-gradient" x1="6.78" y1="2.17" x2="19.23" y2="23.75" gradientUnits="userSpaceOnUse"><stop offset="0" stop-color="#fff"/><stop offset="1" stop-color="#d2d2d2"/></linearGradient><linearGradient id="linear-gradient-2" x1="6.78" y1="2.18" x2="19.23" y2="23.75" xlink:href="#linear-gradient"/><linearGradient id="linear-gradient-3" x1="-13841.17" y1="-5960.18" x2="-13841.92" y2="-5959.29" gradientTransform="matrix(0.8, 0.07, -0.35, 1.22, 9049.72, 8271.61)" gradientUnits="userSpaceOnUse"><stop offset="0" stop-color="#fff"/><stop offset="0.24" stop-color="#fcfcfc"/><stop offset="0.43" stop-color="#f2f2f2"/><stop offset="0.46" stop-color="#f0f0f0"/></linearGradient><linearGradient id="linear-gradient-4" x1="-13841.86" y1="-5959.39" x2="-13841.08" y2="-5958.05" gradientTransform="matrix(0.8, 0.07, -0.35, 1.22, 9049.72, 8271.61)" xlink:href="#linear-gradient"/><linearGradient id="top_white" x1="-13842.97" y1="-5961.67" x2="-13838.63" y2="-5961.67" gradientTransform="matrix(0.8, 0.07, -0.35, 1.22, 9049.72, 8271.61)" gradientUnits="userSpaceOnUse"><stop offset="0" stop-color="#fff"/><stop offset="1" stop-color="#f0f0f0"/></linearGradient><linearGradient id="linear-gradient-5" x1="-13841.8" y1="-5960.59" x2="-13842.71" y2="-5959.02" gradientTransform="matrix(0.8, 0.07, -0.35, 1.22, 9049.72, 8271.61)" gradientUnits="userSpaceOnUse"><stop offset="0.16" stop-color="#f5f5f5"/><stop offset="0.27" stop-color="#e7e7e7"/><stop offset="0.48" stop-color="#c1c1c1"/><stop offset="0.5" stop-color="#bebebe"/></linearGradient><linearGradient id="white_left" x1="-13841.58" y1="-5959.99" x2="-13837.7" y2="-5959.99" gradientTransform="matrix(0.8, 0.07, -0.35, 1.22, 9049.72, 8271.61)" gradientUnits="userSpaceOnUse"><stop offset="0" stop-color="#f5f5f5"/><stop offset="1" stop-color="#bebebe"/></linearGradient><linearGradient id="linear-gradient-6" x1="-13835.22" y1="-5963.32" x2="-13826.4" y2="-5948.05" gradientTransform="matrix(0.8, 0.07, -0.35, 1.22, 9049.72, 8271.61)" gradientUnits="userSpaceOnUse"><stop offset="0.04" stop-color="#141414"/><stop offset="1" stop-color="#464646"/></linearGradient><linearGradient id="linear-gradient-7" x1="4.34" y1="18.37" x2="18.34" y2="42.61" gradientUnits="userSpaceOnUse"><stop offset="0" stop-color="#f5f6f6"/><stop offset="0.99" stop-color="#d2d3d3"/></linearGradient><linearGradient id="linear-gradient-8" x1="29.47" y1="45.91" x2="38.08" y2="60.81" xlink:href="#linear-gradient-7"/><linearGradient id="linear-gradient-9" x1="46.45" y1="15.89" x2="42.52" y2="9.07" gradientUnits="userSpaceOnUse"><stop offset="0" stop-color="#386f8d"/><stop offset="1" stop-color="#8dd7f4"/></linearGradient><linearGradient id="linear-gradient-10" x1="49.45" y1="28.89" x2="45.52" y2="22.07" xlink:href="#linear-gradient-9"/><linearGradient id="linear-gradient-11" x1="22.45" y1="17.89" x2="18.52" y2="11.07" xlink:href="#linear-gradient-9"/><linearGradient id="linear-gradient-12" x1="33.45" y1="37.89" x2="29.52" y2="31.07" xlink:href="#linear-gradient-9"/><linearGradient id="linear-gradient-13" x1="24.45" y1="28.39" x2="20.52" y2="21.57" xlink:href="#linear-gradient-9"/><linearGradient id="linear-gradient-14" x1="20.45" y1="35.89" x2="16.52" y2="29.07" xlink:href="#linear-gradient-9"/><linearGradient id="linear-gradient-15" x1="16.49" y1="27.68" x2="8.19" y2="13.32" gradientTransform="matrix(-1, 0, 0, 1, 46.84, 0)" gradientUnits="userSpaceOnUse"><stop offset="0" stop-color="#161616"/><stop offset="1" stop-color="#515151"/></linearGradient><linearGradient id="linear-gradient-16" x1="36.45" y1="23.89" x2="32.52" y2="17.07" xlink:href="#linear-gradient-9"/><linearGradient id="linear-gradient-17" x1="7.5" y1="42.5" x2="23.5" y2="42.5" xlink:href="#linear-gradient-7"/><linearGradient id="linear-gradient-18" x1="14.97" y1="48.51" x2="7.99" y2="36.42" xlink:href="#linear-gradient-9"/><linearGradient id="linear-gradient-19" x1="10.76" y1="44.22" x2="12.31" y2="46.91" xlink:href="#linear-gradient-7"/><linearGradient id="linear-gradient-20" x1="16.7" y1="35.98" x2="17.33" y2="37.07" xlink:href="#linear-gradient-7"/><linearGradient id="linear-gradient-21" x1="16.7" y1="47.98" x2="17.33" y2="49.07" xlink:href="#linear-gradient-7"/><linearGradient id="linear-gradient-22" x1="15.9" y1="42.33" x2="16.11" y2="42.69" xlink:href="#linear-gradient-7"/><linearGradient id="linear-gradient-23" x1="15.9" y1="45.33" x2="16.11" y2="45.69" xlink:href="#linear-gradient-7"/><linearGradient id="linear-gradient-24" x1="15.9" y1="39.33" x2="16.11" y2="39.69" xlink:href="#linear-gradient-7"/><linearGradient id="linear-gradient-25" x1="11.75" y1="45.5" x2="27.75" y2="45.5" xlink:href="#linear-gradient-7"/><linearGradient id="linear-gradient-28" x1="20.95" y1="38.98" x2="21.58" y2="40.07" xlink:href="#linear-gradient-7"/><linearGradient id="linear-gradient-29" x1="20.95" y1="50.98" x2="21.58" y2="52.07" xlink:href="#linear-gradient-7"/><linearGradient id="linear-gradient-30" x1="20.15" y1="45.33" x2="20.36" y2="45.69" xlink:href="#linear-gradient-7"/><linearGradient id="linear-gradient-31" x1="20.15" y1="48.33" x2="20.36" y2="48.69" xlink:href="#linear-gradient-7"/><linearGradient id="linear-gradient-32" x1="20.15" y1="42.33" x2="20.36" y2="42.69" xlink:href="#linear-gradient-7"/><linearGradient id="linear-gradient-33" x1="15.5" y1="48.5" x2="31.5" y2="48.5" xlink:href="#linear-gradient-7"/><linearGradient id="linear-gradient-36" x1="24.7" y1="41.98" x2="25.33" y2="43.07" xlink:href="#linear-gradient-7"/><linearGradient id="linear-gradient-37" x1="24.7" y1="53.98" x2="25.33" y2="55.07" xlink:href="#linear-gradient-7"/><linearGradient id="linear-gradient-38" x1="23.9" y1="48.33" x2="24.11" y2="48.69" xlink:href="#linear-gradient-7"/><linearGradient id="linear-gradient-39" x1="23.9" y1="51.33" x2="24.11" y2="51.69" xlink:href="#linear-gradient-7"/><linearGradient id="linear-gradient-40" x1="23.9" y1="45.33" x2="24.11" y2="45.69" xlink:href="#linear-gradient-7"/><symbol id="SEARCH_LOUPE_" data-name="SEARCH LOUPE " viewBox="0 0 35.16 41.37"><g id="LOUPE_SEARCH_copy" data-name="LOUPE SEARCH copy"><g id="verre"><path d="M24.07,9.79l.6,2.1a11.51,11.51,0,0,0-.56-1.52A11.5,11.5,0,0,0,8.92,4.59a11.44,11.44,0,0,0-6.39,13.6l-.6-2.09A11.44,11.44,0,0,1,8.32,2.5,11.48,11.48,0,0,1,23.51,8.27,12.06,12.06,0,0,1,24.07,9.79Z" style="fill:#323232;stroke:#323232;stroke-miterlimit:10"/><path d="M25,9.53l.6,2.09a12.5,12.5,0,0,1-24,6.86L1,16.39A12.5,12.5,0,0,0,25,9.53Z" style="fill:#323232;stroke:#323232;stroke-miterlimit:10"/><path d="M17.47,1.32A12.46,12.46,0,1,1,8.53,24.59,12.46,12.46,0,1,1,17.47,1.32Zm.22,22.09A11.46,11.46,0,1,0,8.32,2.5a11.46,11.46,0,1,0,9.37,20.91" style="stroke:#000;stroke-linecap:round;stroke-linejoin:round;fill:url(#linear-gradient)"/><path id="contour" d="M23.27,23.21a12.66,12.66,0,0,0,2.1-3.54,12.87,12.87,0,0,0,.44-8S24.13,4.28,17.56,1.49A12.53,12.53,0,0,0,1.42,8.7,13.59,13.59,0,0,0,.6,13.57a18.34,18.34,0,0,0,.89,5.08A12.64,12.64,0,0,0,19,26.46" style="fill:none;stroke:#000;stroke-linecap:round;stroke-linejoin:round;stroke-width:0.566929px"/><path d="M17.47,1.33A12.46,12.46,0,1,1,8.53,24.6,12.46,12.46,0,1,1,17.47,1.33Zm.22,22.09A11.46,11.46,0,1,0,2.25,8.88,11.46,11.46,0,0,0,8.88,23.67a11.51,11.51,0,0,0,8.81-.25" style="fill:url(#linear-gradient-2)"/></g><path d="M34.45,37.75a1,1,0,0,0-.15-.66L23.53,24.65l-2.73,1.9-.36.62,0,1.15s9.91,11.37,10.58,12.11,2.45-.36,2.77-.86A3,3,0,0,0,34.45,37.75Z" style="fill:none;stroke:#000;stroke-linejoin:round;stroke-width:1.4173200000000001px"/><path d="M20.57,28.52l2.48-1.74a2,2,0,0,0,.71-1l.25-1a.8.8,0,0,0-.13-.77l-1-1.27c-.06-.08-.19-.08-.35,0l-2.8,1.9a2.28,2.28,0,0,0-.82,1.19A10.73,10.73,0,0,0,19,27.13l1,1.25C20.09,28.43,20.47,28.58,20.57,28.52Z" style="fill:#323232;stroke:#000;stroke-miterlimit:10;stroke-width:1.4173200000000001px"/><g id="fixation_manche_ok" data-name="fixation manche   ok"><path d="M23.9,24c0-.14-.19-.17-.39,0l-2.8,1.89.19.39,2.8-1.89c.17-.11.29-.09.33,0C24,24.24,23.94,24.11,23.9,24Z" style="fill:#fff"/><path id="c3_angle" data-name="c3 angle" d="M20.18,27.27,19.89,27a1.63,1.63,0,0,1,.82-1.2l.19.39A1.41,1.41,0,0,0,20.18,27.27Z" style="fill:url(#linear-gradient-3)"/><path d="M20.18,27.27,19.89,27A6.59,6.59,0,0,0,20,28.4l.3.16A5.94,5.94,0,0,1,20.18,27.27Z" style="fill:url(#linear-gradient-4)"/><path id="b5" d="M22.91,22.69l.95,1.24c-.06-.09-.18-.09-.35,0l-1-1.24C22.72,22.61,22.85,22.61,22.91,22.69Z" style="fill:#f1f0f0"/><polygon id="b4" points="20.71 25.84 19.76 24.61 22.56 22.71 23.51 23.95 20.71 25.84" style="fill:url(#top_white)"/><path d="M20.71,25.84l-.95-1.23a2.28,2.28,0,0,0-.82,1.19A10.73,10.73,0,0,0,19,27.13L20,28.36A10.58,10.58,0,0,1,19.89,27,1.56,1.56,0,0,1,20.71,25.84Z" style="fill:url(#linear-gradient-5)"/><path id="contour_face" data-name="contour face" d="M23.7,24.34c.29-.18.43,0,.31.39l-.25,1a2,2,0,0,1-.71,1l-2.48,1.74c-.28.17-.31-.09-.31-.09l-.08-1.16a1.38,1.38,0,0,1,.72-1Zm0,1.47.25-1c.1-.32,0-.47-.25-.32l-2.81,1.9a1.26,1.26,0,0,0-.59.85l.08,1.16s0,.17.25,0l2.48-1.73a1.66,1.66,0,0,0,.59-.85" style="fill:url(#white_left)"/><path id="face" d="M23.67,24.46c.23-.15.35,0,.25.32l-.25,1a1.66,1.66,0,0,1-.59.85L20.6,28.39c-.23.15-.25,0-.25,0l-.08-1.16a1,1,0,0,1,.59-.85Z" style="fill:#323232"/></g><g id="Layer_55_copy_4" data-name="Layer 55 copy 4"><path d="M34.45,37.75s0-.79-.23-.67c.5.77-1.89,2.92-2.51,2.66-.35-.14-10.92-13.19-10.92-13.19l-.34.61,0,1.16s9.91,11.37,10.58,12.11,2.45-.36,2.77-.86a2.93,2.93,0,0,0,.62-1.82C34.47,37.54,34.41,38.23,34.45,37.75Z" style="fill:#323232"/><path d="M34.45,37.75a1,1,0,0,0-.15-.66L23.8,24.65h-.27l-2.73,1.9-.36.62,0,1.15s9.91,11.37,10.58,12.11,2.45-.36,2.77-.86A3,3,0,0,0,34.45,37.75Z" style="fill:#323232;stroke:#323232;stroke-miterlimit:10"/><path id="rel_" data-name="rel ***" d="M20.79,26.55l2.74-1.9h.27L34.26,37.06s.32.59-.85,1.72-1.7,1-1.7,1L20.44,27.17l.35-.62Z" style="fill:#797979"/><path id="dessus_" data-name="dessus****" d="M34.22,37c.47.74-2.17,3.14-2.73,2.47L20.79,26.55l2.74-1.9S34,36.64,34.22,37Z" style="fill:url(#linear-gradient-6)"/><polygon id="rel_2" data-name="rel ***" points="20.79 26.55 31.56 39.64 31.39 39.64 20.44 27.17 20.79 26.55 20.79 26.55" style="fill:#797979"/></g></g></symbol></defs><polygon points="12.5 16.5 15.5 16.5 11 10.5 6.5 16.5 9.5 16.5 9.5 48.5 12.5 48.5 12.5 16.5" style="stroke:#333332;stroke-linecap:round;stroke-linejoin:round;fill:url(#linear-gradient-7)"/><polygon points="52.5 53 46.5 48.5 46.5 51.5 15.5 51.5 15.5 54.5 46.5 54.5 46.5 57.5 52.5 53" style="stroke:#333332;stroke-linecap:round;stroke-linejoin:round;fill:url(#linear-gradient-8)"/><circle cx="44.5" cy="12.5" r="3" style="stroke:#053755;stroke-linecap:round;stroke-linejoin:round;fill:url(#linear-gradient-9)"/><circle cx="47.5" cy="25.5" r="3" style="stroke:#053755;stroke-linecap:round;stroke-linejoin:round;fill:url(#linear-gradient-10)"/><circle cx="20.5" cy="14.5" r="3" style="stroke:#053755;stroke-linecap:round;stroke-linejoin:round;fill:url(#linear-gradient-11)"/><circle cx="31.5" cy="34.5" r="3" style="stroke:#053755;stroke-linecap:round;stroke-linejoin:round;fill:url(#linear-gradient-12)"/><circle cx="22.5" cy="25" r="3" style="stroke:#053755;stroke-linecap:round;stroke-linejoin:round;fill:url(#linear-gradient-13)"/><circle cx="18.5" cy="32.5" r="3" style="stroke:#053755;stroke-linecap:round;stroke-linejoin:round;fill:url(#linear-gradient-14)"/><use width="35.16" height="41.37" transform="translate(21.34 6.63)" xlink:href="#SEARCH_LOUPE_"/><g style="opacity:0.449999979883716"><path d="M34.5,11a.5.5,0,0,1,.5.5V13a7.47,7.47,0,0,1,7,7H43.5a.5.5,0,0,1,0,1H42a7.47,7.47,0,0,1-7,7V29.5a.5.5,0,0,1-1,0V28a7.47,7.47,0,0,1-7-7H25.5a.5.5,0,0,1,0-1H27a7.47,7.47,0,0,1,7-7V11.5a.5.5,0,0,1,.5-.5m0-1A1.5,1.5,0,0,0,33,11.5v.64A8.54,8.54,0,0,0,26.14,19H25.5a1.5,1.5,0,0,0,0,3h.64A8.54,8.54,0,0,0,33,28.86v.64a1.5,1.5,0,0,0,3,0v-.64A8.54,8.54,0,0,0,42.86,22h.64a1.5,1.5,0,0,0,0-3h-.64A8.54,8.54,0,0,0,36,12.14V11.5A1.5,1.5,0,0,0,34.5,10Z" style="fill:#fff"/></g><path d="M25,20.5a.5.5,0,0,0,.5.5H27a7.47,7.47,0,0,0,7,7V29.5a.5.5,0,0,0,1,0V28a7.47,7.47,0,0,0,7-7H43.5a.5.5,0,0,0,0-1H42a7.47,7.47,0,0,0-7-7V11.5a.5.5,0,0,0-1,0V13a7.47,7.47,0,0,0-7,7H25.5A.5.5,0,0,0,25,20.5ZM34,14v6H28A6.49,6.49,0,0,1,34,14Zm7,6H35V14A6.49,6.49,0,0,1,41,20Zm-6,7V21h6A6.49,6.49,0,0,1,35,27Zm-7-6h6v6A6.49,6.49,0,0,1,28,21Z" style="fill-rule:evenodd;fill:url(#linear-gradient-15)"/><circle cx="34.5" cy="20.5" r="3" style="stroke:#053755;stroke-linecap:round;stroke-linejoin:round;fill:url(#linear-gradient-16)"/><rect x="7.5" y="34.5" width="16" height="16" rx="1" style="stroke:#333332;stroke-linecap:round;stroke-linejoin:round;fill:url(#linear-gradient-17)"/><rect x="10.5" y="36.5" width="2" height="12" rx="1" style="stroke:#053755;stroke-linecap:round;stroke-linejoin:round;fill:url(#linear-gradient-18)"/><rect x="9.5" y="44.5" width="4" height="2" style="stroke:#333332;stroke-linecap:round;stroke-linejoin:round;fill:url(#linear-gradient-19)"/><line x1="15.5" y1="36.5" x2="18.5" y2="36.5" style="stroke:#333332;stroke-linecap:round;stroke-linejoin:round;fill:url(#linear-gradient-20)"/><line x1="15.5" y1="48.5" x2="18.5" y2="48.5" style="stroke:#333332;stroke-linecap:round;stroke-linejoin:round;fill:url(#linear-gradient-21)"/><line x1="15.5" y1="42.5" x2="16.5" y2="42.5" style="stroke:#333332;stroke-linecap:round;stroke-linejoin:round;fill:url(#linear-gradient-22)"/><line x1="15.5" y1="45.5" x2="16.5" y2="45.5" style="stroke:#333332;stroke-linecap:round;stroke-linejoin:round;fill:url(#linear-gradient-23)"/><line x1="15.5" y1="39.5" x2="16.5" y2="39.5" style="stroke:#333332;stroke-linecap:round;stroke-linejoin:round;fill:url(#linear-gradient-24)"/><rect x="11.75" y="37.5" width="16" height="16" rx="1" style="stroke:#333332;stroke-linecap:round;stroke-linejoin:round;fill:url(#linear-gradient-25)"/><rect x="14.75" y="39.5" width="2" height="12" rx="1" style="stroke:#053755;stroke-linecap:round;stroke-linejoin:round;fill:url(#linear-gradient-18)"/><rect x="13.75" y="47.5" width="4" height="2" style="stroke:#333332;stroke-linecap:round;stroke-linejoin:round;fill:url(#linear-gradient-19)"/><line x1="19.75" y1="39.5" x2="22.75" y2="39.5" style="stroke:#333332;stroke-linecap:round;stroke-linejoin:round;fill:url(#linear-gradient-28)"/><line x1="19.75" y1="51.5" x2="22.75" y2="51.5" style="stroke:#333332;stroke-linecap:round;stroke-linejoin:round;fill:url(#linear-gradient-29)"/><line x1="19.75" y1="45.5" x2="20.75" y2="45.5" style="stroke:#333332;stroke-linecap:round;stroke-linejoin:round;fill:url(#linear-gradient-30)"/><line x1="19.75" y1="48.5" x2="20.75" y2="48.5" style="stroke:#333332;stroke-linecap:round;stroke-linejoin:round;fill:url(#linear-gradient-31)"/><line x1="19.75" y1="42.5" x2="20.75" y2="42.5" style="stroke:#333332;stroke-linecap:round;stroke-linejoin:round;fill:url(#linear-gradient-32)"/><rect x="15.5" y="40.5" width="16" height="16" rx="1" style="stroke:#333332;stroke-linecap:round;stroke-linejoin:round;fill:url(#linear-gradient-33)"/><rect x="18.5" y="42.5" width="2" height="12" rx="1" style="stroke:#053755;stroke-linecap:round;stroke-linejoin:round;fill:url(#linear-gradient-18)"/><rect x="17.5" y="50.5" width="4" height="2" style="stroke:#333332;stroke-linecap:round;stroke-linejoin:round;fill:url(#linear-gradient-19)"/><line x1="23.5" y1="42.5" x2="26.5" y2="42.5" style="stroke:#333332;stroke-linecap:round;stroke-linejoin:round;fill:url(#linear-gradient-36)"/><line x1="23.5" y1="54.5" x2="26.5" y2="54.5" style="stroke:#333332;stroke-linecap:round;stroke-linejoin:round;fill:url(#linear-gradient-37)"/><line x1="23.5" y1="48.5" x2="24.5" y2="48.5" style="stroke:#333332;stroke-linecap:round;stroke-linejoin:round;fill:url(#linear-gradient-38)"/><line x1="23.5" y1="51.5" x2="24.5" y2="51.5" style="stroke:#333332;stroke-linecap:round;stroke-linejoin:round;fill:url(#linear-gradient-39)"/><line x1="23.5" y1="45.5" x2="24.5" y2="45.5" style="stroke:#333332;stroke-linecap:round;stroke-linejoin:round;fill:url(#linear-gradient-40)"/></svg>