<svg id="Layer_4_copy_3" data-name="Layer 4 copy 3" xmlns="http://www.w3.org/2000/svg" xmlns:xlink="http://www.w3.org/1999/xlink" viewBox="0 0 64 64"><defs><linearGradient id="linear-gradient" x1="19.82" y1="34.95" x2="22.29" y2="39.23" gradientUnits="userSpaceOnUse"><stop offset="0" stop-color="#f5f6f6"/><stop offset="0.99" stop-color="#bfbebe"/></linearGradient><linearGradient id="linear-gradient-6" x1="39.72" y1="21.81" x2="31.28" y2="7.19" gradientUnits="userSpaceOnUse"><stop offset="0" stop-color="#2a5b79"/><stop offset="1" stop-color="#3388b0"/></linearGradient><linearGradient id="linear-gradient-7" x1="27.8" y1="18.02" x2="19.2" y2="22.98" gradientTransform="translate(45.5 1.5) rotate(90)" gradientUnits="userSpaceOnUse"><stop offset="0" stop-color="#161616"/><stop offset="1" stop-color="#515151"/></linearGradient><linearGradient id="linear-gradient-8" x1="15.76" y1="38.98" x2="7.49" y2="24.65" xlink:href="#linear-gradient-6"/><linearGradient id="linear-gradient-9" x1="12.28" y1="40.99" x2="4.01" y2="26.66" xlink:href="#linear-gradient-6"/><linearGradient id="linear-gradient-10" x1="56.51" y1="39.35" x2="48.24" y2="25.02" xlink:href="#linear-gradient-6"/><linearGradient id="linear-gradient-11" x1="59.99" y1="37.34" x2="51.72" y2="23.01" xlink:href="#linear-gradient-6"/></defs><title>OPT_PRC_AppIcon</title><rect x="18.5" y="34.5" width="5" height="5" rx="1" stroke="#797979" stroke-linecap="round" stroke-linejoin="round" fill="url(#linear-gradient)"/><rect x="29.5" y="34.5" width="5" height="5" rx="1" stroke="#797979" stroke-linecap="round" stroke-linejoin="round" fill="url(#linear-gradient)"/><rect x="29.5" y="43.5" width="5" height="5" rx="1" stroke="#797979" stroke-linecap="round" stroke-linejoin="round" fill="url(#linear-gradient)"/><rect x="29.5" y="52.5" width="5" height="5" rx="1" stroke="#797979" stroke-linecap="round" stroke-linejoin="round" fill="url(#linear-gradient)"/><rect x="40.5" y="52.5" width="5" height="5" rx="1" stroke="#797979" stroke-linecap="round" stroke-linejoin="round" fill="url(#linear-gradient)"/><path d="M39.5,34H37v2h2.5a4.49,4.49,0,0,1,.5,9V43l-3,3,3,3V47a6.49,6.49,0,0,0-.5-13Z" fill="#787878"/><path d="M18,49.5A6.49,6.49,0,0,0,24,56v2l3-3-3-3v2a4.49,4.49,0,0,1,.5-9H27V43H24.5A6.51,6.51,0,0,0,18,49.5Z" fill="#787878"/><rect x="25" y="36" width="3" height="2" fill="#787878"/><rect x="36" y="54" width="3" height="2" fill="#787878"/><path d="M43.54,12.91l-2.88-.41L42.32,10a.53.53,0,0,0-.07-.67L40.66,7.75A.53.53,0,0,0,40,7.68L37.5,9.34l-.41-2.88A.53.53,0,0,0,36.56,6H34.44a.53.53,0,0,0-.53.46L33.5,9.34,31,7.68a.53.53,0,0,0-.67.07L28.75,9.34a.53.53,0,0,0-.07.67l1.66,2.49-2.88.41a.53.53,0,0,0-.46.53v2.12a.53.53,0,0,0,.46.53l2.88.41L28.68,19a.53.53,0,0,0,.07.67l1.59,1.59a.53.53,0,0,0,.67.07l2.49-1.66.41,2.88a.53.53,0,0,0,.53.46h2.12a.53.53,0,0,0,.53-.46l.41-2.88L40,21.32a.53.53,0,0,0,.67-.07l1.59-1.59a.53.53,0,0,0,.07-.67L40.66,16.5l2.88-.41a.53.53,0,0,0,.46-.53V13.44A.53.53,0,0,0,43.54,12.91ZM38.16,14.5a2.66,2.66,0,1,1-2.66-2.66A2.66,2.66,0,0,1,38.16,14.5Z" fill="url(#linear-gradient-6)"/><path d="M25.93,29.73,26.18,28l1.46,1A.3.3,0,0,0,28,29L29,28a.3.3,0,0,0,0-.39l-1-1.46,1.69-.25a.3.3,0,0,0,.27-.3V24.38a.3.3,0,0,0-.27-.31L28,23.82l1-1.46A.3.3,0,0,0,29,22L28,21a.3.3,0,0,0-.39,0l-1.46,1-.25-1.69a.3.3,0,0,0-.3-.27H24.38a.3.3,0,0,0-.31.27L23.82,22l-1.46-1A.3.3,0,0,0,22,21L21,22a.3.3,0,0,0,0,.39l1,1.46-1.69.25a.3.3,0,0,0-.27.31v1.25a.3.3,0,0,0,.27.3l1.69.25-1,1.46A.3.3,0,0,0,21,28L22,29a.3.3,0,0,0,.39,0l1.46-1,.25,1.69a.3.3,0,0,0,.31.27h1.25A.3.3,0,0,0,25.93,29.73ZM25,26.56A1.56,1.56,0,1,1,26.56,25,1.56,1.56,0,0,1,25,26.56Z" fill-rule="evenodd" fill="url(#linear-gradient-7)"/><path d="M11.57,40.09a21.63,21.63,0,0,1,0-16.18" fill="none" stroke-linecap="square" stroke-linejoin="round" stroke-width="2" stroke="url(#linear-gradient-8)"/><polygon points="14.83 37.51 13.73 45.41 7.44 40.51 14.83 37.51" fill="url(#linear-gradient-9)"/><path d="M52.43,23.91a21.63,21.63,0,0,1,0,16.18" fill="none" stroke-linecap="square" stroke-linejoin="round" stroke-width="2" stroke="url(#linear-gradient-10)"/><polygon points="49.17 26.49 50.27 18.59 56.56 23.49 49.17 26.49" fill="url(#linear-gradient-11)"/></svg>