<svg id="Icon" xmlns="http://www.w3.org/2000/svg" xmlns:xlink="http://www.w3.org/1999/xlink" viewBox="0 0 64 64"><defs><style>.cls-1,.cls-14,.cls-6{fill:#323232;}.cls-1{stroke:#323232;}.cls-1,.cls-6{stroke-miterlimit:10;}.cls-2,.cls-3,.cls-5,.cls-6{stroke:#000;}.SINGLE-Blue-Item-2,.SINGLE-White-Item-2,.cls-17,.cls-18,.cls-19,.cls-2,.cls-20,.cls-21,.cls-22,.cls-23,.cls-24,.cls-25,.cls-26,.cls-27,.cls-28,.cls-29,.cls-3,.cls-30,.cls-31,.cls-32,.cls-33,.cls-34{stroke-linecap:round;}.SINGLE-Blue-Item-2,.SINGLE-White-Item-2,.cls-17,.cls-18,.cls-19,.cls-2,.cls-20,.cls-21,.cls-22,.cls-23,.cls-24,.cls-25,.cls-26,.cls-27,.cls-28,.cls-29,.cls-3,.cls-30,.cls-31,.cls-32,.cls-33,.cls-34,.cls-5{stroke-linejoin:round;}.cls-2{fill:url(#linear-gradient);}.cls-3,.cls-5{fill:none;}.cls-3{stroke-width:0.57px;}.cls-4{fill:url(#linear-gradient-2);}.cls-5,.cls-6{stroke-width:1.42px;}.cls-7{fill:#fff;}.cls-8{fill:url(#linear-gradient-3);}.cls-9{fill:url(#linear-gradient-4);}.cls-10{fill:#f1f0f0;}.cls-11{fill:url(#top_white);}.cls-12{fill:url(#linear-gradient-5);}.cls-13{fill:url(#white_left);}.cls-15{fill:#797979;}.cls-16{fill:url(#linear-gradient-6);}.SINGLE-White-Item-2,.cls-17,.cls-18,.cls-19,.cls-20,.cls-21,.cls-22,.cls-23,.cls-24,.cls-25,.cls-26,.cls-27,.cls-28,.cls-29,.cls-30,.cls-31,.cls-32,.cls-33,.cls-34{stroke:#333332;}.cls-17{fill:url(#linear-gradient-7);}.SINGLE-Blue-Item-2{stroke:#053755;fill:url(#linear-gradient-8);}.SINGLE-White-Item-2{fill:url(#linear-gradient-9);}.cls-18{fill:url(#linear-gradient-10);}.cls-19{fill:url(#linear-gradient-11);}.cls-20{fill:url(#linear-gradient-12);}.cls-21{fill:url(#linear-gradient-13);}.cls-22{fill:url(#linear-gradient-14);}.cls-23{fill:url(#linear-gradient-15);}.cls-24{fill:url(#linear-gradient-18);}.cls-25{fill:url(#linear-gradient-19);}.cls-26{fill:url(#linear-gradient-20);}.cls-27{fill:url(#linear-gradient-21);}.cls-28{fill:url(#linear-gradient-22);}.cls-29{fill:url(#linear-gradient-23);}.cls-30{fill:url(#linear-gradient-26);}.cls-31{fill:url(#linear-gradient-27);}.cls-32{fill:url(#linear-gradient-28);}.cls-33{fill:url(#linear-gradient-29);}.cls-34{fill:url(#linear-gradient-30);}.cls-35{fill:url(#linear-gradient-31);}</style><linearGradient id="linear-gradient" x1="6.78" y1="2.17" x2="19.23" y2="23.75" gradientUnits="userSpaceOnUse"><stop offset="0" stop-color="#fff"/><stop offset="1" stop-color="#d2d2d2"/></linearGradient><linearGradient id="linear-gradient-2" x1="6.78" y1="2.18" x2="19.23" y2="23.75" xlink:href="#linear-gradient"/><linearGradient id="linear-gradient-3" x1="-13841.17" y1="-5960.18" x2="-13841.92" y2="-5959.29" gradientTransform="matrix(0.8, 0.07, -0.35, 1.22, 9049.72, 8271.61)" gradientUnits="userSpaceOnUse"><stop offset="0" stop-color="#fff"/><stop offset="0.24" stop-color="#fcfcfc"/><stop offset="0.43" stop-color="#f2f2f2"/><stop offset="0.46" stop-color="#f0f0f0"/></linearGradient><linearGradient id="linear-gradient-4" x1="-13841.86" y1="-5959.39" x2="-13841.08" y2="-5958.05" gradientTransform="matrix(0.8, 0.07, -0.35, 1.22, 9049.72, 8271.61)" xlink:href="#linear-gradient"/><linearGradient id="top_white" x1="-13842.97" y1="-5961.67" x2="-13838.63" y2="-5961.67" gradientTransform="matrix(0.8, 0.07, -0.35, 1.22, 9049.72, 8271.61)" gradientUnits="userSpaceOnUse"><stop offset="0" stop-color="#fff"/><stop offset="1" stop-color="#f0f0f0"/></linearGradient><linearGradient id="linear-gradient-5" x1="-13841.8" y1="-5960.59" x2="-13842.71" y2="-5959.02" gradientTransform="matrix(0.8, 0.07, -0.35, 1.22, 9049.72, 8271.61)" gradientUnits="userSpaceOnUse"><stop offset="0.16" stop-color="#f5f5f5"/><stop offset="0.27" stop-color="#e7e7e7"/><stop offset="0.48" stop-color="#c1c1c1"/><stop offset="0.5" stop-color="#bebebe"/></linearGradient><linearGradient id="white_left" x1="-13841.58" y1="-5959.99" x2="-13837.7" y2="-5959.99" gradientTransform="matrix(0.8, 0.07, -0.35, 1.22, 9049.72, 8271.61)" gradientUnits="userSpaceOnUse"><stop offset="0" stop-color="#f5f5f5"/><stop offset="1" stop-color="#bebebe"/></linearGradient><linearGradient id="linear-gradient-6" x1="-13835.22" y1="-5963.32" x2="-13826.4" y2="-5948.05" gradientTransform="matrix(0.8, 0.07, -0.35, 1.22, 9049.72, 8271.61)" gradientUnits="userSpaceOnUse"><stop offset="0.04" stop-color="#141414"/><stop offset="1" stop-color="#464646"/></linearGradient><linearGradient id="linear-gradient-7" x1="7.5" y1="42.5" x2="23.5" y2="42.5" gradientUnits="userSpaceOnUse"><stop offset="0" stop-color="#f5f6f6"/><stop offset="0.99" stop-color="#d2d3d3"/></linearGradient><linearGradient id="linear-gradient-8" x1="14.97" y1="48.51" x2="7.99" y2="36.42" gradientUnits="userSpaceOnUse"><stop offset="0" stop-color="#386f8d"/><stop offset="1" stop-color="#8dd7f4"/></linearGradient><linearGradient id="linear-gradient-9" x1="10.76" y1="44.22" x2="12.31" y2="46.91" xlink:href="#linear-gradient-7"/><linearGradient id="linear-gradient-10" x1="16.7" y1="35.98" x2="17.33" y2="37.07" xlink:href="#linear-gradient-7"/><linearGradient id="linear-gradient-11" x1="16.7" y1="47.98" x2="17.33" y2="49.07" xlink:href="#linear-gradient-7"/><linearGradient id="linear-gradient-12" x1="15.9" y1="42.33" x2="16.11" y2="42.69" xlink:href="#linear-gradient-7"/><linearGradient id="linear-gradient-13" x1="15.9" y1="45.33" x2="16.11" y2="45.69" xlink:href="#linear-gradient-7"/><linearGradient id="linear-gradient-14" x1="15.9" y1="39.33" x2="16.11" y2="39.69" xlink:href="#linear-gradient-7"/><linearGradient id="linear-gradient-15" x1="11.75" y1="45.5" x2="27.75" y2="45.5" xlink:href="#linear-gradient-7"/><linearGradient id="linear-gradient-18" x1="20.95" y1="38.98" x2="21.58" y2="40.07" xlink:href="#linear-gradient-7"/><linearGradient id="linear-gradient-19" x1="20.95" y1="50.98" x2="21.58" y2="52.07" xlink:href="#linear-gradient-7"/><linearGradient id="linear-gradient-20" x1="20.15" y1="45.33" x2="20.36" y2="45.69" xlink:href="#linear-gradient-7"/><linearGradient id="linear-gradient-21" x1="20.15" y1="48.33" x2="20.36" y2="48.69" xlink:href="#linear-gradient-7"/><linearGradient id="linear-gradient-22" x1="20.15" y1="42.33" x2="20.36" y2="42.69" xlink:href="#linear-gradient-7"/><linearGradient id="linear-gradient-23" x1="15.5" y1="48.5" x2="31.5" y2="48.5" xlink:href="#linear-gradient-7"/><linearGradient id="linear-gradient-26" x1="24.7" y1="41.98" x2="25.33" y2="43.07" xlink:href="#linear-gradient-7"/><linearGradient id="linear-gradient-27" x1="24.7" y1="53.98" x2="25.33" y2="55.07" xlink:href="#linear-gradient-7"/><linearGradient id="linear-gradient-28" x1="23.9" y1="48.33" x2="24.11" y2="48.69" xlink:href="#linear-gradient-7"/><linearGradient id="linear-gradient-29" x1="23.9" y1="51.33" x2="24.11" y2="51.69" xlink:href="#linear-gradient-7"/><linearGradient id="linear-gradient-30" x1="23.9" y1="45.33" x2="24.11" y2="45.69" xlink:href="#linear-gradient-7"/><linearGradient id="linear-gradient-31" x1="30.73" y1="14.2" x2="38.71" y2="28.03" gradientUnits="userSpaceOnUse"><stop offset="0" stop-color="#3287af"/><stop offset="1" stop-color="#285a78"/></linearGradient><symbol id="SEARCH_LOUPE_" data-name="SEARCH LOUPE " viewBox="0 0 35.16 41.37"><g id="LOUPE_SEARCH_copy" data-name="LOUPE SEARCH copy"><g id="verre"><path class="cls-1" d="M24.07,9.79l.6,2.1a11.51,11.51,0,0,0-.56-1.52A11.5,11.5,0,0,0,8.92,4.59a11.44,11.44,0,0,0-6.39,13.6l-.6-2.09A11.44,11.44,0,0,1,8.32,2.5,11.48,11.48,0,0,1,23.51,8.27,12.06,12.06,0,0,1,24.07,9.79Z"/><path class="cls-1" d="M25,9.53l.6,2.09a12.5,12.5,0,0,1-24,6.86L1,16.39A12.5,12.5,0,0,0,25,9.53Z"/><path class="cls-2" d="M17.47,1.32A12.46,12.46,0,1,1,8.53,24.59,12.46,12.46,0,1,1,17.47,1.32Zm.22,22.09A11.46,11.46,0,1,0,8.32,2.5a11.46,11.46,0,1,0,9.37,20.91"/><path id="contour" class="cls-3" d="M23.27,23.21a12.66,12.66,0,0,0,2.1-3.54,12.87,12.87,0,0,0,.44-8S24.13,4.28,17.56,1.49A12.53,12.53,0,0,0,1.42,8.7,13.59,13.59,0,0,0,.6,13.57a18.34,18.34,0,0,0,.89,5.08A12.64,12.64,0,0,0,19,26.46"/><path class="cls-4" d="M17.47,1.33A12.46,12.46,0,1,1,8.53,24.6,12.46,12.46,0,1,1,17.47,1.33Zm.22,22.09A11.46,11.46,0,1,0,2.25,8.88,11.46,11.46,0,0,0,8.88,23.67a11.51,11.51,0,0,0,8.81-.25"/></g><path class="cls-5" d="M34.45,37.75a1,1,0,0,0-.15-.66L23.53,24.65l-2.73,1.9-.36.62,0,1.15s9.91,11.37,10.58,12.11,2.45-.36,2.77-.86A3,3,0,0,0,34.45,37.75Z"/><path class="cls-6" d="M20.57,28.52l2.48-1.74a2,2,0,0,0,.71-1l.25-1a.8.8,0,0,0-.13-.77l-1-1.27c-.06-.08-.19-.08-.35,0l-2.8,1.9a2.28,2.28,0,0,0-.82,1.19A10.73,10.73,0,0,0,19,27.13l1,1.25C20.09,28.43,20.47,28.58,20.57,28.52Z"/><g id="fixation_manche_ok" data-name="fixation manche   ok"><path class="cls-7" d="M23.9,24c0-.14-.19-.17-.39,0l-2.8,1.89.19.39,2.8-1.89c.17-.11.29-.09.33,0C24,24.24,23.94,24.11,23.9,24Z"/><path id="c3_angle" data-name="c3 angle" class="cls-8" d="M20.18,27.27,19.89,27a1.63,1.63,0,0,1,.82-1.2l.19.39A1.41,1.41,0,0,0,20.18,27.27Z"/><path class="cls-9" d="M20.18,27.27,19.89,27A6.59,6.59,0,0,0,20,28.4l.3.16A5.94,5.94,0,0,1,20.18,27.27Z"/><path id="b5" class="cls-10" d="M22.91,22.69l.95,1.24c-.06-.09-.18-.09-.35,0l-1-1.24C22.72,22.61,22.85,22.61,22.91,22.69Z"/><polygon id="b4" class="cls-11" points="20.71 25.84 19.76 24.61 22.56 22.71 23.51 23.95 20.71 25.84"/><path class="cls-12" d="M20.71,25.84l-.95-1.23a2.28,2.28,0,0,0-.82,1.19A10.73,10.73,0,0,0,19,27.13L20,28.36A10.58,10.58,0,0,1,19.89,27,1.56,1.56,0,0,1,20.71,25.84Z"/><path id="contour_face" data-name="contour face" class="cls-13" d="M23.7,24.34c.29-.18.43,0,.31.39l-.25,1a2,2,0,0,1-.71,1l-2.48,1.74c-.28.17-.31-.09-.31-.09l-.08-1.16a1.38,1.38,0,0,1,.72-1Zm0,1.47.25-1c.1-.32,0-.47-.25-.32l-2.81,1.9a1.26,1.26,0,0,0-.59.85l.08,1.16s0,.17.25,0l2.48-1.73a1.66,1.66,0,0,0,.59-.85"/><path id="face" class="cls-14" d="M23.67,24.46c.23-.15.35,0,.25.32l-.25,1a1.66,1.66,0,0,1-.59.85L20.6,28.39c-.23.15-.25,0-.25,0l-.08-1.16a1,1,0,0,1,.59-.85Z"/></g><g id="Layer_55_copy_4" data-name="Layer 55 copy 4"><path class="cls-14" d="M34.45,37.75s0-.79-.23-.67c.5.77-1.89,2.92-2.51,2.66-.35-.14-10.92-13.19-10.92-13.19l-.34.61,0,1.16s9.91,11.37,10.58,12.11,2.45-.36,2.77-.86a2.93,2.93,0,0,0,.62-1.82C34.47,37.54,34.41,38.23,34.45,37.75Z"/><path class="cls-1" d="M34.45,37.75a1,1,0,0,0-.15-.66L23.8,24.65h-.27l-2.73,1.9-.36.62,0,1.15s9.91,11.37,10.58,12.11,2.45-.36,2.77-.86A3,3,0,0,0,34.45,37.75Z"/><path id="rel_" data-name="rel ***" class="cls-15" d="M20.79,26.55l2.74-1.9h.27L34.26,37.06s.32.59-.85,1.72-1.7,1-1.7,1L20.44,27.17l.35-.62Z"/><path id="dessus_" data-name="dessus****" class="cls-16" d="M34.22,37c.47.74-2.17,3.14-2.73,2.47L20.79,26.55l2.74-1.9S34,36.64,34.22,37Z"/><polygon id="rel_2" data-name="rel ***" class="cls-15" points="20.79 26.55 31.56 39.64 31.39 39.64 20.44 27.17 20.79 26.55 20.79 26.55"/></g></g></symbol></defs><use width="35.16" height="41.37" transform="translate(21.34 6.63)" xlink:href="#SEARCH_LOUPE_"/><rect class="cls-17" x="7.5" y="34.5" width="16" height="16" rx="1"/><rect class="SINGLE-Blue-Item-2" x="10.5" y="36.5" width="2" height="12" rx="1"/><rect class="SINGLE-White-Item-2" x="9.5" y="44.5" width="4" height="2"/><line class="cls-18" x1="15.5" y1="36.5" x2="18.5" y2="36.5"/><line class="cls-19" x1="15.5" y1="48.5" x2="18.5" y2="48.5"/><line class="cls-20" x1="15.5" y1="42.5" x2="16.5" y2="42.5"/><line class="cls-21" x1="15.5" y1="45.5" x2="16.5" y2="45.5"/><line class="cls-22" x1="15.5" y1="39.5" x2="16.5" y2="39.5"/><rect class="cls-23" x="11.75" y="37.5" width="16" height="16" rx="1"/><rect class="SINGLE-Blue-Item-2" x="14.75" y="39.5" width="2" height="12" rx="1"/><rect class="SINGLE-White-Item-2" x="13.75" y="47.5" width="4" height="2"/><line class="cls-24" x1="19.75" y1="39.5" x2="22.75" y2="39.5"/><line class="cls-25" x1="19.75" y1="51.5" x2="22.75" y2="51.5"/><line class="cls-26" x1="19.75" y1="45.5" x2="20.75" y2="45.5"/><line class="cls-27" x1="19.75" y1="48.5" x2="20.75" y2="48.5"/><line class="cls-28" x1="19.75" y1="42.5" x2="20.75" y2="42.5"/><rect class="cls-29" x="15.5" y="40.5" width="16" height="16" rx="1"/><rect class="SINGLE-Blue-Item-2" x="18.5" y="42.5" width="2" height="12" rx="1"/><rect class="SINGLE-White-Item-2" x="17.5" y="50.5" width="4" height="2"/><line class="cls-30" x1="23.5" y1="42.5" x2="26.5" y2="42.5"/><line class="cls-31" x1="23.5" y1="54.5" x2="26.5" y2="54.5"/><line class="cls-32" x1="23.5" y1="48.5" x2="24.5" y2="48.5"/><line class="cls-33" x1="23.5" y1="51.5" x2="24.5" y2="51.5"/><line class="cls-34" x1="23.5" y1="45.5" x2="24.5" y2="45.5"/><path class="cls-35" d="M34.51,12l2.33,5,5.4,1.41-4,3.31,1.37,5.71-5.15-2.79-5.16,2.79,1.37-5.71-3.94-3.31,5.39-1.41Z"/></svg>