<svg id="_14445_app_copy" data-name="14445 app copy" xmlns="http://www.w3.org/2000/svg" xmlns:xlink="http://www.w3.org/1999/xlink" viewBox="0 0 64 64"><defs><style>.cls-1,.cls-2,.cls-29,.cls-3{fill:none;}.cls-2,.cls-30,.cls-4{stroke:#00415f;}.cls-2,.cls-29,.cls-3,.cls-30,.cls-31,.cls-4{stroke-linecap:round;stroke-linejoin:round;}.cls-2{stroke-width:3px;}.cls-3{stroke:url(#linear-gradient);}.cls-4{stroke-width:1.1px;fill:url(#linear-gradient-2);}.cls-5{fill:#797979;}.cls-6,.cls-7{fill:#323232;}.cls-6{stroke:#323232;stroke-miterlimit:10;stroke-width:0.88px;}.cls-8{fill:url(#white_front_right);}.cls-9{fill:url(#top_white);}.cls-10{fill:url(#top_white-2);}.cls-11{fill:#82bddb;}.cls-12{clip-path:url(#clip-path);}.cls-13{fill:#231f20;}.cls-14{fill:url(#New_Gradient_Swatch_1);}.cls-15{fill:#5a9ab8;}.cls-16{fill:#aadcfa;}.cls-17{fill:#fff;}.cls-18{clip-path:url(#clip-path-2);}.cls-19{clip-path:url(#clip-path-3);}.cls-20{clip-path:url(#clip-path-4);}.cls-21{clip-path:url(#clip-path-5);}.cls-22{clip-path:url(#clip-path-6);}.cls-23{fill:#285977;}.cls-24{fill:url(#white_front_right-2);}.cls-25{fill:#f1f0f0;}.cls-26{fill:#787878;}.cls-27{fill:#e1e1e1;}.cls-28{fill:url(#top_white-4);}.cls-29{stroke:url(#linear-gradient-3);}.cls-30{fill:url(#linear-gradient-4);}.cls-31{stroke:#2d2d2d;fill:url(#linear-gradient-5);}.cls-32{fill:#383838;}</style><linearGradient id="linear-gradient" x1="7.8" y1="30.8" x2="21.42" y2="30.8" gradientUnits="userSpaceOnUse"><stop offset="0" stop-color="#92d5ee"/><stop offset="0.26" stop-color="#6aacc5"/><stop offset="0.6" stop-color="#3e7f98"/><stop offset="0.85" stop-color="#22637c"/><stop offset="1" stop-color="#185971"/></linearGradient><linearGradient id="linear-gradient-2" x1="6.58" y1="21.05" x2="10.96" y2="26.93" xlink:href="#linear-gradient"/><linearGradient id="white_front_right" x1="11.35" y1="34.02" x2="22.64" y2="53.58" gradientUnits="userSpaceOnUse"><stop offset="0" stop-color="#fff"/><stop offset="1" stop-color="#d2d2d2"/></linearGradient><linearGradient id="top_white" x1="24.98" y1="33.77" x2="26.98" y2="37.25" gradientUnits="userSpaceOnUse"><stop offset="0" stop-color="#fff"/><stop offset="1" stop-color="#f0f0f0"/></linearGradient><linearGradient id="top_white-2" x1="11.86" y1="31.98" x2="25.96" y2="31.98" xlink:href="#top_white"/><clipPath id="clip-path"><polygon class="cls-1" points="27.45 27.4 27.45 22.68 32.35 25.14 27.45 27.4"/></clipPath><linearGradient id="New_Gradient_Swatch_1" x1="24.6" y1="37.9" x2="27.7" y2="32.73" gradientUnits="userSpaceOnUse"><stop offset="0" stop-color="#5a9ab8"/><stop offset="0.47" stop-color="#aadcfa"/><stop offset="0.53" stop-color="#9accea"/><stop offset="0.65" stop-color="#71a3c1"/><stop offset="0.81" stop-color="#306280"/><stop offset="0.83" stop-color="#285a78"/></linearGradient><clipPath id="clip-path-2"><path class="cls-1" d="M20.18,34.69,35.55,27l0,9.88L20.18,44.57Zm7.26,3.42a4.15,4.15,0,0,0,2.24-3.34c0-1.23-1-1.72-2.25-1.11A4.2,4.2,0,0,0,25.19,37c0,1.22,1,1.72,2.25,1.1"/></clipPath><clipPath id="clip-path-3"><polygon class="cls-1" points="40.07 42.1 32.65 38.35 35.55 36.91 35.55 27 40.08 29.27 40.07 42.1"/></clipPath><clipPath id="clip-path-4"><path id="_" data-name="**" class="cls-1" d="M40.07,29.25l9.72-4.89V37.21L40.07,42.1Z"/></clipPath><clipPath id="clip-path-5"><polygon class="cls-1" points="20.18 44.57 16.66 42.78 16.66 32.93 20.18 34.69 20.18 44.57"/></clipPath><clipPath id="clip-path-6"><path class="cls-1" d="M37.29,18,27.6,22.92l4.45,2.26L16.66,32.93l3.52,1.76L35.55,27l4.52,2.25,9.72-4.89Z"/></clipPath><linearGradient id="white_front_right-2" x1="14.65" y1="39.73" x2="22.65" y2="53.57" xlink:href="#white_front_right"/><linearGradient id="top_white-4" x1="24.86" y1="41.22" x2="30.78" y2="41.22" xlink:href="#top_white"/><linearGradient id="linear-gradient-3" x1="29.49" y1="35.42" x2="35.42" y2="35.42" gradientTransform="matrix(0.56, -0.83, 0.83, 0.56, -10.04, 19.8)" xlink:href="#linear-gradient"/><linearGradient id="linear-gradient-4" x1="23.79" y1="34.17" x2="28.94" y2="41.09" gradientTransform="translate(-9.93 19.59) rotate(-56.28)" xlink:href="#linear-gradient"/><linearGradient id="linear-gradient-5" x1="43.09" y1="30.1" x2="64.49" y2="63.33" gradientUnits="userSpaceOnUse"><stop offset="0" stop-color="#fff"/><stop offset="1" stop-color="#bfbfbf"/></linearGradient></defs><title>aaavvv_A33AAe__R21XArtboard 1</title><g id="rotation_copy" data-name="rotation copy"><path class="cls-2" d="M8.3,36.51a5.26,5.26,0,0,0,2.85,2.65c3.33,1.2,7.38-1.57,9-6.18s.32-9.32-3-10.53a6,6,0,0,0-5.89,1.47"/><path class="cls-3" d="M8.3,36.51a5.26,5.26,0,0,0,2.85,2.65c3.33,1.2,7.38-1.57,9-6.18s.32-9.32-3-10.53a6,6,0,0,0-5.89,1.47"/><path class="cls-4" d="M9.08,21.25a2.9,2.9,0,0,1,3.23,1.88c1.09,2.37.54,3.55.54,3.55L6.71,27Z"/></g><g id="sujet_copy" data-name="sujet copy"><g id="New_Symbol_10_copy" data-name="New Symbol 10 copy"><g id="Layer_1_copy_26" data-name="Layer 1 copy 26"><path class="cls-5" d="M22.47,54.55a.49.49,0,0,1-.21,0L11.18,49.76a.41.41,0,0,1-.26-.37l0-15.84a.4.4,0,0,1,.24-.35l11.13-5.61a.56.56,0,0,1,.49,0l3.93,2a.42.42,0,0,1,.23.36V32.4l2.27-1.27a.53.53,0,0,1,.49,0l4.08,2a.39.39,0,0,1,.24.35l0,15.83a.41.41,0,0,1-.26.37L22.68,54.51A.49.49,0,0,1,22.47,54.55Zm-10.6-5.41,10.6,4.55,10.59-4.61,0-15.34L29.44,32l-2.76,1.55a.56.56,0,0,1-.49,0,.38.38,0,0,1-.24-.36V30.21l-3.46-1.78L11.83,33.79Zm16.48-6a.59.59,0,0,1-.23,0l-2.14-1a.49.49,0,0,1-.31-.11.41.41,0,0,1-.14-.3v-.85c0-.87,1.07-1.58,2-2a2.6,2.6,0,0,1,1.14-.29,1.54,1.54,0,0,1,1.62,1.63A4,4,0,0,1,28.67,43,.58.58,0,0,1,28.35,43.14Zm-1.87-1.78,1.79.86a3.12,3.12,0,0,0,1-2.12c0-.24-.07-.81-.67-.81a1.6,1.6,0,0,0-.66.18c-.92.46-1.49,1-1.49,1.32Zm-7.32-.87a.41.41,0,0,1-.16,0,1.68,1.68,0,0,1-1.19-1.72A4.67,4.67,0,0,1,20.34,35a2.05,2.05,0,0,1,2.66.35.37.37,0,0,1,.06.32.41.41,0,0,1-.22.25L19.62,37.5v2.57a.39.39,0,0,1-.2.34A.53.53,0,0,1,19.16,40.49Zm2.43-5a1.79,1.79,0,0,0-.78.21,3.47,3.47,0,0,0-1,.79l2-1Z"/></g><g id="Layer_1_copy_26-2" data-name="Layer 1 copy 26"><path class="cls-6" d="M15.4,35.51,26,30.23V43.36l-10.54,6Zm5,4.36a4.28,4.28,0,0,0,2.29-3.41c0-1.26-1-1.77-2.3-1.13a4.28,4.28,0,0,0-2.29,3.41c0,1.26,1,1.76,2.3,1.13"/><polygon id="int_dessus" data-name="int dessus" class="cls-7" points="18.95 47.15 15.41 45.38 25.96 41.64 29.49 43.41 18.95 47.15"/><polygon class="cls-8" points="18.92 37.26 18.95 47.15 15.41 45.38 15.4 35.51 11.86 33.72 11.87 49.14 22.46 53.69 22.46 39.04 18.92 37.26"/><g id="dessus_1" data-name="dessus 1"><polygon class="cls-9" points="22.45 39.04 18.92 37.26 29.49 31.98 33.04 33.75 22.45 39.04"/><path class="cls-7" d="M22.44,39.11h0l-3.52-1.78a.07.07,0,0,1,0-.06s0,0,0-.06l10.57-5.28a.06.06,0,0,1,.08,0l3.55,1.77a.08.08,0,0,1,0,.06.07.07,0,0,1,0,.06L22.49,39.1Zm-3.36-1.85L22.44,39l10.44-5.21-3.39-1.69Z"/></g><g id="dessus_2" data-name="dessus 2"><polygon class="cls-10" points="15.4 35.51 11.86 33.72 22.46 28.45 25.96 30.23 15.4 35.51"/></g><path class="cls-5" d="M22.44,39,33,33.75l0,15.35L22.46,53.68Zm5.16,4a3.73,3.73,0,0,0,2-3c0-1.09-.9-1.53-2-1a3.73,3.73,0,0,0-2,3c0,1.09.9,1.53,2,1"/></g><g id="Layer_46_copy_8" data-name="Layer 46 copy 8"><g id="tenon_copy_18" data-name="tenon copy 18"><g id="tenon_copy_18-2" data-name="tenon copy 18"><polygon class="cls-11" points="31.98 38.02 27.64 35.77 27.64 22.92 32.05 25.18 31.98 38.02"/><g id="c1_" data-name="c1    *"><g class="cls-12"><line class="cls-13" x1="47.63" y1="59.33" x2="14.97" y2="41.9"/><polygon class="cls-13" points="47.58 59.4 14.92 41.96 15.02 41.83 47.68 59.27 47.58 59.4"/><line class="cls-13" x1="48.27" y1="56.3" x2="15.6" y2="39.02"/><polygon class="cls-13" points="48.22 56.37 15.55 39.09 15.64 38.95 48.31 56.24 48.22 56.37"/><line class="cls-13" x1="48.91" y1="53.28" x2="16.22" y2="36.15"/><polygon class="cls-13" points="48.86 53.34 16.18 36.21 16.27 36.08 48.95 53.21 48.86 53.34"/><line class="cls-13" x1="49.55" y1="50.25" x2="16.85" y2="33.27"/><polygon class="cls-13" points="49.5 50.32 16.8 33.34 16.9 33.2 49.59 50.19 49.5 50.32"/><line class="cls-13" x1="50.19" y1="47.23" x2="17.48" y2="30.39"/><polygon class="cls-13" points="50.14 47.29 17.43 30.46 17.52 30.33 50.23 47.16 50.14 47.29"/><line class="cls-13" x1="50.82" y1="44.2" x2="18.1" y2="27.52"/><polygon class="cls-13" points="50.78 44.27 18.06 27.58 18.15 27.45 50.87 44.13 50.78 44.27"/><line class="cls-13" x1="51.46" y1="41.17" x2="18.73" y2="24.64"/><polygon class="cls-13" points="51.42 41.24 18.68 24.71 18.77 24.58 51.51 41.11 51.42 41.24"/><line class="cls-13" x1="52.1" y1="38.15" x2="19.36" y2="21.77"/><polygon class="cls-13" points="52.06 38.21 19.31 21.83 19.4 21.7 52.15 38.08 52.06 38.21"/><line class="cls-13" x1="52.74" y1="35.12" x2="19.98" y2="18.89"/><polygon class="cls-13" points="52.7 35.19 19.94 18.96 20.03 18.82 52.79 35.05 52.7 35.19"/><rect class="cls-13" x="49.04" y="20.59" width="0.18" height="32.57"/><rect class="cls-13" x="45.44" y="20.25" width="0.95" height="32"/><rect class="cls-13" x="42.59" y="19.43" width="0.95" height="32"/><rect class="cls-13" x="39.82" y="18.57" width="0.18" height="32.57"/><rect class="cls-13" x="36.74" y="17.9" width="0.18" height="32.57"/><rect class="cls-13" x="33.67" y="17.22" width="0.18" height="32.57"/><rect class="cls-13" x="30.59" y="16.55" width="0.18" height="32.57"/><rect class="cls-13" x="27.52" y="15.88" width="0.18" height="32.57"/><rect class="cls-13" x="24.44" y="15.2" width="0.18" height="32.57"/><rect class="cls-13" x="21.36" y="14.53" width="0.18" height="32.57"/><rect class="cls-13" x="18.29" y="13.86" width="0.18" height="32.57"/><rect class="cls-13" x="15.21" y="13.18" width="0.18" height="32.57"/></g></g><path class="cls-14" d="M29,33.54l-4-2a1.31,1.31,0,0,1,.66,1.25,4.2,4.2,0,0,1-2.24,3.34,1.79,1.79,0,0,1-1.6.13l4,2a1.83,1.83,0,0,0,1.6-.14,4.17,4.17,0,0,0,2.24-3.34A1.28,1.28,0,0,0,29,33.54Z"/><path class="cls-15" d="M20.18,34.69,35.55,27l0,9.88L20.18,44.57Zm7.26,3.42a4.15,4.15,0,0,0,2.24-3.34c0-1.23-1-1.72-2.25-1.11A4.2,4.2,0,0,0,25.19,37c0,1.22,1,1.72,2.25,1.1"/><polygon class="cls-11" points="40.07 42.1 32.65 38.35 35.55 36.91 35.55 27 40.08 29.27 40.07 42.1"/><path id="_2" data-name="**" class="cls-15" d="M40.07,29.25l9.72-4.89V37.21L40.07,42.1Z"/><polygon class="cls-11" points="20.18 44.57 16.66 42.78 16.66 32.93 20.18 34.69 20.18 44.57"/><path class="cls-16" d="M20.18,44.69a.08.08,0,0,1-.07,0l-3.52-1.78a.12.12,0,0,1-.07-.11V32.93a.12.12,0,0,1,.07-.11.17.17,0,0,1,.14,0l3.52,1.76a.12.12,0,0,1,.07.11v9.88a.12.12,0,0,1-.07.1A.1.1,0,0,1,20.18,44.69Zm-3.38-2L20,44.35V34.76L16.8,33.14Z"/><g id="cercle"><path class="cls-17" d="M26.35,38.63A1.3,1.3,0,0,1,25,37.19a4.32,4.32,0,0,1,2.32-3.45,2.3,2.3,0,0,1,1.05-.28,1.3,1.3,0,0,1,1.32,1.44,4.34,4.34,0,0,1-2.31,3.46A2.41,2.41,0,0,1,26.35,38.63Zm2-5.09a2.21,2.21,0,0,0-1,.27,4.23,4.23,0,0,0-2.27,3.38,1.21,1.21,0,0,0,1.23,1.36,2.21,2.21,0,0,0,1-.27,4.2,4.2,0,0,0,2.26-3.38A1.2,1.2,0,0,0,28.39,33.54Z"/></g><path id="top" class="cls-17" d="M37.29,18,27.6,22.92l4.83,2.26L17.05,32.93l3.13,1.76L35.55,27l4.52,2.25,9.72-4.89Z"/></g><g class="cls-18"><polygon points="12.13 56.68 12.05 56.55 45.85 40.81 45.93 40.94 12.13 56.68"/><line class="cls-13" x1="44.94" y1="38.15" x2="11.31" y2="53.98"/><polygon points="11.35 54.05 11.27 53.91 44.9 38.08 44.99 38.21 11.35 54.05"/><line class="cls-13" x1="43.99" y1="35.42" x2="10.53" y2="51.35"/><polygon points="10.57 51.42 10.48 51.28 43.95 35.35 44.04 35.48 10.57 51.42"/><line class="cls-13" x1="43.05" y1="32.69" x2="9.74" y2="48.71"/><polygon points="9.79 48.78 9.7 48.65 43 32.62 43.09 32.76 9.79 48.78"/><line class="cls-13" x1="42.1" y1="29.96" x2="8.96" y2="46.08"/><polygon points="9.01 46.15 8.92 46.01 42.05 29.89 42.14 30.02 9.01 46.15"/><line class="cls-13" x1="41.15" y1="27.23" x2="8.18" y2="43.45"/><polygon points="8.22 43.51 8.13 43.38 41.1 27.16 41.19 27.3 8.22 43.51"/><line class="cls-13" x1="40.2" y1="24.5" x2="7.4" y2="40.81"/><polygon points="7.44 40.88 7.35 40.75 40.16 24.43 40.24 24.57 7.44 40.88"/><line class="cls-13" x1="39.25" y1="21.77" x2="6.61" y2="38.18"/><polygon points="6.66 38.25 6.57 38.11 39.21 21.7 39.3 21.84 6.66 38.25"/><rect x="36.88" y="25.17" width="0.95" height="32.82"/><rect x="33.06" y="24.45" width="0.18" height="33.05"/><rect x="28.94" y="23.73" width="0.18" height="32.97"/><rect x="24.81" y="23.01" width="0.18" height="32.89"/><rect x="20.68" y="22.29" width="0.18" height="32.81"/><rect x="16.56" y="21.57" width="0.18" height="32.73"/><polygon points="12.45 53.51 12.41 20.85 12.59 20.85 12.63 53.51 12.45 53.51"/><polygon points="8.32 52.71 8.28 20.13 8.46 20.13 8.5 52.71 8.32 52.71"/></g><g id="c1_2" data-name="c1    *"><g class="cls-19"><line class="cls-13" x1="47.63" y1="59.33" x2="14.97" y2="41.9"/><polygon class="cls-13" points="47.58 59.4 14.92 41.96 15.02 41.83 47.68 59.27 47.58 59.4"/><line class="cls-13" x1="48.27" y1="56.3" x2="15.6" y2="39.02"/><polygon class="cls-13" points="48.22 56.37 15.55 39.09 15.64 38.95 48.31 56.24 48.22 56.37"/><line class="cls-13" x1="48.91" y1="53.28" x2="16.22" y2="36.15"/><polygon class="cls-13" points="48.86 53.34 16.18 36.21 16.27 36.08 48.95 53.21 48.86 53.34"/><line class="cls-13" x1="49.55" y1="50.25" x2="16.85" y2="33.27"/><polygon class="cls-13" points="49.5 50.32 16.8 33.34 16.9 33.2 49.59 50.19 49.5 50.32"/><line class="cls-13" x1="50.19" y1="47.23" x2="17.48" y2="30.39"/><polygon class="cls-13" points="50.14 47.29 17.43 30.46 17.52 30.33 50.23 47.16 50.14 47.29"/><line class="cls-13" x1="50.82" y1="44.2" x2="18.1" y2="27.52"/><polygon class="cls-13" points="50.78 44.27 18.06 27.58 18.15 27.45 50.87 44.13 50.78 44.27"/><line class="cls-13" x1="51.46" y1="41.17" x2="18.73" y2="24.64"/><polygon class="cls-13" points="51.42 41.24 18.68 24.71 18.77 24.58 51.51 41.11 51.42 41.24"/><line class="cls-13" x1="52.1" y1="38.15" x2="19.36" y2="21.77"/><polygon class="cls-13" points="52.06 38.21 19.31 21.83 19.4 21.7 52.15 38.08 52.06 38.21"/><line class="cls-13" x1="52.74" y1="35.12" x2="19.98" y2="18.89"/><polygon class="cls-13" points="52.7 35.19 19.94 18.96 20.03 18.82 52.79 35.05 52.7 35.19"/><rect class="cls-13" x="49.04" y="20.59" width="0.18" height="32.57"/><rect class="cls-13" x="45.44" y="20.25" width="0.95" height="32"/><rect class="cls-13" x="42.59" y="19.43" width="0.95" height="32"/><rect class="cls-13" x="39.82" y="18.57" width="0.18" height="32.57"/><rect class="cls-13" x="36.74" y="17.9" width="0.18" height="32.57"/><rect class="cls-13" x="33.67" y="17.22" width="0.18" height="32.57"/><rect class="cls-13" x="30.59" y="16.55" width="0.18" height="32.57"/><rect class="cls-13" x="27.52" y="15.88" width="0.18" height="32.57"/><rect class="cls-13" x="24.44" y="15.2" width="0.18" height="32.57"/><rect class="cls-13" x="21.36" y="14.53" width="0.18" height="32.57"/><rect class="cls-13" x="18.29" y="13.86" width="0.18" height="32.57"/><rect class="cls-13" x="15.21" y="13.18" width="0.18" height="32.57"/></g></g><g id="cote_" data-name="cote   **"><g class="cls-20"><line class="cls-13" x1="27.15" y1="59.13" x2="59.56" y2="42.38"/><polygon class="cls-13" points="27.2 59.19 27.11 59.06 59.52 42.31 59.61 42.44 27.2 59.19"/><line class="cls-13" x1="25.99" y1="56.26" x2="58.4" y2="39.52"/><polygon class="cls-13" points="26.04 56.33 25.94 56.2 58.35 39.46 58.44 39.59 26.04 56.33"/><line class="cls-13" x1="24.82" y1="53.4" x2="57.24" y2="36.66"/><polygon class="cls-13" points="24.87 53.47 24.78 53.34 57.19 36.6 57.28 36.73 24.87 53.47"/><line class="cls-13" x1="23.66" y1="50.54" x2="56.07" y2="33.81"/><polygon class="cls-13" points="23.71 50.6 23.61 50.47 56.03 33.74 56.12 33.87 23.71 50.6"/><line class="cls-13" x1="22.5" y1="47.67" x2="54.91" y2="30.95"/><polygon class="cls-13" points="22.54 47.74 22.45 47.61 54.86 30.88 54.95 31.02 22.54 47.74"/><line class="cls-13" x1="21.33" y1="44.81" x2="53.75" y2="28.09"/><polygon class="cls-13" points="21.38 44.88 21.29 44.74 53.7 28.03 53.79 28.16 21.38 44.88"/><line class="cls-13" x1="20.17" y1="41.95" x2="52.58" y2="25.23"/><polygon class="cls-13" points="20.21 42.01 20.12 41.88 52.54 25.17 52.63 25.3 20.21 42.01"/><line class="cls-13" x1="19" y1="39.08" x2="51.42" y2="22.38"/><polygon class="cls-13" points="19.05 39.15 18.96 39.02 51.37 22.31 51.47 22.44 19.05 39.15"/><line class="cls-13" x1="17.84" y1="36.22" x2="50.26" y2="19.52"/><polygon class="cls-13" points="17.88 36.28 17.79 36.15 50.21 19.45 50.3 19.59 17.88 36.28"/><rect class="cls-13" x="26.97" y="21.12" width="0.18" height="32.56"/><line class="cls-13" x1="29.83" y1="52.97" x2="29.83" y2="20.4"/><rect class="cls-13" x="29.74" y="20.4" width="0.18" height="32.57"/><line class="cls-13" x1="32.61" y1="52.26" x2="32.6" y2="19.69"/><rect class="cls-13" x="32.51" y="19.69" width="0.18" height="32.57"/><line class="cls-13" x1="35.38" y1="51.54" x2="35.36" y2="18.98"/><rect class="cls-13" x="35.28" y="18.98" width="0.18" height="32.57"/><line class="cls-13" x1="38.15" y1="50.83" x2="38.13" y2="18.26"/><rect class="cls-13" x="38.05" y="18.26" width="0.18" height="32.57"/><line class="cls-13" x1="40.92" y1="50.12" x2="40.9" y2="17.55"/><rect class="cls-13" x="40.82" y="17.55" width="0.18" height="32.57"/><line class="cls-13" x1="43.69" y1="49.4" x2="43.67" y2="16.83"/><rect class="cls-13" x="43.59" y="16.83" width="0.18" height="32.57"/><line class="cls-13" x1="46.78" y1="48.69" x2="46.75" y2="16.12"/><rect class="cls-13" x="46.56" y="16.12" width="0.18" height="32.57" transform="translate(-0.03 0.05) rotate(-0.06)"/></g></g><g id="face_" data-name="face   *"><g class="cls-21"><line class="cls-13" x1="32.99" y1="58.49" x2="0.33" y2="44.05"/><polygon class="cls-13" points="32.95 58.56 0.29 44.12 0.37 43.98 33.03 58.42 32.95 58.56"/><line class="cls-13" x1="33.33" y1="56.14" x2="0.64" y2="41.47"/><polygon class="cls-13" points="33.29 56.21 0.6 41.54 0.68 41.41 33.37 56.07 33.29 56.21"/><line class="cls-13" x1="33.67" y1="53.79" x2="0.95" y2="38.89"/><polygon class="cls-13" points="33.63 53.86 0.91 38.96 0.99 38.83 33.71 53.72 33.63 53.86"/><line class="cls-13" x1="34.01" y1="51.44" x2="1.26" y2="36.31"/><polygon class="cls-13" points="33.97 51.51 1.22 36.38 1.3 36.25 34.05 51.37 33.97 51.51"/><line class="cls-13" x1="34.35" y1="49.09" x2="1.57" y2="33.73"/><polygon class="cls-13" points="34.31 49.16 1.52 33.8 1.61 33.67 34.4 49.02 34.31 49.16"/><line class="cls-13" x1="34.69" y1="46.74" x2="1.88" y2="31.15"/><polygon class="cls-13" points="34.65 46.81 1.83 31.22 1.92 31.09 34.74 46.67 34.65 46.81"/><line class="cls-13" x1="35.03" y1="44.39" x2="2.19" y2="28.58"/><polygon class="cls-13" points="34.99 44.46 2.14 28.64 2.23 28.51 35.08 44.32 34.99 44.46"/><line class="cls-13" x1="35.37" y1="42.04" x2="2.5" y2="26"/><polygon class="cls-13" points="35.33 42.11 2.45 26.06 2.54 25.93 35.42 41.98 35.33 42.11"/><line class="cls-13" x1="33.97" y1="23.87" x2="33.97" y2="56.44"/><rect class="cls-13" x="33.88" y="23.87" width="0.18" height="32.57"/><line class="cls-13" x1="32.01" y1="23.47" x2="32.01" y2="56.05"/><rect class="cls-13" x="31.92" y="23.47" width="0.18" height="32.57"/><line class="cls-13" x1="30.06" y1="23.08" x2="30.06" y2="55.65"/><rect class="cls-13" x="29.97" y="23.08" width="0.18" height="32.57"/><line class="cls-13" x1="28.1" y1="22.68" x2="28.1" y2="55.25"/><rect class="cls-13" x="28.01" y="22.68" width="0.18" height="32.57"/><line class="cls-13" x1="26.15" y1="22.29" x2="26.15" y2="54.86"/><rect class="cls-13" x="26.06" y="22.29" width="0.18" height="32.57"/><line class="cls-13" x1="24.19" y1="21.89" x2="24.19" y2="54.46"/><rect class="cls-13" x="24.1" y="21.89" width="0.18" height="32.57"/><line class="cls-13" x1="22.23" y1="21.49" x2="22.24" y2="54.07"/><rect class="cls-13" x="22.15" y="21.49" width="0.18" height="32.57"/><line class="cls-13" x1="20.28" y1="21.1" x2="20.28" y2="53.67"/><rect class="cls-13" x="20.19" y="21.1" width="0.18" height="32.57"/><line class="cls-13" x1="18.32" y1="20.7" x2="18.33" y2="53.28"/><rect class="cls-13" x="18.24" y="20.7" width="0.18" height="32.57"/><line class="cls-13" x1="16.37" y1="20.31" x2="16.37" y2="52.88"/><rect class="cls-13" x="16.28" y="20.31" width="0.18" height="32.57"/><line class="cls-13" x1="14.41" y1="19.91" x2="14.42" y2="52.48"/><rect class="cls-13" x="14.32" y="19.91" width="0.18" height="32.57"/><line class="cls-13" x1="12.45" y1="19.52" x2="12.46" y2="52.09"/><rect class="cls-13" x="12.37" y="19.52" width="0.18" height="32.57"/></g></g><g id="top_" data-name="top   *"><g class="cls-22"><line class="cls-13" x1="30.76" y1="44.83" x2="-2.41" y2="29.25"/><polygon class="cls-13" points="30.72 44.9 -2.45 29.32 -2.37 29.18 30.8 44.76 30.72 44.9"/><line class="cls-13" x1="33.92" y1="43.39" x2="0.79" y2="27.73"/><polygon class="cls-13" points="33.87 43.46 0.75 27.8 0.84 27.67 33.96 43.32 33.87 43.46"/><line class="cls-13" x1="37.07" y1="41.95" x2="4" y2="26.22"/><polygon class="cls-13" points="37.03 42.02 3.96 26.29 4.04 26.15 37.11 41.88 37.03 42.02"/><line class="cls-13" x1="40.22" y1="40.51" x2="7.2" y2="24.7"/><polygon class="cls-13" points="40.18 40.58 7.16 24.77 7.25 24.63 40.27 40.45 40.18 40.58"/><line class="cls-13" x1="43.38" y1="39.07" x2="10.41" y2="23.18"/><polygon class="cls-13" points="43.33 39.14 10.37 23.25 10.45 23.12 43.42 39.01 43.33 39.14"/><line class="cls-13" x1="46.53" y1="37.63" x2="13.61" y2="21.67"/><polygon class="cls-13" points="46.49 37.7 13.57 21.73 13.66 21.6 46.58 37.57 46.49 37.7"/><line class="cls-13" x1="49.69" y1="36.19" x2="16.82" y2="20.15"/><polygon class="cls-13" points="49.64 36.26 16.77 20.22 16.86 20.08 49.73 36.13 49.64 36.26"/><line class="cls-13" x1="52.84" y1="34.75" x2="20.02" y2="18.63"/><polygon class="cls-13" points="52.8 34.82 19.98 18.7 20.07 18.57 52.88 34.69 52.8 34.82"/><line class="cls-13" x1="55.99" y1="33.31" x2="23.23" y2="17.12"/><polygon class="cls-13" points="55.95 33.38 23.18 17.18 23.27 17.05 56.04 33.25 55.95 33.38"/><line class="cls-13" x1="59.15" y1="31.88" x2="26.43" y2="15.6"/><polygon class="cls-13" points="59.1 31.94 26.39 15.67 26.48 15.53 59.19 31.81 59.1 31.94"/><line class="cls-13" x1="62.3" y1="30.44" x2="29.64" y2="14.08"/><polygon class="cls-13" points="62.26 30.5 29.59 14.15 29.68 14.02 62.35 30.37 62.26 30.5"/><line class="cls-13" x1="65.46" y1="29" x2="32.84" y2="12.57"/><polygon class="cls-13" points="65.41 29.06 32.8 12.63 32.89 12.5 65.5 28.93 65.41 29.06"/><line class="cls-13" x1="66.65" y1="31.72" x2="34.03" y2="48.14"/><polygon class="cls-13" points="34.07 48.21 33.98 48.07 66.61 31.66 66.69 31.79 34.07 48.21"/><line class="cls-13" x1="64.14" y1="29.81" x2="31.52" y2="46.23"/><polygon class="cls-13" points="31.56 46.3 31.48 46.16 64.1 29.75 64.19 29.88 31.56 46.3"/><line class="cls-13" x1="61.63" y1="27.9" x2="29.01" y2="44.32"/><polygon class="cls-13" points="29.06 44.39 28.97 44.25 61.59 27.84 61.68 27.97 29.06 44.39"/><line class="cls-13" x1="59.13" y1="25.99" x2="26.5" y2="42.41"/><polygon class="cls-13" points="26.55 42.48 26.46 42.34 59.08 25.93 59.17 26.06 26.55 42.48"/><line class="cls-13" x1="56.62" y1="24.08" x2="24" y2="40.5"/><polygon class="cls-13" points="24.04 40.57 23.95 40.43 56.57 24.02 56.66 24.15 24.04 40.57"/><line class="cls-13" x1="54.11" y1="22.17" x2="21.49" y2="38.59"/><polygon class="cls-13" points="21.53 38.66 21.44 38.52 54.06 22.11 54.15 22.24 21.53 38.66"/><line class="cls-13" x1="51.6" y1="20.26" x2="18.98" y2="36.68"/><polygon class="cls-13" points="19.02 36.75 18.93 36.61 51.56 20.19 51.65 20.33 19.02 36.75"/><line class="cls-13" x1="49.09" y1="18.35" x2="16.47" y2="34.77"/><polygon class="cls-13" points="16.52 34.84 16.43 34.7 49.05 18.28 49.14 18.42 16.52 34.84"/><line class="cls-13" x1="46.58" y1="16.44" x2="13.96" y2="32.86"/><polygon class="cls-13" points="14.01 32.93 13.92 32.79 46.54 16.37 46.63 16.51 14.01 32.93"/><line class="cls-13" x1="44.08" y1="14.53" x2="11.45" y2="30.95"/><polygon class="cls-13" points="11.5 31.02 11.41 30.88 44.03 14.46 44.12 14.6 11.5 31.02"/><line class="cls-13" x1="41.57" y1="12.62" x2="8.95" y2="29.04"/><polygon class="cls-13" points="8.99 29.11 8.9 28.97 41.52 12.55 41.61 12.69 8.99 29.11"/><line class="cls-13" x1="39.06" y1="10.71" x2="6.44" y2="27.13"/><polygon class="cls-13" points="6.48 27.2 6.39 27.06 39.02 10.64 39.1 10.78 6.48 27.2"/></g></g></g></g><polygon class="cls-23" points="20.45 44.57 19.91 44.57 19.91 34.82 16.53 33.13 16.8 32.73 20.18 34.42 35.55 26.74 40.07 28.98 49.66 24.16 49.93 24.56 40.07 29.52 35.83 27.41 35.83 37.3 33.91 38.33 33.91 37.72 35.3 37.02 35.3 27.4 20.45 34.82 20.45 44.57"/><path class="cls-23" d="M28.45,27.22a.29.29,0,0,1-.24-.12.21.21,0,0,1,.11-.31l3.19-1.52-3.2-1.72a.21.21,0,0,1-.09-.32.29.29,0,0,1,.37-.07l3.6,1.92a.22.22,0,0,1,0,.4l-3.6,1.71A.28.28,0,0,1,28.45,27.22Z"/><line class="cls-23" x1="39.82" y1="29.24" x2="40.08" y2="41.64"/><polygon class="cls-23" points="39.8 41.65 39.55 29.25 40.09 29.24 40.34 41.64 39.8 41.65"/><g id="contour"><path class="cls-7" d="M20.08,45a.5.5,0,0,1-.24-.06l-3.59-1.78a.41.41,0,0,1-.23-.36V32.7a.41.41,0,0,1,.23-.36l11.18-5.58V22.92a.42.42,0,0,1,.23-.35l9.44-4.95.09-.05a.52.52,0,0,1,.47,0L50.25,24a.4.4,0,0,1,.24.35l-.11,12.85a.4.4,0,0,1-.24.35l-9.84,4.9a.57.57,0,0,1-.48,0l-7.19-3.63L20.31,44.92A.46.46,0,0,1,20.08,45ZM17,42.55l3.11,1.54L32.4,38a.49.49,0,0,1,.47,0l7.19,3.63L49.43,37l.1-12.38L37.44,18.4l-9.06,4.75V27a.39.39,0,0,1-.23.35L17,32.93Zm9.47-3.76A1.66,1.66,0,0,1,24.72,37a4.73,4.73,0,0,1,2.6-3.7,1.43,1.43,0,0,1,.34-.09h0c.29-.15.72,0,.72.35v2l1.13.64a.37.37,0,0,1,.15.53,5,5,0,0,1-2,1.75A2.79,2.79,0,0,1,26.44,38.79Zm1-4.57A3.9,3.9,0,0,0,25.67,37c0,.29.07,1,.77,1a1.79,1.79,0,0,0,.77-.21,4.43,4.43,0,0,0,1.39-1.11l-1-.54a.41.41,0,0,1-.21-.34Z"/></g><g id="Layer_1_copy_26-3" data-name="Layer 1 copy 26"><path class="cls-5" d="M33.45,49.68a.44.44,0,0,1-.47-.41l0-15.19-3.48-1.45a.39.39,0,0,1-.22-.54.52.52,0,0,1,.64-.2l3.74,1.56a.4.4,0,0,1,.27.37l0,15.45A.45.45,0,0,1,33.45,49.68Z"/><path class="cls-5" d="M22.45,39,33,33.75l0,15.35L22.46,53.68Zm5.17,4.34A4.28,4.28,0,0,0,29.91,40c0-1.25-1-1.76-2.3-1.13a4.25,4.25,0,0,0-2.29,3.42c0,1.25,1,1.76,2.3,1.13"/><polygon class="cls-24" points="18.92 37.26 18.95 47.17 11.87 49.14 22.46 53.69 22.48 39.04 18.92 37.26"/><polygon id="dessus_1_" data-name="dessus 1  *" class="cls-9" points="22.45 39.03 18.92 37.26 29.49 31.98 33.04 33.75 22.45 39.03"/><polygon class="cls-25" points="18.92 37.26 18.95 47.15 15.41 45.38 15.4 35.51 11.86 33.72 11.87 49.14 22.46 53.69 22.46 39.04 18.92 37.26"/><path class="cls-26" d="M22.46,53.81l-.07,0L11.81,49.25a.12.12,0,0,1-.08-.11V33.72a.15.15,0,0,1,.07-.11.17.17,0,0,1,.14,0l3.54,1.8a.1.1,0,0,1,.07.1v9.8l3.26,1.62,0-9.67a.12.12,0,0,1,.07-.1.17.17,0,0,1,.14,0l3.54,1.77a.12.12,0,0,1,.07.11V53.68a.11.11,0,0,1-.07.11ZM12,49.07l10.3,4.42V39.11l-3.25-1.63,0,9.67a.12.12,0,0,1-.07.1.14.14,0,0,1-.15,0l-3.54-1.77a.1.1,0,0,1-.07-.1v-9.8L12,33.94Z"/><path class="cls-26" d="M22.46,53.8a.13.13,0,0,1-.14-.12V39.1l-3.26-1.63,0,9.68a.12.12,0,0,1-.07.1.15.15,0,0,1-.13,0l-3.65-1.69a.12.12,0,0,1-.07-.1V35.58l-3.39-1.76a.11.11,0,0,1,0-.16.15.15,0,0,1,.18,0l3.45,1.79s.07.06.07.1v9.88L18.82,47l0-9.69a.11.11,0,0,1,.06-.1.17.17,0,0,1,.14,0l3.54,1.78a.11.11,0,0,1,.06.1V53.68A.12.12,0,0,1,22.46,53.8Z"/><g id="dessus_1_2" data-name="dessus 1  *"><path class="cls-5" d="M18.92,37.38a.13.13,0,0,1-.11-.06.11.11,0,0,1,0-.16l10.58-5.28a.15.15,0,0,1,.13,0l3.55,1.77a.12.12,0,0,1,0,.16.15.15,0,0,1-.19,0l-3.48-1.74L19,37.36A.1.1,0,0,1,18.92,37.38Z"/></g><path class="cls-17" d="M26.59,43.68h0a1.29,1.29,0,0,1-1.32-1.44,4.34,4.34,0,0,1,2.31-3.46,2.41,2.41,0,0,1,1.05-.27A1.29,1.29,0,0,1,30,40a4.35,4.35,0,0,1-2.32,3.46A2.41,2.41,0,0,1,26.59,43.68Zm2-5.09a2.21,2.21,0,0,0-1,.27,4.22,4.22,0,0,0-2.26,3.38,1.2,1.2,0,0,0,1.22,1.36,2.21,2.21,0,0,0,1-.27A4.21,4.21,0,0,0,29.86,40,1.2,1.2,0,0,0,28.63,38.59Z"/><path class="cls-27" d="M29.15,39.53c1.27-.63,2.3-.12,2.31,1.13a4.29,4.29,0,0,1-2.3,3.42c-1.26.63-2.3.13-2.3-1.13A4.27,4.27,0,0,1,29.15,39.53Z"/><path class="cls-5" d="M28.13,44.64A1.55,1.55,0,0,1,26.52,43,4.61,4.61,0,0,1,29,39.28a2.61,2.61,0,0,1,1.2-.31,1.54,1.54,0,0,1,1.61,1.69,4.51,4.51,0,0,1-2.46,3.67A2.65,2.65,0,0,1,28.13,44.64Zm2.05-5.09a2.06,2.06,0,0,0-.87.23A4.06,4.06,0,0,0,27.19,43c0,.7.36,1.11.94,1.11a2,2,0,0,0,.86-.23,4,4,0,0,0,2.13-3.17C31.12,40,30.76,39.55,30.18,39.55Z"/><path class="cls-28" d="M28.78,38.35a1.83,1.83,0,0,0-1.63.14,4.25,4.25,0,0,0-2.29,3.42,1.34,1.34,0,0,0,.67,1.27l2,1A1.34,1.34,0,0,1,26.86,43a4.27,4.27,0,0,1,2.29-3.42,1.82,1.82,0,0,1,1.63-.14Z"/><path class="cls-5" d="M27.36,44.47l-2-1a1.58,1.58,0,0,1-.83-1.51A4.59,4.59,0,0,1,27,38.24a2.21,2.21,0,0,1,2-.14l2,1-.34.5a1.5,1.5,0,0,0-1.31.13A4.06,4.06,0,0,0,27.19,43a1.12,1.12,0,0,0,.48,1Zm.82-6a2.06,2.06,0,0,0-.87.23,4,4,0,0,0-2.11,3.17,1,1,0,0,0,.5,1l.86.45a1.87,1.87,0,0,1,0-.42A4.61,4.61,0,0,1,29,39.28a2.92,2.92,0,0,1,.53-.21l-.9-.47A1,1,0,0,0,28.18,38.51Z"/></g></g></g><g id="force_copy" data-name="force copy"><line class="cls-2" x1="37.44" y1="9.49" x2="37.44" y2="15.43"/><line class="cls-29" x1="37.44" y1="9.49" x2="37.44" y2="15.43"/><path class="cls-30" d="M33.55,16.82a6.17,6.17,0,0,1,3.93-1.44,5.85,5.85,0,0,1,3.85,1.44l-3.74,4.75Z"/></g><g id="Knowledge_copy" data-name="Knowledge copy"><polygon class="cls-31" points="44.4 48 58.4 55.1 58.4 38 44.4 31 44.4 48"/><rect class="cls-32" x="50.54" y="42.5" width="1" height="1"/><polygon class="cls-32" points="54.54 47 53.54 47 52.54 48 49.54 48 48.54 47 47.54 47 47.54 43.5 49.54 44 50.54 44.5 51.54 44.5 52.54 44 54.54 43.5 54.54 47"/><polygon class="cls-32" points="51.04 37.5 45.54 40.9 51.04 43.5 56.54 41 51.04 37.5"/><rect class="cls-32" x="55.54" y="42.5" width="1" height="3"/></g></svg>