<svg id="Layer_4" data-name="Layer 4" xmlns="http://www.w3.org/2000/svg" xmlns:xlink="http://www.w3.org/1999/xlink" viewBox="0 0 64 64"><defs><linearGradient id="linear-gradient" x1="14.53" y1="24.11" x2="7.43" y2="11.82" gradientUnits="userSpaceOnUse"><stop offset="0" stop-color="#386f8d"/><stop offset="1" stop-color="#8dd7f4"/></linearGradient><linearGradient id="linear-gradient-6" x1="19.3" y1="15.18" x2="22.75" y2="21.16" gradientUnits="userSpaceOnUse"><stop offset="0" stop-color="#f5f6f6"/><stop offset="0.99" stop-color="#d2d3d3"/></linearGradient><linearGradient id="linear-gradient-7" x1="1.59" y1="-2.12" x2="-1.86" y2="-8.09" gradientTransform="translate(42 51)" gradientUnits="userSpaceOnUse"><stop offset="0.01" stop-color="#d2d3d3"/><stop offset="1" stop-color="#f5f6f6"/></linearGradient><linearGradient id="linear-gradient-8" x1="49.34" y1="30.89" x2="39.84" y2="14.44" gradientTransform="matrix(1, 0, 0, 1, 0, 0)" xlink:href="#linear-gradient-7"/><linearGradient id="linear-gradient-9" x1="29.96" y1="46.34" x2="39.35" y2="30.08" gradientTransform="matrix(-1, 0, 0, 1, 54, 0)" xlink:href="#linear-gradient-7"/></defs><title>AUT_PRC_AppIcon</title><rect x="6.5" y="13.5" width="9" height="9" rx="2" stroke="#053755" stroke-linecap="round" stroke-linejoin="round" fill="url(#linear-gradient)"/><rect x="27.5" y="13.5" width="9" height="9" rx="2" stroke="#053755" stroke-linecap="round" stroke-linejoin="round" fill="url(#linear-gradient)"/><rect x="27.5" y="27.5" width="9" height="9" rx="2" stroke="#053755" stroke-linecap="round" stroke-linejoin="round" fill="url(#linear-gradient)"/><rect x="27.5" y="41.5" width="9" height="9" rx="2" stroke="#053755" stroke-linecap="round" stroke-linejoin="round" fill="url(#linear-gradient)"/><rect x="48.5" y="41.5" width="9" height="9" rx="2" stroke="#053755" stroke-linecap="round" stroke-linejoin="round" fill="url(#linear-gradient)"/><polygon points="17.5 15.5 17.5 20.5 20.5 20.5 20.5 22.5 21.5 22.5 25.5 18.5 25.5 17.5 21.5 13.5 20.5 13.5 20.5 15.5 17.5 15.5" stroke="#333332" stroke-linecap="round" stroke-linejoin="round" fill="url(#linear-gradient-6)"/><polygon points="38.5 43.5 38.5 48.5 41.5 48.5 41.5 50.5 42.5 50.5 46.5 46.5 46.5 45.5 42.5 41.5 41.5 41.5 41.5 43.5 38.5 43.5" stroke="#333332" stroke-linecap="round" stroke-linejoin="round" fill="url(#linear-gradient-7)"/><path d="M45,13.5H38.5v5H45a5.5,5.5,0,0,1,0,11H43.5v-2h-1l-4,4v1l4,4h1v-2H45a10.5,10.5,0,0,0,0-21Z" stroke="#333332" stroke-linecap="round" stroke-linejoin="round" fill="url(#linear-gradient-8)"/><path d="M19,27.5h6.5v5H19a5.5,5.5,0,0,0,0,11h1.5v-2h1l4,4v1l-4,4h-1v-2H19a10.5,10.5,0,0,1,0-21Z" stroke="#333332" stroke-linecap="round" stroke-linejoin="round" fill="url(#linear-gradient-9)"/></svg>