<svg id="Layer_3" data-name="Layer 3" xmlns="http://www.w3.org/2000/svg" xmlns:xlink="http://www.w3.org/1999/xlink" viewBox="0 0 64 64"><defs><linearGradient id="linear-gradient" x1="6.5" y1="30.89" x2="56.44" y2="30.89" gradientUnits="userSpaceOnUse"><stop offset="0.04" stop-color="#2300bf"/><stop offset="0.05" stop-color="#1c29c7"/><stop offset="0.07" stop-color="#145cd1"/><stop offset="0.09" stop-color="#0d86da"/><stop offset="0.11" stop-color="#07a7e0"/><stop offset="0.13" stop-color="#03bfe5"/><stop offset="0.15" stop-color="#01cde8"/><stop offset="0.17" stop-color="#00d2e9"/><stop offset="0.18" stop-color="#00d2e6"/><stop offset="0.2" stop-color="#02d2db"/><stop offset="0.21" stop-color="#04d2ca"/><stop offset="0.22" stop-color="#08d2b1"/><stop offset="0.23" stop-color="#0cd391"/><stop offset="0.24" stop-color="#12d36a"/><stop offset="0.25" stop-color="#18d33c"/><stop offset="0.26" stop-color="#20d408"/><stop offset="0.26" stop-color="#21d400"/><stop offset="0.37" stop-color="#bfaa00"/><stop offset="0.38" stop-color="#c2a100"/><stop offset="0.4" stop-color="#c98800"/><stop offset="0.42" stop-color="#d56000"/><stop offset="0.45" stop-color="#e52800"/><stop offset="0.46" stop-color="#e91a00"/><stop offset="0.63" stop-color="#bfaa00"/><stop offset="0.65" stop-color="#b6ac00"/><stop offset="0.67" stop-color="#9db300"/><stop offset="0.69" stop-color="#75be00"/><stop offset="0.72" stop-color="#3dcd00"/><stop offset="0.73" stop-color="#21d400"/><stop offset="0.79" stop-color="#00d2e9"/><stop offset="0.8" stop-color="#01cfe8"/><stop offset="0.81" stop-color="#02c4e6"/><stop offset="0.81" stop-color="#05b3e3"/><stop offset="0.82" stop-color="#099ade"/><stop offset="0.82" stop-color="#0f7ad7"/><stop offset="0.83" stop-color="#1553d0"/><stop offset="0.83" stop-color="#1d26c7"/><stop offset="0.83" stop-color="#2300bf"/></linearGradient><linearGradient id="linear-gradient-2" x1="51.24" y1="26.9" x2="8.53" y2="44.7" gradientUnits="userSpaceOnUse"><stop offset="0.07" stop-color="#282828"/><stop offset="0.14" stop-color="#999"/><stop offset="0.17" stop-color="#9f9f9f"/><stop offset="0.23" stop-color="#b0b0b0"/><stop offset="0.29" stop-color="#cbcccc"/><stop offset="0.33" stop-color="#e2e3e3"/><stop offset="0.48" stop-color="#dfe0e0"/><stop offset="0.59" stop-color="#d7d7d7"/><stop offset="0.67" stop-color="#c8c8c8"/><stop offset="0.75" stop-color="#b3b3b3"/><stop offset="0.83" stop-color="#979898"/><stop offset="0.9" stop-color="#767676"/><stop offset="0.96" stop-color="#4f4f4f"/><stop offset="1" stop-color="#333"/></linearGradient><linearGradient id="linear-gradient-3" x1="63.82" y1="11.36" x2="13.19" y2="47.8" gradientUnits="userSpaceOnUse"><stop offset="0" stop-color="#606266"/><stop offset="1" stop-color="#a6a6a6"/></linearGradient><linearGradient id="linear-gradient-4" x1="45.49" y1="33.13" x2="48.12" y2="26.78" gradientUnits="userSpaceOnUse"><stop offset="0" stop-color="#e6e6e6"/><stop offset="0.03" stop-color="#ddd"/><stop offset="0.11" stop-color="#cbcbcb"/><stop offset="0.19" stop-color="#c1c1c1"/><stop offset="0.28" stop-color="#bdbdbd"/><stop offset="0.36" stop-color="#9f9f9f"/><stop offset="0.44" stop-color="#858585"/><stop offset="0.53" stop-color="#717171"/><stop offset="0.64" stop-color="#646464"/><stop offset="0.77" stop-color="#5b5b5b"/><stop offset="1" stop-color="#595959"/></linearGradient><linearGradient id="linear-gradient-5" x1="56.06" y1="15.16" x2="27.32" y2="40.24" gradientUnits="userSpaceOnUse"><stop offset="0" stop-color="#454545"/><stop offset="0.07" stop-color="#646464"/><stop offset="0.17" stop-color="#8d8d8d"/><stop offset="0.28" stop-color="#b0b0b0"/><stop offset="0.39" stop-color="#cdcdcd"/><stop offset="0.51" stop-color="#e3e3e3"/><stop offset="0.64" stop-color="#f3f3f3"/><stop offset="0.79" stop-color="#fcfcfc"/><stop offset="1" stop-color="#fff"/></linearGradient><linearGradient id="linear-gradient-6" x1="48.25" y1="23.65" x2="30.48" y2="39.82" gradientUnits="userSpaceOnUse"><stop offset="0" stop-color="#92d5ee"/><stop offset="0.48" stop-color="#599bb4"/><stop offset="1" stop-color="#185971"/></linearGradient><linearGradient id="linear-gradient-7" x1="43.46" y1="25.63" x2="32.7" y2="34.09" xlink:href="#linear-gradient-6"/><linearGradient id="linear-gradient-8" x1="46.76" y1="19.78" x2="26.13" y2="38.56" xlink:href="#linear-gradient-6"/><linearGradient id="linear-gradient-9" x1="38.68" y1="28.71" x2="-0.61" y2="47.36" gradientUnits="userSpaceOnUse"><stop offset="0" stop-color="#5294ac"/><stop offset="1" stop-color="#185971"/></linearGradient><linearGradient id="linear-gradient-10" x1="36.36" y1="28.49" x2="38.45" y2="28.49" xlink:href="#linear-gradient-6"/><linearGradient id="linear-gradient-11" x1="44.04" y1="22.59" x2="34.01" y2="33.61" xlink:href="#linear-gradient-6"/><linearGradient id="linear-gradient-12" x1="53.08" y1="20.03" x2="-58.57" y2="94.6" gradientUnits="userSpaceOnUse"><stop offset="0" stop-color="#92d5ee"/><stop offset="0.6" stop-color="#599bb4"/><stop offset="1" stop-color="#32738c"/></linearGradient><linearGradient id="linear-gradient-13" x1="51.73" y1="28.31" x2="54.55" y2="26.82" gradientUnits="userSpaceOnUse"><stop offset="0" stop-color="#f0f0f0"/><stop offset="1" stop-color="#3b3b3b"/></linearGradient><linearGradient id="linear-gradient-14" x1="44.76" y1="30.35" x2="32.43" y2="41.37" xlink:href="#linear-gradient-6"/><linearGradient id="linear-gradient-15" x1="30.27" y1="31.21" x2="20.96" y2="38.07" xlink:href="#linear-gradient-6"/><linearGradient id="linear-gradient-16" x1="32.48" y1="25.35" x2="18.39" y2="38.01" xlink:href="#linear-gradient-6"/><linearGradient id="linear-gradient-17" x1="25.16" y1="38.12" x2="16.91" y2="45.09" xlink:href="#linear-gradient-6"/><linearGradient id="linear-gradient-18" x1="32.74" y1="32.98" x2="21.21" y2="43.64" xlink:href="#linear-gradient-6"/><linearGradient id="linear-gradient-19" x1="29.26" y1="34.61" x2="18" y2="44.35" xlink:href="#linear-gradient-6"/><linearGradient id="linear-gradient-20" x1="50.84" y1="18.87" x2="42.78" y2="25.82" xlink:href="#linear-gradient-6"/><linearGradient id="linear-gradient-21" x1="45.77" y1="23.05" x2="34.23" y2="31.16" xlink:href="#linear-gradient-6"/><linearGradient id="linear-gradient-22" x1="45.67" y1="36.2" x2="36.89" y2="41.19" xlink:href="#linear-gradient-6"/><linearGradient id="linear-gradient-23" x1="38.78" y1="33.23" x2="30.89" y2="42.47" xlink:href="#linear-gradient-6"/><linearGradient id="linear-gradient-24" x1="47.49" y1="34.11" x2="42.51" y2="38.08" xlink:href="#linear-gradient-6"/><linearGradient id="linear-gradient-25" x1="52.2" y1="20.03" x2="40.72" y2="30.94" xlink:href="#linear-gradient-6"/><linearGradient id="linear-gradient-26" x1="37.32" y1="27.89" x2="8.45" y2="40.81" xlink:href="#linear-gradient-6"/></defs><title>SIMPLFS_AP_AppIcon</title><path d="M56.12,24.27a1.58,1.58,0,0,0-2.24-1.46l-4.4,1.25-.73-1.52L45.3,20.82a5,5,0,0,0-3-.35l-2.83.66a8.7,8.7,0,0,0-3.12,1.79,46.21,46.21,0,0,1-5.94,3.85,51.75,51.75,0,0,1-9.44,3.78l-10.56,3a3.59,3.59,0,0,0-2.89,3.71,5,5,0,0,0,.46,1.62l1,2.57Z" fill="url(#linear-gradient)"/><path d="M12.17,42.75a2.45,2.45,0,0,1-2.52-1.43.51.51,0,0,1,0-.4.49.49,0,0,1,.31-.24L12.68,40l0-.32-2.47.69-.13,0a.52.52,0,0,1-.37-.16.51.51,0,0,1-.11-.5,4.68,4.68,0,0,1,3-3.21l11.08-3.06a56.49,56.49,0,0,0,12.2-5.24,25.78,25.78,0,0,0,3.4-2.43,11.73,11.73,0,0,1,3.83-2.38l2.62-.62a4.52,4.52,0,0,1,1.46-.28,1.91,1.91,0,0,1,1.45.55,2.16,2.16,0,0,1,.54,1.47v1.43l.37-.13a2.93,2.93,0,0,1,.85-.14,1.3,1.3,0,0,1,1,.42,1.34,1.34,0,0,1,.28,1l-.11,1.45a2.78,2.78,0,0,1-1.88,2.71l-1.08.31c-.44,2.91-1.12,3.94-4.41,5.26a9.42,9.42,0,0,1-4.12.8c-.84,0-1.86,0-3.27-.11l-.56,0-1.08,0a42.18,42.18,0,0,0-11.24,1.88l-.17.05c-1.1.31-2.69.83-4.38,1.38-1.93.63-3.92,1.28-5.53,1.73A6.19,6.19,0,0,1,12.17,42.75Z" fill="url(#linear-gradient-2)"/><path d="M47.14,23a1.42,1.42,0,0,1,1.49,1.5v2.17l1-.38a2.43,2.43,0,0,1,.68-.11.74.74,0,0,1,.83.86l-.12,1.49a2.31,2.31,0,0,1-1.51,2.27l-1.39.4c-.43,3-.93,3.89-4.16,5.19a9,9,0,0,1-3.93.76c-.93,0-2.11-.06-3.81-.14l-1.1,0A43.17,43.17,0,0,0,23.62,38.9c-2.36.66-6.89,2.26-9.91,3.11a5.74,5.74,0,0,1-1.53.24c-1.7,0-2.06-1.09-2.06-1.09l3.12-.85L13.05,39l-3,.85A4.2,4.2,0,0,1,12.67,37l11.09-3.07a57,57,0,0,0,12.32-5.28c3.11-1.8,4.86-4.11,7.12-4.77l2.6-.61A4.1,4.1,0,0,1,47.14,23m0-1a4.9,4.9,0,0,0-1.62.31l-2.55.6h0a12.25,12.25,0,0,0-4,2.47,25.18,25.18,0,0,1-3.34,2.39A56.31,56.31,0,0,1,23.5,32.93L12.4,36a5.16,5.16,0,0,0-3.32,3.51,1,1,0,0,0,.22,1l0,0-.09.14a1,1,0,0,0-.07.79,3,3,0,0,0,3,1.77A6.49,6.49,0,0,0,14,43c1.61-.45,3.61-1.1,5.54-1.73,1.68-.55,3.27-1.07,4.37-1.38l.17,0A41.81,41.81,0,0,1,35.16,38l1.06,0,.56,0c1.42.06,2.44.11,3.29.11a10,10,0,0,0,4.31-.83c3.34-1.35,4.19-2.53,4.67-5.34l.78-.22a3.32,3.32,0,0,0,2.23-3.18l.11-1.44a1.73,1.73,0,0,0-1.82-2,3.22,3.22,0,0,0-.72.09v-.77A2.67,2.67,0,0,0,49,22.67,2.39,2.39,0,0,0,47.14,22Z" fill="#6d6d6d"/><path d="M43.86,23.09v7.08A2.49,2.49,0,0,1,42.3,32.1c-1.36.47-3.39,1-3.91,1.23-1,.36-3.5-.61-5.33-.57A79.63,79.63,0,0,0,24.85,34" stroke="#6d6d6d" stroke-linecap="round" stroke-linejoin="round" fill="url(#linear-gradient-3)"/><path d="M48.16,31.66a.46.46,0,0,1-.23-.06l-3.5-1.82a.48.48,0,0,1-.26-.44l0-4.75a.49.49,0,0,1,.24-.42.48.48,0,0,1,.26-.07.59.59,0,0,1,.23,0l3.73,1.92,2.21-1a.45.45,0,0,1,.2,0,.54.54,0,0,1,.22.05.51.51,0,0,1,.27.34l.37,1.6a.45.45,0,0,1,0,.2l-.61,3.56a.5.5,0,0,1-.41.41l-2.67.45Z" fill="url(#linear-gradient-4)"/><path d="M44.69,24.6l3.94,2,2.43-1.09.38,1.61-.62,3.56-2.66.45-3.49-1.82,0-4.74m0-1a1.07,1.07,0,0,0-.52.14,1,1,0,0,0-.48.85l0,4.75a1,1,0,0,0,.53.89L47.7,32a.93.93,0,0,0,.46.12l.16,0L51,31.7a1,1,0,0,0,.82-.82l.61-3.56a1.07,1.07,0,0,0,0-.4L52,25.31a1,1,0,0,0-.53-.67,1,1,0,0,0-.85,0l-2,.89-3.51-1.81a1,1,0,0,0-.46-.11Z" fill="#454545"/><path d="M37.34,34.87a7.38,7.38,0,0,1-1.43-.21,14.3,14.3,0,0,0-3.09-.36,49.84,49.84,0,0,0-5.92.47h-.07a.5.5,0,0,1-.48-.37.49.49,0,0,1,.29-.59c.16-.07,4-1.64,6.22-1.69H33a14.76,14.76,0,0,1,2.73.37,11.88,11.88,0,0,0,1.91.28,1.4,1.4,0,0,0,.41-.05c.22-.08.71-.23,1.31-.41.81-.25,1.83-.55,2.61-.82A2,2,0,0,0,43.18,30V24a.54.54,0,0,1,.22-.42.6.6,0,0,1,.28-.08.48.48,0,0,1,.18,0l1,.4a.48.48,0,0,1,.32.46V30a3.68,3.68,0,0,1-2.41,3.45c-.18.05-3.87,1.1-4.91,1.34A2.44,2.44,0,0,1,37.34,34.87Z" fill="url(#linear-gradient-5)"/><path d="M43.67,24l1,.39V30a3.21,3.21,0,0,1-2.07,3s-3.83,1.08-4.86,1.32a2.12,2.12,0,0,1-.44,0,40.66,40.66,0,0,0-4.52-.56,52,52,0,0,0-6,.47s3.91-1.6,6-1.65H33c1.53,0,3.48.65,4.64.65a1.93,1.93,0,0,0,.58-.08c.52-.19,2.55-.76,3.92-1.23A2.47,2.47,0,0,0,43.67,30V24m0-1a1,1,0,0,0-.56.17,1,1,0,0,0-.44.83v6A1.42,1.42,0,0,1,41.79,31c-.77.27-1.78.57-2.58.82-.62.18-1.11.33-1.35.42a.9.9,0,0,1-.24,0A11.28,11.28,0,0,1,35.8,32,14.83,14.83,0,0,0,33,31.62h-.14c-2.28.05-6.22,1.66-6.39,1.73a1,1,0,0,0,.38,1.92H27a52.41,52.41,0,0,1,5.85-.46,13.6,13.6,0,0,1,3,.35,7.28,7.28,0,0,0,1.53.21,2.84,2.84,0,0,0,.66-.07c1-.24,4.75-1.28,4.91-1.33H43A4.21,4.21,0,0,0,45.71,30V24.38a1,1,0,0,0-.64-.93l-1-.4a1,1,0,0,0-.36-.06Z" fill="#545454"/><path d="M38.09,37.35a.23.23,0,0,1-.18-.08l-3-3.24s-.45-.35-.45-1.36v-.92a.26.26,0,0,1,.19-.24l2.2-.62h.07a.26.26,0,0,1,.24.18L38.32,35l0,2.12a.23.23,0,0,1-.16.23A.15.15,0,0,1,38.09,37.35Z" fill="url(#linear-gradient-6)"/><path d="M36.93,31.13l1.15,3.92V37.1l-3-3.24s-.38-.28-.38-1.19v-.92l2.21-.62m0-.5a.32.32,0,0,0-.14,0l-2.2.62a.51.51,0,0,0-.37.48v.92a2,2,0,0,0,.53,1.55l3,3.22a.49.49,0,0,0,.37.16.57.57,0,0,0,.18,0,.51.51,0,0,0,.32-.47V35.05a.59.59,0,0,0,0-.14L37.41,31a.51.51,0,0,0-.48-.35Z" fill="#00415f"/><path d="M38,29.8a.23.23,0,0,1-.23-.17L37.21,28a.21.21,0,0,1,0-.19.23.23,0,0,1,.15-.12l4.86-1.53h.07a.3.3,0,0,1,.16,0l1.6,1.23a.25.25,0,0,1,.1.24.25.25,0,0,1-.17.19l-6,1.89Z" fill="url(#linear-gradient-7)"/><path d="M42.3,26.44l1.61,1.22L38,29.55,37.44,28l4.86-1.53m0-.5-.15,0-4.86,1.53a.5.5,0,0,0-.32.63l.52,1.59a.49.49,0,0,0,.47.34.44.44,0,0,0,.16,0l5.94-1.89a.5.5,0,0,0,.34-.39.48.48,0,0,0-.19-.48L42.61,26a.5.5,0,0,0-.31-.1Z" fill="#00415f"/><path d="M36.74,30.27a.28.28,0,0,1-.16-.05l-1.29-1.06a.23.23,0,0,1-.09-.22.22.22,0,0,1,.12-.19L36.61,28a.28.28,0,0,1,.13,0,.19.19,0,0,1,.12,0,.23.23,0,0,1,.13.21V30a.25.25,0,0,1-.15.23A.18.18,0,0,1,36.74,30.27Z" fill="url(#linear-gradient-8)"/><path d="M36.74,28.23V30L35.44,29l1.3-.73m0-.5a.45.45,0,0,0-.25.07l-1.29.73a.47.47,0,0,0-.25.39.47.47,0,0,0,.18.43l1.29,1.06a.46.46,0,0,0,.32.11.52.52,0,0,0,.21,0,.51.51,0,0,0,.29-.46V28.23A.5.5,0,0,0,37,27.8a.47.47,0,0,0-.25-.07Z" fill="#00415f"/><path d="M12.83,38.8a.27.27,0,0,1-.23-.14l-.66-1.36a.26.26,0,0,1,0-.21.25.25,0,0,1,.16-.14l24.4-7.11V28.23a.25.25,0,0,1,.1-.2l1.23-.85a.24.24,0,0,1,.14-.05.27.27,0,0,1,.12,0,.25.25,0,0,1,.13.22v1.83l5.62-1.78h.08a.21.21,0,0,1,.15,0,.23.23,0,0,1,.1.21l-.09,1.51a.26.26,0,0,1-.18.23l-1,.28-4.73,1.51v1.95a.26.26,0,0,1-.2.24l-1.32.29h-.06a.27.27,0,0,1-.15,0,.26.26,0,0,1-.1-.2V31.65L12.9,38.79Z" fill="url(#linear-gradient-9)"/><path d="M38,27.38v2.17l5.95-1.89-.09,1.52-1,.28L38,31l0,2.13-1.32.28V31.31L12.83,38.55l-.67-1.36L36.74,30V28.23L38,27.38m0-.5a.47.47,0,0,0-.28.09l-1.23.85a.51.51,0,0,0-.21.41v1.42L12,36.71a.51.51,0,0,0-.32.27.54.54,0,0,0,0,.43l.67,1.36a.51.51,0,0,0,.45.28L13,39l23.17-7v1.45a.5.5,0,0,0,.5.5h.11l1.32-.28a.49.49,0,0,0,.39-.49V31.4L43,29.93l.94-.28a.48.48,0,0,0,.35-.44l.1-1.51a.5.5,0,0,0-.19-.43.51.51,0,0,0-.31-.11.4.4,0,0,0-.15,0l-5.3,1.68V27.38a.51.51,0,0,0-.26-.44.53.53,0,0,0-.24-.06Z" fill="#00415f"/><path d="M38.2,30a.28.28,0,0,1-.17-.07l-1.59-1.45a.25.25,0,0,1-.08-.21.24.24,0,0,1,.11-.19L38,27a.24.24,0,0,1,.14-.05.2.2,0,0,1,.11,0,.27.27,0,0,1,.14.22l0,2.53a.28.28,0,0,1-.15.24Z" fill="url(#linear-gradient-10)"/><path d="M38.18,27.22l0,2.54L36.61,28.3l1.57-1.08m0-.5a.52.52,0,0,0-.29.09l-1.56,1.08a.47.47,0,0,0-.22.38.5.5,0,0,0,.16.4l1.59,1.46a.55.55,0,0,0,.34.13.46.46,0,0,0,.2-.05.49.49,0,0,0,.3-.46l0-2.53a.54.54,0,0,0-.27-.44.49.49,0,0,0-.23-.06Z" fill="#00415f"/><path d="M38.2,30a.3.3,0,0,1-.15-.05.26.26,0,0,1-.1-.2l0-2.53A.25.25,0,0,1,38,27l1.39-1.1a.25.25,0,0,1,.16-.06.23.23,0,0,1,.11,0,.26.26,0,0,1,.14.22V29.3a.26.26,0,0,1-.17.24L38.28,30Z" fill="url(#linear-gradient-11)"/><path d="M39.57,26.12V29.3l-1.37.46,0-2.54,1.39-1.1m0-.5a.51.51,0,0,0-.31.11l-1.39,1.1a.51.51,0,0,0-.19.4l0,2.53a.49.49,0,0,0,.21.4.53.53,0,0,0,.29.1.45.45,0,0,0,.16,0l1.37-.46a.49.49,0,0,0,.34-.47V26.12a.51.51,0,0,0-.28-.45.59.59,0,0,0-.22-.05Z" fill="#00415f"/><path d="M12.09,43.78c-2.14,0-3.63-1.19-3.63-2.9,0-4.25,3.24-5.14,3.27-5.14l11.49-3A96.5,96.5,0,0,0,32.58,29a37.45,37.45,0,0,0,7-4.56,8.91,8.91,0,0,1,3.28-1.88l2.85-.67a6.56,6.56,0,0,1,1.55-.22A2.49,2.49,0,0,1,50,23.88c.84-.26,2.53-.76,4-1.16a3,3,0,0,1,.85-.13,1.66,1.66,0,0,1,1.22.47,1.92,1.92,0,0,1,.46,1.32c0,.06-.1,1.19-.48,3.73a4.11,4.11,0,0,1-2.77,3.47l-4,1.33A5.86,5.86,0,0,1,46,36.82l-.09,0a16,16,0,0,1-4.26,1.42,14.55,14.55,0,0,1-2.19.12h0l-2.22,0c-1.05,0-2.26-.05-3.62-.05a41.84,41.84,0,0,0-10.33,1.73c-.72.19-2.8,1-4.81,1.74-1.84.7-3.75,1.42-4.74,1.73A5.22,5.22,0,0,1,12.09,43.78Zm-1.25-2.37a2,2,0,0,0,1.34.4,5.17,5.17,0,0,0,1.41-.22c1.58-.44,3.44-1.13,5.23-1.79,1.59-.58,3.08-1.13,4.21-1.45a48.39,48.39,0,0,1,12-1.84c.41,0,.82,0,1.22,0l.56,0c1.41.07,2.42,0,3.24,0a8.53,8.53,0,0,0,3.76-.87c3.08-1.23,3.48-1.8,3.89-4.62l0-.28,1.66-.48a1.9,1.9,0,0,0,1.2-1.87l.11-1.5a.42.42,0,0,0-.06-.3.46.46,0,0,0-.33-.09,2.22,2.22,0,0,0-.57.09l-1.84.48v-2.3a1.7,1.7,0,0,0-.25-1.17.91.91,0,0,0-.7-.26,3.4,3.4,0,0,0-1.05.22l-2.66.76a11.26,11.26,0,0,0-3.53,2.17A29,29,0,0,1,36.29,29a57.45,57.45,0,0,1-12.42,5.32l-11,3.07a3.52,3.52,0,0,0-2,1.79l2.62-.73.31,2.19Z" stroke="#00415f" stroke-linecap="round" stroke-linejoin="round" fill="url(#linear-gradient-12)"/><path d="M52.93,28.9a1,1,0,0,1-.53-.15A1,1,0,0,1,52,28,.28.28,0,0,1,52,27.8a.29.29,0,0,1,.18-.07h0a1.23,1.23,0,0,0,1-.62,1.45,1.45,0,0,0,.24-.93.28.28,0,0,1,.07-.21.29.29,0,0,1,.18-.07h0A1,1,0,0,1,54.62,27a1.94,1.94,0,0,1-.34,1.1,1.7,1.7,0,0,1-1.35.85Z" fill="url(#linear-gradient-13)"/><path d="M53.73,26.15a.63.63,0,0,1,.3.1,1.23,1.23,0,0,1,0,1.66,1.49,1.49,0,0,1-1.15.74.68.68,0,0,1-.39-.11.81.81,0,0,1-.33-.56h.09a1.48,1.48,0,0,0,1.15-.74,1.64,1.64,0,0,0,.28-1.09m0-.5a.51.51,0,0,0-.36.15.47.47,0,0,0-.13.42A1.18,1.18,0,0,1,53,27a1,1,0,0,1-.73.51h-.06a.51.51,0,0,0-.37.15.48.48,0,0,0-.15.42,1.23,1.23,0,0,0,.55.91,1.16,1.16,0,0,0,.66.19,2,2,0,0,0,1.57-1,1.68,1.68,0,0,0-.2-2.35,1.41,1.41,0,0,0-.51-.18Z" fill="#00415f"/><path d="M37.94,36.41a.25.25,0,0,1-.19-.09.23.23,0,0,1-.06-.2l.14-1.1a.26.26,0,0,1,.19-.21l1.4-.33h0a.28.28,0,0,1,.15,0,.3.3,0,0,1,.1.17l.21,1.44a.24.24,0,0,1-.06.2.25.25,0,0,1-.19.09Z" fill="url(#linear-gradient-14)"/><path d="M39.47,34.72l.21,1.44H37.94l.14-1.11,1.39-.33m0-.5h-.11L38,34.56a.49.49,0,0,0-.38.43l-.15,1.1a.52.52,0,0,0,.12.4.5.5,0,0,0,.38.17h1.74a.56.56,0,0,0,.38-.17.52.52,0,0,0,.11-.4L40,34.65a.51.51,0,0,0-.21-.34.52.52,0,0,0-.29-.09Z" fill="#00415f"/><polygon points="22.3 37.04 22.38 36.01 24.95 35.23 24.71 36.32 22.3 37.04" stroke="#00415f" stroke-linecap="round" stroke-linejoin="round" stroke-width="0.5" fill="url(#linear-gradient-15)"/><path d="M22.12,37a.25.25,0,0,1-.19-.09l-.37-.43a.25.25,0,0,1-.06-.14v-.22l-1-1.29a.27.27,0,0,1-.05-.15v-.88a.26.26,0,0,1,.17-.24h.08a.25.25,0,0,1,.19.09L22.4,35.6a.23.23,0,0,1,.05.18l-.08,1a.25.25,0,0,1-.17.22Z" fill="url(#linear-gradient-16)"/><path d="M20.66,33.84l1.54,1.92-.08,1-.37-.43,0-.3-1.07-1.34v-.88m0-.5a.51.51,0,0,0-.17,0,.5.5,0,0,0-.33.47v.88a.51.51,0,0,0,.11.31l1,1.22v.14a.56.56,0,0,0,.12.3l.37.43a.52.52,0,0,0,.38.17.45.45,0,0,0,.16,0,.5.5,0,0,0,.34-.43l.08-1a.52.52,0,0,0-.11-.36l-1.54-1.92a.5.5,0,0,0-.39-.18Z" fill="#00415f"/><path d="M22.22,41.35a.25.25,0,0,1-.19-.09l-1.18-1.37a.22.22,0,0,1-.05-.23.25.25,0,0,1,.16-.17l2.63-.83h.08a.23.23,0,0,1,.18.08l1.21,1.33a.25.25,0,0,1-.11.41l-2.65.87Z" fill="url(#linear-gradient-17)"/><path d="M23.67,38.9l1.21,1.33-2.66.87L21,39.73l2.63-.83m0-.5a.39.39,0,0,0-.15,0l-2.63.83a.49.49,0,0,0-.33.34.5.5,0,0,0,.1.47l1.18,1.37a.52.52,0,0,0,.38.17l.16,0L25,40.71a.52.52,0,0,0,.33-.35.51.51,0,0,0-.11-.46L24,38.56a.49.49,0,0,0-.37-.16Z" fill="#00415f"/><path d="M22.8,42.77l-.12,0a.2.2,0,0,1-.12-.15l-.44-1.68a.24.24,0,0,1,.17-.3l2.51-.72h.06a.23.23,0,0,1,.14,0,.25.25,0,0,1,.11.17l.28,1.6a.25.25,0,0,1-.17.28l-2.34.79Z" fill="url(#linear-gradient-18)"/><path d="M24.86,40.13l.28,1.61-2.34.78-.44-1.67,2.5-.72m0-.5-.13,0-2.51.72a.51.51,0,0,0-.35.61l.44,1.67a.49.49,0,0,0,.25.31.5.5,0,0,0,.24.06A.44.44,0,0,0,23,43l2.34-.79a.49.49,0,0,0,.33-.56l-.27-1.6a.51.51,0,0,0-.23-.34.5.5,0,0,0-.27-.08Z" fill="#00415f"/><path d="M22.55,42.62a.25.25,0,0,1-.19-.09l-1.48-1.78a.27.27,0,0,1-.06-.16v-.86a.26.26,0,0,1,.17-.24h.08a.25.25,0,0,1,.2.09l.81,1a.26.26,0,0,1,.17-.09h0a.26.26,0,0,1,.25.21l.28,1.66a.26.26,0,0,1-.15.27Z" fill="url(#linear-gradient-19)"/><path d="M21.07,39.73l1.21,1.46v-.48l.28,1.66-1.48-1.78v-.86m0-.5-.17,0a.51.51,0,0,0-.33.47v.86a.47.47,0,0,0,.12.31l1.47,1.79a.53.53,0,0,0,.39.18.54.54,0,0,0,.21,0,.49.49,0,0,0,.28-.53l-.27-1.66a.51.51,0,0,0-.5-.42h-.05l-.08,0-.68-.82a.5.5,0,0,0-.39-.18Z" fill="#00415f"/><path d="M45.36,26.37a.27.27,0,0,1-.12,0l-.44-.25a.25.25,0,0,1-.12-.16L44.45,25,43,24.08a.26.26,0,0,1-.11-.21V23a.25.25,0,0,1,.13-.22l.12,0a.25.25,0,0,1,.14,0l2.19,1.47a.26.26,0,0,1,.11.21v1.69a.27.27,0,0,1-.12.22A.31.31,0,0,1,45.36,26.37Z" fill="url(#linear-gradient-20)"/><path d="M43.17,23l2.19,1.47v1.69l-.44-.25-.25-1-1.5-1V23m0-.5a.53.53,0,0,0-.24.06.49.49,0,0,0-.26.44v.91a.49.49,0,0,0,.22.41l1.34.89.21.83a.49.49,0,0,0,.24.31l.43.25a.57.57,0,0,0,.25.06.45.45,0,0,0,.25-.07.48.48,0,0,0,.25-.43V24.43a.49.49,0,0,0-.22-.41l-2.19-1.48a.6.6,0,0,0-.28-.08Z" fill="#00415f"/><path d="M45.36,24.68a.23.23,0,0,1-.14,0L43,23.17a.26.26,0,0,1-.11-.25.25.25,0,0,1,.19-.2l2.38-.57h.06a.3.3,0,0,1,.15.05l1.93,1.38a.23.23,0,0,1,.1.24.25.25,0,0,1-.17.2l-2.12.66Z" fill="url(#linear-gradient-21)"/><path d="M45.55,22.39l1.94,1.38-2.13.66L43.17,23l2.38-.57m0-.5h-.12l-2.38.57a.49.49,0,0,0-.37.4.47.47,0,0,0,.21.5l2.19,1.48a.57.57,0,0,0,.28.08l.15,0,2.12-.66a.5.5,0,0,0,.15-.89L45.84,22a.52.52,0,0,0-.29-.09Z" fill="#00415f"/><path d="M43.73,38.57a.25.25,0,0,1-.2-.1L42.36,37a.24.24,0,0,1,0-.23.22.22,0,0,1,.15-.16l2-.76.09,0a.28.28,0,0,1,.17.07l.8.76.16-.08a.27.27,0,0,1,.12,0,.2.2,0,0,1,.16.07l.28.25a.24.24,0,0,1,.08.21.26.26,0,0,1-.13.19l-2.35,1.25A.27.27,0,0,1,43.73,38.57Z" fill="url(#linear-gradient-22)"/><path d="M44.56,36.1l.93.88.32-.16.27.25-2.35,1.25-1.17-1.46,2-.76m0-.5a.58.58,0,0,0-.18,0l-2,.75a.49.49,0,0,0-.3.34.47.47,0,0,0,.09.44l1.17,1.46a.51.51,0,0,0,.39.19.46.46,0,0,0,.23-.06l2.36-1.25a.48.48,0,0,0,.26-.38.5.5,0,0,0-.16-.43l-.28-.25a.46.46,0,0,0-.33-.13.53.53,0,0,0-.24.06l-.67-.64a.51.51,0,0,0-.34-.14Z" fill="#00415f"/><path d="M38.08,35.3a.23.23,0,0,1-.18-.08l-1.45-1.61a.28.28,0,0,1-.06-.25.26.26,0,0,1,.19-.16l1.32-.29H38a.22.22,0,0,1,.17.07l1.52,1.56a.24.24,0,0,1,.06.25.23.23,0,0,1-.18.17l-1.39.33Z" fill="url(#linear-gradient-23)"/><path d="M38,33.16l1.52,1.56-1.39.33-1.45-1.61L38,33.16m0-.5h-.1L36.53,33a.51.51,0,0,0-.27.83l1.45,1.61a.52.52,0,0,0,.37.16h.12l1.39-.33a.49.49,0,0,0,.36-.35.47.47,0,0,0-.12-.49l-1.52-1.56a.48.48,0,0,0-.36-.15Z" fill="#00415f"/><path d="M43.4,38.65a.23.23,0,0,1-.16-.06l-.88-.75a.24.24,0,0,1-.08-.19V36.9a.25.25,0,0,1,.14-.23l.11,0a.3.3,0,0,1,.15.05l1.06.81.3-.18a.33.33,0,0,1,.13,0,.24.24,0,0,1,.14.05l.26.18a.25.25,0,0,1,.11.21.24.24,0,0,1-.12.2l-1,.68A.23.23,0,0,1,43.4,38.65Z" fill="url(#linear-gradient-24)"/><path d="M42.53,36.9l1.19.91.45-.27.26.18-1,.68-.87-.75V36.9m0-.5a.64.64,0,0,0-.23.05.49.49,0,0,0-.27.45v.75a.49.49,0,0,0,.17.38l.87.75a.52.52,0,0,0,.33.12.53.53,0,0,0,.27-.08l1-.68a.51.51,0,0,0,.23-.41.49.49,0,0,0-.22-.41l-.25-.18a.46.46,0,0,0-.29-.1.52.52,0,0,0-.25.07l-.16.1-.93-.71a.49.49,0,0,0-.3-.1Z" fill="#00415f"/><path d="M53.62,26.14a.74.74,0,0,1,.39.11c.44.29.46,1,.05,1.66a1.46,1.46,0,0,1-1.15.74.63.63,0,0,1-.38-.11c-.44-.28-.46-1-.05-1.66a1.49,1.49,0,0,1,1.14-.74m0-.6h0a2.07,2.07,0,0,0-1.65,1,2.18,2.18,0,0,0-.35,1.61,1.29,1.29,0,0,0,1.29,1.08,2.07,2.07,0,0,0,1.65-1,1.77,1.77,0,0,0-.22-2.49,1.29,1.29,0,0,0-.72-.21Z" fill="#00415f"/><path d="M45.67,26.54a.24.24,0,0,1-.14-.05.24.24,0,0,1-.11-.2V25a.26.26,0,0,1,.17-.24l2.13-.66h.07a.27.27,0,0,1,.15.05.26.26,0,0,1,.1.2v1.19a.25.25,0,0,1-.16.24l-2.13.79Z" fill="url(#linear-gradient-25)"/><path d="M47.79,24.3v1.19l-2.12.8V25l2.12-.66m0-.5a.4.4,0,0,0-.15,0l-2.12.66a.48.48,0,0,0-.35.47v1.33a.49.49,0,0,0,.5.5.33.33,0,0,0,.17,0L48,26a.5.5,0,0,0,.32-.47V24.3a.48.48,0,0,0-.2-.4.54.54,0,0,0-.3-.1Z" fill="#00415f"/><polygon points="20.67 33.87 22.2 35.76 24.77 34.98 23.34 33.14 20.67 33.87" stroke="#00415f" stroke-linecap="round" stroke-linejoin="round" stroke-width="0.5" fill="url(#linear-gradient-26)"/><line x1="44.25" y1="37.21" x2="45.88" y2="36.52" fill="none" stroke="#00415f" stroke-linecap="round" stroke-linejoin="round" stroke-width="0.5"/><path d="M43.19,20.22a5.38,5.38,0,0,1,2.11.46l1.69.84.26,0A2.49,2.49,0,0,1,50,23.74c.84-.26,2.53-.76,4-1.17a3.41,3.41,0,0,1,.85-.12,1.66,1.66,0,0,1,1.22.47,1.92,1.92,0,0,1,.46,1.32c0,.06-.1,1.19-.48,3.72a4.08,4.08,0,0,1-2.77,3.47l-4,1.33A5.88,5.88,0,0,1,46,36.68l-.09,0h0l.21.19-2.35,1.25-.07-.09-.26.17-.47-.41a13,13,0,0,1-1.31.3,14.55,14.55,0,0,1-2.19.12l-2.22,0c-1.05,0-2.26-.05-3.62-.05a39.38,39.38,0,0,0-9.15,1.42l.36.4.06,0,.28,1.61-2.34.78-.39-1.48-.08,0,.22,1.31-1.33-1.61-2.77,1c-1.84.69-3.75,1.41-4.74,1.73a5.54,5.54,0,0,1-1.62.25c-2.14,0-3.63-1.19-3.63-2.9q0-.33,0-.63l-.55-1.4a5.13,5.13,0,0,1-.46-1.62,3.59,3.59,0,0,1,2.89-3.71l10.56-3a51.34,51.34,0,0,0,9.44-3.77,47.56,47.56,0,0,0,5.94-3.85A8.7,8.7,0,0,1,39.43,21l2.83-.66a3.75,3.75,0,0,1,.93-.11M22.28,41.05v-.11l-.06,0L22,40.68l.3.37M43.19,19.22v0a4.47,4.47,0,0,0-1.17.14L39.2,20a9.54,9.54,0,0,0-3.53,2,48.12,48.12,0,0,1-5.79,3.73,50.4,50.4,0,0,1-9.22,3.69l-10.51,3a4.58,4.58,0,0,0-3.67,4.69,5.58,5.58,0,0,0,.54,2l.46,1.16c0,.16,0,.31,0,.48,0,2.26,2,3.9,4.63,3.9a6.26,6.26,0,0,0,1.92-.3C15,44,17,43.29,18.8,42.59l.05,0,2-.77.88,1.06a.91.91,0,0,0,.37.28.66.66,0,0,0,.17.12,1,1,0,0,0,.48.12,1.19,1.19,0,0,0,.32-.05l2.34-.79a1,1,0,0,0,.67-1.11l-.2-1.15a35.37,35.37,0,0,1,7.66-1.09c1.33,0,2.51,0,3.56,0,.88,0,1.63,0,2.28,0a13.78,13.78,0,0,0,2.35-.14,7.8,7.8,0,0,0,.89-.18l.08.07a1,1,0,0,0,.65.24,1.1,1.1,0,0,0,.4-.08,1,1,0,0,0,.4-.12l2.35-1.25a1,1,0,0,0,.49-.59,6.68,6.68,0,0,0,3-3.68l3.49-1.15A5.12,5.12,0,0,0,57,28.11c.4-2.68.49-3.79.49-3.8a3,3,0,0,0-.74-2.08,2.65,2.65,0,0,0-1.94-.78,4.2,4.2,0,0,0-1.12.16c-1,.27-2.12.6-3.07.88a3.39,3.39,0,0,0-.57-.86,3.7,3.7,0,0,0-2.83-1.13h-.06l-1.44-.71a6.18,6.18,0,0,0-2.56-.57Z" fill="#2d2d2d"/></svg>