<svg xmlns="http://www.w3.org/2000/svg" xmlns:xlink="http://www.w3.org/1999/xlink" viewBox="0 0 64 64"><defs><clipPath id="clip-path"><rect x="15" y="15" width="40" height="40" style="fill:none"/></clipPath></defs><g id="Layer_7" data-name="Layer 7"><g style="clip-path:url(#clip-path)"><path d="M55.87,13.7V26.3l-.87.44C32.83,28,28.48,14.13,28.48,14.13Zm-32.17.43C38.48,38.91,55.87,38.91,55.87,38.91V30.65c-22.61.44-28.7-16.52-28.7-16.52Zm-6.09-1.3,34.78,43h3.48v-13c-20.44-3-33-28.7-33-28.7ZM25.87,46.3c-1.3,1.31,0,2.18.43,2.18,2.18,0,.87-2.18.87-2.18-.87-1.73-3.14-1-3.91,0-1.74,2.18.87,4.35,3,4.35,4.35,0,3.69-3.5,3.48-4.35-1.3-5.21-7.55-4-9.13-1.3-3,5.22,1.84,8.8,4.35,9.13,6.52.87,8.26-3.91,8.26-6.52,0-10-9.56-9.57-9.56-9.57-14.79.87-8.7,18.7-8.7,18.7H35l1.3-2.17C43.26,45,34.13,35,34.13,35l-17-20.87L15,13.26l-1.74,2.61L12.39,35l2.61.87C32.39,28.91,35.87,45,35.87,45c.43,7.39-4.78,10.43-4.78,10.43H20.65a9.54,9.54,0,0,1-3-5.65c-.39-3.14,1.25-8.21,6.09-8.69,4.34-.44,6.4,2,7,3.91,1.74,6.09-2.68,7.12-4.78,7-5.65-.44-4.63-5.08-3.48-6.53a3.64,3.64,0,0,1,5.65,0c1.74,3-.43,3.92-1.74,3.92C24.13,49.35,23.26,46.74,25.87,46.3Z" style="fill:#ee1d2f"/></g></g><g id="FINAL_BADGE" data-name="FINAL BADGE"><path d="M29,14.75a7.25,7.25,0,0,0-14.39-1.22A7.25,7.25,0,1,0,22.39,22,7.26,7.26,0,0,0,29,14.75Z" style="fill:#fff"/><path d="M21.5,24.5a9,9,0,0,1-8.2-5.29.51.51,0,0,1,0-.48.5.5,0,0,1,.42-.23H18.7a.52.52,0,0,1,.32.11,3.93,3.93,0,0,0,2.48.89,4,4,0,0,0,0-8,3.93,3.93,0,0,0-2.48.89.52.52,0,0,1-.32.11H13.76a.5.5,0,0,1-.42-.23.51.51,0,0,1,0-.48A9,9,0,1,1,21.5,24.5Z" style="fill:#075081"/><path d="M21.5,7a8.5,8.5,0,1,1-7.74,12H18.7a4.5,4.5,0,1,0,0-7H13.76A8.49,8.49,0,0,1,21.5,7m0-1a9.51,9.51,0,0,0-8.65,5.59,1,1,0,0,0,.07.95,1,1,0,0,0,.84.46H18.7a1,1,0,0,0,.63-.22A3.46,3.46,0,0,1,21.5,12a3.5,3.5,0,0,1,0,7,3.46,3.46,0,0,1-2.17-.78A1,1,0,0,0,18.7,18H13.76a1,1,0,0,0-.84.46,1,1,0,0,0-.07.95A9.5,9.5,0,1,0,21.5,6Z" style="fill:#fff"/><path d="M15.5,30.5a9,9,0,1,1,8.2-12.71.51.51,0,0,1,0,.48.5.5,0,0,1-.42.23H18.3a.52.52,0,0,1-.32-.11,3.93,3.93,0,0,0-2.48-.89,4,4,0,0,0,0,8A3.93,3.93,0,0,0,18,24.61a.52.52,0,0,1,.32-.11h4.94a.5.5,0,0,1,.42.23.51.51,0,0,1,0,.48A9,9,0,0,1,15.5,30.5Z" style="fill:#075081"/><path d="M15.5,13a8.49,8.49,0,0,1,7.74,5H18.3a4.5,4.5,0,1,0,0,7h4.94A8.5,8.5,0,1,1,15.5,13m0-1a9.5,9.5,0,1,0,8.65,13.41,1,1,0,0,0-.07-.95,1,1,0,0,0-.84-.46H18.3a1,1,0,0,0-.63.22A3.46,3.46,0,0,1,15.5,25a3.5,3.5,0,0,1,0-7,3.46,3.46,0,0,1,2.17.78,1,1,0,0,0,.63.22h4.94a1,1,0,0,0,.84-.46,1,1,0,0,0,.07-.95A9.51,9.51,0,0,0,15.5,12Z" style="fill:#fff"/></g></svg>