<svg xmlns="http://www.w3.org/2000/svg" viewBox="0 0 64 64"><g id="Layer_9" data-name="Layer 9"><g id="SATURE_carte_" data-name="SATURE  carte   ****"><path d="M57,28.74,53,20,32.21,29.89l4.16,8.53ZM13,33.19v9.54H31.23V33.19Zm43.59-2.06L35.73,40.8l-2.12-2.71v3h23ZM32.81,38.76l-1.58,4,20.6,8.75,4-8.75h-23Z" style="fill:#003755"/></g><g id="moyen_carte_" data-name="moyen  carte   ****"><path d="M56.59,31.13,35.73,40.8l-2.12-2.71v3h23Z" style="fill:#2d6d8b"/></g><g id="Clair_carte_" data-name="Clair carte   ****"><path d="M32.81,38.76l-1.58,4,20.6,8.77,4-8.75h-23Z" style="fill:#5a9ab8"/></g><path id="S_" data-name="S ***" d="M18.49,40.68h-2.8v-1h2.74c.69,0,.78-.26.78-.52s-.24-.46-.65-.5l-1.63-.11a1.32,1.32,0,0,1-1.39-1.48c0-.94.65-1.48,1.73-1.48H20v1h-2.7c-.75,0-.76.27-.76.5s.07.47.5.5l1.74.12a1.38,1.38,0,0,1,1.43,1.53C20.18,39.91,19.89,40.68,18.49,40.68Z" style="fill:#fff"/><path id="I_" data-name="I  **" d="M22.31,40.68H21.17V35.62h1.14Z" style="fill:#fff"/><path id="M_" data-name="M    ***" d="M29.22,40.68H28.13V37.44l-1.18,3H26l-1.36-3v3.24H23.57V35.6h1.51l1.31,3.55,1.36-3.55h1.47Z" style="fill:#fff"/><g id="txt_PACK_" data-name="txt PACK  ****"><path id="P_" data-name="P *****" d="M34.89,31.06S37.14,30,37.3,29.93a1.67,1.67,0,0,1,2.22.69,1.43,1.43,0,0,1-.77,2.17l-1.55.71L38,35.26l-.92.41Zm1.91,1.66,1-.44a1.74,1.74,0,0,0,.39-.23.78.78,0,0,0,.21-.25.56.56,0,0,0,.05-.28.8.8,0,0,0-.1-.31.66.66,0,0,0-.23-.28.63.63,0,0,0-.29-.1,1,1,0,0,0-.34,0,3.19,3.19,0,0,0-.35.14l-.91.41Z" style="fill:#fff"/><path id="A_" data-name="A *****" d="M45.47,31.83l-1,.44L43.33,31.2,41.59,32l0,1.53L40.51,34V28.52l.89-.4ZM42.7,30.6l-1.28-1.16v1.71Z" style="fill:#fff"/><path id="C_" data-name="C ****" d="M49,29l.38.85-1.51.7a2.18,2.18,0,0,1-3.21-1.07,2.26,2.26,0,0,1,.86-3.35l1.74-.8.38.77-1.75.83c-.19.11-.73.8-.17,2a1.26,1.26,0,0,0,1.76.76Z" style="fill:#fff"/><path id="K_" data-name="K ****" d="M54.1,27.69l-1.19.51L50.34,27l1,2-1,.49L48,25l1.07-.5,1,2,.67-2.8,1.18-.55-.68,3Z" style="fill:#fff"/></g></g><g id="FINAL_BADGE" data-name="FINAL BADGE"><path d="M29,14.75a7.25,7.25,0,0,0-14.39-1.22A7.25,7.25,0,1,0,22.39,22,7.26,7.26,0,0,0,29,14.75Z" style="fill:#fff"/><path d="M21.5,24.5a9,9,0,0,1-8.2-5.29.51.51,0,0,1,0-.48.5.5,0,0,1,.42-.23H18.7a.52.52,0,0,1,.32.11,3.93,3.93,0,0,0,2.48.89,4,4,0,0,0,0-8,3.93,3.93,0,0,0-2.48.89.52.52,0,0,1-.32.11H13.76a.5.5,0,0,1-.42-.23.51.51,0,0,1,0-.48A9,9,0,1,1,21.5,24.5Z" style="fill:#075081"/><path d="M21.5,7a8.5,8.5,0,1,1-7.74,12H18.7a4.5,4.5,0,1,0,0-7H13.76A8.49,8.49,0,0,1,21.5,7m0-1a9.51,9.51,0,0,0-8.65,5.59,1,1,0,0,0,.07.95,1,1,0,0,0,.84.46H18.7a1,1,0,0,0,.63-.22A3.46,3.46,0,0,1,21.5,12a3.5,3.5,0,0,1,0,7,3.46,3.46,0,0,1-2.17-.78A1,1,0,0,0,18.7,18H13.76a1,1,0,0,0-.84.46,1,1,0,0,0-.07.95A9.5,9.5,0,1,0,21.5,6Z" style="fill:#fff"/><path d="M15.5,30.5a9,9,0,1,1,8.2-12.71.51.51,0,0,1,0,.48.5.5,0,0,1-.42.23H18.3a.52.52,0,0,1-.32-.11,3.93,3.93,0,0,0-2.48-.89,4,4,0,0,0,0,8A3.93,3.93,0,0,0,18,24.61a.52.52,0,0,1,.32-.11h4.94a.5.5,0,0,1,.42.23.51.51,0,0,1,0,.48A9,9,0,0,1,15.5,30.5Z" style="fill:#075081"/><path d="M15.5,13a8.49,8.49,0,0,1,7.74,5H18.3a4.5,4.5,0,1,0,0,7h4.94A8.5,8.5,0,1,1,15.5,13m0-1a9.5,9.5,0,1,0,8.65,13.41,1,1,0,0,0-.07-.95,1,1,0,0,0-.84-.46H18.3a1,1,0,0,0-.63.22A3.46,3.46,0,0,1,15.5,25a3.5,3.5,0,0,1,0-7,3.46,3.46,0,0,1,2.17.78,1,1,0,0,0,.63.22h4.94a1,1,0,0,0,.84-.46,1,1,0,0,0,.07-.95A9.51,9.51,0,0,0,15.5,12Z" style="fill:#fff"/></g></svg>