<svg id="_11606_app_copy_2" data-name=" (11606) app copy 2" xmlns="http://www.w3.org/2000/svg" xmlns:xlink="http://www.w3.org/1999/xlink" viewBox="0 0 64 64"><defs><style>.cls-1,.cls-10,.cls-11,.cls-12,.cls-13,.cls-14,.cls-15,.cls-16,.cls-17,.cls-18,.cls-19,.cls-2,.cls-20,.cls-24,.cls-28,.cls-34,.cls-35,.cls-36,.cls-39,.cls-40,.cls-45,.cls-46,.cls-9{fill:none;}.cls-2,.cls-40,.cls-41,.cls-42{stroke:#797979;}.cls-2,.cls-34,.cls-35,.cls-36,.cls-39,.cls-40,.cls-45,.cls-46,.cls-5{stroke-linecap:round;}.cls-2,.cls-36,.cls-39,.cls-40,.cls-45,.cls-46,.cls-5{stroke-linejoin:round;}.cls-3{fill:#323232;}.cls-4{fill:url(#white_front_right);}.cls-36,.cls-5{stroke:#323232;}.cls-5{stroke-width:0.17px;fill:url(#top_white);}.cls-6{fill:#797979;}.cls-7{fill:#82bddb;}.cls-8{clip-path:url(#clip-path);}.cls-10,.cls-11,.cls-12,.cls-13,.cls-14,.cls-15,.cls-16,.cls-17,.cls-18,.cls-19,.cls-20,.cls-30,.cls-9{stroke:#231f20;}.cls-24,.cls-30,.cls-34,.cls-35,.cls-41,.cls-42,.cls-9{stroke-miterlimit:10;}.cls-10,.cls-11,.cls-12,.cls-13,.cls-14,.cls-15,.cls-16,.cls-17,.cls-18,.cls-19,.cls-20,.cls-27,.cls-30,.cls-9{stroke-width:0.19px;}.cls-10{stroke-miterlimit:9.18;}.cls-11{stroke-miterlimit:8.36;}.cls-12{stroke-miterlimit:7.55;}.cls-13{stroke-miterlimit:6.73;}.cls-14{stroke-miterlimit:5.91;}.cls-15{stroke-miterlimit:5.09;}.cls-16{stroke-miterlimit:4.27;}.cls-17{stroke-miterlimit:3.45;}.cls-18{stroke-miterlimit:2.64;}.cls-19{stroke-miterlimit:1.82;}.cls-20,.cls-27,.cls-28{stroke-miterlimit:1;}.cls-21{fill:#ed1c24;}.cls-22{fill:#5a9ab8;}.cls-23{fill:#dc2800;}.cls-24{stroke:#fff;stroke-width:0.1px;}.cls-25{fill:url(#linear-gradient);}.cls-26{clip-path:url(#clip-path-2);}.cls-27,.cls-30{fill:#231f20;}.cls-27,.cls-28,.cls-34,.cls-35{stroke:#000;}.cls-28{stroke-width:0.19px;}.cls-29{clip-path:url(#clip-path-3);}.cls-31{clip-path:url(#clip-path-4);}.cls-32{clip-path:url(#clip-path-5);}.cls-33{clip-path:url(#clip-path-6);}.cls-34{stroke-width:0.57px;}.cls-35{stroke-width:0.99px;}.cls-37{fill:url(#white_front_right-2);}.cls-38{fill:url(#top_white-2);}.cls-39{stroke:#787878;stroke-width:0.43px;}.cls-40{stroke-width:0.28px;}.cls-41{fill:#e1e1e1;}.cls-41,.cls-42{stroke-width:0.71px;}.cls-42{fill:url(#top_white-3);}.cls-43{fill:#fff;}.cls-44{fill:#2d2d2d;}.cls-45{stroke:#dc2800;}.cls-45,.cls-46{stroke-width:1.5px;}.cls-46{stroke:#46a523;}</style><linearGradient id="white_front_right" x1="7.7" y1="30.37" x2="21.02" y2="53.45" gradientUnits="userSpaceOnUse"><stop offset="0" stop-color="#fff"/><stop offset="1" stop-color="#d2d2d2"/></linearGradient><linearGradient id="top_white" x1="22.89" y1="30.18" x2="24.77" y2="33.42" gradientUnits="userSpaceOnUse"><stop offset="0" stop-color="#fff"/><stop offset="1" stop-color="#f0f0f0"/></linearGradient><clipPath id="clip-path"><polygon class="cls-1" points="25.38 21.92 25.38 16.18 30.53 19.17 25.38 21.92"/></clipPath><linearGradient id="linear-gradient" x1="24.83" y1="34.9" x2="38.12" y2="11.9" gradientUnits="userSpaceOnUse"><stop offset="0" stop-color="#dc2800"/><stop offset="0.3" stop-color="#dc2800"/><stop offset="0.3" stop-color="#dd2b04"/><stop offset="0.37" stop-color="#e76b4f"/><stop offset="0.44" stop-color="#ef9f8e"/><stop offset="0.5" stop-color="#f6c9bf"/><stop offset="0.56" stop-color="#fbe6e2"/><stop offset="0.6" stop-color="#fef8f7"/><stop offset="0.63" stop-color="#fff"/><stop offset="1" stop-color="#aadcfa"/></linearGradient><clipPath id="clip-path-2"><path class="cls-1" d="M17.36,30.81,33.7,21.44l-.06,12L17.36,42.85Zm8,4.17a5.19,5.19,0,0,0,2.36-4.07c0-1.5-1.07-2.1-2.37-1.35A5.18,5.18,0,0,0,23,33.63c0,1.5,1.06,2.1,2.36,1.35"/></clipPath><clipPath id="clip-path-3"><polygon class="cls-1" points="38.64 39.84 30.84 35.27 33.89 33.51 33.89 21.44 38.65 24.2 38.64 39.84"/></clipPath><clipPath id="clip-path-4"><path id="_" data-name="**" class="cls-1" d="M38.65,24.18l10.21-6V33.88l-10.23,6Z"/></clipPath><clipPath id="clip-path-5"><polygon class="cls-1" points="17.36 42.85 14.36 40.68 14.36 28.66 17.36 30.81 17.36 42.85"/></clipPath><clipPath id="clip-path-6"><path class="cls-1" d="M35.72,10.51l-10.18,6,4.67,2.75L14,28.66l3.7,2.15,16.15-9.37,4.76,2.74,10.21-6Z"/></clipPath><linearGradient id="white_front_right-2" x1="11.43" y1="36.82" x2="21.03" y2="53.45" xlink:href="#white_front_right"/><linearGradient id="top_white-2" x1="22.89" y1="30.18" x2="24.76" y2="33.42" xlink:href="#top_white"/><linearGradient id="top_white-3" x1="22.65" y1="38.77" x2="28.88" y2="38.77" xlink:href="#top_white"/></defs><title>aaavvv_A33AAe__R21XArtboard 1</title><g id="sujet_copy_2" data-name="sujet copy 2"><path id="CONTOUR" class="cls-2" d="M31.74,29.36l-4.28-2.47L24.3,29V25.06l-4.13-2.47L8.47,29.42l0,19.31,11.64,5.8,11.63-5.87ZM16.65,34v3.42a1.55,1.55,0,0,1-.91-1.62,5.3,5.3,0,0,1,2.4-4.17c.93-.53,1.72-.38,2.13.26Zm9.68,6.66L24,39.28h-.1v-1c0-.85,1.1-1.63,1.81-2,1.16-.67,2.15-.13,2.15,1.2A4.54,4.54,0,0,1,26.33,40.61Z"/><g id="Layer_1_copy_29" data-name="Layer 1 copy 29"><path class="cls-3" d="M12.71,31.81l11.1-6.43v16L12.72,49.11Zm5.22,5.32A5.3,5.3,0,0,0,20.33,33c0-1.53-1.08-2.15-2.41-1.38a5.31,5.31,0,0,0-2.41,4.17c0,1.53,1.09,2.14,2.42,1.38"/><polygon id="int_dessus" data-name="int dessus" class="cls-3" points="16.45 46 12.72 43.84 23.81 39.28 27.53 41.44 16.45 46"/><polygon class="cls-4" points="16.41 33.95 16.45 46 12.72 43.84 12.71 31.82 8.99 29.63 9 48.43 20.13 53.97 20.13 36.11 16.41 33.95"/><polygon id="dessus_1" data-name="dessus 1" class="cls-5" points="20.12 36.11 16.41 33.95 27.53 27.5 31.25 29.67 20.12 36.11"/><path class="cls-6" d="M20.12,36.11l11.13-6.44,0,18.71L20.13,54ZM25.54,41a4.61,4.61,0,0,0,2.09-3.62c0-1.33-.95-1.87-2.1-1.2a4.59,4.59,0,0,0-2.09,3.62c0,1.33.94,1.87,2.1,1.2"/></g><g id="couleur_copy_6" data-name="couleur copy 6"><polygon class="cls-7" points="30.03 34.87 25.36 32.12 25.36 16.47 30.05 19.22 30.03 34.87"/><g id="c1_" data-name="c1    *"><g class="cls-8"><g id="Blend_v" data-name="Blend   v"><line class="cls-9" x1="48.17" y1="13.62" x2="48.17" y2="53.33"/><line class="cls-10" x1="44.94" y1="12.8" x2="44.94" y2="52.51"/><line class="cls-11" x1="41.7" y1="11.98" x2="41.7" y2="51.69"/><line class="cls-12" x1="38.47" y1="11.16" x2="38.47" y2="50.87"/><line class="cls-13" x1="35.24" y1="10.34" x2="35.24" y2="50.05"/><line class="cls-14" x1="32" y1="9.52" x2="32.01" y2="49.23"/><line class="cls-15" x1="28.77" y1="8.7" x2="28.78" y2="48.41"/><line class="cls-16" x1="25.54" y1="7.88" x2="25.54" y2="47.59"/><line class="cls-17" x1="22.31" y1="7.06" x2="22.31" y2="46.76"/><line class="cls-18" x1="19.07" y1="6.24" x2="19.08" y2="45.94"/><line class="cls-19" x1="15.84" y1="5.42" x2="15.85" y2="45.12"/><line class="cls-20" x1="12.61" y1="4.6" x2="12.62" y2="44.3"/></g></g></g><path class="cls-21" d="M17.36,30.81,33.7,21.44l-.06,12L17.36,42.85Zm8,4.17a5.19,5.19,0,0,0,2.36-4.07c0-1.5-1.07-2.1-2.37-1.35A5.18,5.18,0,0,0,23,33.63c0,1.5,1.06,2.1,2.36,1.35"/><polygon class="cls-7" points="38.64 39.84 30.84 35.27 33.89 33.51 33.89 21.44 38.65 24.2 38.64 39.84"/><path id="_2" data-name="**" class="cls-22" d="M38.65,24.18l10.21-6V33.88l-10.23,6Z"/><polygon id="_220_40_0" data-name="220 40 0" class="cls-23" points="17.74 42.85 14.04 40.68 14.04 28.66 17.74 30.81 17.74 42.85"/><path class="cls-24" d="M25.3,35.23a5.32,5.32,0,0,0,2.41-4.16c0-1.53-1.09-2.15-2.42-1.38a5.29,5.29,0,0,0-2.41,4.16c0,1.54,1.09,2.15,2.42,1.38"/><path class="cls-25" d="M35.72,10.51l-10.18,6,4.67,2.75L14,28.66l3.7,2.15,16.15-9.37,4.76,2.74,10.21-6Z"/></g><g class="cls-26"><g id="Blend_h" data-name="Blend  h"><line class="cls-27" x1="41.77" y1="28.37" x2="6.77" y2="47.91"/><line class="cls-27" x1="40.78" y1="25.04" x2="5.95" y2="44.7"/><line class="cls-27" x1="39.78" y1="21.72" x2="5.12" y2="41.49"/></g><line class="cls-28" x1="31.5" y1="18.15" x2="31.5" y2="58.97"/><line class="cls-28" x1="25.06" y1="17.3" x2="25.07" y2="57.94"/><line class="cls-28" x1="28.02" y1="17.3" x2="28.03" y2="57.94"/><line class="cls-28" x1="21.94" y1="16.46" x2="21.96" y2="56.9"/><line class="cls-28" x1="17.92" y1="15.61" x2="17.94" y2="55.87"/></g><g class="cls-29"><g id="Blend_h-2" data-name="Blend  h"><line class="cls-30" x1="46.59" y1="60.85" x2="12.26" y2="39.59"/><line class="cls-30" x1="47.26" y1="57.16" x2="12.92" y2="36.09"/><line class="cls-30" x1="47.93" y1="53.47" x2="13.58" y2="32.58"/><line class="cls-30" x1="48.61" y1="49.78" x2="14.24" y2="29.08"/><line class="cls-30" x1="49.28" y1="46.09" x2="14.9" y2="25.57"/><line class="cls-30" x1="49.95" y1="42.4" x2="15.55" y2="22.07"/><line class="cls-30" x1="50.62" y1="38.71" x2="16.21" y2="18.56"/><line class="cls-30" x1="51.29" y1="35.02" x2="16.87" y2="15.06"/><line class="cls-30" x1="51.96" y1="31.33" x2="17.53" y2="11.55"/></g><line class="cls-13" x1="35.24" y1="10.34" x2="35.24" y2="50.05"/></g><g class="cls-31"><g id="Blend_v-2" data-name="Blend v"><line class="cls-30" x1="25.07" y1="60.6" x2="59.13" y2="40.18"/><line class="cls-30" x1="23.84" y1="57.11" x2="57.91" y2="36.7"/><line class="cls-30" x1="22.62" y1="53.62" x2="56.69" y2="33.22"/><line class="cls-30" x1="21.4" y1="50.13" x2="55.46" y2="29.73"/><line class="cls-30" x1="20.17" y1="46.64" x2="54.24" y2="26.25"/><line class="cls-30" x1="18.95" y1="43.15" x2="53.02" y2="22.77"/><line class="cls-30" x1="17.72" y1="39.66" x2="51.8" y2="19.29"/><line class="cls-30" x1="16.5" y1="36.16" x2="50.57" y2="15.8"/><line class="cls-30" x1="15.28" y1="32.67" x2="49.35" y2="12.32"/></g><g id="Blend_h-3" data-name="Blend  h"><line class="cls-30" x1="38.54" y1="49.62" x2="38.52" y2="9.91"/><line class="cls-30" x1="42.45" y1="48.75" x2="42.42" y2="9.04"/><line class="cls-30" x1="45.57" y1="46.88" x2="45.53" y2="7.17"/><line class="cls-30" x1="49.28" y1="47.01" x2="49.24" y2="7.3"/></g></g><g class="cls-32"><g id="Blend_h-4" data-name="Blend  h"><line class="cls-30" x1="31.2" y1="59.82" x2="-3.12" y2="42.22"/><line class="cls-30" x1="31.56" y1="56.96" x2="-2.8" y2="39.08"/><line class="cls-30" x1="31.92" y1="54.09" x2="-2.48" y2="35.93"/><line class="cls-30" x1="32.28" y1="51.23" x2="-2.15" y2="32.79"/><line class="cls-30" x1="32.64" y1="48.36" x2="-1.83" y2="29.64"/><line class="cls-30" x1="32.99" y1="45.5" x2="-1.5" y2="26.5"/><line class="cls-30" x1="33.35" y1="42.64" x2="-1.18" y2="23.36"/><line class="cls-30" x1="33.71" y1="39.77" x2="-0.85" y2="20.21"/></g><line class="cls-30" x1="15.78" y1="13.76" x2="15.79" y2="53.47"/></g><g class="cls-33"><g id="Blend_v-3" data-name="Blend   v"><line class="cls-30" x1="50.76" y1="13.22" x2="16.48" y2="33.24"/><line class="cls-30" x1="48.13" y1="10.89" x2="13.84" y2="30.91"/><line class="cls-30" x1="45.49" y1="8.56" x2="11.2" y2="28.58"/><line class="cls-30" x1="42.86" y1="6.24" x2="8.57" y2="26.25"/></g><g id="Blend_h-5" data-name="Blend  h"><line class="cls-30" x1="34.49" y1="39.67" x2="-0.27" y2="20.48"/><line class="cls-30" x1="38.81" y1="37.91" x2="4.1" y2="18.63"/><line class="cls-30" x1="42.12" y1="36.16" x2="7.47" y2="16.79"/><line class="cls-30" x1="45.44" y1="34.4" x2="10.83" y2="14.94"/><line class="cls-30" x1="48.75" y1="32.65" x2="14.2" y2="13.09"/><line class="cls-30" x1="51.07" y1="30.89" x2="16.57" y2="11.24"/><line class="cls-30" x1="53.38" y1="28.14" x2="18.94" y2="8.39"/><line class="cls-30" x1="58.7" y1="27.38" x2="24.31" y2="7.54"/><line class="cls-30" x1="62.01" y1="25.63" x2="27.68" y2="5.69"/><line class="cls-30" x1="65.33" y1="23.87" x2="31.05" y2="3.84"/></g></g><path class="cls-34" d="M14,28.66l3.7,2.15,16.15-9.37,4.76,2.74,10.21-6M17.74,42.85v-12L14,28.66m18.22,5.46,1.65-1V21.66M29.7,19.14l-3.47-2"/><path class="cls-35" d="M22.3,45.48m16.17-6.71V24.28"/><path id="contour-2" data-name="contour" class="cls-36" d="M49.09,18.22,35.86,10.36v0l-10,6.09v5l-12,6.94v12.3l3.77,2.17,13.2-7.58,7.81,4.57,10.34-6ZM25.37,35c-1.3.75-2.36.15-2.36-1.35a5.3,5.3,0,0,1,2.49-4.07c.07,0,.36-.07.36-.11v2.67l1.4.93A5.16,5.16,0,0,1,25.37,35Z"/><g id="Layer_1_copy_29-2" data-name="Layer 1 copy 29"><path class="cls-2" d="M27.72,27.85l3.94,1.9,0,18.84"/><path class="cls-6" d="M20.12,36.1l11.13-6.43,0,18.71L20.13,54Zm5.44,5.29A5.28,5.28,0,0,0,28,37.23c0-1.54-1.09-2.15-2.42-1.38A5.31,5.31,0,0,0,23.14,40c0,1.53,1.09,2.15,2.42,1.38"/><polygon class="cls-37" points="16.41 33.95 16.45 46.02 9 48.43 20.13 53.97 20.15 36.11 16.41 33.95"/><polygon id="dessus_1_" data-name="dessus 1  *" class="cls-38" points="20.12 36.1 16.41 33.95 27.53 27.5 31.25 29.67 20.12 36.1"/><polyline class="cls-39" points="20.13 53.97 20.13 36.11 16.41 33.95 16.45 46 12.61 43.94 12.62 31.82 8.99 29.63"/><polyline id="dessus_1_2" data-name="dessus 1  *" class="cls-40" points="16.41 33.95 27.53 27.5 31.25 29.67"/><path class="cls-41" d="M27.16,36.71c1.34-.77,2.43-.15,2.43,1.38a5.34,5.34,0,0,1-2.41,4.17c-1.33.77-2.42.15-2.42-1.38A5.3,5.3,0,0,1,27.16,36.71Z"/><path class="cls-42" d="M26.78,35.27a1.71,1.71,0,0,0-1.72.17,5.34,5.34,0,0,0-2.41,4.17,1.7,1.7,0,0,0,.71,1.54l2.1,1.27a1.67,1.67,0,0,1-.7-1.54,5.3,5.3,0,0,1,2.4-4.17,1.71,1.71,0,0,1,1.72-.17Z"/></g></g><g id="validation_copy_2" data-name="validation copy 2"><path class="cls-43" d="M48.33,21.7h7A1.32,1.32,0,0,1,56.64,23v7a1.33,1.33,0,0,1-1.33,1.33h-7A1.33,1.33,0,0,1,47,30V23A1.33,1.33,0,0,1,48.33,21.7Z"/><path class="cls-44" d="M55.31,22.2a.83.83,0,0,1,.83.82v7a.83.83,0,0,1-.83.82h-7a.82.82,0,0,1-.82-.82V23a.83.83,0,0,1,.83-.82h7m0-1h-7A1.82,1.82,0,0,0,46.5,23v7a1.81,1.81,0,0,0,1.82,1.82h7A1.82,1.82,0,0,0,57.14,30V23a1.82,1.82,0,0,0-1.83-1.82Z"/><path class="cls-43" d="M48.33,9.83h7a1.32,1.32,0,0,1,1.32,1.32v7a1.33,1.33,0,0,1-1.33,1.33h-7A1.33,1.33,0,0,1,47,18.13v-7A1.33,1.33,0,0,1,48.33,9.83Z"/><path class="cls-44" d="M55.31,10.33a.83.83,0,0,1,.83.82v7a.83.83,0,0,1-.83.83h-7a.83.83,0,0,1-.82-.83v-7a.83.83,0,0,1,.83-.82h7m0-1h-7a1.83,1.83,0,0,0-1.83,1.82v7A1.82,1.82,0,0,0,48.33,20h7a1.83,1.83,0,0,0,1.83-1.83v-7a1.83,1.83,0,0,0-1.83-1.82Z"/><path class="cls-43" d="M48.33,43.21A1.33,1.33,0,0,1,47,41.88v-7a1.34,1.34,0,0,1,1.33-1.33h7a1.34,1.34,0,0,1,1.33,1.33v7a1.34,1.34,0,0,1-1.33,1.33Z"/><path class="cls-44" d="M55.31,34.06a.83.83,0,0,1,.83.83v7a.83.83,0,0,1-.83.83h-7a.83.83,0,0,1-.82-.83v-7a.83.83,0,0,1,.83-.83h7m0-1h-7a1.83,1.83,0,0,0-1.83,1.83v7a1.82,1.82,0,0,0,1.82,1.83h7a1.83,1.83,0,0,0,1.83-1.83v-7a1.83,1.83,0,0,0-1.83-1.83Z"/><line class="cls-45" x1="49.66" y1="24.35" x2="53.98" y2="28.67"/><line class="cls-45" x1="53.98" y1="24.35" x2="49.66" y2="28.67"/><polyline class="cls-46" points="49.66 13.57 52.34 16.44 57.23 11.37"/></g></svg>