<svg id="SIMULIA_socle_copy" data-name="SIMULIA socle ***** copy" xmlns="http://www.w3.org/2000/svg" xmlns:xlink="http://www.w3.org/1999/xlink" viewBox="0 0 64 64"><defs><style>.cls-1{stroke:#787878;stroke-linejoin:round;fill:url(#linear-gradient);}.cls-1,.cls-5{stroke-linecap:round;}.cls-2{fill:#ff0f0f;}.cls-3{fill:#787878;}.cls-4{fill:#797979;}.cls-5{fill:none;stroke:#000;stroke-miterlimit:10;stroke-width:0.25px;}.cls-6{fill:url(#linear-gradient-2);}.cls-7{fill:url(#linear-gradient-3);}</style><linearGradient id="linear-gradient" x1="11.07" y1="36.14" x2="54.25" y2="42.21" gradientUnits="userSpaceOnUse"><stop offset="0" stop-color="#0028ca"/><stop offset="0.06" stop-color="#0a3bac"/><stop offset="0.24" stop-color="#256f5d"/><stop offset="0.37" stop-color="#368f2c"/><stop offset="0.44" stop-color="#3c9b19"/><stop offset="0.5" stop-color="#61af14"/><stop offset="0.6" stop-color="#9ed10b"/><stop offset="0.7" stop-color="#cbea05"/><stop offset="0.77" stop-color="#e7f901"/><stop offset="0.81" stop-color="#f1ff00"/><stop offset="0.81" stop-color="#f1fa00"/><stop offset="0.84" stop-color="#f5b900"/><stop offset="0.87" stop-color="#f88000"/><stop offset="0.9" stop-color="#fa5200"/><stop offset="0.93" stop-color="#fc2f00"/><stop offset="0.96" stop-color="#fe1500"/><stop offset="0.98" stop-color="#ff0500"/><stop offset="1" stop-color="red"/></linearGradient><linearGradient id="linear-gradient-2" x1="37.14" y1="16.07" x2="43.43" y2="26.96" gradientUnits="userSpaceOnUse"><stop offset="0" stop-color="#3287af"/><stop offset="1" stop-color="#285a78"/></linearGradient><linearGradient id="linear-gradient-3" x1="47.05" y1="11.69" x2="53.53" y2="22.91" xlink:href="#linear-gradient-2"/></defs><title>aaavvv_A33AAe__R21XArtboard 1</title><g id="NEW_VERSION_ok_64_copy" data-name="NEW VERSION  ok ***  64 copy"><g id="MODELE_copy" data-name="MODELE copy"><g id="Layer_46_copy_8" data-name="Layer 46 copy 8"><path id="N1" class="cls-1" d="M54,25.59l-2-1.35a.93.93,0,0,0-.76-.13L41.9,26.59,17.31,44.39l-7.1,1.9a.92.92,0,0,0-.68.88l0,4.59a.93.93,0,0,0,.4.76l1.9,1.28a1.85,1.85,0,0,0,1.5.26l6.41-1.73,32.84-6.61A1.63,1.63,0,0,0,54,44.15V41l-3.72.58A1.56,1.56,0,0,1,48.43,40l.33-8.49,4-.67a1.36,1.36,0,0,0,1.14-1.34l0-3.87h0"/><path class="cls-2" d="M54,41l-3.72.58A1.56,1.56,0,0,1,48.42,40V39.7l2.63-.23Z"/><path class="cls-3" d="M51,39.72,53.33,41l-3.14.38a.86.86,0,0,1-.22,0,1.61,1.61,0,0,1-1.14-.49,1.26,1.26,0,0,1-.37-.92v0L51,39.72m.06-.25-2.83.23V40A1.73,1.73,0,0,0,50,41.62l.26,0L54,41.15V41L51,39.47Z"/><path class="cls-3" d="M44.61,31.62h0a.7.7,0,0,1,.5.21.65.65,0,0,1,.18.5L45,42.2a.68.68,0,0,1-.6.66L27,46.25h-.1A.69.69,0,0,1,26.52,45l17.7-13.26a.69.69,0,0,1,.39-.12m0-.23a.91.91,0,0,0-.52.16L26.38,44.82a.92.92,0,0,0,.51,1.67H27l17.39-3.39a.91.91,0,0,0,.79-.88l.32-9.88a.91.91,0,0,0-.91-.94Z"/><g id="o"><path class="cls-4" d="M43.42,32.51a.67.67,0,0,1,.5.21.65.65,0,0,1,.19.5l-.28,8.6a.69.69,0,0,1-.61.66L28.1,45.56H28a.68.68,0,0,1-.37-1.25L43,32.63a.71.71,0,0,1,.39-.12m0-.23a1,1,0,0,0-.52.16L27.49,44.12a.91.91,0,0,0,.5,1.67h.14L43.27,42.7a.92.92,0,0,0,.79-.88l.28-8.6a.91.91,0,0,0-.92-.94Z"/></g><path class="cls-3" d="M51.61,24.27l1.78,1.23L44,28.26h-.05l0,0L19.59,45.93l-6.82,1.84-.17,0a.72.72,0,0,1-.32-.08l-1.63-.91a.19.19,0,0,1-.1-.21.18.18,0,0,1,.15-.17l6.69-1.79h0l0,0L42,26.82l9.59-2.55m0-.27-9.75,2.59L17.32,44.39l-6.69,1.79a.46.46,0,0,0-.1.84l1.63.9a.86.86,0,0,0,.44.12,1,1,0,0,0,.24,0l6.86-1.85L44,28.5,54,25.59,51.66,24Z"/></g><g id="gris_contour" data-name="gris   contour"><path class="cls-3" d="M51.47,24.33a.7.7,0,0,1,.37.11l1.87,1.28,0,3.74a1.13,1.13,0,0,1-.93,1.1l-4,.67-.2,0v.2l-.32,8.23,0,.28.29,0L51,39.73l2.7,1.44v3a1.39,1.39,0,0,1-1.22,1.33l-32.86,6.6-6.41,1.73a1.4,1.4,0,0,1-.41.06,1.52,1.52,0,0,1-.88-.27L10,52.32a.7.7,0,0,1-.29-.56l0-4.59a.67.67,0,0,1,.49-.64l7.11-1.9h0l0,0L42,26.82l9.29-2.47a.47.47,0,0,1,.17,0h0m0-.25a1,1,0,0,0-.24,0L41.9,26.59,17.31,44.39l-7.1,1.9a.92.92,0,0,0-.68.88l0,4.59a.93.93,0,0,0,.4.76l1.9,1.28a1.79,1.79,0,0,0,1,.32,2,2,0,0,0,.48-.06l6.41-1.73,32.84-6.61A1.63,1.63,0,0,0,54,44.15V41l-2.89-1.55-2.62.23.32-8.23,4-.67a1.36,1.36,0,0,0,1.14-1.34l0-3.87-2-1.35a.91.91,0,0,0-.52-.16Z"/></g><path id="base_noir" data-name="base noir" class="cls-5" d="M9.89,52.36l1.9,1.29a1.81,1.81,0,0,0,1.48.28L19.7,52.2l33.07-6.64"/></g><g id="FLeches_" data-name="FLeches    **"><polygon class="cls-6" points="41 22 41 14.99 39 14.99 39 22 36.09 22 40.08 28.9 44.07 22 41 22"/><polygon class="cls-7" points="51 18 51 10.56 49 10.56 49 18 46.09 18 50.08 24.9 54.07 18 51 18"/></g></g></svg>