<svg id="Layer_2_copy" data-name="Layer 2 copy" xmlns="http://www.w3.org/2000/svg" xmlns:xlink="http://www.w3.org/1999/xlink" viewBox="0 0 64 64"><defs><style>.cls-1,.cls-2,.cls-3,.cls-4,.cls-5{stroke:#00415f;stroke-linecap:round;stroke-linejoin:round;}.cls-1{fill:url(#linear-gradient);}.cls-2{fill:url(#linear-gradient-2);}.cls-3{fill:url(#linear-gradient-3);}.cls-4{fill:url(#linear-gradient-4);}.cls-5{fill:url(#linear-gradient-5);}.cls-6,.cls-7,.cls-8,.cls-9{stroke:#000;stroke-miterlimit:10;}.cls-6{fill:url(#white_left);}.cls-7{fill:url(#white_left-2);}.cls-8{fill:url(#white_left-3);}.cls-9{fill:url(#white_left-4);}</style><linearGradient id="linear-gradient" x1="58.15" y1="53.17" x2="52.57" y2="46.03" gradientUnits="userSpaceOnUse"><stop offset="0" stop-color="#285a78"/><stop offset="1" stop-color="#82bedc"/></linearGradient><linearGradient id="linear-gradient-2" x1="36.15" y1="53.17" x2="30.57" y2="46.03" xlink:href="#linear-gradient"/><linearGradient id="linear-gradient-3" x1="36.15" y1="37.17" x2="30.57" y2="30.03" xlink:href="#linear-gradient"/><linearGradient id="linear-gradient-4" x1="36.15" y1="21.17" x2="30.57" y2="14.03" xlink:href="#linear-gradient"/><linearGradient id="linear-gradient-5" x1="13.15" y1="21.17" x2="7.57" y2="14.03" xlink:href="#linear-gradient"/><linearGradient id="white_left" x1="39.58" y1="25.38" x2="57.55" y2="25.38" gradientUnits="userSpaceOnUse"><stop offset="0" stop-color="#f5f5f5"/><stop offset="1" stop-color="#bebebe"/></linearGradient><linearGradient id="white_left-2" x1="67.71" y1="41.38" x2="85.55" y2="41.38" gradientTransform="matrix(-1, 0, 0, 1, 93.13, 0)" xlink:href="#white_left"/><linearGradient id="white_left-3" x1="16.5" y1="16.63" x2="25.42" y2="16.63" xlink:href="#white_left"/><linearGradient id="white_left-4" x1="38.58" y1="48.63" x2="47.5" y2="48.63" xlink:href="#white_left"/></defs><title>2511__A33AAe__R21XArtboard 1</title><rect class="cls-1" x="50.5" y="44.5" width="8" height="8"/><rect class="cls-2" x="28.5" y="44.5" width="8" height="8"/><rect class="cls-3" x="28.5" y="28.5" width="8" height="8"/><rect class="cls-4" x="28.5" y="12.5" width="8" height="8"/><rect class="cls-5" x="5.5" y="12.5" width="8" height="8"/><g id="FL_ronde" data-name="FL ronde"><path class="cls-6" d="M45.63,12.5H40.5v5h5.13c4.25,0,7.24,2,7.24,6.5s-3,6.5-7.24,6.5H45.5V28l-5.92,4.63,5.92,5.62V35.5h.13c9.25,0,11.92-4.92,11.92-11.5S52.21,12.5,45.63,12.5Z"/><path class="cls-7" d="M19.5,28.5h5v5h-5c-4.25,0-7.24,2-7.24,6.5s3,6.5,7.24,6.5h0V44l5.92,4.63L19.5,54.25V51.5h0C10.25,51.5,7.58,46.58,7.58,40S12.93,28.5,19.5,28.5Z"/></g><polygon class="cls-8" points="19.5 21.25 25.42 16.63 19.5 12 19.5 14.5 16.5 14.5 16.5 18.5 19.5 18.5 19.5 21.25"/><polygon class="cls-9" points="44.5 53.25 38.58 48.63 44.5 44 44.5 46.5 47.5 46.5 47.5 50.5 44.5 50.5 44.5 53.25"/></svg>