<svg xmlns="http://www.w3.org/2000/svg" xmlns:xlink="http://www.w3.org/1999/xlink" viewBox="0 0 64 64"><defs><linearGradient id="linear-gradient" x1="24.67" y1="42.38" x2="28.51" y2="42.38" gradientUnits="userSpaceOnUse"><stop offset="0.01" stop-color="#323232"/><stop offset="0.05" stop-color="#3d3d3d"/><stop offset="0.12" stop-color="#5a5a5a"/><stop offset="0.22" stop-color="#898989"/><stop offset="0.33" stop-color="#cacaca"/><stop offset="0.37" stop-color="#e1e1e1"/><stop offset="0.41" stop-color="#ccc"/><stop offset="0.5" stop-color="#9d9d9d"/><stop offset="0.58" stop-color="#777"/><stop offset="0.67" stop-color="#595959"/><stop offset="0.75" stop-color="#434343"/><stop offset="0.84" stop-color="#363636"/><stop offset="0.91" stop-color="#323232"/></linearGradient><linearGradient id="white_left" x1="21.63" y1="44.47" x2="26.61" y2="44.47" gradientUnits="userSpaceOnUse"><stop offset="0" stop-color="#f5f5f5"/><stop offset="1" stop-color="#bebebe"/></linearGradient><linearGradient id="top_white" x1="21.65" y1="38.2" x2="42.85" y2="38.2" gradientUnits="userSpaceOnUse"><stop offset="0" stop-color="#fff"/><stop offset="1" stop-color="#f0f0f0"/></linearGradient><linearGradient id="white_left-2" x1="26.67" y1="49.15" x2="34.2" y2="49.15" xlink:href="#white_left"/><linearGradient id="linear-gradient-2" x1="48.64" y1="43.46" x2="52.45" y2="43.46" xlink:href="#linear-gradient"/><linearGradient id="white_left-3" x1="34.78" y1="48.4" x2="38.61" y2="55.03" xlink:href="#white_left"/><linearGradient id="top_white-2" x1="34.22" y1="45.45" x2="55.43" y2="45.45" xlink:href="#top_white"/><linearGradient id="linear-gradient-3" x1="48.87" y1="40.31" x2="52.26" y2="40.31" gradientUnits="userSpaceOnUse"><stop offset="0" stop-color="#fff"/><stop offset="0.6" stop-color="#323232"/><stop offset="1" stop-color="#e1e1e1"/></linearGradient><linearGradient id="linear-gradient-4" x1="24.89" y1="39.31" x2="28.27" y2="39.31" xlink:href="#linear-gradient-3"/><linearGradient id="linear-gradient-5" x1="35.54" y1="35.58" x2="43.07" y2="32.84" gradientUnits="userSpaceOnUse"><stop offset="0" stop-color="#82bedc"/><stop offset="0.73" stop-color="#285a78"/><stop offset="1" stop-color="#82bedc"/></linearGradient><linearGradient id="linear-gradient-6" x1="36.42" y1="35.4" x2="42.27" y2="32.02" gradientUnits="userSpaceOnUse"><stop offset="0" stop-color="#82bedc"/><stop offset="0.67" stop-color="#285a78"/><stop offset="1" stop-color="#82bedc"/></linearGradient><linearGradient id="linear-gradient-7" x1="37.25" y1="33.74" x2="41.44" y2="32.22" gradientUnits="userSpaceOnUse"><stop offset="0" stop-color="#82bedc"/><stop offset="0.73" stop-color="#285a78"/><stop offset="1" stop-color="#82bedc"/></linearGradient><linearGradient id="linear-gradient-8" x1="37.39" y1="28.8" x2="41.29" y2="28.8" gradientUnits="userSpaceOnUse"><stop offset="0" stop-color="#82bedc"/><stop offset="0.81" stop-color="#285a78"/><stop offset="1" stop-color="#82bedc"/></linearGradient><linearGradient id="linear-gradient-9" x1="48.75" y1="32.46" x2="52.14" y2="32.46" xlink:href="#linear-gradient-3"/><linearGradient id="linear-gradient-10" x1="24.89" y1="31.67" x2="28.27" y2="31.67" xlink:href="#linear-gradient-3"/><linearGradient id="linear-gradient-11" x1="48.75" y1="24.35" x2="52.14" y2="24.35" gradientUnits="userSpaceOnUse"><stop offset="0" stop-color="#fff"/><stop offset="0.6" stop-color="#797979"/><stop offset="1" stop-color="#e1e1e1"/></linearGradient><linearGradient id="linear-gradient-12" x1="24.89" y1="24.08" x2="28.27" y2="24.08" xlink:href="#linear-gradient-11"/><clipPath id="clip-path"><polygon points="29.7 34.37 26.53 35.8 23.7 34.52 23.5 27.77 30.21 27.06 29.7 34.37" fill="none"/></clipPath><clipPath id="clip-path-2"><polygon points="54.18 35.25 50.09 36.28 47.18 35.4 47.18 27.35 54.18 27.35 54.18 35.25" fill="none"/></clipPath><linearGradient id="top_white-3" x1="34.64" y1="9.34" x2="44.42" y2="26.29" xlink:href="#top_white"/><linearGradient id="top_white-4" x1="21.2" y1="17.82" x2="57.86" y2="17.82" xlink:href="#top_white"/><linearGradient id="top_white-5" x1="23.87" y1="17.35" x2="55.19" y2="17.35" xlink:href="#top_white"/><linearGradient id="linear-gradient-13" x1="11.03" y1="22.69" x2="27.75" y2="51.66" gradientUnits="userSpaceOnUse"><stop offset="0" stop-color="#f5f6f6"/><stop offset="0.99" stop-color="#d2d3d3"/></linearGradient><linearGradient id="linear-gradient-14" x1="10.91" y1="43.75" x2="14.23" y2="49.5" gradientUnits="userSpaceOnUse"><stop offset="0" stop-color="#fff"/><stop offset="1" stop-color="#d2d3d3"/></linearGradient><linearGradient id="linear-gradient-15" x1="9.75" y1="33.75" x2="15.46" y2="39.46" gradientUnits="userSpaceOnUse"><stop offset="0" stop-color="#fa3c05"/><stop offset="1" stop-color="#c81400"/></linearGradient><linearGradient id="linear-gradient-16" x1="11.97" y1="24.93" x2="13.65" y2="27.84" gradientUnits="userSpaceOnUse"><stop offset="0" stop-color="#55b432"/><stop offset="1" stop-color="#379614"/></linearGradient><linearGradient id="linear-gradient-17" x1="11.47" y1="24.06" x2="14.15" y2="28.7" gradientUnits="userSpaceOnUse"><stop offset="0" stop-color="#3c9b19"/><stop offset="0.99" stop-color="#28780a"/></linearGradient></defs><title>SIMVRC_AP_AppIcon</title><g id="Layer_3" data-name="Layer 3"><g id="g1_" data-name="g1  **"><path d="M28.47,41.38l0,3.11a1,1,0,0,0-.56-.78,3,3,0,0,0-2.7,0,.94.94,0,0,0-.56.77c0-1.8,0-1.3,0-3.11a.93.93,0,0,1,.55-.77,3,3,0,0,1,2.69,0A.92.92,0,0,1,28.47,41.38Z" stroke="#797979" stroke-miterlimit="10" stroke-width="0.08" fill="url(#linear-gradient)"/><polygon points="26.61 44.35 26.6 47.45 21.63 44.59 21.65 41.49 26.61 44.35" stroke="#797979" stroke-miterlimit="10" stroke-width="0.07" fill="url(#white_left)"/><polygon points="42.85 34.91 42.84 38.02 26.6 47.45 26.61 44.35 42.85 34.91" fill="#323232"/><path d="M37.89,32.05l5,2.87L26.61,44.35l-5-2.86ZM25.23,42.38a3,3,0,0,0,2.69,0,.82.82,0,0,0,0-1.56,3,3,0,0,0-2.69,0,.82.82,0,0,0,0,1.56" stroke="#797979" stroke-linecap="round" stroke-linejoin="round" stroke-width="0.07" fill="url(#top_white)"/></g><polygon points="50.52 41.33 50.51 42.34 34.2 51.82 34.2 50.81 50.52 41.33" fill="#285977"/><polygon points="34.2 50.79 34.2 51.82 26.67 47.39 26.68 46.47 34.2 50.79" stroke="#797979" stroke-miterlimit="10" stroke-width="0.07" fill="url(#white_left-2)"/><path d="M50.36,41.42,34.2,50.8l-7.52-4.33,16.17-9.39Z" fill="#797979"/><g id="d1_" data-name="d1   ***"><path d="M51.89,41.63a3,3,0,0,0-2.7,0,1,1,0,0,0-.55.77v3.2a.94.94,0,0,1,.55-.78,3,3,0,0,1,2.68,0,1,1,0,0,1,.56.79V42.42A1,1,0,0,0,51.89,41.63Z" stroke="#797979" stroke-miterlimit="10" stroke-width="0.08" fill="url(#linear-gradient-2)"/><polygon points="39.19 51.6 39.18 54.7 34.2 51.83 34.22 48.73 39.19 51.6" stroke="#797979" stroke-miterlimit="10" stroke-width="0.07" fill="url(#white_left-3)"/><polygon points="55.43 42.17 55.42 45.27 39.18 54.7 39.19 51.6 55.43 42.17" fill="#323232"/><path d="M50.46,39.3l5,2.87L39.19,51.6l-5-2.87Zm1.43,2.36a3,3,0,0,0-2.7,0,.82.82,0,0,0,0,1.56,3,3,0,0,0,2.7,0,.82.82,0,0,0,0-1.56" stroke="#797979" stroke-linecap="round" stroke-linejoin="round" stroke-width="0.07" fill="url(#top_white-2)"/></g><g id="dessous"><g style="isolation:isolate"><path d="M51.77,38a2.61,2.61,0,0,1-2.37,0,.85.85,0,0,1-.5-.69c0,3.47,0,1.59,0,5.06a.83.83,0,0,0,.5.69,2.63,2.63,0,0,0,2.38,0,.83.83,0,0,0,.48-.68l0-5.06A.83.83,0,0,1,51.77,38Z" stroke="#797979" stroke-miterlimit="10" stroke-width="0.25" fill="url(#linear-gradient-3)"/><path d="M49.4,38a.73.73,0,0,1,0-1.38,2.69,2.69,0,0,1,2.38,0,.73.73,0,0,1,0,1.38A2.61,2.61,0,0,1,49.4,38Z" fill="#323232"/></g><g style="isolation:isolate"><path d="M28.27,36.09c0,3.47,0,2,0,5.47a.84.84,0,0,1-.48.69,2.63,2.63,0,0,1-2.38,0,.84.84,0,0,1-.49-.69c0-3.47,0-2,0-5.48a.85.85,0,0,0,.5.69,2.61,2.61,0,0,0,2.37,0A.81.81,0,0,0,28.27,36.09Z" stroke="#797979" stroke-miterlimit="10" stroke-width="0.25" fill="url(#linear-gradient-4)"/><path d="M27.78,35.4a.72.72,0,0,1,0,1.37,2.61,2.61,0,0,1-2.37,0,.72.72,0,0,1,0-1.37A2.63,2.63,0,0,1,27.78,35.4Zm-2.26,1.31" fill="#323232"/></g></g><g id="VIS_G_" data-name="VIS  G  ***"><path d="M28.18,34a.84.84,0,0,1-.34.77,2.64,2.64,0,0,1-2.33.48c-.44-.15-.65-.42-.63-.73" fill="none" stroke="#000" stroke-linecap="round" stroke-miterlimit="10" stroke-width="0.29"/><path d="M28.18,35a.83.83,0,0,1-.34.77,2.6,2.6,0,0,1-2.33.48c-.43-.14-.65-.42-.63-.73" fill="none" stroke="#000" stroke-linecap="round" stroke-miterlimit="10" stroke-width="0.29"/><path d="M28.18,36.06a.84.84,0,0,1-.34.77,2.61,2.61,0,0,1-2.32.48c-.44-.15-.66-.43-.64-.73" fill="none" stroke="#000" stroke-linecap="round" stroke-miterlimit="10" stroke-width="0.29"/><path d="M28.18,37.09a.82.82,0,0,1-.34.77,2.61,2.61,0,0,1-2.32.48c-.44-.14-.66-.42-.64-.73" fill="none" stroke="#000" stroke-linecap="round" stroke-miterlimit="10" stroke-width="0.29"/><path d="M28.18,38.12a.82.82,0,0,1-.33.77,2.6,2.6,0,0,1-2.33.48c-.43-.14-.65-.42-.64-.73" fill="none" stroke="#000" stroke-linecap="round" stroke-miterlimit="10" stroke-width="0.29"/><path d="M28.18,39.16a.83.83,0,0,1-.33.77,2.61,2.61,0,0,1-2.32.48c-.44-.15-.66-.42-.65-.73" fill="none" stroke="#000" stroke-linecap="round" stroke-miterlimit="10" stroke-width="0.29"/><path d="M28.18,40.19a.83.83,0,0,1-.33.77,2.58,2.58,0,0,1-2.32.48c-.44-.14-.66-.42-.65-.73" fill="none" stroke="#000" stroke-linecap="round" stroke-miterlimit="10" stroke-width="0.29"/><path d="M28.18,41.22a.84.84,0,0,1-.33.78,2.63,2.63,0,0,1-2.32.48c-.44-.15-.66-.43-.64-.74" fill="none" stroke="#000" stroke-linecap="round" stroke-miterlimit="10" stroke-width="0.29"/></g><g id="VIS_D_" data-name="VIS  D  ***"><path d="M52.22,34.64a.84.84,0,0,1-.34.77,2.67,2.67,0,0,1-2.33.48c-.44-.15-.65-.43-.63-.73" fill="none" stroke="#000" stroke-linecap="round" stroke-miterlimit="10" stroke-width="0.29"/><path d="M52.22,35.68a.85.85,0,0,1-.34.78,2.63,2.63,0,0,1-2.33.47c-.43-.14-.65-.42-.63-.73" fill="none" stroke="#000" stroke-linecap="round" stroke-miterlimit="10" stroke-width="0.29"/><path d="M52.22,36.73a.83.83,0,0,1-.34.77,2.6,2.6,0,0,1-2.33.48c-.43-.14-.65-.42-.63-.73" fill="none" stroke="#000" stroke-linecap="round" stroke-miterlimit="10" stroke-width="0.29"/><path d="M52.22,37.78a.84.84,0,0,1-.34.77,2.61,2.61,0,0,1-2.32.48c-.44-.14-.66-.42-.64-.73" fill="none" stroke="#000" stroke-linecap="round" stroke-miterlimit="10" stroke-width="0.29"/><path d="M52.22,38.83a.83.83,0,0,1-.33.77,2.63,2.63,0,0,1-2.33.48c-.44-.15-.66-.42-.64-.73" fill="none" stroke="#000" stroke-linecap="round" stroke-miterlimit="10" stroke-width="0.29"/><path d="M52.22,39.88a.83.83,0,0,1-.33.77,2.63,2.63,0,0,1-2.33.48c-.43-.15-.65-.43-.64-.73" fill="none" stroke="#000" stroke-linecap="round" stroke-miterlimit="10" stroke-width="0.29"/><path d="M52.22,40.92a.84.84,0,0,1-.33.78,2.64,2.64,0,0,1-2.32.48c-.44-.15-.66-.43-.65-.73" fill="none" stroke="#000" stroke-linecap="round" stroke-miterlimit="10" stroke-width="0.29"/><path d="M52.22,42a.82.82,0,0,1-.33.77,2.58,2.58,0,0,1-2.32.48c-.44-.14-.66-.42-.65-.73" fill="none" stroke="#000" stroke-linecap="round" stroke-miterlimit="10" stroke-width="0.29"/></g><g id="trou" style="isolation:isolate"><path d="M49.31,35.48a.81.81,0,0,0-.47.67V35.06a.83.83,0,0,1,.48-.67,2.56,2.56,0,0,1,2.32,0,.94.94,0,0,1,.45.49V36h0a.94.94,0,0,0-.45-.49A2.58,2.58,0,0,0,49.31,35.48Z" fill="#285977"/><path d="M25.42,34.81a.8.8,0,0,0-.48.67V34.39a.83.83,0,0,1,.47-.67,2.58,2.58,0,0,1,2.33,0,1,1,0,0,1,.45.49c0,.36,0,.67,0,1.09h0a1,1,0,0,0-.46-.49A2.56,2.56,0,0,0,25.42,34.81Z" fill="#285977"/></g><g id="contour"><polygon points="55.5 35.08 55.49 36.16 39.18 45.64 39.18 44.55 55.5 35.08" fill="#285977"/><polygon points="39.18 44.55 39.18 45.64 21.56 35.47 21.56 34.39 39.18 44.55" fill="#5a9ab8"/></g><path d="M37.88,25,55.34,35.08,39.18,44.46,21.72,34.39ZM25.44,35.07a2.56,2.56,0,0,0,2.32,0c.64-.37.63-1,0-1.34a2.53,2.53,0,0,0-2.32,0,.71.71,0,0,0,0,1.34m26.21-.67a2.5,2.5,0,0,0-2.32,0,.71.71,0,0,0,0,1.34,2.58,2.58,0,0,0,2.33,0c.64-.37.63-1,0-1.34" fill="#aadcfa" stroke="#aadcfa" stroke-miterlimit="10" stroke-width="0.14"/><path d="M43.45,34.59a1.55,1.55,0,0,0,0-.21,2.58,2.58,0,0,0-1.35-2.11h0a4,4,0,0,0-.69-.33s-.09,0-.09-.05h0V23.94h-4v8c0,.09-.47.19-.7.32a2.56,2.56,0,0,0-1.46,2.19c0,.08,0,.36,0,.43a2.19,2.19,0,0,0,.6,1.49,5.16,5.16,0,0,0,4.88,1.17c.28-.05,2.75-.6,2.81-2.69A.78.78,0,0,0,43.45,34.59Z" fill="none" stroke="#003755" stroke-miterlimit="10"/><g id="éééé"><path d="M42.34,33.15a6.44,6.44,0,0,0-5.86-.06,2.11,2.11,0,0,0-1.28,1.74,2.24,2.24,0,0,0,.6,1.49,5.17,5.17,0,0,0,4.88,1.17c.28-.05,2.75-.6,2.81-2.69A2,2,0,0,0,42.34,33.15Z" fill="#285977"/><path d="M36.67,32.21a5.92,5.92,0,0,1,5.46.06.26.26,0,0,0-.12-.05,5.77,5.77,0,0,0-5.23,0c-1.47.82-1.52,2.17-.1,3a5.75,5.75,0,0,0,5.22.06c1.47-.82,1.52-2.18.11-3a.35.35,0,0,1,.13.05,2.58,2.58,0,0,1,1.35,2.11,2.12,2.12,0,0,1-1.28,1.74,6.47,6.47,0,0,1-5.86-.06A2,2,0,0,1,35.2,34.4,2.59,2.59,0,0,1,36.67,32.21Z" fill="url(#linear-gradient-5)"/><g id="sssssss"><path d="M42,32.22a4.06,4.06,0,0,0-1-.42.69.69,0,0,1,.18.36c.7.53.61,1.3-.25,1.77a2.09,2.09,0,0,1-.37.17,4.76,4.76,0,0,1-2.46,0,2,2,0,0,1-.44-.21c-.8-.48-.85-1.21-.19-1.73a.24.24,0,0,0,0-.08v0a.36.36,0,0,1,0-.09h0a.41.41,0,0,1,0-.09h0a.18.18,0,0,1,.05-.07,4.75,4.75,0,0,0-.89.37c-1.47.82-1.52,2.17-.1,3a5.75,5.75,0,0,0,5.22.06C43.37,34.43,43.42,33.07,42,32.22Z" fill="url(#linear-gradient-6)"/></g><path d="M41,32,40.88,32h0c.27.17.31.27.31.29a.93.93,0,0,1-.57.78A2.89,2.89,0,0,1,38,33a.93.93,0,0,1-.52-.75.49.49,0,0,1,.18-.2l.12-.08.07,0h0l-.1,0A1.19,1.19,0,0,0,37,33a1.14,1.14,0,0,0,.65.93,3.59,3.59,0,0,0,3.27,0,1.17,1.17,0,0,0,.72-1A1.15,1.15,0,0,0,41,32Z" fill="url(#linear-gradient-7)"/></g><path d="M41.28,32.08s.23,1.29-2,1.29-1.9-1.29-1.9-1.29V24.24h3.89Z" fill="url(#linear-gradient-8)"/><g id="PILE_1" data-name="PILE 1"><g id="dessous-2" data-name="dessous"><g style="isolation:isolate"><path d="M51.65,29.42a2.63,2.63,0,0,1-2.38,0,.85.85,0,0,1-.49-.7c0,3.47,0,3,0,6.49a.83.83,0,0,0,.49.69,2.63,2.63,0,0,0,2.38,0,.83.83,0,0,0,.49-.68l0-6.49A.81.81,0,0,1,51.65,29.42Z" stroke="#797979" stroke-miterlimit="10" stroke-width="0.25" fill="url(#linear-gradient-9)"/><path d="M49.27,29.43a.73.73,0,0,1,0-1.38,2.61,2.61,0,0,1,2.37,0c.66.38.67,1,0,1.37A2.63,2.63,0,0,1,49.27,29.43Z" fill="#323232"/></g><g style="isolation:isolate"><path d="M28.27,28c0,3.46,0,3,0,6.47a.83.83,0,0,1-.48.68,2.63,2.63,0,0,1-2.38,0,.83.83,0,0,1-.49-.69c0-3.47,0-3,0-6.47a.85.85,0,0,0,.5.69,2.61,2.61,0,0,0,2.37,0A.83.83,0,0,0,28.27,28Z" stroke="#797979" stroke-miterlimit="10" stroke-width="0.25" fill="url(#linear-gradient-10)"/><path d="M27.78,27.26a.73.73,0,0,1,0,1.38,2.61,2.61,0,0,1-2.37,0,.73.73,0,0,1,0-1.38A2.63,2.63,0,0,1,27.78,27.26Zm-2.26,1.31" fill="#323232"/></g></g><g id="L2_Lisse" data-name="L2 Lisse" style="isolation:isolate"><path d="M51.65,19.3a2.63,2.63,0,0,1-2.38,0,.83.83,0,0,1-.49-.69c0,3.47,0,7,0,10.51a.83.83,0,0,0,.49.69,2.63,2.63,0,0,0,2.38,0,.83.83,0,0,0,.49-.68l0-10.51A.82.82,0,0,1,51.65,19.3Z" stroke="#797979" stroke-miterlimit="10" stroke-width="0.25" fill="url(#linear-gradient-11)"/><path d="M49.27,19.3a.73.73,0,0,1,0-1.37,2.61,2.61,0,0,1,2.37,0c.66.38.67,1,0,1.37A2.63,2.63,0,0,1,49.27,19.3Z" fill="#2d6d8b" stroke="#00415f" stroke-miterlimit="10" stroke-width="0.1"/></g><g id="L_Lisse" data-name="L Lisse" style="isolation:isolate"><path d="M28.27,19c0,3.47,0,5.66,0,9.13a.84.84,0,0,1-.48.68,2.63,2.63,0,0,1-2.38,0,.84.84,0,0,1-.49-.69c0-3.47,0-5.66,0-9.13a.85.85,0,0,0,.5.69,2.61,2.61,0,0,0,2.37,0A.82.82,0,0,0,28.27,19Z" stroke="#797979" stroke-miterlimit="10" stroke-width="0.25" fill="url(#linear-gradient-12)"/><path d="M27.78,18.34c.66.39.66,1,0,1.38a2.61,2.61,0,0,1-2.37,0,.72.72,0,0,1,0-1.37A2.66,2.66,0,0,1,27.78,18.34Zm-2.26,1.31" fill="#2d6d8b" stroke="#00415f" stroke-miterlimit="10" stroke-width="0.1"/></g><g id="pas_de_vis_G1" data-name="pas de vis * G1"><g clip-path="url(#clip-path)"><g id="Blend_G1" data-name="Blend  G1"><path d="M28.18,27.87a.84.84,0,0,1-.34.77,2.64,2.64,0,0,1-2.33.48c-.44-.15-.65-.43-.63-.73" fill="none" stroke="#000" stroke-linecap="round" stroke-miterlimit="10" stroke-width="0.29"/><path d="M28.18,29.07a.84.84,0,0,1-.34.77,2.63,2.63,0,0,1-2.33.48c-.43-.15-.65-.42-.63-.73" fill="none" stroke="#000" stroke-linecap="round" stroke-miterlimit="10" stroke-width="0.29"/><path d="M28.18,30.27a.84.84,0,0,1-.34.77,2.58,2.58,0,0,1-2.32.48c-.44-.14-.66-.42-.64-.73" fill="none" stroke="#000" stroke-linecap="round" stroke-miterlimit="10" stroke-width="0.29"/><path d="M28.18,31.47a.82.82,0,0,1-.33.77,2.6,2.6,0,0,1-2.33.48c-.43-.14-.65-.42-.64-.73" fill="none" stroke="#000" stroke-linecap="round" stroke-miterlimit="10" stroke-width="0.29"/><path d="M28.18,32.67a.83.83,0,0,1-.33.78,2.64,2.64,0,0,1-2.32.48c-.44-.15-.66-.43-.65-.73" fill="none" stroke="#000" stroke-linecap="round" stroke-miterlimit="10" stroke-width="0.29"/><path d="M28.18,33.88a.83.83,0,0,1-.33.77,2.6,2.6,0,0,1-2.32.48c-.44-.15-.66-.42-.64-.73" fill="none" stroke="#000" stroke-linecap="round" stroke-miterlimit="10" stroke-width="0.29"/></g></g></g><g id="pas_de_vis_D1" data-name="pas de vis * D1"><g clip-path="url(#clip-path-2)"><g id="Blend_G1-2" data-name="Blend  G1"><path d="M52.09,28.78a.84.84,0,0,1-.34.77,2.64,2.64,0,0,1-2.33.48c-.44-.15-.66-.42-.64-.73" fill="none" stroke="#000" stroke-linecap="round" stroke-miterlimit="10" stroke-width="0.29"/><path d="M52.09,30a.84.84,0,0,1-.34.77,2.64,2.64,0,0,1-2.33.48c-.43-.14-.65-.42-.64-.73" fill="none" stroke="#000" stroke-linecap="round" stroke-miterlimit="10" stroke-width="0.29"/><path d="M52.09,31.14a.84.84,0,0,1-.34.77,2.6,2.6,0,0,1-2.33.48c-.43-.14-.65-.42-.63-.73" fill="none" stroke="#000" stroke-linecap="round" stroke-miterlimit="10" stroke-width="0.29"/><path d="M52.09,32.32a.83.83,0,0,1-.34.77,2.58,2.58,0,0,1-2.32.48c-.44-.14-.66-.42-.64-.73" fill="none" stroke="#000" stroke-linecap="round" stroke-miterlimit="10" stroke-width="0.29"/><path d="M52.09,33.5a.84.84,0,0,1-.33.78,2.66,2.66,0,0,1-2.33.48c-.43-.15-.65-.43-.64-.74" fill="none" stroke="#000" stroke-linecap="round" stroke-miterlimit="10" stroke-width="0.29"/><path d="M52.09,34.69a.83.83,0,0,1-.33.77,2.61,2.61,0,0,1-2.32.48c-.44-.15-.66-.43-.65-.73" fill="none" stroke="#000" stroke-linecap="round" stroke-miterlimit="10" stroke-width="0.29"/></g></g></g></g><g id="TOP_0_" data-name="TOP  **0**"><g style="isolation:isolate"><path d="M57.1,19,42.21,25.27a5.93,5.93,0,0,1-4.07,0l-16.2-6.84c-.57-.24-.85-.56-.85-.87v.66c0,.31.28.63.85.87l16.2,6.84a6,6,0,0,0,4.08,0L57.1,19.49c.52-.23,1-.28.87-1.58C57.92,18,58.19,18.45,57.1,19Z" fill="#323232"/><path d="M57.12,17.2c1.13.48,1.14,1.25,0,1.73L42.22,25.27a6,6,0,0,1-4.08,0l-16.2-6.84c-1.13-.48-1.13-1.25,0-1.73l14.91-6.34a6,6,0,0,1,4.08,0Z" stroke="#797979" stroke-linecap="round" stroke-linejoin="round" stroke-width="0.06" fill="url(#top_white-3)"/><path id="dessus" d="M57,17.23c1.09.46,1.09,1.21,0,1.67L42.14,25.24a5.74,5.74,0,0,1-3.92,0L22,18.4c-1.09-.46-1.09-1.21,0-1.67l14.91-6.34a5.74,5.74,0,0,1,3.92,0Z" stroke="#797979" stroke-linecap="round" stroke-linejoin="round" stroke-width="0.06" fill="url(#top_white-4)"/></g><path d="M54.77,18.34,42.09,23.72a5.82,5.82,0,0,1-4-.06L24.58,18c-.56-.24-.83-.56-.83-.87v.66c0,.31.29.63.85.87l13.51,5.69a6,6,0,0,0,4.08.06L54.75,19c.77-.35.55-.85.55-1.52A.83.83,0,0,1,54.77,18.34Z" fill="#323232"/><path d="M54.37,16.77c1.09.46,1.1,1.21,0,1.67L42.13,23.65a5.74,5.74,0,0,1-3.92,0L24.69,17.94c-1.09-.46-1.09-1.21,0-1.67l12.26-5.21a5.74,5.74,0,0,1,3.92,0Z" stroke="#797979" stroke-linecap="round" stroke-linejoin="round" stroke-width="0.06" fill="url(#top_white-5)"/></g></g><g id="Layer_4" data-name="Layer 4"><rect x="6.5" y="20.5" width="25" height="32" stroke="#333332" stroke-linecap="round" stroke-linejoin="round" fill="url(#linear-gradient-13)"/><rect x="9.5" y="43.5" width="6" height="6" stroke="#797979" stroke-linecap="round" stroke-linejoin="round" fill="url(#linear-gradient-14)"/><rect x="19" y="26" width="10" height="1" fill="#333332"/><rect x="19" y="36" width="10" height="1" fill="#333332"/><rect x="19" y="46" width="10" height="1" fill="#333332"/><path d="M14.65,39.85a.52.52,0,0,1-.36-.14l-1.79-1.8-1.79,1.8a.52.52,0,0,1-.36.14.5.5,0,0,1-.35-.14L9.29,39a.5.5,0,0,1-.14-.35.52.52,0,0,1,.14-.36l1.8-1.79-1.8-1.79a.52.52,0,0,1-.14-.36A.5.5,0,0,1,9.29,34l.71-.71a.5.5,0,0,1,.35-.14.52.52,0,0,1,.36.14l1.79,1.8,1.79-1.8a.52.52,0,0,1,.36-.14.5.5,0,0,1,.35.14l.71.71a.5.5,0,0,1,.14.35.52.52,0,0,1-.14.36l-1.8,1.79,1.8,1.79a.52.52,0,0,1,.14.36.5.5,0,0,1-.14.35l-.71.71A.5.5,0,0,1,14.65,39.85Z" fill="url(#linear-gradient-15)"/><path d="M14.65,33.65l.7.7L13.21,36.5l2.14,2.15-.7.7L12.5,37.21l-2.15,2.14-.7-.7,2.14-2.15L9.65,34.35l.7-.7,2.15,2.14,2.15-2.14m0-1a1,1,0,0,0-.71.29L12.5,34.38l-1.44-1.44a1,1,0,0,0-.71-.29,1,1,0,0,0-.7.29l-.71.71a1,1,0,0,0-.29.7,1,1,0,0,0,.29.71l1.44,1.44L8.94,37.94a1,1,0,0,0-.29.71,1,1,0,0,0,.29.7l.71.71a1,1,0,0,0,.7.29,1,1,0,0,0,.71-.29l1.44-1.44,1.44,1.44a1,1,0,0,0,.71.29,1,1,0,0,0,.7-.29l.71-.71a1,1,0,0,0,.29-.7,1,1,0,0,0-.29-.71L14.62,36.5l1.44-1.44a1,1,0,0,0,.29-.71,1,1,0,0,0-.29-.7l-.71-.71a1,1,0,0,0-.7-.29Z" fill="#831300"/><path d="M11.5,29a.47.47,0,0,1-.35-.15l-2-2,.7-.7,1.65,1.64,3.65-3.64.7.7-4,4A.47.47,0,0,1,11.5,29Z" fill="url(#linear-gradient-16)"/><path d="M15.15,24.15l.7.7-4,4a.48.48,0,0,1-.7,0l-2-2,.7-.7,1.65,1.64,3.65-3.64m0-1a1,1,0,0,0-.71.29L11.5,26.38l-.94-.94a1,1,0,0,0-1.41,0l-.71.71a1,1,0,0,0-.29.7,1,1,0,0,0,.29.71l2,2a1.5,1.5,0,0,0,2.12,0l4-4a1,1,0,0,0,.29-.71,1,1,0,0,0-.29-.7l-.71-.71a1,1,0,0,0-.7-.29Z" fill="url(#linear-gradient-17)"/></g></svg>