<svg xmlns="http://www.w3.org/2000/svg" xmlns:xlink="http://www.w3.org/1999/xlink" viewBox="0 0 64 64"><defs><linearGradient id="linear-gradient" x1="11.03" y1="18.69" x2="27.75" y2="47.66" gradientUnits="userSpaceOnUse"><stop offset="0" stop-color="#f5f6f6"/><stop offset="0.99" stop-color="#d2d3d3"/></linearGradient><linearGradient id="linear-gradient-2" x1="10.91" y1="39.75" x2="14.23" y2="45.5" gradientUnits="userSpaceOnUse"><stop offset="0" stop-color="#fff"/><stop offset="1" stop-color="#d2d3d3"/></linearGradient><linearGradient id="linear-gradient-3" x1="9.75" y1="29.75" x2="15.46" y2="35.46" gradientUnits="userSpaceOnUse"><stop offset="0" stop-color="#fa3c05"/><stop offset="1" stop-color="#c81400"/></linearGradient><linearGradient id="linear-gradient-4" x1="11.97" y1="20.93" x2="13.65" y2="23.84" gradientUnits="userSpaceOnUse"><stop offset="0" stop-color="#55b432"/><stop offset="1" stop-color="#379614"/></linearGradient><linearGradient id="linear-gradient-5" x1="11.47" y1="20.06" x2="14.15" y2="24.7" gradientUnits="userSpaceOnUse"><stop offset="0" stop-color="#3c9b19"/><stop offset="0.99" stop-color="#28780a"/></linearGradient><linearGradient id="linear-gradient-6" x1="35.74" y1="19.49" x2="39.38" y2="23.53" gradientUnits="userSpaceOnUse"><stop offset="0.24" stop-color="#f5f6f6"/><stop offset="0.41" stop-color="#e5e6e6"/><stop offset="0.66" stop-color="#d2d3d3"/></linearGradient><linearGradient id="linear-gradient-7" x1="35.42" y1="19.72" x2="38.99" y2="23.68" gradientTransform="translate(26.29 -19.97) rotate(45)" gradientUnits="userSpaceOnUse"><stop offset="0" stop-color="#8dd7f4"/><stop offset="0.18" stop-color="#89d2ef"/><stop offset="0.38" stop-color="#7ec5e2"/><stop offset="0.6" stop-color="#6cafcc"/><stop offset="0.81" stop-color="#5390ae"/><stop offset="1" stop-color="#386f8d"/></linearGradient><linearGradient id="linear-gradient-8" x1="45.94" y1="18.04" x2="42.43" y2="11.96" gradientUnits="userSpaceOnUse"><stop offset="0" stop-color="#161616"/><stop offset="1" stop-color="#515151"/></linearGradient><linearGradient id="linear-gradient-10" x1="37.05" y1="21.95" x2="35.95" y2="20.05" gradientUnits="userSpaceOnUse"><stop offset="0" stop-color="#386f8d"/><stop offset="1" stop-color="#8dd7f4"/></linearGradient><linearGradient id="linear-gradient-11" x1="38.55" y1="23.45" x2="37.45" y2="21.55" xlink:href="#linear-gradient-10"/><linearGradient id="linear-gradient-12" x1="43.08" y1="35.67" x2="48.62" y2="45.26" gradientUnits="userSpaceOnUse"><stop offset="0" stop-color="#fff"/><stop offset="1" stop-color="#f1f0f0"/></linearGradient><linearGradient id="linear-gradient-13" x1="43.02" y1="32.71" x2="48.58" y2="42.34" xlink:href="#linear-gradient-12"/><linearGradient id="linear-gradient-15" x1="48.22" y1="37.21" x2="43.62" y2="29.24" gradientUnits="userSpaceOnUse"><stop offset="0" stop-color="#74c4e2"/><stop offset="1" stop-color="#a4def6"/></linearGradient><linearGradient id="linear-gradient-16" x1="47.73" y1="28.37" x2="50.14" y2="32.55" xlink:href="#linear-gradient-12"/></defs><title>SIMVRL_AP_AppIcon</title><g id="Layer_4" data-name="Layer 4"><rect x="6.5" y="16.5" width="25" height="32" stroke="#333332" stroke-linecap="round" stroke-linejoin="round" fill="url(#linear-gradient)"/><rect x="9.5" y="39.5" width="6" height="6" stroke="#797979" stroke-linecap="round" stroke-linejoin="round" fill="url(#linear-gradient-2)"/><rect x="19" y="22" width="10" height="1" fill="#333332"/><rect x="19" y="32" width="10" height="1" fill="#333332"/><rect x="19" y="42" width="10" height="1" fill="#333332"/><path d="M14.65,35.85a.52.52,0,0,1-.36-.14l-1.79-1.8-1.79,1.8a.52.52,0,0,1-.36.14.5.5,0,0,1-.35-.14L9.29,35a.5.5,0,0,1-.14-.35.52.52,0,0,1,.14-.36l1.8-1.79-1.8-1.79a.52.52,0,0,1-.14-.36A.5.5,0,0,1,9.29,30l.71-.71a.5.5,0,0,1,.35-.14.52.52,0,0,1,.36.14l1.79,1.8,1.79-1.8a.52.52,0,0,1,.36-.14.5.5,0,0,1,.35.14l.71.71a.5.5,0,0,1,.14.35.52.52,0,0,1-.14.36l-1.8,1.79,1.8,1.79a.52.52,0,0,1,.14.36.5.5,0,0,1-.14.35l-.71.71A.5.5,0,0,1,14.65,35.85Z" fill="url(#linear-gradient-3)"/><path d="M14.65,29.65l.7.7L13.21,32.5l2.14,2.15-.7.7L12.5,33.21l-2.15,2.14-.7-.7,2.14-2.15L9.65,30.35l.7-.7,2.15,2.14,2.15-2.14m0-1a1,1,0,0,0-.71.29L12.5,30.38l-1.44-1.44a1,1,0,0,0-.71-.29,1,1,0,0,0-.7.29l-.71.71a1,1,0,0,0-.29.7,1,1,0,0,0,.29.71l1.44,1.44L8.94,33.94a1,1,0,0,0-.29.71,1,1,0,0,0,.29.7l.71.71a1,1,0,0,0,.7.29,1,1,0,0,0,.71-.29l1.44-1.44,1.44,1.44a1,1,0,0,0,.71.29,1,1,0,0,0,.7-.29l.71-.71a1,1,0,0,0,.29-.7,1,1,0,0,0-.29-.71L14.62,32.5l1.44-1.44a1,1,0,0,0,.29-.71,1,1,0,0,0-.29-.7l-.71-.71a1,1,0,0,0-.7-.29Z" fill="#831300"/><path d="M11.5,25a.47.47,0,0,1-.35-.15l-2-2,.7-.7,1.65,1.64,3.65-3.64.7.7-4,4A.47.47,0,0,1,11.5,25Z" fill="url(#linear-gradient-4)"/><path d="M15.15,20.15l.7.7-4,4a.48.48,0,0,1-.7,0l-2-2,.7-.7,1.65,1.64,3.65-3.64m0-1a1,1,0,0,0-.71.29L11.5,22.38l-.94-.94a1,1,0,0,0-1.41,0l-.71.71a1,1,0,0,0-.29.7,1,1,0,0,0,.29.71l2,2a1.5,1.5,0,0,0,2.12,0l4-4a1,1,0,0,0,.29-.71,1,1,0,0,0-.29-.7l-.71-.71a1,1,0,0,0-.7-.29Z" fill="url(#linear-gradient-5)"/></g><g id="Layer_3" data-name="Layer 3"><g opacity="0.45"><path d="M44.5,12a.47.47,0,0,1,.35.15l2,2a.47.47,0,0,1,.15.35v2a.47.47,0,0,1-.15.35l-12,12a.52.52,0,0,1-.25.14l-5,1h-.1a.47.47,0,0,1-.35-.15A.49.49,0,0,1,29,29.4l1-5a.52.52,0,0,1,.14-.25l12-12A.47.47,0,0,1,42.5,12h2m0-1h-2a1.5,1.5,0,0,0-1.06.44l-12,12a1.49,1.49,0,0,0-.41.76l-1,5a1.47,1.47,0,0,0,.41,1.35A1.5,1.5,0,0,0,29.5,31a1.43,1.43,0,0,0,.29,0l5-1a1.48,1.48,0,0,0,.77-.41l12-12A1.5,1.5,0,0,0,48,16.5v-2a1.5,1.5,0,0,0-.44-1.06l-2-2A1.5,1.5,0,0,0,44.5,11Z" fill="#fff"/></g><polygon points="29.5 29.5 30.5 24.5 42.5 12.5 44.5 12.5 46.5 14.5 46.5 16.5 34.5 28.5 29.5 29.5" stroke="#333332" stroke-linecap="round" stroke-linejoin="round" fill="url(#linear-gradient-6)"/><rect x="32.65" y="18.92" width="9.19" height="5.66" fill="url(#linear-gradient-7)" stroke="#053755" stroke-linecap="round" stroke-linejoin="round" transform="translate(-4.47 32.71) rotate(-45)"/><path d="M46.85,14.15l-2-2A.47.47,0,0,0,44.5,12h-2a.47.47,0,0,0-.35.15l-1.5,1.5a.48.48,0,0,0,0,.7l4,4a.48.48,0,0,0,.7,0l1.5-1.5A.47.47,0,0,0,47,16.5v-2A.47.47,0,0,0,46.85,14.15Z" fill-rule="evenodd" fill="url(#linear-gradient-8)"/><path d="M32.35,28.65l-2-2a.49.49,0,0,0-.84.25L29,29.4a.49.49,0,0,0,.14.45.47.47,0,0,0,.35.15h.1l2.5-.5a.49.49,0,0,0,.25-.84Z" fill-rule="evenodd" fill="url(#linear-gradient-8)"/><line x1="33.5" y1="24" x2="39.5" y2="18" stroke="#053755" stroke-linecap="round" stroke-linejoin="round" opacity="0.2" fill="url(#linear-gradient-10)"/><line x1="35" y1="25.5" x2="41" y2="19.5" stroke="#053755" stroke-linecap="round" stroke-linejoin="round" opacity="0.5" fill="url(#linear-gradient-11)"/><path d="M33.5,40.5v2.43a1,1,0,0,0,.49.86l8.95,5.37a1,1,0,0,0,1.09,0l13-9.32A1,1,0,0,0,57.5,39V36.5l-10-5Z" stroke="#797979" stroke-linecap="round" stroke-linejoin="round" fill="url(#linear-gradient-12)"/><polygon points="33.5 37.5 33.5 40.5 43.5 46.5 57.5 36.5 57.5 33.5 47.5 28.5 33.5 37.5" stroke="#797979" stroke-linecap="round" stroke-linejoin="round" fill="url(#linear-gradient-13)"/><path d="M33.5,34.5v3l10,6,14-10v-3L48,25.75a1,1,0,0,0-1,.06Z" stroke="#797979" stroke-linecap="round" stroke-linejoin="round" fill="url(#linear-gradient-13)"/><path d="M47,25.81,33.5,34.5v8.43a1,1,0,0,0,.49.86l8.95,5.37a1,1,0,0,0,1.09,0l13-9.32A1,1,0,0,0,57.5,39V30.5L48,25.75A1,1,0,0,0,47,25.81Z" fill="none" stroke="#333332" stroke-linecap="round" stroke-linejoin="round"/><path d="M33.5,34.5l10,6,14-10L48,25.75a1,1,0,0,0-1,.06Z" stroke="#053755" stroke-linecap="round" stroke-linejoin="round" fill="url(#linear-gradient-15)"/><polygon points="47.34 27.89 44.36 29.75 50.35 32.96 53.37 30.92 47.34 27.89" stroke="#003755" stroke-linecap="round" stroke-linejoin="round" fill="url(#linear-gradient-16)"/></g></svg>