<svg xmlns="http://www.w3.org/2000/svg" xmlns:xlink="http://www.w3.org/1999/xlink" viewBox="0 0 64 64"><defs><linearGradient id="linear-gradient" x1="4.26" y1="36.35" x2="55.97" y2="36.35" gradientTransform="translate(-0.09 -5.69) rotate(-7.35)" gradientUnits="userSpaceOnUse"><stop offset="0" stop-color="#f5f5f5"/><stop offset="0.12" stop-color="#e8f1f6"/><stop offset="0.49" stop-color="#c6e5f8"/><stop offset="0.8" stop-color="#b2dff9"/><stop offset="1" stop-color="#aadcfa"/></linearGradient><linearGradient id="linear-gradient-2" x1="47.21" y1="32.98" x2="57.98" y2="51.65" gradientTransform="translate(-0.89 -4)" gradientUnits="userSpaceOnUse"><stop offset="0" stop-color="#8cd7f5"/><stop offset="1" stop-color="#376e8c"/></linearGradient><linearGradient id="linear-gradient-4" x1="34.28" y1="33.93" x2="45.03" y2="52.54" xlink:href="#linear-gradient-2"/><linearGradient id="linear-gradient-6" x1="39.98" y1="36.58" x2="50.85" y2="55.4" xlink:href="#linear-gradient-2"/><linearGradient id="linear-gradient-8" x1="11.03" y1="22.69" x2="27.75" y2="51.66" gradientUnits="userSpaceOnUse"><stop offset="0" stop-color="#f5f6f6"/><stop offset="0.99" stop-color="#d2d3d3"/></linearGradient><linearGradient id="linear-gradient-9" x1="10.91" y1="43.75" x2="14.23" y2="49.5" gradientUnits="userSpaceOnUse"><stop offset="0" stop-color="#fff"/><stop offset="1" stop-color="#d2d3d3"/></linearGradient><linearGradient id="linear-gradient-10" x1="9.75" y1="33.75" x2="15.46" y2="39.46" gradientUnits="userSpaceOnUse"><stop offset="0" stop-color="#fa3c05"/><stop offset="1" stop-color="#c81400"/></linearGradient><linearGradient id="linear-gradient-11" x1="11.97" y1="24.93" x2="13.65" y2="27.84" gradientUnits="userSpaceOnUse"><stop offset="0" stop-color="#55b432"/><stop offset="1" stop-color="#379614"/></linearGradient><linearGradient id="linear-gradient-12" x1="11.47" y1="24.06" x2="14.15" y2="28.7" gradientUnits="userSpaceOnUse"><stop offset="0" stop-color="#3c9b19"/><stop offset="0.99" stop-color="#28780a"/></linearGradient></defs><title>SIMVRP_AP_AppIcon</title><g id="Layer_3" data-name="Layer 3"><g id="Face_Avant_" data-name="Face Avant   ***"><polygon id="fd_blanc" data-name="fd blanc" points="11 47 61.01 41 58.24 9 8 12 11 47" fill="#fff"/><polygon id="fd_bleue_50_pc" data-name="fd bleue   50 pc" points="11 47 61.01 41 58.24 9 8 12 11 47" stroke="#333332" stroke-miterlimit="10" opacity="0.5" fill="url(#linear-gradient)"/><polygon id="cadre_contour" data-name="cadre contour" points="11 47 61.01 41 58.24 9 8 12 11 47" fill="none" stroke="#003755" stroke-linecap="round" stroke-linejoin="round" stroke-width="0.75"/></g><polygon id="barre_3" data-name="barre 3" points="41.2 38.03 31.25 39.11 21.3 40.2 21.12 38.13 41.03 36.03 41.2 38.03" fill="#003755"/><polygon id="barre_2" data-name="barre 2" points="31.95 30.16 22.55 31.03 13.14 31.91 12.96 29.82 31.78 28.14 31.95 30.16" fill="#003755"/><polygon id="barre_1" data-name="barre 1" points="53.84 15.25 54.01 17.21 36.11 18.52 14.28 20.07 14.1 17.99 53.84 15.25" fill="#003755"/><polygon id="a1_matrice" data-name="a1 matrice" points="32.36 38.7 29.48 42.51 25.94 39.42 28.88 35.62 32.36 38.7" fill="#82bddb" stroke="#003755" stroke-miterlimit="10" stroke-width="0.25"/><polygon id="a1_matrice-2" data-name="a1 matrice" points="24.24 30.94 21.23 34.78 17.55 31.59 20.63 27.76 24.24 30.94" fill="#82bddb" stroke="#003755" stroke-miterlimit="10" stroke-width="0.25"/><polygon id="a1_matrice-3" data-name="a1 matrice" points="47.3 17.71 44.52 21.34 41.14 18.19 43.96 14.58 47.3 17.71" fill="#82bddb" stroke="#003755" stroke-miterlimit="10" stroke-width="0.25"/><polygon id="a1_matrice-4" data-name="a1 matrice" points="31.07 18.9 28.13 22.62 24.54 19.4 27.57 15.7 31.07 18.9" fill="#82bddb" stroke="#003755" stroke-miterlimit="10" stroke-width="0.25"/><polygon id="_cadre" points="61.02 41.01 11.04 47.01 7.94 11.99 58.26 8.94 61.02 41.01" fill="none"/><g id="_people_BLEU_" data-name="_people BLEU  ***"><g id="B3"><circle cx="52.44" cy="30.76" r="4.6" fill="url(#linear-gradient-2)"/><path d="M52.5,35.36c-3.56,0-6.5,2.47-6.5,5.52V46.4c0,.92,6.5.92,6.5.92s6.5,0,6.5-.92V40.88C59,37.83,56.06,35.36,52.5,35.36Z" fill="url(#linear-gradient-2)"/><path d="M52.44,27.16a3.6,3.6,0,1,1-3.6,3.6,3.6,3.6,0,0,1,3.6-3.6m0-1a4.6,4.6,0,1,0,4.6,4.6,4.6,4.6,0,0,0-4.6-4.6Z" fill="#003755"/><path d="M52.5,36.36c3,0,5.5,2,5.5,4.52v5a29.64,29.64,0,0,1-5.5.41,29.64,29.64,0,0,1-5.5-.41v-5c0-2.49,2.47-4.52,5.5-4.52m0-1c-3.56,0-6.5,2.47-6.5,5.52V46.4c0,.92,6.5.92,6.5.92s6.5,0,6.5-.92V40.88c0-3.05-2.94-5.52-6.5-5.52Z" fill="#003755"/></g><g id="HI_3" data-name="HI 3"><path d="M57,45V40.88c0-1.84-1.88-3.68-2.8-3.68,0,0,1.8,1.84,1.8,3.68V45Z" fill="#fff" opacity="0.3"/><path d="M54.23,29.17c.34.69.43,1.33.21,1.44s-.69-.34-1-1-.43-1.33-.21-1.44S53.89,28.49,54.23,29.17Z" fill="#fff" opacity="0.3"/></g><g id="B2"><circle cx="39.56" cy="31.68" r="4.6" fill="url(#linear-gradient-4)"/><path d="M39.5,36.28c-3.56,0-6.5,2.47-6.5,5.52v5.52c0,.92,6.5.92,6.5.92s6.5,0,6.5-.92V41.8C46,38.75,43.06,36.28,39.5,36.28Z" fill="url(#linear-gradient-4)"/><path d="M39.56,28.08a3.6,3.6,0,1,1-3.6,3.6,3.6,3.6,0,0,1,3.6-3.6m0-1a4.6,4.6,0,1,0,4.6,4.6,4.6,4.6,0,0,0-4.6-4.6Z" fill="#003755"/><path d="M39.5,37.28c3,0,5.5,2,5.5,4.52v5a29.64,29.64,0,0,1-5.5.41,29.64,29.64,0,0,1-5.5-.41v-5c0-2.49,2.47-4.52,5.5-4.52m0-1c-3.56,0-6.5,2.47-6.5,5.52v5.52c0,.92,6.5.92,6.5.92s6.5,0,6.5-.92V41.8c0-3-2.94-5.52-6.5-5.52Z" fill="#003755"/></g><g id="HI_2" data-name="HI 2"><path d="M44,45V41.8c0-1.84-1.88-3.68-2.8-3.68,0,0,1.8,1.84,1.8,3.68V45Z" fill="#fff" opacity="0.3"/><path d="M41.35,30.09c.34.69.43,1.33.21,1.44s-.69-.34-1-1-.43-1.33-.21-1.44S41,29.41,41.35,30.09Z" fill="#fff" opacity="0.3"/></g><g id="B1"><circle cx="45.08" cy="34.44" r="4.6" fill="url(#linear-gradient-6)"/><path d="M45.5,39c-3.56,0-6.5,2.47-6.5,5.52v5.52c0,.92,6.5.92,6.5.92s6.5,0,6.5-.92V44.56C52,41.51,49.06,39,45.5,39Z" fill="url(#linear-gradient-6)"/><path d="M45.08,30.84a3.6,3.6,0,1,1-3.6,3.6,3.6,3.6,0,0,1,3.6-3.6m0-1a4.6,4.6,0,1,0,4.6,4.6,4.6,4.6,0,0,0-4.6-4.6Z" fill="#003755"/><path d="M45.5,40c3,0,5.5,2,5.5,4.52v5a29.64,29.64,0,0,1-5.5.41,29.64,29.64,0,0,1-5.5-.41v-5C40,42.07,42.47,40,45.5,40m0-1c-3.56,0-6.5,2.47-6.5,5.52v5.52c0,.92,6.5.92,6.5.92s6.5,0,6.5-.92V44.56C52,41.51,49.06,39,45.5,39Z" fill="#003755"/></g><g id="HI_1" data-name="HI 1"><path d="M50,48V44.56c0-1.84-1.88-3.68-2.8-3.68,0,0,1.8,1.84,1.8,3.68V48Z" fill="#fff" opacity="0.3"/><path d="M46.87,32.85c.34.69.43,1.33.21,1.44s-.69-.34-1-1-.43-1.33-.21-1.44S46.53,32.17,46.87,32.85Z" fill="#fff" opacity="0.3"/></g></g></g><g id="Layer_4" data-name="Layer 4"><rect x="6.5" y="20.5" width="25" height="32" stroke="#333332" stroke-linecap="round" stroke-linejoin="round" fill="url(#linear-gradient-8)"/><rect x="9.5" y="43.5" width="6" height="6" stroke="#797979" stroke-linecap="round" stroke-linejoin="round" fill="url(#linear-gradient-9)"/><rect x="19" y="26" width="10" height="1" fill="#333332"/><rect x="19" y="36" width="10" height="1" fill="#333332"/><rect x="19" y="46" width="10" height="1" fill="#333332"/><path d="M14.65,39.85a.52.52,0,0,1-.36-.14l-1.79-1.8-1.79,1.8a.52.52,0,0,1-.36.14.5.5,0,0,1-.35-.14L9.29,39a.5.5,0,0,1-.14-.35.52.52,0,0,1,.14-.36l1.8-1.79-1.8-1.79a.52.52,0,0,1-.14-.36A.5.5,0,0,1,9.29,34l.71-.71a.5.5,0,0,1,.35-.14.52.52,0,0,1,.36.14l1.79,1.8,1.79-1.8a.52.52,0,0,1,.36-.14.5.5,0,0,1,.35.14l.71.71a.5.5,0,0,1,.14.35.52.52,0,0,1-.14.36l-1.8,1.79,1.8,1.79a.52.52,0,0,1,.14.36.5.5,0,0,1-.14.35l-.71.71A.5.5,0,0,1,14.65,39.85Z" fill="url(#linear-gradient-10)"/><path d="M14.65,33.65l.7.7L13.21,36.5l2.14,2.15-.7.7L12.5,37.21l-2.15,2.14-.7-.7,2.14-2.15L9.65,34.35l.7-.7,2.15,2.14,2.15-2.14m0-1a1,1,0,0,0-.71.29L12.5,34.38l-1.44-1.44a1,1,0,0,0-.71-.29,1,1,0,0,0-.7.29l-.71.71a1,1,0,0,0-.29.7,1,1,0,0,0,.29.71l1.44,1.44L8.94,37.94a1,1,0,0,0-.29.71,1,1,0,0,0,.29.7l.71.71a1,1,0,0,0,.7.29,1,1,0,0,0,.71-.29l1.44-1.44,1.44,1.44a1,1,0,0,0,.71.29,1,1,0,0,0,.7-.29l.71-.71a1,1,0,0,0,.29-.7,1,1,0,0,0-.29-.71L14.62,36.5l1.44-1.44a1,1,0,0,0,.29-.71,1,1,0,0,0-.29-.7l-.71-.71a1,1,0,0,0-.7-.29Z" fill="#831300"/><path d="M11.5,29a.47.47,0,0,1-.35-.15l-2-2,.7-.7,1.65,1.64,3.65-3.64.7.7-4,4A.47.47,0,0,1,11.5,29Z" fill="url(#linear-gradient-11)"/><path d="M15.15,24.15l.7.7-4,4a.48.48,0,0,1-.7,0l-2-2,.7-.7,1.65,1.64,3.65-3.64m0-1a1,1,0,0,0-.71.29L11.5,26.38l-.94-.94a1,1,0,0,0-1.41,0l-.71.71a1,1,0,0,0-.29.7,1,1,0,0,0,.29.71l2,2a1.5,1.5,0,0,0,2.12,0l4-4a1,1,0,0,0,.29-.71,1,1,0,0,0-.29-.7l-.71-.71a1,1,0,0,0-.7-.29Z" fill="url(#linear-gradient-12)"/></g></svg>