<svg xmlns="http://www.w3.org/2000/svg" xmlns:xlink="http://www.w3.org/1999/xlink" width="64" height="64" viewBox="0 0 64 64">
  <defs>
    <linearGradient id="a" x1="24.711" y1="41" x2="36.862" y2="41" gradientUnits="userSpaceOnUse">
      <stop offset="0" stop-color="#d4d5d3"/>
      <stop offset="0.288" stop-color="#b4b4b4"/>
      <stop offset="0.809" stop-color="#fff"/>
      <stop offset="1" stop-color="#d4d5d3"/>
    </linearGradient>
    <linearGradient id="b" x1="24.711" y1="37" x2="36.862" y2="37" xlink:href="#a"/>
    <linearGradient id="c" x1="24.711" y1="33" x2="36.862" y2="33" xlink:href="#a"/>
    <linearGradient id="d" x1="24.711" y1="29" x2="36.862" y2="29" xlink:href="#a"/>
    <linearGradient id="e" x1="24.711" y1="25" x2="36.862" y2="25" xlink:href="#a"/>
    <linearGradient id="f" x1="28.271" y1="14.746" x2="34.06" y2="24.772" gradientUnits="userSpaceOnUse">
      <stop offset="0" stop-color="#d7d7d7"/>
      <stop offset="1" stop-color="#969696"/>
    </linearGradient>
    <linearGradient id="g" x1="24.711" y1="17" x2="36.862" y2="17" xlink:href="#a"/>
    <linearGradient id="h" x1="28.602" y1="8.846" x2="34.362" y2="18.823" gradientUnits="userSpaceOnUse">
      <stop offset="0" stop-color="#b4b4b4"/>
      <stop offset="0.089" stop-color="#c6c6c6"/>
      <stop offset="0.321" stop-color="#efefef"/>
      <stop offset="0.441" stop-color="#fff"/>
      <stop offset="0.673" stop-color="#fdfdfd"/>
      <stop offset="0.803" stop-color="#f5f5f4"/>
      <stop offset="0.908" stop-color="#e7e8e7"/>
      <stop offset="0.999" stop-color="#d4d5d3"/>
      <stop offset="1" stop-color="#d4d5d3"/>
    </linearGradient>
    <linearGradient id="i" x1="29.479" y1="10.366" x2="32.521" y2="15.634" gradientUnits="userSpaceOnUse">
      <stop offset="0" stop-color="#3287af"/>
      <stop offset="1" stop-color="#285a78"/>
    </linearGradient>
    <linearGradient id="j" x1="42.711" y1="43" x2="54.862" y2="43" xlink:href="#a"/>
    <linearGradient id="k" x1="46.602" y1="34.846" x2="52.362" y2="44.823" xlink:href="#h"/>
    <linearGradient id="l" x1="44" y1="39" x2="54" y2="39" gradientUnits="userSpaceOnUse">
      <stop offset="0" stop-color="#464646"/>
      <stop offset="1" stop-color="#141414"/>
    </linearGradient>
    <linearGradient id="m" x1="12.711" y1="46" x2="24.862" y2="46" xlink:href="#a"/>
    <linearGradient id="n" x1="16.271" y1="35.746" x2="22.06" y2="45.773" xlink:href="#f"/>
    <linearGradient id="o" x1="12.711" y1="38" x2="24.862" y2="38" xlink:href="#a"/>
    <linearGradient id="p" x1="12.711" y1="34" x2="24.862" y2="34" xlink:href="#a"/>
    <linearGradient id="q" x1="12.711" y1="30" x2="24.862" y2="30" xlink:href="#a"/>
    <linearGradient id="r" x1="16.271" y1="23.746" x2="22.06" y2="33.772" xlink:href="#f"/>
    <linearGradient id="s" x1="12.711" y1="26" x2="24.862" y2="26" xlink:href="#a"/>
    <linearGradient id="t" x1="16.602" y1="17.846" x2="22.362" y2="27.823" xlink:href="#h"/>
    <linearGradient id="u" x1="30.271" y1="43.746" x2="36.06" y2="53.773" xlink:href="#f"/>
    <linearGradient id="v" x1="30.271" y1="39.746" x2="36.06" y2="49.773" xlink:href="#f"/>
    <linearGradient id="w" x1="26.711" y1="42" x2="38.862" y2="42" xlink:href="#a"/>
    <linearGradient id="x" x1="26.711" y1="38" x2="38.862" y2="38" xlink:href="#a"/>
    <linearGradient id="y" x1="30.602" y1="29.846" x2="36.362" y2="39.823" xlink:href="#h"/>
    <linearGradient id="z" x1="31.479" y1="31.366" x2="34.521" y2="36.634" xlink:href="#i"/>
  </defs>
  <title>5482_SIMWCTI_AP_AppIcon_r21x</title>
  <g>
    <g>
      <g>
        <path d="M31,44.5c-4.065,0-7.5-1.6-7.5-3.5V37.5h15V41C38.5,42.9,35.065,44.5,31,44.5Z" fill="url(#a)"/>
        <path d="M38,38v3c0,1.416-2.994,3-7,3s-7-1.584-7-3V38H38m1-1H23v4c0,2.209,3.582,4,8,4s8-1.791,8-4V37Z" fill="#787878"/>
      </g>
      <g>
        <path d="M31,40.5c-4.065,0-7.5-1.6-7.5-3.5V33.5h15V37C38.5,38.9,35.065,40.5,31,40.5Z" fill="url(#b)"/>
        <path d="M38,34v3c0,1.416-2.994,3-7,3s-7-1.584-7-3V34H38m1-1H23v4c0,2.209,3.582,4,8,4s8-1.791,8-4V33Z" fill="#787878"/>
      </g>
      <g>
        <path d="M31,36.5c-4.065,0-7.5-1.6-7.5-3.5V29.5h15V33C38.5,34.9,35.065,36.5,31,36.5Z" fill="url(#c)"/>
        <path d="M38,30v3c0,1.416-2.994,3-7,3s-7-1.584-7-3V30H38m1-1H23v4c0,2.209,3.582,4,8,4s8-1.791,8-4V29Z" fill="#787878"/>
      </g>
      <g>
        <path d="M31,32.5c-4.065,0-7.5-1.6-7.5-3.5V25.5h15V29C38.5,30.9,35.065,32.5,31,32.5Z" fill="url(#d)"/>
        <path d="M38,26v3c0,1.416-2.994,3-7,3s-7-1.584-7-3V26H38m1-1H23v4c0,2.209,3.582,4,8,4s8-1.791,8-4V25Z" fill="#787878"/>
      </g>
      <g>
        <path d="M31,28.5c-4.065,0-7.5-1.6-7.5-3.5V21.5h15V25C38.5,26.9,35.065,28.5,31,28.5Z" fill="url(#e)"/>
        <path d="M38,22v3c0,1.416-2.994,3-7,3s-7-1.584-7-3V22H38m1-1H23v4c0,2.209,3.582,4,8,4s8-1.791,8-4V21Z" fill="#787878"/>
      </g>
      <g>
        <path d="M31,24.5c-4.065,0-7.5-1.6-7.5-3.5V17.5h15V21C38.5,22.9,35.065,24.5,31,24.5Z" fill="url(#f)"/>
        <path d="M38,18v3c0,1.416-2.994,3-7,3s-7-1.584-7-3V18H38m1-1H23v4c0,2.209,3.582,4,8,4s8-1.791,8-4V17Z" fill="#787878"/>
      </g>
    </g>
    <g>
      <g>
        <path d="M31,20.5c-4.065,0-7.5-1.6-7.5-3.5V13.5h15V17C38.5,18.9,35.065,20.5,31,20.5Z" fill="url(#g)"/>
        <path d="M38,14v3c0,1.416-2.994,3-7,3s-7-1.584-7-3V14H38m1-1H23v4c0,2.209,3.582,4,8,4s8-1.791,8-4V13Z" fill="#787878"/>
      </g>
      <g>
        <ellipse cx="31" cy="13" rx="7.5" ry="3.5" fill="url(#h)"/>
        <path d="M31,10c4.006,0,7,1.584,7,3s-2.994,3-7,3-7-1.584-7-3,2.994-3,7-3m0-1c-4.418,0-8,1.791-8,4s3.582,4,8,4,8-1.791,8-4-3.582-4-8-4Z" fill="#787878"/>
      </g>
      <ellipse cx="31" cy="13" rx="5" ry="2" fill="url(#i)"/>
    </g>
  </g>
  <g>
    <g>
      <path d="M49,46.5c-4.065,0-7.5-1.6-7.5-3.5V39.5h15V43C56.5,44.9,53.065,46.5,49,46.5Z" fill="url(#j)"/>
      <path d="M56,40v3c0,1.416-2.994,3-7,3s-7-1.584-7-3V40H56m1-1H41v4c0,2.209,3.582,4,8,4s8-1.791,8-4V39Z" fill="#787878"/>
    </g>
    <g>
      <ellipse cx="49" cy="39" rx="7.5" ry="3.5" fill="url(#k)"/>
      <path d="M49,36c4.006,0,7,1.584,7,3s-2.994,3-7,3-7-1.584-7-3,2.994-3,7-3m0-1c-4.418,0-8,1.791-8,4s3.582,4,8,4,8-1.791,8-4-3.582-4-8-4Z" fill="#787878"/>
    </g>
    <ellipse cx="49" cy="39" rx="5" ry="2" fill="url(#l)"/>
  </g>
  <g>
    <g>
      <g>
        <path d="M19,49.5c-4.065,0-7.5-1.6-7.5-3.5V42.5h15V46C26.5,47.9,23.065,49.5,19,49.5Z" fill="url(#m)"/>
        <path d="M26,43v3c0,1.416-2.994,3-7,3s-7-1.584-7-3V43H26m1-1H11v4c0,2.209,3.582,4,8,4s8-1.791,8-4V42Z" fill="#787878"/>
      </g>
      <g>
        <path d="M19,45.5c-4.065,0-7.5-1.6-7.5-3.5V38.5h15V42C26.5,43.9,23.065,45.5,19,45.5Z" fill="url(#n)"/>
        <path d="M26,39v3c0,1.416-2.994,3-7,3s-7-1.584-7-3V39H26m1-1H11v4c0,2.209,3.582,4,8,4s8-1.791,8-4V38Z" fill="#787878"/>
      </g>
      <g>
        <path d="M19,41.5c-4.065,0-7.5-1.6-7.5-3.5V34.5h15V38C26.5,39.9,23.065,41.5,19,41.5Z" fill="url(#o)"/>
        <path d="M26,35v3c0,1.416-2.994,3-7,3s-7-1.584-7-3V35H26m1-1H11v4c0,2.209,3.582,4,8,4s8-1.791,8-4V34Z" fill="#787878"/>
      </g>
      <g>
        <path d="M19,37.5c-4.065,0-7.5-1.6-7.5-3.5V30.5h15V34C26.5,35.9,23.065,37.5,19,37.5Z" fill="url(#p)"/>
        <path d="M26,31v3c0,1.416-2.994,3-7,3s-7-1.584-7-3V31H26m1-1H11v4c0,2.209,3.582,4,8,4s8-1.791,8-4V30Z" fill="#787878"/>
      </g>
      <g>
        <path d="M19,33.5c-4.065,0-7.5-1.6-7.5-3.5V26.5h15V30C26.5,31.9,23.065,33.5,19,33.5Z" fill="url(#q)"/>
        <path d="M26,27v3c0,1.416-2.994,3-7,3s-7-1.584-7-3V27H26m1-1H11v4c0,2.209,3.582,4,8,4s8-1.791,8-4V26Z" fill="#787878"/>
      </g>
      <g>
        <path d="M19,33.5c-4.065,0-7.5-1.6-7.5-3.5V26.5h15V30C26.5,31.9,23.065,33.5,19,33.5Z" fill="url(#r)"/>
        <path d="M26,27v3c0,1.416-2.994,3-7,3s-7-1.584-7-3V27H26m1-1H11v4c0,2.209,3.582,4,8,4s8-1.791,8-4V26Z" fill="#787878"/>
      </g>
    </g>
    <g>
      <g>
        <path d="M19,29.5c-4.065,0-7.5-1.6-7.5-3.5V22.5h15V26C26.5,27.9,23.065,29.5,19,29.5Z" fill="url(#s)"/>
        <path d="M26,23v3c0,1.416-2.994,3-7,3s-7-1.584-7-3V23H26m1-1H11v4c0,2.209,3.582,4,8,4s8-1.791,8-4V22Z" fill="#787878"/>
      </g>
      <g>
        <ellipse cx="19" cy="22" rx="7.5" ry="3.5" fill="url(#t)"/>
        <path d="M19,19c4.006,0,7,1.584,7,3s-2.994,3-7,3-7-1.584-7-3,2.994-3,7-3m0-1c-4.418,0-8,1.791-8,4s3.582,4,8,4,8-1.791,8-4-3.582-4-8-4Z" fill="#787878"/>
      </g>
      <ellipse cx="19" cy="22" rx="5" ry="2" fill="#646464" opacity="0.5"/>
    </g>
  </g>
  <g>
    <g>
      <g>
        <path d="M33,53.5c-4.065,0-7.5-1.6-7.5-3.5V46.5h15V50C40.5,51.9,37.065,53.5,33,53.5Z" fill="url(#u)"/>
        <path d="M40,47v3c0,1.416-2.994,3-7,3s-7-1.584-7-3V47H40m1-1H25v4c0,2.209,3.582,4,8,4s8-1.791,8-4V46Z" fill="#787878"/>
      </g>
      <g>
        <path d="M33,49.5c-4.065,0-7.5-1.6-7.5-3.5V42.5h15V46C40.5,47.9,37.065,49.5,33,49.5Z" fill="url(#v)"/>
        <path d="M40,43v3c0,1.416-2.994,3-7,3s-7-1.584-7-3V43H40m1-1H25v4c0,2.209,3.582,4,8,4s8-1.791,8-4V42Z" fill="#787878"/>
      </g>
      <g>
        <path d="M33,45.5c-4.065,0-7.5-1.6-7.5-3.5V38.5h15V42C40.5,43.9,37.065,45.5,33,45.5Z" fill="url(#w)"/>
        <path d="M40,39v3c0,1.416-2.994,3-7,3s-7-1.584-7-3V39H40m1-1H25v4c0,2.209,3.582,4,8,4s8-1.791,8-4V38Z" fill="#787878"/>
      </g>
    </g>
    <g>
      <g>
        <path d="M33,41.5c-4.065,0-7.5-1.6-7.5-3.5V34.5h15V38C40.5,39.9,37.065,41.5,33,41.5Z" fill="url(#x)"/>
        <path d="M40,35v3c0,1.416-2.994,3-7,3s-7-1.584-7-3V35H40m1-1H25v4c0,2.209,3.582,4,8,4s8-1.791,8-4V34Z" fill="#787878"/>
      </g>
      <g>
        <ellipse cx="33" cy="34" rx="7.5" ry="3.5" fill="url(#y)"/>
        <path d="M33,31c4.006,0,7,1.584,7,3s-2.994,3-7,3-7-1.584-7-3,2.994-3,7-3m0-1c-4.418,0-8,1.791-8,4s3.582,4,8,4,8-1.791,8-4-3.582-4-8-4Z" fill="#787878"/>
      </g>
      <ellipse cx="33" cy="34" rx="5" ry="2" fill="url(#z)"/>
    </g>
  </g>
  <path d="M31,10c4.006,0,7,1.584,7,3V31.943l.506.287C39.456,32.769,40,33.414,40,34v5h2c0-1.416,2.994-3,7-3s7,1.584,7,3v4c0,1.416-2.994,3-7,3s-7-1.584-7-3H40v7c0,1.416-2.994,3-7,3s-7-1.584-7-3V46.922l-1.494.848A11.569,11.569,0,0,1,19,49c-4.006,0-7-1.584-7-3V22c0-1.416,2.994-3,7-3a13.589,13.589,0,0,1,3.722.5L24,19.87V13c0-1.416,2.994-3,7-3m0-1c-4.418,0-8,1.791-8,4v5.539A14.506,14.506,0,0,0,19,18c-4.418,0-8,1.791-8,4V46c0,2.209,3.582,4,8,4a12.512,12.512,0,0,0,6-1.36V50c0,2.209,3.582,4,8,4s8-1.791,8-4V43c0,2.209,3.582,4,8,4s8-1.791,8-4V39c0-2.209-3.582-4-8-4s-8,1.791-8,4V34a3.3,3.3,0,0,0-2-2.64V13c0-2.209-3.582-4-8-4Z" fill="#323232"/>
</svg>
