<svg id="version_1X_copy_2" data-name="version  1X copy 2" xmlns="http://www.w3.org/2000/svg" xmlns:xlink="http://www.w3.org/1999/xlink" viewBox="0 0 64 64"><defs><style>.cls-1{fill:#fff;}.cls-10,.cls-11,.cls-12,.cls-13,.cls-14,.cls-15,.cls-16,.cls-17,.cls-18,.cls-2,.cls-26,.cls-32,.cls-33,.cls-7,.cls-8,.cls-9{fill:none;}.cls-3{clip-path:url(#clip-path);}.cls-4{fill:url(#linear-gradient);}.cls-5{clip-path:url(#clip-path-2);}.cls-27,.cls-6{fill:#231f20;}.cls-10,.cls-11,.cls-12,.cls-13,.cls-14,.cls-15,.cls-16,.cls-17,.cls-18,.cls-6,.cls-7,.cls-8,.cls-9{stroke:#231f20;}.cls-33,.cls-6,.cls-7{stroke-miterlimit:10;}.cls-10,.cls-11,.cls-12,.cls-13,.cls-14,.cls-15,.cls-16,.cls-17,.cls-18,.cls-26,.cls-27,.cls-6,.cls-7,.cls-8,.cls-9{stroke-width:0.19px;}.cls-8{stroke-miterlimit:9.18;}.cls-9{stroke-miterlimit:8.36;}.cls-10{stroke-miterlimit:7.55;}.cls-11{stroke-miterlimit:6.73;}.cls-12{stroke-miterlimit:5.91;}.cls-13{stroke-miterlimit:5.09;}.cls-14{stroke-miterlimit:4.27;}.cls-15{stroke-miterlimit:3.45;}.cls-16{stroke-miterlimit:2.64;}.cls-17{stroke-miterlimit:1.82;}.cls-18,.cls-26,.cls-27{stroke-miterlimit:1;}.cls-19{fill:url(#linear-gradient-2);}.cls-20{fill:url(#linear-gradient-3);}.cls-21{fill:url(#linear-gradient-4);}.cls-22{fill:url(#linear-gradient-5);}.cls-23{fill:url(#linear-gradient-6);}.cls-24{fill:url(#linear-gradient-7);}.cls-25{clip-path:url(#clip-path-3);}.cls-26,.cls-27,.cls-32,.cls-33{stroke:#000;}.cls-28{clip-path:url(#clip-path-4);}.cls-29{clip-path:url(#clip-path-5);}.cls-30{clip-path:url(#clip-path-6);}.cls-31{clip-path:url(#clip-path-7);}.cls-32,.cls-33{stroke-linecap:round;}.cls-32{stroke-linejoin:round;stroke-width:0.75px;}.cls-33{stroke-width:0.99px;}.cls-34{fill:url(#radial-gradient);}.cls-35{mask:url(#mask);}.cls-36{fill:url(#radial-gradient-2);}.cls-37{fill:url(#linear-gradient-8);}.cls-38{mask:url(#mask-2);}.cls-39{fill:url(#radial-gradient-3);}.cls-40{fill:url(#linear-gradient-9);}.cls-41{fill:url(#linear-gradient-10);}</style><clipPath id="clip-path"><path id="cadre" class="cls-2" d="M60,54H7V39s16.83,7,24.5-4.25C37.42,26.06,31,16,31,16H60Z"/></clipPath><linearGradient id="linear-gradient" x1="34.36" y1="35.58" x2="39.2" y2="35.58" gradientUnits="userSpaceOnUse"><stop offset="0" stop-color="#fcee21"/><stop offset="0.06" stop-color="#fbe920"/><stop offset="0.14" stop-color="#f7d91e"/><stop offset="0.23" stop-color="#f0c01a"/><stop offset="0.32" stop-color="#e79d15"/><stop offset="0.42" stop-color="#db700e"/><stop offset="0.52" stop-color="#cc3906"/><stop offset="0.59" stop-color="#c10e00"/><stop offset="0.92" stop-color="#c10e00"/></linearGradient><clipPath id="clip-path-2"><polygon class="cls-2" points="34.38 31.78 34.38 26.38 39.52 29.03 34.38 31.78"/></clipPath><linearGradient id="linear-gradient-2" x1="31.35" y1="44.29" x2="34.81" y2="38.53" gradientUnits="userSpaceOnUse"><stop offset="0" stop-color="#39b54a"/><stop offset="0" stop-color="#3eb749"/><stop offset="0" stop-color="#4dbb46"/><stop offset="0" stop-color="#66c241"/><stop offset="0" stop-color="#88cc39"/><stop offset="0" stop-color="#b4d930"/><stop offset="0" stop-color="#e9e925"/><stop offset="0" stop-color="#fcee21"/><stop offset="0" stop-color="#fbec21"/><stop offset="0" stop-color="#fae520"/><stop offset="0" stop-color="#f6d81e"/><stop offset="0" stop-color="#f1c61b"/><stop offset="0" stop-color="#ebaf18"/><stop offset="0" stop-color="#e49213"/><stop offset="0" stop-color="#db700e"/><stop offset="0" stop-color="#d04809"/><stop offset="0" stop-color="#c51c02"/><stop offset="0" stop-color="#c10e00"/><stop offset="0" stop-color="#cc3906"/><stop offset="0" stop-color="#db700e"/><stop offset="0" stop-color="#e79d15"/><stop offset="0" stop-color="#f0c01a"/><stop offset="0" stop-color="#f7d91e"/><stop offset="0" stop-color="#fbe920"/><stop offset="0" stop-color="#fcee21"/><stop offset="0.15" stop-color="#cbc04c"/><stop offset="0.38" stop-color="#847c8b"/><stop offset="0.59" stop-color="#4b47bd"/><stop offset="0.77" stop-color="#2220e1"/><stop offset="0.91" stop-color="#0909f7"/><stop offset="1" stop-color="blue"/></linearGradient><linearGradient id="linear-gradient-3" x1="26.54" y1="42.2" x2="42.81" y2="42.2" gradientUnits="userSpaceOnUse"><stop offset="0.17" stop-color="#39b54a"/><stop offset="0.2" stop-color="#3eb749"/><stop offset="0.24" stop-color="#4dbb46"/><stop offset="0.27" stop-color="#66c241"/><stop offset="0.31" stop-color="#88cc39"/><stop offset="0.36" stop-color="#b4d930"/><stop offset="0.4" stop-color="#e9e925"/><stop offset="0.41" stop-color="#fcee21"/><stop offset="0.54" stop-color="#fbec21"/><stop offset="0.6" stop-color="#fae520"/><stop offset="0.64" stop-color="#f6d81e"/><stop offset="0.67" stop-color="#f1c61b"/><stop offset="0.7" stop-color="#ebaf18"/><stop offset="0.73" stop-color="#e49213"/><stop offset="0.76" stop-color="#db700e"/><stop offset="0.78" stop-color="#d04809"/><stop offset="0.8" stop-color="#c51c02"/><stop offset="0.81" stop-color="#c10e00"/><stop offset="1" stop-color="#c10e00"/></linearGradient><linearGradient id="linear-gradient-4" x1="39.43" y1="40.76" x2="47.64" y2="40.76" gradientUnits="userSpaceOnUse"><stop offset="0.26" stop-color="#c10e00"/><stop offset="0.55" stop-color="#c10e00"/><stop offset="0.6" stop-color="#cc3906"/><stop offset="0.68" stop-color="#db700e"/><stop offset="0.75" stop-color="#e79d15"/><stop offset="0.83" stop-color="#f0c01a"/><stop offset="0.89" stop-color="#f7d91e"/><stop offset="0.95" stop-color="#fbe920"/><stop offset="1" stop-color="#fcee21"/></linearGradient><linearGradient id="linear-gradient-5" x1="46.62" y1="37" x2="59.1" y2="41.3" gradientUnits="userSpaceOnUse"><stop offset="0" stop-color="#39b54a"/><stop offset="0" stop-color="#3eb749"/><stop offset="0" stop-color="#4dbb46"/><stop offset="0" stop-color="#66c241"/><stop offset="0" stop-color="#88cc39"/><stop offset="0" stop-color="#b4d930"/><stop offset="0" stop-color="#e9e925"/><stop offset="0" stop-color="#fcee21"/><stop offset="0" stop-color="#fbec21"/><stop offset="0" stop-color="#fae520"/><stop offset="0" stop-color="#f6d81e"/><stop offset="0" stop-color="#f1c61b"/><stop offset="0" stop-color="#ebaf18"/><stop offset="0" stop-color="#e49213"/><stop offset="0" stop-color="#db700e"/><stop offset="0" stop-color="#d04809"/><stop offset="0" stop-color="#c51c02"/><stop offset="0" stop-color="#c10e00"/><stop offset="0" stop-color="#cc3906"/><stop offset="0" stop-color="#db700e"/><stop offset="0" stop-color="#e79d15"/><stop offset="0" stop-color="#f0c01a"/><stop offset="0" stop-color="#f7d91e"/><stop offset="0" stop-color="#fbe920"/><stop offset="0" stop-color="#fcee21"/><stop offset="0.09" stop-color="#eee02e"/><stop offset="0.27" stop-color="#c8bd4f"/><stop offset="0.52" stop-color="#8b8385"/><stop offset="0.81" stop-color="#3734ce"/><stop offset="1" stop-color="blue"/></linearGradient><linearGradient id="linear-gradient-6" x1="23.03" y1="45.81" x2="26.61" y2="45.81" gradientUnits="userSpaceOnUse"><stop offset="0.13" stop-color="#39b54a"/><stop offset="0.48" stop-color="#39b54a"/></linearGradient><linearGradient id="linear-gradient-7" x1="33.73" y1="44.78" x2="47.17" y2="21.5" gradientUnits="userSpaceOnUse"><stop offset="0.13" stop-color="#39b54a"/><stop offset="0.15" stop-color="#3eb749"/><stop offset="0.18" stop-color="#4dbb46"/><stop offset="0.2" stop-color="#66c241"/><stop offset="0.23" stop-color="#88cc39"/><stop offset="0.25" stop-color="#b4d930"/><stop offset="0.28" stop-color="#e9e925"/><stop offset="0.29" stop-color="#fcee21"/><stop offset="0.35" stop-color="#fbec21"/><stop offset="0.38" stop-color="#fae520"/><stop offset="0.4" stop-color="#f6d81e"/><stop offset="0.42" stop-color="#f1c61b"/><stop offset="0.44" stop-color="#ebaf18"/><stop offset="0.45" stop-color="#e49213"/><stop offset="0.46" stop-color="#db700e"/><stop offset="0.48" stop-color="#d04809"/><stop offset="0.49" stop-color="#c51c02"/><stop offset="0.49" stop-color="#c10e00"/><stop offset="0.6" stop-color="#c10e00"/><stop offset="0.6" stop-color="#c41a02"/><stop offset="0.61" stop-color="#d04608"/><stop offset="0.61" stop-color="#da6e0e"/><stop offset="0.62" stop-color="#e39113"/><stop offset="0.63" stop-color="#ebae18"/><stop offset="0.64" stop-color="#f1c61b"/><stop offset="0.65" stop-color="#f6d81e"/><stop offset="0.66" stop-color="#f9e420"/><stop offset="0.68" stop-color="#fbec21"/><stop offset="0.71" stop-color="#fcee21"/><stop offset="0.74" stop-color="#f7e925"/><stop offset="0.78" stop-color="#e9dc32"/><stop offset="0.82" stop-color="#d2c646"/><stop offset="0.86" stop-color="#b1a763"/><stop offset="0.9" stop-color="#877f88"/><stop offset="0.94" stop-color="#534eb6"/><stop offset="0.98" stop-color="#1716eb"/><stop offset="1" stop-color="blue"/></linearGradient><clipPath id="clip-path-3"><path class="cls-2" d="M26.8,40.81l15.89-9.37v12L26.8,52.85ZM34.39,45a5.18,5.18,0,0,0,2.35-4.07c0-1.5-1.06-2.1-2.37-1.35A5.2,5.2,0,0,0,32,43.63c0,1.5,1.07,2.1,2.37,1.35"/></clipPath><clipPath id="clip-path-4"><polygon class="cls-2" points="47.66 50.17 39.62 45.51 42.91 43.51 42.91 31.44 47.67 34.2 47.66 50.17"/></clipPath><clipPath id="clip-path-5"><path id="_" data-name="**" class="cls-2" d="M47.66,34.18l10.22-6V43.88l-10.22,6Z"/></clipPath><clipPath id="clip-path-6"><polygon class="cls-2" points="26.44 52.85 23.12 50.68 23.12 38.66 26.44 40.81 26.44 52.85"/></clipPath><clipPath id="clip-path-7"><path class="cls-2" d="M44.74,20.51l-10.19,6,4.68,2.75L23.06,38.66l3.69,2.15,16.16-9.37,4.75,2.74,10.22-6Z"/></clipPath><radialGradient id="radial-gradient" cx="-566.84" cy="189.58" r="37.62" gradientTransform="translate(494.04 -137.09) scale(0.83 0.83)" gradientUnits="userSpaceOnUse"><stop offset="0.03" stop-color="#fff"/><stop offset="0.12" stop-color="#efefef"/><stop offset="0.28" stop-color="#c7c6c7"/><stop offset="0.51" stop-color="#868486"/><stop offset="0.58" stop-color="#716f71"/><stop offset="0.64" stop-color="#424142"/><stop offset="0.7" stop-color="#1d1d1d"/><stop offset="0.73" stop-color="#0f0f0f"/></radialGradient><mask id="mask" x="14.81" y="19.22" width="11.12" height="13.78" maskUnits="userSpaceOnUse"><polygon class="cls-1" points="14.81 20.39 14.81 31.85 15.26 31.85 24.86 26.34 24.86 25.84 15.09 20.39 14.81 20.39"/></mask><radialGradient id="radial-gradient-2" cx="2266.16" cy="2673.85" r="15.78" gradientTransform="translate(2247.01 -1859.63) rotate(90) scale(0.83 0.83)" gradientUnits="userSpaceOnUse"><stop offset="0.12" stop-color="#9eeaff"/><stop offset="0.41" stop-color="#68b0c6"/><stop offset="0.81" stop-color="#185971"/></radialGradient><linearGradient id="linear-gradient-8" x1="21.54" y1="21.6" x2="12.65" y2="30.5" gradientUnits="userSpaceOnUse"><stop offset="0.19" stop-color="#006080"/><stop offset="0.61" stop-color="#98c2d0"/><stop offset="0.87" stop-color="#f0fbff"/></linearGradient><mask id="mask-2" x="13.85" y="18.57" width="12.08" height="15.09" maskUnits="userSpaceOnUse"><polygon class="cls-1" points="14.81 20.39 14.81 31.85 15.26 31.85 24.86 26.34 24.86 25.84 15.09 20.39 14.81 20.39"/></mask><radialGradient id="radial-gradient-3" cx="2266.71" cy="2675.25" r="17.39" xlink:href="#radial-gradient-2"/><linearGradient id="linear-gradient-9" x1="21.05" y1="21.11" x2="11.18" y2="30.99" xlink:href="#linear-gradient-8"/><linearGradient id="linear-gradient-10" x1="21.42" y1="21.79" x2="12.85" y2="30.36" gradientUnits="userSpaceOnUse"><stop offset="0" stop-color="#001b24"/><stop offset="0.5" stop-color="#1c627d"/><stop offset="1" stop-color="#37a7d4"/></linearGradient></defs><title>aaavvv_A33AAe__R21XArtboard 1</title><g class="cls-3"><polygon id="color" class="cls-4" points="39.2 44.83 34.35 41.98 34.45 26.32 39.12 29.07 39.2 44.83"/><g id="c1_" data-name="c1    *"><g class="cls-5"><g id="Blend_h" data-name="Blend  h"><line class="cls-6" x1="56.51" y1="71.22" x2="22.19" y2="49.96"/><line class="cls-6" x1="57.19" y1="67.53" x2="22.85" y2="46.46"/><line class="cls-6" x1="57.86" y1="63.84" x2="23.5" y2="42.95"/><line class="cls-6" x1="58.53" y1="60.15" x2="24.16" y2="39.45"/><line class="cls-6" x1="59.2" y1="56.46" x2="24.82" y2="35.94"/><line class="cls-6" x1="59.87" y1="52.77" x2="25.48" y2="32.43"/><line class="cls-6" x1="60.54" y1="49.08" x2="26.14" y2="28.93"/><line class="cls-6" x1="61.22" y1="45.39" x2="26.8" y2="25.42"/><line class="cls-6" x1="61.89" y1="41.7" x2="27.45" y2="21.92"/></g><g id="Blend_v" data-name="Blend   v"><line class="cls-7" x1="57.17" y1="23.48" x2="57.16" y2="63.19"/><line class="cls-8" x1="53.93" y1="22.66" x2="53.93" y2="62.37"/><line class="cls-9" x1="50.7" y1="21.84" x2="50.7" y2="61.55"/><line class="cls-10" x1="47.47" y1="21.02" x2="47.47" y2="60.73"/><line class="cls-11" x1="44.23" y1="20.2" x2="44.24" y2="59.9"/><line class="cls-12" x1="41" y1="19.38" x2="41" y2="59.08"/><line class="cls-13" x1="37.77" y1="18.56" x2="37.77" y2="58.26"/><line class="cls-14" x1="34.53" y1="17.74" x2="34.54" y2="57.44"/><line class="cls-15" x1="31.3" y1="16.92" x2="31.31" y2="56.62"/><line class="cls-16" x1="28.07" y1="16.09" x2="28.08" y2="55.8"/><line class="cls-17" x1="24.83" y1="15.27" x2="24.84" y2="54.98"/><line class="cls-18" x1="21.6" y1="14.45" x2="21.61" y2="54.16"/></g></g></g><path id="color_" data-name="color&gt;" class="cls-19" d="M36,39.26l-4.19-2.43a1.64,1.64,0,0,1,.69,1.51,5.18,5.18,0,0,1-2.35,4.08,1.66,1.66,0,0,1-1.68.16L32.7,45a1.66,1.66,0,0,0,1.68-.17,5.19,5.19,0,0,0,2.35-4.07A1.67,1.67,0,0,0,36,39.26Z"/><path id="color_ok" data-name="color ok" class="cls-20" d="M26.61,40.66l16.2-9.36,0,12.05L26.54,53.11Zm7.76,4.18a5.18,5.18,0,0,0,2.35-4.08c0-1.49-1.06-2.1-2.37-1.34A5.19,5.19,0,0,0,32,43.49c0,1.5,1.07,2.1,2.37,1.35"/><polygon id="color-2" data-name="color" class="cls-21" points="47.64 50.22 39.43 45.3 42.78 43.35 42.81 31.3 47.64 34.04 47.64 50.22"/><path id="color_2" data-name="color**" class="cls-22" d="M47.64,34l10.42-6V44.29L47.64,50.22Z"/><polygon id="color_bout_tenon_color_ok_" data-name="color bout tenon color ok   ***" class="cls-23" points="26.54 53.11 23.04 50.88 23.04 38.52 26.61 40.66 26.54 53.11"/><path id="color_top_ok_" data-name="color top ok    ***" class="cls-24" d="M44.93,20.21,34.44,26.32l4.68,2.76L22.77,38.3l3.84,2.36,16.2-9.36L47.64,34l10.42-6Z"/><path class="cls-2" d="M34.44,44.93a4.89,4.89,0,0,0,2.3-4c0-1.53-1.2-2.18-2.42-1.38a5.13,5.13,0,0,0-2.3,4c0,1.53,1.09,2.15,2.42,1.38"/><g id="tenon_grille" data-name="tenon grille"><g class="cls-25"><g id="Blend_h-2" data-name="Blend  h"><line class="cls-26" x1="58.66" y1="47.95" x2="23.13" y2="67.7"/><line class="cls-27" x1="57.49" y1="44.34" x2="22.13" y2="64.07"/><line class="cls-27" x1="56.32" y1="40.72" x2="21.14" y2="60.44"/><line class="cls-27" x1="55.15" y1="37.11" x2="20.14" y2="56.81"/><line class="cls-27" x1="53.97" y1="33.49" x2="19.14" y2="53.17"/><line class="cls-27" x1="52.8" y1="29.87" x2="18.15" y2="49.54"/><line class="cls-27" x1="51.63" y1="26.26" x2="17.15" y2="45.91"/><line class="cls-27" x1="50.46" y1="22.64" x2="16.16" y2="42.28"/></g><g id="Blend_V_ok" data-name="Blend  V  **  ok"><line class="cls-26" x1="44.21" y1="29.21" x2="44.21" y2="69.59"/><line class="cls-27" x1="40.42" y1="28.44" x2="40.42" y2="68.74"/><line class="cls-27" x1="36.62" y1="27.67" x2="36.63" y2="67.88"/><line class="cls-27" x1="32.82" y1="26.9" x2="32.84" y2="67.03"/><line class="cls-27" x1="29.02" y1="26.14" x2="29.04" y2="66.18"/><line class="cls-27" x1="25.23" y1="25.37" x2="25.25" y2="65.33"/><line class="cls-27" x1="21.43" y1="24.6" x2="21.46" y2="64.48"/><line class="cls-27" x1="17.63" y1="23.83" x2="17.67" y2="63.63"/><line class="cls-27" x1="13.83" y1="23.07" x2="13.87" y2="62.78"/></g></g></g><g id="face_cube_grille" data-name="face cube   *   grille"><g class="cls-28"><g id="Blend_h-3" data-name="Blend  h"><line class="cls-6" x1="55.61" y1="71.37" x2="21.28" y2="50.11"/><line class="cls-6" x1="56.28" y1="67.67" x2="21.94" y2="46.6"/><line class="cls-6" x1="56.95" y1="63.98" x2="22.59" y2="43.09"/><line class="cls-6" x1="57.62" y1="60.28" x2="23.25" y2="39.58"/><line class="cls-6" x1="58.29" y1="56.58" x2="23.91" y2="36.06"/><line class="cls-6" x1="58.96" y1="52.88" x2="24.57" y2="32.55"/><line class="cls-6" x1="59.64" y1="49.19" x2="25.23" y2="29.04"/><line class="cls-6" x1="60.31" y1="45.49" x2="25.89" y2="25.52"/><line class="cls-6" x1="60.98" y1="41.79" x2="26.55" y2="22.01"/></g><g id="Blend_v-2" data-name="Blend   v"><line class="cls-7" x1="57.19" y1="23.62" x2="57.18" y2="63.33"/><line class="cls-8" x1="53.95" y1="22.8" x2="53.95" y2="62.51"/><line class="cls-9" x1="50.72" y1="21.98" x2="50.72" y2="61.69"/><line class="cls-10" x1="47.49" y1="21.16" x2="47.49" y2="60.87"/><line class="cls-11" x1="44.25" y1="20.34" x2="44.26" y2="60.05"/><line class="cls-12" x1="41.02" y1="19.52" x2="41.02" y2="59.23"/><line class="cls-13" x1="37.79" y1="18.7" x2="37.79" y2="58.41"/><line class="cls-14" x1="34.55" y1="17.88" x2="34.56" y2="57.59"/><line class="cls-15" x1="31.32" y1="17.06" x2="31.33" y2="56.76"/><line class="cls-16" x1="28.09" y1="16.24" x2="28.1" y2="55.94"/><line class="cls-17" x1="24.85" y1="15.42" x2="24.86" y2="55.12"/><line class="cls-18" x1="21.62" y1="14.6" x2="21.63" y2="54.3"/></g></g></g><g id="cote_ok_grille" data-name="cote   **  ok   grille"><g class="cls-29"><g id="Blend_v-3" data-name="Blend v"><line class="cls-6" x1="34.08" y1="71.42" x2="68.15" y2="51"/><line class="cls-6" x1="32.86" y1="67.93" x2="66.93" y2="47.51"/><line class="cls-6" x1="31.64" y1="64.44" x2="65.7" y2="44.03"/><line class="cls-6" x1="30.41" y1="60.95" x2="64.48" y2="40.55"/><line class="cls-6" x1="29.19" y1="57.45" x2="63.26" y2="37.07"/><line class="cls-6" x1="27.96" y1="53.96" x2="62.04" y2="33.58"/><line class="cls-6" x1="26.74" y1="50.47" x2="60.81" y2="30.1"/><line class="cls-6" x1="25.52" y1="46.98" x2="59.59" y2="26.62"/><line class="cls-6" x1="24.29" y1="43.49" x2="58.37" y2="23.14"/></g><g id="Blend_h_" data-name="Blend  h   ***"><line class="cls-6" x1="30.67" y1="63.97" x2="30.67" y2="24.27"/><line class="cls-6" x1="34.08" y1="63.1" x2="34.08" y2="23.4"/><line class="cls-6" x1="37.49" y1="62.23" x2="37.49" y2="22.53"/><line class="cls-6" x1="40.9" y1="61.36" x2="40.9" y2="21.66"/><line class="cls-6" x1="44.31" y1="60.49" x2="44.31" y2="20.78"/><line class="cls-6" x1="47.72" y1="59.62" x2="47.72" y2="19.91"/><line class="cls-6" x1="51.13" y1="58.75" x2="51.13" y2="19.04"/><line class="cls-6" x1="54.54" y1="57.88" x2="54.54" y2="18.17"/><line class="cls-6" x1="57.95" y1="57.01" x2="57.95" y2="17.3"/><line class="cls-6" x1="61.36" y1="56.14" x2="61.36" y2="16.43"/></g></g></g><g id="face_tenon_ok_grille" data-name="face  tenon  * ok  grille"><g class="cls-30"><g id="Blend_h-4" data-name="Blend  h"><line class="cls-6" x1="39.96" y1="73.9" x2="5.64" y2="56.3"/><line class="cls-6" x1="40.37" y1="69.73" x2="6.01" y2="51.85"/><line class="cls-6" x1="40.77" y1="65.56" x2="6.38" y2="47.4"/><line class="cls-6" x1="41.17" y1="61.4" x2="6.75" y2="42.96"/><line class="cls-6" x1="41.58" y1="57.23" x2="7.12" y2="38.51"/><line class="cls-6" x1="41.98" y1="53.06" x2="7.49" y2="34.06"/><line class="cls-6" x1="42.38" y1="48.9" x2="7.86" y2="29.62"/><line class="cls-6" x1="42.79" y1="44.73" x2="8.23" y2="25.17"/></g><g id="Blend_v-4" data-name="Blend   v"><line class="cls-6" x1="40.99" y1="27.62" x2="40.99" y2="67.33"/><line class="cls-6" x1="38.94" y1="27.14" x2="38.94" y2="66.85"/><line class="cls-6" x1="36.88" y1="26.66" x2="36.88" y2="66.36"/><line class="cls-6" x1="34.82" y1="26.17" x2="34.83" y2="65.88"/><line class="cls-6" x1="32.77" y1="25.69" x2="32.77" y2="65.4"/><line class="cls-6" x1="30.71" y1="25.21" x2="30.72" y2="64.92"/><line class="cls-6" x1="28.66" y1="24.73" x2="28.66" y2="64.43"/><line class="cls-6" x1="26.6" y1="24.24" x2="26.61" y2="63.95"/><line class="cls-6" x1="24.54" y1="23.76" x2="24.55" y2="63.47"/><line class="cls-6" x1="22.49" y1="23.28" x2="22.5" y2="62.99"/><line class="cls-6" x1="20.43" y1="22.8" x2="20.44" y2="62.5"/><line class="cls-6" x1="18.38" y1="22.31" x2="18.39" y2="62.02"/></g></g></g><g id="top_Grille_ok_grillr" data-name="top Grille   *  ok   grillr"><g class="cls-31"><g id="Blend_h_2" data-name="Blend  h    ***"><line class="cls-6" x1="34.7" y1="53.18" x2="-0.17" y2="34.18"/><line class="cls-6" x1="38.31" y1="51.42" x2="3.49" y2="32.33"/><line class="cls-6" x1="41.91" y1="49.67" x2="7.15" y2="30.48"/><line class="cls-6" x1="45.51" y1="47.91" x2="10.81" y2="28.63"/><line class="cls-6" x1="49.12" y1="46.16" x2="14.46" y2="26.79"/><line class="cls-6" x1="52.72" y1="44.4" x2="18.12" y2="24.94"/><line class="cls-6" x1="56.32" y1="42.65" x2="21.78" y2="23.09"/><line class="cls-6" x1="59.93" y1="40.89" x2="25.43" y2="21.24"/><line class="cls-6" x1="63.53" y1="39.14" x2="29.09" y2="19.39"/><line class="cls-6" x1="67.14" y1="37.38" x2="32.75" y2="17.54"/><line class="cls-6" x1="70.74" y1="35.63" x2="36.4" y2="15.69"/><line class="cls-6" x1="74.34" y1="33.87" x2="40.06" y2="13.84"/></g><g id="Blend_v_" data-name="Blend   v   **"><line class="cls-6" x1="75.6" y1="37.19" x2="41.31" y2="57.21"/><line class="cls-6" x1="72.96" y1="34.86" x2="38.67" y2="54.88"/><line class="cls-6" x1="70.33" y1="32.54" x2="36.04" y2="52.55"/><line class="cls-6" x1="67.69" y1="30.21" x2="33.4" y2="50.22"/><line class="cls-6" x1="65.05" y1="27.88" x2="30.76" y2="47.9"/><line class="cls-6" x1="62.42" y1="25.55" x2="28.13" y2="45.57"/><line class="cls-6" x1="59.78" y1="23.22" x2="25.49" y2="43.24"/><line class="cls-6" x1="57.14" y1="20.89" x2="22.85" y2="40.91"/><line class="cls-6" x1="54.51" y1="18.56" x2="20.22" y2="38.58"/><line class="cls-6" x1="51.87" y1="16.24" x2="17.58" y2="36.25"/><line class="cls-6" x1="49.23" y1="13.91" x2="14.95" y2="33.92"/><line class="cls-6" x1="46.6" y1="11.58" x2="12.31" y2="31.6"/></g></g></g><path id="renfort_contour" data-name="renfort contour" class="cls-32" d="M23.06,38.66l3.69,2.15,16.17-9.43,4.74,2.8,10.42-6.06M42.92,31.38V43.29L26.75,52.85v-12l-3.69-2.15M38.51,29l-4.08-2.27"/><path id="renfort_contour-2" data-name="renfort contour" class="cls-32" d="M23.06,38.66l3.69,2.15,16.17-9.43,4.74,2.8,10.42-6.06M42.92,31.38V43.29L26.75,52.85v-12l-3.69-2.15M38.51,29l-4.08-2.27"/><path class="cls-33" d="M47.48,34.32m0,15.62V34.68"/><g id="contour"><path d="M44.88,20.36,58,28.22V43.88l-10.35,6-7.81-4.57L26.65,52.85,23,50.68V38.38l11.88-6.94v-5l10-6.09v0M33.33,45.3a2.05,2.05,0,0,0,1-.31,5,5,0,0,0,1.83-1.94,4.42,4.42,0,0,0,.42-3,1.08,1.08,0,0,0-1.13-.83,2.42,2.42,0,0,0-1,.26A5.39,5.39,0,0,0,32,43.56c0,1.08.54,1.74,1.32,1.74M44.88,19.36a1.13,1.13,0,0,0-.5.13.86.86,0,0,0-.18.14l-9.84,6a1,1,0,0,0-.48.86v4.39L22.5,37.52a1,1,0,0,0-.5.86v12.3a1,1,0,0,0,.49.85l3.64,2.18a1,1,0,0,0,.52.14,1,1,0,0,0,.49-.13l12.7-7.29,7.31,4.28a1,1,0,0,0,1,0l10.35-6a1,1,0,0,0,.5-.86V28.22a1,1,0,0,0-.49-.86L45.39,19.5a1.06,1.06,0,0,0-.51-.14ZM33.33,44.3c-.31,0-.32-.66-.32-.74a4.42,4.42,0,0,1,1.89-3.17,1.45,1.45,0,0,1,.56-.14.49.49,0,0,1,.14,0,.39.39,0,0,1,0,.1,3.37,3.37,0,0,1-.35,2.2,4.21,4.21,0,0,1-1.45,1.56,1,1,0,0,1-.51.17Z"/></g><g id="contour-2" data-name="contour"><path d="M44.88,20.36,58,28.22V43.88l-10.35,6-7.81-4.57L26.65,52.85,23,50.68V38.38l11.88-6.94v-5l10-6.09v0M33.33,45.3a2.05,2.05,0,0,0,1-.31,5,5,0,0,0,1.83-1.94,4.42,4.42,0,0,0,.42-3,1.08,1.08,0,0,0-1.13-.83,2.42,2.42,0,0,0-1,.26A5.39,5.39,0,0,0,32,43.56c0,1.08.54,1.74,1.32,1.74M44.88,19.36a1.13,1.13,0,0,0-.5.13.86.86,0,0,0-.18.14l-9.84,6a1,1,0,0,0-.48.86v4.39L22.5,37.52a1,1,0,0,0-.5.86v12.3a1,1,0,0,0,.49.85l3.64,2.18a1,1,0,0,0,.52.14,1,1,0,0,0,.49-.13l12.7-7.29,7.31,4.28a1,1,0,0,0,1,0l10.35-6a1,1,0,0,0,.5-.86V28.22a1,1,0,0,0-.49-.86L45.39,19.5a1.06,1.06,0,0,0-.51-.14ZM33.33,44.3c-.31,0-.32-.66-.32-.74a4.42,4.42,0,0,1,1.89-3.17,1.45,1.45,0,0,1,.56-.14.49.49,0,0,1,.14,0,.39.39,0,0,1,0,.1,3.37,3.37,0,0,1-.35,2.2,4.21,4.21,0,0,1-1.45,1.56,1,1,0,0,1-.51.17Z"/></g></g><g id="Play__reduitv71_copy_2" data-name="Play__reduitv71 % **** copy 2"><circle class="cls-34" cx="19" cy="25.94" r="12.85"/><path d="M19,13.49A12.45,12.45,0,1,1,6.55,25.94,12.44,12.44,0,0,1,19,13.49m0-.8A13.25,13.25,0,1,0,32.25,25.94,13.26,13.26,0,0,0,19,12.69Z"/><g class="cls-35"><g id="APPROCHE_2_OK" data-name="APPROCHE 2   OK"><polygon class="cls-36" points="15.16 19.23 25.93 25.99 15.16 33 15.16 19.23"/><path class="cls-37" d="M17.05,22.66,22.41,26,17.05,29.5V22.66m-1.89-3.44V33l10.77-7L15.16,19.22Z"/></g></g><g class="cls-38"><g id="APPROCHE_2_OK-2" data-name="APPROCHE 2   OK"><polygon class="cls-39" points="13.85 18.57 25.93 25.99 13.85 33.66 13.85 18.57"/><path class="cls-40" d="M15.74,22,22.35,26l-6.61,4.2V22m-1.89-3.39V33.66L25.93,26,13.85,18.57Z"/></g></g><path class="cls-41" d="M15.13,20.61l9.47,5.46-9.47,5.47V20.61m0-.78a.77.77,0,0,0-.78.78V31.54a.77.77,0,0,0,.78.78.76.76,0,0,0,.39-.1L25,26.75a.78.78,0,0,0,0-1.35l-9.47-5.47a.76.76,0,0,0-.39-.1Z"/></g></svg>