<svg id="base_1X_copy_2" data-name="base  1X copy 2" xmlns="http://www.w3.org/2000/svg" xmlns:xlink="http://www.w3.org/1999/xlink" viewBox="0 0 64 64"><defs><style>.cls-1,.cls-26,.cls-27{fill:none;}.cls-2{clip-path:url(#clip-path);}.cls-3{fill:#fff;}.cls-4{fill:#285977;}.cls-5{clip-path:url(#clip-path-2);}.cls-6{opacity:0.5;fill:url(#Light_BLUE_gradient_TOP);}.cls-7{fill:url(#linear-gradient);}.cls-8{fill:url(#linear-gradient-2);}.cls-9{fill:url(#linear-gradient-3);}.cls-10{fill:url(#linear-gradient-4);}.cls-11{fill:url(#linear-gradient-5);}.cls-12{clip-path:url(#clip-path-3);}.cls-13{fill:url(#linear-gradient-6);}.cls-14{fill:url(#linear-gradient-7);}.cls-15{fill:url(#linear-gradient-8);}.cls-16{fill:url(#linear-gradient-9);}.cls-17{fill:url(#linear-gradient-10);}.cls-18{fill:url(#linear-gradient-11);}.cls-19{fill:url(#linear-gradient-12);}.cls-20{fill:url(#linear-gradient-13);}.cls-21{fill:url(#linear-gradient-14);}.cls-22,.cls-23,.cls-24,.cls-25{stroke:#00415f;}.cls-22,.cls-23,.cls-24,.cls-25,.cls-26,.cls-27{stroke-miterlimit:10;}.cls-22{fill:url(#Medium_BLUE_gradient_FRONT);}.cls-23{fill:url(#Medium_BLUE_gradient_FRONT-2);}.cls-24{fill:url(#Medium_BLUE_gradient_FRONT-3);}.cls-25{stroke-width:1.03px;fill:url(#Medium_BLUE_gradient_FRONT-4);}.cls-26{stroke:#797979;}.cls-26,.cls-27,.cls-34,.cls-35,.cls-36,.cls-37,.cls-38,.cls-39,.cls-44,.cls-46,.cls-47,.cls-48,.cls-49,.cls-50,.cls-51{stroke-linecap:round;}.cls-26,.cls-27{stroke-width:0.3px;}.cls-27{stroke:#000;}.cls-28{fill:url(#linear-gradient-15);}.cls-29{fill:#831300;}.cls-30{fill:#003755;}.cls-31{fill:url(#linear-gradient-16);}.cls-32{fill:url(#linear-gradient-17);}.cls-33{fill:url(#linear-gradient-18);}.cls-34,.cls-35,.cls-36,.cls-37,.cls-38,.cls-39,.cls-44,.cls-46,.cls-47,.cls-48,.cls-49,.cls-50,.cls-51{stroke:#053755;stroke-linejoin:round;}.cls-34,.cls-35,.cls-36,.cls-37,.cls-44,.cls-46,.cls-47,.cls-48,.cls-49{stroke-width:0.4px;}.cls-34{fill:url(#linear-gradient-19);}.cls-35{fill:url(#linear-gradient-20);}.cls-36{fill:url(#linear-gradient-21);}.cls-37{fill:url(#linear-gradient-22);}.cls-38,.cls-39,.cls-50,.cls-51{stroke-width:0.28px;}.cls-38{fill:url(#linear-gradient-23);}.cls-39{fill:url(#linear-gradient-24);}.cls-40{isolation:isolate;}.cls-41{fill:#2d6d8b;}.cls-42{fill:#aadcfa;}.cls-43{fill:#5a9ab8;}.cls-44{fill:url(#linear-gradient-25);}.cls-45{fill:url(#linear-gradient-26);}.cls-46,.cls-51{fill:url(#linear-gradient-27);}.cls-47{fill:url(#linear-gradient-28);}.cls-48{fill:url(#linear-gradient-29);}.cls-49{fill:url(#linear-gradient-30);}.cls-50{fill:url(#linear-gradient-31);}</style><clipPath id="clip-path"><polygon id="TAB" class="cls-1" points="5.03 11 60.02 11 60.02 49 35.02 49 35.02 48 26.02 48 26.02 49 18.02 49 18.02 48 9.03 48 9.03 49 5.03 49 5.03 11"/></clipPath><clipPath id="clip-path-2"><path class="cls-1" d="M8,13.11H59v33H37l4.59-3.65c2.31-1.84,1.5-5.34-1.59-5.34H39c-.55,0-1-.73-1-1.28,0,0-.06-.31-.34-1.18-.31-1.16-1.37-1.78-3.15-1.85l-1.88,0c-.91,0-1.73-.27-2-1.16-.1-.39-.22-.84-.35-1.3-.47-1.72-4.37-.69-4.37-.69s-1.38-5.5-4.34-5.5H18.7c-2,0-3.64,2-3.7,4,0,1.19,0,2,0,2H11.9c-2.34,0-3.74,2.75-3.09,4.93C9.27,36.54,12,42.08,12,42.08l-2,4H8Zm11.87,31.4-.07,1.56H27l-1.31-3.68c-.93-1.87-2.24-1.34-3.12-.75Z"/></clipPath><linearGradient id="Light_BLUE_gradient_TOP" x1="8.03" y1="29.5" x2="57" y2="29.5" gradientUnits="userSpaceOnUse"><stop offset="0" stop-color="#a0e1fa"/><stop offset="0.99" stop-color="#73c3e1"/></linearGradient><linearGradient id="linear-gradient" x1="49.96" y1="41.31" x2="53.07" y2="46.69" gradientUnits="userSpaceOnUse"><stop offset="0" stop-color="#fc3f05"/><stop offset="1" stop-color="#c10e00"/></linearGradient><linearGradient id="linear-gradient-2" x1="47.03" y1="41" x2="56" y2="41" xlink:href="#linear-gradient"/><linearGradient id="linear-gradient-3" x1="47.03" y1="38" x2="56" y2="38" xlink:href="#linear-gradient"/><linearGradient id="linear-gradient-4" x1="47" y1="35" x2="56" y2="35" xlink:href="#linear-gradient"/><linearGradient id="linear-gradient-5" x1="47" y1="32" x2="56" y2="32" xlink:href="#linear-gradient"/><clipPath id="clip-path-3"><path class="cls-1" d="M7,13.11H59v33H37l4.59-3.65c2.31-1.84,1.5-5.34-1.59-5.34H39c-.55,0-1-.73-1-1.28,0,0-.06-.31-.34-1.18-.31-1.16-1.38-1.78-3.15-1.85l-1.88,0c-.91,0-1.74-.27-2-1.16-.1-.39-.22-.84-.35-1.3-.47-1.72-4.37-.69-4.37-.69s-1.38-5.5-4.34-5.5H18.7c-2,0-3.64,2-3.71,4,0,1.19,0,2,0,2H11.9c-2.34,0-3.74,2.75-3.09,4.93C9.27,36.54,12,42.08,12,42.08l-2,4H7Zm12.86,31.4-.06,1.56H27l-1.31-3.68c-.94-1.87-2.24-1.34-3.12-.75Z"/></clipPath><linearGradient id="linear-gradient-6" x1="37.32" y1="41.08" x2="40.68" y2="46.92" gradientUnits="userSpaceOnUse"><stop offset="0" stop-color="#379614"/><stop offset="1" stop-color="#55b432"/></linearGradient><linearGradient id="linear-gradient-7" x1="34" y1="41" x2="44" y2="41" xlink:href="#linear-gradient-6"/><linearGradient id="linear-gradient-8" x1="34" y1="38" x2="44" y2="38" xlink:href="#linear-gradient-6"/><linearGradient id="linear-gradient-9" x1="34" y1="35" x2="44" y2="35" xlink:href="#linear-gradient-6"/><linearGradient id="linear-gradient-10" x1="34" y1="32" x2="44" y2="32" xlink:href="#linear-gradient-6"/><linearGradient id="linear-gradient-11" x1="24.34" y1="41.08" x2="27.71" y2="46.92" xlink:href="#linear-gradient"/><linearGradient id="linear-gradient-12" x1="21.02" y1="41" x2="31.02" y2="41" xlink:href="#linear-gradient-6"/><linearGradient id="linear-gradient-13" x1="21.02" y1="38" x2="31.02" y2="38" xlink:href="#linear-gradient"/><linearGradient id="linear-gradient-14" x1="21.02" y1="35" x2="31.02" y2="35" xlink:href="#linear-gradient"/><linearGradient id="Medium_BLUE_gradient_FRONT" x1="-234.72" y1="421.26" x2="-234.16" y2="420.86" gradientTransform="matrix(9.3, 0, 0, -9.3, 2199.83, 3958.18)" gradientUnits="userSpaceOnUse"><stop offset="0" stop-color="#8cd7f5"/><stop offset="1" stop-color="#376e8c"/></linearGradient><linearGradient id="Medium_BLUE_gradient_FRONT-2" x1="-234.52" y1="422.57" x2="-234.12" y2="422.31" xlink:href="#Medium_BLUE_gradient_FRONT"/><linearGradient id="Medium_BLUE_gradient_FRONT-3" x1="31.7" y1="44.86" x2="35.36" y2="47.44" gradientTransform="matrix(1, 0, 0, 1, 0, 0)" xlink:href="#Medium_BLUE_gradient_FRONT"/><linearGradient id="Medium_BLUE_gradient_FRONT-4" x1="32.91" y1="35.91" x2="35.54" y2="37.62" gradientTransform="matrix(1, 0, 0, 1, 0, 0)" xlink:href="#Medium_BLUE_gradient_FRONT"/><linearGradient id="linear-gradient-15" x1="8.19" y1="17.91" x2="8.87" y2="19.09" xlink:href="#linear-gradient"/><linearGradient id="linear-gradient-16" x1="17.45" y1="18.42" x2="17.55" y2="18.58" xlink:href="#linear-gradient"/><linearGradient id="linear-gradient-17" x1="12.45" y1="14.42" x2="12.55" y2="14.58" xlink:href="#linear-gradient"/><linearGradient id="linear-gradient-18" x1="12.44" y1="19.42" x2="12.54" y2="19.58" xlink:href="#linear-gradient"/><linearGradient id="linear-gradient-19" x1="27.53" y1="25.58" x2="22.69" y2="17.19" gradientUnits="userSpaceOnUse"><stop offset="0" stop-color="#74c3e1"/><stop offset="1" stop-color="#a3def6"/></linearGradient><linearGradient id="linear-gradient-20" x1="27.71" y1="22.42" x2="26.49" y2="20.32" xlink:href="#linear-gradient-19"/><linearGradient id="linear-gradient-21" x1="26.3" y1="20.26" x2="24.81" y2="17.68" gradientUnits="userSpaceOnUse"><stop offset="0" stop-color="#386e8c"/><stop offset="1" stop-color="#8dd7f4"/></linearGradient><linearGradient id="linear-gradient-22" x1="24.62" y1="17.36" x2="23.55" y2="15.5" xlink:href="#linear-gradient-19"/><linearGradient id="linear-gradient-23" x1="29.2" y1="24.99" x2="27.68" y2="22.36" xlink:href="#linear-gradient-21"/><linearGradient id="linear-gradient-24" x1="25.35" y1="27.2" x2="20.27" y2="18.4" gradientUnits="userSpaceOnUse"><stop offset="0" stop-color="#285a78"/><stop offset="1" stop-color="#83bedc"/></linearGradient><linearGradient id="linear-gradient-25" x1="40.57" y1="25.64" x2="35.71" y2="17.22" xlink:href="#linear-gradient-19"/><linearGradient id="linear-gradient-26" x1="35.03" y1="16.06" x2="40.83" y2="26.09" gradientUnits="userSpaceOnUse"><stop offset="0" stop-color="#c10e00"/><stop offset="0.03" stop-color="#c21201"/><stop offset="0.06" stop-color="#c51f02"/><stop offset="0.1" stop-color="#cb3406"/><stop offset="0.13" stop-color="#d3510a"/><stop offset="0.16" stop-color="#dd770f"/><stop offset="0.2" stop-color="#e9a516"/><stop offset="0.23" stop-color="#f7db1e"/><stop offset="0.24" stop-color="#fcee21"/><stop offset="0.32" stop-color="#faed21"/><stop offset="0.35" stop-color="#f3eb23"/><stop offset="0.38" stop-color="#e6e826"/><stop offset="0.4" stop-color="#d4e229"/><stop offset="0.42" stop-color="#bddc2e"/><stop offset="0.43" stop-color="#a0d334"/><stop offset="0.45" stop-color="#7ec93c"/><stop offset="0.46" stop-color="#57be44"/><stop offset="0.47" stop-color="#39b54a"/><stop offset="0.54" stop-color="#37b04f"/><stop offset="0.62" stop-color="#33a15e"/><stop offset="0.7" stop-color="#2b8877"/><stop offset="0.8" stop-color="#206699"/><stop offset="0.89" stop-color="#123ac5"/><stop offset="0.99" stop-color="#0105fa"/><stop offset="1" stop-color="blue"/></linearGradient><linearGradient id="linear-gradient-27" x1="38.39" y1="27.27" x2="33.28" y2="18.43" xlink:href="#linear-gradient-24"/><linearGradient id="linear-gradient-28" x1="40.75" y1="22.49" x2="39.5" y2="20.32" xlink:href="#linear-gradient-19"/><linearGradient id="linear-gradient-29" x1="39.3" y1="20.26" x2="37.81" y2="17.68" xlink:href="#linear-gradient-21"/><linearGradient id="linear-gradient-30" x1="37.62" y1="17.36" x2="36.56" y2="15.52" xlink:href="#linear-gradient-19"/><linearGradient id="linear-gradient-31" x1="42.3" y1="25.02" x2="40.75" y2="22.32" xlink:href="#linear-gradient-21"/></defs><title>ddd__A33AAe__R21XArtboard 1X</title><g id="ajustement_couleur_copy_8" data-name="ajustement couleur copy 8"><g id="fond_base_tableau" data-name="fond   ***  base tableau"><g class="cls-2"><g id="TAB-2" data-name="TAB"><rect class="cls-3" x="5.55" y="11.55" width="53.91" height="36.9"/><path class="cls-4" d="M59,12V48H6V12H59m.9-.9H5.1V48.9H59.9V11.1Z"/></g></g></g><g class="cls-5"><path class="cls-6" d="M8,13H19V46H8ZM20,46H32V13H20Zm13,0H45V13H33Zm13,0H57V13H46Z"/><g id="c4_5" data-name="c4 5"><rect class="cls-7" x="47.03" y="43" width="8.97" height="2"/></g><g id="c4_4" data-name="c4 4"><rect class="cls-8" x="47.03" y="40" width="8.97" height="2"/></g><g id="c4_3" data-name="c4 3"><rect class="cls-9" x="47.03" y="37" width="8.97" height="2"/></g><g id="c4_2" data-name="c4 2"><rect class="cls-10" x="47" y="34" width="9" height="2"/></g><g id="c4_1" data-name="c4 1"><rect class="cls-11" x="47" y="31" width="9" height="2"/></g></g><g id="coll_3" data-name="coll 3"><g class="cls-12"><g id="c3_5" data-name="c3 5"><rect class="cls-13" x="34" y="43" width="10" height="2"/></g><g id="c3_4" data-name="c3 4"><rect class="cls-14" x="34" y="40" width="10" height="2"/></g><g id="c3_3" data-name="c3 3"><rect class="cls-15" x="34" y="37" width="10" height="2"/></g><g id="c3_2" data-name="c3 2"><rect class="cls-16" x="34" y="34" width="10" height="2"/></g><g id="c3_1" data-name="c3 1"><rect class="cls-17" x="34" y="31" width="10" height="2"/></g></g></g><g id="coll2"><g class="cls-12"><g id="c2_4" data-name="c2 4"><rect class="cls-18" x="21.02" y="43" width="10" height="2"/></g><g id="c2_3" data-name="c2 3"><rect class="cls-19" x="21.02" y="40" width="10" height="2"/></g><g id="c2_2" data-name="c2 2"><rect class="cls-20" x="21.02" y="37" width="10" height="2"/></g><g id="c2_1" data-name="c2 1"><rect class="cls-21" x="21.02" y="34" width="10" height="2"/></g></g></g><g id="bonhomme_copy" data-name="bonhomme copy"><g id="le_grand" data-name="le grand"><path class="cls-22" d="M12.66,53a1.84,1.84,0,0,1-.75-.16,1.82,1.82,0,0,1-1.08-1.67,1.85,1.85,0,0,1,.16-.76l3.42-8.3L11,34.48A1.84,1.84,0,0,1,11.82,32a1.55,1.55,0,0,1,2.18.84l2.85,6L26.06,32a1.73,1.73,0,0,1,2.5.25,1.53,1.53,0,0,1-.31,2.31l-10.31,7.7L14.34,52A1.84,1.84,0,0,1,12.66,53Z"/><circle class="cls-23" cx="20.19" cy="28.85" r="3.25"/></g><g id="le_petit_copy_2" data-name="le petit copy 2"><path class="cls-24" d="M28.84,54.07a1.24,1.24,0,0,1-.53-.12,1.29,1.29,0,0,1-.76-1.17,1.23,1.23,0,0,1,.12-.52l2.39-5.8-2.37-5.35A1.29,1.29,0,0,1,30,39.93l1.92,4.5,6.34-5.33a1.28,1.28,0,0,1,1.62,2l-7.34,6.14L30,53.31A1.29,1.29,0,0,1,28.84,54.07Z"/><path class="cls-25" d="M36.37,36.69a2.27,2.27,0,1,1-2.27-2.27A2.27,2.27,0,0,1,36.37,36.69Z"/></g></g></g><g id="c1_copy_7" data-name="c1 copy 7"><g id="Layer_67_copy_9" data-name="Layer 67 copy 9"><line class="cls-26" x1="8.47" y1="18.49" x2="12.52" y2="14.49"/><line class="cls-26" x1="17.51" y1="18.5" x2="12.52" y2="14.49"/><line class="cls-26" x1="17.51" y1="18.5" x2="15.5" y2="25.51"/><line class="cls-26" x1="9.53" y1="25.51" x2="8.47" y2="18.49"/><line class="cls-26" x1="15.5" y1="25.51" x2="9.53" y2="25.51"/><line class="cls-26" x1="17.51" y1="18.5" x2="9.53" y2="25.51"/><line class="cls-26" x1="15.5" y1="25.51" x2="8.47" y2="18.49"/><line class="cls-26" x1="15.5" y1="25.51" x2="12.52" y2="14.49"/><line class="cls-26" x1="9.53" y1="25.51" x2="12.52" y2="14.49"/></g><g id="Layer_67_copy_10" data-name="Layer 67 copy 10"><line class="cls-26" x1="8.47" y1="18.49" x2="12.52" y2="14.49"/><line class="cls-26" x1="17.51" y1="18.5" x2="12.52" y2="14.49"/><line class="cls-26" x1="17.51" y1="18.5" x2="15.5" y2="25.51"/><line class="cls-26" x1="9.53" y1="25.51" x2="8.47" y2="18.49"/><line class="cls-26" x1="15.5" y1="25.51" x2="9.53" y2="25.51"/><line class="cls-26" x1="17.51" y1="18.5" x2="9.53" y2="25.51"/><line class="cls-26" x1="15.5" y1="25.51" x2="8.47" y2="18.49"/><line class="cls-26" x1="15.5" y1="25.51" x2="12.52" y2="14.49"/><line class="cls-26" x1="9.53" y1="25.51" x2="12.52" y2="14.49"/></g><g id="Layer_67_copy_11" data-name="Layer 67 copy 11"><line class="cls-27" x1="8.47" y1="18.49" x2="12.52" y2="14.49"/><line class="cls-27" x1="17.51" y1="18.5" x2="12.52" y2="14.49"/><line class="cls-27" x1="17.51" y1="18.5" x2="15.5" y2="25.51"/><line class="cls-27" x1="9.53" y1="25.51" x2="8.47" y2="18.49"/><line class="cls-27" x1="15.5" y1="25.51" x2="9.53" y2="25.51"/><line class="cls-27" x1="17.51" y1="18.5" x2="9.53" y2="25.51"/><line class="cls-27" x1="15.5" y1="25.51" x2="8.47" y2="18.49"/><line class="cls-27" x1="15.5" y1="25.51" x2="12.52" y2="14.49"/><line class="cls-27" x1="9.53" y1="25.51" x2="12.52" y2="14.49"/></g><g id="les_pts_copy_9" data-name="les pts copy 9"><g id="S1"><rect class="cls-28" x="8.03" y="18" width="1" height="1"/><polygon class="cls-29" points="9.03 18 8.03 18 8.03 19 9.03 19 9.03 18 9.03 18"/></g><rect id="S1-2" data-name="S1" class="cls-30" x="10" y="25" width="1" height="1"/><rect id="S1-3" data-name="S1" class="cls-30" x="15" y="25" width="1" height="1"/><g id="S1-4" data-name="S1"><rect class="cls-31" x="17.43" y="18.43" width="0.13" height="0.13"/><polygon class="cls-29" points="18 18 17 18 17 19 18 19 18 18 18 18"/></g><g id="S1-5" data-name="S1"><rect class="cls-32" x="12.43" y="14.43" width="0.13" height="0.13"/><polygon class="cls-29" points="13 14 12 14 12 15 13 15 13 14 13 14"/></g><g id="S1-6" data-name="S1"><rect class="cls-33" x="12.42" y="19.43" width="0.13" height="0.13"/><polygon class="cls-29" points="12.99 19 11.99 19 11.99 20 12.99 20 12.99 19 12.99 19"/></g></g></g><g id="Layer_113_copy_6" data-name="Layer 113 copy 6"><path id="BORD" class="cls-34" d="M27.75,19.21h0V15.68h0l-3-.68-4.39,2v6.92L26.12,27l4.61-3.49v-3.2Z"/><polygon class="cls-35" points="23.32 22.19 27.75 19.21 30.73 20.29 26.12 23.49 23.32 22.19"/><polygon class="cls-36" points="23.32 18.24 23.32 22.19 27.75 19.21 27.75 15.68 23.32 18.24"/><polygon class="cls-37" points="20.33 17.01 24.72 15 27.75 15.68 23.32 18.24 20.33 17.01"/><polygon class="cls-38" points="26.12 26.98 26.12 23.49 30.73 20.29 30.73 23.49 26.12 26.98"/><polygon class="cls-39" points="26.12 26.98 20.32 23.93 20.33 17.01 23.32 18.24 23.32 22.19 26.12 23.49 26.12 26.98"/></g><g id="c3_copy_8" data-name="c3 copy 8"><g class="cls-40"><polygon class="cls-4" points="46.3 24.16 46.31 17.14 50.8 14.84 53.6 15.99 53.6 19.19 55.7 20.4 55.7 24.09 51.39 26.98 46.3 24.16"/><path class="cls-4" d="M50.81,15.17l2.49,1v3.17l2.1,1.21v3.36l-4,2.7L46.61,24V17.33l4.2-2.16m0-.66-.25.12-4.2,2.16L46,17v7.38l.31.17,4.77,2.65.33.18.3-.21,4-2.7.27-.18v-4l-.3-.17-1.8-1V15.79l-.37-.15-2.49-1-.25-.1Z"/><polygon class="cls-41" points="51.38 23.14 55.4 20.57 55.4 23.93 51.38 26.63 51.38 23.14"/><polygon class="cls-42" points="49.04 21.86 53.3 19.36 55.4 20.57 51.38 23.14 49.04 21.86"/><polygon class="cls-41" points="49.04 18.34 53.3 16.19 53.3 19.36 49.04 21.86 49.04 18.34"/><polygon class="cls-42" points="46.61 17.33 50.81 15.17 53.3 16.19 49.04 18.34 46.61 17.33"/><polygon class="cls-43" points="49.04 18.34 49.04 21.86 51.38 23.14 51.38 26.63 46.6 23.98 46.61 17.33 49.04 18.34"/><polygon class="cls-4" points="49.04 18.34 49.04 21.86 51.38 23.14 51.38 26.63 46.6 23.98 46.61 17.33 49.04 18.34"/></g></g><g id="Layer_113_copy_6-2" data-name="Layer 113 copy 6"><path id="BORD-2" data-name="BORD" class="cls-44" d="M40.74,19.21h0V15.68h0l-3-.68-4.39,2v6.89l6,3.05,4.45-3.49V20.28Z"/><polygon class="cls-45" points="40.74 19.21 40.75 15.68 37.72 15 33.33 17.04 33.32 23.93 39.28 26.98 43.73 23.49 43.73 20.28 40.74 19.21"/><polygon class="cls-46" points="39.28 26.98 33.32 23.93 33.33 17.04 36.32 18.24 36.32 22.19 39.28 23.49 39.28 26.98"/><polygon class="cls-47" points="36.32 22.19 40.74 19.21 43.73 20.28 39.28 23.49 36.32 22.19"/><polygon class="cls-48" points="36.32 18.24 36.32 22.19 40.74 19.21 40.75 15.68 36.32 18.24"/><polygon class="cls-49" points="33.33 17.04 37.72 15 40.75 15.68 36.32 18.24 33.33 17.04"/><polygon class="cls-50" points="39.28 26.98 39.28 23.49 43.73 20.28 43.73 23.49 39.28 26.98"/><polygon class="cls-51" points="39.28 26.98 33.32 23.93 33.33 17.04 36.32 18.24 36.32 22.19 39.28 23.49 39.28 26.98"/></g></svg>