<svg xmlns="http://www.w3.org/2000/svg" viewBox="0 0 64 64"><g id="Layer_10" data-name="Layer 10"><g id="XFlow_" data-name="XFlow  ****"><path id="x_" data-name="x    ***" d="M30.66,34.06H29a4.3,4.3,0,0,0-3.08,1.17c-.93.86-1.83,1.75-2.75,2.62a.59.59,0,0,0-.16.67c.18.58.33,1.16.51,1.74a.77.77,0,0,1,0,.56c-.43,1-.85,1.92-1.27,2.88-.05.11-.08.26-.23.24s-.15-.18-.18-.3c-.29-1-.57-2.07-.84-3.11-.08-.33-.15-.42-.44-.14-1.15,1.13-2.33,2.23-3.48,3.36a1,1,0,0,1-.77.31H13.6c-.15,0-.38.09-.44-.11s.18-.26.3-.36c2.38-1.82,3.95-3.64,6.34-5.44a.64.64,0,0,0,.28-.82c-.29-1-.54-1.94-.79-2.91-.07-.26-.18-.38-.45-.36s-.64,0-1,0-.37-.26-.39-.51.21-.27.39-.27h3.23a.38.38,0,0,1,.44.32c.19.71.41,1.4.61,2.11.15.51.15.52.56.2l3.63-2.74a6.5,6.5,0,0,1,4.09-1.31h3.43c.45,0,.49.06.3.48s-.41.91-.59,1.37a.53.53,0,0,1-.6.37c-.77,0-1.54,0-2.32,0Z" style="fill:#838383"/><g id="x_2" data-name="x    ***"><path d="M30.66,34.06H29a4.3,4.3,0,0,0-3.08,1.17c-.93.86-1.83,1.75-2.75,2.62a.59.59,0,0,0-.16.67c.18.58.33,1.16.51,1.74a.77.77,0,0,1,0,.56c-.43,1-.85,1.92-1.27,2.88-.05.11-.08.26-.23.24s-.15-.18-.18-.3c-.29-1-.57-2.07-.84-3.11-.08-.33-.15-.42-.44-.14-1.15,1.13-2.33,2.23-3.48,3.36a1,1,0,0,1-.77.31H13.6c-.15,0-.38.09-.44-.11s.18-.26.3-.36c2.38-1.82,3.95-3.64,6.34-5.44a.64.64,0,0,0,.28-.82c-.29-1-.54-1.94-.79-2.91-.07-.26-.18-.38-.45-.36s-.64,0-1,0-.37-.26-.39-.51.21-.27.39-.27h3.23a.38.38,0,0,1,.44.32c.19.71.41,1.4.61,2.11.15.51.15.52.56.2l3.63-2.74a6.5,6.5,0,0,1,4.09-1.31h3.43c.45,0,.49.06.3.48s-.41.91-.59,1.37a.53.53,0,0,1-.6.37c-.77,0-1.54,0-2.32,0Z" style="fill:#ff0f0f"/></g><path id="F_" data-name="F ***" d="M28.41,36.55c.8,0,1.59,0,2.39,0,.31,0,.43,0,.27.38s-.42.93-.61,1.4a.44.44,0,0,1-.47.3c-.67,0-1.35,0-2,0a.68.68,0,0,0-.78.52c-.64,1.52-1.32,3-2,4.54a.53.53,0,0,1-.58.39c-.56,0-1.13,0-1.69,0-.35,0-.44-.06-.29-.4.83-1.86,1.64-3.73,2.46-5.59.3-.68.58-1.37.9-2a2.94,2.94,0,0,1,3-1.56c.24,0,.17.14.11.28l-.6,1.4A.6.6,0,0,0,28.41,36.55Z" style="fill:#191919"/><path id="L_" data-name="L ****" d="M30.88,44.05h-.83c-.46,0-.48,0-.28-.47L32,38.47c.9-2.06,1.81-4.13,2.7-6.2a.61.61,0,0,1,.68-.44c.55,0,1.1,0,1.65,0,.37,0,.39.1.25.4l-3.14,7.19c-.61,1.4-1.24,2.79-1.83,4.2-.14.31-.3.47-.65.44a6.77,6.77,0,0,0-.78,0Z" style="fill:#191919"/><path id="O_" data-name="O ****" d="M44,37.58a2.5,2.5,0,0,0-1.58-2.28A4.71,4.71,0,0,0,40.55,35a6,6,0,0,0-5.85,6.51A2.72,2.72,0,0,0,36.53,44a4.48,4.48,0,0,0,2.8.16A6.36,6.36,0,0,0,44,37.58ZM39.52,42a1.92,1.92,0,0,1-1.14.3c-.81,0-1.31-.74-1.28-1.87a4.57,4.57,0,0,1,2-3.32,2,2,0,0,1,.79-.33,1.37,1.37,0,0,1,1.81,1.49A4.29,4.29,0,0,1,39.52,42Z" style="fill:#191919"/><path d="M57.1,35.17c-.56,0-1.13,0-1.7,0a.53.53,0,0,0-.53.3c-.5.82-1,1.62-1.55,2.44s-.93,1.46-1.4,2.19c-.05.08-.08.19-.21.17s-.08-.13-.07-.21c.19-1.21.22-2.43.36-3.65,0-.24-.06-.28-.27-.28h-2a.51.51,0,0,0-.51.27c-.48.75-1,1.48-1.49,2.23L46.6,40.44l-.1,0,.08-.87h0c0-.15,0-.3,0-.45,0-1,.08-2.09.14-3.14,0-.64,0-.64-.58-.64-.39,0-.77,0-1.16,0-.23,0-.35.05-.36.31-.09,2.71-.19,5.43-.3,8.14,0,.25.08.31.3.3.48,0,1,0,1.45,0a.56.56,0,0,0,.53-.31q1.5-2.39,3-4.75c.06-.1.1-.23.31-.26a1.74,1.74,0,0,0-.11.76c-.12,1.4-.23,2.8-.36,4.2,0,.28,0,.36.32.35h1.7a.42.42,0,0,0,.4-.22q2.7-4.19,5.42-8.35C57.48,35.19,57.35,35.17,57.1,35.17Z" style="fill:#191919"/></g></g><g id="FINAL_BADGE" data-name="FINAL BADGE"><path d="M29,14.75a7.25,7.25,0,0,0-14.39-1.22A7.25,7.25,0,1,0,22.39,22,7.26,7.26,0,0,0,29,14.75Z" style="fill:#fff"/><path d="M21.5,24.5a9,9,0,0,1-8.2-5.29.51.51,0,0,1,0-.48.5.5,0,0,1,.42-.23H18.7a.52.52,0,0,1,.32.11,3.93,3.93,0,0,0,2.48.89,4,4,0,0,0,0-8,3.93,3.93,0,0,0-2.48.89.52.52,0,0,1-.32.11H13.76a.5.5,0,0,1-.42-.23.51.51,0,0,1,0-.48A9,9,0,1,1,21.5,24.5Z" style="fill:#075081"/><path d="M21.5,7a8.5,8.5,0,1,1-7.74,12H18.7a4.5,4.5,0,1,0,0-7H13.76A8.49,8.49,0,0,1,21.5,7m0-1a9.51,9.51,0,0,0-8.65,5.59,1,1,0,0,0,.07.95,1,1,0,0,0,.84.46H18.7a1,1,0,0,0,.63-.22A3.46,3.46,0,0,1,21.5,12a3.5,3.5,0,0,1,0,7,3.46,3.46,0,0,1-2.17-.78A1,1,0,0,0,18.7,18H13.76a1,1,0,0,0-.84.46,1,1,0,0,0-.07.95A9.5,9.5,0,1,0,21.5,6Z" style="fill:#fff"/><path d="M15.5,30.5a9,9,0,1,1,8.2-12.71.51.51,0,0,1,0,.48.5.5,0,0,1-.42.23H18.3a.52.52,0,0,1-.32-.11,3.93,3.93,0,0,0-2.48-.89,4,4,0,0,0,0,8A3.93,3.93,0,0,0,18,24.61a.52.52,0,0,1,.32-.11h4.94a.5.5,0,0,1,.42.23.51.51,0,0,1,0,.48A9,9,0,0,1,15.5,30.5Z" style="fill:#075081"/><path d="M15.5,13a8.49,8.49,0,0,1,7.74,5H18.3a4.5,4.5,0,1,0,0,7h4.94A8.5,8.5,0,1,1,15.5,13m0-1a9.5,9.5,0,1,0,8.65,13.41,1,1,0,0,0-.07-.95,1,1,0,0,0-.84-.46H18.3a1,1,0,0,0-.63.22A3.46,3.46,0,0,1,15.5,25a3.5,3.5,0,0,1,0-7,3.46,3.46,0,0,1,2.17.78,1,1,0,0,0,.63.22h4.94a1,1,0,0,0,.84-.46,1,1,0,0,0,.07-.95A9.51,9.51,0,0,0,15.5,12Z" style="fill:#fff"/></g></svg>