<?xml version="1.0" encoding="UTF-8"?><svg id="IT_1" xmlns="http://www.w3.org/2000/svg" viewBox="0 0 64 64"><path d="M56.98,28.88l-6.19,9.69c-.1,.15-.21,.21-.38,.21h-2.08c-.17,0-.22-.06-.21-.23l.52-5.83s.02-.09-.04-.08l-3.72,5.95c-.09,.14-.18,.2-.34,.2h-1.86c-.18,0-.24-.06-.23-.24l.36-9.42c0-.18,.06-.3,.24-.3h1.88c.16,0,.2,.12,.2,.27l-.24,5.69c.06,0,.07-.06,.1-.11l3.03-4.67c.08-.13,.17-.19,.33-.19h2.42c.17,0,.22,.05,.21,.23l-.4,4.72c.08-.02,.1-.1,.13-.16l3.55-5.67c.08-.13,.17-.12,.32-.12h2.4s.02,.03,0,.06Z" fill="#3d3d3d"/><path d="M16.49,34.22l-4.48,4.39c-.12,.11-.24,.17-.4,.17H7.25c-.09,0-.21,.03-.24-.1-.04-.12,.06-.18,.13-.24l8.53-6.64c.11-.09,.15-.16,.11-.31l-1.11-4.21c-.04-.17-.13-.23-.3-.22h-1.3c-.19,0-.29-.05-.3-.26l-.05-.37c-.03-.16,.05-.22,.18-.24h3.94c.2,0,.3,.05,.36,.26l.9,3.2c.05,.18,.09,.18,.23,.07l4.43-3.4c1.38-.98,2.4-1.31,3.96-1.32h4.44c.2,.01,.24,.08,.16,.27l-.83,1.93c-.07,.21-.2,.28-.42,.28h-4.75c-1.21-.03-2.23,.38-3.12,1.17l-3.32,3.21c-.09,.08-.11,.15-.07,.27l.59,2.06c.04,.14,.04,.26-.02,.4l-1.5,3.49c-.04,.1-.07,.21-.21,.19-.13-.01-.14-.12-.16-.22l-1.02-3.85Z" fill="#005686"/><path d="M26.46,38.78c-.27,0-.31-.08-.21-.32l5.65-13.18c.09-.21,.19-.29,.42-.28h2.23c.26,0,.28,.04,.18,.27l-5.69,13.25c-.07,.18-.2,.26-.39,.26h-2.19Z" fill="#3d3d3d"/><path d="M23.92,32.66c-.15,0-.21,.05-.27,.18l-2.44,5.7c-.08,.18-.17,.24-.36,.24h-2.31c-.21,0-.24-.04-.16-.23l3.8-8.83c.58-1.34,1.99-1.77,3.36-1.77,.17,0,.19,.06,.13,.22l-.84,1.95q-.09,.21,.15,.21h2.71c.24,0,.25,.01,.15,.24l-.82,1.91c-.06,.14-.15,.19-.3,.19h-2.81Z" fill="#3d3d3d"/><path d="M35.64,39c3.37,0,6.51-3.25,6.51-6.97,0-2.15-1.07-3.54-3.9-3.54-3.57,0-6.47,3.19-6.47,6.86s3.77,3.65,3.86,3.65Zm3.88-6.84c0,2.5-1.96,4.65-3.51,4.65-1.42,0-1.55-1.46-1.55-1.94,0-1.65,1.54-4.36,3.47-4.36,1.48,0,1.59,1.25,1.59,1.65Z" fill="#3d3d3d"/></svg>