<svg xmlns="http://www.w3.org/2000/svg" xmlns:xlink="http://www.w3.org/1999/xlink" width="64" height="64" viewBox="0 0 64 64">
  <defs>
    <clipPath id="clip-Appicon">
      <rect width="64" height="64"/>
    </clipPath>
  </defs>
  <g id="Appicon" clip-path="url(#clip-Appicon)">
    <rect width="64" height="64" fill="#fff"/>
    <g id="Group_11318" data-name="Group 11318" transform="translate(-170.195 -201.033)">
      <g id="Group_11312" data-name="Group 11312" transform="translate(174.853 243.941)">
        <path id="Shape" d="M290.558,281.266a3.451,3.451,0,0,1-3.541-3.742,3.527,3.527,0,0,1,3.513-3.769,3.185,3.185,0,0,1,2.464.994,3.805,3.805,0,0,1,.856,2.583v.605h-4.859a1.926,1.926,0,0,0,.481,1.255,1.488,1.488,0,0,0,1.108.451,1.215,1.215,0,0,0,1.338-.907h1.868l.005.027a2.871,2.871,0,0,1-1.021,1.819A3.5,3.5,0,0,1,290.558,281.266Zm-.028-5.887a1.52,1.52,0,0,0-1.506,1.348h2.816a1.278,1.278,0,0,0-1.206-1.346C290.6,275.378,290.565,275.378,290.53,275.379Z" transform="translate(-239.028 -271.217)"/>
        <path id="Path" d="M261.591,267.844h2.258l2.509,3.813,2.509-3.813h2.23v9.969h-2.077v-6.6l-2.677,4.127-.053-.275-2.647-3.8v6.557h-2.054Z" transform="translate(-224.48 -267.837)"/>
        <path id="Path-2" d="M243.12,283.968l1.059-2.614-2.788-7.208h2.147l1.673,4.76,1.673-4.76h2.035l-3.792,9.822Z" transform="translate(-212.923 -271.443)"/>
        <path id="Shape-2" d="M225.691,277.575h-4.3v-9.74h4.2a3.115,3.115,0,0,1,2.364.864,2.3,2.3,0,0,1,.623,1.651v.027a2.272,2.272,0,0,1-1.19,2.1,2.37,2.37,0,0,1,1.695,2.4v.027C229.078,276.6,227.843,277.575,225.691,277.575Zm-2.367-4.02V275.7h2.367c.921,0,1.408-.366,1.408-1.059v-.027c0-.693-.509-1.059-1.472-1.059Zm0-3.84v2.061h1.837c.941,0,1.436-.357,1.436-1.032v-.027c0-.646-.464-1-1.308-1Z" transform="translate(-201.477 -267.828)"/>
        <path id="Path_228" data-name="Path 228" d="M178.591,277.811a4.766,4.766,0,0,1-1.92-.365,3.177,3.177,0,0,1-1.317-1.014,2.551,2.551,0,0,1-.5-1.5h2.1a1.082,1.082,0,0,0,.493.856,1.951,1.951,0,0,0,1.152.327,1.82,1.82,0,0,0,1.171-.362,1.2,1.2,0,0,0-.033-1.9,2.14,2.14,0,0,0-1.326-.372h-.918v-1.507h.919a1.815,1.815,0,0,0,1.159-.353,1.206,1.206,0,0,0,.06-1.815,1.485,1.485,0,0,0-1.017-.342,1.8,1.8,0,0,0-1.092.332,1.1,1.1,0,0,0-.471.886h-2a2.514,2.514,0,0,1,.486-1.48,3.14,3.14,0,0,1,1.272-1,4.373,4.373,0,0,1,1.812-.36,4.1,4.1,0,0,1,1.785.365,2.947,2.947,0,0,1,1.191.984,2.357,2.357,0,0,1,.421,1.386,1.881,1.881,0,0,1-.513,1.36,2.366,2.366,0,0,1-1.344.69v.076a2.625,2.625,0,0,1,1.657.74,2.1,2.1,0,0,1,.565,1.511,2.347,2.347,0,0,1-.482,1.474,3.266,3.266,0,0,1-1.346,1.014A4.915,4.915,0,0,1,178.591,277.811Zm8.843-.133h-3.493v-9.7h3.521a5.325,5.325,0,0,1,2.562.58,3.969,3.969,0,0,1,1.653,1.665,6.137,6.137,0,0,1,0,5.2,3.983,3.983,0,0,1-1.66,1.672A5.36,5.36,0,0,1,187.434,277.678Zm-1.41-1.757h1.323a2.814,2.814,0,0,0,2.11-.74,4.221,4.221,0,0,0,0-4.714,2.816,2.816,0,0,0-2.105-.734h-1.326Z" transform="translate(-174.853 -267.836)"/>
      </g>
      <g id="Group_11317" data-name="Group 11317" transform="translate(186.571 209.033)">
        <rect id="Rectangle_1005" data-name="Rectangle 1005" width="6.367" height="3.184" transform="translate(12.417 6.657)"/>
        <path id="Path_382" data-name="Path 382" d="M247.18,213.844H215.852v2.724h2.043v23.156h2.724v-9.535h6.811v-2.724h-6.811v-10.9h21.794v10.9H235.6v2.724h6.811v9.535h2.724V216.568h2.043Z" transform="translate(-215.852 -213.844)" fill="#f7cf4c"/>
      </g>
    </g>
  </g>
</svg>
