<svg xmlns="http://www.w3.org/2000/svg" viewBox="0 0 64 64"><defs><style>.cls-1{fill:#eb2629;}.cls-2{fill:#b82025;}.cls-3{fill:#530303;}.cls-4{fill:#fff;}.cls-5{fill:none;stroke:#370101;stroke-linecap:round;stroke-linejoin:round;stroke-width:0.9px;}.cls-6{fill:#075081;}</style></defs><g id="FINAL_SolidWorks_reduced" data-name="FINAL SolidWorks reduced"><path class="cls-1" d="M15.77,21.78l18.14-5a4.22,4.22,0,0,1,2.6.09c.59.14,17.34,4.8,17.34,4.8l.06,2.42L35.05,32.36,15.83,25.42Z"/><path class="cls-2" d="M15.52,22.34V46.6l19.31,7.65V28.8a1.17,1.17,0,0,0-.89-1.21L16.13,21.81C15.55,21.6,15.55,22.35,15.52,22.34Z"/><path class="cls-3" d="M54.15,22.27V46.53L34.84,54.18V28.73a1.2,1.2,0,0,1,.89-1.21l17.8-5.78C54.22,21.51,54.15,22.27,54.15,22.27Z"/><path class="cls-4" d="M49.49,45.09,47.12,46l-1.9-12.33h0L43,47.59l-2.5,1L37.83,30.34l2.58-.89,1.66,12h0l1.69-13,2.59-.93,1.92,11.94h0l1.21-13,2.67-1Z"/><path class="cls-4" d="M21.82,39.88A4.11,4.11,0,0,0,25.09,44c1.1.33,2.77.43,2.77-1.45s-2.14-3-4.25-4.34-4.3-3.1-4.31-6.59c0-3.82,2.77-4.77,5.37-3.95a7.86,7.86,0,0,1,5.73,7.75l-3-.94a3.66,3.66,0,0,0-2.83-3.68c-1-.31-2.18-.13-2.17,1.43s.69,1.82,4.28,4.12c1,.66,4.23,2.49,4.23,6.66,0,3.36-2,5.25-5.91,4.09a8.52,8.52,0,0,1-6.13-8.4Z"/><path class="cls-5" d="M15.5,22.45V46a1.61,1.61,0,0,0,.56,1l18.4,7.22A2.45,2.45,0,0,0,36.22,54l17.37-7.2a1.26,1.26,0,0,0,.91-1.07V22.29a1.22,1.22,0,0,0-1-1.05L36.59,16.61a7,7,0,0,0-2.92.12L16.85,21.24C15.52,21.58,15.49,22.39,15.5,22.45Z"/></g><g id="FINAL_BADGE" data-name="FINAL BADGE"><path class="cls-4" d="M29,14.75a7.25,7.25,0,0,0-14.39-1.22A7.25,7.25,0,1,0,22.39,22,7.26,7.26,0,0,0,29,14.75Z"/><path class="cls-6" d="M21.5,24.5a9,9,0,0,1-8.2-5.29.51.51,0,0,1,0-.48.5.5,0,0,1,.42-.23H18.7a.52.52,0,0,1,.32.11,3.93,3.93,0,0,0,2.48.89,4,4,0,0,0,0-8,3.93,3.93,0,0,0-2.48.89.52.52,0,0,1-.32.11H13.76a.5.5,0,0,1-.42-.23.51.51,0,0,1,0-.48A9,9,0,1,1,21.5,24.5Z"/><path class="cls-4" d="M21.5,7a8.5,8.5,0,1,1-7.74,12H18.7a4.5,4.5,0,1,0,0-7H13.76A8.49,8.49,0,0,1,21.5,7m0-1a9.51,9.51,0,0,0-8.65,5.59,1,1,0,0,0,.07.95,1,1,0,0,0,.84.46H18.7a1,1,0,0,0,.63-.22A3.46,3.46,0,0,1,21.5,12a3.5,3.5,0,0,1,0,7,3.46,3.46,0,0,1-2.17-.78A1,1,0,0,0,18.7,18H13.76a1,1,0,0,0-.84.46,1,1,0,0,0-.07.95A9.5,9.5,0,1,0,21.5,6Z"/><path class="cls-6" d="M15.5,30.5a9,9,0,1,1,8.2-12.71.51.51,0,0,1,0,.48.5.5,0,0,1-.42.23H18.3a.52.52,0,0,1-.32-.11,3.93,3.93,0,0,0-2.48-.89,4,4,0,0,0,0,8A3.93,3.93,0,0,0,18,24.61a.52.52,0,0,1,.32-.11h4.94a.5.5,0,0,1,.42.23.51.51,0,0,1,0,.48A9,9,0,0,1,15.5,30.5Z"/><path class="cls-4" d="M15.5,13a8.49,8.49,0,0,1,7.74,5H18.3a4.5,4.5,0,1,0,0,7h4.94A8.5,8.5,0,1,1,15.5,13m0-1a9.5,9.5,0,1,0,8.65,13.41,1,1,0,0,0-.07-.95,1,1,0,0,0-.84-.46H18.3a1,1,0,0,0-.63.22A3.46,3.46,0,0,1,15.5,25a3.5,3.5,0,0,1,0-7,3.46,3.46,0,0,1,2.17.78,1,1,0,0,0,.63.22h4.94a1,1,0,0,0,.84-.46,1,1,0,0,0,.07-.95A9.51,9.51,0,0,0,15.5,12Z"/></g></svg>