<svg xmlns="http://www.w3.org/2000/svg" xmlns:xlink="http://www.w3.org/1999/xlink" viewBox="0 0 64 64" xmlns:v="https://vecta.io/nano"><pattern width="20" height="20" patternUnits="userSpaceOnUse"  viewBox="22.1 -42.1 20 20" overflow="visible"><g fill="#844138"><path d="M39.959-20.01l4.243-4.243 20.01 20.011L59.97.001zm-20 0l4.243-4.243L44.213-4.242 39.97.001zm-20-.001l4.243-4.243L24.213-4.242 19.97 0z"/><use xlink:href="#E"/><use xlink:href="#E" x="-20"/><use xlink:href="#E" x="-40"/><use xlink:href="#E" y="-20"/><use xlink:href="#E" x="-20" y="-20"/><use xlink:href="#E" x="-40" y="-20"/></g></pattern><linearGradient  gradientUnits="userSpaceOnUse" x1="0" y1="0" x2=".5" y2=".866"><stop offset="0" stop-color="#f5f6f6"/><stop offset=".992" stop-color="#d2d3d3"/></linearGradient><linearGradient gradientUnits="userSpaceOnUse" x1="0" y1="0" x2=".5" y2=".866"><stop offset="0" stop-color="#ababab"/><stop offset="1" stop-color="#5b5b5b"/></linearGradient><linearGradient gradientUnits="userSpaceOnUse" x1="0" y1="0" x2="-.5" y2="-.866"><stop offset="0" stop-color="#386f8d"/><stop offset="1" stop-color="#8dd7f4"/></linearGradient><path d="M32 53c-11.6 0-21-9.4-21-21s9.4-21 21-21 21 9.4 21 21c0 5.6-2.2 10.9-6.2 14.8-3.9 4-9.2 6.2-14.8 6.2z" fill="#1f1f1f"/><path d="M32,50.9c-10.4,0-18.9-8.4-18.9-18.9S21.6,13.1,32,13.1S50.9,21.6,50.9,32c0,5-2,9.8-5.5,13.3     C41.8,48.9,37,50.9,32,50.9z" fill="#bababb"/><path d="M32 51.2C21.9 51.2 13.8 43 13.8 33c0-10.1 8.2-18.2 18.2-18.2 10.1 0 18.2 8.2 18.2 18.2 0 4.8-1.9 9.5-5.3 12.9s-8.1 5.3-12.9 5.3z" fill="#262626"/><radialGradient id="C" cx="13.356" cy="1.19" r=".5" gradientTransform="matrix(26.062 0 0 -26.062 -316.0936 63.0227)" gradientUnits="userSpaceOnUse"><stop offset=".107" stop-color="#fff"/><stop offset=".209" stop-color="#fafafa" stop-opacity=".984"/><stop offset=".32" stop-color="#ededed" stop-opacity=".933"/><stop offset=".435" stop-color="#d7d7d7" stop-opacity=".847"/><stop offset=".553" stop-color="#b9b9b9" stop-opacity=".729"/><stop offset=".673" stop-color="#929292" stop-opacity=".576"/><stop offset=".795" stop-color="#626262" stop-opacity=".388"/><stop offset=".915" stop-color="#2b2b2b" stop-opacity=".173"/><stop offset="1" stop-opacity="0"/></radialGradient><path d="M32 45c-7.2 0-13-5.8-13-13s5.8-13 13-13 13 5.8 13 13c0 3.5-1.4 6.8-3.8 9.2-2.4 2.5-5.7 3.8-9.2 3.8z" opacity=".39" fill="url(#C)"/><path d="M33.9 34.2c-2.3 2.2-3.5 5.3-3.5 8.5 0 .5 0 1.1.1 1.6.6.1 1.3.2 2 .2a12.04 12.04 0 0 0 12-12c0-.5 0-1.1-.1-1.6-.6-.1-1.3-.2-2-.2-3.3 0-6.3 1.2-8.5 3.5z" opacity=".26" fill="#fff" enable-background="new"/><g opacity=".73" fill="#f1f1f2"><path d="M19.93 21.83l3.3 2.2c.2.1.4.1.5-.1l.1-.1c1.8-1.8 4.2-2.8 6.7-2.9.2 0 .4-.2.4-.4v-3.9c0-.2-.2-.4-.4-.4a14.45 14.45 0 0 0-10.6 5c-.2.2-.2.5 0 .6zm1.7 4.6l-3.3-2.2c-.2-.1-.5-.1-.6.1-.9 1.9-1.5 4-1.5 6.1 0 .2.2.4.4.4h3.9c.2 0 .4-.2.4-.4 0-1.2.3-2.5.8-3.6.1-.1.1-.3-.1-.4z"/></g><path d="M24.516 22.396c1.3-1 3-.9 3.7.1s.2 2.6-1.1 3.5c-1.3 1-3 .9-3.7-.1-.8-1-.3-2.6 1.1-3.5z" fill="#bababb"/><path d="M29.016 28.196c.9-.6 2-.6 2.5.1s.1 1.8-.8 2.4c-.9.7-2 .6-2.5-.1s-.1-1.8.8-2.4zm4.6 5.8c.5-.3 1.1-.3 1.3 0s.1.9-.4 1.2-1.1.3-1.3 0-.1-.9.4-1.2zm-1.6-2.1c.5-.3 1.1-.3 1.3 0s.1.9-.4 1.2-1.1.3-1.3 0 0-.8.4-1.2z" opacity=".61" enable-background="new" fill="#f1f1f2"/><g fill="#bababb"><path d="M36.916 37.996c1.3-1 3-.9 3.7.1s.2 2.6-1.1 3.5c-1.3 1-3 .9-3.7-.1-.8-1-.3-2.6 1.1-3.5z" opacity=".9" enable-background="new"/><path d="M42.9 23.2h0c-.1-.1-.2-.1-.2 0-.1.1-.1.1 0 .2 4.2 6.5 2.3 15.1-4.2 19.3a13.79 13.79 0 0 1-15.1 0c-.1-.1-.2 0-.2 0v.2h0c5.4 5.4 14.3 5.4 19.7 0s5.5-14.2 0-19.7h0z"/></g><defs ><path id="E" d="M39.959-40.01l4.243-4.243 20.011 20.011-4.243 4.243z"/></defs></svg>