<?xml version="1.0" encoding="utf-8"?>
<!-- Generator: Adobe Illustrator 24.1.2, SVG Export Plug-In . SVG Version: 6.00 Build 0)  -->
<svg version="1.1" xmlns="http://www.w3.org/2000/svg" xmlns:xlink="http://www.w3.org/1999/xlink" x="0px" y="0px"
	 viewBox="0 0 64 64" style="enable-background:new 0 0 64 64;" xml:space="preserve">
<style type="text/css">
	.st0{fill:none;}
	.st1{fill:#844138;}
	.st2{display:none;}
	.st3{display:inline;}
	.st4{fill:#EA4F37;}
	.st5{display:inline;opacity:0.5;fill:#D1D4D4;}
	.st6{display:inline;opacity:0.3;}
	.st7{fill:url(#New_Pattern_Swatch_2);}
	.st8{opacity:0.5;fill:#FFFFFF;}
	.st9{fill:#F4F5F6;}
	.st10{fill:#D1D4D4;}
	.st11{fill:none;stroke:#00FF00;stroke-miterlimit:10;}
	.st12{fill:none;stroke:#00FF00;stroke-miterlimit:10;stroke-dasharray:3.2727,1.0909;}
	.st13{fill:none;stroke:#00FF00;stroke-miterlimit:10;stroke-dasharray:1.0909,1.0909,3.2727,1.0909;}
	.st14{fill:#EB2629;}
	.st15{fill:#B82025;}
	.st16{fill:#530303;}
	.st17{fill:#FFFFFF;}
	.st18{fill:none;stroke:#370101;stroke-width:0.9047;stroke-linecap:round;stroke-linejoin:round;stroke-miterlimit:1;}
</style>
<pattern  width="20" height="20" patternUnits="userSpaceOnUse" id="New_Pattern_Swatch_2" viewBox="22.12 -42.12 20 20" style="overflow:visible;">
	<g>
		<rect x="22.12" y="-42.12" class="st0" width="20" height="20"/>
		
			<rect x="49.12" y="-26.26" transform="matrix(0.7071 -0.7071 0.7071 0.7071 23.837 33.3051)" class="st1" width="6" height="28.28"/>
		
			<rect x="29.12" y="-26.26" transform="matrix(0.7071 -0.7071 0.7071 0.7071 17.9792 19.163)" class="st1" width="6" height="28.28"/>
		
			<rect x="9.12" y="-26.26" transform="matrix(0.7071 -0.7071 0.7071 0.7071 12.1213 5.0208)" class="st1" width="6" height="28.28"/>
		
			<rect x="49.12" y="-46.26" transform="matrix(0.7071 -0.7071 0.7071 0.7071 37.9792 27.4472)" class="st1" width="6" height="28.28"/>
		
			<rect x="29.12" y="-46.26" transform="matrix(0.7071 -0.7071 0.7071 0.7071 32.1213 13.3051)" class="st1" width="6" height="28.28"/>
		
			<rect x="9.12" y="-46.26" transform="matrix(0.7071 -0.7071 0.7071 0.7071 26.2635 -0.837)" class="st1" width="6" height="28.28"/>
		
			<rect x="49.12" y="-66.26" transform="matrix(0.7071 -0.7071 0.7071 0.7071 52.1213 21.5894)" class="st1" width="6" height="28.28"/>
		
			<rect x="29.12" y="-66.26" transform="matrix(0.7071 -0.7071 0.7071 0.7071 46.2635 7.4472)" class="st1" width="6" height="28.28"/>
		
			<rect x="9.12" y="-66.26" transform="matrix(0.7071 -0.7071 0.7071 0.7071 40.4056 -6.6949)" class="st1" width="6" height="28.28"/>
	</g>
</pattern>
<g id="Layer_1" class="st2">
</g>
<g id="info" class="st2">
	<g class="st3">
		<path class="st4" d="M4,2v46h56V2H4z M51,44H13V6h38V44z"/>
	</g>
	<path id="pedestal" class="st5" d="M53.6,24.45l-0.06-0.12C53.46,24.19,52.59,23,49.64,23H14c-2.97,0-3.52,1.12-3.6,1.36
		C6.69,35.87,3.64,45.3,3.63,45.51l0.52,12.3c0,2.2,2.69,2.68,3.73,2.68h48.37c1.04,0,3.73-0.48,3.73-2.66
		c0.11-2.67-0.28,6.62,0.52-12.35C61.02,46.75,53.64,24.57,53.6,24.45z M11.33,24.71c0-0.01,0.4-0.71,2.67-0.71h35.64
		c2.12,0,2.89,0.69,3.04,0.84c7.11,21.49,6.8,20.51,6.82,20.66C59.48,46,59.86,48,57,48H7c-2.84,0-2.34-1.77-2.37-2.48
		C4.63,45.39,11.3,24.81,11.33,24.71z"/>
	<g id="no-go_zone" class="st6">
		<path class="st7" d="M0,0v64h64V0H0z M60,48H4V2h56V48z"/>
	</g>
</g>
<g id="info_r2021x" class="st2">
	<g id="pedestal_r2021x" class="st3">
		<path class="st8" d="M63,64H1c-0.55,0-1-0.45-1-1V1c0-0.55,0.45-1,1-1h62c0.55,0,1,0.45,1,1v62C64,63.55,63.55,64,63,64z"/>
		<rect x="1" y="1" class="st9" width="62" height="62"/>
		<rect x="1" y="1" class="st10" width="2" height="62"/>
	</g>
	<g id="no-go_zone_1_" class="st6">
		<path class="st7" d="M0,0v64h64V0H0z M57,57H7V7h50V57z"/>
	</g>
	<g class="st3">
		<path class="st4" d="M57,7v50H7V7H57 M58,6h-1H7H6v1v50v1h1h50h1v-1V7V6L58,6z"/>
	</g>
</g>
<g id="ENOUSWC_x5F_AP_x5F_appicon">
	<g>
		<path class="st14" d="M10.52,17l20.27-5.46c1.48-0.41,2.24-0.05,2.9,0.1s19.37,5.28,19.37,5.28l0.07,2.66l-21.07,9.06L10.59,21
			L10.52,17z"/>
		<path class="st15" d="M10.23,17.62v26.67l21.58,8.41V24.72c0,0,0.15-0.89-0.99-1.32c0,0-19.18-6.13-19.9-6.36
			C10.27,16.8,10.26,17.62,10.23,17.62z"/>
		<path class="st16" d="M53.39,17.54v26.67l-21.58,8.41V24.64c0,0-0.11-0.89,0.99-1.32c0,0,19.18-6.13,19.9-6.36
			C53.47,16.7,53.39,17.54,53.39,17.54z"/>
		<g>
			<path class="st17" d="M48.19,42.63l-2.65,1.02l-2.13-13.56l-0.04,0.01l-2.41,15.28l-2.8,1.07l-3-20.03l2.88-0.98l1.86,13.19
				l0.03-0.01l1.89-14.3l2.9-1.02l2.14,13.13l0.04-0.01l1.35-14.3l2.99-1.1L48.19,42.63z"/>
		</g>
		<path class="st17" d="M17.27,36.9c0.01,2.7,1.77,3.96,3.65,4.52c1.23,0.37,3.1,0.47,3.1-1.59c0-2.18-2.39-3.27-4.74-4.77
			c-2.38-1.52-4.8-3.42-4.82-7.25c-0.02-4.19,3.09-5.24,6-4.34c3.34,1.03,6.4,3.83,6.4,8.53l-3.39-1.03
			c-0.12-2.48-1.48-3.53-3.16-4.05c-1.12-0.35-2.43-0.14-2.42,1.57c0,1.57,0.77,2.01,4.79,4.54c1.16,0.72,4.72,2.74,4.72,7.32
			c0,3.69-2.28,5.78-6.6,4.5c-3.53-1.04-6.87-4.24-6.85-9.24L17.27,36.9z"/>
		<path class="st18" d="M10.21,17.74v25.91c0.14,0.78,0.63,1.12,0.63,1.12L31.4,52.7c0.81,0.34,1.97-0.27,1.97-0.27l19.4-7.92
			c0.95-0.27,1.02-1.17,1.02-1.17V17.56c-0.07-0.95-1.09-1.15-1.09-1.15l-18.93-5.09c-1.49-0.34-3.26,0.14-3.26,0.14L11.72,16.4
			C10.23,16.78,10.2,17.67,10.21,17.74z"/>
	</g>
</g>
</svg>
