<?xml version="1.0" encoding="iso-8859-1"?>
<!-- Generator: Adobe Illustrator 23.1.0, SVG Export Plug-In . SVG Version: 6.00 Build 0)  -->
<svg version="1.1" xmlns="http://www.w3.org/2000/svg" xmlns:xlink="http://www.w3.org/1999/xlink" x="0px" y="0px"
	 viewBox="0 0 64 64" style="enable-background:new 0 0 64 64;" xml:space="preserve">
<pattern  width="20" height="20" patternUnits="userSpaceOnUse" id="New_Pattern_Swatch_2" viewBox="22.121 -42.121 20 20" style="overflow:visible;">
	<g>
		<rect x="22.121" y="-42.121" style="fill:none;" width="20" height="20"/>
		
			<rect x="49.121" y="-26.263" transform="matrix(0.7071 -0.7071 0.7071 0.7071 23.837 33.3051)" style="fill:#844138;" width="6" height="28.284"/>
		
			<rect x="29.121" y="-26.263" transform="matrix(0.7071 -0.7071 0.7071 0.7071 17.9792 19.163)" style="fill:#844138;" width="6" height="28.284"/>
		
			<rect x="9.121" y="-26.263" transform="matrix(0.7071 -0.7071 0.7071 0.7071 12.1213 5.0208)" style="fill:#844138;" width="6" height="28.284"/>
		
			<rect x="49.121" y="-46.263" transform="matrix(0.7071 -0.7071 0.7071 0.7071 37.9792 27.4472)" style="fill:#844138;" width="6" height="28.284"/>
		
			<rect x="29.121" y="-46.263" transform="matrix(0.7071 -0.7071 0.7071 0.7071 32.1213 13.3051)" style="fill:#844138;" width="6" height="28.284"/>
		
			<rect x="9.121" y="-46.263" transform="matrix(0.7071 -0.7071 0.7071 0.7071 26.2635 -0.837)" style="fill:#844138;" width="6" height="28.284"/>
		
			<rect x="49.121" y="-66.263" transform="matrix(0.7071 -0.7071 0.7071 0.7071 52.1213 21.5894)" style="fill:#844138;" width="6" height="28.284"/>
		
			<rect x="29.121" y="-66.263" transform="matrix(0.7071 -0.7071 0.7071 0.7071 46.2635 7.4472)" style="fill:#844138;" width="6" height="28.284"/>
		
			<rect x="9.121" y="-66.263" transform="matrix(0.7071 -0.7071 0.7071 0.7071 40.4056 -6.6949)" style="fill:#844138;" width="6" height="28.284"/>
	</g>
</pattern>
<g id="Layer_1" style="display:none;">
</g>
<g id="info_r2021x" style="display:none;">
	<g id="pedestal_r2021x" style="display:inline;">
		<path style="opacity:0.5;fill:#FFFFFF;" d="M63.002,64h-62c-0.552,0-1-0.448-1-1V1c0-0.552,0.448-1,1-1h62c0.552,0,1,0.448,1,1v62
			C64.002,63.552,63.554,64,63.002,64z"/>
		<rect x="1.002" y="1" style="fill:#F4F5F6;" width="62" height="62"/>
		<rect x="1.002" y="1" style="fill:#D1D4D4;" width="2" height="62"/>
	</g>
	<g id="no-go_zone_1_" style="display:inline;opacity:0.3;">
		<path style="fill:url(#New_Pattern_Swatch_2);" d="M0,0v64h64V0H0z M57,57H7V7h50V57z"/>
	</g>
	<g style="display:inline;">
		<path style="fill:#EA4F37;" d="M57,7v50H7V7H57 M58,6h-1H7H6v1v50v1h1h50h1v-1V7V6L58,6z"/>
	</g>
</g>
<g id="Notes" style="display:none;">
</g>
<g id="PNG_references" style="display:none;">
	
		<image style="display:inline;overflow:visible;" width="64" height="64" xlink:href="../../../../Graphics/Drawings/AppIcon/PNGcompressed/SWXDRWS_AP_AppIcon.png"  transform="matrix(1 0 0 1 0.002 0)">
	</image>
</g>
<g id="vector_references" style="display:none;">
	<linearGradient id="SVGID_2_" gradientUnits="userSpaceOnUse" x1="32.1629" y1="12.6758" x2="50.1912" y2="43.9017">
		<stop  offset="0" style="stop-color:#F5F6F6"/>
		<stop  offset="0.9921" style="stop-color:#D2D3D3"/>
	</linearGradient>
	
		<polygon style="display:inline;fill:url(#SVGID_2_);stroke:#333332;stroke-linecap:round;stroke-linejoin:round;stroke-miterlimit:1;" points="
		23.5,12.5 56.5,17.5 56.5,43.5 23.5,35 	"/>
	
		<line style="display:inline;fill:none;stroke:#797979;stroke-width:1.0212;stroke-linejoin:round;stroke-miterlimit:1;" x1="44.783" y1="27.224" x2="50.91" y2="28.756"/>
	
		<polygon style="display:inline;fill:none;stroke:#333332;stroke-width:0.9324;stroke-linecap:round;stroke-linejoin:round;stroke-miterlimit:1;" points="
		51.5,35 44.5,33.5 44.5,20.5 51.5,22 	"/>
	<linearGradient id="SVGID_3_" gradientUnits="userSpaceOnUse" x1="33.3881" y1="39.953" x2="23.684" y2="23.145">
		<stop  offset="0" style="stop-color:#74C4E2"/>
		<stop  offset="1" style="stop-color:#A4DEF6"/>
	</linearGradient>
	<path style="display:inline;opacity:0.4;fill:url(#SVGID_3_);" d="M28.955,17.012l-17.36,10.722h8.68l-0.511,7.659l7.659,0.511
		v8.68c0,0,13.275-13.275,12.765-12.765s0-5.616,0-5.616l-6.127-1.021l0.511-7.148L28.955,17.012z"/>
	<defs>
		<filter id="Adobe_OpacityMaskFilter" filterUnits="userSpaceOnUse" x="7.763" y="17.082" width="32.267" height="32.458">
			<feColorMatrix  type="matrix" values="1 0 0 0 0  0 1 0 0 0  0 0 1 0 0  0 0 0 1 0"/>
		</filter>
	</defs>
	<mask maskUnits="userSpaceOnUse" x="7.763" y="17.082" width="32.267" height="32.458" id="SVGID_4_" style="display:inline;">
		<g style="filter:url(#Adobe_OpacityMaskFilter);">
			<linearGradient id="SVGID_5_" gradientUnits="userSpaceOnUse" x1="34.408" y1="20.1838" x2="26.272" y2="28.8447">
				<stop  offset="0" style="stop-color:#000000"/>
				<stop  offset="0.9921" style="stop-color:#FFFFFF"/>
			</linearGradient>
			<polygon style="fill:url(#SVGID_5_);" points="41.72,43.562 14.148,44.584 9.553,15.48 41.72,15.48 			"/>
		</g>
	</mask>
	<g style="display:inline;mask:url(#SVGID_4_);">
		<linearGradient id="SVGID_6_" gradientUnits="userSpaceOnUse" x1="18.1965" y1="23.1447" x2="18.7797" y2="24.1549">
			<stop  offset="0" style="stop-color:#3388B0"/>
			<stop  offset="0.6332" style="stop-color:#2A5B79"/>
			<stop  offset="1" style="stop-color:#003755"/>
		</linearGradient>
		
			<line style="fill:none;stroke:url(#SVGID_6_);stroke-width:1.0212;stroke-miterlimit:10;" x1="8.021" y1="29.777" x2="28.955" y2="17.523"/>
		<linearGradient id="SVGID_7_" gradientUnits="userSpaceOnUse" x1="24.3063" y1="24.3915" x2="24.9238" y2="25.4609">
			<stop  offset="0" style="stop-color:#3388B0"/>
			<stop  offset="0.6332" style="stop-color:#2A5B79"/>
			<stop  offset="1" style="stop-color:#003755"/>
		</linearGradient>
		
			<line style="fill:none;stroke:url(#SVGID_7_);stroke-width:1.0212;stroke-miterlimit:10;" x1="14.659" y1="30.798" x2="34.571" y2="19.055"/>
		<linearGradient id="SVGID_8_" gradientUnits="userSpaceOnUse" x1="23.6448" y1="30.3938" x2="25.5853" y2="33.7549">
			<stop  offset="0" style="stop-color:#3388B0"/>
			<stop  offset="0.6332" style="stop-color:#2A5B79"/>
			<stop  offset="1" style="stop-color:#003755"/>
		</linearGradient>
		
			<line style="fill:none;stroke:url(#SVGID_8_);stroke-width:1.0212;stroke-miterlimit:10;" x1="14.659" y1="39.478" x2="34.571" y2="24.671"/>
		<linearGradient id="SVGID_9_" gradientUnits="userSpaceOnUse" x1="29.2988" y1="31.1064" x2="32.1852" y2="36.1058">
			<stop  offset="0" style="stop-color:#3388B0"/>
			<stop  offset="0.6332" style="stop-color:#2A5B79"/>
			<stop  offset="1" style="stop-color:#003755"/>
		</linearGradient>
		
			<line style="fill:none;stroke:url(#SVGID_9_);stroke-width:1.0212;stroke-miterlimit:10;" x1="21.807" y1="41.52" x2="39.677" y2="25.692"/>
		<linearGradient id="SVGID_10_" gradientUnits="userSpaceOnUse" x1="29.2663" y1="37.7675" x2="32.7169" y2="43.7442">
			<stop  offset="0" style="stop-color:#3388B0"/>
			<stop  offset="0.6332" style="stop-color:#2A5B79"/>
			<stop  offset="1" style="stop-color:#003755"/>
		</linearGradient>
		<polyline style="fill:none;stroke:url(#SVGID_10_);stroke-width:1.0212;stroke-miterlimit:10;" points="22.317,49.179 
			28.444,43.052 39.677,32.33 		"/>
	</g>
	<g style="display:inline;">
		<linearGradient id="SVGID_11_" gradientUnits="userSpaceOnUse" x1="18.897" y1="50.9034" x2="8.1379" y2="32.2681">
			<stop  offset="0" style="stop-color:#2A5B79"/>
			<stop  offset="1" style="stop-color:#84BEDC"/>
		</linearGradient>
		
			<polygon style="fill:url(#SVGID_11_);stroke:#053755;stroke-width:1.0212;stroke-linecap:round;stroke-linejoin:round;stroke-miterlimit:1;" points="
			7.511,29.777 7.511,45.605 21.807,49.689 21.807,41.52 14.659,39.478 14.659,30.798 		"/>
		<linearGradient id="SVGID_12_" gradientUnits="userSpaceOnUse" x1="26.5267" y1="46.5286" x2="22.5059" y2="39.5645">
			<stop  offset="0" style="stop-color:#386F8D"/>
			<stop  offset="1" style="stop-color:#8DD7F4"/>
		</linearGradient>
		
			<polygon style="fill:url(#SVGID_12_);stroke:#053755;stroke-width:1.0212;stroke-linecap:round;stroke-linejoin:round;stroke-miterlimit:1;" points="
			21.5,50 27.5,43.5 27.423,35.904 21.5,41.5 		"/>
		<linearGradient id="SVGID_13_" gradientUnits="userSpaceOnUse" x1="19.1477" y1="36.3539" x2="15.8789" y2="30.6921">
			<stop  offset="0" style="stop-color:#386F8D"/>
			<stop  offset="1" style="stop-color:#8DD7F4"/>
		</linearGradient>
		
			<polygon style="fill:url(#SVGID_13_);stroke:#053755;stroke-width:1.0212;stroke-linecap:round;stroke-linejoin:round;stroke-miterlimit:1;" points="
			14.5,39.5 20.5,35 20.5,27.5 14.5,30.82 		"/>
		<linearGradient id="SVGID_14_" gradientUnits="userSpaceOnUse" x1="15.1715" y1="30.2729" x2="13.2995" y2="27.0305">
			<stop  offset="0" style="stop-color:#74C4E2"/>
			<stop  offset="1" style="stop-color:#A4DEF6"/>
		</linearGradient>
		
			<polygon style="fill:url(#SVGID_14_);stroke:#053755;stroke-width:1.0212;stroke-linecap:round;stroke-linejoin:round;stroke-miterlimit:1;" points="
			7.511,29.777 14.659,30.798 20.786,27.224 14.148,26.203 		"/>
		<linearGradient id="SVGID_15_" gradientUnits="userSpaceOnUse" x1="22.9429" y1="40.5428" x2="20.3149" y2="35.991">
			<stop  offset="0" style="stop-color:#74C4E2"/>
			<stop  offset="1" style="stop-color:#A4DEF6"/>
		</linearGradient>
		
			<polygon style="fill:url(#SVGID_15_);stroke:#053755;stroke-width:1.0212;stroke-linecap:round;stroke-linejoin:round;stroke-miterlimit:1;" points="
			14.659,39.478 20.786,34.883 27.934,35.904 21.807,41.52 		"/>
	</g>
	
		<polygon style="display:inline;fill:none;stroke:#333332;stroke-width:0.9324;stroke-linecap:round;stroke-linejoin:round;stroke-miterlimit:1;" points="
		28.5,17.5 34.571,18.544 34.571,24.671 39.5,25.5 39.5,33 28.5,30 	"/>
	<linearGradient id="SVGID_16_" gradientUnits="userSpaceOnUse" x1="46.5709" y1="34.1766" x2="52.0639" y2="43.6908">
		<stop  offset="0" style="stop-color:#ABABAB"/>
		<stop  offset="1" style="stop-color:#5B5B5B"/>
	</linearGradient>
	
		<polygon style="display:inline;fill:url(#SVGID_16_);stroke:#333332;stroke-width:1.0212;stroke-linecap:round;stroke-linejoin:round;stroke-miterlimit:1;" points="
		56.5,39 42.5,36 42.5,39.5 56.5,43 	"/>
</g>
<g id="Work" style="display:none;">
	<linearGradient id="SVGID_17_" gradientUnits="userSpaceOnUse" x1="32.1629" y1="12.6758" x2="50.1912" y2="43.9017">
		<stop  offset="0" style="stop-color:#F5F6F6"/>
		<stop  offset="0.9921" style="stop-color:#D2D3D3"/>
	</linearGradient>
	
		<polygon style="display:inline;fill:url(#SVGID_17_);stroke:#333332;stroke-linecap:round;stroke-linejoin:round;stroke-miterlimit:1;" points="
		23.5,12.5 56.5,17.5 56.5,43.5 23.5,35 	"/>
	
		<line style="display:inline;fill:none;stroke:#797979;stroke-width:1.0212;stroke-linejoin:round;stroke-miterlimit:1;" x1="44.783" y1="27.224" x2="50.91" y2="28.756"/>
	
		<polygon style="display:inline;fill:none;stroke:#333332;stroke-width:0.9324;stroke-linecap:round;stroke-linejoin:round;stroke-miterlimit:1;" points="
		51.5,35 44.5,33.5 44.5,20.5 51.5,22 	"/>
	<linearGradient id="SVGID_18_" gradientUnits="userSpaceOnUse" x1="33.3881" y1="39.953" x2="23.684" y2="23.145">
		<stop  offset="0" style="stop-color:#74C4E2"/>
		<stop  offset="1" style="stop-color:#A4DEF6"/>
	</linearGradient>
	<path style="display:inline;opacity:0.4;fill:url(#SVGID_18_);" d="M28.955,17.012l-17.36,10.722h8.68l-0.511,7.659l7.659,0.511
		v8.68c0,0,13.275-13.275,12.765-12.765s0-5.616,0-5.616l-6.127-1.021l0.511-7.148L28.955,17.012z"/>
	<defs>
		<filter id="Adobe_OpacityMaskFilter_1_" filterUnits="userSpaceOnUse" x="7.763" y="17.082" width="32.267" height="32.458">
			<feColorMatrix  type="matrix" values="1 0 0 0 0  0 1 0 0 0  0 0 1 0 0  0 0 0 1 0"/>
		</filter>
	</defs>
	<mask maskUnits="userSpaceOnUse" x="7.763" y="17.082" width="32.267" height="32.458" id="SVGID_19_" style="display:inline;">
		<g style="filter:url(#Adobe_OpacityMaskFilter_1_);">
			<linearGradient id="SVGID_20_" gradientUnits="userSpaceOnUse" x1="34.408" y1="20.1838" x2="26.272" y2="28.8447">
				<stop  offset="0" style="stop-color:#000000"/>
				<stop  offset="0.9921" style="stop-color:#FFFFFF"/>
			</linearGradient>
			<polygon style="fill:url(#SVGID_20_);" points="41.72,43.562 14.148,44.584 9.553,15.48 41.72,15.48 			"/>
		</g>
	</mask>
	<g style="display:inline;mask:url(#SVGID_19_);">
		<linearGradient id="SVGID_21_" gradientUnits="userSpaceOnUse" x1="18.1965" y1="23.1447" x2="18.7797" y2="24.1549">
			<stop  offset="0" style="stop-color:#3388B0"/>
			<stop  offset="0.6332" style="stop-color:#2A5B79"/>
			<stop  offset="1" style="stop-color:#003755"/>
		</linearGradient>
		
			<line style="fill:none;stroke:url(#SVGID_21_);stroke-width:1.0212;stroke-miterlimit:10;" x1="8.021" y1="29.777" x2="28.955" y2="17.523"/>
		<linearGradient id="SVGID_22_" gradientUnits="userSpaceOnUse" x1="24.3063" y1="24.3915" x2="24.9238" y2="25.4609">
			<stop  offset="0" style="stop-color:#3388B0"/>
			<stop  offset="0.6332" style="stop-color:#2A5B79"/>
			<stop  offset="1" style="stop-color:#003755"/>
		</linearGradient>
		
			<line style="fill:none;stroke:url(#SVGID_22_);stroke-width:1.0212;stroke-miterlimit:10;" x1="14.659" y1="30.798" x2="34.571" y2="19.055"/>
		<linearGradient id="SVGID_23_" gradientUnits="userSpaceOnUse" x1="23.6448" y1="30.3938" x2="25.5853" y2="33.7549">
			<stop  offset="0" style="stop-color:#3388B0"/>
			<stop  offset="0.6332" style="stop-color:#2A5B79"/>
			<stop  offset="1" style="stop-color:#003755"/>
		</linearGradient>
		
			<line style="fill:none;stroke:url(#SVGID_23_);stroke-width:1.0212;stroke-miterlimit:10;" x1="14.659" y1="39.478" x2="34.571" y2="24.671"/>
		<linearGradient id="SVGID_24_" gradientUnits="userSpaceOnUse" x1="29.2988" y1="31.1064" x2="32.1852" y2="36.1058">
			<stop  offset="0" style="stop-color:#3388B0"/>
			<stop  offset="0.6332" style="stop-color:#2A5B79"/>
			<stop  offset="1" style="stop-color:#003755"/>
		</linearGradient>
		
			<line style="fill:none;stroke:url(#SVGID_24_);stroke-width:1.0212;stroke-miterlimit:10;" x1="21.807" y1="41.52" x2="39.677" y2="25.692"/>
		<linearGradient id="SVGID_25_" gradientUnits="userSpaceOnUse" x1="29.2663" y1="37.7675" x2="32.7169" y2="43.7442">
			<stop  offset="0" style="stop-color:#3388B0"/>
			<stop  offset="0.6332" style="stop-color:#2A5B79"/>
			<stop  offset="1" style="stop-color:#003755"/>
		</linearGradient>
		<polyline style="fill:none;stroke:url(#SVGID_25_);stroke-width:1.0212;stroke-miterlimit:10;" points="22.317,49.179 
			28.444,43.052 39.677,32.33 		"/>
	</g>
	<g style="display:inline;">
		<linearGradient id="SVGID_26_" gradientUnits="userSpaceOnUse" x1="18.897" y1="50.9034" x2="8.1379" y2="32.2681">
			<stop  offset="0" style="stop-color:#2A5B79"/>
			<stop  offset="1" style="stop-color:#84BEDC"/>
		</linearGradient>
		
			<polygon style="fill:url(#SVGID_26_);stroke:#053755;stroke-width:1.0212;stroke-linecap:round;stroke-linejoin:round;stroke-miterlimit:1;" points="
			7.511,29.777 7.511,45.605 21.807,49.689 21.807,41.52 14.659,39.478 14.659,30.798 		"/>
		<linearGradient id="SVGID_27_" gradientUnits="userSpaceOnUse" x1="26.5267" y1="46.5286" x2="22.5059" y2="39.5645">
			<stop  offset="0" style="stop-color:#386F8D"/>
			<stop  offset="1" style="stop-color:#8DD7F4"/>
		</linearGradient>
		
			<polygon style="fill:url(#SVGID_27_);stroke:#053755;stroke-width:1.0212;stroke-linecap:round;stroke-linejoin:round;stroke-miterlimit:1;" points="
			21.5,50 27.5,43.5 27.423,35.904 21.5,41.5 		"/>
		<linearGradient id="SVGID_28_" gradientUnits="userSpaceOnUse" x1="19.1477" y1="36.3539" x2="15.8789" y2="30.6921">
			<stop  offset="0" style="stop-color:#386F8D"/>
			<stop  offset="1" style="stop-color:#8DD7F4"/>
		</linearGradient>
		
			<polygon style="fill:url(#SVGID_28_);stroke:#053755;stroke-width:1.0212;stroke-linecap:round;stroke-linejoin:round;stroke-miterlimit:1;" points="
			14.5,39.5 20.5,35 20.5,27.5 14.5,30.82 		"/>
		<linearGradient id="SVGID_29_" gradientUnits="userSpaceOnUse" x1="15.1715" y1="30.2729" x2="13.2995" y2="27.0305">
			<stop  offset="0" style="stop-color:#74C4E2"/>
			<stop  offset="1" style="stop-color:#A4DEF6"/>
		</linearGradient>
		
			<polygon style="fill:url(#SVGID_29_);stroke:#053755;stroke-width:1.0212;stroke-linecap:round;stroke-linejoin:round;stroke-miterlimit:1;" points="
			7.511,29.777 14.659,30.798 20.786,27.224 14.148,26.203 		"/>
		<linearGradient id="SVGID_30_" gradientUnits="userSpaceOnUse" x1="22.9429" y1="40.5428" x2="20.3149" y2="35.991">
			<stop  offset="0" style="stop-color:#74C4E2"/>
			<stop  offset="1" style="stop-color:#A4DEF6"/>
		</linearGradient>
		
			<polygon style="fill:url(#SVGID_30_);stroke:#053755;stroke-width:1.0212;stroke-linecap:round;stroke-linejoin:round;stroke-miterlimit:1;" points="
			14.659,39.478 20.786,34.883 27.934,35.904 21.807,41.52 		"/>
	</g>
	
		<polygon style="display:inline;fill:none;stroke:#333332;stroke-width:0.9324;stroke-linecap:round;stroke-linejoin:round;stroke-miterlimit:1;" points="
		28.5,17.5 34.571,18.544 34.571,24.671 39.5,25.5 39.5,33 28.5,30 	"/>
	<linearGradient id="SVGID_31_" gradientUnits="userSpaceOnUse" x1="46.5709" y1="34.1766" x2="52.0639" y2="43.6908">
		<stop  offset="0" style="stop-color:#ABABAB"/>
		<stop  offset="1" style="stop-color:#5B5B5B"/>
	</linearGradient>
	
		<polygon style="display:inline;fill:url(#SVGID_31_);stroke:#333332;stroke-width:1.0212;stroke-linecap:round;stroke-linejoin:round;stroke-miterlimit:1;" points="
		56.5,39 42.5,36 42.5,39.5 56.5,43 	"/>
</g>
<g id="Layer_7">
	<linearGradient id="SVGID_32_" gradientUnits="userSpaceOnUse" x1="32.0938" y1="12.8479" x2="50.1221" y2="44.0738">
		<stop  offset="0" style="stop-color:#F5F6F6"/>
		<stop  offset="0.9921" style="stop-color:#D2D3D3"/>
	</linearGradient>
	<polygon style="fill:url(#SVGID_32_);stroke:#333332;stroke-linecap:round;stroke-linejoin:round;stroke-miterlimit:1;" points="
		23.489,12.638 56.489,17.638 56.489,43.638 23.489,35.409 	"/>
	
		<line style="fill:none;stroke:#797979;stroke-width:1.0212;stroke-linejoin:round;stroke-miterlimit:1;" x1="44.772" y1="27.362" x2="50.899" y2="28.894"/>
	
		<polygon style="fill:none;stroke:#333332;stroke-width:0.9324;stroke-linecap:round;stroke-linejoin:round;stroke-miterlimit:1;" points="
		51.489,35.138 44.489,33.638 44.489,20.638 51.489,22.138 	"/>
	<linearGradient id="SVGID_33_" gradientUnits="userSpaceOnUse" x1="33.0989" y1="39.9552" x2="23.5078" y2="23.343">
		<stop  offset="0" style="stop-color:#74C4E2"/>
		<stop  offset="1" style="stop-color:#A4DEF6"/>
	</linearGradient>
	<polygon style="opacity:0.4;fill:url(#SVGID_33_);" points="28.944,17.151 11.585,27.873 20.265,27.873 19.754,35.531 
		27.413,36.042 27.413,44.411 39.489,32.774 39.489,25.843 34.561,24.809 34.561,18.172 	"/>
	<g>
		<linearGradient id="SVGID_34_" gradientUnits="userSpaceOnUse" x1="17.9282" y1="23.2922" x2="18.5718" y2="24.4071">
			<stop  offset="0" style="stop-color:#3388B0"/>
			<stop  offset="0.6332" style="stop-color:#2A5B79"/>
			<stop  offset="1" style="stop-color:#003755"/>
		</linearGradient>
		
			<line style="fill:none;stroke:url(#SVGID_34_);stroke-width:1.0212;stroke-linecap:round;stroke-miterlimit:10;" x1="8.011" y1="29.915" x2="28.489" y2="17.784"/>
		<linearGradient id="SVGID_35_" gradientUnits="userSpaceOnUse" x1="24.2348" y1="24.2835" x2="24.9741" y2="25.564">
			<stop  offset="0" style="stop-color:#3388B0"/>
			<stop  offset="0.6332" style="stop-color:#2A5B79"/>
			<stop  offset="1" style="stop-color:#003755"/>
		</linearGradient>
		
			<line style="fill:none;stroke:url(#SVGID_35_);stroke-width:1.0212;stroke-miterlimit:10;" x1="14.648" y1="30.936" x2="34.561" y2="18.911"/>
		<linearGradient id="SVGID_36_" gradientUnits="userSpaceOnUse" x1="23.6342" y1="30.5321" x2="25.5747" y2="33.8932">
			<stop  offset="0" style="stop-color:#3388B0"/>
			<stop  offset="0.6332" style="stop-color:#2A5B79"/>
			<stop  offset="1" style="stop-color:#003755"/>
		</linearGradient>
		
			<line style="fill:none;stroke:url(#SVGID_36_);stroke-width:1.0212;stroke-miterlimit:10;" x1="14.648" y1="39.616" x2="34.561" y2="24.809"/>
		<linearGradient id="SVGID_37_" gradientUnits="userSpaceOnUse" x1="29.1804" y1="31.2175" x2="32.1053" y2="36.2836">
			<stop  offset="0" style="stop-color:#3388B0"/>
			<stop  offset="0.6332" style="stop-color:#2A5B79"/>
			<stop  offset="1" style="stop-color:#003755"/>
		</linearGradient>
		
			<line style="fill:none;stroke:url(#SVGID_37_);stroke-width:1.0212;stroke-miterlimit:10;" x1="21.796" y1="41.658" x2="39.489" y2="25.843"/>
		<defs>
			<filter id="Adobe_OpacityMaskFilter_2_" filterUnits="userSpaceOnUse" x="21.955" y="32.629" width="17.886" height="17.058">
				<feColorMatrix  type="matrix" values="1 0 0 0 0  0 1 0 0 0  0 0 1 0 0  0 0 0 1 0"/>
			</filter>
		</defs>
		<mask maskUnits="userSpaceOnUse" x="21.955" y="32.629" width="17.886" height="17.058" id="SVGID_38_">
			<g style="filter:url(#Adobe_OpacityMaskFilter_2_);">
				<linearGradient id="SVGID_39_" gradientUnits="userSpaceOnUse" x1="34.8558" y1="20.7527" x2="26.7198" y2="29.4137">
					<stop  offset="0" style="stop-color:#000000"/>
					<stop  offset="0.9921" style="stop-color:#FFFFFF"/>
				</linearGradient>
				<polygon style="fill:url(#SVGID_39_);" points="41.709,45.538 14.138,44.722 9.542,15.619 41.709,15.619 				"/>
			</g>
		</mask>
		<linearGradient id="SVGID_40_" gradientUnits="userSpaceOnUse" x1="29.2649" y1="38.3295" x2="32.5314" y2="43.9872">
			<stop  offset="0" style="stop-color:#3388B0"/>
			<stop  offset="0.6332" style="stop-color:#2A5B79"/>
			<stop  offset="1" style="stop-color:#003755"/>
		</linearGradient>
		
			<line style="mask:url(#SVGID_38_);fill:none;stroke:url(#SVGID_40_);stroke-width:1.0212;stroke-miterlimit:10;" x1="22.307" y1="49.317" x2="39.489" y2="33"/>
	</g>
	<g>
		<linearGradient id="SVGID_41_" gradientUnits="userSpaceOnUse" x1="18.9598" y1="51.1688" x2="8.1349" y2="32.4195">
			<stop  offset="0" style="stop-color:#2A5B79"/>
			<stop  offset="1" style="stop-color:#84BEDC"/>
		</linearGradient>
		
			<polygon style="fill:url(#SVGID_41_);stroke:#053755;stroke-width:1.0212;stroke-linecap:round;stroke-linejoin:round;stroke-miterlimit:1;" points="
			7.5,29.915 7.5,45.743 21.796,50 21.796,41.658 14.648,39.616 14.648,30.936 		"/>
		<linearGradient id="SVGID_42_" gradientUnits="userSpaceOnUse" x1="26.5649" y1="46.7072" x2="22.7533" y2="40.1054">
			<stop  offset="0" style="stop-color:#386F8D"/>
			<stop  offset="1" style="stop-color:#8DD7F4"/>
		</linearGradient>
		
			<polygon style="fill:url(#SVGID_42_);stroke:#053755;stroke-width:1.0212;stroke-linecap:round;stroke-linejoin:round;stroke-miterlimit:1;" points="
			21.796,50 27.489,44.281 27.418,36.633 21.796,41.658 		"/>
		<linearGradient id="SVGID_43_" gradientUnits="userSpaceOnUse" x1="19.1371" y1="36.4922" x2="15.8683" y2="30.8304">
			<stop  offset="0" style="stop-color:#386F8D"/>
			<stop  offset="1" style="stop-color:#8DD7F4"/>
		</linearGradient>
		
			<polygon style="fill:url(#SVGID_43_);stroke:#053755;stroke-width:1.0212;stroke-linecap:round;stroke-linejoin:round;stroke-miterlimit:1;" points="
			14.489,39.638 20.489,35.138 20.489,27.638 14.489,30.958 		"/>
		<linearGradient id="SVGID_44_" gradientUnits="userSpaceOnUse" x1="15.0249" y1="30.561" x2="13.1258" y2="27.2716">
			<stop  offset="0" style="stop-color:#74C4E2"/>
			<stop  offset="1" style="stop-color:#A4DEF6"/>
		</linearGradient>
		
			<polygon style="fill:url(#SVGID_44_);stroke:#053755;stroke-width:1.0212;stroke-linecap:round;stroke-linejoin:round;stroke-miterlimit:1;" points="
			7.5,29.915 14.648,30.936 20.489,27.638 14.138,26.341 		"/>
		<linearGradient id="SVGID_45_" gradientUnits="userSpaceOnUse" x1="22.5506" y1="40.9015" x2="19.9227" y2="36.3497">
			<stop  offset="0" style="stop-color:#74C4E2"/>
			<stop  offset="1" style="stop-color:#A4DEF6"/>
		</linearGradient>
		
			<polygon style="fill:url(#SVGID_45_);stroke:#053755;stroke-width:1.0212;stroke-linecap:round;stroke-linejoin:round;stroke-miterlimit:1;" points="
			14.489,39.638 20.775,35.021 27.418,36.633 21.796,41.658 		"/>
	</g>
	
		<polygon style="fill:none;stroke:#333332;stroke-width:0.9324;stroke-linecap:round;stroke-linejoin:round;stroke-miterlimit:1;" points="
		28.489,17.638 34.561,18.682 34.561,24.809 39.489,25.638 39.489,33.138 28.489,30.138 	"/>
	<linearGradient id="SVGID_46_" gradientUnits="userSpaceOnUse" x1="46.4596" y1="34.3905" x2="52.1347" y2="44.2201">
		<stop  offset="0" style="stop-color:#ABABAB"/>
		<stop  offset="1" style="stop-color:#5B5B5B"/>
	</linearGradient>
	
		<polygon style="fill:url(#SVGID_46_);stroke:#333332;stroke-width:1.0212;stroke-linecap:round;stroke-linejoin:round;stroke-miterlimit:1;" points="
		56.489,39.138 42.489,36.138 42.489,40.138 56.489,43.638 	"/>
</g>
</svg>
