<svg xmlns="http://www.w3.org/2000/svg" xmlns:xlink="http://www.w3.org/1999/xlink" viewBox="0 0 64 64"><defs><linearGradient id="linear-gradient" x1="18.25" y1="14.74" x2="40.08" y2="52.56" gradientUnits="userSpaceOnUse"><stop offset="0" stop-color="#fff"/><stop offset="1" stop-color="#d2d2d2"/></linearGradient><linearGradient id="linear-gradient-2" x1="43.3" y1="14.77" x2="43.3" y2="14.78" gradientTransform="translate(-2)" gradientUnits="userSpaceOnUse"><stop offset="0" stop-color="#fff"/><stop offset="1" stop-color="#b4b6ba"/></linearGradient><linearGradient id="linear-gradient-3" x1="36.37" y1="31.34" x2="46.07" y2="48.13" gradientTransform="matrix(1, -0.22, 0, 1, 0, 2.32)" gradientUnits="userSpaceOnUse"><stop offset="0" stop-color="#f5f6f6"/><stop offset="0.99" stop-color="#d2d3d3"/></linearGradient><linearGradient id="linear-gradient-4" x1="49.94" y1="15.11" x2="44.86" y2="27.76" gradientUnits="userSpaceOnUse"><stop offset="0"/><stop offset="1" stop-opacity="0"/></linearGradient><linearGradient id="linear-gradient-5" x1="50.67" y1="17.81" x2="48.26" y2="20.95" xlink:href="#linear-gradient-2"/><linearGradient id="linear-gradient-7" x1="20.21" y1="33.27" x2="22.92" y2="37.97" xlink:href="#linear-gradient-3"/><linearGradient id="linear-gradient-8" x1="20.21" y1="43.25" x2="22.92" y2="47.94" xlink:href="#linear-gradient-3"/><linearGradient id="linear-gradient-9" x1="49.16" y1="9.38" x2="52.95" y2="13.59" gradientTransform="translate(-23.53 22.15) rotate(-15)" gradientUnits="userSpaceOnUse"><stop offset="0.24" stop-color="#f5f6f6"/><stop offset="0.41" stop-color="#e5e6e6"/><stop offset="0.66" stop-color="#d2d3d3"/></linearGradient><linearGradient id="linear-gradient-10" x1="26.34" y1="18.25" x2="31.57" y2="20.99" gradientUnits="userSpaceOnUse"><stop offset="0" stop-color="#8dd7f4"/><stop offset="0.18" stop-color="#89d2ef"/><stop offset="0.38" stop-color="#7ec5e2"/><stop offset="0.6" stop-color="#6cafcc"/><stop offset="0.81" stop-color="#5390ae"/><stop offset="1" stop-color="#386f8d"/></linearGradient><linearGradient id="linear-gradient-11" x1="25.62" y1="18.91" x2="30.84" y2="18.91" gradientUnits="userSpaceOnUse"><stop offset="0" stop-color="#386f8d"/><stop offset="1" stop-color="#8dd7f4"/></linearGradient><linearGradient id="linear-gradient-12" x1="27.35" y1="20.12" x2="32.32" y2="20.12" xlink:href="#linear-gradient-11"/><linearGradient id="New_Gradient_Swatch" x1="37.7" y1="10.74" x2="32.86" y2="7.96" gradientUnits="userSpaceOnUse"><stop offset="0" stop-color="#161616"/><stop offset="0.79" stop-color="#515151"/></linearGradient></defs><g id="Work"><path d="M10.5,19.21,43.61,12h.2a3.1,3.1,0,0,1,2.08.74c1.2.94,8,7.38,8,7.45a1.83,1.83,0,0,1,.58,1.21V44.24l-44,13.58Z" fill="url(#linear-gradient)"/><path d="M43.82,12.5a2.59,2.59,0,0,1,1.76.64c1,.74,5.64,5.17,8,7.42a1.31,1.31,0,0,1,.42.84V43.87L11,57.14V19.62l32.64-7.11h.18m0-1h-.31L10,18.81V58.5L55,44.61V21.36a2.28,2.28,0,0,0-.74-1.53s-6.83-6.51-8.06-7.48a3.56,3.56,0,0,0-2.38-.85Z" fill="#787878"/><path d="M41.27,14.76l.06,0,0,0Z" fill="url(#linear-gradient-2)"/><path d="M41.27,14.76Zm0,0,.06,0,0,0Z" fill="#787878"/><polygon points="48.5 24.5 48.5 26.5 13 36 13 34 48.5 24.5" fill="#009245"/><polygon points="48.5 34 48.5 36 13 46 13 44 48.5 34" fill="#009245"/><path d="M51.5,29.77c0,6.64-4.59,13.29-10.34,14.88S30.5,42.07,30.5,35.23s4.81-13.55,10.66-15S51.5,23.14,51.5,29.77Z" stroke="#333332" stroke-linecap="round" stroke-linejoin="round" fill="url(#linear-gradient-3)"/><polygon points="44.04 25.26 41.05 29.19 38.04 26.66 35 27.36 35 40.5 38 39.75 38 31.57 41.01 34.09 44 30.14 44 37.98 47 37.21 47 24.57 44.04 25.26" fill="#333332"/><polygon points="44 12.49 44 25.39 54 22.41 54 21.42 48.5 17.33 45.33 12.49 44 12.49" opacity="0.2" fill="url(#linear-gradient-4)"/><path d="M45.27,11.78l.06,0,0,0Z" fill="url(#linear-gradient-5)"/><path d="M54.26,19.83,46.2,12.35c-1-.95-2.31-.5-3.2-.35v.49c1.88-.4,2,1,2,2v8.67l7.9-1.34c.48-.1,1.1,0,1.1,1h1V21.36A2.68,2.68,0,0,0,54.26,19.83Z" fill="url(#linear-gradient-5)"/><path d="M45.27,11.78Zm0,0,.06,0,0,0Z" fill="#787878"/><path d="M45.91,13.45l7.65,7.09a2,2,0,0,1,.25.34,1.91,1.91,0,0,0-.62-.1,2,2,0,0,0-.48,0h0L46,22V14.48a5.26,5.26,0,0,0-.09-1m-1.26-1.69A9.32,9.32,0,0,0,43,12v.49a2.85,2.85,0,0,1,.61-.07c1.29,0,1.39,1.18,1.39,2.06v8.67l7.9-1.34a1.36,1.36,0,0,1,.29,0c.41,0,.81.2.81,1h1V21.36a2.68,2.68,0,0,0-.74-1.53L46.2,12.35a2.12,2.12,0,0,0-1.55-.59Z" fill="#787878"/><path d="M43.82,12.5a2.59,2.59,0,0,1,1.76.64c1,.74,5.64,5.17,8,7.42a1.31,1.31,0,0,1,.42.84V43.87L11,57.14V19.62l32.64-7.11h.18m0-1h-.31L10,18.81V58.5L55,44.61V21.36a2.28,2.28,0,0,0-.74-1.53s-6.83-6.51-8.06-7.48a3.56,3.56,0,0,0-2.38-.85Z" fill="#323232"/><path d="M24.5,32.27a4.38,4.38,0,0,1-3,4.14c-1.66.43-3-.74-3-2.62a4.38,4.38,0,0,1,3-4.15C23.17,29.22,24.5,30.4,24.5,32.27Z" stroke="#333332" stroke-linecap="round" stroke-linejoin="round" fill="url(#linear-gradient-7)"/><path d="M24.5,42.19a4.48,4.48,0,0,1-3,4.21c-1.66.46-3-.71-3-2.59a4.49,4.49,0,0,1,3-4.22C23.17,39.16,24.5,40.32,24.5,42.19Z" stroke="#333332" stroke-linecap="round" stroke-linejoin="round" fill="url(#linear-gradient-8)"/></g><g id="Layer_4" data-name="Layer 4"><polygon points="22.64 30.47 22.77 24.33 32.24 8.18 37.37 11.21 27.83 27.47 22.64 30.47" stroke="#323232" stroke-linecap="round" stroke-linejoin="round" fill="url(#linear-gradient-9)"/><polygon points="23.64 22.74 28.83 25.74 34.3 16.51 29.1 13.51 23.64 22.74" fill="url(#linear-gradient-10)"/><line x1="25.62" y1="23.3" x2="30.84" y2="14.51" stroke="#053755" stroke-linecap="round" stroke-linejoin="round" opacity="0.2" fill="url(#linear-gradient-11)"/><line x1="27.35" y1="24.3" x2="32.32" y2="15.94" stroke="#053755" stroke-linecap="round" stroke-linejoin="round" opacity="0.5" fill="url(#linear-gradient-12)"/><polygon points="23.69 22.78 28.83 25.74 34.26 16.47 29.1 13.51 23.69 22.78" fill="none" stroke="#323232" stroke-linecap="round" stroke-linejoin="round"/><path d="M31.24,9.91l1.25-2.17a2.53,2.53,0,0,1,3.42-.91l.86.5a2.41,2.41,0,0,1,.9,3.32l-1.3,2.22Z" stroke="#323232" stroke-linecap="round" stroke-linejoin="round" fill-rule="evenodd" fill="url(#New_Gradient_Swatch)"/><polygon points="22.75 26.27 26.22 28.27 22.73 30.3 22.75 26.27" fill="#323232" fill-rule="evenodd"/></g></svg>