<svg xmlns="http://www.w3.org/2000/svg" xmlns:xlink="http://www.w3.org/1999/xlink" viewBox="0 0 64 64"><defs><linearGradient id="linear-gradient" x1="48.06" y1="48.05" x2="43.21" y2="39.66" gradientUnits="userSpaceOnUse"><stop offset="0" stop-color="#74c4e2"/><stop offset="1" stop-color="#a4def6"/></linearGradient><linearGradient id="linear-gradient-3" x1="37.61" y1="16.05" x2="49.46" y2="36.58" gradientUnits="userSpaceOnUse"><stop offset="0" stop-color="#fff"/><stop offset="1" stop-color="#d2d3d3"/></linearGradient><linearGradient id="linear-gradient-4" x1="38.96" y1="40.08" x2="28.99" y2="22.82" gradientUnits="userSpaceOnUse"><stop offset="0" stop-color="#386f8d"/><stop offset="1" stop-color="#8dd7f4"/></linearGradient><linearGradient id="linear-gradient-7" x1="36" y1="38.72" x2="30.16" y2="28.59" gradientTransform="translate(1 -1)" xlink:href="#linear-gradient-4"/><linearGradient id="linear-gradient-8" x1="38.38" y1="40.11" x2="29.57" y2="24.84" xlink:href="#linear-gradient-4"/><linearGradient id="linear-gradient-12" x1="43.14" y1="39.54" x2="47.86" y2="47.72" gradientUnits="userSpaceOnUse"><stop offset="0" stop-color="#fff"/><stop offset="1" stop-color="#f1f0f0"/></linearGradient><linearGradient id="linear-gradient-17" x1="37" y1="37.72" x2="31.16" y2="27.59" xlink:href="#linear-gradient-4"/><linearGradient id="linear-gradient-18" x1="38.82" y1="40.57" x2="27.28" y2="20.56" gradientUnits="userSpaceOnUse"><stop offset="0" stop-color="#2a5b79"/><stop offset="1" stop-color="#84bedc"/></linearGradient><linearGradient id="linear-gradient-19" x1="40.62" y1="41.59" x2="29.34" y2="22.06" xlink:href="#linear-gradient"/></defs><g id="Layer_9_copy" data-name="Layer 9 copy"><polygon points="37.35 41.5 45.35 47.5 53.5 45.5 44.35 40 37.35 41.5" stroke="#053755" stroke-linecap="round" stroke-linejoin="round" fill="url(#linear-gradient)"/><polygon points="11.5 48.5 19.5 54.5 27.64 52.5 18.5 47 11.5 48.5" stroke="#053755" stroke-linecap="round" stroke-linejoin="round" fill="url(#linear-gradient)"/><polygon points="41.5 10 41.5 42.5 45.5 41.5 45.5 10 41.5 10" stroke="#797979" stroke-linecap="round" stroke-linejoin="round" fill="url(#linear-gradient-3)"/><polygon points="43.5 9.5 43.5 42 47.5 45 47.5 12 43.5 9.5" fill="#b3b3b3" stroke="#797979" stroke-linecap="round" stroke-linejoin="round"/><polygon points="46.5 21.5 21.5 47.5 21.5 41.5 46.5 15.5 46.5 21.5" stroke="#053755" stroke-linecap="round" stroke-linejoin="round" fill="url(#linear-gradient-4)"/><line x1="41.5" y1="15.63" x2="41.5" y2="42.5" fill="none" stroke="#333332" stroke-linecap="round" stroke-linejoin="round"/><polygon points="47.5 16.5 45.5 15.5 19.5 42.5 21.5 43.5 47.5 16.5" stroke="#053755" stroke-linecap="round" stroke-linejoin="round" fill="url(#linear-gradient)"/><polygon points="15.5 16.5 15.5 49.5 19.5 48.5 19.5 15.5 15.5 16.5" stroke="#797979" stroke-linecap="round" stroke-linejoin="round" fill="url(#linear-gradient-3)"/><polygon points="17.5 16.5 17.5 49 21.5 52 21.5 19 17.5 16.5" fill="#b3b3b3" stroke="#797979" stroke-linecap="round" stroke-linejoin="round"/><polygon points="21.5 43.5 21.5 47.5 46.5 21.5 46.5 17.54 21.5 43.5" fill="url(#linear-gradient-7)"/><polygon points="21.5 43.5 21.5 47.5 46.5 21.5 46.5 17.54 21.5 43.5" stroke="#053755" stroke-linecap="round" stroke-linejoin="round" fill="url(#linear-gradient-8)"/><polygon points="21.5 43.5 21.5 47.5 46.5 21.5 46.5 17.54 21.5 43.5" fill="none" stroke="#053755" stroke-linecap="round" stroke-linejoin="round"/><polygon points="19.5 19.5 19.5 52.5 23.5 51.5 23.5 18.5 19.5 19.5" stroke="#797979" stroke-linecap="round" stroke-linejoin="round" fill="url(#linear-gradient-3)"/><polygon points="45.5 12.5 45.5 45.5 49.5 44.5 49.5 11.5 45.5 12.5" stroke="#797979" stroke-linecap="round" stroke-linejoin="round" fill="url(#linear-gradient-3)"/><polygon points="15.5 19.5 19.5 22.5 49.5 13.5 45.5 10.5 15.5 19.5" fill="#b3b3b3" stroke="#797979" stroke-linecap="round" stroke-linejoin="round"/><polygon points="15.5 16.5 19.5 19.5 49.5 11.5 43.5 9 15.5 16.5" fill="#fff" stroke="#797979" stroke-linecap="round" stroke-linejoin="round"/><polygon points="19.5 19.5 19.5 22.5 49.5 14.5 49.5 11.5 19.5 19.5" stroke="#797979" stroke-linecap="round" stroke-linejoin="round" fill="url(#linear-gradient-3)"/><polyline points="41.5 42.5 43.5 42 45.5 43.5 45.5 45.5 49.5 44.5 49.5 13.5 49.5 11.5 43.5 9 15.5 16.5 15.5 49.5 17.5 49 19.5 50.5 19.5 52.5 23.5 51.5 23.5 21.42 41.5 16.63" fill="none" stroke="#333332" stroke-linecap="round" stroke-linejoin="round"/><polygon points="37.35 41.5 45.35 47.5 53.5 45.5 44.35 40 37.35 41.5" stroke="#797979" stroke-linecap="round" stroke-linejoin="round" fill="url(#linear-gradient-12)"/><polygon points="11.5 48.5 19.5 54.5 27.64 52.5 18.5 47 11.5 48.5" stroke="#797979" stroke-linecap="round" stroke-linejoin="round" fill="url(#linear-gradient-12)"/><polygon points="41.5 10 41.5 42.5 45.5 41.5 45.5 10 41.5 10" stroke="#797979" stroke-linecap="round" stroke-linejoin="round" fill="url(#linear-gradient-3)"/><line x1="41.5" y1="16.5" x2="41.5" y2="40.5" fill="none" stroke="#323232" stroke-linecap="round" stroke-linejoin="round"/><polygon points="43.5 9.5 43.5 42 47.5 45 47.5 12 43.5 9.5" fill="#b3b3b3" stroke="#797979" stroke-linecap="round" stroke-linejoin="round"/><polygon points="45.68 18.45 43.5 17.5 19.5 42.5 21.5 43.5 45.68 18.45" stroke="#053755" stroke-linecap="round" stroke-linejoin="round" fill="url(#linear-gradient)"/><polygon points="15.5 16.5 15.5 49.5 19.5 48.5 19.5 15.5 15.5 16.5" stroke="#797979" stroke-linecap="round" stroke-linejoin="round" fill="url(#linear-gradient-3)"/><polygon points="17.5 19 17.5 49 21.5 52 21.5 19 17.5 19" fill="#b3b3b3" stroke="#797979" stroke-linecap="round" stroke-linejoin="round"/><polygon points="21.5 43.5 21.5 47.5 46.5 21.5 46.5 17.54 21.5 43.5" stroke="#053755" stroke-linecap="round" stroke-linejoin="round" fill="url(#linear-gradient-17)"/><polygon points="45 34.5 19.71 21.87 19.81 24.39 45 37.5 45 34.5" stroke="#053755" stroke-linecap="round" stroke-linejoin="round" fill="url(#linear-gradient-18)"/><polygon points="47.5 36 21.5 23 21.5 26 47.5 39 47.5 36" stroke="#053755" stroke-linecap="round" stroke-linejoin="round" fill="url(#linear-gradient-19)"/><polygon points="47.5 36.5 21.5 23.5 21.5 26.5 47.5 39.5 47.5 36.5" stroke="#053755" stroke-linecap="round" stroke-linejoin="round" fill="url(#linear-gradient-17)"/><polygon points="47.5 36 21.5 23 21.5 26 47.5 39 47.5 36" stroke="#053755" stroke-linecap="round" stroke-linejoin="round" fill="url(#linear-gradient-18)"/><polygon points="47.5 36.5 21.5 23.5 21.5 26.5 47.5 39.5 47.5 36.5" stroke="#053755" stroke-linecap="round" stroke-linejoin="round" fill="url(#linear-gradient-17)"/><polygon points="19.5 19.5 19.5 52.5 23.5 51.5 23.5 18.5 19.5 19.5" stroke="#797979" stroke-linecap="round" stroke-linejoin="round" fill="url(#linear-gradient-3)"/><polygon points="45.5 12.5 45.5 45.5 49.5 44.5 49.5 11.5 45.5 12.5" stroke="#797979" stroke-linecap="round" stroke-linejoin="round" fill="url(#linear-gradient-3)"/><polygon points="15.5 19.5 19.5 22.5 49.5 13.5 45.5 10.5 15.5 19.5" fill="#b3b3b3" stroke="#797979" stroke-linecap="round" stroke-linejoin="round"/><polygon points="15.5 16.5 19.5 19.5 49.5 11.5 43.5 9 15.5 16.5" stroke="#797979" stroke-linecap="round" stroke-linejoin="round" fill="url(#linear-gradient-12)"/><polygon points="19.5 19.5 19.5 22.5 49.5 14.5 49.5 11.5 19.5 19.5" stroke="#797979" stroke-linecap="round" stroke-linejoin="round" fill="url(#linear-gradient-3)"/><polyline points="41.5 40.61 37.35 41.5 45.35 47.5 53.5 45.5 49.5 43.09 49.5 14.5 49.5 11.5 43.5 9 15.5 16.5 15.5 47.64 11.5 48.5 19.5 54.5 27.64 52.5 23.5 50.01 23.5 21.43 41.5 16.63" fill="none" stroke="#323232" stroke-linecap="round" stroke-linejoin="round"/></g></svg>