<svg id="FINAL_NEW" data-name="FINAL NEW" xmlns="http://www.w3.org/2000/svg" xmlns:xlink="http://www.w3.org/1999/xlink" viewBox="0 0 64 64"><defs><linearGradient id="linear-gradient" x1="35.88" y1="36.26" x2="31.94" y2="29.45" gradientTransform="translate(22.89 -12.45) rotate(32.93)" gradientUnits="userSpaceOnUse"><stop offset="0" stop-color="#386f8d"/><stop offset="1" stop-color="#8dd7f4"/></linearGradient><linearGradient id="linear-gradient-2" x1="43.32" y1="39" x2="49.97" y2="50.53" gradientUnits="userSpaceOnUse"><stop offset="0" stop-color="#f5f6f6"/><stop offset="0.99" stop-color="#d2d3d3"/></linearGradient><linearGradient id="linear-gradient-3" x1="48.49" y1="47.17" x2="45.38" y2="41.79" gradientUnits="userSpaceOnUse"><stop offset="0" stop-color="#2a5b79"/><stop offset="1" stop-color="#3388b0"/></linearGradient><linearGradient id="linear-gradient-4" x1="15.2" y1="37.62" x2="24.2" y2="53.21" xlink:href="#linear-gradient-2"/><linearGradient id="linear-gradient-5" x1="18.08" y1="43.43" x2="14.89" y2="37.91" gradientTransform="matrix(1, 0, 0, 1, 0, 0)" xlink:href="#linear-gradient"/><linearGradient id="linear-gradient-6" x1="23.71" y1="40.93" x2="22.28" y2="38.45" gradientUnits="userSpaceOnUse"><stop offset="0" stop-color="#161616"/><stop offset="1" stop-color="#515151"/></linearGradient><linearGradient id="linear-gradient-7" x1="23.71" y1="43.93" x2="22.28" y2="41.45" xlink:href="#linear-gradient-6"/><linearGradient id="linear-gradient-8" x1="21.08" y1="48.44" x2="17.9" y2="42.93" xlink:href="#linear-gradient-6"/><linearGradient id="linear-gradient-9" x1="21.08" y1="54.44" x2="17.9" y2="48.93" xlink:href="#linear-gradient-6"/><linearGradient id="linear-gradient-10" x1="15.78" y1="13.58" x2="23.56" y2="27.05" xlink:href="#linear-gradient-2"/><linearGradient id="linear-gradient-11" x1="20.64" y1="22.59" x2="16.46" y2="15.35" xlink:href="#linear-gradient-3"/><linearGradient id="linear-gradient-12" x1="21.16" y1="51.4" x2="18.03" y2="45.97" xlink:href="#linear-gradient-6"/><linearGradient id="linear-gradient-13" x1="40.03" y1="15.45" x2="47.94" y2="29.14" gradientUnits="userSpaceOnUse"><stop offset="0" stop-color="#f5f6f6"/><stop offset="0.99" stop-color="#bfbebe"/></linearGradient><linearGradient id="linear-gradient-14" x1="50.21" y1="17.48" x2="54.99" y2="25.76" gradientUnits="userSpaceOnUse"><stop offset="0" stop-color="#fff"/><stop offset="1" stop-color="#d2d3d3"/></linearGradient><linearGradient id="linear-gradient-15" x1="44.99" y1="11.02" x2="48.35" y2="16.84" gradientUnits="userSpaceOnUse"><stop offset="0" stop-color="#fff"/><stop offset="1" stop-color="#f1f0f0"/></linearGradient><linearGradient id="linear-gradient-16" x1="53.76" y1="20.78" x2="51.02" y2="16.03" gradientTransform="matrix(1, 0, 0, 1, 0, 0)" xlink:href="#linear-gradient"/><linearGradient id="linear-gradient-17" x1="50.4" y1="16.4" x2="48.37" y2="12.89" gradientUnits="userSpaceOnUse"><stop offset="0" stop-color="#74c4e2"/><stop offset="1" stop-color="#a4def6"/></linearGradient><linearGradient id="linear-gradient-18" x1="48.99" y1="23.9" x2="44.59" y2="16.29" gradientUnits="userSpaceOnUse"><stop offset="0" stop-color="#2a5b79"/><stop offset="1" stop-color="#84bedc"/></linearGradient></defs><g opacity="0.45"><path d="M46.49,47.58a1,1,0,0,1-.7-.29l-25.5-25.5a1,1,0,0,1,0-1.41,1,1,0,0,1,.7-.3,1,1,0,0,1,.71.3l25.5,25.5a1,1,0,0,1-.71,1.7Z" fill="#fff"/><path d="M21,20.58a.51.51,0,0,1,.36.15l25.5,25.5a.51.51,0,0,1,0,.71.54.54,0,0,1-.36.14.52.52,0,0,1-.35-.14l-25.5-25.5a.5.5,0,0,1,0-.71.49.49,0,0,1,.35-.15m0-1a1.5,1.5,0,0,0-1.5,1.5,1.5,1.5,0,0,0,.44,1.06l25.5,25.5a1.47,1.47,0,0,0,1.06.44,1.46,1.46,0,0,0,1.06-.44,1.49,1.49,0,0,0,0-2.12L22.05,20A1.5,1.5,0,0,0,21,19.58Z" fill="#fff"/></g><g opacity="0.45"><path d="M22,46.1a1,1,0,0,1-.71-1.7l25.5-25.5a1,1,0,0,1,.71-.3,1,1,0,0,1,.71,1.71l-25.5,25.5A1,1,0,0,1,22,46.1Z" fill="#fff"/><path d="M47.45,19.1a.49.49,0,0,1,.35.15.5.5,0,0,1,0,.71L22.3,45.46a.52.52,0,0,1-.35.14.54.54,0,0,1-.36-.14.51.51,0,0,1,0-.71l25.5-25.5a.51.51,0,0,1,.36-.15m0-1a1.5,1.5,0,0,0-1.06.44L20.89,44a1.49,1.49,0,0,0,0,2.12,1.5,1.5,0,0,0,2.12,0l25.5-25.5A1.5,1.5,0,0,0,49,19.6a1.52,1.52,0,0,0-.44-1.06,1.5,1.5,0,0,0-1.06-.44Z" fill="#fff"/></g><path d="M46.49,47.08a.52.52,0,0,1-.35-.14l-25.5-25.5a.5.5,0,0,1,.71-.71l25.5,25.5a.51.51,0,0,1,0,.71A.54.54,0,0,1,46.49,47.08Z" fill="#333332"/><path d="M22,45.6a.54.54,0,0,1-.36-.14.51.51,0,0,1,0-.71l25.5-25.5a.5.5,0,0,1,.71.71L22.3,45.46A.52.52,0,0,1,22,45.6Z" fill="#333332"/><circle cx="33.49" cy="33.58" r="3" stroke="#053755" stroke-linecap="round" stroke-linejoin="round" fill="url(#linear-gradient)"/><circle cx="46.49" cy="44.5" r="8" stroke="#333332" stroke-linecap="round" stroke-linejoin="round" fill="url(#linear-gradient-2)"/><polygon points="40.99 44.96 45.24 49.05 51.99 42.46 50.49 40.96 45.24 46.05 42.49 43.46 40.99 44.96" fill="url(#linear-gradient-3)"/><rect x="12.49" y="36.6" width="14" height="16.9" stroke="#333332" stroke-linecap="round" stroke-linejoin="round" fill="url(#linear-gradient-4)"/><rect x="14.49" y="38.69" width="4" height="4" rx="0.82" stroke="#053755" stroke-linecap="round" stroke-linejoin="round" fill="url(#linear-gradient-5)"/><line x1="20.99" y1="39.69" x2="24.99" y2="39.69" fill="#fffffd" fill-opacity="0.5" stroke-linejoin="round" stroke-opacity="0.45" stroke="url(#linear-gradient-6)"/><line x1="20.99" y1="42.69" x2="24.99" y2="42.69" fill="#fffffd" fill-opacity="0.5" stroke-linejoin="round" stroke-opacity="0.45" stroke="url(#linear-gradient-7)"/><line x1="13.99" y1="45.69" x2="24.99" y2="45.69" fill="#fffffd" fill-opacity="0.5" stroke-linejoin="round" stroke-opacity="0.45" stroke="url(#linear-gradient-8)"/><line x1="13.99" y1="51.69" x2="24.99" y2="51.69" fill="#fffffd" fill-opacity="0.5" stroke-linejoin="round" stroke-opacity="0.45" stroke="url(#linear-gradient-9)"/><path d="M12.62,13.5H26.37a2.13,2.13,0,0,1,2.13,2.13v8.75a2.12,2.12,0,0,1-2.12,2.12H12.62a2.12,2.12,0,0,1-2.12-2.12V15.63a2.13,2.13,0,0,1,2.13-2.12Z" stroke="#333332" stroke-linecap="round" stroke-linejoin="round" fill="url(#linear-gradient-10)"/><path d="M16,15.62s9,4.46,9,4.46l-9,4.5Z" fill="url(#linear-gradient-11)"/><line x1="14.19" y1="48.69" x2="24.99" y2="48.69" fill="#fffffd" fill-opacity="0.5" stroke-linejoin="round" stroke-opacity="0.45" stroke="url(#linear-gradient-12)"/><polygon points="37.49 14.37 37.49 25.53 49.49 30 49.49 17.35 37.49 14.37" fill="url(#linear-gradient-13)"/><polygon points="55.5 12.88 49.49 17.35 49.49 30 55.5 24.05 55.5 12.88" fill="url(#linear-gradient-14)"/><polygon points="37.49 14.37 45 10.65 55.5 12.88 48.75 17.35 37.49 14.37" fill="url(#linear-gradient-15)"/><line x1="48.75" y1="17.35" x2="37.49" y2="14.37" fill="none" stroke="#797979" stroke-linecap="round" stroke-linejoin="round"/><line x1="49.49" y1="29.5" x2="49.49" y2="22.5" fill="none" stroke="#797979" stroke-linecap="round" stroke-linejoin="round"/><polygon points="45 10.5 37.49 14.22 37.49 25.39 49.49 30 55.5 23.9 55.5 17.94 49.2 17.79 49.82 11.68 45 10.5" fill="none" stroke="#333332" stroke-linecap="round" stroke-linejoin="round"/><polygon points="49.2 17.35 49.2 23.8 55.5 18.09 55.5 12.88 49.2 17.35" stroke="#053755" stroke-linecap="round" stroke-linejoin="round" fill="url(#linear-gradient-16)"/><polygon points="42.9 15.76 49.2 17.35 55.5 12.88 49.49 11.6 42.9 15.76" stroke="#053755" stroke-linecap="round" stroke-linejoin="round" fill="url(#linear-gradient-17)"/><polygon points="43.49 21.81 49.49 23.8 49.49 17.35 43.49 15.76 43.49 21.81" stroke="#053755" stroke-linecap="round" stroke-linejoin="round" fill="url(#linear-gradient-18)"/></svg>