<svg id="Layer_5" data-name="Layer 5" xmlns="http://www.w3.org/2000/svg" xmlns:xlink="http://www.w3.org/1999/xlink" viewBox="0 0 64 64"><defs><style>.cls-1{fill:url(#linear-gradient);}.cls-2{fill:#053755;}.cls-3{fill:url(#linear-gradient-2);}.cls-4{fill:#323232;}</style><linearGradient id="linear-gradient" x1="45.54" y1="35.73" x2="32.04" y2="12.34" gradientUnits="userSpaceOnUse"><stop offset="0" stop-color="#386f8d"/><stop offset="1" stop-color="#8dd7f4"/></linearGradient><linearGradient id="linear-gradient-2" x1="18.67" y1="34.74" x2="28.79" y2="52.27" gradientUnits="userSpaceOnUse"><stop offset="0" stop-color="#d7d7d7"/><stop offset="1" stop-color="#969696"/></linearGradient></defs><title>SWXMOSI_AP_appicon</title><path class="cls-1" d="M54.14,25.44V22H51.42a13,13,0,0,0-.84-3.19l2.34-1.35-1.73-3-2.35,1.35a13.18,13.18,0,0,0-2.33-2.33l1.36-2.35-3-1.73-1.36,2.35a12.5,12.5,0,0,0-3.19-.85V8.19H36.88V10.9a12.73,12.73,0,0,0-3.19.85L32.34,9.4l-3,1.73,1.36,2.35a13.23,13.23,0,0,0-2.34,2.33L26,14.46l-1.72,3,2.34,1.35A13,13,0,0,0,25.79,22H23.08v3.45h2.71a12.93,12.93,0,0,0,.85,3.19L24.3,30,26,33l2.35-1.35A13.23,13.23,0,0,0,30.71,34L29.35,36.3l3,1.73,1.35-2.35a12.73,12.73,0,0,0,3.19.85v2.72h3.45V36.53a12.69,12.69,0,0,0,3.2-.85L44.88,38l3-1.73L46.51,34a13.18,13.18,0,0,0,2.33-2.33L51.19,33l1.73-3-2.34-1.36a12.91,12.91,0,0,0,.84-3.19ZM38.61,27.17a3.46,3.46,0,1,1,3.45-3.45A3.45,3.45,0,0,1,38.61,27.17Z"/><path class="cls-2" d="M40.33,40.11H36.88a.87.87,0,0,1-.86-.86v-2a12.69,12.69,0,0,1-2-.51l-1,1.71a.85.85,0,0,1-1.17.31l-3-1.72a.86.86,0,0,1-.32-1.18l1-1.72a14.64,14.64,0,0,1-1.42-1.42l-1.72,1a.82.82,0,0,1-.65.09.93.93,0,0,1-.53-.4l-1.72-3a.86.86,0,0,1,.32-1.18l1.7-1a15.49,15.49,0,0,1-.51-1.95h-2a.85.85,0,0,1-.86-.86V22a.85.85,0,0,1,.86-.86h2a15.49,15.49,0,0,1,.51-1.95l-1.71-1a.88.88,0,0,1-.4-.52.85.85,0,0,1,.09-.66l1.72-3a.93.93,0,0,1,.53-.4.83.83,0,0,1,.65.09l1.72,1a14.64,14.64,0,0,1,1.42-1.42l-1-1.72a.87.87,0,0,1-.08-.65.85.85,0,0,1,.4-.53l3-1.72A.86.86,0,0,1,33.09,9l1,1.71a14,14,0,0,1,2-.51v-2a.87.87,0,0,1,.86-.87h3.45a.87.87,0,0,1,.87.87v2a13.81,13.81,0,0,1,1.94.51l1-1.71a.87.87,0,0,1,.52-.4.85.85,0,0,1,.66.09l3,1.72a.86.86,0,0,1,.31,1.18l-1,1.72A12.69,12.69,0,0,1,49,14.7l1.72-1a.86.86,0,0,1,1.18.32l1.73,3a.89.89,0,0,1,.08.66.84.84,0,0,1-.4.52l-1.71,1a14,14,0,0,1,.52,1.95h2A.86.86,0,0,1,55,22v3.45a.86.86,0,0,1-.86.86h-2a14,14,0,0,1-.52,1.95l1.71,1a.87.87,0,0,1,.32,1.18l-1.73,3a.88.88,0,0,1-.52.4.85.85,0,0,1-.66-.09l-1.72-1a12.69,12.69,0,0,1-1.42,1.42l1,1.72a.83.83,0,0,1,.09.65.86.86,0,0,1-.4.53l-3,1.72a.86.86,0,0,1-1.18-.31l-1-1.71a12.57,12.57,0,0,1-1.94.51v2A.87.87,0,0,1,40.33,40.11Zm-2.58-1.73h1.72V36.53a.87.87,0,0,1,.75-.86,12.21,12.21,0,0,0,3-.78.85.85,0,0,1,1.07.36l.92,1.6,1.5-.86-.93-1.61A.87.87,0,0,1,46,33.27a12.16,12.16,0,0,0,2.18-2.18.85.85,0,0,1,1.11-.22l1.61.93.86-1.5-1.6-.92a.87.87,0,0,1-.36-1.08,12.15,12.15,0,0,0,.79-3,.85.85,0,0,1,.85-.75h1.85V22.85H51.42a.85.85,0,0,1-.85-.75,12.15,12.15,0,0,0-.79-3,.87.87,0,0,1,.36-1.08l1.6-.92-.86-1.49-1.61.92a.85.85,0,0,1-1.11-.22A12.16,12.16,0,0,0,46,14.16a.87.87,0,0,1-.22-1.11l.93-1.6-1.5-.87-.92,1.6a.86.86,0,0,1-1.07.37,11.79,11.79,0,0,0-3-.79.87.87,0,0,1-.75-.86V9.05H37.75V10.9a.87.87,0,0,1-.75.86,11.68,11.68,0,0,0-3,.79.88.88,0,0,1-1.08-.37L32,10.58l-1.49.87.92,1.6a.84.84,0,0,1-.22,1.11,12.44,12.44,0,0,0-2.17,2.18.87.87,0,0,1-1.12.22l-1.6-.93-.87,1.5,1.6.92a.87.87,0,0,1,.37,1.08,11.72,11.72,0,0,0-.79,3,.86.86,0,0,1-.86.75H23.94v1.73h1.85a.86.86,0,0,1,.86.75,11.9,11.9,0,0,0,.79,3,.86.86,0,0,1-.37,1.07l-1.59.92.86,1.5,1.6-.93a.87.87,0,0,1,1.12.22,12.44,12.44,0,0,0,2.17,2.18.84.84,0,0,1,.22,1.11L30.53,36l1.49.86.92-1.6A.87.87,0,0,1,34,34.89a12.09,12.09,0,0,0,3,.78.87.87,0,0,1,.75.86ZM38.61,28a4.32,4.32,0,1,1,4.31-4.31A4.33,4.33,0,0,1,38.61,28Zm0-6.9a2.59,2.59,0,1,0,2.59,2.59A2.59,2.59,0,0,0,38.61,21.13Z"/><path class="cls-3" d="M36,44.42V41.83H33.83a11.36,11.36,0,0,0-.68-2.62L35,38.1l-1.39-2.42-1.9,1.09a9.85,9.85,0,0,0-1.88-1.88L31,33,28.56,31.6l-1.14,1.89a10.75,10.75,0,0,0-2.62-.68V30.62H22.22v2.19a10.75,10.75,0,0,0-2.62.68L18.48,31.6,16.06,33l1.09,1.89a10.79,10.79,0,0,0-1.88,1.88l-1.9-1.09L12,38.08l1.89,1.13a11.36,11.36,0,0,0-.68,2.62H11v2.59h2.19A11.36,11.36,0,0,0,13.87,47L12,48.15l1.39,2.42,1.9-1.08a10.73,10.73,0,0,0,1.87,1.88l-1.09,1.89,2.41,1.39,1.14-1.88a11.23,11.23,0,0,0,2.62.68v2.19H24.8V53.45a11.23,11.23,0,0,0,2.62-.68l1.12,1.89L31,53.27l-1.09-1.9a10.14,10.14,0,0,0,1.88-1.88l1.9,1.1L35,48.18,33.15,47a11.36,11.36,0,0,0,.68-2.62ZM23.51,45.91a2.78,2.78,0,1,1,2.78-2.78A2.78,2.78,0,0,1,23.51,45.91Z"/><path class="cls-4" d="M24.8,56.5H22.22a.87.87,0,0,1-.87-.86V54.18A13.9,13.9,0,0,1,20,53.82L19.2,55.1a.86.86,0,0,1-1.17.3L15.62,54a.87.87,0,0,1-.32-1.18L16,51.57a12.54,12.54,0,0,1-1-1l-1.27.72A.86.86,0,0,1,12.62,51l-1.39-2.42a.87.87,0,0,1,.31-1.17l1.27-.75a11.13,11.13,0,0,1-.35-1.38H11a.85.85,0,0,1-.86-.86V41.83A.86.86,0,0,1,11,41h1.46a11.12,11.12,0,0,1,.36-1.38l-1.28-.77a.87.87,0,0,1-.31-1.17l1.4-2.41a.85.85,0,0,1,1.17-.32l1.27.73a12.68,12.68,0,0,1,1-1l-.73-1.26a.87.87,0,0,1,.32-1.18l2.42-1.39a.87.87,0,0,1,1.18.31L20,32.43a11.43,11.43,0,0,1,1.37-.35V30.62a.87.87,0,0,1,.87-.87H24.8a.87.87,0,0,1,.87.87v1.46a11.6,11.6,0,0,1,1.38.35l.77-1.28a.87.87,0,0,1,1.17-.3l2.41,1.39a.88.88,0,0,1,.32,1.18L31,34.69a9.77,9.77,0,0,1,1,1l1.27-.73a.88.88,0,0,1,1.18.32l1.39,2.42a.87.87,0,0,1-.31,1.17l-1.27.75A11.6,11.6,0,0,1,34.56,41H36a.86.86,0,0,1,.86.86v2.59a.85.85,0,0,1-.86.86H34.56a11.77,11.77,0,0,1-.36,1.39l1.28.77a.85.85,0,0,1,.3,1.17L34.39,51a.85.85,0,0,1-1.17.31L32,50.6a11.1,11.1,0,0,1-1,1l.73,1.27A.86.86,0,0,1,31.39,54L29,55.4a.86.86,0,0,1-1.18-.31L27,53.82a13.7,13.7,0,0,1-1.37.36v1.46A.87.87,0,0,1,24.8,56.5Zm-1.72-1.73h.86V53.45a.87.87,0,0,1,.74-.86A10.44,10.44,0,0,0,27.1,52a.87.87,0,0,1,1.07.36l.68,1.15.93-.53-.66-1.15a.87.87,0,0,1,.22-1.11A9.45,9.45,0,0,0,31.07,49a.85.85,0,0,1,1.11-.21l1.15.66.54-.93-1.17-.7a.87.87,0,0,1-.35-1.07A9.75,9.75,0,0,0,33,44.3a.86.86,0,0,1,.85-.74h1.33V42.7H33.83A.86.86,0,0,1,33,42a9.87,9.87,0,0,0-.63-2.41.86.86,0,0,1,.36-1.07l1.16-.68-.54-.93-1.15.66a.87.87,0,0,1-1.11-.22,9.09,9.09,0,0,0-1.72-1.73.85.85,0,0,1-.22-1.11l.66-1.15-.93-.54-.7,1.16a.85.85,0,0,1-1.06.35,10.44,10.44,0,0,0-2.42-.62.86.86,0,0,1-.74-.85V31.48h-.86v1.33a.86.86,0,0,1-.75.85,10.48,10.48,0,0,0-2.41.62.87.87,0,0,1-1.07-.36l-.68-1.15-.93.54.66,1.14a.88.88,0,0,1-.22,1.12A9.71,9.71,0,0,0,16,37.29a.85.85,0,0,1-1.11.22l-1.15-.66-.54.92,1.16.71a.85.85,0,0,1,.36,1.06A10.35,10.35,0,0,0,14,42a.86.86,0,0,1-.85.75H11.86v.86h1.33a.86.86,0,0,1,.85.74,10.22,10.22,0,0,0,.63,2.41.86.86,0,0,1-.36,1.07l-1.16.68.54.94,1.15-.66A.86.86,0,0,1,16,49a9.34,9.34,0,0,0,1.72,1.72.87.87,0,0,1,.22,1.12L17.23,53l.93.53.7-1.16A.86.86,0,0,1,19.92,52a10.48,10.48,0,0,0,2.41.62.87.87,0,0,1,.75.86Zm.43-8a3.65,3.65,0,1,1,3.64-3.64A3.64,3.64,0,0,1,23.51,46.77Zm0-5.56a1.92,1.92,0,1,0,1.92,1.92A1.92,1.92,0,0,0,23.51,41.21Z"/></svg>