<svg id="Layer_13" data-name="Layer 13" xmlns="http://www.w3.org/2000/svg" viewBox="0 0 64 64"><defs><style>.cls-1{fill:#da291b;}.cls-2{fill:#fff;}</style></defs><title>00008_I_Template_Appicon</title><rect class="cls-1" x="10.33" y="10" width="44" height="44" rx="6"/><path class="cls-2" d="M21.34,15.74l4.57,6.88,4.56-6.88h2.89V29.19H30.57V19.63l-3.63,5.43H24.83l-3.59-5.43v9.56H18.45V15.74Z"/><path class="cls-2" d="M45.45,19.4V29c0,3.32-1.94,4.25-4.85,4.25a13.89,13.89,0,0,1-3.47-.49l.24-1.9a13.78,13.78,0,0,0,3.13.45c1.52,0,2.25-.45,2.25-1.88V29a8.46,8.46,0,0,1-1.82.21c-2.41,0-4.35-.79-4.35-3.64V19.4h2.71v6.23c0,1.21.73,1.62,1.8,1.62A6.27,6.27,0,0,0,42.75,27V19.4Z"/><path class="cls-2" d="M26.35,35.72a21.28,21.28,0,0,0-3.25-.34c-1.52,0-2.47.24-2.47,1.32,0,2,6.27,3,6.27,7,0,2.51-1.88,3.52-5,3.52a14.71,14.71,0,0,1-4.18-.65l.28-2a13.34,13.34,0,0,0,3.82.63C23.1,45.25,24,45,24,43.93c0-2.22-6.29-3.43-6.29-7.07,0-2.75,2.26-3.5,5.38-3.5a20,20,0,0,1,3.43.34Z"/><path class="cls-2" d="M31.67,47,28,33.58h2.87l2.46,10.31L36,36.07h2.43L41.11,44A37.55,37.55,0,0,0,43.8,33.58h2.62A44.34,44.34,0,0,1,42.4,47H39.83l-2.62-7.9L34.4,47Z"/></svg>