<?xml version="1.0" encoding="iso-8859-1"?>
<!-- Generator: Adobe Illustrator 23.1.0, SVG Export Plug-In . SVG Version: 6.00 Build 0)  -->
<svg version="1.1" id="FINAL" xmlns="http://www.w3.org/2000/svg" xmlns:xlink="http://www.w3.org/1999/xlink" x="0px" y="0px"
	 viewBox="0 0 64 64" style="enable-background:new 0 0 64 64;" xml:space="preserve">
<linearGradient id="SVGID_1_" gradientUnits="userSpaceOnUse" x1="12.9206" y1="42.5602" x2="19.4728" y2="53.909">
	<stop  offset="0" style="stop-color:#F5F6F6"/>
	<stop  offset="0.9921" style="stop-color:#BFBEBE"/>
</linearGradient>
<polygon style="fill:url(#SVGID_1_);" points="11.421,41.319 11.421,44.694 20.421,54.819 20.421,50.819 "/>
<g>
	<linearGradient id="SVGID_2_" gradientUnits="userSpaceOnUse" x1="28.9736" y1="13.2775" x2="33.7991" y2="29.1328">
		<stop  offset="0" style="stop-color:#161616"/>
		<stop  offset="1" style="stop-color:#515151"/>
	</linearGradient>
	<polygon style="fill-rule:evenodd;clip-rule:evenodd;fill:url(#SVGID_2_);" points="19.609,22.242 50.056,18.52 42.026,26.508 
		15.092,31.694 	"/>
	<linearGradient id="SVGID_3_" gradientUnits="userSpaceOnUse" x1="27.9343" y1="19.8932" x2="33.8178" y2="30.0837">
		<stop  offset="0" style="stop-color:#ABABAB"/>
		<stop  offset="1" style="stop-color:#5B5B5B"/>
	</linearGradient>
	<path style="fill:url(#SVGID_3_);" d="M37.509,18.52l-20.995,7.403l-4.35,6.943l30.448-5.855l9.118-6.19L37.509,18.52z
		 M43.751,24.208c-0.779,0.75-1.254,1.209-1.936,1.485c-0.682,0.275-0.86,0.184-1.698,0.357c-1.819,0.375-18.462,3.729-19.496,3.962
		s-1.431-0.124-0.776-0.689l1.184-1.141c0,0,0.329-0.42,3.173-0.922c2.844-0.502,7.673-1.567,7.673-1.567l0.868-1.125l-1.049-2.887
		l3.877-0.583c0,0,1.521-0.38,1.937,1.144c0.042,0.155,1.117,2.509,1.117,2.509l5.044-1.036
		C43.669,23.715,44.433,23.551,43.751,24.208z"/>
	<linearGradient id="SVGID_4_" gradientUnits="userSpaceOnUse" x1="28.9911" y1="10.5031" x2="38.2531" y2="26.5454">
		<stop  offset="0" style="stop-color:#FFFFFF"/>
		<stop  offset="1" style="stop-color:#D2D3D3"/>
	</linearGradient>
	<path style="fill:url(#SVGID_4_);" d="M15.092,15.55l33.459-5.521l3.179,10.791l-12.045,2.426l-1.087-2.76
		c0,0-0.502-1.004-2.091-0.669l-3.705,0.586c0,0-1.398,0.418-1.063,1.84c0.335,1.422,0.586,2.175,0.586,2.175L18.688,27.01
		L15.092,15.55z"/>
	<linearGradient id="SVGID_5_" gradientUnits="userSpaceOnUse" x1="11.0074" y1="19.6691" x2="16.4832" y2="29.1535">
		<stop  offset="0" style="stop-color:#F5F6F6"/>
		<stop  offset="0.9921" style="stop-color:#BFBEBE"/>
	</linearGradient>
	<polygon style="fill:url(#SVGID_5_);" points="12.164,32.865 18.688,27.01 15.092,15.55 9.32,22.158 	"/>
	<path style="fill:#797979;" d="M19.118,26.875l-0.946-0.007L12.41,32.04l-0.025-0.093l-0.587,1.156
		c0.058,0.089,0.134,0.163,0.238,0.194c0.042,0.012,0.085,0.018,0.128,0.018c0.11,0,0.217-0.04,0.301-0.115l6.524-5.855
		C19.12,27.227,19.171,27.043,19.118,26.875z"/>
	<path style="fill:#797979;" d="M51.088,20.236l0.071,0.24L39.964,22.73l-0.965-2.446c-0.026-0.054-0.672-1.306-2.564-0.912
		l-3.763,0.599c-0.624,0.187-1.714,0.924-1.372,2.375c0.182,0.775,0.339,1.353,0.446,1.724l-12.749,2.424l-3.295-10.499
		l-0.924,0.062l3.48,11.088c0.06,0.191,0.236,0.316,0.43,0.316c0.027,0,0.055-0.003,0.084-0.008l13.634-2.593
		c0.127-0.025,0.238-0.102,0.303-0.214c0.066-0.112,0.08-0.246,0.04-0.369c-0.003-0.008-0.25-0.756-0.575-2.136
		c-0.222-0.947,0.592-1.255,0.696-1.293l3.727-0.59c1.182-0.25,1.561,0.367,1.579,0.394l1.087,2.761
		c0.079,0.201,0.289,0.32,0.507,0.276l12.045-2.426c0.124-0.025,0.231-0.101,0.296-0.209c0.038-0.062,0.055-0.131,0.059-0.202
		L51.088,20.236z"/>
	<polygon style="fill:none;stroke:#333332;stroke-linecap:round;stroke-linejoin:round;stroke-miterlimit:1;" points="48.551,10.03 
		15.092,15.55 9.32,22.158 12.164,32.865 42.612,27.01 51.729,20.82 	"/>
</g>
<linearGradient id="SVGID_6_" gradientUnits="userSpaceOnUse" x1="27.7787" y1="34.6213" x2="36.6446" y2="49.9775">
	<stop  offset="0" style="stop-color:#FFFFFF"/>
	<stop  offset="1" style="stop-color:#F1F0F0"/>
</linearGradient>
<polygon style="fill:url(#SVGID_6_);stroke:#797979;stroke-linecap:round;stroke-linejoin:round;stroke-miterlimit:1;" points="
	41.197,34.982 11.726,41.302 20.171,50.723 52.421,42.819 "/>
<linearGradient id="SVGID_7_" gradientUnits="userSpaceOnUse" x1="37.7583" y1="43.171" x2="31.2995" y2="45.939">
	<stop  offset="0" style="stop-color:#F5F6F6"/>
	<stop  offset="0.2475" style="stop-color:#F0F1F1"/>
	<stop  offset="0.5382" style="stop-color:#E3E3E3"/>
	<stop  offset="0.8495" style="stop-color:#CCCBCB"/>
	<stop  offset="0.9921" style="stop-color:#BFBEBE"/>
</linearGradient>
<path style="fill:url(#SVGID_7_);stroke:#797979;stroke-linecap:round;stroke-linejoin:round;stroke-miterlimit:1;" d="
	M37.001,46.462l-3.825,0.898l-1.755-1.871v-1.67c0-1.109,0.92-1.455,1.996-1.676l3.217-0.797c0.77-0.171,1.75,0.182,2.22,0.578
	c0,0,1.2,1.07,1.6,1.488l-1.821,1.247C38.633,45.65,38.236,46.146,37.001,46.462z"/>
<g>
	<linearGradient id="SVGID_8_" gradientUnits="userSpaceOnUse" x1="17.824" y1="39.1594" x2="43.4137" y2="38.3184">
		<stop  offset="0" style="stop-color:#386F8D"/>
		<stop  offset="0.2196" style="stop-color:#8DD7F4"/>
		<stop  offset="1" style="stop-color:#518EAB"/>
	</linearGradient>
	<path style="fill:url(#SVGID_8_);stroke:#053755;stroke-linecap:round;stroke-linejoin:round;stroke-miterlimit:1;" d="
		M44.586,34.125l-3.861-2.819c0,0-1.301-1.396-4.001-0.764c-2.7,0.632-17.303,3.278-17.303,3.278c-0.867,0.155-2,0.241-2,2.5v5.5
		l4.359,4.653c0,0,0.637,1.094,4.141,0.347c1.077-0.23,5.5-1.33,5.5-1.33v-1.67c0-1.109,0.92-1.455,1.996-1.676l3.217-0.797
		c1.748-0.389,2.445,1.226,3.16,1.973l-0.705,0.425c2.816-0.682,4.946-1.203,4.946-1.203s1.272-0.073,1.387-1.221l-0.088-6.107
		C45.333,35.212,45.333,34.646,44.586,34.125z"/>
	<linearGradient id="SVGID_9_" gradientUnits="userSpaceOnUse" x1="29.075" y1="24.9718" x2="31.9421" y2="36.6379">
		<stop  offset="0" style="stop-color:#386F8D"/>
		<stop  offset="1" style="stop-color:#8DD7F4"/>
	</linearGradient>
	<path style="fill:url(#SVGID_9_);stroke:#053755;stroke-linecap:round;stroke-linejoin:round;stroke-miterlimit:1;" d="
		M26.375,39.865l17.659-3.677c0.67-0.156,1.998-0.981,0.904-1.81l-4.213-3.074c0,0-1.427-1.222-4.001-0.764l-17.016,3.234
		c-1.298,0.185-2.901,1.044-1.203,2.531l3.562,3.016C22.067,39.323,23.485,40.566,26.375,39.865z"/>
	<linearGradient id="SVGID_10_" gradientUnits="userSpaceOnUse" x1="30.1095" y1="34.9286" x2="34.7314" y2="34.9286">
		<stop  offset="0" style="stop-color:#2A5B79"/>
		<stop  offset="1" style="stop-color:#84BEDC"/>
	</linearGradient>
	
		<ellipse style="fill:url(#SVGID_10_);stroke:#053755;stroke-width:1.1289;stroke-linecap:round;stroke-linejoin:round;stroke-miterlimit:1;" cx="31.788" cy="34.929" rx="3.632" ry="1.476"/>
</g>
<linearGradient id="SVGID_11_" gradientUnits="userSpaceOnUse" x1="33.9688" y1="44.5721" x2="38.8676" y2="53.0571">
	<stop  offset="0" style="stop-color:#FFFFFF"/>
	<stop  offset="1" style="stop-color:#D2D3D3"/>
</linearGradient>
<path style="fill:url(#SVGID_11_);" d="M40.335,45.891v-0.96c0-0.99-0.354-1.894-1.495-1.652l-3.669,0.915
	c-1.075,0.221-1.75,0.766-1.75,1.875v1.25l-13,3.5v4l32-8.5v-3.5L40.335,45.891z"/>
<path style="fill:#797979;" d="M20.921,54.088v-2.886l12.63-3.4c0.219-0.059,0.37-0.256,0.37-0.482l-0.065-1.252
	c0-0.652,0.213-1.074,1.317-1.303l3.579-0.887c0.254-0.056,0.45-0.019,0.604,0.104c0.255,0.207,0.564,0.391,0.564,0.924v0.931
	c0,0.154-0.015,0.354,0.107,0.449c0.121,0.096,0.277,0.128,0.43,0.09l11.463-2.913v0.524l1-0.296v-0.871
	c0-0.154-0.071-0.3-0.193-0.395s-0.278-0.131-0.43-0.09l-11.463,2.913v-0.316c0-0.851-0.351-1.323-0.849-1.726
	c-0.272-0.223-0.744-0.458-1.457-0.303l-3.576,0.887c-0.9,0.186-2.097,0.623-2.097,2.277l0.065,0.87l-12.63,3.4
	c-0.219,0.059-0.37,0.256-0.37,0.482v4c0,0.076,0.018,0.151,0.051,0.218L20.921,54.088z"/>
<path style="fill:#333332;" d="M52.707,42.409l-6.786-4.738v1.219l6,4.19v2.854L20.59,54.257l-8.669-9.753v-2.732l5-1.072v-1.018
	l-5.223,1.121l-0.306,0.018c-0.265,0.015-0.472,0.234-0.472,0.499v3.375c0,0.122,0.045,0.24,0.126,0.332l9,10.125
	c0.097,0.108,0.233,0.168,0.374,0.168c0.043,0,0.086-0.006,0.128-0.017l32-8.5c0.22-0.059,0.372-0.257,0.372-0.483v-3.5
	C52.921,42.656,52.841,42.503,52.707,42.409z"/>
</svg>
