<svg id="Layer_5" data-name="Layer 5" xmlns="http://www.w3.org/2000/svg" xmlns:xlink="http://www.w3.org/1999/xlink" viewBox="0 0 64 64"><defs><style>.cls-1{fill:url(#linear-gradient);}.cls-2{fill:none;stroke:#053755;stroke-linecap:round;stroke-linejoin:round;stroke-width:2px;}</style><linearGradient id="linear-gradient" x1="16.04" y1="16.11" x2="43.51" y2="50.26" gradientUnits="userSpaceOnUse"><stop offset="0.06" stop-color="#ff0b00"/><stop offset="0.22" stop-color="#ffbc00"/><stop offset="0.33" stop-color="#fffc00"/><stop offset="0.46" stop-color="#b3ff00"/><stop offset="0.6" stop-color="#33fe08"/><stop offset="0.8" stop-color="#2eb5ff"/><stop offset="1" stop-color="#0208ff"/></linearGradient></defs><title>SWXSIMO_AP_appicon</title><polygon class="cls-1" points="11.09 17.45 11.09 43.43 37.5 55 53 40.81 53 28.59 39.03 24.73 39.03 11.56 27.68 8.5 11.09 17.45"/><polygon class="cls-2" points="11.09 17.45 11.09 43.43 37.5 55 53 40.81 53 28.59 39.03 24.73 39.03 11.56 27.68 8.5 11.09 17.45"/><polyline class="cls-2" points="11.09 17.45 23.38 21.09 38.66 11.7"/><polyline class="cls-2" points="23.31 21.6 23.31 35.57 37.28 41.17 37.28 54.78"/><line class="cls-2" x1="23.31" y1="35.5" x2="39.1" y2="24.58"/><line class="cls-2" x1="37.28" y1="41.17" x2="53" y2="28.58"/></svg>