<svg xmlns="http://www.w3.org/2000/svg" xmlns:xlink="http://www.w3.org/1999/xlink" viewBox="0 0 64 64"><defs><style>.cls-1{isolation:isolate;}.Medium-Grey,.SINGLE-White-Item-2{stroke:#333332;}.\33 D-Blue-Top,.Medium-Grey,.SINGLE-White-Item-2,.cls-2{stroke-linecap:round;stroke-linejoin:round;}.SINGLE-White-Item-2{fill:url(#linear-gradient);}.Medium-Grey{fill:url(#linear-gradient-2);}.\33 D-Blue-Top{stroke:#053755;fill:url(#linear-gradient-6);}.cls-2{stroke:#003755;fill:url(#linear-gradient-7);}.cls-3{fill:#4d4c4c;}.cls-4{fill:#aeaeaf;mix-blend-mode:soft-light;}</style><linearGradient id="linear-gradient" x1="25.58" y1="19.15" x2="41.14" y2="46.1" gradientUnits="userSpaceOnUse"><stop offset="0" stop-color="#f5f6f6"/><stop offset="0.99" stop-color="#d2d3d3"/></linearGradient><linearGradient id="linear-gradient-2" x1="14.21" y1="22.39" x2="15.64" y2="24.85" gradientUnits="userSpaceOnUse"><stop offset="0" stop-color="#ababab"/><stop offset="1" stop-color="#5b5b5b"/></linearGradient><linearGradient id="linear-gradient-6" x1="42.61" y1="51.13" x2="23.52" y2="18.06" gradientUnits="userSpaceOnUse"><stop offset="0" stop-color="#74c4e2"/><stop offset="1" stop-color="#a4def6"/></linearGradient><linearGradient id="linear-gradient-7" x1="31" y1="25.53" x2="35.13" y2="32.69" gradientUnits="userSpaceOnUse"><stop offset="0" stop-color="#fff"/><stop offset="1" stop-color="#f1f0f0"/></linearGradient></defs><g class="cls-1"><g id="Layer_4" data-name="Layer 4"><path class="SINGLE-White-Item-2" d="M50.5,20.5l-11,5v7a9.9,9.9,0,0,0-6.5-2,9.9,9.9,0,0,0-6.5,2v-7l-11-5v2l9,9-9,8v4l11-4h0a9.9,9.9,0,0,0,6.5,2,9.9,9.9,0,0,0,6.5-2h0l11,4v-4l-9-8,9-9Z"/><ellipse class="Medium-Grey" cx="15" cy="23.75" rx="1.5" ry="1.75"/><ellipse class="Medium-Grey" cx="51" cy="23.75" rx="1.5" ry="1.75"/><ellipse class="Medium-Grey" cx="13" cy="46.75" rx="1.5" ry="1.75"/><ellipse class="Medium-Grey" cx="53" cy="46.75" rx="1.5" ry="1.75"/><path class="3D-Blue-Top" d="M52.5,37.5a10.39,10.39,0,0,0-1.41.1L41.5,31.5v-4l6-4.29v0c0,.69,1.34,1.25,3,1.25s3-.56,3-1.25v-4.5c0-.69-1.34-1.25-3-1.25s-3,.56-3,1.25V20l-7.39,3.7A13.46,13.46,0,0,0,33,22a13.46,13.46,0,0,0-7.11,1.7L18.5,20V18.75c0-.69-1.34-1.25-3-1.25s-3,.56-3,1.25v4.5c0,.69,1.34,1.25,3,1.25s3-.56,3-1.25v0l6,4.29v4l-9.59,6.1a10.39,10.39,0,0,0-1.41-.1c-2.21,0-4,.67-4,1.5v6c0,.83,1.79,1.5,4,1.5s4-.67,4-1.5V39.88l9.37-5A15.15,15.15,0,0,0,33,36a15.15,15.15,0,0,0,6.13-1.16l9.37,5V45c0,.83,1.79,1.5,4,1.5s4-.67,4-1.5V39C56.5,38.17,54.71,37.5,52.5,37.5Z"/><rect class="cls-2" x="27.5" y="25.5" width="11" height="7" rx="2"/><rect class="cls-3" x="14" y="16" width="2" height="3" rx="0.93"/><path class="cls-3" d="M22,14.24c-.09-.18-.38-.25-.82-.24a8.88,8.88,0,0,0-1.72.3,23.59,23.59,0,0,0-2.36.77c-.87.33-1.45,1.35-2.41,1.8s-2.22.29-3,.74a22.35,22.35,0,0,0-2.07,1.31A7.11,7.11,0,0,0,8.31,20c-.27.31-.37.57-.27.74s.38.25.82.24a8.88,8.88,0,0,0,1.72-.3,23.59,23.59,0,0,0,2.36-.77c.87-.33,1.45-1.35,2.41-1.8s2.22-.29,3-.74a22.35,22.35,0,0,0,2.07-1.31A7.11,7.11,0,0,0,21.69,15C22,14.67,22.06,14.41,22,14.24Z"/><path class="cls-4" d="M8,20.77l1.05-.5h0a8.31,8.31,0,0,1,1-.8,22,22,0,0,1,2-1.26,3.67,3.67,0,0,1,1.17-.27,9.71,9.71,0,0,0,1.22-.24l1.12-.54a7,7,0,0,0,.86-.72,3.44,3.44,0,0,1,.93-.72c.84-.31,1.61-.56,2.29-.74.35-.09.63-.15.87-.19l1.36-.65a1,1,0,0,0-.63-.14h-.1a8.88,8.88,0,0,0-1.72.3,23.59,23.59,0,0,0-2.36.77c-.87.33-1.45,1.35-2.41,1.8s-2.22.29-3,.74a22.35,22.35,0,0,0-2.07,1.31A7.49,7.49,0,0,0,8.31,20c-.27.31-.37.57-.27.74Z"/><rect class="cls-3" x="12" y="36" width="2" height="3" rx="0.93" transform="translate(26 75) rotate(-180)"/><path class="cls-3" d="M6,34.24c.09-.18.38-.25.82-.24a8.88,8.88,0,0,1,1.72.3,23.59,23.59,0,0,1,2.36.77c.87.33,1.45,1.35,2.41,1.8s2.22.29,3,.74a22.35,22.35,0,0,1,2.07,1.31A7.11,7.11,0,0,1,19.69,40c.27.31.37.57.27.74s-.38.25-.82.24a8.88,8.88,0,0,1-1.72-.3,23.59,23.59,0,0,1-2.36-.77c-.87-.33-1.45-1.35-2.41-1.8s-2.22-.29-3-.74a22.35,22.35,0,0,1-2.07-1.31A7.11,7.11,0,0,1,6.31,35C6,34.67,5.94,34.41,6,34.24Z"/><path class="cls-4" d="M20,40.77l-1.05-.5h0a8.31,8.31,0,0,0-1-.8,22,22,0,0,0-2-1.26,3.67,3.67,0,0,0-1.17-.27,9.71,9.71,0,0,1-1.22-.24l-1.12-.54a7,7,0,0,1-.86-.72,3.44,3.44,0,0,0-.93-.72C9.81,35.41,9,35.16,8.36,35c-.35-.09-.63-.15-.87-.19l-1.36-.65A1,1,0,0,1,6.76,34h.1a8.88,8.88,0,0,1,1.72.3,23.59,23.59,0,0,1,2.36.77c.87.33,1.45,1.35,2.41,1.8s2.22.29,3,.74a22.35,22.35,0,0,1,2.07,1.31A7.49,7.49,0,0,1,19.69,40c.27.31.37.57.27.74Z"/><rect class="cls-3" x="52" y="36" width="2" height="3" rx="0.93"/><path class="cls-3" d="M60,34.24c-.09-.18-.38-.25-.82-.24a8.88,8.88,0,0,0-1.72.3,23.59,23.59,0,0,0-2.36.77c-.87.33-1.45,1.35-2.41,1.8s-2.22.29-3,.74a22.35,22.35,0,0,0-2.07,1.31A7.11,7.11,0,0,0,46.31,40c-.27.31-.37.57-.27.74s.38.25.82.24a8.88,8.88,0,0,0,1.72-.3,23.59,23.59,0,0,0,2.36-.77c.87-.33,1.45-1.35,2.41-1.8s2.22-.29,3-.74a22.35,22.35,0,0,0,2.07-1.31A7.11,7.11,0,0,0,59.69,35C60,34.67,60.06,34.41,60,34.24Z"/><path class="cls-4" d="M46,40.77l1.05-.5h0a8.31,8.31,0,0,1,1-.8,22,22,0,0,1,2-1.26,3.67,3.67,0,0,1,1.17-.27,9.71,9.71,0,0,0,1.22-.24l1.12-.54a7,7,0,0,0,.86-.72,3.44,3.44,0,0,1,.93-.72c.84-.31,1.61-.56,2.29-.74.35-.09.63-.15.87-.19l1.36-.65a1,1,0,0,0-.63-.14h-.1a8.88,8.88,0,0,0-1.72.3,23.59,23.59,0,0,0-2.36.77c-.87.33-1.45,1.35-2.41,1.8s-2.22.29-3,.74a22.35,22.35,0,0,0-2.07,1.31A7.49,7.49,0,0,0,46.31,40c-.27.31-.37.57-.27.74Z"/><rect class="cls-3" x="50" y="16" width="2" height="3" rx="0.93" transform="translate(102 35) rotate(-180)"/><path class="cls-3" d="M44,14.24c.09-.18.38-.25.82-.24a8.88,8.88,0,0,1,1.72.3,23.59,23.59,0,0,1,2.36.77c.87.33,1.45,1.35,2.41,1.8s2.22.29,3,.74a22.35,22.35,0,0,1,2.07,1.31A7.11,7.11,0,0,1,57.69,20c.27.31.37.57.27.74s-.38.25-.82.24a8.88,8.88,0,0,1-1.72-.3,23.59,23.59,0,0,1-2.36-.77c-.87-.33-1.45-1.35-2.41-1.8s-2.22-.29-3-.74a22.35,22.35,0,0,1-2.07-1.31A7.11,7.11,0,0,1,44.31,15C44,14.67,43.94,14.41,44,14.24Z"/><path class="cls-4" d="M58,20.77l-1.05-.5h0a8.31,8.31,0,0,0-1-.8,22,22,0,0,0-2-1.26,3.67,3.67,0,0,0-1.17-.27,9.71,9.71,0,0,1-1.22-.24l-1.12-.54a7,7,0,0,1-.86-.72,3.44,3.44,0,0,0-.93-.72c-.84-.31-1.61-.56-2.29-.74-.35-.09-.63-.15-.87-.19l-1.36-.65a1,1,0,0,1,.63-.14h.1a8.88,8.88,0,0,1,1.72.3,23.59,23.59,0,0,1,2.36.77c.87.33,1.45,1.35,2.41,1.8s2.22.29,3,.74a22.35,22.35,0,0,1,2.07,1.31A7.49,7.49,0,0,1,57.69,20c.27.31.37.57.27.74Z"/></g></g></svg>