<?xml version="1.0" encoding="iso-8859-1"?>
<!-- Generator: Adobe Illustrator 23.1.0, SVG Export Plug-In . SVG Version: 6.00 Build 0)  -->
<svg version="1.1" xmlns="http://www.w3.org/2000/svg" xmlns:xlink="http://www.w3.org/1999/xlink" x="0px" y="0px"
	 viewBox="0 0 64 64" style="enable-background:new 0 0 64 64;" xml:space="preserve">
<pattern  width="20" height="20" patternUnits="userSpaceOnUse" id="New_Pattern_Swatch_2" viewBox="22.121 -42.121 20 20" style="overflow:visible;">
	<g>
		<rect x="22.121" y="-42.121" style="fill:none;" width="20" height="20"/>
		
			<rect x="49.121" y="-26.263" transform="matrix(0.7071 -0.7071 0.7071 0.7071 23.837 33.3051)" style="fill:#844138;" width="6" height="28.284"/>
		
			<rect x="29.121" y="-26.263" transform="matrix(0.7071 -0.7071 0.7071 0.7071 17.9792 19.163)" style="fill:#844138;" width="6" height="28.284"/>
		
			<rect x="9.121" y="-26.263" transform="matrix(0.7071 -0.7071 0.7071 0.7071 12.1213 5.0208)" style="fill:#844138;" width="6" height="28.284"/>
		
			<rect x="49.121" y="-46.263" transform="matrix(0.7071 -0.7071 0.7071 0.7071 37.9792 27.4472)" style="fill:#844138;" width="6" height="28.284"/>
		
			<rect x="29.121" y="-46.263" transform="matrix(0.7071 -0.7071 0.7071 0.7071 32.1213 13.3051)" style="fill:#844138;" width="6" height="28.284"/>
		
			<rect x="9.121" y="-46.263" transform="matrix(0.7071 -0.7071 0.7071 0.7071 26.2635 -0.837)" style="fill:#844138;" width="6" height="28.284"/>
		
			<rect x="49.121" y="-66.263" transform="matrix(0.7071 -0.7071 0.7071 0.7071 52.1213 21.5894)" style="fill:#844138;" width="6" height="28.284"/>
		
			<rect x="29.121" y="-66.263" transform="matrix(0.7071 -0.7071 0.7071 0.7071 46.2635 7.4472)" style="fill:#844138;" width="6" height="28.284"/>
		
			<rect x="9.121" y="-66.263" transform="matrix(0.7071 -0.7071 0.7071 0.7071 40.4056 -6.6949)" style="fill:#844138;" width="6" height="28.284"/>
	</g>
</pattern>
<g id="Layer_1" style="display:none;">
</g>
<g id="info_r2021x" style="display:none;">
	<g id="pedestal_r2021x" style="display:inline;">
		<path style="opacity:0.5;fill:#FFFFFF;" d="M63.002,64h-62c-0.552,0-1-0.448-1-1V1c0-0.552,0.448-1,1-1h62c0.552,0,1,0.448,1,1v62
			C64.002,63.552,63.554,64,63.002,64z"/>
		<rect x="1.002" y="1" style="fill:#F4F5F6;" width="62" height="62"/>
		<rect x="1.002" y="1" style="fill:#D1D4D4;" width="2" height="62"/>
	</g>
	<g id="no-go_zone_1_" style="display:inline;opacity:0.3;">
		<path style="fill:url(#New_Pattern_Swatch_2);" d="M0,0v64h64V0H0z M57,57H7V7h50V57z"/>
	</g>
	<g style="display:inline;">
		<path style="fill:#EA4F37;" d="M57,7v50H7V7H57 M58,6h-1H7H6v1v50v1h1h50h1v-1V7V6L58,6z"/>
	</g>
</g>
<g id="Notes" style="display:none;">
</g>
<g id="vector_references" style="display:none;">
</g>
<g id="PNG_references" style="display:none;">
</g>
<g id="Work">
	<linearGradient id="SVGID_2_" gradientUnits="userSpaceOnUse" x1="27.9399" y1="11.8307" x2="41.3014" y2="34.9737">
		<stop  offset="0" style="stop-color:#FFFFFF"/>
		<stop  offset="0.6584" style="stop-color:#FDFDFD"/>
		<stop  offset="0.8953" style="stop-color:#F7F6F6"/>
		<stop  offset="1" style="stop-color:#F1F0F0"/>
	</linearGradient>
	<path style="fill:url(#SVGID_2_);" d="M56.53,34.956c-0.47-11.412-7.057-4.279-13.644-11.412
		c-4.319-4.677-12.232-11.887-19.289-11.887c-2.571,0-7.395,0.356-10.895,3.399c0.168-0.012,0.34-0.026,0.519-0.045
		c4.73-0.501,13.669-1.927,19.315,6.631c6.445,9.771,3.764,15.215,2.823,19.97c-0.857,4.332-0.932,9.846,1.195,11.512
		c1.035,0.243,2.192,0.375,3.509,0.375C49.002,53.5,56.804,41.624,56.53,34.956z"/>
	<linearGradient id="SVGID_3_" gradientUnits="userSpaceOnUse" x1="8.0369" y1="29.031" x2="36.5067" y2="35.3245">
		<stop  offset="0" style="stop-color:#F5F6F6"/>
		<stop  offset="0.0675" style="stop-color:#EAEBEB"/>
		<stop  offset="0.2196" style="stop-color:#D7D7D7"/>
		<stop  offset="0.3745" style="stop-color:#CCCCCC"/>
		<stop  offset="0.5347" style="stop-color:#C8C8C8"/>
		<stop  offset="0.7396" style="stop-color:#D0D0D0"/>
		<stop  offset="1" style="stop-color:#E1E1E1"/>
	</linearGradient>
	<path style="fill:url(#SVGID_3_);" d="M32.536,21.538c-5.646-8.468-14.585-7.057-19.315-6.561
		c-0.179,0.019-0.351,0.033-0.519,0.045c-2.264,1.948-3.976,5.005-4.16,9.81c-0.47,12.232,5.175,11.762,7.057,10.35
		s6.587-2.352,9.88,4.234c3.301,6.603,5.048,11.87,11.075,13.273c-2.128-1.648-2.053-7.104-1.195-11.391
		C36.299,36.593,38.981,31.206,32.536,21.538z"/>
	<path style="fill:#797979;" d="M50.202,48.095c-0.813-2.55-1.638-4.925-2.473-7.133c3.181-1.868,6.244-4.979,8.221-10.122
		c-0.097-0.301-0.204-0.575-0.322-0.824c-0.205-0.017-0.405,0.093-0.481,0.295c-1.868,4.981-4.743,7.998-7.736,9.814
		c-3.654-9.451-7.485-15.775-11.282-19.973l2.814-0.611c-0.286-0.258-0.579-0.515-0.876-0.772l-2.686,0.584
		c-2.782-2.877-5.538-4.642-8.186-5.689l1.735-0.622c0.078-0.028,0.138-0.078,0.189-0.137c-0.42-0.176-0.841-0.336-1.262-0.479
		l-2.071,0.743c-2.781-0.856-5.419-0.972-7.815-0.826c-1.088,0.292-2.199,0.704-3.259,1.286c2.731-0.371,5.959-0.691,9.462,0.118
		L22.38,14.39c-0.012,0.004-0.023,0.013-0.035,0.018c-3.223-0.546-6.302-0.213-8.502,0.027l-0.474,0.051
		c-0.421,0.31-0.825,0.655-1.211,1.035c0.341-0.012,0.712-0.036,1.112-0.078l0.676-0.073c2.089-0.228,4.786-0.52,7.597-0.152
		c-0.854,1.117-2.289,3.671-3.354,9.045c-3.69-0.164-7.15,0.972-9.671,2.134c0.002,0.361,0.01,0.71,0.023,1.045
		c2.423-1.158,5.855-2.366,9.471-2.245c-0.437,2.438-0.796,5.407-1.002,9.016c-0.005,0.082,0.018,0.157,0.051,0.226
		c0.28-0.091,0.578-0.163,0.891-0.211c0.208-3.613,0.572-6.56,1.01-8.965c0.114,0.011,0.228,0.02,0.342,0.034
		c3.232,0.404,6.101,1.366,8.567,3.697c-0.649,3.223-1.093,7.541-1,13.279c0.22,0.457,0.437,0.904,0.652,1.341
		c0.182-0.069,0.312-0.242,0.307-0.448c-0.147-5.742,0.248-10.084,0.851-13.337c2.394,2.666,4.375,6.813,5.902,13.274
		c-0.432,3.248-0.453,7.338,1.075,9.34c0.678,0.217,1.417,0.377,2.222,0.48c-0.099-0.119-0.251-0.232-0.491-0.312
		c-2.004-0.668-2.456-4.742-1.925-9.021c0.398,0.039,1.023,0.084,1.827,0.084c2.288,0,5.968-0.366,9.606-2.253
		c0.861,2.285,1.713,4.746,2.553,7.405C49.706,48.59,49.956,48.345,50.202,48.095z M25.747,14.183
		c2.731,0.892,5.601,2.535,8.513,5.413l-2.211,0.48c-2.355-2.971-5.175-4.523-7.985-5.29L25.747,14.183z M28.106,27.904
		c-2.517-2.194-5.425-3.132-8.685-3.54c-0.094-0.012-0.187-0.018-0.281-0.028c1.235-6.125,2.933-8.352,3.488-8.941
		c3.01,0.583,6.078,2.015,8.613,5.174C30.605,21.3,29.164,23.361,28.106,27.904z M35.347,39.249c-0.134,0.548-0.258,1.07-0.37,1.589
		c-1.599-5.88-3.631-9.698-6.059-12.173c0.963-4.416,2.29-6.529,2.908-7.32c0.106,0.149,0.214,0.296,0.318,0.453
		C37.611,30,36.409,34.914,35.347,39.249z M35.593,42.667c0.067-0.427,0.142-0.854,0.226-1.277c0.124-0.62,0.278-1.25,0.442-1.917
		c1.053-4.3,2.362-9.651-3.334-18.197c-0.085-0.128-0.174-0.247-0.261-0.371l2.369-0.515c3.871,4.114,7.799,10.473,11.55,20.207
		C41.877,43.104,37.083,42.832,35.593,42.667z"/>
	<path style="fill:none;stroke:#333332;stroke-width:1.0072;stroke-linecap:round;stroke-linejoin:round;stroke-miterlimit:1;" d="
		M23.597,11.5c-4.234,0-14.585,0.955-15.055,13.364s5.175,11.932,7.057,10.5c1.882-1.432,6.587-2.386,9.88,4.295
		C29.347,47.507,31.075,53.5,40.063,53.5c8.939,0,16.741-11.921,16.466-18.614c-0.47-11.455-7.057-4.295-13.644-11.455
		C38.567,18.738,30.654,11.5,23.597,11.5z"/>
	<g>
		<g>
			<g>
				<linearGradient id="SVGID_4_" gradientUnits="userSpaceOnUse" x1="23.2074" y1="16.0738" x2="21.9034" y2="15.016">
					<stop  offset="0" style="stop-color:#74C4E2"/>
					<stop  offset="1" style="stop-color:#A4DEF6"/>
				</linearGradient>
				<circle style="fill:url(#SVGID_4_);" cx="22.5" cy="15.5" r="1"/>
				<g>
					<path style="fill:#053755;" d="M22.5,15c0.276,0,0.5,0.224,0.5,0.5S22.776,16,22.5,16S22,15.776,22,15.5S22.224,15,22.5,15
						 M22.5,14c-0.828,0-1.5,0.672-1.5,1.5s0.672,1.5,1.5,1.5s1.5-0.672,1.5-1.5S23.328,14,22.5,14L22.5,14z"/>
				</g>
			</g>
			<g>
				<linearGradient id="SVGID_5_" gradientUnits="userSpaceOnUse" x1="33.2074" y1="21.0738" x2="31.9034" y2="20.016">
					<stop  offset="0" style="stop-color:#74C4E2"/>
					<stop  offset="1" style="stop-color:#A4DEF6"/>
				</linearGradient>
				<circle style="fill:url(#SVGID_5_);" cx="32.5" cy="20.5" r="1"/>
				<g>
					<path style="fill:#053755;" d="M32.5,20c0.276,0,0.5,0.224,0.5,0.5S32.776,21,32.5,21S32,20.776,32,20.5S32.224,20,32.5,20
						 M32.5,19c-0.828,0-1.5,0.672-1.5,1.5s0.672,1.5,1.5,1.5s1.5-0.672,1.5-1.5S33.328,19,32.5,19L32.5,19z"/>
				</g>
			</g>
			<g>
				<linearGradient id="SVGID_6_" gradientUnits="userSpaceOnUse" x1="39.2074" y1="20.0738" x2="37.9034" y2="19.016">
					<stop  offset="0" style="stop-color:#74C4E2"/>
					<stop  offset="1" style="stop-color:#A4DEF6"/>
				</linearGradient>
				<circle style="fill:url(#SVGID_6_);" cx="38.5" cy="19.5" r="1"/>
				<g>
					<path style="fill:#053755;" d="M38.5,19c0.276,0,0.5,0.224,0.5,0.5S38.776,20,38.5,20S38,19.776,38,19.5S38.224,19,38.5,19
						 M38.5,18c-0.828,0-1.5,0.672-1.5,1.5s0.672,1.5,1.5,1.5s1.5-0.672,1.5-1.5S39.328,18,38.5,18L38.5,18z"/>
				</g>
			</g>
			<g>
				<linearGradient id="SVGID_7_" gradientUnits="userSpaceOnUse" x1="29.2074" y1="13.0738" x2="27.9034" y2="12.016">
					<stop  offset="0" style="stop-color:#74C4E2"/>
					<stop  offset="1" style="stop-color:#A4DEF6"/>
				</linearGradient>
				<circle style="fill:url(#SVGID_7_);" cx="28.5" cy="12.5" r="1"/>
				<g>
					<path style="fill:#053755;" d="M28.5,12c0.276,0,0.5,0.224,0.5,0.5S28.776,13,28.5,13S28,12.776,28,12.5S28.224,12,28.5,12
						 M28.5,11c-0.828,0-1.5,0.672-1.5,1.5s0.672,1.5,1.5,1.5s1.5-0.672,1.5-1.5S29.328,11,28.5,11L28.5,11z"/>
				</g>
			</g>
			<g>
				<linearGradient id="SVGID_8_" gradientUnits="userSpaceOnUse" x1="19.2074" y1="25.0738" x2="17.9034" y2="24.016">
					<stop  offset="0" style="stop-color:#74C4E2"/>
					<stop  offset="1" style="stop-color:#A4DEF6"/>
				</linearGradient>
				<circle style="fill:url(#SVGID_8_);" cx="18.5" cy="24.5" r="1"/>
				<g>
					<path style="fill:#053755;" d="M18.5,24c0.276,0,0.5,0.224,0.5,0.5S18.776,25,18.5,25S18,24.776,18,24.5S18.224,24,18.5,24
						 M18.5,23c-0.828,0-1.5,0.672-1.5,1.5s0.672,1.5,1.5,1.5s1.5-0.672,1.5-1.5S19.328,23,18.5,23L18.5,23z"/>
				</g>
			</g>
			<g>
				<linearGradient id="SVGID_9_" gradientUnits="userSpaceOnUse" x1="9.2074" y1="27.0738" x2="7.9035" y2="26.016">
					<stop  offset="0" style="stop-color:#74C4E2"/>
					<stop  offset="1" style="stop-color:#A4DEF6"/>
				</linearGradient>
				<circle style="fill:url(#SVGID_9_);" cx="8.5" cy="26.5" r="1"/>
				<g>
					<path style="fill:#053755;" d="M8.5,26C8.776,26,9,26.224,9,26.5S8.776,27,8.5,27S8,26.776,8,26.5S8.224,26,8.5,26 M8.5,25
						C7.672,25,7,25.672,7,26.5S7.672,28,8.5,28s1.5-0.672,1.5-1.5S9.328,25,8.5,25L8.5,25z"/>
				</g>
			</g>
			<g>
				<linearGradient id="SVGID_10_" gradientUnits="userSpaceOnUse" x1="29.2074" y1="29.0738" x2="27.9034" y2="28.016">
					<stop  offset="0" style="stop-color:#74C4E2"/>
					<stop  offset="1" style="stop-color:#A4DEF6"/>
				</linearGradient>
				<circle style="fill:url(#SVGID_10_);" cx="28.5" cy="28.5" r="1"/>
				<g>
					<path style="fill:#003755;" d="M28.5,28c0.276,0,0.5,0.224,0.5,0.5S28.776,29,28.5,29S28,28.776,28,28.5S28.224,28,28.5,28
						 M28.5,27c-0.828,0-1.5,0.672-1.5,1.5s0.672,1.5,1.5,1.5s1.5-0.672,1.5-1.5S29.328,27,28.5,27L28.5,27z"/>
				</g>
			</g>
			<g>
				<linearGradient id="SVGID_11_" gradientUnits="userSpaceOnUse" x1="36.2074" y1="43.0738" x2="34.9034" y2="42.016">
					<stop  offset="0" style="stop-color:#74C4E2"/>
					<stop  offset="1" style="stop-color:#A4DEF6"/>
				</linearGradient>
				<circle style="fill:url(#SVGID_11_);" cx="35.5" cy="42.5" r="1"/>
				<g>
					<path style="fill:#053755;" d="M35.5,42c0.276,0,0.5,0.224,0.5,0.5S35.776,43,35.5,43S35,42.776,35,42.5S35.224,42,35.5,42
						 M35.5,41c-0.828,0-1.5,0.672-1.5,1.5s0.672,1.5,1.5,1.5s1.5-0.672,1.5-1.5S36.328,41,35.5,41L35.5,41z"/>
				</g>
			</g>
			<g>
				<linearGradient id="SVGID_12_" gradientUnits="userSpaceOnUse" x1="48.2074" y1="41.0738" x2="46.9034" y2="40.016">
					<stop  offset="0" style="stop-color:#74C4E2"/>
					<stop  offset="1" style="stop-color:#A4DEF6"/>
				</linearGradient>
				<circle style="fill:url(#SVGID_12_);" cx="47.5" cy="40.5" r="1"/>
				<g>
					<path style="fill:#053755;" d="M47.5,40c0.276,0,0.5,0.224,0.5,0.5S47.776,41,47.5,41S47,40.776,47,40.5S47.224,40,47.5,40
						 M47.5,39c-0.828,0-1.5,0.672-1.5,1.5s0.672,1.5,1.5,1.5s1.5-0.672,1.5-1.5S48.328,39,47.5,39L47.5,39z"/>
				</g>
			</g>
			<g>
				<linearGradient id="SVGID_13_" gradientUnits="userSpaceOnUse" x1="56.2074" y1="32.0738" x2="54.9034" y2="31.016">
					<stop  offset="0" style="stop-color:#74C4E2"/>
					<stop  offset="1" style="stop-color:#A4DEF6"/>
				</linearGradient>
				<circle style="fill:url(#SVGID_13_);" cx="55.5" cy="31.5" r="1"/>
				<g>
					<path style="fill:#053755;" d="M55.5,31c0.276,0,0.5,0.224,0.5,0.5S55.776,32,55.5,32S55,31.776,55,31.5S55.224,31,55.5,31
						 M55.5,30c-0.828,0-1.5,0.672-1.5,1.5s0.672,1.5,1.5,1.5s1.5-0.672,1.5-1.5S56.328,30,55.5,30L55.5,30z"/>
				</g>
			</g>
			<g>
				<linearGradient id="SVGID_14_" gradientUnits="userSpaceOnUse" x1="50.2074" y1="48.0738" x2="48.9034" y2="47.016">
					<stop  offset="0" style="stop-color:#74C4E2"/>
					<stop  offset="1" style="stop-color:#A4DEF6"/>
				</linearGradient>
				<circle style="fill:url(#SVGID_14_);" cx="49.5" cy="47.5" r="1"/>
				<g>
					<path style="fill:#053755;" d="M49.5,47c0.276,0,0.5,0.224,0.5,0.5S49.776,48,49.5,48S49,47.776,49,47.5S49.224,47,49.5,47
						 M49.5,46c-0.828,0-1.5,0.672-1.5,1.5s0.672,1.5,1.5,1.5s1.5-0.672,1.5-1.5S50.328,46,49.5,46L49.5,46z"/>
				</g>
			</g>
			<g>
				<linearGradient id="SVGID_15_" gradientUnits="userSpaceOnUse" x1="37.2074" y1="53.0738" x2="35.9034" y2="52.016">
					<stop  offset="0" style="stop-color:#74C4E2"/>
					<stop  offset="1" style="stop-color:#A4DEF6"/>
				</linearGradient>
				<circle style="fill:url(#SVGID_15_);" cx="36.5" cy="52.5" r="1"/>
				<g>
					<path style="fill:#053755;" d="M36.5,52c0.276,0,0.5,0.224,0.5,0.5S36.776,53,36.5,53S36,52.776,36,52.5S36.224,52,36.5,52
						 M36.5,51c-0.828,0-1.5,0.672-1.5,1.5s0.672,1.5,1.5,1.5s1.5-0.672,1.5-1.5S37.328,51,36.5,51L36.5,51z"/>
				</g>
			</g>
			<g>
				<linearGradient id="SVGID_16_" gradientUnits="userSpaceOnUse" x1="28.2074" y1="44.0738" x2="26.9034" y2="43.016">
					<stop  offset="0" style="stop-color:#74C4E2"/>
					<stop  offset="1" style="stop-color:#A4DEF6"/>
				</linearGradient>
				<circle style="fill:url(#SVGID_16_);" cx="27.5" cy="43.5" r="1"/>
				<g>
					<path style="fill:#053755;" d="M27.5,43c0.276,0,0.5,0.224,0.5,0.5S27.776,44,27.5,44S27,43.776,27,43.5S27.224,43,27.5,43
						 M27.5,42c-0.828,0-1.5,0.672-1.5,1.5s0.672,1.5,1.5,1.5s1.5-0.672,1.5-1.5S28.328,42,27.5,42L27.5,42z"/>
				</g>
			</g>
			<g>
				<linearGradient id="SVGID_17_" gradientUnits="userSpaceOnUse" x1="18.2074" y1="35.0738" x2="16.9034" y2="34.016">
					<stop  offset="0" style="stop-color:#74C4E2"/>
					<stop  offset="1" style="stop-color:#A4DEF6"/>
				</linearGradient>
				<circle style="fill:url(#SVGID_17_);" cx="17.5" cy="34.5" r="1"/>
				<g>
					<path style="fill:#053755;" d="M17.5,34c0.276,0,0.5,0.224,0.5,0.5S17.776,35,17.5,35S17,34.776,17,34.5S17.224,34,17.5,34
						 M17.5,33c-0.828,0-1.5,0.672-1.5,1.5s0.672,1.5,1.5,1.5s1.5-0.672,1.5-1.5S18.328,33,17.5,33L17.5,33z"/>
				</g>
			</g>
		</g>
		<g>
			<linearGradient id="SVGID_18_" gradientUnits="userSpaceOnUse" x1="22.7278" y1="15.8946" x2="22.3079" y2="15.1672">
				<stop  offset="0" style="stop-color:#74C4E2"/>
				<stop  offset="1" style="stop-color:#A4DEF6"/>
			</linearGradient>
			<circle style="fill:url(#SVGID_18_);" cx="22.5" cy="15.5" r="0.5"/>
			<linearGradient id="SVGID_19_" gradientUnits="userSpaceOnUse" x1="28.7278" y1="12.8946" x2="28.3079" y2="12.1672">
				<stop  offset="0" style="stop-color:#74C4E2"/>
				<stop  offset="1" style="stop-color:#A4DEF6"/>
			</linearGradient>
			<circle style="fill:url(#SVGID_19_);" cx="28.5" cy="12.5" r="0.5"/>
			<linearGradient id="SVGID_20_" gradientUnits="userSpaceOnUse" x1="18.7278" y1="24.8946" x2="18.3079" y2="24.1672">
				<stop  offset="0" style="stop-color:#74C4E2"/>
				<stop  offset="1" style="stop-color:#A4DEF6"/>
			</linearGradient>
			<circle style="fill:url(#SVGID_20_);" cx="18.5" cy="24.5" r="0.5"/>
			<linearGradient id="SVGID_21_" gradientUnits="userSpaceOnUse" x1="8.7278" y1="26.8946" x2="8.3079" y2="26.1672">
				<stop  offset="0" style="stop-color:#74C4E2"/>
				<stop  offset="1" style="stop-color:#A4DEF6"/>
			</linearGradient>
			<circle style="fill:url(#SVGID_21_);" cx="8.5" cy="26.5" r="0.5"/>
			<linearGradient id="SVGID_22_" gradientUnits="userSpaceOnUse" x1="17.7278" y1="34.8946" x2="17.3079" y2="34.1672">
				<stop  offset="0" style="stop-color:#74C4E2"/>
				<stop  offset="1" style="stop-color:#A4DEF6"/>
			</linearGradient>
			<circle style="fill:url(#SVGID_22_);" cx="17.5" cy="34.5" r="0.5"/>
			<linearGradient id="SVGID_23_" gradientUnits="userSpaceOnUse" x1="28.7278" y1="28.8946" x2="28.3079" y2="28.1672">
				<stop  offset="0" style="stop-color:#74C4E2"/>
				<stop  offset="1" style="stop-color:#A4DEF6"/>
			</linearGradient>
			<circle style="fill:url(#SVGID_23_);" cx="28.5" cy="28.5" r="0.5"/>
			<linearGradient id="SVGID_24_" gradientUnits="userSpaceOnUse" x1="32.7278" y1="20.8946" x2="32.3079" y2="20.1672">
				<stop  offset="0" style="stop-color:#74C4E2"/>
				<stop  offset="1" style="stop-color:#A4DEF6"/>
			</linearGradient>
			<circle style="fill:url(#SVGID_24_);" cx="32.5" cy="20.5" r="0.5"/>
			<linearGradient id="SVGID_25_" gradientUnits="userSpaceOnUse" x1="38.7278" y1="19.8946" x2="38.3079" y2="19.1672">
				<stop  offset="0" style="stop-color:#74C4E2"/>
				<stop  offset="1" style="stop-color:#A4DEF6"/>
			</linearGradient>
			<circle style="fill:url(#SVGID_25_);" cx="38.5" cy="19.5" r="0.5"/>
			<linearGradient id="SVGID_26_" gradientUnits="userSpaceOnUse" x1="55.7278" y1="31.8946" x2="55.3079" y2="31.1672">
				<stop  offset="0" style="stop-color:#74C4E2"/>
				<stop  offset="1" style="stop-color:#A4DEF6"/>
			</linearGradient>
			<circle style="fill:url(#SVGID_26_);" cx="55.5" cy="31.5" r="0.5"/>
			<linearGradient id="SVGID_27_" gradientUnits="userSpaceOnUse" x1="47.7278" y1="40.8946" x2="47.3079" y2="40.1672">
				<stop  offset="0" style="stop-color:#74C4E2"/>
				<stop  offset="1" style="stop-color:#A4DEF6"/>
			</linearGradient>
			<circle style="fill:url(#SVGID_27_);" cx="47.5" cy="40.5" r="0.5"/>
			<linearGradient id="SVGID_28_" gradientUnits="userSpaceOnUse" x1="35.7278" y1="42.8946" x2="35.3079" y2="42.1672">
				<stop  offset="0" style="stop-color:#74C4E2"/>
				<stop  offset="1" style="stop-color:#A4DEF6"/>
			</linearGradient>
			<circle style="fill:url(#SVGID_28_);" cx="35.5" cy="42.5" r="0.5"/>
			<linearGradient id="SVGID_29_" gradientUnits="userSpaceOnUse" x1="27.7278" y1="43.8946" x2="27.3079" y2="43.1672">
				<stop  offset="0" style="stop-color:#74C4E2"/>
				<stop  offset="1" style="stop-color:#A4DEF6"/>
			</linearGradient>
			<circle style="fill:url(#SVGID_29_);" cx="27.5" cy="43.5" r="0.5"/>
			<linearGradient id="SVGID_30_" gradientUnits="userSpaceOnUse" x1="36.7278" y1="52.8946" x2="36.3079" y2="52.1672">
				<stop  offset="0" style="stop-color:#74C4E2"/>
				<stop  offset="1" style="stop-color:#A4DEF6"/>
			</linearGradient>
			<circle style="fill:url(#SVGID_30_);" cx="36.5" cy="52.5" r="0.5"/>
			<linearGradient id="SVGID_31_" gradientUnits="userSpaceOnUse" x1="49.7278" y1="47.8946" x2="49.3079" y2="47.1672">
				<stop  offset="0" style="stop-color:#74C4E2"/>
				<stop  offset="1" style="stop-color:#A4DEF6"/>
			</linearGradient>
			<circle style="fill:url(#SVGID_31_);" cx="49.5" cy="47.5" r="0.5"/>
		</g>
	</g>
</g>
</svg>
