<svg xmlns="http://www.w3.org/2000/svg" xmlns:xlink="http://www.w3.org/1999/xlink" width="64" height="64" viewBox="0 0 64 64">
  <defs>
    <linearGradient id="a" x1="32" y1="33" x2="32" y2="13" gradientUnits="userSpaceOnUse">
      <stop offset="0" stop-color="#94d1ff"/>
      <stop offset="1" stop-color="#94d1ff" stop-opacity="0.5"/>
    </linearGradient>
  </defs>
  <g>
    <circle cx="32" cy="32" r="20" fill="#003c5a"/>
    <g>
      <path d="M51,32.888C51,41.72,43.387,51,32.113,51S13,41.849,13,33.016,20.726,19,32,19,51,24.055,51,32.888Z" fill="#003c5a"/>
      <path d="M50.818,32.846c0,8.673-7.551,17.76-18.693,17.76S13.212,41.644,13.212,32.97s7.661-13.788,18.8-13.788S50.818,24.172,50.818,32.846Z" fill="#003d5b"/>
      <path d="M50.636,32.8c0,8.515-7.49,17.408-18.5,17.408S13.424,41.439,13.424,32.924s7.6-13.56,18.606-13.56S50.636,24.289,50.636,32.8Z" fill="#003e5d"/>
      <path d="M50.455,32.762c0,8.356-7.43,17.056-18.307,17.056s-18.512-8.584-18.512-16.94,7.533-13.333,18.409-13.333S50.455,24.406,50.455,32.762Z" fill="#003e5e"/>
      <path d="M50.273,32.72c0,8.2-7.369,16.7-18.113,16.7S13.848,41.03,13.848,32.833s7.468-13.106,18.213-13.106S50.273,24.523,50.273,32.72Z" fill="#003f5f"/>
      <path d="M50.091,32.678c0,8.038-7.307,16.352-17.919,16.352s-18.111-8.2-18.111-16.243,7.4-12.878,18.015-12.878S50.091,24.639,50.091,32.678Z" fill="#004061"/>
      <path d="M49.909,32.636c0,7.879-7.246,16-17.726,16s-17.91-8.016-17.91-15.9,7.338-12.65,17.818-12.65S49.909,24.756,49.909,32.636Z" fill="#004162"/>
      <path d="M49.727,32.593c0,7.721-7.185,15.649-17.532,15.649S14.485,40.415,14.485,32.7s7.274-12.422,17.621-12.422S49.727,24.873,49.727,32.593Z" fill="#004263"/>
      <path d="M49.545,32.551c0,7.562-7.123,15.3-17.338,15.3S14.7,40.21,14.7,32.649s7.21-12.194,17.424-12.194S49.545,24.99,49.545,32.551Z" fill="#004265"/>
      <path d="M49.364,32.509c0,7.4-7.063,14.946-17.145,14.946s-17.31-7.45-17.31-14.852,7.145-11.967,17.227-11.967S49.364,25.107,49.364,32.509Z" fill="#004366"/>
      <path d="M49.182,32.467c0,7.244-7,14.594-16.952,14.594s-17.109-7.26-17.109-14.5S22.2,20.818,32.152,20.818,49.182,25.223,49.182,32.467Z" fill="#004467"/>
      <path d="M49,32.425c0,7.085-6.941,14.242-16.758,14.242S15.333,39.6,15.333,32.511,22.349,21,32.167,21,49,25.34,49,32.425Z" fill="#004569"/>
      <path d="M48.818,32.383c0,6.926-6.879,13.89-16.564,13.89S15.545,39.391,15.545,32.465,22.5,21.182,32.182,21.182,48.818,25.457,48.818,32.383Z" fill="#00456a"/>
      <path d="M48.636,32.341c0,6.767-6.818,13.538-16.37,13.538s-16.508-6.693-16.508-13.46S22.645,21.364,32.2,21.364,48.636,25.574,48.636,32.341Z" fill="#00466b"/>
      <path d="M48.455,32.3c0,6.608-6.758,13.186-16.178,13.186S15.97,38.981,15.97,32.373s6.822-10.828,16.242-10.828S48.455,25.691,48.455,32.3Z" fill="#00476d"/>
      <path d="M48.273,32.257c0,6.449-6.7,12.834-15.984,12.834S16.182,38.777,16.182,32.327s6.758-10.6,16.045-10.6S48.273,25.808,48.273,32.257Z" fill="#00486e"/>
      <path d="M48.091,32.215c0,6.291-6.635,12.482-15.79,12.482S16.394,38.572,16.394,32.281s6.693-10.372,15.848-10.372S48.091,25.924,48.091,32.215Z" fill="#00496f"/>
      <path d="M47.909,32.173c0,6.132-6.574,12.13-15.6,12.13S16.606,38.367,16.606,32.235s6.629-10.144,15.652-10.144S47.909,26.041,47.909,32.173Z" fill="#004971"/>
      <path d="M47.727,32.131c0,5.973-6.513,11.778-15.4,11.778s-15.506-5.747-15.506-11.72,6.565-9.916,15.455-9.916S47.727,26.158,47.727,32.131Z" fill="#004a72"/>
      <path d="M47.545,32.089c0,5.814-6.451,11.426-15.209,11.426S17.03,37.957,17.03,32.143s6.5-9.688,15.258-9.688S47.545,26.275,47.545,32.089Z" fill="#004b73"/>
      <path d="M47.364,32.047c0,5.655-6.391,11.074-15.016,11.074S17.242,37.752,17.242,32.1s6.436-9.461,15.061-9.461S47.364,26.392,47.364,32.047Z" fill="#004c75"/>
      <path d="M47.182,32.005c0,5.5-6.33,10.722-14.823,10.722s-14.9-5.179-14.9-10.676,6.37-9.233,14.863-9.233S47.182,26.508,47.182,32.005Z" fill="#004d76"/>
      <path d="M47,31.963c0,5.337-6.269,10.37-14.629,10.37s-14.7-4.99-14.7-10.328S23.973,23,32.333,23,47,26.625,47,31.963Z" fill="#004d77"/>
      <path d="M46.818,31.921c0,5.178-6.207,10.018-14.435,10.018s-14.5-4.8-14.5-9.98,6.241-8.777,14.469-8.777S46.818,26.742,46.818,31.921Z" fill="#004e79"/>
      <path d="M46.636,31.879c0,5.019-6.146,9.666-14.242,9.666s-14.3-4.612-14.3-9.631,6.177-8.55,14.273-8.55S46.636,26.859,46.636,31.879Z" fill="#004f7a"/>
      <path d="M46.455,31.836c0,4.861-6.086,9.316-14.049,9.316s-14.1-4.424-14.1-9.284,6.113-8.323,14.076-8.323S46.455,26.976,46.455,31.836Z" fill="#00507b"/>
      <path d="M46.273,31.794c0,4.7-6.024,8.964-13.855,8.964s-13.9-4.234-13.9-8.936,6.048-8.095,13.879-8.095S46.273,27.092,46.273,31.794Z" fill="#00507d"/>
      <path d="M46.091,31.752c0,4.543-5.963,8.612-13.661,8.612s-13.7-4.045-13.7-8.588,5.984-7.867,13.682-7.867S46.091,27.209,46.091,31.752Z" fill="#00517e"/>
      <path d="M45.909,31.71c0,4.384-5.9,8.26-13.468,8.26s-13.5-3.856-13.5-8.24,5.919-7.639,13.485-7.639S45.909,27.326,45.909,31.71Z" fill="#00527f"/>
      <path d="M45.727,31.668c0,4.226-5.841,7.908-13.274,7.908s-13.3-3.667-13.3-7.892,5.854-7.411,13.287-7.411S45.727,27.443,45.727,31.668Z" fill="#005381"/>
      <path d="M45.545,31.626c0,4.067-5.779,7.556-13.08,7.556s-13.1-3.478-13.1-7.544,5.79-7.183,13.091-7.183S45.545,27.56,45.545,31.626Z" fill="#005482"/>
      <path d="M45.364,31.584c0,3.908-5.719,7.2-12.887,7.2s-12.9-3.289-12.9-7.2S25.3,24.636,32.47,24.636,45.364,27.677,45.364,31.584Z" fill="#005483"/>
      <path d="M45.182,31.542c0,3.749-5.658,6.852-12.694,6.852s-12.7-3.1-12.7-6.848,5.661-6.728,12.7-6.728S45.182,27.793,45.182,31.542Z" fill="#005585"/>
      <ellipse cx="32.5" cy="31.5" rx="12.5" ry="6.5" fill="#005686"/>
    </g>
    <ellipse cx="32" cy="23" rx="14.5" ry="10" opacity="0.52" fill="url(#a)"/>
    <g>
      <path d="M24.146,24.513c-.8,0-4.7-4.44-4.7-4.74h0a.244.244,0,0,1,.273-.273c.3,0,4.743,3.917,4.743,4.717C24.466,24.417,24.346,24.5,24.146,24.513Z" fill="#28b7f6"/>
      <path d="M24.513,39.854c0,.8-4.44,4.7-4.74,4.7h0a.244.244,0,0,1-.273-.273c0-.3,3.917-4.743,4.717-4.743C24.417,39.534,24.5,39.654,24.513,39.854Z" fill="#28b7f6"/>
      <path d="M39.854,39.487c.8,0,4.7,4.44,4.7,4.74h0a.244.244,0,0,1-.273.273c-.3,0-4.743-3.917-4.743-4.717C39.534,39.583,39.654,39.5,39.854,39.487Z" fill="#28b7f6"/>
      <path d="M39.487,24.146c0-.8,4.44-4.7,4.74-4.7h0a.244.244,0,0,1,.273.273c0,.3-3.917,4.743-4.717,4.743C39.583,24.466,39.5,24.346,39.487,24.146Z" fill="#28b7f6"/>
      <path d="M32,41a9,9,0,1,1,9-9A9.01,9.01,0,0,1,32,41Zm0-17a8,8,0,1,0,8,8A8.009,8.009,0,0,0,32,24Z" fill="#28b7f6"/>
    </g>
    <path d="M14,33.359c0-.322.129-.6.45-.6s.475.223.5.556c.024.4.153.675.547.675.451,0,.538-.458.538-.909,0-1.224-.707-.786-1.017-1.036A.356.356,0,0,1,15,31.575c.3-.269.924.133.924-.953,0-.343-.117-.616-.46-.616-.3,0-.423.191-.478.489a.454.454,0,0,1-.479.449.4.4,0,0,1-.421-.449c0-.7.443-1.2,1.359-1.2a1.291,1.291,0,0,1,1.476,1.369,1.05,1.05,0,0,1-.606,1.095c.584.218.7.656.7,1.319,0,1.057-.466,1.633-1.535,1.633A1.318,1.318,0,0,1,14,33.359Zm3.735-3.529a.471.471,0,0,1,.528-.538h1.3c1.227,0,1.437,1.1,1.437,2.327V32.3c0,1.186-.3,2.307-1.486,2.307H18.263c-.379,0-.528-.163-.528-.527Zm.987,4h.459c.746,0,.783-.869.783-1.7V31.7c0-.789,0-1.623-.753-1.623h-.489Z" fill="#fff"/>
    <path d="M46.222,30.064a.57.57,0,1,1-.57-.57A.568.568,0,0,1,46.222,30.064Zm-.069,5.189c0,.412-.207.59-.5.59-.345,0-.492-.238-.492-.59v-3.41c0-.419.2-.59.492-.59s.5.178.5.59Zm1.691-5.366q.106-.3.333-.3a.44.44,0,0,1,.178.039c.15.06.225.144.225.256,0,.276-.7,1.892-.7,2.172,0,.065.03.1.089.1.148,0,.392-.3.491-.4a.039.039,0,0,1,.04-.03c.007,0,.016.006.03.02.123.115.1.1.1.1a.057.057,0,0,1-.02.039,1.546,1.546,0,0,1-1.307.7c-.155,0-.265-.054-.265-.206C47.038,32.189,47.806,29.989,47.844,29.887Zm1.238-1.209a.521.521,0,1,1-.521-.521A.518.518,0,0,1,49.082,28.678Z" fill="#fff"/>
    <path d="M27.072,44.163A2.456,2.456,0,0,1,27,43.786a.488.488,0,0,1,.51-.48c.3,0,.429.1.5.429l.776,3.928.653-3.836c.077-.442.242-.521.489-.521a.433.433,0,0,1,.49.449,2.207,2.207,0,0,1-.051.4l-.877,4.121c-.1.4-.245.53-.776.53-.427,0-.621-.114-.724-.561Zm4.346,3.194c0-.167.078-.327.245-.327.135,0,.255.107.255.317v.766h.755c.164,0,.337.1.337.254s-.177.244-.337.244h-.755v.756c0,.167-.087.327-.255.327s-.245-.16-.245-.327v-.756h-.755c-.168,0-.337-.083-.337-.244,0-.12.111-.254.337-.254h.755Zm2.378-3.51a.483.483,0,0,1,.551-.541h1.387c.858,0,1.225.527,1.225,1.388,0,.586-.108,1.011-.653,1.234a.806.806,0,0,1,.511.414,4.021,4.021,0,0,1,.111,1.321c0,.389.072.484.072.837,0,.154-.136.326-.49.326s-.6-.141-.612-.509l-.051-1.389a.515.515,0,0,0-.592-.56h-.439v1.938a.51.51,0,1,1-1.02,0Zm1.02,1.755H35.2c.549,0,.7-.314.7-.765,0-.524-.153-.776-.643-.776h-.439Z" fill="#fff"/>
    <path d="M31.139,16.837a.368.368,0,0,0,.367.245c.211,0,.231-.054.506-.237l2.523-2.09a1.612,1.612,0,0,1,.775-.375l.482.024c.127.008.228.042.228.171a.267.267,0,0,1-.073.18L32.657,17.5a8.339,8.339,0,0,0-1.216,1.216l-1.29,2.694a.471.471,0,0,1-.424.294h-.474c-.156,0-.253-.052-.253-.245a.475.475,0,0,1,.024-.163c.155-.3,1.307-2.847,1.372-2.988a.808.808,0,0,0,.057-.31,1.776,1.776,0,0,0-.188-.718l-1.094-2.67a.406.406,0,0,1-.024-.122.212.212,0,0,1,.212-.212h.36a.627.627,0,0,1,.522.383Zm1.845-1.772a.784.784,0,1,1-.784-.783A.778.778,0,0,1,32.984,15.065Zm1.249,3.919c0,.022.045.18.179.18a.439.439,0,0,0,.245-.082l1.363-1.135a.886.886,0,0,1,.483-.2h.317c.084.012.18.047.18.131a.246.246,0,0,1-.1.171l-1.642,1.388a4.689,4.689,0,0,0-.653.661l-.669,1.388a.473.473,0,0,1-.417.236H33.1c-.108-.008-.172-.062-.172-.171a.516.516,0,0,1,.05-.188l.677-1.485a.363.363,0,0,0,.033-.164,1.258,1.258,0,0,0-.1-.4l-.564-1.371a.287.287,0,0,1-.04-.139c0-.1.094-.138.2-.138h.236a.411.411,0,0,1,.392.22Zm1.118-1.037a.523.523,0,1,1-.522-.522A.526.526,0,0,1,35.351,17.947Z" fill="#fff"/>
    <path d="M30.01,27.715a.917.917,0,0,1,.49.142l5.99,3.286a.949.949,0,0,1,0,1.714L30.5,36.143a.944.944,0,0,1-.49.142,1.06,1.06,0,0,1-1.041-1.06V28.776A1.062,1.062,0,0,1,30.01,27.715Zm0,.816a.244.244,0,0,0-.224.245v6.449a.244.244,0,0,0,.224.245.162.162,0,0,0,.051-.011l.051-.03,5.98-3.286A.168.168,0,0,0,36.214,32c0-.061-.07-.111-.122-.143C32.124,29.682,30.114,28.531,30.01,28.531Z" fill="#fff"/>
  </g>
</svg>
