<svg xmlns="http://www.w3.org/2000/svg" xmlns:xlink="http://www.w3.org/1999/xlink" viewBox="0 0 64 64"><defs><linearGradient id="a" x1="20.67" y1="12.38" x2="43.32" y2="51.6" gradientUnits="userSpaceOnUse"><stop offset="0" stop-color="#fff"/><stop offset="1" stop-color="#d4d5d3"/></linearGradient><radialGradient id="b" cx="32" cy="24.12" r="23.59" gradientUnits="userSpaceOnUse"><stop offset="0.03" stop-color="#f2f5f7"/><stop offset="0.11" stop-color="#e0e3e5"/><stop offset="0.43" stop-color="#9b9c9d"/><stop offset="0.69" stop-color="#686969"/><stop offset="0.89" stop-color="#494949"/><stop offset="1" stop-color="#3d3d3d"/></radialGradient><linearGradient id="c" x1="42.15" y1="13.79" x2="36.24" y2="19.02" gradientUnits="userSpaceOnUse"><stop offset="0" stop-color="#fff"/><stop offset="0.08" stop-color="#fff" stop-opacity="0.88"/><stop offset="0.25" stop-color="#fff" stop-opacity="0.61"/><stop offset="0.42" stop-color="#fff" stop-opacity="0.39"/><stop offset="0.57" stop-color="#fff" stop-opacity="0.22"/><stop offset="0.71" stop-color="#fff" stop-opacity="0.1"/><stop offset="0.82" stop-color="#fff" stop-opacity="0.03"/><stop offset="0.9" stop-color="#fff" stop-opacity="0"/></linearGradient><radialGradient id="d" cx="32.75" cy="23.41" r="12.59" gradientTransform="matrix(0.61, 0.79, -0.57, 0.43, 26.12, -12.74)" gradientUnits="userSpaceOnUse"><stop offset="0.46" stop-color="#3d3d3d"/><stop offset="1" stop-color="#b4b6ba" stop-opacity="0"/></radialGradient><linearGradient id="e" x1="24.52" y1="17.23" x2="40.45" y2="22.05" gradientUnits="userSpaceOnUse"><stop offset="0" stop-color="#77797c"/><stop offset="0.01" stop-color="#787a7d" stop-opacity="0.99"/><stop offset="0.48" stop-color="#a8aaac" stop-opacity="0.46"/><stop offset="0.82" stop-color="#c6c8c9" stop-opacity="0.13"/><stop offset="1" stop-color="#d1d4d4" stop-opacity="0"/></linearGradient><radialGradient id="f" cx="26.31" cy="-24.26" r="6.1" gradientTransform="matrix(0.86, 0.51, -0.2, 0.34, 7.3, 6.07)" gradientUnits="userSpaceOnUse"><stop offset="0" stop-color="#fff"/><stop offset="1" stop-color="#fff" stop-opacity="0"/></radialGradient><linearGradient id="g" x1="10.31" y1="-63.51" x2="4.4" y2="-58.28" gradientTransform="matrix(0.5, 0.87, -0.87, 0.5, -7.3, 54.51)" xlink:href="#c"/><radialGradient id="h" cx="0.91" cy="-53.89" r="12.59" gradientTransform="translate(4.73 12.75) rotate(112.61) scale(1 0.71)" xlink:href="#d"/><linearGradient id="i" x1="-7.32" y1="-60.07" x2="8.61" y2="-55.25" gradientTransform="matrix(0.5, 0.87, -0.87, 0.5, -7.3, 54.51)" gradientUnits="userSpaceOnUse"><stop offset="0" stop-color="#77797c"/><stop offset="0.23" stop-color="#919396" stop-opacity="0.71"/><stop offset="0.58" stop-color="#b4b6b7" stop-opacity="0.33"/><stop offset="0.85" stop-color="#c9cccc" stop-opacity="0.09"/><stop offset="1" stop-color="#d1d4d4" stop-opacity="0"/></linearGradient><radialGradient id="j" cx="-37.7" cy="-80.02" r="4.43" gradientTransform="matrix(-0.01, 1, -0.72, -0.01, -7.99, 58.61)" xlink:href="#f"/><linearGradient id="k" x1="-72.56" y1="-74.59" x2="-78.47" y2="-69.35" gradientTransform="translate(-58.16 75.44) rotate(120)" xlink:href="#c"/><radialGradient id="l" cx="-81.96" cy="-64.96" r="12.59" gradientTransform="matrix(-0.99, 0.13, -0.09, -0.71, -48.15, 1.58)" gradientUnits="userSpaceOnUse"><stop offset="0.46" stop-color="#3d3d3d"/><stop offset="0.59" stop-color="#4b4c4c" stop-opacity="0.88"/><stop offset="0.77" stop-color="#737476" stop-opacity="0.55"/><stop offset="1" stop-color="#b3b5b9" stop-opacity="0.01"/><stop offset="1" stop-color="#b4b6ba" stop-opacity="0"/></radialGradient><linearGradient id="m" x1="-90.19" y1="-71.15" x2="-74.26" y2="-66.32" gradientTransform="translate(-58.16 75.44) rotate(120)" gradientUnits="userSpaceOnUse"><stop offset="0.07" stop-color="#77797c"/><stop offset="0.25" stop-color="#85878a" stop-opacity="0.84"/><stop offset="0.63" stop-color="#a9acad" stop-opacity="0.44"/><stop offset="1" stop-color="#d1d4d4" stop-opacity="0"/></linearGradient><radialGradient id="n" cx="-121.24" cy="-19.39" r="7.58" gradientTransform="matrix(-0.98, -0.18, 0.07, -0.39, -77.76, 17.44)" xlink:href="#f"/><linearGradient id="o" x1="-123.57" y1="-8.35" x2="-129.48" y2="-3.12" gradientTransform="translate(-101.72 41.86) rotate(180)" xlink:href="#c"/><radialGradient id="p" cx="-132.97" cy="1.27" r="12.59" gradientTransform="matrix(-0.61, -0.79, 0.57, -0.43, -50.21, -64.51)" gradientUnits="userSpaceOnUse"><stop offset="0.55" stop-color="#3d3d3d"/><stop offset="1" stop-color="#b4b6ba" stop-opacity="0"/></radialGradient><linearGradient id="q" x1="-141.2" y1="-4.91" x2="-125.27" y2="-0.09" gradientTransform="translate(-101.72 41.86) rotate(180)" gradientUnits="userSpaceOnUse"><stop offset="0.21" stop-color="#77797c"/><stop offset="0.37" stop-color="#7a7c7e" stop-opacity="0.97"/><stop offset="0.51" stop-color="#818486" stop-opacity="0.88"/><stop offset="0.64" stop-color="#8f9193" stop-opacity="0.74"/><stop offset="0.77" stop-color="#a1a4a5" stop-opacity="0.53"/><stop offset="0.9" stop-color="#b9bcbc" stop-opacity="0.27"/><stop offset="1" stop-color="#d1d4d4" stop-opacity="0"/></linearGradient><radialGradient id="r" cx="-28.23" cy="65.37" r="6.1" gradientTransform="matrix(0.5, 0.87, 0.34, -0.2, 15.75, 85.5)" xlink:href="#f"/><linearGradient id="s" x1="-91.72" y1="68.93" x2="-97.63" y2="74.17" gradientTransform="matrix(-0.5, -0.87, 0.87, -0.5, -94.41, -12.65)" xlink:href="#c"/><radialGradient id="t" cx="-101.12" cy="78.55" r="12.59" gradientTransform="translate(11.38 -79.22) rotate(-67.39) scale(1 0.71)" gradientUnits="userSpaceOnUse"><stop offset="0.49" stop-color="#3d3d3d"/><stop offset="1" stop-color="#b4b6ba" stop-opacity="0"/></radialGradient><linearGradient id="u" x1="-109.35" y1="72.37" x2="-93.42" y2="77.2" gradientTransform="matrix(-0.5, -0.87, 0.87, -0.5, -94.41, -12.65)" gradientUnits="userSpaceOnUse"><stop offset="0.06" stop-color="#77797c"/><stop offset="0.34" stop-color="#949799" stop-opacity="0.67"/><stop offset="0.79" stop-color="#c0c3c3" stop-opacity="0.19"/><stop offset="1" stop-color="#d1d4d4" stop-opacity="0"/></linearGradient><radialGradient id="v" cx="-40.68" cy="81.16" r="6.1" gradientTransform="matrix(0.33, -0.94, 0.37, 0.13, -2.8, -13.21)" xlink:href="#f"/><linearGradient id="w" x1="-8.87" y1="80" x2="-14.78" y2="85.24" gradientTransform="translate(-43.56 -33.58) rotate(-60)" xlink:href="#c"/><radialGradient id="x" cx="-18.27" cy="89.62" r="12.59" gradientTransform="matrix(0.99, -0.13, 0.09, 0.71, 34.83, -38.62)" xlink:href="#d"/><linearGradient id="y" x1="-26.5" y1="83.44" x2="-10.58" y2="88.27" gradientTransform="translate(-43.56 -33.58) rotate(-60)" gradientUnits="userSpaceOnUse"><stop offset="0" stop-color="#77797c"/><stop offset="0.08" stop-color="#818386" stop-opacity="0.89"/><stop offset="0.38" stop-color="#a3a6a7" stop-opacity="0.51"/><stop offset="0.64" stop-color="#bcbfc0" stop-opacity="0.23"/><stop offset="0.86" stop-color="#cbcecf" stop-opacity="0.06"/><stop offset="1" stop-color="#d1d4d4" stop-opacity="0"/></linearGradient><radialGradient id="z" cx="7.78" cy="57.25" r="6.1" gradientTransform="translate(-2.43 3.41) rotate(-29.44) scale(1 0.39)" xlink:href="#f"/><linearGradient id="aa" x1="30.26" y1="14.91" x2="41.8" y2="33.86" gradientUnits="userSpaceOnUse"><stop offset="0" stop-color="#fff" stop-opacity="0"/><stop offset="0.02" stop-color="#fff" stop-opacity="0.1"/><stop offset="0.05" stop-color="#fff" stop-opacity="0.34"/><stop offset="0.09" stop-color="#fff" stop-opacity="0.54"/><stop offset="0.13" stop-color="#fff" stop-opacity="0.71"/><stop offset="0.16" stop-color="#fff" stop-opacity="0.83"/><stop offset="0.19" stop-color="#fff" stop-opacity="0.93"/><stop offset="0.22" stop-color="#fff" stop-opacity="0.98"/><stop offset="0.25" stop-color="#fff"/><stop offset="0.32" stop-color="#fff" stop-opacity="0.87"/><stop offset="0.46" stop-color="#fff" stop-opacity="0.61"/><stop offset="0.6" stop-color="#fff" stop-opacity="0.39"/><stop offset="0.73" stop-color="#fff" stop-opacity="0.22"/><stop offset="0.84" stop-color="#fff" stop-opacity="0.1"/><stop offset="0.93" stop-color="#fff" stop-opacity="0.03"/><stop offset="1" stop-color="#fff" stop-opacity="0"/></linearGradient><linearGradient id="ab" x1="45" y1="14.77" x2="37.53" y2="39.88" gradientUnits="userSpaceOnUse"><stop offset="0" stop-color="#fff" stop-opacity="0"/><stop offset="0.2" stop-color="#fff" stop-opacity="0.5"/><stop offset="0.25" stop-color="#fff" stop-opacity="0.39"/><stop offset="0.34" stop-color="#fff" stop-opacity="0.22"/><stop offset="0.42" stop-color="#fff" stop-opacity="0.1"/><stop offset="0.48" stop-color="#fff" stop-opacity="0.03"/><stop offset="0.53" stop-color="#fff" stop-opacity="0"/><stop offset="0.55" stop-color="#fff" stop-opacity="0.1"/><stop offset="0.59" stop-color="#fff" stop-opacity="0.34"/><stop offset="0.63" stop-color="#fff" stop-opacity="0.54"/><stop offset="0.67" stop-color="#fff" stop-opacity="0.71"/><stop offset="0.71" stop-color="#fff" stop-opacity="0.83"/><stop offset="0.74" stop-color="#fff" stop-opacity="0.93"/><stop offset="0.78" stop-color="#fff" stop-opacity="0.98"/><stop offset="0.81" stop-color="#fff"/><stop offset="0.83" stop-color="#fff" stop-opacity="0.87"/><stop offset="0.86" stop-color="#fff" stop-opacity="0.61"/><stop offset="0.9" stop-color="#fff" stop-opacity="0.39"/><stop offset="0.93" stop-color="#fff" stop-opacity="0.22"/><stop offset="0.96" stop-color="#fff" stop-opacity="0.1"/><stop offset="0.98" stop-color="#fff" stop-opacity="0.03"/><stop offset="1" stop-color="#fff" stop-opacity="0"/></linearGradient><linearGradient id="ac" x1="26.34" y1="39.56" x2="45.13" y2="39.56" xlink:href="#aa"/><linearGradient id="ad" x1="24.23" y1="29.97" x2="27.31" y2="44.34" xlink:href="#aa"/><linearGradient id="ae" x1="27.95" y1="24.48" x2="17.22" y2="39.58" gradientUnits="userSpaceOnUse"><stop offset="0" stop-color="#fff" stop-opacity="0"/><stop offset="0.01" stop-color="#fff" stop-opacity="0.1"/><stop offset="0.05" stop-color="#fff" stop-opacity="0.34"/><stop offset="0.08" stop-color="#fff" stop-opacity="0.54"/><stop offset="0.11" stop-color="#fff" stop-opacity="0.71"/><stop offset="0.14" stop-color="#fff" stop-opacity="0.83"/><stop offset="0.17" stop-color="#fff" stop-opacity="0.93"/><stop offset="0.19" stop-color="#fff" stop-opacity="0.98"/><stop offset="0.22" stop-color="#fff"/><stop offset="0.29" stop-color="#fff" stop-opacity="0.87"/><stop offset="0.44" stop-color="#fff" stop-opacity="0.61"/><stop offset="0.58" stop-color="#fff" stop-opacity="0.39"/><stop offset="0.71" stop-color="#fff" stop-opacity="0.22"/><stop offset="0.83" stop-color="#fff" stop-opacity="0.1"/><stop offset="0.93" stop-color="#fff" stop-opacity="0.03"/><stop offset="1" stop-color="#fff" stop-opacity="0"/></linearGradient><linearGradient id="af" x1="10.91" y1="27.09" x2="37.66" y2="27.09" gradientUnits="userSpaceOnUse"><stop offset="0.04" stop-color="#fff" stop-opacity="0"/><stop offset="0.28" stop-color="#fff" stop-opacity="0.5"/><stop offset="0.34" stop-color="#fff" stop-opacity="0.61"/><stop offset="0.46" stop-color="#fff" stop-opacity="0.78"/><stop offset="0.56" stop-color="#fff" stop-opacity="0.9"/><stop offset="0.64" stop-color="#fff" stop-opacity="0.97"/><stop offset="0.7" stop-color="#fff"/><stop offset="0.75" stop-color="#fff" stop-opacity="0.99"/><stop offset="0.79" stop-color="#fff" stop-opacity="0.95"/><stop offset="0.83" stop-color="#fff" stop-opacity="0.88"/><stop offset="0.86" stop-color="#fff" stop-opacity="0.79"/><stop offset="0.89" stop-color="#fff" stop-opacity="0.67"/><stop offset="0.92" stop-color="#fff" stop-opacity="0.52"/><stop offset="0.95" stop-color="#fff" stop-opacity="0.35"/><stop offset="0.98" stop-color="#fff" stop-opacity="0.15"/><stop offset="1" stop-color="#fff" stop-opacity="0"/></linearGradient><linearGradient id="ag" x1="39.79" y1="35.24" x2="52.21" y2="56.76" gradientUnits="userSpaceOnUse"><stop offset="0" stop-color="#8cd7f5"/><stop offset="1" stop-color="#376e8c"/></linearGradient><linearGradient id="ah" x1="40.06" y1="35.71" x2="51.94" y2="56.29" gradientUnits="userSpaceOnUse"><stop offset="0" stop-color="#fff"/><stop offset="1"/></linearGradient><linearGradient id="ai" x1="43" y1="40.8" x2="49" y2="51.2" gradientUnits="userSpaceOnUse"><stop offset="0" stop-color="#376e8c"/><stop offset="1" stop-color="#8cd7f5"/></linearGradient></defs><path d="M54.65,25.21c0-6.9-5.42-10.94-12.38-11.3C39.75,9.62,35.78,7.5,32,7.5c-4.38,0-8.1,2.89-10.49,6.57-7.18,0-12.06,4.87-12.06,11a15.79,15.79,0,0,0,1.79,7.06,13.38,13.38,0,0,0-1.84,6.63c0,6.9,5.42,10.94,12.38,11.3,2.52,4.29,6.49,6.41,10.32,6.41,4.38,0,8.1-2.89,10.49-6.57,6.63,0,12.06-4.4,12.06-11a15.79,15.79,0,0,0-1.79-7.06A13.38,13.38,0,0,0,54.65,25.21Z" fill="url(#a)"/><g opacity="0.35"><path d="M54.65,25.21c0-6.9-5.42-10.94-12.38-11.3C39.75,9.62,35.78,7.5,32,7.5c-4.38,0-8.1,2.89-10.49,6.57-7.18,0-12.06,4.87-12.06,11a15.79,15.79,0,0,0,1.79,7.06,13.38,13.38,0,0,0-1.84,6.63c0,6.9,5.42,10.94,12.38,11.3,2.52,4.29,6.49,6.41,10.32,6.41,4.38,0,8.1-2.89,10.49-6.57,6.63,0,12.06-4.4,12.06-11a15.79,15.79,0,0,0-1.79-7.06A13.38,13.38,0,0,0,54.65,25.21Z" fill="url(#b)"/></g><path d="M44.32,19.31a17.75,17.75,0,0,0-2-5.4C39.75,9.62,35.78,7.5,32,7.5c-4.38,0-8.1,2.89-10.49,6.57a17.81,17.81,0,0,1,5.71.93c1.24-2,2.85-3.64,5.21-3.64,5.82,0,9.72,9.37,9.72,16.4a25.05,25.05,0,0,1-.27,3.48.82.82,0,0,0,.82.81c1.46,0,2.17-6,2.17-8.09a21.15,21.15,0,0,0-.49-4.62Z" opacity="0.3" fill="url(#c)"/><path d="M44.33,19.34v0a17.75,17.75,0,0,0-2-5.4C39.75,9.62,35.78,7.5,32,7.5c-4.38,0-8.1,2.89-10.49,6.57a16.82,16.82,0,0,1,5.71.93,20.9,20.9,0,0,1,10.6,7.47c4.16,5.59.11,11.89,2.33,11.89,3.22,0,4.72-8.33,4.72-10.4A21.15,21.15,0,0,0,44.33,19.34Z" fill="url(#d)"/><path d="M44.33,19.34v0a17.75,17.75,0,0,0-2-5.4C39.75,9.62,35.78,7.5,32,7.5c-4.38,0-8.1,2.89-10.49,6.57a16.82,16.82,0,0,1,5.71.93,20.9,20.9,0,0,1,10.6,7.47c4.16,5.59.11,11.89,2.33,11.89,3.22,0,4.72-8.33,4.72-10.4A21.15,21.15,0,0,0,44.33,19.34Z" fill="url(#e)"/><path d="M39.61,16.27c-.54,1.17-2.34-1.88-6.13-3.17-3-1-4.67-2-4.13-3.16s3-1.29,5.38-.09C38.57,11.78,40.16,15.09,39.61,16.27Z" opacity="0.5" fill="url(#f)"/><path d="M49.16,36.33a17.83,17.83,0,0,0,3.65-4.48c2.46-4.33,2.31-8.83.39-12.15-2.18-3.78-6.55-5.56-10.93-5.79a17.75,17.75,0,0,1,2,5.4c2.36.08,4.58.66,5.76,2.7,2.91,5-3.26,13.11-9.35,16.62a26.51,26.51,0,0,1-3.14,1.51.81.81,0,0,0-.3,1.11c.73,1.27,6.3-1.13,8.09-2.17a21,21,0,0,0,3.76-2.73Z" opacity="0.3" fill="url(#g)"/><path d="M49.14,36.35l0,0a17.83,17.83,0,0,0,3.65-4.48c2.46-4.33,2.31-8.83.39-12.15-2.18-3.78-6.55-5.56-10.93-5.79a16.87,16.87,0,0,1,2,5.4,20.86,20.86,0,0,1-1.17,12.92c-2.77,6.4-10.24,6-9.13,8,1.61,2.8,9.57-.07,11.36-1.11A21,21,0,0,0,49.14,36.35Z" fill="url(#h)"/><path d="M49.14,36.35l0,0a17.83,17.83,0,0,0,3.65-4.48c2.46-4.33,2.31-8.83.39-12.15-2.18-3.78-6.55-5.56-10.93-5.79a16.87,16.87,0,0,1,2,5.4,20.86,20.86,0,0,1-1.17,12.92c-2.77,6.4-10.24,6-9.13,8,1.61,2.8,9.57-.07,11.36-1.11A21,21,0,0,0,49.14,36.35Z" fill="url(#i)"/><path d="M49.38,26.8c-1.21.44-2.27-2.39-2.13-5.09s-.35-4.45.94-4.56,3.62,1.4,3.57,4.07C51.72,23.55,50.89,26.24,49.38,26.8Z" opacity="0.5" fill="url(#j)"/><path d="M36.84,49a17.74,17.74,0,0,0,5.7.93c5,0,8.8-2.42,10.72-5.74,2.18-3.78,1.54-8.45-.45-12.36a17.75,17.75,0,0,1-3.66,4.48c1.12,2.08,1.73,4.29.55,6.33-2.91,5-13,3.73-19.07.22a26.19,26.19,0,0,1-2.88-2,.82.82,0,0,0-1.11.29c-.73,1.27,4.13,4.9,5.92,5.93A21.27,21.27,0,0,0,36.81,49Z" opacity="0.3" fill="url(#k)"/><path d="M36.81,49h0a17.74,17.74,0,0,0,5.7.93c5,0,8.8-2.42,10.72-5.74,2.18-3.78,1.54-8.45-.45-12.36a16.85,16.85,0,0,1-3.66,4.48,20.85,20.85,0,0,1-11.77,5.44c-6.92.81-10.35-5.85-11.46-3.93-1.61,2.8,4.85,8.26,6.64,9.29A21.27,21.27,0,0,0,36.81,49Z" fill="url(#l)"/><path d="M36.81,49h0a17.74,17.74,0,0,0,5.7.93c5,0,8.8-2.42,10.72-5.74,2.18-3.78,1.54-8.45-.45-12.36a16.85,16.85,0,0,1-3.66,4.48,20.85,20.85,0,0,1-11.77,5.44c-6.92.81-10.35-5.85-11.46-3.93-1.61,2.8,4.85,8.26,6.64,9.29A21.27,21.27,0,0,0,36.81,49Z" fill="url(#m)"/><path d="M34.38,45c-.19-1.28,3.5.2,8,0,3.16-.16,7.64-2.44,7.38-1.18S44.64,47.43,42,47.73C37.71,48.23,34.57,46.32,34.38,45Z" opacity="0.5" fill="url(#n)"/><path d="M19.68,44.69a17.75,17.75,0,0,0,2.05,5.4c2.52,4.29,6.49,6.41,10.32,6.41,4.38,0,8.1-2.89,10.49-6.57A17.81,17.81,0,0,1,36.83,49c-1.24,2-2.85,3.64-5.21,3.64-5.82,0-9.72-9.37-9.72-16.4a25.05,25.05,0,0,1,.27-3.48.82.82,0,0,0-.82-.81c-1.46,0-2.17,6-2.17,8.09a21.15,21.15,0,0,0,.49,4.62Z" opacity="0.3" fill="url(#o)"/><path d="M19.67,44.66v0a17.75,17.75,0,0,0,2.05,5.4c2.52,4.29,6.49,6.41,10.32,6.41,4.38,0,8.1-2.89,10.49-6.57A16.82,16.82,0,0,1,36.83,49a20.9,20.9,0,0,1-10.6-7.47c-4.16-5.59-.11-11.89-2.33-11.89-3.22,0-4.72,8.33-4.72,10.4A21.15,21.15,0,0,0,19.67,44.66Z" fill="url(#p)"/><path d="M19.67,44.66v0a17.75,17.75,0,0,0,2.05,5.4c2.52,4.29,6.49,6.41,10.32,6.41,4.38,0,8.1-2.89,10.49-6.57A16.82,16.82,0,0,1,36.83,49a20.9,20.9,0,0,1-10.6-7.47c-4.16-5.59-.11-11.89-2.33-11.89-3.22,0-4.72,8.33-4.72,10.4A21.15,21.15,0,0,0,19.67,44.66Z" fill="url(#q)"/><path d="M28.82,53C30,52.51,27,50.68,25.7,46.89c-1-3-1.95-4.7-3.13-4.16s-1.31,3-.13,5.37C24.34,52,27.64,53.58,28.82,53Z" opacity="0.5" fill="url(#r)"/><path d="M14.84,27.67a17.83,17.83,0,0,0-3.65,4.48C8.73,36.48,8.88,41,10.8,44.3c2.18,3.78,6.55,5.56,10.93,5.79a17.75,17.75,0,0,1-2.05-5.4c-2.36-.08-4.58-.66-5.76-2.7C11,37,17.18,28.88,23.27,25.37a26.51,26.51,0,0,1,3.14-1.51.81.81,0,0,0,.3-1.11c-.73-1.27-6.3,1.13-8.09,2.17a21,21,0,0,0-3.76,2.73Z" opacity="0.3" fill="url(#s)"/><path d="M14.86,27.65l0,0a17.83,17.83,0,0,0-3.65,4.48C8.73,36.48,8.88,41,10.8,44.3c2.18,3.78,6.55,5.56,10.93,5.79a16.87,16.87,0,0,1-2.05-5.4,20.86,20.86,0,0,1,1.17-12.92c2.77-6.4,10.24-6,9.13-8-1.61-2.8-9.57.07-11.36,1.11A21,21,0,0,0,14.86,27.65Z" fill="url(#t)"/><path d="M14.86,27.65l0,0a17.83,17.83,0,0,0-3.65,4.48C8.73,36.48,8.88,41,10.8,44.3c2.18,3.78,6.55,5.56,10.93,5.79a16.87,16.87,0,0,1-2.05-5.4,20.86,20.86,0,0,1,1.17-12.92c2.77-6.4,10.24-6,9.13-8-1.61-2.8-9.57.07-11.36,1.11A21,21,0,0,0,14.86,27.65Z" fill="url(#u)"/><path d="M17.69,30.11c1.26.31-1.39,2.67-1.93,6.62-.43,3.14-1.06,5-2.31,4.67s-1.84-2.69-1.12-5.26C13.49,32,16.44,29.8,17.69,30.11Z" opacity="0.5" fill="url(#v)"/><path d="M27.16,15a17.74,17.74,0,0,0-5.7-.93c-5,0-8.8,2.42-10.72,5.74-2.18,3.78-1.54,8.45.45,12.36a17.75,17.75,0,0,1,3.66-4.48c-1.12-2.08-1.73-4.29-.55-6.33,2.91-5,13-3.73,19.07-.22a26.19,26.19,0,0,1,2.88,2,.82.82,0,0,0,1.11-.29c.73-1.27-4.13-4.9-5.92-5.93A21.27,21.27,0,0,0,27.19,15Z" opacity="0.3" fill="url(#w)"/><path d="M27.19,15h0a17.74,17.74,0,0,0-5.7-.93c-5,0-8.8,2.42-10.72,5.74-2.18,3.78-1.54,8.45.45,12.36a16.85,16.85,0,0,1,3.66-4.48,20.85,20.85,0,0,1,11.77-5.44c6.92-.81,10.35,5.85,11.46,3.93,1.61-2.8-4.85-8.26-6.64-9.29A21.27,21.27,0,0,0,27.19,15Z" fill="url(#x)"/><path d="M27.19,15h0a17.74,17.74,0,0,0-5.7-.93c-5,0-8.8,2.42-10.72,5.74-2.18,3.78-1.54,8.45.45,12.36a16.85,16.85,0,0,1,3.66-4.48,20.85,20.85,0,0,1,11.77-5.44c6.92-.81,10.35,5.85,11.46,3.93,1.61-2.8-4.85-8.26-6.64-9.29A21.27,21.27,0,0,0,27.19,15Z" fill="url(#y)"/><path d="M22.17,17.54c.75,1.05-2.8,1.09-5.81,3.72-2.38,2.09-4.06,3.06-4.8,2s.37-3.23,2.61-4.71C17.76,16.2,21.43,16.48,22.17,17.54Z" opacity="0.5" fill="url(#z)"/><g opacity="0.6"><path d="M26.79,14.93a20.66,20.66,0,0,1,6.12,2.27,13.86,13.86,0,0,1,4.93,4.43,13.84,13.84,0,0,1,2,6.32,16.31,16.31,0,0,1-.76,6.49,21.76,21.76,0,0,0,.2-3.22A17.78,17.78,0,0,0,39.07,28,15.59,15.59,0,0,0,37,22.17a15.5,15.5,0,0,0-4.49-4.34A30.81,30.81,0,0,0,26.79,14.93Z" fill="url(#aa)"/><path d="M42.7,13.66a22.25,22.25,0,0,1,2.5,7.59,20.36,20.36,0,0,1-.29,8,13.28,13.28,0,0,1-4.36,6.69,16.16,16.16,0,0,1-7.1,3.43A23.34,23.34,0,0,0,40,35.31,12.39,12.39,0,0,0,43.92,29a20.11,20.11,0,0,0,.19-7.58,22.81,22.81,0,0,0-2.28-7.25h0a.49.49,0,0,1,.19-.68A.5.5,0,0,1,42.7,13.66Z" fill="url(#ab)"/><path d="M45.13,39.33a16.56,16.56,0,0,1-4.62,2.32,12.5,12.5,0,0,1-2.59.51,13.93,13.93,0,0,1-2.66-.09,13.29,13.29,0,0,1-4.92-1.85,16.31,16.31,0,0,1-4-3.29,23.41,23.41,0,0,0,4.36,2.61,20.75,20.75,0,0,0,4.74,1.51,13.45,13.45,0,0,0,2.45.3,11.58,11.58,0,0,0,2.48-.24A19.59,19.59,0,0,0,45.13,39.33Z" fill="url(#ac)"/><path d="M29,44.82a10.7,10.7,0,0,1-3-3,13.64,13.64,0,0,1-1.64-3.94A14.69,14.69,0,0,1,24,33.67a11.36,11.36,0,0,1,.94-4.11c0,1.4-.09,2.76,0,4.12a22.38,22.38,0,0,0,.44,4,15.6,15.6,0,0,0,1.3,3.81A14.07,14.07,0,0,0,29,44.82Z" fill="url(#ad)"/><path d="M19.1,40.28a16,16,0,0,1,0-5.34,12.45,12.45,0,0,1,.8-2.63,7.14,7.14,0,0,1,.65-1.22A7.91,7.91,0,0,1,21.38,30a14.17,14.17,0,0,1,4.18-3.46,16.06,16.06,0,0,1,5-1.87A23.23,23.23,0,0,0,26,27.2a19.58,19.58,0,0,0-2,1.64,19.92,19.92,0,0,0-1.69,1.88,15.26,15.26,0,0,0-1.43,2.07,12.64,12.64,0,0,0-1,2.34A22.44,22.44,0,0,0,19.1,40.28Z" fill="url(#ae)"/><path d="M11,32a21.48,21.48,0,0,1,5.19-6,20.22,20.22,0,0,1,7-3.83,13.27,13.27,0,0,1,8,.37,13.44,13.44,0,0,1,6.5,4.51,35.47,35.47,0,0,0-6.82-3.55,12.2,12.2,0,0,0-7.41-.31,20.22,20.22,0,0,0-6.71,3.53,23.28,23.28,0,0,0-5.28,5.57h0a.29.29,0,0,1-.4.09A.3.3,0,0,1,11,32Z" fill="url(#af)"/></g><path d="M21.46,13.57a20.78,20.78,0,0,1,7.64,2.09.14.14,0,0,1,.07.18.15.15,0,0,1-.17.07,20.28,20.28,0,0,0-7.54-1.34.5.5,0,1,1,0-1Z" fill="#323232"/><path d="M42.7,13.66a20.83,20.83,0,0,1,2,7.66.14.14,0,0,1-.12.15.14.14,0,0,1-.14-.11,20.29,20.29,0,0,0-2.62-7.2.5.5,0,1,1,.87-.5Z" fill="#323232"/><path d="M53.24,32.09a20.72,20.72,0,0,1-5.63,5.57.14.14,0,0,1-.19,0,.13.13,0,0,1,0-.18,20.27,20.27,0,0,0,4.92-5.86.5.5,0,1,1,.87.5Z" fill="#323232"/><path d="M42.54,50.43a20.78,20.78,0,0,1-7.64-2.09.14.14,0,0,1-.07-.18.15.15,0,0,1,.17-.07,20.28,20.28,0,0,0,7.54,1.34.5.5,0,1,1,0,1Z" fill="#323232"/><path d="M21.3,50.34a20.83,20.83,0,0,1-2-7.66.14.14,0,0,1,.12-.15.14.14,0,0,1,.14.11,20.29,20.29,0,0,0,2.62,7.2.5.5,0,1,1-.87.5Z" fill="#323232"/><path d="M10.76,31.91a20.72,20.72,0,0,1,5.63-5.57.14.14,0,0,1,.19,0,.13.13,0,0,1,0,.18,20.27,20.27,0,0,0-4.92,5.86.5.5,0,1,1-.87-.5Z" fill="#323232"/><path d="M21.46,13.57a20.78,20.78,0,0,1,7.64,2.09.14.14,0,0,1,.07.18.15.15,0,0,1-.17.07,20.28,20.28,0,0,0-7.54-1.34.5.5,0,1,1,0-1Z" fill="#323232"/><path d="M42.7,13.66a20.83,20.83,0,0,1,2,7.66.14.14,0,0,1-.12.15.14.14,0,0,1-.14-.11,20.29,20.29,0,0,0-2.62-7.2.5.5,0,1,1,.87-.5Z" fill="#323232"/><path d="M53.24,32.09a20.72,20.72,0,0,1-5.63,5.57.14.14,0,0,1-.19,0,.13.13,0,0,1,0-.18,20.27,20.27,0,0,0,4.92-5.86.5.5,0,1,1,.87.5Z" fill="#323232"/><path d="M42.54,50.43a20.78,20.78,0,0,1-7.64-2.09.14.14,0,0,1-.07-.18.15.15,0,0,1,.17-.07,20.28,20.28,0,0,0,7.54,1.34.5.5,0,1,1,0,1Z" fill="#323232"/><path d="M21.3,50.34a20.83,20.83,0,0,1-2-7.66.14.14,0,0,1,.12-.15.14.14,0,0,1,.14.11,20.29,20.29,0,0,0,2.62,7.2.5.5,0,1,1-.87.5Z" fill="#323232"/><path d="M10.76,31.91a20.72,20.72,0,0,1,5.63-5.57.14.14,0,0,1,.19,0,.13.13,0,0,1,0,.18,20.27,20.27,0,0,0-4.92,5.86.5.5,0,1,1-.87-.5Z" fill="#323232"/><path d="M54.65,25.21c0-6.9-5.42-10.94-12.38-11.3C39.75,9.62,35.78,7.5,32,7.5c-4.38,0-8.1,2.89-10.49,6.57-7.18,0-12.06,4.87-12.06,11a15.79,15.79,0,0,0,1.79,7.06,13.38,13.38,0,0,0-1.84,6.63c0,6.9,5.42,10.94,12.38,11.3,2.52,4.29,6.49,6.41,10.32,6.41,4.38,0,8.1-2.89,10.49-6.57,6.63,0,12.06-4.4,12.06-11a15.79,15.79,0,0,0-1.79-7.06A13.38,13.38,0,0,0,54.65,25.21Z" fill="none" stroke="#323232" stroke-linejoin="round"/><path d="M54.55,50.62a2.45,2.45,0,0,0,.74,1.78l.86.87a12.3,12.3,0,0,1-2.88,2.88l-.87-.86a2.43,2.43,0,0,0-1.78-.74A2.55,2.55,0,0,0,48,57.1v1.22a11.65,11.65,0,0,1-4.08,0V57.1a2.54,2.54,0,0,0-2.58-2.55,2.43,2.43,0,0,0-1.78.74l-.87.86a12.3,12.3,0,0,1-2.88-2.88l.86-.87a2.45,2.45,0,0,0,.74-1.78A2.54,2.54,0,0,0,34.9,48H33.68a11.65,11.65,0,0,1,0-4.08H34.9a2.54,2.54,0,0,0,2.55-2.58,2.45,2.45,0,0,0-.74-1.78l-.86-.87a12.3,12.3,0,0,1,2.88-2.88l.87.86a2.43,2.43,0,0,0,1.78.74A2.54,2.54,0,0,0,44,34.9V33.68a11.65,11.65,0,0,1,4.08,0V34.9a2.53,2.53,0,0,0,2.58,2.55,2.49,2.49,0,0,0,1.78-.71l.87-.89a12.3,12.3,0,0,1,2.88,2.88l-.86.87a2.45,2.45,0,0,0-.74,1.78A2.55,2.55,0,0,0,57.1,44h1.22a11.65,11.65,0,0,1,0,4.08H57.1A2.54,2.54,0,0,0,54.55,50.62ZM46,50.5A4.5,4.5,0,1,0,41.5,46,4.52,4.52,0,0,0,46,50.5Z" fill="#fff" stroke="#fff" stroke-linejoin="round" stroke-width="3" opacity="0.5"/><path d="M54.55,50.62a2.45,2.45,0,0,0,.74,1.78l.86.87a12.3,12.3,0,0,1-2.88,2.88l-.87-.86a2.43,2.43,0,0,0-1.78-.74A2.55,2.55,0,0,0,48,57.1v1.22a11.65,11.65,0,0,1-4.08,0V57.1a2.54,2.54,0,0,0-2.58-2.55,2.43,2.43,0,0,0-1.78.74l-.87.86a12.3,12.3,0,0,1-2.88-2.88l.86-.87a2.45,2.45,0,0,0,.74-1.78A2.54,2.54,0,0,0,34.9,48H33.68a11.65,11.65,0,0,1,0-4.08H34.9a2.54,2.54,0,0,0,2.55-2.58,2.45,2.45,0,0,0-.74-1.78l-.86-.87a12.3,12.3,0,0,1,2.88-2.88l.87.86a2.43,2.43,0,0,0,1.78.74A2.54,2.54,0,0,0,44,34.9V33.68a11.65,11.65,0,0,1,4.08,0V34.9a2.53,2.53,0,0,0,2.58,2.55,2.49,2.49,0,0,0,1.78-.71l.87-.89a12.3,12.3,0,0,1,2.88,2.88l-.86.87a2.45,2.45,0,0,0-.74,1.78A2.55,2.55,0,0,0,57.1,44h1.22a11.65,11.65,0,0,1,0,4.08H57.1A2.54,2.54,0,0,0,54.55,50.62ZM46,50.5A4.5,4.5,0,1,0,41.5,46,4.52,4.52,0,0,0,46,50.5Z" stroke="#003755" stroke-linejoin="round" fill="url(#ag)"/><g opacity="0.3"><path d="M57.89,44.46H57.1a3,3,0,0,1-3.05-3.08,3,3,0,0,1,.88-2.14l.57-.56a11.79,11.79,0,0,0-2.18-2.17l-.56.58a3,3,0,0,1-2.14.86,3,3,0,0,1-3.08-3.05v-.79a13.22,13.22,0,0,0-3.08,0v.79A3,3,0,0,1,41.38,38a3,3,0,0,1-2.14-.88l-.56-.56a11.49,11.49,0,0,0-2.18,2.17l.57.56A3,3,0,0,1,38,41.38a3,3,0,0,1-3.05,3.08h-.79a10.84,10.84,0,0,0,0,3.08h.79A3,3,0,0,1,38,50.62a3,3,0,0,1-.88,2.14l-.57.56a11.84,11.84,0,0,0,2.18,2.18l.56-.57a3,3,0,0,1,2.14-.88,3,3,0,0,1,3.08,3.05v.79a13.22,13.22,0,0,0,3.08,0V57.1a3,3,0,0,1,3.08-3.05,3,3,0,0,1,2.14.88l.56.57a11.84,11.84,0,0,0,2.18-2.18l-.57-.56a3,3,0,0,1-.88-2.14,3,3,0,0,1,3.05-3.08h.79a10.83,10.83,0,0,0,0-3.08ZM57,46.54a4,4,0,0,0-3.93,4.08,3.93,3.93,0,0,0,1.09,2.76,9.08,9.08,0,0,1-.76.76,3.93,3.93,0,0,0-2.76-1.09A4,4,0,0,0,46.54,57H45.46a4,4,0,0,0-4.08-3.92,3.93,3.93,0,0,0-2.76,1.09,9.08,9.08,0,0,1-.76-.76A3.93,3.93,0,0,0,39,50.62,4,4,0,0,0,35,46.54c0-.19,0-.37,0-.54s0-.35,0-.54A4,4,0,0,0,39,41.38a3.93,3.93,0,0,0-1.09-2.76,9.08,9.08,0,0,1,.76-.76A3.93,3.93,0,0,0,41.38,39,4,4,0,0,0,45.46,35h1.08A4,4,0,0,0,50.62,39a4,4,0,0,0,2.77-1.08,8.85,8.85,0,0,1,.75.75,3.93,3.93,0,0,0-1.09,2.76A4,4,0,0,0,57,45.46c0,.19,0,.37,0,.54S57,46.35,57,46.54Z" fill="url(#ah)"/></g><path d="M46,40a6,6,0,1,0,6,6A6,6,0,0,0,46,40Zm0,11a5,5,0,1,1,5-5A5,5,0,0,1,46,51Z" fill="url(#ai)"/></svg>