<svg xmlns="http://www.w3.org/2000/svg" xmlns:xlink="http://www.w3.org/1999/xlink" viewBox="0 0 64 64"><defs><radialGradient id="a" cx="32" cy="32" r="23.59" gradientUnits="userSpaceOnUse"><stop offset="0" stop-color="#8cd7f5"/><stop offset="0.19" stop-color="#88d3f1"/><stop offset="0.38" stop-color="#7ec6e4"/><stop offset="0.59" stop-color="#6db0ce"/><stop offset="0.8" stop-color="#5593b1"/><stop offset="1" stop-color="#376e8c"/></radialGradient><radialGradient id="b" cx="32" cy="24.12" r="23.59" gradientUnits="userSpaceOnUse"><stop offset="0.03" stop-color="#f2f5f7"/><stop offset="0.28" stop-color="#a8bbc5"/><stop offset="0.53" stop-color="#618396"/><stop offset="0.75" stop-color="#2c5a73"/><stop offset="0.91" stop-color="#0c415d"/><stop offset="1" stop-color="#003755"/></radialGradient><linearGradient id="c" x1="42.15" y1="13.79" x2="36.24" y2="19.02" gradientUnits="userSpaceOnUse"><stop offset="0" stop-color="#fff"/><stop offset="0.08" stop-color="#fff" stop-opacity="0.88"/><stop offset="0.25" stop-color="#fff" stop-opacity="0.61"/><stop offset="0.42" stop-color="#fff" stop-opacity="0.39"/><stop offset="0.57" stop-color="#fff" stop-opacity="0.22"/><stop offset="0.71" stop-color="#fff" stop-opacity="0.1"/><stop offset="0.82" stop-color="#fff" stop-opacity="0.03"/><stop offset="0.9" stop-color="#fff" stop-opacity="0"/></linearGradient><radialGradient id="d" cx="32.75" cy="23.41" r="12.59" gradientTransform="matrix(0.61, 0.79, -0.57, 0.43, 26.12, -12.74)" gradientUnits="userSpaceOnUse"><stop offset="0.46" stop-color="#005686"/><stop offset="1" stop-color="#3287af" stop-opacity="0"/></radialGradient><linearGradient id="e" x1="24.52" y1="17.23" x2="40.45" y2="22.05" gradientUnits="userSpaceOnUse"><stop offset="0" stop-color="#285a78"/><stop offset="0.06" stop-color="#295e7c" stop-opacity="0.92"/><stop offset="0.36" stop-color="#2d6f92" stop-opacity="0.52"/><stop offset="0.63" stop-color="#307ca2" stop-opacity="0.24"/><stop offset="0.85" stop-color="#3184ac" stop-opacity="0.06"/><stop offset="1" stop-color="#3287af" stop-opacity="0"/></linearGradient><radialGradient id="f" cx="34.07" cy="10.99" r="6.1" gradientTransform="matrix(0.86, 0.51, -0.2, 0.34, 7.67, -9.81)" gradientUnits="userSpaceOnUse"><stop offset="0" stop-color="#78befa"/><stop offset="1" stop-color="#73c3e1" stop-opacity="0"/></radialGradient><linearGradient id="g" x1="52.31" y1="9.23" x2="46.4" y2="14.47" gradientTransform="matrix(0.5, 0.87, -0.87, 0.5, 34.7, -18.24)" xlink:href="#c"/><radialGradient id="h" cx="42.91" cy="18.85" r="12.59" gradientTransform="translate(68.73 -6.1) rotate(112.61) scale(1 0.71)" xlink:href="#d"/><linearGradient id="i" x1="34.68" y1="12.67" x2="50.61" y2="17.5" gradientTransform="matrix(0.5, 0.87, -0.87, 0.5, 34.7, -18.24)" xlink:href="#e"/><radialGradient id="j" cx="38.7" cy="3.63" r="4.43" gradientTransform="matrix(-0.01, 1, -0.72, -0.01, 53.11, -17.2)" xlink:href="#f"/><linearGradient id="k" x1="53.44" y1="-1.84" x2="47.53" y2="3.4" gradientTransform="translate(67.84 2.69) rotate(120)" xlink:href="#c"/><radialGradient id="l" cx="44.04" cy="7.78" r="12.59" gradientTransform="matrix(-0.99, 0.13, -0.09, -0.71, 83.47, 36.78)" gradientUnits="userSpaceOnUse"><stop offset="0.46" stop-color="#005686"/><stop offset="0.53" stop-color="#035988" stop-opacity="0.95"/><stop offset="0.64" stop-color="#0a608e" stop-opacity="0.79"/><stop offset="0.77" stop-color="#176c99" stop-opacity="0.55"/><stop offset="0.92" stop-color="#287da7" stop-opacity="0.2"/><stop offset="1" stop-color="#3287af" stop-opacity="0"/></radialGradient><linearGradient id="m" x1="35.81" y1="1.6" x2="51.74" y2="6.43" gradientTransform="translate(67.84 2.69) rotate(120)" gradientUnits="userSpaceOnUse"><stop offset="0.07" stop-color="#285a78"/><stop offset="0.26" stop-color="#2a6181" stop-opacity="0.84"/><stop offset="0.65" stop-color="#2e7498" stop-opacity="0.42"/><stop offset="1" stop-color="#3287af" stop-opacity="0"/></linearGradient><radialGradient id="n" cx="45.87" cy="-7.16" r="7.58" gradientTransform="matrix(-0.98, -0.18, 0.07, -0.39, 85.91, 51.47)" xlink:href="#f"/><linearGradient id="o" x1="44.43" y1="-8.35" x2="38.52" y2="-3.12" gradientTransform="translate(66.28 41.86) rotate(180)" xlink:href="#c"/><radialGradient id="p" cx="35.03" cy="1.27" r="12.59" gradientTransform="matrix(-0.61, -0.79, 0.57, -0.43, 51.8, 68.97)" gradientUnits="userSpaceOnUse"><stop offset="0.55" stop-color="#005686"/><stop offset="1" stop-color="#3287af" stop-opacity="0"/></radialGradient><linearGradient id="q" x1="26.8" y1="-4.91" x2="42.73" y2="-0.09" gradientTransform="translate(66.28 41.86) rotate(180)" gradientUnits="userSpaceOnUse"><stop offset="0.21" stop-color="#285a78"/><stop offset="0.37" stop-color="#285b7a" stop-opacity="0.97"/><stop offset="0.51" stop-color="#295f7f" stop-opacity="0.88"/><stop offset="0.65" stop-color="#2b6687" stop-opacity="0.73"/><stop offset="0.78" stop-color="#2d7093" stop-opacity="0.52"/><stop offset="0.91" stop-color="#307ca2" stop-opacity="0.24"/><stop offset="1" stop-color="#3287af" stop-opacity="0"/></linearGradient><radialGradient id="r" cx="21.14" cy="-11.16" r="6.1" gradientTransform="matrix(0.5, 0.87, 0.34, -0.2, 17.02, 27.7)" xlink:href="#f"/><linearGradient id="s" x1="34.28" y1="-3.81" x2="28.37" y2="1.42" gradientTransform="matrix(-0.5, -0.87, 0.87, -0.5, 31.59, 60.1)" xlink:href="#c"/><radialGradient id="t" cx="24.88" cy="5.81" r="12.59" gradientTransform="translate(10.79 57.02) rotate(-67.39) scale(1 0.71)" gradientUnits="userSpaceOnUse"><stop offset="0.49" stop-color="#005686"/><stop offset="1" stop-color="#3287af" stop-opacity="0"/></radialGradient><linearGradient id="u" x1="16.65" y1="-0.37" x2="32.58" y2="4.45" gradientTransform="matrix(-0.5, -0.87, 0.87, -0.5, 31.59, 60.1)" gradientUnits="userSpaceOnUse"><stop offset="0.06" stop-color="#285a78"/><stop offset="0.32" stop-color="#2b6889" stop-opacity="0.69"/><stop offset="0.78" stop-color="#307ea4" stop-opacity="0.2"/><stop offset="1" stop-color="#3287af" stop-opacity="0"/></linearGradient><radialGradient id="v" cx="23.32" cy="-0.43" r="6.1" gradientTransform="matrix(0.33, -0.94, 0.37, 0.13, 6.04, 57.83)" xlink:href="#f"/><linearGradient id="w" x1="33.13" y1="7.26" x2="27.22" y2="12.49" gradientTransform="translate(-1.56 39.17) rotate(-60)" xlink:href="#c"/><radialGradient id="x" cx="23.73" cy="16.88" r="12.59" gradientTransform="matrix(0.99, -0.13, 0.09, 0.71, -0.15, 18.18)" xlink:href="#d"/><linearGradient id="y" x1="15.5" y1="10.69" x2="31.42" y2="15.52" gradientTransform="translate(-1.56 39.17) rotate(-60)" xlink:href="#e"/><radialGradient id="z" cx="23.14" cy="8.84" r="6.1" gradientTransform="translate(-6.45 27.53) rotate(-29.44) scale(1 0.39)" xlink:href="#f"/><linearGradient id="aa" x1="30.26" y1="14.91" x2="41.8" y2="33.86" gradientUnits="userSpaceOnUse"><stop offset="0" stop-color="#fff" stop-opacity="0"/><stop offset="0.02" stop-color="#fff" stop-opacity="0.1"/><stop offset="0.05" stop-color="#fff" stop-opacity="0.34"/><stop offset="0.09" stop-color="#fff" stop-opacity="0.54"/><stop offset="0.13" stop-color="#fff" stop-opacity="0.71"/><stop offset="0.16" stop-color="#fff" stop-opacity="0.83"/><stop offset="0.19" stop-color="#fff" stop-opacity="0.93"/><stop offset="0.22" stop-color="#fff" stop-opacity="0.98"/><stop offset="0.25" stop-color="#fff"/><stop offset="0.32" stop-color="#fff" stop-opacity="0.87"/><stop offset="0.46" stop-color="#fff" stop-opacity="0.61"/><stop offset="0.6" stop-color="#fff" stop-opacity="0.39"/><stop offset="0.73" stop-color="#fff" stop-opacity="0.22"/><stop offset="0.84" stop-color="#fff" stop-opacity="0.1"/><stop offset="0.93" stop-color="#fff" stop-opacity="0.03"/><stop offset="1" stop-color="#fff" stop-opacity="0"/></linearGradient><linearGradient id="ab" x1="45" y1="14.77" x2="37.53" y2="39.88" gradientUnits="userSpaceOnUse"><stop offset="0" stop-color="#fff" stop-opacity="0"/><stop offset="0.2" stop-color="#fff" stop-opacity="0.5"/><stop offset="0.25" stop-color="#fff" stop-opacity="0.39"/><stop offset="0.34" stop-color="#fff" stop-opacity="0.22"/><stop offset="0.42" stop-color="#fff" stop-opacity="0.1"/><stop offset="0.48" stop-color="#fff" stop-opacity="0.03"/><stop offset="0.53" stop-color="#fff" stop-opacity="0"/><stop offset="0.55" stop-color="#fff" stop-opacity="0.1"/><stop offset="0.59" stop-color="#fff" stop-opacity="0.34"/><stop offset="0.63" stop-color="#fff" stop-opacity="0.54"/><stop offset="0.67" stop-color="#fff" stop-opacity="0.71"/><stop offset="0.71" stop-color="#fff" stop-opacity="0.83"/><stop offset="0.74" stop-color="#fff" stop-opacity="0.93"/><stop offset="0.78" stop-color="#fff" stop-opacity="0.98"/><stop offset="0.81" stop-color="#fff"/><stop offset="0.83" stop-color="#fff" stop-opacity="0.87"/><stop offset="0.86" stop-color="#fff" stop-opacity="0.61"/><stop offset="0.9" stop-color="#fff" stop-opacity="0.39"/><stop offset="0.93" stop-color="#fff" stop-opacity="0.22"/><stop offset="0.96" stop-color="#fff" stop-opacity="0.1"/><stop offset="0.98" stop-color="#fff" stop-opacity="0.03"/><stop offset="1" stop-color="#fff" stop-opacity="0"/></linearGradient><linearGradient id="ac" x1="26.34" y1="39.56" x2="45.13" y2="39.56" xlink:href="#aa"/><linearGradient id="ad" x1="24.23" y1="29.97" x2="27.31" y2="44.34" xlink:href="#aa"/><linearGradient id="ae" x1="27.95" y1="24.48" x2="17.22" y2="39.58" gradientUnits="userSpaceOnUse"><stop offset="0" stop-color="#fff" stop-opacity="0"/><stop offset="0.01" stop-color="#fff" stop-opacity="0.1"/><stop offset="0.05" stop-color="#fff" stop-opacity="0.34"/><stop offset="0.08" stop-color="#fff" stop-opacity="0.54"/><stop offset="0.11" stop-color="#fff" stop-opacity="0.71"/><stop offset="0.14" stop-color="#fff" stop-opacity="0.83"/><stop offset="0.17" stop-color="#fff" stop-opacity="0.93"/><stop offset="0.19" stop-color="#fff" stop-opacity="0.98"/><stop offset="0.22" stop-color="#fff"/><stop offset="0.29" stop-color="#fff" stop-opacity="0.87"/><stop offset="0.44" stop-color="#fff" stop-opacity="0.61"/><stop offset="0.58" stop-color="#fff" stop-opacity="0.39"/><stop offset="0.71" stop-color="#fff" stop-opacity="0.22"/><stop offset="0.83" stop-color="#fff" stop-opacity="0.1"/><stop offset="0.93" stop-color="#fff" stop-opacity="0.03"/><stop offset="1" stop-color="#fff" stop-opacity="0"/></linearGradient><linearGradient id="af" x1="10.91" y1="27.09" x2="37.66" y2="27.09" gradientUnits="userSpaceOnUse"><stop offset="0.04" stop-color="#fff" stop-opacity="0"/><stop offset="0.28" stop-color="#fff" stop-opacity="0.5"/><stop offset="0.34" stop-color="#fff" stop-opacity="0.61"/><stop offset="0.46" stop-color="#fff" stop-opacity="0.78"/><stop offset="0.56" stop-color="#fff" stop-opacity="0.9"/><stop offset="0.64" stop-color="#fff" stop-opacity="0.97"/><stop offset="0.7" stop-color="#fff"/><stop offset="0.75" stop-color="#fff" stop-opacity="0.99"/><stop offset="0.79" stop-color="#fff" stop-opacity="0.95"/><stop offset="0.83" stop-color="#fff" stop-opacity="0.88"/><stop offset="0.86" stop-color="#fff" stop-opacity="0.79"/><stop offset="0.89" stop-color="#fff" stop-opacity="0.67"/><stop offset="0.92" stop-color="#fff" stop-opacity="0.52"/><stop offset="0.95" stop-color="#fff" stop-opacity="0.35"/><stop offset="0.98" stop-color="#fff" stop-opacity="0.15"/><stop offset="1" stop-color="#fff" stop-opacity="0"/></linearGradient></defs><path d="M54.65,25.21c0-6.9-5.42-10.94-12.38-11.3C39.75,9.62,35.78,7.5,32,7.5c-4.38,0-8.1,2.89-10.49,6.57-7.18,0-12.06,4.87-12.06,11a15.79,15.79,0,0,0,1.79,7.06,13.38,13.38,0,0,0-1.84,6.63c0,6.9,5.42,10.94,12.38,11.3,2.52,4.29,6.49,6.41,10.32,6.41,4.38,0,8.1-2.89,10.49-6.57,6.63,0,12.06-4.4,12.06-11a15.79,15.79,0,0,0-1.79-7.06A13.38,13.38,0,0,0,54.65,25.21Z" fill="url(#a)"/><g opacity="0.2"><path d="M54.65,25.21c0-6.9-5.42-10.94-12.38-11.3C39.75,9.62,35.78,7.5,32,7.5c-4.38,0-8.1,2.89-10.49,6.57-7.18,0-12.06,4.87-12.06,11a15.79,15.79,0,0,0,1.79,7.06,13.38,13.38,0,0,0-1.84,6.63c0,6.9,5.42,10.94,12.38,11.3,2.52,4.29,6.49,6.41,10.32,6.41,4.38,0,8.1-2.89,10.49-6.57,6.63,0,12.06-4.4,12.06-11a15.79,15.79,0,0,0-1.79-7.06A13.38,13.38,0,0,0,54.65,25.21Z" fill="url(#b)"/></g><path d="M44.32,19.31a17.75,17.75,0,0,0-2-5.4C39.75,9.62,35.78,7.5,32,7.5c-4.38,0-8.1,2.89-10.49,6.57a17.81,17.81,0,0,1,5.71.93c1.24-2,2.85-3.64,5.21-3.64,5.82,0,9.72,9.37,9.72,16.4a25.05,25.05,0,0,1-.27,3.48.82.82,0,0,0,.82.81c1.46,0,2.17-6,2.17-8.09a21.15,21.15,0,0,0-.49-4.62Z" opacity="0.3" fill="url(#c)"/><path d="M44.33,19.34v0a17.75,17.75,0,0,0-2-5.4C39.75,9.62,35.78,7.5,32,7.5c-4.38,0-8.1,2.89-10.49,6.57a16.82,16.82,0,0,1,5.71.93,20.9,20.9,0,0,1,10.6,7.47c4.16,5.59.11,11.89,2.33,11.89,3.22,0,4.72-8.33,4.72-10.4A21.15,21.15,0,0,0,44.33,19.34Z" fill="url(#d)"/><path d="M44.33,19.34v0a17.75,17.75,0,0,0-2-5.4C39.75,9.62,35.78,7.5,32,7.5c-4.38,0-8.1,2.89-10.49,6.57a16.82,16.82,0,0,1,5.71.93,20.9,20.9,0,0,1,10.6,7.47c4.16,5.59.11,11.89,2.33,11.89,3.22,0,4.72-8.33,4.72-10.4A21.15,21.15,0,0,0,44.33,19.34Z" fill="url(#e)"/><path d="M39.61,16.27c-.54,1.17-2.34-1.88-6.13-3.17-3-1-4.67-2-4.13-3.16s3-1.29,5.38-.09C38.57,11.78,40.16,15.09,39.61,16.27Z" opacity="0.5" fill="url(#f)"/><path d="M49.16,36.33a17.83,17.83,0,0,0,3.65-4.48c2.46-4.33,2.31-8.83.39-12.15-2.18-3.78-6.55-5.56-10.93-5.79a17.75,17.75,0,0,1,2,5.4c2.36.08,4.58.66,5.76,2.7,2.91,5-3.26,13.11-9.35,16.62a26.51,26.51,0,0,1-3.14,1.51.81.81,0,0,0-.3,1.11c.73,1.27,6.3-1.13,8.09-2.17a21,21,0,0,0,3.76-2.73Z" opacity="0.3" fill="url(#g)"/><path d="M49.14,36.35l0,0a17.83,17.83,0,0,0,3.65-4.48c2.46-4.33,2.31-8.83.39-12.15-2.18-3.78-6.55-5.56-10.93-5.79a16.87,16.87,0,0,1,2,5.4,20.86,20.86,0,0,1-1.17,12.92c-2.77,6.4-10.24,6-9.13,8,1.61,2.8,9.57-.07,11.36-1.11A21,21,0,0,0,49.14,36.35Z" fill="url(#h)"/><path d="M49.14,36.35l0,0a17.83,17.83,0,0,0,3.65-4.48c2.46-4.33,2.31-8.83.39-12.15-2.18-3.78-6.55-5.56-10.93-5.79a16.87,16.87,0,0,1,2,5.4,20.86,20.86,0,0,1-1.17,12.92c-2.77,6.4-10.24,6-9.13,8,1.61,2.8,9.57-.07,11.36-1.11A21,21,0,0,0,49.14,36.35Z" fill="url(#i)"/><path d="M49.38,26.8c-1.21.44-2.27-2.39-2.13-5.09s-.35-4.45.94-4.56,3.62,1.4,3.57,4.07C51.72,23.55,50.89,26.24,49.38,26.8Z" opacity="0.5" fill="url(#j)"/><path d="M36.84,49a17.74,17.74,0,0,0,5.7.93c5,0,8.8-2.42,10.72-5.74,2.18-3.78,1.54-8.45-.45-12.36a17.75,17.75,0,0,1-3.66,4.48c1.12,2.08,1.73,4.29.55,6.33-2.91,5-13,3.73-19.07.22a26.19,26.19,0,0,1-2.88-2,.82.82,0,0,0-1.11.29c-.73,1.27,4.13,4.9,5.92,5.93A21.27,21.27,0,0,0,36.81,49Z" opacity="0.3" fill="url(#k)"/><path d="M36.81,49h0a17.74,17.74,0,0,0,5.7.93c5,0,8.8-2.42,10.72-5.74,2.18-3.78,1.54-8.45-.45-12.36a16.85,16.85,0,0,1-3.66,4.48,20.85,20.85,0,0,1-11.77,5.44c-6.92.81-10.35-5.85-11.46-3.93-1.61,2.8,4.85,8.26,6.64,9.29A21.27,21.27,0,0,0,36.81,49Z" fill="url(#l)"/><path d="M36.81,49h0a17.74,17.74,0,0,0,5.7.93c5,0,8.8-2.42,10.72-5.74,2.18-3.78,1.54-8.45-.45-12.36a16.85,16.85,0,0,1-3.66,4.48,20.85,20.85,0,0,1-11.77,5.44c-6.92.81-10.35-5.85-11.46-3.93-1.61,2.8,4.85,8.26,6.64,9.29A21.27,21.27,0,0,0,36.81,49Z" fill="url(#m)"/><path d="M34.38,45c-.19-1.28,3.5.2,8,0,3.16-.16,7.64-2.44,7.38-1.18S44.64,47.43,42,47.73C37.71,48.23,34.57,46.32,34.38,45Z" opacity="0.5" fill="url(#n)"/><path d="M19.68,44.69a17.75,17.75,0,0,0,2.05,5.4c2.52,4.29,6.49,6.41,10.32,6.41,4.38,0,8.1-2.89,10.49-6.57A17.81,17.81,0,0,1,36.83,49c-1.24,2-2.85,3.64-5.21,3.64-5.82,0-9.72-9.37-9.72-16.4a25.05,25.05,0,0,1,.27-3.48.82.82,0,0,0-.82-.81c-1.46,0-2.17,6-2.17,8.09a21.15,21.15,0,0,0,.49,4.62Z" opacity="0.3" fill="url(#o)"/><path d="M19.67,44.66v0a17.75,17.75,0,0,0,2.05,5.4c2.52,4.29,6.49,6.41,10.32,6.41,4.38,0,8.1-2.89,10.49-6.57A16.82,16.82,0,0,1,36.83,49a20.9,20.9,0,0,1-10.6-7.47c-4.16-5.59-.11-11.89-2.33-11.89-3.22,0-4.72,8.33-4.72,10.4A21.15,21.15,0,0,0,19.67,44.66Z" fill="url(#p)"/><path d="M19.67,44.66v0a17.75,17.75,0,0,0,2.05,5.4c2.52,4.29,6.49,6.41,10.32,6.41,4.38,0,8.1-2.89,10.49-6.57A16.82,16.82,0,0,1,36.83,49a20.9,20.9,0,0,1-10.6-7.47c-4.16-5.59-.11-11.89-2.33-11.89-3.22,0-4.72,8.33-4.72,10.4A21.15,21.15,0,0,0,19.67,44.66Z" fill="url(#q)"/><path d="M28.82,53C30,52.51,27,50.68,25.7,46.89c-1-3-1.95-4.7-3.13-4.16s-1.31,3-.13,5.37C24.34,52,27.64,53.58,28.82,53Z" opacity="0.5" fill="url(#r)"/><path d="M14.84,27.67a17.83,17.83,0,0,0-3.65,4.48C8.73,36.48,8.88,41,10.8,44.3c2.18,3.78,6.55,5.56,10.93,5.79a17.75,17.75,0,0,1-2.05-5.4c-2.36-.08-4.58-.66-5.76-2.7C11,37,17.18,28.88,23.27,25.37a26.51,26.51,0,0,1,3.14-1.51.81.81,0,0,0,.3-1.11c-.73-1.27-6.3,1.13-8.09,2.17a21,21,0,0,0-3.76,2.73Z" opacity="0.3" fill="url(#s)"/><path d="M14.86,27.65l0,0a17.83,17.83,0,0,0-3.65,4.48C8.73,36.48,8.88,41,10.8,44.3c2.18,3.78,6.55,5.56,10.93,5.79a16.87,16.87,0,0,1-2.05-5.4,20.86,20.86,0,0,1,1.17-12.92c2.77-6.4,10.24-6,9.13-8-1.61-2.8-9.57.07-11.36,1.11A21,21,0,0,0,14.86,27.65Z" fill="url(#t)"/><path d="M14.86,27.65l0,0a17.83,17.83,0,0,0-3.65,4.48C8.73,36.48,8.88,41,10.8,44.3c2.18,3.78,6.55,5.56,10.93,5.79a16.87,16.87,0,0,1-2.05-5.4,20.86,20.86,0,0,1,1.17-12.92c2.77-6.4,10.24-6,9.13-8-1.61-2.8-9.57.07-11.36,1.11A21,21,0,0,0,14.86,27.65Z" fill="url(#u)"/><path d="M17.69,30.11c1.26.31-1.39,2.67-1.93,6.62-.43,3.14-1.06,5-2.31,4.67s-1.84-2.69-1.12-5.26C13.49,32,16.44,29.8,17.69,30.11Z" opacity="0.5" fill="url(#v)"/><path d="M27.16,15a17.74,17.74,0,0,0-5.7-.93c-5,0-8.8,2.42-10.72,5.74-2.18,3.78-1.54,8.45.45,12.36a17.75,17.75,0,0,1,3.66-4.48c-1.12-2.08-1.73-4.29-.55-6.33,2.91-5,13-3.73,19.07-.22a26.19,26.19,0,0,1,2.88,2,.82.82,0,0,0,1.11-.29c.73-1.27-4.13-4.9-5.92-5.93A21.27,21.27,0,0,0,27.19,15Z" opacity="0.3" fill="url(#w)"/><path d="M27.19,15h0a17.74,17.74,0,0,0-5.7-.93c-5,0-8.8,2.42-10.72,5.74-2.18,3.78-1.54,8.45.45,12.36a16.85,16.85,0,0,1,3.66-4.48,20.85,20.85,0,0,1,11.77-5.44c6.92-.81,10.35,5.85,11.46,3.93,1.61-2.8-4.85-8.26-6.64-9.29A21.27,21.27,0,0,0,27.19,15Z" fill="url(#x)"/><path d="M27.19,15h0a17.74,17.74,0,0,0-5.7-.93c-5,0-8.8,2.42-10.72,5.74-2.18,3.78-1.54,8.45.45,12.36a16.85,16.85,0,0,1,3.66-4.48,20.85,20.85,0,0,1,11.77-5.44c6.92-.81,10.35,5.85,11.46,3.93,1.61-2.8-4.85-8.26-6.64-9.29A21.27,21.27,0,0,0,27.19,15Z" fill="url(#y)"/><path d="M22.17,17.54c.75,1.05-2.8,1.09-5.81,3.72-2.38,2.09-4.06,3.06-4.8,2s.37-3.23,2.61-4.71C17.76,16.2,21.43,16.48,22.17,17.54Z" opacity="0.5" fill="url(#z)"/><g opacity="0.6"><path d="M26.79,14.93a20.66,20.66,0,0,1,6.12,2.27,13.86,13.86,0,0,1,4.93,4.43,13.84,13.84,0,0,1,2,6.32,16.31,16.31,0,0,1-.76,6.49,21.76,21.76,0,0,0,.2-3.22A17.78,17.78,0,0,0,39.07,28,15.59,15.59,0,0,0,37,22.17a15.5,15.5,0,0,0-4.49-4.34A30.81,30.81,0,0,0,26.79,14.93Z" fill="url(#aa)"/><path d="M42.7,13.66a22.25,22.25,0,0,1,2.5,7.59,20.36,20.36,0,0,1-.29,8,13.28,13.28,0,0,1-4.36,6.69,16.16,16.16,0,0,1-7.1,3.43A23.34,23.34,0,0,0,40,35.31,12.39,12.39,0,0,0,43.92,29a20.11,20.11,0,0,0,.19-7.58,22.81,22.81,0,0,0-2.28-7.25h0a.49.49,0,0,1,.19-.68A.5.5,0,0,1,42.7,13.66Z" fill="url(#ab)"/><path d="M45.13,39.33a16.56,16.56,0,0,1-4.62,2.32,12.5,12.5,0,0,1-2.59.51,13.93,13.93,0,0,1-2.66-.09,13.29,13.29,0,0,1-4.92-1.85,16.31,16.31,0,0,1-4-3.29,23.41,23.41,0,0,0,4.36,2.61,20.75,20.75,0,0,0,4.74,1.51,13.45,13.45,0,0,0,2.45.3,11.58,11.58,0,0,0,2.48-.24A19.59,19.59,0,0,0,45.13,39.33Z" fill="url(#ac)"/><path d="M29,44.82a10.7,10.7,0,0,1-3-3,13.64,13.64,0,0,1-1.64-3.94A14.69,14.69,0,0,1,24,33.67a11.36,11.36,0,0,1,.94-4.11c0,1.4-.09,2.76,0,4.12a22.38,22.38,0,0,0,.44,4,15.6,15.6,0,0,0,1.3,3.81A14.07,14.07,0,0,0,29,44.82Z" fill="url(#ad)"/><path d="M19.1,40.28a16,16,0,0,1,0-5.34,12.45,12.45,0,0,1,.8-2.63,7.14,7.14,0,0,1,.65-1.22A7.91,7.91,0,0,1,21.38,30a14.17,14.17,0,0,1,4.18-3.46,16.06,16.06,0,0,1,5-1.87A23.23,23.23,0,0,0,26,27.2a19.58,19.58,0,0,0-2,1.64,19.92,19.92,0,0,0-1.69,1.88,15.26,15.26,0,0,0-1.43,2.07,12.64,12.64,0,0,0-1,2.34A22.44,22.44,0,0,0,19.1,40.28Z" fill="url(#ae)"/><path d="M11,32a21.48,21.48,0,0,1,5.19-6,20.22,20.22,0,0,1,7-3.83,13.27,13.27,0,0,1,8,.37,13.44,13.44,0,0,1,6.5,4.51,35.47,35.47,0,0,0-6.82-3.55,12.2,12.2,0,0,0-7.41-.31,20.22,20.22,0,0,0-6.71,3.53,23.28,23.28,0,0,0-5.28,5.57h0a.29.29,0,0,1-.4.09A.3.3,0,0,1,11,32Z" fill="url(#af)"/></g><path d="M21.46,13.57a20.78,20.78,0,0,1,7.64,2.09.14.14,0,0,1,.07.18.15.15,0,0,1-.17.07,20.28,20.28,0,0,0-7.54-1.34.5.5,0,1,1,0-1Z" fill="#003755"/><path d="M42.7,13.66a20.83,20.83,0,0,1,2,7.66.14.14,0,0,1-.12.15.14.14,0,0,1-.14-.11,20.29,20.29,0,0,0-2.62-7.2.5.5,0,1,1,.87-.5Z" fill="#003755"/><path d="M53.24,32.09a20.72,20.72,0,0,1-5.63,5.57.14.14,0,0,1-.19,0,.13.13,0,0,1,0-.18,20.27,20.27,0,0,0,4.92-5.86.5.5,0,1,1,.87.5Z" fill="#003755"/><path d="M42.54,50.43a20.78,20.78,0,0,1-7.64-2.09.14.14,0,0,1-.07-.18.15.15,0,0,1,.17-.07,20.28,20.28,0,0,0,7.54,1.34.5.5,0,1,1,0,1Z" fill="#003755"/><path d="M21.3,50.34a20.83,20.83,0,0,1-2-7.66.14.14,0,0,1,.12-.15.14.14,0,0,1,.14.11,20.29,20.29,0,0,0,2.62,7.2.5.5,0,1,1-.87.5Z" fill="#003755"/><path d="M10.76,31.91a20.72,20.72,0,0,1,5.63-5.57.14.14,0,0,1,.19,0,.13.13,0,0,1,0,.18,20.27,20.27,0,0,0-4.92,5.86.5.5,0,1,1-.87-.5Z" fill="#003755"/><path d="M54.65,25.21c0-6.9-5.42-10.94-12.38-11.3C39.75,9.62,35.78,7.5,32,7.5c-4.38,0-8.1,2.89-10.49,6.57-7.18,0-12.06,4.87-12.06,11a15.79,15.79,0,0,0,1.79,7.06,13.38,13.38,0,0,0-1.84,6.63c0,6.9,5.42,10.94,12.38,11.3,2.52,4.29,6.49,6.41,10.32,6.41,4.38,0,8.1-2.89,10.49-6.57,6.63,0,12.06-4.4,12.06-11a15.79,15.79,0,0,0-1.79-7.06A13.38,13.38,0,0,0,54.65,25.21Z" fill="none" stroke="#003755" stroke-linejoin="round"/></svg>