<svg xmlns="http://www.w3.org/2000/svg" xmlns:xlink="http://www.w3.org/1999/xlink" width="64" height="64" viewBox="0 0 64 64">
  <defs>
    <linearGradient id="a" x1="21.252" y1="13.384" x2="42.748" y2="50.616" gradientUnits="userSpaceOnUse">
      <stop offset="0" stop-color="#8cd7f5"/>
      <stop offset="1" stop-color="#376e8c"/>
    </linearGradient>
  </defs>
  <title>15693_X3DCSMA_AP_AppIcon_r21x</title>
  <g>
    <circle cx="32" cy="32" r="21.5" fill="url(#a)"/>
    <path d="M32,11A21,21,0,1,1,11,32,21.024,21.024,0,0,1,32,11m0-1A22,22,0,1,0,54,32,22,22,0,0,0,32,10Z" fill="#003755"/>
  </g>
  <path d="M49,31.5,34,20v7c-10,0-17,5.363-17,13.556,0,5.905,3.866,10.087,8.539,12.478a21.913,21.913,0,0,0,9.344.772C29.18,51.977,22,48.5,22,43c0-7,6-7,12-7v7Z" fill="#fff"/>
</svg>
