<?xml version="1.0" encoding="UTF-8"?><svg xmlns="http://www.w3.org/2000/svg" xmlns:xlink="http://www.w3.org/1999/xlink" viewBox="0 0 128 128"><defs><style>.ad{fill:#fff;}.ae{fill:url(#w);}.ae,.af,.ag,.ah,.ai,.aj,.ak,.al,.am,.an,.ao{stroke-linejoin:round;stroke-width:2px;}.ae,.af,.ah,.al,.an{stroke:#6d6d6d;}.af{fill:url(#u);}.ap{fill:url(#l);}.b{fill:url(#a);}.ag{fill:url(#a`);}.ag,.aj,.am,.ao{stroke:#003755;}.aq{fill:url(#m);}.ah{fill:url(#v);}.ar{fill:url(#f);}.ai{stroke:#343434;}.ai,.as{fill:none;}.at{fill:url(#g);}.au{fill:#787878;}.av{fill:url(#i);}.aj{fill:url(#ab);}.aw{fill:url(#h);}.ax{fill:url(#d);}.ay{fill:url(#e);}.ak{fill:url(#y);stroke:#323232;}.b`{fill:url(#j);}.ba{filter:url(#n);}.al{fill:url(#x);}.am{fill:url(#ac);}.an{fill:url(#t);}.as{stroke:url(#o);stroke-linecap:round;stroke-miterlimit:10;stroke-width:7px;}.bb{fill:url(#k);}.ao{fill:url(#aa);}</style><linearGradient id="a" x1="89" y1="47" x2="108" y2="47" gradientTransform="matrix(1, 0, 0, 1, 0, 0)" gradientUnits="userSpaceOnUse"><stop offset="0" stop-color="#464646"/><stop offset="1" stop-color="#141414"/></linearGradient><linearGradient id="d" x1="33.21" y1="78.78" x2="39.42" y2="89.53" gradientTransform="matrix(1, 0, 0, 1, 0, 0)" gradientUnits="userSpaceOnUse"><stop offset="0" stop-color="#aaa"/><stop offset="1" stop-color="#5a5a5a"/></linearGradient><linearGradient id="e" x1="31.14" y1="58.2" x2="41.44" y2="76.05" gradientTransform="matrix(1, 0, 0, 1, 0, 0)" gradientUnits="userSpaceOnUse"><stop offset="0" stop-color="#d7d7d7"/><stop offset="1" stop-color="#969696"/></linearGradient><linearGradient id="f" x1="31.55" y1="39.34" x2="40.63" y2="55.05" xlink:href="#d"/><linearGradient id="g" x1="51.92" y1="31.83" x2="66.54" y2="57.15" xlink:href="#e"/><linearGradient id="h" x1="54" y1="62.22" x2="64.55" y2="80.5" xlink:href="#d"/><linearGradient id="i" x1="55.48" y1="15.56" x2="62.77" y2="28.19" xlink:href="#d"/><linearGradient id="j" x1="79.58" y1="51.56" x2="84.94" y2="60.84" xlink:href="#e"/><linearGradient id="k" x1="78.93" y1="62.27" x2="85.56" y2="73.75" xlink:href="#d"/><linearGradient id="l" x1="79.12" y1="40.72" x2="84.88" y2="50.69" xlink:href="#d"/><linearGradient id="m" x1="21.28" y1="26.62" x2="62.81" y2="98.56" xlink:href="#e"/><filter id="n" x="-50%" y="-50%" width="200%" height="200%"><feGaussianBlur stdDeviation="1"/></filter><linearGradient id="o" x1="24.82" y1="47.14" x2="93.84" y2="47.14" xlink:href="#d"/><linearGradient id="t" x1="87.51" y1="-1005.49" x2="107.19" y2="-1023.49" gradientTransform="translate(0 -916.11) scale(1 -1)" gradientUnits="userSpaceOnUse"><stop offset="0" stop-color="#f0f0f0"/><stop offset="1" stop-color="#b3b3b3"/></linearGradient><linearGradient id="u" x1="108.89" y1="-998.52" x2="98.05" y2="-1027.96" xlink:href="#t"/><linearGradient id="v" x1="88.27" y1="95.68" x2="96.59" y2="95.68" gradientTransform="matrix(1, 0, 0, 1, 0, 0)" xlink:href="#t"/><linearGradient id="w" x1="70" y1="-988.82" x2="90.37" y2="-1026.1" xlink:href="#t"/><linearGradient id="x" x1="93.97" y1="-1014.12" x2="131.19" y2="-1054.95" xlink:href="#t"/><linearGradient id="y" x1="76.22" y1="29.41" x2="105.78" y2="80.59" gradientTransform="matrix(1, 0, 0, 1, 0, 0)" gradientUnits="userSpaceOnUse"><stop offset="0" stop-color="#fff"/><stop offset="1" stop-color="#d4d5d3"/></linearGradient><linearGradient id="a`" x1="84.45" y1="24.66" x2="97.55" y2="47.34" gradientTransform="matrix(1, 0, 0, 1, 0, 0)" gradientUnits="userSpaceOnUse"><stop offset="0" stop-color="#82bedc"/><stop offset="1" stop-color="#285a78"/></linearGradient><linearGradient id="aa" x1="77.45" y1="42.58" x2="82.55" y2="51.42" gradientTransform="matrix(1, 0, 0, 1, 0, 0)" gradientUnits="userSpaceOnUse"><stop offset="0" stop-color="#8cd7f5"/><stop offset="1" stop-color="#376e8c"/></linearGradient><linearGradient id="ab" y1="53.58" x2="82.55" y2="62.42" xlink:href="#aa"/><linearGradient id="ac" y1="64.58" y2="73.42" xlink:href="#aa"/></defs><g id="c"><g><polygon class="ax" points="27.17 82.27 27.17 92.35 45.54 85.99 45.54 76.1 27.17 82.27"/><polygon class="ay" points="45.54 54.63 27.17 60.49 27.17 79.85 45.54 73.68 45.54 54.63"/><polygon class="ar" points="45.54 52.22 45.54 37.22 27.17 41.87 27.17 58.08 45.54 52.22"/><polygon class="at" points="68.51 27.28 50.14 32.86 50.14 62.03 68.51 56.01 68.51 27.28"/><polygon class="aw" points="50.14 64.45 50.14 84.46 68.51 78.21 68.51 58.43 50.14 64.45"/><polygon class="av" points="68.51 24.88 68.51 14 50.14 18.64 50.14 30.46 68.51 24.88"/><polygon class="b`" points="91.48 49.3 73.11 55.3 73.11 63.21 91.48 57.07 91.48 49.3"/><polygon class="bb" points="73.11 65.63 73.11 76.7 91.48 70.33 91.48 59.49 73.11 65.63"/><polygon class="ap" points="91.48 46.88 91.48 39.55 73.11 44.19 73.11 52.88 91.48 46.88"/><g><path class="aq" d="M19.13,103.57s-.05,0-.08-.03c-.04-.03-.07-.08-.07-.14V32.8l-2.54,.67,2.94-5.76,2.75,4.25-2.86,.75V102.47l73.21-24.41v-2.32l4.66,1.47-4.66,4.2v-3.01L19.73,103.54c-.18,.02-.52,.03-.61,.03Z"/><path class="au" d="M19.49,29.71l1.06,1.64-.78,.21-1.41,.37,1.13-2.22m74,47.4l1.7,.53-1.7,1.53v-2.06M19.29,25.71l-4.75,9.3,3.45-.91V103.41c0,.38,.18,.73,.49,.95,.2,.14,.43,.21,.66,.21,.13,0,.75-.02,.87-.07l71.49-24.69v3.86l7.63-6.88-7.63-2.41v2.96L20.28,101.09V33.49l3.45-.91-4.44-6.87h0Z"/></g><g class="ba"><path class="ad" d="M26.02,77c-4.59-2.3-2.82-7.88-2.3-9.19L48.99,31.06l20.67,9.19,16.08-22.97c1.26-1.83,7.36-1.27,9.19,0,1.83,1.26,3.56,7.36,2.3,9.19l-25.27,34.46-18.38-11.49-20.67,27.56c-.79,1.1-2.88,2-6.89,0Z"/></g><polyline class="as" points="28.32 72.41 51.29 40.25 69.66 51.74 90.34 21.88"/></g></g><g id="p"/><g id="q"/><g id="r"/><g id="s"><g><polygon class="an" points="81 92.48 89.81 87.11 96.59 88.63 88.51 94.36 81 92.48"/><polygon class="af" points="96.18 104.81 104.5 98.61 104.5 106.44 96.18 113 96.18 104.81"/><polygon class="ah" points="88.51 94.36 96.59 88.63 96.59 96.23 88.27 102.72 88.51 94.36"/><polygon class="ae" points="88.51 94.36 88.27 102.72 96.18 104.81 96.18 113 81 108.67 81 92.48 88.51 94.36"/><polygon class="al" points="96.59 96.23 104.5 98.61 96.18 104.81 88.27 102.72 96.59 96.23"/><polygon class="ai" points="96.59 96.23 96.59 88.63 89.81 87.11 81 92.48 81 108.67 96.18 113 104.5 106.44 104.5 98.61 96.59 96.23"/></g><polygon class="ak" points="70 33 70 77 84 77 91 84 98 77 112 77 112 33 70 33"/><rect class="ag" x="70" y="33" width="42" height="6"/><rect class="ao" x="75" y="44" width="10" height="6"/><rect class="b" x="89" y="46" width="19" height="2"/><rect class="aj" x="75" y="55" width="10" height="6"/><rect class="b" x="89" y="57" width="19" height="2"/><rect class="am" x="75" y="66" width="10" height="6"/><rect class="b" x="89" y="68" width="19" height="2"/></g></svg>