<svg xmlns="http://www.w3.org/2000/svg" xmlns:xlink="http://www.w3.org/1999/xlink" width="64" height="64" viewBox="0 0 64 64">
  <defs>
    <linearGradient id="a" x1="37.397" y1="22.776" x2="51.055" y2="46.432" gradientUnits="userSpaceOnUse">
      <stop offset="0" stop-color="#3287af"/>
      <stop offset="1" stop-color="#285a78"/>
    </linearGradient>
    <linearGradient id="d" x1="14.251" y1="20.311" x2="27.749" y2="43.689" gradientUnits="userSpaceOnUse">
      <stop offset="0" stop-color="#8cd7f5"/>
      <stop offset="1" stop-color="#376e8c"/>
    </linearGradient>
  </defs>
  <title>15692_X3DCSCR_AP_AppIcon_r21x</title>
  <g>
    <g>
      <g opacity="0.5">
        <circle cx="39.5" cy="40.5" r="3" fill="#fff"/>
        <path d="M39.5,38A2.5,2.5,0,1,1,37,40.5,2.5,2.5,0,0,1,39.5,38m0-1A3.5,3.5,0,1,0,43,40.5,3.5,3.5,0,0,0,39.5,37Z" fill="#fff"/>
      </g>
      <g opacity="0.5">
        <path d="M46,43.5a.5.5,0,0,1-.5-.5,8.417,8.417,0,0,0-2.24-6.279A8.388,8.388,0,0,0,37,34.5a.5.5,0,0,1-.5-.5V30a.5.5,0,0,1,.5-.5A13.357,13.357,0,0,1,50.5,43a.5.5,0,0,1-.5.5Z" fill="#fff"/>
        <path d="M37,30A12.876,12.876,0,0,1,50,43H46a9.018,9.018,0,0,0-2.387-6.633A8.97,8.97,0,0,0,37,34V30m0-1a1,1,0,0,0-1,1v4a1,1,0,0,0,1,1,7.915,7.915,0,0,1,5.906,2.074A7.951,7.951,0,0,1,45,43a1,1,0,0,0,1,1h4a1,1,0,0,0,1-1A13.852,13.852,0,0,0,37,29Z" fill="#fff"/>
      </g>
      <g opacity="0.5">
        <path d="M53,43.5a.5.5,0,0,1-.5-.5A15.336,15.336,0,0,0,37,27.5a.5.5,0,0,1-.5-.5l.01-4a.5.5,0,0,1,.5-.5A20.518,20.518,0,0,1,57.5,43a.5.5,0,0,1-.5.5Z" fill="#fff"/>
        <path d="M37.009,23A20.019,20.019,0,0,1,57,43H53A15.91,15.91,0,0,0,37,27l.009-4m0-1a1,1,0,0,0-1,1L36,27a1,1,0,0,0,1,1A14.841,14.841,0,0,1,52,43a1,1,0,0,0,1,1h4a1,1,0,0,0,1-1A21.019,21.019,0,0,0,37.009,22Z" fill="#fff"/>
      </g>
    </g>
    <g>
      <circle cx="39.5" cy="40.5" r="2.5" fill="url(#a)"/>
      <path d="M37,34a8.97,8.97,0,0,1,6.613,2.367A9.018,9.018,0,0,1,46,43h4A12.876,12.876,0,0,0,37,30Z" fill="url(#a)"/>
      <path d="M37,27A15.91,15.91,0,0,1,53,43h4A20.019,20.019,0,0,0,37.009,23Z" fill="url(#a)"/>
    </g>
  </g>
  <g>
    <g>
      <circle cx="21" cy="32" r="13.5" fill="url(#d)"/>
      <path d="M21,19A13,13,0,1,1,8,32,13.015,13.015,0,0,1,21,19m0-1A14,14,0,1,0,35,32,14,14,0,0,0,21,18Z" fill="#003755"/>
    </g>
    <path d="M15,40c0-4.8,2-6,8-6v5l9-8-9-7v5c-6,0-11,2.733-11,8,0,4.372,2.887,7.122,5.969,8.671A11.517,11.517,0,0,0,21.253,46a13.938,13.938,0,0,0,1.917-.147C20.243,44.945,15,43.705,15,40Z" fill="#fff"/>
  </g>
</svg>
