<svg xmlns="http://www.w3.org/2000/svg" xmlns:xlink="http://www.w3.org/1999/xlink" width="64" height="64" viewBox="0 0 64 64">
  <defs>
    <linearGradient id="a" x1="18.614" y1="7.083" x2="45.654" y2="53.917" gradientUnits="userSpaceOnUse">
      <stop offset="0" stop-color="#fff"/>
      <stop offset="1" stop-color="#d4d5d3"/>
    </linearGradient>
    <linearGradient id="b" x1="24.192" y1="-1.292" x2="39.54" y2="25.292" gradientUnits="userSpaceOnUse">
      <stop offset="0" stop-color="#8dd7f4"/>
      <stop offset="1" stop-color="#386e8c"/>
    </linearGradient>
    <linearGradient id="c" x1="13" y1="32" x2="51" y2="32" gradientUnits="userSpaceOnUse">
      <stop offset="0" stop-color="#464647"/>
      <stop offset="1" stop-color="#151515"/>
    </linearGradient>
    <mask id="f" x="13" y="17" width="38" height="30.5" maskUnits="userSpaceOnUse">
      <circle cx="34.5" cy="35.5" r="12" fill="#fff"/>
    </mask>
    <linearGradient id="g" x1="18.713" y1="25.814" x2="28.259" y2="42.348" gradientUnits="userSpaceOnUse">
      <stop offset="0" stop-color="#3387af"/>
      <stop offset="1" stop-color="#285a78"/>
    </linearGradient>
    <linearGradient id="h" x1="25.759" y1="21.201" x2="38.214" y2="42.775" xlink:href="#g"/>
    <linearGradient id="i" x1="35.745" y1="22.038" x2="45.283" y2="38.556" xlink:href="#g"/>
    <linearGradient id="j" x1="43.948" y1="48.552" x2="48.082" y2="44.418" gradientUnits="userSpaceOnUse">
      <stop offset="0.04" stop-color="#a39f9f"/>
      <stop offset="0.2" stop-color="#ddd"/>
      <stop offset="0.4" stop-color="#c6c6c5"/>
      <stop offset="0.68" stop-color="#f5f5f5"/>
      <stop offset="0.996" stop-color="#bebebe"/>
    </linearGradient>
    <linearGradient id="k" x1="27.499" y1="23.374" x2="41.501" y2="47.626" gradientUnits="userSpaceOnUse">
      <stop offset="0" stop-color="#fff"/>
      <stop offset="1" stop-color="#d2d2d2"/>
    </linearGradient>
    <linearGradient id="l" x1="28.249" y1="24.673" x2="40.751" y2="46.327" gradientUnits="userSpaceOnUse">
      <stop offset="0"/>
      <stop offset="1" stop-color="#fff"/>
    </linearGradient>
    <linearGradient id="m" x1="47.306" y1="45.401" x2="54.51" y2="57.878" xlink:href="#b"/>
    <linearGradient id="n" x1="47.83" y1="46.309" x2="53.772" y2="56.6" gradientUnits="userSpaceOnUse">
      <stop offset="0" stop-color="#8dd7f4"/>
      <stop offset="0.256" stop-color="#8bd4f1"/>
      <stop offset="0.442" stop-color="#83cbe8"/>
      <stop offset="0.606" stop-color="#76bbd8"/>
      <stop offset="0.757" stop-color="#64a4c2"/>
      <stop offset="0.898" stop-color="#4d88a6"/>
      <stop offset="1" stop-color="#386e8c"/>
    </linearGradient>
  </defs>
  <g>
    <path d="M7.5,13.5h49a0,0,0,0,1,0,0v33a2,2,0,0,1-2,2H9.5a2,2,0,0,1-2-2v-33A0,0,0,0,1,7.5,13.5Z" stroke="#323232" stroke-linejoin="round" fill="url(#a)"/>
    <path d="M9.5,7.5h45a2,2,0,0,1,2,2v6a0,0,0,0,1,0,0H7.5a0,0,0,0,1,0,0v-6a2,2,0,0,1,2-2Z" stroke="#053755" stroke-linejoin="round" fill="url(#b)"/>
    <g>
      <g>
        <path d="M26.782,43.2,13,34.553V29.764l13.782-8.608V26.8l-9.613,5.3,9.613,5.5Z" fill="url(#c)"/>
        <path d="M28.057,47l4.978-30h2.894L30.9,47Z" fill="url(#c)"/>
        <path d="M37.2,43.22v-5.6l9.627-5.462-9.627-5.4V21.2L51,29.8v4.75Z" fill="url(#c)"/>
      </g>
      <g>
        <path d="M26.782,43.2,13,34.553V29.764l13.782-8.608V26.8l-9.613,5.3,9.613,5.5Z" fill="#646565" opacity="0.5"/>
        <path d="M28.057,47l4.978-30h2.894L30.9,47Z" fill="#646565" opacity="0.5"/>
        <path d="M37.2,43.22v-5.6l9.627-5.462-9.627-5.4V21.2L51,29.8v4.75Z" fill="#646565" opacity="0.5"/>
      </g>
    </g>
    <g mask="url(#f)">
      <g>
        <path d="M26.782,43.2,13,34.553V29.764l13.782-8.608V26.8l-9.613,5.3,9.613,5.5Z" fill="url(#g)"/>
        <path d="M28.057,47l4.978-30h2.894L30.9,47Z" fill="url(#h)"/>
        <path d="M37.2,43.22v-5.6l9.627-5.462-9.627-5.4V21.2L51,29.8v4.75Z" fill="url(#i)"/>
      </g>
    </g>
  </g>
  <g>
    <g opacity="0.5">
      <path d="M54.447,58a3.03,3.03,0,0,1-2.164-.876l-8.139-8.275L42.72,47.428A14.363,14.363,0,0,1,34.5,50a14.514,14.514,0,1,1,12.329-6.878l1.525,1.524,8.269,8.134A3.053,3.053,0,0,1,54.447,58ZM34.5,25A10.5,10.5,0,1,0,45,35.5,10.512,10.512,0,0,0,34.5,25Z" fill="#fff"/>
      <path d="M34.5,21.5A13.993,13.993,0,0,1,46.192,43.192L48,45l8.273,8.136a2.619,2.619,0,0,1-.005,3.632,2.62,2.62,0,0,1-3.632.005L44.5,48.5l-1.725-1.725A13.994,13.994,0,1,1,34.5,21.5m0,25a11,11,0,1,0-11-11,11,11,0,0,0,11,11m0-26a15,15,0,0,0,0,30,14.851,14.851,0,0,0,8.158-2.428l1.135,1.135,8.13,8.267A3.536,3.536,0,0,0,54.447,58.5a3.553,3.553,0,0,0,2.533-6.073L48.7,44.287l-1.242-1.242A14.993,14.993,0,0,0,34.5,20.5Zm0,25a10,10,0,1,1,10-10,10.011,10.011,0,0,1-10,10Z" fill="#fff"/>
    </g>
    <g>
      <path d="M46,50l-3.5-3.5L46,43l3.5,3.5Z" fill="url(#j)"/>
      <polygon points="46 48.293 43.707 46 43.207 46.5 46 49.293 48.793 46.5 48.293 46 46 48.293" opacity="0.3"/>
      <polygon points="46 44.707 48.293 47 48.793 46.5 46 43.707 43.207 46.5 43.707 47 46 44.707" fill="#fff" opacity="0.3"/>
      <path d="M46.828,44.535,46,43.707,43.207,46.5l1.154,1.154A15.949,15.949,0,0,0,46.828,44.535Z" fill="#646565" opacity="0.5"/>
    </g>
    <g>
      <path d="M34.5,21.5a14,14,0,1,0,14,14A14,14,0,0,0,34.5,21.5Zm0,25a11,11,0,1,1,11-11A11,11,0,0,1,34.5,46.5Z" stroke="#787979" stroke-linejoin="round" fill="url(#k)"/>
      <path d="M42.035,36.863h0a1.816,1.816,0,0,0-2.086.9,6.555,6.555,0,0,1-2.683,2.683,1.816,1.816,0,0,0-.9,2.086h0a1.824,1.824,0,0,0,2.623,1.114,10.2,10.2,0,0,0,4.163-4.163A1.824,1.824,0,0,0,42.035,36.863Z" fill="#fff" opacity="0.3"/>
      <path d="M25,35.682h3.636a6.546,6.546,0,0,1,6.546-6.546V25.5A10.182,10.182,0,0,0,25,35.682Z" fill="#fff" opacity="0.5"/>
      <path d="M34.5,23A12.5,12.5,0,1,0,47,35.5,12.5,12.5,0,0,0,34.5,23Zm0,24A11.5,11.5,0,1,1,46,35.5,11.513,11.513,0,0,1,34.5,47Z" opacity="0.3" fill="url(#l)"/>
    </g>
    <path d="M49.5,46.5l-3.308-3.308a14.088,14.088,0,1,0-3.417,3.583L46,50Z" fill="none" stroke="#323232" stroke-linejoin="round"/>
    <g>
      <path d="M56.273,53.136,48,45l-3.5,3.5,8.136,8.273a2.572,2.572,0,0,0,3.637-3.637Z" fill="url(#m)"/>
      <path d="M56.273,53.136,48,45l-3.5,3.5,8.136,8.273a2.572,2.572,0,0,0,3.637-3.637Z" fill="none" stroke="#053755" stroke-linejoin="round"/>
      <path d="M55.914,55.411A2.085,2.085,0,0,1,54.451,56h0a2.064,2.064,0,0,1-1.454-.581L45.7,48l-.5.5,7.789,7.919A2.064,2.064,0,0,0,54.447,57h0A2.012,2.012,0,0,0,56.5,54.948a2.161,2.161,0,0,0-.066-.5A2.018,2.018,0,0,1,55.914,55.411Z" opacity="0.3"/>
      <path d="M48,46.7l7.918,7.787a2.016,2.016,0,0,1,.516.957,2.171,2.171,0,0,0,.066-.5,2.072,2.072,0,0,0-.582-1.46L48,45.7l-2.8,2.8.5.5Z" fill="#fff" opacity="0.3"/>
      <path d="M55,54l-2-2-5.5-5.5L46,48l7.5,7.5c.544.544.57.5,1,.5a.942.942,0,0,0,1-1A1.634,1.634,0,0,0,55,54Z" fill="url(#n)"/>
    </g>
  </g>
</svg>
