<svg id="Layer_7_copy" data-name="Layer 7 copy" xmlns="http://www.w3.org/2000/svg" xmlns:xlink="http://www.w3.org/1999/xlink" viewBox="0 0 64 64"><defs><style>.cls-1{isolation:isolate;}.cls-2{fill:url(#linear-gradient);}.cls-3{fill:url(#linear-gradient-2);}.cls-4{fill:url(#linear-gradient-3);}.cls-5{fill:#6d6d6d;}.cls-6{fill:url(#linear-gradient-4);}.cls-7{fill:url(#linear-gradient-5);}.cls-8{fill:#0d6787;}.cls-9{fill:#97c9db;}.cls-10{fill:#2d2d2d;}.cls-11{fill:#fff;}.cls-12{fill:url(#linear-gradient-6);}.cls-13{fill:#0a50a1;}.cls-14{fill:#003755;}.cls-15{fill:#323232;}</style><linearGradient id="linear-gradient" x1="85.9" y1="9.5" x2="37.6" y2="32.18" gradientUnits="userSpaceOnUse"><stop offset="0" stop-color="#92d5ee"/><stop offset="0.48" stop-color="#599bb4"/><stop offset="1" stop-color="#185971"/></linearGradient><linearGradient id="linear-gradient-2" x1="21.9" y1="26.77" x2="57.76" y2="27.93" gradientUnits="userSpaceOnUse"><stop offset="0.01" stop-color="#575757"/><stop offset="0.32" stop-color="#828282"/><stop offset="1" stop-color="#ececed"/></linearGradient><linearGradient id="linear-gradient-3" x1="58.59" y1="28" x2="25.03" y2="28" gradientUnits="userSpaceOnUse"><stop offset="0" stop-color="#cececf"/><stop offset="0.43" stop-color="#cccccd"/><stop offset="0.59" stop-color="#c5c5c6"/><stop offset="0.7" stop-color="#bababb"/><stop offset="0.79" stop-color="#a9a9aa"/><stop offset="0.87" stop-color="#939394"/><stop offset="0.94" stop-color="#797979"/><stop offset="1" stop-color="#5a5a5a"/><stop offset="1" stop-color="#575757"/></linearGradient><linearGradient id="linear-gradient-4" x1="55.55" y1="27.67" x2="27.39" y2="29.6" gradientUnits="userSpaceOnUse"><stop offset="0" stop-color="#ddddde"/><stop offset="0.96" stop-color="#7d7d7e"/><stop offset="1" stop-color="#79797a"/></linearGradient><linearGradient id="linear-gradient-5" x1="10.51" y1="-23.7" x2="64.65" y2="74.15" xlink:href="#linear-gradient"/><linearGradient id="linear-gradient-6" x1="29.23" y1="41.45" x2="50.98" y2="41.45" gradientUnits="userSpaceOnUse"><stop offset="0" stop-color="#e5e5e4"/><stop offset="0.53" stop-color="#ececec"/><stop offset="1" stop-color="#f6f7f7"/></linearGradient></defs><title>36239_A33AAe__R21XArtboard 1</title><g id="passport_copy_9" data-name="passport copy 9"><g class="cls-1"><polygon class="cls-2" points="32.11 44.66 36 9 57 9 57 47 32.11 44.66"/><polygon class="cls-3" points="33 45 28.45 10.11 56 10 56 45 33 45"/><polygon class="cls-4" points="29.51 45.47 28.48 8.46 57.5 10.54 57.5 47.54 29.51 45.47"/><path class="cls-5" d="M29,9l28,2V47L30,45,29,9M28,7.92,28,9l1,36,0,.9.9.07,27,2,1.07.08v-38L57.07,10l-28-2L28,7.92Z"/><polygon class="cls-6" points="44.34 48.51 28.79 8.67 55.51 14.4 55.51 48.51 44.34 48.51"/><path class="cls-5" d="M29.57,9.34,55,14.79V48H44.67L29.57,9.34M28,8,44,49H56V14L28,8Z"/></g><polygon class="cls-7" points="28 45 28 10 53 16 53 51 28 45"/><polygon class="cls-8" points="53 51 53 16 54 15 54 49 53 51"/><polygon class="cls-9" points="54 15 53 16 28 10 28 9 54 15"/><path class="cls-10" d="M57,9v2h1V47H56v2H53v2L28,45V9H57m0-1H28a1,1,0,0,0-1,1V45a1,1,0,0,0,.77,1l25,6A.85.85,0,0,0,53,52a1,1,0,0,0,1-1V50h2a1,1,0,0,0,1-1V48h1a1,1,0,0,0,1-1V11a1,1,0,0,0-1-1V9a1,1,0,0,0-1-1Z"/><path id="people" class="cls-11" d="M39.1,20.57a1.5,1.5,0,1,1,3,.51,1.49,1.49,0,0,1-1.73,1.23A1.51,1.51,0,0,1,39.1,20.57Zm.22,5.94c.93-.5,8.17-4.46,9.65-5.28h0a.15.15,0,0,0,.08-.11.16.16,0,0,0-.14-.2h0l-1.52-.26h0a1.77,1.77,0,0,0-1.14.19l-7,3.8-.55.3h0a1.15,1.15,0,0,1-.76.14c-.44-.08-.6-.38-.72-.79h0c-.49-2.07-1.1-5-1.15-5.13a.68.68,0,0,0-.15-.31.64.64,0,0,0-.39-.23L34,18.36v0c.45,1.8,1.52,6.65,1.57,6.88A2,2,0,0,1,35.5,27l-.46.7a1.19,1.19,0,0,1-.09.15.31.31,0,0,0-.05.09L31.5,33a.86.86,0,0,0-.13.32.64.64,0,0,0,.14.52.76.76,0,0,0,.43.21l.54.08a.59.59,0,0,0,.52-.1.62.62,0,0,0,.23-.26c.54-.8,3.32-5.06,4-5.73A8.23,8.23,0,0,1,39.32,26.51Z"/><path class="cls-12" d="M45.46,40.83l.73,2.45c0-.06-.37-.18-1.87-.25-2-.1-2.9.58-4.45.31h0c-1.54-.3-2.1-1.25-4-1.9C34.38,41,34,41,34,41l1.58-2s.2-.09,1.24.36,2.4,1.49,3.51,1.71,2.77-.28,3.89-.32S45.46,40.83,45.46,40.83Zm-12.63.53c-.13-.19.1-.4.21-.55l.8-1a14.06,14.06,0,0,1-3.06-2l.38,1.75-1.93.28s3.65,2.91,5.5,3.2L35,42C34.07,41.68,33.11,41.75,32.83,41.36Zm11.89,2.71,0,1c1.83.41,6.29-1,6.29-1l-1.7-1,1-1.5a13.64,13.64,0,0,1-3.57.78l.36,1.24c.06.18.19.45,0,.59s-.6,0-.79,0C45.74,44.13,44.77,44.08,44.72,44.07Z"/></g><g id="ROBOT_2_OK_copy_3" data-name="ROBOT 2  OK copy 3"><g id="pattes"><rect class="cls-11" x="17.5" y="46.5" width="4" height="7"/><path class="cls-13" d="M21,47v6H18V47h3m1-1H17v8h5V46Z"/><rect class="cls-11" x="23.5" y="46.5" width="4" height="7"/><path class="cls-13" d="M27,47v6H24V47h3m1-1H23v8h5V46Z"/><rect class="cls-14" x="19" y="51" width="3" height="5"/><rect class="cls-14" x="23" y="51" width="3" height="5"/></g><g id="ok_" data-name="ok ***"><path class="cls-15" d="M29,35c-2.47,0-4.93,1.59-6.62,3.32C20.7,36.59,18.47,35,16,35V50H29Z"/><path id="haut" class="cls-14" d="M22.38,31.1l1.25-.45,1.78,5-3,.86-3-.86,1.79-5Z"/><rect class="cls-11" x="14.5" y="46.5" width="16" height="2"/><path class="cls-15" d="M30,47v1H15V47H30m1-1H14v3H31V46Z"/></g><rect class="cls-11" x="6.5" y="32.5" width="7" height="3"/><path class="cls-14" d="M13,33v2H7V33h6m1-1H6v4h8V32Z"/><polygon class="cls-14" points="12 32 16 32 16 36 13 36 12 32"/><rect class="cls-11" x="14.5" y="31.5" width="7" height="6"/><path class="cls-13" d="M21,32v5H15V32h6m1-1H14v7h8V31Z"/><rect class="cls-11" x="32.5" y="32.51" width="5" height="2.99"/><path class="cls-14" d="M37,33v2H33V33h4m1-1H32v4h6V32Z"/><polygon class="cls-14" points="33 32 29 32 29 36 32 36 33 32"/><rect class="cls-11" x="22.5" y="31.5" width="7" height="6"/><path class="cls-13" d="M29,32v5H23V32h6m1-1H22v7h8V31Z"/><path class="cls-11" d="M22.88,43.5V32.81l3.79-1.18L30.32,43.5Zm-8.2,0,3.65-11.87,3.55,1.17V43.5Z"/><path class="cls-15" d="M26.34,32.25,29.65,43H23.38V33.18l3-.93m-7.68,0,2.72.9V43h-6l3.31-10.73M27,31l-4.62,1.44V44H31L27,31Zm-9,0L14,44h8.38V32.44L18,31Z"/><g id="_Groupe_news" data-name="&lt;Groupe&gt;   news"><path class="cls-11" d="M31,46.5c-6,0-10-3.24-10.5-8.46l-.05-.55,1.22,0H22l.43,0,.1.42c.78,3.32,4.1,5.63,8.07,5.63H31l.52,0v3Z"/><path class="cls-15" d="M22,38c.9,3.79,4.61,6,8.56,6H31v2c-6,0-9.58-3.31-10-8h1m.77-1.07-.85.07H21L19.9,37l.1,1.11c.5,5.5,4.71,8.91,11,8.91h1V43l-1,0h-.4c-3.74,0-6.86-2.16-7.59-5.24l-.2-.84Z"/><path class="cls-11" d="M13.5,46.5v-3l.52,0h.42c4,0,7.29-2.31,8.07-5.63l.1-.42.43,0h1l.5,0,0,.49C24,43.26,20,46.5,14,46.5Z"/><path class="cls-15" d="M23.84,38H24c-.42,4.69-4,8-10,8V44h.44c4,0,7.66-2.22,8.56-6h.84m-1.6-1-.21.81C21.3,40.85,18.18,43,14.44,43H14l-1,0v4h1c6.29,0,10.5-3.41,11-8.91l.09-1-1-.09h-1l-.84,0Z"/></g><g id="pectoral"><path class="cls-11" d="M22.44,42.61a4.06,4.06,0,1,1,4.06-4A4.06,4.06,0,0,1,22.44,42.61Z"/><path class="cls-14" d="M22.44,35a3.56,3.56,0,1,1-3.55,3.56A3.56,3.56,0,0,1,22.44,35m0-1A4.56,4.56,0,1,0,27,38.56,4.56,4.56,0,0,0,22.44,34Z"/><path class="cls-14" d="M21,38.5A1.5,1.5,0,1,0,22.5,37,1.5,1.5,0,0,0,21,38.5Z"/></g><g id="TETE"><path class="cls-11" d="M21.07,26.13a3.94,3.94,0,0,1-2.68-1.54,3.9,3.9,0,0,1-.76-2.93A4.84,4.84,0,0,1,22.4,17.5a5.19,5.19,0,0,1,.68.05C26.19,18,31,21.78,31,25.64v.5Z"/><path class="cls-13" d="M22.4,18A4.17,4.17,0,0,1,23,18c2.95.42,7.45,4.11,7.45,7.6H21.07a3.46,3.46,0,0,1-2.95-3.9A4.33,4.33,0,0,1,22.4,18m0-1a5.35,5.35,0,0,0-5.27,4.59,4.46,4.46,0,0,0,3.8,5H31.46v-1c0-4.1-5-8.13-8.31-8.59A6.3,6.3,0,0,0,22.4,17Z"/><path class="cls-11" d="M22.36,32.06a5.72,5.72,0,1,1,5.71-5.71A5.71,5.71,0,0,1,22.36,32.06Z"/><path class="cls-13" d="M22.36,21.13a5.22,5.22,0,1,1-5.22,5.22,5.22,5.22,0,0,1,5.22-5.22m0-1a6.22,6.22,0,1,0,6.21,6.22,6.23,6.23,0,0,0-6.21-6.22Z"/><path class="cls-11" d="M13.8,25.64c0-3.86,4.77-7.66,7.89-8.09a5.16,5.16,0,0,1,.67-.05,4.85,4.85,0,0,1,4.78,4.16,3.9,3.9,0,0,1-.76,2.93,4,4,0,0,1-2.62,1.54h-10Z"/><path class="cls-13" d="M22.36,18a4.32,4.32,0,0,1,4.28,3.73,3.45,3.45,0,0,1-2.95,3.9H14.3c0-3.49,4.5-7.18,7.46-7.6a4,4,0,0,1,.6,0m0-1h0a6.27,6.27,0,0,0-.74.05c-3.29.46-8.32,4.49-8.32,8.59v1H23.83a4.44,4.44,0,0,0,3.8-5A5.34,5.34,0,0,0,22.36,17Z"/><path class="cls-11" d="M22.41,32.06a4.72,4.72,0,1,1,4.71-4.71A4.72,4.72,0,0,1,22.41,32.06Z"/><path class="cls-13" d="M22.41,23.13a4.22,4.22,0,1,1-4.22,4.22,4.22,4.22,0,0,1,4.22-4.22m0-1a5.22,5.22,0,1,0,5.21,5.22,5.22,5.22,0,0,0-5.21-5.22Z"/></g><g id="y_g_copy_3" data-name="y g *** copy 3"><path class="cls-11" d="M17.5,29.5a3,3,0,1,1,3-3A3,3,0,0,1,17.5,29.5Z"/><path class="cls-14" d="M17.5,24a2.5,2.5,0,1,1-2.5,2.5A2.5,2.5,0,0,1,17.5,24m0-1a3.5,3.5,0,1,0,3.5,3.5A3.5,3.5,0,0,0,17.5,23Z"/><path class="cls-11" d="M15,26.51A2.5,2.5,0,1,0,17.5,24,2.49,2.49,0,0,0,15,26.51Z"/><path class="cls-14" d="M16.51,26.51a1,1,0,0,0,2,0,1,1,0,1,0-2,0Z"/></g><g id="Y_D_copy_3" data-name="Y D ** copy 3"><circle class="cls-11" cx="27.5" cy="26.5" r="3"/><path class="cls-14" d="M27.5,24A2.5,2.5,0,1,1,25,26.5,2.5,2.5,0,0,1,27.5,24m0-1A3.5,3.5,0,1,0,31,26.5,3.5,3.5,0,0,0,27.5,23Z"/><path class="cls-11" d="M25,26.5A2.5,2.5,0,1,0,27.5,24,2.5,2.5,0,0,0,25,26.5Z"/><path class="cls-14" d="M26.51,26.51a1,1,0,1,0,1-1A1,1,0,0,0,26.51,26.51Z"/></g></g></svg>