<svg xmlns="http://www.w3.org/2000/svg" xmlns:xlink="http://www.w3.org/1999/xlink" viewBox="0 0 64 64"><defs><style>.White-RIGHT-\&amp;-FRONT-2,.cls-1{stroke:#787878;}.Blue-RIGHT\,-FRONT-\&amp;-SINGLE-2,.De-emphasized-WHITE-for-Vector-Highlights,.White-OUTLINE,.White-RIGHT-\&amp;-FRONT-2,.cls-1,.cls-2,.cls-3{stroke-linejoin:round;}.cls-1{stroke-width:1.02px;fill:url(#linear-gradient);}.White-OUTLINE{fill:none;stroke:#323232;}.Blue-RIGHT\,-FRONT-\&amp;-SINGLE-2,.cls-2{stroke:#003755;}.cls-2{fill:url(#linear-gradient-2);}.De-emphasized-WHITE-for-Vector-Highlights,.cls-3{fill:#fff;stroke:#fff;opacity:0.5;}.De-emphasized-WHITE-for-Vector-Highlights{stroke-width:3px;}.White-RIGHT-\&amp;-FRONT-2{fill:url(#linear-gradient-3);}.Blue-RIGHT\,-FRONT-\&amp;-SINGLE-2{fill:url(#linear-gradient-4);}.cls-3{stroke-width:2px;}.MediumRed{fill:#ea4f37;}</style><linearGradient id="linear-gradient" x1="19.01" y1="10.28" x2="45.25" y2="55.73" gradientUnits="userSpaceOnUse"><stop offset="0" stop-color="#fff"/><stop offset="1" stop-color="#d2d2d2"/></linearGradient><linearGradient id="linear-gradient-2" x1="23.29" y1="-2.35" x2="40.44" y2="27.35" gradientUnits="userSpaceOnUse"><stop offset="0" stop-color="#8cd7f5"/><stop offset="1" stop-color="#376e8c"/></linearGradient><linearGradient id="linear-gradient-3" x1="29.5" y1="24.37" x2="50.39" y2="60.56" xlink:href="#linear-gradient"/><linearGradient id="linear-gradient-4" x1="48.75" y1="46.72" x2="55.16" y2="57.81" xlink:href="#linear-gradient-2"/></defs><path class="cls-1" d="M6.5,17.5h51a0,0,0,0,1,0,0v30a2,2,0,0,1-2,2H8.5a2,2,0,0,1-2-2v-30A0,0,0,0,1,6.5,17.5Z"/><path class="White-OUTLINE" d="M55.5,6.5H8.5a2,2,0,0,0-2,2v39a2,2,0,0,0,2,2h47a2,2,0,0,0,2-2V8.5A2,2,0,0,0,55.5,6.5Z"/><path d="M23,39.87,10,34.22V31.09l13-5.63v3.69l-9.07,3.47L23,36.21Z"/><path d="M28.71,43,33.5,23h2.78L31.44,43Z"/><path d="M41,39.88V36.22l9.07-3.57L41,29.13V25.49l13,5.63v3.1Z"/><path class="cls-2" d="M8.5,6.5h47a2,2,0,0,1,2,2v9a0,0,0,0,1,0,0H6.5a0,0,0,0,1,0,0v-9A2,2,0,0,1,8.5,6.5Z"/><g id="Layer_3" data-name="Layer 3"><path class="De-emphasized-WHITE-for-Vector-Highlights" d="M56.78,53.14l-8.85-8.72A13.93,13.93,0,1,0,36.5,50.5,13.76,13.76,0,0,0,44.35,48l8.8,8.75a2.19,2.19,0,0,0,1.78.73,2.45,2.45,0,0,0,1.85-.73,2.65,2.65,0,0,0,0-3.63Z"/><circle class="De-emphasized-WHITE-for-Vector-Highlights" cx="36.5" cy="36.5" r="12"/><path class="White-RIGHT-&amp;-FRONT-2" d="M56.78,53.14l-8.85-8.72A13.93,13.93,0,1,0,36.5,50.5,13.76,13.76,0,0,0,44.35,48l8.8,8.75a2.19,2.19,0,0,0,1.78.73,2.45,2.45,0,0,0,1.85-.73,2.65,2.65,0,0,0,0-3.63ZM36.5,48.5a12,12,0,1,1,12-12A12.13,12.13,0,0,1,36.5,48.5Z"/><path class="White-OUTLINE" d="M56.78,53.14l-8.85-8.72A13.93,13.93,0,1,0,36.5,50.5,13.76,13.76,0,0,0,44.35,48l8.8,8.75a2.19,2.19,0,0,0,1.78.73,2.45,2.45,0,0,0,1.85-.73,2.65,2.65,0,0,0,0-3.63Z"/><path class="Blue-RIGHT,-FRONT-&amp;-SINGLE-2" d="M56.78,53.14l-7.07-7-3.63,3.57,7.07,7a2.19,2.19,0,0,0,1.78.73,2.45,2.45,0,0,0,1.85-.73,2.65,2.65,0,0,0,0-3.63Z"/></g><g id="Layer_4" data-name="Layer 4"><polygon class="cls-3" points="27 40 32 40 32 39 28 39 28 37 32 37 32 36 28 36 28 34 32 34 32 33 27 33 27 40"/><path class="cls-3" d="M38.1,33.8a2.88,2.88,0,0,0-1.18-.67A5.09,5.09,0,0,0,35.58,33H34v7h1.66A5.39,5.39,0,0,0,37,39.88a2.59,2.59,0,0,0,1-.56,3.11,3.11,0,0,0,.74-1.24A4.37,4.37,0,0,0,39,36.59a5.21,5.21,0,0,0-.23-1.65A3.07,3.07,0,0,0,38.1,33.8Zm-.24,4.09a1.48,1.48,0,0,1-.4.72,1.37,1.37,0,0,1-.61.32,2.23,2.23,0,0,1-.71.07H35V34h.68a4.24,4.24,0,0,1,1,.07,1.41,1.41,0,0,1,.71.36,1.73,1.73,0,0,1,.43.73A4.24,4.24,0,0,1,38,36.5,4.68,4.68,0,0,1,37.86,37.89Z"/><path class="cls-3" d="M45,33v3.87a6.71,6.71,0,0,1-.07,1.19,1.2,1.2,0,0,1-.43.69,1.61,1.61,0,0,1-1,.25,1.75,1.75,0,0,1-1-.26,1.26,1.26,0,0,1-.44-.78A6.93,6.93,0,0,1,42,36.79V33H41v3.73a7.82,7.82,0,0,0,.15,1.77,2,2,0,0,0,.42.78,2.29,2.29,0,0,0,.88.6,5.08,5.08,0,0,0,2.09,0,2.24,2.24,0,0,0,.88-.57,2,2,0,0,0,.46-.88A9,9,0,0,0,46,36.67V33Z"/><polygon class="MediumRed" points="27 40 32 40 32 39 28 39 28 37 32 37 32 36 28 36 28 34 32 34 32 33 27 33 27 40"/><path class="MediumRed" d="M38.1,33.8a2.88,2.88,0,0,0-1.18-.67A5.09,5.09,0,0,0,35.58,33H34v7h1.66A5.39,5.39,0,0,0,37,39.88a2.59,2.59,0,0,0,1-.56,3.11,3.11,0,0,0,.74-1.24A4.37,4.37,0,0,0,39,36.59a5.21,5.21,0,0,0-.23-1.65A3.07,3.07,0,0,0,38.1,33.8Zm-.24,4.09a1.48,1.48,0,0,1-.4.72,1.37,1.37,0,0,1-.61.32,2.23,2.23,0,0,1-.71.07H35V34h.68a4.24,4.24,0,0,1,1,.07,1.41,1.41,0,0,1,.71.36,1.73,1.73,0,0,1,.43.73A4.24,4.24,0,0,1,38,36.5,4.68,4.68,0,0,1,37.86,37.89Z"/><path class="MediumRed" d="M45,33v3.87a6.71,6.71,0,0,1-.07,1.19,1.2,1.2,0,0,1-.43.69,1.61,1.61,0,0,1-1,.25,1.75,1.75,0,0,1-1-.26,1.26,1.26,0,0,1-.44-.78A6.93,6.93,0,0,1,42,36.79V33H41v3.73a7.82,7.82,0,0,0,.15,1.77,2,2,0,0,0,.42.78,2.29,2.29,0,0,0,.88.6,5.08,5.08,0,0,0,2.09,0,2.24,2.24,0,0,0,.88-.57,2,2,0,0,0,.46-.88A9,9,0,0,0,46,36.67V33Z"/></g></svg>