<svg xmlns="http://www.w3.org/2000/svg" xmlns:xlink="http://www.w3.org/1999/xlink" viewBox="0 0 64 64"><defs><style>.cls-1,.cls-11,.cls-6{fill:none;}.cls-2{isolation:isolate;}.cls-3{fill:#fff;}.cls-4{fill:#5a9ab8;}.cls-5{opacity:0;mix-blend-mode:multiply;}.cls-6{stroke:#fff;stroke-linecap:round;stroke-width:0.99px;}.cls-11,.cls-6,.cls-8{stroke-miterlimit:10;}.cls-7{fill:#285977;}.cls-8{stroke:#000;stroke-width:0.65px;}.cls-9{clip-path:url(#clip-path);}.cls-10{fill:#2d6d8b;}.cls-11{stroke:#797979;stroke-width:0.99px;}</style><clipPath id="clip-path"><path class="cls-1" d="M20.77,47.46c3.48-.31,6.19-3.57,6.19-7.34s-2.71-6.85-6.19-6.83-6.32,3.34-6.32,7.4S17.29,47.77,20.77,47.46Z"/></clipPath></defs><title>aaaaaa_A33AAe__R21XArtboard 1</title><g class="cls-2"><g id="_10252_copy" data-name="10252 copy"><g id="_1X_ok_copy" data-name="1X   ok copy"><polygon id="fond_blanc_cadre_" data-name="fond blanc cadre   **" class="cls-3" points="55.96 48.09 8 52.96 8 11.96 55.96 16.9 55.96 48.09"/><g id="_Group_ok" data-name="&lt;Group&gt;   ok"><g id="Layer_17_copy_14" data-name="Layer 17 copy 14"><polygon id="R_04" data-name="R  04" class="cls-4" points="33 16.45 54 18.46 54 31.62 33 31.56 33 16.45"/><polygon id="R_03" data-name="R  03" class="cls-4" points="33 32.4 54 32.35 54 45.51 33 47.52 33 32.4"/><polygon id="R_02" data-name="R  02" class="cls-4" points="11 32.46 32 32.41 32 47.6 11 49.69 11 32.46"/><polygon class="cls-4" points="11 14.28 32 16.37 32 31.56 11 31.5 11 14.28"/></g><g id="GRAPH_ok_" data-name="GRAPH   ***ok **"><g id="under"><g class="cls-5"><path d="M36.28,44.74l15.28-1.23v.74L36.28,45.56Z"/></g><path class="cls-3" d="M36.28,44.74l15.28-1.23v.74L36.28,45.56Z"/></g><path id="l4" class="cls-3" d="M50.75,42.08l-2.41.17V37.68l2.41-.09Z"/><path id="l3" class="cls-3" d="M46.73,34.67l-2.41,0v7.81l2.41-.17Z"/><path id="l2" class="cls-3" d="M42.71,37.91,40.3,38v4.81l2.41-.17Z"/><path id="l1" class="cls-3" d="M38.69,36.44l-1.61.05V43l1.61-.12Z"/></g><g id="CRV_" data-name="CRV    ***"><polyline id="R" class="cls-6" points="29.04 23.92 23.58 29.26 19.68 21.17 12.65 26.1"/><polyline id="R-2" data-name="R" class="cls-6" points="28.26 18.98 18.12 27.44 16.56 18.65 12.65 20.74"/></g><g id="CRV_2" data-name="CRV    **"><polyline id="R-3" data-name="R" class="cls-6" points="29.04 23.92 23.58 29.26 19.68 21.17 12.65 26.1"/><polyline id="R-4" data-name="R" class="cls-6" points="28.26 18.98 18.12 27.44 16.56 18.65 12.65 20.74"/></g><g id="Camenbert_copy_6" data-name="Camenbert copy 6"><path id="_4" data-name="4" class="cls-7" d="M44.61,23.43l3.17-1.64a4.12,4.12,0,0,0-2.92-1.87C44.66,22.48,44.61,23.43,44.61,23.43Z"/><path id="_4-2" data-name="4" class="cls-8" d="M44.57,23.18l3.65-1.88a4.85,4.85,0,0,0-3.36-2.16C44.63,22.08,44.57,23.18,44.57,23.18Z"/><path class="cls-3" d="M43,23.14,43.31,19a3.19,3.19,0,0,0-1.38,0,6.66,6.66,0,0,0-1.36.51,6.41,6.41,0,0,0-1.42,1.57,4.12,4.12,0,0,0-.43,1.45Z"/><path id="_2" data-name="2" class="cls-3" d="M43,24.71l-4.27-.51c0,.57,0,.19,0,.22a4.53,4.53,0,0,0,2.68,4.45Z"/><path id="_1" data-name="1" class="cls-3" d="M48.42,27.9a3.9,3.9,0,0,0,1-2.37A4.13,4.13,0,0,0,48.79,23L45,25l-1.68,4a4.6,4.6,0,0,0,5.11-1.11Z"/></g><g id="terre_ok-2" data-name="terre  *** ok"><g class="cls-9"><path class="cls-10" d="M20.77,47.46c3.48-.31,6.19-3.57,6.19-7.34s-2.71-6.85-6.19-6.83-6.32,3.34-6.32,7.4S17.29,47.77,20.77,47.46Z"/><path class="cls-3" d="M25.86,39.93,27,39.74l-.25,1.93-1.31,3.07L24.23,46l.46-1.82.12-1.25L24.14,42l-.66-.79L23.6,40l1.67-.63Zm-9.33,2.2.55,1.1.63,1.41-.24,2,1,.46.32-.49L20,45l.82-2-.82-.7-.79,0-.63-.88-1-.5Zm1.46-8a5.77,5.77,0,0,0-2.84,3.43,10.52,10.52,0,0,0-.44,2l.88.69.6,1.11-.06-.7.06-.34L16,40.17l-.73-1.39.47-1.18.52,0,.16,1,.26-.68.82-.59.62.34.66.16L20,38l.34-.77-1.2.23-1.1-.16-.13-.63.27-.18.29.47.81.08,1.13-.59,1,.07.58-.35-.64-.87h-.82l-.62-1,.07.59-1.23.83-.24-.86.18-.56S19.14,33.62,18,34.12Zm5.16,3.37.1.76.6.19.68-.21.07-.33h.77l.54.73-.14.4.51-.38-.37-.5-.1-.57.64,0,.57.64-.07.36.33.16a8.52,8.52,0,0,0-1.21-2.61,10.76,10.76,0,0,0-1.78-1.7l-.7.12.1.66-.1.16.33.35.14-.15v-.7l.3.21.27.45-.2.58-.41.16-.3-.09,0,.55,0,.55.3,0,0,.24Z"/></g></g></g><polygon id="cadre_tab_" data-name="cadre tab   **" class="cls-11" points="56.5 48.5 7.5 53.5 7.5 11.5 56.5 16.5 56.5 48.5"/></g></g></g></svg>