<svg id="it_2" data-name="it 2" xmlns="http://www.w3.org/2000/svg" xmlns:xlink="http://www.w3.org/1999/xlink" viewBox="0 0 64 64"><defs><linearGradient id="linear-gradient" x1="36.08" y1="11.33" x2="44.61" y2="26.1" gradientUnits="userSpaceOnUse"><stop offset="0" stop-color="#fff"/><stop offset="1" stop-color="#d2d2d2"/></linearGradient><linearGradient id="linear-gradient-2" x1="29.09" y1="15.23" x2="36.25" y2="27.63" gradientUnits="userSpaceOnUse"><stop offset="0" stop-color="#d7d7d7"/><stop offset="1" stop-color="#969696"/></linearGradient><linearGradient id="linear-gradient-3" x1="41.44" y1="21.67" x2="48.48" y2="33.85" gradientUnits="userSpaceOnUse"><stop offset="0" stop-color="#f5f5f5"/><stop offset="1" stop-color="#bebebe"/></linearGradient><linearGradient id="linear-gradient-4" x1="45.96" y1="18.86" x2="52.14" y2="29.56" gradientUnits="userSpaceOnUse"><stop offset="0" stop-color="#fff"/><stop offset="1" stop-color="#f0f0f0"/></linearGradient><linearGradient id="linear-gradient-5" x1="50.19" y1="26.37" x2="53.84" y2="32.68" xlink:href="#linear-gradient-3"/><linearGradient id="linear-gradient-6" x1="39.15" y1="54.36" x2="39.85" y2="55.56" gradientTransform="matrix(1, 0.26, 0, 1, 0, -9.24)" gradientUnits="userSpaceOnUse"><stop offset="0" stop-color="#aaa"/><stop offset="1" stop-color="#5a5a5a"/></linearGradient><linearGradient id="linear-gradient-7" x1="39" y1="54" x2="40" y2="54" gradientUnits="userSpaceOnUse"><stop offset="0" stop-color="#464646"/><stop offset="1" stop-color="#141414"/></linearGradient><linearGradient id="linear-gradient-8" x1="33.15" y1="50.92" x2="33.85" y2="52.12" xlink:href="#linear-gradient-6"/><linearGradient id="linear-gradient-10" x1="49.15" y1="48.76" x2="49.85" y2="49.95" xlink:href="#linear-gradient-6"/><linearGradient id="linear-gradient-12" x1="34.26" y1="36.62" x2="41.05" y2="48.38" xlink:href="#linear-gradient-3"/><linearGradient id="linear-gradient-13" x1="41.72" y1="37.5" x2="47.76" y2="47.95" xlink:href="#linear-gradient"/><linearGradient id="linear-gradient-14" x1="37.91" y1="34.53" x2="45.09" y2="46.97" xlink:href="#linear-gradient-4"/><linearGradient id="linear-gradient-15" x1="43.21" y1="36" x2="43.79" y2="37" gradientTransform="matrix(1, 0, 0, 1, 0, 0)" xlink:href="#linear-gradient-6"/><linearGradient id="linear-gradient-16" x1="49.21" y1="41" x2="49.79" y2="42" gradientTransform="matrix(1, 0, 0, 1, 0, 0)" xlink:href="#linear-gradient-6"/><linearGradient id="linear-gradient-17" x1="39.21" y1="44" x2="39.79" y2="45" gradientTransform="matrix(1, 0, 0, 1, 0, 0)" xlink:href="#linear-gradient-6"/><linearGradient id="linear-gradient-18" x1="33.21" y1="39" x2="33.79" y2="40" gradientTransform="matrix(1, 0, 0, 1, 0, 0)" xlink:href="#linear-gradient-6"/><linearGradient id="linear-gradient-19" x1="37" y1="32.28" x2="43.01" y2="42.69" xlink:href="#linear-gradient"/><linearGradient id="linear-gradient-20" x1="35.78" y1="32.88" x2="41.32" y2="42.48" xlink:href="#linear-gradient-3"/><linearGradient id="linear-gradient-21" x1="26.05" y1="22.08" x2="27.52" y2="24.63" xlink:href="#linear-gradient-2"/><linearGradient id="linear-gradient-22" x1="25.27" y1="22.43" x2="26.68" y2="24.87" xlink:href="#linear-gradient-2"/><linearGradient id="linear-gradient-23" x1="52.9" y1="12.05" x2="55.39" y2="16.36" xlink:href="#linear-gradient-2"/><linearGradient id="linear-gradient-24" x1="51.77" y1="12.61" x2="54.15" y2="16.73" xlink:href="#linear-gradient-2"/><linearGradient id="linear-gradient-25" x1="9.82" y1="22.88" x2="15.63" y2="32.95" gradientUnits="userSpaceOnUse"><stop offset="0" stop-color="#8cd7f5"/><stop offset="1" stop-color="#376e8c"/></linearGradient><linearGradient id="linear-gradient-26" x1="7.3" y1="24.22" x2="12.76" y2="33.69" gradientUnits="userSpaceOnUse"><stop offset="0" stop-color="#82bedc"/><stop offset="1" stop-color="#285a78"/></linearGradient><linearGradient id="linear-gradient-27" x1="9.3" y1="27.67" x2="10.76" y2="30.21" xlink:href="#linear-gradient-26"/><linearGradient id="linear-gradient-28" x1="11.31" y1="32.57" x2="20.94" y2="49.24" xlink:href="#linear-gradient-25"/><linearGradient id="linear-gradient-29" x1="7.32" y1="34.73" x2="16.37" y2="50.4" xlink:href="#linear-gradient-26"/><linearGradient id="linear-gradient-30" x1="10.12" y1="39.59" x2="13.56" y2="45.55" xlink:href="#linear-gradient-26"/><linearGradient id="linear-gradient-31" x1="10.39" y1="40.04" x2="13.3" y2="45.09" gradientUnits="userSpaceOnUse"><stop offset="0"/><stop offset="1" stop-color="#285a78"/></linearGradient><linearGradient id="linear-gradient-32" x1="18" y1="25.32" x2="24" y2="25.32" xlink:href="#linear-gradient-7"/></defs><title>52282_3DEngineeringService_AP_AppIcon</title><path d="M31.21,14.14,44.27,9.79a.88.88,0,0,1,.33,0c2.27,0,5,5.59,5,10.31,0,2.14-.58,3.72-1.48,4l-13,4.34Z" fill="url(#linear-gradient)"/><path d="M44.6,10.24c1.64,0,4.46,4.85,4.46,9.81,0,2.18-.59,3.36-1.14,3.55l-12.5,4.16-1.79-6.59-1.81-6.7,12.6-4.21a.55.55,0,0,1,.18,0m0-1a1.57,1.57,0,0,0-.49.07L30.6,13.82l2.07,7.61,2.06,7.62,13.51-4.5c1.09-.37,1.82-2,1.82-4.5,0-4.93-2.83-10.81-5.46-10.81Z" fill="#787878"/><path d="M34.24,28.63c-2.27,0-5-5.6-5-10.32,0-2.14.58-3.72,1.48-4a1,1,0,0,1,.33,0c2.28,0,5,5.59,5,10.31,0,2.14-.58,3.72-1.48,4A1,1,0,0,1,34.24,28.63Z" fill="url(#linear-gradient-2)"/><path d="M31.09,14.74c1.64,0,4.47,4.85,4.47,9.81,0,2.18-.59,3.37-1.14,3.55a.52.52,0,0,1-.18,0c-1.63,0-4.46-4.85-4.46-9.82,0-2.17.59-3.36,1.14-3.55l.17,0m0-1a1.36,1.36,0,0,0-.49.08c-1.09.36-1.82,2-1.82,4.49,0,4.93,2.83,10.82,5.46,10.82a1.57,1.57,0,0,0,.49-.08c1.1-.37,1.83-2,1.83-4.5,0-4.93-2.84-10.81-5.47-10.81Z" fill="#787878"/><path d="M32.26,19.45l-.12,0c-.28.1-.47.51-.47,1.16,0,1.27.73,2.78,1.4,2.78l.13,0c.28-.09.47-.51.47-1.16C33.67,21,32.94,19.45,32.26,19.45Z" fill="#646464" opacity="0.5"/><line x1="40.97" y1="13.29" x2="44.97" y2="11.94" fill="none" stroke="#646464" stroke-linecap="round" stroke-miterlimit="10" opacity="0.5"/><line x1="41.77" y1="14.73" x2="45.77" y2="13.38" fill="none" stroke="#646464" stroke-linecap="round" stroke-miterlimit="10" opacity="0.5"/><line x1="42.58" y1="16.31" x2="46.58" y2="14.96" fill="none" stroke="#646464" stroke-linecap="round" stroke-miterlimit="10" opacity="0.5"/><path d="M38.56,27.68v-.43a4.05,4.05,0,0,0,1.85-3.81c0-.33,0-.78-.07-1.14l8.24.74,1.86,9.68-3.38,1.69Z" fill="url(#linear-gradient-3)"/><path d="M40.89,22.85l7.27.65,1.72,8.94-2.76,1.38-8-6.33a4.72,4.72,0,0,0,1.78-4c0-.18,0-.38,0-.59m-1.1-1.1s.12,1.08.12,1.69c0,2-.9,3.17-1.85,3.48v1L47,35l4-2L49,22.57l-9.21-.82Z" fill="#787878"/><polygon points="40.42 22.07 49.86 18.93 56.44 24.19 55.59 27.57 48.92 28.87 40.42 22.07" fill="url(#linear-gradient-4)"/><path d="M49.76,19.49l6.11,4.89-.69,2.76-6.13,1.19-7.6-6.08,8.31-2.76m.2-1.12L39.79,21.75l.05.5,8.95,7.15L56,28l1-4-7-5.63Z" fill="#787878"/><polygon points="47.5 27.92 56.5 24.71 56.5 31.14 47.5 34.3 47.5 27.92" fill="url(#linear-gradient-5)"/><path d="M56,25.42v5.37l-8,2.8V28.27l8-2.85M57,24,47,27.57V35l10-3.5V24Z" fill="#787878"/><path d="M44.6,10.24c1.5,0,3.85,3.88,4.37,8.25l0,.41.33.25L56,24.48v6.31l-8.81,3.08L38.7,27.15l-.43-.34-.51.17L34.42,28.1a.52.52,0,0,1-.18,0c-1.63,0-4.46-4.85-4.46-9.82,0-2.17.59-3.36,1.14-3.55l13.5-4.5a.55.55,0,0,1,.18,0m0-1a1.57,1.57,0,0,0-.49.07L30.6,13.82c-1.09.36-1.82,2-1.82,4.49,0,4.93,2.83,10.82,5.46,10.82a1.57,1.57,0,0,0,.49-.08l3.35-1.12L47,35l10-3.5V24l-7-5.63c-.53-4.49-3-9.13-5.36-9.13Z" fill="#323232"/><path d="M40.05,56.57a2,2,0,0,1-.42,0c-.69-.18-1.13-.66-1.13-.91s.23-.18.45-.18a2,2,0,0,1,.42,0c.69.18,1.13.66,1.13.91S40.27,56.57,40.05,56.57Z" fill="url(#linear-gradient-6)"/><path d="M39,54.93c-.55,0-1,.26-1,.68s.67,1.17,1.5,1.39a2.18,2.18,0,0,0,.55.07c.55,0,1-.26,1-.68s-.67-1.17-1.5-1.39a2.18,2.18,0,0,0-.55-.07Z" fill="#323232"/><rect x="39" y="52" width="1" height="4" fill="url(#linear-gradient-7)"/><path d="M34.05,51.57a2,2,0,0,1-.42,0c-.69-.18-1.13-.66-1.13-.91s.23-.18.45-.18a2,2,0,0,1,.42,0c.69.18,1.13.66,1.13.91S34.27,51.57,34.05,51.57Z" fill="url(#linear-gradient-8)"/><path d="M33,49.93c-.55,0-1,.26-1,.68s.67,1.17,1.5,1.39a2.18,2.18,0,0,0,.55.07c.55,0,1-.26,1-.68s-.67-1.17-1.5-1.39a2.18,2.18,0,0,0-.55-.07Z" fill="#323232"/><rect x="33" y="47" width="1" height="4" fill="url(#linear-gradient-7)"/><path d="M50.05,53.57a2,2,0,0,1-.42,0c-.69-.18-1.13-.66-1.13-.91s.23-.18.45-.18a2,2,0,0,1,.42,0c.69.18,1.13.66,1.13.91S50.27,53.57,50.05,53.57Z" fill="url(#linear-gradient-10)"/><path d="M49,51.93c-.55,0-1,.26-1,.68s.67,1.17,1.5,1.39a2.18,2.18,0,0,0,.55.07c.55,0,1-.26,1-.68s-.67-1.17-1.5-1.39a2.18,2.18,0,0,0-.55-.07Z" fill="#323232"/><rect x="49" y="49" width="1" height="4" fill="url(#linear-gradient-7)"/><polygon points="29.5 41.76 29.5 39.37 41.45 35.69 40.52 48.68 39.06 49.41 29.5 41.76" fill="url(#linear-gradient-12)"/><path d="M40.9,36.39l-.86,12-.91.46L30,41.52V39.74l10.9-3.35M42,35,29,39v3l10,8,2-1,1-14Z" fill="#787878"/><polygon points="39.5 39.27 44.98 35.62 53.5 42.24 53.5 44.64 39.5 49.31 39.5 39.27" fill="url(#linear-gradient-13)"/><path d="M45,36.23l8,6.26v1.79L40,48.61V39.54l5-3.31M45,35l-6,4V50l15-5V42l-9-7Z" fill="#787878"/><polygon points="29.59 39.33 44.02 34.54 53.41 42.17 39.1 46.94 29.59 39.33" fill="url(#linear-gradient-14)"/><path d="M43.92,35.1,52.39,42,39.2,46.38l-8.58-6.86,13.3-4.42M44.13,34,29,39v.5l10,8,15-5V42l-9.87-8Z" fill="#787878"/><ellipse cx="43.5" cy="36.5" rx="0.75" ry="0.5" fill="url(#linear-gradient-15)"/><path d="M43.5,36c-.41,0-.75.22-.75.5s.34.5.75.5.75-.22.75-.5-.34-.5-.75-.5Z" fill="#323232"/><ellipse cx="49.5" cy="41.5" rx="0.75" ry="0.5" fill="url(#linear-gradient-16)"/><path d="M49.5,41c-.41,0-.75.22-.75.5s.34.5.75.5.75-.22.75-.5-.34-.5-.75-.5Z" fill="#323232"/><ellipse cx="39.5" cy="44.5" rx="0.75" ry="0.5" fill="url(#linear-gradient-17)"/><path d="M39.5,44c-.41,0-.75.22-.75.5s.34.5.75.5.75-.22.75-.5-.34-.5-.75-.5Z" fill="#323232"/><ellipse cx="33.5" cy="39.5" rx="0.75" ry="0.5" fill="url(#linear-gradient-18)"/><path d="M33.5,39c-.41,0-.75.22-.75.5s.34.5.75.5.75-.22.75-.5-.34-.5-.75-.5Z" fill="#323232"/><path d="M37.37,39.94V32.06L39,31.52a1.23,1.23,0,0,1,.35-.05,1.32,1.32,0,0,1,.81.27,5.64,5.64,0,0,1,2.31,4.61V43l-1.37.45Z" fill="url(#linear-gradient-19)"/><path d="M39.38,32a.78.78,0,0,1,.49.16A5.13,5.13,0,0,1,42,36.35v6.27l-.75.25-3.38-3.15V32.43L39.18,32a.64.64,0,0,1,.2,0m0-1a1.75,1.75,0,0,0-.51.08l-2,.65v8.46L41,44l2-.65v-7a6.14,6.14,0,0,0-2.5-5A1.82,1.82,0,0,0,39.38,31Z" fill="#787878"/><path d="M36.5,39.76V33a.77.77,0,0,1,.53-.82,1,1,0,0,1,.35-.06,1.32,1.32,0,0,1,.81.27A5.64,5.64,0,0,1,40.5,37v6Z" fill="url(#linear-gradient-20)"/><path d="M37.38,32.62a.78.78,0,0,1,.49.16A5.16,5.16,0,0,1,40,37v4.92l-3-2.4V33c0-.29.1-.32.18-.35a.64.64,0,0,1,.2,0m0-1a1.75,1.75,0,0,0-.51.08A1.25,1.25,0,0,0,36,33v7l5,4V37a6.16,6.16,0,0,0-2.5-5,1.82,1.82,0,0,0-1.12-.38Z" fill="#787878"/><path d="M39.38,32a.78.78,0,0,1,.49.16,5.36,5.36,0,0,1,1.89,2.61l.31,1,1-.32.89-.29L53,42.48v1.8l-13.8,4.6L30,41.52v-1.8l6.32-2.1L37,37.4V33c0-.29.1-.32.18-.35l2-.65a.64.64,0,0,1,.2,0h0m0-1a1.75,1.75,0,0,0-.51.08l-2,.65A1.25,1.25,0,0,0,36,33v3.67L29,39v3l10,8,15-5V42l-9.87-8-1.41.46a6.41,6.41,0,0,0-2.22-3.09A1.82,1.82,0,0,0,39.38,31Z" fill="#323232"/><path d="M38.09,34,38,34c-.28.1-.47.51-.47,1.16,0,1.27.73,2.78,1.41,2.78L39,38c.28-.1.47-.51.47-1.16C39.5,35.53,38.77,34,38.09,34Z" fill="#646464" opacity="0.5"/><path d="M26.06,22.08l.62-.23a2.54,2.54,0,0,1,.69,1.29,3.92,3.92,0,0,1,.13.92,1.1,1.1,0,0,1-.14.67l-.53.19Z" fill="url(#linear-gradient-21)"/><path d="M26.63,21.36l-.12,0-1.05.38.51,1.9.52,1.91,1.05-.38c.28-.09.46-.5.46-1.13a4.23,4.23,0,0,0-.15-1c-.24-.89-.74-1.65-1.22-1.65Z" fill="#787878"/><path d="M26.33,25.07a3.07,3.07,0,0,1-.83-2.19c0-.44.1-.63.14-.66a3.34,3.34,0,0,1,.8,2.22A1.28,1.28,0,0,1,26.33,25.07Z" fill="url(#linear-gradient-22)"/><path d="M25.58,21.74l-.12,0c-.28.09-.46.5-.46,1.12,0,1.24.71,2.71,1.37,2.71l.12,0c.27-.09.45-.5.45-1.13,0-1.23-.7-2.7-1.36-2.7Z" fill="#787878"/><path d="M26.52,22.44a2.87,2.87,0,0,1,.37.83,3.33,3.33,0,0,1,.11.79,1.65,1.65,0,0,1,0,.27l-.5.18A3.22,3.22,0,0,1,26,22.88a1.61,1.61,0,0,1,0-.26l.5-.18m.11-1.08-.12,0-1.05.38c-.28.09-.46.5-.46,1.12,0,1.24.71,2.71,1.37,2.71l.12,0,1.05-.38c.28-.09.46-.5.46-1.13a4.23,4.23,0,0,0-.15-1c-.24-.89-.74-1.65-1.22-1.65Z" fill="#323232"/><path d="M52.79,12.12,54,11.7c.32,0,1,.75,1.36,2.11a5.89,5.89,0,0,1,.2,1.46c0,.83-.23,1.18-.34,1.21l-1.09.4Z" fill="url(#linear-gradient-23)"/><path d="M53.94,12.23A3.68,3.68,0,0,1,54.82,14,4.84,4.84,0,0,1,55,15.27a1.92,1.92,0,0,1-.12.78l-.47.17-.49-1.81-.54-2,.55-.2m0-1a.52.52,0,0,0-.18,0l-1.59.57L53,14.67l.78,2.86L55.33,17c.41-.14.68-.75.68-1.69a6.22,6.22,0,0,0-.22-1.59c-.37-1.33-1.12-2.48-1.83-2.48Z" fill="#787878"/><path d="M53.55,17.06C53,17.06,52,15.23,52,13.49c0-.83.23-1.17.34-1.21h0c.57,0,1.58,1.83,1.58,3.56,0,.83-.23,1.18-.34,1.22Z" fill="url(#linear-gradient-24)"/><path d="M52.54,13a5.18,5.18,0,0,1,.88,2.84,2.29,2.29,0,0,1,0,.5,5.25,5.25,0,0,1-.88-2.85,3,3,0,0,1,0-.49m-.17-1.23a.52.52,0,0,0-.18,0c-.42.14-.69.75-.69,1.69,0,1.86,1.06,4.07,2,4.07a.58.58,0,0,0,.19,0c.41-.14.68-.75.68-1.69,0-1.85-1.06-4.07-2.05-4.07Z" fill="#787878"/><path d="M53.94,12.23A3.68,3.68,0,0,1,54.82,14,4.84,4.84,0,0,1,55,15.27a1.92,1.92,0,0,1-.12.78l-1.32.48a4.7,4.7,0,0,1-1.07-3,1.92,1.92,0,0,1,.12-.78l1.32-.48m0-1a.52.52,0,0,0-.18,0l-1.59.57c-.42.14-.69.75-.69,1.69,0,1.86,1.06,4.07,2,4.07a.58.58,0,0,0,.19,0h0L55.33,17c.41-.14.68-.75.68-1.69a6.22,6.22,0,0,0-.22-1.59c-.37-1.33-1.12-2.48-1.83-2.48Z" fill="#323232"/><path d="M9,23.34l3.49-1.21a.83.83,0,0,1,.22,0c1.55,0,3.76,4.1,3.76,7.93,0,2-.58,2.86-1.08,3L12,34.24Z" fill="url(#linear-gradient-25)"/><path d="M12.74,22.6C13.91,22.6,16,26.34,16,30c0,1.74-.5,2.47-.75,2.55l-2.93,1L11,28.69l-1.36-5,3-1.05h.06m0-1a1.21,1.21,0,0,0-.38.06L8.42,23,10,29l1.61,5.93,3.94-1.35C16.43,33.25,17,32,17,30c0-3.85-2.21-8.43-4.26-8.43Z" fill="#003755"/><line x1="9.15" y1="25.16" x2="14.76" y2="23.23" fill="none" stroke="#003755" stroke-miterlimit="10"/><line x1="9.98" y1="26.64" x2="15.59" y2="24.71" fill="none" stroke="#003755" stroke-miterlimit="10"/><line x1="10.5" y1="28.18" x2="16.11" y2="26.25" fill="none" stroke="#003755" stroke-miterlimit="10"/><line x1="10.91" y1="29.79" x2="16.52" y2="27.86" fill="none" stroke="#003755" stroke-miterlimit="10"/><line x1="11.08" y1="31.38" x2="16.69" y2="29.45" fill="none" stroke="#003755" stroke-miterlimit="10"/><line x1="11.08" y1="33.14" x2="16.69" y2="31.21" fill="none" stroke="#003755" stroke-miterlimit="10"/><path d="M11.26,34.45c-1.55,0-3.76-4.1-3.76-7.93,0-2,.58-2.86,1.08-3a.78.78,0,0,1,.22,0c1.55,0,3.76,4.1,3.76,7.92,0,2-.58,2.87-1.08,3A.78.78,0,0,1,11.26,34.45Z" fill="url(#linear-gradient-26)"/><path d="M8.8,24c1.17,0,3.26,3.74,3.26,7.42,0,1.75-.5,2.48-.74,2.56h-.06C10.09,34,8,30.2,8,26.52c0-1.74.5-2.47.74-2.55H8.8m0-1a1.21,1.21,0,0,0-.38.06C7.57,23.3,7,24.56,7,26.52,7,30.36,9.21,35,11.26,35a1,1,0,0,0,.38-.07c.85-.28,1.42-1.54,1.42-3.5,0-3.84-2.21-8.42-4.26-8.42Z" fill="#003755"/><path d="M10.4,30.42a3.14,3.14,0,0,1-.87-2.27,1.08,1.08,0,0,1,.15-.69,3.33,3.33,0,0,1,.85,2.29A1.25,1.25,0,0,1,10.4,30.42Z" fill="url(#linear-gradient-27)"/><path d="M9.62,27,9.5,27c-.28.1-.47.51-.47,1.16,0,1.27.73,2.78,1.4,2.78l.13,0c.28-.09.47-.51.47-1.16C11,28.48,10.3,27,9.62,27Z" fill="#003755"/><path d="M9.88,33.39l5.86-2a1.33,1.33,0,0,1,.45-.07c2.89,0,6.31,7,6.31,13,0,2.77-.74,4.73-1.93,5.13l-5.81,2Z" fill="url(#linear-gradient-28)"/><path d="M16.19,31.81c2.4,0,5.81,6.45,5.81,12.48,0,2.85-.8,4.39-1.6,4.66l-5.29,1.82-2.3-8.46-2.33-8.59,5.41-1.87a1,1,0,0,1,.3,0m0-1a1.77,1.77,0,0,0-.61.1L9.27,33.07l2.58,9.5,2.57,9.49,6.31-2.17c1.36-.45,2.27-2.47,2.27-5.6,0-6.15-3.53-13.48-6.81-13.48Z" fill="#003755"/><line x1="9.63" y1="34.94" x2="18.18" y2="32.11" fill="none" stroke="#003755" stroke-miterlimit="10"/><line x1="10.48" y1="36.24" x2="19.03" y2="33.41" fill="none" stroke="#003755" stroke-miterlimit="10"/><line x1="11.39" y1="37.55" x2="19.94" y2="34.72" fill="none" stroke="#003755" stroke-miterlimit="10"/><line x1="12.3" y1="38.86" x2="20.85" y2="36.03" fill="none" stroke="#003755" stroke-miterlimit="10"/><line x1="12.86" y1="40.23" x2="21.42" y2="37.4" fill="none" stroke="#003755" stroke-miterlimit="10"/><line x1="13.23" y1="41.77" x2="21.78" y2="38.94" fill="none" stroke="#003755" stroke-miterlimit="10"/><line x1="13.64" y1="43.25" x2="22.2" y2="40.42" fill="none" stroke="#003755" stroke-miterlimit="10"/><line x1="13.67" y1="44.85" x2="22.23" y2="42.02" fill="none" stroke="#003755" stroke-miterlimit="10"/><line x1="13.66" y1="46.47" x2="22.21" y2="43.64" fill="none" stroke="#003755" stroke-miterlimit="10"/><line x1="13.64" y1="48.08" x2="22.19" y2="45.25" fill="none" stroke="#003755" stroke-miterlimit="10"/><line x1="13.61" y1="49.71" x2="22.16" y2="46.88" fill="none" stroke="#003755" stroke-miterlimit="10"/><line x1="13.24" y1="51.44" x2="21.79" y2="48.61" fill="none" stroke="#003755" stroke-miterlimit="10"/><path d="M13.81,51.66c-2.89,0-6.31-7-6.31-13,0-2.77.74-4.74,1.93-5.13a1.37,1.37,0,0,1,.45-.07c2.89,0,6.31,7,6.31,13,0,2.76-.74,4.73-1.93,5.13A1.33,1.33,0,0,1,13.81,51.66Z" fill="url(#linear-gradient-29)"/><path d="M9.88,34c2.4,0,5.81,6.45,5.81,12.48,0,2.85-.79,4.39-1.58,4.65a1,1,0,0,1-.3,0C11.41,51.16,8,44.7,8,38.68c0-2.85.8-4.39,1.59-4.66a.92.92,0,0,1,.29,0m0-1a2.1,2.1,0,0,0-.61.09C7.91,33.53,7,35.55,7,38.68c0,6.15,3.53,13.48,6.81,13.48a1.77,1.77,0,0,0,.61-.1c1.37-.45,2.27-2.47,2.27-5.6C16.69,40.31,13.16,33,9.88,33Z" fill="#003755"/><path d="M12.66,46c-.85,0-2.31-2.51-2.31-5.07,0-1.12.31-1.74.59-1.83h0c.94,0,2.4,2.49,2.4,5,0,1.13-.31,1.75-.6,1.84Z" fill="url(#linear-gradient-30)"/><path d="M11.1,39.63c.54.26,1.75,2.32,1.75,4.54a2.58,2.58,0,0,1-.26,1.33c-.54-.25-1.74-2.32-1.74-4.54a2.7,2.7,0,0,1,.25-1.33m-.06-1a.75.75,0,0,0-.26,0c-.56.19-.93,1-.93,2.31,0,2.54,1.45,5.57,2.81,5.57a1.09,1.09,0,0,0,.25,0c.56-.19.94-1,.94-2.32,0-2.53-1.46-5.56-2.81-5.56Z" fill="#003755"/><path d="M11.1,39.63A2.7,2.7,0,0,0,10.85,41c0,2.22,1.2,4.29,1.74,4.54a2.58,2.58,0,0,0,.26-1.33C12.85,42,11.64,39.89,11.1,39.63Z" opacity="0.6" fill="url(#linear-gradient-31)"/><g opacity="0.5"><path d="M18,27.35a.45.45,0,0,1-.29-.1.49.49,0,0,1-.21-.4V25.79a.5.5,0,0,1,.34-.47l6-2a.45.45,0,0,1,.16,0,.51.51,0,0,1,.29.1.49.49,0,0,1,.21.4v1.08a.49.49,0,0,1-.34.47l-6,2A.45.45,0,0,1,18,27.35Z" fill="#fff"/><path d="M24,23.79v1.08l-6,2V25.79l6-2m0-1a.91.91,0,0,0-.32.06l-6,2a1,1,0,0,0-.68.95v1.06a1,1,0,0,0,.41.81,1,1,0,0,0,.9.14l6-2a1,1,0,0,0,.69-.95V23.79a1,1,0,0,0-.42-.81,1,1,0,0,0-.58-.19Z" fill="#fff"/></g><polygon points="18 26.85 18 25.79 24 23.79 24 24.87 18 26.85" fill="url(#linear-gradient-32)"/><g opacity="0.5"><path d="M49,10.5a.5.5,0,0,1-.29-.09A.52.52,0,0,1,48.5,10V8.94a.51.51,0,0,1,.34-.47l6-2a.44.44,0,0,1,.16,0,.5.5,0,0,1,.29.09A.51.51,0,0,1,55.5,7V8a.51.51,0,0,1-.34.48l-6,2Z" fill="#fff"/><path d="M55,7V8l-6,2V8.94l6-2m0-1a.89.89,0,0,0-.32,0l-6,2a1,1,0,0,0-.68.95V10a1,1,0,0,0,.41.81A1,1,0,0,0,49,11a1.06,1.06,0,0,0,.31-.05l6-2A1,1,0,0,0,56,8V7a1,1,0,0,0-.42-.81A.94.94,0,0,0,55,6Z" fill="#fff"/></g><polygon points="49 10 49 8.94 55 6.95 55 8.02 49 10" fill="url(#linear-gradient-32)"/><g opacity="0.5"><path d="M24,40.5a.5.5,0,0,1-.29-.09A.52.52,0,0,1,23.5,40V38.94a.51.51,0,0,1,.34-.47l6-2,.16,0a.5.5,0,0,1,.29.09.51.51,0,0,1,.21.41V38a.51.51,0,0,1-.34.48l-6,2A.45.45,0,0,1,24,40.5Z" fill="#fff"/><path d="M30,37V38l-6,2V38.94l6-2m0-1a.89.89,0,0,0-.32,0l-6,2a1,1,0,0,0-.68.95V40a1,1,0,0,0,.41.81A1,1,0,0,0,24,41a1.06,1.06,0,0,0,.31,0l6-2A1,1,0,0,0,31,38V37a1,1,0,0,0-.42-.81A.94.94,0,0,0,30,36Z" fill="#fff"/></g><polygon points="24 40 24 38.94 30 36.95 30 38.02 24 40" fill="url(#linear-gradient-32)"/></svg>