<?xml version="1.0" encoding="utf-8"?>
<!-- Generator: Adobe Illustrator 24.0.0, SVG Export Plug-In . SVG Version: 6.00 Build 0)  -->
<svg version="1.1" id="Layer_1" xmlns="http://www.w3.org/2000/svg" xmlns:xlink="http://www.w3.org/1999/xlink" x="0px" y="0px"
	 viewBox="0 0 64 64" style="enable-background:new 0 0 64 64;" xml:space="preserve">
<style type="text/css">
	.st0{fill:url(#SVGID_1_);stroke:#053755;stroke-linejoin:round;stroke-miterlimit:10;}
	.st1{fill:url(#SVGID_2_);stroke:#053755;stroke-linejoin:round;stroke-miterlimit:10;}
	.st2{fill:url(#SVGID_3_);stroke:#053755;stroke-linejoin:round;stroke-miterlimit:10;}
	.st3{fill:url(#SVGID_4_);stroke:#323232;stroke-linejoin:round;stroke-miterlimit:10;}
	.st4{fill:url(#SVGID_5_);stroke:#323232;stroke-linejoin:round;stroke-miterlimit:10;}
</style>
<linearGradient id="SVGID_1_" gradientUnits="userSpaceOnUse" x1="42.5963" y1="9.1764" x2="57.4037" y2="34.8236">
	<stop  offset="0" style="stop-color:#8DD7F4"/>
	<stop  offset="1" style="stop-color:#386E8C"/>
</linearGradient>
<rect x="45.5" y="7.5" class="st0" width="9" height="29"/>
<linearGradient id="SVGID_2_" gradientUnits="userSpaceOnUse" x1="6.1633" y1="27.4264" x2="21.8367" y2="54.5736">
	<stop  offset="0" style="stop-color:#8DD7F4"/>
	<stop  offset="1" style="stop-color:#386E8C"/>
</linearGradient>
<rect x="9.5" y="25.5" class="st1" width="9" height="31"/>
<linearGradient id="SVGID_3_" gradientUnits="userSpaceOnUse" x1="28.0604" y1="26.1764" x2="35.9396" y2="39.8236">
	<stop  offset="0" style="stop-color:#8DD7F4"/>
	<stop  offset="1" style="stop-color:#386E8C"/>
</linearGradient>
<rect x="27.5" y="26.5" class="st2" width="9" height="13"/>
<linearGradient id="SVGID_4_" gradientUnits="userSpaceOnUse" x1="16.9784" y1="6.0587" x2="28.1611" y2="25.4277">
	<stop  offset="0" style="stop-color:#FFFFFF"/>
	<stop  offset="1" style="stop-color:#D4D5D3"/>
</linearGradient>
<path class="st3" d="M33.5,18.5h3l-5,5l-5-5h3v-5.8c0-0.2-0.2-0.8-0.4-1c-0.2-0.2-0.7-0.2-0.9-0.2H16.8c0,0-0.7,0.1-0.9,0.3
	c-0.2,0.1-0.3,0.4-0.4,0.6v8.1h-4v-8.6c0-0.5,0.1-1.2,0.2-1.6c0.2-0.5,0.5-1.1,0.8-1.5c0.3-0.3,0.9-0.8,1.4-1
	c0.5-0.3,1.3-0.3,1.6-0.3h14.1c0.4-0.1,0.9,0.2,1.4,0.4c0.5,0.2,1,0.7,1.4,1.1c0.4,0.5,0.6,1,0.8,1.5c0.2,0.5,0.3,1,0.3,1.5V18.5z"
	/>
<linearGradient id="SVGID_5_" gradientUnits="userSpaceOnUse" x1="35.9784" y1="43.0587" x2="47.1611" y2="62.4277" gradientTransform="matrix(1 0 0 -1 0 100.9935)">
	<stop  offset="0" style="stop-color:#FFFFFF"/>
	<stop  offset="1" style="stop-color:#D4D5D3"/>
</linearGradient>
<path class="st4" d="M52.5,52.1c0,0.5-0.1,1-0.3,1.5c-0.2,0.5-0.4,1-0.8,1.5c-0.3,0.4-0.9,0.9-1.4,1.1c-0.5,0.2-1,0.5-1.4,0.4H34.5
	c-0.3,0-1.1-0.1-1.6-0.3c-0.5-0.2-1.1-0.7-1.4-1c-0.3-0.4-0.6-0.9-0.8-1.5c-0.2-0.5-0.2-1.1-0.2-1.6v-8.6h4v8.1
	c0,0.2,0.2,0.5,0.4,0.6c0.2,0.1,0.9,0.3,0.9,0.3h11.4c0.2,0,0.7,0,0.9-0.2c0.3-0.2,0.4-0.8,0.4-1v-5.8h-3l5-5l5,5h-3V52.1z"/>
</svg>
