<svg xmlns="http://www.w3.org/2000/svg" xmlns:xlink="http://www.w3.org/1999/xlink" width="64" height="64" viewBox="0 0 64 64">
  <defs>
    <linearGradient id="a" x1="16.406" y1="41.036" x2="21.19" y2="49.324" gradientUnits="userSpaceOnUse">
      <stop offset="0" stop-color="#3387af"/>
      <stop offset="1" stop-color="#285a78"/>
    </linearGradient>
    <linearGradient id="b" x1="17.653" y1="24.126" x2="33.881" y2="52.233" xlink:href="#a"/>
    <linearGradient id="c" x1="20.308" y1="10.367" x2="44.893" y2="52.949" xlink:href="#a"/>
  </defs>
  <title>16129_IFWFEED_AP_AppIcon_r21x</title>
  <g>
    <g opacity="0.5">
      <path d="M18.8,50.459a5.28,5.28,0,1,1,5.3-5.279A5.295,5.295,0,0,1,18.8,50.459Z" fill="#fff"/>
      <path d="M18.8,40.4A4.78,4.78,0,1,1,14,45.18a4.79,4.79,0,0,1,4.8-4.78m0-1a5.78,5.78,0,1,0,5.8,5.78,5.8,5.8,0,0,0-5.8-5.78Z" fill="#fff"/>
    </g>
    <g opacity="0.5">
      <path d="M30.836,50.492a.5.5,0,0,1-.5-.5,16.335,16.335,0,0,0-16.33-16.361.5.5,0,0,1-.5-.5v-6.9a.5.5,0,0,1,.5-.5A24.287,24.287,0,0,1,38.263,49.992a.5.5,0,0,1-.5.5Z" fill="#fff"/>
      <path d="M14.006,26.231A23.786,23.786,0,0,1,37.763,49.992H30.836a16.836,16.836,0,0,0-16.83-16.861v-6.9m0-1a1,1,0,0,0-1,1v6.9a1,1,0,0,0,1,1,15.835,15.835,0,0,1,15.83,15.861,1,1,0,0,0,1,1h6.927a1,1,0,0,0,1-1A24.787,24.787,0,0,0,14.006,25.231Z" fill="#fff"/>
    </g>
    <g opacity="0.5">
      <path d="M43.074,50.5a.5.5,0,0,1-.5-.5A28.612,28.612,0,0,0,14.016,21.4a.5.5,0,0,1-.5-.5V14a.5.5,0,0,1,.5-.5A36.533,36.533,0,0,1,50.5,50a.5.5,0,0,1-.5.5Z" fill="#fff"/>
      <path d="M14.016,14A36.033,36.033,0,0,1,50,50H43.074A29.113,29.113,0,0,0,14.016,20.9V14m0-1a1,1,0,0,0-1,1v6.9a1,1,0,0,0,1,1A28.111,28.111,0,0,1,42.074,50a1,1,0,0,0,1,1H50a1,1,0,0,0,1-1A37.034,37.034,0,0,0,14.016,13Z" fill="#fff"/>
    </g>
  </g>
  <g>
    <path d="M23.6,45.18a4.8,4.8,0,1,1-4.8-4.78A4.788,4.788,0,0,1,23.6,45.18Z" fill="url(#a)"/>
    <path d="M14.006,33.131a16.836,16.836,0,0,1,16.83,16.861h6.927A23.786,23.786,0,0,0,14.006,26.231Z" fill="url(#b)"/>
    <path d="M14.016,20.9A29.113,29.113,0,0,1,43.074,50H50A36.033,36.033,0,0,0,14.016,14Z" fill="url(#c)"/>
  </g>
</svg>
