<svg xmlns="http://www.w3.org/2000/svg" xmlns:xlink="http://www.w3.org/1999/xlink" width="64" height="64" viewBox="0 0 64 64">
  <defs>
    <radialGradient id="a" cx="32.375" cy="27.25" r="21.5" gradientUnits="userSpaceOnUse">
      <stop offset="0" stop-color="#fff"/>
      <stop offset="1" stop-color="#d4d5d3"/>
    </radialGradient>
    <radialGradient id="b" cx="31.833" cy="26.167" r="23.672" gradientUnits="userSpaceOnUse">
      <stop offset="0" stop-color="#8dd7f4"/>
      <stop offset="1" stop-color="#386e8c"/>
    </radialGradient>
  </defs>
  <title>16131_GlobeViewer_r21x</title>
  <path d="M10.5,32.026A21.5,21.5,0,1,1,31.974,53.5,21.563,21.563,0,0,1,10.5,32.026Z" stroke="#323232" stroke-linejoin="round" fill="url(#a)"/>
  <g>
    <path d="M15.081,23.286a15.549,15.549,0,0,1,1.482-2.175,1.284,1.284,0,0,1,.522-.433,22.4,22.4,0,0,0,4.561-2.306,2.651,2.651,0,0,1,1.666-.46c.616.024.877-.219.97-.841.03-.194.581-.6.634-.476s.055.328.136.365a4.36,4.36,0,0,0,1,.333.6.6,0,0,0,.452-.23c.052-.064-.056-.274-.111-.408a1.454,1.454,0,0,0-.211-.263h.447c1.076,0,1.024-1.583-.348-1.73-.122-.21-.205-.356-.335-.577-.007.041,0-.025.018-.088A2.94,2.94,0,0,1,27.1,12.515c.468-.375.466-.576.01-.967-.087-.074-.185-.133-.306-.221-.12.157-.223.289-.325.423q-.582.773-1.166,1.547a.738.738,0,0,1-.709.316c-.463-.037-.931-.009-1.444-.009l1-1.18c-1.408-.093-1.184-.006-2.347.66-.479.275-1.187.675-1.642.987a21.954,21.954,0,0,0-9.02,12.548c-.076.258-.124.473.18.671.726.473.723.55.224,1.267a1.422,1.422,0,0,1-.14.191,3.716,3.716,0,0,0-.916,2.726,21.432,21.432,0,0,0,4.66,13.911c.618.8.735,1.026,1.653.565a.674.674,0,0,0,.086-.091c-.072-.137-.137-.265-.206-.391-.458-.845-.925-1.688-1.37-2.541a.732.732,0,0,1-.083-.517,11.685,11.685,0,0,1,2.114-3.592.956.956,0,0,1,1.106-.264c.7.221.979.095,1.241-.595.237-.627.435-1.27.642-1.912a1.552,1.552,0,0,1,1.035-1.19,1.3,1.3,0,0,0,.341-.2c.66-.445.718-1.015.091-1.5a15.8,15.8,0,0,0-1.9-1.269.9.9,0,0,1-.537-1.056.407.407,0,0,0-.278-.514,42.065,42.065,0,0,0-6.235-2.52c-.546-.167-.74-.45-.433-.922a1.85,1.85,0,0,0,.207-1.521.659.659,0,0,1,.009-.276,6.034,6.034,0,0,1,.94-2.289,1.741,1.741,0,0,1,.45-.431.393.393,0,0,1,.359-.024.4.4,0,0,1,.084.347,1.591,1.591,0,0,1-.855,1.287,2.34,2.34,0,0,0-.331.218c.3.311.584.6.862.893.219.232.423.232.621-.026.077-.1.158-.2.259-.329-.339-.236-.654-.454-.971-.676C14.4,23.756,14.841,23.769,15.081,23.286Z" stroke="#053755" stroke-linejoin="round" fill="url(#b)"/>
    <path d="M51.656,39.25c-.578.2-.375-.437-.843,1.063-.078.247-.907-.125-1.313.5-.3.459-.716,2.651-.187,2.781-.056.486.165.667.433.406a11.852,11.852,0,0,0,1.787-3c.489-1.235.731-1.79,1.176-3.189C52.811,37.484,52.065,39.108,51.656,39.25Z" stroke="#053755" stroke-linejoin="round" fill="url(#b)"/>
    <path d="M35.847,52.324a1.418,1.418,0,0,0-1.052-.378c-.172.155-.283.343-.4.344a6.645,6.645,0,0,1-.946-.111l-.123-.5a1.588,1.588,0,0,0-1.284.242,1.29,1.29,0,0,1-.959.264c-.236-.018-.472-.006-.709,0s-.448.035-.517-.28c-.015-.065-.182-.125-.285-.138-.638-.078-1.279-.132-1.917-.214a.687.687,0,0,0-.705.214.383.383,0,0,1-.3.109c-.8-.1-.857-.157-1.016-.926,0-.014,0-.032-.006-.039-.082-.081-.16-.214-.251-.225a.464.464,0,0,0-.352.127,1.649,1.649,0,0,0-.273.479.493.493,0,0,1-.606.35,8.349,8.349,0,0,0-1.015-.035,21.824,21.824,0,0,0,15.01,1c-.545-.047-1.333-.073-1.878-.13A.685.685,0,0,1,35.847,52.324Z" stroke="#053755" stroke-linejoin="round" fill="url(#b)"/>
    <path d="M28.222,13.6c1.175-.792,2.34-1.6,3.5-2.409a4.633,4.633,0,0,0,.441-.412c-.609-.047-1.094-.059-1.57-.128a1.6,1.6,0,0,0-1.357.381,19.12,19.12,0,0,0-1.561,1.609.954.954,0,0,0-.105.669C27.636,13.758,27.85,13.854,28.222,13.6Z" stroke="#053755" stroke-linejoin="round" fill="url(#b)"/>
    <path d="M41.022,39.034c.166.169.387.105.568-.082a13.67,13.67,0,0,0,1-1.108c.464-.6.891-1.221,1.352-1.857A4.931,4.931,0,0,0,41.022,39.034Z" stroke="#053755" stroke-linejoin="round" fill="url(#b)"/>
    <path d="M30.031,16.156H31.5c.028-.353-.372-1.36-.344-1.715-.4.033-.139.279-.5.309C31.169,16.059,29.984,15.855,30.031,16.156Z" stroke="#053755" stroke-linejoin="round" fill="url(#b)"/>
    <path d="M35.265,11.186c-.7-.247-1.6-.431-2.265-.664.13.4.556.711.679,1.085C34.2,11.467,34.68,11.341,35.265,11.186Z" stroke="#053755" stroke-linejoin="round" fill="url(#b)"/>
    <path d="M53.038,27.4A21.7,21.7,0,0,0,38.259,11.433c-1.334-.369-2.467-.791-4.04.174-.837.664-.813,1.924-1.063,2.581,1.657.937,2.109-2,2.938-1.282-.286.068.215,1.567.062,1.719a9.547,9.547,0,0,1-2.023,1.031c-1.1.516.1-1.3-.977-.718a.886.886,0,0,0-.406.718c.1.429-1.529.7-1.437,1.125-.575.223-1.634-.16-1.188.407.276.35.346.109.563.5a1.784,1.784,0,0,1,0,1.406c-.381.1-1.814-.417-1.969-.219a4.4,4.4,0,0,0-.469,1.3c-.012.085-.165.923-.275,1.283l.8-.067c.66-.19,1.784-.393,1.784-.393l.968-1.719s.219.313,1.032.313,1.125,1.344,1.125,1.344l.875-.563-.548-1.243a6.824,6.824,0,0,1,1.2.776c.157.219.878,1.03.878,1.03l.562-1.282a9.21,9.21,0,0,1,0-1.656c.094-.562.563-.312,1.5-.219a3.273,3.273,0,0,1,1.746.969,3.176,3.176,0,0,1-1.621.031,1.332,1.332,0,0,0-1.375.5l-.031.875a6.231,6.231,0,0,0,1.156-.062,2.493,2.493,0,0,1,2.188,1.25,6.692,6.692,0,0,1-.317,2.375,42.49,42.49,0,0,1-4.714-.28c-.782-.219-.969-1.606-1.469-1.564s-3.531.063-3.531.063l-1.427-.017c-1.044.684,0,0-1.024.716a14.612,14.612,0,0,0-1.355,2.949c-.188.4.015.976.013,1.473a.976.976,0,0,0,.313.732c.869.9.857,1.481,1.736,2.372a.887.887,0,0,0,.572.243c1.291.006,3.068.6,4.3.094.108.457.134,2.187.289,2.888.013.065.363,2.609.418,3.386a1.962,1.962,0,0,0,.192.706c.372.757.8,1.487,1.148,2.255a5.5,5.5,0,0,1,.34,1.322c.043.254.152.362.378.348a12.087,12.087,0,0,0,1.642-.149c.609-.125.585-.7.874-1.282.37-.741.742-1.349,1.095-2.1.293-.62.363-1.3.993-1.584a5.407,5.407,0,0,0,1.193-.683,1.806,1.806,0,0,0,.57-.852,3.9,3.9,0,0,1,.868-1.725c.875-.933.687-1.618,1.564-2.547.059-.064.539-1.126.229-1.063-.565.114-.746.142-1.312.25-.281.055-.679-.335-.792-.583-.341-.758-.848-1.315-1.208-2.063-.177-.365-.317-.928-.533-1.271-.347-.547-.405-.838-.761-1.379.272.211,1.088-.141,1.273.129a38.913,38.913,0,0,1,2.178,3.48c.42.767.641.82,1.155.479.3-.2,2.108.175,2.394-.057.076-.063-.261-1.682-.176-1.747a5.992,5.992,0,0,0-2.949-3.409c-.156-.781,1.065.135,1.219.094,1.406.344,1.969,1.841,1.969,1.625.189,0,.956,3.181,1.232,3.181a8.5,8.5,0,0,1-.193,1.328c-.258.827-.2,1.145.437,1.535a4.486,4.486,0,0,1,2.25-1.784,4.463,4.463,0,0,1,.244.455,1.448,1.448,0,0,1-.229,1.652,1.946,1.946,0,0,0-.623,1.175c-.05.319-.068,1.742.817.906a1.092,1.092,0,0,0,.2-.194.974.974,0,0,0,.162-.376,13.79,13.79,0,0,0,.087-1.464,1.678,1.678,0,0,1,.666-1.246c.22,1.055.42,2.019.622,2.981a2.794,2.794,0,0,0,.266-1.073A17.449,17.449,0,0,0,53.038,27.4Z" stroke="#053755" stroke-linejoin="round" fill="url(#b)"/>
  </g>
</svg>
