<svg xmlns="http://www.w3.org/2000/svg" xmlns:xlink="http://www.w3.org/1999/xlink" width="64" height="64" viewBox="0 0 64 64">
  <defs>
    <linearGradient id="a" x1="25.084" y1="18.235" x2="41.95" y2="47.448" gradientUnits="userSpaceOnUse">
      <stop offset="0" stop-color="#d7d7d7"/>
      <stop offset="1" stop-color="#969696"/>
    </linearGradient>
    <linearGradient id="b" x1="38.306" y1="9.014" x2="56.056" y2="39.758" gradientUnits="userSpaceOnUse">
      <stop offset="0" stop-color="#aaa"/>
      <stop offset="1" stop-color="#5a5a5a"/>
    </linearGradient>
    <linearGradient id="c" x1="17.543" y1="9.927" x2="30.623" y2="32.583" xlink:href="#a"/>
    <linearGradient id="d" x1="37" y1="13" x2="42" y2="13" gradientUnits="userSpaceOnUse">
      <stop offset="0" stop-color="#464646"/>
      <stop offset="1" stop-color="#141414"/>
    </linearGradient>
    <linearGradient id="e" x1="32.638" y1="35.569" x2="31.7" y2="41.35" gradientUnits="userSpaceOnUse">
      <stop offset="0" stop-opacity="0"/>
      <stop offset="1"/>
    </linearGradient>
    <linearGradient id="f" x1="27.293" y1="27.575" x2="35.524" y2="41.832" gradientUnits="userSpaceOnUse">
      <stop offset="0" stop-color="#82bedc"/>
      <stop offset="1" stop-color="#285a78"/>
    </linearGradient>
    <linearGradient id="g" x1="31.874" y1="24.81" x2="39.458" y2="37.946" gradientUnits="userSpaceOnUse">
      <stop offset="0" stop-color="#a0e1fa"/>
      <stop offset="1" stop-color="#73c3e1"/>
    </linearGradient>
    <linearGradient id="h" x1="34.095" y1="31.451" x2="39.711" y2="41.179" gradientUnits="userSpaceOnUse">
      <stop offset="0" stop-color="#8cd7f5"/>
      <stop offset="1" stop-color="#376e8c"/>
    </linearGradient>
    <linearGradient id="i" x1="32.5" y1="18.954" x2="42.5" y2="18.954" gradientUnits="userSpaceOnUse">
      <stop offset="0" stop-color="#8cd7f5"/>
      <stop offset="0.657" stop-color="#376e8c"/>
      <stop offset="1" stop-color="#8cd7f5"/>
    </linearGradient>
    <linearGradient id="j" x1="11" y1="17" x2="34" y2="17" xlink:href="#d"/>
    <linearGradient id="k" x1="5.104" y1="14.883" x2="26.901" y2="52.637" gradientUnits="userSpaceOnUse">
      <stop offset="0" stop-color="#f5f5f5"/>
      <stop offset="1" stop-color="#bebebe"/>
    </linearGradient>
    <linearGradient id="l" x1="25.535" y1="3.074" x2="39.336" y2="26.978" gradientUnits="userSpaceOnUse">
      <stop offset="0" stop-color="#fff"/>
      <stop offset="1" stop-color="#f0f0f0"/>
    </linearGradient>
    <linearGradient id="m" x1="29.187" y1="18.963" x2="46.919" y2="49.676" gradientUnits="userSpaceOnUse">
      <stop offset="0" stop-color="#fff"/>
      <stop offset="1" stop-color="#d2d2d2"/>
    </linearGradient>
    <linearGradient id="n" x1="24.5" y1="48.134" x2="25.5" y2="49.866" gradientUnits="userSpaceOnUse">
      <stop offset="0" stop-color="#3287af"/>
      <stop offset="1" stop-color="#285a78"/>
    </linearGradient>
    <linearGradient id="o" x1="27.5" y1="47.134" x2="28.5" y2="48.866" xlink:href="#n"/>
    <linearGradient id="p" x1="35.333" y1="9.979" x2="37.667" y2="14.021" gradientUnits="userSpaceOnUse">
      <stop offset="0" stop-color="#a0e1fa"/>
      <stop offset="0.356" stop-color="#9ddff8"/>
      <stop offset="0.611" stop-color="#94d9f3"/>
      <stop offset="0.834" stop-color="#84ceeb"/>
      <stop offset="1" stop-color="#73c3e1"/>
    </linearGradient>
  </defs>
  <title>4850_3DPrint_AP_AppIcon_r21x</title>
  <g>
    <g>
      <g>
        <polygon points="12.5 36.815 12.5 25.5 52.59 25.5 55.424 39.669 24.159 50.417 12.5 36.815" fill="url(#a)"/>
        <path d="M52.18,26l2.668,13.339-30.531,10.5L13,36.63V26H52.18M53,25H12V37L24,51,56,40,53,25Z" fill="#787878"/>
      </g>
      <g>
        <polygon points="36.484 27.718 35.515 11.239 39.066 8.575 54.596 15.369 55.5 18.081 55.5 40.079 36.484 27.718" fill="url(#b)"/>
        <path d="M39.133,9.15l15.059,6.588L55,18.162V39.157L36.969,27.437,36.03,11.478l3.1-2.328M39,8l-4,3,1,17L56,41V18l-1-3L39,8Z" fill="#787878"/>
      </g>
      <g>
        <polygon points="11.5 13.416 37.5 8.601 37.5 28.613 11.5 35.354 11.5 13.416" fill="url(#c)"/>
        <path d="M37,9.2V28.226L12,34.708V13.832L37,9.2M38,8,11,13V36l27-7V8Z" fill="#787878"/>
      </g>
    </g>
    <polygon points="37 14 42 13 42 12 37 13 37 14" fill="url(#d)"/>
    <polygon points="22 38 33 44 42 41 38 34 27 33 22 38" opacity="0.3" fill="url(#e)"/>
    <g>
      <g>
        <polygon points="26.5 38.28 26.5 28.032 33.748 28.485 37.5 33.176 37.5 40.691 32.084 43.398 26.5 38.28" fill="url(#f)"/>
        <path d="M27,28.564l6.5.406L37,33.351v7.031L32.168,42.8,27,38.06v-9.5M26,27.5v11L32,44l6-3V33l-4-5-8-.5Z" fill="#003755"/>
      </g>
      <g>
        <polygon points="36.38 35.689 26.611 27.849 34.933 25.538 41.467 29.271 40.574 37.301 36.38 35.689" fill="url(#g)"/>
        <path d="M34.866,26.075l6.068,3.467-.785,7.06L36.632,35.25l-8.947-7.18,7.181-2M35,25l-9,2.5V28l10.128,8.128L41,38l1-9-7-4Z" fill="#003755"/>
      </g>
      <g>
        <polygon points="32.5 32.372 41.5 29.672 41.5 40.146 32.5 43.295 32.5 32.372" fill="url(#h)"/>
        <path d="M41,30.344v9.447l-8,2.8V32.744l8-2.4M42,29,32,32V44l10-3.5V29Z" fill="#003755"/>
      </g>
    </g>
    <path d="M36,23v5c0,2.563-4,4-4,4" fill="none" stroke="#003755" stroke-miterlimit="10" stroke-width="2"/>
    <g>
      <path d="M36.5,25.407a.8.8,0,0,1-.609-.219L32.5,20.829V12.5h8v8.329l-3.4,4.364A.807.807,0,0,1,36.5,25.407Z" fill="url(#i)"/>
      <path d="M40,13v7.657l-3.263,4.2a.467.467,0,0,1-.237.051,1.287,1.287,0,0,1-.206-.024l0,0L33,20.657V13h7m1-1H32v9l3.5,4.5a1.432,1.432,0,0,0,2,0L41,21V12Z" fill="#003755"/>
    </g>
    <rect x="35" y="12" width="1" height="10" fill="#fff" opacity="0.3"/>
    <polygon points="11 20 34 15 34 14 11 19 11 20" fill="url(#j)"/>
    <g>
      <g>
        <polygon points="7.5 40.813 7.5 13.5 10.819 13.5 22.5 23.234 22.5 52.882 20.886 56.11 7.5 40.813" fill="url(#k)"/>
        <path d="M10.638,14,22,23.468v29.3l-1.228,2.457L8,40.624V14h2.638M11,13H7V41L21,57l2-4V23L11,13Z" fill="#787878"/>
      </g>
      <g>
        <path d="M7.682,13.381,38.939,7.52l17.443,7.752-.77,2.31L24.107,25.458Zm5.519.854,10.2,6.8L50.54,15.179l-11.972-5.7Z" fill="url(#l)"/>
        <path d="M38.878,8.04l16.886,7.505-.539,1.618L24.214,24.916,8.906,13.66,38.878,8.04M23.3,21.567l.414-.089,25.5-5.5,2.868-.619L49.43,14.1l-10.5-5-.294-.14-.32.06-24,4.5L11.9,13.97l2.043,1.362,9,6,.352.235M39,7,7,13v.5L24,26l32-8,1-3L39,7ZM23.5,20.5l-9-6,24-4.5L49,15,23.5,20.5Z" fill="#787878"/>
      </g>
      <g>
        <path d="M21.5,23.4l35-7.777V44.145L21.5,56.3Zm8.959,20.042a1.688,1.688,0,0,1,.935.314l2.521,1.8L54.5,38.863V18.37L23.5,25.6V45.141l6.621-1.656A1.4,1.4,0,0,1,30.459,43.443Z" fill="url(#m)"/>
        <path d="M56,16.247V43.789L22,55.594V23.8l34-7.555M23,45.781l1.243-.311,6-1.5a.888.888,0,0,1,.216-.027,1.164,1.164,0,0,1,.632.213l2.329,1.658.41.293.479-.156,20-6.5L55,39.226V17.74l-1.227.286-30,7-.773.18V45.781M57,15,21,23V57L57,44.5V15ZM24,44.5V26l30-7V38.5L34,45l-2.329-1.659a2.179,2.179,0,0,0-1.212-.4A1.873,1.873,0,0,0,30,43l-6,1.5Z" fill="#787878"/>
      </g>
      <g>
        <circle cx="25" cy="49" r="1" fill="url(#n)"/>
        <circle cx="28" cy="48" r="1" fill="url(#o)"/>
        <circle cx="31" cy="47" r="1" fill="#646464" opacity="0.5"/>
      </g>
    </g>
    <path d="M38.878,8.04,56,15.65V43.789L21.309,55.834,8,40.624V13.83L38.878,8.04M23.3,21.567l.414-.089,25.5-5.5,2.868-.619L49.43,14.1l-10.5-5-.294-.14-.32.06-24,4.5L11.9,13.97l2.043,1.362,9,6,.352.235M23,45.781l1.243-.311,6-1.5a.894.894,0,0,1,.216-.027,1.164,1.164,0,0,1,.632.213l2.329,1.658.41.293.479-.156,20-6.5L55,39.226V17.74l-1.227.286-30,7-.773.18V45.781M39,7,7,13V41L21,57,57,44.5V15L39,7ZM23.5,20.5l-9-6,24-4.5L49,15,23.5,20.5Zm.5,24V26l30-7V38.5L34,45l-2.329-1.659a2.179,2.179,0,0,0-1.212-.4A1.873,1.873,0,0,0,30,43l-6,1.5Z" fill="#323232"/>
    <path d="M35,11S27.13,7,22.727,7c-1.709,0-2.9.578-2.9,2.265a5.3,5.3,0,0,0,.19,1.316" fill="none" stroke="#003755" stroke-miterlimit="10" stroke-width="2"/>
    <g>
      <ellipse cx="36.5" cy="12" rx="4" ry="1.5" fill="url(#p)"/>
      <path d="M36.5,11c2.2,0,3.411.74,3.5.979C39.911,12.26,38.7,13,36.5,13s-3.411-.74-3.5-.979C33.089,11.74,34.3,11,36.5,11m0-1c-2.485,0-4.5.895-4.5,2s2.015,2,4.5,2,4.5-.895,4.5-2-2.015-2-4.5-2Z" fill="#003755"/>
    </g>
  </g>
</svg>
