<svg xmlns="http://www.w3.org/2000/svg" xmlns:xlink="http://www.w3.org/1999/xlink" width="64" height="64" viewBox="0 0 64 64">
  <defs>
    <linearGradient id="a" x1="14.17" y1="13.181" x2="49.767" y2="50.154" gradientUnits="userSpaceOnUse">
      <stop offset="0" stop-color="#3387af"/>
      <stop offset="1" stop-color="#285a78"/>
    </linearGradient>
    <linearGradient id="b" x1="13.871" y1="13.469" x2="49.468" y2="50.442" xlink:href="#a"/>
  </defs>
  <title>16127_IFWLINK_AP_AppIcon_r21x</title>
  <g opacity="0.5">
    <g opacity="0.5">
      <path d="M43.445,54.5a10.983,10.983,0,0,1-7.818-3.239L28.164,43.8a.5.5,0,0,1,.353-.854.444.444,0,0,1,.063,0,15.224,15.224,0,0,0,1.893.119,12.636,12.636,0,0,0,6.256-1.55.5.5,0,0,1,.6.081l3.981,3.981a3.018,3.018,0,0,0,4.268-4.268l-9.952-9.953a3.047,3.047,0,0,0-4.268,0,1.2,1.2,0,0,1-1.7,0L25.2,26.905a.5.5,0,0,1-.021-.684l.092-.106c.131-.15.261-.3.4-.441s.283-.266.429-.393l.114-.1a11.022,11.022,0,0,1,2.517-1.658,11.151,11.151,0,0,1,4.775-1.079,10.975,10.975,0,0,1,6.079,1.825,11.146,11.146,0,0,1,1.72,1.406l9.952,9.952A11.057,11.057,0,0,1,43.445,54.5Z" fill="#fff"/>
      <path d="M33.511,22.944a10.516,10.516,0,0,1,7.446,3.084l9.952,9.952A10.556,10.556,0,1,1,35.981,50.908l-7.464-7.463a15.643,15.643,0,0,0,1.955.123,13.155,13.155,0,0,0,6.5-1.616l3.981,3.98a3.518,3.518,0,1,0,4.976-4.975l-9.952-9.952a3.485,3.485,0,0,0-2-.984,3.643,3.643,0,0,0-.5-.035,3.475,3.475,0,0,0-2.473,1.019.709.709,0,0,1-1,0l-4.453-4.454c.155-.176.3-.355.474-.523s.346-.318.521-.472a10.451,10.451,0,0,1,2.4-1.581,10.579,10.579,0,0,1,4.559-1.031m0-1a11.642,11.642,0,0,0-4.99,1.129A11.463,11.463,0,0,0,25.893,24.8l-.109.1c-.157.136-.314.274-.462.423s-.285.3-.422.461l-.094.107a1,1,0,0,0,.043,1.368L29.3,31.712a1.707,1.707,0,0,0,2.409,0,2.481,2.481,0,0,1,1.768-.727,2.741,2.741,0,0,1,.362.025,2.491,2.491,0,0,1,1.432.7l9.953,9.953a2.518,2.518,0,0,1-3.562,3.561l-3.981-3.981a1,1,0,0,0-1.2-.161,12.139,12.139,0,0,1-6.009,1.485,14.789,14.789,0,0,1-1.83-.115.884.884,0,0,0-.125-.008,1,1,0,0,0-.707,1.707l7.463,7.463A11.556,11.556,0,0,0,51.616,35.273l-9.952-9.952a11.7,11.7,0,0,0-1.8-1.469,11.475,11.475,0,0,0-6.356-1.908Z" fill="#fff"/>
    </g>
    <g opacity="0.5">
      <path d="M30.49,41.555a11.014,11.014,0,0,1-7.8-3.231l-9.951-9.951A11.056,11.056,0,0,1,28.373,12.738L35.836,20.2a.5.5,0,0,1-.354.853.44.44,0,0,1-.062,0,15.224,15.224,0,0,0-1.893-.119,12.638,12.638,0,0,0-6.256,1.55.5.5,0,0,1-.6-.081l-3.98-3.98a3.019,3.019,0,0,0-4.269,4.269l9.952,9.952a2.981,2.981,0,0,0,1.717.841,3.086,3.086,0,0,0,.43.03,2.98,2.98,0,0,0,2.122-.871,1.2,1.2,0,0,1,1.7,0L38.8,37.1a.5.5,0,0,1,.022.683l-.086.1c-.131.151-.264.3-.408.447s-.32.3-.484.441a11.02,11.02,0,0,1-7.352,2.791Z" fill="#fff"/>
      <path d="M20.556,10a10.521,10.521,0,0,1,7.463,3.091l7.464,7.464a15.659,15.659,0,0,0-1.956-.123,13.151,13.151,0,0,0-6.5,1.616l-3.981-3.981a3.518,3.518,0,0,0-4.975,4.976l9.951,9.952a3.488,3.488,0,0,0,2,.984,3.613,3.613,0,0,0,.5.034A3.485,3.485,0,0,0,33,32.995a.7.7,0,0,1,.995,0l4.453,4.453c-.155.177-.3.355-.473.523s-.346.319-.522.473a10.564,10.564,0,0,1-12.763.87,10.644,10.644,0,0,1-1.643-1.343l-9.951-9.952A10.555,10.555,0,0,1,20.556,10m0-1a11.555,11.555,0,0,0-8.171,19.726l9.951,9.952a11.625,11.625,0,0,0,1.8,1.469,11.47,11.47,0,0,0,6.356,1.908,11.673,11.673,0,0,0,4.991-1.127A11.556,11.556,0,0,0,38.108,39.2l.076-.066c.168-.146.335-.292.5-.452s.291-.312.43-.471l.086-.1a1,1,0,0,0-.044-1.367L34.7,32.288a1.7,1.7,0,0,0-2.409,0,2.482,2.482,0,0,1-1.77.726,2.577,2.577,0,0,1-.361-.025,2.479,2.479,0,0,1-1.431-.7l-9.952-9.952a2.518,2.518,0,0,1,3.561-3.562l3.981,3.981a1,1,0,0,0,1.2.162,12.138,12.138,0,0,1,6.008-1.485,14.627,14.627,0,0,1,1.831.116,1.059,1.059,0,0,0,.125.007,1,1,0,0,0,.707-1.707l-7.463-7.464A11.483,11.483,0,0,0,20.556,9Z" fill="#fff"/>
    </g>
  </g>
  <g>
    <path d="M50.909,35.98l-9.952-9.952a10.534,10.534,0,0,0-12-2.053,10.451,10.451,0,0,0-2.4,1.581c-.175.154-.354.3-.521.472s-.319.347-.474.523l4.453,4.454a.707.707,0,0,0,1,0,3.55,3.55,0,0,1,4.975,0l9.952,9.952a3.518,3.518,0,1,1-4.976,4.975l-3.981-3.98a13.766,13.766,0,0,1-8.459,1.493l7.464,7.463A10.556,10.556,0,0,0,50.909,35.98Z" fill="url(#a)"/>
    <path d="M35.05,40.025a10.516,10.516,0,0,0,2.4-1.581c.176-.154.354-.3.522-.473s.318-.346.473-.523l-4.453-4.453a.7.7,0,0,0-.995,0,3.552,3.552,0,0,1-4.977,0l-9.951-9.952a3.518,3.518,0,0,1,4.975-4.976l3.981,3.981a13.76,13.76,0,0,1,8.459-1.493l-7.464-7.464A10.555,10.555,0,0,0,13.092,28.019l9.951,9.952A10.53,10.53,0,0,0,35.05,40.025Z" fill="url(#b)"/>
  </g>
</svg>
