<svg xmlns="http://www.w3.org/2000/svg" xmlns:xlink="http://www.w3.org/1999/xlink" width="64" height="64" viewBox="0 0 64 64">
  <defs>
    <linearGradient id="a" x1="30.087" y1="4.331" x2="49.913" y2="38.669" gradientUnits="userSpaceOnUse">
      <stop offset="0" stop-color="#d7d7d7"/>
      <stop offset="1" stop-color="#969696"/>
    </linearGradient>
    <linearGradient id="b" x1="28.48" y1="12.046" x2="43.5" y2="38.062" xlink:href="#a"/>
    <radialGradient id="c" cx="35.875" cy="23.75" r="20.044" gradientTransform="translate(0 4.791) scale(1 0.798)" gradientUnits="userSpaceOnUse">
      <stop offset="0.23"/>
      <stop offset="1" stop-opacity="0"/>
    </radialGradient>
    <linearGradient id="d" x1="22.087" y1="10.331" x2="41.913" y2="44.669" xlink:href="#a"/>
    <linearGradient id="e" x1="20.48" y1="18.046" x2="35.5" y2="44.062" xlink:href="#a"/>
    <radialGradient id="f" cx="27.875" cy="29.75" r="20.044" gradientTransform="translate(0 6.002) scale(1 0.798)" xlink:href="#c"/>
    <linearGradient id="g" x1="14.102" y1="17.355" x2="33.898" y2="51.644" gradientUnits="userSpaceOnUse">
      <stop offset="0" stop-color="#8cd7f5"/>
      <stop offset="1" stop-color="#376e8c"/>
    </linearGradient>
    <linearGradient id="h" x1="12.48" y1="25.046" x2="27.5" y2="51.062" xlink:href="#g"/>
    <linearGradient id="i" x1="30.998" y1="44" x2="56.998" y2="44" gradientUnits="userSpaceOnUse">
      <stop offset="0" stop-color="#464646"/>
      <stop offset="1" stop-color="#141414"/>
    </linearGradient>
  </defs>
  <title>3283_X3DMELI_AP_r21x</title>
  <g>
    <g>
      <rect x="23.5" y="7.5" width="33" height="28" rx="1.5" fill="url(#a)"/>
      <path d="M55,8a1,1,0,0,1,1,1V34a1,1,0,0,1-1,1H25a1,1,0,0,1-1-1V9a1,1,0,0,1,1-1H55m0-1H25a2,2,0,0,0-2,2V34a2,2,0,0,0,2,2H55a2,2,0,0,0,2-2V9a2,2,0,0,0-2-2Z" fill="#787878"/>
    </g>
    <path d="M55,34H25V9H55Z" fill="#fff"/>
    <g>
      <path d="M27.425,31.5l13.5-10.8L44.9,25.67l2.965-1.977,5.2,7.807Zm4.075-12a4,4,0,1,1,4-4A4,4,0,0,1,31.5,19.5Z" fill="url(#b)"/>
      <path d="M31.5,12A3.5,3.5,0,1,1,28,15.5,3.5,3.5,0,0,1,31.5,12m9.344,9.406,3.375,4.219.573.716.763-.509,2.168-1.445L52.131,31H28.851l11.993-9.594M31.5,11A4.5,4.5,0,1,0,36,15.5,4.5,4.5,0,0,0,31.5,11ZM41,20,26,32H54l-6-9-3,2-4-5Z" fill="#787878"/>
    </g>
    <rect x="24" y="8" width="32" height="27" opacity="0.5" fill="url(#c)"/>
  </g>
  <g>
    <g>
      <rect x="15.5" y="13.5" width="33" height="28" rx="1.5" fill="url(#d)"/>
      <path d="M47,14a1,1,0,0,1,1,1V40a1,1,0,0,1-1,1H17a1,1,0,0,1-1-1V15a1,1,0,0,1,1-1H47m0-1H17a2,2,0,0,0-2,2V40a2,2,0,0,0,2,2H47a2,2,0,0,0,2-2V15a2,2,0,0,0-2-2Z" fill="#787878"/>
    </g>
    <path d="M47,40H17V15H47Z" fill="#fff"/>
    <g>
      <path d="M19.425,37.5l13.5-10.8L36.9,31.67l2.965-1.977,5.2,7.807Zm4.075-12a4,4,0,1,1,4-4A4,4,0,0,1,23.5,25.5Z" fill="url(#e)"/>
      <path d="M23.5,18A3.5,3.5,0,1,1,20,21.5,3.5,3.5,0,0,1,23.5,18m9.344,9.406,3.375,4.219.573.716.763-.509,2.168-1.445L44.131,37H20.851l11.993-9.594M23.5,17A4.5,4.5,0,1,0,28,21.5,4.5,4.5,0,0,0,23.5,17ZM33,26,18,38H46l-6-9-3,2-4-5Z" fill="#787878"/>
    </g>
    <rect x="16" y="14" width="32" height="27" opacity="0.5" fill="url(#f)"/>
  </g>
  <path d="M55,8a1,1,0,0,1,1,1V34a1,1,0,0,1-1,1H49a1,1,0,0,0-1,1v4a1,1,0,0,1-1,1H17a1,1,0,0,1-1-1V15a1,1,0,0,1,1-1h6a1,1,0,0,0,1-1V9a1,1,0,0,1,1-1H55m0-1H25a2,2,0,0,0-2,2v4H17a2,2,0,0,0-2,2V40a2,2,0,0,0,2,2H47a2,2,0,0,0,2-2V36h6a2,2,0,0,0,2-2V9a2,2,0,0,0-2-2Z" fill="#323232"/>
  <g>
    <g>
      <path d="M9,20.5H39A1.5,1.5,0,0,1,40.5,22V47A1.5,1.5,0,0,1,39,48.5H9A1.5,1.5,0,0,1,7.5,47V22A1.5,1.5,0,0,1,9,20.5Z" fill="url(#g)"/>
      <path d="M39,21a1.1,1.1,0,0,1,1,1V47a1.1,1.1,0,0,1-1,1H9a1.1,1.1,0,0,1-1-1V22a1.1,1.1,0,0,1,1-1H39m0-1H9a2.093,2.093,0,0,0-2,2V47a2.092,2.092,0,0,0,2,2H39a2.093,2.093,0,0,0,2-2V22a2.093,2.093,0,0,0-2-2Z" fill="#003755"/>
    </g>
    <path d="M39,47H9V22H39Z" fill="#fff"/>
    <g>
      <path d="M11.425,44.5l13.5-10.8L28.9,38.67l2.965-1.977,5.2,7.807Zm4.075-12a4,4,0,1,1,4-4A4,4,0,0,1,15.5,32.5Z" fill="url(#h)"/>
      <path d="M15.5,25A3.5,3.5,0,1,1,12,28.5,3.5,3.5,0,0,1,15.5,25m9.344,9.406,3.375,4.219.573.716.762-.509,2.168-1.445L36.131,44H12.851l11.993-9.594M15.5,24A4.5,4.5,0,1,0,20,28.5,4.5,4.5,0,0,0,15.5,24ZM25,33,10,45H38l-6-9-3,2-4-5Z" fill="#003755"/>
    </g>
  </g>
  <g>
    <g>
      <g opacity="0.5">
        <path d="M42.91,50.867a7.785,7.785,0,0,1-3.2-.68c-1.368-.611-1.792-1.04-4.549-3.825-.632-.637-1.389-1.4-2.312-2.327A7.83,7.83,0,0,1,30.5,38.481,7.974,7.974,0,0,1,38.427,30.5a7.873,7.873,0,0,1,5.606,2.322l2.7,2.678a.5.5,0,0,1-.351.855.563.563,0,0,1-.071,0,8.645,8.645,0,0,0-1.229-.076,8.8,8.8,0,0,0-3.239.6.525.525,0,0,1-.183.034.5.5,0,0,1-.353-.146c-.9-.9-1.552-1.552-2.884-1.552a3.2,3.2,0,0,0-3.214,3.241,3.14,3.14,0,0,0,.916,2.222l4.508,4.481a2.681,2.681,0,0,0,1.139.758,3.18,3.18,0,0,0,1.162.237,3.214,3.214,0,0,0,3.1-2.388.505.505,0,0,1,.354-.355.526.526,0,0,1,.13-.016.5.5,0,0,1,.353.146l2.813,2.813a.5.5,0,0,1,.077.607A7.989,7.989,0,0,1,42.91,50.867Z" fill="#fff"/>
        <path d="M38.427,31a7.409,7.409,0,0,1,5.253,2.176l2.706,2.679a9.823,9.823,0,0,0-4.722.557,4.257,4.257,0,0,0-3.237-1.7,3.691,3.691,0,0,0-3.714,3.741,3.635,3.635,0,0,0,1.061,2.574l4.51,4.483a3.172,3.172,0,0,0,1.327.876,3.64,3.64,0,0,0,1.326.265,3.723,3.723,0,0,0,3.582-2.759l2.812,2.812a7.449,7.449,0,0,1-6.42,3.661,7.316,7.316,0,0,1-3-.636c-1.577-.7-1.752-1.085-6.713-6.049a7.29,7.29,0,0,1-2.2-5.2A7.439,7.439,0,0,1,38.427,31m0-1A8.476,8.476,0,0,0,30,38.482a8.325,8.325,0,0,0,2.5,5.906c.923.924,1.679,1.688,2.31,2.326,2.815,2.843,3.248,3.28,4.7,3.93a8.3,8.3,0,0,0,3.407.723,8.489,8.489,0,0,0,7.281-4.152A1,1,0,0,0,50.038,46l-2.812-2.812a1,1,0,0,0-.707-.293,1,1,0,0,0-.966.742,2.716,2.716,0,0,1-2.616,2.017,2.65,2.65,0,0,1-.965-.2,2.263,2.263,0,0,1-1-.664l-4.5-4.472a2.635,2.635,0,0,1-.766-1.864,2.7,2.7,0,0,1,2.714-2.741c1.075,0,1.606.481,2.526,1.4a1.011,1.011,0,0,0,.713.3,1,1,0,0,0,.364-.069,8.827,8.827,0,0,1,4.216-.5.951.951,0,0,0,.14.01,1,1,0,0,0,.7-1.71l-2.706-2.68A8.368,8.368,0,0,0,38.427,30Z" fill="#fff"/>
      </g>
      <g opacity="0.5">
        <path d="M49.569,57.5a7.873,7.873,0,0,1-5.606-2.322l-2.7-2.678a.5.5,0,0,1,.351-.855.563.563,0,0,1,.071,0,9.05,9.05,0,0,0,1.257.076,8.735,8.735,0,0,0,3.212-.6.529.529,0,0,1,.183-.034.5.5,0,0,1,.354.146c.9.9,1.551,1.552,2.882,1.552a3.2,3.2,0,0,0,3.215-3.241,3.137,3.137,0,0,0-.917-2.222L47.942,43.4a5.04,5.04,0,0,0-1.737-1.32,3.146,3.146,0,0,0-1.145-.231,3.215,3.215,0,0,0-3.1,2.388.505.505,0,0,1-.354.355.518.518,0,0,1-.129.016.5.5,0,0,1-.354-.146l-2.811-2.813a.5.5,0,0,1-.078-.607,7.985,7.985,0,0,1,6.851-3.907,7.785,7.785,0,0,1,3.2.68c1.368.611,1.792,1.04,4.549,3.825.632.637,1.39,1.4,2.312,2.327A7.827,7.827,0,0,1,57.5,49.519,7.974,7.974,0,0,1,49.569,57.5Z" fill="#fff"/>
        <path d="M45.086,37.633a7.319,7.319,0,0,1,3,.636c1.576.7,1.751,1.085,6.712,6.049a7.286,7.286,0,0,1,2.2,5.2,7.428,7.428,0,0,1-12.681,5.306l-2.706-2.679a9.706,9.706,0,0,0,1.326.079,9.2,9.2,0,0,0,3.4-.636,4.256,4.256,0,0,0,3.237,1.7,3.692,3.692,0,0,0,3.714-3.741,3.639,3.639,0,0,0-1.061-2.574L48.3,43.045a5.476,5.476,0,0,0-1.91-1.433,3.641,3.641,0,0,0-1.327-.265,3.721,3.721,0,0,0-3.581,2.759l-2.812-2.812a7.449,7.449,0,0,1,6.42-3.661m0-1a8.488,8.488,0,0,0-7.281,4.152A1,1,0,0,0,37.959,42l2.812,2.812a1,1,0,0,0,1.673-.449,2.714,2.714,0,0,1,2.615-2.017,2.646,2.646,0,0,1,.965.2A4.539,4.539,0,0,1,47.6,43.762l3.917,3.917a2.636,2.636,0,0,1,.768,1.866,2.7,2.7,0,0,1-2.714,2.741c-1.076,0-1.606-.481-2.527-1.4a1.01,1.01,0,0,0-.713-.3,1,1,0,0,0-.363.069,8.231,8.231,0,0,1-3.03.567,8.72,8.72,0,0,1-1.186-.069.955.955,0,0,0-.141-.01,1,1,0,0,0-.7,1.71l2.706,2.68A8.368,8.368,0,0,0,49.57,58,8.475,8.475,0,0,0,58,49.518,8.328,8.328,0,0,0,55.5,43.612c-.923-.924-1.68-1.688-2.311-2.326-2.815-2.843-3.247-3.28-4.7-3.93a8.3,8.3,0,0,0-3.406-.723Z" fill="#fff"/>
      </g>
    </g>
    <g>
      <path d="M42.911,50.367a7.449,7.449,0,0,0,6.42-3.661l-2.812-2.812a3.723,3.723,0,0,1-3.582,2.759,3.64,3.64,0,0,1-1.326-.265,3.172,3.172,0,0,1-1.327-.876l-4.51-4.483a3.635,3.635,0,0,1-1.061-2.574,3.691,3.691,0,0,1,3.714-3.741,4.257,4.257,0,0,1,3.237,1.7,9.823,9.823,0,0,1,4.722-.557L43.68,33.176A7.429,7.429,0,0,0,31,38.482a7.29,7.29,0,0,0,2.2,5.2c4.961,4.964,5.136,5.344,6.713,6.049A7.316,7.316,0,0,0,42.911,50.367Z" fill="url(#i)"/>
      <path d="M57,49.518a7.286,7.286,0,0,0-2.2-5.2c-4.961-4.964-5.136-5.344-6.712-6.049a7.319,7.319,0,0,0-3-.636,7.449,7.449,0,0,0-6.42,3.661l2.812,2.812a3.721,3.721,0,0,1,3.581-2.759,3.641,3.641,0,0,1,1.327.265,5.476,5.476,0,0,1,1.91,1.433l3.927,3.926a3.639,3.639,0,0,1,1.061,2.574,3.691,3.691,0,0,1-3.714,3.741,4.256,4.256,0,0,1-3.237-1.7,9.2,9.2,0,0,1-3.4.636,9.706,9.706,0,0,1-1.326-.079l2.706,2.679A7.428,7.428,0,0,0,57,49.518Z" fill="url(#i)"/>
    </g>
  </g>
</svg>
