<svg xmlns="http://www.w3.org/2000/svg" xmlns:xlink="http://www.w3.org/1999/xlink" width="64" height="64" viewBox="0 0 64 64">
  <defs>
    <linearGradient id="a" x1="22.415" y1="15.449" x2="39.921" y2="45.77" gradientUnits="userSpaceOnUse">
      <stop offset="0" stop-color="#fff"/>
      <stop offset="1" stop-color="#d4d5d3"/>
    </linearGradient>
    <linearGradient id="b" x1="27.214" y1="27.763" x2="31.062" y2="40.786" gradientUnits="userSpaceOnUse">
      <stop offset="0"/>
      <stop offset="1" stop-opacity="0"/>
    </linearGradient>
    <linearGradient id="c" x1="31.822" y1="17.003" x2="35.516" y2="42.503" xlink:href="#b"/>
    <linearGradient id="d" x1="28.851" y1="12.312" x2="40.504" y2="32.495" gradientUnits="userSpaceOnUse">
      <stop offset="0" stop-color="#fff"/>
      <stop offset="1" stop-color="#f1f0f0"/>
    </linearGradient>
  </defs>
  <title>16125_IFWMAIL_AP_AppIcon_r21x</title>
  <path d="M47.593,12.035,16.405,19A1.864,1.864,0,0,0,15,20.722V50.986a.957.957,0,0,0,1.362.94L47.638,41.278A2.127,2.127,0,0,0,49,39.411V13.124A1.093,1.093,0,0,0,47.593,12.035Z" fill="url(#a)"/>
  <g>
    <polygon points="15 49.582 35.047 25.265 49 38.345 32.236 43.887 15 49.582" opacity="0.3" fill="url(#b)"/>
    <polyline points="18 45.94 35.05 25.27 46 35.53" fill="none" stroke="#787979" stroke-linecap="round" stroke-linejoin="round"/>
  </g>
  <g>
    <path d="M16.407,19.38A2.174,2.174,0,0,0,15,21.436v1.68c0,4.884,18.853,16.6,18.853,16.6a1.283,1.283,0,0,0,1.967-.475S49,19,49,14.419V13.345c0-.923-.634-1.51-1.407-1.3Z" opacity="0.3" fill="url(#c)"/>
    <g>
      <path d="M34.641,35.736a.923.923,0,0,1-.512-.153L16.469,23.9a2.463,2.463,0,0,1-.969-1.776v-1.4a1.376,1.376,0,0,1,1.016-1.231L47.7,12.522a.965.965,0,0,1,.2-.022.575.575,0,0,1,.6.625v.9a5.06,5.06,0,0,1-.693,2.315L35.4,35.33A.9.9,0,0,1,34.641,35.736Z" fill="url(#d)"/>
      <path d="M47.9,13c.066,0,.1,0,.1.124v.9a4.6,4.6,0,0,1-.612,2.041l-12.4,18.994a.406.406,0,0,1-.342.18.433.433,0,0,1-.236-.071L16.744,23.484A1.977,1.977,0,0,1,16,22.126v-1.4a.875.875,0,0,1,.625-.743l31.186-6.968A.406.406,0,0,1,47.9,13m0-1a1.367,1.367,0,0,0-.3.035L16.407,19A1.864,1.864,0,0,0,15,20.722v1.4a2.954,2.954,0,0,0,1.193,2.193L33.854,36a1.424,1.424,0,0,0,.787.237A1.4,1.4,0,0,0,35.82,35.6L48.226,16.61A5.588,5.588,0,0,0,49,14.022v-.9A1.074,1.074,0,0,0,47.9,12Z" fill="#787979"/>
    </g>
  </g>
  <path d="M47.9,13c.065,0,.1,0,.1.124V39.411a1.137,1.137,0,0,1-.685.921L16.04,50.979l-.04.012V20.722a.873.873,0,0,1,.623-.742l31.188-6.969A.407.407,0,0,1,47.9,13m0-1a1.369,1.369,0,0,0-.306.035L16.405,19A1.864,1.864,0,0,0,15,20.722V50.986A.929.929,0,0,0,15.938,52a1.325,1.325,0,0,0,.424-.074L47.638,41.278A2.127,2.127,0,0,0,49,39.411V13.124A1.073,1.073,0,0,0,47.9,12Z" fill="#323232"/>
</svg>
