<svg xmlns="http://www.w3.org/2000/svg" xmlns:xlink="http://www.w3.org/1999/xlink" width="64" height="64" viewBox="0 0 64 64">
  <defs>
    <linearGradient id="a" x1="28.344" y1="26.971" x2="41.656" y2="50.029" gradientUnits="userSpaceOnUse">
      <stop offset="0" stop-color="#fff"/>
      <stop offset="1" stop-color="#d4d5d3"/>
    </linearGradient>
    <linearGradient id="b" x1="39.785" y1="31.188" x2="39.785" y2="41.416" gradientUnits="userSpaceOnUse">
      <stop offset="0"/>
      <stop offset="1" stop-opacity="0"/>
    </linearGradient>
    <linearGradient id="c" x1="38.344" y1="14.971" x2="52.937" y2="40.248" gradientUnits="userSpaceOnUse">
      <stop offset="0" stop-color="#8cd7f5"/>
      <stop offset="1" stop-color="#376e8c"/>
    </linearGradient>
    <linearGradient id="d" x1="12.695" y1="10.245" x2="29.771" y2="39.822" gradientUnits="userSpaceOnUse">
      <stop offset="0" stop-color="#3287af"/>
      <stop offset="1" stop-color="#285a78"/>
    </linearGradient>
  </defs>
  <title>16120_SWYMCTY_AP_AppIcon_r21x</title>
  <g>
    <g>
      <path d="M45.5,29.5h-21a2,2,0,0,0-2,2v14a2,2,0,0,0,2,2h3v5l4.917-5H45.5a2,2,0,0,0,2-2v-14A2,2,0,0,0,45.5,29.5Z" stroke="#323232" stroke-miterlimit="10" fill="url(#a)"/>
      <path d="M24.5,30h21A1.5,1.5,0,0,1,47,31.5v1A1.5,1.5,0,0,0,45.5,31h-21A1.5,1.5,0,0,0,23,32.5v-1A1.5,1.5,0,0,1,24.5,30Z" fill="#fff" opacity="0.3"/>
      <g opacity="0.2">
        <path d="M45.5,46A1.5,1.5,0,0,0,47,44.5v1A1.5,1.5,0,0,1,45.5,47H32.207L28,51.278v-1L32.207,46Z"/>
        <path d="M24.5,46H28v1H24.5A1.5,1.5,0,0,1,23,45.5v-1A1.5,1.5,0,0,0,24.5,46Z"/>
      </g>
    </g>
    <path d="M45.5,30H34.93l-2.36,4.9L44.41,47H45.5A1.5,1.5,0,0,0,47,45.5v-14A1.5,1.5,0,0,0,45.5,30Z" opacity="0.3" fill="url(#b)"/>
    <g>
      <path d="M55.5,17.5h-21a2,2,0,0,0-2,2v14a2,2,0,0,0,2,2H47.583l4.917,5v-5h3a2,2,0,0,0,2-2v-14A2,2,0,0,0,55.5,17.5Z" stroke="#003755" stroke-miterlimit="10" fill="url(#c)"/>
      <path d="M55.5,18h-21A1.5,1.5,0,0,0,33,19.5v1A1.5,1.5,0,0,1,34.5,19h21A1.5,1.5,0,0,1,57,20.5v-1A1.5,1.5,0,0,0,55.5,18Z" fill="#fff" opacity="0.3"/>
      <g opacity="0.2">
        <path d="M34.5,34A1.5,1.5,0,0,1,33,32.5v1A1.5,1.5,0,0,0,34.5,35H47.793L52,39.278v-1L47.793,34Z"/>
        <path d="M55.5,34H52v1h3.5A1.5,1.5,0,0,0,57,33.5v-1A1.5,1.5,0,0,1,55.5,34Z"/>
      </g>
    </g>
  </g>
  <g>
    <g opacity="0.5">
      <g>
        <g>
          <path d="M23,21.5A4.5,4.5,0,1,1,27.5,17,4.5,4.5,0,0,1,23,21.5Z" fill="#fff"/>
          <path d="M23,13a4,4,0,1,1-4,4,4,4,0,0,1,4-4m0-1a5,5,0,1,0,5,5,5,5,0,0,0-5-5Z" fill="#fff"/>
        </g>
        <g>
          <path d="M8.607,51.5a2.138,2.138,0,0,1-1.573-.594,1.916,1.916,0,0,1-.526-1.394,2.1,2.1,0,0,1,.2-.937c.027-.065,6.913-15.8,6.913-15.8.329-.962.337-1.694-.5-3.641-.055-.128-.365-.885-.826-2.016C10.909,23.738,8.036,16.7,6.708,13.663a.508.508,0,0,1-.041-.2.523.523,0,0,1,.5-.526h3.56a2.138,2.138,0,0,1,1.932,1.339c.06.125.318.763.894,2.193.947,2.351,2.532,6.287,3.836,9.35.446.943.822,1.251,1.539,1.251.811,0,1.169-.292,2.232-1.159l.33-.268c2.5-1.983,14.8-11.682,14.8-11.682a4.5,4.5,0,0,1,2.879-1.016l3.764-.008a.907.907,0,0,1,.543,1.625c-3.116,2.483-18.4,14.644-20.358,16.2a18.286,18.286,0,0,0-4.266,4.375c-1.013,1.543-4.88,10.37-6.336,13.693l-.535,1.219A2.125,2.125,0,0,1,10.072,51.5h0a1.688,1.688,0,0,1-.238-.017Z" fill="#fff"/>
          <path d="M10.747,13.436a1.643,1.643,0,0,1,1.461,1.057c.166.342,2.748,6.885,4.721,11.522.435.919.922,1.555,2,1.555s1.552-.467,2.877-1.539c2.5-1.979,14.8-11.677,14.8-11.677a4,4,0,0,1,2.575-.909h-.011l3.768-.009a.4.4,0,0,1,.4.407.4.4,0,0,1-.155.321c-3.125,2.49-18.41,14.65-20.368,16.2a18.975,18.975,0,0,0-4.372,4.492c-1.19,1.812-5.987,12.9-6.911,14.985A1.64,1.64,0,0,1,10.072,51a1.124,1.124,0,0,1-.165-.012L8.626,51H8.607a1.431,1.431,0,0,1-1.6-1.478,1.722,1.722,0,0,1,.181-.8h0c.015-.036.465-1.064,6.887-15.74.409-1.188.346-2.078-.5-4.04-.223-.517-4.646-11.434-6.408-15.473v-.027h3.58M7.19,48.716h0m3.557-36.28H7.167a1,1,0,0,0-1,1,1.131,1.131,0,0,0,.083.427c1.326,3.039,4.2,10.074,5.581,13.454.461,1.13.771,1.887.826,2.015.8,1.85.765,2.461.487,3.282L6.882,46.925l-.608,1.39-.029.07a2.611,2.611,0,0,0-.237,1.156,2.383,2.383,0,0,0,.669,1.715A2.627,2.627,0,0,0,8.607,52l1.245-.014a2,2,0,0,0,.22.012,2.621,2.621,0,0,0,2.38-1.773l.528-1.2c1.45-3.311,5.3-12.106,6.293-13.613a17.877,17.877,0,0,1,4.156-4.256C25.389,29.6,40.675,17.436,43.8,14.946a1.383,1.383,0,0,0,.532-1.1,1.4,1.4,0,0,0-1.4-1.407l-3.762.009h0a5,5,0,0,0-3.2,1.136h0c-.008.006-12.293,9.689-14.786,11.667l-.34.277c-1.059.862-1.3,1.045-1.915,1.045-.429,0-.676-.1-1.1-.983-1.284-3.018-2.867-6.947-3.812-9.295-.671-1.666-.849-2.1-.913-2.235a2.645,2.645,0,0,0-2.361-1.621Z" fill="#fff"/>
        </g>
      </g>
      <g>
        <path d="M23,13a4,4,0,1,1-4,4,4,4,0,0,1,4-4m0-1a5,5,0,1,0,5,5,5,5,0,0,0-5-5Z" fill="#fff"/>
        <path d="M10.747,13.436a1.643,1.643,0,0,1,1.461,1.057c.166.342,2.748,6.885,4.721,11.522.435.919.922,1.555,2,1.555s1.552-.467,2.877-1.539c2.5-1.979,14.8-11.677,14.8-11.677a4,4,0,0,1,2.575-.909h-.011l3.768-.009a.4.4,0,0,1,.4.407.4.4,0,0,1-.155.321c-3.125,2.49-18.41,14.65-20.368,16.2a18.975,18.975,0,0,0-4.372,4.492c-1.19,1.812-5.987,12.9-6.911,14.985A1.64,1.64,0,0,1,10.072,51a1.124,1.124,0,0,1-.165-.012L8.626,51H8.607a1.431,1.431,0,0,1-1.6-1.478,1.722,1.722,0,0,1,.181-.8h0c.015-.036.465-1.064,6.887-15.74.409-1.188.346-2.078-.5-4.04-.223-.517-4.646-11.434-6.408-15.473v-.027h3.58M7.19,48.716h0m3.557-36.28H7.167a1,1,0,0,0-1,1,1.131,1.131,0,0,0,.083.427c1.326,3.039,4.2,10.074,5.581,13.454.461,1.13.771,1.887.826,2.015.8,1.85.765,2.461.487,3.282L6.882,46.925l-.608,1.39-.029.07a2.611,2.611,0,0,0-.237,1.156,2.383,2.383,0,0,0,.669,1.715A2.627,2.627,0,0,0,8.607,52l1.245-.014a2,2,0,0,0,.22.012,2.621,2.621,0,0,0,2.38-1.773l.528-1.2c1.45-3.311,5.3-12.106,6.293-13.613a17.877,17.877,0,0,1,4.156-4.256C25.389,29.6,40.675,17.436,43.8,14.946a1.383,1.383,0,0,0,.532-1.1,1.4,1.4,0,0,0-1.4-1.407l-3.762.009h0a5,5,0,0,0-3.2,1.136h0c-.008.006-12.293,9.689-14.786,11.667l-.34.277c-1.059.862-1.3,1.045-1.915,1.045-.429,0-.676-.1-1.1-.983-1.284-3.018-2.867-6.947-3.812-9.295-.671-1.666-.849-2.1-.913-2.235a2.645,2.645,0,0,0-2.361-1.621Z" fill="#fff"/>
      </g>
    </g>
    <g>
      <path d="M23,21a4,4,0,1,0-4-4A4.006,4.006,0,0,0,23,21Z" fill="url(#d)"/>
      <path d="M42.935,13.436l-3.757.009a4,4,0,0,0-2.575.909s-12.3,9.7-14.8,11.677C20.48,27.1,20.011,27.57,18.928,27.57s-1.564-.636-2-1.555c-1.973-4.637-4.555-11.18-4.721-11.522a1.637,1.637,0,0,0-1.481-1.057H7.167v.027c1.762,4.039,6.185,14.956,6.408,15.473.848,1.962.911,2.852.5,4.04-6.709,15.332-6.9,15.769-6.887,15.74h0a1.722,1.722,0,0,0-.181.8A1.434,1.434,0,0,0,8.626,51l1.281-.014a1.584,1.584,0,0,0,1.619-1.14c.924-2.088,5.721-13.173,6.911-14.985a18.975,18.975,0,0,1,4.372-4.492c1.958-1.555,17.243-13.715,20.368-16.2a.4.4,0,0,0,.155-.321A.4.4,0,0,0,42.935,13.436Z" fill="url(#d)"/>
    </g>
  </g>
</svg>
