<svg xmlns="http://www.w3.org/2000/svg" xmlns:xlink="http://www.w3.org/1999/xlink" width="64" height="64" viewBox="0 0 64 64">
  <defs>
    <linearGradient id="a" x1="22.836" y1="17.043" x2="38.052" y2="43.399" gradientUnits="userSpaceOnUse">
      <stop offset="0" stop-color="#f5f5f5"/>
      <stop offset="1" stop-color="#bebebe"/>
    </linearGradient>
    <linearGradient id="b" x1="25.903" y1="20.81" x2="41.229" y2="47.356" gradientUnits="userSpaceOnUse">
      <stop offset="0" stop-color="#fff"/>
      <stop offset="1" stop-color="#d2d2d2"/>
    </linearGradient>
    <linearGradient id="c" x1="32.856" y1="24.257" x2="36.228" y2="30.097" gradientUnits="userSpaceOnUse">
      <stop offset="0" stop-color="#3387af"/>
      <stop offset="1" stop-color="#285a78"/>
    </linearGradient>
    <linearGradient id="d" x1="33.031" y1="29.843" x2="36.052" y2="35.074" xlink:href="#c"/>
    <linearGradient id="e" x1="33.025" y1="34.847" x2="36.059" y2="40.101" xlink:href="#c"/>
    <linearGradient id="f" x1="34.321" y1="40.198" x2="36.717" y2="44.347" xlink:href="#c"/>
    <linearGradient id="g" x1="26" y1="22.952" x2="40.625" y2="22.952" gradientUnits="userSpaceOnUse">
      <stop offset="0" stop-color="#464647"/>
      <stop offset="1" stop-color="#151515"/>
    </linearGradient>
    <mask id="h" x="21" y="10.5" width="13" height="16" maskUnits="userSpaceOnUse">
      <path d="M28,25.979c-1.479-.25-1.333-3.729-.229-4.187l-2.159-4.775-4.154.907L21,11.5l6-1,2,3,5,9-2,4S29.479,26.229,28,25.979Z" fill="#fff"/>
    </mask>
    <linearGradient id="i" x1="23.836" y1="14.212" x2="30.029" y2="24.938" xlink:href="#b"/>
    <mask id="j" x="30.917" y="7.5" width="14.083" height="17.792" maskUnits="userSpaceOnUse">
      <path d="M35.611,14.866,30.917,15.9,31,7.5l9,3,4,5,1,5.875-4.979,3.917A3.659,3.659,0,0,0,38,23.5c-1.667-.771-.854-3.524.542-3.417S35.611,14.866,35.611,14.866Z" fill="#fff"/>
    </mask>
    <linearGradient id="k" x1="33.91" y1="11.601" x2="40.47" y2="22.964" xlink:href="#b"/>
    <radialGradient id="l" cx="25.642" cy="44.59" r="7.028" gradientTransform="matrix(0.854, 0.52, -0.399, 0.656, 21.524, 2.012)" gradientUnits="userSpaceOnUse">
      <stop offset="0"/>
      <stop offset="1" stop-opacity="0"/>
    </radialGradient>
    <linearGradient id="m" x1="30.724" y1="40.114" x2="25.974" y2="46.656" gradientUnits="userSpaceOnUse">
      <stop offset="0" stop-color="#f5f5f5"/>
      <stop offset="0.339" stop-color="#e2e2e2"/>
      <stop offset="0.862" stop-color="#bebebe"/>
    </linearGradient>
  </defs>
  <title>16128_X3DNOTE_AP_AppIcon_r21x</title>
  <g>
    <path d="M22.824,52.114a.5.5,0,0,1-.376-.17l-4.2-4.775a2.44,2.44,0,0,1-.746-1.746V22.165a3.847,3.847,0,0,1,2.964-3.559l17.834-3.8a2.933,2.933,0,0,1,.606-.065,2.515,2.515,0,0,1,1.247.322.446.446,0,0,1,.05.022l5,2.594a.5.5,0,0,1,.187.72L23.241,51.89a.5.5,0,0,1-.383.223Z" fill="url(#a)"/>
    <path d="M38.905,15.242a2,2,0,0,1,1.063.294l0-.006,5,2.594L22.824,51.614l-4.2-4.775h0A1.977,1.977,0,0,1,18,45.423V22.165a3.368,3.368,0,0,1,2.568-3.07L38.4,15.3a2.455,2.455,0,0,1,.5-.054m0-1a3.4,3.4,0,0,0-.712.077l-17.833,3.8A4.37,4.37,0,0,0,17,22.165V45.423a2.955,2.955,0,0,0,.883,2.09l4.19,4.762a1,1,0,0,0,.751.339l.068,0a1,1,0,0,0,.766-.446l22.151-33.49a1,1,0,0,0-.374-1.44l-5-2.594c-.02-.011-.041-.02-.062-.029a3.021,3.021,0,0,0-1.464-.371Z" fill="#787979"/>
  </g>
  <g>
    <path d="M24.124,52.555a2.73,2.73,0,0,1-2.624-2.7v-25c0-1.7,1.651-2.69,3.2-3.045l18.758-4.308a3.106,3.106,0,0,1,.694-.082A2.291,2.291,0,0,1,46.5,19.859v22a4.428,4.428,0,0,1-2.69,3.946L24.894,52.423A2.3,2.3,0,0,1,24.124,52.555Z" fill="url(#b)"/>
    <path d="M44.148,17.924A1.8,1.8,0,0,1,46,19.859v22a3.938,3.938,0,0,1-2.356,3.474L24.729,51.951a1.811,1.811,0,0,1-.605.1A2.22,2.22,0,0,1,22,49.859v-25c0-1.4,1.445-2.245,2.808-2.558l18.758-4.308a2.621,2.621,0,0,1,.582-.069m0-1a3.575,3.575,0,0,0-.807.095L24.584,21.327c-1.733.4-3.584,1.535-3.584,3.532v25a3.2,3.2,0,0,0,3.124,3.2,2.823,2.823,0,0,0,.936-.159l18.914-6.618A4.895,4.895,0,0,0,47,41.859v-22a2.8,2.8,0,0,0-2.851-2.935Z" fill="#787979"/>
  </g>
  <path d="M19.5,48.469V24.5c0-2.562.625-3.417,2.808-4.187l19.133-4.36" fill="none" stroke="#787979" stroke-linejoin="round" opacity="0.8"/>
  <g>
    <line x1="26.198" y1="29.255" x2="42.885" y2="25.099" fill="none" stroke-linecap="round" stroke-miterlimit="10" stroke-width="2" stroke="url(#c)"/>
    <line x1="26.198" y1="34.943" x2="42.885" y2="29.974" fill="none" stroke-linecap="round" stroke-miterlimit="10" stroke-width="2" stroke="url(#d)"/>
    <line x1="26.198" y1="39.943" x2="42.885" y2="35.005" fill="none" stroke-linecap="round" stroke-miterlimit="10" stroke-width="2" stroke="url(#e)"/>
    <line x1="42.885" y1="39.63" x2="28.152" y2="44.914" fill="none" stroke-linecap="round" stroke-miterlimit="10" stroke-width="2" stroke="url(#f)"/>
  </g>
  <path d="M38.313,19.4a2.3,2.3,0,1,0,2.312,2.3A2.305,2.305,0,0,0,38.313,19.4Zm-10,2.1A2.508,2.508,0,1,0,30.625,24,2.411,2.411,0,0,0,28.313,21.5Z" fill="url(#g)"/>
  <g mask="url(#h)">
    <g>
      <path d="M28.53,25.474a3.378,3.378,0,0,1-1.967-.745,10.586,10.586,0,0,1-3.817-7.617c0-2.048,1-3.372,2.556-3.372a3.506,3.506,0,0,1,1.816.573c2.125,1.3,3.853,4.723,3.853,7.641a4.558,4.558,0,0,1-.622,2.506,2.141,2.141,0,0,1-1.818,1.014Zm-3.093-8.74c-.029,0-.032,0-.044.018a1.587,1.587,0,0,0-.07,1.087,9.7,9.7,0,0,0,2.227,4.54c.3.3.506.38.578.38.049-.031.219-.337.12-1.2a7.988,7.988,0,0,0-2.193-4.492A1.2,1.2,0,0,0,25.437,16.734Z" fill="url(#i)"/>
      <path d="M25.3,14.24a3.036,3.036,0,0,1,1.557.5c1.986,1.211,3.612,4.458,3.612,7.214,0,1.919-.789,3.019-1.939,3.019a2.91,2.91,0,0,1-1.673-.648,10.049,10.049,0,0,1-3.613-7.213c0-1.811.843-2.872,2.056-2.872m2.827,9.019c.489,0,.746-.626.617-1.755a8.452,8.452,0,0,0-2.368-4.817,1.582,1.582,0,0,0-.94-.453c-.521,0-.779.6-.608,1.683A10.148,10.148,0,0,0,27.2,22.734a1.467,1.467,0,0,0,.93.525M25.3,13.24c-1.521,0-3.056,1.2-3.056,3.872a10.98,10.98,0,0,0,4.024,8.021,3.853,3.853,0,0,0,2.262.84c1.356,0,2.939-1.052,2.939-4.019,0-3.125-1.8-6.669-4.091-8.068A4,4,0,0,0,25.3,13.24Zm2.473,8.65a9.479,9.479,0,0,1-1.958-4.13c-.015-.1-.025-.186-.031-.263a7.62,7.62,0,0,1,1.966,4.12c.012.1.019.191.023.273Z" fill="#787979"/>
    </g>
  </g>
  <g mask="url(#j)">
    <g>
      <path d="M39.284,23.181a4.869,4.869,0,0,1-2.433-.747c-2.686-1.571-4.871-5.011-4.871-7.668a3.044,3.044,0,0,1,3.1-3.32,5.187,5.187,0,0,1,2.239.562,9.366,9.366,0,0,1,4.906,7.686,3.867,3.867,0,0,1-.794,2.529,2.714,2.714,0,0,1-2.147.958Zm-4.051-9.264a.652.652,0,0,0-.522.2,1.5,1.5,0,0,0-.193,1.158,8.424,8.424,0,0,0,3.235,5.01,2.214,2.214,0,0,0,1.2.465.608.608,0,0,0,.476-.189,1.662,1.662,0,0,0,.248-1.245,7.5,7.5,0,0,0-3.212-4.975A2.453,2.453,0,0,0,35.233,13.917Z" fill="url(#k)"/>
      <path d="M35.08,11.946a4.708,4.708,0,0,1,2.023.513,8.838,8.838,0,0,1,4.622,7.235c0,1.9-.991,2.986-2.441,2.986A4.4,4.4,0,0,1,37.1,22c-2.541-1.486-4.623-4.741-4.623-7.236a2.533,2.533,0,0,1,2.6-2.82m3.87,9.308c.838,0,1.338-.709,1.222-1.98a7.974,7.974,0,0,0-3.452-5.358,2.984,2.984,0,0,0-1.487-.5c-.873,0-1.374.693-1.212,1.927A8.886,8.886,0,0,0,37.474,20.7a2.741,2.741,0,0,0,1.476.551M35.08,10.946a3.516,3.516,0,0,0-3.6,3.82c0,2.863,2.247,6.421,5.117,8.1a5.355,5.355,0,0,0,2.686.815c2.058,0,3.441-1.6,3.441-3.986a9.764,9.764,0,0,0-5.189-8.136,5.681,5.681,0,0,0-2.456-.612Zm3.87,9.308a1.761,1.761,0,0,1-.916-.379,7.98,7.98,0,0,1-3.021-4.661,1.134,1.134,0,0,1,.074-.764c.027-.03.118-.032.146-.032a1.991,1.991,0,0,1,.97.354,7.045,7.045,0,0,1,2.973,4.593,1.284,1.284,0,0,1-.119.863c-.007.008-.024.026-.107.026Z" fill="#787979"/>
    </g>
  </g>
  <g>
    <g opacity="0.5">
      <path d="M26.625,47c5.875,4.875,8.52,1.307,8.52,1.307L24.729,51.951A2.157,2.157,0,0,1,22,49.859V38.625S20.75,42.125,26.625,47Z" fill="url(#l)"/>
    </g>
    <path d="M37.875,47.9c-1.19.419-6.388,1.833-6.388-.477v-3.56c0-1.817-1.017-3.38-3.3-2.484a6.963,6.963,0,0,1-4.23.417c-1.989-.619-2.458-5.167-2.458-6.6v5.671c0,4.6,7.479,10.141,11.146,8.849Z" stroke="#787979" stroke-linejoin="round" fill="url(#m)"/>
  </g>
  <path d="M35.08,11.946a4.7,4.7,0,0,1,2.022.513A8.5,8.5,0,0,1,40.55,15.83l4.27,2.214A1.8,1.8,0,0,1,46,19.859v22a3.938,3.938,0,0,1-2.356,3.474L24.729,51.951a1.819,1.819,0,0,1-.6.1,2.057,2.057,0,0,1-1.28-.474l-.023.034-4.2-4.775h0A1.977,1.977,0,0,1,18,45.423V22.165a3.368,3.368,0,0,1,2.568-3.07l2.836-.6a7.243,7.243,0,0,1-.159-1.379c0-1.811.843-2.872,2.056-2.872a3.036,3.036,0,0,1,1.557.5,7.065,7.065,0,0,1,2.269,2.532l3.652-.778a5.967,5.967,0,0,1-.3-1.728,2.533,2.533,0,0,1,2.6-2.82m-.863,4.242,4.089-.871a6.746,6.746,0,0,0-1.586-1.4,2.984,2.984,0,0,0-1.487-.5c-.873,0-1.374.693-1.212,1.927a5.419,5.419,0,0,0,.2.843m-9.333,1.988,2.356-.5a5.088,5.088,0,0,0-.863-.987,1.582,1.582,0,0,0-.94-.453c-.521,0-.779.6-.608,1.683.013.083.037.173.055.259m10.2-7.23a3.516,3.516,0,0,0-3.6,3.82,5.771,5.771,0,0,0,.085.964l-1.959.417a7.441,7.441,0,0,0-2.228-2.261A4,4,0,0,0,25.3,13.24,2.782,2.782,0,0,0,23.013,14.4a4.534,4.534,0,0,0-.768,2.708c0,.19.01.387.03.6l-1.915.408A4.37,4.37,0,0,0,17,22.165V45.423a2.959,2.959,0,0,0,.883,2.091l4.19,4.761a1,1,0,0,0,.424.284,3.015,3.015,0,0,0,1.63.5,2.832,2.832,0,0,0,.933-.159l18.914-6.618A4.895,4.895,0,0,0,47,41.859v-22a2.812,2.812,0,0,0-1.776-2.732l-3.963-2.055a9.294,9.294,0,0,0-3.725-3.514,5.681,5.681,0,0,0-2.456-.612ZM34.993,15a.891.891,0,0,1,.094-.55c.027-.03.119-.032.146-.032a1.952,1.952,0,0,1,.933.332L34.993,15Z" fill="#323232"/>
</svg>
