<svg xmlns="http://www.w3.org/2000/svg" xmlns:xlink="http://www.w3.org/1999/xlink" width="64" height="64" viewBox="0 0 64 64">
  <defs>
    <linearGradient id="a" data-name="New Gradient Swatch 3" x1="22.252" y1="15.116" x2="41.748" y2="48.884" gradientUnits="userSpaceOnUse">
      <stop offset="0" stop-color="#005686"/>
      <stop offset="1" stop-color="#003c5a"/>
    </linearGradient>
    <linearGradient id="b" x1="21.998" y1="14.677" x2="42.002" y2="49.323" gradientUnits="userSpaceOnUse">
      <stop offset="0" stop-color="#fff" stop-opacity="0"/>
      <stop offset="0.055" stop-color="#fff" stop-opacity="0.018"/>
      <stop offset="0.118" stop-color="#fff" stop-opacity="0.073"/>
      <stop offset="0.185" stop-color="#fff" stop-opacity="0.162"/>
      <stop offset="0.254" stop-color="#fff" stop-opacity="0.288"/>
      <stop offset="0.326" stop-color="#fff" stop-opacity="0.45"/>
      <stop offset="0.399" stop-color="#fff" stop-opacity="0.647"/>
      <stop offset="0.473" stop-color="#fff" stop-opacity="0.877"/>
      <stop offset="0.5" stop-color="#fff" stop-opacity="0.97"/>
      <stop offset="0.527" stop-color="#fff" stop-opacity="0.877"/>
      <stop offset="0.601" stop-color="#fff" stop-opacity="0.647"/>
      <stop offset="0.674" stop-color="#fff" stop-opacity="0.45"/>
      <stop offset="0.746" stop-color="#fff" stop-opacity="0.288"/>
      <stop offset="0.815" stop-color="#fff" stop-opacity="0.162"/>
      <stop offset="0.882" stop-color="#fff" stop-opacity="0.073"/>
      <stop offset="0.945" stop-color="#fff" stop-opacity="0.018"/>
      <stop offset="1" stop-color="#fff" stop-opacity="0"/>
    </linearGradient>
    <linearGradient id="c" x1="21.998" y1="49.323" x2="42.002" y2="14.677" gradientUnits="userSpaceOnUse">
      <stop offset="0" stop-color="#fff" stop-opacity="0"/>
      <stop offset="0.056" stop-color="#fff" stop-opacity="0.018"/>
      <stop offset="0.119" stop-color="#fff" stop-opacity="0.071"/>
      <stop offset="0.185" stop-color="#fff" stop-opacity="0.159"/>
      <stop offset="0.254" stop-color="#fff" stop-opacity="0.283"/>
      <stop offset="0.325" stop-color="#fff" stop-opacity="0.441"/>
      <stop offset="0.397" stop-color="#fff" stop-opacity="0.636"/>
      <stop offset="0.468" stop-color="#fff" stop-opacity="0.861"/>
      <stop offset="0.5" stop-color="#fff" stop-opacity="0.97"/>
      <stop offset="0.52" stop-color="#fff" stop-opacity="0.904"/>
      <stop offset="0.596" stop-color="#fff" stop-opacity="0.668"/>
      <stop offset="0.671" stop-color="#fff" stop-opacity="0.464"/>
      <stop offset="0.745" stop-color="#fff" stop-opacity="0.297"/>
      <stop offset="0.816" stop-color="#fff" stop-opacity="0.168"/>
      <stop offset="0.883" stop-color="#fff" stop-opacity="0.075"/>
      <stop offset="0.946" stop-color="#fff" stop-opacity="0.019"/>
      <stop offset="1" stop-color="#fff" stop-opacity="0"/>
    </linearGradient>
    <radialGradient id="d" cx="31.921" cy="30.975" r="8.825" gradientTransform="translate(1.143) scale(0.964 1)" xlink:href="#a"/>
    <linearGradient id="e" x1="32" y1="24.491" x2="32" y2="32.684" gradientUnits="userSpaceOnUse">
      <stop offset="0" stop-color="#ececee"/>
      <stop offset="0.052" stop-color="#dbdbdd"/>
      <stop offset="0.184" stop-color="#b7b7b8"/>
      <stop offset="0.323" stop-color="#99999a"/>
      <stop offset="0.467" stop-color="#818182"/>
      <stop offset="0.621" stop-color="#717171"/>
      <stop offset="0.789" stop-color="#676767"/>
      <stop offset="1" stop-color="#646464"/>
    </linearGradient>
    <linearGradient id="f" x1="39.283" y1="35.099" x2="50.717" y2="54.903" gradientUnits="userSpaceOnUse">
      <stop offset="0" stop-color="#fff"/>
      <stop offset="1" stop-color="#d4d5d3"/>
    </linearGradient>
    <linearGradient id="g" x1="45" y1="50" x2="45" y2="40.77" gradientUnits="userSpaceOnUse">
      <stop offset="0" stop-color="#fff"/>
      <stop offset="1"/>
    </linearGradient>
  </defs>
  <title>7284_X3DOPPI_AP_r21x</title>
  <g style="isolation: isolate">
    <g>
      <g>
        <g>
          <circle cx="32" cy="32" r="19.5" fill="url(#a)"/>
          <path d="M32,13A19,19,0,1,1,13,32,19.021,19.021,0,0,1,32,13m0-1A20,20,0,1,0,52,32,20,20,0,0,0,32,12Z" fill="#003755"/>
        </g>
        <g>
          <g opacity="0.3">
            <circle cx="32" cy="32" r="20" fill="url(#b)"/>
          </g>
          <g opacity="0.3">
            <circle cx="32" cy="32" r="20" fill="url(#c)"/>
          </g>
        </g>
        <g>
          <ellipse cx="32" cy="32" rx="8.5" ry="8.833" fill="url(#d)"/>
          <path d="M32,23.667a8.34,8.34,0,0,1,0,16.666,8.34,8.34,0,0,1,0-16.666m0-1A9.172,9.172,0,0,0,23,32a9.172,9.172,0,0,0,9,9.333A9.171,9.171,0,0,0,41,32a9.171,9.171,0,0,0-9-9.333Z" fill="#001f2d"/>
        </g>
        <path d="M32,13A19,19,0,1,1,13,32,19.021,19.021,0,0,1,32,13m0-1A20,20,0,1,0,52,32,20,20,0,0,0,32,12Z" fill="#003755"/>
        <g opacity="0.5">
          <g>
            <line x1="20" y1="20" x2="24" y2="24" fill="none" stroke="#fff" stroke-miterlimit="10" stroke-width="0.846"/>
            <line x1="40" y1="40" x2="44" y2="44" fill="none" stroke="#fff" stroke-miterlimit="10" stroke-width="0.846"/>
            <line x1="44" y1="20" x2="40" y2="24" fill="none" stroke="#fff" stroke-miterlimit="10" stroke-width="0.846"/>
            <line x1="24" y1="40" x2="20" y2="44" fill="none" stroke="#fff" stroke-miterlimit="10" stroke-width="0.846"/>
          </g>
          <g>
            <line x1="20" y1="20" x2="24" y2="24" fill="none" stroke="#d5e8f2" stroke-miterlimit="10"/>
            <line x1="40" y1="40" x2="44" y2="44" fill="none" stroke="#d5e8f2" stroke-miterlimit="10"/>
            <line x1="44" y1="20" x2="40" y2="24" fill="none" stroke="#d5e8f2" stroke-miterlimit="10"/>
            <line x1="24" y1="40" x2="20" y2="44" fill="none" stroke="#d5e8f2" stroke-miterlimit="10"/>
          </g>
        </g>
        <path d="M17.667,33.536c0,.275.121.39.38.39h.894c.674,0,1.059-.519,1.059-1.7v-.509C20,30.531,19.7,30,18.971,30h-.924c-.259,0-.38.118-.38.393Zm.706-2.96h.35c.442,0,.538.333.538,1.2v.315c0,1.015-.186,1.262-.558,1.262h-.33ZM15,33a.961.961,0,0,0,1.063,1c.771,0,1.1-.441,1.1-1.2,0-.515-.112-.824-.507-.977a.78.78,0,0,0,.433-.808A.928.928,0,0,0,16.032,30a.857.857,0,0,0-.973.891.3.3,0,0,0,.3.332c.2,0,.315-.105.344-.332.044-.265.159-.369.341-.369.254,0,.332.219.332.458,0,.433-.1.559-.4.614-.277.046-.327.108-.327.26s.073.225.359.259.44.12.44.686c0,.381-.091.676-.382.676-.272,0-.376-.2-.39-.5-.019-.281-.149-.409-.358-.409S15,32.742,15,33" fill="#d5e8f2"/>
        <g>
          <path d="M29.189,47.066c.057.223.151.353.514.353.332,0,.472-.048.539-.332l.617-2.558a1.452,1.452,0,0,0,.038-.25c0-.174-.125-.279-.345-.279s-.31.133-.348.325l-.454,2.383h-.011l-.529-2.437A.3.3,0,0,0,28.86,44a.326.326,0,0,0-.36.3,2.331,2.331,0,0,0,.046.236Z" fill="#d5e8f2"/>
          <path d="M31.768,48a.214.214,0,0,1-.205-.232v-.443h-.5c-.152,0-.264-.078-.264-.18s.112-.185.264-.185h.5v-.441a.208.208,0,1,1,.412,0v.441h.5c.153,0,.264.079.264.185s-.111.18-.264.18h-.5v.443A.212.212,0,0,1,31.768,48Z" fill="#d5e8f2"/>
          <path d="M33.97,44.473h.308c.342,0,.455.14.455.48,0,.365-.2.475-.488.475H33.97Zm-.707,2.639a.355.355,0,0,0,.707,0V45.9h.308c.276,0,.408.118.42.352l.029.863c.012.22.173.319.435.319.237,0,.338-.1.338-.2,0-.169-.046-.338-.046-.526v-.359c0-.394-.065-.6-.441-.717.327-.117.46-.318.46-.764A.77.77,0,0,0,34.62,44h-.981c-.255,0-.376.1-.376.339Z" fill="#d5e8f2"/>
        </g>
        <g>
          <path d="M30.439,14.937a2.326,2.326,0,0,1,1.645-.587,2.29,2.29,0,0,1,1.6.7.2.2,0,0,0,.137.055.183.183,0,0,0,.123-.043.172.172,0,0,0,.013-.246,2.746,2.746,0,0,0-3.766-.124.162.162,0,0,0-.008.243A.193.193,0,0,0,30.439,14.937Z" fill="#d5e8f2"/>
          <path d="M32.8,16.258a.171.171,0,0,0,.121-.047.165.165,0,0,0,.013-.243,1.339,1.339,0,0,0-1.823-.061.17.17,0,0,0-.007.244.192.192,0,0,0,.259.006.946.946,0,0,1,1.3.046A.2.2,0,0,0,32.8,16.258Z" fill="#d5e8f2"/>
          <path d="M33.329,15.667a.173.173,0,0,0,.122-.044.165.165,0,0,0,.013-.243,2.024,2.024,0,0,0-1.391-.608,2.048,2.048,0,0,0-1.428.513.164.164,0,0,0-.007.244.2.2,0,0,0,.259.006,1.669,1.669,0,0,1,2.3.078A.2.2,0,0,0,33.329,15.667Z" fill="#d5e8f2"/>
          <path d="M33.363,16.881l-1.346,1.27c-.006.007-.008.012-.016.016s-.007-.009-.011-.016l-1.35-1.27a.383.383,0,0,0-.535-.026.325.325,0,0,0,.031.5l1.345,1.27a.542.542,0,0,0,.123.081.308.308,0,0,0,0,.059v1.81a.4.4,0,1,0,.806,0v-1.81c0-.019,0-.037,0-.059a.453.453,0,0,0,.12-.081l1.345-1.27a.33.33,0,0,0,.03-.5A.382.382,0,0,0,33.363,16.881Z" fill="#d5e8f2"/>
          <path d="M31.489,16.913a.518.518,0,0,0,.512.493.507.507,0,0,0,.515-.493.515.515,0,0,0-1.027,0Z" fill="#d5e8f2"/>
        </g>
        <g>
          <path d="M45.8,34.115a.373.373,0,1,1-.746,0V31.9a.373.373,0,1,1,.746,0Z" fill="#d5e8f2"/>
          <path d="M45.854,30.73a.409.409,0,0,1-.425.377A.419.419,0,0,1,45,30.73a.414.414,0,0,1,.429-.362.409.409,0,0,1,.425.362" fill="#d5e8f2"/>
          <path d="M48,29.827a.369.369,0,0,1-.388.345.381.381,0,0,1-.39-.345.374.374,0,0,1,.39-.327.37.37,0,0,1,.388.327" fill="#d5e8f2"/>
          <path d="M47.067,30.622c-.069.174-.3.8-.3.8a4.793,4.793,0,0,0-.3.813c0,.066.047.134.2.134a1.226,1.226,0,0,0,.986-.454c.016-.024.009-.033,0-.044l-.061-.056a.034.034,0,0,0-.042.006c-.03.037-.272.27-.375.27-.051,0-.064-.028-.064-.06a.821.821,0,0,1,.082-.268l.375-.916c.1-.254.088-.33-.1-.4A.277.277,0,0,0,47.067,30.622Z" fill="#d5e8f2"/>
        </g>
        <path d="M29,28.488l6.825,3.5L29,35.491v-7m-.359-1.155c-.315,0-.641.167-.641.857v7.6s0,.878.651.878a1.291,1.291,0,0,0,.578-.17l7.557-3.875s1.231-.633,0-1.262l-7.557-3.878a1.479,1.479,0,0,0-.588-.149Z" fill="#d5e8f2"/>
        <path d="M39.883,29.1c0-2.321-3.528-5.1-7.882-5.1s-7.884,2.779-7.884,5.1S27.646,32.5,32,32.5,39.883,31.421,39.883,29.1Z" opacity="0.39" fill="url(#e)" style="mix-blend-mode: screen"/>
      </g>
      <g>
        <g>
          <path d="M52.862,49.249a2.368,2.368,0,0,0,.165.868,2.249,2.249,0,0,0,.516.775l.8.8a11.242,11.242,0,0,1-2.652,2.652l-.8-.8a2.193,2.193,0,0,0-.774-.517,2.344,2.344,0,0,0-.868-.165,2.407,2.407,0,0,0-.892.165,2.2,2.2,0,0,0-.751.481,2.436,2.436,0,0,0-.528.751,2.249,2.249,0,0,0-.2.95v1.127c-.312.047-.626.086-.938.116a9.4,9.4,0,0,1-1.878,0q-.47-.045-.938-.116V55.21a2.265,2.265,0,0,0-.2-.95,2.453,2.453,0,0,0-.528-.751,2.178,2.178,0,0,0-.763-.481,2.437,2.437,0,0,0-.88-.165,2.34,2.34,0,0,0-.868.165,2.193,2.193,0,0,0-.774.517l-.8.8a11.242,11.242,0,0,1-2.652-2.652l.8-.8a2.249,2.249,0,0,0,.516-.775,2.368,2.368,0,0,0,.165-.868,2.459,2.459,0,0,0-.165-.88,2.212,2.212,0,0,0-.481-.764,2.445,2.445,0,0,0-.751-.527,2.249,2.249,0,0,0-.95-.2H33.665q-.072-.471-.118-.939a9.4,9.4,0,0,1,0-1.878q.047-.468.118-.939h1.126a2.249,2.249,0,0,0,.95-.2,2.448,2.448,0,0,0,.751-.528,2.229,2.229,0,0,0,.481-.752,2.422,2.422,0,0,0,.165-.891,2.356,2.356,0,0,0-.165-.868,2.239,2.239,0,0,0-.516-.775l-.8-.8a11.242,11.242,0,0,1,2.652-2.652l.8.8a2.207,2.207,0,0,0,.774.517,2.36,2.36,0,0,0,.868.165,2.459,2.459,0,0,0,.88-.165,2.208,2.208,0,0,0,.763-.481,2.524,2.524,0,0,0,.528-.739,2.242,2.242,0,0,0,.2-.962V33.665q.468-.07.938-.116a9.022,9.022,0,0,1,1.878,0c.312.03.626.069.938.116v1.127a2.3,2.3,0,0,0,1.479,2.182,2.428,2.428,0,0,0,.892.165,2.536,2.536,0,0,0,.856-.154,2.067,2.067,0,0,0,.786-.5l.8-.822a11.242,11.242,0,0,1,2.652,2.652l-.8.8a2.239,2.239,0,0,0-.516.775,2.356,2.356,0,0,0-.165.868,2.422,2.422,0,0,0,.165.891,2.229,2.229,0,0,0,.481.752,2.505,2.505,0,0,0,.739.528,2.224,2.224,0,0,0,.962.2h1.126c.048.314.086.627.118.939s.047.625.047.938-.016.627-.047.94-.07.625-.118.939H55.209a2.224,2.224,0,0,0-.962.2,2.5,2.5,0,0,0-.739.527,2.212,2.212,0,0,0-.481.764A2.459,2.459,0,0,0,52.862,49.249ZM45,48.5a3.358,3.358,0,0,0,1.359-.278,3.545,3.545,0,0,0,1.863-1.863,3.461,3.461,0,0,0,0-2.718,3.542,3.542,0,0,0-1.863-1.864,3.472,3.472,0,0,0-2.718,0,3.542,3.542,0,0,0-1.863,1.864,3.461,3.461,0,0,0,0,2.718,3.545,3.545,0,0,0,1.863,1.863A3.358,3.358,0,0,0,45,48.5Z" fill="#fff" stroke="#fff" stroke-linejoin="round" stroke-width="3" opacity="0.5"/>
          <path d="M52.862,49.249a2.368,2.368,0,0,0,.165.868,2.249,2.249,0,0,0,.516.775l.8.8a11.242,11.242,0,0,1-2.652,2.652l-.8-.8a2.193,2.193,0,0,0-.774-.517,2.344,2.344,0,0,0-.868-.165,2.407,2.407,0,0,0-.892.165,2.2,2.2,0,0,0-.751.481,2.436,2.436,0,0,0-.528.751,2.249,2.249,0,0,0-.2.95v1.127c-.312.047-.626.086-.938.116a9.4,9.4,0,0,1-1.878,0q-.47-.045-.938-.116V55.21a2.265,2.265,0,0,0-.2-.95,2.453,2.453,0,0,0-.528-.751,2.178,2.178,0,0,0-.763-.481,2.437,2.437,0,0,0-.88-.165,2.34,2.34,0,0,0-.868.165,2.193,2.193,0,0,0-.774.517l-.8.8a11.242,11.242,0,0,1-2.652-2.652l.8-.8a2.249,2.249,0,0,0,.516-.775,2.368,2.368,0,0,0,.165-.868,2.459,2.459,0,0,0-.165-.88,2.212,2.212,0,0,0-.481-.764,2.445,2.445,0,0,0-.751-.527,2.249,2.249,0,0,0-.95-.2H33.665q-.072-.471-.118-.939a9.4,9.4,0,0,1,0-1.878q.047-.468.118-.939h1.126a2.249,2.249,0,0,0,.95-.2,2.448,2.448,0,0,0,.751-.528,2.229,2.229,0,0,0,.481-.752,2.422,2.422,0,0,0,.165-.891,2.356,2.356,0,0,0-.165-.868,2.239,2.239,0,0,0-.516-.775l-.8-.8a11.242,11.242,0,0,1,2.652-2.652l.8.8a2.207,2.207,0,0,0,.774.517,2.36,2.36,0,0,0,.868.165,2.459,2.459,0,0,0,.88-.165,2.208,2.208,0,0,0,.763-.481,2.524,2.524,0,0,0,.528-.739,2.242,2.242,0,0,0,.2-.962V33.665q.468-.07.938-.116a9.022,9.022,0,0,1,1.878,0c.312.03.626.069.938.116v1.127a2.3,2.3,0,0,0,1.479,2.182,2.428,2.428,0,0,0,.892.165,2.536,2.536,0,0,0,.856-.154,2.067,2.067,0,0,0,.786-.5l.8-.822a11.242,11.242,0,0,1,2.652,2.652l-.8.8a2.239,2.239,0,0,0-.516.775,2.356,2.356,0,0,0-.165.868,2.422,2.422,0,0,0,.165.891,2.229,2.229,0,0,0,.481.752,2.505,2.505,0,0,0,.739.528,2.224,2.224,0,0,0,.962.2h1.126c.048.314.086.627.118.939s.047.625.047.938-.016.627-.047.94-.07.625-.118.939H55.209a2.224,2.224,0,0,0-.962.2,2.5,2.5,0,0,0-.739.527,2.212,2.212,0,0,0-.481.764A2.459,2.459,0,0,0,52.862,49.249ZM45,48.5a3.358,3.358,0,0,0,1.359-.278,3.545,3.545,0,0,0,1.863-1.863,3.461,3.461,0,0,0,0-2.718,3.542,3.542,0,0,0-1.863-1.864,3.472,3.472,0,0,0-2.718,0,3.542,3.542,0,0,0-1.863,1.864,3.461,3.461,0,0,0,0,2.718,3.545,3.545,0,0,0,1.863,1.863A3.358,3.358,0,0,0,45,48.5Z" stroke="#323232" stroke-linejoin="round" fill="url(#f)"/>
        </g>
        <g opacity="0.2">
          <path d="M37.438,39.7a2.906,2.906,0,0,1,.153.558,2.944,2.944,0,0,0,.047-.508,2.887,2.887,0,0,0-.2-1.05,2.737,2.737,0,0,0-.627-.947l-.025-.025c-.157.177-.324.345-.469.533l.494.492A2.737,2.737,0,0,1,37.438,39.7Z"/>
          <path d="M52.563,38.7a2.855,2.855,0,0,0-.2,1.052,2.956,2.956,0,0,0,.047.509,2.828,2.828,0,0,1,.154-.561,2.71,2.71,0,0,1,.625-.944l.495-.493c-.145-.188-.312-.356-.469-.533l-.026.026A2.71,2.71,0,0,0,52.563,38.7Z"/>
          <path d="M55.956,44.89c-.017.163-.035.326-.056.489h-.691a2.716,2.716,0,0,0-1.176.247,3,3,0,0,0-.886.633,2.7,2.7,0,0,0-.587.932,2.973,2.973,0,0,0-.2,1.058,2.855,2.855,0,0,0,.047.5,3.007,3.007,0,0,1,.151-.555,2.7,2.7,0,0,1,.587-.932,3,3,0,0,1,.886-.633,2.716,2.716,0,0,1,1.176-.247H55.9c.021-.163.039-.326.056-.489.029-.3.044-.592.044-.89,0-.167-.015-.333-.025-.5C55.968,44.63,55.969,44.76,55.956,44.89Z"/>
          <path d="M37.44,48.192a3.1,3.1,0,0,1,.151.554,2.864,2.864,0,0,0,.047-.5,3,3,0,0,0-.2-1.057,2.715,2.715,0,0,0-.587-.933,2.94,2.94,0,0,0-.9-.635,2.737,2.737,0,0,0-1.159-.245H34.1c-.021-.163-.039-.327-.056-.491-.013-.129-.012-.259-.019-.388-.009.167-.025.334-.025.5a8.771,8.771,0,0,0,.044.888c.017.164.035.328.056.491h.691a2.737,2.737,0,0,1,1.159.245,2.94,2.94,0,0,1,.9.635A2.715,2.715,0,0,1,37.44,48.192Z"/>
          <path d="M51.737,52.684l-.491-.492a2.7,2.7,0,0,0-.947-.629,2.952,2.952,0,0,0-2.122,0,2.72,2.72,0,0,0-.918.586,2.964,2.964,0,0,0-.636.9,2.747,2.747,0,0,0-.246,1.159V54.9c-.163.021-.326.038-.489.055a8.531,8.531,0,0,1-1.779,0c-.162-.016-.324-.033-.486-.054V54.21a2.764,2.764,0,0,0-.246-1.159,2.986,2.986,0,0,0-.636-.9,2.691,2.691,0,0,0-.93-.586,2.912,2.912,0,0,0-2.107,0,2.688,2.688,0,0,0-.948.629l-.493.493a10.786,10.786,0,0,1-1.477-1.413l-.469.467a10.8,10.8,0,0,0,1.946,1.946l.493-.493a2.688,2.688,0,0,1,.948-.629,2.912,2.912,0,0,1,2.107,0,2.691,2.691,0,0,1,.93.586,2.986,2.986,0,0,1,.636.9,2.764,2.764,0,0,1,.246,1.159V55.9c.162.021.324.038.486.054a8.531,8.531,0,0,0,1.779,0c.163-.017.326-.034.489-.055V55.21a2.747,2.747,0,0,1,.246-1.159,2.964,2.964,0,0,1,.636-.9,2.72,2.72,0,0,1,.918-.586,2.952,2.952,0,0,1,2.122,0,2.7,2.7,0,0,1,.947.629l.491.492a10.8,10.8,0,0,0,1.946-1.946l-.469-.467A10.786,10.786,0,0,1,51.737,52.684Z"/>
        </g>
        <g opacity="0.3">
          <path d="M52.561,41.822a2.79,2.79,0,0,1-.152-.56,2.769,2.769,0,0,0-.047.491,2.905,2.905,0,0,0,.2,1.069,2.7,2.7,0,0,0,.586.921,3,3,0,0,0,.886.633,2.735,2.735,0,0,0,1.176.247H55.9c.021.163.039.326.056.489.013.13.012.259.019.389.01-.167.025-.333.025-.5q0-.444-.044-.888c-.017-.163-.035-.326-.056-.489h-.691a2.735,2.735,0,0,1-1.176-.247,3,3,0,0,1-.886-.633A2.7,2.7,0,0,1,52.561,41.822Z" fill="#fff"/>
          <path d="M38.263,37.318l.491.492a2.7,2.7,0,0,0,.947.629,2.92,2.92,0,0,0,2.106,0,2.706,2.706,0,0,0,.935-.589,3.034,3.034,0,0,0,.633-.885,2.732,2.732,0,0,0,.248-1.177V35.1c.162-.021.325-.039.49-.055a8.531,8.531,0,0,1,1.779,0c.162.015.323.033.485.054v.69a2.806,2.806,0,0,0,1.8,2.648,2.99,2.99,0,0,0,2.1.018,2.593,2.593,0,0,0,.979-.627l.493-.508a10.779,10.779,0,0,1,1.472,1.409l.469-.467a10.781,10.781,0,0,0-1.941-1.942l-.493.508a2.593,2.593,0,0,1-.979.627,2.99,2.99,0,0,1-2.1-.018,2.8,2.8,0,0,1-1.8-2.648V34.1c-.162-.021-.323-.039-.485-.054a8.531,8.531,0,0,0-1.779,0c-.165.016-.328.034-.49.055v.69a2.732,2.732,0,0,1-.248,1.177,3.034,3.034,0,0,1-.633.885,2.706,2.706,0,0,1-.935.589,2.92,2.92,0,0,1-2.106,0,2.7,2.7,0,0,1-.947-.629l-.491-.492a10.8,10.8,0,0,0-1.946,1.946l.469.467A10.786,10.786,0,0,1,38.263,37.318Z" fill="#fff"/>
          <path d="M52.561,50.3a2.888,2.888,0,0,1-.152-.551,2.942,2.942,0,0,0-.047.5,2.881,2.881,0,0,0,.2,1.048,2.724,2.724,0,0,0,.628.949l.025.025c.157-.177.324-.345.469-.533l-.494-.492A2.724,2.724,0,0,1,52.561,50.3Z" fill="#fff"/>
          <path d="M37.438,51.3a2.9,2.9,0,0,0,.2-1.049,2.942,2.942,0,0,0-.047-.5,2.963,2.963,0,0,1-.153.552,2.73,2.73,0,0,1-.626.947l-.495.493c.145.188.312.356.469.533l.026-.026A2.73,2.73,0,0,0,37.438,51.3Z" fill="#fff"/>
          <path d="M34.044,45.112c.017-.163.035-.326.056-.489h.691a2.756,2.756,0,0,0,1.159-.245,2.94,2.94,0,0,0,.9-.635,2.739,2.739,0,0,0,.585-.918,2.94,2.94,0,0,0,.2-1.072,2.8,2.8,0,0,0-.047-.492,2.885,2.885,0,0,1-.153.564,2.739,2.739,0,0,1-.585.918,2.94,2.94,0,0,1-.9.635,2.756,2.756,0,0,1-1.159.245H34.1c-.021.163-.039.326-.056.489A8.829,8.829,0,0,0,34,45c0,.167.016.333.025.5C34.032,45.371,34.031,45.242,34.044,45.112Z" fill="#fff"/>
        </g>
        <path d="M45,40a5,5,0,1,0,5,5A5,5,0,0,0,45,40Zm0,9a4,4,0,1,1,4-4A4,4,0,0,1,45,49Z" opacity="0.3" fill="url(#g)"/>
      </g>
    </g>
  </g>
</svg>
