<svg xmlns="http://www.w3.org/2000/svg" xmlns:xlink="http://www.w3.org/1999/xlink" width="64" height="64" viewBox="0 0 64 64">
  <defs>
    <linearGradient id="a" x1="25" y1="15.158" x2="40.992" y2="42.856" gradientUnits="userSpaceOnUse">
      <stop offset="0" stop-color="#d7d7d7"/>
      <stop offset="1" stop-color="#969696"/>
    </linearGradient>
    <linearGradient id="b" x1="25.047" y1="15.125" x2="40.784" y2="42.382" gradientUnits="userSpaceOnUse">
      <stop offset="0" stop-color="#aaa"/>
      <stop offset="1" stop-color="#5a5a5a"/>
    </linearGradient>
    <linearGradient id="c" x1="26.126" y1="26.183" x2="33.196" y2="38.428" gradientUnits="userSpaceOnUse">
      <stop offset="0" stop-color="#8cd7f5"/>
      <stop offset="1" stop-color="#376e8c"/>
    </linearGradient>
    <linearGradient id="d" x1="24.588" y1="9.578" x2="34.015" y2="25.906" gradientUnits="userSpaceOnUse">
      <stop offset="0" stop-color="#f5f5f5"/>
      <stop offset="1" stop-color="#bebebe"/>
    </linearGradient>
    <linearGradient id="e" x1="30.533" y1="6.09" x2="37.844" y2="18.755" gradientUnits="userSpaceOnUse">
      <stop offset="0" stop-color="#fff"/>
      <stop offset="1" stop-color="#f0f0f0"/>
    </linearGradient>
    <linearGradient id="f" x1="30.723" y1="11.83" x2="39.076" y2="26.299" gradientUnits="userSpaceOnUse">
      <stop offset="0" stop-color="#fff"/>
      <stop offset="1" stop-color="#d2d2d2"/>
    </linearGradient>
    <linearGradient id="g" x1="33.634" y1="21.884" x2="36.279" y2="26.466" xlink:href="#e"/>
    <linearGradient id="h" x1="31.967" y1="13.267" x2="38.638" y2="24.822" xlink:href="#c"/>
    <linearGradient id="i" x1="34.465" y1="13.524" x2="35.535" y2="15.376" xlink:href="#c"/>
    <linearGradient id="j" x1="34.426" y1="16.055" x2="35.574" y2="18.045" xlink:href="#c"/>
    <linearGradient id="k" x1="34.426" y1="18.555" x2="35.574" y2="20.545" xlink:href="#c"/>
    <linearGradient id="l" x1="34.62" y1="13.371" x2="38.379" y2="19.881" xlink:href="#c"/>
    <linearGradient id="m" x1="31.621" y1="14.121" x2="35.38" y2="20.632" xlink:href="#c"/>
    <linearGradient id="n" x1="10.395" y1="36.77" x2="17.856" y2="49.692" gradientUnits="userSpaceOnUse">
      <stop offset="0" stop-color="#82bedc"/>
      <stop offset="1" stop-color="#285a78"/>
    </linearGradient>
    <linearGradient id="o" x1="18.677" y1="34.085" x2="24.765" y2="44.629" gradientUnits="userSpaceOnUse">
      <stop offset="0" stop-color="#a0e1fa"/>
      <stop offset="1" stop-color="#73c3e1"/>
    </linearGradient>
    <linearGradient id="p" x1="14.544" y1="34.405" x2="21.187" y2="45.912" xlink:href="#o"/>
    <linearGradient id="q" x1="11.09" y1="35.097" x2="18.762" y2="48.386" xlink:href="#o"/>
    <linearGradient id="r" x1="19.417" y1="40.842" x2="23.321" y2="47.604" xlink:href="#c"/>
    <linearGradient id="s" x1="17" y1="47.498" x2="19" y2="47.498" gradientUnits="userSpaceOnUse">
      <stop offset="0" stop-color="#464646"/>
      <stop offset="1" stop-color="#141414"/>
    </linearGradient>
    <linearGradient id="v" x1="39.283" y1="35.099" x2="50.717" y2="54.903" gradientUnits="userSpaceOnUse">
      <stop offset="0" stop-color="#fff"/>
      <stop offset="1" stop-color="#d4d5d3"/>
    </linearGradient>
    <linearGradient id="w" x1="45" y1="50" x2="45" y2="40.77" gradientUnits="userSpaceOnUse">
      <stop offset="0" stop-color="#fff"/>
      <stop offset="1"/>
    </linearGradient>
  </defs>
  <title>5305_X3DOPME_AP_AppIcon_r21x</title>
  <g>
    <path d="M17,29.02A16,16,0,1,1,32.981,45,16.046,16.046,0,0,1,17,29.02Z" fill="url(#a)"/>
    <g>
      <path d="M32.724,44.5a1.4,1.4,0,0,0,.623-.287.4.4,0,0,1,.244-.09l.087.348.054.007q-.408.023-.815.023Zm-1.486-.1a14.8,14.8,0,0,1-1.68-.3.736.736,0,0,0,.068-.069c.345.047.613.075.881.1l.524.057A.674.674,0,0,0,31.238,44.4ZM20.584,38.186A15.7,15.7,0,0,1,17.5,28.609a2.257,2.257,0,0,1,.542-1.684.96.96,0,0,0,.129-.164,3.531,3.531,0,0,0,.287-.463c.048.02.1.038.153.055A30.365,30.365,0,0,1,23.1,28.159a1.16,1.16,0,0,0,.66,1.194,11.125,11.125,0,0,1,1.354.9c.118.091.134.147.134.147a.6.6,0,0,1-.175.161l-.125.083a1.637,1.637,0,0,0-1.095,1.209l-.095.294c-.119.371-.237.742-.375,1.1a.631.631,0,0,1-.108.217c.009-.021-.057-.028-.2-.072a1.5,1.5,0,0,0-.454-.076,1.175,1.175,0,0,0-.892.416,9.037,9.037,0,0,0-1.667,2.821,1.03,1.03,0,0,0,.085.8C20.29,37.639,20.437,37.912,20.584,38.186Zm25.756-2.54-.79-.2c-.229-.058-.458-.116-.689-.167,0-.7,0-2.606,0-2.606.187.3.445.357.966.381l.412.018.051-.213a.928.928,0,0,0,.854.528,1.342,1.342,0,0,0,.436-.079c.1-.034.2-.069.293-.105l-.3.813c-.211.574-.422,1.147-.646,1.714a1.043,1.043,0,0,1-.635.333Zm-10.123-.159a4.089,4.089,0,0,0-.26-.934c-.157-.348-.334-.683-.512-1.018-.119-.224-.239-.45-.35-.678A.952.952,0,0,1,35,32.515c-.02-.263-.03-.527-.041-.79-.013-.317-.026-.634-.053-.95a2.358,2.358,0,0,0-.134-.567l-.061-.2-.032-.088-.345-1.564c-.043-.192-.357-1.512-.357-1.512l-.543.223a4.419,4.419,0,0,1-1.694.256l-.961-.012c-.469-.436-.861-.847-1.252-1.257l-.752-.786a.233.233,0,0,1-.092-.2,3.431,3.431,0,0,0-.039-.465,1.334,1.334,0,0,1-.018-.421,2.888,2.888,0,0,0,.112-1.08,7.29,7.29,0,0,1,.062-1.071,3.727,3.727,0,0,1,.791-.392,5.051,5.051,0,0,0,.953-.464,2.1,2.1,0,0,1,.242.062,1.5,1.5,0,0,0,.422.083h.24l.019-.018a.573.573,0,0,0,.138.017h.215l.074-.072a.749.749,0,0,0,.255-.118.857.857,0,0,0,.373-.542,1.982,1.982,0,0,0,.009-.371l0-.038.081-.015c.1-.018.213-.038.319-.067l.506-.138-.163-.5-.047-.164a2.258,2.258,0,0,0-.192-.515,6.8,6.8,0,0,0-.543-.835l.381-.147s-.231-1.063-.271-1.237c.223-.121.443-.244.664-.368.518-.29,1.036-.58,1.571-.831a1.84,1.84,0,0,1,.584-.1c.143-.011.288-.022.428-.044.12-.019.238-.05.373-.085l1.015-.248-.261-.286.135-.072c.2-.107.415-.224.639-.332a.6.6,0,0,0,.159.089c5.607,2.118,8.964,5.847,10.26,11.4.089.382.159.77.212,1.168l-.34.342c-.013-.035-.025-.071-.039-.106a2.185,2.185,0,0,0-.153-.3l-.258-.471-.4.142a3.668,3.668,0,0,0-1.372.854c0-.015.011-.031.016-.048a3.865,3.865,0,0,0,.13-.774c.009-.1.018-.2.032-.3l.075-.566H44.664l-.031-.063-.084.063h-.028v.02l-.561.428-.218.183a4.013,4.013,0,0,1-.384.305,1.5,1.5,0,0,1-.143.085c-.009-.026-.046-.077-.094-.165a22.264,22.264,0,0,0-1.353-2.086c-.174-.248-.348-.5-.519-.746a2.838,2.838,0,0,0-.612-.654l-2.39-1.847,1.786,2.7c.225.34.45.68.669,1.023a7.377,7.377,0,0,1,.427.734c.215.445.418.9.622,1.352l.144.321a.826.826,0,0,0,.772.528.993.993,0,0,0,.2-.019c.184-.035.372-.066.561-.1l.16-.027a4.153,4.153,0,0,1-.877.526,4.27,4.27,0,0,0-1.3.866A6.89,6.89,0,0,0,40.343,31.2h0a7.321,7.321,0,0,1-.789.716l-.271.223.032.2a2.55,2.55,0,0,0-.668.882l-.085.179c-.233.5-.465.991-.709,1.481a.954.954,0,0,1-.7.518,5.677,5.677,0,0,1-.866.084ZM18.03,24.9c.036-.133.074-.265.113-.395A.712.712,0,0,1,18.03,24.9Zm2.338-3.287a.622.622,0,0,0-.182-.207.677.677,0,0,0-.392-.117.835.835,0,0,0-.387.094A14.291,14.291,0,0,1,24.136,16.3c.322-.221,1.182-.736,1.534-.939.036-.02.071-.04.1-.06l-.436.514,1.734-.007c.129,0,.256,0,.381.013l.1,0a1.075,1.075,0,0,0,.421-.082l.09.182.374.648,2.857.3,0,.008c-.455.005-1.828.005-1.828.005H27.941l-.152-.275-.5.27a.873.873,0,0,0-.385.378,1.724,1.724,0,0,0-.134.515.729.729,0,0,1-.059.236h0a.826.826,0,0,1-.115.008l-.158,0a2.46,2.46,0,0,0-1.422.43,16.037,16.037,0,0,1-3.293,1.664,1.444,1.444,0,0,0-.612.493l-.262.352C20.685,21.165,20.521,21.382,20.368,21.608Zm10.258-7.2c.208-.215.431-.433.658-.64a.65.65,0,0,1,.459-.169l.055,0Q31.213,14.007,30.626,14.409Z" fill="url(#b)"/>
      <path d="M37.827,14.8c5.37,2.056,8.591,5.645,9.846,10.969l-.652.229a4.233,4.233,0,0,0-.526.227l.145-1.086H44.973l-.161-.324-.43.324h-.361v.271l-.17.128c-.072.055-.138.106-.207.161s-.153.127-.228.192l-.042.036c-.373-.634-.791-1.229-1.2-1.807-.172-.245-.345-.49-.516-.742a3.337,3.337,0,0,0-.717-.765l-4.777-3.692L39.5,23.952l.121.183c.222.335.446.672.662,1.012a7.156,7.156,0,0,1,.4.681c.213.443.415.892.616,1.341l.142.316a1.434,1.434,0,0,0,.455.578,3.728,3.728,0,0,0-.845.659,7.14,7.14,0,0,0-1.143,2.2,6.267,6.267,0,0,1-.662.6,1.116,1.116,0,0,0-.381.55,3.092,3.092,0,0,0-.667.935L38.1,33.2c-.23.49-.459.979-.7,1.459a.454.454,0,0,1-.353.254,3.25,3.25,0,0,1-.434.055,3.694,3.694,0,0,0-.208-.619c-.164-.365-.348-.711-.525-1.046-.117-.22-.233-.439-.342-.661a.479.479,0,0,1-.044-.158c-.019-.259-.029-.518-.04-.777-.013-.323-.027-.646-.053-.966a2.883,2.883,0,0,0-.157-.685c-.017-.05-.034-.1-.045-.139s-.029-.094-.048-.145l-.122-.558c-.07-.32-.14-.641-.211-.957-.043-.2-.091-.394-.141-.6L34.6,27.3l-.269-1.141-1.084.445a3.962,3.962,0,0,1-1.5.219c-.164,0-.329,0-.494-.006l-.3,0c-.359-.364-.711-.735-1.063-1.105-.233-.245-.467-.49-.707-.739-.006-.154-.025-.3-.041-.424-.009-.071-.022-.17-.025-.229a3.634,3.634,0,0,0,.123-1.2c0-.208.007-.547.025-.775a3.841,3.841,0,0,1,.51-.228,5.633,5.633,0,0,0,.851-.395l.021.006a1.933,1.933,0,0,0,.564.1,1.166,1.166,0,0,0,.205-.018,1.16,1.16,0,0,0,.191.017l.448-.006.129-.136a1.254,1.254,0,0,0,.273-.153,1.347,1.347,0,0,0,.563-.869c0-.023.006-.045.008-.067l.035-.009,1.012-.277-.325-1c-.015-.048-.028-.1-.042-.144a2.664,2.664,0,0,0-.236-.624c-.068-.122-.137-.24-.209-.354l.19-.074-.184-.838-.063-.29-.035-.162.335-.188c.529-.3,1.028-.575,1.542-.816a2,2,0,0,1,.41-.054c.158-.012.316-.025.471-.05a4.032,4.032,0,0,0,.42-.095l.182-.046,1.648-.4-.352-.383M27.071,16.3h.148l-.108.081h-.586l.222.264a1.124,1.124,0,0,0-.292.384,1.894,1.894,0,0,0-.152.484,2.923,2.923,0,0,0-1.571.514,15.5,15.5,0,0,1-3.2,1.612,1.959,1.959,0,0,0-.831.664q-.128.173-.258.344l-.146.2a14.16,14.16,0,0,1,4.118-4.139c.133-.09.372-.24.629-.4h1.371c.122,0,.241,0,.357,0l.3,0M18.683,26.9a29.978,29.978,0,0,1,3.911,1.573,1.658,1.658,0,0,0,.917,1.318,10.17,10.17,0,0,1,.874.555,2.294,2.294,0,0,0-1.012,1.36l-.1.3c-.093.289-.185.578-.287.863a1.9,1.9,0,0,0-.37-.038,1.658,1.658,0,0,0-1.262.579,9.1,9.1,0,0,0-1.589,2.557A15.358,15.358,0,0,1,18,28.61a1.79,1.79,0,0,1,.383-1.318,1.713,1.713,0,0,0,.224-.284c.025-.035.05-.072.076-.11m26.681,6.618a3.793,3.793,0,0,0,.443.042l.426.019a1.411,1.411,0,0,0,.855.313c-.161.436-.321.871-.489,1.306l-.567-.139-.338-.085-.331-.084q0-.684,0-1.372M33.98,13c.1.3.177.545.269.824l1.181-.314c-.523-.183-.959-.336-1.45-.51Zm-2.237.1a1.146,1.146,0,0,0-.8.3,13.983,13.983,0,0,0-1.162,1.2.711.711,0,0,0-.079.5c.03.21.105.316.228.316a.487.487,0,0,0,.254-.1c.875-.589,1.742-1.191,2.609-1.792a3.374,3.374,0,0,0,.328-.308c-.453-.034-.815-.043-1.168-.1a1.572,1.572,0,0,0-.214-.015Zm-2.612.516c-.09.116-.167.215-.242.314-.29.384-.577.768-.868,1.152a.543.543,0,0,1-.464.238l-.064,0c-.14-.011-.279-.014-.422-.014-.21,0-.425.007-.653.007.247-.291.5-.581.748-.877-.221-.015-.388-.024-.521-.024-.5,0-.54.122-1.225.514-.355.205-1.228.727-1.567.959A14.825,14.825,0,0,0,17.485,25c-.051.194-.092.352.135.5.539.351.536.409.166.943a1.15,1.15,0,0,1-.106.143A2.761,2.761,0,0,0,17,28.608a16.128,16.128,0,0,0,3.752,10.605c.252.307.312.432.411.432s.211-.1.535-.263c.015-.011.026-.029.064-.067-.054-.1-.1-.2-.154-.294-.34-.627-.688-1.255-1.019-1.89a.541.541,0,0,1-.062-.385A8.672,8.672,0,0,1,22.1,34.074a.673.673,0,0,1,.52-.249.977.977,0,0,1,.3.053,1.308,1.308,0,0,0,.383.074c.257,0,.4-.154.54-.518.176-.466.323-.946.477-1.422a1.163,1.163,0,0,1,.771-.887.944.944,0,0,0,.254-.144c.49-.33.535-.755.068-1.118A11.829,11.829,0,0,0,24,28.918a.672.672,0,0,1-.4-.786.3.3,0,0,0-.206-.382,31.25,31.25,0,0,0-4.64-1.875c-.407-.125-.552-.335-.322-.687a1.378,1.378,0,0,0,.153-1.131.511.511,0,0,1,.006-.206,4.523,4.523,0,0,1,.7-1.7,1.308,1.308,0,0,1,.335-.32.317.317,0,0,1,.164-.043.185.185,0,0,1,.1.025.3.3,0,0,1,.063.258,1.189,1.189,0,0,1-.636.958,1.705,1.705,0,0,0-.246.162c.223.231.433.447.642.665a.332.332,0,0,0,.23.128.308.308,0,0,0,.231-.148c.057-.075.117-.149.192-.245-.251-.175-.486-.337-.722-.5.253-.219.578-.209.757-.569a11.77,11.77,0,0,1,1.1-1.619.968.968,0,0,1,.389-.322,16.657,16.657,0,0,0,3.393-1.716,1.958,1.958,0,0,1,1.142-.344l.1,0h.059c.416,0,.6-.184.663-.627a1.524,1.524,0,0,1,.1-.426c.036-.079.149-.124.229-.184.048.086.1.168.143.256s.04.244.1.271a3.174,3.174,0,0,0,.748.248.114.114,0,0,0,.027,0,.476.476,0,0,0,.308-.172c.04-.049-.042-.2-.082-.3a1.034,1.034,0,0,0-.158-.2h1.243c.5,0,1,0,1.494-.006.09,0,.235-.039.264-.1.113-.256.192-.528.3-.839L28.748,16.1c-.09-.157-.154-.265-.25-.43l0,.01a.4.4,0,0,1,.016-.075,2.183,2.183,0,0,1,.839-1.1c.348-.278.347-.429.007-.72-.064-.055-.138-.1-.227-.164Zm8.592.065a.17.17,0,0,0-.067.013c-.371.172-.727.373-1.025.53l-.754-.529c-.219.495.17.639.419.911-.212.051-.367.1-.525.126a4.334,4.334,0,0,0-1.146.185c-.82.384-1.6.858-2.4,1.289a.25.25,0,0,0-.144.33c.078.32.143.643.212.958-.429.165-.576.282-.244.7a6.162,6.162,0,0,1,.55.834,3.314,3.314,0,0,1,.2.591c-.283.078-.591.071-.706.219s-.03.451-.063.681c-.012.079-.1.158-.175.212a.75.75,0,0,1-.226.072c0,.015-.007.021-.022.021-.064,0-.253-.121-.3-.121-.009,0-.014,0-.011.014.017.08-.018.108-.084.108-.152,0-.471-.149-.7-.149a.31.31,0,0,0-.168.041c-.775.508-1.144.432-1.906.965-.3.208-.122,2.007-.258,2.292s.011.727.009,1.1a.733.733,0,0,0,.232.544c.648.67,1.282,1.352,1.937,2.015a.663.663,0,0,0,.425.181c.321,0,.643.012.963.012a4.845,4.845,0,0,0,1.884-.294c.08.34.155.636.222.937.117.52.228,1.042.343,1.564.01.048.036.092.048.139a3.416,3.416,0,0,1,.171.645c.048.577.051,1.158.093,1.735a1.47,1.47,0,0,0,.143.526c.276.563.6,1.107.854,1.678a4.137,4.137,0,0,1,.253.984c.03.176.1.26.251.26l.03,0a8.727,8.727,0,0,0,1.223-.11A1.454,1.454,0,0,0,38.3,35.1c.274-.552.535-1.111.8-1.669a2.013,2.013,0,0,1,1.016-1.014c.083-.038.086-.049.051-.049-.051,0-.181.023-.267.023s-.12-.019-.028-.094c.19-.156.887-.729.953-.965a6.5,6.5,0,0,1,.953-1.93c.652-.7,1.651-.823,2.3-1.515.044-.047.1-.085.148-.131-.027.5-.053.976-.081,1.494.211-.075.395-.132.573-.206.05-.022.114-.1.109-.146-.069-.538.1-1.119-.294-1.6a.5.5,0,0,0-.392-.23.518.518,0,0,0-.107.011c-.42.085-.845.142-1.267.222a.536.536,0,0,1-.1.011.333.333,0,0,1-.316-.235c-.254-.563-.5-1.13-.772-1.686a8.173,8.173,0,0,0-.455-.783c-.259-.407-.527-.809-.793-1.211a2.409,2.409,0,0,1,.5.54c.628.924,1.312,1.815,1.847,2.791.175.32.333.442.505.442a.876.876,0,0,0,.447-.186c.227-.151.425-.343.638-.515.058-.046.117-.091.18-.139.07.141.131.26.2.384l.373-.1v-.48H45.5a6.279,6.279,0,0,1-.144.988c-.191.616-.144.853.326,1.143a3.336,3.336,0,0,1,1.674-1.329,3.3,3.3,0,0,1,.182.34,1.077,1.077,0,0,1-.171,1.229,1.46,1.46,0,0,0-.464.874c-.037.238-.069.477-.1.716-.679-.155-.4-.744-.525-1.2-.221.036-.519,0-.645.127a1.33,1.33,0,0,0-.285.728c-.019.129.12.3.222.423s.244.312.394.341a3.846,3.846,0,0,0,.651.093c.312,0,.46-.144.9-.558a.733.733,0,0,0,.145-.144.7.7,0,0,0,.121-.28,10.732,10.732,0,0,0,.066-1.089,1.24,1.24,0,0,1,.493-.926c.166.784.314,1.5.465,2.217a2.106,2.106,0,0,0,.2-.8,14.167,14.167,0,0,0-.341-3.455c-1.377-5.9-4.98-9.643-10.572-11.755a1.221,1.221,0,0,0-.361-.143Zm-4.83.861-.81.065.109.7h.641c.021-.262.04-.5.06-.763ZM44.871,30.3c-.222.308-.439.614-.658.92.011.03.018.063.028.092h.022c.063,0,.136.009.2.009a.2.2,0,0,0,.138-.036c.249-.244.458-.524.713-.825l-.444-.16Zm-.038,1.324c-.207.161-.307.453-.532.453a.446.446,0,0,1-.247-.094c-.041.141-.072.239-.1.344.151.051.276.095.412.14,0,1,0,1.982,0,2.962,0,.194.055.276.249.314.4.082.792.19,1.185.287-.041.361.034.484.309.534a.7.7,0,0,0,.124.011,1.433,1.433,0,0,0,1.165-.654c.363-.919.692-1.852,1.042-2.777a.592.592,0,0,0-.113-.64c-.3.113-.595.234-.9.338a.835.835,0,0,1-.274.051c-.273,0-.444-.183-.482-.524-.015-.122-.044-.241-.063-.35-.141,0-.287-.026-.408-.026a.337.337,0,0,0-.2.046c-.113.08-.1.344-.144.522-.578-.026-.564-.03-.722-.537a1.649,1.649,0,0,0-.3-.4Zm-3.935.971a3.668,3.668,0,0,0-2.176,2.268.219.219,0,0,0,.163.073.38.38,0,0,0,.259-.134,9.892,9.892,0,0,0,.747-.825c.345-.442.664-.908,1.007-1.382Zm1.827,2.26a.5.5,0,0,0-.1.012c-.058.242-.117.48-.174.719-.069.312-.093.645-.419.83a.239.239,0,0,0-.065.179c0,.195.018.389.031.608h.485a1.185,1.185,0,0,1,.364-1.126.326.326,0,0,0,.051-.192c0-.264-.006-.531,0-.8.006-.163-.049-.235-.174-.235ZM28.048,42.9a.344.344,0,0,0-.237.1,1.254,1.254,0,0,0-.2.355.359.359,0,0,1-.353.269.578.578,0,0,1-.1-.008,1.421,1.421,0,0,0-.217-.015c-.118,0-.237.009-.354.009A15.349,15.349,0,0,0,32.916,45a15.946,15.946,0,0,0,4.476-.659c-.406-.035-.812-.064-1.217-.107a.5.5,0,0,1-.313-.11,1.057,1.057,0,0,0-.784-.281c-.127.117-.21.256-.294.257h-.012a5.523,5.523,0,0,1-.692-.082c-.036-.145-.062-.257-.093-.374a2.591,2.591,0,0,0-.324-.024.954.954,0,0,0-.63.2.932.932,0,0,1-.606.2c-.036,0-.071,0-.107-.005-.078-.006-.155-.008-.232-.008-.1,0-.2,0-.3.006h-.1c-.131,0-.248-.022-.289-.21-.012-.049-.136-.094-.213-.1-.475-.058-.952-.1-1.426-.16a1.157,1.157,0,0,0-.152-.011.442.442,0,0,0-.373.171.286.286,0,0,1-.2.082l-.025,0c-.6-.075-.638-.116-.756-.688,0-.01,0-.025,0-.03-.061-.06-.118-.159-.186-.167Z" fill="#787878"/>
    </g>
    <path d="M33.02,14A15,15,0,1,1,18,29.02,15.017,15.017,0,0,1,33.02,14m0-1A16,16,0,1,0,49,29.02,16.046,16.046,0,0,0,33.02,13Z" fill="#323232"/>
  </g>
  <path d="M37,25s2.375,16.063-11,19C26,44,20.146,26.958,37,25Z" fill="none" stroke="#000" stroke-miterlimit="10" stroke-width="3" opacity="0.3"/>
  <path d="M24,41C19.125,24.313,36,25,36,25S37.375,38.063,24,41Z" fill="none" stroke="#fff" stroke-linejoin="round" stroke-width="5" opacity="0.5"/>
  <path d="M24,41C19.125,24.313,36,25,36,25S37.375,38.063,24,41Z" fill="none" stroke-miterlimit="10" stroke-width="3" stroke="url(#c)"/>
  <g>
    <g>
      <polygon points="24.423 25.047 24.423 9.673 33.738 9.673 35.577 13.35 35.577 25.004 29.04 28.74 24.423 25.047" fill="url(#d)"/>
      <path d="M33.477,10.1l1.677,3.354V24.759L29.08,28.23l-4.234-3.387V10.1h8.631M34,9.25H24v16l5,4,7-4v-12l-2-4Z" fill="#787878"/>
    </g>
    <g>
      <polygon points="36.168 16.856 24.508 9.568 34.962 7.192 40.545 9.519 39.633 17.722 36.168 16.856" fill="url(#e)"/>
      <path d="M34.924,7.635l5.165,2.152-.823,7.407-2.931-.732L25.6,9.754l9.322-2.119M35,6.75,24,9.25v.5l12,7.5,4,1,1-9-6-2.5Z" fill="#787878"/>
    </g>
    <g>
      <polygon points="29.423 12.581 40.577 9.792 40.577 25.433 29.423 28.686 29.423 12.581" fill="url(#f)"/>
      <path d="M40.154,10.334V25.115L29.846,28.122V12.911l10.308-2.577M41,9.25l-12,3v17l12-3.5V9.25Z" fill="#787878"/>
    </g>
    <g>
      <polygon points="33 22.25 33 27.25 37 26.05 37 21.25 33 22.25" fill="url(#g)"/>
      <polygon points="36 21.506 35 21.75 35 26.65 36 26.35 36 21.506 36 21.506" fill="#787878"/>
    </g>
    <g>
      <polygon points="32.423 22.034 31.423 22.234 31.423 13.581 38.577 11.792 38.577 20.435 37.577 20.735 37.577 25.435 37.423 25.481 37.423 20.708 32.577 21.919 32.577 26.935 32.423 26.981 32.423 22.034" fill="url(#h)"/>
      <path d="M38.154,12.334V20.12l-.308.093v-.047l-1.051.263-4,1-.641.16v.067l-.308.062V13.911l6.308-1.577M39,11.25l-8,2v9.5l1-.2v5l1-.3v-5l4-1v4.8l1-.3v-4.7l1-.3v-9.5Z" fill="#003755"/>
    </g>
    <g>
      <g>
        <polygon points="31.423 15.281 38.577 13.492 38.577 13.62 31.423 15.408 31.423 15.281" fill="url(#i)"/>
        <polygon points="39 12.95 31 14.95 31 15.95 39 13.95 39 12.95 39 12.95" fill="#003755"/>
      </g>
      <g>
        <polygon points="31.423 17.789 38.577 16.179 38.577 16.312 31.423 17.921 31.423 17.789" fill="url(#j)"/>
        <polygon points="39 15.65 31 17.45 31 18.45 39 16.65 39 15.65 39 15.65" fill="#003755"/>
      </g>
      <g>
        <polygon points="31.423 20.289 38.577 18.679 38.577 18.812 31.423 20.421 31.423 20.289" fill="url(#k)"/>
        <polygon points="39 18.15 31 19.95 31 20.95 39 19.15 39 18.15 39 18.15" fill="#003755"/>
      </g>
    </g>
    <g>
      <polygon points="36.423 12.33 36.577 12.292 36.577 20.921 36.423 20.96 36.423 12.33" fill="url(#l)"/>
      <polygon points="37 11.75 36 12 36 21.506 37 21.25 37 11.75 37 11.75" fill="#003755"/>
    </g>
    <g>
      <polygon points="33.423 13.081 33.577 13.042 33.577 21.673 33.423 21.71 33.423 13.081" fill="url(#m)"/>
      <polygon points="34 12.5 33 12.75 33 22.25 34 22.005 34 12.5 34 12.5" fill="#003755"/>
    </g>
    <path d="M34.91,7.8,40,9.917V25L29.219,28.144,25,24.769V10.048L34.91,7.8M35,6.75,24,9.25v16l5,4,12-3.5V9.25l-6-2.5Z" fill="#323232"/>
  </g>
  <g>
    <g>
      <polygon points="7.5 43.793 7.5 38.441 14.847 37.523 20.5 42.234 20.5 46.766 15.031 51.323 7.5 43.793" fill="url(#n)"/>
      <path d="M14.693,38.046,20,42.468v4.064l-4.939,4.115L8,43.586v-4.7l6.693-.837M15,37,7,38v6l8,8,6-5V42l-6-5Z" fill="#003755"/>
    </g>
    <g>
      <polygon points="14.5 38.84 14.5 37.255 19.555 33.578 27.453 37.295 26.553 43.597 19.209 45.433 14.5 38.84" fill="url(#o)"/>
      <path d="M19.61,34.157l7.3,3.433-.8,5.6-6.687,1.672L15,38.68V37.509l4.61-3.352M19.5,33,14,37v2l5,7,8-2,1-7-8.5-4Z" fill="#003755"/>
    </g>
    <g>
      <polygon points="11.5 40.743 11.5 37.227 15.077 34.098 23.5 38.309 23.5 44.576 18.122 45.473 11.5 40.743" fill="url(#p)"/>
      <path d="M15.153,34.7,23,38.618v5.535l-4.756.793L12,40.485V37.454L15.153,34.7M15,33.5,11,37v4l7,5,6-1V38l-9-4.5Z" fill="#003755"/>
    </g>
    <g>
      <polygon points="15.313 44.609 7.5 38.262 7.5 38.227 11.053 35.118 19.5 40.28 19.5 47.96 15.313 44.609" fill="url(#q)"/>
      <path d="M11.106,35.736,19,40.561v6.358l-3.369-2.695L8.255,38.231l2.851-2.5M11,34.5,7,38v.5L15,45l5,4V40l-9-5.5Z" fill="#003755"/>
    </g>
    <g>
      <path d="M15.5,45.19,19.31,40.9l.19-.1V42a.5.5,0,0,0,.325.469A.529.529,0,0,0,20,42.5a.5.5,0,0,0,.377-.172l2.941-3.39.182-.1V40.5a.5.5,0,0,0,.314.464A.508.508,0,0,0,24,41a.5.5,0,0,0,.362-.155l2.917-3.059.221-.078v7.483l-12,6Z" fill="url(#r)"/>
      <path d="M27,38.8v6.079l-11,5.5v-5l3-3.375a1,1,0,0,0,.65.932A1.015,1.015,0,0,0,20,43a1,1,0,0,0,.755-.345L23,40.068V40.5a1,1,0,0,0,.628.928A.988.988,0,0,0,24,41.5a1,1,0,0,0,.724-.31L27,38.8M28,37l-1,.354L24,40.5V38l-1,.542L20,42V40l-1,.5L15,45v7l13-6.5V37Z" fill="#003755"/>
    </g>
    <polygon points="19 48.9 17 49.892 17 46 19 45.104 19 48.9" fill="url(#s)"/>
    <polygon points="23 46.9 21 47.9 21 44.2 23 43.3 23 46.9" fill="url(#s)"/>
    <polygon points="26 45.4 25 45.9 25 42.4 26 42 26 45.4" fill="url(#s)"/>
  </g>
  <g>
    <g>
      <path d="M52.862,49.249a2.368,2.368,0,0,0,.165.868,2.249,2.249,0,0,0,.516.775l.8.8a11.242,11.242,0,0,1-2.652,2.652l-.8-.8a2.193,2.193,0,0,0-.774-.517,2.344,2.344,0,0,0-.868-.165,2.407,2.407,0,0,0-.892.165,2.2,2.2,0,0,0-.751.481,2.436,2.436,0,0,0-.528.751,2.249,2.249,0,0,0-.2.95v1.127c-.312.047-.626.086-.938.116a9.4,9.4,0,0,1-1.878,0q-.47-.045-.938-.116V55.21a2.265,2.265,0,0,0-.2-.95,2.453,2.453,0,0,0-.528-.751,2.178,2.178,0,0,0-.763-.481,2.437,2.437,0,0,0-.88-.165,2.34,2.34,0,0,0-.868.165,2.193,2.193,0,0,0-.774.517l-.8.8a11.242,11.242,0,0,1-2.652-2.652l.8-.8a2.249,2.249,0,0,0,.516-.775,2.368,2.368,0,0,0,.165-.868,2.459,2.459,0,0,0-.165-.88,2.212,2.212,0,0,0-.481-.764,2.445,2.445,0,0,0-.751-.527,2.249,2.249,0,0,0-.95-.2H33.665q-.072-.471-.118-.939a9.4,9.4,0,0,1,0-1.878q.047-.468.118-.939h1.126a2.249,2.249,0,0,0,.95-.2,2.448,2.448,0,0,0,.751-.528,2.229,2.229,0,0,0,.481-.752,2.422,2.422,0,0,0,.165-.891,2.356,2.356,0,0,0-.165-.868,2.239,2.239,0,0,0-.516-.775l-.8-.8a11.242,11.242,0,0,1,2.652-2.652l.8.8a2.207,2.207,0,0,0,.774.517,2.36,2.36,0,0,0,.868.165,2.459,2.459,0,0,0,.88-.165,2.208,2.208,0,0,0,.763-.481,2.524,2.524,0,0,0,.528-.739,2.242,2.242,0,0,0,.2-.962V33.665q.468-.07.938-.116a9.022,9.022,0,0,1,1.878,0c.312.03.626.069.938.116v1.127a2.3,2.3,0,0,0,1.479,2.182,2.428,2.428,0,0,0,.892.165,2.536,2.536,0,0,0,.856-.154,2.067,2.067,0,0,0,.786-.5l.8-.822a11.242,11.242,0,0,1,2.652,2.652l-.8.8a2.239,2.239,0,0,0-.516.775,2.356,2.356,0,0,0-.165.868,2.422,2.422,0,0,0,.165.891,2.229,2.229,0,0,0,.481.752,2.505,2.505,0,0,0,.739.528,2.224,2.224,0,0,0,.962.2h1.126c.048.314.086.627.118.939s.047.625.047.938-.016.627-.047.94-.07.625-.118.939H55.209a2.224,2.224,0,0,0-.962.2,2.5,2.5,0,0,0-.739.527,2.212,2.212,0,0,0-.481.764A2.459,2.459,0,0,0,52.862,49.249ZM45,48.5a3.358,3.358,0,0,0,1.359-.278,3.545,3.545,0,0,0,1.863-1.863,3.461,3.461,0,0,0,0-2.718,3.542,3.542,0,0,0-1.863-1.864,3.472,3.472,0,0,0-2.718,0,3.542,3.542,0,0,0-1.863,1.864,3.461,3.461,0,0,0,0,2.718,3.545,3.545,0,0,0,1.863,1.863A3.358,3.358,0,0,0,45,48.5Z" fill="#fff" stroke="#fff" stroke-linejoin="round" stroke-width="3" opacity="0.5"/>
      <path d="M52.862,49.249a2.368,2.368,0,0,0,.165.868,2.249,2.249,0,0,0,.516.775l.8.8a11.242,11.242,0,0,1-2.652,2.652l-.8-.8a2.193,2.193,0,0,0-.774-.517,2.344,2.344,0,0,0-.868-.165,2.407,2.407,0,0,0-.892.165,2.2,2.2,0,0,0-.751.481,2.436,2.436,0,0,0-.528.751,2.249,2.249,0,0,0-.2.95v1.127c-.312.047-.626.086-.938.116a9.4,9.4,0,0,1-1.878,0q-.47-.045-.938-.116V55.21a2.265,2.265,0,0,0-.2-.95,2.453,2.453,0,0,0-.528-.751,2.178,2.178,0,0,0-.763-.481,2.437,2.437,0,0,0-.88-.165,2.34,2.34,0,0,0-.868.165,2.193,2.193,0,0,0-.774.517l-.8.8a11.242,11.242,0,0,1-2.652-2.652l.8-.8a2.249,2.249,0,0,0,.516-.775,2.368,2.368,0,0,0,.165-.868,2.459,2.459,0,0,0-.165-.88,2.212,2.212,0,0,0-.481-.764,2.445,2.445,0,0,0-.751-.527,2.249,2.249,0,0,0-.95-.2H33.665q-.072-.471-.118-.939a9.4,9.4,0,0,1,0-1.878q.047-.468.118-.939h1.126a2.249,2.249,0,0,0,.95-.2,2.448,2.448,0,0,0,.751-.528,2.229,2.229,0,0,0,.481-.752,2.422,2.422,0,0,0,.165-.891,2.356,2.356,0,0,0-.165-.868,2.239,2.239,0,0,0-.516-.775l-.8-.8a11.242,11.242,0,0,1,2.652-2.652l.8.8a2.207,2.207,0,0,0,.774.517,2.36,2.36,0,0,0,.868.165,2.459,2.459,0,0,0,.88-.165,2.208,2.208,0,0,0,.763-.481,2.524,2.524,0,0,0,.528-.739,2.242,2.242,0,0,0,.2-.962V33.665q.468-.07.938-.116a9.022,9.022,0,0,1,1.878,0c.312.03.626.069.938.116v1.127a2.3,2.3,0,0,0,1.479,2.182,2.428,2.428,0,0,0,.892.165,2.536,2.536,0,0,0,.856-.154,2.067,2.067,0,0,0,.786-.5l.8-.822a11.242,11.242,0,0,1,2.652,2.652l-.8.8a2.239,2.239,0,0,0-.516.775,2.356,2.356,0,0,0-.165.868,2.422,2.422,0,0,0,.165.891,2.229,2.229,0,0,0,.481.752,2.505,2.505,0,0,0,.739.528,2.224,2.224,0,0,0,.962.2h1.126c.048.314.086.627.118.939s.047.625.047.938-.016.627-.047.94-.07.625-.118.939H55.209a2.224,2.224,0,0,0-.962.2,2.5,2.5,0,0,0-.739.527,2.212,2.212,0,0,0-.481.764A2.459,2.459,0,0,0,52.862,49.249ZM45,48.5a3.358,3.358,0,0,0,1.359-.278,3.545,3.545,0,0,0,1.863-1.863,3.461,3.461,0,0,0,0-2.718,3.542,3.542,0,0,0-1.863-1.864,3.472,3.472,0,0,0-2.718,0,3.542,3.542,0,0,0-1.863,1.864,3.461,3.461,0,0,0,0,2.718,3.545,3.545,0,0,0,1.863,1.863A3.358,3.358,0,0,0,45,48.5Z" stroke="#323232" stroke-linejoin="round" fill="url(#v)"/>
    </g>
    <g opacity="0.2">
      <path d="M37.438,39.7a2.906,2.906,0,0,1,.153.558,2.944,2.944,0,0,0,.047-.508,2.887,2.887,0,0,0-.2-1.05,2.737,2.737,0,0,0-.627-.947l-.025-.025c-.157.177-.324.345-.469.533l.494.492A2.737,2.737,0,0,1,37.438,39.7Z"/>
      <path d="M52.563,38.7a2.855,2.855,0,0,0-.2,1.052,2.956,2.956,0,0,0,.047.509,2.828,2.828,0,0,1,.154-.561,2.71,2.71,0,0,1,.625-.944l.495-.493c-.145-.188-.312-.356-.469-.533l-.026.026A2.71,2.71,0,0,0,52.563,38.7Z"/>
      <path d="M55.956,44.89c-.017.163-.035.326-.056.489h-.691a2.716,2.716,0,0,0-1.176.247,3,3,0,0,0-.886.633,2.7,2.7,0,0,0-.587.932,2.973,2.973,0,0,0-.2,1.058,2.855,2.855,0,0,0,.047.5,3.007,3.007,0,0,1,.151-.555,2.7,2.7,0,0,1,.587-.932,3,3,0,0,1,.886-.633,2.716,2.716,0,0,1,1.176-.247H55.9c.021-.163.039-.326.056-.489.029-.3.044-.592.044-.89,0-.167-.015-.333-.025-.5C55.968,44.63,55.969,44.76,55.956,44.89Z"/>
      <path d="M37.44,48.192a3.1,3.1,0,0,1,.151.554,2.864,2.864,0,0,0,.047-.5,3,3,0,0,0-.2-1.057,2.715,2.715,0,0,0-.587-.933,2.94,2.94,0,0,0-.9-.635,2.737,2.737,0,0,0-1.159-.245H34.1c-.021-.163-.039-.327-.056-.491-.013-.129-.012-.259-.019-.388-.009.167-.025.334-.025.5a8.771,8.771,0,0,0,.044.888c.017.164.035.328.056.491h.691a2.737,2.737,0,0,1,1.159.245,2.94,2.94,0,0,1,.9.635A2.715,2.715,0,0,1,37.44,48.192Z"/>
      <path d="M51.737,52.684l-.491-.492a2.7,2.7,0,0,0-.947-.629,2.952,2.952,0,0,0-2.122,0,2.72,2.72,0,0,0-.918.586,2.964,2.964,0,0,0-.636.9,2.747,2.747,0,0,0-.246,1.159V54.9c-.163.021-.326.038-.489.055a8.531,8.531,0,0,1-1.779,0c-.162-.016-.324-.033-.486-.054V54.21a2.764,2.764,0,0,0-.246-1.159,2.986,2.986,0,0,0-.636-.9,2.691,2.691,0,0,0-.93-.586,2.912,2.912,0,0,0-2.107,0,2.688,2.688,0,0,0-.948.629l-.493.493a10.786,10.786,0,0,1-1.477-1.413l-.469.467a10.8,10.8,0,0,0,1.946,1.946l.493-.493a2.688,2.688,0,0,1,.948-.629,2.912,2.912,0,0,1,2.107,0,2.691,2.691,0,0,1,.93.586,2.986,2.986,0,0,1,.636.9,2.764,2.764,0,0,1,.246,1.159V55.9c.162.021.324.038.486.054a8.531,8.531,0,0,0,1.779,0c.163-.017.326-.034.489-.055V55.21a2.747,2.747,0,0,1,.246-1.159,2.964,2.964,0,0,1,.636-.9,2.72,2.72,0,0,1,.918-.586,2.952,2.952,0,0,1,2.122,0,2.7,2.7,0,0,1,.947.629l.491.492a10.8,10.8,0,0,0,1.946-1.946l-.469-.467A10.786,10.786,0,0,1,51.737,52.684Z"/>
    </g>
    <g opacity="0.3">
      <path d="M52.561,41.822a2.79,2.79,0,0,1-.152-.56,2.769,2.769,0,0,0-.047.491,2.905,2.905,0,0,0,.2,1.069,2.7,2.7,0,0,0,.586.921,3,3,0,0,0,.886.633,2.735,2.735,0,0,0,1.176.247H55.9c.021.163.039.326.056.489.013.13.012.259.019.389.01-.167.025-.333.025-.5q0-.444-.044-.888c-.017-.163-.035-.326-.056-.489h-.691a2.735,2.735,0,0,1-1.176-.247,3,3,0,0,1-.886-.633A2.7,2.7,0,0,1,52.561,41.822Z" fill="#fff"/>
      <path d="M38.263,37.318l.491.492a2.7,2.7,0,0,0,.947.629,2.92,2.92,0,0,0,2.106,0,2.706,2.706,0,0,0,.935-.589,3.034,3.034,0,0,0,.633-.885,2.732,2.732,0,0,0,.248-1.177V35.1c.162-.021.325-.039.49-.055a8.531,8.531,0,0,1,1.779,0c.162.015.323.033.485.054v.69a2.806,2.806,0,0,0,1.8,2.648,2.99,2.99,0,0,0,2.1.018,2.593,2.593,0,0,0,.979-.627l.493-.508a10.779,10.779,0,0,1,1.472,1.409l.469-.467a10.781,10.781,0,0,0-1.941-1.942l-.493.508a2.593,2.593,0,0,1-.979.627,2.99,2.99,0,0,1-2.1-.018,2.8,2.8,0,0,1-1.8-2.648V34.1c-.162-.021-.323-.039-.485-.054a8.531,8.531,0,0,0-1.779,0c-.165.016-.328.034-.49.055v.69a2.732,2.732,0,0,1-.248,1.177,3.034,3.034,0,0,1-.633.885,2.706,2.706,0,0,1-.935.589,2.92,2.92,0,0,1-2.106,0,2.7,2.7,0,0,1-.947-.629l-.491-.492a10.8,10.8,0,0,0-1.946,1.946l.469.467A10.786,10.786,0,0,1,38.263,37.318Z" fill="#fff"/>
      <path d="M52.561,50.3a2.888,2.888,0,0,1-.152-.551,2.942,2.942,0,0,0-.047.5,2.881,2.881,0,0,0,.2,1.048,2.724,2.724,0,0,0,.628.949l.025.025c.157-.177.324-.345.469-.533l-.494-.492A2.724,2.724,0,0,1,52.561,50.3Z" fill="#fff"/>
      <path d="M37.438,51.3a2.9,2.9,0,0,0,.2-1.049,2.942,2.942,0,0,0-.047-.5,2.963,2.963,0,0,1-.153.552,2.73,2.73,0,0,1-.626.947l-.495.493c.145.188.312.356.469.533l.026-.026A2.73,2.73,0,0,0,37.438,51.3Z" fill="#fff"/>
      <path d="M34.044,45.112c.017-.163.035-.326.056-.489h.691a2.756,2.756,0,0,0,1.159-.245,2.94,2.94,0,0,0,.9-.635,2.739,2.739,0,0,0,.585-.918,2.94,2.94,0,0,0,.2-1.072,2.8,2.8,0,0,0-.047-.492,2.885,2.885,0,0,1-.153.564,2.739,2.739,0,0,1-.585.918,2.94,2.94,0,0,1-.9.635,2.756,2.756,0,0,1-1.159.245H34.1c-.021.163-.039.326-.056.489A8.829,8.829,0,0,0,34,45c0,.167.016.333.025.5C34.032,45.371,34.031,45.242,34.044,45.112Z" fill="#fff"/>
    </g>
    <path d="M45,40a5,5,0,1,0,5,5A5,5,0,0,0,45,40Zm0,9a4,4,0,1,1,4-4A4,4,0,0,1,45,49Z" opacity="0.3" fill="url(#w)"/>
  </g>
</svg>
