<svg id="v_1X_copy_3" data-name="v  1X copy 3" xmlns="http://www.w3.org/2000/svg" xmlns:xlink="http://www.w3.org/1999/xlink" viewBox="0 0 64 64"><defs><style>.cls-1{fill:#285977;stroke:#00415f;}.cls-1,.cls-2{stroke-linecap:round;stroke-linejoin:round;stroke-width:0.04px;}.cls-2{stroke:#285977;fill:url(#top_white);}.cls-3{fill:#fff;}.cls-4{fill:url(#linear-gradient);}.cls-5{fill:url(#white_front_right);}.cls-6{fill:#f1f0f0;}.cls-7{fill:url(#top_white-2);}.cls-8{fill:url(#linear-gradient-2);}.cls-9{fill:url(#white_left);}.cls-10{fill:#323232;}.cls-11{fill:#797979;}.cls-12{fill:url(#linear-gradient-3);}.cls-13{opacity:0.7;fill:url(#linear-gradient-4);}.cls-14{fill:url(#radial-gradient);}.cls-15{fill:url(#linear-gradient-5);}</style><linearGradient id="top_white" x1="7.56" y1="26.89" x2="32.9" y2="26.89" gradientTransform="translate(13.86 -9.37) rotate(27.21)" gradientUnits="userSpaceOnUse"><stop offset="0" stop-color="#fff"/><stop offset="1" stop-color="#f0f0f0"/></linearGradient><linearGradient id="linear-gradient" x1="28.95" y1="32.75" x2="28.16" y2="33.68" gradientTransform="matrix(0.79, 0.15, -0.46, 1.18, 17.76, -6.67)" gradientUnits="userSpaceOnUse"><stop offset="0" stop-color="#fff"/><stop offset="0.24" stop-color="#fcfcfc"/><stop offset="0.43" stop-color="#f2f2f2"/><stop offset="0.46" stop-color="#f0f0f0"/></linearGradient><linearGradient id="white_front_right" x1="28.02" y1="33.66" x2="28.82" y2="35.04" gradientTransform="matrix(0.79, 0.15, -0.46, 1.18, 17.76, -6.67)" gradientUnits="userSpaceOnUse"><stop offset="0" stop-color="#fff"/><stop offset="1" stop-color="#d2d2d2"/></linearGradient><linearGradient id="top_white-2" x1="27.04" y1="31.24" x2="31.24" y2="31.24" gradientTransform="matrix(0.79, 0.15, -0.46, 1.18, 17.76, -6.67)" xlink:href="#top_white"/><linearGradient id="linear-gradient-2" x1="28.17" y1="32.24" x2="27.06" y2="34.16" gradientTransform="matrix(0.79, 0.15, -0.46, 1.18, 17.76, -6.67)" gradientUnits="userSpaceOnUse"><stop offset="0.16" stop-color="#f5f5f5"/><stop offset="0.27" stop-color="#e7e7e7"/><stop offset="0.48" stop-color="#c1c1c1"/><stop offset="0.5" stop-color="#bebebe"/></linearGradient><linearGradient id="white_left" x1="28.55" y1="33.1" x2="32.21" y2="33.1" gradientTransform="matrix(0.79, 0.15, -0.46, 1.18, 17.76, -6.67)" gradientUnits="userSpaceOnUse"><stop offset="0" stop-color="#f5f5f5"/><stop offset="1" stop-color="#bebebe"/></linearGradient><linearGradient id="linear-gradient-3" x1="35.13" y1="29.41" x2="44.4" y2="45.46" gradientTransform="matrix(0.79, 0.15, -0.46, 1.18, 17.76, -6.67)" gradientUnits="userSpaceOnUse"><stop offset="0.04" stop-color="#141414"/><stop offset="1" stop-color="#464646"/></linearGradient><linearGradient id="linear-gradient-4" x1="22.77" y1="28.26" x2="30.12" y2="28.26" gradientUnits="userSpaceOnUse"><stop offset="0" stop-color="#f5f5f5"/><stop offset="0.13" stop-color="#f4f4f4" stop-opacity="0.98"/><stop offset="0.25" stop-color="#f2f2f2" stop-opacity="0.94"/><stop offset="0.38" stop-color="#ededed" stop-opacity="0.86"/><stop offset="0.5" stop-color="#e7e7e7" stop-opacity="0.75"/><stop offset="0.62" stop-color="#dfdfdf" stop-opacity="0.6"/><stop offset="0.74" stop-color="#d5d5d5" stop-opacity="0.43"/><stop offset="0.86" stop-color="#cacaca" stop-opacity="0.22"/><stop offset="0.97" stop-color="#bebebe" stop-opacity="0"/></linearGradient><radialGradient id="radial-gradient" cx="13.86" cy="17.18" r="9.84" gradientTransform="matrix(1.15, -0.36, 0.18, 0.6, -0.67, 15.9)" gradientUnits="userSpaceOnUse"><stop offset="0.36" stop-color="#f5f5f5"/><stop offset="0.42" stop-color="#f4f4f4" stop-opacity="0.98"/><stop offset="0.47" stop-color="#f2f2f2" stop-opacity="0.94"/><stop offset="0.53" stop-color="#ededed" stop-opacity="0.86"/><stop offset="0.59" stop-color="#e7e7e7" stop-opacity="0.75"/><stop offset="0.64" stop-color="#dfdfdf" stop-opacity="0.6"/><stop offset="0.7" stop-color="#d5d5d5" stop-opacity="0.43"/><stop offset="0.76" stop-color="#cacaca" stop-opacity="0.22"/><stop offset="0.81" stop-color="#bebebe" stop-opacity="0"/></radialGradient><linearGradient id="linear-gradient-5" x1="40.66" y1="20.92" x2="53.97" y2="43.98" gradientUnits="userSpaceOnUse"><stop offset="0" stop-color="#fff"/><stop offset="1" stop-color="#d4d5d3"/></linearGradient></defs><title>1909_A33AAe__R21XArtboard 1</title><g id="Layer_25_copy_7" data-name="Layer 25 copy 7"><g id="ok"><path class="cls-1" d="M31.62,23.63l0,2.79a9.94,9.94,0,0,0-4.49-8,11,11,0,0,0-1.27-.77c-5.09-2.69-11.85-1.74-15.7,2.4a9.66,9.66,0,0,0-2.67,6.71l0-2.8a9.62,9.62,0,0,1,2.67-6.7c3.85-4.15,10.61-5.1,15.7-2.41a12.62,12.62,0,0,1,1.27.77A10,10,0,0,1,31.62,23.63Z"/><path class="cls-1" d="M32.58,23.61l0,2.8a10.35,10.35,0,0,1-2.88,7.24c-4.16,4.48-11.45,5.5-16.95,2.59a14.68,14.68,0,0,1-1.37-.83,10.74,10.74,0,0,1-4.85-8.63c0-.93,0-1.86,0-2.8a10.74,10.74,0,0,0,4.85,8.63,12.89,12.89,0,0,0,1.37.84c5.49,2.9,12.79,1.89,17-2.59A10.43,10.43,0,0,0,32.58,23.61Z"/><path class="cls-2" d="M27.74,15c5.59,3.89,6.46,11,2,15.88-4.16,4.48-11.46,5.49-16.95,2.59a12.89,12.89,0,0,1-1.37-.84c-5.6-3.88-6.48-11-2-15.86,4.15-4.48,11.45-5.51,17-2.6A12.8,12.8,0,0,1,27.74,15ZM29,30.33c4.17-4.5,3.36-11.1-1.82-14.7a12.62,12.62,0,0,0-1.27-.77c-5.09-2.69-11.85-1.74-15.7,2.41C6,21.77,6.8,28.36,12,32a13.7,13.7,0,0,0,1.26.77c5.1,2.69,11.86,1.75,15.71-2.41"/></g><g id="fixation_manche_ok" data-name="fixation manche   ok"><path class="cls-3" d="M28.68,34.42c0-.15-.18-.18-.4-.08l-2.75,1.57.15.42,2.76-1.56c.19-.09.31-.06.34.07C28.75,34.7,28.71,34.56,28.68,34.42Z"/><path id="c3_angle" data-name="c3 angle" class="cls-4" d="M24.83,37.35l-.28-.27a2.45,2.45,0,0,1,1-1.17l.15.42A2.23,2.23,0,0,0,24.83,37.35Z"/><path class="cls-5" d="M24.47,38.39l.36-1-.28-.27-.37,1c-.11.28-.1.47,0,.54l.28.2C24.38,38.8,24.38,38.64,24.47,38.39Z"/><path id="b5" class="cls-6" d="M27.78,33l.87,1.38c-.06-.1-.19-.11-.37,0L27.41,33C27.59,32.87,27.72,32.88,27.78,33Z"/><polygon id="b4" class="cls-7" points="25.53 35.91 24.65 34.52 27.41 32.96 28.28 34.34 25.53 35.91"/><path class="cls-8" d="M25.53,35.91l-.88-1.39a2.48,2.48,0,0,0-1,1.17l-.37,1.05a.58.58,0,0,0,0,.49l.87,1.38a.62.62,0,0,1,0-.49l.37-1A2.45,2.45,0,0,1,25.53,35.91Z"/><path id="contour_face" data-name="contour face" class="cls-9" d="M28.44,34.77c.31-.16.44,0,.29.44l-.37,1a2.15,2.15,0,0,1-.85,1l-2.75,1.56c-.32.16-.45,0-.29-.44l.36-1a2.23,2.23,0,0,1,.85-1Zm-.18,1.54.37-1.05c.13-.33,0-.49-.24-.36l-2.76,1.56a1.85,1.85,0,0,0-.7.84l-.36,1c-.13.33,0,.5.23.37l2.76-1.56a1.79,1.79,0,0,0,.7-.84"/><path id="face" class="cls-10" d="M28.39,34.9c.26-.13.37,0,.24.36l-.37,1.05a1.79,1.79,0,0,1-.7.84L24.8,38.71c-.25.13-.36,0-.23-.37l.36-1a1.85,1.85,0,0,1,.7-.84Z"/></g><path class="cls-10" d="M38.29,49.85c0-.06.06-.82-.14-.71.44.85-1.73,2.5-2.35,2.17C35.45,51.13,26,36.26,26,36.26l-.5.43-.6,1.37s-.18.51-.09.68c.33.61,9.09,12.73,9.72,13.58s2.46.21,2.85-.28a4.28,4.28,0,0,0,.95-2.19Z"/><path class="cls-10" d="M38.29,49.85a1.1,1.1,0,0,0-.06-.69l-9.72-14-.28,0-2.36,1.36-.51.44-.64,1.8s9.14,12.79,9.77,13.64,2.46.21,2.85-.28A4.36,4.36,0,0,0,38.29,49.85Z"/><polygon id="rel_" data-name="rel ***" class="cls-11" points="25.87 36.44 28.23 35.08 28.51 35.11 38.25 49.19 35.58 51.12 25.36 36.88 25.87 36.44 25.87 36.44"/><path id="dessus_" data-name="dessus****" class="cls-12" d="M38.15,49.14c.42.81-2,2.73-2.55,2s-9.73-14.67-9.73-14.67l2.36-1.36S37.94,48.73,38.15,49.14Z"/><polygon id="rel_2" data-name="rel ***" class="cls-11" points="25.87 36.44 35.65 51.19 35.48 51.17 25.36 36.88 25.87 36.44 25.87 36.44"/></g><path class="cls-13" d="M29.31,26.18c1.32,1.23,1,3-.72,3.93l-.14.08-.15.07h0l-.14.05h0l-.14.06h0l-.14.05-.16,0-.16,0h0l-.14,0h0l-.14,0h0l-.15,0h0l-.15,0-.16,0H25.8l-.17,0h0l-.14,0h0l-.14,0h0l-.13,0h0l-.14,0-.16,0-.15,0h0l-.13,0h0l-.13-.05h0l-.13-.06L24,30.21l-.14-.07-.14-.08h0L23.62,30l0,0-.12-.07,0,0-.07-.05h0l-.09-.07-.08-.07,0,0-.08-.07c-1.32-1.23,1.65-.52,3.36-1.46l.08,0,0,0,.05,0,0,0,.05,0,0,0,0,0,0,0,0,0,0,0,0,0,0,0,0,0,0,0,0,0,0,0,0,0,0,0,0,0,0,0,0,0,0,0,0,0,0,0,0,0,0,0,0-.05v0l0,0,0,0v0l0,0,0,0,0,0,0,0,0,0,0,0,0,0v0l0,0v0l0,0,0-.06c.15-.23.27-.45.39-.62l0,0,0-.05,0,0,0,0,0,0,0,0a.69.69,0,0,1,.13-.11l0,0,0,0h.34l.05,0,.06,0H29l0,0h0l0,0,0,0,0,0,0,0,0,0h0l0,0v0Z"/><path id="verre" class="cls-14" d="M6.44,30.91c-3.4-1.85-.82-7.67,5.75-13s14.68-8.14,18.08-6.3.81,7.67-5.76,13S9.83,32.75,6.44,30.91Z"/><g id="ok_Setting_" data-name="ok  Setting ****"><ellipse id="RUSTINE" class="cls-3" cx="47.12" cy="32.87" rx="5.69" ry="5.52" transform="translate(-0.08 0.11) rotate(-0.14)"/><path class="cls-15" d="M45.1,45.39a.49.49,0,0,1-.49-.49V41.65l-.42-.14a8.7,8.7,0,0,1-1-.38L42.86,41l-2.44,2.33a.49.49,0,0,1-.34.14.52.52,0,0,1-.35-.14L36.38,40.1a.49.49,0,0,1-.15-.36.48.48,0,0,1,.15-.36l2.39-2.28-.2-.4c-.14-.3-.28-.6-.39-.91l-.15-.4H35.1a.49.49,0,0,1-.49-.49V30.1a.5.5,0,0,1,.49-.5h3.25l.14-.41a8.7,8.7,0,0,1,.38-1l.17-.37-2.33-2.44a.51.51,0,0,1,0-.69l3.19-3.35a.51.51,0,0,1,.36-.15.48.48,0,0,1,.36.15l2.28,2.39.4-.2a8,8,0,0,1,.91-.39l.4-.15V21.1a.5.5,0,0,1,.49-.5h4.8a.5.5,0,0,1,.49.5V24l.43.13c.33.1.65.22,1,.34l.34.15,2.47-2.12a.49.49,0,0,1,.32-.12.5.5,0,0,1,.33.12l3.26,2.79a.49.49,0,0,1,.17.38.48.48,0,0,1-.17.37L56.2,28l.24.43a7.55,7.55,0,0,1,.39.81l.15.37H58.9a.5.5,0,0,1,.49.5v4.8a.49.49,0,0,1-.49.49H56l-.13.44a9.94,9.94,0,0,1-.35,1l-.13.34,2.11,2.47a.5.5,0,0,1,0,.65l-2.79,3.26a.49.49,0,0,1-.38.17.48.48,0,0,1-.37-.17L52,41.2l-.43.24a7.55,7.55,0,0,1-.81.39l-.38.15V44.9a.49.49,0,0,1-.49.49Zm2-17.58a5,5,0,1,0,5,5A5,5,0,0,0,47.13,27.81Z"/><path class="cls-10" d="M49.79,21.21v3.21l.86.26c.31.09.61.2.91.32l.68.29.57-.49L54.92,23,58,25.64l-1.84,1.57-.75.64.48.87a5.6,5.6,0,0,1,.36.74l.31.75h2.21v4.58H55.58l-.26.86c-.09.31-.2.61-.32.91l-.29.68.49.57L57,39.92,54.36,43l-1.57-1.84-.64-.75-.87.48a5.6,5.6,0,0,1-.74.36l-.75.31v3.21H45.21V41.22l-.82-.28a7.82,7.82,0,0,1-.91-.36l-.74-.34-.59.57-2.07,2-3.2-3,2-1.89.65-.62-.41-.8c-.13-.28-.26-.57-.37-.85l-.29-.79H35.21V30.21h3.57l.28-.82a7.82,7.82,0,0,1,.36-.91l.34-.74-.57-.59-2-2.07,3-3.2,1.89,2,.62.65.8-.41c.28-.13.57-.26.85-.37l.79-.29V21.21h4.58M47.13,38.44a5.62,5.62,0,1,0-5.61-5.62,5.62,5.62,0,0,0,5.61,5.62M49.9,20H45.1A1.1,1.1,0,0,0,44,21.1v1.51A9.16,9.16,0,0,0,43,23l-2-2.07a1.11,1.11,0,0,0-1.6,0l-3.19,3.36a1.1,1.1,0,0,0,0,1.51l2,2.15c-.15.33-.29.67-.41,1H35.1A1.1,1.1,0,0,0,34,30.1v4.8A1.1,1.1,0,0,0,35.1,36h2.51A9.16,9.16,0,0,0,38,37l-2.07,2a1.12,1.12,0,0,0,0,1.6l3.36,3.19a1.1,1.1,0,0,0,1.51,0l2.15-2c.33.15.67.29,1,.41V44.9A1.1,1.1,0,0,0,45.1,46h4.8A1.1,1.1,0,0,0,51,44.9V42.39a7,7,0,0,0,.87-.42l1.66,1.93a1.11,1.11,0,0,0,1.67,0L58,40.64a1.08,1.08,0,0,0,0-1.43L56.11,37c.14-.33.26-.67.37-1H58.9A1.1,1.1,0,0,0,60,34.9V30.1A1.1,1.1,0,0,0,58.9,29H57.39a7,7,0,0,0-.42-.87l1.93-1.66a1.1,1.1,0,0,0,0-1.67L55.64,22a1.08,1.08,0,0,0-1.43,0L52,23.89c-.33-.14-.67-.26-1-.37V21.1A1.1,1.1,0,0,0,49.9,20ZM47.13,37.23a4.41,4.41,0,1,1,4.4-4.41,4.41,4.41,0,0,1-4.4,4.41Z"/></g></svg>