<svg xmlns="http://www.w3.org/2000/svg" xmlns:xlink="http://www.w3.org/1999/xlink" width="64" height="64" viewBox="0 0 64 64">
  <defs>
    <linearGradient id="a" x1="18.252" y1="10.384" x2="39.748" y2="47.616" gradientUnits="userSpaceOnUse">
      <stop offset="0" stop-color="#8cd7f5"/>
      <stop offset="1" stop-color="#376e8c"/>
    </linearGradient>
    <linearGradient id="b" x1="39.283" y1="35.099" x2="50.717" y2="54.903" gradientUnits="userSpaceOnUse">
      <stop offset="0" stop-color="#fff"/>
      <stop offset="1" stop-color="#d4d5d3"/>
    </linearGradient>
    <linearGradient id="c" x1="45" y1="50" x2="45" y2="40.77" gradientUnits="userSpaceOnUse">
      <stop offset="0" stop-color="#fff"/>
      <stop offset="1"/>
    </linearGradient>
  </defs>
  <title>7285_X3DOPCS_AP_r21x</title>
  <g>
    <g>
      <circle cx="29" cy="29" r="21.5" fill="url(#a)"/>
      <path d="M29,8A21,21,0,1,1,8,29,21.024,21.024,0,0,1,29,8m0-1A22,22,0,1,0,51,29,22,22,0,0,0,29,7Z" fill="#003755"/>
    </g>
    <path d="M46,28.5,31,17v7c-10,0-17,5.363-17,13.556,0,5.905,3.866,10.087,8.539,12.478a21.913,21.913,0,0,0,9.344.772C26.18,48.977,19,45.5,19,40c0-7,6-7,12-7v7Z" fill="#fff"/>
  </g>
  <g>
    <g>
      <path d="M52.862,49.249a2.368,2.368,0,0,0,.165.868,2.249,2.249,0,0,0,.516.775l.8.8a11.242,11.242,0,0,1-2.652,2.652l-.8-.8a2.193,2.193,0,0,0-.774-.517,2.344,2.344,0,0,0-.868-.165,2.407,2.407,0,0,0-.892.165,2.2,2.2,0,0,0-.751.481,2.436,2.436,0,0,0-.528.751,2.249,2.249,0,0,0-.2.95v1.127c-.312.047-.626.086-.938.116a9.4,9.4,0,0,1-1.878,0q-.47-.045-.938-.116V55.21a2.265,2.265,0,0,0-.2-.95,2.453,2.453,0,0,0-.528-.751,2.178,2.178,0,0,0-.763-.481,2.437,2.437,0,0,0-.88-.165,2.34,2.34,0,0,0-.868.165,2.193,2.193,0,0,0-.774.517l-.8.8a11.242,11.242,0,0,1-2.652-2.652l.8-.8a2.249,2.249,0,0,0,.516-.775,2.368,2.368,0,0,0,.165-.868,2.459,2.459,0,0,0-.165-.88,2.212,2.212,0,0,0-.481-.764,2.445,2.445,0,0,0-.751-.527,2.249,2.249,0,0,0-.95-.2H33.665q-.072-.471-.118-.939a9.4,9.4,0,0,1,0-1.878q.047-.468.118-.939h1.126a2.249,2.249,0,0,0,.95-.2,2.448,2.448,0,0,0,.751-.528,2.229,2.229,0,0,0,.481-.752,2.422,2.422,0,0,0,.165-.891,2.356,2.356,0,0,0-.165-.868,2.239,2.239,0,0,0-.516-.775l-.8-.8a11.242,11.242,0,0,1,2.652-2.652l.8.8a2.207,2.207,0,0,0,.774.517,2.36,2.36,0,0,0,.868.165,2.459,2.459,0,0,0,.88-.165,2.208,2.208,0,0,0,.763-.481,2.524,2.524,0,0,0,.528-.739,2.242,2.242,0,0,0,.2-.962V33.665q.468-.07.938-.116a9.022,9.022,0,0,1,1.878,0c.312.03.626.069.938.116v1.127a2.3,2.3,0,0,0,1.479,2.182,2.428,2.428,0,0,0,.892.165,2.536,2.536,0,0,0,.856-.154,2.067,2.067,0,0,0,.786-.5l.8-.822a11.242,11.242,0,0,1,2.652,2.652l-.8.8a2.239,2.239,0,0,0-.516.775,2.356,2.356,0,0,0-.165.868,2.422,2.422,0,0,0,.165.891,2.229,2.229,0,0,0,.481.752,2.505,2.505,0,0,0,.739.528,2.224,2.224,0,0,0,.962.2h1.126c.048.314.086.627.118.939s.047.625.047.938-.016.627-.047.94-.07.625-.118.939H55.209a2.224,2.224,0,0,0-.962.2,2.5,2.5,0,0,0-.739.527,2.212,2.212,0,0,0-.481.764A2.459,2.459,0,0,0,52.862,49.249ZM45,48.5a3.358,3.358,0,0,0,1.359-.278,3.545,3.545,0,0,0,1.863-1.863,3.461,3.461,0,0,0,0-2.718,3.542,3.542,0,0,0-1.863-1.864,3.472,3.472,0,0,0-2.718,0,3.542,3.542,0,0,0-1.863,1.864,3.461,3.461,0,0,0,0,2.718,3.545,3.545,0,0,0,1.863,1.863A3.358,3.358,0,0,0,45,48.5Z" fill="#fff" stroke="#fff" stroke-linejoin="round" stroke-width="3" opacity="0.5"/>
      <path d="M52.862,49.249a2.368,2.368,0,0,0,.165.868,2.249,2.249,0,0,0,.516.775l.8.8a11.242,11.242,0,0,1-2.652,2.652l-.8-.8a2.193,2.193,0,0,0-.774-.517,2.344,2.344,0,0,0-.868-.165,2.407,2.407,0,0,0-.892.165,2.2,2.2,0,0,0-.751.481,2.436,2.436,0,0,0-.528.751,2.249,2.249,0,0,0-.2.95v1.127c-.312.047-.626.086-.938.116a9.4,9.4,0,0,1-1.878,0q-.47-.045-.938-.116V55.21a2.265,2.265,0,0,0-.2-.95,2.453,2.453,0,0,0-.528-.751,2.178,2.178,0,0,0-.763-.481,2.437,2.437,0,0,0-.88-.165,2.34,2.34,0,0,0-.868.165,2.193,2.193,0,0,0-.774.517l-.8.8a11.242,11.242,0,0,1-2.652-2.652l.8-.8a2.249,2.249,0,0,0,.516-.775,2.368,2.368,0,0,0,.165-.868,2.459,2.459,0,0,0-.165-.88,2.212,2.212,0,0,0-.481-.764,2.445,2.445,0,0,0-.751-.527,2.249,2.249,0,0,0-.95-.2H33.665q-.072-.471-.118-.939a9.4,9.4,0,0,1,0-1.878q.047-.468.118-.939h1.126a2.249,2.249,0,0,0,.95-.2,2.448,2.448,0,0,0,.751-.528,2.229,2.229,0,0,0,.481-.752,2.422,2.422,0,0,0,.165-.891,2.356,2.356,0,0,0-.165-.868,2.239,2.239,0,0,0-.516-.775l-.8-.8a11.242,11.242,0,0,1,2.652-2.652l.8.8a2.207,2.207,0,0,0,.774.517,2.36,2.36,0,0,0,.868.165,2.459,2.459,0,0,0,.88-.165,2.208,2.208,0,0,0,.763-.481,2.524,2.524,0,0,0,.528-.739,2.242,2.242,0,0,0,.2-.962V33.665q.468-.07.938-.116a9.022,9.022,0,0,1,1.878,0c.312.03.626.069.938.116v1.127a2.3,2.3,0,0,0,1.479,2.182,2.428,2.428,0,0,0,.892.165,2.536,2.536,0,0,0,.856-.154,2.067,2.067,0,0,0,.786-.5l.8-.822a11.242,11.242,0,0,1,2.652,2.652l-.8.8a2.239,2.239,0,0,0-.516.775,2.356,2.356,0,0,0-.165.868,2.422,2.422,0,0,0,.165.891,2.229,2.229,0,0,0,.481.752,2.505,2.505,0,0,0,.739.528,2.224,2.224,0,0,0,.962.2h1.126c.048.314.086.627.118.939s.047.625.047.938-.016.627-.047.94-.07.625-.118.939H55.209a2.224,2.224,0,0,0-.962.2,2.5,2.5,0,0,0-.739.527,2.212,2.212,0,0,0-.481.764A2.459,2.459,0,0,0,52.862,49.249ZM45,48.5a3.358,3.358,0,0,0,1.359-.278,3.545,3.545,0,0,0,1.863-1.863,3.461,3.461,0,0,0,0-2.718,3.542,3.542,0,0,0-1.863-1.864,3.472,3.472,0,0,0-2.718,0,3.542,3.542,0,0,0-1.863,1.864,3.461,3.461,0,0,0,0,2.718,3.545,3.545,0,0,0,1.863,1.863A3.358,3.358,0,0,0,45,48.5Z" stroke="#323232" stroke-linejoin="round" fill="url(#b)"/>
    </g>
    <g opacity="0.2">
      <path d="M37.438,39.7a2.906,2.906,0,0,1,.153.558,2.944,2.944,0,0,0,.047-.508,2.887,2.887,0,0,0-.2-1.05,2.737,2.737,0,0,0-.627-.947l-.025-.025c-.157.177-.324.345-.469.533l.494.492A2.737,2.737,0,0,1,37.438,39.7Z"/>
      <path d="M52.563,38.7a2.855,2.855,0,0,0-.2,1.052,2.956,2.956,0,0,0,.047.509,2.828,2.828,0,0,1,.154-.561,2.71,2.71,0,0,1,.625-.944l.495-.493c-.145-.188-.312-.356-.469-.533l-.026.026A2.71,2.71,0,0,0,52.563,38.7Z"/>
      <path d="M55.956,44.89c-.017.163-.035.326-.056.489h-.691a2.716,2.716,0,0,0-1.176.247,3,3,0,0,0-.886.633,2.7,2.7,0,0,0-.587.932,2.973,2.973,0,0,0-.2,1.058,2.855,2.855,0,0,0,.047.5,3.007,3.007,0,0,1,.151-.555,2.7,2.7,0,0,1,.587-.932,3,3,0,0,1,.886-.633,2.716,2.716,0,0,1,1.176-.247H55.9c.021-.163.039-.326.056-.489.029-.3.044-.592.044-.89,0-.167-.015-.333-.025-.5C55.968,44.63,55.969,44.76,55.956,44.89Z"/>
      <path d="M37.44,48.192a3.1,3.1,0,0,1,.151.554,2.864,2.864,0,0,0,.047-.5,3,3,0,0,0-.2-1.057,2.715,2.715,0,0,0-.587-.933,2.94,2.94,0,0,0-.9-.635,2.737,2.737,0,0,0-1.159-.245H34.1c-.021-.163-.039-.327-.056-.491-.013-.129-.012-.259-.019-.388-.009.167-.025.334-.025.5a8.771,8.771,0,0,0,.044.888c.017.164.035.328.056.491h.691a2.737,2.737,0,0,1,1.159.245,2.94,2.94,0,0,1,.9.635A2.715,2.715,0,0,1,37.44,48.192Z"/>
      <path d="M51.737,52.684l-.491-.492a2.7,2.7,0,0,0-.947-.629,2.952,2.952,0,0,0-2.122,0,2.72,2.72,0,0,0-.918.586,2.964,2.964,0,0,0-.636.9,2.747,2.747,0,0,0-.246,1.159V54.9c-.163.021-.326.038-.489.055a8.531,8.531,0,0,1-1.779,0c-.162-.016-.324-.033-.486-.054V54.21a2.764,2.764,0,0,0-.246-1.159,2.986,2.986,0,0,0-.636-.9,2.691,2.691,0,0,0-.93-.586,2.912,2.912,0,0,0-2.107,0,2.688,2.688,0,0,0-.948.629l-.493.493a10.786,10.786,0,0,1-1.477-1.413l-.469.467a10.8,10.8,0,0,0,1.946,1.946l.493-.493a2.688,2.688,0,0,1,.948-.629,2.912,2.912,0,0,1,2.107,0,2.691,2.691,0,0,1,.93.586,2.986,2.986,0,0,1,.636.9,2.764,2.764,0,0,1,.246,1.159V55.9c.162.021.324.038.486.054a8.531,8.531,0,0,0,1.779,0c.163-.017.326-.034.489-.055V55.21a2.747,2.747,0,0,1,.246-1.159,2.964,2.964,0,0,1,.636-.9,2.72,2.72,0,0,1,.918-.586,2.952,2.952,0,0,1,2.122,0,2.7,2.7,0,0,1,.947.629l.491.492a10.8,10.8,0,0,0,1.946-1.946l-.469-.467A10.786,10.786,0,0,1,51.737,52.684Z"/>
    </g>
    <g opacity="0.3">
      <path d="M52.561,41.822a2.79,2.79,0,0,1-.152-.56,2.769,2.769,0,0,0-.047.491,2.905,2.905,0,0,0,.2,1.069,2.7,2.7,0,0,0,.586.921,3,3,0,0,0,.886.633,2.735,2.735,0,0,0,1.176.247H55.9c.021.163.039.326.056.489.013.13.012.259.019.389.01-.167.025-.333.025-.5q0-.444-.044-.888c-.017-.163-.035-.326-.056-.489h-.691a2.735,2.735,0,0,1-1.176-.247,3,3,0,0,1-.886-.633A2.7,2.7,0,0,1,52.561,41.822Z" fill="#fff"/>
      <path d="M38.263,37.318l.491.492a2.7,2.7,0,0,0,.947.629,2.92,2.92,0,0,0,2.106,0,2.706,2.706,0,0,0,.935-.589,3.034,3.034,0,0,0,.633-.885,2.732,2.732,0,0,0,.248-1.177V35.1c.162-.021.325-.039.49-.055a8.531,8.531,0,0,1,1.779,0c.162.015.323.033.485.054v.69a2.806,2.806,0,0,0,1.8,2.648,2.99,2.99,0,0,0,2.1.018,2.593,2.593,0,0,0,.979-.627l.493-.508a10.779,10.779,0,0,1,1.472,1.409l.469-.467a10.781,10.781,0,0,0-1.941-1.942l-.493.508a2.593,2.593,0,0,1-.979.627,2.99,2.99,0,0,1-2.1-.018,2.8,2.8,0,0,1-1.8-2.648V34.1c-.162-.021-.323-.039-.485-.054a8.531,8.531,0,0,0-1.779,0c-.165.016-.328.034-.49.055v.69a2.732,2.732,0,0,1-.248,1.177,3.034,3.034,0,0,1-.633.885,2.706,2.706,0,0,1-.935.589,2.92,2.92,0,0,1-2.106,0,2.7,2.7,0,0,1-.947-.629l-.491-.492a10.8,10.8,0,0,0-1.946,1.946l.469.467A10.786,10.786,0,0,1,38.263,37.318Z" fill="#fff"/>
      <path d="M52.561,50.3a2.888,2.888,0,0,1-.152-.551,2.942,2.942,0,0,0-.047.5,2.881,2.881,0,0,0,.2,1.048,2.724,2.724,0,0,0,.628.949l.025.025c.157-.177.324-.345.469-.533l-.494-.492A2.724,2.724,0,0,1,52.561,50.3Z" fill="#fff"/>
      <path d="M37.438,51.3a2.9,2.9,0,0,0,.2-1.049,2.942,2.942,0,0,0-.047-.5,2.963,2.963,0,0,1-.153.552,2.73,2.73,0,0,1-.626.947l-.495.493c.145.188.312.356.469.533l.026-.026A2.73,2.73,0,0,0,37.438,51.3Z" fill="#fff"/>
      <path d="M34.044,45.112c.017-.163.035-.326.056-.489h.691a2.756,2.756,0,0,0,1.159-.245,2.94,2.94,0,0,0,.9-.635,2.739,2.739,0,0,0,.585-.918,2.94,2.94,0,0,0,.2-1.072,2.8,2.8,0,0,0-.047-.492,2.885,2.885,0,0,1-.153.564,2.739,2.739,0,0,1-.585.918,2.94,2.94,0,0,1-.9.635,2.756,2.756,0,0,1-1.159.245H34.1c-.021.163-.039.326-.056.489A8.829,8.829,0,0,0,34,45c0,.167.016.333.025.5C34.032,45.371,34.031,45.242,34.044,45.112Z" fill="#fff"/>
    </g>
    <path d="M45,40a5,5,0,1,0,5,5A5,5,0,0,0,45,40Zm0,9a4,4,0,1,1,4-4A4,4,0,0,1,45,49Z" opacity="0.3" fill="url(#c)"/>
  </g>
</svg>
