<svg xmlns="http://www.w3.org/2000/svg" xmlns:xlink="http://www.w3.org/1999/xlink" width="64" height="64" viewBox="0 0 64 64">
  <defs>
    <linearGradient id="a" x1="15.34" y1="5.608" x2="40.651" y2="49.448" gradientUnits="userSpaceOnUse">
      <stop offset="0" stop-color="#82bedc"/>
      <stop offset="1" stop-color="#285a78"/>
    </linearGradient>
    <linearGradient id="b" x1="19.624" y1="11.867" x2="43.931" y2="53.968" gradientUnits="userSpaceOnUse">
      <stop offset="0" stop-color="#8cd7f5"/>
      <stop offset="1" stop-color="#376e8c"/>
    </linearGradient>
    <linearGradient id="c" x1="40.283" y1="34.099" x2="51.717" y2="53.903" gradientUnits="userSpaceOnUse">
      <stop offset="0" stop-color="#fff"/>
      <stop offset="1" stop-color="#d4d5d3"/>
    </linearGradient>
    <linearGradient id="d" x1="46" y1="49" x2="46" y2="39.77" gradientUnits="userSpaceOnUse">
      <stop offset="0" stop-color="#fff"/>
      <stop offset="1"/>
    </linearGradient>
  </defs>
  <title>3268_X3DDRIVCOCE_AP_Appicon_r21x</title>
  <g>
    <g>
      <path d="M9,48.5A1.5,1.5,0,0,1,7.5,47V11A1.5,1.5,0,0,1,9,9.5H19a1.506,1.506,0,0,1,1.2.6L22,12.5a2.514,2.514,0,0,0,2,1H51A1.5,1.5,0,0,1,52.5,15V30.485a1.5,1.5,0,0,1-.187.725L43.2,47.725a1.5,1.5,0,0,1-1.313.775Z" fill="url(#a)"/>
      <path d="M19,10a1.006,1.006,0,0,1,.8.4l1.8,2.4A3.017,3.017,0,0,0,24,14H51a1,1,0,0,1,1,1V30.485a1.009,1.009,0,0,1-.124.483l-9.11,16.515a1,1,0,0,1-.875.517H9a1,1,0,0,1-1-1V11a1,1,0,0,1,1-1H19m0-1H9a2,2,0,0,0-2,2V47a2,2,0,0,0,2,2H41.891a2,2,0,0,0,1.751-1.034l9.109-16.515A2,2,0,0,0,53,30.485V15a2,2,0,0,0-2-2H24a2,2,0,0,1-1.6-.8L20.6,9.8A2,2,0,0,0,19,9Z" fill="#003755"/>
    </g>
    <g>
      <path d="M9.207,48.5l.561-.561a2.482,2.482,0,0,0,.732-1.767V18A1.5,1.5,0,0,1,12,16.5H53A1.5,1.5,0,0,1,54.5,18V47A1.5,1.5,0,0,1,53,48.5Z" fill="url(#b)"/>
      <path d="M53,17a1,1,0,0,1,1,1V47a1,1,0,0,1-1,1H10.379A2.975,2.975,0,0,0,11,46.172V18a1,1,0,0,1,1-1H53m0-1H12a2,2,0,0,0-2,2V46.172a2,2,0,0,1-.586,1.414L8,49H53a2,2,0,0,0,2-2V18a2,2,0,0,0-2-2Z" fill="#003755"/>
    </g>
    <path d="M30.97,19a13.561,13.561,0,0,0-3.493,26.672c-3.057-1.487-5.307-3.629-5.307-7.824,0-5.054,3.83-8.293,10.83-8.293V25.031l9.06,6.785L33,39.355V34.832c-6,0-7.81-.08-7.81,4.523,0,3.556,4.861,5.774,7.764,6.645A13.567,13.567,0,0,0,30.97,19Z" fill="#fff"/>
  </g>
  <g>
    <g>
      <path d="M53.862,48.249a2.368,2.368,0,0,0,.165.868,2.249,2.249,0,0,0,.516.775l.8.8a11.242,11.242,0,0,1-2.652,2.652l-.8-.8a2.193,2.193,0,0,0-.774-.517,2.344,2.344,0,0,0-.868-.165,2.407,2.407,0,0,0-.892.165,2.2,2.2,0,0,0-.751.481,2.436,2.436,0,0,0-.528.751,2.249,2.249,0,0,0-.2.95v1.127c-.312.047-.626.086-.938.116a9.4,9.4,0,0,1-1.878,0q-.47-.045-.938-.116V54.21a2.265,2.265,0,0,0-.2-.95,2.453,2.453,0,0,0-.528-.751,2.178,2.178,0,0,0-.763-.481,2.437,2.437,0,0,0-.88-.165,2.34,2.34,0,0,0-.868.165,2.193,2.193,0,0,0-.774.517l-.8.8a11.242,11.242,0,0,1-2.652-2.652l.8-.8a2.249,2.249,0,0,0,.516-.775,2.368,2.368,0,0,0,.165-.868,2.459,2.459,0,0,0-.165-.88,2.212,2.212,0,0,0-.481-.764,2.445,2.445,0,0,0-.751-.527,2.249,2.249,0,0,0-.95-.2H34.665q-.072-.471-.118-.939a9.4,9.4,0,0,1,0-1.878q.047-.468.118-.939h1.126a2.249,2.249,0,0,0,.95-.2,2.448,2.448,0,0,0,.751-.528,2.229,2.229,0,0,0,.481-.752,2.422,2.422,0,0,0,.165-.891,2.356,2.356,0,0,0-.165-.868,2.239,2.239,0,0,0-.516-.775l-.8-.8a11.242,11.242,0,0,1,2.652-2.652l.8.8a2.207,2.207,0,0,0,.774.517,2.36,2.36,0,0,0,.868.165,2.459,2.459,0,0,0,.88-.165,2.208,2.208,0,0,0,.763-.481,2.524,2.524,0,0,0,.528-.739,2.242,2.242,0,0,0,.2-.962V32.665q.468-.07.938-.116a9.022,9.022,0,0,1,1.878,0c.312.03.626.069.938.116v1.127a2.3,2.3,0,0,0,1.479,2.182,2.428,2.428,0,0,0,.892.165,2.536,2.536,0,0,0,.856-.154,2.067,2.067,0,0,0,.786-.5l.8-.822a11.242,11.242,0,0,1,2.652,2.652l-.8.8a2.239,2.239,0,0,0-.516.775,2.356,2.356,0,0,0-.165.868,2.422,2.422,0,0,0,.165.891,2.229,2.229,0,0,0,.481.752,2.505,2.505,0,0,0,.739.528,2.224,2.224,0,0,0,.962.2h1.126c.048.314.086.627.118.939s.047.625.047.938-.016.627-.047.94-.07.625-.118.939H56.209a2.224,2.224,0,0,0-.962.2,2.5,2.5,0,0,0-.739.527,2.212,2.212,0,0,0-.481.764A2.459,2.459,0,0,0,53.862,48.249ZM46,47.5a3.358,3.358,0,0,0,1.359-.278,3.545,3.545,0,0,0,1.863-1.863,3.461,3.461,0,0,0,0-2.718,3.542,3.542,0,0,0-1.863-1.864,3.472,3.472,0,0,0-2.718,0,3.542,3.542,0,0,0-1.863,1.864,3.461,3.461,0,0,0,0,2.718,3.545,3.545,0,0,0,1.863,1.863A3.358,3.358,0,0,0,46,47.5Z" fill="#fff" stroke="#fff" stroke-linejoin="round" stroke-width="3" opacity="0.5"/>
      <path d="M53.862,48.249a2.368,2.368,0,0,0,.165.868,2.249,2.249,0,0,0,.516.775l.8.8a11.242,11.242,0,0,1-2.652,2.652l-.8-.8a2.193,2.193,0,0,0-.774-.517,2.344,2.344,0,0,0-.868-.165,2.407,2.407,0,0,0-.892.165,2.2,2.2,0,0,0-.751.481,2.436,2.436,0,0,0-.528.751,2.249,2.249,0,0,0-.2.95v1.127c-.312.047-.626.086-.938.116a9.4,9.4,0,0,1-1.878,0q-.47-.045-.938-.116V54.21a2.265,2.265,0,0,0-.2-.95,2.453,2.453,0,0,0-.528-.751,2.178,2.178,0,0,0-.763-.481,2.437,2.437,0,0,0-.88-.165,2.34,2.34,0,0,0-.868.165,2.193,2.193,0,0,0-.774.517l-.8.8a11.242,11.242,0,0,1-2.652-2.652l.8-.8a2.249,2.249,0,0,0,.516-.775,2.368,2.368,0,0,0,.165-.868,2.459,2.459,0,0,0-.165-.88,2.212,2.212,0,0,0-.481-.764,2.445,2.445,0,0,0-.751-.527,2.249,2.249,0,0,0-.95-.2H34.665q-.072-.471-.118-.939a9.4,9.4,0,0,1,0-1.878q.047-.468.118-.939h1.126a2.249,2.249,0,0,0,.95-.2,2.448,2.448,0,0,0,.751-.528,2.229,2.229,0,0,0,.481-.752,2.422,2.422,0,0,0,.165-.891,2.356,2.356,0,0,0-.165-.868,2.239,2.239,0,0,0-.516-.775l-.8-.8a11.242,11.242,0,0,1,2.652-2.652l.8.8a2.207,2.207,0,0,0,.774.517,2.36,2.36,0,0,0,.868.165,2.459,2.459,0,0,0,.88-.165,2.208,2.208,0,0,0,.763-.481,2.524,2.524,0,0,0,.528-.739,2.242,2.242,0,0,0,.2-.962V32.665q.468-.07.938-.116a9.022,9.022,0,0,1,1.878,0c.312.03.626.069.938.116v1.127a2.3,2.3,0,0,0,1.479,2.182,2.428,2.428,0,0,0,.892.165,2.536,2.536,0,0,0,.856-.154,2.067,2.067,0,0,0,.786-.5l.8-.822a11.242,11.242,0,0,1,2.652,2.652l-.8.8a2.239,2.239,0,0,0-.516.775,2.356,2.356,0,0,0-.165.868,2.422,2.422,0,0,0,.165.891,2.229,2.229,0,0,0,.481.752,2.505,2.505,0,0,0,.739.528,2.224,2.224,0,0,0,.962.2h1.126c.048.314.086.627.118.939s.047.625.047.938-.016.627-.047.94-.07.625-.118.939H56.209a2.224,2.224,0,0,0-.962.2,2.5,2.5,0,0,0-.739.527,2.212,2.212,0,0,0-.481.764A2.459,2.459,0,0,0,53.862,48.249ZM46,47.5a3.358,3.358,0,0,0,1.359-.278,3.545,3.545,0,0,0,1.863-1.863,3.461,3.461,0,0,0,0-2.718,3.542,3.542,0,0,0-1.863-1.864,3.472,3.472,0,0,0-2.718,0,3.542,3.542,0,0,0-1.863,1.864,3.461,3.461,0,0,0,0,2.718,3.545,3.545,0,0,0,1.863,1.863A3.358,3.358,0,0,0,46,47.5Z" stroke="#323232" stroke-linejoin="round" fill="url(#c)"/>
    </g>
    <g opacity="0.2">
      <path d="M38.438,38.7a2.906,2.906,0,0,1,.153.558,2.944,2.944,0,0,0,.047-.508,2.887,2.887,0,0,0-.2-1.05,2.737,2.737,0,0,0-.627-.947l-.025-.025c-.157.177-.324.345-.469.533l.494.492A2.737,2.737,0,0,1,38.438,38.7Z"/>
      <path d="M53.563,37.7a2.855,2.855,0,0,0-.2,1.052,2.956,2.956,0,0,0,.047.509,2.828,2.828,0,0,1,.154-.561,2.71,2.71,0,0,1,.625-.944l.495-.493c-.145-.188-.312-.356-.469-.533l-.026.026A2.71,2.71,0,0,0,53.563,37.7Z"/>
      <path d="M56.956,43.89c-.017.163-.035.326-.056.489h-.691a2.716,2.716,0,0,0-1.176.247,3,3,0,0,0-.886.633,2.7,2.7,0,0,0-.587.932,2.973,2.973,0,0,0-.2,1.058,2.855,2.855,0,0,0,.047.5,3.007,3.007,0,0,1,.151-.555,2.7,2.7,0,0,1,.587-.932,3,3,0,0,1,.886-.633,2.716,2.716,0,0,1,1.176-.247H56.9c.021-.163.039-.326.056-.489.029-.3.044-.592.044-.89,0-.167-.015-.333-.025-.5C56.968,43.63,56.969,43.76,56.956,43.89Z"/>
      <path d="M38.44,47.192a3.1,3.1,0,0,1,.151.554,2.864,2.864,0,0,0,.047-.5,3,3,0,0,0-.2-1.057,2.715,2.715,0,0,0-.587-.933,2.94,2.94,0,0,0-.9-.635,2.737,2.737,0,0,0-1.159-.245H35.1c-.021-.163-.039-.327-.056-.491-.013-.129-.012-.259-.019-.388-.009.167-.025.334-.025.5a8.771,8.771,0,0,0,.044.888c.017.164.035.328.056.491h.691a2.737,2.737,0,0,1,1.159.245,2.94,2.94,0,0,1,.9.635A2.715,2.715,0,0,1,38.44,47.192Z"/>
      <path d="M52.737,51.684l-.491-.492a2.7,2.7,0,0,0-.947-.629,2.952,2.952,0,0,0-2.122,0,2.72,2.72,0,0,0-.918.586,2.964,2.964,0,0,0-.636.9,2.747,2.747,0,0,0-.246,1.159V53.9c-.163.021-.326.038-.489.055a8.531,8.531,0,0,1-1.779,0c-.162-.016-.324-.033-.486-.054V53.21a2.764,2.764,0,0,0-.246-1.159,2.986,2.986,0,0,0-.636-.9,2.691,2.691,0,0,0-.93-.586,2.912,2.912,0,0,0-2.107,0,2.688,2.688,0,0,0-.948.629l-.493.493a10.786,10.786,0,0,1-1.477-1.413l-.469.467a10.8,10.8,0,0,0,1.946,1.946l.493-.493a2.688,2.688,0,0,1,.948-.629,2.912,2.912,0,0,1,2.107,0,2.691,2.691,0,0,1,.93.586,2.986,2.986,0,0,1,.636.9,2.764,2.764,0,0,1,.246,1.159V54.9c.162.021.324.038.486.054a8.531,8.531,0,0,0,1.779,0c.163-.017.326-.034.489-.055V54.21a2.747,2.747,0,0,1,.246-1.159,2.964,2.964,0,0,1,.636-.9,2.72,2.72,0,0,1,.918-.586,2.952,2.952,0,0,1,2.122,0,2.7,2.7,0,0,1,.947.629l.491.492a10.8,10.8,0,0,0,1.946-1.946l-.469-.467A10.786,10.786,0,0,1,52.737,51.684Z"/>
    </g>
    <g opacity="0.3">
      <path d="M53.561,40.822a2.79,2.79,0,0,1-.152-.56,2.769,2.769,0,0,0-.047.491,2.905,2.905,0,0,0,.2,1.069,2.7,2.7,0,0,0,.586.921,3,3,0,0,0,.886.633,2.735,2.735,0,0,0,1.176.247H56.9c.021.163.039.326.056.489.013.13.012.259.019.389.01-.167.025-.333.025-.5q0-.444-.044-.888c-.017-.163-.035-.326-.056-.489h-.691a2.735,2.735,0,0,1-1.176-.247,3,3,0,0,1-.886-.633A2.7,2.7,0,0,1,53.561,40.822Z" fill="#fff"/>
      <path d="M39.263,36.318l.491.492a2.7,2.7,0,0,0,.947.629,2.92,2.92,0,0,0,2.106,0,2.706,2.706,0,0,0,.935-.589,3.034,3.034,0,0,0,.633-.885,2.732,2.732,0,0,0,.248-1.177V34.1c.162-.021.325-.039.49-.055a8.531,8.531,0,0,1,1.779,0c.162.015.323.033.485.054v.69a2.806,2.806,0,0,0,1.8,2.648,2.99,2.99,0,0,0,2.1.018,2.593,2.593,0,0,0,.979-.627l.493-.508a10.779,10.779,0,0,1,1.472,1.409l.469-.467a10.781,10.781,0,0,0-1.941-1.942l-.493.508a2.593,2.593,0,0,1-.979.627,2.99,2.99,0,0,1-2.1-.018,2.8,2.8,0,0,1-1.8-2.648V33.1c-.162-.021-.323-.039-.485-.054a8.531,8.531,0,0,0-1.779,0c-.165.016-.328.034-.49.055v.69a2.732,2.732,0,0,1-.248,1.177,3.034,3.034,0,0,1-.633.885,2.706,2.706,0,0,1-.935.589,2.92,2.92,0,0,1-2.106,0,2.7,2.7,0,0,1-.947-.629l-.491-.492a10.8,10.8,0,0,0-1.946,1.946l.469.467A10.786,10.786,0,0,1,39.263,36.318Z" fill="#fff"/>
      <path d="M53.561,49.3a2.888,2.888,0,0,1-.152-.551,2.942,2.942,0,0,0-.047.5,2.881,2.881,0,0,0,.2,1.048,2.724,2.724,0,0,0,.628.949l.025.025c.157-.177.324-.345.469-.533l-.494-.492A2.724,2.724,0,0,1,53.561,49.3Z" fill="#fff"/>
      <path d="M38.438,50.3a2.9,2.9,0,0,0,.2-1.049,2.942,2.942,0,0,0-.047-.5,2.963,2.963,0,0,1-.153.552,2.73,2.73,0,0,1-.626.947l-.495.493c.145.188.312.356.469.533l.026-.026A2.73,2.73,0,0,0,38.438,50.3Z" fill="#fff"/>
      <path d="M35.044,44.112c.017-.163.035-.326.056-.489h.691a2.756,2.756,0,0,0,1.159-.245,2.94,2.94,0,0,0,.9-.635,2.739,2.739,0,0,0,.585-.918,2.94,2.94,0,0,0,.2-1.072,2.8,2.8,0,0,0-.047-.492,2.885,2.885,0,0,1-.153.564,2.739,2.739,0,0,1-.585.918,2.94,2.94,0,0,1-.9.635,2.756,2.756,0,0,1-1.159.245H35.1c-.021.163-.039.326-.056.489A8.829,8.829,0,0,0,35,44c0,.167.016.333.025.5C35.032,44.371,35.031,44.242,35.044,44.112Z" fill="#fff"/>
    </g>
    <path d="M46,39a5,5,0,1,0,5,5A5,5,0,0,0,46,39Zm0,9a4,4,0,1,1,4-4A4,4,0,0,1,46,48Z" opacity="0.3" fill="url(#d)"/>
  </g>
</svg>
