<svg xmlns="http://www.w3.org/2000/svg" xmlns:xlink="http://www.w3.org/1999/xlink" width="64" height="64" viewBox="0 0 64 64">
  <defs>
    <linearGradient id="a" x1="74.628" y1="12.216" x2="26.596" y2="34.77" gradientUnits="userSpaceOnUse">
      <stop offset="0" stop-color="#92d5ee"/>
      <stop offset="0.483" stop-color="#599bb4"/>
      <stop offset="1" stop-color="#185971"/>
    </linearGradient>
    <linearGradient id="b" x1="10.598" y1="28.651" x2="46.333" y2="29.804" gradientUnits="userSpaceOnUse">
      <stop offset="0.005" stop-color="#575757"/>
      <stop offset="0.316" stop-color="#828282"/>
      <stop offset="1" stop-color="#ececed"/>
    </linearGradient>
    <linearGradient id="c" x1="47.074" y1="30.033" x2="15.012" y2="30.033" gradientUnits="userSpaceOnUse">
      <stop offset="0" stop-color="#cececf"/>
      <stop offset="0.434" stop-color="#cccccd"/>
      <stop offset="0.59" stop-color="#c5c5c6"/>
      <stop offset="0.701" stop-color="#bababb"/>
      <stop offset="0.791" stop-color="#a9a9aa"/>
      <stop offset="0.868" stop-color="#939394"/>
      <stop offset="0.935" stop-color="#797979"/>
      <stop offset="0.996" stop-color="#5a5a5a"/>
      <stop offset="1" stop-color="#575757"/>
    </linearGradient>
    <linearGradient id="d" x1="44.173" y1="30.324" x2="16.22" y2="32.243" gradientUnits="userSpaceOnUse">
      <stop offset="0" stop-color="#ddddde"/>
      <stop offset="0.957" stop-color="#7d7d7e"/>
      <stop offset="1" stop-color="#79797a"/>
    </linearGradient>
    <linearGradient id="e" x1="-1.018" y1="-21.931" x2="53.368" y2="76.356" xlink:href="#a"/>
    <linearGradient id="f" x1="50.851" y1="442.572" x2="50.868" y2="442.572" gradientTransform="translate(54.254 -401.562) rotate(10.627)" gradientUnits="userSpaceOnUse">
      <stop offset="0" stop-color="#e5e5e4"/>
      <stop offset="0.526" stop-color="#ececec"/>
      <stop offset="1" stop-color="#f6f7f7"/>
    </linearGradient>
    <linearGradient id="g" x1="63.31" y1="442.566" x2="63.33" y2="442.566" xlink:href="#f"/>
    <linearGradient id="h" x1="50.868" y1="442.008" x2="63.31" y2="442.008" xlink:href="#f"/>
    <linearGradient id="i" x1="45.991" y1="442.185" x2="52.147" y2="442.185" xlink:href="#f"/>
    <linearGradient id="j" x1="62.004" y1="442.373" x2="68.16" y2="442.373" xlink:href="#f"/>
    <linearGradient id="k" x1="39.283" y1="35.099" x2="50.717" y2="54.903" gradientUnits="userSpaceOnUse">
      <stop offset="0" stop-color="#fff"/>
      <stop offset="1" stop-color="#d4d5d3"/>
    </linearGradient>
    <linearGradient id="l" x1="45" y1="50" x2="45" y2="40.77" gradientUnits="userSpaceOnUse">
      <stop offset="0" stop-color="#fff"/>
      <stop offset="1"/>
    </linearGradient>
  </defs>
  <title>7281_X3DOPAS_AP_r21x</title>
  <g style="isolation: isolate">
    <polygon points="16.004 46.648 16.14 12.042 16.347 11.935 16.206 46.525 16.004 46.648" fill="#828282"/>
    <polygon points="16.004 46.648 16.14 12.042 16.255 12.086 16.116 46.701 16.004 46.648" fill="#6b6b6b"/>
    <polygon points="16.025 46.707 16.014 46.676 16.116 46.701 16.025 46.707" fill="#8a8a8a"/>
    <polygon points="16.242 46.33 16.384 11.768 16.636 11.773 16.487 46.336 16.242 46.33" fill="#6b6b6b"/>
    <polygon points="16.487 46.336 16.636 11.773 16.65 11.754 16.501 46.313 16.487 46.336" fill="#888"/>
    <polygon points="16.495 46.301 16.65 11.746 17.171 11.787 17.003 46.349 16.495 46.301" fill="#6b6b6b"/>
    <polygon points="16.487 46.336 16.636 11.773 17.367 11.787 17.199 46.349 16.487 46.336" fill="#6b6b6b"/>
    <polygon points="16.454 11.754 16.471 11.73 16.65 11.746 17.171 11.787 16.44 11.773 16.454 11.754" fill="#8a8a8a"/>
    <polygon points="20.782 46.422 26.808 10.976 45.543 10.976 46.524 49.107 20.782 46.422" fill="url(#a)"/>
    <polygon points="17.003 46.349 17.171 11.787 21.058 11.862 20.782 46.422 17.003 46.349" fill="#6b6b6b"/>
    <polygon points="16.224 46.508 16.365 11.92 16.384 11.768 16.242 46.33 16.224 46.508" fill="#8b8b8b"/>
    <polygon points="16.224 46.508 16.365 11.92 16.619 11.795 16.471 46.361 16.224 46.508" fill="#818181"/>
    <polygon points="16.223 46.514 16.364 11.926 16.365 11.92 16.224 46.508 16.223 46.514" fill="#8c8c8c"/>
    <polygon points="16.206 46.525 16.347 11.935 16.365 11.92 16.224 46.508 16.206 46.525" fill="#858585"/>
    <polygon points="16.206 46.525 16.347 11.935 16.364 11.926 16.223 46.514 16.206 46.525" fill="#828282"/>
    <polygon points="16.151 11.935 16.169 11.92 16.168 11.926 16.151 11.935" fill="#898989"/>
    <polygon points="16.471 46.361 16.619 11.795 18.114 12.113 17.925 46.725 16.471 46.361" fill="#6b6b6b"/>
    <polygon points="16.014 46.676 16.15 12.063 16.255 12.086 16.116 46.701 16.014 46.676" fill="#6b6b6b"/>
    <polygon points="17.728 46.725 17.918 12.113 22.202 12.196 21.893 46.808 17.728 46.725" fill="#6b6b6b"/>
    <polygon points="21.893 46.808 17.121 11.954 44.565 11.954 44.565 47.153 21.893 46.808" fill="url(#b)"/>
    <polygon points="17.728 46.725 17.918 12.113 18.345 12.203 18.142 46.829 17.728 46.725" fill="#6b6b6b"/>
    <polygon points="18.142 46.829 18.345 12.203 20.517 12.38 20.254 47.028 18.142 46.829" fill="#6b6b6b"/>
    <g>
      <polygon points="19.783 47.48 18.312 10.428 46.033 13.471 46.033 49.639 19.783 47.48" fill="url(#c)"/>
      <path d="M18.823,10.976l26.72,2.933v35.2L20.254,47.028,18.823,10.976M17.8,9.879l.045,1.136,1.431,36.052.035.866.863.071,25.289,2.079,1.059.087V13.032l-.872-.1L18.93,10,17.8,9.879Z" fill="#6d6d6d"/>
    </g>
    <polygon points="18.142 46.829 18.345 12.203 21.291 12.832 21.006 47.552 18.142 46.829" fill="#6b6b6b"/>
    <g>
      <polygon points="20.679 47.033 17.672 12.343 20.563 11.408 44.075 16.264 44.075 50.867 20.679 47.033" fill="url(#d)"/>
      <path d="M20.59,11.914l23,4.748V50.291L21.134,46.612,18.193,12.689l2.4-.775M20.535,10.9,17.151,12l3.073,35.457,24.341,3.988V15.865L20.535,10.9Z" fill="#6d6d6d"/>
    </g>
    <polygon points="16.116 46.701 16.255 12.086 41.82 17.82 41.82 53.02 16.116 46.701" fill="url(#e)"/>
    <polygon points="41.623 53.02 41.623 17.82 42.604 16.842 42.604 51.063 41.623 53.02" fill="#0d6787"/>
    <polygon points="42.604 16.842 41.623 17.82 16.059 12.086 17.121 10.976 42.604 16.842" fill="#97c9db"/>
  </g>
  <path d="M24.325,10.988c4.328,0,10.97,0,21.158.012v1.931L47,13V49H44.5v2H41.563v2.02l-.16.039L16.227,46.7l-.091.006-.012-.031v-.024l-.01,0-.114-.3V11.935L16.273,11s-.6-.012,8.052-.012m0-.978c-3.8,0-5.815,0-6.881,0-1.458,0-2.1.005-2.154.862l-.23.784a.983.983,0,0,0-.039.275V46.347a.984.984,0,0,0,.064.348l.114.3.008.025a1.027,1.027,0,0,0,.92.666l25.036,6.323a.974.974,0,0,0,.24.03,1,1,0,0,0,.231-.028l.161-.039a.98.98,0,0,0,.747-.951V51.979H44.5A.979.979,0,0,0,45.481,51V49.979H47A.979.979,0,0,0,47.979,49V13a.98.98,0,0,0-.935-.978L46.462,12V11a.98.98,0,0,0-.978-.979c-10.189-.009-16.831-.011-21.159-.011Z" fill="#2d2d2d"/>
  <g>
    <path d="M29.008,24.125A1.5,1.5,0,1,0,27.779,22.4,1.5,1.5,0,0,0,29.008,24.125Z" fill="#fff"/>
    <path d="M28,28.323c.931-.5,8.168-4.455,9.646-5.268h0a.165.165,0,0,0,.088-.116.168.168,0,0,0-.139-.2h0l-1.529-.258-.037-.006a1.739,1.739,0,0,0-1.137.191s-5.817,3.144-7,3.789c-.182.1-.361.2-.546.3h0a1.159,1.159,0,0,1-.759.133c-.449-.079-.6-.374-.724-.789h0c-.489-2.062-1.1-4.957-1.148-5.114a.705.705,0,0,0-.541-.542l-1.487-.254,0,.014c.45,1.8,1.516,6.639,1.571,6.869a2.035,2.035,0,0,1-.076,1.708l-.454.7c-.028.048-.059.094-.094.143a.649.649,0,0,0-.051.09L20.18,34.818a.7.7,0,0,0-.131.319.636.636,0,0,0,.136.52.712.712,0,0,0,.433.212l.535.084a.643.643,0,0,0,.527-.1.716.716,0,0,0,.228-.263c.534-.8,3.322-5.046,3.947-5.713A8.03,8.03,0,0,1,28,28.323Z" fill="#fff"/>
  </g>
  <g>
    <g>
      <path d="M22.619,42.791l.021-.03C22.613,42.774,22.619,42.791,22.619,42.791Z" fill="url(#f)"/>
      <path d="M34.87,45.051l.011.036S34.893,45.074,34.87,45.051Z" fill="url(#g)"/>
      <path d="M32.858,42.485c-1.119.044-2.787.518-3.895.317s-2.487-1.258-3.512-1.7-1.238-.357-1.238-.357L22.64,42.761c.079-.033.415-.035,1.842.443,1.933.645,2.49,1.594,4.033,1.895h0l.015,0,.017,0h0c1.544.278,2.412-.406,4.45-.309,1.5.071,1.814.2,1.873.255L34.139,42.6S33.977,42.442,32.858,42.485Z" fill="url(#h)"/>
    </g>
    <path d="M22.178,43.375a1.7,1.7,0,0,1-.342-.087c-.043-.019-.083-.046-.128-.063-.064-.025-.16-.025-.2-.09-.119-.2.1-.405.21-.55.136-.172.269-.344.4-.517s.261-.337.392-.5a13.709,13.709,0,0,1-3.055-2.013l.372,1.752-1.93.273s3.653,2.909,5.509,3.191l.331-.934c-.044-.013-.087-.03-.135-.046A11.6,11.6,0,0,0,22.178,43.375Z" fill="url(#i)"/>
    <path d="M35.016,45.977a1.667,1.667,0,0,0,.351.042c.046,0,.094-.014.141-.014.072,0,.16.036.219-.009.184-.146.059-.413,0-.59-.06-.208-.124-.417-.186-.626l-.183-.614a13.6,13.6,0,0,0,3.579-.772l-.983,1.5,1.7.952s-4.459,1.387-6.293.98l.031-.988c.05,0,.094,0,.145.006A11.46,11.46,0,0,1,35.016,45.977Z" fill="url(#j)"/>
  </g>
  <g>
    <g>
      <path d="M52.862,49.249a2.368,2.368,0,0,0,.165.868,2.249,2.249,0,0,0,.516.775l.8.8a11.242,11.242,0,0,1-2.652,2.652l-.8-.8a2.193,2.193,0,0,0-.774-.517,2.344,2.344,0,0,0-.868-.165,2.407,2.407,0,0,0-.892.165,2.2,2.2,0,0,0-.751.481,2.436,2.436,0,0,0-.528.751,2.249,2.249,0,0,0-.2.95v1.127c-.312.047-.626.086-.938.116a9.4,9.4,0,0,1-1.878,0q-.47-.045-.938-.116V55.21a2.265,2.265,0,0,0-.2-.95,2.453,2.453,0,0,0-.528-.751,2.178,2.178,0,0,0-.763-.481,2.437,2.437,0,0,0-.88-.165,2.34,2.34,0,0,0-.868.165,2.193,2.193,0,0,0-.774.517l-.8.8a11.242,11.242,0,0,1-2.652-2.652l.8-.8a2.249,2.249,0,0,0,.516-.775,2.368,2.368,0,0,0,.165-.868,2.459,2.459,0,0,0-.165-.88,2.212,2.212,0,0,0-.481-.764,2.445,2.445,0,0,0-.751-.527,2.249,2.249,0,0,0-.95-.2H33.665q-.072-.471-.118-.939a9.4,9.4,0,0,1,0-1.878q.047-.468.118-.939h1.126a2.249,2.249,0,0,0,.95-.2,2.448,2.448,0,0,0,.751-.528,2.229,2.229,0,0,0,.481-.752,2.422,2.422,0,0,0,.165-.891,2.356,2.356,0,0,0-.165-.868,2.239,2.239,0,0,0-.516-.775l-.8-.8a11.242,11.242,0,0,1,2.652-2.652l.8.8a2.207,2.207,0,0,0,.774.517,2.36,2.36,0,0,0,.868.165,2.459,2.459,0,0,0,.88-.165,2.208,2.208,0,0,0,.763-.481,2.524,2.524,0,0,0,.528-.739,2.242,2.242,0,0,0,.2-.962V33.665q.468-.07.938-.116a9.022,9.022,0,0,1,1.878,0c.312.03.626.069.938.116v1.127a2.3,2.3,0,0,0,1.479,2.182,2.428,2.428,0,0,0,.892.165,2.536,2.536,0,0,0,.856-.154,2.067,2.067,0,0,0,.786-.5l.8-.822a11.242,11.242,0,0,1,2.652,2.652l-.8.8a2.239,2.239,0,0,0-.516.775,2.356,2.356,0,0,0-.165.868,2.422,2.422,0,0,0,.165.891,2.229,2.229,0,0,0,.481.752,2.505,2.505,0,0,0,.739.528,2.224,2.224,0,0,0,.962.2h1.126c.048.314.086.627.118.939s.047.625.047.938-.016.627-.047.94-.07.625-.118.939H55.209a2.224,2.224,0,0,0-.962.2,2.5,2.5,0,0,0-.739.527,2.212,2.212,0,0,0-.481.764A2.459,2.459,0,0,0,52.862,49.249ZM45,48.5a3.358,3.358,0,0,0,1.359-.278,3.545,3.545,0,0,0,1.863-1.863,3.461,3.461,0,0,0,0-2.718,3.542,3.542,0,0,0-1.863-1.864,3.472,3.472,0,0,0-2.718,0,3.542,3.542,0,0,0-1.863,1.864,3.461,3.461,0,0,0,0,2.718,3.545,3.545,0,0,0,1.863,1.863A3.358,3.358,0,0,0,45,48.5Z" fill="#fff" stroke="#fff" stroke-linejoin="round" stroke-width="3" opacity="0.5"/>
      <path d="M52.862,49.249a2.368,2.368,0,0,0,.165.868,2.249,2.249,0,0,0,.516.775l.8.8a11.242,11.242,0,0,1-2.652,2.652l-.8-.8a2.193,2.193,0,0,0-.774-.517,2.344,2.344,0,0,0-.868-.165,2.407,2.407,0,0,0-.892.165,2.2,2.2,0,0,0-.751.481,2.436,2.436,0,0,0-.528.751,2.249,2.249,0,0,0-.2.95v1.127c-.312.047-.626.086-.938.116a9.4,9.4,0,0,1-1.878,0q-.47-.045-.938-.116V55.21a2.265,2.265,0,0,0-.2-.95,2.453,2.453,0,0,0-.528-.751,2.178,2.178,0,0,0-.763-.481,2.437,2.437,0,0,0-.88-.165,2.34,2.34,0,0,0-.868.165,2.193,2.193,0,0,0-.774.517l-.8.8a11.242,11.242,0,0,1-2.652-2.652l.8-.8a2.249,2.249,0,0,0,.516-.775,2.368,2.368,0,0,0,.165-.868,2.459,2.459,0,0,0-.165-.88,2.212,2.212,0,0,0-.481-.764,2.445,2.445,0,0,0-.751-.527,2.249,2.249,0,0,0-.95-.2H33.665q-.072-.471-.118-.939a9.4,9.4,0,0,1,0-1.878q.047-.468.118-.939h1.126a2.249,2.249,0,0,0,.95-.2,2.448,2.448,0,0,0,.751-.528,2.229,2.229,0,0,0,.481-.752,2.422,2.422,0,0,0,.165-.891,2.356,2.356,0,0,0-.165-.868,2.239,2.239,0,0,0-.516-.775l-.8-.8a11.242,11.242,0,0,1,2.652-2.652l.8.8a2.207,2.207,0,0,0,.774.517,2.36,2.36,0,0,0,.868.165,2.459,2.459,0,0,0,.88-.165,2.208,2.208,0,0,0,.763-.481,2.524,2.524,0,0,0,.528-.739,2.242,2.242,0,0,0,.2-.962V33.665q.468-.07.938-.116a9.022,9.022,0,0,1,1.878,0c.312.03.626.069.938.116v1.127a2.3,2.3,0,0,0,1.479,2.182,2.428,2.428,0,0,0,.892.165,2.536,2.536,0,0,0,.856-.154,2.067,2.067,0,0,0,.786-.5l.8-.822a11.242,11.242,0,0,1,2.652,2.652l-.8.8a2.239,2.239,0,0,0-.516.775,2.356,2.356,0,0,0-.165.868,2.422,2.422,0,0,0,.165.891,2.229,2.229,0,0,0,.481.752,2.505,2.505,0,0,0,.739.528,2.224,2.224,0,0,0,.962.2h1.126c.048.314.086.627.118.939s.047.625.047.938-.016.627-.047.94-.07.625-.118.939H55.209a2.224,2.224,0,0,0-.962.2,2.5,2.5,0,0,0-.739.527,2.212,2.212,0,0,0-.481.764A2.459,2.459,0,0,0,52.862,49.249ZM45,48.5a3.358,3.358,0,0,0,1.359-.278,3.545,3.545,0,0,0,1.863-1.863,3.461,3.461,0,0,0,0-2.718,3.542,3.542,0,0,0-1.863-1.864,3.472,3.472,0,0,0-2.718,0,3.542,3.542,0,0,0-1.863,1.864,3.461,3.461,0,0,0,0,2.718,3.545,3.545,0,0,0,1.863,1.863A3.358,3.358,0,0,0,45,48.5Z" stroke="#323232" stroke-linejoin="round" fill="url(#k)"/>
    </g>
    <g opacity="0.2">
      <path d="M37.438,39.7a2.906,2.906,0,0,1,.153.558,2.944,2.944,0,0,0,.047-.508,2.887,2.887,0,0,0-.2-1.05,2.737,2.737,0,0,0-.627-.947l-.025-.025c-.157.177-.324.345-.469.533l.494.492A2.737,2.737,0,0,1,37.438,39.7Z"/>
      <path d="M52.563,38.7a2.855,2.855,0,0,0-.2,1.052,2.956,2.956,0,0,0,.047.509,2.828,2.828,0,0,1,.154-.561,2.71,2.71,0,0,1,.625-.944l.495-.493c-.145-.188-.312-.356-.469-.533l-.026.026A2.71,2.71,0,0,0,52.563,38.7Z"/>
      <path d="M55.956,44.89c-.017.163-.035.326-.056.489h-.691a2.716,2.716,0,0,0-1.176.247,3,3,0,0,0-.886.633,2.7,2.7,0,0,0-.587.932,2.973,2.973,0,0,0-.2,1.058,2.855,2.855,0,0,0,.047.5,3.007,3.007,0,0,1,.151-.555,2.7,2.7,0,0,1,.587-.932,3,3,0,0,1,.886-.633,2.716,2.716,0,0,1,1.176-.247H55.9c.021-.163.039-.326.056-.489.029-.3.044-.592.044-.89,0-.167-.015-.333-.025-.5C55.968,44.63,55.969,44.76,55.956,44.89Z"/>
      <path d="M37.44,48.192a3.1,3.1,0,0,1,.151.554,2.864,2.864,0,0,0,.047-.5,3,3,0,0,0-.2-1.057,2.715,2.715,0,0,0-.587-.933,2.94,2.94,0,0,0-.9-.635,2.737,2.737,0,0,0-1.159-.245H34.1c-.021-.163-.039-.327-.056-.491-.013-.129-.012-.259-.019-.388-.009.167-.025.334-.025.5a8.771,8.771,0,0,0,.044.888c.017.164.035.328.056.491h.691a2.737,2.737,0,0,1,1.159.245,2.94,2.94,0,0,1,.9.635A2.715,2.715,0,0,1,37.44,48.192Z"/>
      <path d="M51.737,52.684l-.491-.492a2.7,2.7,0,0,0-.947-.629,2.952,2.952,0,0,0-2.122,0,2.72,2.72,0,0,0-.918.586,2.964,2.964,0,0,0-.636.9,2.747,2.747,0,0,0-.246,1.159V54.9c-.163.021-.326.038-.489.055a8.531,8.531,0,0,1-1.779,0c-.162-.016-.324-.033-.486-.054V54.21a2.764,2.764,0,0,0-.246-1.159,2.986,2.986,0,0,0-.636-.9,2.691,2.691,0,0,0-.93-.586,2.912,2.912,0,0,0-2.107,0,2.688,2.688,0,0,0-.948.629l-.493.493a10.786,10.786,0,0,1-1.477-1.413l-.469.467a10.8,10.8,0,0,0,1.946,1.946l.493-.493a2.688,2.688,0,0,1,.948-.629,2.912,2.912,0,0,1,2.107,0,2.691,2.691,0,0,1,.93.586,2.986,2.986,0,0,1,.636.9,2.764,2.764,0,0,1,.246,1.159V55.9c.162.021.324.038.486.054a8.531,8.531,0,0,0,1.779,0c.163-.017.326-.034.489-.055V55.21a2.747,2.747,0,0,1,.246-1.159,2.964,2.964,0,0,1,.636-.9,2.72,2.72,0,0,1,.918-.586,2.952,2.952,0,0,1,2.122,0,2.7,2.7,0,0,1,.947.629l.491.492a10.8,10.8,0,0,0,1.946-1.946l-.469-.467A10.786,10.786,0,0,1,51.737,52.684Z"/>
    </g>
    <g opacity="0.3">
      <path d="M52.561,41.822a2.79,2.79,0,0,1-.152-.56,2.769,2.769,0,0,0-.047.491,2.905,2.905,0,0,0,.2,1.069,2.7,2.7,0,0,0,.586.921,3,3,0,0,0,.886.633,2.735,2.735,0,0,0,1.176.247H55.9c.021.163.039.326.056.489.013.13.012.259.019.389.01-.167.025-.333.025-.5q0-.444-.044-.888c-.017-.163-.035-.326-.056-.489h-.691a2.735,2.735,0,0,1-1.176-.247,3,3,0,0,1-.886-.633A2.7,2.7,0,0,1,52.561,41.822Z" fill="#fff"/>
      <path d="M38.263,37.318l.491.492a2.7,2.7,0,0,0,.947.629,2.92,2.92,0,0,0,2.106,0,2.706,2.706,0,0,0,.935-.589,3.034,3.034,0,0,0,.633-.885,2.732,2.732,0,0,0,.248-1.177V35.1c.162-.021.325-.039.49-.055a8.531,8.531,0,0,1,1.779,0c.162.015.323.033.485.054v.69a2.806,2.806,0,0,0,1.8,2.648,2.99,2.99,0,0,0,2.1.018,2.593,2.593,0,0,0,.979-.627l.493-.508a10.779,10.779,0,0,1,1.472,1.409l.469-.467a10.781,10.781,0,0,0-1.941-1.942l-.493.508a2.593,2.593,0,0,1-.979.627,2.99,2.99,0,0,1-2.1-.018,2.8,2.8,0,0,1-1.8-2.648V34.1c-.162-.021-.323-.039-.485-.054a8.531,8.531,0,0,0-1.779,0c-.165.016-.328.034-.49.055v.69a2.732,2.732,0,0,1-.248,1.177,3.034,3.034,0,0,1-.633.885,2.706,2.706,0,0,1-.935.589,2.92,2.92,0,0,1-2.106,0,2.7,2.7,0,0,1-.947-.629l-.491-.492a10.8,10.8,0,0,0-1.946,1.946l.469.467A10.786,10.786,0,0,1,38.263,37.318Z" fill="#fff"/>
      <path d="M52.561,50.3a2.888,2.888,0,0,1-.152-.551,2.942,2.942,0,0,0-.047.5,2.881,2.881,0,0,0,.2,1.048,2.724,2.724,0,0,0,.628.949l.025.025c.157-.177.324-.345.469-.533l-.494-.492A2.724,2.724,0,0,1,52.561,50.3Z" fill="#fff"/>
      <path d="M37.438,51.3a2.9,2.9,0,0,0,.2-1.049,2.942,2.942,0,0,0-.047-.5,2.963,2.963,0,0,1-.153.552,2.73,2.73,0,0,1-.626.947l-.495.493c.145.188.312.356.469.533l.026-.026A2.73,2.73,0,0,0,37.438,51.3Z" fill="#fff"/>
      <path d="M34.044,45.112c.017-.163.035-.326.056-.489h.691a2.756,2.756,0,0,0,1.159-.245,2.94,2.94,0,0,0,.9-.635,2.739,2.739,0,0,0,.585-.918,2.94,2.94,0,0,0,.2-1.072,2.8,2.8,0,0,0-.047-.492,2.885,2.885,0,0,1-.153.564,2.739,2.739,0,0,1-.585.918,2.94,2.94,0,0,1-.9.635,2.756,2.756,0,0,1-1.159.245H34.1c-.021.163-.039.326-.056.489A8.829,8.829,0,0,0,34,45c0,.167.016.333.025.5C34.032,45.371,34.031,45.242,34.044,45.112Z" fill="#fff"/>
    </g>
    <path d="M45,40a5,5,0,1,0,5,5A5,5,0,0,0,45,40Zm0,9a4,4,0,1,1,4-4A4,4,0,0,1,45,49Z" opacity="0.3" fill="url(#l)"/>
  </g>
</svg>
