<svg xmlns="http://www.w3.org/2000/svg" xmlns:xlink="http://www.w3.org/1999/xlink" width="64" height="64" viewBox="0 0 64 64">
  <defs>
    <linearGradient id="a" x1="26" y1="30" x2="56" y2="30" gradientUnits="userSpaceOnUse">
      <stop offset="0" stop-color="#464647"/>
      <stop offset="1" stop-color="#151515"/>
    </linearGradient>
    <linearGradient id="b" x1="40.156" y1="23.683" x2="46.119" y2="34.012" gradientUnits="userSpaceOnUse">
      <stop offset="0" stop-color="#3387af"/>
      <stop offset="1" stop-color="#285a78"/>
    </linearGradient>
    <linearGradient id="c" x1="18.248" y1="14.334" x2="20.749" y2="18.665" xlink:href="#b"/>
    <linearGradient id="d" x1="11.992" y1="12.259" x2="23.814" y2="32.735" xlink:href="#b"/>
    <linearGradient id="e" x1="39.283" y1="35.099" x2="50.717" y2="54.903" gradientUnits="userSpaceOnUse">
      <stop offset="0" stop-color="#fff"/>
      <stop offset="1" stop-color="#d4d5d3"/>
    </linearGradient>
    <linearGradient id="f" x1="45" y1="50" x2="45" y2="40.77" gradientUnits="userSpaceOnUse">
      <stop offset="0" stop-color="#fff"/>
      <stop offset="1"/>
    </linearGradient>
  </defs>
  <title>6876_X3DOPSA_AP_r21x</title>
  <g>
    <g>
      <g opacity="0.5">
        <path d="M54,42.5a.508.508,0,0,1-.224-.053A.5.5,0,0,1,53.5,42v-.5H27a.5.5,0,0,1-.5-.5V20.5H26a.5.5,0,0,1-.4-.8l1.5-2a.5.5,0,0,1,.8,0l1.5,2a.5.5,0,0,1-.4.8h-.5v19h25V39a.5.5,0,0,1,.276-.447A.508.508,0,0,1,54,38.5a.5.5,0,0,1,.3.1l2,1.5a.5.5,0,0,1,0,.8l-2,1.5A.5.5,0,0,1,54,42.5Z" fill="#fff"/>
        <path d="M27.5,18,29,20H28V40H54V39l2,1.5L54,42V41H27V20H26l1.5-2m0-1a1,1,0,0,0-.8.4l-1.5,2A1,1,0,0,0,26,21V41a1,1,0,0,0,1,1H53a1,1,0,0,0,1.6.8l2-1.5a1,1,0,0,0,0-1.6l-2-1.5A1,1,0,0,0,54,38a1,1,0,0,0-1,1H29V21a1,1,0,0,0,.8-1.6l-1.5-2a1,1,0,0,0-.8-.4Z" fill="#fff"/>
      </g>
      <polygon points="56 40.5 54 39 54 40 28 40 28 20 29 20 27.5 18 26 20 27 20 27 41 54 41 54 42 56 40.5" fill="url(#a)"/>
    </g>
    <g>
      <g opacity="0.5">
        <path d="M31,39.5a2.428,2.428,0,0,1-1.776-.771,2.682,2.682,0,0,1,0-3.659l9.226-9.687a.5.5,0,0,1,.672-.048L42.765,28.2l3.892-4.088L44.169,21.5a.5.5,0,0,1,.229-.827l11.469-3.157a.5.5,0,0,1,.483.124.5.5,0,0,1,.135.479L53.479,30.164a.5.5,0,0,1-.358.362.51.51,0,0,1-.128.016.5.5,0,0,1-.362-.155L50.176,27.81,43.55,34.768a.5.5,0,0,1-.362.155.5.5,0,0,1-.31-.108l-3.643-2.868-6.459,6.782A2.431,2.431,0,0,1,31,39.5Z" fill="#fff"/>
        <path d="M56,18,52.993,30.042l-2.817-2.958-6.989,7.339-4-3.151-6.773,7.113a1.933,1.933,0,0,1-2.828,0,2.175,2.175,0,0,1,0-2.97l9.226-9.687,4,3.149,4.536-4.762-2.817-2.958L56,18m0-1a1.009,1.009,0,0,0-.266.036L44.266,20.193a1,1,0,0,0-.459,1.654l2.16,2.268-3.251,3.414-3.285-2.587a1,1,0,0,0-1.343.1l-9.226,9.687a3.189,3.189,0,0,0,0,4.349,2.932,2.932,0,0,0,4.276,0l6.146-6.454,3.285,2.587a1,1,0,0,0,1.343-.095l6.264-6.578,2.093,2.2a1,1,0,0,0,.724.311.966.966,0,0,0,.255-.034,1,1,0,0,0,.715-.724L56.97,18.242A1,1,0,0,0,56,17Z" fill="#fff"/>
      </g>
      <path d="M56,18,44.531,21.157l2.817,2.958-4.536,4.762-4-3.15-9.226,9.688a2.175,2.175,0,0,0,0,2.97,1.933,1.933,0,0,0,2.828,0l6.773-7.113,4,3.151,6.989-7.338,2.817,2.957Z" fill="url(#b)"/>
    </g>
    <g>
      <g>
        <g opacity="0.5">
          <path d="M19.5,19.5a3,3,0,1,1,3-3A3,3,0,0,1,19.5,19.5Z" fill="#fff"/>
          <path d="M19.5,14A2.5,2.5,0,1,1,17,16.5,2.5,2.5,0,0,1,19.5,14m0-1A3.5,3.5,0,1,0,23,16.5,3.5,3.5,0,0,0,19.5,13Z" fill="#fff"/>
        </g>
        <path d="M19.5,19A2.5,2.5,0,1,0,17,16.5,2.5,2.5,0,0,0,19.5,19Z" fill="url(#c)"/>
      </g>
      <g>
        <g opacity="0.5">
          <path d="M9.109,41a1.679,1.679,0,0,1-1.045-.319A1.548,1.548,0,0,1,7.5,39.467a1.587,1.587,0,0,1,.152-.707l4.1-9.269.032-.088c.075-.168.681-1.575.681-1.575.212-.619.215-1.1-.349-2.4-.038-.089-.257-.621-.583-1.415-.959-2.336-2.955-7.195-3.876-9.294a.492.492,0,0,1-.042-.2.515.515,0,0,1,.5-.519h2.478a1.662,1.662,0,0,1,1.476,1.005c.044.09.283.677.635,1.545.658,1.625,1.759,4.345,2.664,6.46.281.588.5.772.932.772a1.383,1.383,0,0,0,.879-.313c.279-.218.543-.426.81-.641,1.74-1.372,10.3-8.086,10.3-8.086a3.284,3.284,0,0,1,2.1-.736L33,14a.782.782,0,0,1,.473,1.4C31.309,17.12,20.67,25.536,19.308,26.612A12.6,12.6,0,0,0,16.372,29.6c-.7,1.059-3.388,7.165-4.4,9.462l-.37.838a1.6,1.6,0,0,1-.415.639A1.561,1.561,0,0,1,10.122,41h0a1.305,1.305,0,0,1-.177-.013Z" fill="#fff"/>
          <path d="M10.6,14.5a1.065,1.065,0,0,1,.685.27,1.164,1.164,0,0,1,.335.461c.115.237,1.912,4.766,3.285,7.976.3.636.641,1.075,1.391,1.075a1.879,1.879,0,0,0,1.2-.426v0c.27-.214.536-.423.8-.64,1.737-1.37,10.3-8.083,10.3-8.083a2.8,2.8,0,0,1,1.792-.629h.056L33,14.5a.279.279,0,0,1,.277.282.275.275,0,0,1-.109.222C31,16.727,20.36,25.144,19,26.22a13.191,13.191,0,0,0-3.043,3.109c-.828,1.254-4.167,8.927-4.809,10.372a1.128,1.128,0,0,1-.3.479,1.068,1.068,0,0,1-.72.318.717.717,0,0,1-.1-.008l-.892.01H9.109a1.184,1.184,0,0,1-.745-.22,1.048,1.048,0,0,1-.364-.8,1.2,1.2,0,0,1,.126-.557l4.079-9.227c.03-.074.049-.131.059-.156.044-.09.08-.172.116-.255l.54-1.257a3.373,3.373,0,0,0-.349-2.8c-.156-.357-3.234-7.914-4.46-10.709V14.5H10.6m0-1H8.111a1,1,0,0,0-1,1,1.083,1.083,0,0,0,.084.421c.919,2.095,2.915,6.955,3.875,9.29.326.794.545,1.326.583,1.416.538,1.238.488,1.582.334,2.038l-.526,1.222c-.029.068-.058.135-.1.21-.013.026-.024.052-.035.08l-.019.052-.036.1-4.064,9.19-.024.057A2.094,2.094,0,0,0,7,39.5a2.017,2.017,0,0,0,.763,1.584,2.159,2.159,0,0,0,1.345.42l.859-.009c.051,0,.1.007.154.007a2.064,2.064,0,0,0,1.443-.627,2.005,2.005,0,0,0,.494-.763l.376-.853c.91-2.066,3.68-8.354,4.354-9.375a12.139,12.139,0,0,1,2.826-2.873c1.365-1.079,12-9.5,14.178-11.22a1.259,1.259,0,0,0,.488-1.005A1.281,1.281,0,0,0,33,13.5l-2.561.006h-.054a3.787,3.787,0,0,0-2.424.855h0s-8.551,6.7-10.286,8.072c-.259.208-.509.405-.762.605q-.03.021-.06.045a.869.869,0,0,1-.561.2c-.165,0-.248,0-.488-.5-.887-2.074-1.987-4.791-2.645-6.414-.478-1.182-.6-1.468-.644-1.569a2.121,2.121,0,0,0-.588-.787A2.021,2.021,0,0,0,10.6,13.5Z" fill="#fff"/>
        </g>
        <path d="M19,26.22C20.36,25.144,31,16.727,33.172,15h0a.275.275,0,0,0,.109-.222A.279.279,0,0,0,33,14.5h0l-2.559.006h-.056a2.8,2.8,0,0,0-1.792.629s-8.562,6.713-10.3,8.083c-.269.217-.535.426-.8.64v0a1.879,1.879,0,0,1-1.2.426c-.75,0-1.089-.439-1.391-1.075h0c-1.373-3.21-3.17-7.739-3.285-7.976a1.164,1.164,0,0,0-.335-.461,1.064,1.064,0,0,0-.7-.27H8.111v.019c1.226,2.8,4.3,10.352,4.46,10.71a3.371,3.371,0,0,1,.349,2.8l-.54,1.257c-.036.083-.072.165-.116.255-.01.025-.029.082-.059.156L8.126,38.92A1.2,1.2,0,0,0,8,39.477a1.048,1.048,0,0,0,.364.8,1.2,1.2,0,0,0,.762.22l.892-.01a1.03,1.03,0,0,0,.824-.31,1.128,1.128,0,0,0,.3-.479c.643-1.445,3.981-9.118,4.809-10.372A13.176,13.176,0,0,1,19,26.22Z" fill="url(#d)"/>
      </g>
    </g>
  </g>
  <g>
    <g>
      <path d="M52.862,49.249a2.368,2.368,0,0,0,.165.868,2.249,2.249,0,0,0,.516.775l.8.8a11.242,11.242,0,0,1-2.652,2.652l-.8-.8a2.193,2.193,0,0,0-.774-.517,2.344,2.344,0,0,0-.868-.165,2.407,2.407,0,0,0-.892.165,2.2,2.2,0,0,0-.751.481,2.436,2.436,0,0,0-.528.751,2.249,2.249,0,0,0-.2.95v1.127c-.312.047-.626.086-.938.116a9.4,9.4,0,0,1-1.878,0q-.47-.045-.938-.116V55.21a2.265,2.265,0,0,0-.2-.95,2.453,2.453,0,0,0-.528-.751,2.178,2.178,0,0,0-.763-.481,2.437,2.437,0,0,0-.88-.165,2.34,2.34,0,0,0-.868.165,2.193,2.193,0,0,0-.774.517l-.8.8a11.242,11.242,0,0,1-2.652-2.652l.8-.8a2.249,2.249,0,0,0,.516-.775,2.368,2.368,0,0,0,.165-.868,2.459,2.459,0,0,0-.165-.88,2.212,2.212,0,0,0-.481-.764,2.445,2.445,0,0,0-.751-.527,2.249,2.249,0,0,0-.95-.2H33.665q-.072-.471-.118-.939a9.4,9.4,0,0,1,0-1.878q.047-.468.118-.939h1.126a2.249,2.249,0,0,0,.95-.2,2.448,2.448,0,0,0,.751-.528,2.229,2.229,0,0,0,.481-.752,2.422,2.422,0,0,0,.165-.891,2.356,2.356,0,0,0-.165-.868,2.239,2.239,0,0,0-.516-.775l-.8-.8a11.242,11.242,0,0,1,2.652-2.652l.8.8a2.207,2.207,0,0,0,.774.517,2.36,2.36,0,0,0,.868.165,2.459,2.459,0,0,0,.88-.165,2.208,2.208,0,0,0,.763-.481,2.524,2.524,0,0,0,.528-.739,2.242,2.242,0,0,0,.2-.962V33.665q.468-.07.938-.116a9.022,9.022,0,0,1,1.878,0c.312.03.626.069.938.116v1.127a2.3,2.3,0,0,0,1.479,2.182,2.428,2.428,0,0,0,.892.165,2.536,2.536,0,0,0,.856-.154,2.067,2.067,0,0,0,.786-.5l.8-.822a11.242,11.242,0,0,1,2.652,2.652l-.8.8a2.239,2.239,0,0,0-.516.775,2.356,2.356,0,0,0-.165.868,2.422,2.422,0,0,0,.165.891,2.229,2.229,0,0,0,.481.752,2.505,2.505,0,0,0,.739.528,2.224,2.224,0,0,0,.962.2h1.126c.048.314.086.627.118.939s.047.625.047.938-.016.627-.047.94-.07.625-.118.939H55.209a2.224,2.224,0,0,0-.962.2,2.5,2.5,0,0,0-.739.527,2.212,2.212,0,0,0-.481.764A2.459,2.459,0,0,0,52.862,49.249ZM45,48.5a3.358,3.358,0,0,0,1.359-.278,3.545,3.545,0,0,0,1.863-1.863,3.461,3.461,0,0,0,0-2.718,3.542,3.542,0,0,0-1.863-1.864,3.472,3.472,0,0,0-2.718,0,3.542,3.542,0,0,0-1.863,1.864,3.461,3.461,0,0,0,0,2.718,3.545,3.545,0,0,0,1.863,1.863A3.358,3.358,0,0,0,45,48.5Z" fill="#fff" stroke="#fff" stroke-linejoin="round" stroke-width="3" opacity="0.5"/>
      <path d="M52.862,49.249a2.368,2.368,0,0,0,.165.868,2.249,2.249,0,0,0,.516.775l.8.8a11.242,11.242,0,0,1-2.652,2.652l-.8-.8a2.193,2.193,0,0,0-.774-.517,2.344,2.344,0,0,0-.868-.165,2.407,2.407,0,0,0-.892.165,2.2,2.2,0,0,0-.751.481,2.436,2.436,0,0,0-.528.751,2.249,2.249,0,0,0-.2.95v1.127c-.312.047-.626.086-.938.116a9.4,9.4,0,0,1-1.878,0q-.47-.045-.938-.116V55.21a2.265,2.265,0,0,0-.2-.95,2.453,2.453,0,0,0-.528-.751,2.178,2.178,0,0,0-.763-.481,2.437,2.437,0,0,0-.88-.165,2.34,2.34,0,0,0-.868.165,2.193,2.193,0,0,0-.774.517l-.8.8a11.242,11.242,0,0,1-2.652-2.652l.8-.8a2.249,2.249,0,0,0,.516-.775,2.368,2.368,0,0,0,.165-.868,2.459,2.459,0,0,0-.165-.88,2.212,2.212,0,0,0-.481-.764,2.445,2.445,0,0,0-.751-.527,2.249,2.249,0,0,0-.95-.2H33.665q-.072-.471-.118-.939a9.4,9.4,0,0,1,0-1.878q.047-.468.118-.939h1.126a2.249,2.249,0,0,0,.95-.2,2.448,2.448,0,0,0,.751-.528,2.229,2.229,0,0,0,.481-.752,2.422,2.422,0,0,0,.165-.891,2.356,2.356,0,0,0-.165-.868,2.239,2.239,0,0,0-.516-.775l-.8-.8a11.242,11.242,0,0,1,2.652-2.652l.8.8a2.207,2.207,0,0,0,.774.517,2.36,2.36,0,0,0,.868.165,2.459,2.459,0,0,0,.88-.165,2.208,2.208,0,0,0,.763-.481,2.524,2.524,0,0,0,.528-.739,2.242,2.242,0,0,0,.2-.962V33.665q.468-.07.938-.116a9.022,9.022,0,0,1,1.878,0c.312.03.626.069.938.116v1.127a2.3,2.3,0,0,0,1.479,2.182,2.428,2.428,0,0,0,.892.165,2.536,2.536,0,0,0,.856-.154,2.067,2.067,0,0,0,.786-.5l.8-.822a11.242,11.242,0,0,1,2.652,2.652l-.8.8a2.239,2.239,0,0,0-.516.775,2.356,2.356,0,0,0-.165.868,2.422,2.422,0,0,0,.165.891,2.229,2.229,0,0,0,.481.752,2.505,2.505,0,0,0,.739.528,2.224,2.224,0,0,0,.962.2h1.126c.048.314.086.627.118.939s.047.625.047.938-.016.627-.047.94-.07.625-.118.939H55.209a2.224,2.224,0,0,0-.962.2,2.5,2.5,0,0,0-.739.527,2.212,2.212,0,0,0-.481.764A2.459,2.459,0,0,0,52.862,49.249ZM45,48.5a3.358,3.358,0,0,0,1.359-.278,3.545,3.545,0,0,0,1.863-1.863,3.461,3.461,0,0,0,0-2.718,3.542,3.542,0,0,0-1.863-1.864,3.472,3.472,0,0,0-2.718,0,3.542,3.542,0,0,0-1.863,1.864,3.461,3.461,0,0,0,0,2.718,3.545,3.545,0,0,0,1.863,1.863A3.358,3.358,0,0,0,45,48.5Z" stroke="#323232" stroke-linejoin="round" fill="url(#e)"/>
    </g>
    <g opacity="0.2">
      <path d="M37.438,39.7a2.906,2.906,0,0,1,.153.558,2.944,2.944,0,0,0,.047-.508,2.887,2.887,0,0,0-.2-1.05,2.737,2.737,0,0,0-.627-.947l-.025-.025c-.157.177-.324.345-.469.533l.494.492A2.737,2.737,0,0,1,37.438,39.7Z"/>
      <path d="M52.563,38.7a2.855,2.855,0,0,0-.2,1.052,2.956,2.956,0,0,0,.047.509,2.828,2.828,0,0,1,.154-.561,2.71,2.71,0,0,1,.625-.944l.495-.493c-.145-.188-.312-.356-.469-.533l-.026.026A2.71,2.71,0,0,0,52.563,38.7Z"/>
      <path d="M55.956,44.89c-.017.163-.035.326-.056.489h-.691a2.716,2.716,0,0,0-1.176.247,3,3,0,0,0-.886.633,2.7,2.7,0,0,0-.587.932,2.973,2.973,0,0,0-.2,1.058,2.855,2.855,0,0,0,.047.5,3.007,3.007,0,0,1,.151-.555,2.7,2.7,0,0,1,.587-.932,3,3,0,0,1,.886-.633,2.716,2.716,0,0,1,1.176-.247H55.9c.021-.163.039-.326.056-.489.029-.3.044-.592.044-.89,0-.167-.015-.333-.025-.5C55.968,44.63,55.969,44.76,55.956,44.89Z"/>
      <path d="M37.44,48.192a3.1,3.1,0,0,1,.151.554,2.864,2.864,0,0,0,.047-.5,3,3,0,0,0-.2-1.057,2.715,2.715,0,0,0-.587-.933,2.94,2.94,0,0,0-.9-.635,2.737,2.737,0,0,0-1.159-.245H34.1c-.021-.163-.039-.327-.056-.491-.013-.129-.012-.259-.019-.388-.009.167-.025.334-.025.5a8.771,8.771,0,0,0,.044.888c.017.164.035.328.056.491h.691a2.737,2.737,0,0,1,1.159.245,2.94,2.94,0,0,1,.9.635A2.715,2.715,0,0,1,37.44,48.192Z"/>
      <path d="M51.737,52.684l-.491-.492a2.7,2.7,0,0,0-.947-.629,2.952,2.952,0,0,0-2.122,0,2.72,2.72,0,0,0-.918.586,2.964,2.964,0,0,0-.636.9,2.747,2.747,0,0,0-.246,1.159V54.9c-.163.021-.326.038-.489.055a8.531,8.531,0,0,1-1.779,0c-.162-.016-.324-.033-.486-.054V54.21a2.764,2.764,0,0,0-.246-1.159,2.986,2.986,0,0,0-.636-.9,2.691,2.691,0,0,0-.93-.586,2.912,2.912,0,0,0-2.107,0,2.688,2.688,0,0,0-.948.629l-.493.493a10.786,10.786,0,0,1-1.477-1.413l-.469.467a10.8,10.8,0,0,0,1.946,1.946l.493-.493a2.688,2.688,0,0,1,.948-.629,2.912,2.912,0,0,1,2.107,0,2.691,2.691,0,0,1,.93.586,2.986,2.986,0,0,1,.636.9,2.764,2.764,0,0,1,.246,1.159V55.9c.162.021.324.038.486.054a8.531,8.531,0,0,0,1.779,0c.163-.017.326-.034.489-.055V55.21a2.747,2.747,0,0,1,.246-1.159,2.964,2.964,0,0,1,.636-.9,2.72,2.72,0,0,1,.918-.586,2.952,2.952,0,0,1,2.122,0,2.7,2.7,0,0,1,.947.629l.491.492a10.8,10.8,0,0,0,1.946-1.946l-.469-.467A10.786,10.786,0,0,1,51.737,52.684Z"/>
    </g>
    <g opacity="0.3">
      <path d="M52.561,41.822a2.79,2.79,0,0,1-.152-.56,2.769,2.769,0,0,0-.047.491,2.905,2.905,0,0,0,.2,1.069,2.7,2.7,0,0,0,.586.921,3,3,0,0,0,.886.633,2.735,2.735,0,0,0,1.176.247H55.9c.021.163.039.326.056.489.013.13.012.259.019.389.01-.167.025-.333.025-.5q0-.444-.044-.888c-.017-.163-.035-.326-.056-.489h-.691a2.735,2.735,0,0,1-1.176-.247,3,3,0,0,1-.886-.633A2.7,2.7,0,0,1,52.561,41.822Z" fill="#fff"/>
      <path d="M38.263,37.318l.491.492a2.7,2.7,0,0,0,.947.629,2.92,2.92,0,0,0,2.106,0,2.706,2.706,0,0,0,.935-.589,3.034,3.034,0,0,0,.633-.885,2.732,2.732,0,0,0,.248-1.177V35.1c.162-.021.325-.039.49-.055a8.531,8.531,0,0,1,1.779,0c.162.015.323.033.485.054v.69a2.806,2.806,0,0,0,1.8,2.648,2.99,2.99,0,0,0,2.1.018,2.593,2.593,0,0,0,.979-.627l.493-.508a10.779,10.779,0,0,1,1.472,1.409l.469-.467a10.781,10.781,0,0,0-1.941-1.942l-.493.508a2.593,2.593,0,0,1-.979.627,2.99,2.99,0,0,1-2.1-.018,2.8,2.8,0,0,1-1.8-2.648V34.1c-.162-.021-.323-.039-.485-.054a8.531,8.531,0,0,0-1.779,0c-.165.016-.328.034-.49.055v.69a2.732,2.732,0,0,1-.248,1.177,3.034,3.034,0,0,1-.633.885,2.706,2.706,0,0,1-.935.589,2.92,2.92,0,0,1-2.106,0,2.7,2.7,0,0,1-.947-.629l-.491-.492a10.8,10.8,0,0,0-1.946,1.946l.469.467A10.786,10.786,0,0,1,38.263,37.318Z" fill="#fff"/>
      <path d="M52.561,50.3a2.888,2.888,0,0,1-.152-.551,2.942,2.942,0,0,0-.047.5,2.881,2.881,0,0,0,.2,1.048,2.724,2.724,0,0,0,.628.949l.025.025c.157-.177.324-.345.469-.533l-.494-.492A2.724,2.724,0,0,1,52.561,50.3Z" fill="#fff"/>
      <path d="M37.438,51.3a2.9,2.9,0,0,0,.2-1.049,2.942,2.942,0,0,0-.047-.5,2.963,2.963,0,0,1-.153.552,2.73,2.73,0,0,1-.626.947l-.495.493c.145.188.312.356.469.533l.026-.026A2.73,2.73,0,0,0,37.438,51.3Z" fill="#fff"/>
      <path d="M34.044,45.112c.017-.163.035-.326.056-.489h.691a2.756,2.756,0,0,0,1.159-.245,2.94,2.94,0,0,0,.9-.635,2.739,2.739,0,0,0,.585-.918,2.94,2.94,0,0,0,.2-1.072,2.8,2.8,0,0,0-.047-.492,2.885,2.885,0,0,1-.153.564,2.739,2.739,0,0,1-.585.918,2.94,2.94,0,0,1-.9.635,2.756,2.756,0,0,1-1.159.245H34.1c-.021.163-.039.326-.056.489A8.829,8.829,0,0,0,34,45c0,.167.016.333.025.5C34.032,45.371,34.031,45.242,34.044,45.112Z" fill="#fff"/>
    </g>
    <path d="M45,40a5,5,0,1,0,5,5A5,5,0,0,0,45,40Zm0,9a4,4,0,1,1,4-4A4,4,0,0,1,45,49Z" opacity="0.3" fill="url(#f)"/>
  </g>
</svg>
