<svg xmlns="http://www.w3.org/2000/svg" xmlns:xlink="http://www.w3.org/1999/xlink" viewBox="0 0 128 128"><defs><style>.cls-1,.cls-2,.cls-3,.cls-4,.cls-5,.cls-6,.cls-8{stroke:#787878;}.cls-1,.cls-2,.cls-3,.cls-4,.cls-5,.cls-6,.cls-7,.cls-8{stroke-linecap:round;}.cls-1,.cls-19,.cls-2,.cls-20,.cls-21,.cls-22,.cls-23,.cls-24,.cls-25,.cls-26,.cls-27,.cls-28,.cls-29,.cls-3,.cls-33,.cls-35,.cls-36,.cls-4,.cls-5,.cls-6,.cls-7,.cls-8{stroke-linejoin:round;}.cls-1,.cls-19,.cls-2,.cls-20,.cls-21,.cls-22,.cls-23,.cls-24,.cls-25,.cls-26,.cls-27,.cls-28,.cls-3,.cls-35,.cls-4,.cls-5,.cls-6,.cls-7,.cls-8{stroke-width:2px;}.cls-1{fill:url(#linear-gradient);}.cls-2{fill:url(#linear-gradient-2);}.cls-3{fill:url(#linear-gradient-3);}.cls-4{fill:url(#linear-gradient-4);}.cls-5{fill:url(#linear-gradient-5);}.cls-6{fill:url(#linear-gradient-6);}.cls-33,.cls-36,.cls-7,.cls-8{fill:none;}.cls-19,.cls-20,.cls-21,.cls-22,.cls-23,.cls-24,.cls-25,.cls-26,.cls-27,.cls-28,.cls-7{stroke:#323232;}.cls-9{fill:url(#linear-gradient-7);}.cls-10{fill:#323232;}.cls-11{fill:url(#linear-gradient-8);}.cls-12{fill:url(#linear-gradient-9);}.cls-13{fill:url(#linear-gradient-10);}.cls-14{fill:url(#linear-gradient-11);}.cls-15{fill:url(#linear-gradient-12);}.cls-16{fill:url(#linear-gradient-13);}.cls-17{fill:url(#linear-gradient-14);}.cls-18{fill:url(#linear-gradient-15);}.cls-19{fill:url(#linear-gradient-16);}.cls-20{fill:url(#linear-gradient-17);}.cls-21{fill:url(#linear-gradient-18);}.cls-22{fill:url(#linear-gradient-19);}.cls-23{fill:url(#linear-gradient-20);}.cls-24{fill:url(#linear-gradient-21);}.cls-25{fill:url(#linear-gradient-22);}.cls-26{fill:url(#linear-gradient-23);}.cls-27{fill:url(#linear-gradient-24);}.cls-28{fill:url(#linear-gradient-25);}.cls-29,.cls-31{fill:#fff;}.cls-29,.cls-33{stroke:#fff;}.cls-29{stroke-width:4px;}.cls-29,.cls-30{opacity:0.5;}.DARK-GREY-Fill{fill:url(#linear-gradient-26);}.cls-32{fill-rule:evenodd;fill:url(#linear-gradient-27);}.cls-33{stroke-width:5px;}.cls-34{fill:url(#linear-gradient-28);}.cls-35,.cls-36{stroke:#003755;}.cls-35{fill:url(#linear-gradient-29);}</style><linearGradient id="linear-gradient" x1="36.28" y1="80.86" x2="86.88" y2="80.86" gradientUnits="userSpaceOnUse"><stop offset="0" stop-color="#fff"/><stop offset="1" stop-color="#d2d2d2"/></linearGradient><linearGradient id="linear-gradient-2" x1="64.6" y1="72.5" x2="108.74" y2="72.5" xlink:href="#linear-gradient"/><linearGradient id="linear-gradient-3" x1="36.76" y1="80.13" x2="86.88" y2="80.13" xlink:href="#linear-gradient"/><linearGradient id="linear-gradient-4" x1="64.6" y1="72.41" x2="109.59" y2="72.41" xlink:href="#linear-gradient"/><linearGradient id="linear-gradient-5" x1="38.03" y1="78.72" x2="86.88" y2="78.72" xlink:href="#linear-gradient"/><linearGradient id="linear-gradient-6" x1="64.6" y1="71.42" x2="110.07" y2="71.42" xlink:href="#linear-gradient"/><linearGradient id="linear-gradient-7" x1="83.38" y1="64.04" x2="89.15" y2="74.03" gradientUnits="userSpaceOnUse"><stop offset="0" stop-color="#aaa"/><stop offset="1" stop-color="#5a5a5a"/></linearGradient><linearGradient id="linear-gradient-8" x1="80.64" y1="63.56" x2="81.73" y2="65.44" xlink:href="#linear-gradient-7"/><linearGradient id="linear-gradient-9" x1="1832.36" y1="80.52" x2="1833.81" y2="83.03" gradientTransform="translate(-1277.74 1304.25) rotate(-45)" xlink:href="#linear-gradient-7"/><linearGradient id="linear-gradient-10" x1="3060.13" y1="1334.8" x2="3061.3" y2="1336.82" gradientTransform="translate(-1259 3130) rotate(-90)" xlink:href="#linear-gradient-7"/><linearGradient id="linear-gradient-11" x1="3038.55" y1="3091.5" x2="3039.16" y2="3092.57" gradientTransform="translate(45.25 4407.74) rotate(-135)" xlink:href="#linear-gradient-7"/><linearGradient id="linear-gradient-12" x1="1779.23" y1="4314.44" x2="1780.33" y2="4316.35" gradientTransform="translate(1871 4389) rotate(180)" xlink:href="#linear-gradient-7"/><linearGradient id="linear-gradient-13" x1="27.04" y1="4287.13" x2="28.61" y2="4289.84" gradientTransform="translate(3148.74 3084.75) rotate(135)" xlink:href="#linear-gradient-7"/><linearGradient id="linear-gradient-14" x1="-1190.78" y1="3033.36" x2="-1189.58" y2="3035.44" gradientTransform="translate(3130 1259) rotate(90)" xlink:href="#linear-gradient-7"/><linearGradient id="linear-gradient-15" x1="-1168.53" y1="1287.35" x2="-1168.01" y2="1288.25" gradientTransform="translate(1825.75 -18.74) rotate(45)" xlink:href="#linear-gradient-7"/><linearGradient id="linear-gradient-16" x1="29.33" y1="44.59" x2="47.78" y2="76.55" xlink:href="#linear-gradient-7"/><linearGradient id="linear-gradient-17" x1="41.66" y1="32.07" x2="46.66" y2="40.74" xlink:href="#linear-gradient-7"/><linearGradient id="linear-gradient-18" x1="55.55" y1="43.25" x2="60.55" y2="51.91" xlink:href="#linear-gradient-7"/><linearGradient id="linear-gradient-19" x1="58.71" y1="57.53" x2="63.71" y2="66.19" xlink:href="#linear-gradient-7"/><linearGradient id="linear-gradient-20" x1="22.08" y1="74.3" x2="27.08" y2="82.96" xlink:href="#linear-gradient-7"/><linearGradient id="linear-gradient-21" x1="26.5" y1="40.77" x2="31.5" y2="49.43" xlink:href="#linear-gradient-7"/><linearGradient id="linear-gradient-22" x1="18.29" y1="56.91" x2="23.29" y2="65.57" xlink:href="#linear-gradient-7"/><linearGradient id="linear-gradient-23" x1="38.5" y1="79.89" x2="43.5" y2="88.55" xlink:href="#linear-gradient-7"/><linearGradient id="linear-gradient-24" x1="51.5" y1="71.89" x2="56.5" y2="80.55" xlink:href="#linear-gradient-7"/><linearGradient id="linear-gradient-25" x1="34.31" y1="47.15" x2="52.76" y2="79.11" xlink:href="#linear-gradient-7"/><linearGradient id="linear-gradient-26" x1="-138.07" y1="-1066.79" x2="-118.99" y2="-1066.79" gradientTransform="translate(918.73 721.05) rotate(-45)" gradientUnits="userSpaceOnUse"><stop offset="0" stop-color="#464646"/><stop offset="1" stop-color="#141414"/></linearGradient><linearGradient id="linear-gradient-27" x1="100.17" y1="-1579.58" x2="81.83" y2="-1547.82" gradientTransform="matrix(1, 0, 0, -1, 0, -1469.7)" gradientUnits="userSpaceOnUse"><stop offset="0" stop-color="#161616"/><stop offset="1" stop-color="#515151"/></linearGradient><linearGradient id="linear-gradient-28" x1="81.91" y1="78.26" x2="99.86" y2="109.34" gradientUnits="userSpaceOnUse"><stop offset="0" stop-color="#8cd7f5"/><stop offset="1" stop-color="#376e8c"/></linearGradient><linearGradient id="linear-gradient-29" x1="81.71" y1="-1579.41" x2="99.96" y2="-1547.8" gradientTransform="matrix(1, 0, 0, -1, 0, -1469.7)" xlink:href="#linear-gradient-28"/></defs><g id="book_page_3" data-name="book page 3"><path class="cls-1" d="M86.88,87.3S77.7,89.43,74,90.89c-5.76,2.28-12.56,9.48-12.56,9.48L36.28,75.43S45.94,64.57,51.5,63.36s13.1-2,13.1-2Z"/><path class="cls-2" d="M108.74,81.1s-3.32.43-11.17,2.13a37.06,37.06,0,0,0-10.69,4.44L64.6,61.59s7.19-4.09,11.84-4.19a105.69,105.69,0,0,1,10.81.06Z"/></g><g id="book_page_2" data-name="book page 2"><path class="cls-3" d="M86.88,87.79A55.38,55.38,0,0,0,73.54,90.1c-5.86,2-11.6,8.32-11.6,8.32L36.76,72.27s9.18-7.21,14.74-8.43,13.1-2,13.1-2Z"/><path class="cls-4" d="M109.59,80.25a36.71,36.71,0,0,0-12.2,1.58,43.89,43.89,0,0,0-10.51,5.84L64.6,61.59s7.19-4.09,11.84-4.19c8.87-.18,12.62-.24,12.62-.24Z"/></g><g id="book_page_1" data-name="book page 1"><path class="cls-5" d="M86.88,87.79s-8-1.46-13.83.55-10.38,7.81-10.38,7.81L38,68.05s8-5,13.59-6.21,13,0,13,0Z"/><path class="cls-6" d="M110.07,79.4s-7.06-1.09-12.56.85-10.63,7.42-10.63,7.42L64.6,61.59S71.3,57.45,75.71,56c4.83-1.58,14.07-.42,14.07-.42Z"/></g><g id="book_contour" data-name="book contour"><path class="cls-7" d="M109.59,80.25l-.9-1c.86.08,1.38.16,1.38.16L89.78,55.58s-9.24-1.16-14.07.42c-4.06,1.33-10,4.94-11,5.51l-.14-.16-2,.23a37.47,37.47,0,0,0-11,.26C46.06,63.05,38,68.05,38,68.05l1.75,2c-1.8,1.26-3,2.22-3,2.22L38,73.57c-1.07,1.11-1.73,1.86-1.73,1.86l25.18,24.94s6.8-7.2,12.56-9.48A98.19,98.19,0,0,1,83.91,88c1.79-.18,3-.23,3-.23l-.34-.41.08,0,.26.31a37.06,37.06,0,0,1,10.69-4.44c7.85-1.7,11.17-2.13,11.17-2.13l-.79-.87C109,80.22,109.59,80.25,109.59,80.25Z"/></g><g id="book_writing" data-name="book writing"><path class="cls-8" d="M60.76,88.6c.24-.55,6.07-6.08,16.71-6.08"/><path class="cls-8" d="M57.72,84C58,83.49,63.79,78,74.43,78"/><path class="cls-8" d="M53.16,79.48c.24-.55,6.08-6.07,16.71-6.07"/><path class="cls-8" d="M48.6,74.93c.25-.56,6.08-6.08,16.71-6.08"/><path class="cls-9" d="M89.88,72.39c-3.95.16-8.69-1.26-10.57-3.17s-.44-3.48,3.21-3.51,8.39,1.4,10.57,3.17S93.83,72.23,89.88,72.39Zm-6-5.41c-2.3,0-3.2,1-2,2.18s4.14,2,6.56,2,3.31-1.06,2-2.18A11.52,11.52,0,0,0,83.92,67Z"/><path class="cls-10" d="M82.54,65.73c3.63,0,8.34,1.39,10.51,3.15s.74,3.34-3.19,3.49-8.64-1.25-10.51-3.15-.43-3.46,3.19-3.49m6,5.42c2.44-.09,3.34-1.07,2-2.2a11.62,11.62,0,0,0-6.62-2c-2.33,0-3.23,1-2,2.2s4.19,2.07,6.63,2m-6-5.46c-3.67,0-5.12,1.62-3.23,3.53s6.66,3.35,10.63,3.19,5.43-1.74,3.23-3.53-7-3.22-10.63-3.19Zm6,5.42c-2.39.08-5.3-.8-6.49-2s-.31-2.13,2-2.16a11.41,11.41,0,0,1,6.5,2c1.3,1.11.42,2.07-2,2.16Z"/><path class="cls-11" d="M81.88,65.13A3.2,3.2,0,0,1,80,64.5c-.38-.35-.14-.64.53-.63a3.35,3.35,0,0,1,1.94.63C82.81,64.84,82.57,65.13,81.88,65.13Z"/><path class="cls-10" d="M80.51,63.89a3.24,3.24,0,0,1,1.87.61c.38.33.14.61-.52.61A3.07,3.07,0,0,1,80,64.5c-.37-.34-.14-.62.52-.61m-.05,0c-.7,0-.94.29-.55.65a3.31,3.31,0,0,0,2,.65c.71,0,1-.3.56-.65a3.48,3.48,0,0,0-2-.65Z"/><path class="cls-12" d="M76.91,66.54a3.22,3.22,0,0,1-1.08-.18c-.74-.25-1.15-.67-.91-.93a1.06,1.06,0,0,1,.7-.2,3.5,3.5,0,0,1,1.07.19,2.15,2.15,0,0,1,.83.46c.18.17.21.34.1.46A1,1,0,0,1,76.91,66.54Z"/><path class="cls-10" d="M75.64,65.25a3.61,3.61,0,0,1,1,.18,2.21,2.21,0,0,1,.8.45c.17.17.2.33.09.45a1,1,0,0,1-.68.19,3.29,3.29,0,0,1-1-.17,2,2,0,0,1-.79-.45c-.17-.17-.2-.33-.09-.45a1,1,0,0,1,.68-.2m0,0a1,1,0,0,0-.71.21c-.25.26.17.7.93,1a3.35,3.35,0,0,0,1.12.18,1,1,0,0,0,.73-.2c.24-.27-.19-.7-1-1a3.58,3.58,0,0,0-1.11-.2Z"/><path class="cls-13" d="M77.43,70a2.94,2.94,0,0,1-1.93-.63c-.34-.37,0-.68.68-.7a3,3,0,0,1,1.93.63C78.46,69.62,78.16,69.93,77.43,70Z"/><path class="cls-10" d="M76.2,68.64a2.93,2.93,0,0,1,1.87.61c.34.36.05.66-.66.68a2.83,2.83,0,0,1-1.87-.61c-.33-.36,0-.66.66-.68m0,0c-.74,0-1,.34-.7.72a3,3,0,0,0,2,.65c.75,0,1.07-.34.7-.72a3.06,3.06,0,0,0-2-.65Z"/><path class="cls-14" d="M83.5,73.2a3.87,3.87,0,0,1-1.15-.15c-.78-.24-1.19-.66-.91-.93a1.14,1.14,0,0,1,.77-.23,3.53,3.53,0,0,1,1.14.16,2.15,2.15,0,0,1,.86.44c.18.17.2.34.07.48A1.29,1.29,0,0,1,83.5,73.2Z"/><path class="cls-10" d="M82.23,71.91a3.56,3.56,0,0,1,1.1.15c.76.23,1.17.63.9.89a1.21,1.21,0,0,1-.75.23A3.68,3.68,0,0,1,82.36,73c-.75-.23-1.14-.63-.88-.9a1.15,1.15,0,0,1,.75-.22m0,0a1.21,1.21,0,0,0-.78.23c-.29.29.12.72.93,1a4,4,0,0,0,1.19.16,1.31,1.31,0,0,0,.8-.24c.29-.28-.15-.71-1-1a3.85,3.85,0,0,0-1.18-.16Z"/><path class="cls-15" d="M91.92,74.24a3.3,3.3,0,0,1-2.08-.57c-.38-.35-.07-.66.68-.7a3.47,3.47,0,0,1,2.08.57C93,73.89,92.68,74.2,91.92,74.24Z"/><path class="cls-10" d="M90.54,73a3.24,3.24,0,0,1,2,.56c.38.33.09.63-.65.67a3.16,3.16,0,0,1-2-.55c-.37-.34-.08-.65.65-.68m0,0c-.78,0-1.09.36-.7.72a3.4,3.4,0,0,0,2.14.59c.79,0,1.1-.36.7-.72A3.51,3.51,0,0,0,90.5,73Z"/><path class="cls-16" d="M97.4,72.61a3.83,3.83,0,0,1-1.19-.14,2.39,2.39,0,0,1-.92-.42c-.2-.16-.24-.32-.13-.45a1.14,1.14,0,0,1,.74-.21,4.4,4.4,0,0,1,1.17.14c.82.22,1.31.6,1.07.86A1.06,1.06,0,0,1,97.4,72.61Z"/><path class="cls-10" d="M95.92,71.41a4.18,4.18,0,0,1,1.14.14c.8.21,1.26.58,1,.83a1.06,1.06,0,0,1-.72.21,3.81,3.81,0,0,1-1.14-.13,2.44,2.44,0,0,1-.9-.41c-.19-.16-.23-.31-.12-.43a1.07,1.07,0,0,1,.71-.21m0,0a1.14,1.14,0,0,0-.76.22c-.25.27.23.67,1.08.9a4.12,4.12,0,0,0,1.22.14,1.17,1.17,0,0,0,.77-.22c.24-.27-.26-.67-1.1-.89a4.54,4.54,0,0,0-1.21-.15Z"/><path class="cls-17" d="M96.37,69.42a3.68,3.68,0,0,1-2.08-.57c-.42-.33-.18-.62.54-.63a3.8,3.8,0,0,1,2.07.57C97.33,69.12,97.09,69.4,96.37,69.42Z"/><path class="cls-10" d="M94.85,68.24a3.64,3.64,0,0,1,2,.55c.42.32.18.6-.52.62a3.56,3.56,0,0,1-2-.56c-.4-.32-.17-.6.52-.61m0,0c-.73,0-1,.31-.55.65a3.78,3.78,0,0,0,2.14.59c.75,0,1-.31.55-.65a3.91,3.91,0,0,0-2.14-.59Z"/><path class="cls-18" d="M89.79,66.39a4.11,4.11,0,0,1-1.11-.17,2.54,2.54,0,0,1-.89-.43c-.2-.17-.26-.32-.16-.44a.92.92,0,0,1,.66-.19,3.78,3.78,0,0,1,1.11.18c.78.23,1.26.62,1.06.86S90.13,66.38,89.79,66.39Z"/><path class="cls-10" d="M88.32,65.18a3.89,3.89,0,0,1,1.07.17,2.71,2.71,0,0,1,.87.42c.2.15.25.3.16.42a.9.9,0,0,1-.65.18,3.87,3.87,0,0,1-1.08-.16,2.61,2.61,0,0,1-.87-.42c-.19-.16-.24-.31-.15-.43a1,1,0,0,1,.65-.18m0,0a.89.89,0,0,0-.68.19c-.21.25.27.65,1.08.89a4.13,4.13,0,0,0,1.14.18,1,1,0,0,0,.7-.2c.2-.25-.29-.64-1.1-.89a3.8,3.8,0,0,0-1.14-.17Z"/></g><g id="bearing_-_piece_2" data-name="bearing - piece 2"><path class="cls-19" d="M46.67,40.31c-8.21-3.29-18.5,3.12-23,14.31s-1.46,22.94,6.75,26.22,18.49-3.12,23-14.32S54.87,43.59,46.67,40.31Zm1.19,24.33c-2.81,7-9.26,11-14.4,9s-7-9.42-4.24-16.44,9.26-11,14.41-9S50.67,57.62,47.86,64.64Z"/></g><g id="balls"><circle class="cls-20" cx="44.16" cy="36.41" r="5"/><circle class="cls-21" cx="58.05" cy="47.58" r="5"/><circle class="cls-22" cx="61.21" cy="61.86" r="5"/><circle class="cls-23" cx="24.58" cy="78.63" r="5"/><circle class="cls-24" cx="29" cy="45.1" r="5"/><circle class="cls-25" cx="20.79" cy="61.24" r="5"/><circle class="cls-26" cx="41" cy="84.22" r="5"/><circle class="cls-27" cx="54" cy="76.22" r="5"/></g><g id="bearing_-_piece_1" data-name="bearing - piece 1"><path class="cls-28" d="M51.65,42.86c-8.21-3.29-18.5,3.12-23,14.32s-1.46,22.93,6.75,26.21,18.49-3.12,23-14.31S59.85,46.15,51.65,42.86Zm1.19,24.33c-2.81,7-9.26,11-14.41,9s-7-9.42-4.23-16.44,9.26-11,14.41-9S55.65,60.18,52.84,67.19Z"/></g><g id="arrow_halo" data-name="arrow halo"><path class="cls-29" d="M70.9,41.49l-.07,8.69s15.91-3.61,15.76,15.49c0,0-5.51-8.63-15.83-6.81l-.06,7-14.5-12Z"/></g><g id="arrow"><path class="DARK-GREY-Fill" d="M70.9,41.49l-.07,8.69s15.91-3.61,15.76,15.49c0,0-5.51-8.63-15.83-6.81l-.06,7-14.5-12Z"/></g><g id="cog-EPA_copy" data-name="cog-EPA copy"><g class="cls-30"><path class="cls-31" d="M97.47,81.8c1.7-1.09,4.17-2.73,4.17-2.73L105.52,83l-2.54,4a1.61,1.61,0,0,0,.87,2.4L109,90.93v5.52l-5.17,1.63a1.6,1.6,0,0,0-.87,2.39c1,1.64,2.44,3.83,2.56,4l-3.88,3.89-3.87-2.49a1.6,1.6,0,0,0-2.42,1l-1.49,5.63H88.34l-1.62-5.17a1.61,1.61,0,0,0-2.4-.87c-1.63,1-3.83,2.43-4,2.56l-3.88-3.88,2.54-4a1.61,1.61,0,0,0-.87-2.4L73,97.07V91.55l5.3-2.28A1.6,1.6,0,0,0,79,86.85l-2.7-3.69,3.89-3.89,4,2.55a1.61,1.61,0,0,0,2.41-.88l1.62-5.14h5.11S94.31,79,95.1,81A1.6,1.6,0,0,0,97.47,81.8ZM91,101a7,7,0,1,0-7-7,6.88,6.88,0,0,0,7,7"/><path class="cls-32" d="M97.47,81.8c1.7-1.09,4.17-2.73,4.17-2.73L105.52,83l-2.54,4a1.61,1.61,0,0,0,.87,2.4L109,90.93v5.52l-5.17,1.63a1.6,1.6,0,0,0-.87,2.39c1,1.64,2.44,3.83,2.56,4l-3.88,3.89-3.87-2.49a1.6,1.6,0,0,0-2.42,1l-1.49,5.63H88.34l-1.62-5.17a1.61,1.61,0,0,0-2.4-.87c-1.63,1-3.83,2.43-4,2.56l-3.88-3.88,2.54-4a1.61,1.61,0,0,0-.87-2.4L73,97.07V91.55l5.3-2.28A1.6,1.6,0,0,0,79,86.85l-2.7-3.69,3.89-3.89,4,2.55a1.61,1.61,0,0,0,2.41-.88l1.62-5.14h5.11S94.31,79,95.1,81A1.6,1.6,0,0,0,97.47,81.8ZM91,101a7,7,0,1,0-7-7,6.88,6.88,0,0,0,7,7"/><path class="cls-33" d="M97.47,81.8c1.7-1.09,4.17-2.73,4.17-2.73L105.52,83l-2.54,4a1.61,1.61,0,0,0,.87,2.4L109,90.93v5.52l-5.17,1.63a1.6,1.6,0,0,0-.87,2.39c1,1.64,2.44,3.83,2.56,4l-3.88,3.89-3.87-2.49a1.6,1.6,0,0,0-2.42,1l-1.49,5.63H88.34l-1.62-5.17a1.61,1.61,0,0,0-2.4-.87c-1.63,1-3.83,2.43-4,2.56l-3.88-3.88,2.54-4a1.61,1.61,0,0,0-.87-2.4L73,97.07V91.55l5.3-2.28A1.6,1.6,0,0,0,79,86.85l-2.7-3.69,3.89-3.89,4,2.55a1.61,1.61,0,0,0,2.41-.88l1.62-5.14h5.11S94.31,79,95.1,81A1.6,1.6,0,0,0,97.47,81.8ZM91,101a7,7,0,1,0-7-7,6.88,6.88,0,0,0,7,7"/></g></g><g id="cog-EPA"><path class="cls-34" d="M97.47,81.8c1.7-1.09,4.17-2.73,4.17-2.73L105.52,83l-2.54,4a1.61,1.61,0,0,0,.87,2.4L109,90.93v5.52l-5.17,1.63a1.6,1.6,0,0,0-.87,2.39c1,1.64,2.44,3.83,2.56,4l-3.88,3.89-3.87-2.49a1.6,1.6,0,0,0-2.42,1l-1.49,5.63H88.34l-1.62-5.17a1.61,1.61,0,0,0-2.4-.87c-1.63,1-3.83,2.43-4,2.56l-3.88-3.88,2.54-4a1.61,1.61,0,0,0-.87-2.4L73,97.07V91.55l5.3-2.28A1.6,1.6,0,0,0,79,86.85l-2.7-3.69,3.89-3.89,4,2.55a1.61,1.61,0,0,0,2.41-.88l1.62-5.14h5.11S94.31,79,95.1,81A1.6,1.6,0,0,0,97.47,81.8ZM91,101a7,7,0,1,0-7-7,6.88,6.88,0,0,0,7,7"/><path class="cls-35" d="M97.47,81.8c1.7-1.09,4.17-2.73,4.17-2.73L105.52,83l-2.54,4a1.61,1.61,0,0,0,.87,2.4L109,90.93v5.52l-5.17,1.63a1.6,1.6,0,0,0-.87,2.39c1,1.64,2.44,3.83,2.56,4l-3.88,3.89-3.87-2.49a1.6,1.6,0,0,0-2.42,1l-1.49,5.63H88.34l-1.62-5.17a1.61,1.61,0,0,0-2.4-.87c-1.63,1-3.83,2.43-4,2.56l-3.88-3.88,2.54-4a1.61,1.61,0,0,0-.87-2.4L73,97.07V91.55l5.3-2.28A1.6,1.6,0,0,0,79,86.85l-2.7-3.69,3.89-3.89,4,2.55a1.61,1.61,0,0,0,2.41-.88l1.62-5.14h5.11S94.31,79,95.1,81A1.6,1.6,0,0,0,97.47,81.8ZM91,101a7,7,0,1,0-7-7,6.88,6.88,0,0,0,7,7"/><path class="cls-36" d="M97.47,81.8c1.7-1.09,4.17-2.73,4.17-2.73L105.52,83l-2.54,4a1.61,1.61,0,0,0,.87,2.4L109,90.93v5.52l-5.17,1.63a1.6,1.6,0,0,0-.87,2.39c1,1.64,2.44,3.83,2.56,4l-3.88,3.89-3.87-2.49a1.6,1.6,0,0,0-2.42,1l-1.49,5.63H88.34l-1.62-5.17a1.61,1.61,0,0,0-2.4-.87c-1.63,1-3.83,2.43-4,2.56l-3.88-3.88,2.54-4a1.61,1.61,0,0,0-.87-2.4L73,97.07V91.55l5.3-2.28A1.6,1.6,0,0,0,79,86.85l-2.7-3.69,3.89-3.89,4,2.55a1.61,1.61,0,0,0,2.41-.88l1.62-5.14h5.11S94.31,79,95.1,81A1.6,1.6,0,0,0,97.47,81.8ZM91,101a7,7,0,1,0-7-7,6.88,6.88,0,0,0,7,7"/></g></svg>