<svg xmlns="http://www.w3.org/2000/svg" xmlns:xlink="http://www.w3.org/1999/xlink" width="64" height="64" viewBox="0 0 64 64">
  <defs>
    <radialGradient id="a" cx="-550.038" cy="194.393" r="55.559" gradientTransform="matrix(0.813, 0.021, -0.021, 0.813, 486.618, -121.271)" gradientUnits="userSpaceOnUse">
      <stop offset="0.032" stop-color="#fff"/>
      <stop offset="0.117" stop-color="#efefef"/>
      <stop offset="0.281" stop-color="#c7c6c7"/>
      <stop offset="0.508" stop-color="#868486"/>
      <stop offset="0.575" stop-color="#716f71"/>
      <stop offset="0.638" stop-color="#424142"/>
      <stop offset="0.695" stop-color="#1d1d1d"/>
      <stop offset="0.726" stop-color="#0f0f0f"/>
    </radialGradient>
    <mask id="b" x="24" y="21" width="18.417" height="23" maskUnits="userSpaceOnUse">
      <polygon points="25.467 23.774 25.467 41.243 26.152 41.243 40.795 32.851 40.795 32.08 25.895 23.774 25.467 23.774" fill="#fff"/>
    </mask>
    <radialGradient id="c" cx="2277.675" cy="2662.255" r="26.498" gradientTransform="translate(2247.012 -1859.631) rotate(90) scale(0.834 0.834)" gradientUnits="userSpaceOnUse">
      <stop offset="0.121" stop-color="#9eeaff"/>
      <stop offset="0.41" stop-color="#68b0c6"/>
      <stop offset="0.812" stop-color="#185971"/>
    </radialGradient>
    <linearGradient id="d" x1="34.986" y1="24.876" x2="19.931" y2="39.931" gradientUnits="userSpaceOnUse">
      <stop offset="0.188" stop-color="#006080"/>
      <stop offset="0.61" stop-color="#98c2d0"/>
      <stop offset="0.866" stop-color="#f0fbff"/>
    </linearGradient>
    <linearGradient id="e" x1="35.408" y1="26.042" x2="22.612" y2="38.839" gradientUnits="userSpaceOnUse">
      <stop offset="0" stop-color="#001b24"/>
      <stop offset="0.497" stop-color="#1c627d"/>
      <stop offset="1" stop-color="#37a7d4"/>
    </linearGradient>
  </defs>
  <title>5328_X3DPLAW_AP_AppIcon_r21x</title>
  <circle cx="32" cy="32" r="18.5" transform="translate(-0.826 0.848) rotate(-1.5)" stroke="#323232" stroke-linecap="round" stroke-linejoin="round" fill="url(#a)"/>
  <g mask="url(#b)">
    <g>
      <polygon points="24 21 42.417 32.307 24 44 24 21" fill="url(#c)"/>
      <path d="M26.429,25.341l11.4,7-11.4,7.239V25.341M24,21V44L42.417,32.307,24,21Z" fill="url(#d)"/>
    </g>
  </g>
  <path d="M25.96,24.109l14.432,8.332L25.96,40.773V24.109m0-1a1,1,0,0,0-1,1V40.773a1,1,0,0,0,1.5.866l14.432-8.332a1,1,0,0,0,0-1.732L26.46,23.242a1,1,0,0,0-.5-.134Z" fill="url(#e)"/>
</svg>
