<svg id="LOK_NET_copy" data-name="LOK NET copy" xmlns="http://www.w3.org/2000/svg" xmlns:xlink="http://www.w3.org/1999/xlink" viewBox="0 0 64 64"><defs><style>.cls-1{fill:url(#Dark_BLUE_gradient_LEFT);}.cls-2{fill:url(#Dark_BLUE_gradient_LEFT-2);}.cls-3,.cls-9{fill:#fff;}.cls-3{opacity:0.3;}.cls-4{fill:url(#Dark_BLUE_gradient_LEFT-3);}.cls-5{fill:url(#Dark_BLUE_gradient_LEFT-4);}.cls-6{fill:url(#Dark_BLUE_gradient_LEFT-5);}.cls-7{fill:url(#Dark_BLUE_gradient_LEFT-6);}.cls-8{fill:url(#top_white);filter:url(#DS_GaussianBlur_2);}.cls-10{fill:#003755;}</style><linearGradient id="Dark_BLUE_gradient_LEFT" x1="9.21" y1="35.4" x2="29.1" y2="35.4" gradientUnits="userSpaceOnUse"><stop offset="0" stop-color="#82bedc"/><stop offset="1" stop-color="#285a78"/></linearGradient><linearGradient id="Dark_BLUE_gradient_LEFT-2" x1="11.92" y1="20.04" x2="26.41" y2="20.04" xlink:href="#Dark_BLUE_gradient_LEFT"/><linearGradient id="Dark_BLUE_gradient_LEFT-3" x1="28.21" y1="33.4" x2="48.1" y2="33.4" xlink:href="#Dark_BLUE_gradient_LEFT"/><linearGradient id="Dark_BLUE_gradient_LEFT-4" x1="30.92" y1="18.04" x2="45.41" y2="18.04" xlink:href="#Dark_BLUE_gradient_LEFT"/><linearGradient id="Dark_BLUE_gradient_LEFT-5" x1="17.21" y1="41.4" x2="37.1" y2="41.4" xlink:href="#Dark_BLUE_gradient_LEFT"/><linearGradient id="Dark_BLUE_gradient_LEFT-6" x1="19.92" y1="26.04" x2="34.41" y2="26.04" xlink:href="#Dark_BLUE_gradient_LEFT"/><linearGradient id="top_white" x1="33" y1="41" x2="57" y2="41" gradientUnits="userSpaceOnUse"><stop offset="0" stop-color="#fff"/><stop offset="1" stop-color="#f0f0f0"/></linearGradient><filter id="DS_GaussianBlur_2" x="-50" y="-50" width="200" height="200" name="DS_GaussianBlur_2"><feGaussianBlur stdDeviation="1"/></filter></defs><title>aaaaaa_A33AAe__R21XArtboard 1</title><g id="version_64_copy" data-name="version 64 *** copy"><g id="USER_GROUP_copy_2" data-name="USER GROUP  *** copy 2"><g id="PG_copy_3" data-name="PG copy 3"><g id="CORPS_1_ok_copy_7" data-name="CORPS 1 ok copy 7"><path id="fond_" data-name="fond **" class="cls-1" d="M19.17,25.45c-5.52,0-10,2.48-10,7.26v9.92c0,1.44,5,2.71,9.94,2.71,5.72,0,10-1.27,10-2.71V32.71C29.1,27.93,24.7,25.45,19.17,25.45Z"/><g id="ok_contour_" data-name="ok contour  **"><path d="M19.17,26c4.51,0,9.33,1.78,9.33,6.76v9.92c0,.77-3.21,2.21-9.35,2.21-5.48,0-9.65-1.47-9.65-2.21V32.71c0-5,5.21-6.76,9.67-6.76m0-.5C13.65,25.45,9,27.93,9,32.71v9.92c0,1.44,5.22,2.71,10.15,2.71,5.72,0,9.85-1.27,9.85-2.71V32.71c0-4.78-4.3-7.26-9.83-7.26Z"/></g></g><g id="tete_ok_copy_5" data-name="tete ok *** copy 5"><g id="fond_t_" data-name="fond t ***"><path class="cls-2" d="M26.41,20a7.25,7.25,0,1,0-7.25,7.25A7.24,7.24,0,0,0,26.41,20Z"/></g><g id="contour_" data-name="contour    **"><path d="M19.16,13.3A6.75,6.75,0,1,1,12.42,20a6.75,6.75,0,0,1,6.74-6.74m0-.5A7.25,7.25,0,1,0,26.41,20a7.25,7.25,0,0,0-7.25-7.24Z"/></g></g><g id="highlight"><path class="cls-3" d="M27.29,43.16V33.58c0-2.92-3.33-5.88-5.3-5.88a7.62,7.62,0,0,1,2.59,5.88V43.9A6.11,6.11,0,0,0,27.29,43.16Z"/><path class="cls-3" d="M22.27,16.39c.53,1.05.67,2.06.32,2.23S21.52,18.08,21,17s-.67-2.06-.32-2.23S21.74,15.33,22.27,16.39Z"/></g></g><g id="p_Droite_copy_3" data-name="p Droite copy 3"><g id="CORPS_1_ok_copy_7-2" data-name="CORPS 1 ok copy 7"><path class="cls-4" d="M38.17,23.45c-5.52,0-10,2.48-10,7.26v9.92c0,1.44,5,2.71,9.94,2.71,5.72,0,10-1.27,10-2.71V30.71C48.1,25.93,43.7,23.45,38.17,23.45Z"/><g id="ok_contour_2" data-name="ok contour **"><path d="M38.17,24c4.51,0,9.33,1.78,9.33,6.76v9.92c0,.77-3.21,2.21-9.35,2.21-5.48,0-9.65-1.47-9.65-2.21V30.71c0-5,5.21-6.76,9.67-6.76m0-.5C32.65,23.45,28,25.93,28,30.71v9.92c0,1.44,5.22,2.71,10.15,2.71,5.72,0,9.85-1.27,9.85-2.71V30.71c0-4.78-4.3-7.26-9.83-7.26Z"/></g></g><g id="tete_ok_copy_5-2" data-name="tete ok *** copy 5"><g id="fond_T_2" data-name="fond T **"><path class="cls-5" d="M45.41,18a7.25,7.25,0,1,0-7.25,7.25A7.24,7.24,0,0,0,45.41,18Z"/></g><g id="contour_2" data-name="contour    **"><path d="M38.16,11.3A6.75,6.75,0,1,1,31.42,18a6.75,6.75,0,0,1,6.74-6.74m0-.5A7.25,7.25,0,1,0,45.41,18a7.25,7.25,0,0,0-7.25-7.24Z"/></g></g><g id="highlight_" data-name="highlight ***"><path class="cls-3" d="M46.29,41.16V31.58c0-2.92-3.33-5.88-5.3-5.88a7.62,7.62,0,0,1,2.59,5.88V41.9A6.11,6.11,0,0,0,46.29,41.16Z"/><path class="cls-3" d="M41.27,14.39c.53,1,.67,2.06.32,2.23S40.52,16.08,40,15s-.67-2.06-.32-2.23S40.74,13.33,41.27,14.39Z"/></g></g><g id="BLEU_MILIEU_copy_2" data-name="BLEU MILIEU *** copy 2"><g id="CORPS_copy_2" data-name="CORPS *** copy 2"><path class="cls-6" d="M27.17,31.45c-5.52,0-10,2.48-10,7.26v9.92c0,1.44,5,2.71,9.94,2.71,5.72,0,10-1.27,10-2.71V38.71C37.1,33.93,32.7,31.45,27.17,31.45Z"/><g id="ok_contour" data-name="ok contour"><path d="M27.17,32c4.51,0,9.33,1.78,9.33,6.76v9.92c0,.77-3.21,2.21-9.35,2.21-5.48,0-9.65-1.47-9.65-2.21V38.71c0-5,5.21-6.76,9.67-6.76m0-.5C21.65,31.45,17,33.93,17,38.71v9.92c0,1.44,5.22,2.71,10.15,2.71,5.72,0,9.85-1.27,9.85-2.71V38.71c0-4.78-4.3-7.26-9.83-7.26Z"/></g></g><g id="tete_ok_AV_copy_4" data-name="tete ok *** AV copy 4"><path class="cls-7" d="M34.41,26a7.25,7.25,0,1,0-7.25,7.25A7.24,7.24,0,0,0,34.41,26Z"/><g id="tete_contour_" data-name="tete   contour ***"><path d="M27.16,19.3A6.75,6.75,0,1,1,20.42,26a6.75,6.75,0,0,1,6.74-6.74m0-.5A7.25,7.25,0,1,0,34.41,26a7.24,7.24,0,0,0-7.25-7.24Z"/></g></g><g id="highlight-2" data-name="highlight"><path class="cls-3" d="M35.29,49.16V39.58c0-2.92-3.33-5.88-5.3-5.88a7.62,7.62,0,0,1,2.59,5.88V49.9A6.11,6.11,0,0,0,35.29,49.16Z"/><path class="cls-3" d="M30.27,22.39c.53,1.05.67,2.06.32,2.23S29.52,24.08,29,23s-.67-2.06-.32-2.23S29.74,21.33,30.27,22.39Z"/></g></g></g><g id="ROUE_Admin_ok" data-name="ROUE    Admin ok"><path class="cls-8" d="M56,38H53.48a8.41,8.41,0,0,0-.37-.87l1.79-1.79a1,1,0,0,0,0-1.41L52.07,31.1a1,1,0,0,0-1.41,0l-1.79,1.79a8.41,8.41,0,0,0-.87-.37V30a1,1,0,0,0-1-1H43a1,1,0,0,0-1,1v2.52a8.41,8.41,0,0,0-.87.37L39.34,31.1a1,1,0,0,0-1.41,0L35.1,33.93a1,1,0,0,0,0,1.41l1.79,1.79a8.41,8.41,0,0,0-.37.87H34a1,1,0,0,0-1,1v4a1,1,0,0,0,1,1h2.52a8.41,8.41,0,0,0,.37.87L35.1,46.66a1,1,0,0,0,0,1.41l2.83,2.83a1,1,0,0,0,1.41,0l1.79-1.79a8.41,8.41,0,0,0,.87.37V52a1,1,0,0,0,1,1h4a1,1,0,0,0,1-1V49.48a8.41,8.41,0,0,0,.87-.37l1.79,1.79a1,1,0,0,0,1.41,0l2.83-2.83a1,1,0,0,0,0-1.41l-1.79-1.79a8.41,8.41,0,0,0,.37-.87H56a1,1,0,0,0,1-1V39A1,1,0,0,0,56,38ZM45,45a4,4,0,1,1,4-4A4,4,0,0,1,45,45Z"/><rect class="cls-9" x="38" y="34" width="12" height="12"/><path class="cls-9" d="M42,51.5a.5.5,0,0,1-.5-.5V48.12L41.17,48a6,6,0,0,1-.83-.34L40,47.51l-2,2a.52.52,0,0,1-.35.14.52.52,0,0,1-.36-.14l-2.83-2.83a.52.52,0,0,1-.14-.36.52.52,0,0,1,.14-.35l2-2-.15-.32a6,6,0,0,1-.34-.83l-.12-.33H33a.5.5,0,0,1-.5-.5V38a.5.5,0,0,1,.5-.5h2.88l.12-.33a6,6,0,0,1,.34-.83l.15-.32-2-2a.5.5,0,0,1-.14-.35.52.52,0,0,1,.14-.36l2.83-2.83a.52.52,0,0,1,.36-.14.52.52,0,0,1,.35.14l2,2,.32-.15a7.64,7.64,0,0,1,.83-.35l.33-.11V29a.5.5,0,0,1,.5-.5h4a.5.5,0,0,1,.5.5v2.88l.33.11a7.64,7.64,0,0,1,.83.35l.32.15,2-2a.52.52,0,0,1,.35-.14.52.52,0,0,1,.36.14l2.83,2.83a.52.52,0,0,1,.14.36.5.5,0,0,1-.14.35l-2,2,.15.32a6,6,0,0,1,.34.83l.12.33H55a.5.5,0,0,1,.5.5v4a.5.5,0,0,1-.5.5H52.12l-.12.33a6,6,0,0,1-.34.83l-.15.32,2,2a.52.52,0,0,1,.14.35.52.52,0,0,1-.14.36l-2.83,2.83a.52.52,0,0,1-.36.14.52.52,0,0,1-.35-.14l-2-2-.32.15a6,6,0,0,1-.83.34l-.33.12V51a.5.5,0,0,1-.5.5Zm2-16A4.5,4.5,0,1,0,48.5,40,4.51,4.51,0,0,0,44,35.5Z"/><path class="cls-10" d="M46,29v3.23l.67.24a7.35,7.35,0,0,1,.77.32l.64.3.5-.5,1.78-1.78,2.83,2.83-1.78,1.78-.5.5.3.64a7.35,7.35,0,0,1,.32.77l.24.67H55v4H51.77l-.24.67a7.35,7.35,0,0,1-.32.77l-.3.64.5.5,1.78,1.78-2.83,2.83-1.78-1.78-.5-.5-.64.3a7.35,7.35,0,0,1-.77.32l-.67.24V51H42V47.77l-.67-.24a7.35,7.35,0,0,1-.77-.32l-.64-.3-.5.5-1.78,1.78-2.83-2.83,1.78-1.78.5-.5-.3-.64a7.35,7.35,0,0,1-.32-.77L36.23,42H33V38h3.23l.24-.67a7.35,7.35,0,0,1,.32-.77l.3-.64-.5-.5-1.78-1.78,2.83-2.83,1.78,1.78.5.5.64-.3a7.35,7.35,0,0,1,.77-.32l.67-.24V29h4M44,45a5,5,0,1,0-5-5,5,5,0,0,0,5,5m2-17H42a1,1,0,0,0-1,1v2.52a8.41,8.41,0,0,0-.87.37L38.34,30.1a1,1,0,0,0-1.41,0L34.1,32.93a1,1,0,0,0,0,1.41l1.79,1.79a8.41,8.41,0,0,0-.37.87H33a1,1,0,0,0-1,1v4a1,1,0,0,0,1,1h2.52a8.41,8.41,0,0,0,.37.87L34.1,45.66a1,1,0,0,0,0,1.41l2.83,2.83a1,1,0,0,0,1.41,0l1.79-1.79a8.41,8.41,0,0,0,.87.37V51a1,1,0,0,0,1,1h4a1,1,0,0,0,1-1V48.48a8.41,8.41,0,0,0,.87-.37l1.79,1.79a1,1,0,0,0,1.41,0l2.83-2.83a1,1,0,0,0,0-1.41l-1.79-1.79a8.41,8.41,0,0,0,.37-.87H55a1,1,0,0,0,1-1V38a1,1,0,0,0-1-1H52.48a8.41,8.41,0,0,0-.37-.87l1.79-1.79a1,1,0,0,0,0-1.41L51.07,30.1a1,1,0,0,0-1.41,0l-1.79,1.79a8.41,8.41,0,0,0-.87-.37V29a1,1,0,0,0-1-1ZM44,44a4,4,0,1,1,4-4,4,4,0,0,1-4,4Z"/></g></g></svg>