<svg xmlns="http://www.w3.org/2000/svg" xmlns:xlink="http://www.w3.org/1999/xlink" width="64" height="64" viewBox="0 0 64 64">
  <defs>
    <linearGradient id="a" x1="21.248" y1="13.378" x2="42.752" y2="50.622" gradientUnits="userSpaceOnUse">
      <stop offset="0" stop-color="#8dd7f4"/>
      <stop offset="1" stop-color="#386e8c"/>
    </linearGradient>
    <linearGradient id="b" x1="23.499" y1="17.275" x2="40.501" y2="46.725" gradientUnits="userSpaceOnUse">
      <stop offset="0" stop-color="#386e8c"/>
      <stop offset="1" stop-color="#8dd7f4"/>
    </linearGradient>
    <linearGradient id="c" x1="24.249" y1="18.575" x2="39.751" y2="45.425" gradientUnits="userSpaceOnUse">
      <stop offset="0" stop-color="#fff"/>
      <stop offset="1" stop-color="#d2d2d2"/>
    </linearGradient>
    <radialGradient id="d" cx="31.5" cy="31.833" r="8.108" gradientUnits="userSpaceOnUse">
      <stop offset="0" stop-color="#646565"/>
      <stop offset="1" stop-color="#646565" stop-opacity="0"/>
    </radialGradient>
    <linearGradient id="e" x1="26.504" y1="24.498" x2="33.001" y2="35.752" xlink:href="#a"/>
    <linearGradient id="f" x1="26.307" y1="29.309" x2="32.761" y2="35.328" gradientUnits="userSpaceOnUse">
      <stop offset="0" stop-color="#fff"/>
      <stop offset="1" stop-color="#fff" stop-opacity="0"/>
    </linearGradient>
  </defs>
  <title>16130_IFWRUNA_AP_AppIcon_r21x</title>
  <path d="M10.5,32A21.5,21.5,0,1,1,32,53.5,21.5,21.5,0,0,1,10.5,32Z" stroke="#053755" stroke-linejoin="round" fill="url(#a)"/>
  <circle cx="32" cy="32" r="17" opacity="0.5" fill="url(#b)"/>
  <path d="M16.5,32A15.5,15.5,0,1,1,32,47.5,15.5,15.5,0,0,1,16.5,32Z" stroke="#787979" stroke-linejoin="round" fill="url(#c)"/>
  <path d="M21,32A11,11,0,1,1,32,43,11,11,0,0,1,21,32Z" opacity="0.5" fill="url(#d)"/>
  <path d="M26.5,24.5l13,7.5-13,7.5Z" stroke="#053755" stroke-linejoin="round" fill="url(#e)"/>
  <polygon points="27 37.635 27 38.635 38.5 32 37.633 31.5 27 37.635" opacity="0.2"/>
  <polygon points="28 27.366 37.266 32.712 38.5 32 27 25.366 27 38.635 28 38.058 28 27.366" opacity="0.4" fill="url(#f)"/>
</svg>
