<svg xmlns="http://www.w3.org/2000/svg" xmlns:xlink="http://www.w3.org/1999/xlink" viewBox="0 0 64 64"><defs><style>.cls-1,.cls-4{stroke:#807c7b;}.cls-1,.cls-2,.cls-3,.cls-4,.cls-6{stroke-linejoin:round;}.cls-1,.cls-2,.cls-3{stroke-width:1.17px;}.cls-1{fill:url(#linear-gradient);}.cls-2,.cls-6{fill:none;}.cls-2,.cls-3,.cls-6{stroke:#3a3634;}.cls-3{fill:url(#linear-gradient-2);}.cls-4{stroke-width:0.9px;fill:url(#linear-gradient-3);}.DARK-GREY-Fill-13{fill:url(#linear-gradient-4);}.cls-5{fill:url(#linear-gradient-5);}.cls-6{stroke-width:1.04px;}</style><linearGradient id="linear-gradient" x1="29.27" y1="34.79" x2="38.3" y2="50.42" gradientUnits="userSpaceOnUse"><stop offset="0" stop-color="#fff"/><stop offset="1" stop-color="#dbdada"/></linearGradient><linearGradient id="linear-gradient-2" x1="12.96" y1="39.57" x2="19.4" y2="50.71" gradientUnits="userSpaceOnUse"><stop offset="0" stop-color="#b4b1b0"/><stop offset="1" stop-color="#615d5c"/></linearGradient><linearGradient id="linear-gradient-3" x1="28.91" y1="12.58" x2="42.09" y2="35.42" gradientUnits="userSpaceOnUse"><stop offset="0" stop-color="#fafafb"/><stop offset="1" stop-color="#c9c6c5"/></linearGradient><linearGradient id="linear-gradient-4" x1="39.6" y1="23.5" x2="41.94" y2="23.5" gradientUnits="userSpaceOnUse"><stop offset="0" stop-color="#4e4a48"/><stop offset="1" stop-color="#201d1a"/></linearGradient><linearGradient id="linear-gradient-5" x1="31.7" y1="20.12" x2="36" y2="27.57" gradientUnits="userSpaceOnUse"><stop offset="0" stop-color="#2f85b1"/><stop offset="1" stop-color="#285677"/></linearGradient></defs><g id="v4"><path class="cls-1" d="M18.42,42.28v4.94a2,2,0,0,0,1.42,2L31.17,52.3a5.6,5.6,0,0,0,1.47.2h.61a5.5,5.5,0,0,0,3.59-1.36L49.57,40.22a1.31,1.31,0,0,0-.2-2.09h0a1.06,1.06,0,0,0-1.2.13l-8.42,5.65c-.6.51-2.61,2.46-3.37,2.46H28.53l9-1.09a1.34,1.34,0,0,0,1.12-1.37h0a1.34,1.34,0,0,0-1.11-1.37l-7.87-1.08L27.4,40.23H20.3A2,2,0,0,0,18.42,42.28Z"/><path class="cls-2" d="M18.42,42.28v4.94a2,2,0,0,0,1.42,2L31.17,52.3a5.6,5.6,0,0,0,1.47.2h.61a5.5,5.5,0,0,0,3.59-1.36L49.57,40.22a1.31,1.31,0,0,0-.2-2.09h0a1.06,1.06,0,0,0-1.2.13l-8.42,5.65c-.6.51-2.61,2.46-3.37,2.46H28.53l9-1.09a1.34,1.34,0,0,0,1.12-1.37h0a1.34,1.34,0,0,0-1.11-1.37l-7.87-1.08L27.4,40.23H20.3A2,2,0,0,0,18.42,42.28Z"/><rect class="cls-3" x="13.93" y="39.01" width="4.49" height="12.27"/><path class="cls-4" d="M43.5,33.15a2.43,2.43,0,0,1-.6,1.67,1.92,1.92,0,0,1-1.48.68H29.58a1.92,1.92,0,0,1-1.48-.68,2.43,2.43,0,0,1-.6-1.67V14.85a2.43,2.43,0,0,1,.6-1.67,1.92,1.92,0,0,1,1.48-.68H41.42a1.92,1.92,0,0,1,1.48.68,2.43,2.43,0,0,1,.6,1.67Z"/><path class="DARK-GREY-Fill-13" d="M39.6,35V12h2.34V35Z"/><path class="cls-5" d="M35.47,23.51a1.91,1.91,0,0,1,.52.33,2.37,2.37,0,0,1,.41.48,2.88,2.88,0,0,1,.27.59,2.59,2.59,0,0,1,.09.68V26.9a.39.39,0,0,1-.09.26.34.34,0,0,1-.24.11H31.71a.34.34,0,0,1-.24-.11.39.39,0,0,1-.09-.26V25.59a2.59,2.59,0,0,1,.09-.68,2.88,2.88,0,0,1,.27-.59,2.37,2.37,0,0,1,.41-.48,1.91,1.91,0,0,1,.52-.33,2.48,2.48,0,0,0,.65.37,2.11,2.11,0,0,0,.75.13A2.2,2.2,0,0,0,35.47,23.51Zm.84-2.28a2.22,2.22,0,0,1-.17.85,2.06,2.06,0,0,1-.47.69,2,2,0,0,1-.69.47,2.19,2.19,0,0,1-1.69,0,2.1,2.1,0,0,1-.7-.47A2.14,2.14,0,0,1,32,21.23a2.19,2.19,0,0,1,.17-.85,2.34,2.34,0,0,1,.47-.69,2.27,2.27,0,0,1,.7-.47,2.19,2.19,0,0,1,1.69,0,2.11,2.11,0,0,1,.69.47,2.14,2.14,0,0,1,.64,1.54Z"/><path class="cls-6" d="M43.5,33.15a2.43,2.43,0,0,1-.6,1.67,1.92,1.92,0,0,1-1.48.68H29.58a1.92,1.92,0,0,1-1.48-.68,2.43,2.43,0,0,1-.6-1.67V14.85a2.43,2.43,0,0,1,.6-1.67,1.92,1.92,0,0,1,1.48-.68H41.42a1.92,1.92,0,0,1,1.48.68,2.43,2.43,0,0,1,.6,1.67Z"/></g></svg>