<svg id="LOK_NET_copy" data-name="LOK NET copy" xmlns="http://www.w3.org/2000/svg" xmlns:xlink="http://www.w3.org/1999/xlink" viewBox="0 0 64 64"><defs><style>.cls-1{fill:url(#Dark_BLUE_gradient_LEFT);}.cls-2{fill:url(#Dark_BLUE_gradient_LEFT-2);}.cls-3{fill:#fff;opacity:0.3;}.cls-4{fill:url(#Dark_BLUE_gradient_LEFT-3);}.cls-5{fill:url(#Dark_BLUE_gradient_LEFT-4);}.cls-6{fill:url(#Dark_BLUE_gradient_LEFT-5);}.cls-7{fill:url(#Dark_BLUE_gradient_LEFT-6);}</style><linearGradient id="Dark_BLUE_gradient_LEFT" x1="14" y1="35.4" x2="34" y2="35.4" gradientUnits="userSpaceOnUse"><stop offset="0" stop-color="#82bedc"/><stop offset="1" stop-color="#285a78"/></linearGradient><linearGradient id="Dark_BLUE_gradient_LEFT-2" x1="16.92" y1="20.04" x2="31.41" y2="20.04" xlink:href="#Dark_BLUE_gradient_LEFT"/><linearGradient id="Dark_BLUE_gradient_LEFT-3" x1="33" y1="33.4" x2="53" y2="33.4" xlink:href="#Dark_BLUE_gradient_LEFT"/><linearGradient id="Dark_BLUE_gradient_LEFT-4" x1="35.92" y1="18.04" x2="50.41" y2="18.04" xlink:href="#Dark_BLUE_gradient_LEFT"/><linearGradient id="Dark_BLUE_gradient_LEFT-5" x1="22" y1="41.4" x2="42" y2="41.4" xlink:href="#Dark_BLUE_gradient_LEFT"/><linearGradient id="Dark_BLUE_gradient_LEFT-6" x1="24.92" y1="26.04" x2="39.41" y2="26.04" xlink:href="#Dark_BLUE_gradient_LEFT"/></defs><g id="version_64_copy" data-name="version 64 *** copy"><g id="USER_GROUP_copy_2" data-name="USER GROUP  *** copy 2"><g id="PG_copy_3" data-name="PG copy 3"><g id="CORPS_1_ok_copy_7" data-name="CORPS 1 ok copy 7"><path id="fond_" data-name="fond **" class="cls-1" d="M24,25.4c-5.56,0-10,2.49-10,7.3v10c0,1.45,5,2.73,10,2.73,5.75,0,10-1.28,10-2.73v-10C34,27.89,29.58,25.4,24,25.4Z"/><g id="ok_contour_" data-name="ok contour  **"><path d="M24.17,26c4.51,0,9.33,1.78,9.33,6.76v9.92c0,.77-3.21,2.21-9.35,2.21-5.48,0-9.65-1.47-9.65-2.21V32.71c0-5,5.21-6.76,9.67-6.76m0-.5C18.65,25.45,14,27.93,14,32.71v9.92c0,1.44,5.22,2.71,10.15,2.71,5.72,0,9.85-1.27,9.85-2.71V32.71c0-4.78-4.3-7.26-9.83-7.26Z"/></g></g><g id="tete_ok_copy_5" data-name="tete ok *** copy 5"><g id="fond_t_" data-name="fond t ***"><path class="cls-2" d="M31.41,20a7.25,7.25,0,1,0-7.25,7.25A7.24,7.24,0,0,0,31.41,20Z"/></g><g id="contour_" data-name="contour    **"><path d="M24.16,13.3A6.75,6.75,0,1,1,17.42,20a6.75,6.75,0,0,1,6.74-6.74m0-.5A7.25,7.25,0,1,0,31.41,20a7.25,7.25,0,0,0-7.25-7.24Z"/></g></g><g id="highlight"><path class="cls-3" d="M32,43.16V33.58c.29-2.92-3-5.88-5-5.88a6.3,6.3,0,0,1,2,5.88V43.9A5.21,5.21,0,0,0,32,43.16Z"/><path class="cls-3" d="M27.27,16.39c.53,1.05.67,2.06.32,2.23S26.52,18.08,26,17s-.67-2.06-.32-2.23S26.74,15.33,27.27,16.39Z"/></g></g><g id="p_Droite_copy_3" data-name="p Droite copy 3"><g id="CORPS_1_ok_copy_7-2" data-name="CORPS 1 ok copy 7"><path class="cls-4" d="M43,23.4c-5.56,0-10,2.49-10,7.3v10c0,1.45,5,2.73,10,2.73,5.75,0,10-1.28,10-2.73v-10C53,25.89,48.58,23.4,43,23.4Z"/><g id="ok_contour_2" data-name="ok contour **"><path d="M43.17,24c4.51,0,9.33,1.78,9.33,6.76v9.92c0,.77-3.21,2.21-9.35,2.21-5.48,0-9.65-1.47-9.65-2.21V30.71c0-5,5.21-6.76,9.67-6.76m0-.5C37.65,23.45,33,25.93,33,30.71v9.92c0,1.44,5.22,2.71,10.15,2.71,5.72,0,9.85-1.27,9.85-2.71V30.71c0-4.78-4.3-7.26-9.83-7.26Z"/></g></g><g id="tete_ok_copy_5-2" data-name="tete ok *** copy 5"><g id="fond_T_2" data-name="fond T **"><path class="cls-5" d="M50.41,18a7.25,7.25,0,1,0-7.25,7.25A7.24,7.24,0,0,0,50.41,18Z"/></g><g id="contour_2" data-name="contour    **"><path d="M43.16,11.3A6.75,6.75,0,1,1,36.42,18a6.75,6.75,0,0,1,6.74-6.74m0-.5A7.25,7.25,0,1,0,50.41,18a7.25,7.25,0,0,0-7.25-7.24Z"/></g></g><g id="highlight_" data-name="highlight ***"><path class="cls-3" d="M51,41.16V31.58c.29-2.92-3-5.88-5-5.88a6.3,6.3,0,0,1,2,5.88V41.9A5.21,5.21,0,0,0,51,41.16Z"/><path class="cls-3" d="M46.27,14.39c.53,1,.67,2.06.32,2.23S45.52,16.08,45,15s-.67-2.06-.32-2.23S45.74,13.33,46.27,14.39Z"/></g></g><g id="BLEU_MILIEU_copy_2" data-name="BLEU MILIEU *** copy 2"><g id="CORPS_copy_2" data-name="CORPS *** copy 2"><path class="cls-6" d="M32,31.4c-5.56,0-10,2.49-10,7.3v10c0,1.45,5,2.73,10,2.73,5.75,0,10-1.28,10-2.73v-10C42,33.89,37.58,31.4,32,31.4Z"/><g id="ok_contour" data-name="ok contour"><path d="M32.17,32c4.51,0,9.33,1.78,9.33,6.76v9.92c0,.77-3.21,2.21-9.35,2.21-5.48,0-9.65-1.47-9.65-2.21V38.71c0-5,5.21-6.76,9.67-6.76m0-.5C26.65,31.45,22,33.93,22,38.71v9.92c0,1.44,5.22,2.71,10.15,2.71,5.72,0,9.85-1.27,9.85-2.71V38.71c0-4.78-4.3-7.26-9.83-7.26Z"/></g></g><g id="tete_ok_AV_copy_4" data-name="tete ok *** AV copy 4"><path class="cls-7" d="M39.41,26a7.25,7.25,0,1,0-7.25,7.25A7.24,7.24,0,0,0,39.41,26Z"/><g id="tete_contour_" data-name="tete   contour ***"><path d="M32.16,19.3A6.75,6.75,0,1,1,25.42,26a6.75,6.75,0,0,1,6.74-6.74m0-.5A7.25,7.25,0,1,0,39.41,26a7.24,7.24,0,0,0-7.25-7.24Z"/></g></g><g id="highlight-2" data-name="highlight"><path class="cls-3" d="M40,49.16V39.58c.29-2.92-3-5.88-5-5.88a6.3,6.3,0,0,1,2,5.88V49.9A5.21,5.21,0,0,0,40,49.16Z"/><path class="cls-3" d="M35.27,22.39c.53,1.05.67,2.06.32,2.23S34.52,24.08,34,23s-.67-2.06-.32-2.23S34.74,21.33,35.27,22.39Z"/></g></g></g></g></svg>