<svg xmlns="http://www.w3.org/2000/svg" xmlns:xlink="http://www.w3.org/1999/xlink" width="64" height="64" viewBox="0 0 64 64">
  <defs>
    <mask id="a" x="2" y="5" width="60" height="52.5" maskUnits="userSpaceOnUse">
      <circle cx="32" cy="32" r="21" fill="#fff"/>
    </mask>
  </defs>
  <title>36523_ontologyEditor_r21x</title>
  <g mask="url(#a)">
    <g>
      <path d="M8,42v9.5a6,6,0,0,0,12,0,6,6,0,0,0,12,0,6,6,0,0,0,12,0,6,6,0,0,0,12,0V42Z" fill="#d5e8f2"/>
      <path d="M2,34v9.5a6,6,0,0,0,12,0,6,6,0,0,0,12,0,6,6,0,0,0,12,0,6,6,0,0,0,12,0,6,6,0,0,0,12,0V34Z" fill="#368ec4"/>
      <path d="M8,26v9.5a6,6,0,0,0,12,0,6,6,0,0,0,12,0,6,6,0,0,0,12,0,6,6,0,0,0,12,0V26Z" fill="#d5e8f2"/>
      <path d="M2,18v9.5a6,6,0,0,0,12,0,6,6,0,0,0,12,0,6,6,0,0,0,12,0,6,6,0,0,0,12,0,6,6,0,0,0,12,0V18Z" fill="#368ec4"/>
      <path d="M8,10v9.5a6,6,0,0,0,12,0,6,6,0,0,0,12,0,6,6,0,0,0,12,0,6,6,0,0,0,12,0V10Z" fill="#d5e8f2"/>
      <path d="M38,5H14v6.5a6,6,0,0,0,12,0,6,6,0,0,0,12,0,6,6,0,0,0,12,0V5Z" fill="#368ec4"/>
    </g>
  </g>
  <circle cx="32" cy="32" r="21.5" fill="none" stroke="#053755" stroke-linejoin="round"/>
  <g>
    <g opacity="0.75">
      <path d="M38.471,47.718a6.046,6.046,0,0,1-6.014-6.065c0-2.025-4.223-4.4-6.39-4.4a1.944,1.944,0,0,0-1.349.5,6.047,6.047,0,1,1-3.189-11.2,6.376,6.376,0,0,1,2.563.563c.139.057.262.108.37.143a.483.483,0,0,1,.131.064h0a1.894,1.894,0,0,0,.892.173c2.4,0,6.266-2.867,6.266-4.26,0-.008-.017-.836-.017-.836a6.022,6.022,0,1,1,12.044-.053,6.17,6.17,0,0,1-2.263,4.733l-.01-.013c-.156.145-.393.332-.73.6-.087.059-.991.676-.991,3.811,0,3.853,1.071,4.55,1.082,4.557a.368.368,0,0,1,.128.1c-.007-.009-.008-.013,0-.013a.425.425,0,0,1,.07.033,6.087,6.087,0,0,1-2.59,11.567ZM27.533,33.061c.329,1.527,4.417,4.018,6.63,4.018a1.722,1.722,0,0,0,.428-.047,5.9,5.9,0,0,1,1.314-.847c.345-.325,1.033-1.275,1.033-3.694,0-2.02-.386-3.676-1.014-4.375a4.678,4.678,0,0,1-1.249-.573.939.939,0,0,0-.661-.2c-2.248,0-6.537,3.041-6.537,4.286,0,.04.008.1.017.173A6.371,6.371,0,0,1,27.533,33.061Z" fill="#fff"/>
      <path d="M37.758,16.783a5.546,5.546,0,0,1,5.52,5.565A5.651,5.651,0,0,1,41.2,26.689h0l-.739.585c-.037.029-1.181.626-1.181,4.2,0,4.368,1.347,5,1.347,5A5.83,5.83,0,0,1,44,41.661a5.522,5.522,0,1,1-11.043-.007c0-2.443-4.633-4.9-6.89-4.9a2.43,2.43,0,0,0-1.636.588,5.548,5.548,0,1,1-2.9-10.287,7.1,7.1,0,0,1,2.781.682A2.189,2.189,0,0,0,25.485,28c2.479,0,6.766-2.947,6.766-4.76v0s0-.1-.019-.848a5.538,5.538,0,0,1,5.524-5.607m-3.6,20.8a2.043,2.043,0,0,0,.676-.1,5.464,5.464,0,0,1,1.343-.873c.449-.385,1.257-1.442,1.257-4.115,0-2.227-.443-4.045-1.247-4.815-1.472-.437-1.232-.828-2.178-.828-2.383,0-7.037,3.157-7.037,4.787a7.725,7.725,0,0,1,.052,1.452c.3,1.885,4.828,4.492,7.134,4.492m7.042-10.891h0m-3.447-10.9A6.537,6.537,0,0,0,31.234,22.4l.009.4.009.4v.032c0,1.013-3.574,3.76-5.766,3.76a1.614,1.614,0,0,1-.627-.1.57.57,0,0,0-.242-.112c-.1-.032-.209-.078-.335-.13a6.817,6.817,0,0,0-2.752-.6,6.56,6.56,0,1,0,3.43,12.136l.046-.031a1.471,1.471,0,0,1,1.062-.406c1.9,0,5.89,2.185,5.89,3.9A6.522,6.522,0,1,0,41.3,35.715l-.079-.045a.9.9,0,0,0-.082-.055c-.093-.088-.859-.911-.859-4.138,0-2.758.714-3.356.721-3.362a.908.908,0,0,0,.081-.057l.739-.585a6.639,6.639,0,0,0,2.453-5.125,6.55,6.55,0,0,0-6.52-6.565ZM28.037,33.017a6.976,6.976,0,0,0-.046-1.267c-.007-.054-.013-.1-.015-.134.107-.943,4.029-3.768,6.038-3.768a.5.5,0,0,1,.394.118,5.072,5.072,0,0,0,1.221.581,7.185,7.185,0,0,1,.81,3.944c0,2.145-.558,2.994-.827,3.279a6.374,6.374,0,0,0-1.243.8,1.585,1.585,0,0,1-.206.012c-2.019,0-5.77-2.367-6.126-3.562Z" fill="#fff"/>
    </g>
    <path d="M40.631,36.474s-1.347-.629-1.347-5c0-3.577,1.144-4.174,1.181-4.2l.739-.585h0a5.651,5.651,0,0,0,2.074-4.341,5.522,5.522,0,1,0-11.044.042,5.088,5.088,0,0,1,.017.847c0,1.813-4.287,4.76-6.766,4.76a2.189,2.189,0,0,1-1.175-.261,7.1,7.1,0,0,0-2.781-.682,5.56,5.56,0,1,0,2.9,10.287,2.43,2.43,0,0,1,1.636-.588c2.257,0,6.89,2.458,6.89,4.9A5.522,5.522,0,1,0,44,41.661,5.83,5.83,0,0,0,40.631,36.474Zm-4.449.132a5.464,5.464,0,0,0-1.343.873c-1.928.686-7.475-2.3-7.81-4.392a7.725,7.725,0,0,0-.052-1.452c0-1.63,4.654-4.787,7.037-4.787.946,0,.706.391,2.178.828.8.77,1.247,2.588,1.247,4.815C37.439,35.164,36.631,36.221,36.182,36.606Z" fill="#0c479c"/>
    <path d="M37.805,17.671A4.705,4.705,0,0,0,33.244,22.3a3.747,3.747,0,0,0,1.138,2.748,2.15,2.15,0,0,1-.565-1.579,4.816,4.816,0,0,1,.589-2.184.679.679,0,0,1,.566-.334c.191,0,.379.075.583.075a1.161,1.161,0,0,0,.83-1.958,4.885,4.885,0,0,1,2.594-.851,1.939,1.939,0,0,1,1.306.4A3.612,3.612,0,0,0,37.805,17.671Z" fill="#fff"/>
    <path d="M38.751,36.995a4.706,4.706,0,0,0-4.561,4.629,3.745,3.745,0,0,0,1.138,2.747,2.15,2.15,0,0,1-.565-1.579,4.829,4.829,0,0,1,.589-2.184.679.679,0,0,1,.566-.334c.191,0,.38.075.583.075a1.16,1.16,0,0,0,.83-1.958,4.885,4.885,0,0,1,2.594-.851,1.939,1.939,0,0,1,1.306.4A3.612,3.612,0,0,0,38.751,36.995Z" fill="#fff"/>
    <path d="M21.647,28.135a4.706,4.706,0,0,0-4.561,4.629,3.745,3.745,0,0,0,1.138,2.747,2.15,2.15,0,0,1-.565-1.579,4.816,4.816,0,0,1,.589-2.184.679.679,0,0,1,.566-.334c.191,0,.379.075.583.075a1.161,1.161,0,0,0,.83-1.958,4.883,4.883,0,0,1,2.594-.85,1.939,1.939,0,0,1,1.306.4A3.612,3.612,0,0,0,21.647,28.135Z" fill="#fff"/>
  </g>
</svg>
