<svg xmlns="http://www.w3.org/2000/svg" xmlns:xlink="http://www.w3.org/1999/xlink" width="64" height="64" viewBox="0 0 64 64">
  <defs>
    <linearGradient id="a" x1="26" y1="34" x2="56" y2="34" gradientUnits="userSpaceOnUse">
      <stop offset="0" stop-color="#464647"/>
      <stop offset="1" stop-color="#151515"/>
    </linearGradient>
    <linearGradient id="b" x1="40.156" y1="27.683" x2="46.119" y2="38.012" gradientUnits="userSpaceOnUse">
      <stop offset="0" stop-color="#3387af"/>
      <stop offset="1" stop-color="#285a78"/>
    </linearGradient>
    <linearGradient id="c" x1="18.248" y1="18.334" x2="20.749" y2="22.665" xlink:href="#b"/>
    <linearGradient id="d" x1="11.992" y1="16.259" x2="23.814" y2="36.735" xlink:href="#b"/>
  </defs>
  <title>16117_SWYSTAT_AP_AppIcon</title>
  <g>
    <g opacity="0.5">
      <path d="M54,46.5a.508.508,0,0,1-.224-.053A.5.5,0,0,1,53.5,46v-.5H27a.5.5,0,0,1-.5-.5V24.5H26a.5.5,0,0,1-.4-.8l1.5-2a.5.5,0,0,1,.8,0l1.5,2a.5.5,0,0,1-.4.8h-.5v19h25V43a.5.5,0,0,1,.276-.447A.508.508,0,0,1,54,42.5a.5.5,0,0,1,.3.1l2,1.5a.5.5,0,0,1,0,.8l-2,1.5A.5.5,0,0,1,54,46.5Z" fill="#fff"/>
      <path d="M27.5,22,29,24H28V44H54V43l2,1.5L54,46V45H27V24H26l1.5-2m0-1a1,1,0,0,0-.8.4l-1.5,2A1,1,0,0,0,26,25V45a1,1,0,0,0,1,1H53a1,1,0,0,0,1.6.8l2-1.5a1,1,0,0,0,0-1.6l-2-1.5A1,1,0,0,0,54,42a1,1,0,0,0-1,1H29V25a1,1,0,0,0,.8-1.6l-1.5-2a1,1,0,0,0-.8-.4Z" fill="#fff"/>
    </g>
    <polygon points="56 44.5 54 43 54 44 28 44 28 24 29 24 27.5 22 26 24 27 24 27 45 54 45 54 46 56 44.5" fill="url(#a)"/>
  </g>
  <g>
    <g opacity="0.5">
      <path d="M31,43.5a2.428,2.428,0,0,1-1.776-.771,2.682,2.682,0,0,1,0-3.659l9.226-9.687a.5.5,0,0,1,.363-.155.505.505,0,0,1,.309.106L42.765,32.2l3.892-4.087L44.169,25.5a.5.5,0,0,1,.229-.827l11.469-3.157a.5.5,0,0,1,.483.124.5.5,0,0,1,.135.479L53.479,34.164a.5.5,0,0,1-.358.362.512.512,0,0,1-.128.017.5.5,0,0,1-.362-.155L50.176,31.81,43.55,38.768a.5.5,0,0,1-.362.155.5.5,0,0,1-.31-.108l-3.643-2.868-6.459,6.782A2.431,2.431,0,0,1,31,43.5Z" fill="#fff"/>
      <path d="M56,22,52.993,34.042l-2.817-2.958-6.989,7.339-4-3.151-6.773,7.113a1.933,1.933,0,0,1-2.828,0,2.175,2.175,0,0,1,0-2.97l9.226-9.687,4,3.149,4.536-4.762-2.817-2.958L56,22m0-1a1.009,1.009,0,0,0-.266.036L44.266,24.193a1,1,0,0,0-.459,1.654l2.16,2.268-3.251,3.414-3.285-2.587a1,1,0,0,0-1.343.1l-9.226,9.687a3.189,3.189,0,0,0,0,4.349,2.932,2.932,0,0,0,4.276,0l6.146-6.454,3.285,2.587a1,1,0,0,0,1.343-.095l6.264-6.578,2.093,2.2a1,1,0,0,0,.724.311.966.966,0,0,0,.255-.034,1,1,0,0,0,.715-.724L56.97,22.242A1,1,0,0,0,56,21Z" fill="#fff"/>
    </g>
    <path d="M56,22,44.531,25.157l2.817,2.958-4.536,4.762-4-3.15-9.226,9.688a2.175,2.175,0,0,0,0,2.97,1.933,1.933,0,0,0,2.828,0l6.773-7.113,4,3.151,6.989-7.338,2.817,2.957Z" fill="url(#b)"/>
  </g>
  <g>
    <g>
      <g opacity="0.5">
        <path d="M19.5,23.5a3,3,0,1,1,3-3A3,3,0,0,1,19.5,23.5Z" fill="#fff"/>
        <path d="M19.5,18A2.5,2.5,0,1,1,17,20.5,2.5,2.5,0,0,1,19.5,18m0-1A3.5,3.5,0,1,0,23,20.5,3.5,3.5,0,0,0,19.5,17Z" fill="#fff"/>
      </g>
      <path d="M19.5,23A2.5,2.5,0,1,0,17,20.5,2.5,2.5,0,0,0,19.5,23Z" fill="url(#c)"/>
    </g>
    <g>
      <g opacity="0.5">
        <path d="M9.109,45a1.679,1.679,0,0,1-1.045-.319A1.548,1.548,0,0,1,7.5,43.467a1.587,1.587,0,0,1,.152-.707l4.1-9.27.035-.093c.072-.162.678-1.57.678-1.57.212-.618.215-1.1-.349-2.4-.038-.089-.257-.621-.583-1.415-.959-2.336-2.955-7.195-3.876-9.294a.492.492,0,0,1-.042-.2.515.515,0,0,1,.5-.519h2.478a1.662,1.662,0,0,1,1.476,1c.044.09.283.677.635,1.545.658,1.625,1.759,4.345,2.664,6.46.281.588.5.772.932.772a1.383,1.383,0,0,0,.879-.313c.279-.218.543-.426.81-.641,1.74-1.372,10.3-8.086,10.3-8.086a3.284,3.284,0,0,1,2.1-.736L33,18a.782.782,0,0,1,.473,1.4C31.309,21.12,20.67,29.536,19.308,30.613A12.56,12.56,0,0,0,16.372,33.6c-.7,1.058-3.387,7.163-4.4,9.46l-.371.84a1.6,1.6,0,0,1-.415.639A1.561,1.561,0,0,1,10.122,45h0a1.305,1.305,0,0,1-.177-.013Z" fill="#fff"/>
        <path d="M10.6,18.5a1.065,1.065,0,0,1,.685.27,1.164,1.164,0,0,1,.335.461c.115.237,1.912,4.766,3.285,7.976.3.636.641,1.075,1.391,1.075a1.879,1.879,0,0,0,1.2-.426v0c.27-.214.536-.423.8-.64,1.737-1.37,10.3-8.083,10.3-8.083a2.8,2.8,0,0,1,1.792-.629h.056L33,18.5a.279.279,0,0,1,.277.282.275.275,0,0,1-.109.222C31,20.727,20.36,29.144,19,30.22a13.2,13.2,0,0,0-3.044,3.109c-.828,1.254-4.167,8.927-4.809,10.372a1.128,1.128,0,0,1-.3.479,1.068,1.068,0,0,1-.72.318.717.717,0,0,1-.1-.008l-.892.01H9.109a1.184,1.184,0,0,1-.745-.22,1.048,1.048,0,0,1-.364-.8,1.2,1.2,0,0,1,.126-.557l4.079-9.227c.03-.074.049-.131.059-.156.044-.09.08-.172.116-.255l.54-1.257a3.373,3.373,0,0,0-.349-2.8c-.156-.357-3.234-7.914-4.46-10.709V18.5H10.6m0-1H8.111a1,1,0,0,0-1,1,1.079,1.079,0,0,0,.084.42c.919,2.1,2.915,6.955,3.874,9.29.327.795.546,1.327.584,1.417.538,1.238.488,1.582.334,2.038l-.526,1.222c-.029.068-.058.135-.1.209-.013.027-.024.054-.035.081l-.019.051-.036.1-4.064,9.19-.024.057A2.094,2.094,0,0,0,7,43.5a2.017,2.017,0,0,0,.763,1.584,2.159,2.159,0,0,0,1.345.42l.859-.009c.051,0,.1.007.154.007a2.067,2.067,0,0,0,1.443-.626,2.02,2.02,0,0,0,.494-.763l.375-.852c.91-2.067,3.681-8.356,4.355-9.377a12.139,12.139,0,0,1,2.826-2.873c1.365-1.079,12-9.5,14.178-11.22a1.259,1.259,0,0,0,.488-1A1.281,1.281,0,0,0,33,17.5l-2.561.006h-.054a3.787,3.787,0,0,0-2.424.855s-8.551,6.7-10.286,8.072c-.259.208-.509.405-.762.605q-.03.021-.06.045a.869.869,0,0,1-.561.2c-.165,0-.248,0-.488-.5-.887-2.074-1.987-4.791-2.645-6.415-.478-1.181-.6-1.467-.644-1.568a2.115,2.115,0,0,0-.589-.787A2.017,2.017,0,0,0,10.6,17.5Z" fill="#fff"/>
      </g>
      <path d="M19,30.22C20.36,29.144,31,20.727,33.172,19h0a.275.275,0,0,0,.109-.222A.279.279,0,0,0,33,18.5h0l-2.559.006h-.056a2.8,2.8,0,0,0-1.792.629s-8.562,6.713-10.3,8.083c-.269.217-.535.426-.8.64v0a1.879,1.879,0,0,1-1.2.426c-.75,0-1.089-.439-1.391-1.075h0c-1.373-3.21-3.17-7.739-3.285-7.976a1.164,1.164,0,0,0-.335-.461,1.064,1.064,0,0,0-.7-.27H8.111v.019c1.226,2.8,4.3,10.352,4.46,10.709a3.366,3.366,0,0,1,.349,2.8l-.54,1.257c-.036.083-.072.165-.116.255-.01.025-.029.082-.059.156L8.126,42.92A1.2,1.2,0,0,0,8,43.477a1.048,1.048,0,0,0,.364.8,1.2,1.2,0,0,0,.762.22l.892-.01a1.03,1.03,0,0,0,.824-.31,1.128,1.128,0,0,0,.3-.479c.643-1.445,3.981-9.118,4.81-10.372A13.172,13.172,0,0,1,19,30.22Z" fill="url(#d)"/>
    </g>
  </g>
</svg>
