<svg xmlns="http://www.w3.org/2000/svg" xmlns:xlink="http://www.w3.org/1999/xlink" width="64" height="64" viewBox="0 0 64 64">
  <defs>
    <linearGradient id="a" x1="20.075" y1="20.702" x2="36.83" y2="49.722" gradientUnits="userSpaceOnUse">
      <stop offset="0" stop-color="#d7d7d7"/>
      <stop offset="1" stop-color="#969696"/>
    </linearGradient>
    <linearGradient id="b" x1="19.099" y1="18.795" x2="36.344" y2="48.664" gradientUnits="userSpaceOnUse">
      <stop offset="0" stop-color="#fff"/>
      <stop offset="1" stop-color="#f1f0f0"/>
    </linearGradient>
    <linearGradient id="c" x1="10.5" y1="32.192" x2="51.5" y2="32.192" gradientUnits="userSpaceOnUse">
      <stop offset="0" stop-color="#464647"/>
      <stop offset="1" stop-color="#151515"/>
    </linearGradient>
    <linearGradient id="d" x1="32.657" y1="16.776" x2="19.379" y2="36.456" gradientUnits="userSpaceOnUse">
      <stop offset="0" stop-color="#fff"/>
      <stop offset="1" stop-color="#fff" stop-opacity="0"/>
    </linearGradient>
    <linearGradient id="e" x1="40.955" y1="31.368" x2="46.484" y2="37.049" gradientUnits="userSpaceOnUse">
      <stop offset="0" stop-color="#d2d2d2"/>
      <stop offset="0.346" stop-color="#fff"/>
      <stop offset="1" stop-color="#d2d2d2"/>
    </linearGradient>
    <linearGradient id="f" x1="48.581" y1="30.365" x2="53.065" y2="32.014" gradientUnits="userSpaceOnUse">
      <stop offset="0" stop-color="#646565"/>
      <stop offset="1" stop-color="#686969" stop-opacity="0"/>
    </linearGradient>
    <linearGradient id="g" x1="45.149" y1="24.981" x2="48.328" y2="28.247" xlink:href="#e"/>
  </defs>
  <title>35959_3DSketch_AP_AppIcon_r21x</title>
  <g>
    <g>
      <path d="M14,53.854c-1.582,0-2.709-.684-2.877-2.291l-2.6-23A1.622,1.622,0,0,1,8.5,28.3a1.548,1.548,0,0,1,1.019-1.476L41.961,15.565a1.43,1.43,0,0,1,.466-.079,1.477,1.477,0,0,1,1.286.778c2.934,8.71,9.1,14.194,12.287,19.773a3.051,3.051,0,0,1,.283,1.21,2.667,2.667,0,0,1-1.773,2.259L14.924,53.675A2.564,2.564,0,0,1,14,53.854Z" stroke="#787979" stroke-linejoin="round" stroke-width="0.979" fill="url(#a)"/>
      <path d="M12.649,52.863a1.545,1.545,0,0,1-1.526-1.3l-4.1-24.625A1.622,1.622,0,0,1,7,26.68,1.552,1.552,0,0,1,8.062,25.2L41.885,13.942a1.542,1.542,0,0,1,1.827.7l12.079,21a1.557,1.557,0,0,1-.823,2.245l-41.8,14.89A1.56,1.56,0,0,1,12.649,52.863Z" stroke="#787979" stroke-linejoin="round" fill="url(#b)"/>
      <polygon points="10.5 26.863 41.5 16.363 51.5 35.363 14.588 48.021 10.5 26.863" fill="url(#c)"/>
      <path d="M33.635,37.611A32.013,32.013,0,0,0,36.958,17.9L10.5,26.863l4.088,21.158,16-5.488A35.016,35.016,0,0,0,33.635,37.611Z" opacity="0.2" fill="url(#d)"/>
    </g>
    <g>
      <path d="M20.348,34.485a12.973,12.973,0,0,1,2.189-.044,20.737,20.737,0,0,1,2.126.215c.7.107,1.4.223,2.082.389s1.368.344,2.044.548l.087.026.017.006a12.448,12.448,0,0,0,2.4.632,16.081,16.081,0,0,0,2.553.291,17.966,17.966,0,0,0,2.611-.054,25.768,25.768,0,0,0,2.654-.393,11.788,11.788,0,0,1-2.492,1.159,13.177,13.177,0,0,1-2.722.611,15.4,15.4,0,0,1-2.817.063,14.038,14.038,0,0,1-2.85-.524l.1.032c-.693-.134-1.383-.282-2.063-.469-.683-.172-1.355-.395-2.024-.626a21.086,21.086,0,0,1-1.98-.8A12.962,12.962,0,0,1,20.348,34.485Z" fill="#42a2da"/>
      <g>
        <path d="M48.676,30l-7.583,2.94-3.536,2.612a1,1,0,0,0-.328.4,1,1,0,0,0,1.025,1.4l4.372-.455,8.039-3.116Z" opacity="0.1" fill="url(#e)"/>
        <polygon points="51.322 28.831 48.629 29.876 50.618 33.656 53.439 32.542 51.322 28.831" opacity="0.2" fill="url(#f)"/>
      </g>
      <g>
        <path d="M39,31.863l-2.181,3.816a1,1,0,0,0,1.365,1.364L42,34.863,57.068,19.8a1.968,1.968,0,0,0,.364-2.333A2.305,2.305,0,0,0,56.4,16.431a1.965,1.965,0,0,0-2.332.364Z" stroke="#787979" stroke-linejoin="round" fill="url(#g)"/>
        <path d="M56.805,19.317a4.359,4.359,0,0,0-.8-1.454,4.271,4.271,0,0,0-1.442-.814,1.625,1.625,0,0,0-.136.1l-.875.876A4.433,4.433,0,0,1,55,18.863a4.5,4.5,0,0,1,.822,1.471l.893-.893C56.752,19.4,56.772,19.357,56.805,19.317Z" fill="#646565" opacity="0.5"/>
        <path d="M41.525,30.838c.391.39,1.266.147,2.829-1.415s2.511-3.145,2.121-3.535c-.147-.147-.463-.1-.882.089l-4.2,4.2A.662.662,0,0,0,41.525,30.838Z" fill="#646565" opacity="0.5"/>
      </g>
    </g>
    <path d="M57.432,17.462A2.305,2.305,0,0,0,56.4,16.431a1.965,1.965,0,0,0-2.332.364l-5.787,5.787-4.569-7.941a1.542,1.542,0,0,0-1.827-.7L8.062,25.2A1.552,1.552,0,0,0,7,26.68a1.622,1.622,0,0,0,.021.258l4.1,24.625c.168,1.607,1.3,2.291,2.877,2.291a2.564,2.564,0,0,0,.924-.179L54.51,39.506a2.667,2.667,0,0,0,1.773-2.259A3.051,3.051,0,0,0,56,36.037c-.044-.077-.094-.154-.139-.231a1.451,1.451,0,0,0-.07-.168l-5.319-9.247,6.6-6.6A1.968,1.968,0,0,0,57.432,17.462Z" fill="none" stroke="#323232" stroke-linejoin="round"/>
    <g>
      <line x1="13.951" y1="32.961" x2="11.004" y2="19.303" fill="none" stroke="#42a2da" stroke-linecap="round" stroke-linejoin="round" stroke-width="2"/>
      <line x1="28.56" y1="36.518" x2="25.277" y2="21.303" fill="none" stroke="#42a2da" stroke-linecap="round" stroke-linejoin="round" stroke-width="2"/>
      <line x1="35.246" y1="24.658" x2="32.299" y2="11" fill="none" stroke="#42a2da" stroke-linecap="round" stroke-linejoin="round" stroke-width="2"/>
      <line x1="22.539" y1="23.296" x2="19.592" y2="9.637" fill="none" stroke="#42a2da" stroke-linecap="round" stroke-linejoin="round" stroke-width="2"/>
      <polygon points="13.951 32.961 28.56 36.518 35.246 24.658 22.539 23.296 13.951 32.961" fill="none" stroke="#42a2da" stroke-linejoin="round" stroke-width="2"/>
      <polygon points="11.004 19.303 19.592 9.637 32.299 11 25.277 21.303 11.004 19.303" fill="none" stroke="#42a2da" stroke-linejoin="round" stroke-width="2"/>
    </g>
  </g>
</svg>
