<?xml version="1.0" encoding="UTF-8"?><svg xmlns="http://www.w3.org/2000/svg" xmlns:xlink="http://www.w3.org/1999/xlink" viewBox="0 0 128 128"><defs><style>.ag{fill:url(#y);}.ag,.ah,.ai,.aj,.ak,.al,.am,.an,.ao,.ap,.aq,.ar,.as,.at,.au,.av,.aw{stroke-width:2px;}.ag,.ah,.ai,.aj,.ak,.al,.an,.ao,.ap,.aq,.ar,.as,.at,.au,.av,.aw{stroke-linejoin:round;}.ag,.ah,.ai,.al,.ao,.ar,.as,.at,.au,.av{stroke:#6d6d6d;}.ax,.ay{fill:#fff;}.ah{fill:url(#w);}.ai{fill:url(#u);}.aj{fill:url(#ab);}.aj,.ak,.ap,.aq,.aw{stroke:#00415f;}.b`{fill:url(#c);}.ba{stroke:url(#m);stroke-linecap:round;stroke-width:7px;}.ba,.am{stroke-miterlimit:10;}.ba,.am,.an{fill:none;}.ak{fill:url(#ae);}.al{fill:url(#v);}.bb{fill:url(#f);}.am{stroke:#787878;}.bc{fill:url(#p);}.an{stroke:#343434;}.bd{fill:url(#g);}.ao{fill:url(#aa);}.be{fill:#787878;}.ay{opacity:.75;}.ap{fill:url(#ac);}.bf{fill:url(#b);}.bg{fill:url(#i);}.aq{fill:url(#af);}.bh{fill:url(#h);}.bi{fill:url(#d);}.bj{fill:url(#e);}.ar{fill:url(#s);}.as{fill:url(#a`);}.at{fill:url(#r);}.bk{fill:url(#j);}.au{fill:url(#x);}.bl{filter:url(#l);}.av{fill:url(#t);}.bm{fill:url(#k);}.aw{fill:url(#ad);}</style><linearGradient id="b" x1="33.21" y1="78.78" x2="39.42" y2="89.53" gradientTransform="matrix(1, 0, 0, 1, 0, 0)" gradientUnits="userSpaceOnUse"><stop offset="0" stop-color="#aaa"/><stop offset="1" stop-color="#5a5a5a"/></linearGradient><linearGradient id="c" x1="31.14" y1="58.2" x2="41.44" y2="76.05" gradientTransform="matrix(1, 0, 0, 1, 0, 0)" gradientUnits="userSpaceOnUse"><stop offset="0" stop-color="#d7d7d7"/><stop offset="1" stop-color="#969696"/></linearGradient><linearGradient id="d" x1="31.55" y1="39.34" x2="40.63" y2="55.05" xlink:href="#b"/><linearGradient id="e" x1="51.92" y1="31.83" x2="66.54" y2="57.15" xlink:href="#c"/><linearGradient id="f" x1="54" y1="62.22" x2="64.55" y2="80.5" xlink:href="#b"/><linearGradient id="g" x1="55.48" y1="15.56" x2="62.77" y2="28.19" xlink:href="#b"/><linearGradient id="h" x1="79.58" y1="51.56" x2="84.94" y2="60.84" xlink:href="#c"/><linearGradient id="i" x1="78.93" y1="62.27" x2="85.56" y2="73.75" xlink:href="#b"/><linearGradient id="j" x1="79.12" y1="40.72" x2="84.88" y2="50.69" xlink:href="#b"/><linearGradient id="k" x1="21.28" y1="26.62" x2="62.81" y2="98.56" xlink:href="#c"/><filter id="l" x="-50%" y="-50%" width="200%" height="200%"><feGaussianBlur stdDeviation="1"/></filter><linearGradient id="m" x1="24.82" y1="47.14" x2="93.84" y2="47.14" xlink:href="#b"/><linearGradient id="p" x1="61.5" y1="49.55" x2="95.5" y2="108.45" gradientTransform="matrix(1, 0, 0, 1, 0, 0)" gradientUnits="userSpaceOnUse"><stop offset="0" stop-color="#3287af"/><stop offset="1" stop-color="#285a78"/></linearGradient><linearGradient id="r" x1="68.04" y1="-1001.01" x2="84.79" y2="-1016.33" gradientTransform="translate(0 -916.11) scale(1 -1)" gradientUnits="userSpaceOnUse"><stop offset="0" stop-color="#f0f0f0"/><stop offset="1" stop-color="#b3b3b3"/></linearGradient><linearGradient id="s" x1="86.23" y1="-995.07" x2="77.01" y2="-1020.13" gradientTransform="translate(0 -916.11) scale(1 -1)" gradientUnits="userSpaceOnUse"><stop offset="0" stop-color="#f0f0f0"/><stop offset="1" stop-color="#b3b3b3"/></linearGradient><linearGradient id="t" x1="68.69" y1="90.26" x2="75.77" y2="90.26" gradientTransform="matrix(1, 0, 0, 1, 0, 0)" xlink:href="#s"/><linearGradient id="u" x1="53.14" y1="-986.82" x2="70.47" y2="-1018.55" gradientTransform="translate(0 -916.11) scale(1 -1)" gradientUnits="userSpaceOnUse"><stop offset="0" stop-color="#f0f0f0"/><stop offset="1" stop-color="#b3b3b3"/></linearGradient><linearGradient id="v" x1="73.54" y1="-1008.35" x2="105.22" y2="-1043.1" xlink:href="#r"/><linearGradient id="w" x1="63.12" y1="-973.95" x2="79.87" y2="-989.26" xlink:href="#r"/><linearGradient id="x" x1="81.31" y1="-968.01" x2="72.09" y2="-993.07" xlink:href="#s"/><linearGradient id="y" x1="63.77" y1="63.19" x2="70.85" y2="63.19" gradientTransform="matrix(1, 0, 0, 1, 0, 0)" xlink:href="#s"/><linearGradient id="a`" x1="48.22" y1="-959.76" x2="65.55" y2="-991.49" xlink:href="#u"/><linearGradient id="aa" x1="68.62" y1="-981.29" x2="100.3" y2="-1016.04" xlink:href="#r"/><linearGradient id="ab" x1="91.04" y1="-983.98" x2="107.79" y2="-999.29" gradientTransform="translate(0 -916.11) scale(1 -1)" gradientUnits="userSpaceOnUse"><stop offset="0" stop-color="#92d5ee"/><stop offset=".48" stop-color="#599bb4"/><stop offset="1" stop-color="#185971"/></linearGradient><linearGradient id="ac" x1="109.23" y1="-978.04" x2="100.01" y2="-1003.1" gradientTransform="translate(0 -916.11) scale(1 -1)" gradientUnits="userSpaceOnUse"><stop offset="0" stop-color="#92d5ee"/><stop offset=".48" stop-color="#599bb4"/><stop offset="1" stop-color="#185971"/></linearGradient><linearGradient id="ad" x1="91.69" y1="73.22" x2="98.77" y2="73.22" gradientTransform="matrix(1, 0, 0, 1, 0, 0)" xlink:href="#ac"/><linearGradient id="ae" x1="76.14" y1="-969.79" x2="93.47" y2="-1001.52" gradientTransform="translate(0 -916.11) scale(1 -1)" gradientUnits="userSpaceOnUse"><stop offset="0" stop-color="#92d5ee"/><stop offset=".48" stop-color="#599bb4"/><stop offset="1" stop-color="#185971"/></linearGradient><linearGradient id="af" x1="96.54" y1="-991.32" x2="128.22" y2="-1026.06" xlink:href="#ab"/></defs><g id="a"><g><polygon class="bf" points="27.17 82.27 27.17 92.35 45.54 85.99 45.54 76.1 27.17 82.27"/><polygon class="b`" points="45.54 54.63 27.17 60.49 27.17 79.85 45.54 73.68 45.54 54.63"/><polygon class="bi" points="45.54 52.22 45.54 37.22 27.17 41.87 27.17 58.08 45.54 52.22"/><polygon class="bj" points="68.51 27.28 50.14 32.86 50.14 62.03 68.51 56.01 68.51 27.28"/><polygon class="bb" points="50.14 64.45 50.14 84.46 68.51 78.21 68.51 58.43 50.14 64.45"/><polygon class="bd" points="68.51 24.88 68.51 14 50.14 18.64 50.14 30.46 68.51 24.88"/><polygon class="bh" points="91.48 49.3 73.11 55.3 73.11 63.21 91.48 57.07 91.48 49.3"/><polygon class="bg" points="73.11 65.63 73.11 76.7 91.48 70.33 91.48 59.49 73.11 65.63"/><polygon class="bk" points="91.48 46.88 91.48 39.55 73.11 44.19 73.11 52.88 91.48 46.88"/><g><path class="bm" d="M19.13,103.57s-.05,0-.08-.03c-.04-.03-.07-.08-.07-.14V32.8l-2.54,.67,2.94-5.76,2.75,4.25-2.86,.75V102.47l73.21-24.41v-2.32l4.66,1.47-4.66,4.2v-3.01L19.73,103.54c-.18,.02-.52,.03-.61,.03Z"/><path class="be" d="M19.49,29.71l1.06,1.64-.78,.21-1.41,.37,1.13-2.22m74,47.4l1.7,.53-1.7,1.53v-2.06M19.29,25.71l-4.75,9.3,3.45-.91V103.41c0,.38,.18,.73,.49,.95,.2,.14,.43,.21,.66,.21,.13,0,.75-.02,.87-.07l71.49-24.69v3.86l7.63-6.88-7.63-2.41v2.96L20.28,101.09V33.49l3.45-.91-4.44-6.87h0Z"/></g><g class="bl"><path class="ax" d="M26.02,77c-4.59-2.3-2.82-7.88-2.3-9.19L48.99,31.06l20.67,9.19,16.08-22.97c1.26-1.83,7.36-1.27,9.19,0,1.83,1.26,3.56,7.36,2.3,9.19l-25.27,34.46-18.38-11.49-20.67,27.56c-.79,1.1-2.88,2-6.89,0Z"/></g><polyline class="ba" points="28.32 72.41 51.29 40.25 69.66 51.74 90.34 21.88"/></g></g><g id="n"><circle class="ay" cx="78.5" cy="79" r="34"/></g><g id="o"><path class="bc" d="M78.5,47c17.64,0,32,14.36,32,32s-14.36,32-32,32-32-14.36-32-32,14.36-32,32-32m0-2c-18.78,0-34,15.22-34,34s15.22,34,34,34,34-15.22,34-34-15.22-34-34-34h0Z"/></g><g id="q"><line class="am" x1="66.5" y1="66.97" x2="95.5" y2="77.97"/><line class="am" x1="69.5" y1="96.97" x2="91.5" y2="79.97"/><g><polygon class="at" points="62.5 87.54 70 82.97 75.77 84.26 68.89 89.13 62.5 87.54"/><polygon class="ar" points="75.42 98.03 82.5 92.75 82.5 99.41 75.42 105 75.42 98.03"/><polygon class="av" points="68.89 89.13 75.77 84.26 75.77 90.73 68.69 96.25 68.89 89.13"/><polygon class="ai" points="68.89 89.13 68.69 96.25 75.42 98.03 75.42 105 62.5 101.32 62.5 87.54 68.89 89.13"/><polygon class="al" points="75.77 90.73 82.5 92.75 75.42 98.03 68.69 96.25 75.77 90.73"/><polygon class="an" points="75.77 90.73 75.77 84.26 70 82.97 62.5 87.54 62.5 101.32 75.42 105 82.5 99.41 82.5 92.75 75.77 90.73"/></g><g><polygon class="ah" points="57.58 60.48 65.08 55.9 70.85 57.2 63.97 62.07 57.58 60.48"/><polygon class="au" points="70.5 70.97 77.58 65.69 77.58 72.35 70.5 77.94 70.5 70.97"/><polygon class="ag" points="63.97 62.07 70.85 57.2 70.85 63.67 63.77 69.18 63.97 62.07"/><polygon class="as" points="63.97 62.07 63.77 69.18 70.5 70.97 70.5 77.94 57.58 74.25 57.58 60.48 63.97 62.07"/><polygon class="ao" points="70.85 63.67 77.58 65.69 70.5 70.97 63.77 69.18 70.85 63.67"/><polygon class="an" points="70.85 63.67 70.85 57.2 65.08 55.9 57.58 60.48 57.58 74.25 70.5 77.94 77.58 72.35 77.58 65.69 70.85 63.67"/></g><g><polygon class="aj" points="85.5 70.51 93 65.93 98.77 67.23 91.89 72.1 85.5 70.51"/><polygon class="ap" points="98.42 81 105.5 75.72 105.5 82.38 98.42 87.97 98.42 81"/><polygon class="aw" points="91.89 72.1 98.77 67.23 98.77 73.69 91.69 79.21 91.89 72.1"/><polygon class="ak" points="91.89 72.1 91.69 79.21 98.42 81 98.42 87.97 85.5 84.28 85.5 70.51 91.89 72.1"/><polygon class="aq" points="98.77 73.69 105.5 75.72 98.42 81 91.69 79.21 98.77 73.69"/><polygon class="an" points="98.77 73.69 98.77 67.23 93 65.93 85.5 70.51 85.5 84.28 98.42 87.97 105.5 82.38 105.5 75.72 98.77 73.69"/></g></g></svg>