<svg xmlns="http://www.w3.org/2000/svg" xmlns:xlink="http://www.w3.org/1999/xlink" width="64" height="64" viewBox="0 0 64 64">
  <defs>
    <linearGradient id="a" x1="31.944" y1="21.779" x2="46.056" y2="46.221" gradientUnits="userSpaceOnUse">
      <stop offset="0" stop-color="#8dd7f4"/>
      <stop offset="1" stop-color="#386e8c"/>
    </linearGradient>
    <linearGradient id="b" x1="32.786" y1="23.237" x2="45.214" y2="44.763" gradientUnits="userSpaceOnUse">
      <stop offset="0" stop-color="#fff"/>
      <stop offset="1" stop-color="#d2d2d2"/>
    </linearGradient>
    <linearGradient id="c" x1="30.75" y1="27.835" x2="33.25" y2="32.165" xlink:href="#a"/>
    <linearGradient id="d" x1="35.709" y1="34.596" x2="41.321" y2="44.317" xlink:href="#a"/>
    <linearGradient id="e" x1="22.248" y1="18.334" x2="24.749" y2="22.665" gradientUnits="userSpaceOnUse">
      <stop offset="0" stop-color="#3387af"/>
      <stop offset="1" stop-color="#285a78"/>
    </linearGradient>
    <linearGradient id="f" x1="15.992" y1="16.259" x2="27.814" y2="36.735" xlink:href="#e"/>
  </defs>
  <title>16118_SWYVIEW_AP_AppIcon_r21x</title>
  <g>
    <path d="M26,25.092v17.4A1.635,1.635,0,0,0,27.529,44H50.471A1.636,1.636,0,0,0,52,42.487v-17.4C52,24.336,51.235,24,50.471,24H27.529C26.765,24,26,24.336,26,25.092ZM50,42H28V26H50Z"/>
    <rect x="26.5" y="24.5" width="25" height="19" rx="1" stroke="#053755" stroke-linejoin="round" fill="url(#a)"/>
    <rect x="28" y="26" width="22" height="16" fill="url(#b)"/>
    <g>
      <circle cx="32" cy="30" r="2.5" fill="url(#c)"/>
      <path d="M32,28a2,2,0,1,1-2,2,2,2,0,0,1,2-2m0-1a3,3,0,1,0,3,3,3,3,0,0,0-3-3Z" fill="#053755"/>
    </g>
    <g>
      <path d="M30.3,40.5l8.625-7.763L41.6,36.3a.5.5,0,0,0,.4.2.511.511,0,0,0,.224-.053l1.645-.823L47.933,40.5Z" fill="url(#d)"/>
      <path d="M38.856,33.475,41.2,36.6a1,1,0,0,0,.8.4.989.989,0,0,0,.447-.106l1.292-.645L46.865,40H31.606l7.25-6.525M39,32,29,41H49l-5-6-2,1-3-4Z" fill="#053755"/>
    </g>
  </g>
  <g>
    <g>
      <g opacity="0.5">
        <path d="M23.5,23.5a3,3,0,1,1,3-3A3,3,0,0,1,23.5,23.5Z" fill="#fff"/>
        <path d="M23.5,18A2.5,2.5,0,1,1,21,20.5,2.5,2.5,0,0,1,23.5,18m0-1A3.5,3.5,0,1,0,27,20.5,3.5,3.5,0,0,0,23.5,17Z" fill="#fff"/>
      </g>
      <path d="M23.5,23A2.5,2.5,0,1,0,21,20.5,2.5,2.5,0,0,0,23.5,23Z" fill="url(#e)"/>
    </g>
    <g>
      <g opacity="0.5">
        <path d="M13.109,45a1.679,1.679,0,0,1-1.045-.319,1.548,1.548,0,0,1-.564-1.214,1.587,1.587,0,0,1,.152-.707l4.1-9.27.035-.093c.072-.162.678-1.57.678-1.57.212-.618.215-1.1-.349-2.4-.038-.089-.257-.621-.583-1.415-.959-2.335-2.955-7.195-3.876-9.294a.492.492,0,0,1-.042-.2.515.515,0,0,1,.5-.519h2.478a1.662,1.662,0,0,1,1.476,1c.044.09.284.678.636,1.547.657,1.625,1.759,4.344,2.663,6.459.281.587.5.771.932.771a1.383,1.383,0,0,0,.878-.312c.28-.218.544-.427.812-.642,1.739-1.373,10.3-8.086,10.3-8.086a3.285,3.285,0,0,1,2.1-.736L37,18a.782.782,0,0,1,.473,1.4C35.309,21.12,24.67,29.536,23.308,30.613A12.56,12.56,0,0,0,20.372,33.6c-.7,1.058-3.387,7.163-4.4,9.46l-.371.84a1.6,1.6,0,0,1-.415.639A1.561,1.561,0,0,1,14.122,45h0a1.305,1.305,0,0,1-.177-.013Z" fill="#fff"/>
        <path d="M14.6,18.5a1.065,1.065,0,0,1,.685.27,1.151,1.151,0,0,1,.334.461c.116.237,1.913,4.766,3.286,7.976.3.636.641,1.075,1.391,1.075a1.879,1.879,0,0,0,1.2-.426v0c.27-.214.536-.423.8-.64,1.737-1.37,10.3-8.083,10.3-8.083a2.8,2.8,0,0,1,1.792-.629h.056L37,18.5a.279.279,0,0,1,.277.282.275.275,0,0,1-.109.222C35,20.727,24.36,29.144,23,30.22a13.191,13.191,0,0,0-3.043,3.109c-.828,1.254-4.167,8.927-4.809,10.372a1.128,1.128,0,0,1-.3.479,1.068,1.068,0,0,1-.72.318.717.717,0,0,1-.1-.008l-.892.01h-.017a1.184,1.184,0,0,1-.745-.22,1.044,1.044,0,0,1-.364-.8,1.187,1.187,0,0,1,.126-.557L16.2,33.693c.03-.074.049-.131.059-.156.044-.09.08-.172.116-.255l.54-1.257a3.373,3.373,0,0,0-.349-2.8c-.156-.357-3.234-7.914-4.46-10.709V18.5H14.6m0-1H12.111a1,1,0,0,0-1,1,1.083,1.083,0,0,0,.084.421c.919,2.095,2.915,6.955,3.875,9.29.326.794.545,1.326.583,1.416.538,1.238.488,1.582.334,2.038l-.526,1.222c-.029.068-.058.135-.1.21-.013.026-.024.052-.035.08l-.019.052-.036.1-4.064,9.19-.024.057A2.094,2.094,0,0,0,11,43.5a2.017,2.017,0,0,0,.763,1.584,2.159,2.159,0,0,0,1.345.42l.859-.009c.051,0,.1.007.154.007a2.064,2.064,0,0,0,1.443-.627,2.005,2.005,0,0,0,.494-.763l.376-.853c.91-2.066,3.68-8.354,4.354-9.375a12.139,12.139,0,0,1,2.826-2.873c1.365-1.079,12-9.5,14.178-11.22a1.259,1.259,0,0,0,.488-1A1.281,1.281,0,0,0,37,17.5l-2.561.006h-.054a3.787,3.787,0,0,0-2.424.855h0s-8.551,6.7-10.286,8.072c-.259.208-.509.405-.762.605q-.03.021-.06.045a.869.869,0,0,1-.561.2c-.165,0-.248,0-.488-.5-.887-2.074-1.987-4.791-2.645-6.414-.478-1.182-.595-1.468-.644-1.569a2.121,2.121,0,0,0-.588-.787A2.021,2.021,0,0,0,14.6,17.5Z" fill="#fff"/>
      </g>
      <path d="M23,30.22C24.36,29.144,35,20.727,37.172,19h0a.275.275,0,0,0,.109-.222A.279.279,0,0,0,37,18.5h0l-2.559.006h-.056a2.8,2.8,0,0,0-1.792.629s-8.562,6.713-10.3,8.083c-.269.217-.535.426-.8.64v0a1.879,1.879,0,0,1-1.2.426c-.75,0-1.089-.439-1.391-1.075h0c-1.373-3.21-3.17-7.739-3.286-7.976a1.151,1.151,0,0,0-.334-.461,1.064,1.064,0,0,0-.7-.27H12.111v.019c1.226,2.8,4.3,10.352,4.46,10.71a3.371,3.371,0,0,1,.349,2.8l-.54,1.257c-.036.083-.072.165-.116.255-.01.025-.029.082-.059.156L12.126,42.92a1.187,1.187,0,0,0-.126.557,1.044,1.044,0,0,0,.364.8,1.2,1.2,0,0,0,.762.22l.892-.01a1.031,1.031,0,0,0,.824-.31,1.128,1.128,0,0,0,.3-.479c.642-1.445,3.981-9.118,4.809-10.372A13.191,13.191,0,0,1,23,30.22Z" fill="url(#f)"/>
    </g>
  </g>
</svg>
