<svg id="Layer_4" data-name="Layer 4" xmlns="http://www.w3.org/2000/svg" xmlns:xlink="http://www.w3.org/1999/xlink" viewBox="0 0 64 64"><defs><style>.cls-1{fill:url(#linear-gradient);}.cls-2{stroke:#787878;fill:url(#Dégradé_sans_nom_2);}.cls-11,.cls-2,.cls-7{stroke-linejoin:round;}.cls-3{fill:url(#linear-gradient-2);}.cls-4{opacity:0.6;fill:url(#linear-gradient-3);}.cls-5{opacity:0.3;fill:url(#Dégradé_sans_nom_11);}.cls-6{opacity:0.25;fill:url(#Dégradé_sans_nom_8);}.cls-7{fill:none;stroke:#323232;}.cls-12,.cls-8{opacity:0.5;}.cls-9{fill:#fff;}.cls-10{fill:#368ec4;}.cls-11{stroke:#787979;fill:url(#linear-gradient-4);}.cls-12{fill:#646565;}</style><linearGradient id="linear-gradient" x1="20.34" y1="21.82" x2="37.34" y2="51.26" gradientUnits="userSpaceOnUse"><stop offset="0" stop-color="#aaa"/><stop offset="1" stop-color="#5a5a5a"/></linearGradient><linearGradient id="Dégradé_sans_nom_2" x1="19.35" y1="19.88" x2="36.84" y2="50.19" gradientUnits="userSpaceOnUse"><stop offset="0.31" stop-color="#d7d7d7"/><stop offset="0.51" stop-color="#d4d4d4"/><stop offset="0.67" stop-color="#cacaca"/><stop offset="0.81" stop-color="#b9b9b9"/><stop offset="0.95" stop-color="#a1a1a1"/><stop offset="1" stop-color="#969696"/></linearGradient><linearGradient id="linear-gradient-2" x1="21.63" y1="21.71" x2="35.77" y2="46.19" gradientUnits="userSpaceOnUse"><stop offset="0" stop-color="#fff"/><stop offset="1" stop-color="#d2d2d2"/></linearGradient><linearGradient id="linear-gradient-3" x1="33.1" y1="17.83" x2="19.63" y2="37.8" gradientUnits="userSpaceOnUse"><stop offset="0" stop-color="#fff"/><stop offset="1" stop-color="#fff" stop-opacity="0"/></linearGradient><linearGradient id="Dégradé_sans_nom_11" x1="35.01" y1="33.36" x2="50.58" y2="26.79" gradientUnits="userSpaceOnUse"><stop offset="0"/><stop offset="1" stop-opacity="0"/></linearGradient><linearGradient id="Dégradé_sans_nom_8" x1="36.06" y1="32.95" x2="51.63" y2="26.39" xlink:href="#Dégradé_sans_nom_11"/><linearGradient id="linear-gradient-4" x1="42.42" y1="21.41" x2="45.64" y2="24.73" gradientUnits="userSpaceOnUse"><stop offset="0" stop-color="#d2d2d2"/><stop offset="0.35" stop-color="#fff"/><stop offset="1" stop-color="#d2d2d2"/></linearGradient></defs><path class="cls-1" d="M14.17,55.45c-1.6,0-2.74-.69-2.91-2.32L8.62,29.79a1.22,1.22,0,0,1,0-.26,1.58,1.58,0,0,1,1-1.5L42.54,16.61a1.36,1.36,0,0,1,.48-.09,1.52,1.52,0,0,1,1.3.79c3,8.84,9.23,14.4,12.47,20.06a3.12,3.12,0,0,1,.28,1.23,2.69,2.69,0,0,1-1.8,2.29L15.11,55.27A2.69,2.69,0,0,1,14.17,55.45Z"/><path class="cls-2" d="M12.8,54.45a1.56,1.56,0,0,1-1.54-1.32l-4.17-25a2.11,2.11,0,0,1,0-.26,1.59,1.59,0,0,1,1.08-1.5L42.47,15a1.56,1.56,0,0,1,1.85.71L56.57,37a1.57,1.57,0,0,1,.22.79,1.6,1.6,0,0,1-1,1.49L13.33,54.35A1.61,1.61,0,0,1,12.8,54.45Z"/><polygon class="cls-3" points="10.62 28.07 42.08 17.41 52.22 36.69 14.77 49.53 10.62 28.07"/><path class="cls-4" d="M34.1,39a32.59,32.59,0,0,0,3.37-20L10.62,28.07l4.15,21.46L31,44A36.2,36.2,0,0,0,34.1,39Z"/><path class="cls-5" d="M46.63,26.26,38.3,29.48l-3.59,2.65a1.15,1.15,0,0,0-.33.41,1,1,0,0,0,.52,1.34,1,1,0,0,0,.52.08l4.44-.46,8.79-3.41Z"/><polygon class="cls-6" points="49.58 24.96 46.59 26.14 48.6 29.97 51.73 28.72 49.58 24.96"/><path class="cls-7" d="M38.94,16.13,8.15,26.38a1.59,1.59,0,0,0-1.08,1.5,2.11,2.11,0,0,0,0,.26L9.72,43.93"/><g class="cls-8"><path class="cls-9" d="M12.6,35.5a4.11,4.11,0,0,1-4.1-4.1V11.6a4.11,4.11,0,0,1,4.1-4.1H32.4a4.11,4.11,0,0,1,4.1,4.1V31.4a4.11,4.11,0,0,1-4.1,4.1ZM31,30V13H14V30Z"/><path class="cls-9" d="M32.4,8A3.6,3.6,0,0,1,36,11.6V31.4A3.6,3.6,0,0,1,32.4,35H12.6A3.6,3.6,0,0,1,9,31.4V11.6A3.6,3.6,0,0,1,12.6,8H32.4M13.5,30.5h18v-18h-18v18M32.4,7H12.6A4.6,4.6,0,0,0,8,11.6V31.4A4.6,4.6,0,0,0,12.6,36H32.4A4.6,4.6,0,0,0,37,31.4V11.6A4.6,4.6,0,0,0,32.4,7ZM14.5,13.5h16v16h-16v-16Z"/></g><path class="cls-10" d="M31.5,12.5v18h-18v-18h18M32.4,8H12.6A3.6,3.6,0,0,0,9,11.6V31.4A3.6,3.6,0,0,0,12.6,35H32.4A3.6,3.6,0,0,0,36,31.4V11.6A3.6,3.6,0,0,0,32.4,8Z"/><path class="cls-11" d="M36.18,28.39,34,32.27a1,1,0,0,0,1.38,1.38l3.87-2.21L54.51,16.15a2,2,0,0,0,.37-2.37,3.18,3.18,0,0,0-.44-.61,2.55,2.55,0,0,0-.61-.43,2,2,0,0,0-2.36.37Z"/><path class="cls-12" d="M53.32,16.66a2.36,2.36,0,0,0-.85-1.52,2.22,2.22,0,0,0-1.55-.83l-1,1a2.32,2.32,0,0,1,1.52.87,2.36,2.36,0,0,1,.85,1.52Z"/><path class="cls-12" d="M38.74,27.35c.4.4,1.28.15,2.87-1.43s2.55-3.19,2.15-3.59c-.15-.15-.48-.1-.77.2s-4.16,4.14-4.27,4.26A.47.47,0,0,0,38.74,27.35Z"/><path class="cls-7" d="M9.72,43.93l1.54,9.2c.17,1.63,1.31,2.32,2.91,2.32a2.69,2.69,0,0,0,.94-.18L55.27,40.89a2.69,2.69,0,0,0,1.8-2.29,3.12,3.12,0,0,0-.28-1.23l-.15-.23a.87.87,0,0,0-.07-.17L48.22,22.44l6.29-6.29a2,2,0,0,0,.37-2.37,3.18,3.18,0,0,0-.44-.61,2.55,2.55,0,0,0-.61-.43,2,2,0,0,0-2.36.37L46,18.58l-1.67-2.91A1.56,1.56,0,0,0,42.47,15l-3.53,1.17"/></svg>