<svg xmlns="http://www.w3.org/2000/svg" xmlns:xlink="http://www.w3.org/1999/xlink" width="64" height="64" viewBox="0 0 64 64">
  <defs>
    <linearGradient id="a" x1="33.25" y1="40.835" x2="35.75" y2="45.165" gradientUnits="userSpaceOnUse">
      <stop offset="0" stop-color="#3387af"/>
      <stop offset="1" stop-color="#285a78"/>
    </linearGradient>
    <linearGradient id="b" x1="33.967" y1="31.364" x2="42.846" y2="46.743" xlink:href="#a"/>
    <linearGradient id="c" x1="35.465" y1="23.505" x2="49.123" y2="47.161" xlink:href="#a"/>
    <linearGradient id="d" x1="22.23" y1="18.468" x2="24.701" y2="22.746" xlink:href="#a"/>
    <linearGradient id="e" x1="15.979" y1="16.207" x2="27.827" y2="36.727" xlink:href="#a"/>
  </defs>
  <title>16119_SWYWNEW_AP_AppIcon_r21x</title>
  <g>
    <g opacity="0.5">
      <circle cx="34.5" cy="43" r="3" fill="#fff"/>
      <path d="M34.5,40.5A2.5,2.5,0,1,1,32,43a2.5,2.5,0,0,1,2.5-2.5m0-1A3.5,3.5,0,1,0,38,43a3.5,3.5,0,0,0-3.5-3.5Z" fill="#fff"/>
    </g>
    <g opacity="0.5">
      <path d="M41,46a.5.5,0,0,1-.5-.5,8.417,8.417,0,0,0-2.24-6.279A8.388,8.388,0,0,0,32,37a.5.5,0,0,1-.5-.5v-4A.5.5,0,0,1,32,32,13.357,13.357,0,0,1,45.5,45.5a.5.5,0,0,1-.5.5Z" fill="#fff"/>
      <path d="M32,32.5a12.876,12.876,0,0,1,13,13H41a9.018,9.018,0,0,0-2.387-6.633A8.97,8.97,0,0,0,32,36.5v-4m0-1a1,1,0,0,0-1,1v4a1,1,0,0,0,1,1,7.915,7.915,0,0,1,5.906,2.074A7.951,7.951,0,0,1,40,45.5a1,1,0,0,0,1,1h4a1,1,0,0,0,1-1,13.852,13.852,0,0,0-14-14Z" fill="#fff"/>
    </g>
    <g opacity="0.5">
      <path d="M48,46a.5.5,0,0,1-.5-.5A15.336,15.336,0,0,0,32,30a.5.5,0,0,1-.5-.5l.009-4a.5.5,0,0,1,.5-.5A20.518,20.518,0,0,1,52.5,45.5a.5.5,0,0,1-.5.5Z" fill="#fff"/>
      <path d="M32.009,25.5A20.019,20.019,0,0,1,52,45.5H48a15.91,15.91,0,0,0-16-16l.009-4m0-1a1,1,0,0,0-1,1L31,29.5a1,1,0,0,0,1,1,14.841,14.841,0,0,1,15,15,1,1,0,0,0,1,1h4a1,1,0,0,0,1-1,21.019,21.019,0,0,0-20.991-21Z" fill="#fff"/>
    </g>
  </g>
  <g>
    <g opacity="0.5">
      <path d="M23.464,23.578a2.97,2.97,0,1,1,2.973-2.971A2.973,2.973,0,0,1,23.464,23.578Z" fill="#fff"/>
      <path d="M23.464,18.138A2.47,2.47,0,1,1,21,20.607a2.472,2.472,0,0,1,2.467-2.469m0-1a3.47,3.47,0,1,0,3.473,3.469,3.472,3.472,0,0,0-3.473-3.469Z" fill="#fff"/>
    </g>
    <g opacity="0.5">
      <path d="M13.109,45a1.674,1.674,0,0,1-1.046-.321,1.546,1.546,0,0,1-.563-1.214,1.6,1.6,0,0,1,.151-.707l4.1-9.292.034-.091c.073-.165.679-1.576.679-1.576.212-.62.216-1.1-.349-2.407-.039-.089-.256-.62-.58-1.411-.96-2.342-2.957-7.216-3.879-9.321a.5.5,0,0,1-.042-.2.516.516,0,0,1,.5-.519h2.478a1.574,1.574,0,0,1,1.037.4,1.607,1.607,0,0,1,.44.6c.043.089.282.677.634,1.548.658,1.629,1.76,4.355,2.665,6.475.28.589.5.774.931.774a1.381,1.381,0,0,0,.878-.313c.279-.219.543-.428.811-.643,1.74-1.376,10.3-8.1,10.3-8.1a3.285,3.285,0,0,1,2.1-.738L37,17.94a.783.783,0,0,1,.473,1.4C35.309,21.064,24.67,29.5,23.308,30.58a12.58,12.58,0,0,0-2.935,3c-.7,1.06-3.385,7.173-4.4,9.474l-.375.85a1.592,1.592,0,0,1-.415.64A1.554,1.554,0,0,1,14.122,45h0a1.305,1.305,0,0,1-.177-.013Z" fill="#fff"/>
      <path d="M14.6,18.44a1.066,1.066,0,0,1,.684.271,1.16,1.16,0,0,1,.335.462c.115.238,1.912,4.777,3.285,7.994.3.638.641,1.078,1.391,1.078a1.875,1.875,0,0,0,1.2-.428v0c.27-.214.536-.424.8-.64,1.737-1.374,10.3-8.1,10.3-8.1a2.788,2.788,0,0,1,1.792-.631h.056L37,18.44a.28.28,0,0,1,.277.283.275.275,0,0,1-.109.222C35,20.673,24.36,29.108,23,30.187A13.169,13.169,0,0,0,19.955,33.3c-.828,1.256-4.167,8.947-4.81,10.395a1.133,1.133,0,0,1-.3.481,1.066,1.066,0,0,1-.72.318.717.717,0,0,1-.1-.008l-.892.01h-.017a1.18,1.18,0,0,1-.745-.221,1.05,1.05,0,0,1-.364-.8,1.208,1.208,0,0,1,.126-.559l4.08-9.248c.029-.074.048-.131.058-.156.044-.09.08-.172.116-.256L16.92,32a3.379,3.379,0,0,0-.349-2.8c-.155-.358-3.234-7.932-4.46-10.734V18.44H14.6m0-1h-2.49a1,1,0,0,0-1,1,1.079,1.079,0,0,0,.084.42c.919,2.1,2.915,6.97,3.874,9.311.326.8.545,1.33.584,1.42.539,1.243.489,1.588.333,2.046l-.525,1.225c-.029.068-.059.136-.1.21a.732.732,0,0,0-.035.081l-.019.051-.037.1-4.063,9.211-.024.057a2.1,2.1,0,0,0-.187.925,2.021,2.021,0,0,0,.762,1.585,2.157,2.157,0,0,0,1.346.421l.859-.009c.051,0,.1.007.154.007a2.067,2.067,0,0,0,1.444-.628,2,2,0,0,0,.493-.764l.376-.854c.91-2.071,3.68-8.375,4.355-9.4a12.168,12.168,0,0,1,2.826-2.881c1.365-1.081,12-9.517,14.178-11.245a1.261,1.261,0,0,0,.487-1.005A1.282,1.282,0,0,0,37,17.44l-2.561.006h-.054a3.786,3.786,0,0,0-2.425.857h0s-8.551,6.719-10.286,8.091c-.259.209-.508.406-.762.606l-.06.046a.866.866,0,0,1-.56.2c-.164,0-.247,0-.488-.507-.887-2.079-1.987-4.8-2.645-6.43-.478-1.184-.595-1.471-.644-1.571a2.113,2.113,0,0,0-.588-.789,2.02,2.02,0,0,0-1.33-.508Z" fill="#fff"/>
    </g>
  </g>
  <g>
    <circle cx="34.5" cy="43" r="2.5" fill="url(#a)"/>
    <path d="M32,36.5a8.97,8.97,0,0,1,6.613,2.367A9.018,9.018,0,0,1,41,45.5h4a12.876,12.876,0,0,0-13-13Z" fill="url(#b)"/>
    <path d="M32,29.5a15.91,15.91,0,0,1,16,16h4a20.019,20.019,0,0,0-19.991-20Z" fill="url(#c)"/>
  </g>
  <g>
    <path d="M23.464,23.078A2.47,2.47,0,1,0,21,20.607,2.474,2.474,0,0,0,23.464,23.078Z" fill="url(#d)"/>
    <path d="M23,30.188c1.362-1.08,12-9.515,14.174-11.243h0a.275.275,0,0,0,.109-.222A.28.28,0,0,0,37,18.44h0l-2.559.006h-.056a2.788,2.788,0,0,0-1.792.631s-8.562,6.728-10.3,8.1c-.269.216-.535.426-.8.64v0a1.875,1.875,0,0,1-1.2.428c-.75,0-1.088-.44-1.391-1.078h0c-1.373-3.217-3.17-7.756-3.285-7.994a1.16,1.16,0,0,0-.335-.462,1.068,1.068,0,0,0-.7-.271H12.111v.019c1.226,2.8,4.305,10.376,4.46,10.734A3.379,3.379,0,0,1,16.92,32l-.54,1.26c-.036.084-.072.166-.116.256-.01.025-.029.082-.058.156l-4.08,9.248a1.208,1.208,0,0,0-.126.559,1.05,1.05,0,0,0,.364.8,1.191,1.191,0,0,0,.762.221l.892-.01a1.03,1.03,0,0,0,.824-.31,1.133,1.133,0,0,0,.3-.481c.643-1.448,3.982-9.139,4.81-10.395A13.146,13.146,0,0,1,23,30.188Z" fill="url(#e)"/>
  </g>
</svg>
