<svg xmlns="http://www.w3.org/2000/svg" xmlns:xlink="http://www.w3.org/1999/xlink" width="64" height="64" viewBox="0 0 64 64">
  <defs>
    <linearGradient id="a" x1="24.147" y1="15.6" x2="41.388" y2="45.463" gradientUnits="userSpaceOnUse">
      <stop offset="0" stop-color="#3387af"/>
      <stop offset="1" stop-color="#285a78"/>
    </linearGradient>
  </defs>
  <title>16124_IFWWEBP_AP_AppIcon_r21x</title>
  <g opacity="0.5">
    <g opacity="0.5">
      <path d="M17.442,39a.5.5,0,0,1-.478-.354l-1.858-6.119-1.99,6.127a.5.5,0,0,1-.475.346h-2.41a.5.5,0,0,1-.485-.379l-3.231-13A.5.5,0,0,1,7,25H9.536a.5.5,0,0,1,.488.394L11.8,33.518l1.793-5.763a.5.5,0,0,1,.478-.351h2.142a.5.5,0,0,1,.478.353l1.926,6.265c.318-.923.609-1.924.867-2.989a47.228,47.228,0,0,0,.963-5.591.5.5,0,0,1,.5-.442h2.321a.5.5,0,0,1,.5.566,51.841,51.841,0,0,1-1.4,7.018,43.783,43.783,0,0,1-2.193,6.12.5.5,0,0,1-.457.3Z" fill="#fff"/>
      <path d="M23.262,25.5a51.089,51.089,0,0,1-1.384,6.95A43.055,43.055,0,0,1,19.71,38.5H17.442l-2.319-7.641L12.641,38.5h-2.41L7,25.5H9.535l2.178,9.973L14.069,27.9h2.142l2.356,7.664a30.619,30.619,0,0,0,1.4-4.418,47.557,47.557,0,0,0,.973-5.65h2.321m0-1H20.941a1,1,0,0,0-.993.884A46.852,46.852,0,0,1,19,30.914q-.178.735-.376,1.425L17.167,27.61a1,1,0,0,0-.956-.706H14.069a1,1,0,0,0-.955.7l-1.231,3.956-1.371-6.276a1,1,0,0,0-.977-.787H7a1,1,0,0,0-.97,1.241l3.231,13a1,1,0,0,0,.97.759h2.41a1,1,0,0,0,.951-.691l1.5-4.614,1.4,4.6a1,1,0,0,0,.956.709H19.71a1,1,0,0,0,.913-.592,44.21,44.21,0,0,0,2.219-6.19,52.2,52.2,0,0,0,1.411-7.086,1,1,0,0,0-.991-1.132Z" fill="#fff"/>
    </g>
    <g opacity="0.5">
      <path d="M34.312,39a.5.5,0,0,1-.479-.354l-1.858-6.12-1.99,6.128a.5.5,0,0,1-.476.346H27.1a.5.5,0,0,1-.486-.38l-3.23-13A.5.5,0,0,1,23.869,25H26.4a.5.5,0,0,1,.488.394l1.774,8.124,1.794-5.763a.5.5,0,0,1,.478-.351H33.08a.5.5,0,0,1,.478.353l1.925,6.266c.318-.92.609-1.921.87-2.991a47.993,47.993,0,0,0,.96-5.59.5.5,0,0,1,.5-.442h2.321a.5.5,0,0,1,.5.565,51.392,51.392,0,0,1-1.4,7.019,43.352,43.352,0,0,1-2.192,6.12.5.5,0,0,1-.456.3Z" fill="#fff"/>
      <path d="M40.131,25.5a50.781,50.781,0,0,1-1.385,6.95,42.8,42.8,0,0,1-2.167,6.05H34.311L31.99,30.859,29.509,38.5H27.1l-3.231-13H26.4l2.177,9.973L30.937,27.9H33.08l2.356,7.664a30.74,30.74,0,0,0,1.4-4.418,48.189,48.189,0,0,0,.972-5.65h2.321m0-1H37.81a1,1,0,0,0-.994.883,47.334,47.334,0,0,1-.95,5.532q-.178.733-.377,1.424L34.035,27.61a1,1,0,0,0-.955-.706H30.937a1,1,0,0,0-.954.7l-1.232,3.956-1.37-6.276A1,1,0,0,0,26.4,24.5H23.869a1,1,0,0,0-.97,1.241l3.23,13a1,1,0,0,0,.971.759h2.409a1,1,0,0,0,.951-.691l1.5-4.614,1.395,4.6a1,1,0,0,0,.957.709h2.268a1,1,0,0,0,.913-.591,43.975,43.975,0,0,0,2.217-6.192,51.861,51.861,0,0,0,1.413-7.086,1,1,0,0,0-.991-1.131Z" fill="#fff"/>
    </g>
    <g opacity="0.5">
      <path d="M51.182,39a.5.5,0,0,1-.479-.354l-1.859-6.12-1.99,6.128a.5.5,0,0,1-.476.346H43.969a.5.5,0,0,1-.486-.38l-3.23-13A.5.5,0,0,1,40.738,25h2.534a.5.5,0,0,1,.489.394l1.774,8.124,1.793-5.763a.5.5,0,0,1,.478-.351h2.143a.5.5,0,0,1,.478.353l1.926,6.264c.319-.926.609-1.926.867-2.989a47.875,47.875,0,0,0,.962-5.59.5.5,0,0,1,.5-.442H57a.5.5,0,0,1,.5.566,51.711,51.711,0,0,1-1.4,7.018,43.539,43.539,0,0,1-2.191,6.12.5.5,0,0,1-.457.3Z" fill="#fff"/>
      <path d="M57,25.5a51.084,51.084,0,0,1-1.385,6.95,42.927,42.927,0,0,1-2.167,6.05H51.181l-2.322-7.641L46.378,38.5h-2.41l-3.23-13h2.534l2.178,9.973L47.806,27.9h2.143l2.356,7.664a30.744,30.744,0,0,0,1.4-4.418,48.175,48.175,0,0,0,.973-5.65H57m0-1H54.679a1,1,0,0,0-.993.883,47.278,47.278,0,0,1-.952,5.532q-.177.732-.376,1.423L50.905,27.61a1,1,0,0,0-.956-.706H47.806a1,1,0,0,0-.955.7L45.62,31.563l-1.371-6.276a1,1,0,0,0-.977-.787H40.738a1,1,0,0,0-.97,1.241l3.23,13a1,1,0,0,0,.97.759h2.41a1,1,0,0,0,.951-.691l1.5-4.615,1.4,4.6a1,1,0,0,0,.957.709h2.267a1,1,0,0,0,.913-.592,44.143,44.143,0,0,0,2.217-6.191,52.028,52.028,0,0,0,1.413-7.085A1,1,0,0,0,57,24.5Z" fill="#fff"/>
    </g>
  </g>
  <g>
    <path d="M10.231,38.5,7,25.5H9.535l2.178,9.973L14.069,27.9h2.142l2.356,7.664a30.619,30.619,0,0,0,1.4-4.418,47.557,47.557,0,0,0,.973-5.65h2.321a51.089,51.089,0,0,1-1.384,6.95A43.055,43.055,0,0,1,19.71,38.5H17.442l-2.319-7.641L12.641,38.5Z" fill="url(#a)"/>
    <path d="M27.1,38.5l-3.231-13H26.4l2.177,9.973L30.937,27.9H33.08l2.356,7.664a30.74,30.74,0,0,0,1.4-4.418,48.189,48.189,0,0,0,.972-5.65h2.321a50.781,50.781,0,0,1-1.385,6.95,42.8,42.8,0,0,1-2.167,6.05H34.311L31.99,30.859,29.509,38.5Z" fill="url(#a)"/>
    <path d="M43.968,38.5l-3.23-13h2.534l2.178,9.973L47.806,27.9h2.143l2.356,7.664a30.744,30.744,0,0,0,1.4-4.418,48.175,48.175,0,0,0,.973-5.65H57a51.084,51.084,0,0,1-1.385,6.95,42.927,42.927,0,0,1-2.167,6.05H51.181l-2.322-7.641L46.378,38.5Z" fill="url(#a)"/>
  </g>
</svg>
