<svg xmlns="http://www.w3.org/2000/svg" xmlns:xlink="http://www.w3.org/1999/xlink" width="64" height="64" viewBox="0 0 64 64">
  <defs>
    <linearGradient id="a" x1="16.34" y1="7.608" x2="41.651" y2="51.448" gradientUnits="userSpaceOnUse">
      <stop offset="0" stop-color="#82bedc"/>
      <stop offset="1" stop-color="#285a78"/>
    </linearGradient>
    <linearGradient id="b" x1="20.624" y1="13.867" x2="44.931" y2="55.968" gradientUnits="userSpaceOnUse">
      <stop offset="0" stop-color="#8cd7f5"/>
      <stop offset="1" stop-color="#376e8c"/>
    </linearGradient>
  </defs>
  <title>42871_X3DDRIV_AP_Appicon_r21x</title>
  <g>
    <g>
      <path d="M10,50.5A1.5,1.5,0,0,1,8.5,49V13A1.5,1.5,0,0,1,10,11.5H20a1.506,1.506,0,0,1,1.2.6L23,14.5a2.514,2.514,0,0,0,2,1H52A1.5,1.5,0,0,1,53.5,17V32.485a1.5,1.5,0,0,1-.187.725L44.2,49.725a1.5,1.5,0,0,1-1.313.775Z" fill="url(#a)"/>
      <path d="M20,12a1.006,1.006,0,0,1,.8.4l1.8,2.4A3.017,3.017,0,0,0,25,16H52a1,1,0,0,1,1,1V32.485a1.009,1.009,0,0,1-.124.483l-9.11,16.515a1,1,0,0,1-.875.517H10a1,1,0,0,1-1-1V13a1,1,0,0,1,1-1H20m0-1H10a2,2,0,0,0-2,2V49a2,2,0,0,0,2,2H42.891a2,2,0,0,0,1.751-1.034l9.109-16.515A2,2,0,0,0,54,32.485V17a2,2,0,0,0-2-2H25a2,2,0,0,1-1.6-.8l-1.8-2.4A2,2,0,0,0,20,11Z" fill="#003755"/>
    </g>
    <g>
      <path d="M10.207,50.5l.561-.561a2.482,2.482,0,0,0,.732-1.767V20A1.5,1.5,0,0,1,13,18.5H54A1.5,1.5,0,0,1,55.5,20V49A1.5,1.5,0,0,1,54,50.5Z" fill="url(#b)"/>
      <path d="M54,19a1,1,0,0,1,1,1V49a1,1,0,0,1-1,1H11.379A2.975,2.975,0,0,0,12,48.172V20a1,1,0,0,1,1-1H54m0-1H13a2,2,0,0,0-2,2V48.172a2,2,0,0,1-.586,1.414L9,51H54a2,2,0,0,0,2-2V20a2,2,0,0,0-2-2Z" fill="#003755"/>
    </g>
    <path d="M31.97,21a13.561,13.561,0,0,0-3.493,26.672c-3.057-1.487-5.307-3.629-5.307-7.824,0-5.054,3.83-8.293,10.83-8.293V27.031l9.06,6.785L34,41.355V36.832c-6,0-7.81-.08-7.81,4.523,0,3.556,4.861,5.774,7.764,6.645A13.567,13.567,0,0,0,31.97,21Z" fill="#fff"/>
  </g>
</svg>
