<svg xmlns="http://www.w3.org/2000/svg" xmlns:xlink="http://www.w3.org/1999/xlink" width="64" height="64" viewBox="0 0 64 64">
  <defs>
    <linearGradient id="a" x1="39.068" y1="44.932" x2="44.974" y2="39.026" gradientUnits="userSpaceOnUse">
      <stop offset="0.04" stop-color="#a39f9f"/>
      <stop offset="0.2" stop-color="#ddd"/>
      <stop offset="0.4" stop-color="#c6c6c5"/>
      <stop offset="0.68" stop-color="#f5f5f5"/>
      <stop offset="0.996" stop-color="#bebebe"/>
    </linearGradient>
    <linearGradient id="b" x1="16.998" y1="10.043" x2="36.002" y2="42.957" gradientUnits="userSpaceOnUse">
      <stop offset="0" stop-color="#fff"/>
      <stop offset="1" stop-color="#d2d2d2"/>
    </linearGradient>
    <linearGradient id="c" x1="43.83" y1="40.675" x2="53.551" y2="57.513" gradientUnits="userSpaceOnUse">
      <stop offset="0" stop-color="#8dd7f4"/>
      <stop offset="1" stop-color="#386e8c"/>
    </linearGradient>
    <linearGradient id="d" x1="44.106" y1="41.125" x2="52.563" y2="55.773" gradientUnits="userSpaceOnUse">
      <stop offset="0" stop-color="#8dd7f4"/>
      <stop offset="0.256" stop-color="#8bd4f1"/>
      <stop offset="0.442" stop-color="#83cbe8"/>
      <stop offset="0.606" stop-color="#76bbd8"/>
      <stop offset="0.757" stop-color="#64a4c2"/>
      <stop offset="0.898" stop-color="#4d88a6"/>
      <stop offset="1" stop-color="#386e8c"/>
    </linearGradient>
  </defs>
  <title>26711_3DSearch_Control_Center_AppIcon_r21x</title>
  <g>
    <path d="M42,47l-5-5,5-5,5,5Z" fill="url(#a)"/>
    <polygon points="42 45.293 38.207 41.5 37.707 42 42 46.293 46.293 42 45.793 41.5 42 45.293" opacity="0.3"/>
    <polygon points="42 38.707 45.793 42.5 46.293 42 42 37.707 37.707 42 38.207 42.5 42 38.707" fill="#fff" opacity="0.3"/>
    <path d="M42,37.707,37.707,42,39.4,43.69A21.994,21.994,0,0,0,43.189,38.9Z" fill="#646565" opacity="0.5"/>
  </g>
  <g>
    <circle cx="27" cy="27" r="18" fill="#fff" opacity="0.2"/>
    <path d="M26.5,7.5a19,19,0,1,0,19,19A19,19,0,0,0,26.5,7.5Zm0,35a16,16,0,1,1,16-16A16,16,0,0,1,26.5,42.5Z" stroke="#787979" stroke-linejoin="round" fill="url(#b)"/>
    <path d="M37.8,30h0a2.5,2.5,0,0,0-2.869,1.241,9.029,9.029,0,0,1-3.689,3.689A2.5,2.5,0,0,0,30,37.8h0a2.508,2.508,0,0,0,3.6,1.532A14.049,14.049,0,0,0,39.331,33.6,2.508,2.508,0,0,0,37.8,30Z" fill="#fff" opacity="0.3"/>
    <path d="M13,27h5a9,9,0,0,1,9-9V13A14,14,0,0,0,13,27Z" fill="#fff" opacity="0.5"/>
  </g>
  <path d="M47,42l-4.8-4.8a19,19,0,1,0-5,5L42,47Z" fill="none" stroke="#323232" stroke-linejoin="round"/>
  <g>
    <path d="M56,51c0-.021.012.012,0,0L45,40l-5,5L51,56c.011.012-.021,0,0,0a3.638,3.638,0,0,0,2.5,1A3.5,3.5,0,0,0,57,53.5,3.638,3.638,0,0,0,56,51Z" fill="url(#c)"/>
    <path d="M54.481,52.373l0,0L43.558,41.442,41.5,43.5,52.158,54.158a1.5,1.5,0,1,0,2.323-1.785Z" fill="url(#d)"/>
    <path d="M53.5,55.5a3.146,3.146,0,0,1-2.149-.856L41.207,44.5l-.5.5L51.351,55.644A3.146,3.146,0,0,0,53.5,56.5a3,3,0,0,0,3-3,2.971,2.971,0,0,0-.05-.506A3,3,0,0,1,53.5,55.5Z" opacity="0.3"/>
    <path d="M45,41.707,55.644,52.351a3.107,3.107,0,0,1,.806,1.643,2.986,2.986,0,0,0,.05-.494,3.148,3.148,0,0,0-.856-2.149L45,40.707,40.707,45l.5.5Z" fill="#fff" opacity="0.3"/>
    <path d="M56,51c0-.021.012.012,0,0L45,40l-5,5L51,56c.011.012-.021,0,0,0a3.638,3.638,0,0,0,2.5,1A3.5,3.5,0,0,0,57,53.5,3.638,3.638,0,0,0,56,51Z" fill="none" stroke="#053755" stroke-linejoin="round"/>
  </g>
</svg>
