<svg xmlns="http://www.w3.org/2000/svg" xmlns:xlink="http://www.w3.org/1999/xlink" width="64" height="64" viewBox="0 0 64 64">
  <defs>
    <linearGradient id="a" x1="50.759" y1="40.264" x2="37.956" y2="41.658" gradientUnits="userSpaceOnUse">
      <stop offset="0" stop-color="#333"/>
      <stop offset="0.313" stop-color="#fff"/>
      <stop offset="0.472" stop-color="#fdfdfd"/>
      <stop offset="0.565" stop-color="#f4f4f4"/>
      <stop offset="0.642" stop-color="#e6e6e6"/>
      <stop offset="0.71" stop-color="#d2d2d2"/>
      <stop offset="0.772" stop-color="#b8b8b8"/>
      <stop offset="0.829" stop-color="#989898"/>
      <stop offset="0.883" stop-color="#717171"/>
      <stop offset="0.935" stop-color="#454545"/>
      <stop offset="0.982" stop-color="#141414"/>
      <stop offset="1"/>
    </linearGradient>
    <linearGradient id="b" x1="16.471" y1="9.165" x2="40.529" y2="50.835" gradientUnits="userSpaceOnUse">
      <stop offset="0" stop-color="#fff"/>
      <stop offset="1" stop-color="#d2d2d2"/>
    </linearGradient>
    <linearGradient id="c" x1="15.098" y1="9.954" x2="35.787" y2="45.788" xlink:href="#b"/>
    <linearGradient id="d" x1="13.557" y1="10.822" x2="31.184" y2="41.353" xlink:href="#b"/>
    <mask id="e" x="8" y="6.646" width="29" height="47.234" maskUnits="userSpaceOnUse">
      <path d="M36.231,6.841a1.456,1.456,0,0,0-1.488.019c-7.986,4.835-15.313,6.9-25.291,7.119A1.5,1.5,0,0,0,8,15.473V44.479a1.476,1.476,0,0,0,.449,1.065,1.593,1.593,0,0,0,1.105.432c10.532-.25,18.037-2.576,26.768-8.293A1.522,1.522,0,0,0,37,36.424V8.152A1.487,1.487,0,0,0,36.231,6.841Z" fill="#fff"/>
    </mask>
    <linearGradient id="f" x1="19.214" y1="26.809" x2="23.836" y2="37.778" gradientUnits="userSpaceOnUse">
      <stop offset="0"/>
      <stop offset="1" stop-opacity="0"/>
    </linearGradient>
    <radialGradient id="g" cx="19" cy="28.188" r="7.871" gradientTransform="matrix(-0.022, -1, 0.834, -0.018, -4.094, 47.69)" xlink:href="#f"/>
    <linearGradient id="h" x1="15.971" y1="20.602" x2="22.542" y2="31.983" gradientUnits="userSpaceOnUse">
      <stop offset="0" stop-color="#3387af"/>
      <stop offset="1" stop-color="#285a78"/>
    </linearGradient>
    <linearGradient id="i" x1="32.847" y1="29.756" x2="48.3" y2="56.522" gradientUnits="userSpaceOnUse">
      <stop offset="0" stop-color="#8dd7f4"/>
      <stop offset="1" stop-color="#386e8c"/>
    </linearGradient>
    <radialGradient id="j" cx="40.188" cy="31.521" fx="56.59536549894628" r="20.599" gradientTransform="matrix(-0.257, 0.966, -1.455, -0.387, 96.364, 4.868)" gradientUnits="userSpaceOnUse">
      <stop offset="0" stop-opacity="0"/>
      <stop offset="0.968" stop-opacity="0.933"/>
      <stop offset="1"/>
    </radialGradient>
    <mask id="k" x="36" y="36" width="18" height="10" maskUnits="userSpaceOnUse">
      <polygon points="54 37 54 42 39 46 36 39 49 36 54 37" fill="url(#a)"/>
    </mask>
    <linearGradient id="l" x1="44.973" y1="37.899" x2="46.452" y2="43.35" gradientUnits="userSpaceOnUse">
      <stop offset="0.018" stop-color="#fff" stop-opacity="0"/>
      <stop offset="0.032" stop-color="#fff" stop-opacity="0.148"/>
      <stop offset="0.052" stop-color="#fff" stop-opacity="0.345"/>
      <stop offset="0.074" stop-color="#fff" stop-opacity="0.521"/>
      <stop offset="0.096" stop-color="#fff" stop-opacity="0.669"/>
      <stop offset="0.119" stop-color="#fff" stop-opacity="0.789"/>
      <stop offset="0.143" stop-color="#fff" stop-opacity="0.882"/>
      <stop offset="0.168" stop-color="#fff" stop-opacity="0.948"/>
      <stop offset="0.196" stop-color="#fff" stop-opacity="0.988"/>
      <stop offset="0.23" stop-color="#fff"/>
      <stop offset="0.396" stop-color="#fff" stop-opacity="0.763"/>
      <stop offset="0.695" stop-color="#fff" stop-opacity="0.356"/>
      <stop offset="0.903" stop-color="#fff" stop-opacity="0.1"/>
      <stop offset="1" stop-color="#fff" stop-opacity="0"/>
    </linearGradient>
  </defs>
  <title>37043_3DStory_AP_AppIcon_r21x</title>
  <g>
    <g>
      <rect x="7.5" y="13.5" width="42" height="33" rx="2" stroke="#787979" stroke-linejoin="round" fill="url(#b)"/>
      <path d="M47.5,14H9.5a1.5,1.5,0,0,0-1.43,1.07A1.494,1.494,0,0,1,8.5,15h38A1.5,1.5,0,0,1,48,16.5v29a1.494,1.494,0,0,1-.07.43A1.5,1.5,0,0,0,49,44.5v-29A1.5,1.5,0,0,0,47.5,14Z" fill="#fff"/>
    </g>
    <g>
      <path d="M42.278,42.019c-8.541,3.457-19.36,4.394-32.766,4.475a2,2,0,0,1-2.012-2V15.489a2,2,0,0,1,2-2c12.656-.075,23.007-.913,31.312-3.913A1.994,1.994,0,0,1,43.5,11.447V40.174A1.981,1.981,0,0,1,42.278,42.019Z" stroke="#787979" stroke-linejoin="round" fill="url(#c)"/>
      <path d="M42.371,10.231a1.5,1.5,0,0,0-.861-.274,1.565,1.565,0,0,0-.531.094c-7.41,2.677-16.824,3.855-31.479,3.943a1.509,1.509,0,0,0-1.431,1.073,1.5,1.5,0,0,1,.431-.073c14.655-.088,24.069-1.266,31.479-3.943a1.565,1.565,0,0,1,.531-.094,1.5,1.5,0,0,1,.861.274A1.466,1.466,0,0,1,42,12.447V41.175a1.545,1.545,0,0,1-.064.437c.051-.02.1-.037.154-.057a1.471,1.471,0,0,0,.91-1.38V11.447A1.466,1.466,0,0,0,42.371,10.231Z" fill="#fff"/>
    </g>
    <g>
      <path d="M36.6,38.1c-8.964,5.871-16.5,8.125-27.031,8.376a2.005,2.005,0,0,1-2.066-2V15.473a1.991,1.991,0,0,1,1.94-1.994c9.758-.217,16.941-2.141,25.044-7.046A2,2,0,0,1,37.5,8.152V36.424A2.008,2.008,0,0,1,36.6,38.1Z" stroke="#787979" stroke-linejoin="round" fill="url(#d)"/>
      <path d="M36.231,6.841a1.456,1.456,0,0,0-1.488.019c-7.986,4.835-15.313,6.9-25.292,7.119A1.491,1.491,0,0,0,8.07,15.045a1.47,1.47,0,0,1,.381-.066C18.43,14.757,25.757,12.7,33.743,7.86a1.456,1.456,0,0,1,1.488-.019A1.487,1.487,0,0,1,36,9.152V37.424a1.484,1.484,0,0,1-.112.535c.146-.094.289-.181.435-.276A1.524,1.524,0,0,0,37,36.424V8.152A1.487,1.487,0,0,0,36.231,6.841Z" fill="#fff"/>
    </g>
    <g>
      <g mask="url(#e)">
        <g opacity="0.2">
          <path d="M35,46.88a.614.614,0,0,1-.37.58L22,53.8a.8.8,0,0,1-.33.08.663.663,0,0,1-.64-.48l-.02-.07L15.06,34.48l-.03-.08a.582.582,0,0,1-.03-.19V21.55a.67.67,0,0,1,.67-.67.8.8,0,0,1,.33.08L28.63,27.3a.614.614,0,0,1,.37.58l5.97,18.79v.01A.693.693,0,0,1,35,46.88Z" fill="url(#f)"/>
        </g>
      </g>
      <circle cx="21" cy="28.5" r="11.5" opacity="0.8" fill="url(#g)"/>
      <path d="M15.667,34.879A.667.667,0,0,1,15,34.212V21.546a.668.668,0,0,1,.667-.667.734.734,0,0,1,.333.084L28.633,27.3a.647.647,0,0,1,0,1.167L16,34.8A.745.745,0,0,1,15.667,34.879Z" fill="url(#h)"/>
      <g opacity="0.15">
        <path d="M28.728,27.379c-.035.026-.052.064-.1.084L16,33.8a.745.745,0,0,1-.333.083A.667.667,0,0,1,15,33.212v1a.667.667,0,0,0,.667.667A.745.745,0,0,0,16,34.8l12.633-6.333a.624.624,0,0,0,.1-1.084Z"/>
      </g>
      <g opacity="0.3">
        <path d="M15.667,21.879a.734.734,0,0,1,.333.084L28.633,28.3c.042.019.06.058.1.083a.623.623,0,0,0-.1-1.083L16,20.963a.734.734,0,0,0-.333-.084.668.668,0,0,0-.667.667v1A.668.668,0,0,1,15.667,21.879Z" fill="#fff"/>
      </g>
    </g>
    <path d="M47.5,13.5h-4V11.447a1.994,1.994,0,0,0-2.691-1.866c-1.068.386-2.173.733-3.309,1.05V8.152a2,2,0,0,0-3.016-1.719c-8.1,4.9-15.286,6.829-25.044,7.046A1.991,1.991,0,0,0,7.5,15.473V15.5h0v29a2,2,0,0,0,2,2h38a2,2,0,0,0,2-2v-29A2,2,0,0,0,47.5,13.5Z" fill="none" stroke="#323232" stroke-linejoin="round"/>
  </g>
  <g>
    <path d="M56.5,49.173a4.626,4.626,0,0,1-2.437,4.02L48.8,55.981a4.387,4.387,0,0,1-2.084.519,6.827,6.827,0,0,1-2.6-.616L31.071,50.956A2.212,2.212,0,0,1,29.5,48.784a2.248,2.248,0,0,1,2.245-2.269,6.718,6.718,0,0,1,1.138.276c1.349.393,2.49.742,4.762,1.475L30.173,33.839a2.382,2.382,0,0,1-.256-1.07,2.236,2.236,0,0,1,4.233-1.037l4.072,7.878c.268-.076,10.491-2.936,10.55-2.95a4.793,4.793,0,0,1,.834-.13,3.2,3.2,0,0,1,2.982,2.01l3.559,8.915A4.584,4.584,0,0,1,56.5,49.173Z" fill="#fff" stroke="#fff" stroke-linejoin="round" stroke-width="3" opacity="0.5"/>
    <path d="M56.5,49.173a4.626,4.626,0,0,1-2.437,4.02L48.8,55.981a4.387,4.387,0,0,1-2.084.519,6.827,6.827,0,0,1-2.6-.616L31.071,50.956A2.212,2.212,0,0,1,29.5,48.784a2.248,2.248,0,0,1,2.245-2.269,6.718,6.718,0,0,1,1.138.276c1.349.393,2.49.742,4.762,1.475L30.173,33.839a2.382,2.382,0,0,1-.256-1.07,2.236,2.236,0,0,1,4.233-1.037l4.072,7.878c.268-.076,10.491-2.936,10.55-2.95a4.793,4.793,0,0,1,.834-.13,3.2,3.2,0,0,1,2.982,2.01l3.559,8.915A4.584,4.584,0,0,1,56.5,49.173Z" fill="url(#i)"/>
    <path d="M56.5,49.173a4.626,4.626,0,0,1-2.437,4.02L48.8,55.981a4.387,4.387,0,0,1-2.084.519,6.827,6.827,0,0,1-2.6-.616L31.071,50.956A2.212,2.212,0,0,1,29.5,48.784a2.248,2.248,0,0,1,2.245-2.269,6.718,6.718,0,0,1,1.138.276c1.349.393,2.49.742,4.762,1.475L30.173,33.839a2.382,2.382,0,0,1-.256-1.07,2.236,2.236,0,0,1,4.233-1.037l4.072,7.878c.268-.076,10.491-2.936,10.55-2.95a4.793,4.793,0,0,1,.834-.13,3.2,3.2,0,0,1,2.982,2.01l3.559,8.915A4.584,4.584,0,0,1,56.5,49.173Z" opacity="0.3" fill="url(#j)"/>
    <g opacity="0.3">
      <path d="M32.161,32a1.773,1.773,0,0,1,1.544.961l4.072,7.878a.5.5,0,0,0,.581.252c.35-.1,10.4-2.91,10.528-2.945a4.523,4.523,0,0,1,.719-.116,2.716,2.716,0,0,1,2.519,1.7l3.56,8.916a4.313,4.313,0,0,1,.271,1.106A3.79,3.79,0,0,0,56,49.173a4.114,4.114,0,0,0-.316-1.531l-3.56-8.916a2.716,2.716,0,0,0-2.519-1.7,4.523,4.523,0,0,0-.719.116c-.128.035-10.178,2.845-10.528,2.945a.5.5,0,0,1-.581-.252l-4.072-7.878A1.773,1.773,0,0,0,32.161,31a1.739,1.739,0,0,0-1.744,1.769,1.8,1.8,0,0,0,.077.5A1.72,1.72,0,0,1,32.161,32Z" fill="#fff"/>
      <path d="M31.735,48.015a7.256,7.256,0,0,1,1.008.256c1.269.37,2.4.712,4.748,1.47a.5.5,0,0,0,.6-.7l-.19-.366a.477.477,0,0,1-.408.071c-2.346-.758-3.479-1.1-4.748-1.47a7.256,7.256,0,0,0-1.008-.256A1.737,1.737,0,0,0,30,48.784a1.946,1.946,0,0,0,.074.507A1.718,1.718,0,0,1,31.735,48.015Z" fill="#fff"/>
    </g>
    <g mask="url(#k)">
      <polygon points="54 37 54 42 39 46 36 39 49 36 54 37" opacity="0.4" fill="url(#l)"/>
    </g>
    <path d="M56.5,49.173a4.626,4.626,0,0,1-2.437,4.02L48.8,55.981a4.387,4.387,0,0,1-2.084.519,6.827,6.827,0,0,1-2.6-.616L31.071,50.956A2.212,2.212,0,0,1,29.5,48.784a2.248,2.248,0,0,1,2.245-2.269,6.718,6.718,0,0,1,1.138.276c1.349.393,2.49.742,4.762,1.475L30.173,33.839a2.382,2.382,0,0,1-.256-1.07,2.236,2.236,0,0,1,4.233-1.037l4.072,7.878c.268-.076,10.491-2.936,10.55-2.95a4.793,4.793,0,0,1,.834-.13,3.2,3.2,0,0,1,2.982,2.01l3.559,8.915A4.584,4.584,0,0,1,56.5,49.173Z" fill="none" stroke="#053755" stroke-linejoin="round"/>
  </g>
</svg>
