<svg id="Layer_4" data-name="Layer 4" xmlns="http://www.w3.org/2000/svg" xmlns:xlink="http://www.w3.org/1999/xlink" viewBox="0 0 64 64"><defs><linearGradient id="linear-gradient" x1="10.08" y1="56.66" x2="54.03" y2="22.5" gradientUnits="userSpaceOnUse"><stop offset="0.36"/><stop offset="0.38" stop-color="#111"/><stop offset="0.42" stop-color="#424242"/><stop offset="0.47" stop-color="#6f6f6f"/><stop offset="0.52" stop-color="#969696"/><stop offset="0.58" stop-color="#b7b7b7"/><stop offset="0.64" stop-color="#d1d1d1"/><stop offset="0.7" stop-color="#e6e6e6"/><stop offset="0.77" stop-color="#f4f4f4"/><stop offset="0.86" stop-color="#fcfcfc"/><stop offset="1" stop-color="#fff"/></linearGradient><linearGradient id="linear-gradient-2" x1="36.79" y1="24.82" x2="31.26" y2="15.25" gradientTransform="translate(0 0.71)" gradientUnits="userSpaceOnUse"><stop offset="0" stop-color="#2a5b79"/><stop offset="1" stop-color="#84bedc"/></linearGradient><linearGradient id="linear-gradient-3" x1="20.36" y1="19.13" x2="35.34" y2="45.07" gradientUnits="userSpaceOnUse"><stop offset="0" stop-color="#f5f6f6"/><stop offset="0.99" stop-color="#d2d3d3"/></linearGradient><linearGradient id="linear-gradient-4" x1="20.53" y1="19.42" x2="35.04" y2="44.55" gradientUnits="userSpaceOnUse"><stop offset="0" stop-color="#ababab"/><stop offset="0.18" stop-color="#a3a3a3"/><stop offset="0.46" stop-color="#8d8d8d"/><stop offset="0.8" stop-color="#696969"/><stop offset="0.92" stop-color="#5b5b5b"/></linearGradient><linearGradient id="linear-gradient-5" x1="24.38" y1="26.09" x2="30.9" y2="37.39" gradientUnits="userSpaceOnUse"><stop offset="0" stop-color="#f5f6f6"/><stop offset="0.99" stop-color="#bfbebe"/></linearGradient><mask id="mask" x="15.25" y="12.62" width="39.75" height="41.66" maskUnits="userSpaceOnUse"><path d="M53.44,20.93l-7.28-8-.18-.2-.73.69.16.17c3.63,4.24-1.47,15.33-11.53,25C28.12,44,21.74,48.06,16.39,49.58l-1.14.33,1,.59a28.24,28.24,0,0,0,14.06,3.72,30.66,30.66,0,0,0,3.44-.2l.12,0,.1-.06a61.22,61.22,0,0,0,8-6.49A50.28,50.28,0,0,0,53.28,32.27C55.52,27.2,55.57,23.17,53.44,20.93Z" fill="url(#linear-gradient)"/></mask><linearGradient id="linear-gradient-6" x1="41.67" y1="47.5" x2="29.46" y2="26.34" gradientUnits="userSpaceOnUse"><stop offset="0" stop-color="#74c4e2"/><stop offset="1" stop-color="#a4def6"/></linearGradient><linearGradient id="linear-gradient-7" x1="35.11" y1="28.8" x2="49.54" y2="28.8" gradientUnits="userSpaceOnUse"><stop offset="0.01" stop-color="#d2d3d3" stop-opacity="0"/><stop offset="0.08" stop-color="#97a7b0" stop-opacity="0.28"/><stop offset="0.17" stop-color="#607e8e" stop-opacity="0.54"/><stop offset="0.27" stop-color="#355e75" stop-opacity="0.75"/><stop offset="0.4" stop-color="#164862" stop-opacity="0.89"/><stop offset="0.57" stop-color="#053b58" stop-opacity="0.98"/><stop offset="1" stop-color="#003755"/></linearGradient><linearGradient id="linear-gradient-8" x1="40" y1="33.96" x2="54.41" y2="33.96" xlink:href="#linear-gradient-7"/></defs><title>I_IRS_RenderStudio-appicon</title><path d="M45.62,13.12c-4.12-4.31-15.89.27-26.3,10.22l7.45,8.22C33.61,25,41,20.8,46.5,19.9,46.5,19.9,48.06,15.34,45.62,13.12Z" fill="url(#linear-gradient-2)"/><path d="M45.62,13.12c-4.12-4.31-15.89.27-26.3,10.22l7.45,8.22C33.61,25,41,20.8,46.5,19.9,46.5,19.9,48.06,15.34,45.62,13.12Z" fill="none" stroke="#003755" stroke-linecap="round" stroke-linejoin="round"/><path d="M45.62,13.12c-4.12-4.31-15.89.27-26.3,10.22l7.45,8.22C33.61,25,41,20.8,46.5,19.9,46.5,19.9,48.06,15.34,45.62,13.12Z" fill="none" stroke="#053755" stroke-linecap="round" stroke-linejoin="round"/><circle cx="27.5" cy="31.5" r="18" stroke="#333332" stroke-linecap="round" stroke-linejoin="round" fill="url(#linear-gradient-3)"/><circle cx="27.5" cy="31.5" r="15" stroke="#333332" stroke-linecap="round" stroke-linejoin="round" fill="url(#linear-gradient-4)"/><circle cx="27.5" cy="31.5" r="15" fill="none" stroke="#333332" stroke-linecap="round" stroke-linejoin="round"/><polygon points="19.5 31.5 23.5 24.5 31.5 24.5 35.5 31.5 31.5 38.5 23.5 38.5 19.5 31.5" stroke="#797979" stroke-linecap="round" stroke-linejoin="round" fill="url(#linear-gradient-5)"/><path d="M32.36,38l7.2-12.52c-.17-.35-.36-.69-.56-1l-3.48,6.05-7-12.46c-.36,0-.71-.05-1.07-.05h-.1l3.34,6H16.28c-.21.32-.42.66-.61,1h7l-3.57,6.25-3.61,6.32a10,10,0,0,0,.57,1l3.47-6.07,7,12.44c.33,0,.66,0,1,0h.18l-3.37-6H38.72c.21-.32.42-.66.61-1Zm-1.15,0H23.79l-3.71-6.5L23.79,25h7.42l3.71,6.5Z" fill="#323232"/><g mask="url(#mask)"><path d="M53.07,21.33l-7.45-8.21c4.12,4.31-1,15.87-11.39,25.82-6,5.77-12.51,9.71-17.7,11.19a27.79,27.79,0,0,0,17.19,3.45,58.91,58.91,0,0,0,8-6.43C52.09,37.2,57.19,25.64,53.07,21.33Z" stroke="#053755" stroke-linecap="round" stroke-linejoin="round" fill="url(#linear-gradient-6)"/></g><line x1="49" y1="21.5" x2="53" y2="25.5" fill="none" stroke="#003755" stroke-linecap="square" stroke-linejoin="round"/><line x1="46.5" y1="27.5" x2="50.5" y2="31.5" fill="none" stroke="#003755" stroke-linecap="square" stroke-linejoin="round"/><line x1="42" y1="34.5" x2="46" y2="38.5" fill="none" stroke="#003755" stroke-linecap="square" stroke-linejoin="round"/><path d="M49,17.21a18.71,18.71,0,0,1-1.84,7.51C45,29.83,40.83,35.39,35.61,40.38" fill="none" stroke-linecap="round" stroke-linejoin="round" stroke="url(#linear-gradient-7)"/><path d="M53.91,22.71c-.33,6.15-5.19,14.64-13.41,22.5" fill="none" stroke-linecap="round" stroke-linejoin="round" stroke="url(#linear-gradient-8)"/><line x1="40.5" y1="45.21" x2="35.61" y2="40.38" fill="none" stroke="#003755" stroke-linecap="round" stroke-linejoin="round" opacity="0.18"/></svg>