<svg id="Layer_3" data-name="Layer 3" xmlns="http://www.w3.org/2000/svg" xmlns:xlink="http://www.w3.org/1999/xlink" viewBox="0 0 64 64"><defs><linearGradient id="linear-gradient" x1="13.89" y1="4.06" x2="27.75" y2="28.06" gradientUnits="userSpaceOnUse"><stop offset="0" stop-color="#f5f6f6"/><stop offset="0.99" stop-color="#d2d3d3"/></linearGradient><linearGradient id="linear-gradient-2" x1="28.58" y1="29.5" x2="12.42" y2="1.51" gradientTransform="translate(5 36) rotate(-90)" gradientUnits="userSpaceOnUse"><stop offset="0" stop-color="#2a5b79"/><stop offset="1" stop-color="#3388b0"/></linearGradient><linearGradient id="linear-gradient-3" x1="36.89" y1="15.06" x2="50.75" y2="39.06" xlink:href="#linear-gradient"/><linearGradient id="linear-gradient-4" x1="51.58" y1="40.5" x2="35.42" y2="12.51" gradientTransform="translate(17 70) rotate(-90)" xlink:href="#linear-gradient-2"/><linearGradient id="linear-gradient-5" x1="23" y1="20.57" x2="15.82" y2="8.12" gradientUnits="userSpaceOnUse"><stop offset="0" stop-color="#386f8d"/><stop offset="1" stop-color="#8dd7f4"/></linearGradient><linearGradient id="linear-gradient-7" x1="47.53" y1="40.61" x2="39.71" y2="27.07" xlink:href="#linear-gradient-5"/><linearGradient id="linear-gradient-8" x1="18.2" y1="26.63" x2="29.85" y2="46.81" gradientTransform="translate(36.84 -5.45) rotate(45)" xlink:href="#linear-gradient"/><linearGradient id="linear-gradient-9" x1="27.49" y1="65.7" x2="19.83" y2="52.42" gradientTransform="translate(36.84 -5.45) rotate(45)" xlink:href="#linear-gradient-5"/></defs><rect x="6.5" y="3.5" width="28" height="24" rx="2" style="stroke:#333332;stroke-linecap:round;stroke-linejoin:round;fill:url(#linear-gradient)"/><rect x="9.5" y="2.5" width="22" height="26" rx="1" transform="translate(36 -5) rotate(90)" style="fill:none;stroke-miterlimit:10;stroke:url(#linear-gradient-2)"/><rect x="29.5" y="14.5" width="28" height="24" rx="2" style="stroke:#333332;stroke-linecap:round;stroke-linejoin:round;fill:url(#linear-gradient-3)"/><rect x="32.5" y="13.5" width="22" height="26" rx="1" transform="translate(70 -17) rotate(90)" style="fill:none;stroke-miterlimit:10;stroke:url(#linear-gradient-4)"/><path d="M16.5,10.32V20.68a1,1,0,0,0,1.54.84l8.13-5.18a1,1,0,0,0,0-1.68L18,9.48A1,1,0,0,0,16.5,10.32Z" style="stroke:#053755;stroke-linecap:round;stroke-linejoin:round;fill:url(#linear-gradient-5)"/><circle cx="36.5" cy="21.5" r="3" style="stroke:#053755;stroke-linecap:round;stroke-linejoin:round;fill:url(#linear-gradient-5)"/><polygon points="33.5 34.5 44.5 26.5 47 29.5 49.5 27.5 54.5 34.5 33.5 34.5" style="stroke:#053755;stroke-linecap:round;stroke-linejoin:round;fill:url(#linear-gradient-7)"/><circle cx="28.01" cy="36.98" r="14" style="fill:url(#linear-gradient-8)"/><path d="M13.86,47.58l-6.8,5.67a2,2,0,0,0-.13,3l1.85,1.86a2,2,0,0,0,3-.14l5.67-6.8Z" style="stroke:#053755;stroke-linecap:round;stroke-linejoin:round;fill:url(#linear-gradient-9)"/><path d="M38.61,26.37A15,15,0,0,0,15.49,45.25l-2.33,2.33,4.24,4.25,2.34-2.34A15,15,0,0,0,38.61,26.37ZM17.34,43.28a9.1,9.1,0,0,1,1.3-.12l3.18,3.19a9.38,9.38,0,0,1-.12,1.3Zm2.77-.06c.48,0,1,.1,1.49.17.06.51.12,1,.16,1.49Zm3.09-4,2.55,2.55c-.75,0-1.52-.12-2.33-.23C23.32,40.76,23.23,40,23.2,39.24Zm1.15-4.51a6.43,6.43,0,0,1,1.41-1.41l5.91,5.9A5.7,5.7,0,0,1,31,40a6.59,6.59,0,0,1-.77.66Zm2.78,7-3.9-3.91a6,6,0,0,1,.58-2.24l5.56,5.56A6.25,6.25,0,0,1,27.13,41.76Zm-.49-9a6.25,6.25,0,0,1,2.24-.59l3.91,3.92a6.25,6.25,0,0,1-.59,2.23Zm3.62-.62c.75,0,1.53.12,2.33.23.11.81.2,1.58.23,2.33Zm4-3.08,1.64,1.65c-.48-.05-1-.1-1.48-.17C34.35,30.06,34.3,29.57,34.26,29.08Zm3.11,1.71L34.2,27.61a8,8,0,0,1,.11-1.3l4.36,4.36A9.1,9.1,0,0,1,37.37,30.79Zm-18.56-3a13,13,0,0,1,13.92-2.9,11.75,11.75,0,0,0-.41,5.41c-2.83-.32-5.86-.25-8.55,2.44S21,38.46,21.32,41.29a11.81,11.81,0,0,0-5.42.41A13,13,0,0,1,18.81,27.78Zm4.47,21.3a12,12,0,0,0,.42-5.42c2.82.31,5.86.25,8.55-2.44S35,35.49,34.7,32.66a11.77,11.77,0,0,0,5.41-.41A13,13,0,0,1,23.28,49.08Z" style="fill:#333332"/></svg>