<?xml version="1.0" encoding="UTF-8" standalone="no"?>
<svg
   xmlns:dc="http://purl.org/dc/elements/1.1/"
   xmlns:cc="http://creativecommons.org/ns#"
   xmlns:rdf="http://www.w3.org/1999/02/22-rdf-syntax-ns#"
   xmlns:svg="http://www.w3.org/2000/svg"
   xmlns="http://www.w3.org/2000/svg"
   xmlns:xlink="http://www.w3.org/1999/xlink"
   xmlns:sodipodi="http://sodipodi.sourceforge.net/DTD/sodipodi-0.dtd"
   xmlns:inkscape="http://www.inkscape.org/namespaces/inkscape"
   id="Layer_37"
   data-name="Layer 37"
   viewBox="0 0 64 64"
   version="1.1"
   sodipodi:docname="XCTSEMM_AP_AppIcon.svg"
   inkscape:version="1.0.2 (e86c870879, 2021-01-15, custom)"
   inkscape:export-filename="E:\WS\XCTNGPACK423_N9H\XCTSEMM_AP.prd\CNext\resources\AppDescription\XCTSEMM_AP_AppIcon@2x.png"
   inkscape:export-xdpi="192"
   inkscape:export-ydpi="192">
  <metadata
     id="metadata244">
    <rdf:RDF>
      <cc:Work
         rdf:about="">
        <dc:format>image/svg+xml</dc:format>
        <dc:type
           rdf:resource="http://purl.org/dc/dcmitype/StillImage" />
        <dc:title>1910_A33AAe__R21XArtboard 1</dc:title>
      </cc:Work>
    </rdf:RDF>
  </metadata>
  <sodipodi:namedview
     pagecolor="#ffffff"
     bordercolor="#666666"
     borderopacity="1"
     objecttolerance="10"
     gridtolerance="10"
     guidetolerance="10"
     inkscape:pageopacity="0"
     inkscape:pageshadow="2"
     inkscape:window-width="2727"
     inkscape:window-height="1534"
     id="namedview242"
     showgrid="false"
     inkscape:zoom="15.75"
     inkscape:cx="32"
     inkscape:cy="32"
     inkscape:window-x="0"
     inkscape:window-y="0"
     inkscape:window-maximized="0"
     inkscape:current-layer="Layer_37" />
  <defs
     id="defs79">
    <marker
       style="overflow:visible;"
       id="Arrow2Send"
       refX="0.0"
       refY="0.0"
       orient="auto"
       inkscape:stockid="Arrow2Send"
       inkscape:isstock="true">
      <path
         transform="scale(0.3) rotate(180) translate(-2.3,0)"
         d="M 8.7185878,4.0337352 L -2.2072895,0.016013256 L 8.7185884,-4.0017078 C 6.9730900,-1.6296469 6.9831476,1.6157441 8.7185878,4.0337352 z "
         style="fill-rule:evenodd;stroke-width:0.625;stroke-linejoin:round;stroke:#000000;stroke-opacity:1;fill:#000000;fill-opacity:1"
         id="path1429" />
    </marker>
    <marker
       style="overflow:visible;"
       id="Arrow1Lend"
       refX="0.0"
       refY="0.0"
       orient="auto"
       inkscape:stockid="Arrow1Lend"
       inkscape:isstock="true">
      <path
         transform="scale(0.8) rotate(180) translate(12.5,0)"
         style="fill-rule:evenodd;stroke:#000000;stroke-width:1pt;stroke-opacity:1;fill:#000000;fill-opacity:1"
         d="M 0.0,0.0 L 5.0,-5.0 L -12.5,0.0 L 5.0,5.0 L 0.0,0.0 z "
         id="path1399" />
    </marker>
    <marker
       style="overflow:visible"
       id="Arrow1Lstart"
       refX="0.0"
       refY="0.0"
       orient="auto"
       inkscape:stockid="Arrow1Lstart"
       inkscape:isstock="true">
      <path
         transform="scale(0.8) translate(12.5,0)"
         style="fill-rule:evenodd;stroke:#000000;stroke-width:1pt;stroke-opacity:1;fill:#000000;fill-opacity:1"
         d="M 0.0,0.0 L 5.0,-5.0 L -12.5,0.0 L 5.0,5.0 L 0.0,0.0 z "
         id="path1396" />
    </marker>
    <linearGradient
       id="linearGradient1353"
       x1="5.11"
       y1="17.23"
       x2="22.78"
       y2="17.23"
       gradientUnits="userSpaceOnUse">
      <stop
         offset="0"
         stop-color="#82bedc"
         id="stop1349" />
      <stop
         offset="1"
         stop-color="#285a78"
         id="stop1351"
         style="stop-opacity:0" />
    </linearGradient>
    <style
       id="style2">.cls-1,.cls-18,.cls-3,.cls-34,.cls-35,.cls-4,.cls-42,.cls-43,.cls-45,.cls-5{fill:none;}.cls-1,.cls-11,.cls-18,.cls-2,.cls-21,.cls-22,.cls-3,.cls-31,.cls-32,.cls-33,.cls-34,.cls-35,.cls-38,.cls-39,.cls-40,.cls-41,.cls-42,.cls-43,.cls-45,.cls-5{stroke-miterlimit:10;}.cls-1{stroke-width:0.75px;stroke:url(#Dark_BLUE_gradient_LEFT);}.cls-2,.cls-7{fill:#fff;}.cls-18,.cls-2{stroke-width:0.5px;stroke:url(#Dark_BLUE_gradient_LEFT-2);}.cls-2{clip-path:url(#clip-path);}.cls-3,.cls-38,.cls-39,.cls-40,.cls-41{stroke:#323232;}.cls-43,.cls-5{stroke:#003755;}.cls-6{fill:#003755;}.cls-8{fill:url(#linear-gradient);}.cls-9{fill:url(#linear-gradient-2);}.cls-10{clip-path:url(#clip-path-2);}.cls-11,.cls-14,.cls-15,.cls-16,.cls-20,.cls-22,.cls-32,.cls-39{fill:#e1e1e1;}.cls-11,.cls-14,.cls-15,.cls-20,.cls-21,.cls-22,.cls-23,.cls-31,.cls-32,.cls-33,.cls-34,.cls-35,.cls-42{stroke:#000;}.cls-12,.cls-21,.cls-33,.cls-40{fill:#f1f0f0;}.cls-13{fill:#787878;}.cls-14,.cls-15,.cls-20,.cls-23,.cls-43,.cls-45{stroke-linecap:round;}.cls-14,.cls-15,.cls-20,.cls-23{stroke-linejoin:round;}.cls-14{stroke-width:0.07px;}.cls-15{stroke-width:0.25px;}.cls-17{clip-path:url(#clip-path-3);}.cls-19{fill:url(#linear-gradient-3);}.DARK-GREY-Fill{fill:url(#linear-gradient-4);}.cls-20,.cls-21,.cls-22,.cls-23{stroke-width:0.18px;}.cls-23,.cls-31{fill:#797979;}.cls-24{fill:url(#linear-gradient-5);}.cls-25{opacity:0.3;}.cls-26{fill:#323232;}.cls-27{fill:url(#linear-gradient-6);}.cls-28{fill:url(#linear-gradient-7);}.cls-29{fill:url(#linear-gradient-8);}.cls-30{fill:url(#linear-gradient-9);}.cls-31,.cls-32,.cls-33,.cls-34{stroke-width:0.06px;}.cls-35{stroke-width:0.51px;}.cls-36{fill:url(#linear-gradient-10);}.cls-37{fill:url(#white_left);}.cls-38,.cls-39,.cls-40,.cls-41{stroke-width:0.05px;}.cls-38{fill:url(#white_left-2);}.cls-41{fill:url(#white_front_right);}.cls-42{stroke-width:0.55px;}.cls-44{clip-path:url(#clip-path-4);}.cls-45{stroke:#5a9ab8;stroke-dasharray:7 6;}</style>
    <linearGradient
       id="Dark_BLUE_gradient_LEFT"
       x1="5.11"
       y1="17.23"
       x2="22.78"
       y2="17.23"
       gradientUnits="userSpaceOnUse">
      <stop
         offset="0"
         stop-color="#82bedc"
         id="stop4" />
      <stop
         offset="1"
         stop-color="#285a78"
         id="stop6" />
    </linearGradient>
    <linearGradient
       id="Dark_BLUE_gradient_LEFT-2"
       x1="5.24"
       y1="17.23"
       x2="22.65"
       y2="17.23"
       xlink:href="#Dark_BLUE_gradient_LEFT" />
    <clipPath
       id="clip-path">
      <circle
         class="cls-1"
         cx="13.95"
         cy="17.23"
         r="8.46"
         id="circle10" />
    </clipPath>
    <linearGradient
       id="linear-gradient"
       x1="16.7"
       y1="19.18"
       x2="37"
       y2="19.18"
       gradientUnits="userSpaceOnUse">
      <stop
         offset="0"
         stop-color="#285a78"
         id="stop13" />
      <stop
         offset="0.03"
         stop-color="#2c5e7c"
         id="stop15" />
      <stop
         offset="0.38"
         stop-color="#5a92b0"
         id="stop17" />
      <stop
         offset="0.64"
         stop-color="#77b2d0"
         id="stop19" />
      <stop
         offset="0.78"
         stop-color="#82bedc"
         id="stop21" />
    </linearGradient>
    <linearGradient
       id="linear-gradient-2"
       x1="21.9"
       y1="18.39"
       y2="18.39"
       xlink:href="#linear-gradient" />
    <clipPath
       id="clip-path-2">
      <circle
         class="cls-2"
         cx="13.95"
         cy="17.23"
         r="8.46"
         clip-path="url(#clip-path)"
         id="circle25" />
    </clipPath>
    <clipPath
       id="clip-path-3">
      <polygon
         id="contour_Ht"
         data-name="contour Ht"
         class="cls-3"
         points="19.42 17.54 16 16.4 12.63 16.56 9.82 17.68 9.14 17.35 10.12 15.54 13.15 14.28 12.55 12.59 17.88 9.91 25.69 9.91 31.63 11.76 32.43 15 27.53 17.48 19.42 17.54" />
    </clipPath>
    <linearGradient
       id="linear-gradient-3"
       x1="42.95"
       y1="59.66"
       x2="56.6"
       y2="59.66"
       gradientTransform="translate(17.25 -30.67) rotate(32.01)"
       gradientUnits="userSpaceOnUse">
      <stop
         offset="0.18"
         stop-color="#bebebe"
         id="stop30" />
      <stop
         offset="0.32"
         stop-color="#f5f5f5"
         id="stop32" />
      <stop
         offset="0.6"
         stop-color="#c6c6c6"
         id="stop34" />
      <stop
         offset="0.8"
         stop-color="#ddd"
         id="stop36" />
      <stop
         offset="0.96"
         stop-color="#a49f9f"
         id="stop38" />
    </linearGradient>
    <linearGradient
       id="linear-gradient-4"
       x1="45.54"
       y1="56.54"
       x2="53.73"
       y2="56.54"
       gradientTransform="translate(85.91 -6.06) rotate(90)"
       gradientUnits="userSpaceOnUse">
      <stop
         offset="0"
         stop-color="#464646"
         id="stop41" />
      <stop
         offset="1"
         stop-color="#141414"
         id="stop43" />
    </linearGradient>
    <linearGradient
       id="linear-gradient-5"
       x1="45"
       y1="56.73"
       x2="54.23"
       y2="56.73"
       xlink:href="#linear-gradient-3" />
    <linearGradient
       id="linear-gradient-6"
       x1="46.25"
       y1="28.53"
       x2="56.05"
       y2="28.53"
       gradientTransform="rotate(34,35.20445,6.7621778)"
       xlink:href="#linear-gradient-3" />
    <linearGradient
       id="linear-gradient-7"
       x1="47.22"
       y1="29.08"
       x2="56.67"
       y2="29.08"
       gradientTransform="matrix(0.83,0.56,-0.56,0.83,8.72,-18.12)"
       xlink:href="#linear-gradient-3" />
    <linearGradient
       id="linear-gradient-8"
       x1="46.82"
       y1="20.27"
       x2="54.17"
       y2="20.27"
       gradientTransform="rotate(33.53,43.396244,27.949787)"
       xlink:href="#linear-gradient-4" />
    <linearGradient
       id="linear-gradient-9"
       x1="34.44"
       y1="28.14"
       x2="46.76"
       y2="28.14"
       gradientTransform="translate(22.66 -19.32) rotate(33.53)"
       gradientUnits="userSpaceOnUse">
      <stop
         offset="0.17"
         stop-color="#bebebe"
         id="stop50" />
      <stop
         offset="0.23"
         stop-color="#f5f5f5"
         id="stop52" />
      <stop
         offset="0.32"
         stop-color="#c6c6c6"
         id="stop54" />
      <stop
         offset="0.59"
         stop-color="#c6c6c6"
         id="stop56" />
      <stop
         offset="0.64"
         stop-color="#c6c6c6"
         id="stop58" />
      <stop
         offset="0.72"
         stop-color="#ddd"
         id="stop60" />
      <stop
         offset="0.96"
         stop-color="#a49f9f"
         id="stop62" />
    </linearGradient>
    <linearGradient
       id="linear-gradient-10"
       x1="31.72"
       y1="12.31"
       x2="50.22"
       y2="12.31"
       gradientTransform="rotate(33,38.030481,23.510184)"
       xlink:href="#linear-gradient-9" />
    <linearGradient
       id="white_left"
       x1="40.6"
       y1="10.76"
       x2="48.77"
       y2="10.76"
       gradientTransform="translate(19.33 -14.85) rotate(33)"
       gradientUnits="userSpaceOnUse">
      <stop
         offset="0"
         stop-color="#f5f5f5"
         id="stop66" />
      <stop
         offset="1"
         stop-color="#bebebe"
         id="stop68" />
    </linearGradient>
    <linearGradient
       id="white_left-2"
       x1="40.6"
       y1="9.75"
       x2="48.77"
       y2="9.75"
       xlink:href="#white_left" />
    <linearGradient
       id="white_front_right"
       x1="30.27"
       y1="10.34"
       x2="40.6"
       y2="10.34"
       gradientTransform="rotate(33,34.73138,25.203493)"
       gradientUnits="userSpaceOnUse">
      <stop
         offset="0"
         stop-color="#fff"
         id="stop72" />
      <stop
         offset="1"
         stop-color="#d2d2d2"
         id="stop74" />
    </linearGradient>
    <clipPath
       id="clip-path-4">
      <path
         id="cadre_64"
         data-name="cadre 64"
         class="cls-4"
         d="M3,66.75V36.94L33,50.75l1-5.5a34.83,34.83,0,0,1-4.4-1.65,34,34,0,0,1-3.89-3.79L3.63,32.52l9.92-4.83L42.5,41l1.7-2.8L15.7,24.37l5.24-8.6L38.1,28.29l5,3.19,5.49,0L22.19,13.84,25.34,9.1,57.75,17,46.07,9H67V66.41Z" />
    </clipPath>
    <linearGradient
       inkscape:collect="always"
       xlink:href="#linear-gradient-3"
       id="linearGradient252"
       gradientUnits="userSpaceOnUse"
       gradientTransform="rotate(32.01,62.086892,14.734046)"
       x1="42.95"
       y1="59.66"
       x2="56.6"
       y2="59.66" />
    <linearGradient
       inkscape:collect="always"
       xlink:href="#linear-gradient-4"
       id="linearGradient254"
       gradientUnits="userSpaceOnUse"
       gradientTransform="rotate(90,45.985,39.925)"
       x1="45.54"
       y1="56.54"
       x2="53.73"
       y2="56.54" />
    <linearGradient
       inkscape:collect="always"
       xlink:href="#linear-gradient-9"
       id="linearGradient256"
       gradientUnits="userSpaceOnUse"
       gradientTransform="rotate(33.53,43.396244,27.949787)"
       x1="34.44"
       y1="28.14"
       x2="46.76"
       y2="28.14" />
    <linearGradient
       inkscape:collect="always"
       xlink:href="#white_left"
       id="linearGradient258"
       gradientUnits="userSpaceOnUse"
       gradientTransform="rotate(33,34.73138,25.203493)"
       x1="40.6"
       y1="10.76"
       x2="48.77"
       y2="10.76" />
    <linearGradient
       inkscape:collect="always"
       xlink:href="#linear-gradient-4"
       id="linearGradient260"
       gradientUnits="userSpaceOnUse"
       gradientTransform="rotate(90,45.985,39.925)"
       x1="45.54"
       y1="56.54"
       x2="53.73"
       y2="56.54" />
    <linearGradient
       inkscape:collect="always"
       xlink:href="#Dark_BLUE_gradient_LEFT"
       id="linearGradient1308"
       x1="35.063496"
       y1="39.904762"
       x2="58.238094"
       y2="39.904762"
       gradientUnits="userSpaceOnUse" />
    <linearGradient
       inkscape:collect="always"
       xlink:href="#Dark_BLUE_gradient_LEFT"
       id="linearGradient1316"
       x1="35.063496"
       y1="53.26984"
       x2="58.238094"
       y2="53.26984"
       gradientUnits="userSpaceOnUse" />
  </defs>
  <title
     id="title81">1910_A33AAe__R21XArtboard 1</title>
  <g
     id="g433"
     transform="translate(-17.587302,-8.0634921)">
    <g
       id="AAAA_copy_7"
       data-name="AAAA copy 7">
      <g
         id="Reserve_EAU_01_copy_19"
         data-name="Reserve EAU   ****01 copy 19">
        <g
           id="CONTOUR_"
           data-name="CONTOUR    ***">
          <path
             class="cls-19"
             d="m 24.45,52.53 -3.56,-3.28 -1.15,-2.86 4.44,-5.24 1.15,-0.42 0.75,-1.15 a 1.71,1.71 0 0 1 1.57,-0.68 7.88,7.88 0 0 1 3.83,1.32 8.75,8.75 0 0 1 2.52,2.29 c 0.63,0.89 0.78,1.7 0.42,2.27 l -0.76,1.22 0.11,1.18 -2.14,6 -2.74,0.83 z"
             id="path146"
             style="fill:url(#linearGradient252)" />
          <path
             d="m 27.65,39.27 a 7.44,7.44 0 0 1 3.63,1.27 c 2.13,1.33 3.4,3.14 2.83,4 -0.08,0.14 -0.83,1.29 -0.83,1.29 l 0.11,1.22 -2,5.7 -2.46,0.74 -4.25,-1.34 -3.47,-3.15 -1,-2.57 4.23,-5 1.14,-0.43 0.82,-1.26 a 1.39,1.39 0 0 1 1.25,-0.51 m 0,-0.75 v 0 a 2.05,2.05 0 0 0 -1.89,0.86 c -0.1,0.17 -0.47,0.73 -0.67,1 l -0.94,0.34 -0.19,0.07 -0.13,0.15 -4.23,5.1 -0.29,0.35 0.16,0.42 1,2.57 0.06,0.15 0.13,0.12 3.43,3.17 0.12,0.11 h 0.16 l 4.26,1.33 0.22,0.07 0.22,-0.07 2.45,-0.73 0.36,-0.11 0.13,-0.36 2.05,-5.7 0.06,-0.16 V 47 l -0.09,-1 c 0.22,-0.35 0.64,-1 0.7,-1.08 0.25,-0.41 0.54,-1.31 -0.43,-2.69 a 9.39,9.39 0 0 0 -2.64,-2.39 8.26,8.26 0 0 0 -4,-1.38 z"
             id="path148" />
        </g>
        <ellipse
           id="top_1-2"
           data-name="top 1"
           class="DARK-GREY-Fill"
           cx="29.370001"
           cy="43.580002"
           rx="1.65"
           ry="4.0900002"
           transform="rotate(-57.99,29.367269,43.576151)"
           style="fill:url(#linearGradient254)" />
        <g
           id="Layer_134_copy_25"
           data-name="Layer 134 copy 25">
          <polygon
             id="n1"
             class="cls-20"
             points="24.89,42.53 24.4,41.47 20.17,46.46 21.2,49.03 24.99,43.97 " />
          <polygon
             id="n2"
             class="cls-21"
             points="26.8,44.97 28.27,46.48 24.64,52.2 21.2,49.03 24.99,43.97 " />
          <polygon
             id="n_3"
             data-name="n 3"
             class="cls-22"
             points="29.96,46.71 28.27,46.48 24.64,52.2 28.89,53.53 31.66,47.71 " />
          <polygon
             id="n_4"
             data-name="n 4"
             class="cls-23"
             points="32.59,47.1 33.39,47.09 31.34,52.79 28.89,53.53 31.66,47.71 " />
        </g>
        <g
           id="col_2"
           data-name="col  2">
          <path
             class="cls-24"
             d="m 32.3,46.14 a 7.7,7.7 0 0 1 -3.75,-1.24 8.32,8.32 0 0 1 -2.4,-2.23 c -0.56,-0.8 -0.74,-1.49 -0.5,-1.88 l 0.43,-0.66 a 2.9,2.9 0 0 0 0.34,1 7.46,7.46 0 0 0 2.79,2.77 7.78,7.78 0 0 0 3.65,1.28 h 0.25 a 4,4 0 0 0 0.77,-0.13 c -0.15,0.24 -0.37,0.57 -0.47,0.72 -0.1,0.15 -0.54,0.37 -1.11,0.37 z"
             id="path157"
             style="fill:url(#linear-gradient-5)" />
          <path
             d="m 26,40.39 a 3.33,3.33 0 0 0 0.3,0.79 7.67,7.67 0 0 0 2.86,2.82 8,8 0 0 0 3.7,1.28 h 0.26 a 3.25,3.25 0 0 0 0.54,-0.07 c -0.12,0.2 -0.26,0.41 -0.33,0.52 -0.07,0.11 -0.51,0.33 -1,0.33 a 7.49,7.49 0 0 1 -3.7,-1.22 8.38,8.38 0 0 1 -2.37,-2.2 c -0.53,-0.76 -0.71,-1.42 -0.5,-1.77 0.07,-0.12 0.19,-0.29 0.3,-0.46 m 0.15,-0.6 z m 0,0 c 0,0 -0.44,0.67 -0.61,1 -0.57,0.9 0.92,3 2.92,4.24 a 7.81,7.81 0 0 0 3.81,1.26 1.39,1.39 0 0 0 1.2,-0.42 c 0.15,-0.26 0.64,-1 0.64,-1 a 2.37,2.37 0 0 1 -1,0.24 h -0.25 a 7.44,7.44 0 0 1 -3.59,-1.26 7.55,7.55 0 0 1 -2.77,-2.73 2.08,2.08 0 0 1 -0.32,-1.3 z"
             id="path159" />
        </g>
      </g>
      <g
         id="FILTER_ok_02_copy_18"
         data-name="FILTER  ok ***02 copy 18">
        <g
           id="part_02_copy_33"
           data-name="part  02 copy 33">
          <path
             class="cls-12"
             d="m 32.11,41.61 a 1.71,1.71 0 0 1 -0.89,-0.31 1.69,1.69 0 0 1 -0.63,-0.72 1,1 0 0 1 0.12,-1 l 2.55,-3.79 a 1.35,1.35 0 0 1 1.88,-0.37 1.35,1.35 0 0 1 0.37,1.88 L 33,41.14 a 1,1 0 0 1 -0.89,0.47 z"
             id="path163" />
          <path
             d="M 34.39,35.48 A 1.07,1.07 0 0 1 35,35.67 1.1,1.1 0 0 1 35.3,37.2 L 32.75,41 a 0.72,0.72 0 0 1 -0.64,0.36 1.38,1.38 0 0 1 -0.75,-0.27 c -0.5,-0.34 -0.79,-0.82 -0.45,-1.33 L 33.47,36 a 1.11,1.11 0 0 1 0.92,-0.48 m 0,-0.5 a 1.61,1.61 0 0 0 -1.34,0.7 l -2.55,3.8 a 1.41,1.41 0 0 0 0.58,2 1.9,1.9 0 0 0 1,0.35 1.25,1.25 0 0 0 1.06,-0.58 l 2.55,-3.8 a 1.61,1.61 0 0 0 -0.44,-2.23 1.56,1.56 0 0 0 -0.89,-0.27 z"
             id="path165" />
          <g
             id="ombre_"
             data-name="ombre  ****"
             class="cls-25">
            <path
               class="cls-26"
               d="m 32.75,39.36 v 0 c -0.5,-0.34 0.71,-0.9 -0.33,-1.84 l 1,-1.56 A 1.11,1.11 0 0 1 35,35.67 v 0 a 1.1,1.1 0 0 1 0.3,1.53 l -1.44,2.14 c -0.34,0.51 -0.6,0.36 -1.11,0.02 z"
               id="path167" />
          </g>
          <g
             id="ombre_2"
             data-name="ombre  ****"
             class="cls-25">
            <path
               class="cls-26"
               d="m 31.26,41 c 0,0 0.66,-1 1.46,-2.18 a 1,1 0 0 0 -0.3,-1.32 l 1,-1.56 A 1.11,1.11 0 0 1 35,35.67 v 0 a 1.1,1.1 0 0 1 0.3,1.53 L 32.76,41 c -0.34,0.5 -0.9,0.46 -1.5,0 z"
               id="path170" />
          </g>
        </g>
        <g
           id="contour_2"
           data-name="contour****">
          <path
             class="cls-27"
             d="m 37.85,38.22 a 6.79,6.79 0 0 1 -3.72,-1.38 c -2.15,-1.45 -2.62,-2.75 -2.78,-3.6 a 0.92,0.92 0 0 1 0.12,-0.74 l 1.32,-2 a 0.35,0.35 0 0 0 0,-0.13 1.43,1.43 0 0 1 0.24,-0.71 1.59,1.59 0 0 1 1.37,-0.54 7.54,7.54 0 0 1 3.88,1.42 9,9 0 0 1 2.51,2.46 c 0.59,0.9 0.71,1.69 0.35,2.23 l -0.07,0.12 a 1.2,1.2 0 0 1 -0.42,0.46 l -1.34,1.9 a 1.17,1.17 0 0 1 -0.71,0.44 3,3 0 0 1 -0.75,0.09 z"
             id="path174"
             style="fill:url(#linear-gradient-6)" />
          <path
             d="m 34.42,29.41 a 7.27,7.27 0 0 1 3.74,1.38 c 2.13,1.44 3.4,3.35 2.77,4.28 -0.12,0.18 -0.21,0.42 -0.45,0.53 l -1.37,1.94 a 0.94,0.94 0 0 1 -0.58,0.35 2.67,2.67 0 0 1 -0.68,0.08 6.58,6.58 0 0 1 -3.58,-1.34 c -2.09,-1.41 -2.52,-2.64 -2.68,-3.44 a 0.69,0.69 0 0 1 0.09,-0.55 l 1.32,-2 c 0.11,-0.17 0,-0.44 0.26,-0.84 a 1.35,1.35 0 0 1 1.16,-0.43 m 0,-0.5 a 1.78,1.78 0 0 0 -1.58,0.65 1.7,1.7 0 0 0 -0.28,0.82 v 0.06 l -1.3,1.92 a 1.22,1.22 0 0 0 -0.16,0.93 c 0.18,0.89 0.66,2.25 2.89,3.75 a 7,7 0 0 0 3.86,1.43 3.39,3.39 0 0 0 0.81,-0.1 1.36,1.36 0 0 0 0.87,-0.56 L 40.82,36 a 1.45,1.45 0 0 0 0.46,-0.53 l 0.07,-0.1 A 2.27,2.27 0 0 0 41,32.87 9.19,9.19 0 0 0 38.44,30.4 a 7.8,7.8 0 0 0 -4,-1.47 z"
             id="path176" />
        </g>
        <g
           id="Layer_133_copy_26"
           data-name="Layer 133 copy 26">
          <path
             class="cls-26"
             d="m 37.79,37.65 a 6.66,6.66 0 0 1 -3.5,-1.39 c -0.76,-0.52 -2.26,-1.87 -2.45,-3.28 l 0.18,-0.25 c 0.12,-0.18 0.27,-0.42 0.3,-0.45 a 3.09,3.09 0 0 1 0.83,-0.11 6.23,6.23 0 0 1 3.34,1.26 c 1.63,1.1 2.5,2.25 2.58,3.43 L 39,37 38.63,37.56 a 3.37,3.37 0 0 1 -0.84,0.09 z"
             id="path179" />
          <path
             class="cls-26"
             d="m 33.15,32.23 a 6.15,6.15 0 0 1 3.3,1.25 c 1.6,1.08 2.46,2.2 2.56,3.34 l -0.2,0.31 -0.24,0.34 A 2.5,2.5 0 0 1 37.79,37.59 6.55,6.55 0 0 1 34.32,36.21 5.78,5.78 0 0 1 31.9,33 l 0.17,-0.26 c 0.1,-0.16 0.23,-0.36 0.28,-0.42 a 2.58,2.58 0 0 1 0.8,-0.11 m 0,-0.12 a 2.59,2.59 0 0 0 -0.86,0.13 c 0,0 -0.35,0.51 -0.51,0.75 a 5.73,5.73 0 0 0 2.48,3.31 6.84,6.84 0 0 0 3.53,1.4 2.7,2.7 0 0 0 0.85,-0.13 l 0.49,-0.72 C 39.08,36.22 38.79,34.9 36.52,33.36 a 6.18,6.18 0 0 0 -3.37,-1.27 z"
             id="path181" />
          <path
             class="cls-28"
             d="m 37.91,38.21 a 6.61,6.61 0 0 1 -3.68,-1.34 c -2.34,-1.57 -2.78,-3 -2.84,-3.73 a 1.06,1.06 0 0 1 0.16,-0.69 l 1,-1.49 a 0.23,0.23 0 0 1 0.2,-0.11 v 0 A 0.22,0.22 0 0 1 33,31 a 6.14,6.14 0 0 0 3,3.3 7.17,7.17 0 0 0 3.79,1.41 1.86,1.86 0 0 0 0.51,-0.06 h 0.07 a 0.25,0.25 0 0 1 0.2,0.1 0.26,0.26 0 0 1 0,0.3 l -1.13,1.6 a 1.07,1.07 0 0 1 -0.57,0.44 3,3 0 0 1 -0.96,0.12 z"
             id="path183"
             style="fill:url(#linear-gradient-7)" />
          <path
             d="m 32.79,31.1 a 6.29,6.29 0 0 0 3,3.42 7.44,7.44 0 0 0 3.96,1.48 1.93,1.93 0 0 0 0.58,-0.07 L 39.2,37.5 a 0.81,0.81 0 0 1 -0.43,0.34 2.88,2.88 0 0 1 -0.86,0.12 6.46,6.46 0 0 1 -3.54,-1.29 c -2.28,-1.54 -2.68,-2.93 -2.73,-3.55 a 0.76,0.76 0 0 1 0.12,-0.53 l 1,-1.49 m 0,-0.49 a 0.48,0.48 0 0 0 -0.41,0.21 l -1,1.49 a 1.25,1.25 0 0 0 -0.21,0.85 c 0.06,0.76 0.53,2.29 3,3.92 a 6.91,6.91 0 0 0 3.82,1.38 3.54,3.54 0 0 0 1,-0.14 1.37,1.37 0 0 0 0.7,-0.54 l 1.12,-1.6 a 0.5,0.5 0 0 0 0,-0.59 0.48,0.48 0 0 0 -0.4,-0.2 h -0.16 v 0 a 1.69,1.69 0 0 1 -0.42,0 7,7 0 0 1 -3.7,-1.29 5.94,5.94 0 0 1 -2.83,-3.1 0.49,0.49 0 0 0 -0.4,-0.36 z"
             id="path185" />
          <path
             class="cls-4"
             d="m 40.94,35.12 c -0.62,0.92 -2.85,0.51 -5,-0.93 -2.15,-1.44 -3.35,-3.35 -2.72,-4.27 0.63,-0.92 2.85,-0.51 5,0.92 2.15,1.43 3.35,3.35 2.72,4.28 z"
             id="path187" />
        </g>
      </g>
      <g
         id="partie_haute_copy_26"
         data-name="partie haute *** copy 26">
        <path
           id="poignée"
           class="cls-29"
           d="M 50.49,23.44 54,23.39 c 2,0.13 1.55,0.93 0.59,1.77 a 6.05,6.05 0 0 0 -1.55,1.14 c -0.57,0.65 -1.41,2 -1.92,1.9 -0.51,-0.1 -1.19,0.1 -1.06,0.55 l 0.47,1.32 c 0.1,0.36 0.69,0.5 1,0.37 a 15.24,15.24 0 0 0 4,-2.73 22.42,22.42 0 0 0 2.52,-2.51 1.26,1.26 0 0 0 0.35,-1 6.46,6.46 0 0 0 -0.86,-2.46 C 56.76,20.09 53.43,20 53.43,20 Z"
           style="fill:url(#linear-gradient-8)" />
        <path
           class="cls-30"
           d="m 45.94,30.05 c 0,0 -1.39,1.87 -6.61,-1.52 -4.85,-3.15 -3.68,-5.06 -3.68,-5.06 l 1.49,-2.3 10.35,6.68 z"
           id="path192"
           style="fill:url(#linearGradient256)" />
        <g
           id="contour_cafe-2"
           data-name="contour cafe">
          <path
             d="m 41.08,11.32 5.16,0.21 5.46,3.52 2.89,4.26 -1,2.68 -5.59,6.37 -0.76,-0.09 -1.52,2 a 1.93,1.93 0 0 1 -1.17,0.28 c -1,0 -2.6,-0.38 -5.13,-2 -4.79,-3.12 -3.8,-4.94 -3.8,-4.94 l 1.2,-1.79 -0.37,-0.39 1.14,-2 v -4.87 l -0.78,-1 -0.32,-0.69 1.64,-0.76 3,-0.81 M 41.07,10.8 H 41 l -3,0.81 v 0 0 l -1.64,0.76 -0.45,0.21 0.21,0.45 0.32,0.69 v 0.06 0 l 0.67,0.85 v 4.57 l -1.11,1.97 -0.19,0.32 0.25,0.27 0.1,0.1 -1,1.46 c -0.14,0.27 -1.09,2.37 3.95,5.63 a 10.58,10.58 0 0 0 5.4,2.12 2.33,2.33 0 0 0 1.49,-0.39 v 0 -0.06 l 1.35,-1.79 0.48,0.06 h 0.26 l 0.17,-0.2 5.74,-6.37 0.06,-0.07 v -0.09 l 1,-2.67 0.09,-0.25 L 55,19 52.11,14.74 52.05,14.65 H 51.96 L 46.5,11.13 46.39,11 H 46.26 L 41.1,10.79 Z"
             id="path194" />
        </g>
        <g
           id="Top_1-3"
           data-name="Top 1">
          <polygon
             id="B1-2"
             data-name="B1"
             class="cls-31"
             points="48.83,21.52 44.02,27.77 47.98,28.36 53.53,22.05 " />
          <polygon
             id="B2-2"
             data-name="B2"
             class="cls-32"
             points="48.83,21.52 43.34,17.98 39.35,24.74 44.02,27.77 " />
          <polygon
             id="B3-2"
             data-name="B3"
             class="cls-33"
             points="36.42,21.39 39.35,24.74 43.34,17.98 41.46,15.67 37.58,19.44 " />
          <g
             id="B_4-2"
             data-name="B 4">
            <polygon
               class="cls-16"
               points="41.44,15.69 37.61,19.38 37.56,14.56 36.76,13.57 38.66,14 "
               id="polygon200" />
            <path
               d="m 36.88,13.67 1.76,0.35 2.73,1.66 -3.74,3.63 v -4.75 0 l -0.7,-0.85 m -0.14,-0.09 0.8,1 V 19.5 L 41.47,15.73 38.66,14 36.74,13.61 Z"
               id="path202" />
          </g>
          <polygon
             id="contour_Ht-4"
             data-name="contour Ht"
             class="cls-34"
             points="36.74,13.58 36.42,12.89 37.99,12.19 40.59,12.76 41.08,11.31 46.21,11.53 51.74,15.1 54.62,19.33 53.53,22.05 48.83,21.52 43.34,17.98 41.46,15.67 38.66,13.97 " />
        </g>
        <g
           id="contour_cafe-3"
           data-name="contour cafe">
          <path
             d="m 41.08,11.32 5.13,0.21 5.53,3.57 2.88,4.23 -1,2.66 -5.62,6.37 -4,-0.59 -4.67,-3 -2.93,-3.32 1.14,-2 v -4.87 l -0.78,-1 -0.32,-0.69 1.57,-0.7 3.09,-0.87 m -0.06,-0.5 h -0.08 l -3.09,0.87 h -0.06 l -1.57,0.71 -0.47,0.2 0.22,0.46 0.32,0.69 v 0.06 0 l 0.67,0.85 v 4.57 l -0.98,1.94 -0.18,0.31 0.23,0.27 2.95,3.32 v 0.05 h 0.06 l 4.67,3 0.09,0.06 h 0.11 l 3.95,0.59 h 0.27 l 0.18,-0.21 5.67,-6.24 0.06,-0.07 v -0.08 l 1,-2.66 0.09,-0.24 L 55,19.05 52.12,14.82 52.06,14.74 52,14.68 46.47,11.11 46.37,11 H 46.23 L 41.1,10.79 Z"
             id="path207" />
        </g>
        <polyline
           id="contour_Ht-5"
           data-name="contour Ht"
           class="cls-35"
           points="53.53 22.05 48.83 21.52 43.34 17.98 41.46 15.67 38.66 13.97 36.74 13.58 36.42 12.89" />
        <g
           id="Layer_131_copy_26"
           data-name="Layer 131 copy 26">
          <polygon
             id="contour"
             class="cls-36"
             points="43.61,17.95 41.21,15.09 38.93,13.8 39.4,12.86 37.97,12.03 41.05,10.96 46.27,11.4 51.8,14.92 54.56,19.22 53.58,21.95 48.94,21.28 "
             style="fill:url(#linear-gradient-10)" />
          <g
             id="in_copy_26"
             data-name="in  ** copy 26">
            <polygon
               class="cls-12"
               points="49.39,13.41 43.61,17.95 41.21,15.09 "
               id="polygon212" />
            <polygon
               class="cls-16"
               points="49.39,13.41 43.61,17.95 48.94,21.28 "
               id="polygon214" />
            <polygon
               class="cls-37"
               points="49.39,13.41 53.58,21.95 48.94,21.28 "
               id="polygon216"
               style="fill:url(#linearGradient258)" />
            <polygon
               class="cls-38"
               points="51.8,14.92 49.39,13.41 53.58,21.95 54.56,19.22 "
               id="polygon218"
               style="fill:url(#white_left-2)" />
            <polygon
               class="cls-39"
               points="54.56,19.22 49.39,13.41 50.04,13.84 51.8,14.92 "
               id="polygon220" />
            <polygon
               class="cls-39"
               points="49.39,13.41 50.04,13.84 46.27,11.4 "
               id="polygon222" />
            <polygon
               class="cls-40"
               points="49.39,13.41 41.05,10.96 46.27,11.4 "
               id="polygon224" />
            <polygon
               class="cls-41"
               points="37.97,12.03 39.4,12.86 38.93,13.8 41.21,15.09 49.39,13.41 41.05,10.96 "
               id="polygon226"
               style="fill:url(#white_front_right)" />
          </g>
          <polygon
             id="contour-2"
             data-name="contour"
             class="cls-42"
             points="43.61,17.95 41.21,15.09 38.93,13.8 39.4,12.86 37.97,12.03 41.05,10.96 46.27,11.4 51.8,14.92 54.56,19.22 53.58,21.95 48.94,21.28 " />
        </g>
        <path
           id="bouton"
           class="DARK-GREY-Fill"
           d="m 52,13.06 -1.27,1.12 -0.28,0.17 -0.61,-0.12 -0.89,-0.57 -0.36,-0.66 0.46,-1.83 a 1.17,1.17 0 0 1 1.62,-0.34 l 1,0.65 A 1.17,1.17 0 0 1 52,13.06 Z"
           style="fill:url(#linearGradient260)" />
      </g>
    </g>
    <g
       id="AXE_Diag_"
       data-name="AXE Diag   ***">
      <g
         class="cls-44"
         clip-path="url(#clip-path-4)"
         id="g237">
        <line
           id="Bleu"
           class="cls-45"
           x1="22"
           y1="55"
           x2="52"
           y2="10" />
        <line
           id="Bleu-2"
           data-name="Bleu"
           class="cls-45"
           x1="22"
           y1="55"
           x2="52"
           y2="10" />
      </g>
    </g>
  </g>
  <g
     id="g1390"
     transform="translate(2.1587302,-0.50793651)">
    <ellipse
       style="fill:#000000;stroke-width:3.77953;stroke-dasharray:1.00157, 2.00315"
       id="path435"
       cx="46.761906"
       cy="39.904762"
       rx="11.587301"
       ry="4.0317459" />
    <path
       id="ellipse439-2"
       style="fill:url(#linearGradient1316);fill-opacity:1;stroke:#204a87;stroke-width:1;stroke-miterlimit:4;stroke-dasharray:none;stroke-dashoffset:0"
       d="m 36.683594,39.808594 c -1.046927,0 -1.890625,0.843698 -1.890625,1.890625 v 11.013672 c 0,0.433719 0.150641,0.828236 0.394531,1.146484 a 11.587301,4.0317459 0 0 0 11.462891,3.441406 11.587301,4.0317459 0 0 0 11.583984,-3.958984 c 0.06941,-0.197188 0.115234,-0.407394 0.115234,-0.628906 V 41.699219 c 0,-1.046927 -0.843698,-1.890625 -1.890625,-1.890625 z" />
    <ellipse
       style="fill:url(#linearGradient1308);fill-opacity:1;stroke:#204a87;stroke-width:1;stroke-miterlimit:4;stroke-dasharray:none;stroke-dashoffset:0;stroke-opacity:1"
       id="ellipse439"
       cx="46.650795"
       cy="39.904762"
       rx="11.587301"
       ry="4.0317459" />
    <path
       style="fill:none;fill-opacity:1;stroke:#204a87;stroke-width:0.6;stroke-linejoin:round;stroke-miterlimit:4;stroke-dasharray:none;stroke-dashoffset:0;stroke-opacity:1"
       id="ellipse439-5"
       sodipodi:type="arc"
       sodipodi:cx="46.539684"
       sodipodi:cy="43.873016"
       sodipodi:rx="11.587301"
       sodipodi:ry="4.0317459"
       sodipodi:start="0"
       sodipodi:end="3.1824811"
       sodipodi:open="true"
       sodipodi:arc-type="arc"
       d="M 58.126986,43.873016 A 11.587301,4.0317459 0 0 1 52.196031,47.391761 11.587301,4.0317459 0 0 1 40.474679,47.30837 11.587301,4.0317459 0 0 1 34.962068,43.70821" />
    <path
       style="fill:none;fill-opacity:1;stroke:#204a87;stroke-width:0.6;stroke-linejoin:round;stroke-miterlimit:4;stroke-dasharray:none;stroke-dashoffset:0;stroke-opacity:1"
       id="ellipse439-5-6"
       sodipodi:type="arc"
       sodipodi:cx="46.476215"
       sodipodi:cy="47.495499"
       sodipodi:rx="11.587301"
       sodipodi:ry="4.0317459"
       sodipodi:start="0"
       sodipodi:end="3.1824811"
       sodipodi:open="true"
       sodipodi:arc-type="arc"
       d="M 58.063517,47.495499 A 11.587301,4.0317459 0 0 1 52.132562,51.014243 11.587301,4.0317459 0 0 1 40.41121,50.930852 11.587301,4.0317459 0 0 1 34.898599,47.330693" />
    <path
       style="fill:none;fill-opacity:1;stroke:#204a87;stroke-width:0.6;stroke-linejoin:round;stroke-miterlimit:4;stroke-dasharray:none;stroke-dashoffset:0;stroke-opacity:1"
       id="ellipse439-5-4"
       sodipodi:type="arc"
       sodipodi:cx="46.412724"
       sodipodi:cy="50.606609"
       sodipodi:rx="11.587301"
       sodipodi:ry="4.0317459"
       sodipodi:start="0"
       sodipodi:end="3.1824811"
       sodipodi:open="true"
       sodipodi:arc-type="arc"
       d="m 58.000025,50.606609 a 11.587301,4.0317459 0 0 1 -5.930955,3.518745 11.587301,4.0317459 0 0 1 -11.721352,-0.08339 11.587301,4.0317459 0 0 1 -5.512611,-3.60016" />
  </g>
  <path
     style="fill:none;fill-rule:evenodd;stroke:#000000;stroke-width:1px;stroke-linecap:butt;stroke-linejoin:miter;stroke-opacity:1;marker-end:url(#Arrow2Send)"
     d="m 21.777777,31.746032 c 2.266142,5.750873 6.217505,9.182493 11.428572,10.222222"
     id="path1394"
     sodipodi:nodetypes="cc" />
</svg>
