<svg id="Layer_37" data-name="Layer 37" xmlns="http://www.w3.org/2000/svg" xmlns:xlink="http://www.w3.org/1999/xlink" viewBox="0 0 64 64"><defs><style>.cls-1,.cls-18,.cls-3,.cls-34,.cls-35,.cls-4,.cls-42,.cls-43,.cls-45,.cls-5{fill:none;}.cls-1,.cls-11,.cls-18,.cls-2,.cls-21,.cls-22,.cls-3,.cls-31,.cls-32,.cls-33,.cls-34,.cls-35,.cls-38,.cls-39,.cls-40,.cls-41,.cls-42,.cls-43,.cls-45,.cls-5{stroke-miterlimit:10;}.cls-1{stroke-width:0.75px;stroke:url(#Dark_BLUE_gradient_LEFT);}.cls-2,.cls-7{fill:#fff;}.cls-18,.cls-2{stroke-width:0.5px;stroke:url(#Dark_BLUE_gradient_LEFT-2);}.cls-2{clip-path:url(#clip-path);}.cls-3,.cls-38,.cls-39,.cls-40,.cls-41{stroke:#323232;}.cls-43,.cls-5{stroke:#003755;}.cls-6{fill:#003755;}.cls-8{fill:url(#linear-gradient);}.cls-9{fill:url(#linear-gradient-2);}.cls-10{clip-path:url(#clip-path-2);}.cls-11,.cls-14,.cls-15,.cls-16,.cls-20,.cls-22,.cls-32,.cls-39{fill:#e1e1e1;}.cls-11,.cls-14,.cls-15,.cls-20,.cls-21,.cls-22,.cls-23,.cls-31,.cls-32,.cls-33,.cls-34,.cls-35,.cls-42{stroke:#000;}.cls-12,.cls-21,.cls-33,.cls-40{fill:#f1f0f0;}.cls-13{fill:#787878;}.cls-14,.cls-15,.cls-20,.cls-23,.cls-43,.cls-45{stroke-linecap:round;}.cls-14,.cls-15,.cls-20,.cls-23{stroke-linejoin:round;}.cls-14{stroke-width:0.07px;}.cls-15{stroke-width:0.25px;}.cls-17{clip-path:url(#clip-path-3);}.cls-19{fill:url(#linear-gradient-3);}.DARK-GREY-Fill{fill:url(#linear-gradient-4);}.cls-20,.cls-21,.cls-22,.cls-23{stroke-width:0.18px;}.cls-23,.cls-31{fill:#797979;}.cls-24{fill:url(#linear-gradient-5);}.cls-25{opacity:0.3;}.cls-26{fill:#323232;}.cls-27{fill:url(#linear-gradient-6);}.cls-28{fill:url(#linear-gradient-7);}.cls-29{fill:url(#linear-gradient-8);}.cls-30{fill:url(#linear-gradient-9);}.cls-31,.cls-32,.cls-33,.cls-34{stroke-width:0.06px;}.cls-35{stroke-width:0.51px;}.cls-36{fill:url(#linear-gradient-10);}.cls-37{fill:url(#white_left);}.cls-38,.cls-39,.cls-40,.cls-41{stroke-width:0.05px;}.cls-38{fill:url(#white_left-2);}.cls-41{fill:url(#white_front_right);}.cls-42{stroke-width:0.55px;}.cls-44{clip-path:url(#clip-path-4);}.cls-45{stroke:#5a9ab8;stroke-dasharray:7 6;}</style><linearGradient id="Dark_BLUE_gradient_LEFT" x1="5.11" y1="17.23" x2="22.78" y2="17.23" gradientUnits="userSpaceOnUse"><stop offset="0" stop-color="#82bedc"/><stop offset="1" stop-color="#285a78"/></linearGradient><linearGradient id="Dark_BLUE_gradient_LEFT-2" x1="5.24" y1="17.23" x2="22.65" y2="17.23" xlink:href="#Dark_BLUE_gradient_LEFT"/><clipPath id="clip-path"><circle class="cls-1" cx="13.95" cy="17.23" r="8.46"/></clipPath><linearGradient id="linear-gradient" x1="16.7" y1="19.18" x2="37" y2="19.18" gradientUnits="userSpaceOnUse"><stop offset="0" stop-color="#285a78"/><stop offset="0.03" stop-color="#2c5e7c"/><stop offset="0.38" stop-color="#5a92b0"/><stop offset="0.64" stop-color="#77b2d0"/><stop offset="0.78" stop-color="#82bedc"/></linearGradient><linearGradient id="linear-gradient-2" x1="21.9" y1="18.39" y2="18.39" xlink:href="#linear-gradient"/><clipPath id="clip-path-2"><circle class="cls-2" cx="13.95" cy="17.23" r="8.46"/></clipPath><clipPath id="clip-path-3"><polygon id="contour_Ht" data-name="contour Ht" class="cls-3" points="19.42 17.54 16 16.4 12.63 16.56 9.82 17.68 9.14 17.35 10.12 15.54 13.15 14.28 12.55 12.59 17.88 9.91 25.69 9.91 31.63 11.76 32.43 15 27.53 17.48 19.42 17.54"/></clipPath><linearGradient id="linear-gradient-3" x1="42.95" y1="59.66" x2="56.6" y2="59.66" gradientTransform="translate(17.25 -30.67) rotate(32.01)" gradientUnits="userSpaceOnUse"><stop offset="0.18" stop-color="#bebebe"/><stop offset="0.32" stop-color="#f5f5f5"/><stop offset="0.6" stop-color="#c6c6c6"/><stop offset="0.8" stop-color="#ddd"/><stop offset="0.96" stop-color="#a49f9f"/></linearGradient><linearGradient id="linear-gradient-4" x1="45.54" y1="56.54" x2="53.73" y2="56.54" gradientTransform="translate(85.91 -6.06) rotate(90)" gradientUnits="userSpaceOnUse"><stop offset="0" stop-color="#464646"/><stop offset="1" stop-color="#141414"/></linearGradient><linearGradient id="linear-gradient-5" x1="45" y1="56.73" x2="54.23" y2="56.73" xlink:href="#linear-gradient-3"/><linearGradient id="linear-gradient-6" x1="46.25" y1="28.53" x2="56.05" y2="28.53" gradientTransform="translate(9.8 -18.53) rotate(34)" xlink:href="#linear-gradient-3"/><linearGradient id="linear-gradient-7" x1="47.22" y1="29.08" x2="56.67" y2="29.08" gradientTransform="matrix(0.83, 0.56, -0.56, 0.83, 8.72, -18.12)" xlink:href="#linear-gradient-3"/><linearGradient id="linear-gradient-8" x1="46.82" y1="20.27" x2="54.17" y2="20.27" gradientTransform="translate(22.66 -19.32) rotate(33.53)" xlink:href="#linear-gradient-4"/><linearGradient id="linear-gradient-9" x1="34.44" y1="28.14" x2="46.76" y2="28.14" gradientTransform="translate(22.66 -19.32) rotate(33.53)" gradientUnits="userSpaceOnUse"><stop offset="0.17" stop-color="#bebebe"/><stop offset="0.23" stop-color="#f5f5f5"/><stop offset="0.32" stop-color="#c6c6c6"/><stop offset="0.59" stop-color="#c6c6c6"/><stop offset="0.64" stop-color="#c6c6c6"/><stop offset="0.72" stop-color="#ddd"/><stop offset="0.96" stop-color="#a49f9f"/></linearGradient><linearGradient id="linear-gradient-10" x1="31.72" y1="12.31" x2="50.22" y2="12.31" gradientTransform="translate(18.94 -16.92) rotate(33)" xlink:href="#linear-gradient-9"/><linearGradient id="white_left" x1="40.6" y1="10.76" x2="48.77" y2="10.76" gradientTransform="translate(19.33 -14.85) rotate(33)" gradientUnits="userSpaceOnUse"><stop offset="0" stop-color="#f5f5f5"/><stop offset="1" stop-color="#bebebe"/></linearGradient><linearGradient id="white_left-2" x1="40.6" y1="9.75" x2="48.77" y2="9.75" xlink:href="#white_left"/><linearGradient id="white_front_right" x1="30.27" y1="10.34" x2="40.6" y2="10.34" gradientTransform="translate(19.33 -14.85) rotate(33)" gradientUnits="userSpaceOnUse"><stop offset="0" stop-color="#fff"/><stop offset="1" stop-color="#d2d2d2"/></linearGradient><clipPath id="clip-path-4"><path id="cadre_64" data-name="cadre 64" class="cls-4" d="M3,66.75V36.94L33,50.75l1-5.5a34.83,34.83,0,0,1-4.4-1.65,34,34,0,0,1-3.89-3.79L3.63,32.52l9.92-4.83L42.5,41l1.7-2.8L15.7,24.37l5.24-8.6L38.1,28.29l5,3.19,5.49,0L22.19,13.84,25.34,9.1,57.75,17,46.07,9H67V66.41Z"/></clipPath></defs><title>1910_A33AAe__R21XArtboard 1</title><g id="correction_01_copy" data-name="correction 01 copy"><g id="NOTE_copy_10" data-name="NOTE copy 10"><g id="no_02_copy_11" data-name="no 02 copy 11"><line class="cls-5" x1="16.79" y1="34.6" x2="31.61" y2="34.6"/><g id="Layer_30_copy_24" data-name="Layer 30 copy 24"><g id="CERCLE_12x12px_" data-name="CERCLE  12x12px  ++"><circle class="cls-6" cx="19.48" cy="33.5" r="4.04"/><path class="cls-6" d="M19.48,29.92A3.58,3.58,0,1,1,15.9,33.5a3.58,3.58,0,0,1,3.58-3.58m0-.92A4.5,4.5,0,1,0,24,33.5a4.49,4.49,0,0,0-4.5-4.5Z"/></g><path class="cls-7" d="M21.62,35.13V36H17.35a1.86,1.86,0,0,1,.42-.93,6.74,6.74,0,0,1,1.37-1.29,8.16,8.16,0,0,0,1-.79.85.85,0,0,0,.25-.57.55.55,0,0,0-.22-.48,1,1,0,0,0-.6-.17,1.49,1.49,0,0,0-.77.18.57.57,0,0,0-.26.48H17.34a1.43,1.43,0,0,1,.68-1.1A3.46,3.46,0,0,1,19.61,31a2.44,2.44,0,0,1,1.47.39,1.15,1.15,0,0,1,.54,1,1.39,1.39,0,0,1-.15.63,2.75,2.75,0,0,1-.49.62,7.42,7.42,0,0,1-.8.62,5.59,5.59,0,0,0-.73.66,2,2,0,0,0-.25.25Z"/></g></g><g id="B_01_copy_10" data-name="B 01 copy 10"><rect class="cls-6" x="32.26" y="48" width="16.19" height="1"/><g id="_1_ok_9x9px_copy_13" data-name="1   ok  ***9x9px copy 13"><g id="CERCLE_12x12px_2" data-name="CERCLE  12x12px  ++"><circle class="cls-6" cx="48.5" cy="48.5" r="4.13"/><path class="cls-6" d="M48.5,44.75a3.75,3.75,0,1,1-3.75,3.75,3.75,3.75,0,0,1,3.75-3.75m0-.75A4.5,4.5,0,1,0,53,48.5,4.49,4.49,0,0,0,48.5,44Z"/></g><path class="cls-7" d="M49,51H48V47.81c0,.43-1,.74-2,.94V47.63A2.15,2.15,0,0,0,48.15,46H49Z"/></g></g></g><g id="zoom_partie_ok_copy_15" data-name="zoom partie   *** ok copy 15"><polygon class="cls-8" points="16.7 22.37 16.7 16.06 37 16 16.7 22.37"/><polygon class="cls-9" points="21.9 20.77 21.9 16.06 37 16 21.9 20.77"/><g id="zoom"><circle class="cls-7" cx="13.95" cy="17.23" r="8.46"/><g class="cls-10"><path id="contour_cafe" data-name="contour cafe" class="cls-11" d="M14.57,28.33l0-2.77,0-2.09-3.41-5-1.3-.77-.68-.33,1-1.81,3-1.26-.6-1.69,5.33-2.68h7.81l5.94,1.85.8,3.24L31,25.08l-.82.45V28.4s-.77,2.29-8.16,2.29C15.64,30.69,14.57,28.33,14.57,28.33Z"/><g id="Top_1" data-name="Top 1"><g id="b1_globale" data-name="b1   globale"><polygon class="cls-12" points="14.58 25.5 14.64 23.5 11.14 18.36 9.96 17.93 9.91 17.73 12.65 16.63 15.97 16.48 19.4 17.61 27.53 17.55 32.33 15.13 30.97 25.07 26.63 27.27 19.99 27.45 14.58 25.5"/><path class="cls-13" d="M32.24,15.25,30.91,25l-4.28,2.21L20,27.37l-5.3-1.91v-2l0,0-3.49-5.1,0,0,0,0-1.08-.38,0-.11,2.65-1.06L16,16.55l3.43,1.13h.05l8.11-.07h.06l4.64-2.36m.19-.25-4.9,2.47-8.11.07L16,16.4l-3.34.16L9.82,17.68l.12.32,1.14.4,3.49,5.1,0,2.06,5.43,2,6.69-.19L31,25.08,32.43,15Z"/></g><polygon id="B1" class="cls-14" points="26.66 27.34 31.04 25.08 32.43 15 27.53 17.48 26.66 27.34"/><polygon id="B2" class="cls-14" points="19.42 17.54 19.98 27.52 26.66 27.34 27.53 17.48 19.42 17.54"/><polygon id="B3" class="cls-15" points="19.42 17.54 15.97 16.4 14.57 23.5 14.55 25.57 19.98 27.52 19.42 17.54"/><g id="B_4" data-name="B 4"><polygon class="cls-16" points="11.18 18.33 10.04 17.9 9.98 17.75 12.67 16.68 15.81 16.54 14.5 23.19 11.18 18.33"/><path d="M15.66,16.67l-1.22,6.2-3.15-4.61,0-.07-.08,0-1-.36,2.51-1,3-.14M16,16.4l-3.34.16L9.82,17.68l.12.32,1.14.4,3.49,5.1L16,16.4Z"/></g><polygon id="contour_Ht-2" data-name="contour Ht" class="cls-4" points="19.42 17.54 15.97 16.4 12.63 16.56 9.82 17.68 9.14 17.35 10.12 15.54 13.15 14.28 12.55 12.59 17.88 9.91 25.69 9.91 31.63 11.76 32.43 15 27.53 17.48 19.42 17.54"/></g><g id="Top_detail_bec_" data-name="Top detail   bec   ****"><g class="cls-17"><g id="M3"><polygon class="cls-12" points="9.49 17.24 10.3 15.74 13.46 14.42 12.86 12.71 17.94 10.16 25.69 10.16 31.42 11.96 32.13 14.86 27.47 17.23 19.42 17.29 16.08 16.17 12.61 16.31 9.83 17.41 9.49 17.24"/><path class="cls-13" d="M25.62,10.41l5.59,1.75.64,2.57L27.41,17,19.5,17l-3.34-1.11-.09,0H16l-3.38.16h-.08l-.08,0-2.6,1h0l.65-1.19,2.86-1.2.44-.18-.16-.45-.45-1.27L18,10.41h7.62m.07-.5H17.88l-5.33,2.68.6,1.69-3,1.26-1,1.81.68.33,2.81-1.12L16,16.4l3.42,1.14,8.11-.07L32.43,15l-.8-3.24L25.69,9.91Z"/></g><polygon id="m2" class="cls-16" points="18.56 17.15 16 16.4 12.63 16.56 9.82 17.68 9.14 17.35 10.12 15.54 13.15 14.28 12.55 12.59 17.88 9.91 18.56 17.15"/></g><polygon id="contour_Ht-3" data-name="contour Ht" class="cls-3" points="19.42 17.54 16 16.4 12.63 16.56 9.82 17.68 9.14 17.35 10.12 15.54 13.15 14.28 12.55 12.59 17.88 9.91 25.69 9.91 31.63 11.76 32.43 15 27.53 17.48 19.42 17.54"/></g></g><circle class="cls-1" cx="13.95" cy="17.23" r="8.46"/><circle class="cls-18" cx="13.95" cy="17.23" r="8.46"/></g></g><g id="AAAA_copy_7" data-name="AAAA copy 7"><g id="Reserve_EAU_01_copy_19" data-name="Reserve EAU   ****01 copy 19"><g id="CONTOUR_" data-name="CONTOUR    ***"><path class="cls-19" d="M24.45,52.53l-3.56-3.28-1.15-2.86,4.44-5.24,1.15-.42.75-1.15a1.71,1.71,0,0,1,1.57-.68,7.88,7.88,0,0,1,3.83,1.32A8.75,8.75,0,0,1,34,42.51c.63.89.78,1.7.42,2.27L33.66,46l.11,1.18-2.14,6-2.74.83Z"/><path d="M27.65,39.27a7.44,7.44,0,0,1,3.63,1.27c2.13,1.33,3.4,3.14,2.83,4-.08.14-.83,1.29-.83,1.29l.11,1.22-2,5.7-2.46.74-4.25-1.34L21.21,49l-1-2.57,4.23-5L25.58,41l.82-1.26a1.39,1.39,0,0,1,1.25-.51m0-.75h0a2.05,2.05,0,0,0-1.89.86c-.1.17-.47.73-.67,1l-.94.34-.19.07-.13.15L19.6,46l-.29.35.16.42,1,2.57.06.15.13.12,3.43,3.17.12.11.16,0,4.26,1.33.22.07.22-.07,2.45-.73.36-.11.13-.36,2.05-5.7.06-.16,0-.16-.09-1c.22-.35.64-1,.7-1.08.25-.41.54-1.31-.43-2.69a9.39,9.39,0,0,0-2.64-2.39,8.26,8.26,0,0,0-4-1.38Z"/></g><ellipse id="top_1-2" data-name="top 1" class="DARK-GREY-Fill" cx="29.37" cy="43.58" rx="1.65" ry="4.09" transform="translate(-23.15 45.38) rotate(-57.99)"/><g id="Layer_134_copy_25" data-name="Layer 134 copy 25"><polygon id="n1" class="cls-20" points="20.17 46.46 21.2 49.03 24.99 43.97 24.89 42.53 24.4 41.47 20.17 46.46"/><polygon id="n2" class="cls-21" points="24.64 52.2 21.2 49.03 24.99 43.97 26.8 44.97 28.27 46.48 24.64 52.2"/><polygon id="n_3" data-name="n 3" class="cls-22" points="24.64 52.2 28.89 53.53 31.66 47.71 29.96 46.71 28.27 46.48 24.64 52.2"/><polygon id="n_4" data-name="n 4" class="cls-23" points="31.34 52.79 28.89 53.53 31.66 47.71 32.59 47.1 33.39 47.09 31.34 52.79"/></g><g id="col_2" data-name="col  2"><path class="cls-24" d="M32.3,46.14a7.7,7.7,0,0,1-3.75-1.24,8.32,8.32,0,0,1-2.4-2.23c-.56-.8-.74-1.49-.5-1.88l.43-.66a2.9,2.9,0,0,0,.34,1,7.46,7.46,0,0,0,2.79,2.77,7.78,7.78,0,0,0,3.65,1.28h.25a4,4,0,0,0,.77-.13c-.15.24-.37.57-.47.72S32.87,46.14,32.3,46.14Z"/><path d="M26,40.39a3.33,3.33,0,0,0,.3.79A7.67,7.67,0,0,0,29.16,44a8,8,0,0,0,3.7,1.28h.26a3.25,3.25,0,0,0,.54-.07c-.12.2-.26.41-.33.52s-.51.33-1,.33a7.49,7.49,0,0,1-3.7-1.22,8.38,8.38,0,0,1-2.37-2.2c-.53-.76-.71-1.42-.5-1.77.07-.12.19-.29.3-.46m.15-.6h0Zm0,0s-.44.67-.61,1c-.57.9.92,3,2.92,4.24a7.81,7.81,0,0,0,3.81,1.26,1.39,1.39,0,0,0,1.2-.42c.15-.26.64-1,.64-1a2.37,2.37,0,0,1-1,.24h-.25a7.44,7.44,0,0,1-3.59-1.26,7.55,7.55,0,0,1-2.77-2.73,2.08,2.08,0,0,1-.32-1.3Z"/></g></g><g id="FILTER_ok_02_copy_18" data-name="FILTER  ok ***02 copy 18"><g id="part_02_copy_33" data-name="part  02 copy 33"><path class="cls-12" d="M32.11,41.61a1.71,1.71,0,0,1-.89-.31,1.69,1.69,0,0,1-.63-.72,1,1,0,0,1,.12-1l2.55-3.79a1.35,1.35,0,0,1,1.88-.37,1.35,1.35,0,0,1,.37,1.88L33,41.14A1,1,0,0,1,32.11,41.61Z"/><path d="M34.39,35.48a1.07,1.07,0,0,1,.61.19,1.1,1.1,0,0,1,.3,1.53L32.75,41a.72.72,0,0,1-.64.36,1.38,1.38,0,0,1-.75-.27c-.5-.34-.79-.82-.45-1.33L33.47,36a1.11,1.11,0,0,1,.92-.48m0-.5a1.61,1.61,0,0,0-1.34.7l-2.55,3.8a1.41,1.41,0,0,0,.58,2,1.9,1.9,0,0,0,1,.35,1.25,1.25,0,0,0,1.06-.58l2.55-3.8a1.61,1.61,0,0,0-.44-2.23,1.56,1.56,0,0,0-.89-.27Z"/><g id="ombre_" data-name="ombre  ****" class="cls-25"><path class="cls-26" d="M32.75,39.36h0c-.5-.34.71-.9-.33-1.84l1-1.56A1.11,1.11,0,0,1,35,35.67h0a1.1,1.1,0,0,1,.3,1.53l-1.44,2.14C33.52,39.85,33.26,39.7,32.75,39.36Z"/></g><g id="ombre_2" data-name="ombre  ****" class="cls-25"><path class="cls-26" d="M31.26,41s.66-1,1.46-2.18a1,1,0,0,0-.3-1.32l1-1.56A1.11,1.11,0,0,1,35,35.67h0a1.1,1.1,0,0,1,.3,1.53L32.76,41C32.42,41.5,31.86,41.46,31.26,41Z"/></g></g><g id="contour_2" data-name="contour****"><path class="cls-27" d="M37.85,38.22a6.79,6.79,0,0,1-3.72-1.38c-2.15-1.45-2.62-2.75-2.78-3.6a.92.92,0,0,1,.12-.74l1.32-2a.35.35,0,0,0,0-.13,1.43,1.43,0,0,1,.24-.71,1.59,1.59,0,0,1,1.37-.54,7.54,7.54,0,0,1,3.88,1.42A9,9,0,0,1,40.79,33c.59.9.71,1.69.35,2.23l-.07.12a1.2,1.2,0,0,1-.42.46l-1.34,1.9a1.17,1.17,0,0,1-.71.44,3,3,0,0,1-.75.09Z"/><path d="M34.42,29.41a7.27,7.27,0,0,1,3.74,1.38c2.13,1.44,3.4,3.35,2.77,4.28-.12.18-.21.42-.45.53l-1.37,1.94a.94.94,0,0,1-.58.35,2.67,2.67,0,0,1-.68.08,6.58,6.58,0,0,1-3.58-1.34c-2.09-1.41-2.52-2.64-2.68-3.44a.69.69,0,0,1,.09-.55l1.32-2c.11-.17,0-.44.26-.84a1.35,1.35,0,0,1,1.16-.43m0-.5a1.78,1.78,0,0,0-1.58.65,1.7,1.7,0,0,0-.28.82v.06l-1.3,1.92a1.22,1.22,0,0,0-.16.93c.18.89.66,2.25,2.89,3.75a7,7,0,0,0,3.86,1.43,3.39,3.39,0,0,0,.81-.1,1.36,1.36,0,0,0,.87-.56L40.82,36a1.45,1.45,0,0,0,.46-.53l.07-.1a2.27,2.27,0,0,0-.35-2.5,9.19,9.19,0,0,0-2.56-2.47,7.8,7.8,0,0,0-4-1.47Z"/></g><g id="Layer_133_copy_26" data-name="Layer 133 copy 26"><path class="cls-26" d="M37.79,37.65a6.66,6.66,0,0,1-3.5-1.39c-.76-.52-2.26-1.87-2.45-3.28l.18-.25c.12-.18.27-.42.3-.45a3.09,3.09,0,0,1,.83-.11,6.23,6.23,0,0,1,3.34,1.26c1.63,1.1,2.5,2.25,2.58,3.43L39,37l-.37.56A3.37,3.37,0,0,1,37.79,37.65Z"/><path class="cls-26" d="M33.15,32.23a6.15,6.15,0,0,1,3.3,1.25c1.6,1.08,2.46,2.2,2.56,3.34l-.2.31-.24.34a2.5,2.5,0,0,1-.78.12,6.55,6.55,0,0,1-3.47-1.38A5.78,5.78,0,0,1,31.9,33l.17-.26c.1-.16.23-.36.28-.42a2.58,2.58,0,0,1,.8-.11m0-.12a2.59,2.59,0,0,0-.86.13s-.35.51-.51.75a5.73,5.73,0,0,0,2.48,3.31,6.84,6.84,0,0,0,3.53,1.4,2.7,2.7,0,0,0,.85-.13l.49-.72c-.05-.61-.34-1.93-2.61-3.47a6.18,6.18,0,0,0-3.37-1.27Z"/><path class="cls-28" d="M37.91,38.21a6.61,6.61,0,0,1-3.68-1.34c-2.34-1.57-2.78-3-2.84-3.73a1.06,1.06,0,0,1,.16-.69l1-1.49a.23.23,0,0,1,.2-.11h0A.22.22,0,0,1,33,31,6.14,6.14,0,0,0,36,34.3a7.17,7.17,0,0,0,3.79,1.41,1.86,1.86,0,0,0,.51-.06h.07a.25.25,0,0,1,.2.1.26.26,0,0,1,0,.3l-1.13,1.6a1.07,1.07,0,0,1-.57.44A3,3,0,0,1,37.91,38.21Z"/><path d="M32.79,31.1a6.29,6.29,0,0,0,3,3.42A7.44,7.44,0,0,0,39.75,36a1.93,1.93,0,0,0,.58-.07L39.2,37.5a.81.81,0,0,1-.43.34,2.88,2.88,0,0,1-.86.12,6.46,6.46,0,0,1-3.54-1.29c-2.28-1.54-2.68-2.93-2.73-3.55a.76.76,0,0,1,.12-.53l1-1.49m0-.49a.48.48,0,0,0-.41.21l-1,1.49a1.25,1.25,0,0,0-.21.85c.06.76.53,2.29,3,3.92a6.91,6.91,0,0,0,3.82,1.38,3.54,3.54,0,0,0,1-.14,1.37,1.37,0,0,0,.7-.54l1.12-1.6a.5.5,0,0,0,0-.59.48.48,0,0,0-.4-.2l-.16,0h0a1.69,1.69,0,0,1-.42,0A7,7,0,0,1,36.1,34.1,5.94,5.94,0,0,1,33.27,31a.49.49,0,0,0-.4-.36Z"/><path class="cls-4" d="M40.94,35.12c-.62.92-2.85.51-5-.93s-3.35-3.35-2.72-4.27,2.85-.51,5,.92S41.57,34.19,40.94,35.12Z"/></g></g><g id="partie_haute_copy_26" data-name="partie haute *** copy 26"><path id="poignée" class="cls-29" d="M50.49,23.44,54,23.39c2,.13,1.55.93.59,1.77a6.05,6.05,0,0,0-1.55,1.14c-.57.65-1.41,2-1.92,1.9s-1.19.1-1.06.55l.47,1.32c.1.36.69.5,1,.37a15.24,15.24,0,0,0,4-2.73,22.42,22.42,0,0,0,2.52-2.51,1.26,1.26,0,0,0,.35-1,6.46,6.46,0,0,0-.86-2.46C56.76,20.09,53.43,20,53.43,20Z"/><path class="cls-30" d="M45.94,30.05s-1.39,1.87-6.61-1.52c-4.85-3.15-3.68-5.06-3.68-5.06l1.49-2.3,10.35,6.68Z"/><g id="contour_cafe-2" data-name="contour cafe"><path d="M41.08,11.32l5.16.21,5.46,3.52,2.89,4.26-1,2.68L48,28.36l-.76-.09-1.52,2a1.93,1.93,0,0,1-1.17.28c-1,0-2.6-.38-5.13-2-4.79-3.12-3.8-4.94-3.8-4.94l1.2-1.79-.37-.39,1.14-2,0-4.87-.78-1-.32-.69,1.64-.76,3-.81m-.06-.5-.07,0-3,.81h0l0,0-1.64.76-.45.21.21.45.32.69,0,.06,0,0,.67.85,0,4.57L36,21.17l-.19.32.25.27.1.1-1,1.46c-.14.27-1.09,2.37,3.95,5.63a10.58,10.58,0,0,0,5.4,2.12A2.33,2.33,0,0,0,46,30.68l0,0,0-.06,1.35-1.79.48.06.26,0,.17-.2L54,22.32l.06-.07,0-.09,1-2.67.09-.25L55,19l-2.89-4.26-.06-.09-.09,0-5.46-3.52L46.39,11h-.13l-5.16-.21Z"/></g><g id="Top_1-3" data-name="Top 1"><polygon id="B1-2" data-name="B1" class="cls-31" points="44.02 27.77 47.98 28.36 53.53 22.05 48.83 21.52 44.02 27.77"/><polygon id="B2-2" data-name="B2" class="cls-32" points="43.34 17.98 39.35 24.74 44.02 27.77 48.83 21.52 43.34 17.98"/><polygon id="B3-2" data-name="B3" class="cls-33" points="43.34 17.98 41.46 15.67 37.58 19.44 36.42 21.39 39.35 24.74 43.34 17.98"/><g id="B_4-2" data-name="B 4"><polygon class="cls-16" points="37.56 14.56 36.76 13.57 38.66 14 41.44 15.69 37.61 19.38 37.56 14.56"/><path d="M36.88,13.67l1.76.35,2.73,1.66-3.74,3.63,0-4.75v0l-.7-.85m-.14-.09.8,1,0,4.88,3.88-3.77L38.66,14l-1.92-.39Z"/></g><polygon id="contour_Ht-4" data-name="contour Ht" class="cls-34" points="43.34 17.98 41.46 15.67 38.66 13.97 36.74 13.58 36.42 12.89 37.99 12.19 40.59 12.76 41.08 11.31 46.21 11.53 51.74 15.1 54.62 19.33 53.53 22.05 48.83 21.52 43.34 17.98"/></g><g id="contour_cafe-3" data-name="contour cafe"><path d="M41.08,11.32l5.13.21,5.53,3.57,2.88,4.23-1,2.66L48,28.36,44,27.77l-4.67-3-2.93-3.32,1.14-2,0-4.87-.78-1-.32-.69,1.57-.7,3.09-.87m-.06-.5-.08,0-3.09.87h-.06l-1.57.71-.47.2.22.46.32.69,0,.06,0,0,.67.85,0,4.57L36,21.17l-.18.31.23.27L39,25.07l0,.05.06,0,4.67,3,.09.06.11,0,3.95.59.27,0,.18-.21L54,22.32l.06-.07,0-.08,1-2.66.09-.24L55,19.05l-2.88-4.23-.06-.08L52,14.68l-5.53-3.57L46.37,11h-.14l-5.13-.21Z"/></g><polyline id="contour_Ht-5" data-name="contour Ht" class="cls-35" points="53.53 22.05 48.83 21.52 43.34 17.98 41.46 15.67 38.66 13.97 36.74 13.58 36.42 12.89"/><g id="Layer_131_copy_26" data-name="Layer 131 copy 26"><polygon id="contour" class="cls-36" points="54.56 19.22 53.58 21.95 48.94 21.28 43.61 17.95 41.21 15.09 38.93 13.8 39.4 12.86 37.97 12.03 41.05 10.96 46.27 11.4 51.8 14.92 54.56 19.22"/><g id="in_copy_26" data-name="in  ** copy 26"><polygon class="cls-12" points="49.39 13.41 43.61 17.95 41.21 15.09 49.39 13.41"/><polygon class="cls-16" points="49.39 13.41 43.61 17.95 48.94 21.28 49.39 13.41"/><polygon class="cls-37" points="49.39 13.41 53.58 21.95 48.94 21.28 49.39 13.41"/><polygon class="cls-38" points="49.39 13.41 53.58 21.95 54.56 19.22 51.8 14.92 49.39 13.41"/><polygon class="cls-39" points="49.39 13.41 50.04 13.84 51.8 14.92 54.56 19.22 49.39 13.41"/><polygon class="cls-39" points="49.39 13.41 50.04 13.84 46.27 11.4 49.39 13.41"/><polygon class="cls-40" points="49.39 13.41 41.05 10.96 46.27 11.4 49.39 13.41"/><polygon class="cls-41" points="49.39 13.41 41.05 10.96 41.05 10.96 37.97 12.03 39.4 12.86 38.93 13.8 41.21 15.09 49.39 13.41"/></g><polygon id="contour-2" data-name="contour" class="cls-42" points="54.56 19.22 53.58 21.95 48.94 21.28 43.61 17.95 41.21 15.09 38.93 13.8 39.4 12.86 37.97 12.03 41.05 10.96 46.27 11.4 51.8 14.92 54.56 19.22"/></g><path id="bouton" class="DARK-GREY-Fill" d="M52,13.06l-1.27,1.12-.28.17-.61-.12-.89-.57L48.59,13l.46-1.83a1.17,1.17,0,0,1,1.62-.34l1,.65A1.17,1.17,0,0,1,52,13.06Z"/></g></g><line id="trait_" data-name="trait   ***" class="cls-43" x1="21.5" y1="34.6" x2="33.12" y2="34.6"/><g id="AXE_Diag_" data-name="AXE Diag   ***"><g class="cls-44"><line id="Bleu" class="cls-45" x1="22" y1="55" x2="52" y2="10"/><line id="Bleu-2" data-name="Bleu" class="cls-45" x1="22" y1="55" x2="52" y2="10"/></g></g></g></svg>