<svg id="Layer_5_copy" data-name="Layer 5 copy" xmlns="http://www.w3.org/2000/svg" xmlns:xlink="http://www.w3.org/1999/xlink" viewBox="0 0 64 64"><defs><linearGradient id="linear-gradient" x1="16.5" y1="18.13" x2="35.23" y2="50.56" gradientUnits="userSpaceOnUse"><stop offset="0" stop-color="#f5f6f6"/><stop offset="0.99" stop-color="#d2d3d3"/></linearGradient><linearGradient id="linear-gradient-2" x1="49.33" y1="49.71" x2="29.08" y2="14.63" gradientUnits="userSpaceOnUse"><stop offset="0" stop-color="#2a5b79"/><stop offset="1" stop-color="#3388b0"/></linearGradient><clipPath id="clip-path"><path d="M30.75,26.5,27,28.38a1.67,1.67,0,0,0-.92,1.49v4.26A1.67,1.67,0,0,0,27,35.62l3.75,1.88a1.72,1.72,0,0,0,1.5,0L36,35.62a1.67,1.67,0,0,0,.92-1.49V29.87A1.67,1.67,0,0,0,36,28.38L32.25,26.5A1.72,1.72,0,0,0,30.75,26.5Z" style="fill:none"/></clipPath><linearGradient id="linear-gradient-3" x1="32.64" y1="31.06" x2="30.54" y2="27.42" gradientUnits="userSpaceOnUse"><stop offset="0" stop-color="#74c4e2"/><stop offset="1" stop-color="#a4def6"/></linearGradient><linearGradient id="linear-gradient-4" x1="35.2" y1="35.33" x2="32.86" y2="31.28" gradientUnits="userSpaceOnUse"><stop offset="0" stop-color="#386f8d"/><stop offset="1" stop-color="#8dd7f4"/></linearGradient><linearGradient id="linear-gradient-5" x1="31.35" y1="37.32" x2="27.06" y2="29.89" gradientUnits="userSpaceOnUse"><stop offset="0" stop-color="#2a5b79"/><stop offset="1" stop-color="#84bedc"/></linearGradient></defs><path d="M18.5,32A13,13,0,0,1,29.74,19.12a2,2,0,0,0,1.76-1.95V8.5a1,1,0,0,0-1-1H29.34a2,2,0,0,0-2,1.84L27,13.16a19.17,19.17,0,0,0-4.85,2l-2.93-2.48a2,2,0,0,0-2.71.11L12.8,16.55a2,2,0,0,0-.11,2.71l2.48,2.93a19.17,19.17,0,0,0-2,4.85l-3.82.31a2,2,0,0,0-1.84,2v5.32a2,2,0,0,0,1.84,2l3.82.31a19.17,19.17,0,0,0,2,4.85l-2.48,2.93a2,2,0,0,0,.11,2.71l3.75,3.75a2,2,0,0,0,2.71.11l2.93-2.48a19.17,19.17,0,0,0,4.85,2l.31,3.82a2,2,0,0,0,2,1.84H30.5a1,1,0,0,0,1-1V46.83a2,2,0,0,0-1.76-1.95A13,13,0,0,1,18.5,32Z" style="stroke:#333332;stroke-linecap:round;stroke-linejoin:round;fill:url(#linear-gradient)"/><path d="M48.5,42a2.49,2.49,0,0,0-1.4.43l-6.81-4.34a3,3,0,0,0,1-2.21V32.5h3.94a2.5,2.5,0,1,0,0-2H41.27V28.12a3,3,0,0,0-1.11-2.32l7.08-5.15A2.46,2.46,0,0,0,48.5,21a2.51,2.51,0,1,0-2.44-2l-7.84,5.7-3-1.51L39.45,14h0A2.5,2.5,0,1,0,37,11.5a2.48,2.48,0,0,0,.64,1.65L33.4,22.33l-.56-.28a3,3,0,0,0-2.68,0h0l-6.77,3.39a3,3,0,0,0-1.66,2.68v7.76a3,3,0,0,0,1.66,2.68L30.16,42a3.05,3.05,0,0,0,2.68,0l.56-.28,4.24,9.18A2.48,2.48,0,0,0,37,52.5,2.5,2.5,0,1,0,39.5,50h0l-4.26-9.24,3.13-1.56L46,44.12a2.33,2.33,0,0,0,0,.38A2.5,2.5,0,1,0,48.5,42Z" style="fill:url(#linear-gradient-2)"/><path d="M31.12,23.86l-6.67,3.42A.82.82,0,0,0,24,28v8a.82.82,0,0,0,.45.74l6.67,3.42a.85.85,0,0,0,.76,0l6.67-3.42A.82.82,0,0,0,39,36V28a.82.82,0,0,0-.45-.74l-6.67-3.42A.85.85,0,0,0,31.12,23.86Z" style="fill:#fff"/><g style="clip-path:url(#clip-path)"><polygon points="31.5 26.58 36.5 29.08 31.5 31.58 26.5 29.08 31.5 26.58" style="stroke:#053755;stroke-linecap:round;stroke-linejoin:round;fill:url(#linear-gradient-3)"/><polygon points="36.5 29.08 31.5 31.58 31.5 37.42 36.5 34.92 36.5 29.08" style="stroke:#053755;stroke-linecap:round;stroke-linejoin:round;fill:url(#linear-gradient-4)"/><polygon points="26.5 29.08 26.5 34.92 31.5 37.42 31.5 31.58 26.5 29.08" style="stroke:#053755;stroke-linecap:round;stroke-linejoin:round;fill:url(#linear-gradient-5)"/></g></svg>