<?xml version="1.0" encoding="UTF-8"?><svg id="it_2" xmlns="http://www.w3.org/2000/svg" xmlns:xlink="http://www.w3.org/1999/xlink" viewBox="0 0 200 150"><defs><linearGradient id="linear-gradient" x1="72.03" y1="22.97" x2="125.39" y2="115.39" gradientTransform="matrix(1, 0, 0, 1, 0, 0)" gradientUnits="userSpaceOnUse"><stop offset="0" stop-color="#f5f5f5"/><stop offset="1" stop-color="#bebebe"/></linearGradient><linearGradient id="linear-gradient-2" x1="95.58" y1="9.3" x2="138.23" y2="83.16" gradientTransform="matrix(1, 0, 0, 1, 0, 0)" gradientUnits="userSpaceOnUse"><stop offset="0" stop-color="#fff"/><stop offset="1" stop-color="#f0f0f0"/></linearGradient><linearGradient id="linear-gradient-3" x1="104.35" y1="45.71" x2="143.09" y2="112.81" gradientTransform="matrix(1, 0, 0, 1, 0, 0)" gradientUnits="userSpaceOnUse"><stop offset="0" stop-color="#fff"/><stop offset="1" stop-color="#d2d2d2"/></linearGradient><filter id="DS_GaussianBlur_2" x="-50%" y="-50%" width="200%" height="200%"><feGaussianBlur stdDeviation="1"/></filter><linearGradient id="linear-gradient-4" x1="48.85" y1="52.96" x2="73.15" y2="95.04" gradientTransform="matrix(1, 0, 0, 1, 0, 0)" gradientUnits="userSpaceOnUse"><stop offset="0" stop-color="#8cd7f5"/><stop offset="1" stop-color="#376e8c"/></linearGradient><linearGradient id="linear-gradient-5" x1="55" y1="63.61" x2="67" y2="84.39" gradientTransform="matrix(1, 0, 0, 1, 0, 0)" gradientUnits="userSpaceOnUse"><stop offset="0" stop-color="#376e8c"/><stop offset="1" stop-color="#8cd7f5"/></linearGradient><linearGradient id="linear-gradient-6" x1="81.77" y1="85.82" x2="106.23" y2="128.18" gradientTransform="matrix(1, 0, 0, 1, 0, 0)" gradientUnits="userSpaceOnUse"><stop offset="0" stop-color="#fff"/><stop offset="1" stop-color="#d4d5d3"/></linearGradient><linearGradient id="linear-gradient-7" x1="86.84" y1="88.42" x2="98.84" y2="109.21" gradientTransform="translate(-29.59 51.24) rotate(-22.5)" gradientUnits="userSpaceOnUse"><stop offset="0" stop-color="#d4d5d3"/><stop offset="1" stop-color="#fff"/></linearGradient></defs><g><g><polygon points="62.5 90.81 62.5 28.48 104.82 26.51 140.5 57.23 140.5 106.67 94.13 126.4 62.5 90.81" fill="url(#linear-gradient)"/><path d="M104.65,27.02l35.35,30.44v48.88l-45.73,19.46-31.27-35.18V28.95l41.65-1.94m.35-1.02l-43,2v63l32,36,47-20V57l-36-31h0Z" fill="#787878"/></g><g><polygon points="105.09 58.97 62.5 28.74 62.5 28.41 114.94 17.52 155.48 36.31 153.53 74.33 105.09 58.97" fill="url(#linear-gradient-2)"/><path d="M114.88,18.05l40.09,18.58-1.9,37.03-47.75-15.14L63.36,28.74l51.52-10.69m.12-1.05l-53,11v1l42.86,30.42,49.14,15.58,2-39-41-19h0Z" fill="#787878"/></g><g><polygon points="94.5 51.39 155.5 36.63 155.5 105.64 94.5 126.3 94.5 51.39" fill="url(#linear-gradient-3)"/><path d="M155,37.27V105.28l-60,20.32V51.79l60-14.52m1-1.27l-62,15V127l62-21V36h0Z" fill="#787878"/></g><path d="M114.88,18.05l40.12,18.59V105.28l-60.69,20.56-31.31-35.22V28.81l51.88-10.77m.12-1.05l-53,11v63l32,36,62-21V36l-41-19h0Z" fill="#323232"/></g><g filter="url(#DS_GaussianBlur_2)" opacity=".2"><path d="M75.81,93.41l1.73,1.74c2.24-1.6,4.17-3.52,5.77-5.77l-1.73-1.73c-1.52-1.52-1.82-3.63-1.12-5.48,.68-1.79,2.47-3.24,4.74-3.24h2.45c.3-1.99,.36-3.14,.36-4.08s-.06-2.08-.36-4.08h-2.45c-2.3,0-4.06-1.46-4.74-3.21-.69-1.76-.43-3.96,1.12-5.51l1.73-1.73c-1.6-2.25-3.52-4.17-5.77-5.77l-1.73,1.79c-1.5,1.5-3.77,1.75-5.51,1.07-1.86-.72-3.21-2.48-3.21-4.74v-2.45c-1.99-.3-3.16-.36-4.08-.36s-2.09,.06-4.08,.36v2.45c0,2.3-1.45,4.07-3.24,4.74-1.88,.71-3.99,.38-5.48-1.12l-1.73-1.73c-2.24,1.6-4.17,3.52-5.77,5.77l1.73,1.73c1.57,1.57,1.8,3.76,1.12,5.51-.71,1.82-2.54,3.21-4.74,3.21h-2.45c-.3,2.01-.36,3.16-.36,4.08s.06,2.07,.36,4.08h2.45c2.15,0,4.02,1.33,4.74,3.24,.71,1.88,.38,3.98-1.12,5.48l-1.73,1.73c1.6,2.25,3.52,4.17,5.77,5.77l1.73-1.74c1.5-1.5,3.6-1.83,5.48-1.12,1.85,.7,3.24,2.54,3.24,4.75v2.45c1.99,.3,3.14,.36,4.08,.36s2.08-.06,4.08-.36v-2.45c0-2.19,1.38-4.03,3.21-4.75,1.76-.68,3.96-.43,5.51,1.12Zm-12.81-9.57c-4.91,0-9-4.04-9-9s4.08-9,9-9,9,4.07,9,9-4.08,9-9,9Z"/><path d="M114.92,107.92c-.06-1.92,1.04-3.94,3.14-4.81l2.26-.94c-.49-1.96-.87-3.04-1.23-3.91-.36-.87-.85-1.9-1.89-3.63l-2.26,.94c-2.13,.88-4.31,.21-5.61-1.15-1.31-1.36-1.91-3.49-1.07-5.52l.94-2.27c-2.34-1.46-4.85-2.5-7.53-3.12l-.92,2.31c-.81,1.96-2.81,3.06-4.68,3.1-2,.05-3.92-1.06-4.79-3.15l-.94-2.26c-1.96,.49-3.05,.88-3.91,1.23-.85,.35-1.91,.85-3.63,1.89l.94,2.26c.88,2.12,.22,4.31-1.18,5.62-1.46,1.38-3.54,1.87-5.5,1.06l-2.27-.94c-1.46,2.34-2.5,4.85-3.12,7.53l2.27,.94c2.05,.85,3.1,2.79,3.15,4.66,.04,1.95-1.12,3.94-3.15,4.78l-2.26,.94c.49,1.97,.88,3.06,1.23,3.91,.35,.85,.84,1.89,1.89,3.63l2.26-.94c1.99-.82,4.22-.31,5.62,1.18,1.37,1.46,1.87,3.53,1.06,5.5l-.94,2.27c2.34,1.46,4.85,2.5,7.53,3.12l.94-2.27c.81-1.96,2.62-3.07,4.64-3.14,1.98-.06,3.96,1.1,4.81,3.14l.94,2.26c1.95-.49,3.04-.87,3.91-1.23,.87-.36,1.9-.85,3.63-1.89l-.94-2.26c-.84-2.02-.27-4.25,1.15-5.61,1.37-1.31,3.49-1.91,5.52-1.07l2.27,.94c1.46-2.34,2.5-4.85,3.12-7.53l-2.27-.94c-1.98-.82-3.08-2.66-3.14-4.64Zm-15.48,8.23c-4.54,1.88-9.87-.29-11.77-4.87-1.9-4.58,.33-9.88,4.87-11.77,4.58-1.9,9.88,.32,11.77,4.87,1.9,4.59-.33,9.88-4.87,11.77Z"/></g><g><g><path d="M61,98.48c-.76,0-1.77-.04-3.56-.29v-2c0-2.32-1.44-4.42-3.58-5.23-.69-.26-1.4-.39-2.11-.39-1.48,0-2.87,.58-3.92,1.63l-1.42,1.42c-1.92-1.42-3.61-3.11-5.03-5.03l1.42-1.42c1.58-1.58,2.05-3.89,1.24-6.04-.81-2.14-2.91-3.57-5.23-3.57h-2c-.25-1.79-.29-2.8-.29-3.56s.04-1.77,.29-3.56h2c2.3,0,4.4-1.42,5.23-3.54,.83-2.14,.36-4.47-1.24-6.06l-1.42-1.42c1.42-1.92,3.11-3.61,5.03-5.03l1.42,1.42c1.05,1.05,2.45,1.63,3.92,1.63,.71,0,1.42-.13,2.11-.39,2.17-.82,3.58-2.87,3.58-5.23v-2c1.79-.25,2.8-.29,3.56-.29s1.78,.04,3.56,.29v2c0,2.38,1.36,4.38,3.55,5.23,.66,.26,1.39,.39,2.12,.39,1.52,0,2.92-.56,3.94-1.58l1.43-1.47c1.92,1.42,3.61,3.11,5.03,5.03l-1.42,1.42c-1.58,1.58-2.06,3.96-1.24,6.07,.83,2.15,2.89,3.54,5.23,3.54h2c.25,1.79,.29,2.81,.29,3.56s-.04,1.77-.29,3.56h-2c-2.32,0-4.42,1.44-5.23,3.57-.81,2.14-.34,4.46,1.24,6.04l1.42,1.42c-1.42,1.92-3.11,3.61-5.03,5.03l-1.42-1.42c-1.05-1.05-2.46-1.63-3.96-1.63-.72,0-1.43,.13-2.11,.39-2.12,.82-3.55,2.93-3.55,5.23v2c-1.79,.25-2.81,.29-3.56,.29Zm0-34c-5.25,0-9.52,4.27-9.52,9.52s4.27,9.52,9.52,9.52,9.52-4.27,9.52-9.52-4.27-9.52-9.52-9.52Z" fill="url(#linear-gradient-4)"/><path d="M61,50.04c.68,0,1.56,.03,3.04,.22v1.55c0,2.6,1.49,4.79,3.88,5.71,.72,.28,1.52,.43,2.31,.43,1.66,0,3.19-.62,4.32-1.74l1.1-1.13c1.61,1.24,3.05,2.68,4.29,4.29l-1.1,1.1c-1.72,1.72-2.25,4.32-1.36,6.62,.91,2.35,3.16,3.88,5.71,3.88h1.55c.19,1.49,.22,2.37,.22,3.04s-.03,1.56-.22,3.04h-1.55c-2.54,0-4.83,1.57-5.71,3.91-.89,2.34-.37,4.86,1.36,6.59l1.1,1.1c-1.24,1.61-2.68,3.05-4.3,4.3l-1.1-1.1c-1.15-1.15-2.69-1.78-4.32-1.78-.79,0-1.56,.14-2.3,.43-2.32,.9-3.88,3.2-3.88,5.71v1.55c-1.49,.19-2.37,.22-3.04,.22s-1.56-.03-3.04-.22v-1.55c0-2.53-1.57-4.83-3.91-5.72-.75-.28-1.52-.42-2.3-.42-1.61,0-3.14,.63-4.29,1.78l-1.1,1.1c-1.62-1.24-3.06-2.68-4.3-4.3l1.1-1.1c1.72-1.72,2.24-4.25,1.36-6.59-.89-2.34-3.18-3.91-5.71-3.91h-1.55c-.19-1.48-.22-2.37-.22-3.04s.03-1.56,.22-3.04h1.55c2.51,0,4.81-1.56,5.71-3.88,.89-2.3,.36-4.9-1.36-6.62l-1.1-1.1c1.24-1.61,2.68-3.05,4.3-4.3l1.1,1.1c1.15,1.15,2.68,1.78,4.29,1.78,.78,0,1.55-.14,2.29-.43,2.38-.9,3.91-3.14,3.91-5.72v-1.55c1.48-.19,2.36-.22,3.04-.22m0,34c5.53,0,10.04-4.5,10.04-10.04s-4.5-10.04-10.04-10.04-10.04,4.5-10.04,10.04,4.5,10.04,10.04,10.04m0-35.04c-.92,0-2.09,.06-4.08,.36v2.45c0,2.3-1.45,4.07-3.24,4.74-.63,.24-1.28,.36-1.93,.36-1.29,0-2.56-.48-3.56-1.48l-1.73-1.73c-2.24,1.6-4.17,3.52-5.77,5.77l1.73,1.73c1.57,1.57,1.8,3.76,1.12,5.51-.71,1.82-2.54,3.21-4.74,3.21h-2.45c-.3,2.01-.36,3.16-.36,4.08s.06,2.07,.36,4.08h2.45c2.15,0,4.02,1.33,4.74,3.24,.71,1.88,.38,3.98-1.12,5.48l-1.73,1.73c1.6,2.25,3.52,4.17,5.77,5.77l1.73-1.74c1-1,2.26-1.48,3.55-1.48,.65,0,1.3,.12,1.93,.36,1.85,.7,3.24,2.54,3.24,4.75v2.45c1.99,.3,3.14,.36,4.08,.36s2.08-.06,4.08-.36v-2.45c0-2.19,1.38-4.03,3.21-4.75,.6-.23,1.26-.36,1.92-.36,1.27,0,2.57,.46,3.59,1.48l1.73,1.74c2.24-1.6,4.17-3.52,5.77-5.77l-1.73-1.73c-1.52-1.52-1.82-3.63-1.12-5.48,.68-1.79,2.47-3.24,4.74-3.24h2.45c.3-1.99,.36-3.14,.36-4.08s-.06-2.08-.36-4.08h-2.45c-2.3,0-4.06-1.46-4.74-3.21-.69-1.76-.43-3.96,1.12-5.51l1.73-1.73c-1.6-2.25-3.52-4.17-5.77-5.77l-1.73,1.79c-.98,.98-2.3,1.43-3.57,1.43-.67,0-1.34-.12-1.94-.36-1.86-.72-3.21-2.48-3.21-4.74v-2.45c-1.99-.3-3.16-.36-4.08-.36h0Zm0,34c-4.91,0-9-4.04-9-9s4.08-9,9-9,9,4.07,9,9-4.08,9-9,9h0Z" fill="#003755"/></g><path d="M61,62c-6.63,0-12,5.37-12,12s5.37,12,12,12,12-5.37,12-12-5.37-12-12-12Zm0,22c-5.52,0-10-4.48-10-10s4.48-10,10-10,10,4.48,10,10-4.48,10-10,10Z" fill="url(#linear-gradient-5)"/><g opacity=".2"><path d="M78.37,59.87c-1.1,1.1-1.61,2.62-1.44,4.09,.1-1.14,.59-2.24,1.44-3.09l.04-.04,1.54-1.54c-.14-.18-.3-.36-.46-.54l-1.08,1.08-.04,.04Z"/><path d="M58,94.63v-.1c0-2.08-1.3-3.96-3.24-4.67-.43-.16-.86-.34-1.28-.53-.65-.3-1.34-.45-2.06-.45-1.31,0-2.6,.53-3.53,1.47l-.07,.07-1.54,1.54c-.79-.62-1.57-1.29-2.26-1.99-.53-.53-1.04-1.11-1.53-1.71l-.45,.45c.62,.79,1.29,1.56,1.98,2.26,.69,.69,1.46,1.37,2.26,1.99l1.54-1.54,.07-.07c.93-.93,2.22-1.47,3.53-1.47,.72,0,1.41,.15,2.06,.45,.42,.19,.85,.37,1.28,.53,1.94,.72,3.24,2.59,3.24,4.67v-.9Z"/><path d="M44.12,80.21c.16,.45,.35,.89,.55,1.32,.22,.48,.36,.98,.42,1.49,.08-.84-.05-1.7-.42-2.49-.2-.43-.38-.87-.55-1.32-.7-1.92-2.57-3.21-4.67-3.21h-2.27c-.1-1-.16-1.67-.17-2.5,0,.17-.02,.33-.02,.5,0,.99,.06,2,.19,3h2.27c2.09,0,3.97,1.29,4.67,3.21Z"/><path d="M84.81,76h-2.26c-2.08,0-3.96,1.3-4.67,3.24-.16,.44-.34,.87-.53,1.29-.37,.8-.49,1.66-.41,2.5,.06-.51,.19-1.02,.41-1.5,.19-.42,.37-.86,.53-1.29,.71-1.94,2.59-3.24,4.67-3.24h2.26c.13-1,.19-2.01,.19-3,0-.17-.01-.33-.02-.5-.02,.83-.07,1.5-.17,2.5Z"/><path d="M58,96.81v1c1,.13,2.01,.19,3,.19s2-.06,3-.19v-1c-1,.13-2.01,.19-3,.19s-2-.06-3-.19Z"/><path d="M43.65,60.9c.84,.84,1.33,1.95,1.43,3.09,.17-1.48-.34-3-1.43-4.09l-.07-.07-1.08-1.08c-.15,.18-.31,.37-.45,.55l1.54,1.54,.07,.07Z"/><path d="M77.97,89.97c-.69,.69-1.47,1.37-2.26,1.99l-1.54-1.54-.05-.05c-.94-.94-2.23-1.47-3.54-1.47-.71,0-1.4,.15-2.05,.45-.43,.2-.88,.39-1.33,.55-1.92,.7-3.2,2.57-3.2,4.67v1c0-2.09,1.29-3.97,3.2-4.67,.45-.16,.9-.35,1.33-.55,.64-.3,1.33-.45,2.05-.45,1.31,0,2.6,.54,3.54,1.47l.05,.05,1.54,1.54c.79-.62,1.57-1.3,2.26-1.99,.69-.69,1.37-1.46,1.98-2.25l-.45-.45c-.49,.6-1,1.18-1.53,1.71Z"/></g><g opacity=".3"><path d="M43.63,88.13c1.1-1.1,1.61-2.62,1.44-4.09-.1,1.14-.59,2.24-1.44,3.09l-.04,.04-1.54,1.54c.14,.18,.3,.36,.46,.54l1.08-1.08,.04-.04Z" fill="#fff"/><path d="M64,53.37v.1c0,2.08,1.3,3.96,3.24,4.67,.43,.16,.86,.34,1.28,.53,.65,.3,1.34,.45,2.06,.45,1.31,0,2.6-.53,3.53-1.47l.07-.07,1.54-1.54c.79,.62,1.57,1.29,2.26,1.99,.53,.53,1.04,1.11,1.53,1.71l.45-.45c-.62-.79-1.29-1.56-1.98-2.26-.69-.69-1.46-1.37-2.26-1.99l-1.54,1.54-.07,.07c-.93,.93-2.22,1.47-3.53,1.47-.72,0-1.41-.15-2.06-.45-.42-.19-.85-.37-1.28-.53-1.94-.72-3.24-2.59-3.24-4.67v.9Z" fill="#fff"/><path d="M77.88,67.79c-.16-.45-.35-.89-.55-1.32-.22-.48-.36-.98-.42-1.49-.08,.84,.05,1.7,.42,2.49,.2,.43,.38,.87,.55,1.32,.7,1.92,2.57,3.21,4.67,3.21h2.27c.1,1,.16,1.67,.17,2.5,0-.17,.02-.33,.02-.5,0-.99-.06-2-.19-3h-2.27c-2.09,0-3.97-1.29-4.67-3.21Z" fill="#fff"/><path d="M37.19,72h2.26c2.08,0,3.96-1.3,4.67-3.24,.16-.44,.34-.87,.53-1.29,.37-.8,.49-1.66,.41-2.5-.06,.51-.19,1.02-.41,1.5-.19,.42-.37,.86-.53,1.29-.71,1.94-2.59,3.24-4.67,3.24h-2.26c-.13,1-.19,2.01-.19,3,0,.17,.01,.33,.02,.5,.02-.83,.07-1.5,.17-2.5Z" fill="#fff"/><path d="M64,51.19v-1c-1-.13-2.01-.19-3-.19s-2,.06-3,.19v1c1-.13,2.01-.19,3-.19s2,.06,3,.19Z" fill="#fff"/><path d="M78.35,87.1c-.84-.84-1.33-1.95-1.43-3.09-.17,1.48,.34,3,1.43,4.09l.07,.07,1.08,1.08c.15-.18,.31-.37,.45-.55l-1.54-1.54-.07-.07Z" fill="#fff"/><path d="M44.03,58.03c.69-.69,1.47-1.37,2.26-1.99l1.54,1.54,.05,.05c.94,.94,2.23,1.47,3.54,1.47,.71,0,1.4-.15,2.05-.45,.43-.2,.88-.39,1.33-.55,1.92-.7,3.2-2.57,3.2-4.67v-1c0,2.09-1.29,3.97-3.2,4.67-.45,.16-.9,.35-1.33,.55-.64,.3-1.33,.45-2.05,.45-1.31,0-2.6-.54-3.54-1.47l-.05-.05-1.54-1.54c-.79,.62-1.57,1.3-2.26,1.99-.69,.69-1.37,1.46-1.98,2.25l.45,.45c.49-.6,1-1.18,1.53-1.71Z" fill="#fff"/></g></g><g><g><path d="M88.03,130.72c-2.32-.58-4.53-1.49-6.57-2.72l.77-1.86c.85-2.06,.41-4.38-1.16-6.05-1.04-1.1-2.51-1.73-4.04-1.73-.74,0-1.47,.14-2.16,.43l-1.85,.76c-.92-1.55-1.34-2.48-1.63-3.18-.29-.7-.65-1.66-1.1-3.4l1.85-.77c2.13-.88,3.52-3,3.47-5.27-.05-2.3-1.38-4.27-3.47-5.13l-1.86-.77c.58-2.32,1.49-4.52,2.72-6.57l1.86,.77c.69,.29,1.41,.43,2.14,.43,1.43,0,2.82-.57,3.92-1.59,1.69-1.59,2.2-4.02,1.3-6.2l-.77-1.85c1.55-.92,2.48-1.34,3.18-1.63,.7-.29,1.66-.65,3.4-1.1l.77,1.85c.89,2.14,2.86,3.48,5.15,3.48h.13c1.87-.04,4.19-1.11,5.15-3.42l.76-1.9c2.32,.58,4.52,1.49,6.57,2.72l-.77,1.86c-.85,2.06-.39,4.45,1.18,6.08,1.04,1.09,2.5,1.71,4.02,1.71,.74,0,1.47-.15,2.17-.44l1.85-.77c.92,1.56,1.34,2.48,1.63,3.18,.29,.7,.64,1.65,1.1,3.4l-1.85,.76c-2.15,.89-3.54,3.02-3.46,5.31,.07,2.29,1.39,4.25,3.46,5.1l1.86,.77c-.58,2.32-1.49,4.52-2.72,6.57l-1.86-.77c-.68-.28-1.4-.43-2.13-.43-1.44,0-2.88,.58-3.95,1.6-1.64,1.57-2.16,4.06-1.27,6.19l.76,1.85c-1.56,.92-2.48,1.34-3.18,1.63s-1.65,.64-3.4,1.1l-.77-1.85c-.87-2.11-2.89-3.47-5.14-3.47h-.16c-2.29,.08-4.25,1.4-5.1,3.46l-.77,1.86Zm5.94-33.24c-1.24,0-2.46,.24-3.61,.72-2.33,.96-4.15,2.79-5.13,5.15-.98,2.36-.99,4.95-.02,7.29,1.48,3.57,4.95,5.87,8.84,5.87h0c1.24,0,2.46-.24,3.61-.72,2.33-.96,4.15-2.79,5.13-5.15,.98-2.36,.99-4.95,.02-7.3-1.48-3.57-4.95-5.87-8.84-5.87Z" fill="url(#linear-gradient-6)"/><path d="M87.73,83.9l.59,1.43c.97,2.34,3.13,3.8,5.63,3.8h.14c2.46-.05,4.71-1.56,5.62-3.75l.58-1.47c1.96,.53,3.84,1.31,5.6,2.32l-.6,1.44c-.93,2.25-.43,4.85,1.28,6.63,1.14,1.19,2.74,1.87,4.4,1.87,.81,0,1.6-.16,2.37-.48l1.43-.59c.75,1.3,1.11,2.1,1.37,2.73,.26,.62,.57,1.45,.96,2.9l-1.43,.59c-2.34,.97-3.86,3.3-3.78,5.8,.08,2.5,1.52,4.63,3.78,5.57l1.44,.6c-.53,1.97-1.31,3.85-2.33,5.61l-1.44-.6c-.75-.31-1.53-.47-2.32-.47-1.58,0-3.15,.64-4.31,1.75-1.8,1.72-2.36,4.44-1.39,6.76l.59,1.43c-1.3,.75-2.1,1.11-2.73,1.37-.62,.26-1.45,.57-2.9,.96l-.59-1.43c-.95-2.3-3.16-3.79-5.62-3.79-.06,0-.12,0-.18,0-2.5,.08-4.63,1.53-5.56,3.78l-.6,1.44c-1.97-.53-3.85-1.31-5.61-2.33l.6-1.44c.93-2.25,.45-4.78-1.27-6.61-1.13-1.2-2.74-1.9-4.42-1.9-.81,0-1.6,.16-2.36,.47l-1.43,.59c-.74-1.29-1.11-2.1-1.37-2.73-.26-.63-.57-1.45-.96-2.9l1.43-.59c2.32-.96,3.85-3.28,3.79-5.77-.06-2.47-1.54-4.67-3.79-5.6l-1.44-.6c.53-1.97,1.31-3.85,2.33-5.61l1.44,.6c.75,.31,1.54,.47,2.33,.47,1.56,0,3.08-.62,4.27-1.73,1.85-1.74,2.41-4.4,1.43-6.78l-.59-1.43c1.29-.74,2.1-1.11,2.73-1.37,.63-.26,1.45-.57,2.9-.96m6.31,33.13c1.31,0,2.59-.25,3.81-.76,2.46-1.02,4.38-2.95,5.41-5.43,1.04-2.49,1.04-5.22,.02-7.69-1.56-3.76-5.22-6.19-9.32-6.19-1.31,0-2.59,.26-3.81,.76-5.12,2.12-7.56,8.01-5.44,13.12,1.56,3.76,5.22,6.19,9.32,6.19m-5.7-34.37c-1.96,.49-3.05,.88-3.91,1.23-.85,.35-1.91,.85-3.63,1.89l.94,2.26c.88,2.12,.22,4.31-1.18,5.62-.98,.93-2.24,1.45-3.56,1.45-.64,0-1.3-.13-1.94-.39l-2.27-.94c-1.46,2.34-2.5,4.85-3.12,7.53l2.27,.94c2.05,.85,3.1,2.79,3.15,4.66,.04,1.95-1.12,3.94-3.15,4.78l-2.26,.94c.49,1.97,.88,3.06,1.23,3.91,.35,.85,.84,1.89,1.89,3.63l2.26-.94c.64-.26,1.3-.39,1.96-.39,1.38,0,2.72,.56,3.66,1.57,1.37,1.46,1.87,3.53,1.06,5.5l-.94,2.27c2.34,1.46,4.85,2.5,7.53,3.12l.94-2.27c.81-1.96,2.62-3.07,4.64-3.14,.05,0,.1,0,.15,0,1.93,0,3.84,1.16,4.66,3.15l.94,2.26c1.95-.49,3.04-.87,3.91-1.23,.87-.36,1.9-.85,3.63-1.89l-.94-2.26c-.84-2.02-.27-4.25,1.15-5.61,.94-.89,2.22-1.46,3.59-1.46,.63,0,1.29,.12,1.93,.39l2.27,.94c1.46-2.34,2.5-4.85,3.12-7.53l-2.27-.94c-1.98-.82-3.08-2.66-3.14-4.64-.06-1.92,1.04-3.94,3.14-4.81l2.26-.94c-.49-1.96-.87-3.04-1.23-3.91-.36-.87-.85-1.9-1.89-3.63l-2.26,.94c-.66,.27-1.33,.4-1.97,.4-1.43,0-2.75-.61-3.65-1.55-1.31-1.36-1.91-3.49-1.07-5.52l.94-2.27c-2.34-1.46-4.85-2.5-7.53-3.12l-.92,2.31c-.81,1.96-2.81,3.06-4.68,3.1-.04,0-.08,0-.12,0-1.95,0-3.81-1.1-4.67-3.15l-.94-2.26h0Zm5.7,33.33c-3.53,0-6.92-2.09-8.36-5.55-1.9-4.58,.33-9.88,4.87-11.77,1.11-.46,2.27-.68,3.41-.68,3.55,0,6.93,2.11,8.36,5.55,1.9,4.59-.33,9.88-4.87,11.77-1.11,.46-2.27,.68-3.41,.68h0Z" fill="#323232"/></g><path d="M89.41,95.91c-6.12,2.54-9.03,9.56-6.49,15.68,2.54,6.12,9.56,9.03,15.68,6.49s9.03-9.56,6.49-15.68-9.56-9.03-15.68-6.49Zm8.42,20.33c-5.1,2.11-10.95-.31-13.07-5.41-2.11-5.1,.31-10.95,5.41-13.07s10.95,.31,13.07,5.41-.31,10.95-5.41,13.07Z" fill="url(#linear-gradient-7)"/><g opacity=".2"><path d="M111.87,105.89c0,.14,.03,.27,.04,.41,.21-2.22,1.65-4.21,3.76-5.08l1.43-.59c-.1-.36-.19-.69-.28-.98l-1.15,.48c-2.32,.96-3.85,3.28-3.79,5.77Z"/><path d="M81.42,118.51c-1.14-1.19-2.74-1.87-4.4-1.87-.81,0-1.6,.16-2.37,.48l-1.43,.59c-.75-1.3-1.11-2.1-1.37-2.73-.19-.47-.42-1.05-.68-1.92l-.28,.12c.39,1.44,.7,2.27,.96,2.9,.26,.62,.62,1.43,1.37,2.73l1.43-.59c.76-.32,1.56-.48,2.37-.48,1.66,0,3.26,.68,4.4,1.87,1.02,1.06,1.6,2.42,1.71,3.82,.18-1.77-.43-3.57-1.71-4.91Z"/><path d="M104.86,89.28c.06-.58,.2-1.16,.43-1.72l.6-1.44c-.12-.07-.25-.13-.37-.2l-.22,.54c-.38,.91-.51,1.87-.43,2.82Z"/><path d="M72.34,101.22c2.15,.89,3.55,2.87,3.74,5.21,.02-.25,.04-.49,.04-.75-.08-2.5-1.52-4.63-3.78-5.57l-1.14-.47c-.1,.32-.21,.65-.3,.97l1.44,.6Z"/><path d="M83.13,89.32c.08-.96-.05-1.94-.44-2.86l-.22-.54c-.12,.07-.23,.13-.37,.21l.59,1.43c.24,.57,.38,1.16,.44,1.76Z"/><path d="M114.78,117.7l-1.44-.6c-.75-.31-1.54-.47-2.33-.47-1.56,0-3.08,.62-4.27,1.73-1.4,1.31-2.06,3.14-1.88,4.98,.12-1.45,.76-2.84,1.88-3.89,1.19-1.12,2.71-1.73,4.27-1.73,.8,0,1.58,.16,2.33,.47l1.44,.6c1.02-1.77,1.8-3.65,2.33-5.61l-.3-.12c-.51,1.61-1.18,3.17-2.03,4.64Z"/><path d="M103.17,127.94c-.63,.26-1.45,.57-2.9,.96l-.59-1.43c-.97-2.34-3.13-3.8-5.63-3.8h-.14c-2.46,.05-4.71,1.56-5.62,3.75l-.58,1.47c-1.83-.49-3.58-1.21-5.23-2.12l-.37,.9c1.76,1.01,3.64,1.79,5.6,2.32l.58-1.47c.91-2.2,3.17-3.7,5.62-3.75h.14c2.5,0,4.66,1.45,5.63,3.79l.59,1.43c1.44-.39,2.27-.7,2.9-.96,.63-.26,1.43-.63,2.73-1.37l-.37-.89c-1.07,.6-1.8,.93-2.36,1.16Z"/></g><g><path d="M76.13,108.01c0-.14-.03-.27-.04-.41-.21,2.22-1.65,4.21-3.76,5.08l-1.43,.59c.1,.36,.19,.69,.28,.98l1.15-.48c2.32-.96,3.85-3.28,3.79-5.77Z" fill="#fff"/><path d="M106.58,95.4c1.14,1.19,2.74,1.87,4.4,1.87,.81,0,1.6-.16,2.37-.48l1.43-.59c.75,1.3,1.11,2.1,1.37,2.73,.19,.47,.42,1.05,.68,1.92l.28-.12c-.39-1.44-.7-2.27-.96-2.9-.26-.62-.62-1.43-1.37-2.73l-1.43,.59c-.76,.32-1.56,.48-2.37,.48-1.66,0-3.26-.68-4.4-1.87-1.02-1.06-1.6-2.42-1.71-3.82-.18,1.77,.43,3.57,1.71,4.91Z" fill="#fff"/><path d="M83.14,124.62c-.06,.58-.2,1.16-.43,1.72l-.6,1.44c.12,.07,.25,.13,.37,.2l.22-.54c.38-.91,.51-1.87,.43-2.82Z" fill="#fff"/><path d="M115.66,112.68c-2.15-.89-3.55-2.87-3.74-5.21-.02,.25-.04,.49-.04,.75,.08,2.5,1.52,4.63,3.78,5.57l1.14,.47c.1-.32,.21-.65,.3-.97l-1.44-.6Z" fill="#fff"/><path d="M104.87,124.58c-.08,.96,.05,1.94,.44,2.86l.22,.54c.13-.07,.23-.13,.37-.21l-.59-1.43c-.24-.57-.38-1.16-.44-1.76Z" fill="#fff"/><path d="M73.22,96.2l1.44,.6c.75,.31,1.54,.47,2.33,.47,1.56,0,3.08-.62,4.27-1.73,1.4-1.31,2.06-3.14,1.88-4.98-.12,1.45-.76,2.84-1.88,3.89-1.19,1.12-2.71,1.73-4.27,1.73-.8,0-1.58-.16-2.33-.47l-1.44-.6c-1.02,1.77-1.8,3.65-2.33,5.61l.3,.12c.51-1.61,1.18-3.17,2.03-4.64Z" fill="#fff"/><path d="M84.83,85.96c.63-.26,1.45-.57,2.9-.96l.59,1.43c.97,2.34,3.13,3.8,5.63,3.8h.14c2.46-.05,4.71-1.56,5.62-3.75l.58-1.47c1.83,.49,3.58,1.21,5.23,2.12l.37-.9c-1.76-1.01-3.64-1.79-5.6-2.32l-.58,1.47c-.91,2.2-3.17,3.7-5.62,3.75h-.14c-2.5,0-4.66-1.45-5.63-3.79l-.59-1.43c-1.44,.39-2.27,.7-2.9,.96-.63,.26-1.43,.63-2.73,1.37l.37,.89c1.07-.6,1.8-.93,2.36-1.16Z" fill="#fff"/></g></g></svg>
