<svg xmlns="http://www.w3.org/2000/svg" xmlns:xlink="http://www.w3.org/1999/xlink" viewBox="0 0 200 150"><defs><linearGradient id="a" x1="63.77" y1="12.25" x2="136.23" y2="137.75" gradientUnits="userSpaceOnUse"><stop offset="0" stop-color="#f5f5f5"/><stop offset="1" stop-color="#bebebe"/></linearGradient><linearGradient id="b" x1="118.44" y1="107.97" x2="132.65" y2="87.97" gradientUnits="userSpaceOnUse"><stop offset="0.57" stop-opacity="0"/><stop offset="0.82"/></linearGradient><linearGradient id="c" x1="121.14" y1="104.72" x2="132.24" y2="87.98" gradientTransform="matrix(-1, 0, 0, 1, 200, 0)" gradientUnits="userSpaceOnUse"><stop offset="0.5" stop-opacity="0"/><stop offset="0.84"/></linearGradient><linearGradient id="d" x1="111.57" y1="94" x2="155.11" y2="94" gradientTransform="translate(113.65 -67.95) rotate(47.89)" gradientUnits="userSpaceOnUse"><stop offset="0" stop-color="#fff" stop-opacity="0"/><stop offset="0.03" stop-color="#fff" stop-opacity="0.02"/><stop offset="0.07" stop-color="#fefefe" stop-opacity="0.07"/><stop offset="0.1" stop-color="#fefefe" stop-opacity="0.15"/><stop offset="0.14" stop-color="#fdfdfd" stop-opacity="0.27"/><stop offset="0.18" stop-color="#fcfcfc" stop-opacity="0.42"/><stop offset="0.21" stop-color="#fafafa" stop-opacity="0.61"/><stop offset="0.25" stop-color="#f8f8f8" stop-opacity="0.82"/><stop offset="0.28" stop-color="#f7f7f7"/><stop offset="1" stop-color="#f7f7f7" stop-opacity="0"/></linearGradient><linearGradient id="e" x1="178.25" y1="94" x2="221.79" y2="94" gradientTransform="matrix(-0.74, -0.67, -0.67, 0.74, 278.08, 158.4)" gradientUnits="userSpaceOnUse"><stop offset="0" stop-opacity="0"/><stop offset="0.28"/><stop offset="1" stop-opacity="0"/></linearGradient><linearGradient id="f" x1="100" y1="95.58" x2="100" y2="49.52" gradientUnits="userSpaceOnUse"><stop offset="0" stop-opacity="0"/><stop offset="1"/></linearGradient><linearGradient id="g" x1="93.95" y1="26.76" x2="127.66" y2="85.15" gradientUnits="userSpaceOnUse"><stop offset="0" stop-color="#fff"/><stop offset="1" stop-color="#d2d2d2"/></linearGradient></defs><rect x="33.5" y="25.5" width="133" height="99" rx="10" fill="url(#a)"/><path d="M156.5,123H43.5a9.51,9.51,0,0,1-9.5-9.5v1a9.51,9.51,0,0,0,9.5,9.5h113a9.51,9.51,0,0,0,9.5-9.5v-1A9.51,9.51,0,0,1,156.5,123Z" opacity="0.2"/><g opacity="0.3"><polygon points="154.44 113.74 98.71 79.3 111.57 75 154.44 113.74" fill="url(#b)"/><polygon points="45.56 113.74 101.29 79.3 88.43 75 45.56 113.74" fill="url(#c)"/></g><rect x="132.84" y="65.11" width="1" height="57.78" transform="translate(-25.81 129.88) rotate(-47.89)" fill="url(#d)"/><rect x="37.77" y="93.5" width="57.78" height="1" transform="translate(-45.82 68.97) rotate(-42.11)" opacity="0.2" fill="url(#e)"/><path d="M45.34,25.5H154.66c11.54,0,16.21,17.68,6.75,25.54l-54,44.88a11.22,11.22,0,0,1-14.72,0L38.59,51C29.13,43.18,33.8,25.5,45.34,25.5Z" opacity="0.3" fill="url(#f)"/><path d="M45.09,25.5H154.91c11.43,0,16.08,14.71,6.73,21.27l-54.3,38.14a12.78,12.78,0,0,1-14.68,0L38.36,46.77C29,40.21,33.66,25.5,45.09,25.5Z" stroke="#787878" stroke-linejoin="round" fill="url(#g)"/><path d="M34.41,34.82A11,11,0,0,1,45.09,27H154.91a11,11,0,0,1,10.68,7.82,11.54,11.54,0,0,1,.53,3,11.42,11.42,0,0,0-.53-4A11,11,0,0,0,154.91,26H45.09a11,11,0,0,0-10.68,7.82,11.42,11.42,0,0,0-.53,4A11.54,11.54,0,0,1,34.41,34.82Z" fill="#fff"/><path d="M161.35,45.37,107.05,83.5a12.3,12.3,0,0,1-14.1,0L38.65,45.37a11,11,0,0,1-4.77-8.58,11,11,0,0,0,4.77,9.58L93,84.5a12.3,12.3,0,0,0,14.1,0l54.3-38.13a11,11,0,0,0,4.77-9.58A11,11,0,0,1,161.35,45.37Z" opacity="0.2"/><rect x="33.5" y="25.5" width="133" height="99" rx="10" fill="none" stroke="#323232" stroke-linejoin="round"/></svg>