<svg id="Layer_1" data-name="Layer 1" xmlns="http://www.w3.org/2000/svg" xmlns:xlink="http://www.w3.org/1999/xlink" viewBox="0 0 200 150"><defs><style>.cls-1{fill:url(#linear-gradient);}.cls-2{stroke:#807c7b;fill:url(#linear-gradient-2);}.cls-2,.cls-24,.cls-3,.cls-4,.cls-6,.cls-7,.cls-8{stroke-linejoin:round;}.cls-2,.cls-3,.cls-4,.cls-6,.cls-7,.cls-8{stroke-width:1.13px;}.cls-3,.cls-4,.cls-6,.cls-7,.cls-8{stroke:#113553;}.cls-3{fill:url(#linear-gradient-3);}.cls-4{fill:url(#linear-gradient-4);}.cls-5{fill:url(#linear-gradient-5);}.cls-24,.cls-6,.cls-7,.cls-8{fill:none;}.cls-7{stroke-dasharray:2.52 2.52 2.52 2.52;}.cls-8{stroke-dasharray:2.52 2.52 2.52 2.52 2.52 2.52;}.cls-9{fill:url(#linear-gradient-6);}.cls-10,.cls-14{opacity:0.5;}.cls-10{fill:url(#linear-gradient-7);}.cls-11{fill:url(#linear-gradient-8);}.cls-12{fill:#787878;}.cls-13{fill:#323232;}.cls-15{fill:#fff;}.cls-16{fill:#c64d2d;}.cls-17{fill:url(#linear-gradient-9);}.cls-18{fill:url(#linear-gradient-10);}.cls-19{fill:url(#linear-gradient-11);}.cls-20{fill:url(#linear-gradient-12);}.cls-21{fill:url(#linear-gradient-13);}.cls-22,.cls-23{opacity:0.2;}.cls-22{fill:url(#New_Gradient_Swatch_1);}.cls-23{fill:url(#radial-gradient);}.cls-24{stroke:#fff;stroke-width:3px;}.cls-25{fill:url(#linear-gradient-16);}</style><linearGradient id="linear-gradient" x1="85.18" y1="27.57" x2="143.42" y2="128.44" gradientUnits="userSpaceOnUse"><stop offset="0" stop-color="#fff"/><stop offset="1" stop-color="#d2d2d2"/></linearGradient><linearGradient id="linear-gradient-2" x1="98.43" y1="38.5" x2="140.57" y2="111.5" gradientUnits="userSpaceOnUse"><stop offset="0" stop-color="#fff"/><stop offset="1" stop-color="#f6f6f7"/></linearGradient><linearGradient id="linear-gradient-3" x1="111.89" y1="44.38" x2="127.11" y2="70.74" gradientUnits="userSpaceOnUse"><stop offset="0" stop-color="#9fd9f6"/><stop offset="1" stop-color="#366c8d"/></linearGradient><linearGradient id="linear-gradient-4" x1="111.89" y1="79.26" x2="127.11" y2="105.62" xlink:href="#linear-gradient-3"/><linearGradient id="linear-gradient-5" x1="89.43" y1="52.81" x2="115.37" y2="97.74" xlink:href="#linear-gradient-3"/><linearGradient id="linear-gradient-6" x1="123.18" y1="52.81" x2="149.12" y2="97.74" xlink:href="#linear-gradient-3"/><linearGradient id="linear-gradient-7" x1="128.76" y1="55" x2="156" y2="55" gradientUnits="userSpaceOnUse"><stop offset="0" stop-opacity="0"/><stop offset="1"/></linearGradient><linearGradient id="linear-gradient-8" x1="134.22" y1="51.26" x2="141.92" y2="42.15" gradientUnits="userSpaceOnUse"><stop offset="0" stop-color="#f5f5f5"/><stop offset="1" stop-color="#bebebe"/></linearGradient><linearGradient id="linear-gradient-9" x1="56.28" y1="109.64" x2="104" y2="109.64" gradientUnits="userSpaceOnUse"><stop offset="0" stop-color="#be472b"/><stop offset="1" stop-color="#9b2920"/></linearGradient><linearGradient id="linear-gradient-10" x1="47" y1="89.76" x2="104" y2="89.76" gradientUnits="userSpaceOnUse"><stop offset="0" stop-color="#db5c2e"/><stop offset="1" stop-color="#be4227"/></linearGradient><linearGradient id="linear-gradient-11" x1="59.3" y1="87.47" x2="88.22" y2="87.47" gradientUnits="userSpaceOnUse"><stop offset="0" stop-color="#f48752"/><stop offset="1" stop-color="#eb6533"/></linearGradient><linearGradient id="linear-gradient-12" x1="69.52" y1="87.4" x2="79.48" y2="87.4" xlink:href="#linear-gradient-11"/><linearGradient id="linear-gradient-13" x1="50.31" y1="89.76" x2="99.36" y2="89.76" xlink:href="#linear-gradient-11"/><linearGradient id="New_Gradient_Swatch_1" x1="47.67" y1="73.38" x2="90.69" y2="81.76" gradientUnits="userSpaceOnUse"><stop offset="0" stop-color="#fff"/><stop offset="1" stop-color="#fff" stop-opacity="0.2"/></linearGradient><radialGradient id="radial-gradient" cx="59.42" cy="117.53" r="7.58" gradientTransform="matrix(0.91, -0.37, 0.21, 0.53, -21.57, 74.67)" gradientUnits="userSpaceOnUse"><stop offset="0" stop-color="#fff"/><stop offset="1" stop-color="#fff" stop-opacity="0"/></radialGradient><linearGradient id="linear-gradient-16" x1="59.3" y1="87.47" x2="88.22" y2="87.47" xlink:href="#linear-gradient-10"/></defs><path class="cls-1" d="M154.05,122H85a2,2,0,0,1-2-2V30A2,2,0,0,1,85,28H131l25,25.46v66.59A2,2,0,0,1,154.05,122Z"/><rect class="cls-2" x="97.56" y="39" width="43.87" height="72"/><rect class="cls-3" x="110.5" y="45.19" width="18" height="24.75"/><rect class="cls-4" x="110.5" y="80.06" width="18" height="24.75"/><line class="cls-5" x1="102.63" y1="45.19" x2="102.17" y2="105.36"/><line class="cls-6" x1="102.63" y1="45.19" x2="102.62" y2="46.31"/><line class="cls-7" x1="102.6" y1="48.83" x2="102.53" y2="57.64"/><line class="cls-8" x1="102.52" y1="58.9" x2="102.19" y2="102.97"/><line class="cls-6" x1="102.18" y1="104.23" x2="102.17" y2="105.36"/><line class="cls-9" x1="136.38" y1="45.19" x2="135.92" y2="105.36"/><line class="cls-6" x1="136.38" y1="45.19" x2="136.37" y2="46.31"/><line class="cls-7" x1="136.35" y1="48.83" x2="136.28" y2="57.64"/><line class="cls-8" x1="136.27" y1="58.9" x2="135.94" y2="102.97"/><line class="cls-6" x1="135.93" y1="104.23" x2="135.92" y2="105.36"/><path class="cls-10" d="M129,52v3.69c-.69,1,.2,1.77,1.3,2.31H156V53.93L154.11,52Z"/><path class="cls-11" d="M131,53.34a.29.29,0,0,1-.29-.29v-23l23.26,23.26Z"/><path class="cls-12" d="M132.32,34.1,149.9,51.68H132.32V34.1M130.93,28H129v25A2,2,0,0,0,131,55H156V53.07L130.93,28Z"/><path class="cls-13" d="M129.63,31.32l23.05,23.5v63.86H86.32V31.32h43.31M131,28H85A2,2,0,0,0,83,30v90.1a2,2,0,0,0,2,2h69.1a2,2,0,0,0,1.95-2V53.46L131,28Z"/><g class="cls-14"><polygon class="cls-15" points="47 73.19 47 79.15 56.28 122.23 64.23 115.61 53.63 73.19 47 73.19"/><polygon class="cls-15" points="104 105.66 104 99.7 101.35 97.05 56.28 112.95 56.28 116.27 56.28 122.23 104 105.66"/><polygon class="cls-15" points="47 73.19 56.28 115.61 104 99.7 88.09 63.91 47 73.19"/><path class="cls-15" d="M87.51,65.06l15.13,34L57,114.3,48.19,73.94l39.32-8.88m.58-1.15L47,73.19l9.28,42.41L104,99.7,88.09,63.91Z"/><path class="cls-15" d="M73.94,75.51a23.73,23.73,0,0,0-5.32.63,11.1,11.1,0,0,0-7.31,5.17A14.37,14.37,0,0,0,59.65,91.7c.83,3.24,5.71,7.73,12.7,7.73a17.63,17.63,0,0,0,5.87-1c5.75-2,12-6.2,9.36-14.68C86.29,79.64,81.56,75.51,73.94,75.51Zm-1.6,22.6-6.67-20L84,83.1Z"/><path class="cls-15" d="M73.94,76.51c7.12,0,11.5,3.77,12.69,7.52,2,6.19-1,10.71-8.75,13.43a17.12,17.12,0,0,1-4.5.94L84.79,83.71l.92-1.18-1.44-.4-16.86-4.6a13.13,13.13,0,0,1,1.43-.42,23,23,0,0,1,5.1-.6m-9.06,2.35,6.5,19.54c-5.89-.39-10.07-4.24-10.76-7a13.29,13.29,0,0,1,1.55-9.62,9.92,9.92,0,0,1,2.71-3m9.06-3.35a23.73,23.73,0,0,0-5.32.63,11.1,11.1,0,0,0-7.31,5.17A14.37,14.37,0,0,0,59.65,91.7c.83,3.24,5.71,7.73,12.7,7.73a17.63,17.63,0,0,0,5.87-1c5.75-2,12-6.2,9.36-14.68-1.29-4.08-6-8.21-13.64-8.21Zm-1.6,22.6-6.67-20L84,83.1l-11.66,15Z"/><polygon class="cls-15" points="73.51 93.07 79.48 84.45 69.52 81.73 73.51 93.07"/><path class="cls-15" d="M71.1,83.2l6.75,1.85-4,5.84L71.1,83.2m-1.58-1.47,4,11.34,6-8.62-10-2.72Z"/><path class="cls-15" d="M86.1,67.88l-35.79,8,8,35.79L99.36,97.71Zm-6.81,33.6a21,21,0,0,1-6.94,1.21c-8.23,0-14.57-5.19-15.85-10.17C54.87,86.2,57.41,75.35,67.89,73a27,27,0,0,1,6-.71c8.84,0,15,4.85,16.75,10.49C93.08,90.27,90.27,97.63,79.29,101.48Z"/><path class="cls-15" d="M85.52,69l4.39,9.87c-2.66-3.92-7.6-7.22-14.53-7.62L85.52,69M62.43,74.17a15.31,15.31,0,0,0-4.75,4.92,18.66,18.66,0,0,0-2.15,13.68c1.38,5.37,8,10.92,16.82,10.92a22,22,0,0,0,7.27-1.27C89.72,98.89,94.16,92,91.94,83.48L98,97.11,59,110.32,51.51,76.6l10.92-2.43M86.1,67.88l-35.79,8,8,35.79L99.36,97.71,86.1,67.88ZM72.35,102.69c-8.23,0-14.57-5.19-15.85-10.17C54.87,86.2,57.41,75.35,67.89,73a27,27,0,0,1,6-.71c8.84,0,15,4.85,16.75,10.49,2.39,7.53-.42,14.89-11.4,18.74a21,21,0,0,1-6.94,1.21Z"/><path class="cls-15" d="M47,73.19,50.9,91a22.13,22.13,0,0,0,14.77.42C77.11,87.62,76.46,78.8,86.5,77.26c5-.77,8,.83,8,.83L88.17,63.91Z"/><polygon class="cls-15" points="54.54 107.65 56.28 115.61 56.28 120.91 57.6 120.91 57.6 116.93 64.55 114.8 64.23 112.95 57.6 115.07 56.28 107.65 54.54 107.65"/><polygon class="cls-16" points="47 73.19 47 79.15 56.28 122.23 64.23 115.61 53.63 73.19 47 73.19"/><polygon class="cls-17" points="104 105.66 104 99.7 101.35 97.05 56.28 112.95 56.28 116.27 56.28 122.23 104 105.66"/><polygon class="cls-18" points="47 73.19 56.28 115.61 104 99.7 88.09 63.91 47 73.19"/><path class="cls-19" d="M73.94,75.51a23.73,23.73,0,0,0-5.32.63,11.1,11.1,0,0,0-7.31,5.17A14.37,14.37,0,0,0,59.65,91.7c.83,3.24,5.71,7.73,12.7,7.73a17.63,17.63,0,0,0,5.87-1c5.75-2,12-6.2,9.36-14.68C86.29,79.64,81.56,75.51,73.94,75.51Zm-1.6,22.6-6.67-20L84,83.1Z"/><polygon class="cls-20" points="73.51 93.07 79.48 84.45 69.52 81.73 73.51 93.07"/><path class="cls-21" d="M86.1,67.88l-35.79,8,8,35.79L99.36,97.71Zm-6.81,33.6a21,21,0,0,1-6.94,1.21c-8.23,0-14.57-5.19-15.85-10.17C54.87,86.2,57.41,75.35,67.89,73a27,27,0,0,1,6-.71c8.84,0,15,4.85,16.75,10.49C93.08,90.27,90.27,97.63,79.29,101.48Z"/><path class="cls-22" d="M47,73.19,50.9,91a22.13,22.13,0,0,0,14.77.42C77.11,87.62,76.46,78.8,86.5,77.26c5-.77,8,.83,8,.83L88.17,63.91Z"/><polygon class="cls-23" points="54.54 107.65 56.28 115.61 56.28 120.91 57.6 120.91 57.6 116.93 64.55 114.8 64.23 112.95 57.6 115.07 56.28 107.65 54.54 107.65"/><polygon class="cls-24" points="47 73.19 47 79.15 56.28 122.23 64.23 115.61 53.63 73.19 47 73.19"/><polygon class="cls-24" points="104 105.66 104 99.7 101.35 97.05 56.28 112.95 56.28 116.27 56.28 122.23 104 105.66"/><polygon class="cls-24" points="47 73.19 56.28 115.61 104 99.7 88.09 63.91 47 73.19"/><path class="cls-24" d="M87.51,65.06l15.13,34L57,114.3,48.19,73.94l39.32-8.88m.58-1.15L47,73.19l9.28,42.41L104,99.7,88.09,63.91Z"/><path class="cls-24" d="M73.94,75.51a23.73,23.73,0,0,0-5.32.63,11.1,11.1,0,0,0-7.31,5.17A14.37,14.37,0,0,0,59.65,91.7c.83,3.24,5.71,7.73,12.7,7.73a17.63,17.63,0,0,0,5.87-1c5.75-2,12-6.2,9.36-14.68C86.29,79.64,81.56,75.51,73.94,75.51Zm-1.6,22.6-6.67-20L84,83.1Z"/><path class="cls-24" d="M73.94,76.51c7.12,0,11.5,3.77,12.69,7.52,2,6.19-1,10.71-8.75,13.43a17.12,17.12,0,0,1-4.5.94L84.79,83.71l.92-1.18-1.44-.4-16.86-4.6a13.13,13.13,0,0,1,1.43-.42,23,23,0,0,1,5.1-.6m-9.06,2.35,6.5,19.54c-5.89-.39-10.07-4.24-10.76-7a13.29,13.29,0,0,1,1.55-9.62,9.92,9.92,0,0,1,2.71-3m9.06-3.35a23.73,23.73,0,0,0-5.32.63,11.1,11.1,0,0,0-7.31,5.17A14.37,14.37,0,0,0,59.65,91.7c.83,3.24,5.71,7.73,12.7,7.73a17.63,17.63,0,0,0,5.87-1c5.75-2,12-6.2,9.36-14.68-1.29-4.08-6-8.21-13.64-8.21Zm-1.6,22.6-6.67-20L84,83.1l-11.66,15Z"/><polygon class="cls-24" points="73.51 93.07 79.48 84.45 69.52 81.73 73.51 93.07"/><path class="cls-24" d="M71.1,83.2l6.75,1.85-4,5.84L71.1,83.2m-1.58-1.47,4,11.34,6-8.62-10-2.72Z"/><path class="cls-24" d="M86.1,67.88l-35.79,8,8,35.79L99.36,97.71Zm-6.81,33.6a21,21,0,0,1-6.94,1.21c-8.23,0-14.57-5.19-15.85-10.17C54.87,86.2,57.41,75.35,67.89,73a27,27,0,0,1,6-.71c8.84,0,15,4.85,16.75,10.49C93.08,90.27,90.27,97.63,79.29,101.48Z"/><path class="cls-24" d="M85.52,69l4.39,9.87c-2.66-3.92-7.6-7.22-14.53-7.62L85.52,69M62.43,74.17a15.31,15.31,0,0,0-4.75,4.92,18.66,18.66,0,0,0-2.15,13.68c1.38,5.37,8,10.92,16.82,10.92a22,22,0,0,0,7.27-1.27C89.72,98.89,94.16,92,91.94,83.48L98,97.11,59,110.32,51.51,76.6l10.92-2.43M86.1,67.88l-35.79,8,8,35.79L99.36,97.71,86.1,67.88ZM72.35,102.69c-8.23,0-14.57-5.19-15.85-10.17C54.87,86.2,57.41,75.35,67.89,73a27,27,0,0,1,6-.71c8.84,0,15,4.85,16.75,10.49,2.39,7.53-.42,14.89-11.4,18.74a21,21,0,0,1-6.94,1.21Z"/><path class="cls-24" d="M47,73.19,50.9,91a22.13,22.13,0,0,0,14.77.42C77.11,87.62,76.46,78.8,86.5,77.26c5-.77,8,.83,8,.83L88.17,63.91Z"/><polygon class="cls-24" points="54.54 107.65 56.28 115.61 56.28 120.91 57.6 120.91 57.6 116.93 64.55 114.8 64.23 112.95 57.6 115.07 56.28 107.65 54.54 107.65"/></g><polygon class="cls-16" points="47 73.19 47 79.15 56.28 122.23 64.23 115.61 53.63 73.19 47 73.19"/><polygon class="cls-17" points="104 105.66 104 99.7 101.35 97.05 56.28 112.95 56.28 116.27 56.28 122.23 104 105.66"/><polygon class="cls-18" points="47 73.19 56.28 115.61 104 99.7 88.09 63.91 47 73.19"/><path class="cls-15" d="M79.32,101.74A21,21,0,0,1,72.38,103c-8.23,0-14.57-5.19-15.86-10.18-1.63-6.31.92-17.16,11.4-19.55a27,27,0,0,1,6-.71c8.83,0,15,4.85,16.74,10.49C93.11,90.53,90.3,97.89,79.32,101.74Z"/><path class="cls-25" d="M73.94,75.51a23.73,23.73,0,0,0-5.32.63,11.1,11.1,0,0,0-7.31,5.17A14.37,14.37,0,0,0,59.65,91.7c.83,3.24,5.71,7.73,12.7,7.73a17.63,17.63,0,0,0,5.87-1c5.75-2,12-6.2,9.36-14.68C86.29,79.64,81.56,75.51,73.94,75.51Zm-1.6,22.6-6.67-20L84,83.1Z"/><path class="cls-21" d="M86.1,67.88l-35.79,8,8,35.79L99.36,97.71Zm-6.81,33.6a21,21,0,0,1-6.94,1.21c-8.23,0-14.57-5.19-15.85-10.17C54.87,86.2,57.41,75.35,67.89,73a27,27,0,0,1,6-.71c8.84,0,15,4.85,16.75,10.49C93.08,90.27,90.27,97.63,79.29,101.48Z"/><path class="cls-22" d="M47,73.19,50.9,91a22.13,22.13,0,0,0,14.77.42C77.11,87.62,76.46,78.8,86.5,77.26c5-.77,8,.83,8,.83L88.17,63.91Z"/><polygon class="cls-23" points="54.54 107.65 56.28 115.61 56.28 120.91 57.6 120.91 57.6 116.93 64.55 114.8 64.23 112.95 57.6 115.07 56.28 107.65 54.54 107.65"/></svg>
