<svg xmlns="http://www.w3.org/2000/svg" xmlns:xlink="http://www.w3.org/1999/xlink" viewBox="0 0 130.53 158.42"><defs><style>.cls-1{fill:#174c9b;}.cls-2{fill:url(#linear-gradient);}.cls-3{opacity:0.3;filter:url(#DS_GaussianBlur_2);}.cls-4{fill:#010101;}.cls-5{fill:#233d7c;}.cls-6{fill:url(#linear-gradient-2);}.cls-7{fill:#797979;}.cls-8{fill:#333232;}.cls-9{fill:#2b67b0;stroke:#333;stroke-miterlimit:10;}.cls-10{font-size:29px;fill:#fff;font-family:ArialMT, Arial;letter-spacing:-0.02em;}.cls-11{letter-spacing:0em;}.cls-12{letter-spacing:-0.02em;}</style><linearGradient id="linear-gradient" x1="4.93" y1="11.8" x2="95.66" y2="168.94" gradientUnits="userSpaceOnUse"><stop offset="0" stop-color="#fff"/><stop offset="1" stop-color="#d3d3d3"/></linearGradient><filter id="DS_GaussianBlur_2" x="-50%" y="-50%" width="200%" height="200%" name="DS_GaussianBlur_2"><feGaussianBlur stdDeviation="1"/></filter><linearGradient id="linear-gradient-2" x1="96.83" y1="32.22" x2="75.95" y2="48.1" gradientUnits="userSpaceOnUse"><stop offset="0" stop-color="#d3d3d3"/><stop offset="0" stop-color="#d4d4d4"/><stop offset="0.16" stop-color="#e7e7e7"/><stop offset="0.35" stop-color="#f5f5f5"/><stop offset="0.58" stop-color="#fdfdfd"/><stop offset="1" stop-color="#fff"/></linearGradient></defs><g id="Layer_2" data-name="Layer 2"><g id="Layer_1-2" data-name="Layer 1"><polygon class="cls-1" points="130.05 77.45 104 54.45 104 94.71 130.05 77.45"/><path class="cls-2" d="M113.1,158.42H2.9a2.9,2.9,0,0,1-2.9-2.9V16.32a2.9,2.9,0,0,1,2.9-2.9H78.3L116,51.12v104.4A2.9,2.9,0,0,1,113.1,158.42Z"/><g class="cls-3"><polygon class="cls-4" points="78.33 18.85 78.33 56.55 113.13 56.55 78.33 18.85"/></g><path class="cls-5" d="M18,134.42v-90H56.43q14.49,0,21.06,2.43A20.82,20.82,0,0,1,88,55.47,25.94,25.94,0,0,1,92,69.65q0,10.14-6,16.73T68.08,94.7a42.54,42.54,0,0,1,9.78,7.55q3.86,4.13,10.39,14.61l11,17.56H73.36L61.07,115.13q-6.54-10.32-9-13A13,13,0,0,0,47,98.42q-2.7-1-8.55-1H35v37Zm20-52H51.61q13.22,0,16.51-1.11a9.88,9.88,0,0,0,5.16-3.83,11.79,11.79,0,0,0,1.87-6.8,10.81,10.81,0,0,0-2.46-7.39,11.29,11.29,0,0,0-6.92-3.56q-2.23-.3-13.42-.31H38Z"/><polygon class="cls-6" points="75.5 52.92 75.5 13.55 77.72 13.55 115.5 50.75 115.5 52.92 75.5 52.92"/><path class="cls-7" d="M77.52,14.05,115,51v1.46H76V14.05h1.52m.41-1H75V53.42h41V50.54L77.93,13.05Z"/><path class="cls-8" d="M77.91,14.05,115,51.16v104a1.9,1.9,0,0,1-1.9,1.9H2.93a1.9,1.9,0,0,1-1.9-1.9V16a1.9,1.9,0,0,1,1.9-1.9h75m.42-1H2.93A2.9,2.9,0,0,0,0,16v139.2a2.9,2.9,0,0,0,2.9,2.9h110.2a2.9,2.9,0,0,0,2.9-2.9V50.75l-37.7-37.7Z"/><rect class="cls-9" x="59.5" y="77.92" width="70" height="38"/><text class="cls-10" transform="translate(67.59 108.38) scale(0.97 1)">R<tspan class="cls-11" x="20.42" y="0">V</tspan><tspan class="cls-12" x="39.76" y="0">T</tspan></text></g></g></svg>
