<?xml version="1.0" encoding="UTF-8"?><svg id="Layer_1" xmlns="http://www.w3.org/2000/svg" xmlns:xlink="http://www.w3.org/1999/xlink" viewBox="0 0 200 150"><defs><linearGradient id="linear-gradient" x1="59.03" y1="25.98" x2="112.39" y2="118.39" gradientTransform="matrix(1, 0, 0, 1, 0, 0)" gradientUnits="userSpaceOnUse"><stop offset="0" stop-color="#f5f5f5"/><stop offset="1" stop-color="#bebebe"/></linearGradient><linearGradient id="linear-gradient-2" x1="82.58" y1="12.31" x2="125.23" y2="86.17" gradientTransform="matrix(1, 0, 0, 1, 0, 0)" gradientUnits="userSpaceOnUse"><stop offset="0" stop-color="#fff"/><stop offset="1" stop-color="#f0f0f0"/></linearGradient><linearGradient id="linear-gradient-3" x1="91.35" y1="48.71" x2="130.09" y2="115.81" gradientTransform="matrix(1, 0, 0, 1, 0, 0)" gradientUnits="userSpaceOnUse"><stop offset="0" stop-color="#fff"/><stop offset="1" stop-color="#d2d2d2"/></linearGradient><linearGradient id="linear-gradient-4" x1="96.45" y1="60.94" x2="126.55" y2="113.06" gradientTransform="matrix(1, 0, 0, 1, 0, 0)" gradientUnits="userSpaceOnUse"><stop offset="0" stop-color="#8cd7f5"/><stop offset="1" stop-color="#376e8c"/></linearGradient></defs><polygon points="154 76 140 62 140 87 154 76" fill="#003755"/><g><g><polygon points="49.5 93.81 49.5 31.48 91.82 29.51 127.5 60.23 127.5 109.67 81.13 129.4 49.5 93.81" fill="url(#linear-gradient)"/><path d="M91.65,30.02l35.35,30.44v48.88l-45.73,19.46-31.27-35.18V31.95l41.65-1.94m.35-1.02l-43,2v63l32,36,47-20V60l-36-31h0Z" fill="#787878"/></g><g><polygon points="92.09 61.97 49.5 31.74 49.5 31.41 101.94 20.52 142.48 39.31 140.53 77.33 92.09 61.97" fill="url(#linear-gradient-2)"/><path d="M101.88,21.05l40.09,18.58-1.9,37.03-47.75-15.14L50.36,31.74l51.52-10.69m.12-1.05l-53,11v1l42.86,30.42,49.14,15.58,2-39-41-19h0Z" fill="#787878"/></g><g><polygon points="81.5 54.39 142.5 39.64 142.5 108.64 81.5 129.3 81.5 54.39" fill="url(#linear-gradient-3)"/><path d="M142,40.27V108.28l-60,20.32V54.79l60-14.52m1-1.27l-62,15v76l62-21V39h0Z" fill="#787878"/></g><path d="M101.88,21.05l40.12,18.59V108.28l-60.69,20.56-31.31-35.22V31.81l51.88-10.77m.12-1.05l-53,11v63l32,36,62-21V39l-41-19h0Z" fill="#323232"/></g><g><rect x="69.5" y="76.5" width="84" height="21" fill="url(#linear-gradient-4)"/><path d="M153,77v20H70v-20h83m1-1H69v22h85v-22h0Z" fill="#003755"/></g><g><path d="M74.45,89.31l1.61-.14c.08,.64,.25,1.17,.53,1.59,.28,.41,.71,.75,1.3,1,.59,.25,1.25,.38,1.98,.38,.65,0,1.22-.1,1.72-.29s.87-.46,1.11-.79,.36-.71,.36-1.1-.12-.76-.35-1.06-.62-.56-1.16-.76c-.35-.13-1.11-.34-2.29-.63s-2.01-.55-2.49-.8c-.62-.32-1.07-.72-1.38-1.2s-.45-1.01-.45-1.6c0-.65,.18-1.26,.55-1.82s.91-1,1.62-1.29,1.5-.44,2.36-.44c.96,0,1.8,.15,2.53,.46,.73,.31,1.29,.76,1.68,1.36s.6,1.27,.63,2.03l-1.63,.12c-.09-.81-.39-1.43-.89-1.85s-1.26-.62-2.25-.62-1.78,.19-2.25,.57c-.47,.38-.71,.83-.71,1.37,0,.46,.17,.84,.5,1.14,.33,.3,1.19,.61,2.57,.92,1.39,.31,2.34,.59,2.85,.82,.75,.35,1.3,.78,1.66,1.31s.54,1.14,.54,1.83-.2,1.33-.59,1.94c-.39,.61-.96,1.08-1.69,1.42-.74,.34-1.56,.5-2.48,.5-1.17,0-2.14-.17-2.93-.51s-1.41-.85-1.85-1.53c-.45-.68-.68-1.45-.71-2.32Z" fill="#fff"/><path d="M86.96,93.45v-12.88h1.71v11.36h6.35v1.52h-8.05Z" fill="#fff"/><path d="M97.05,93.45v-12.88h4.44c1,0,1.77,.06,2.29,.18,.74,.17,1.37,.48,1.89,.92,.68,.57,1.19,1.31,1.53,2.2,.34,.89,.5,1.92,.5,3.06,0,.98-.11,1.85-.34,2.6s-.52,1.38-.88,1.88c-.36,.5-.75,.89-1.17,1.17-.42,.28-.94,.5-1.54,.65-.6,.15-1.29,.22-2.07,.22h-4.65Zm1.71-1.52h2.75c.85,0,1.52-.08,2-.24,.48-.16,.87-.38,1.16-.67,.4-.4,.72-.95,.94-1.63,.23-.68,.34-1.51,.34-2.48,0-1.35-.22-2.38-.66-3.11-.44-.72-.98-1.21-1.61-1.45-.46-.18-1.19-.26-2.21-.26h-2.71v9.84Z" fill="#fff"/><path d="M113.74,93.45l4.98-6.71-4.39-6.17h2.03l2.34,3.3c.49,.69,.83,1.21,1.04,1.58,.29-.47,.63-.96,1.02-1.47l2.59-3.42h1.85l-4.53,6.07,4.88,6.81h-2.11l-3.24-4.6c-.18-.26-.37-.55-.56-.86-.29,.47-.49,.79-.62,.97l-3.23,4.49h-2.05Z" fill="#fff"/><path d="M127,93.45v-12.88h2.57l3.05,9.12c.28,.85,.49,1.49,.62,1.91,.15-.47,.38-1.16,.69-2.07l3.08-8.96h2.29v12.88h-1.64v-10.78l-3.74,10.78h-1.54l-3.73-10.97v10.97h-1.64Z" fill="#fff"/><path d="M141.98,93.45v-12.88h1.71v11.36h6.35v1.52h-8.05Z" fill="#fff"/></g></svg>
