<svg xmlns="http://www.w3.org/2000/svg" width="64" height="64" viewBox="0 0 64 64">
  <title>36856_I_3DEXCITE_Roleicon</title>
  <rect x="9" y="42" width="46" height="14" rx="6" fill="#fff"/>
  <g>
    <g>
      <circle cx="32" cy="25" r="18" fill="#fff"/>
      <path d="M32,8A17,17,0,0,1,49,25h0A17,17,0,0,1,32,42h0A17,17,0,0,1,15,25h0A17,17,0,0,1,32,8h0m0-2A19,19,0,1,0,51,25,19.021,19.021,0,0,0,32,6Z" fill="#fff"/>
    </g>
    <g>
      <circle cx="32" cy="25" r="16.5" fill="#fff"/>
      <path d="M32,9A16,16,0,1,1,16,25,16.019,16.019,0,0,1,32,9m0-1h0A17,17,0,0,0,15,25h0A17,17,0,0,0,32,42h0A17,17,0,0,0,49,25h0A17,17,0,0,0,32,8Z" fill="#231f20"/>
    </g>
    <path d="M37.8,19.548a1.021,1.021,0,0,1-.408.832L33,23.76v8.947a1,1,0,1,1-2,0V23.76l-4.388-3.38a1.025,1.025,0,0,1,.62-1.844.954.954,0,0,1,.621.228L32,22.845l4.147-4.081a.954.954,0,0,1,.621-.228A1.027,1.027,0,0,1,37.8,19.548Zm-5.8.881a1.355,1.355,0,1,1,1.355-1.355A1.332,1.332,0,0,1,32,20.429Z" fill="#231f20"/>
  </g>
  <g>
    <path d="M12.587,50.883a6.5,6.5,0,0,0,.747.148,5.722,5.722,0,0,0,.819.059,2.681,2.681,0,0,0,.585-.059,1.169,1.169,0,0,0,.446-.193.872.872,0,0,0,.283-.359,1.418,1.418,0,0,0,.1-.568.917.917,0,0,0-.36-.809,1.7,1.7,0,0,0-.99-.252h-.684v-.613l1.674-1.8H12.551v-.721h3.807v.63L14.585,48.2h.009a2.692,2.692,0,0,1,.679.09,1.846,1.846,0,0,1,.626.293,1.5,1.5,0,0,1,.63,1.291,2.156,2.156,0,0,1-.171.909,1.475,1.475,0,0,1-.477.59,2.013,2.013,0,0,1-.734.319,4.116,4.116,0,0,1-.931.1,7.356,7.356,0,0,1-.9-.054,7.081,7.081,0,0,1-.806-.144Z" fill="#231f20"/>
    <path d="M18.257,45.717h2.025a3.5,3.5,0,0,1,1.138.171,2.072,2.072,0,0,1,.842.531,2.366,2.366,0,0,1,.522.914,4.28,4.28,0,0,1,.18,1.318,5.559,5.559,0,0,1-.144,1.324,2.461,2.461,0,0,1-.477.989,2.13,2.13,0,0,1-.868.621,3.542,3.542,0,0,1-1.319.216,8.132,8.132,0,0,1-.923-.054,8.674,8.674,0,0,1-.976-.171Zm.945,5.292a5.45,5.45,0,0,0,.981.081,1.6,1.6,0,0,0,1.377-.585,3.132,3.132,0,0,0,.432-1.845,3.942,3.942,0,0,0-.117-1.03,1.858,1.858,0,0,0-.333-.693,1.254,1.254,0,0,0-.536-.387,2.024,2.024,0,0,0-.724-.122H19.2Z" fill="#231f20"/>
    <path d="M26.069,51.7a2.1,2.1,0,0,1-1.269-.338,1.254,1.254,0,0,1-.459-1.084V45.717h3.591v.711H25.286v1.854h2.385v.711H25.286v1.3a.621.621,0,0,0,.22.549,1.036,1.036,0,0,0,.6.153h1.944V51.7Z" fill="#231f20"/>
    <path d="M28.643,51.7l2.07-3.033L28.76,45.717h1.089L31.3,47.94l1.512-2.223h1.008l-2.025,2.926L33.846,51.7H32.738l-1.53-2.34L29.642,51.7Z" fill="#231f20"/>
    <path d="M38.579,51.612a4.814,4.814,0,0,1-.774.144,7.32,7.32,0,0,1-.791.045,3.792,3.792,0,0,1-1.118-.153,1.938,1.938,0,0,1-.84-.513,2.29,2.29,0,0,1-.527-.954,6.175,6.175,0,0,1,0-2.952,2.268,2.268,0,0,1,.527-.95,1.94,1.94,0,0,1,.85-.5,4.082,4.082,0,0,1,1.143-.148,7.172,7.172,0,0,1,.783.045q.4.045.721.108l-.109.72a6.572,6.572,0,0,0-.706-.117A6.691,6.691,0,0,0,37,46.338a2.181,2.181,0,0,0-.733.112,1.121,1.121,0,0,0-.518.383,1.863,1.863,0,0,0-.31.725,5.174,5.174,0,0,0-.1,1.138,5.317,5.317,0,0,0,.107,1.175,1.865,1.865,0,0,0,.32.733,1.111,1.111,0,0,0,.531.378,2.316,2.316,0,0,0,.742.108,4.965,4.965,0,0,0,.733-.059c.262-.038.506-.082.735-.13Z" fill="#231f20"/>
    <path d="M39.947,51.7V45.717h.946V51.7Z" fill="#231f20"/>
    <path d="M43.934,51.7V46.428H41.972v-.711h4.869v.711H44.879V51.7Z" fill="#231f20"/>
    <path d="M49.576,51.7a2.094,2.094,0,0,1-1.268-.338,1.254,1.254,0,0,1-.459-1.084V45.717h3.59v.711H48.793v1.854h2.386v.711H48.793v1.3a.621.621,0,0,0,.221.549,1.036,1.036,0,0,0,.6.153h1.944V51.7Z" fill="#231f20"/>
  </g>
</svg>
