<svg xmlns="http://www.w3.org/2000/svg" width="64" height="64" viewBox="0 0 64 64">
  <title>36857_I_3DVIA_Roleicon_r21x</title>
  <rect x="16" y="42" width="32" height="14" rx="6" fill="#fff"/>
  <g>
    <g>
      <circle cx="32" cy="25" r="18" fill="#fff"/>
      <path d="M32,8A17,17,0,0,1,49,25h0A17,17,0,0,1,32,42h0A17,17,0,0,1,15,25h0A17,17,0,0,1,32,8h0m0-2A19,19,0,1,0,51,25,19.021,19.021,0,0,0,32,6Z" fill="#fff"/>
    </g>
    <g>
      <circle cx="32" cy="25" r="16.5" fill="#fff"/>
      <path d="M32,9A16,16,0,1,1,16,25,16.019,16.019,0,0,1,32,9m0-1h0A17,17,0,0,0,15,25h0A17,17,0,0,0,32,42h0A17,17,0,0,0,49,25h0A17,17,0,0,0,32,8Z"/>
    </g>
    <path d="M37.8,19.548a1.021,1.021,0,0,1-.408.832L33,23.76v8.947a1,1,0,1,1-2,0V23.76l-4.388-3.38a1.025,1.025,0,0,1,.62-1.844.954.954,0,0,1,.621.228L32,22.845l4.147-4.081a.954.954,0,0,1,.621-.228A1.027,1.027,0,0,1,37.8,19.548Zm-5.8.881a1.355,1.355,0,1,1,1.355-1.355A1.332,1.332,0,0,1,32,20.429Z"/>
  </g>
  <g>
    <path d="M19.8,50.883a6.5,6.5,0,0,0,.747.148,5.722,5.722,0,0,0,.819.059,2.681,2.681,0,0,0,.585-.059,1.169,1.169,0,0,0,.446-.193.872.872,0,0,0,.283-.359,1.418,1.418,0,0,0,.1-.568.917.917,0,0,0-.36-.809,1.7,1.7,0,0,0-.99-.252h-.684v-.613l1.674-1.8H19.76v-.721h3.807v.63L21.794,48.2H21.8a2.692,2.692,0,0,1,.679.09,1.846,1.846,0,0,1,.626.293,1.5,1.5,0,0,1,.63,1.291,2.156,2.156,0,0,1-.171.909,1.475,1.475,0,0,1-.477.59,2.013,2.013,0,0,1-.734.319,4.116,4.116,0,0,1-.931.1,7.356,7.356,0,0,1-.9-.054,7.042,7.042,0,0,1-.806-.144Z"/>
    <path d="M25.466,45.717h2.025a3.5,3.5,0,0,1,1.138.171,2.072,2.072,0,0,1,.842.531,2.366,2.366,0,0,1,.522.914,4.28,4.28,0,0,1,.18,1.318,5.559,5.559,0,0,1-.144,1.324,2.461,2.461,0,0,1-.477.989,2.13,2.13,0,0,1-.868.621,3.542,3.542,0,0,1-1.319.216,8.132,8.132,0,0,1-.923-.054,8.674,8.674,0,0,1-.976-.171Zm.945,5.292a5.45,5.45,0,0,0,.981.081,1.6,1.6,0,0,0,1.377-.585A3.132,3.132,0,0,0,29.2,48.66a3.942,3.942,0,0,0-.117-1.03,1.858,1.858,0,0,0-.333-.693,1.254,1.254,0,0,0-.536-.387,2.024,2.024,0,0,0-.724-.122h-1.08Z"/>
    <path d="M32.81,51.7l-2.25-5.985h1L33.4,50.739c.151-.336.307-.69.473-1.062s.325-.766.48-1.184.3-.855.428-1.318a12.334,12.334,0,0,0,.311-1.458h.89a10.563,10.563,0,0,1-.332,1.616q-.225.778-.513,1.517T34.506,50.3q-.347.711-.7,1.4Z"/>
    <path d="M36.914,51.7V45.717h.945V51.7Z"/>
    <path d="M39.551,51.7V47.814a3.225,3.225,0,0,1,.113-.886,1.706,1.706,0,0,1,.377-.694,1.742,1.742,0,0,1,.7-.45,3.247,3.247,0,0,1,1.084-.157,3.291,3.291,0,0,1,1.089.157,1.72,1.72,0,0,1,.706.45,1.7,1.7,0,0,1,.379.694,3.3,3.3,0,0,1,.112.886V51.7h-.945V49.488h-2.69V51.7Zm.928-2.925h2.69v-.99a2.454,2.454,0,0,0-.064-.58,1.12,1.12,0,0,0-.219-.459,1.055,1.055,0,0,0-.414-.3,1.669,1.669,0,0,0-.644-.108,1.691,1.691,0,0,0-.652.108,1.048,1.048,0,0,0-.414.3,1.11,1.11,0,0,0-.221.459,2.51,2.51,0,0,0-.062.58Z"/>
  </g>
</svg>
