<svg xmlns="http://www.w3.org/2000/svg" width="64" height="64" viewBox="0 0 64 64"><defs><style>.cls-1{fill:#fff;}.cls-2{fill:#005686;}.cls-3{fill:#003c5a;stroke:#fff;stroke-miterlimit:10;}</style></defs><g id="it_2" data-name="it 2"><circle class="cls-1" cx="32" cy="25" r="18"/><path class="cls-1" d="M32,8A17,17,0,0,1,49,25h0A17,17,0,0,1,32,42h0A17,17,0,0,1,15,25h0A17,17,0,0,1,32,8h0m0-2A19,19,0,1,0,51,25,19,19,0,0,0,32,6Z"/><circle class="cls-1" cx="32" cy="25" r="16.5"/><path class="cls-2" d="M32,9A16,16,0,1,1,16,25,16,16,0,0,1,32,9m0-1h0A17,17,0,0,0,15,25h0A17,17,0,0,0,32,42h0A17,17,0,0,0,49,25h0A17,17,0,0,0,32,8Z"/><path class="cls-2" d="M37.8,19.55a1,1,0,0,1-.41.83L33,23.76v9a1,1,0,1,1-2,0V23.76l-4.39-3.38a1,1,0,0,1,.62-1.84.94.94,0,0,1,.62.22L32,22.85l4.15-4.09a.94.94,0,0,1,.62-.22A1,1,0,0,1,37.8,19.55Zm-5.8.88a1.36,1.36,0,1,1,1.35-1.36A1.33,1.33,0,0,1,32,20.43Z"/></g><g id="Layer_3" data-name="Layer 3"><circle class="cls-3" cx="16" cy="42" r="10"/><path class="cls-1" d="M16.73,42.86a1.13,1.13,0,0,1,0,.25A3.61,3.61,0,0,1,16,44.44a7.56,7.56,0,0,1-1.14,1.12,8.38,8.38,0,0,1-1.36.89c-.48.26-.94.48-1.37.66a9.61,9.61,0,0,1-1.17.4,3.37,3.37,0,0,1-.76.13.44.44,0,0,1-.17,0,.12.12,0,0,1,0-.1.69.69,0,0,1,.06-.24,2.41,2.41,0,0,1,.15-.33l.16-.33.13-.25c.25-.46.52-.92.81-1.36s.58-.88.88-1.28l.17-.25.21-.25a1.37,1.37,0,0,1,.23-.2.37.37,0,0,1,.22-.09.13.13,0,0,1,.14.14.94.94,0,0,1-.12.38c-.08.16-.16.31-.24.44l-.29.51-.36.63a5.79,5.79,0,0,0-.3.62,1.36,1.36,0,0,0-.12.45c0,.08,0,.12.07.13h.11a1.63,1.63,0,0,0,.55-.14,6.41,6.41,0,0,0,.72-.38c.25-.16.51-.35.78-.55a9,9,0,0,0,.71-.65,4,4,0,0,0,.52-.69,1.35,1.35,0,0,0,.2-.65.68.68,0,0,0-.05-.27.64.64,0,0,0-.37-.35,2.63,2.63,0,0,0-.67-.19,6.2,6.2,0,0,0-.79-.08l-.76,0h-.61a2.89,2.89,0,0,1-.52,0q-.24,0-.24-.18c0-.06.09-.13.26-.19a4.57,4.57,0,0,1,.64-.19l.84-.14c.3,0,.58,0,.84,0a7.22,7.22,0,0,1,.88.06,4.18,4.18,0,0,1,.91.21,2,2,0,0,1,.7.42A.88.88,0,0,1,16.73,42.86ZM15.16,36.7h-.41a2.63,2.63,0,0,1-.49,0c-.15,0-.23-.08-.23-.17s.06-.12.18-.18a2.38,2.38,0,0,1,.51-.16,6.41,6.41,0,0,1,.76-.12,6.81,6.81,0,0,1,.92,0,5.73,5.73,0,0,1,.82,0,3.15,3.15,0,0,1,.79.18,1.65,1.65,0,0,1,.6.37.89.89,0,0,1,.23.63,1.77,1.77,0,0,1-.26.87,4.42,4.42,0,0,1-.68.86,8.87,8.87,0,0,1-.92.79c-.34.25-.66.47-1,.66a8.86,8.86,0,0,1-.86.44,1.7,1.7,0,0,1-.56.17h-.05c-.07,0-.11,0-.11-.11a.2.2,0,0,1,0-.08,1.41,1.41,0,0,1,.24-.28,6,6,0,0,1,.49-.39A10.07,10.07,0,0,0,17,38.56a2,2,0,0,0,.57-1.1.47.47,0,0,0-.1-.3.93.93,0,0,0-.31-.18,3,3,0,0,0-.54-.15l-.69-.1C15.69,36.71,15.42,36.7,15.16,36.7Zm6,3.93c-.43,0-.79,0-1.1,0a4.65,4.65,0,0,0-.75.08.91.91,0,0,0-.43.17.34.34,0,0,0-.15.3.88.88,0,0,0,.12.43,2.93,2.93,0,0,0,.3.45,5.87,5.87,0,0,0,.42.5l.49.56.16.18q.38.45.69.9a1.47,1.47,0,0,1,.31.86.77.77,0,0,1,0,.25,1,1,0,0,1-.35.53,1.71,1.71,0,0,1-.6.32,3.4,3.4,0,0,1-.76.16,7.81,7.81,0,0,1-.83,0c-.27,0-.54,0-.79,0l-.72-.06-.59-.08-.41-.07a.66.66,0,0,1-.33-.12.17.17,0,0,1-.09-.14.15.15,0,0,1,.1-.14.51.51,0,0,1,.24-.06l.43,0,.52,0,.5,0h.54c.23,0,.46,0,.69,0a3.87,3.87,0,0,0,.64-.11.61.61,0,0,0,.38-.21.32.32,0,0,0,.06-.22,1,1,0,0,0-.18-.5,5.47,5.47,0,0,0-.46-.62l-.59-.69c-.22-.25-.41-.49-.6-.73a7.67,7.67,0,0,1-.46-.71,1.39,1.39,0,0,1-.18-.64.77.77,0,0,1,.13-.45,1.15,1.15,0,0,1,.4-.39,2.32,2.32,0,0,1,.53-.24,3.25,3.25,0,0,1,.62-.13,4.73,4.73,0,0,1,.65,0c.21,0,.42,0,.62,0l.55.07c.28,0,.52.08.73.13a.55.55,0,0,1,.4.25.13.13,0,0,1,0,.06.11.11,0,0,1-.09.11.76.76,0,0,1-.21.06l-.27,0Z"/></g></svg>