<svg xmlns="http://www.w3.org/2000/svg" viewBox="0 0 64 64"><rect x="1" y="42" width="62" height="14" rx="6" fill="#fff"/><circle cx="32" cy="25" r="18" fill="#fff"/><path d="M32,8A17,17,0,0,1,49,25h0A17,17,0,0,1,32,42h0A17,17,0,0,1,15,25h0A17,17,0,0,1,32,8h0m0-2A19,19,0,1,0,51,25,19,19,0,0,0,32,6Z" fill="#fff"/><circle cx="32" cy="25" r="16.5" fill="#fff"/><path d="M32,9A16,16,0,1,1,16,25,16,16,0,0,1,32,9m0-1h0A17,17,0,0,0,15,25h0A17,17,0,0,0,32,42h0A17,17,0,0,0,49,25h0A17,17,0,0,0,32,8Z" fill="#ffcd00"/><path d="M37.8,19.55a1,1,0,0,1-.41.83L33,23.76v9a1,1,0,1,1-2,0V23.76l-4.39-3.38a1,1,0,0,1,.62-1.84.94.94,0,0,1,.62.22L32,22.85l4.15-4.09a.94.94,0,0,1,.62-.22A1,1,0,0,1,37.8,19.55Zm-5.8.88a1.36,1.36,0,1,1,1.35-1.36A1.33,1.33,0,0,1,32,20.43Z" fill="#ffcd00"/><path d="M5.11,45.72a2.4,2.4,0,0,1,.95.17,1.66,1.66,0,0,1,.7.53,2.34,2.34,0,0,1,.44.91,5.1,5.1,0,0,1,.15,1.32A6.6,6.6,0,0,1,7.23,50a2.78,2.78,0,0,1-.4,1,1.74,1.74,0,0,1-.72.62A2.45,2.45,0,0,1,5,51.8a6.78,6.78,0,0,1-.77,0,5.44,5.44,0,0,1-.84-.17V45.72ZM4.33,51l.31,0H5a1.07,1.07,0,0,0,1-.59,3.86,3.86,0,0,0,.33-1.84,5.12,5.12,0,0,0-.09-1,2,2,0,0,0-.25-.69.94.94,0,0,0-.4-.39,1.19,1.19,0,0,0-.54-.12H4.33Z" fill="#ffcd00"/><path d="M12.08,45.72v.71H10v1.85h1.91V49H10v1.3a.79.79,0,0,0,.15.55.57.57,0,0,0,.42.15h1.64v.71H10.51a1.65,1.65,0,0,1-1.09-.33A1.37,1.37,0,0,1,9,50.28V45.72Z" fill="#ffcd00"/><path d="M14.83,45.72V51h2v.71h-3v-6Z" fill="#ffcd00"/><path d="M19.35,45.72,21,48.79l1.65-3.07h1v6h-.92V47.3l-1.34,2.52h-.76l-1.32-2.51V51.7h-.93v-6Z" fill="#ffcd00"/><path d="M26.62,45.72v6h-.94v-6Z" fill="#ffcd00"/><path d="M29.46,51.7h-.92V47.81a3.94,3.94,0,0,1,.1-.88,1.94,1.94,0,0,1,.31-.7,1.57,1.57,0,0,1,.59-.45,2.4,2.4,0,0,1,.91-.15,2.46,2.46,0,0,1,.92.15,1.57,1.57,0,0,1,.59.45,1.94,1.94,0,0,1,.31.7,3.43,3.43,0,0,1,.1.88V51.7h-.94V49.49h-2Zm2-2.92v-1a3.52,3.52,0,0,0,0-.58,1.46,1.46,0,0,0-.16-.46.88.88,0,0,0-.78-.4.84.84,0,0,0-.47.11.86.86,0,0,0-.31.29,1.25,1.25,0,0,0-.16.46,3.48,3.48,0,0,0-.05.58v1Z" fill="#ffcd00"/><path d="M37.91,51.7l-1-3.56L35.83,51.7h-.89l-1.31-6h.9l.95,4.69,1-3.53h.87l1,3.55c.09-.31.19-.65.28-1s.19-.77.28-1.18.18-.83.26-1.25.15-.84.22-1.25h.83c-.08.49-.17,1-.28,1.55s-.23,1.08-.36,1.61-.27,1-.42,1.52-.28.92-.42,1.3Z" fill="#ffcd00"/><path d="M45.57,48.71a5.82,5.82,0,0,1-.14,1.42,2.65,2.65,0,0,1-.41,1,1.59,1.59,0,0,1-.67.54,2.36,2.36,0,0,1-.92.17,2.45,2.45,0,0,1-.93-.17,1.59,1.59,0,0,1-.67-.54,2.65,2.65,0,0,1-.41-1,7.22,7.22,0,0,1,0-2.83,2.65,2.65,0,0,1,.41-1,1.52,1.52,0,0,1,.67-.54,2.27,2.27,0,0,1,.93-.17,2.19,2.19,0,0,1,.92.17,1.52,1.52,0,0,1,.67.54,2.65,2.65,0,0,1,.41,1A5.79,5.79,0,0,1,45.57,48.71Zm-1,0a7.07,7.07,0,0,0-.08-1.12,2.43,2.43,0,0,0-.22-.73.91.91,0,0,0-.37-.4,1,1,0,0,0-.5-.12,1.07,1.07,0,0,0-.51.12.91.91,0,0,0-.37.4,2.43,2.43,0,0,0-.22.73,7.07,7.07,0,0,0-.08,1.12,6.89,6.89,0,0,0,.08,1.12,2.41,2.41,0,0,0,.22.74,1,1,0,0,0,.37.4,1.07,1.07,0,0,0,.51.12,1,1,0,0,0,.5-.12,1,1,0,0,0,.37-.4,2.41,2.41,0,0,0,.22-.74A6.89,6.89,0,0,0,44.6,48.71Z" fill="#ffcd00"/><path d="M48.93,45.72a3.49,3.49,0,0,1,.84.09,1.42,1.42,0,0,1,.6.3,1.39,1.39,0,0,1,.36.57,2.84,2.84,0,0,1,.13.89,2.33,2.33,0,0,1-.08.62,1.44,1.44,0,0,1-.21.45,1.15,1.15,0,0,1-.3.32,1.39,1.39,0,0,1-.4.21,1.83,1.83,0,0,1,.29.18,1,1,0,0,1,.19.22,2.09,2.09,0,0,1,.14.3,3.78,3.78,0,0,1,.12.36L51,51.7h-1l-.38-1.27a2.89,2.89,0,0,0-.29-.7.58.58,0,0,0-.52-.27h-.32a3.16,3.16,0,0,1-.32,0V51.7H47.3v-6Zm-.69,3a1.48,1.48,0,0,0,.35.05h.32a1,1,0,0,0,.79-.28,1.42,1.42,0,0,0,.22-.9,2.83,2.83,0,0,0-.05-.56.83.83,0,0,0-.18-.35.57.57,0,0,0-.31-.18,1.44,1.44,0,0,0-.44,0h-.7Z" fill="#ffcd00"/><path d="M53.61,45.72v2.92l2-2.92h1l-1.86,2.73a1.86,1.86,0,0,1,.47.29,2.33,2.33,0,0,1,.36.4,3.18,3.18,0,0,1,.28.52c.09.19.17.39.25.61l.54,1.43h-1l-.43-1.22a4.33,4.33,0,0,0-.41-.89.92.92,0,0,0-.56-.45l-.59.82V51.7h-.94v-6Z" fill="#ffcd00"/><path d="M60.73,46.48l-.3,0-.34,0a1.73,1.73,0,0,0-.32,0H59.5a2,2,0,0,0-.35,0,.77.77,0,0,0-.28.09.52.52,0,0,0-.19.2.69.69,0,0,0-.07.34.72.72,0,0,0,.18.46,3.73,3.73,0,0,0,.44.47l.58.49a5.89,5.89,0,0,1,.58.54,2.74,2.74,0,0,1,.44.63A1.71,1.71,0,0,1,60.88,51a1,1,0,0,1-.34.45,1.38,1.38,0,0,1-.53.26,2.91,2.91,0,0,1-.69.08,5.45,5.45,0,0,1-.89-.08,3.56,3.56,0,0,1-.75-.22l.11-.71a5.44,5.44,0,0,0,.7.21,3.56,3.56,0,0,0,.76.09,1,1,0,0,0,.57-.15.61.61,0,0,0,.22-.55.92.92,0,0,0-.18-.54,2.87,2.87,0,0,0-.44-.5c-.18-.17-.37-.33-.58-.5a4.83,4.83,0,0,1-.57-.53,2.8,2.8,0,0,1-.45-.59,1.36,1.36,0,0,1-.18-.68,1.34,1.34,0,0,1,.15-.66,1.1,1.1,0,0,1,.39-.44,1.81,1.81,0,0,1,.6-.25,3.32,3.32,0,0,1,.72-.07l.67,0a5.3,5.3,0,0,1,.63.09Z" fill="#ffcd00"/></svg>