<svg xmlns="http://www.w3.org/2000/svg" width="64" height="64" viewBox="0 0 64 64">
  <title>36860_I_DELMIA_Roleicon</title>
  <rect x="13" y="42" width="38" height="14" rx="6" fill="#fff"/>
  <g>
    <g>
      <circle cx="32" cy="25" r="18" fill="#fff"/>
      <path d="M32,8A17,17,0,0,1,49,25h0A17,17,0,0,1,32,42h0A17,17,0,0,1,15,25h0A17,17,0,0,1,32,8h0m0-2A19,19,0,1,0,51,25,19.021,19.021,0,0,0,32,6Z" fill="#fff"/>
    </g>
    <g>
      <circle cx="32" cy="25" r="16.5" fill="#fff"/>
      <path d="M32,9A16,16,0,1,1,16,25,16.019,16.019,0,0,1,32,9m0-1h0A17,17,0,0,0,15,25h0A17,17,0,0,0,32,42h0A17,17,0,0,0,49,25h0A17,17,0,0,0,32,8Z" fill="#ffcd00"/>
    </g>
    <path d="M37.8,19.548a1.021,1.021,0,0,1-.408.832L33,23.76v8.947a1,1,0,1,1-2,0V23.76l-4.388-3.38a1.025,1.025,0,0,1,.62-1.844.954.954,0,0,1,.621.228L32,22.845l4.147-4.081a.954.954,0,0,1,.621-.228A1.027,1.027,0,0,1,37.8,19.548Zm-5.8.881a1.355,1.355,0,1,1,1.355-1.355A1.332,1.332,0,0,1,32,20.429Z" fill="#ffcd00"/>
  </g>
  <g>
    <path d="M16.412,45.717h2.025a3.51,3.51,0,0,1,1.139.171,2.068,2.068,0,0,1,.841.531,2.366,2.366,0,0,1,.522.914,4.28,4.28,0,0,1,.18,1.318,5.559,5.559,0,0,1-.144,1.324,2.461,2.461,0,0,1-.477.989,2.13,2.13,0,0,1-.868.621,3.542,3.542,0,0,1-1.319.216,8.115,8.115,0,0,1-.922-.054,8.69,8.69,0,0,1-.977-.171Zm.945,5.292a5.45,5.45,0,0,0,.981.081,1.6,1.6,0,0,0,1.377-.585,3.132,3.132,0,0,0,.432-1.845,3.942,3.942,0,0,0-.117-1.03,1.858,1.858,0,0,0-.333-.693,1.251,1.251,0,0,0-.535-.387,2.03,2.03,0,0,0-.725-.122h-1.08Z" fill="#ffcd00"/>
    <path d="M24.224,51.7a2.1,2.1,0,0,1-1.269-.338A1.254,1.254,0,0,1,22.5,50.28V45.717h3.591v.711H23.441v1.854h2.385v.711H23.441v1.3a.621.621,0,0,0,.221.549,1.032,1.032,0,0,0,.6.153H26.2V51.7Z" fill="#ffcd00"/>
    <path d="M27.662,51.7V45.717h.945v5.274h2.557V51.7Z" fill="#ffcd00"/>
    <path d="M32.3,51.7V45.717h1.035l2.15,3.231,2.161-3.231h1.026V51.7h-.927V47l-1.881,2.826H35.1L33.232,47V51.7Z" fill="#ffcd00"/>
    <path d="M40.523,51.7V45.717h.946V51.7Z" fill="#ffcd00"/>
    <path d="M43.16,51.7V47.814a3.265,3.265,0,0,1,.112-.886,1.634,1.634,0,0,1,1.081-1.144,3.835,3.835,0,0,1,2.172,0,1.717,1.717,0,0,1,.707.45,1.7,1.7,0,0,1,.378.694,3.225,3.225,0,0,1,.113.886V51.7h-.946V49.488h-2.69V51.7Zm.927-2.925h2.69v-.99a2.51,2.51,0,0,0-.062-.58,1.11,1.11,0,0,0-.221-.459,1.041,1.041,0,0,0-.414-.3,1.658,1.658,0,0,0-.642-.108,1.689,1.689,0,0,0-.653.108,1.048,1.048,0,0,0-.414.3,1.11,1.11,0,0,0-.221.459,2.455,2.455,0,0,0-.063.58Z" fill="#ffcd00"/>
  </g>
</svg>
