<svg xmlns="http://www.w3.org/2000/svg" width="64" height="64" viewBox="0 0 64 64">
  <title>36861_I_ENOVIA_Roleicon</title>
  <rect x="13" y="42" width="38" height="14" rx="6" fill="#fff"/>
  <g>
    <g>
      <circle cx="32" cy="25" r="18" fill="#fff"/>
      <path d="M32,8A17,17,0,0,1,49,25h0A17,17,0,0,1,32,42h0A17,17,0,0,1,15,25h0A17,17,0,0,1,32,8h0m0-2A19,19,0,1,0,51,25,19.021,19.021,0,0,0,32,6Z" fill="#fff"/>
    </g>
    <g>
      <circle cx="32" cy="25" r="16.5" fill="#fff"/>
      <path d="M32,9A16,16,0,1,1,16,25,16.019,16.019,0,0,1,32,9m0-1h0A17,17,0,0,0,15,25h0A17,17,0,0,0,32,42h0A17,17,0,0,0,49,25h0A17,17,0,0,0,32,8Z" fill="#e87722"/>
    </g>
    <path d="M37.8,19.548a1.021,1.021,0,0,1-.408.832L33,23.76v8.947a1,1,0,1,1-2,0V23.76l-4.388-3.38a1.025,1.025,0,0,1,.62-1.844.954.954,0,0,1,.621.228L32,22.845l4.147-4.081a.954.954,0,0,1,.621-.228A1.027,1.027,0,0,1,37.8,19.548Zm-5.8.881a1.355,1.355,0,1,1,1.355-1.355A1.332,1.332,0,0,1,32,20.429Z" fill="#e87722"/>
  </g>
  <g>
    <path d="M18.455,51.7a2.1,2.1,0,0,1-1.269-.338,1.254,1.254,0,0,1-.459-1.084V45.717h3.591v.711H17.672v1.854h2.385v.711H17.672v1.3a.621.621,0,0,0,.221.549,1.032,1.032,0,0,0,.6.153h1.944V51.7Z" fill="#e87722"/>
    <path d="M21.893,51.7V45.717h.756l3.267,3.5v-3.5h.918V51.7h-.918V50.353L22.8,47.059V51.7Z" fill="#e87722"/>
    <path d="M29.741,51.63a1.872,1.872,0,0,1-.8-.544,2.469,2.469,0,0,1-.491-.959,6.1,6.1,0,0,1,0-2.826,2.471,2.471,0,0,1,.491-.958,1.878,1.878,0,0,1,.8-.545,3.344,3.344,0,0,1,1.112-.171,3.307,3.307,0,0,1,1.1.171,1.881,1.881,0,0,1,.806.545,2.471,2.471,0,0,1,.491.958,6.1,6.1,0,0,1,0,2.826,2.469,2.469,0,0,1-.491.959,1.87,1.87,0,0,1-.806.544,3.282,3.282,0,0,1-1.1.171A3.355,3.355,0,0,1,29.741,51.63Zm-.072-1.062a1.183,1.183,0,0,0,.5.4,2.008,2.008,0,0,0,1.373,0,1.121,1.121,0,0,0,.5-.4,2.008,2.008,0,0,0,.3-.733,6.391,6.391,0,0,0,0-2.241,2.014,2.014,0,0,0-.3-.734,1.119,1.119,0,0,0-.5-.4,1.992,1.992,0,0,0-1.373,0,1.153,1.153,0,0,0-.5.4,1.947,1.947,0,0,0-.3.734,6.391,6.391,0,0,0,0,2.241A1.991,1.991,0,0,0,29.669,50.568Z" fill="#e87722"/>
    <path d="M36.059,51.7l-2.25-5.985h1l1.844,5.022q.225-.5.472-1.062t.482-1.184c.157-.416.3-.855.428-1.318a12.334,12.334,0,0,0,.311-1.458h.89a10.809,10.809,0,0,1-.333,1.616q-.225.778-.512,1.517T37.756,50.3q-.348.711-.7,1.4Z" fill="#e87722"/>
    <path d="M40.162,51.7V45.717h.945V51.7Z" fill="#e87722"/>
    <path d="M42.8,51.7V47.814a3.265,3.265,0,0,1,.112-.886,1.708,1.708,0,0,1,.378-.694,1.731,1.731,0,0,1,.7-.45,3.251,3.251,0,0,1,1.084-.157,3.3,3.3,0,0,1,1.09.157,1.733,1.733,0,0,1,.706.45,1.7,1.7,0,0,1,.378.694,3.264,3.264,0,0,1,.113.886V51.7h-.945V49.488H43.727V51.7Zm.927-2.925h2.691v-.99a2.507,2.507,0,0,0-.064-.58,1.12,1.12,0,0,0-.219-.459,1.07,1.07,0,0,0-.414-.3,1.678,1.678,0,0,0-.645-.108,1.7,1.7,0,0,0-.652.108,1.055,1.055,0,0,0-.414.3,1.135,1.135,0,0,0-.221.459,2.566,2.566,0,0,0-.062.58Z" fill="#e87722"/>
  </g>
</svg>
