<svg xmlns="http://www.w3.org/2000/svg" width="64" height="64" viewBox="0 0 64 64">
  <title>37172_I_EXALEAD_Roleicon_r21x</title>
  <rect x="10" y="42" width="44" height="14" rx="6" fill="#fff"/>
  <g>
    <g>
      <circle cx="32" cy="25" r="18" fill="#fff"/>
      <path d="M32,8A17,17,0,0,1,49,25h0A17,17,0,0,1,32,42h0A17,17,0,0,1,15,25h0A17,17,0,0,1,32,8h0m0-2A19,19,0,1,0,51,25,19.021,19.021,0,0,0,32,6Z" fill="#fff"/>
    </g>
    <g>
      <circle cx="32" cy="25" r="16.5" fill="#fff"/>
      <path d="M32,9A16,16,0,1,1,16,25,16.019,16.019,0,0,1,32,9m0-1h0A17,17,0,0,0,15,25h0A17,17,0,0,0,32,42h0A17,17,0,0,0,49,25h0A17,17,0,0,0,32,8Z" fill="#e87722"/>
    </g>
    <path d="M37.8,19.548a1.021,1.021,0,0,1-.408.832L33,23.76v8.947a1,1,0,1,1-2,0V23.76l-4.388-3.38a1.025,1.025,0,0,1,.62-1.844.954.954,0,0,1,.621.228L32,22.845l4.147-4.081a.954.954,0,0,1,.621-.228A1.027,1.027,0,0,1,37.8,19.548Zm-5.8.881a1.355,1.355,0,1,1,1.355-1.355A1.332,1.332,0,0,1,32,20.429Z" fill="#e87722"/>
  </g>
  <g>
    <path d="M15.346,51.7a2.1,2.1,0,0,1-1.269-.338,1.254,1.254,0,0,1-.459-1.084V45.717h3.59v.711H14.563v1.854h2.385v.711H14.563v1.3a.621.621,0,0,0,.22.549,1.036,1.036,0,0,0,.6.153h1.944V51.7Z" fill="#e87722"/>
    <path d="M17.919,51.7l2.07-3.033-1.952-2.952h1.088l1.449,2.223,1.512-2.223h1.008l-2.025,2.926L23.122,51.7H22.015l-1.531-2.34L18.918,51.7Z" fill="#e87722"/>
    <path d="M23.958,51.7V47.814a3.264,3.264,0,0,1,.113-.886,1.708,1.708,0,0,1,.378-.694,1.731,1.731,0,0,1,.7-.45,3.247,3.247,0,0,1,1.084-.157,3.291,3.291,0,0,1,1.089.157,1.73,1.73,0,0,1,.707.45,1.708,1.708,0,0,1,.378.694,3.265,3.265,0,0,1,.112.886V51.7h-.945V49.488H24.885V51.7Zm.927-2.925h2.691v-.99a2.509,2.509,0,0,0-.063-.58,1.121,1.121,0,0,0-.22-.459,1.055,1.055,0,0,0-.414-.3,1.669,1.669,0,0,0-.644-.108,1.691,1.691,0,0,0-.652.108,1.055,1.055,0,0,0-.414.3,1.123,1.123,0,0,0-.221.459,2.509,2.509,0,0,0-.063.58Z" fill="#e87722"/>
    <path d="M30.213,51.7V45.717h.946v5.274h2.556V51.7Z" fill="#e87722"/>
    <path d="M36.5,51.7a2.1,2.1,0,0,1-1.269-.338,1.257,1.257,0,0,1-.459-1.084V45.717h3.591v.711H35.721v1.854h2.385v.711H35.721v1.3a.623.623,0,0,0,.22.549,1.041,1.041,0,0,0,.6.153h1.943V51.7Z" fill="#e87722"/>
    <path d="M39.78,51.7V47.814a3.225,3.225,0,0,1,.113-.886,1.635,1.635,0,0,1,1.08-1.144,3.247,3.247,0,0,1,1.084-.157,3.291,3.291,0,0,1,1.089.157,1.737,1.737,0,0,1,.707.45,1.706,1.706,0,0,1,.377.694,3.224,3.224,0,0,1,.114.886V51.7H43.4V49.488H40.707V51.7Zm.927-2.925H43.4v-.99a2.509,2.509,0,0,0-.063-.58,1.121,1.121,0,0,0-.22-.459,1.063,1.063,0,0,0-.414-.3,1.676,1.676,0,0,0-.644-.108,1.7,1.7,0,0,0-.653.108,1.063,1.063,0,0,0-.414.3,1.147,1.147,0,0,0-.22.459,2.565,2.565,0,0,0-.063.58Z" fill="#e87722"/>
    <path d="M46.008,45.717h2.025a3.51,3.51,0,0,1,1.139.171,2.079,2.079,0,0,1,.842.531,2.365,2.365,0,0,1,.521.914,4.28,4.28,0,0,1,.18,1.318,5.508,5.508,0,0,1-.144,1.324,2.448,2.448,0,0,1-.477.989,2.127,2.127,0,0,1-.867.621,3.544,3.544,0,0,1-1.32.216,8.145,8.145,0,0,1-.923-.054,8.713,8.713,0,0,1-.976-.171Zm.945,5.292a5.454,5.454,0,0,0,.982.081,1.6,1.6,0,0,0,1.377-.585,3.133,3.133,0,0,0,.431-1.845,3.989,3.989,0,0,0-.116-1.03,1.844,1.844,0,0,0-.334-.693,1.251,1.251,0,0,0-.535-.387,2.03,2.03,0,0,0-.725-.122h-1.08Z" fill="#e87722"/>
  </g>
</svg>
