<svg xmlns="http://www.w3.org/2000/svg" width="64" height="64" viewBox="0 0 64 64">
  <title>36417_I_Roleicon</title>
  <rect x="20" y="42" width="24" height="14" rx="6" fill="#fff"/>
  <g>
    <g>
      <circle cx="32" cy="25" r="18" fill="#fff"/>
      <path d="M32,8A17,17,0,0,1,49,25h0A17,17,0,0,1,32,42h0A17,17,0,0,1,15,25h0A17,17,0,0,1,32,8h0m0-2A19,19,0,1,0,51,25,19.021,19.021,0,0,0,32,6Z" fill="#fff"/>
    </g>
    <g>
      <circle cx="32" cy="25" r="16.5" fill="#fff"/>
      <path d="M32,9A16,16,0,1,1,16,25,16.019,16.019,0,0,1,32,9m0-1h0A17,17,0,0,0,15,25h0A17,17,0,0,0,32,42h0A17,17,0,0,0,49,25h0A17,17,0,0,0,32,8Z" fill="#005686"/>
    </g>
    <path d="M37.8,19.548a1.021,1.021,0,0,1-.408.832L33,23.76v8.947a1,1,0,1,1-2,0V23.76l-4.388-3.38a1.025,1.025,0,0,1,.62-1.844.954.954,0,0,1,.621.228L32,22.845l4.147-4.081a.954.954,0,0,1,.621-.228A1.027,1.027,0,0,1,37.8,19.548Zm-5.8.881a1.355,1.355,0,1,1,1.355-1.355A1.332,1.332,0,0,1,32,20.429Z" fill="#005686"/>
  </g>
  <g>
    <path d="M24.39,50.883a6.5,6.5,0,0,0,.747.148,5.725,5.725,0,0,0,.82.059,2.694,2.694,0,0,0,.585-.059,1.171,1.171,0,0,0,.445-.193.882.882,0,0,0,.284-.359,1.437,1.437,0,0,0,.1-.568.917.917,0,0,0-.36-.809,1.7,1.7,0,0,0-.989-.252h-.685v-.613l1.674-1.8H24.354v-.721h3.807v.63L26.388,48.2H26.4a2.7,2.7,0,0,1,.68.09,1.842,1.842,0,0,1,.625.293,1.582,1.582,0,0,1,.455.518,1.567,1.567,0,0,1,.176.773,2.155,2.155,0,0,1-.172.909,1.482,1.482,0,0,1-.476.59,2.028,2.028,0,0,1-.734.319,4.129,4.129,0,0,1-.931.1,7.373,7.373,0,0,1-.905-.054,7.023,7.023,0,0,1-.8-.144Z" fill="#005686"/>
    <path d="M30.06,45.717h2.025a3.51,3.51,0,0,1,1.139.171,2.058,2.058,0,0,1,.84.531,2.355,2.355,0,0,1,.523.914,4.278,4.278,0,0,1,.181,1.318,5.556,5.556,0,0,1-.145,1.324,2.461,2.461,0,0,1-.477.989,2.127,2.127,0,0,1-.869.621,3.533,3.533,0,0,1-1.318.216,8.115,8.115,0,0,1-.922-.054,8.69,8.69,0,0,1-.977-.171Zm.945,5.292a5.45,5.45,0,0,0,.981.081,1.6,1.6,0,0,0,1.377-.585A3.132,3.132,0,0,0,33.8,48.66a3.942,3.942,0,0,0-.117-1.03,1.873,1.873,0,0,0-.332-.693,1.267,1.267,0,0,0-.536-.387,2.03,2.03,0,0,0-.725-.122h-1.08Z" fill="#005686"/>
    <path d="M35.919,50.784c.227.067.491.134.788.2a4.168,4.168,0,0,0,.958.1,1.881,1.881,0,0,0,.788-.144.539.539,0,0,0,.311-.54.8.8,0,0,0-.221-.531,3.307,3.307,0,0,0-.559-.495q-.336-.243-.724-.5a8.058,8.058,0,0,1-.725-.531,3.027,3.027,0,0,1-.557-.594,1.188,1.188,0,0,1-.22-.7,1.228,1.228,0,0,1,.175-.68,1.3,1.3,0,0,1,.472-.441,2.232,2.232,0,0,1,.7-.239,4.936,4.936,0,0,1,.864-.072c.133,0,.27,0,.414.014s.283.019.419.031.259.027.374.045.213.036.3.054l-.082.72c-.09-.017-.2-.036-.315-.053s-.244-.036-.373-.05-.258-.028-.387-.036-.245-.014-.347-.014c-.18,0-.345.008-.494.022a1.276,1.276,0,0,0-.387.095.572.572,0,0,0-.253.2.586.586,0,0,0-.09.338.665.665,0,0,0,.221.468,3.518,3.518,0,0,0,.553.45c.222.15.461.308.72.473a6.224,6.224,0,0,1,.72.535,2.9,2.9,0,0,1,.554.635,1.4,1.4,0,0,1,.22.769,1.461,1.461,0,0,1-.149.689,1.205,1.205,0,0,1-.418.459,1.85,1.85,0,0,1-.652.252,4.384,4.384,0,0,1-.842.076,4.935,4.935,0,0,1-1.049-.1c-.32-.068-.595-.138-.822-.211Z" fill="#005686"/>
  </g>
</svg>
