<svg xmlns="http://www.w3.org/2000/svg" width="64" height="64" viewBox="0 0 64 64">
  <title>36863_I_SIMULIA_Roleicon_r21x</title>
  <rect x="11" y="42" width="42" height="14" rx="6" fill="#fff"/>
  <g>
    <g>
      <circle cx="32" cy="25" r="18" fill="#fff"/>
      <path d="M32,8A17,17,0,0,1,49,25h0A17,17,0,0,1,32,42h0A17,17,0,0,1,15,25h0A17,17,0,0,1,32,8h0m0-2A19,19,0,1,0,51,25,19.021,19.021,0,0,0,32,6Z" fill="#fff"/>
    </g>
    <g>
      <circle cx="32" cy="25" r="16.5" fill="#fff"/>
      <path d="M32,9A16,16,0,1,1,16,25,16.019,16.019,0,0,1,32,9m0-1h0A17,17,0,0,0,15,25h0A17,17,0,0,0,32,42h0A17,17,0,0,0,49,25h0A17,17,0,0,0,32,8Z" fill="#001871"/>
    </g>
    <path d="M37.8,19.548a1.021,1.021,0,0,1-.408.832L33,23.76v8.947a1,1,0,1,1-2,0V23.76l-4.388-3.38a1.025,1.025,0,0,1,.62-1.844.954.954,0,0,1,.621.228L32,22.845l4.147-4.081a.954.954,0,0,1,.621-.228A1.027,1.027,0,0,1,37.8,19.548Zm-5.8.881a1.355,1.355,0,1,1,1.355-1.355A1.332,1.332,0,0,1,32,20.429Z" fill="#001871"/>
  </g>
  <g>
    <path d="M14.707,50.784q.342.1.787.2a4.177,4.177,0,0,0,.959.1,1.873,1.873,0,0,0,.787-.144.539.539,0,0,0,.311-.54.8.8,0,0,0-.221-.531,3.3,3.3,0,0,0-.558-.495q-.337-.243-.724-.5a7.918,7.918,0,0,1-.725-.531,3,3,0,0,1-.558-.594,1.2,1.2,0,0,1-.22-.7,1.236,1.236,0,0,1,.175-.68,1.3,1.3,0,0,1,.473-.441,2.223,2.223,0,0,1,.7-.239,4.936,4.936,0,0,1,.864-.072c.132,0,.27,0,.414.014s.283.019.418.031.26.027.374.045.213.036.3.054l-.081.72c-.09-.017-.2-.036-.315-.053s-.245-.036-.374-.05-.258-.028-.387-.036-.244-.014-.346-.014c-.18,0-.345.008-.5.022a1.291,1.291,0,0,0-.387.095.586.586,0,0,0-.252.2.579.579,0,0,0-.09.338.668.668,0,0,0,.22.468,3.529,3.529,0,0,0,.554.45q.333.225.72.473a6.224,6.224,0,0,1,.72.535,2.891,2.891,0,0,1,.553.635,1.4,1.4,0,0,1,.221.769,1.473,1.473,0,0,1-.149.689,1.213,1.213,0,0,1-.418.459,1.856,1.856,0,0,1-.653.252,4.373,4.373,0,0,1-.841.076,4.922,4.922,0,0,1-1.049-.1q-.482-.1-.823-.211Z" fill="#001871"/>
    <path d="M20,51.7V45.717h.945V51.7Z" fill="#001871"/>
    <path d="M22.8,51.7V45.717h1.036l2.15,3.231,2.161-3.231h1.025V51.7h-.926V47l-1.881,2.826h-.757L23.733,47V51.7Z" fill="#001871"/>
    <path d="M31.861,49.687A1.49,1.49,0,0,0,32.2,50.7a1.406,1.406,0,0,0,1.112.387,4.866,4.866,0,0,0,.756-.054,5.773,5.773,0,0,0,.576-.117v-5.2h.945v5.716q-.4.115-.958.242a6.247,6.247,0,0,1-1.346.126,3.437,3.437,0,0,1-1.1-.153,1.881,1.881,0,0,1-.734-.436,1.651,1.651,0,0,1-.409-.68,2.891,2.891,0,0,1-.126-.882V45.717h.945Z" fill="#001871"/>
    <path d="M37.368,51.7V45.717h.945v5.274h2.556V51.7Z" fill="#001871"/>
    <path d="M42,51.7V45.717h.945V51.7Z" fill="#001871"/>
    <path d="M44.641,51.7V47.814a3.265,3.265,0,0,1,.112-.886,1.708,1.708,0,0,1,.378-.694,1.738,1.738,0,0,1,.7-.45,3.838,3.838,0,0,1,2.173,0,1.724,1.724,0,0,1,.707.45,1.7,1.7,0,0,1,.378.694,3.265,3.265,0,0,1,.112.886V51.7h-.945V49.488H45.567V51.7Zm.926-2.925h2.691v-.99a2.509,2.509,0,0,0-.063-.58,1.121,1.121,0,0,0-.22-.459,1.055,1.055,0,0,0-.414-.3,1.66,1.66,0,0,0-.643-.108,1.684,1.684,0,0,0-.652.108,1.041,1.041,0,0,0-.414.3,1.1,1.1,0,0,0-.221.459,2.454,2.454,0,0,0-.064.58Z" fill="#001871"/>
  </g>
</svg>
