<svg xmlns="http://www.w3.org/2000/svg" width="64" height="64" viewBox="0 0 64 64">
  <title>36864_I_SOLIDWORKS_Roleicon</title>
  <rect x="2" y="42" width="60" height="14" rx="6" fill="#fff"/>
  <g>
    <g>
      <circle cx="32" cy="25" r="18" fill="#fff"/>
      <path d="M32,8A17,17,0,0,1,49,25h0A17,17,0,0,1,32,42h0A17,17,0,0,1,15,25h0A17,17,0,0,1,32,8h0m0-2A19,19,0,1,0,51,25,19.021,19.021,0,0,0,32,6Z" fill="#fff"/>
    </g>
    <g>
      <circle cx="32" cy="25" r="16.5" fill="#fff"/>
      <path d="M32,9A16,16,0,1,1,16,25,16.019,16.019,0,0,1,32,9m0-1h0A17,17,0,0,0,15,25h0A17,17,0,0,0,32,42h0A17,17,0,0,0,49,25h0A17,17,0,0,0,32,8Z" fill="#da291c"/>
    </g>
    <g>
      <path d="M32,33.432a.7.7,0,0,1-.713-.725V23.619l-4.5-3.467a.725.725,0,0,1-.3-.6.744.744,0,0,1,.741-.725.664.664,0,0,1,.438.163L32,23.248l4.349-4.279a.652.652,0,0,1,.419-.146.744.744,0,0,1,.741.725.733.733,0,0,1-.3.608l-4.495,3.463v9.088A.7.7,0,0,1,32,33.432Zm0-13.29a1.068,1.068,0,1,1,1.067-1.068A1.044,1.044,0,0,1,32,20.142Z" fill="#da291c"/>
      <path d="M32,18.293a.781.781,0,1,1-.781.781A.756.756,0,0,1,32,18.293m4.768.817a.453.453,0,0,1,.454.438.448.448,0,0,1-.184.377l-4.388,3.38-.224.173v9.229a.426.426,0,1,1-.852,0V23.478l-.224-.173-4.38-3.374a.447.447,0,0,1-.192-.383.453.453,0,0,1,.454-.438.373.373,0,0,1,.239.084L31.6,23.255l.4.4.4-.4,4.126-4.061a.373.373,0,0,1,.239-.084M32,17.719a1.355,1.355,0,1,0,1.355,1.355A1.332,1.332,0,0,0,32,17.719Zm4.768.817a.954.954,0,0,0-.621.228L32,22.845l-4.147-4.081a.954.954,0,0,0-.621-.228,1.025,1.025,0,0,0-.62,1.844L31,23.76v8.947a1,1,0,1,0,2,0V23.76l4.388-3.38a1.025,1.025,0,0,0-.62-1.844Z" fill="#da291c"/>
    </g>
  </g>
  <g>
    <path d="M4.9,50.784c.229.067.491.134.788.2a4.177,4.177,0,0,0,.959.1,1.876,1.876,0,0,0,.787-.144.539.539,0,0,0,.311-.54.8.8,0,0,0-.221-.531,3.3,3.3,0,0,0-.558-.495q-.337-.243-.724-.5a7.783,7.783,0,0,1-.725-.531,3,3,0,0,1-.558-.594,1.2,1.2,0,0,1-.22-.7,1.236,1.236,0,0,1,.175-.68,1.3,1.3,0,0,1,.473-.441,2.217,2.217,0,0,1,.7-.239,4.947,4.947,0,0,1,.865-.072c.132,0,.27,0,.414.014s.283.019.418.031.26.027.374.045.213.036.3.054l-.081.72c-.09-.017-.2-.036-.315-.053s-.245-.036-.374-.05-.258-.028-.387-.036-.244-.014-.346-.014c-.18,0-.345.008-.5.022a1.291,1.291,0,0,0-.387.095.535.535,0,0,0-.342.54.668.668,0,0,0,.22.468,3.529,3.529,0,0,0,.554.45c.222.15.461.308.72.473a6.127,6.127,0,0,1,.719.535,2.87,2.87,0,0,1,.554.635,1.4,1.4,0,0,1,.221.769,1.473,1.473,0,0,1-.149.689,1.213,1.213,0,0,1-.418.459,1.856,1.856,0,0,1-.653.252,4.373,4.373,0,0,1-.841.076A4.922,4.922,0,0,1,5.6,51.7q-.481-.1-.823-.211Z" fill="#da291c"/>
    <path d="M11.2,51.63a1.872,1.872,0,0,1-.8-.544,2.469,2.469,0,0,1-.491-.959,6.1,6.1,0,0,1,0-2.826,2.471,2.471,0,0,1,.491-.958,1.878,1.878,0,0,1,.8-.545,3.672,3.672,0,0,1,2.215,0,1.884,1.884,0,0,1,.8.545,2.47,2.47,0,0,1,.49.958,6.061,6.061,0,0,1,0,2.826,2.468,2.468,0,0,1-.49.959,1.873,1.873,0,0,1-.8.544,3.292,3.292,0,0,1-1.1.171A3.355,3.355,0,0,1,11.2,51.63Zm-.072-1.062a1.18,1.18,0,0,0,.5.4,2.005,2.005,0,0,0,1.372,0,1.121,1.121,0,0,0,.5-.4,1.991,1.991,0,0,0,.3-.733,6.391,6.391,0,0,0,0-2.241,2,2,0,0,0-.3-.734,1.119,1.119,0,0,0-.5-.4,1.99,1.99,0,0,0-1.372,0,1.15,1.15,0,0,0-.5.4,1.947,1.947,0,0,0-.3.734,6.391,6.391,0,0,0,0,2.241A1.991,1.991,0,0,0,11.125,50.568Z" fill="#da291c"/>
    <path d="M16.327,51.7V45.717h.945v5.274h2.556V51.7Z" fill="#da291c"/>
    <path d="M20.961,51.7V45.717h.946V51.7Z" fill="#da291c"/>
    <path d="M23.733,45.717h2.025a3.506,3.506,0,0,1,1.139.171,2.068,2.068,0,0,1,.841.531,2.354,2.354,0,0,1,.522.914,4.28,4.28,0,0,1,.18,1.318,5.508,5.508,0,0,1-.144,1.324,2.435,2.435,0,0,1-.477.989,2.123,2.123,0,0,1-.868.621,3.539,3.539,0,0,1-1.319.216,8.128,8.128,0,0,1-.922-.054,8.69,8.69,0,0,1-.977-.171Zm.946,5.292a5.435,5.435,0,0,0,.981.081,1.6,1.6,0,0,0,1.377-.585,3.133,3.133,0,0,0,.431-1.845,3.989,3.989,0,0,0-.116-1.03,1.874,1.874,0,0,0-.333-.693,1.254,1.254,0,0,0-.536-.387,2.03,2.03,0,0,0-.725-.122H24.679Z" fill="#da291c"/>
    <path d="M30.7,51.7l-1.647-5.985h.964l1.259,4.932,1.369-3.771h.881l1.341,3.808a16.84,16.84,0,0,0,.779-2.219,18.984,18.984,0,0,0,.527-2.75h.891a21.246,21.246,0,0,1-.667,3.114A20.049,20.049,0,0,1,35.289,51.7h-.882l-1.341-3.816L31.635,51.7Z" fill="#da291c"/>
    <path d="M39.133,51.63a1.86,1.86,0,0,1-.8-.544,2.442,2.442,0,0,1-.491-.959,6.061,6.061,0,0,1,0-2.826,2.444,2.444,0,0,1,.491-.958,1.872,1.872,0,0,1,.8-.545,3.672,3.672,0,0,1,2.215,0,1.881,1.881,0,0,1,.8.545,2.457,2.457,0,0,1,.49.958,6.061,6.061,0,0,1,0,2.826,2.454,2.454,0,0,1-.49.959,1.87,1.87,0,0,1-.8.544,3.3,3.3,0,0,1-1.1.171A3.349,3.349,0,0,1,39.133,51.63Zm-.072-1.062a1.174,1.174,0,0,0,.5.4,1.776,1.776,0,0,0,.687.121,1.8,1.8,0,0,0,.684-.121,1.124,1.124,0,0,0,.5-.4,2.026,2.026,0,0,0,.3-.733,6.455,6.455,0,0,0,0-2.241,2.031,2.031,0,0,0-.3-.734,1.122,1.122,0,0,0-.5-.4,1.8,1.8,0,0,0-.684-.122,1.775,1.775,0,0,0-.687.122,1.152,1.152,0,0,0-.5.4,1.947,1.947,0,0,0-.3.734,6.328,6.328,0,0,0,0,2.241A1.958,1.958,0,0,0,39.061,50.568Z" fill="#da291c"/>
    <path d="M44.262,51.7V45.717H46.2a4.783,4.783,0,0,1,.994.091,1.772,1.772,0,0,1,.716.3,1.312,1.312,0,0,1,.433.572,2.372,2.372,0,0,1,.143.886,1.97,1.97,0,0,1-.089.625,1.452,1.452,0,0,1-.244.455,1.344,1.344,0,0,1-.364.315,2.247,2.247,0,0,1-.464.207,1.082,1.082,0,0,1,.514.378,2.853,2.853,0,0,1,.332.676L48.7,51.7h-.98l-.469-1.268a3.77,3.77,0,0,0-.17-.392,1.283,1.283,0,0,0-.217-.307.861.861,0,0,0-.3-.2,1.168,1.168,0,0,0-.433-.072c-.144,0-.292,0-.445-.014a3.836,3.836,0,0,1-.473-.058V51.7Zm.945-3.024c.174.03.341.051.5.063s.311.018.455.018a1.541,1.541,0,0,0,1.062-.288,1.183,1.183,0,0,0,.305-.9,1.737,1.737,0,0,0-.076-.562.767.767,0,0,0-.238-.352.94.94,0,0,0-.414-.179,3.1,3.1,0,0,0-.6-.05h-.99Z" fill="#da291c"/>
    <path d="M50.031,51.7V45.717h.946V48.9l2.7-3.186h1.045L52.4,48.444a2.16,2.16,0,0,1,.577.27,2.207,2.207,0,0,1,.445.4,3.193,3.193,0,0,1,.355.523q.162.293.315.634l.639,1.431H53.676L53.154,50.5a3.607,3.607,0,0,0-.566-.927,1.287,1.287,0,0,0-.838-.45l-.773.856V51.7Z" fill="#da291c"/>
    <path d="M55.413,50.784q.342.1.788.2a4.168,4.168,0,0,0,.958.1,1.878,1.878,0,0,0,.788-.144.539.539,0,0,0,.311-.54.8.8,0,0,0-.221-.531,3.337,3.337,0,0,0-.558-.495q-.338-.243-.725-.5a8.058,8.058,0,0,1-.725-.531,3.027,3.027,0,0,1-.557-.594,1.188,1.188,0,0,1-.22-.7,1.236,1.236,0,0,1,.175-.68,1.3,1.3,0,0,1,.472-.441,2.229,2.229,0,0,1,.7-.239,4.916,4.916,0,0,1,.863-.072c.133,0,.27,0,.414.014s.283.019.419.031.259.027.374.045.213.036.3.054l-.082.72c-.09-.017-.2-.036-.315-.053s-.244-.036-.373-.05-.258-.028-.386-.036-.246-.014-.348-.014c-.18,0-.345.008-.494.022a1.276,1.276,0,0,0-.387.095.538.538,0,0,0-.343.54.665.665,0,0,0,.221.468,3.483,3.483,0,0,0,.554.45q.332.225.719.473a6.224,6.224,0,0,1,.72.535,2.9,2.9,0,0,1,.554.635,1.4,1.4,0,0,1,.22.769,1.461,1.461,0,0,1-.149.689,1.205,1.205,0,0,1-.418.459,1.85,1.85,0,0,1-.652.252,4.376,4.376,0,0,1-.842.076,4.935,4.935,0,0,1-1.049-.1c-.32-.068-.595-.138-.822-.211Z" fill="#da291c"/>
  </g>
</svg>
