<svg xmlns="http://www.w3.org/2000/svg" viewBox="0 0 560 380">
  <g>
    <path d="M23.9,242v-8.839H20.6v-1.182h7.943v1.182H25.23V242Z"/>
    <path d="M27.739,238.367a3.743,3.743,0,0,1,1.121-2.987,3.385,3.385,0,0,1,2.284-.807,3.253,3.253,0,0,1,2.447.982,3.727,3.727,0,0,1,.95,2.71,4.811,4.811,0,0,1-.42,2.205,2.972,2.972,0,0,1-1.224,1.247,3.555,3.555,0,0,1-1.753.444,3.26,3.26,0,0,1-2.464-.977A3.9,3.9,0,0,1,27.739,238.367Zm1.265,0a3.1,3.1,0,0,0,.608,2.089,2.027,2.027,0,0,0,3.056,0,3.163,3.163,0,0,0,.608-2.126,3,3,0,0,0-.611-2.04,2.03,2.03,0,0,0-3.053,0A3.084,3.084,0,0,0,29,238.367Z"/>
    <path d="M40.693,242v-.916a2.254,2.254,0,0,1-2.03,1.08,2.849,2.849,0,0,1-1.6-.478,3.156,3.156,0,0,1-1.128-1.336,4.635,4.635,0,0,1-.4-1.973A5.169,5.169,0,0,1,35.9,236.4a2.871,2.871,0,0,1,1.087-1.357,2.906,2.906,0,0,1,1.62-.472,2.429,2.429,0,0,1,2,1v-3.595h1.224V242ZM36.8,238.374a3.151,3.151,0,0,0,.588,2.085,1.769,1.769,0,0,0,1.387.69,1.739,1.739,0,0,0,1.371-.659,3.042,3.042,0,0,0,.564-2.013,3.42,3.42,0,0,0-.574-2.188,1.766,1.766,0,0,0-1.415-.7,1.7,1.7,0,0,0-1.371.67A3.307,3.307,0,0,0,36.8,238.374Z"/>
    <path d="M48.507,241.1a4.575,4.575,0,0,1-1.316.82,3.79,3.79,0,0,1-1.357.239A2.64,2.64,0,0,1,44,241.577a1.93,1.93,0,0,1-.642-1.494,2.029,2.029,0,0,1,.878-1.682,3.029,3.029,0,0,1,.885-.4,9.127,9.127,0,0,1,1.094-.185,11.192,11.192,0,0,0,2.194-.423c0-.168.007-.276.007-.322a1.359,1.359,0,0,0-.348-1.059,2.062,2.062,0,0,0-1.4-.417,2.169,2.169,0,0,0-1.281.3,1.858,1.858,0,0,0-.612,1.077l-1.2-.164a2.99,2.99,0,0,1,.54-1.247,2.366,2.366,0,0,1,1.087-.732,4.854,4.854,0,0,1,1.648-.257,4.355,4.355,0,0,1,1.511.219,1.982,1.982,0,0,1,.854.551,1.911,1.911,0,0,1,.383.837,6.947,6.947,0,0,1,.061,1.134v1.641a17.192,17.192,0,0,0,.08,2.171,2.714,2.714,0,0,0,.31.871H48.753A2.636,2.636,0,0,1,48.507,241.1Zm-.1-2.748a9,9,0,0,1-2.009.464,4.784,4.784,0,0,0-1.074.246,1.077,1.077,0,0,0-.485.4,1.086,1.086,0,0,0,.2,1.4,1.6,1.6,0,0,0,1.09.328,2.542,2.542,0,0,0,1.265-.31,1.914,1.914,0,0,0,.813-.852,2.951,2.951,0,0,0,.2-1.23Z"/>
    <path d="M55.418,242V231.976h1.23V242Z"/>
    <path d="M63.293,241.1a4.585,4.585,0,0,1-1.315.82,3.8,3.8,0,0,1-1.358.239,2.64,2.64,0,0,1-1.839-.584,1.933,1.933,0,0,1-.642-1.494,2.026,2.026,0,0,1,.879-1.682,3.011,3.011,0,0,1,.884-.4A9.164,9.164,0,0,1,61,237.813a11.192,11.192,0,0,0,2.194-.423c.005-.168.007-.276.007-.322a1.359,1.359,0,0,0-.348-1.059,2.062,2.062,0,0,0-1.4-.417,2.169,2.169,0,0,0-1.281.3,1.863,1.863,0,0,0-.612,1.077l-1.2-.164a2.978,2.978,0,0,1,.54-1.247,2.361,2.361,0,0,1,1.087-.732,4.844,4.844,0,0,1,1.647-.257,4.355,4.355,0,0,1,1.511.219,1.976,1.976,0,0,1,.854.551,1.911,1.911,0,0,1,.383.837,6.913,6.913,0,0,1,.062,1.134v1.641a17.27,17.27,0,0,0,.079,2.171,2.714,2.714,0,0,0,.31.871H63.539A2.636,2.636,0,0,1,63.293,241.1Zm-.1-2.748a9,9,0,0,1-2.009.464,4.784,4.784,0,0,0-1.074.246,1.077,1.077,0,0,0-.485.4,1.086,1.086,0,0,0,.2,1.4,1.6,1.6,0,0,0,1.09.328,2.539,2.539,0,0,0,1.265-.31,1.914,1.914,0,0,0,.813-.852,2.951,2.951,0,0,0,.2-1.23Z"/>
    <path d="M70.238,233.391v-1.415h1.231v1.415Zm0,8.606v-7.26h1.231V242Z"/>
    <path d="M73.342,242v-7.26h1.107v1.033a2.612,2.612,0,0,1,2.311-1.2,3.023,3.023,0,0,1,1.207.237,1.9,1.9,0,0,1,.823.618,2.354,2.354,0,0,1,.383.909,7.013,7.013,0,0,1,.068,1.2V242h-1.23v-4.416a3.3,3.3,0,0,0-.144-1.124,1.18,1.18,0,0,0-.509-.595,1.622,1.622,0,0,0-.858-.222,1.994,1.994,0,0,0-1.356.5,2.46,2.46,0,0,0-.572,1.893V242Z"/>
    <path d="M81.422,242v-6.3H80.335v-.957h1.087v-.772a3.4,3.4,0,0,1,.13-1.087,1.576,1.576,0,0,1,.626-.775,2.247,2.247,0,0,1,1.254-.3,6.022,6.022,0,0,1,1.148.123L84.4,233a4.184,4.184,0,0,0-.725-.068,1.082,1.082,0,0,0-.793.239,1.3,1.3,0,0,0-.232.9v.67h1.415v.957H82.646V242Z"/>
    <path d="M84.56,238.367a3.743,3.743,0,0,1,1.121-2.987,3.382,3.382,0,0,1,2.283-.807,3.253,3.253,0,0,1,2.447.982,3.727,3.727,0,0,1,.95,2.71,4.8,4.8,0,0,1-.42,2.205,2.976,2.976,0,0,1-1.223,1.247,3.556,3.556,0,0,1-1.754.444,3.26,3.26,0,0,1-2.464-.977A3.9,3.9,0,0,1,84.56,238.367Zm1.264,0a3.092,3.092,0,0,0,.609,2.089,2.026,2.026,0,0,0,3.055,0,3.157,3.157,0,0,0,.609-2.126,3,3,0,0,0-.612-2.04,2.029,2.029,0,0,0-3.052,0A3.079,3.079,0,0,0,85.824,238.367Z"/>
    <path d="M92.79,242v-7.26H93.9v1.1a3.014,3.014,0,0,1,.784-1.019,1.365,1.365,0,0,1,.789-.246,2.4,2.4,0,0,1,1.264.4l-.423,1.141a1.769,1.769,0,0,0-.9-.266,1.17,1.17,0,0,0-.724.243,1.311,1.311,0,0,0-.458.673,4.78,4.78,0,0,0-.2,1.435V242Z"/>
    <path d="M97.466,242v-7.26h1.1v1.019a2.593,2.593,0,0,1,.91-.858,2.559,2.559,0,0,1,1.292-.325,2.4,2.4,0,0,1,1.323.335,1.789,1.789,0,0,1,.727.937,2.609,2.609,0,0,1,2.243-1.272,2.2,2.2,0,0,1,1.661.6,2.557,2.557,0,0,1,.581,1.842V242h-1.224v-4.573a3.393,3.393,0,0,0-.119-1.063,1.036,1.036,0,0,0-.435-.523,1.353,1.353,0,0,0-.738-.2,1.721,1.721,0,0,0-1.271.509,2.243,2.243,0,0,0-.506,1.63V242h-1.231V237.28a2.069,2.069,0,0,0-.3-1.23,1.139,1.139,0,0,0-.985-.41,1.79,1.79,0,0,0-.96.273,1.553,1.553,0,0,0-.639.8,4.5,4.5,0,0,0-.2,1.517V242Z"/>
    <path d="M113.865,241.1a4.571,4.571,0,0,1-1.315.82,3.8,3.8,0,0,1-1.358.239,2.637,2.637,0,0,1-1.838-.584,1.931,1.931,0,0,1-.643-1.494,2.026,2.026,0,0,1,.879-1.682,3.017,3.017,0,0,1,.885-.4,9.1,9.1,0,0,1,1.093-.185,11.205,11.205,0,0,0,2.2-.423c0-.168.007-.276.007-.322a1.359,1.359,0,0,0-.349-1.059,2.059,2.059,0,0,0-1.4-.417,2.173,2.173,0,0,0-1.282.3,1.863,1.863,0,0,0-.612,1.077l-1.2-.164a2.978,2.978,0,0,1,.54-1.247,2.361,2.361,0,0,1,1.087-.732,4.844,4.844,0,0,1,1.647-.257,4.355,4.355,0,0,1,1.511.219,1.98,1.98,0,0,1,.855.551,1.922,1.922,0,0,1,.382.837,6.913,6.913,0,0,1,.062,1.134v1.641a17.27,17.27,0,0,0,.079,2.171,2.738,2.738,0,0,0,.31.871h-1.285A2.636,2.636,0,0,1,113.865,241.1Zm-.1-2.748a9.029,9.029,0,0,1-2.01.464,4.772,4.772,0,0,0-1.073.246,1.085,1.085,0,0,0-.486.4,1.086,1.086,0,0,0,.2,1.4,1.6,1.6,0,0,0,1.09.328,2.539,2.539,0,0,0,1.265-.31,1.909,1.909,0,0,0,.813-.852,2.949,2.949,0,0,0,.2-1.23Z"/>
    <path d="M121.651,239.338l1.21.157a3.141,3.141,0,0,1-1.014,1.959,2.958,2.958,0,0,1-2.007.707,3.119,3.119,0,0,1-2.4-.973,3.954,3.954,0,0,1-.906-2.793,5.051,5.051,0,0,1,.39-2.058,2.715,2.715,0,0,1,1.186-1.322,3.521,3.521,0,0,1,1.733-.442,3,3,0,0,1,1.934.6,2.736,2.736,0,0,1,.964,1.7l-1.2.185a1.983,1.983,0,0,0-.605-1.1,1.566,1.566,0,0,0-1.049-.369,1.911,1.911,0,0,0-1.511.667,3.164,3.164,0,0,0-.581,2.108,3.272,3.272,0,0,0,.56,2.126,1.823,1.823,0,0,0,1.463.663,1.718,1.718,0,0,0,1.21-.444A2.2,2.2,0,0,0,121.651,239.338Z"/>
    <path d="M123.921,233.391v-1.415h1.23v1.415Zm0,8.606v-7.26h1.23V242Z"/>
    <path d="M126.566,238.367a3.74,3.74,0,0,1,1.122-2.987,3.382,3.382,0,0,1,2.283-.807,3.253,3.253,0,0,1,2.447.982,3.727,3.727,0,0,1,.95,2.71,4.8,4.8,0,0,1-.42,2.205,2.976,2.976,0,0,1-1.223,1.247,3.562,3.562,0,0,1-1.754.444,3.26,3.26,0,0,1-2.464-.977A3.9,3.9,0,0,1,126.566,238.367Zm1.265,0a3.1,3.1,0,0,0,.608,2.089,2.027,2.027,0,0,0,3.056,0,3.163,3.163,0,0,0,.609-2.126,3,3,0,0,0-.612-2.04,2.03,2.03,0,0,0-3.053,0A3.084,3.084,0,0,0,127.831,238.367Zm1.456-4.532.909-1.914h1.614l-1.5,1.914Z"/>
    <path d="M134.811,242v-7.26h1.107v1.033a2.612,2.612,0,0,1,2.311-1.2,3.026,3.026,0,0,1,1.207.237,1.9,1.9,0,0,1,.823.618,2.385,2.385,0,0,1,.383.909,7.013,7.013,0,0,1,.068,1.2V242h-1.231v-4.416a3.306,3.306,0,0,0-.143-1.124,1.185,1.185,0,0,0-.509-.595,1.622,1.622,0,0,0-.858-.222,2,2,0,0,0-1.357.5,2.46,2.46,0,0,0-.571,1.893V242Z"/>
    <path d="M44.826,256.63l1.217-.192a1.7,1.7,0,0,0,.57,1.122,2,2,0,0,0,1.31.389,1.928,1.928,0,0,0,1.258-.345,1.033,1.033,0,0,0,.41-.81.749.749,0,0,0-.362-.656,5.333,5.333,0,0,0-1.258-.417,11.5,11.5,0,0,1-1.877-.591,1.792,1.792,0,0,1-1.063-1.665,1.874,1.874,0,0,1,.222-.9,2,2,0,0,1,.6-.687,2.533,2.533,0,0,1,.783-.358,3.686,3.686,0,0,1,1.063-.148,4.2,4.2,0,0,1,1.5.246,2.042,2.042,0,0,1,.954.667,2.61,2.61,0,0,1,.424,1.124l-1.2.164a1.317,1.317,0,0,0-.476-.875,1.738,1.738,0,0,0-1.11-.314,2.017,2.017,0,0,0-1.21.28.816.816,0,0,0-.362.656.679.679,0,0,0,.15.431,1.068,1.068,0,0,0,.472.328c.123.046.485.15,1.087.315a14.879,14.879,0,0,1,1.821.571,1.846,1.846,0,0,1,.811.645,1.815,1.815,0,0,1,.293,1.053,2.069,2.069,0,0,1-.359,1.159,2.311,2.311,0,0,1-1.035.841,3.774,3.774,0,0,1-1.531.3,3.41,3.41,0,0,1-2.158-.588A2.737,2.737,0,0,1,44.826,256.63Z"/>
    <path d="M51.86,255.167a3.74,3.74,0,0,1,1.121-2.987,3.381,3.381,0,0,1,2.284-.807,3.257,3.257,0,0,1,2.447.981,3.734,3.734,0,0,1,.95,2.71,4.814,4.814,0,0,1-.421,2.206,2.97,2.97,0,0,1-1.223,1.247,3.568,3.568,0,0,1-1.753.444,3.26,3.26,0,0,1-2.465-.978A3.9,3.9,0,0,1,51.86,255.167Zm1.265,0a3.092,3.092,0,0,0,.608,2.089,2.027,2.027,0,0,0,3.056,0,3.168,3.168,0,0,0,.608-2.126,3,3,0,0,0-.612-2.04,2.029,2.029,0,0,0-3.052,0A3.077,3.077,0,0,0,53.125,255.167Z"/>
    <path d="M61.239,258.8H60.1V248.775h1.23v3.576a2.435,2.435,0,0,1,1.989-.978,3.028,3.028,0,0,1,1.268.271,2.562,2.562,0,0,1,.984.758,3.686,3.686,0,0,1,.606,1.179,4.894,4.894,0,0,1,.219,1.477,4.145,4.145,0,0,1-.923,2.884,2.886,2.886,0,0,1-2.215,1.019,2.31,2.31,0,0,1-2.017-1.073Zm-.013-3.685A3.767,3.767,0,0,0,61.581,257a1.759,1.759,0,0,0,2.967.25,3.191,3.191,0,0,0,.588-2.089,3.238,3.238,0,0,0-.565-2.1,1.714,1.714,0,0,0-1.363-.677,1.768,1.768,0,0,0-1.395.7A3.075,3.075,0,0,0,61.226,255.112Z"/>
    <path d="M67.877,258.8v-7.26h1.107v1.1a3,3,0,0,1,.783-1.019,1.368,1.368,0,0,1,.79-.246,2.4,2.4,0,0,1,1.264.4l-.424,1.141a1.753,1.753,0,0,0-.9-.266,1.166,1.166,0,0,0-.724.243,1.3,1.3,0,0,0-.458.673A4.78,4.78,0,0,0,69.107,255v3.8Z"/>
    <path d="M77.522,256.459l1.272.157a3.106,3.106,0,0,1-1.114,1.73,3.777,3.777,0,0,1-4.605-.366,3.832,3.832,0,0,1-.932-2.751,4.013,4.013,0,0,1,.943-2.844,3.194,3.194,0,0,1,2.447-1.012,3.106,3.106,0,0,1,2.379.991,3.941,3.941,0,0,1,.923,2.789c0,.074,0,.183-.007.328H73.414a2.782,2.782,0,0,0,.677,1.832,2.012,2.012,0,0,0,1.517.636,1.885,1.885,0,0,0,1.156-.355A2.365,2.365,0,0,0,77.522,256.459Zm-4.04-1.989h4.054a2.461,2.461,0,0,0-.465-1.374,1.886,1.886,0,0,0-1.524-.711,1.957,1.957,0,0,0-1.426.567A2.249,2.249,0,0,0,73.482,254.47Z"/>
    <path d="M88.986,258.8V257.73a2.656,2.656,0,0,1-2.3,1.231,2.943,2.943,0,0,1-1.2-.246,1.986,1.986,0,0,1-.827-.618,2.34,2.34,0,0,1-.379-.913,6.268,6.268,0,0,1-.075-1.149v-4.5h1.231v4.026a7.088,7.088,0,0,0,.075,1.3,1.278,1.278,0,0,0,.492.763,1.522,1.522,0,0,0,.93.276,2.027,2.027,0,0,0,1.039-.283,1.573,1.573,0,0,0,.686-.772,3.866,3.866,0,0,0,.2-1.419v-3.89h1.231v7.26Z"/>
    <path d="M91.522,256.63l1.217-.192a1.7,1.7,0,0,0,.571,1.122,1.994,1.994,0,0,0,1.309.389,1.924,1.924,0,0,0,1.258-.345,1.033,1.033,0,0,0,.41-.81.749.749,0,0,0-.362-.656,5.333,5.333,0,0,0-1.258-.417,11.569,11.569,0,0,1-1.877-.591,1.789,1.789,0,0,1-1.062-1.665,1.884,1.884,0,0,1,.221-.9,2,2,0,0,1,.606-.687,2.516,2.516,0,0,1,.782-.358,3.686,3.686,0,0,1,1.063-.148,4.2,4.2,0,0,1,1.5.246,2.042,2.042,0,0,1,.954.667,2.6,2.6,0,0,1,.424,1.124l-1.2.164a1.316,1.316,0,0,0-.475-.875,1.741,1.741,0,0,0-1.111-.314,2.019,2.019,0,0,0-1.21.28.816.816,0,0,0-.362.656.679.679,0,0,0,.15.431,1.068,1.068,0,0,0,.472.328c.123.046.485.15,1.087.315a14.82,14.82,0,0,1,1.821.571,1.84,1.84,0,0,1,.811.645,1.815,1.815,0,0,1,.294,1.053,2.062,2.062,0,0,1-.36,1.159,2.311,2.311,0,0,1-1.035.841,3.774,3.774,0,0,1-1.531.3,3.407,3.407,0,0,1-2.157-.588A2.738,2.738,0,0,1,91.522,256.63Z"/>
    <path d="M101.7,257.7l.178,1.087a4.566,4.566,0,0,1-.93.11,2.106,2.106,0,0,1-1.039-.212,1.179,1.179,0,0,1-.519-.557,4.383,4.383,0,0,1-.151-1.453v-4.177h-.9v-.957h.9v-1.8l1.224-.738v2.536H101.7v.957h-1.237v4.245a2.16,2.16,0,0,0,.064.677.512.512,0,0,0,.212.239.816.816,0,0,0,.421.089A3.826,3.826,0,0,0,101.7,257.7Z"/>
    <path d="M107.874,256.459l1.272.157a3.113,3.113,0,0,1-1.115,1.73,3.775,3.775,0,0,1-4.6-.366,3.833,3.833,0,0,1-.933-2.751,4.013,4.013,0,0,1,.944-2.844,3.193,3.193,0,0,1,2.447-1.012,3.109,3.109,0,0,1,2.379.991,3.941,3.941,0,0,1,.923,2.789c0,.074,0,.183-.007.328h-5.414a2.782,2.782,0,0,0,.676,1.832,2.016,2.016,0,0,0,1.518.636,1.882,1.882,0,0,0,1.155-.355A2.36,2.36,0,0,0,107.874,256.459Zm-4.04-1.989h4.054a2.461,2.461,0,0,0-.465-1.374,1.889,1.889,0,0,0-1.525-.711,1.955,1.955,0,0,0-1.425.567A2.249,2.249,0,0,0,103.834,254.47Z"/>
    <path d="M115.4,258.8v-.916a2.257,2.257,0,0,1-2.03,1.08,2.843,2.843,0,0,1-1.6-.479,3.136,3.136,0,0,1-1.127-1.336,4.612,4.612,0,0,1-.4-1.972,5.15,5.15,0,0,1,.362-1.972,2.855,2.855,0,0,1,1.087-1.357,2.9,2.9,0,0,1,1.62-.472,2.422,2.422,0,0,1,2,1v-3.6h1.224V258.8Zm-3.889-3.623a3.146,3.146,0,0,0,.588,2.085,1.768,1.768,0,0,0,1.387.69,1.742,1.742,0,0,0,1.37-.659,3.043,3.043,0,0,0,.565-2.014,3.419,3.419,0,0,0-.574-2.187,1.766,1.766,0,0,0-1.415-.7,1.7,1.7,0,0,0-1.371.67A3.307,3.307,0,0,0,111.511,255.174Z"/>
  </g>
  <g>
    <path d="M69.705,114.994v-13.3H72l4.781,7.18,4.8-7.18h2.281v13.3h-2.06v-10.46l-4.18,6.28H75.944l-4.159-6.28v10.46Z"/>
    <path d="M91.665,114.994a4.678,4.678,0,0,1-2.821-.75,2.794,2.794,0,0,1-1.02-2.41v-10.14H95.8v1.579h-5.88V107.4h5.3v1.58h-5.3v2.879a1.378,1.378,0,0,0,.491,1.22,2.291,2.291,0,0,0,1.329.34h4.32v1.58Z"/>
  </g>
  <g>
    <path d="M84.373,218.333c-3.154-14.56-5.367-14.594-6.7-26.132" fill="none" stroke="#000" stroke-miterlimit="10"/>
    <polygon points="82.172 194.962 81.533 195.733 77.743 192.579 74.874 196.591 74.061 196.008 77.555 191.123 82.172 194.962"/>
  </g>
  <g>
    <path d="M80.964,139.274A16.925,16.925,0,1,1,64.039,156.2a16.943,16.943,0,0,1,16.925-16.925m0-2.8A19.725,19.725,0,1,0,100.688,156.2a19.725,19.725,0,0,0-19.724-19.725Z" fill="#5b5d5e"/>
    <path d="M85.884,155.271a6.664,6.664,0,0,1,1.816,1.04,7.417,7.417,0,0,1,1.419,1.506,7.045,7.045,0,0,1,.937,1.874,6.822,6.822,0,0,1,.337,2.137v4.1a1.15,1.15,0,0,1-1.171,1.171H72.828a1.148,1.148,0,0,1-1.171-1.171v-4.1a6.821,6.821,0,0,1,.336-2.137,7.045,7.045,0,0,1,.937-1.874,7.4,7.4,0,0,1,1.42-1.506,6.644,6.644,0,0,1,1.815-1.04,7.916,7.916,0,0,0,2.269,1.17,8.176,8.176,0,0,0,2.591.411A8.043,8.043,0,0,0,85.884,155.271Zm1.288-6.617a5.973,5.973,0,0,1-.483,2.386,6.161,6.161,0,0,1-3.264,3.279,6.158,6.158,0,0,1-4.786,0,6.122,6.122,0,0,1-3.279-3.279,6.169,6.169,0,0,1,0-4.786,6.167,6.167,0,0,1,3.279-3.265,6.181,6.181,0,0,1,4.786,0,6.208,6.208,0,0,1,3.264,3.265A5.946,5.946,0,0,1,87.172,148.654Z" fill="#5b5d5e"/>
  </g>
  <g>
    <path d="M171.129,114.994v-8.64a7.256,7.256,0,0,1,.25-1.969,3.766,3.766,0,0,1,.84-1.541,3.808,3.808,0,0,1,1.56-1,7.172,7.172,0,0,1,2.409-.35,7.268,7.268,0,0,1,2.421.35,3.812,3.812,0,0,1,1.57,1,3.766,3.766,0,0,1,.84,1.541,7.256,7.256,0,0,1,.25,1.969v8.64h-2.1v-4.92h-5.981v4.92Zm2.059-6.5h5.981v-2.2a5.605,5.605,0,0,0-.14-1.29,2.511,2.511,0,0,0-.49-1.02,2.325,2.325,0,0,0-.92-.67,3.705,3.705,0,0,0-1.431-.24,3.764,3.764,0,0,0-1.449.24,2.325,2.325,0,0,0-.92.67,2.511,2.511,0,0,0-.49,1.02,5.549,5.549,0,0,0-.141,1.29Z"/>
    <path d="M185.089,116.975q.659.157,1.54.309a9.576,9.576,0,0,0,1.619.15,2.779,2.779,0,0,0,1.86-.51,2.093,2.093,0,0,0,.58-1.651v-.539q-.519.1-1.139.18a9.275,9.275,0,0,1-1.2.08,6.861,6.861,0,0,1-1.68-.2,3.17,3.17,0,0,1-1.4-.75,3.735,3.735,0,0,1-.951-1.51,7.368,7.368,0,0,1-.349-2.479,6.205,6.205,0,0,1,.38-2.321,3.951,3.951,0,0,1,1.019-1.509,3.811,3.811,0,0,1,1.511-.821,6.614,6.614,0,0,1,1.83-.25,9.685,9.685,0,0,1,2.039.22q1.022.221,1.961.521v9.16a4.93,4.93,0,0,1-.3,1.84,2.9,2.9,0,0,1-.87,1.2,3.5,3.5,0,0,1-1.38.66,7.758,7.758,0,0,1-1.849.2,12.7,12.7,0,0,1-1.821-.14,13.923,13.923,0,0,1-1.62-.32Zm5.6-9.981c-.266-.066-.577-.133-.929-.2a5.617,5.617,0,0,0-1.03-.1,3.628,3.628,0,0,0-1.02.14,1.88,1.88,0,0,0-.841.52,2.661,2.661,0,0,0-.569,1.031,5.579,5.579,0,0,0-.21,1.689,7.224,7.224,0,0,0,.17,1.74,2.511,2.511,0,0,0,.489,1.03,1.522,1.522,0,0,0,.771.49,3.826,3.826,0,0,0,.99.12,7.12,7.12,0,0,0,1.059-.08c.361-.054.734-.112,1.12-.18Z"/>
    <path d="M196.089,114.994v-9.1a15.59,15.59,0,0,1,2.489-.551,20.378,20.378,0,0,1,2.75-.17v1.6c-.146-.011-.3-.019-.46-.019h-.479a9.456,9.456,0,0,0-1.241.08,8.141,8.141,0,0,0-1.04.2v7.96Z"/>
    <path d="M204.429,110.754a5.019,5.019,0,0,0,.179,1.269,2.091,2.091,0,0,0,.52.911,2.249,2.249,0,0,0,.96.541,5.433,5.433,0,0,0,1.52.179c.213,0,.447-.009.7-.03s.5-.05.75-.09.479-.08.7-.12.4-.08.55-.12l.179,1.479a12.373,12.373,0,0,1-1.41.291,10.975,10.975,0,0,1-1.689.13,9.165,9.165,0,0,1-2.08-.219,3.7,3.7,0,0,1-1.6-.791,3.749,3.749,0,0,1-1.029-1.539,7.012,7.012,0,0,1-.37-2.471,7.755,7.755,0,0,1,.309-2.36,3.854,3.854,0,0,1,.891-1.55,3.347,3.347,0,0,1,1.409-.85,6.188,6.188,0,0,1,1.851-.26,4.823,4.823,0,0,1,1.759.29,3.355,3.355,0,0,1,1.231.81,3.213,3.213,0,0,1,.72,1.26,5.6,5.6,0,0,1,.229,1.66v1.58Zm4.34-1.4q0-2.779-2.061-2.78a1.932,1.932,0,0,0-1.659.7,3.856,3.856,0,0,0-.6,2.081Z"/>
    <path d="M213.788,116.975c.441.105.953.209,1.54.309a9.6,9.6,0,0,0,1.62.15,2.786,2.786,0,0,0,1.861-.51,2.1,2.1,0,0,0,.58-1.651v-.539q-.522.1-1.141.18a9.252,9.252,0,0,1-1.2.08,6.867,6.867,0,0,1-1.68-.2,3.175,3.175,0,0,1-1.4-.75,3.722,3.722,0,0,1-.949-1.51,7.338,7.338,0,0,1-.351-2.479,6.225,6.225,0,0,1,.38-2.321,3.975,3.975,0,0,1,1.02-1.509,3.807,3.807,0,0,1,1.51-.821,6.625,6.625,0,0,1,1.83-.25,9.687,9.687,0,0,1,2.04.22q1.02.221,1.96.521v9.16a4.911,4.911,0,0,1-.3,1.84,2.922,2.922,0,0,1-.87,1.2,3.5,3.5,0,0,1-1.38.66,7.767,7.767,0,0,1-1.85.2,12.685,12.685,0,0,1-1.82-.14,13.839,13.839,0,0,1-1.62-.32Zm5.6-9.981c-.268-.066-.577-.133-.931-.2a5.609,5.609,0,0,0-1.03-.1,3.643,3.643,0,0,0-1.02.14,1.882,1.882,0,0,0-.84.52,2.675,2.675,0,0,0-.57,1.031,5.611,5.611,0,0,0-.21,1.689,7.224,7.224,0,0,0,.17,1.74,2.5,2.5,0,0,0,.49,1.03,1.515,1.515,0,0,0,.77.49,3.848,3.848,0,0,0,.99.12,7.157,7.157,0,0,0,1.061-.08c.359-.054.732-.112,1.12-.18Z"/>
    <path d="M232.008,114.514q-.761.221-1.83.451a10.975,10.975,0,0,1-2.29.229,7.173,7.173,0,0,1-1.56-.16,3.47,3.47,0,0,1-1.25-.53,2.551,2.551,0,0,1-.83-.97,3.334,3.334,0,0,1-.3-1.5,2.728,2.728,0,0,1,.33-1.4,2.625,2.625,0,0,1,.87-.9,3.675,3.675,0,0,1,1.26-.48,7.871,7.871,0,0,1,1.5-.14q.641,0,1.151.05c.339.033.649.077.929.13v-.94a1.393,1.393,0,0,0-.65-1.35,3.417,3.417,0,0,0-1.63-.35,8.6,8.6,0,0,0-1.4.119q-.721.121-1.281.241l-.14-1.52c.426-.094.9-.174,1.41-.24a11.843,11.843,0,0,1,1.511-.1,8.327,8.327,0,0,1,1.609.151,3.741,3.741,0,0,1,1.34.519,2.767,2.767,0,0,1,.91.97,3,3,0,0,1,.34,1.5Zm-2.02-3.76q-.42-.08-.92-.13c-.334-.033-.673-.05-1.02-.05a5.344,5.344,0,0,0-.83.061,1.889,1.889,0,0,0-.68.229,1.236,1.236,0,0,0-.46.48,1.683,1.683,0,0,0-.17.81,1.349,1.349,0,0,0,.59,1.27,2.751,2.751,0,0,0,1.43.349,7.512,7.512,0,0,0,1.131-.079c.352-.053.663-.113.929-.18Z"/>
    <path d="M235.128,114.994v-9.1a15.577,15.577,0,0,1,2.49-.551,20.378,20.378,0,0,1,2.75-.17v1.6c-.147-.011-.3-.019-.46-.019h-.48a9.43,9.43,0,0,0-1.24.08,8.141,8.141,0,0,0-1.04.2v7.96Z"/>
  </g>
  <g>
    <path d="M166.1,238.484l1.327.335a4.468,4.468,0,0,1-1.5,2.492,4.133,4.133,0,0,1-2.649.858,4.758,4.758,0,0,1-2.635-.66,4.116,4.116,0,0,1-1.545-1.91,6.823,6.823,0,0,1-.53-2.687,5.914,5.914,0,0,1,.6-2.731,4.1,4.1,0,0,1,1.7-1.771,4.97,4.97,0,0,1,2.43-.6,4.112,4.112,0,0,1,2.529.765,3.972,3.972,0,0,1,1.429,2.154l-1.306.307a3.094,3.094,0,0,0-1.012-1.593,2.694,2.694,0,0,0-1.668-.5,3.24,3.24,0,0,0-1.931.554,2.919,2.919,0,0,0-1.09,1.486,5.984,5.984,0,0,0-.315,1.925,6.125,6.125,0,0,0,.373,2.232,2.786,2.786,0,0,0,1.159,1.426,3.252,3.252,0,0,0,1.7.471,2.862,2.862,0,0,0,1.887-.642A3.29,3.29,0,0,0,166.1,238.484Z"/>
    <path d="M168.894,242v-7.26H170v1.1a2.991,2.991,0,0,1,.783-1.019,1.365,1.365,0,0,1,.789-.246,2.394,2.394,0,0,1,1.265.4l-.424,1.141a1.766,1.766,0,0,0-.9-.266,1.176,1.176,0,0,0-.725.242,1.318,1.318,0,0,0-.458.674,4.78,4.78,0,0,0-.205,1.435V242Z"/>
    <path d="M178.539,239.66l1.272.157a3.1,3.1,0,0,1-1.115,1.73,3.775,3.775,0,0,1-4.6-.366,3.834,3.834,0,0,1-.933-2.751,4.01,4.01,0,0,1,.944-2.844,3.189,3.189,0,0,1,2.447-1.012,3.1,3.1,0,0,1,2.379.991,3.939,3.939,0,0,1,.923,2.789c0,.073,0,.182-.007.329h-5.414a2.793,2.793,0,0,0,.676,1.832,2.018,2.018,0,0,0,1.518.635,1.888,1.888,0,0,0,1.155-.355A2.36,2.36,0,0,0,178.539,239.66Zm-4.04-1.989h4.054a2.461,2.461,0,0,0-.465-1.374,1.883,1.883,0,0,0-1.525-.711,1.952,1.952,0,0,0-1.425.567A2.245,2.245,0,0,0,174.5,237.671Z"/>
    <path d="M186.093,241.1a4.633,4.633,0,0,1-1.316.82,3.816,3.816,0,0,1-1.357.239,2.638,2.638,0,0,1-1.839-.585,1.93,1.93,0,0,1-.643-1.493,2.023,2.023,0,0,1,.879-1.682,3,3,0,0,1,.885-.4,8.7,8.7,0,0,1,1.094-.185,11.284,11.284,0,0,0,2.194-.423c0-.169.007-.277.007-.322a1.354,1.354,0,0,0-.349-1.059,2.052,2.052,0,0,0-1.4-.417,2.181,2.181,0,0,0-1.282.3,1.86,1.86,0,0,0-.611,1.078l-1.2-.164a3,3,0,0,1,.54-1.248,2.369,2.369,0,0,1,1.087-.732,4.847,4.847,0,0,1,1.648-.256,4.339,4.339,0,0,1,1.511.219,1.982,1.982,0,0,1,.854.55,1.938,1.938,0,0,1,.383.838,6.938,6.938,0,0,1,.061,1.134v1.641a17.458,17.458,0,0,0,.079,2.17,2.721,2.721,0,0,0,.311.872h-1.285A2.6,2.6,0,0,1,186.093,241.1Zm-.1-2.749a9.062,9.062,0,0,1-2.01.465,4.676,4.676,0,0,0-1.073.246,1.075,1.075,0,0,0-.485.4,1.087,1.087,0,0,0,.2,1.405,1.6,1.6,0,0,0,1.09.328,2.534,2.534,0,0,0,1.265-.311,1.912,1.912,0,0,0,.813-.851,2.974,2.974,0,0,0,.2-1.23Z"/>
    <path d="M189.128,242v-7.26h1.107v1.1a3,3,0,0,1,.783-1.019,1.368,1.368,0,0,1,.79-.246,2.394,2.394,0,0,1,1.264.4l-.424,1.141a1.763,1.763,0,0,0-.9-.266,1.179,1.179,0,0,0-.725.242,1.324,1.324,0,0,0-.458.674,4.812,4.812,0,0,0-.2,1.435V242Z"/>
    <path d="M197.639,244.794l-.137-1.155a2.777,2.777,0,0,0,.7.109,1.353,1.353,0,0,0,.656-.137,1.119,1.119,0,0,0,.4-.382,6.262,6.262,0,0,0,.376-.916c.023-.069.059-.169.109-.3L197,234.738h1.326l1.511,4.2q.294.8.526,1.682a16.417,16.417,0,0,1,.506-1.654l1.552-4.232h1.23l-2.761,7.383a14.708,14.708,0,0,1-.691,1.648,2.41,2.41,0,0,1-.752.891,1.766,1.766,0,0,1-1.011.284A2.467,2.467,0,0,1,197.639,244.794Z"/>
    <path d="M213.32,241.1a4.606,4.606,0,0,1-1.316.82,3.812,3.812,0,0,1-1.357.239,2.636,2.636,0,0,1-1.838-.585,1.927,1.927,0,0,1-.643-1.493,2.025,2.025,0,0,1,.878-1.682,3.021,3.021,0,0,1,.886-.4,8.679,8.679,0,0,1,1.093-.185,11.3,11.3,0,0,0,2.195-.423c0-.169.007-.277.007-.322a1.358,1.358,0,0,0-.349-1.059,2.054,2.054,0,0,0-1.4-.417,2.181,2.181,0,0,0-1.282.3,1.861,1.861,0,0,0-.612,1.078l-1.2-.164a2.97,2.97,0,0,1,.54-1.248,2.363,2.363,0,0,1,1.087-.732,4.845,4.845,0,0,1,1.647-.256,4.332,4.332,0,0,1,1.511.219,1.992,1.992,0,0,1,.855.55,1.926,1.926,0,0,1,.382.838,6.9,6.9,0,0,1,.062,1.134v1.641a17.25,17.25,0,0,0,.079,2.17,2.721,2.721,0,0,0,.311.872h-1.286A2.642,2.642,0,0,1,213.32,241.1Zm-.1-2.749a9.077,9.077,0,0,1-2.01.465,4.649,4.649,0,0,0-1.073.246,1.072,1.072,0,0,0-.486.4,1.09,1.09,0,0,0,.2,1.405,1.6,1.6,0,0,0,1.09.328,2.529,2.529,0,0,0,1.265-.311,1.92,1.92,0,0,0,.814-.851,2.974,2.974,0,0,0,.2-1.23Z"/>
    <path d="M216.369,242v-7.26h1.108v1.033a2.608,2.608,0,0,1,2.31-1.2,3.019,3.019,0,0,1,1.207.236,1.892,1.892,0,0,1,.823.619,2.356,2.356,0,0,1,.383.909,6.968,6.968,0,0,1,.069,1.2V242h-1.231v-4.416a3.338,3.338,0,0,0-.143-1.125,1.191,1.191,0,0,0-.51-.595,1.628,1.628,0,0,0-.858-.221,1.993,1.993,0,0,0-1.357.5,2.463,2.463,0,0,0-.57,1.893V242Zm.868-8.333a1.574,1.574,0,0,1,.39-1.135,1.293,1.293,0,0,1,1-.424,2.794,2.794,0,0,1,1.155.37,1.552,1.552,0,0,0,.643.205.446.446,0,0,0,.335-.12.884.884,0,0,0,.164-.475h.889a1.7,1.7,0,0,1-.394,1.169,1.25,1.25,0,0,1-.946.39,2.578,2.578,0,0,1-1.135-.383,1.678,1.678,0,0,0-.67-.246.474.474,0,0,0-.376.164.674.674,0,0,0-.144.485Z"/>
    <path d="M228.893,241.1a4.633,4.633,0,0,1-1.316.82,3.816,3.816,0,0,1-1.357.239,2.637,2.637,0,0,1-1.839-.585,1.93,1.93,0,0,1-.643-1.493,2.023,2.023,0,0,1,.879-1.682,3,3,0,0,1,.885-.4,8.7,8.7,0,0,1,1.094-.185,11.3,11.3,0,0,0,2.194-.423c0-.169.007-.277.007-.322a1.354,1.354,0,0,0-.349-1.059,2.052,2.052,0,0,0-1.4-.417,2.181,2.181,0,0,0-1.282.3,1.866,1.866,0,0,0-.612,1.078l-1.2-.164a3,3,0,0,1,.54-1.248,2.369,2.369,0,0,1,1.087-.732,4.847,4.847,0,0,1,1.648-.256,4.329,4.329,0,0,1,1.51.219,1.979,1.979,0,0,1,.855.55,1.938,1.938,0,0,1,.383.838,6.938,6.938,0,0,1,.061,1.134v1.641a17.458,17.458,0,0,0,.079,2.17,2.721,2.721,0,0,0,.311.872h-1.285A2.6,2.6,0,0,1,228.893,241.1Zm-.1-2.749a9.077,9.077,0,0,1-2.01.465,4.662,4.662,0,0,0-1.073.246,1.07,1.07,0,0,0-.485.4,1.088,1.088,0,0,0,.2,1.405,1.6,1.6,0,0,0,1.091.328,2.528,2.528,0,0,0,1.264-.311,1.92,1.92,0,0,0,.814-.851,2.974,2.974,0,0,0,.2-1.23Z"/>
    <path d="M236.651,242v-.916a2.258,2.258,0,0,1-2.03,1.08,2.852,2.852,0,0,1-1.6-.478,3.159,3.159,0,0,1-1.128-1.337,4.615,4.615,0,0,1-.4-1.972,5.178,5.178,0,0,1,.362-1.973,2.862,2.862,0,0,1,1.087-1.356,2.9,2.9,0,0,1,1.62-.472,2.422,2.422,0,0,1,2,1v-3.595h1.224V242Zm-3.889-3.623a3.153,3.153,0,0,0,.588,2.085,1.772,1.772,0,0,0,1.387.69,1.737,1.737,0,0,0,1.371-.66,3.037,3.037,0,0,0,.564-2.012,3.418,3.418,0,0,0-.574-2.188,1.766,1.766,0,0,0-1.415-.7,1.7,1.7,0,0,0-1.371.67A3.3,3.3,0,0,0,232.762,238.375Z"/>
    <path d="M239.734,233.392v-1.415h1.231v1.415Zm0,8.606v-7.26h1.231V242Z"/>
    <path d="M242.824,242v-7.26h1.108v1.1a2.991,2.991,0,0,1,.782-1.019,1.37,1.37,0,0,1,.79-.246,2.4,2.4,0,0,1,1.265.4l-.424,1.141a1.769,1.769,0,0,0-.9-.266,1.174,1.174,0,0,0-.724.242,1.312,1.312,0,0,0-.458.674,4.78,4.78,0,0,0-.2,1.435V242Z"/>
    <path d="M177.527,256.139l1.21.157a3.135,3.135,0,0,1-1.015,1.958,2.954,2.954,0,0,1-2.006.708,3.115,3.115,0,0,1-2.4-.975,3.95,3.95,0,0,1-.906-2.792,5.046,5.046,0,0,1,.39-2.057,2.715,2.715,0,0,1,1.186-1.324,3.527,3.527,0,0,1,1.733-.44,3.01,3.01,0,0,1,1.934.6,2.739,2.739,0,0,1,.964,1.7l-1.2.184a1.986,1.986,0,0,0-.605-1.1,1.566,1.566,0,0,0-1.049-.369,1.907,1.907,0,0,0-1.511.666,3.165,3.165,0,0,0-.581,2.109,3.275,3.275,0,0,0,.56,2.126,1.826,1.826,0,0,0,1.463.663,1.726,1.726,0,0,0,1.21-.444A2.2,2.2,0,0,0,177.527,256.139Z"/>
    <path d="M179.332,255.168a3.74,3.74,0,0,1,1.121-2.987,3.377,3.377,0,0,1,2.283-.807,3.263,3.263,0,0,1,2.448.98,3.737,3.737,0,0,1,.95,2.711,4.8,4.8,0,0,1-.421,2.2,2.978,2.978,0,0,1-1.223,1.248,3.578,3.578,0,0,1-1.754.444,3.261,3.261,0,0,1-2.464-.978A3.907,3.907,0,0,1,179.332,255.168Zm1.265,0a3.087,3.087,0,0,0,.608,2.088,2.026,2.026,0,0,0,3.056,0,3.165,3.165,0,0,0,.608-2.126,3,3,0,0,0-.612-2.041,2.03,2.03,0,0,0-3.052,0A3.075,3.075,0,0,0,180.6,255.168Z"/>
    <path d="M187.576,258.8v-7.26h1.108v1.032a2.607,2.607,0,0,1,2.31-1.2,3.036,3.036,0,0,1,1.207.235,1.9,1.9,0,0,1,.823.62,2.349,2.349,0,0,1,.383.909,6.968,6.968,0,0,1,.069,1.2V258.8h-1.231v-4.416a3.338,3.338,0,0,0-.143-1.125,1.191,1.191,0,0,0-.51-.595,1.626,1.626,0,0,0-.858-.222,1.993,1.993,0,0,0-1.357.5,2.464,2.464,0,0,0-.57,1.894V258.8Z"/>
    <path d="M198.049,257.7l.178,1.087a4.646,4.646,0,0,1-.93.11,2.117,2.117,0,0,1-1.039-.212,1.193,1.193,0,0,1-.52-.558,4.408,4.408,0,0,1-.15-1.452V252.5h-.9v-.957h.9v-1.8l1.224-.738v2.536h1.237v.957h-1.237v4.245a2.169,2.169,0,0,0,.064.677.516.516,0,0,0,.212.239.827.827,0,0,0,.421.089A3.982,3.982,0,0,0,198.049,257.7Z"/>
    <path d="M204.222,256.46l1.271.157a3.11,3.11,0,0,1-1.114,1.73,3.352,3.352,0,0,1-2.078.615,3.318,3.318,0,0,1-2.526-.982,3.831,3.831,0,0,1-.933-2.751,4.009,4.009,0,0,1,.943-2.843,3.192,3.192,0,0,1,2.447-1.012,3.1,3.1,0,0,1,2.379.991,3.933,3.933,0,0,1,.923,2.789c0,.073,0,.182-.007.328h-5.414a2.789,2.789,0,0,0,.677,1.832,2.016,2.016,0,0,0,1.518.636,1.888,1.888,0,0,0,1.155-.355A2.369,2.369,0,0,0,204.222,256.46Zm-4.04-1.989h4.053a2.448,2.448,0,0,0-.464-1.374,1.885,1.885,0,0,0-1.525-.711,1.951,1.951,0,0,0-1.425.567A2.245,2.245,0,0,0,200.182,254.471Z"/>
    <path d="M207.038,258.8v-7.26h1.108v1.032a2.607,2.607,0,0,1,2.31-1.2,3.036,3.036,0,0,1,1.207.235,1.9,1.9,0,0,1,.823.62,2.365,2.365,0,0,1,.383.909,6.968,6.968,0,0,1,.069,1.2V258.8h-1.231v-4.416a3.308,3.308,0,0,0-.144-1.125,1.184,1.184,0,0,0-.509-.595,1.629,1.629,0,0,0-.858-.222,1.993,1.993,0,0,0-1.357.5,2.464,2.464,0,0,0-.57,1.894V258.8Z"/>
    <path d="M214.831,250.191v-1.415h1.231v1.415Zm0,8.607v-7.26h1.231v7.26Z"/>
    <path d="M222.645,258.8v-.916a2.26,2.26,0,0,1-2.031,1.08,2.848,2.848,0,0,1-1.6-.479,3.147,3.147,0,0,1-1.128-1.337,4.622,4.622,0,0,1-.4-1.971,5.159,5.159,0,0,1,.363-1.973,2.855,2.855,0,0,1,1.086-1.356,2.9,2.9,0,0,1,1.621-.472,2.429,2.429,0,0,1,1.169.276,2.458,2.458,0,0,1,.834.722v-3.6h1.223V258.8Zm-3.89-3.623a3.155,3.155,0,0,0,.588,2.085,1.772,1.772,0,0,0,1.387.69,1.74,1.74,0,0,0,1.371-.66,3.038,3.038,0,0,0,.564-2.013,3.411,3.411,0,0,0-.574-2.187,1.766,1.766,0,0,0-1.415-.7,1.7,1.7,0,0,0-1.371.67A3.3,3.3,0,0,0,218.755,255.175Z"/>
    <path d="M225.263,255.168a3.737,3.737,0,0,1,1.121-2.987,3.376,3.376,0,0,1,2.283-.807,3.259,3.259,0,0,1,2.447.98,3.733,3.733,0,0,1,.95,2.711,4.811,4.811,0,0,1-.42,2.2,2.975,2.975,0,0,1-1.224,1.248,3.574,3.574,0,0,1-1.753.444,3.261,3.261,0,0,1-2.464-.978A3.9,3.9,0,0,1,225.263,255.168Zm1.264,0a3.087,3.087,0,0,0,.609,2.088,2.025,2.025,0,0,0,3.055,0,3.164,3.164,0,0,0,.609-2.126,3,3,0,0,0-.612-2.041,2.03,2.03,0,0,0-3.052,0A3.075,3.075,0,0,0,226.527,255.168Z"/>
  </g>
  <polygon points="219 161 204 161 204 176 199 176 199 161 185 161 185 156 199 156 199 141 204 141 204 156 219 156 219 161" fill="#5b5d5e"/>
  <g>
    <path d="M267.088,238.484l1.326.335a4.463,4.463,0,0,1-1.5,2.492,4.132,4.132,0,0,1-2.648.858,4.77,4.77,0,0,1-2.636-.659,4.13,4.13,0,0,1-1.545-1.911,6.823,6.823,0,0,1-.529-2.687,5.909,5.909,0,0,1,.6-2.73,4.112,4.112,0,0,1,1.7-1.772,4.991,4.991,0,0,1,2.431-.6,4.11,4.11,0,0,1,2.529.765,3.976,3.976,0,0,1,1.429,2.154l-1.305.307a3.106,3.106,0,0,0-1.012-1.593,2.7,2.7,0,0,0-1.668-.5,3.244,3.244,0,0,0-1.932.554,2.929,2.929,0,0,0-1.09,1.486,5.987,5.987,0,0,0-.314,1.925,6.118,6.118,0,0,0,.372,2.232,2.782,2.782,0,0,0,1.159,1.426,3.252,3.252,0,0,0,1.7.471,2.858,2.858,0,0,0,1.887-.642A3.294,3.294,0,0,0,267.088,238.484Z"/>
    <path d="M269.433,238.368a3.737,3.737,0,0,1,1.121-2.987,3.379,3.379,0,0,1,2.283-.807,3.257,3.257,0,0,1,2.447.981,3.735,3.735,0,0,1,.95,2.711,4.8,4.8,0,0,1-.421,2.205,2.97,2.97,0,0,1-1.223,1.247,3.563,3.563,0,0,1-1.753.444,3.266,3.266,0,0,1-2.465-.977A3.909,3.909,0,0,1,269.433,238.368Zm1.264,0a3.087,3.087,0,0,0,.609,2.089,2.026,2.026,0,0,0,3.055,0,3.164,3.164,0,0,0,.609-2.126,2.993,2.993,0,0,0-.613-2.04,2.027,2.027,0,0,0-3.051,0A3.072,3.072,0,0,0,270.7,238.368Z"/>
    <path d="M277.677,242v-7.26h1.1v1.019a2.556,2.556,0,0,1,2.2-1.183,2.39,2.39,0,0,1,1.322.335,1.791,1.791,0,0,1,.728.937,2.607,2.607,0,0,1,2.242-1.272,2.212,2.212,0,0,1,1.662.6,2.565,2.565,0,0,1,.581,1.843V242H286.29v-4.573a3.368,3.368,0,0,0-.12-1.064,1.032,1.032,0,0,0-.434-.522,1.357,1.357,0,0,0-.738-.2,1.716,1.716,0,0,0-1.271.509,2.238,2.238,0,0,0-.506,1.63V242H281.99v-4.717a2.069,2.069,0,0,0-.3-1.23,1.138,1.138,0,0,0-.984-.41,1.791,1.791,0,0,0-.961.273,1.549,1.549,0,0,0-.639.8,4.5,4.5,0,0,0-.2,1.517V242Z"/>
    <path d="M289.339,244.78V234.738h1.121v.944a2.738,2.738,0,0,1,.9-.83,2.446,2.446,0,0,1,1.21-.278,2.872,2.872,0,0,1,1.641.479,2.936,2.936,0,0,1,1.073,1.349,4.929,4.929,0,0,1,.363,1.911,4.847,4.847,0,0,1-.4,2.007,3.018,3.018,0,0,1-1.162,1.368,2.986,2.986,0,0,1-1.6.474,2.308,2.308,0,0,1-1.1-.26,2.517,2.517,0,0,1-.8-.656v3.534Zm1.114-6.371a3.152,3.152,0,0,0,.568,2.071,1.732,1.732,0,0,0,1.374.67,1.78,1.78,0,0,0,1.4-.693,3.3,3.3,0,0,0,.585-2.15,3.208,3.208,0,0,0-.571-2.078,1.716,1.716,0,0,0-1.364-.691,1.771,1.771,0,0,0-1.391.735A3.284,3.284,0,0,0,290.453,238.409Z"/>
    <path d="M301.862,241.1a4.575,4.575,0,0,1-1.316.82,3.812,3.812,0,0,1-1.357.239,2.639,2.639,0,0,1-1.838-.584,1.93,1.93,0,0,1-.643-1.494,2.018,2.018,0,0,1,.878-1.682,3.021,3.021,0,0,1,.886-.4,8.834,8.834,0,0,1,1.093-.185,11.314,11.314,0,0,0,2.195-.423c0-.168.007-.276.007-.322a1.359,1.359,0,0,0-.349-1.059,2.059,2.059,0,0,0-1.4-.417,2.186,2.186,0,0,0-1.283.3,1.869,1.869,0,0,0-.611,1.078l-1.2-.164a2.965,2.965,0,0,1,.54-1.247,2.359,2.359,0,0,1,1.087-.733,4.865,4.865,0,0,1,1.647-.256,4.339,4.339,0,0,1,1.511.219,1.993,1.993,0,0,1,.855.551,1.945,1.945,0,0,1,.382.837,6.913,6.913,0,0,1,.062,1.134v1.641a17.571,17.571,0,0,0,.078,2.171,2.718,2.718,0,0,0,.312.871h-1.286A2.6,2.6,0,0,1,301.862,241.1Zm-.1-2.749a9.02,9.02,0,0,1-2.01.465,4.758,4.758,0,0,0-1.073.246,1.072,1.072,0,0,0-.486.4,1.09,1.09,0,0,0,.2,1.405,1.6,1.6,0,0,0,1.09.328,2.532,2.532,0,0,0,1.265-.311,1.92,1.92,0,0,0,.814-.851,2.991,2.991,0,0,0,.2-1.23Z"/>
    <path d="M304.9,242v-7.26h1.108v1.1a3,3,0,0,1,.782-1.019,1.368,1.368,0,0,1,.79-.246,2.408,2.408,0,0,1,1.265.4l-.424,1.141a1.768,1.768,0,0,0-.9-.266,1.174,1.174,0,0,0-.725.242,1.312,1.312,0,0,0-.458.674,4.78,4.78,0,0,0-.205,1.435V242Z"/>
    <path d="M312.26,240.9l.178,1.087a4.574,4.574,0,0,1-.93.11,2.106,2.106,0,0,1-1.039-.212,1.188,1.188,0,0,1-.52-.558,4.408,4.408,0,0,1-.15-1.452V235.7h-.9v-.957h.9v-1.8l1.223-.738v2.536h1.238v.957h-1.238v4.245a2.149,2.149,0,0,0,.065.677.516.516,0,0,0,.212.239.812.812,0,0,0,.421.089A3.85,3.85,0,0,0,312.26,240.9Z"/>
    <path d="M313.47,233.392v-1.415h1.23v1.415Zm0,8.606v-7.26h1.23V242Z"/>
    <path d="M316.56,242v-7.26h1.107v1.1a3,3,0,0,1,.782-1.019,1.368,1.368,0,0,1,.79-.246,2.408,2.408,0,0,1,1.265.4l-.424,1.141a1.766,1.766,0,0,0-.9-.266,1.174,1.174,0,0,0-.725.242,1.312,1.312,0,0,0-.458.674,4.78,4.78,0,0,0-.2,1.435V242Z"/>
    <path d="M325.07,244.794l-.136-1.155a2.771,2.771,0,0,0,.7.109,1.341,1.341,0,0,0,.656-.137,1.116,1.116,0,0,0,.4-.382,6.211,6.211,0,0,0,.376-.916c.023-.069.059-.168.11-.3l-2.755-7.274h1.326l1.511,4.2q.293.8.526,1.682a16.5,16.5,0,0,1,.506-1.654l1.552-4.232h1.23l-2.762,7.383a14.564,14.564,0,0,1-.69,1.648,2.429,2.429,0,0,1-.752.891,1.771,1.771,0,0,1-1.012.284A2.44,2.44,0,0,1,325.07,244.794Z"/>
    <path d="M336.015,244.78V234.738h1.121v.944a2.728,2.728,0,0,1,.895-.83,2.443,2.443,0,0,1,1.21-.278,2.874,2.874,0,0,1,1.641.479,2.943,2.943,0,0,1,1.073,1.349,4.947,4.947,0,0,1,.362,1.911,4.847,4.847,0,0,1-.4,2.007,3.024,3.024,0,0,1-1.162,1.368,2.987,2.987,0,0,1-1.6.474,2.307,2.307,0,0,1-1.1-.26,2.517,2.517,0,0,1-.8-.656v3.534Zm1.114-6.371a3.152,3.152,0,0,0,.567,2.071,1.735,1.735,0,0,0,1.374.67,1.78,1.78,0,0,0,1.405-.693,3.3,3.3,0,0,0,.585-2.15,3.2,3.2,0,0,0-.572-2.078,1.716,1.716,0,0,0-1.363-.691,1.775,1.775,0,0,0-1.392.735A3.29,3.29,0,0,0,337.129,238.409Z"/>
    <path d="M348.559,242v-1.066a2.659,2.659,0,0,1-2.3,1.23,2.938,2.938,0,0,1-1.2-.246,1.973,1.973,0,0,1-.827-.619,2.306,2.306,0,0,1-.379-.912,6.165,6.165,0,0,1-.076-1.149v-4.5H345v4.027a7.089,7.089,0,0,0,.075,1.3,1.281,1.281,0,0,0,.492.763,1.529,1.529,0,0,0,.93.277,2.019,2.019,0,0,0,1.039-.285,1.574,1.574,0,0,0,.687-.771,3.888,3.888,0,0,0,.2-1.419v-3.89h1.23V242Z"/>
    <path d="M352.722,242H351.58V231.977h1.231v3.575a2.433,2.433,0,0,1,1.989-.978,3.041,3.041,0,0,1,1.267.27,2.57,2.57,0,0,1,.985.76,3.649,3.649,0,0,1,.6,1.178,4.854,4.854,0,0,1,.219,1.477,4.149,4.149,0,0,1-.923,2.885,2.888,2.888,0,0,1-2.215,1.018,2.308,2.308,0,0,1-2.016-1.073Zm-.014-3.685a3.767,3.767,0,0,0,.355,1.887,1.759,1.759,0,0,0,2.967.249,3.181,3.181,0,0,0,.588-2.088,3.238,3.238,0,0,0-.564-2.1,1.718,1.718,0,0,0-1.364-.677,1.766,1.766,0,0,0-1.394.7A3.069,3.069,0,0,0,352.708,238.313Z"/>
    <path d="M359.346,242V231.977h1.23V242Z"/>
    <path d="M362.49,233.392v-1.415h1.231v1.415Zm0,8.606v-7.26h1.231V242Z"/>
    <path d="M370.331,239.339l1.21.157a3.146,3.146,0,0,1-1.016,1.959,2.956,2.956,0,0,1-2,.707,3.117,3.117,0,0,1-2.4-.974,3.956,3.956,0,0,1-.9-2.792,5.065,5.065,0,0,1,.389-2.058,2.716,2.716,0,0,1,1.186-1.322,3.507,3.507,0,0,1,1.733-.442,3.014,3.014,0,0,1,1.935.6,2.748,2.748,0,0,1,.964,1.7l-1.2.185a1.99,1.99,0,0,0-.606-1.1,1.565,1.565,0,0,0-1.049-.369,1.913,1.913,0,0,0-1.511.666,3.169,3.169,0,0,0-.581,2.109,3.269,3.269,0,0,0,.561,2.126,1.82,1.82,0,0,0,1.463.663,1.728,1.728,0,0,0,1.21-.444A2.21,2.21,0,0,0,370.331,239.339Z"/>
    <path d="M377.331,241.1a4.575,4.575,0,0,1-1.316.82,3.812,3.812,0,0,1-1.357.239,2.641,2.641,0,0,1-1.839-.584,1.933,1.933,0,0,1-.642-1.494,2.018,2.018,0,0,1,.878-1.682,3,3,0,0,1,.885-.4,8.892,8.892,0,0,1,1.094-.185,11.33,11.33,0,0,0,2.195-.423c0-.168.006-.276.006-.322a1.359,1.359,0,0,0-.348-1.059,2.063,2.063,0,0,0-1.4-.417,2.181,2.181,0,0,0-1.282.3,1.869,1.869,0,0,0-.611,1.078l-1.2-.164a2.965,2.965,0,0,1,.54-1.247,2.359,2.359,0,0,1,1.087-.733,4.861,4.861,0,0,1,1.647-.256,4.339,4.339,0,0,1,1.511.219,1.982,1.982,0,0,1,.854.551,1.934,1.934,0,0,1,.383.837,6.913,6.913,0,0,1,.062,1.134v1.641a17.571,17.571,0,0,0,.078,2.171,2.74,2.74,0,0,0,.311.871h-1.285A2.6,2.6,0,0,1,377.331,241.1Zm-.1-2.749a9.048,9.048,0,0,1-2.01.465,4.744,4.744,0,0,0-1.073.246,1.067,1.067,0,0,0-.486.4,1.088,1.088,0,0,0,.2,1.405,1.606,1.606,0,0,0,1.091.328,2.532,2.532,0,0,0,1.265-.311,1.918,1.918,0,0,0,.813-.851,2.972,2.972,0,0,0,.2-1.23Z"/>
    <path d="M380.366,242v-7.26h1.108v1.1a3,3,0,0,1,.782-1.019,1.368,1.368,0,0,1,.79-.246,2.408,2.408,0,0,1,1.265.4l-.424,1.141a1.769,1.769,0,0,0-.9-.266,1.174,1.174,0,0,0-.724.242,1.312,1.312,0,0,0-.458.674,4.78,4.78,0,0,0-.205,1.435V242Z"/>
    <path d="M296.79,256.139l1.21.157a3.138,3.138,0,0,1-1.016,1.958,2.948,2.948,0,0,1-2,.708,3.12,3.12,0,0,1-2.4-.974,3.957,3.957,0,0,1-.9-2.793,5.066,5.066,0,0,1,.389-2.057,2.729,2.729,0,0,1,1.186-1.324,3.527,3.527,0,0,1,1.733-.44,3.009,3.009,0,0,1,1.935.6,2.746,2.746,0,0,1,.964,1.7l-1.2.184a1.987,1.987,0,0,0-.606-1.1,1.565,1.565,0,0,0-1.049-.369,1.9,1.9,0,0,0-1.511.667,3.16,3.16,0,0,0-.581,2.108,3.265,3.265,0,0,0,.561,2.126,1.823,1.823,0,0,0,1.463.663,1.723,1.723,0,0,0,1.21-.444A2.212,2.212,0,0,0,296.79,256.139Z"/>
    <path d="M298.6,255.168a3.74,3.74,0,0,1,1.121-2.987,3.376,3.376,0,0,1,2.283-.807,3.256,3.256,0,0,1,2.447.981,3.733,3.733,0,0,1,.95,2.71,4.808,4.808,0,0,1-.42,2.2,2.981,2.981,0,0,1-1.224,1.248,3.563,3.563,0,0,1-1.753.444,3.26,3.26,0,0,1-2.465-.978A3.9,3.9,0,0,1,298.6,255.168Zm1.264,0a3.087,3.087,0,0,0,.609,2.088,2.025,2.025,0,0,0,3.055,0,3.163,3.163,0,0,0,.609-2.126,3,3,0,0,0-.612-2.041,2.03,2.03,0,0,0-3.052,0A3.075,3.075,0,0,0,299.859,255.168Z"/>
    <path d="M306.839,258.8v-7.26h1.107v1.032a2.61,2.61,0,0,1,2.311-1.2,3.048,3.048,0,0,1,1.206.235,1.912,1.912,0,0,1,.824.62,2.378,2.378,0,0,1,.383.909,7.1,7.1,0,0,1,.068,1.2V258.8h-1.23v-4.416a3.3,3.3,0,0,0-.144-1.124,1.179,1.179,0,0,0-.51-.6,1.625,1.625,0,0,0-.857-.222,2,2,0,0,0-1.357.5,2.463,2.463,0,0,0-.571,1.894V258.8Z"/>
    <path d="M317.312,257.7l.177,1.087a4.557,4.557,0,0,1-.929.11,2.115,2.115,0,0,1-1.039-.212,1.186,1.186,0,0,1-.52-.557,4.391,4.391,0,0,1-.15-1.453V252.5h-.9v-.957h.9v-1.8l1.223-.738v2.536h1.238v.957h-1.238v4.245a2.153,2.153,0,0,0,.065.677.506.506,0,0,0,.212.239.82.82,0,0,0,.42.089A4.008,4.008,0,0,0,317.312,257.7Z"/>
    <path d="M323.484,256.46l1.272.157a3.11,3.11,0,0,1-1.114,1.73,3.355,3.355,0,0,1-2.079.615,3.318,3.318,0,0,1-2.526-.982,3.829,3.829,0,0,1-.933-2.751,4.011,4.011,0,0,1,.944-2.843,3.191,3.191,0,0,1,2.447-1.012,3.106,3.106,0,0,1,2.379.991,3.937,3.937,0,0,1,.923,2.789c0,.073,0,.182-.007.328h-5.414a2.779,2.779,0,0,0,.677,1.832,2.012,2.012,0,0,0,1.517.636,1.887,1.887,0,0,0,1.156-.355A2.375,2.375,0,0,0,323.484,256.46Zm-4.04-1.989H323.5a2.458,2.458,0,0,0-.465-1.374,1.886,1.886,0,0,0-1.524-.711,1.953,1.953,0,0,0-1.426.567A2.249,2.249,0,0,0,319.444,254.471Z"/>
    <path d="M326.3,258.8v-7.26h1.107v1.032a2.61,2.61,0,0,1,2.311-1.2,3.048,3.048,0,0,1,1.206.235,1.912,1.912,0,0,1,.824.62,2.378,2.378,0,0,1,.383.909,7.1,7.1,0,0,1,.068,1.2V258.8h-1.23v-4.416a3.3,3.3,0,0,0-.144-1.124,1.184,1.184,0,0,0-.51-.6,1.625,1.625,0,0,0-.857-.222,2,2,0,0,0-1.357.5,2.463,2.463,0,0,0-.571,1.894V258.8Z"/>
    <path d="M334.094,250.191v-1.415h1.23v1.415Zm0,8.607v-7.26h1.23v7.26Z"/>
    <path d="M341.907,258.8v-.916a2.259,2.259,0,0,1-2.03,1.08,2.843,2.843,0,0,1-1.6-.479,3.147,3.147,0,0,1-1.128-1.337,4.619,4.619,0,0,1-.4-1.971,5.15,5.15,0,0,1,.362-1.972,2.849,2.849,0,0,1,1.087-1.357,2.9,2.9,0,0,1,1.62-.472,2.438,2.438,0,0,1,1.169.276,2.47,2.47,0,0,1,.834.722v-3.6h1.224V258.8Zm-3.889-3.623a3.155,3.155,0,0,0,.587,2.085,1.771,1.771,0,0,0,1.388.69,1.742,1.742,0,0,0,1.37-.659,3.043,3.043,0,0,0,.565-2.014,3.417,3.417,0,0,0-.574-2.187,1.767,1.767,0,0,0-1.416-.7,1.7,1.7,0,0,0-1.371.67A3.311,3.311,0,0,0,338.018,255.175Z"/>
    <path d="M344.525,255.168a3.74,3.74,0,0,1,1.121-2.987,3.378,3.378,0,0,1,2.284-.807,3.257,3.257,0,0,1,2.447.981,3.733,3.733,0,0,1,.95,2.71,4.794,4.794,0,0,1-.421,2.2,2.972,2.972,0,0,1-1.223,1.248,3.566,3.566,0,0,1-1.753.444,3.26,3.26,0,0,1-2.465-.978A3.905,3.905,0,0,1,344.525,255.168Zm1.265,0a3.087,3.087,0,0,0,.608,2.088,2.026,2.026,0,0,0,3.056,0,3.168,3.168,0,0,0,.609-2.126,3,3,0,0,0-.613-2.041,2.03,2.03,0,0,0-3.052,0A3.075,3.075,0,0,0,345.79,255.168Z"/>
  </g>
  <g>
    <path d="M297.445,114.794a10.968,10.968,0,0,1-1.72.32,16.24,16.24,0,0,1-1.76.1,8.373,8.373,0,0,1-2.48-.341,4.309,4.309,0,0,1-1.87-1.14,5.147,5.147,0,0,1-1.17-2.12,13.644,13.644,0,0,1,0-6.559,5.065,5.065,0,0,1,1.17-2.111,4.276,4.276,0,0,1,1.89-1.12,8.984,8.984,0,0,1,2.54-.33,15.333,15.333,0,0,1,1.74.1q.879.1,1.6.24l-.24,1.6a14.8,14.8,0,0,0-1.57-.26,14.253,14.253,0,0,0-1.63-.1,4.8,4.8,0,0,0-1.63.25,2.489,2.489,0,0,0-1.15.85,4.126,4.126,0,0,0-.69,1.61,11.61,11.61,0,0,0-.23,2.53,11.786,11.786,0,0,0,.24,2.61,4.15,4.15,0,0,0,.71,1.631,2.488,2.488,0,0,0,1.18.84,5.151,5.151,0,0,0,1.65.24,11.033,11.033,0,0,0,1.63-.131c.58-.086,1.123-.184,1.63-.289Z"/>
    <path d="M303.785,115.194a4.571,4.571,0,0,1-3.38-1.18,6.838,6.838,0,0,1,0-7.68,5.445,5.445,0,0,1,6.77,0,6.791,6.791,0,0,1,0,7.68A4.61,4.61,0,0,1,303.785,115.194Zm-1.82-2.26a1.69,1.69,0,0,0,.78.56,3.184,3.184,0,0,0,1.06.16,3.089,3.089,0,0,0,1.049-.16,1.7,1.7,0,0,0,.771-.56,2.686,2.686,0,0,0,.479-1.07,8.95,8.95,0,0,0,0-3.38,2.7,2.7,0,0,0-.479-1.07,1.709,1.709,0,0,0-.771-.56,3.139,3.139,0,0,0-1.049-.16,3.236,3.236,0,0,0-1.06.16,1.7,1.7,0,0,0-.78.56,2.7,2.7,0,0,0-.481,1.07,9.061,9.061,0,0,0,0,3.38A2.687,2.687,0,0,0,301.965,112.934Z"/>
    <path d="M311.065,114.994v-9.1q.78-.242,1.88-.491a10.2,10.2,0,0,1,2.26-.25,6.208,6.208,0,0,1,1.62.2,3.42,3.42,0,0,1,1.28.64,8.818,8.818,0,0,1,1.68-.6,7.373,7.373,0,0,1,1.84-.241,6.236,6.236,0,0,1,1.49.17,3.038,3.038,0,0,1,1.19.571,2.763,2.763,0,0,1,.79,1.049,3.957,3.957,0,0,1,.29,1.611v6.439h-2.02v-6.359a2.415,2.415,0,0,0-.16-.951,1.534,1.534,0,0,0-.43-.59,1.591,1.591,0,0,0-.65-.31,3.521,3.521,0,0,0-.8-.09,4.2,4.2,0,0,0-1.27.18,10.711,10.711,0,0,0-1.03.38,3.761,3.761,0,0,1,.2,1.3v6.439h-2.02v-6.359a2.433,2.433,0,0,0-.16-.951,1.534,1.534,0,0,0-.43-.59,1.594,1.594,0,0,0-.64-.31,3.482,3.482,0,0,0-.81-.09,6.92,6.92,0,0,0-1.08.09,9.586,9.586,0,0,0-1,.21v8Z"/>
    <path d="M328.585,118.754V105.9a18.153,18.153,0,0,1,2.07-.521,11.313,11.313,0,0,1,2.15-.22,6.1,6.1,0,0,1,1.78.25,3.553,3.553,0,0,1,1.43.83,3.883,3.883,0,0,1,.95,1.52,6.891,6.891,0,0,1,.34,2.32,7.641,7.641,0,0,1-.35,2.51,3.993,3.993,0,0,1-.95,1.57,3.31,3.31,0,0,1-1.39.811,6.07,6.07,0,0,1-1.69.229,9.022,9.022,0,0,1-1.19-.08c-.407-.053-.784-.114-1.13-.18v3.82Zm2.02-5.359q.559.1,1.1.179a7.406,7.406,0,0,0,1.08.08,3.115,3.115,0,0,0,.99-.15,1.635,1.635,0,0,0,.77-.55,2.815,2.815,0,0,0,.49-1.09,7.616,7.616,0,0,0,.17-1.77,7,7,0,0,0-.17-1.7,2.615,2.615,0,0,0-.49-1.041,1.635,1.635,0,0,0-.77-.52,3.406,3.406,0,0,0-1.01-.14,4.927,4.927,0,0,0-.53.031c-.193.019-.39.043-.59.069s-.39.058-.57.091a4.432,4.432,0,0,0-.47.109Z"/>
    <path d="M347.205,114.514q-.761.221-1.83.451a10.984,10.984,0,0,1-2.291.229,7.164,7.164,0,0,1-1.559-.16,3.455,3.455,0,0,1-1.25-.53,2.542,2.542,0,0,1-.83-.97,3.334,3.334,0,0,1-.3-1.5,2.718,2.718,0,0,1,.33-1.4,2.625,2.625,0,0,1,.87-.9,3.678,3.678,0,0,1,1.259-.48,7.871,7.871,0,0,1,1.5-.14q.641,0,1.151.05c.34.033.65.077.93.13v-.94a1.393,1.393,0,0,0-.65-1.35,3.417,3.417,0,0,0-1.63-.35,8.612,8.612,0,0,0-1.4.119q-.72.121-1.28.241l-.141-1.52q.641-.141,1.411-.24a11.827,11.827,0,0,1,1.51-.1,8.338,8.338,0,0,1,1.61.151,3.748,3.748,0,0,1,1.34.519,2.776,2.776,0,0,1,.91.97,3.015,3.015,0,0,1,.34,1.5Zm-2.02-3.76q-.42-.08-.92-.13t-1.02-.05a5.326,5.326,0,0,0-.83.061,1.889,1.889,0,0,0-.68.229,1.229,1.229,0,0,0-.46.48,1.671,1.671,0,0,0-.171.81,1.35,1.35,0,0,0,.591,1.27,2.746,2.746,0,0,0,1.43.349,7.5,7.5,0,0,0,1.13-.079q.529-.079.93-.18Z"/>
    <path d="M350.325,114.994v-9.1a15.59,15.59,0,0,1,2.489-.551,20.378,20.378,0,0,1,2.75-.17v1.6c-.147-.011-.3-.019-.46-.019h-.479a9.43,9.43,0,0,0-1.24.08,8.107,8.107,0,0,0-1.04.2v7.96Z"/>
    <path d="M360.464,112.594a.931.931,0,0,0,.32.81,1.4,1.4,0,0,0,.84.231,5.436,5.436,0,0,0,.96-.091,8.124,8.124,0,0,0,.84-.19l.06,1.52a5.524,5.524,0,0,1-1,.24,7.409,7.409,0,0,1-1.1.08,3.416,3.416,0,0,1-2.12-.62,2.394,2.394,0,0,1-.82-2.04v-5.68h-1.58v-1.5h1.58l.46-2.78h1.56v2.78h2.8v1.5h-2.8Z"/>
    <path d="M365.764,102.594a1.059,1.059,0,0,1-.34-.84,1.082,1.082,0,0,1,.34-.859,1.366,1.366,0,0,1,.94-.3q1.28,0,1.28,1.16a1.076,1.076,0,0,1-.33.84,1.634,1.634,0,0,1-1.89,0Zm-.06,12.4v-9.64h2.02v9.64Z"/>
    <path d="M371.124,114.994v-9.1a15.577,15.577,0,0,1,2.49-.551,20.378,20.378,0,0,1,2.75-.17v1.6c-.147-.011-.3-.019-.46-.019h-.48a9.43,9.43,0,0,0-1.24.08,8.141,8.141,0,0,0-1.04.2v7.96Z"/>
  </g>
  <g>
    <path d="M325.552,218.333c.231-3.425.941-16.878-1.071-25.614" fill="none" stroke="#000" stroke-miterlimit="10"/>
    <polygon points="329.123 195.133 328.546 195.951 324.521 193.104 321.975 197.327 321.118 196.809 324.22 191.666 329.123 195.133"/>
  </g>
  <g>
    <path d="M204.552,218.333c.231-3.425.941-16.878-1.071-25.614" fill="none" stroke="#000" stroke-miterlimit="10"/>
    <polygon points="208.123 195.133 207.546 195.951 203.521 193.104 200.975 197.327 200.118 196.809 203.22 191.666 208.123 195.133"/>
  </g>
  <path d="M345.03,152.961,327.2,170.629V159.543a26.646,26.646,0,0,0-6.72,1.715,25.015,25.015,0,0,0-5.762,3.23,23.621,23.621,0,0,0-4.527,4.465,20.553,20.553,0,0,0-3.011,5.424,18.8,18.8,0,0,1-1.236-6.7,19.223,19.223,0,0,1,1.615-7.8,21.426,21.426,0,0,1,4.467-6.561,24.882,24.882,0,0,1,6.74-4.785,26.213,26.213,0,0,1,8.434-2.472V135.295Zm-14.636-4.027-2.792.318a23.21,23.21,0,0,0-6.461,1.717,21.732,21.732,0,0,0-5.5,3.369,19.248,19.248,0,0,0-4.068,4.746,16.808,16.808,0,0,0-2.194,5.883,26.728,26.728,0,0,1,7.717-5.725,30.386,30.386,0,0,1,9.711-2.89l3.59-.44v7.061l10.089-10.012-10.089-10.01Z" fill="#5b5d5e"/>
  <g>
    <path d="M398.847,242l3.849-10.021h1.429l4.1,10.021h-1.511l-1.169-3.035h-4.19l-1.1,3.035Zm2.892-4.115h3.4l-1.046-2.776q-.478-1.263-.711-2.078a12.574,12.574,0,0,1-.54,1.914Z"/>
    <path d="M408.636,239.83l1.217-.191a1.7,1.7,0,0,0,.571,1.121,1.987,1.987,0,0,0,1.309.389,1.932,1.932,0,0,0,1.258-.344,1.035,1.035,0,0,0,.41-.811.749.749,0,0,0-.362-.656,5.382,5.382,0,0,0-1.258-.417,11.535,11.535,0,0,1-1.877-.591,1.79,1.79,0,0,1-1.063-1.665,1.878,1.878,0,0,1,.222-.9,1.991,1.991,0,0,1,.605-.688,2.533,2.533,0,0,1,.783-.358,3.691,3.691,0,0,1,1.063-.148,4.206,4.206,0,0,1,1.5.246,2.044,2.044,0,0,1,.953.667,2.621,2.621,0,0,1,.424,1.124l-1.2.164a1.32,1.32,0,0,0-.475-.875,1.741,1.741,0,0,0-1.111-.314,2.019,2.019,0,0,0-1.21.28.816.816,0,0,0-.362.656.677.677,0,0,0,.15.431,1.068,1.068,0,0,0,.472.328q.184.069,1.087.315a15.154,15.154,0,0,1,1.822.571,1.838,1.838,0,0,1,.81.646,1.809,1.809,0,0,1,.294,1.052,2.069,2.069,0,0,1-.359,1.159,2.32,2.32,0,0,1-1.036.841,3.754,3.754,0,0,1-1.531.3,3.405,3.405,0,0,1-2.157-.588A2.728,2.728,0,0,1,408.636,239.83Z"/>
    <path d="M416.135,233.391v-1.415h1.231v1.415Zm0,8.606v-7.26h1.231V242Z"/>
    <path d="M418.747,239.83l1.216-.191a1.7,1.7,0,0,0,.571,1.121,1.988,1.988,0,0,0,1.309.389,1.93,1.93,0,0,0,1.258-.344,1.032,1.032,0,0,0,.41-.811.747.747,0,0,0-.362-.656,5.382,5.382,0,0,0-1.258-.417,11.514,11.514,0,0,1-1.876-.591,1.79,1.79,0,0,1-1.063-1.665,1.867,1.867,0,0,1,.222-.9,1.981,1.981,0,0,1,.605-.688,2.511,2.511,0,0,1,.783-.358,3.681,3.681,0,0,1,1.063-.148,4.2,4.2,0,0,1,1.5.246,2.042,2.042,0,0,1,.954.667,2.608,2.608,0,0,1,.423,1.124l-1.2.164a1.316,1.316,0,0,0-.475-.875,1.741,1.741,0,0,0-1.111-.314,2.019,2.019,0,0,0-1.21.28.819.819,0,0,0-.362.656.672.672,0,0,0,.151.431,1.07,1.07,0,0,0,.471.328q.185.069,1.087.315a15.033,15.033,0,0,1,1.822.571,1.838,1.838,0,0,1,.81.646,1.8,1.8,0,0,1,.294,1.052,2.069,2.069,0,0,1-.359,1.159,2.309,2.309,0,0,1-1.036.841,3.754,3.754,0,0,1-1.531.3,3.407,3.407,0,0,1-2.157-.588A2.727,2.727,0,0,1,418.747,239.83Z"/>
    <path d="M428.925,240.9l.178,1.087a4.489,4.489,0,0,1-.93.11,2.109,2.109,0,0,1-1.039-.212,1.184,1.184,0,0,1-.519-.557,4.411,4.411,0,0,1-.151-1.453v-4.177h-.9v-.957h.9v-1.8l1.224-.738v2.536h1.237v.957h-1.237v4.245a2.114,2.114,0,0,0,.065.677.5.5,0,0,0,.212.239.81.81,0,0,0,.42.089A3.826,3.826,0,0,0,428.925,240.9Z"/>
    <path d="M435.1,239.659l1.272.157a3.1,3.1,0,0,1-1.115,1.73,3.777,3.777,0,0,1-4.6-.365,3.837,3.837,0,0,1-.933-2.752,4.013,4.013,0,0,1,.944-2.844,3.194,3.194,0,0,1,2.447-1.012,3.106,3.106,0,0,1,2.379.991,3.943,3.943,0,0,1,.923,2.79c0,.073,0,.182-.007.328H430.99a2.786,2.786,0,0,0,.677,1.832,2.011,2.011,0,0,0,1.517.635,1.88,1.88,0,0,0,1.155-.355A2.355,2.355,0,0,0,435.1,239.659Zm-4.04-1.989h4.054a2.467,2.467,0,0,0-.465-1.374,1.886,1.886,0,0,0-1.524-.711,1.959,1.959,0,0,0-1.426.567A2.249,2.249,0,0,0,431.058,237.67Z"/>
    <path d="M437.915,242v-7.26h1.107v1.033a2.611,2.611,0,0,1,2.311-1.2,3.018,3.018,0,0,1,1.206.237,1.9,1.9,0,0,1,.824.618,2.385,2.385,0,0,1,.383.909,7.121,7.121,0,0,1,.068,1.2V242h-1.231v-4.416a3.306,3.306,0,0,0-.143-1.124,1.185,1.185,0,0,0-.509-.595,1.622,1.622,0,0,0-.858-.222,2,2,0,0,0-1.357.5,2.46,2.46,0,0,0-.571,1.893V242Z"/>
    <path d="M450.438,239.338l1.21.157a3.142,3.142,0,0,1-1.015,1.959,2.958,2.958,0,0,1-2.007.707,3.119,3.119,0,0,1-2.4-.973,3.954,3.954,0,0,1-.905-2.793,5.068,5.068,0,0,1,.389-2.058,2.72,2.72,0,0,1,1.186-1.322,3.521,3.521,0,0,1,1.733-.442,3.007,3.007,0,0,1,1.935.6,2.741,2.741,0,0,1,.964,1.7l-1.2.185a1.977,1.977,0,0,0-.6-1.1,1.565,1.565,0,0,0-1.049-.369,1.914,1.914,0,0,0-1.511.667,3.164,3.164,0,0,0-.581,2.108,3.265,3.265,0,0,0,.561,2.126,1.82,1.82,0,0,0,1.463.663,1.721,1.721,0,0,0,1.21-.444A2.2,2.2,0,0,0,450.438,239.338Z"/>
    <path d="M452.708,233.391v-1.415h1.23v1.415Zm0,8.606v-7.26h1.23V242Z"/>
    <path d="M460.548,241.1a4.562,4.562,0,0,1-1.316.82,3.79,3.79,0,0,1-1.357.239,2.635,2.635,0,0,1-1.838-.584,1.927,1.927,0,0,1-.643-1.494,2.029,2.029,0,0,1,.878-1.682,3.047,3.047,0,0,1,.886-.4,9.066,9.066,0,0,1,1.093-.185,11.221,11.221,0,0,0,2.2-.423c0-.168.007-.276.007-.322a1.359,1.359,0,0,0-.349-1.059,2.059,2.059,0,0,0-1.4-.417,2.173,2.173,0,0,0-1.282.3,1.858,1.858,0,0,0-.612,1.077l-1.2-.164a2.978,2.978,0,0,1,.54-1.247,2.356,2.356,0,0,1,1.087-.732,4.844,4.844,0,0,1,1.647-.257,4.355,4.355,0,0,1,1.511.219,1.993,1.993,0,0,1,.855.551,1.922,1.922,0,0,1,.382.837,6.913,6.913,0,0,1,.062,1.134v1.641a17.27,17.27,0,0,0,.079,2.171,2.716,2.716,0,0,0,.311.871h-1.286A2.636,2.636,0,0,1,460.548,241.1Zm-.1-2.748a9.029,9.029,0,0,1-2.01.464,4.758,4.758,0,0,0-1.073.246,1.074,1.074,0,0,0-.486.4,1.089,1.089,0,0,0,.2,1.4,1.6,1.6,0,0,0,1.09.328,2.539,2.539,0,0,0,1.265-.31,1.922,1.922,0,0,0,.814-.852,2.968,2.968,0,0,0,.2-1.23Z"/>
    <path d="M472.224,241.1a4.562,4.562,0,0,1-1.316.82,3.79,3.79,0,0,1-1.357.239,2.64,2.64,0,0,1-1.839-.584,1.93,1.93,0,0,1-.642-1.494,2.029,2.029,0,0,1,.878-1.682,3.029,3.029,0,0,1,.885-.4,9.09,9.09,0,0,1,1.094-.185,11.237,11.237,0,0,0,2.195-.423c0-.168.006-.276.006-.322a1.359,1.359,0,0,0-.348-1.059,2.062,2.062,0,0,0-1.4-.417,2.171,2.171,0,0,0-1.281.3,1.858,1.858,0,0,0-.612,1.077l-1.2-.164a2.965,2.965,0,0,1,.54-1.247,2.356,2.356,0,0,1,1.087-.732,4.844,4.844,0,0,1,1.647-.257,4.355,4.355,0,0,1,1.511.219,1.982,1.982,0,0,1,.854.551,1.923,1.923,0,0,1,.383.837,6.913,6.913,0,0,1,.062,1.134v1.641a17.56,17.56,0,0,0,.078,2.171,2.765,2.765,0,0,0,.311.871H472.47A2.636,2.636,0,0,1,472.224,241.1Zm-.1-2.748a9.029,9.029,0,0,1-2.01.464,4.758,4.758,0,0,0-1.073.246,1.074,1.074,0,0,0-.486.4,1.086,1.086,0,0,0,.2,1.4,1.6,1.6,0,0,0,1.09.328,2.542,2.542,0,0,0,1.265-.31,1.914,1.914,0,0,0,.813-.852,2.949,2.949,0,0,0,.2-1.23Z"/>
    <path d="M475.246,242V231.976h1.23V242Z"/>
    <path d="M487.031,242v-1.066a2.657,2.657,0,0,1-2.3,1.23,2.941,2.941,0,0,1-1.2-.246,1.98,1.98,0,0,1-.827-.618,2.326,2.326,0,0,1-.379-.913,6.26,6.26,0,0,1-.075-1.149v-4.5h1.23v4.027a7.2,7.2,0,0,0,.075,1.3,1.285,1.285,0,0,0,.492.762,1.524,1.524,0,0,0,.93.277,2.028,2.028,0,0,0,1.039-.284,1.575,1.575,0,0,0,.687-.772,3.888,3.888,0,0,0,.2-1.419v-3.89h1.23V242Z"/>
    <path d="M489.567,239.83l1.217-.191a1.7,1.7,0,0,0,.57,1.121,1.991,1.991,0,0,0,1.31.389,1.927,1.927,0,0,0,1.257-.344,1.033,1.033,0,0,0,.411-.811.748.748,0,0,0-.363-.656,5.364,5.364,0,0,0-1.258-.417,11.548,11.548,0,0,1-1.876-.591,1.79,1.79,0,0,1-1.063-1.665,1.867,1.867,0,0,1,.222-.9,1.991,1.991,0,0,1,.6-.688,2.522,2.522,0,0,1,.783-.358,3.681,3.681,0,0,1,1.063-.148,4.2,4.2,0,0,1,1.5.246,2.042,2.042,0,0,1,.954.667,2.621,2.621,0,0,1,.424,1.124l-1.2.164a1.32,1.32,0,0,0-.475-.875,1.745,1.745,0,0,0-1.111-.314,2.017,2.017,0,0,0-1.21.28.818.818,0,0,0-.363.656.678.678,0,0,0,.151.431,1.07,1.07,0,0,0,.471.328q.186.069,1.087.315a15.033,15.033,0,0,1,1.822.571,1.838,1.838,0,0,1,.81.646,1.8,1.8,0,0,1,.294,1.052,2.061,2.061,0,0,1-.359,1.159,2.311,2.311,0,0,1-1.035.841,3.762,3.762,0,0,1-1.532.3,3.4,3.4,0,0,1-2.156-.588A2.728,2.728,0,0,1,489.567,239.83Z"/>
    <path d="M501.817,242v-1.066a2.657,2.657,0,0,1-2.3,1.23,2.941,2.941,0,0,1-1.2-.246,1.986,1.986,0,0,1-.827-.618,2.326,2.326,0,0,1-.379-.913,6.26,6.26,0,0,1-.075-1.149v-4.5h1.23v4.027a7.2,7.2,0,0,0,.075,1.3,1.282,1.282,0,0,0,.493.762,1.519,1.519,0,0,0,.929.277,2.025,2.025,0,0,0,1.039-.284,1.575,1.575,0,0,0,.687-.772,3.866,3.866,0,0,0,.2-1.419v-3.89h1.23V242Z"/>
    <path d="M509.583,241.1a4.589,4.589,0,0,1-1.316.82,3.794,3.794,0,0,1-1.357.239,2.636,2.636,0,0,1-1.839-.584,1.931,1.931,0,0,1-.643-1.494,1.985,1.985,0,0,1,.243-.974,2.006,2.006,0,0,1,.636-.708,3.029,3.029,0,0,1,.885-.4,9.09,9.09,0,0,1,1.094-.185,11.224,11.224,0,0,0,2.194-.423c0-.168.007-.276.007-.322a1.355,1.355,0,0,0-.349-1.059,2.059,2.059,0,0,0-1.4-.417,2.173,2.173,0,0,0-1.282.3,1.863,1.863,0,0,0-.612,1.077l-1.2-.164a2.99,2.99,0,0,1,.54-1.247,2.361,2.361,0,0,1,1.087-.732,4.846,4.846,0,0,1,1.648-.257,4.353,4.353,0,0,1,1.51.219,1.98,1.98,0,0,1,.855.551,1.934,1.934,0,0,1,.383.837,6.947,6.947,0,0,1,.061,1.134v1.641a17.27,17.27,0,0,0,.079,2.171,2.716,2.716,0,0,0,.311.871h-1.285A2.591,2.591,0,0,1,509.583,241.1Zm-.1-2.748a9.029,9.029,0,0,1-2.01.464,4.758,4.758,0,0,0-1.073.246,1.071,1.071,0,0,0-.485.4,1.087,1.087,0,0,0,.2,1.4,1.6,1.6,0,0,0,1.091.328,2.538,2.538,0,0,0,1.264-.31,1.922,1.922,0,0,0,.814-.852,2.968,2.968,0,0,0,.2-1.23Z"/>
    <path d="M512.618,242v-7.26h1.107v1.1a3.014,3.014,0,0,1,.783-1.019,1.365,1.365,0,0,1,.789-.246,2.4,2.4,0,0,1,1.265.4l-.424,1.141a1.766,1.766,0,0,0-.9-.266,1.173,1.173,0,0,0-.725.243,1.317,1.317,0,0,0-.458.673,4.812,4.812,0,0,0-.205,1.435V242Z"/>
    <path d="M517.3,233.391v-1.415h1.231v1.415Zm0,8.606v-7.26h1.231V242Z"/>
    <path d="M519.946,238.367a3.74,3.74,0,0,1,1.121-2.987,3.381,3.381,0,0,1,2.283-.807,3.253,3.253,0,0,1,2.447.982,3.727,3.727,0,0,1,.951,2.71,4.81,4.81,0,0,1-.421,2.205,2.976,2.976,0,0,1-1.223,1.247,3.559,3.559,0,0,1-1.754.444,3.26,3.26,0,0,1-2.464-.977A3.9,3.9,0,0,1,519.946,238.367Zm1.264,0a3.092,3.092,0,0,0,.609,2.089,2.027,2.027,0,0,0,3.056,0,3.168,3.168,0,0,0,.608-2.126,3,3,0,0,0-.612-2.04,2.029,2.029,0,0,0-3.052,0A3.079,3.079,0,0,0,521.21,238.367Z"/>
    <path d="M528.511,242v-1.4h1.4V242a2.49,2.49,0,0,1-.274,1.248,1.774,1.774,0,0,1-.868.734l-.342-.526a1.161,1.161,0,0,0,.574-.5,2.137,2.137,0,0,0,.2-.954Z"/>
    <path d="M390.518,257.9a4.572,4.572,0,0,1-1.316.821,3.794,3.794,0,0,1-1.357.239,2.636,2.636,0,0,1-1.839-.584,1.932,1.932,0,0,1-.643-1.494,1.983,1.983,0,0,1,.243-.974,2.006,2.006,0,0,1,.636-.708,3,3,0,0,1,.885-.4,8.892,8.892,0,0,1,1.094-.185,11.134,11.134,0,0,0,2.194-.424c0-.168.007-.275.007-.321a1.355,1.355,0,0,0-.349-1.059,2.057,2.057,0,0,0-1.4-.417,2.173,2.173,0,0,0-1.282.3,1.86,1.86,0,0,0-.612,1.076l-1.2-.164a3,3,0,0,1,.54-1.247,2.367,2.367,0,0,1,1.087-.731,4.846,4.846,0,0,1,1.648-.257,4.353,4.353,0,0,1,1.51.219,1.98,1.98,0,0,1,.855.551,1.935,1.935,0,0,1,.383.836,6.953,6.953,0,0,1,.061,1.135v1.641a17.49,17.49,0,0,0,.079,2.171,2.716,2.716,0,0,0,.311.871h-1.285A2.59,2.59,0,0,1,390.518,257.9Zm-.1-2.748a8.964,8.964,0,0,1-2.01.465,4.662,4.662,0,0,0-1.073.246,1.071,1.071,0,0,0-.485.4,1.087,1.087,0,0,0,.2,1.4,1.6,1.6,0,0,0,1.091.328,2.538,2.538,0,0,0,1.264-.31,1.927,1.927,0,0,0,.814-.852,2.973,2.973,0,0,0,.2-1.231Z"/>
    <path d="M393.074,256.63l1.217-.192a1.7,1.7,0,0,0,.571,1.122,1.992,1.992,0,0,0,1.309.389,1.926,1.926,0,0,0,1.258-.345,1.033,1.033,0,0,0,.41-.81.749.749,0,0,0-.362-.656,5.333,5.333,0,0,0-1.258-.417,11.535,11.535,0,0,1-1.877-.591,1.792,1.792,0,0,1-1.063-1.665,1.885,1.885,0,0,1,.222-.9,2,2,0,0,1,.605-.687,2.533,2.533,0,0,1,.783-.358,3.691,3.691,0,0,1,1.063-.148,4.206,4.206,0,0,1,1.5.246,2.044,2.044,0,0,1,.953.667,2.61,2.61,0,0,1,.424,1.124l-1.2.164a1.32,1.32,0,0,0-.475-.875,1.741,1.741,0,0,0-1.111-.314,2.019,2.019,0,0,0-1.21.28.816.816,0,0,0-.362.656.679.679,0,0,0,.15.431,1.068,1.068,0,0,0,.472.328c.123.046.485.15,1.087.315a14.97,14.97,0,0,1,1.822.571,1.843,1.843,0,0,1,.81.645,1.815,1.815,0,0,1,.294,1.053,2.069,2.069,0,0,1-.359,1.159,2.32,2.32,0,0,1-1.036.841,3.771,3.771,0,0,1-1.531.3,3.405,3.405,0,0,1-2.157-.588A2.733,2.733,0,0,1,393.074,256.63Z"/>
    <path d="M400.573,250.19v-1.415H401.8v1.415Zm0,8.607v-7.26H401.8v7.26Z"/>
    <path d="M403.185,256.63l1.216-.192a1.7,1.7,0,0,0,.571,1.122,1.994,1.994,0,0,0,1.309.389,1.924,1.924,0,0,0,1.258-.345,1.03,1.03,0,0,0,.41-.81.747.747,0,0,0-.362-.656,5.333,5.333,0,0,0-1.258-.417,11.514,11.514,0,0,1-1.876-.591,1.792,1.792,0,0,1-1.063-1.665,1.874,1.874,0,0,1,.222-.9,1.987,1.987,0,0,1,.6-.687,2.511,2.511,0,0,1,.783-.358,3.681,3.681,0,0,1,1.063-.148,4.2,4.2,0,0,1,1.5.246,2.042,2.042,0,0,1,.954.667,2.6,2.6,0,0,1,.423,1.124l-1.2.164a1.316,1.316,0,0,0-.475-.875,1.741,1.741,0,0,0-1.111-.314,2.019,2.019,0,0,0-1.21.28.819.819,0,0,0-.362.656.679.679,0,0,0,.15.431,1.08,1.08,0,0,0,.472.328c.123.046.486.15,1.087.315a14.851,14.851,0,0,1,1.822.571,1.843,1.843,0,0,1,.81.645,1.808,1.808,0,0,1,.294,1.053,2.069,2.069,0,0,1-.359,1.159,2.309,2.309,0,0,1-1.036.841,3.771,3.771,0,0,1-1.531.3,3.407,3.407,0,0,1-2.157-.588A2.732,2.732,0,0,1,403.185,256.63Z"/>
    <path d="M413.363,257.7l.178,1.087a4.558,4.558,0,0,1-.93.11,2.109,2.109,0,0,1-1.039-.212,1.184,1.184,0,0,1-.519-.557,4.411,4.411,0,0,1-.151-1.453v-4.177H410v-.957h.9v-1.8l1.224-.738v2.536h1.237v.957h-1.237v4.245a2.118,2.118,0,0,0,.065.677.5.5,0,0,0,.212.239.81.81,0,0,0,.42.089A3.826,3.826,0,0,0,413.363,257.7Z"/>
    <path d="M419.536,256.459l1.272.157a3.1,3.1,0,0,1-1.115,1.73,3.775,3.775,0,0,1-4.6-.366,3.833,3.833,0,0,1-.933-2.751,4.013,4.013,0,0,1,.944-2.844,3.194,3.194,0,0,1,2.447-1.012,3.106,3.106,0,0,1,2.379.991,3.941,3.941,0,0,1,.923,2.789c0,.074,0,.183-.007.328h-5.414a2.787,2.787,0,0,0,.676,1.832,2.016,2.016,0,0,0,1.518.636,1.882,1.882,0,0,0,1.155-.355A2.36,2.36,0,0,0,419.536,256.459Zm-4.04-1.989h4.054a2.461,2.461,0,0,0-.465-1.374,1.886,1.886,0,0,0-1.524-.711,1.959,1.959,0,0,0-1.426.567A2.249,2.249,0,0,0,415.5,254.47Z"/>
    <path d="M422.353,258.8v-7.26h1.107v1.032a2.61,2.61,0,0,1,2.311-1.2,3.035,3.035,0,0,1,1.206.236,1.9,1.9,0,0,1,.824.619,2.378,2.378,0,0,1,.383.909,7.121,7.121,0,0,1,.068,1.2V258.8h-1.231v-4.416a3.306,3.306,0,0,0-.143-1.124,1.185,1.185,0,0,0-.509-.595,1.622,1.622,0,0,0-.858-.223,2,2,0,0,0-1.357.5,2.461,2.461,0,0,0-.571,1.894V258.8Z"/>
    <path d="M434.876,256.138l1.21.157a3.142,3.142,0,0,1-1.015,1.959,2.958,2.958,0,0,1-2.007.707,3.116,3.116,0,0,1-2.4-.974,3.951,3.951,0,0,1-.905-2.793,5.066,5.066,0,0,1,.389-2.057,2.723,2.723,0,0,1,1.186-1.323,3.531,3.531,0,0,1,1.733-.441,3.007,3.007,0,0,1,1.935.6,2.741,2.741,0,0,1,.964,1.7l-1.2.184a1.977,1.977,0,0,0-.605-1.1,1.565,1.565,0,0,0-1.049-.369,1.911,1.911,0,0,0-1.511.667,3.164,3.164,0,0,0-.581,2.108,3.265,3.265,0,0,0,.561,2.126,1.82,1.82,0,0,0,1.463.663,1.721,1.721,0,0,0,1.21-.444A2.2,2.2,0,0,0,434.876,256.138Z"/>
    <path d="M437.146,250.19v-1.415h1.23v1.415Zm0,8.607v-7.26h1.23v7.26Z"/>
    <path d="M444.986,257.9a4.545,4.545,0,0,1-1.316.821,3.79,3.79,0,0,1-1.357.239,2.635,2.635,0,0,1-1.838-.584,1.929,1.929,0,0,1-.643-1.494,1.983,1.983,0,0,1,.243-.974,2,2,0,0,1,.635-.708,3.021,3.021,0,0,1,.886-.4,8.868,8.868,0,0,1,1.093-.185,11.131,11.131,0,0,0,2.195-.424c0-.168.007-.275.007-.321a1.359,1.359,0,0,0-.349-1.059,2.059,2.059,0,0,0-1.4-.417,2.173,2.173,0,0,0-1.282.3,1.855,1.855,0,0,0-.612,1.076l-1.2-.164a2.977,2.977,0,0,1,.54-1.247,2.362,2.362,0,0,1,1.087-.731,4.844,4.844,0,0,1,1.647-.257,4.355,4.355,0,0,1,1.511.219,1.993,1.993,0,0,1,.855.551,1.923,1.923,0,0,1,.382.836,6.919,6.919,0,0,1,.062,1.135v1.641a17.281,17.281,0,0,0,.079,2.171,2.716,2.716,0,0,0,.311.871h-1.286A2.635,2.635,0,0,1,444.986,257.9Zm-.1-2.748a8.964,8.964,0,0,1-2.01.465,4.649,4.649,0,0,0-1.073.246,1.074,1.074,0,0,0-.486.4,1.089,1.089,0,0,0,.2,1.4,1.6,1.6,0,0,0,1.09.328,2.539,2.539,0,0,0,1.265-.31,1.927,1.927,0,0,0,.814-.852,2.973,2.973,0,0,0,.2-1.231Z"/>
    <path d="M451.87,261.593l-.137-1.155a2.74,2.74,0,0,0,.7.109,1.341,1.341,0,0,0,.656-.137,1.119,1.119,0,0,0,.4-.383,5.892,5.892,0,0,0,.376-.916c.023-.068.059-.168.109-.3l-2.754-7.274h1.326l1.51,4.2q.294.8.527,1.682a16.5,16.5,0,0,1,.506-1.654l1.551-4.232h1.231l-2.762,7.383a14.362,14.362,0,0,1-.69,1.647,2.419,2.419,0,0,1-.752.893,1.786,1.786,0,0,1-1.012.283A2.472,2.472,0,0,1,451.87,261.593Z"/>
    <path d="M467.552,256.138l1.21.157a3.147,3.147,0,0,1-1.015,1.959,2.958,2.958,0,0,1-2.007.707,3.116,3.116,0,0,1-2.4-.974,3.951,3.951,0,0,1-.906-2.793,5.05,5.05,0,0,1,.39-2.057,2.718,2.718,0,0,1,1.186-1.323,3.531,3.531,0,0,1,1.733-.441,3.007,3.007,0,0,1,1.935.6,2.746,2.746,0,0,1,.964,1.7l-1.2.184a1.983,1.983,0,0,0-.605-1.1,1.565,1.565,0,0,0-1.049-.369,1.908,1.908,0,0,0-1.511.667,3.164,3.164,0,0,0-.581,2.108,3.265,3.265,0,0,0,.561,2.126,1.82,1.82,0,0,0,1.463.663,1.723,1.723,0,0,0,1.21-.444A2.21,2.21,0,0,0,467.552,256.138Z"/>
    <path d="M469.356,255.167a3.74,3.74,0,0,1,1.122-2.987,3.381,3.381,0,0,1,2.283-.807,3.256,3.256,0,0,1,2.447.981,3.734,3.734,0,0,1,.95,2.71,4.815,4.815,0,0,1-.42,2.206,2.972,2.972,0,0,1-1.224,1.247,3.563,3.563,0,0,1-1.753.444,3.261,3.261,0,0,1-2.465-.978A3.9,3.9,0,0,1,469.356,255.167Zm1.265,0a3.1,3.1,0,0,0,.608,2.089,2.027,2.027,0,0,0,3.056,0,3.163,3.163,0,0,0,.609-2.126,3,3,0,0,0-.612-2.04,2.03,2.03,0,0,0-3.053,0A3.082,3.082,0,0,0,470.621,255.167Z"/>
    <path d="M477.6,258.8v-7.26h1.1v1.019a2.582,2.582,0,0,1,.909-.858,2.551,2.551,0,0,1,1.292-.325,2.391,2.391,0,0,1,1.323.335,1.8,1.8,0,0,1,.728.937,2.606,2.606,0,0,1,2.242-1.272,2.2,2.2,0,0,1,1.661.6,2.55,2.55,0,0,1,.582,1.841V258.8h-1.224v-4.573a3.352,3.352,0,0,0-.12-1.063,1.025,1.025,0,0,0-.434-.523,1.353,1.353,0,0,0-.738-.2,1.72,1.72,0,0,0-1.272.51,2.243,2.243,0,0,0-.5,1.63V258.8h-1.231V254.08a2.069,2.069,0,0,0-.3-1.23,1.137,1.137,0,0,0-.984-.411,1.794,1.794,0,0,0-.961.274,1.563,1.563,0,0,0-.639.8,4.507,4.507,0,0,0-.2,1.517V258.8Z"/>
    <path d="M494.021,258.8V257.73a2.656,2.656,0,0,1-2.3,1.231,2.941,2.941,0,0,1-1.2-.246,1.98,1.98,0,0,1-.827-.618,2.311,2.311,0,0,1-.379-.913,6.158,6.158,0,0,1-.076-1.149v-4.5h1.231v4.026a7.183,7.183,0,0,0,.075,1.3,1.287,1.287,0,0,0,.492.763,1.524,1.524,0,0,0,.93.276,2.027,2.027,0,0,0,1.039-.283,1.575,1.575,0,0,0,.687-.772,3.888,3.888,0,0,0,.2-1.419v-3.89h1.23v7.26Z"/>
    <path d="M497.049,258.8v-7.26h1.107v1.032a2.61,2.61,0,0,1,2.311-1.2,3.031,3.031,0,0,1,1.206.236,1.9,1.9,0,0,1,.824.619,2.378,2.378,0,0,1,.383.909,7.121,7.121,0,0,1,.068,1.2V258.8h-1.23v-4.416a3.3,3.3,0,0,0-.144-1.124,1.176,1.176,0,0,0-.509-.595,1.622,1.622,0,0,0-.858-.223,2,2,0,0,0-1.357.5,2.465,2.465,0,0,0-.571,1.894V258.8Z"/>
    <path d="M504.842,250.19v-1.415h1.23v1.415Zm0,8.607v-7.26h1.23v7.26Z"/>
    <path d="M512.655,258.8v-.916a2.256,2.256,0,0,1-2.03,1.08,2.838,2.838,0,0,1-1.6-.479,3.131,3.131,0,0,1-1.128-1.336,4.612,4.612,0,0,1-.4-1.972,5.169,5.169,0,0,1,.362-1.972,2.855,2.855,0,0,1,1.087-1.357,2.9,2.9,0,0,1,1.62-.472,2.422,2.422,0,0,1,2,1v-3.6H513.8V258.8Zm-3.889-3.623a3.146,3.146,0,0,0,.588,2.085,1.769,1.769,0,0,0,1.387.69,1.742,1.742,0,0,0,1.371-.659,3.043,3.043,0,0,0,.564-2.014,3.419,3.419,0,0,0-.574-2.187,1.766,1.766,0,0,0-1.415-.7,1.7,1.7,0,0,0-1.371.67A3.307,3.307,0,0,0,508.766,255.174Z"/>
    <path d="M520.469,257.9a4.572,4.572,0,0,1-1.316.821,3.794,3.794,0,0,1-1.357.239,2.638,2.638,0,0,1-1.839-.584,1.932,1.932,0,0,1-.643-1.494,1.993,1.993,0,0,1,.243-.974,2.016,2.016,0,0,1,.636-.708,3,3,0,0,1,.885-.4,8.892,8.892,0,0,1,1.094-.185,11.118,11.118,0,0,0,2.194-.424c0-.168.007-.275.007-.321a1.355,1.355,0,0,0-.349-1.059,2.057,2.057,0,0,0-1.4-.417,2.173,2.173,0,0,0-1.282.3,1.86,1.86,0,0,0-.612,1.076l-1.2-.164a3,3,0,0,1,.54-1.247,2.367,2.367,0,0,1,1.087-.731,4.846,4.846,0,0,1,1.648-.257,4.363,4.363,0,0,1,1.511.219,1.982,1.982,0,0,1,.854.551,1.935,1.935,0,0,1,.383.836,6.953,6.953,0,0,1,.061,1.135v1.641a17.49,17.49,0,0,0,.079,2.171,2.716,2.716,0,0,0,.311.871h-1.285A2.59,2.59,0,0,1,520.469,257.9Zm-.1-2.748a8.95,8.95,0,0,1-2.01.465,4.676,4.676,0,0,0-1.073.246,1.077,1.077,0,0,0-.485.4,1.086,1.086,0,0,0,.2,1.4,1.6,1.6,0,0,0,1.09.328,2.538,2.538,0,0,0,1.264-.31,1.916,1.916,0,0,0,.814-.852,2.973,2.973,0,0,0,.2-1.231Z"/>
    <path d="M528.228,258.8v-.916a2.258,2.258,0,0,1-2.031,1.08,2.84,2.84,0,0,1-1.6-.479,3.145,3.145,0,0,1-1.128-1.336,4.627,4.627,0,0,1-.4-1.972,5.15,5.15,0,0,1,.363-1.972,2.853,2.853,0,0,1,1.086-1.357,2.9,2.9,0,0,1,1.621-.472,2.43,2.43,0,0,1,1.169.277,2.466,2.466,0,0,1,.834.721v-3.6h1.223V258.8Zm-3.89-3.623a3.151,3.151,0,0,0,.588,2.085,1.769,1.769,0,0,0,1.387.69,1.742,1.742,0,0,0,1.371-.659,3.043,3.043,0,0,0,.564-2.014,3.413,3.413,0,0,0-.574-2.187,1.766,1.766,0,0,0-1.415-.7,1.7,1.7,0,0,0-1.371.67A3.307,3.307,0,0,0,524.338,255.174Z"/>
    <path d="M536.273,256.459l1.272.157a3.106,3.106,0,0,1-1.114,1.73,3.775,3.775,0,0,1-4.6-.366,3.833,3.833,0,0,1-.933-2.751,4.013,4.013,0,0,1,.943-2.844,3.2,3.2,0,0,1,2.447-1.012,3.106,3.106,0,0,1,2.379.991,3.941,3.941,0,0,1,.923,2.789c0,.074,0,.183-.007.328h-5.414a2.782,2.782,0,0,0,.677,1.832,2.013,2.013,0,0,0,1.517.636,1.883,1.883,0,0,0,1.156-.355A2.365,2.365,0,0,0,536.273,256.459Zm-4.04-1.989h4.054a2.454,2.454,0,0,0-.465-1.374,1.886,1.886,0,0,0-1.524-.711,1.955,1.955,0,0,0-1.425.567A2.246,2.246,0,0,0,532.233,254.47Z"/>
    <path d="M538.6,256.63l1.216-.192a1.7,1.7,0,0,0,.571,1.122,1.994,1.994,0,0,0,1.309.389,1.924,1.924,0,0,0,1.258-.345,1.03,1.03,0,0,0,.41-.81.747.747,0,0,0-.362-.656,5.315,5.315,0,0,0-1.258-.417,11.514,11.514,0,0,1-1.876-.591,1.792,1.792,0,0,1-1.063-1.665,1.874,1.874,0,0,1,.222-.9,2,2,0,0,1,.605-.687,2.511,2.511,0,0,1,.783-.358,3.681,3.681,0,0,1,1.063-.148,4.2,4.2,0,0,1,1.5.246,2.042,2.042,0,0,1,.954.667,2.61,2.61,0,0,1,.424,1.124l-1.2.164a1.312,1.312,0,0,0-.475-.875,1.741,1.741,0,0,0-1.111-.314,2.021,2.021,0,0,0-1.21.28.819.819,0,0,0-.362.656.674.674,0,0,0,.151.431,1.07,1.07,0,0,0,.471.328c.123.046.486.15,1.087.315a14.851,14.851,0,0,1,1.822.571,1.843,1.843,0,0,1,.81.645,1.808,1.808,0,0,1,.294,1.053,2.069,2.069,0,0,1-.359,1.159,2.309,2.309,0,0,1-1.036.841,3.771,3.771,0,0,1-1.531.3,3.407,3.407,0,0,1-2.157-.588A2.732,2.732,0,0,1,538.6,256.63Z"/>
    <path d="M434.456,275.6v-.916a2.262,2.262,0,0,1-2.031,1.08,2.848,2.848,0,0,1-1.6-.479,3.147,3.147,0,0,1-1.128-1.337,4.622,4.622,0,0,1-.4-1.971,5.159,5.159,0,0,1,.363-1.973,2.855,2.855,0,0,1,1.086-1.356,2.9,2.9,0,0,1,1.621-.472,2.429,2.429,0,0,1,1.169.276,2.458,2.458,0,0,1,.834.722v-3.6H435.6V275.6Zm-3.89-3.623a3.155,3.155,0,0,0,.588,2.085,1.773,1.773,0,0,0,1.388.69,1.74,1.74,0,0,0,1.37-.66,3.042,3.042,0,0,0,.564-2.013,3.409,3.409,0,0,0-.574-2.187,1.767,1.767,0,0,0-1.415-.7,1.7,1.7,0,0,0-1.371.67A3.314,3.314,0,0,0,430.566,271.975Z"/>
    <path d="M442.5,273.26l1.272.157a3.107,3.107,0,0,1-1.114,1.729,3.771,3.771,0,0,1-4.6-.366,3.831,3.831,0,0,1-.933-2.751,4.007,4.007,0,0,1,.943-2.843,3.192,3.192,0,0,1,2.447-1.012,3.1,3.1,0,0,1,2.379.991,3.937,3.937,0,0,1,.923,2.789c0,.072,0,.182-.007.328h-5.414a2.786,2.786,0,0,0,.677,1.832,2.013,2.013,0,0,0,1.517.636,1.889,1.889,0,0,0,1.156-.355A2.368,2.368,0,0,0,442.5,273.26Zm-4.04-1.989h4.054a2.454,2.454,0,0,0-.465-1.375,1.885,1.885,0,0,0-1.524-.71,1.951,1.951,0,0,0-1.425.567A2.241,2.241,0,0,0,438.461,271.271Z"/>
    <path d="M453.965,275.6v-1.067a2.656,2.656,0,0,1-2.3,1.231,2.935,2.935,0,0,1-1.2-.246,1.96,1.96,0,0,1-.827-.62,2.315,2.315,0,0,1-.38-.912,6.27,6.27,0,0,1-.075-1.148v-4.5h1.231v4.026a7.2,7.2,0,0,0,.075,1.3,1.286,1.286,0,0,0,.492.762,1.531,1.531,0,0,0,.93.277,2.028,2.028,0,0,0,1.039-.284,1.571,1.571,0,0,0,.687-.772,3.889,3.889,0,0,0,.2-1.418v-3.89h1.231v7.26Z"/>
    <path d="M456.5,273.431l1.217-.192a1.7,1.7,0,0,0,.571,1.121,1.989,1.989,0,0,0,1.309.39,1.918,1.918,0,0,0,1.258-.346,1.031,1.031,0,0,0,.41-.809.747.747,0,0,0-.362-.657,5.333,5.333,0,0,0-1.258-.417,11.414,11.414,0,0,1-1.876-.591,1.792,1.792,0,0,1-1.063-1.664,1.875,1.875,0,0,1,.222-.9,1.975,1.975,0,0,1,.605-.686,2.538,2.538,0,0,1,.782-.36,3.761,3.761,0,0,1,1.063-.146,4.206,4.206,0,0,1,1.5.246,2.038,2.038,0,0,1,.953.666,2.585,2.585,0,0,1,.424,1.125l-1.2.164a1.311,1.311,0,0,0-.475-.875,1.735,1.735,0,0,0-1.111-.314,2,2,0,0,0-1.21.28.815.815,0,0,0-.362.656.683.683,0,0,0,.15.431,1.09,1.09,0,0,0,.472.328q.185.067,1.087.314a15.219,15.219,0,0,1,1.822.571,1.845,1.845,0,0,1,.81.646,1.8,1.8,0,0,1,.294,1.053,2.065,2.065,0,0,1-.359,1.158,2.321,2.321,0,0,1-1.036.841,3.771,3.771,0,0,1-1.531.3,3.419,3.419,0,0,1-2.157-.588A2.743,2.743,0,0,1,456.5,273.431Z"/>
    <path d="M468.751,275.6v-1.067a2.655,2.655,0,0,1-2.3,1.231,2.941,2.941,0,0,1-1.2-.246,1.96,1.96,0,0,1-.827-.62,2.3,2.3,0,0,1-.379-.912,6.16,6.16,0,0,1-.076-1.148v-4.5H465.2v4.026a7.2,7.2,0,0,0,.075,1.3,1.291,1.291,0,0,0,.492.762,1.531,1.531,0,0,0,.93.277,2.028,2.028,0,0,0,1.039-.284,1.571,1.571,0,0,0,.687-.772,3.885,3.885,0,0,0,.2-1.418v-3.89h1.23v7.26Z"/>
    <path d="M476.517,274.7a4.584,4.584,0,0,1-1.316.82,3.79,3.79,0,0,1-1.357.24,2.645,2.645,0,0,1-1.839-.585,1.931,1.931,0,0,1-.642-1.493,2.018,2.018,0,0,1,.878-1.682,2.953,2.953,0,0,1,.885-.4,8.52,8.52,0,0,1,1.094-.185,11.3,11.3,0,0,0,2.195-.424q.006-.253.006-.321a1.36,1.36,0,0,0-.348-1.06,2.062,2.062,0,0,0-1.4-.417,2.179,2.179,0,0,0-1.281.3,1.858,1.858,0,0,0-.612,1.077l-1.2-.164a2.981,2.981,0,0,1,.54-1.248,2.369,2.369,0,0,1,1.087-.731,4.845,4.845,0,0,1,1.647-.256,4.332,4.332,0,0,1,1.511.219,1.99,1.99,0,0,1,.854.549,1.944,1.944,0,0,1,.383.838,6.911,6.911,0,0,1,.062,1.135v1.641a17.551,17.551,0,0,0,.078,2.17,2.788,2.788,0,0,0,.311.872h-1.285A2.641,2.641,0,0,1,476.517,274.7Zm-.1-2.748a9.077,9.077,0,0,1-2.01.465,4.544,4.544,0,0,0-1.073.246,1.077,1.077,0,0,0-.486.4,1.089,1.089,0,0,0,.2,1.406,1.606,1.606,0,0,0,1.09.328,2.532,2.532,0,0,0,1.265-.312,1.915,1.915,0,0,0,.813-.85,2.964,2.964,0,0,0,.2-1.231Z"/>
    <path d="M479.552,275.6v-7.26h1.108v1.1a3,3,0,0,1,.782-1.018,1.37,1.37,0,0,1,.79-.246,2.407,2.407,0,0,1,1.265.4l-.424,1.142a1.761,1.761,0,0,0-.9-.267,1.168,1.168,0,0,0-.724.243,1.309,1.309,0,0,0-.458.673,4.787,4.787,0,0,0-.2,1.436v3.8Z"/>
    <path d="M484.235,266.991v-1.415h1.23v1.415Zm0,8.607v-7.26h1.23v7.26Z"/>
    <path d="M486.88,271.968A3.744,3.744,0,0,1,488,268.98a3.379,3.379,0,0,1,2.284-.806,3.259,3.259,0,0,1,2.447.98,3.737,3.737,0,0,1,.95,2.711,4.8,4.8,0,0,1-.42,2.2,2.975,2.975,0,0,1-1.224,1.248,3.567,3.567,0,0,1-1.753.445,3.265,3.265,0,0,1-2.465-.978A3.908,3.908,0,0,1,486.88,271.968Zm1.265,0a3.094,3.094,0,0,0,.608,2.088,2.026,2.026,0,0,0,3.056,0,3.165,3.165,0,0,0,.608-2.126,3,3,0,0,0-.611-2.041,2.029,2.029,0,0,0-3.053,0A3.08,3.08,0,0,0,488.145,271.968Z"/>
    <path d="M494.632,273.431l1.217-.192a1.7,1.7,0,0,0,.571,1.121,1.987,1.987,0,0,0,1.309.39,1.92,1.92,0,0,0,1.258-.346,1.031,1.031,0,0,0,.41-.809.749.749,0,0,0-.362-.657,5.333,5.333,0,0,0-1.258-.417,11.468,11.468,0,0,1-1.877-.591,1.792,1.792,0,0,1-1.063-1.664,1.875,1.875,0,0,1,.223-.9,1.975,1.975,0,0,1,.605-.686,2.538,2.538,0,0,1,.782-.36,3.761,3.761,0,0,1,1.063-.146,4.206,4.206,0,0,1,1.5.246,2.043,2.043,0,0,1,.953.666,2.6,2.6,0,0,1,.424,1.125l-1.2.164a1.315,1.315,0,0,0-.475-.875,1.735,1.735,0,0,0-1.111-.314,2,2,0,0,0-1.21.28.812.812,0,0,0-.362.656.683.683,0,0,0,.15.431,1.09,1.09,0,0,0,.472.328q.184.067,1.087.314a15.344,15.344,0,0,1,1.822.571,1.845,1.845,0,0,1,.81.646,1.808,1.808,0,0,1,.294,1.053,2.065,2.065,0,0,1-.359,1.158,2.326,2.326,0,0,1-1.036.841,3.771,3.771,0,0,1-1.531.3,3.418,3.418,0,0,1-2.157-.588A2.738,2.738,0,0,1,494.632,273.431Z"/>
  </g>
  <g>
    <path d="M437.618,114.994v-8.64a7.256,7.256,0,0,1,.25-1.969,3.755,3.755,0,0,1,.84-1.541,3.808,3.808,0,0,1,1.56-1,7.164,7.164,0,0,1,2.409-.35,7.268,7.268,0,0,1,2.421.35,3.809,3.809,0,0,1,1.569,1,3.755,3.755,0,0,1,.84,1.541,7.256,7.256,0,0,1,.25,1.969v8.64h-2.1v-4.92h-5.981v4.92Zm2.059-6.5h5.981v-2.2a5.605,5.605,0,0,0-.14-1.29,2.513,2.513,0,0,0-.491-1.02,2.325,2.325,0,0,0-.92-.67,3.7,3.7,0,0,0-1.43-.24,3.757,3.757,0,0,0-1.449.24,2.325,2.325,0,0,0-.92.67,2.513,2.513,0,0,0-.491,1.02,5.605,5.605,0,0,0-.14,1.29Z"/>
    <path d="M451.677,116.975c.44.105.953.206,1.54.3a10.3,10.3,0,0,0,1.62.141,2.908,2.908,0,0,0,1.86-.48,2,2,0,0,0,.58-1.62v-.56q-.52.1-1.07.17a8.424,8.424,0,0,1-1.07.07,7.267,7.267,0,0,1-1.6-.17,3.676,3.676,0,0,1-1.33-.57,2.771,2.771,0,0,1-.9-1.07,3.758,3.758,0,0,1-.33-1.67v-6.16H453v6.18a2.246,2.246,0,0,0,.17.92,1.474,1.474,0,0,0,.47.6,1.987,1.987,0,0,0,.69.319,3.4,3.4,0,0,0,.85.1,7.562,7.562,0,0,0,1.14-.09,6.782,6.782,0,0,0,.96-.211v-7.82h2.02v9.68a5,5,0,0,1-.3,1.851,2.947,2.947,0,0,1-.86,1.209,3.413,3.413,0,0,1-1.38.66,7.9,7.9,0,0,1-1.86.2,11.736,11.736,0,0,1-1.81-.149q-.949-.152-1.63-.33Z"/>
    <path d="M464.557,111.734a2.188,2.188,0,0,0,.17.911,1.558,1.558,0,0,0,.47.6,1.779,1.779,0,0,0,.69.32,3.776,3.776,0,0,0,.85.09,7.434,7.434,0,0,0,1.14-.09,9.676,9.676,0,0,0,.96-.19v-8.02h2.02v9.121a14.355,14.355,0,0,1-1.91.5,11.6,11.6,0,0,1-2.25.219,7.273,7.273,0,0,1-1.6-.171,3.658,3.658,0,0,1-1.33-.569,2.775,2.775,0,0,1-.9-1.069,3.767,3.767,0,0,1-.33-1.67v-6.361h2.02Z"/>
    <path d="M482.277,114.614q-.9.222-2.06.4a13.789,13.789,0,0,1-2.12.18,6.626,6.626,0,0,1-1.78-.229,3.4,3.4,0,0,1-1.44-.82,3.966,3.966,0,0,1-.97-1.571,7.477,7.477,0,0,1-.35-2.48,6.772,6.772,0,0,1,.35-2.34,4.025,4.025,0,0,1,.95-1.52,3.473,3.473,0,0,1,1.41-.83,5.926,5.926,0,0,1,1.75-.25,7.609,7.609,0,0,1,1.11.08q.53.08,1.11.2V100.4h2.04Zm-2.02-7.62a10.609,10.609,0,0,0-1.08-.221,7.547,7.547,0,0,0-1.08-.079,2.986,2.986,0,0,0-.95.15,1.721,1.721,0,0,0-.78.541,2.817,2.817,0,0,0-.52,1.039,6.075,6.075,0,0,0-.19,1.67,7.616,7.616,0,0,0,.17,1.77,2.912,2.912,0,0,0,.49,1.1,1.6,1.6,0,0,0,.78.558,3.317,3.317,0,0,0,1.04.151,8.359,8.359,0,0,0,1.06-.07q.54-.069,1.06-.17Z"/>
    <path d="M492.816,114.514q-.759.221-1.83.451a10.968,10.968,0,0,1-2.29.229,7.164,7.164,0,0,1-1.559-.16,3.455,3.455,0,0,1-1.25-.53,2.534,2.534,0,0,1-.83-.97,3.32,3.32,0,0,1-.3-1.5,2.728,2.728,0,0,1,.33-1.4,2.637,2.637,0,0,1,.871-.9,3.662,3.662,0,0,1,1.259-.48,7.871,7.871,0,0,1,1.5-.14q.64,0,1.151.05c.34.033.65.077.929.13v-.94a1.391,1.391,0,0,0-.65-1.35,3.413,3.413,0,0,0-1.629-.35,8.612,8.612,0,0,0-1.4.119c-.48.081-.908.161-1.281.241l-.14-1.52q.64-.141,1.41-.24a11.855,11.855,0,0,1,1.511-.1,8.338,8.338,0,0,1,1.61.151,3.736,3.736,0,0,1,1.339.519,2.77,2.77,0,0,1,.911.97,3.015,3.015,0,0,1,.339,1.5Zm-2.02-3.76c-.279-.053-.587-.1-.92-.13s-.673-.05-1.02-.05a5.344,5.344,0,0,0-.83.061,1.891,1.891,0,0,0-.679.229,1.229,1.229,0,0,0-.46.48,1.671,1.671,0,0,0-.171.81,1.35,1.35,0,0,0,.591,1.27,2.744,2.744,0,0,0,1.429.349,7.5,7.5,0,0,0,1.131-.079q.53-.079.929-.18Z"/>
  </g>
  <g>
    <path d="M462.281,218.333c-.232-3.438.873-18.388,5.017-27.361" fill="none" stroke="#000" stroke-miterlimit="10"/>
    <polygon points="469.782 195.658 468.839 195.993 467.191 191.346 462.676 193.329 462.274 192.413 467.774 189.998 469.782 195.658"/>
  </g>
  <path d="M465.012,135.295a18.985,18.985,0,0,1,7.617,1.535,19.666,19.666,0,0,1,10.39,10.389,19.666,19.666,0,0,1,0,15.234,19.666,19.666,0,0,1-10.39,10.389,19.666,19.666,0,0,1-15.234,0,19.659,19.659,0,0,1-10.389-10.389,19.666,19.666,0,0,1,0-15.234A19.659,19.659,0,0,1,457.4,136.83,18.985,18.985,0,0,1,465.012,135.295Zm0,35.893a15.9,15.9,0,0,0,6.381-1.3,16.631,16.631,0,0,0,5.205-3.51,16.431,16.431,0,0,0,3.489-5.184,16.425,16.425,0,0,0-.02-12.742,16.674,16.674,0,0,0-3.509-5.205,16.427,16.427,0,0,0-5.185-3.488,16.407,16.407,0,0,0-12.742.019,16.615,16.615,0,0,0-5.2,3.51,16.381,16.381,0,0,0-3.489,5.184,16.419,16.419,0,0,0,.019,12.742,16.625,16.625,0,0,0,3.51,5.2,16.4,16.4,0,0,0,5.184,3.488A15.923,15.923,0,0,0,465.012,171.188Zm-.119-29.711a12.393,12.393,0,0,1,4.626.757,8.718,8.718,0,0,1,2.991,1.895,6.824,6.824,0,0,1,1.594,2.451,7.154,7.154,0,0,1,.479,2.434,9.375,9.375,0,0,1-.279,2.453,7.361,7.361,0,0,1-.738,1.795,6.284,6.284,0,0,1-1.037,1.336,13.314,13.314,0,0,1-1.216,1.037q-.638.477-1.256.877a8.289,8.289,0,0,0-1.137.877,5.3,5.3,0,0,0-.9,1.076,3.641,3.641,0,0,0-.5,1.476h-5.3a8.21,8.21,0,0,1,.418-2.234,7.539,7.539,0,0,1,.818-1.674,8.355,8.355,0,0,1,1.036-1.277,10.137,10.137,0,0,1,1.157-1l.24-.2q.516-.44,1-.838a5.684,5.684,0,0,0,.837-.858,3.6,3.6,0,0,0,.558-1.017,3.912,3.912,0,0,0,.2-1.317,3.5,3.5,0,0,0-.877-2.631,3.379,3.379,0,0,0-2.432-.837,3.8,3.8,0,0,0-1.8.4,3.641,3.641,0,0,0-1.256,1.076,4.625,4.625,0,0,0-.738,1.6,7.751,7.751,0,0,0-.239,1.955h-5.7a11.257,11.257,0,0,1,.718-3.869,8.923,8.923,0,0,1,1.914-3.031,8.8,8.8,0,0,1,2.951-1.995A9.954,9.954,0,0,1,464.893,141.477Zm-2.672,21.455h5.3V168.2h-5.3Z" fill="#5b5d5e"/>
</svg>
