<svg xmlns="http://www.w3.org/2000/svg" viewBox="0 0 560 380">
  <g>
    <g>
      <path d="M29.908,250l3.849-10.021h1.429L39.287,250H37.776l-1.169-3.035h-4.19L31.316,250Zm2.892-4.115h3.4l-1.046-2.776q-.477-1.263-.711-2.078a12.574,12.574,0,0,1-.54,1.914Z"/>
      <path d="M40.162,250V239.976h1.231V250Z"/>
      <path d="M43.272,250V239.976H44.5V250Z"/>
      <path d="M50.307,241.391v-1.415h1.23v1.415Zm0,8.606v-7.26h1.23V250Z"/>
      <path d="M53.41,250v-7.26h1.108v1.033a2.61,2.61,0,0,1,2.31-1.2,3.019,3.019,0,0,1,1.207.237,1.9,1.9,0,0,1,.823.618,2.369,2.369,0,0,1,.383.909,6.984,6.984,0,0,1,.069,1.2V250H58.079v-4.416a3.332,3.332,0,0,0-.143-1.124,1.182,1.182,0,0,0-.51-.595,1.619,1.619,0,0,0-.858-.222,2,2,0,0,0-1.357.5,2.464,2.464,0,0,0-.57,1.893V250Z"/>
      <path d="M61.49,250v-6.3H60.4v-.957H61.49v-.772a3.4,3.4,0,0,1,.13-1.087,1.576,1.576,0,0,1,.626-.775,2.244,2.244,0,0,1,1.254-.3,6.022,6.022,0,0,1,1.148.123L64.464,241a4.193,4.193,0,0,0-.725-.068,1.082,1.082,0,0,0-.793.239,1.3,1.3,0,0,0-.232.9v.67h1.415v.957H62.714V250Z"/>
      <path d="M64.628,246.367a3.74,3.74,0,0,1,1.121-2.987,3.382,3.382,0,0,1,2.283-.807,3.253,3.253,0,0,1,2.447.982,3.727,3.727,0,0,1,.951,2.71,4.8,4.8,0,0,1-.421,2.205,2.976,2.976,0,0,1-1.223,1.247,3.556,3.556,0,0,1-1.754.444,3.26,3.26,0,0,1-2.464-.977A3.9,3.9,0,0,1,64.628,246.367Zm1.265,0a3.092,3.092,0,0,0,.608,2.089,2.027,2.027,0,0,0,3.056,0,3.168,3.168,0,0,0,.608-2.126,3,3,0,0,0-.612-2.04,2.029,2.029,0,0,0-3.052,0A3.079,3.079,0,0,0,65.893,246.367Z"/>
      <path d="M72.858,250v-7.26h1.108v1.1a3,3,0,0,1,.783-1.019,1.365,1.365,0,0,1,.789-.246,2.4,2.4,0,0,1,1.265.4l-.424,1.141a1.768,1.768,0,0,0-.9-.266,1.171,1.171,0,0,0-.725.243,1.311,1.311,0,0,0-.458.673,4.78,4.78,0,0,0-.2,1.435V250Z"/>
      <path d="M77.534,250v-7.26h1.1v1.019a2.559,2.559,0,0,1,2.2-1.183,2.4,2.4,0,0,1,1.323.335,1.8,1.8,0,0,1,.728.937,2.605,2.605,0,0,1,2.242-1.272,2.2,2.2,0,0,1,1.661.6,2.557,2.557,0,0,1,.581,1.842V250H86.147v-4.573a3.393,3.393,0,0,0-.119-1.063,1.039,1.039,0,0,0-.434-.523,1.359,1.359,0,0,0-.739-.2,1.719,1.719,0,0,0-1.271.509,2.243,2.243,0,0,0-.506,1.63V250h-1.23V245.28a2.069,2.069,0,0,0-.3-1.23,1.138,1.138,0,0,0-.984-.41,1.791,1.791,0,0,0-.961.273,1.553,1.553,0,0,0-.639.8,4.507,4.507,0,0,0-.2,1.517V250Z"/>
      <path d="M93.934,249.1a4.589,4.589,0,0,1-1.316.82,3.794,3.794,0,0,1-1.357.239,2.636,2.636,0,0,1-1.839-.584,1.931,1.931,0,0,1-.643-1.494,1.985,1.985,0,0,1,.243-.974,2.016,2.016,0,0,1,.636-.708,3.029,3.029,0,0,1,.885-.4,9.09,9.09,0,0,1,1.094-.185,11.224,11.224,0,0,0,2.194-.423c0-.168.007-.276.007-.322a1.355,1.355,0,0,0-.349-1.059,2.057,2.057,0,0,0-1.4-.417,2.173,2.173,0,0,0-1.282.3,1.863,1.863,0,0,0-.612,1.077l-1.2-.164a2.99,2.99,0,0,1,.54-1.247,2.361,2.361,0,0,1,1.087-.732,4.846,4.846,0,0,1,1.648-.257,4.353,4.353,0,0,1,1.51.219,1.98,1.98,0,0,1,.855.551,1.934,1.934,0,0,1,.383.837,6.947,6.947,0,0,1,.061,1.134v1.641a17.479,17.479,0,0,0,.079,2.171,2.716,2.716,0,0,0,.311.871H94.18A2.591,2.591,0,0,1,93.934,249.1Zm-.1-2.748a9.029,9.029,0,0,1-2.01.464,4.772,4.772,0,0,0-1.073.246,1.071,1.071,0,0,0-.485.4,1.087,1.087,0,0,0,.2,1.4,1.6,1.6,0,0,0,1.091.328,2.538,2.538,0,0,0,1.264-.31,1.922,1.922,0,0,0,.814-.852,2.968,2.968,0,0,0,.2-1.23Z"/>
      <path d="M99.669,248.9l.178,1.087a4.5,4.5,0,0,1-.93.11,2.106,2.106,0,0,1-1.039-.212,1.186,1.186,0,0,1-.52-.557,4.42,4.42,0,0,1-.15-1.453v-4.177h-.9v-.957h.9v-1.8l1.224-.738v2.536h1.237v.957H98.432v4.245a2.114,2.114,0,0,0,.065.677.5.5,0,0,0,.211.239.816.816,0,0,0,.421.089A3.826,3.826,0,0,0,99.669,248.9Z"/>
      <path d="M100.879,241.391v-1.415h1.23v1.415Zm0,8.606v-7.26h1.23V250Z"/>
      <path d="M103.524,246.367a3.74,3.74,0,0,1,1.122-2.987,3.381,3.381,0,0,1,2.283-.807,3.253,3.253,0,0,1,2.447.982,3.731,3.731,0,0,1,.95,2.71,4.811,4.811,0,0,1-.42,2.205,2.978,2.978,0,0,1-1.224,1.247,3.555,3.555,0,0,1-1.753.444,3.264,3.264,0,0,1-2.465-.977A3.908,3.908,0,0,1,103.524,246.367Zm1.265,0a3.1,3.1,0,0,0,.608,2.089,2.027,2.027,0,0,0,3.056,0,3.163,3.163,0,0,0,.609-2.126,3,3,0,0,0-.612-2.04,2.03,2.03,0,0,0-3.053,0A3.084,3.084,0,0,0,104.789,246.367Z"/>
      <path d="M111.769,250v-7.26h1.107v1.033a2.611,2.611,0,0,1,2.311-1.2,3.018,3.018,0,0,1,1.206.237,1.9,1.9,0,0,1,.824.618,2.385,2.385,0,0,1,.383.909,7.121,7.121,0,0,1,.068,1.2V250h-1.23v-4.416a3.3,3.3,0,0,0-.144-1.124,1.185,1.185,0,0,0-.509-.595,1.622,1.622,0,0,0-.858-.222,2,2,0,0,0-1.357.5,2.46,2.46,0,0,0-.571,1.893V250Z"/>
      <path d="M32.772,266.8v-7.26H33.88v1.1a3,3,0,0,1,.783-1.019,1.365,1.365,0,0,1,.789-.246,2.4,2.4,0,0,1,1.265.4l-.424,1.141a1.759,1.759,0,0,0-.9-.266,1.171,1.171,0,0,0-.725.243,1.307,1.307,0,0,0-.458.673A4.78,4.78,0,0,0,34,263v3.8Z"/>
      <path d="M42.418,264.459l1.271.157a3.1,3.1,0,0,1-1.114,1.73,3.775,3.775,0,0,1-4.6-.366,3.833,3.833,0,0,1-.933-2.751,4.018,4.018,0,0,1,.943-2.844,3.2,3.2,0,0,1,2.448-1.012,3.109,3.109,0,0,1,2.379.991,3.94,3.94,0,0,1,.922,2.789c0,.074,0,.183-.006.328H38.31a2.787,2.787,0,0,0,.676,1.832,2.016,2.016,0,0,0,1.518.636,1.882,1.882,0,0,0,1.155-.355A2.36,2.36,0,0,0,42.418,264.459Zm-4.04-1.989h4.054a2.461,2.461,0,0,0-.465-1.374,1.886,1.886,0,0,0-1.525-.711,1.955,1.955,0,0,0-1.425.567A2.249,2.249,0,0,0,38.378,262.47Z"/>
      <path d="M45.207,266.8V256.775h1.231V266.8Z"/>
      <path d="M53.082,265.9a4.558,4.558,0,0,1-1.316.821,3.79,3.79,0,0,1-1.357.239,2.64,2.64,0,0,1-1.839-.584,1.931,1.931,0,0,1-.642-1.494,1.993,1.993,0,0,1,.242-.974,2.016,2.016,0,0,1,.636-.708,3,3,0,0,1,.885-.4,8.892,8.892,0,0,1,1.094-.185,11.118,11.118,0,0,0,2.194-.424c.005-.168.007-.275.007-.321a1.359,1.359,0,0,0-.348-1.059,2.062,2.062,0,0,0-1.4-.417,2.169,2.169,0,0,0-1.281.3,1.855,1.855,0,0,0-.612,1.076l-1.2-.164a2.977,2.977,0,0,1,.54-1.247,2.357,2.357,0,0,1,1.087-.731,4.844,4.844,0,0,1,1.647-.257,4.355,4.355,0,0,1,1.511.219,1.982,1.982,0,0,1,.854.551,1.935,1.935,0,0,1,.383.836,6.919,6.919,0,0,1,.062,1.135v1.641a17.571,17.571,0,0,0,.078,2.171,2.716,2.716,0,0,0,.311.871H53.328A2.635,2.635,0,0,1,53.082,265.9Zm-.1-2.748a8.939,8.939,0,0,1-2.009.465,4.674,4.674,0,0,0-1.074.246,1.077,1.077,0,0,0-.485.4,1.086,1.086,0,0,0,.2,1.4A1.6,1.6,0,0,0,50.7,266a2.542,2.542,0,0,0,1.265-.31,1.919,1.919,0,0,0,.813-.852,2.957,2.957,0,0,0,.2-1.231Z"/>
      <path d="M58.817,265.7,59,266.783a4.558,4.558,0,0,1-.93.11,2.109,2.109,0,0,1-1.039-.212,1.184,1.184,0,0,1-.519-.557,4.411,4.411,0,0,1-.151-1.453v-4.177h-.9v-.957h.9v-1.8L57.58,257v2.536h1.237v.957H57.58v4.245a2.149,2.149,0,0,0,.065.677.5.5,0,0,0,.212.239.81.81,0,0,0,.42.089A3.826,3.826,0,0,0,58.817,265.7Z"/>
      <path d="M64.99,264.459l1.272.157a3.1,3.1,0,0,1-1.115,1.73,3.775,3.775,0,0,1-4.6-.366,3.833,3.833,0,0,1-.933-2.751,4.013,4.013,0,0,1,.944-2.844A3.2,3.2,0,0,1,63,259.373a3.106,3.106,0,0,1,2.379.991,3.941,3.941,0,0,1,.923,2.789c0,.074,0,.183-.007.328H60.882a2.782,2.782,0,0,0,.677,1.832,2.012,2.012,0,0,0,1.517.636,1.88,1.88,0,0,0,1.155-.355A2.36,2.36,0,0,0,64.99,264.459Zm-4.04-1.989H65a2.461,2.461,0,0,0-.465-1.374,1.886,1.886,0,0,0-1.524-.711,1.959,1.959,0,0,0-1.426.567A2.249,2.249,0,0,0,60.95,262.47Z"/>
      <path d="M72.517,266.8v-.916a2.258,2.258,0,0,1-2.031,1.08,2.84,2.84,0,0,1-1.6-.479,3.145,3.145,0,0,1-1.128-1.336,4.627,4.627,0,0,1-.4-1.972,5.15,5.15,0,0,1,.363-1.972,2.849,2.849,0,0,1,1.087-1.357,2.9,2.9,0,0,1,1.62-.472,2.43,2.43,0,0,1,1.169.277,2.466,2.466,0,0,1,.834.721v-3.6h1.223V266.8Zm-3.89-3.623a3.151,3.151,0,0,0,.588,2.085,1.77,1.77,0,0,0,1.388.69,1.742,1.742,0,0,0,1.37-.659,3.043,3.043,0,0,0,.564-2.014,3.413,3.413,0,0,0-.574-2.187,1.766,1.766,0,0,0-1.415-.7,1.7,1.7,0,0,0-1.371.67A3.313,3.313,0,0,0,68.627,263.174Z"/>
      <path d="M82.169,265.7l.178,1.087a4.574,4.574,0,0,1-.93.11,2.106,2.106,0,0,1-1.039-.212,1.186,1.186,0,0,1-.52-.557,4.42,4.42,0,0,1-.15-1.453v-4.177h-.9v-.957h.9v-1.8L80.932,257v2.536h1.237v.957H80.932v4.245a2.118,2.118,0,0,0,.065.677.5.5,0,0,0,.211.239.816.816,0,0,0,.421.089A3.826,3.826,0,0,0,82.169,265.7Z"/>
      <path d="M82.914,263.167a3.743,3.743,0,0,1,1.121-2.987,3.382,3.382,0,0,1,2.283-.807,3.26,3.26,0,0,1,2.448.981,3.734,3.734,0,0,1,.95,2.71,4.8,4.8,0,0,1-.421,2.206,2.976,2.976,0,0,1-1.223,1.247,3.567,3.567,0,0,1-1.754.444,3.257,3.257,0,0,1-2.464-.978A3.9,3.9,0,0,1,82.914,263.167Zm1.265,0a3.092,3.092,0,0,0,.608,2.089,2.027,2.027,0,0,0,3.056,0,3.163,3.163,0,0,0,.608-2.126,3,3,0,0,0-.612-2.04,2.029,2.029,0,0,0-3.052,0A3.077,3.077,0,0,0,84.179,263.167Z"/>
      <path d="M94.993,269.593l-.137-1.155a2.74,2.74,0,0,0,.705.109,1.341,1.341,0,0,0,.656-.137,1.119,1.119,0,0,0,.4-.383,5.892,5.892,0,0,0,.376-.916c.023-.068.059-.168.109-.3l-2.754-7.274h1.326l1.511,4.2q.292.8.526,1.682a16.5,16.5,0,0,1,.506-1.654l1.551-4.232H101L98.24,266.92a14.362,14.362,0,0,1-.69,1.647,2.419,2.419,0,0,1-.752.893,1.786,1.786,0,0,1-1.012.283A2.472,2.472,0,0,1,94.993,269.593Z"/>
      <path d="M101.59,263.167a3.74,3.74,0,0,1,1.121-2.987,3.381,3.381,0,0,1,2.283-.807,3.256,3.256,0,0,1,2.447.981,3.731,3.731,0,0,1,.951,2.71,4.814,4.814,0,0,1-.421,2.206,2.976,2.976,0,0,1-1.223,1.247,3.57,3.57,0,0,1-1.754.444,3.257,3.257,0,0,1-2.464-.978A3.9,3.9,0,0,1,101.59,263.167Zm1.264,0a3.092,3.092,0,0,0,.609,2.089,2.027,2.027,0,0,0,3.056,0,3.168,3.168,0,0,0,.608-2.126,3,3,0,0,0-.612-2.04,2.029,2.029,0,0,0-3.052,0A3.077,3.077,0,0,0,102.854,263.167Z"/>
      <path d="M114.592,266.8V265.73a2.656,2.656,0,0,1-2.3,1.231,2.941,2.941,0,0,1-1.2-.246,1.98,1.98,0,0,1-.827-.618,2.326,2.326,0,0,1-.379-.913,6.268,6.268,0,0,1-.075-1.149v-4.5h1.23v4.026a7.183,7.183,0,0,0,.075,1.3,1.287,1.287,0,0,0,.492.763,1.524,1.524,0,0,0,.93.276,2.024,2.024,0,0,0,1.039-.283,1.575,1.575,0,0,0,.687-.772,3.866,3.866,0,0,0,.2-1.419v-3.89h1.23v7.26Z"/>
    </g>
    <g>
      <path d="M62.01,122.994v-13.3h2.3l4.78,7.18,4.8-7.18h2.28v13.3H74.11v-10.46l-4.18,6.28H68.25l-4.16-6.28v10.46Z"/>
      <path d="M81.35,118.754a5.065,5.065,0,0,0,.179,1.269,2.091,2.091,0,0,0,.52.911,2.255,2.255,0,0,0,.96.541,5.438,5.438,0,0,0,1.52.179c.214,0,.447-.009.7-.03s.5-.05.75-.09.48-.08.7-.12.4-.08.549-.12l.181,1.479a12.512,12.512,0,0,1-1.41.291,11,11,0,0,1-1.69.13,9.18,9.18,0,0,1-2.081-.219,3.7,3.7,0,0,1-1.6-.791,3.74,3.74,0,0,1-1.029-1.539,7.01,7.01,0,0,1-.371-2.471,7.749,7.749,0,0,1,.311-2.36,3.841,3.841,0,0,1,.89-1.55,3.347,3.347,0,0,1,1.409-.85,6.186,6.186,0,0,1,1.85-.26,4.83,4.83,0,0,1,1.761.29,3.36,3.36,0,0,1,1.23.81,3.2,3.2,0,0,1,.719,1.26,5.565,5.565,0,0,1,.23,1.66v1.58Zm4.339-1.4q0-2.779-2.06-2.78a1.934,1.934,0,0,0-1.659.7,3.856,3.856,0,0,0-.6,2.081Z"/>
    </g>
    <g>
      <path d="M77.679,226.333c-3.154-14.56-5.367-14.594-6.7-26.132" fill="none" stroke="#000" stroke-miterlimit="10"/>
      <polygon points="75.478 202.962 74.839 203.733 71.049 200.579 68.18 204.591 67.367 204.008 70.861 199.123 75.478 202.962"/>
    </g>
    <g>
      <path d="M74.27,147.274A16.925,16.925,0,1,1,57.345,164.2,16.943,16.943,0,0,1,74.27,147.274m0-2.8A19.725,19.725,0,1,0,93.994,164.2,19.725,19.725,0,0,0,74.27,144.474Z" fill="#5b5d5e"/>
      <path d="M79.19,163.271a6.664,6.664,0,0,1,1.816,1.04,7.417,7.417,0,0,1,1.419,1.506,7.045,7.045,0,0,1,.937,1.874,6.822,6.822,0,0,1,.337,2.137v4.1a1.15,1.15,0,0,1-1.172,1.171H66.134a1.148,1.148,0,0,1-1.171-1.171v-4.1a6.792,6.792,0,0,1,.336-2.137,7.045,7.045,0,0,1,.937-1.874,7.4,7.4,0,0,1,1.42-1.506,6.659,6.659,0,0,1,1.815-1.04,7.91,7.91,0,0,0,2.268,1.17,8.186,8.186,0,0,0,2.592.411A8.043,8.043,0,0,0,79.19,163.271Zm1.289-6.617A5.991,5.991,0,0,1,80,159.04a6.161,6.161,0,0,1-3.264,3.279,6.16,6.16,0,0,1-4.787,0,6.124,6.124,0,0,1-3.278-3.279,6.169,6.169,0,0,1,0-4.786,6.17,6.17,0,0,1,3.278-3.265,6.184,6.184,0,0,1,4.787,0A6.208,6.208,0,0,1,80,154.254,5.964,5.964,0,0,1,80.479,156.654Z" fill="#5b5d5e"/>
    </g>
  </g>
  <g>
    <g>
      <path d="M152.514,246.484l1.326.335a4.462,4.462,0,0,1-1.5,2.492,4.138,4.138,0,0,1-2.65.858,4.752,4.752,0,0,1-2.634-.66,4.11,4.11,0,0,1-1.545-1.91,6.806,6.806,0,0,1-.531-2.687,5.9,5.9,0,0,1,.6-2.731,4.1,4.1,0,0,1,1.7-1.771,4.976,4.976,0,0,1,2.43-.6,4.108,4.108,0,0,1,2.529.765,3.972,3.972,0,0,1,1.429,2.154l-1.306.307a3.093,3.093,0,0,0-1.011-1.593,2.694,2.694,0,0,0-1.668-.5,3.24,3.24,0,0,0-1.931.554,2.921,2.921,0,0,0-1.091,1.486,6.01,6.01,0,0,0-.314,1.925,6.1,6.1,0,0,0,.373,2.232,2.78,2.78,0,0,0,1.158,1.426,3.254,3.254,0,0,0,1.7.471,2.86,2.86,0,0,0,1.887-.642A3.291,3.291,0,0,0,152.514,246.484Z"/>
      <path d="M155.3,250v-7.26h1.107v1.1a3,3,0,0,1,.783-1.019,1.367,1.367,0,0,1,.789-.246,2.394,2.394,0,0,1,1.265.4l-.424,1.141a1.766,1.766,0,0,0-.9-.266,1.179,1.179,0,0,0-.725.242,1.324,1.324,0,0,0-.458.674,4.812,4.812,0,0,0-.205,1.435V250Z"/>
      <path d="M164.948,247.66l1.272.157a3.1,3.1,0,0,1-1.115,1.73,3.774,3.774,0,0,1-4.6-.366,3.835,3.835,0,0,1-.934-2.751,4.01,4.01,0,0,1,.944-2.844,3.192,3.192,0,0,1,2.447-1.012,3.1,3.1,0,0,1,2.379.991,3.939,3.939,0,0,1,.923,2.789c0,.073,0,.182-.007.329H160.84a2.793,2.793,0,0,0,.677,1.832,2.018,2.018,0,0,0,1.517.635,1.886,1.886,0,0,0,1.155-.355A2.346,2.346,0,0,0,164.948,247.66Zm-4.04-1.989h4.054a2.454,2.454,0,0,0-.465-1.374,1.881,1.881,0,0,0-1.524-.711,1.951,1.951,0,0,0-1.425.567A2.241,2.241,0,0,0,160.908,245.671Z"/>
      <path d="M172.5,249.1a4.629,4.629,0,0,1-1.315.82,3.817,3.817,0,0,1-1.358.239,2.64,2.64,0,0,1-1.839-.585,1.933,1.933,0,0,1-.642-1.493,2.023,2.023,0,0,1,.879-1.682,2.986,2.986,0,0,1,.884-.4,8.769,8.769,0,0,1,1.094-.185,11.268,11.268,0,0,0,2.194-.423c0-.169.007-.277.007-.322a1.357,1.357,0,0,0-.348-1.059,2.056,2.056,0,0,0-1.4-.417,2.177,2.177,0,0,0-1.281.3,1.866,1.866,0,0,0-.612,1.078l-1.2-.164a2.982,2.982,0,0,1,.54-1.248,2.369,2.369,0,0,1,1.087-.732,4.845,4.845,0,0,1,1.647-.256,4.332,4.332,0,0,1,1.511.219,1.975,1.975,0,0,1,.854.55,1.915,1.915,0,0,1,.383.838,6.9,6.9,0,0,1,.062,1.134v1.641a17.25,17.25,0,0,0,.079,2.17,2.719,2.719,0,0,0,.31.872h-1.285A2.642,2.642,0,0,1,172.5,249.1Zm-.1-2.749a9.051,9.051,0,0,1-2.009.465,4.674,4.674,0,0,0-1.074.246,1.075,1.075,0,0,0-.485.4,1.059,1.059,0,0,0-.171.585,1.046,1.046,0,0,0,.373.82,1.6,1.6,0,0,0,1.09.328,2.529,2.529,0,0,0,1.265-.311,1.912,1.912,0,0,0,.813-.851,2.958,2.958,0,0,0,.2-1.23Z"/>
      <path d="M178.237,248.9l.178,1.087a4.558,4.558,0,0,1-.93.11,2.12,2.12,0,0,1-1.039-.212,1.186,1.186,0,0,1-.519-.558,4.4,4.4,0,0,1-.151-1.452V243.7h-.9v-.957h.9v-1.8L177,240.2v2.536h1.237v.957H177v4.245a2.122,2.122,0,0,0,.065.677.51.51,0,0,0,.212.239.823.823,0,0,0,.42.089A3.969,3.969,0,0,0,178.237,248.9Z"/>
      <path d="M184.41,247.66l1.272.157a3.1,3.1,0,0,1-1.115,1.73,3.774,3.774,0,0,1-4.6-.366,3.835,3.835,0,0,1-.934-2.751,4.01,4.01,0,0,1,.944-2.844,3.192,3.192,0,0,1,2.447-1.012,3.1,3.1,0,0,1,2.379.991,3.939,3.939,0,0,1,.923,2.789c0,.073,0,.182-.007.329H180.3a2.793,2.793,0,0,0,.677,1.832,2.018,2.018,0,0,0,1.517.635,1.886,1.886,0,0,0,1.155-.355A2.346,2.346,0,0,0,184.41,247.66Zm-4.04-1.989h4.054a2.454,2.454,0,0,0-.465-1.374,1.881,1.881,0,0,0-1.524-.711,1.951,1.951,0,0,0-1.425.567A2.241,2.241,0,0,0,180.37,245.671Z"/>
      <path d="M196.845,248.815a4.2,4.2,0,0,1-1.326,1.015,3.59,3.59,0,0,1-1.552.339,3.07,3.07,0,0,1-2.441-1.039,2.831,2.831,0,0,1-.731-1.894,2.613,2.613,0,0,1,.6-1.678,4.979,4.979,0,0,1,1.787-1.316,6.007,6.007,0,0,1-.9-1.264,2.229,2.229,0,0,1-.225-.937,2.086,2.086,0,0,1,.708-1.569,2.489,2.489,0,0,1,1.78-.666,2.318,2.318,0,0,1,1.679.629,2.025,2.025,0,0,1,.652,1.51q0,1.428-1.893,2.441l1.8,2.29a5.666,5.666,0,0,0,.479-1.395l1.278.274a6.982,6.982,0,0,1-.888,2.16,7.164,7.164,0,0,0,1.565,1.538l-.827.977A7.192,7.192,0,0,1,196.845,248.815Zm-.773-.97-2.256-2.8a4.315,4.315,0,0,0-1.346,1.1,1.779,1.779,0,0,0-.349,1.009,2.152,2.152,0,0,0,.485,1.265,1.613,1.613,0,0,0,1.374.656,2.266,2.266,0,0,0,1.146-.346A2.763,2.763,0,0,0,196.072,247.845Zm-1.729-4.252a3.3,3.3,0,0,0,1.036-.827,1.4,1.4,0,0,0,.235-.787,1.134,1.134,0,0,0-.324-.837,1.1,1.1,0,0,0-.811-.325,1.143,1.143,0,0,0-.83.322,1.051,1.051,0,0,0-.332.786,1.141,1.141,0,0,0,.121.488,2.53,2.53,0,0,0,.358.544Z"/>
      <path d="M209.081,249.1a4.616,4.616,0,0,1-1.315.82,3.817,3.817,0,0,1-1.358.239,2.64,2.64,0,0,1-1.839-.585,1.933,1.933,0,0,1-.642-1.493,2.023,2.023,0,0,1,.879-1.682,2.986,2.986,0,0,1,.884-.4,8.769,8.769,0,0,1,1.094-.185,11.3,11.3,0,0,0,2.2-.423c0-.169.006-.277.006-.322a1.357,1.357,0,0,0-.348-1.059,2.056,2.056,0,0,0-1.4-.417,2.177,2.177,0,0,0-1.281.3,1.866,1.866,0,0,0-.612,1.078l-1.2-.164a2.982,2.982,0,0,1,.54-1.248,2.369,2.369,0,0,1,1.087-.732,4.845,4.845,0,0,1,1.647-.256,4.332,4.332,0,0,1,1.511.219,1.969,1.969,0,0,1,.854.55,1.915,1.915,0,0,1,.383.838,6.9,6.9,0,0,1,.062,1.134v1.641a17.25,17.25,0,0,0,.079,2.17,2.743,2.743,0,0,0,.31.872h-1.285A2.642,2.642,0,0,1,209.081,249.1Zm-.1-2.749a9.077,9.077,0,0,1-2.01.465,4.649,4.649,0,0,0-1.073.246,1.078,1.078,0,0,0-.486.4,1.059,1.059,0,0,0-.171.585,1.046,1.046,0,0,0,.373.82,1.6,1.6,0,0,0,1.09.328,2.529,2.529,0,0,0,1.265-.311,1.912,1.912,0,0,0,.813-.851,2.955,2.955,0,0,0,.2-1.23Z"/>
      <path d="M216.84,250v-.916a2.258,2.258,0,0,1-2.03,1.08,2.852,2.852,0,0,1-1.6-.478,3.159,3.159,0,0,1-1.128-1.337,4.615,4.615,0,0,1-.4-1.972,5.178,5.178,0,0,1,.362-1.973,2.862,2.862,0,0,1,1.087-1.356,2.9,2.9,0,0,1,1.62-.472,2.422,2.422,0,0,1,2,1v-3.595h1.223V250Zm-3.89-3.623a3.153,3.153,0,0,0,.588,2.085,1.775,1.775,0,0,0,1.388.69,1.737,1.737,0,0,0,1.371-.66,3.037,3.037,0,0,0,.563-2.012,3.412,3.412,0,0,0-.574-2.188,1.765,1.765,0,0,0-1.415-.7,1.7,1.7,0,0,0-1.37.67A3.3,3.3,0,0,0,212.95,246.375Z"/>
      <path d="M224.626,250v-.916a2.258,2.258,0,0,1-2.03,1.08,2.855,2.855,0,0,1-1.6-.478,3.159,3.159,0,0,1-1.128-1.337,4.615,4.615,0,0,1-.4-1.972,5.178,5.178,0,0,1,.362-1.973,2.862,2.862,0,0,1,1.087-1.356,2.9,2.9,0,0,1,1.62-.472,2.422,2.422,0,0,1,2,1v-3.595h1.224V250Zm-3.89-3.623a3.159,3.159,0,0,0,.588,2.085,1.775,1.775,0,0,0,1.388.69,1.737,1.737,0,0,0,1.371-.66,3.037,3.037,0,0,0,.563-2.012,3.412,3.412,0,0,0-.574-2.188,1.765,1.765,0,0,0-1.415-.7,1.7,1.7,0,0,0-1.37.67A3.3,3.3,0,0,0,220.736,246.375Z"/>
      <path d="M168.229,264.139l1.21.157a3.134,3.134,0,0,1-1.014,1.958,2.958,2.958,0,0,1-2.007.708,3.117,3.117,0,0,1-2.4-.975,3.95,3.95,0,0,1-.906-2.792,5.046,5.046,0,0,1,.39-2.057,2.72,2.72,0,0,1,1.186-1.324,3.53,3.53,0,0,1,1.733-.44,3.008,3.008,0,0,1,1.934.6,2.734,2.734,0,0,1,.964,1.7l-1.2.184a1.974,1.974,0,0,0-.605-1.1,1.566,1.566,0,0,0-1.049-.369,1.91,1.91,0,0,0-1.511.666,3.165,3.165,0,0,0-.581,2.109,3.275,3.275,0,0,0,.56,2.126,1.826,1.826,0,0,0,1.463.663,1.722,1.722,0,0,0,1.21-.444A2.2,2.2,0,0,0,168.229,264.139Z"/>
      <path d="M170.034,263.168a3.74,3.74,0,0,1,1.121-2.987,3.379,3.379,0,0,1,2.283-.807,3.26,3.26,0,0,1,2.448.98,3.733,3.733,0,0,1,.95,2.711,4.811,4.811,0,0,1-.42,2.2,2.975,2.975,0,0,1-1.224,1.248,3.578,3.578,0,0,1-1.754.444,3.26,3.26,0,0,1-2.463-.978A3.9,3.9,0,0,1,170.034,263.168Zm1.265,0a3.093,3.093,0,0,0,.608,2.088,2.026,2.026,0,0,0,3.056,0,3.165,3.165,0,0,0,.608-2.126,3.006,3.006,0,0,0-.611-2.041,2.031,2.031,0,0,0-3.053,0A3.08,3.08,0,0,0,171.3,263.168Z"/>
      <path d="M178.278,266.8v-7.26h1.108v1.032a2.607,2.607,0,0,1,2.31-1.2,3.036,3.036,0,0,1,1.207.235,1.9,1.9,0,0,1,.824.62,2.348,2.348,0,0,1,.382.909,6.968,6.968,0,0,1,.069,1.2V266.8h-1.231v-4.416a3.338,3.338,0,0,0-.143-1.125,1.193,1.193,0,0,0-.509-.6,1.631,1.631,0,0,0-.858-.222,1.991,1.991,0,0,0-1.357.5,2.46,2.46,0,0,0-.571,1.894V266.8Z"/>
      <path d="M188.751,265.7l.178,1.087a4.638,4.638,0,0,1-.93.11,2.12,2.12,0,0,1-1.039-.212,1.2,1.2,0,0,1-.52-.558,4.437,4.437,0,0,1-.15-1.452V260.5h-.9v-.957h.9v-1.8l1.224-.738v2.536h1.237v.957h-1.237v4.245a2.127,2.127,0,0,0,.065.677.505.505,0,0,0,.212.239.82.82,0,0,0,.42.089A3.982,3.982,0,0,0,188.751,265.7Z"/>
      <path d="M194.924,264.46l1.271.157a3.1,3.1,0,0,1-1.114,1.73,3.772,3.772,0,0,1-4.6-.367,3.827,3.827,0,0,1-.934-2.751,4.009,4.009,0,0,1,.943-2.843,3.194,3.194,0,0,1,2.448-1.012,3.1,3.1,0,0,1,2.378.991,3.933,3.933,0,0,1,.923,2.789c0,.073,0,.182-.007.328h-5.414a2.794,2.794,0,0,0,.677,1.832,2.016,2.016,0,0,0,1.518.636,1.886,1.886,0,0,0,1.155-.355A2.369,2.369,0,0,0,194.924,264.46Zm-4.04-1.989h4.054a2.448,2.448,0,0,0-.465-1.374,1.883,1.883,0,0,0-1.525-.711,1.952,1.952,0,0,0-1.425.567A2.245,2.245,0,0,0,190.884,262.471Z"/>
      <path d="M197.74,266.8v-7.26h1.108v1.032a2.607,2.607,0,0,1,2.31-1.2,3.036,3.036,0,0,1,1.207.235,1.9,1.9,0,0,1,.823.62,2.334,2.334,0,0,1,.383.909,6.968,6.968,0,0,1,.069,1.2V266.8h-1.231v-4.416a3.338,3.338,0,0,0-.143-1.125,1.193,1.193,0,0,0-.509-.6,1.632,1.632,0,0,0-.859-.222,1.991,1.991,0,0,0-1.356.5,2.46,2.46,0,0,0-.571,1.894V266.8Z"/>
      <path d="M208.213,265.7l.178,1.087a4.638,4.638,0,0,1-.93.11,2.12,2.12,0,0,1-1.039-.212,1.2,1.2,0,0,1-.52-.558,4.437,4.437,0,0,1-.15-1.452V260.5h-.9v-.957h.9v-1.8l1.224-.738v2.536h1.237v.957h-1.237v4.245a2.127,2.127,0,0,0,.065.677.505.505,0,0,0,.212.239.82.82,0,0,0,.42.089A3.982,3.982,0,0,0,208.213,265.7Z"/>
    </g>
    <g>
      <path d="M169.1,122.994v-8.64a7.256,7.256,0,0,1,.25-1.969,3.629,3.629,0,0,1,2.4-2.541,7.164,7.164,0,0,1,2.409-.35,7.268,7.268,0,0,1,2.421.35,3.809,3.809,0,0,1,1.569,1,3.755,3.755,0,0,1,.84,1.541,7.256,7.256,0,0,1,.25,1.969v8.64h-2.1v-4.92h-5.981v4.92Zm2.059-6.5h5.981v-2.2A5.605,5.605,0,0,0,177,113a2.524,2.524,0,0,0-.49-1.02,2.332,2.332,0,0,0-.92-.67,3.709,3.709,0,0,0-1.431-.24,3.76,3.76,0,0,0-1.449.24,2.318,2.318,0,0,0-.92.67,2.511,2.511,0,0,0-.49,1.02,5.549,5.549,0,0,0-.141,1.29Z"/>
      <path d="M190.661,122.614c-.6.148-1.287.281-2.059.4a13.812,13.812,0,0,1-2.121.18,6.626,6.626,0,0,1-1.78-.229,3.4,3.4,0,0,1-1.44-.82,3.966,3.966,0,0,1-.97-1.571,7.477,7.477,0,0,1-.35-2.48,6.772,6.772,0,0,1,.35-2.34,4.025,4.025,0,0,1,.95-1.52,3.479,3.479,0,0,1,1.41-.83,5.926,5.926,0,0,1,1.75-.25,7.609,7.609,0,0,1,1.11.08q.53.08,1.11.2V108.4h2.04Zm-2.019-7.62a10.721,10.721,0,0,0-1.08-.221,7.571,7.571,0,0,0-1.081-.079,2.981,2.981,0,0,0-.95.15,1.721,1.721,0,0,0-.78.541,2.8,2.8,0,0,0-.52,1.039,6.075,6.075,0,0,0-.19,1.67,7.616,7.616,0,0,0,.17,1.77,2.9,2.9,0,0,0,.49,1.1,1.6,1.6,0,0,0,.78.558,3.322,3.322,0,0,0,1.04.151,8.359,8.359,0,0,0,1.06-.07q.54-.069,1.061-.17Z"/>
      <path d="M202.021,122.614q-.9.222-2.06.4a13.789,13.789,0,0,1-2.12.18,6.621,6.621,0,0,1-1.78-.229,3.4,3.4,0,0,1-1.44-.82,3.966,3.966,0,0,1-.97-1.571,7.477,7.477,0,0,1-.35-2.48,6.772,6.772,0,0,1,.35-2.34,4.025,4.025,0,0,1,.95-1.52,3.473,3.473,0,0,1,1.41-.83,5.926,5.926,0,0,1,1.75-.25,7.619,7.619,0,0,1,1.11.08c.354.053.723.12,1.11.2V108.4h2.04Zm-2.02-7.62a10.609,10.609,0,0,0-1.08-.221,7.547,7.547,0,0,0-1.08-.079,2.986,2.986,0,0,0-.95.15,1.721,1.721,0,0,0-.78.541,2.817,2.817,0,0,0-.52,1.039,6.075,6.075,0,0,0-.19,1.67,7.616,7.616,0,0,0,.17,1.77,2.928,2.928,0,0,0,.49,1.1,1.6,1.6,0,0,0,.78.558,3.313,3.313,0,0,0,1.04.151,8.359,8.359,0,0,0,1.06-.07q.54-.069,1.06-.17Z"/>
    </g>
    <polygon points="202 169 187 169 187 184 182 184 182 169 168 169 168 164 182 164 182 149 187 149 187 164 202 164 202 169" fill="#5b5d5e"/>
  </g>
  <g>
    <g>
      <path d="M271.454,246.778l1.251-.109a2.745,2.745,0,0,0,.414,1.233,2.24,2.24,0,0,0,1.008.78,3.8,3.8,0,0,0,1.538.3,3.693,3.693,0,0,0,1.34-.225,1.859,1.859,0,0,0,.865-.619,1.433,1.433,0,0,0,.283-.858,1.308,1.308,0,0,0-.273-.824,2.025,2.025,0,0,0-.9-.591,18.233,18.233,0,0,0-1.785-.489,9.179,9.179,0,0,1-1.934-.625,2.7,2.7,0,0,1-1.07-.934,2.282,2.282,0,0,1-.352-1.247,2.547,2.547,0,0,1,.431-1.419,2.671,2.671,0,0,1,1.257-1,4.792,4.792,0,0,1,1.839-.341,5.052,5.052,0,0,1,1.966.358,2.845,2.845,0,0,1,1.309,1.057,3.038,3.038,0,0,1,.492,1.579l-1.272.1a2.049,2.049,0,0,0-.693-1.436,2.707,2.707,0,0,0-1.747-.485,2.793,2.793,0,0,0-1.753.441,1.321,1.321,0,0,0-.551,1.063,1.139,1.139,0,0,0,.39.888,5.27,5.27,0,0,0,2,.715,13.186,13.186,0,0,1,2.219.639,3.043,3.043,0,0,1,1.292,1.021,2.5,2.5,0,0,1,.417,1.426,2.734,2.734,0,0,1-.458,1.508,3.026,3.026,0,0,1-1.316,1.1,4.571,4.571,0,0,1-1.931.394,5.755,5.755,0,0,1-2.28-.4A3.2,3.2,0,0,1,272,248.58,3.388,3.388,0,0,1,271.454,246.778Z"/>
      <path d="M281.086,250V239.977h1.23v3.595a2.748,2.748,0,0,1,2.174-1,2.922,2.922,0,0,1,1.4.319,1.858,1.858,0,0,1,.851.878A4.047,4.047,0,0,1,287,245.4V250h-1.23v-4.6a1.9,1.9,0,0,0-.4-1.342,1.482,1.482,0,0,0-1.132-.421,2,2,0,0,0-1.029.284,1.6,1.6,0,0,0-.687.769,3.542,3.542,0,0,0-.205,1.339V250Z"/>
      <path d="M293.609,249.1a4.562,4.562,0,0,1-1.316.82,3.81,3.81,0,0,1-1.356.239,2.641,2.641,0,0,1-1.839-.584,1.93,1.93,0,0,1-.643-1.494,2.025,2.025,0,0,1,.878-1.682,3.021,3.021,0,0,1,.886-.4,8.857,8.857,0,0,1,1.094-.185,11.3,11.3,0,0,0,2.194-.423c0-.168.007-.276.007-.322a1.359,1.359,0,0,0-.349-1.059,2.059,2.059,0,0,0-1.4-.417,2.181,2.181,0,0,0-1.282.3,1.864,1.864,0,0,0-.612,1.078l-1.2-.164a2.978,2.978,0,0,1,.54-1.247,2.37,2.37,0,0,1,1.087-.733,4.869,4.869,0,0,1,1.647-.256,4.332,4.332,0,0,1,1.511.219,1.986,1.986,0,0,1,.855.551,1.922,1.922,0,0,1,.382.837,6.913,6.913,0,0,1,.062,1.134v1.641a17.281,17.281,0,0,0,.079,2.171,2.716,2.716,0,0,0,.311.871h-1.286A2.642,2.642,0,0,1,293.609,249.1Zm-.1-2.749a9.02,9.02,0,0,1-2.01.465,4.758,4.758,0,0,0-1.073.246,1.072,1.072,0,0,0-.486.4,1.061,1.061,0,0,0-.17.585,1.049,1.049,0,0,0,.372.82,1.6,1.6,0,0,0,1.09.328,2.529,2.529,0,0,0,1.265-.311,1.92,1.92,0,0,0,.814-.851,2.974,2.974,0,0,0,.2-1.23Z"/>
      <path d="M296.645,250v-7.26h1.107v1.1a3,3,0,0,1,.783-1.019,1.365,1.365,0,0,1,.789-.246,2.4,2.4,0,0,1,1.265.4l-.424,1.141a1.768,1.768,0,0,0-.9-.266,1.176,1.176,0,0,0-.725.242,1.318,1.318,0,0,0-.458.674,4.78,4.78,0,0,0-.2,1.435V250Z"/>
      <path d="M306.29,247.66l1.272.157a3.1,3.1,0,0,1-1.115,1.73,3.777,3.777,0,0,1-4.6-.365,3.838,3.838,0,0,1-.933-2.752,4.012,4.012,0,0,1,.944-2.844,3.193,3.193,0,0,1,2.447-1.012,3.105,3.105,0,0,1,2.379.991,3.942,3.942,0,0,1,.923,2.789c0,.074,0,.183-.007.329h-5.414a2.791,2.791,0,0,0,.676,1.832,2.018,2.018,0,0,0,1.518.635,1.888,1.888,0,0,0,1.155-.355A2.355,2.355,0,0,0,306.29,247.66Zm-4.04-1.989H306.3a2.464,2.464,0,0,0-.465-1.374,1.883,1.883,0,0,0-1.525-.711,1.956,1.956,0,0,0-1.425.567A2.245,2.245,0,0,0,302.25,245.671Z"/>
      <path d="M309.428,250v-1.4h1.4V250a2.491,2.491,0,0,1-.273,1.248,1.779,1.779,0,0,1-.868.734l-.342-.526a1.167,1.167,0,0,0,.574-.5,2.146,2.146,0,0,0,.2-.953Z"/>
      <path d="M316.394,247.831l1.216-.191a1.706,1.706,0,0,0,.571,1.121,1.988,1.988,0,0,0,1.309.389,1.924,1.924,0,0,0,1.258-.345,1.033,1.033,0,0,0,.41-.81.745.745,0,0,0-.362-.656,5.284,5.284,0,0,0-1.258-.417,11.49,11.49,0,0,1-1.876-.592,1.787,1.787,0,0,1-1.063-1.664,1.864,1.864,0,0,1,.222-.9,1.972,1.972,0,0,1,.6-.688,2.538,2.538,0,0,1,.782-.359,3.726,3.726,0,0,1,1.063-.147,4.206,4.206,0,0,1,1.5.246,2.048,2.048,0,0,1,.954.666,2.617,2.617,0,0,1,.423,1.125l-1.2.164a1.313,1.313,0,0,0-.475-.875,1.741,1.741,0,0,0-1.111-.314,2.019,2.019,0,0,0-1.21.28.816.816,0,0,0-.362.656.679.679,0,0,0,.15.431,1.08,1.08,0,0,0,.472.328c.123.045.486.151,1.087.315a15.267,15.267,0,0,1,1.822.57,1.84,1.84,0,0,1,.81.647,1.8,1.8,0,0,1,.294,1.052,2.063,2.063,0,0,1-.359,1.158,2.316,2.316,0,0,1-1.036.842,3.771,3.771,0,0,1-1.531.3,3.407,3.407,0,0,1-2.157-.588A2.73,2.73,0,0,1,316.394,247.831Z"/>
      <path d="M328.623,249.1a4.575,4.575,0,0,1-1.316.82,3.812,3.812,0,0,1-1.357.239,2.645,2.645,0,0,1-1.839-.584,1.933,1.933,0,0,1-.642-1.494,2.018,2.018,0,0,1,.878-1.682,3,3,0,0,1,.885-.4,8.892,8.892,0,0,1,1.094-.185,11.314,11.314,0,0,0,2.195-.423c0-.168.006-.276.006-.322a1.359,1.359,0,0,0-.348-1.059,2.062,2.062,0,0,0-1.4-.417,2.177,2.177,0,0,0-1.281.3,1.864,1.864,0,0,0-.612,1.078l-1.2-.164a2.965,2.965,0,0,1,.54-1.247,2.359,2.359,0,0,1,1.087-.733,4.869,4.869,0,0,1,1.647-.256,4.332,4.332,0,0,1,1.511.219,1.982,1.982,0,0,1,.854.551,1.934,1.934,0,0,1,.383.837,6.913,6.913,0,0,1,.062,1.134v1.641a17.571,17.571,0,0,0,.078,2.171,2.765,2.765,0,0,0,.311.871h-1.285A2.642,2.642,0,0,1,328.623,249.1Zm-.1-2.749a9.02,9.02,0,0,1-2.01.465,4.758,4.758,0,0,0-1.073.246,1.072,1.072,0,0,0-.486.4,1.087,1.087,0,0,0,.2,1.405,1.6,1.6,0,0,0,1.09.328,2.532,2.532,0,0,0,1.265-.311,1.912,1.912,0,0,0,.813-.851,2.955,2.955,0,0,0,.2-1.23Z"/>
      <path d="M333.688,250l-2.761-7.26h1.3l1.558,4.348q.253.7.465,1.463.163-.575.458-1.381l1.613-4.43h1.265L334.837,250Z"/>
      <path d="M343.642,247.66l1.271.157a3.1,3.1,0,0,1-1.114,1.73,3.777,3.777,0,0,1-4.6-.365,3.838,3.838,0,0,1-.933-2.752,4.011,4.011,0,0,1,.943-2.844,3.2,3.2,0,0,1,2.447-1.012,3.1,3.1,0,0,1,2.379.991,3.942,3.942,0,0,1,.923,2.789c0,.074,0,.183-.007.329h-5.414a2.791,2.791,0,0,0,.677,1.832,2.018,2.018,0,0,0,1.518.635,1.888,1.888,0,0,0,1.155-.355A2.355,2.355,0,0,0,343.642,247.66Zm-4.04-1.989h4.053a2.449,2.449,0,0,0-.465-1.374,1.881,1.881,0,0,0-1.524-.711,1.955,1.955,0,0,0-1.425.567A2.241,2.241,0,0,0,339.6,245.671Z"/>
      <path d="M356.076,248.815a4.175,4.175,0,0,1-1.326,1.015,3.576,3.576,0,0,1-1.552.339,3.068,3.068,0,0,1-2.44-1.039,2.827,2.827,0,0,1-.732-1.894,2.616,2.616,0,0,1,.6-1.677,4.98,4.98,0,0,1,1.787-1.317,5.994,5.994,0,0,1-.9-1.264,2.212,2.212,0,0,1-.226-.937,2.083,2.083,0,0,1,.708-1.568,2.486,2.486,0,0,1,1.78-.667,2.321,2.321,0,0,1,1.679.629,2.022,2.022,0,0,1,.653,1.51q0,1.43-1.894,2.441l1.8,2.29a5.637,5.637,0,0,0,.478-1.395l1.279.274a6.972,6.972,0,0,1-.889,2.16,7.141,7.141,0,0,0,1.565,1.538l-.827.977A7.166,7.166,0,0,1,356.076,248.815Zm-.772-.97-2.256-2.8a4.322,4.322,0,0,0-1.347,1.1,1.785,1.785,0,0,0-.348,1.009,2.146,2.146,0,0,0,.485,1.265,1.61,1.61,0,0,0,1.374.656,2.263,2.263,0,0,0,1.145-.346A2.775,2.775,0,0,0,355.3,247.845Zm-1.73-4.252a3.3,3.3,0,0,0,1.036-.827,1.394,1.394,0,0,0,.236-.787,1.131,1.131,0,0,0-.325-.836,1.1,1.1,0,0,0-.81-.326,1.145,1.145,0,0,0-.831.322,1.053,1.053,0,0,0-.331.786,1.171,1.171,0,0,0,.119.489,2.6,2.6,0,0,0,.359.543Z"/>
      <path d="M268.627,269.58V259.538h1.122v.943a2.785,2.785,0,0,1,.895-.831,2.479,2.479,0,0,1,1.21-.276,2.862,2.862,0,0,1,1.641.479,2.934,2.934,0,0,1,1.073,1.35,4.913,4.913,0,0,1,.362,1.91,4.845,4.845,0,0,1-.4,2.006,3.043,3.043,0,0,1-2.765,1.843,2.319,2.319,0,0,1-1.1-.26,2.493,2.493,0,0,1-.8-.656v3.534Zm1.115-6.371a3.158,3.158,0,0,0,.567,2.071,1.741,1.741,0,0,0,1.374.67,1.778,1.778,0,0,0,1.405-.694,3.289,3.289,0,0,0,.584-2.15,3.212,3.212,0,0,0-.57-2.078,1.719,1.719,0,0,0-1.364-.69,1.773,1.773,0,0,0-1.391.734A3.289,3.289,0,0,0,269.742,263.209Z"/>
      <path d="M281.171,266.8v-1.067a2.656,2.656,0,0,1-2.3,1.231,2.938,2.938,0,0,1-1.2-.246,1.973,1.973,0,0,1-.827-.618,2.326,2.326,0,0,1-.38-.913,6.268,6.268,0,0,1-.075-1.149v-4.5h1.231v4.026a7.183,7.183,0,0,0,.075,1.3,1.282,1.282,0,0,0,.492.762,1.518,1.518,0,0,0,.93.277,2.027,2.027,0,0,0,1.039-.283,1.573,1.573,0,0,0,.687-.773,3.882,3.882,0,0,0,.2-1.418v-3.89h1.23v7.26Z"/>
      <path d="M285.334,266.8h-1.141V256.776h1.23v3.576a2.433,2.433,0,0,1,1.99-.978,3.035,3.035,0,0,1,1.268.271,2.577,2.577,0,0,1,.984.757,3.69,3.69,0,0,1,.6,1.18,4.863,4.863,0,0,1,.219,1.477,4.146,4.146,0,0,1-.923,2.884,2.884,2.884,0,0,1-2.215,1.019,2.313,2.313,0,0,1-2.017-1.073Zm-.013-3.685a3.767,3.767,0,0,0,.355,1.887,1.759,1.759,0,0,0,2.967.25,3.187,3.187,0,0,0,.588-2.089,3.237,3.237,0,0,0-.564-2.1,1.716,1.716,0,0,0-1.364-.677,1.77,1.77,0,0,0-1.394.7A3.078,3.078,0,0,0,285.321,263.113Z"/>
      <path d="M291.958,266.8V256.776h1.231V266.8Z"/>
      <path d="M295.1,258.191v-1.415h1.23v1.415Zm0,8.607v-7.26h1.23v7.26Z"/>
      <path d="M297.714,264.631l1.217-.192a1.7,1.7,0,0,0,.571,1.122,1.992,1.992,0,0,0,1.309.389,1.926,1.926,0,0,0,1.258-.345,1.033,1.033,0,0,0,.41-.81.749.749,0,0,0-.362-.656,5.333,5.333,0,0,0-1.258-.417,11.569,11.569,0,0,1-1.877-.591,1.8,1.8,0,0,1-1.063-1.665,1.881,1.881,0,0,1,.223-.9,1.993,1.993,0,0,1,.605-.686,2.515,2.515,0,0,1,.782-.359,3.726,3.726,0,0,1,1.063-.147,4.206,4.206,0,0,1,1.5.246,2.037,2.037,0,0,1,.953.667,2.588,2.588,0,0,1,.424,1.124l-1.2.164a1.317,1.317,0,0,0-.475-.875,1.735,1.735,0,0,0-1.111-.314,2.012,2.012,0,0,0-1.21.28.816.816,0,0,0-.362.656.681.681,0,0,0,.15.431,1.09,1.09,0,0,0,.472.328c.123.046.485.15,1.087.315a14.97,14.97,0,0,1,1.822.571,1.843,1.843,0,0,1,.81.645,1.805,1.805,0,0,1,.294,1.053,2.071,2.071,0,0,1-.359,1.159,2.313,2.313,0,0,1-1.036.84,3.754,3.754,0,0,1-1.531.3,3.413,3.413,0,0,1-2.157-.588A2.74,2.74,0,0,1,297.714,264.631Z"/>
      <path d="M305.207,266.8V256.776h1.23v3.6a2.75,2.75,0,0,1,2.174-1,2.941,2.941,0,0,1,1.4.317,1.873,1.873,0,0,1,.851.879,4.044,4.044,0,0,1,.257,1.627v4.6h-1.231v-4.6a1.9,1.9,0,0,0-.4-1.343,1.486,1.486,0,0,0-1.131-.42,1.994,1.994,0,0,0-1.029.283,1.6,1.6,0,0,0-.687.769,3.531,3.531,0,0,0-.2,1.34V266.8Z"/>
      <path d="M321.62,264.139l1.21.157a3.138,3.138,0,0,1-1.016,1.958,2.949,2.949,0,0,1-2.006.708,3.118,3.118,0,0,1-2.4-.974,3.953,3.953,0,0,1-.906-2.793,5.05,5.05,0,0,1,.39-2.057,2.724,2.724,0,0,1,1.186-1.324,3.527,3.527,0,0,1,1.733-.44,3.007,3.007,0,0,1,1.935.6,2.74,2.74,0,0,1,.963,1.7l-1.2.184a1.98,1.98,0,0,0-.605-1.1,1.565,1.565,0,0,0-1.049-.369,1.9,1.9,0,0,0-1.511.667,3.16,3.16,0,0,0-.581,2.108,3.265,3.265,0,0,0,.561,2.126,1.822,1.822,0,0,0,1.462.663,1.72,1.72,0,0,0,1.21-.444A2.207,2.207,0,0,0,321.62,264.139Z"/>
      <path d="M323.424,263.168a3.743,3.743,0,0,1,1.121-2.987,3.38,3.38,0,0,1,2.284-.807,3.256,3.256,0,0,1,2.447.981,3.733,3.733,0,0,1,.95,2.71,4.808,4.808,0,0,1-.42,2.2,2.981,2.981,0,0,1-1.224,1.248,3.566,3.566,0,0,1-1.753.444,3.261,3.261,0,0,1-2.465-.978A3.905,3.905,0,0,1,323.424,263.168Zm1.265,0a3.093,3.093,0,0,0,.608,2.088,2.026,2.026,0,0,0,3.056,0,3.163,3.163,0,0,0,.608-2.126,3.006,3.006,0,0,0-.611-2.041,2.031,2.031,0,0,0-3.053,0A3.08,3.08,0,0,0,324.689,263.168Z"/>
      <path d="M331.668,266.8v-7.26h1.108v1.032a2.61,2.61,0,0,1,2.31-1.2,3.053,3.053,0,0,1,1.207.235,1.906,1.906,0,0,1,.824.62,2.378,2.378,0,0,1,.383.909,7.1,7.1,0,0,1,.068,1.2V266.8h-1.231v-4.416a3.306,3.306,0,0,0-.143-1.124,1.191,1.191,0,0,0-.509-.6,1.631,1.631,0,0,0-.858-.222,2,2,0,0,0-1.357.5,2.46,2.46,0,0,0-.571,1.894V266.8Z"/>
      <path d="M342.141,265.7l.178,1.087a4.558,4.558,0,0,1-.93.11,2.117,2.117,0,0,1-1.039-.212,1.188,1.188,0,0,1-.519-.557,4.383,4.383,0,0,1-.151-1.453V260.5h-.9v-.957h.9v-1.8L340.9,257v2.536h1.237v.957H340.9v4.245a2.122,2.122,0,0,0,.065.677.5.5,0,0,0,.212.239.82.82,0,0,0,.42.089A3.982,3.982,0,0,0,342.141,265.7Z"/>
      <path d="M348.314,264.46l1.271.157a3.1,3.1,0,0,1-1.114,1.73,3.774,3.774,0,0,1-4.6-.367,3.829,3.829,0,0,1-.933-2.751,4.015,4.015,0,0,1,.943-2.843,3.193,3.193,0,0,1,2.448-1.012,3.109,3.109,0,0,1,2.379.991,3.937,3.937,0,0,1,.922,2.789c0,.073,0,.182-.006.328h-5.414a2.789,2.789,0,0,0,.676,1.832,2.016,2.016,0,0,0,1.518.636,1.882,1.882,0,0,0,1.155-.355A2.369,2.369,0,0,0,348.314,264.46Zm-4.04-1.989h4.054a2.458,2.458,0,0,0-.465-1.374,1.886,1.886,0,0,0-1.525-.711,1.951,1.951,0,0,0-1.425.567A2.249,2.249,0,0,0,344.274,262.471Z"/>
      <path d="M351.13,266.8v-7.26h1.108v1.032a2.61,2.61,0,0,1,2.31-1.2,3.053,3.053,0,0,1,1.207.235,1.912,1.912,0,0,1,.824.62,2.361,2.361,0,0,1,.382.909,6.968,6.968,0,0,1,.069,1.2V266.8H355.8v-4.416a3.332,3.332,0,0,0-.143-1.124,1.189,1.189,0,0,0-.51-.6,1.625,1.625,0,0,0-.857-.222,2,2,0,0,0-1.357.5,2.46,2.46,0,0,0-.571,1.894V266.8Z"/>
      <path d="M361.6,265.7l.178,1.087a4.558,4.558,0,0,1-.93.11,2.117,2.117,0,0,1-1.039-.212,1.2,1.2,0,0,1-.52-.557,4.42,4.42,0,0,1-.15-1.453V260.5h-.9v-.957h.9v-1.8l1.224-.738v2.536H361.6v.957h-1.237v4.245a2.122,2.122,0,0,0,.065.677.5.5,0,0,0,.212.239.82.82,0,0,0,.42.089A3.982,3.982,0,0,0,361.6,265.7Z"/>
    </g>
    <g>
      <path d="M291.024,120.954q.759.222,1.75.45a9.359,9.359,0,0,0,2.13.231,4.174,4.174,0,0,0,1.75-.321,1.2,1.2,0,0,0,.69-1.2,1.772,1.772,0,0,0-.49-1.18,7.356,7.356,0,0,0-1.24-1.1q-.75-.539-1.61-1.1a17.615,17.615,0,0,1-1.61-1.179,6.731,6.731,0,0,1-1.24-1.321,2.653,2.653,0,0,1-.49-1.56,2.747,2.747,0,0,1,.39-1.51,2.93,2.93,0,0,1,1.05-.98,4.99,4.99,0,0,1,1.56-.53,10.936,10.936,0,0,1,1.92-.16q.44,0,.92.029c.32.021.63.044.93.071s.576.06.83.1.473.079.66.12l-.18,1.6q-.3-.06-.7-.12c-.267-.04-.544-.076-.83-.11s-.573-.06-.86-.08-.543-.03-.77-.03q-.6,0-1.1.05a2.838,2.838,0,0,0-.86.21,1.2,1.2,0,0,0-.76,1.2,1.482,1.482,0,0,0,.49,1.04,7.884,7.884,0,0,0,1.23,1q.739.5,1.6,1.05a13.955,13.955,0,0,1,1.6,1.19,6.439,6.439,0,0,1,1.23,1.411,3.123,3.123,0,0,1,.49,1.709,3.27,3.27,0,0,1-.33,1.531,2.672,2.672,0,0,1-.93,1.019,4.1,4.1,0,0,1-1.45.56,9.577,9.577,0,0,1-1.87.171,11.107,11.107,0,0,1-2.33-.231q-1.071-.229-1.83-.47Z"/>
      <path d="M302.424,122.994V108.4h2.02v5.08c.387-.08.79-.155,1.21-.221a8.047,8.047,0,0,1,1.25-.1,7.061,7.061,0,0,1,1.58.17,3.394,3.394,0,0,1,1.28.571,2.842,2.842,0,0,1,.86,1.049,3.632,3.632,0,0,1,.32,1.611v6.439h-2.02v-6.359a2.311,2.311,0,0,0-.17-.941,1.443,1.443,0,0,0-.48-.6,1.951,1.951,0,0,0-.72-.31,4.212,4.212,0,0,0-.89-.09,7.132,7.132,0,0,0-1.16.1q-.6.1-1.06.2v8Z"/>
      <path d="M321.364,122.514q-.76.221-1.83.451a10.982,10.982,0,0,1-2.29.229,7.167,7.167,0,0,1-1.56-.16,3.455,3.455,0,0,1-1.25-.53,2.551,2.551,0,0,1-.83-.97,3.334,3.334,0,0,1-.3-1.5,2.718,2.718,0,0,1,.33-1.4,2.625,2.625,0,0,1,.87-.9,3.675,3.675,0,0,1,1.26-.48,7.871,7.871,0,0,1,1.5-.14c.426,0,.81.017,1.15.05s.65.077.93.13v-.94a1.393,1.393,0,0,0-.65-1.35,3.417,3.417,0,0,0-1.63-.35,8.612,8.612,0,0,0-1.4.119q-.72.121-1.28.241l-.14-1.52c.426-.094.9-.174,1.41-.24a11.827,11.827,0,0,1,1.51-.1,8.33,8.33,0,0,1,1.61.151,3.748,3.748,0,0,1,1.34.519,2.767,2.767,0,0,1,.91.97,3.015,3.015,0,0,1,.34,1.5Zm-2.02-3.76q-.42-.08-.92-.13t-1.02-.05a5.326,5.326,0,0,0-.83.061,1.889,1.889,0,0,0-.68.229,1.229,1.229,0,0,0-.46.48,1.671,1.671,0,0,0-.17.81,1.349,1.349,0,0,0,.59,1.27,2.748,2.748,0,0,0,1.43.349,7.489,7.489,0,0,0,1.13-.079q.529-.079.93-.18Z"/>
      <path d="M324.484,122.994v-9.1a15.577,15.577,0,0,1,2.49-.551,20.378,20.378,0,0,1,2.75-.17v1.6c-.147-.011-.3-.019-.46-.019h-.48a9.43,9.43,0,0,0-1.24.08,8.141,8.141,0,0,0-1.04.2v7.96Z"/>
      <path d="M332.824,118.754a5.065,5.065,0,0,0,.179,1.269,2.091,2.091,0,0,0,.52.911,2.255,2.255,0,0,0,.96.541,5.438,5.438,0,0,0,1.52.179c.214,0,.447-.009.7-.03s.5-.05.75-.09.48-.08.7-.12.4-.08.55-.12l.18,1.479a12.465,12.465,0,0,1-1.41.291,11,11,0,0,1-1.69.13,9.165,9.165,0,0,1-2.08-.219,3.686,3.686,0,0,1-1.6-.791,3.741,3.741,0,0,1-1.03-1.539,7.012,7.012,0,0,1-.37-2.471,7.752,7.752,0,0,1,.31-2.36,3.853,3.853,0,0,1,.89-1.55,3.347,3.347,0,0,1,1.409-.85,6.188,6.188,0,0,1,1.851-.26,4.828,4.828,0,0,1,1.76.29,3.351,3.351,0,0,1,1.23.81,3.213,3.213,0,0,1,.72,1.26,5.6,5.6,0,0,1,.23,1.66v1.58Zm4.34-1.4q0-2.779-2.06-2.78a1.934,1.934,0,0,0-1.66.7,3.856,3.856,0,0,0-.6,2.081Z"/>
    </g>
    <g>
      <path d="M314.859,226.333c.23-3.425.94-16.878-1.072-25.614" fill="none" stroke="#000" stroke-miterlimit="10"/>
      <polygon points="318.429 203.133 317.852 203.951 313.827 201.104 311.281 205.327 310.424 204.809 313.526 199.666 318.429 203.133"/>
    </g>
    <g>
      <path d="M187.859,226.333c.23-3.425.94-16.878-1.072-25.614" fill="none" stroke="#000" stroke-miterlimit="10"/>
      <polygon points="191.429 203.133 190.852 203.951 186.827 201.104 184.281 205.327 183.424 204.809 186.526 199.666 191.429 203.133"/>
    </g>
    <path d="M334.336,160.961l-17.827,17.668V167.543a26.657,26.657,0,0,0-6.72,1.715,25.042,25.042,0,0,0-5.763,3.23,23.645,23.645,0,0,0-4.526,4.465,20.553,20.553,0,0,0-3.011,5.424,18.8,18.8,0,0,1-1.236-6.7,19.223,19.223,0,0,1,1.615-7.8,21.426,21.426,0,0,1,4.467-6.561,24.893,24.893,0,0,1,6.739-4.785,26.233,26.233,0,0,1,8.435-2.472V143.295ZM319.7,156.934l-2.791.318a23.2,23.2,0,0,0-6.461,1.717,21.738,21.738,0,0,0-5.5,3.369,19.244,19.244,0,0,0-4.067,4.746,16.786,16.786,0,0,0-2.193,5.883,26.723,26.723,0,0,1,7.716-5.725,30.378,30.378,0,0,1,9.711-2.89l3.589-.44v7.061l10.09-10.012-10.09-10.01Z" fill="#5b5d5e"/>
  </g>
  <g>
    <g>
      <path d="M388.94,239.976h1.326v5.79a6.845,6.845,0,0,1-.342,2.4,2.927,2.927,0,0,1-1.234,1.446,4.371,4.371,0,0,1-2.341.557,4.81,4.81,0,0,1-2.3-.485,2.771,2.771,0,0,1-1.278-1.405,6.7,6.7,0,0,1-.383-2.512v-5.79h1.326v5.783a5.661,5.661,0,0,0,.243,1.925,1.844,1.844,0,0,0,.834.953,2.9,2.9,0,0,0,1.446.335,2.764,2.764,0,0,0,2.085-.663,3.824,3.824,0,0,0,.622-2.55Z"/>
      <path d="M391.825,247.83l1.217-.191a1.7,1.7,0,0,0,.57,1.121,1.988,1.988,0,0,0,1.309.389,1.93,1.93,0,0,0,1.258-.344,1.032,1.032,0,0,0,.41-.811.747.747,0,0,0-.362-.656,5.364,5.364,0,0,0-1.258-.417,11.514,11.514,0,0,1-1.876-.591,1.79,1.79,0,0,1-1.063-1.665,1.867,1.867,0,0,1,.222-.9,1.991,1.991,0,0,1,.605-.688,2.511,2.511,0,0,1,.783-.358,3.681,3.681,0,0,1,1.063-.148,4.2,4.2,0,0,1,1.5.246,2.042,2.042,0,0,1,.954.667,2.621,2.621,0,0,1,.424,1.124l-1.2.164a1.312,1.312,0,0,0-.475-.875,1.74,1.74,0,0,0-1.11-.314,2.017,2.017,0,0,0-1.21.28.818.818,0,0,0-.363.656.678.678,0,0,0,.151.431,1.07,1.07,0,0,0,.471.328q.184.069,1.087.315a15.033,15.033,0,0,1,1.822.571,1.838,1.838,0,0,1,.81.646,1.8,1.8,0,0,1,.294,1.052,2.069,2.069,0,0,1-.359,1.159,2.309,2.309,0,0,1-1.036.841,3.754,3.754,0,0,1-1.531.3,3.407,3.407,0,0,1-2.157-.588A2.727,2.727,0,0,1,391.825,247.83Z"/>
      <path d="M404.287,247.659l1.271.157a3.1,3.1,0,0,1-1.114,1.73,3.777,3.777,0,0,1-4.6-.365,3.837,3.837,0,0,1-.933-2.752,4.013,4.013,0,0,1,.943-2.844,3.2,3.2,0,0,1,2.447-1.012,3.106,3.106,0,0,1,2.379.991,3.939,3.939,0,0,1,.923,2.79c0,.073,0,.182-.007.328h-5.414a2.791,2.791,0,0,0,.677,1.832,2.015,2.015,0,0,0,1.518.635,1.882,1.882,0,0,0,1.155-.355A2.355,2.355,0,0,0,404.287,247.659Zm-4.04-1.989H404.3a2.452,2.452,0,0,0-.465-1.374,1.884,1.884,0,0,0-1.524-.711,1.955,1.955,0,0,0-1.425.567A2.245,2.245,0,0,0,400.247,245.67Z"/>
      <path d="M407.089,250v-7.26H408.2v1.1a3,3,0,0,1,.782-1.019,1.37,1.37,0,0,1,.79-.246,2.406,2.406,0,0,1,1.265.4l-.424,1.141a1.768,1.768,0,0,0-.9-.266,1.169,1.169,0,0,0-.725.243,1.311,1.311,0,0,0-.458.673,4.78,4.78,0,0,0-.2,1.435V250Z"/>
      <path d="M420.392,249.1a4.562,4.562,0,0,1-1.316.82,3.79,3.79,0,0,1-1.357.239,2.64,2.64,0,0,1-1.839-.584,1.93,1.93,0,0,1-.642-1.494,2.022,2.022,0,0,1,.878-1.682A3.029,3.029,0,0,1,417,246a9.09,9.09,0,0,1,1.094-.185,11.237,11.237,0,0,0,2.195-.423c0-.168.006-.276.006-.322a1.359,1.359,0,0,0-.348-1.059,2.062,2.062,0,0,0-1.4-.417,2.171,2.171,0,0,0-1.281.3,1.858,1.858,0,0,0-.612,1.077l-1.2-.164a2.965,2.965,0,0,1,.54-1.247,2.356,2.356,0,0,1,1.087-.732,4.844,4.844,0,0,1,1.647-.257,4.355,4.355,0,0,1,1.511.219,1.982,1.982,0,0,1,.854.551,1.934,1.934,0,0,1,.383.837,6.913,6.913,0,0,1,.062,1.134v1.641a17.56,17.56,0,0,0,.078,2.171,2.765,2.765,0,0,0,.311.871h-1.285A2.636,2.636,0,0,1,420.392,249.1Zm-.1-2.748a9.029,9.029,0,0,1-2.01.464,4.758,4.758,0,0,0-1.073.246,1.074,1.074,0,0,0-.486.4,1.086,1.086,0,0,0,.2,1.4,1.6,1.6,0,0,0,1.09.328,2.542,2.542,0,0,0,1.265-.31,1.914,1.914,0,0,0,.813-.852,2.949,2.949,0,0,0,.2-1.23Z"/>
      <path d="M422.949,247.83l1.217-.191a1.7,1.7,0,0,0,.57,1.121,1.988,1.988,0,0,0,1.309.389,1.93,1.93,0,0,0,1.258-.344,1.032,1.032,0,0,0,.41-.811.747.747,0,0,0-.362-.656,5.364,5.364,0,0,0-1.258-.417,11.514,11.514,0,0,1-1.876-.591,1.79,1.79,0,0,1-1.063-1.665,1.867,1.867,0,0,1,.222-.9,1.991,1.991,0,0,1,.605-.688,2.511,2.511,0,0,1,.783-.358,3.681,3.681,0,0,1,1.063-.148,4.2,4.2,0,0,1,1.5.246,2.042,2.042,0,0,1,.954.667,2.621,2.621,0,0,1,.424,1.124l-1.2.164a1.312,1.312,0,0,0-.475-.875,1.74,1.74,0,0,0-1.11-.314,2.017,2.017,0,0,0-1.21.28.818.818,0,0,0-.363.656.678.678,0,0,0,.151.431,1.07,1.07,0,0,0,.471.328q.185.069,1.087.315a15.033,15.033,0,0,1,1.822.571,1.838,1.838,0,0,1,.81.646,1.8,1.8,0,0,1,.294,1.052,2.069,2.069,0,0,1-.359,1.159,2.309,2.309,0,0,1-1.036.841,3.754,3.754,0,0,1-1.531.3,3.4,3.4,0,0,1-2.156-.588A2.724,2.724,0,0,1,422.949,247.83Z"/>
      <path d="M429.949,247.83l1.217-.191a1.7,1.7,0,0,0,.57,1.121,1.988,1.988,0,0,0,1.309.389,1.93,1.93,0,0,0,1.258-.344,1.032,1.032,0,0,0,.41-.811.747.747,0,0,0-.362-.656,5.364,5.364,0,0,0-1.258-.417,11.514,11.514,0,0,1-1.876-.591,1.79,1.79,0,0,1-1.063-1.665,1.867,1.867,0,0,1,.222-.9,1.991,1.991,0,0,1,.605-.688,2.511,2.511,0,0,1,.783-.358,3.681,3.681,0,0,1,1.063-.148,4.2,4.2,0,0,1,1.5.246,2.042,2.042,0,0,1,.954.667,2.621,2.621,0,0,1,.424,1.124l-1.2.164a1.312,1.312,0,0,0-.475-.875,1.74,1.74,0,0,0-1.11-.314,2.017,2.017,0,0,0-1.21.28.818.818,0,0,0-.363.656.678.678,0,0,0,.151.431,1.07,1.07,0,0,0,.471.328q.185.069,1.087.315a15.033,15.033,0,0,1,1.822.571,1.838,1.838,0,0,1,.81.646,1.8,1.8,0,0,1,.294,1.052,2.069,2.069,0,0,1-.359,1.159,2.309,2.309,0,0,1-1.036.841,3.754,3.754,0,0,1-1.531.3,3.4,3.4,0,0,1-2.156-.588A2.724,2.724,0,0,1,429.949,247.83Z"/>
      <path d="M437.448,241.391v-1.415h1.23v1.415Zm0,8.606v-7.26h1.23V250Z"/>
      <path d="M440.059,247.83l1.217-.191a1.7,1.7,0,0,0,.571,1.121,1.987,1.987,0,0,0,1.309.389,1.932,1.932,0,0,0,1.258-.344,1.035,1.035,0,0,0,.41-.811.748.748,0,0,0-.363-.656,5.349,5.349,0,0,0-1.257-.417,11.535,11.535,0,0,1-1.877-.591,1.79,1.79,0,0,1-1.063-1.665,1.867,1.867,0,0,1,.222-.9,1.991,1.991,0,0,1,.605-.688,2.522,2.522,0,0,1,.783-.358,3.691,3.691,0,0,1,1.063-.148,4.206,4.206,0,0,1,1.5.246,2.044,2.044,0,0,1,.953.667,2.621,2.621,0,0,1,.424,1.124l-1.2.164a1.32,1.32,0,0,0-.475-.875,1.743,1.743,0,0,0-1.111-.314,2.019,2.019,0,0,0-1.21.28.816.816,0,0,0-.362.656.677.677,0,0,0,.15.431,1.068,1.068,0,0,0,.472.328q.184.069,1.087.315a15.062,15.062,0,0,1,1.821.571,1.827,1.827,0,0,1,.81.646,1.8,1.8,0,0,1,.294,1.052,2.061,2.061,0,0,1-.359,1.159,2.311,2.311,0,0,1-1.035.841,3.758,3.758,0,0,1-1.531.3,3.4,3.4,0,0,1-2.157-.588A2.728,2.728,0,0,1,440.059,247.83Z"/>
      <path d="M450.238,248.9l.178,1.087a4.5,4.5,0,0,1-.93.11,2.106,2.106,0,0,1-1.039-.212,1.186,1.186,0,0,1-.52-.557,4.42,4.42,0,0,1-.15-1.453v-4.177h-.9v-.957h.9v-1.8L449,240.2v2.536h1.238v.957H449v4.245a2.145,2.145,0,0,0,.065.677.506.506,0,0,0,.212.239.814.814,0,0,0,.421.089A3.838,3.838,0,0,0,450.238,248.9Z"/>
      <path d="M456.178,249.1a4.562,4.562,0,0,1-1.316.82,3.79,3.79,0,0,1-1.357.239,2.635,2.635,0,0,1-1.838-.584,1.927,1.927,0,0,1-.643-1.494,2.029,2.029,0,0,1,.878-1.682,3.035,3.035,0,0,1,.886-.4,9.066,9.066,0,0,1,1.093-.185,11.237,11.237,0,0,0,2.2-.423c0-.168.007-.276.007-.322a1.359,1.359,0,0,0-.349-1.059,2.061,2.061,0,0,0-1.4-.417,2.173,2.173,0,0,0-1.282.3,1.858,1.858,0,0,0-.612,1.077l-1.2-.164a2.965,2.965,0,0,1,.54-1.247,2.356,2.356,0,0,1,1.087-.732,4.844,4.844,0,0,1,1.647-.257,4.355,4.355,0,0,1,1.511.219,1.982,1.982,0,0,1,.854.551,1.911,1.911,0,0,1,.383.837,6.913,6.913,0,0,1,.062,1.134v1.641a17.56,17.56,0,0,0,.078,2.171,2.765,2.765,0,0,0,.311.871h-1.285A2.636,2.636,0,0,1,456.178,249.1Zm-.1-2.748a9.029,9.029,0,0,1-2.01.464,4.758,4.758,0,0,0-1.073.246,1.074,1.074,0,0,0-.486.4,1.086,1.086,0,0,0,.2,1.4,1.6,1.6,0,0,0,1.09.328,2.542,2.542,0,0,0,1.265-.31,1.914,1.914,0,0,0,.813-.852,2.949,2.949,0,0,0,.2-1.23Z"/>
      <path d="M459.227,250v-7.26h1.107v1.033a2.613,2.613,0,0,1,2.311-1.2,3.019,3.019,0,0,1,1.207.237,1.9,1.9,0,0,1,.823.618,2.385,2.385,0,0,1,.383.909,7.013,7.013,0,0,1,.068,1.2V250H463.9v-4.416a3.3,3.3,0,0,0-.144-1.124,1.176,1.176,0,0,0-.509-.595,1.619,1.619,0,0,0-.858-.222,2,2,0,0,0-1.357.5,2.464,2.464,0,0,0-.57,1.893V250Z"/>
      <path d="M471.75,247.338l1.21.157a3.137,3.137,0,0,1-1.015,1.959,2.953,2.953,0,0,1-2.006.707,3.117,3.117,0,0,1-2.4-.973,3.954,3.954,0,0,1-.906-2.793,5.051,5.051,0,0,1,.39-2.058,2.715,2.715,0,0,1,1.186-1.322,3.518,3.518,0,0,1,1.733-.442,3,3,0,0,1,1.934.6,2.736,2.736,0,0,1,.964,1.7l-1.2.185a1.983,1.983,0,0,0-.605-1.1,1.566,1.566,0,0,0-1.049-.369,1.911,1.911,0,0,0-1.511.667,3.164,3.164,0,0,0-.581,2.108,3.272,3.272,0,0,0,.56,2.126,1.823,1.823,0,0,0,1.463.663,1.72,1.72,0,0,0,1.21-.444A2.2,2.2,0,0,0,471.75,247.338Z"/>
      <path d="M478.983,247.659l1.271.157a3.092,3.092,0,0,1-1.114,1.73,3.777,3.777,0,0,1-4.6-.365,3.837,3.837,0,0,1-.933-2.752,4.013,4.013,0,0,1,.943-2.844,3.2,3.2,0,0,1,2.448-1.012,3.109,3.109,0,0,1,2.379.991,3.943,3.943,0,0,1,.922,2.79c0,.073,0,.182-.006.328h-5.414a2.791,2.791,0,0,0,.676,1.832,2.015,2.015,0,0,0,1.518.635,1.882,1.882,0,0,0,1.155-.355A2.355,2.355,0,0,0,478.983,247.659Zm-4.04-1.989H479a2.467,2.467,0,0,0-.465-1.374,1.886,1.886,0,0,0-1.525-.711,1.955,1.955,0,0,0-1.425.567A2.249,2.249,0,0,0,474.943,245.67Z"/>
      <path d="M482.121,250v-1.4h1.4V250a2.491,2.491,0,0,1-.273,1.248,1.776,1.776,0,0,1-.869.734l-.341-.526a1.166,1.166,0,0,0,.574-.5,2.151,2.151,0,0,0,.2-.954Z"/>
      <path d="M489.086,247.83l1.217-.191a1.7,1.7,0,0,0,.571,1.121,1.988,1.988,0,0,0,1.309.389,1.932,1.932,0,0,0,1.258-.344,1.035,1.035,0,0,0,.41-.811.749.749,0,0,0-.362-.656,5.382,5.382,0,0,0-1.258-.417,11.569,11.569,0,0,1-1.877-.591,1.791,1.791,0,0,1-1.062-1.665,1.867,1.867,0,0,1,.222-.9,1.981,1.981,0,0,1,.605-.688,2.516,2.516,0,0,1,.782-.358,3.691,3.691,0,0,1,1.063-.148,4.206,4.206,0,0,1,1.5.246,2.039,2.039,0,0,1,.953.667,2.6,2.6,0,0,1,.424,1.124l-1.2.164a1.32,1.32,0,0,0-.475-.875,1.741,1.741,0,0,0-1.111-.314,2.019,2.019,0,0,0-1.21.28.819.819,0,0,0-.362.656.677.677,0,0,0,.15.431,1.074,1.074,0,0,0,.472.328q.185.069,1.087.315a15.093,15.093,0,0,1,1.822.571,1.838,1.838,0,0,1,.81.646,1.8,1.8,0,0,1,.294,1.052,2.069,2.069,0,0,1-.359,1.159,2.314,2.314,0,0,1-1.036.841,3.754,3.754,0,0,1-1.531.3,3.407,3.407,0,0,1-2.157-.588A2.733,2.733,0,0,1,489.086,247.83Z"/>
      <path d="M501.336,250v-1.066a2.657,2.657,0,0,1-2.3,1.23,2.938,2.938,0,0,1-1.2-.246,1.973,1.973,0,0,1-.827-.618,2.326,2.326,0,0,1-.38-.913,6.26,6.26,0,0,1-.075-1.149v-4.5h1.231v4.027a7.2,7.2,0,0,0,.075,1.3,1.285,1.285,0,0,0,.492.762,1.524,1.524,0,0,0,.93.277,2.028,2.028,0,0,0,1.039-.284,1.575,1.575,0,0,0,.687-.772,3.888,3.888,0,0,0,.2-1.419v-3.89h1.23V250Z"/>
      <path d="M504.365,252.779V242.737h1.121v.944a2.759,2.759,0,0,1,.895-.83,2.457,2.457,0,0,1,1.21-.278,2.87,2.87,0,0,1,1.641.479,2.939,2.939,0,0,1,1.073,1.35,4.921,4.921,0,0,1,.362,1.911,4.858,4.858,0,0,1-.4,2.006,3.021,3.021,0,0,1-1.163,1.368,2.987,2.987,0,0,1-1.6.474,2.307,2.307,0,0,1-1.1-.26,2.5,2.5,0,0,1-.8-.656v3.534Zm1.114-6.371a3.156,3.156,0,0,0,.567,2.071,1.738,1.738,0,0,0,1.374.67,1.779,1.779,0,0,0,1.4-.693,3.292,3.292,0,0,0,.585-2.15,3.21,3.21,0,0,0-.571-2.078,1.72,1.72,0,0,0-1.364-.691,1.771,1.771,0,0,0-1.391.735A3.291,3.291,0,0,0,505.479,246.408Z"/>
      <path d="M512.151,252.779V242.737h1.121v.944a2.759,2.759,0,0,1,.895-.83,2.457,2.457,0,0,1,1.21-.278,2.87,2.87,0,0,1,1.641.479,2.933,2.933,0,0,1,1.073,1.35,4.922,4.922,0,0,1,.363,1.911,4.858,4.858,0,0,1-.4,2.006,3.025,3.025,0,0,1-1.162,1.368,2.992,2.992,0,0,1-1.6.474,2.3,2.3,0,0,1-1.1-.26,2.5,2.5,0,0,1-.8-.656v3.534Zm1.114-6.371a3.15,3.15,0,0,0,.568,2.071,1.735,1.735,0,0,0,1.374.67,1.778,1.778,0,0,0,1.4-.693,3.292,3.292,0,0,0,.585-2.15,3.21,3.21,0,0,0-.571-2.078,1.719,1.719,0,0,0-1.364-.691,1.771,1.771,0,0,0-1.391.735A3.291,3.291,0,0,0,513.265,246.408Z"/>
      <path d="M519.479,246.367a3.743,3.743,0,0,1,1.121-2.987,3.382,3.382,0,0,1,2.283-.807,3.257,3.257,0,0,1,2.448.982,3.731,3.731,0,0,1,.95,2.71,4.8,4.8,0,0,1-.421,2.205,2.976,2.976,0,0,1-1.223,1.247,3.556,3.556,0,0,1-1.754.444,3.26,3.26,0,0,1-2.464-.977A3.9,3.9,0,0,1,519.479,246.367Zm1.265,0a3.092,3.092,0,0,0,.608,2.089,2.027,2.027,0,0,0,3.056,0,3.168,3.168,0,0,0,.608-2.126,3,3,0,0,0-.612-2.04,2.029,2.029,0,0,0-3.052,0A3.079,3.079,0,0,0,520.744,246.367Z"/>
      <path d="M527.709,250v-7.26h1.108v1.1a3,3,0,0,1,.783-1.019,1.365,1.365,0,0,1,.789-.246,2.4,2.4,0,0,1,1.265.4l-.424,1.141a1.768,1.768,0,0,0-.9-.266,1.171,1.171,0,0,0-.725.243,1.311,1.311,0,0,0-.458.673,4.78,4.78,0,0,0-.2,1.435V250Z"/>
      <path d="M535.072,248.9l.178,1.087a4.5,4.5,0,0,1-.93.11,2.106,2.106,0,0,1-1.039-.212,1.186,1.186,0,0,1-.52-.557,4.42,4.42,0,0,1-.15-1.453v-4.177h-.9v-.957h.9v-1.8l1.223-.738v2.536h1.238v.957h-1.238v4.245a2.145,2.145,0,0,0,.065.677.506.506,0,0,0,.212.239.814.814,0,0,0,.421.089A3.838,3.838,0,0,0,535.072,248.9Z"/>
      <path d="M400,265.614a4.219,4.219,0,0,1-1.326,1.016,3.6,3.6,0,0,1-1.552.338,3.065,3.065,0,0,1-2.44-1.039,2.827,2.827,0,0,1-.732-1.894,2.62,2.62,0,0,1,.6-1.678,5,5,0,0,1,1.788-1.316,5.97,5.97,0,0,1-.9-1.265,2.2,2.2,0,0,1-.226-.936,2.09,2.09,0,0,1,.707-1.569,2.5,2.5,0,0,1,1.781-.667,2.319,2.319,0,0,1,1.678.629,2.026,2.026,0,0,1,.653,1.511q0,1.429-1.893,2.441l1.8,2.29a5.693,5.693,0,0,0,.478-1.4l1.278.274a6.972,6.972,0,0,1-.888,2.16,7.119,7.119,0,0,0,1.565,1.538l-.827.977A7.117,7.117,0,0,1,400,265.614Zm-.773-.97-2.255-2.8a4.3,4.3,0,0,0-1.347,1.1,1.776,1.776,0,0,0-.349,1.008,2.145,2.145,0,0,0,.486,1.265,1.608,1.608,0,0,0,1.374.656,2.271,2.271,0,0,0,1.145-.345A2.766,2.766,0,0,0,399.231,264.644Zm-1.729-4.252a3.28,3.28,0,0,0,1.036-.828,1.39,1.39,0,0,0,.235-.786,1.134,1.134,0,0,0-.324-.837,1.1,1.1,0,0,0-.81-.325,1.148,1.148,0,0,0-.831.322,1.051,1.051,0,0,0-.331.786,1.168,1.168,0,0,0,.119.489,2.559,2.559,0,0,0,.359.543Z"/>
      <path d="M412.261,266.8V265.73a2.656,2.656,0,0,1-2.3,1.231,2.941,2.941,0,0,1-1.2-.246,1.98,1.98,0,0,1-.827-.618,2.326,2.326,0,0,1-.379-.913,6.178,6.178,0,0,1-.075-1.149v-4.5h1.23v4.026a7.183,7.183,0,0,0,.075,1.3,1.287,1.287,0,0,0,.492.763,1.524,1.524,0,0,0,.93.276,2.027,2.027,0,0,0,1.039-.283,1.575,1.575,0,0,0,.687-.772,3.888,3.888,0,0,0,.2-1.419v-3.89h1.23v7.26Z"/>
      <path d="M414.8,264.63l1.217-.192a1.7,1.7,0,0,0,.57,1.122,2,2,0,0,0,1.31.389,1.923,1.923,0,0,0,1.257-.345,1.031,1.031,0,0,0,.411-.81.748.748,0,0,0-.363-.656,5.315,5.315,0,0,0-1.258-.417,11.548,11.548,0,0,1-1.876-.591A1.792,1.792,0,0,1,415,261.465a1.874,1.874,0,0,1,.222-.9,2,2,0,0,1,.605-.687,2.522,2.522,0,0,1,.783-.358,3.681,3.681,0,0,1,1.063-.148,4.2,4.2,0,0,1,1.5.246,2.042,2.042,0,0,1,.954.667,2.61,2.61,0,0,1,.424,1.124l-1.2.164a1.32,1.32,0,0,0-.475-.875,1.745,1.745,0,0,0-1.111-.314,2.017,2.017,0,0,0-1.21.28.818.818,0,0,0-.363.656.68.68,0,0,0,.151.431,1.07,1.07,0,0,0,.471.328c.124.046.486.15,1.087.315a14.851,14.851,0,0,1,1.822.571,1.843,1.843,0,0,1,.81.645,1.808,1.808,0,0,1,.294,1.053,2.061,2.061,0,0,1-.359,1.159,2.311,2.311,0,0,1-1.035.841,3.779,3.779,0,0,1-1.532.3,3.4,3.4,0,0,1-2.156-.588A2.733,2.733,0,0,1,414.8,264.63Z"/>
      <path d="M427.259,264.459l1.271.157a3.1,3.1,0,0,1-1.114,1.73,3.775,3.775,0,0,1-4.6-.366,3.833,3.833,0,0,1-.933-2.751,4.013,4.013,0,0,1,.943-2.844,3.2,3.2,0,0,1,2.448-1.012,3.105,3.105,0,0,1,2.378.991,3.936,3.936,0,0,1,.923,2.789c0,.074,0,.183-.007.328H423.15a2.787,2.787,0,0,0,.677,1.832,2.016,2.016,0,0,0,1.518.636,1.882,1.882,0,0,0,1.155-.355A2.36,2.36,0,0,0,427.259,264.459Zm-4.04-1.989h4.053a2.454,2.454,0,0,0-.464-1.374,1.886,1.886,0,0,0-1.525-.711,1.955,1.955,0,0,0-1.425.567A2.249,2.249,0,0,0,423.219,262.47Z"/>
      <path d="M430.062,266.8v-7.26h1.107v1.1a3,3,0,0,1,.783-1.019,1.365,1.365,0,0,1,.789-.246,2.4,2.4,0,0,1,1.265.4l-.424,1.141a1.759,1.759,0,0,0-.9-.266,1.171,1.171,0,0,0-.725.243,1.307,1.307,0,0,0-.458.673,4.78,4.78,0,0,0-.205,1.435v3.8Z"/>
      <path d="M434.245,264.63l1.217-.192a1.7,1.7,0,0,0,.571,1.122,1.992,1.992,0,0,0,1.309.389,1.926,1.926,0,0,0,1.258-.345,1.033,1.033,0,0,0,.41-.81.748.748,0,0,0-.363-.656,5.3,5.3,0,0,0-1.257-.417,11.535,11.535,0,0,1-1.877-.591,1.792,1.792,0,0,1-1.063-1.665,1.874,1.874,0,0,1,.222-.9,2,2,0,0,1,.6-.687,2.522,2.522,0,0,1,.783-.358,3.691,3.691,0,0,1,1.063-.148,4.206,4.206,0,0,1,1.5.246,2.044,2.044,0,0,1,.953.667A2.61,2.61,0,0,1,440,261.41l-1.2.164a1.32,1.32,0,0,0-.475-.875,1.743,1.743,0,0,0-1.111-.314,2.019,2.019,0,0,0-1.21.28.816.816,0,0,0-.362.656.679.679,0,0,0,.15.431,1.068,1.068,0,0,0,.472.328c.123.046.485.15,1.087.315a14.879,14.879,0,0,1,1.821.571,1.832,1.832,0,0,1,.81.645,1.808,1.808,0,0,1,.294,1.053,2.067,2.067,0,0,1-.358,1.159,2.32,2.32,0,0,1-1.036.841,3.774,3.774,0,0,1-1.531.3,3.405,3.405,0,0,1-2.157-.588A2.733,2.733,0,0,1,434.245,264.63Z"/>
      <path d="M450.364,264.138l1.21.157a3.137,3.137,0,0,1-1.015,1.959,2.953,2.953,0,0,1-2.006.707,3.114,3.114,0,0,1-2.4-.974,3.951,3.951,0,0,1-.906-2.793,5.05,5.05,0,0,1,.39-2.057,2.713,2.713,0,0,1,1.186-1.323,3.525,3.525,0,0,1,1.733-.441,3,3,0,0,1,1.934.6,2.736,2.736,0,0,1,.964,1.7l-1.2.184a1.989,1.989,0,0,0-.605-1.1,1.567,1.567,0,0,0-1.05-.369,1.907,1.907,0,0,0-1.51.667,3.158,3.158,0,0,0-.581,2.108,3.272,3.272,0,0,0,.56,2.126,1.823,1.823,0,0,0,1.463.663,1.721,1.721,0,0,0,1.21-.444A2.2,2.2,0,0,0,450.364,264.138Z"/>
      <path d="M452.169,263.167a3.74,3.74,0,0,1,1.121-2.987,3.382,3.382,0,0,1,2.283-.807,3.26,3.26,0,0,1,2.448.981,3.734,3.734,0,0,1,.95,2.71,4.8,4.8,0,0,1-.421,2.206,2.976,2.976,0,0,1-1.223,1.247,3.567,3.567,0,0,1-1.754.444,3.257,3.257,0,0,1-2.464-.978A3.9,3.9,0,0,1,452.169,263.167Zm1.265,0a3.092,3.092,0,0,0,.608,2.089,2.027,2.027,0,0,0,3.056,0,3.168,3.168,0,0,0,.608-2.126,3,3,0,0,0-.612-2.04,2.029,2.029,0,0,0-3.052,0A3.077,3.077,0,0,0,453.434,263.167Z"/>
      <path d="M460.413,266.8v-7.26h1.1v1.019a2.559,2.559,0,0,1,2.2-1.183,2.4,2.4,0,0,1,1.323.335,1.8,1.8,0,0,1,.728.937,2.605,2.605,0,0,1,2.242-1.272,2.2,2.2,0,0,1,1.661.6,2.554,2.554,0,0,1,.581,1.841V266.8h-1.224v-4.573a3.389,3.389,0,0,0-.119-1.063,1.035,1.035,0,0,0-.434-.523,1.359,1.359,0,0,0-.739-.2,1.716,1.716,0,0,0-1.271.51,2.238,2.238,0,0,0-.506,1.63V266.8h-1.23V262.08a2.076,2.076,0,0,0-.3-1.23,1.139,1.139,0,0,0-.985-.411,1.791,1.791,0,0,0-.96.274,1.553,1.553,0,0,0-.639.8,4.481,4.481,0,0,0-.2,1.517V266.8Z"/>
      <path d="M472.075,266.8v-7.26h1.1v1.019a2.582,2.582,0,0,1,.909-.858,2.549,2.549,0,0,1,1.292-.325,2.393,2.393,0,0,1,1.323.335,1.8,1.8,0,0,1,.728.937,2.606,2.606,0,0,1,2.242-1.272,2.2,2.2,0,0,1,1.661.6,2.554,2.554,0,0,1,.581,1.841V266.8h-1.224v-4.573a3.389,3.389,0,0,0-.119-1.063,1.035,1.035,0,0,0-.434-.523,1.359,1.359,0,0,0-.739-.2,1.716,1.716,0,0,0-1.271.51,2.243,2.243,0,0,0-.506,1.63V266.8h-1.23V262.08a2.069,2.069,0,0,0-.3-1.23,1.139,1.139,0,0,0-.984-.411,1.792,1.792,0,0,0-.961.274,1.553,1.553,0,0,0-.639.8,4.507,4.507,0,0,0-.2,1.517V266.8Z"/>
      <path d="M488.5,266.8V265.73a2.656,2.656,0,0,1-2.3,1.231,2.933,2.933,0,0,1-1.2-.246,1.973,1.973,0,0,1-.827-.618,2.312,2.312,0,0,1-.38-.913,6.268,6.268,0,0,1-.075-1.149v-4.5h1.23v4.026a7.059,7.059,0,0,0,.076,1.3,1.278,1.278,0,0,0,.492.763,1.52,1.52,0,0,0,.93.276,2.027,2.027,0,0,0,1.039-.283,1.585,1.585,0,0,0,.687-.772,3.891,3.891,0,0,0,.2-1.419v-3.89H489.6v7.26Z"/>
      <path d="M491.523,266.8v-7.26h1.108v1.032a2.61,2.61,0,0,1,2.31-1.2,3.036,3.036,0,0,1,1.207.236,1.9,1.9,0,0,1,.824.619,2.361,2.361,0,0,1,.382.909,6.984,6.984,0,0,1,.069,1.2V266.8h-1.231v-4.416a3.306,3.306,0,0,0-.143-1.124,1.185,1.185,0,0,0-.509-.6,1.622,1.622,0,0,0-.858-.223,2,2,0,0,0-1.357.5,2.461,2.461,0,0,0-.571,1.894V266.8Z"/>
      <path d="M499.316,258.19v-1.415h1.231v1.415Zm0,8.607v-7.26h1.231v7.26Z"/>
      <path d="M505.106,265.7l.178,1.087a4.558,4.558,0,0,1-.93.11,2.111,2.111,0,0,1-1.039-.212,1.184,1.184,0,0,1-.519-.557,4.42,4.42,0,0,1-.15-1.453v-4.177h-.9v-.957h.9v-1.8l1.223-.738v2.536h1.237v.957h-1.237v4.245a2.149,2.149,0,0,0,.065.677.506.506,0,0,0,.212.239.81.81,0,0,0,.42.089A3.826,3.826,0,0,0,505.106,265.7Z"/>
      <path d="M506.316,258.19v-1.415h1.231v1.415Zm0,8.607v-7.26h1.231v7.26Z"/>
      <path d="M514.39,264.459l1.271.157a3.106,3.106,0,0,1-1.114,1.73,3.775,3.775,0,0,1-4.6-.366,3.833,3.833,0,0,1-.933-2.751,4.013,4.013,0,0,1,.943-2.844,3.2,3.2,0,0,1,2.447-1.012,3.106,3.106,0,0,1,2.379.991,3.936,3.936,0,0,1,.923,2.789c0,.074,0,.183-.007.328h-5.414a2.787,2.787,0,0,0,.677,1.832,2.016,2.016,0,0,0,1.518.636,1.882,1.882,0,0,0,1.155-.355A2.36,2.36,0,0,0,514.39,264.459Zm-4.04-1.989H514.4a2.446,2.446,0,0,0-.465-1.374,1.884,1.884,0,0,0-1.524-.711,1.955,1.955,0,0,0-1.425.567A2.249,2.249,0,0,0,510.35,262.47Z"/>
      <path d="M516.714,264.63l1.217-.192a1.7,1.7,0,0,0,.57,1.122,2,2,0,0,0,1.31.389,1.923,1.923,0,0,0,1.257-.345,1.031,1.031,0,0,0,.411-.81.748.748,0,0,0-.363-.656,5.315,5.315,0,0,0-1.258-.417,11.548,11.548,0,0,1-1.876-.591,1.792,1.792,0,0,1-1.063-1.665,1.874,1.874,0,0,1,.222-.9,2,2,0,0,1,.605-.687,2.522,2.522,0,0,1,.783-.358,3.681,3.681,0,0,1,1.063-.148,4.2,4.2,0,0,1,1.5.246,2.042,2.042,0,0,1,.954.667,2.61,2.61,0,0,1,.424,1.124l-1.2.164a1.32,1.32,0,0,0-.475-.875,1.745,1.745,0,0,0-1.111-.314,2.017,2.017,0,0,0-1.21.28.818.818,0,0,0-.363.656.68.68,0,0,0,.151.431,1.07,1.07,0,0,0,.471.328c.124.046.486.15,1.087.315a14.851,14.851,0,0,1,1.822.571,1.843,1.843,0,0,1,.81.645,1.808,1.808,0,0,1,.294,1.053,2.061,2.061,0,0,1-.359,1.159,2.311,2.311,0,0,1-1.035.841,3.779,3.779,0,0,1-1.532.3,3.4,3.4,0,0,1-2.156-.588A2.733,2.733,0,0,1,516.714,264.63Z"/>
    </g>
    <g>
      <path d="M439.288,122.994v-13.3h2.1v5.62h6.639v-5.62h2.1v13.3h-2.1v-6.019h-6.639v6.019Z"/>
      <path d="M455.309,118.754a5.019,5.019,0,0,0,.179,1.269,2.091,2.091,0,0,0,.52.911,2.249,2.249,0,0,0,.96.541,5.433,5.433,0,0,0,1.52.179c.213,0,.447-.009.7-.03s.5-.05.75-.09.48-.08.7-.12.4-.08.549-.12l.18,1.479a12.419,12.419,0,0,1-1.41.291,10.975,10.975,0,0,1-1.689.13,9.174,9.174,0,0,1-2.081-.219,3.7,3.7,0,0,1-1.6-.791,3.74,3.74,0,0,1-1.029-1.539,7.01,7.01,0,0,1-.371-2.471,7.752,7.752,0,0,1,.31-2.36,3.854,3.854,0,0,1,.891-1.55,3.341,3.341,0,0,1,1.409-.85,6.186,6.186,0,0,1,1.85-.26,4.824,4.824,0,0,1,1.76.29,3.355,3.355,0,0,1,1.231.81,3.2,3.2,0,0,1,.719,1.26,5.565,5.565,0,0,1,.23,1.66v1.58Zm4.339-1.4q0-2.779-2.06-2.78a1.931,1.931,0,0,0-1.659.7,3.856,3.856,0,0,0-.6,2.081Z"/>
      <path d="M464.268,122.994V108.4h2.02v14.6Z"/>
      <path d="M469.688,126.754V113.9a18.153,18.153,0,0,1,2.07-.521,11.311,11.311,0,0,1,2.149-.22,6.1,6.1,0,0,1,1.781.25,3.543,3.543,0,0,1,1.429.83,3.861,3.861,0,0,1,.95,1.52,6.866,6.866,0,0,1,.34,2.32,7.643,7.643,0,0,1-.349,2.51,3.983,3.983,0,0,1-.951,1.57,3.3,3.3,0,0,1-1.389.811,6.078,6.078,0,0,1-1.691.229,9.018,9.018,0,0,1-1.189-.08c-.407-.053-.784-.114-1.13-.18v3.82Zm2.02-5.359q.56.1,1.1.179a7.4,7.4,0,0,0,1.08.08,3.12,3.12,0,0,0,.99-.15,1.628,1.628,0,0,0,.769-.55,2.815,2.815,0,0,0,.491-1.09,7.616,7.616,0,0,0,.17-1.77,7,7,0,0,0-.17-1.7,2.616,2.616,0,0,0-.491-1.041,1.628,1.628,0,0,0-.769-.52,3.417,3.417,0,0,0-1.011-.14,4.91,4.91,0,0,0-.529.031c-.193.019-.391.043-.59.069s-.391.058-.57.091a4.432,4.432,0,0,0-.47.109Z"/>
    </g>
    <g>
      <path d="M455.586,226.333c-.231-3.438.874-18.388,5.018-27.361" fill="none" stroke="#000" stroke-miterlimit="10"/>
      <polygon points="463.088 203.658 462.145 203.993 460.497 199.346 455.982 201.329 455.58 200.413 461.08 197.998 463.088 203.658"/>
    </g>
    <path d="M458.318,143.295a18.989,18.989,0,0,1,7.617,1.535,19.659,19.659,0,0,1,10.389,10.389,19.666,19.666,0,0,1,0,15.234,19.659,19.659,0,0,1-10.389,10.389,19.666,19.666,0,0,1-15.234,0,19.659,19.659,0,0,1-10.389-10.389,19.654,19.654,0,0,1,0-15.234A19.659,19.659,0,0,1,450.7,144.83,18.985,18.985,0,0,1,458.318,143.295Zm0,35.893a15.9,15.9,0,0,0,6.381-1.3,16.615,16.615,0,0,0,5.2-3.51,16.4,16.4,0,0,0,3.49-5.184,16.425,16.425,0,0,0-.02-12.742,16.659,16.659,0,0,0-3.51-5.205,16.423,16.423,0,0,0-5.184-3.488,16.407,16.407,0,0,0-12.742.019,16.631,16.631,0,0,0-5.2,3.51,16.414,16.414,0,0,0-3.489,5.184,16.425,16.425,0,0,0,.02,12.742,16.64,16.64,0,0,0,3.509,5.2,16.411,16.411,0,0,0,5.185,3.488A15.923,15.923,0,0,0,458.318,179.188Zm-.12-29.711a12.389,12.389,0,0,1,4.626.757,8.7,8.7,0,0,1,2.991,1.895,6.83,6.83,0,0,1,1.6,2.451,7.2,7.2,0,0,1,.478,2.434,9.375,9.375,0,0,1-.279,2.453,7.361,7.361,0,0,1-.738,1.795,6.317,6.317,0,0,1-1.037,1.336,13.314,13.314,0,0,1-1.216,1.037q-.639.477-1.256.877a8.169,8.169,0,0,0-1.137.877,5.3,5.3,0,0,0-.9,1.076,3.625,3.625,0,0,0-.5,1.476h-5.305a8.247,8.247,0,0,1,.419-2.234,7.5,7.5,0,0,1,.818-1.674,8.415,8.415,0,0,1,1.036-1.277,10.137,10.137,0,0,1,1.157-1l.239-.2q.519-.44,1-.838a5.6,5.6,0,0,0,.838-.858,3.58,3.58,0,0,0,.558-1.017,3.91,3.91,0,0,0,.2-1.317,3.493,3.493,0,0,0-.878-2.631,3.381,3.381,0,0,0-2.432-.837,3.8,3.8,0,0,0-1.8.4,3.641,3.641,0,0,0-1.256,1.076,4.625,4.625,0,0,0-.738,1.6,7.706,7.706,0,0,0-.24,1.955h-5.7a11.21,11.21,0,0,1,.717-3.869,8.923,8.923,0,0,1,1.914-3.031,8.806,8.806,0,0,1,2.952-1.995A9.943,9.943,0,0,1,458.2,149.477Zm-2.672,21.455h5.305V176.2h-5.305Z" fill="#5b5d5e"/>
  </g>
</svg>
