<svg xmlns="http://www.w3.org/2000/svg" viewBox="0 0 560 380">
  <g>
    <g>
      <path d="M30.141,37.073l-1.914.86v6.24a1.588,1.588,0,0,1-1.6,1.26l-1.543.058-.615-1.533q1.193.1,1.435.1c.535,0,.8-.095.8-.284V38.733l-1.8.8-1.025-1.142q1.084-.422,2.822-1.26V32.991H24.3V31.536h2.4V27.8h1.524v3.74h1.914v1.455H28.227v3.321l1.914-.8ZM42.26,44,41.3,45.413a14.339,14.339,0,0,1-5.7-1.9,17.521,17.521,0,0,1-5.9,2.207l-1-1.406a16.06,16.06,0,0,0,5.557-1.8,9.115,9.115,0,0,1-2.5-3.34H30.2V37.718h4.5V36.5H30.424v-7.08a7.529,7.529,0,0,0,3.4-1.465l.879.918V27.513h1.582v7.519h2.862V33.294h-2.3V31.829h2.3V30.335H36.5V28.87h4.16V36.5H36.283v1.221H40.2v1.211a14.63,14.63,0,0,1-3.232,3.6A14.617,14.617,0,0,0,42.26,44ZM34.7,35.032v-5.9a8.085,8.085,0,0,1-2.763,1.455v1.367H34.2v1.455H31.938v1.621Zm3.526,4.141H33.441a8.4,8.4,0,0,0,2.2,2.461A11.082,11.082,0,0,0,38.227,39.173Z"/>
      <path d="M50.961,41.771a16,16,0,0,1-5.723,2.8l-.937-1.4a13.85,13.85,0,0,0,5.683-2.442ZM61.078,40.53l-1.3.987-.742-1.006H53.881V45.53H52.3V40.511H45.561L45.385,39.1h3.652L50,38.558l-2.979-2.246,1.114-1.075.742.518a16.338,16.338,0,0,0,2.363-2.2H46.605v2.119H45.082v-3.6h7.2V30.657h-6.2V29.192h6.2V27.454h1.582v1.738h6.26v1.465h-6.26v1.416h7.178v3.5H59.467V33.558h-7.11l.645.517a21.887,21.887,0,0,1-3,2.617l1.318,1a44.57,44.57,0,0,0,4.658-3.652l1.338,1.016A39.536,39.536,0,0,1,51.586,39.1h6.3q-1.483-1.249-1.68-1.358l1.338-.82A15.11,15.11,0,0,1,61.078,40.53Zm.84,2.764-.859,1.279a14.565,14.565,0,0,0-6-2.539l1.1-1.26A17.948,17.948,0,0,1,61.918,43.294Z"/>
      <path d="M74.438,39.417l-1.26.918a8.246,8.246,0,0,0-2.451-3.379V45.55H69.184V37.688a15.168,15.168,0,0,1-3.721,4.483l-1.4-1.016a14.616,14.616,0,0,0,5.059-6.679H65.307V33.011h3.9v-2.52a35.968,35.968,0,0,1-3.6.44l-.616-1.377a20.4,20.4,0,0,0,7.959-1.817l.918,1.133a15.64,15.64,0,0,1-3.134,1.279v2.862h3.4v1.465h-3.4v1.435l.537-.381A8.771,8.771,0,0,1,74.438,39.417Zm6.445,4.932H79.359V42.356H76.166v1.993H74.643v-15h6.24Zm-1.524-3.457V30.813H76.166V40.892Z"/>
      <path d="M90.9,42.552l-5.957,2.2L84.2,43.372l6.7-2.3Zm.2-9.678a20.616,20.616,0,0,1-4.219,6.084l.039.039,4.043-1.045v1.4q-2.93.721-5.723,1.582l-.713-1.338a22.014,22.014,0,0,0,2.832-3.321,21.875,21.875,0,0,0-2.158.606l-.761-1.387a45.065,45.065,0,0,0,3.261-7l1.367.625q-1.748,4.073-2.8,5.938.431-.059,2.1-.42a24.1,24.1,0,0,0,1.338-2.4ZM100.9,45.3H99.379V43.929h-6.2V45.3H91.664V28.929H100.9ZM95.521,35.55V30.394H93.178V35.55Zm0,6.924V37.015H93.178v5.459Zm3.858-6.924V30.394H97.045V35.55Zm0,6.924V37.015H97.045v5.459Z"/>
      <path d="M110.6,28.069a23.655,23.655,0,0,1-1.094,3.086l-.742,1.739V45.3h-1.543v-10a11.846,11.846,0,0,1-2.178,2.373l-1.084-1.152q3.262-2.736,5.3-9.082Zm11.406,11.944a8.987,8.987,0,0,1-.923,3.784,2.08,2.08,0,0,1-1.821.952H115.1a2.377,2.377,0,0,1-1.665-.557,1.934,1.934,0,0,1-.611-1.5V27.972h1.514v7.265a21.434,21.434,0,0,0,5.185-5.107l1.319.908a23.251,23.251,0,0,1-6.5,6.016v5.381q0,.819,1.1.82h3.536q1.376,0,1.464-3.8Z"/>
      <path d="M131.166,38.753q-1.084.3-3.076.767t-2.949.776l-.723-1.338a21.431,21.431,0,0,0,2.842-3.32q-1.562.39-2.158.595l-.762-1.377a46.73,46.73,0,0,0,3.359-7.138l1.367.635q-1.766,4.032-2.9,6.064.431-.059,2.1-.42a20.922,20.922,0,0,0,1.259-2.207l1.338.723a23.737,23.737,0,0,1-3.965,5.722l.04.039,4.228-.957Zm.273,3.184-6.24,2.119-.732-1.387q6.181-2.011,6.972-2.256Zm10.225-9.8h-4.8v2.744h3.8v1.436H131.6V34.876h3.741V32.132h-4.483V30.7h4.483V27.415h1.513V30.7h4.8Zm-1.582,13.34h-1.523V44.1h-4.893v1.377h-1.523V38.235h7.939Zm-1.523-2.823V39.671h-4.893v2.978Z"/>
      <path d="M162.2,43.118l-.918,1.279a14.688,14.688,0,0,1-7.48-5.048v6.142l-1.543-.039V39.4q-2.1,3.36-7.256,5.04l-1.045-1.221a12.906,12.906,0,0,0,6.582-3.838h-5.635V37.913h7.373V36.5h-5.4v-8.1h12.363V36.5H153.8v1.416h7.363v1.465H155.7A13.253,13.253,0,0,0,162.2,43.118Zm-9.922-11.406V29.856H148.4v1.856Zm0,3.32V33.177H148.4v1.855Zm5.44-3.32V29.856H153.8v1.856Zm0,3.32V33.177H153.8v1.855Z"/>
    </g>
    <g>
      <g>
        <path d="M41.178,106l-1.189.5-.633,3.589a1.135,1.135,0,0,1-1.048.725l-.894.033-.2-.882c.449.037.721.057.814.057.307,0,.471-.055.49-.163l.511-2.9-1.114.461-.475-.657q.666-.242,1.751-.725l.42-2.381H38.232l.148-.836h1.382l.38-2.152h.876l-.38,2.152h1.1l-.147.836h-1.1l-.336,1.909,1.182-.459Zm6.267,3.983-.693.814a7.021,7.021,0,0,1-3.088-1.1,11.918,11.918,0,0,1-3.616,1.269l-.43-.809A10.748,10.748,0,0,0,43,109.125a4.126,4.126,0,0,1-1.1-1.921H41l.148-.837h2.588l.124-.7H41.4l.719-4.072a5.211,5.211,0,0,0,2.1-.843l.413.528.138-.78h.91l-.762,4.324h1.645l.176-1H45.414l.149-.843h1.325l.151-.859H45.517l.148-.843h2.393l-.774,4.387H44.769l-.124.7H46.9l-.123.7a10.892,10.892,0,0,1-2.224,2.073A7.317,7.317,0,0,0,47.445,109.979Zm-3.437-5.157.6-3.391a5.7,5.7,0,0,1-1.737.836l-.139.787h1.3l-.148.837h-1.3l-.164.931Zm1.606,2.382H42.862a3.735,3.735,0,0,0,1.015,1.415A8.209,8.209,0,0,0,45.614,107.2Z"/>
        <path d="M52.676,108.7A11.285,11.285,0,0,1,49.1,110.31l-.4-.8a9.625,9.625,0,0,0,3.516-1.4Zm5.945-.714-.848.568-.324-.578H54.482l-.508,2.886h-.911l.509-2.886H49.7l.043-.815h2.1l.611-.308-1.484-1.293.748-.618.374.3a12.368,12.368,0,0,0,1.583-1.263H51l-.215,1.218h-.877l.365-2.072h4.141l.143-.814H50.994l.15-.843H54.71l.176-1H55.8l-.176,1h3.6l-.15.843h-3.6l-.145.814h4.129l-.353,2.011h-.9l.2-1.157H54.313l.317.3a16.426,16.426,0,0,1-1.989,1.5l.656.574a33.243,33.243,0,0,0,3.05-2.1l.666.584a28.974,28.974,0,0,1-3.706,2.325H56.93q-.729-.717-.828-.781l.851-.471A6.728,6.728,0,0,1,58.621,107.984Zm.2,1.59-.623.736a6.9,6.9,0,0,0-3.191-1.46l.763-.725A8.475,8.475,0,0,1,58.822,109.574Z"/>
      </g>
      <g>
        <path d="M237.275,113.935c.043.239.141.1.121-.557l-.165-.47Z" fill="#202020"/>
        <path d="M237.582,109.485c-.081-.778-.222-1.675-.374-1.171.159.77.093.957.282,1.786.02.662-.053,1.155-.114,1.044a11.607,11.607,0,0,0,.068,1.384,13.464,13.464,0,0,0,.027-3.092C237.508,109.192,237.551,109.429,237.582,109.485Z" fill="#202020"/>
        <path d="M185.771,94.7l.416.02C186.074,94.712,185.931,94.706,185.771,94.7Z" fill="#202020"/>
        <path d="M145.705,94.612a1.552,1.552,0,0,0,.448-.035C145.87,94.588,145.637,94.6,145.705,94.612Z" fill="#202020"/>
        <path d="M138.865,94.43l.4.011A2.035,2.035,0,0,0,138.865,94.43Z" fill="#202020"/>
        <path d="M185.771,94.7l-1.071-.052A4.49,4.49,0,0,0,185.771,94.7Z" fill="#202020"/>
        <path d="M237.182,100.568c.008.224.024.411.044.581-.006-.184-.012-.362-.018-.546A.186.186,0,0,1,237.182,100.568Z" fill="#202020"/>
        <path d="M203.433,94.569h.325a2.659,2.659,0,0,0,.27-.068Z" fill="#202020"/>
        <path d="M216.987,94.543a.82.82,0,0,0-.53.2,2.51,2.51,0,0,1,.668-.1C217.13,94.616,217.09,94.584,216.987,94.543Z" fill="#202020"/>
        <path d="M237.493,97.51a2.476,2.476,0,0,1,.137.372A2.323,2.323,0,0,0,237.493,97.51Z" fill="#202020"/>
        <path d="M193.731,94.538a.3.3,0,0,0-.123-.05C193.608,94.506,193.656,94.523,193.731,94.538Z" fill="#202020"/>
        <path d="M224.173,117.275c-.011.01,0,.017,0,.025C224.253,117.286,224.277,117.276,224.173,117.275Z" fill="#202020"/>
        <path d="M237.644,113.935l0,.22c.025.025.05.051.076.053Z" fill="#202020"/>
        <path d="M126.346,94.25l.055,0C126.731,94.236,126.544,94.239,126.346,94.25Z" fill="#202020"/>
        <path d="M28.624,114.476c.019-.747.063-.136.2.341.176.475.287.831.125-.208C28.86,114.823,28.621,112.688,28.624,114.476Z" fill="#202020"/>
        <path d="M237.2,100.217l0-.556C237.2,99.914,237.2,100.085,237.2,100.217Z" fill="#202020"/>
        <path d="M28.948,114.609h0l-.019-.216Z" fill="#202020"/>
        <path d="M97.5,94.334a1.519,1.519,0,0,0,.294.062C97.785,94.381,97.718,94.364,97.5,94.334Z" fill="#202020"/>
        <path d="M118.99,94.534l-.532-.019Z" fill="#202020"/>
        <path d="M86.343,94.533a6.392,6.392,0,0,0-.782-.012l.12.017A3.224,3.224,0,0,1,86.343,94.533Z" fill="#202020"/>
        <path d="M74.729,94.533l.215.029.368-.008Z" fill="#202020"/>
        <path d="M188.88,117.343a2.923,2.923,0,0,1,.536.126C189.237,117.369,190.943,117.333,188.88,117.343Z" fill="#202020"/>
        <path d="M237.261,100.562a.847.847,0,0,1-.06-.345c0,.133,0,.261.007.386C237.229,100.637,237.249,100.644,237.261,100.562Z" fill="#202020"/>
        <path d="M85.871,95.641l-1.845-.02Z" fill="#202020"/>
        <path d="M105.565,117.363l.424-.017A2.823,2.823,0,0,0,105.565,117.363Z" fill="#202020"/>
        <path d="M78.55,95.641c-.329-.049-.678-.078-1.039-.1a1.687,1.687,0,0,0-.214.036Z" fill="#202020"/>
        <path d="M189.42,117.471l0,0Z" fill="#202020"/>
        <path d="M201.573,117.137c-1.758,0-.826.181-1.2.287-2.1.052-.971-.136-1.685-.231-1.31.049-2.315.218-3.292.211-.073-.03-.263-.041-.04-.079-1.386.147-4.112.007-5.726.191a.877.877,0,0,1-.211-.045c.261.092.3.186.248.253a7.906,7.906,0,0,1-1.759,0,2.549,2.549,0,0,0,.749-.083l-.826.053c-.743-.174,1.127-.06,1.127-.189-1.61.056-3.487.2-4.721.151-.258-.17,2.886-.057,1.239-.208l1.91.065c-1.459-.268,1.16.019-.181-.268-2.512-.049-2.81.087-5.317.037-.564.094.187.139-.378.234-3.562.17-2.8-.427-5.423-.2a7.618,7.618,0,0,1-2.806.215l.636-.193c-2.433-.018-1.389.276-3.937.147.453-.075,1.912-.063,1.545-.086a11.62,11.62,0,0,0-2.437.109l-.263-.17-8.311.18c.159-.05.65-.1-.021-.155-3.618.085-7.723-.021-11.213-.122l-1.333.147c-.31,0-.575-.067-.239-.095-1.36-.056-.071.093-.724.151-.774.01-1.023-.085-.532-.129-2.4.125-6.837.268-9.365.111l.493-.043c-1.969-.06-2.222.3-4.048.164l.35-.026c-4.273-.064-9,.07-12.257-.151-.62.211-4.229-.094-4.5.2-2.44-.146-1.742-.2-5.178-.3-.918-.013-1.368.184-2.5.215l-.028-.154-1.54.162-.82-.185-1.064.04c.424.009.9.069.836.114a23.078,23.078,0,0,1-4.093-.187L98.8,117.4a7.809,7.809,0,0,1,1.266-.123c-2.1.157-.381-.163-2.3-.018.258.035-.139.091-.183.122-.959-.093-3.142-.093-4.757-.054l.31-.107c-2.918-.026-6.151.052-9.425.05,1.175.049.905.233-.056.251l-.383-.163c-.62.1,1,.062-.27.185-1.223-.019-.823-.185-.12-.238l-1.487.056c-.087-.049.261-.074.352-.136-.61.1-2.567-.164-3.447.012l-.084-.048-7.424.062a9.64,9.64,0,0,1-1.889.223c-1.959-.044-4.134-.155-6.5-.143-1.659.07-.484.119-1.23.2-.122-.128-2.48-.116-1.257-.208-2.833.02-3.619.025-7.2.129.388.053.826.075.6.119a3.835,3.835,0,0,1-1.386-.115l.172-.013c-4.023.192-9.284-.374-12.487-.107l.179-.013-3.321.139c-1.528-.022.916-.1-.214-.175-.9.053-1.7.078-2.443.087a4.175,4.175,0,0,1-1.866-.236,3.716,3.716,0,0,1-2.182-2.564c0-.27.012-.5.044-.906.026-.384.042-.81.051-1.268.019-.915.012-1.953,0-3.016-.024-2.126-.065-4.352.056-5.894l-.089.178a6.847,6.847,0,0,1,.071-1.55c-.069.083-.08.864-.128.369q-.013-1.266-.025-2.55c0-.41-.015-.9.01-1.248A3.352,3.352,0,0,1,31.47,96a3.522,3.522,0,0,1,1.038-.38,6.017,6.017,0,0,1,1.187-.047l10.49.176c2.531.024,1.436-.461,4.627-.248l-.906.165c5.108-.2,10.444.007,15.444-.161a3.55,3.55,0,0,1-.8.087,20.421,20.421,0,0,0,3.924-.092c.778.011.18.088.66.138C68.2,95.7,69.8,95.48,70.36,95.6c.1.02-.3.039-.491.048.69-.058,3.216.015,2.555-.123,1.877.066,3.59-.062,5.087.02.976-.155,3.212.075,3.522-.144-.134.226,3.29.182,4.477.076-.4.068,1.032.071.567.165,1.354,0,2.594-.045,2.358-.161,2.5.271,5.015-.218,6.419.129,4.023-.122,7.745-.2,11.363-.257-.13.226-4,.023-3.844.259,3.432-.092,5.412-.286,8.816-.232.882.031-.5.1-.8.137,3.429-.093,6.631.02,9.682-.1a3.927,3.927,0,0,1-.649.062c.6-.008,1.4.032,1.331-.07l-.586.028c-.96-.149,2.388-.311,2.5-.389-1.021.293,3.014.073,1.392.445.4-.02.893-.068.8-.137.587.02.774.06.178.138,2.154-.056,1.389-.165,3.34-.162-.007.049-.4.069-.6.127a25.971,25.971,0,0,1,3.63-.152c-.1.03.092.069-.4.068,2.833-.015,4.828-.257,7.935-.164-.916.216,1.057.071,1.222.258l1.671-.056-.671-.09c1.464,0,2.757-.133,4.015-.072l-1.087.077,2.743-.036-1.553-.07c1.481-.1-.159-.237,1.79-.185-.4.019,1.464,0,2.227.113h0a18.46,18.46,0,0,1,2.551-.075c.281.059-.226.206-.043.246.714-.156,3.427-.044,4.332-.21-.3.039-.317.137-.218.157l.6-.127c.679.041.778.061.668.139,2.039.023-.648-.237,1.772-.135-.19.01-.1.029-.5.048,2.432.054,4.7-.08,6.931-.018.659.188-1.952.046-1.2.2,3.221-.034,6.669-.225,9.786-.181l-.581-.021c.432-.265,2.321.131,3.9.006-.386.02-.506.147-.4.118,2.134.042,4.364-.065,7.6-.149l-.4.068c1.258.061,3.313.035,4.672.066.4-.068,1.18-.057.708-.156,4.19.388,7.992-.208,11.709.116-.444,0-1.059.059-.706.059l3.167-.062a4.272,4.272,0,0,0-1.081-.16,15.561,15.561,0,0,1,2.08-.122c-1.424.077.012.186.627.25-.1-.035.108-.074.056-.11,1.654.2.277-.233,2.535-.094l-.12.06c.846-.031,1.624-.111,2.536-.093.378.133-.9.062-.958.172a33.082,33.082,0,0,1,3.685-.12l-1.87.075a16.251,16.251,0,0,0,2.346.142l-.092,0,2.167.071L215,95.265c1.6-.349,3.262-.064,5.42-.292-2.1.216-.347.125-.507.276.551.042,1.388.089,1.15.132,1.02-.122,1.7.1,3.142-.082.064.048,1.091,0,.861.127,1.326-.039-.314-.085-.2-.146,2.044-.167,4.8.2,7.745-.027a5.808,5.808,0,0,1,2.628.194,3.594,3.594,0,0,1,1.934,1.631c.139.377.025.244-.116.031l-.241-.319-.136-.155a4.4,4.4,0,0,1,.646,1.53,10.4,10.4,0,0,1,.126,1.651c-.042-.245-.078.007-.133.375a12.027,12.027,0,0,1,.106,1.926,6.267,6.267,0,0,1-.2-.968c.059,1.139.118,2.272.18,3.451-.085.314-.129-.713-.185-1.13a32.859,32.859,0,0,0,.212,3.852l.048-.852c.006.484-.116.249-.14-.108a3.611,3.611,0,0,1,.095-1.706l.032.841c.286-.864-.046-3.38-.03-5.075l.208.707-.172-1.738c.054-.37.17-.623.2.214a3.954,3.954,0,0,0-.012-1.132c-.058-.248-.085-.472-.219-.992-.025-.118,0-.072.049.029a3.861,3.861,0,0,0-.639-1.035c.168.173.019-.271.4.393a3.677,3.677,0,0,0-2.017-1.786,9.39,9.39,0,0,0-1.651-.348l.186,0c-2.972.054-.29.148-2.51.323l-1.492-.376-.291.152c-.305,0-.908-.017-.8-.078-1.134.1.194.067-.465.165-1.467-.139-4.047.065-4.377-.178-.527.116,1.4.09-.163.17-.447-.261-1.812.045-3.152-.075.411-.135,1.681-.063.34-.184a25.367,25.367,0,0,1-3.742-.006c-.053.182-2.459.076-4.356.136.12-.061-3.571-.1-5.337-.165l.052-.031A19.628,19.628,0,0,1,204,94.77c.052-.11.29-.153,1.009-.2h-1.247a9.335,9.335,0,0,1-1.491.11l.313-.137c-1.659.008-3.341.162-5.475.07-.12.128,1.7.357-.56.442-.084-.069-.167-.187.424-.216a8.676,8.676,0,0,1-1.08.028l.9-.116c-.972-.051-.509.1-1.286.086.016-.1-.575-.07-.464-.149.2-.009.678.041.976,0a18.373,18.373,0,0,1-2.286-.151c.076.057,0,.133-.642.146-1.659.007-.568-.119-1.535-.169-.4.068-1.46,0-1.488.145a2.261,2.261,0,0,1-.763-.11c-.859.065-4.011.019-3.043.176l.22.01-.14.007h0c-2.814.146-5.846-.084-8.638-.021l0-.049c-1.667.056-3.71.033-4.9.139-.493,0-1.164-.09-.953-.149a28.747,28.747,0,0,1-3.258.012c1.282-.087-.441-.077,1.313-.064a27.4,27.4,0,0,0-3.808.014c.605-.127-1.246-.16-2.033-.122l1.16.091c-.885.018-1.659.007-2.445,0l.425-.166c-3.388-.2-6.11.344-8.689,0-.9.117,1.84.082,1.039.218-1.559-.022-3.182-.261-3.671-.261-2.134-.092-1.991.243-4.225.18.286.059.555.217-1.114.273-1.56-.022-1.917-.249-.933-.3.374-.005.555.014.539.034.5-.022,1.165-.047.548-.112l-.2.06c-.774-.061-2.919-.054-2.415-.152-1.179.057-.5.1.369.128-2-.086-3.125,0-5.184-.06.327.033.629.1.3.1a26.009,26.009,0,0,0-3.376.138c-1.163-.09.416-.216-1.643-.14-1.258-.061-.267-.157.233-.206a44.967,44.967,0,0,1-4.578-.1l.988-.048c-.591.029-1.075.028-1.568.028l.565.118a4.61,4.61,0,0,1-1.061-.07c-.6.078.458.2-.729.3a19.781,19.781,0,0,1-2.624-.093c2.434.053-.269-.158,1.791-.184-.4.019-.882.018-1.464,0-.088-.017.082-.032.241-.041-2.329-.141-1.071.178-3.484.174.307-.089-.559-.168-.953-.149.972,0,.465.148-.427.216-1.548-.069-1.682.051-2.492.043l.924.033a15.048,15.048,0,0,1-2.165.105c-.093-.069.979-.048.594-.078-1.2.156-2.706-.162-4.376-.057-.774-.06-.075-.166-.755-.207-1.872.115-2.027-.122-3.994-.027.567.12.666.09-.719.207l3.234-.084-2.076.173c.976,0,2.06-.075,2.645-.054-.989.1-.888.067-.42.166-1.336-.179-2.648.1-4.192-.016l.047-.3c-2.321-.131-4.124.152-7.138.077l.968.052c-.4.117-1.861.016-2.837.064.091-.1-.519-.135-.936-.2a20.648,20.648,0,0,0-2.479.19l-1.346-.13c-2.434-.053-2.777.281-5.117.248.7-.107-.359-.177,1.209-.254a6.787,6.787,0,0,0-1.5.049c-.456-.062-2.166.133-2.884.039a4.854,4.854,0,0,1-1.314.139c-.1-.02,0-.049,0-.049,0,.049-1.373.067-.606.176-2.406-.308-6.725.022-8.82-.242l-5.306.072c.1-.03,0-.049.3-.039-2.134-.092-1.312.283-3.741.181-1.241-.16,1.29-.087.516-.147-.337-.325-2.932.044-4.566-.145l.4-.019c-1.249-.111-3.048.123-5.09.1,0,0,.1-.028.012-.049-1.4.166-4.039.221-6,.267.611-.127.892-.067.519-.2-.88.019.258.208-1.5.244a11.092,11.092,0,0,1-2.007-.268l1.657-.008a20.667,20.667,0,0,0-3.019-.025l.112-.077c-2.541.025-2.576.221-5.306.207l.282.059c-1.492.2-1.251-.109-2.739.035l-.451-.2c-.984.048-3.448.191-5.214.228,1-.146,3.066-.221,4.345-.308-.976,0-3.317.014-3.825.112a10.926,10.926,0,0,1,1.277-.037q-.9.115-2.078.173a4.713,4.713,0,0,0-2.6.728c.028-.126-.261-.035-.67.294a3.975,3.975,0,0,0-1.188,1.688,6.506,6.506,0,0,0-.3,2.345,11.132,11.132,0,0,1-.133,1.656c.141,3.44-.061,6.825-.038,10.833.3-1.422.008,1.17.314.924,0,.919.052,1.332.052,1.413a4.352,4.352,0,0,0,1.333,2.722c.266.266.052.139-.2-.081s-.529-.537-.523-.479a5.546,5.546,0,0,0,.81.842c.172.151.245.221.3.275.113.1.1.214.84.558-.133-.118.073-.051.485.033a6.408,6.408,0,0,0,.758.119c.311.022.6.028.884.036a5.82,5.82,0,0,1-1.785-.339,7.733,7.733,0,0,0,1.78.167c.411.014.72.046,1.03.078a14.284,14.284,0,0,0,2.683.048l-.911.1c1.478-.057,5.45,0,6.9-.244.261.035.606.119-.044.141,3.531.037,7.86-.261,10.6-.11l-.268.075a12.632,12.632,0,0,1,1.972-.066c-.043.031-.266.075.039.079a26.02,26.02,0,0,1,2.623-.087l-.746.084c3.444.1,5.286-.205,8.174-.256-.008.22,2.7.292,4.055.327l-.047.031c4.01.028,6.812-.182,10.526-.269,2.3.239,7.809.1,11.514.235-.566-.04.092-.172.751-.194.869.045,2.4-.153,2.265.049l-.31,0a21.753,21.753,0,0,0,3.838.151l.23-.264c3.649.384,9.562-.141,11.554.2.88-.066,1.971-.065,2.844-.131l-.047.141c2.44.036,3.658.054,6.674.02l-.615.1c1.7.009,2.148-.409,3.718-.417l.472.211c2.968,0,5.972.183,8.905-.009-.048.031-.136.092-.616.1,1.4.006,5.4.144,4.9-.146.035.188,3.063.018,4.666-.065l-.25.139a20.625,20.625,0,0,1,3.285-.276c.448.018.393.112-.2.076,1.492.073,1.163-.132,2.971-.058l-.674.089a10.311,10.311,0,0,0,2.259-.141,14.631,14.631,0,0,1,3.138.162,7.284,7.284,0,0,1,1.952-.144c.122.048-.207.078-.373.092,2.567.095,3.817-.162,5.582-.025a.515.515,0,0,0,.3.083c-2.039,0-3.681-.011-3.527-.021,0,.128,1.647.151.336.328,1.323-.1,3.583-.307,5.189-.247a1.42,1.42,0,0,1,.212.045l-.166.014a9.488,9.488,0,0,0,1.015-.021c.512.022.837.037,1.329.039a20.615,20.615,0,0,0,2.711.062c-.068-.14,1.007-.117,0-.233a3.148,3.148,0,0,1-.7.022l-.35.015.056-.013-2.041.01a10.612,10.612,0,0,1,2.235-.054c.421-.09.885-.183,1.146-.227,1.124.2,3.291.3,3.592.423,2.508-.079,5.908-.052,7.484-.316a2.98,2.98,0,0,1,1.086.117c-.411.027-.9.023-1.123.061a40.411,40.411,0,0,0,4.564-.211c1.8.083-1.01.17,1.459.14l-.333.056c4.857.3,7.9-.471,13.281-.092a3.153,3.153,0,0,1-.636-.065c6.139.167,12.651-.157,18.709.108a16.054,16.054,0,0,0,2.96-.154l.373.151,1.8-.174c2.548-.128,4.413.37,7.638.129l-.416-.1a30.989,30.989,0,0,1,3.477.057,2.325,2.325,0,0,1,.832-.052l.036.079c.955-.055,1.881-.069,2.862-.157,1.136-.164,1.059-.176,1.132-.091.032.023.1.051.362-.049a3.508,3.508,0,0,0,1.367-.945,4.046,4.046,0,0,0,.968-2.083c.093-.707-.02-1.171-.037-.934a2.192,2.192,0,0,1-.349,1.271,3.856,3.856,0,0,0,.171-1.095c-.109-.107-.221-.359-.333-.261-.146.086-.106.556-.659,1.57a3.44,3.44,0,0,1-.938,1.323,3.341,3.341,0,0,1-.5.188,3.479,3.479,0,0,0,1.041-.855,7.651,7.651,0,0,1-1.433,1.077c-.143-.009-.367.026-.678.051a11.82,11.82,0,0,1-1.733.27c-.223-.092.824-.181-.41-.232-.861.1.826.2-.6.273a4.659,4.659,0,0,0-1.686-.1c-.147-.06.075-.1.492-.125-.936.072-2.477.031-2.96.155-.933-.131-3.159.034-3.067-.187a24.16,24.16,0,0,1-2.507.182c1.57-.263-3.218-.015-2.8-.3-1.162.237-4.2.105-6.256.237a2.494,2.494,0,0,1,.523-.045c-1.159-.02-1.5-.091-2.24-.136a15.838,15.838,0,0,1-2.926.362c-1.42-.189.863-.23.417-.412.071.159-2.468.159-1.984.291a5.919,5.919,0,0,1-1.5-.219c-.19.245-1.011.041-1.912.191-1.572-.12-.405-.229-2.131-.154C200.038,117.224,201.573,117.137,201.573,117.137Zm-41.063.423v0l.847-.007Zm-3.451,0,1.5,0c.121.049-.01.1-.357.1A6.505,6.505,0,0,0,157.059,117.563Zm7.3.973a2.515,2.515,0,0,1-.8-.036l.955-.017.065-.017A.687.687,0,0,1,164.358,118.536Z" fill="#202020"/>
        <path d="M165.34,118.352l.225-.01-.325-.032-.194.044Z" fill="#202020"/>
        <path d="M186.26,94.726l-.073,0a1.108,1.108,0,0,1,.153.02Z" fill="#202020"/>
        <polygon points="109.408 117.294 109.413 117.329 109.715 117.298 109.408 117.294" fill="#202020"/>
        <path d="M205.266,95.208a1.126,1.126,0,0,0,.249.036A1.489,1.489,0,0,0,205.266,95.208Z" fill="#202020"/>
        <path d="M213.476,95.24l1.161.05Z" fill="#202020"/>
        <path d="M219.788,95.309a.3.3,0,0,0,.124-.06H219.9Z" fill="#202020"/>
        <path d="M119.424,95.475l-.243.006C118.609,95.508,119,95.5,119.424,95.475Z" fill="#202020"/>
        <path d="M149.292,95.146l-.961.067C148.863,95.223,149.276,95.226,149.292,95.146Z" fill="#202020"/>
        <path d="M86.073,95.644l0,0h-.206Z" fill="#202020"/>
        <path d="M146.943,95.21a13.691,13.691,0,0,0,1.388,0C147.9,95.2,147.382,95.189,146.943,95.21Z" fill="#202020"/>
        <path d="M237.169,106.2l-.005.3c.009,0,.016.013.022.036Z" fill="#202020"/>
        <path d="M237.186,106.536l.017.338A1.7,1.7,0,0,0,237.186,106.536Z" fill="#202020"/>
        <path d="M237.238,107.585l-.035-.711A3.723,3.723,0,0,0,237.238,107.585Z" fill="#202020"/>
        <path d="M237.1,97.956l-.07-.069C237.047,97.929,237.07,97.954,237.1,97.956Z" fill="#202020"/>
        <path d="M235.821,96.091a4.131,4.131,0,0,1,1.142,1.742l.062.054c-.1-.154-.195-.56-.425-.941A2.372,2.372,0,0,0,235.821,96.091Z" fill="#202020"/>
        <path d="M225.652,94.693l2.128.041c-.372-.055-.861-.128.106-.141C225.2,94.431,228.44,94.715,225.652,94.693Z" fill="#202020"/>
        <path d="M219.054,94.614c1.143-.025-.013-.079.047-.109C218.376,94.554,218.2,94.567,219.054,94.614Z" fill="#202020"/>
        <path d="M171.373,94.614l.116-.128C170.607,94.5,171.48,94.535,171.373,94.614Z" fill="#202020"/>
        <polygon points="162.259 95.275 163.116 95.354 163.525 95.237 162.259 95.275" fill="#202020"/>
        <polygon points="156.875 94.364 157.259 94.345 155.789 94.392 156.875 94.364" fill="#202020"/>
        <path d="M76.8,94.409l.267.158C77.657,94.538,77.782,94.361,76.8,94.409Z" fill="#202020"/>
        <path d="M42.225,94.57a7.748,7.748,0,0,0-1.948-.052C41.054,94.528,41.829,94.59,42.225,94.57Z" fill="#202020"/>
        <polygon points="100.24 118.557 99.545 118.609 100.855 118.566 100.24 118.557" fill="#202020"/>
      </g>
      <path d="M231.837,110.279l-3.646-3.252a4.188,4.188,0,0,0,.72-2.329,4.32,4.32,0,1,0-2.068,3.643L227,108.2l3.65,3.264ZM221.6,104.7a3.033,3.033,0,1,1,3.037,3.035A3.037,3.037,0,0,1,221.6,104.7Z" fill="#525252"/>
    </g>
    <g>
      <g>
        <path d="M74.167,175.189,72,167.037H73.11l1.241,5.344q.2.84.344,1.669.311-1.307.368-1.507l1.55-5.506h1.3l1.167,4.126a21.893,21.893,0,0,1,.635,2.887q.154-.774.406-1.775l1.278-5.238h1.085l-2.236,8.152H79.211l-1.719-6.21c-.144-.52-.23-.838-.256-.958q-.129.563-.238.958l-1.73,6.21Z"/>
        <path d="M83.364,175.189v-8.152h1v2.925a2.238,2.238,0,0,1,1.769-.812,2.373,2.373,0,0,1,1.139.259,1.512,1.512,0,0,1,.693.715,3.294,3.294,0,0,1,.208,1.323v3.742h-1v-3.742a1.55,1.55,0,0,0-.326-1.093,1.21,1.21,0,0,0-.92-.341,1.625,1.625,0,0,0-.836.23,1.3,1.3,0,0,0-.56.626,2.875,2.875,0,0,0-.167,1.09v3.23Z"/>
        <path d="M93.74,173.288l1.035.128a2.525,2.525,0,0,1-.906,1.406,3.071,3.071,0,0,1-3.746-.3,3.118,3.118,0,0,1-.759-2.238,3.259,3.259,0,0,1,.768-2.313,2.6,2.6,0,0,1,1.991-.824,2.525,2.525,0,0,1,1.935.807,3.2,3.2,0,0,1,.751,2.269c0,.059,0,.148-.006.266H90.4a2.269,2.269,0,0,0,.551,1.49,1.638,1.638,0,0,0,1.235.518,1.535,1.535,0,0,0,.939-.289A1.92,1.92,0,0,0,93.74,173.288Zm-3.286-1.618h3.3a2,2,0,0,0-.379-1.118,1.529,1.529,0,0,0-1.239-.578,1.585,1.585,0,0,0-1.159.461A1.823,1.823,0,0,0,90.454,171.67Z"/>
        <path d="M96.031,175.189v-5.905h.9v.84a2.123,2.123,0,0,1,1.88-.974,2.467,2.467,0,0,1,.981.193,1.548,1.548,0,0,1,.67.5,1.934,1.934,0,0,1,.311.739,5.634,5.634,0,0,1,.056.974v3.63h-1V171.6a2.688,2.688,0,0,0-.117-.915.965.965,0,0,0-.414-.485,1.32,1.32,0,0,0-.7-.18,1.623,1.623,0,0,0-1.105.406,2,2,0,0,0-.464,1.54v3.225Z"/>
      </g>
      <g>
        <path d="M36.809,241.914l-2.163-8.152h1.106l1.24,5.343c.134.561.248,1.117.346,1.669q.31-1.307.366-1.506l1.552-5.506h1.3l1.168,4.126a21.7,21.7,0,0,1,.633,2.886q.158-.773.407-1.774l1.278-5.238h1.085l-2.235,8.152h-1.04L40.135,235.7q-.217-.779-.256-.957c-.086.375-.166.693-.239.957l-1.73,6.211Z"/>
        <path d="M46.006,241.914v-8.152h1v2.925a2.235,2.235,0,0,1,1.767-.812,2.379,2.379,0,0,1,1.141.259,1.508,1.508,0,0,1,.691.715,3.271,3.271,0,0,1,.209,1.323v3.742h-1v-3.742a1.546,1.546,0,0,0-.325-1.093,1.209,1.209,0,0,0-.92-.342,1.62,1.62,0,0,0-.837.231,1.3,1.3,0,0,0-.559.626,2.874,2.874,0,0,0-.166,1.09v3.23Z"/>
        <path d="M51.967,238.961a3.045,3.045,0,0,1,.912-2.43,2.75,2.75,0,0,1,1.857-.656,2.654,2.654,0,0,1,1.992.8,3.041,3.041,0,0,1,.772,2.2,3.893,3.893,0,0,1-.342,1.793,2.424,2.424,0,0,1-1,1.016,2.907,2.907,0,0,1-1.427.361,2.656,2.656,0,0,1-2-.8A3.176,3.176,0,0,1,51.967,238.961Zm1.029,0a2.514,2.514,0,0,0,.495,1.7,1.647,1.647,0,0,0,2.486,0,2.573,2.573,0,0,0,.5-1.729,2.444,2.444,0,0,0-.5-1.66,1.651,1.651,0,0,0-2.484,0A2.5,2.5,0,0,0,53,238.961Z"/>
      </g>
      <g>
        <path d="M88.777,305.446v-8.152h1.078v3.348h4.238v-3.348h1.079v8.152H94.093V301.6H89.855v3.842Z"/>
        <path d="M96.467,302.493a3.045,3.045,0,0,1,.912-2.43,2.75,2.75,0,0,1,1.857-.656,2.652,2.652,0,0,1,1.991.8A3.039,3.039,0,0,1,102,302.41a3.9,3.9,0,0,1-.342,1.793,2.421,2.421,0,0,1-1,1.016,2.9,2.9,0,0,1-1.426.361,2.658,2.658,0,0,1-2.005-.8A3.176,3.176,0,0,1,96.467,302.493Zm1.029,0a2.514,2.514,0,0,0,.494,1.7,1.648,1.648,0,0,0,2.487,0,2.571,2.571,0,0,0,.494-1.729,2.444,2.444,0,0,0-.5-1.66,1.651,1.651,0,0,0-2.484,0A2.5,2.5,0,0,0,97.5,302.493Z"/>
        <path d="M104.264,305.446l-1.808-5.905h1.034l.94,3.408.351,1.269q.021-.1.3-1.218l.94-3.459h1.029l.884,3.425.3,1.129.339-1.14,1.012-3.414h.974l-1.847,5.905h-1.04l-.94-3.537L106.5,300.9l-1.2,4.543Z"/>
      </g>
      <g>
        <path d="M169.883,308.445l-2.163-8.152h1.106l1.24,5.344q.2.84.345,1.669.312-1.306.367-1.507l1.552-5.506h1.3l1.168,4.126a21.847,21.847,0,0,1,.634,2.887q.155-.774.406-1.775l1.278-5.238H178.2l-2.235,8.152h-1.04l-1.719-6.211c-.145-.519-.229-.838-.256-.957-.085.375-.165.694-.238.957l-1.73,6.211Z"/>
        <path d="M179.08,308.445v-8.152h1v2.925a2.239,2.239,0,0,1,1.769-.812,2.373,2.373,0,0,1,1.139.259,1.508,1.508,0,0,1,.693.715,3.292,3.292,0,0,1,.209,1.323v3.742h-1V304.7a1.546,1.546,0,0,0-.326-1.093,1.207,1.207,0,0,0-.92-.341,1.625,1.625,0,0,0-.836.23,1.3,1.3,0,0,0-.56.626,2.875,2.875,0,0,0-.167,1.09v3.23Z"/>
        <path d="M185.369,310.72l-.11-.94a2.235,2.235,0,0,0,.572.089,1.1,1.1,0,0,0,.534-.111.914.914,0,0,0,.328-.312A4.9,4.9,0,0,0,187,308.7c.019-.055.048-.138.089-.245l-2.241-5.916h1.079l1.228,3.42c.159.434.3.89.429,1.367a13.436,13.436,0,0,1,.411-1.346l1.263-3.441h1l-2.247,6a11.715,11.715,0,0,1-.562,1.341,1.982,1.982,0,0,1-.611.725,1.448,1.448,0,0,1-.823.231A2.022,2.022,0,0,1,185.369,310.72Z"/>
      </g>
      <g>
        <path d="M200.656,240.013l-2.163-8.153H199.6l1.239,5.344c.134.561.249,1.116.345,1.669q.312-1.306.367-1.507l1.552-5.506h1.3l1.168,4.126a21.917,21.917,0,0,1,.634,2.887c.1-.516.239-1.106.406-1.774l1.28-5.239h1.084l-2.236,8.153H205.7l-1.718-6.211c-.145-.52-.23-.838-.255-.957-.086.375-.165.693-.24.957l-1.729,6.211Z"/>
        <path d="M209.854,240.013V231.86h1v2.925a2.236,2.236,0,0,1,1.768-.811,2.4,2.4,0,0,1,1.141.258,1.524,1.524,0,0,1,.692.715,3.3,3.3,0,0,1,.208,1.324v3.742h-1v-3.742a1.544,1.544,0,0,0-.325-1.093,1.206,1.206,0,0,0-.92-.342,1.628,1.628,0,0,0-.837.23,1.306,1.306,0,0,0-.559.626,2.875,2.875,0,0,0-.167,1.09v3.231Z"/>
        <path d="M220.23,238.111l1.036.128a2.525,2.525,0,0,1-.908,1.407,3.073,3.073,0,0,1-3.745-.3,3.122,3.122,0,0,1-.759-2.239,3.261,3.261,0,0,1,.768-2.313,2.6,2.6,0,0,1,1.99-.823,2.525,2.525,0,0,1,1.936.806,3.206,3.206,0,0,1,.751,2.269c0,.059,0,.148-.006.266h-4.4a2.268,2.268,0,0,0,.55,1.491,1.644,1.644,0,0,0,1.235.517,1.527,1.527,0,0,0,.939-.289A1.913,1.913,0,0,0,220.23,238.111Zm-3.286-1.618h3.3a2.008,2.008,0,0,0-.378-1.118,1.532,1.532,0,0,0-1.24-.578,1.585,1.585,0,0,0-1.159.461A1.83,1.83,0,0,0,216.944,236.493Z"/>
        <path d="M222.51,240.013v-5.906h.9v.9a2.448,2.448,0,0,1,.637-.829,1.1,1.1,0,0,1,.641-.2,1.955,1.955,0,0,1,1.03.322l-.345.929a1.428,1.428,0,0,0-.734-.217.954.954,0,0,0-.589.2,1.069,1.069,0,0,0-.373.548,3.874,3.874,0,0,0-.167,1.168v3.092Z"/>
        <path d="M230.356,238.111l1.036.128a2.525,2.525,0,0,1-.908,1.407,3.073,3.073,0,0,1-3.745-.3,3.122,3.122,0,0,1-.759-2.239,3.261,3.261,0,0,1,.768-2.313,2.6,2.6,0,0,1,1.99-.823,2.525,2.525,0,0,1,1.936.806,3.206,3.206,0,0,1,.751,2.269c0,.059,0,.148-.006.266h-4.4a2.268,2.268,0,0,0,.55,1.491,1.644,1.644,0,0,0,1.235.517,1.527,1.527,0,0,0,.939-.289A1.913,1.913,0,0,0,230.356,238.111Zm-3.286-1.618h3.3a2.008,2.008,0,0,0-.378-1.118,1.532,1.532,0,0,0-1.24-.578,1.585,1.585,0,0,0-1.159.461A1.83,1.83,0,0,0,227.07,236.493Z"/>
      </g>
      <g>
        <path d="M164.883,174.723l-2.163-8.153h1.106l1.24,5.344c.134.561.248,1.116.345,1.669q.312-1.306.367-1.507l1.552-5.506h1.3L169.8,170.7a21.917,21.917,0,0,1,.634,2.887c.1-.516.239-1.106.406-1.774l1.278-5.239H173.2l-2.235,8.153h-1.04l-1.719-6.211c-.145-.52-.229-.838-.256-.957-.085.375-.165.693-.238.957l-1.73,6.211Z"/>
        <path d="M174.08,174.723V166.57h1V169.5a2.238,2.238,0,0,1,1.769-.811,2.385,2.385,0,0,1,1.139.258,1.512,1.512,0,0,1,.693.715,3.292,3.292,0,0,1,.209,1.323v3.743h-1V170.98a1.541,1.541,0,0,0-.326-1.092,1.2,1.2,0,0,0-.92-.342,1.625,1.625,0,0,0-.836.23,1.308,1.308,0,0,0-.56.626,2.875,2.875,0,0,0-.167,1.09v3.231Z"/>
        <path d="M184.268,173.994a3.708,3.708,0,0,1-1.071.667,3.088,3.088,0,0,1-1.1.195,2.149,2.149,0,0,1-1.5-.475,1.569,1.569,0,0,1-.523-1.215,1.643,1.643,0,0,1,.714-1.368,2.42,2.42,0,0,1,.721-.328,7.244,7.244,0,0,1,.889-.151,9.185,9.185,0,0,0,1.786-.344c0-.137,0-.225,0-.262a1.1,1.1,0,0,0-.283-.861,1.669,1.669,0,0,0-1.139-.339,1.766,1.766,0,0,0-1.043.247,1.506,1.506,0,0,0-.5.876l-.979-.134a2.414,2.414,0,0,1,.44-1.015,1.919,1.919,0,0,1,.883-.594,3.926,3.926,0,0,1,1.341-.209,3.569,3.569,0,0,1,1.229.177,1.621,1.621,0,0,1,.7.449,1.566,1.566,0,0,1,.311.68,5.574,5.574,0,0,1,.05.923v1.335a14.293,14.293,0,0,0,.064,1.766,2.227,2.227,0,0,0,.254.709h-1.046A2.109,2.109,0,0,1,184.268,173.994Zm-.083-2.235a7.393,7.393,0,0,1-1.635.378,3.76,3.76,0,0,0-.873.2.876.876,0,0,0-.4.325.888.888,0,0,0,.164,1.143,1.3,1.3,0,0,0,.887.267,2.07,2.07,0,0,0,1.029-.253,1.561,1.561,0,0,0,.662-.692,2.412,2.412,0,0,0,.162-1Z"/>
        <path d="M188.935,173.827l.144.885a3.756,3.756,0,0,1-.758.089,1.7,1.7,0,0,1-.843-.173.958.958,0,0,1-.424-.453,3.607,3.607,0,0,1-.122-1.182v-3.4H186.2v-.779h.734v-1.463l1-.6v2.063h1.008v.779h-1.008v3.453a1.768,1.768,0,0,0,.052.551.423.423,0,0,0,.174.194.665.665,0,0,0,.342.072A3.133,3.133,0,0,0,188.935,173.827Z"/>
      </g>
      <g>
        <path d="M85.763,146.082a7.944,7.944,0,1,0,7.943,7.943A7.952,7.952,0,0,0,85.763,146.082Zm.995,13.81v-.928a1,1,0,1,0-1.99,0v.928a5.983,5.983,0,0,1-4.872-4.871h.93a1,1,0,1,0,0-1.991h-.932a5.953,5.953,0,1,1,6.864,6.862Z" fill="#323031"/>
        <path d="M88.4,153.361H86.427v-3.294a.664.664,0,1,0-1.327,0v3.958a.666.666,0,0,0,.663.665H88.4a.665.665,0,1,0,0-1.329Z" fill="#323031"/>
      </g>
      <path d="M218.8,213.9a5.2,5.2,0,1,0-9.151,4.924l3.923,7.288a.752.752,0,0,0,.653.391.737.737,0,0,0,.653-.391l3.922-7.288A5.24,5.24,0,0,0,218.8,213.9Zm-4.572,5.7a3.238,3.238,0,1,1,3.238-3.239A3.239,3.239,0,0,1,214.232,219.6Z" fill="#323031"/>
      <g>
        <path d="M178.347,294.333a1.747,1.747,0,1,0-1.748-1.746A1.748,1.748,0,0,0,178.347,294.333Z" fill="#323031"/>
        <path d="M183.791,280.124v-.149c-.006-.079-.006-.119-.006-.119a.731.731,0,0,0-.014-.092A5.824,5.824,0,0,0,173.836,276a1.281,1.281,0,1,0,1.811,1.811,3.27,3.27,0,0,1,5.582,2.294v.048c0,.036,0,.07,0,.113-.01.127,0,.371-.025.487a2.591,2.591,0,0,1-.081.4,2.462,2.462,0,0,1-.207.526,3.585,3.585,0,0,1-.391.585,8.465,8.465,0,0,1-.581.662c-.235.252-.45.465-.7.751a10.182,10.182,0,0,0-.723.89,6.094,6.094,0,0,0-.916,2.063,8.84,8.84,0,0,0-.132.949c-.007.287-.012.551-.016.784.009.207.016.384.022.533.011.3.018.465.018.465H179.2s.006-.17.02-.465c0-.149.012-.326.021-.533.019-.176.039-.374.065-.593a5.388,5.388,0,0,1,.145-.657,4.16,4.16,0,0,1,.285-.665,3.984,3.984,0,0,1,.433-.643,7.94,7.94,0,0,1,.6-.626c.211-.2.492-.446.727-.659a10.664,10.664,0,0,0,.77-.745,6.436,6.436,0,0,0,.691-.873,5.218,5.218,0,0,0,.734-1.893c.056-.285.049-.405.072-.57q.01-.11.021-.195l0-.022,0-.1Z" fill="#323031"/>
      </g>
      <g>
        <path d="M95.485,278.458a2.632,2.632,0,1,0-2.632,2.634A2.634,2.634,0,0,0,95.485,278.458Z" fill="#323031"/>
        <path d="M103.809,282.189a2.632,2.632,0,1,0,2.635,2.632A2.634,2.634,0,0,0,103.809,282.189Z" fill="#323031"/>
        <path d="M94.666,287.454a2.632,2.632,0,1,0,2.632,2.632A2.635,2.635,0,0,0,94.666,287.454Z" fill="#323031"/>
        <rect x="95.219" y="280.021" width="2.506" height="1.114" transform="translate(-194.473 222.428) rotate(-59.723)" fill="#323031"/>
        <rect x="97.079" y="281.083" width="2.505" height="1.113" transform="translate(-194.523 224.84) rotate(-59.778)" fill="#323031"/>
        <rect x="98.939" y="282.146" width="2.505" height="1.113" transform="matrix(0.503, -0.864, 0.864, 0.503, -194.518, 226.975)" fill="#323031"/>
        <rect x="97.775" y="286.732" width="1.113" height="2.505" transform="translate(-131.692 88.753) rotate(-30.251)" fill="#323031"/>
        <rect x="99.635" y="285.669" width="1.113" height="2.505" transform="translate(-130.903 89.545) rotate(-30.251)" fill="#323031"/>
      </g>
      <g>
        <path d="M51.365,212.009a1.168,1.168,0,0,0-1.65.057l-4.6,4.919-4.594-4.919a1.087,1.087,0,0,0-.137-.125,1.167,1.167,0,1,0-1.432,1.843l5,3.882V227.85a1.163,1.163,0,1,0,2.326,0V217.666l5-3.882a1.334,1.334,0,0,0,.136-.125A1.168,1.168,0,0,0,51.365,212.009Z" fill="#323031"/>
        <path d="M45.12,213.852a1.551,1.551,0,1,0-1.55-1.55A1.552,1.552,0,0,0,45.12,213.852Z" fill="#323031"/>
      </g>
      <g>
        <polygon points="175.447 153.013 168.324 149.284 175.447 145.722 181.847 149.284 175.447 153.013" fill="#323031"/>
        <polygon points="176.159 154.266 176.159 162.052 183.271 158.537 183.271 149.995 176.159 154.266" fill="#323031"/>
        <polygon points="174.73 154.266 174.73 162.052 167.612 158.537 167.612 150.707 174.73 154.266" fill="#323031"/>
      </g>
      <g>
        <path d="M114.235,202.462c-.086-.077-.281-.034-.243.178l.331.151Z" fill="#4c4a4b"/>
        <path d="M113.622,203.888c.16.249.442.537.746.376-.318-.247-.185-.307-.564-.573-.038-.212.107-.37.228-.334-.084-.076.073-.33-.135-.444a.784.784,0,0,0-.055.991C113.77,203.982,113.683,203.906,113.622,203.888Z" fill="#4c4a4b"/>
        <path d="M113.106,224.616l.039-.133A.33.33,0,0,0,113.106,224.616Z" fill="#4c4a4b"/>
        <path d="M121.7,234.147c-.078-.06-.13-.063-.154-.044C121.63,234.148,121.7,234.183,121.7,234.147Z" fill="#4c4a4b"/>
        <path d="M123.079,235.892l-.08-.1C123.014,235.844,123.04,235.89,123.079,235.892Z" fill="#4c4a4b"/>
        <path d="M113.106,224.616l-.1.343C113.11,224.983,113.082,224.783,113.106,224.616Z" fill="#4c4a4b"/>
        <path d="M114.42,206.746a.483.483,0,0,0-.087-.186l.035.175Z" fill="#4c4a4b"/>
        <path d="M112.838,218.955v-.105a.885.885,0,0,0-.134-.086Z" fill="#4c4a4b"/>
        <path d="M112.787,214.61c-.012.1.269.132.391.17a.32.32,0,0,1-.192-.214A.486.486,0,0,0,112.787,214.61Z" fill="#4c4a4b"/>
        <path d="M113.281,207.72l-.039-.122Z" fill="#4c4a4b"/>
        <path d="M112.777,222.064a.25.25,0,0,0-.1.04A.164.164,0,0,0,112.777,222.064Z" fill="#4c4a4b"/>
        <path d="M118.67,203.507a.368.368,0,0,0,0-.049C118.643,203.487,118.636,203.508,118.67,203.507Z" fill="#4c4a4b"/>
        <path d="M113.566,202.389l.069-.019a1.2,1.2,0,0,0,.006-.158Z" fill="#4c4a4b"/>
        <path d="M125.806,238.858l-.009-.016C125.7,238.794,125.745,238.83,125.806,238.858Z" fill="#4c4a4b"/>
        <path d="M154.188,237.351c-.473.117.252-.708-.389-.461C153.918,236.926,153.705,237.6,154.188,237.351Z" fill="#4c4a4b"/>
        <path d="M114.383,206.859a1.507,1.507,0,0,1,0,.178A.479.479,0,0,0,114.383,206.859Z" fill="#4c4a4b"/>
        <path d="M153.8,236.89l0,0-.065.027Z" fill="#4c4a4b"/>
        <path d="M132.761,244.952a.321.321,0,0,0,.013-.154C132.757,244.821,132.75,244.862,132.761,244.952Z" fill="#4c4a4b"/>
        <path d="M127.934,240.023l.1.142A.553.553,0,0,0,127.934,240.023Z" fill="#4c4a4b"/>
        <path d="M135.675,247.064c.054.079.051.129.17.186a.18.18,0,0,0,0-.052C135.78,247.2,135.723,247.168,135.675,247.064Z" fill="#4c4a4b"/>
        <path d="M138.49,249.621c-.009-.037-.028-.076-.041-.113l-.129-.1Z" fill="#4c4a4b"/>
        <path d="M129.959,202.762a.822.822,0,0,1-.185-.243C129.842,202.715,129.3,202.816,129.959,202.762Z" fill="#4c4a4b"/>
        <path d="M114.262,206.748a.152.152,0,0,1,.121.111l-.015-.124A.105.105,0,0,0,114.262,206.748Z" fill="#4c4a4b"/>
        <path d="M137.278,245.525l.41.429A3.907,3.907,0,0,0,137.278,245.525Z" fill="#4c4a4b"/>
        <path d="M147.849,218.251l-.111-.085A.167.167,0,0,0,147.849,218.251Z" fill="#4c4a4b"/>
        <path d="M139.015,247.1a.862.862,0,0,0,.115.368.263.263,0,0,0,.1-.008Z" fill="#4c4a4b"/>
        <path d="M129.773,202.516v0Z" fill="#4c4a4b"/>
        <path d="M125.919,203.393c.563-.023.244-.375.352-.594.666-.141.326.255.565.431.414-.12.717-.476,1.031-.478.026.059.088.078.021.158.428-.317,1.315-.086,1.812-.482a.229.229,0,0,1,.073.088.96.96,0,0,1-.107-.5c.252-.02.455-.258.563-.022-.155,0-.162.1-.23.178l.258-.119c.257.334-.354.14-.34.4a4.338,4.338,0,0,1,1.494-.383c.1.334-.917.164-.374.437l-.618-.1c.5.51-.373-.017.087.532.809.055.89-.221,1.7-.166.17-.2-.075-.275.095-.474,1.122-.4.944.805,1.758.308.205-.238.266-.672.875-.477l-.183.394c.187,0,.311-.032.3-.072.026-.042.051-.1.08-.152.053-.109.137-.207.258-.149l.022.1a.147.147,0,0,1-.082.034c-.1.064-.173.063-.153.1.03.1.041.108.075.077.054-.032.183-.25.266-.145-.063.1-.13.2-.2.293l.075.049.234.226.5.451c.338.3.684.614,1,.954-.111.023-.293-.034-.24.2a11.666,11.666,0,0,1,2.048,2.964l.5.151c.059.08.011.227-.1.179.185.41.16-.1.381-.007.17.182.072.362-.095.294a5.459,5.459,0,0,1,2.043,2.21l-.167-.069c.3.568.915.183,1.065.811l-.111-.055c.754,1.151,1.907,2.168,2.211,3.261.455-.107.7,1.179,1.213.88a5.2,5.2,0,0,0,.569,1.669c.162.247.561.114.836.36l-.236.2.561.185-.125.435.274.218c-.07-.118-.071-.312.011-.352.441.331.641,1.151.525,1.259l.99.824c-.115.056-.28-.083-.446-.164.666.33-.177.3.432.6,0-.108.172-.079.229-.107a2.824,2.824,0,0,0,.864,1.262l-.228.054c.54.765,1.307,1.479,1.958,2.3-.157-.356.185-.518.4-.3l-.177.3c.281.031-.105-.327.342-.162.215.331-.126.437-.349.327l.386.3c-.059.082-.169.027-.284.081.28.027.257.847.707.849l-.059.082c.651.822,1.035,1.125,1.58,1.783.231-.162.39.139.726.2a11.369,11.369,0,0,0,1.073,1.808c.44.329.283-.027.562.056-.176.19.314.767-.074.574a2.606,2.606,0,0,0,.981.87c.01.005.007.023,0,.043l.178-.033a.2.2,0,0,1,.161-.013l.028.024a.508.508,0,0,1-.432.1l-.016-.022c.023.114-.11.248-.25.326-.215.153-.583.4-.879.573-.622.384-1.207.759-1.381,1.31l.022-.059-.556.95c-.378.315.072-.344-.3-.2-.51,1.114-1.327,1.239-1.794,2.109-1.052-.016-1.8,1.875-2.84,2.233l.167.085c-.057.3-.291.147-.453.251.117.079.309-.083.265.1a40.4,40.4,0,0,1-5.023,4.428c-.607.54.325.977-.7,1.4l-.029-.439c-.877,1.438-2.376,2.357-3.272,3.728.014-.121-.054-.193.057-.3a1.086,1.086,0,0,0-.583.482,1.763,1.763,0,0,0-.1.171c-.032.058,0,.054,0,.087a.551.551,0,0,0,.061.143c-.063.033-.111-.138-.182-.209-.049-.051-.027.035-.039.139s-.041.206-.058.054a.854.854,0,0,1,.009-.146.217.217,0,0,1-.013.073c-.035.016-.086-.105-.123.167-.04-.126-.093-.133-.168-.164a1.722,1.722,0,0,1-.526-.522c-.439.018-.661-.8-1.029-.546.336-.306-.535-.979-.96-1.078.186-.015-.149-.327.088-.367-.325-.287-.676-.493-.776-.27-.228-.938-1.482-.759-1.349-1.575-1.118-.687-2.111-1.368-3.041-2.07.335-.306.979.829,1.261.445a9.5,9.5,0,0,1-2.4-1.557c-.168-.236.25-.037.372-.03-.938-.6-1.545-1.46-2.434-1.936.031-.029.14.008.237.049-.153-.118-.288-.35-.409-.184l.176.085c.028.428-.985-.055-1.116.038.638-.214-.615-.759.269-.958-.12-.057-.3-.092-.374.029-.112-.157-.1-.256.143-.243-.586-.382-.551-.056-1.01-.48.068-.072.187-.015.314-.058a1.548,1.548,0,0,1-1.065-.558c.063-.023.07-.122.186-.015-.692-.589-1.492-.66-2.1-1.468.508-.121-.155-.333.057-.645l-.471-.278.037.279c-.343-.32-.833-.4-1.049-.76l.361.121-.7-.539.273.44c-.48-.177-.28.383-.672-.114.119.058-.344-.319-.377-.646h0a1.044,1.044,0,0,1-.707-.438c.013-.149.331-.257.341-.355-.379.077-.871-.675-1.309-.624a.312.312,0,0,0,.263-.185l-.313.058c-.106-.206-.1-.257.028-.348-.453-.475-.165.489-.6-.183.059.026.063-.022.183.035-.5-.6-1.223-.894-1.668-1.468.1-.42.524.353.559-.044a21.874,21.874,0,0,1-2.565-1.843l.11.156c-.459.3-.374-.694-.916-.849.118.054.318-.109.253-.088a3.136,3.136,0,0,0-.551-.493,4.16,4.16,0,0,0-.522-.291,3.287,3.287,0,0,1-.156-.6l.137.129a12.233,12.233,0,0,0,.132-1.5c-.136-.129-.114-.378-.312-.227.776-1.343-.416-2.561.23-3.753,0,.142.119.34.119.226l-.125-1.015c-.231.081-.14.133-.319.346a1.006,1.006,0,0,1-.244-.666c.154.457.371,0,.5-.2-.07.033-.148-.034-.22-.018.411-.53-.465-.089-.188-.813l.121.039a2.357,2.357,0,0,1-.188-.813c.267-.121.125.288.345.307-.016-.41-.507-.81-.24-1.181.074.174.076.425.15.6a1.031,1.031,0,0,0,.283-.752l-.007.03.142-.695-.085.177c-.7-.513-.127-1.045-.583-1.737.432.672.25.111.552.162.084-.176.179-.445.264-.368-.244-.327.192-.546-.165-1.007.1-.021.01-.35.255-.276-.077-.426-.17.1-.292.064-.334-.655.4-1.54-.054-2.482-.188-.813-.517-.963-.68-1.717.156-.255.355.208.355.208a1.647,1.647,0,0,0,0-1.106c.085.078.157,0,.267-.121-.026-.31-.355-.207-.211-.617a1.341,1.341,0,0,1,.391.31c-.089-.366-.271-.727-.359-1.106.169-.1.257.229.368.362-.076-.426-.154-1.1-.422-1.235l-.1.274c-.013-.156.231-.08.281.034a.34.34,0,0,1-.192.547l-.062-.27c-.572.277.092,1.084.058,1.627l-.416-.226.346.557c-.109.118-.341.2-.4-.069-.206.389.148.345-.081.679-.036.037-.056.02-.073-.014l.124.381c-.087-.075-.294.063-.233-.171-.24.683.312,1.1,0,1.358l-.025-.057c.14.948.3.092.664.8l-.754.478.306.093c-.011.1-.034.291-.156.255.209.364.132-.062.33.149-.278.471.13,1.3-.357,1.4.232.168.179-.45.341.052-.523.143.089.581-.151,1.01-.27-.132-.127-.539-.368-.109.457.259-.1.837-.012,1.2.363.017.151.788.272,1.4-.122-.038-.2,1.145-.331,1.711l-.061-.017c.368.109.3.693.374,1.118-.22-.017-.306-.093-.405-.323l0,.4a.68.68,0,0,1,.222.478l-.275-.1a4.933,4.933,0,0,1,.14,1.755c.256.038.713-.544.884.179-.138.027-.375.054-.432-.135.018.062.115.221.056.346l-.233-.289c-.1.311.2.163.173.412-.2,0-.141.184-.3.148-.019-.063.081-.217,0-.312a1.256,1.256,0,0,1-.3.732.221.221,0,0,1,.291.206c.015.532-.237.182-.339.492.137.129,0,.468.291.477,0,.156-.14.185-.22.245.131.275.038,1.285.352.975l.02-.07.013.045v0a2.22,2.22,0,0,1,.1.717c0,.279-.032.575-.066.886.17.2.349.4.543.606a3.027,3.027,0,0,0,.5.442l-.068.072a6.8,6.8,0,0,0,1.35.85c.117.107.155.384.026.426.352.22.461.169.788.686-.42-.149,0,.208-.4-.19.336.42.318.618.921.8-.313.057.082.5.319.618l-.153-.384a3.479,3.479,0,0,1,.575.532l-.325.155c.532,1.03,1.913.808,2.069,1.865.369.021-.326-.518.047-.547.339.37.4,1.073.518,1.179.382.6.8.07,1.245.645.012-.149.161-.442.632-.165.34.369.12.782-.178.64-.095-.073-.113-.14-.082-.166-.149-.077-.34-.182-.28.046l.128-.044c.1.257.62.71.369.745.356.171.251-.035.085-.269.359.559.738.678,1.149,1.207-.034-.119-.012-.287.065-.216.617.76.466.12.987.523.154.385-.39.23.2.562.216.362-.149.29-.332.254.6.235.73.867.956,1.13l-.3-.143a1.584,1.584,0,0,1,.409.3l.026-.3c.11.155.225.262.157.333.246.014.157-.391.581-.293.1.257.646.413.5.7-.506-.6-.149.293-.672-.114a.94.94,0,0,1,.343.32c0,.045-.063.03-.113.01.363.71.494-.033,1.061.493-.192.065-.094.369.025.426-.228-.212.089-.319.392-.227.274.435.468.286.65.473l-.176-.248c.194-.063.362.121.655.312-.071.122-.3-.141-.246-.013.494.027.425.823.962,1.027.1.256-.207.263-.1.47.6.233.317.617.912.9.026-.3-.037-.277.448-.15l-.88-.573.725.191c-.229-.213-.589-.333-.7-.49.365.07.3.092.324-.156.076.553.768.417.971.929l-.408.427c.373.695,1.182.665,1.8,1.425l-.161-.285c.254-.087.464.377.759.517-.154.126-.058.311-.042.492.087-.12.515.485.845.253l.144.482c.506.6,1.037.183,1.547.737-.312.007-.154.34-.628.115.183.17.326.348.421.25.025.19.692.27.737.563.136.007.3-.122.5.079,0,.05-.067.071-.067.071.067-.071.415.2.38-.129.171.988,1.594,1.388,1.8,2.289.542.416,1.121.869,1.563,1.239l.244-.257c-.023.106.012.127-.085.195.754-.494.249-1.05.978-1.49.569-.117-.277.521.023.393a.257.257,0,0,0,.365.01,1.088,1.088,0,0,0,.188-.172,1.519,1.519,0,0,0,.122-.166c.164-.242.34-.545.659-.6l-.062.117c.439-.128.517-.865,1.012-1.3,0,0,.018.063.067.072a4.8,4.8,0,0,1,.984-1.738c.041.318-.107.3.16.4.173-.226-.352-.235,0-.685.228-.031.6-.232.834-.075l-.365.386c.445.06.478-.5.72-.649l.085.135c.54-.611.27-.9.909-1.5l-.148-.019c.063-.614.438-.129.571-.671l.382.177a11.3,11.3,0,0,1,.859-1.5,5.366,5.366,0,0,1-.549,1.42c.223-.219.731-.772.709-1.025-.063.116-.106.3-.237.342a2.294,2.294,0,0,1,.746-1.392c.463.619,1.286-1.013,2.026-.912.579-.98,1.632-1.461,2.508-2.4-.743-.1.253-.277-.235-.654.184-.239.272-.312.319-.3l.9-.383c.278-.027-.106.3.011.374.5-.43.378-.011.8-.2-.218-.092-.06-.383.263-.588l-.572.173c.418-.878.923-.2,1.348-1.077l-.071.342c.255-.415,1.238-1.233,1.219-1.908.11-.009.306.03.19.209a7.177,7.177,0,0,0,1.04-1.28c.224-.292.55-.682.8-.968a7.365,7.365,0,0,1,.831-.818,2.66,2.66,0,0,1-.169-.306l.28.112c-.294-.3-.716-.449-.823-.826.077,0,.248.072.149-.065-.088-.07-.307-.239-.518-.427a3.689,3.689,0,0,1-.3-.3.664.664,0,0,1-.149-.213,1.206,1.206,0,0,1,.3.109c-.577-1.039-1.387-1.085-2.054-1.758.346-.272-.083-1.041-.3-1.424l.058-.027a16.282,16.282,0,0,0-2.522-2.306c-.086-.875-1.4-2.083-1.932-3.179.051.192-.287.191-.453.053-.1-.274-.719-.413-.375-.63l.056.083c.179-.411-.26-.793-.53-1.15l-.46.271c-.127-1.393-2.129-2.222-1.988-3.15-.28-.139-.5-.414-.774-.55l.231-.165a10.574,10.574,0,0,0-1.3-1.7l.281.028c-.325-.438-1.068-.03-1.394-.413l.236-.382c-.6-.74-.907-1.725-1.792-2.221a.221.221,0,0,1,.28.029c-.27-.357-.855-1.534-1.207-1.045.289-.244-.582-.791-1.033-1.089l.268-.111a1.589,1.589,0,0,1-1.088-.481c-.061-.135.1-.237.159-.043-.183-.466-.438-.128-.683-.674l.274.058c-.29-.4-.34-.308-.671-.39-.28-.173-.526-.775-.374-.989a.577.577,0,0,1-.614-.311c.05-.09.162-.044.217-.02-.364-.762-1.015-.756-1.153-1.369a.2.2,0,0,0,.07-.178,8.518,8.518,0,0,1,.672.911c.2-.16-.093-.6.446-.494-.415-.211-1.2-.515-1.422-.993a.311.311,0,0,1,.027-.109l.056.024a.525.525,0,0,0-.235-.229,1.717,1.717,0,0,0-.205-.382c.128-.179-.287-.545-.443-.757-.207.192-.386-.106-.366.291-.011-.045.057.018.175.148a.39.39,0,0,0,.093.07h-.031l.422.5c-.241-.073-.47-.169-.529-.494a5.61,5.61,0,0,1-.584-.005,1.778,1.778,0,0,0-.105-.9,3.675,3.675,0,0,1-.248-.9l-.18-.181c-1.608.213-2.268.232-2.781.756-.224.08-.27-.137-.36-.216.129-.06.286-.06.353-.14-.449.16-1.349.126-1.438.5-.584-.135.305-.356-.482-.253l.1-.119c-1.587-.5-2.477,1.077-4.242.415.122.039.183.058.211.118-1.983-.227-4.033.532-6,.108-.557-.077-.6.162-.931.359l-.135-.3-.557.379c-.8.3-1.452-.664-2.458-.126l.144.195c-.373-.018-1.168.184-1.119-.053-.036.039-.11.218-.261.12l-.02-.158-.9.32c-.712-.076.077-.632-.956-.607-.379.081-1.065.518-.916.616.155,0,.4.077.42.234l-.345.1c-.039.469-.282.959.595,1.238l.584-.317.205.215-.5.041c.3.2.468,0,.665-.14a.422.422,0,0,0,.264.235l.564-.476c.082.178-.244.375.156.454.265-.221-.286-.393.163-.554.3.2.224.373.55.174.054.117-.013.2-.144.257.292-.159.79-.1.931-.359.313.245,1.008-.122,1,.32a1.685,1.685,0,0,1,.783-.408c-.474.554,1.031-.024.929.548.346-.494,1.332-.283,1.977-.582-.035.04-.1.12-.163.1a2.073,2.073,0,0,1,.732.233c.027-.394.6-.515.9-.773.474.353-.252.474-.089.829-.04-.315.772-.359.6-.615.361.215.306.1.5.412.034-.493.319-.1.591-.416.516.214.154.451.7.272C126.4,203.193,125.919,203.393,125.919,203.393Zm11.271.832,0,0-.182-.2Zm.692.863c-.075-.113-.178-.245-.29-.383.052-.09.156-.12.222-.03C137.725,204.668,137.844,204.907,137.882,205.088Zm.068-3.044c.14.112.133.192.1.247-.055-.062-.123-.131-.217-.219l-.04.006A.368.368,0,0,1,137.95,202.044Z" fill="#4c4a4b"/>
        <path d="M137.465,202.027a.339.339,0,0,1-.061-.044.845.845,0,0,0,.016.121l.107-.006Z" fill="#4c4a4b"/>
        <path d="M113.152,224.459l-.007.024a.122.122,0,0,1,.04-.049C113.172,224.449,113.163,224.449,113.152,224.459Z" fill="#4c4a4b"/>
        <polygon points="146.974 217.373 147.028 217.328 146.919 217.291 146.974 217.373" fill="#4c4a4b"/>
        <path d="M114.116,218.367a.151.151,0,0,0,.072-.08C114.17,218.291,114.144,218.325,114.116,218.367Z" fill="#4c4a4b"/>
        <path d="M114.179,215.735l.1-.372A2.231,2.231,0,0,0,114.179,215.735Z" fill="#4c4a4b"/>
        <path d="M114.319,213.712a.4.4,0,0,0-.121-.04l0,0Z" fill="#4c4a4b"/>
        <path d="M129.1,238.537a.3.3,0,0,0,.066.043C129.334,238.663,129.227,238.6,129.1,238.537Z" fill="#4c4a4b"/>
        <path d="M121.57,232.583a1.975,1.975,0,0,1,.317.109C121.775,232.561,121.681,232.468,121.57,232.583Z" fill="#4c4a4b"/>
        <polygon points="137.234 245.478 137.229 245.481 137.278 245.525 137.234 245.478" fill="#4c4a4b"/>
        <path d="M122.213,233a.711.711,0,0,0-.326-.3A1.084,1.084,0,0,0,122.213,233Z" fill="#4c4a4b"/>
        <path d="M114.446,204.942l.012-.1a.063.063,0,0,1-.045-.012Z" fill="#4c4a4b"/>
        <path d="M114.413,204.833l-.033-.108C114.38,204.775,114.382,204.818,114.413,204.833Z" fill="#4c4a4b"/>
        <path d="M114.309,204.5l.071.228C114.38,204.646,114.389,204.549,114.309,204.5Z" fill="#4c4a4b"/>
        <path d="M114.316,207.621l.1.031A.178.178,0,0,0,114.316,207.621Z" fill="#4c4a4b"/>
        <path d="M114.346,208.435c.023-.194.217-.487.154-.758l-.082-.025C114.57,207.779,114.174,208.25,114.346,208.435Z" fill="#4c4a4b"/>
        <path d="M113.086,211.832l.081-.682c-.108.12-.254.276-.28-.034C112.563,211.976,113.13,210.939,113.086,211.832Z" fill="#4c4a4b"/>
        <path d="M112.928,213.947c-.05-.366-.157,0-.219-.015C112.808,214.165,112.833,214.221,112.928,213.947Z" fill="#4c4a4b"/>
        <path d="M115.616,228.61l-.2.164C115.65,228.937,115.485,228.7,115.616,228.61Z" fill="#4c4a4b"/>
        <polygon points="118.667 229.597 118.571 229.294 118.316 229.38 118.667 229.597" fill="#4c4a4b"/>
        <polygon points="118.719 232.106 118.603 232.05 119.014 232.299 118.719 232.106" fill="#4c4a4b"/>
        <path d="M137.773,249.306l.149-.291C137.743,248.929,137.475,249.164,137.773,249.306Z" fill="#4c4a4b"/>
        <path d="M146.9,244.028a.478.478,0,0,0,.515-.368C147.223,243.82,146.961,243.909,146.9,244.028Z" fill="#4c4a4b"/>
        <polygon points="150.78 218.1 151.002 218.208 150.671 217.934 150.78 218.1" fill="#4c4a4b"/>
      </g>
      <g>
        <path d="M130.717,214.172c-.044-.017-.14-.008-.124.04l.164.037Z" fill="#4c4a4b"/>
        <path d="M130.394,214.486a.494.494,0,0,0,.368.111c-.155-.069-.088-.079-.274-.15-.017-.048.057-.081.117-.07-.041-.019.04-.075-.062-.1-.132.06-.14.133-.039.222A.193.193,0,0,1,130.394,214.486Z" fill="#4c4a4b"/>
        <path d="M128.1,218.139h.034A.044.044,0,0,0,128.1,218.139Z" fill="#4c4a4b"/>
        <path d="M125.6,218.937a.036.036,0,0,0,.027-.037C125.606,218.912,125.591,218.923,125.6,218.937Z" fill="#4c4a4b"/>
        <path d="M125.151,218.764l.026.013C125.167,218.761,125.158,218.752,125.151,218.764Z" fill="#4c4a4b"/>
        <path d="M128.1,218.139h-.087C128.042,218.186,128.067,218.15,128.1,218.139Z" fill="#4c4a4b"/>
        <path d="M130.713,215.184a.114.114,0,0,0-.036-.052l.011.044Z" fill="#4c4a4b"/>
        <path d="M128.874,217.254l.014-.016-.04-.056Z" fill="#4c4a4b"/>
        <path d="M129.361,216.52c-.015.014.1.091.151.129-.043-.04-.059-.066-.06-.087A.677.677,0,0,0,129.361,216.52Z" fill="#4c4a4b"/>
        <path d="M130.11,215.283l-.012-.03Z" fill="#4c4a4b"/>
        <path d="M128.409,217.682a.263.263,0,0,0-.039-.032A.171.171,0,0,0,128.409,217.682Z" fill="#4c4a4b"/>
        <path d="M130.907,212.935l-.024,0C130.9,212.943,130.909,212.943,130.907,212.935Z" fill="#4c4a4b"/>
        <polygon points="130.348 214.172 130.339 214.156 130.26 214.154 130.348 214.172" fill="#4c4a4b"/>
        <path d="M124.4,218.5l0,0C124.425,218.493,124.413,218.494,124.4,218.5Z" fill="#4c4a4b"/>
        <path d="M120.861,213.214c-.144.055-.124-.166-.292-.073C120.625,213.143,120.755,213.3,120.861,213.214Z" fill="#4c4a4b"/>
        <path d="M130.691,215.207a.3.3,0,0,1,0,.042A.066.066,0,0,0,130.691,215.207Z" fill="#4c4a4b"/>
        <polygon points="120.569 213.141 120.568 213.141 120.552 213.151 120.569 213.141" fill="#4c4a4b"/>
        <path d="M122.746,217.894a.222.222,0,0,0-.02.062A.183.183,0,0,0,122.746,217.894Z" fill="#4c4a4b"/>
        <path d="M123.881,218.664l-.026-.03A.073.073,0,0,0,123.881,218.664Z" fill="#4c4a4b"/>
        <path d="M122.073,217.6c-.007-.02,0-.039-.03-.042l-.006.017C122.057,217.571,122.072,217.572,122.073,217.6Z" fill="#4c4a4b"/>
        <polygon points="121.566 217.049 121.552 217.077 121.572 217.092 121.566 217.049" fill="#4c4a4b"/>
        <path d="M129.624,210.491a.5.5,0,0,1-.069.113C129.622,210.529,129.74,210.606,129.624,210.491Z" fill="#4c4a4b"/>
        <path d="M130.635,215.17c.034.011.05.022.056.037l0-.031A.1.1,0,0,0,130.635,215.17Z" fill="#4c4a4b"/>
        <path d="M121.288,218.387l-.095-.114A.468.468,0,0,0,121.288,218.387Z" fill="#4c4a4b"/>
        <path d="M123.712,208.719l.027-.024A.027.027,0,0,0,123.712,208.719Z" fill="#4c4a4b"/>
        <path d="M120.883,217.965a.251.251,0,0,0,.019-.124.132.132,0,0,0-.039.01Z" fill="#4c4a4b"/>
        <path d="M129.554,210.605h0Z" fill="#4c4a4b"/>
        <path d="M130.375,211.2c-.071-.124-.19.036-.3.066-.129-.111.076-.137.126-.236-.095-.066-.278-.036-.319-.1.021-.022.021-.04.063-.048-.184,0-.2-.257-.419-.237a.123.123,0,0,1,.024-.041.954.954,0,0,1-.182.176c-.042-.042-.16,0-.083-.1.021.029.06,0,.1-.013l-.08-.011c.093-.155.1.023.2-.06-.126-.056-.325-.061-.351-.162.11-.132.189.122.215-.073l.05.151c.124-.261.047.08.191-.188-.1-.18-.209-.111-.317-.282-.1.038-.087.11-.184.149-.312-.055.125-.464-.178-.432-.114.052-.264.21-.306.036l.157-.123c-.143-.13-.252.157-.332-.064.071-.041.155.036.146,0-.016-.2-.137.034-.214-.023l.079-.153c-.192-.081-.437-.1-.647-.169.034-.04.094-.07.07-.139a1.978,1.978,0,0,1-.769-.457l-.144.1c-.022-.01-.024-.076.01-.1-.088-.08-.033.088-.1.13-.06,0-.053-.1,0-.133-.221.069-.569.126-.738-.048l.045-.037c-.146-.083-.211.272-.33.116l.029-.022c-.323-.091-.677.028-.939-.17-.032.212-.339-.076-.326.228-.2-.117-.157-.178-.443-.233-.075,0-.069.2-.146.253l-.036-.15-.078.187-.108-.162-.071.059a.121.121,0,0,1,.093.093c-.1.095-.331-.02-.36-.089l-.246.228c-.017-.059.024-.1.049-.149-.1.205-.087-.14-.178.047.032.025.024.089.033.119-.107-.063-.263.018-.361.106l-.024-.106a3.309,3.309,0,0,0-.63.411c.106-.007.186.16.134.212l-.115-.12c.015.109.1.011.085.164-.086.038-.156-.115-.141-.192l-.062.115c-.033-.035-.026-.073-.056-.128.021.111-.262-.008-.213.175l-.035-.035c-.217.153-.256.29-.411.434.094.105.012.138.047.259a1.391,1.391,0,0,0-.445.276c-.029.144.068.105.1.2-.1-.074-.206.081-.221-.052a1.188,1.188,0,0,0-.216.532c.06,0,.1-.013.124.025-.007.053-.1.067-.152.029l0-.019c0,.342-.68.467-.535.816l-.007-.018.041.292c-.061.1-.066-.1-.171-.043.1.327-.153.422-.08.679-.406.1-.093.628-.331.846l.09-.008c.084.068-.055.073-.078.119.07,0,.084-.065.13-.023.074.523-.109,1.1-.052,1.673.029.208.473-.008.332.291l-.177-.021c.3.326.281.792.618,1.066-.045,0-.09.022-.106-.014-.067.133.155.271.237.22.022.058-.068.058-.091.117-.013.111.237.1.165.2-.011.017-.047,0-.063,0,.08.012.141.215.222.092.037.158.214.19.227.33.168-.045.114.237.292.107-.174.144.04.321.187.3-.071.029.011.106-.081.151.082.071.183.106.246.006-.031.345.437.074.312.416l.884.251c-.118.2-.279-.128-.386.081.279.07.509-.058.716.108.049.058-.073.074-.111.1.279.023.478.212.74.165-.007.02-.038.035-.066.046.047,0,.1.059.119-.041l-.051.015c-.027-.16.259-.253.283-.329-.147.266.2.127-.006.458a.138.138,0,0,0,.091-.117c.039.03.045.073-.017.138.175-.013.139-.141.284-.112-.009.049-.042.063-.068.118.093-.083.181-.168.3-.108-.012.029,0,.07-.039.063.219.026.384-.223.607-.115-.075.213.077.075.087.262a1.048,1.048,0,0,0,.129-.056l-.052-.088c.112,0,.2-.143.3-.087l-.078.081.2-.046-.121-.064c.1-.1-.027-.235.117-.191-.026.02.1,0,.172.1h0c.046-.067.09-.137.174-.1.029.056.014.207.033.244.029-.163.249-.078.28-.258a.3.3,0,0,0,.016.157l.017-.135c.057.028.069.045.078.123.153-.015-.1-.218.1-.163-.011.013,0,.03-.024.056.19.006.314-.16.484-.163.109.16-.122.093-.018.224.226-.115.391-.38.611-.447h-.048c-.09-.252.213.045.26-.122-.014.032.038.148.031.119.158-.047.253-.225.4-.423l.015.074c.109-.006.218-.119.318-.155-.018-.072.035-.1-.055-.154.494.095.3-.529.708-.506-.022.025-.01.1.008.08l.113-.217c-.1-.062-.074-.023-.174-.046a.182.182,0,0,1,.007-.189c-.01.123.145.121.222.123-.032-.016-.053-.053-.083-.073.232.032-.17-.161.035-.2l.043.044c.012-.068-.02-.16.033-.2.125.055.012.088.1.156.05-.082-.1-.288.054-.286.011.053-.017.1-.012.154.185.015.153-.022.212-.066l-.007,0,.145-.1-.058.014c-.241-.282.08-.235-.059-.486.126.235.1.081.229.16.055-.017.125-.053.155-.018-.076-.123.144-.076.029-.25.047.016.04-.072.145-.008.009-.107-.088-.012-.14-.044-.09-.2.318-.268.181-.552-.037-.209-.191-.286-.229-.465.09-.037.161.087.161.087a.181.181,0,0,0,.061-.243c.039.026.077.015.135,0,0-.074-.167-.079-.082-.159a.817.817,0,0,1,.182.1c-.031-.093-.109-.19-.139-.28.087-.013.12.068.17.107-.023-.1-.036-.265-.173-.307l-.052.057c0-.036.117-.007.139.022.092.095-.065.115-.114.113l-.022-.064c-.293.025.009.244-.026.367l-.2-.087.15.154c-.058.016-.174.009-.2-.054-.116.061.055.088-.073.134-.02,0-.029,0-.035-.011l.04.093c-.038-.026-.146-.022-.1-.063-.152.108.092.268-.073.277l-.009-.015c.008.213.143.062.261.266l-.391-.027.137.07a.063.063,0,0,1-.092.024c.071.11.067.011.143.089-.158.046-.046.289-.28.209.09.081.123-.051.15.081-.251-.083-.015.133-.163.164-.108-.087-.007-.131-.154-.1.181.155-.12.134-.123.215.156.094-.02.179-.036.322-.041-.036-.222.142-.344.194l-.022-.021c.131.127.035.211,0,.3a.257.257,0,0,1-.111-.18l-.053.061a.146.146,0,0,1,.017.146l-.089-.106c-.067.081-.026.276-.193.31.081.1.338.173.279.342-.053-.045-.139-.127-.128-.175,0,.016,0,.074-.036.071l-.035-.126c-.084.007.042.093,0,.122-.067-.073-.078-.025-.125-.088,0-.016.061,0,.05-.042a.246.246,0,0,1-.214-.01c.041.038.089.1.065.137-.077.081-.106-.064-.185-.06.026.072-.074.058.017.173-.027.019-.074-.031-.109-.055,0,.084-.2.171-.055.26h.018l0,.011h0c-.066.244-.379.144-.5.3l-.024-.043c-.068.107-.206.139-.232.272-.031.015-.11-.047-.121-.107-.061.069-.047.132-.194.1.047-.109-.057-.061.057-.088-.119,0-.168-.069-.231.1-.007-.132-.129-.122-.164-.069l.1.06a.308.308,0,0,1-.152.052l-.024-.168c-.253-.143-.3.439-.531.137-.036.123.132.063.108.2-.109-.006-.251-.226-.28-.222-.143-.073-.092.265-.246.216.024.058.059.214-.051.276-.111-.017-.144-.242-.084-.293.024-.006.037.012.038.032.031-.023.072-.05.027-.113l-.009.06c-.054-.058-.19-.045-.162-.144-.072.061-.029.1.029.127-.131-.082-.2.016-.332-.053.02.033.038.1.017.1-.193-.083-.09.108-.228.127-.071-.094.042-.214-.1-.145-.076-.064,0-.157.032-.2-.13.114-.208-.1-.268-.13l.066-.038a.128.128,0,0,1-.1.012l.016.123c-.033-.026-.062-.031-.054-.08-.05.071,0,.2-.1.293-.038-.068-.165.043-.149-.119.141.081.015-.156.146-.161a.076.076,0,0,1-.089-.016.044.044,0,0,1,.023-.038c-.107-.172-.1.158-.248.116.04-.081.008-.171-.02-.159.057.016-.008.151-.082.2-.077-.091-.119.023-.168,0l.049.046c-.045.081-.092.057-.167.057.016-.068.075-.023.061-.061-.125.12-.113-.214-.249-.151-.025-.073.056-.157.031-.209-.155.068-.067-.161-.215-.125-.019.124,0,.1-.129.167l.221.014-.191.1c.058.029.151-.007.179.023-.1.067-.08.038-.091.144-.008-.2-.2.017-.246-.138l.133-.263c-.071-.174-.3.016-.433-.152l.026.076c-.083.087-.112-.049-.192-.042a.338.338,0,0,0,.058-.194c-.039.062-.107-.089-.237.06l.008-.156c-.089-.135-.322.117-.417-.019.105-.049.1-.148.224-.139-.036-.034-.057-.078-.1-.027.021-.065-.193,0-.164-.1-.046.018-.123.087-.161.042a.117.117,0,0,1,.035-.035c-.036.037-.112-.018-.154.1.119-.336-.335-.318-.2-.6a1.542,1.542,0,0,1-.266-.238c.028-.01.041-.027.042,0,0-.169-.282.081-.282-.116.094-.153.119.029.144-.047.269-.187-.143-.14-.024-.328l.028.014c.064-.122-.194-.12-.232-.252a.127.127,0,0,0,.045-.019.567.567,0,0,1-.394-.272c.134,0,.084.034.2-.033-.037-.049-.189.087-.264-.014.053-.06.079-.158.211-.209a.947.947,0,0,0,.042.1c.148-.105-.05-.129-.033-.194l.077-.015c-.064-.148-.256-.1-.288-.284l-.053.031c-.214-.06.093-.1-.066-.176l.19-.063a1.226,1.226,0,0,1-.275-.314,1.507,1.507,0,0,1,.346.246c-.008-.062-.047-.207-.149-.23.023.023.076.05.049.078a.316.316,0,0,1-.251-.293c.383,0,.075-.344.388-.428-.138-.227.088-.425.109-.668-.306.035,0-.075-.3-.118-.01-.066.006-.087.025-.088l.224-.136c.1-.019.051.071.119.082.054-.117.139-.019.237-.076-.11-.013-.14-.084-.083-.141l-.16.058c-.113-.225.291-.069.194-.285l.072.084c-.023-.1.11-.3-.066-.485.04,0,.124.016.127.061.114-.176,0-.56.222-.63l.054.055c0-.046-.083-.141.012-.139.024.019.052.055.067.042-.009-.031-.041-.163.027-.181l.04.087c.2-.111.035-.389.131-.564a.361.361,0,0,0,.411.042l.019.024c.2-.142.182-.417.329-.625.25.1.466-.193.734-.178a.177.177,0,0,1-.045-.193c.068.016.073-.205.15-.018l-.019,0c.12.163.192.062.276.043l-.084-.25c.339.271.543-.326.755-.021.038-.082.106-.09.148-.162l.023.139a.9.9,0,0,0,.408-.035l-.028.1c.1,0,.1-.413.2-.426l.039.209c.191-.022.364.188.559,0,0,.031-.016.092-.046.1.089,0,.309.181.32-.112-.025.188.185.044.3-.017l-.043.132c.119-.152.134-.2.266-.216.024.025,0,.115-.031.071.075.094.107-.109.2-.008l-.067.075c.093.036.1-.016.183-.095.079-.03.172.1.141.224.039-.068.128-.145.172-.09a.115.115,0,0,1-.057.076c.12.139.293-.046.343.125a.169.169,0,0,0-.019.083.7.7,0,0,1-.2-.118c-.05.118.032.183-.112.31.108-.054.33-.181.4-.083a.253.253,0,0,1-.009.045l-.016.009c.015.021.04.019.067.009a.175.175,0,0,0,.053.077c-.043.1.07.111.111.142.07-.122.118-.067.123-.2,0,.013-.017.009-.05-.005a.062.062,0,0,0-.027,0l.01-.009-.117-.06c.07-.04.139-.068.15.029.07-.063.146-.126.184-.153-.037.2.021.366-.036.48.169.034.331.17.575.047.058.007-.009.094-.024.137-.037,0-.058-.023-.094,0,.113.011.219.164.365.047.029.141-.166.074-.029.166l-.055.024c-.013.416.71.081.622.608a.1.1,0,0,1,.028-.07c.081.417.585.657.47,1.142-.012.123.1.095.213.134l-.135.069.2.065c.162.143-.273.367-.012.526l.1-.046c-.008.08.1.236-.021.239.019,0,.108.012.06.048l-.078.012a1.661,1.661,0,0,1,.153.176c-.049.152-.314,0-.319.209.035.073.242.216.293.188a.122.122,0,0,1,.124-.088l.045.075c.234.011.475.082.628-.13l-.149-.14.11-.052.013.122c.1-.074.007-.115-.06-.16a.2.2,0,0,0,.121-.07l-.23-.122c.089-.027.187.046.225-.056-.112-.054-.193.085-.277-.015.095-.08.183-.072.082-.14a.117.117,0,0,1,.129.021c-.082-.063-.06-.188-.187-.2.121-.095-.074-.231.139-.27a.429.429,0,0,1-.226-.147c.286.052-.047-.245.233-.293-.247-.022-.211-.284-.387-.39.02,0,.062,0,.056.022-.013-.092.044-.144.064-.217-.185.065-.287-.043-.427-.057.123-.179.236-.038.386-.145-.142.071-.228-.108-.329-.014.068-.128.019-.091.144-.205-.224.1-.069-.054-.24-.041.043-.163.183-.141.049-.219C130.236,211.139,130.375,211.2,130.375,211.2Zm-2.581-1.893,0,0,.061.021Zm-.235-.111a.564.564,0,0,0,.1.054c-.013.048-.043.088-.065.075C127.619,209.3,127.577,209.25,127.559,209.2Zm-.006,1.095c-.038,0-.034-.031-.024-.058a.252.252,0,0,0,.06.016l.012-.012A.454.454,0,0,1,127.553,210.291Z" fill="#4c4a4b"/>
        <path d="M127.7,210.164c.006,0,.011,0,.018,0l0-.038-.033.031Z" fill="#4c4a4b"/>
        <path d="M128.142,218.137h-.006a.053.053,0,0,1,.02.01Z" fill="#4c4a4b"/>
        <polygon points="123.987 208.577 123.996 208.611 124.012 208.575 123.987 208.577" fill="#4c4a4b"/>
        <path d="M129.448,217.568a.063.063,0,0,0,.039.008A.1.1,0,0,0,129.448,217.568Z" fill="#4c4a4b"/>
        <path d="M129.829,217.092l.087-.048A.3.3,0,0,0,129.829,217.092Z" fill="#4c4a4b"/>
        <path d="M130.129,216.719l-.05-.037h0Z" fill="#4c4a4b"/>
        <path d="M123.635,219.571a.044.044,0,0,0-.02,0C123.564,219.585,123.6,219.584,123.635,219.571Z" fill="#4c4a4b"/>
        <path d="M125.893,219.449a.412.412,0,0,1-.063.077C125.87,219.531,125.9,219.529,125.893,219.449Z" fill="#4c4a4b"/>
        <polygon points="121.298 218.4 121.3 218.399 121.288 218.387 121.298 218.4" fill="#4c4a4b"/>
        <path d="M125.728,219.529a.082.082,0,0,0,.1,0A.118.118,0,0,0,125.728,219.529Z" fill="#4c4a4b"/>
        <path d="M130.79,214.761l.009-.022a.1.1,0,0,1-.022,0Z" fill="#4c4a4b"/>
        <path d="M130.777,214.734l-.015-.028C130.761,214.718,130.762,214.729,130.777,214.734Z" fill="#4c4a4b"/>
        <path d="M130.73,214.65l.032.056C130.763,214.688,130.769,214.665,130.73,214.65Z" fill="#4c4a4b"/>
        <path d="M130.62,215.376l.048.018A.16.16,0,0,0,130.62,215.376Z" fill="#4c4a4b"/>
        <path d="M130.587,215.565c.023-.041.135-.086.12-.156l-.039-.015C130.735,215.441,130.515,215.5,130.587,215.565Z" fill="#4c4a4b"/>
        <path d="M129.754,216.078l.088-.119c-.06,0-.138.007-.129-.057C129.5,216.006,129.84,215.913,129.754,216.078Z" fill="#4c4a4b"/>
        <path d="M129.492,216.439c.011-.08-.07-.037-.095-.055C129.419,216.449,129.423,216.465,129.492,216.439Z" fill="#4c4a4b"/>
        <path d="M127.229,218.537l-.046-.12C127.14,218.458,127.2,218.462,127.229,218.537Z" fill="#4c4a4b"/>
        <path d="M126.86,219.381l.085.058-.007-.122A.779.779,0,0,1,126.86,219.381Z" fill="#4c4a4b"/>
        <polygon points="126.27 218.593 126.289 218.569 126.21 218.637 126.27 218.593" fill="#4c4a4b"/>
        <path d="M121.742,217.077l-.111.114C121.679,217.2,121.819,217.093,121.742,217.077Z" fill="#4c4a4b"/>
        <path d="M120.647,215.166c.068-.041.11-.111.028-.135C120.671,215.083,120.619,215.145,120.647,215.166Z" fill="#4c4a4b"/>
        <polygon points="123.73 209.971 123.708 210.035 123.769 209.966 123.73 209.971" fill="#4c4a4b"/>
      </g>
    </g>
    <g>
      <path d="M294.982,139.729l-1.339.6V144.7a1.113,1.113,0,0,1-1.122.882l-1.08.041-.431-1.073q.834.067,1.006.068.56,0,.56-.2v-3.527l-1.258.56-.718-.8q.757-.294,1.976-.881v-2.9H290.9v-1.018h1.681v-2.619h1.067v2.619h1.339v1.018h-1.339V139.2l1.339-.56Zm8.483,4.847-.67.991a10.042,10.042,0,0,1-3.992-1.333,12.27,12.27,0,0,1-4.129,1.545l-.7-.984a11.231,11.231,0,0,0,3.89-1.258,6.369,6.369,0,0,1-1.75-2.338h-1.094v-1.018h3.151v-.855H295.18V134.37a5.3,5.3,0,0,0,2.379-1.025l.615.642v-.95h1.107V138.3h2v-1.217h-1.613v-1.025h1.613v-1.046h-1.853v-1.026h2.912v5.339h-3.063v.855h2.742v.847a10.239,10.239,0,0,1-2.263,2.523A10.261,10.261,0,0,0,303.465,144.576Zm-5.291-6.275v-4.129a5.662,5.662,0,0,1-1.934,1.018v.957h1.586v1.019H296.24V138.3Zm2.469,2.9h-3.35a5.887,5.887,0,0,0,1.537,1.723A7.768,7.768,0,0,0,300.643,141.2Z"/>
      <path d="M309.557,143.018a11.237,11.237,0,0,1-4.006,1.961L304.9,144a9.719,9.719,0,0,0,3.978-1.709Zm7.082-.869-.91.691-.52-.7H311.6v3.513h-1.108v-3.513h-4.717l-.123-.991h2.557l.678-.376L306.8,139.2l.779-.752.52.363a11.6,11.6,0,0,0,1.654-1.538h-3.246v1.483h-1.067v-2.523h5.038v-.991h-4.34v-1.025h4.34V133h1.107v1.217h4.383v1.025h-4.383v.991h5.025v2.448h-1.1v-1.408h-4.977l.451.362a15.479,15.479,0,0,1-2.1,1.832l.922.7a31.52,31.52,0,0,0,3.261-2.556l.936.71a27.774,27.774,0,0,1-4.012,2.831H314.4q-1.038-.876-1.175-.951l.937-.574A10.576,10.576,0,0,1,316.639,142.149Zm.588,1.935-.6.9a10.186,10.186,0,0,0-4.2-1.777l.771-.882A12.553,12.553,0,0,1,317.227,144.084Z"/>
      <path d="M330.227,134.045v1.712l-2.752,2.608a5.876,5.876,0,0,1,1.208.273,2.824,2.824,0,0,1,.944.535,2.377,2.377,0,0,1,.615.864,3.158,3.158,0,0,1,.225,1.256,3.893,3.893,0,0,1-.305,1.616,3.028,3.028,0,0,1-.855,1.12,3.536,3.536,0,0,1-1.344.657,6.993,6.993,0,0,1-1.769.208,12.526,12.526,0,0,1-1.847-.121,9.883,9.883,0,0,1-1.48-.328l.223-1.92q.674.177,1.385.3a8.191,8.191,0,0,0,1.463.128,2.2,2.2,0,0,0,1.256-.328,1.349,1.349,0,0,0,.489-1.208,1.208,1.208,0,0,0-.464-1.08,2.351,2.351,0,0,0-1.313-.312h-1.328v-1.584l2.5-2.511h-3.84v-1.889Z"/>
      <path d="M336.994,134.045a6.6,6.6,0,0,1,2.088.305,3.922,3.922,0,0,1,1.553.927,4.059,4.059,0,0,1,.967,1.6,7.153,7.153,0,0,1,.336,2.32,10.271,10.271,0,0,1-.232,2.241,4.423,4.423,0,0,1-.84,1.807,4.033,4.033,0,0,1-1.688,1.208,7.441,7.441,0,0,1-2.776.441,15.279,15.279,0,0,1-1.648-.1q-.879-.1-1.92-.3V134.045Zm-1.408,8.849c.171.021.328.037.473.047s.29.016.439.016a3.016,3.016,0,0,0,1.288-.239,1.878,1.878,0,0,0,.8-.713,3.1,3.1,0,0,0,.408-1.159,10.166,10.166,0,0,0,.111-1.6,7.611,7.611,0,0,0-.134-1.559,2.869,2.869,0,0,0-.408-1.025,1.543,1.543,0,0,0-.665-.559,2.257,2.257,0,0,0-.9-.168h-1.408Z"/>
      <path d="M347.154,144.686a3.737,3.737,0,0,1-2.256-.6,2.231,2.231,0,0,1-.816-1.928v-8.112h6.384v1.265h-4.7V138.6H350v1.264h-4.24v2.3a1.106,1.106,0,0,0,.392.976,1.833,1.833,0,0,0,1.064.272h3.456v1.265Z"/>
      <path d="M351.73,144.686l3.68-5.393-3.472-5.248h1.936L356.45,138l2.689-3.952h1.791l-3.6,5.2,3.649,5.441H359.01l-2.72-4.161-2.784,4.161Z"/>
      <path d="M362.754,144.686V134.045h3.439a8.335,8.335,0,0,1,1.769.168,3.138,3.138,0,0,1,1.272.568,2.452,2.452,0,0,1,.768,1.04,4.35,4.35,0,0,1,.256,1.6,4.243,4.243,0,0,1-.272,1.608,2.564,2.564,0,0,1-.793,1.073,3.285,3.285,0,0,1-1.248.591,6.67,6.67,0,0,1-1.638.184,11.159,11.159,0,0,1-1.873-.176v3.985Zm1.68-5.248a9.728,9.728,0,0,0,1.7.16,2.632,2.632,0,0,0,1.888-.544,2.221,2.221,0,0,0,.545-1.633,3.245,3.245,0,0,0-.137-1.016,1.4,1.4,0,0,0-.424-.648,1.753,1.753,0,0,0-.736-.344,4.836,4.836,0,0,0-1.073-.1h-1.759Z"/>
      <path d="M375.762,144.686a3.741,3.741,0,0,1-2.256-.6,2.232,2.232,0,0,1-.817-1.928v-8.112h6.385v1.265h-4.7V138.6h4.239v1.264H374.37v2.3a1.1,1.1,0,0,0,.392.976,1.833,1.833,0,0,0,1.064.272h3.455v1.265Z"/>
      <path d="M381.874,144.686V134.045h3.44a8.707,8.707,0,0,1,1.768.16,3.2,3.2,0,0,1,1.272.544,2.34,2.34,0,0,1,.768,1.017,4.207,4.207,0,0,1,.256,1.575,3.515,3.515,0,0,1-.159,1.112,2.644,2.644,0,0,1-.433.809,2.445,2.445,0,0,1-.647.559,3.933,3.933,0,0,1-.825.368,1.931,1.931,0,0,1,.913.672,5.062,5.062,0,0,1,.591,1.2l.944,2.624h-1.744l-.832-2.256a6.7,6.7,0,0,0-.3-.7,2.289,2.289,0,0,0-.384-.544,1.549,1.549,0,0,0-.544-.36,2.079,2.079,0,0,0-.768-.128q-.384,0-.791-.023a6.834,6.834,0,0,1-.84-.1v4.113Zm1.681-5.376c.308.053.6.09.886.111s.553.032.809.032a2.742,2.742,0,0,0,1.889-.512,2.11,2.11,0,0,0,.543-1.6,3.1,3.1,0,0,0-.136-1,1.343,1.343,0,0,0-.424-.623,1.664,1.664,0,0,0-.735-.321,5.721,5.721,0,0,0-1.073-.087h-1.759Z"/>
      <path d="M392.13,144.686V134.045h1.681v10.641Z"/>
      <path d="M400.049,144.686a3.745,3.745,0,0,1-2.256-.6,2.233,2.233,0,0,1-.815-1.928v-8.112h6.383v1.265h-4.7V138.6H402.9v1.264h-4.239v2.3a1.105,1.105,0,0,0,.391.976,1.837,1.837,0,0,0,1.064.272h3.456v1.265Z"/>
      <path d="M406.161,144.686V134.045h1.345l5.807,6.225v-6.225h1.632v10.641h-1.632v-2.4l-5.536-5.855v8.256Z"/>
      <path d="M425.041,144.525a8.623,8.623,0,0,1-1.376.256,12.877,12.877,0,0,1-1.407.08,6.686,6.686,0,0,1-1.985-.272,3.462,3.462,0,0,1-1.5-.911,4.124,4.124,0,0,1-.935-1.7,10.885,10.885,0,0,1,0-5.248,4.062,4.062,0,0,1,.935-1.688,3.42,3.42,0,0,1,1.512-.9,7.234,7.234,0,0,1,2.032-.263,12.4,12.4,0,0,1,1.392.079q.7.081,1.28.192l-.192,1.281a11.809,11.809,0,0,0-1.256-.209,11.538,11.538,0,0,0-1.3-.08,3.8,3.8,0,0,0-1.3.2,1.98,1.98,0,0,0-.92.679,3.292,3.292,0,0,0-.553,1.288,9.307,9.307,0,0,0-.184,2.024,9.5,9.5,0,0,0,.192,2.089,3.341,3.341,0,0,0,.568,1.3,1.977,1.977,0,0,0,.944.672,4.12,4.12,0,0,0,1.32.193,8.761,8.761,0,0,0,1.3-.105q.7-.1,1.3-.231Z"/>
      <path d="M430.417,144.686a3.741,3.741,0,0,1-2.256-.6,2.231,2.231,0,0,1-.815-1.928v-8.112h6.383v1.265h-4.7V138.6h4.241v1.264h-4.241v2.3a1.106,1.106,0,0,0,.392.976,1.831,1.831,0,0,0,1.063.272h3.458v1.265Z"/>
      <path d="M440.213,144.686v-9.311h3.01a7.231,7.231,0,0,1,1.547.147,2.737,2.737,0,0,1,1.113.5,2.124,2.124,0,0,1,.672.91,3.8,3.8,0,0,1,.224,1.4,3.722,3.722,0,0,1-.238,1.407,2.235,2.235,0,0,1-.693.938,2.882,2.882,0,0,1-1.092.518,5.831,5.831,0,0,1-1.436.162,9.68,9.68,0,0,1-1.636-.155v3.487Zm1.471-4.592a8.455,8.455,0,0,0,1.483.139,2.291,2.291,0,0,0,1.651-.476,1.932,1.932,0,0,0,.477-1.428,2.833,2.833,0,0,0-.119-.889,1.222,1.222,0,0,0-.371-.567,1.535,1.535,0,0,0-.644-.3,4.244,4.244,0,0,0-.938-.091h-1.539Z"/>
      <path d="M448.781,144.686V134.465H450.2v10.221Z"/>
      <path d="M457.629,144.35c-.356.1-.782.207-1.281.314a7.658,7.658,0,0,1-1.6.161,5.017,5.017,0,0,1-1.092-.112,2.429,2.429,0,0,1-.875-.37,1.8,1.8,0,0,1-.581-.68,2.348,2.348,0,0,1-.21-1.05,1.9,1.9,0,0,1,.231-.979,1.831,1.831,0,0,1,.609-.631,2.566,2.566,0,0,1,.883-.336,5.6,5.6,0,0,1,1.049-.1q.449,0,.805.035c.238.024.456.054.652.091v-.658a.972.972,0,0,0-.455-.944,2.382,2.382,0,0,0-1.141-.245,5.845,5.845,0,0,0-.98.084q-.5.083-.9.168l-.1-1.065c.3-.065.626-.121.986-.168a8.155,8.155,0,0,1,1.057-.07,5.881,5.881,0,0,1,1.127.1,2.648,2.648,0,0,1,.939.365,1.936,1.936,0,0,1,.637.678,2.115,2.115,0,0,1,.238,1.05Zm-1.414-2.632q-.294-.057-.645-.092c-.233-.022-.47-.035-.714-.035a3.689,3.689,0,0,0-.581.043,1.331,1.331,0,0,0-.476.16.859.859,0,0,0-.321.336,1.169,1.169,0,0,0-.12.567.946.946,0,0,0,.413.889,1.927,1.927,0,0,0,1,.245,5.2,5.2,0,0,0,.791-.056c.248-.037.464-.079.652-.126Z"/>
      <path d="M461.521,143.005a.655.655,0,0,0,.223.567.986.986,0,0,0,.588.161,3.808,3.808,0,0,0,.673-.063,5.673,5.673,0,0,0,.588-.133l.042,1.065a4.053,4.053,0,0,1-.7.168,5.3,5.3,0,0,1-.771.055,2.4,2.4,0,0,1-1.483-.433,1.676,1.676,0,0,1-.574-1.429v-3.976H459v-1.049h1.107l.322-1.947h1.092v1.947h1.959v1.049h-1.959Z"/>
      <path d="M465.482,144.686v-5.7h-1.091v-1.049h1.091v-1.233a2.169,2.169,0,0,1,.735-1.812,3.082,3.082,0,0,1,1.968-.581c.213,0,.438.008.671.027a5.556,5.556,0,0,1,.63.084l-.154,1.051c-.158-.019-.326-.037-.5-.057a4.844,4.844,0,0,0-.517-.027,2.325,2.325,0,0,0-.553.062,1.16,1.16,0,0,0-.448.21,1.032,1.032,0,0,0-.3.4,1.6,1.6,0,0,0-.112.643v1.233h2.184v1.049H466.9v5.7Z"/>
      <path d="M472.875,144.825a3.2,3.2,0,0,1-2.367-.826,4.791,4.791,0,0,1,0-5.376,3.813,3.813,0,0,1,4.74,0,4.758,4.758,0,0,1,0,5.376A3.23,3.23,0,0,1,472.875,144.825Zm-1.274-1.582a1.192,1.192,0,0,0,.545.393,2.277,2.277,0,0,0,.743.111,2.2,2.2,0,0,0,.734-.111,1.186,1.186,0,0,0,.539-.393,1.863,1.863,0,0,0,.336-.749,6.3,6.3,0,0,0,0-2.366,1.87,1.87,0,0,0-.336-.749,1.191,1.191,0,0,0-.539-.392,2.2,2.2,0,0,0-.734-.112,2.276,2.276,0,0,0-.743.112,1.2,1.2,0,0,0-.545.392,1.87,1.87,0,0,0-.336.749,6.249,6.249,0,0,0,0,2.366A1.863,1.863,0,0,0,471.6,143.243Z"/>
      <path d="M477.956,144.686v-6.371a10.989,10.989,0,0,1,1.743-.384,14.4,14.4,0,0,1,1.926-.119v1.12c-.1-.01-.211-.015-.322-.015h-.336a6.641,6.641,0,0,0-.869.057,5.779,5.779,0,0,0-.728.139v5.573Z"/>
      <path d="M483.08,144.686v-6.371q.546-.168,1.316-.342a7.041,7.041,0,0,1,1.583-.176,4.3,4.3,0,0,1,1.133.141,2.356,2.356,0,0,1,.9.448,6.192,6.192,0,0,1,1.176-.421,5.252,5.252,0,0,1,1.289-.168,4.377,4.377,0,0,1,1.043.119,2.147,2.147,0,0,1,.832.4,1.917,1.917,0,0,1,.553.736,2.767,2.767,0,0,1,.2,1.127v4.508h-1.415v-4.453a1.705,1.705,0,0,0-.111-.665,1.067,1.067,0,0,0-.3-.413,1.12,1.12,0,0,0-.455-.217,2.421,2.421,0,0,0-.56-.063,2.947,2.947,0,0,0-.889.126,7.266,7.266,0,0,0-.721.267,2.63,2.63,0,0,1,.14.91v4.508h-1.414v-4.453a1.686,1.686,0,0,0-.112-.665,1.067,1.067,0,0,0-.3-.413,1.124,1.124,0,0,0-.447-.217,2.416,2.416,0,0,0-.568-.063,4.759,4.759,0,0,0-.756.063,6.749,6.749,0,0,0-.7.147v5.6Z"/>
      <path d="M302.1,161.3q0,.928-1.455.929c-.233,0-.518-.006-.856-.02l-.41-1.032q.712.054,1.107.054c.4,0,.6-.121.6-.362v-7.533h-3.555q0,.882-.082,1.723a11.827,11.827,0,0,1,3.076,3.582l-.853.642a12.549,12.549,0,0,0-2.551-3.076,7.1,7.1,0,0,1-3.26,3.37l-.642-.9a7.222,7.222,0,0,0,2.453-2,5.644,5.644,0,0,0,.82-3.343h-3.609v9.044h-1.067V152.318h4.752v-2.372h1v2.372H302.1Z"/>
      <path d="M317.328,157.9l-.629.9a15.334,15.334,0,0,1-2.133-.9V162.4h-1.058v-.739h-5.045v.78H307.4v-4.464a21.7,21.7,0,0,1-1.974.95l-.787-.9q4.526-1.627,6.343-4.621l.883.6-.3.424A12.537,12.537,0,0,0,317.328,157.9Zm-7.7-4.689a9.43,9.43,0,0,1-3.289,2.727l-.854-.758a8.465,8.465,0,0,0,3.377-2.632l.752.663Zm6.85.526h-1.067v-1.579h-8.8v1.682h-1.081v-2.7h4.9V149.81h1.094v1.333h4.957Zm-2.537,3.842a9.288,9.288,0,0,1-2.926-2.413,9.989,9.989,0,0,1-2.994,2.413Zm-.444,1h-5.045v2.044h5.045Zm2.754-3.459-.725.813a10.04,10.04,0,0,0-3.418-2.6l.725-.773A10.043,10.043,0,0,1,316.248,155.128Z"/>
      <path d="M330.994,157.3H327.8V162.4h-1.176V157.3H323.85a4.938,4.938,0,0,1-1.206,2.98,9.891,9.891,0,0,1-2.951,2.085l-.642-.991a7.436,7.436,0,0,0,2.683-1.818,3.378,3.378,0,0,0,1.008-2.256h-3.021v-1.026h3.1q.027-.41.028-2.939h-2.483v-1.019h2.66a5.209,5.209,0,0,0-1.914-2l1-.663a8.077,8.077,0,0,1,1.977,2.2l-.506.464h3.35l-.493-.355a6.651,6.651,0,0,0,1.778-2.352l.935.547a8.1,8.1,0,0,1-1.455,2.16h2.352v1.019H327.8v2.939h3.193Zm-4.328-1.026v-2.939h-2.721l-.041,2.939Z"/>
      <path d="M340.625,158.73l-.93.766a8.525,8.525,0,0,0-2.111-2.755v5.681h-1.061V156.8a11.456,11.456,0,0,1-2.8,3.541l-.936-.67a12.927,12.927,0,0,0,3.582-4.956h-3.021v-1.025h3.131v-1.819a14.033,14.033,0,0,1-2.715.253l-.547-1.053a24.381,24.381,0,0,0,6.734-.977l.629.9a22.419,22.419,0,0,1-3.035.759v1.942H340.5v1.025h-2.953v1.2l.361-.267A11.185,11.185,0,0,1,340.625,158.73Zm1.525,1.019h-1.066v-8.176h1.066Zm2.713,1.4a1.256,1.256,0,0,1-.29.725,1.127,1.127,0,0,1-.973.4l-1.745-.013-.334-1.149,1.9.082c.223-.054.334-.167.334-.335V149.919h1.107Z"/>
      <path d="M357.955,161.137a1.23,1.23,0,0,1-.287.827.91.91,0,0,1-.719.335h-1.455l-.342-1.094,1.162.034q.534,0,.534-.314v-3.206H353.8v3.739h-1.067v-3.739h-3.076a7.845,7.845,0,0,1-2.045,4.792l-.9-.677a8.549,8.549,0,0,0,1.467-2.4,7.667,7.667,0,0,0,.455-2.751v-6.235h9.324Zm-5.223-7.616v-2.043H349.7v2.043Zm0,3.179v-2.16H349.7v2.16Zm4.116-3.179v-2.043H353.8v2.043Zm0,3.179v-2.16H353.8v2.16Z"/>
      <path d="M365.707,156.317a2.7,2.7,0,0,1,2.412-1.326,2.775,2.775,0,0,1,2.092.909,3.244,3.244,0,0,1,.861,2.325,3.6,3.6,0,0,1-.857,2.429,2.851,2.851,0,0,1-2.279,1,3.267,3.267,0,0,1-2.458-1.066q-1.016-1.067-1.015-3.794a7.2,7.2,0,0,1,.919-4.03,3.022,3.022,0,0,1,2.663-1.35,2.931,2.931,0,0,1,1.906.629,2.77,2.77,0,0,1,.951,1.866l-1.23.11q-.336-1.594-1.7-1.593a1.968,1.968,0,0,0-1.622.936,5.1,5.1,0,0,0-.675,2.953Zm2.2,4.328a1.653,1.653,0,0,0,1.373-.684,2.627,2.627,0,0,0,.528-1.654,2.43,2.43,0,0,0-.528-1.607,1.739,1.739,0,0,0-1.414-.636,1.9,1.9,0,0,0-1.4.6,2.153,2.153,0,0,0-.588,1.576,2.6,2.6,0,0,0,.578,1.7A1.8,1.8,0,0,0,367.908,160.645Z"/>
      <path d="M384.725,151.464l-2.762,10.021h-1.272l-2.187-7.9a8.273,8.273,0,0,1-.219-.923h-.027l-.281,1.189-2.133,7.629H374.5l-2.672-10.021h1.354l1.544,6.576c.206.861.334,1.494.389,1.9.01.082.014.13.014.144h.027q.274-1.3.432-1.859l1.906-6.761h1.613l1.422,5.065a27.658,27.658,0,0,1,.774,3.555h.027q.144-.815.479-2.181l1.578-6.439Z"/>
      <path d="M393.119,152.653H389.8v8.832h-1.332v-8.832h-3.289v-1.189h7.937Z"/>
      <path d="M400.652,161.485h-1.293a2.775,2.775,0,0,1-.252-.9,4.02,4.02,0,0,1-2.673,1.066,2.669,2.669,0,0,1-1.811-.574,2.057,2.057,0,0,1-.024-3,4.035,4.035,0,0,1,2.217-.775l1.149-.171a5.939,5.939,0,0,0,1.06-.253,5.84,5.84,0,0,0-.035-.783,1.151,1.151,0,0,0-.2-.475,1.139,1.139,0,0,0-.537-.4,2.661,2.661,0,0,0-.99-.151,2.315,2.315,0,0,0-1.255.294,1.621,1.621,0,0,0-.632,1.094l-1.2-.157a2.444,2.444,0,0,1,1.017-1.675,3.95,3.95,0,0,1,2.256-.561,3.7,3.7,0,0,1,1.918.386,1.586,1.586,0,0,1,.752.934,5.788,5.788,0,0,1,.141,1.408v1.654q0,1.511.057,2.027A2.619,2.619,0,0,0,400.652,161.485Zm-1.627-3.192v-.444a13.087,13.087,0,0,1-2.359.508q-1.4.189-1.395,1.18a1.038,1.038,0,0,0,.377.823,1.6,1.6,0,0,0,1.081.326,2.527,2.527,0,0,0,1.6-.544A2.217,2.217,0,0,0,399.025,158.293Z"/>
      <path d="M408.09,160.508a6.51,6.51,0,0,1-.309,2.306A2.31,2.31,0,0,1,406.688,164a3.915,3.915,0,0,1-1.879.424,3.623,3.623,0,0,1-2.051-.547,1.994,1.994,0,0,1-.82-1.791l1.195.184a1.162,1.162,0,0,0,.482.862,2.059,2.059,0,0,0,1.18.287,2.087,2.087,0,0,0,1.4-.39,1.6,1.6,0,0,0,.544-.95,9.367,9.367,0,0,0,.1-1.545,2.525,2.525,0,0,1-2.016.95,2.792,2.792,0,0,1-2.273-1.046,4.022,4.022,0,0,1-.858-2.638,4.2,4.2,0,0,1,.834-2.666,2.771,2.771,0,0,1,2.311-1.067,2.534,2.534,0,0,1,2.092,1.033h.027v-.869h1.135Zm-3.152-.028a1.893,1.893,0,0,0,1.394-.626,2.942,2.942,0,0,0,.609-2.094,3.021,3.021,0,0,0-.582-1.993,1.8,1.8,0,0,0-1.435-.694,1.72,1.72,0,0,0-1.425.711,3.894,3.894,0,0,0,.027,4.036A1.805,1.805,0,0,0,404.938,160.48Z"/>
      <path d="M413.982,156.263a1.267,1.267,0,0,0-.482-.893,1.831,1.831,0,0,0-1.111-.3,2.336,2.336,0,0,0-1.138.24.755.755,0,0,0-.435.7.643.643,0,0,0,.346.615,7.393,7.393,0,0,0,1.363.451,15.087,15.087,0,0,1,1.72.52,2.056,2.056,0,0,1,.889.632,1.794,1.794,0,0,1,.317,1.131,2.047,2.047,0,0,1-.793,1.634,3.194,3.194,0,0,1-2.119.663,3.512,3.512,0,0,1-2.156-.585,2.559,2.559,0,0,1-.953-1.753l1.222-.184a1.652,1.652,0,0,0,.565,1.135,2.041,2.041,0,0,0,1.308.376,1.974,1.974,0,0,0,1.239-.339,1.015,1.015,0,0,0,.429-.824.711.711,0,0,0-.2-.526,1.255,1.255,0,0,0-.5-.3c-.2-.065-.644-.183-1.336-.351a4.286,4.286,0,0,1-2.041-.9,1.773,1.773,0,0,1-.5-1.258,1.846,1.846,0,0,1,.725-1.5,3,3,0,0,1,1.949-.588,3.461,3.461,0,0,1,2.019.509,2.133,2.133,0,0,1,.866,1.522Z"/>
      <path d="M433.205,160.686l-.691.84a9.408,9.408,0,0,1-5.147-4.9v5.66H426.3V156.6a8.368,8.368,0,0,1-5.012,4.874l-.717-.8a11.61,11.61,0,0,0,3.022-1.805,7.142,7.142,0,0,0,1.627-2.18h-4.28v-1.026h5.332v-3.206h-4.806v-1.018h4.806v-1.573h1.094v1.573h4.942v1.018h-4.942v3.206h5.455v1.026h-4.306a7.5,7.5,0,0,0,1.933,2.337A9.355,9.355,0,0,0,433.205,160.686Zm-7.773-5.77-.909.608a5.235,5.235,0,0,0-1.962-2.4l.841-.561A4.988,4.988,0,0,1,425.432,154.916Zm5.742-1.777a6.538,6.538,0,0,1-2.016,2.385l-.883-.622a7.355,7.355,0,0,0,2.045-2.249Z"/>
      <path d="M446.781,161.725H434.633V160.7h4.238v-4.477h1.067V160.7H441.5v-4.477h1.066V160.7h4.211Zm-8.47-1.832-.977.54a8.223,8.223,0,0,0-2.127-3.343l.82-.574A8.723,8.723,0,0,1,438.311,159.893Zm6.214-4.287H437v-5.1h7.527Zm-1.06-3.137v-.937h-5.406v.937Zm0,2.112v-1.087h-5.406v1.087Zm2.447,2.324a8.833,8.833,0,0,1-2.111,3.487l-.951-.561a9.024,9.024,0,0,0,2.195-3.343Z"/>
      <path d="M453.07,156.358a12.489,12.489,0,0,1-3.166,4.328l-.744-.766a10.924,10.924,0,0,0,1.8-1.98,7.855,7.855,0,0,0,1.209-2.169Zm7.2-1.408H455.6v6.378a.939.939,0,0,1-.4.837,1.667,1.667,0,0,1-1.018.25q-.62-.021-1.351-.007l-.416-1.2a13.566,13.566,0,0,0,1.5.1c.387,0,.58-.142.58-.424V154.95h-4.791v-1.025h10.568Zm-.9-3.042h-8.715V150.89h8.715Zm1.559,8.053-.868.725a11.783,11.783,0,0,0-3.39-4.129l.826-.725A11.773,11.773,0,0,1,460.938,159.961Z"/>
      <path d="M474,161.3q0,.928-1.457.929c-.232,0-.517-.006-.854-.02l-.41-1.032q.711.054,1.108.054c.4,0,.6-.121.6-.362v-7.533h-3.554q0,.882-.082,1.723a11.868,11.868,0,0,1,3.076,3.582l-.856.642a12.517,12.517,0,0,0-2.549-3.076,7.1,7.1,0,0,1-3.261,3.37l-.643-.9a7.221,7.221,0,0,0,2.455-2,5.644,5.644,0,0,0,.82-3.343h-3.609v9.044h-1.066V152.318h4.75v-2.372h1.006v2.372H474Z"/>
      <path d="M303.328,174.7l-.629.9a15.334,15.334,0,0,1-2.133-.9v4.491h-1.058v-.738h-5.045v.779H293.4v-4.464a21.129,21.129,0,0,1-1.974.951l-.787-.9q4.526-1.626,6.343-4.621l.883.6-.3.423A12.521,12.521,0,0,0,303.328,174.7Zm-7.7-4.689a9.43,9.43,0,0,1-3.289,2.727l-.854-.759a8.447,8.447,0,0,0,3.377-2.631l.752.663Zm6.85.526h-1.067v-1.579h-8.8v1.682h-1.081v-2.7h4.9v-1.333h1.094v1.333h4.957Zm-2.537,3.842a9.275,9.275,0,0,1-2.926-2.413,9.974,9.974,0,0,1-2.994,2.413Zm-.444,1h-5.045v2.044h5.045Zm2.754-3.459-.725.813a10.015,10.015,0,0,0-3.418-2.6l.725-.773A10.056,10.056,0,0,1,302.248,171.928Z"/>
      <path d="M309.406,177.417l-2.324,1.217-.637-.9a1.375,1.375,0,0,0,.049-.492v-5.2H304.73v-1.025h2.823v6.2l1.853-.95Zm-1.224-8.176-.881.67a6.152,6.152,0,0,0-1.778-2.112l.745-.643A6.092,6.092,0,0,1,308.182,169.241Zm8.908,4.245h-8.668v-1.025h2.365l.41-2.017H309.5v-1.018h1.887l.224-1.121h-2.685v-1.026h7.306v1.026h-3.541l-.224,1.121h3.068l-.307,3.035h1.86Zm-1.485,5.777h-1.066v-.9h-3.527v.9h-1.067v-4.984h5.66Zm-1.066-1.914v-2.044h-3.527v2.044Zm-.164-6.905h-2.092l-.4,2.017h2.283Z"/>
      <path d="M331.355,178.4l-.771.881a16.87,16.87,0,0,1-5.387-2.823,12.327,12.327,0,0,1-5.892,2.81l-.561-1.046a11.084,11.084,0,0,0,5.666-2.523,12.941,12.941,0,0,1-3.082-7.444l1.012-.451a19.054,19.054,0,0,0,1.14,4.652,7.019,7.019,0,0,0,1.69,2.4,12.811,12.811,0,0,0,2.713-6.912l1.019.39q-.793,4.958-2.912,7.294A12,12,0,0,0,331.355,178.4Zm-5.181-8.457-.963.588a7.738,7.738,0,0,0-1.791-3.219l.922-.472A7.658,7.658,0,0,1,326.174,169.938Z"/>
      <path d="M344.994,174.1H341.8v5.092h-1.176V174.1H337.85a4.936,4.936,0,0,1-1.206,2.98,9.873,9.873,0,0,1-2.951,2.085l-.642-.991a7.4,7.4,0,0,0,2.683-1.819,3.371,3.371,0,0,0,1.008-2.255h-3.021v-1.026h3.1q.027-.41.028-2.939h-2.483v-1.019h2.66a5.216,5.216,0,0,0-1.914-2l1-.663a8.1,8.1,0,0,1,1.977,2.2l-.506.465h3.35l-.493-.355a6.642,6.642,0,0,0,1.778-2.352l.935.547a8.079,8.079,0,0,1-1.455,2.16h2.352v1.019H341.8v2.939h3.193Zm-4.328-1.026v-2.939h-2.721l-.041,2.939Z"/>
      <path d="M351.516,177.164l-4.17,1.538-.52-.964,4.69-1.606Zm.136-6.774a14.409,14.409,0,0,1-2.953,4.258l.028.028,2.83-.732v.978q-2.052.507-4.006,1.107l-.5-.936a15.442,15.442,0,0,0,1.982-2.324,15.03,15.03,0,0,0-1.51.423l-.533-.97a31.526,31.526,0,0,0,2.283-4.9l.957.438q-1.224,2.85-1.962,4.156.3-.04,1.47-.294a17.016,17.016,0,0,0,.936-1.682Zm6.864,8.7h-1.067v-.957h-4.342v.957h-1.058V167.628h6.467Zm-3.768-6.822v-3.61h-1.641v3.61Zm0,4.846v-3.821h-1.641v3.821Zm2.7-4.846v-3.61h-1.635v3.61Zm0,4.846v-3.821h-1.635v3.821Z"/>
      <path d="M365.3,167.026a16.4,16.4,0,0,1-.766,2.161l-.519,1.216v8.682h-1.08v-7a8.29,8.29,0,0,1-1.524,1.661l-.76-.807a13.514,13.514,0,0,0,3.713-6.357Zm7.984,8.361a6.3,6.3,0,0,1-.645,2.649,1.458,1.458,0,0,1-1.275.666h-2.912a1.669,1.669,0,0,1-1.166-.389,1.355,1.355,0,0,1-.428-1.053v-10.3h1.061v5.086a15,15,0,0,0,3.629-3.575l.924.635a16.259,16.259,0,0,1-4.553,4.211v3.767q0,.575.771.574h2.475q.964,0,1.025-2.659Z"/>
      <path d="M378.982,173.329l-1.339.6V178.3a1.113,1.113,0,0,1-1.122.882l-1.08.041-.431-1.074q.834.069,1.006.069.56,0,.56-.2v-3.528l-1.258.561-.718-.8q.757-.293,1.976-.882v-2.9H374.9v-1.019h1.681v-2.618h1.067v2.618h1.339v1.019h-1.339V172.8l1.339-.561Zm8.483,4.847-.67.991a10.011,10.011,0,0,1-3.992-1.333,12.249,12.249,0,0,1-4.129,1.545l-.7-.984a11.21,11.21,0,0,0,3.89-1.258,6.369,6.369,0,0,1-1.75-2.338h-1.094V173.78h3.151v-.854H379.18V167.97a5.263,5.263,0,0,0,2.379-1.026l.615.643v-.95h1.107V171.9h2v-1.216h-1.613v-1.026h1.613v-1.046h-1.853v-1.025h2.912v5.339h-3.063v.854h2.742v.848a10.216,10.216,0,0,1-2.263,2.522A10.2,10.2,0,0,0,387.465,178.176Zm-5.291-6.276v-4.129a5.632,5.632,0,0,1-1.934,1.019v.957h1.586v1.019H380.24V171.9Zm2.469,2.9h-3.35a5.856,5.856,0,0,0,1.537,1.722A7.765,7.765,0,0,0,384.643,174.8Z"/>
      <path d="M393.557,176.617a11.205,11.205,0,0,1-4.006,1.962l-.656-.977a9.705,9.705,0,0,0,3.978-1.709Zm7.082-.868-.91.69-.52-.7H395.6v3.514h-1.108v-3.514h-4.717l-.123-.991h2.557l.678-.376L390.8,172.8l.779-.752.52.362a11.429,11.429,0,0,0,1.654-1.538h-3.246v1.484h-1.067v-2.523h5.038v-.991h-4.34v-1.025h4.34V166.6h1.107v1.217h4.383v1.025h-4.383v.991h5.025v2.447h-1.1v-1.408h-4.977l.451.362a15.418,15.418,0,0,1-2.1,1.833l.922.7a31.384,31.384,0,0,0,3.261-2.557l.936.711a27.669,27.669,0,0,1-4.012,2.83H398.4q-1.038-.874-1.175-.95l.937-.574A10.576,10.576,0,0,1,400.639,175.749Zm.588,1.935-.6.9a10.212,10.212,0,0,0-4.2-1.777l.771-.882A12.576,12.576,0,0,1,401.227,177.684Z"/>
      <path d="M407.7,174.505q-.759.212-2.152.537t-2.065.543l-.505-.937a14.977,14.977,0,0,0,1.988-2.324q-1.094.274-1.51.417l-.533-.964a32.691,32.691,0,0,0,2.351-5l.957.445q-1.238,2.823-2.031,4.245c.2-.028.692-.125,1.471-.294a14.581,14.581,0,0,0,.881-1.545l.937.506a16.638,16.638,0,0,1-2.775,4.006l.027.027,2.959-.67Zm.192,2.228-4.368,1.484-.513-.971q4.327-1.407,4.881-1.579Zm7.158-6.863h-3.363v1.921h2.658v1h-6.336v-1h2.617V169.87h-3.137v-1h3.137v-2.3h1.061v2.3h3.363Zm-1.108,9.338h-1.066v-.964h-3.426v.964h-1.066v-5.065h5.558Zm-1.066-1.976v-2.085h-3.426v2.085Z"/>
      <path d="M429.424,177.561l-.643.895a10.274,10.274,0,0,1-5.236-3.534v4.3l-1.08-.028v-4.238a8.948,8.948,0,0,1-5.078,3.527l-.733-.854a9.032,9.032,0,0,0,4.608-2.687h-3.944v-1.025h5.161v-.991H418.7v-5.674h8.655v5.674h-3.809v.991H428.7v1.025h-3.828A9.272,9.272,0,0,0,429.424,177.561Zm-6.945-7.985v-1.3h-2.713v1.3Zm0,2.324v-1.3h-2.713v1.3Zm3.808-2.324v-1.3h-2.742v1.3Zm0,2.324v-1.3h-2.742v1.3Z"/>
    </g>
  </g>
</svg>
