<svg xmlns="http://www.w3.org/2000/svg" viewBox="0 0 560 380">
  <g>
    <path d="M16.813,246v-8.59h3.222a3.984,3.984,0,0,1,1.579.261,2.028,2.028,0,0,1,.932.8,2.111,2.111,0,0,1,.337,1.133,1.953,1.953,0,0,1-.3,1.038,2.133,2.133,0,0,1-.9.785,2.242,2.242,0,0,1,1.2.779,2.089,2.089,0,0,1,.419,1.3,2.51,2.51,0,0,1-.255,1.122,2.176,2.176,0,0,1-.63.8,2.64,2.64,0,0,1-.94.425,5.76,5.76,0,0,1-1.386.143Zm1.136-4.98h1.858a4.159,4.159,0,0,0,1.084-.1,1.208,1.208,0,0,0,.653-.428,1.235,1.235,0,0,0,.22-.75,1.389,1.389,0,0,0-.2-.753,1.041,1.041,0,0,0-.586-.445,4.9,4.9,0,0,0-1.307-.12H17.949Zm0,3.966h2.139a4.833,4.833,0,0,0,.773-.041,1.847,1.847,0,0,0,.657-.234,1.246,1.246,0,0,0,.433-.478,1.5,1.5,0,0,0,.17-.723,1.428,1.428,0,0,0-.246-.835,1.3,1.3,0,0,0-.683-.5,4.218,4.218,0,0,0-1.256-.144H17.949Z"/>
    <path d="M28.789,243.718l1.037.135a2.687,2.687,0,0,1-.87,1.678,2.532,2.532,0,0,1-1.72.607,2.672,2.672,0,0,1-2.053-.835,3.388,3.388,0,0,1-.777-2.394,4.336,4.336,0,0,1,.334-1.763,2.332,2.332,0,0,1,1.017-1.134,3.015,3.015,0,0,1,1.485-.378,2.584,2.584,0,0,1,1.658.512,2.357,2.357,0,0,1,.827,1.457l-1.026.158a1.7,1.7,0,0,0-.518-.944,1.342,1.342,0,0,0-.9-.316,1.637,1.637,0,0,0-1.3.571,2.714,2.714,0,0,0-.5,1.808,2.8,2.8,0,0,0,.481,1.822,1.563,1.563,0,0,0,1.254.569,1.478,1.478,0,0,0,1.037-.381A1.892,1.892,0,0,0,28.789,243.718Z"/>
    <path d="M35.627,239.774V246H34.578v-2.426h-.609a1.839,1.839,0,0,0-.829.144,3.068,3.068,0,0,0-.794.923L31.426,246H30.119l1.137-1.676a1.822,1.822,0,0,1,1.037-.867,2.013,2.013,0,0,1-1.339-.65,1.848,1.848,0,0,1-.436-1.213,1.668,1.668,0,0,1,.571-1.313,2.427,2.427,0,0,1,1.655-.5Zm-1.049.873h-1.5a1.737,1.737,0,0,0-1.216.293.979.979,0,0,0-.272.686.9.9,0,0,0,.4.817,2.776,2.776,0,0,0,1.421.261h1.166Z"/>
    <path d="M40.561,239.774h1.054v4.747l2.924-4.747h1.137V246H44.621V241.28L41.7,246H40.561Z"/>
    <path d="M47.27,239.774h1.054v2.59h2.924v-2.59H52.3V246H51.248v-2.76H48.324V246H47.27Z"/>
    <path d="M57.512,237.407h1.054v2.971a2.214,2.214,0,0,1,.721-.56,1.96,1.96,0,0,1,.844-.184,2.035,2.035,0,0,1,1.755.923,3.951,3.951,0,0,1,.647,2.323,3.738,3.738,0,0,1-.7,2.358,2.116,2.116,0,0,1-1.734.9,2.381,2.381,0,0,1-.692-.106,2.324,2.324,0,0,1-.844-.574v2.924H57.512v-2.924a2.153,2.153,0,0,1-.7.51,2.034,2.034,0,0,1-.83.17,2.194,2.194,0,0,1-1.711-.859,3.682,3.682,0,0,1-.732-2.458,3.778,3.778,0,0,1,.662-2.27,2.086,2.086,0,0,1,1.781-.917,1.923,1.923,0,0,1,.85.184,1.968,1.968,0,0,1,.68.56Zm-2.9,5.385a3.169,3.169,0,0,0,.443,1.9,1.335,1.335,0,0,0,1.1.581,1.115,1.115,0,0,0,1.026-.578,3.492,3.492,0,0,0,.34-1.731,3.765,3.765,0,0,0-.358-1.846,1.167,1.167,0,0,0-1.078-.615,1.238,1.238,0,0,0-1.061.6A2.975,2.975,0,0,0,54.611,242.792Zm3.95.117a3.224,3.224,0,0,0,.386,1.89,1.191,1.191,0,0,0,.967.483,1.347,1.347,0,0,0,1.1-.594,3.055,3.055,0,0,0,.454-1.849,3.023,3.023,0,0,0-.419-1.764,1.274,1.274,0,0,0-1.075-.58,1.15,1.15,0,0,0-1.058.6A3.656,3.656,0,0,0,58.561,242.909Z"/>
    <path d="M63.371,242.886a3.207,3.207,0,0,1,.961-2.561,2.9,2.9,0,0,1,1.957-.691,2.79,2.79,0,0,1,2.1.841A3.2,3.2,0,0,1,69.2,242.8a4.121,4.121,0,0,1-.36,1.89,2.555,2.555,0,0,1-1.049,1.069,3.053,3.053,0,0,1-1.5.381,2.8,2.8,0,0,1-2.112-.838A3.348,3.348,0,0,1,63.371,242.886Zm1.084,0a2.649,2.649,0,0,0,.522,1.79,1.736,1.736,0,0,0,2.619,0,2.718,2.718,0,0,0,.521-1.822,2.572,2.572,0,0,0-.524-1.749,1.738,1.738,0,0,0-2.616,0A2.635,2.635,0,0,0,64.455,242.886Z"/>
    <path d="M70.438,248.382v-8.608h.96v.809a2.378,2.378,0,0,1,.768-.712,2.111,2.111,0,0,1,1.037-.237,2.461,2.461,0,0,1,1.406.41,2.51,2.51,0,0,1,.92,1.157,4.226,4.226,0,0,1,.311,1.638,4.153,4.153,0,0,1-.343,1.72,2.609,2.609,0,0,1-2.37,1.579,1.987,1.987,0,0,1-.946-.223,2.153,2.153,0,0,1-.689-.562v3.029Zm.955-5.461a2.707,2.707,0,0,0,.486,1.775,1.492,1.492,0,0,0,1.178.575,1.527,1.527,0,0,0,1.2-.595,2.823,2.823,0,0,0,.5-1.843,2.742,2.742,0,0,0-.49-1.781,1.47,1.47,0,0,0-1.168-.592,1.519,1.519,0,0,0-1.193.63A2.816,2.816,0,0,0,71.393,242.921Z"/>
    <path d="M77.141,239.774h1.64l1.635,4.981,1.816-4.981H83.75V246H82.7v-5.01L80.855,246h-.943l-1.74-5.25V246H77.141Z"/>
    <path d="M89.422,245.229a3.926,3.926,0,0,1-1.128.7,3.274,3.274,0,0,1-1.163.205,2.261,2.261,0,0,1-1.576-.5A1.655,1.655,0,0,1,85,244.356a1.7,1.7,0,0,1,.208-.835,1.725,1.725,0,0,1,.545-.606,2.554,2.554,0,0,1,.759-.346,7.707,7.707,0,0,1,.937-.158,9.638,9.638,0,0,0,1.881-.363c0-.145.006-.236.006-.276a1.166,1.166,0,0,0-.3-.908,1.767,1.767,0,0,0-1.2-.357,1.864,1.864,0,0,0-1.1.261,1.589,1.589,0,0,0-.524.922l-1.031-.14a2.558,2.558,0,0,1,.462-1.07,2.031,2.031,0,0,1,.932-.626,4.142,4.142,0,0,1,1.412-.22,3.74,3.74,0,0,1,1.3.187,1.718,1.718,0,0,1,.733.472,1.666,1.666,0,0,1,.328.718,5.972,5.972,0,0,1,.052.972v1.407a14.861,14.861,0,0,0,.068,1.86,2.363,2.363,0,0,0,.266.747h-1.1A2.221,2.221,0,0,1,89.422,245.229Zm-.088-2.355a7.736,7.736,0,0,1-1.723.4,4.031,4.031,0,0,0-.92.211.931.931,0,0,0-.416.343.908.908,0,0,0-.146.5.9.9,0,0,0,.319.7,1.373,1.373,0,0,0,.935.282,2.175,2.175,0,0,0,1.084-.267,1.641,1.641,0,0,0,.7-.73,2.547,2.547,0,0,0,.17-1.054Z"/>
    <path d="M92.053,239.774h1.054v5.356h2.918v-5.356H97.08v5.356h.68v2.631h-.867V246h-4.84Z"/>
    <path d="M98.908,239.774h1.055v4.747l2.924-4.747h1.136V246h-1.054V241.28L100.045,246H98.908Z"/>
    <path d="M110.51,239.774V246h-1.049v-2.426h-.609a1.843,1.843,0,0,0-.83.144,3.084,3.084,0,0,0-.793.923l-.92,1.359H105l1.137-1.676a1.819,1.819,0,0,1,1.037-.867,2.013,2.013,0,0,1-1.339-.65,1.849,1.849,0,0,1-.437-1.213,1.669,1.669,0,0,1,.572-1.313,2.427,2.427,0,0,1,1.655-.5Zm-1.049.873h-1.5a1.737,1.737,0,0,0-1.216.293.974.974,0,0,0-.272.686.9.9,0,0,0,.4.817,2.776,2.776,0,0,0,1.421.261h1.166Z"/>
    <path d="M112.385,246v-1.2h1.2V246a2.133,2.133,0,0,1-.234,1.069,1.528,1.528,0,0,1-.745.63l-.293-.451a1,1,0,0,0,.493-.431,1.828,1.828,0,0,0,.175-.817Z"/>
    <path d="M21.207,258.118l1.037.135a2.689,2.689,0,0,1-.87,1.679,2.536,2.536,0,0,1-1.72.606A2.669,2.669,0,0,1,17.6,259.7a3.385,3.385,0,0,1-.777-2.393,4.344,4.344,0,0,1,.334-1.764,2.332,2.332,0,0,1,1.017-1.134,3.015,3.015,0,0,1,1.485-.378,2.579,2.579,0,0,1,1.658.513A2.355,2.355,0,0,1,22.145,256l-1.026.158a1.7,1.7,0,0,0-.518-.943,1.343,1.343,0,0,0-.9-.317,1.638,1.638,0,0,0-1.3.572,2.711,2.711,0,0,0-.5,1.807,2.8,2.8,0,0,0,.481,1.823,1.565,1.565,0,0,0,1.254.568,1.478,1.478,0,0,0,1.037-.381A1.889,1.889,0,0,0,21.207,258.118Z"/>
    <path d="M23.152,254.175h2.432a4.43,4.43,0,0,1,1.333.149,1.61,1.61,0,0,1,.75.548,1.5,1.5,0,0,1,.313.955,1.572,1.572,0,0,1-.184.777,1.506,1.506,0,0,1-.554.553,1.463,1.463,0,0,1,.73.548,1.585,1.585,0,0,1,.29.952,1.678,1.678,0,0,1-.633,1.313,2.769,2.769,0,0,1-1.67.427H23.152Zm1.055,2.619h1.125a4.028,4.028,0,0,0,.926-.07.968.968,0,0,0,.451-.285.81.81,0,0,0-.149-1.2,2.643,2.643,0,0,0-1.193-.193h-1.16Zm0,2.736H25.6a2.527,2.527,0,0,0,1.23-.208.813.813,0,0,0,.352-.718.9.9,0,0,0-.194-.553.83.83,0,0,0-.5-.322,5.194,5.194,0,0,0-1-.068H24.207Z"/>
    <path d="M34.285,254.175V260.4H33.236v-2.425h-.609a1.855,1.855,0,0,0-.829.143,3.1,3.1,0,0,0-.794.923l-.92,1.359H28.777l1.137-1.675a1.821,1.821,0,0,1,1.037-.868,2.011,2.011,0,0,1-1.339-.65,1.846,1.846,0,0,1-.436-1.213,1.666,1.666,0,0,1,.571-1.312,2.428,2.428,0,0,1,1.655-.5Zm-1.049.873h-1.5a1.732,1.732,0,0,0-1.215.293.973.973,0,0,0-.273.685.907.907,0,0,0,.4.818,2.781,2.781,0,0,0,1.421.26h1.166Z"/>
    <path d="M37.262,257.585v-.826a6.065,6.065,0,0,0,.911-.053.856.856,0,0,0,.46-.281.833.833,0,0,0,.217-.586.872.872,0,0,0-.285-.683,1.057,1.057,0,0,0-.735-.255,1.3,1.3,0,0,0-1.248,1.049l-1-.164a2.39,2.39,0,0,1,3.823-1.207,1.744,1.744,0,0,1,.566,1.3,1.369,1.369,0,0,1-.739,1.213,1.783,1.783,0,0,1,.7.641,1.761,1.761,0,0,1,.234.923,1.706,1.706,0,0,1-.609,1.36,2.548,2.548,0,0,1-1.7.521,2.188,2.188,0,0,1-2.467-1.892l.99-.211a1.575,1.575,0,0,0,.548.925,1.477,1.477,0,0,0,.946.328,1.323,1.323,0,0,0,.888-.3,1.015,1.015,0,0,0,.132-1.4.957.957,0,0,0-.475-.337,4.186,4.186,0,0,0-.914-.067Z"/>
    <path d="M45.447,259.63a3.917,3.917,0,0,1-1.128.7,3.252,3.252,0,0,1-1.163.2,2.262,2.262,0,0,1-1.576-.5,1.655,1.655,0,0,1-.551-1.28,1.709,1.709,0,0,1,.208-.835,1.738,1.738,0,0,1,.545-.607,2.575,2.575,0,0,1,.759-.345,7.351,7.351,0,0,1,.938-.158,9.626,9.626,0,0,0,1.88-.364c0-.144.006-.236.006-.275a1.159,1.159,0,0,0-.3-.908,1.76,1.76,0,0,0-1.2-.358,1.858,1.858,0,0,0-1.1.261,1.588,1.588,0,0,0-.525.923l-1.031-.141a2.555,2.555,0,0,1,.463-1.069,2.021,2.021,0,0,1,.931-.627,4.148,4.148,0,0,1,1.413-.22,3.742,3.742,0,0,1,1.3.188,1.707,1.707,0,0,1,.732.471,1.66,1.66,0,0,1,.328.718,5.953,5.953,0,0,1,.053.973v1.406a14.918,14.918,0,0,0,.067,1.86,2.341,2.341,0,0,0,.267.747h-1.1A2.253,2.253,0,0,1,45.447,259.63Zm-.088-2.356a7.715,7.715,0,0,1-1.722.4,3.95,3.95,0,0,0-.92.211.908.908,0,0,0-.416.343.93.93,0,0,0,.173,1.2,1.375,1.375,0,0,0,.934.281,2.172,2.172,0,0,0,1.084-.267,1.634,1.634,0,0,0,.7-.729,2.536,2.536,0,0,0,.17-1.055Z"/>
    <path d="M48.066,254.175h1.055v2.59h2.924v-2.59H53.1V260.4H52.045v-2.759H49.121V260.4H48.066Z"/>
    <path d="M54.693,254.175h1.055v2.59h2.924v-2.59h1.055V260.4H58.672v-2.759H55.748V260.4H54.693Z"/>
    <path d="M65.375,259.63a3.943,3.943,0,0,1-1.128.7,3.252,3.252,0,0,1-1.163.2,2.261,2.261,0,0,1-1.576-.5,1.655,1.655,0,0,1-.551-1.28,1.7,1.7,0,0,1,.208-.835,1.729,1.729,0,0,1,.545-.607,2.575,2.575,0,0,1,.759-.345,7.328,7.328,0,0,1,.937-.158,9.623,9.623,0,0,0,1.881-.364c0-.144.006-.236.006-.275a1.163,1.163,0,0,0-.3-.908,1.76,1.76,0,0,0-1.2-.358,1.864,1.864,0,0,0-1.1.261,1.592,1.592,0,0,0-.524.923l-1.031-.141a2.542,2.542,0,0,1,.463-1.069,2.016,2.016,0,0,1,.931-.627,4.142,4.142,0,0,1,1.412-.22,3.734,3.734,0,0,1,1.295.188,1.717,1.717,0,0,1,.733.471,1.672,1.672,0,0,1,.328.718,5.953,5.953,0,0,1,.053.973v1.406a14.918,14.918,0,0,0,.067,1.86,2.341,2.341,0,0,0,.267.747h-1.1A2.231,2.231,0,0,1,65.375,259.63Zm-.088-2.356a7.727,7.727,0,0,1-1.723.4,3.952,3.952,0,0,0-.919.211.908.908,0,0,0-.416.343.931.931,0,0,0,.172,1.2,1.378,1.378,0,0,0,.935.281,2.172,2.172,0,0,0,1.084-.267,1.639,1.639,0,0,0,.7-.729,2.553,2.553,0,0,0,.17-1.055Z"/>
    <path d="M72.887,254.175V260.4H71.838v-2.425h-.609a1.859,1.859,0,0,0-.83.143,3.111,3.111,0,0,0-.794.923l-.919,1.359H67.379l1.137-1.675a1.818,1.818,0,0,1,1.037-.868,2.009,2.009,0,0,1-1.339-.65,1.847,1.847,0,0,1-.437-1.213,1.667,1.667,0,0,1,.572-1.312,2.425,2.425,0,0,1,1.655-.5Zm-1.049.873h-1.5a1.737,1.737,0,0,0-1.216.293.972.972,0,0,0-.272.685.9.9,0,0,0,.4.818,2.778,2.778,0,0,0,1.421.26h1.166Z"/>
    <path d="M81.881,258.118l1.037.135a2.689,2.689,0,0,1-.87,1.679,2.536,2.536,0,0,1-1.72.606,2.673,2.673,0,0,1-2.054-.835,3.39,3.39,0,0,1-.776-2.393,4.327,4.327,0,0,1,.334-1.764,2.332,2.332,0,0,1,1.017-1.134,3.015,3.015,0,0,1,1.485-.378,2.579,2.579,0,0,1,1.658.513A2.349,2.349,0,0,1,82.818,256l-1.025.158a1.7,1.7,0,0,0-.519-.943,1.34,1.34,0,0,0-.9-.317,1.638,1.638,0,0,0-1.3.572,2.711,2.711,0,0,0-.5,1.807,2.8,2.8,0,0,0,.481,1.823,1.565,1.565,0,0,0,1.253.568,1.481,1.481,0,0,0,1.038-.381A1.889,1.889,0,0,0,81.881,258.118Z"/>
    <path d="M87.16,254.175h2.432a4.435,4.435,0,0,1,1.333.149,1.61,1.61,0,0,1,.75.548,1.5,1.5,0,0,1,.313.955,1.572,1.572,0,0,1-.184.777,1.506,1.506,0,0,1-.554.553,1.457,1.457,0,0,1,.729.548,1.579,1.579,0,0,1,.291.952,1.681,1.681,0,0,1-.633,1.313,2.769,2.769,0,0,1-1.67.427H87.16Zm1.055,2.619H89.34a4.028,4.028,0,0,0,.926-.07.968.968,0,0,0,.451-.285.81.81,0,0,0-.15-1.2,2.635,2.635,0,0,0-1.192-.193h-1.16Zm0,2.736H89.6a2.53,2.53,0,0,0,1.23-.208.813.813,0,0,0,.352-.718.9.9,0,0,0-.194-.553.832.832,0,0,0-.5-.322,5.194,5.194,0,0,0-1-.068H88.215Z"/>
    <path d="M97.455,259.63a3.943,3.943,0,0,1-1.128.7,3.252,3.252,0,0,1-1.163.2,2.261,2.261,0,0,1-1.576-.5,1.655,1.655,0,0,1-.551-1.28,1.7,1.7,0,0,1,.208-.835,1.729,1.729,0,0,1,.545-.607,2.575,2.575,0,0,1,.759-.345,7.328,7.328,0,0,1,.937-.158,9.623,9.623,0,0,0,1.881-.364c0-.144.006-.236.006-.275a1.163,1.163,0,0,0-.3-.908,1.76,1.76,0,0,0-1.2-.358,1.864,1.864,0,0,0-1.1.261,1.592,1.592,0,0,0-.524.923l-1.031-.141a2.555,2.555,0,0,1,.463-1.069,2.016,2.016,0,0,1,.931-.627,4.146,4.146,0,0,1,1.412-.22,3.734,3.734,0,0,1,1.295.188,1.717,1.717,0,0,1,.733.471,1.672,1.672,0,0,1,.328.718,5.953,5.953,0,0,1,.053.973v1.406a14.918,14.918,0,0,0,.067,1.86,2.341,2.341,0,0,0,.267.747h-1.1A2.231,2.231,0,0,1,97.455,259.63Zm-.088-2.356a7.73,7.73,0,0,1-1.722.4,3.95,3.95,0,0,0-.92.211.908.908,0,0,0-.416.343.931.931,0,0,0,.172,1.2,1.378,1.378,0,0,0,.935.281,2.172,2.172,0,0,0,1.084-.267,1.639,1.639,0,0,0,.7-.729,2.536,2.536,0,0,0,.17-1.055Z"/>
    <path d="M100.1,254.175h1.64l1.635,4.98,1.816-4.98h1.518V260.4h-1.055v-5.009l-1.839,5.009h-.944l-1.74-5.25v5.25H100.1Z"/>
    <path d="M108.318,254.175h1.055v4.746l2.924-4.746h1.137V260.4h-1.055v-4.716l-2.924,4.716h-1.137Z"/>
  </g>
  <g>
    <path d="M46.636,119.262V107.809h2.281l2.711,8.109q.375,1.132.547,1.695.2-.626.609-1.836l2.742-7.968h2.039v11.453H56.1v-9.586l-3.328,9.586H51.409l-3.312-9.75v9.75Z"/>
    <path d="M65.511,116.59l1.453.18a3.552,3.552,0,0,1-1.274,1.976,4.313,4.313,0,0,1-5.261-.418,4.38,4.38,0,0,1-1.067-3.144,4.586,4.586,0,0,1,1.078-3.25,3.65,3.65,0,0,1,2.8-1.157,3.547,3.547,0,0,1,2.719,1.133,4.5,4.5,0,0,1,1.055,3.188c0,.083,0,.208-.008.375H60.815a3.184,3.184,0,0,0,.774,2.093,2.3,2.3,0,0,0,1.734.727,2.161,2.161,0,0,0,1.321-.406A2.7,2.7,0,0,0,65.511,116.59Zm-4.617-2.274h4.632a2.811,2.811,0,0,0-.531-1.57,2.154,2.154,0,0,0-1.742-.812,2.227,2.227,0,0,0-1.629.648A2.565,2.565,0,0,0,60.894,114.316Z"/>
  </g>
  <g>
    <path d="M68.679,222.333c-3.154-14.56-5.367-14.594-6.7-26.132" fill="none" stroke="#000" stroke-miterlimit="10"/>
    <polygon points="66.478 198.962 65.839 199.733 62.049 196.579 59.18 200.591 58.367 200.008 61.861 195.123 66.478 198.962"/>
  </g>
  <g>
    <path d="M56.561,143.274A16.925,16.925,0,1,1,39.637,160.2a16.943,16.943,0,0,1,16.924-16.925m0-2.8A19.725,19.725,0,1,0,76.285,160.2a19.725,19.725,0,0,0-19.724-19.725Z" fill="#5b5d5e"/>
    <path d="M61.564,159.271a6.664,6.664,0,0,1,1.816,1.04,7.417,7.417,0,0,1,1.419,1.506,7.045,7.045,0,0,1,.937,1.874,6.822,6.822,0,0,1,.337,2.137v4.1A1.15,1.15,0,0,1,64.9,171.1H48.508a1.148,1.148,0,0,1-1.171-1.171v-4.1a6.792,6.792,0,0,1,.336-2.137,7.045,7.045,0,0,1,.937-1.874,7.4,7.4,0,0,1,1.42-1.506,6.659,6.659,0,0,1,1.815-1.04,7.91,7.91,0,0,0,2.268,1.17,8.186,8.186,0,0,0,2.592.411A8.043,8.043,0,0,0,61.564,159.271Zm1.289-6.617a5.991,5.991,0,0,1-.484,2.386,6.161,6.161,0,0,1-3.264,3.279,6.16,6.16,0,0,1-4.787,0,6.124,6.124,0,0,1-3.278-3.279,6.169,6.169,0,0,1,0-4.786,6.17,6.17,0,0,1,3.278-3.265,6.184,6.184,0,0,1,4.787,0,6.208,6.208,0,0,1,3.264,3.265A5.964,5.964,0,0,1,62.853,152.654Z" fill="#5b5d5e"/>
  </g>
  <g>
    <path d="M169.037,242.986l1.137.287a3.824,3.824,0,0,1-1.286,2.136,3.546,3.546,0,0,1-2.271.736,4.08,4.08,0,0,1-2.259-.566,3.533,3.533,0,0,1-1.324-1.638,5.833,5.833,0,0,1-.454-2.3,5.059,5.059,0,0,1,.513-2.341,3.516,3.516,0,0,1,1.459-1.518,4.27,4.27,0,0,1,2.083-.518,3.519,3.519,0,0,1,2.168.656,3.4,3.4,0,0,1,1.224,1.846l-1.119.263a2.651,2.651,0,0,0-.867-1.365,2.312,2.312,0,0,0-1.43-.428,2.779,2.779,0,0,0-1.655.475,2.509,2.509,0,0,0-.935,1.274,5.154,5.154,0,0,0-.269,1.65,5.241,5.241,0,0,0,.319,1.913,2.382,2.382,0,0,0,.993,1.222,2.793,2.793,0,0,0,1.459.4,2.449,2.449,0,0,0,1.618-.551A2.818,2.818,0,0,0,169.037,242.986Z"/>
    <path d="M171.047,242.887a3.207,3.207,0,0,1,.961-2.561,2.894,2.894,0,0,1,1.957-.691,2.792,2.792,0,0,1,2.1.841,3.2,3.2,0,0,1,.814,2.323,4.116,4.116,0,0,1-.36,1.889,2.558,2.558,0,0,1-1.049,1.07,3.053,3.053,0,0,1-1.5.381,2.8,2.8,0,0,1-2.112-.838A3.343,3.343,0,0,1,171.047,242.887Zm1.084,0a2.655,2.655,0,0,0,.521,1.79,1.738,1.738,0,0,0,2.619,0,2.712,2.712,0,0,0,.522-1.822,2.572,2.572,0,0,0-.524-1.749,1.739,1.739,0,0,0-2.617,0A2.641,2.641,0,0,0,172.131,242.887Z"/>
    <path d="M179.355,243.186v-.827a6.124,6.124,0,0,0,.912-.052.858.858,0,0,0,.46-.282.83.83,0,0,0,.216-.586.869.869,0,0,0-.284-.682,1.057,1.057,0,0,0-.735-.255,1.3,1.3,0,0,0-1.248,1.049l-1-.164a2.39,2.39,0,0,1,3.823-1.207,1.744,1.744,0,0,1,.566,1.3,1.37,1.37,0,0,1-.739,1.213,1.768,1.768,0,0,1,.7.642,1.75,1.75,0,0,1,.235.923,1.7,1.7,0,0,1-.61,1.359,2.539,2.539,0,0,1-1.7.522,2.188,2.188,0,0,1-2.467-1.893l.991-.211a1.578,1.578,0,0,0,.548.926,1.475,1.475,0,0,0,.946.328,1.326,1.326,0,0,0,.888-.3,1.012,1.012,0,0,0,.131-1.4.944.944,0,0,0-.474-.337,4.122,4.122,0,0,0-.914-.067Z"/>
    <path d="M184.049,239.775h4.336v5.356h.674v2.631h-.868V246h-4.9v1.764h-.867v-2.631h.556Q184.1,243.619,184.049,239.775Zm.879.873a10.26,10.26,0,0,1-.938,4.483h3.346v-4.483Z"/>
    <path d="M194.279,245.23a3.9,3.9,0,0,1-1.128.7,3.274,3.274,0,0,1-1.163.205,2.262,2.262,0,0,1-1.576-.5,1.655,1.655,0,0,1-.551-1.281,1.712,1.712,0,0,1,.208-.835,1.735,1.735,0,0,1,.545-.606,2.577,2.577,0,0,1,.759-.346,7.731,7.731,0,0,1,.938-.158,9.641,9.641,0,0,0,1.88-.363c0-.145.006-.236.006-.276a1.162,1.162,0,0,0-.3-.908,1.764,1.764,0,0,0-1.2-.357,1.858,1.858,0,0,0-1.1.261,1.59,1.59,0,0,0-.525.922l-1.031-.14a2.559,2.559,0,0,1,.463-1.07,2.035,2.035,0,0,1,.932-.627,4.163,4.163,0,0,1,1.412-.219,3.74,3.74,0,0,1,1.3.187,1.7,1.7,0,0,1,.732.472,1.655,1.655,0,0,1,.328.718,5.939,5.939,0,0,1,.053.972v1.407a14.941,14.941,0,0,0,.067,1.86,2.341,2.341,0,0,0,.267.747h-1.1A2.265,2.265,0,0,1,194.279,245.23Zm-.088-2.355a7.725,7.725,0,0,1-1.722.4,4.017,4.017,0,0,0-.92.211.92.92,0,0,0-.416.343.93.93,0,0,0,.173,1.2,1.37,1.37,0,0,0,.934.282,2.172,2.172,0,0,0,1.084-.267,1.636,1.636,0,0,0,.7-.73,2.531,2.531,0,0,0,.17-1.054Z"/>
    <path d="M196.9,239.775h1.055v2.59h2.924v-2.59h1.055V246h-1.055v-2.76h-2.924V246H196.9Z"/>
    <path d="M203.52,239.775h1.054v4.746l2.924-4.746h1.137V246H207.58v-4.717L204.656,246H203.52Z"/>
    <path d="M214.482,243.994l1.09.135a2.655,2.655,0,0,1-.955,1.482,3.233,3.233,0,0,1-3.946-.313,3.288,3.288,0,0,1-.8-2.359,3.439,3.439,0,0,1,.809-2.437,2.736,2.736,0,0,1,2.1-.867,2.661,2.661,0,0,1,2.039.849,3.375,3.375,0,0,1,.791,2.391c0,.063,0,.156,0,.281h-4.641a2.392,2.392,0,0,0,.58,1.571,1.727,1.727,0,0,0,1.3.544,1.612,1.612,0,0,0,.99-.3A2.026,2.026,0,0,0,214.482,243.994Zm-3.462-1.705h3.474a2.118,2.118,0,0,0-.4-1.178,1.618,1.618,0,0,0-1.307-.609,1.677,1.677,0,0,0-1.222.486A1.926,1.926,0,0,0,211.02,242.289Z"/>
    <path d="M220.23,239.775h1.055v4.746l2.924-4.746h1.137V246h-1.055v-4.717L221.367,246H220.23Z"/>
    <path d="M162.322,254.175h4.336v5.355h.674v2.631h-.867V260.4h-4.9v1.764H160.7V259.53h.557Q162.369,258.018,162.322,254.175Zm.879.873a10.257,10.257,0,0,1-.937,4.482h3.345v-4.482Z"/>
    <path d="M168.1,257.286a3.2,3.2,0,0,1,.961-2.56,2.894,2.894,0,0,1,1.957-.692,2.79,2.79,0,0,1,2.1.841,3.2,3.2,0,0,1,.815,2.323,4.107,4.107,0,0,1-.361,1.89,2.553,2.553,0,0,1-1.048,1.069,3.053,3.053,0,0,1-1.5.381,2.8,2.8,0,0,1-2.113-.838A3.346,3.346,0,0,1,168.1,257.286Zm1.084,0a2.647,2.647,0,0,0,.521,1.79,1.736,1.736,0,0,0,2.619,0,2.711,2.711,0,0,0,.522-1.822,2.567,2.567,0,0,0-.525-1.749,1.738,1.738,0,0,0-2.616,0A2.637,2.637,0,0,0,169.184,257.286Z"/>
    <path d="M179.725,251.6l.931.011a1.609,1.609,0,0,1-.278.873.973.973,0,0,1-.551.317,7.878,7.878,0,0,1-1.321.07,4.256,4.256,0,0,0-1.781.252,1.449,1.449,0,0,0-.683.806,4.432,4.432,0,0,0-.231,1.426,2.726,2.726,0,0,1,.931-.887,2.427,2.427,0,0,1,1.2-.3,2.682,2.682,0,0,1,2.028.841,3.158,3.158,0,0,1,.8,2.276,3.523,3.523,0,0,1-.4,1.787,3.259,3.259,0,0,1-.958,1.078,3.178,3.178,0,0,1-3.231-.126,3.274,3.274,0,0,1-.944-1.3,8.02,8.02,0,0,1-.328-2.754q0-2.466.835-3.322a3.45,3.45,0,0,1,2.57-.855,10.521,10.521,0,0,0,1.224-.035A.243.243,0,0,0,179.725,251.6Zm-.053,5.66a2.605,2.605,0,0,0-.46-1.594,1.521,1.521,0,0,0-1.3-.621,1.567,1.567,0,0,0-1.348.656,2.933,2.933,0,0,0-.474,1.752,2.378,2.378,0,0,0,.524,1.658,1.68,1.68,0,0,0,1.292.574,1.512,1.512,0,0,0,1.275-.665A2.9,2.9,0,0,0,179.672,257.263Z"/>
    <path d="M185.824,259.63a3.917,3.917,0,0,1-1.128.7,3.252,3.252,0,0,1-1.163.2,2.262,2.262,0,0,1-1.576-.5,1.655,1.655,0,0,1-.551-1.28,1.709,1.709,0,0,1,.208-.835,1.738,1.738,0,0,1,.545-.607,2.575,2.575,0,0,1,.759-.345,7.361,7.361,0,0,1,.937-.158,9.623,9.623,0,0,0,1.881-.364c0-.144.006-.236.006-.275a1.159,1.159,0,0,0-.3-.908,1.76,1.76,0,0,0-1.2-.358,1.858,1.858,0,0,0-1.1.261,1.588,1.588,0,0,0-.525.923l-1.031-.141a2.555,2.555,0,0,1,.463-1.069,2.021,2.021,0,0,1,.931-.627,4.148,4.148,0,0,1,1.413-.22,3.732,3.732,0,0,1,1.294.188,1.711,1.711,0,0,1,.733.471,1.66,1.66,0,0,1,.328.718,5.953,5.953,0,0,1,.053.973v1.406a14.918,14.918,0,0,0,.067,1.86,2.341,2.341,0,0,0,.267.747h-1.1A2.231,2.231,0,0,1,185.824,259.63Zm-.088-2.356a7.715,7.715,0,0,1-1.722.4,3.95,3.95,0,0,0-.92.211.908.908,0,0,0-.416.343.93.93,0,0,0,.173,1.2,1.374,1.374,0,0,0,.934.281,2.172,2.172,0,0,0,1.084-.267,1.634,1.634,0,0,0,.7-.729,2.536,2.536,0,0,0,.17-1.055Z"/>
    <path d="M188.443,254.175h2.432a4.43,4.43,0,0,1,1.333.149,1.61,1.61,0,0,1,.75.548,1.5,1.5,0,0,1,.313.955,1.572,1.572,0,0,1-.184.777,1.506,1.506,0,0,1-.554.553,1.463,1.463,0,0,1,.73.548,1.585,1.585,0,0,1,.29.952,1.678,1.678,0,0,1-.633,1.313,2.769,2.769,0,0,1-1.67.427h-2.807Zm1.055,2.619h1.125a4.028,4.028,0,0,0,.926-.07.968.968,0,0,0,.451-.285.81.81,0,0,0-.149-1.2,2.643,2.643,0,0,0-1.193-.193H189.5Zm0,2.736h1.389a2.527,2.527,0,0,0,1.23-.208.813.813,0,0,0,.352-.718.9.9,0,0,0-.194-.553.83.83,0,0,0-.5-.322,5.194,5.194,0,0,0-1-.068H189.5Z"/>
    <path d="M195.053,254.175h4.9V260.4H198.9v-5.349h-2.795v3.1a9,9,0,0,1-.07,1.43,1.04,1.04,0,0,1-.387.6,1.414,1.414,0,0,1-.914.257q-.369,0-.849-.046v-.879h.463a1.164,1.164,0,0,0,.468-.068.344.344,0,0,0,.188-.214,5.108,5.108,0,0,0,.047-.955Z"/>
    <path d="M205.8,258.394l1.09.134a2.666,2.666,0,0,1-.955,1.483,2.877,2.877,0,0,1-1.782.527,2.846,2.846,0,0,1-2.165-.841,3.284,3.284,0,0,1-.8-2.358A3.439,3.439,0,0,1,202,254.9a2.737,2.737,0,0,1,2.1-.867,2.659,2.659,0,0,1,2.039.85,3.376,3.376,0,0,1,.791,2.39q0,.094-.006.282h-4.641a2.394,2.394,0,0,0,.58,1.57,1.729,1.729,0,0,0,1.3.545,1.613,1.613,0,0,0,.99-.305A2.017,2.017,0,0,0,205.8,258.394Zm-3.463-1.706h3.475a2.1,2.1,0,0,0-.4-1.177,1.614,1.614,0,0,0-1.307-.61,1.672,1.672,0,0,0-1.221.487A1.924,1.924,0,0,0,202.336,256.688Z"/>
    <path d="M208.219,254.175h1.054v2.59H212.2v-2.59h1.055V260.4H212.2v-2.759h-2.924V260.4h-1.054Z"/>
    <path d="M214.84,254.175H215.9v4.746l2.923-4.746h1.137V260.4H218.9v-4.716l-2.923,4.716H214.84Z"/>
    <path d="M225.8,258.394l1.09.134a2.666,2.666,0,0,1-.955,1.483,2.877,2.877,0,0,1-1.782.527,2.845,2.845,0,0,1-2.165-.841,3.284,3.284,0,0,1-.8-2.358A3.44,3.44,0,0,1,222,254.9a2.737,2.737,0,0,1,2.1-.867,2.659,2.659,0,0,1,2.039.85,3.376,3.376,0,0,1,.791,2.39q0,.094-.006.282h-4.641a2.394,2.394,0,0,0,.58,1.57,1.729,1.729,0,0,0,1.3.545,1.613,1.613,0,0,0,.99-.305A2.017,2.017,0,0,0,225.8,258.394Zm-3.463-1.706h3.474a2.1,2.1,0,0,0-.4-1.177,1.614,1.614,0,0,0-1.307-.61,1.672,1.672,0,0,0-1.221.487A1.924,1.924,0,0,0,222.34,256.688Z"/>
    <path d="M162.246,272.519l1.037.134a2.687,2.687,0,0,1-.87,1.679,2.536,2.536,0,0,1-1.72.606,2.672,2.672,0,0,1-2.053-.834,3.388,3.388,0,0,1-.777-2.394,4.344,4.344,0,0,1,.334-1.764,2.325,2.325,0,0,1,1.017-1.133,3.015,3.015,0,0,1,1.485-.378,2.578,2.578,0,0,1,1.658.512,2.35,2.35,0,0,1,.827,1.456l-1.026.159a1.7,1.7,0,0,0-.518-.944,1.342,1.342,0,0,0-.9-.316,1.637,1.637,0,0,0-1.3.571,2.712,2.712,0,0,0-.5,1.808,2.8,2.8,0,0,0,.481,1.822,1.562,1.562,0,0,0,1.254.568,1.478,1.478,0,0,0,1.037-.381A1.887,1.887,0,0,0,162.246,272.519Z"/>
    <path d="M163.928,271.687a3.207,3.207,0,0,1,.961-2.561,2.894,2.894,0,0,1,1.957-.691,2.793,2.793,0,0,1,2.1.84,3.2,3.2,0,0,1,.815,2.324,4.105,4.105,0,0,1-.361,1.889,2.549,2.549,0,0,1-1.048,1.07,3.052,3.052,0,0,1-1.5.38,2.8,2.8,0,0,1-2.113-.837A3.349,3.349,0,0,1,163.928,271.687Zm1.084,0a2.656,2.656,0,0,0,.521,1.79,1.738,1.738,0,0,0,2.619,0,2.713,2.713,0,0,0,.522-1.823,2.571,2.571,0,0,0-.525-1.749,1.74,1.74,0,0,0-2.616,0A2.645,2.645,0,0,0,165.012,271.687Z"/>
    <path d="M171.563,268.575H175.9v5.356h.674v2.631h-.867V274.8h-4.9v1.764h-.868v-2.631h.557Q171.609,272.419,171.563,268.575Zm.878.873a10.262,10.262,0,0,1-.937,4.483h3.346v-4.483Z"/>
    <path d="M181.992,272.794l1.09.135a2.658,2.658,0,0,1-.955,1.482,3.237,3.237,0,0,1-3.946-.313,3.284,3.284,0,0,1-.8-2.359,3.437,3.437,0,0,1,.808-2.437,2.74,2.74,0,0,1,2.1-.867,2.661,2.661,0,0,1,2.039.849,3.374,3.374,0,0,1,.791,2.391c0,.062,0,.156-.006.281h-4.64a2.387,2.387,0,0,0,.58,1.57,1.723,1.723,0,0,0,1.3.545,1.616,1.616,0,0,0,.99-.3A2.031,2.031,0,0,0,181.992,272.794Zm-3.463-1.7H182a2.107,2.107,0,0,0-.4-1.178,1.615,1.615,0,0,0-1.306-.609,1.676,1.676,0,0,0-1.222.486A1.925,1.925,0,0,0,178.529,271.089Z"/>
    <path d="M184.406,277.183v-8.608h.961v.809a2.367,2.367,0,0,1,.768-.712,2.111,2.111,0,0,1,1.037-.237,2.454,2.454,0,0,1,1.406.41A2.516,2.516,0,0,1,189.5,270a4.226,4.226,0,0,1,.311,1.638,4.164,4.164,0,0,1-.343,1.719,2.587,2.587,0,0,1-1,1.172,2.555,2.555,0,0,1-1.374.407,1.993,1.993,0,0,1-.947-.222,2.163,2.163,0,0,1-.688-.563v3.03Zm.955-5.461a2.7,2.7,0,0,0,.487,1.775,1.489,1.489,0,0,0,1.177.574,1.523,1.523,0,0,0,1.2-.594,2.823,2.823,0,0,0,.5-1.843,2.748,2.748,0,0,0-.489-1.781,1.472,1.472,0,0,0-1.169-.592,1.519,1.519,0,0,0-1.192.63A2.816,2.816,0,0,0,185.361,271.722Z"/>
    <path d="M194.842,268.575v2.69a1.026,1.026,0,0,0,.709-.194,4.116,4.116,0,0,0,.6-1.125,3.208,3.208,0,0,1,.663-1.131,1.415,1.415,0,0,1,.914-.24h.386v.873l-.287-.006a.792.792,0,0,0-.539.123,3.1,3.1,0,0,0-.375.768,3.142,3.142,0,0,1-.433.844,1.767,1.767,0,0,1-.622.427,2.515,2.515,0,0,1,1.336,1.266l1.161,1.928h-1.161l-1.13-1.928a2.561,2.561,0,0,0-.6-.767,1.035,1.035,0,0,0-.615-.182V274.8h-1.078v-2.877a1.038,1.038,0,0,0-.61.179,2.5,2.5,0,0,0-.6.77L191.42,274.8h-1.16l1.154-1.928a2.543,2.543,0,0,1,1.342-1.266,1.661,1.661,0,0,1-.656-.471,6.594,6.594,0,0,1-.563-1.216.749.749,0,0,0-.275-.4,1.039,1.039,0,0,0-.451-.077l-.311.006v-.873h.146a3.491,3.491,0,0,1,.859.073.917.917,0,0,1,.445.311,4.523,4.523,0,0,1,.513.987,4.255,4.255,0,0,0,.589,1.119,1,1,0,0,0,.712.2v-2.69Z"/>
    <path d="M199.107,268.575h1.055v4.746l2.924-4.746h1.137V274.8h-1.055v-4.717l-2.924,4.717h-1.137Z"/>
    <path d="M205.84,268.575h1.64l1.635,4.981,1.817-4.981h1.517V274.8H211.4v-5.01l-1.84,5.01h-.944l-1.74-5.25v5.25H205.84Z"/>
    <path d="M213.668,271.687a3.207,3.207,0,0,1,.961-2.561,2.894,2.894,0,0,1,1.957-.691,2.8,2.8,0,0,1,2.1.84,3.2,3.2,0,0,1,.814,2.324,4.119,4.119,0,0,1-.36,1.889,2.558,2.558,0,0,1-1.049,1.07,3.052,3.052,0,0,1-1.5.38,2.8,2.8,0,0,1-2.112-.837A3.349,3.349,0,0,1,213.668,271.687Zm1.084,0a2.656,2.656,0,0,0,.521,1.79,1.739,1.739,0,0,0,2.62,0,2.719,2.719,0,0,0,.521-1.823,2.576,2.576,0,0,0-.524-1.749,1.741,1.741,0,0,0-2.617,0A2.645,2.645,0,0,0,214.752,271.687Z"/>
    <path d="M220.74,268.575h3.58v.873H221.8v5.35H220.74Z"/>
    <path d="M224.455,271.687a3.207,3.207,0,0,1,.961-2.561,2.9,2.9,0,0,1,1.957-.691,2.793,2.793,0,0,1,2.1.84,3.2,3.2,0,0,1,.814,2.324,4.119,4.119,0,0,1-.36,1.889,2.552,2.552,0,0,1-1.049,1.07,3.052,3.052,0,0,1-1.5.38,2.8,2.8,0,0,1-2.112-.837A3.349,3.349,0,0,1,224.455,271.687Zm1.084,0a2.651,2.651,0,0,0,.522,1.79,1.738,1.738,0,0,0,2.619,0,2.719,2.719,0,0,0,.521-1.823,2.576,2.576,0,0,0-.524-1.749,1.74,1.74,0,0,0-2.616,0A2.64,2.64,0,0,0,225.539,271.687Z"/>
  </g>
  <g>
    <path d="M163.142,107.809h6.968v10.1h1.032v4.024H169.79v-2.672h-7.57v2.672h-1.352V117.91h.891q1.383-2.085,1.383-8.43Zm5.453,1.351H164.6v.586q0,1.463-.262,4a13.041,13.041,0,0,1-1.028,4.168H168.6Z"/>
    <path d="M172.415,115.113A4.278,4.278,0,0,1,173.7,111.7a3.864,3.864,0,0,1,2.61-.922,3.725,3.725,0,0,1,2.8,1.121,4.272,4.272,0,0,1,1.085,3.1,5.5,5.5,0,0,1-.48,2.52,3.388,3.388,0,0,1-1.4,1.425,4.083,4.083,0,0,1-2,.508,3.73,3.73,0,0,1-2.817-1.117A4.461,4.461,0,0,1,172.415,115.113Zm1.445,0a3.53,3.53,0,0,0,.7,2.387,2.315,2.315,0,0,0,3.492,0,3.615,3.615,0,0,0,.695-2.43,3.433,3.433,0,0,0-.7-2.332,2.318,2.318,0,0,0-3.488,0A3.519,3.519,0,0,0,173.86,115.113Z"/>
    <path d="M187.915,107.535l1.242.016a2.141,2.141,0,0,1-.371,1.164,1.293,1.293,0,0,1-.734.422,10.61,10.61,0,0,1-1.762.093,5.7,5.7,0,0,0-2.375.336,1.929,1.929,0,0,0-.91,1.075,5.953,5.953,0,0,0-.309,1.9,3.675,3.675,0,0,1,1.242-1.184,3.256,3.256,0,0,1,1.6-.394,3.579,3.579,0,0,1,2.7,1.121,4.213,4.213,0,0,1,1.07,3.035,4.7,4.7,0,0,1-.539,2.383,4.331,4.331,0,0,1-1.277,1.437,4.24,4.24,0,0,1-4.309-.168,4.368,4.368,0,0,1-1.257-1.73,10.658,10.658,0,0,1-.438-3.672q0-3.288,1.113-4.43a4.6,4.6,0,0,1,3.426-1.14,13.907,13.907,0,0,0,1.633-.047A.317.317,0,0,0,187.915,107.535Zm-.07,7.547a3.473,3.473,0,0,0-.614-2.125,2.027,2.027,0,0,0-1.73-.828,2.087,2.087,0,0,0-1.8.875,3.9,3.9,0,0,0-.633,2.336,3.168,3.168,0,0,0,.7,2.211,2.236,2.236,0,0,0,1.722.765,2.015,2.015,0,0,0,1.7-.886A3.869,3.869,0,0,0,187.845,115.082Z"/>
    <path d="M196.048,118.238a5.217,5.217,0,0,1-1.5.938,4.372,4.372,0,0,1-1.551.273,3.011,3.011,0,0,1-2.1-.668,2.2,2.2,0,0,1-.735-1.707,2.319,2.319,0,0,1,1-1.922,3.449,3.449,0,0,1,1.012-.461,10.456,10.456,0,0,1,1.25-.211,12.7,12.7,0,0,0,2.508-.484c0-.192.007-.314.007-.367a1.552,1.552,0,0,0-.4-1.211,2.358,2.358,0,0,0-1.6-.477,2.487,2.487,0,0,0-1.464.348,2.129,2.129,0,0,0-.7,1.231l-1.375-.188a3.411,3.411,0,0,1,.618-1.426,2.713,2.713,0,0,1,1.242-.836,5.549,5.549,0,0,1,1.883-.293,4.994,4.994,0,0,1,1.726.25,2.282,2.282,0,0,1,.977.629,2.221,2.221,0,0,1,.437.957,7.894,7.894,0,0,1,.071,1.3v1.875a20.159,20.159,0,0,0,.089,2.481,3.14,3.14,0,0,0,.356,1h-1.469A3,3,0,0,1,196.048,118.238Zm-.117-3.14a10.313,10.313,0,0,1-2.3.531,5.414,5.414,0,0,0-1.227.281,1.226,1.226,0,0,0-.554.457,1.242,1.242,0,0,0,.23,1.606,1.832,1.832,0,0,0,1.246.375,2.9,2.9,0,0,0,1.445-.356,2.18,2.18,0,0,0,.93-.972,3.4,3.4,0,0,0,.227-1.407Z"/>
    <path d="M199.54,110.965h3.242a5.879,5.879,0,0,1,1.778.2,2.156,2.156,0,0,1,1,.731,2,2,0,0,1,.418,1.273,2.08,2.08,0,0,1-.247,1.035,1.993,1.993,0,0,1-.738.738,1.943,1.943,0,0,1,.973.731,2.108,2.108,0,0,1,.387,1.269,2.231,2.231,0,0,1-.844,1.75,3.684,3.684,0,0,1-2.227.571H199.54Zm1.406,3.492h1.5a5.341,5.341,0,0,0,1.235-.094,1.283,1.283,0,0,0,.6-.379.966.966,0,0,0,.266-.683.954.954,0,0,0-.465-.914,3.519,3.519,0,0,0-1.59-.258h-1.547Zm0,3.648H202.8a3.36,3.36,0,0,0,1.64-.277,1.082,1.082,0,0,0,.469-.957,1.193,1.193,0,0,0-.258-.738,1.115,1.115,0,0,0-.671-.43,7.037,7.037,0,0,0-1.329-.09h-1.7Z"/>
    <path d="M208.032,110.965h1.406v6.328l3.9-6.328h1.516v8.3h-1.407v-6.289l-3.9,6.289h-1.516Z"/>
    <path d="M216.212,110.965h6.742v1.164h-2.672v7.133h-1.4v-7.133h-2.672Z"/>
    <path d="M224.274,110.965h1.407v3.242h1.781a4.561,4.561,0,0,1,2.684.676,2.17,2.17,0,0,1,.941,1.863,2.353,2.353,0,0,1-.785,1.777,3.581,3.581,0,0,1-2.512.739h-3.516Zm1.407,7.14h1.476a4.045,4.045,0,0,0,1.906-.328,1.1,1.1,0,0,0,.571-1.023,1.325,1.325,0,0,0-.422-.961,2.8,2.8,0,0,0-1.867-.422h-1.664Z"/>
  </g>
  <polygon points="213 165 198 165 198 180 193 180 193 165 179 165 179 160 193 160 193 145 198 145 198 160 213 160 213 165" fill="#5b5d5e"/>
  <g>
    <path d="M269.271,241.814a4.665,4.665,0,0,1,1.149-3.348,3.9,3.9,0,0,1,2.965-1.21,4.108,4.108,0,0,1,2.144.568,3.709,3.709,0,0,1,1.456,1.585,5.148,5.148,0,0,1,.5,2.306,5.058,5.058,0,0,1-.527,2.338,3.6,3.6,0,0,1-1.494,1.561,4.266,4.266,0,0,1-2.086.531,4.067,4.067,0,0,1-2.168-.586,3.769,3.769,0,0,1-1.447-1.6A4.853,4.853,0,0,1,269.271,241.814Zm1.172.018a3.442,3.442,0,0,0,.835,2.446,2.913,2.913,0,0,0,4.207-.008,3.65,3.65,0,0,0,.829-2.561,4.4,4.4,0,0,0-.354-1.831,2.719,2.719,0,0,0-1.037-1.213,2.813,2.813,0,0,0-1.532-.431,2.912,2.912,0,0,0-2.078.829A3.7,3.7,0,0,0,270.443,241.832Z"/>
    <path d="M283.375,237.2l.932.012a1.608,1.608,0,0,1-.279.873.969.969,0,0,1-.55.316,7.857,7.857,0,0,1-1.322.071,4.256,4.256,0,0,0-1.781.252,1.451,1.451,0,0,0-.683.805,4.5,4.5,0,0,0-.231,1.427,2.732,2.732,0,0,1,.932-.888,2.432,2.432,0,0,1,1.2-.3,2.685,2.685,0,0,1,2.027.841,3.163,3.163,0,0,1,.8,2.277,3.536,3.536,0,0,1-.4,1.787,3.27,3.27,0,0,1-.958,1.078,3.18,3.18,0,0,1-3.232-.126,3.269,3.269,0,0,1-.943-1.3,8,8,0,0,1-.328-2.754q0-2.466.835-3.322a3.447,3.447,0,0,1,2.569-.856,10.281,10.281,0,0,0,1.225-.035A.238.238,0,0,0,283.375,237.2Zm-.053,5.66a2.6,2.6,0,0,0-.46-1.593,1.518,1.518,0,0,0-1.3-.622,1.562,1.562,0,0,0-1.347.657,2.922,2.922,0,0,0-.475,1.752,2.375,2.375,0,0,0,.525,1.658,1.679,1.679,0,0,0,1.292.574,1.513,1.513,0,0,0,1.274-.665A2.9,2.9,0,0,0,283.322,242.863Z"/>
    <path d="M285.455,239.775H287.1l1.634,4.981,1.817-4.981h1.517V246H291.01v-5.01L289.17,246h-.943l-1.741-5.25V246h-1.031Z"/>
    <path d="M297.936,243.994l1.089.135a2.65,2.65,0,0,1-.955,1.482,3.233,3.233,0,0,1-3.946-.313,3.288,3.288,0,0,1-.8-2.359,3.439,3.439,0,0,1,.809-2.437,2.736,2.736,0,0,1,2.1-.867,2.663,2.663,0,0,1,2.04.849,3.38,3.38,0,0,1,.791,2.391c0,.063,0,.156-.006.281h-4.641a2.392,2.392,0,0,0,.58,1.571,1.727,1.727,0,0,0,1.3.544,1.612,1.612,0,0,0,.99-.3A2.027,2.027,0,0,0,297.936,243.994Zm-3.463-1.705h3.474a2.11,2.11,0,0,0-.4-1.178,1.618,1.618,0,0,0-1.307-.609,1.675,1.675,0,0,0-1.221.486A1.922,1.922,0,0,0,294.473,242.289Z"/>
    <path d="M300.355,239.775h1.055v2.59h2.924v-2.59h1.055V246h-1.055v-2.76H301.41V246h-1.055Z"/>
    <path d="M314.371,243.719l1.037.135a2.687,2.687,0,0,1-.87,1.678,2.532,2.532,0,0,1-1.72.607,2.672,2.672,0,0,1-2.053-.835,3.388,3.388,0,0,1-.777-2.394,4.344,4.344,0,0,1,.334-1.764,2.334,2.334,0,0,1,1.017-1.133,3.015,3.015,0,0,1,1.485-.378,2.584,2.584,0,0,1,1.658.512,2.353,2.353,0,0,1,.827,1.457l-1.026.158a1.7,1.7,0,0,0-.518-.944,1.342,1.342,0,0,0-.9-.316,1.637,1.637,0,0,0-1.3.571,2.714,2.714,0,0,0-.5,1.808,2.8,2.8,0,0,0,.481,1.822,1.562,1.562,0,0,0,1.254.568,1.478,1.478,0,0,0,1.037-.38A1.892,1.892,0,0,0,314.371,243.719Z"/>
    <path d="M316.053,242.887a3.207,3.207,0,0,1,.961-2.561,2.894,2.894,0,0,1,1.957-.691,2.79,2.79,0,0,1,2.1.841,3.2,3.2,0,0,1,.815,2.323,4.1,4.1,0,0,1-.361,1.889,2.549,2.549,0,0,1-1.048,1.07,3.053,3.053,0,0,1-1.5.381,2.8,2.8,0,0,1-2.113-.838A3.347,3.347,0,0,1,316.053,242.887Zm1.084,0a2.655,2.655,0,0,0,.521,1.79,1.738,1.738,0,0,0,2.619,0,2.712,2.712,0,0,0,.522-1.822,2.567,2.567,0,0,0-.525-1.749,1.738,1.738,0,0,0-2.616,0A2.641,2.641,0,0,0,317.137,242.887Z"/>
    <path d="M323.688,239.775h4.335v5.356h.674v2.631h-.867V246h-4.9v1.764h-.868v-2.631h.557Q323.734,243.619,323.688,239.775Zm.878.873a10.262,10.262,0,0,1-.937,4.483h3.346v-4.483Z"/>
    <path d="M334.117,243.994l1.09.135a2.655,2.655,0,0,1-.955,1.482,3.233,3.233,0,0,1-3.946-.313,3.284,3.284,0,0,1-.8-2.359,3.438,3.438,0,0,1,.808-2.437,2.74,2.74,0,0,1,2.1-.867,2.661,2.661,0,0,1,2.039.849,3.375,3.375,0,0,1,.791,2.391c0,.063,0,.156-.006.281H330.6a2.392,2.392,0,0,0,.58,1.571,1.725,1.725,0,0,0,1.3.544,1.616,1.616,0,0,0,.99-.3A2.026,2.026,0,0,0,334.117,243.994Zm-3.463-1.705h3.475a2.11,2.11,0,0,0-.4-1.178,1.615,1.615,0,0,0-1.306-.609,1.676,1.676,0,0,0-1.222.486A1.927,1.927,0,0,0,330.654,242.289Z"/>
    <path d="M336.531,248.383v-8.608h.961v.809a2.378,2.378,0,0,1,.768-.712,2.111,2.111,0,0,1,1.037-.237,2.454,2.454,0,0,1,1.406.41,2.516,2.516,0,0,1,.92,1.157,4.226,4.226,0,0,1,.311,1.638,4.169,4.169,0,0,1-.343,1.72,2.589,2.589,0,0,1-1,1.171,2.556,2.556,0,0,1-1.374.408,1.994,1.994,0,0,1-.947-.223,2.16,2.16,0,0,1-.688-.562v3.029Zm.955-5.461a2.7,2.7,0,0,0,.487,1.775,1.489,1.489,0,0,0,1.177.574,1.523,1.523,0,0,0,1.2-.594,2.823,2.823,0,0,0,.5-1.843,2.748,2.748,0,0,0-.489-1.781,1.472,1.472,0,0,0-1.169-.592,1.519,1.519,0,0,0-1.192.63A2.816,2.816,0,0,0,337.486,242.922Z"/>
    <path d="M346.967,239.775v2.69a1.026,1.026,0,0,0,.709-.194,4.082,4.082,0,0,0,.6-1.125,3.211,3.211,0,0,1,.663-1.13,1.408,1.408,0,0,1,.914-.241h.386v.873l-.287,0a.792.792,0,0,0-.539.123,3.081,3.081,0,0,0-.375.767,3.142,3.142,0,0,1-.433.844,1.781,1.781,0,0,1-.622.428,2.513,2.513,0,0,1,1.336,1.265L350.477,246h-1.161l-1.13-1.928a2.574,2.574,0,0,0-.6-.767,1.042,1.042,0,0,0-.615-.182V246h-1.078v-2.877a1.045,1.045,0,0,0-.61.179,2.5,2.5,0,0,0-.6.77L343.545,246h-1.16l1.154-1.928a2.54,2.54,0,0,1,1.342-1.265,1.671,1.671,0,0,1-.656-.472,6.594,6.594,0,0,1-.563-1.216.753.753,0,0,0-.275-.4,1.041,1.041,0,0,0-.451-.076l-.311,0v-.873h.146a3.429,3.429,0,0,1,.859.074.908.908,0,0,1,.445.31,4.523,4.523,0,0,1,.513.987,4.286,4.286,0,0,0,.589,1.12,1.008,1.008,0,0,0,.712.2v-2.69Z"/>
    <path d="M351.232,239.775h1.055v4.746l2.924-4.746h1.137V246h-1.055v-4.717L352.369,246h-1.137Z"/>
    <path d="M357.965,239.775h1.64l1.635,4.981,1.817-4.981h1.517V246H363.52v-5.01L361.68,246h-.944l-1.74-5.25V246h-1.031Z"/>
    <path d="M366.209,239.775h1.055v2.432H368.6a3.411,3.411,0,0,1,2.012.507,1.626,1.626,0,0,1,.706,1.4,1.762,1.762,0,0,1-.589,1.333,2.685,2.685,0,0,1-1.883.554h-2.637Zm1.055,5.356h1.107a3.042,3.042,0,0,0,1.43-.246.824.824,0,0,0,.428-.768,1,1,0,0,0-.317-.721,2.109,2.109,0,0,0-1.4-.316h-1.248Zm4.845-5.356h1.055V246h-1.055Z"/>
    <path d="M374.84,239.775h1.64l1.635,4.981,1.817-4.981h1.517V246H380.4v-5.01l-1.84,5.01h-.944l-1.74-5.25V246H374.84Z"/>
    <path d="M383.336,246v-1.2h1.2V246a2.133,2.133,0,0,1-.234,1.069,1.53,1.53,0,0,1-.744.63l-.293-.451a1.006,1.006,0,0,0,.492-.431,1.84,1.84,0,0,0,.176-.817Z"/>
    <path d="M289.138,258.4l1.09.134a2.662,2.662,0,0,1-.956,1.483,3.234,3.234,0,0,1-3.946-.315,3.281,3.281,0,0,1-.8-2.357,3.44,3.44,0,0,1,.809-2.438,2.737,2.737,0,0,1,2.1-.867,2.659,2.659,0,0,1,2.039.85,3.376,3.376,0,0,1,.791,2.39q0,.095-.006.282h-4.641a2.394,2.394,0,0,0,.58,1.57,1.729,1.729,0,0,0,1.3.545,1.613,1.613,0,0,0,.99-.305A2.017,2.017,0,0,0,289.138,258.4Zm-3.463-1.706h3.474a2.1,2.1,0,0,0-.4-1.177,1.616,1.616,0,0,0-1.307-.61,1.672,1.672,0,0,0-1.221.487A1.922,1.922,0,0,0,285.675,256.689Z"/>
    <path d="M291.558,254.176h3.58v.873h-2.526V260.4h-1.054Z"/>
    <path d="M295.272,257.287a3.208,3.208,0,0,1,.961-2.56,2.9,2.9,0,0,1,1.957-.692,2.79,2.79,0,0,1,2.1.84,3.2,3.2,0,0,1,.815,2.324,4.115,4.115,0,0,1-.361,1.889,2.552,2.552,0,0,1-1.049,1.07,3.053,3.053,0,0,1-1.5.381,2.8,2.8,0,0,1-2.112-.838A3.346,3.346,0,0,1,295.272,257.287Zm1.084,0a2.645,2.645,0,0,0,.522,1.789,1.735,1.735,0,0,0,2.619,0,2.711,2.711,0,0,0,.522-1.822,2.57,2.57,0,0,0-.525-1.75,1.739,1.739,0,0,0-2.616,0A2.637,2.637,0,0,0,296.356,257.287Z"/>
    <path d="M309.733,258.119l1.038.135a2.693,2.693,0,0,1-.871,1.678,2.535,2.535,0,0,1-1.719.607,2.672,2.672,0,0,1-2.054-.836,3.382,3.382,0,0,1-.776-2.392,4.327,4.327,0,0,1,.334-1.764,2.327,2.327,0,0,1,1.016-1.135,3.015,3.015,0,0,1,1.486-.377,2.582,2.582,0,0,1,1.658.512,2.356,2.356,0,0,1,.826,1.457l-1.025.158a1.7,1.7,0,0,0-.519-.943,1.342,1.342,0,0,0-.9-.317,1.635,1.635,0,0,0-1.3.571,2.714,2.714,0,0,0-.5,1.808,2.808,2.808,0,0,0,.48,1.823,1.565,1.565,0,0,0,1.254.568,1.477,1.477,0,0,0,1.037-.381A1.892,1.892,0,0,0,309.733,258.119Z"/>
    <path d="M311.415,257.287a3.2,3.2,0,0,1,.961-2.56,2.894,2.894,0,0,1,1.957-.692,2.791,2.791,0,0,1,2.1.84,3.2,3.2,0,0,1,.814,2.324,4.116,4.116,0,0,1-.36,1.889,2.552,2.552,0,0,1-1.049,1.07,3.053,3.053,0,0,1-1.5.381,2.8,2.8,0,0,1-2.112-.838A3.346,3.346,0,0,1,311.415,257.287Zm1.084,0a2.645,2.645,0,0,0,.522,1.789,1.735,1.735,0,0,0,2.619,0,2.716,2.716,0,0,0,.521-1.822,2.575,2.575,0,0,0-.524-1.75,1.739,1.739,0,0,0-2.616,0A2.637,2.637,0,0,0,312.5,257.287Z"/>
    <path d="M317.644,260.4l2.273-3.234-2.1-2.988h1.319l.955,1.459c.18.277.324.51.434.7.171-.258.33-.486.474-.686l1.049-1.47h1.26l-2.151,2.929,2.315,3.293h-1.3l-1.277-1.933-.34-.522-1.635,2.455Z"/>
    <path d="M324.347,262.783v-8.607h.961v.808a2.38,2.38,0,0,1,.767-.713,2.111,2.111,0,0,1,1.037-.236,2.464,2.464,0,0,1,1.407.41,2.519,2.519,0,0,1,.919,1.157,4.208,4.208,0,0,1,.311,1.638,4.148,4.148,0,0,1-.343,1.719,2.608,2.608,0,0,1-2.37,1.58,1.978,1.978,0,0,1-.946-.223,2.164,2.164,0,0,1-.689-.562v3.029Zm.955-5.461a2.71,2.71,0,0,0,.486,1.776,1.494,1.494,0,0,0,1.178.574,1.524,1.524,0,0,0,1.2-.6,2.818,2.818,0,0,0,.5-1.842,2.75,2.75,0,0,0-.489-1.781,1.476,1.476,0,0,0-1.169-.592,1.518,1.518,0,0,0-1.193.629A2.825,2.825,0,0,0,325.3,257.322Z"/>
    <path d="M335.081,259.631a3.943,3.943,0,0,1-1.128.7,3.252,3.252,0,0,1-1.163.2,2.261,2.261,0,0,1-1.576-.5,1.652,1.652,0,0,1-.551-1.279,1.7,1.7,0,0,1,.208-.836,1.725,1.725,0,0,1,.545-.606,2.575,2.575,0,0,1,.759-.345,7.328,7.328,0,0,1,.937-.158,9.623,9.623,0,0,0,1.881-.364c0-.144.006-.236.006-.275a1.163,1.163,0,0,0-.3-.908,1.76,1.76,0,0,0-1.2-.358,1.865,1.865,0,0,0-1.1.26,1.6,1.6,0,0,0-.524.924l-1.031-.141a2.546,2.546,0,0,1,.463-1.07,2.016,2.016,0,0,1,.931-.627,4.146,4.146,0,0,1,1.412-.219,3.734,3.734,0,0,1,1.3.188,1.716,1.716,0,0,1,.733.47,1.676,1.676,0,0,1,.328.719,5.953,5.953,0,0,1,.053.973v1.406a14.909,14.909,0,0,0,.067,1.859,2.346,2.346,0,0,0,.267.748h-1.1A2.231,2.231,0,0,1,335.081,259.631Zm-.088-2.356a7.73,7.73,0,0,1-1.722.4,3.95,3.95,0,0,0-.92.211.922.922,0,0,0-.244,1.547,1.378,1.378,0,0,0,.935.281,2.173,2.173,0,0,0,1.084-.268,1.637,1.637,0,0,0,.7-.728,2.536,2.536,0,0,0,.17-1.055Z"/>
    <path d="M337.7,254.176h1.055v2.59h2.924v-2.59h1.054V260.4h-1.054v-2.759h-2.924V260.4H337.7Z"/>
    <path d="M348.581,258.4l1.09.134a2.661,2.661,0,0,1-.955,1.483,2.876,2.876,0,0,1-1.781.527,2.844,2.844,0,0,1-2.165-.842,3.277,3.277,0,0,1-.8-2.357,3.439,3.439,0,0,1,.808-2.438,2.739,2.739,0,0,1,2.1-.867,2.658,2.658,0,0,1,2.039.85,3.376,3.376,0,0,1,.791,2.39q0,.095-.006.282h-4.64a2.389,2.389,0,0,0,.58,1.57,1.726,1.726,0,0,0,1.3.545,1.618,1.618,0,0,0,.991-.305A2.023,2.023,0,0,0,348.581,258.4Zm-3.463-1.706h3.475a2.1,2.1,0,0,0-.4-1.177,1.614,1.614,0,0,0-1.306-.61,1.673,1.673,0,0,0-1.222.487A1.922,1.922,0,0,0,345.118,256.689Z"/>
    <path d="M351,254.176h1.055v2.59h2.923v-2.59h1.055V260.4h-1.055v-2.759h-2.923V260.4H351Z"/>
    <path d="M357.622,254.176h1.055v4.746l2.924-4.746h1.136V260.4h-1.054v-4.716l-2.924,4.716h-1.137Z"/>
    <path d="M368.585,258.4l1.09.134a2.661,2.661,0,0,1-.955,1.483,2.877,2.877,0,0,1-1.782.527,2.847,2.847,0,0,1-2.165-.842,3.281,3.281,0,0,1-.8-2.357,3.439,3.439,0,0,1,.808-2.438,2.739,2.739,0,0,1,2.1-.867,2.658,2.658,0,0,1,2.039.85,3.376,3.376,0,0,1,.791,2.39q0,.095-.006.282h-4.641a2.394,2.394,0,0,0,.581,1.57,1.726,1.726,0,0,0,1.3.545,1.618,1.618,0,0,0,.991-.305A2.023,2.023,0,0,0,368.585,258.4Zm-3.463-1.706H368.6a2.1,2.1,0,0,0-.4-1.177,1.614,1.614,0,0,0-1.306-.61,1.673,1.673,0,0,0-1.222.487A1.922,1.922,0,0,0,365.122,256.689Z"/>
    <path d="M290.453,268.575h1.055v4.746l2.924-4.746h1.136V274.8h-1.054v-4.717L291.59,274.8h-1.137Z"/>
    <path d="M300.5,268.575h4.91V274.8h-1.054v-5.35h-2.8v5.35H300.5Z"/>
    <path d="M306.941,277.194l-.117-.99a2.336,2.336,0,0,0,.6.094,1.157,1.157,0,0,0,.562-.117.961.961,0,0,0,.346-.328,5.229,5.229,0,0,0,.322-.786c.02-.058.051-.144.094-.257l-2.361-6.235h1.136l1.3,3.6q.252.686.451,1.441a14.462,14.462,0,0,1,.434-1.418l1.33-3.627h1.055l-2.367,6.328a12.443,12.443,0,0,1-.592,1.412,2.088,2.088,0,0,1-.645.765,1.522,1.522,0,0,1-.867.243A2.113,2.113,0,0,1,306.941,277.194Z"/>
    <path d="M317.682,266l.931.012a1.609,1.609,0,0,1-.278.873.972.972,0,0,1-.551.316,7.878,7.878,0,0,1-1.321.07,4.256,4.256,0,0,0-1.781.252,1.449,1.449,0,0,0-.683.806,4.439,4.439,0,0,0-.231,1.427,2.72,2.72,0,0,1,.931-.888,2.438,2.438,0,0,1,1.2-.3,2.682,2.682,0,0,1,2.028.841,3.16,3.16,0,0,1,.8,2.276,3.52,3.52,0,0,1-.4,1.787,3.263,3.263,0,0,1-.958,1.079,3.185,3.185,0,0,1-3.231-.126,3.281,3.281,0,0,1-.944-1.3,8.028,8.028,0,0,1-.328-2.754q0-2.467.835-3.322a3.446,3.446,0,0,1,2.57-.856,10.521,10.521,0,0,0,1.224-.035A.239.239,0,0,0,317.682,266Zm-.053,5.66a2.607,2.607,0,0,0-.46-1.594,1.521,1.521,0,0,0-1.3-.621,1.567,1.567,0,0,0-1.348.656,2.933,2.933,0,0,0-.474,1.752,2.381,2.381,0,0,0,.524,1.659,1.685,1.685,0,0,0,1.292.574,1.515,1.515,0,0,0,1.275-.665A2.905,2.905,0,0,0,317.629,271.663Z"/>
    <path d="M319.973,268.575h4.9V274.8h-1.049v-5.35h-2.8v3.1a9.007,9.007,0,0,1-.07,1.43,1.041,1.041,0,0,1-.387.6,1.414,1.414,0,0,1-.914.258q-.369,0-.849-.047v-.879h.463a1.168,1.168,0,0,0,.468-.067.347.347,0,0,0,.188-.214,5.115,5.115,0,0,0,.047-.955Z"/>
    <path d="M326.459,268.575h1.055v4.746l2.924-4.746h1.136V274.8H330.52v-4.717L327.6,274.8h-1.137Z"/>
    <path d="M333.156,268.575h1.055v2.69a1.014,1.014,0,0,0,.706-.194,4.222,4.222,0,0,0,.6-1.125,4.451,4.451,0,0,1,.5-.972.96.96,0,0,1,.445-.317,2.883,2.883,0,0,1,.809-.082h.21v.873l-.292-.006a.781.781,0,0,0-.534.123,3.1,3.1,0,0,0-.375.768,3.206,3.206,0,0,1-.439.844,1.779,1.779,0,0,1-.615.427,2.549,2.549,0,0,1,1.336,1.266l1.154,1.928h-1.16l-1.125-1.928a2.643,2.643,0,0,0-.6-.765,1.029,1.029,0,0,0-.615-.184V274.8h-1.055Z"/>
    <path d="M342.736,274.03a3.9,3.9,0,0,1-1.128.7,3.252,3.252,0,0,1-1.163.2,2.267,2.267,0,0,1-1.576-.5,1.655,1.655,0,0,1-.551-1.281,1.733,1.733,0,0,1,.753-1.441,2.552,2.552,0,0,1,.759-.346,7.536,7.536,0,0,1,.938-.158,9.718,9.718,0,0,0,1.88-.363q.006-.217.006-.276a1.162,1.162,0,0,0-.3-.908,1.764,1.764,0,0,0-1.2-.357,1.867,1.867,0,0,0-1.1.26,1.6,1.6,0,0,0-.525.923l-1.031-.14a2.559,2.559,0,0,1,.463-1.07,2.035,2.035,0,0,1,.932-.627,4.163,4.163,0,0,1,1.412-.219,3.74,3.74,0,0,1,1.295.187,1.7,1.7,0,0,1,.732.472,1.649,1.649,0,0,1,.328.718,5.93,5.93,0,0,1,.053.972v1.406a14.95,14.95,0,0,0,.067,1.861,2.341,2.341,0,0,0,.267.747h-1.1A2.265,2.265,0,0,1,342.736,274.03Zm-.088-2.355a7.725,7.725,0,0,1-1.722.4,4.017,4.017,0,0,0-.92.211.919.919,0,0,0-.416.343.93.93,0,0,0,.173,1.2,1.37,1.37,0,0,0,.934.281,2.179,2.179,0,0,0,1.084-.266,1.644,1.644,0,0,0,.7-.73,2.553,2.553,0,0,0,.169-1.054Z"/>
    <path d="M345.367,268.575h1.055v5.356h2.918v-5.356H350.4v5.356h.679v2.631h-.867V274.8h-4.84Z"/>
    <path d="M352.223,268.575h1.054v4.746l2.924-4.746h1.137V274.8h-1.055v-4.717l-2.924,4.717h-1.136Z"/>
    <path d="M363.824,268.575V274.8h-1.049v-2.426h-.609a1.842,1.842,0,0,0-.829.144,3.074,3.074,0,0,0-.794.922l-.92,1.36h-1.307l1.137-1.676a1.814,1.814,0,0,1,1.037-.867,2.012,2.012,0,0,1-1.339-.651,1.844,1.844,0,0,1-.436-1.212,1.668,1.668,0,0,1,.571-1.313,2.428,2.428,0,0,1,1.655-.5Zm-1.049.873h-1.5a1.732,1.732,0,0,0-1.215.293.975.975,0,0,0-.273.686.905.905,0,0,0,.4.817,2.779,2.779,0,0,0,1.421.261h1.166Z"/>
  </g>
  <g>
    <path d="M275.421,113.684a6.229,6.229,0,0,1,1.531-4.465,5.209,5.209,0,0,1,3.953-1.614,5.487,5.487,0,0,1,2.86.758,4.956,4.956,0,0,1,1.941,2.114,6.867,6.867,0,0,1,.668,3.074,6.741,6.741,0,0,1-.7,3.117,4.8,4.8,0,0,1-1.992,2.082,5.686,5.686,0,0,1-2.782.707,5.41,5.41,0,0,1-2.89-.781,5.033,5.033,0,0,1-1.93-2.133A6.466,6.466,0,0,1,275.421,113.684Zm1.562.023a4.584,4.584,0,0,0,1.114,3.262,3.884,3.884,0,0,0,5.609-.012,4.863,4.863,0,0,0,1.106-3.414,5.867,5.867,0,0,0-.473-2.441,3.636,3.636,0,0,0-1.383-1.618,3.754,3.754,0,0,0-2.043-.574,3.874,3.874,0,0,0-2.769,1.106A4.934,4.934,0,0,0,276.983,113.707Z"/>
    <path d="M294.226,107.535l1.242.016a2.158,2.158,0,0,1-.371,1.164,1.3,1.3,0,0,1-.735.422,10.587,10.587,0,0,1-1.761.093,5.69,5.69,0,0,0-2.375.336,1.934,1.934,0,0,0-.911,1.075,5.956,5.956,0,0,0-.308,1.9,3.657,3.657,0,0,1,1.242-1.184,3.256,3.256,0,0,1,1.6-.394,3.581,3.581,0,0,1,2.7,1.121,4.213,4.213,0,0,1,1.07,3.035,4.707,4.707,0,0,1-.539,2.383,4.331,4.331,0,0,1-1.277,1.437,4.24,4.24,0,0,1-4.309-.168,4.361,4.361,0,0,1-1.258-1.73,10.664,10.664,0,0,1-.437-3.672q0-3.288,1.113-4.43a4.6,4.6,0,0,1,3.426-1.14,13.907,13.907,0,0,0,1.633-.047A.32.32,0,0,0,294.226,107.535Zm-.071,7.547a3.48,3.48,0,0,0-.613-2.125,2.027,2.027,0,0,0-1.73-.828,2.086,2.086,0,0,0-1.8.875,3.9,3.9,0,0,0-.633,2.336,3.167,3.167,0,0,0,.7,2.211,2.238,2.238,0,0,0,1.723.765,2.016,2.016,0,0,0,1.7-.886A3.869,3.869,0,0,0,294.155,115.082Z"/>
    <path d="M297.358,110.965h1.407v7.14h3.2v-7.14h1.406v7.14h3.211v-7.14h1.4v7.14h.93v3.508h-1.164v-2.351H297.358Z"/>
    <path d="M310.476,110.965h1.406v6.328l3.9-6.328H317.3v8.3H315.89v-6.289l-3.9,6.289h-1.515Z"/>
    <path d="M319.413,110.965h1.406v6.328l3.9-6.328h1.515v8.3h-1.406v-6.289l-3.9,6.289h-1.516Zm4.883-3.141h.961a2.264,2.264,0,0,1-.715,1.5,2.322,2.322,0,0,1-1.59.524,2.348,2.348,0,0,1-1.6-.52,2.26,2.26,0,0,1-.714-1.5h.961a1.315,1.315,0,0,0,.433.793,1.344,1.344,0,0,0,.871.262,1.526,1.526,0,0,0,.957-.254A1.3,1.3,0,0,0,324.3,107.824Z"/>
    <path d="M333.905,110.965h5.782v7.14h.9v3.508h-1.156v-2.351H332.9v2.351h-1.156v-3.508h.742Q333.968,116.09,333.905,110.965Zm1.172,1.164a13.663,13.663,0,0,1-1.25,5.976h4.461v-5.976Z"/>
    <path d="M341.608,115.113a4.275,4.275,0,0,1,1.282-3.414,3.864,3.864,0,0,1,2.609-.922,3.724,3.724,0,0,1,2.8,1.121,4.268,4.268,0,0,1,1.086,3.1,5.481,5.481,0,0,1-.481,2.52,3.388,3.388,0,0,1-1.4,1.425,4.078,4.078,0,0,1-2,.508,3.727,3.727,0,0,1-2.816-1.117A4.461,4.461,0,0,1,341.608,115.113Zm1.446,0a3.53,3.53,0,0,0,.7,2.387,2.315,2.315,0,0,0,3.492,0,3.615,3.615,0,0,0,.7-2.43,3.433,3.433,0,0,0-.7-2.332,2.318,2.318,0,0,0-3.488,0A3.519,3.519,0,0,0,343.054,115.113Z"/>
    <path d="M356.444,116.223l1.383.179a3.59,3.59,0,0,1-1.16,2.239,3.379,3.379,0,0,1-2.293.808,3.561,3.561,0,0,1-2.738-1.113,4.512,4.512,0,0,1-1.035-3.191,5.775,5.775,0,0,1,.445-2.352,3.109,3.109,0,0,1,1.355-1.512,4.022,4.022,0,0,1,1.981-.5,3.448,3.448,0,0,1,2.211.684,3.133,3.133,0,0,1,1.1,1.941l-1.367.211a2.275,2.275,0,0,0-.691-1.258,1.791,1.791,0,0,0-1.2-.421,2.185,2.185,0,0,0-1.727.761,3.622,3.622,0,0,0-.664,2.41,3.736,3.736,0,0,0,.641,2.43,2.08,2.08,0,0,0,1.671.758,1.969,1.969,0,0,0,1.383-.508A2.511,2.511,0,0,0,356.444,116.223Z"/>
    <path d="M358.272,110.965h6.743v1.164h-2.672v7.133h-1.4v-7.133h-2.672Z"/>
    <path d="M366.476,122.457l-.157-1.32a3.156,3.156,0,0,0,.805.125,1.543,1.543,0,0,0,.75-.157,1.277,1.277,0,0,0,.461-.437,6.993,6.993,0,0,0,.43-1.047c.026-.078.067-.193.125-.344l-3.149-8.312h1.516l1.726,4.8q.336.914.6,1.921a18.878,18.878,0,0,1,.578-1.89l1.774-4.836h1.406l-3.156,8.437a16.575,16.575,0,0,1-.79,1.883,2.789,2.789,0,0,1-.859,1.02,2.03,2.03,0,0,1-1.156.324A2.829,2.829,0,0,1,366.476,122.457Z"/>
    <path d="M374.546,110.965h6.547v8.3h-1.406v-7.133h-3.735v7.133h-1.406Z"/>
  </g>
  <g>
    <path d="M326.859,222.333c.23-3.425.94-16.878-1.072-25.614" fill="none" stroke="#000" stroke-miterlimit="10"/>
    <polygon points="330.429 199.133 329.852 199.951 325.827 197.104 323.281 201.327 322.424 200.809 325.526 195.666 330.429 199.133"/>
  </g>
  <g>
    <path d="M194.574,222.333c.231-3.425.941-16.878-1.071-25.614" fill="none" stroke="#000" stroke-miterlimit="10"/>
    <polygon points="198.145 199.133 197.568 199.951 193.542 197.104 190.996 201.327 190.139 200.809 193.242 195.666 198.145 199.133"/>
  </g>
  <path d="M346.689,156.961l-17.827,17.668V163.543a26.638,26.638,0,0,0-6.719,1.715,25,25,0,0,0-5.763,3.23,23.587,23.587,0,0,0-4.526,4.465,20.556,20.556,0,0,0-3.012,5.424,18.8,18.8,0,0,1-1.237-6.7,19.241,19.241,0,0,1,1.616-7.8,21.444,21.444,0,0,1,4.467-6.561,24.9,24.9,0,0,1,6.74-4.785,26.22,26.22,0,0,1,8.434-2.472V139.295Zm-14.636-4.027-2.791.318a23.2,23.2,0,0,0-6.461,1.717,21.721,21.721,0,0,0-5.5,3.369,19.227,19.227,0,0,0-4.068,4.746,16.827,16.827,0,0,0-2.194,5.883,26.728,26.728,0,0,1,7.717-5.725,30.386,30.386,0,0,1,9.711-2.89l3.59-.44v7.061l10.09-10.012-10.09-10.01Z" fill="#5b5d5e"/>
  <g>
    <path d="M406.391,237.407h6.755V246H412v-7.576h-4.477V246h-1.136Z"/>
    <path d="M414.477,242.886a3.207,3.207,0,0,1,.961-2.561,2.894,2.894,0,0,1,1.957-.691,2.79,2.79,0,0,1,2.1.841,3.2,3.2,0,0,1,.815,2.323,4.107,4.107,0,0,1-.361,1.89,2.555,2.555,0,0,1-1.049,1.069,3.049,3.049,0,0,1-1.5.381,2.8,2.8,0,0,1-2.113-.838A3.347,3.347,0,0,1,414.477,242.886Zm1.084,0a2.649,2.649,0,0,0,.521,1.79,1.736,1.736,0,0,0,2.619,0,2.712,2.712,0,0,0,.522-1.822,2.567,2.567,0,0,0-.525-1.749,1.738,1.738,0,0,0-2.616,0A2.635,2.635,0,0,0,415.561,242.886Z"/>
    <path d="M421.572,239.774h1.641l1.635,4.981,1.816-4.981h1.518V246h-1.055v-5.01l-1.84,5.01h-.943l-1.74-5.25V246h-1.032Z"/>
    <path d="M429.4,242.886a3.21,3.21,0,0,1,.961-2.561,2.9,2.9,0,0,1,1.957-.691,2.79,2.79,0,0,1,2.1.841,3.2,3.2,0,0,1,.814,2.323,4.121,4.121,0,0,1-.36,1.89,2.555,2.555,0,0,1-1.049,1.069,3.053,3.053,0,0,1-1.5.381,2.8,2.8,0,0,1-2.112-.838A3.348,3.348,0,0,1,429.4,242.886Zm1.084,0a2.649,2.649,0,0,0,.522,1.79,1.736,1.736,0,0,0,2.619,0,2.712,2.712,0,0,0,.521-1.822,2.567,2.567,0,0,0-.524-1.749,1.738,1.738,0,0,0-2.616,0A2.635,2.635,0,0,0,430.484,242.886Z"/>
    <path d="M436.5,239.774h1.055v5.356h2.4v-5.356h1.055v5.356h2.408v-5.356h1.049v5.356h.7v2.631H444.3V246H436.5Z"/>
    <path d="M446.322,239.774h1.055v2.432h1.336a3.417,3.417,0,0,1,2.013.507,1.628,1.628,0,0,1,.706,1.4,1.766,1.766,0,0,1-.589,1.333,2.685,2.685,0,0,1-1.884.554h-2.637Zm1.055,5.356h1.107a3.042,3.042,0,0,0,1.43-.246.824.824,0,0,0,.428-.768.991.991,0,0,0-.317-.72,2.1,2.1,0,0,0-1.4-.317h-1.248Z"/>
    <path d="M455.932,239.774h4.91V246h-1.055v-5.35h-2.8V246h-1.054Z"/>
    <path d="M462.031,242.886a3.21,3.21,0,0,1,.961-2.561,2.9,2.9,0,0,1,1.957-.691,2.79,2.79,0,0,1,2.1.841,3.2,3.2,0,0,1,.814,2.323,4.121,4.121,0,0,1-.36,1.89,2.555,2.555,0,0,1-1.049,1.069,3.053,3.053,0,0,1-1.5.381,2.8,2.8,0,0,1-2.112-.838A3.348,3.348,0,0,1,462.031,242.886Zm1.084,0a2.649,2.649,0,0,0,.522,1.79,1.736,1.736,0,0,0,2.619,0,2.712,2.712,0,0,0,.521-1.822,2.567,2.567,0,0,0-.524-1.749,1.738,1.738,0,0,0-2.616,0A2.635,2.635,0,0,0,463.115,242.886Z"/>
    <path d="M469.35,239.774h4.9V246H473.2v-5.35h-2.8v3.1a9.007,9.007,0,0,1-.07,1.43,1.041,1.041,0,0,1-.387.6,1.414,1.414,0,0,1-.914.258q-.369,0-.849-.047v-.879h.462a1.173,1.173,0,0,0,.469-.067.347.347,0,0,0,.188-.214,5.115,5.115,0,0,0,.047-.955Z"/>
    <path d="M475.818,239.774h1.055v2.432h1.336a3.417,3.417,0,0,1,2.013.507,1.628,1.628,0,0,1,.706,1.4,1.766,1.766,0,0,1-.589,1.333,2.685,2.685,0,0,1-1.884.554h-2.637Zm1.055,5.356h1.107a3.042,3.042,0,0,0,1.43-.246.824.824,0,0,0,.428-.768.991.991,0,0,0-.317-.72,2.1,2.1,0,0,0-1.4-.317h-1.248Z"/>
    <path d="M483.465,243.185v-.827a6.107,6.107,0,0,0,.911-.052.858.858,0,0,0,.46-.282.831.831,0,0,0,.217-.586.872.872,0,0,0-.284-.682,1.062,1.062,0,0,0-.736-.255,1.3,1.3,0,0,0-1.248,1.049l-1-.164a2.39,2.39,0,0,1,3.823-1.207,1.744,1.744,0,0,1,.566,1.3,1.369,1.369,0,0,1-.738,1.213,1.781,1.781,0,0,1,.7.642,1.759,1.759,0,0,1,.234.923,1.7,1.7,0,0,1-.609,1.359,2.543,2.543,0,0,1-1.7.522,2.188,2.188,0,0,1-2.467-1.893l.99-.211a1.583,1.583,0,0,0,.548.926,1.477,1.477,0,0,0,.946.328,1.317,1.317,0,0,0,.888-.3,1.014,1.014,0,0,0,.132-1.4.951.951,0,0,0-.475-.337,4.122,4.122,0,0,0-.914-.067Z"/>
    <path d="M487.063,242.886a3.21,3.21,0,0,1,.96-2.561,2.9,2.9,0,0,1,1.957-.691,2.79,2.79,0,0,1,2.1.841,3.2,3.2,0,0,1,.815,2.323,4.12,4.12,0,0,1-.361,1.89,2.555,2.555,0,0,1-1.049,1.069,3.053,3.053,0,0,1-1.5.381,2.8,2.8,0,0,1-2.112-.838A3.347,3.347,0,0,1,487.063,242.886Zm1.083,0a2.649,2.649,0,0,0,.522,1.79,1.736,1.736,0,0,0,2.619,0,2.712,2.712,0,0,0,.522-1.822,2.567,2.567,0,0,0-.525-1.749,1.738,1.738,0,0,0-2.616,0A2.635,2.635,0,0,0,488.146,242.886Z"/>
    <path d="M494.135,239.774h2.431a4.391,4.391,0,0,1,1.333.15,1.6,1.6,0,0,1,.75.548,1.5,1.5,0,0,1,.314.955,1.568,1.568,0,0,1-.185.776,1.505,1.505,0,0,1-.553.554,1.445,1.445,0,0,1,.729.548,1.583,1.583,0,0,1,.29.952,1.676,1.676,0,0,1-.633,1.312,2.764,2.764,0,0,1-1.67.428h-2.806Zm1.054,2.62h1.125a4.005,4.005,0,0,0,.926-.071.961.961,0,0,0,.451-.284.726.726,0,0,0,.2-.513.716.716,0,0,0-.349-.685,2.635,2.635,0,0,0-1.192-.194h-1.161Zm0,2.736h1.389a2.532,2.532,0,0,0,1.231-.208.816.816,0,0,0,.351-.718.9.9,0,0,0-.193-.554.837.837,0,0,0-.5-.322,5.213,5.213,0,0,0-1-.067h-1.278Z"/>
    <path d="M504.43,245.229a3.926,3.926,0,0,1-1.128.7,3.277,3.277,0,0,1-1.163.205,2.261,2.261,0,0,1-1.576-.5,1.652,1.652,0,0,1-.551-1.281,1.733,1.733,0,0,1,.753-1.441,2.56,2.56,0,0,1,.758-.346,7.731,7.731,0,0,1,.938-.158,9.654,9.654,0,0,0,1.881-.363c0-.145.006-.236.006-.276a1.166,1.166,0,0,0-.3-.908,1.767,1.767,0,0,0-1.2-.357,1.862,1.862,0,0,0-1.1.261,1.589,1.589,0,0,0-.524.922l-1.032-.14a2.559,2.559,0,0,1,.463-1.07,2.031,2.031,0,0,1,.932-.626,4.142,4.142,0,0,1,1.412-.22,3.74,3.74,0,0,1,1.3.187,1.708,1.708,0,0,1,.732.472,1.643,1.643,0,0,1,.328.718,5.824,5.824,0,0,1,.053.972v1.407a14.861,14.861,0,0,0,.068,1.86,2.338,2.338,0,0,0,.266.747h-1.1A2.221,2.221,0,0,1,504.43,245.229Zm-.088-2.355a7.736,7.736,0,0,1-1.723.4,4.031,4.031,0,0,0-.92.211.931.931,0,0,0-.416.343.908.908,0,0,0-.146.5.9.9,0,0,0,.319.7,1.371,1.371,0,0,0,.935.282,2.175,2.175,0,0,0,1.084-.267,1.647,1.647,0,0,0,.7-.73,2.547,2.547,0,0,0,.17-1.054Z"/>
    <path d="M506.211,239.774h5.057v.873h-2V246h-1.049v-5.35h-2Z"/>
    <path d="M516.4,243.993l1.09.135a2.655,2.655,0,0,1-.955,1.482,3.233,3.233,0,0,1-3.946-.313,3.288,3.288,0,0,1-.8-2.359,3.439,3.439,0,0,1,.809-2.437,2.736,2.736,0,0,1,2.1-.867,2.661,2.661,0,0,1,2.039.849,3.375,3.375,0,0,1,.791,2.391c0,.063,0,.156,0,.281h-4.641a2.392,2.392,0,0,0,.58,1.571,1.728,1.728,0,0,0,1.3.545,1.615,1.615,0,0,0,.99-.3A2.026,2.026,0,0,0,516.4,243.993Zm-3.462-1.7h3.474a2.118,2.118,0,0,0-.4-1.178,1.618,1.618,0,0,0-1.307-.609,1.677,1.677,0,0,0-1.222.486A1.926,1.926,0,0,0,512.938,242.288Z"/>
    <path d="M518.932,239.774h4.9V246h-1.049v-5.35h-2.795v3.1a9.007,9.007,0,0,1-.07,1.43,1.041,1.041,0,0,1-.387.6,1.414,1.414,0,0,1-.914.258q-.369,0-.849-.047v-.879h.463a1.168,1.168,0,0,0,.468-.067.344.344,0,0,0,.188-.214,5.115,5.115,0,0,0,.047-.955Z"/>
    <path d="M530.316,239.774V246h-1.048v-2.426h-.61a1.842,1.842,0,0,0-.829.144,3.082,3.082,0,0,0-.794.923l-.92,1.359h-1.306l1.136-1.676a1.825,1.825,0,0,1,1.037-.867,2.013,2.013,0,0,1-1.338-.65,1.849,1.849,0,0,1-.437-1.213,1.668,1.668,0,0,1,.571-1.313,2.429,2.429,0,0,1,1.656-.5Zm-1.048.873h-1.5a1.735,1.735,0,0,0-1.216.293.975.975,0,0,0-.273.686.9.9,0,0,0,.4.817,2.774,2.774,0,0,0,1.421.261h1.166Z"/>
    <path d="M531.945,239.774h1.641l1.635,4.981,1.816-4.981h1.518V246H537.5v-5.01L535.66,246h-.943l-1.74-5.25V246h-1.032Z"/>
    <path d="M540.441,246v-1.2h1.2V246a2.133,2.133,0,0,1-.235,1.069,1.521,1.521,0,0,1-.744.63l-.293-.451a1,1,0,0,0,.492-.431,1.827,1.827,0,0,0,.176-.817Z"/>
    <path d="M404.366,254.175h4.91V260.4h-1.054v-5.349h-2.8V260.4h-1.055Z"/>
    <path d="M410.466,257.286a3.2,3.2,0,0,1,.961-2.56,2.894,2.894,0,0,1,1.957-.692,2.79,2.79,0,0,1,2.1.841,3.2,3.2,0,0,1,.815,2.323,4.121,4.121,0,0,1-.36,1.89,2.555,2.555,0,0,1-1.049,1.069,3.053,3.053,0,0,1-1.5.381,2.8,2.8,0,0,1-2.113-.838A3.346,3.346,0,0,1,410.466,257.286Zm1.084,0a2.653,2.653,0,0,0,.521,1.79,1.736,1.736,0,0,0,2.619,0,2.711,2.711,0,0,0,.522-1.822,2.572,2.572,0,0,0-.524-1.749,1.739,1.739,0,0,0-2.617,0A2.642,2.642,0,0,0,411.55,257.286Z"/>
    <path d="M418.1,254.175h4.336v5.355h.673v2.631h-.867V260.4h-4.9v1.764h-.867V259.53h.556Q418.147,258.018,418.1,254.175Zm.878.873a10.257,10.257,0,0,1-.937,4.482h3.346v-4.482Z"/>
    <path d="M425.1,254.175h4.335v5.355h.674v2.631h-.867V260.4h-4.9v1.764h-.868V259.53h.557Q425.149,258.018,425.1,254.175Zm.878.873a10.257,10.257,0,0,1-.937,4.482h3.346v-4.482Z"/>
    <path d="M435.532,258.394l1.09.134a2.661,2.661,0,0,1-.955,1.483,2.876,2.876,0,0,1-1.781.527,2.845,2.845,0,0,1-2.165-.841,3.284,3.284,0,0,1-.8-2.358,3.439,3.439,0,0,1,.808-2.438,2.74,2.74,0,0,1,2.1-.867,2.658,2.658,0,0,1,2.039.85,3.371,3.371,0,0,1,.791,2.39q0,.094-.006.282h-4.64a2.389,2.389,0,0,0,.58,1.57,1.726,1.726,0,0,0,1.3.545,1.617,1.617,0,0,0,.99-.305A2.023,2.023,0,0,0,435.532,258.394Zm-3.463-1.706h3.475a2.111,2.111,0,0,0-.4-1.177,1.616,1.616,0,0,0-1.307-.61,1.673,1.673,0,0,0-1.222.487A1.924,1.924,0,0,0,432.069,256.688Z"/>
    <path d="M437.946,262.782v-8.607h.961v.808a2.389,2.389,0,0,1,.768-.712,2.111,2.111,0,0,1,1.037-.237,2.461,2.461,0,0,1,1.406.41,2.524,2.524,0,0,1,.92,1.158,4.225,4.225,0,0,1,.311,1.637,4.169,4.169,0,0,1-.343,1.72,2.592,2.592,0,0,1-1,1.172,2.564,2.564,0,0,1-1.374.407,1.982,1.982,0,0,1-.947-.223,2.16,2.16,0,0,1-.688-.562v3.029Zm.955-5.461a2.7,2.7,0,0,0,.487,1.776,1.492,1.492,0,0,0,1.177.574,1.525,1.525,0,0,0,1.2-.595,2.821,2.821,0,0,0,.5-1.843,2.75,2.75,0,0,0-.49-1.781,1.475,1.475,0,0,0-1.169-.592,1.519,1.519,0,0,0-1.192.63A2.818,2.818,0,0,0,438.9,257.321Z"/>
    <path d="M448.382,254.175v2.689a1.027,1.027,0,0,0,.709-.193,4.116,4.116,0,0,0,.6-1.125,3.208,3.208,0,0,1,.663-1.131,1.415,1.415,0,0,1,.914-.24h.386v.873l-.287-.006a.792.792,0,0,0-.539.123,3.1,3.1,0,0,0-.375.768,3.132,3.132,0,0,1-.433.843,1.772,1.772,0,0,1-.621.428,2.513,2.513,0,0,1,1.335,1.266l1.161,1.927h-1.161l-1.13-1.927a2.568,2.568,0,0,0-.6-.768,1.041,1.041,0,0,0-.615-.181V260.4H447.3v-2.876a1.044,1.044,0,0,0-.61.178,2.5,2.5,0,0,0-.6.771L444.96,260.4H443.8l1.154-1.927A2.539,2.539,0,0,1,446.3,257.2a1.661,1.661,0,0,1-.656-.472,6.573,6.573,0,0,1-.563-1.215.757.757,0,0,0-.275-.4,1.041,1.041,0,0,0-.451-.076l-.311.006v-.873h.147a3.438,3.438,0,0,1,.858.073.91.91,0,0,1,.445.311,4.523,4.523,0,0,1,.513.987,4.291,4.291,0,0,0,.589,1.119,1,1,0,0,0,.712.2v-2.689Z"/>
    <path d="M452.642,254.175H453.7v2.689a1.013,1.013,0,0,0,.706-.193,4.222,4.222,0,0,0,.6-1.125,4.465,4.465,0,0,1,.5-.973.965.965,0,0,1,.445-.316,2.85,2.85,0,0,1,.809-.082h.211v.873l-.293-.006a.78.78,0,0,0-.533.123,3.1,3.1,0,0,0-.375.768,3.222,3.222,0,0,1-.44.843,1.78,1.78,0,0,1-.615.428,2.545,2.545,0,0,1,1.336,1.266L457.2,260.4h-1.16l-1.125-1.927a2.629,2.629,0,0,0-.6-.765,1.03,1.03,0,0,0-.616-.184V260.4h-1.054Z"/>
    <path d="M462.222,259.63a3.943,3.943,0,0,1-1.128.7,3.255,3.255,0,0,1-1.163.2,2.265,2.265,0,0,1-1.577-.5,1.654,1.654,0,0,1-.55-1.28,1.7,1.7,0,0,1,.208-.835,1.719,1.719,0,0,1,.545-.607,2.558,2.558,0,0,1,.758-.345,7.351,7.351,0,0,1,.938-.158,9.655,9.655,0,0,0,1.881-.364c0-.144.006-.236.006-.275a1.163,1.163,0,0,0-.3-.908,1.762,1.762,0,0,0-1.2-.358,1.862,1.862,0,0,0-1.1.261,1.592,1.592,0,0,0-.524.923l-1.032-.141a2.555,2.555,0,0,1,.463-1.069,2.025,2.025,0,0,1,.932-.627,4.142,4.142,0,0,1,1.412-.22,3.738,3.738,0,0,1,1.3.188,1.707,1.707,0,0,1,.732.471,1.649,1.649,0,0,1,.328.718,5.839,5.839,0,0,1,.053.973v1.406a14.839,14.839,0,0,0,.068,1.86,2.338,2.338,0,0,0,.266.747h-1.1A2.209,2.209,0,0,1,462.222,259.63Zm-.088-2.356a7.727,7.727,0,0,1-1.723.4,3.977,3.977,0,0,0-.92.211.918.918,0,0,0-.416.343.934.934,0,0,0,.173,1.2,1.376,1.376,0,0,0,.935.281,2.175,2.175,0,0,0,1.084-.267,1.644,1.644,0,0,0,.7-.729,2.553,2.553,0,0,0,.17-1.055Z"/>
    <path d="M468.169,254.175h1.055v4.746l2.923-4.746h1.137V260.4h-1.055v-4.716l-2.923,4.716h-1.137Z"/>
    <path d="M482.267,258.118l1.037.135a2.7,2.7,0,0,1-.87,1.679,2.536,2.536,0,0,1-1.72.606,2.671,2.671,0,0,1-2.054-.835,3.39,3.39,0,0,1-.776-2.393,4.327,4.327,0,0,1,.334-1.764,2.325,2.325,0,0,1,1.016-1.134,3.018,3.018,0,0,1,1.486-.378,2.581,2.581,0,0,1,1.658.513A2.349,2.349,0,0,1,483.2,256l-1.025.158a1.7,1.7,0,0,0-.519-.943,1.342,1.342,0,0,0-.9-.317,1.636,1.636,0,0,0-1.3.572,2.711,2.711,0,0,0-.5,1.807,2.808,2.808,0,0,0,.48,1.823,1.568,1.568,0,0,0,1.254.568,1.477,1.477,0,0,0,1.037-.381A1.89,1.89,0,0,0,482.267,258.118Z"/>
    <path d="M483.948,257.286a3.208,3.208,0,0,1,.961-2.56,2.9,2.9,0,0,1,1.957-.692,2.79,2.79,0,0,1,2.1.841,3.2,3.2,0,0,1,.814,2.323,4.121,4.121,0,0,1-.36,1.89,2.549,2.549,0,0,1-1.049,1.069,3.053,3.053,0,0,1-1.5.381,2.8,2.8,0,0,1-2.112-.838A3.346,3.346,0,0,1,483.948,257.286Zm1.084,0a2.647,2.647,0,0,0,.522,1.79,1.736,1.736,0,0,0,2.619,0,2.711,2.711,0,0,0,.521-1.822,2.567,2.567,0,0,0-.524-1.749,1.738,1.738,0,0,0-2.616,0A2.637,2.637,0,0,0,485.032,257.286Z"/>
    <path d="M490.622,257.286a3.2,3.2,0,0,1,.961-2.56,2.9,2.9,0,0,1,1.957-.692,2.79,2.79,0,0,1,2.1.841,3.2,3.2,0,0,1,.814,2.323,4.121,4.121,0,0,1-.36,1.89,2.549,2.549,0,0,1-1.049,1.069,3.053,3.053,0,0,1-1.5.381,2.8,2.8,0,0,1-2.112-.838A3.346,3.346,0,0,1,490.622,257.286Zm1.084,0a2.647,2.647,0,0,0,.522,1.79,1.736,1.736,0,0,0,2.619,0,2.716,2.716,0,0,0,.521-1.822,2.572,2.572,0,0,0-.524-1.749,1.738,1.738,0,0,0-2.616,0A2.637,2.637,0,0,0,491.706,257.286Z"/>
    <path d="M502.247,251.6l.932.011a1.608,1.608,0,0,1-.279.873.97.97,0,0,1-.55.317,7.893,7.893,0,0,1-1.322.07,4.256,4.256,0,0,0-1.781.252,1.453,1.453,0,0,0-.683.806,4.488,4.488,0,0,0-.231,1.426,2.729,2.729,0,0,1,.932-.887,2.424,2.424,0,0,1,1.2-.3,2.682,2.682,0,0,1,2.027.841,3.159,3.159,0,0,1,.8,2.276,3.533,3.533,0,0,1-.4,1.787,3.27,3.27,0,0,1-.958,1.078,3.18,3.18,0,0,1-3.232-.126,3.272,3.272,0,0,1-.943-1.3,8,8,0,0,1-.328-2.754q0-2.466.835-3.322a3.447,3.447,0,0,1,2.569-.855,10.532,10.532,0,0,0,1.225-.035A.241.241,0,0,0,502.247,251.6Zm-.053,5.66a2.605,2.605,0,0,0-.46-1.594,1.519,1.519,0,0,0-1.3-.621,1.564,1.564,0,0,0-1.348.656,2.926,2.926,0,0,0-.475,1.752,2.373,2.373,0,0,0,.525,1.658,1.679,1.679,0,0,0,1.292.574,1.511,1.511,0,0,0,1.274-.665A2.9,2.9,0,0,0,502.194,257.263Z"/>
    <path d="M504.6,254.175h1.054v5.355h2.4v-5.355h1.054v5.355h2.409v-5.355h1.048v5.355h.7v2.631h-.873V260.4H504.6Z"/>
    <path d="M518.56,258.394l1.089.134a2.656,2.656,0,0,1-.955,1.483,2.874,2.874,0,0,1-1.781.527,2.845,2.845,0,0,1-2.165-.841,3.284,3.284,0,0,1-.8-2.358,3.44,3.44,0,0,1,.809-2.438,2.736,2.736,0,0,1,2.1-.867,2.66,2.66,0,0,1,2.04.85,3.376,3.376,0,0,1,.791,2.39q0,.094-.006.282h-4.641a2.394,2.394,0,0,0,.58,1.57,1.728,1.728,0,0,0,1.3.545,1.613,1.613,0,0,0,.99-.305A2.024,2.024,0,0,0,518.56,258.394Zm-3.463-1.706h3.474a2.1,2.1,0,0,0-.4-1.177,1.616,1.616,0,0,0-1.307-.61,1.672,1.672,0,0,0-1.221.487A1.92,1.92,0,0,0,515.1,256.688Z"/>
    <path d="M525.034,258.118l1.037.135a2.689,2.689,0,0,1-.87,1.679,2.536,2.536,0,0,1-1.72.606,2.669,2.669,0,0,1-2.053-.835,3.385,3.385,0,0,1-.777-2.393,4.344,4.344,0,0,1,.334-1.764A2.332,2.332,0,0,1,522,254.412a3.015,3.015,0,0,1,1.485-.378,2.584,2.584,0,0,1,1.659.513,2.354,2.354,0,0,1,.826,1.456l-1.026.158a1.7,1.7,0,0,0-.518-.943,1.343,1.343,0,0,0-.9-.317,1.638,1.638,0,0,0-1.3.572,2.711,2.711,0,0,0-.5,1.807,2.807,2.807,0,0,0,.481,1.823,1.565,1.565,0,0,0,1.254.568,1.478,1.478,0,0,0,1.037-.381A1.889,1.889,0,0,0,525.034,258.118Z"/>
    <path d="M526.405,254.175h5.057v.873h-2V260.4h-1.049v-5.349h-2Z"/>
    <path d="M532.476,254.175h2.431a4.43,4.43,0,0,1,1.333.149,1.61,1.61,0,0,1,.75.548,1.5,1.5,0,0,1,.314.955,1.572,1.572,0,0,1-.185.777,1.5,1.5,0,0,1-.554.553,1.459,1.459,0,0,1,.73.548,1.585,1.585,0,0,1,.29.952,1.678,1.678,0,0,1-.633,1.313,2.766,2.766,0,0,1-1.67.427h-2.806Zm1.054,2.619h1.125a4.028,4.028,0,0,0,.926-.07.968.968,0,0,0,.451-.285.81.81,0,0,0-.149-1.2,2.643,2.643,0,0,0-1.193-.193h-1.16Zm0,2.736h1.389a2.524,2.524,0,0,0,1.23-.208.813.813,0,0,0,.352-.718.9.9,0,0,0-.193-.553.832.832,0,0,0-.5-.322,5.194,5.194,0,0,0-1-.068H533.53Z"/>
    <path d="M542.771,259.63a3.943,3.943,0,0,1-1.128.7,3.257,3.257,0,0,1-1.164.2,2.264,2.264,0,0,1-1.576-.5,1.654,1.654,0,0,1-.55-1.28,1.7,1.7,0,0,1,.208-.835,1.726,1.726,0,0,1,.544-.607,2.575,2.575,0,0,1,.759-.345,7.351,7.351,0,0,1,.938-.158,9.655,9.655,0,0,0,1.881-.364c0-.144,0-.236,0-.275a1.163,1.163,0,0,0-.3-.908,1.763,1.763,0,0,0-1.2-.358,1.858,1.858,0,0,0-1.1.261,1.6,1.6,0,0,0-.525.923l-1.031-.141a2.555,2.555,0,0,1,.463-1.069,2.02,2.02,0,0,1,.932-.627,4.142,4.142,0,0,1,1.412-.22,3.738,3.738,0,0,1,1.295.188,1.707,1.707,0,0,1,.732.471,1.66,1.66,0,0,1,.328.718,5.953,5.953,0,0,1,.053.973v1.406a14.918,14.918,0,0,0,.067,1.86,2.341,2.341,0,0,0,.267.747h-1.1A2.231,2.231,0,0,1,542.771,259.63Zm-.088-2.356a7.727,7.727,0,0,1-1.723.4,3.964,3.964,0,0,0-.92.211.913.913,0,0,0-.416.343.934.934,0,0,0,.173,1.2,1.375,1.375,0,0,0,.934.281,2.169,2.169,0,0,0,1.084-.267,1.641,1.641,0,0,0,.7-.729,2.553,2.553,0,0,0,.17-1.055Z"/>
    <path d="M433.443,268.574h4.911V274.8H437.3v-5.35h-2.8v5.35h-1.055Z"/>
    <path d="M439.543,271.686a3.207,3.207,0,0,1,.961-2.561,2.894,2.894,0,0,1,1.957-.691,2.8,2.8,0,0,1,2.1.84,3.2,3.2,0,0,1,.814,2.324,4.119,4.119,0,0,1-.36,1.889,2.558,2.558,0,0,1-1.049,1.07,3.053,3.053,0,0,1-1.5.381,2.8,2.8,0,0,1-2.112-.838A3.349,3.349,0,0,1,439.543,271.686Zm1.084,0a2.656,2.656,0,0,0,.521,1.79,1.739,1.739,0,0,0,2.62,0,2.719,2.719,0,0,0,.521-1.823,2.576,2.576,0,0,0-.524-1.749,1.741,1.741,0,0,0-2.617,0A2.645,2.645,0,0,0,440.627,271.686Z"/>
    <path d="M446.861,268.574h4.9V274.8h-1.049v-5.35h-2.8v3.1a9.007,9.007,0,0,1-.07,1.43,1.041,1.041,0,0,1-.387.6,1.416,1.416,0,0,1-.914.258q-.369,0-.85-.047v-.879h.463a1.173,1.173,0,0,0,.469-.067.342.342,0,0,0,.187-.214,5.021,5.021,0,0,0,.047-.955Z"/>
    <path d="M453.33,268.574h1.055v2.432h1.336a3.411,3.411,0,0,1,2.012.507,1.625,1.625,0,0,1,.706,1.4,1.765,1.765,0,0,1-.588,1.333,2.69,2.69,0,0,1-1.884.554H453.33Zm1.055,5.356h1.107a3.042,3.042,0,0,0,1.43-.246.824.824,0,0,0,.428-.768.993.993,0,0,0-.317-.721,2.1,2.1,0,0,0-1.4-.316h-1.248Z"/>
    <path d="M460.977,271.984v-.826a5.929,5.929,0,0,0,.911-.053.856.856,0,0,0,.46-.281.83.83,0,0,0,.216-.586.869.869,0,0,0-.284-.682,1.057,1.057,0,0,0-.735-.255,1.3,1.3,0,0,0-1.248,1.049l-1-.164a2.39,2.39,0,0,1,3.823-1.207,1.742,1.742,0,0,1,.566,1.3,1.369,1.369,0,0,1-.739,1.213,1.768,1.768,0,0,1,.7.642,1.75,1.75,0,0,1,.235.923,1.7,1.7,0,0,1-.61,1.359,2.539,2.539,0,0,1-1.705.522,2.187,2.187,0,0,1-2.466-1.893l.99-.211a1.581,1.581,0,0,0,.548.926,1.475,1.475,0,0,0,.946.328,1.326,1.326,0,0,0,.888-.3,1.012,1.012,0,0,0,.131-1.4.944.944,0,0,0-.474-.337,4.122,4.122,0,0,0-.914-.067C461.182,271.979,461.1,271.98,460.977,271.984Z"/>
    <path d="M464.574,271.686a3.21,3.21,0,0,1,.961-2.561,2.9,2.9,0,0,1,1.957-.691,2.793,2.793,0,0,1,2.1.84,3.2,3.2,0,0,1,.814,2.324,4.119,4.119,0,0,1-.36,1.889,2.552,2.552,0,0,1-1.049,1.07,3.053,3.053,0,0,1-1.5.381,2.8,2.8,0,0,1-2.112-.838A3.349,3.349,0,0,1,464.574,271.686Zm1.084,0a2.651,2.651,0,0,0,.522,1.79,1.738,1.738,0,0,0,2.619,0,2.719,2.719,0,0,0,.521-1.823,2.571,2.571,0,0,0-.524-1.749,1.74,1.74,0,0,0-2.616,0A2.64,2.64,0,0,0,465.658,271.686Z"/>
    <path d="M471.646,268.574h2.432a4.391,4.391,0,0,1,1.333.15,1.608,1.608,0,0,1,.75.547,1.5,1.5,0,0,1,.314.956,1.571,1.571,0,0,1-.185.776,1.508,1.508,0,0,1-.554.554,1.456,1.456,0,0,1,.73.547,1.586,1.586,0,0,1,.29.953,1.678,1.678,0,0,1-.633,1.312,2.766,2.766,0,0,1-1.67.428h-2.807Zm1.055,2.619h1.125a4.028,4.028,0,0,0,.926-.07.974.974,0,0,0,.451-.284.727.727,0,0,0,.2-.513.716.716,0,0,0-.348-.685,2.64,2.64,0,0,0-1.193-.194H472.7Zm0,2.737h1.389a2.536,2.536,0,0,0,1.23-.208.814.814,0,0,0,.352-.718.9.9,0,0,0-.193-.554.837.837,0,0,0-.5-.322,5.213,5.213,0,0,0-1-.067H472.7Z"/>
    <path d="M481.941,274.029a3.9,3.9,0,0,1-1.128.7,3.252,3.252,0,0,1-1.163.206,2.262,2.262,0,0,1-1.576-.5,1.655,1.655,0,0,1-.551-1.281,1.733,1.733,0,0,1,.753-1.441,2.577,2.577,0,0,1,.759-.346,7.536,7.536,0,0,1,.938-.158,9.748,9.748,0,0,0,1.881-.363c0-.145,0-.237,0-.276a1.166,1.166,0,0,0-.3-.908,1.768,1.768,0,0,0-1.2-.357,1.867,1.867,0,0,0-1.1.26,1.6,1.6,0,0,0-.525.923l-1.031-.14a2.559,2.559,0,0,1,.463-1.07,2.035,2.035,0,0,1,.932-.627,4.167,4.167,0,0,1,1.412-.219,3.74,3.74,0,0,1,1.3.187,1.7,1.7,0,0,1,.732.472,1.649,1.649,0,0,1,.328.718,5.93,5.93,0,0,1,.053.972v1.406a14.95,14.95,0,0,0,.067,1.861,2.341,2.341,0,0,0,.267.747h-1.1A2.265,2.265,0,0,1,481.941,274.029Zm-.087-2.355a7.75,7.75,0,0,1-1.723.4,4.017,4.017,0,0,0-.92.211.919.919,0,0,0-.416.343.93.93,0,0,0,.173,1.2,1.37,1.37,0,0,0,.934.281,2.179,2.179,0,0,0,1.084-.266,1.644,1.644,0,0,0,.7-.73,2.55,2.55,0,0,0,.17-1.054Z"/>
    <path d="M483.723,268.574h5.056v.873h-2v5.35h-1.048v-5.35h-2Z"/>
    <path d="M493.912,272.793l1.09.135a2.658,2.658,0,0,1-.955,1.482,3.233,3.233,0,0,1-3.946-.313,3.284,3.284,0,0,1-.8-2.359,3.437,3.437,0,0,1,.808-2.437,2.739,2.739,0,0,1,2.1-.867,2.661,2.661,0,0,1,2.039.849,3.378,3.378,0,0,1,.791,2.391c0,.062,0,.156-.006.281h-4.64a2.387,2.387,0,0,0,.58,1.57,1.722,1.722,0,0,0,1.3.545,1.617,1.617,0,0,0,.991-.3A2.026,2.026,0,0,0,493.912,272.793Zm-3.463-1.7h3.475a2.107,2.107,0,0,0-.4-1.178,1.616,1.616,0,0,0-1.306-.609,1.676,1.676,0,0,0-1.222.486A1.925,1.925,0,0,0,490.449,271.088Z"/>
    <path d="M496.443,268.574h4.9V274.8h-1.049v-5.35h-2.8v3.1a9.007,9.007,0,0,1-.07,1.43,1.041,1.041,0,0,1-.387.6,1.416,1.416,0,0,1-.914.258q-.369,0-.85-.047v-.879h.463a1.173,1.173,0,0,0,.469-.067.342.342,0,0,0,.187-.214,5.021,5.021,0,0,0,.047-.955Z"/>
    <path d="M507.189,272.793l1.09.135a2.658,2.658,0,0,1-.955,1.482,3.233,3.233,0,0,1-3.946-.313,3.288,3.288,0,0,1-.8-2.359,3.437,3.437,0,0,1,.809-2.437,2.736,2.736,0,0,1,2.1-.867,2.661,2.661,0,0,1,2.039.849,3.374,3.374,0,0,1,.791,2.391c0,.062,0,.156,0,.281h-4.641a2.387,2.387,0,0,0,.58,1.57,1.724,1.724,0,0,0,1.3.545,1.612,1.612,0,0,0,.99-.3A2.019,2.019,0,0,0,507.189,272.793Zm-3.462-1.7H507.2a2.115,2.115,0,0,0-.4-1.178,1.618,1.618,0,0,0-1.307-.609,1.677,1.677,0,0,0-1.222.486A1.924,1.924,0,0,0,503.727,271.088Z"/>
    <path d="M509.6,268.574h1.054v4.746l2.924-4.746h1.137V274.8h-1.055V270.08L510.74,274.8H509.6Zm3.662-2.355h.72a1.7,1.7,0,0,1-.536,1.125,2.024,2.024,0,0,1-2.39,0,1.7,1.7,0,0,1-.537-1.128h.721a.988.988,0,0,0,.325.594,1.01,1.01,0,0,0,.654.2,1.146,1.146,0,0,0,.717-.191A.969.969,0,0,0,513.266,266.219Z"/>
  </g>
  <g>
    <path d="M461.248,115.246l1.516.383a5.108,5.108,0,0,1-1.715,2.848,4.723,4.723,0,0,1-3.028.98,5.434,5.434,0,0,1-3.011-.754,4.7,4.7,0,0,1-1.766-2.183,7.808,7.808,0,0,1-.605-3.071,6.75,6.75,0,0,1,.683-3.121,4.687,4.687,0,0,1,1.946-2.023,5.678,5.678,0,0,1,2.777-.692,4.7,4.7,0,0,1,2.891.875,4.55,4.55,0,0,1,1.632,2.461l-1.492.352a3.544,3.544,0,0,0-1.156-1.821,3.089,3.089,0,0,0-1.906-.57,3.7,3.7,0,0,0-2.207.633,3.339,3.339,0,0,0-1.246,1.7,6.834,6.834,0,0,0-.36,2.2,6.981,6.981,0,0,0,.426,2.551,3.174,3.174,0,0,0,1.324,1.629,3.716,3.716,0,0,0,1.945.539,3.26,3.26,0,0,0,2.157-.734A3.751,3.751,0,0,0,461.248,115.246Z"/>
    <path d="M464.459,110.965h6.547v8.3H469.6v-7.133h-3.735v7.133h-1.406Z"/>
    <path d="M473.115,122.441V110.965H474.4v1.078a3.159,3.159,0,0,1,1.024-.949,2.811,2.811,0,0,1,1.383-.317,3.285,3.285,0,0,1,1.875.547,3.355,3.355,0,0,1,1.226,1.543,5.62,5.62,0,0,1,.414,2.184,5.542,5.542,0,0,1-.457,2.293,3.475,3.475,0,0,1-3.16,2.105,2.648,2.648,0,0,1-1.262-.3,2.858,2.858,0,0,1-.918-.75v4.039Zm1.274-7.281a3.6,3.6,0,0,0,.648,2.367,1.988,1.988,0,0,0,1.57.766,2.032,2.032,0,0,0,1.606-.793,3.763,3.763,0,0,0,.668-2.457,3.671,3.671,0,0,0-.652-2.375,1.968,1.968,0,0,0-1.559-.789,2.025,2.025,0,0,0-1.59.84A3.757,3.757,0,0,0,474.389,115.16Z"/>
    <path d="M487.428,118.238a5.217,5.217,0,0,1-1.5.938,4.376,4.376,0,0,1-1.551.273,3.016,3.016,0,0,1-2.1-.668,2.2,2.2,0,0,1-.734-1.707,2.312,2.312,0,0,1,1-1.922,3.449,3.449,0,0,1,1.012-.461,10.456,10.456,0,0,1,1.25-.211,12.733,12.733,0,0,0,2.508-.484c0-.192.007-.314.007-.367a1.552,1.552,0,0,0-.4-1.211,2.358,2.358,0,0,0-1.6-.477,2.487,2.487,0,0,0-1.464.348,2.129,2.129,0,0,0-.7,1.231l-1.375-.188a3.423,3.423,0,0,1,.617-1.426,2.722,2.722,0,0,1,1.243-.836,5.547,5.547,0,0,1,1.882-.293,5,5,0,0,1,1.727.25,2.288,2.288,0,0,1,.977.629,2.221,2.221,0,0,1,.437.957,7.928,7.928,0,0,1,.07,1.3v1.875a20.077,20.077,0,0,0,.09,2.481,3.14,3.14,0,0,0,.356,1h-1.469A2.982,2.982,0,0,1,487.428,118.238Zm-.117-3.14a10.313,10.313,0,0,1-2.3.531,5.414,5.414,0,0,0-1.227.281,1.234,1.234,0,0,0-.555.457,1.213,1.213,0,0,0-.2.668,1.2,1.2,0,0,0,.426.938,1.832,1.832,0,0,0,1.246.375,2.9,2.9,0,0,0,1.445-.356,2.18,2.18,0,0,0,.93-.972,3.4,3.4,0,0,0,.227-1.407Z"/>
    <path d="M490.92,110.965h3.242a5.867,5.867,0,0,1,1.777.2,2.146,2.146,0,0,1,1,.731,2,2,0,0,1,.418,1.273,2.09,2.09,0,0,1-.246,1.035,1.993,1.993,0,0,1-.738.738,1.943,1.943,0,0,1,.973.731,2.108,2.108,0,0,1,.386,1.269,2.231,2.231,0,0,1-.843,1.75,3.684,3.684,0,0,1-2.227.571H490.92Zm1.406,3.492h1.5a5.341,5.341,0,0,0,1.235-.094,1.283,1.283,0,0,0,.6-.379.966.966,0,0,0,.266-.683.956.956,0,0,0-.465-.914,3.519,3.519,0,0,0-1.59-.258h-1.547Zm0,3.648h1.852a3.362,3.362,0,0,0,1.64-.277,1.085,1.085,0,0,0,.469-.957,1.193,1.193,0,0,0-.258-.738,1.117,1.117,0,0,0-.672-.43,7.018,7.018,0,0,0-1.328-.09h-1.7Z"/>
    <path d="M499.4,110.965h1.407v3.586a1.351,1.351,0,0,0,.941-.258,5.622,5.622,0,0,0,.793-1.5,5.974,5.974,0,0,1,.672-1.3,1.287,1.287,0,0,1,.594-.422,3.841,3.841,0,0,1,1.078-.109h.281v1.164l-.391-.008a1.044,1.044,0,0,0-.711.164,4.146,4.146,0,0,0-.5,1.024,4.288,4.288,0,0,1-.586,1.125,2.357,2.357,0,0,1-.82.57,3.394,3.394,0,0,1,1.781,1.687l1.539,2.571h-1.546l-1.5-2.571a3.517,3.517,0,0,0-.805-1.019,1.375,1.375,0,0,0-.82-.246v3.836H499.4Z"/>
    <path d="M512.178,118.238a5.217,5.217,0,0,1-1.5.938,4.376,4.376,0,0,1-1.551.273,3.016,3.016,0,0,1-2.1-.668,2.2,2.2,0,0,1-.734-1.707,2.312,2.312,0,0,1,1-1.922,3.449,3.449,0,0,1,1.012-.461,10.456,10.456,0,0,1,1.25-.211,12.733,12.733,0,0,0,2.508-.484c0-.192.007-.314.007-.367a1.552,1.552,0,0,0-.4-1.211,2.358,2.358,0,0,0-1.6-.477,2.487,2.487,0,0,0-1.464.348,2.129,2.129,0,0,0-.7,1.231l-1.375-.188a3.423,3.423,0,0,1,.617-1.426,2.722,2.722,0,0,1,1.243-.836,5.547,5.547,0,0,1,1.882-.293,5,5,0,0,1,1.727.25,2.288,2.288,0,0,1,.977.629,2.221,2.221,0,0,1,.437.957,7.928,7.928,0,0,1,.07,1.3v1.875a20.077,20.077,0,0,0,.09,2.481,3.14,3.14,0,0,0,.356,1h-1.469A2.982,2.982,0,0,1,512.178,118.238Zm-.117-3.14a10.313,10.313,0,0,1-2.3.531,5.414,5.414,0,0,0-1.227.281,1.234,1.234,0,0,0-.555.457,1.213,1.213,0,0,0-.2.668,1.2,1.2,0,0,0,.426.938,1.832,1.832,0,0,0,1.246.375,2.9,2.9,0,0,0,1.445-.356,2.18,2.18,0,0,0,.93-.972,3.4,3.4,0,0,0,.227-1.407Z"/>
  </g>
  <g>
    <path d="M471.586,222.333c-.231-3.438.874-18.388,5.018-27.361" fill="none" stroke="#000" stroke-miterlimit="10"/>
    <polygon points="479.088 199.658 478.145 199.993 476.497 195.346 471.982 197.329 471.58 196.413 477.08 193.998 479.088 199.658"/>
  </g>
  <path d="M483.225,139.295a18.982,18.982,0,0,1,7.617,1.535,19.659,19.659,0,0,1,10.389,10.389,19.654,19.654,0,0,1,0,15.234,19.659,19.659,0,0,1-10.389,10.389,19.669,19.669,0,0,1-15.235,0,19.662,19.662,0,0,1-10.388-10.389,19.666,19.666,0,0,1,0-15.234,19.662,19.662,0,0,1,10.388-10.389A19,19,0,0,1,483.225,139.295Zm0,35.893a15.892,15.892,0,0,0,6.38-1.3,16.624,16.624,0,0,0,5.206-3.51A16.414,16.414,0,0,0,498.3,165.2a16.425,16.425,0,0,0-.02-12.742,16.657,16.657,0,0,0-3.509-5.205,16.439,16.439,0,0,0-5.185-3.488,16.407,16.407,0,0,0-12.742.019,16.615,16.615,0,0,0-5.2,3.51,16.4,16.4,0,0,0-3.49,5.184,16.425,16.425,0,0,0,.02,12.742,16.625,16.625,0,0,0,3.51,5.2,16.4,16.4,0,0,0,5.184,3.488A15.923,15.923,0,0,0,483.225,175.188Zm-.12-29.711a12.393,12.393,0,0,1,4.626.757,8.713,8.713,0,0,1,2.992,1.895,6.84,6.84,0,0,1,1.595,2.451,7.179,7.179,0,0,1,.479,2.434,9.418,9.418,0,0,1-.279,2.453,7.4,7.4,0,0,1-.739,1.795,6.284,6.284,0,0,1-1.037,1.336,13.314,13.314,0,0,1-1.216,1.037q-.637.477-1.256.877a8.228,8.228,0,0,0-1.137.877,5.3,5.3,0,0,0-.9,1.076,3.611,3.611,0,0,0-.5,1.476h-5.3a8.21,8.21,0,0,1,.418-2.234,7.583,7.583,0,0,1,.818-1.674,8.3,8.3,0,0,1,1.037-1.277,10.129,10.129,0,0,1,1.156-1l.24-.2q.516-.44,1-.838a5.741,5.741,0,0,0,.838-.858,3.627,3.627,0,0,0,.557-1.017,3.91,3.91,0,0,0,.2-1.317,3.493,3.493,0,0,0-.878-2.631,3.379,3.379,0,0,0-2.432-.837,3.8,3.8,0,0,0-1.8.4,3.641,3.641,0,0,0-1.256,1.076,4.644,4.644,0,0,0-.738,1.6,7.751,7.751,0,0,0-.24,1.955h-5.7a11.257,11.257,0,0,1,.717-3.869,8.923,8.923,0,0,1,1.914-3.031,8.8,8.8,0,0,1,2.951-1.995A9.952,9.952,0,0,1,483.105,145.477Zm-2.671,21.455h5.3V172.2h-5.3Z" fill="#5b5d5e"/>
</svg>
