<svg xmlns="http://www.w3.org/2000/svg" viewBox="0 0 560 380">
  <g>
    <path d="M30.617,36.744,28.7,37.6v6.24a1.586,1.586,0,0,1-1.6,1.26l-1.543.058-.616-1.533q1.192.1,1.436.1c.533,0,.8-.094.8-.284V38.4l-1.8.8-1.026-1.142q1.084-.42,2.823-1.26V32.662h-2.4V31.207h2.4v-3.74H28.7v3.74h1.914v1.455H28.7v3.32l1.914-.8Zm12.119,6.924-.957,1.416a14.308,14.308,0,0,1-5.7-1.9,17.481,17.481,0,0,1-5.9,2.207l-1-1.407a16.022,16.022,0,0,0,5.556-1.8,9.115,9.115,0,0,1-2.5-3.34H30.676V37.389h4.5V36.168H30.9v-7.08a7.536,7.536,0,0,0,3.4-1.465l.879.918V27.184H36.76V34.7h2.861V32.965h-2.3V31.5h2.3V30.006H36.975V28.541h4.16v7.627H36.76v1.221h3.916V38.6a14.634,14.634,0,0,1-3.233,3.6A14.6,14.6,0,0,0,42.736,43.668ZM35.178,34.7v-5.9a8.062,8.062,0,0,1-2.764,1.455v1.367H34.68v1.455H32.414V34.7ZM38.7,38.844H33.918a8.342,8.342,0,0,0,2.2,2.461A11.082,11.082,0,0,0,38.7,38.844Z"/>
    <path d="M53.361,38.268l-7.978.517-.44-1.377,3.633-.185V35.807H45.959V34.42h6.816v1.387H50.1v1.3l3.261-.166Zm8.78,2.617H58.576v2.7a1.4,1.4,0,0,1-.561,1.315,3.821,3.821,0,0,1-1.822.326c-.248,0-.56-.012-.937-.039l-.9-1.494,2.12.039q.585,0,.586-.664V40.885h-12V39.42h12v-.752h1.513v.752h3.565Zm-2.559-7.237h-12.1V32.184H58.059v-.879H48.137V29.928h9.922v-.86H47.443V27.6H59.582Zm-6.3,9.18L52.3,44.107a9.531,9.531,0,0,0-4.7-1.884L48.6,41A10.323,10.323,0,0,1,53.283,42.828ZM61,38.365H53.8v-4H61Zm-1.523-1.377v-1.24H55.314v1.24Z"/>
    <path d="M72.16,41.725A23.888,23.888,0,0,1,65.236,45.1l-.957-1.377a23.651,23.651,0,0,0,6.856-3.2Zm9.9-1.319H65.256V38.941h1.338l-.86-9.658a12.38,12.38,0,0,0,4.649-1.8l.859,1.3a15.329,15.329,0,0,1-3.867,1.641l.166,1.357h3.34v1.465H67.619a15.754,15.754,0,0,1,.195,2.041h3.067v1.455h-2.9l.2,2.2h3.242V34.625h1.523v4.316h1.534V34H71.418V27.105h1.523v2H75.92v1.456H72.941v1.982H76v6.4h3.018l.3-2.275h-2.8V35.2h2.92l.224-2.041H76.516V31.705h3.242l.224-1.846H76.1V28.4h5.547L80.6,38.941h1.465Zm.517,3.477-.84,1.338a21.1,21.1,0,0,1-6.6-3.418l.761-1.338A34.194,34.194,0,0,0,82.58,43.883Z"/>
    <path d="M86.76,39.42a15.29,15.29,0,0,1-1.221,4.9l-1.377-.6a13.337,13.337,0,0,0,1.2-4.581Zm15.576-6.094H99.221c-.033.1-.088.32-.166.67a6.006,6.006,0,0,1-.274.912h2.637V45.123H99.9V43.941h-3.3v1.182H95.08V34.908h2.061q.078-.154.459-1.582H94.621v-.918l-.039-.049-.644,1.983V45.123H92.414v-8.1a7.2,7.2,0,0,1-.674.86,8.028,8.028,0,0,1,.254.9l-1.455.479c-.053-.215-.141-.514-.264-.9H88.9V45.1H87.414V38.365H84.9l-.157-1.582h.742q1.222-1.6,1.836-2.558a25.971,25.971,0,0,0-2.6-1.836l.82-1.26.381.254a21.922,21.922,0,0,0,2.139-4.336l1.4.674a29.463,29.463,0,0,1-2.353,4.4,11.01,11.01,0,0,1,1.054.781,31.594,31.594,0,0,0,1.68-3.047l1.338.723a34.277,34.277,0,0,1-3.955,6.2h2.519a8.216,8.216,0,0,0-.683-1.562l1.308-.5a8.508,8.508,0,0,1,.772,1.543,18.118,18.118,0,0,0,2.48-5.664l1.328.478a2.408,2.408,0,0,1-.224.8h7.617ZM91.936,43.6l-1.436.341a16.686,16.686,0,0,0-.957-4.277l1.338-.3A15.541,15.541,0,0,1,91.936,43.6Zm10-12.032h-1.514V30.26H92.736v1.924H91.223v-3.36h4.619v-1.6H97.5v1.6h4.434Zm-2.041,7.1V36.344h-3.3v2.324Zm0,3.838V40.1h-3.3v2.4Z"/>
    <path d="M110.3,32.242a16.233,16.233,0,0,1-4.16,7.022l-1.24-1.035a15.912,15.912,0,0,0,4.062-6.661Zm4.043,10.225a1.976,1.976,0,0,1-.65,1.67,3.231,3.231,0,0,1-1.977.5l-1.221-.03c-.2,0-.385.008-.547.02l-.664-1.641c.826.067,1.528.1,2.1.1a2.821,2.821,0,0,0,1.177-.137.536.536,0,0,0,.2-.478v-15h1.582Zm7.676-3.985-1.436.7a15.572,15.572,0,0,0-4.541-6.885l1.426-.752A14.944,14.944,0,0,1,122.014,38.482Z"/>
    <path d="M130.617,36.744l-1.914.86v6.24a1.586,1.586,0,0,1-1.6,1.26l-1.543.058-.616-1.533q1.193.1,1.436.1c.533,0,.8-.094.8-.284V38.4l-1.8.8-1.026-1.142q1.084-.42,2.823-1.26V32.662h-2.4V31.207h2.4v-3.74H128.7v3.74h1.914v1.455H128.7v3.32l1.914-.8Zm12.119,6.924-.957,1.416a14.308,14.308,0,0,1-5.7-1.9,17.481,17.481,0,0,1-5.9,2.207l-1-1.407a16.022,16.022,0,0,0,5.556-1.8,9.115,9.115,0,0,1-2.5-3.34h-1.562V37.389h4.5V36.168H130.9v-7.08a7.536,7.536,0,0,0,3.4-1.465l.879.918V27.184h1.582V34.7h2.861V32.965h-2.305V31.5h2.305V30.006h-2.646V28.541h4.16v7.627H136.76v1.221h3.916V38.6a14.634,14.634,0,0,1-3.233,3.6A14.6,14.6,0,0,0,142.736,43.668ZM135.178,34.7v-5.9a8.062,8.062,0,0,1-2.764,1.455v1.367h2.266v1.455h-2.266V34.7Zm3.525,4.141h-4.785a8.342,8.342,0,0,0,2.2,2.461A11.082,11.082,0,0,0,138.7,38.844Z"/>
    <path d="M153.361,38.268l-7.978.517-.44-1.377,3.633-.185V35.807h-2.617V34.42h6.816v1.387H150.1v1.3l3.261-.166Zm8.78,2.617h-3.565v2.7a1.4,1.4,0,0,1-.561,1.315,3.821,3.821,0,0,1-1.822.326c-.248,0-.56-.012-.937-.039l-.9-1.494,2.12.039q.585,0,.586-.664V40.885h-12V39.42h12v-.752h1.513v.752h3.565Zm-2.559-7.237h-12.1V32.184h10.577v-.879h-9.922V29.928h9.922v-.86H147.443V27.6h12.139Zm-6.3,9.18-.986,1.279a9.531,9.531,0,0,0-4.7-1.884l1-1.221A10.323,10.323,0,0,1,153.283,42.828ZM161,38.365h-7.2v-4H161Zm-1.523-1.377v-1.24h-4.161v1.24Z"/>
    <path d="M166.9,39.42a14.861,14.861,0,0,1-1.3,4.9l-1.416-.6a12.8,12.8,0,0,0,1.279-4.581Zm5.479-.674-1.475.518c-.064-.215-.14-.514-.224-.9h-1.514V45.1h-1.523V38.365H164.8l-.176-1.582h1.016q1.251-1.6,1.884-2.558a27.134,27.134,0,0,0-2.8-1.836l.879-1.26.4.254a21.532,21.532,0,0,0,2.256-4.336l1.426.674a28.7,28.7,0,0,1-2.461,4.365,8.205,8.205,0,0,1,1.2.82,28.063,28.063,0,0,0,1.777-3.047l1.358.723a33.59,33.59,0,0,1-4.18,6.2h2.705a8.2,8.2,0,0,0-.762-1.562l1.377-.5A13.219,13.219,0,0,1,172.375,38.746ZM172.3,43.6l-1.436.341a16.652,16.652,0,0,0-1.045-4.277l1.446-.3A15.213,15.213,0,0,1,172.3,43.6Zm10.058-11.836h-4.638v2.724h3.76v1.455h-9.063V34.488h3.721V31.764h-4.541V30.309h4.541V27.047h1.582v3.262h4.638Zm-1.435,13.32H179.4V43.727h-4.9v1.357H172.98V37.848h7.94ZM179.4,42.262V39.3h-4.9v2.959Z"/>
    <path d="M202.678,42.789l-.918,1.279a14.679,14.679,0,0,1-7.481-5.048v6.142l-1.543-.039V39.068q-2.1,3.361-7.256,5.039l-1.044-1.22a12.9,12.9,0,0,0,6.582-3.838h-5.635V37.584h7.373V36.168h-5.4v-8.1h12.364v8.105h-5.44v1.416h7.364v1.465h-5.469A13.219,13.219,0,0,0,202.678,42.789Zm-9.922-11.406V29.527h-3.877v1.856Zm0,3.32V32.848h-3.877V34.7Zm5.439-3.32V29.527h-3.916v1.856Zm0,3.32V32.848h-3.916V34.7Z"/>
  </g>
  <g>
    <g>
      <path d="M41.654,105.667l-1.188.5-.633,3.589a1.136,1.136,0,0,1-1.049.725l-.893.033-.2-.882c.45.037.721.057.815.057.306,0,.471-.055.49-.163l.511-2.9-1.114.461-.475-.657q.664-.242,1.751-.725l.42-2.381H38.709l.147-.837h1.382l.38-2.151h.876l-.38,2.151h1.1l-.148.837h-1.1l-.336,1.909,1.182-.459Zm6.268,3.983-.693.814a7.012,7.012,0,0,1-3.088-1.095,11.932,11.932,0,0,1-3.617,1.269l-.429-.809a10.748,10.748,0,0,0,3.378-1.033,4.131,4.131,0,0,1-1.1-1.921h-.9l.148-.837h2.588l.124-.7h-2.46l.719-4.072a5.2,5.2,0,0,0,2.1-.843l.413.528.138-.78h.91l-.761,4.324h1.644l.177-1H45.891l.148-.843h1.325l.152-.859H45.993l.149-.843h2.392l-.773,4.387H45.245l-.124.7h2.252l-.123.7a10.9,10.9,0,0,1-2.225,2.073A7.334,7.334,0,0,0,47.922,109.65Zm-3.438-5.157.6-3.391a5.715,5.715,0,0,1-1.737.836l-.139.787h1.3l-.149.837h-1.3l-.164.931Zm1.607,2.382H43.339a3.735,3.735,0,0,0,1.015,1.415A8.209,8.209,0,0,0,46.091,106.875Z"/>
      <path d="M59.365,108.049H57.314l-.273,1.55a.98.98,0,0,1-.456.755,2.4,2.4,0,0,1-1.081.188c-.143,0-.32-.007-.535-.021l-.365-.861,1.214.024q.338,0,.405-.383l.22-1.252h-6.9l.148-.843h6.9l.076-.433h.871l-.076.433h2.051Zm-4.785-1.505-4.641.3-.113-.793,2.108-.107.144-.814H50.573l.141-.8h3.92l-.141.8H52.954l-.132.747,1.893-.095Zm-.508,2.622-.7.736a4.551,4.551,0,0,0-2.511-1.084l.7-.7A4.948,4.948,0,0,1,54.072,109.166Zm4.555-5.278H51.668l.148-.843H57.9l.089-.506H52.281l.14-.792h5.707l.087-.494H52.109l.149-.842H59.24Zm.336,2.712h-4.14l.406-2.3h4.14Zm-.736-.792.126-.713H55.96l-.126.713Z"/>
    </g>
    <g>
      <path d="M237.751,113.606c.043.239.141.1.122-.557l-.166-.47Z" fill="#202020"/>
      <path d="M238.058,109.156c-.08-.778-.221-1.675-.373-1.171.159.77.092.957.282,1.786.019.662-.053,1.155-.114,1.044a11.381,11.381,0,0,0,.067,1.384,13.516,13.516,0,0,0,.028-3.092C237.984,108.863,238.027,109.1,238.058,109.156Z" fill="#202020"/>
      <path d="M186.247,94.374l.417.02C186.55,94.383,186.407,94.377,186.247,94.374Z" fill="#202020"/>
      <path d="M146.182,94.283a1.541,1.541,0,0,0,.447-.035C146.346,94.259,146.114,94.269,146.182,94.283Z" fill="#202020"/>
      <path d="M139.341,94.1l.4.011A2.032,2.032,0,0,0,139.341,94.1Z" fill="#202020"/>
      <path d="M186.247,94.374l-1.07-.052A4.479,4.479,0,0,0,186.247,94.374Z" fill="#202020"/>
      <path d="M237.659,100.239c.008.224.023.411.043.581,0-.184-.011-.362-.017-.546A.151.151,0,0,1,237.659,100.239Z" fill="#202020"/>
      <path d="M203.909,94.24h.326c.095-.019.185-.042.27-.068Z" fill="#202020"/>
      <path d="M217.464,94.214a.824.824,0,0,0-.531.2,2.518,2.518,0,0,1,.669-.1C217.606,94.287,217.566,94.255,217.464,94.214Z" fill="#202020"/>
      <path d="M237.969,97.181a2.481,2.481,0,0,1,.138.372A2.432,2.432,0,0,0,237.969,97.181Z" fill="#202020"/>
      <path d="M194.208,94.209a.309.309,0,0,0-.124-.05C194.084,94.177,194.133,94.194,194.208,94.209Z" fill="#202020"/>
      <path d="M224.65,116.946c-.011.01,0,.017,0,.025C224.729,116.957,224.754,116.947,224.65,116.946Z" fill="#202020"/>
      <path d="M238.12,113.606l0,.22c.025.025.05.051.076.053Z" fill="#202020"/>
      <path d="M126.822,93.921l.056,0C127.207,93.907,127.021,93.91,126.822,93.921Z" fill="#202020"/>
      <path d="M29.1,114.147c.019-.746.063-.136.2.341.175.475.287.831.124-.208C29.336,114.494,29.1,112.359,29.1,114.147Z" fill="#202020"/>
      <path d="M237.677,99.888v-.556C237.671,99.585,237.672,99.756,237.677,99.888Z" fill="#202020"/>
      <path d="M29.424,114.28h0l-.02-.216C29.414,114.153,29.418,114.2,29.424,114.28Z" fill="#202020"/>
      <path d="M97.977,94.005a1.519,1.519,0,0,0,.294.062C98.261,94.052,98.194,94.035,97.977,94.005Z" fill="#202020"/>
      <path d="M119.466,94.205l-.532-.018Z" fill="#202020"/>
      <path d="M86.819,94.2a6.388,6.388,0,0,0-.782-.012l.12.017A3.226,3.226,0,0,1,86.819,94.2Z" fill="#202020"/>
      <path d="M75.206,94.2l.214.029.368-.008Z" fill="#202020"/>
      <path d="M189.356,117.014a2.881,2.881,0,0,1,.536.126C189.713,117.04,191.419,117.005,189.356,117.014Z" fill="#202020"/>
      <path d="M237.738,100.233a.842.842,0,0,1-.061-.345c0,.133,0,.261.008.386C237.706,100.308,237.725,100.315,237.738,100.233Z" fill="#202020"/>
      <path d="M86.347,95.312l-1.845-.02Z" fill="#202020"/>
      <path d="M106.042,117.034l.423-.017A2.809,2.809,0,0,0,106.042,117.034Z" fill="#202020"/>
      <path d="M79.026,95.312c-.329-.049-.678-.078-1.039-.1a1.719,1.719,0,0,0-.214.036Z" fill="#202020"/>
      <path d="M189.9,117.142l0,0Z" fill="#202020"/>
      <path d="M202.05,116.808c-1.759,0-.826.181-1.2.287-2.1.052-.971-.136-1.685-.231-1.311.049-2.316.219-3.293.211-.073-.03-.263-.041-.04-.079-1.385.147-4.112.007-5.726.191a.852.852,0,0,1-.211-.045c.261.092.3.186.248.253a7.908,7.908,0,0,1-1.759,0,2.549,2.549,0,0,0,.749-.083l-.825.053c-.744-.174,1.127-.06,1.127-.189-1.611.057-3.487.2-4.721.151-.258-.17,2.885-.057,1.239-.208l1.909.065c-1.459-.268,1.16.019-.18-.268-2.513-.049-2.811.087-5.317.037-.565.094.186.14-.378.234-3.563.17-2.8-.427-5.424-.2a7.612,7.612,0,0,1-2.805.215l.636-.192c-2.433-.019-1.389.276-3.937.146.453-.075,1.912-.063,1.544-.086a11.606,11.606,0,0,0-2.436.109L169.3,117l-8.312.18c.159-.05.65-.1-.021-.155-3.617.085-7.722-.021-11.212-.122l-1.333.147c-.31,0-.576-.067-.24-.095-1.36-.056-.07.093-.724.151-.774.01-1.022-.085-.532-.129-2.4.125-6.836.268-9.365.111l.493-.043c-1.969-.06-2.222.3-4.048.164l.35-.026c-4.273-.064-9,.07-12.256-.151-.62.211-4.23-.094-4.5.2-2.44-.146-1.741-.2-5.178-.3-.917-.013-1.368.184-2.5.215L109.89,117l-1.541.162-.819-.185-1.065.04c.424.009.9.069.837.114a23.084,23.084,0,0,1-4.094-.187l-3.933.131a7.812,7.812,0,0,1,1.267-.123c-2.1.157-.382-.163-2.306-.018.258.035-.139.091-.183.123-.959-.094-3.142-.094-4.757-.055l.31-.106c-2.917-.027-6.15.051-9.425.049,1.175.049.905.233-.055.251l-.384-.163c-.62.1,1,.062-.27.185-1.223-.019-.822-.185-.12-.238l-1.487.056c-.087-.049.261-.074.352-.136-.61.1-2.566-.164-3.447.012l-.083-.048-7.424.062a9.652,9.652,0,0,1-1.889.223c-1.959-.044-4.134-.155-6.495-.143-1.659.07-.485.119-1.231.2-.122-.128-2.48-.116-1.257-.208-2.833.02-3.619.025-7.2.129.389.053.826.075.6.119a3.839,3.839,0,0,1-1.387-.115l.172-.013c-4.022.192-9.284-.374-12.487-.107l.18-.013-3.322.139c-1.528-.022.917-.1-.214-.175-.9.053-1.7.078-2.442.087a4.178,4.178,0,0,1-1.867-.236,3.716,3.716,0,0,1-2.182-2.564c0-.27.013-.5.044-.906.026-.384.042-.81.052-1.268.018-.915.011-1.953,0-3.016-.023-2.126-.064-4.352.056-5.894l-.089.178a6.782,6.782,0,0,1,.072-1.55c-.07.083-.081.864-.129.369q-.012-1.266-.025-2.55c0-.41-.015-.9.011-1.248a3.345,3.345,0,0,1,1.716-2.7,3.512,3.512,0,0,1,1.038-.38,6.01,6.01,0,0,1,1.187-.047l10.489.176c2.531.024,1.437-.461,4.627-.248l-.9.165c5.107-.2,10.443.007,15.443-.161a3.54,3.54,0,0,1-.794.087,20.41,20.41,0,0,0,3.923-.092c.779.011.18.088.66.138,1.059.071,2.659-.153,3.222-.034.1.02-.3.039-.492.048.691-.058,3.217.015,2.556-.123,1.876.066,3.589-.062,5.086.02.976-.155,3.213.075,3.523-.144-.135.226,3.29.182,4.477.076-.4.068,1.031.071.566.165,1.354,0,2.595-.045,2.359-.161,2.494.271,5.014-.218,6.419.129,4.022-.121,7.744-.2,11.362-.257-.13.226-4,.023-3.844.259,3.433-.092,5.413-.286,8.817-.232.881.031-.5.1-.8.137,3.429-.093,6.63.02,9.682-.1a3.943,3.943,0,0,1-.649.062c.6-.008,1.4.032,1.33-.07l-.586.028c-.96-.149,2.388-.311,2.5-.389-1.021.293,3.014.073,1.393.445.395-.02.892-.068.8-.137.587.02.774.06.178.138,2.154-.056,1.389-.165,3.341-.162-.007.049-.4.069-.6.127a25.971,25.971,0,0,1,3.63-.152c-.1.03.092.069-.4.068,2.833-.015,4.828-.257,7.936-.164-.917.216,1.056.071,1.221.258l1.671-.056-.671-.09c1.464,0,2.758-.133,4.016-.072L144.566,95l2.743-.036-1.552-.07c1.481-.1-.159-.237,1.789-.185-.4.019,1.464,0,2.227.113h0a18.46,18.46,0,0,1,2.551-.075c.282.059-.226.206-.043.246.714-.156,3.428-.044,4.332-.21-.3.039-.317.137-.218.157l.6-.127c.678.041.777.061.667.139,2.04.023-.648-.237,1.773-.135-.19.01-.1.029-.5.048,2.431.054,4.7-.08,6.93-.018.659.188-1.951.046-1.2.2,3.221-.034,6.669-.225,9.786-.181l-.581-.021c.432-.265,2.322.131,3.9.006-.386.02-.506.147-.4.118,2.135.042,4.364-.065,7.6-.149l-.4.068c1.257.061,3.312.035,4.671.066.4-.068,1.181-.057.709-.156,4.189.389,7.991-.208,11.709.116-.445,0-1.06.059-.706.059l3.166-.062a4.261,4.261,0,0,0-1.08-.16,15.544,15.544,0,0,1,2.079-.122c-1.424.077.012.186.627.25-.1-.035.108-.074.056-.11,1.654.2.277-.233,2.535-.094l-.119.06c.845-.031,1.624-.111,2.535-.093.378.133-.9.062-.957.172a33.064,33.064,0,0,1,3.684-.12l-1.869.075a16.238,16.238,0,0,0,2.345.142l-.092,0,2.167.071-.552-.042c1.6-.349,3.262-.064,5.42-.292-2.1.216-.346.125-.507.276.551.042,1.389.09,1.15.132,1.02-.122,1.7.1,3.142-.082.065.048,1.091,0,.861.127,1.326-.039-.313-.085-.2-.146,2.044-.167,4.805.2,7.745-.027a5.812,5.812,0,0,1,2.629.194,3.592,3.592,0,0,1,1.933,1.631c.139.377.025.244-.116.031l-.24-.319-.137-.155a4.417,4.417,0,0,1,.647,1.53,10.4,10.4,0,0,1,.126,1.651c-.043-.245-.079.007-.134.375a12.027,12.027,0,0,1,.106,1.926,6.52,6.52,0,0,1-.2-.968c.06,1.139.119,2.272.18,3.451-.085.314-.129-.713-.184-1.13a32.911,32.911,0,0,0,.211,3.852l.048-.852c.007.484-.115.249-.14-.108a3.617,3.617,0,0,1,.1-1.706l.031.841c.286-.864-.046-3.38-.029-5.074l.208.706-.173-1.738c.054-.37.17-.623.2.214a3.98,3.98,0,0,0-.013-1.132c-.057-.248-.085-.472-.219-.992-.024-.118,0-.072.049.029a3.858,3.858,0,0,0-.638-1.035c.167.173.019-.271.4.393a3.675,3.675,0,0,0-2.016-1.786,9.416,9.416,0,0,0-1.652-.348l.187,0c-2.972.054-.291.148-2.511.323l-1.492-.376-.291.152c-.305,0-.908-.016-.8-.078-1.135.105.193.067-.465.165-1.468-.139-4.047.065-4.378-.178-.527.116,1.4.09-.163.17-.447-.261-1.811.045-3.152-.075.412-.135,1.682-.063.34-.184a25.354,25.354,0,0,1-3.741-.006c-.053.182-2.459.076-4.357.136.12-.061-3.571-.1-5.336-.165l.052-.031a19.648,19.648,0,0,1-3.489.187c.052-.11.291-.153,1.009-.2h-1.246a9.352,9.352,0,0,1-1.492.11l.314-.137c-1.66.008-3.341.162-5.476.07-.12.128,1.7.357-.56.442-.083-.069-.167-.187.424-.216a8.669,8.669,0,0,1-1.08.028l.9-.116c-.972-.051-.508.1-1.286.086.016-.1-.575-.07-.463-.148.2-.01.678.04.975,0a18.354,18.354,0,0,1-2.285-.151c.076.057,0,.133-.642.146-1.66.007-.568-.118-1.536-.169-.4.068-1.46,0-1.488.145a2.271,2.271,0,0,1-.763-.11c-.858.065-4.01.019-3.042.176l.22.01-.141.007h0c-2.814.146-5.846-.084-8.638-.021l0-.049c-1.667.056-3.71.033-4.9.14-.493,0-1.163-.091-.953-.15a28.731,28.731,0,0,1-3.257.012c1.281-.086-.442-.077,1.313-.064a27.4,27.4,0,0,0-3.808.014c.6-.127-1.247-.16-2.034-.122l1.16.091c-.885.018-1.658.007-2.444,0l.425-.166c-3.388-.2-6.11.344-8.689,0-.9.117,1.84.082,1.038.218-1.558-.022-3.182-.261-3.67-.261-2.135-.092-1.992.243-4.226.18.286.059.556.217-1.114.273-1.56-.022-1.917-.249-.932-.3.374,0,.554.014.538.034.5-.022,1.165-.047.548-.112l-.2.06c-.774-.061-2.92-.054-2.416-.152-1.178.057-.5.1.369.128-2-.086-3.125,0-5.184-.06.328.033.629.1.3.1a26.019,26.019,0,0,0-3.376.138c-1.162-.09.417-.216-1.643-.14-1.258-.061-.266-.157.234-.206a44.988,44.988,0,0,1-4.579-.1l.989-.048c-.591.029-1.076.028-1.568.028l.564.118a4.618,4.618,0,0,1-1.061-.07c-.6.078.458.2-.729.3a19.781,19.781,0,0,1-2.624-.093c2.434.053-.269-.158,1.791-.184-.4.019-.882.018-1.464,0-.087-.017.082-.032.241-.041-2.328-.141-1.07.178-3.484.174.307-.089-.559-.168-.953-.149.973,0,.465.148-.427.216-1.547-.069-1.682.051-2.492.043l.925.033a15.065,15.065,0,0,1-2.166.105c-.092-.069.979-.048.595-.078-1.2.156-2.707-.162-4.377-.057-.774-.06-.075-.166-.754-.207-1.872.115-2.027-.122-3.995-.027.567.12.666.09-.719.207l3.234-.084-2.075.173c.976,0,2.059-.075,2.644-.054-.989.1-.887.067-.42.166-1.336-.179-2.648.1-4.192-.016l.047-.3c-2.321-.131-4.124.152-7.138.077l.969.052c-.405.117-1.861.016-2.837.064.09-.1-.519-.135-.936-.2a20.663,20.663,0,0,0-2.48.19l-1.346-.13c-2.434-.053-2.777.282-5.117.248.7-.107-.358-.177,1.209-.254a6.787,6.787,0,0,0-1.5.049c-.456-.061-2.166.133-2.884.039a4.847,4.847,0,0,1-1.314.139c-.095-.02,0-.049,0-.049,0,.049-1.373.067-.607.176-2.406-.308-6.725.022-8.82-.242l-5.306.072c.1-.03,0-.049.3-.039-2.135-.092-1.313.283-3.742.181-1.241-.16,1.29-.087.517-.147-.337-.325-2.932.044-4.567-.145l.4-.019c-1.249-.111-3.049.123-5.09.1,0,0,.1-.028.012-.048-1.4.165-4.04.22-6,.266.611-.127.892-.067.52-.2-.881.019.257.208-1.5.244a11.105,11.105,0,0,1-2.007-.268l1.657-.008a20.667,20.667,0,0,0-3.019-.025l.112-.077c-2.54.025-2.575.221-5.306.207l.282.059c-1.492.195-1.25-.109-2.739.035l-.45-.2c-.985.048-3.449.191-5.214.228,1-.146,3.066-.221,4.344-.308-.976,0-3.316.015-3.825.112a10.932,10.932,0,0,1,1.277-.037q-.9.115-2.078.173a4.718,4.718,0,0,0-2.6.728c.028-.126-.261-.035-.669.294A3.976,3.976,0,0,0,29.532,97.1a6.528,6.528,0,0,0-.3,2.345,11.132,11.132,0,0,1-.133,1.656c.142,3.44-.06,6.825-.038,10.833.3-1.422.009,1.17.314.924,0,.919.052,1.332.053,1.413A4.347,4.347,0,0,0,30.758,117c.265.266.052.139-.2-.081s-.528-.536-.522-.479a5.449,5.449,0,0,0,.81.842c.172.151.245.221.3.275.114.1.1.214.841.558-.134-.117.072-.051.484.033a6.429,6.429,0,0,0,.759.119c.311.022.6.028.884.036a5.826,5.826,0,0,1-1.786-.339,7.741,7.741,0,0,0,1.781.167c.41.014.719.046,1.029.078a14.2,14.2,0,0,0,2.683.048l-.911.1c1.478-.057,5.451,0,6.9-.244.261.035.607.119-.044.141,3.531.037,7.86-.261,10.6-.11l-.268.075a12.632,12.632,0,0,1,1.972-.066c-.043.031-.265.075.04.079a25.986,25.986,0,0,1,2.622-.087l-.746.084c3.444.1,5.286-.2,8.174-.256-.007.22,2.7.292,4.055.327l-.047.031c4.01.028,6.812-.182,10.526-.268,2.306.238,7.809.1,11.514.234-.566-.04.093-.172.751-.194.87.045,2.4-.153,2.266.049l-.31,0a21.736,21.736,0,0,0,3.837.151l.23-.264c3.65.384,9.562-.141,11.554.2.881-.066,1.972-.065,2.845-.131l-.048.141c2.441.036,3.659.054,6.675.02l-.615.1c1.7.009,2.148-.409,3.717-.417l.472.211c2.968,0,5.972.183,8.905-.009-.048.031-.135.092-.616.1,1.4,0,5.4.143,4.9-.147.034.188,3.062.018,4.665-.065l-.25.139a20.64,20.64,0,0,1,3.286-.276c.448.018.392.112-.2.076,1.492.073,1.163-.132,2.972-.058l-.674.089a10.294,10.294,0,0,0,2.258-.141,14.626,14.626,0,0,1,3.138.162,7.288,7.288,0,0,1,1.953-.144c.122.048-.208.078-.373.092,2.566.095,3.816-.162,5.581-.025a.515.515,0,0,0,.3.083c-2.038,0-3.681-.011-3.527-.021,0,.128,1.647.151.337.328,1.322-.1,3.583-.307,5.188-.247a1.463,1.463,0,0,1,.213.045l-.167.014a9.476,9.476,0,0,0,1.015-.021c.512.022.838.037,1.33.039a20.743,20.743,0,0,0,2.71.063c-.068-.141,1.007-.118,0-.234a3.126,3.126,0,0,1-.7.022l-.351.015.056-.013-2.041.01a10.617,10.617,0,0,1,2.235-.054c.421-.09.885-.183,1.147-.226,1.123.2,3.29.3,3.591.422,2.508-.078,5.908-.052,7.485-.316a2.952,2.952,0,0,1,1.086.118c-.412.026-.9.022-1.124.06a40.4,40.4,0,0,0,4.564-.211c1.8.083-1.01.17,1.459.14l-.333.056c4.857.3,7.9-.471,13.281-.092a3.164,3.164,0,0,1-.636-.065c6.139.167,12.652-.157,18.71.108a16.048,16.048,0,0,0,2.959-.154l.373.151,1.8-.174c2.548-.128,4.412.37,7.638.129l-.416-.1a30.968,30.968,0,0,1,3.476.057,2.332,2.332,0,0,1,.833-.052l.035.079c.956-.055,1.881-.069,2.862-.157,1.137-.164,1.06-.176,1.132-.091.033.023.1.051.362-.049a3.5,3.5,0,0,0,1.368-.945,4.042,4.042,0,0,0,.968-2.083c.093-.707-.021-1.171-.038-.934a2.194,2.194,0,0,1-.348,1.271,3.89,3.89,0,0,0,.17-1.1c-.108-.107-.22-.359-.332-.261-.147.086-.107.556-.66,1.57a3.437,3.437,0,0,1-.937,1.323,3.393,3.393,0,0,1-.5.188,3.47,3.47,0,0,0,1.042-.855,7.639,7.639,0,0,1-1.433,1.077c-.143-.009-.367.026-.678.051a11.835,11.835,0,0,1-1.734.27c-.223-.092.824-.181-.409-.231-.861.1.826.2-.6.272a4.653,4.653,0,0,0-1.685-.1c-.148-.06.075-.1.491-.125-.936.072-2.476.031-2.959.155-.934-.131-3.16.034-3.067-.187a24.161,24.161,0,0,1-2.508.182c1.57-.263-3.217-.015-2.8-.3-1.162.237-4.2.1-6.257.237a2.506,2.506,0,0,1,.523-.045c-1.158-.02-1.5-.091-2.24-.136a15.824,15.824,0,0,1-2.925.362c-1.42-.189.862-.23.416-.412.072.159-2.467.159-1.984.291a5.909,5.909,0,0,1-1.5-.219c-.191.245-1.012.041-1.912.192-1.572-.121-.405-.23-2.132-.155C200.514,116.9,202.05,116.808,202.05,116.808Zm-41.064.423v0l.848-.008Zm-3.451,0,1.5.005c.121.049-.01.1-.357.1A6.489,6.489,0,0,0,157.535,117.234Zm7.3.974a2.518,2.518,0,0,1-.8-.037l.955-.017.064-.017A.7.7,0,0,1,164.834,118.208Z" fill="#202020"/>
      <path d="M165.817,118.023l.225-.01-.326-.032-.194.044Z" fill="#202020"/>
      <path d="M186.737,94.4l-.073,0a1.091,1.091,0,0,1,.152.02Z" fill="#202020"/>
      <polygon points="109.885 116.965 109.89 117 110.191 116.969 109.885 116.965" fill="#202020"/>
      <path d="M205.742,94.879a1.14,1.14,0,0,0,.25.036A1.532,1.532,0,0,0,205.742,94.879Z" fill="#202020"/>
      <path d="M213.952,94.911l1.161.05Z" fill="#202020"/>
      <path d="M220.264,94.98a.3.3,0,0,0,.124-.06h-.013Z" fill="#202020"/>
      <path d="M119.9,95.146l-.244.006C119.086,95.179,119.474,95.168,119.9,95.146Z" fill="#202020"/>
      <path d="M149.768,94.817l-.96.067C149.339,94.894,149.753,94.9,149.768,94.817Z" fill="#202020"/>
      <path d="M86.549,95.315l0,0h-.206Z" fill="#202020"/>
      <path d="M147.419,94.881a13.71,13.71,0,0,0,1.389,0C148.372,94.874,147.858,94.86,147.419,94.881Z" fill="#202020"/>
      <path d="M237.646,105.867l-.006.3c.009-.005.017.013.023.037Z" fill="#202020"/>
      <path d="M237.663,106.208l.016.337A1.79,1.79,0,0,0,237.663,106.208Z" fill="#202020"/>
      <path d="M237.715,107.256l-.036-.711A3.714,3.714,0,0,0,237.715,107.256Z" fill="#202020"/>
      <path d="M237.572,97.627l-.071-.069C237.523,97.6,237.546,97.625,237.572,97.627Z" fill="#202020"/>
      <path d="M236.3,95.762a4.119,4.119,0,0,1,1.142,1.742l.062.054c-.1-.154-.194-.56-.425-.941A2.363,2.363,0,0,0,236.3,95.762Z" fill="#202020"/>
      <path d="M226.128,94.364l2.128.041c-.372-.055-.861-.128.107-.141C225.681,94.1,228.916,94.386,226.128,94.364Z" fill="#202020"/>
      <path d="M219.531,94.285c1.143-.025-.014-.079.047-.109C218.853,94.225,218.677,94.238,219.531,94.285Z" fill="#202020"/>
      <path d="M171.85,94.285l.115-.128C171.083,94.175,171.957,94.206,171.85,94.285Z" fill="#202020"/>
      <polygon points="162.735 94.946 163.593 95.025 164.001 94.908 162.735 94.946" fill="#202020"/>
      <polygon points="157.351 94.035 157.736 94.016 156.266 94.063 157.351 94.035" fill="#202020"/>
      <path d="M77.272,94.08l.266.158C78.134,94.209,78.259,94.032,77.272,94.08Z" fill="#202020"/>
      <path d="M42.7,94.241a7.747,7.747,0,0,0-1.948-.052C41.53,94.2,42.305,94.261,42.7,94.241Z" fill="#202020"/>
      <polygon points="100.716 118.228 100.021 118.281 101.331 118.237 100.716 118.228" fill="#202020"/>
    </g>
    <path d="M232.313,109.95l-3.646-3.252a4.189,4.189,0,0,0,.721-2.329,4.32,4.32,0,1,0-2.068,3.643l.153-.139,3.65,3.264Zm-10.235-5.581a3.033,3.033,0,1,1,3.036,3.035A3.035,3.035,0,0,1,222.078,104.369Z" fill="#525252"/>
  </g>
  <g>
    <g>
      <path d="M74.643,174.86l-2.163-8.152h1.106l1.24,5.344c.134.56.248,1.116.346,1.669q.311-1.307.366-1.507l1.552-5.506h1.3l1.168,4.126a21.677,21.677,0,0,1,.633,2.887q.158-.774.407-1.775l1.278-5.238h1.085l-2.235,8.152h-1.04l-1.718-6.211c-.145-.519-.231-.837-.256-.957q-.129.563-.239.957l-1.73,6.211Z"/>
      <path d="M83.84,174.86v-8.152h1v2.925a2.235,2.235,0,0,1,1.767-.812,2.379,2.379,0,0,1,1.141.259,1.508,1.508,0,0,1,.691.715,3.274,3.274,0,0,1,.209,1.323v3.742h-1v-3.742a1.546,1.546,0,0,0-.325-1.093,1.208,1.208,0,0,0-.92-.341,1.628,1.628,0,0,0-.837.23,1.3,1.3,0,0,0-.559.626,2.857,2.857,0,0,0-.166,1.09v3.23Z"/>
      <path d="M94.217,172.959l1.034.128a2.528,2.528,0,0,1-.906,1.406,3.069,3.069,0,0,1-3.745-.3,3.118,3.118,0,0,1-.76-2.238,3.263,3.263,0,0,1,.767-2.313,2.6,2.6,0,0,1,1.992-.824,2.52,2.52,0,0,1,1.934.807,3.2,3.2,0,0,1,.751,2.268c0,.06,0,.149-.005.267h-4.4a2.264,2.264,0,0,0,.551,1.49,1.634,1.634,0,0,0,1.234.518,1.538,1.538,0,0,0,.94-.289A1.939,1.939,0,0,0,94.217,172.959Zm-3.287-1.618h3.3a2.008,2.008,0,0,0-.379-1.118,1.534,1.534,0,0,0-1.241-.578,1.593,1.593,0,0,0-1.159.46A1.836,1.836,0,0,0,90.93,171.341Z"/>
      <path d="M96.508,174.86v-5.905h.9v.84a2.126,2.126,0,0,1,1.881-.974,2.464,2.464,0,0,1,.981.193,1.538,1.538,0,0,1,.669.5,1.952,1.952,0,0,1,.313.739,5.756,5.756,0,0,1,.055.973v3.631h-1v-3.591a2.659,2.659,0,0,0-.118-.915.965.965,0,0,0-.414-.485,1.324,1.324,0,0,0-.7-.181,1.621,1.621,0,0,0-1.1.407,2,2,0,0,0-.464,1.54v3.225Z"/>
    </g>
    <g>
      <path d="M37.285,241.585l-2.162-8.152h1.106l1.24,5.343q.2.841.345,1.669.31-1.306.367-1.507l1.551-5.5h1.3l1.168,4.126a21.869,21.869,0,0,1,.634,2.886q.156-.772.406-1.774l1.279-5.238H45.6l-2.235,8.152h-1.04l-1.718-6.211c-.144-.52-.23-.838-.256-.957-.085.375-.166.693-.239.957l-1.729,6.211Z"/>
      <path d="M46.482,241.585v-8.152h1v2.924a2.236,2.236,0,0,1,1.768-.811,2.384,2.384,0,0,1,1.141.259,1.512,1.512,0,0,1,.691.715,3.271,3.271,0,0,1,.209,1.323v3.742h-1v-3.742a1.546,1.546,0,0,0-.325-1.093,1.206,1.206,0,0,0-.92-.342,1.62,1.62,0,0,0-.837.231,1.3,1.3,0,0,0-.56.626,2.872,2.872,0,0,0-.166,1.089v3.231Z"/>
      <path d="M52.443,238.632a3.049,3.049,0,0,1,.912-2.43,2.751,2.751,0,0,1,1.858-.656,2.653,2.653,0,0,1,1.991.8,3.037,3.037,0,0,1,.773,2.205,3.906,3.906,0,0,1-.342,1.793,2.427,2.427,0,0,1-.995,1.015,2.9,2.9,0,0,1-1.427.362,2.656,2.656,0,0,1-2-.8A3.172,3.172,0,0,1,52.443,238.632Zm1.03,0a2.514,2.514,0,0,0,.5,1.7,1.646,1.646,0,0,0,2.485,0,2.573,2.573,0,0,0,.495-1.729,2.447,2.447,0,0,0-.5-1.661,1.651,1.651,0,0,0-2.483,0A2.5,2.5,0,0,0,53.473,238.632Z"/>
    </g>
    <g>
      <path d="M89.253,305.117v-8.152h1.079v3.348h4.236v-3.348h1.079v8.152H94.568v-3.843H90.332v3.843Z"/>
      <path d="M96.943,302.164a3.045,3.045,0,0,1,.912-2.43,2.751,2.751,0,0,1,1.858-.656,2.652,2.652,0,0,1,1.99.8,3.035,3.035,0,0,1,.774,2.205,3.918,3.918,0,0,1-.343,1.793,2.43,2.43,0,0,1-1,1.016,2.909,2.909,0,0,1-1.426.361,2.659,2.659,0,0,1-2.006-.8A3.172,3.172,0,0,1,96.943,302.164Zm1.029,0a2.514,2.514,0,0,0,.5,1.7,1.646,1.646,0,0,0,2.485,0,2.573,2.573,0,0,0,.5-1.729,2.439,2.439,0,0,0-.5-1.66,1.649,1.649,0,0,0-2.482,0A2.5,2.5,0,0,0,97.972,302.164Z"/>
      <path d="M104.74,305.117l-1.808-5.905h1.035l.939,3.408.351,1.269q.021-.1.306-1.218l.939-3.459h1.029l.884,3.425.295,1.129.339-1.14,1.012-3.414h.973l-1.846,5.905h-1.04l-.939-3.537-.229-1.006-1.2,4.543Z"/>
    </g>
    <g>
      <path d="M170.359,308.117l-2.163-8.152H169.3l1.24,5.344q.2.84.345,1.668.312-1.308.366-1.506l1.553-5.506h1.3l1.168,4.125a21.711,21.711,0,0,1,.633,2.887c.105-.516.24-1.106.406-1.774l1.28-5.238h1.084l-2.235,8.152H175.4l-1.717-6.211q-.218-.779-.256-.957-.128.563-.24.957l-1.728,6.211Z"/>
      <path d="M179.557,308.117v-8.152h1v2.924a2.235,2.235,0,0,1,1.768-.811,2.386,2.386,0,0,1,1.14.258,1.505,1.505,0,0,1,.692.715,3.3,3.3,0,0,1,.209,1.324v3.742h-1v-3.742a1.549,1.549,0,0,0-.324-1.094,1.209,1.209,0,0,0-.921-.342,1.645,1.645,0,0,0-.837.231,1.3,1.3,0,0,0-.558.627,2.848,2.848,0,0,0-.167,1.09v3.23Z"/>
      <path d="M185.846,310.391l-.112-.94a2.262,2.262,0,0,0,.574.09,1.107,1.107,0,0,0,.534-.111.917.917,0,0,0,.328-.313,4.966,4.966,0,0,0,.305-.744c.019-.057.048-.139.089-.246l-2.241-5.916H186.4l1.229,3.42c.159.433.3.89.428,1.367a13.44,13.44,0,0,1,.412-1.346l1.261-3.441h1l-2.247,6.006a11.914,11.914,0,0,1-.561,1.34,1.978,1.978,0,0,1-.612.726,1.452,1.452,0,0,1-.824.231A2,2,0,0,1,185.846,310.391Z"/>
    </g>
    <g>
      <path d="M201.133,239.684l-2.164-8.153h1.107l1.24,5.344q.2.841.344,1.67c.209-.871.33-1.375.367-1.508l1.553-5.506h1.3l1.168,4.127a21.711,21.711,0,0,1,.633,2.887c.1-.516.24-1.107.406-1.775l1.279-5.239h1.084l-2.234,8.153h-1.041l-1.717-6.211c-.146-.52-.23-.838-.256-.957-.086.375-.166.693-.24.957l-1.729,6.211Z"/>
      <path d="M210.33,239.684v-8.153h1v2.926a2.237,2.237,0,0,1,1.768-.812,2.371,2.371,0,0,1,1.14.259,1.51,1.51,0,0,1,.692.715,3.3,3.3,0,0,1,.209,1.322v3.743h-1v-3.743a1.538,1.538,0,0,0-.325-1.091,1.2,1.2,0,0,0-.919-.342,1.622,1.622,0,0,0-.838.23,1.3,1.3,0,0,0-.559.625,2.884,2.884,0,0,0-.166,1.09v3.231Z"/>
      <path d="M220.707,237.783l1.035.127a2.524,2.524,0,0,1-.908,1.406,3.066,3.066,0,0,1-3.744-.3,3.119,3.119,0,0,1-.76-2.239,3.258,3.258,0,0,1,.768-2.312,2.6,2.6,0,0,1,1.99-.824,2.523,2.523,0,0,1,1.935.806,3.209,3.209,0,0,1,.752,2.27c0,.058,0,.148,0,.265h-4.405a2.265,2.265,0,0,0,.551,1.491,1.635,1.635,0,0,0,1.234.517,1.53,1.53,0,0,0,.94-.289A1.916,1.916,0,0,0,220.707,237.783Zm-3.287-1.619h3.3a2.008,2.008,0,0,0-.379-1.117,1.531,1.531,0,0,0-1.24-.578,1.584,1.584,0,0,0-1.159.461A1.82,1.82,0,0,0,217.42,236.164Z"/>
      <path d="M222.986,239.684v-5.905h.9v.9a2.442,2.442,0,0,1,.636-.828,1.105,1.105,0,0,1,.643-.2,1.952,1.952,0,0,1,1.029.322l-.345.929a1.437,1.437,0,0,0-.735-.216.951.951,0,0,0-.588.2,1.068,1.068,0,0,0-.373.547,3.915,3.915,0,0,0-.168,1.168v3.092Z"/>
      <path d="M230.832,237.783l1.035.127a2.521,2.521,0,0,1-.906,1.406,3.068,3.068,0,0,1-3.746-.3,3.118,3.118,0,0,1-.758-2.239,3.258,3.258,0,0,1,.768-2.312,2.593,2.593,0,0,1,1.99-.824,2.529,2.529,0,0,1,1.935.806,3.208,3.208,0,0,1,.75,2.27c0,.058,0,.148,0,.265H227.49a2.265,2.265,0,0,0,.551,1.491,1.638,1.638,0,0,0,1.234.517,1.526,1.526,0,0,0,.94-.289A1.9,1.9,0,0,0,230.832,237.783Zm-3.285-1.619h3.3a2.008,2.008,0,0,0-.377-1.117,1.534,1.534,0,0,0-1.24-.578,1.586,1.586,0,0,0-1.161.461A1.828,1.828,0,0,0,227.547,236.164Z"/>
    </g>
    <g>
      <path d="M165.359,174.394l-2.163-8.153H164.3l1.24,5.344c.133.561.248,1.116.345,1.669q.312-1.306.366-1.507l1.553-5.506h1.3l1.168,4.126a21.746,21.746,0,0,1,.633,2.887q.158-.774.406-1.775l1.28-5.238h1.084l-2.235,8.153H170.4l-1.717-6.211c-.145-.52-.23-.838-.256-.957-.085.375-.165.693-.24.957l-1.728,6.211Z"/>
      <path d="M174.557,174.394v-8.153h1v2.925a2.236,2.236,0,0,1,1.768-.812,2.375,2.375,0,0,1,1.14.259,1.505,1.505,0,0,1,.692.715,3.292,3.292,0,0,1,.209,1.323v3.743h-1v-3.743a1.541,1.541,0,0,0-.324-1.092,1.206,1.206,0,0,0-.921-.342,1.634,1.634,0,0,0-.837.23,1.3,1.3,0,0,0-.558.626,2.855,2.855,0,0,0-.167,1.09v3.231Z"/>
      <path d="M184.744,173.665a3.713,3.713,0,0,1-1.07.667,3.093,3.093,0,0,1-1.1.195,2.151,2.151,0,0,1-1.5-.475,1.573,1.573,0,0,1-.523-1.215,1.641,1.641,0,0,1,.715-1.368,2.414,2.414,0,0,1,.72-.328,7.244,7.244,0,0,1,.889-.151,9.139,9.139,0,0,0,1.785-.344c0-.137.006-.225.006-.262a1.107,1.107,0,0,0-.283-.862,1.679,1.679,0,0,0-1.141-.338,1.77,1.77,0,0,0-1.043.247,1.521,1.521,0,0,0-.5.876l-.978-.134a2.438,2.438,0,0,1,.438-1.015,1.934,1.934,0,0,1,.885-.595,3.944,3.944,0,0,1,1.34-.209,3.563,3.563,0,0,1,1.229.178,1.629,1.629,0,0,1,.695.448,1.588,1.588,0,0,1,.312.681,5.724,5.724,0,0,1,.049.923v1.335a14.094,14.094,0,0,0,.064,1.766,2.227,2.227,0,0,0,.254.709h-1.046A2.109,2.109,0,0,1,184.744,173.665Zm-.084-2.235a7.364,7.364,0,0,1-1.635.378,3.787,3.787,0,0,0-.873.2.869.869,0,0,0-.394.325.885.885,0,0,0,.164,1.143,1.3,1.3,0,0,0,.887.267,2.076,2.076,0,0,0,1.029-.253,1.567,1.567,0,0,0,.662-.692,2.433,2.433,0,0,0,.16-1Z"/>
      <path d="M189.41,173.5l.145.885a3.838,3.838,0,0,1-.758.089,1.7,1.7,0,0,1-.844-.173.963.963,0,0,1-.424-.453,3.645,3.645,0,0,1-.121-1.182v-3.4h-.734v-.779h.734v-1.463l.994-.6v2.063h1.008v.779H188.4v3.453a1.762,1.762,0,0,0,.053.551.418.418,0,0,0,.174.194.662.662,0,0,0,.342.072A3.267,3.267,0,0,0,189.41,173.5Z"/>
    </g>
    <g>
      <path d="M86.239,145.753a7.944,7.944,0,1,0,7.944,7.943A7.952,7.952,0,0,0,86.239,145.753Zm1,13.81v-.928a1,1,0,1,0-1.991,0v.928a5.982,5.982,0,0,1-4.871-4.871h.93a1,1,0,0,0,0-1.991H80.37a5.954,5.954,0,1,1,6.865,6.862Z" fill="#323031"/>
      <path d="M88.872,153.032H86.9v-3.294a.664.664,0,1,0-1.328,0V153.7a.666.666,0,0,0,.663.665h2.633a.665.665,0,1,0,0-1.329Z" fill="#323031"/>
    </g>
    <path d="M219.281,213.566a5.2,5.2,0,0,0-9.152,4.924l3.923,7.288a.752.752,0,0,0,.653.391.737.737,0,0,0,.654-.391l3.922-7.288A5.243,5.243,0,0,0,219.281,213.566Zm-4.573,5.7a3.238,3.238,0,1,1,3.238-3.239A3.239,3.239,0,0,1,214.708,219.267Z" fill="#323031"/>
    <g>
      <path d="M178.823,294a1.747,1.747,0,1,0-1.747-1.746A1.748,1.748,0,0,0,178.823,294Z" fill="#323031"/>
      <path d="M184.267,279.8v-.149c0-.079,0-.119,0-.119,0-.032-.01-.06-.014-.091a5.825,5.825,0,0,0-9.936-3.765,1.281,1.281,0,1,0,1.811,1.811,3.27,3.27,0,0,1,5.582,2.294v.043l0,0c0,.036,0,.07,0,.113-.01.127,0,.372-.025.487a2.476,2.476,0,0,1-.081.4,2.411,2.411,0,0,1-.207.526,3.6,3.6,0,0,1-.39.585c-.159.208-.358.425-.581.662s-.451.465-.7.751a9.876,9.876,0,0,0-.723.891,6.02,6.02,0,0,0-.916,2.063,8.316,8.316,0,0,0-.132.948c-.007.287-.013.552-.017.784.01.207.017.384.022.533.011.3.018.465.018.465h1.709s0-.17.019-.465c0-.149.013-.326.021-.533.02-.175.039-.374.066-.593a5.2,5.2,0,0,1,.144-.657,4.252,4.252,0,0,1,.285-.665,3.992,3.992,0,0,1,.434-.643,7.922,7.922,0,0,1,.6-.626c.212-.2.492-.446.727-.659.252-.226.52-.471.771-.745a6.532,6.532,0,0,0,.691-.873,5,5,0,0,0,.476-.955,5.066,5.066,0,0,0,.258-.938c.055-.285.048-.4.072-.57q.01-.109.021-.195l0-.022,0-.1Z" fill="#323031"/>
    </g>
    <g>
      <path d="M95.961,278.129a2.632,2.632,0,1,0-2.631,2.634A2.633,2.633,0,0,0,95.961,278.129Z" fill="#323031"/>
      <path d="M104.286,281.86a2.632,2.632,0,1,0,2.634,2.632A2.634,2.634,0,0,0,104.286,281.86Z" fill="#323031"/>
      <path d="M95.142,287.125a2.632,2.632,0,1,0,2.632,2.632A2.634,2.634,0,0,0,95.142,287.125Z" fill="#323031"/>
      <rect x="95.696" y="279.692" width="2.506" height="1.114" transform="translate(-193.953 222.676) rotate(-59.723)" fill="#323031"/>
      <rect x="97.555" y="280.754" width="2.505" height="1.113" transform="translate(-194.002 225.088) rotate(-59.778)" fill="#323031"/>
      <rect x="99.415" y="281.817" width="2.505" height="1.113" transform="translate(-193.997 227.224) rotate(-59.778)" fill="#323031"/>
      <rect x="98.251" y="286.403" width="1.113" height="2.505" transform="translate(-131.462 88.948) rotate(-30.251)" fill="#323031"/>
      <rect x="100.112" y="285.34" width="1.113" height="2.505" transform="translate(-130.672 89.74) rotate(-30.251)" fill="#323031"/>
    </g>
    <g>
      <path d="M51.842,211.68a1.168,1.168,0,0,0-1.65.057l-4.6,4.92L41,211.737a1.1,1.1,0,0,0-.138-.125,1.167,1.167,0,1,0-1.431,1.843l5,3.882v10.184a1.163,1.163,0,1,0,2.326,0V217.337l5-3.882a1.334,1.334,0,0,0,.136-.125A1.168,1.168,0,0,0,51.842,211.68Z" fill="#323031"/>
      <path d="M45.6,213.523a1.551,1.551,0,1,0-1.55-1.55A1.552,1.552,0,0,0,45.6,213.523Z" fill="#323031"/>
    </g>
    <g>
      <polygon points="175.923 152.685 168.8 148.955 175.923 145.393 182.324 148.955 175.923 152.685" fill="#323031"/>
      <polygon points="176.635 153.937 176.635 161.723 183.747 158.208 183.747 149.666 176.635 153.937" fill="#323031"/>
      <polygon points="175.206 153.937 175.206 161.723 168.088 158.208 168.088 150.378 175.206 153.937" fill="#323031"/>
    </g>
    <g>
      <path d="M114.711,202.133c-.086-.077-.281-.034-.242.178l.331.151Z" fill="#4c4a4b"/>
      <path d="M114.1,203.559c.161.249.443.537.747.376-.318-.247-.186-.307-.564-.573-.039-.212.106-.37.228-.334-.085-.075.073-.33-.135-.444a.781.781,0,0,0-.055.991C114.246,203.653,114.159,203.577,114.1,203.559Z" fill="#4c4a4b"/>
      <path d="M113.582,224.287l.04-.133A.33.33,0,0,0,113.582,224.287Z" fill="#4c4a4b"/>
      <path d="M122.178,233.818c-.077-.06-.13-.063-.154-.044C122.106,233.819,122.175,233.854,122.178,233.818Z" fill="#4c4a4b"/>
      <path d="M123.555,235.563l-.08-.1C123.491,235.515,123.516,235.561,123.555,235.563Z" fill="#4c4a4b"/>
      <path d="M113.582,224.287l-.1.343C113.586,224.654,113.558,224.454,113.582,224.287Z" fill="#4c4a4b"/>
      <path d="M114.9,206.417a.5.5,0,0,0-.087-.186l.035.175Z" fill="#4c4a4b"/>
      <path d="M113.314,218.626v-.105a.838.838,0,0,0-.134-.086Z" fill="#4c4a4b"/>
      <path d="M113.263,214.281c-.012.1.269.132.392.17a.322.322,0,0,1-.193-.214A.493.493,0,0,0,113.263,214.281Z" fill="#4c4a4b"/>
      <path d="M113.758,207.391l-.039-.122Z" fill="#4c4a4b"/>
      <path d="M113.253,221.735a.245.245,0,0,0-.1.04A.163.163,0,0,0,113.253,221.735Z" fill="#4c4a4b"/>
      <path d="M119.146,203.178a.253.253,0,0,0,0-.049C119.12,203.158,119.113,203.179,119.146,203.178Z" fill="#4c4a4b"/>
      <path d="M114.042,202.06l.069-.019a1.4,1.4,0,0,0,.007-.158Z" fill="#4c4a4b"/>
      <path d="M126.282,238.529l-.009-.016C126.173,238.465,126.221,238.5,126.282,238.529Z" fill="#4c4a4b"/>
      <path d="M154.664,237.022c-.472.117.253-.708-.389-.461C154.394,236.6,154.181,237.274,154.664,237.022Z" fill="#4c4a4b"/>
      <path d="M114.86,206.53c0,.059,0,.118,0,.178A.5.5,0,0,0,114.86,206.53Z" fill="#4c4a4b"/>
      <path d="M154.275,236.561l0,0-.064.027Z" fill="#4c4a4b"/>
      <path d="M133.238,244.623a.348.348,0,0,0,.013-.154C133.234,244.492,133.226,244.533,133.238,244.623Z" fill="#4c4a4b"/>
      <path d="M128.41,239.694l.1.142A.579.579,0,0,0,128.41,239.694Z" fill="#4c4a4b"/>
      <path d="M136.151,246.735c.054.079.051.129.17.186a.17.17,0,0,0,0-.051C136.256,246.867,136.2,246.84,136.151,246.735Z" fill="#4c4a4b"/>
      <path d="M138.966,249.292c-.009-.037-.028-.076-.04-.113l-.13-.1Z" fill="#4c4a4b"/>
      <path d="M130.436,202.433a.826.826,0,0,1-.186-.243C130.319,202.386,129.776,202.487,130.436,202.433Z" fill="#4c4a4b"/>
      <path d="M114.739,206.419a.152.152,0,0,1,.121.111l-.015-.124A.1.1,0,0,0,114.739,206.419Z" fill="#4c4a4b"/>
      <path d="M137.755,245.2l.409.429A3.982,3.982,0,0,0,137.755,245.2Z" fill="#4c4a4b"/>
      <path d="M148.325,217.922l-.11-.085A.163.163,0,0,0,148.325,217.922Z" fill="#4c4a4b"/>
      <path d="M139.491,246.775a.863.863,0,0,0,.116.368.258.258,0,0,0,.1-.008Z" fill="#4c4a4b"/>
      <path d="M130.249,202.187v0Z" fill="#4c4a4b"/>
      <path d="M126.4,203.064c.563-.022.245-.375.353-.594.666-.141.325.255.564.431.414-.12.718-.476,1.031-.478.027.059.089.078.022.158.427-.317,1.315-.086,1.812-.482a.216.216,0,0,1,.072.088.96.96,0,0,1-.107-.5c.252-.02.456-.258.564-.022-.155,0-.163.1-.231.178l.259-.119c.256.334-.355.14-.341.4a4.343,4.343,0,0,1,1.5-.383c.1.334-.918.164-.374.437l-.618-.1c.5.51-.374-.017.086.532.81.055.891-.221,1.7-.166.171-.2-.075-.275.1-.474,1.122-.4.943.8,1.757.308.205-.238.266-.672.875-.477l-.182.4c.187,0,.31-.033.3-.073.027-.042.052-.1.08-.152.053-.109.137-.207.258-.149l.022.1a.145.145,0,0,1-.081.034c-.1.064-.174.063-.153.1.029.1.04.108.075.077.053-.032.182-.25.266-.145-.064.1-.131.2-.2.293l.076.049.233.226.5.451c.338.3.683.614.994.954-.111.023-.292-.034-.239.2a11.637,11.637,0,0,1,2.047,2.964l.5.152c.06.079.011.226-.1.178.184.41.16-.1.38-.007.171.182.072.362-.095.294a5.459,5.459,0,0,1,2.043,2.21l-.166-.069c.3.568.914.183,1.064.811l-.11-.055c.753,1.151,1.906,2.168,2.21,3.261.455-.107.7,1.179,1.213.88a5.228,5.228,0,0,0,.569,1.669c.162.247.561.114.836.36l-.235.2.56.185-.125.435.275.218c-.071-.118-.072-.312.01-.352.441.331.641,1.151.526,1.259l.989.824c-.115.056-.279-.083-.445-.164.665.33-.178.3.432.6,0-.109.171-.08.229-.108a2.821,2.821,0,0,0,.863,1.262l-.228.054c.541.766,1.308,1.479,1.959,2.3-.157-.356.184-.518.4-.3l-.178.3c.281.03-.1-.328.343-.163.214.331-.126.437-.349.327l.385.3c-.059.082-.168.027-.284.081.281.027.257.847.708.849l-.059.082c.651.822,1.035,1.125,1.58,1.783.23-.162.39.139.726.2a11.285,11.285,0,0,0,1.072,1.808c.441.329.283-.027.563.056-.176.19.313.767-.075.574a2.614,2.614,0,0,0,.981.87c.01,0,.008.023,0,.043l.179-.033a.2.2,0,0,1,.161-.013l.028.024a.51.51,0,0,1-.433.1l-.015-.022c.022.114-.11.248-.25.326-.215.153-.584.4-.88.573-.621.384-1.206.759-1.38,1.31l.021-.059-.556.95c-.377.315.072-.344-.3-.2-.51,1.114-1.327,1.239-1.795,2.109-1.052-.016-1.8,1.875-2.839,2.233l.166.085c-.057.3-.29.147-.452.251.116.079.309-.083.265.1a40.409,40.409,0,0,1-5.024,4.428c-.607.54.326.977-.7,1.4l-.028-.439c-.877,1.438-2.377,2.357-3.273,3.728.014-.121-.054-.193.058-.3a1.086,1.086,0,0,0-.584.483,1.626,1.626,0,0,0-.1.17c-.032.058,0,.054,0,.087a.59.59,0,0,0,.062.143c-.064.033-.112-.138-.183-.209-.048-.051-.026.035-.038.139s-.042.206-.059.054a.82.82,0,0,1,.01-.145.213.213,0,0,1-.014.072c-.034.016-.086-.105-.122.167-.041-.126-.094-.133-.168-.164a1.7,1.7,0,0,1-.526-.522c-.44.018-.662-.8-1.03-.546.336-.306-.535-.979-.96-1.078.187-.015-.149-.327.089-.367-.326-.287-.676-.493-.777-.27-.227-.938-1.482-.759-1.349-1.575-1.117-.687-2.111-1.368-3.04-2.07.334-.305.979.829,1.261.445a9.484,9.484,0,0,1-2.4-1.557c-.168-.236.25-.037.373-.03-.938-.6-1.545-1.46-2.434-1.936.03-.029.139.008.236.049-.153-.118-.288-.35-.409-.184l.176.085c.028.428-.984-.055-1.115.038.637-.214-.616-.759.268-.958-.12-.057-.3-.092-.374.029-.112-.157-.1-.256.144-.243-.586-.382-.551-.056-1.011-.48.068-.072.187-.015.314-.058a1.55,1.55,0,0,1-1.065-.558c.064-.023.071-.122.187-.015-.693-.589-1.492-.66-2.1-1.468.508-.121-.155-.333.057-.645l-.471-.278.037.279c-.342-.32-.832-.4-1.049-.76l.362.121-.7-.539.273.44c-.481-.177-.281.383-.673-.114.12.058-.344-.319-.377-.646h0a1.044,1.044,0,0,1-.707-.438c.014-.149.332-.257.342-.355-.38.077-.872-.675-1.31-.624a.31.31,0,0,0,.263-.185l-.312.058c-.107-.206-.1-.257.027-.348-.452-.475-.164.49-.6-.183.058.026.062-.022.182.035-.505-.6-1.222-.894-1.668-1.468.1-.42.525.353.559-.044a21.778,21.778,0,0,1-2.564-1.843l.109.156c-.459.3-.374-.694-.916-.849.118.054.318-.109.254-.088a3.172,3.172,0,0,0-.551-.493,4.1,4.1,0,0,0-.523-.291,3.221,3.221,0,0,1-.155-.6l.136.129a12.039,12.039,0,0,0,.132-1.5c-.136-.129-.114-.378-.312-.227.776-1.343-.416-2.561.231-3.753,0,.142.119.34.119.226l-.125-1.015c-.231.081-.14.133-.32.347a1.011,1.011,0,0,1-.243-.667c.153.457.371,0,.5-.2-.071.033-.149-.034-.221-.018.411-.53-.465-.089-.188-.812l.121.038a2.38,2.38,0,0,1-.188-.813c.268-.121.125.288.345.307-.015-.41-.506-.81-.24-1.181.075.174.076.425.15.6a1.033,1.033,0,0,0,.284-.752l-.007.03.142-.695-.085.177c-.7-.513-.128-1.045-.584-1.737.432.672.25.111.553.162.084-.176.178-.445.263-.368-.244-.327.193-.546-.165-1.007.1-.021.01-.35.255-.276-.077-.426-.17.1-.292.064-.333-.655.4-1.54-.053-2.482-.188-.813-.517-.963-.681-1.717.156-.255.355.208.355.208a1.647,1.647,0,0,0,.006-1.106c.085.078.157,0,.266-.121-.025-.31-.355-.207-.211-.617a1.331,1.331,0,0,1,.392.31c-.09-.366-.272-.727-.36-1.106.17-.1.258.229.369.362-.077-.426-.154-1.1-.423-1.234l-.1.273c-.013-.156.231-.08.28.034a.339.339,0,0,1-.191.547l-.063-.27c-.572.278.092,1.084.059,1.627l-.416-.226.345.557c-.108.118-.341.2-.4-.069-.2.389.148.345-.081.679-.036.037-.056.021-.072-.014l.124.381c-.088-.075-.294.063-.234-.171-.24.683.312,1.1,0,1.358l-.026-.057c.141.948.306.092.664.8l-.753.478.3.093c-.011.1-.034.291-.156.255.209.364.133-.062.33.15-.278.47.13,1.3-.356,1.4.232.168.179-.45.34.052-.523.143.09.581-.15,1.01-.27-.132-.127-.539-.368-.109.456.26-.1.837-.013,1.2.363.017.152.788.273,1.4-.122-.038-.2,1.145-.331,1.711l-.061-.017c.367.109.3.693.374,1.118-.22-.017-.307-.093-.405-.323v.4a.68.68,0,0,1,.222.478l-.274-.1a4.956,4.956,0,0,1,.14,1.755c.256.039.713-.544.884.179-.139.027-.376.054-.432-.135.018.062.115.221.056.346l-.233-.289c-.1.311.194.163.173.412-.2,0-.141.184-.3.148-.019-.063.082-.217,0-.312a1.243,1.243,0,0,1-.3.732.222.222,0,0,1,.292.206c.014.532-.238.182-.339.492.137.129-.005.468.29.477,0,.156-.139.185-.219.245.13.275.037,1.285.351.975l.021-.07.013.045v0a2.247,2.247,0,0,1,.1.717c0,.279-.032.575-.065.886.17.2.348.4.543.606a3.022,3.022,0,0,0,.5.442l-.067.072a6.769,6.769,0,0,0,1.35.85c.116.107.154.385.025.426.352.22.461.169.788.686-.42-.149,0,.208-.4-.19.335.42.318.618.921.8-.314.057.081.5.319.618l-.154-.384a3.479,3.479,0,0,1,.575.532l-.324.155c.531,1.03,1.912.808,2.068,1.865.369.021-.326-.518.047-.547.34.37.4,1.073.518,1.179.383.6.8.07,1.245.645.012-.149.161-.442.632-.165.341.369.12.782-.177.64-.1-.073-.113-.14-.083-.166-.148-.077-.339-.182-.279.046l.128-.044c.1.257.619.71.368.745.356.171.251-.035.085-.269.359.559.738.678,1.149,1.207-.034-.119-.012-.287.065-.216.617.76.467.12.987.523.154.385-.389.23.2.562.216.362-.148.29-.332.254.6.235.73.867.957,1.13l-.3-.143a1.6,1.6,0,0,1,.408.3l.026-.3c.11.155.226.262.157.333.246.014.157-.391.581-.293.1.257.646.413.5.7-.505-.6-.149.293-.672-.114a.943.943,0,0,1,.344.32c0,.045-.064.03-.114.01.364.71.494-.033,1.062.493-.193.065-.094.369.025.426-.229-.212.088-.319.391-.227.275.435.469.286.65.473l-.176-.248c.194-.063.362.121.655.312-.071.122-.3-.141-.246-.013.494.027.425.823.962,1.027.1.256-.206.263-.1.47.6.233.318.617.912.9.026-.3-.037-.277.448-.15l-.88-.573.726.191c-.229-.213-.59-.333-.7-.49.365.07.3.092.324-.156.076.553.768.417.972.929l-.409.427c.374.695,1.182.665,1.8,1.425l-.16-.285c.253-.087.463.377.758.517-.154.126-.057.311-.041.492.086-.12.514.485.844.253l.145.482c.5.6,1.037.183,1.546.737-.311.007-.153.34-.628.115.184.17.326.348.421.25.025.19.693.27.737.564.136.006.3-.123.5.078,0,.05-.067.071-.067.071.067-.071.415.2.381-.129.17.988,1.593,1.388,1.8,2.289.541.416,1.12.869,1.563,1.239l.243-.257c-.023.106.012.127-.085.195.754-.494.249-1.05.979-1.49.568-.117-.277.521.022.393a.258.258,0,0,0,.366.01,1.125,1.125,0,0,0,.188-.172,1.966,1.966,0,0,0,.122-.165c.163-.243.339-.546.659-.6l-.063.117c.439-.128.517-.865,1.013-1.295,0,0,.018.063.066.072a4.816,4.816,0,0,1,.984-1.738c.041.318-.107.3.16.4.174-.226-.351-.235,0-.685.228-.031.6-.232.834-.075l-.365.386c.444.06.477-.5.719-.649l.085.135c.54-.611.27-.9.909-1.5l-.147-.019c.063-.614.438-.129.571-.671l.381.177a11.43,11.43,0,0,1,.86-1.5,5.4,5.4,0,0,1-.549,1.42c.223-.219.73-.772.708-1.025-.062.116-.106.3-.237.342a2.29,2.29,0,0,1,.747-1.392c.463.619,1.285-1.012,2.025-.912.58-.98,1.632-1.461,2.508-2.4-.742-.1.254-.277-.234-.654.184-.239.272-.312.318-.3l.9-.383c.278-.026-.106.3.01.374.5-.43.378-.011.8-.2-.217-.092-.06-.383.263-.588l-.571.173c.417-.878.922-.2,1.347-1.077l-.07.342c.254-.415,1.238-1.233,1.219-1.908.109-.009.3.03.189.209a7.177,7.177,0,0,0,1.04-1.28c.225-.292.55-.682.8-.968a7.449,7.449,0,0,1,.831-.818,2.645,2.645,0,0,1-.168-.306l.28.112c-.295-.3-.717-.449-.824-.826.077,0,.248.072.15-.065-.089-.07-.307-.239-.518-.427a3.871,3.871,0,0,1-.3-.3.658.658,0,0,1-.148-.213,1.2,1.2,0,0,1,.3.109c-.577-1.039-1.387-1.085-2.053-1.758.346-.272-.083-1.041-.3-1.424l.058-.027a16.275,16.275,0,0,0-2.521-2.306c-.087-.875-1.4-2.083-1.933-3.179.051.192-.286.191-.452.053-.1-.274-.719-.413-.376-.629l.056.082c.179-.411-.26-.793-.53-1.15l-.459.271c-.128-1.393-2.13-2.222-1.989-3.15-.279-.139-.5-.413-.773-.55l.231-.165a10.689,10.689,0,0,0-1.3-1.7l.281.028c-.325-.438-1.067-.03-1.394-.413l.237-.382c-.6-.74-.907-1.725-1.792-2.221a.221.221,0,0,1,.28.029c-.27-.357-.855-1.534-1.208-1.045.289-.244-.582-.791-1.032-1.089l.267-.111a1.587,1.587,0,0,1-1.087-.481c-.061-.135.1-.237.159-.043-.184-.466-.439-.128-.684-.674l.274.059c-.289-.4-.34-.309-.671-.391-.28-.173-.526-.775-.374-.988a.58.58,0,0,1-.614-.312c.05-.09.162-.044.218-.02-.364-.762-1.016-.756-1.154-1.369a.2.2,0,0,0,.071-.178,8.4,8.4,0,0,1,.671.911c.2-.16-.093-.6.446-.494-.415-.211-1.2-.515-1.421-.993a.29.29,0,0,1,.027-.109l.055.024a.523.523,0,0,0-.234-.229,1.719,1.719,0,0,0-.206-.382c.129-.179-.287-.545-.443-.757-.206.192-.385-.106-.366.291-.01-.045.057.018.175.148a.411.411,0,0,0,.093.07H138l.422.5c-.241-.074-.471-.17-.53-.494-.225.006-.463.006-.584-.006a1.768,1.768,0,0,0-.105-.9,3.675,3.675,0,0,1-.248-.9l-.18-.181c-1.607.213-2.268.232-2.78.756-.225.08-.271-.137-.361-.216.129-.06.286-.06.353-.14-.449.16-1.349.126-1.438.5-.584-.135.305-.356-.482-.253l.1-.119c-1.587-.5-2.477,1.077-4.241.415.122.039.183.058.21.118-1.983-.227-4.032.532-6,.108-.557-.077-.6.162-.93.359l-.136-.295-.556.379c-.8.3-1.453-.664-2.459-.126l.144.2c-.373-.019-1.168.183-1.119-.054-.036.039-.11.218-.261.12l-.019-.158-.9.32c-.712-.076.077-.632-.955-.607-.38.081-1.066.518-.917.616.156,0,.4.077.421.234l-.346.1c-.038.469-.282.959.6,1.238l.583-.317.206.215-.5.042c.3.2.469,0,.665-.141a.422.422,0,0,0,.264.235l.565-.476c.081.178-.245.375.156.454.264-.221-.287-.393.162-.554.3.2.224.373.551.174.053.117-.014.2-.144.257.292-.159.789-.1.93-.359.313.245,1.008-.122,1,.32a1.7,1.7,0,0,1,.783-.408c-.474.554,1.032-.024.929.548.347-.494,1.333-.283,1.977-.582-.034.04-.1.12-.162.1a2.067,2.067,0,0,1,.731.233c.027-.394.6-.515.9-.773.475.353-.251.474-.089.829-.04-.315.773-.359.6-.615.36.215.305.1.5.412.035-.492.319-.1.591-.416.516.214.155.451.7.272C126.877,202.864,126.4,203.064,126.4,203.064Zm11.272.832,0,0-.182-.2Zm.692.863c-.075-.113-.178-.245-.29-.383.052-.09.156-.12.221-.03C138.2,204.339,138.32,204.578,138.359,204.759Zm.067-3.044c.14.112.134.192.1.247-.055-.062-.123-.131-.217-.219l-.04.006A.368.368,0,0,1,138.426,201.715Z" fill="#4c4a4b"/>
      <path d="M137.941,201.7a.3.3,0,0,1-.06-.044.885.885,0,0,0,.015.122l.108-.007Z" fill="#4c4a4b"/>
      <path d="M113.628,224.13l-.006.024a.122.122,0,0,1,.04-.049C113.648,224.12,113.639,224.12,113.628,224.13Z" fill="#4c4a4b"/>
      <polygon points="147.45 217.044 147.505 216.999 147.396 216.962 147.45 217.044" fill="#4c4a4b"/>
      <path d="M114.593,218.038a.16.16,0,0,0,.072-.08C114.646,217.962,114.621,218,114.593,218.038Z" fill="#4c4a4b"/>
      <path d="M114.656,215.406l.1-.372A2.209,2.209,0,0,0,114.656,215.406Z" fill="#4c4a4b"/>
      <path d="M114.8,213.383a.4.4,0,0,0-.12-.04l0,0Z" fill="#4c4a4b"/>
      <path d="M129.572,238.208a.3.3,0,0,0,.066.043C129.81,238.334,129.7,238.266,129.572,238.208Z" fill="#4c4a4b"/>
      <path d="M122.046,232.254a1.941,1.941,0,0,1,.317.109C122.252,232.232,122.157,232.139,122.046,232.254Z" fill="#4c4a4b"/>
      <polygon points="137.71 245.149 137.706 245.152 137.755 245.196 137.71 245.149" fill="#4c4a4b"/>
      <path d="M122.689,232.666a.707.707,0,0,0-.326-.3A1.084,1.084,0,0,0,122.689,232.666Z" fill="#4c4a4b"/>
      <path d="M114.923,204.613l.011-.1a.066.066,0,0,1-.045-.012Z" fill="#4c4a4b"/>
      <path d="M114.889,204.5l-.033-.108C114.856,204.446,114.858,204.489,114.889,204.5Z" fill="#4c4a4b"/>
      <path d="M114.785,204.168l.071.228C114.857,204.317,114.865,204.22,114.785,204.168Z" fill="#4c4a4b"/>
      <path d="M114.793,207.292l.1.031A.178.178,0,0,0,114.793,207.292Z" fill="#4c4a4b"/>
      <path d="M114.822,208.106c.023-.194.218-.487.154-.758l-.081-.025C115.046,207.45,114.65,207.922,114.822,208.106Z" fill="#4c4a4b"/>
      <path d="M113.562,211.5l.082-.682c-.109.12-.255.276-.281-.034C113.039,211.647,113.606,210.61,113.562,211.5Z" fill="#4c4a4b"/>
      <path d="M113.405,213.618c-.051-.366-.158,0-.219-.015C113.285,213.836,113.31,213.892,113.405,213.618Z" fill="#4c4a4b"/>
      <path d="M116.092,228.281l-.2.164C116.127,228.608,115.962,228.374,116.092,228.281Z" fill="#4c4a4b"/>
      <polygon points="119.144 229.268 119.047 228.965 118.792 229.051 119.144 229.268" fill="#4c4a4b"/>
      <polygon points="119.195 231.777 119.079 231.721 119.49 231.97 119.195 231.777" fill="#4c4a4b"/>
      <path d="M138.25,248.977l.148-.291C138.219,248.6,137.951,248.835,138.25,248.977Z" fill="#4c4a4b"/>
      <path d="M147.376,243.7a.477.477,0,0,0,.515-.368C147.7,243.491,147.437,243.58,147.376,243.7Z" fill="#4c4a4b"/>
      <polygon points="151.257 217.771 151.478 217.879 151.148 217.605 151.257 217.771" fill="#4c4a4b"/>
    </g>
    <g>
      <path d="M131.193,213.843c-.043-.017-.14-.008-.123.04l.163.037Z" fill="#4c4a4b"/>
      <path d="M130.871,214.157a.491.491,0,0,0,.368.111c-.156-.069-.089-.079-.275-.15-.017-.048.057-.081.118-.07-.042-.019.04-.075-.063-.1-.131.06-.14.133-.039.222A.189.189,0,0,1,130.871,214.157Z" fill="#4c4a4b"/>
      <path d="M128.578,217.81h.034A.044.044,0,0,0,128.578,217.81Z" fill="#4c4a4b"/>
      <path d="M126.073,218.608a.036.036,0,0,0,.027-.037C126.082,218.583,126.068,218.594,126.073,218.608Z" fill="#4c4a4b"/>
      <path d="M125.628,218.435l.025.013C125.644,218.432,125.634,218.423,125.628,218.435Z" fill="#4c4a4b"/>
      <path d="M128.578,217.81h-.087C128.518,217.857,128.543,217.821,128.578,217.81Z" fill="#4c4a4b"/>
      <path d="M131.189,214.855a.114.114,0,0,0-.036-.052l.011.044Z" fill="#4c4a4b"/>
      <path d="M129.35,216.925l.014-.016-.039-.056Z" fill="#4c4a4b"/>
      <path d="M129.838,216.191c-.016.014.1.091.151.129-.044-.039-.06-.066-.06-.087A.677.677,0,0,0,129.838,216.191Z" fill="#4c4a4b"/>
      <path d="M130.587,214.954l-.013-.03Z" fill="#4c4a4b"/>
      <path d="M128.885,217.353a.22.22,0,0,0-.039-.032A.2.2,0,0,0,128.885,217.353Z" fill="#4c4a4b"/>
      <path d="M131.384,212.606l-.025,0C131.375,212.614,131.385,212.614,131.384,212.606Z" fill="#4c4a4b"/>
      <polygon points="130.824 213.843 130.816 213.828 130.737 213.825 130.824 213.843" fill="#4c4a4b"/>
      <path d="M124.875,218.174l0,0C124.9,218.164,124.89,218.165,124.875,218.174Z" fill="#4c4a4b"/>
      <path d="M121.337,212.885c-.144.055-.123-.166-.291-.073C121.1,212.814,121.231,212.968,121.337,212.885Z" fill="#4c4a4b"/>
      <path d="M131.167,214.878a.151.151,0,0,1,0,.042A.06.06,0,0,0,131.167,214.878Z" fill="#4c4a4b"/>
      <polygon points="121.046 212.812 121.044 212.812 121.028 212.822 121.046 212.812" fill="#4c4a4b"/>
      <path d="M123.222,217.565a.26.26,0,0,0-.02.062A.163.163,0,0,0,123.222,217.565Z" fill="#4c4a4b"/>
      <path d="M124.358,218.335l-.027-.03A.067.067,0,0,0,124.358,218.335Z" fill="#4c4a4b"/>
      <path d="M122.549,217.274c-.007-.02,0-.039-.029-.042l-.007.018C122.533,217.242,122.549,217.243,122.549,217.274Z" fill="#4c4a4b"/>
      <polygon points="122.042 216.72 122.028 216.748 122.048 216.763 122.042 216.72" fill="#4c4a4b"/>
      <path d="M130.1,210.162a.469.469,0,0,1-.069.113C130.1,210.2,130.216,210.277,130.1,210.162Z" fill="#4c4a4b"/>
      <path d="M131.112,214.841c.034.011.05.022.055.037l0-.031A.1.1,0,0,0,131.112,214.841Z" fill="#4c4a4b"/>
      <path d="M121.764,218.058l-.094-.114A.463.463,0,0,0,121.764,218.058Z" fill="#4c4a4b"/>
      <path d="M124.188,208.39l.028-.024A.027.027,0,0,0,124.188,208.39Z" fill="#4c4a4b"/>
      <path d="M121.36,217.636a.249.249,0,0,0,.018-.124.132.132,0,0,0-.039.01Z" fill="#4c4a4b"/>
      <path d="M130.031,210.276h0Z" fill="#4c4a4b"/>
      <path d="M130.851,210.871c-.071-.124-.19.036-.3.066-.129-.111.076-.137.127-.236-.1-.066-.279-.036-.32-.1.022-.022.022-.04.063-.048-.184,0-.2-.257-.419-.237a.124.124,0,0,1,.025-.041.987.987,0,0,1-.183.176c-.041-.042-.16,0-.083-.1.021.028.06,0,.1-.014l-.081-.011c.093-.155.1.023.2-.06-.127-.056-.326-.061-.351-.161.109-.133.188.121.214-.074l.05.151c.125-.261.047.08.192-.188-.1-.18-.209-.111-.317-.282-.1.038-.087.11-.185.149-.312-.055.125-.464-.177-.432-.114.052-.264.21-.307.036l.157-.123c-.143-.13-.251.157-.332-.064.071-.041.155.036.146,0-.015-.2-.136.034-.213-.023l.078-.153c-.192-.081-.437-.1-.646-.169.034-.04.093-.07.07-.139a1.978,1.978,0,0,1-.769-.457l-.145.1c-.022-.01-.024-.076.01-.1-.087-.08-.032.088-.1.13-.06,0-.054-.1,0-.133-.222.069-.57.126-.739-.048l.045-.037c-.146-.083-.21.272-.33.116l.03-.022c-.324-.091-.678.028-.939-.17-.032.212-.339-.076-.327.228-.2-.117-.156-.178-.442-.233-.076,0-.069.2-.146.253l-.037-.15-.078.187-.108-.162-.07.059a.124.124,0,0,1,.093.093c-.105.095-.332-.02-.361-.089l-.246.229c-.016-.06.025-.1.049-.149-.1.2-.087-.141-.178.046.032.025.024.089.033.119-.106-.063-.262.018-.36.106l-.025-.106a3.341,3.341,0,0,0-.63.411c.107-.007.186.16.135.212l-.116-.12c.015.109.1.011.085.164-.085.038-.156-.115-.141-.192l-.061.115c-.034-.035-.027-.073-.056-.128.021.111-.263-.008-.214.175l-.035-.034c-.216.152-.256.289-.41.433.093.1.011.138.046.259a1.387,1.387,0,0,0-.444.276c-.029.144.068.1.1.2-.105-.074-.206.081-.222-.052a1.2,1.2,0,0,0-.215.532c.06,0,.1-.013.124.025-.008.053-.1.067-.153.029l0-.019c0,.342-.68.467-.534.816l-.008-.018.041.292c-.061.1-.066-.1-.171-.043.1.327-.153.422-.079.679-.406.105-.094.628-.331.846l.089-.008c.084.068-.055.073-.077.119.069,0,.083-.065.129-.023.074.523-.108,1.1-.052,1.673.029.208.473-.008.332.291l-.176-.021c.3.326.28.792.618,1.066-.045,0-.09.022-.107-.014-.066.133.155.271.238.22.022.058-.069.058-.091.117-.014.111.236.1.165.2-.012.017-.047,0-.063,0,.08.012.141.216.221.092.037.158.214.19.227.33.168-.045.114.237.292.107-.173.144.04.321.187.3-.07.029.011.106-.081.151.083.071.184.106.247.006-.032.346.436.074.311.416l.884.251c-.117.2-.279-.128-.386.081.279.07.509-.058.716.108.049.058-.073.074-.11.1.278.023.477.212.739.165-.006.02-.037.035-.066.046.047,0,.1.059.119-.041l-.051.015c-.027-.16.259-.253.283-.329-.147.266.2.127-.005.458a.139.139,0,0,0,.09-.117c.039.03.045.073-.016.138.174-.013.138-.14.283-.112-.009.049-.042.063-.068.118.094-.083.181-.168.3-.108-.011.029,0,.07-.039.063.219.026.384-.223.607-.115-.075.213.077.075.088.262a1.1,1.1,0,0,0,.128-.056l-.051-.088c.111,0,.2-.143.3-.087l-.077.081.2-.046-.121-.064c.1-.1-.026-.235.117-.191-.026.02.105,0,.172.1h0c.046-.067.089-.137.173-.1.03.056.014.207.034.244.028-.163.248-.078.279-.258a.3.3,0,0,0,.017.157l.016-.134c.057.027.069.044.078.122.153-.015-.1-.218.1-.163-.011.013,0,.03-.023.056.189.006.313-.16.484-.163.108.16-.122.093-.019.224.226-.115.391-.38.611-.447h-.048c-.089-.252.214.045.261-.122-.015.032.037.148.03.119.158-.047.253-.225.4-.423l.015.074c.109-.006.218-.119.318-.155-.017-.072.035-.1-.054-.154.493.095.3-.529.707-.506-.021.025-.009.1.009.08l.112-.217c-.1-.062-.074-.023-.174-.046a.182.182,0,0,1,.008-.189c-.011.123.144.121.221.123-.032-.016-.053-.053-.083-.073.233.032-.17-.161.035-.2l.043.044c.012-.068-.019-.16.033-.2.126.055.013.088.1.156.05-.082-.1-.288.054-.286.011.053-.017.1-.012.154.186.015.154-.022.212-.066l-.006,0,.144-.1-.058.014c-.241-.282.08-.235-.059-.486.126.235.1.081.23.16.055-.017.124-.053.155-.018-.076-.123.143-.076.029-.25.046.016.04-.072.145-.008.008-.107-.089-.012-.141-.044-.089-.2.318-.268.181-.552-.037-.209-.191-.286-.228-.465.09-.037.161.087.161.087a.18.18,0,0,0,.06-.243c.04.026.078.015.135,0,0-.074-.167-.079-.082-.159a.817.817,0,0,1,.182.1c-.031-.093-.108-.19-.139-.28.088-.013.12.068.17.107-.023-.1-.035-.265-.173-.307l-.051.057c0-.036.117-.007.138.022.092.1-.065.115-.114.113l-.022-.064c-.293.025.01.244-.026.367l-.2-.087.151.155c-.059.015-.174.008-.195-.055-.116.061.055.088-.074.134a.028.028,0,0,1-.034-.011l.039.093c-.038-.026-.145-.022-.1-.063-.151.108.093.268-.073.277l-.009-.015c.008.213.143.062.262.266l-.392-.027.137.07a.062.062,0,0,1-.092.024c.071.111.067.011.144.089-.159.046-.047.289-.281.209.09.081.124-.051.15.081-.25-.083-.014.133-.162.164-.108-.087-.008-.131-.154-.1.18.155-.12.134-.123.215.155.094-.021.179-.036.322-.041-.036-.222.142-.344.194l-.022-.021c.13.127.035.211,0,.3a.262.262,0,0,1-.112-.18l-.053.061a.146.146,0,0,1,.017.146l-.089-.106c-.067.081-.026.276-.193.31.082.1.339.173.279.342-.052-.045-.138-.127-.128-.175,0,.016,0,.074-.036.071l-.035-.126c-.084.007.042.093,0,.122-.067-.073-.077-.025-.125-.088,0-.016.062,0,.05-.042a.246.246,0,0,1-.214-.01c.041.038.089.1.065.137-.077.081-.1-.064-.184-.06.026.072-.075.058.016.173-.026.019-.074-.031-.108-.055,0,.084-.2.171-.056.26h.018l0,.011h0c-.066.244-.378.144-.5.3l-.023-.043c-.069.107-.206.139-.233.272-.031.015-.109-.047-.121-.107-.061.069-.046.132-.194.1.047-.109-.056-.061.058-.088-.12,0-.169-.069-.231.1-.007-.132-.129-.122-.165-.069l.1.06a.3.3,0,0,1-.151.052l-.024-.168c-.254-.143-.3.44-.532.137-.036.123.133.063.109.2-.109-.006-.252-.226-.28-.222-.144-.073-.093.265-.246.216.023.058.059.214-.052.276-.11-.017-.144-.242-.083-.293.024-.006.037.012.037.032.032-.023.072-.05.027-.113l-.008.06c-.055-.058-.191-.044-.163-.143-.072.06-.029.1.029.126-.131-.082-.2.016-.332-.053.02.033.039.1.018.1-.194-.083-.09.108-.228.127-.071-.094.041-.214-.1-.145-.076-.064,0-.157.032-.2-.129.114-.208-.1-.267-.13l.065-.038a.128.128,0,0,1-.1.012l.016.123c-.032-.026-.062-.031-.053-.08-.05.071,0,.2-.1.293-.039-.068-.166.043-.15-.119.142.081.015-.156.146-.161a.074.074,0,0,1-.088-.016.041.041,0,0,1,.022-.038c-.107-.172-.1.158-.247.116.039-.081.007-.171-.02-.159.057.016-.009.151-.083.2-.077-.091-.118.023-.167,0l.048.046c-.045.081-.092.057-.167.057.016-.068.076-.023.061-.061-.125.12-.113-.214-.249-.151-.025-.073.056-.157.032-.209-.156.068-.067-.161-.215-.125-.019.124,0,.1-.129.167l.22.014-.19.1c.058.029.15-.007.178.023-.1.067-.08.038-.091.144-.007-.2-.2.017-.246-.137l.133-.264c-.071-.174-.3.016-.433-.152l.027.076c-.084.087-.112-.049-.192-.042a.336.336,0,0,0,.057-.194c-.039.062-.106-.089-.237.06l.008-.156c-.089-.135-.322.117-.416-.018.105-.05.1-.149.224-.14-.036-.034-.057-.078-.1-.027.02-.065-.194,0-.165-.1-.045.017-.122.086-.16.041a.108.108,0,0,1,.034-.035c-.035.037-.111-.018-.153.1.118-.336-.335-.318-.206-.605a1.62,1.62,0,0,1-.266-.238c.028-.01.041-.027.043,0,0-.17-.283.08-.282-.117.093-.153.118.029.143-.047.27-.187-.143-.139-.024-.328l.028.014c.064-.122-.194-.12-.232-.252a.127.127,0,0,0,.045-.019.563.563,0,0,1-.393-.272c.134,0,.084.034.2-.033-.037-.049-.189.087-.265-.014.053-.06.079-.158.211-.209.011.034.029.066.042.1.148-.1-.049-.129-.033-.194l.077-.014c-.064-.149-.256-.105-.288-.285l-.052.031c-.214-.06.092-.1-.067-.176l.19-.063a1.245,1.245,0,0,1-.275-.314,1.485,1.485,0,0,1,.346.246c-.008-.062-.047-.207-.149-.23.023.023.076.05.05.078a.314.314,0,0,1-.251-.293c.383,0,.074-.344.388-.428-.138-.227.088-.425.108-.668-.306.035,0-.075-.3-.118-.01-.066.005-.087.024-.088l.224-.136c.1-.019.051.071.119.082.054-.117.139-.019.237-.076-.109-.013-.14-.084-.082-.141l-.16.058c-.114-.224.29-.069.194-.285l.071.084c-.022-.1.11-.3-.065-.485.039,0,.124.016.126.061.115-.176,0-.56.222-.63l.054.055c0-.046-.082-.141.013-.139.024.019.051.055.066.042-.008-.031-.041-.163.028-.181l.039.087c.2-.111.036-.389.131-.564a.361.361,0,0,0,.411.042l.02.024c.2-.142.181-.417.329-.625.249.1.465-.193.733-.178-.049-.021-.073-.155-.045-.193.068.016.074-.205.15-.018l-.019,0c.121.163.192.062.277.043l-.085-.25c.339.271.543-.326.755-.021.038-.081.106-.09.149-.162l.022.139a.9.9,0,0,0,.408-.035l-.028.1c.1,0,.1-.413.2-.426l.04.209c.19-.022.364.188.559,0-.006.031-.016.092-.047.1.089,0,.309.181.32-.112-.025.188.185.044.306-.017l-.044.132c.119-.152.134-.2.266-.216.025.025,0,.115-.031.071.075.094.108-.109.2-.008l-.068.075c.093.036.1-.016.184-.095.078-.03.172.1.141.224.038-.068.127-.145.171-.09a.112.112,0,0,1-.057.076c.121.139.294-.046.343.125a.169.169,0,0,0-.019.083.718.718,0,0,1-.2-.118c-.05.118.032.183-.112.31.108-.054.33-.181.4-.083a.178.178,0,0,1-.008.045l-.017.009c.015.021.04.019.068.009a.174.174,0,0,0,.052.077c-.042.1.071.111.112.142.07-.122.117-.067.123-.2,0,.013-.018.009-.051,0a.057.057,0,0,0-.026,0l.009-.008-.117-.061c.07-.04.14-.068.15.029.07-.063.146-.126.184-.153-.036.205.022.366-.035.48.169.034.331.17.575.047.057.007-.01.094-.025.137-.037,0-.058-.023-.093,0,.112.012.219.164.364.047.029.141-.165.074-.029.166l-.055.024c-.012.416.71.081.622.608a.1.1,0,0,1,.028-.07c.081.417.585.657.47,1.142-.011.123.1.095.214.134l-.136.069.2.065c.161.143-.273.367-.013.526l.1-.046c-.007.08.1.236-.021.239.02,0,.109.012.061.048l-.078.012a1.794,1.794,0,0,1,.153.177c-.05.151-.314,0-.319.208.034.073.241.216.293.188a.121.121,0,0,1,.124-.088l.045.076c.233.01.475.081.627-.131l-.149-.139.11-.053.014.122c.1-.074.006-.115-.061-.16a.2.2,0,0,0,.121-.07l-.229-.122c.088-.027.187.046.225-.056-.113-.054-.194.085-.277-.015.095-.08.183-.072.081-.14a.117.117,0,0,1,.129.021c-.082-.063-.059-.188-.187-.2.121-.095-.074-.231.139-.27a.422.422,0,0,1-.225-.147c.286.052-.047-.245.232-.293-.246-.022-.211-.284-.387-.39.021,0,.062,0,.056.022-.013-.092.044-.144.065-.217-.186.065-.287-.043-.428-.057.123-.179.236-.038.387-.145-.142.071-.228-.108-.33-.014.068-.128.02-.091.144-.205-.224.1-.069-.054-.239-.041.042-.163.183-.141.048-.219C130.712,210.81,130.851,210.871,130.851,210.871Zm-2.58-1.893v0l.061.021Zm-.236-.111a.576.576,0,0,0,.1.054c-.013.048-.044.088-.066.075C128.1,208.973,128.053,208.921,128.035,208.867Zm0,1.095c-.039,0-.035-.031-.025-.058a.267.267,0,0,0,.06.016l.012-.012A.379.379,0,0,1,128.03,209.962Z" fill="#4c4a4b"/>
      <path d="M128.177,209.835c.006,0,.012,0,.018,0l0-.038-.033.032Z" fill="#4c4a4b"/>
      <path d="M128.618,217.808h-.006a.047.047,0,0,1,.02.01Z" fill="#4c4a4b"/>
      <polygon points="124.464 208.248 124.472 208.282 124.488 208.246 124.464 208.248" fill="#4c4a4b"/>
      <path d="M129.924,217.239a.063.063,0,0,0,.039.008A.088.088,0,0,0,129.924,217.239Z" fill="#4c4a4b"/>
      <path d="M130.305,216.763l.088-.048A.305.305,0,0,0,130.305,216.763Z" fill="#4c4a4b"/>
      <path d="M130.6,216.39l-.049-.037h0Z" fill="#4c4a4b"/>
      <path d="M124.111,219.242a.045.045,0,0,0-.02,0C124.04,219.256,124.072,219.255,124.111,219.242Z" fill="#4c4a4b"/>
      <path d="M126.37,219.12a.412.412,0,0,1-.063.077C126.347,219.2,126.378,219.2,126.37,219.12Z" fill="#4c4a4b"/>
      <polygon points="121.774 218.071 121.776 218.07 121.764 218.058 121.774 218.071" fill="#4c4a4b"/>
      <path d="M126.2,219.2a.083.083,0,0,0,.1,0A.12.12,0,0,0,126.2,219.2Z" fill="#4c4a4b"/>
      <path d="M131.267,214.432l.009-.022-.023,0Z" fill="#4c4a4b"/>
      <path d="M131.253,214.405l-.015-.028C131.238,214.389,131.238,214.4,131.253,214.405Z" fill="#4c4a4b"/>
      <path d="M131.206,214.321l.032.056A.043.043,0,0,0,131.206,214.321Z" fill="#4c4a4b"/>
      <path d="M131.1,215.047l.048.018A.187.187,0,0,0,131.1,215.047Z" fill="#4c4a4b"/>
      <path d="M131.064,215.236c.022-.041.134-.086.119-.156l-.038-.015C131.211,215.112,130.991,215.174,131.064,215.236Z" fill="#4c4a4b"/>
      <path d="M130.23,215.749l.088-.118c-.059,0-.138.006-.128-.058C129.979,215.677,130.316,215.584,130.23,215.749Z" fill="#4c4a4b"/>
      <path d="M129.969,216.11c.01-.08-.07-.037-.095-.055C129.9,216.12,129.9,216.136,129.969,216.11Z" fill="#4c4a4b"/>
      <path d="M127.705,218.208l-.045-.12C127.616,218.129,127.679,218.133,127.705,218.208Z" fill="#4c4a4b"/>
      <path d="M127.336,219.052l.086.058-.007-.122A.922.922,0,0,1,127.336,219.052Z" fill="#4c4a4b"/>
      <polygon points="126.747 218.264 126.766 218.24 126.687 218.309 126.747 218.264" fill="#4c4a4b"/>
      <path d="M122.218,216.748l-.111.114C122.156,216.872,122.3,216.764,122.218,216.748Z" fill="#4c4a4b"/>
      <path d="M121.123,214.837c.069-.04.11-.111.028-.135C121.148,214.754,121.1,214.816,121.123,214.837Z" fill="#4c4a4b"/>
      <polygon points="124.206 209.642 124.185 209.706 124.245 209.637 124.206 209.642" fill="#4c4a4b"/>
    </g>
  </g>
  <g>
    <path d="M295.458,139.4l-1.34.6v4.368a1.111,1.111,0,0,1-1.121.882l-1.08.041-.431-1.073c.557.045.891.068,1,.068q.561,0,.561-.2v-3.527l-1.258.56-.718-.8q.759-.294,1.976-.882v-2.9H291.37v-1.019h1.682v-2.618h1.066v2.618h1.34v1.019h-1.34v2.324l1.34-.56Zm8.483,4.847-.67.991a10.037,10.037,0,0,1-3.992-1.333,12.278,12.278,0,0,1-4.129,1.545l-.7-.984a11.231,11.231,0,0,0,3.89-1.258,6.369,6.369,0,0,1-1.75-2.338H295.5v-1.018h3.151V139h-2.994v-4.956a5.3,5.3,0,0,0,2.379-1.025l.615.642v-.95h1.108v5.264h2v-1.217h-1.614v-1.026h1.614v-1.045h-1.853v-1.026h2.912V139h-3.062v.855H302.5v.847a10.259,10.259,0,0,1-2.263,2.523A10.261,10.261,0,0,0,303.941,144.247Zm-5.291-6.275v-4.129a5.671,5.671,0,0,1-1.934,1.018v.957H298.3v1.019h-1.586v1.135Zm2.468,2.9h-3.349a5.875,5.875,0,0,0,1.538,1.723A7.756,7.756,0,0,0,301.118,140.87Z"/>
    <path d="M311.379,140.467l-5.585.362-.308-.964,2.543-.13v-.991H306.2v-.971h4.772v.971H309.1v.909l2.283-.116Zm6.145,1.832h-2.5v1.887a.973.973,0,0,1-.392.918,2.643,2.643,0,0,1-1.276.23c-.173,0-.392-.01-.656-.027l-.629-1.046,1.484.027q.41,0,.41-.465V142.3h-8.4v-1.026h8.4v-.526h1.059v.526h2.5Zm-1.791-5.066h-8.469v-1.025h7.4v-.615h-6.945v-.964h6.945v-.6h-7.431V133h8.5Zm-4.409,6.426-.69.9a6.664,6.664,0,0,0-3.288-1.32l.7-.854A7.191,7.191,0,0,1,311.324,143.659Zm5.4-3.124h-5.038v-2.8h5.038Zm-1.067-.964V138.7h-2.912v.868Z"/>
    <path d="M330.7,133.716v1.712l-2.752,2.608a5.837,5.837,0,0,1,1.207.273,2.82,2.82,0,0,1,.945.535,2.415,2.415,0,0,1,.616.864,3.2,3.2,0,0,1,.223,1.256,3.894,3.894,0,0,1-.3,1.616,3.041,3.041,0,0,1-.856,1.12,3.51,3.51,0,0,1-1.345.656,6.946,6.946,0,0,1-1.768.208,12.7,12.7,0,0,1-1.848-.12,9.9,9.9,0,0,1-1.479-.328l.223-1.92q.674.175,1.385.3a8.191,8.191,0,0,0,1.463.128,2.2,2.2,0,0,0,1.256-.328,1.349,1.349,0,0,0,.488-1.208,1.205,1.205,0,0,0-.463-1.08,2.352,2.352,0,0,0-1.312-.312h-1.328v-1.584l2.5-2.512h-3.84v-1.888Z"/>
    <path d="M337.471,133.716a6.612,6.612,0,0,1,2.088.3,3.908,3.908,0,0,1,1.551.927,4.065,4.065,0,0,1,.968,1.6,7.126,7.126,0,0,1,.336,2.32,10.255,10.255,0,0,1-.232,2.24,4.408,4.408,0,0,1-.84,1.808,4.021,4.021,0,0,1-1.688,1.208,7.441,7.441,0,0,1-2.775.44,15.24,15.24,0,0,1-1.649-.1q-.879-.1-1.919-.3V133.716Zm-1.408,8.848c.169.022.328.038.471.048s.29.016.441.016a3.018,3.018,0,0,0,1.287-.239,1.886,1.886,0,0,0,.8-.713,3.116,3.116,0,0,0,.408-1.159,10.175,10.175,0,0,0,.111-1.6,7.543,7.543,0,0,0-.136-1.56,2.835,2.835,0,0,0-.408-1.024,1.547,1.547,0,0,0-.663-.56,2.281,2.281,0,0,0-.9-.168h-1.408Z"/>
    <path d="M347.63,144.356a3.741,3.741,0,0,1-2.256-.6,2.232,2.232,0,0,1-.815-1.928v-8.112h6.382v1.264h-4.7v3.3h4.241v1.264h-4.241v2.3a1.107,1.107,0,0,0,.392.976,1.831,1.831,0,0,0,1.063.272h3.457v1.264Z"/>
    <path d="M352.206,144.356l3.681-5.392-3.473-5.248h1.936l2.576,3.952,2.688-3.952h1.792l-3.6,5.2,3.647,5.44h-1.968l-2.72-4.16-2.784,4.16Z"/>
    <path d="M363.23,144.356v-10.64h3.44a8.254,8.254,0,0,1,1.768.168,3.144,3.144,0,0,1,1.272.568,2.457,2.457,0,0,1,.769,1.04,4.372,4.372,0,0,1,.255,1.6,4.243,4.243,0,0,1-.272,1.608,2.561,2.561,0,0,1-.792,1.072,3.3,3.3,0,0,1-1.248.592,6.681,6.681,0,0,1-1.64.184,11.167,11.167,0,0,1-1.872-.176v3.984Zm1.68-5.248a9.636,9.636,0,0,0,1.695.161,2.632,2.632,0,0,0,1.889-.544,2.224,2.224,0,0,0,.544-1.633,3.278,3.278,0,0,0-.136-1.016,1.4,1.4,0,0,0-.423-.648,1.764,1.764,0,0,0-.737-.344,4.822,4.822,0,0,0-1.072-.1h-1.76Z"/>
    <path d="M376.238,144.356a3.737,3.737,0,0,1-2.256-.6,2.232,2.232,0,0,1-.816-1.928v-8.112h6.384v1.264h-4.7v3.3h4.24v1.264h-4.24v2.3a1.107,1.107,0,0,0,.392.976,1.833,1.833,0,0,0,1.064.272h3.456v1.264Z"/>
    <path d="M382.35,144.356v-10.64h3.44a8.725,8.725,0,0,1,1.769.16,3.2,3.2,0,0,1,1.271.544,2.325,2.325,0,0,1,.768,1.017,4.2,4.2,0,0,1,.256,1.575,3.461,3.461,0,0,1-.16,1.112,2.611,2.611,0,0,1-.432.809,2.434,2.434,0,0,1-.648.559,3.9,3.9,0,0,1-.824.368,1.922,1.922,0,0,1,.912.672,4.977,4.977,0,0,1,.592,1.2l.944,2.624h-1.744l-.832-2.255a6.294,6.294,0,0,0-.3-.7,2.255,2.255,0,0,0-.382-.544,1.572,1.572,0,0,0-.545-.36,2.071,2.071,0,0,0-.768-.128c-.256,0-.519-.008-.792-.023a6.882,6.882,0,0,1-.84-.1v4.112Zm1.68-5.376c.31.054.605.091.888.112s.553.032.809.032a2.734,2.734,0,0,0,1.887-.512,2.1,2.1,0,0,0,.544-1.6,3.06,3.06,0,0,0-.137-1,1.327,1.327,0,0,0-.423-.623,1.657,1.657,0,0,0-.736-.321,5.7,5.7,0,0,0-1.072-.088h-1.76Z"/>
    <path d="M392.605,144.356v-10.64h1.681v10.64Z"/>
    <path d="M400.525,144.356a3.736,3.736,0,0,1-2.255-.6,2.233,2.233,0,0,1-.817-1.928v-8.112h6.385v1.264h-4.7v3.3h4.239v1.264h-4.239v2.3a1.106,1.106,0,0,0,.391.976,1.838,1.838,0,0,0,1.065.272h3.455v1.264Z"/>
    <path d="M406.637,144.356v-10.64h1.344l5.808,6.224v-6.224h1.633v10.64h-1.633v-2.4l-5.535-5.855v8.255Z"/>
    <path d="M425.518,144.2a8.887,8.887,0,0,1-1.377.256,12.868,12.868,0,0,1-1.408.08,6.715,6.715,0,0,1-1.983-.272,3.444,3.444,0,0,1-1.5-.911,4.133,4.133,0,0,1-.937-1.7,10.952,10.952,0,0,1,0-5.248,4.064,4.064,0,0,1,.937-1.688,3.415,3.415,0,0,1,1.512-.9,7.221,7.221,0,0,1,2.031-.263,12.387,12.387,0,0,1,1.392.079c.469.053.9.118,1.28.192l-.192,1.28a11.866,11.866,0,0,0-1.256-.208,11.524,11.524,0,0,0-1.3-.08,3.8,3.8,0,0,0-1.3.2,1.983,1.983,0,0,0-.921.679,3.321,3.321,0,0,0-.552,1.288,9.314,9.314,0,0,0-.183,2.024,9.456,9.456,0,0,0,.191,2.089,3.319,3.319,0,0,0,.569,1.3,1.97,1.97,0,0,0,.943.672,4.12,4.12,0,0,0,1.32.193,8.921,8.921,0,0,0,1.305-.105q.694-.1,1.3-.231Z"/>
    <path d="M430.893,144.356a3.745,3.745,0,0,1-2.256-.6,2.235,2.235,0,0,1-.816-1.928v-8.112h6.384v1.264h-4.7v3.3h4.239v1.264H429.5v2.3a1.106,1.106,0,0,0,.391.976,1.835,1.835,0,0,0,1.064.272h3.456v1.264Z"/>
    <path d="M440.689,144.356v-9.31h3.01a7.224,7.224,0,0,1,1.547.147,2.744,2.744,0,0,1,1.113.5,2.134,2.134,0,0,1,.672.911,3.793,3.793,0,0,1,.224,1.4,3.723,3.723,0,0,1-.237,1.407,2.26,2.26,0,0,1-.694.938,2.89,2.89,0,0,1-1.092.518,5.837,5.837,0,0,1-1.435.161,9.7,9.7,0,0,1-1.638-.154v3.486Zm1.47-4.591a8.58,8.58,0,0,0,1.484.139,2.293,2.293,0,0,0,1.652-.476,1.94,1.94,0,0,0,.476-1.428,2.863,2.863,0,0,0-.119-.889,1.23,1.23,0,0,0-.371-.567,1.535,1.535,0,0,0-.644-.3,4.244,4.244,0,0,0-.938-.091h-1.54Z"/>
    <path d="M449.257,144.356v-10.22h1.414v10.22Z"/>
    <path d="M458.1,144.021c-.354.1-.782.207-1.28.314a7.655,7.655,0,0,1-1.6.161,5,5,0,0,1-1.092-.112,2.421,2.421,0,0,1-.875-.37,1.8,1.8,0,0,1-.582-.68,2.349,2.349,0,0,1-.209-1.05,1.9,1.9,0,0,1,.23-.979,1.843,1.843,0,0,1,.61-.631,2.561,2.561,0,0,1,.882-.336,5.515,5.515,0,0,1,1.049-.1q.449,0,.805.035t.651.091v-.658a.97.97,0,0,0-.455-.944,2.375,2.375,0,0,0-1.14-.245,5.845,5.845,0,0,0-.98.084q-.505.082-.9.168l-.1-1.065q.447-.1.986-.168a8.155,8.155,0,0,1,1.057-.07,5.874,5.874,0,0,1,1.127.105,2.643,2.643,0,0,1,.938.365,1.93,1.93,0,0,1,.638.678,2.113,2.113,0,0,1,.237,1.05Zm-1.414-2.632c-.2-.038-.411-.069-.643-.092s-.472-.035-.715-.035a3.685,3.685,0,0,0-.58.043,1.317,1.317,0,0,0-.477.16.875.875,0,0,0-.322.336,1.181,1.181,0,0,0-.119.567.946.946,0,0,0,.414.889,1.915,1.915,0,0,0,1,.245,5.345,5.345,0,0,0,.791-.056q.372-.056.651-.126Z"/>
    <path d="M462,142.676a.65.65,0,0,0,.225.567.979.979,0,0,0,.588.161,3.778,3.778,0,0,0,.671-.063,5.555,5.555,0,0,0,.588-.133l.043,1.064a3.888,3.888,0,0,1-.7.168,5.147,5.147,0,0,1-.769.056,2.4,2.4,0,0,1-1.485-.433,1.677,1.677,0,0,1-.573-1.429v-3.976h-1.106v-1.05h1.106l.321-1.946H462v1.946h1.961v1.05H462Z"/>
    <path d="M465.959,144.356v-5.7h-1.093v-1.05h1.093v-1.232a2.169,2.169,0,0,1,.734-1.813,3.089,3.089,0,0,1,1.967-.581c.215,0,.44.009.672.028a5.67,5.67,0,0,1,.631.084l-.154,1.051-.5-.057a4.862,4.862,0,0,0-.518-.027,2.339,2.339,0,0,0-.554.062,1.181,1.181,0,0,0-.448.21,1.036,1.036,0,0,0-.3.4,1.608,1.608,0,0,0-.111.644v1.232h2.184v1.05h-2.184v5.7Z"/>
    <path d="M473.351,144.5a3.2,3.2,0,0,1-2.367-.826,4.787,4.787,0,0,1,0-5.376,3.813,3.813,0,0,1,4.74,0,4.753,4.753,0,0,1,0,5.376A3.227,3.227,0,0,1,473.351,144.5Zm-1.275-1.582a1.2,1.2,0,0,0,.547.393,2.265,2.265,0,0,0,.741.111,2.213,2.213,0,0,0,.736-.111,1.209,1.209,0,0,0,.539-.393,1.905,1.905,0,0,0,.336-.749,6.36,6.36,0,0,0,0-2.366,1.912,1.912,0,0,0-.336-.749,1.2,1.2,0,0,0-.539-.392,2.212,2.212,0,0,0-.736-.112,2.264,2.264,0,0,0-.741.112,1.2,1.2,0,0,0-.547.392,1.9,1.9,0,0,0-.336.749,6.36,6.36,0,0,0,0,2.366A1.891,1.891,0,0,0,472.076,142.914Z"/>
    <path d="M478.432,144.356v-6.37a11,11,0,0,1,1.744-.384,14.2,14.2,0,0,1,1.925-.12V138.6c-.1-.01-.21-.015-.323-.015h-.336a6.457,6.457,0,0,0-.868.057,5.815,5.815,0,0,0-.728.139v5.572Z"/>
    <path d="M483.557,144.356v-6.37q.544-.168,1.315-.342a7.032,7.032,0,0,1,1.582-.176,4.354,4.354,0,0,1,1.134.14,2.364,2.364,0,0,1,.9.449,6.192,6.192,0,0,1,1.176-.421,5.2,5.2,0,0,1,1.288-.168,4.365,4.365,0,0,1,1.043.119,2.145,2.145,0,0,1,.833.4,1.917,1.917,0,0,1,.553.736,2.763,2.763,0,0,1,.2,1.127v4.507h-1.414V139.9a1.705,1.705,0,0,0-.111-.665,1.09,1.09,0,0,0-.3-.413,1.133,1.133,0,0,0-.455-.217,2.436,2.436,0,0,0-.561-.063,2.935,2.935,0,0,0-.888.126,7.339,7.339,0,0,0-.721.266,2.661,2.661,0,0,1,.139.911v4.507h-1.414V139.9a1.7,1.7,0,0,0-.112-.665,1.06,1.06,0,0,0-.3-.413,1.122,1.122,0,0,0-.448-.217,2.4,2.4,0,0,0-.567-.063,4.778,4.778,0,0,0-.756.063,6.672,6.672,0,0,0-.7.147v5.6Z"/>
    <path d="M302.738,160.445a1.49,1.49,0,0,1-.294,1.035,1.584,1.584,0,0,1-1.162.319h-1.23l-.363-1.121a11.907,11.907,0,0,0,1.5.061.487.487,0,0,0,.321-.127.422.422,0,0,0,.15-.338v-6.569h-3.274a8.356,8.356,0,0,0,3.179,5.182l-.739.9a9.575,9.575,0,0,1-3.083-4.252,8.619,8.619,0,0,1-3.643,4.225l-.657-.9a8.1,8.1,0,0,0,3.767-5.154h-3.849v8.415h-1.121v-9.447h4.929a12.11,12.11,0,0,1-.041-1.484h-2.55V150.15h3.644l-.034,1.231a8.277,8.277,0,0,0,.075,1.292h4.477Z"/>
    <path d="M317.805,157.574l-.629.9a15.456,15.456,0,0,1-2.133-.9v4.491h-1.06v-.738h-5.045v.779h-1.059v-4.463q-.671.381-1.976.95l-.786-.9q4.527-1.627,6.344-4.621l.882.6-.294.424A12.537,12.537,0,0,0,317.805,157.574Zm-7.7-4.689a9.426,9.426,0,0,1-3.288,2.727l-.855-.758a8.458,8.458,0,0,0,3.377-2.632l.752.663Zm6.849.526h-1.066v-1.579h-8.805v1.682H306v-2.7h4.9V149.48h1.094v1.333h4.956Zm-2.536,3.842a9.313,9.313,0,0,1-2.926-2.413,9.989,9.989,0,0,1-2.994,2.413Zm-.444,1.005h-5.045V160.3h5.045Zm2.755-3.459-.725.813a10.047,10.047,0,0,0-3.418-2.6l.725-.773A10.073,10.073,0,0,1,316.725,154.8Z"/>
    <path d="M331.634,161.341H319.411v-1.026h4.273v-6.959H319.89v-1.018h3.917a6.4,6.4,0,0,0-2.338-2.147l.813-.656a6.256,6.256,0,0,1,2.482,2.256l-.691.52v.027h2.762l-.7-.629a5.893,5.893,0,0,0,2.242-2.311l.814.6a5.961,5.961,0,0,1-2.058,2.311v.027h4.1v1.018h-3.78v6.959h4.184Zm-8.231-2.707-.991.547a9.5,9.5,0,0,0-2.078-4.368l.841-.575A11.331,11.331,0,0,1,323.4,158.634Zm2.94,1.681v-6.959h-1.552v6.959Zm4.341-5.544a13.358,13.358,0,0,1-2.2,4.437l-.881-.615a10.051,10.051,0,0,0,2.132-4.341Z"/>
    <path d="M346.249,160.972l-.643,1.011a14,14,0,0,1-2.942-.6,9.408,9.408,0,0,1-2.492-1.1,10.2,10.2,0,0,1-2.912,1.859l-.821-.936a7.271,7.271,0,0,0,2.81-1.565,14.955,14.955,0,0,1-1.777-1.962l.909-.575a8.292,8.292,0,0,0,1.572,1.7,4.093,4.093,0,0,0,.574-1.873h-3.178v-3.911h3.233V152.1h-4.019l-.417,1.032v9.051h-1.094v-7.089a16,16,0,0,1-1.108,1.6l-.786-.7a17.474,17.474,0,0,0,3.138-6.494l.984.362-.369,1.176h3.671v-1.579h1.107v1.579h3.781V152.1h-3.781v.922h3.261v3.911h-3.308a6.148,6.148,0,0,1-.78,2.515A13.671,13.671,0,0,0,346.249,160.972Zm-5.667-5.107v-1.777h-2.16v1.777Zm3.233,0v-1.818h-2.126v1.818Z"/>
    <path d="M358.431,160.808a1.23,1.23,0,0,1-.287.827.912.912,0,0,1-.718.335H355.97l-.342-1.094,1.162.034c.356,0,.533-.1.533-.314V157.39h-3.049v3.739h-1.066V157.39h-3.076a7.855,7.855,0,0,1-2.044,4.792l-.9-.677a8.6,8.6,0,0,0,1.466-2.4,7.66,7.66,0,0,0,.454-2.751v-6.234h9.325Zm-5.223-7.616v-2.044h-3.035v2.044Zm0,3.179v-2.16h-3.035v2.16Zm4.115-3.179v-2.044h-3.049v2.044Zm0,3.179v-2.16h-3.049v2.16Z"/>
    <path d="M366.183,155.988a2.7,2.7,0,0,1,2.413-1.326,2.776,2.776,0,0,1,2.092.909,3.244,3.244,0,0,1,.861,2.325,3.6,3.6,0,0,1-.858,2.429,2.852,2.852,0,0,1-2.28,1,3.27,3.27,0,0,1-2.458-1.066q-1.014-1.066-1.015-3.794a7.2,7.2,0,0,1,.919-4.03,3.025,3.025,0,0,1,2.664-1.35,2.938,2.938,0,0,1,1.907.629,2.773,2.773,0,0,1,.95,1.866l-1.231.109q-.334-1.593-1.695-1.592a1.963,1.963,0,0,0-1.62.936,5.1,5.1,0,0,0-.677,2.953Zm2.2,4.327a1.657,1.657,0,0,0,1.374-.683,2.632,2.632,0,0,0,.526-1.654,2.434,2.434,0,0,0-.526-1.607,1.743,1.743,0,0,0-1.415-.636,1.9,1.9,0,0,0-1.4.6,2.151,2.151,0,0,0-.587,1.576,2.592,2.592,0,0,0,.578,1.7A1.8,1.8,0,0,0,368.384,160.315Z"/>
    <path d="M385.2,151.135l-2.762,10.021h-1.271l-2.188-7.9a8.505,8.505,0,0,1-.218-.923h-.028l-.28,1.189-2.133,7.629h-1.34l-2.672-10.021h1.353l1.545,6.576q.308,1.291.39,1.9c.009.082.013.13.013.144h.028c.181-.866.326-1.486.43-1.859l1.908-6.761h1.613l1.422,5.065a27.466,27.466,0,0,1,.772,3.555h.028q.142-.815.478-2.181l1.579-6.439Z"/>
    <path d="M393.6,152.324h-3.316v8.832h-1.333v-8.832h-3.288v-1.189H393.6Z"/>
    <path d="M401.128,161.156h-1.292a2.748,2.748,0,0,1-.253-.9,4.02,4.02,0,0,1-2.673,1.066,2.673,2.673,0,0,1-1.811-.574,1.907,1.907,0,0,1-.663-1.518,1.927,1.927,0,0,1,.638-1.487,4.035,4.035,0,0,1,2.219-.775l1.148-.171a6.141,6.141,0,0,0,1.06-.253,6.069,6.069,0,0,0-.034-.783,1.179,1.179,0,0,0-.2-.475,1.149,1.149,0,0,0-.537-.4,2.672,2.672,0,0,0-.992-.151,2.324,2.324,0,0,0-1.255.294,1.629,1.629,0,0,0-.631,1.094l-1.2-.157a2.44,2.44,0,0,1,1.019-1.675,3.95,3.95,0,0,1,2.256-.561,3.7,3.7,0,0,1,1.918.386,1.59,1.59,0,0,1,.752.934,5.851,5.851,0,0,1,.139,1.408v1.654q0,1.51.058,2.026A2.618,2.618,0,0,0,401.128,161.156Zm-1.627-3.192v-.444a13.2,13.2,0,0,1-2.358.508q-1.395.189-1.395,1.18a1.039,1.039,0,0,0,.376.823,1.6,1.6,0,0,0,1.08.325,2.525,2.525,0,0,0,1.6-.543A2.214,2.214,0,0,0,399.5,157.964Z"/>
    <path d="M408.565,160.179a6.518,6.518,0,0,1-.307,2.306,2.312,2.312,0,0,1-1.094,1.187,3.91,3.91,0,0,1-1.88.424,3.625,3.625,0,0,1-2.051-.547,2,2,0,0,1-.82-1.791l1.2.184a1.154,1.154,0,0,0,.483.862,2.053,2.053,0,0,0,1.179.287,2.093,2.093,0,0,0,1.4-.39,1.6,1.6,0,0,0,.543-.95,9.367,9.367,0,0,0,.1-1.545,2.525,2.525,0,0,1-2.016.95,2.791,2.791,0,0,1-2.273-1.046,4.022,4.022,0,0,1-.858-2.638,4.2,4.2,0,0,1,.834-2.666,2.77,2.77,0,0,1,2.311-1.067,2.534,2.534,0,0,1,2.091,1.032h.028V153.9h1.134Zm-3.151-.028a1.9,1.9,0,0,0,1.4-.626,2.944,2.944,0,0,0,.608-2.094,3.025,3.025,0,0,0-.581-1.993,1.8,1.8,0,0,0-1.436-.694,1.718,1.718,0,0,0-1.425.711,3.894,3.894,0,0,0,.027,4.036A1.8,1.8,0,0,0,405.414,160.151Z"/>
    <path d="M414.458,155.934a1.277,1.277,0,0,0-.481-.893,1.834,1.834,0,0,0-1.112-.3,2.348,2.348,0,0,0-1.138.239.758.758,0,0,0-.434.7.641.641,0,0,0,.346.615,7.283,7.283,0,0,0,1.363.451,15.057,15.057,0,0,1,1.719.52,2.048,2.048,0,0,1,.888.631,1.793,1.793,0,0,1,.319,1.132,2.05,2.05,0,0,1-.793,1.634,3.205,3.205,0,0,1-2.119.663,3.515,3.515,0,0,1-2.157-.585,2.564,2.564,0,0,1-.954-1.753l1.224-.184a1.649,1.649,0,0,0,.564,1.134,2.042,2.042,0,0,0,1.309.376,1.97,1.97,0,0,0,1.237-.338,1.017,1.017,0,0,0,.431-.824.712.712,0,0,0-.2-.526,1.251,1.251,0,0,0-.5-.3c-.2-.065-.645-.183-1.337-.351a4.286,4.286,0,0,1-2.04-.9,1.771,1.771,0,0,1-.5-1.258,1.847,1.847,0,0,1,.724-1.5,3,3,0,0,1,1.948-.588,3.468,3.468,0,0,1,2.021.509,2.135,2.135,0,0,1,.864,1.522Z"/>
    <path d="M433.749,160.192l-.772.855A11.594,11.594,0,0,1,430.5,159.6a15.93,15.93,0,0,1-2.488-2.612v5.066H426.9v-4.9a12.439,12.439,0,0,1-5,3.993l-.656-.951a11.428,11.428,0,0,0,3.938-2.645,7.949,7.949,0,0,0,1.7-2.03v-3.309h-5.107v-1.019h5.12v-1.722h1.108v1.722h5.113v1.019h-5.113v3.151A12.266,12.266,0,0,0,433.749,160.192Zm-7.2-4.381-.78.752a6.175,6.175,0,0,0-1.319-1.47,5.587,5.587,0,0,1-1.613,2.3l-.909-.657a5.316,5.316,0,0,0,1.934-4.327l.991.281a6.6,6.6,0,0,1-.15,1.415A6.753,6.753,0,0,1,426.551,155.811Zm6.569.56-.868.656a5.458,5.458,0,0,0-1.429-1.791,6.322,6.322,0,0,1-1.107,1.648,10.394,10.394,0,0,1-.923-.547,5.752,5.752,0,0,0,1.47-3.972l.977.212a8.792,8.792,0,0,1-.164,1.634A5.823,5.823,0,0,1,433.12,156.371Z"/>
    <path d="M436.969,159.646a5.036,5.036,0,0,1-1.149,2.433,7.177,7.177,0,0,1-.854-.472,5.1,5.1,0,0,0,1.135-2.269A5.563,5.563,0,0,1,436.969,159.646Zm5.3-.52-.854.144a1.047,1.047,0,0,0-.082-.4h-2.311l-.171-.8a2.63,2.63,0,0,1,.4,0q.375-.479.766-1.046a4.669,4.669,0,0,0-.707-.591c-.386-.285-.6-.448-.633-.489a2.619,2.619,0,0,0,.3-.383,4.166,4.166,0,0,1,.256-.341.822.822,0,0,1,.144.1.736.736,0,0,0,.109.089,3.336,3.336,0,0,0,.711-1.381h-2.967l.493.321a5.721,5.721,0,0,1-.971,1.525c.186.191.294.3.321.321a9.113,9.113,0,0,0,.957-1.415l.807.479a14.462,14.462,0,0,1-2.044,2.809h.984l-.157-.806a1.677,1.677,0,0,1,.417-.13,3.374,3.374,0,0,0,.383-.1,8.526,8.526,0,0,1,.43,2.112l-.834.144-.088-.41h-2.66l-.252-.814a3.647,3.647,0,0,1,.533,0,6,6,0,0,0,.95-1.087,6.439,6.439,0,0,0-.738-.667c-.407-.335-.625-.518-.657-.549a2.88,2.88,0,0,0,.287-.36c.141-.193.221-.3.24-.317l.342.212a4.509,4.509,0,0,0,.793-1.272h-.855v-3.855h5.8v3.855h-1.06l.486.308a6.4,6.4,0,0,1-.91,1.62,1.564,1.564,0,0,0,.363.253,5.7,5.7,0,0,0,.854-1.443l.814.479a19.357,19.357,0,0,1-1.832,2.823h.752q-.027-.077-.123-.738a2.81,2.81,0,0,1,.461-.147,4.293,4.293,0,0,0,.42-.12A11.593,11.593,0,0,1,442.273,159.126Zm-1.551-7.533v-.445h-3.808v.445Zm0,1.415v-.465h-3.808v.465Zm-2,8.709-.978.068c.009-.2.014-.372.014-.513a3.232,3.232,0,0,0-.369-1.572l.943-.137a3.982,3.982,0,0,1,.431,1.627A3.717,3.717,0,0,1,438.719,161.717Zm1.873-.294-.95.1a3.464,3.464,0,0,0-.534-1.86l.923-.184A3.14,3.14,0,0,1,440.592,161.423Zm1.722-.7-.95.389a3.375,3.375,0,0,0-.683-1.524l.991-.212A2.76,2.76,0,0,1,442.314,160.726Zm1.839-.506a6.634,6.634,0,0,1-1.975,1.962l-.629-.773a6.233,6.233,0,0,0,1.914-1.791Zm3.439-9.072h-2.236a6.981,6.981,0,0,1-.293,1.122h1.791v7.2h-4.54v-7.2h1.573a4.4,4.4,0,0,0,.389-1.122h-2.392v-1.011h5.708Zm-1.791,3.131v-1h-2.488v1Zm0,2.044v-1.087h-2.488v1.087Zm0,2.147v-1.19h-2.488v1.19Zm2.057,2.843-.724.616a6.28,6.28,0,0,0-2.283-1.6,4.451,4.451,0,0,1,.331-.342,3.8,3.8,0,0,0,.339-.355A6.693,6.693,0,0,1,447.858,161.313Z"/>
    <path d="M453.546,156.029a12.5,12.5,0,0,1-3.165,4.327l-.745-.765a10.956,10.956,0,0,0,1.8-1.98,7.8,7.8,0,0,0,1.21-2.17Zm7.2-1.408h-4.676V161a.942.942,0,0,1-.4.837,1.677,1.677,0,0,1-1.02.25q-.618-.021-1.349-.007l-.417-1.2a13.55,13.55,0,0,0,1.5.1c.387,0,.581-.142.581-.424v-5.934h-4.792V153.6h10.568Zm-.9-3.042H451.14v-1.018h8.715Zm1.559,8.053-.868.724a11.791,11.791,0,0,0-3.391-4.128l.827-.725A11.763,11.763,0,0,1,461.414,159.632Z"/>
    <path d="M474.642,160.445a1.5,1.5,0,0,1-.294,1.035,1.586,1.586,0,0,1-1.162.319h-1.231l-.362-1.121a11.877,11.877,0,0,0,1.5.061.489.489,0,0,0,.321-.127.417.417,0,0,0,.151-.338v-6.569h-3.275a8.36,8.36,0,0,0,3.179,5.182l-.738.9a9.56,9.56,0,0,1-3.083-4.252A8.625,8.625,0,0,1,466,159.755l-.656-.9a8.1,8.1,0,0,0,3.766-5.154h-3.848v8.415h-1.121v-9.447h4.928a11.892,11.892,0,0,1-.041-1.484h-2.55V150.15h3.644l-.034,1.231a8.529,8.529,0,0,0,.075,1.292h4.478Z"/>
    <path d="M489.708,157.574l-.629.9a15.354,15.354,0,0,1-2.133-.9v4.491h-1.059v-.738h-5.045v.779h-1.06v-4.463a21.881,21.881,0,0,1-1.975.95l-.786-.9q4.524-1.627,6.343-4.621l.882.6-.294.424A12.532,12.532,0,0,0,489.708,157.574Zm-7.7-4.689a9.435,9.435,0,0,1-3.288,2.727l-.855-.758a8.465,8.465,0,0,0,3.377-2.632l.752.663Zm6.85.526h-1.067v-1.579h-8.8v1.682H477.9v-2.7h4.9V149.48H483.9v1.333h4.957Zm-2.537,3.842a9.3,9.3,0,0,1-2.925-2.413,9.981,9.981,0,0,1-3,2.413Zm-.444,1.005h-5.045V160.3h5.045Zm2.755-3.459-.725.813a10.028,10.028,0,0,0-3.418-2.6l.725-.773A10.063,10.063,0,0,1,488.628,154.8Z"/>
    <path d="M496.3,152.646h-5.25V151.62h5.25Zm-.431-1.88h-4.245v-1.019h4.245Zm.014,3.766h-4.245v-1.018h4.245Zm-.041,1.839h-4.2v-1.025h4.2Zm-.13,5.6h-1v-.814h-1.88v.855h-1v-4.58h3.89Zm-1-1.839v-1.675h-1.88v1.675Zm8.948-3.835h-7.56v-1.019h1.845l.4-1.989h-1.737V152.27h1.908l.212-1.388h-2.591v-1.026h6.959v1.026h-3.268l-.232,1.388h2.8l-.294,3.007h1.558Zm-1.2,5.756H501.4v-.841h-3.274v.895h-1.066v-4.969h5.4Zm-1.06-1.86v-2.03h-3.274v2.03Zm-.143-6.9h-1.791q-.384,1.778-.417,1.989h2.017Z"/>
    <path d="M508.315,159.728a6.24,6.24,0,0,1-2.748,1.818l-.6-.95a4.6,4.6,0,0,0,2.632-1.579Zm8.9-5.743h-11.69v-1.018h3.753a9.9,9.9,0,0,0-.936-1.053l.4-.253h-2.283v-1.018h4.368V149.4H511.9v1.245h4.369v1.018h-2.229l.239.171a4.122,4.122,0,0,1-.786,1.135h3.726Zm-1.9,4.5H511.46a3.776,3.776,0,0,1,1.442,1.06l-.827.7a4,4,0,0,0-1.859-1.333l.465-.431h-3.247v-3.951h7.881Zm-1.052-2.5V155.5h-5.784v.485Zm0,1.47v-.6h-5.784v.6Zm.266,2.618a3.292,3.292,0,0,1-.615,1.384,1.488,1.488,0,0,1-1.121.366H509.84q-1.081-.123-1.08-1.483v-1.121h1.053v1.189c0,.264.116.4.348.4h2.714q.308,0,.451-.452l.2-.669Zm-1.415-8.415h-3.6a3.57,3.57,0,0,1,.922,1.306h1.764A3.428,3.428,0,0,0,513.114,151.661Zm4.676,9.16-.8.752a4.833,4.833,0,0,0-2.324-1.9l.841-.718A5.237,5.237,0,0,1,517.79,160.821Z"/>
    <path d="M526.109,161.156a2.236,2.236,0,0,1-.332,1.326,1.822,1.822,0,0,1-.816.65l-.335-.52a1.414,1.414,0,0,0,.772-1.456h-.69v-1.4h1.4Z"/>
    <path d="M303.634,178.141H291.411v-1.026h4.273v-6.959H291.89v-1.018h3.917a6.411,6.411,0,0,0-2.338-2.147l.813-.656a6.263,6.263,0,0,1,2.482,2.256l-.691.519v.028h2.762l-.7-.629a5.893,5.893,0,0,0,2.242-2.311l.814.6a5.946,5.946,0,0,1-2.058,2.31v.028h4.1v1.018h-3.78v6.959h4.184Zm-8.231-2.707-.991.546a9.511,9.511,0,0,0-2.078-4.368l.841-.574A11.338,11.338,0,0,1,295.4,175.434Zm2.94,1.681v-6.959h-1.552v6.959Zm4.341-5.544a13.338,13.338,0,0,1-2.2,4.437l-.881-.615a10.04,10.04,0,0,0,2.132-4.341Z"/>
    <path d="M310.142,169.4h-4.936v-1.025h4.936Zm-.349,1.86h-4.129v-1.019h4.129Zm0,1.845h-4.129v-1.018h4.129Zm.014-5.571h-4.129V166.52h4.129Zm7.464,9.147a4.629,4.629,0,0,1-.126,1.312.933.933,0,0,1-.53.554,2.735,2.735,0,0,1-1.114.184c-.21,0-.47-.006-.779-.02q-.1-.267-.226-.659a2.408,2.408,0,0,0-.137-.394l1.3.027c.242.01.393-.023.455-.1a.638.638,0,0,0,.092-.394v-9.392h-4.758v5.646a11.637,11.637,0,0,1-.389,3.452,6.329,6.329,0,0,1-.971,1.921l-.485-.321v.212h-1.067v-.93h-1.709v.971h-1V174.08H309.6v3.37a5.636,5.636,0,0,0,.752-2.686l.027-7.978h6.89Zm-8.736.082V175.1h-1.709v1.668Zm7.547-4.355h-4.525v-.964h1.695v-1.305h-1.524v-.964h1.524v-1.026h1.012v1.026h1.62v.964h-1.62v1.305h1.818Zm-.561,4.341h-3.527v-3.63h3.527Zm-1.011-.964v-1.695H313v1.695Z"/>
    <path d="M331.688,178.209H319.172v-.964h2.283v-1.907h1.066v1.907h2.284v-2.5h-4.779v-1.019H330.9v1.019h-5.032v.67h4.368v.971h-4.368v.854h5.824Zm.014-5.332-.5.807a5.9,5.9,0,0,1-2.734-1.313,13.334,13.334,0,0,1-2.311,1.313l-.526-.793a8.275,8.275,0,0,0,2.167-1.279,6.412,6.412,0,0,1-.67-1.3l-.52.8-.745-.424v.7h-1.845a5.492,5.492,0,0,1,1.893,1.066l-.663.786a5.111,5.111,0,0,0-1.661-1.039v1.415h-1.067v-2.044a4.8,4.8,0,0,1-2.727,2.2l-.492-.868a4.687,4.687,0,0,0,2.269-1.517h-1.442v-2.659h2.392V168.3h-2.994v-1.026h2.994v-.977h1.067v.977h2.939V168.3h-2.939v.431h2.276v1.695a10.144,10.144,0,0,0,1.586-4.225l1.08.308q-.246.916-.424,1.456h3.207v1.018h-.8a6.786,6.786,0,0,1-1.3,2.687A5,5,0,0,0,331.7,172.877Zm-9.181-2.454V169.7h-1.387v.725Zm2.284,0V169.7h-1.217v.725Zm-1.067.964h-.15v.225Zm5.729-2.407h-1.7l-.068.24a6.928,6.928,0,0,0,.807,1.695A4.837,4.837,0,0,0,329.467,168.98Z"/>
    <path d="M336.645,175.017a6.475,6.475,0,0,1-2.728,2.645l-.772-.854a5.266,5.266,0,0,0,2.577-2.352Zm1.121-8.361-1.231,2.324v5H335.4v-3.706a4.284,4.284,0,0,1-.564.445q-.509.369-.721.56a11.692,11.692,0,0,1-.895-.772,7.815,7.815,0,0,0,3.595-4.293A6.66,6.66,0,0,1,337.766,166.656Zm7.4,1.094a9.052,9.052,0,0,1-.608,2.563l-1.033-.28c.045-.095.176-.5.39-1.217h-4.45a11.5,11.5,0,0,1-1.552,1.689l-1.025-.67a7.36,7.36,0,0,0,2.686-3.664,2.737,2.737,0,0,1,.524.205,3.645,3.645,0,0,0,.447.2,8.543,8.543,0,0,1-.437,1.176Zm-2.2,8.121a6.81,6.81,0,0,1-.311,1.415,1.646,1.646,0,0,1-.5.684,1.1,1.1,0,0,1-.618.28l-.519.027h-2.755a1.219,1.219,0,0,1-.947-.492,1.416,1.416,0,0,1-.3-.779v-2.618H338.1v2.379a.539.539,0,0,0,.519.4h2.673c.314-.082.488-.248.52-.5l.123-1.067Zm-2.215-5.64a6.165,6.165,0,0,1-2.939,2.906l-.7-.834a6.778,6.778,0,0,0,2.8-2.591Zm.294,5.708-1.019.534a5.208,5.208,0,0,0-1.442-2.393l.923-.308A6.666,6.666,0,0,1,341.04,175.939Zm1.039-3.554a2.195,2.195,0,0,1-.137.81.924.924,0,0,1-.417.5,4.387,4.387,0,0,1-1.49.188l-.417-1.067a2.138,2.138,0,0,1,.233-.013c.1,0,.224.008.385.024s.274.024.332.024c.27,0,.4-.071.4-.212v-3.487h1.107Zm3.637.136c-.21.192-.487.422-.834.691a8.5,8.5,0,0,0-2.618-2.8l.779-.588A6.635,6.635,0,0,1,345.716,172.521Zm.225,4.676-1,.65a6.825,6.825,0,0,0-1.1-1.664,3.591,3.591,0,0,0-1.385-1.125l.882-.534A5.876,5.876,0,0,1,345.941,177.2Z"/>
    <path d="M358.807,168.591a44.9,44.9,0,0,1-.543,7.892q-.489,2.232-1.727,2.232a9.936,9.936,0,0,1-2.181-.465l-.184-1.176a7.65,7.65,0,0,0,2.2.588q.6,0,.975-2.2a38.786,38.786,0,0,0,.4-5.9H354.76a11.522,11.522,0,0,1-1.62,2.939l-.732-.472v6.255h-1.1v-.909h-2.325V178.5h-1.107v-9.7h1.285a8.258,8.258,0,0,0,.855-2.468l1.011.41a8.449,8.449,0,0,1-.758,2.058h2.139v2.85a13.038,13.038,0,0,0,2.106-5.427l1.114.253q-.185.826-.6,2.112Zm-7.5,3.93v-2.7h-2.325v2.7Zm0,3.822v-2.8h-2.325v2.8Zm5.6-1.381-1.011.444a11.956,11.956,0,0,0-1.9-3.288l.868-.574A10.6,10.6,0,0,1,356.906,174.962Z"/>
    <path d="M365.458,173l-1.34.6v4.368a1.111,1.111,0,0,1-1.121.882l-1.08.041-.431-1.074c.557.046.891.069,1,.069q.561,0,.561-.2v-3.527l-1.258.561-.718-.8q.759-.292,1.976-.882v-2.9H361.37v-1.019h1.682v-2.618h1.066v2.618h1.34v1.019h-1.34v2.324l1.34-.561Zm8.483,4.847-.67.991a10.006,10.006,0,0,1-3.992-1.333,12.256,12.256,0,0,1-4.129,1.545l-.7-.985a11.234,11.234,0,0,0,3.89-1.257,6.377,6.377,0,0,1-1.75-2.338H365.5v-1.019h3.151V172.6h-2.994v-4.956a5.263,5.263,0,0,0,2.379-1.026l.615.643v-.95h1.108v5.263h2v-1.217h-1.614v-1.025h1.614v-1.046h-1.853v-1.025h2.912V172.6h-3.062v.854H372.5v.848a10.236,10.236,0,0,1-2.263,2.522A10.2,10.2,0,0,0,373.941,177.847Zm-5.291-6.276v-4.129a5.658,5.658,0,0,1-1.934,1.019v.957H368.3v1.019h-1.586v1.134Zm2.468,2.9h-3.349a5.843,5.843,0,0,0,1.538,1.722A7.754,7.754,0,0,0,371.118,174.47Z"/>
    <path d="M381.379,174.066l-5.585.363-.308-.964,2.543-.13v-.991H376.2v-.971h4.772v.971H379.1v.909l2.283-.116Zm6.145,1.832h-2.5v1.887a.977.977,0,0,1-.392.92,2.669,2.669,0,0,1-1.276.229q-.26,0-.656-.028l-.629-1.046,1.484.028q.41,0,.41-.465V175.9h-8.4v-1.025h8.4v-.526h1.059v.526h2.5Zm-1.791-5.065h-8.469v-1.025h7.4v-.616h-6.945v-.963h6.945v-.6h-7.431V166.6h8.5Zm-4.409,6.426-.69.9a6.672,6.672,0,0,0-3.288-1.319l.7-.855A7.226,7.226,0,0,1,381.324,177.259Zm5.4-3.124h-5.038v-2.8h5.038Zm-1.067-.964V172.3h-2.912v.868Z"/>
    <path d="M390.854,174.873a10.45,10.45,0,0,1-.91,3.432l-.991-.417a8.931,8.931,0,0,0,.9-3.206Zm3.834-.472-1.032.363c-.045-.151-.1-.36-.157-.629h-1.06v4.717h-1.066v-4.717h-1.989l-.123-1.108h.711q.875-1.12,1.319-1.791a18.985,18.985,0,0,0-1.962-1.285l.615-.882.281.178a15.144,15.144,0,0,0,1.579-3.035l1,.472a20,20,0,0,1-1.723,3.055,5.746,5.746,0,0,1,.841.574,19.647,19.647,0,0,0,1.244-2.132l.95.506a23.49,23.49,0,0,1-2.926,4.34h1.894a5.782,5.782,0,0,0-.533-1.093l.964-.349A9.279,9.279,0,0,1,394.688,174.4Zm-.054,3.4-1,.239a11.656,11.656,0,0,0-.732-2.994l1.012-.212A10.623,10.623,0,0,1,394.634,177.8Zm7.041-8.285h-3.247v1.907h2.632v1.018h-6.344v-1.018h2.6v-1.907h-3.178V168.5h3.178v-2.283h1.108V168.5h3.247Zm-1,9.324H399.6v-.95h-3.432v.95h-1.06v-5.066h5.558Zm-1.066-1.976v-2.071h-3.432v2.071Z"/>
    <path d="M415.9,177.231l-.642.9a10.281,10.281,0,0,1-5.237-3.534v4.3l-1.08-.028v-4.238a8.948,8.948,0,0,1-5.079,3.527l-.731-.854a9.029,9.029,0,0,0,4.607-2.687h-3.944v-1.025h5.161V172.6h-3.78v-5.674h8.654V172.6h-3.808v.991h5.155v1.025h-3.828A9.251,9.251,0,0,0,415.9,177.231Zm-6.945-7.984v-1.3h-2.714v1.3Zm0,2.324v-1.3h-2.714v1.3Zm3.808-2.324v-1.3h-2.742v1.3Zm0,2.324v-1.3h-2.742v1.3Z"/>
  </g>
</svg>
