<svg xmlns="http://www.w3.org/2000/svg" viewBox="0 0 560 380">
  <g>
    <g>
      <g>
        <path d="M40.525,242l3.849-10.021H45.8L49.9,242h-1.51l-1.169-3.035H43.034L41.934,242Zm2.892-4.115h3.4l-1.045-2.776q-.478-1.263-.711-2.078a12.808,12.808,0,0,1-.54,1.914Z"/>
        <path d="M50.779,242V231.976H52.01V242Z"/>
        <path d="M53.89,242V231.976h1.23V242Z"/>
        <path d="M62,239.659l1.272.157a3.1,3.1,0,0,1-1.115,1.73,3.777,3.777,0,0,1-4.6-.365,3.837,3.837,0,0,1-.933-2.752,4.013,4.013,0,0,1,.944-2.844,3.193,3.193,0,0,1,2.447-1.012,3.107,3.107,0,0,1,2.379.991,3.943,3.943,0,0,1,.923,2.79c0,.073,0,.182-.007.328H57.889a2.791,2.791,0,0,0,.676,1.832,2.015,2.015,0,0,0,1.518.635,1.882,1.882,0,0,0,1.155-.355A2.355,2.355,0,0,0,62,239.659Zm-4.04-1.989h4.054a2.467,2.467,0,0,0-.465-1.374,1.886,1.886,0,0,0-1.525-.711,1.956,1.956,0,0,0-1.425.567A2.249,2.249,0,0,0,57.957,237.67Z"/>
        <path d="M68.409,238.777l1.251-.109a2.749,2.749,0,0,0,.414,1.234,2.254,2.254,0,0,0,1.008.78,3.822,3.822,0,0,0,1.538.3,3.693,3.693,0,0,0,1.34-.226,1.864,1.864,0,0,0,.865-.618,1.438,1.438,0,0,0,.283-.859,1.3,1.3,0,0,0-.273-.823,2.026,2.026,0,0,0-.9-.592,17.951,17.951,0,0,0-1.785-.488,9.166,9.166,0,0,1-1.934-.626,2.7,2.7,0,0,1-1.07-.933,2.285,2.285,0,0,1-.352-1.248,2.549,2.549,0,0,1,.431-1.418,2.672,2.672,0,0,1,1.257-1,4.792,4.792,0,0,1,1.839-.341,5.033,5.033,0,0,1,1.966.359,2.832,2.832,0,0,1,1.309,1.056,3.038,3.038,0,0,1,.492,1.579l-1.272.1a2.053,2.053,0,0,0-.693-1.436,2.705,2.705,0,0,0-1.747-.485,2.8,2.8,0,0,0-1.753.441,1.322,1.322,0,0,0-.551,1.063,1.137,1.137,0,0,0,.39.888,5.27,5.27,0,0,0,2,.715,13.186,13.186,0,0,1,2.219.639,3.037,3.037,0,0,1,1.292,1.022,2.489,2.489,0,0,1,.417,1.425,2.732,2.732,0,0,1-.458,1.508,3.017,3.017,0,0,1-1.316,1.1,4.586,4.586,0,0,1-1.931.393,5.755,5.755,0,0,1-2.28-.4,3.192,3.192,0,0,1-1.443-1.192A3.388,3.388,0,0,1,68.409,238.777Z"/>
        <path d="M78.048,233.391v-1.415h1.23v1.415Zm0,8.606v-7.26h1.23V242Z"/>
        <path d="M86.121,239.659l1.272.157a3.1,3.1,0,0,1-1.115,1.73,3.777,3.777,0,0,1-4.6-.365,3.837,3.837,0,0,1-.933-2.752,4.013,4.013,0,0,1,.944-2.844,3.193,3.193,0,0,1,2.447-1.012,3.106,3.106,0,0,1,2.379.991,3.943,3.943,0,0,1,.923,2.79c0,.073,0,.182-.007.328H82.013a2.791,2.791,0,0,0,.676,1.832,2.015,2.015,0,0,0,1.518.635,1.882,1.882,0,0,0,1.155-.355A2.355,2.355,0,0,0,86.121,239.659Zm-4.04-1.989h4.054a2.467,2.467,0,0,0-.465-1.374,1.886,1.886,0,0,0-1.524-.711,1.957,1.957,0,0,0-1.426.567A2.249,2.249,0,0,0,82.081,237.67Z"/>
        <path d="M27.154,258.8H26.013V248.775h1.23v3.576a2.435,2.435,0,0,1,1.989-.978,3.028,3.028,0,0,1,1.268.271,2.573,2.573,0,0,1,.985.758,3.685,3.685,0,0,1,.605,1.179,4.863,4.863,0,0,1,.219,1.477,4.145,4.145,0,0,1-.923,2.884,2.884,2.884,0,0,1-2.215,1.019,2.311,2.311,0,0,1-2.017-1.073Zm-.013-3.685A3.767,3.767,0,0,0,27.5,257a1.759,1.759,0,0,0,2.967.25,3.185,3.185,0,0,0,.588-2.089,3.238,3.238,0,0,0-.564-2.1,1.716,1.716,0,0,0-1.364-.677,1.766,1.766,0,0,0-1.394.7A3.069,3.069,0,0,0,27.141,255.112Z"/>
        <path d="M38.775,256.459l1.272.157a3.106,3.106,0,0,1-1.114,1.73,3.353,3.353,0,0,1-2.079.615,3.318,3.318,0,0,1-2.525-.981,3.833,3.833,0,0,1-.933-2.751,4.013,4.013,0,0,1,.943-2.844,3.2,3.2,0,0,1,2.447-1.012,3.106,3.106,0,0,1,2.379.991,3.941,3.941,0,0,1,.923,2.789c0,.074,0,.183-.007.328H34.667a2.782,2.782,0,0,0,.677,1.832,2.013,2.013,0,0,0,1.517.636,1.883,1.883,0,0,0,1.156-.355A2.365,2.365,0,0,0,38.775,256.459Zm-4.04-1.989h4.054a2.454,2.454,0,0,0-.465-1.374,1.886,1.886,0,0,0-1.524-.711,1.955,1.955,0,0,0-1.425.567A2.246,2.246,0,0,0,34.735,254.47Z"/>
        <path d="M44.278,257.7l.178,1.087a4.558,4.558,0,0,1-.93.11,2.109,2.109,0,0,1-1.039-.212,1.184,1.184,0,0,1-.519-.557,4.411,4.411,0,0,1-.151-1.453v-4.177h-.9v-.957h.9v-1.8L43.041,249v2.536h1.237v.957H43.041v4.245a2.149,2.149,0,0,0,.065.677.5.5,0,0,0,.212.239.81.81,0,0,0,.42.089A3.826,3.826,0,0,0,44.278,257.7Z"/>
        <path d="M45.468,258.8v-7.26h1.107v1.1a3.014,3.014,0,0,1,.783-1.019,1.365,1.365,0,0,1,.789-.246,2.4,2.4,0,0,1,1.265.4l-.424,1.141a1.753,1.753,0,0,0-.9-.266,1.173,1.173,0,0,0-.725.243,1.313,1.313,0,0,0-.458.673A4.812,4.812,0,0,0,46.7,255v3.8Z"/>
        <path d="M55.113,256.459l1.272.157a3.106,3.106,0,0,1-1.114,1.73,3.353,3.353,0,0,1-2.079.615,3.318,3.318,0,0,1-2.525-.981,3.829,3.829,0,0,1-.934-2.751,4.013,4.013,0,0,1,.944-2.844,3.2,3.2,0,0,1,2.447-1.012,3.106,3.106,0,0,1,2.379.991,3.941,3.941,0,0,1,.923,2.789c0,.074,0,.183-.007.328H51.005a2.782,2.782,0,0,0,.677,1.832,2.012,2.012,0,0,0,1.517.636,1.88,1.88,0,0,0,1.155-.355A2.36,2.36,0,0,0,55.113,256.459Zm-4.04-1.989h4.054a2.461,2.461,0,0,0-.465-1.374,1.886,1.886,0,0,0-1.524-.711,1.959,1.959,0,0,0-1.426.567A2.249,2.249,0,0,0,51.073,254.47Z"/>
        <path d="M58.224,258.8v-6.3H57.137v-.957h1.087v-.772a3.369,3.369,0,0,1,.13-1.087,1.576,1.576,0,0,1,.625-.776,2.255,2.255,0,0,1,1.254-.3,6.038,6.038,0,0,1,1.149.124L61.2,249.8a4.178,4.178,0,0,0-.724-.069,1.079,1.079,0,0,0-.793.24,1.3,1.3,0,0,0-.233.895v.67h1.415v.957H59.447v6.3Z"/>
        <path d="M61.86,258.8v-6.3H60.773v-.957H61.86v-.772a3.4,3.4,0,0,1,.13-1.087,1.578,1.578,0,0,1,.626-.776,2.255,2.255,0,0,1,1.254-.3,6.046,6.046,0,0,1,1.149.124l-.185,1.073a4.189,4.189,0,0,0-.725-.069,1.082,1.082,0,0,0-.793.24,1.3,1.3,0,0,0-.232.895v.67H64.5v.957H63.084v6.3Z"/>
        <path d="M70.426,256.459l1.271.157a3.1,3.1,0,0,1-1.114,1.73,3.775,3.775,0,0,1-4.6-.366,3.833,3.833,0,0,1-.933-2.751,4.013,4.013,0,0,1,.943-2.844,3.2,3.2,0,0,1,2.448-1.012,3.105,3.105,0,0,1,2.378.991,3.936,3.936,0,0,1,.923,2.789c0,.074,0,.183-.007.328H66.317a2.787,2.787,0,0,0,.677,1.832,2.016,2.016,0,0,0,1.518.636,1.882,1.882,0,0,0,1.155-.355A2.36,2.36,0,0,0,70.426,256.459Zm-4.04-1.989h4.053a2.454,2.454,0,0,0-.464-1.374,1.886,1.886,0,0,0-1.525-.711,1.955,1.955,0,0,0-1.425.567A2.249,2.249,0,0,0,66.386,254.47Z"/>
        <path d="M73.242,258.8v-7.26H74.35v1.032a2.61,2.61,0,0,1,2.31-1.2,3.036,3.036,0,0,1,1.207.236,1.907,1.907,0,0,1,.823.619,2.362,2.362,0,0,1,.383.909,6.984,6.984,0,0,1,.069,1.2V258.8H77.911v-4.416a3.332,3.332,0,0,0-.143-1.124,1.182,1.182,0,0,0-.51-.595,1.617,1.617,0,0,0-.858-.223,2,2,0,0,0-1.357.5,2.465,2.465,0,0,0-.57,1.894V258.8Z"/>
        <path d="M85.738,258.8v-.916a2.256,2.256,0,0,1-2.03,1.08,2.838,2.838,0,0,1-1.6-.479,3.131,3.131,0,0,1-1.128-1.336,4.612,4.612,0,0,1-.4-1.972,5.169,5.169,0,0,1,.362-1.972,2.855,2.855,0,0,1,1.087-1.357,2.9,2.9,0,0,1,1.62-.472,2.422,2.422,0,0,1,2,1v-3.6H86.88V258.8Zm-3.889-3.623a3.146,3.146,0,0,0,.588,2.085,1.769,1.769,0,0,0,1.387.69,1.742,1.742,0,0,0,1.371-.659,3.043,3.043,0,0,0,.564-2.014,3.419,3.419,0,0,0-.574-2.187,1.766,1.766,0,0,0-1.415-.7,1.7,1.7,0,0,0-1.371.67A3.307,3.307,0,0,0,81.849,255.174Z"/>
        <path d="M93.784,256.459l1.272.157a3.1,3.1,0,0,1-1.115,1.73,3.775,3.775,0,0,1-4.6-.366,3.833,3.833,0,0,1-.933-2.751,4.013,4.013,0,0,1,.944-2.844,3.194,3.194,0,0,1,2.447-1.012,3.106,3.106,0,0,1,2.379.991,3.941,3.941,0,0,1,.923,2.789c0,.074,0,.183-.007.328H89.676a2.782,2.782,0,0,0,.677,1.832,2.012,2.012,0,0,0,1.517.636,1.88,1.88,0,0,0,1.155-.355A2.36,2.36,0,0,0,93.784,256.459Zm-4.04-1.989H93.8a2.461,2.461,0,0,0-.465-1.374,1.886,1.886,0,0,0-1.524-.711,1.959,1.959,0,0,0-1.426.567A2.249,2.249,0,0,0,89.744,254.47Z"/>
        <path d="M96.6,258.8v-7.26h1.107v1.032a2.61,2.61,0,0,1,2.311-1.2,3.035,3.035,0,0,1,1.206.236,1.9,1.9,0,0,1,.824.619,2.378,2.378,0,0,1,.383.909,7.121,7.121,0,0,1,.068,1.2V258.8h-1.23v-4.416a3.3,3.3,0,0,0-.144-1.124,1.185,1.185,0,0,0-.509-.595,1.622,1.622,0,0,0-.858-.223,2,2,0,0,0-1.357.5,2.461,2.461,0,0,0-.571,1.894V258.8Z"/>
        <path d="M22.783,275.6V265.576h1.326V275.6Z"/>
        <path d="M26.29,275.6v-7.26H27.4v1.032a2.608,2.608,0,0,1,2.311-1.2,3.034,3.034,0,0,1,1.206.235,1.889,1.889,0,0,1,.824.619,2.376,2.376,0,0,1,.383.91,7.1,7.1,0,0,1,.068,1.2V275.6H30.958v-4.416a3.313,3.313,0,0,0-.143-1.125,1.189,1.189,0,0,0-.509-.6,1.622,1.622,0,0,0-.858-.222,1.991,1.991,0,0,0-1.357.5,2.46,2.46,0,0,0-.571,1.894V275.6Z"/>
        <path d="M34.37,275.6v-6.3H33.283v-.957H34.37v-.773a3.358,3.358,0,0,1,.13-1.086,1.57,1.57,0,0,1,.625-.777,2.255,2.255,0,0,1,1.254-.3,6.031,6.031,0,0,1,1.149.123l-.185,1.074a4.082,4.082,0,0,0-.724-.069,1.074,1.074,0,0,0-.793.239,1.3,1.3,0,0,0-.233.9v.67h1.415v.957H35.593v6.3Z"/>
        <path d="M37.507,271.968a3.744,3.744,0,0,1,1.121-2.988,3.379,3.379,0,0,1,2.284-.806,3.259,3.259,0,0,1,2.447.98,3.737,3.737,0,0,1,.95,2.711,4.8,4.8,0,0,1-.42,2.2,2.975,2.975,0,0,1-1.224,1.248,3.567,3.567,0,0,1-1.753.445,3.265,3.265,0,0,1-2.465-.978A3.908,3.908,0,0,1,37.507,271.968Zm1.265,0a3.094,3.094,0,0,0,.608,2.088,2.026,2.026,0,0,0,3.056,0,3.165,3.165,0,0,0,.608-2.126,3,3,0,0,0-.611-2.041,2.029,2.029,0,0,0-3.053,0A3.08,3.08,0,0,0,38.772,271.968Z"/>
        <path d="M45.738,275.6v-7.26h1.107v1.1a3.008,3.008,0,0,1,.783-1.018,1.365,1.365,0,0,1,.789-.246,2.4,2.4,0,0,1,1.265.4l-.424,1.142a1.755,1.755,0,0,0-.9-.267,1.173,1.173,0,0,0-.725.243,1.321,1.321,0,0,0-.458.673,4.819,4.819,0,0,0-.2,1.436v3.8Z"/>
        <path d="M50.414,275.6v-7.26h1.1v1.018a2.6,2.6,0,0,1,.909-.858,2.561,2.561,0,0,1,1.292-.324,2.383,2.383,0,0,1,1.323.335,1.786,1.786,0,0,1,.728.936,2.607,2.607,0,0,1,2.242-1.271,2.21,2.21,0,0,1,1.661.6,2.556,2.556,0,0,1,.581,1.843V275.6H59.027v-4.574a3.36,3.36,0,0,0-.12-1.063,1.025,1.025,0,0,0-.434-.523,1.353,1.353,0,0,0-.738-.2,1.723,1.723,0,0,0-1.272.509,2.245,2.245,0,0,0-.505,1.631V275.6H54.727v-4.717a2.074,2.074,0,0,0-.3-1.231,1.14,1.14,0,0,0-.984-.41,1.785,1.785,0,0,0-.961.274,1.552,1.552,0,0,0-.639.8,4.51,4.51,0,0,0-.2,1.518V275.6Z"/>
        <path d="M66.813,274.7a4.611,4.611,0,0,1-1.316.82,3.79,3.79,0,0,1-1.357.24,2.643,2.643,0,0,1-1.839-.585,1.931,1.931,0,0,1-.642-1.493A2.018,2.018,0,0,1,62.537,272a2.953,2.953,0,0,1,.885-.4,8.52,8.52,0,0,1,1.094-.185,11.269,11.269,0,0,0,2.194-.424c.005-.169.007-.276.007-.321a1.36,1.36,0,0,0-.348-1.06,2.062,2.062,0,0,0-1.4-.417,2.177,2.177,0,0,0-1.281.3,1.858,1.858,0,0,0-.612,1.077l-1.2-.164a2.981,2.981,0,0,1,.54-1.248,2.364,2.364,0,0,1,1.087-.731,4.845,4.845,0,0,1,1.647-.256,4.332,4.332,0,0,1,1.511.219,1.99,1.99,0,0,1,.854.549,1.944,1.944,0,0,1,.383.838,6.911,6.911,0,0,1,.062,1.135v1.641a17.551,17.551,0,0,0,.078,2.17,2.738,2.738,0,0,0,.311.872H67.059A2.641,2.641,0,0,1,66.813,274.7Zm-.1-2.748a9.051,9.051,0,0,1-2.009.465,4.569,4.569,0,0,0-1.074.246,1.079,1.079,0,0,0-.485.4,1.089,1.089,0,0,0,.2,1.406,1.606,1.606,0,0,0,1.09.328,2.532,2.532,0,0,0,1.265-.312,1.915,1.915,0,0,0,.813-.85,2.966,2.966,0,0,0,.2-1.231Z"/>
        <path d="M72.548,274.5l.178,1.087a4.623,4.623,0,0,1-.93.109,2.109,2.109,0,0,1-1.039-.212,1.184,1.184,0,0,1-.519-.557,4.4,4.4,0,0,1-.151-1.452V269.3h-.9v-.957h.9v-1.8l1.224-.738v2.536h1.237v.957H71.311v4.245a2.158,2.158,0,0,0,.065.677.52.52,0,0,0,.212.239.82.82,0,0,0,.42.089A4.153,4.153,0,0,0,72.548,274.5Z"/>
        <path d="M73.758,266.991v-1.415h1.231v1.415Zm0,8.607v-7.26h1.231v7.26Z"/>
        <path d="M76.4,271.968a3.74,3.74,0,0,1,1.121-2.988,3.375,3.375,0,0,1,2.283-.806,3.259,3.259,0,0,1,2.447.98,3.733,3.733,0,0,1,.951,2.711,4.8,4.8,0,0,1-.421,2.2,2.973,2.973,0,0,1-1.223,1.248,3.57,3.57,0,0,1-1.754.445,3.261,3.261,0,0,1-2.464-.978A3.9,3.9,0,0,1,76.4,271.968Zm1.264,0a3.089,3.089,0,0,0,.609,2.088,2.026,2.026,0,0,0,3.056,0,3.17,3.17,0,0,0,.608-2.126,3,3,0,0,0-.612-2.041,2.028,2.028,0,0,0-3.052,0A3.075,3.075,0,0,0,77.668,271.968Z"/>
        <path d="M84.648,275.6v-7.26h1.107v1.032a2.61,2.61,0,0,1,2.311-1.2,3.031,3.031,0,0,1,1.206.235,1.889,1.889,0,0,1,.824.619,2.376,2.376,0,0,1,.383.91,7.1,7.1,0,0,1,.068,1.2V275.6h-1.23v-4.416a3.308,3.308,0,0,0-.144-1.125,1.18,1.18,0,0,0-.509-.6,1.622,1.622,0,0,0-.858-.222,1.993,1.993,0,0,0-1.357.5,2.463,2.463,0,0,0-.571,1.894V275.6Z"/>
        <path d="M97.4,273.26l1.271.157a3.1,3.1,0,0,1-1.114,1.729,3.771,3.771,0,0,1-4.6-.366,3.831,3.831,0,0,1-.933-2.751,4.007,4.007,0,0,1,.943-2.843,3.193,3.193,0,0,1,2.448-1.012,3.1,3.1,0,0,1,2.378.991,3.933,3.933,0,0,1,.923,2.789c0,.072,0,.182-.007.328H93.3a2.791,2.791,0,0,0,.677,1.832,2.016,2.016,0,0,0,1.518.636,1.888,1.888,0,0,0,1.155-.355A2.369,2.369,0,0,0,97.4,273.26Zm-4.04-1.989h4.053a2.454,2.454,0,0,0-.464-1.375,1.885,1.885,0,0,0-1.525-.71,1.951,1.951,0,0,0-1.425.567A2.245,2.245,0,0,0,93.364,271.271Z"/>
        <path d="M100.22,275.6v-7.26h1.108v1.032a2.607,2.607,0,0,1,2.31-1.2,3.036,3.036,0,0,1,1.207.235,1.892,1.892,0,0,1,.823.619,2.345,2.345,0,0,1,.383.91,6.96,6.96,0,0,1,.069,1.2V275.6h-1.231v-4.416a3.338,3.338,0,0,0-.143-1.125,1.186,1.186,0,0,0-.51-.6,1.617,1.617,0,0,0-.858-.222,1.993,1.993,0,0,0-1.357.5,2.464,2.464,0,0,0-.57,1.894V275.6Z"/>
      </g>
      <g>
        <path d="M52.01,114.994v-13.3h2.3l4.78,7.18,4.8-7.18h2.28v13.3H64.11v-10.46l-4.18,6.28H58.25l-4.16-6.28v10.46Z"/>
        <path d="M71.35,110.754a5.065,5.065,0,0,0,.179,1.269,2.091,2.091,0,0,0,.52.911,2.255,2.255,0,0,0,.96.541,5.438,5.438,0,0,0,1.52.179c.214,0,.447-.009.7-.03s.5-.05.75-.09.48-.08.7-.12.4-.08.549-.12l.181,1.479a12.512,12.512,0,0,1-1.41.291,11,11,0,0,1-1.69.13,9.18,9.18,0,0,1-2.081-.219,3.7,3.7,0,0,1-1.6-.791,3.74,3.74,0,0,1-1.029-1.539,7.01,7.01,0,0,1-.371-2.471,7.749,7.749,0,0,1,.311-2.36,3.841,3.841,0,0,1,.89-1.55,3.347,3.347,0,0,1,1.409-.85,6.186,6.186,0,0,1,1.85-.26,4.83,4.83,0,0,1,1.761.29,3.36,3.36,0,0,1,1.23.81,3.2,3.2,0,0,1,.719,1.26,5.565,5.565,0,0,1,.23,1.66v1.58Zm4.339-1.4q0-2.779-2.06-2.78a1.934,1.934,0,0,0-1.659.7,3.856,3.856,0,0,0-.6,2.081Z"/>
      </g>
      <g>
        <path d="M67.679,218.333c-3.154-14.56-5.367-14.594-6.7-26.132" fill="none" stroke="#000" stroke-miterlimit="10"/>
        <polygon points="65.478 194.962 64.839 195.733 61.049 192.579 58.18 196.591 57.367 196.008 60.861 191.123 65.478 194.962"/>
      </g>
      <g>
        <path d="M64.27,139.274A16.925,16.925,0,1,1,47.345,156.2,16.943,16.943,0,0,1,64.27,139.274m0-2.8A19.725,19.725,0,1,0,83.994,156.2,19.725,19.725,0,0,0,64.27,136.474Z" fill="#5b5d5e"/>
        <path d="M69.19,155.271a6.664,6.664,0,0,1,1.816,1.04,7.417,7.417,0,0,1,1.419,1.506,7.045,7.045,0,0,1,.937,1.874,6.822,6.822,0,0,1,.337,2.137v4.1a1.15,1.15,0,0,1-1.172,1.171H56.134a1.148,1.148,0,0,1-1.171-1.171v-4.1a6.792,6.792,0,0,1,.336-2.137,7.045,7.045,0,0,1,.937-1.874,7.4,7.4,0,0,1,1.42-1.506,6.659,6.659,0,0,1,1.815-1.04,7.91,7.91,0,0,0,2.268,1.17,8.186,8.186,0,0,0,2.592.411A8.043,8.043,0,0,0,69.19,155.271Zm1.289-6.617A5.991,5.991,0,0,1,70,151.04a6.161,6.161,0,0,1-3.264,3.279,6.16,6.16,0,0,1-4.787,0,6.124,6.124,0,0,1-3.278-3.279,6.169,6.169,0,0,1,0-4.786,6.17,6.17,0,0,1,3.278-3.265,6.184,6.184,0,0,1,4.787,0A6.208,6.208,0,0,1,70,146.254,5.964,5.964,0,0,1,70.479,148.654Z" fill="#5b5d5e"/>
      </g>
    </g>
    <g>
      <g>
        <path d="M136.254,242V231.977h1.326V242Z"/>
        <path d="M139.761,242v-7.26h1.107v1.033a2.609,2.609,0,0,1,2.311-1.2,3.014,3.014,0,0,1,1.206.236,1.889,1.889,0,0,1,.824.619,2.371,2.371,0,0,1,.383.909,7.1,7.1,0,0,1,.068,1.2V242h-1.23v-4.416a3.308,3.308,0,0,0-.144-1.125,1.189,1.189,0,0,0-.509-.595,1.631,1.631,0,0,0-.858-.221,1.991,1.991,0,0,0-1.357.5,2.462,2.462,0,0,0-.571,1.893V242Z"/>
        <path d="M147.547,242V231.977h1.23v3.595a2.748,2.748,0,0,1,2.174-1,2.934,2.934,0,0,1,1.4.318,1.865,1.865,0,0,1,.851.879,4.044,4.044,0,0,1,.256,1.626V242h-1.231v-4.6a1.9,1.9,0,0,0-.4-1.343,1.486,1.486,0,0,0-1.132-.42,2.006,2.006,0,0,0-1.029.283,1.6,1.6,0,0,0-.687.77,3.539,3.539,0,0,0-.205,1.339V242Z"/>
        <path d="M160.07,241.1a4.606,4.606,0,0,1-1.316.82,3.812,3.812,0,0,1-1.357.239,2.636,2.636,0,0,1-1.838-.585,1.927,1.927,0,0,1-.643-1.493,2.025,2.025,0,0,1,.878-1.682,3.021,3.021,0,0,1,.886-.4,8.679,8.679,0,0,1,1.093-.185,11.3,11.3,0,0,0,2.195-.423c0-.169.007-.277.007-.322a1.358,1.358,0,0,0-.349-1.059,2.054,2.054,0,0,0-1.4-.417,2.181,2.181,0,0,0-1.282.3,1.861,1.861,0,0,0-.612,1.078l-1.2-.164a2.97,2.97,0,0,1,.54-1.248,2.363,2.363,0,0,1,1.087-.732,4.845,4.845,0,0,1,1.647-.256,4.332,4.332,0,0,1,1.511.219,1.992,1.992,0,0,1,.855.55,1.926,1.926,0,0,1,.382.838,6.9,6.9,0,0,1,.062,1.134v1.641a17.25,17.25,0,0,0,.079,2.17,2.721,2.721,0,0,0,.311.872h-1.286A2.642,2.642,0,0,1,160.07,241.1Zm-.1-2.749a9.077,9.077,0,0,1-2.01.465,4.649,4.649,0,0,0-1.073.246,1.072,1.072,0,0,0-.486.4,1.09,1.09,0,0,0,.2,1.405,1.6,1.6,0,0,0,1.09.328,2.529,2.529,0,0,0,1.265-.311,1.92,1.92,0,0,0,.814-.851,2.974,2.974,0,0,0,.2-1.23Z"/>
        <path d="M163.092,242V231.977h1.23V242Z"/>
        <path d="M168.916,240.9l.178,1.087a4.558,4.558,0,0,1-.93.11,2.117,2.117,0,0,1-1.039-.212,1.193,1.193,0,0,1-.52-.558,4.408,4.408,0,0,1-.15-1.452V235.7h-.9v-.957h.9v-1.8l1.224-.738v2.536h1.237v.957h-1.237v4.245a2.122,2.122,0,0,0,.065.677.505.505,0,0,0,.212.239.82.82,0,0,0,.42.089A3.982,3.982,0,0,0,168.916,240.9Z"/>
        <path d="M175.089,239.66l1.271.157a3.1,3.1,0,0,1-1.114,1.73,3.775,3.775,0,0,1-4.6-.366,3.834,3.834,0,0,1-.933-2.751,4.01,4.01,0,0,1,.943-2.844,3.193,3.193,0,0,1,2.448-1.012,3.105,3.105,0,0,1,2.379.991,3.939,3.939,0,0,1,.922,2.789c0,.073,0,.182-.006.329H170.98a2.793,2.793,0,0,0,.677,1.832,2.018,2.018,0,0,0,1.518.635,1.888,1.888,0,0,0,1.155-.355A2.36,2.36,0,0,0,175.089,239.66Zm-4.04-1.989H175.1a2.461,2.461,0,0,0-.465-1.374,1.883,1.883,0,0,0-1.525-.711,1.951,1.951,0,0,0-1.425.567A2.245,2.245,0,0,0,171.049,237.671Z"/>
        <path d="M186.765,239.66l1.271.157a3.106,3.106,0,0,1-1.114,1.73,3.775,3.775,0,0,1-4.6-.366,3.834,3.834,0,0,1-.933-2.751,4.01,4.01,0,0,1,.943-2.844,3.192,3.192,0,0,1,2.447-1.012,3.1,3.1,0,0,1,2.379.991,3.934,3.934,0,0,1,.923,2.789c0,.073,0,.182-.007.329h-5.414a2.793,2.793,0,0,0,.677,1.832,2.018,2.018,0,0,0,1.518.635,1.888,1.888,0,0,0,1.155-.355A2.36,2.36,0,0,0,186.765,239.66Zm-4.04-1.989h4.053a2.446,2.446,0,0,0-.465-1.374,1.881,1.881,0,0,0-1.524-.711,1.951,1.951,0,0,0-1.425.567A2.245,2.245,0,0,0,182.725,237.671Z"/>
        <path d="M189.567,242v-7.26h1.108v1.1a2.991,2.991,0,0,1,.783-1.019,1.365,1.365,0,0,1,.789-.246,2.4,2.4,0,0,1,1.265.4l-.424,1.141a1.768,1.768,0,0,0-.9-.266,1.176,1.176,0,0,0-.725.242,1.318,1.318,0,0,0-.458.674,4.78,4.78,0,0,0-.2,1.435V242Z"/>
        <path d="M193.751,239.831l1.217-.191a1.7,1.7,0,0,0,.571,1.121,1.987,1.987,0,0,0,1.309.389,1.921,1.921,0,0,0,1.257-.345,1.031,1.031,0,0,0,.411-.81.746.746,0,0,0-.363-.656,5.27,5.27,0,0,0-1.257-.417,11.51,11.51,0,0,1-1.877-.592,1.79,1.79,0,0,1-1.063-1.664,1.871,1.871,0,0,1,.222-.9,1.988,1.988,0,0,1,.6-.687,2.522,2.522,0,0,1,.783-.359,3.716,3.716,0,0,1,1.063-.147,4.2,4.2,0,0,1,1.5.246,2.041,2.041,0,0,1,.954.666,2.62,2.62,0,0,1,.424,1.125l-1.2.164a1.315,1.315,0,0,0-.475-.875,1.739,1.739,0,0,0-1.111-.314,2.012,2.012,0,0,0-1.21.28.814.814,0,0,0-.362.656.681.681,0,0,0,.15.431,1.084,1.084,0,0,0,.472.328c.123.045.485.151,1.086.315a15.267,15.267,0,0,1,1.822.57,1.829,1.829,0,0,1,.81.647,1.8,1.8,0,0,1,.294,1.052,2.058,2.058,0,0,1-.359,1.158,2.311,2.311,0,0,1-1.035.841,3.759,3.759,0,0,1-1.532.3,3.408,3.408,0,0,1-2.156-.588A2.733,2.733,0,0,1,193.751,239.831Z"/>
        <path d="M203.93,240.9l.177,1.087a4.557,4.557,0,0,1-.929.11,2.117,2.117,0,0,1-1.039-.212,1.188,1.188,0,0,1-.52-.558,4.408,4.408,0,0,1-.15-1.452V235.7h-.9v-.957h.9v-1.8l1.223-.738v2.536h1.238v.957h-1.238v4.245a2.153,2.153,0,0,0,.065.677.516.516,0,0,0,.212.239.824.824,0,0,0,.421.089A4,4,0,0,0,203.93,240.9Z"/>
        <path d="M210.1,239.66l1.271.157a3.106,3.106,0,0,1-1.114,1.73,3.775,3.775,0,0,1-4.6-.366,3.834,3.834,0,0,1-.933-2.751,4.01,4.01,0,0,1,.943-2.844,3.192,3.192,0,0,1,2.447-1.012,3.1,3.1,0,0,1,2.379.991,3.939,3.939,0,0,1,.923,2.789c0,.073,0,.182-.007.329h-5.414a2.793,2.793,0,0,0,.677,1.832,2.018,2.018,0,0,0,1.517.635,1.889,1.889,0,0,0,1.156-.355A2.36,2.36,0,0,0,210.1,239.66Zm-4.04-1.989h4.053a2.446,2.446,0,0,0-.465-1.374,1.883,1.883,0,0,0-1.524-.711,1.951,1.951,0,0,0-1.425.567A2.241,2.241,0,0,0,206.063,237.671Z"/>
        <path d="M212.892,242V231.977h1.23V242Z"/>
        <path d="M216,242V231.977h1.23V242Z"/>
        <path d="M224.109,239.66l1.272.157a3.106,3.106,0,0,1-1.114,1.73,3.353,3.353,0,0,1-2.079.615,3.318,3.318,0,0,1-2.525-.981,3.835,3.835,0,0,1-.934-2.751,4.01,4.01,0,0,1,.944-2.844,3.192,3.192,0,0,1,2.447-1.012,3.1,3.1,0,0,1,2.379.991,3.939,3.939,0,0,1,.923,2.789c0,.073,0,.182-.007.329H220a2.788,2.788,0,0,0,.677,1.832,2.015,2.015,0,0,0,1.517.635,1.891,1.891,0,0,0,1.156-.355A2.365,2.365,0,0,0,224.109,239.66Zm-4.04-1.989h4.054a2.454,2.454,0,0,0-.465-1.374,1.883,1.883,0,0,0-1.524-.711,1.955,1.955,0,0,0-1.426.567A2.245,2.245,0,0,0,220.069,237.671Z"/>
        <path d="M226.926,242v-7.26h1.107v1.033a2.609,2.609,0,0,1,2.311-1.2,3.014,3.014,0,0,1,1.206.236,1.889,1.889,0,0,1,.824.619,2.371,2.371,0,0,1,.383.909,7.1,7.1,0,0,1,.068,1.2V242H231.6v-4.416a3.308,3.308,0,0,0-.144-1.125,1.189,1.189,0,0,0-.509-.595,1.631,1.631,0,0,0-.858-.221,1.991,1.991,0,0,0-1.357.5,2.462,2.462,0,0,0-.571,1.893V242Z"/>
        <path d="M150.155,257.615a4.215,4.215,0,0,1-1.326,1.015,3.6,3.6,0,0,1-1.552.339,3.07,3.07,0,0,1-2.441-1.039,2.833,2.833,0,0,1-.731-1.894,2.62,2.62,0,0,1,.6-1.679,4.991,4.991,0,0,1,1.788-1.315,6.045,6.045,0,0,1-.9-1.265,2.221,2.221,0,0,1-.225-.936,2.093,2.093,0,0,1,.707-1.57,2.5,2.5,0,0,1,1.781-.666,2.314,2.314,0,0,1,1.678.629,2.024,2.024,0,0,1,.653,1.511q0,1.428-1.893,2.441l1.8,2.29a5.681,5.681,0,0,0,.479-1.4l1.278.273a6.989,6.989,0,0,1-.888,2.161,7.164,7.164,0,0,0,1.565,1.538l-.827.977A7.169,7.169,0,0,1,150.155,257.615Zm-.773-.97-2.256-2.8a4.315,4.315,0,0,0-1.346,1.1,1.779,1.779,0,0,0-.349,1.009,2.148,2.148,0,0,0,.486,1.265,1.608,1.608,0,0,0,1.374.656,2.263,2.263,0,0,0,1.145-.346A2.763,2.763,0,0,0,149.382,256.645Zm-1.729-4.252a3.275,3.275,0,0,0,1.035-.828,1.386,1.386,0,0,0,.236-.786,1.138,1.138,0,0,0-.324-.838,1.106,1.106,0,0,0-.81-.324,1.147,1.147,0,0,0-.831.321,1.053,1.053,0,0,0-.332.787,1.154,1.154,0,0,0,.12.488,2.563,2.563,0,0,0,.359.544Z"/>
        <path d="M157.654,258.8V248.776h1.23v3.6a2.747,2.747,0,0,1,2.174-1,2.927,2.927,0,0,1,1.4.317,1.867,1.867,0,0,1,.852.879,4.064,4.064,0,0,1,.256,1.627v4.6h-1.231v-4.6a1.9,1.9,0,0,0-.4-1.343,1.486,1.486,0,0,0-1.132-.42,2,2,0,0,0-1.029.283,1.6,1.6,0,0,0-.687.769,3.548,3.548,0,0,0-.205,1.34V258.8Z"/>
        <path d="M165.447,250.191v-1.415h1.23v1.415Zm0,8.607v-7.26h1.23v7.26Z"/>
        <path d="M168.55,258.8v-7.26h1.108v1.032a2.607,2.607,0,0,1,2.31-1.2,3.036,3.036,0,0,1,1.207.235,1.9,1.9,0,0,1,.824.62,2.348,2.348,0,0,1,.382.909,6.968,6.968,0,0,1,.069,1.2V258.8h-1.231v-4.416a3.338,3.338,0,0,0-.143-1.125,1.191,1.191,0,0,0-.51-.595,1.626,1.626,0,0,0-.858-.222,1.991,1.991,0,0,0-1.356.5,2.46,2.46,0,0,0-.571,1.894V258.8Z"/>
        <path d="M175.687,258.8v-1l4.621-5.305q-.786.04-1.388.041h-2.96v-1h5.934v.814l-3.931,4.607-.758.841q.826-.061,1.551-.062h3.357v1.06Z"/>
        <path d="M188.094,258.8v-1.067a2.656,2.656,0,0,1-2.3,1.231,2.935,2.935,0,0,1-1.2-.246,1.967,1.967,0,0,1-.827-.619,2.307,2.307,0,0,1-.38-.912,6.283,6.283,0,0,1-.075-1.149v-4.5h1.231v4.026a7.1,7.1,0,0,0,.075,1.3,1.279,1.279,0,0,0,.492.762,1.52,1.52,0,0,0,.93.277,2.018,2.018,0,0,0,1.039-.284,1.576,1.576,0,0,0,.687-.772,3.885,3.885,0,0,0,.2-1.418v-3.89H189.2v7.26Z"/>
        <path d="M191.417,258.8v-6.3H190.33v-.957h1.087v-.772a3.4,3.4,0,0,1,.129-1.087,1.582,1.582,0,0,1,.626-.777,2.255,2.255,0,0,1,1.254-.3,5.966,5.966,0,0,1,1.149.124l-.185,1.073a4.082,4.082,0,0,0-.724-.069,1.074,1.074,0,0,0-.793.24,1.3,1.3,0,0,0-.233.895v.67h1.415v.957H192.64v6.3Z"/>
        <path d="M199.77,258.8v-1.067a2.656,2.656,0,0,1-2.3,1.231,2.933,2.933,0,0,1-1.2-.246,1.977,1.977,0,0,1-.828-.619,2.321,2.321,0,0,1-.379-.912,6.283,6.283,0,0,1-.075-1.149v-4.5h1.23v4.026a7.066,7.066,0,0,0,.076,1.3,1.279,1.279,0,0,0,.492.762,1.519,1.519,0,0,0,.929.277,2.013,2.013,0,0,0,1.039-.284,1.567,1.567,0,0,0,.687-.772,3.86,3.86,0,0,0,.2-1.418v-3.89h1.231v7.26Zm-3.76-8.682v-1.4H197.3v1.4Zm2.55,0v-1.4h1.285v1.4Z"/>
        <path d="M202.573,259.4l1.2.178a1.141,1.141,0,0,0,.417.807,2.053,2.053,0,0,0,1.251.342,2.2,2.2,0,0,0,1.319-.342,1.684,1.684,0,0,0,.629-.957,7.813,7.813,0,0,0,.089-1.579,2.533,2.533,0,0,1-2.01.95,2.74,2.74,0,0,1-2.317-1.08,4.161,4.161,0,0,1-.82-2.591,4.819,4.819,0,0,1,.376-1.918,3,3,0,0,1,1.09-1.356,2.937,2.937,0,0,1,1.678-.479,2.6,2.6,0,0,1,2.119,1.039v-.875h1.135v6.275a5.958,5.958,0,0,1-.345,2.4,2.522,2.522,0,0,1-1.094,1.118,3.8,3.8,0,0,1-1.842.41,3.472,3.472,0,0,1-2.1-.585A1.976,1.976,0,0,1,202.573,259.4Zm1.018-4.361a3.145,3.145,0,0,0,.568,2.085,1.871,1.871,0,0,0,2.843,0,3.044,3.044,0,0,0,.575-2.047,2.98,2.98,0,0,0-.592-2.01,1.827,1.827,0,0,0-1.425-.676,1.771,1.771,0,0,0-1.394.666A2.958,2.958,0,0,0,203.591,255.038Z"/>
        <path d="M215.554,256.46l1.272.157a3.106,3.106,0,0,1-1.115,1.73,3.774,3.774,0,0,1-4.6-.367,3.831,3.831,0,0,1-.933-2.751,4.009,4.009,0,0,1,.944-2.843,3.192,3.192,0,0,1,2.447-1.012,3.1,3.1,0,0,1,2.379.991,3.937,3.937,0,0,1,.923,2.789c0,.073,0,.182-.007.328h-5.414a2.784,2.784,0,0,0,.677,1.832,2.012,2.012,0,0,0,1.517.636,1.886,1.886,0,0,0,1.155-.355A2.369,2.369,0,0,0,215.554,256.46Zm-4.04-1.989h4.054a2.456,2.456,0,0,0-.465-1.374,1.883,1.883,0,0,0-1.524-.711,1.955,1.955,0,0,0-1.426.567A2.245,2.245,0,0,0,211.514,254.471Z"/>
        <path d="M218.371,258.8v-7.26h1.107v1.032a2.608,2.608,0,0,1,2.311-1.2,3.034,3.034,0,0,1,1.206.235,1.9,1.9,0,0,1,.824.62,2.365,2.365,0,0,1,.383.909,7.1,7.1,0,0,1,.068,1.2V258.8h-1.23v-4.416a3.308,3.308,0,0,0-.144-1.125,1.193,1.193,0,0,0-.509-.595,1.631,1.631,0,0,0-.858-.222,1.991,1.991,0,0,0-1.357.5,2.463,2.463,0,0,0-.571,1.894V258.8Z"/>
      </g>
      <g>
        <path d="M136.29,114.994v-13.3h2.1v5.62h6.639v-5.62h2.1v13.3h-2.1v-6.019h-6.639v6.019Z"/>
        <path d="M150.97,102.594a1.059,1.059,0,0,1-.34-.84,1.082,1.082,0,0,1,.34-.859,1.366,1.366,0,0,1,.94-.3q1.28,0,1.279,1.16a1.073,1.073,0,0,1-.33.84,1.632,1.632,0,0,1-1.889,0Zm-.06,12.4v-9.64h2.02v9.64Z"/>
        <path d="M156.35,114.994v-9.1c.253-.081.543-.165.87-.25s.676-.167,1.05-.241.763-.133,1.169-.179a10.564,10.564,0,0,1,1.21-.071,7.749,7.749,0,0,1,1.67.17,3.786,3.786,0,0,1,1.34.561,2.635,2.635,0,0,1,.891,1.049,3.7,3.7,0,0,1,.32,1.621v6.439h-2.02v-6.359a2.311,2.311,0,0,0-.17-.941,1.487,1.487,0,0,0-.47-.6,1.853,1.853,0,0,0-.721-.31,4.349,4.349,0,0,0-.9-.09,7.95,7.95,0,0,0-1.16.09,10.189,10.189,0,0,0-1.06.21v8Z"/>
        <path d="M167.21,114.994v-1.32l5.62-6.82h-5.44v-1.5h7.9v1.3l-5.561,6.84h5.761v1.5Z"/>
        <path d="M179.77,111.734a2.189,2.189,0,0,0,.169.911,1.568,1.568,0,0,0,.47.6,1.777,1.777,0,0,0,.691.32,3.767,3.767,0,0,0,.849.09,7.434,7.434,0,0,0,1.14-.09,9.618,9.618,0,0,0,.96-.19v-8.02h2.02v9.121a14.355,14.355,0,0,1-1.91.5,11.6,11.6,0,0,1-2.25.219,7.258,7.258,0,0,1-1.6-.171,3.662,3.662,0,0,1-1.331-.569,2.784,2.784,0,0,1-.9-1.069,3.767,3.767,0,0,1-.33-1.67v-6.361h2.021Z"/>
        <path d="M189.909,114.994v-8.14H188.35v-1.5h1.559v-1.76a3.1,3.1,0,0,1,1.05-2.59,4.41,4.41,0,0,1,2.811-.83q.459,0,.959.041a7.714,7.714,0,0,1,.9.119l-.22,1.5c-.226-.026-.467-.053-.72-.08a7.244,7.244,0,0,0-.74-.039,3.285,3.285,0,0,0-.79.09,1.656,1.656,0,0,0-.639.3,1.447,1.447,0,0,0-.431.57,2.274,2.274,0,0,0-.159.92v1.76h3.119v1.5H191.93v8.14Z"/>
        <path d="M198.709,111.734a2.188,2.188,0,0,0,.17.911,1.551,1.551,0,0,0,.471.6,1.768,1.768,0,0,0,.689.32,3.779,3.779,0,0,0,.851.09,7.412,7.412,0,0,0,1.139-.09,9.676,9.676,0,0,0,.96-.19v-8.02h2.02v9.121a14.378,14.378,0,0,1-1.909.5,11.611,11.611,0,0,1-2.25.219,7.276,7.276,0,0,1-1.6-.171,3.658,3.658,0,0,1-1.33-.569,2.764,2.764,0,0,1-.9-1.069,3.753,3.753,0,0,1-.331-1.67v-6.361h2.02Zm-.54-9.019a.935.935,0,0,1-.279-.721.919.919,0,0,1,.289-.721,1.279,1.279,0,0,1,.87-.259,1.247,1.247,0,0,1,.85.259,1.041,1.041,0,0,1,0,1.442,1.237,1.237,0,0,1-.85.26A1.31,1.31,0,0,1,198.169,102.715Zm3.681,0a.933.933,0,0,1-.281-.721.923.923,0,0,1,.29-.721,1.248,1.248,0,0,1,.85-.259,1.288,1.288,0,0,1,.86.259,1.016,1.016,0,0,1,0,1.442,1.551,1.551,0,0,1-1.719,0Z"/>
        <path d="M208.829,116.975c.441.105.953.209,1.54.309a9.6,9.6,0,0,0,1.62.15,2.786,2.786,0,0,0,1.861-.51,2.1,2.1,0,0,0,.58-1.651v-.539q-.522.1-1.141.18a9.252,9.252,0,0,1-1.2.08,6.867,6.867,0,0,1-1.68-.2,3.175,3.175,0,0,1-1.4-.75,3.722,3.722,0,0,1-.949-1.51,7.338,7.338,0,0,1-.351-2.479,6.225,6.225,0,0,1,.38-2.321,3.975,3.975,0,0,1,1.02-1.509,3.807,3.807,0,0,1,1.51-.821,6.625,6.625,0,0,1,1.83-.25,9.687,9.687,0,0,1,2.04.22q1.02.221,1.96.521v9.16a4.911,4.911,0,0,1-.3,1.84,2.922,2.922,0,0,1-.87,1.2,3.5,3.5,0,0,1-1.38.66,7.767,7.767,0,0,1-1.85.2,12.685,12.685,0,0,1-1.82-.14,13.839,13.839,0,0,1-1.62-.32Zm5.6-9.981c-.268-.066-.577-.133-.931-.2a5.6,5.6,0,0,0-1.03-.1,3.643,3.643,0,0,0-1.02.14,1.882,1.882,0,0,0-.84.52,2.675,2.675,0,0,0-.57,1.031,5.611,5.611,0,0,0-.21,1.689,7.224,7.224,0,0,0,.17,1.74,2.5,2.5,0,0,0,.49,1.03,1.515,1.515,0,0,0,.77.49,3.848,3.848,0,0,0,.99.12,7.157,7.157,0,0,0,1.061-.08c.359-.054.732-.112,1.12-.18Z"/>
        <path d="M221.27,110.754a5.019,5.019,0,0,0,.179,1.269,2.081,2.081,0,0,0,.52.911,2.249,2.249,0,0,0,.96.541,5.433,5.433,0,0,0,1.52.179c.213,0,.447-.009.7-.03s.5-.05.75-.09.48-.08.7-.12.4-.08.549-.12l.18,1.479a12.419,12.419,0,0,1-1.41.291,10.979,10.979,0,0,1-1.69.13,9.171,9.171,0,0,1-2.08-.219,3.692,3.692,0,0,1-1.6-.791,3.74,3.74,0,0,1-1.029-1.539,6.987,6.987,0,0,1-.371-2.471,7.752,7.752,0,0,1,.31-2.36,3.854,3.854,0,0,1,.891-1.55,3.341,3.341,0,0,1,1.409-.85,6.186,6.186,0,0,1,1.85-.26,4.824,4.824,0,0,1,1.76.29,3.364,3.364,0,0,1,1.231.81,3.2,3.2,0,0,1,.719,1.26,5.565,5.565,0,0,1,.23,1.66v1.58Zm4.339-1.4q0-2.779-2.06-2.78a1.931,1.931,0,0,0-1.659.7,3.856,3.856,0,0,0-.6,2.081Z"/>
        <path d="M230.209,114.994v-9.1c.253-.081.543-.165.87-.25s.677-.167,1.05-.241.764-.133,1.17-.179a10.538,10.538,0,0,1,1.21-.071,7.762,7.762,0,0,1,1.67.17,3.793,3.793,0,0,1,1.34.561,2.641,2.641,0,0,1,.89,1.049,3.7,3.7,0,0,1,.32,1.621v6.439h-2.02v-6.359a2.311,2.311,0,0,0-.17-.941,1.47,1.47,0,0,0-.47-.6,1.855,1.855,0,0,0-.72-.31,4.358,4.358,0,0,0-.9-.09,7.95,7.95,0,0,0-1.16.09,10.242,10.242,0,0,0-1.06.21v8Z"/>
      </g>
      <polygon points="206 161 191 161 191 176 186 176 186 161 172 161 172 156 186 156 186 141 191 141 191 156 206 156 206 161" fill="#5b5d5e"/>
      <g>
        <path d="M187.137,218.333c.231-3.425.941-16.878-1.071-25.614" fill="none" stroke="#000" stroke-miterlimit="10"/>
        <polygon points="190.708 195.133 190.131 195.951 186.105 193.104 183.559 197.327 182.703 196.809 185.805 191.666 190.708 195.133"/>
      </g>
    </g>
    <g>
      <g>
        <path d="M278.637,242V231.977h1.326V242Z"/>
        <path d="M282.144,242v-7.26h1.107v1.033a2.609,2.609,0,0,1,2.311-1.2,3,3,0,0,1,1.206.237,1.887,1.887,0,0,1,.824.618,2.371,2.371,0,0,1,.383.909,7.121,7.121,0,0,1,.068,1.2V242h-1.23v-4.416a3.308,3.308,0,0,0-.144-1.125,1.187,1.187,0,0,0-.509-.594,1.622,1.622,0,0,0-.858-.222,1.991,1.991,0,0,0-1.357.5,2.46,2.46,0,0,0-.571,1.893V242Z"/>
        <path d="M289.93,242V231.977h1.23v3.595a2.747,2.747,0,0,1,2.174-1,2.915,2.915,0,0,1,1.4.319,1.849,1.849,0,0,1,.851.878,4.045,4.045,0,0,1,.257,1.626V242h-1.231v-4.6a1.894,1.894,0,0,0-.4-1.342,1.479,1.479,0,0,0-1.131-.421,2,2,0,0,0-1.029.284,1.6,1.6,0,0,0-.687.769,3.542,3.542,0,0,0-.2,1.339V242Z"/>
        <path d="M302.453,241.1a4.562,4.562,0,0,1-1.316.82,3.812,3.812,0,0,1-1.357.239,2.645,2.645,0,0,1-1.839-.584,1.933,1.933,0,0,1-.642-1.494,2.025,2.025,0,0,1,.878-1.682,3,3,0,0,1,.886-.4,8.834,8.834,0,0,1,1.093-.185,11.314,11.314,0,0,0,2.195-.423c0-.168.006-.276.006-.322a1.359,1.359,0,0,0-.348-1.059,2.062,2.062,0,0,0-1.4-.417,2.179,2.179,0,0,0-1.281.3,1.864,1.864,0,0,0-.612,1.078l-1.2-.164a2.965,2.965,0,0,1,.54-1.247,2.365,2.365,0,0,1,1.087-.733,4.869,4.869,0,0,1,1.647-.256,4.332,4.332,0,0,1,1.511.219,1.982,1.982,0,0,1,.854.551,1.923,1.923,0,0,1,.383.837,6.913,6.913,0,0,1,.062,1.134v1.641a17.571,17.571,0,0,0,.078,2.171,2.765,2.765,0,0,0,.311.871H302.7A2.642,2.642,0,0,1,302.453,241.1Zm-.1-2.749a9.02,9.02,0,0,1-2.01.465,4.758,4.758,0,0,0-1.073.246,1.072,1.072,0,0,0-.486.4,1.087,1.087,0,0,0,.2,1.405,1.6,1.6,0,0,0,1.09.328,2.532,2.532,0,0,0,1.265-.311,1.912,1.912,0,0,0,.813-.851,2.955,2.955,0,0,0,.2-1.23Z"/>
        <path d="M305.475,242V231.977h1.23V242Z"/>
        <path d="M311.3,240.9l.178,1.087a4.574,4.574,0,0,1-.93.11,2.106,2.106,0,0,1-1.039-.212,1.188,1.188,0,0,1-.52-.558,4.408,4.408,0,0,1-.15-1.452V235.7h-.9v-.957h.9v-1.8l1.224-.738v2.536H311.3v.957h-1.237v4.245a2.16,2.16,0,0,0,.064.677.516.516,0,0,0,.212.239.816.816,0,0,0,.421.089A3.826,3.826,0,0,0,311.3,240.9Z"/>
        <path d="M317.472,239.66l1.271.157a3.1,3.1,0,0,1-1.114,1.73,3.777,3.777,0,0,1-4.6-.365,3.838,3.838,0,0,1-.933-2.752,4.011,4.011,0,0,1,.943-2.844,3.2,3.2,0,0,1,2.447-1.012,3.1,3.1,0,0,1,2.379.991,3.938,3.938,0,0,1,.923,2.789c0,.074,0,.183-.007.329h-5.414a2.791,2.791,0,0,0,.677,1.832,2.018,2.018,0,0,0,1.518.635,1.888,1.888,0,0,0,1.155-.355A2.355,2.355,0,0,0,317.472,239.66Zm-4.04-1.989h4.053a2.457,2.457,0,0,0-.464-1.374,1.885,1.885,0,0,0-1.525-.711,1.955,1.955,0,0,0-1.425.567A2.245,2.245,0,0,0,313.432,237.671Z"/>
        <path d="M326.864,240.9l.178,1.087a4.558,4.558,0,0,1-.93.11,2.109,2.109,0,0,1-1.039-.212,1.186,1.186,0,0,1-.519-.558,4.4,4.4,0,0,1-.151-1.452V235.7h-.9v-.957h.9v-1.8l1.224-.738v2.536h1.237v.957h-1.237v4.245a2.118,2.118,0,0,0,.065.677.51.51,0,0,0,.212.239.81.81,0,0,0,.42.089A3.826,3.826,0,0,0,326.864,240.9Z"/>
        <path d="M333.037,239.66l1.272.157a3.1,3.1,0,0,1-1.115,1.73,3.777,3.777,0,0,1-4.6-.365,3.838,3.838,0,0,1-.933-2.752,4.012,4.012,0,0,1,.944-2.844,3.193,3.193,0,0,1,2.447-1.012,3.1,3.1,0,0,1,2.379.991,3.942,3.942,0,0,1,.923,2.789c0,.074,0,.183-.007.329h-5.414a2.791,2.791,0,0,0,.676,1.832,2.018,2.018,0,0,0,1.518.635,1.888,1.888,0,0,0,1.155-.355A2.355,2.355,0,0,0,333.037,239.66ZM329,237.671h4.054a2.464,2.464,0,0,0-.465-1.374,1.883,1.883,0,0,0-1.524-.711,1.957,1.957,0,0,0-1.426.567A2.245,2.245,0,0,0,329,237.671Z"/>
        <path d="M335.86,233.392v-1.415h1.231v1.415Zm0,8.606v-7.26h1.231V242Z"/>
        <path d="M338.937,242V231.977h1.23V242Z"/>
        <path d="M347.044,239.66l1.271.157a3.092,3.092,0,0,1-1.114,1.73,3.777,3.777,0,0,1-4.6-.365,3.838,3.838,0,0,1-.933-2.752,4.016,4.016,0,0,1,.943-2.844,3.2,3.2,0,0,1,2.448-1.012,3.105,3.105,0,0,1,2.379.991,3.942,3.942,0,0,1,.922,2.789c0,.074,0,.183-.006.329h-5.414a2.791,2.791,0,0,0,.676,1.832,2.018,2.018,0,0,0,1.518.635,1.888,1.888,0,0,0,1.155-.355A2.355,2.355,0,0,0,347.044,239.66ZM343,237.671h4.054a2.464,2.464,0,0,0-.465-1.374,1.883,1.883,0,0,0-1.525-.711,1.955,1.955,0,0,0-1.425.567A2.245,2.245,0,0,0,343,237.671Z"/>
        <path d="M349.86,242v-7.26h1.108v1.033a2.608,2.608,0,0,1,2.31-1.2,3,3,0,0,1,1.207.237,1.893,1.893,0,0,1,.824.618,2.355,2.355,0,0,1,.382.909,6.984,6.984,0,0,1,.069,1.2V242h-1.231v-4.416a3.338,3.338,0,0,0-.143-1.125,1.184,1.184,0,0,0-.51-.594,1.616,1.616,0,0,0-.857-.222,1.991,1.991,0,0,0-1.357.5,2.46,2.46,0,0,0-.571,1.893V242Z"/>
        <path d="M357.968,242v-1.4h1.4V242a2.491,2.491,0,0,1-.273,1.248,1.779,1.779,0,0,1-.868.734l-.342-.526a1.163,1.163,0,0,0,.574-.5,2.146,2.146,0,0,0,.205-.953Z"/>
        <path d="M275.427,256.631l1.217-.192a1.7,1.7,0,0,0,.571,1.122,1.992,1.992,0,0,0,1.309.389,1.926,1.926,0,0,0,1.258-.345,1.033,1.033,0,0,0,.41-.81.749.749,0,0,0-.362-.656,5.333,5.333,0,0,0-1.258-.417,11.535,11.535,0,0,1-1.877-.591,1.8,1.8,0,0,1-1.063-1.665,1.892,1.892,0,0,1,.222-.9,2,2,0,0,1,.605-.686,2.533,2.533,0,0,1,.783-.359,3.726,3.726,0,0,1,1.063-.147,4.206,4.206,0,0,1,1.5.246,2.037,2.037,0,0,1,.953.667,2.6,2.6,0,0,1,.424,1.124l-1.2.164a1.317,1.317,0,0,0-.475-.875,1.735,1.735,0,0,0-1.111-.314,2.012,2.012,0,0,0-1.21.28.816.816,0,0,0-.362.656.681.681,0,0,0,.15.431,1.084,1.084,0,0,0,.472.328c.123.046.485.15,1.087.315a14.97,14.97,0,0,1,1.822.571,1.843,1.843,0,0,1,.81.645,1.813,1.813,0,0,1,.294,1.053,2.071,2.071,0,0,1-.359,1.159,2.318,2.318,0,0,1-1.036.84,3.754,3.754,0,0,1-1.531.3,3.411,3.411,0,0,1-2.157-.588A2.736,2.736,0,0,1,275.427,256.631Z"/>
        <path d="M282.919,261.58V251.538h1.122v.943a2.785,2.785,0,0,1,.895-.831,2.479,2.479,0,0,1,1.21-.276,2.862,2.862,0,0,1,1.641.479,2.934,2.934,0,0,1,1.073,1.35,4.913,4.913,0,0,1,.362,1.91,4.845,4.845,0,0,1-.4,2.006,3.043,3.043,0,0,1-2.765,1.843,2.319,2.319,0,0,1-1.1-.26,2.493,2.493,0,0,1-.8-.656v3.534Zm1.115-6.371a3.158,3.158,0,0,0,.567,2.071,1.74,1.74,0,0,0,1.374.67,1.778,1.778,0,0,0,1.4-.694,3.289,3.289,0,0,0,.584-2.15,3.212,3.212,0,0,0-.57-2.078,1.719,1.719,0,0,0-1.364-.69,1.773,1.773,0,0,0-1.391.734A3.289,3.289,0,0,0,284.034,255.209Z"/>
        <path d="M295.675,256.46l1.272.157a3.11,3.11,0,0,1-1.114,1.73,3.353,3.353,0,0,1-2.079.615,3.315,3.315,0,0,1-2.525-.982,3.825,3.825,0,0,1-.934-2.751,4.011,4.011,0,0,1,.944-2.843,3.192,3.192,0,0,1,2.447-1.012,3.106,3.106,0,0,1,2.379.991,3.937,3.937,0,0,1,.923,2.789c0,.073,0,.182-.007.328h-5.414a2.784,2.784,0,0,0,.677,1.832,2.012,2.012,0,0,0,1.517.636,1.885,1.885,0,0,0,1.156-.355A2.375,2.375,0,0,0,295.675,256.46Zm-4.04-1.989h4.054a2.458,2.458,0,0,0-.465-1.374,1.886,1.886,0,0,0-1.524-.711,1.955,1.955,0,0,0-1.426.567A2.249,2.249,0,0,0,291.635,254.471Z"/>
        <path d="M298.5,250.191v-1.415h1.23v1.415Zm0,8.607v-7.26h1.23v7.26Z"/>
        <path d="M306.339,256.139l1.21.157a3.132,3.132,0,0,1-1.015,1.958,2.949,2.949,0,0,1-2.006.708,3.118,3.118,0,0,1-2.4-.974,3.953,3.953,0,0,1-.906-2.793,5.05,5.05,0,0,1,.39-2.057,2.72,2.72,0,0,1,1.186-1.324,3.527,3.527,0,0,1,1.733-.44,3,3,0,0,1,1.934.6,2.736,2.736,0,0,1,.964,1.7l-1.2.184a1.986,1.986,0,0,0-.605-1.1,1.566,1.566,0,0,0-1.049-.369,1.9,1.9,0,0,0-1.511.667,3.16,3.16,0,0,0-.581,2.108,3.272,3.272,0,0,0,.56,2.126,1.826,1.826,0,0,0,1.463.663,1.721,1.721,0,0,0,1.21-.444A2.2,2.2,0,0,0,306.339,256.139Z"/>
        <path d="M308.6,258.8V248.776h1.231v3.6a2.748,2.748,0,0,1,2.173-1,2.945,2.945,0,0,1,1.4.317,1.878,1.878,0,0,1,.851.879,4.046,4.046,0,0,1,.256,1.627v4.6h-1.23v-4.6a1.9,1.9,0,0,0-.4-1.343,1.489,1.489,0,0,0-1.132-.42,1.993,1.993,0,0,0-1.028.283,1.593,1.593,0,0,0-.687.769,3.531,3.531,0,0,0-.2,1.34V258.8Z"/>
        <path d="M321.358,256.46l1.271.157a3.1,3.1,0,0,1-1.114,1.73,3.774,3.774,0,0,1-4.6-.367,3.829,3.829,0,0,1-.933-2.751,4.01,4.01,0,0,1,.943-2.843,3.193,3.193,0,0,1,2.448-1.012,3.109,3.109,0,0,1,2.379.991,3.937,3.937,0,0,1,.922,2.789c0,.073,0,.182-.006.328H317.25a2.789,2.789,0,0,0,.676,1.832,2.016,2.016,0,0,0,1.518.636,1.882,1.882,0,0,0,1.155-.355A2.369,2.369,0,0,0,321.358,256.46Zm-4.04-1.989h4.054a2.458,2.458,0,0,0-.465-1.374,1.886,1.886,0,0,0-1.525-.711,1.951,1.951,0,0,0-1.425.567A2.249,2.249,0,0,0,317.318,254.471Z"/>
        <path d="M324.161,258.8v-7.26h1.107v1.1a3,3,0,0,1,.783-1.019,1.365,1.365,0,0,1,.789-.246,2.394,2.394,0,0,1,1.265.4l-.424,1.141a1.756,1.756,0,0,0-.9-.266,1.173,1.173,0,0,0-.725.243,1.313,1.313,0,0,0-.458.673,4.78,4.78,0,0,0-.2,1.435v3.8Z"/>
        <path d="M328.836,258.8v-7.26h1.108v1.032a2.61,2.61,0,0,1,2.31-1.2,3.053,3.053,0,0,1,1.207.235,1.906,1.906,0,0,1,.824.62,2.361,2.361,0,0,1,.382.909,6.968,6.968,0,0,1,.069,1.2V258.8h-1.231v-4.416a3.306,3.306,0,0,0-.143-1.124,1.191,1.191,0,0,0-.509-.6,1.631,1.631,0,0,0-.858-.222,2,2,0,0,0-1.357.5,2.46,2.46,0,0,0-.571,1.894V258.8Z"/>
        <path d="M345.27,258.8v-1.067a2.656,2.656,0,0,1-2.3,1.231,2.933,2.933,0,0,1-1.2-.246,1.983,1.983,0,0,1-.828-.618,2.326,2.326,0,0,1-.379-.913,6.268,6.268,0,0,1-.075-1.149v-4.5h1.23v4.026a7.059,7.059,0,0,0,.076,1.3,1.273,1.273,0,0,0,.492.762,1.513,1.513,0,0,0,.929.277,2.022,2.022,0,0,0,1.039-.283,1.573,1.573,0,0,0,.687-.773,3.86,3.86,0,0,0,.2-1.418v-3.89h1.231v7.26Z"/>
        <path d="M348.3,258.8v-7.26h1.108v1.032a2.61,2.61,0,0,1,2.31-1.2,3.053,3.053,0,0,1,1.207.235,1.912,1.912,0,0,1,.824.62,2.361,2.361,0,0,1,.382.909,6.968,6.968,0,0,1,.069,1.2V258.8h-1.231v-4.416a3.332,3.332,0,0,0-.143-1.124,1.189,1.189,0,0,0-.51-.6,1.625,1.625,0,0,0-.857-.222,2,2,0,0,0-1.357.5,2.46,2.46,0,0,0-.571,1.894V258.8Z"/>
        <path d="M360.794,258.8v-.916a2.258,2.258,0,0,1-2.03,1.08,2.84,2.84,0,0,1-1.6-.479,3.147,3.147,0,0,1-1.128-1.337,4.6,4.6,0,0,1-.4-1.971A5.169,5.169,0,0,1,356,253.2a2.855,2.855,0,0,1,1.087-1.357,2.9,2.9,0,0,1,1.62-.472,2.435,2.435,0,0,1,1.169.276,2.46,2.46,0,0,1,.834.722v-3.6h1.224V258.8Zm-3.889-3.623a3.155,3.155,0,0,0,.588,2.085,1.769,1.769,0,0,0,1.387.69,1.742,1.742,0,0,0,1.371-.659,3.043,3.043,0,0,0,.564-2.014,3.411,3.411,0,0,0-.574-2.187,1.766,1.766,0,0,0-1.415-.7,1.7,1.7,0,0,0-1.371.67A3.3,3.3,0,0,0,356.905,255.175Z"/>
        <path d="M276.511,275.6l-2.762-7.26h1.3l1.558,4.348q.253.7.465,1.462.165-.573.458-1.38l1.614-4.43h1.264l-2.748,7.26Z"/>
        <path d="M286.464,273.26l1.271.158a3.094,3.094,0,0,1-1.114,1.728,3.773,3.773,0,0,1-4.6-.365,3.834,3.834,0,0,1-.933-2.752,4.01,4.01,0,0,1,.943-2.843,3.2,3.2,0,0,1,2.448-1.012,3.106,3.106,0,0,1,2.379.992,3.937,3.937,0,0,1,.922,2.789c0,.072,0,.182-.006.328h-5.415a2.791,2.791,0,0,0,.677,1.832,2.015,2.015,0,0,0,1.518.635,1.882,1.882,0,0,0,1.155-.355A2.364,2.364,0,0,0,286.464,273.26Zm-4.04-1.989h4.054a2.468,2.468,0,0,0-.465-1.375,1.888,1.888,0,0,0-1.525-.71,1.952,1.952,0,0,0-1.425.568A2.245,2.245,0,0,0,282.424,271.271Z"/>
        <path d="M289.267,275.6v-7.26h1.107v1.1a3,3,0,0,1,.783-1.019,1.365,1.365,0,0,1,.789-.246,2.41,2.41,0,0,1,1.265.4l-.424,1.143a1.759,1.759,0,0,0-.9-.268,1.18,1.18,0,0,0-.725.243,1.315,1.315,0,0,0-.458.673,4.787,4.787,0,0,0-.2,1.436v3.8Z"/>
        <path d="M293.484,271.969a3.747,3.747,0,0,1,1.121-2.989,3.384,3.384,0,0,1,2.284-.806,3.26,3.26,0,0,1,2.447.981,3.734,3.734,0,0,1,.95,2.71,4.805,4.805,0,0,1-.42,2.2,2.986,2.986,0,0,1-1.224,1.248,3.566,3.566,0,0,1-1.753.444,3.264,3.264,0,0,1-2.465-.977A3.908,3.908,0,0,1,293.484,271.969Zm1.265,0a3.1,3.1,0,0,0,.608,2.088,2.027,2.027,0,0,0,3.056,0,3.162,3.162,0,0,0,.608-2.125,3,3,0,0,0-.611-2.041,2.03,2.03,0,0,0-3.053,0A3.085,3.085,0,0,0,294.749,271.969Zm.219-5.053v-1.4h1.285v1.4Zm2.55,0v-1.4H298.8v1.4Z"/>
        <path d="M302.022,275.6v-6.3h-1.086v-.957h1.086v-.772a3.4,3.4,0,0,1,.13-1.087,1.574,1.574,0,0,1,.626-.776,2.255,2.255,0,0,1,1.254-.3,6.04,6.04,0,0,1,1.149.123L305,266.6a4.18,4.18,0,0,0-.725-.069,1.073,1.073,0,0,0-.792.24,1.3,1.3,0,0,0-.233.895v.67h1.415v.957h-1.415v6.3Z"/>
        <path d="M305.659,275.6v-6.3h-1.087v-.957h1.087v-.772a3.4,3.4,0,0,1,.13-1.087,1.574,1.574,0,0,1,.626-.776,2.253,2.253,0,0,1,1.254-.3,6.022,6.022,0,0,1,1.148.123l-.184,1.073a4.2,4.2,0,0,0-.725-.069,1.077,1.077,0,0,0-.793.24,1.3,1.3,0,0,0-.232.895v.67H308.3v.957h-1.415v6.3Z"/>
        <path d="M314.225,273.26l1.271.158a3.1,3.1,0,0,1-1.114,1.728,3.773,3.773,0,0,1-4.6-.365,3.834,3.834,0,0,1-.933-2.752,4.01,4.01,0,0,1,.943-2.843,3.2,3.2,0,0,1,2.447-1.012,3.1,3.1,0,0,1,2.379.992,3.937,3.937,0,0,1,.923,2.789c0,.072,0,.182-.007.328h-5.414a2.791,2.791,0,0,0,.677,1.832,2.015,2.015,0,0,0,1.518.635,1.882,1.882,0,0,0,1.155-.355A2.364,2.364,0,0,0,314.225,273.26Zm-4.04-1.989h4.053a2.453,2.453,0,0,0-.465-1.375,1.886,1.886,0,0,0-1.524-.71,1.952,1.952,0,0,0-1.425.568A2.24,2.24,0,0,0,310.185,271.271Z"/>
        <path d="M317.041,275.6v-7.26h1.107v1.033a2.611,2.611,0,0,1,2.311-1.2,3.04,3.04,0,0,1,1.207.236,1.892,1.892,0,0,1,.823.619,2.378,2.378,0,0,1,.383.909,7.119,7.119,0,0,1,.068,1.2V275.6h-1.23v-4.416a3.306,3.306,0,0,0-.144-1.124,1.176,1.176,0,0,0-.509-.595,1.613,1.613,0,0,0-.858-.223,1.994,1.994,0,0,0-1.357.5,2.461,2.461,0,0,0-.571,1.893V275.6Z"/>
        <path d="M327.514,274.5l.177,1.086a4.55,4.55,0,0,1-.929.109,2.107,2.107,0,0,1-1.039-.211,1.19,1.19,0,0,1-.52-.557,4.412,4.412,0,0,1-.15-1.452V269.3h-.9v-.957h.9v-1.8l1.223-.738v2.535h1.238v.957h-1.238v4.246a2.146,2.146,0,0,0,.065.676.523.523,0,0,0,.212.24.825.825,0,0,0,.421.088A4.137,4.137,0,0,0,327.514,274.5Z"/>
        <path d="M328.689,275.6V265.576h1.231V275.6Z"/>
        <path d="M331.834,266.992v-1.416h1.23v1.416Zm0,8.606v-7.26h1.23v7.26Z"/>
        <path d="M339.675,272.939l1.21.157a3.147,3.147,0,0,1-1.015,1.959,2.963,2.963,0,0,1-2.007.707,3.116,3.116,0,0,1-2.4-.974,3.95,3.95,0,0,1-.9-2.792,5.048,5.048,0,0,1,.389-2.058,2.718,2.718,0,0,1,1.186-1.323,3.52,3.52,0,0,1,1.733-.441,3.012,3.012,0,0,1,1.935.6,2.751,2.751,0,0,1,.964,1.7l-1.2.185a1.983,1.983,0,0,0-.605-1.1,1.565,1.565,0,0,0-1.049-.369,1.908,1.908,0,0,0-1.511.667,3.164,3.164,0,0,0-.581,2.108,3.27,3.27,0,0,0,.561,2.127,1.825,1.825,0,0,0,1.463.662,1.725,1.725,0,0,0,1.21-.443A2.213,2.213,0,0,0,339.675,272.939Z"/>
        <path d="M341.938,275.6V265.576h1.23v3.6a2.75,2.75,0,0,1,2.174-1,2.93,2.93,0,0,1,1.4.318,1.864,1.864,0,0,1,.851.879,4.044,4.044,0,0,1,.257,1.627v4.6H346.62V271a1.9,1.9,0,0,0-.4-1.344,1.486,1.486,0,0,0-1.131-.42,1.986,1.986,0,0,0-1.029.284,1.6,1.6,0,0,0-.687.769,3.524,3.524,0,0,0-.2,1.34V275.6Z"/>
        <path d="M354.693,273.26l1.272.158a3.1,3.1,0,0,1-1.114,1.728,3.773,3.773,0,0,1-4.6-.365,3.834,3.834,0,0,1-.934-2.752,4.011,4.011,0,0,1,.944-2.843,3.2,3.2,0,0,1,2.447-1.012,3.1,3.1,0,0,1,2.379.992,3.937,3.937,0,0,1,.923,2.789c0,.072,0,.182-.007.328h-5.414a2.786,2.786,0,0,0,.677,1.832,2.011,2.011,0,0,0,1.517.635,1.885,1.885,0,0,0,1.156-.355A2.37,2.37,0,0,0,354.693,273.26Zm-4.04-1.989h4.054a2.46,2.46,0,0,0-.465-1.375,1.888,1.888,0,0,0-1.524-.71,1.956,1.956,0,0,0-1.426.568A2.245,2.245,0,0,0,350.653,271.271Z"/>
        <path d="M357.51,275.6v-7.26h1.107v1.033a2.609,2.609,0,0,1,2.311-1.2,3.031,3.031,0,0,1,1.206.236,1.889,1.889,0,0,1,.824.619,2.378,2.378,0,0,1,.383.909,7.119,7.119,0,0,1,.068,1.2V275.6h-1.23v-4.416a3.306,3.306,0,0,0-.144-1.124,1.18,1.18,0,0,0-.509-.595,1.613,1.613,0,0,0-.858-.223,1.992,1.992,0,0,0-1.357.5,2.461,2.461,0,0,0-.571,1.893V275.6Z"/>
      </g>
      <g>
        <path d="M276.593,114.994v-13.3h8.08v1.579h-5.98v4.362h5.24v1.58h-5.24v5.779Z"/>
        <path d="M287.113,114.994v-9.1a15.577,15.577,0,0,1,2.49-.551,20.378,20.378,0,0,1,2.75-.17v1.6c-.147-.011-.3-.019-.46-.019h-.48a9.43,9.43,0,0,0-1.24.08,8.107,8.107,0,0,0-1.04.2v7.96Z"/>
        <path d="M295.453,110.754a5.065,5.065,0,0,0,.179,1.269,2.091,2.091,0,0,0,.52.911,2.255,2.255,0,0,0,.96.541,5.438,5.438,0,0,0,1.52.179c.214,0,.447-.009.7-.03s.5-.05.75-.09.48-.08.7-.12.4-.08.55-.12l.18,1.479a12.512,12.512,0,0,1-1.41.291,11,11,0,0,1-1.69.13,9.165,9.165,0,0,1-2.08-.219,3.7,3.7,0,0,1-1.6-.791,3.74,3.74,0,0,1-1.029-1.539,7.012,7.012,0,0,1-.37-2.471,7.752,7.752,0,0,1,.31-2.36,3.853,3.853,0,0,1,.89-1.55,3.347,3.347,0,0,1,1.409-.85,6.186,6.186,0,0,1,1.85-.26,4.83,4.83,0,0,1,1.761.29,3.36,3.36,0,0,1,1.23.81,3.2,3.2,0,0,1,.719,1.26,5.565,5.565,0,0,1,.23,1.66v1.58Zm4.339-1.4q0-2.779-2.06-2.78a1.934,1.934,0,0,0-1.659.7,3.856,3.856,0,0,0-.6,2.081Z"/>
        <path d="M304.472,102.594a1.062,1.062,0,0,1-.34-.84,1.085,1.085,0,0,1,.34-.859,1.369,1.369,0,0,1,.941-.3q1.279,0,1.279,1.16a1.073,1.073,0,0,1-.33.84,1.634,1.634,0,0,1-1.89,0Zm-.059,12.4v-9.64h2.02v9.64Z"/>
        <path d="M310.272,116.975q.66.157,1.541.309a9.576,9.576,0,0,0,1.619.15,2.781,2.781,0,0,0,1.86-.51,2.093,2.093,0,0,0,.581-1.651v-.539c-.348.067-.727.127-1.141.18a9.252,9.252,0,0,1-1.2.08,6.853,6.853,0,0,1-1.679-.2,3.179,3.179,0,0,1-1.4-.75,3.734,3.734,0,0,1-.95-1.51,7.365,7.365,0,0,1-.35-2.479,6.225,6.225,0,0,1,.38-2.321,3.964,3.964,0,0,1,1.02-1.509,3.8,3.8,0,0,1,1.511-.821,6.614,6.614,0,0,1,1.83-.25,9.692,9.692,0,0,1,2.039.22q1.02.221,1.961.521v9.16a4.93,4.93,0,0,1-.3,1.84,2.9,2.9,0,0,1-.87,1.2,3.5,3.5,0,0,1-1.38.66,7.761,7.761,0,0,1-1.85.2,12.7,12.7,0,0,1-1.82-.14,13.839,13.839,0,0,1-1.62-.32Zm5.6-9.981q-.4-.1-.931-.2a5.6,5.6,0,0,0-1.03-.1,3.626,3.626,0,0,0-1.019.14,1.874,1.874,0,0,0-.841.52,2.688,2.688,0,0,0-.57,1.031,5.611,5.611,0,0,0-.21,1.689,7.224,7.224,0,0,0,.17,1.74,2.524,2.524,0,0,0,.49,1.03,1.519,1.519,0,0,0,.77.49,3.843,3.843,0,0,0,.99.12,7.123,7.123,0,0,0,1.06-.08c.36-.054.733-.112,1.121-.18Z"/>
        <path d="M322.712,110.754a5.109,5.109,0,0,0,.18,1.269,2.081,2.081,0,0,0,.52.911,2.249,2.249,0,0,0,.96.541,5.433,5.433,0,0,0,1.52.179c.213,0,.447-.009.7-.03s.5-.05.75-.09.48-.08.7-.12.4-.08.55-.12l.18,1.479a12.419,12.419,0,0,1-1.41.291,10.979,10.979,0,0,1-1.69.13,9.177,9.177,0,0,1-2.08-.219,3.692,3.692,0,0,1-1.6-.791,3.751,3.751,0,0,1-1.03-1.539,7.012,7.012,0,0,1-.37-2.471,7.752,7.752,0,0,1,.31-2.36,3.865,3.865,0,0,1,.89-1.55,3.357,3.357,0,0,1,1.41-.85,6.181,6.181,0,0,1,1.85-.26,4.834,4.834,0,0,1,1.761.29,3.355,3.355,0,0,1,1.229.81,3.188,3.188,0,0,1,.72,1.26,5.565,5.565,0,0,1,.23,1.66v1.58Zm4.34-1.4q0-2.779-2.06-2.78a1.932,1.932,0,0,0-1.659.7,3.856,3.856,0,0,0-.6,2.081Z"/>
        <path d="M333.612,105.454c.373-.08.76-.149,1.16-.21a7.944,7.944,0,0,1,1.18-.09,5.758,5.758,0,0,1,1.72.25,3.4,3.4,0,0,1,1.39.83,3.907,3.907,0,0,1,.92,1.52,7.14,7.14,0,0,1,.33,2.34,7.277,7.277,0,0,1-.36,2.48,4.118,4.118,0,0,1-.97,1.571,3.332,3.332,0,0,1-1.44.82,6.653,6.653,0,0,1-1.77.229q-.48,0-1.03-.049t-1.1-.131c-.367-.053-.727-.114-1.08-.18s-.677-.14-.97-.22V100.4h2.02Zm0,7.98q.519.1,1.06.17a8.359,8.359,0,0,0,1.06.07,3.317,3.317,0,0,0,1.04-.151,1.6,1.6,0,0,0,.78-.558,2.912,2.912,0,0,0,.49-1.1,7.616,7.616,0,0,0,.17-1.77,6.786,6.786,0,0,0-.17-1.67,2.7,2.7,0,0,0-.49-1.039,1.671,1.671,0,0,0-.75-.541,2.868,2.868,0,0,0-.95-.15,7.436,7.436,0,0,0-1.12.09q-.58.09-1.12.21Z"/>
        <path d="M344.432,110.754a5.017,5.017,0,0,0,.18,1.269,2.081,2.081,0,0,0,.52.911,2.249,2.249,0,0,0,.96.541,5.433,5.433,0,0,0,1.52.179c.213,0,.447-.009.7-.03s.5-.05.75-.09.48-.08.7-.12.4-.08.55-.12l.18,1.479a12.465,12.465,0,0,1-1.41.291,10.988,10.988,0,0,1-1.69.13,9.171,9.171,0,0,1-2.08-.219,3.692,3.692,0,0,1-1.6-.791,3.751,3.751,0,0,1-1.03-1.539,7.012,7.012,0,0,1-.37-2.471,7.752,7.752,0,0,1,.31-2.36,3.865,3.865,0,0,1,.89-1.55,3.351,3.351,0,0,1,1.41-.85,6.181,6.181,0,0,1,1.85-.26,4.824,4.824,0,0,1,1.76.29,3.351,3.351,0,0,1,1.23.81,3.2,3.2,0,0,1,.72,1.26,5.6,5.6,0,0,1,.23,1.66v1.58Zm4.34-1.4q0-2.779-2.06-2.78a1.934,1.934,0,0,0-1.66.7,3.856,3.856,0,0,0-.6,2.081Z"/>
        <path d="M353.372,114.994v-9.1c.253-.081.543-.165.87-.25s.676-.167,1.05-.241.763-.133,1.17-.179a10.538,10.538,0,0,1,1.21-.071,7.762,7.762,0,0,1,1.67.17,3.793,3.793,0,0,1,1.34.561,2.641,2.641,0,0,1,.89,1.049,3.7,3.7,0,0,1,.32,1.621v6.439h-2.02v-6.359a2.311,2.311,0,0,0-.17-.941,1.479,1.479,0,0,0-.47-.6,1.855,1.855,0,0,0-.72-.31,4.358,4.358,0,0,0-.9-.09,7.95,7.95,0,0,0-1.16.09,10.242,10.242,0,0,0-1.06.21v8Z"/>
      </g>
      <g>
        <path d="M319.483,218.333c.231-3.425.941-16.878-1.071-25.614" fill="none" stroke="#000" stroke-miterlimit="10"/>
        <polygon points="323.054 195.133 322.477 195.951 318.452 193.104 315.905 197.327 315.049 196.809 318.151 191.666 323.054 195.133"/>
      </g>
      <path d="M338.513,152.961l-17.826,17.668V159.543a26.646,26.646,0,0,0-6.72,1.715,25.022,25.022,0,0,0-5.763,3.23,23.65,23.65,0,0,0-4.527,4.465,20.549,20.549,0,0,0-3.01,5.424,18.777,18.777,0,0,1-1.237-6.7,19.24,19.24,0,0,1,1.615-7.8,21.444,21.444,0,0,1,4.467-6.561,24.913,24.913,0,0,1,6.74-4.785,26.218,26.218,0,0,1,8.435-2.472V135.295Zm-14.636-4.027-2.792.318a23.2,23.2,0,0,0-6.46,1.717,21.738,21.738,0,0,0-5.5,3.369,19.248,19.248,0,0,0-4.068,4.746,16.806,16.806,0,0,0-2.193,5.883,26.728,26.728,0,0,1,7.717-5.725,30.37,30.37,0,0,1,9.711-2.89l3.589-.44v7.061l10.09-10.012-10.09-10.01Z" fill="#5b5d5e"/>
    </g>
    <g>
      <g>
        <path d="M425.54,242V231.976h3.76a4.649,4.649,0,0,1,1.842.3,2.365,2.365,0,0,1,1.087.937,2.466,2.466,0,0,1,.393,1.322,2.266,2.266,0,0,1-.349,1.21,2.479,2.479,0,0,1-1.052.916,2.622,2.622,0,0,1,1.4.909,2.443,2.443,0,0,1,.488,1.518,2.927,2.927,0,0,1-.3,1.309,2.525,2.525,0,0,1-.735.933,3.061,3.061,0,0,1-1.1.5,6.707,6.707,0,0,1-1.617.167Zm1.326-5.81h2.167a4.811,4.811,0,0,0,1.265-.117,1.4,1.4,0,0,0,.762-.5,1.434,1.434,0,0,0,.256-.875,1.608,1.608,0,0,0-.239-.878,1.209,1.209,0,0,0-.683-.519,5.685,5.685,0,0,0-1.525-.141h-2Zm0,4.627h2.5a5.772,5.772,0,0,0,.9-.047,2.159,2.159,0,0,0,.765-.274,1.449,1.449,0,0,0,.506-.556,1.752,1.752,0,0,0,.2-.845,1.663,1.663,0,0,0-.287-.974,1.509,1.509,0,0,0-.8-.581,4.919,4.919,0,0,0-1.466-.168h-2.318Z"/>
        <path d="M439.745,239.659l1.272.157a3.1,3.1,0,0,1-1.115,1.73,3.777,3.777,0,0,1-4.6-.365,3.837,3.837,0,0,1-.933-2.752,4.013,4.013,0,0,1,.944-2.844,3.194,3.194,0,0,1,2.447-1.012,3.106,3.106,0,0,1,2.379.991,3.943,3.943,0,0,1,.923,2.79c0,.073,0,.182-.007.328h-5.414a2.791,2.791,0,0,0,.676,1.832,2.015,2.015,0,0,0,1.518.635,1.882,1.882,0,0,0,1.155-.355A2.355,2.355,0,0,0,439.745,239.659Zm-4.04-1.989h4.054a2.467,2.467,0,0,0-.465-1.374,1.886,1.886,0,0,0-1.524-.711,1.957,1.957,0,0,0-1.426.567A2.249,2.249,0,0,0,435.705,237.67Z"/>
        <path d="M442.562,242v-7.26h1.107v1.033a2.61,2.61,0,0,1,2.31-1.2,3.019,3.019,0,0,1,1.207.237,1.9,1.9,0,0,1,.824.618,2.385,2.385,0,0,1,.383.909,7.121,7.121,0,0,1,.068,1.2V242H447.23v-4.416a3.306,3.306,0,0,0-.143-1.124,1.185,1.185,0,0,0-.509-.595,1.622,1.622,0,0,0-.858-.222,2,2,0,0,0-1.357.5,2.46,2.46,0,0,0-.571,1.893V242Z"/>
        <path d="M455.105,242v-1.066a2.656,2.656,0,0,1-2.3,1.23,2.941,2.941,0,0,1-1.2-.246,1.973,1.973,0,0,1-.827-.618,2.311,2.311,0,0,1-.379-.913,6.15,6.15,0,0,1-.076-1.149v-4.5h1.231v4.027a7.2,7.2,0,0,0,.075,1.3,1.285,1.285,0,0,0,.492.762,1.524,1.524,0,0,0,.93.277,2.028,2.028,0,0,0,1.039-.284,1.575,1.575,0,0,0,.687-.772,3.888,3.888,0,0,0,.2-1.419v-3.89h1.23V242Z"/>
        <path d="M460.82,240.9l.178,1.087a4.489,4.489,0,0,1-.93.11,2.109,2.109,0,0,1-1.039-.212,1.184,1.184,0,0,1-.519-.557,4.411,4.411,0,0,1-.151-1.453v-4.177h-.9v-.957h.9v-1.8l1.224-.738v2.536h1.237v.957h-1.237v4.245a2.114,2.114,0,0,0,.065.677.5.5,0,0,0,.212.239.81.81,0,0,0,.42.089A3.826,3.826,0,0,0,460.82,240.9Z"/>
        <path d="M461.374,242v-1L466,235.694q-.786.042-1.388.041h-2.96v-1h5.934v.814l-3.931,4.607-.758.841q.826-.061,1.551-.061H467.8V242Z"/>
        <path d="M473.993,239.659l1.272.157a3.1,3.1,0,0,1-1.115,1.73,3.777,3.777,0,0,1-4.6-.365,3.837,3.837,0,0,1-.933-2.752,4.013,4.013,0,0,1,.944-2.844A3.194,3.194,0,0,1,472,234.573a3.106,3.106,0,0,1,2.379.991,3.943,3.943,0,0,1,.923,2.79c0,.073,0,.182-.007.328h-5.414a2.786,2.786,0,0,0,.677,1.832,2.011,2.011,0,0,0,1.517.635,1.88,1.88,0,0,0,1.155-.355A2.355,2.355,0,0,0,473.993,239.659Zm-4.04-1.989h4.054a2.467,2.467,0,0,0-.465-1.374,1.886,1.886,0,0,0-1.524-.711,1.959,1.959,0,0,0-1.426.567A2.249,2.249,0,0,0,469.953,237.67Z"/>
        <path d="M476.8,242v-7.26H477.9v1.1a3.014,3.014,0,0,1,.783-1.019,1.365,1.365,0,0,1,.79-.246,2.4,2.4,0,0,1,1.264.4l-.424,1.141a1.763,1.763,0,0,0-.9-.266,1.173,1.173,0,0,0-.725.243,1.317,1.317,0,0,0-.458.673,4.812,4.812,0,0,0-.2,1.435V242Z"/>
        <path d="M481.472,242V231.976h1.23v3.595a2.75,2.75,0,0,1,2.174-1,2.927,2.927,0,0,1,1.4.319,1.858,1.858,0,0,1,.851.878,4.045,4.045,0,0,1,.257,1.626V242h-1.231v-4.6a1.9,1.9,0,0,0-.4-1.342,1.482,1.482,0,0,0-1.131-.421,2,2,0,0,0-1.029.284,1.6,1.6,0,0,0-.687.769,3.546,3.546,0,0,0-.2,1.339V242Z"/>
        <path d="M489.265,233.391v-1.415h1.23v1.415Zm0,8.606v-7.26h1.23V242Z"/>
        <path d="M492.341,242V231.976h1.23V242Z"/>
        <path d="M495.772,242v-6.3h-1.086v-.957h1.086v-.772a3.4,3.4,0,0,1,.13-1.087,1.576,1.576,0,0,1,.626-.775,2.247,2.247,0,0,1,1.254-.3,6.04,6.04,0,0,1,1.149.123L498.746,233a4.175,4.175,0,0,0-.725-.068,1.077,1.077,0,0,0-.792.239,1.3,1.3,0,0,0-.233.9v.67h1.415v.957H497V242Z"/>
        <path d="M504.338,239.659l1.271.157a3.092,3.092,0,0,1-1.114,1.73,3.777,3.777,0,0,1-4.6-.365,3.837,3.837,0,0,1-.933-2.752,4.013,4.013,0,0,1,.943-2.844,3.2,3.2,0,0,1,2.448-1.012,3.109,3.109,0,0,1,2.379.991,3.943,3.943,0,0,1,.922,2.79c0,.073,0,.182-.006.328h-5.415a2.791,2.791,0,0,0,.677,1.832,2.015,2.015,0,0,0,1.518.635,1.882,1.882,0,0,0,1.155-.355A2.355,2.355,0,0,0,504.338,239.659Zm-4.04-1.989h4.054a2.467,2.467,0,0,0-.465-1.374,1.886,1.886,0,0,0-1.525-.711,1.955,1.955,0,0,0-1.425.567A2.249,2.249,0,0,0,500.3,237.67Z"/>
        <path d="M507.476,242v-1.4h1.4V242a2.491,2.491,0,0,1-.273,1.248,1.776,1.776,0,0,1-.869.734l-.341-.526a1.166,1.166,0,0,0,.574-.5,2.151,2.151,0,0,0,.2-.954Z"/>
        <path d="M429.806,255.577l1.251-.109a2.761,2.761,0,0,0,.413,1.234,2.261,2.261,0,0,0,1.009.779,3.8,3.8,0,0,0,1.538.3,3.691,3.691,0,0,0,1.339-.225,1.866,1.866,0,0,0,.865-.618,1.439,1.439,0,0,0,.284-.859,1.3,1.3,0,0,0-.274-.823,2.02,2.02,0,0,0-.9-.592,17.987,17.987,0,0,0-1.784-.488,9.18,9.18,0,0,1-1.935-.626,2.707,2.707,0,0,1-1.069-.933,2.286,2.286,0,0,1-.353-1.248,2.547,2.547,0,0,1,.431-1.418,2.675,2.675,0,0,1,1.258-1,4.789,4.789,0,0,1,1.839-.342,5.028,5.028,0,0,1,1.965.36,2.827,2.827,0,0,1,1.309,1.056,3.035,3.035,0,0,1,.492,1.579l-1.271.095a2.054,2.054,0,0,0-.694-1.435,2.7,2.7,0,0,0-1.746-.486,2.8,2.8,0,0,0-1.754.442,1.321,1.321,0,0,0-.55,1.062,1.14,1.14,0,0,0,.389.889,5.3,5.3,0,0,0,2,.715,13.166,13.166,0,0,1,2.218.639,3.031,3.031,0,0,1,1.292,1.022,2.489,2.489,0,0,1,.417,1.425,2.732,2.732,0,0,1-.458,1.508,3.017,3.017,0,0,1-1.316,1.1,4.583,4.583,0,0,1-1.931.393,5.755,5.755,0,0,1-2.28-.4,3.194,3.194,0,0,1-1.442-1.192A3.379,3.379,0,0,1,429.806,255.577Z"/>
        <path d="M444.2,258.8V257.73a2.656,2.656,0,0,1-2.3,1.231,2.935,2.935,0,0,1-1.2-.246,1.973,1.973,0,0,1-.827-.618,2.326,2.326,0,0,1-.38-.913,6.268,6.268,0,0,1-.075-1.149v-4.5h1.231v4.026a7.183,7.183,0,0,0,.075,1.3,1.283,1.283,0,0,0,.492.763,1.522,1.522,0,0,0,.93.276,2.027,2.027,0,0,0,1.039-.283,1.585,1.585,0,0,0,.687-.772,3.891,3.891,0,0,0,.2-1.419v-3.89H445.3v7.26Z"/>
        <path d="M447.224,261.579V251.537h1.121v.943a2.77,2.77,0,0,1,.895-.83,2.468,2.468,0,0,1,1.21-.277,2.87,2.87,0,0,1,1.641.479,2.939,2.939,0,0,1,1.073,1.35,4.92,4.92,0,0,1,.362,1.91,4.85,4.85,0,0,1-.4,2.007,3.04,3.04,0,0,1-2.765,1.842,2.307,2.307,0,0,1-1.1-.26,2.514,2.514,0,0,1-.8-.656v3.534Zm1.114-6.371a3.156,3.156,0,0,0,.567,2.071,1.738,1.738,0,0,0,1.374.67,1.78,1.78,0,0,0,1.405-.693,3.293,3.293,0,0,0,.585-2.151,3.214,3.214,0,0,0-.571-2.078,1.719,1.719,0,0,0-1.364-.69,1.771,1.771,0,0,0-1.391.735A3.29,3.29,0,0,0,448.338,255.208Z"/>
        <path d="M455.01,261.579V251.537h1.121v.943a2.77,2.77,0,0,1,.9-.83,2.468,2.468,0,0,1,1.21-.277,2.87,2.87,0,0,1,1.641.479,2.939,2.939,0,0,1,1.073,1.35,4.92,4.92,0,0,1,.363,1.91,4.866,4.866,0,0,1-.4,2.007,3.013,3.013,0,0,1-1.163,1.367,2.98,2.98,0,0,1-1.6.475,2.307,2.307,0,0,1-1.1-.26,2.514,2.514,0,0,1-.8-.656v3.534Zm1.114-6.371a3.156,3.156,0,0,0,.567,2.071,1.738,1.738,0,0,0,1.374.67,1.779,1.779,0,0,0,1.405-.693,3.293,3.293,0,0,0,.585-2.151,3.214,3.214,0,0,0-.571-2.078,1.718,1.718,0,0,0-1.364-.69,1.771,1.771,0,0,0-1.391.735A3.29,3.29,0,0,0,456.124,255.208Z"/>
        <path d="M462.338,255.167a3.74,3.74,0,0,1,1.121-2.987,3.381,3.381,0,0,1,2.283-.807,3.256,3.256,0,0,1,2.447.981,3.731,3.731,0,0,1,.951,2.71,4.8,4.8,0,0,1-.421,2.206,2.976,2.976,0,0,1-1.223,1.247,3.57,3.57,0,0,1-1.754.444,3.257,3.257,0,0,1-2.464-.978A3.9,3.9,0,0,1,462.338,255.167Zm1.265,0a3.092,3.092,0,0,0,.608,2.089,2.027,2.027,0,0,0,3.056,0,3.168,3.168,0,0,0,.608-2.126,3,3,0,0,0-.612-2.04,2.029,2.029,0,0,0-3.052,0A3.077,3.077,0,0,0,463.6,255.167Z"/>
        <path d="M470.568,258.8v-7.26h1.108v1.1a3,3,0,0,1,.782-1.019,1.37,1.37,0,0,1,.79-.246,2.406,2.406,0,0,1,1.265.4l-.424,1.141a1.759,1.759,0,0,0-.9-.266,1.169,1.169,0,0,0-.725.243,1.307,1.307,0,0,0-.458.673A4.78,4.78,0,0,0,471.8,255v3.8Z"/>
        <path d="M477.931,257.7l.177,1.087a4.557,4.557,0,0,1-.929.11,2.106,2.106,0,0,1-1.039-.212,1.186,1.186,0,0,1-.52-.557,4.42,4.42,0,0,1-.15-1.453v-4.177h-.9v-.957h.9v-1.8l1.223-.738v2.536h1.238v.957h-1.238v4.245a2.149,2.149,0,0,0,.065.677.506.506,0,0,0,.212.239.812.812,0,0,0,.421.089A3.838,3.838,0,0,0,477.931,257.7Z"/>
        <path d="M487.781,258.8V257.73a2.656,2.656,0,0,1-2.3,1.231,2.935,2.935,0,0,1-1.2-.246,1.973,1.973,0,0,1-.827-.618,2.326,2.326,0,0,1-.38-.913,6.268,6.268,0,0,1-.075-1.149v-4.5h1.231v4.026a7.088,7.088,0,0,0,.075,1.3,1.278,1.278,0,0,0,.492.763,1.52,1.52,0,0,0,.93.276,2.027,2.027,0,0,0,1.039-.283,1.585,1.585,0,0,0,.687-.772,3.891,3.891,0,0,0,.2-1.419v-3.89h1.231v7.26Z"/>
        <path d="M490.81,258.8v-7.26h1.107v1.032a2.61,2.61,0,0,1,2.311-1.2,3.035,3.035,0,0,1,1.206.236,1.9,1.9,0,0,1,.824.619,2.378,2.378,0,0,1,.383.909,7.121,7.121,0,0,1,.068,1.2V258.8h-1.23v-4.416a3.3,3.3,0,0,0-.144-1.124,1.185,1.185,0,0,0-.509-.595,1.622,1.622,0,0,0-.858-.223,2,2,0,0,0-1.357.5,2.461,2.461,0,0,0-.571,1.894V258.8Z"/>
        <path d="M503.306,258.8v-.916a2.258,2.258,0,0,1-2.031,1.08,2.842,2.842,0,0,1-1.6-.479,3.145,3.145,0,0,1-1.128-1.336,4.627,4.627,0,0,1-.4-1.972,5.15,5.15,0,0,1,.363-1.972,2.849,2.849,0,0,1,1.087-1.357,2.9,2.9,0,0,1,1.62-.472,2.43,2.43,0,0,1,1.169.277,2.466,2.466,0,0,1,.834.721v-3.6h1.223V258.8Zm-3.89-3.623a3.151,3.151,0,0,0,.588,2.085,1.77,1.77,0,0,0,1.388.69,1.742,1.742,0,0,0,1.37-.659,3.043,3.043,0,0,0,.564-2.014,3.413,3.413,0,0,0-.574-2.187,1.766,1.766,0,0,0-1.415-.7,1.7,1.7,0,0,0-1.371.67A3.313,3.313,0,0,0,499.416,255.174Z"/>
        <path d="M399.1,275.6V265.576h3.759a4.672,4.672,0,0,1,1.843.3,2.386,2.386,0,0,1,1.087.936,2.473,2.473,0,0,1,.393,1.324,2.282,2.282,0,0,1-.349,1.21,2.49,2.49,0,0,1-1.053.916,2.607,2.607,0,0,1,1.4.909,2.43,2.43,0,0,1,.489,1.517,2.93,2.93,0,0,1-.3,1.309,2.558,2.558,0,0,1-.735.934,3.085,3.085,0,0,1-1.1.5,6.657,6.657,0,0,1-1.617.168Zm1.326-5.811h2.167a4.851,4.851,0,0,0,1.264-.116,1.412,1.412,0,0,0,.763-.5,1.44,1.44,0,0,0,.256-.875,1.617,1.617,0,0,0-.239-.879,1.214,1.214,0,0,0-.684-.52,5.778,5.778,0,0,0-1.524-.139h-2Zm0,4.628h2.5a5.85,5.85,0,0,0,.9-.048,2.164,2.164,0,0,0,.766-.273,1.464,1.464,0,0,0,.506-.558,1.742,1.742,0,0,0,.2-.844,1.668,1.668,0,0,0-.287-.974,1.517,1.517,0,0,0-.8-.581,4.924,4.924,0,0,0-1.466-.167h-2.317Z"/>
        <path d="M413.3,273.26l1.271.157a3.1,3.1,0,0,1-1.114,1.729,3.771,3.771,0,0,1-4.6-.366,3.831,3.831,0,0,1-.933-2.751,4.007,4.007,0,0,1,.943-2.843,3.192,3.192,0,0,1,2.447-1.012,3.1,3.1,0,0,1,2.379.991,3.933,3.933,0,0,1,.923,2.789c0,.072,0,.182-.007.328H409.2a2.791,2.791,0,0,0,.677,1.832,2.016,2.016,0,0,0,1.518.636,1.888,1.888,0,0,0,1.155-.355A2.369,2.369,0,0,0,413.3,273.26Zm-4.04-1.989h4.053a2.454,2.454,0,0,0-.464-1.375,1.887,1.887,0,0,0-1.525-.71,1.951,1.951,0,0,0-1.425.567A2.245,2.245,0,0,0,409.264,271.271Z"/>
        <path d="M416.12,275.6v-7.26h1.108v1.032a2.607,2.607,0,0,1,2.31-1.2,3.036,3.036,0,0,1,1.207.235,1.892,1.892,0,0,1,.823.619,2.376,2.376,0,0,1,.383.91,6.96,6.96,0,0,1,.069,1.2V275.6h-1.231v-4.416a3.338,3.338,0,0,0-.143-1.125,1.186,1.186,0,0,0-.51-.6,1.619,1.619,0,0,0-.858-.222,1.993,1.993,0,0,0-1.357.5,2.464,2.464,0,0,0-.57,1.894V275.6Z"/>
        <path d="M428.664,275.6v-1.067a2.656,2.656,0,0,1-2.3,1.231,2.933,2.933,0,0,1-1.2-.246,1.97,1.97,0,0,1-.828-.62,2.315,2.315,0,0,1-.379-.912,6.27,6.27,0,0,1-.075-1.148v-4.5h1.23v4.026a7.074,7.074,0,0,0,.076,1.3,1.282,1.282,0,0,0,.492.762,1.526,1.526,0,0,0,.929.277,2.029,2.029,0,0,0,1.04-.284,1.581,1.581,0,0,0,.687-.772,3.889,3.889,0,0,0,.2-1.418v-3.89h1.231v7.26Z"/>
        <path d="M434.379,274.5l.178,1.087a4.639,4.639,0,0,1-.93.109,2.106,2.106,0,0,1-1.039-.212,1.186,1.186,0,0,1-.52-.557,4.412,4.412,0,0,1-.15-1.452V269.3h-.9v-.957h.9v-1.8l1.224-.738v2.536h1.237v.957h-1.237v4.245a2.127,2.127,0,0,0,.065.677.518.518,0,0,0,.211.239.827.827,0,0,0,.421.089A4.153,4.153,0,0,0,434.379,274.5Z"/>
        <path d="M434.933,275.6v-1l4.621-5.305q-.786.041-1.388.041h-2.96v-1h5.934v.813l-3.931,4.608-.759.841q.826-.062,1.552-.062h3.356v1.06Z"/>
        <path d="M447.552,273.26l1.271.157a3.1,3.1,0,0,1-1.114,1.729,3.771,3.771,0,0,1-4.6-.366,3.831,3.831,0,0,1-.933-2.751,4.007,4.007,0,0,1,.943-2.843,3.193,3.193,0,0,1,2.448-1.012,3.1,3.1,0,0,1,2.378.991,3.933,3.933,0,0,1,.923,2.789c0,.072,0,.182-.007.328h-5.414a2.791,2.791,0,0,0,.677,1.832,2.016,2.016,0,0,0,1.518.636,1.888,1.888,0,0,0,1.155-.355A2.369,2.369,0,0,0,447.552,273.26Zm-4.04-1.989h4.053a2.454,2.454,0,0,0-.464-1.375,1.887,1.887,0,0,0-1.525-.71,1.951,1.951,0,0,0-1.425.567A2.245,2.245,0,0,0,443.512,271.271Z"/>
        <path d="M450.354,275.6v-7.26h1.108v1.1a3,3,0,0,1,.783-1.018,1.365,1.365,0,0,1,.789-.246,2.4,2.4,0,0,1,1.265.4l-.424,1.142a1.76,1.76,0,0,0-.9-.267,1.171,1.171,0,0,0-.725.243,1.315,1.315,0,0,0-.458.673,4.787,4.787,0,0,0-.205,1.436v3.8Z"/>
        <path d="M454.552,272.59v-1.237h3.78v1.237Z"/>
        <path d="M467,272.084l1.326.335a4.461,4.461,0,0,1-1.5,2.491,4.136,4.136,0,0,1-2.649.859,4.747,4.747,0,0,1-2.635-.661A4.111,4.111,0,0,1,460,273.2a6.818,6.818,0,0,1-.53-2.686,5.908,5.908,0,0,1,.6-2.732,4.1,4.1,0,0,1,1.7-1.77,4.966,4.966,0,0,1,2.43-.605,4.107,4.107,0,0,1,2.53.766,3.973,3.973,0,0,1,1.428,2.153l-1.3.308a3.1,3.1,0,0,0-1.012-1.593,2.694,2.694,0,0,0-1.668-.5,3.24,3.24,0,0,0-1.931.554,2.926,2.926,0,0,0-1.091,1.486,6.006,6.006,0,0,0-.314,1.925,6.1,6.1,0,0,0,.373,2.231,2.772,2.772,0,0,0,1.158,1.426,3.246,3.246,0,0,0,1.7.472,2.855,2.855,0,0,0,1.887-.643A3.285,3.285,0,0,0,467,272.084Z"/>
        <path d="M469.345,271.968a3.74,3.74,0,0,1,1.121-2.988,3.375,3.375,0,0,1,2.283-.806,3.259,3.259,0,0,1,2.447.98,3.733,3.733,0,0,1,.95,2.711,4.8,4.8,0,0,1-.42,2.2,2.969,2.969,0,0,1-1.224,1.248,3.564,3.564,0,0,1-1.753.445,3.261,3.261,0,0,1-2.464-.978A3.9,3.9,0,0,1,469.345,271.968Zm1.264,0a3.089,3.089,0,0,0,.609,2.088,2.025,2.025,0,0,0,3.055,0,3.164,3.164,0,0,0,.609-2.126,3,3,0,0,0-.612-2.041,2.028,2.028,0,0,0-3.052,0A3.075,3.075,0,0,0,470.609,271.968Z"/>
        <path d="M477.589,275.6v-7.26h1.1v1.018a2.594,2.594,0,0,1,.91-.858,2.558,2.558,0,0,1,1.292-.324,2.381,2.381,0,0,1,1.322.335,1.781,1.781,0,0,1,.728.936,2.609,2.609,0,0,1,2.243-1.271,2.212,2.212,0,0,1,1.661.6,2.561,2.561,0,0,1,.581,1.843V275.6H486.2v-4.574a3.4,3.4,0,0,0-.119-1.063,1.032,1.032,0,0,0-.435-.523,1.353,1.353,0,0,0-.738-.2,1.719,1.719,0,0,0-1.271.509,2.241,2.241,0,0,0-.506,1.631V275.6H481.9v-4.717a2.082,2.082,0,0,0-.3-1.231,1.142,1.142,0,0,0-.985-.41,1.782,1.782,0,0,0-.96.274,1.542,1.542,0,0,0-.639.8,4.48,4.48,0,0,0-.2,1.518V275.6Z"/>
        <path d="M489.251,275.6v-7.26h1.1v1.018a2.591,2.591,0,0,1,.909-.858,2.558,2.558,0,0,1,1.292-.324,2.381,2.381,0,0,1,1.322.335,1.787,1.787,0,0,1,.729.936,2.606,2.606,0,0,1,2.242-1.271,2.212,2.212,0,0,1,1.661.6,2.561,2.561,0,0,1,.581,1.843V275.6h-1.224v-4.574a3.4,3.4,0,0,0-.119-1.063,1.035,1.035,0,0,0-.434-.523,1.359,1.359,0,0,0-.739-.2,1.719,1.719,0,0,0-1.271.509,2.241,2.241,0,0,0-.506,1.631V275.6h-1.231v-4.717a2.082,2.082,0,0,0-.3-1.231,1.142,1.142,0,0,0-.985-.41,1.782,1.782,0,0,0-.96.274,1.542,1.542,0,0,0-.639.8,4.48,4.48,0,0,0-.2,1.518V275.6Z"/>
        <path d="M505.671,275.6v-1.067a2.656,2.656,0,0,1-2.3,1.231,2.941,2.941,0,0,1-1.2-.246,1.973,1.973,0,0,1-.827-.62,2.315,2.315,0,0,1-.379-.912,6.27,6.27,0,0,1-.075-1.148v-4.5h1.23v4.026a7.2,7.2,0,0,0,.075,1.3,1.288,1.288,0,0,0,.493.762,1.526,1.526,0,0,0,.929.277,2.025,2.025,0,0,0,1.039-.284,1.571,1.571,0,0,0,.687-.772,3.864,3.864,0,0,0,.2-1.418v-3.89h1.23v7.26Z"/>
        <path d="M508.7,275.6v-7.26h1.108v1.032a2.607,2.607,0,0,1,2.31-1.2,3.036,3.036,0,0,1,1.207.235,1.892,1.892,0,0,1,.823.619,2.345,2.345,0,0,1,.383.91,6.96,6.96,0,0,1,.069,1.2V275.6h-1.231v-4.416a3.338,3.338,0,0,0-.143-1.125,1.186,1.186,0,0,0-.51-.6,1.617,1.617,0,0,0-.858-.222,1.993,1.993,0,0,0-1.357.5,2.464,2.464,0,0,0-.57,1.894V275.6Z"/>
        <path d="M516.492,266.991v-1.415h1.231v1.415Zm0,8.607v-7.26h1.231v7.26Z"/>
        <path d="M522.282,274.5l.178,1.087a4.623,4.623,0,0,1-.93.109,2.106,2.106,0,0,1-1.039-.212,1.184,1.184,0,0,1-.519-.557,4.4,4.4,0,0,1-.151-1.452V269.3h-.9v-.957h.9v-1.8l1.224-.738v2.536h1.237v.957h-1.237v4.245a2.127,2.127,0,0,0,.065.677.52.52,0,0,0,.212.239.82.82,0,0,0,.42.089A4.153,4.153,0,0,0,522.282,274.5Z"/>
        <path d="M523.431,278.394l-.137-1.156a2.739,2.739,0,0,0,.7.11,1.353,1.353,0,0,0,.656-.137,1.13,1.13,0,0,0,.4-.383,6.211,6.211,0,0,0,.376-.916c.023-.068.059-.169.109-.3l-2.755-7.273h1.326l1.511,4.2q.294.8.526,1.682a16.357,16.357,0,0,1,.506-1.655l1.552-4.231h1.23l-2.761,7.383a14.669,14.669,0,0,1-.691,1.647,2.422,2.422,0,0,1-.752.892,1.773,1.773,0,0,1-1.011.284A2.494,2.494,0,0,1,523.431,278.394Z"/>
        <path d="M529.993,273.431l1.217-.192a1.7,1.7,0,0,0,.571,1.121,1.987,1.987,0,0,0,1.309.39,1.92,1.92,0,0,0,1.258-.346,1.031,1.031,0,0,0,.41-.809.749.749,0,0,0-.362-.657,5.333,5.333,0,0,0-1.258-.417,11.434,11.434,0,0,1-1.877-.591,1.792,1.792,0,0,1-1.063-1.664,1.875,1.875,0,0,1,.222-.9,1.985,1.985,0,0,1,.605-.686,2.556,2.556,0,0,1,.783-.36,3.761,3.761,0,0,1,1.063-.146,4.206,4.206,0,0,1,1.5.246,2.043,2.043,0,0,1,.953.666,2.61,2.61,0,0,1,.424,1.125l-1.2.164a1.315,1.315,0,0,0-.475-.875,1.737,1.737,0,0,0-1.111-.314,2,2,0,0,0-1.21.28.812.812,0,0,0-.362.656.683.683,0,0,0,.15.431,1.084,1.084,0,0,0,.472.328q.185.067,1.087.314a15.249,15.249,0,0,1,1.821.571,1.842,1.842,0,0,1,.811.646,1.808,1.808,0,0,1,.293,1.053,2.064,2.064,0,0,1-.358,1.158,2.326,2.326,0,0,1-1.036.841,3.771,3.771,0,0,1-1.531.3,3.418,3.418,0,0,1-2.157-.588A2.738,2.738,0,0,1,529.993,273.431Z"/>
      </g>
      <g>
        <path d="M447.265,114.994v-13.3h2.1v5.62h6.64v-5.62h2.1v13.3h-2.1v-6.019h-6.64v6.019Z"/>
        <path d="M461.944,102.594a1.062,1.062,0,0,1-.34-.84,1.085,1.085,0,0,1,.34-.859,1.369,1.369,0,0,1,.941-.3q1.279,0,1.28,1.16a1.073,1.073,0,0,1-.331.84,1.634,1.634,0,0,1-1.89,0Zm-.059,12.4v-9.64h2.02v9.64Z"/>
        <path d="M467.345,114.994V100.4h2.02v14.6Z"/>
        <path d="M473.225,114.994v-8.14h-1.56v-1.5h1.56v-1.76a3.1,3.1,0,0,1,1.049-2.59,4.411,4.411,0,0,1,2.81-.83q.461,0,.96.041a7.714,7.714,0,0,1,.9.119l-.219,1.5q-.341-.039-.721-.08a7.239,7.239,0,0,0-.739-.039,3.274,3.274,0,0,0-.79.09,1.679,1.679,0,0,0-.641.3,1.454,1.454,0,0,0-.43.57,2.274,2.274,0,0,0-.159.92v1.76h3.119v1.5h-3.119v8.14Z"/>
        <path d="M481.345,110.754a5.065,5.065,0,0,0,.179,1.269,2.091,2.091,0,0,0,.52.911,2.255,2.255,0,0,0,.96.541,5.438,5.438,0,0,0,1.52.179c.214,0,.447-.009.7-.03s.5-.05.75-.09.48-.08.7-.12.4-.08.55-.12l.18,1.479a12.465,12.465,0,0,1-1.41.291,11,11,0,0,1-1.69.13,9.165,9.165,0,0,1-2.08-.219,3.686,3.686,0,0,1-1.6-.791,3.741,3.741,0,0,1-1.03-1.539,7.012,7.012,0,0,1-.37-2.471,7.752,7.752,0,0,1,.31-2.36,3.853,3.853,0,0,1,.89-1.55,3.347,3.347,0,0,1,1.409-.85,6.188,6.188,0,0,1,1.851-.26,4.828,4.828,0,0,1,1.76.29,3.351,3.351,0,0,1,1.23.81,3.213,3.213,0,0,1,.72,1.26,5.6,5.6,0,0,1,.23,1.66v1.58Zm4.34-1.4q0-2.779-2.06-2.78a1.934,1.934,0,0,0-1.66.7,3.856,3.856,0,0,0-.6,2.081Z"/>
      </g>
      <g>
        <path d="M464.586,218.333c-.231-3.438.874-18.388,5.018-27.361" fill="none" stroke="#000" stroke-miterlimit="10"/>
        <polygon points="472.088 195.658 471.145 195.993 469.497 191.346 464.982 193.329 464.58 192.413 470.08 189.998 472.088 195.658"/>
      </g>
      <path d="M467.318,135.295a18.989,18.989,0,0,1,7.617,1.535,19.659,19.659,0,0,1,10.389,10.389,19.666,19.666,0,0,1,0,15.234,19.659,19.659,0,0,1-10.389,10.389,19.666,19.666,0,0,1-15.234,0,19.659,19.659,0,0,1-10.389-10.389,19.654,19.654,0,0,1,0-15.234A19.659,19.659,0,0,1,459.7,136.83,18.985,18.985,0,0,1,467.318,135.295Zm0,35.893a15.9,15.9,0,0,0,6.381-1.3,16.615,16.615,0,0,0,5.2-3.51,16.4,16.4,0,0,0,3.49-5.184,16.425,16.425,0,0,0-.02-12.742,16.659,16.659,0,0,0-3.51-5.205,16.423,16.423,0,0,0-5.184-3.488,16.407,16.407,0,0,0-12.742.019,16.631,16.631,0,0,0-5.2,3.51,16.414,16.414,0,0,0-3.489,5.184,16.425,16.425,0,0,0,.02,12.742,16.64,16.64,0,0,0,3.509,5.2,16.411,16.411,0,0,0,5.185,3.488A15.923,15.923,0,0,0,467.318,171.188Zm-.12-29.711a12.389,12.389,0,0,1,4.626.757,8.7,8.7,0,0,1,2.991,1.895,6.83,6.83,0,0,1,1.6,2.451,7.2,7.2,0,0,1,.478,2.434,9.375,9.375,0,0,1-.279,2.453,7.361,7.361,0,0,1-.738,1.795,6.317,6.317,0,0,1-1.037,1.336,13.314,13.314,0,0,1-1.216,1.037q-.639.477-1.256.877a8.169,8.169,0,0,0-1.137.877,5.3,5.3,0,0,0-.9,1.076,3.625,3.625,0,0,0-.5,1.476h-5.305a8.247,8.247,0,0,1,.419-2.234,7.5,7.5,0,0,1,.818-1.674,8.415,8.415,0,0,1,1.036-1.277,10.137,10.137,0,0,1,1.157-1l.239-.2q.519-.44,1-.838a5.6,5.6,0,0,0,.838-.858,3.58,3.58,0,0,0,.558-1.017,3.91,3.91,0,0,0,.2-1.317,3.493,3.493,0,0,0-.878-2.631,3.381,3.381,0,0,0-2.432-.837,3.8,3.8,0,0,0-1.8.4,3.641,3.641,0,0,0-1.256,1.076,4.625,4.625,0,0,0-.738,1.6,7.706,7.706,0,0,0-.24,1.955h-5.7a11.21,11.21,0,0,1,.717-3.869,8.923,8.923,0,0,1,1.914-3.031,8.806,8.806,0,0,1,2.952-1.995A9.943,9.943,0,0,1,467.2,141.477Zm-2.672,21.455h5.305V168.2h-5.305Z" fill="#5b5d5e"/>
    </g>
  </g>
</svg>
