<svg xmlns="http://www.w3.org/2000/svg" viewBox="0 0 560 380">
  <g>
    <path d="M57.589,242.936H48.682l-.212,1.941h7.369l-.157,2.83h1.832V248.8h-1.9q-.142,2.481-.656,3.039a1.681,1.681,0,0,1-1.292.556,10.477,10.477,0,0,1-2.044-.307l-.178-1.244a10.246,10.246,0,0,0,2.072.43.748.748,0,0,0,.563-.214,2.186,2.186,0,0,0,.3-1.115q.1-.9.1-1.145H45.517v-1.094h9.044q.061-.772.088-1.695h-6.3l-.123.964-1.094-.1.779-6.932,1.121.116-.2,1.75h8.764Z"/>
    <path d="M62.75,248.562a6.464,6.464,0,0,1-2.728,2.645l-.772-.854A5.266,5.266,0,0,0,61.827,248Zm1.121-8.361-1.23,2.324v5H61.506v-3.7a4.333,4.333,0,0,1-.565.445c-.338.246-.58.433-.72.56a11.686,11.686,0,0,1-.9-.772,7.816,7.816,0,0,0,3.6-4.293A6.655,6.655,0,0,1,63.871,240.2Zm7.4,1.094a9.014,9.014,0,0,1-.609,2.563l-1.032-.28c.045-.1.176-.5.39-1.217H65.566a11.5,11.5,0,0,1-1.551,1.689l-1.026-.67a7.363,7.363,0,0,0,2.687-3.664,2.757,2.757,0,0,1,.523.2,3.887,3.887,0,0,0,.447.2,8.4,8.4,0,0,1-.437,1.176Zm-2.2,8.121a6.825,6.825,0,0,1-.31,1.415,1.646,1.646,0,0,1-.5.684,1.105,1.105,0,0,1-.618.28l-.52.027H64.363a1.22,1.22,0,0,1-.947-.492,1.423,1.423,0,0,1-.3-.779v-2.618h1.087v2.379a.541.541,0,0,0,.52.4H67.4c.315-.082.489-.248.52-.5l.123-1.067Zm-2.214-5.64a6.167,6.167,0,0,1-2.94,2.906l-.7-.834a6.784,6.784,0,0,0,2.8-2.591Zm.294,5.708-1.019.534a5.217,5.217,0,0,0-1.442-2.393l.922-.308A6.662,6.662,0,0,1,67.146,249.484Zm1.039-3.554a2.195,2.195,0,0,1-.137.81.933.933,0,0,1-.417.5,4.4,4.4,0,0,1-1.49.188l-.417-1.067a2.12,2.12,0,0,1,.232-.013,3.794,3.794,0,0,1,.386.024c.162.016.273.024.332.024q.4,0,.4-.212V242.7h1.108Zm3.636.136c-.21.192-.487.422-.834.691a8.475,8.475,0,0,0-2.618-2.8l.779-.588A6.623,6.623,0,0,1,71.821,246.066Zm.226,4.676-1,.65a6.8,6.8,0,0,0-1.1-1.664,3.582,3.582,0,0,0-1.384-1.125l.881-.534A5.882,5.882,0,0,1,72.047,250.742Z"/>
    <path d="M85.671,242.683H78.138a9.322,9.322,0,0,1-.506,1.3h6.344v7.158q-.082.949-1.456.95H81.385l-.486-1.08a10.261,10.261,0,0,0,1.395.089q.615,0,.615-.253v-1.388H77.646v2.953H76.531v-6.72a20.744,20.744,0,0,1-2.351,2.673l-.985-.642a12.8,12.8,0,0,0,3.794-5.038H74.05v-1.026h3.336a15.508,15.508,0,0,0,.54-1.975l1.08.239q-.129.553-.465,1.736h7.13Zm-2.762,3.459v-1.135H77.646v1.135Zm0,2.29V247.16H77.646v1.272Z"/>
    <path d="M99.432,251.583l-.8.786a9.158,9.158,0,0,1-2.984-1.876,8.907,8.907,0,0,1-1.986-3.237h-.191a7.68,7.68,0,0,1-2.225,3.223,7.867,7.867,0,0,1-3.422,1.89l-.724-.841a10.011,10.011,0,0,0,3.332-1.784,6.108,6.108,0,0,0,1.918-2.488H87.366v-1.019H92.6q.054-.484.054-2.447H88.18v-.971h3.247a12.158,12.158,0,0,0-1.709-2.488l.868-.437a10.383,10.383,0,0,1,1.989,2.925h1.381a14.042,14.042,0,0,0,1.518-2.953l.977.438a16.9,16.9,0,0,1-1.347,2.515h3.364v.971H93.724q-.042,2.037-.089,2.447H99.3v1.019H94.838A8,8,0,0,0,99.432,251.583Z"/>
    <path d="M112.912,242.136a44.9,44.9,0,0,1-.543,7.892q-.489,2.232-1.726,2.232a9.987,9.987,0,0,1-2.181-.465l-.185-1.176a7.646,7.646,0,0,0,2.2.588q.6,0,.974-2.2a38.906,38.906,0,0,0,.4-5.9h-2.988a11.477,11.477,0,0,1-1.62,2.939l-.731-.472v6.255h-1.1v-.909h-2.324v1.135h-1.108v-9.7h1.286a8.241,8.241,0,0,0,.854-2.468l1.012.41a8.483,8.483,0,0,1-.759,2.058h2.14v2.85a13.029,13.029,0,0,0,2.105-5.427l1.114.252q-.185.828-.6,2.113Zm-7.5,3.93v-2.7h-2.324v2.7Zm0,3.822v-2.8h-2.324v2.8Zm5.6-1.381-1.012.444a11.926,11.926,0,0,0-1.9-3.288l.868-.574A10.622,10.622,0,0,1,111.012,248.507Z"/>
    <path d="M58.061,264.425H54.69a6.907,6.907,0,0,1-1.7,4.73l-.841-.786a5.534,5.534,0,0,0,1.09-1.76A7.785,7.785,0,0,0,53.583,264v-3.917h4.478Zm.8-6.009H52.742v-1H58.86ZM56.953,263.4v-2.3H54.69v2.3Zm8.039-1.374H63.058V269.2H62v-7.171H60.33v1.88q0,3.659-1.921,5.373l-.868-.724q1.656-1.387,1.654-4.69v-5.715a9.98,9.98,0,0,0,4.567-1.62l.827.821a10.619,10.619,0,0,1-4.259,1.695v1.962h4.662Z"/>
    <path d="M78.671,259.482H71.138a9.35,9.35,0,0,1-.506,1.3h6.344v7.157q-.082.951-1.456.951H74.385l-.486-1.08a10.268,10.268,0,0,0,1.395.088q.615,0,.615-.252v-1.388H70.646v2.953H69.531v-6.72a20.744,20.744,0,0,1-2.351,2.673l-.985-.642a12.8,12.8,0,0,0,3.794-5.039H67.05v-1.025h3.336a15.49,15.49,0,0,0,.54-1.976l1.08.24q-.129.553-.465,1.736h7.13Zm-2.762,3.459v-1.134H70.646v1.134Zm0,2.29V263.96H70.646v1.271Z"/>
    <path d="M84.188,257.145q-.267.881-.636,1.859l-.376.909v9.338h-1.06v-7.444a10.375,10.375,0,0,1-1.217,1.722l-.881-.7a17.036,17.036,0,0,0,3.171-6.077Zm8.551,2.686H83.948v-1.025h8.791Zm-.95,2.044H84.721V260.85h7.068Zm0,2H84.721v-1.025h7.068Zm.014-5.92H84.734v-1.025H91.8Zm-.185,11.293H90.6v-.827H85.9v.827H84.871v-4.293h6.747ZM90.6,267.515v-1.648H85.9v1.648Z"/>
    <path d="M97.429,265.922a6.475,6.475,0,0,1-2.516,2.379l-.745-.786a5.734,5.734,0,0,0,2.468-2.167Zm6.986-1.47H96.492V257.9h3.1a5.464,5.464,0,0,0,1.018-1.394l.951.513a4.488,4.488,0,0,1-.67.881h3.527Zm-1.06-4.764v-.766h-5.8v.766Zm0,1.866v-.841h-5.8v.841Zm0,1.873v-.909h-5.8v.909Zm.5,3.028a7.4,7.4,0,0,1-.672,1.809.927.927,0,0,1-.811.385H98.939q-1.162,0-1.162-.936v-2.5h1.067v1.989c0,.283.111.424.335.424h2.98q.238,0,.369-.369l.335-.937Zm-1.722-.184-.711.731a5.536,5.536,0,0,0-2.393-1.654l.684-.759A5.348,5.348,0,0,1,102.132,266.271Zm4.723,1.257-.9.616a4.884,4.884,0,0,0-2.529-2.208l.827-.643A5.651,5.651,0,0,1,106.855,267.528Z"/>
  </g>
  <g>
    <path d="M65.187,124.5V111.2h2.3l4.781,7.18,4.8-7.18h2.281v13.3h-2.06v-10.46l-4.181,6.279H71.427l-4.16-6.279V124.5Z"/>
    <path d="M84.526,120.258a5.116,5.116,0,0,0,.18,1.269,2.073,2.073,0,0,0,.521.911,2.242,2.242,0,0,0,.96.54,5.384,5.384,0,0,0,1.519.18c.214,0,.447-.011.7-.03s.5-.05.75-.09.481-.08.7-.12.4-.08.55-.12l.181,1.479a12.58,12.58,0,0,1-1.41.29,10.877,10.877,0,0,1-1.691.131,9.181,9.181,0,0,1-2.08-.22,3.692,3.692,0,0,1-1.6-.79,3.744,3.744,0,0,1-1.031-1.541,7,7,0,0,1-.37-2.469,7.761,7.761,0,0,1,.311-2.361,3.859,3.859,0,0,1,.889-1.549,3.344,3.344,0,0,1,1.411-.85,6.174,6.174,0,0,1,1.849-.26,4.83,4.83,0,0,1,1.761.29,3.343,3.343,0,0,1,1.229.81,3.168,3.168,0,0,1,.72,1.26,5.592,5.592,0,0,1,.231,1.66v1.58Zm4.34-1.4q0-2.778-2.059-2.779a1.938,1.938,0,0,0-1.661.7,3.864,3.864,0,0,0-.6,2.08Z"/>
  </g>
  <g>
    <path d="M82.952,227.837c-3.154-14.56-5.367-14.594-6.7-26.132" fill="none" stroke="#000" stroke-miterlimit="10"/>
    <polygon points="80.751 204.466 80.112 205.236 76.322 202.083 73.453 206.094 72.64 205.511 76.134 200.627 80.751 204.466"/>
  </g>
  <path d="M79.543,148.778A16.925,16.925,0,1,1,62.618,165.7a16.943,16.943,0,0,1,16.925-16.924m0-2.8A19.725,19.725,0,1,0,99.267,165.7a19.725,19.725,0,0,0-19.724-19.724Z" fill="#5b5d5e"/>
  <path d="M84.546,164.774a6.726,6.726,0,0,1,1.815,1.04,7.421,7.421,0,0,1,1.419,1.507,7.048,7.048,0,0,1,.938,1.874,6.851,6.851,0,0,1,.337,2.137v4.1a1.15,1.15,0,0,1-1.172,1.171H71.489a1.148,1.148,0,0,1-1.171-1.171v-4.1a6.821,6.821,0,0,1,.336-2.137,7.048,7.048,0,0,1,.938-1.874,7.4,7.4,0,0,1,1.42-1.507,6.705,6.705,0,0,1,1.814-1.04,7.906,7.906,0,0,0,2.269,1.171,8.181,8.181,0,0,0,2.592.41A8.038,8.038,0,0,0,84.546,164.774Zm1.288-6.616a5.99,5.99,0,0,1-.483,2.386,6.17,6.17,0,0,1-3.264,3.279,6.16,6.16,0,0,1-4.787,0,6.13,6.13,0,0,1-3.279-3.279,6.169,6.169,0,0,1,0-4.786,6.176,6.176,0,0,1,3.279-3.265,6.184,6.184,0,0,1,4.787,0,6.217,6.217,0,0,1,3.264,3.265A5.963,5.963,0,0,1,85.834,158.158Z" fill="#5b5d5e"/>
  <g>
    <path d="M187.041,244.837l-.731.868q-.282-.4-.882-1.094a27.517,27.517,0,0,1-.219,3.729,1.721,1.721,0,0,1-.506.93,1.2,1.2,0,0,1-.8.3,5.169,5.169,0,0,1-1.148-.273q-.1-.48-.212-1.142a3.388,3.388,0,0,0,1.094.349q.4,0,.536-.537a13.717,13.717,0,0,0,.134-2.492h-2.571V250.5q0,.361.267.362h3.411a.353.353,0,0,0,.287-.164.669.669,0,0,0,.137-.355l.055-1.094,1.045.6q-.123,1.947-1.189,1.948h-4.026a.955.955,0,0,1-1.067-1.094v-5.585a7.659,7.659,0,0,1-1.333.95l-.67-.936q2.8-1.251,4.116-5.346l.909.417-.335,1.135A14.972,14.972,0,0,1,187.041,244.837Zm-1.723-.4a13.686,13.686,0,0,0-2.351-2.284,9.032,9.032,0,0,1-1.641,2.311Zm3.063,4.867h-1.06v-7.26h1.06Zm2.174,2.092a.911.911,0,0,1-.284.7.878.878,0,0,1-.6.259h-1.511l-.321-1.052,1.422.075q.225,0,.225-.465V239.9h1.067Z"/>
    <path d="M205.341,250.716l-.492,1.148h-5.558a5.5,5.5,0,0,1-3.739-1.121,7.894,7.894,0,0,1-2.324,1.627l-.711-.868a6.886,6.886,0,0,0,2.276-1.5,6.671,6.671,0,0,1-1.176-2.017l.841-.519a4.865,4.865,0,0,0,.923,1.709,9.421,9.421,0,0,0,.827-3.234h-1.3l-.321.629-.923-.417,1.887-4.006h-2.618V241.1h3.807v.97l-1.4,2.851h2a11.556,11.556,0,0,1-1.19,4.99,5.068,5.068,0,0,0,3.288.937h4.088Zm-.383-1.34h-3.664V250.7h-1.066v-1.326H196.98v-1.012h3.248v-.827H197.6v-1h2.632v-.841h-2.366v-1h2.366v-.855h-3.289V242.82h3.289v-.765h-2.366v-1.012h2.366v-1.107h1.066v1.107h2.741v1.777h.923v1.012h-.923v1.859h-2.741v.841h2.912v1h-2.912v.827h3.664Zm-1.989-6.556v-.765h-1.675v.765Zm0,1.867v-.855h-1.675v.855Z"/>
    <path d="M214.057,248.187l-.882.642a5.76,5.76,0,0,0-1.716-2.365v6.015h-1.08v-5.5a10.641,10.641,0,0,1-2.6,3.137l-.977-.711a10.243,10.243,0,0,0,3.541-4.675h-2.673V243.7h2.728v-1.764a25,25,0,0,1-2.523.308l-.431-.964a14.32,14.32,0,0,0,5.572-1.271l.642.793a11.067,11.067,0,0,1-2.194.9v2h2.379v1.026h-2.379v1l.376-.266A6.143,6.143,0,0,1,214.057,248.187Zm4.511,3.452H217.5v-1.4h-2.235v1.4H214.2v-10.5h4.368Zm-1.066-2.42v-7.055h-2.235v7.055Z"/>
    <path d="M223.723,245.021l-.882.7a6.1,6.1,0,0,0-2.044-2.352l.766-.656A6.3,6.3,0,0,1,223.723,245.021Zm.177,1.792a10.862,10.862,0,0,1-2.03,5.25l-1-.575a9.973,9.973,0,0,0,1.989-5.168Zm.657-4.567-.834.718a5.2,5.2,0,0,0-1.976-2.3l.725-.615A4.911,4.911,0,0,1,224.557,242.246Zm8.962,4.437a6.83,6.83,0,0,1-.67.916,7.374,7.374,0,0,1-3.938-3.924h-.868a8.4,8.4,0,0,1-3.486,3.794l-.739-.855a7.184,7.184,0,0,0,3.077-2.939h-2.557v-1.019h2.939a6.823,6.823,0,0,0,.335-1.237l-2.563.144-.39-1.012q1.647,0,3.76-.212a18.46,18.46,0,0,0,3.254-.554l.547.868a16.066,16.066,0,0,1-3.5.67,7.365,7.365,0,0,1-.308,1.333h4.368v1.019h-2.761A6.21,6.21,0,0,0,233.519,246.683Zm-6.706.786a8.9,8.9,0,0,1-1.846,3.472l-1-.628a7.248,7.248,0,0,0,1.893-3.261Zm1.681,3.616a1.338,1.338,0,0,1-.3.741,1.231,1.231,0,0,1-1.049.435l-.765.013-.321-1.08a7,7,0,0,0,.786.055c.386,0,.581-.148.581-.444v-5.49h1.066Zm2.352-.561-1.039.267a7.48,7.48,0,0,0-1.142-3.336l.964-.253A7.113,7.113,0,0,1,230.846,250.524Zm2.215-.184-1,.362a6.869,6.869,0,0,0-1.634-3.315l.991-.294A6.986,6.986,0,0,1,233.061,250.34Z"/>
    <path d="M192.626,259.606l-.068,3.323a28.057,28.057,0,0,1-.2,2.99,7.357,7.357,0,0,1-.4,1.822,1.637,1.637,0,0,1-.578.741,1.492,1.492,0,0,1-.83.223,13.092,13.092,0,0,1-1.723-.246l-.184-1.224a9.741,9.741,0,0,0,1.8.452.511.511,0,0,0,.4-.285,6.2,6.2,0,0,0,.387-1.821q.2-1.538.307-4.949h-1.709a18.127,18.127,0,0,1-.92,5.458,8.211,8.211,0,0,1-2.183,3.278l-.855-.745a7.818,7.818,0,0,0,2.571-5.257q.246-1.716.287-2.734h-2.3v-1.026h2.3q.073-.594.136-2.939l1.135.082-.123,2.857Zm5.209,9.044h-1.107v-1.059h-2.215v1.059h-1.06v-9.884h4.382Zm-1.107-2.085v-6.774h-2.215v6.774Z"/>
    <path d="M211.165,268.117q0,.928-1.456.93c-.232,0-.518-.007-.855-.021l-.41-1.032c.474.036.843.055,1.108.055.4,0,.6-.121.6-.362v-7.534H206.6q0,.882-.082,1.723a11.867,11.867,0,0,1,3.076,3.582l-.855.643a12.548,12.548,0,0,0-2.55-3.077,7.1,7.1,0,0,1-3.26,3.371l-.643-.9a7.226,7.226,0,0,0,2.454-2,5.641,5.641,0,0,0,.821-3.343h-3.61V269.2h-1.066V259.135h4.751v-2.372h1v2.372h4.525Z"/>
    <path d="M226.4,264.72l-.629.895a15.347,15.347,0,0,1-2.133-.895v4.491h-1.06v-.738h-5.045v.779H216.47v-4.464q-.672.382-1.976.95l-.786-.895q4.525-1.628,6.344-4.621l.882.6-.294.424A12.535,12.535,0,0,0,226.4,264.72Zm-7.7-4.69a9.417,9.417,0,0,1-3.288,2.728l-.854-.759a8.462,8.462,0,0,0,3.377-2.632l.752.663Zm6.85.527h-1.066v-1.579H215.67v1.681h-1.08v-2.7h4.9v-1.333h1.094v1.333h4.956Zm-2.536,3.841a9.277,9.277,0,0,1-2.926-2.413,9.989,9.989,0,0,1-2.994,2.413Zm-.444,1h-5.045v2.044h5.045Zm2.754-3.459-.724.814a10.049,10.049,0,0,0-3.418-2.6l.724-.772A10.062,10.062,0,0,1,225.315,261.944Z"/>
  </g>
  <g>
    <path d="M191.63,115.24l-1.26,1a8.7,8.7,0,0,0-2.92-3.359l1.094-.938A8.989,8.989,0,0,1,191.63,115.24Zm.254,2.559a15.5,15.5,0,0,1-2.9,7.5l-1.435-.82a14.263,14.263,0,0,0,2.842-7.383Zm.937-6.524L191.63,112.3a7.419,7.419,0,0,0-2.822-3.281l1.035-.879A7,7,0,0,1,192.821,111.275Zm12.8,6.338a9.45,9.45,0,0,1-.957,1.309,10.533,10.533,0,0,1-5.625-5.606H197.8a11.976,11.976,0,0,1-4.981,5.42l-1.054-1.22a10.247,10.247,0,0,0,4.394-4.2h-3.652v-1.455h4.2a9.827,9.827,0,0,0,.479-1.767l-3.663.205-.556-1.445q2.354,0,5.371-.3a26.32,26.32,0,0,0,4.648-.791l.782,1.24a22.985,22.985,0,0,1-5,.957,10.545,10.545,0,0,1-.44,1.9h6.24v1.455h-3.945A8.874,8.874,0,0,0,205.624,117.613Zm-9.58,1.123a12.671,12.671,0,0,1-2.637,4.961l-1.426-.9a10.337,10.337,0,0,0,2.706-4.658Zm2.4,5.166a1.915,1.915,0,0,1-.425,1.06,1.757,1.757,0,0,1-1.5.62l-1.093.02-.459-1.543a10.11,10.11,0,0,0,1.123.078q.829,0,.83-.635V115.66h1.523Zm3.36-.8-1.485.38a10.673,10.673,0,0,0-1.631-4.765l1.377-.362A10.143,10.143,0,0,1,201.806,123.1Zm3.164-.264-1.426.517a9.8,9.8,0,0,0-2.334-4.736l1.416-.42A9.976,9.976,0,0,1,204.97,122.838Z"/>
    <path d="M217.206,112.076l-.1,4.746a38.875,38.875,0,0,1-.293,4.273,10.435,10.435,0,0,1-.576,2.6,2.365,2.365,0,0,1-.825,1.06,2.15,2.15,0,0,1-1.186.317,18.692,18.692,0,0,1-2.461-.351l-.264-1.748a13.929,13.929,0,0,0,2.578.644.732.732,0,0,0,.571-.405,8.826,8.826,0,0,0,.552-2.6q.284-2.2.44-7.07H213.2a25.918,25.918,0,0,1-1.313,7.8,11.756,11.756,0,0,1-3.12,4.682l-1.221-1.064a14.776,14.776,0,0,0,2.666-3.608,14.872,14.872,0,0,0,1.006-3.9q.351-2.451.41-3.906h-3.281v-1.465h3.281q.106-.849.195-4.2l1.621.117-.175,4.082ZM224.647,125h-1.582v-1.514H219.9V125h-1.513V110.875h6.259Zm-1.582-2.978V112.34H219.9v9.678Z"/>
  </g>
  <polygon points="223.273 170.504 208.273 170.504 208.273 185.504 203.273 185.504 203.273 170.504 189.273 170.504 189.273 165.504 203.273 165.504 203.273 150.504 208.273 150.504 208.273 165.504 223.273 165.504 223.273 170.504" fill="#5b5d5e"/>
  <g>
    <path d="M318.5,248.9a15.1,15.1,0,0,1-4.423,3.582l-.6-.9a12.158,12.158,0,0,0,4.115-3.384Zm6.638-2.043-.034,1.066h-11.41v-1.066h2.858l-.028-3.207h-2.016v-1.066h2.071V239.9h1.067v2.686h3.5V239.9h1.107v2.686h2.03v1.066h-2.03v3.207Zm-3.992,0v-3.207h-3.5v3.207Zm4.224,4.887-.806.656a14.659,14.659,0,0,0-4.164-3.418l.759-.779A14.6,14.6,0,0,1,325.368,251.741Z"/>
    <path d="M339.382,242.123H327.46v-1.066h5.387v-1.149h1.107v1.149h5.428Zm.143,7.752h-5.332v1.47a.864.864,0,0,1-.984.97h-1.538l-.479-1.121q.882.083,1.388.082c.365,0,.547-.088.547-.266v-1.135h-5.558v-1.019h5.558v-.642a10.219,10.219,0,0,0,2.618-.759h-6.61v-1.018h8.558v.963a8.927,8.927,0,0,1-3.281,1.456h5.113Zm-2.173-4.129h-7.7v-3.062h7.7Zm-1.06-1.018V243.7h-5.571v1.026Z"/>
    <path d="M299.426,264.986l-.882.643a5.751,5.751,0,0,0-1.716-2.365v6.015h-1.08v-5.5a10.624,10.624,0,0,1-2.6,3.138l-.978-.711a10.24,10.24,0,0,0,3.541-4.676h-2.673V260.5h2.728v-1.764a25.249,25.249,0,0,1-2.523.308l-.43-.964a14.314,14.314,0,0,0,5.571-1.271l.642.793a11.067,11.067,0,0,1-2.194.9v2h2.379v1.025h-2.379v1l.376-.266A6.132,6.132,0,0,1,299.426,264.986Zm4.512,3.452h-1.067v-1.394h-2.235v1.394h-1.067v-10.5h4.369Zm-1.067-2.419v-7.055h-2.235v7.055Z"/>
    <path d="M318.58,268.288l-.725.855a8.794,8.794,0,0,1-2.128-.739,22.119,22.119,0,0,1-2.158-1.435,8.384,8.384,0,0,1-4.423,2.146l-.615-.882a8.884,8.884,0,0,0,4.293-1.948,11.7,11.7,0,0,1-1.886-2.755,11.057,11.057,0,0,1-4.218,5.264l-.766-.9a10.553,10.553,0,0,0,4.717-6.767h-3.206v-.937l1.285-3.206.943.492-1.052,2.632h2.3a23.961,23.961,0,0,0,.546-3.4l1.019.267q-.307,2.268-.5,3.137h6.029v1.019h-6.268l-.369,1.094h4.792v.868a11.459,11.459,0,0,1-1.962,3.165A10.765,10.765,0,0,0,318.58,268.288ZM315,263.25h-3.069a8.975,8.975,0,0,0,1.586,2.276A8.375,8.375,0,0,0,315,263.25Zm1.231-4.074-.855.67a5.886,5.886,0,0,0-2.228-2.017l.731-.683A6.8,6.8,0,0,1,316.229,259.176Z"/>
    <path d="M332.3,259.675h-7.2a14.818,14.818,0,0,1-1.19,2.413h2.666v-1.777h1.06v1.777H331.1v4.156q0,1.347-1,1.347h-1.279l-.334-1.08a9.7,9.7,0,0,0,1.066.095c.324,0,.485-.121.485-.362v-3.138h-2.392v6.132h-1.06v-6.132H324.5v4.861h-1.06l-.027-5.209a21.119,21.119,0,0,1-2.256,2.727l-.923-.642A14.9,14.9,0,0,0,324,259.675h-3.138v-1.019h3.514q.246-.649.629-2.044l1,.308q-.472,1.66-.506,1.736h6.8Z"/>
    <path d="M345.534,268.117q0,.928-1.456.93-.348,0-.854-.021l-.411-1.032c.474.036.843.055,1.108.055q.6,0,.6-.362v-7.534h-3.554q0,.882-.082,1.723a11.867,11.867,0,0,1,3.076,3.582l-.855.643a12.521,12.521,0,0,0-2.549-3.077A7.1,7.1,0,0,1,337.3,266.4l-.643-.9a7.207,7.207,0,0,0,2.454-2,5.641,5.641,0,0,0,.821-3.343h-3.61V269.2h-1.066V259.135H340v-2.372h1v2.372h4.525Z"/>
    <path d="M360.765,264.72l-.629.895A15.347,15.347,0,0,1,358,264.72v4.491h-1.06v-.738H351.9v.779h-1.059v-4.464a21.654,21.654,0,0,1-1.976.95l-.786-.895q4.525-1.628,6.344-4.621l.882.6-.294.424A12.541,12.541,0,0,0,360.765,264.72Zm-7.7-4.69a9.43,9.43,0,0,1-3.289,2.728l-.854-.759a8.448,8.448,0,0,0,3.377-2.632l.752.663Zm6.849.527h-1.066v-1.579h-8.805v1.681h-1.08v-2.7h4.9v-1.333h1.094v1.333h4.956Zm-2.536,3.841a9.288,9.288,0,0,1-2.926-2.413,9.965,9.965,0,0,1-2.994,2.413Zm-.444,1h-5.045v2.044h5.045Zm2.755-3.459-.725.814a10.04,10.04,0,0,0-3.418-2.6l.725-.772A10.072,10.072,0,0,1,359.685,261.944Z"/>
  </g>
  <g>
    <path d="M315.008,120.777a21.617,21.617,0,0,1-6.319,5.118l-.859-1.28a17.367,17.367,0,0,0,5.879-4.834Zm9.482-2.92-.049,1.524h-16.3v-1.524h4.082l-.039-4.58h-2.881v-1.523h2.959v-3.838h1.523v3.838h5v-3.838h1.582v3.838h2.9v1.523h-2.9v4.58Zm-5.7,0v-4.58h-5v4.58Zm6.035,6.983-1.152.937a20.927,20.927,0,0,0-5.947-4.882l1.084-1.114A20.84,20.84,0,0,1,324.822,124.84Z"/>
    <path d="M344.842,111.1H327.811v-1.524h7.695v-1.64h1.582v1.64h7.754Zm.205,11.074H337.43v2.1a1.235,1.235,0,0,1-1.407,1.387h-2.2l-.683-1.6q1.259.117,1.982.117.782,0,.781-.381v-1.621h-7.939v-1.455h7.939V119.8a14.656,14.656,0,0,0,3.74-1.084H330.2v-1.455H342.43v1.377a12.758,12.758,0,0,1-4.688,2.08h7.305Zm-3.106-5.9h-11V111.9h11Zm-1.513-1.455v-1.465h-7.959v1.465Z"/>
  </g>
  <g>
    <path d="M326.132,227.837c.23-3.426.941-16.878-1.072-25.615" fill="none" stroke="#000" stroke-miterlimit="10"/>
    <polygon points="329.702 204.637 329.125 205.455 325.1 202.607 322.554 206.831 321.697 206.313 324.799 201.17 329.702 204.637"/>
  </g>
  <g>
    <path d="M209.132,227.837c.23-3.426.941-16.878-1.072-25.615" fill="none" stroke="#000" stroke-miterlimit="10"/>
    <polygon points="212.702 204.637 212.125 205.455 208.1 202.607 205.554 206.831 204.697 206.313 207.799 201.17 212.702 204.637"/>
  </g>
  <path d="M345.962,162.465l-17.826,17.668V169.047a26.635,26.635,0,0,0-6.72,1.715,24.985,24.985,0,0,0-5.763,3.23,23.65,23.65,0,0,0-4.527,4.465,20.565,20.565,0,0,0-3.011,5.424,18.8,18.8,0,0,1-1.236-6.7,19.24,19.24,0,0,1,1.615-7.8,21.444,21.444,0,0,1,4.467-6.561,24.861,24.861,0,0,1,6.74-4.785,26.212,26.212,0,0,1,8.435-2.473V144.8Zm-14.636-4.027-2.792.318a23.185,23.185,0,0,0-6.461,1.717,21.732,21.732,0,0,0-5.5,3.369,19.248,19.248,0,0,0-4.068,4.746,16.806,16.806,0,0,0-2.193,5.883,26.723,26.723,0,0,1,7.716-5.725,30.394,30.394,0,0,1,9.711-2.891l3.59-.439v7.061l10.09-10.012-10.09-10.01Z" fill="#5b5d5e"/>
  <g>
    <path d="M440.324,251.152a1.221,1.221,0,0,1-.287.827.9.9,0,0,1-.718.335h-1.456l-.342-1.093,1.163.034q.532,0,.533-.315v-3.206h-3.049v3.74H435.1v-3.74h-3.077a7.844,7.844,0,0,1-2.044,4.792l-.9-.676a8.582,8.582,0,0,0,1.466-2.4A7.644,7.644,0,0,0,431,246.7v-6.234h9.324Zm-5.222-7.615v-2.044h-3.036v2.044Zm0,3.179v-2.16h-3.036v2.16Zm4.115-3.179v-2.044h-3.049v2.044Zm0,3.179v-2.16h-3.049v2.16Z"/>
    <path d="M454.242,246.49h-1.066v-.574h-7.137a12.9,12.9,0,0,1-.424,3.979,6.44,6.44,0,0,1-1.552,2.529l-.963-.752a5.654,5.654,0,0,0,1.859-4.553v-5.113h4.491a4.973,4.973,0,0,0-1.722-1.607l.786-.683a6.983,6.983,0,0,1,2.085,1.928l-.458.321v.041h4.1Zm-1.066-1.586v-1.886h-7.151V244.9Z"/>
    <path d="M467.976,250.127a.838.838,0,0,1-.278.622,1.013,1.013,0,0,1-.526.305,10.536,10.536,0,0,1-1.138.037,3.036,3.036,0,0,0-.369.02l-.4-1.175,1.34.109q.362.027.362-.253v-1.764h-3.09v4.245h-1.066v-4.245h-2.755v3.206h-1.067v-3.486a7.9,7.9,0,0,1-1.271.67l-.6-1.032q2.425-.793,2.837-2h-2.433v-1.019H460.2a3.444,3.444,0,0,0,.068-.827h-2.235v-1.025h2.235v-.841h-2.645v-1.019h2.645v-.786h1.067v.786h2.338v1.019h-2.338v.841h2.1v1.025h-2.126l-.041.827h2.98v1.019h-3.192a2.546,2.546,0,0,1-1,1.593v.034h2.755V245.7h1.066v1.306h4.1Zm-.322-7.15q1.647,1.313,1.648,2.18a1.221,1.221,0,0,1-.489,1.012,2,2,0,0,1-1.213.4l-.869.028-.451-1.121q.642.027.957.027a1.615,1.615,0,0,0,.821-.116.371.371,0,0,0,.13-.287q0-.54-1.839-1.976l1.319-1.723H465.85v5.408h-1.012v-6.426h4.142v.95Z"/>
    <path d="M477.635,249.484l-5.852,1.832-.683-.95,1.271-.376v-9.379h4.382V248.7l.882-.321Zm-1.948-3.11v-1.887h-2.249v1.887Zm0,2.652V247.4h-2.249v2.27Zm0-5.591V241.63h-2.195v1.805Zm7.628-.527-.15,2.7a31.143,31.143,0,0,1-.424,3.822,4.405,4.405,0,0,1-.786,2.164,1.647,1.647,0,0,1-1.2.468,10.687,10.687,0,0,1-1.545-.253l-.123-1.163a8.222,8.222,0,0,0,1.62.356.689.689,0,0,0,.577-.427,7.831,7.831,0,0,0,.5-2.1q.252-1.679.4-4.543h-1.894l-.212,2.153a7.65,7.65,0,0,1-1.173,3.548,10.488,10.488,0,0,1-3.011,2.81l-.724-.91a8.265,8.265,0,0,0,2.9-2.543,10.307,10.307,0,0,0,1.139-5.058h-1.955v-1.019h2q.061-1.851.041-3.069h1.087l-.069,3.069Z"/>
    <path d="M489.058,251.624l-1.217,1.08a6.81,6.81,0,0,0-2.167-2.871l.779-.67A8.682,8.682,0,0,1,489.058,251.624Z"/>
    <path d="M427.582,268.191l-.472,1.019a13.158,13.158,0,0,1-2.96-.912,10.156,10.156,0,0,1-2.57-1.412A19.752,19.752,0,0,1,416,269.21l-.547-.978a16.955,16.955,0,0,0,5.182-2,11.237,11.237,0,0,1-2.707-3.26h-.937v-1.026h3.938V260H415.8v-1.025h5.127v-2.3h1.114l.027,2.3h5.127V260h-5.154l.027,1.941h3.514v.937a7.774,7.774,0,0,1-1.306,1.777,10.128,10.128,0,0,1-1.811,1.614A13.54,13.54,0,0,0,427.582,268.191Zm-3.3-5.222h-5.168a9.624,9.624,0,0,0,2.427,2.645A9.6,9.6,0,0,0,424.28,262.969Z"/>
    <path d="M433.926,260.433h-1.7v2.59l1.614-.656V263.5l-1.614.6v4.026q0,1.067-1.148,1.066h-1.3l-.335-1.032,1,.055c.479.018.718-.118.718-.41v-3.371a10.094,10.094,0,0,1-1.572.575l-.7-.882q1.565-.465,2.27-.745v-2.953H429.25v-1.019h1.921v-2.789h1.059v2.789h1.7Zm7.642,4.34H439.5v3.391a1.177,1.177,0,0,1-.373.735,1.055,1.055,0,0,1-.748.3h-1.408l-.41-1.093a12.987,12.987,0,0,0,1.6.075.413.413,0,0,0,.164-.069.2.2,0,0,0,.117-.171v-3.165h-4.916v-1.025h4.916v-1.06H439.5v1.06h2.071Zm-.082-2.433h-7.711v-1.026h3.234v-1.709h-2.721v-1.018h2.721v-1.962h1.059v1.962h2.646v1.018h-2.646v1.709h3.418Zm-4.272,4.505-.711.786a9.193,9.193,0,0,0-2.523-1.695l.7-.773A8.858,8.858,0,0,1,437.214,266.845Z"/>
    <path d="M450.359,264.985l-.881.643a5.783,5.783,0,0,0-1.716-2.365v6.015h-1.08v-5.5a10.646,10.646,0,0,1-2.605,3.138l-.977-.711a10.237,10.237,0,0,0,3.541-4.676h-2.673V260.5H446.7v-1.764a25.279,25.279,0,0,1-2.522.308l-.431-.964a14.274,14.274,0,0,0,5.571-1.271l.643.793a11.033,11.033,0,0,1-2.194.895v2h2.379v1.025h-2.379v1l.376-.266A6.142,6.142,0,0,1,450.359,264.985Zm4.512,3.453h-1.066v-1.395h-2.236v1.395H450.5v-10.5h4.368Zm-1.066-2.42v-7.055h-2.236v7.055Z"/>
    <path d="M468.324,267.952a1.221,1.221,0,0,1-.287.827.9.9,0,0,1-.718.335h-1.456l-.342-1.093,1.163.034q.532,0,.533-.315v-3.206h-3.049v3.739H463.1v-3.739h-3.077a7.844,7.844,0,0,1-2.044,4.792l-.9-.677a8.564,8.564,0,0,0,1.466-2.395A7.644,7.644,0,0,0,459,263.5v-6.234h9.324Zm-5.222-7.615v-2.044h-3.036v2.044Zm0,3.179v-2.161h-3.036v2.161Zm4.115-3.179v-2.044h-3.049v2.044Zm0,3.179v-2.161h-3.049v2.161Z"/>
    <path d="M482.242,263.29h-1.066v-.574h-7.137a12.893,12.893,0,0,1-.424,3.978,6.437,6.437,0,0,1-1.552,2.53l-.963-.752a5.655,5.655,0,0,0,1.859-4.553v-5.113h4.491a4.973,4.973,0,0,0-1.722-1.607l.786-.683a6.993,6.993,0,0,1,2.085,1.927l-.458.322v.041h4.1Zm-1.066-1.586v-1.887h-7.151V261.7Z"/>
    <path d="M490.979,264.719l-.828.765a8.512,8.512,0,0,0-1.668-1.661v5.442h-1.107V263.96a10.735,10.735,0,0,1-1.593,1.4l-.772-.84a13.65,13.65,0,0,0,3.753-4.02h-3.446v-1.019H487.4V256.8h1.121v2.686h1.456v.923a12.18,12.18,0,0,1-1.51,2.407l.013.492.411-.41A7.441,7.441,0,0,1,490.979,264.719Zm6.665,3.7H489.2v-1.06h3.637v-5h-3.022v-1.025h3.022v-4.478h1.107v4.478h3.179v1.025h-3.179v5h3.7Z"/>
    <path d="M511.418,268.3H501.28v.8h-1.066V257.322h10.739v1.012H501.28V267.3h10.138Zm-1.456-1.935-.923.615a19.9,19.9,0,0,0-2.509-3.465,16.058,16.058,0,0,1-3.725,3.554l-.827-.895a13.459,13.459,0,0,0,3.841-3.487,27.336,27.336,0,0,0-3.6-3.247l.8-.663a30.26,30.26,0,0,1,3.39,3,30.35,30.35,0,0,0,1.9-3.042l.895.492q-.438.9-2.044,3.357A17.952,17.952,0,0,1,509.962,266.366Z"/>
  </g>
  <g>
    <path d="M459.586,122.535a1.2,1.2,0,0,1-.4.889,1.437,1.437,0,0,1-.752.434,14.459,14.459,0,0,1-1.625.054,4.265,4.265,0,0,0-.528.029l-.576-1.679,1.914.156c.346.025.518-.1.518-.361v-2.52h-4.414V125.6H452.2v-6.065h-3.935v4.58h-1.524v-4.98a11.609,11.609,0,0,1-1.816.957l-.86-1.475q3.468-1.134,4.053-2.861h-3.476V114.3h3.837a4.842,4.842,0,0,0,.1-1.182h-3.193v-1.465h3.193v-1.2H444.8V109h3.779v-1.123H450.1V109h3.339v1.455H450.1v1.2h3v1.465h-3.038l-.058,1.182h4.258v1.455H449.7a3.639,3.639,0,0,1-1.435,2.275v.049H452.2v-1.865h1.524v1.865h5.859Zm-.459-10.215q2.353,1.875,2.353,3.116a1.745,1.745,0,0,1-.7,1.445,2.86,2.86,0,0,1-1.733.576l-1.24.039-.645-1.6c.612.025,1.068.039,1.367.039a2.312,2.312,0,0,0,1.172-.166.531.531,0,0,0,.186-.411q0-.771-2.627-2.822l1.884-2.461h-2.6V117.8H455.1v-9.18h5.917v1.358Z"/>
    <path d="M473.385,121.617l-8.36,2.617-.976-1.357,1.816-.537v-13.4h6.26v11.553l1.26-.459Zm-2.783-4.443v-2.7h-3.213v2.7Zm0,3.789v-2.324h-3.213v3.242Zm0-7.988V110.4h-3.135v2.579Zm10.9-.752-.215,3.857a44.229,44.229,0,0,1-.605,5.459,6.277,6.277,0,0,1-1.123,3.091,2.349,2.349,0,0,1-1.709.669,15.522,15.522,0,0,1-2.207-.361l-.176-1.661a11.9,11.9,0,0,0,2.314.508.983.983,0,0,0,.825-.61,11.139,11.139,0,0,0,.709-3.008q.361-2.4.576-6.489h-2.7l-.3,3.076a10.926,10.926,0,0,1-1.675,5.068,14.976,14.976,0,0,1-4.3,4.014l-1.035-1.3a11.829,11.829,0,0,0,4.146-3.633q1.412-2.1,1.626-7.226h-2.793v-1.455h2.861q.088-2.647.059-4.385h1.552l-.1,4.385Z"/>
  </g>
  <g>
    <path d="M460.86,227.837c-.232-3.438.873-18.388,5.017-27.361" fill="none" stroke="#000" stroke-miterlimit="10"/>
    <polygon points="468.361 205.162 467.418 205.497 465.77 200.85 461.255 202.833 460.854 201.917 466.353 199.502 468.361 205.162"/>
  </g>
  <path d="M463.345,144.8a18.985,18.985,0,0,1,7.617,1.535,19.656,19.656,0,0,1,10.39,10.389,19.666,19.666,0,0,1,0,15.234,19.666,19.666,0,0,1-10.39,10.389,19.666,19.666,0,0,1-15.234,0,19.659,19.659,0,0,1-10.389-10.389,19.666,19.666,0,0,1,0-15.234,19.65,19.65,0,0,1,10.389-10.389A18.985,18.985,0,0,1,463.345,144.8Zm0,35.892a15.9,15.9,0,0,0,6.381-1.3,16.631,16.631,0,0,0,5.2-3.51,16.431,16.431,0,0,0,3.489-5.184,16.425,16.425,0,0,0-.02-12.742,16.662,16.662,0,0,0-3.509-5.205,16.427,16.427,0,0,0-5.185-3.488,16.407,16.407,0,0,0-12.742.019,16.615,16.615,0,0,0-5.2,3.51,16.381,16.381,0,0,0-3.489,5.184,16.419,16.419,0,0,0,.019,12.742,16.625,16.625,0,0,0,3.51,5.2,16.412,16.412,0,0,0,5.184,3.488A15.922,15.922,0,0,0,463.345,180.691Zm-.119-29.711a12.372,12.372,0,0,1,4.626.758,8.718,8.718,0,0,1,2.991,1.9,6.84,6.84,0,0,1,1.595,2.451,7.171,7.171,0,0,1,.478,2.434,9.375,9.375,0,0,1-.279,2.453,7.377,7.377,0,0,1-.738,1.795,6.284,6.284,0,0,1-1.037,1.336,13.314,13.314,0,0,1-1.216,1.037q-.637.477-1.256.877a8.289,8.289,0,0,0-1.137.877,5.3,5.3,0,0,0-.9,1.076,3.656,3.656,0,0,0-.5,1.476h-5.3a8.21,8.21,0,0,1,.418-2.234,7.539,7.539,0,0,1,.818-1.674,8.355,8.355,0,0,1,1.036-1.277,10.137,10.137,0,0,1,1.157-1l.24-.2q.516-.44,1-.837a5.684,5.684,0,0,0,.837-.858,3.618,3.618,0,0,0,.558-1.017,3.916,3.916,0,0,0,.2-1.317,3.5,3.5,0,0,0-.876-2.631,3.384,3.384,0,0,0-2.433-.838,3.8,3.8,0,0,0-1.8.4,3.631,3.631,0,0,0-1.256,1.076,4.625,4.625,0,0,0-.738,1.6,7.751,7.751,0,0,0-.239,1.955h-5.7a11.257,11.257,0,0,1,.718-3.869,8.937,8.937,0,0,1,1.914-3.032,8.814,8.814,0,0,1,2.951-1.994A9.954,9.954,0,0,1,463.226,150.98Zm-2.672,21.456h5.3V177.7h-5.3Z" fill="#5b5d5e"/>
</svg>
