<svg xmlns="http://www.w3.org/2000/svg" viewBox="0 0 560 380">
  <g>
    <g>
      <path d="M21.476,216.242H11.468v-1.078H17.55l.914-6.65H12.821v-1.078h6.756v1.019l-.937,6.709h2.836Z"/>
      <path d="M33.569,212.129H23.562v-1.084H33.569Z"/>
      <path d="M45.259,210.389h-2.28v1.968a4.431,4.431,0,0,1-.911,2.637A5.586,5.586,0,0,1,39.5,216.9l-.686-1.066a4.162,4.162,0,0,0,2.268-1.356,3.251,3.251,0,0,0,.815-2.1v-1.992H38.767v2.554H37.683v-2.554h-2.35v-1.084h2.35v-2.567h1.084v2.567H41.9v-2.567h1.083v2.567h2.28Zm-.434-1.682-.826.346a5.718,5.718,0,0,0-.58-1.606l.879-.357A6.314,6.314,0,0,1,44.825,208.707Zm1.33-.48-.826.351a5.846,5.846,0,0,0-.574-1.611l.873-.358A6.336,6.336,0,0,1,46.155,208.227Z"/>
      <path d="M57.569,212.129H47.562v-1.084H57.569Z"/>
      <path d="M62.931,213.277a18.667,18.667,0,0,0-1.043,3.012H61.1a9.53,9.53,0,0,1-.961-4.488,21.1,21.1,0,0,1,.662-4.951l1.166.369a15.157,15.157,0,0,0-.768,4.623,9.592,9.592,0,0,0,.235,2.385h.029A8.5,8.5,0,0,1,62,212.99Zm6.134,1.371-.263,1.213q-1.682.129-2.737.129A6.458,6.458,0,0,1,63.7,215.7a1.263,1.263,0,0,1-.621-1.283,4.482,4.482,0,0,1,.135-1.055l1.125.24a2.952,2.952,0,0,0-.193.815.408.408,0,0,0,.3.4,4.5,4.5,0,0,0,1.289.114Q66.523,214.936,69.065,214.648Zm-.72-6.744-.141,1.114a12.4,12.4,0,0,0-2.115-.141,15.767,15.767,0,0,0-2.555.24l-.135-1.131q1.764-.181,2.666-.181A18.886,18.886,0,0,1,68.345,207.9Z"/>
      <path d="M81.147,215.943q0,.873-1.306.873h-.756a2.438,2.438,0,0,0-.123-.439c-.066-.184-.109-.316-.129-.4l.744.035a1.153,1.153,0,0,0,.516-.065c.1-.051.146-.168.146-.351v-4.67H78.212l.463.205a3.2,3.2,0,0,1-.516.656h1v.844H76.911a4.21,4.21,0,0,1-.117.644h3.094v.844H77.667a4.226,4.226,0,0,0,2.256,1.149,7.728,7.728,0,0,1-.6.638,4.335,4.335,0,0,1-2.566-1.787h-.17a3.279,3.279,0,0,1-3.012,1.969l-.322-.8a2.8,2.8,0,0,0,2.373-1.172H73.5v-.844H75.9a2.262,2.262,0,0,0,.1-.644H73.935v-.844h1.072l-.481-.6.516-.263H73.1v6.035h-.95V206.727h4.008v4.2h-.838l.674.861h1.184a3.107,3.107,0,0,0,.6-.861h-.685v-4.2h4.054Zm-5.9-7.593v-.745H73.1v.745Zm0,1.7v-.873H73.1v.873Zm4.992-1.7v-.745H78.007v.745Zm0,1.7v-.873H78.007v.873Z"/>
      <path d="M93.2,209.51H90.5v2a5.079,5.079,0,0,1,.252,1.547,4.039,4.039,0,0,1-.68,2.306,4.423,4.423,0,0,1-1.974,1.572l-.674-1.1a3.7,3.7,0,0,0,1.512-.764,1.837,1.837,0,0,0,.65-1.135,1.845,1.845,0,0,1-1.248.446,2.106,2.106,0,0,1-2.086-2.151,2.264,2.264,0,0,1,.592-1.607,1.994,1.994,0,0,1,1.529-.637,1.756,1.756,0,0,1,1.031.3v-.779H83.931v-1.078H89.4V206.92h1.1v1.512h2.7Zm-4.91,3.756a.981.981,0,0,0,.773-.348,1.194,1.194,0,0,0,.3-.813.909.909,0,0,0-.3-.687,1.024,1.024,0,0,0-.732-.285.887.887,0,0,0-.7.314,1.259,1.259,0,0,0-.021,1.547A.875.875,0,0,0,88.29,213.266Z"/>
      <path d="M100.073,210.242a5.306,5.306,0,0,1,1.694-.275,2.866,2.866,0,0,1,1.977.767,2.4,2.4,0,0,1,.853,1.852,3.03,3.03,0,0,1-.762,2.084,3.588,3.588,0,0,1-1.7,1.125,6.227,6.227,0,0,1-1.688.266,2.945,2.945,0,0,1-1.778-.5,1.618,1.618,0,0,1-.683-1.383,1.435,1.435,0,0,1,.487-1.125,1.662,1.662,0,0,1,1.142-.434,2.8,2.8,0,0,1,1.582.514,3.432,3.432,0,0,1,1.178,1.355,1.992,1.992,0,0,0,.826-.746,1.959,1.959,0,0,0,.305-1.053,1.369,1.369,0,0,0-.627-1.218,3.3,3.3,0,0,0-1.822-.416,5.4,5.4,0,0,0-2.426.58q-1.547,1.394-2.291,1.957l-.791-.891A31.237,31.237,0,0,0,100.5,208.3a19.612,19.612,0,0,1-2.619.205q-.48,0-.984-.035l-.059-1.154a7.9,7.9,0,0,0,1.143.076,29.608,29.608,0,0,0,4.16-.4l.123,1-2.209,2.233Zm1.283,4.647a2.294,2.294,0,0,0-.72-.826,1.636,1.636,0,0,0-.973-.364.641.641,0,0,0-.428.145.439.439,0,0,0-.17.347.705.705,0,0,0,.408.59,1.9,1.9,0,0,0,1.01.248A2.725,2.725,0,0,0,101.356,214.889Z"/>
      <path d="M33.2,223.91H30.5v2a5.079,5.079,0,0,1,.252,1.547,4.039,4.039,0,0,1-.68,2.306A4.432,4.432,0,0,1,28.1,231.34l-.674-1.1a3.7,3.7,0,0,0,1.512-.764,1.835,1.835,0,0,0,.65-1.134,1.844,1.844,0,0,1-1.248.445,2.105,2.105,0,0,1-2.086-2.15,2.267,2.267,0,0,1,.592-1.609,2,2,0,0,1,1.529-.635,1.756,1.756,0,0,1,1.031.3v-.779H23.931v-1.078H29.4V221.32h1.1v1.512h2.7Zm-4.91,3.756a.979.979,0,0,0,.773-.349,1.19,1.19,0,0,0,.3-.811.914.914,0,0,0-.3-.689,1.023,1.023,0,0,0-.732-.284.887.887,0,0,0-.7.314,1.259,1.259,0,0,0-.021,1.547A.879.879,0,0,0,28.29,227.666Z"/>
      <path d="M45.476,228.914l-.733.891a30.748,30.748,0,0,1-2.859-2.687,26.766,26.766,0,0,1-2.432-3.073c-.055-.082-.1-.123-.135-.123a2.852,2.852,0,0,0-.521.492,25.153,25.153,0,0,1-2.373,2.279l-.826-.92a18.4,18.4,0,0,0,3.334-3.123h.914a28.726,28.726,0,0,0,2.519,3.329A28.064,28.064,0,0,0,45.476,228.914Zm-1.541-5.889-.827.346a5.508,5.508,0,0,0-.574-1.605l.873-.364A6.336,6.336,0,0,1,43.935,223.025Zm1.336-.48-.827.346a5.6,5.6,0,0,0-.58-1.606l.879-.363A6.635,6.635,0,0,1,45.271,222.545Z"/>
      <path d="M56.837,223.014q-.786.064-1.245.14a3.422,3.422,0,0,0-1.178.536,6.607,6.607,0,0,0-1.3,1.087,5.365,5.365,0,0,0-.876,1.228,2.482,2.482,0,0,0-.3,1.087,2.12,2.12,0,0,0,1,1.714,6.117,6.117,0,0,0,2.713,1.01L55.1,230.9a6.909,6.909,0,0,1-3.062-1.451,3.019,3.019,0,0,1-1.163-2.317,3.667,3.667,0,0,1,.6-1.939,5.863,5.863,0,0,1,1.628-1.706l-.023-.029q-3.264.24-5.15.24l-.287-1.236q.861.041,1.681.041a65.139,65.139,0,0,0,7.395-.545Z"/>
      <path d="M65,223.119a22.055,22.055,0,0,1-1.169,5.25q-.729,1.792-1.643,1.793-.82,0-1.53-1.14a4.494,4.494,0,0,1-.709-2.411,4.4,4.4,0,0,1,.63-2.405,4.488,4.488,0,0,1,1.776-1.585,5.545,5.545,0,0,1,2.581-.592,4.3,4.3,0,0,1,3,1.1,3.817,3.817,0,0,1,1.215,2.976,4.549,4.549,0,0,1-.881,2.751,6.2,6.2,0,0,1-2.535,1.955l-.673-1.008a4.584,4.584,0,0,0,2.25-1.524A3.656,3.656,0,0,0,68.1,226a2.626,2.626,0,0,0-.875-2.022A3.4,3.4,0,0,0,65,223.119Zm-1.084.111a3.551,3.551,0,0,0-2.021,1.137,3.089,3.089,0,0,0-.821,2.139,3.838,3.838,0,0,0,.393,1.635q.393.837.709.838t.9-1.8A21.726,21.726,0,0,0,63.915,223.23Z"/>
      <path d="M72.546,223.143a6.1,6.1,0,0,1-.926,2.847l-.826-.433a5.234,5.234,0,0,0,.961-2.7Zm9.287,1.933H74.86l-.586.217a5.458,5.458,0,0,0-.562-1.272v7.366H72.8V220.77h.914V223.2l.369-.187a9.164,9.164,0,0,1,.768,1.195h2.736v-.586H75.423v-.861h2.162v-.516H74.919v-.867h2.666v-.826H78.5v.826h2.736v.867H78.5v.516h2.156v.861H78.5v.586h3.334Zm-1.055,5.151q0,.966-1.248.966h-.937l-.346-.861c.293.016.525.023.7.023a2.381,2.381,0,0,0,.791-.073c.094-.049.141-.315.141-.8H76.337v1.905h-.914v-5.76h5.355Zm-.914-3.17v-.563H76.337v.563Zm0,1.558v-.7H76.337v.7Z"/>
      <path d="M88.935,224.678H87.376v.011l.7.264a7.706,7.706,0,0,1-.685,1.324h1.523v.873h-2.2v1.067h1.916v.879H86.708v2.3h-.914v-2.3H83.632v-.879h2.162V227.15H83.345v-.873h1.863a5.7,5.7,0,0,0-.937-1.236l.732-.352v-.011H83.479v-.873h2.315V222.75H83.825v-.879h1.969v-1.26h.914v1.26H88.53v.879H86.708v1.055h2.227Zm-1.688,0H85.108a4.726,4.726,0,0,1,.973,1.6h.334A5.751,5.751,0,0,0,87.247,224.678Zm6.908,5.894-.668.768a10.406,10.406,0,0,1-1.535-1.623,5.734,5.734,0,0,1-1.441,1.576l-.469-.516v.575h-.926V221.1h4.36a10.648,10.648,0,0,1-.255,2.091,1.626,1.626,0,0,1-.507.985,1.466,1.466,0,0,1-.779.187q-.206,0-1.055-.1l-.311-.938a8.542,8.542,0,0,0,1.307.182.445.445,0,0,0,.381-.287,4.2,4.2,0,0,0,.258-1.237H90.042v2.936h3.527a8.868,8.868,0,0,1-1.043,3.984A6.43,6.43,0,0,0,94.155,230.572Zm-2.7-1.67a9.994,9.994,0,0,1-1.008-3.093h-.41v4.652A6.9,6.9,0,0,0,91.46,228.9Zm1.113-3.093H91.325A6.668,6.668,0,0,0,92,227.982,7.385,7.385,0,0,0,92.573,225.809Z"/>
    </g>
    <g>
      <path d="M47.7,106.726H46.437V98.338H46.41l-2.885,8.388h-1.19L39.464,98.2h-.041v8.525H38.166V96.7h1.982l2.372,7.1q.4,1.182.458,1.483h.027q.184-.581.534-1.606L45.931,96.7H47.7Z"/>
      <path d="M56,103.41H50.566a2.815,2.815,0,0,0,.687,1.839,2.033,2.033,0,0,0,1.528.636,1.86,1.86,0,0,0,1.182-.373,2.312,2.312,0,0,0,.732-1.124l1.264.157a3.1,3.1,0,0,1-1.127,1.743,3.347,3.347,0,0,1-2.051.608,3.288,3.288,0,0,1-2.553-1,3.892,3.892,0,0,1-.92-2.738,4.189,4.189,0,0,1,.892-2.782,3.094,3.094,0,0,1,2.512-1.066,3.529,3.529,0,0,1,1.528.348,2.983,2.983,0,0,1,1.248,1.186A5.033,5.033,0,0,1,56,103.41ZM54.736,102.4a2,2,0,0,0-2.024-2.085,1.9,1.9,0,0,0-1.428.582,2.422,2.422,0,0,0-.65,1.5Z"/>
    </g>
    <g>
      <path d="M53.963,201.2c-3.154-14.558-5.366-12.4-6.7-23.8" fill="none" stroke="#000" stroke-miterlimit="10"/>
      <polygon points="51.774 180.15 51.137 180.922 47.337 177.78 44.481 181.801 43.666 181.22 47.145 176.325 51.774 180.15"/>
    </g>
    <g>
      <path d="M46.554,124.476A16.925,16.925,0,1,1,29.629,141.4a16.943,16.943,0,0,1,16.925-16.924m0-2.8A19.725,19.725,0,1,0,66.278,141.4a19.725,19.725,0,0,0-19.724-19.724Z" fill="#5b5d5e"/>
      <path d="M51.474,140.472a6.716,6.716,0,0,1,1.816,1.04,7.477,7.477,0,0,1,1.419,1.507,7.045,7.045,0,0,1,.937,1.874,6.822,6.822,0,0,1,.337,2.137v4.1a1.15,1.15,0,0,1-1.171,1.171H38.417a1.148,1.148,0,0,1-1.17-1.171v-4.1a6.792,6.792,0,0,1,.336-2.137,7.015,7.015,0,0,1,.937-1.874,7.4,7.4,0,0,1,1.42-1.507,6.7,6.7,0,0,1,1.815-1.04,7.9,7.9,0,0,0,2.268,1.171,8.214,8.214,0,0,0,2.592.41A8.036,8.036,0,0,0,51.474,140.472Zm1.288-6.616a5.973,5.973,0,0,1-.483,2.386,6.161,6.161,0,0,1-3.264,3.279,6.169,6.169,0,0,1-4.786,0,6.122,6.122,0,0,1-3.279-3.279,6.169,6.169,0,0,1,0-4.786,6.159,6.159,0,0,1,3.279-3.265,6.169,6.169,0,0,1,4.786,0,6.2,6.2,0,0,1,3.264,3.265A5.946,5.946,0,0,1,52.762,133.856Z" fill="#5b5d5e"/>
    </g>
  </g>
  <g>
    <g>
      <path d="M163.927,216.927h-1.078v-.481H154.8v-1.078h8.051v-6.445h-7.911v-1.078h8.989Z"/>
      <path d="M170.97,209.356l-.645.938a8.266,8.266,0,0,0-3.422-1.705l.662-.985A12.994,12.994,0,0,1,170.97,209.356Zm5.4,1.225a15.884,15.884,0,0,1-4.1,4.4,16.187,16.187,0,0,1-4.6,2.069l-.686-1.084a12.545,12.545,0,0,0,5.151-2.209,13.894,13.894,0,0,0,3.375-3.955Z"/>
      <path d="M188.519,211.806h-4.26c.008.093.012.254.012.48a5.241,5.241,0,0,1-3.147,5.1l-.85-.961a4.342,4.342,0,0,0,2.165-1.529,4.117,4.117,0,0,0,.736-2.467,5.736,5.736,0,0,0-.024-.621H178.5v-1.084h10.02Zm-1.2-2.953h-7.658v-1.084h7.658Z"/>
      <path d="M194.97,209.356l-.645.938a8.266,8.266,0,0,0-3.422-1.705l.662-.985A12.994,12.994,0,0,1,194.97,209.356Zm5.4,1.225a15.884,15.884,0,0,1-4.1,4.4,16.187,16.187,0,0,1-4.6,2.069l-.686-1.084a12.545,12.545,0,0,0,5.151-2.209,13.894,13.894,0,0,0,3.375-3.955Z"/>
      <path d="M205.218,211.478l-1.09.433a6.717,6.717,0,0,0-1.441-3.287l1.084-.434A6.907,6.907,0,0,1,205.218,211.478Zm6.545-3.645a10.822,10.822,0,0,1-1.784,5.581,11.743,11.743,0,0,1-4.878,3.8l-.721-1.02a10.476,10.476,0,0,0,4.684-3.342,8.5,8.5,0,0,0,1.58-5.236Zm-3.58,2.83-1.09.422a8.537,8.537,0,0,0-1.283-3.275l1.054-.446A8.574,8.574,0,0,1,208.183,210.663Z"/>
      <path d="M220.054,209.175a22.079,22.079,0,0,1-1.169,5.25q-.731,1.792-1.644,1.793-.821,0-1.529-1.14a4.487,4.487,0,0,1-.709-2.411,4.4,4.4,0,0,1,.63-2.405,4.484,4.484,0,0,1,1.775-1.585,5.535,5.535,0,0,1,2.581-.592,4.3,4.3,0,0,1,3,1.1,3.814,3.814,0,0,1,1.216,2.976,4.554,4.554,0,0,1-.882,2.751,6.183,6.183,0,0,1-2.534,1.954l-.674-1.008a4.573,4.573,0,0,0,2.25-1.523,3.651,3.651,0,0,0,.8-2.279,2.625,2.625,0,0,0-.876-2.022A3.4,3.4,0,0,0,220.054,209.175Zm-1.084.111a3.546,3.546,0,0,0-2.022,1.137,3.085,3.085,0,0,0-.82,2.139,3.831,3.831,0,0,0,.393,1.634c.261.559.5.838.708.838s.52-.6.9-1.8A21.715,21.715,0,0,0,218.97,209.286Z"/>
      <path d="M229.95,207.042q-.135.463-.5,1.424l-.369.926v8.062h-.914v-6.492a8.627,8.627,0,0,1-1.26,1.775l-.838-.48a14.488,14.488,0,0,0,3.071-5.59Zm7.119,2.66H232.71v1.406h3.879v.873H232.71v1.477h4.107l.024.879H232.71v3.117H231.8V209.7a6.952,6.952,0,0,1-1.84,2.678l-.826-.445a11.688,11.688,0,0,0,2.508-5.45l.9.328a10.035,10.035,0,0,1-.568,2.016h5.091Z"/>
      <path d="M170.958,229.54a6.025,6.025,0,0,1-.633,2.03.612.612,0,0,1-.527.249q-.5,0-1.269-.855a6.342,6.342,0,0,1-1.122-1.688,11.874,11.874,0,0,1-2.426,2.016l-.826-.639a9.5,9.5,0,0,0,2.819-2.244,16.5,16.5,0,0,1-.909-4.424h-3.6v1.629h3.205a13.5,13.5,0,0,1-.384,3.3,1.228,1.228,0,0,1-1.28.9,7.006,7.006,0,0,1-.973-.093l-.4-1a4.92,4.92,0,0,0,1.418.228q.415,0,.536-.724a12.48,12.48,0,0,0,.143-1.737H162.45A12.565,12.565,0,0,1,162,230.12a5.373,5.373,0,0,1-1.017,1.793l-.767-.574a5.674,5.674,0,0,0,1.3-4.055l.035-4.178h4.424q-.06-1.423-.059-2.027h.9q.018,1.313.071,2.027h3.5v.879H166.95a13.657,13.657,0,0,0,.709,3.621,11.091,11.091,0,0,0,1.535-2.988l.832.276a12.516,12.516,0,0,1-1.968,3.673,11.955,11.955,0,0,0,.952,1.55q.507.695.753.7c.05,0,.113-.209.187-.627a7.684,7.684,0,0,0,.123-1.161Zm-.744-7.225-.645.563a4.5,4.5,0,0,0-2.332-1.066l.721-.651A4.884,4.884,0,0,1,170.214,222.315Z"/>
      <path d="M176.466,225.28a8.409,8.409,0,0,1,1.646-.158,4.438,4.438,0,0,1,2.816.829,2.79,2.79,0,0,1,1.057,2.329,3.042,3.042,0,0,1-.694,2.06,2.225,2.225,0,0,1-1.761.806q-1.6,0-2.138-1.993l1.119-.381q.252,1.26,1.043,1.26a1.16,1.16,0,0,0,.975-.515,2.094,2.094,0,0,0,.378-1.272q0-1.968-2.8-1.969a6.4,6.4,0,0,0-1.646.217v2.83a2.247,2.247,0,0,1-.372,1.389,1.248,1.248,0,0,1-1.052.486,1.981,1.981,0,0,1-1.538-.764,2.563,2.563,0,0,1-.659-1.72,2.836,2.836,0,0,1,.753-1.808,4.373,4.373,0,0,1,1.825-1.315v-1.043q-.984.123-2.11.2L173.1,223.6c.113.007.293.011.539.011a14.161,14.161,0,0,0,1.787-.129V221.5h1.043v1.857a9.56,9.56,0,0,0,1.728-.392l.147,1.172q-.937.188-1.875.293Zm-1.043,3.873v-2.338a2.833,2.833,0,0,0-1.078.812,1.72,1.72,0,0,0-.434,1.1,1.472,1.472,0,0,0,.331.931.989.989,0,0,0,.8.422Q175.423,230.079,175.423,229.153Zm6.5-4.775-.938.709a6.022,6.022,0,0,0-2.443-2.2l1-.721A11.564,11.564,0,0,1,181.927,224.378Z"/>
      <path d="M194.167,229.253l-.756.885a8.607,8.607,0,0,0-3.527-1.951,2.832,2.832,0,0,1-.589,1.98,2.366,2.366,0,0,1-1.814.633,2.861,2.861,0,0,1-1.769-.525,1.683,1.683,0,0,1-.7-1.421,1.779,1.779,0,0,1,.785-1.52,3.1,3.1,0,0,1,1.863-.565,7.385,7.385,0,0,1,1.131.1v-5.18h1.09v2.444a14.974,14.974,0,0,0,2.519-.276l.112,1.131a19.844,19.844,0,0,1-2.631.24v1.858A10.058,10.058,0,0,1,194.167,229.253Zm-5.385-1.295a5.007,5.007,0,0,0-1.031-.088,2.326,2.326,0,0,0-1.169.261.785.785,0,0,0-.454.7.732.732,0,0,0,.407.627,1.762,1.762,0,0,0,.946.252,1.167,1.167,0,0,0,.991-.407A2.256,2.256,0,0,0,188.782,227.958Z"/>
      <path d="M206.466,226.405l-.815.821a9.335,9.335,0,0,1-1.629-1.741l-.023.024q.059.72.059.926a5.278,5.278,0,0,1-1.029,3.442,3.4,3.4,0,0,1-2.774,1.257,3.569,3.569,0,0,1-2.426-.835,2.8,2.8,0,0,1-.961-2.224q0-2.167,2.438-4.476-1.736.2-2.391.228l-.228-1.166a19.691,19.691,0,0,0,2.132-.1q.927-.1,2.045-.337l.287,1.007a10.162,10.162,0,0,0-2.349,2.488,4.492,4.492,0,0,0-.856,2.346,1.75,1.75,0,0,0,.724,1.465,2.672,2.672,0,0,0,1.667.551,2.208,2.208,0,0,0,1.942-.978,4.78,4.78,0,0,0,.671-2.731,11.215,11.215,0,0,0-.8-3.973l1.055-.251A13.421,13.421,0,0,0,206.466,226.405Zm-1.125-3.334-.826.346a5.741,5.741,0,0,0-.58-1.6l.878-.358A6.669,6.669,0,0,1,205.341,223.071Zm1.33-.48-.826.351a5.878,5.878,0,0,0-.574-1.611l.873-.357A6.353,6.353,0,0,1,206.671,222.591Z"/>
      <path d="M219.046,230.4l-.363.985-5.291-.024a3.593,3.593,0,0,1-2.907-1.224q-.41.3-1.81,1.552l-.686-.72q.679-.5,2.022-1.612v-3.72h-1.6v-.826h2.508v4.535a3.419,3.419,0,0,0,2.537,1.189Zm-8.127-7.031-.779.516a6.363,6.363,0,0,0-1.582-2.145l.668-.492A6.9,6.9,0,0,1,210.919,223.37ZM218,230.009h-.914v-.516h-4.067v.516h-.914V222.28H213.9a3.847,3.847,0,0,0,.855-1.33l.861.393a3.883,3.883,0,0,1-.6.937h2.42v3.17h-4.413v.885H218Zm-1.477-5.438v-1.418h-3.5v1.418Zm.563,4.043v-1.4h-4.067v1.4Z"/>
      <path d="M226.112,223.6l-.058,2.847a23.611,23.611,0,0,1-.176,2.564,6.273,6.273,0,0,1-.346,1.561,1.416,1.416,0,0,1-.5.636,1.285,1.285,0,0,1-.712.19,11.246,11.246,0,0,1-1.476-.21l-.159-1.049a8.3,8.3,0,0,0,1.547.386.438.438,0,0,0,.343-.243,5.291,5.291,0,0,0,.331-1.561q.169-1.319.264-4.242H223.71a15.58,15.58,0,0,1-.788,4.678,7.059,7.059,0,0,1-1.872,2.81l-.733-.639a6.7,6.7,0,0,0,2.2-4.506q.21-1.47.246-2.343H220.8V223.6h1.969q.065-.51.117-2.52l.972.07-.1,2.45Zm4.465,7.752h-.949v-.909h-1.9v.909h-.908v-8.473h3.756Zm-.949-1.788v-5.806h-1.9v5.806Z"/>
    </g>
    <g>
      <path d="M191.3,104.966l-.424,1.148-6.172-.027a4.187,4.187,0,0,1-3.391-1.429q-.478.357-2.112,1.812l-.8-.841q.793-.588,2.358-1.88V99.408h-1.866v-.964h2.926v5.291a3.986,3.986,0,0,0,2.96,1.388Zm-9.481-8.2-.909.6a7.442,7.442,0,0,0-1.846-2.5l.779-.574A8.049,8.049,0,0,1,181.819,96.763Zm8.264,7.745h-1.066v-.6h-4.744v.6h-1.066V95.491h2.085a4.488,4.488,0,0,0,1-1.552l1,.458a4.494,4.494,0,0,1-.7,1.094h2.823v3.7h-5.147v1.033h5.81Zm-1.722-6.344V96.51h-4.088v1.654Zm.656,4.717v-1.634h-4.744v1.634Z"/>
      <path d="M199.544,97.029l-.068,3.323a27.543,27.543,0,0,1-.205,2.991,7.357,7.357,0,0,1-.4,1.821,1.647,1.647,0,0,1-.578.742,1.5,1.5,0,0,1-.831.222,13.108,13.108,0,0,1-1.722-.246l-.185-1.224a9.7,9.7,0,0,0,1.805.451.512.512,0,0,0,.4-.283,6.23,6.23,0,0,0,.386-1.822q.2-1.538.308-4.949h-1.709a18.14,18.14,0,0,1-.92,5.459,8.223,8.223,0,0,1-2.184,3.277l-.854-.745a7.805,7.805,0,0,0,2.57-5.257q.246-1.715.287-2.734h-2.3V97.029h2.3q.075-.594.137-2.939l1.135.082-.123,2.857Zm5.209,9.044h-1.107v-1.059h-2.215v1.059h-1.059V96.188h4.381Zm-1.107-2.085V97.214h-2.215v6.774Z"/>
    </g>
    <g>
      <path d="M196.132,201.535c.23-3.425.94-15.025-1.07-23.616" fill="none" stroke="#000" stroke-miterlimit="10"/>
      <polygon points="199.714 180.319 199.14 181.138 195.105 178.304 192.573 182.536 191.714 182.021 194.799 176.868 199.714 180.319"/>
    </g>
    <polygon points="212 146.202 197 146.202 197 161.202 192 161.202 192 146.202 178 146.202 178 141.202 192 141.202 192 126.202 197 126.202 197 141.202 212 141.202 212 146.202" fill="#5b5d5e"/>
  </g>
  <g>
    <path d="M197.09,267.805h-1.078v-.481h-8.051v-1.078h8.051V259.8H188.1v-1.078h8.988Z"/>
    <path d="M204.133,260.234l-.644.938a8.26,8.26,0,0,0-3.422-1.705l.662-.985A12.97,12.97,0,0,1,204.133,260.234Zm5.4,1.225a15.871,15.871,0,0,1-4.1,4.4,16.175,16.175,0,0,1-4.6,2.069l-.685-1.084a12.554,12.554,0,0,0,5.15-2.209,13.894,13.894,0,0,0,3.375-3.955Z"/>
    <path d="M221.682,262.684h-4.26c.008.093.012.254.012.48a5.242,5.242,0,0,1-3.146,5.1l-.85-.961a4.342,4.342,0,0,0,2.165-1.53,4.118,4.118,0,0,0,.735-2.466,5.786,5.786,0,0,0-.023-.621h-4.652V261.6h10.019Zm-1.2-2.954h-7.658v-1.084h7.658Z"/>
    <path d="M228.133,260.234l-.644.938a8.26,8.26,0,0,0-3.422-1.705l.662-.985A12.97,12.97,0,0,1,228.133,260.234Zm5.4,1.225a15.871,15.871,0,0,1-4.1,4.4,16.175,16.175,0,0,1-4.6,2.069l-.685-1.084a12.554,12.554,0,0,0,5.15-2.209,13.894,13.894,0,0,0,3.375-3.955Z"/>
    <path d="M238.381,262.355l-1.089.434a6.714,6.714,0,0,0-1.442-3.287l1.084-.434A6.9,6.9,0,0,1,238.381,262.355Zm6.545-3.644a10.8,10.8,0,0,1-1.784,5.581,11.743,11.743,0,0,1-4.878,3.8l-.721-1.02a10.473,10.473,0,0,0,4.685-3.343,8.494,8.494,0,0,0,1.579-5.235Zm-3.58,2.83-1.09.422a8.531,8.531,0,0,0-1.283-3.275l1.055-.446A8.574,8.574,0,0,1,241.346,261.541Z"/>
    <path d="M253.217,260.053a22.03,22.03,0,0,1-1.169,5.25q-.729,1.793-1.643,1.793-.821,0-1.53-1.14a4.5,4.5,0,0,1-.708-2.411,4.4,4.4,0,0,1,.629-2.405,4.481,4.481,0,0,1,1.776-1.585,5.532,5.532,0,0,1,2.581-.592,4.3,4.3,0,0,1,3,1.1,3.821,3.821,0,0,1,1.216,2.977,4.554,4.554,0,0,1-.882,2.751,6.19,6.19,0,0,1-2.534,1.954l-.674-1.008a4.573,4.573,0,0,0,2.25-1.523,3.659,3.659,0,0,0,.8-2.279,2.625,2.625,0,0,0-.876-2.022A3.4,3.4,0,0,0,253.217,260.053Zm-1.084.111a3.546,3.546,0,0,0-2.021,1.137,3.084,3.084,0,0,0-.82,2.138,3.83,3.83,0,0,0,.392,1.635q.393.838.709.838t.9-1.8A21.631,21.631,0,0,0,252.133,260.164Z"/>
    <path d="M263.993,265.3a12.951,12.951,0,0,1-3.791,3.07l-.516-.767a10.408,10.408,0,0,0,3.527-2.9Zm5.689-1.752-.029.914h-9.779v-.914h2.449L262.3,260.8h-1.728v-.914h1.775v-2.3h.914v2.3h3v-2.3h.949v2.3h1.741v.914h-1.741v2.748Zm-3.422,0V260.8h-3v2.748Zm3.621,4.189-.691.563a12.57,12.57,0,0,0-3.568-2.93l.65-.668A12.528,12.528,0,0,1,269.881,267.734Z"/>
    <path d="M282.016,259.971h-6.457a8,8,0,0,1-.434,1.113h5.438v6.135q-.07.815-1.248.814h-.973l-.416-.926a8.712,8.712,0,0,0,1.2.077c.351,0,.527-.073.527-.217v-1.19h-4.512v2.532h-.955v-5.76a18,18,0,0,1-2.015,2.291l-.844-.551a10.984,10.984,0,0,0,3.252-4.318h-2.52v-.879h2.86a13.442,13.442,0,0,0,.462-1.694l.926.206q-.111.474-.4,1.488h6.111Zm-2.367,2.965v-.973h-4.512v.973Zm0,1.962v-1.089h-4.512V264.9Z"/>
    <path d="M287.629,261.758a8.35,8.35,0,0,1,1.647-.158,4.435,4.435,0,0,1,2.815.829,2.789,2.789,0,0,1,1.058,2.329,3.045,3.045,0,0,1-.694,2.059,2.225,2.225,0,0,1-1.761.806q-1.6,0-2.139-1.992l1.119-.381q.252,1.26,1.043,1.26a1.159,1.159,0,0,0,.976-.516,2.091,2.091,0,0,0,.378-1.271q0-1.969-2.8-1.969a6.357,6.357,0,0,0-1.647.217v2.83a2.246,2.246,0,0,1-.372,1.388,1.244,1.244,0,0,1-1.051.487,1.982,1.982,0,0,1-1.539-.765,2.568,2.568,0,0,1-.659-1.72,2.834,2.834,0,0,1,.753-1.807,4.382,4.382,0,0,1,1.825-1.316v-1.043q-.984.123-2.109.205l-.217-1.154c.114.008.293.012.539.012a14.148,14.148,0,0,0,1.787-.129v-1.98h1.043v1.857a9.654,9.654,0,0,0,1.729-.393l.146,1.172q-.937.188-1.875.293Zm-1.043,3.873v-2.338a2.838,2.838,0,0,0-1.078.811,1.721,1.721,0,0,0-.433,1.1,1.473,1.473,0,0,0,.331.932.987.987,0,0,0,.8.422Q286.586,266.557,286.586,265.631Zm6.5-4.776-.937.709a6.032,6.032,0,0,0-2.444-2.2l1-.721A11.563,11.563,0,0,1,293.09,260.855Z"/>
    <path d="M305.331,265.73l-.756.885a8.64,8.64,0,0,0-3.528-1.951,2.833,2.833,0,0,1-.589,1.981,2.367,2.367,0,0,1-1.813.632,2.861,2.861,0,0,1-1.77-.524,1.687,1.687,0,0,1-.7-1.421,1.779,1.779,0,0,1,.785-1.52,3.106,3.106,0,0,1,1.864-.566,7.3,7.3,0,0,1,1.131.106v-5.18h1.089v2.443a15.062,15.062,0,0,0,2.52-.275l.111,1.131a19.844,19.844,0,0,1-2.631.24v1.857A10.073,10.073,0,0,1,305.331,265.73Zm-5.385-1.294a5.014,5.014,0,0,0-1.031-.088,2.334,2.334,0,0,0-1.169.26.787.787,0,0,0-.454.7.73.73,0,0,0,.407.627,1.76,1.76,0,0,0,.946.252,1.164,1.164,0,0,0,.99-.408A2.25,2.25,0,0,0,299.946,264.436Z"/>
    <path d="M317.629,262.883l-.814.82a9.267,9.267,0,0,1-1.629-1.74l-.023.023c.039.481.058.789.058.926a5.282,5.282,0,0,1-1.028,3.442,3.4,3.4,0,0,1-2.775,1.257,3.561,3.561,0,0,1-2.425-.835,2.8,2.8,0,0,1-.961-2.223q0-2.169,2.437-4.477-1.734.2-2.39.229l-.229-1.166a19.676,19.676,0,0,0,2.133-.1q.925-.1,2.045-.337l.287,1.008a10.184,10.184,0,0,0-2.35,2.487,4.5,4.5,0,0,0-.855,2.347,1.751,1.751,0,0,0,.723,1.465,2.682,2.682,0,0,0,1.667.551,2.211,2.211,0,0,0,1.943-.979,4.782,4.782,0,0,0,.671-2.73,11.229,11.229,0,0,0-.8-3.973l1.055-.252A13.413,13.413,0,0,0,317.629,262.883Zm-1.125-3.334-.826.346a5.706,5.706,0,0,0-.58-1.606l.879-.357A6.6,6.6,0,0,1,316.5,259.549Zm1.33-.481-.826.352a5.846,5.846,0,0,0-.574-1.611l.873-.358A6.3,6.3,0,0,1,317.834,259.068Z"/>
    <path d="M322.768,257.92a8.565,8.565,0,0,1-.428,1.74l-.351,1.02v7.728h-.914v-6.135a11.244,11.244,0,0,1-1.2,1.407l-.668-.651a9.565,9.565,0,0,0,2.736-5.484Zm7.594,8.924-.709.674a6.314,6.314,0,0,1-3.141-3.493v4.342H325.6v-4.125a6.348,6.348,0,0,1-2.877,3.311l-.674-.7a6.124,6.124,0,0,0,2.795-3.023h-2.449v-.873H325.6V262h-2.361v-3.879h5.531V262h-2.256v.961h3.141v.873h-2.291A5.593,5.593,0,0,0,330.362,266.844Zm-2.508-5.725V259h-3.709v2.121Z"/>
    <path d="M221.752,274.4h-6.421l-.745,1.453v6.9h-.908v-5.5a11.431,11.431,0,0,1-1.511,1.681l-.821-.6A12.111,12.111,0,0,0,214.3,274.4h-2.1v-.879h2.484a9.169,9.169,0,0,0,.492-1.664l.85.3a9.771,9.771,0,0,1-.358,1.365h6.082Zm.346,4.764h-3.164v2.473a.866.866,0,0,1-.381.785,3.582,3.582,0,0,1-1.734.2l-.393-.938h1.16q.4,0,.4-.445v-2.074h-2.977v-.879h2.977v-.908a5.211,5.211,0,0,0,1.6-1.119h-3.767v-.873h5.127v.826a10.1,10.1,0,0,1-2.016,1.67v.4H222.1Z"/>
    <path d="M226.815,282.034l-1.043.926a5.836,5.836,0,0,0-1.857-2.461l.668-.574A7.43,7.43,0,0,1,226.815,282.034Z"/>
    <path d="M239.583,272.782a28.693,28.693,0,0,1-1.222,5.326,15.245,15.245,0,0,1-2.03,4.207l-.985-.673a15.963,15.963,0,0,0,2.107-4.216,20.628,20.628,0,0,0,1.04-5Zm5.835,8.9-1.166.3a19.99,19.99,0,0,0-1.007-4.392,28.83,28.83,0,0,0-1.993-4.632l1.008-.48A36.063,36.063,0,0,1,245.418,281.677Zm-.6-9.791a1.257,1.257,0,0,1,.908.378,1.206,1.206,0,0,1,.387.893,1.289,1.289,0,0,1-2.578,0,1.211,1.211,0,0,1,.384-.893A1.238,1.238,0,0,1,244.815,271.886Zm0,1.752a.493.493,0,0,0,.36-.129.469.469,0,0,0,.132-.352.489.489,0,0,0-.132-.357.494.494,0,0,0-.852.357.469.469,0,0,0,.132.352A.491.491,0,0,0,244.815,273.638Z"/>
    <path d="M256.493,273.4l-.627.264.328.217a11.484,11.484,0,0,1-2.057,5.1,12.45,12.45,0,0,1-4.26,3.67l-.814-.961a11.293,11.293,0,0,0,3.905-2.97,8.877,8.877,0,0,0,2.013-4.037h-6.914v-1.032h7.57a5.022,5.022,0,0,0-.551-1.511l.879-.364A6.664,6.664,0,0,1,256.493,273.4Zm1.33-.48-.826.346a5.853,5.853,0,0,0-.575-1.606l.873-.363A6.416,6.416,0,0,1,257.823,272.917Z"/>
    <path d="M262.422,278.712h-1.084v-5.783h1.084Zm5.842-1.307A4.458,4.458,0,0,1,267,280.476a7.8,7.8,0,0,1-3.437,2.091l-.609-1.025a7.225,7.225,0,0,0,3.2-1.755,3.993,3.993,0,0,0,1.04-2.862v-4.213h1.078Z"/>
    <path d="M275.178,277.03l-.984.375a7.658,7.658,0,0,0-1.143-2.519l1-.387A8.732,8.732,0,0,1,275.178,277.03Zm4.629-2.795a7.361,7.361,0,0,1-4.834,6.961l-.732-.9a7.121,7.121,0,0,0,3.372-2.335,5.671,5.671,0,0,0,1.139-3.5c0-.192,0-.332-.011-.422Zm-2.519,2.221-.985.4a7.431,7.431,0,0,0-1.008-2.531l.985-.351A12.833,12.833,0,0,1,277.288,276.456Z"/>
    <path d="M287.8,276.626l-.422,1.137a7.665,7.665,0,0,0-3.6-1.213l.387-1.09A12.836,12.836,0,0,1,287.8,276.626Zm5.83-.686a13.722,13.722,0,0,1-8.736,6.457l-.551-1.107a13.871,13.871,0,0,0,5.089-2.194,10.811,10.811,0,0,0,3.267-3.9Zm-4.687-2.337-.387,1.089a9.091,9.091,0,0,0-3.65-1.113l.387-1.119A15.644,15.644,0,0,1,288.942,273.6Z"/>
    <path d="M304.393,280.815h-7.447v-.984h4.424l.6-4.553h-4.055v-.984h5.1v.744l-.639,4.793h2.016Z"/>
  </g>
  <g>
    <path d="M250.811,103.12a15.089,15.089,0,0,1-4.423,3.582l-.6-.895a12.162,12.162,0,0,0,4.115-3.384Zm6.637-2.044-.034,1.067H246.005v-1.067h2.857l-.027-3.206h-2.017V96.8h2.072V94.117h1.066V96.8h3.5V94.117h1.107V96.8h2.031V97.87h-2.031v3.206Zm-3.992,0V97.87h-3.5v3.206Zm4.225,4.888-.807.656a14.687,14.687,0,0,0-4.163-3.418l.759-.779A14.615,14.615,0,0,1,257.681,105.964Z"/>
    <path d="M271.838,96.906h-7.533a9.482,9.482,0,0,1-.506,1.3h6.344v7.157q-.082.951-1.456.951h-1.135l-.486-1.081a10.092,10.092,0,0,0,1.4.089q.615,0,.615-.253v-1.387h-5.263v2.953H262.7v-6.72a20.83,20.83,0,0,1-2.351,2.673l-.985-.643a12.8,12.8,0,0,0,3.794-5.038h-2.939V95.881h3.336a15.49,15.49,0,0,0,.54-1.976l1.08.24q-.13.553-.465,1.736h7.13Zm-2.762,3.459V99.23h-5.263v1.135Zm0,2.29v-1.271h-5.263v1.271Z"/>
  </g>
  <g>
    <path d="M264.9,177.005c-2.732,11.529-6.37,22.574-2,40.447,4.5,18.416,3.6,23.25.476,27.744" fill="none" stroke="#000" stroke-miterlimit="10"/>
    <polygon points="260.146 179.272 260.699 180.106 264.807 177.379 267.227 181.676 268.099 181.183 265.15 175.951 260.146 179.272"/>
  </g>
  <path d="M283.825,138.163,266,155.831V144.744a26.688,26.688,0,0,0-6.72,1.715,25.1,25.1,0,0,0-5.763,3.23,23.626,23.626,0,0,0-4.527,4.466,20.534,20.534,0,0,0-3.01,5.424,18.781,18.781,0,0,1-1.237-6.7,19.243,19.243,0,0,1,1.615-7.8,21.456,21.456,0,0,1,4.467-6.561,24.938,24.938,0,0,1,6.74-4.786A26.218,26.218,0,0,1,266,131.264V120.5Zm-14.636-4.027-2.792.318a23.2,23.2,0,0,0-6.46,1.716,21.738,21.738,0,0,0-5.5,3.369,19.267,19.267,0,0,0-4.068,4.746,16.806,16.806,0,0,0-2.193,5.883,26.707,26.707,0,0,1,7.717-5.724,30.32,30.32,0,0,1,9.711-2.89l3.589-.44v7.06l10.09-10.011-10.09-10.01Z" fill="#5b5d5e"/>
  <g>
    <g>
      <path d="M96.566,266.07l-.363.985H91.322a5.123,5.123,0,0,1-2.141-.343,3.486,3.486,0,0,1-1.175-.9q-.411.3-1.811,1.552l-.685-.72q.679-.5,2.021-1.612v-3.72h-1.6v-.827h2.507v4.536a3.458,3.458,0,0,0,1.219.87,3.5,3.5,0,0,0,1.3.284H92.1Q94.943,266.17,96.566,266.07Zm-8.127-7.031-.779.516a6.363,6.363,0,0,0-1.582-2.145l.668-.492A6.883,6.883,0,0,1,88.439,259.039Zm7.4,5.883a.714.714,0,0,1-.267.551,1.167,1.167,0,0,1-.738.257c-.314.016-.64.026-.975.03l-.3-.85q.5.024.644.024.722,0,.721-.311v-.984H92.975v1.675h-.862v-1.675H90.156v1.939H89.3v-6.129h2.6q-1.242-.433-1.546-.515l.685-.709a5.949,5.949,0,0,1,1.3.539,9.259,9.259,0,0,0,1.652-.7H88.967v-.826h6.65V258a8.828,8.828,0,0,1-2.426,1.318l.252.135h2.391Zm-3.721-3.815v-.832H90.156v.832Zm0,1.7v-.827H90.156v.827Zm2.807-1.7v-.832H92.975v.832Zm0,1.7v-.827H92.975v.827Z"/>
      <path d="M104.271,265.607l-.615.692a6.719,6.719,0,0,0-2.162-1.787,7.277,7.277,0,0,1-2.959,3.088l-.568-.809a8.424,8.424,0,0,0,2.349-2.136,4.866,4.866,0,0,0,.715-2.147H98.447V261.6h2.666l.047-2.174h-.937a7.456,7.456,0,0,1-1.248,2.039l-.827-.492a7.4,7.4,0,0,0,1.823-4.307l.89.2a9.267,9.267,0,0,1-.334,1.676H103.9v.879h-1.833q0,1.4-.077,2.174h2.069v.908h-2.1q-.141.95-.193,1.119A8.3,8.3,0,0,1,104.271,265.607Zm3.8.979h-.949v-.908h-1.887v.908h-.908v-8.731h3.744Zm-.949-1.787v-6.07h-1.887v6.07Z"/>
      <path d="M119.377,266.867q-1.594.141-2.941.141a5.88,5.88,0,0,1-2.913-.5,1.629,1.629,0,0,1-.773-1.459,2.323,2.323,0,0,1,.747-1.588,7.254,7.254,0,0,1,2.112-1.447q-.187-.645-1.089-.645a2.513,2.513,0,0,0-.78.132,2.026,2.026,0,0,0-.65.331,20.957,20.957,0,0,1-1.623,2.068l-.944-.756a6.165,6.165,0,0,0,.783-.738,7.973,7.973,0,0,0,.632-.805q.279-.408.554-.894l.551-.984c-.09.007-.25.011-.48.011q-.534,0-1.5-.047v-1.166a12.748,12.748,0,0,0,1.675.112q.316,0,.856-.024a6.443,6.443,0,0,0,.574-1.552l1.143.328q-.323.831-.481,1.148a26.488,26.488,0,0,0,3.563-.381l.07,1.114q-1.54.188-4.16.363a8.089,8.089,0,0,1-.5.955,4.5,4.5,0,0,1,1.031-.164,2.159,2.159,0,0,1,1.2.337,1.4,1.4,0,0,1,.645.776q.533-.252,2.256-.931l.433,1.1q-1.635.6-2.578,1v2.209h-1.131v-1.681a4.472,4.472,0,0,0-1.318.881,1.457,1.457,0,0,0-.5,1,.623.623,0,0,0,.469.6,5.707,5.707,0,0,0,1.775.182,24.555,24.555,0,0,0,3.193-.252Z"/>
      <path d="M131.4,258.33A14.973,14.973,0,0,1,129,263.671a13.729,13.729,0,0,1-4.292,3.747l-.779-.984a12,12,0,0,0,3.961-3.082,10.88,10.88,0,0,0,2.2-4.336h-7.131v-1.078h8.092Z"/>
      <path d="M143,261.078h-1.975v3.856a.921.921,0,0,1-.372.764,1.311,1.311,0,0,1-.829.29h-.867l-.287-1.066c.6.047.971.07,1.107.07.168,0,.252-.1.252-.287v-3.158a6.827,6.827,0,0,1-1.4,1.8,14.628,14.628,0,0,1-2.564,1.816l-.72-.879a9.344,9.344,0,0,0,3.908-3.205h-3.645v-1h4.418v-1.559h1v1.559H143Z"/>
      <path d="M155.318,267.008h-1.084v-.721h-6.4v.721h-1.084v-9.047h8.572Zm-1.084-1.8v-6.17h-6.4v6.17Z"/>
      <path d="M168.145,262.654H158.137V261.57h10.008Z"/>
    </g>
    <g>
      <path d="M108.487,104.768l-.424,1.148h-5.694a5.987,5.987,0,0,1-2.5-.4,4.076,4.076,0,0,1-1.37-1.057q-.478.356-2.113,1.811l-.8-.84q.793-.588,2.359-1.88V99.21H96.08v-.964h2.925v5.291a4.012,4.012,0,0,0,1.422,1.016,4.065,4.065,0,0,0,1.518.331h1.333Q106.593,104.884,108.487,104.768Zm-9.482-8.2-.909.6a7.428,7.428,0,0,0-1.846-2.5l.78-.574A8.054,8.054,0,0,1,99.005,96.564Zm8.627,6.864a.827.827,0,0,1-.311.642,1.355,1.355,0,0,1-.861.3q-.55.029-1.138.034l-.349-.991c.387.019.638.027.752.027q.842,0,.841-.362v-1.148H104.3v1.955h-1v-1.955h-2.284v2.262h-1v-7.15h3.036q-1.45-.506-1.805-.6l.8-.827a7.058,7.058,0,0,1,1.51.629,10.652,10.652,0,0,0,1.928-.813H99.621v-.964h7.758v.882a10.339,10.339,0,0,1-2.83,1.538l.294.157h2.789Zm-4.34-4.45v-.971h-2.284v.971Zm0,1.982V100h-2.284v.964Zm3.274-1.982v-.971H104.3v.971Zm0,1.982V100H104.3v.964Z"/>
      <path d="M117.476,104.228l-.718.806a7.873,7.873,0,0,0-2.522-2.085,8.493,8.493,0,0,1-3.452,3.6l-.663-.944a9.83,9.83,0,0,0,2.741-2.491,5.692,5.692,0,0,0,.834-2.506h-3.015V99.552h3.111l.054-2.536h-1.094A8.628,8.628,0,0,1,111.3,99.4l-.963-.575a8.63,8.63,0,0,0,2.125-5.024l1.04.239a10.82,10.82,0,0,1-.39,1.955h3.931v1.026H114.9q0,1.633-.089,2.536h2.413v1.059h-2.454q-.164,1.108-.226,1.306A9.679,9.679,0,0,1,117.476,104.228Zm4.437,1.141h-1.108V104.31h-2.2v1.059h-1.06V95.184h4.369Zm-1.108-2.085V96.2h-2.2v7.082Z"/>
    </g>
    <g>
      <path d="M129.666,176.921c4.548,9.431,8.346,25.714,1.584,38.031-7,12.75-4.75,22.75-1.84,30.244" fill="none" stroke="#000" stroke-miterlimit="10"/>
      <polygon points="127.291 181.651 128.241 181.967 129.793 177.288 134.347 179.178 134.73 178.253 129.183 175.952 127.291 181.651"/>
    </g>
    <path d="M131.608,139.24a5.1,5.1,0,0,1,2.114.578,1.773,1.773,0,0,1,.917,1.7,5.249,5.249,0,0,1-.957,2.651,18.273,18.273,0,0,1-2.672,3.231,39.358,39.358,0,0,1-4.088,3.469,52.334,52.334,0,0,1-5.2,3.41q-2.195,1.276-4.327,2.253t-4.068,1.656a29.689,29.689,0,0,1-3.63,1.037,14.733,14.733,0,0,1-3.01.358,8.2,8.2,0,0,1-1.277-.1,3.177,3.177,0,0,1-1.116-.378,2.477,2.477,0,0,1-.778-.7,1.848,1.848,0,0,1-.3-1.1,4.616,4.616,0,0,1,.6-2.075,7.916,7.916,0,0,0,.837-3.429,6.764,6.764,0,0,0-.917-3.43l-4.426-7.657a12.062,12.062,0,0,1-1.277-3.091,13.02,13.02,0,0,1-.4-3.21,12.8,12.8,0,0,1,.957-4.866,12.152,12.152,0,0,1,2.791-4.148,2.967,2.967,0,0,1-.518-1.714,3.021,3.021,0,0,1,.957-2.273,3.176,3.176,0,0,1,2.273-.918,3.074,3.074,0,0,1,1.656.459,3.363,3.363,0,0,1,1.176,1.256,13.2,13.2,0,0,1,3.35-.439,12.448,12.448,0,0,1,3.21.419,12.689,12.689,0,0,1,5.623,3.191,12.278,12.278,0,0,1,2.094,2.691l4.427,7.657a6.65,6.65,0,0,0,2.532,2.513A7.539,7.539,0,0,0,131.608,139.24Zm-15.354,8.934q1.555-1,3.49-1.994t3.928-1.835a31.2,31.2,0,0,1,3.908-1.356,14.767,14.767,0,0,1,3.43-.558q-1.435-.4-2.832-.877a12.939,12.939,0,0,1-2.672-1.277,6.173,6.173,0,0,1-1.5-1.316,13.042,13.042,0,0,1-1.137-1.635l-4.427-7.657a8.68,8.68,0,0,0-1.535-1.975,10.9,10.9,0,0,0-1.974-1.5,9.225,9.225,0,0,0-4.666-1.236,9.364,9.364,0,0,0-1.356.1c-.453.066-.837.139-1.157.219a11.24,11.24,0,0,0-1.675.678,10.176,10.176,0,0,0-2.472,1.715,8.128,8.128,0,0,0-2.034,3.011,9.77,9.77,0,0,0-.758,3.729,9.139,9.139,0,0,0,1.237,4.706l4.426,7.656a9.531,9.531,0,0,1,1.276,3.749,3.9,3.9,0,0,1,.04.559v.559a12.11,12.11,0,0,1-.957,4.745,12.692,12.692,0,0,1,1.7-2.134q1.056-1.1,2.253-2.133a3.512,3.512,0,0,0,1.177,1.116,3.168,3.168,0,0,0,1.655.439,3.4,3.4,0,0,0,3.39-3.39A3.328,3.328,0,0,0,116.254,148.174Z" fill="#5b5d5e"/>
  </g>
  <g>
    <path d="M365.737,267.805h-1.078v-.481h-8.051v-1.078h8.051V259.8h-7.91v-1.078h8.988Z"/>
    <path d="M377.737,267.805h-1.078v-.481h-8.051v-1.078h8.051V259.8h-7.91v-1.078h8.988Z"/>
    <path d="M390.135,266.908l-.34,1.137a28.842,28.842,0,0,0-9.117-2.051l.3-1.154A42.92,42.92,0,0,1,390.135,266.908Zm-1.347-7.418-.323,1.137a14.271,14.271,0,0,0-2.979-.844,17.138,17.138,0,0,0-3.056-.34l.287-1.142q1.3.117,3.112.469A25.963,25.963,0,0,1,388.788,259.49Zm-.6,3.287-.3,1.114a14.287,14.287,0,0,0-5.426-1.436l.287-1.131A20.772,20.772,0,0,1,388.19,262.777Z"/>
    <path d="M401.04,266.416h-7.448v-.984h4.424l.6-4.553h-4.055V259.9h5.1v.744l-.639,4.793h2.016Z"/>
    <path d="M414.364,267.336H404.356v-1.078h10.008Zm-.961-7.26h-8.127V259H413.4Z"/>
    <path d="M426.329,262.684h-4.26c.008.093.012.254.012.48a5.241,5.241,0,0,1-3.147,5.1l-.85-.961a4.345,4.345,0,0,0,2.166-1.53,4.118,4.118,0,0,0,.735-2.466,5.723,5.723,0,0,0-.024-.621h-4.652V261.6h10.02Zm-1.2-2.954h-7.658v-1.084h7.658Z"/>
    <path d="M436.536,259.742a18.093,18.093,0,0,1-2.121,2.244v4.752h-1v-3.961a13.464,13.464,0,0,1-2.759,1.635l-.616-.879a12.941,12.941,0,0,0,3.2-1.89,11.566,11.566,0,0,0,2.493-2.563Z"/>
    <path d="M444.792,260.416a5.822,5.822,0,0,1,.905.07,2.311,2.311,0,0,1,.855.319,1.476,1.476,0,0,1,.583.613,2.17,2.17,0,0,1,.214.7,7.281,7.281,0,0,1,.038.821,14.044,14.044,0,0,1-.275,2.912,2.883,2.883,0,0,1-.771,1.67,2.094,2.094,0,0,1-1.309.38,6.07,6.07,0,0,1-1.319-.2l.17-1.131a3.735,3.735,0,0,0,1.178.264.883.883,0,0,0,.645-.262,2.522,2.522,0,0,0,.433-1.23,14.589,14.589,0,0,0,.17-2.445,2.853,2.853,0,0,0-.094-.85.689.689,0,0,0-.46-.416,2.243,2.243,0,0,0-.782-.135h-.527a28.589,28.589,0,0,1-1.705,3.951,12.4,12.4,0,0,1-1.319,1.95l-1.031-.61a13.041,13.041,0,0,0,2.889-5.232,15.9,15.9,0,0,0-1.881.287l-.111-1.16q1.5-.194,2.367-.217a15.233,15.233,0,0,0,.662-2.608l1.078.276Q445.079,259.472,444.792,260.416Zm4.921,2.18-1.136.386a6.308,6.308,0,0,0-1.418-3.615l1.078-.439A6.9,6.9,0,0,1,449.713,262.6Z"/>
    <path d="M454.659,262.971a8.139,8.139,0,0,1,3.17-.662,4.065,4.065,0,0,1,2.431.7,2.223,2.223,0,0,1,.973,1.91,2.545,2.545,0,0,1-.923,2.029,3.581,3.581,0,0,1-2.411.789,16.761,16.761,0,0,1-3.756-.527l.094-1.283a22.652,22.652,0,0,0,2.349.627,7.141,7.141,0,0,0,1.19.117q2.379,0,2.379-1.805a1.214,1.214,0,0,0-.683-1.093,3.333,3.333,0,0,0-1.7-.395,8.066,8.066,0,0,0-3.733,1.107l-.884-.72a27.394,27.394,0,0,1,1.881-4.008l1.037.527A11.88,11.88,0,0,0,454.659,262.971Zm5.554-3.17-.562.972a11.027,11.027,0,0,0-3.445-1.593l.574-1.008A17.218,17.218,0,0,1,460.213,259.8Z"/>
    <path d="M473.737,267.805h-1.078v-.481h-8.051v-1.078h8.051V259.8h-7.91v-1.078h8.988Z"/>
    <path d="M366.78,274.634l-.645.937a8.272,8.272,0,0,0-3.422-1.705l.662-.984A12.994,12.994,0,0,1,366.78,274.634Zm5.4,1.224a15.89,15.89,0,0,1-4.1,4.4,16.185,16.185,0,0,1-4.6,2.068l-.686-1.084a12.545,12.545,0,0,0,5.151-2.209,13.894,13.894,0,0,0,3.375-3.955Z"/>
    <path d="M384.329,277.083h-4.26q.012.141.012.48a5.241,5.241,0,0,1-3.147,5.1l-.85-.961a4.349,4.349,0,0,0,2.166-1.529,4.123,4.123,0,0,0,.735-2.467,5.749,5.749,0,0,0-.024-.621h-4.652V276h10.02Zm-1.2-2.953h-7.658v-1.084h7.658Z"/>
    <path d="M390.78,274.634l-.645.937a8.272,8.272,0,0,0-3.422-1.705l.662-.984A12.994,12.994,0,0,1,390.78,274.634Zm5.4,1.224a15.89,15.89,0,0,1-4.1,4.4,16.185,16.185,0,0,1-4.6,2.068l-.686-1.084a12.545,12.545,0,0,0,5.151-2.209,13.894,13.894,0,0,0,3.375-3.955Z"/>
    <path d="M401.028,276.755l-1.09.433A6.717,6.717,0,0,0,398.5,273.9l1.084-.433A6.9,6.9,0,0,1,401.028,276.755Zm6.545-3.645a10.819,10.819,0,0,1-1.784,5.581,11.735,11.735,0,0,1-4.878,3.8l-.721-1.019a10.494,10.494,0,0,0,4.685-3.343,8.5,8.5,0,0,0,1.579-5.235Zm-3.58,2.83-1.09.422a8.537,8.537,0,0,0-1.283-3.275l1.054-.445A8.569,8.569,0,0,1,403.993,275.94Z"/>
    <path d="M413.8,279.011a18.885,18.885,0,0,0-1.043,3.011h-.791a9.536,9.536,0,0,1-.961-4.488,21.112,21.112,0,0,1,.663-4.951l1.166.369a15.167,15.167,0,0,0-.768,4.623,9.648,9.648,0,0,0,.234,2.385h.03a8.53,8.53,0,0,1,.539-1.236Zm6.135,1.371-.263,1.213q-1.683.129-2.737.129a6.48,6.48,0,0,1-2.367-.287,1.265,1.265,0,0,1-.621-1.284,4.474,4.474,0,0,1,.135-1.054l1.125.24a2.96,2.96,0,0,0-.194.814.408.408,0,0,0,.3.4,4.494,4.494,0,0,0,1.289.114Q417.388,280.669,419.93,280.382Zm-.721-6.744-.14,1.113a12.4,12.4,0,0,0-2.115-.141,15.656,15.656,0,0,0-2.555.241l-.135-1.131q1.764-.182,2.666-.182A18.611,18.611,0,0,1,419.209,273.638Z"/>
    <path d="M432.469,273.567a25.422,25.422,0,0,1-3.644,4.079l-.821-.838A13.282,13.282,0,0,0,430.776,274h-8.215v-1.078h9.164Zm-4.605.791q0,1.963-.1,2.851a8.665,8.665,0,0,1-.472,1.945,7.33,7.33,0,0,1-1.057,1.966,6.235,6.235,0,0,1-1.691,1.541l-.791-.926q3.036-1.91,3.036-6.48,0-.621-.012-.9Z"/>
    <path d="M443.713,274.394a10.008,10.008,0,0,1-6.7,8.121l-.744-.973a10.343,10.343,0,0,0,4.181-2.566A8.648,8.648,0,0,0,442.5,274.9h-4.388a12.129,12.129,0,0,1-2.414,2.7l-.826-.868a8.59,8.59,0,0,0,2.077-2.053,9.521,9.521,0,0,0,1.38-2.529l1.078.422a12.777,12.777,0,0,1-.627,1.248H443.1Z"/>
    <path d="M456.375,280.839l-.134,1.148h-5.877a.957.957,0,0,1-.747-.331,1.193,1.193,0,0,1-.3-.829V276.7l-2.737.252-.111-1.09,2.848-.263v-3.1H450.4v2.988l4.822-.457.8.516a42.577,42.577,0,0,1-2.473,3.744l-1.019-.551a20.432,20.432,0,0,0,1.875-2.566l-4.008.434v3.943q0,.375.393.375Q454.67,280.921,456.375,280.839Z"/>
    <path d="M468.856,281.665l-.938.686a14.252,14.252,0,0,0-4.054-3.791,17.024,17.024,0,0,1-4.612,3.99l-.837-.862a14.184,14.184,0,0,0,3.993-3.111,14.481,14.481,0,0,0,2.692-4.342h-6.012V273.2l7.032-.012.322.334a14.022,14.022,0,0,1-1.945,4.166A17.274,17.274,0,0,1,468.856,281.665Z"/>
  </g>
  <g>
    <path d="M397.241,106.515h-1.258v-.561H386.59V104.7h9.393V97.177h-9.229V95.919h10.487Z"/>
    <path d="M411.706,105.469l-.4,1.326a33.666,33.666,0,0,0-10.637-2.393l.349-1.346A50.035,50.035,0,0,1,411.706,105.469Zm-1.573-8.655-.376,1.327a16.585,16.585,0,0,0-3.476-.985,19.937,19.937,0,0,0-3.565-.4l.335-1.333q1.512.136,3.63.547A30.224,30.224,0,0,1,410.133,96.814Zm-.7,3.835-.349,1.3a16.7,16.7,0,0,0-6.33-1.675l.335-1.319A24.252,24.252,0,0,1,409.436,100.649Z"/>
    <path d="M424.427,104.9h-8.688v-1.149H420.9l.7-5.311h-4.73V97.286h5.947v.868l-.745,5.592h2.351Z"/>
    <path d="M439.972,105.968H428.3V104.71h11.676Zm-1.121-8.47H429.37V96.24h9.481Z"/>
    <path d="M453.931,100.54h-4.97c.01.109.014.3.014.561a6.115,6.115,0,0,1-3.671,5.947l-.991-1.121a5.071,5.071,0,0,0,2.526-1.784,4.808,4.808,0,0,0,.858-2.878,6.626,6.626,0,0,0-.028-.725h-5.427V99.275h11.689Zm-1.4-3.445H443.6V95.83h8.935Z"/>
    <path d="M465.839,97.108a21.135,21.135,0,0,1-2.474,2.619v5.544H462.2v-4.622a15.766,15.766,0,0,1-3.22,1.908l-.718-1.026a15.086,15.086,0,0,0,3.729-2.2,13.5,13.5,0,0,0,2.909-2.991Z"/>
  </g>
  <g>
    <path d="M410.033,179.006c-2.789,11.338-7.369,19.247-2.033,37.2,3.118,10.488,6.5,27.5,2.511,35.994" fill="none" stroke="#000" stroke-miterlimit="10"/>
    <polygon points="405.182 181.119 405.709 181.97 409.897 179.368 412.187 183.736 413.073 183.27 410.284 177.951 405.182 181.119"/>
  </g>
  <path d="M410.34,133.875a1.981,1.981,0,0,0,.359.6,2.691,2.691,0,0,0,.538.4,1.76,1.76,0,0,0,.9.2,2.075,2.075,0,0,0,1.216-.3q.418-.3,1.256-.857l12.324-10.21a7.6,7.6,0,0,1,1.475-1.017c.451-.225.851-.405,1.2-.538a3.769,3.769,0,0,1,1.116-.279h2.353a1.037,1.037,0,0,1,.9.318,1.133,1.133,0,0,1,.218.639,1.024,1.024,0,0,1-.119.5,3.1,3.1,0,0,1-.239.379l-16.072,13.4q-1.555,1.316-2.692,2.393t-1.854,1.874q-.838.958-1.4,1.676l-6.3,13.16a2.244,2.244,0,0,1-.6.857,2.755,2.755,0,0,1-.7.439,2.7,2.7,0,0,1-.779.18h-2.312a1.074,1.074,0,0,1-1-.4,1.6,1.6,0,0,1-.239-.838,2.126,2.126,0,0,1,.159-.8,1.358,1.358,0,0,1,.12-.358l6.54-14.237a3.967,3.967,0,0,0,.279-1.516,5.931,5.931,0,0,0-.139-1.3q-.141-.618-.3-1.137-.24-.558-.479-1.077l-5.344-13.041a1.958,1.958,0,0,1-.12-.6.869.869,0,0,1,.16-.559,1.331,1.331,0,0,1,.359-.319,1.654,1.654,0,0,1,.518-.159H403.4c.054,0,.18.013.379.04a2.341,2.341,0,0,1,.679.218,3.39,3.39,0,0,1,.8.559,2.878,2.878,0,0,1,.7,1.057Zm9.014-8.654a3.814,3.814,0,1,1-1.118-2.712A3.7,3.7,0,0,1,419.354,125.221Zm6.1,19.1a2.182,2.182,0,0,0,.2.44,1.961,1.961,0,0,0,.28.3.58.58,0,0,0,.4.139,1.73,1.73,0,0,0,.459-.06,2.042,2.042,0,0,0,.379-.139,1.569,1.569,0,0,0,.358-.2l6.66-5.543a6.053,6.053,0,0,1,.838-.519,3.36,3.36,0,0,1,.758-.279,4.23,4.23,0,0,1,.758-.159H438.1a2.079,2.079,0,0,1,.578.179.474.474,0,0,1,.3.458,1.206,1.206,0,0,1-.479.838l-8.017,6.78q-.835.717-1.435,1.3t-1,1.017a9.224,9.224,0,0,0-.758.917l-3.269,6.78a1.649,1.649,0,0,1-.5.658,2.56,2.56,0,0,1-.619.338,2.117,2.117,0,0,1-.578.14q-.26.021-.339.021h-2.074a.879.879,0,0,1-.658-.28.906.906,0,0,1-.179-.558,1.545,1.545,0,0,1,.079-.479c.054-.159.107-.305.16-.438l3.31-7.259a1.778,1.778,0,0,0,.16-.8,3.049,3.049,0,0,0-.08-.7c-.054-.226-.106-.445-.159-.658-.08-.212-.16-.412-.239-.6l-2.752-6.7a2.092,2.092,0,0,1-.2-.678.519.519,0,0,1,.4-.578,2.8,2.8,0,0,1,.559-.1h1.156q.079,0,.339.021a1.886,1.886,0,0,1,.558.14,2.363,2.363,0,0,1,.578.338,1.5,1.5,0,0,1,.439.578Zm5.464-5.064a2.589,2.589,0,1,1-.758-1.795A2.459,2.459,0,0,1,430.919,139.259Z" fill="#5b5d5e"/>
  <g>
    <g>
      <path d="M287.83,208.508c-.012-.264-.048-1.571-.072-1.871l1.236.049c-.013.095-.1.215-.312.251,0,.144,0,.288.024,1.547,1.475-.047,3.022-.084,3.921-.1v.828c-1.019-.025-2.47,0-3.9.048.024.935.049,1.8.084,2.459a4.045,4.045,0,0,1,.145,1.258,5.165,5.165,0,0,1-.121,1.164c-.311,1.4-1.343,2.638-3.454,3.478a6.442,6.442,0,0,0-.611-.684c1.835-.659,2.818-1.655,3.118-2.794h-.012a1.5,1.5,0,0,1-1.235.635,2.045,2.045,0,0,1-2.015-2.1,2.207,2.207,0,0,1,2.159-2.243,1.777,1.777,0,0,1,1.115.372c0-.205-.024-1.007-.048-1.523-1.247.024-5.037.155-5.529.18l-.024-.792,2.735-.072Zm.228,4.21c0-.468,0-1.56-1.224-1.56a1.449,1.449,0,0,0-1.427,1.524,1.343,1.343,0,0,0,1.332,1.391A1.293,1.293,0,0,0,288.058,212.718Z"/>
      <path d="M293.545,212.418c.5-.48,1.74-1.787,2.375-2.471.924-1.019,1.379-1.247,1.979-1.247.72,0,1.235.455,2.3,1.727a55.675,55.675,0,0,0,4.522,4.785l-.636.744a47.934,47.934,0,0,1-4.318-4.63c-1.02-1.247-1.391-1.726-1.883-1.726s-.851.4-1.583,1.223c-.408.468-1.379,1.535-1.895,2.111a.343.343,0,0,1-.132.336Zm7.508-4.726a7.205,7.205,0,0,1,1.643,1.68l-.455.371a7.2,7.2,0,0,0-1.595-1.679Zm1.476-1.079a6.76,6.76,0,0,1,1.618,1.656l-.443.383a7.064,7.064,0,0,0-1.583-1.643Z"/>
      <path d="M305.737,208.148c.9-.036,8.288-.563,9.847-.576l.012.9c-.156-.012-.3-.012-.444-.012a3.457,3.457,0,0,0-2.05.611c-1.8,1.08-3.539,3.011-3.539,4.558,0,1.68,1.176,2.675,4.15,3.059l-.4.839c-3.406-.492-4.677-1.763-4.677-3.9,0-1.691,1.667-3.741,3.861-5.121-1.271.084-4.856.36-6.4.5a.369.369,0,0,1-.264.192Z"/>
      <path d="M322.846,208.712a.31.31,0,0,1-.3.192c-.431,3.73-1.679,6.98-3.67,6.98-1.007,0-1.918-1.007-1.918-2.9a5.262,5.262,0,0,1,5.4-5.289c3.466,0,4.966,2.2,4.966,4.534,0,2.854-1.655,4.234-4.558,4.905a4.732,4.732,0,0,0-.5-.732c2.759-.527,4.174-1.871,4.174-4.137,0-1.979-1.271-3.778-4.078-3.778a3.379,3.379,0,0,0-.359.024Zm-1.151-.156a4.413,4.413,0,0,0-3.922,4.4c0,1.283.552,2.087,1.127,2.087C320.352,215.045,321.4,211.842,321.7,208.556Z"/>
      <path d="M337.736,208.544v8.12h-.875V216h-7.556v-.8h7.556v-5.852h-7.436v-.8Z"/>
      <path d="M340.693,207.837a14.845,14.845,0,0,1,3.574,1.631l-.456.755a15.291,15.291,0,0,0-3.5-1.667Zm-.048,8.31c4.258-1.319,7.088-3.7,8.527-7.027a4.719,4.719,0,0,0,.78.491,13.747,13.747,0,0,1-8.492,7.2.389.389,0,0,1-.168.275Z"/>
      <path d="M361.064,211.578h-4.053l.2.061a.257.257,0,0,1-.239.143,6.515,6.515,0,0,1-3.706,5.482,6.156,6.156,0,0,0-.648-.6,5.7,5.7,0,0,0,3.466-5.086h-4.665v-.8h9.642Zm-1.187-3.382h-7.364v-.8h7.364Z"/>
      <path d="M363.253,207.837a14.835,14.835,0,0,1,3.575,1.631l-.456.755a15.332,15.332,0,0,0-3.5-1.667Zm-.047,8.31c4.257-1.319,7.087-3.7,8.527-7.027a4.754,4.754,0,0,0,.779.491,13.745,13.745,0,0,1-8.491,7.2.392.392,0,0,1-.168.275Z"/>
      <path d="M374.881,208.316a14.641,14.641,0,0,1,1.152,3.191l-.8.264a15.981,15.981,0,0,0-1.127-3.2Zm8.984.144c-.036.108-.157.156-.312.156-1.26,4.234-3.226,6.824-6.98,8.467a5.654,5.654,0,0,0-.576-.659c3.67-1.547,5.553-3.958,6.74-8.323Zm-5.181-.827a20.2,20.2,0,0,1,.635,3.406l-.852.132a19.631,19.631,0,0,0-.623-3.395Z"/>
      <path d="M393.633,210.787a.234.234,0,0,1-.1.012.481.481,0,0,1-.252-.072c-3.562,1.044-6.788,2.615-6.776,4.221,0,1.152,1.271,1.548,3.214,1.548a28.764,28.764,0,0,0,4.246-.276l.072.876a38.953,38.953,0,0,1-4.294.216c-2.374,0-4.1-.552-4.114-2.316-.011-1.283,1.272-2.41,3.155-3.382-.408-.731-.552-2.123-.552-4.833l1.319.108c-.012.156-.132.252-.371.288-.013,2.1.06,3.406.395,4.053a34.082,34.082,0,0,1,3.742-1.439Z"/>
      <path d="M296.432,227.657a43.427,43.427,0,0,0-4.21-1.955v5.986h-.9V221.265l1.211.072c-.012.132-.108.216-.312.252v3.526l.18-.264a41.394,41.394,0,0,1,4.51,2Zm-1.259-5.648a10.385,10.385,0,0,1,1.655,1.762l-.456.373a10.1,10.1,0,0,0-1.631-1.751Zm1.607-1.032a10.084,10.084,0,0,1,1.643,1.752l-.432.371a11.168,11.168,0,0,0-1.643-1.751Z"/>
      <path d="M308.7,225.163a.269.269,0,0,1-.156.119c-.984,3.622-2.987,5.386-6.573,6.381a3.508,3.508,0,0,0-.5-.7c3.263-.816,5.29-2.495,6.045-5.278h-7.939v-.815h8.3l.12-.072Zm-1.128-2.567h-6.836v-.791h6.836Z"/>
      <path d="M319.988,222.032a.269.269,0,0,1-.228.1.45.45,0,0,1-.12-.012,29.036,29.036,0,0,1-3.418,2.866c.1.037.239.109.288.133a.308.308,0,0,1-.264.156v6.44h-.876v-6.164a34.5,34.5,0,0,1-4.569,2.674,4.313,4.313,0,0,0-.5-.659,30.455,30.455,0,0,0,8.791-6.2Z"/>
      <path d="M329.816,222.692a10.931,10.931,0,0,0-1.163-1.271l.419-.336a9.218,9.218,0,0,1,1.535,1.728l-.227.166.1.049a.314.314,0,0,1-.168.132c-.924,4.522-3.263,7.22-7.184,8.6a5.416,5.416,0,0,0-.552-.7,9.416,9.416,0,0,0,6.692-7.483h-7.639v-.816h7.951l.156-.108Zm1.847-.072a8.225,8.225,0,0,0-1.463-1.726l.444-.349a8.726,8.726,0,0,1,1.5,1.727Z"/>
      <path d="M335.328,221.816c-.036.132-.156.2-.4.193a28.746,28.746,0,0,0-.636,5.4,13.2,13.2,0,0,0,.156,2.375c.228-.588.744-1.846.912-2.266l.5.527c-.492,1.212-.851,1.9-1.019,2.435a2.057,2.057,0,0,0-.1.563,1.265,1.265,0,0,0,.06.372l-.852.156a13.19,13.19,0,0,1-.527-4.126,35.148,35.148,0,0,1,.635-5.84Zm7.639,8.768c-.431.023-.875.036-1.319.036a16.671,16.671,0,0,1-2.231-.132c-1.475-.217-2.158-1.032-2.158-1.991a3.657,3.657,0,0,1,1.127-2.314l.78.335a2.838,2.838,0,0,0-1.02,1.883c0,1.391,2.039,1.391,3.286,1.391.5,0,1.044-.023,1.547-.06Zm-5.552-7.328a39.16,39.16,0,0,0,5.229-.456l.071.84a45.319,45.319,0,0,1-5.277.443Z"/>
      <path d="M354.632,222.356a.309.309,0,0,1-.156.108,10.27,10.27,0,0,1-2.843,3.838,5.126,5.126,0,0,0-.731-.491,7.247,7.247,0,0,0,2.387-2.975H344.7v-.815h9.043l.132-.06Zm-4.678,2.183c-.012.1-.12.18-.276.2-.347,2.83-1.319,5.528-3.789,6.956a5.9,5.9,0,0,0-.708-.552c2.446-1.343,3.322-3.849,3.61-6.74Z"/>
      <path d="M364.077,223.544a.837.837,0,0,1-.181.168c-1.259,3.886-3.226,6.38-6.536,8.059a3.146,3.146,0,0,0-.611-.66,11.268,11.268,0,0,0,6.08-7.1h-4.282a12.3,12.3,0,0,1-2.686,2.962,4.722,4.722,0,0,0-.684-.552,12.173,12.173,0,0,0,3.826-5.2l1.14.324c-.048.12-.192.155-.348.155-.24.529-.492,1.033-.768,1.512h4.222l.144-.072Z"/>
      <path d="M375.752,224a.408.408,0,0,1-.192.145,12.669,12.669,0,0,1-2.507,3.909,6.6,6.6,0,0,0-.719-.432,8.686,8.686,0,0,0,2.051-2.974l-4.594,1.2v3.106c0,1.175.708,1.57,1.667,1.57h1.955a17.385,17.385,0,0,0,1.787-.131c0,.263.012.587.024.839-.479.06-1.319.1-1.775.1h-2c-1.511,0-2.518-.707-2.518-2.362v-2.9l-3.023.779-.2-.8,3.226-.8v-3.645l1.163.048c-.024.143-.132.216-.3.24v3.13l5.073-1.308L375,223.6Z"/>
      <path d="M385.329,222.5a.246.246,0,0,1-.156.132,18.546,18.546,0,0,1-2.4,4.126,44.036,44.036,0,0,1,4.39,4.065l-.731.636a39.238,39.238,0,0,0-4.21-4.029,18.893,18.893,0,0,1-4.618,4.029,4.372,4.372,0,0,0-.623-.647,17.2,17.2,0,0,0,7.028-7.833h-5.889v-.815h6.357l.156-.06Z"/>
    </g>
    <g>
      <path d="M315.389,105.181h-1.258v-.56h-9.392v-1.258h9.392v-7.52H304.9V94.585h10.486Z"/>
      <path d="M323.606,96.349l-.752,1.094a9.628,9.628,0,0,0-3.992-1.989l.772-1.149A15.181,15.181,0,0,1,323.606,96.349Zm6.3,1.429a18.557,18.557,0,0,1-4.785,5.134,18.906,18.906,0,0,1-5.367,2.413l-.8-1.265a14.642,14.642,0,0,0,6.008-2.577,16.2,16.2,0,0,0,3.938-4.614Z"/>
      <path d="M344.08,99.207h-4.97c.009.109.014.3.014.56a6.114,6.114,0,0,1-3.671,5.947l-.992-1.121a5.067,5.067,0,0,0,2.526-1.784,4.806,4.806,0,0,0,.858-2.878,6.925,6.925,0,0,0-.027-.724H332.39V97.942h11.69Zm-1.4-3.446h-8.934V94.5h8.934Z"/>
      <path d="M351.606,96.349l-.752,1.094a9.628,9.628,0,0,0-3.992-1.989l.772-1.149A15.181,15.181,0,0,1,351.606,96.349Zm6.3,1.429a18.557,18.557,0,0,1-4.785,5.134,18.906,18.906,0,0,1-5.367,2.413l-.8-1.265a14.642,14.642,0,0,0,6.008-2.577,16.2,16.2,0,0,0,3.938-4.614Z"/>
      <path d="M363.562,98.824l-1.271.506a7.829,7.829,0,0,0-1.682-3.835l1.265-.506A8.041,8.041,0,0,1,363.562,98.824Zm7.636-4.252a12.611,12.611,0,0,1-2.082,6.511,13.684,13.684,0,0,1-5.691,4.433l-.841-1.189a12.226,12.226,0,0,0,5.466-3.9,9.915,9.915,0,0,0,1.842-6.108Zm-4.177,3.3-1.271.492a9.979,9.979,0,0,0-1.5-3.822l1.231-.519A9.992,9.992,0,0,1,367.021,97.874Z"/>
    </g>
    <g>
      <path d="M334.442,201.2c.333,4.955,4.511-19.447,5.35-24.927" fill="none" stroke="#000" stroke-miterlimit="10"/>
      <polygon points="343.312 180.165 342.485 180.729 339.713 176.651 335.848 179.714 335.227 178.929 339.935 175.2 343.312 180.165"/>
    </g>
    <path d="M348.728,145.4a6.958,6.958,0,0,1,1.993.957,6.841,6.841,0,0,1,1.576,1.516,7.32,7.32,0,0,1,1.036,1.935,6.611,6.611,0,0,1,.379,2.253,6.9,6.9,0,0,1-.538,2.711,7.117,7.117,0,0,1-1.476,2.234,7,7,0,0,1-2.213,1.515,6.7,6.7,0,0,1-2.712.558,6.9,6.9,0,0,1-2.711-.538,7.111,7.111,0,0,1-2.234-1.476,6.982,6.982,0,0,1-1.515-2.213,6.676,6.676,0,0,1-.559-2.711,6.276,6.276,0,0,1,.12-1.237l-13.161-6.581a6.786,6.786,0,0,1-5.065,2.194,6.962,6.962,0,0,1-4.945-2.034,7.208,7.208,0,0,1-1.515-2.233,6.681,6.681,0,0,1-.559-2.712,6.906,6.906,0,0,1,.539-2.712,7.1,7.1,0,0,1,1.476-2.233,6.68,6.68,0,0,1,2.213-1.5,6.9,6.9,0,0,1,2.712-.538,7.109,7.109,0,0,1,2.851.578,6.711,6.711,0,0,1,2.293,1.615l13.161-6.58a5.875,5.875,0,0,1-.12-1.156,6.919,6.919,0,0,1,.538-2.712,7.105,7.105,0,0,1,1.476-2.234,6.987,6.987,0,0,1,2.213-1.515,6.7,6.7,0,0,1,2.712-.559,6.906,6.906,0,0,1,2.712.539,7.117,7.117,0,0,1,2.234,1.476,6.987,6.987,0,0,1,1.515,2.213,6.7,6.7,0,0,1,.558,2.712,6.79,6.79,0,0,1-.379,2.273,7.12,7.12,0,0,1-2.612,3.489,6.641,6.641,0,0,1-1.993.978Zm-7.1,1.954a7.541,7.541,0,0,1,1.416-1.176,6.829,6.829,0,0,1,1.695-.778V133.676a7.294,7.294,0,0,1-3.111-1.915l-13.16,6.581a6.07,6.07,0,0,1,0,2.392Z" fill="#5b5d5e"/>
  </g>
  <g>
    <g>
      <path d="M453.257,217.742H443.249v-1.078h6.082l.914-6.65H444.6v-1.078h6.755v1.019l-.937,6.709h2.836Z"/>
      <path d="M465.351,213.629H455.343v-1.084h10.008Z"/>
      <path d="M477.04,211.889h-2.279v1.968a4.438,4.438,0,0,1-.911,2.637,5.589,5.589,0,0,1-2.57,1.91l-.685-1.066a4.162,4.162,0,0,0,2.267-1.356,3.251,3.251,0,0,0,.815-2.1v-1.992h-3.129v2.554h-1.084v-2.554h-2.35v-1.084h2.35v-2.567h1.084v2.567h3.129v-2.567h1.084v2.567h2.279Zm-.434-1.682-.826.346a5.718,5.718,0,0,0-.58-1.606l.879-.357A6.276,6.276,0,0,1,476.606,210.207Zm1.331-.48-.827.351a5.813,5.813,0,0,0-.574-1.611l.873-.358A6.334,6.334,0,0,1,477.937,209.727Z"/>
      <path d="M489.351,213.629H479.343v-1.084h10.008Z"/>
      <path d="M504.925,216.553l-.756.855a18.116,18.116,0,0,1-2.8-2.457q-1.374-1.461-3.1-3.555a1.866,1.866,0,0,0-.152-.169,23.846,23.846,0,0,1-2.883,4.154l-.873-.744a15.467,15.467,0,0,0,2.1-2.76q1.152-1.835,1.2-1.992h.838A28.347,28.347,0,0,0,504.925,216.553Z"/>
      <path d="M510.286,212.105a8.374,8.374,0,0,1-2.959,6.129l-.9-.814a8.6,8.6,0,0,0,2.015-2.315,7.188,7.188,0,0,0,.768-3.638v-3.229h1.078Zm6.627,2.579a7.823,7.823,0,0,1-4.863,3.527v-9.973h1.084v8.52a4.26,4.26,0,0,0,1.547-1.127,8.959,8.959,0,0,0,1.406-1.85Z"/>
      <path d="M526.61,209.645a11.482,11.482,0,0,1-2.056,5.1,12.44,12.44,0,0,1-4.26,3.67l-.815-.961a11.276,11.276,0,0,0,3.909-2.971,8.888,8.888,0,0,0,2.009-4.037h-6.65v-1.031l7.535.012Zm1.342-2.233a1.256,1.256,0,0,1,.908.379,1.206,1.206,0,0,1,.387.893,1.229,1.229,0,0,1-.387.9,1.244,1.244,0,0,1-.908.383,1.323,1.323,0,0,1-1.283-1.283,1.21,1.21,0,0,1,.384-.9A1.245,1.245,0,0,1,527.952,207.412Zm0,1.752a.5.5,0,0,0,.361-.129.471.471,0,0,0,.131-.351.492.492,0,1,0-.984,0,.468.468,0,0,0,.132.351A.493.493,0,0,0,527.952,209.164Z"/>
      <path d="M447.351,226.289H445v1.969a4.438,4.438,0,0,1-.911,2.637,5.605,5.605,0,0,1-2.569,1.91l-.686-1.067a4.167,4.167,0,0,0,2.268-1.356,3.249,3.249,0,0,0,.814-2.1v-1.992h-3.129v2.59H439.7v-2.59h-2.35v-1.084h2.35v-2.566h1.084v2.566h3.129v-2.566H445v2.566h2.35Z"/>
      <path d="M452.741,227.332a15.067,15.067,0,0,1-2.572,3.861l-.984-.714a8.916,8.916,0,0,0,2.531-3.674Zm6.405-1.271h-4.2v5.578a.881.881,0,0,1-.351.712,1.422,1.422,0,0,1-.92.284c-.184,0-.49-.008-.92-.024l-.328-1.189a9.749,9.749,0,0,0,1.166.111c.183,0,.275-.088.275-.263v-5.209h-4.388v-1.079h4.388v-2.308h1.078v2.308h4.2Zm.158,4.57-1.043.586a15.589,15.589,0,0,0-2.549-3.779l1.025-.6A20.208,20.208,0,0,1,459.3,230.631Zm-1.336-8.725a1.265,1.265,0,0,1,.914.378,1.208,1.208,0,0,1,.387.894,1.223,1.223,0,0,1-.39.9,1.258,1.258,0,0,1-.911.384,1.321,1.321,0,0,1-1.283-1.283,1.216,1.216,0,0,1,.383-.894A1.242,1.242,0,0,1,457.968,221.906Zm0,1.752a.493.493,0,0,0,.36-.129.468.468,0,0,0,.132-.351.49.49,0,0,0-.132-.358.48.48,0,0,0-.36-.134.473.473,0,0,0-.355.134.49.49,0,0,0-.132.358.466.466,0,0,0,.132.354A.492.492,0,0,0,457.968,223.658Z"/>
      <path d="M471.351,228.029H461.343v-1.084h10.008Z"/>
      <path d="M482.548,229.072l-.8.862a14.238,14.238,0,0,0-4.828-3.082v5.794h-1.078v-10h1.078V226.3l.48-.469A15.846,15.846,0,0,1,482.548,229.072Z"/>
      <path d="M495.257,232.143H485.249v-1.079h6.082l.914-6.65H486.6v-1.078h6.755v1.019l-.937,6.709h2.836Z"/>
      <path d="M507.351,228.029H497.343v-1.084h10.008Z"/>
      <path d="M519.04,226.289h-2.279v1.969a4.438,4.438,0,0,1-.911,2.637,5.6,5.6,0,0,1-2.57,1.91l-.685-1.067a4.168,4.168,0,0,0,2.267-1.356,3.251,3.251,0,0,0,.815-2.1v-1.992h-3.129v2.555h-1.084v-2.555h-2.35v-1.084h2.35v-2.566h1.084v2.566h3.129v-2.566h1.084v2.566h2.279Zm-.434-1.682-.826.346a5.71,5.71,0,0,0-.58-1.6l.879-.358A6.3,6.3,0,0,1,518.606,224.607Zm1.331-.48-.827.352a5.809,5.809,0,0,0-.574-1.612l.873-.357A6.313,6.313,0,0,1,519.937,224.127Z"/>
      <path d="M531.351,228.029H521.343v-1.084h10.008Z"/>
      <path d="M460.32,246.771h-1.078v-.48h-8.051v-1.078h8.051v-6.445h-7.91v-1.079h8.988Z"/>
      <path d="M472.719,245.875l-.34,1.137a28.855,28.855,0,0,0-9.117-2.051l.3-1.154A42.874,42.874,0,0,1,472.719,245.875Zm-1.348-7.418-.322,1.137a14.3,14.3,0,0,0-2.98-.844,17.035,17.035,0,0,0-3.055-.34l.287-1.142q1.295.117,3.111.468A26.151,26.151,0,0,1,471.371,238.457Zm-.6,3.287-.3,1.113a14.311,14.311,0,0,0-5.426-1.435l.287-1.131A20.763,20.763,0,0,1,470.773,241.744Z"/>
      <path d="M483.623,245.383h-7.447V244.4H480.6l.6-4.552h-4.055v-.985h5.1v.744l-.639,4.793h2.016Z"/>
      <path d="M496.947,246.3H486.939v-1.078h10.008Zm-.961-7.26h-8.127v-1.078h8.127Z"/>
      <path d="M508.912,241.65h-4.26c.008.094.012.254.012.481a5.242,5.242,0,0,1-3.146,5.1l-.85-.961a4.342,4.342,0,0,0,2.165-1.53,4.121,4.121,0,0,0,.735-2.467,5.811,5.811,0,0,0-.023-.621h-4.652v-1.084h10.019Zm-1.2-2.953h-7.658v-1.084h7.658Z"/>
      <path d="M519.119,238.709A18.089,18.089,0,0,1,517,240.953v4.752h-1v-3.961a13.469,13.469,0,0,1-2.76,1.635l-.615-.879a12.911,12.911,0,0,0,3.2-1.891,11.542,11.542,0,0,0,2.493-2.562Z"/>
    </g>
    <g>
      <path d="M494.268,104.392l-.882,1a21.215,21.215,0,0,1-3.264-2.868q-1.6-1.706-3.613-4.146a2.328,2.328,0,0,0-.177-.2,27.783,27.783,0,0,1-3.364,4.846l-1.018-.868a18.025,18.025,0,0,0,2.444-3.219q1.342-2.139,1.4-2.325h.978Q491,102.252,494.268,104.392Z"/>
      <path d="M500.523,99.2a9.775,9.775,0,0,1-3.452,7.151l-1.053-.951a10.055,10.055,0,0,0,2.352-2.7,8.394,8.394,0,0,0,.895-4.245V94.691h1.258Zm7.731,3.008q-2.495,3.528-5.673,4.115V94.691h1.264v9.94a4.944,4.944,0,0,0,1.8-1.316,10.437,10.437,0,0,0,1.641-2.157Z"/>
      <path d="M519.568,96.332a13.392,13.392,0,0,1-2.4,5.951,14.512,14.512,0,0,1-4.969,4.282l-.95-1.121a13.14,13.14,0,0,0,4.559-3.465,10.375,10.375,0,0,0,2.345-4.71h-7.759v-1.2l8.791.014Zm1.565-2.6a1.468,1.468,0,0,1,1.06.441,1.409,1.409,0,0,1,.451,1.042,1.433,1.433,0,0,1-.451,1.05,1.458,1.458,0,0,1-1.06.447,1.542,1.542,0,0,1-1.5-1.5,1.415,1.415,0,0,1,.448-1.046A1.454,1.454,0,0,1,521.133,93.728Zm0,2.043a.574.574,0,0,0,.421-.15.547.547,0,0,0,.154-.41.575.575,0,1,0-1.149,0,.544.544,0,0,0,.154.41A.572.572,0,0,0,521.133,95.771Z"/>
    </g>
    <g>
      <path d="M491.282,201.2c-.232-3.438.872-16.209,5.014-25.026" fill="none" stroke="#000" stroke-miterlimit="10"/>
      <polygon points="498.737 180.875 497.792 181.203 496.181 176.543 491.651 178.49 491.257 177.57 496.775 175.2 498.737 180.875"/>
    </g>
    <path d="M501.513,120.5a18.986,18.986,0,0,1,7.617,1.536,19.656,19.656,0,0,1,10.39,10.389,19.666,19.666,0,0,1,0,15.234,19.666,19.666,0,0,1-10.39,10.389,19.666,19.666,0,0,1-15.234,0,19.659,19.659,0,0,1-10.389-10.389,19.666,19.666,0,0,1,0-15.234A19.65,19.65,0,0,1,493.9,122.032,18.986,18.986,0,0,1,501.513,120.5Zm0,35.893a15.9,15.9,0,0,0,6.381-1.3,16.631,16.631,0,0,0,5.205-3.51,16.419,16.419,0,0,0,3.489-5.185,16.422,16.422,0,0,0-.02-12.741,16.645,16.645,0,0,0-3.509-5.205,16.441,16.441,0,0,0-5.185-3.489,16.425,16.425,0,0,0-12.742.02,16.646,16.646,0,0,0-5.2,3.509,16.416,16.416,0,0,0-3.49,5.185,16.425,16.425,0,0,0,.02,12.742,16.626,16.626,0,0,0,3.51,5.2,16.381,16.381,0,0,0,5.184,3.489A15.939,15.939,0,0,0,501.513,156.389Zm-.119-29.711a12.392,12.392,0,0,1,4.626.758,8.7,8.7,0,0,1,2.991,1.894,6.844,6.844,0,0,1,1.595,2.452,7.17,7.17,0,0,1,.478,2.433,9.37,9.37,0,0,1-.279,2.453,7.344,7.344,0,0,1-.738,1.795,6.263,6.263,0,0,1-1.036,1.336,13,13,0,0,1-1.217,1.037q-.637.477-1.256.877a8.368,8.368,0,0,0-1.137.877,5.39,5.39,0,0,0-.9,1.077,3.631,3.631,0,0,0-.5,1.476h-5.3a8.21,8.21,0,0,1,.418-2.234,7.57,7.57,0,0,1,.818-1.675A8.351,8.351,0,0,1,501,139.958a10.041,10.041,0,0,1,1.156-1l.24-.2q.517-.438,1-.838a5.545,5.545,0,0,0,.837-.858,3.575,3.575,0,0,0,.558-1.016,3.914,3.914,0,0,0,.2-1.317,3.49,3.49,0,0,0-.878-2.631,3.375,3.375,0,0,0-2.432-.838,3.8,3.8,0,0,0-1.8.4,3.651,3.651,0,0,0-1.256,1.076,4.634,4.634,0,0,0-.738,1.6,7.743,7.743,0,0,0-.239,1.954h-5.7a11.232,11.232,0,0,1,.718-3.868,8.908,8.908,0,0,1,1.914-3.031,8.761,8.761,0,0,1,2.951-1.994A9.927,9.927,0,0,1,501.394,126.678Zm-2.672,21.456h5.3V153.4h-5.3Z" fill="#5b5d5e"/>
  </g>
</svg>
