<svg xmlns="http://www.w3.org/2000/svg" viewBox="0 0 560 380">
  <g style="isolation: isolate">
    <g>
      <g>
        <path d="M254.261,32.742,253,34.217a14.382,14.382,0,0,0-5.878-3.252,4.726,4.726,0,0,1-.982,3.3,3.941,3.941,0,0,1-3.022,1.054,4.771,4.771,0,0,1-2.95-.874,2.808,2.808,0,0,1-1.162-2.368,2.966,2.966,0,0,1,1.309-2.534,5.173,5.173,0,0,1,3.1-.942,12.284,12.284,0,0,1,1.885.175V20.145h1.817v4.072a25.023,25.023,0,0,0,4.2-.459l.185,1.885a33.013,33.013,0,0,1-4.384.4v3.1A16.762,16.762,0,0,1,254.261,32.742Zm-8.974-2.158a8.389,8.389,0,0,0-1.719-.146,3.883,3.883,0,0,0-1.948.434,1.31,1.31,0,0,0-.757,1.167,1.218,1.218,0,0,0,.679,1.045,2.934,2.934,0,0,0,1.577.42,1.941,1.941,0,0,0,1.65-.679A3.756,3.756,0,0,0,245.287,30.584Z"/>
        <path d="M258.939,27.264a18.121,18.121,0,0,1,8.74-2.5,5.576,5.576,0,0,1,3.721,1.25,4.175,4.175,0,0,1,1.484,3.369,5.461,5.461,0,0,1-1.4,3.545,8.818,8.818,0,0,1-3.96,2.578,15.442,15.442,0,0,1-4.619.957l-.781-1.885a12.471,12.471,0,0,0,6.669-1.631q2.277-1.533,2.276-3.408a2.727,2.727,0,0,0-.938-2.212,3.841,3.841,0,0,0-2.548-.786,13.315,13.315,0,0,0-7.5,2.422Zm11.348-5.743-.381,1.915a28.176,28.176,0,0,1-8.086-1.075l.566-1.8a17.871,17.871,0,0,0,6.377,1.036A10.738,10.738,0,0,0,270.287,21.521Z"/>
        <path d="M293.822,35.164q-4.863.439-7.139.44a12.545,12.545,0,0,1-5.273-.767,2.594,2.594,0,0,1-1.465-2.476q0-1.386,2-3.9l1.758.976q-1.983,2.022-1.983,3.038,0,1.3,4.844,1.3a59.855,59.855,0,0,0,6.914-.556Zm-2.061-12.939-.3,1.914a28.966,28.966,0,0,0-7.617-.9,24.106,24.106,0,0,0-2.5.117l.147-1.914,1.719-.019A47.66,47.66,0,0,1,291.761,22.225Z"/>
        <path d="M314.427,26.639q-4.844.323-6.733,1.714a3.853,3.853,0,0,0-1.89,3.032,2.606,2.606,0,0,0,1.509,2.2,6.8,6.8,0,0,0,3.589.913l-.742,1.943a9.715,9.715,0,0,1-4.561-1.762,3.878,3.878,0,0,1-1.7-3.12,5.335,5.335,0,0,1,2.021-3.819l-.039-.039q-4.666.6-6.757.918l-.4-1.943,4.453-.528a3.3,3.3,0,0,0,1.25-.693q.9-.665,1.494-1.143.772-.6,1.28-1.074a33.559,33.559,0,0,1-5.918-.576l.361-1.943a23.916,23.916,0,0,0,3.3.586,52,52,0,0,0,5.679.234v1.621a27.462,27.462,0,0,1-4.073,2.617l.039.039,7.54-1.142Z"/>
        <path d="M320.56,24.6l-.5,7.578h-1.143l-.537-7.578V21.424h2.178Zm-.1,11.142h-2v-2h2Z"/>
        <path d="M74.231,51.9l2.125-.257a2.01,2.01,0,0,0,.547,1.242,1.5,1.5,0,0,0,1.078.429,1.479,1.479,0,0,0,1.145-.515,2,2,0,0,0,.465-1.391,1.867,1.867,0,0,0-.445-1.312,1.422,1.422,0,0,0-1.086-.485,3.838,3.838,0,0,0-1.008.164l.242-1.789a1.922,1.922,0,0,0,1.359-.386,1.376,1.376,0,0,0,.469-1.09,1.184,1.184,0,0,0-1.258-1.266,1.322,1.322,0,0,0-.961.391,1.834,1.834,0,0,0-.484,1.14L74.4,46.433a4.518,4.518,0,0,1,.636-1.661A2.875,2.875,0,0,1,76.22,43.8a3.986,3.986,0,0,1,1.707-.356,3.406,3.406,0,0,1,2.594,1.032,2.611,2.611,0,0,1-.844,4.312,2.674,2.674,0,0,1,1.574.945,2.748,2.748,0,0,1,.59,1.774,3.437,3.437,0,0,1-1.1,2.57,4.112,4.112,0,0,1-5.32.168A3.514,3.514,0,0,1,74.231,51.9Z"/>
        <path d="M83.685,43.487h4.226a8.29,8.29,0,0,1,2.18.219,3.83,3.83,0,0,1,1.726,1.055,5.009,5.009,0,0,1,1.094,1.855,8.453,8.453,0,0,1,.375,2.707,7.539,7.539,0,0,1-.351,2.438,5.055,5.055,0,0,1-1.227,2.023,4.065,4.065,0,0,1-1.625.914,6.983,6.983,0,0,1-2.047.242H83.685ZM86,45.425v7.586h1.727a6.229,6.229,0,0,0,1.4-.11,2.13,2.13,0,0,0,.934-.476,2.423,2.423,0,0,0,.605-1.106,7.47,7.47,0,0,0,.235-2.1,6.844,6.844,0,0,0-.235-2.039,2.625,2.625,0,0,0-.656-1.11,2.207,2.207,0,0,0-1.07-.539,10.5,10.5,0,0,0-1.9-.109Z"/>
        <path d="M98.675,54.94a3.741,3.741,0,0,1-2.256-.6,2.232,2.232,0,0,1-.816-1.927V44.3h6.384v1.264h-4.7v3.3h4.24v1.265h-4.24v2.3a1.106,1.106,0,0,0,.392.976,1.833,1.833,0,0,0,1.064.272H102.2V54.94Z"/>
        <path d="M103.251,54.94l3.68-5.392L103.459,44.3H105.4l2.576,3.952,2.688-3.952h1.792l-3.6,5.2,3.648,5.44h-1.968l-2.72-4.16-2.784,4.16Z"/>
        <path d="M114.274,54.94V44.3h3.44a8.254,8.254,0,0,1,1.768.168,3.139,3.139,0,0,1,1.272.569,2.424,2.424,0,0,1,.768,1.04,4.324,4.324,0,0,1,.256,1.6,4.233,4.233,0,0,1-.272,1.609,2.564,2.564,0,0,1-.792,1.071,3.286,3.286,0,0,1-1.248.592,6.679,6.679,0,0,1-1.639.184,11.14,11.14,0,0,1-1.872-.175V54.94Zm1.681-5.248a9.627,9.627,0,0,0,1.7.161,2.633,2.633,0,0,0,1.889-.544,2.221,2.221,0,0,0,.544-1.633,3.234,3.234,0,0,0-.137-1.015,1.392,1.392,0,0,0-.424-.649,1.761,1.761,0,0,0-.735-.344,4.831,4.831,0,0,0-1.073-.1h-1.759Z"/>
        <path d="M127.283,54.94a3.741,3.741,0,0,1-2.256-.6,2.232,2.232,0,0,1-.816-1.927V44.3H130.6v1.264h-4.7v3.3h4.24v1.265h-4.24v2.3a1.1,1.1,0,0,0,.392.976,1.833,1.833,0,0,0,1.064.272H130.8V54.94Z"/>
        <path d="M133.4,54.94V44.3h3.439a8.718,8.718,0,0,1,1.769.16,3.211,3.211,0,0,1,1.272.544,2.34,2.34,0,0,1,.768,1.017A4.229,4.229,0,0,1,140.9,47.6a3.487,3.487,0,0,1-.159,1.112,2.621,2.621,0,0,1-.432.809,2.471,2.471,0,0,1-.648.56,3.959,3.959,0,0,1-.825.367,1.931,1.931,0,0,1,.913.672,5.035,5.035,0,0,1,.591,1.2l.945,2.624h-1.744l-.832-2.255a6.693,6.693,0,0,0-.305-.7,2.258,2.258,0,0,0-.383-.544,1.567,1.567,0,0,0-.544-.36,2.08,2.08,0,0,0-.768-.127c-.256,0-.52-.009-.792-.024a6.876,6.876,0,0,1-.84-.1V54.94Zm1.68-5.376q.464.081.887.112c.283.022.553.032.809.032a2.737,2.737,0,0,0,1.888-.512,2.1,2.1,0,0,0,.544-1.6,3.092,3.092,0,0,0-.137-1,1.341,1.341,0,0,0-.423-.623,1.668,1.668,0,0,0-.736-.321,5.713,5.713,0,0,0-1.073-.088h-1.759Z"/>
        <path d="M143.65,54.94V44.3h1.681V54.94Z"/>
        <path d="M151.57,54.94a3.741,3.741,0,0,1-2.256-.6,2.232,2.232,0,0,1-.816-1.927V44.3h6.384v1.264h-4.7v3.3h4.24v1.265h-4.24v2.3a1.106,1.106,0,0,0,.392.976,1.833,1.833,0,0,0,1.064.272h3.456V54.94Z"/>
        <path d="M157.682,54.94V44.3h1.344l5.808,6.224V44.3h1.632V54.94h-1.632v-2.4L159.3,46.685V54.94Z"/>
        <path d="M176.562,54.78a8.777,8.777,0,0,1-1.376.257,13.126,13.126,0,0,1-1.408.079,6.684,6.684,0,0,1-1.984-.272,3.45,3.45,0,0,1-1.5-.911,4.121,4.121,0,0,1-.936-1.7,10.918,10.918,0,0,1,0-5.248A4.058,4.058,0,0,1,170.3,45.3a3.424,3.424,0,0,1,1.512-.9,7.224,7.224,0,0,1,2.032-.263,12.414,12.414,0,0,1,1.392.079q.7.081,1.28.193l-.192,1.279a11.909,11.909,0,0,0-1.256-.208,11.538,11.538,0,0,0-1.3-.08,3.835,3.835,0,0,0-1.3.2,2,2,0,0,0-.92.681,3.28,3.28,0,0,0-.552,1.287A9.307,9.307,0,0,0,170.8,49.6a9.442,9.442,0,0,0,.192,2.089,3.312,3.312,0,0,0,.568,1.3,1.986,1.986,0,0,0,.944.673,4.117,4.117,0,0,0,1.32.192,8.9,8.9,0,0,0,1.3-.1q.7-.1,1.3-.232Z"/>
        <path d="M181.938,54.94a3.741,3.741,0,0,1-2.256-.6,2.232,2.232,0,0,1-.816-1.927V44.3h6.384v1.264h-4.7v3.3h4.24v1.265h-4.24v2.3a1.106,1.106,0,0,0,.392.976,1.833,1.833,0,0,0,1.064.272h3.456V54.94Z"/>
        <path d="M203,53.372v.952H191.258v-.967h7.34c.266-1.778.673-5.238.826-7.143h-6.653v-.953H199.8l.2-.07.77.364a.308.308,0,0,1-.224.154c-.168,1.85-.644,5.729-.911,7.663Z"/>
        <path d="M205.09,48.875h11.7v.995H205.623a.647.647,0,0,1-.449.266Z"/>
        <path d="M230.8,47.741h-3v.938a7.023,7.023,0,0,1-4.5,7.046,5.714,5.714,0,0,0-.714-.7,6.26,6.26,0,0,0,4.216-6.331v-.952h-4.455V51.2h-.994V47.741h-2.746v-.953h2.746V43.72l1.345.084a.368.368,0,0,1-.351.295v2.689h4.455V43.552l1.331.084a.353.353,0,0,1-.337.266v2.886h3Zm-2.157-3.7a9.992,9.992,0,0,1,1.667,1.99l-.5.378a10.481,10.481,0,0,0-1.64-1.975Zm1.387-1.162a9.26,9.26,0,0,1,1.68,2l-.49.378a11.259,11.259,0,0,0-1.667-1.989Z"/>
        <path d="M232.67,48.875h11.7v.995H233.2a.645.645,0,0,1-.449.266Z"/>
        <path d="M261.458,44.407a.315.315,0,0,1-.266.112.525.525,0,0,1-.14-.014,34.171,34.171,0,0,1-3.991,3.348c.111.042.279.126.335.154a.357.357,0,0,1-.308.182v7.522h-1.022v-7.2a40.353,40.353,0,0,1-5.337,3.124,5.157,5.157,0,0,0-.588-.771,35.532,35.532,0,0,0,10.267-7.242Z"/>
        <path d="M263.833,44.645a17.368,17.368,0,0,1,4.174,1.9l-.532.883a17.882,17.882,0,0,0-4.09-1.948Zm-.056,9.707c4.973-1.54,8.279-4.328,9.96-8.208a5.439,5.439,0,0,0,.91.574,16.05,16.05,0,0,1-9.917,8.4.458.458,0,0,1-.2.322Z"/>
        <path d="M286.042,45.877a.234.234,0,0,1-.167.155,18.294,18.294,0,0,1-2.06,4.636c.6.351,1.289.785,1.808,1.163l-.589.924c-.5-.392-1.219-.854-1.807-1.218A13.2,13.2,0,0,1,278.17,55.8a2.96,2.96,0,0,0-.77-.729,13.282,13.282,0,0,0,4.959-4.034,23.776,23.776,0,0,0-3.1-1.456l.532-.785a23.478,23.478,0,0,1,3.152,1.415,14.428,14.428,0,0,0,1.695-3.712h-4.749a15.176,15.176,0,0,1-3.235,3.852,7.56,7.56,0,0,0-.8-.63,14.545,14.545,0,0,0,4.412-6.318l1.331.309c-.056.153-.2.2-.378.182-.2.462-.518,1.148-.785,1.666h4.651l.2-.055Z"/>
        <path d="M288.641,48.875h11.7v.995H289.173a.645.645,0,0,1-.448.266Z"/>
        <path d="M312.783,45.3a.337.337,0,0,1-.182.155c-1.107,5.308-3.852,8.46-8.433,10.071a7.572,7.572,0,0,0-.644-.813,11.119,11.119,0,0,0,7.844-8.782h-9.16V45h9.524l.2-.126Z"/>
        <path d="M322.737,47.446v.813h-3.446v5.505h4.23v.812h-9.357v-.812H318.4V48.259h-3.418v-.813Z"/>
        <path d="M336.919,44.407a.315.315,0,0,1-.266.112.525.525,0,0,1-.14-.014,34.1,34.1,0,0,1-3.992,3.348c.112.042.28.126.336.154a.357.357,0,0,1-.308.182v7.522h-1.022v-7.2a40.353,40.353,0,0,1-5.337,3.124,5.157,5.157,0,0,0-.588-.771,35.532,35.532,0,0,0,10.267-7.242Z"/>
        <path d="M347.909,44.953a.29.29,0,0,1-.182.154,21.685,21.685,0,0,1-2.8,4.819,51.368,51.368,0,0,1,5.127,4.748l-.854.743a45.876,45.876,0,0,0-4.917-4.707,22.069,22.069,0,0,1-5.393,4.707,5.241,5.241,0,0,0-.728-.757,20.084,20.084,0,0,0,8.208-9.147H339.49v-.952h7.425l.181-.07Z"/>
        <path d="M354.527,44.155c-.042.154-.182.238-.462.224a33.608,33.608,0,0,0-.742,6.3,15.444,15.444,0,0,0,.182,2.774c.266-.687.868-2.158,1.064-2.648l.589.616c-.575,1.415-1,2.214-1.191,2.844a2.4,2.4,0,0,0-.112.658,1.484,1.484,0,0,0,.07.435l-1,.182a15.387,15.387,0,0,1-.616-4.819,40.9,40.9,0,0,1,.743-6.822Zm8.923,10.239c-.5.028-1.022.042-1.541.042a19.291,19.291,0,0,1-2.605-.154c-1.723-.252-2.521-1.2-2.521-2.325a4.281,4.281,0,0,1,1.316-2.7l.911.393a3.308,3.308,0,0,0-1.191,2.2c0,1.625,2.381,1.625,3.838,1.625.589,0,1.219-.029,1.807-.071Zm-6.486-8.559a45.764,45.764,0,0,0,6.108-.532l.084.981a53.031,53.031,0,0,1-6.163.518Z"/>
        <path d="M365.614,47.04c.322-.07.784-.2,1.442-.406a22.988,22.988,0,0,1,6.234-1.345c2.353,0,4.356,1.163,4.356,4.1,0,3.473-3.432,4.818-8.167,5.294a4.518,4.518,0,0,0-.363-.952c4.328-.406,7.438-1.583,7.438-4.287,0-2.2-1.513-3.151-3.362-3.151a23.738,23.738,0,0,0-6.878,1.709.379.379,0,0,1-.252.322Z"/>
        <path d="M381.589,45.009c-.028.126-.182.21-.379.224a23.052,23.052,0,0,0-.266,3.488c0,.518.028,1.023.056,1.471.168,2.381,1.135,3.824,2.213,3.81.561,0,1.289-1.429,1.793-3a4.872,4.872,0,0,0,.813.6c-.644,1.892-1.457,3.433-2.619,3.46-1.78.029-3.012-2.128-3.208-4.818-.042-.532-.056-1.121-.056-1.751a33.415,33.415,0,0,1,.21-3.768Zm9.286,6.513a6.985,6.985,0,0,0-3.529-5.266l.616-.756a7.689,7.689,0,0,1,3.95,5.7Z"/>
        <path d="M393.292,45.009c1.05-.042,9.679-.658,11.5-.672l.014,1.05c-.182-.014-.35-.014-.518-.014a4.033,4.033,0,0,0-2.4.715c-2.1,1.26-4.132,3.516-4.132,5.323,0,1.961,1.373,3.123,4.847,3.571l-.462.981c-3.978-.574-5.463-2.059-5.463-4.552,0-1.975,1.946-4.371,4.51-5.982-1.485.1-5.673.421-7.48.589a.424.424,0,0,1-.308.224Z"/>
        <path d="M411.411,45.485v.785H406.06v-.785ZM410.92,51.2v4.119h-3.376v.658h-.84V51.2Zm-4.2-3.039V47.39h4.217v.771Zm0,1.905V49.3h4.217v.771Zm4.175-6.444v.771H406.8v-.771ZM410.08,52h-2.536V54.52h2.536Zm9.049-.252v.868h-3.4v3.516h-.938V52.615h-3.474v-.868h3.474V49.6h-2.718v-.855h2.718V46.718h-3v-.883h1.681a11.217,11.217,0,0,0-1.065-2.353l.757-.294a10.476,10.476,0,0,1,1.148,2.437l-.5.21h2.858c-.21-.1-.463-.21-.477-.21a15.91,15.91,0,0,0,1.149-2.535l1.079.406a.294.294,0,0,1-.3.14,21.814,21.814,0,0,1-1.134,2.2h1.932v.883h-3.193v2.031h2.8V49.6h-2.8v2.143Z"/>
        <path d="M424.472,49.337a13.746,13.746,0,0,0-.882-1.386l.714-.337a12.577,12.577,0,0,1,1.625,2.844l-.757.364a5.271,5.271,0,0,0-.322-.77l-1.526.084v5.995h-.855V50.178c-.8.028-1.527.07-2.1.084-.014.112-.1.154-.2.182l-.253-1.05h1.037c.308-.365.645-.785.967-1.233a12.407,12.407,0,0,0-1.863-2.031l.476-.617a4.956,4.956,0,0,1,.42.379,22.282,22.282,0,0,0,1.387-2.774l1.023.434c-.056.084-.14.113-.295.113A24.558,24.558,0,0,1,421.5,46.41a8.134,8.134,0,0,1,.911,1.05c.63-.938,1.233-1.933,1.667-2.745l1,.476a.407.407,0,0,1-.323.112,39.045,39.045,0,0,1-2.885,4.076Zm-2.6,2.116c-.028.084-.112.14-.266.14a12.426,12.426,0,0,1-.953,3.362,5.38,5.38,0,0,0-.7-.365,12.061,12.061,0,0,0,.9-3.4Zm3.011,2.717a12.5,12.5,0,0,0-.924-2.788l.728-.237a13.631,13.631,0,0,1,.981,2.759Zm1.093-9.931h6.457v11.7h-.9v-.659h-4.693v.771h-.868Zm2.774.882h-1.906V49.3h1.906Zm-1.906,5.057v4.23h1.906v-4.23Zm4.693-.883V45.121H429.6V49.3ZM429.6,54.408h1.933v-4.23H429.6Z"/>
        <path d="M446.148,49.113a.19.19,0,0,1-.084.028.357.357,0,0,1-.21-.084c-1.064.35-2.619.925-3.782,1.429.029.322.042.686.042,1.093,0,.448-.013.952-.042,1.5l-1.022.055c.042-.5.07-1.148.07-1.7,0-.209,0-.406-.014-.56-1.583.77-2.872,1.709-2.872,2.55,0,.812.967,1.2,2.9,1.2a31.4,31.4,0,0,0,3.516-.14l.014.939c-.827.084-2.087.112-3.53.112-2.69,0-3.88-.645-3.88-2.073,0-1.233,1.625-2.424,3.726-3.474-.084-.883-.477-1.317-1.037-1.317-1.022,0-2.087.574-3.347,1.975-.393.434-.939.981-1.541,1.527l-.687-.686a9.834,9.834,0,0,0,3.53-5.169l-.784.014h-2.34v-.911c.855.014,1.85.014,2.424.014l.952-.014a17.984,17.984,0,0,0,.378-2l1.373.168c-.028.14-.14.224-.35.253-.1.56-.224,1.05-.35,1.554a19.185,19.185,0,0,0,4.819-.812l.168.938a21.111,21.111,0,0,1-5.253.785,10.147,10.147,0,0,1-1.009,2.367h.014a3.73,3.73,0,0,1,2.255-.91c.953,0,1.555.686,1.737,1.82,1.177-.532,2.662-1.106,3.782-1.54Z"/>
        <path d="M452.836,51.943c-.013.1-.126.168-.294.182-.378,2-1.19,3.362-4.5,4.034a2.905,2.905,0,0,0-.518-.826c3.025-.547,3.782-1.639,4.062-3.516Zm3.11,2.7c0,.407.112.491.757.491h2.227c.588,0,.7-.266.756-2.032a2.864,2.864,0,0,0,.869.393c-.112,2.031-.378,2.535-1.555,2.535h-2.381c-1.289,0-1.625-.294-1.625-1.387V51.424h-5.407v-7.8h8.923v7.8h-2.564Zm-5.448-10.2v1.527h7.059V44.449Zm0,2.3v1.541h7.059V46.746Zm0,2.311v1.569h7.059V49.057Z"/>
        <path d="M465.451,49.268a8.476,8.476,0,0,1,3.473-.813c2.227,0,3.628,1.3,3.628,3.362,0,2.535-2.227,3.936-5.042,3.936-1.822,0-3.068-.729-3.068-1.961a2.115,2.115,0,0,1,2.3-1.877A2.956,2.956,0,0,1,469.6,54.45a2.746,2.746,0,0,0,1.933-2.619c0-1.513-1.121-2.479-2.886-2.479a7.974,7.974,0,0,0-5.084,1.835c-.421.392-.967.98-1.345,1.414l-.715-.714c1.261-1.317,5.267-5.141,7.172-6.92-.812.112-3.614.224-5.211.28a.468.468,0,0,1-.294.211l-.112-1.191c1.891-.015,5.5-.154,6.528-.309l.21-.1.742.911a.676.676,0,0,1-.336.126c-.994.812-3.656,3.306-4.748,4.356Zm1.932,5.6a6.123,6.123,0,0,0,1.275-.141,2.16,2.16,0,0,0-1.989-1.989c-.728,0-1.373.392-1.373,1.037C465.3,54.632,466.459,54.871,467.383,54.871Z"/>
        <path d="M474.628,54.94V53.02h1.921v1.92Z"/>
        <path d="M478.518,54.94V53.02h1.921v1.92Z"/>
        <path d="M482.408,54.94V53.02h1.921v1.92Z"/>
      </g>
      <g>
        <path d="M42.372,106.8a9.546,9.546,0,0,0-1.406-.285,12.007,12.007,0,0,0-1.6-.114,2.239,2.239,0,0,0-1.976.969,5.858,5.858,0,0,0-.665,3.211,10.9,10.9,0,0,0,.171,2.138,3.226,3.226,0,0,0,.522,1.292,1.811,1.811,0,0,0,.912.645,4.374,4.374,0,0,0,1.34.181,8.563,8.563,0,0,0,1.482-.133c.506-.089.962-.183,1.368-.285l.228,2.28a11.956,11.956,0,0,1-1.463.352,9.871,9.871,0,0,1-1.786.161,9.612,9.612,0,0,1-2.641-.332,4.467,4.467,0,0,1-1.947-1.111,4.966,4.966,0,0,1-1.2-2.043,10.368,10.368,0,0,1-.408-3.145,9.915,9.915,0,0,1,.4-3.02,4.793,4.793,0,0,1,1.188-2.005,4.59,4.59,0,0,1,1.947-1.112,9.485,9.485,0,0,1,2.679-.341,12.805,12.805,0,0,1,1.786.123,13.474,13.474,0,0,1,1.387.256Z"/>
        <path d="M53.411,112.326a4.9,4.9,0,0,1-1.226,3.705,4.963,4.963,0,0,1-3.543,1.159,4.964,4.964,0,0,1-3.544-1.159,6.2,6.2,0,0,1,0-7.4,4.989,4.989,0,0,1,3.544-1.15,4.988,4.988,0,0,1,3.543,1.15A4.865,4.865,0,0,1,53.411,112.326Zm-3.287,0a4.488,4.488,0,0,0-.333-2.061,1.431,1.431,0,0,0-2.3,0,4.5,4.5,0,0,0-.332,2.061,4.571,4.571,0,0,0,.332,2.071,1.416,1.416,0,0,0,2.3,0A4.555,4.555,0,0,0,50.124,112.326Z"/>
        <path d="M56.09,107.994q.474-.133,1.026-.247t1.177-.189a10.51,10.51,0,0,1,1.273-.077,5.357,5.357,0,0,1,3.021.76,6.933,6.933,0,0,1,1.511-.56,6.676,6.676,0,0,1,1.606-.2,5.862,5.862,0,0,1,1.558.19,3.046,3.046,0,0,1,1.168.6,2.59,2.59,0,0,1,.741,1.073,4.439,4.439,0,0,1,.257,1.6v6.023H66.255v-5.909a1.418,1.418,0,0,0-.323-1.083,1.367,1.367,0,0,0-.932-.284,2.762,2.762,0,0,0-.626.075,3,3,0,0,0-.57.19,3.3,3.3,0,0,1,.133.988v6.023H60.764v-5.909a1.414,1.414,0,0,0-.324-1.083,1.361,1.361,0,0,0-.93-.284,4.276,4.276,0,0,0-.561.038,3.705,3.705,0,0,0-.5.094v7.144H55.272v-8.721Q55.614,108.127,56.09,107.994Z"/>
        <path d="M71.669,108.241a14.865,14.865,0,0,1,2.071-.532,12.561,12.561,0,0,1,2.337-.228,6.631,6.631,0,0,1,1.891.256,3.917,3.917,0,0,1,1.491.808,3.686,3.686,0,0,1,.979,1.444,5.936,5.936,0,0,1,.351,2.166,7.467,7.467,0,0,1-.332,2.394,3.987,3.987,0,0,1-.912,1.549,3.4,3.4,0,0,1-1.368.836,5.564,5.564,0,0,1-1.72.256,6.652,6.652,0,0,1-.817-.057q-.456-.057-.8-.133v3.534H71.669Zm3.173,6.555a6.026,6.026,0,0,0,.627.142,3.56,3.56,0,0,0,.608.048,1.154,1.154,0,0,0,1.093-.6,5,5,0,0,0,.332-2.2,6.71,6.71,0,0,0-.095-1.245,2.119,2.119,0,0,0-.285-.769.97.97,0,0,0-.465-.389,1.784,1.784,0,0,0-.637-.1,5.071,5.071,0,0,0-.608.038,5.291,5.291,0,0,0-.57.094Z"/>
        <path d="M82.86,107.9a14.35,14.35,0,0,1,1.568-.3,12.732,12.732,0,0,1,1.719-.123,8.954,8.954,0,0,1,1.758.162,4.209,4.209,0,0,1,1.406.532,2.709,2.709,0,0,1,.94.969,2.925,2.925,0,0,1,.342,1.472v5.871c-.228.076-.5.159-.826.247a10.7,10.7,0,0,1-1.055.228q-.57.094-1.178.162a11.106,11.106,0,0,1-1.2.066,9.154,9.154,0,0,1-1.663-.142,3.653,3.653,0,0,1-1.329-.5,2.454,2.454,0,0,1-.874-.979,3.4,3.4,0,0,1-.314-1.547,2.715,2.715,0,0,1,.323-1.388,2.566,2.566,0,0,1,.846-.883,3.582,3.582,0,0,1,1.2-.476,6.719,6.719,0,0,1,1.378-.142c.266,0,.525.013.779.038s.5.058.741.095v-.551a.937.937,0,0,0-.352-.874,2.305,2.305,0,0,0-1.13-.209,9.928,9.928,0,0,0-1.51.124q-.809.123-1.435.275Zm4.56,5.13q-.228-.037-.465-.057c-.159-.012-.308-.019-.447-.019a1.734,1.734,0,0,0-.988.257,1.054,1.054,0,0,0-.38.94.948.948,0,0,0,.39.883,1.765,1.765,0,0,0,.94.238,4.851,4.851,0,0,0,.95-.095Z"/>
        <path d="M99.428,109.856q-.57-.114-1.14-.18a11.708,11.708,0,0,0-1.33-.067,3.955,3.955,0,0,0-1.14.115.47.47,0,0,0-.342.493c0,.165.114.313.343.447a8.035,8.035,0,0,0,.849.418q.505.219,1.107.493a6.1,6.1,0,0,1,1.106.656,3.516,3.516,0,0,1,.849.913,2.291,2.291,0,0,1,.344,1.272,2.41,2.41,0,0,1-.344,1.32,2.531,2.531,0,0,1-.924.866,4.461,4.461,0,0,1-1.374.464,9.328,9.328,0,0,1-1.669.143,11.346,11.346,0,0,1-1.94-.143,13.04,13.04,0,0,1-1.349-.294l.247-2.089c.342.075.76.155,1.254.237a8.6,8.6,0,0,0,1.406.123,2.838,2.838,0,0,0,1.079-.133.517.517,0,0,0,.27-.513.583.583,0,0,0-.333-.475,6.927,6.927,0,0,0-.816-.427q-.486-.218-1.064-.485a5.784,5.784,0,0,1-1.064-.627,3.412,3.412,0,0,1-.818-.864,2.143,2.143,0,0,1-.332-1.206,2.637,2.637,0,0,1,.34-1.407,2.363,2.363,0,0,1,.944-.864,4.623,4.623,0,0,1,1.456-.438,13.172,13.172,0,0,1,1.877-.123,12.735,12.735,0,0,1,1.482.077c.431.05.829.107,1.2.171Z"/>
        <path d="M108.13,109.856q-.57-.114-1.14-.18a11.7,11.7,0,0,0-1.33-.067,3.955,3.955,0,0,0-1.14.115.47.47,0,0,0-.342.493c0,.165.114.313.343.447a7.965,7.965,0,0,0,.85.418q.505.219,1.106.493a6.1,6.1,0,0,1,1.106.656,3.52,3.52,0,0,1,.85.913,2.291,2.291,0,0,1,.343,1.272,2.41,2.41,0,0,1-.343,1.32,2.527,2.527,0,0,1-.925.866,4.443,4.443,0,0,1-1.374.464,9.328,9.328,0,0,1-1.669.143,11.346,11.346,0,0,1-1.94-.143,13.04,13.04,0,0,1-1.349-.294l.247-2.089c.342.075.76.155,1.254.237a8.6,8.6,0,0,0,1.406.123,2.834,2.834,0,0,0,1.079-.133.517.517,0,0,0,.27-.513.584.584,0,0,0-.332-.475,7.03,7.03,0,0,0-.817-.427q-.486-.218-1.064-.485a5.817,5.817,0,0,1-1.064-.627,3.429,3.429,0,0,1-.818-.864,2.143,2.143,0,0,1-.332-1.206,2.637,2.637,0,0,1,.34-1.407,2.359,2.359,0,0,1,.945-.864,4.608,4.608,0,0,1,1.455-.438,13.182,13.182,0,0,1,1.877-.123,12.735,12.735,0,0,1,1.482.077q.646.075,1.2.171Z"/>
        <path d="M111.93,107.481a2.211,2.211,0,0,1,1.416.418,1.445,1.445,0,0,1,.522,1.2,1.422,1.422,0,0,1-.522,1.178,2.2,2.2,0,0,1-1.416.418,2.167,2.167,0,0,1-1.4-.418,1.42,1.42,0,0,1-.523-1.178,1.443,1.443,0,0,1,.523-1.2A2.172,2.172,0,0,1,111.93,107.481Zm0,6.46a2.211,2.211,0,0,1,1.416.418,1.446,1.446,0,0,1,.522,1.2,1.421,1.421,0,0,1-.522,1.177,2.2,2.2,0,0,1-1.416.418,2.167,2.167,0,0,1-1.4-.418,1.419,1.419,0,0,1-.523-1.177,1.444,1.444,0,0,1,.523-1.2A2.172,2.172,0,0,1,111.93,113.941Z"/>
        <path d="M132.71,107.207a29.653,29.653,0,0,1-4.252,4.758l-.957-.978a15.463,15.463,0,0,0,3.233-3.281H121.15v-1.258h10.692Zm-5.373.923q0,2.291-.113,3.326a10.194,10.194,0,0,1-.55,2.27,8.565,8.565,0,0,1-1.234,2.293,7.28,7.28,0,0,1-1.972,1.8l-.923-1.08q3.541-2.228,3.541-7.56c0-.483,0-.831-.014-1.046Z"/>
        <path d="M144.249,107.569a13.394,13.394,0,0,1-2.4,5.952,14.536,14.536,0,0,1-4.97,4.282l-.95-1.121a13.142,13.142,0,0,0,4.559-3.466,10.37,10.37,0,0,0,2.345-4.71h-7.759v-1.2l8.791.013Zm1.565-2.6a1.468,1.468,0,0,1,1.06.441,1.409,1.409,0,0,1,.451,1.042,1.431,1.431,0,0,1-.451,1.05,1.458,1.458,0,0,1-1.06.447,1.544,1.544,0,0,1-1.5-1.5,1.415,1.415,0,0,1,.448-1.046A1.456,1.456,0,0,1,145.814,104.965Zm0,2.044a.575.575,0,0,0,.421-.151.546.546,0,0,0,.154-.41.575.575,0,1,0-1.149,0,.546.546,0,0,0,.154.41A.574.574,0,0,0,145.814,107.009Z"/>
        <path d="M152.076,113.209h-1.264v-6.747h1.264Zm6.816-1.524a5.2,5.2,0,0,1-1.48,3.582,9.1,9.1,0,0,1-4.01,2.44l-.711-1.2a8.426,8.426,0,0,0,3.729-2.047,4.661,4.661,0,0,0,1.214-3.34v-4.915h1.258Z"/>
        <path d="M174.546,109.333h-3.938c.01.219.014.376.014.472a9.928,9.928,0,0,1-1.172,4.843,6.341,6.341,0,0,1-3.346,2.984l-.9-1.073a6.069,6.069,0,0,0,3.114-2.567,7.979,7.979,0,0,0,1.042-4.153c0-.105,0-.274-.013-.506h-3.446a11.46,11.46,0,0,1-2.057,2.659l-1.121-.854a10.023,10.023,0,0,0,3.315-5.558l1.292.4a16.322,16.322,0,0,1-.8,2.092h8.012Z"/>
        <path d="M188.669,112.218H176.993v-1.265h11.676Z"/>
        <path d="M195.683,110.775l-.493,1.327a8.945,8.945,0,0,0-4.2-1.415l.451-1.272A15.035,15.035,0,0,1,195.683,110.775Zm6.8-.8a16.018,16.018,0,0,1-10.192,7.533l-.643-1.292a16.144,16.144,0,0,0,5.937-2.56,12.6,12.6,0,0,0,3.811-4.55Zm-5.468-2.728-.452,1.272a10.587,10.587,0,0,0-4.258-1.3l.451-1.306A18.329,18.329,0,0,1,197.016,107.248Z"/>
        <path d="M214.543,115.841h-1.176V115.4H206.7v-1.162h6.665v-2.071h-6.234V111h6.234v-1.839h-6.4V108h7.574Z"/>
        <path d="M224.072,108.451l-.752,1.094a9.652,9.652,0,0,0-3.992-1.989l.773-1.149A15.173,15.173,0,0,1,224.072,108.451Zm6.3,1.429a18.529,18.529,0,0,1-4.785,5.134,18.872,18.872,0,0,1-5.366,2.413l-.8-1.265a14.626,14.626,0,0,0,6.009-2.577,16.212,16.212,0,0,0,3.937-4.614Z"/>
        <path d="M236.534,117.085l-1.217,1.08a6.794,6.794,0,0,0-2.167-2.871l.78-.67A8.655,8.655,0,0,1,236.534,117.085Z"/>
        <path d="M258.669,110.188h-2.741v2.3a5.178,5.178,0,0,1-1.063,3.077,6.525,6.525,0,0,1-3,2.228l-.8-1.244a4.862,4.862,0,0,0,2.646-1.582,3.8,3.8,0,0,0,.95-2.451v-2.324h-3.65v3.021h-1.265v-3.021h-2.741v-1.265h2.741v-2.994h1.265v2.994h3.65v-2.994h1.265v2.994h2.741Z"/>
        <path d="M272.669,112.218H260.993v-1.265h11.676Z"/>
        <path d="M285.958,115.629l-.2,1.4h-8.484a1.2,1.2,0,0,1-1-.437,1.823,1.823,0,0,1-.348-1.169v-9.242h1.264v4.395a18.14,18.14,0,0,0,6.365-2.085l.745,1.135a23.575,23.575,0,0,1-7.11,2.269v3.542a.387.387,0,0,0,.284.345q.072,0,1.282,0Q283.832,115.786,285.958,115.629Zm-.663-7.4-.964.4a6.8,6.8,0,0,0-.67-1.873l1.019-.417A7.423,7.423,0,0,1,285.3,108.226Zm1.559-.561-.971.41a6.567,6.567,0,0,0-.67-1.88l1.025-.417A7.751,7.751,0,0,1,286.854,107.665Z"/>
        <path d="M301.161,116.654l-1.094.8a16.659,16.659,0,0,0-4.73-4.423,19.87,19.87,0,0,1-5.38,4.656l-.978-1a16.533,16.533,0,0,0,4.659-3.63,16.9,16.9,0,0,0,3.141-5.066h-7.013v-1.2l8.2-.013.376.389a16.367,16.367,0,0,1-2.27,4.861A20.184,20.184,0,0,1,301.161,116.654Z"/>
        <path d="M306.924,113.558a21.817,21.817,0,0,0-1.217,3.513h-.923a11.124,11.124,0,0,1-1.121-5.236,24.613,24.613,0,0,1,.773-5.776l1.36.43a17.706,17.706,0,0,0-.9,5.394,11.242,11.242,0,0,0,.274,2.782h.034a10.094,10.094,0,0,1,.629-1.442Zm7.157,1.6-.308,1.415q-1.962.151-3.192.151a7.558,7.558,0,0,1-2.762-.335,1.473,1.473,0,0,1-.724-1.5,5.239,5.239,0,0,1,.157-1.231l1.312.28a3.463,3.463,0,0,0-.225.951.474.474,0,0,0,.349.468,5.222,5.222,0,0,0,1.5.133Q311.115,115.492,314.081,115.157Zm-.841-7.868-.164,1.3a14.534,14.534,0,0,0-2.468-.164,18.465,18.465,0,0,0-2.98.28l-.157-1.319q2.056-.212,3.11-.212A21.994,21.994,0,0,1,313.24,107.289Z"/>
        <path d="M328.71,107.207a29.653,29.653,0,0,1-4.252,4.758l-.957-.978a15.463,15.463,0,0,0,3.233-3.281H317.15v-1.258h10.692Zm-5.373.923q0,2.291-.113,3.326a10.194,10.194,0,0,1-.55,2.27,8.565,8.565,0,0,1-1.234,2.293,7.28,7.28,0,0,1-1.972,1.8l-.923-1.08q3.541-2.228,3.541-7.56c0-.483,0-.831-.014-1.046Z"/>
        <path d="M341.828,108.171a11.676,11.676,0,0,1-7.813,9.475l-.869-1.135a12.045,12.045,0,0,0,4.878-2.994,10.078,10.078,0,0,0,2.389-4.758h-5.12a14.114,14.114,0,0,1-2.816,3.151l-.964-1.012a10.024,10.024,0,0,0,2.423-2.395,11.083,11.083,0,0,0,1.61-2.95l1.258.492a14.694,14.694,0,0,1-.732,1.456h5.045Z"/>
        <path d="M356.6,115.69l-.158,1.34h-6.856a1.123,1.123,0,0,1-.872-.385,1.4,1.4,0,0,1-.345-.968v-4.82l-3.192.294-.13-1.271,3.322-.308v-3.616h1.258v3.486l5.626-.533.936.6a49.781,49.781,0,0,1-2.884,4.368l-1.19-.643a23.861,23.861,0,0,0,2.188-2.994l-4.676.506v4.6c0,.292.153.437.458.437Q354.612,115.786,356.6,115.69Z"/>
        <path d="M371.161,116.654l-1.094.8a16.659,16.659,0,0,0-4.73-4.423,19.87,19.87,0,0,1-5.38,4.656l-.978-1a16.533,16.533,0,0,0,4.659-3.63,16.9,16.9,0,0,0,3.141-5.066h-7.013v-1.2l8.2-.013.376.389a16.367,16.367,0,0,1-2.27,4.861A20.184,20.184,0,0,1,371.161,116.654Z"/>
        <path d="M383.828,112.847a9.493,9.493,0,0,1-2.608,3.2,5.213,5.213,0,0,1-3.189,1.165,3.335,3.335,0,0,1-2.392-.861,2.718,2.718,0,0,1-.91-2.038V106.2h1.231v7.363q0,2.441,2.112,2.44a4.09,4.09,0,0,0,2.331-.878,7.3,7.3,0,0,0,2.195-2.889Z"/>
        <path d="M397.814,108.116q-.915.076-1.452.164a3.98,3.98,0,0,0-1.374.626,7.711,7.711,0,0,0-1.511,1.268,6.313,6.313,0,0,0-1.022,1.432,2.9,2.9,0,0,0-.349,1.268,2.474,2.474,0,0,0,1.169,2,7.145,7.145,0,0,0,3.165,1.179l-.656,1.258a8.058,8.058,0,0,1-3.572-1.692,3.526,3.526,0,0,1-1.357-2.7,4.289,4.289,0,0,1,.7-2.263,6.861,6.861,0,0,1,1.9-1.989l-.027-.034q-3.808.281-6.009.28l-.335-1.442q1.005.048,1.962.048a75.9,75.9,0,0,0,8.627-.636Z"/>
        <path d="M404.534,117.085l-1.217,1.08a6.794,6.794,0,0,0-2.167-2.871l.78-.67A8.655,8.655,0,0,1,404.534,117.085Z"/>
        <path d="M98.121,127.127v2.033l-3.268,3.1a6.883,6.883,0,0,1,1.434.323,3.328,3.328,0,0,1,1.121.637,2.844,2.844,0,0,1,.732,1.025,3.769,3.769,0,0,1,.266,1.492,4.628,4.628,0,0,1-.362,1.919,3.578,3.578,0,0,1-1.016,1.33,4.166,4.166,0,0,1-1.6.779,8.252,8.252,0,0,1-2.1.247,14.933,14.933,0,0,1-2.195-.143,11.8,11.8,0,0,1-1.757-.389l.265-2.28q.8.21,1.644.361a9.842,9.842,0,0,0,1.739.152,2.618,2.618,0,0,0,1.491-.39,1.6,1.6,0,0,0,.58-1.434,1.431,1.431,0,0,0-.551-1.282,2.771,2.771,0,0,0-1.558-.371H91.414v-1.881l2.963-2.983H89.818v-2.242Z"/>
        <path d="M106.158,127.127a7.875,7.875,0,0,1,2.479.361,4.66,4.66,0,0,1,1.843,1.1,4.835,4.835,0,0,1,1.15,1.9,8.489,8.489,0,0,1,.4,2.755,12.181,12.181,0,0,1-.276,2.66,5.249,5.249,0,0,1-1,2.147,4.789,4.789,0,0,1-2,1.434,8.817,8.817,0,0,1-3.3.523,18.1,18.1,0,0,1-1.957-.114q-1.046-.114-2.28-.361V127.127Zm-1.672,10.507c.2.025.389.045.56.057s.345.019.523.019a3.564,3.564,0,0,0,1.529-.285,2.229,2.229,0,0,0,.95-.846,3.671,3.671,0,0,0,.485-1.377,12.039,12.039,0,0,0,.133-1.9,8.963,8.963,0,0,0-.162-1.853,3.384,3.384,0,0,0-.484-1.216,1.841,1.841,0,0,0-.789-.665,2.72,2.72,0,0,0-1.073-.2h-1.672Z"/>
        <path d="M118.223,139.762a4.453,4.453,0,0,1-2.68-.712,2.653,2.653,0,0,1-.968-2.29v-9.633h7.581v1.5h-5.587v3.914H121.6v1.5h-5.035v2.736a1.313,1.313,0,0,0,.466,1.159,2.185,2.185,0,0,0,1.263.323h4.1v1.5Z"/>
        <path d="M123.656,139.762l4.37-6.4-4.123-6.232h2.3l3.058,4.693,3.193-4.693h2.128l-4.275,6.175,4.332,6.46H132.3l-3.23-4.94-3.3,4.94Z"/>
        <path d="M136.747,139.762V127.127h4.085a9.816,9.816,0,0,1,2.1.2,3.729,3.729,0,0,1,1.51.675,2.9,2.9,0,0,1,.912,1.235,5.142,5.142,0,0,1,.3,1.9,5.045,5.045,0,0,1-.323,1.91,3.054,3.054,0,0,1-.94,1.272,3.9,3.9,0,0,1-1.482.7,7.953,7.953,0,0,1-1.948.219,13.14,13.14,0,0,1-2.223-.209v4.731Zm1.995-6.232a11.54,11.54,0,0,0,2.014.19,3.119,3.119,0,0,0,2.242-.646,2.63,2.63,0,0,0,.646-1.938,3.844,3.844,0,0,0-.162-1.206,1.646,1.646,0,0,0-.5-.77,2.087,2.087,0,0,0-.874-.409,5.724,5.724,0,0,0-1.273-.123h-2.09Z"/>
        <path d="M152.194,139.762a4.45,4.45,0,0,1-2.679-.712,2.653,2.653,0,0,1-.969-2.29v-9.633h7.581v1.5h-5.586v3.914h5.035v1.5h-5.035v2.736a1.311,1.311,0,0,0,.466,1.159,2.183,2.183,0,0,0,1.263.323h4.1v1.5Z"/>
        <path d="M159.452,139.762V127.127h4.085a10.265,10.265,0,0,1,2.1.19,3.771,3.771,0,0,1,1.51.646,2.777,2.777,0,0,1,.912,1.207,5,5,0,0,1,.3,1.871,4.1,4.1,0,0,1-.19,1.32,3.093,3.093,0,0,1-.513.96,2.871,2.871,0,0,1-.769.665,4.758,4.758,0,0,1-.979.437,2.281,2.281,0,0,1,1.083.8,5.974,5.974,0,0,1,.7,1.425l1.121,3.116h-2.071l-.988-2.679a8,8,0,0,0-.361-.826,2.72,2.72,0,0,0-.456-.647,1.832,1.832,0,0,0-.646-.427,2.462,2.462,0,0,0-.912-.152c-.3,0-.617-.01-.94-.028a8.364,8.364,0,0,1-1-.124v4.883Zm2-6.384c.367.063.719.107,1.054.133s.656.038.96.038a3.251,3.251,0,0,0,2.242-.608,2.5,2.5,0,0,0,.646-1.9,3.7,3.7,0,0,0-.161-1.187,1.6,1.6,0,0,0-.5-.742,1.985,1.985,0,0,0-.874-.38,6.756,6.756,0,0,0-1.273-.1h-2.09Z"/>
        <path d="M171.631,139.762V127.127h2v12.635Z"/>
        <path d="M181.036,139.762a4.453,4.453,0,0,1-2.68-.712,2.653,2.653,0,0,1-.968-2.29v-9.633h7.581v1.5h-5.587v3.914h5.035v1.5h-5.035v2.736a1.313,1.313,0,0,0,.466,1.159,2.185,2.185,0,0,0,1.263.323h4.1v1.5Z"/>
        <path d="M188.293,139.762V127.127h1.6l6.9,7.391v-7.391h1.938v12.635h-1.938v-2.85l-6.575-6.954v9.8Z"/>
        <path d="M210.713,139.572a10.264,10.264,0,0,1-1.634.3,15.567,15.567,0,0,1-1.672.095,7.98,7.98,0,0,1-2.356-.323,4.107,4.107,0,0,1-1.777-1.083,4.905,4.905,0,0,1-1.111-2.014,12.966,12.966,0,0,1,0-6.232,4.836,4.836,0,0,1,1.111-2,4.069,4.069,0,0,1,1.8-1.064,8.535,8.535,0,0,1,2.413-.313,14.7,14.7,0,0,1,1.653.095q.836.1,1.52.228l-.228,1.52a14.035,14.035,0,0,0-1.491-.247,13.68,13.68,0,0,0-1.549-.095,4.55,4.55,0,0,0-1.548.238,2.374,2.374,0,0,0-1.093.807,3.922,3.922,0,0,0-.655,1.53,11.033,11.033,0,0,0-.219,2.4,11.206,11.206,0,0,0,.228,2.48,3.944,3.944,0,0,0,.675,1.548,2.353,2.353,0,0,0,1.12.8,4.9,4.9,0,0,0,1.568.228,10.573,10.573,0,0,0,1.549-.123q.825-.123,1.548-.276Z"/>
        <path d="M217.1,139.762a4.45,4.45,0,0,1-2.679-.712,2.653,2.653,0,0,1-.969-2.29v-9.633h7.581v1.5h-5.586v3.914h5.035v1.5h-5.035v2.736a1.311,1.311,0,0,0,.466,1.159,2.183,2.183,0,0,0,1.263.323h4.1v1.5Z"/>
        <path d="M231.941,132.8l-1.1.813a20.044,20.044,0,0,0-2.72-3.821l1.093-.773Q230.5,130.663,231.941,132.8Zm6.118-3.794a15.31,15.31,0,0,1-2.122,7.708,8.98,8.98,0,0,1-5.828,3.756l-.7-1.272a9.8,9.8,0,0,0,3.817-1.47,6.994,6.994,0,0,0,2.554-3.4,12.26,12.26,0,0,0,.909-4.5c0-.465-.009-.79-.027-.977Z"/>
        <path d="M244.533,136.009h-1.265v-6.747h1.265Zm6.815-1.525a5.191,5.191,0,0,1-1.48,3.582,9.1,9.1,0,0,1-4.009,2.441l-.711-1.2a8.432,8.432,0,0,0,3.729-2.047,4.66,4.66,0,0,0,1.213-3.34v-4.915h1.258Z"/>
        <path d="M265.5,138.463H256.81v-1.149h5.161l.7-5.311h-4.73v-1.149h5.947v.869l-.745,5.591H265.5Z"/>
        <path d="M281.125,135.018H269.45v-1.265h11.675Z"/>
        <path d="M288.139,133.575l-.492,1.326a8.964,8.964,0,0,0-4.2-1.415l.451-1.271A15.017,15.017,0,0,1,288.139,133.575Zm6.8-.8a16.021,16.021,0,0,1-10.192,7.534l-.643-1.292a16.176,16.176,0,0,0,5.937-2.56,12.609,12.609,0,0,0,3.811-4.55Zm-5.469-2.727-.451,1.271a10.6,10.6,0,0,0-4.259-1.3l.451-1.306A18.3,18.3,0,0,1,289.472,130.048Z"/>
        <path d="M307,138.641h-1.176V138.2h-6.665v-1.162h6.665v-2.071h-6.235V133.8h6.235v-1.839h-6.4V130.8H307Z"/>
        <path d="M316.529,131.251l-.752,1.094a9.66,9.66,0,0,0-3.992-1.99l.772-1.148A15.2,15.2,0,0,1,316.529,131.251Zm6.3,1.429a18.5,18.5,0,0,1-4.786,5.133,18.862,18.862,0,0,1-5.366,2.414l-.8-1.265a14.627,14.627,0,0,0,6.009-2.577,16.214,16.214,0,0,0,3.938-4.614Z"/>
        <path d="M333.3,134.2a17.587,17.587,0,0,1-3,4.5l-1.148-.834a10.38,10.38,0,0,0,2.953-4.286Zm7.472-1.483h-4.9v6.508a1.027,1.027,0,0,1-.411.831,1.659,1.659,0,0,1-1.073.331q-.321,0-1.073-.028l-.383-1.387a11.214,11.214,0,0,0,1.36.129q.322,0,.322-.307v-6.077H329.5v-1.258h5.12V128.77h1.258v2.693h4.9Zm.184,5.332-1.216.683a18.245,18.245,0,0,0-2.974-4.409l1.2-.7A23.556,23.556,0,0,1,340.96,138.053ZM339.4,127.874a1.474,1.474,0,0,1,1.066.441,1.409,1.409,0,0,1,.451,1.042,1.427,1.427,0,0,1-.454,1.05,1.468,1.468,0,0,1-1.063.447,1.542,1.542,0,0,1-1.5-1.5,1.414,1.414,0,0,1,.448-1.042A1.446,1.446,0,0,1,339.4,127.874Zm0,2.044a.574.574,0,0,0,.42-.15.546.546,0,0,0,.154-.411.573.573,0,0,0-.154-.417.632.632,0,0,0-.834,0,.577.577,0,0,0-.154.417.548.548,0,0,0,.154.414A.576.576,0,0,0,339.4,129.918Z"/>
        <path d="M355.015,135.018H343.339v-1.265h11.676Z"/>
        <path d="M368.079,136.234l-.937,1a16.631,16.631,0,0,0-5.633-3.595v6.76h-1.258V128.742h1.258V133l.561-.547A18.494,18.494,0,0,1,368.079,136.234Z"/>
        <path d="M382.147,129.973a17.489,17.489,0,0,1-2.806,6.231,16,16,0,0,1-5.008,4.371l-.909-1.148a13.962,13.962,0,0,0,4.621-3.6,12.672,12.672,0,0,0,2.564-5.059H372.29v-1.257h9.44Z"/>
        <path d="M395.682,133.179h-2.3v4.5a1.074,1.074,0,0,1-.434.892,1.53,1.53,0,0,1-.967.338h-1.012l-.335-1.244q1.053.082,1.292.082c.2,0,.294-.111.294-.335v-3.684a7.923,7.923,0,0,1-1.63,2.1,16.934,16.934,0,0,1-2.991,2.119l-.841-1.025a10.9,10.9,0,0,0,4.56-3.739h-4.252v-1.162h5.154V130.2h1.162v1.819h2.3Z"/>
        <path d="M402.422,136.009h-1.264v-6.747h1.264Zm6.816-1.525a5.191,5.191,0,0,1-1.48,3.582,9.1,9.1,0,0,1-4.009,2.441l-.711-1.2a8.432,8.432,0,0,0,3.729-2.047,4.66,4.66,0,0,0,1.213-3.34v-4.915h1.258Z"/>
        <path d="M425.507,132.427h-3.281v6.467a1.4,1.4,0,0,1-.485,1.039,1.688,1.688,0,0,1-1.2.458q-.432,0-1.4-.041l-.348-1.333q1.291.089,1.763.088a.371.371,0,0,0,.294-.146.506.506,0,0,0,.123-.332v-5.756h-.027a14.5,14.5,0,0,1-2.673,3.313,21.284,21.284,0,0,1-3.951,2.723l-.793-1.148a15.58,15.58,0,0,0,3.35-2.1,13.8,13.8,0,0,0,2.932-3.233h-5.961v-1.258h7.123v-2.427h1.258v2.427h3.281Z"/>
        <path d="M438.12,139.933q-1.86.163-3.432.164a6.854,6.854,0,0,1-3.4-.581,1.9,1.9,0,0,1-.9-1.7,2.711,2.711,0,0,1,.872-1.852,8.515,8.515,0,0,1,2.464-1.689q-.219-.752-1.271-.751a2.921,2.921,0,0,0-.91.154,2.347,2.347,0,0,0-.758.386,24.422,24.422,0,0,1-1.894,2.413l-1.1-.882a7.241,7.241,0,0,0,.912-.862,9.238,9.238,0,0,0,.738-.939q.326-.476.646-1.043l.643-1.148c-.105.009-.292.013-.561.013q-.621,0-1.75-.054V130.2a14.977,14.977,0,0,0,1.956.13c.246,0,.578-.009,1-.027a7.533,7.533,0,0,0,.669-1.812l1.333.383q-.375.972-.56,1.34a31.071,31.071,0,0,0,4.156-.444l.082,1.3q-1.8.22-4.853.424a9.2,9.2,0,0,1-.588,1.114,5.316,5.316,0,0,1,1.2-.191,2.514,2.514,0,0,1,1.4.394,1.629,1.629,0,0,1,.752.905q.622-.292,2.632-1.087l.506,1.285q-1.908.705-3.008,1.162v2.577h-1.319v-1.961a5.2,5.2,0,0,0-1.538,1.029,1.7,1.7,0,0,0-.588,1.172.727.727,0,0,0,.547.7,6.637,6.637,0,0,0,2.071.212A28.674,28.674,0,0,0,438,138.5Z"/>
        <path d="M451.682,139.386q-3.05.24-5.052.239a10.384,10.384,0,0,1-3.657-.475,1.688,1.688,0,0,1-1.169-1.671,5.568,5.568,0,0,1,1.326-2.8l1.217.683a3.082,3.082,0,0,0-1.312,2.1q0,.486.823.69a12.937,12.937,0,0,0,2.772.205,41.2,41.2,0,0,0,4.7-.389Zm-2.6-9.174-.116,1.347a21.536,21.536,0,0,0-4.812-.52l-1.374.027.1-1.285.841-.013A32.354,32.354,0,0,1,449.084,130.212Zm1.7.7-.964.4a6.779,6.779,0,0,0-.67-1.873l1.018-.424A7.414,7.414,0,0,1,450.787,130.916Zm1.558-.561-.97.4a6.478,6.478,0,0,0-.67-1.873l1.025-.424A7.791,7.791,0,0,1,452.345,130.355Z"/>
        <path d="M467.48,139.844H461.7v.882h-1.012v-6.4c-.082.087-.219.24-.41.462a3.97,3.97,0,0,1-.417.434l-.629-.616v4.833h-1v-.922h-1.135v.922h-1v-4.805h-.02l-.629.854-.779-.752a8.258,8.258,0,0,0,2.071-4.552h-1.613v-1.019h4.354v1.019h-1.654a11.947,11.947,0,0,1-.779,2.816h2.194v1.285a8.514,8.514,0,0,0,2.591-3.944h-1.073v1.606H459.68v-2.577h2.393a7.248,7.248,0,0,0,.253-1.408l1.107.205a9.693,9.693,0,0,1-.266,1.2h3.848v2.536h-1.066v-1.565h-3.035a12.728,12.728,0,0,1-.841,1.989h1.668a6.043,6.043,0,0,0,.43-1.49l.971.328a6.854,6.854,0,0,1-.308,1.162h2.407v.964h-2.482v1.217h2.072v.964h-2.072V136.6h2.119v.964h-2.119v1.319h2.721Zm-9.256-2.3V134.02h-1.135v3.527Zm5.53-3.035v-1.217H461.7v1.217Zm0,2.085v-1.121H461.7V136.6Zm0,2.283v-1.319H461.7v1.319Z"/>
        <path d="M474,131.224h-5.079V130.2H474Zm-.587-1.826h-4.088V128.38h4.088Zm0,3.617h-4.088v-1.026h4.088Zm0,1.845h-4.088v-1.018h4.088Zm1.9,1.484a6.594,6.594,0,0,1-1.408,3.028l-.732-.437v1.5h-1V139.5h-1.654v.937h-1.039V135.8h3.7v2.8h.028a6.969,6.969,0,0,0,1.175-2.578Zm-3.145,2.133v-1.655h-1.654v1.655Zm8.805-9.817q-.083,1.751-.287,3.3a8.093,8.093,0,0,1-.4,1.945,1.308,1.308,0,0,1-.5.575,1.562,1.562,0,0,1-.782.173,5.735,5.735,0,0,1-1.245-.177l-.129-1.149a4.1,4.1,0,0,0,1.3.315c.274,0,.469-.193.585-.577a22.16,22.16,0,0,0,.331-3.381h-2.351a11.273,11.273,0,0,1-.335,1.921,6.39,6.39,0,0,1,.977.772l-.656.82a5.462,5.462,0,0,0-.718-.615,5.511,5.511,0,0,1-2.618,2.365l-.7-.752a5.191,5.191,0,0,0,2.461-2.173,8.139,8.139,0,0,0-1.511-.739l.629-.8a8.181,8.181,0,0,1,1.237.574,6.839,6.839,0,0,0,.192-1.374h-2.236V128.66Zm-1,9.591q-.308,2.044-1.271,2.044h-1.887a1.131,1.131,0,0,1-.824-.29,1.055,1.055,0,0,1-.3-.79v-3.124h1.032v2.857a.294.294,0,0,0,.109.226.34.34,0,0,0,.226.1h1.319a.448.448,0,0,0,.356-.171.543.543,0,0,0,.15-.287l.069-1.026Zm-1.162-1.36a5.921,5.921,0,0,1-.937.492,5.6,5.6,0,0,0-1.5-2.311l.855-.437A5.448,5.448,0,0,1,478.814,136.891Zm2.857,1.777-.909.588a6.818,6.818,0,0,0-1.593-2.769l.9-.492A7.573,7.573,0,0,1,481.671,138.668Z"/>
        <path d="M492.9,138.921l-.9,1.148a27.233,27.233,0,0,0-3.325-2.5,37.634,37.634,0,0,0-3.75-2.146,1.455,1.455,0,0,1-.523-.438.923.923,0,0,1-.2-.553,1.008,1.008,0,0,1,.181-.557,1.416,1.416,0,0,1,.488-.455q2.365-1.359,3.835-2.32a33.614,33.614,0,0,0,2.974-2.2l.834,1.108q-.888.655-1.723,1.234t-1.627,1.09q-.792.513-1.579.991l-1.565.937c-.141.087-.212.148-.212.184,0,.055.089.123.267.2a35.6,35.6,0,0,1,3.616,1.983A27.047,27.047,0,0,1,492.9,138.921Z"/>
        <path d="M504.168,131.7a20.652,20.652,0,0,1-2.686.342,29.2,29.2,0,0,1-2.741,7.629l-1.32-.615q1.382-1.531,2.776-6.932-1.032.069-1.948.069l-.226-1.375a23.4,23.4,0,0,0,2.44.089q.226-1.161.349-2.3l1.3.281a12.438,12.438,0,0,1-.321,1.914q1-.1,2.214-.349Zm3.924,8.2q-1.709.09-2.645.089a17.032,17.032,0,0,1-2.02-.1,9.822,9.822,0,0,1-1.227-.208,1.172,1.172,0,0,1-.65-.469,1.245,1.245,0,0,1-.259-.731,5.765,5.765,0,0,1,.7-2.352l1.36.308a3.812,3.812,0,0,0-.827,1.661.41.41,0,0,0,.154.345,2.259,2.259,0,0,0,.844.219,11.337,11.337,0,0,0,1.593.1,27.519,27.519,0,0,0,2.98-.226Zm-.307-7.376-.335,1.306a7.753,7.753,0,0,0-2.659-.437,7.107,7.107,0,0,0-1.627.157l.294-1.319c.464-.045.909-.069,1.333-.069A14.021,14.021,0,0,1,507.785,132.522Zm-.493-1.606-.963.4a6.61,6.61,0,0,0-.677-1.873l1.025-.424A7.376,7.376,0,0,1,507.292,130.916Zm1.552-.561-.964.4a6.691,6.691,0,0,0-.67-1.873l1.019-.424A7.381,7.381,0,0,1,508.844,130.355Z"/>
        <path d="M521.573,131.757q-1.893.513-3.261.779a22.606,22.606,0,0,0,1.914,2.789l-.848.643a8.214,8.214,0,0,0-2.6-.451,5,5,0,0,0-2.225.417,1.276,1.276,0,0,0-.831,1.155,1.548,1.548,0,0,0,.851,1.306,4.232,4.232,0,0,0,2.287.54,8.988,8.988,0,0,0,3.486-.725l.52,1.217a9.81,9.81,0,0,1-3.938.765,5.564,5.564,0,0,1-3.26-.864,2.64,2.64,0,0,1-1.231-2.253,2.23,2.23,0,0,1,.55-1.5,3.477,3.477,0,0,1,1.566-.984,6.849,6.849,0,0,1,2.225-.346,5.424,5.424,0,0,1,1.23.13,16.572,16.572,0,0,1-1.011-1.559,35.169,35.169,0,0,1-5.107.629l-.335-1.34c.174.01.442.014.807.014a20.005,20.005,0,0,0,4.019-.465,25.746,25.746,0,0,1-1.148-2.515l1.333-.424a18.073,18.073,0,0,0,1.162,2.673,26.683,26.683,0,0,0,3.5-.909Z"/>
        <path d="M532.538,136.4a12.929,12.929,0,0,1-1.6,2.916,1.939,1.939,0,0,1-1.412.865q-1.291,0-2.311-2.4a13.637,13.637,0,0,1-1.018-5.38,25.671,25.671,0,0,1,.2-3.274l1.354.308a12.458,12.458,0,0,0-.335,3.089,13.3,13.3,0,0,0,.348,3.067,9.167,9.167,0,0,0,.851,2.361q.5.89.845.889c.25,0,.539-.287.864-.861a11.457,11.457,0,0,0,.913-2.236Zm3.9.185-1.347.239a14.885,14.885,0,0,0-2.221-6.733l1.244-.506A19.182,19.182,0,0,1,536.441,136.583Z"/>
      </g>
      <g>
        <g>
          <path d="M202.478,247.578c.087.256.276.112.258-.6l-.318-.509Z" fill="#202020"/>
          <path d="M203.25,242.829c-.1-.836-.305-1.82-.649-1.3.254.85.106,1.042.417,1.949.01.709-.14,1.232-.262,1.108.079.253-.1,1.1.1,1.488a8.917,8.917,0,0,0,.18-3.307C203.126,242.508,203.193,242.766,203.25,242.829Z" fill="#202020"/>
          <path d="M235.969,184.866l-.384.225A3.351,3.351,0,0,0,235.969,184.866Z" fill="#202020"/>
          <path d="M275.5,170.964c-.321.033-.454.075-.468.107C275.325,171.026,275.57,170.987,275.5,170.964Z" fill="#202020"/>
          <path d="M282.721,171.2l-.424-.033A1.124,1.124,0,0,0,282.721,171.2Z" fill="#202020"/>
          <path d="M235.969,184.866l.984-.572C236.956,184.159,236.433,184.565,235.969,184.866Z" fill="#202020"/>
          <path d="M203.626,233.24a4.171,4.171,0,0,0-.024.632l.069-.586A.245.245,0,0,1,203.626,233.24Z" fill="#202020"/>
          <path d="M222.376,197.647l-.225.26a1.965,1.965,0,0,0-.084.3Z" fill="#202020"/>
          <path d="M214.151,209.346c.172-.275-.014-.514-.058-.685a1.567,1.567,0,0,1-.187.712C213.95,209.4,214.027,209.4,214.151,209.346Z" fill="#202020"/>
          <path d="M205.4,230.285l-.053.4Z" fill="#202020"/>
          <path d="M229.588,190.372a.282.282,0,0,0,.165-.01C229.73,190.335,229.669,190.344,229.588,190.372Z" fill="#202020"/>
          <path d="M203.666,264.5c.022.007.03-.012.048-.012C203.667,264.408,203.642,264.386,203.666,264.5Z" fill="#202020"/>
          <path d="M203.216,247.578l.021.232a.39.39,0,0,0,.159.05Z" fill="#202020"/>
          <path d="M295.737,173.015l-.056-.016C295.335,172.97,295.528,173,295.737,173.015Z" fill="#202020"/>
          <path d="M355.145,263.721c.555-1.286-.188,2.249.55.291C355.545,264.173,355.689,262.091,355.145,263.721Z" fill="#202020"/>
          <path d="M203.729,232.873l.1-.59A5.907,5.907,0,0,0,203.729,232.873Z" fill="#202020"/>
          <path d="M355.7,264.012h0l.074-.2Z" fill="#202020"/>
          <path d="M323.5,184.557a1.023,1.023,0,0,0-.183-.281C323.313,184.306,323.35,184.376,323.5,184.557Z" fill="#202020"/>
          <path d="M303.374,174.377l.521.216A5.5,5.5,0,0,0,303.374,174.377Z" fill="#202020"/>
          <path d="M332.908,191.6a3.631,3.631,0,0,0,.582.587.868.868,0,0,0-.068-.113A1.8,1.8,0,0,1,332.908,191.6Z" fill="#202020"/>
          <path d="M341.163,200.649a1.892,1.892,0,0,0-.1-.212l-.252-.3Z" fill="#202020"/>
          <path d="M220.606,298.392a2,2,0,0,1-.187-.6C220.393,298.066,219.128,296.713,220.606,298.392Z" fill="#202020"/>
          <path d="M203.783,233.262a.565.565,0,0,1-.054-.389l-.058.413C203.705,233.33,203.743,233.345,203.783,233.262Z" fill="#202020"/>
          <path d="M334.794,190.331l1.421,1.413C335.829,191.339,335.312,190.825,334.794,190.331Z" fill="#202020"/>
          <path d="M302.311,323.1l-.432.158A1.624,1.624,0,0,0,302.311,323.1Z" fill="#202020"/>
          <path d="M340.284,196.081a6.565,6.565,0,0,0,.59.978,1.062,1.062,0,0,0,.208.129Z" fill="#202020"/>
          <path d="M212.315,287.39c.949,1.664.759.593,1.142.834,1.309,1.858.335,1.029.593,1.784.426.574.857,1.043,1.25,1.48a10.278,10.278,0,0,1,1.09,1.249c0,.1.1.28-.1.127,1.071,1.076,2.669,3.572,4.055,4.691a.589.589,0,0,1,.079.23c-.043-.331.074-.484.215-.526.559.636,1.2,1.034,1.229,1.432a1.6,1.6,0,0,0-.652-.5l.66.6c.262.833-.884-.837-1.08-.671.612.62,1.3,1.265,1.938,1.886a17.631,17.631,0,0,1,1.7,1.681c-.052.438-2.228-2.172-1.224-.68-.451-.52-.876-1.062-1.287-1.615.632,1.549-.8-.974-.274.5a17.18,17.18,0,0,0,1.99,2.1c.566.513,1.088,1.064,2.052,2.024.574.286.048-.339.621-.054a8.793,8.793,0,0,1,2.266,2.427,4.481,4.481,0,0,0,1.827,1.793,4.834,4.834,0,0,1,2.647,1.546l-.775-.121c2.05,1.664,1.521.474,3.6,2.293-.485-.159-1.758-1.094-1.461-.826,1.28,1.282,1.157.555,2.271,1.347l.045.441a82.214,82.214,0,0,0,7.919,4.256c-.2.011-.722-.137-.123.286l5.541,2.6c1.905.817,3.777,1.687,5.555,2.352l1.46.184c.317.11.56.3.191.26,1.387.51.128-.157.843-.074.809.209,1.017.464.481.4,2.555.579,7.294,1.244,9.938,2l-.539-.008c2.093.452,2.461-.275,4.377.259H272c4.583.646,9.679.393,13.217.636.638-.46,4.585-.16,4.808-.84a27.559,27.559,0,0,0,5.624-.273c.99-.135,1.379-.661,2.56-.989l.1.294,1.548-.689c.319.058.633.093.95.13l1.089-.391c-.447.108-.975.133-.931.028a17.321,17.321,0,0,1,2.781-.712,5.123,5.123,0,0,1,1.571-.206c1.323-.532,2.64-1.066,3.919-1.693-.043.15-.691.452-1.19.733,2.006-1.129.5.151,2.342-.884-.287.038.071-.226.091-.3a11.107,11.107,0,0,0,2.181-.777,27.323,27.323,0,0,0,2.562-1.238l-.206.344a73.571,73.571,0,0,0,8.836-5.152c-1.127.6-1.077.135-.226-.452l.529.047c.453-.529-.979.482.041-.464,1.1-.72.937-.2.375.325l1.25-1.025c.133.025-.145.286-.155.444.415-.553,2.485-1.331,3-2.233l.131.02,1.842-1.468c.532-.449.988-.881,1.438-1.285.9-.809,1.731-1.57,2.759-2.591-.153-.243.708-.977,1.169-1.731l2.444-2.294c.844-.816,1.665-1.732,2.5-2.7,1.041-1.47.151-.556.528-1.288.28.059,1.838-1.963,1.165-.809.95-1.207,1.494-2.024,2.092-2.925l.974-1.49,1.2-2.1c-.315.3-.608.669-.549.416.342-.611.951-1.284,1-1.136l-.078.17c.972-1.95,2.378-4.024,3.592-6.106a31,31,0,0,0,1.653-3.054c.236-.493.451-.972.637-1.434a12.686,12.686,0,0,0,.4-1.351l-.047.19c.339-1.157.744-2.285,1.014-3.458.572-1.55-.137,1,.4-.1.211-.956.442-1.793.682-2.563.2-.78.419-1.493.632-2.184a23.342,23.342,0,0,0,1.013-4.285,7.806,7.806,0,0,0,.8-2.357,31.493,31.493,0,0,0,.541-3.23c.125-1.148.253-2.322.373-3.418a22.571,22.571,0,0,1,.389-2.941l-.192.182c-.11-.872.189-1.036.24-1.674-.141.085-.184.93-.267.389.026-3.657.066-7.424-.187-11.221a74.223,74.223,0,0,0-1.531-11.294c-.6-2.7-1.284-1.272-1.8-4.716l.585.849c-1.943-5.191-3.8-10.718-6.744-15.308.226.244.327.2.565.673a11.42,11.42,0,0,0-2.263-3.6c-.436-.721.045-.257-.151-.747-.511-1.043-1.8-2.274-1.963-2.9-.029-.1.255.218.386.384-.524-.551-2-2.867-1.806-2.121a17.9,17.9,0,0,0-1.749-2.324c-.6-.7-1.123-1.394-1.606-2.047-.932-.591-2.152-2.746-2.736-2.668.429-.193-2.172-2.861-3.289-3.55.406.2-.712-.874-.217-.664-1.052-1.031-2.151-1.823-2.106-1.486-1.67-2.221-4.449-3.114-5.245-4.575a93.739,93.739,0,0,0-10.7-6.049c.159-.155,1.151.286,2.054.809.911.507,1.791.994,1.839.748-.832-.425-1.583-.788-2.29-1.124l-2.075-.872c-1.334-.6-2.692-1.117-4.345-1.921-.843-.449.57.043.9.106-1.714-.718-3.4-1.318-5.019-1.978a38.589,38.589,0,0,0-4.869-1.457,2.394,2.394,0,0,1,.71.074c-.63-.163-1.438-.477-1.423-.26l.625.12c.907.569-2.644-.11-2.79.023,1.215-.322-3.12-.872-1.248-1.2-.427-.059-.971-.084-.905.072-.609-.182-.79-.306-.128-.313-2.294-.42-1.538.025-3.6-.376.024-.1.449-.06.685-.136a21.508,21.508,0,0,1-3.917-.3c.113-.046-.081-.149.445-.081a29.426,29.426,0,0,0-4.165-.2c-1.34,0-2.706-.045-4.373-.152,1-.406-1.133-.171-1.308-.548-.6.01-1.2.06-1.805.117l.725.163c-1.579.046-2.961.31-4.316.282.386-.087.773-.159,1.161-.213-.984.04-1.963.18-2.943.265l1.675.015c-1.573.313.2.459-1.887.513.419-.064-1.562.092-2.4.01h0a10.643,10.643,0,0,1-2.693.5c-.317-.08.18-.439-.027-.492-.709.435-3.627.7-4.506,1.248.3-.149.277-.345.164-.36l-.575.393c-.726.084-.839.07-.758-.109-2.149.448.785.3-1.794.691a4.153,4.153,0,0,1,.5-.214c-2.565.53-4.822,1.481-7.12,2.161-.8-.127,1.959-.76,1.089-.8-3.3,1.117-6.561,2.952-9.61,4.316l.574-.245c-.175.69-2.345.884-3.723,1.912.339-.244.335-.523.263-.42-1.019.531-2.022,1.149-3.136,1.863-1.082.764-2.283,1.614-3.667,2.663l.274-.362c-1.162.7-2.971,1.971-4.133,2.861-.258.375-.928.873-.406.715-4.031,2.22-6.2,5.908-9.357,8.385.329-.347.7-.906.437-.631-.773.835-1.451,1.753-2.172,2.629.351-.053.4-.247,1-.667a9.052,9.052,0,0,1-1.271,1.839c.887-1.243-.308-.243-.809.2.123-.042.044.185.134.187-1.417,1.138.18.523-1.529,2.25l-.018-.174c-.525.738-.841,1.537-1.445,2.3-.452.175.456-.856.315-1.036-.781,1.136-1.174,2.477-2.041,3.386.251-.531.7-1.24.986-1.748a7.731,7.731,0,0,0-1.625,1.942l.059-.079c-.454.631-.928,1.252-1.369,1.9.12-.159.252-.311.383-.462a7.538,7.538,0,0,1-1.024,2.513c-.235.412-.489.834-.724,1.3a10.655,10.655,0,0,0-.583,1.545c.641-2.2-.052-.447-.242-.739-.345.488-.841,1.25-.8.982-.3,1.08-1,1.561-1.308,3.13-.117.023-.493,1.067-.615.743-.519,1.336.3-.241.357-.081-.592,2.125-2.35,4.646-2.9,7.811a22.7,22.7,0,0,0-.49,2.93c-.1.782-.181,1.539-.369,2.785-.342.791-.189-.761-.189-.761a14.95,14.95,0,0,0-.8,3.61c-.037-.275-.155-.023-.333.346-.158,1.03.227.748-.155,2.072a4.168,4.168,0,0,1-.2-1.09c-.064.614-.106,1.226-.145,1.842-.011.621-.022,1.245-.058,1.88-.211.312-.159-.793-.212-1.255-.1,1.431-.331,3.695-.058,4.161l.167-.9c-.027.518-.259.243-.265-.144-.055-1.238.315-1.74.421-1.8l-.052.9a4.537,4.537,0,0,0,.472-2.341,23.169,23.169,0,0,1,.285-3.043l.277.818-.013-1.892c.186-.367.457-.584.355.3.451-1.226.1-1.15.566-2.185.062-.111.069-.053.06.061l.163-1.259c.03.262.333-.134.1.606a21.039,21.039,0,0,0,.669-2.7,4.229,4.229,0,0,1,.5-1.647l-.027.189c.793-3.041-.218-.38.183-2.74l1.22-1.257-.188-.4c.124-.3.385-.888.454-.735.248-1.2-.2.145-.127-.578a19.863,19.863,0,0,0,1.129-2.55c.376-.847.713-1.546,1.007-1.6.02-.608-.779,1.288-.239-.3.336-.108.514-.555.709-1.128a7.366,7.366,0,0,1,.9-1.825c.041.513-.7,1.646.164.488a3.6,3.6,0,0,1,.728-1.712,17.735,17.735,0,0,0,1.166-1.767c-.143-.115.149-.7.59-1.482s1.107-1.714,1.594-2.6c0,.154,2.282-3.037,3.547-4.42l.015.08c-.054-.5,1.148-2.014,2.027-3.115.135.187.026.427-.383,1.073.275-.342.571-.668.855-1a5.311,5.311,0,0,1,.867-1.339l-.012.433c.557-.678,1.094-1.382,1.716-2.1a15.391,15.391,0,0,1,2.161-2.2c-.084-.275-1.813.743-.185-1.045.161.037.389.147-.027.622a5.055,5.055,0,0,1,.794-.834l-.533.83c.818-.639.256-.513.87-1.068.123.155.538-.319.559-.123a6.166,6.166,0,0,0-.752.711,8.416,8.416,0,0,1,1.979-1.422c-.136-.031-.177-.2.32-.663,1.32-1.163.611-.214,1.449-.806.222-.4,1.194-.975,1.033-1.222a1.419,1.419,0,0,1,.771-.327c.321-.325,1.134-1.008,1.779-1.513s1.089-.881.579-.711l-.2.119.114-.1-.006,0,.006,0c.566-.492,1.172-.956,1.8-1.4s1.312-.818,1.978-1.215c1.323-.811,2.718-1.483,3.97-2.279l.044.089c.728-.509,1.612-.943,2.414-1.4s1.545-.89,2.085-1.231c.478-.216,1.2-.345,1.047-.146a12.073,12.073,0,0,1,3.163-1.38c-1.2.657.492-.031-1.245.627a16.3,16.3,0,0,0,3.744-1.491c-.518.442,1.353-.122,2.115-.459l-1.219.221c.875-.335,1.658-.577,2.452-.822l-.326.461c3.5-.653,6.044-2.405,8.867-2.236.888-.395-1.943.181-1.164-.235,1.639-.244,3.4-.082,3.906-.161,2.252-.084,2.014-.781,4.381-.884-.311-.095-.632-.388,1.132-.634,1.661-.083,2.059.342,1.028.516-.394.04-.586.017-.573-.024-.528.083-1.219.187-.559.265l.2-.134c.412.029,1.182,0,1.783-.012s1.036.051.775.15c1.235-.144.524-.208-.4-.246,2.115.142,3.3-.139,5.467.069-.343-.074-.66-.222-.316-.212,3.183.251,1.414-.241,3.581-.135,1.216.274-.468.4,1.713.411,1.313.223.25.335-.28.392a11.161,11.161,0,0,1,1.428.037c.452.062.88.144,1.28.231.8.174,1.489.367,2.043.458l-1.04-.035a13.175,13.175,0,0,1,1.635.161c-.181-.117-.366-.213-.55-.318.6.107,1.1.229,1.078.315.644-.043-.413-.475.856-.464.78.271,2.482.291,2.688.689-2.5-.6.216.348-1.922.009a9.436,9.436,0,0,1,1.511.279c.082.055-.1.042-.265.034,2.322.806,1.168-.1,3.645.473-.355.095.49.459.893.548-.98-.282-.4-.42.545-.294a14.787,14.787,0,0,0,2.554.635l-.921-.329a6.658,6.658,0,0,1,2.249.488c.049.162-1.012-.242-.645-.054,1.3.128,2.622,1.177,4.318,1.66.716.412-.048.34.587.678,1.927.492,1.863,1.053,3.828,1.713-.442-.461-.565-.453.866-.061l-3.176-1.252,2.136.586c-.944-.42-2.036-.781-2.6-1.032,1.044.211.913.251.542-.144,1.139.924,2.661.936,4.024,1.893l-.306.507a21.411,21.411,0,0,0,3.106,1.576,23.5,23.5,0,0,1,3.539,1.939c-.271-.208-.531-.436-.813-.629.494.009,1.676,1.028,2.6,1.5-.19.114.314.519.612.86.04-.151,1.883,1.356,2.351,1.2.332.35.679.677.992,1.047,1.943,1.672,2.68,1.342,4.5,3.038-.7-.327.052.514-1.3-.452.621.541,1.157,1.053,1.257.959a6.916,6.916,0,0,0,1.109.887,5.826,5.826,0,0,1,1.188,1.111,2.912,2.912,0,0,1,1.2.761c.046.1-.071.067-.071.067.083-.08,1.121.937.709.2,1.341,2.247,4.92,5.195,5.809,7.339,1.2,1.351,2.464,3.121,3.418,4.453-.106-.056-.085.05-.235-.222,1.059,2,1.236.854,2.435,3.152.4,1.3-.85-1.084-.535-.315-.373.637,1.665,2.621,2.128,4.339l-.224-.353c.393,1.277,1.726,2.729,2.537,4.738,0,0-.1-.071-.1.029a14.292,14.292,0,0,1,1.485,2.574c.484,1.04,1.02,2.146,1.373,3.129-.448-.53-.43-.851-.547-.39.334.871.3-.4.97,1.347.057.622.393,1.928.155,2.185-.159-.562-.374-1.106-.559-1.659a3.964,3.964,0,0,0,.37,1.544,13.108,13.108,0,0,1,.52,1.517l-.182-.07c.8,2.554,1.13,2.513,1.766,5.336l.048-.315c.721,1.47.035,1.344.611,2.843l-.305.536c.15.5.391,1.387.6,2.386s.48,2.1.579,3.032c-.373-1.034-.826-3.18-1.171-4.489a25.343,25.343,0,0,0,.739,3.977,6.267,6.267,0,0,1-.244-1.331,16.963,16.963,0,0,1,.9,4.939c-.746-.33-.017,5.383-.734,6.857.151,3.636-.561,7.169-1.3,11.3.848-1.366-.2,1.215.445,1.078a5.087,5.087,0,0,1-.313,1.42l-1.034,2.828c-.349.638.1-.939-.067-.888-.564,2.071-.479.807-1.007,2.129.291-.222.1.8-.315,1.952l.741-1.577c-.492,3-1.261,2.321-1.892,5.291l.124-.968c-.363,1.516-2.052,5.313-2.276,6.889-.177.221-.478.48-.237-.161-1.612,3.316-3.309,7.613-5.207,9.843l.026-.319a5.791,5.791,0,0,1-1.037,1.8c-.025-.072.039-.311-.154-.055a14.458,14.458,0,0,1-1.456,2.349l.319-.739a36.4,36.4,0,0,0-2.639,3.666,40.459,40.459,0,0,1-2.406,3.328c-.335-.314-2.359,1.691-3.446,2.6l-.008-.079c-3.028,2.9-5.058,5.058-8.092,7.549-2.2,1.1-6.93,4.444-10.551,5.928.565-.2.07.349-.529.7-.839.364-2.165,1.351-2.2.934l.3-.127c-.8-.086-2.439.825-3.82,1.317l-.029.58a57.091,57.091,0,0,0-6.443,1.989c-1.1.343-2.132.711-3.047.921a8.149,8.149,0,0,1-2.242.265c-.868.359-2,.552-2.881.84v-.287c-1.266.193-2.213.341-3.244.442s-2.121.324-3.7.445l.624-.25c-1.773.1-2.182,1.011-3.843,1.1l-.516-.41a45.946,45.946,0,0,1-4.694-.1c-.781-.046-1.561-.063-2.338-.081a23.2,23.2,0,0,0-2.329-.014c.055-.058.157-.172.661-.151-1.473-.052-5.594-.907-5.15-.255.011-.336-3.169-.553-4.867-.719l.313-.213a11.827,11.827,0,0,1-3.5-.242c-.452-.146-.349-.311.245-.1-1.489-.529-1.253-.069-3.059-.726l.735.024a7.094,7.094,0,0,0-2.371-.411,8.069,8.069,0,0,1-3.037-1.375,4.192,4.192,0,0,1-2.023-.49c-.085-.136.261-.063.434-.025-1.231-.574-2.192-.883-3.037-1.207a10.329,10.329,0,0,1-2.392-1.1c.006-.1-.082-.2-.208-.293,1.935.94,3.525,1.634,3.364,1.6.1-.236-1.456-.99-.061-.748-.669-.2-1.588-.443-2.531-.744a14.735,14.735,0,0,1-2.592-1.172.9.9,0,0,1-.157-.18l.169.054a5.659,5.659,0,0,0-.969-.453c-.447-.306-.728-.5-1.175-.765-.061-.3-1.678-1.062-2.389-1.553-.087.279-1.019-.372-.246.4-.105-.093.152.065.649.357.118.058.253.131.336.159l-.064-.008,1.877,1.058a6.014,6.014,0,0,1-2.1-1.084,12.41,12.41,0,0,1-1.266-.261c-.805-.969-2.6-2.39-2.7-2.8-1.121-.7-2.411-1.567-3.565-2.419-.586-.416-1.158-.8-1.681-1.127a8.854,8.854,0,0,0-1.379-.8,1.8,1.8,0,0,1-.715-.929,10.648,10.648,0,0,0,.977.686c-1.259-.848-3.331-2.96-3.847-2.948-1.253-1.441.991.515-.9-1.284l.323.175a23.249,23.249,0,0,0-2.365-2.653c-.762-.8-1.54-1.532-2.329-2.279-.772-.76-1.514-1.575-2.275-2.487a19.9,19.9,0,0,1-2.107-3.267,1.863,1.863,0,0,1,.284.623c-3.48-5.463-7.188-11.395-8.941-17.609a9.2,9.2,0,0,0-1.3-2.869l.161-.465c-.3-.569-.573-1.15-.863-1.729a10.854,10.854,0,0,1-.526-1.854c-.106-.612-.148-1.227-.217-1.857s-.141-1.279-.279-1.971a14.611,14.611,0,0,0-.539-2.261l-.123.469c-.083-.609-.3-1.559-.421-2.345s-.164-1.4-.035-1.313a1.356,1.356,0,0,1-.216-.863l.152-.056c-.235-.983-.411-1.977-.567-2.976-.046-2.342.614.316.465-3.074-.092-1.254-.551-3.59-.644-3.116,0,.512-.066,1.31-.223,1.352l-.112-1.165c-.47-.205-.97-1.127-1.223,1.787l.336,2.013-.176.662c-.059-.566-.072-1.134-.09-1.7a4.2,4.2,0,0,0,.223,2.258,1.823,1.823,0,0,0-.184.865l.6,1.942c-.153.259-.456-.851-.4.488.322.9.294-.928.622.583-.088.982-.294.727.028,1.829-.1.175-.205-.053-.314-.494a14.888,14.888,0,0,0,.792,3.116,10.534,10.534,0,0,0,.247,2.063c.139.7.253,1.267.023,1.266a14.643,14.643,0,0,1,.965,2.561c-.954-1.509.9,3.359.249,3.082a14.535,14.535,0,0,1,1.227,2.79c.217.591.426,1.217.663,1.813.253.59.513,1.158.778,1.652a1.531,1.531,0,0,1-.291-.494,19.892,19.892,0,0,1,.639,2.362c.427,0,1.313,1.738,1.963,2.588.29,1.559-.8-.652-.931-.062.13-.1.47.478.8,1s.657.979.656.687c.326,1.15.359.951.348,1.641.533-.048.555.948,1.32,1.639.637,1.592-.18.608.882,2.155C213.3,288.749,212.315,287.39,212.315,287.39Zm32.374,29.647h0l-.82-.4Zm3.343,1.627-1.462-.681c-.072-.151.09-.162.43-.008-.213-.025.56.386,1.032.689Zm-5.985-5.311c.517.251.656.395.7.484l-.888-.472h-.076a.562.562,0,0,1,.264-.012Z" fill="#202020"/>
          <path d="M240.961,313.154a1.69,1.69,0,0,1-.213-.106,3.026,3.026,0,0,0,.262.231l.223.026Z" fill="#202020"/>
          <path d="M235.519,185.13l.066-.039a.714.714,0,0,1-.155.061A.551.551,0,0,1,235.519,185.13Z" fill="#202020"/>
          <polygon points="298.313 324.278 298.292 324.21 297.987 324.344 298.313 324.278" fill="#202020"/>
          <path d="M220.133,198.316a.7.7,0,0,0-.222.166A.927.927,0,0,0,220.133,198.316Z" fill="#202020"/>
          <path d="M214.91,205.425l-.759,1C214.491,206,214.726,205.682,214.91,205.425Z" fill="#202020"/>
          <path d="M211.364,211.22a.337.337,0,0,0,.046.175l.008-.011Z" fill="#202020"/>
          <path d="M303.48,172.452l.257.06C304.346,172.639,303.938,172.532,303.48,172.452Z" fill="#202020"/>
          <path d="M271.594,170.242c.332-.093.66-.185,1.009-.262C272.034,170.031,271.592,170.081,271.594,170.242Z" fill="#202020"/>
          <path d="M334.638,190.176h-.006l.162.154Z" fill="#202020"/>
          <path d="M274.092,169.871a7.818,7.818,0,0,0-1.489.109A12.166,12.166,0,0,0,274.092,169.871Z" fill="#202020"/>
          <path d="M202.713,239.242l-.053.325c.019,0,.032.017.042.043Z" fill="#202020"/>
          <path d="M202.7,239.61v.367A1.029,1.029,0,0,0,202.7,239.61Z" fill="#202020"/>
          <path d="M202.72,240.747l-.013-.77A2.213,2.213,0,0,0,202.72,240.747Z" fill="#202020"/>
          <path d="M204.318,230.38l-.077-.123A.144.144,0,0,0,204.318,230.38Z" fill="#202020"/>
          <path d="M204.921,227.71a16.686,16.686,0,0,0-.74,2.446l.06.1C204.2,229.805,204.916,228.347,204.921,227.71Z" fill="#202020"/>
          <path d="M209.774,217.4c-.323.679-.608,1.376-.915,2.064.247-.328.572-.754.22.208C210.425,217.16,208.628,220.127,209.774,217.4Z" fill="#202020"/>
          <path d="M212.948,211.176c-.506,1.1.146.062.171.149C213.393,210.6,213.468,210.431,212.948,211.176Z" fill="#202020"/>
          <path d="M249.27,177.453l-.006.284C250.1,177.32,249.232,177.643,249.27,177.453Z" fill="#202020"/>
          <path d="M257.912,172.807c-.311.033-.624.063-.931.117l-.345.364C257.057,173.116,257.48,172.947,257.912,172.807Z" fill="#202020"/>
          <polygon points="263.917 173.123 263.53 173.25 265.017 172.811 263.917 173.123" fill="#202020"/>
          <path d="M339.623,199.092l.064-.417C339.229,198.236,338.88,198.36,339.623,199.092Z" fill="#202020"/>
          <path d="M355.6,231.488a5.075,5.075,0,0,0,.291,2.04A15.929,15.929,0,0,0,355.6,231.488Z" fill="#202020"/>
          <path d="M306.97,319.085l.641-.366c-.416.192-.828.4-1.256.565C306.56,319.219,306.769,319.163,306.97,319.085Z" fill="#202020"/>
        </g>
        <g>
          <path d="M326.367,247.578c-.087-.149-.275-.066-.26.349l.316.3Z" fill="#202020"/>
          <path d="M325.614,250.343c.136.491.389,1.078.708.785-.293-.509-.154-.618-.506-1.158-.018-.414.142-.716.261-.642-.078-.149.105-.643-.092-.87a2.725,2.725,0,0,0-.152,1.929C325.752,250.535,325.674,250.381,325.614,250.343Z" fill="#202020"/>
          <path d="M306.449,283.923l.228-.121A1.108,1.108,0,0,0,306.449,283.923Z" fill="#202020"/>
          <path d="M283.534,291.889c.186-.018.261-.054.269-.085C283.631,291.835,283.49,291.862,283.534,291.889Z" fill="#202020"/>
          <path d="M279.358,291.61l.245.035A.4.4,0,0,0,279.358,291.61Z" fill="#202020"/>
          <path d="M306.449,283.923l-.586.309C305.887,284.348,306.178,284.1,306.449,283.923Z" fill="#202020"/>
          <path d="M325.748,255.992a1.509,1.509,0,0,0-.03-.379l-.017.347A.3.3,0,0,1,325.748,255.992Z" fill="#202020"/>
          <path d="M314.248,276.447l.134-.148a.913.913,0,0,0,.008-.209Z" fill="#202020"/>
          <path d="M318.981,269.669c-.108.153.1.351.169.475a.633.633,0,0,1,.047-.448A.323.323,0,0,0,318.981,269.669Z" fill="#202020"/>
          <path d="M324.243,257.617l.021-.236Z" fill="#202020"/>
          <path d="M310.046,280.619a.2.2,0,0,0-.122-.025A.134.134,0,0,0,310.046,280.619Z" fill="#202020"/>
          <path d="M325.921,237.609c-.021,0-.031.01-.049.012C325.913,237.663,325.936,237.674,325.921,237.609Z" fill="#202020"/>
          <path d="M325.629,247.578l-.022-.135a.61.61,0,0,0-.159-.028Z" fill="#202020"/>
          <path d="M271.877,290.44l.032.011C272.112,290.449,272,290.438,271.877,290.44Z" fill="#202020"/>
          <path d="M237.647,238.276c-.444.715.008-1.32-.563-.222C237.218,237.973,237.241,239.2,237.647,238.276Z" fill="#202020"/>
          <path d="M325.679,256.2l-.051.348A2.043,2.043,0,0,0,325.679,256.2Z" fill="#202020"/>
          <path d="M237.084,238.054h0l-.057.115Z" fill="#202020"/>
          <path d="M255.876,283.862a.53.53,0,0,0,.074.208C255.961,284.043,255.949,283.989,255.876,283.862Z" fill="#202020"/>
          <path d="M267.414,289.891l-.293-.148A1.962,1.962,0,0,0,267.414,289.891Z" fill="#202020"/>
          <path d="M250.367,279.907a1.232,1.232,0,0,0-.338-.337.319.319,0,0,0,.03.074A.629.629,0,0,1,250.367,279.907Z" fill="#202020"/>
          <path d="M245.6,274.682c.006.044.023.093.034.14l.146.171Z" fill="#202020"/>
          <path d="M315.9,217.671a1,1,0,0,1,.036.415C316.008,217.873,316.794,218.634,315.9,217.671Z" fill="#202020"/>
          <path d="M325.593,255.966a.279.279,0,0,1,.086.238l.022-.244C325.663,255.931,325.625,255.92,325.593,255.966Z" fill="#202020"/>
          <path d="M248.628,281.324l-.844-.826C248.009,280.74,248.316,281.04,248.628,281.324Z" fill="#202020"/>
          <path d="M267.813,203.151l.253-.1A.581.581,0,0,0,267.813,203.151Z" fill="#202020"/>
          <path d="M245.388,277.938a2.421,2.421,0,0,0-.3-.618.484.484,0,0,0-.147-.055Z" fill="#202020"/>
          <path d="M311.083,230.784c-.439-.735-.442-.2-.673-.274-.592-.821-.069-.508-.128-.881a5.356,5.356,0,0,0-.6-.628,2.881,2.881,0,0,1-.541-.517c.017-.055-.025-.138.087-.085-.583-.4-1.192-1.59-1.889-2.024a.211.211,0,0,1-.014-.119.408.408,0,0,1-.216.333c-.256-.275-.6-.4-.557-.622.151.173.219.139.335.182l-.325-.239c-.04-.436.431.338.579.212a12.31,12.31,0,0,1-1.688-1.514c.1-.27.992.961.629.222l.543.744c-.169-.789.355.433.245-.333-.779-.94-.98-.95-1.806-1.835-.3-.081-.081.212-.378.132-1.433-.955-.567-1.388-1.73-1.982-.363-.076-.673.111-1.278-.561l.422-.047c-.925-.728-.785-.066-1.65-.955.24.035.792.471.67.336-.5-.662-.546-.2-1.032-.565l.04-.285c-.546-.308-1.136-.6-1.742-.9s-1.2-.63-1.848-.883c.1-.034.355,0,.1-.213a24.218,24.218,0,0,1-2.464-1.169c-.85-.358-1.684-.747-2.455-1.11l-.675-.009c-.139-.054-.238-.17-.066-.173-.614-.246-.076.126-.406.131-.364-.076-.441-.246-.193-.251-.589-.055-1.411-.161-2.223-.32l-.606-.125c-.2-.027-.4-.057-.592-.092a6.45,6.45,0,0,1-1.024-.258l.246-.032c-.928-.233-1.117.29-1.954-.046l.169-.014c-1.012-.152-2.1-.144-3.111-.209l-.749-.044-.717,0a9.1,9.1,0,0,1-1.3-.1c-.14.167-.649.157-1.136.162-.49-.016-.95.1-.989.314a13,13,0,0,0-2.533-.068c-.447.035-.592.407-1.109.581l-.066-.227-.661.422-.454-.171-.482.186c.2-.038.448-.008.435.065a4.5,4.5,0,0,1-1.251.264c-.393.052-.7.072-.724.015l-1.717.838c0-.1.291-.241.508-.383-.869.571-.263-.166-1.06.358.137.007-.012.152-.013.2a6.58,6.58,0,0,0-2.116.889l.065-.209a29.175,29.175,0,0,0-3.942,2.3c.53-.233.563.071.186.332l-.293-.109c-.17.281.462-.174.044.3-.492.315-.479,0-.25-.269l-.53.5c-.076-.035.036-.167.018-.271-.146.3-1.146.547-1.328,1.016l-.076-.034-.833.641c-.236.2-.428.407-.623.594-.386.379-.742.737-1.216,1.176.128.171-.277.476-.438.855-.681.645-1.51,1.309-2.264,2.167-.431.682-.01.294-.134.654-.185-.075-.852.846-.609.289-.4.557-.651.913-.919,1.313l-.43.665-.483.971c.164-.118.3-.277.3-.152-.134.283-.436.561-.492.475l.025-.081a25.749,25.749,0,0,1-1.646,2.689c-.29.454-.572.9-.8,1.332a6.649,6.649,0,0,0-.3.634,3.388,3.388,0,0,0-.125.623l.011-.089L247.715,237c-.284.682.015-.463-.286.009a8.094,8.094,0,0,1-.278,1.15c-.076.351-.169.67-.262.978a9.707,9.707,0,0,0-.446,1.91,4.9,4.9,0,0,0-.671,2.476c-.062.512-.126,1.034-.185,1.522a5.979,5.979,0,0,1-.191,1.311l.138-.076c.112.392-.1.461-.146.745.107-.036.142-.412.2-.169-.072,1.63.034,3.3.026,5,.025.847.146,1.692.213,2.543l.126,1.272q.131.622.259,1.242c.274,1.211.847.5.922,2.072l-.349-.351c.488,1.146.976,2.31,1.384,3.5a24.706,24.706,0,0,0,1.711,3.293c-.124-.1-.2-.059-.3-.274a3.056,3.056,0,0,0,1.089,1.559c.181.331-.069.145-.013.384.185.493.848.984.87,1.3.005.052-.137-.08-.2-.151.266.222.913,1.264.89.885.472.779,1.091,1.346,1.468,1.969.494.195.959,1.224,1.305,1.111-.291.177.848,1.391,1.418,1.621-.213-.054.3.413.031.366.489.439.977.8,1.008.587.6,1.163,2.076,1.262,2.29,2.1l1.222.758,1.239.63,1.192.623.582.309.606.255c-.1.127-.559-.037-.954-.283-.4-.227-.792-.454-.851-.278.374.185.714.339,1.033.479.331.121.65.213.959.321a11.613,11.613,0,0,1,1.943.833c.363.227-.276.032-.429.022.757.328,1.53.551,2.251.833.364.135.723.266,1.082.383a4.458,4.458,0,0,0,1.087.256c-.013.029-.176.022-.329.01.284.061.639.216.65.059l-.285-.03c-.378-.329,1.234-.167,1.308-.272-.581.311,1.363.466.484.82.192.019.439.007.42-.105.265.1.34.181.037.227a1.9,1.9,0,0,0,.852.027,2.084,2.084,0,0,1,.771.027c-.016.076-.207.076-.319.147a4.127,4.127,0,0,1,1.756.036c-.052.037.03.11-.2.076,1.348.232,2.331-.178,3.8.061-.446.3.5.132.576.419a5.276,5.276,0,0,0,.8-.089l-.323-.121a15.175,15.175,0,0,1,1.913-.2l-.513.143,1.306-.121-.747-.068c.694-.181-.1-.354.828-.322-.184.033.692-.012,1.066.069h0a2.831,2.831,0,0,1,1.18-.3c.146.069-.059.326.036.372.3-.3,1.614-.288,1.978-.648-.127.093-.1.241-.052.258l.237-.258c.324-.02.378,0,.353.126.95-.208-.378-.273.769-.409-.083.038-.034.054-.209.129a13.25,13.25,0,0,0,1.625-.437c.53-.144,1-.4,1.524-.526.39.16-.852.386-.437.489.717-.29,1.438-.645,2.153-.984s1.371-.777,2.06-1.055l-.263.092c0-.454,1.091-.288,1.666-.811-.141.124-.1.314-.079.254a21.845,21.845,0,0,0,2.964-2.091l-.1.2c.53-.283,1.3-.9,1.844-1.253.091-.2.4-.405.124-.388a4.11,4.11,0,0,0,.687-.325,6.015,6.015,0,0,0,.57-.449,12.835,12.835,0,0,0,.984-1.009l.924-1a4.68,4.68,0,0,1,1.009-.885c-.142.158-.274.436-.161.311l.947-1.182c-.214-.025-.214.075-.53.222a2.414,2.414,0,0,1,.52-.847c-.369.566.233.189.478.009-.071.006-.057-.112-.114-.127.713-.434-.2-.324.606-1.048l.039.1a6.383,6.383,0,0,1,.606-1.043c.272-.026-.178.395-.059.515.351-.5.421-1.161.851-1.53a6.82,6.82,0,0,1-.392.8c.56-.342.51-.463.785-.815l-.03.035.629-.827-.192.191a1.929,1.929,0,0,1,.369-1.163c.107-.18.227-.362.327-.568a2.782,2.782,0,0,0,.19-.717c-.14,1.045.1.236.267.409.171-.206.409-.536.417-.4.045-.521.487-.675.541-1.41.08,0,.232-.467.355-.293.222-.6-.184.084-.245,0a7.757,7.757,0,0,1,.639-1.562,5.7,5.7,0,0,0,.638-1.906c.2-1.2-.009-1.492.152-2.589.208-.336.185.36.185.36a3.8,3.8,0,0,0,.383-1.59c.046.127.117.021.227-.138.051-.46-.217-.352-.019-.932a1.533,1.533,0,0,1,.222.5c.016-.552-.039-1.1-.02-1.665.151-.132.142.36.195.57.036-.638.146-1.64-.08-1.855l-.095.4c0-.227.188-.1.2.072.076.554-.187.765-.265.785l.013-.4c-.491.35-.172,1.586-.319,2.384l-.259-.386.132.859c-.116.151-.3.235-.284-.16-.258.526-.006.514-.289.953-.04.045-.048.019-.048-.033l-.047.56c-.037-.121-.239.036-.11-.282-.423.913-.172,1.615-.494,1.912v-.086c-.3,1.35.195.2.109,1.267l-.779.469.171.206c-.057.132-.171.391-.239.309-.035.554.125-.05.158.294a5.386,5.386,0,0,0-.5,1.119c-.172.369-.334.671-.535.664.053.3.41-.536.2.176-.449.021-.308.8-.744,1.283-.1-.268.254-.75-.179-.27a.977.977,0,0,1-.265.78,4.931,4.931,0,0,0-.566.744c.227.158-.5,1.037-.878,1.842-.007-.069-1.084,1.277-1.657,1.868l-.022-.048c.112.286-.4.97-.781,1.453-.114-.127-.081-.246.076-.547-.119.151-.256.287-.379.431a1.436,1.436,0,0,1-.339.623l-.058-.245a10.221,10.221,0,0,1-1.653,1.924c.092.18.971-.151.272.657-.1-.049-.255-.152-.08-.369a1.3,1.3,0,0,1-.345.371l.19-.411c-.389.249-.076.265-.354.5-.1-.115-.272.1-.314-.02.059-.076.276-.167.338-.3a2.814,2.814,0,0,1-.94.545c.084.04.135.152-.075.365-.564.53-.313.042-.694.285-.06.216-.524.423-.394.6a.47.47,0,0,1-.387.082c-.258.316-1.47,1.136-.972,1.06l.092-.048-.047.047h0a6.025,6.025,0,0,1-.757.661,8.189,8.189,0,0,1-.89.5,14.357,14.357,0,0,0-1.75.991l-.035-.067c-.625.472-1.522.809-1.946,1.211-.209.1-.547.113-.5-.011a2.963,2.963,0,0,1-1.381.618c.51-.325-.235-.036.536-.3a3.928,3.928,0,0,0-1.651.626c.2-.277-.621-.03-.943.151l.547-.055a9.588,9.588,0,0,1-1.065.384l.109-.307a6.546,6.546,0,0,0-2.044.628,2.7,2.7,0,0,1-1.827.343c-.379.235.863-.006.538.252a11.8,11.8,0,0,1-1.741-.135c-.984,0-.854.535-1.893.53.139.083.292.315-.483.439-.734,0-.915-.331-.466-.426.173-.016.258.008.253.039.231-.044.53-.1.24-.181l-.086.094c-.364-.076-1.35-.014-1.125-.173-.537.113-.227.159.179.185-.926-.1-1.439.123-2.388-.046.152.058.287.17.137.161-1.391-.181-.62.14-1.573.131-.53-.164.215-.317-.745-.249-.572-.122-.1-.244.133-.3a2.731,2.731,0,0,1-.626.022,4.21,4.21,0,0,1-.553-.136c-.345-.107-.639-.233-.878-.286h.454a4.135,4.135,0,0,1-.711-.067l.227.217c-.258-.071-.48-.106-.463-.179-.291.076.161.327-.408.4-.335-.151-1.1-.05-1.168-.338,1.085.283-.076-.243.863-.131a2.314,2.314,0,0,1-.66-.108c-.033-.036.045-.036.12-.042-.984-.455-.53.146-1.6-.133.168-.095-.185-.311-.366-.328.429.114.151.271-.275.268-.663-.278-.773-.119-1.136-.223l.4.151c-.181.1-.525-.006-1-.151-.008-.114.449.088.3-.017-.6.032-1.1-.662-1.873-.777-.3-.208.059-.247-.211-.411-.88-.118-.78-.53-1.653-.776.156.277.219.258-.432.14l1.395.53-.969-.177c.41.191.9.328,1.143.439-.485-.028-.416-.076-.281.165-.45-.517-1.177-.392-1.748-.87l.217-.392a5.561,5.561,0,0,0-1.373-.652,7.746,7.746,0,0,1-1.552-.837l.342.3c-.253.055-.749-.426-1.174-.6.118-.1-.094-.293-.2-.473-.044.106-.8-.614-1.082-.449l-.378-.53c-.841-.737-1.314-.408-2.078-1.2.349.1.055-.313.665.084-.266-.243-.486-.481-.559-.407-.092-.21-.876-.524-1.026-.852-.158-.054-.3.024-.6-.259-.012-.051.053-.051.053-.051-.063.063-.521-.379-.393-.006a5.645,5.645,0,0,0-1.268-1.7c-.262-.278-.53-.548-.74-.815a2.755,2.755,0,0,1-.409-.816c-.507-.605-1.136-1.328-1.55-1.913.06.015.063-.039.12.086-.4-.921-.676-.287-1.135-1.341-.093-.618.424.445.315.09.355-.394-.8-1.11-.875-1.931l.1.152c-.1-.6-.775-1.181-1.156-2.051,0,0,.06.023.071-.025a8.158,8.158,0,0,1-1.4-2.442c.28.2.239.356.364.127-.167-.378-.255.22-.589-.534.013-.287-.12-.864.08-1.006.062.248.175.48.26.721a1.051,1.051,0,0,0-.133-.681,3.3,3.3,0,0,1-.236-.661l.126.018c-.328-1.121-.621-1.066-.917-2.3l-.055.145c-.447-.619.061-.6-.271-1.247l.263-.257a19.073,19.073,0,0,1-.682-2.354,19.583,19.583,0,0,1,.743,1.938,6.262,6.262,0,0,0-.434-1.725,1.649,1.649,0,0,1,.143.577,4.286,4.286,0,0,1-.512-2.154c.586.132,0-2.363.561-3a11.04,11.04,0,0,1,.094-2.389c.169-.8.364-1.629.485-2.539-.542.565.067-.53-.4-.511a1.277,1.277,0,0,1,.146-.621l.595-1.2c.207-.265,0,.421.107.407.268-.9.289-.331.56-.894-.191.076-.148-.378.044-.875l-.39.666a1.638,1.638,0,0,1,.409-1.151,2.047,2.047,0,0,0,.492-1.128l-.006.439c.076-.33.29-.908.469-1.507.08-.3.177-.6.264-.857a2.133,2.133,0,0,0,.111-.695c.1-.086.284-.174.185.107.393-.7.638-1.59,1.017-2.356a9.315,9.315,0,0,1,1.179-1.976l.031.168c.135-.272.076-.58.41-.812.028.042.021.161.11.053a3.7,3.7,0,0,1,.613-1.04l-.1.35a6.709,6.709,0,0,0,1.093-1.644,12.136,12.136,0,0,1,.99-1.509c.257.238,1.13-.644,1.635-1.009l.017.049a16.669,16.669,0,0,0,1.722-1.753,20.833,20.833,0,0,1,1.708-1.654,4.513,4.513,0,0,0,.932-.473l1.19-.674a13.306,13.306,0,0,1,2.552-1.315c-.261.058-.081-.249.178-.411.389-.112.9-.69.97-.385l-.13.057c.4.151,1.081-.315,1.7-.5l-.05-.409a9.737,9.737,0,0,0,2.837-.805,5.269,5.269,0,0,1,2.321-.462,9.244,9.244,0,0,1,1.241-.441l.016.215c.556-.057.972-.1,1.419-.161l.713-.11a6.089,6.089,0,0,1,.892-.11l-.265.166c.77-.023.931-.664,1.66-.714l.231.309c1.368-.14,2.722.309,4.084.062-.026.046-.076.136-.294.138.647-.022,2.418.509,2.253.03-.026.293,1.384.222,2.139.243l-.151.177a3.189,3.189,0,0,1,1.562-.029c.194.076.134.209-.119.088.639.279.573-.058,1.356.258l-.34.052a1.992,1.992,0,0,0,1.068.081c.448.075,1.255.517,1.287.731a1.192,1.192,0,0,1,.927.108c.026.087-.133.076-.214.07a4.5,4.5,0,0,0,.732.294c.221.079.417.151.606.211a2.847,2.847,0,0,1,1.037.5.178.178,0,0,0,.069.173c-.845-.413-1.523-.753-1.453-.736-.076.179.588.537-.06.523a7.533,7.533,0,0,1,2.3.693.3.3,0,0,1,.057.1l-.076-.014a1.5,1.5,0,0,0,.433.176,4.652,4.652,0,0,0,.493.369c0,.185.695.524,1.013.726.084-.2.491.089.187-.3.043.044-.076-.016-.3-.139a.917.917,0,0,0-.151-.065h.032l-.813-.477a1.551,1.551,0,0,1,.923.466q.318-.024.636-.016c.3.517,1.054,1.179,1.043,1.439.494.3,1.05.687,1.585,1.018.267.167.53.315.779.438a2.439,2.439,0,0,0,.654.289c.279.185.206.343.256.472a2.923,2.923,0,0,0-.445-.28c.555.366,1.47,1.281,1.782,1.188.522.659-.508-.151.335.623l-.164-.054a7.606,7.606,0,0,0,2.092,2.127,7.166,7.166,0,0,1,1.926,2.516c-.076-.158-.113-.237-.1-.291a10.186,10.186,0,0,1,.546.929c.168.319.363.626.554.936.365.628.825,1.211,1.13,1.878.336.65.668,1.3.97,1.962a5.306,5.306,0,0,1,.37,1.014c.1.345.187.691.261,1.038a2.484,2.484,0,0,0,.693,1.212l-.158.231c.168.238.31.485.468.731a4.3,4.3,0,0,1,.256,1.647,5.4,5.4,0,0,0,.09.87,3.8,3.8,0,0,0,.253.984l.123-.218c.052.537.348,1.678.158,1.612a.392.392,0,0,1,.138.374l-.116.03c.065.213.141.427.2.643l.135.654c-.035,1.032-.481-.122-.43,1.363.076.545.429,1.566.5,1.362-.006-.227.045-.575.164-.594l.088.512c.357.088.738.5.921-.8l-.261-.892.156-.3.049.758a1.315,1.315,0,0,0-.13-1,.627.627,0,0,0,.169-.392l-.384-.853c.124-.121.318.368.319-.232-.217-.392-.248.426-.454-.239.1-.442.243-.337.031-.818.076-.083.151.015.223.209-.176-.432-.228-1.176-.446-1.374a2.8,2.8,0,0,0-.051-.927c-.06-.312-.114-.564.057-.578a4.144,4.144,0,0,1-.568-1.107c.575.633-.363-1.5.1-1.432a23.17,23.17,0,0,1-1.338-2.737.418.418,0,0,1,.151.211,5.556,5.556,0,0,1-.182-1.094c-.3.049-.743-.706-1.109-1.046-.037-.736.494.227.652-.083-.2.131-.736-.972-.814-.673-.068-.55-.118-.443-.018-.8-.372.093-.251-.421-.69-.674-.233-.737.2-.34-.33-1C310.588,230.213,311.083,230.784,311.083,230.784ZM296.5,217.755h0l.371.166Zm-1.488-.713c.177.095.4.2.641.318.02.092-.069.133-.216.057.106,0-.225-.211-.421-.375Zm2.347,2.885c-.227-.1-.279-.183-.287-.239l.387.206.039-.007a.269.269,0,0,1-.137.04Z" fill="#202020"/>
          <path d="M303.466,209.724q.066.024.129.054c-.046-.056-.09-.108-.138-.157l-.146.014Z" fill="#202020"/>
          <path d="M306.717,283.78l-.04.022a.287.287,0,0,1,.1-.024A.241.241,0,0,1,306.717,283.78Z" fill="#202020"/>
          <polygon points="270.154 202.406 270.173 202.474 270.346 202.366 270.154 202.406" fill="#202020"/>
          <path d="M315.975,276.411a.309.309,0,0,0,.15-.08C316.106,276.324,316.046,276.363,315.975,276.411Z" fill="#202020"/>
          <path d="M319.038,272.255l.465-.572C319.29,271.924,319.148,272.106,319.038,272.255Z" fill="#202020"/>
          <path d="M321.175,268.894a.307.307,0,0,0-.073-.126v.006Z" fill="#202020"/>
          <path d="M267.124,291.756a1.341,1.341,0,0,0-.154-.027C266.605,291.679,266.847,291.735,267.124,291.756Z" fill="#202020"/>
          <path d="M285.844,292.78c-.191.08-.379.16-.582.223C285.6,292.974,285.853,292.94,285.844,292.78Z" fill="#202020"/>
          <polygon points="248.721 281.415 248.726 281.412 248.628 281.324 248.721 281.415" fill="#202020"/>
          <path d="M284.389,293.043a2.7,2.7,0,0,0,.873-.04A4.18,4.18,0,0,0,284.389,293.043Z" fill="#202020"/>
          <path d="M326.312,252.471l.04-.189a.049.049,0,0,1-.043-.027Z" fill="#202020"/>
          <path d="M326.309,252.255l-.022-.217A.366.366,0,0,0,326.309,252.255Z" fill="#202020"/>
          <path d="M326.239,251.583l.048.455A.814.814,0,0,0,326.239,251.583Z" fill="#202020"/>
          <path d="M325.3,257.659l.084.081A.126.126,0,0,0,325.3,257.659Z" fill="#202020"/>
          <path d="M324.93,259.22a7.339,7.339,0,0,0,.522-1.414l-.067-.066C325.47,258.02,324.854,258.827,324.93,259.22Z" fill="#202020"/>
          <path d="M321.649,265.073c.2-.388.357-.8.538-1.193-.18.175-.418.4-.239-.164C321.079,265.134,322.3,263.492,321.649,265.073Z" fill="#202020"/>
          <path d="M319.75,268.652c.259-.655-.143-.067-.18-.13C319.45,268.959,319.411,269.062,319.75,268.652Z" fill="#202020"/>
          <path d="M298.71,288.155l-.041-.264C298.2,288.158,298.705,287.984,298.71,288.155Z" fill="#202020"/>
          <path d="M293.876,291.39a4.454,4.454,0,0,0,.566,0l.17-.312A5.292,5.292,0,0,1,293.876,291.39Z" fill="#202020"/>
          <polygon points="290.19 290.457 290.407 290.363 289.565 290.677 290.19 290.457" fill="#202020"/>
          <path d="M246.542,275.535l-.14.325C246.694,276.091,247.006,275.926,246.542,275.535Z" fill="#202020"/>
          <path d="M237.2,256.879a1.791,1.791,0,0,0-.113-1.189A4.9,4.9,0,0,0,237.2,256.879Z" fill="#202020"/>
          <polygon points="265.423 206.462 265.066 206.704 265.778 206.35 265.423 206.462" fill="#202020"/>
        </g>
        <path d="M226.941,254.926c0,1.164.534,1.667,1.677,1.667h3.958c2.974,0,4.679-2.227,4.679-7.274v-2.166c0-5.084-1.31-7.352-4.544-7.352h-4.093c-1.141,0-1.677.507-1.677,1.678Zm3.121-12.658h1.547c1.955,0,2.378,1.424,2.378,5.117v1.349c0,4.343-.82,5.392-2.47,5.392h-1.455Zm-14.915,10.361c0,1.41.715,4.277,4.7,4.277,3.412,0,4.858-1.885,4.858-5.154,0-2.2-.489-3.525-2.243-4.182a3.316,3.316,0,0,0,1.915-3.459c0-2.45-1.289-4.317-4.663-4.317-2.95,0-4.31,1.66-4.31,3.8a1.3,1.3,0,0,0,1.16,1.418,1.154,1.154,0,0,0,.176,0,1.394,1.394,0,0,0,1.516-1.261,1.253,1.253,0,0,0,0-.162c.2-1.124.705-1.572,1.506-1.572,1.126,0,1.472.937,1.472,1.964,0,1.849-.448,2.381-1.757,2.621-1.221.2-1.443.462-1.443,1.111,0,.687.324.961,1.59,1.107,1.267.127,1.944.507,1.944,2.932,0,1.635-.4,2.893-1.686,2.893-1.206,0-1.669-.862-1.729-2.134-.077-1.2-.654-1.756-1.583-1.756-.955,0-1.429.751-1.429,1.859"/>
        <path d="M267.48,306.753c.263,1.124.688,1.79,2.319,1.79,1.5,0,2.132-.247,2.434-1.682l2.785-13.023a8.439,8.439,0,0,0,.167-1.256,1.361,1.361,0,0,0-1.289-1.431,1.444,1.444,0,0,0-.263.012c-1.052,0-1.4.677-1.568,1.66l-2.051,12.112h-.053l-2.381-12.4a1.4,1.4,0,0,0-1.423-1.384,1.327,1.327,0,0,0-.154.01,1.543,1.543,0,0,0-1.624,1.458c0,.02,0,.039,0,.059a10.333,10.333,0,0,0,.216,1.183Z"/>
        <path d="M279.119,311.489c-.544,0-.92-.5-.92-1.175v-2.248h-2.258c-.677,0-1.183-.394-1.183-.92a1.059,1.059,0,0,1,1.183-.933H278.2v-2.246c0-.673.383-1.183.92-1.183s.92.493.92,1.183v2.246H282.3c.677,0,1.183.4,1.183.933s-.5.92-1.183.92h-2.258v2.248C280.045,311.009,279.663,311.489,279.119,311.489Z"/>
        <path d="M289.046,293.574h1.391c1.537,0,2.055.706,2.055,2.435,0,1.841-.9,2.425-2.2,2.425h-1.249Zm-3.2,13.407a1.6,1.6,0,0,0,3.192.129q0-.065,0-.129v-6.157h1.391a1.664,1.664,0,0,1,1.881,1.412,1.734,1.734,0,0,1,.01.381l.144,4.381c.043,1.125.765,1.626,1.955,1.626,1.071,0,1.531-.526,1.531-1.027,0-.856-.221-1.72-.221-2.668v-1.84c0-2-.288-3.04-1.979-3.64,1.461-.587,2.075-1.62,2.075-3.886,0-2.427-.98-4.4-3.859-4.4h-4.407c-1.17,0-1.709.525-1.709,1.708Z"/>
        <g>
          <path d="M331.482,257.25c0,1.327-.639,1.94-1.61,1.94-.991,0-1.629-.613-1.629-1.94V246.11c0-1.322.638-1.925,1.629-1.925.971,0,1.61.6,1.61,1.925Z"/>
          <path d="M331.729,240.265a1.892,1.892,0,0,1-1.855,1.9,1.935,1.935,0,0,1-1.858-1.9,1.857,1.857,0,0,1,3.713,0"/>
        </g>
        <path d="M341.058,235.74a1.72,1.72,0,0,1-1.679,1.739,1.772,1.772,0,0,1-1.7-1.739,1.692,1.692,0,0,1,3.381,0"/>
        <path d="M337,239.724c-.294.876-1.32,4.027-1.32,4.027a26.669,26.669,0,0,0-1.308,4.081c0,.329.2.665.868.665a5.143,5.143,0,0,0,4.288-2.278c.071-.115.043-.161-.009-.223l-.262-.275a.13.13,0,0,0-.179.027c-.141.2-1.187,1.366-1.633,1.366-.23,0-.282-.15-.282-.311a5.077,5.077,0,0,1,.354-1.349l1.632-4.589c.426-1.273.383-1.664-.45-1.986a1.154,1.154,0,0,0-1.7.845Z"/>
        <g>
          <path d="M303.437,250.625l-33.6,17.98c-5.46,2.934-5.46-3.283-5.46-3.283V230.063c0-6.215,5.46-3.284,5.46-3.284l33.6,17.991C308.912,247.693,303.437,250.625,303.437,250.625Z" fill="none"/>
          <g>
            <path d="M303.123,250.038c-.021.108.108.266.241.14l-.064-.348Z" fill="#202020"/>
            <path d="M304.491,249.828a.617.617,0,0,0-.259-.774c.065.369-.051.308,0,.745a.219.219,0,0,1-.3.07.213.213,0,0,1-.07-.07c-.006.107-.273.108-.245.333a.611.611,0,0,0,.737-.452l.006-.029C304.458,249.659,304.466,249.772,304.491,249.828Z" fill="#202020"/>
            <path d="M292.5,238.386l.091.094A.313.313,0,0,0,292.5,238.386Z" fill="#202020"/>
            <path d="M282.049,232.587c.084.036.133.025.152,0C282.116,232.567,282.045,232.552,282.049,232.587Z" fill="#202020"/>
            <path d="M280.423,231.3l.1.076C280.493,231.331,280.46,231.294,280.423,231.3Z" fill="#202020"/>
            <path d="M292.5,238.386l-.232-.242C292.194,238.229,292.371,238.292,292.5,238.386Z" fill="#202020"/>
            <path d="M305,247.627a.305.305,0,0,0,.086.106.589.589,0,0,1-.034-.1Z" fill="#202020"/>
            <path d="M297.267,240.636l.086.045a.791.791,0,0,0,.134-.08Z" fill="#202020"/>
            <path d="M300.854,242.5c-.075-.054-.235.179-.324.27a.307.307,0,0,1,.267-.075A.535.535,0,0,0,300.854,242.5Z" fill="#202020"/>
            <path d="M305.938,246.664l.094.1Z" fill="#202020"/>
            <path d="M294.745,239.217a.255.255,0,0,0,.015-.106A.176.176,0,0,0,294.745,239.217Z" fill="#202020"/>
            <path d="M298.683,251.672c.007.019.017.028.024.044C298.714,251.68,298.711,251.659,298.683,251.672Z" fill="#202020"/>
            <path d="M303.471,250.689l-.05.044a1.453,1.453,0,0,0,.062.146Z" fill="#202020"/>
            <path d="M277.3,229.223l.012.013C277.416,229.254,277.364,229.233,277.3,229.223Z" fill="#202020"/>
            <path d="M263.21,248.329c.251-.389.322.632.6.047C263.7,248.431,263.373,247.845,263.21,248.329Z" fill="#202020"/>
            <path d="M305.044,247.569a.27.27,0,0,0,0-.094C305.047,247.518,305.031,247.547,305.044,247.569Z" fill="#202020"/>
            <path d="M263.811,248.376h0l.026-.06Z" fill="#202020"/>
            <path d="M269.443,225.309a.355.355,0,0,0,.053.151A.239.239,0,0,0,269.443,225.309Z" fill="#202020"/>
            <path d="M275.1,228.69l-.122-.108A.547.547,0,0,0,275.1,228.69Z" fill="#202020"/>
            <path d="M265.41,225.755c-.11.041-.174.021-.281.145a.272.272,0,0,0,.057,0A.272.272,0,0,1,265.41,225.755Z" fill="#202020"/>
            <path d="M263.607,229.392a.625.625,0,0,0,.061-.065l-.008-.121Z" fill="#202020"/>
            <path d="M289.467,256.757a.836.836,0,0,1,.26.147C289.586,256.753,290,256.45,289.467,256.757Z" fill="#202020"/>
            <path d="M305.161,247.631c-.07-.015-.105-.033-.117-.062a.285.285,0,0,0,.011.065A.161.161,0,0,0,305.161,247.631Z" fill="#202020"/>
            <path d="M266.485,227.688c-.068.026-.115.084-.19.113A.525.525,0,0,0,266.485,227.688Z" fill="#202020"/>
            <path d="M267.79,268.188l.088-.063A.11.11,0,0,0,267.79,268.188Z" fill="#202020"/>
            <path d="M265.939,228.672a.549.549,0,0,0-.234.19.257.257,0,0,0,.061.062Z" fill="#202020"/>
            <path d="M289.623,252.971c-.353.182-.035.33-.033.511-.379.294-.291-.076-.5-.128-.228.2-.3.539-.506.634-.036-.033-.082-.028-.065-.1-.171.344-.815.448-1,.866a.145.145,0,0,1-.076-.038.785.785,0,0,1,.231.312c-.152.089-.208.312-.353.183.1-.047.071-.116.089-.191l-.127.158c-.272-.151.182-.2.09-.372-.281.247-.552.639-.834.7-.173-.2.531-.384.1-.41l.427-.117c-.483-.2.245-.1-.227-.339-.537.2-.5.416-1.034.617-.045.186.137.166.092.353-.589.607-.864-.271-1.225.31-.054.228.047.539-.406.586l-.011-.324c-.5.234-.079.517-.682.616.035-.151.335-.289.245-.28-.437-.027-.151.27-.407.4l-.175-.2c-.5.312-.977.78-1.528,1.128,0-.085.055-.208-.115-.206a7.647,7.647,0,0,1-2.323,1.034l-.161.338c-.063.031-.162-.027-.116-.1-.311.071.053.132-.036.279-.146.1-.264,0-.2-.115a3.6,3.6,0,0,1-1.787,1.147l.066-.111c-.435.131-.227.64-.69.651l.052-.076a10.059,10.059,0,0,1-2.552,1.107c.028.348-.91.325-.754.748a3.623,3.623,0,0,0-1.242.152c-.167.053-.115.359-.3.5l-.095-.212a2.916,2.916,0,0,1-.187.337c-.08-.076-.156-.148-.227-.223l-.163.113c.075-.009.181.053.188.122a.5.5,0,0,1-.234.088.838.838,0,0,1-.227-.05c-.144-.044-.224-.143-.219-.21-.076.015-.167.06-.246.069a1.446,1.446,0,0,1-.246.008c.05-.067.135-.076.2-.119-.308.152.083-.228-.181-.122-.009.055-.1.105-.13.139,0-.186-.169-.347-.328-.584l.165-.028a4.275,4.275,0,0,1-.4-1.584c-.037.142-.125.171-.207.162a.176.176,0,0,1-.173-.175l.246-.087c-.151-.14-.093.228-.28-.06.029-.277.281-.186.361-.028l-.085-.336c.076-.019.113.059.207.076-.152-.138.248-.581-.019-.779l.076-.019c0-.741-.083-1.076-.1-1.679-.214-.012-.166-.248-.338-.427a7.594,7.594,0,0,0,.217-1.469c-.106-.379-.181-.11-.308-.278.195-.028.176-.562.316-.285a8.512,8.512,0,0,0-.2-1.629c-.079.088-.113.188-.18.136-.032-.147.082-.334.175-.313l.02.039c-.291-.91.566-2.1.161-2.824l.02.041-.211-.752c.034-.346.147.207.266-.048-.323-.81.047-1.28-.168-1.948.573-.516-.041-1.833.325-2.529l-.135.04c-.132-.181.076-.218.108-.351-.105.019-.121.195-.194.084a26.578,26.578,0,0,1,.318-4.715c.037-.573-.7-.326-.379-1.047l.251.2c-.3-1.155.01-2.362-.245-3.493.058.068.133.07.132.18.182-.239.009-.883-.14-.887.018-.176.134-.041.21-.152.108-.239-.232-.6-.051-.728.029-.022.059.067.075.111-.088-.157.022-.728-.188-.578.131-.365-.081-.734.118-.966a.314.314,0,0,1,.006-.361c.06-.1.1-.189-.045-.284.3.106.443-.222.455-.43.026.1.157.031.193.178.082-.067.206-.157.135-.321.2.152.342.065.536,0s.386-.081.449.208a3.48,3.48,0,0,1,1.087.152c.407.145.8.3,1.176.455-.188.287-.813-.4-.952-.064a6.286,6.286,0,0,1,1.924.631c.151.135-.17.076-.257.1.75.242,1.308.735,2,.9-.017.028-.1.023-.174.013.126.054.256.193.316.049l-.138-.025c-.084-.3.7-.161.778-.254-.414.283.547.42-.042.743.093.017.228,0,.258-.1.1.089.111.162-.064.2.47.155.395-.072.783.139-.037.066-.129.05-.212.106a1.035,1.035,0,0,1,.834.185c-.041.029-.031.1-.128.048.575.282,1.147.171,1.7.628-.338.19.16.207.059.474l.373.1-.069-.193c.289.161.644.117.851.333l-.271-.012.572.244-.259-.26c.364.03.137-.333.488-.055-.092-.017.291.159.364.387h0a.7.7,0,0,1,.563.171c.014.11-.193.252-.185.325.255-.132.714.308,1.014.182a.25.25,0,0,0-.152.187l.21-.1c.106.125.112.163.034.255.39.249.041-.385.45.009-.045-.006-.041.029-.133.012.446.331.994.394,1.394.716,0,.322-.421-.147-.384.146a14.362,14.362,0,0,1,2.08.8l-.1-.089c.276-.309.369.422.773.423-.091-.015-.207.143-.165.115a6.354,6.354,0,0,0,1.621.612l-.128.048a7.742,7.742,0,0,0,.884.587c.129-.047.276.05.253-.132.557.965,1.744.575,2.252,1.4-.089-.046-.254-.033-.183.005l.675.254c.033-.181-.032-.138-.1-.329a.685.685,0,0,1,.5.059c-.339-.049-.13.249-.053.4,0-.058.075-.088.089-.142.183.455.222-.28.573.146l-.067.068a1.578,1.578,0,0,1,.572.145c-.02.219-.223-.013-.314.128.261.127.683-.069.821.233-.135-.008-.292-.091-.426-.1.139.344.2.307.365.44l-.016-.015.38.327-.076-.116c.568-.3.7.263,1.289.188-.573.065-.159.13-.3.315.08.116.213.268.135.3.291-.054.271.311.682.228-.021.072.215.122.082.262.291.09,0-.147.063-.217a1.122,1.122,0,0,1,.694.391,1.3,1.3,0,0,0,.759.425,5.175,5.175,0,0,0,.6.177.934.934,0,0,1,.535.311c-.025.2-.3,0-.3.012a.85.85,0,0,0,.089.331.9.9,0,0,0,.137.289c-.069-.039-.114.016-.206.076,0,.144.3.131.114.344l-.255-.212a1.2,1.2,0,0,1,.046.638c-.134-.018-.109-.22-.151-.313-.016.221-.248.572-.16.774l.176-.084c-.063.083-.167-.076-.148-.152,0-.272.244-.214.319-.19l-.063.167c.236.06.328-.125.353-.34a4.365,4.365,0,0,0-.046-.593,2.012,2.012,0,0,1,.309.169,1.208,1.208,0,0,0-.266-.367c.064-.076.221-.188.313,0,.071-.322-.134-.227-.091-.511.011-.037.031-.032.055-.013l-.221-.215c.084.016.164-.165.217.028-.041-.314-.273-.416-.413-.52s-.281-.126-.275-.284l.046.013c-.62-.358-.2.117-.758.048q.018-.321.015-.659l-.178.163c-.056-.044-.167-.132-.1-.2-.3,0-.011.111-.212.164-.193-.342-.853-.345-.745-.7-.188.1.216.269-.151.21.1-.4-.393-.134-.575-.437.179-.137.379.095.2-.21-.324.219-.484-.345-.741-.407-.141.237-.544-.162-.966-.283.068-.069-.64-.515-.945-.791l.032-.036c-.2.209-.538-.031-.829-.122a.309.309,0,0,1,.346-.163l-.249-.132a.46.46,0,0,1-.379-.011l.16-.151c-.336-.167-.781-.141-1.142-.491-.115.159.084.658-.427.531.032-.1.1-.268.239-.243-.045-.009-.179,0-.235-.076l.263-.059c-.157-.173-.172.075-.319-.022.076-.13-.064-.156.015-.248.046.008.106.126.192.107a.858.858,0,0,1-.347-.446.168.168,0,0,1-.192.138.264.264,0,0,1-.04-.012c-.336-.167-.029-.22-.185-.391-.129.049-.29-.159-.4.036-.1-.053-.065-.152-.075-.228-.218,0-.813-.4-.733-.089l.036.037-.032-.006h0c-.666-.1-1.106-.737-1.708-.95l.037-.066a4.579,4.579,0,0,0-1.077-.336c-.1-.053-.168-.245-.084-.3a1.007,1.007,0,0,1-.657-.333c.317.021-.034-.151.307.056-.3-.234-.318-.38-.769-.389.212-.1-.134-.345-.318-.379l.166.245a2.255,2.255,0,0,1-.484-.265l.2-.177c-.531-.632-1.464-.192-1.736-.921-.262.06.308.3.051.4-.294-.2-.447-.688-.544-.742-.36-.351-.571.113-.972-.21.015.11-.045.351-.418.247-.295-.2-.2-.537.027-.5.076.033.1.076.083.1.116.025.266.061.189-.09l-.083.057c-.111-.163-.543-.384-.373-.461-.276-.05-.17.076-.018.211-.337-.328-.622-.337-.99-.634.042.076.051.205-.013.169-.549-.421-.346.009-.772-.175-.167-.245.237-.244-.228-.363-.207-.216.06-.239.2-.25-.455-.047-.646-.475-.844-.618l.231.042a1.045,1.045,0,0,1-.332-.13l.027.218c-.1-.089-.2-.142-.161-.207-.175.039-.05.312-.362.328-.112-.163-.517-.165-.455-.4.447.331.06-.24.489-.054a.62.62,0,0,1-.29-.16c0-.033.04-.035.075-.031-.363-.436-.34.125-.819-.138.125-.086.009-.285-.083-.3.193.106-.014.248-.24.243-.259-.257-.372-.11-.531-.207l.162.141c-.126.085-.272-.012-.507-.091.031-.1.227.041.174-.04-.35.081-.424-.5-.834-.543-.111-.163.1-.227,0-.358-.455-.045-.317-.379-.777-.461.027.219.068.191-.291.2l.7.233-.538.01c.194.107.464.119.567.21-.267.024-.228-.005-.2.177-.138-.379-.607-.143-.825-.469l.222-.39c-.369-.424-.932-.237-1.479-.659l.156.172c-.083.057-.176.014-.283-.051a1.05,1.05,0,0,0-.385-.167c.08-.131-.043-.238-.112-.363-.021.1-.545-.2-.691.089a3.606,3.606,0,0,0-.3-.267.8.8,0,0,0-.707.111,1.469,1.469,0,0,1-.647.265c.157-.2-.166-.259.269-.431-.227.011-.446.048-.422.151-.076-.021-.228.061-.367.175s-.27.241-.4.238c-.039.118.036.261-.148.415-.041,0-.053-.053-.053-.053.026.026-.026.11-.047.181s.009.137.125.111a.961.961,0,0,0-.464.342,3.351,3.351,0,0,0-.239.578,2.3,2.3,0,0,1-.326,1.027c.025.4.056.883.076,1.244-.044-.022-.076,0-.058-.068-.14.483.429.3.274.846-.242.281-.131-.291-.223-.116-.492.075.068.663-.22,1.032l-.029-.089c-.168.283.187.689.152,1.151a.085.085,0,0,0-.076,0,3.215,3.215,0,0,1,.4,1.358c-.193-.139-.1-.2-.3-.117.027.2.315-.059.369.339-.105.128-.2.415-.407.455l-.011-.375c-.27.192.01.485-.037.682l-.119-.025c.039.574.336.582.315,1.2l.089-.063c.3.337-.166.282.054.619l-.3.1a7.761,7.761,0,0,1,.346,1.178,3.644,3.644,0,0,1-.468-.986c0,.221.022.75.169.865-.028-.089-.1-.2-.056-.289a1.537,1.537,0,0,1,.347,1.067c-.581-.076-.146,1.146-.6,1.465a11.263,11.263,0,0,1-.057,2.45c.452-.322.013.264.477.208.029.212.022.292-.008.311l-.277.64c-.135.152-.1-.2-.207-.182-.035.463-.2.194-.319.5.166-.062.237.161.174.425l.214-.371c.247.645-.389.558-.144,1.209l-.147-.206c.087.334,0,1.232.37,1.56-.054.059-.18.137-.214-.01-.056.8.4,1.778.167,2.4l-.114-.061c.034.152.214.26.1.446-.047-.009-.113-.06-.12.009a.978.978,0,0,1,.133.593l-.128-.168c-.148.779.31,1.2.389,1.848-.335,0-.443.611-.5.917l-.047-.01a10.8,10.8,0,0,0,.407,2.38,1.268,1.268,0,0,0-.18.509c-.016.1-.029.21-.038.323,0,.052-.009.113-.009.2l0,.215a12.194,12.194,0,0,0,.248,1.689c0-.173.245-.065.352.085.033.262.52.472.253.607l-.048-.081c-.151.323.276.793.719,1.051.1-.1.188-.2.277-.3a1.655,1.655,0,0,0,1.852.478c.607-.168,1.035-.422,1.365-.3.16-.186.433-.3.546-.485l.091.194a7,7,0,0,0,1.346-.682l-.05.2c.345-.17.135-.775.442-.954l.245.232c.59-.321,1.322-.393,1.769-.963a.164.164,0,0,1-.05.2c.283-.142,1.18-.386.871-.719.142.248.623-.3.883-.584l.05.212c.143-.379.116-.455.455-.719.1-.023.159.107.015.123.349-.061.137-.3.55-.394l-.07.191c.314-.152.255-.2.349-.429.152-.178.607-.264.741-.12a.4.4,0,0,1,.287-.4c.058.051.014.125-.008.162.579-.147.644-.623,1.095-.628a.155.155,0,0,0,.119.076,5.6,5.6,0,0,1-.719.348c.092.172.437.026.3.4.194-.271.5-.793.858-.883a.221.221,0,0,1,.076.036l-.023.037a.344.344,0,0,0,.187-.135,1.2,1.2,0,0,0,.293-.091c.114.122.418-.125.585-.206-.114-.18.116-.265-.167-.312.032,0-.019.038-.125.1a.289.289,0,0,0-.059.057v-.022l-.4.228c.076-.166.17-.318.407-.31.02-.167.046-.34.067-.426.364.142.872.052,1.019.182.443-.373,1.137-.7,1.266-1.221.117-.121.217.014.3.04-.063.08-.164.127-.181.2.236-.242.823-.486.759-.769.418-.08-.076.336.39.032l-.026.111c1.18-.124,1.238-1.472,2.583-1.541-.091.009-.136.015-.174-.019,1.344-.431,2.411-1.559,3.808-1.851.379-.113.334-.29.479-.522l.183.162.234-.425c.416-.442,1.145.025,1.615-.641l-.152-.092c.245-.1.689-.472.734-.3.01-.037,0-.181.128-.159l.064.1.47-.484c.481-.16.152.455.809.132.217-.168.515-.671.387-.694-.1.047-.281.066-.345-.035l.189-.172c-.127-.333-.13-.741-.782-.672l-.271.39-.2-.087.309-.177c-.255-.047-.3.139-.379.293a.314.314,0,0,0-.246-.083l-.207.494c-.11-.1.035-.33-.247-.265-.1.227.311.185.076.427-.254-.046-.264-.188-.409.044-.076-.064-.055-.139.009-.219-.135.2-.472.3-.48.522-.279-.076-.606.379-.744.076a1.165,1.165,0,0,1-.37.511c.124-.52-.653.323-.773-.1-.062.441-.758.589-1.077.986.009-.038.027-.113.076-.116a1.414,1.414,0,0,1-.545.057c.111.278-.217.531-.324.8-.418-.1.007-.4-.212-.595.128.205-.379.475-.187.6-.3-.041-.228.023-.455-.134.137.348-.172.163-.244.461-.4.006-.245-.264-.536.02C289.379,253.251,289.623,252.971,289.623,252.971Zm-7.886,4.947h0l.163-.1Zm-.687.371c.088-.037.192-.092.3-.152.059.052.068.133,0,.166.014-.063-.169-.014-.3-.014Zm2.153.524c-.094.085-.152.068-.186.036a1.955,1.955,0,0,0,.178-.124V258.7a.29.29,0,0,1,.01.117Z" fill="#202020"/>
            <path d="M284.23,261.848c.018-.016.024-.033.05-.049a.746.746,0,0,0-.116-.01l-.009.105Z" fill="#202020"/>
            <path d="M292.6,238.5l-.016-.016a.12.12,0,0,1,.021.057A.184.184,0,0,1,292.6,238.5Z" fill="#202020"/>
            <polygon points="268.612 267.76 268.641 267.825 268.686 267.735 268.612 267.76" fill="#202020"/>
            <path d="M297.146,242.021a.149.149,0,0,0,.031.1A.187.187,0,0,0,297.146,242.021Z" fill="#202020"/>
            <path d="M299.274,243.233l.258.251A1.855,1.855,0,0,0,299.274,243.233Z" fill="#202020"/>
            <path d="M300.868,244.244a.417.417,0,0,0,.089-.089h0Z" fill="#202020"/>
            <path d="M274.325,230.409a.29.29,0,0,0-.07-.024C274.079,230.353,274.192,230.389,274.325,230.409Z" fill="#202020"/>
            <path d="M282.488,234.034a1.844,1.844,0,0,1-.315-.018C282.3,234.109,282.408,234.172,282.488,234.034Z" fill="#202020"/>
            <polygon points="266.509 227.683 266.507 227.679 266.485 227.688 266.509 227.683" fill="#202020"/>
            <path d="M281.81,233.816a.624.624,0,0,0,.363.2A.946.946,0,0,0,281.81,233.816Z" fill="#202020"/>
            <path d="M304.536,248.62a.661.661,0,0,1-.058.047.085.085,0,0,1,.029.036C304.516,248.675,304.53,248.648,304.536,248.62Z" fill="#202020"/>
            <path d="M304.507,248.7l-.032.083C304.5,248.758,304.522,248.732,304.507,248.7Z" fill="#202020"/>
            <path d="M304.408,248.966l.067-.18C304.433,248.831,304.377,248.88,304.408,248.966Z" fill="#202020"/>
            <path d="M305.025,247.143l-.1.022A.315.315,0,0,0,305.025,247.143Z" fill="#202020"/>
            <path d="M304.712,246.7c.105.124-.007.383.127.48l.082-.019C304.743,247.182,304.982,246.712,304.712,246.7Z" fill="#202020"/>
            <path d="M302.991,243.982l.521.371c-.046-.148-.106-.345.16-.232C303.12,243.458,303.7,244.413,302.991,243.982Z" fill="#202020"/>
            <path d="M301.331,242.915c.324.116.071-.141.116-.187C301.209,242.713,301.151,242.71,301.331,242.915Z" fill="#202020"/>
            <path d="M288.8,236.2l.151-.21C288.7,235.9,288.9,236.08,288.8,236.2Z" fill="#202020"/>
            <polygon points="285.776 236.085 285.926 236.346 286.144 236.197 285.776 236.085" fill="#202020"/>
            <polygon points="285.22 233.721 285.339 233.743 284.909 233.618 285.22 233.721" fill="#202020"/>
            <path d="M263.428,228.676l.328-.04C263.74,228.431,263.4,228.313,263.428,228.676Z" fill="#202020"/>
            <path d="M263.642,239.142a.423.423,0,0,0-.1.581C263.56,239.491,263.683,239.26,263.642,239.142Z" fill="#202020"/>
            <path d="M266.07,270.435l-.343-.012c.205.047.408.086.607.117Z" fill="#202020"/>
          </g>
        </g>
        <g>
          <path d="M314.944,214.215c-2.316,2.316-4.49,3.9-4.855,3.532s1.215-2.539,3.531-4.855,13.359-12.767,13.725-12.4S317.26,211.9,314.944,214.215Z" style="mix-blend-mode: hard-light"/>
          <path d="M244.924,214.215c2.316,2.316,4.49,3.9,4.856,3.532s-1.216-2.539-3.532-4.855-13.359-12.767-13.724-12.4S242.608,211.9,244.924,214.215Z" style="mix-blend-mode: hard-light"/>
          <path d="M314.944,281.2c-2.316-2.316-4.49-3.9-4.855-3.531s1.215,2.539,3.531,4.855,13.359,12.766,13.725,12.4S317.26,283.52,314.944,281.2Z" style="mix-blend-mode: hard-light"/>
          <path d="M244.924,281.2c2.316-2.316,4.49-3.9,4.856-3.531s-1.216,2.539-3.532,4.855-13.359,12.766-13.724,12.4S242.608,283.52,244.924,281.2Z" style="mix-blend-mode: hard-light"/>
        </g>
        <path d="M274.53,191.142a1,1,0,0,0,.237.4,1.136,1.136,0,0,0,.356.276,1.249,1.249,0,0,0,.592.12,1.375,1.375,0,0,0,.8-.2q.276-.2.83-.566l8.141-6.744a4.929,4.929,0,0,1,.975-.672q.446-.224.789-.356a4.726,4.726,0,0,1,.738-.184l1.555.079a.88.88,0,0,1,.592.185.524.524,0,0,1,.144.368.67.67,0,0,1-.078.329,2.034,2.034,0,0,1-.158.251l-10.617,8.851q-1.053.87-1.791,1.594t-1.212,1.252q-.554.606-.923,1.08l-4.162,8.694a1.962,1.962,0,0,1-.356.514,1.418,1.418,0,0,1-.395.289,1.35,1.35,0,0,1-.368.119,2,2,0,0,1-.251.027h-1.528q-.526,0-.672-.251a1.066,1.066,0,0,1-.145-.54,1.51,1.51,0,0,1,.08-.527c.035-.07.069-.149.105-.237l4.32-9.405a2.6,2.6,0,0,0,.185-1,3.723,3.723,0,0,0-.092-.843A5.613,5.613,0,0,0,272,193.3c-.087-.245-.184-.491-.289-.738l-3.53-8.614a1.291,1.291,0,0,1-.079-.4.614.614,0,0,1,.342-.579.534.534,0,0,1,.343-.1h1.159a2.093,2.093,0,0,1,.632.157,3.106,3.106,0,0,1,.553.369,1.909,1.909,0,0,1,.5.711Zm5.954-5.717a2.518,2.518,0,1,1-.738-1.792A2.437,2.437,0,0,1,280.484,185.425Zm4.03,12.645a.494.494,0,0,0,.132.29.456.456,0,0,0,.448.29,1.225,1.225,0,0,0,.552-.131c.071-.036.151-.08.239-.132l4.4-3.662a3.035,3.035,0,0,1,.528-.343,2.214,2.214,0,0,1,.5-.184,2.769,2.769,0,0,1,.526-.105h1.027a1.323,1.323,0,0,1,.383.118.313.313,0,0,1,.2.3.794.794,0,0,1-.316.553l-5.3,4.479a10.994,10.994,0,0,0-.961.869q-.384.4-.646.686c-.194.21-.36.4-.5.579l-2.161,4.478a1.443,1.443,0,0,1-.3.422,1.284,1.284,0,0,1-.356.237,1.543,1.543,0,0,1-.355.106,2.184,2.184,0,0,1-.252.026.111.111,0,0,1-.078-.026h-1.37a.58.58,0,0,1-.435-.185.6.6,0,0,1-.119-.369,1,1,0,0,1,.053-.316c.035-.106.07-.2.106-.289l2.187-4.8a1.182,1.182,0,0,0,.105-.528,2.018,2.018,0,0,0-.053-.461q-.053-.224-.105-.408l-.158-.422-1.818-4.425a.917.917,0,0,1-.132-.449.352.352,0,0,1,.21-.355,1.037,1.037,0,0,1,.422-.092h.765c.035,0,.109,0,.223.013a1.281,1.281,0,0,1,.369.093,1.54,1.54,0,0,1,.382.223,1,1,0,0,1,.29.382Zm3.609-3.345a1.708,1.708,0,1,1-.5-1.186A1.616,1.616,0,0,1,288.123,194.725Z"/>
      </g>
    </g>
  </g>
</svg>
