<svg xmlns="http://www.w3.org/2000/svg" viewBox="0 0 560 380">
  <g>
    <g>
      <path d="M47.948,250v-8.839h-3.3v-1.182H52.59v1.182H49.274V250Z"/>
      <path d="M51.783,246.367A3.74,3.74,0,0,1,52.9,243.38a3.383,3.383,0,0,1,2.284-.807,3.253,3.253,0,0,1,2.447.982,3.731,3.731,0,0,1,.95,2.71,4.8,4.8,0,0,1-.421,2.205,2.964,2.964,0,0,1-1.223,1.247,3.558,3.558,0,0,1-1.753.444,3.264,3.264,0,0,1-2.465-.977A3.908,3.908,0,0,1,51.783,246.367Zm1.265,0a3.092,3.092,0,0,0,.608,2.089,2.027,2.027,0,0,0,3.056,0,3.168,3.168,0,0,0,.608-2.126,3,3,0,0,0-.611-2.04,2.03,2.03,0,0,0-3.053,0A3.079,3.079,0,0,0,53.048,246.367Z"/>
      <path d="M64.737,250v-.916a2.256,2.256,0,0,1-2.03,1.08,2.847,2.847,0,0,1-1.6-.478,3.159,3.159,0,0,1-1.129-1.336,4.65,4.65,0,0,1-.4-1.973,5.15,5.15,0,0,1,.362-1.972,2.865,2.865,0,0,1,1.087-1.357,2.9,2.9,0,0,1,1.62-.472,2.429,2.429,0,0,1,2,1v-3.595h1.224V250Zm-3.889-3.623a3.146,3.146,0,0,0,.588,2.085,1.769,1.769,0,0,0,1.387.69,1.736,1.736,0,0,0,1.37-.659,3.036,3.036,0,0,0,.565-2.013,3.42,3.42,0,0,0-.574-2.188,1.766,1.766,0,0,0-1.415-.7,1.7,1.7,0,0,0-1.371.67A3.307,3.307,0,0,0,60.848,246.374Z"/>
      <path d="M72.551,249.1a4.566,4.566,0,0,1-1.317.82,3.785,3.785,0,0,1-1.356.239,2.636,2.636,0,0,1-1.839-.584,1.931,1.931,0,0,1-.643-1.494,2.026,2.026,0,0,1,.879-1.682,3.029,3.029,0,0,1,.885-.4,9.09,9.09,0,0,1,1.094-.185,11.208,11.208,0,0,0,2.194-.423c.005-.168.007-.276.007-.322a1.355,1.355,0,0,0-.349-1.059,2.059,2.059,0,0,0-1.4-.417,2.169,2.169,0,0,0-1.281.3,1.847,1.847,0,0,0-.612,1.077l-1.2-.164a2.99,2.99,0,0,1,.54-1.247,2.361,2.361,0,0,1,1.087-.732,4.846,4.846,0,0,1,1.648-.257,4.363,4.363,0,0,1,1.511.219,1.982,1.982,0,0,1,.854.551,1.923,1.923,0,0,1,.383.837,6.947,6.947,0,0,1,.061,1.134v1.641a17.479,17.479,0,0,0,.079,2.171,2.74,2.74,0,0,0,.311.871H72.8A2.636,2.636,0,0,1,72.551,249.1Zm-.1-2.748a9,9,0,0,1-2.01.464,4.772,4.772,0,0,0-1.073.246,1.077,1.077,0,0,0-.485.4,1.086,1.086,0,0,0,.2,1.4,1.6,1.6,0,0,0,1.09.328,2.544,2.544,0,0,0,1.265-.31,1.92,1.92,0,0,0,.813-.852,2.951,2.951,0,0,0,.2-1.23Z"/>
      <path d="M75.107,247.83l1.217-.191a1.7,1.7,0,0,0,.571,1.121,1.988,1.988,0,0,0,1.309.389,1.93,1.93,0,0,0,1.258-.344,1.035,1.035,0,0,0,.41-.811.747.747,0,0,0-.362-.656,5.364,5.364,0,0,0-1.258-.417,11.6,11.6,0,0,1-1.877-.591,1.787,1.787,0,0,1-1.062-1.665,1.867,1.867,0,0,1,.222-.9,1.991,1.991,0,0,1,.605-.688,2.516,2.516,0,0,1,.782-.358,3.691,3.691,0,0,1,1.063-.148,4.206,4.206,0,0,1,1.5.246,2.044,2.044,0,0,1,.953.667,2.608,2.608,0,0,1,.424,1.124l-1.2.164a1.323,1.323,0,0,0-.474-.875,1.746,1.746,0,0,0-1.112-.314,2.019,2.019,0,0,0-1.21.28.819.819,0,0,0-.362.656.683.683,0,0,0,.15.431,1.074,1.074,0,0,0,.472.328q.185.069,1.087.315a15.093,15.093,0,0,1,1.822.571,1.844,1.844,0,0,1,.81.646,1.8,1.8,0,0,1,.294,1.052,2.054,2.054,0,0,1-.36,1.159,2.306,2.306,0,0,1-1.035.841,3.754,3.754,0,0,1-1.531.3,3.4,3.4,0,0,1-2.156-.588A2.729,2.729,0,0,1,75.107,247.83Z"/>
      <path d="M91.227,249.1a4.579,4.579,0,0,1-1.317.82,3.785,3.785,0,0,1-1.356.239,2.636,2.636,0,0,1-1.839-.584,1.931,1.931,0,0,1-.643-1.494,2,2,0,0,1,.242-.974,2.018,2.018,0,0,1,.637-.708,3.029,3.029,0,0,1,.885-.4,9.054,9.054,0,0,1,1.094-.185,11.224,11.224,0,0,0,2.194-.423c.005-.168.007-.276.007-.322a1.355,1.355,0,0,0-.349-1.059,2.059,2.059,0,0,0-1.4-.417,2.169,2.169,0,0,0-1.281.3,1.853,1.853,0,0,0-.613,1.077l-1.2-.164a2.99,2.99,0,0,1,.54-1.247,2.361,2.361,0,0,1,1.087-.732,4.846,4.846,0,0,1,1.648-.257,4.353,4.353,0,0,1,1.51.219,1.98,1.98,0,0,1,.855.551,1.946,1.946,0,0,1,.383.837,6.947,6.947,0,0,1,.061,1.134v1.641a17.479,17.479,0,0,0,.079,2.171,2.74,2.74,0,0,0,.311.871H91.473A2.636,2.636,0,0,1,91.227,249.1Zm-.1-2.748a9,9,0,0,1-2.01.464,4.758,4.758,0,0,0-1.073.246,1.077,1.077,0,0,0-.485.4,1.086,1.086,0,0,0,.2,1.4,1.6,1.6,0,0,0,1.09.328,2.538,2.538,0,0,0,1.264-.31,1.922,1.922,0,0,0,.814-.852,2.951,2.951,0,0,0,.2-1.23Z"/>
      <path d="M93.783,247.83,95,247.639a1.7,1.7,0,0,0,.57,1.121,1.991,1.991,0,0,0,1.31.389,1.932,1.932,0,0,0,1.258-.344,1.035,1.035,0,0,0,.41-.811.747.747,0,0,0-.362-.656,5.364,5.364,0,0,0-1.258-.417,11.535,11.535,0,0,1-1.877-.591,1.79,1.79,0,0,1-1.063-1.665,1.868,1.868,0,0,1,.223-.9,1.988,1.988,0,0,1,.6-.688,2.533,2.533,0,0,1,.783-.358,3.691,3.691,0,0,1,1.063-.148,4.214,4.214,0,0,1,1.5.246,2.044,2.044,0,0,1,.953.667,2.621,2.621,0,0,1,.424,1.124l-1.2.164a1.32,1.32,0,0,0-.475-.875,1.741,1.741,0,0,0-1.111-.314,2.019,2.019,0,0,0-1.21.28.819.819,0,0,0-.362.656.683.683,0,0,0,.15.431,1.074,1.074,0,0,0,.472.328q.184.069,1.087.315a15.093,15.093,0,0,1,1.822.571,1.844,1.844,0,0,1,.81.646,1.8,1.8,0,0,1,.294,1.052,2.062,2.062,0,0,1-.36,1.159,2.306,2.306,0,0,1-1.035.841,3.754,3.754,0,0,1-1.531.3,3.405,3.405,0,0,1-2.157-.588A2.728,2.728,0,0,1,93.783,247.83Z"/>
      <path d="M38.631,266.8v-7.26h1.107v1.032a2.61,2.61,0,0,1,2.311-1.2,3.04,3.04,0,0,1,1.207.236,1.913,1.913,0,0,1,.823.619,2.362,2.362,0,0,1,.383.909,7.013,7.013,0,0,1,.068,1.2V266.8H43.3v-4.416a3.3,3.3,0,0,0-.144-1.124,1.173,1.173,0,0,0-.51-.6,1.616,1.616,0,0,0-.857-.223,2,2,0,0,0-1.357.5,2.465,2.465,0,0,0-.571,1.894V266.8Z"/>
      <path d="M46.711,266.8v-6.3H45.624v-.957h1.087v-.772a3.369,3.369,0,0,1,.13-1.087,1.573,1.573,0,0,1,.626-.776,2.255,2.255,0,0,1,1.254-.3,6.045,6.045,0,0,1,1.148.124l-.184,1.073a4.189,4.189,0,0,0-.725-.069,1.08,1.08,0,0,0-.793.24,1.3,1.3,0,0,0-.232.9v.67H49.35v.957H47.935v6.3Z"/>
      <path d="M49.849,263.167a3.743,3.743,0,0,1,1.121-2.987,3.381,3.381,0,0,1,2.283-.807,3.257,3.257,0,0,1,2.447.981,3.73,3.73,0,0,1,.95,2.71,4.815,4.815,0,0,1-.42,2.206,2.978,2.978,0,0,1-1.224,1.247,3.56,3.56,0,0,1-1.753.444,3.256,3.256,0,0,1-2.464-.978A3.9,3.9,0,0,1,49.849,263.167Zm1.264,0a3.092,3.092,0,0,0,.609,2.089,2.026,2.026,0,0,0,3.055,0,3.157,3.157,0,0,0,.609-2.126,2.993,2.993,0,0,0-.613-2.04,2.027,2.027,0,0,0-3.051,0A3.077,3.077,0,0,0,51.113,263.167Z"/>
      <path d="M58.079,266.8v-7.26h1.108v1.1a3,3,0,0,1,.782-1.019,1.37,1.37,0,0,1,.79-.246,2.4,2.4,0,0,1,1.264.4l-.423,1.141a1.759,1.759,0,0,0-.9-.266,1.17,1.17,0,0,0-.724.243,1.3,1.3,0,0,0-.458.673,4.78,4.78,0,0,0-.2,1.435v3.8Z"/>
      <path d="M62.755,266.8v-7.26h1.1v1.019a2.593,2.593,0,0,1,.91-.858,2.549,2.549,0,0,1,1.292-.325,2.39,2.39,0,0,1,1.322.335,1.786,1.786,0,0,1,.728.937,2.609,2.609,0,0,1,2.243-1.272,2.206,2.206,0,0,1,1.661.6,2.554,2.554,0,0,1,.581,1.841V266.8H71.368v-4.573a3.352,3.352,0,0,0-.12-1.063,1.03,1.03,0,0,0-.434-.523,1.353,1.353,0,0,0-.738-.2,1.718,1.718,0,0,0-1.271.51,2.238,2.238,0,0,0-.506,1.63V266.8H67.068V262.08a2.069,2.069,0,0,0-.3-1.23,1.142,1.142,0,0,0-.985-.411,1.8,1.8,0,0,0-.961.274,1.556,1.556,0,0,0-.638.8,4.478,4.478,0,0,0-.2,1.517V266.8Z"/>
      <path d="M79.154,265.9a4.545,4.545,0,0,1-1.316.821,3.786,3.786,0,0,1-1.357.239,2.634,2.634,0,0,1-1.838-.584A1.932,1.932,0,0,1,74,264.883a2.02,2.02,0,0,1,.879-1.682,3,3,0,0,1,.885-.4,8.868,8.868,0,0,1,1.093-.185,11.131,11.131,0,0,0,2.2-.424c0-.168.007-.275.007-.321a1.359,1.359,0,0,0-.349-1.059,2.059,2.059,0,0,0-1.4-.417,2.173,2.173,0,0,0-1.282.3,1.855,1.855,0,0,0-.612,1.076l-1.2-.164a2.989,2.989,0,0,1,.54-1.247,2.362,2.362,0,0,1,1.087-.731,4.84,4.84,0,0,1,1.647-.257,4.363,4.363,0,0,1,1.511.219,1.98,1.98,0,0,1,.855.551,1.934,1.934,0,0,1,.382.836,6.919,6.919,0,0,1,.062,1.135v1.641a17.281,17.281,0,0,0,.079,2.171,2.716,2.716,0,0,0,.311.871H79.4A2.635,2.635,0,0,1,79.154,265.9Zm-.1-2.748a8.95,8.95,0,0,1-2.01.465,4.649,4.649,0,0,0-1.073.246,1.085,1.085,0,0,0-.486.4,1.088,1.088,0,0,0,.2,1.4,1.6,1.6,0,0,0,1.089.328,2.539,2.539,0,0,0,1.265-.31,1.927,1.927,0,0,0,.814-.852,2.973,2.973,0,0,0,.2-1.231Z"/>
      <path d="M86.94,264.138l1.21.157a3.137,3.137,0,0,1-1.015,1.959,2.953,2.953,0,0,1-2.006.707,3.118,3.118,0,0,1-2.4-.974,3.955,3.955,0,0,1-.905-2.793,5.05,5.05,0,0,1,.39-2.057,2.721,2.721,0,0,1,1.185-1.323,3.537,3.537,0,0,1,1.734-.441,3.006,3.006,0,0,1,1.934.6,2.736,2.736,0,0,1,.964,1.7l-1.2.184a1.978,1.978,0,0,0-.606-1.1,1.562,1.562,0,0,0-1.048-.369,1.909,1.909,0,0,0-1.511.667,3.158,3.158,0,0,0-.581,2.108,3.272,3.272,0,0,0,.56,2.126,1.821,1.821,0,0,0,1.463.663,1.72,1.72,0,0,0,1.21-.444A2.2,2.2,0,0,0,86.94,264.138Zm-2.85,3.575.355-1.21h.916l-.225.731a1.448,1.448,0,0,1,.875.36.889.889,0,0,1,.294.645,1.146,1.146,0,0,1-.492.907,2.359,2.359,0,0,1-1.484.392,5.193,5.193,0,0,1-.984-.082l.075-.8c.291.019.506.028.643.028a1.676,1.676,0,0,0,.9-.178.4.4,0,0,0,.2-.335.335.335,0,0,0-.079-.219.622.622,0,0,0-.29-.164A2.718,2.718,0,0,0,84.09,267.713Z"/>
      <path d="M88.745,263.167a3.743,3.743,0,0,1,1.121-2.987,3.382,3.382,0,0,1,2.283-.807,3.26,3.26,0,0,1,2.448.981,3.734,3.734,0,0,1,.95,2.71,4.828,4.828,0,0,1-.42,2.206,2.981,2.981,0,0,1-1.225,1.247,3.56,3.56,0,0,1-1.753.444,3.255,3.255,0,0,1-2.463-.978A3.9,3.9,0,0,1,88.745,263.167Zm1.114-4.7a1.572,1.572,0,0,1,.39-1.135,1.3,1.3,0,0,1,1-.424,2.809,2.809,0,0,1,1.155.369,1.541,1.541,0,0,0,.643.2.448.448,0,0,0,.335-.119.881.881,0,0,0,.164-.475h.889a1.7,1.7,0,0,1-.394,1.169,1.253,1.253,0,0,1-.946.389,2.578,2.578,0,0,1-1.135-.382,1.668,1.668,0,0,0-.67-.247.475.475,0,0,0-.376.165.676.676,0,0,0-.143.485Zm.151,4.7a3.1,3.1,0,0,0,.608,2.089,2.027,2.027,0,0,0,3.056,0,3.163,3.163,0,0,0,.608-2.126,3,3,0,0,0-.612-2.04,2.029,2.029,0,0,0-3.052,0A3.082,3.082,0,0,0,90.01,263.167Z"/>
      <path d="M101.959,264.459l1.271.157a3.106,3.106,0,0,1-1.114,1.73,3.775,3.775,0,0,1-4.6-.366,3.837,3.837,0,0,1-.933-2.751,4.018,4.018,0,0,1,.943-2.844,3.2,3.2,0,0,1,2.448-1.012,3.109,3.109,0,0,1,2.379.991,3.94,3.94,0,0,1,.922,2.789c0,.074,0,.183-.006.328H97.851a2.782,2.782,0,0,0,.676,1.832,2.017,2.017,0,0,0,1.518.636,1.882,1.882,0,0,0,1.155-.355A2.36,2.36,0,0,0,101.959,264.459Zm-4.04-1.989h4.054a2.454,2.454,0,0,0-.465-1.374,1.889,1.889,0,0,0-1.525-.711,1.951,1.951,0,0,0-1.424.567A2.246,2.246,0,0,0,97.919,262.47Z"/>
      <path d="M104.283,264.63l1.217-.192a1.7,1.7,0,0,0,.57,1.122,2,2,0,0,0,1.31.389,1.926,1.926,0,0,0,1.258-.345,1.033,1.033,0,0,0,.41-.81.747.747,0,0,0-.362-.656,5.315,5.315,0,0,0-1.258-.417,11.535,11.535,0,0,1-1.877-.591,1.792,1.792,0,0,1-1.063-1.665,1.874,1.874,0,0,1,.223-.9,1.994,1.994,0,0,1,.6-.687,2.533,2.533,0,0,1,.783-.358,3.691,3.691,0,0,1,1.063-.148,4.214,4.214,0,0,1,1.5.246,2.044,2.044,0,0,1,.953.667,2.61,2.61,0,0,1,.424,1.124l-1.2.164a1.32,1.32,0,0,0-.475-.875,1.741,1.741,0,0,0-1.111-.314,2.019,2.019,0,0,0-1.21.28.819.819,0,0,0-.362.656.685.685,0,0,0,.15.431,1.074,1.074,0,0,0,.472.328c.123.046.485.15,1.087.315a14.91,14.91,0,0,1,1.822.571,1.849,1.849,0,0,1,.81.645,1.808,1.808,0,0,1,.294,1.053,2.062,2.062,0,0,1-.36,1.159,2.306,2.306,0,0,1-1.035.841,3.771,3.771,0,0,1-1.531.3,3.405,3.405,0,0,1-2.157-.588A2.733,2.733,0,0,1,104.283,264.63Z"/>
      <path d="M35.5,283.6v-7.26H36.6v1.1a3,3,0,0,1,.783-1.018,1.365,1.365,0,0,1,.789-.246,2.4,2.4,0,0,1,1.265.4l-.423,1.142a1.761,1.761,0,0,0-.9-.267,1.166,1.166,0,0,0-.724.243,1.311,1.311,0,0,0-.459.673,4.787,4.787,0,0,0-.205,1.436v3.8Z"/>
      <path d="M45.143,281.26l1.271.157a3.1,3.1,0,0,1-1.115,1.729,3.771,3.771,0,0,1-4.6-.366,3.831,3.831,0,0,1-.933-2.751,4.007,4.007,0,0,1,.943-2.843,3.192,3.192,0,0,1,2.447-1.012,3.1,3.1,0,0,1,2.379.991,3.938,3.938,0,0,1,.924,2.789c0,.072,0,.182-.008.328H41.033a2.792,2.792,0,0,0,.678,1.832,2.013,2.013,0,0,0,1.518.636,1.885,1.885,0,0,0,1.154-.355A2.377,2.377,0,0,0,45.143,281.26ZM41.1,279.271h4.054a2.454,2.454,0,0,0-.465-1.375,1.885,1.885,0,0,0-1.525-.71,1.954,1.954,0,0,0-1.425.567A2.241,2.241,0,0,0,41.1,279.271Z"/>
      <path d="M47.932,283.6V273.576h1.23V283.6Z"/>
      <path d="M55.807,282.7a4.6,4.6,0,0,1-1.317.82,3.794,3.794,0,0,1-1.357.24,2.641,2.641,0,0,1-1.838-.585,1.928,1.928,0,0,1-.643-1.493,1.976,1.976,0,0,1,.243-.975A2.01,2.01,0,0,1,51.53,280a2.97,2.97,0,0,1,.886-.4,8.456,8.456,0,0,1,1.094-.185,11.271,11.271,0,0,0,2.193-.424c0-.169.008-.276.008-.321a1.356,1.356,0,0,0-.35-1.06,2.056,2.056,0,0,0-1.4-.417,2.18,2.18,0,0,0-1.282.3,1.859,1.859,0,0,0-.613,1.077l-1.2-.164a2.994,2.994,0,0,1,.541-1.248,2.371,2.371,0,0,1,1.086-.731,4.857,4.857,0,0,1,1.649-.256,4.319,4.319,0,0,1,1.509.219,2,2,0,0,1,.856.549,1.955,1.955,0,0,1,.383.838,6.978,6.978,0,0,1,.06,1.135v1.641a17.683,17.683,0,0,0,.079,2.17,2.741,2.741,0,0,0,.312.872H56.053A2.6,2.6,0,0,1,55.807,282.7Zm-.1-2.748a9.048,9.048,0,0,1-2.01.465,4.546,4.546,0,0,0-1.072.246,1.077,1.077,0,0,0-.486.4,1.092,1.092,0,0,0,.2,1.406,1.609,1.609,0,0,0,1.091.328,2.527,2.527,0,0,0,1.263-.312,1.92,1.92,0,0,0,.815-.85,2.985,2.985,0,0,0,.2-1.231Z"/>
      <path d="M63.592,280.938l1.211.158a3.141,3.141,0,0,1-1.016,1.958,2.961,2.961,0,0,1-2.006.708,3.114,3.114,0,0,1-2.4-.975A3.95,3.95,0,0,1,58.479,280a5.043,5.043,0,0,1,.39-2.057,2.715,2.715,0,0,1,1.186-1.324,3.515,3.515,0,0,1,1.732-.44,3.021,3.021,0,0,1,1.936.6,2.745,2.745,0,0,1,.963,1.7l-1.2.184a1.986,1.986,0,0,0-.605-1.1,1.565,1.565,0,0,0-1.049-.369,1.911,1.911,0,0,0-1.512.666,3.171,3.171,0,0,0-.58,2.109,3.269,3.269,0,0,0,.561,2.126,1.826,1.826,0,0,0,1.463.663,1.725,1.725,0,0,0,1.209-.444A2.2,2.2,0,0,0,63.592,280.938Z"/>
      <path d="M65.861,274.991v-1.415h1.231v1.415Zm0,8.607v-7.26h1.231v7.26Z"/>
      <path d="M68.508,279.968a3.74,3.74,0,0,1,1.121-2.988,3.375,3.375,0,0,1,2.283-.806,3.259,3.259,0,0,1,2.447.98,3.737,3.737,0,0,1,.95,2.711,4.8,4.8,0,0,1-.42,2.2,2.975,2.975,0,0,1-1.224,1.248,3.567,3.567,0,0,1-1.753.445,3.265,3.265,0,0,1-2.465-.978A3.9,3.9,0,0,1,68.508,279.968Zm1.263,0a3.089,3.089,0,0,0,.61,2.088,2.025,2.025,0,0,0,3.055,0,3.164,3.164,0,0,0,.609-2.126,3,3,0,0,0-.612-2.041,2.028,2.028,0,0,0-3.052,0A3.075,3.075,0,0,0,69.771,279.968Z"/>
      <path d="M76.752,283.6v-7.26h1.107v1.032a2.609,2.609,0,0,1,2.311-1.2,3.031,3.031,0,0,1,1.206.235,1.886,1.886,0,0,1,.823.619,2.345,2.345,0,0,1,.383.91,6.989,6.989,0,0,1,.068,1.2V283.6H81.42v-4.416a3.313,3.313,0,0,0-.143-1.125,1.18,1.18,0,0,0-.509-.6,1.624,1.624,0,0,0-.858-.222,1.993,1.993,0,0,0-1.357.5,2.46,2.46,0,0,0-.571,1.894V283.6Z"/>
      <path d="M89.275,282.7a4.6,4.6,0,0,1-1.316.82,3.794,3.794,0,0,1-1.357.24,2.639,2.639,0,0,1-1.838-.585,1.928,1.928,0,0,1-.643-1.493A2.018,2.018,0,0,1,85,280a2.97,2.97,0,0,1,.886-.4,8.456,8.456,0,0,1,1.094-.185,11.271,11.271,0,0,0,2.193-.424c.005-.169.008-.276.008-.321a1.356,1.356,0,0,0-.35-1.06,2.056,2.056,0,0,0-1.4-.417,2.186,2.186,0,0,0-1.283.3,1.863,1.863,0,0,0-.612,1.077l-1.2-.164a2.982,2.982,0,0,1,.541-1.248,2.366,2.366,0,0,1,1.086-.731,4.851,4.851,0,0,1,1.648-.256,4.326,4.326,0,0,1,1.51.219,2,2,0,0,1,.856.549,1.954,1.954,0,0,1,.382.838,6.945,6.945,0,0,1,.061,1.135v1.641a17.47,17.47,0,0,0,.079,2.17,2.717,2.717,0,0,0,.312.872H89.521A2.641,2.641,0,0,1,89.275,282.7Zm-.1-2.748a9.048,9.048,0,0,1-2.01.465,4.533,4.533,0,0,0-1.072.246,1.077,1.077,0,0,0-.486.4,1.092,1.092,0,0,0,.2,1.406,1.608,1.608,0,0,0,1.09.328,2.528,2.528,0,0,0,1.264-.312,1.925,1.925,0,0,0,.815-.85,3,3,0,0,0,.2-1.231Z"/>
      <path d="M97.033,283.6v-.916A2.259,2.259,0,0,1,95,283.762a2.851,2.851,0,0,1-1.6-.479,3.147,3.147,0,0,1-1.128-1.337,4.622,4.622,0,0,1-.4-1.971A5.159,5.159,0,0,1,92.242,278a2.855,2.855,0,0,1,1.086-1.356,2.907,2.907,0,0,1,1.621-.472,2.415,2.415,0,0,1,2,1v-3.6h1.225V283.6Zm-3.888-3.623a3.155,3.155,0,0,0,.587,2.085,1.772,1.772,0,0,0,1.387.69,1.74,1.74,0,0,0,1.371-.66,3.042,3.042,0,0,0,.565-2.013,3.408,3.408,0,0,0-.575-2.187,1.767,1.767,0,0,0-1.416-.7,1.7,1.7,0,0,0-1.37.67A3.314,3.314,0,0,0,93.145,279.975Z"/>
      <path d="M104.848,282.7a4.6,4.6,0,0,1-1.317.82,3.794,3.794,0,0,1-1.357.24,2.641,2.641,0,0,1-1.838-.585,1.928,1.928,0,0,1-.643-1.493,1.976,1.976,0,0,1,.243-.975,2.01,2.01,0,0,1,.635-.707,2.97,2.97,0,0,1,.886-.4,8.488,8.488,0,0,1,1.094-.185,11.271,11.271,0,0,0,2.193-.424c0-.169.008-.276.008-.321a1.356,1.356,0,0,0-.35-1.06,2.056,2.056,0,0,0-1.4-.417,2.18,2.18,0,0,0-1.282.3,1.859,1.859,0,0,0-.613,1.077l-1.2-.164a2.994,2.994,0,0,1,.541-1.248,2.371,2.371,0,0,1,1.086-.731,4.857,4.857,0,0,1,1.649-.256,4.319,4.319,0,0,1,1.509.219,2,2,0,0,1,.856.549,1.955,1.955,0,0,1,.383.838,6.978,6.978,0,0,1,.06,1.135v1.641a17.683,17.683,0,0,0,.079,2.17,2.741,2.741,0,0,0,.312.872h-1.285A2.6,2.6,0,0,1,104.848,282.7Zm-.1-2.748a9.048,9.048,0,0,1-2.01.465,4.546,4.546,0,0,0-1.072.246,1.077,1.077,0,0,0-.486.4,1.061,1.061,0,0,0-.17.585,1.046,1.046,0,0,0,.372.821,1.609,1.609,0,0,0,1.091.328,2.527,2.527,0,0,0,1.263-.312,1.92,1.92,0,0,0,.815-.85,2.985,2.985,0,0,0,.2-1.231Z"/>
      <path d="M107.4,281.431l1.217-.192a1.7,1.7,0,0,0,.57,1.121,1.989,1.989,0,0,0,1.309.39,1.92,1.92,0,0,0,1.258-.346,1.031,1.031,0,0,0,.41-.809.748.748,0,0,0-.361-.657,5.333,5.333,0,0,0-1.258-.417,11.434,11.434,0,0,1-1.877-.591,1.792,1.792,0,0,1-1.063-1.664,1.886,1.886,0,0,1,.222-.9,1.985,1.985,0,0,1,.605-.686,2.545,2.545,0,0,1,.783-.36,3.749,3.749,0,0,1,1.062-.146,4.2,4.2,0,0,1,1.5.246,2.041,2.041,0,0,1,.954.666,2.61,2.61,0,0,1,.424,1.125l-1.2.164a1.312,1.312,0,0,0-.476-.875,1.732,1.732,0,0,0-1.11-.314,2.008,2.008,0,0,0-1.211.28.814.814,0,0,0-.361.656.683.683,0,0,0,.15.431,1.087,1.087,0,0,0,.471.328q.184.067,1.088.314a15.311,15.311,0,0,1,1.821.571,1.839,1.839,0,0,1,.81.646,1.8,1.8,0,0,1,.3,1.053,2.067,2.067,0,0,1-.36,1.158,2.318,2.318,0,0,1-1.035.841,3.774,3.774,0,0,1-1.531.3,3.418,3.418,0,0,1-2.157-.588A2.734,2.734,0,0,1,107.4,281.431Z"/>
      <path d="M59.316,299.5a4.584,4.584,0,0,1-1.316.82,3.807,3.807,0,0,1-1.356.24,2.64,2.64,0,0,1-1.839-.585,1.932,1.932,0,0,1-.643-1.494,2.016,2.016,0,0,1,.879-1.681,2.98,2.98,0,0,1,.885-.4,8.524,8.524,0,0,1,1.094-.184,11.285,11.285,0,0,0,2.194-.424c.005-.169.007-.276.007-.321a1.36,1.36,0,0,0-.349-1.06,2.059,2.059,0,0,0-1.4-.417,2.182,2.182,0,0,0-1.282.3,1.855,1.855,0,0,0-.612,1.077l-1.2-.164a2.982,2.982,0,0,1,.54-1.248A2.371,2.371,0,0,1,56,293.229a4.866,4.866,0,0,1,1.647-.255,4.362,4.362,0,0,1,1.511.218,1.988,1.988,0,0,1,.855.55,1.943,1.943,0,0,1,.382.838,6.8,6.8,0,0,1,.062,1.135v1.64a17.239,17.239,0,0,0,.079,2.17,2.721,2.721,0,0,0,.311.872H59.563A2.652,2.652,0,0,1,59.316,299.5Zm-.1-2.748a9.048,9.048,0,0,1-2.01.465,4.544,4.544,0,0,0-1.073.246,1.073,1.073,0,0,0-.485.4,1.089,1.089,0,0,0,.2,1.406,1.6,1.6,0,0,0,1.09.328,2.528,2.528,0,0,0,1.264-.312,1.923,1.923,0,0,0,.814-.85,2.983,2.983,0,0,0,.2-1.231Z"/>
      <path d="M68.271,300.4l-2.761-7.259h1.3l1.558,4.347q.252.7.465,1.463.164-.574.458-1.381l1.613-4.429h1.265L69.42,300.4Z"/>
      <path d="M72.8,296.768a3.74,3.74,0,0,1,1.121-2.988,3.377,3.377,0,0,1,2.283-.806,3.257,3.257,0,0,1,2.447.98,3.736,3.736,0,0,1,.951,2.711,4.789,4.789,0,0,1-.421,2.2,2.978,2.978,0,0,1-1.223,1.248,3.57,3.57,0,0,1-1.754.445,3.27,3.27,0,0,1-2.465-.978A3.908,3.908,0,0,1,72.8,296.768Zm1.265,0a3.085,3.085,0,0,0,.608,2.087,2.025,2.025,0,0,0,3.056,0,3.17,3.17,0,0,0,.608-2.126,3,3,0,0,0-.611-2.041,2.029,2.029,0,0,0-3.053,0A3.075,3.075,0,0,0,74.062,296.768Z"/>
      <path d="M85.778,297.738l1.21.158a3.142,3.142,0,0,1-1.015,1.958,2.959,2.959,0,0,1-2.006.708,3.122,3.122,0,0,1-2.4-.975,3.954,3.954,0,0,1-.9-2.792,5.051,5.051,0,0,1,.39-2.058,2.716,2.716,0,0,1,1.185-1.323,3.523,3.523,0,0,1,1.734-.44,3.017,3.017,0,0,1,1.934.6,2.746,2.746,0,0,1,.964,1.7l-1.2.184a1.981,1.981,0,0,0-.606-1.1,1.563,1.563,0,0,0-1.049-.369,1.91,1.91,0,0,0-1.51.666,3.164,3.164,0,0,0-.581,2.11,3.279,3.279,0,0,0,.56,2.126,1.827,1.827,0,0,0,1.463.663,1.725,1.725,0,0,0,1.21-.445A2.207,2.207,0,0,0,85.778,297.738Z"/>
      <path d="M93.011,298.06l1.271.157a3.1,3.1,0,0,1-1.114,1.729,3.771,3.771,0,0,1-4.6-.366,3.827,3.827,0,0,1-.933-2.751,4.01,4.01,0,0,1,.943-2.844,3.2,3.2,0,0,1,2.447-1.011,3.1,3.1,0,0,1,2.379.991,3.933,3.933,0,0,1,.923,2.789c0,.072,0,.182-.007.328H88.9a2.791,2.791,0,0,0,.677,1.832,2.013,2.013,0,0,0,1.518.636,1.88,1.88,0,0,0,1.155-.356A2.368,2.368,0,0,0,93.011,298.06Zm-2.017-6.987-.772,1.162H88.813l1.477-1.914H91.6l1.538,1.914h-1.4Zm-2.023,5h4.053a2.461,2.461,0,0,0-.464-1.374,1.886,1.886,0,0,0-1.525-.711,1.957,1.957,0,0,0-1.426.568A2.249,2.249,0,0,0,88.971,296.07Z"/>
    </g>
    <g>
      <path d="M62.01,122.994v-13.3h2.3l4.78,7.18,4.8-7.18h2.28v13.3H74.109v-10.46l-4.179,6.28H68.25l-4.16-6.28v10.46Z"/>
      <path d="M81.35,118.754a5.065,5.065,0,0,0,.179,1.269,2.1,2.1,0,0,0,.52.911,2.247,2.247,0,0,0,.961.541,5.425,5.425,0,0,0,1.519.179c.213,0,.448-.009.7-.03s.5-.05.75-.09.48-.08.7-.12.4-.08.549-.12l.181,1.479a12.512,12.512,0,0,1-1.41.291,11,11,0,0,1-1.69.13,9.174,9.174,0,0,1-2.081-.219,3.7,3.7,0,0,1-1.6-.791,3.74,3.74,0,0,1-1.029-1.539,7.01,7.01,0,0,1-.371-2.471,7.752,7.752,0,0,1,.31-2.36,3.866,3.866,0,0,1,.891-1.55,3.345,3.345,0,0,1,1.41-.85,6.179,6.179,0,0,1,1.849-.26,4.824,4.824,0,0,1,1.76.29,3.355,3.355,0,0,1,1.231.81,3.2,3.2,0,0,1,.719,1.26,5.565,5.565,0,0,1,.23,1.66v1.58Zm4.339-1.4q0-2.779-2.06-2.78a1.932,1.932,0,0,0-1.659.7,3.865,3.865,0,0,0-.6,2.081Z"/>
    </g>
    <g>
      <path d="M77.679,226.333c-3.155-14.56-5.367-14.594-6.7-26.132" fill="none" stroke="#000" stroke-miterlimit="10"/>
      <polygon points="75.479 202.962 74.839 203.733 71.048 200.579 68.18 204.591 67.367 204.008 70.861 199.123 75.479 202.962"/>
    </g>
    <g>
      <path d="M74.27,147.274A16.925,16.925,0,1,1,57.345,164.2,16.943,16.943,0,0,1,74.27,147.274m0-2.8A19.725,19.725,0,1,0,93.994,164.2,19.725,19.725,0,0,0,74.27,144.474Z" fill="#5b5d5e"/>
      <path d="M79.189,163.271a6.655,6.655,0,0,1,1.817,1.04,7.445,7.445,0,0,1,1.419,1.506,7.072,7.072,0,0,1,.936,1.874,6.794,6.794,0,0,1,.338,2.137v4.1a1.151,1.151,0,0,1-1.172,1.171H66.133a1.148,1.148,0,0,1-1.17-1.171v-4.1a6.792,6.792,0,0,1,.336-2.137,7.045,7.045,0,0,1,.937-1.874,7.368,7.368,0,0,1,1.42-1.506,6.629,6.629,0,0,1,1.815-1.04,7.91,7.91,0,0,0,2.268,1.17,8.18,8.18,0,0,0,2.591.411A8.038,8.038,0,0,0,79.189,163.271Zm1.29-6.617A5.991,5.991,0,0,1,80,159.04a6.159,6.159,0,0,1-3.265,3.279,6.158,6.158,0,0,1-4.786,0,6.115,6.115,0,0,1-3.278-3.279,6.169,6.169,0,0,1,0-4.786,6.161,6.161,0,0,1,3.278-3.265,6.181,6.181,0,0,1,4.786,0A6.205,6.205,0,0,1,80,154.254,5.964,5.964,0,0,1,80.479,156.654Z" fill="#5b5d5e"/>
    </g>
  </g>
  <g>
    <path d="M147.068,246.484l1.327.335a4.467,4.467,0,0,1-1.5,2.492,4.137,4.137,0,0,1-2.649.858,4.762,4.762,0,0,1-2.636-.66,4.122,4.122,0,0,1-1.545-1.91,6.841,6.841,0,0,1-.53-2.687,5.889,5.889,0,0,1,.6-2.731,4.1,4.1,0,0,1,1.7-1.771,4.976,4.976,0,0,1,2.43-.6,4.11,4.11,0,0,1,2.529.765,3.979,3.979,0,0,1,1.43,2.154l-1.307.307a3.087,3.087,0,0,0-1.012-1.593,2.692,2.692,0,0,0-1.668-.5,3.237,3.237,0,0,0-1.93.554,2.926,2.926,0,0,0-1.091,1.486,6.011,6.011,0,0,0-.315,1.925,6.125,6.125,0,0,0,.373,2.232,2.781,2.781,0,0,0,1.159,1.426,3.252,3.252,0,0,0,1.7.471,2.859,2.859,0,0,0,1.886-.642A3.285,3.285,0,0,0,147.068,246.484Z"/>
    <path d="M149.857,250v-7.26h1.108v1.1a3,3,0,0,1,.783-1.019,1.365,1.365,0,0,1,.789-.246,2.4,2.4,0,0,1,1.266.4l-.424,1.141a1.768,1.768,0,0,0-.9-.266,1.174,1.174,0,0,0-.725.242,1.32,1.32,0,0,0-.459.674,4.78,4.78,0,0,0-.205,1.435V250Z"/>
    <path d="M154.541,241.392v-1.415h1.23v1.415Zm0,8.606v-7.26h1.23V250Z"/>
    <path d="M162.613,247.66l1.272.157a3.1,3.1,0,0,1-1.114,1.73,3.775,3.775,0,0,1-4.6-.366,3.834,3.834,0,0,1-.933-2.751,4.01,4.01,0,0,1,.944-2.844,3.191,3.191,0,0,1,2.447-1.012,3.1,3.1,0,0,1,2.379.991,3.939,3.939,0,0,1,.922,2.789c0,.073,0,.182-.006.329h-5.414a2.788,2.788,0,0,0,.676,1.832,2.018,2.018,0,0,0,1.517.635,1.891,1.891,0,0,0,1.156-.355A2.352,2.352,0,0,0,162.613,247.66Zm-4.039-1.989h4.053a2.454,2.454,0,0,0-.465-1.374,1.879,1.879,0,0,0-1.523-.711,1.951,1.951,0,0,0-1.426.567A2.245,2.245,0,0,0,158.574,245.671Z"/>
    <path d="M174.289,247.66l1.272.157a3.106,3.106,0,0,1-1.114,1.73,3.775,3.775,0,0,1-4.6-.366,3.834,3.834,0,0,1-.933-2.751,4.01,4.01,0,0,1,.944-2.844,3.189,3.189,0,0,1,2.447-1.012,3.105,3.105,0,0,1,2.379.991,3.939,3.939,0,0,1,.922,2.789c0,.073,0,.182-.006.329h-5.414a2.793,2.793,0,0,0,.675,1.832,2.021,2.021,0,0,0,1.518.635,1.891,1.891,0,0,0,1.156-.355A2.352,2.352,0,0,0,174.289,247.66Zm-4.039-1.989H174.3a2.454,2.454,0,0,0-.465-1.374,1.883,1.883,0,0,0-1.524-.711,1.949,1.949,0,0,0-1.425.567A2.245,2.245,0,0,0,170.25,245.671Z"/>
    <path d="M185.732,249.1a4.616,4.616,0,0,1-1.315.82,3.81,3.81,0,0,1-1.356.239,2.639,2.639,0,0,1-1.84-.585,1.93,1.93,0,0,1-.643-1.493,2.023,2.023,0,0,1,.879-1.682,3,3,0,0,1,.885-.4,8.7,8.7,0,0,1,1.094-.185,11.314,11.314,0,0,0,2.195-.423c0-.169.006-.277.006-.322a1.357,1.357,0,0,0-.348-1.059,2.055,2.055,0,0,0-1.4-.417,2.183,2.183,0,0,0-1.282.3,1.866,1.866,0,0,0-.611,1.078l-1.2-.164a2.982,2.982,0,0,1,.539-1.248,2.367,2.367,0,0,1,1.088-.732,4.839,4.839,0,0,1,1.646-.256,4.338,4.338,0,0,1,1.512.219,1.982,1.982,0,0,1,.854.55,1.938,1.938,0,0,1,.383.838,6.9,6.9,0,0,1,.062,1.134v1.641a17.329,17.329,0,0,0,.078,2.17,2.745,2.745,0,0,0,.311.872h-1.285A2.665,2.665,0,0,1,185.732,249.1Zm-.1-2.749a9.077,9.077,0,0,1-2.01.465,4.674,4.674,0,0,0-1.074.246,1.067,1.067,0,0,0-.484.4,1.085,1.085,0,0,0,.2,1.405,1.6,1.6,0,0,0,1.09.328,2.532,2.532,0,0,0,1.265-.311,1.912,1.912,0,0,0,.813-.851,2.972,2.972,0,0,0,.2-1.23Z"/>
    <path d="M193.492,250v-.916a2.26,2.26,0,0,1-2.031,1.08,2.857,2.857,0,0,1-1.6-.478,3.159,3.159,0,0,1-1.128-1.337,4.63,4.63,0,0,1-.4-1.972,5.178,5.178,0,0,1,.361-1.973,2.864,2.864,0,0,1,1.088-1.356,2.9,2.9,0,0,1,1.619-.472,2.422,2.422,0,0,1,2,1v-3.595h1.223V250Zm-3.89-3.623a3.159,3.159,0,0,0,.587,2.085,1.777,1.777,0,0,0,1.389.69,1.737,1.737,0,0,0,1.37-.66,3.037,3.037,0,0,0,.564-2.012,3.418,3.418,0,0,0-.574-2.188,1.765,1.765,0,0,0-1.415-.7,1.7,1.7,0,0,0-1.371.67A3.3,3.3,0,0,0,189.6,246.375Z"/>
    <path d="M196.574,241.392v-1.415h1.231v1.415Zm0,8.606v-7.26h1.231V250Z"/>
    <path d="M204.416,247.339l1.209.157a3.14,3.14,0,0,1-1.015,1.958,2.956,2.956,0,0,1-2.006.708,3.119,3.119,0,0,1-2.4-.974,3.953,3.953,0,0,1-.905-2.792,5.065,5.065,0,0,1,.388-2.058,2.724,2.724,0,0,1,1.187-1.323,3.514,3.514,0,0,1,1.733-.441,3.01,3.01,0,0,1,1.934.6,2.745,2.745,0,0,1,.965,1.7l-1.2.185a1.979,1.979,0,0,0-.6-1.1,1.569,1.569,0,0,0-1.05-.369,1.91,1.91,0,0,0-1.51.666,3.165,3.165,0,0,0-.582,2.109,3.275,3.275,0,0,0,.561,2.126,1.824,1.824,0,0,0,1.463.663,1.728,1.728,0,0,0,1.211-.444A2.212,2.212,0,0,0,204.416,247.339Z"/>
    <path d="M206.686,241.392v-1.415h1.23v1.415Zm0,8.606v-7.26h1.23V250Z"/>
    <path d="M209.33,246.368a3.74,3.74,0,0,1,1.121-2.987,3.379,3.379,0,0,1,2.283-.807,3.258,3.258,0,0,1,2.448.981,3.734,3.734,0,0,1,.951,2.711,4.805,4.805,0,0,1-.421,2.2,2.981,2.981,0,0,1-1.224,1.248,3.564,3.564,0,0,1-1.754.444,3.262,3.262,0,0,1-2.463-.977A3.911,3.911,0,0,1,209.33,246.368Zm1.266,0a3.093,3.093,0,0,0,.607,2.088,2.027,2.027,0,0,0,3.057,0,3.17,3.17,0,0,0,.607-2.126,3,3,0,0,0-.611-2.041,2.031,2.031,0,0,0-3.053,0A3.08,3.08,0,0,0,210.6,246.368Z"/>
    <path d="M217.574,250v-7.26h1.108v1.033a2.608,2.608,0,0,1,2.31-1.2,3.019,3.019,0,0,1,1.207.236,1.889,1.889,0,0,1,.824.619,2.371,2.371,0,0,1,.383.909,7.075,7.075,0,0,1,.069,1.2V250h-1.231v-4.416a3.334,3.334,0,0,0-.144-1.125,1.193,1.193,0,0,0-.509-.595,1.629,1.629,0,0,0-.859-.221,1.991,1.991,0,0,0-1.356.5,2.462,2.462,0,0,0-.571,1.893V250Z"/>
    <path d="M230.33,247.66l1.272.157a3.106,3.106,0,0,1-1.114,1.73,3.775,3.775,0,0,1-4.6-.366,3.834,3.834,0,0,1-.933-2.751,4.01,4.01,0,0,1,.944-2.844,3.189,3.189,0,0,1,2.447-1.012,3.1,3.1,0,0,1,2.379.991,3.939,3.939,0,0,1,.922,2.789c0,.073,0,.182-.006.329h-5.414a2.793,2.793,0,0,0,.675,1.832,2.021,2.021,0,0,0,1.518.635,1.891,1.891,0,0,0,1.156-.355A2.352,2.352,0,0,0,230.33,247.66Zm-4.039-1.989h4.053a2.454,2.454,0,0,0-.465-1.374,1.883,1.883,0,0,0-1.524-.711,1.949,1.949,0,0,0-1.425.567A2.245,2.245,0,0,0,226.291,245.671Z"/>
    <path d="M162.389,264.139l1.209.157a3.14,3.14,0,0,1-1.015,1.958,2.957,2.957,0,0,1-2.007.708,3.114,3.114,0,0,1-2.395-.975,3.946,3.946,0,0,1-.906-2.792,5.046,5.046,0,0,1,.389-2.057,2.722,2.722,0,0,1,1.187-1.324,3.524,3.524,0,0,1,1.733-.44,3.01,3.01,0,0,1,1.934.6,2.739,2.739,0,0,1,.964,1.7l-1.2.184a1.973,1.973,0,0,0-.6-1.1,1.569,1.569,0,0,0-1.05-.369,1.906,1.906,0,0,0-1.51.666,3.159,3.159,0,0,0-.582,2.109,3.275,3.275,0,0,0,.561,2.126,1.824,1.824,0,0,0,1.463.663,1.726,1.726,0,0,0,1.21-.444A2.207,2.207,0,0,0,162.389,264.139Z"/>
    <path d="M164.193,263.168a3.737,3.737,0,0,1,1.121-2.987,3.376,3.376,0,0,1,2.284-.807,3.26,3.26,0,0,1,2.447.98,3.736,3.736,0,0,1,.949,2.711,4.811,4.811,0,0,1-.42,2.2,2.972,2.972,0,0,1-1.223,1.248,3.582,3.582,0,0,1-1.753.444,3.263,3.263,0,0,1-2.465-.978A3.9,3.9,0,0,1,164.193,263.168Zm1.264,0a3.087,3.087,0,0,0,.609,2.088,2.025,2.025,0,0,0,3.055,0,3.164,3.164,0,0,0,.609-2.126,3.006,3.006,0,0,0-.612-2.041,2.03,2.03,0,0,0-3.052,0A3.075,3.075,0,0,0,165.457,263.168Z"/>
    <path d="M172.438,266.8v-7.26h1.107v1.032a2.607,2.607,0,0,1,2.31-1.2,3.036,3.036,0,0,1,1.207.235,1.9,1.9,0,0,1,.823.62,2.365,2.365,0,0,1,.383.909,7.1,7.1,0,0,1,.068,1.2V266.8h-1.231v-4.416a3.317,3.317,0,0,0-.142-1.125,1.191,1.191,0,0,0-.51-.6,1.628,1.628,0,0,0-.857-.222,1.994,1.994,0,0,0-1.358.5,2.46,2.46,0,0,0-.57,1.894V266.8Z"/>
    <path d="M182.91,265.7l.178,1.087a4.638,4.638,0,0,1-.93.11,2.117,2.117,0,0,1-1.039-.212,1.185,1.185,0,0,1-.519-.558,4.371,4.371,0,0,1-.151-1.452V260.5h-.9v-.957h.9v-1.8l1.223-.738v2.536h1.238v.957h-1.238v4.245a2.127,2.127,0,0,0,.065.677.521.521,0,0,0,.212.239.823.823,0,0,0,.42.089A4,4,0,0,0,182.91,265.7Z"/>
    <path d="M189.082,264.46l1.272.157a3.11,3.11,0,0,1-1.114,1.73,3.352,3.352,0,0,1-2.078.615,3.318,3.318,0,0,1-2.526-.982,3.831,3.831,0,0,1-.933-2.751,4.013,4.013,0,0,1,.943-2.843,3.193,3.193,0,0,1,2.448-1.012,3.105,3.105,0,0,1,2.379.991,3.937,3.937,0,0,1,.922,2.789c0,.073,0,.182-.006.328h-5.414a2.788,2.788,0,0,0,.675,1.832,2.019,2.019,0,0,0,1.518.636,1.891,1.891,0,0,0,1.156-.355A2.361,2.361,0,0,0,189.082,264.46Zm-4.039-1.989H189.1a2.448,2.448,0,0,0-.465-1.374,1.883,1.883,0,0,0-1.524-.711,1.949,1.949,0,0,0-1.425.567A2.245,2.245,0,0,0,185.043,262.471Z"/>
    <path d="M196.656,266.8v-1.067a2.653,2.653,0,0,1-2.3,1.231,2.943,2.943,0,0,1-1.2-.246,1.967,1.967,0,0,1-.827-.619,2.321,2.321,0,0,1-.379-.912,6.172,6.172,0,0,1-.076-1.149v-4.5H193.1v4.026a7.066,7.066,0,0,0,.076,1.3,1.279,1.279,0,0,0,.492.762,1.52,1.52,0,0,0,.93.277,2.021,2.021,0,0,0,1.039-.284,1.57,1.57,0,0,0,.686-.772,3.882,3.882,0,0,0,.2-1.418v-3.89h1.231v7.26Zm-2.584-8.162.91-1.914H196.6l-1.5,1.914Z"/>
    <path d="M204.4,266.8v-.916a2.258,2.258,0,0,1-2.03,1.08,2.845,2.845,0,0,1-1.6-.479,3.134,3.134,0,0,1-1.128-1.337,4.607,4.607,0,0,1-.4-1.971,5.14,5.14,0,0,1,.364-1.973,2.853,2.853,0,0,1,1.085-1.356,2.908,2.908,0,0,1,1.622-.472,2.415,2.415,0,0,1,2,1v-3.6h1.224V266.8Zm-3.889-3.623a3.15,3.15,0,0,0,.588,2.085,1.769,1.769,0,0,0,1.386.69,1.741,1.741,0,0,0,1.372-.66,3.038,3.038,0,0,0,.564-2.013,3.411,3.411,0,0,0-.574-2.187,1.768,1.768,0,0,0-1.416-.7,1.7,1.7,0,0,0-1.37.67A3.3,3.3,0,0,0,200.506,263.175Z"/>
    <path d="M207.014,263.168a3.737,3.737,0,0,1,1.121-2.987,3.376,3.376,0,0,1,2.283-.807,3.26,3.26,0,0,1,2.447.98,3.736,3.736,0,0,1,.949,2.711,4.812,4.812,0,0,1-.419,2.2,2.981,2.981,0,0,1-1.224,1.248,3.577,3.577,0,0,1-1.753.444,3.263,3.263,0,0,1-2.465-.978A3.9,3.9,0,0,1,207.014,263.168Zm1.263,0a3.082,3.082,0,0,0,.61,2.088,2.024,2.024,0,0,0,3.054,0,3.159,3.159,0,0,0,.61-2.126,3,3,0,0,0-.613-2.041,2.028,2.028,0,0,0-3.051,0A3.07,3.07,0,0,0,208.277,263.168Z"/>
  </g>
  <g>
    <path d="M144.081,122.994v-8.64a7.256,7.256,0,0,1,.25-1.969,3.766,3.766,0,0,1,.84-1.541,3.811,3.811,0,0,1,1.559-1,7.181,7.181,0,0,1,2.411-.35,7.261,7.261,0,0,1,2.42.35,3.622,3.622,0,0,1,2.41,2.541,7.3,7.3,0,0,1,.25,1.969v8.64h-2.1v-4.92h-5.98v4.92Zm2.06-6.5h5.98v-2.2a5.549,5.549,0,0,0-.141-1.29,2.486,2.486,0,0,0-.49-1.02,2.311,2.311,0,0,0-.92-.67,3.694,3.694,0,0,0-1.429-.24,3.762,3.762,0,0,0-1.45.24,2.325,2.325,0,0,0-.92.67,2.5,2.5,0,0,0-.49,1.02,5.605,5.605,0,0,0-.14,1.29Z"/>
    <path d="M165.641,122.614q-.9.222-2.061.4a13.777,13.777,0,0,1-2.119.18,6.628,6.628,0,0,1-1.781-.229,3.4,3.4,0,0,1-1.44-.82,3.964,3.964,0,0,1-.969-1.571,7.449,7.449,0,0,1-.351-2.48,6.746,6.746,0,0,1,.351-2.34,4.013,4.013,0,0,1,.95-1.52,3.466,3.466,0,0,1,1.41-.83,5.921,5.921,0,0,1,1.75-.25,7.6,7.6,0,0,1,1.109.08c.354.053.723.12,1.111.2V108.4h2.04Zm-2.02-7.62a10.721,10.721,0,0,0-1.08-.221,7.568,7.568,0,0,0-1.08-.079,2.992,2.992,0,0,0-.951.15,1.726,1.726,0,0,0-.78.541,2.8,2.8,0,0,0-.519,1.039,6.075,6.075,0,0,0-.19,1.67,7.623,7.623,0,0,0,.169,1.77,2.928,2.928,0,0,0,.49,1.1,1.6,1.6,0,0,0,.781.558,3.311,3.311,0,0,0,1.039.151,8.374,8.374,0,0,0,1.061-.07q.538-.069,1.06-.17Z"/>
    <path d="M169.061,110.594a1.059,1.059,0,0,1-.34-.84,1.082,1.082,0,0,1,.34-.859,1.364,1.364,0,0,1,.939-.3q1.281,0,1.28,1.16a1.076,1.076,0,0,1-.33.84,1.632,1.632,0,0,1-1.889,0Zm-.061,12.4v-9.64h2.021v9.64Z"/>
    <path d="M180.9,122.834a10.654,10.654,0,0,1-1.24.26,9.014,9.014,0,0,1-1.34.1,6.275,6.275,0,0,1-1.859-.26,3.549,3.549,0,0,1-1.451-.85,3.86,3.86,0,0,1-.94-1.55,8.729,8.729,0,0,1,.01-4.79,3.723,3.723,0,0,1,.96-1.54,3.565,3.565,0,0,1,1.48-.809,7.022,7.022,0,0,1,1.9-.241,10.4,10.4,0,0,1,1.26.08c.427.053.793.114,1.1.18l-.2,1.52q-.48-.1-1.04-.17a9.305,9.305,0,0,0-1.14-.07,3.619,3.619,0,0,0-1.08.15,1.705,1.705,0,0,0-.81.541,2.612,2.612,0,0,0-.5,1.059,7.2,7.2,0,0,0-.17,1.73,8.152,8.152,0,0,0,.14,1.631,2.68,2.68,0,0,0,.45,1.08,1.731,1.731,0,0,0,.81.59,3.577,3.577,0,0,0,1.2.179,7.243,7.243,0,0,0,1.17-.09q.55-.09,1.111-.23Z"/>
    <path d="M183.42,110.594a1.059,1.059,0,0,1-.34-.84,1.082,1.082,0,0,1,.34-.859,1.366,1.366,0,0,1,.94-.3q1.279,0,1.281,1.16a1.08,1.08,0,0,1-.33.84,1.635,1.635,0,0,1-1.891,0Zm-.06,12.4v-9.64h2.021v9.64Z"/>
    <path d="M192.66,123.194a4.571,4.571,0,0,1-3.38-1.18,6.838,6.838,0,0,1,0-7.68,5.447,5.447,0,0,1,6.771,0,6.8,6.8,0,0,1,0,7.68A4.611,4.611,0,0,1,192.66,123.194Zm-1.82-2.26a1.69,1.69,0,0,0,.78.56,3.188,3.188,0,0,0,1.06.16,3.1,3.1,0,0,0,1.05-.16,1.7,1.7,0,0,0,.77-.56,2.7,2.7,0,0,0,.48-1.07,8.95,8.95,0,0,0,0-3.38,2.713,2.713,0,0,0-.48-1.07,1.707,1.707,0,0,0-.77-.56,3.149,3.149,0,0,0-1.05-.16,3.241,3.241,0,0,0-1.06.16,1.7,1.7,0,0,0-.78.56,2.728,2.728,0,0,0-.481,1.07,9.061,9.061,0,0,0,0,3.38A2.715,2.715,0,0,0,190.84,120.934Z"/>
    <path d="M199.939,122.994v-9.1c.254-.081.543-.165.871-.25s.676-.167,1.049-.241.764-.133,1.17-.179a10.568,10.568,0,0,1,1.211-.071,7.769,7.769,0,0,1,1.67.17,3.8,3.8,0,0,1,1.34.561,2.641,2.641,0,0,1,.89,1.049,3.685,3.685,0,0,1,.32,1.621v6.439h-2.021v-6.359a2.312,2.312,0,0,0-.169-.941,1.479,1.479,0,0,0-.47-.6,1.861,1.861,0,0,0-.72-.31,4.358,4.358,0,0,0-.9-.09,7.961,7.961,0,0,0-1.16.09,10.189,10.189,0,0,0-1.06.21v8Z"/>
    <path d="M218.879,122.514q-.759.221-1.83.451a10.972,10.972,0,0,1-2.289.229,7.176,7.176,0,0,1-1.561-.16,3.47,3.47,0,0,1-1.25-.53,2.551,2.551,0,0,1-.83-.97,3.347,3.347,0,0,1-.3-1.5,2.728,2.728,0,0,1,.33-1.4,2.628,2.628,0,0,1,.871-.9,3.662,3.662,0,0,1,1.259-.48,7.886,7.886,0,0,1,1.5-.14q.64,0,1.151.05c.34.033.65.077.929.13v-.94a1.391,1.391,0,0,0-.65-1.35,3.416,3.416,0,0,0-1.629-.35,8.612,8.612,0,0,0-1.4.119q-.721.121-1.281.241l-.139-1.52q.639-.141,1.41-.24a11.827,11.827,0,0,1,1.51-.1,8.327,8.327,0,0,1,1.609.151,3.734,3.734,0,0,1,1.34.519,2.749,2.749,0,0,1,.91.97,3,3,0,0,1,.34,1.5Zm-2.02-3.76c-.279-.053-.587-.1-.92-.13s-.673-.05-1.019-.05a5.326,5.326,0,0,0-.83.061,1.889,1.889,0,0,0-.68.229,1.238,1.238,0,0,0-.461.48,1.683,1.683,0,0,0-.17.81,1.353,1.353,0,0,0,.59,1.27,2.751,2.751,0,0,0,1.43.349,7.512,7.512,0,0,0,1.131-.079q.529-.079.929-.18Z"/>
    <path d="M222,122.994v-9.1a15.577,15.577,0,0,1,2.49-.551,20.367,20.367,0,0,1,2.75-.17v1.6c-.147-.011-.3-.019-.461-.019H226.3a9.4,9.4,0,0,0-1.239.08,8.126,8.126,0,0,0-1.041.2v7.96Z"/>
  </g>
  <polygon points="202 169 187 169 187 184 182 184 182 169 168 169 168 164 182 164 182 149 187 149 187 164 202 164 202 169" fill="#5b5d5e"/>
  <g>
    <path d="M283.342,246.484l1.326.335a4.462,4.462,0,0,1-1.5,2.492,4.135,4.135,0,0,1-2.649.858,4.77,4.77,0,0,1-2.636-.659,4.13,4.13,0,0,1-1.545-1.911,6.823,6.823,0,0,1-.529-2.687,5.909,5.909,0,0,1,.6-2.73,4.109,4.109,0,0,1,1.7-1.772,4.984,4.984,0,0,1,2.43-.6,4.11,4.11,0,0,1,2.529.765,3.97,3.97,0,0,1,1.429,2.154l-1.306.307a3.1,3.1,0,0,0-1.011-1.593,2.7,2.7,0,0,0-1.668-.5,3.246,3.246,0,0,0-1.932.554,2.923,2.923,0,0,0-1.09,1.486,6.015,6.015,0,0,0-.314,1.925,6.1,6.1,0,0,0,.373,2.232,2.78,2.78,0,0,0,1.158,1.426,3.252,3.252,0,0,0,1.7.471,2.854,2.854,0,0,0,1.887-.642A3.288,3.288,0,0,0,283.342,246.484Z"/>
    <path d="M285.687,246.368a3.74,3.74,0,0,1,1.121-2.987,3.381,3.381,0,0,1,2.283-.807,3.257,3.257,0,0,1,2.447.981,3.731,3.731,0,0,1,.95,2.711,4.814,4.814,0,0,1-.42,2.205,2.978,2.978,0,0,1-1.224,1.247,3.56,3.56,0,0,1-1.753.444,3.263,3.263,0,0,1-2.464-.977A3.9,3.9,0,0,1,285.687,246.368Zm1.264,0a3.092,3.092,0,0,0,.609,2.089,2.026,2.026,0,0,0,3.055,0,3.164,3.164,0,0,0,.609-2.126,2.993,2.993,0,0,0-.613-2.04,2.027,2.027,0,0,0-3.051,0A3.077,3.077,0,0,0,286.951,246.368Z"/>
    <path d="M293.931,250v-7.26h1.1v1.019a2.61,2.61,0,0,1,.909-.859,2.571,2.571,0,0,1,1.292-.324,2.391,2.391,0,0,1,1.323.335,1.791,1.791,0,0,1,.728.937,2.606,2.606,0,0,1,2.242-1.272,2.211,2.211,0,0,1,1.662.6,2.561,2.561,0,0,1,.581,1.843V250h-1.224v-4.573a3.368,3.368,0,0,0-.12-1.064,1.032,1.032,0,0,0-.434-.522,1.353,1.353,0,0,0-.738-.2,1.723,1.723,0,0,0-1.272.509,2.243,2.243,0,0,0-.5,1.63V250h-1.231v-4.717a2.062,2.062,0,0,0-.3-1.23,1.138,1.138,0,0,0-.984-.41,1.8,1.8,0,0,0-.961.273,1.559,1.559,0,0,0-.639.8,4.5,4.5,0,0,0-.2,1.517V250Z"/>
    <path d="M305.593,252.78V242.738h1.121v.944a2.758,2.758,0,0,1,.895-.83,2.446,2.446,0,0,1,1.21-.278,2.87,2.87,0,0,1,1.641.479,2.936,2.936,0,0,1,1.073,1.349,4.929,4.929,0,0,1,.363,1.911,4.863,4.863,0,0,1-.4,2.007,3.03,3.03,0,0,1-1.162,1.368,2.993,2.993,0,0,1-1.6.474,2.3,2.3,0,0,1-1.1-.26,2.521,2.521,0,0,1-.8-.656v3.534Zm1.114-6.371a3.158,3.158,0,0,0,.567,2.071,1.737,1.737,0,0,0,1.374.67,1.779,1.779,0,0,0,1.4-.693,3.292,3.292,0,0,0,.585-2.15,3.2,3.2,0,0,0-.572-2.078,1.713,1.713,0,0,0-1.363-.691,1.769,1.769,0,0,0-1.39.735A3.278,3.278,0,0,0,306.707,246.409Z"/>
    <path d="M318.116,249.1a4.585,4.585,0,0,1-1.315.82,3.821,3.821,0,0,1-1.358.239,2.645,2.645,0,0,1-1.839-.584,1.933,1.933,0,0,1-.642-1.494,2.025,2.025,0,0,1,.878-1.682,3.009,3.009,0,0,1,.886-.4,8.868,8.868,0,0,1,1.093-.185,11.3,11.3,0,0,0,2.195-.423c0-.168.007-.276.007-.322a1.359,1.359,0,0,0-.349-1.059,2.059,2.059,0,0,0-1.4-.417,2.184,2.184,0,0,0-1.283.3,1.875,1.875,0,0,0-.611,1.078l-1.2-.164a2.965,2.965,0,0,1,.54-1.247,2.365,2.365,0,0,1,1.087-.733,4.869,4.869,0,0,1,1.647-.256,4.332,4.332,0,0,1,1.511.219,1.982,1.982,0,0,1,.854.551,1.923,1.923,0,0,1,.383.837,6.913,6.913,0,0,1,.062,1.134v1.641a17.571,17.571,0,0,0,.078,2.171,2.74,2.74,0,0,0,.311.871h-1.285A2.6,2.6,0,0,1,318.116,249.1Zm-.1-2.749a9.048,9.048,0,0,1-2.01.465,4.772,4.772,0,0,0-1.073.246,1.052,1.052,0,0,0-.657.985,1.049,1.049,0,0,0,.372.82,1.607,1.607,0,0,0,1.091.328,2.532,2.532,0,0,0,1.265-.311,1.907,1.907,0,0,0,.813-.851,2.972,2.972,0,0,0,.2-1.23Z"/>
    <path d="M321.151,250v-7.26h1.108v1.1a3.014,3.014,0,0,1,.782-1.019,1.37,1.37,0,0,1,.79-.246,2.4,2.4,0,0,1,1.265.4l-.424,1.141a1.768,1.768,0,0,0-.9-.266,1.176,1.176,0,0,0-.725.242,1.312,1.312,0,0,0-.458.674,4.78,4.78,0,0,0-.2,1.435V250Z"/>
    <path d="M328.514,248.9l.177,1.087a4.549,4.549,0,0,1-.929.11,2.1,2.1,0,0,1-1.039-.212,1.188,1.188,0,0,1-.52-.558,4.437,4.437,0,0,1-.15-1.452V243.7h-.9v-.957h.9v-1.8l1.223-.738v2.536h1.238v.957h-1.238v4.245a2.108,2.108,0,0,0,.066.677.508.508,0,0,0,.211.239.812.812,0,0,0,.421.089A3.838,3.838,0,0,0,328.514,248.9Z"/>
    <path d="M329.724,241.392v-1.415h1.23v1.415Zm0,8.606v-7.26h1.23V250Z"/>
    <path d="M332.8,250V239.977h1.23V250Z"/>
    <path d="M335.938,250V239.977h1.23v3.595a2.747,2.747,0,0,1,2.174-1,2.918,2.918,0,0,1,1.4.319,1.849,1.849,0,0,1,.851.878,4.027,4.027,0,0,1,.257,1.626V250H340.62v-4.6a1.9,1.9,0,0,0-.4-1.342,1.485,1.485,0,0,0-1.132-.421,1.992,1.992,0,0,0-1.028.284,1.59,1.59,0,0,0-.688.769,3.522,3.522,0,0,0-.2,1.339V250Z"/>
    <path d="M348.693,247.66l1.272.157a3.1,3.1,0,0,1-1.114,1.73,3.778,3.778,0,0,1-4.605-.365,3.843,3.843,0,0,1-.933-2.752,4.012,4.012,0,0,1,.944-2.844,3.194,3.194,0,0,1,2.447-1.012,3.1,3.1,0,0,1,2.379.991,3.942,3.942,0,0,1,.923,2.789c0,.074,0,.183-.007.329h-5.414a2.786,2.786,0,0,0,.677,1.832,2.018,2.018,0,0,0,1.517.635,1.893,1.893,0,0,0,1.156-.355A2.354,2.354,0,0,0,348.693,247.66Zm-4.04-1.989h4.054a2.457,2.457,0,0,0-.465-1.374,1.883,1.883,0,0,0-1.524-.711,1.953,1.953,0,0,0-1.425.567A2.241,2.241,0,0,0,344.653,245.671Z"/>
    <path d="M351.831,250v-1.4h1.4V250a2.491,2.491,0,0,1-.273,1.248,1.779,1.779,0,0,1-.868.734l-.342-.526a1.163,1.163,0,0,0,.574-.5,2.132,2.132,0,0,0,.205-.953Z"/>
    <path d="M264.632,264.631l1.217-.192a1.7,1.7,0,0,0,.571,1.122,1.99,1.99,0,0,0,1.309.389,1.923,1.923,0,0,0,1.257-.345,1.03,1.03,0,0,0,.41-.81.749.749,0,0,0-.362-.656,5.333,5.333,0,0,0-1.258-.417,11.514,11.514,0,0,1-1.876-.591,1.8,1.8,0,0,1-1.063-1.665,1.88,1.88,0,0,1,.222-.9,1.993,1.993,0,0,1,.6-.686,2.511,2.511,0,0,1,.783-.359,3.716,3.716,0,0,1,1.063-.147,4.2,4.2,0,0,1,1.5.246,2.035,2.035,0,0,1,.954.667,2.588,2.588,0,0,1,.424,1.124l-1.2.164a1.314,1.314,0,0,0-.476-.875,1.734,1.734,0,0,0-1.11-.314,2.01,2.01,0,0,0-1.21.28.815.815,0,0,0-.363.656.676.676,0,0,0,.151.431,1.087,1.087,0,0,0,.471.328c.123.046.486.15,1.087.315a14.91,14.91,0,0,1,1.822.571,1.837,1.837,0,0,1,.81.645,1.805,1.805,0,0,1,.294,1.053,2.078,2.078,0,0,1-.358,1.159,2.318,2.318,0,0,1-1.036.84,3.762,3.762,0,0,1-1.532.3,3.413,3.413,0,0,1-2.157-.588A2.739,2.739,0,0,1,264.632,264.631Z"/>
    <path d="M276.861,265.9a4.589,4.589,0,0,1-1.316.821,3.786,3.786,0,0,1-1.357.239,2.629,2.629,0,0,1-1.838-.585,1.929,1.929,0,0,1-.643-1.493,2.02,2.02,0,0,1,.879-1.682,3,3,0,0,1,.885-.4,8.679,8.679,0,0,1,1.093-.185,11.206,11.206,0,0,0,2.195-.424c0-.169.007-.276.007-.321a1.358,1.358,0,0,0-.349-1.059,2.054,2.054,0,0,0-1.4-.417,2.175,2.175,0,0,0-1.282.3,1.852,1.852,0,0,0-.612,1.076l-1.2-.164a2.994,2.994,0,0,1,.54-1.248,2.36,2.36,0,0,1,1.087-.73,4.815,4.815,0,0,1,1.647-.257,4.359,4.359,0,0,1,1.511.219,1.979,1.979,0,0,1,.855.55,1.938,1.938,0,0,1,.382.837,6.911,6.911,0,0,1,.062,1.135v1.641a17.25,17.25,0,0,0,.079,2.17,2.73,2.73,0,0,0,.311.872h-1.286A2.635,2.635,0,0,1,276.861,265.9Zm-.1-2.748a8.992,8.992,0,0,1-2.01.465,4.544,4.544,0,0,0-1.073.246,1.085,1.085,0,0,0-.486.4,1.088,1.088,0,0,0,.2,1.4,1.6,1.6,0,0,0,1.089.328,2.539,2.539,0,0,0,1.265-.31,1.937,1.937,0,0,0,.814-.852,2.973,2.973,0,0,0,.2-1.231Z"/>
    <path d="M279.883,266.8V256.776h1.23V266.8Z"/>
    <path d="M285.037,266.8l-2.762-7.26h1.3l1.559,4.348q.252.7.465,1.463.163-.575.458-1.381l1.613-4.43h1.265l-2.748,7.26Z"/>
    <path d="M294.99,264.46l1.272.157a3.111,3.111,0,0,1-1.115,1.73,3.774,3.774,0,0,1-4.6-.367,3.834,3.834,0,0,1-.933-2.751,4.011,4.011,0,0,1,.944-2.843A3.191,3.191,0,0,1,293,259.374a3.106,3.106,0,0,1,2.379.991,3.937,3.937,0,0,1,.923,2.789c0,.073,0,.182-.007.328h-5.414a2.784,2.784,0,0,0,.677,1.832,2.015,2.015,0,0,0,1.517.636,1.882,1.882,0,0,0,1.155-.355A2.362,2.362,0,0,0,294.99,264.46Zm-4.04-1.989H295a2.451,2.451,0,0,0-.465-1.374,1.887,1.887,0,0,0-1.524-.711,1.949,1.949,0,0,0-1.425.567A2.246,2.246,0,0,0,290.95,262.471Z"/>
    <path d="M306.666,264.46l1.272.157a3.116,3.116,0,0,1-1.115,1.73,3.774,3.774,0,0,1-4.6-.367,3.834,3.834,0,0,1-.933-2.751,4.015,4.015,0,0,1,.943-2.843,3.193,3.193,0,0,1,2.448-1.012,3.109,3.109,0,0,1,2.379.991,3.937,3.937,0,0,1,.923,2.789c0,.073,0,.182-.007.328h-5.414a2.789,2.789,0,0,0,.676,1.832,2.017,2.017,0,0,0,1.518.636,1.882,1.882,0,0,0,1.155-.355A2.362,2.362,0,0,0,306.666,264.46Zm-4.04-1.989h4.054a2.451,2.451,0,0,0-.465-1.374,1.889,1.889,0,0,0-1.525-.711,1.947,1.947,0,0,0-1.424.567A2.246,2.246,0,0,0,302.626,262.471Z"/>
    <path d="M313.372,269.58V259.538h1.121v.943a2.8,2.8,0,0,1,.9-.831,2.476,2.476,0,0,1,1.21-.276,2.857,2.857,0,0,1,1.64.479,2.942,2.942,0,0,1,1.074,1.35,4.913,4.913,0,0,1,.362,1.91,4.861,4.861,0,0,1-.4,2.006,3.043,3.043,0,0,1-2.765,1.843,2.316,2.316,0,0,1-1.1-.26,2.5,2.5,0,0,1-.8-.656v3.534Zm1.114-6.371a3.158,3.158,0,0,0,.568,2.071,1.74,1.74,0,0,0,1.374.67,1.775,1.775,0,0,0,1.4-.694,3.283,3.283,0,0,0,.585-2.15,3.206,3.206,0,0,0-.571-2.078,1.717,1.717,0,0,0-1.364-.69,1.771,1.771,0,0,0-1.39.734A3.289,3.289,0,0,0,314.486,263.209Z"/>
    <path d="M325.916,266.8v-1.067a2.655,2.655,0,0,1-2.3,1.231,2.941,2.941,0,0,1-1.2-.246,1.976,1.976,0,0,1-.826-.618,2.312,2.312,0,0,1-.38-.913,6.268,6.268,0,0,1-.075-1.149v-4.5h1.23v4.026a7.153,7.153,0,0,0,.076,1.3,1.273,1.273,0,0,0,.492.762,1.515,1.515,0,0,0,.929.277,2.022,2.022,0,0,0,1.039-.283,1.573,1.573,0,0,0,.687-.773,3.86,3.86,0,0,0,.2-1.418v-3.89h1.231v7.26Z"/>
    <path d="M330.079,266.8h-1.141V256.776h1.23v3.576a2.433,2.433,0,0,1,1.989-.978,3.039,3.039,0,0,1,1.269.271,2.592,2.592,0,0,1,.984.757,3.69,3.69,0,0,1,.6,1.18,4.894,4.894,0,0,1,.218,1.477,4.146,4.146,0,0,1-.922,2.884,2.886,2.886,0,0,1-2.215,1.019,2.311,2.311,0,0,1-2.017-1.073Zm-.014-3.685a3.766,3.766,0,0,0,.356,1.887,1.759,1.759,0,0,0,2.967.25,3.193,3.193,0,0,0,.588-2.089,3.242,3.242,0,0,0-.564-2.1,1.717,1.717,0,0,0-1.364-.677,1.77,1.77,0,0,0-1.395.7A3.083,3.083,0,0,0,330.065,263.113Z"/>
    <path d="M336.7,266.8V256.776h1.231V266.8Z"/>
    <path d="M339.848,258.191v-1.415h1.23v1.415Zm0,8.607v-7.26h1.23v7.26Z"/>
    <path d="M347.579,269.58v-3.555a2.175,2.175,0,0,1-.8.67,2.348,2.348,0,0,1-1.1.267,2.907,2.907,0,0,1-2.226-1.032,4.068,4.068,0,0,1-.932-2.83,4.836,4.836,0,0,1,.379-1.962,2.825,2.825,0,0,1,1.1-1.316,2.941,2.941,0,0,1,1.583-.448,2.43,2.43,0,0,1,2.119,1.135v-.971h1.108V269.58Zm-3.794-6.433a3.205,3.205,0,0,0,.588,2.1,1.783,1.783,0,0,0,1.408.7,1.721,1.721,0,0,0,1.354-.667,3.06,3.06,0,0,0,.567-2.026,3.387,3.387,0,0,0-.6-2.181,1.773,1.773,0,0,0-1.4-.731,1.7,1.7,0,0,0-1.357.68A3.325,3.325,0,0,0,343.785,263.147Z"/>
    <path d="M355.5,266.8v-1.067a2.656,2.656,0,0,1-2.3,1.231,2.937,2.937,0,0,1-1.2-.246,1.983,1.983,0,0,1-.828-.618,2.311,2.311,0,0,1-.379-.913,6.178,6.178,0,0,1-.075-1.149v-4.5h1.23v4.026a7.059,7.059,0,0,0,.076,1.3,1.282,1.282,0,0,0,.492.762,1.514,1.514,0,0,0,.93.277,2.03,2.03,0,0,0,1.039-.283,1.578,1.578,0,0,0,.687-.773,3.885,3.885,0,0,0,.2-1.418v-3.89H356.6v7.26Z"/>
    <path d="M363.493,264.46l1.272.157a3.106,3.106,0,0,1-1.115,1.73,3.35,3.35,0,0,1-2.078.615,3.314,3.314,0,0,1-2.525-.982,3.825,3.825,0,0,1-.934-2.751,4.011,4.011,0,0,1,.944-2.843,3.192,3.192,0,0,1,2.447-1.012,3.106,3.106,0,0,1,2.379.991,3.937,3.937,0,0,1,.923,2.789c0,.073,0,.182-.007.328h-5.414a2.784,2.784,0,0,0,.677,1.832,2.012,2.012,0,0,0,1.517.636,1.88,1.88,0,0,0,1.155-.355A2.362,2.362,0,0,0,363.493,264.46Zm-4.04-1.989h4.054a2.458,2.458,0,0,0-.465-1.374,1.884,1.884,0,0,0-1.524-.711,1.955,1.955,0,0,0-1.426.567A2.249,2.249,0,0,0,359.453,262.471Z"/>
    <path d="M291.65,280.939l1.211.157a3.137,3.137,0,0,1-1.015,1.959,2.96,2.96,0,0,1-2.006.707,3.117,3.117,0,0,1-2.4-.974,3.955,3.955,0,0,1-.906-2.792,5.048,5.048,0,0,1,.391-2.058,2.716,2.716,0,0,1,1.185-1.323,3.523,3.523,0,0,1,1.733-.441,3.012,3.012,0,0,1,1.935.6,2.741,2.741,0,0,1,.963,1.7l-1.2.185a1.99,1.99,0,0,0-.606-1.1,1.562,1.562,0,0,0-1.048-.369,1.91,1.91,0,0,0-1.512.667,3.164,3.164,0,0,0-.58,2.108,3.271,3.271,0,0,0,.56,2.127,1.826,1.826,0,0,0,1.463.662,1.721,1.721,0,0,0,1.209-.443A2.2,2.2,0,0,0,291.65,280.939Z"/>
    <path d="M293.455,279.969a3.747,3.747,0,0,1,1.121-2.989,3.383,3.383,0,0,1,2.283-.806,3.262,3.262,0,0,1,2.448.981,3.735,3.735,0,0,1,.951,2.71,4.8,4.8,0,0,1-.421,2.2,2.986,2.986,0,0,1-1.224,1.248,3.564,3.564,0,0,1-1.754.444,3.258,3.258,0,0,1-2.463-.977A3.909,3.909,0,0,1,293.455,279.969Zm1.266,0a3.1,3.1,0,0,0,.607,2.088,2.028,2.028,0,0,0,3.057,0,3.167,3.167,0,0,0,.607-2.125,3,3,0,0,0-.611-2.041,2.03,2.03,0,0,0-3.053,0A3.085,3.085,0,0,0,294.721,279.969Z"/>
    <path d="M301.7,283.6v-7.26h1.108v1.033a2.608,2.608,0,0,1,2.31-1.2,3.036,3.036,0,0,1,1.207.236,1.889,1.889,0,0,1,.824.619,2.378,2.378,0,0,1,.383.909,7.089,7.089,0,0,1,.069,1.2V283.6h-1.231v-4.416a3.331,3.331,0,0,0-.144-1.124,1.185,1.185,0,0,0-.509-.595,1.612,1.612,0,0,0-.859-.223,1.991,1.991,0,0,0-1.356.5,2.461,2.461,0,0,0-.571,1.893V283.6Z"/>
    <path d="M312.172,282.5l.178,1.086a4.559,4.559,0,0,1-.93.109,2.11,2.11,0,0,1-1.039-.211,1.2,1.2,0,0,1-.52-.557,4.441,4.441,0,0,1-.15-1.452V277.3h-.9v-.957h.9v-1.8l1.225-.738v2.535h1.236v.957h-1.236v4.246a2.156,2.156,0,0,0,.064.676.512.512,0,0,0,.212.24.825.825,0,0,0,.421.088A4.11,4.11,0,0,0,312.172,282.5Z"/>
    <path d="M318.346,281.26l1.271.158a3.1,3.1,0,0,1-1.115,1.728,3.773,3.773,0,0,1-4.6-.365,3.834,3.834,0,0,1-.933-2.752,4.01,4.01,0,0,1,.943-2.843,3.2,3.2,0,0,1,2.447-1.012,3.1,3.1,0,0,1,2.379.992,3.933,3.933,0,0,1,.924,2.789c0,.072,0,.182-.008.328h-5.414a2.792,2.792,0,0,0,.678,1.832,2.012,2.012,0,0,0,1.518.635,1.877,1.877,0,0,0,1.154-.355A2.373,2.373,0,0,0,318.346,281.26Zm-4.041-1.989h4.054a2.468,2.468,0,0,0-.464-1.375,1.891,1.891,0,0,0-1.526-.71,1.955,1.955,0,0,0-1.425.568A2.245,2.245,0,0,0,314.305,279.271Z"/>
    <path d="M325.92,283.6v-1.067a2.659,2.659,0,0,1-2.305,1.231,2.937,2.937,0,0,1-1.2-.246,1.979,1.979,0,0,1-.827-.619,2.306,2.306,0,0,1-.38-.913,6.277,6.277,0,0,1-.074-1.148v-4.5h1.23v4.027a7.327,7.327,0,0,0,.074,1.3,1.3,1.3,0,0,0,.493.762,1.528,1.528,0,0,0,.929.277,2.035,2.035,0,0,0,1.039-.284,1.571,1.571,0,0,0,.688-.773,3.861,3.861,0,0,0,.2-1.417v-3.891h1.231v7.26Zm-2.584-8.162.908-1.915h1.613l-1.5,1.915Z"/>
    <path d="M333.658,283.6v-.916a2.259,2.259,0,0,1-2.031,1.08,2.842,2.842,0,0,1-1.6-.479,3.139,3.139,0,0,1-1.128-1.336,4.627,4.627,0,0,1-.4-1.972,5.173,5.173,0,0,1,.361-1.972,2.861,2.861,0,0,1,1.088-1.357,2.908,2.908,0,0,1,1.619-.472,2.431,2.431,0,0,1,1.17.277,2.456,2.456,0,0,1,.834.721v-3.6H334.8V283.6Zm-3.89-3.623a3.164,3.164,0,0,0,.587,2.086,1.776,1.776,0,0,0,1.389.689,1.739,1.739,0,0,0,1.37-.659,3.043,3.043,0,0,0,.564-2.013,3.415,3.415,0,0,0-.574-2.187,1.766,1.766,0,0,0-1.415-.7,1.707,1.707,0,0,0-1.371.67A3.307,3.307,0,0,0,329.768,279.975Z"/>
    <path d="M336.275,279.969a3.747,3.747,0,0,1,1.121-2.989,3.384,3.384,0,0,1,2.284-.806,3.26,3.26,0,0,1,2.447.981,3.731,3.731,0,0,1,.951,2.71,4.791,4.791,0,0,1-.421,2.2,2.984,2.984,0,0,1-1.223,1.248,3.57,3.57,0,0,1-1.754.444,3.26,3.26,0,0,1-2.464-.977A3.909,3.909,0,0,1,336.275,279.969Zm1.266,0a3.1,3.1,0,0,0,.607,2.088,2.028,2.028,0,0,0,3.057,0,3.167,3.167,0,0,0,.608-2.125,3,3,0,0,0-.612-2.041,2.03,2.03,0,0,0-3.053,0A3.085,3.085,0,0,0,337.541,279.969Z"/>
  </g>
  <g>
    <path d="M270.513,122.794a10.968,10.968,0,0,1-1.72.32,16.226,16.226,0,0,1-1.76.1,8.373,8.373,0,0,1-2.48-.341,4.309,4.309,0,0,1-1.87-1.14,5.147,5.147,0,0,1-1.17-2.12,13.644,13.644,0,0,1,0-6.559,5.065,5.065,0,0,1,1.17-2.111,4.276,4.276,0,0,1,1.89-1.12,8.984,8.984,0,0,1,2.54-.33,15.333,15.333,0,0,1,1.74.1q.879.1,1.6.24l-.24,1.6a14.8,14.8,0,0,0-1.57-.26,14.239,14.239,0,0,0-1.63-.1,4.8,4.8,0,0,0-1.63.25,2.5,2.5,0,0,0-1.151.85,4.141,4.141,0,0,0-.689,1.61,14.172,14.172,0,0,0,.01,5.14,4.15,4.15,0,0,0,.71,1.631,2.493,2.493,0,0,0,1.18.84,5.151,5.151,0,0,0,1.65.24,11.022,11.022,0,0,0,1.63-.131c.58-.086,1.123-.184,1.63-.289Z"/>
    <path d="M276.853,123.194a4.573,4.573,0,0,1-3.38-1.18,6.838,6.838,0,0,1,0-7.68,5.445,5.445,0,0,1,6.77,0,6.791,6.791,0,0,1,0,7.68A4.61,4.61,0,0,1,276.853,123.194Zm-1.82-2.26a1.69,1.69,0,0,0,.78.56,3.184,3.184,0,0,0,1.06.16,3.1,3.1,0,0,0,1.05-.16,1.7,1.7,0,0,0,.769-.56,2.7,2.7,0,0,0,.481-1.07,9.005,9.005,0,0,0,0-3.38,2.714,2.714,0,0,0-.481-1.07,1.7,1.7,0,0,0-.769-.56,3.153,3.153,0,0,0-1.05-.16,3.236,3.236,0,0,0-1.06.16,1.7,1.7,0,0,0-.78.56,2.685,2.685,0,0,0-.48,1.07,9.005,9.005,0,0,0,0,3.38A2.673,2.673,0,0,0,275.033,120.934Z"/>
    <path d="M284.133,122.994v-9.1q.78-.242,1.88-.491a10.2,10.2,0,0,1,2.259-.25,6.221,6.221,0,0,1,1.621.2,3.42,3.42,0,0,1,1.28.64,8.818,8.818,0,0,1,1.68-.6,7.371,7.371,0,0,1,1.839-.241,6.238,6.238,0,0,1,1.491.17,3.038,3.038,0,0,1,1.19.571,2.753,2.753,0,0,1,.79,1.049,3.957,3.957,0,0,1,.29,1.611v6.439h-2.02v-6.359a2.4,2.4,0,0,0-.161-.951,1.533,1.533,0,0,0-.429-.59,1.59,1.59,0,0,0-.651-.31,3.506,3.506,0,0,0-.8-.09,4.2,4.2,0,0,0-1.27.18,10.612,10.612,0,0,0-1.03.38,3.761,3.761,0,0,1,.2,1.3v6.439h-2.021v-6.359a2.416,2.416,0,0,0-.159-.951,1.534,1.534,0,0,0-.43-.59,1.594,1.594,0,0,0-.64-.31,3.485,3.485,0,0,0-.811-.09,6.917,6.917,0,0,0-1.079.09,9.586,9.586,0,0,0-1,.21v8Z"/>
    <path d="M301.653,126.754V113.9a18.207,18.207,0,0,1,2.07-.521,11.313,11.313,0,0,1,2.15-.22,6.1,6.1,0,0,1,1.78.25,3.553,3.553,0,0,1,1.43.83,3.883,3.883,0,0,1,.95,1.52,6.866,6.866,0,0,1,.34,2.32,7.612,7.612,0,0,1-.351,2.51,3.98,3.98,0,0,1-.949,1.57,3.31,3.31,0,0,1-1.39.811,6.07,6.07,0,0,1-1.69.229,9.022,9.022,0,0,1-1.19-.08c-.407-.053-.783-.114-1.13-.18v3.82Zm2.02-5.359q.559.1,1.1.179a7.43,7.43,0,0,0,1.081.08,3.115,3.115,0,0,0,.99-.15,1.64,1.64,0,0,0,.77-.55,2.815,2.815,0,0,0,.49-1.09,7.623,7.623,0,0,0,.169-1.77,7,7,0,0,0-.169-1.7,2.615,2.615,0,0,0-.49-1.041,1.64,1.64,0,0,0-.77-.52,3.406,3.406,0,0,0-1.01-.14,4.927,4.927,0,0,0-.53.031c-.194.019-.39.043-.59.069s-.39.058-.57.091a4.432,4.432,0,0,0-.47.109Z"/>
    <path d="M320.272,122.514q-.759.221-1.83.451a10.968,10.968,0,0,1-2.29.229,7.164,7.164,0,0,1-1.559-.16,3.455,3.455,0,0,1-1.25-.53,2.542,2.542,0,0,1-.83-.97,3.334,3.334,0,0,1-.3-1.5,2.718,2.718,0,0,1,.33-1.4,2.625,2.625,0,0,1,.87-.9,3.66,3.66,0,0,1,1.26-.48,7.856,7.856,0,0,1,1.5-.14c.427,0,.809.017,1.15.05s.65.077.93.13v-.94a1.393,1.393,0,0,0-.65-1.35,3.417,3.417,0,0,0-1.63-.35,8.622,8.622,0,0,0-1.4.119q-.72.121-1.28.241l-.141-1.52q.641-.141,1.411-.24a11.827,11.827,0,0,1,1.51-.1,8.33,8.33,0,0,1,1.61.151,3.736,3.736,0,0,1,1.339.519,2.77,2.77,0,0,1,.911.97,3.015,3.015,0,0,1,.339,1.5Zm-2.019-3.76q-.42-.08-.92-.13t-1.02-.05a5.358,5.358,0,0,0-.831.061,1.891,1.891,0,0,0-.679.229,1.229,1.229,0,0,0-.46.48,1.671,1.671,0,0,0-.17.81,1.349,1.349,0,0,0,.59,1.27,2.747,2.747,0,0,0,1.429.349,7.493,7.493,0,0,0,1.131-.079q.529-.079.93-.18Z"/>
    <path d="M323.393,122.994v-9.1a15.577,15.577,0,0,1,2.49-.551,20.378,20.378,0,0,1,2.75-.17v1.6c-.148-.011-.3-.019-.46-.019h-.481a9.425,9.425,0,0,0-1.239.08,8.141,8.141,0,0,0-1.04.2v7.96Z"/>
    <path d="M333.532,120.594a.933.933,0,0,0,.32.81,1.4,1.4,0,0,0,.839.231,5.439,5.439,0,0,0,.961-.091,8.124,8.124,0,0,0,.84-.19l.06,1.52a5.524,5.524,0,0,1-1,.24,7.419,7.419,0,0,1-1.1.08,3.416,3.416,0,0,1-2.12-.62,2.394,2.394,0,0,1-.82-2.04v-5.68h-1.58v-1.5h1.58l.46-2.78h1.56v2.78h2.8v1.5h-2.8Z"/>
    <path d="M338.832,110.594a1.059,1.059,0,0,1-.34-.84,1.082,1.082,0,0,1,.34-.859,1.368,1.368,0,0,1,.94-.3q1.28,0,1.28,1.16a1.076,1.076,0,0,1-.33.84,1.634,1.634,0,0,1-1.89,0Zm-.06,12.4v-9.64h2.02v9.64Z"/>
    <path d="M344.232,122.994V108.4h2.02v14.6Z"/>
    <path d="M349.672,122.994V108.4h2.019v5.08c.387-.08.79-.155,1.21-.221a8.047,8.047,0,0,1,1.25-.1,7.054,7.054,0,0,1,1.58.17,3.4,3.4,0,0,1,1.281.571,2.849,2.849,0,0,1,.859,1.049,3.619,3.619,0,0,1,.32,1.611v6.439h-2.019v-6.359a2.31,2.31,0,0,0-.171-.941,1.435,1.435,0,0,0-.48-.6,1.953,1.953,0,0,0-.719-.31,4.229,4.229,0,0,0-.891-.09,7.132,7.132,0,0,0-1.16.1q-.6.1-1.06.2v8Z"/>
    <path d="M368.611,122.514q-.76.221-1.83.451a10.968,10.968,0,0,1-2.29.229,7.164,7.164,0,0,1-1.559-.16,3.455,3.455,0,0,1-1.25-.53,2.542,2.542,0,0,1-.83-.97,3.32,3.32,0,0,1-.3-1.5,2.718,2.718,0,0,1,.33-1.4,2.625,2.625,0,0,1,.87-.9,3.66,3.66,0,0,1,1.26-.48,7.856,7.856,0,0,1,1.5-.14q.639,0,1.15.05c.34.033.65.077.93.13v-.94a1.392,1.392,0,0,0-.651-1.35,3.41,3.41,0,0,0-1.629-.35,8.612,8.612,0,0,0-1.4.119q-.72.121-1.28.241l-.141-1.52c.427-.094.9-.174,1.41-.24a11.855,11.855,0,0,1,1.511-.1,8.312,8.312,0,0,1,1.609.151,3.741,3.741,0,0,1,1.34.519,2.758,2.758,0,0,1,.91.97,3,3,0,0,1,.34,1.5Zm-2.019-3.76q-.42-.08-.92-.13t-1.021-.05a5.344,5.344,0,0,0-.83.061,1.891,1.891,0,0,0-.679.229,1.229,1.229,0,0,0-.46.48,1.671,1.671,0,0,0-.17.81,1.349,1.349,0,0,0,.59,1.27,2.747,2.747,0,0,0,1.429.349,7.493,7.493,0,0,0,1.131-.079q.53-.079.93-.18Z"/>
    <path d="M371.731,122.994v-9.1a15.613,15.613,0,0,1,2.491-.551,20.378,20.378,0,0,1,2.75-.17v1.6c-.148-.011-.3-.019-.46-.019h-.481a9.4,9.4,0,0,0-1.239.08,8.141,8.141,0,0,0-1.04.2v7.96Z"/>
  </g>
  <g>
    <path d="M314.858,226.333c.231-3.425.941-16.878-1.071-25.614" fill="none" stroke="#000" stroke-miterlimit="10"/>
    <polygon points="318.429 203.133 317.852 203.951 313.827 201.104 311.281 205.327 310.424 204.809 313.526 199.666 318.429 203.133"/>
  </g>
  <g>
    <path d="M187.858,226.333c.231-3.425.941-16.878-1.071-25.614" fill="none" stroke="#000" stroke-miterlimit="10"/>
    <polygon points="191.429 203.133 190.852 203.951 186.827 201.104 184.281 205.327 183.424 204.809 186.526 199.666 191.429 203.133"/>
  </g>
  <path d="M334.336,160.961,316.51,178.629V167.543a26.654,26.654,0,0,0-6.721,1.715,25.015,25.015,0,0,0-5.762,3.23,23.621,23.621,0,0,0-4.527,4.465,20.581,20.581,0,0,0-3.011,5.424,18.8,18.8,0,0,1-1.236-6.7,19.223,19.223,0,0,1,1.615-7.8,21.444,21.444,0,0,1,4.467-6.561,24.893,24.893,0,0,1,6.739-4.785,26.232,26.232,0,0,1,8.436-2.472V143.295ZM319.7,156.934l-2.791.318a23.21,23.21,0,0,0-6.461,1.717,21.756,21.756,0,0,0-5.5,3.369,19.266,19.266,0,0,0-4.067,4.746,16.786,16.786,0,0,0-2.193,5.883,26.723,26.723,0,0,1,7.716-5.725,30.386,30.386,0,0,1,9.711-2.89l3.589-.44v7.061l10.09-10.012-10.09-10.01Z" fill="#5b5d5e"/>
  <g>
    <g>
      <path d="M386.314,250l3.85-10.021h1.428l4.1,10.021h-1.509l-1.17-3.035h-4.19l-1.1,3.035Zm2.893-4.115h3.4l-1.045-2.776q-.48-1.263-.711-2.078a12.813,12.813,0,0,1-.541,1.914Z"/>
      <path d="M396.1,247.83l1.216-.191a1.7,1.7,0,0,0,.572,1.121,1.987,1.987,0,0,0,1.309.389,1.93,1.93,0,0,0,1.258-.344,1.035,1.035,0,0,0,.41-.811.748.748,0,0,0-.363-.656,5.364,5.364,0,0,0-1.258-.417,11.548,11.548,0,0,1-1.876-.591,1.79,1.79,0,0,1-1.063-1.665,1.867,1.867,0,0,1,.222-.9,1.994,1.994,0,0,1,.606-.688,2.5,2.5,0,0,1,.782-.358,3.691,3.691,0,0,1,1.063-.148,4.2,4.2,0,0,1,1.5.246,2.047,2.047,0,0,1,.954.667,2.608,2.608,0,0,1,.423,1.124l-1.2.164a1.319,1.319,0,0,0-.474-.875,1.744,1.744,0,0,0-1.112-.314,2.018,2.018,0,0,0-1.209.28.818.818,0,0,0-.363.656.683.683,0,0,0,.15.431,1.078,1.078,0,0,0,.473.328c.123.046.484.151,1.086.315a14.973,14.973,0,0,1,1.822.571,1.841,1.841,0,0,1,.811.646,1.809,1.809,0,0,1,.293,1.052,2.061,2.061,0,0,1-.359,1.159,2.314,2.314,0,0,1-1.036.841,3.754,3.754,0,0,1-1.531.3,3.4,3.4,0,0,1-2.156-.588A2.728,2.728,0,0,1,396.1,247.83Z"/>
      <path d="M403.1,247.83l1.216-.191a1.7,1.7,0,0,0,.572,1.121,1.987,1.987,0,0,0,1.309.389,1.93,1.93,0,0,0,1.258-.344,1.035,1.035,0,0,0,.41-.811.748.748,0,0,0-.363-.656,5.364,5.364,0,0,0-1.258-.417,11.548,11.548,0,0,1-1.876-.591,1.79,1.79,0,0,1-1.063-1.665,1.867,1.867,0,0,1,.222-.9,1.994,1.994,0,0,1,.606-.688,2.5,2.5,0,0,1,.782-.358,3.691,3.691,0,0,1,1.063-.148,4.2,4.2,0,0,1,1.5.246,2.047,2.047,0,0,1,.954.667,2.608,2.608,0,0,1,.423,1.124l-1.2.164a1.319,1.319,0,0,0-.474-.875,1.744,1.744,0,0,0-1.112-.314,2.018,2.018,0,0,0-1.209.28.818.818,0,0,0-.363.656.683.683,0,0,0,.15.431,1.078,1.078,0,0,0,.473.328c.123.046.484.151,1.086.315a14.973,14.973,0,0,1,1.822.571,1.841,1.841,0,0,1,.811.646,1.809,1.809,0,0,1,.293,1.052,2.061,2.061,0,0,1-.359,1.159,2.314,2.314,0,0,1-1.036.841,3.754,3.754,0,0,1-1.531.3,3.4,3.4,0,0,1-2.156-.588A2.728,2.728,0,0,1,403.1,247.83Z"/>
      <path d="M410.6,241.391v-1.415h1.23v1.415Zm0,8.606v-7.26h1.23V250Z"/>
      <path d="M413.215,247.83l1.217-.191a1.694,1.694,0,0,0,.57,1.121,1.987,1.987,0,0,0,1.309.389,1.927,1.927,0,0,0,1.257-.344,1.033,1.033,0,0,0,.411-.811.749.749,0,0,0-.362-.656,5.382,5.382,0,0,0-1.258-.417,11.569,11.569,0,0,1-1.877-.591,1.787,1.787,0,0,1-1.062-1.665,1.867,1.867,0,0,1,.222-.9,1.978,1.978,0,0,1,.6-.688,2.533,2.533,0,0,1,.783-.358,3.686,3.686,0,0,1,1.063-.148,4.206,4.206,0,0,1,1.5.246,2.047,2.047,0,0,1,.954.667,2.621,2.621,0,0,1,.424,1.124l-1.2.164a1.317,1.317,0,0,0-.476-.875,1.742,1.742,0,0,0-1.11-.314,2.021,2.021,0,0,0-1.211.28.816.816,0,0,0-.362.656.672.672,0,0,0,.151.431,1.067,1.067,0,0,0,.47.328q.186.069,1.088.315a15.154,15.154,0,0,1,1.822.571,1.83,1.83,0,0,1,.809.646,1.8,1.8,0,0,1,.3,1.052,2.069,2.069,0,0,1-.359,1.159,2.311,2.311,0,0,1-1.035.841,3.762,3.762,0,0,1-1.532.3,3.407,3.407,0,0,1-2.157-.588A2.727,2.727,0,0,1,413.215,247.83Z"/>
      <path d="M423.393,248.9l.177,1.087a4.48,4.48,0,0,1-.929.11,2.106,2.106,0,0,1-1.039-.212,1.186,1.186,0,0,1-.52-.557,4.42,4.42,0,0,1-.15-1.453v-4.177h-.9v-.957h.9v-1.8l1.224-.738v2.536h1.237v.957h-1.237v4.245a2.145,2.145,0,0,0,.065.677.5.5,0,0,0,.212.239.812.812,0,0,0,.421.089A3.826,3.826,0,0,0,423.393,248.9Z"/>
      <path d="M429.566,247.659l1.272.157a3.1,3.1,0,0,1-1.115,1.73,3.777,3.777,0,0,1-4.6-.365,3.837,3.837,0,0,1-.933-2.752,4.013,4.013,0,0,1,.943-2.844,3.2,3.2,0,0,1,2.447-1.012,3.106,3.106,0,0,1,2.379.991,3.944,3.944,0,0,1,.924,2.79c0,.073,0,.182-.008.328h-5.414a2.792,2.792,0,0,0,.678,1.832,2.011,2.011,0,0,0,1.517.635,1.88,1.88,0,0,0,1.155-.355A2.355,2.355,0,0,0,429.566,247.659Zm-2.017-6.986-.772,1.162h-1.408l1.477-1.914h1.312l1.537,1.914H428.3Zm-2.024,5h4.055a2.467,2.467,0,0,0-.465-1.374,1.886,1.886,0,0,0-1.525-.711,1.956,1.956,0,0,0-1.425.567A2.246,2.246,0,0,0,425.525,245.67Z"/>
      <path d="M432.383,250v-7.26h1.107v1.033a2.611,2.611,0,0,1,2.311-1.2,3.014,3.014,0,0,1,1.206.237,1.9,1.9,0,0,1,.823.618,2.354,2.354,0,0,1,.383.909,7.013,7.013,0,0,1,.068,1.2V250h-1.23v-4.416a3.306,3.306,0,0,0-.143-1.124,1.173,1.173,0,0,0-.51-.595,1.618,1.618,0,0,0-.857-.222,2,2,0,0,0-1.357.5,2.46,2.46,0,0,0-.571,1.893V250Z"/>
      <path d="M444.906,247.338l1.209.157a3.141,3.141,0,0,1-1.014,1.959,2.956,2.956,0,0,1-2.007.707,3.12,3.12,0,0,1-2.4-.973,3.954,3.954,0,0,1-.9-2.793,5.051,5.051,0,0,1,.389-2.058,2.715,2.715,0,0,1,1.186-1.322,3.519,3.519,0,0,1,1.734-.442,3,3,0,0,1,1.933.6,2.742,2.742,0,0,1,.965,1.7l-1.2.185a1.983,1.983,0,0,0-.605-1.1,1.567,1.567,0,0,0-1.05-.369,1.907,1.907,0,0,0-1.509.667,3.158,3.158,0,0,0-.582,2.108,3.272,3.272,0,0,0,.56,2.126,1.823,1.823,0,0,0,1.463.663,1.724,1.724,0,0,0,1.211-.444A2.21,2.21,0,0,0,444.906,247.338Z"/>
      <path d="M447.176,241.391v-1.415h1.23v1.415Zm0,8.606v-7.26h1.23V250Z"/>
      <path d="M455.016,249.1a4.575,4.575,0,0,1-1.316.82,3.788,3.788,0,0,1-1.356.239,2.641,2.641,0,0,1-1.84-.584,1.931,1.931,0,0,1-.643-1.494,2,2,0,0,1,.243-.974,2.025,2.025,0,0,1,.636-.708,3.029,3.029,0,0,1,.885-.4,9.09,9.09,0,0,1,1.094-.185,11.237,11.237,0,0,0,2.195-.423c0-.168.006-.276.006-.322a1.355,1.355,0,0,0-.348-1.059,2.06,2.06,0,0,0-1.4-.417,2.169,2.169,0,0,0-1.281.3,1.858,1.858,0,0,0-.612,1.077l-1.2-.164a2.99,2.99,0,0,1,.539-1.247,2.364,2.364,0,0,1,1.088-.732,4.844,4.844,0,0,1,1.647-.257,4.355,4.355,0,0,1,1.511.219,1.982,1.982,0,0,1,.854.551,1.923,1.923,0,0,1,.383.837,6.913,6.913,0,0,1,.062,1.134v1.641a17.56,17.56,0,0,0,.078,2.171,2.765,2.765,0,0,0,.311.871h-1.285A2.636,2.636,0,0,1,455.016,249.1Zm-.1-2.748a9.029,9.029,0,0,1-2.01.464,4.784,4.784,0,0,0-1.074.246,1.069,1.069,0,0,0-.484.4,1.084,1.084,0,0,0,.2,1.4,1.6,1.6,0,0,0,1.09.328,2.542,2.542,0,0,0,1.265-.31,1.914,1.914,0,0,0,.813-.852,2.949,2.949,0,0,0,.2-1.23Z"/>
      <path d="M466.691,249.1a4.571,4.571,0,0,1-1.315.82,3.788,3.788,0,0,1-1.356.239,2.639,2.639,0,0,1-1.84-.584,1.931,1.931,0,0,1-.643-1.494,2.026,2.026,0,0,1,.879-1.682,3.029,3.029,0,0,1,.885-.4,9.09,9.09,0,0,1,1.094-.185,11.237,11.237,0,0,0,2.195-.423c0-.168.006-.276.006-.322a1.359,1.359,0,0,0-.348-1.059,2.06,2.06,0,0,0-1.4-.417,2.175,2.175,0,0,0-1.282.3,1.863,1.863,0,0,0-.611,1.077l-1.2-.164a2.977,2.977,0,0,1,.539-1.247,2.359,2.359,0,0,1,1.088-.732,4.838,4.838,0,0,1,1.646-.257,4.361,4.361,0,0,1,1.512.219,1.982,1.982,0,0,1,.854.551,1.922,1.922,0,0,1,.382.837,6.767,6.767,0,0,1,.063,1.134v1.641a17.349,17.349,0,0,0,.078,2.171,2.74,2.74,0,0,0,.311.871h-1.285A2.659,2.659,0,0,1,466.691,249.1Zm-.1-2.748a9.029,9.029,0,0,1-2.01.464,4.784,4.784,0,0,0-1.074.246,1.077,1.077,0,0,0-.485.4,1.086,1.086,0,0,0,.2,1.4,1.6,1.6,0,0,0,1.09.328,2.542,2.542,0,0,0,1.265-.31,1.914,1.914,0,0,0,.813-.852,2.965,2.965,0,0,0,.2-1.23Z"/>
      <path d="M469.283,246.367a3.74,3.74,0,0,1,1.121-2.987,3.381,3.381,0,0,1,2.284-.807,3.254,3.254,0,0,1,2.447.982,3.731,3.731,0,0,1,.949,2.71,4.811,4.811,0,0,1-.42,2.205,2.967,2.967,0,0,1-1.224,1.247,3.554,3.554,0,0,1-1.752.444,3.263,3.263,0,0,1-2.465-.977A3.9,3.9,0,0,1,469.283,246.367Zm1.264,0a3.092,3.092,0,0,0,.609,2.089,2.026,2.026,0,0,0,3.055,0,3.163,3.163,0,0,0,.609-2.126,3,3,0,0,0-.612-2.04,2.029,2.029,0,0,0-3.052,0A3.079,3.079,0,0,0,470.547,246.367Z"/>
      <path d="M486.174,250v-1.066a2.656,2.656,0,0,1-2.3,1.23,2.938,2.938,0,0,1-1.2-.246,1.967,1.967,0,0,1-.827-.618,2.311,2.311,0,0,1-.379-.913,6.15,6.15,0,0,1-.076-1.149v-4.5h1.23v4.027a7.168,7.168,0,0,0,.076,1.3,1.277,1.277,0,0,0,.493.762,1.519,1.519,0,0,0,.929.277,2.028,2.028,0,0,0,1.039-.284,1.58,1.58,0,0,0,.687-.772,3.888,3.888,0,0,0,.2-1.419v-3.89h1.23V250Z"/>
      <path d="M488.711,247.83l1.217-.191a1.7,1.7,0,0,0,.57,1.121,1.988,1.988,0,0,0,1.309.389,1.927,1.927,0,0,0,1.257-.344,1.033,1.033,0,0,0,.411-.811.749.749,0,0,0-.362-.656,5.382,5.382,0,0,0-1.258-.417,11.514,11.514,0,0,1-1.876-.591,1.79,1.79,0,0,1-1.063-1.665,1.867,1.867,0,0,1,.222-.9,1.978,1.978,0,0,1,.6-.688,2.533,2.533,0,0,1,.783-.358,3.686,3.686,0,0,1,1.063-.148,4.206,4.206,0,0,1,1.5.246,2.042,2.042,0,0,1,.954.667,2.621,2.621,0,0,1,.424,1.124l-1.2.164a1.317,1.317,0,0,0-.476-.875,1.742,1.742,0,0,0-1.11-.314,2.021,2.021,0,0,0-1.211.28.819.819,0,0,0-.362.656.672.672,0,0,0,.151.431,1.065,1.065,0,0,0,.471.328q.185.069,1.087.315a15.093,15.093,0,0,1,1.822.571,1.83,1.83,0,0,1,.809.646,1.8,1.8,0,0,1,.3,1.052,2.069,2.069,0,0,1-.359,1.159,2.311,2.311,0,0,1-1.035.841,3.759,3.759,0,0,1-1.532.3,3.407,3.407,0,0,1-2.157-.588A2.727,2.727,0,0,1,488.711,247.83Z"/>
      <path d="M500.961,250v-1.066a2.659,2.659,0,0,1-2.305,1.23,2.937,2.937,0,0,1-1.2-.246,1.986,1.986,0,0,1-.827-.618,2.312,2.312,0,0,1-.38-.913,6.282,6.282,0,0,1-.074-1.149v-4.5h1.23v4.027a7.327,7.327,0,0,0,.074,1.3,1.291,1.291,0,0,0,.493.762,1.521,1.521,0,0,0,.929.277,2.025,2.025,0,0,0,1.039-.284,1.577,1.577,0,0,0,.688-.772,3.869,3.869,0,0,0,.2-1.419v-3.89h1.231V250Z"/>
      <path d="M508.727,249.1a4.579,4.579,0,0,1-1.317.82,3.794,3.794,0,0,1-1.357.239,2.635,2.635,0,0,1-1.838-.584,1.927,1.927,0,0,1-.643-1.494,1.985,1.985,0,0,1,.242-.974,2.025,2.025,0,0,1,.636-.708,3.047,3.047,0,0,1,.886-.4,9.018,9.018,0,0,1,1.094-.185,11.21,11.21,0,0,0,2.193-.423c0-.168.008-.276.008-.322a1.355,1.355,0,0,0-.35-1.059,2.056,2.056,0,0,0-1.4-.417,2.173,2.173,0,0,0-1.282.3,1.859,1.859,0,0,0-.613,1.077l-1.2-.164a2.978,2.978,0,0,1,.541-1.247,2.358,2.358,0,0,1,1.086-.732,4.856,4.856,0,0,1,1.649-.257,4.343,4.343,0,0,1,1.509.219,1.99,1.99,0,0,1,.856.551,1.957,1.957,0,0,1,.383.837,6.981,6.981,0,0,1,.06,1.134v1.641a17.692,17.692,0,0,0,.079,2.171,2.718,2.718,0,0,0,.312.871h-1.285A2.591,2.591,0,0,1,508.727,249.1Zm-.1-2.748a9,9,0,0,1-2.01.464,4.746,4.746,0,0,0-1.072.246,1.074,1.074,0,0,0-.486.4,1.089,1.089,0,0,0,.2,1.4,1.6,1.6,0,0,0,1.091.328,2.537,2.537,0,0,0,1.263-.31,1.924,1.924,0,0,0,.815-.852,2.97,2.97,0,0,0,.2-1.23Zm-2.393-4.519.911-1.914h1.613l-1.5,1.914Z"/>
      <path d="M511.762,250v-7.26h1.107v1.1a3,3,0,0,1,.782-1.019,1.37,1.37,0,0,1,.79-.246,2.4,2.4,0,0,1,1.264.4l-.424,1.141a1.766,1.766,0,0,0-.9-.266,1.173,1.173,0,0,0-.725.243,1.31,1.31,0,0,0-.457.673,4.812,4.812,0,0,0-.205,1.435V250Z"/>
      <path d="M516.443,241.391v-1.415h1.231v1.415Zm0,8.606v-7.26h1.231V250Z"/>
      <path d="M519.09,246.367a3.74,3.74,0,0,1,1.121-2.987,3.381,3.381,0,0,1,2.283-.807,3.253,3.253,0,0,1,2.447.982,3.731,3.731,0,0,1,.95,2.71,4.811,4.811,0,0,1-.42,2.205,2.978,2.978,0,0,1-1.224,1.247,3.555,3.555,0,0,1-1.753.444,3.264,3.264,0,0,1-2.465-.977A3.9,3.9,0,0,1,519.09,246.367Zm1.264,0a3.092,3.092,0,0,0,.609,2.089,2.026,2.026,0,0,0,3.055,0,3.163,3.163,0,0,0,.609-2.126,3,3,0,0,0-.612-2.04,2.029,2.029,0,0,0-3.052,0A3.079,3.079,0,0,0,520.354,246.367Z"/>
      <path d="M527.654,250v-1.4h1.4V250a2.49,2.49,0,0,1-.274,1.248,1.772,1.772,0,0,1-.869.734l-.342-.526a1.161,1.161,0,0,0,.574-.5,2.136,2.136,0,0,0,.206-.954Z"/>
      <path d="M385.98,264.63l1.217-.192a1.7,1.7,0,0,0,.571,1.122,1.991,1.991,0,0,0,1.308.389,1.922,1.922,0,0,0,1.258-.345,1.033,1.033,0,0,0,.41-.81.749.749,0,0,0-.361-.656,5.333,5.333,0,0,0-1.258-.417,11.569,11.569,0,0,1-1.877-.591,1.789,1.789,0,0,1-1.062-1.665,1.884,1.884,0,0,1,.221-.9,2,2,0,0,1,.605-.687,2.522,2.522,0,0,1,.783-.358,3.679,3.679,0,0,1,1.062-.148,4.2,4.2,0,0,1,1.5.246,2.051,2.051,0,0,1,.955.667,2.61,2.61,0,0,1,.423,1.124l-1.2.164a1.316,1.316,0,0,0-.475-.875,1.743,1.743,0,0,0-1.111-.314,2.025,2.025,0,0,0-1.211.28.818.818,0,0,0-.361.656.679.679,0,0,0,.15.431,1.07,1.07,0,0,0,.471.328c.123.046.486.15,1.088.315a14.879,14.879,0,0,1,1.821.571,1.832,1.832,0,0,1,.81.645,1.808,1.808,0,0,1,.3,1.053,2.062,2.062,0,0,1-.36,1.159,2.311,2.311,0,0,1-1.035.841,3.774,3.774,0,0,1-1.531.3,3.407,3.407,0,0,1-2.157-.588A2.733,2.733,0,0,1,385.98,264.63Z"/>
      <path d="M398.23,266.8V265.73a2.657,2.657,0,0,1-2.3,1.231,2.933,2.933,0,0,1-1.2-.246,1.983,1.983,0,0,1-.828-.618,2.326,2.326,0,0,1-.379-.913,6.268,6.268,0,0,1-.075-1.149v-4.5h1.231v4.026a7.213,7.213,0,0,0,.074,1.3,1.287,1.287,0,0,0,.492.763,1.524,1.524,0,0,0,.93.276,2.024,2.024,0,0,0,1.039-.283,1.575,1.575,0,0,0,.687-.772,3.866,3.866,0,0,0,.2-1.419v-3.89h1.23v7.26Z"/>
      <path d="M401.258,269.579V259.537h1.121v.943a2.772,2.772,0,0,1,.9-.83,2.464,2.464,0,0,1,1.209-.277,2.87,2.87,0,0,1,1.641.479,2.934,2.934,0,0,1,1.074,1.35,4.938,4.938,0,0,1,.362,1.91,4.85,4.85,0,0,1-.4,2.007,3.04,3.04,0,0,1-2.765,1.842,2.3,2.3,0,0,1-1.1-.26,2.519,2.519,0,0,1-.8-.656v3.534Zm1.115-6.371a3.162,3.162,0,0,0,.566,2.071,1.738,1.738,0,0,0,1.375.67,1.78,1.78,0,0,0,1.4-.693,3.3,3.3,0,0,0,.584-2.151,3.208,3.208,0,0,0-.571-2.078,1.718,1.718,0,0,0-1.363-.69,1.771,1.771,0,0,0-1.391.735A3.284,3.284,0,0,0,402.373,263.208Z"/>
      <path d="M408.586,263.167a3.743,3.743,0,0,1,1.121-2.987,3.384,3.384,0,0,1,2.283-.807,3.258,3.258,0,0,1,2.448.981,3.735,3.735,0,0,1,.951,2.71,4.814,4.814,0,0,1-.421,2.206,2.978,2.978,0,0,1-1.224,1.247,3.564,3.564,0,0,1-1.754.444,3.259,3.259,0,0,1-2.464-.978A3.9,3.9,0,0,1,408.586,263.167Zm1.266,0a3.1,3.1,0,0,0,.607,2.089,2.028,2.028,0,0,0,3.057,0,3.168,3.168,0,0,0,.607-2.126,3,3,0,0,0-.611-2.04,2.03,2.03,0,0,0-3.053,0A3.082,3.082,0,0,0,409.852,263.167Z"/>
      <path d="M416.816,266.8v-7.26h1.108v1.1a3.014,3.014,0,0,1,.783-1.019,1.365,1.365,0,0,1,.789-.246,2.409,2.409,0,0,1,1.266.4l-.424,1.141a1.759,1.759,0,0,0-.9-.266,1.169,1.169,0,0,0-.725.243,1.309,1.309,0,0,0-.459.673,4.78,4.78,0,0,0-.2,1.435v3.8Z"/>
      <path d="M424.18,265.7l.177,1.087a4.557,4.557,0,0,1-.929.11,2.1,2.1,0,0,1-1.039-.212,1.186,1.186,0,0,1-.52-.557,4.42,4.42,0,0,1-.15-1.453v-4.177h-.9v-.957h.9v-1.8l1.222-.738v2.536h1.239v.957h-1.239v4.245a2.108,2.108,0,0,0,.066.677.506.506,0,0,0,.212.239.808.808,0,0,0,.42.089A3.862,3.862,0,0,0,424.18,265.7Z"/>
      <path d="M430.352,264.459l1.271.157a3.1,3.1,0,0,1-1.113,1.73,3.777,3.777,0,0,1-4.605-.366,3.832,3.832,0,0,1-.932-2.751,4.013,4.013,0,0,1,.943-2.844,3.194,3.194,0,0,1,2.447-1.012,3.106,3.106,0,0,1,2.379.991,3.94,3.94,0,0,1,.922,2.789c0,.074,0,.183-.006.328h-5.414a2.787,2.787,0,0,0,.676,1.832,2.016,2.016,0,0,0,1.518.636,1.887,1.887,0,0,0,1.156-.355A2.365,2.365,0,0,0,430.352,264.459Zm-4.039-1.989h4.052a2.446,2.446,0,0,0-.465-1.374,1.882,1.882,0,0,0-1.523-.711,1.957,1.957,0,0,0-1.426.567A2.249,2.249,0,0,0,426.313,262.47Z"/>
      <path d="M442.027,264.459l1.272.157a3.1,3.1,0,0,1-1.113,1.73,3.355,3.355,0,0,1-2.079.615,3.321,3.321,0,0,1-2.526-.981,3.833,3.833,0,0,1-.933-2.751,4.013,4.013,0,0,1,.944-2.844,3.194,3.194,0,0,1,2.447-1.012,3.106,3.106,0,0,1,2.379.991,3.94,3.94,0,0,1,.922,2.789c0,.074,0,.183-.006.328H437.92a2.782,2.782,0,0,0,.676,1.832,2.015,2.015,0,0,0,1.517.636,1.89,1.89,0,0,0,1.157-.355A2.357,2.357,0,0,0,442.027,264.459Zm-4.039-1.989h4.053a2.454,2.454,0,0,0-.465-1.374,1.882,1.882,0,0,0-1.523-.711,1.955,1.955,0,0,0-1.426.567A2.249,2.249,0,0,0,437.988,262.47Z"/>
      <path d="M453.471,264.138l1.211.157a3.143,3.143,0,0,1-1.016,1.959,2.955,2.955,0,0,1-2.006.707,3.113,3.113,0,0,1-2.4-.974,3.951,3.951,0,0,1-.907-2.793,5.049,5.049,0,0,1,.391-2.057,2.713,2.713,0,0,1,1.186-1.323,3.527,3.527,0,0,1,1.732-.441,3.01,3.01,0,0,1,1.936.6,2.734,2.734,0,0,1,.962,1.7l-1.195.184a1.989,1.989,0,0,0-.605-1.1,1.565,1.565,0,0,0-1.049-.369,1.911,1.911,0,0,0-1.512.667,3.164,3.164,0,0,0-.58,2.108,3.265,3.265,0,0,0,.561,2.126,1.819,1.819,0,0,0,1.462.663,1.717,1.717,0,0,0,1.209-.444A2.194,2.194,0,0,0,453.471,264.138Z"/>
      <path d="M455.275,263.167a3.743,3.743,0,0,1,1.121-2.987,3.385,3.385,0,0,1,2.284-.807,3.256,3.256,0,0,1,2.447.981,3.731,3.731,0,0,1,.951,2.71,4.8,4.8,0,0,1-.421,2.206,2.976,2.976,0,0,1-1.223,1.247,3.57,3.57,0,0,1-1.754.444,3.257,3.257,0,0,1-2.464-.978A3.9,3.9,0,0,1,455.275,263.167Zm1.266,0a3.1,3.1,0,0,0,.607,2.089,2.028,2.028,0,0,0,3.057,0,3.168,3.168,0,0,0,.608-2.126,3,3,0,0,0-.612-2.04,2.03,2.03,0,0,0-3.053,0A3.082,3.082,0,0,0,456.541,263.167Z"/>
      <path d="M463.52,266.8v-7.26h1.1v1.019a2.555,2.555,0,0,1,2.2-1.183,2.393,2.393,0,0,1,1.323.335,1.806,1.806,0,0,1,.728.937,2.605,2.605,0,0,1,2.242-1.272,2.2,2.2,0,0,1,1.66.6,2.55,2.55,0,0,1,.582,1.841V266.8h-1.224v-4.573a3.359,3.359,0,0,0-.119-1.063,1.035,1.035,0,0,0-.434-.523,1.358,1.358,0,0,0-.738-.2,1.717,1.717,0,0,0-1.272.51,2.238,2.238,0,0,0-.506,1.63V266.8h-1.23V262.08a2.076,2.076,0,0,0-.3-1.23,1.139,1.139,0,0,0-.984-.411,1.792,1.792,0,0,0-.961.274,1.553,1.553,0,0,0-.639.8,4.478,4.478,0,0,0-.2,1.517V266.8Z"/>
      <path d="M479.939,266.8V265.73a2.653,2.653,0,0,1-2.3,1.231,2.938,2.938,0,0,1-1.2-.246,1.971,1.971,0,0,1-.828-.618,2.34,2.34,0,0,1-.379-.913,6.247,6.247,0,0,1-.076-1.149v-4.5h1.231v4.026a7.059,7.059,0,0,0,.076,1.3,1.278,1.278,0,0,0,.492.763,1.522,1.522,0,0,0,.93.276,2.027,2.027,0,0,0,1.039-.283,1.573,1.573,0,0,0,.686-.772,3.884,3.884,0,0,0,.2-1.419v-3.89h1.23v7.26Z"/>
      <path d="M482.969,266.8v-7.26h1.107v1.032a2.61,2.61,0,0,1,2.311-1.2,3.031,3.031,0,0,1,1.206.236,1.907,1.907,0,0,1,.823.619,2.347,2.347,0,0,1,.383.909,7.013,7.013,0,0,1,.068,1.2V266.8h-1.23v-4.416a3.306,3.306,0,0,0-.143-1.124,1.178,1.178,0,0,0-.51-.6,1.619,1.619,0,0,0-.857-.223,2,2,0,0,0-1.357.5,2.461,2.461,0,0,0-.571,1.894V266.8Z"/>
      <path d="M490.762,258.19v-1.415h1.23v1.415Zm0,8.607v-7.26h1.23v7.26Z"/>
      <path d="M498.574,266.8v-.916a2.254,2.254,0,0,1-2.029,1.08,2.843,2.843,0,0,1-1.6-.479,3.145,3.145,0,0,1-1.128-1.336,4.627,4.627,0,0,1-.4-1.972,5.15,5.15,0,0,1,.363-1.972,2.853,2.853,0,0,1,1.086-1.357,2.907,2.907,0,0,1,1.621-.472,2.422,2.422,0,0,1,2,1v-3.6h1.225V266.8Zm-3.888-3.623a3.152,3.152,0,0,0,.587,2.085,1.769,1.769,0,0,0,1.387.69,1.742,1.742,0,0,0,1.371-.659,3.043,3.043,0,0,0,.565-2.014,3.412,3.412,0,0,0-.575-2.187,1.765,1.765,0,0,0-1.416-.7,1.7,1.7,0,0,0-1.37.67A3.313,3.313,0,0,0,494.686,263.174Z"/>
      <path d="M506.389,265.9a4.562,4.562,0,0,1-1.317.821,3.794,3.794,0,0,1-1.357.239,2.635,2.635,0,0,1-1.838-.584,1.929,1.929,0,0,1-.643-1.494,1.972,1.972,0,0,1,.243-.974,2.013,2.013,0,0,1,.635-.708,3.021,3.021,0,0,1,.886-.4,8.857,8.857,0,0,1,1.094-.185,11.12,11.12,0,0,0,2.193-.424c0-.168.008-.275.008-.321a1.355,1.355,0,0,0-.35-1.059,2.056,2.056,0,0,0-1.4-.417,2.173,2.173,0,0,0-1.282.3,1.856,1.856,0,0,0-.613,1.076l-1.2-.164a2.99,2.99,0,0,1,.541-1.247,2.364,2.364,0,0,1,1.086-.731,4.856,4.856,0,0,1,1.649-.257,4.343,4.343,0,0,1,1.509.219,1.99,1.99,0,0,1,.856.551,1.935,1.935,0,0,1,.383.836,6.987,6.987,0,0,1,.06,1.135v1.641a17.7,17.7,0,0,0,.079,2.171,2.718,2.718,0,0,0,.312.871h-1.285A2.59,2.59,0,0,1,506.389,265.9Zm-.1-2.748a8.936,8.936,0,0,1-2.01.465,4.651,4.651,0,0,0-1.072.246,1.074,1.074,0,0,0-.486.4,1.089,1.089,0,0,0,.2,1.4,1.6,1.6,0,0,0,1.091.328,2.537,2.537,0,0,0,1.263-.31,1.924,1.924,0,0,0,.815-.852,2.976,2.976,0,0,0,.2-1.231Z"/>
      <path d="M514.146,266.8v-.916a2.253,2.253,0,0,1-2.029,1.08,2.838,2.838,0,0,1-1.6-.479,3.131,3.131,0,0,1-1.128-1.336,4.612,4.612,0,0,1-.4-1.972,5.15,5.15,0,0,1,.363-1.972,2.859,2.859,0,0,1,1.086-1.357,2.908,2.908,0,0,1,1.622-.472,2.422,2.422,0,0,1,2,1v-3.6h1.225V266.8Zm-3.888-3.623a3.146,3.146,0,0,0,.588,2.085,1.766,1.766,0,0,0,1.386.69,1.743,1.743,0,0,0,1.372-.659,3.048,3.048,0,0,0,.564-2.014,3.413,3.413,0,0,0-.574-2.187,1.768,1.768,0,0,0-1.416-.7,1.7,1.7,0,0,0-1.37.67A3.307,3.307,0,0,0,510.258,263.174Z"/>
      <path d="M522.193,264.459l1.272.157a3.1,3.1,0,0,1-1.115,1.73,3.775,3.775,0,0,1-4.6-.366,3.833,3.833,0,0,1-.933-2.751,4.013,4.013,0,0,1,.943-2.844,3.2,3.2,0,0,1,2.447-1.012,3.106,3.106,0,0,1,2.379.991,3.941,3.941,0,0,1,.924,2.789c0,.074,0,.183-.008.328h-5.414a2.782,2.782,0,0,0,.678,1.832,2.012,2.012,0,0,0,1.517.636,1.882,1.882,0,0,0,1.155-.355A2.36,2.36,0,0,0,522.193,264.459Zm-4.041-1.989h4.055a2.461,2.461,0,0,0-.465-1.374,1.886,1.886,0,0,0-1.525-.711,1.956,1.956,0,0,0-1.425.567A2.246,2.246,0,0,0,518.152,262.47Z"/>
      <path d="M524.518,264.63l1.216-.192a1.7,1.7,0,0,0,.571,1.122,1.991,1.991,0,0,0,1.308.389,1.922,1.922,0,0,0,1.258-.345,1.03,1.03,0,0,0,.41-.81.749.749,0,0,0-.361-.656,5.333,5.333,0,0,0-1.258-.417,11.569,11.569,0,0,1-1.877-.591,1.789,1.789,0,0,1-1.062-1.665,1.884,1.884,0,0,1,.221-.9,2,2,0,0,1,.605-.687,2.522,2.522,0,0,1,.783-.358,3.686,3.686,0,0,1,1.063-.148,4.206,4.206,0,0,1,1.5.246,2.047,2.047,0,0,1,.954.667,2.61,2.61,0,0,1,.423,1.124l-1.2.164a1.316,1.316,0,0,0-.475-.875,1.743,1.743,0,0,0-1.111-.314,2.025,2.025,0,0,0-1.211.28.818.818,0,0,0-.361.656.674.674,0,0,0,.151.431,1.061,1.061,0,0,0,.47.328c.123.046.487.15,1.088.315a14.879,14.879,0,0,1,1.821.571,1.832,1.832,0,0,1,.81.645,1.808,1.808,0,0,1,.3,1.053,2.069,2.069,0,0,1-.359,1.159,2.314,2.314,0,0,1-1.036.841,3.774,3.774,0,0,1-1.531.3,3.407,3.407,0,0,1-2.157-.588A2.728,2.728,0,0,1,524.518,264.63Z"/>
      <path d="M427.762,283.6v-.916a2.263,2.263,0,0,1-2.032,1.08,2.845,2.845,0,0,1-1.6-.479,3.134,3.134,0,0,1-1.128-1.337,4.607,4.607,0,0,1-.4-1.971,5.178,5.178,0,0,1,.362-1.973,2.853,2.853,0,0,1,1.088-1.356,2.9,2.9,0,0,1,1.619-.472,2.415,2.415,0,0,1,2,1v-3.6H428.9V283.6Zm-3.891-3.623a3.155,3.155,0,0,0,.588,2.085,1.776,1.776,0,0,0,1.389.69,1.74,1.74,0,0,0,1.37-.66,3.042,3.042,0,0,0,.563-2.013,3.409,3.409,0,0,0-.574-2.187,1.764,1.764,0,0,0-1.414-.7,1.7,1.7,0,0,0-1.371.67A3.308,3.308,0,0,0,423.871,279.975Z"/>
      <path d="M435.807,281.26l1.271.157a3.1,3.1,0,0,1-1.113,1.729,3.773,3.773,0,0,1-4.6-.366,3.831,3.831,0,0,1-.932-2.751,4.007,4.007,0,0,1,.943-2.843,3.191,3.191,0,0,1,2.447-1.012,3.1,3.1,0,0,1,2.379.991,3.932,3.932,0,0,1,.922,2.789c0,.072,0,.182-.006.328H431.7a2.791,2.791,0,0,0,.676,1.832,2.016,2.016,0,0,0,1.518.636,1.893,1.893,0,0,0,1.156-.355A2.375,2.375,0,0,0,435.807,281.26Zm-4.039-1.989h4.052a2.447,2.447,0,0,0-.465-1.375,1.881,1.881,0,0,0-1.523-.71,1.953,1.953,0,0,0-1.426.567A2.245,2.245,0,0,0,431.768,279.271Z"/>
      <path d="M447.271,283.6v-1.067a2.656,2.656,0,0,1-2.3,1.231,2.933,2.933,0,0,1-1.2-.246,1.97,1.97,0,0,1-.828-.62,2.315,2.315,0,0,1-.379-.912,6.27,6.27,0,0,1-.075-1.148v-4.5h1.231v4.026a7.228,7.228,0,0,0,.074,1.3,1.291,1.291,0,0,0,.492.762,1.531,1.531,0,0,0,.93.277,2.025,2.025,0,0,0,1.039-.284,1.571,1.571,0,0,0,.687-.772,3.864,3.864,0,0,0,.2-1.418v-3.89h1.23v7.26Z"/>
      <path d="M449.807,281.431l1.216-.192a1.7,1.7,0,0,0,.572,1.121,1.987,1.987,0,0,0,1.309.39,1.918,1.918,0,0,0,1.258-.346,1.028,1.028,0,0,0,.41-.809.748.748,0,0,0-.363-.657,5.315,5.315,0,0,0-1.258-.417,11.447,11.447,0,0,1-1.876-.591,1.792,1.792,0,0,1-1.063-1.664,1.875,1.875,0,0,1,.222-.9,1.988,1.988,0,0,1,.606-.686,2.527,2.527,0,0,1,.782-.36,3.763,3.763,0,0,1,1.064-.146,4.2,4.2,0,0,1,1.5.246,2.043,2.043,0,0,1,.953.666,2.61,2.61,0,0,1,.424,1.125l-1.2.164a1.314,1.314,0,0,0-.474-.875,1.738,1.738,0,0,0-1.112-.314,2,2,0,0,0-1.209.28.813.813,0,0,0-.363.656.684.684,0,0,0,.151.431,1.084,1.084,0,0,0,.472.328q.185.067,1.086.314a15.158,15.158,0,0,1,1.822.571,1.848,1.848,0,0,1,.811.646,1.808,1.808,0,0,1,.293,1.053,2.064,2.064,0,0,1-.358,1.158,2.324,2.324,0,0,1-1.037.841,3.771,3.771,0,0,1-1.531.3,3.414,3.414,0,0,1-2.156-.588A2.738,2.738,0,0,1,449.807,281.431Z"/>
      <path d="M462.057,283.6v-1.067a2.655,2.655,0,0,1-2.3,1.231,2.938,2.938,0,0,1-1.2-.246,1.954,1.954,0,0,1-.827-.62,2.3,2.3,0,0,1-.379-.912,6.139,6.139,0,0,1-.077-1.148v-4.5H458.5v4.026a7.074,7.074,0,0,0,.076,1.3,1.282,1.282,0,0,0,.492.762,1.529,1.529,0,0,0,.93.277,2.028,2.028,0,0,0,1.039-.284,1.576,1.576,0,0,0,.687-.772,3.907,3.907,0,0,0,.2-1.418v-3.89h1.23v7.26Z"/>
      <path d="M469.822,282.7a4.594,4.594,0,0,1-1.315.82,3.79,3.79,0,0,1-1.357.24,2.643,2.643,0,0,1-1.839-.585,1.932,1.932,0,0,1-.643-1.493,2.023,2.023,0,0,1,.879-1.682,2.953,2.953,0,0,1,.885-.4,8.53,8.53,0,0,1,1.093-.185,11.3,11.3,0,0,0,2.2-.424q.006-.253.006-.321a1.36,1.36,0,0,0-.348-1.06,2.062,2.062,0,0,0-1.4-.417,2.18,2.18,0,0,0-1.282.3,1.863,1.863,0,0,0-.611,1.077l-1.2-.164a2.993,2.993,0,0,1,.539-1.248,2.373,2.373,0,0,1,1.088-.731,4.835,4.835,0,0,1,1.646-.256,4.342,4.342,0,0,1,1.512.219,1.99,1.99,0,0,1,.854.549,1.931,1.931,0,0,1,.382.838,6.878,6.878,0,0,1,.063,1.135v1.641a17.34,17.34,0,0,0,.078,2.17,2.763,2.763,0,0,0,.311.872h-1.286A2.641,2.641,0,0,1,469.822,282.7Zm-.1-2.748a9.091,9.091,0,0,1-2.01.465,4.569,4.569,0,0,0-1.074.246,1.079,1.079,0,0,0-.485.4,1.085,1.085,0,0,0,.2,1.406,1.6,1.6,0,0,0,1.089.328,2.533,2.533,0,0,0,1.266-.312,1.907,1.907,0,0,0,.812-.85,2.961,2.961,0,0,0,.2-1.231Zm-2.393-4.518.908-1.915h1.614l-1.5,1.915Z"/>
      <path d="M472.857,283.6v-7.26h1.108v1.1a3.008,3.008,0,0,1,.783-1.018,1.365,1.365,0,0,1,.789-.246,2.407,2.407,0,0,1,1.266.4l-.424,1.142a1.76,1.76,0,0,0-.9-.267,1.169,1.169,0,0,0-.725.243,1.317,1.317,0,0,0-.459.673,4.787,4.787,0,0,0-.2,1.436v3.8Z"/>
      <path d="M477.541,274.991v-1.415h1.23v1.415Zm0,8.607v-7.26h1.23v7.26Z"/>
      <path d="M480.186,279.968a3.744,3.744,0,0,1,1.121-2.988,3.377,3.377,0,0,1,2.283-.806,3.259,3.259,0,0,1,2.447.98,3.733,3.733,0,0,1,.951,2.711,4.789,4.789,0,0,1-.421,2.2,2.973,2.973,0,0,1-1.223,1.248,3.565,3.565,0,0,1-1.754.445,3.261,3.261,0,0,1-2.464-.978A3.908,3.908,0,0,1,480.186,279.968Zm1.265,0a3.089,3.089,0,0,0,.608,2.088,2.026,2.026,0,0,0,3.056,0,3.165,3.165,0,0,0,.608-2.126,2.994,2.994,0,0,0-.612-2.041,2.028,2.028,0,0,0-3.052,0A3.075,3.075,0,0,0,481.451,279.968Z"/>
      <path d="M487.938,281.431l1.216-.192a1.7,1.7,0,0,0,.572,1.121,1.987,1.987,0,0,0,1.309.39,1.918,1.918,0,0,0,1.258-.346,1.031,1.031,0,0,0,.41-.809.748.748,0,0,0-.363-.657,5.315,5.315,0,0,0-1.258-.417,11.447,11.447,0,0,1-1.876-.591,1.792,1.792,0,0,1-1.063-1.664,1.875,1.875,0,0,1,.222-.9,1.988,1.988,0,0,1,.606-.686,2.527,2.527,0,0,1,.782-.36,3.761,3.761,0,0,1,1.063-.146,4.2,4.2,0,0,1,1.5.246,2.046,2.046,0,0,1,.954.666,2.6,2.6,0,0,1,.423,1.125l-1.2.164a1.314,1.314,0,0,0-.474-.875,1.738,1.738,0,0,0-1.112-.314,2,2,0,0,0-1.209.28.813.813,0,0,0-.363.656.689.689,0,0,0,.15.431,1.094,1.094,0,0,0,.473.328c.123.045.484.15,1.086.314a15.158,15.158,0,0,1,1.822.571,1.848,1.848,0,0,1,.811.646,1.808,1.808,0,0,1,.293,1.053,2.058,2.058,0,0,1-.359,1.158,2.321,2.321,0,0,1-1.036.841,3.771,3.771,0,0,1-1.531.3,3.414,3.414,0,0,1-2.156-.588A2.738,2.738,0,0,1,487.938,281.431Z"/>
    </g>
    <g>
      <path d="M435.068,122.994v-8.64a7.3,7.3,0,0,1,.25-1.969,3.633,3.633,0,0,1,2.4-2.541,7.166,7.166,0,0,1,2.41-.35,7.265,7.265,0,0,1,2.42.35,3.819,3.819,0,0,1,1.57,1,3.778,3.778,0,0,1,.84,1.541,7.3,7.3,0,0,1,.25,1.969v8.64h-2.1v-4.92h-5.98v4.92Zm2.061-6.5h5.98v-2.2a5.551,5.551,0,0,0-.14-1.29,2.524,2.524,0,0,0-.49-1.02,2.34,2.34,0,0,0-.92-.67,3.707,3.707,0,0,0-1.43-.24,3.762,3.762,0,0,0-1.45.24,2.325,2.325,0,0,0-.92.67,2.486,2.486,0,0,0-.49,1.02,5.605,5.605,0,0,0-.14,1.29Z"/>
      <path d="M446.408,125.874a14.222,14.222,0,0,0,1.141-1.11,4.478,4.478,0,0,0,.68-.97,3.42,3.42,0,0,0,.32-.98,7.308,7.308,0,0,0,.08-1.14v-8.32h2.019v8.3a7.062,7.062,0,0,1-.16,1.59,4.15,4.15,0,0,1-.54,1.29,5.829,5.829,0,0,1-1.02,1.181,18.777,18.777,0,0,1-1.58,1.26Zm2.28-15.28a1.059,1.059,0,0,1-.34-.84,1.082,1.082,0,0,1,.34-.859,1.369,1.369,0,0,1,.941-.3q1.278,0,1.279,1.16a1.073,1.073,0,0,1-.33.84,1.634,1.634,0,0,1-1.89,0Z"/>
      <path d="M455.908,119.734a2.188,2.188,0,0,0,.17.911,1.551,1.551,0,0,0,.471.6,1.775,1.775,0,0,0,.689.32,3.776,3.776,0,0,0,.85.09,7.447,7.447,0,0,0,1.141-.09,9.649,9.649,0,0,0,.959-.19v-8.02h2.02v9.121a14.378,14.378,0,0,1-1.909.5,11.6,11.6,0,0,1-2.25.219,7.276,7.276,0,0,1-1.6-.171,3.658,3.658,0,0,1-1.33-.569,2.764,2.764,0,0,1-.9-1.069,3.753,3.753,0,0,1-.33-1.67v-6.361h2.019Z"/>
      <path d="M473.629,122.614q-.9.222-2.061.4a13.789,13.789,0,0,1-2.12.18,6.632,6.632,0,0,1-1.78-.229,3.393,3.393,0,0,1-1.439-.82,3.945,3.945,0,0,1-.971-1.571,7.477,7.477,0,0,1-.35-2.48,6.772,6.772,0,0,1,.35-2.34,4.038,4.038,0,0,1,.95-1.52,3.473,3.473,0,0,1,1.41-.83,5.926,5.926,0,0,1,1.75-.25,7.633,7.633,0,0,1,1.111.08q.53.08,1.109.2V108.4h2.041Zm-2.021-7.62a10.554,10.554,0,0,0-1.08-.221,7.536,7.536,0,0,0-1.08-.079,2.99,2.99,0,0,0-.95.15,1.713,1.713,0,0,0-.779.541,2.788,2.788,0,0,0-.521,1.039,6.075,6.075,0,0,0-.19,1.67,7.562,7.562,0,0,0,.17,1.77,2.912,2.912,0,0,0,.49,1.1,1.6,1.6,0,0,0,.78.558,3.322,3.322,0,0,0,1.04.151,8.386,8.386,0,0,0,1.061-.07c.359-.046.713-.1,1.059-.17Z"/>
      <path d="M484.168,122.514q-.76.221-1.83.451a10.975,10.975,0,0,1-2.29.229,7.173,7.173,0,0,1-1.56-.16,3.463,3.463,0,0,1-1.25-.53,2.542,2.542,0,0,1-.83-.97,3.333,3.333,0,0,1-.3-1.5,2.728,2.728,0,0,1,.331-1.4,2.619,2.619,0,0,1,.871-.9,3.662,3.662,0,0,1,1.259-.48,7.871,7.871,0,0,1,1.5-.14q.639,0,1.151.05c.34.033.649.077.929.13v-.94a1.391,1.391,0,0,0-.65-1.35,3.417,3.417,0,0,0-1.63-.35,8.591,8.591,0,0,0-1.4.119q-.721.121-1.281.241l-.14-1.52q.641-.141,1.41-.24a11.843,11.843,0,0,1,1.511-.1,8.335,8.335,0,0,1,1.609.151,3.741,3.741,0,0,1,1.34.519,2.758,2.758,0,0,1,.91.97,3,3,0,0,1,.34,1.5Zm-2.02-3.76c-.28-.053-.587-.1-.919-.13s-.674-.05-1.021-.05a5.335,5.335,0,0,0-.83.061,1.889,1.889,0,0,0-.68.229,1.236,1.236,0,0,0-.46.48,1.683,1.683,0,0,0-.17.81,1.351,1.351,0,0,0,.59,1.27,2.746,2.746,0,0,0,1.43.349,7.512,7.512,0,0,0,1.131-.079q.528-.079.929-.18Z"/>
    </g>
    <g>
      <path d="M455.586,226.333c-.231-3.438.873-18.388,5.018-27.361" fill="none" stroke="#000" stroke-miterlimit="10"/>
      <polygon points="463.088 203.658 462.145 203.993 460.497 199.346 455.982 201.329 455.581 200.413 461.08 197.998 463.088 203.658"/>
    </g>
    <path d="M458.318,143.295a19,19,0,0,1,7.618,1.535,19.662,19.662,0,0,1,10.388,10.389,19.666,19.666,0,0,1,0,15.234,19.662,19.662,0,0,1-10.388,10.389,19.669,19.669,0,0,1-15.235,0,19.653,19.653,0,0,1-10.388-10.389,19.643,19.643,0,0,1,0-15.234A19.653,19.653,0,0,1,450.7,144.83,18.978,18.978,0,0,1,458.318,143.295Zm0,35.893a15.9,15.9,0,0,0,6.381-1.3,16.615,16.615,0,0,0,5.2-3.51,16.417,16.417,0,0,0,3.49-5.184,16.425,16.425,0,0,0-.02-12.742,16.659,16.659,0,0,0-3.51-5.205,16.423,16.423,0,0,0-5.184-3.488,16.4,16.4,0,0,0-12.741.019,16.624,16.624,0,0,0-5.206,3.51,16.414,16.414,0,0,0-3.489,5.184,16.425,16.425,0,0,0,.02,12.742,16.657,16.657,0,0,0,3.509,5.2,16.422,16.422,0,0,0,5.185,3.488A15.926,15.926,0,0,0,458.318,179.188Zm-.12-29.711a12.389,12.389,0,0,1,4.626.757,8.708,8.708,0,0,1,2.991,1.895,6.814,6.814,0,0,1,1.6,2.451,7.179,7.179,0,0,1,.479,2.434,9.329,9.329,0,0,1-.28,2.453,7.321,7.321,0,0,1-.737,1.795,6.346,6.346,0,0,1-1.036,1.336,13.6,13.6,0,0,1-1.217,1.037q-.639.477-1.256.877a8.1,8.1,0,0,0-1.136.877,5.3,5.3,0,0,0-.9,1.076,3.641,3.641,0,0,0-.5,1.476h-5.3a8.247,8.247,0,0,1,.419-2.234,7.5,7.5,0,0,1,.818-1.674,8.415,8.415,0,0,1,1.036-1.277,10.224,10.224,0,0,1,1.157-1l.239-.2q.519-.44,1-.838a5.5,5.5,0,0,0,.837-.858,3.534,3.534,0,0,0,.559-1.017,3.912,3.912,0,0,0,.2-1.317,3.5,3.5,0,0,0-.877-2.631,3.381,3.381,0,0,0-2.432-.837,3.8,3.8,0,0,0-1.8.4,3.651,3.651,0,0,0-1.256,1.076,4.625,4.625,0,0,0-.738,1.6,7.706,7.706,0,0,0-.24,1.955h-5.7a11.21,11.21,0,0,1,.719-3.869,8.908,8.908,0,0,1,1.914-3.031,8.792,8.792,0,0,1,2.951-1.995A9.943,9.943,0,0,1,458.2,149.477Zm-2.672,21.455h5.3V176.2h-5.3Z" fill="#5b5d5e"/>
  </g>
</svg>
