<svg xmlns="http://www.w3.org/2000/svg" viewBox="0 0 560 380">
  <g style="isolation: isolate">
    <g>
      <g>
        <path d="M248.686,36l-1.036.957q-2.949-2.5-3.261-4.844a9.383,9.383,0,0,1-2.842,4.707l-1.143-.888c.111-.079.166-.131.166-.157a.06.06,0,0,0-.019-.039h-6.5V37.1h-1.416V30.242h-.068a12.442,12.442,0,0,1-1.436,1.279l-.938-1.064a8.821,8.821,0,0,0,2.979-3.877h-1.5V23.045h4.307v3.516l-2.207.019v.039l.859.342-.439.723h2.539a13.274,13.274,0,0,0,.6-1.182h-.439V23.045h4.257v3.476h-2.275a6.612,6.612,0,0,1-.605,1.163h3.242v1.357h-3.584v.879h2.939v1.357h-2.939V32.1h2.939v1.367h-2.939v.918h3.76q2.226-2.54,2.06-8.985.977.039,1.387.1l-.029,3.525a8.76,8.76,0,0,0,.976,3.819A8.112,8.112,0,0,0,248.686,36Zm-6.719-14.229h-2.578v1.1h-1.426v-1.1h-3.057v1.1h-1.435v-1.1h-2.823l.02-1.279h2.822V19.139h1.416V20.5h3.057V19.139h1.426V20.5h2.578ZM234.643,25.2v-.8h-1.631v.8Zm1.865,4.717v-.879h-2.461v.879Zm0,2.178v-.821h-2.461V32.1Zm0,2.285v-.918h-2.461v.918Zm3.3-9.18v-.8h-1.582v.8Zm8.418-2.519a19.408,19.408,0,0,1-1.182,5.654l-1.4-.342a16.279,16.279,0,0,0,1.016-3.916h-2.773a8.251,8.251,0,0,1-1.328,2.7l-1.3-.81q1.893-2.012,1.826-6.944l1.416.323a17.588,17.588,0,0,1-.3,3.34Z"/>
        <path d="M268.49,34.656l-.605,1.641q-5.412.136-5.928.137a26.09,26.09,0,0,1-4.629-.337,5.243,5.243,0,0,1-3.1-1.88q-.684.507-3.018,2.588l-1.142-1.2q1.131-.841,3.369-2.686v-6.2h-2.666V25.34h4.179V32.9a5.434,5.434,0,0,0,2.25,1.548,19.047,19.047,0,0,0,4.909.4Q263.87,34.842,268.49,34.656ZM254.945,22.938l-1.3.859a10.6,10.6,0,0,0-2.636-3.574l1.113-.821A11.491,11.491,0,0,1,254.945,22.938ZM261.908,20a9.844,9.844,0,0,1-3.662,2.158v8.467l2.764-.986V31.16l-4.58,1.7-.8-1.435,1.094-.381V21.1a8.375,8.375,0,0,0,3.984-2.022Zm5.176,10.078q0,1.6-2.48,1.6-.469,0-.733-.02l-.527-1.582a8.168,8.168,0,0,0,1.162.088q1.063,0,1.064-.459v-7.48h-2.3V34.119h-1.514V20.7h5.332Z"/>
        <path d="M289.145,35.477l-.918,1.445a19.968,19.968,0,0,1-4.206-.855,13.381,13.381,0,0,1-3.558-1.567,14.535,14.535,0,0,1-4.16,2.656l-1.172-1.338a10.382,10.382,0,0,0,4.014-2.236,21.127,21.127,0,0,1-2.54-2.8l1.3-.82a11.82,11.82,0,0,0,2.246,2.422,5.847,5.847,0,0,0,.821-2.676H276.43V24.119h4.619V22.8h-5.742l-.6,1.474v12.93h-1.563V27.078a22.978,22.978,0,0,1-1.582,2.285l-1.123-1.006q2.609-2.968,4.483-9.277l1.406.518-.527,1.679h5.244V19.021h1.582v2.256h5.4V22.8h-5.4v1.318h4.658v5.586h-4.726a8.825,8.825,0,0,1-1.114,3.594A19.52,19.52,0,0,0,289.145,35.477Zm-8.1-7.295V25.643h-3.086v2.539Zm4.619,0v-2.6h-3.037v2.6Z"/>
        <path d="M306.547,35.242a1.755,1.755,0,0,1-.41,1.182,1.3,1.3,0,0,1-1.026.478h-2.08l-.488-1.562,1.66.049q.762,0,.762-.45v-4.58h-4.356V35.7h-1.523V30.359h-4.4a11.215,11.215,0,0,1-2.92,6.846l-1.289-.967a12.2,12.2,0,0,0,2.094-3.423,10.919,10.919,0,0,0,.651-3.93V19.979h13.32Zm-7.461-10.879v-2.92H294.75v2.92Zm0,4.541V25.818H294.75V28.9Zm5.879-4.541v-2.92h-4.356v2.92Zm0,4.541V25.818h-4.356V28.9Z"/>
        <path d="M320.551,24.6l-.5,7.578H318.91l-.537-7.578V21.424h2.178Zm-.1,11.142h-2v-2h2Z"/>
        <path d="M147.166,54.206l-.469,1.227h-8.078a4.173,4.173,0,0,1-3.2-1.18l-1.9,1.648-.977-1.023,1.336-.93a6.474,6.474,0,0,0,.969-.781V48.526h-2v-1.2h3.226v5.953a2.958,2.958,0,0,0,1.453.813,10.6,10.6,0,0,0,2.2.18h5.968Zm-10.93-9.539-1.023.82a7.271,7.271,0,0,0-2.18-2.609l.946-.719A7.138,7.138,0,0,1,136.236,44.667ZM146.76,53h-7.211v.851h-1.172V47.183h-.047a7.471,7.471,0,0,1-.914,1.375l-1.008-.719a12.983,12.983,0,0,0,2.774-6.195l1.2.382a12.477,12.477,0,0,1-.555,2h2.352a9.3,9.3,0,0,0,.75-2.289l1.219.321a14.177,14.177,0,0,1-.672,1.968H146.3V45.2h-3.086v1.328h2.539v1.133h-2.539V49.1h2.539v1.172h-2.539V51.9h3.547Zm-4.75-6.477V45.2h-2.461v1.328Zm0,2.571V47.659h-2.461V49.1Zm0,2.8V50.269h-2.461V51.9Z"/>
        <path d="M162.283,49.245h-12.4V47.917h12.4Z"/>
        <path d="M177.9,49.229a10.645,10.645,0,0,1-2.375,3.415,11.255,11.255,0,0,1-3.668,1.988,28.506,28.506,0,0,1-6.55,1.269l-.446-1.234a27.981,27.981,0,0,0,6.743-1.262,8.836,8.836,0,0,0,3.3-1.926,10.664,10.664,0,0,0,1.914-2.968Zm-7.359.11a12.541,12.541,0,0,1-4.578,3.586l-.9-.992a11.911,11.911,0,0,0,4.485-3.329Zm8.32-1.375H173.15v3.648a1.207,1.207,0,0,1-.347.817,1.042,1.042,0,0,1-.793.386h-1.086l-.445-1.218,1.117.031c.193,0,.289-.1.289-.3V47.964h-6.367V46.8h2.289V43.05h1.257V46.8h2.657V41.581h1.265v2.047h5.071V44.8h-5.071v2h5.875Z"/>
        <path d="M195.549,47.69l-.789.961a5.661,5.661,0,0,1-1.36-.8v3.6h-2.429v3.289a1.256,1.256,0,0,1-.336.891,1.108,1.108,0,0,1-.844.359h-1.2l-.4-1.234a8.369,8.369,0,0,0,.961.086c.4,0,.6-.107.6-.321v-3.07H187.08V47.917a9.5,9.5,0,0,1-1.1.7l-.43-.383v5.711a5.955,5.955,0,0,0,2.859-2.211l.93.672a7.4,7.4,0,0,1-3.195,2.61l-.821-.86h-.992V53.37h-1.664v1.078h-1.211V42.636h4.094v4.8a8,8,0,0,0,1.726-1.2,3.914,3.914,0,0,0-1.312-1.2l1.07-.719a7.559,7.559,0,0,1,1.055,1.071l.726-1.117h-3.062V43.12h3.508a9.157,9.157,0,0,0,.226-1.633l1.211.25a8.794,8.794,0,0,1-.2,1.383h4.336v1.149h-1.172l.821.734a5.846,5.846,0,0,1-1.125,1.3A6.971,6.971,0,0,0,195.549,47.69ZM184.33,45.706V43.839h-1.664v1.867Zm0,3.219V46.862h-1.664v2.063Zm0,3.3V50.073h-1.664v2.149Zm7.859-3.86v-.781H188.3v.781Zm0,1.938v-.844H188.3V50.3Zm-.335-3.875a7.753,7.753,0,0,1-1.266-2.156h-.461a9.759,9.759,0,0,1-1.383,2.156Zm3.437,8.1-.93.735a7.886,7.886,0,0,0-3.07-2.7l.9-.735A6.9,6.9,0,0,1,195.291,54.526Zm-1.82-10.257h-1.6a4.273,4.273,0,0,0,.735,1.218A4.95,4.95,0,0,0,193.471,44.269Z"/>
        <path d="M210.439,42.331a18.324,18.324,0,0,1-.3,2.106,4.592,4.592,0,0,1-.6,1.855,1.146,1.146,0,0,1-.918.375,6.129,6.129,0,0,1-1.234-.156L207,45.183a5.636,5.636,0,0,0,1.328.367.42.42,0,0,0,.383-.3,10.64,10.64,0,0,0,.367-1.758h-1.789a4.557,4.557,0,0,1-2.812,3.821l-.532-.7v7.774a1.226,1.226,0,0,1-.418,1.031,1.38,1.38,0,0,1-.863.328H201.9l-.4-1.148h.844c.256.047.383-.1.383-.43V52.237h-3.36a6.025,6.025,0,0,1-1.68,3.774l-.914-.828a5.625,5.625,0,0,0,1.075-1.778,4.763,4.763,0,0,0,.324-1.551V46.847l-.383.492-.977-.8A9.154,9.154,0,0,0,199.4,41.6l1.141.4a10.035,10.035,0,0,1-.273,1.024H203.1a16.194,16.194,0,0,1-.828,2.546h1.679V46.3a3.38,3.38,0,0,0,2.2-2.813h-1.766V42.331Zm-8.828,1.844h-1.773a7.155,7.155,0,0,1-.656,1.39h1.789A6.79,6.79,0,0,0,201.611,44.175Zm-1.172,4.109v-1.57h-1.054v1.57Zm0,2.8V49.433h-1.054v1.648Zm2.29-2.8v-1.57h-1.071v1.57Zm0,2.8V49.433h-1.071v1.648Zm8.406,1.383h-2.7v3.5h-1.21v-3.5H204.3V51.308h2.93v-1.7h-1.25a4.486,4.486,0,0,1-.766,1.485l-1.086-.719a4.74,4.74,0,0,0,1.086-3.313l1.195.258a7.073,7.073,0,0,1-.109,1.141h.93v-1.6h1.21v1.6h1.86v1.148h-1.86v1.7h2.7Z"/>
        <path d="M216.994,51.9l2.125-.257a2.016,2.016,0,0,0,.547,1.242,1.5,1.5,0,0,0,1.078.429,1.481,1.481,0,0,0,1.145-.515,2,2,0,0,0,.465-1.391,1.863,1.863,0,0,0-.446-1.312,1.419,1.419,0,0,0-1.086-.485,3.85,3.85,0,0,0-1.008.164l.243-1.789a1.924,1.924,0,0,0,1.359-.386,1.376,1.376,0,0,0,.469-1.09,1.184,1.184,0,0,0-1.258-1.266,1.322,1.322,0,0,0-.961.391,1.828,1.828,0,0,0-.484,1.14l-2.024-.343a4.553,4.553,0,0,1,.637-1.661,2.878,2.878,0,0,1,1.187-.976,3.993,3.993,0,0,1,1.707-.356,3.4,3.4,0,0,1,2.594,1.032,2.61,2.61,0,0,1-.844,4.312,2.67,2.67,0,0,1,1.575.945,2.748,2.748,0,0,1,.59,1.774,3.441,3.441,0,0,1-1.1,2.57,4.112,4.112,0,0,1-5.32.168A3.518,3.518,0,0,1,216.994,51.9Z"/>
        <path d="M226.447,43.487h4.227a8.29,8.29,0,0,1,2.18.219,3.83,3.83,0,0,1,1.726,1.055,5,5,0,0,1,1.094,1.855,8.453,8.453,0,0,1,.375,2.707,7.51,7.51,0,0,1-.352,2.438,5.043,5.043,0,0,1-1.226,2.023,4.065,4.065,0,0,1-1.625.914,6.979,6.979,0,0,1-2.047.242h-4.352Zm2.313,1.938v7.586h1.726a6.221,6.221,0,0,0,1.4-.11,2.121,2.121,0,0,0,.933-.476,2.414,2.414,0,0,0,.606-1.106,7.475,7.475,0,0,0,.234-2.1,6.85,6.85,0,0,0-.234-2.039,2.625,2.625,0,0,0-.656-1.11,2.211,2.211,0,0,0-1.071-.539,10.473,10.473,0,0,0-1.9-.109Z"/>
        <path d="M241.438,54.94a3.745,3.745,0,0,1-2.256-.6,2.234,2.234,0,0,1-.816-1.927V44.3h6.384v1.264h-4.7v3.3h4.239v1.265h-4.239v2.3a1.105,1.105,0,0,0,.391.976,1.835,1.835,0,0,0,1.064.272h3.456V54.94Z"/>
        <path d="M246.014,54.94l3.679-5.392L246.222,44.3h1.936l2.576,3.952,2.688-3.952h1.792l-3.6,5.2,3.649,5.44h-1.968l-2.72-4.16-2.784,4.16Z"/>
        <path d="M257.038,54.94V44.3h3.441a8.257,8.257,0,0,1,1.767.168,3.145,3.145,0,0,1,1.272.569,2.44,2.44,0,0,1,.768,1.04,4.324,4.324,0,0,1,.256,1.6,4.253,4.253,0,0,1-.272,1.609,2.579,2.579,0,0,1-.791,1.071,3.312,3.312,0,0,1-1.249.592,6.693,6.693,0,0,1-1.64.184,11.12,11.12,0,0,1-1.871-.175V54.94Zm1.681-5.248a9.618,9.618,0,0,0,1.695.161,2.633,2.633,0,0,0,1.889-.544,2.225,2.225,0,0,0,.543-1.633,3.237,3.237,0,0,0-.136-1.015,1.392,1.392,0,0,0-.424-.649,1.767,1.767,0,0,0-.735-.344,4.822,4.822,0,0,0-1.072-.1h-1.76Z"/>
        <path d="M270.045,54.94a3.745,3.745,0,0,1-2.256-.6,2.234,2.234,0,0,1-.815-1.927V44.3h6.383v1.264h-4.7v3.3h4.24v1.265h-4.24v2.3a1.105,1.105,0,0,0,.391.976,1.837,1.837,0,0,0,1.064.272h3.456V54.94Z"/>
        <path d="M276.158,54.94V44.3h3.44a8.69,8.69,0,0,1,1.767.16,3.2,3.2,0,0,1,1.273.544,2.348,2.348,0,0,1,.768,1.017,4.228,4.228,0,0,1,.256,1.575,3.485,3.485,0,0,1-.16,1.112,2.621,2.621,0,0,1-.432.809,2.455,2.455,0,0,1-.648.56,3.974,3.974,0,0,1-.824.367,1.928,1.928,0,0,1,.912.672,5.071,5.071,0,0,1,.592,1.2l.944,2.624H282.3l-.832-2.255a6.917,6.917,0,0,0-.3-.7,2.237,2.237,0,0,0-.385-.544,1.545,1.545,0,0,0-.543-.36,2.08,2.08,0,0,0-.768-.127c-.256,0-.521-.009-.792-.024a6.876,6.876,0,0,1-.84-.1V54.94Zm1.68-5.376c.308.054.6.091.888.112s.551.032.807.032a2.738,2.738,0,0,0,1.889-.512,2.1,2.1,0,0,0,.544-1.6,3.122,3.122,0,0,0-.136-1,1.343,1.343,0,0,0-.424-.623,1.663,1.663,0,0,0-.736-.321,5.7,5.7,0,0,0-1.072-.088h-1.76Z"/>
        <path d="M286.414,54.94V44.3h1.68V54.94Z"/>
        <path d="M294.334,54.94a3.737,3.737,0,0,1-2.256-.6,2.229,2.229,0,0,1-.816-1.927V44.3h6.384v1.264h-4.705v3.3h4.241v1.265h-4.241v2.3a1.1,1.1,0,0,0,.393.976,1.829,1.829,0,0,0,1.063.272h3.457V54.94Z"/>
        <path d="M300.445,54.94V44.3h1.344l5.809,6.224V44.3h1.631V54.94H307.6v-2.4l-5.536-5.856V54.94Z"/>
        <path d="M319.326,54.78a8.812,8.812,0,0,1-1.377.257,13.112,13.112,0,0,1-1.408.079,6.687,6.687,0,0,1-1.983-.272,3.456,3.456,0,0,1-1.5-.911,4.122,4.122,0,0,1-.937-1.7,10.952,10.952,0,0,1,0-5.248,4.059,4.059,0,0,1,.937-1.688,3.437,3.437,0,0,1,1.511-.9,7.234,7.234,0,0,1,2.032-.263A12.432,12.432,0,0,1,318,44.22q.7.081,1.279.193l-.191,1.279a11.953,11.953,0,0,0-1.256-.208,11.555,11.555,0,0,0-1.305-.08,3.829,3.829,0,0,0-1.3.2,2,2,0,0,0-.921.681,3.309,3.309,0,0,0-.551,1.287,11.284,11.284,0,0,0,.008,4.113,3.284,3.284,0,0,0,.568,1.3,1.981,1.981,0,0,0,.944.673,4.117,4.117,0,0,0,1.32.192,8.911,8.911,0,0,0,1.3-.1q.695-.1,1.3-.232Z"/>
        <path d="M324.7,54.94a3.737,3.737,0,0,1-2.256-.6,2.229,2.229,0,0,1-.816-1.927V44.3h6.384v1.264h-4.7v3.3h4.24v1.265h-4.24v2.3a1.1,1.1,0,0,0,.392.976,1.83,1.83,0,0,0,1.064.272h3.456V54.94Z"/>
        <path d="M349.368,54.729l-.734,1.157a16.042,16.042,0,0,1-3.363-.684,10.711,10.711,0,0,1-2.848-1.254,11.621,11.621,0,0,1-3.328,2.125L338.157,55a8.3,8.3,0,0,0,3.211-1.789,16.939,16.939,0,0,1-2.031-2.242l1.039-.657a9.407,9.407,0,0,0,1.8,1.938,4.682,4.682,0,0,0,.656-2.141H339.2V45.644h3.7V44.589H338.3l-.477,1.18V56.112h-1.25v-8.1a18.414,18.414,0,0,1-1.265,1.828l-.9-.8a19.967,19.967,0,0,0,3.586-7.422l1.125.414L338.7,43.37h4.2v-1.8h1.265v1.8h4.321v1.219h-4.321v1.055h3.727v4.468H344.1a7.062,7.062,0,0,1-.891,2.875A15.612,15.612,0,0,0,349.368,54.729Zm-6.476-5.835V46.862h-2.469v2.032Zm3.695,0V46.815h-2.43v2.079Z"/>
        <path d="M363.29,54.542a1.4,1.4,0,0,1-.328.945,1.037,1.037,0,0,1-.82.383h-1.664l-.391-1.25,1.328.039c.406,0,.609-.119.609-.359V50.636H358.54v4.273h-1.219V50.636h-3.515a8.976,8.976,0,0,1-2.336,5.476l-1.032-.773a9.78,9.78,0,0,0,1.676-2.738,8.745,8.745,0,0,0,.52-3.145V42.331H363.29Zm-5.969-8.7V43.5h-3.468v2.336Zm0,3.633V47h-3.468v2.469Zm4.7-3.633V43.5H358.54v2.336Zm0,3.633V47H358.54v2.469Z"/>
        <path d="M380.478,47.612h-5.6a17.737,17.737,0,0,1-2.211,1.3h5.711v7.055h-1.211v-.945h-5.43v.945h-1.211V50.073l-3.14,1.328-.781-1.054a33.767,33.767,0,0,0,6.015-2.719H367.47v-1.18h4.992V44.714H369V43.55h3.461V41.565h1.258V43.55h2.992V44.5q.991-1.125,1.726-2.031l1.063.672a22.316,22.316,0,0,1-3.039,3.312h4.016Zm-3.313,3.711V50.058h-5.43v1.265Zm0,2.531V52.5h-5.43v1.359Zm-.687-9.14H373.72l-.016,1.734h.82A20.381,20.381,0,0,0,376.478,44.714Z"/>
        <path d="M396.829,47.245l-.773,1.024a12.871,12.871,0,0,1-6.539-5.055,13.115,13.115,0,0,1-6.274,5.18l-.765-1.008a11.109,11.109,0,0,0,6.75-6.172l1.054.555a2.264,2.264,0,0,0-.109.289q0,1.015,2.305,2.711A18.767,18.767,0,0,0,396.829,47.245Zm-8.976,3.57a4.827,4.827,0,0,1-.954,3,8.09,8.09,0,0,1-3.078,2.261l-1.078-1.023a6.745,6.745,0,0,0,3.074-1.8,4.258,4.258,0,0,0,.817-2.738V47.12h1.219Zm4.812,5.164h-1.211V47.12h1.211Z"/>
        <path d="M412.392,43.565h-5.9a7.547,7.547,0,0,1-.453,1.649h5.523V56.042h-1.218v-1.07h-9.438v1.2h-1.219V45.214H404.7a5.207,5.207,0,0,0,.547-1.649h-6.531V42.394h13.68Zm-9.274,10.243v-7.43h-2.211v7.43Zm3.9-5.922V46.378h-2.688v1.508Zm0,2.812V49.05h-2.688V50.7Zm0,3.11V51.87h-2.688v1.938Zm3.328-.016V46.378h-2.11v7.445Z"/>
        <path d="M416.634,54.94h-1.6v-1.6h1.6Z"/>
        <path d="M421.079,54.94h-1.6v-1.6h1.6Z"/>
        <path d="M425.524,54.94h-1.6v-1.6h1.6Z"/>
      </g>
      <g>
        <g>
          <path d="M202.478,247.578c.087.256.276.112.258-.6l-.318-.509Z" fill="#202020"/>
          <path d="M203.25,242.829c-.1-.836-.305-1.82-.649-1.3.254.85.106,1.042.417,1.949.01.709-.14,1.232-.262,1.108.079.253-.1,1.1.1,1.488a8.917,8.917,0,0,0,.18-3.307C203.126,242.508,203.193,242.766,203.25,242.829Z" fill="#202020"/>
          <path d="M235.969,184.866l-.384.225A3.351,3.351,0,0,0,235.969,184.866Z" fill="#202020"/>
          <path d="M275.5,170.964c-.321.033-.454.075-.468.107C275.325,171.026,275.57,170.987,275.5,170.964Z" fill="#202020"/>
          <path d="M282.721,171.2l-.424-.033A1.124,1.124,0,0,0,282.721,171.2Z" fill="#202020"/>
          <path d="M235.969,184.866l.984-.572C236.956,184.159,236.433,184.565,235.969,184.866Z" fill="#202020"/>
          <path d="M203.626,233.24a4.171,4.171,0,0,0-.024.632l.069-.586A.245.245,0,0,1,203.626,233.24Z" fill="#202020"/>
          <path d="M222.376,197.647l-.225.26a1.965,1.965,0,0,0-.084.3Z" fill="#202020"/>
          <path d="M214.151,209.346c.172-.275-.014-.514-.058-.685a1.567,1.567,0,0,1-.187.712C213.95,209.4,214.027,209.4,214.151,209.346Z" fill="#202020"/>
          <path d="M205.4,230.285l-.053.4Z" fill="#202020"/>
          <path d="M229.588,190.372a.282.282,0,0,0,.165-.01C229.73,190.335,229.669,190.344,229.588,190.372Z" fill="#202020"/>
          <path d="M203.666,264.5c.022.007.03-.012.048-.012C203.667,264.408,203.642,264.386,203.666,264.5Z" fill="#202020"/>
          <path d="M203.216,247.578l.021.232a.39.39,0,0,0,.159.05Z" fill="#202020"/>
          <path d="M295.737,173.015l-.056-.016C295.335,172.97,295.528,173,295.737,173.015Z" fill="#202020"/>
          <path d="M355.145,263.721c.555-1.286-.188,2.249.55.291C355.545,264.173,355.689,262.091,355.145,263.721Z" fill="#202020"/>
          <path d="M203.729,232.873l.1-.59A5.907,5.907,0,0,0,203.729,232.873Z" fill="#202020"/>
          <path d="M355.7,264.012h0l.074-.2Z" fill="#202020"/>
          <path d="M323.5,184.557a1.023,1.023,0,0,0-.183-.281C323.313,184.306,323.35,184.376,323.5,184.557Z" fill="#202020"/>
          <path d="M303.374,174.377l.521.216A5.5,5.5,0,0,0,303.374,174.377Z" fill="#202020"/>
          <path d="M332.908,191.6a3.631,3.631,0,0,0,.582.587.868.868,0,0,0-.068-.113A1.8,1.8,0,0,1,332.908,191.6Z" fill="#202020"/>
          <path d="M341.163,200.649a1.892,1.892,0,0,0-.1-.212l-.252-.3Z" fill="#202020"/>
          <path d="M220.606,298.392a2,2,0,0,1-.187-.6C220.393,298.066,219.128,296.713,220.606,298.392Z" fill="#202020"/>
          <path d="M203.783,233.262a.565.565,0,0,1-.054-.389l-.058.413C203.705,233.33,203.743,233.345,203.783,233.262Z" fill="#202020"/>
          <path d="M334.794,190.331l1.421,1.413C335.829,191.339,335.312,190.825,334.794,190.331Z" fill="#202020"/>
          <path d="M302.311,323.1l-.432.158A1.624,1.624,0,0,0,302.311,323.1Z" fill="#202020"/>
          <path d="M340.284,196.081a6.565,6.565,0,0,0,.59.978,1.062,1.062,0,0,0,.208.129Z" fill="#202020"/>
          <path d="M212.315,287.39c.949,1.664.759.593,1.142.834,1.309,1.858.335,1.029.593,1.784.426.574.857,1.043,1.25,1.48a10.278,10.278,0,0,1,1.09,1.249c0,.1.1.28-.1.127,1.071,1.076,2.669,3.572,4.055,4.691a.589.589,0,0,1,.079.23c-.043-.331.074-.484.215-.526.559.636,1.2,1.034,1.229,1.432a1.6,1.6,0,0,0-.652-.5l.66.6c.262.833-.884-.837-1.08-.671.612.62,1.3,1.265,1.938,1.886a17.631,17.631,0,0,1,1.7,1.681c-.052.438-2.228-2.172-1.224-.68-.451-.52-.876-1.062-1.287-1.615.632,1.549-.8-.974-.274.5a17.18,17.18,0,0,0,1.99,2.1c.566.513,1.088,1.064,2.052,2.024.574.286.048-.339.621-.054a8.793,8.793,0,0,1,2.266,2.427,4.481,4.481,0,0,0,1.827,1.793,4.834,4.834,0,0,1,2.647,1.546l-.775-.121c2.05,1.664,1.521.474,3.6,2.293-.485-.159-1.758-1.094-1.461-.826,1.28,1.282,1.157.555,2.271,1.347l.045.441a82.214,82.214,0,0,0,7.919,4.256c-.2.011-.722-.137-.123.286l5.541,2.6c1.905.817,3.777,1.687,5.555,2.352l1.46.184c.317.11.56.3.191.26,1.387.51.128-.157.843-.074.809.209,1.017.464.481.4,2.555.579,7.294,1.244,9.938,2l-.539-.008c2.093.452,2.461-.275,4.377.259H272c4.583.646,9.679.393,13.217.636.638-.46,4.585-.16,4.808-.84a27.559,27.559,0,0,0,5.624-.273c.99-.135,1.379-.661,2.56-.989l.1.294,1.548-.689c.319.058.633.093.95.13l1.089-.391c-.447.108-.975.133-.931.028a17.321,17.321,0,0,1,2.781-.712,5.123,5.123,0,0,1,1.571-.206c1.323-.532,2.64-1.066,3.919-1.693-.043.15-.691.452-1.19.733,2.006-1.129.5.151,2.342-.884-.287.038.071-.226.091-.3a11.107,11.107,0,0,0,2.181-.777,27.323,27.323,0,0,0,2.562-1.238l-.206.344a73.571,73.571,0,0,0,8.836-5.152c-1.127.6-1.077.135-.226-.452l.529.047c.453-.529-.979.482.041-.464,1.1-.72.937-.2.375.325l1.25-1.025c.133.025-.145.286-.155.444.415-.553,2.485-1.331,3-2.233l.131.02,1.842-1.468c.532-.449.988-.881,1.438-1.285.9-.809,1.731-1.57,2.759-2.591-.153-.243.708-.977,1.169-1.731l2.444-2.294c.844-.816,1.665-1.732,2.5-2.7,1.041-1.47.151-.556.528-1.288.28.059,1.838-1.963,1.165-.809.95-1.207,1.494-2.024,2.092-2.925l.974-1.49,1.2-2.1c-.315.3-.608.669-.549.416.342-.611.951-1.284,1-1.136l-.078.17c.972-1.95,2.378-4.024,3.592-6.106a31,31,0,0,0,1.653-3.054c.236-.493.451-.972.637-1.434a12.686,12.686,0,0,0,.4-1.351l-.047.19c.339-1.157.744-2.285,1.014-3.458.572-1.55-.137,1,.4-.1.211-.956.442-1.793.682-2.563.2-.78.419-1.493.632-2.184a23.342,23.342,0,0,0,1.013-4.285,7.806,7.806,0,0,0,.8-2.357,31.493,31.493,0,0,0,.541-3.23c.125-1.148.253-2.322.373-3.418a22.571,22.571,0,0,1,.389-2.941l-.192.182c-.11-.872.189-1.036.24-1.674-.141.085-.184.93-.267.389.026-3.657.066-7.424-.187-11.221a74.223,74.223,0,0,0-1.531-11.294c-.6-2.7-1.284-1.272-1.8-4.716l.585.849c-1.943-5.191-3.8-10.718-6.744-15.308.226.244.327.2.565.673a11.42,11.42,0,0,0-2.263-3.6c-.436-.721.045-.257-.151-.747-.511-1.043-1.8-2.274-1.963-2.9-.029-.1.255.218.386.384-.524-.551-2-2.867-1.806-2.121a17.9,17.9,0,0,0-1.749-2.324c-.6-.7-1.123-1.394-1.606-2.047-.932-.591-2.152-2.746-2.736-2.668.429-.193-2.172-2.861-3.289-3.55.406.2-.712-.874-.217-.664-1.052-1.031-2.151-1.823-2.106-1.486-1.67-2.221-4.449-3.114-5.245-4.575a93.739,93.739,0,0,0-10.7-6.049c.159-.155,1.151.286,2.054.809.911.507,1.791.994,1.839.748-.832-.425-1.583-.788-2.29-1.124l-2.075-.872c-1.334-.6-2.692-1.117-4.345-1.921-.843-.449.57.043.9.106-1.714-.718-3.4-1.318-5.019-1.978a38.589,38.589,0,0,0-4.869-1.457,2.394,2.394,0,0,1,.71.074c-.63-.163-1.438-.477-1.423-.26l.625.12c.907.569-2.644-.11-2.79.023,1.215-.322-3.12-.872-1.248-1.2-.427-.059-.971-.084-.905.072-.609-.182-.79-.306-.128-.313-2.294-.42-1.538.025-3.6-.376.024-.1.449-.06.685-.136a21.508,21.508,0,0,1-3.917-.3c.113-.046-.081-.149.445-.081a29.426,29.426,0,0,0-4.165-.2c-1.34,0-2.706-.045-4.373-.152,1-.406-1.133-.171-1.308-.548-.6.01-1.2.06-1.805.117l.725.163c-1.579.046-2.961.31-4.316.282.386-.087.773-.159,1.161-.213-.984.04-1.963.18-2.943.265l1.675.015c-1.573.313.2.459-1.887.513.419-.064-1.562.092-2.4.01h0a10.643,10.643,0,0,1-2.693.5c-.317-.08.18-.439-.027-.492-.709.435-3.627.7-4.506,1.248.3-.149.277-.345.164-.36l-.575.393c-.726.084-.839.07-.758-.109-2.149.448.785.3-1.794.691a4.153,4.153,0,0,1,.5-.214c-2.565.53-4.822,1.481-7.12,2.161-.8-.127,1.959-.76,1.089-.8-3.3,1.117-6.561,2.952-9.61,4.316l.574-.245c-.175.69-2.345.884-3.723,1.912.339-.244.335-.523.263-.42-1.019.531-2.022,1.149-3.136,1.863-1.082.764-2.283,1.614-3.667,2.663l.274-.362c-1.162.7-2.971,1.971-4.133,2.861-.258.375-.928.873-.406.715-4.031,2.22-6.2,5.908-9.357,8.385.329-.347.7-.906.437-.631-.773.835-1.451,1.753-2.172,2.629.351-.053.4-.247,1-.667a9.052,9.052,0,0,1-1.271,1.839c.887-1.243-.308-.243-.809.2.123-.042.044.185.134.187-1.417,1.138.18.523-1.529,2.25l-.018-.174c-.525.738-.841,1.537-1.445,2.3-.452.175.456-.856.315-1.036-.781,1.136-1.174,2.477-2.041,3.386.251-.531.7-1.24.986-1.748a7.731,7.731,0,0,0-1.625,1.942l.059-.079c-.454.631-.928,1.252-1.369,1.9.12-.159.252-.311.383-.462a7.538,7.538,0,0,1-1.024,2.513c-.235.412-.489.834-.724,1.3a10.655,10.655,0,0,0-.583,1.545c.641-2.2-.052-.447-.242-.739-.345.488-.841,1.25-.8.982-.3,1.08-1,1.561-1.308,3.13-.117.023-.493,1.067-.615.743-.519,1.336.3-.241.357-.081-.592,2.125-2.35,4.646-2.9,7.811a22.7,22.7,0,0,0-.49,2.93c-.1.782-.181,1.539-.369,2.785-.342.791-.189-.761-.189-.761a14.95,14.95,0,0,0-.8,3.61c-.037-.275-.155-.023-.333.346-.158,1.03.227.748-.155,2.072a4.168,4.168,0,0,1-.2-1.09c-.064.614-.106,1.226-.145,1.842-.011.621-.022,1.245-.058,1.88-.211.312-.159-.793-.212-1.255-.1,1.431-.331,3.695-.058,4.161l.167-.9c-.027.518-.259.243-.265-.144-.055-1.238.315-1.74.421-1.8l-.052.9a4.537,4.537,0,0,0,.472-2.341,23.169,23.169,0,0,1,.285-3.043l.277.818-.013-1.892c.186-.367.457-.584.355.3.451-1.226.1-1.15.566-2.185.062-.111.069-.053.06.061l.163-1.259c.03.262.333-.134.1.606a21.039,21.039,0,0,0,.669-2.7,4.229,4.229,0,0,1,.5-1.647l-.027.189c.793-3.041-.218-.38.183-2.74l1.22-1.257-.188-.4c.124-.3.385-.888.454-.735.248-1.2-.2.145-.127-.578a19.863,19.863,0,0,0,1.129-2.55c.376-.847.713-1.546,1.007-1.6.02-.608-.779,1.288-.239-.3.336-.108.514-.555.709-1.128a7.366,7.366,0,0,1,.9-1.825c.041.513-.7,1.646.164.488a3.6,3.6,0,0,1,.728-1.712,17.735,17.735,0,0,0,1.166-1.767c-.143-.115.149-.7.59-1.482s1.107-1.714,1.594-2.6c0,.154,2.282-3.037,3.547-4.42l.015.08c-.054-.5,1.148-2.014,2.027-3.115.135.187.026.427-.383,1.073.275-.342.571-.668.855-1a5.311,5.311,0,0,1,.867-1.339l-.012.433c.557-.678,1.094-1.382,1.716-2.1a15.391,15.391,0,0,1,2.161-2.2c-.084-.275-1.813.743-.185-1.045.161.037.389.147-.027.622a5.055,5.055,0,0,1,.794-.834l-.533.83c.818-.639.256-.513.87-1.068.123.155.538-.319.559-.123a6.166,6.166,0,0,0-.752.711,8.416,8.416,0,0,1,1.979-1.422c-.136-.031-.177-.2.32-.663,1.32-1.163.611-.214,1.449-.806.222-.4,1.194-.975,1.033-1.222a1.419,1.419,0,0,1,.771-.327c.321-.325,1.134-1.008,1.779-1.513s1.089-.881.579-.711l-.2.119.114-.1-.006,0,.006,0c.566-.492,1.172-.956,1.8-1.4s1.312-.818,1.978-1.215c1.323-.811,2.718-1.483,3.97-2.279l.044.089c.728-.509,1.612-.943,2.414-1.4s1.545-.89,2.085-1.231c.478-.216,1.2-.345,1.047-.146a12.073,12.073,0,0,1,3.163-1.38c-1.2.657.492-.031-1.245.627a16.3,16.3,0,0,0,3.744-1.491c-.518.442,1.353-.122,2.115-.459l-1.219.221c.875-.335,1.658-.577,2.452-.822l-.326.461c3.5-.653,6.044-2.405,8.867-2.236.888-.395-1.943.181-1.164-.235,1.639-.244,3.4-.082,3.906-.161,2.252-.084,2.014-.781,4.381-.884-.311-.095-.632-.388,1.132-.634,1.661-.083,2.059.342,1.028.516-.394.04-.586.017-.573-.024-.528.083-1.219.187-.559.265l.2-.134c.412.029,1.182,0,1.783-.012s1.036.051.775.15c1.235-.144.524-.208-.4-.246,2.115.142,3.3-.139,5.467.069-.343-.074-.66-.222-.316-.212,3.183.251,1.414-.241,3.581-.135,1.216.274-.468.4,1.713.411,1.313.223.25.335-.28.392a11.161,11.161,0,0,1,1.428.037c.452.062.88.144,1.28.231.8.174,1.489.367,2.043.458l-1.04-.035a13.175,13.175,0,0,1,1.635.161c-.181-.117-.366-.213-.55-.318.6.107,1.1.229,1.078.315.644-.043-.413-.475.856-.464.78.271,2.482.291,2.688.689-2.5-.6.216.348-1.922.009a9.436,9.436,0,0,1,1.511.279c.082.055-.1.042-.265.034,2.322.806,1.168-.1,3.645.473-.355.095.49.459.893.548-.98-.282-.4-.42.545-.294a14.787,14.787,0,0,0,2.554.635l-.921-.329a6.658,6.658,0,0,1,2.249.488c.049.162-1.012-.242-.645-.054,1.3.128,2.622,1.177,4.318,1.66.716.412-.048.34.587.678,1.927.492,1.863,1.053,3.828,1.713-.442-.461-.565-.453.866-.061l-3.176-1.252,2.136.586c-.944-.42-2.036-.781-2.6-1.032,1.044.211.913.251.542-.144,1.139.924,2.661.936,4.024,1.893l-.306.507a21.411,21.411,0,0,0,3.106,1.576,23.5,23.5,0,0,1,3.539,1.939c-.271-.208-.531-.436-.813-.629.494.009,1.676,1.028,2.6,1.5-.19.114.314.519.612.86.04-.151,1.883,1.356,2.351,1.2.332.35.679.677.992,1.047,1.943,1.672,2.68,1.342,4.5,3.038-.7-.327.052.514-1.3-.452.621.541,1.157,1.053,1.257.959a6.916,6.916,0,0,0,1.109.887,5.826,5.826,0,0,1,1.188,1.111,2.912,2.912,0,0,1,1.2.761c.046.1-.071.067-.071.067.083-.08,1.121.937.709.2,1.341,2.247,4.92,5.195,5.809,7.339,1.2,1.351,2.464,3.121,3.418,4.453-.106-.056-.085.05-.235-.222,1.059,2,1.236.854,2.435,3.152.4,1.3-.85-1.084-.535-.315-.373.637,1.665,2.621,2.128,4.339l-.224-.353c.393,1.277,1.726,2.729,2.537,4.738,0,0-.1-.071-.1.029a14.292,14.292,0,0,1,1.485,2.574c.484,1.04,1.02,2.146,1.373,3.129-.448-.53-.43-.851-.547-.39.334.871.3-.4.97,1.347.057.622.393,1.928.155,2.185-.159-.562-.374-1.106-.559-1.659a3.964,3.964,0,0,0,.37,1.544,13.108,13.108,0,0,1,.52,1.517l-.182-.07c.8,2.554,1.13,2.513,1.766,5.336l.048-.315c.721,1.47.035,1.344.611,2.843l-.305.536c.15.5.391,1.387.6,2.386s.48,2.1.579,3.032c-.373-1.034-.826-3.18-1.171-4.489a25.343,25.343,0,0,0,.739,3.977,6.267,6.267,0,0,1-.244-1.331,16.963,16.963,0,0,1,.9,4.939c-.746-.33-.017,5.383-.734,6.857.151,3.636-.561,7.169-1.3,11.3.848-1.366-.2,1.215.445,1.078a5.087,5.087,0,0,1-.313,1.42l-1.034,2.828c-.349.638.1-.939-.067-.888-.564,2.071-.479.807-1.007,2.129.291-.222.1.8-.315,1.952l.741-1.577c-.492,3-1.261,2.321-1.892,5.291l.124-.968c-.363,1.516-2.052,5.313-2.276,6.889-.177.221-.478.48-.237-.161-1.612,3.316-3.309,7.613-5.207,9.843l.026-.319a5.791,5.791,0,0,1-1.037,1.8c-.025-.072.039-.311-.154-.055a14.458,14.458,0,0,1-1.456,2.349l.319-.739a36.4,36.4,0,0,0-2.639,3.666,40.459,40.459,0,0,1-2.406,3.328c-.335-.314-2.359,1.691-3.446,2.6l-.008-.079c-3.028,2.9-5.058,5.058-8.092,7.549-2.2,1.1-6.93,4.444-10.551,5.928.565-.2.07.349-.529.7-.839.364-2.165,1.351-2.2.934l.3-.127c-.8-.086-2.439.825-3.82,1.317l-.029.58a57.091,57.091,0,0,0-6.443,1.989c-1.1.343-2.132.711-3.047.921a8.149,8.149,0,0,1-2.242.265c-.868.359-2,.552-2.881.84v-.287c-1.266.193-2.213.341-3.244.442s-2.121.324-3.7.445l.624-.25c-1.773.1-2.182,1.011-3.843,1.1l-.516-.41a45.946,45.946,0,0,1-4.694-.1c-.781-.046-1.561-.063-2.338-.081a23.2,23.2,0,0,0-2.329-.014c.055-.058.157-.172.661-.151-1.473-.052-5.594-.907-5.15-.255.011-.336-3.169-.553-4.867-.719l.313-.213a11.827,11.827,0,0,1-3.5-.242c-.452-.146-.349-.311.245-.1-1.489-.529-1.253-.069-3.059-.726l.735.024a7.094,7.094,0,0,0-2.371-.411,8.069,8.069,0,0,1-3.037-1.375,4.192,4.192,0,0,1-2.023-.49c-.085-.136.261-.063.434-.025-1.231-.574-2.192-.883-3.037-1.207a10.329,10.329,0,0,1-2.392-1.1c.006-.1-.082-.2-.208-.293,1.935.94,3.525,1.634,3.364,1.6.1-.236-1.456-.99-.061-.748-.669-.2-1.588-.443-2.531-.744a14.735,14.735,0,0,1-2.592-1.172.9.9,0,0,1-.157-.18l.169.054a5.659,5.659,0,0,0-.969-.453c-.447-.306-.728-.5-1.175-.765-.061-.3-1.678-1.062-2.389-1.553-.087.279-1.019-.372-.246.4-.105-.093.152.065.649.357.118.058.253.131.336.159l-.064-.008,1.877,1.058a6.014,6.014,0,0,1-2.1-1.084,12.41,12.41,0,0,1-1.266-.261c-.805-.969-2.6-2.39-2.7-2.8-1.121-.7-2.411-1.567-3.565-2.419-.586-.416-1.158-.8-1.681-1.127a8.854,8.854,0,0,0-1.379-.8,1.8,1.8,0,0,1-.715-.929,10.648,10.648,0,0,0,.977.686c-1.259-.848-3.331-2.96-3.847-2.948-1.253-1.441.991.515-.9-1.284l.323.175a23.249,23.249,0,0,0-2.365-2.653c-.762-.8-1.54-1.532-2.329-2.279-.772-.76-1.514-1.575-2.275-2.487a19.9,19.9,0,0,1-2.107-3.267,1.863,1.863,0,0,1,.284.623c-3.48-5.463-7.188-11.395-8.941-17.609a9.2,9.2,0,0,0-1.3-2.869l.161-.465c-.3-.569-.573-1.15-.863-1.729a10.854,10.854,0,0,1-.526-1.854c-.106-.612-.148-1.227-.217-1.857s-.141-1.279-.279-1.971a14.611,14.611,0,0,0-.539-2.261l-.123.469c-.083-.609-.3-1.559-.421-2.345s-.164-1.4-.035-1.313a1.356,1.356,0,0,1-.216-.863l.152-.056c-.235-.983-.411-1.977-.567-2.976-.046-2.342.614.316.465-3.074-.092-1.254-.551-3.59-.644-3.116,0,.512-.066,1.31-.223,1.352l-.112-1.165c-.47-.205-.97-1.127-1.223,1.787l.336,2.013-.176.662c-.059-.566-.072-1.134-.09-1.7a4.2,4.2,0,0,0,.223,2.258,1.823,1.823,0,0,0-.184.865l.6,1.942c-.153.259-.456-.851-.4.488.322.9.294-.928.622.583-.088.982-.294.727.028,1.829-.1.175-.205-.053-.314-.494a14.888,14.888,0,0,0,.792,3.116,10.534,10.534,0,0,0,.247,2.063c.139.7.253,1.267.023,1.266a14.643,14.643,0,0,1,.965,2.561c-.954-1.509.9,3.359.249,3.082a14.535,14.535,0,0,1,1.227,2.79c.217.591.426,1.217.663,1.813.253.59.513,1.158.778,1.652a1.531,1.531,0,0,1-.291-.494,19.892,19.892,0,0,1,.639,2.362c.427,0,1.313,1.738,1.963,2.588.29,1.559-.8-.652-.931-.062.13-.1.47.478.8,1s.657.979.656.687c.326,1.15.359.951.348,1.641.533-.048.555.948,1.32,1.639.637,1.592-.18.608.882,2.155C213.3,288.749,212.315,287.39,212.315,287.39Zm32.374,29.647h0l-.82-.4Zm3.343,1.627-1.462-.681c-.072-.151.09-.162.43-.008-.213-.025.56.386,1.032.689Zm-5.985-5.311c.517.251.656.395.7.484l-.888-.472h-.076a.562.562,0,0,1,.264-.012Z" fill="#202020"/>
          <path d="M240.961,313.154a1.69,1.69,0,0,1-.213-.106,3.026,3.026,0,0,0,.262.231l.223.026Z" fill="#202020"/>
          <path d="M235.519,185.13l.066-.039a.714.714,0,0,1-.155.061A.551.551,0,0,1,235.519,185.13Z" fill="#202020"/>
          <polygon points="298.313 324.278 298.292 324.21 297.987 324.344 298.313 324.278" fill="#202020"/>
          <path d="M220.133,198.316a.7.7,0,0,0-.222.166A.927.927,0,0,0,220.133,198.316Z" fill="#202020"/>
          <path d="M214.91,205.425l-.759,1C214.491,206,214.726,205.682,214.91,205.425Z" fill="#202020"/>
          <path d="M211.364,211.22a.337.337,0,0,0,.046.175l.008-.011Z" fill="#202020"/>
          <path d="M303.48,172.452l.257.06C304.346,172.639,303.938,172.532,303.48,172.452Z" fill="#202020"/>
          <path d="M271.594,170.242c.332-.093.66-.185,1.009-.262C272.034,170.031,271.592,170.081,271.594,170.242Z" fill="#202020"/>
          <path d="M334.638,190.176h-.006l.162.154Z" fill="#202020"/>
          <path d="M274.092,169.871a7.818,7.818,0,0,0-1.489.109A12.166,12.166,0,0,0,274.092,169.871Z" fill="#202020"/>
          <path d="M202.713,239.242l-.053.325c.019,0,.032.017.042.043Z" fill="#202020"/>
          <path d="M202.7,239.61v.367A1.029,1.029,0,0,0,202.7,239.61Z" fill="#202020"/>
          <path d="M202.72,240.747l-.013-.77A2.213,2.213,0,0,0,202.72,240.747Z" fill="#202020"/>
          <path d="M204.318,230.38l-.077-.123A.144.144,0,0,0,204.318,230.38Z" fill="#202020"/>
          <path d="M204.921,227.71a16.686,16.686,0,0,0-.74,2.446l.06.1C204.2,229.805,204.916,228.347,204.921,227.71Z" fill="#202020"/>
          <path d="M209.774,217.4c-.323.679-.608,1.376-.915,2.064.247-.328.572-.754.22.208C210.425,217.16,208.628,220.127,209.774,217.4Z" fill="#202020"/>
          <path d="M212.948,211.176c-.506,1.1.146.062.171.149C213.393,210.6,213.468,210.431,212.948,211.176Z" fill="#202020"/>
          <path d="M249.27,177.453l-.006.284C250.1,177.32,249.232,177.643,249.27,177.453Z" fill="#202020"/>
          <path d="M257.912,172.807c-.311.033-.624.063-.931.117l-.345.364C257.057,173.116,257.48,172.947,257.912,172.807Z" fill="#202020"/>
          <polygon points="263.917 173.123 263.53 173.25 265.017 172.811 263.917 173.123" fill="#202020"/>
          <path d="M339.623,199.092l.064-.417C339.229,198.236,338.88,198.36,339.623,199.092Z" fill="#202020"/>
          <path d="M355.6,231.488a5.075,5.075,0,0,0,.291,2.04A15.929,15.929,0,0,0,355.6,231.488Z" fill="#202020"/>
          <path d="M306.97,319.085l.641-.366c-.416.192-.828.4-1.256.565C306.56,319.219,306.769,319.163,306.97,319.085Z" fill="#202020"/>
        </g>
        <g>
          <path d="M326.367,247.578c-.087-.149-.275-.066-.26.349l.316.3Z" fill="#202020"/>
          <path d="M325.614,250.343c.136.491.389,1.078.708.785-.293-.509-.154-.618-.506-1.158-.018-.414.142-.716.261-.642-.078-.149.105-.643-.092-.87a2.725,2.725,0,0,0-.152,1.929C325.752,250.535,325.674,250.381,325.614,250.343Z" fill="#202020"/>
          <path d="M306.449,283.923l.228-.121A1.108,1.108,0,0,0,306.449,283.923Z" fill="#202020"/>
          <path d="M283.534,291.889c.186-.018.261-.054.269-.085C283.631,291.835,283.49,291.862,283.534,291.889Z" fill="#202020"/>
          <path d="M279.358,291.61l.245.035A.4.4,0,0,0,279.358,291.61Z" fill="#202020"/>
          <path d="M306.449,283.923l-.586.309C305.887,284.348,306.178,284.1,306.449,283.923Z" fill="#202020"/>
          <path d="M325.748,255.992a1.509,1.509,0,0,0-.03-.379l-.017.347A.3.3,0,0,1,325.748,255.992Z" fill="#202020"/>
          <path d="M314.248,276.447l.134-.148a.913.913,0,0,0,.008-.209Z" fill="#202020"/>
          <path d="M318.981,269.669c-.108.153.1.351.169.475a.633.633,0,0,1,.047-.448A.323.323,0,0,0,318.981,269.669Z" fill="#202020"/>
          <path d="M324.243,257.617l.021-.236Z" fill="#202020"/>
          <path d="M310.046,280.619a.2.2,0,0,0-.122-.025A.134.134,0,0,0,310.046,280.619Z" fill="#202020"/>
          <path d="M325.921,237.609c-.021,0-.031.01-.049.012C325.913,237.663,325.936,237.674,325.921,237.609Z" fill="#202020"/>
          <path d="M325.629,247.578l-.022-.135a.61.61,0,0,0-.159-.028Z" fill="#202020"/>
          <path d="M271.877,290.44l.032.011C272.112,290.449,272,290.438,271.877,290.44Z" fill="#202020"/>
          <path d="M237.647,238.276c-.444.715.008-1.32-.563-.222C237.218,237.973,237.241,239.2,237.647,238.276Z" fill="#202020"/>
          <path d="M325.679,256.2l-.051.348A2.043,2.043,0,0,0,325.679,256.2Z" fill="#202020"/>
          <path d="M237.084,238.054h0l-.057.115Z" fill="#202020"/>
          <path d="M255.876,283.862a.53.53,0,0,0,.074.208C255.961,284.043,255.949,283.989,255.876,283.862Z" fill="#202020"/>
          <path d="M267.414,289.891l-.293-.148A1.962,1.962,0,0,0,267.414,289.891Z" fill="#202020"/>
          <path d="M250.367,279.907a1.232,1.232,0,0,0-.338-.337.319.319,0,0,0,.03.074A.629.629,0,0,1,250.367,279.907Z" fill="#202020"/>
          <path d="M245.6,274.682c.006.044.023.093.034.14l.146.171Z" fill="#202020"/>
          <path d="M315.9,217.671a1,1,0,0,1,.036.415C316.008,217.873,316.794,218.634,315.9,217.671Z" fill="#202020"/>
          <path d="M325.593,255.966a.279.279,0,0,1,.086.238l.022-.244C325.663,255.931,325.625,255.92,325.593,255.966Z" fill="#202020"/>
          <path d="M248.628,281.324l-.844-.826C248.009,280.74,248.316,281.04,248.628,281.324Z" fill="#202020"/>
          <path d="M267.813,203.151l.253-.1A.581.581,0,0,0,267.813,203.151Z" fill="#202020"/>
          <path d="M245.388,277.938a2.421,2.421,0,0,0-.3-.618.484.484,0,0,0-.147-.055Z" fill="#202020"/>
          <path d="M311.083,230.784c-.439-.735-.442-.2-.673-.274-.592-.821-.069-.508-.128-.881a5.356,5.356,0,0,0-.6-.628,2.881,2.881,0,0,1-.541-.517c.017-.055-.025-.138.087-.085-.583-.4-1.192-1.59-1.889-2.024a.211.211,0,0,1-.014-.119.408.408,0,0,1-.216.333c-.256-.275-.6-.4-.557-.622.151.173.219.139.335.182l-.325-.239c-.04-.436.431.338.579.212a12.31,12.31,0,0,1-1.688-1.514c.1-.27.992.961.629.222l.543.744c-.169-.789.355.433.245-.333-.779-.94-.98-.95-1.806-1.835-.3-.081-.081.212-.378.132-1.433-.955-.567-1.388-1.73-1.982-.363-.076-.673.111-1.278-.561l.422-.047c-.925-.728-.785-.066-1.65-.955.24.035.792.471.67.336-.5-.662-.546-.2-1.032-.565l.04-.285c-.546-.308-1.136-.6-1.742-.9s-1.2-.63-1.848-.883c.1-.034.355,0,.1-.213a24.218,24.218,0,0,1-2.464-1.169c-.85-.358-1.684-.747-2.455-1.11l-.675-.009c-.139-.054-.238-.17-.066-.173-.614-.246-.076.126-.406.131-.364-.076-.441-.246-.193-.251-.589-.055-1.411-.161-2.223-.32l-.606-.125c-.2-.027-.4-.057-.592-.092a6.45,6.45,0,0,1-1.024-.258l.246-.032c-.928-.233-1.117.29-1.954-.046l.169-.014c-1.012-.152-2.1-.144-3.111-.209l-.749-.044-.717,0a9.1,9.1,0,0,1-1.3-.1c-.14.167-.649.157-1.136.162-.49-.016-.95.1-.989.314a13,13,0,0,0-2.533-.068c-.447.035-.592.407-1.109.581l-.066-.227-.661.422-.454-.171-.482.186c.2-.038.448-.008.435.065a4.5,4.5,0,0,1-1.251.264c-.393.052-.7.072-.724.015l-1.717.838c0-.1.291-.241.508-.383-.869.571-.263-.166-1.06.358.137.007-.012.152-.013.2a6.58,6.58,0,0,0-2.116.889l.065-.209a29.175,29.175,0,0,0-3.942,2.3c.53-.233.563.071.186.332l-.293-.109c-.17.281.462-.174.044.3-.492.315-.479,0-.25-.269l-.53.5c-.076-.035.036-.167.018-.271-.146.3-1.146.547-1.328,1.016l-.076-.034-.833.641c-.236.2-.428.407-.623.594-.386.379-.742.737-1.216,1.176.128.171-.277.476-.438.855-.681.645-1.51,1.309-2.264,2.167-.431.682-.01.294-.134.654-.185-.075-.852.846-.609.289-.4.557-.651.913-.919,1.313l-.43.665-.483.971c.164-.118.3-.277.3-.152-.134.283-.436.561-.492.475l.025-.081a25.749,25.749,0,0,1-1.646,2.689c-.29.454-.572.9-.8,1.332a6.649,6.649,0,0,0-.3.634,3.388,3.388,0,0,0-.125.623l.011-.089L247.715,237c-.284.682.015-.463-.286.009a8.094,8.094,0,0,1-.278,1.15c-.076.351-.169.67-.262.978a9.707,9.707,0,0,0-.446,1.91,4.9,4.9,0,0,0-.671,2.476c-.062.512-.126,1.034-.185,1.522a5.979,5.979,0,0,1-.191,1.311l.138-.076c.112.392-.1.461-.146.745.107-.036.142-.412.2-.169-.072,1.63.034,3.3.026,5,.025.847.146,1.692.213,2.543l.126,1.272q.131.622.259,1.242c.274,1.211.847.5.922,2.072l-.349-.351c.488,1.146.976,2.31,1.384,3.5a24.706,24.706,0,0,0,1.711,3.293c-.124-.1-.2-.059-.3-.274a3.056,3.056,0,0,0,1.089,1.559c.181.331-.069.145-.013.384.185.493.848.984.87,1.3.005.052-.137-.08-.2-.151.266.222.913,1.264.89.885.472.779,1.091,1.346,1.468,1.969.494.195.959,1.224,1.305,1.111-.291.177.848,1.391,1.418,1.621-.213-.054.3.413.031.366.489.439.977.8,1.008.587.6,1.163,2.076,1.262,2.29,2.1l1.222.758,1.239.63,1.192.623.582.309.606.255c-.1.127-.559-.037-.954-.283-.4-.227-.792-.454-.851-.278.374.185.714.339,1.033.479.331.121.65.213.959.321a11.613,11.613,0,0,1,1.943.833c.363.227-.276.032-.429.022.757.328,1.53.551,2.251.833.364.135.723.266,1.082.383a4.458,4.458,0,0,0,1.087.256c-.013.029-.176.022-.329.01.284.061.639.216.65.059l-.285-.03c-.378-.329,1.234-.167,1.308-.272-.581.311,1.363.466.484.82.192.019.439.007.42-.105.265.1.34.181.037.227a1.9,1.9,0,0,0,.852.027,2.084,2.084,0,0,1,.771.027c-.016.076-.207.076-.319.147a4.127,4.127,0,0,1,1.756.036c-.052.037.03.11-.2.076,1.348.232,2.331-.178,3.8.061-.446.3.5.132.576.419a5.276,5.276,0,0,0,.8-.089l-.323-.121a15.175,15.175,0,0,1,1.913-.2l-.513.143,1.306-.121-.747-.068c.694-.181-.1-.354.828-.322-.184.033.692-.012,1.066.069h0a2.831,2.831,0,0,1,1.18-.3c.146.069-.059.326.036.372.3-.3,1.614-.288,1.978-.648-.127.093-.1.241-.052.258l.237-.258c.324-.02.378,0,.353.126.95-.208-.378-.273.769-.409-.083.038-.034.054-.209.129a13.25,13.25,0,0,0,1.625-.437c.53-.144,1-.4,1.524-.526.39.16-.852.386-.437.489.717-.29,1.438-.645,2.153-.984s1.371-.777,2.06-1.055l-.263.092c0-.454,1.091-.288,1.666-.811-.141.124-.1.314-.079.254a21.845,21.845,0,0,0,2.964-2.091l-.1.2c.53-.283,1.3-.9,1.844-1.253.091-.2.4-.405.124-.388a4.11,4.11,0,0,0,.687-.325,6.015,6.015,0,0,0,.57-.449,12.835,12.835,0,0,0,.984-1.009l.924-1a4.68,4.68,0,0,1,1.009-.885c-.142.158-.274.436-.161.311l.947-1.182c-.214-.025-.214.075-.53.222a2.414,2.414,0,0,1,.52-.847c-.369.566.233.189.478.009-.071.006-.057-.112-.114-.127.713-.434-.2-.324.606-1.048l.039.1a6.383,6.383,0,0,1,.606-1.043c.272-.026-.178.395-.059.515.351-.5.421-1.161.851-1.53a6.82,6.82,0,0,1-.392.8c.56-.342.51-.463.785-.815l-.03.035.629-.827-.192.191a1.929,1.929,0,0,1,.369-1.163c.107-.18.227-.362.327-.568a2.782,2.782,0,0,0,.19-.717c-.14,1.045.1.236.267.409.171-.206.409-.536.417-.4.045-.521.487-.675.541-1.41.08,0,.232-.467.355-.293.222-.6-.184.084-.245,0a7.757,7.757,0,0,1,.639-1.562,5.7,5.7,0,0,0,.638-1.906c.2-1.2-.009-1.492.152-2.589.208-.336.185.36.185.36a3.8,3.8,0,0,0,.383-1.59c.046.127.117.021.227-.138.051-.46-.217-.352-.019-.932a1.533,1.533,0,0,1,.222.5c.016-.552-.039-1.1-.02-1.665.151-.132.142.36.195.57.036-.638.146-1.64-.08-1.855l-.095.4c0-.227.188-.1.2.072.076.554-.187.765-.265.785l.013-.4c-.491.35-.172,1.586-.319,2.384l-.259-.386.132.859c-.116.151-.3.235-.284-.16-.258.526-.006.514-.289.953-.04.045-.048.019-.048-.033l-.047.56c-.037-.121-.239.036-.11-.282-.423.913-.172,1.615-.494,1.912v-.086c-.3,1.35.195.2.109,1.267l-.779.469.171.206c-.057.132-.171.391-.239.309-.035.554.125-.05.158.294a5.386,5.386,0,0,0-.5,1.119c-.172.369-.334.671-.535.664.053.3.41-.536.2.176-.449.021-.308.8-.744,1.283-.1-.268.254-.75-.179-.27a.977.977,0,0,1-.265.78,4.931,4.931,0,0,0-.566.744c.227.158-.5,1.037-.878,1.842-.007-.069-1.084,1.277-1.657,1.868l-.022-.048c.112.286-.4.97-.781,1.453-.114-.127-.081-.246.076-.547-.119.151-.256.287-.379.431a1.436,1.436,0,0,1-.339.623l-.058-.245a10.221,10.221,0,0,1-1.653,1.924c.092.18.971-.151.272.657-.1-.049-.255-.152-.08-.369a1.3,1.3,0,0,1-.345.371l.19-.411c-.389.249-.076.265-.354.5-.1-.115-.272.1-.314-.02.059-.076.276-.167.338-.3a2.814,2.814,0,0,1-.94.545c.084.04.135.152-.075.365-.564.53-.313.042-.694.285-.06.216-.524.423-.394.6a.47.47,0,0,1-.387.082c-.258.316-1.47,1.136-.972,1.06l.092-.048-.047.047h0a6.025,6.025,0,0,1-.757.661,8.189,8.189,0,0,1-.89.5,14.357,14.357,0,0,0-1.75.991l-.035-.067c-.625.472-1.522.809-1.946,1.211-.209.1-.547.113-.5-.011a2.963,2.963,0,0,1-1.381.618c.51-.325-.235-.036.536-.3a3.928,3.928,0,0,0-1.651.626c.2-.277-.621-.03-.943.151l.547-.055a9.588,9.588,0,0,1-1.065.384l.109-.307a6.546,6.546,0,0,0-2.044.628,2.7,2.7,0,0,1-1.827.343c-.379.235.863-.006.538.252a11.8,11.8,0,0,1-1.741-.135c-.984,0-.854.535-1.893.53.139.083.292.315-.483.439-.734,0-.915-.331-.466-.426.173-.016.258.008.253.039.231-.044.53-.1.24-.181l-.086.094c-.364-.076-1.35-.014-1.125-.173-.537.113-.227.159.179.185-.926-.1-1.439.123-2.388-.046.152.058.287.17.137.161-1.391-.181-.62.14-1.573.131-.53-.164.215-.317-.745-.249-.572-.122-.1-.244.133-.3a2.731,2.731,0,0,1-.626.022,4.21,4.21,0,0,1-.553-.136c-.345-.107-.639-.233-.878-.286h.454a4.135,4.135,0,0,1-.711-.067l.227.217c-.258-.071-.48-.106-.463-.179-.291.076.161.327-.408.4-.335-.151-1.1-.05-1.168-.338,1.085.283-.076-.243.863-.131a2.314,2.314,0,0,1-.66-.108c-.033-.036.045-.036.12-.042-.984-.455-.53.146-1.6-.133.168-.095-.185-.311-.366-.328.429.114.151.271-.275.268-.663-.278-.773-.119-1.136-.223l.4.151c-.181.1-.525-.006-1-.151-.008-.114.449.088.3-.017-.6.032-1.1-.662-1.873-.777-.3-.208.059-.247-.211-.411-.88-.118-.78-.53-1.653-.776.156.277.219.258-.432.14l1.395.53-.969-.177c.41.191.9.328,1.143.439-.485-.028-.416-.076-.281.165-.45-.517-1.177-.392-1.748-.87l.217-.392a5.561,5.561,0,0,0-1.373-.652,7.746,7.746,0,0,1-1.552-.837l.342.3c-.253.055-.749-.426-1.174-.6.118-.1-.094-.293-.2-.473-.044.106-.8-.614-1.082-.449l-.378-.53c-.841-.737-1.314-.408-2.078-1.2.349.1.055-.313.665.084-.266-.243-.486-.481-.559-.407-.092-.21-.876-.524-1.026-.852-.158-.054-.3.024-.6-.259-.012-.051.053-.051.053-.051-.063.063-.521-.379-.393-.006a5.645,5.645,0,0,0-1.268-1.7c-.262-.278-.53-.548-.74-.815a2.755,2.755,0,0,1-.409-.816c-.507-.605-1.136-1.328-1.55-1.913.06.015.063-.039.12.086-.4-.921-.676-.287-1.135-1.341-.093-.618.424.445.315.09.355-.394-.8-1.11-.875-1.931l.1.152c-.1-.6-.775-1.181-1.156-2.051,0,0,.06.023.071-.025a8.158,8.158,0,0,1-1.4-2.442c.28.2.239.356.364.127-.167-.378-.255.22-.589-.534.013-.287-.12-.864.08-1.006.062.248.175.48.26.721a1.051,1.051,0,0,0-.133-.681,3.3,3.3,0,0,1-.236-.661l.126.018c-.328-1.121-.621-1.066-.917-2.3l-.055.145c-.447-.619.061-.6-.271-1.247l.263-.257a19.073,19.073,0,0,1-.682-2.354,19.583,19.583,0,0,1,.743,1.938,6.262,6.262,0,0,0-.434-1.725,1.649,1.649,0,0,1,.143.577,4.286,4.286,0,0,1-.512-2.154c.586.132,0-2.363.561-3a11.04,11.04,0,0,1,.094-2.389c.169-.8.364-1.629.485-2.539-.542.565.067-.53-.4-.511a1.277,1.277,0,0,1,.146-.621l.595-1.2c.207-.265,0,.421.107.407.268-.9.289-.331.56-.894-.191.076-.148-.378.044-.875l-.39.666a1.638,1.638,0,0,1,.409-1.151,2.047,2.047,0,0,0,.492-1.128l-.006.439c.076-.33.29-.908.469-1.507.08-.3.177-.6.264-.857a2.133,2.133,0,0,0,.111-.695c.1-.086.284-.174.185.107.393-.7.638-1.59,1.017-2.356a9.315,9.315,0,0,1,1.179-1.976l.031.168c.135-.272.076-.58.41-.812.028.042.021.161.11.053a3.7,3.7,0,0,1,.613-1.04l-.1.35a6.709,6.709,0,0,0,1.093-1.644,12.136,12.136,0,0,1,.99-1.509c.257.238,1.13-.644,1.635-1.009l.017.049a16.669,16.669,0,0,0,1.722-1.753,20.833,20.833,0,0,1,1.708-1.654,4.513,4.513,0,0,0,.932-.473l1.19-.674a13.306,13.306,0,0,1,2.552-1.315c-.261.058-.081-.249.178-.411.389-.112.9-.69.97-.385l-.13.057c.4.151,1.081-.315,1.7-.5l-.05-.409a9.737,9.737,0,0,0,2.837-.805,5.269,5.269,0,0,1,2.321-.462,9.244,9.244,0,0,1,1.241-.441l.016.215c.556-.057.972-.1,1.419-.161l.713-.11a6.089,6.089,0,0,1,.892-.11l-.265.166c.77-.023.931-.664,1.66-.714l.231.309c1.368-.14,2.722.309,4.084.062-.026.046-.076.136-.294.138.647-.022,2.418.509,2.253.03-.026.293,1.384.222,2.139.243l-.151.177a3.189,3.189,0,0,1,1.562-.029c.194.076.134.209-.119.088.639.279.573-.058,1.356.258l-.34.052a1.992,1.992,0,0,0,1.068.081c.448.075,1.255.517,1.287.731a1.192,1.192,0,0,1,.927.108c.026.087-.133.076-.214.07a4.5,4.5,0,0,0,.732.294c.221.079.417.151.606.211a2.847,2.847,0,0,1,1.037.5.178.178,0,0,0,.069.173c-.845-.413-1.523-.753-1.453-.736-.076.179.588.537-.06.523a7.533,7.533,0,0,1,2.3.693.3.3,0,0,1,.057.1l-.076-.014a1.5,1.5,0,0,0,.433.176,4.652,4.652,0,0,0,.493.369c0,.185.695.524,1.013.726.084-.2.491.089.187-.3.043.044-.076-.016-.3-.139a.917.917,0,0,0-.151-.065h.032l-.813-.477a1.551,1.551,0,0,1,.923.466q.318-.024.636-.016c.3.517,1.054,1.179,1.043,1.439.494.3,1.05.687,1.585,1.018.267.167.53.315.779.438a2.439,2.439,0,0,0,.654.289c.279.185.206.343.256.472a2.923,2.923,0,0,0-.445-.28c.555.366,1.47,1.281,1.782,1.188.522.659-.508-.151.335.623l-.164-.054a7.606,7.606,0,0,0,2.092,2.127,7.166,7.166,0,0,1,1.926,2.516c-.076-.158-.113-.237-.1-.291a10.186,10.186,0,0,1,.546.929c.168.319.363.626.554.936.365.628.825,1.211,1.13,1.878.336.65.668,1.3.97,1.962a5.306,5.306,0,0,1,.37,1.014c.1.345.187.691.261,1.038a2.484,2.484,0,0,0,.693,1.212l-.158.231c.168.238.31.485.468.731a4.3,4.3,0,0,1,.256,1.647,5.4,5.4,0,0,0,.09.87,3.8,3.8,0,0,0,.253.984l.123-.218c.052.537.348,1.678.158,1.612a.392.392,0,0,1,.138.374l-.116.03c.065.213.141.427.2.643l.135.654c-.035,1.032-.481-.122-.43,1.363.076.545.429,1.566.5,1.362-.006-.227.045-.575.164-.594l.088.512c.357.088.738.5.921-.8l-.261-.892.156-.3.049.758a1.315,1.315,0,0,0-.13-1,.627.627,0,0,0,.169-.392l-.384-.853c.124-.121.318.368.319-.232-.217-.392-.248.426-.454-.239.1-.442.243-.337.031-.818.076-.083.151.015.223.209-.176-.432-.228-1.176-.446-1.374a2.8,2.8,0,0,0-.051-.927c-.06-.312-.114-.564.057-.578a4.144,4.144,0,0,1-.568-1.107c.575.633-.363-1.5.1-1.432a23.17,23.17,0,0,1-1.338-2.737.418.418,0,0,1,.151.211,5.556,5.556,0,0,1-.182-1.094c-.3.049-.743-.706-1.109-1.046-.037-.736.494.227.652-.083-.2.131-.736-.972-.814-.673-.068-.55-.118-.443-.018-.8-.372.093-.251-.421-.69-.674-.233-.737.2-.34-.33-1C310.588,230.213,311.083,230.784,311.083,230.784ZM296.5,217.755h0l.371.166Zm-1.488-.713c.177.095.4.2.641.318.02.092-.069.133-.216.057.106,0-.225-.211-.421-.375Zm2.347,2.885c-.227-.1-.279-.183-.287-.239l.387.206.039-.007a.269.269,0,0,1-.137.04Z" fill="#202020"/>
          <path d="M303.466,209.724q.066.024.129.054c-.046-.056-.09-.108-.138-.157l-.146.014Z" fill="#202020"/>
          <path d="M306.717,283.78l-.04.022a.287.287,0,0,1,.1-.024A.241.241,0,0,1,306.717,283.78Z" fill="#202020"/>
          <polygon points="270.154 202.406 270.173 202.474 270.346 202.366 270.154 202.406" fill="#202020"/>
          <path d="M315.975,276.411a.309.309,0,0,0,.15-.08C316.106,276.324,316.046,276.363,315.975,276.411Z" fill="#202020"/>
          <path d="M319.038,272.255l.465-.572C319.29,271.924,319.148,272.106,319.038,272.255Z" fill="#202020"/>
          <path d="M321.175,268.894a.307.307,0,0,0-.073-.126v.006Z" fill="#202020"/>
          <path d="M267.124,291.756a1.341,1.341,0,0,0-.154-.027C266.605,291.679,266.847,291.735,267.124,291.756Z" fill="#202020"/>
          <path d="M285.844,292.78c-.191.08-.379.16-.582.223C285.6,292.974,285.853,292.94,285.844,292.78Z" fill="#202020"/>
          <polygon points="248.721 281.415 248.726 281.412 248.628 281.324 248.721 281.415" fill="#202020"/>
          <path d="M284.389,293.043a2.7,2.7,0,0,0,.873-.04A4.18,4.18,0,0,0,284.389,293.043Z" fill="#202020"/>
          <path d="M326.312,252.471l.04-.189a.049.049,0,0,1-.043-.027Z" fill="#202020"/>
          <path d="M326.309,252.255l-.022-.217A.366.366,0,0,0,326.309,252.255Z" fill="#202020"/>
          <path d="M326.239,251.583l.048.455A.814.814,0,0,0,326.239,251.583Z" fill="#202020"/>
          <path d="M325.3,257.659l.084.081A.126.126,0,0,0,325.3,257.659Z" fill="#202020"/>
          <path d="M324.93,259.22a7.339,7.339,0,0,0,.522-1.414l-.067-.066C325.47,258.02,324.854,258.827,324.93,259.22Z" fill="#202020"/>
          <path d="M321.649,265.073c.2-.388.357-.8.538-1.193-.18.175-.418.4-.239-.164C321.079,265.134,322.3,263.492,321.649,265.073Z" fill="#202020"/>
          <path d="M319.75,268.652c.259-.655-.143-.067-.18-.13C319.45,268.959,319.411,269.062,319.75,268.652Z" fill="#202020"/>
          <path d="M298.71,288.155l-.041-.264C298.2,288.158,298.705,287.984,298.71,288.155Z" fill="#202020"/>
          <path d="M293.876,291.39a4.454,4.454,0,0,0,.566,0l.17-.312A5.292,5.292,0,0,1,293.876,291.39Z" fill="#202020"/>
          <polygon points="290.19 290.457 290.407 290.363 289.565 290.677 290.19 290.457" fill="#202020"/>
          <path d="M246.542,275.535l-.14.325C246.694,276.091,247.006,275.926,246.542,275.535Z" fill="#202020"/>
          <path d="M237.2,256.879a1.791,1.791,0,0,0-.113-1.189A4.9,4.9,0,0,0,237.2,256.879Z" fill="#202020"/>
          <polygon points="265.423 206.462 265.066 206.704 265.778 206.35 265.423 206.462" fill="#202020"/>
        </g>
        <path d="M226.941,254.926c0,1.164.534,1.667,1.677,1.667h3.958c2.974,0,4.679-2.227,4.679-7.274v-2.166c0-5.084-1.31-7.352-4.544-7.352h-4.093c-1.141,0-1.677.507-1.677,1.678Zm3.121-12.658h1.547c1.955,0,2.378,1.424,2.378,5.117v1.349c0,4.343-.82,5.392-2.47,5.392h-1.455Zm-14.915,10.361c0,1.41.715,4.277,4.7,4.277,3.412,0,4.858-1.885,4.858-5.154,0-2.2-.489-3.525-2.243-4.182a3.316,3.316,0,0,0,1.915-3.459c0-2.45-1.289-4.317-4.663-4.317-2.95,0-4.31,1.66-4.31,3.8a1.3,1.3,0,0,0,1.16,1.418,1.154,1.154,0,0,0,.176,0,1.394,1.394,0,0,0,1.516-1.261,1.253,1.253,0,0,0,0-.162c.2-1.124.705-1.572,1.506-1.572,1.126,0,1.472.937,1.472,1.964,0,1.849-.448,2.381-1.757,2.621-1.221.2-1.443.462-1.443,1.111,0,.687.324.961,1.59,1.107,1.267.127,1.944.507,1.944,2.932,0,1.635-.4,2.893-1.686,2.893-1.206,0-1.669-.862-1.729-2.134-.077-1.2-.654-1.756-1.583-1.756-.955,0-1.429.751-1.429,1.859"/>
        <path d="M267.48,306.753c.263,1.124.688,1.79,2.319,1.79,1.5,0,2.132-.247,2.434-1.682l2.785-13.023a8.439,8.439,0,0,0,.167-1.256,1.361,1.361,0,0,0-1.289-1.431,1.444,1.444,0,0,0-.263.012c-1.052,0-1.4.677-1.568,1.66l-2.051,12.112h-.053l-2.381-12.4a1.4,1.4,0,0,0-1.423-1.384,1.327,1.327,0,0,0-.154.01,1.543,1.543,0,0,0-1.624,1.458c0,.02,0,.039,0,.059a10.333,10.333,0,0,0,.216,1.183Z"/>
        <path d="M279.119,311.489c-.544,0-.92-.5-.92-1.175v-2.248h-2.258c-.677,0-1.183-.394-1.183-.92a1.059,1.059,0,0,1,1.183-.933H278.2v-2.246c0-.673.383-1.183.92-1.183s.92.493.92,1.183v2.246H282.3c.677,0,1.183.4,1.183.933s-.5.92-1.183.92h-2.258v2.248C280.045,311.009,279.663,311.489,279.119,311.489Z"/>
        <path d="M289.046,293.574h1.391c1.537,0,2.055.706,2.055,2.435,0,1.841-.9,2.425-2.2,2.425h-1.249Zm-3.2,13.407a1.6,1.6,0,0,0,3.192.129q0-.065,0-.129v-6.157h1.391a1.664,1.664,0,0,1,1.881,1.412,1.734,1.734,0,0,1,.01.381l.144,4.381c.043,1.125.765,1.626,1.955,1.626,1.071,0,1.531-.526,1.531-1.027,0-.856-.221-1.72-.221-2.668v-1.84c0-2-.288-3.04-1.979-3.64,1.461-.587,2.075-1.62,2.075-3.886,0-2.427-.98-4.4-3.859-4.4h-4.407c-1.17,0-1.709.525-1.709,1.708Z"/>
        <g>
          <path d="M331.482,257.25c0,1.327-.639,1.94-1.61,1.94-.991,0-1.629-.613-1.629-1.94V246.11c0-1.322.638-1.925,1.629-1.925.971,0,1.61.6,1.61,1.925Z"/>
          <path d="M331.729,240.265a1.892,1.892,0,0,1-1.855,1.9,1.935,1.935,0,0,1-1.858-1.9,1.857,1.857,0,0,1,3.713,0"/>
        </g>
        <path d="M341.058,235.74a1.72,1.72,0,0,1-1.679,1.739,1.772,1.772,0,0,1-1.7-1.739,1.692,1.692,0,0,1,3.381,0"/>
        <path d="M337,239.724c-.294.876-1.32,4.027-1.32,4.027a26.669,26.669,0,0,0-1.308,4.081c0,.329.2.665.868.665a5.143,5.143,0,0,0,4.288-2.278c.071-.115.043-.161-.009-.223l-.262-.275a.13.13,0,0,0-.179.027c-.141.2-1.187,1.366-1.633,1.366-.23,0-.282-.15-.282-.311a5.077,5.077,0,0,1,.354-1.349l1.632-4.589c.426-1.273.383-1.664-.45-1.986a1.154,1.154,0,0,0-1.7.845Z"/>
        <g>
          <path d="M303.437,250.625l-33.6,17.98c-5.46,2.934-5.46-3.283-5.46-3.283V230.063c0-6.215,5.46-3.284,5.46-3.284l33.6,17.991C308.912,247.693,303.437,250.625,303.437,250.625Z" fill="none"/>
          <g>
            <path d="M303.123,250.038c-.021.108.108.266.241.14l-.064-.348Z" fill="#202020"/>
            <path d="M304.491,249.828a.617.617,0,0,0-.259-.774c.065.369-.051.308,0,.745a.219.219,0,0,1-.3.07.213.213,0,0,1-.07-.07c-.006.107-.273.108-.245.333a.611.611,0,0,0,.737-.452l.006-.029C304.458,249.659,304.466,249.772,304.491,249.828Z" fill="#202020"/>
            <path d="M292.5,238.386l.091.094A.313.313,0,0,0,292.5,238.386Z" fill="#202020"/>
            <path d="M282.049,232.587c.084.036.133.025.152,0C282.116,232.567,282.045,232.552,282.049,232.587Z" fill="#202020"/>
            <path d="M280.423,231.3l.1.076C280.493,231.331,280.46,231.294,280.423,231.3Z" fill="#202020"/>
            <path d="M292.5,238.386l-.232-.242C292.194,238.229,292.371,238.292,292.5,238.386Z" fill="#202020"/>
            <path d="M305,247.627a.305.305,0,0,0,.086.106.589.589,0,0,1-.034-.1Z" fill="#202020"/>
            <path d="M297.267,240.636l.086.045a.791.791,0,0,0,.134-.08Z" fill="#202020"/>
            <path d="M300.854,242.5c-.075-.054-.235.179-.324.27a.307.307,0,0,1,.267-.075A.535.535,0,0,0,300.854,242.5Z" fill="#202020"/>
            <path d="M305.938,246.664l.094.1Z" fill="#202020"/>
            <path d="M294.745,239.217a.255.255,0,0,0,.015-.106A.176.176,0,0,0,294.745,239.217Z" fill="#202020"/>
            <path d="M298.683,251.672c.007.019.017.028.024.044C298.714,251.68,298.711,251.659,298.683,251.672Z" fill="#202020"/>
            <path d="M303.471,250.689l-.05.044a1.453,1.453,0,0,0,.062.146Z" fill="#202020"/>
            <path d="M277.3,229.223l.012.013C277.416,229.254,277.364,229.233,277.3,229.223Z" fill="#202020"/>
            <path d="M263.21,248.329c.251-.389.322.632.6.047C263.7,248.431,263.373,247.845,263.21,248.329Z" fill="#202020"/>
            <path d="M305.044,247.569a.27.27,0,0,0,0-.094C305.047,247.518,305.031,247.547,305.044,247.569Z" fill="#202020"/>
            <path d="M263.811,248.376h0l.026-.06Z" fill="#202020"/>
            <path d="M269.443,225.309a.355.355,0,0,0,.053.151A.239.239,0,0,0,269.443,225.309Z" fill="#202020"/>
            <path d="M275.1,228.69l-.122-.108A.547.547,0,0,0,275.1,228.69Z" fill="#202020"/>
            <path d="M265.41,225.755c-.11.041-.174.021-.281.145a.272.272,0,0,0,.057,0A.272.272,0,0,1,265.41,225.755Z" fill="#202020"/>
            <path d="M263.607,229.392a.625.625,0,0,0,.061-.065l-.008-.121Z" fill="#202020"/>
            <path d="M289.467,256.757a.836.836,0,0,1,.26.147C289.586,256.753,290,256.45,289.467,256.757Z" fill="#202020"/>
            <path d="M305.161,247.631c-.07-.015-.105-.033-.117-.062a.285.285,0,0,0,.011.065A.161.161,0,0,0,305.161,247.631Z" fill="#202020"/>
            <path d="M266.485,227.688c-.068.026-.115.084-.19.113A.525.525,0,0,0,266.485,227.688Z" fill="#202020"/>
            <path d="M267.79,268.188l.088-.063A.11.11,0,0,0,267.79,268.188Z" fill="#202020"/>
            <path d="M265.939,228.672a.549.549,0,0,0-.234.19.257.257,0,0,0,.061.062Z" fill="#202020"/>
            <path d="M289.623,252.971c-.353.182-.035.33-.033.511-.379.294-.291-.076-.5-.128-.228.2-.3.539-.506.634-.036-.033-.082-.028-.065-.1-.171.344-.815.448-1,.866a.145.145,0,0,1-.076-.038.785.785,0,0,1,.231.312c-.152.089-.208.312-.353.183.1-.047.071-.116.089-.191l-.127.158c-.272-.151.182-.2.09-.372-.281.247-.552.639-.834.7-.173-.2.531-.384.1-.41l.427-.117c-.483-.2.245-.1-.227-.339-.537.2-.5.416-1.034.617-.045.186.137.166.092.353-.589.607-.864-.271-1.225.31-.054.228.047.539-.406.586l-.011-.324c-.5.234-.079.517-.682.616.035-.151.335-.289.245-.28-.437-.027-.151.27-.407.4l-.175-.2c-.5.312-.977.78-1.528,1.128,0-.085.055-.208-.115-.206a7.647,7.647,0,0,1-2.323,1.034l-.161.338c-.063.031-.162-.027-.116-.1-.311.071.053.132-.036.279-.146.1-.264,0-.2-.115a3.6,3.6,0,0,1-1.787,1.147l.066-.111c-.435.131-.227.64-.69.651l.052-.076a10.059,10.059,0,0,1-2.552,1.107c.028.348-.91.325-.754.748a3.623,3.623,0,0,0-1.242.152c-.167.053-.115.359-.3.5l-.095-.212a2.916,2.916,0,0,1-.187.337c-.08-.076-.156-.148-.227-.223l-.163.113c.075-.009.181.053.188.122a.5.5,0,0,1-.234.088.838.838,0,0,1-.227-.05c-.144-.044-.224-.143-.219-.21-.076.015-.167.06-.246.069a1.446,1.446,0,0,1-.246.008c.05-.067.135-.076.2-.119-.308.152.083-.228-.181-.122-.009.055-.1.105-.13.139,0-.186-.169-.347-.328-.584l.165-.028a4.275,4.275,0,0,1-.4-1.584c-.037.142-.125.171-.207.162a.176.176,0,0,1-.173-.175l.246-.087c-.151-.14-.093.228-.28-.06.029-.277.281-.186.361-.028l-.085-.336c.076-.019.113.059.207.076-.152-.138.248-.581-.019-.779l.076-.019c0-.741-.083-1.076-.1-1.679-.214-.012-.166-.248-.338-.427a7.594,7.594,0,0,0,.217-1.469c-.106-.379-.181-.11-.308-.278.195-.028.176-.562.316-.285a8.512,8.512,0,0,0-.2-1.629c-.079.088-.113.188-.18.136-.032-.147.082-.334.175-.313l.02.039c-.291-.91.566-2.1.161-2.824l.02.041-.211-.752c.034-.346.147.207.266-.048-.323-.81.047-1.28-.168-1.948.573-.516-.041-1.833.325-2.529l-.135.04c-.132-.181.076-.218.108-.351-.105.019-.121.195-.194.084a26.578,26.578,0,0,1,.318-4.715c.037-.573-.7-.326-.379-1.047l.251.2c-.3-1.155.01-2.362-.245-3.493.058.068.133.07.132.18.182-.239.009-.883-.14-.887.018-.176.134-.041.21-.152.108-.239-.232-.6-.051-.728.029-.022.059.067.075.111-.088-.157.022-.728-.188-.578.131-.365-.081-.734.118-.966a.314.314,0,0,1,.006-.361c.06-.1.1-.189-.045-.284.3.106.443-.222.455-.43.026.1.157.031.193.178.082-.067.206-.157.135-.321.2.152.342.065.536,0s.386-.081.449.208a3.48,3.48,0,0,1,1.087.152c.407.145.8.3,1.176.455-.188.287-.813-.4-.952-.064a6.286,6.286,0,0,1,1.924.631c.151.135-.17.076-.257.1.75.242,1.308.735,2,.9-.017.028-.1.023-.174.013.126.054.256.193.316.049l-.138-.025c-.084-.3.7-.161.778-.254-.414.283.547.42-.042.743.093.017.228,0,.258-.1.1.089.111.162-.064.2.47.155.395-.072.783.139-.037.066-.129.05-.212.106a1.035,1.035,0,0,1,.834.185c-.041.029-.031.1-.128.048.575.282,1.147.171,1.7.628-.338.19.16.207.059.474l.373.1-.069-.193c.289.161.644.117.851.333l-.271-.012.572.244-.259-.26c.364.03.137-.333.488-.055-.092-.017.291.159.364.387h0a.7.7,0,0,1,.563.171c.014.11-.193.252-.185.325.255-.132.714.308,1.014.182a.25.25,0,0,0-.152.187l.21-.1c.106.125.112.163.034.255.39.249.041-.385.45.009-.045-.006-.041.029-.133.012.446.331.994.394,1.394.716,0,.322-.421-.147-.384.146a14.362,14.362,0,0,1,2.08.8l-.1-.089c.276-.309.369.422.773.423-.091-.015-.207.143-.165.115a6.354,6.354,0,0,0,1.621.612l-.128.048a7.742,7.742,0,0,0,.884.587c.129-.047.276.05.253-.132.557.965,1.744.575,2.252,1.4-.089-.046-.254-.033-.183.005l.675.254c.033-.181-.032-.138-.1-.329a.685.685,0,0,1,.5.059c-.339-.049-.13.249-.053.4,0-.058.075-.088.089-.142.183.455.222-.28.573.146l-.067.068a1.578,1.578,0,0,1,.572.145c-.02.219-.223-.013-.314.128.261.127.683-.069.821.233-.135-.008-.292-.091-.426-.1.139.344.2.307.365.44l-.016-.015.38.327-.076-.116c.568-.3.7.263,1.289.188-.573.065-.159.13-.3.315.08.116.213.268.135.3.291-.054.271.311.682.228-.021.072.215.122.082.262.291.09,0-.147.063-.217a1.122,1.122,0,0,1,.694.391,1.3,1.3,0,0,0,.759.425,5.175,5.175,0,0,0,.6.177.934.934,0,0,1,.535.311c-.025.2-.3,0-.3.012a.85.85,0,0,0,.089.331.9.9,0,0,0,.137.289c-.069-.039-.114.016-.206.076,0,.144.3.131.114.344l-.255-.212a1.2,1.2,0,0,1,.046.638c-.134-.018-.109-.22-.151-.313-.016.221-.248.572-.16.774l.176-.084c-.063.083-.167-.076-.148-.152,0-.272.244-.214.319-.19l-.063.167c.236.06.328-.125.353-.34a4.365,4.365,0,0,0-.046-.593,2.012,2.012,0,0,1,.309.169,1.208,1.208,0,0,0-.266-.367c.064-.076.221-.188.313,0,.071-.322-.134-.227-.091-.511.011-.037.031-.032.055-.013l-.221-.215c.084.016.164-.165.217.028-.041-.314-.273-.416-.413-.52s-.281-.126-.275-.284l.046.013c-.62-.358-.2.117-.758.048q.018-.321.015-.659l-.178.163c-.056-.044-.167-.132-.1-.2-.3,0-.011.111-.212.164-.193-.342-.853-.345-.745-.7-.188.1.216.269-.151.21.1-.4-.393-.134-.575-.437.179-.137.379.095.2-.21-.324.219-.484-.345-.741-.407-.141.237-.544-.162-.966-.283.068-.069-.64-.515-.945-.791l.032-.036c-.2.209-.538-.031-.829-.122a.309.309,0,0,1,.346-.163l-.249-.132a.46.46,0,0,1-.379-.011l.16-.151c-.336-.167-.781-.141-1.142-.491-.115.159.084.658-.427.531.032-.1.1-.268.239-.243-.045-.009-.179,0-.235-.076l.263-.059c-.157-.173-.172.075-.319-.022.076-.13-.064-.156.015-.248.046.008.106.126.192.107a.858.858,0,0,1-.347-.446.168.168,0,0,1-.192.138.264.264,0,0,1-.04-.012c-.336-.167-.029-.22-.185-.391-.129.049-.29-.159-.4.036-.1-.053-.065-.152-.075-.228-.218,0-.813-.4-.733-.089l.036.037-.032-.006h0c-.666-.1-1.106-.737-1.708-.95l.037-.066a4.579,4.579,0,0,0-1.077-.336c-.1-.053-.168-.245-.084-.3a1.007,1.007,0,0,1-.657-.333c.317.021-.034-.151.307.056-.3-.234-.318-.38-.769-.389.212-.1-.134-.345-.318-.379l.166.245a2.255,2.255,0,0,1-.484-.265l.2-.177c-.531-.632-1.464-.192-1.736-.921-.262.06.308.3.051.4-.294-.2-.447-.688-.544-.742-.36-.351-.571.113-.972-.21.015.11-.045.351-.418.247-.295-.2-.2-.537.027-.5.076.033.1.076.083.1.116.025.266.061.189-.09l-.083.057c-.111-.163-.543-.384-.373-.461-.276-.05-.17.076-.018.211-.337-.328-.622-.337-.99-.634.042.076.051.205-.013.169-.549-.421-.346.009-.772-.175-.167-.245.237-.244-.228-.363-.207-.216.06-.239.2-.25-.455-.047-.646-.475-.844-.618l.231.042a1.045,1.045,0,0,1-.332-.13l.027.218c-.1-.089-.2-.142-.161-.207-.175.039-.05.312-.362.328-.112-.163-.517-.165-.455-.4.447.331.06-.24.489-.054a.62.62,0,0,1-.29-.16c0-.033.04-.035.075-.031-.363-.436-.34.125-.819-.138.125-.086.009-.285-.083-.3.193.106-.014.248-.24.243-.259-.257-.372-.11-.531-.207l.162.141c-.126.085-.272-.012-.507-.091.031-.1.227.041.174-.04-.35.081-.424-.5-.834-.543-.111-.163.1-.227,0-.358-.455-.045-.317-.379-.777-.461.027.219.068.191-.291.2l.7.233-.538.01c.194.107.464.119.567.21-.267.024-.228-.005-.2.177-.138-.379-.607-.143-.825-.469l.222-.39c-.369-.424-.932-.237-1.479-.659l.156.172c-.083.057-.176.014-.283-.051a1.05,1.05,0,0,0-.385-.167c.08-.131-.043-.238-.112-.363-.021.1-.545-.2-.691.089a3.606,3.606,0,0,0-.3-.267.8.8,0,0,0-.707.111,1.469,1.469,0,0,1-.647.265c.157-.2-.166-.259.269-.431-.227.011-.446.048-.422.151-.076-.021-.228.061-.367.175s-.27.241-.4.238c-.039.118.036.261-.148.415-.041,0-.053-.053-.053-.053.026.026-.026.11-.047.181s.009.137.125.111a.961.961,0,0,0-.464.342,3.351,3.351,0,0,0-.239.578,2.3,2.3,0,0,1-.326,1.027c.025.4.056.883.076,1.244-.044-.022-.076,0-.058-.068-.14.483.429.3.274.846-.242.281-.131-.291-.223-.116-.492.075.068.663-.22,1.032l-.029-.089c-.168.283.187.689.152,1.151a.085.085,0,0,0-.076,0,3.215,3.215,0,0,1,.4,1.358c-.193-.139-.1-.2-.3-.117.027.2.315-.059.369.339-.105.128-.2.415-.407.455l-.011-.375c-.27.192.01.485-.037.682l-.119-.025c.039.574.336.582.315,1.2l.089-.063c.3.337-.166.282.054.619l-.3.1a7.761,7.761,0,0,1,.346,1.178,3.644,3.644,0,0,1-.468-.986c0,.221.022.75.169.865-.028-.089-.1-.2-.056-.289a1.537,1.537,0,0,1,.347,1.067c-.581-.076-.146,1.146-.6,1.465a11.263,11.263,0,0,1-.057,2.45c.452-.322.013.264.477.208.029.212.022.292-.008.311l-.277.64c-.135.152-.1-.2-.207-.182-.035.463-.2.194-.319.5.166-.062.237.161.174.425l.214-.371c.247.645-.389.558-.144,1.209l-.147-.206c.087.334,0,1.232.37,1.56-.054.059-.18.137-.214-.01-.056.8.4,1.778.167,2.4l-.114-.061c.034.152.214.26.1.446-.047-.009-.113-.06-.12.009a.978.978,0,0,1,.133.593l-.128-.168c-.148.779.31,1.2.389,1.848-.335,0-.443.611-.5.917l-.047-.01a10.8,10.8,0,0,0,.407,2.38,1.268,1.268,0,0,0-.18.509c-.016.1-.029.21-.038.323,0,.052-.009.113-.009.2l0,.215a12.194,12.194,0,0,0,.248,1.689c0-.173.245-.065.352.085.033.262.52.472.253.607l-.048-.081c-.151.323.276.793.719,1.051.1-.1.188-.2.277-.3a1.655,1.655,0,0,0,1.852.478c.607-.168,1.035-.422,1.365-.3.16-.186.433-.3.546-.485l.091.194a7,7,0,0,0,1.346-.682l-.05.2c.345-.17.135-.775.442-.954l.245.232c.59-.321,1.322-.393,1.769-.963a.164.164,0,0,1-.05.2c.283-.142,1.18-.386.871-.719.142.248.623-.3.883-.584l.05.212c.143-.379.116-.455.455-.719.1-.023.159.107.015.123.349-.061.137-.3.55-.394l-.07.191c.314-.152.255-.2.349-.429.152-.178.607-.264.741-.12a.4.4,0,0,1,.287-.4c.058.051.014.125-.008.162.579-.147.644-.623,1.095-.628a.155.155,0,0,0,.119.076,5.6,5.6,0,0,1-.719.348c.092.172.437.026.3.4.194-.271.5-.793.858-.883a.221.221,0,0,1,.076.036l-.023.037a.344.344,0,0,0,.187-.135,1.2,1.2,0,0,0,.293-.091c.114.122.418-.125.585-.206-.114-.18.116-.265-.167-.312.032,0-.019.038-.125.1a.289.289,0,0,0-.059.057v-.022l-.4.228c.076-.166.17-.318.407-.31.02-.167.046-.34.067-.426.364.142.872.052,1.019.182.443-.373,1.137-.7,1.266-1.221.117-.121.217.014.3.04-.063.08-.164.127-.181.2.236-.242.823-.486.759-.769.418-.08-.076.336.39.032l-.026.111c1.18-.124,1.238-1.472,2.583-1.541-.091.009-.136.015-.174-.019,1.344-.431,2.411-1.559,3.808-1.851.379-.113.334-.29.479-.522l.183.162.234-.425c.416-.442,1.145.025,1.615-.641l-.152-.092c.245-.1.689-.472.734-.3.01-.037,0-.181.128-.159l.064.1.47-.484c.481-.16.152.455.809.132.217-.168.515-.671.387-.694-.1.047-.281.066-.345-.035l.189-.172c-.127-.333-.13-.741-.782-.672l-.271.39-.2-.087.309-.177c-.255-.047-.3.139-.379.293a.314.314,0,0,0-.246-.083l-.207.494c-.11-.1.035-.33-.247-.265-.1.227.311.185.076.427-.254-.046-.264-.188-.409.044-.076-.064-.055-.139.009-.219-.135.2-.472.3-.48.522-.279-.076-.606.379-.744.076a1.165,1.165,0,0,1-.37.511c.124-.52-.653.323-.773-.1-.062.441-.758.589-1.077.986.009-.038.027-.113.076-.116a1.414,1.414,0,0,1-.545.057c.111.278-.217.531-.324.8-.418-.1.007-.4-.212-.595.128.205-.379.475-.187.6-.3-.041-.228.023-.455-.134.137.348-.172.163-.244.461-.4.006-.245-.264-.536.02C289.379,253.251,289.623,252.971,289.623,252.971Zm-7.886,4.947h0l.163-.1Zm-.687.371c.088-.037.192-.092.3-.152.059.052.068.133,0,.166.014-.063-.169-.014-.3-.014Zm2.153.524c-.094.085-.152.068-.186.036a1.955,1.955,0,0,0,.178-.124V258.7a.29.29,0,0,1,.01.117Z" fill="#202020"/>
            <path d="M284.23,261.848c.018-.016.024-.033.05-.049a.746.746,0,0,0-.116-.01l-.009.105Z" fill="#202020"/>
            <path d="M292.6,238.5l-.016-.016a.12.12,0,0,1,.021.057A.184.184,0,0,1,292.6,238.5Z" fill="#202020"/>
            <polygon points="268.612 267.76 268.641 267.825 268.686 267.735 268.612 267.76" fill="#202020"/>
            <path d="M297.146,242.021a.149.149,0,0,0,.031.1A.187.187,0,0,0,297.146,242.021Z" fill="#202020"/>
            <path d="M299.274,243.233l.258.251A1.855,1.855,0,0,0,299.274,243.233Z" fill="#202020"/>
            <path d="M300.868,244.244a.417.417,0,0,0,.089-.089h0Z" fill="#202020"/>
            <path d="M274.325,230.409a.29.29,0,0,0-.07-.024C274.079,230.353,274.192,230.389,274.325,230.409Z" fill="#202020"/>
            <path d="M282.488,234.034a1.844,1.844,0,0,1-.315-.018C282.3,234.109,282.408,234.172,282.488,234.034Z" fill="#202020"/>
            <polygon points="266.509 227.683 266.507 227.679 266.485 227.688 266.509 227.683" fill="#202020"/>
            <path d="M281.81,233.816a.624.624,0,0,0,.363.2A.946.946,0,0,0,281.81,233.816Z" fill="#202020"/>
            <path d="M304.536,248.62a.661.661,0,0,1-.058.047.085.085,0,0,1,.029.036C304.516,248.675,304.53,248.648,304.536,248.62Z" fill="#202020"/>
            <path d="M304.507,248.7l-.032.083C304.5,248.758,304.522,248.732,304.507,248.7Z" fill="#202020"/>
            <path d="M304.408,248.966l.067-.18C304.433,248.831,304.377,248.88,304.408,248.966Z" fill="#202020"/>
            <path d="M305.025,247.143l-.1.022A.315.315,0,0,0,305.025,247.143Z" fill="#202020"/>
            <path d="M304.712,246.7c.105.124-.007.383.127.48l.082-.019C304.743,247.182,304.982,246.712,304.712,246.7Z" fill="#202020"/>
            <path d="M302.991,243.982l.521.371c-.046-.148-.106-.345.16-.232C303.12,243.458,303.7,244.413,302.991,243.982Z" fill="#202020"/>
            <path d="M301.331,242.915c.324.116.071-.141.116-.187C301.209,242.713,301.151,242.71,301.331,242.915Z" fill="#202020"/>
            <path d="M288.8,236.2l.151-.21C288.7,235.9,288.9,236.08,288.8,236.2Z" fill="#202020"/>
            <polygon points="285.776 236.085 285.926 236.346 286.144 236.197 285.776 236.085" fill="#202020"/>
            <polygon points="285.22 233.721 285.339 233.743 284.909 233.618 285.22 233.721" fill="#202020"/>
            <path d="M263.428,228.676l.328-.04C263.74,228.431,263.4,228.313,263.428,228.676Z" fill="#202020"/>
            <path d="M263.642,239.142a.423.423,0,0,0-.1.581C263.56,239.491,263.683,239.26,263.642,239.142Z" fill="#202020"/>
            <path d="M266.07,270.435l-.343-.012c.205.047.408.086.607.117Z" fill="#202020"/>
          </g>
        </g>
        <g>
          <path d="M314.944,214.215c-2.316,2.316-4.49,3.9-4.855,3.532s1.215-2.539,3.531-4.855,13.359-12.767,13.725-12.4S317.26,211.9,314.944,214.215Z" style="mix-blend-mode: hard-light"/>
          <path d="M244.924,214.215c2.316,2.316,4.49,3.9,4.856,3.532s-1.216-2.539-3.532-4.855-13.359-12.767-13.724-12.4S242.608,211.9,244.924,214.215Z" style="mix-blend-mode: hard-light"/>
          <path d="M314.944,281.2c-2.316-2.316-4.49-3.9-4.855-3.531s1.215,2.539,3.531,4.855,13.359,12.766,13.725,12.4S317.26,283.52,314.944,281.2Z" style="mix-blend-mode: hard-light"/>
          <path d="M244.924,281.2c2.316-2.316,4.49-3.9,4.856-3.531s-1.216,2.539-3.532,4.855-13.359,12.766-13.724,12.4S242.608,283.52,244.924,281.2Z" style="mix-blend-mode: hard-light"/>
        </g>
        <path d="M274.53,191.142a1,1,0,0,0,.237.4,1.136,1.136,0,0,0,.356.276,1.249,1.249,0,0,0,.592.12,1.375,1.375,0,0,0,.8-.2q.276-.2.83-.566l8.141-6.744a4.929,4.929,0,0,1,.975-.672q.446-.224.789-.356a4.726,4.726,0,0,1,.738-.184l1.555.079a.88.88,0,0,1,.592.185.524.524,0,0,1,.144.368.67.67,0,0,1-.078.329,2.034,2.034,0,0,1-.158.251l-10.617,8.851q-1.053.87-1.791,1.594t-1.212,1.252q-.554.606-.923,1.08l-4.162,8.694a1.962,1.962,0,0,1-.356.514,1.418,1.418,0,0,1-.395.289,1.35,1.35,0,0,1-.368.119,2,2,0,0,1-.251.027h-1.528q-.526,0-.672-.251a1.066,1.066,0,0,1-.145-.54,1.51,1.51,0,0,1,.08-.527c.035-.07.069-.149.105-.237l4.32-9.405a2.6,2.6,0,0,0,.185-1,3.723,3.723,0,0,0-.092-.843A5.613,5.613,0,0,0,272,193.3c-.087-.245-.184-.491-.289-.738l-3.53-8.614a1.291,1.291,0,0,1-.079-.4.614.614,0,0,1,.342-.579.534.534,0,0,1,.343-.1h1.159a2.093,2.093,0,0,1,.632.157,3.106,3.106,0,0,1,.553.369,1.909,1.909,0,0,1,.5.711Zm5.954-5.717a2.518,2.518,0,1,1-.738-1.792A2.437,2.437,0,0,1,280.484,185.425Zm4.03,12.645a.494.494,0,0,0,.132.29.456.456,0,0,0,.448.29,1.225,1.225,0,0,0,.552-.131c.071-.036.151-.08.239-.132l4.4-3.662a3.035,3.035,0,0,1,.528-.343,2.214,2.214,0,0,1,.5-.184,2.769,2.769,0,0,1,.526-.105h1.027a1.323,1.323,0,0,1,.383.118.313.313,0,0,1,.2.3.794.794,0,0,1-.316.553l-5.3,4.479a10.994,10.994,0,0,0-.961.869q-.384.4-.646.686c-.194.21-.36.4-.5.579l-2.161,4.478a1.443,1.443,0,0,1-.3.422,1.284,1.284,0,0,1-.356.237,1.543,1.543,0,0,1-.355.106,2.184,2.184,0,0,1-.252.026.111.111,0,0,1-.078-.026h-1.37a.58.58,0,0,1-.435-.185.6.6,0,0,1-.119-.369,1,1,0,0,1,.053-.316c.035-.106.07-.2.106-.289l2.187-4.8a1.182,1.182,0,0,0,.105-.528,2.018,2.018,0,0,0-.053-.461q-.053-.224-.105-.408l-.158-.422-1.818-4.425a.917.917,0,0,1-.132-.449.352.352,0,0,1,.21-.355,1.037,1.037,0,0,1,.422-.092h.765c.035,0,.109,0,.223.013a1.281,1.281,0,0,1,.369.093,1.54,1.54,0,0,1,.382.223,1,1,0,0,1,.29.382Zm3.609-3.345a1.708,1.708,0,1,1-.5-1.186A1.616,1.616,0,0,1,288.123,194.725Z"/>
      </g>
      <g>
        <path d="M120.8,96.8a9.546,9.546,0,0,0-1.406-.285,12,12,0,0,0-1.6-.114,2.239,2.239,0,0,0-1.975.969,5.859,5.859,0,0,0-.666,3.212,10.8,10.8,0,0,0,.172,2.137,3.192,3.192,0,0,0,.522,1.292,1.813,1.813,0,0,0,.912.646,4.407,4.407,0,0,0,1.34.18,8.572,8.572,0,0,0,1.482-.133q.759-.132,1.367-.284l.229,2.279a11.956,11.956,0,0,1-1.463.352,9.871,9.871,0,0,1-1.786.161,9.619,9.619,0,0,1-2.642-.332,4.473,4.473,0,0,1-1.947-1.111,4.977,4.977,0,0,1-1.2-2.043,10.392,10.392,0,0,1-.408-3.144,9.884,9.884,0,0,1,.4-3.021,4.788,4.788,0,0,1,1.187-2,4.6,4.6,0,0,1,1.947-1.112,9.5,9.5,0,0,1,2.679-.341,12.8,12.8,0,0,1,1.786.123,13.143,13.143,0,0,1,1.388.257Z"/>
        <path d="M131.84,102.325a4.9,4.9,0,0,1-1.225,3.7,6,6,0,0,1-7.088,0,6.2,6.2,0,0,1,0-7.4,6.036,6.036,0,0,1,7.088,0A4.865,4.865,0,0,1,131.84,102.325Zm-3.287,0a4.5,4.5,0,0,0-.332-2.061,1.431,1.431,0,0,0-2.3,0,4.491,4.491,0,0,0-.332,2.061,4.557,4.557,0,0,0,.332,2.071,1.416,1.416,0,0,0,2.3,0A4.571,4.571,0,0,0,128.553,102.325Z"/>
        <path d="M134.52,97.994q.474-.133,1.025-.247t1.178-.19A10.5,10.5,0,0,1,138,97.48a5.373,5.373,0,0,1,3.022.76,6.949,6.949,0,0,1,1.509-.56,6.689,6.689,0,0,1,1.606-.2,5.857,5.857,0,0,1,1.558.19,3.053,3.053,0,0,1,1.168.6,2.589,2.589,0,0,1,.742,1.073,4.466,4.466,0,0,1,.256,1.6v6.023h-3.172v-5.909a1.421,1.421,0,0,0-.324-1.083,1.362,1.362,0,0,0-.931-.284,2.778,2.778,0,0,0-.627.075,3.119,3.119,0,0,0-.57.19,3.268,3.268,0,0,1,.133.988v6.023h-3.173v-5.909a1.417,1.417,0,0,0-.323-1.083,1.364,1.364,0,0,0-.931-.284,4.261,4.261,0,0,0-.56.038,3.753,3.753,0,0,0-.5.094v7.144H133.7V98.24C133.93,98.165,134.2,98.082,134.52,97.994Z"/>
        <path d="M150.1,98.24a14.848,14.848,0,0,1,2.07-.532,12.561,12.561,0,0,1,2.337-.228,6.623,6.623,0,0,1,1.89.257,3.912,3.912,0,0,1,1.492.807,3.673,3.673,0,0,1,.978,1.444,5.914,5.914,0,0,1,.352,2.166,7.5,7.5,0,0,1-.332,2.394,4,4,0,0,1-.912,1.549,3.4,3.4,0,0,1-1.369.836,5.528,5.528,0,0,1-1.719.256,6.652,6.652,0,0,1-.817-.057q-.456-.057-.8-.132v3.533H150.1Zm3.171,6.555a6.167,6.167,0,0,0,.627.143,3.68,3.68,0,0,0,.609.047,1.154,1.154,0,0,0,1.093-.6,5.017,5.017,0,0,0,.332-2.2,6.7,6.7,0,0,0-.095-1.244,2.162,2.162,0,0,0-.285-.77.973.973,0,0,0-.466-.389,1.784,1.784,0,0,0-.637-.1,5.068,5.068,0,0,0-.607.038,5.355,5.355,0,0,0-.571.094Z"/>
        <path d="M161.289,97.9a14.415,14.415,0,0,1,1.568-.294,12.589,12.589,0,0,1,1.719-.124,9.016,9.016,0,0,1,1.758.162,4.214,4.214,0,0,1,1.406.532,2.7,2.7,0,0,1,.941.969,2.938,2.938,0,0,1,.342,1.472v5.871c-.228.077-.5.159-.827.247a10.4,10.4,0,0,1-1.054.228q-.57.1-1.178.162a11.092,11.092,0,0,1-1.2.066,9.146,9.146,0,0,1-1.663-.142,3.665,3.665,0,0,1-1.33-.5,2.457,2.457,0,0,1-.874-.978,3.405,3.405,0,0,1-.313-1.548,2.705,2.705,0,0,1,.323-1.388,2.557,2.557,0,0,1,.846-.883,3.572,3.572,0,0,1,1.2-.475,6.651,6.651,0,0,1,1.378-.143,7.637,7.637,0,0,1,.779.039c.252.025.5.057.741.094v-.551a.94.94,0,0,0-.352-.874,2.31,2.31,0,0,0-1.131-.209,9.938,9.938,0,0,0-1.51.124c-.539.082-1.016.174-1.434.275Zm4.561,5.13c-.153-.025-.307-.044-.465-.057s-.308-.018-.447-.018a1.737,1.737,0,0,0-.989.256,1.054,1.054,0,0,0-.379.94.949.949,0,0,0,.389.884,1.777,1.777,0,0,0,.941.238,4.785,4.785,0,0,0,.95-.1Z"/>
        <path d="M177.857,99.855q-.569-.114-1.139-.18a11.7,11.7,0,0,0-1.33-.067,3.95,3.95,0,0,0-1.14.115.47.47,0,0,0-.342.493q0,.248.343.447a8.133,8.133,0,0,0,.849.418c.338.146.706.311,1.107.494a6.037,6.037,0,0,1,1.106.655,3.515,3.515,0,0,1,.849.913,2.292,2.292,0,0,1,.344,1.273,2.415,2.415,0,0,1-.344,1.32,2.524,2.524,0,0,1-.925.865,4.434,4.434,0,0,1-1.374.465,9.406,9.406,0,0,1-1.669.142,11.458,11.458,0,0,1-1.94-.142,13.25,13.25,0,0,1-1.348-.3l.246-2.089c.342.075.76.155,1.254.237a8.6,8.6,0,0,0,1.407.123,2.865,2.865,0,0,0,1.079-.132.518.518,0,0,0,.27-.514.583.583,0,0,0-.333-.475,6.949,6.949,0,0,0-.817-.427c-.322-.145-.678-.307-1.064-.485a5.808,5.808,0,0,1-1.063-.627,3.416,3.416,0,0,1-.819-.864,2.151,2.151,0,0,1-.332-1.206,2.648,2.648,0,0,1,.34-1.407,2.355,2.355,0,0,1,.946-.864,4.575,4.575,0,0,1,1.455-.437,13.02,13.02,0,0,1,1.877-.124,12.76,12.76,0,0,1,1.482.077q.645.075,1.2.171Z"/>
        <path d="M186.56,99.855q-.57-.114-1.14-.18a11.708,11.708,0,0,0-1.33-.067,3.967,3.967,0,0,0-1.141.115.471.471,0,0,0-.342.493c0,.165.116.314.344.447a7.965,7.965,0,0,0,.85.418q.5.219,1.105.494a6.055,6.055,0,0,1,1.108.655,3.545,3.545,0,0,1,.848.913,2.284,2.284,0,0,1,.343,1.273,2.406,2.406,0,0,1-.343,1.32,2.537,2.537,0,0,1-.924.865,4.449,4.449,0,0,1-1.375.465,9.411,9.411,0,0,1-1.668.142,11.458,11.458,0,0,1-1.94-.142,13.365,13.365,0,0,1-1.35-.3l.249-2.089c.341.075.759.155,1.253.237a8.593,8.593,0,0,0,1.406.123,2.861,2.861,0,0,0,1.079-.132.519.519,0,0,0,.269-.514.582.582,0,0,0-.332-.475,6.927,6.927,0,0,0-.816-.427c-.324-.145-.678-.307-1.065-.485a5.851,5.851,0,0,1-1.064-.627,3.387,3.387,0,0,1-.816-.864,2.128,2.128,0,0,1-.333-1.206,2.639,2.639,0,0,1,.34-1.407,2.363,2.363,0,0,1,.944-.864,4.6,4.6,0,0,1,1.456-.437,13.01,13.01,0,0,1,1.877-.124,12.692,12.692,0,0,1,1.481.077c.432.05.83.107,1.2.171Z"/>
        <path d="M195.889,97.48a2.213,2.213,0,0,1,1.416.418,1.447,1.447,0,0,1,.521,1.2,1.424,1.424,0,0,1-.521,1.178,2.207,2.207,0,0,1-1.416.418,2.17,2.17,0,0,1-1.4-.418,1.422,1.422,0,0,1-.522-1.178,1.445,1.445,0,0,1,.522-1.2A2.175,2.175,0,0,1,195.889,97.48Zm0,6.46a2.213,2.213,0,0,1,1.416.418,1.448,1.448,0,0,1,.521,1.2,1.423,1.423,0,0,1-.521,1.177,2.207,2.207,0,0,1-1.416.418,2.17,2.17,0,0,1-1.4-.418,1.421,1.421,0,0,1-.522-1.177,1.446,1.446,0,0,1,.522-1.2A2.175,2.175,0,0,1,195.889,103.94Z"/>
        <path d="M218.664,96.93H210.1l-.993,1.938v9.2H207.9v-7.328a15.345,15.345,0,0,1-2.015,2.242l-1.094-.8a16.164,16.164,0,0,0,3.938-5.25h-2.8V95.758h3.312a12.141,12.141,0,0,0,.656-2.218l1.133.4a12.866,12.866,0,0,1-.476,1.82h8.109Zm.461,6.352h-4.219v3.3a1.154,1.154,0,0,1-.508,1.046,4.758,4.758,0,0,1-2.312.266l-.523-1.25h1.546c.354,0,.532-.2.532-.594v-2.765h-3.969V102.11h3.969V100.9a6.954,6.954,0,0,0,2.14-1.492h-5.023V98.243h6.836v1.1a13.454,13.454,0,0,1-2.688,2.227v.539h4.219Z"/>
        <path d="M229.4,95.649h-1.39v12.43h-1.219V105.25l-5.391,1.18-.671-1.1q.639-.094,1.711-.321V95.649h-1.571V94.485H229.4Zm-2.609,2v-2h-3.133v2Zm0,3.3V98.821h-3.133v2.125Zm0,3.133V102.11h-3.133v2.609Zm8.609,2.671-.882.868a10.514,10.514,0,0,1-2.844-2.547,10.625,10.625,0,0,1-2.609,2.625l-.844-.891a8.514,8.514,0,0,0,2.75-2.82,16.122,16.122,0,0,1-1.906-6.9h-.477V95.922h5.8A18.76,18.76,0,0,1,232.359,104,9.562,9.562,0,0,0,235.4,106.75Zm-2.32-9.664h-2.844a17.251,17.251,0,0,0,1.422,5.719A13.835,13.835,0,0,0,233.078,97.086Z"/>
        <path d="M240.82,103.6a7.378,7.378,0,0,1-3.117,3.023l-.883-.976a6.024,6.024,0,0,0,2.946-2.688Zm1.282-9.555L240.7,96.7v5.711h-1.3V98.18a4.927,4.927,0,0,1-.644.508q-.583.421-.824.641a13.36,13.36,0,0,1-1.024-.883,8.939,8.939,0,0,0,4.11-4.906A7.6,7.6,0,0,1,242.1,94.047Zm8.453,1.25a10.4,10.4,0,0,1-.7,2.93l-1.179-.32q.076-.165.445-1.391h-5.086a13.263,13.263,0,0,1-1.773,1.93l-1.172-.766a8.414,8.414,0,0,0,3.07-4.187,3.2,3.2,0,0,1,.6.234,4.618,4.618,0,0,0,.511.227,9.47,9.47,0,0,1-.5,1.343Zm-2.516,9.282a7.848,7.848,0,0,1-.355,1.617,1.889,1.889,0,0,1-.571.781,1.258,1.258,0,0,1-.707.32l-.593.032h-3.149a1.394,1.394,0,0,1-1.082-.563,1.613,1.613,0,0,1-.34-.891v-2.992h1.242V105.6a.618.618,0,0,0,.594.461h3.055a.69.69,0,0,0,.594-.57l.14-1.219Zm-2.531-6.446a7.039,7.039,0,0,1-3.36,3.321l-.8-.954a7.754,7.754,0,0,0,3.2-2.96Zm.336,6.524-1.164.609a5.973,5.973,0,0,0-1.649-2.734l1.055-.352A7.623,7.623,0,0,1,245.844,104.657Zm1.187-4.063a2.508,2.508,0,0,1-.156.926,1.07,1.07,0,0,1-.477.57,5,5,0,0,1-1.7.215l-.476-1.219a2.226,2.226,0,0,1,.265-.015c.11,0,.256.009.442.027s.31.027.379.027c.306,0,.461-.08.461-.242V96.9h1.265Zm4.157.156c-.241.219-.558.482-.954.79a9.694,9.694,0,0,0-2.992-3.2l.891-.671A7.585,7.585,0,0,1,251.188,100.75Zm.257,5.344-1.148.742a7.792,7.792,0,0,0-1.254-1.9,4.124,4.124,0,0,0-1.582-1.285l1.008-.609A6.711,6.711,0,0,1,251.445,106.094Z"/>
        <path d="M266.148,96.258a51.209,51.209,0,0,1-.621,9.02q-.56,2.55-1.972,2.551a11.419,11.419,0,0,1-2.492-.532l-.211-1.343a8.758,8.758,0,0,0,2.515.671q.687,0,1.113-2.519a44.4,44.4,0,0,0,.458-6.746h-3.415a13.13,13.13,0,0,1-1.851,3.359l-.836-.539v7.149h-1.258V106.29h-2.656v1.3h-1.266V96.5h1.469a9.42,9.42,0,0,0,.977-2.82l1.156.469a9.7,9.7,0,0,1-.867,2.351h2.445v3.258a14.89,14.89,0,0,0,2.406-6.2l1.274.289q-.212.947-.688,2.414Zm-8.57,4.492V97.665h-2.656v3.085Zm0,4.368v-3.2h-2.656v3.2Zm6.4-1.578-1.157.507a13.592,13.592,0,0,0-2.172-3.757l.993-.657A12.149,12.149,0,0,1,263.977,103.54Z"/>
        <path d="M282.984,95.969h-6.625v.016l.852.289a10.824,10.824,0,0,1-.406,1.008h1.828a4.55,4.55,0,0,0,1.086-1.235l1.148.383a10,10,0,0,1-.7.852h2.352v1.1h-2.688v.594h2.2v1.1h-2.2v.64h2.2v1.11h-2.2v.617h2.992v1.109h-5.679v.031a4.69,4.69,0,0,1,2.117,1.743l-.883.75a5.014,5.014,0,0,0-2.094-1.821l.61-.672v-.031h-1.477V99.477h-.031a4.045,4.045,0,0,1-.766.891l-.562-.4v3.758h-1.149v-3.5h-.039a5.468,5.468,0,0,1-.828.977l-.516-.368v1.422a9.061,9.061,0,0,1-1.867,5.789l-.992-.812a8.05,8.05,0,0,0,1.164-1.926,6.016,6.016,0,0,0,.414-1.7q.07-.828.071-2.711V94.805h5.773V93.477h1.234v1.328h5.664Zm-9.265,8.977a4.425,4.425,0,0,1-1.922,2.125l-.844-.766a4.931,4.931,0,0,0,1.914-2.094Zm.273-8.977h-2.469v4.18A10.033,10.033,0,0,0,273.992,95.969Zm2.031,0h-1.8v.016l.859.32a10.381,10.381,0,0,1-.578,1.445l-.445.954v.515A8.9,8.9,0,0,0,276.023,95.969Zm5.438,9.906q-.672,1.868-1.422,1.868h-4.156a1.6,1.6,0,0,1-1.051-.379,1.093,1.093,0,0,1-.457-.848v-2.031h1.148v1.437a.953.953,0,0,0,.145.621.643.643,0,0,0,.5.161h3.6q.258,0,.593-1.164Zm-2.844-6.9v-.594h-1.984v.594Zm0,1.742v-.64h-1.984v.64Zm0,1.727v-.617h-1.984v.617Zm4.672,3.953-.976.687a4.759,4.759,0,0,0-1.844-2.3l.8-.649A4.628,4.628,0,0,1,283.289,106.4Z"/>
        <path d="M297.719,106.563a1.4,1.4,0,0,1-.328.945,1.039,1.039,0,0,1-.821.383h-1.664l-.39-1.25,1.328.039c.406,0,.609-.119.609-.359v-3.664h-3.484v4.273H291.75v-4.273h-3.516a8.97,8.97,0,0,1-2.336,5.476l-1.031-.773a9.8,9.8,0,0,0,1.676-2.738,8.766,8.766,0,0,0,.52-3.145V94.352h10.656Zm-5.969-8.7V95.524h-3.469V97.86Zm0,3.633V99.024h-3.469v2.469Zm4.7-3.633V95.524h-3.484V97.86Zm0,3.633V99.024h-3.484v2.469Z"/>
        <path d="M307.016,102.352l-.993.75a6.6,6.6,0,0,0-1.343-2.016v6.993h-1.219v-6.2h-.016a14.506,14.506,0,0,1-1.968,3.344l-.977-.836a12.7,12.7,0,0,0,2.836-5.437h-2.289V97.774h2.414V95.969a13.4,13.4,0,0,1-1.953.367l-.555-1.07a17.856,17.856,0,0,0,5.242-1.359l.774.859a12.415,12.415,0,0,1-2.289.93v2.078h2.047v1.172H304.68v1.3l.429-.383A13.783,13.783,0,0,1,307.016,102.352Zm8.211,4.867H305.75V106.11h4.258v-1.945h-3.25v-1.172h3.25v-1.836h-3.422v-1.11h8.062v1.11h-3.421v1.836h3.07v1.172h-3.07v1.945h4Zm-1.25-8.242h-6.7V94.305h6.7Zm-1.219-1.164V95.407h-4.274v2.406Z"/>
        <path d="M331.141,104.7a10.489,10.489,0,0,1-.606,2.433q-.356.816-1.012.817-1.086,0-2.609-2.418t-2.094-7.661h-7.593V96.7h7.484q-.071-.7-.195-3.039l1.265-.047q.094,2.2.2,3.086h4.609v1.171H326.1a20.108,20.108,0,0,0,.769,4.411,10.889,10.889,0,0,0,1.4,3.14q.792,1.122,1.082,1.121.366,0,.562-2.367Zm-5.914.257-7.3,1.844-.453-1.14,3.265-.8V101.04H318.2V99.875h6.243v1.165h-2.477v3.492l3.18-.742Zm4.586-9.281-.86.914a5.1,5.1,0,0,0-2.82-1.633l.961-.914A4.914,4.914,0,0,1,329.813,95.68Z"/>
        <path d="M337.414,107.1l-1.391,1.234a7.775,7.775,0,0,0-2.476-3.281l.891-.765A9.911,9.911,0,0,1,337.414,107.1Z"/>
        <path d="M354.852,106.625a.938.938,0,0,1-.414.723,1.476,1.476,0,0,1-.946.332H352.07l-.461-1.234,1.133.039c.6.015.9-.156.9-.516v-3.023h-2.164a8.606,8.606,0,0,1-1.594,5.148l-.992-.75a6.6,6.6,0,0,0,.976-1.918,11.8,11.8,0,0,0,.414-3.613V94.43h4.571Zm-1.211-8.562V95.6h-2.149v2.461Zm.015,1.172h-2.164v2.539h2.133Zm9.586,7.805-.726.914a10.909,10.909,0,0,1-2.4-1.844,15.219,15.219,0,0,1-2.109,2.055l-.836-.883a10.924,10.924,0,0,0,2.133-2.11,10.346,10.346,0,0,1-1.617-4.257h-.594v7.132l-1.211.032V94.43H362.3a11.712,11.712,0,0,1-.645,3.785,1.544,1.544,0,0,1-1.457.7,9.494,9.494,0,0,1-1.453-.133l-.351-1.274a15.473,15.473,0,0,0,1.984.266q.375,0,.547-2.172h-3.828v4.141h5.219a13.3,13.3,0,0,1-1.571,5.3A10.742,10.742,0,0,0,363.242,107.04Zm-2.226-6.125h-2.125a9.119,9.119,0,0,0,1.054,3.054A14.882,14.882,0,0,0,361.016,100.915Z"/>
        <path d="M379.578,101.1l-.672,1.125a11.236,11.236,0,0,1-4.054-2,18.124,18.124,0,0,0-1.594.941,9.769,9.769,0,0,1-2.1,1.043l-.8-.992.672-.226v-.032l-.687-.125a6.438,6.438,0,0,1,.226-.882h-.757v6.593q0,1.517-1.579,1.516h-1.125l-.429-1.3,1.179.055q.743.031.743-.469v-6.4h-.047a9.073,9.073,0,0,1-2.992,5.875l-.93-.836a9.67,9.67,0,0,0,2.734-5.039h-2.14V98.782h3.593a10.352,10.352,0,0,0-2.414-1.578l.883-.821a8.093,8.093,0,0,1,1.133.61,10.887,10.887,0,0,0,1.422-1.391h-4.031V94.43h5.507v1.078q0,.243-.64.942a13.519,13.519,0,0,1-1.3,1.246l.812.773-.336.313h2.2l-.4,1.937a9.937,9.937,0,0,0,2.367-1.344,6.506,6.506,0,0,1-1.171-1.968,7.625,7.625,0,0,1-1.086,1.187,5.261,5.261,0,0,1-.6-.359q-.375-.251-.516-.328a8.02,8.02,0,0,0,2.766-4.453l1.1.375a4.778,4.778,0,0,1-.383,1.257h4.578v1.172h-1.3a7.014,7.014,0,0,1-1.664,3.133A8.808,8.808,0,0,0,379.578,101.1Zm-1.695,1.047q0,.852-.188,2.644a4.445,4.445,0,0,1-.675,2.329,1.492,1.492,0,0,1-1.3.464l-1.485-.132a7.946,7.946,0,0,0-.3-1.289,12.453,12.453,0,0,0,1.547.25.768.768,0,0,0,.828-.661q.147-.66.375-2.441h-1.774a5.5,5.5,0,0,1-4.148,4.781l-.688-1.148a4.3,4.3,0,0,0,3.6-3.633h-2.305v-1.164h2.477v-1.141h1.281a7.49,7.49,0,0,1-.062,1.141Zm-1.75-5.891H373.75a5.9,5.9,0,0,0,1.188,2.305A7.226,7.226,0,0,0,376.133,96.258Z"/>
        <path d="M217.51,126.373H203.541V125.2h4.883v-7.953h-4.336v-1.165h4.476a7.318,7.318,0,0,0-2.671-2.453l.929-.75a7.152,7.152,0,0,1,2.836,2.578l-.789.594v.031h3.156l-.8-.718a6.743,6.743,0,0,0,2.562-2.641l.93.688a6.809,6.809,0,0,1-2.352,2.64v.031h4.688v1.165h-4.32V125.2h4.781Zm-9.406-3.094-1.133.625a10.879,10.879,0,0,0-2.375-4.992l.961-.657A12.973,12.973,0,0,1,208.1,123.279Zm3.359,1.922v-7.953h-1.774V125.2Zm4.961-6.336a15.29,15.29,0,0,1-2.516,5.07l-1.008-.7a11.465,11.465,0,0,0,2.438-4.961Z"/>
        <path d="M224.135,120.708l-1.5.672v4.461q0,1.344-1.172,1.344h-1.234l-.446-1.219,1.313.071q.32.023.32-.391v-3.852l-1.711.766-.625-1.055,2.336-.914v-3.242h-1.922v-1.172h1.922v-3.2h1.219v3.2h1.437v1.172h-1.437v2.734l1.5-.625Zm9.773,4.719-.844.946a7.733,7.733,0,0,1-3.585-4.993h-.243v5.883h-1.211V121.38h-.164A8.545,8.545,0,0,1,224.2,126.3l-.859-.937a7.546,7.546,0,0,0,3.312-3.985h-2.164v-1.172h3.539v-1.484h1.211v1.484h3.735v1.172H230.6A6.917,6.917,0,0,0,233.908,125.427Zm-6.047-9.906a5.972,5.972,0,0,1-2.992,4.062l-.89-.929a5.059,5.059,0,0,0,2.734-3.531Zm4.946.734h-1.219v-1.5h-6.109v1.5H224.26v-2.672h8.547Zm.851,1.024q-.438,1.766-1.445,1.765h-1.852q-1.156,0-1.156-1.218v-2.594h1.2v2.258q0,.383.414.383h1.071q.4,0,.578-1.133Z"/>
        <path d="M240.822,124.255a12.792,12.792,0,0,1-4.578,2.243l-.75-1.118a11.085,11.085,0,0,0,4.547-1.953Zm8.094-.992-1.039.789-.594-.8h-4.125v4.015h-1.265v-4.015H236.5l-.141-1.133h2.922l.774-.43-2.383-1.8.89-.859.594.414a13.108,13.108,0,0,0,1.891-1.758h-3.711v1.695h-1.219V116.5h5.758v-1.133h-4.961v-1.172h4.961V112.8h1.266v1.391h5.007v1.172h-5.007V116.5h5.742v2.8h-1.258v-1.609h-5.688l.516.414a17.763,17.763,0,0,1-2.4,2.094l1.054.8a35.849,35.849,0,0,0,3.727-2.922l1.07.812a31.7,31.7,0,0,1-4.586,3.235h5.039q-1.188-1-1.343-1.086l1.07-.656A12.11,12.11,0,0,1,248.916,123.263Zm.672,2.211L248.9,126.5a11.664,11.664,0,0,0-4.8-2.032l.882-1.008A14.4,14.4,0,0,1,249.588,125.474Z"/>
        <path d="M263.252,115.521v1.712l-2.752,2.609a5.807,5.807,0,0,1,1.209.272,2.82,2.82,0,0,1,.943.535,2.394,2.394,0,0,1,.617.865,3.17,3.17,0,0,1,.223,1.256,3.9,3.9,0,0,1-.3,1.616,3.028,3.028,0,0,1-.856,1.12,3.52,3.52,0,0,1-1.344.656,6.983,6.983,0,0,1-1.767.208,12.68,12.68,0,0,1-1.848-.12,9.879,9.879,0,0,1-1.48-.329l.223-1.92q.672.177,1.384.3a8.3,8.3,0,0,0,1.465.128,2.208,2.208,0,0,0,1.256-.329,1.354,1.354,0,0,0,.488-1.208,1.205,1.205,0,0,0-.465-1.08,2.342,2.342,0,0,0-1.311-.311H257.6v-1.585l2.5-2.511H256.26v-1.889Z"/>
        <path d="M270.02,115.521a6.621,6.621,0,0,1,2.087.3,3.915,3.915,0,0,1,1.553.927,4.058,4.058,0,0,1,.968,1.6,7.145,7.145,0,0,1,.336,2.32,10.261,10.261,0,0,1-.232,2.24,4.445,4.445,0,0,1-.839,1.808,4.067,4.067,0,0,1-1.689,1.208,7.443,7.443,0,0,1-2.776.44,15.264,15.264,0,0,1-1.648-.1q-.88-.1-1.921-.3V115.521Zm-1.408,8.849c.171.021.327.037.472.047s.291.017.439.017a3.007,3.007,0,0,0,1.29-.24,1.887,1.887,0,0,0,.8-.713,3.092,3.092,0,0,0,.408-1.159,10.033,10.033,0,0,0,.112-1.6,7.607,7.607,0,0,0-.136-1.56,2.82,2.82,0,0,0-.408-1.024,1.536,1.536,0,0,0-.664-.56,2.281,2.281,0,0,0-.9-.168h-1.408Z"/>
        <path d="M280.18,126.162a3.748,3.748,0,0,1-2.256-.6,2.234,2.234,0,0,1-.817-1.928v-8.113h6.385v1.265h-4.7v3.3h4.239v1.264h-4.239v2.3a1.1,1.1,0,0,0,.392.976,1.833,1.833,0,0,0,1.064.272H283.7v1.265Z"/>
        <path d="M284.756,126.162l3.68-5.392-3.473-5.249H286.9l2.577,3.953,2.688-3.953h1.791l-3.6,5.2,3.649,5.44h-1.969L289.315,122l-2.784,4.161Z"/>
        <path d="M295.779,126.162V115.521h3.44a8.325,8.325,0,0,1,1.768.168,3.149,3.149,0,0,1,1.273.569,2.438,2.438,0,0,1,.767,1.04,4.348,4.348,0,0,1,.256,1.6,4.273,4.273,0,0,1-.271,1.609,2.578,2.578,0,0,1-.793,1.072,3.284,3.284,0,0,1-1.248.591,6.682,6.682,0,0,1-1.639.185,11.178,11.178,0,0,1-1.873-.176v3.984Zm1.68-5.248a9.641,9.641,0,0,0,1.7.16,2.624,2.624,0,0,0,1.888-.544,2.217,2.217,0,0,0,.545-1.633,3.234,3.234,0,0,0-.137-1.015,1.4,1.4,0,0,0-.424-.649,1.747,1.747,0,0,0-.736-.343,4.763,4.763,0,0,0-1.072-.1h-1.76Z"/>
        <path d="M308.787,126.162a3.748,3.748,0,0,1-2.256-.6,2.234,2.234,0,0,1-.816-1.928v-8.113H312.1v1.265h-4.7v3.3h4.239v1.264H307.4v2.3a1.1,1.1,0,0,0,.391.976,1.836,1.836,0,0,0,1.065.272h3.455v1.265Z"/>
        <path d="M314.9,126.162V115.521h3.441a8.631,8.631,0,0,1,1.768.161,3.2,3.2,0,0,1,1.272.544,2.307,2.307,0,0,1,.767,1.016,4.207,4.207,0,0,1,.256,1.575,3.469,3.469,0,0,1-.159,1.113,2.594,2.594,0,0,1-.432.808,2.455,2.455,0,0,1-.648.56,4.006,4.006,0,0,1-.824.368,1.925,1.925,0,0,1,.912.671,4.986,4.986,0,0,1,.592,1.2l.944,2.624h-1.744l-.832-2.256a6.294,6.294,0,0,0-.305-.7,2.206,2.206,0,0,0-.383-.543,1.54,1.54,0,0,0-.544-.36,2.051,2.051,0,0,0-.768-.128c-.256,0-.52-.009-.792-.024a6.852,6.852,0,0,1-.84-.1v4.112Zm1.681-5.376c.31.053.605.09.888.111s.553.033.808.033a2.735,2.735,0,0,0,1.888-.513,2.1,2.1,0,0,0,.544-1.6,3.069,3.069,0,0,0-.137-1,1.328,1.328,0,0,0-.424-.623,1.647,1.647,0,0,0-.735-.32,5.619,5.619,0,0,0-1.072-.088h-1.76Z"/>
        <path d="M325.154,126.162V115.521h1.681v10.641Z"/>
        <path d="M333.074,126.162a3.748,3.748,0,0,1-2.256-.6,2.234,2.234,0,0,1-.816-1.928v-8.113h6.385v1.265h-4.7v3.3h4.239v1.264h-4.239v2.3a1.105,1.105,0,0,0,.391.976,1.836,1.836,0,0,0,1.065.272h3.455v1.265Z"/>
        <path d="M339.186,126.162V115.521h1.344l5.808,6.225v-6.225h1.633v10.641h-1.633v-2.4l-5.535-5.856v8.256Z"/>
        <path d="M358.066,126a8.725,8.725,0,0,1-1.377.257,13.094,13.094,0,0,1-1.407.079,6.682,6.682,0,0,1-1.983-.272,3.435,3.435,0,0,1-1.5-.911,4.129,4.129,0,0,1-.937-1.7,10.956,10.956,0,0,1,0-5.249,4.07,4.07,0,0,1,.937-1.688,3.436,3.436,0,0,1,1.511-.9,7.234,7.234,0,0,1,2.032-.263,12.387,12.387,0,0,1,1.392.079c.469.054.9.118,1.28.193l-.192,1.28a11.614,11.614,0,0,0-1.256-.208,11.321,11.321,0,0,0-1.3-.081,3.8,3.8,0,0,0-1.3.2,1.991,1.991,0,0,0-.921.68,3.316,3.316,0,0,0-.552,1.287,9.32,9.32,0,0,0-.183,2.024,9.45,9.45,0,0,0,.191,2.089,3.306,3.306,0,0,0,.568,1.3,1.981,1.981,0,0,0,.944.673,4.121,4.121,0,0,0,1.32.192,8.924,8.924,0,0,0,1.305-.1q.695-.1,1.3-.232Z"/>
        <path d="M363.441,126.162a3.747,3.747,0,0,1-2.255-.6,2.236,2.236,0,0,1-.816-1.928v-8.113h6.384v1.265h-4.7v3.3h4.239v1.264h-4.239v2.3a1.107,1.107,0,0,0,.39.976,1.84,1.84,0,0,0,1.065.272h3.456v1.265Z"/>
        <path d="M379.893,116.782v9.54c0,1.2-.672,1.2-2.7,1.2a3.673,3.673,0,0,0-.352-.928c.512.016.977.032,1.312.032.737,0,.817,0,.817-.32v-3.09h-3.89a9.833,9.833,0,0,1-1.249,4.354,4.344,4.344,0,0,0-.784-.5c1.1-1.729,1.217-4.146,1.217-5.97v-3.25c-.16.209-.321.417-.481.592a6.176,6.176,0,0,0-.768-.592,13.277,13.277,0,0,0,2.545-5.2l1.232.336c-.031.112-.127.16-.319.16-.1.32-.193.624-.3.945h2.049l.16-.048.736.48c-.033.064-.129.1-.209.128a21.376,21.376,0,0,1-1.056,2.129Zm-3.041,0a12.623,12.623,0,0,0,.848-1.809h-1.873a17.072,17.072,0,0,1-.88,1.809Zm-1.681,3.6v.721c0,.384,0,.816-.032,1.248h1.488v-1.969Zm0-2.737v1.889h1.456v-1.889Zm2.272,0v1.889h1.522v-1.889Zm0,4.706h1.522v-1.969h-1.522Zm10.181-8.835a2.562,2.562,0,0,1-.032.336c-.144,2.721-.272,3.729-.624,4.113-.208.256-.464.385-1.2.385-.369,0-.866-.017-1.362-.033a2.334,2.334,0,0,0-.256-.912,13.059,13.059,0,0,0,1.522.08c.24,0,.384-.016.479-.144.193-.224.321-.992.433-2.929H383.83a5.565,5.565,0,0,1-3.169,4.482,3.006,3.006,0,0,0-.624-.752,4.584,4.584,0,0,0,2.785-3.73h-2.273v-.929h6.306l.209-.016Zm.4,10.067v.961h-3.265v2.993h-1.04v-2.993h-3.394v-.961h3.394v-2.1h-1.841a6.631,6.631,0,0,1-.816,1.536,6.722,6.722,0,0,0-.737-.512,9.224,9.224,0,0,0,1.329-3.649l1.184.288c-.031.1-.128.16-.3.16-.1.4-.192.816-.32,1.232h1.5V118.59l1.344.08c-.016.113-.1.193-.3.225v1.648h2.673v.945h-2.673v2.1Z"/>
        <path d="M389.683,117.166a12.549,12.549,0,0,1,2.993,1.648l-.609.9a13.782,13.782,0,0,0-2.961-1.729Zm-.144,9.428a49.561,49.561,0,0,0,2.785-5.282l.832.672a52.766,52.766,0,0,1-2.545,4.978.35.35,0,0,1,.08.224.426.426,0,0,1-.048.192Zm1.008-13.8a12.218,12.218,0,0,1,2.913,1.761l-.624.881a12.021,12.021,0,0,0-2.9-1.857Zm13.445,8.5h-4.546a7.818,7.818,0,0,0,4.739,5.3,4.221,4.221,0,0,0-.753.944,9.047,9.047,0,0,1-5.01-6.066,8.319,8.319,0,0,1-4.914,6.082,4.369,4.369,0,0,0-.832-.784c3.025-1.473,4.209-3.394,4.674-5.475h-3.938v-1.024h4.113a18.218,18.218,0,0,0,.1-2.1V116.35h-3.2v-1.025h3.2v-2.657l1.393.1c-.016.112-.112.192-.32.224v2.337h3.778v4.946h1.52Zm-5.3-4.945v1.84a17.941,17.941,0,0,1-.1,2.081h2.817V116.35Z"/>
        <path d="M419.816,116.526h-8.244c-.063.9-.143,1.841-.271,2.785h5.715l.24-.032.64.112a2.33,2.33,0,0,1-.064.336c-.337,4.818-.656,6.611-1.3,7.251-.432.464-.865.544-1.873.544-.576,0-1.377-.032-2.177-.08a2.584,2.584,0,0,0-.383-1.056c1.183.112,2.336.112,2.736.112.385,0,.592-.016.768-.176.5-.448.817-2.065,1.105-5.987h-5.586c-.545,2.85-1.809,5.635-5.17,7.235a3.234,3.234,0,0,0-.769-.864c4.531-2.049,5.027-6.371,5.218-10.18H405.33v-1.041h6.627V112.6l1.424.1c-.016.112-.111.192-.319.224v2.561h6.754Z"/>
        <path d="M435.832,123.457h-5.794a14.688,14.688,0,0,0,6.147,2.96,4.24,4.24,0,0,0-.689.9,14.769,14.769,0,0,1-6.434-3.617v3.809h-1.073v-3.714a15.007,15.007,0,0,1-6.274,3.49,4.406,4.406,0,0,0-.673-.865,14.411,14.411,0,0,0,6.051-2.96h-5.779v-.929h6.675v-1.392l1.392.095c-.016.113-.1.193-.319.225v1.072h6.77Zm-11.012-3.714-.993-.336c.464-.512,1.009-1.185,1.569-1.889h-3.874v-.912H426.1c.4-.544.8-1.073,1.136-1.553l1.249.4c-.032.08-.143.144-.383.112-.225.32-.5.673-.77,1.041h8.34v.912h-3.249a5.632,5.632,0,0,1-1.905,2.225,43.015,43.015,0,0,1,4.306,1.329l-.656.784a48.672,48.672,0,0,0-4.771-1.489,21.11,21.11,0,0,1-7.026,1.377,3.152,3.152,0,0,0-.352-.865,25.8,25.8,0,0,0,5.874-.9c-.928-.24-1.873-.448-2.753-.624Zm-1.841-4.93v1.393h-1.008v-2.337h6.034v-1.233l1.392.08c-.016.128-.112.192-.319.224v.929h6.162v2.337H434.2v-1.393Zm3.65,2.7c-.305.384-.609.769-.912,1.137,1.119.208,2.32.48,3.52.768a4.458,4.458,0,0,0,1.97-1.905Z"/>
        <path d="M443,121.44c-.1-.256-.224-.544-.367-.865l-1.793.1v6.851h-.977v-6.8c-.912.032-1.744.08-2.4.1-.017.128-.113.177-.225.208l-.288-1.2h1.216c.353-.416.721-.9,1.072-1.392a13.486,13.486,0,0,0-2.128-2.337l.544-.7a5.872,5.872,0,0,1,.481.432,25.235,25.235,0,0,0,1.584-3.169l1.169.5c-.064.1-.16.128-.336.128a23.99,23.99,0,0,1-1.793,3.138,13.067,13.067,0,0,1,1.057,1.2c.719-1.072,1.408-2.209,1.9-3.137l1.136.544a.406.406,0,0,1-.353.128,43.007,43.007,0,0,1-3.3,4.658l2.993-.048c-.32-.544-.673-1.1-1.024-1.585l.8-.384a13.981,13.981,0,0,1,1.872,3.217Zm-3.825.736c-.032.1-.128.16-.3.16a14.152,14.152,0,0,1-1.089,3.842,6.41,6.41,0,0,0-.8-.417A13.776,13.776,0,0,0,438,121.872Zm3.233-.352a14.977,14.977,0,0,1,1.105,3.073c-.193.08-.384.144-.9.32a13.675,13.675,0,0,0-1.04-3.121Zm8.4,4.226h1.216v.992h-9.395v-.992h1.664V113.42h6.515Zm-1.089-11.637h-4.385V117.6h4.385Zm0,7.363V118.59h-4.385v3.186Zm-4.385.992v3.282h4.385v-3.282Z"/>
        <path d="M461.541,112.732c-.047.144-.16.208-.336.24a20.212,20.212,0,0,0,7.012,5.587,4.059,4.059,0,0,0-.7.928,22.259,22.259,0,0,1-6.979-5.73,20.7,20.7,0,0,1-6.818,5.858,5.449,5.449,0,0,0-.673-.848,18.669,18.669,0,0,0,6.915-6.131Zm-5.873,14.806v-6.482h9.859v6.482h-1.088v-.688h-7.715v.688Zm.815-9.572h8.2v.977h-8.2Zm7.956,4.082h-7.715v3.826h7.715Z"/>
      </g>
    </g>
  </g>
</svg>
