<svg xmlns="http://www.w3.org/2000/svg" viewBox="0 0 560 380">
  <g>
    <g>
      <path d="M50.323,250.637a10.93,10.93,0,0,1-3.137-4.409,12.587,12.587,0,0,1-3.343,4.846,2.85,2.85,0,0,0-.957-1.011,7.639,7.639,0,0,0,2.693-3.182,8.848,8.848,0,0,0,1.039-3.825l-.034-1.108a3.585,3.585,0,0,0-.055-.731l1.593.171a6.887,6.887,0,0,0-.444,3.008,4.378,4.378,0,0,0,.489,1.3,13.245,13.245,0,0,0,.953,1.7,10.215,10.215,0,0,0,1,1.247,7.82,7.82,0,0,0,1.124.991A2.349,2.349,0,0,0,50.323,250.637Zm5-3.5H53.092v5.824h-1.06V240.212h1.06v5.851H55.32Z"/>
      <path d="M69.122,246.132l-.014,1.08H57.323v-1.08H60.81v-1.176q-2.2-.628-2.2-1.989,0-.929,1.351-1.607a8.218,8.218,0,0,1,6.528,0q1.35.678,1.35,1.607,0,1.285-2.2,1.962v1.2Zm-1.162,4.327a2.015,2.015,0,0,1-1.313,1.836,7.674,7.674,0,0,1-3.4.652,7.755,7.755,0,0,1-3.469-.656,2.024,2.024,0,0,1-1.3-1.846,2.08,2.08,0,0,1,1.4-1.841,8.689,8.689,0,0,1,6.761-.021A2.063,2.063,0,0,1,67.96,250.459Zm-4.58-1.442a8.072,8.072,0,0,0-2.669.382q-1.077.384-1.077,1.046,0,.582,1.141,1.012a6.943,6.943,0,0,0,2.468.431,6.662,6.662,0,0,0,2.509-.424q1.046-.423,1.046-1.019t-1-1.007A6.213,6.213,0,0,0,63.38,249.017Zm-.151-4.82a6.693,6.693,0,0,0,2.363-.358q.939-.358.939-.872,0-.5-.939-.858a7.94,7.94,0,0,0-4.721,0q-.944.36-.943.858t.94.872A6.685,6.685,0,0,0,63.229,244.2Zm1.347,1.935v-.964a8.758,8.758,0,0,1-1.36.1,10.224,10.224,0,0,1-1.333-.082v.95Z"/>
      <path d="M79.15,250.035a2.326,2.326,0,0,0-.984.827,9.258,9.258,0,0,1-1.712-1.893,14.487,14.487,0,0,1-1.4-2.277,11.908,11.908,0,0,1-2.871,4.3,2.919,2.919,0,0,0-.937-.827,8.834,8.834,0,0,0,2.5-3.336,9.418,9.418,0,0,0,.9-3.794h-2.83v-1.059h6.849v1.059H75.787c-.022.311-.07.745-.143,1.306l-.11.765a7.422,7.422,0,0,0,1.108,2.123A10.272,10.272,0,0,0,79.15,250.035Zm4.17-2.9H81.092v5.824h-1.06V240.212h1.06v5.851H83.32Z"/>
      <path d="M93.458,250.4q-5.3.759-8.121,1.087l-.4-1.176,3.8-.307v-2.365a3.117,3.117,0,0,1-2.1-1,3.071,3.071,0,0,1-.746-2.092,2.977,2.977,0,0,1,.955-2.286,3.683,3.683,0,0,1,4.815.02,2.974,2.974,0,0,1,.937,2.225,3.083,3.083,0,0,1-.739,2.051,3.193,3.193,0,0,1-2.051,1.073v2.283l3.644-.437Zm-4.2-3.814a2.31,2.31,0,0,0,1.613-.611,1.952,1.952,0,0,0,0-2.944,2.422,2.422,0,0,0-3.222,0,1.9,1.9,0,0,0-.674,1.459,1.942,1.942,0,0,0,.674,1.481A2.3,2.3,0,0,0,89.254,246.59Zm8.066.547H95.092v5.824h-1.06V240.212h1.06v5.851H97.32Z"/>
      <path d="M106.781,246.843l4.567-.123.013.841q-6.144.424-8.23.519l-.226-1.148,2.769-.028v-3.055h1.107Zm1.873-.7a21.448,21.448,0,0,0,.4-3.4H103.91v-1.087h6.262a24.9,24.9,0,0,1-.4,4.628Q109.146,246.228,108.654,246.146Zm4.341,6.48h-8.244V248.36h1.094v3.159H113Zm2.215-7.164h-2.229v4.211h-1.059v-9.461h1.059v4.17h2.229Z"/>
      <path d="M117.562,248.094v-4.368h4.518v-1.668h-4.532v-1.121h5.64v3.876h-4.519v2.132a32.959,32.959,0,0,0,5.722-.519l-.014,1.148A50.075,50.075,0,0,1,117.562,248.094Zm11.245,4.546h-9.3v-4.266H120.6v3.158h8.21Zm0-3.247H127.74v-3.432h-2.714v-1.073h2.714V243.78h-2.714V242.7h2.714v-2.488h1.067Z"/>
      <path d="M58.175,264.258q-5.927.431-9.782.465l-.226-1.053,4.313-.137v-1.921H49.541V257.75H56.78v1.107H50.648V260.5h6.337v1.114h-3.4v1.908q4.074-.123,4.587-.185Zm1.8,5.181h-9.3v-4.265h1.087v3.158h8.21Zm.013-2.953H58.92v-9.461h1.066Z"/>
      <path d="M78.361,268.558H66.029V267.45h5.6v-3.206H67.636v-5.81h9.051v5.81H72.694v3.206h5.667ZM75.62,263.13v-3.575H68.7v3.575Z"/>
      <path d="M92.054,264.47H80.269v-1.06H92.054Zm-1.538-5.558H82.743v2.42h7.909v1.121h-9.03v-4.635h8.894Zm.15,10.527H81.793v-4.265h1.094v3.158h7.779Z"/>
      <path d="M105.24,263.424a3.223,3.223,0,0,0-.977.868,9.27,9.27,0,0,1-2.659-2.885,11.874,11.874,0,0,1-2.455,3.022,6.266,6.266,0,0,0-.936-.855,6.58,6.58,0,0,0,2.871-4.477H98.6v-1.135H105V259.1h-2.714l-.109.827a3.774,3.774,0,0,0,.85,1.508A8.119,8.119,0,0,0,105.24,263.424Zm4.567,3.835a2.015,2.015,0,0,1-1.317,1.836,7.68,7.68,0,0,1-3.4.652,7.788,7.788,0,0,1-3.473-.656,2.024,2.024,0,0,1-1.305-1.846,2.08,2.08,0,0,1,1.4-1.842,8.71,8.71,0,0,1,6.767-.02A2.066,2.066,0,0,1,109.807,267.259Zm-1.162,0q0-.6-1.037-1.019a6.618,6.618,0,0,0-2.5-.424,7.733,7.733,0,0,0-2.541.38q-1.089.38-1.089,1.049,0,.582,1.141,1.012a6.958,6.958,0,0,0,2.475.431,6.665,6.665,0,0,0,2.5-.424Q108.645,267.84,108.645,267.259Zm1.086-2.817h-1.059v-3.151H105.9V260.2h2.776v-3.179h1.059Z"/>
      <path d="M124.251,268.7H111.919v-1.107H117.5v-3.022h1.066v3.022h5.681Zm-10.726-4.457v-6.576h1.067v2.379h6.918v-2.379h1.066v6.576Zm1.067-3.076v1.962h6.918v-1.962Z"/>
    </g>
    <g>
      <path d="M90.565,124.994h-1.8V113.012h-.04l-4.121,11.982h-1.7l-4.1-12.178h-.059v12.178h-1.8V110.678h2.832l3.389,10.136c.377,1.127.6,1.832.654,2.12h.039q.264-.829.762-2.3l3.418-9.961h2.519Z"/>
      <path d="M102.431,120.258H94.667a4.028,4.028,0,0,0,.981,2.627,2.906,2.906,0,0,0,2.183.908,2.675,2.675,0,0,0,1.69-.532,3.3,3.3,0,0,0,1.044-1.607l1.807.225a4.425,4.425,0,0,1-1.611,2.49,4.781,4.781,0,0,1-2.93.869,4.7,4.7,0,0,1-3.647-1.43A5.561,5.561,0,0,1,92.87,119.9a5.985,5.985,0,0,1,1.275-3.974,4.417,4.417,0,0,1,3.588-1.524,5.034,5.034,0,0,1,2.183.5,4.254,4.254,0,0,1,1.782,1.695A7.185,7.185,0,0,1,102.431,120.258Zm-1.807-1.445a3.034,3.034,0,0,0-.981-2.281,2.993,2.993,0,0,0-1.91-.7,2.716,2.716,0,0,0-2.041.83,3.469,3.469,0,0,0-.927,2.149Z"/>
    </g>
    <g>
      <path d="M89.679,228.333c-3.154-14.56-5.367-14.594-6.7-26.132" fill="none" stroke="#000" stroke-miterlimit="10"/>
      <polygon points="87.478 204.962 86.839 205.733 83.049 202.579 80.18 206.591 79.367 206.008 82.861 201.123 87.478 204.962"/>
    </g>
    <g>
      <path d="M85.562,149.274A16.925,16.925,0,1,1,68.637,166.2a16.943,16.943,0,0,1,16.925-16.925m0-2.8A19.725,19.725,0,1,0,105.286,166.2a19.725,19.725,0,0,0-19.724-19.725Z" fill="#5b5d5e"/>
      <path d="M90.432,165.271a6.664,6.664,0,0,1,1.816,1.04,7.445,7.445,0,0,1,1.419,1.506,7.075,7.075,0,0,1,.937,1.874,6.822,6.822,0,0,1,.337,2.137v4.1A1.15,1.15,0,0,1,93.77,177.1H77.375a1.148,1.148,0,0,1-1.17-1.171v-4.1a6.792,6.792,0,0,1,.336-2.137,7.045,7.045,0,0,1,.937-1.874,7.368,7.368,0,0,1,1.42-1.506,6.644,6.644,0,0,1,1.815-1.04,7.923,7.923,0,0,0,2.268,1.17,8.186,8.186,0,0,0,2.592.411A8.043,8.043,0,0,0,90.432,165.271Zm1.288-6.617a5.973,5.973,0,0,1-.483,2.386,6.161,6.161,0,0,1-3.264,3.279,6.158,6.158,0,0,1-4.786,0,6.122,6.122,0,0,1-3.279-3.279,6.169,6.169,0,0,1,0-4.786,6.167,6.167,0,0,1,3.279-3.265,6.181,6.181,0,0,1,4.786,0,6.208,6.208,0,0,1,3.264,3.265A5.946,5.946,0,0,1,91.72,158.654Z" fill="#5b5d5e"/>
    </g>
  </g>
  <g>
    <g>
      <path d="M171.091,246.905h5.516l-.013,1.074H164.809v-1.074h5.222v-1.668h1.06Zm4.115-5.756a20.614,20.614,0,0,1-.67,5.319q-.157-.007-.591-.075a5.878,5.878,0,0,0-.612-.076,17.839,17.839,0,0,0,.39-1.934q-5.189.39-7.417.492l-.253-1.278q4.6,0,7.786-.137a7.057,7.057,0,0,0,.055-1.189H166.36v-1.122Zm0,11.492h-8.873v-4.266h1.094v3.158h7.779Z"/>
      <path d="M185.891,247.35a52.545,52.545,0,0,1-6.577.266v-6.494h5.708v1.087h-4.593v1.47h4.3v1.107h-4.3v1.723q3.5-.055,5.462-.239Zm4.511,5.291h-9.3v-4.266h1.087v3.158h8.21Zm-3.254-3.753v-3.705h-1.873V244.1h1.873v-3.671h1.081v8.456Zm2.188.772V240.2H190.4v9.461Z"/>
      <path d="M204.9,251.342H192.5v-1.108h12.4Zm-.963-3.22a3.255,3.255,0,0,0-.923,1.06,12.131,12.131,0,0,1-4.327-4.013,11.425,11.425,0,0,1-4.649,4.04,3,3,0,0,0-.8-.937,8.376,8.376,0,0,0,2.543-1.542,7.1,7.1,0,0,0,1.743-2.053h-3.807v-1.108h10.008v1.108h-3.89A8.208,8.208,0,0,0,203.938,248.122Zm-2.981-5.558H196.5v-1.093h4.457Z"/>
      <path d="M217.22,247.2a9.5,9.5,0,0,1-2.912-2.946,9.475,9.475,0,0,1-2.7,3.1,2.833,2.833,0,0,0-.963-.8,8.42,8.42,0,0,0,2.208-2.075,5.188,5.188,0,0,0,.936-3.633c.469.077.937.132,1.4.164a4.557,4.557,0,0,0-.307,1.88,3.69,3.69,0,0,0,.967,1.558,7.176,7.176,0,0,0,2.225,1.812A1.934,1.934,0,0,0,217.22,247.2Zm5.127,3.261a2.014,2.014,0,0,1-1.316,1.835,7.67,7.67,0,0,1-3.4.653,7.791,7.791,0,0,1-3.473-.656,2.025,2.025,0,0,1-1.305-1.846,2.082,2.082,0,0,1,1.4-1.842,8.719,8.719,0,0,1,6.768-.021A2.066,2.066,0,0,1,222.347,250.46Zm-1.162,0q0-.6-1.036-1.019a6.605,6.605,0,0,0-2.5-.423,7.751,7.751,0,0,0-2.54.378q-1.09.38-1.09,1.05,0,.581,1.141,1.012a6.962,6.962,0,0,0,2.475.431,6.685,6.685,0,0,0,2.5-.424Q221.185,251.04,221.185,250.46Zm1.086-2.816h-1.059v-3.022h-1.736v2.885h-1.067V240.63h1.067v2.912h1.736v-3.329h1.059Z"/>
      <path d="M231.233,247.377a12.712,12.712,0,0,1-2.857-2.981,12.5,12.5,0,0,1-2.7,3.1,3.9,3.9,0,0,0-.95-.786q3.163-2.216,3.165-5.195a4.409,4.409,0,0,0-.028-.533,13.273,13.273,0,0,0,1.4.17,4.412,4.412,0,0,0-.321,1.873,4.352,4.352,0,0,0,.97,1.463,9.486,9.486,0,0,0,2.379,2.051A2.212,2.212,0,0,0,231.233,247.377Zm5.114,3.083a2.014,2.014,0,0,1-1.316,1.835,7.67,7.67,0,0,1-3.4.653,7.791,7.791,0,0,1-3.473-.656,2.025,2.025,0,0,1-1.305-1.846,2.082,2.082,0,0,1,1.4-1.842,8.719,8.719,0,0,1,6.768-.021A2.066,2.066,0,0,1,236.347,250.46Zm-1.162,0q0-.6-1.036-1.019a6.605,6.605,0,0,0-2.5-.423,7.751,7.751,0,0,0-2.54.378q-1.09.38-1.09,1.05,0,.581,1.141,1.012a6.962,6.962,0,0,0,2.475.431,6.685,6.685,0,0,0,2.5-.424Q235.185,251.04,235.185,250.46Zm1.086-2.816h-1.059v-3.22h-3.459V243.33h3.459v-3.1h1.059Z"/>
      <path d="M188.088,257.949v5.667h-6.241v-5.667Zm.041,9.195a5.109,5.109,0,0,0,2.01,1.107,8.847,8.847,0,0,0,2.611.533,2.538,2.538,0,0,0-.717.978,9.717,9.717,0,0,1-4.5-1.723,9.737,9.737,0,0,1-4.608,1.736,2.358,2.358,0,0,0-.574-.95,7.494,7.494,0,0,0,4.567-1.681h-4.075v-.951h9.434v.951Zm-5.222-8.074V262.5h4.115V259.07Zm6.733,6.618h-4.156v-.964h4.156Zm1.668-1.245v-7.43h1.039v7.43Z"/>
      <path d="M210.428,265.339h-5.373v4.354h-1.066v-4.354h-5.346v-1.08h11.772Zm-.882-2.8a7.279,7.279,0,0,0-.683,1.128,10.776,10.776,0,0,1-4.314-2.94,9.285,9.285,0,0,1-4.716,3,2.741,2.741,0,0,0-.561-1.08,7.576,7.576,0,0,0,4.088-2.42h-3.685V259.18h9.789v1.052h-3.712A7.894,7.894,0,0,0,209.546,262.543Zm-2.727-4.149h-4.485V257.32h4.485Z"/>
      <path d="M213.648,268.012a3.656,3.656,0,0,0-.738-.9,7.964,7.964,0,0,0,3.38-2.95,9.741,9.741,0,0,0,1.562-4.2H213.19v-1.121h5.893a11.93,11.93,0,0,1-1.614,5.434A9.858,9.858,0,0,1,213.648,268.012Zm10.992-4.074h-2.228v5.824h-1.06V257.013h1.06v5.851h2.228Z"/>
    </g>
    <g>
      <path d="M192.559,120.053h-7.676v6.22h-1.524v-6.22h-7.636V118.51h16.816Zm-1.26-3.994a10.391,10.391,0,0,0-.977,1.611,15.383,15.383,0,0,1-6.162-4.2,13.262,13.262,0,0,1-6.738,4.287,3.9,3.9,0,0,0-.8-1.543,10.838,10.838,0,0,0,5.84-3.457H177.2v-1.5h13.985v1.5h-5.3A11.272,11.272,0,0,0,191.3,116.059Zm-3.9-5.928H181V108.6H187.4Z"/>
      <path d="M197.158,123.871a5.237,5.237,0,0,0-1.054-1.279,11.389,11.389,0,0,0,4.829-4.214,13.939,13.939,0,0,0,2.231-6H196.5v-1.6h8.418a17.043,17.043,0,0,1-2.305,7.764A14.064,14.064,0,0,1,197.158,123.871Zm15.7-5.82h-3.183v8.32h-1.514V108.158h1.514v8.36h3.183Z"/>
    </g>
    <polygon points="211 171 196 171 196 186 191 186 191 171 177 171 177 166 191 166 191 151 196 151 196 166 211 166 211 171" fill="#5b5d5e"/>
  </g>
  <g>
    <g>
      <path d="M293.57,246.905h5.517l-.014,1.074H287.288v-1.074h5.223v-1.668h1.059Zm4.116-5.756a20.652,20.652,0,0,1-.67,5.319q-.158-.007-.591-.075c-.29-.045-.493-.071-.612-.076a17.459,17.459,0,0,0,.389-1.934q-5.188.39-7.417.492l-.253-1.278q4.6,0,7.786-.137a6.942,6.942,0,0,0,.055-1.189H288.84v-1.122Zm0,11.492h-8.873v-4.266h1.093v3.158h7.78Z"/>
      <path d="M308.37,247.35a52.329,52.329,0,0,1-6.576.266v-6.494H307.5v1.087h-4.594v1.47h4.3v1.107h-4.3v1.723q3.5-.054,5.462-.239Zm4.512,5.291h-9.3v-4.266h1.087v3.158h8.21Zm-3.254-3.753v-3.705h-1.873V244.1h1.873v-3.671h1.08v8.456Zm2.187.772V240.2h1.067v9.461Z"/>
      <path d="M327.381,251.342h-12.4v-1.108h12.4Zm-.964-3.22a3.288,3.288,0,0,0-.923,1.06,12.148,12.148,0,0,1-4.327-4.013,11.416,11.416,0,0,1-4.648,4.04,3.009,3.009,0,0,0-.8-.937,8.348,8.348,0,0,0,2.543-1.542,7.117,7.117,0,0,0,1.743-2.053H316.2v-1.108h10.008v1.108h-3.89A8.212,8.212,0,0,0,326.417,248.122Zm-2.98-5.558h-4.458v-1.093h4.458Z"/>
      <path d="M339.323,246.064h5.64v1.074H333.178v-1.074h5.065v-2.385h1.08Zm4.491,4.4A2.013,2.013,0,0,1,342.5,252.3a7.663,7.663,0,0,1-3.4.653,7.763,7.763,0,0,1-3.469-.656,2.026,2.026,0,0,1-1.3-1.846,2.083,2.083,0,0,1,1.4-1.842,8.693,8.693,0,0,1,6.76-.02A2.063,2.063,0,0,1,343.814,250.46Zm-.239-9.242a33.66,33.66,0,0,1-.417,4.006l-1.107-.158a14.346,14.346,0,0,0,.348-2.727h-7.881v-1.121Zm-4.341,7.8a8.05,8.05,0,0,0-2.669.382q-1.075.384-1.077,1.046,0,.582,1.142,1.012a6.943,6.943,0,0,0,2.468.431,6.66,6.66,0,0,0,2.508-.424q1.047-.425,1.046-1.019t-1-1.008A6.229,6.229,0,0,0,339.234,249.018Z"/>
      <path d="M359.065,248.122h-3.281v4.772h-1.059v-4.772h-3.336v4.772h-1.06v-4.772h-3.267v-1.08h12Zm-1.374-4.525a2.292,2.292,0,0,1-1.322,1.907,6.187,6.187,0,0,1-3.3.813,6.363,6.363,0,0,1-3.332-.779,2.052,2.052,0,0,1,.065-3.835,7.018,7.018,0,0,1,6.535,0A2.273,2.273,0,0,1,357.691,243.6Zm-1.257,0q0-.684-.964-1.165a6.152,6.152,0,0,0-4.779,0q-.963.48-.963,1.165t.963,1.173a5.343,5.343,0,0,0,2.393.481,5.269,5.269,0,0,0,2.386-.485C356.112,244.441,356.434,244.053,356.434,243.6Z"/>
      <path d="M362.729,252a2.241,2.241,0,0,1-.331,1.326,1.83,1.83,0,0,1-.817.65l-.335-.52a1.417,1.417,0,0,0,.773-1.456h-.691v-1.4h1.4Z"/>
      <path d="M296.985,266.836a2.318,2.318,0,0,0-.977.827,9.084,9.084,0,0,1-1.716-1.893,14.926,14.926,0,0,1-1.408-2.277,11.942,11.942,0,0,1-2.871,4.3,2.929,2.929,0,0,0-.937-.827,8.824,8.824,0,0,0,2.5-3.336,9.4,9.4,0,0,0,.9-3.794h-2.83v-1.06h6.85v1.06h-2.871c-.024.31-.071.745-.144,1.306l-.109.765a7.463,7.463,0,0,0,1.107,2.122A10.328,10.328,0,0,0,296.985,266.836Zm2.776,2.939v-5.892h-2.789v-1.094h2.789v-5.763h1.066v12.749Z"/>
      <path d="M310.37,263.363a3.515,3.515,0,0,0-.991.868,9.2,9.2,0,0,1-2.673-2.85,12.352,12.352,0,0,1-2.468,3.008,6.64,6.64,0,0,0-.95-.868,6.389,6.389,0,0,0,2.885-4.423h-2.5v-1.135h6.453V259.1H307.39l-.11.793a3.67,3.67,0,0,0,.858,1.51A7.926,7.926,0,0,0,310.37,263.363Zm2.912,3.856a2.074,2.074,0,0,1-1.155,1.822,5.808,5.808,0,0,1-3.015.693,6.215,6.215,0,0,1-3.069-.656,2.032,2.032,0,0,1-1.162-1.846,2.143,2.143,0,0,1,1.189-1.814,5.616,5.616,0,0,1,3.042-.749,5.7,5.7,0,0,1,3,.711A2.106,2.106,0,0,1,313.282,267.219Zm-1.244.054a1.212,1.212,0,0,0-.807-1.059,4.648,4.648,0,0,0-2.105-.41,5.041,5.041,0,0,0-2.178.4,1.19,1.19,0,0,0-.816,1.046q0,.621.83,1.032a4.9,4.9,0,0,0,2.164.41,4.757,4.757,0,0,0,2.108-.4C311.771,268.021,312.038,267.684,312.038,267.273Zm3.192-6H313v3.165h-1.06v-7.43H313v3.192h2.228Z"/>
      <path d="M328.458,257.949v5.667h-6.241v-5.667Zm.041,9.195a5.109,5.109,0,0,0,2.01,1.107,8.777,8.777,0,0,0,2.611.533,2.541,2.541,0,0,0-.718.978,9.7,9.7,0,0,1-4.5-1.723,9.723,9.723,0,0,1-4.607,1.736,2.377,2.377,0,0,0-.574-.95,7.479,7.479,0,0,0,4.566-1.681h-4.074v-.951h9.434v.951Zm-5.223-8.074V262.5h4.116V259.07Zm6.734,6.618h-4.156v-.964h4.156Zm1.668-1.245v-7.43h1.039v7.43Z"/>
      <path d="M343.381,259.966H339.56v-1.121H344.6a10.952,10.952,0,0,1-4.553,8.634,2.944,2.944,0,0,0-.841-.793,7.53,7.53,0,0,0,2.833-2.813A9.88,9.88,0,0,0,343.381,259.966Zm3.555,8.873v-5.462h-2.509V262.3h2.509v-5.073h1.08v11.608Zm2.6.909V257h1.066v12.749Z"/>
      <path d="M361.045,267.1a11.28,11.28,0,0,1-3.357-4.423,12.5,12.5,0,0,1-3.554,4.846,3.185,3.185,0,0,0-.971-.929,7.913,7.913,0,0,0,2.871-3.186,8.332,8.332,0,0,0,1.1-3.787,11.144,11.144,0,0,0-.089-1.757l1.593.151a4.417,4.417,0,0,0-.356,1.062,13.016,13.016,0,0,0-.089,1.9,3.725,3.725,0,0,0,.4,1.022,12.706,12.706,0,0,0,.759,1.389,10.425,10.425,0,0,0,.786,1.069,9.492,9.492,0,0,0,.9.936,8.146,8.146,0,0,0,.982.766A2.778,2.778,0,0,0,361.045,267.1Zm3.561,2.659H363.54V257.013h1.066Z"/>
    </g>
    <g>
      <path d="M315.005,116.518h8.057v1.533H306.226v-1.533h7.236v-3.409h1.543Zm6.416,6.279a2.877,2.877,0,0,1-1.875,2.622,10.938,10.938,0,0,1-4.863.933,11.081,11.081,0,0,1-4.956-.938,2.891,2.891,0,0,1-1.861-2.637,2.975,2.975,0,0,1,2-2.631,12.422,12.422,0,0,1,9.658-.03A2.952,2.952,0,0,1,321.421,122.8Zm-.342-13.2a48.02,48.02,0,0,1-.6,5.722l-1.582-.224a20.469,20.469,0,0,0,.5-3.9H308.14v-1.6Zm-6.2,11.142a11.481,11.481,0,0,0-3.814.547q-1.538.547-1.538,1.494,0,.829,1.631,1.446a9.913,9.913,0,0,0,3.526.615,9.506,9.506,0,0,0,3.584-.606q1.494-.606,1.494-1.455t-1.426-1.44A8.9,8.9,0,0,0,314.878,120.736Z"/>
      <path d="M343.208,119.457h-4.687v6.816h-1.514v-6.816h-4.766v6.816h-1.513v-6.816H326.06v-1.543h17.148Zm-1.963-6.465a3.278,3.278,0,0,1-1.89,2.725,8.84,8.84,0,0,1-4.711,1.162,9.1,9.1,0,0,1-4.761-1.113,2.932,2.932,0,0,1,.093-5.479,10.034,10.034,0,0,1,9.336,0A3.248,3.248,0,0,1,341.245,112.992Zm-1.8,0q0-.975-1.377-1.665a8.81,8.81,0,0,0-6.826,0q-1.377.689-1.377,1.665t1.377,1.675a7.6,7.6,0,0,0,3.418.688,7.518,7.518,0,0,0,3.408-.693Q339.448,113.968,339.448,112.992Z"/>
    </g>
    <g>
      <path d="M326.858,228.333c.231-3.425.941-16.878-1.071-25.614" fill="none" stroke="#000" stroke-miterlimit="10"/>
      <polygon points="330.429 205.133 329.852 205.951 325.827 203.104 323.281 207.327 322.424 206.809 325.526 201.666 330.429 205.133"/>
    </g>
    <g>
      <path d="M203.858,228.333c.231-3.425.941-16.878-1.071-25.614" fill="none" stroke="#000" stroke-miterlimit="10"/>
      <polygon points="207.429 205.133 206.852 205.951 202.827 203.104 200.281 207.327 199.424 206.809 202.526 201.666 207.429 205.133"/>
    </g>
    <path d="M344.186,162.961l-17.828,17.668V169.543a26.638,26.638,0,0,0-6.719,1.715,25.022,25.022,0,0,0-5.763,3.23,23.587,23.587,0,0,0-4.526,4.465,20.584,20.584,0,0,0-3.012,5.424,18.8,18.8,0,0,1-1.236-6.7,19.24,19.24,0,0,1,1.615-7.8,21.444,21.444,0,0,1,4.467-6.561,24.9,24.9,0,0,1,6.74-4.785,26.22,26.22,0,0,1,8.434-2.472V145.295Zm-14.637-4.027-2.791.318a23.2,23.2,0,0,0-6.461,1.717,21.721,21.721,0,0,0-5.5,3.369,19.227,19.227,0,0,0-4.068,4.746,16.827,16.827,0,0,0-2.194,5.883,26.728,26.728,0,0,1,7.717-5.725,30.386,30.386,0,0,1,9.711-2.89l3.59-.44v7.061l10.09-10.012-10.09-10.01Z" fill="#5b5d5e"/>
  </g>
  <g>
    <g>
      <path d="M430.222,250.637a10.932,10.932,0,0,1-3.138-4.409,12.577,12.577,0,0,1-3.343,4.846,2.842,2.842,0,0,0-.957-1.011,7.648,7.648,0,0,0,2.694-3.182,8.862,8.862,0,0,0,1.039-3.825l-.035-1.108a3.6,3.6,0,0,0-.054-.731l1.593.171a6.883,6.883,0,0,0-.445,3.008,4.394,4.394,0,0,0,.488,1.3,13.355,13.355,0,0,0,.955,1.7,10.023,10.023,0,0,0,1,1.247,7.826,7.826,0,0,0,1.125.991A2.337,2.337,0,0,0,430.222,250.637Zm5-3.5H432.99v5.824h-1.059V240.212h1.059v5.851h2.229Z"/>
      <path d="M449.021,246.132l-.014,1.08H437.222v-1.08h3.486v-1.176q-2.2-.628-2.2-1.989,0-.929,1.35-1.607a8.218,8.218,0,0,1,6.528,0q1.35.678,1.35,1.607,0,1.285-2.2,1.962v1.2Zm-1.163,4.327a2.014,2.014,0,0,1-1.312,1.836,7.677,7.677,0,0,1-3.4.652,7.757,7.757,0,0,1-3.47-.656,2.026,2.026,0,0,1-1.3-1.846,2.082,2.082,0,0,1,1.4-1.841,8.69,8.69,0,0,1,6.761-.021A2.065,2.065,0,0,1,447.858,250.459Zm-4.58-1.442a8.072,8.072,0,0,0-2.669.382q-1.077.384-1.077,1.046,0,.582,1.142,1.012a6.943,6.943,0,0,0,2.468.431,6.66,6.66,0,0,0,2.508-.424q1.047-.423,1.046-1.019t-1-1.007A6.209,6.209,0,0,0,443.278,249.017Zm-.15-4.82a6.691,6.691,0,0,0,2.362-.358q.939-.358.94-.872,0-.5-.94-.858a7.937,7.937,0,0,0-4.72,0q-.943.36-.944.858t.94.872A6.691,6.691,0,0,0,443.128,244.2Zm1.347,1.935v-.964a8.8,8.8,0,0,1-1.361.1,10.235,10.235,0,0,1-1.333-.082v.95Z"/>
      <path d="M459.049,250.035a2.317,2.317,0,0,0-.985.827,9.287,9.287,0,0,1-1.712-1.893,14.563,14.563,0,0,1-1.4-2.277,11.934,11.934,0,0,1-2.871,4.3,2.926,2.926,0,0,0-.936-.827,8.854,8.854,0,0,0,2.5-3.336,9.432,9.432,0,0,0,.9-3.794h-2.83v-1.059h6.85v1.059h-2.871c-.024.311-.071.745-.144,1.306l-.109.765a7.435,7.435,0,0,0,1.107,2.123A10.259,10.259,0,0,0,459.049,250.035Zm4.17-2.9H460.99v5.824h-1.059V240.212h1.059v5.851h2.229Z"/>
      <path d="M477.342,249.7a3.279,3.279,0,0,0-1.019,1.094,16.018,16.018,0,0,1-3.055-3.753,10.315,10.315,0,0,1-2.742,3.849,3.447,3.447,0,0,0-.9-.964,7.359,7.359,0,0,0,2.307-2.953,8.935,8.935,0,0,0,.81-3.658h-2.837v-1.121h7.041v1.121H474.04a10.669,10.669,0,0,1-.267,2.1,11.609,11.609,0,0,0,1.618,2.506A7.76,7.76,0,0,0,477.342,249.7Zm3.363,3.261h-1.066V240.212h1.066Z"/>
      <path d="M491.834,245.961l-3.855.615V249h-1.1v-2.311l-3.514.308-.294-1.094a86.375,86.375,0,0,0,8.764-.868Zm-1.176-2.967a1.742,1.742,0,0,1-.868,1.46,4.027,4.027,0,0,1-2.324.6,4.279,4.279,0,0,1-2.324-.554,1.737,1.737,0,0,1,.051-3.038,4.185,4.185,0,0,1,2.273-.578,3.941,3.941,0,0,1,2.331.615A1.8,1.8,0,0,1,490.658,242.994Zm-1.107-.041a.884.884,0,0,0-.578-.786,4.089,4.089,0,0,0-3.045,0,.822.822,0,0,0,0,1.572,4.089,4.089,0,0,0,3.045,0A.883.883,0,0,0,489.551,242.953Zm5.154,9.687h-9.3v-4.266H486.5v3.158h8.21Zm0-2.953h-1.066V247.67h-2.83v-1.019h2.83v-6.425h1.066Z"/>
      <path d="M508.336,241.148v5.667H502.1v-5.667Zm.041,9.195a5.084,5.084,0,0,0,2.01,1.107,8.783,8.783,0,0,0,2.611.533,2.549,2.549,0,0,0-.718.978,9.684,9.684,0,0,1-4.5-1.723,9.7,9.7,0,0,1-4.607,1.737,2.378,2.378,0,0,0-.574-.951,7.479,7.479,0,0,0,4.566-1.681h-4.074v-.95h9.434v.95Zm-5.223-8.073v3.424h4.116V242.27Zm6.734,6.617h-4.157v-.964h4.157Zm1.668-1.244v-7.431H512.6v7.431Z"/>
      <path d="M427.111,267.437a10.925,10.925,0,0,1-3.137-4.41,12.6,12.6,0,0,1-3.343,4.847,2.873,2.873,0,0,0-.957-1.012,7.637,7.637,0,0,0,2.693-3.181,8.835,8.835,0,0,0,1.039-3.826l-.034-1.107a3.585,3.585,0,0,0-.055-.731l1.593.171a6.869,6.869,0,0,0-.444,3.007,4.37,4.37,0,0,0,.489,1.3,13.039,13.039,0,0,0,.953,1.695,10.139,10.139,0,0,0,1,1.247,8,8,0,0,0,1.124.992A2.343,2.343,0,0,0,427.111,267.437Zm5-3.5H429.88v5.824h-1.06V257.012h1.06v5.851h2.228Z"/>
      <path d="M445.91,262.932l-.014,1.08H434.111v-1.08H437.6v-1.176q-2.2-.628-2.2-1.989,0-.93,1.35-1.607a8.209,8.209,0,0,1,6.529,0q1.35.676,1.35,1.607,0,1.286-2.2,1.962v1.2Zm-1.162,4.327a2.014,2.014,0,0,1-1.312,1.836,9.355,9.355,0,0,1-6.873,0,2.023,2.023,0,0,1-1.3-1.846,2.081,2.081,0,0,1,1.4-1.842,8.7,8.7,0,0,1,6.761-.02A2.063,2.063,0,0,1,444.748,267.259Zm-4.58-1.443a8.05,8.05,0,0,0-2.67.383q-1.075.384-1.076,1.046,0,.582,1.141,1.012a6.935,6.935,0,0,0,2.468.431,6.665,6.665,0,0,0,2.509-.424q1.046-.425,1.046-1.019t-1-1.008A6.238,6.238,0,0,0,440.168,265.816Zm-.15-4.819a6.685,6.685,0,0,0,2.361-.358q.94-.36.94-.872c0-.332-.313-.619-.94-.858a7.937,7.937,0,0,0-4.72,0q-.944.359-.943.858t.94.872A6.687,6.687,0,0,0,440.018,261Zm1.346,1.935v-.964a8.766,8.766,0,0,1-1.36.095,10.052,10.052,0,0,1-1.333-.082v.951Z"/>
      <path d="M455.938,266.835a2.326,2.326,0,0,0-.984.827,9.256,9.256,0,0,1-1.712-1.893,14.412,14.412,0,0,1-1.405-2.277,11.908,11.908,0,0,1-2.871,4.3,2.919,2.919,0,0,0-.937-.827,8.829,8.829,0,0,0,2.5-3.336,9.407,9.407,0,0,0,.9-3.794H448.6v-1.06h6.849v1.06h-2.871c-.022.311-.071.745-.143,1.306l-.11.765a7.449,7.449,0,0,0,1.108,2.123A10.256,10.256,0,0,0,455.938,266.835Zm4.17-2.9H457.88v5.824h-1.06V257.012h1.06v5.851h2.228Z"/>
      <path d="M473.336,258.714a11.034,11.034,0,0,1-6.228,8.811c-.446-.5-.7-.776-.758-.827a9.964,9.964,0,0,0,4.73-4.313l-4.368.642-.294-1.162,5.045-.417a7.73,7.73,0,0,0,.458-1.64h-5.093v-1.094Zm3.192,11.06V263.95h-3.486v-1.087h3.486v-5.838H477.6v12.749Z"/>
      <path d="M491.889,264.429h-3.282v5.263h-1.059v-5.263h-3.336v5.263h-1.06v-5.263h-3.267v-1.08h12Zm-1.47-2.283h-9.051V257.6h9.051Zm-7.984-3.432v2.31h6.918v-2.31Z"/>
      <path d="M494.828,259.165H495.9l.028,7.294a45.688,45.688,0,0,0,7.786-1.08v1.135a55.054,55.054,0,0,1-8.887,1.148Zm10.767,10.6h-1.067V257.012H505.6Z"/>
      <path d="M516.553,266.151q-1.662.3-4.16.5t-3.749.208v-8.244h7.321v1.094h-6.2v2.167h5.906v1.107h-5.906v2.7a48.033,48.033,0,0,0,6.788-.6Zm3.042,3.61h-1.067V257.012H519.6Z"/>
    </g>
    <g>
      <path d="M454.5,118.715v4.961h8.115v1.582H445v-1.582h7.979v-4.961Zm5.576-7.344h-11.24v5.459h11.445v1.582H447.255v-8.594h12.822Z"/>
      <path d="M482.177,117.65h-7.656v1.407H473V117.65h-7.656v-1.533h16.836Zm-1.817-5.556q0,1.328-1.889,2.3a10.2,10.2,0,0,1-4.712.977,10.474,10.474,0,0,1-4.751-.933q-1.832-.933-1.831-2.348,0-1.327,1.928-2.295a11.729,11.729,0,0,1,9.327,0Q480.361,110.765,480.36,112.094Zm-1.66,14.121v-.684h-9.883v.7h-1.523V119.35h12.93v6.865Zm0-5.3h-9.883V124H478.7Zm-.2-8.818q0-.712-1.343-1.226a11.335,11.335,0,0,0-6.743,0q-1.347.513-1.347,1.226,0,.732,1.342,1.245a11.352,11.352,0,0,0,6.748,0Q478.5,112.826,478.5,112.094Z"/>
      <path d="M494.618,109.691V117.8H486.2v-8.106Zm-6.894,1.6v4.9H493.1v-4.9Zm11.552,8.057v4h-9.8v1.318h10.1v1.562H487.958v-4.4h9.766v-.918h-9.805V119.35Zm3.2-5.1H499.3v4.521h-1.514V108.158H499.3v4.561h3.183Z"/>
    </g>
    <g>
      <path d="M467.586,228.333c-.231-3.438.874-18.388,5.018-27.361" fill="none" stroke="#000" stroke-miterlimit="10"/>
      <polygon points="475.088 205.658 474.145 205.993 472.497 201.346 467.982 203.329 467.58 202.413 473.08 199.998 475.088 205.658"/>
    </g>
    <path d="M473.758,145.295a18.982,18.982,0,0,1,7.617,1.535,19.666,19.666,0,0,1,10.39,10.389,19.666,19.666,0,0,1,0,15.234,19.666,19.666,0,0,1-10.39,10.389,19.666,19.666,0,0,1-15.234,0,19.659,19.659,0,0,1-10.389-10.389,19.666,19.666,0,0,1,0-15.234,19.659,19.659,0,0,1,10.389-10.389A18.992,18.992,0,0,1,473.758,145.295Zm0,35.893a15.893,15.893,0,0,0,6.381-1.3,16.631,16.631,0,0,0,5.2-3.51,16.414,16.414,0,0,0,3.489-5.184,16.425,16.425,0,0,0-.02-12.742,16.657,16.657,0,0,0-3.509-5.205,16.427,16.427,0,0,0-5.185-3.488,16.407,16.407,0,0,0-12.742.019,16.615,16.615,0,0,0-5.2,3.51,16.381,16.381,0,0,0-3.489,5.184,16.419,16.419,0,0,0,.019,12.742,16.625,16.625,0,0,0,3.51,5.2,16.4,16.4,0,0,0,5.184,3.488A15.923,15.923,0,0,0,473.758,181.188Zm-.119-29.711a12.393,12.393,0,0,1,4.626.757,8.708,8.708,0,0,1,2.991,1.895,6.857,6.857,0,0,1,1.6,2.451,7.2,7.2,0,0,1,.478,2.434,9.418,9.418,0,0,1-.279,2.453,7.44,7.44,0,0,1-.738,1.795,6.32,6.32,0,0,1-1.038,1.336,13.3,13.3,0,0,1-1.215,1.037q-.639.477-1.257.877a8.289,8.289,0,0,0-1.137.877,5.259,5.259,0,0,0-.9,1.076,3.626,3.626,0,0,0-.5,1.476h-5.3a8.248,8.248,0,0,1,.418-2.234,7.583,7.583,0,0,1,.818-1.674,8.3,8.3,0,0,1,1.037-1.277,10.129,10.129,0,0,1,1.156-1l.24-.2q.516-.44,1-.838a5.741,5.741,0,0,0,.838-.858,3.6,3.6,0,0,0,.557-1.017,3.909,3.909,0,0,0,.2-1.317,3.493,3.493,0,0,0-.878-2.631,3.382,3.382,0,0,0-2.433-.837,3.8,3.8,0,0,0-1.8.4,3.641,3.641,0,0,0-1.256,1.076,4.644,4.644,0,0,0-.738,1.6,7.751,7.751,0,0,0-.239,1.955h-5.7a11.233,11.233,0,0,1,.716-3.869,8.923,8.923,0,0,1,1.914-3.031,8.806,8.806,0,0,1,2.952-1.995A9.945,9.945,0,0,1,473.639,151.477Zm-2.672,21.455h5.3V178.2h-5.3Z" fill="#5b5d5e"/>
  </g>
</svg>
