<svg xmlns="http://www.w3.org/2000/svg" viewBox="0 0 560 380">
  <g>
    <g>
      <path d="M20.322,250l-3.883-10.021h1.436l2.6,7.28q.315.876.527,1.64.231-.819.54-1.64l2.707-7.28h1.353L21.683,250Z"/>
      <path d="M25.727,247.83l1.216-.191a1.7,1.7,0,0,0,.571,1.121,1.988,1.988,0,0,0,1.309.389,1.928,1.928,0,0,0,1.258-.344,1.035,1.035,0,0,0,.41-.811.747.747,0,0,0-.362-.656,5.364,5.364,0,0,0-1.258-.417,11.6,11.6,0,0,1-1.877-.591,1.787,1.787,0,0,1-1.062-1.665,1.867,1.867,0,0,1,.222-.9,1.991,1.991,0,0,1,.605-.688,2.516,2.516,0,0,1,.782-.358,3.7,3.7,0,0,1,1.063-.148,4.206,4.206,0,0,1,1.5.246,2.047,2.047,0,0,1,.954.667,2.62,2.62,0,0,1,.423,1.124l-1.2.164a1.319,1.319,0,0,0-.474-.875,1.746,1.746,0,0,0-1.112-.314,2.021,2.021,0,0,0-1.21.28.819.819,0,0,0-.362.656.683.683,0,0,0,.15.431,1.074,1.074,0,0,0,.472.328q.185.069,1.087.315a15.033,15.033,0,0,1,1.822.571,1.838,1.838,0,0,1,.81.646,1.8,1.8,0,0,1,.294,1.052,2.054,2.054,0,0,1-.36,1.159,2.3,2.3,0,0,1-1.035.841,3.754,3.754,0,0,1-1.531.3,3.4,3.4,0,0,1-2.156-.588A2.724,2.724,0,0,1,25.727,247.83Zm3.035-6.747.752-1.162h1.394l-1.538,1.914H28.058l-1.477-1.914h1.408Z"/>
      <path d="M37.769,247.659l1.271.157a3.092,3.092,0,0,1-1.114,1.73,3.777,3.777,0,0,1-4.6-.365,3.832,3.832,0,0,1-.933-2.752,4.013,4.013,0,0,1,.943-2.844,3.2,3.2,0,0,1,2.447-1.012,3.106,3.106,0,0,1,2.379.991,3.943,3.943,0,0,1,.923,2.79c0,.073,0,.182-.007.328H33.66a2.791,2.791,0,0,0,.677,1.832,2.011,2.011,0,0,0,1.517.635,1.883,1.883,0,0,0,1.156-.355A2.362,2.362,0,0,0,37.769,247.659Zm-4.04-1.989h4.053a2.459,2.459,0,0,0-.465-1.374,1.883,1.883,0,0,0-1.524-.711,1.96,1.96,0,0,0-1.426.567A2.249,2.249,0,0,0,33.729,245.67Z"/>
      <path d="M44.9,247.338l1.21.157a3.141,3.141,0,0,1-1.014,1.959,2.958,2.958,0,0,1-2.007.707,3.119,3.119,0,0,1-2.4-.973,3.954,3.954,0,0,1-.906-2.793,5.051,5.051,0,0,1,.39-2.058,2.711,2.711,0,0,1,1.186-1.322,3.518,3.518,0,0,1,1.733-.442,3,3,0,0,1,1.934.6,2.741,2.741,0,0,1,.964,1.7l-1.2.185a1.989,1.989,0,0,0-.6-1.1,1.566,1.566,0,0,0-1.049-.369,1.908,1.908,0,0,0-1.511.667,3.164,3.164,0,0,0-.581,2.108,3.266,3.266,0,0,0,.56,2.126,1.823,1.823,0,0,0,1.463.663,1.72,1.72,0,0,0,1.21-.444A2.2,2.2,0,0,0,44.9,247.338Z"/>
      <path d="M46.744,250V239.976h1.231v3.595a2.748,2.748,0,0,1,2.173-1,2.935,2.935,0,0,1,1.4.319,1.865,1.865,0,0,1,.85.878,4.045,4.045,0,0,1,.257,1.626V250h-1.23v-4.6a1.9,1.9,0,0,0-.4-1.342,1.482,1.482,0,0,0-1.131-.421,2,2,0,0,0-1.029.284,1.593,1.593,0,0,0-.687.769,3.526,3.526,0,0,0-.2,1.339V250Z"/>
      <path d="M54.111,250v-7.26h1.108v1.033a2.609,2.609,0,0,1,2.31-1.2,3.011,3.011,0,0,1,1.206.237,1.9,1.9,0,0,1,.824.618,2.368,2.368,0,0,1,.382.909,6.984,6.984,0,0,1,.069,1.2V250H58.779v-4.416a3.336,3.336,0,0,0-.142-1.124,1.182,1.182,0,0,0-.51-.595,1.618,1.618,0,0,0-.857-.222,2,2,0,0,0-1.358.5,2.46,2.46,0,0,0-.57,1.893V250Z"/>
      <path d="M61.422,252.793l-.137-1.155a2.746,2.746,0,0,0,.705.109,1.339,1.339,0,0,0,.656-.137,1.1,1.1,0,0,0,.4-.382,6.059,6.059,0,0,0,.377-.916c.022-.069.058-.168.109-.3l-2.756-7.274h1.326l1.512,4.2q.294.8.526,1.682a16.84,16.84,0,0,1,.5-1.654l1.553-4.232h1.231L64.67,250.12a14.624,14.624,0,0,1-.691,1.648,2.424,2.424,0,0,1-.752.892,1.779,1.779,0,0,1-1.012.283A2.449,2.449,0,0,1,61.422,252.793Z"/>
      <path d="M71.533,241.391v-1.415h1.231v1.415Zm0,8.606v-7.26h1.231V250Z"/>
      <path d="M74.217,250v-7.26h1.107v1.033a2.612,2.612,0,0,1,2.311-1.2,3.023,3.023,0,0,1,1.207.237,1.9,1.9,0,0,1,.824.618,2.385,2.385,0,0,1,.383.909,7.121,7.121,0,0,1,.068,1.2V250h-1.23v-4.416a3.3,3.3,0,0,0-.145-1.124,1.18,1.18,0,0,0-.509-.595,1.619,1.619,0,0,0-.858-.222,1.994,1.994,0,0,0-1.356.5,2.464,2.464,0,0,0-.572,1.893V250Z"/>
      <path d="M81.877,250v-6.3H80.79v-.957h1.087v-.772a3.373,3.373,0,0,1,.13-1.087,1.57,1.57,0,0,1,.626-.775,2.247,2.247,0,0,1,1.254-.3,6.038,6.038,0,0,1,1.148.123L84.851,241a4.184,4.184,0,0,0-.725-.068,1.08,1.08,0,0,0-.793.239,1.3,1.3,0,0,0-.232.9v.67h1.415v.957H83.1V250Z"/>
      <path d="M84.6,246.367a3.743,3.743,0,0,1,1.121-2.987A3.382,3.382,0,0,1,88,242.573a3.253,3.253,0,0,1,2.447.982,3.727,3.727,0,0,1,.95,2.71,4.825,4.825,0,0,1-.419,2.205,2.986,2.986,0,0,1-1.225,1.247,3.55,3.55,0,0,1-1.753.444,3.259,3.259,0,0,1-2.464-.977A3.9,3.9,0,0,1,84.6,246.367Zm1.264,0a3.1,3.1,0,0,0,.609,2.089,2.026,2.026,0,0,0,3.055,0,3.157,3.157,0,0,0,.609-2.126,3,3,0,0,0-.612-2.04,2.029,2.029,0,0,0-3.052,0A3.084,3.084,0,0,0,85.859,246.367Z"/>
      <path d="M92.405,250v-7.26h1.108v1.1a3.014,3.014,0,0,1,.782-1.019,1.37,1.37,0,0,1,.79-.246,2.4,2.4,0,0,1,1.265.4l-.424,1.141a1.769,1.769,0,0,0-.9-.266,1.17,1.17,0,0,0-.724.243,1.305,1.305,0,0,0-.458.673,4.78,4.78,0,0,0-.2,1.435V250Z"/>
      <path d="M96.661,250v-7.26h1.1v1.019a2.559,2.559,0,0,1,2.2-1.183,2.4,2.4,0,0,1,1.322.335,1.792,1.792,0,0,1,.729.937,2.606,2.606,0,0,1,2.242-1.272,2.2,2.2,0,0,1,1.661.6,2.552,2.552,0,0,1,.581,1.842V250h-1.224v-4.573a3.356,3.356,0,0,0-.12-1.063,1.032,1.032,0,0,0-.433-.523,1.354,1.354,0,0,0-.739-.2,1.722,1.722,0,0,0-1.271.509,2.238,2.238,0,0,0-.506,1.63V250h-1.23V245.28a2.069,2.069,0,0,0-.3-1.23,1.139,1.139,0,0,0-.985-.41,1.792,1.792,0,0,0-.96.273,1.563,1.563,0,0,0-.639.8,4.481,4.481,0,0,0-.2,1.517V250Z"/>
      <path d="M112.641,249.1a4.566,4.566,0,0,1-1.317.82,3.785,3.785,0,0,1-1.356.239,2.636,2.636,0,0,1-1.839-.584,1.931,1.931,0,0,1-.643-1.494,1.985,1.985,0,0,1,.243-.974,2.016,2.016,0,0,1,.636-.708,3.029,3.029,0,0,1,.885-.4,9.054,9.054,0,0,1,1.094-.185,11.224,11.224,0,0,0,2.194-.423c.005-.168.007-.276.007-.322a1.355,1.355,0,0,0-.349-1.059,2.059,2.059,0,0,0-1.4-.417,2.169,2.169,0,0,0-1.281.3,1.853,1.853,0,0,0-.613,1.077l-1.2-.164a2.99,2.99,0,0,1,.54-1.247,2.361,2.361,0,0,1,1.087-.732,4.846,4.846,0,0,1,1.648-.257,4.353,4.353,0,0,1,1.51.219,1.98,1.98,0,0,1,.855.551,1.934,1.934,0,0,1,.383.837,6.947,6.947,0,0,1,.061,1.134v1.641a17.479,17.479,0,0,0,.079,2.171,2.74,2.74,0,0,0,.311.871h-1.285A2.636,2.636,0,0,1,112.641,249.1Zm-.1-2.748a9,9,0,0,1-2.01.464,4.758,4.758,0,0,0-1.073.246,1.077,1.077,0,0,0-.485.4,1.086,1.086,0,0,0,.2,1.4,1.6,1.6,0,0,0,1.09.328,2.538,2.538,0,0,0,1.264-.31,1.917,1.917,0,0,0,.814-.852,2.951,2.951,0,0,0,.2-1.23Z"/>
      <path d="M120.007,247.338l1.21.157a3.143,3.143,0,0,1-1.016,1.959,2.953,2.953,0,0,1-2.006.707,3.117,3.117,0,0,1-2.4-.973,3.954,3.954,0,0,1-.905-2.793,5.051,5.051,0,0,1,.389-2.058,2.715,2.715,0,0,1,1.186-1.322,3.521,3.521,0,0,1,1.733-.442,3.009,3.009,0,0,1,1.935.6,2.741,2.741,0,0,1,.964,1.7l-1.2.185a1.977,1.977,0,0,0-.6-1.1,1.565,1.565,0,0,0-1.049-.369,1.914,1.914,0,0,0-1.511.667,3.164,3.164,0,0,0-.581,2.108,3.271,3.271,0,0,0,.561,2.126,1.82,1.82,0,0,0,1.463.663,1.723,1.723,0,0,0,1.21-.444A2.21,2.21,0,0,0,120.007,247.338Z"/>
      <path d="M126.818,247.659l1.272.157a3.1,3.1,0,0,1-1.113,1.73,3.778,3.778,0,0,1-4.605-.365,3.837,3.837,0,0,1-.933-2.752,4.013,4.013,0,0,1,.944-2.844,3.194,3.194,0,0,1,2.447-1.012,3.106,3.106,0,0,1,2.379.991,3.943,3.943,0,0,1,.922,2.79c0,.073,0,.182-.006.328h-5.414a2.786,2.786,0,0,0,.676,1.832,2.014,2.014,0,0,0,1.517.635,1.89,1.89,0,0,0,1.157-.355A2.353,2.353,0,0,0,126.818,247.659Zm-4.039-1.989h4.053a2.459,2.459,0,0,0-.465-1.374,1.882,1.882,0,0,0-1.523-.711,1.955,1.955,0,0,0-1.426.567A2.249,2.249,0,0,0,122.779,245.67Z"/>
      <path d="M129.537,250v-1.4h1.4V250a2.48,2.48,0,0,1-.274,1.248,1.771,1.771,0,0,1-.867.734l-.342-.526a1.161,1.161,0,0,0,.574-.5,2.137,2.137,0,0,0,.205-.954Z"/>
      <path d="M22.969,266.8V256.775H24.2v5.715l2.912-2.953h1.594L25.93,262.23l3.054,4.567H27.467l-2.4-3.712-.869.834V266.8Z"/>
      <path d="M32.229,265.7l.177,1.087a4.549,4.549,0,0,1-.929.11,2.106,2.106,0,0,1-1.039-.212,1.186,1.186,0,0,1-.52-.557,4.42,4.42,0,0,1-.15-1.453v-4.177h-.9v-.957h.9v-1.8L30.992,257v2.536h1.237v.957H30.992v4.245a2.149,2.149,0,0,0,.065.677.5.5,0,0,0,.212.239.81.81,0,0,0,.42.089A3.826,3.826,0,0,0,32.229,265.7Z"/>
      <path d="M37.982,264.459l1.272.157a3.1,3.1,0,0,1-1.115,1.73,3.775,3.775,0,0,1-4.6-.366,3.833,3.833,0,0,1-.933-2.751,4.013,4.013,0,0,1,.943-2.844,3.2,3.2,0,0,1,2.447-1.012,3.106,3.106,0,0,1,2.379.991,3.941,3.941,0,0,1,.924,2.789c0,.074,0,.183-.008.328H33.873a2.788,2.788,0,0,0,.678,1.832,2.012,2.012,0,0,0,1.517.636,1.88,1.88,0,0,0,1.155-.355A2.36,2.36,0,0,0,37.982,264.459Zm-4.041-1.989H38a2.461,2.461,0,0,0-.465-1.374,1.886,1.886,0,0,0-1.525-.711,1.956,1.956,0,0,0-1.425.567A2.246,2.246,0,0,0,33.941,262.47Z"/>
      <path d="M40.365,266.8v-7.26h1.108v1.1a3,3,0,0,1,.782-1.019,1.368,1.368,0,0,1,.79-.246,2.4,2.4,0,0,1,1.264.4l-.424,1.141a1.759,1.759,0,0,0-.9-.266,1.173,1.173,0,0,0-.724.243,1.305,1.305,0,0,0-.457.673A4.78,4.78,0,0,0,41.6,263v3.8Z"/>
      <path d="M49.59,264.459l1.271.157a3.106,3.106,0,0,1-1.114,1.73,3.775,3.775,0,0,1-4.6-.366,3.833,3.833,0,0,1-.933-2.751,4.013,4.013,0,0,1,.943-2.844,3.2,3.2,0,0,1,2.448-1.012,3.105,3.105,0,0,1,2.378.991,3.936,3.936,0,0,1,.923,2.789c0,.074,0,.183-.006.328H45.481a2.787,2.787,0,0,0,.677,1.832,2.016,2.016,0,0,0,1.518.636,1.882,1.882,0,0,0,1.155-.355A2.366,2.366,0,0,0,49.59,264.459Zm-4.04-1.989H49.6a2.454,2.454,0,0,0-.465-1.374,1.889,1.889,0,0,0-1.525-.711,1.955,1.955,0,0,0-1.425.567A2.249,2.249,0,0,0,45.55,262.47Zm1.326-3.835.909-1.914H49.4l-1.5,1.914Z"/>
      <path d="M54.964,264.63l1.217-.192a1.7,1.7,0,0,0,.571,1.122,1.99,1.99,0,0,0,1.309.389,1.923,1.923,0,0,0,1.257-.345,1.031,1.031,0,0,0,.411-.81.75.75,0,0,0-.363-.656,5.333,5.333,0,0,0-1.258-.417,11.514,11.514,0,0,1-1.876-.591,1.792,1.792,0,0,1-1.063-1.665,1.874,1.874,0,0,1,.222-.9,1.987,1.987,0,0,1,.605-.687,2.522,2.522,0,0,1,.783-.358,3.681,3.681,0,0,1,1.063-.148,4.2,4.2,0,0,1,1.5.246,2.042,2.042,0,0,1,.954.667,2.6,2.6,0,0,1,.424,1.124l-1.2.164a1.317,1.317,0,0,0-.476-.875,1.74,1.74,0,0,0-1.11-.314,2.017,2.017,0,0,0-1.21.28.818.818,0,0,0-.363.656.674.674,0,0,0,.151.431,1.07,1.07,0,0,0,.471.328c.124.046.486.15,1.087.315a14.851,14.851,0,0,1,1.822.571,1.837,1.837,0,0,1,.81.645,1.808,1.808,0,0,1,.294,1.053,2.075,2.075,0,0,1-.358,1.159,2.32,2.32,0,0,1-1.036.841,3.779,3.779,0,0,1-1.532.3,3.407,3.407,0,0,1-2.157-.588A2.737,2.737,0,0,1,54.964,264.63Z"/>
      <path d="M67.006,264.459l1.271.157a3.106,3.106,0,0,1-1.114,1.73,3.775,3.775,0,0,1-4.6-.366,3.837,3.837,0,0,1-.933-2.751,4.013,4.013,0,0,1,.943-2.844,3.2,3.2,0,0,1,2.448-1.012,3.109,3.109,0,0,1,2.379.991,3.94,3.94,0,0,1,.922,2.789c0,.074,0,.183-.006.328H62.9a2.787,2.787,0,0,0,.677,1.832,2.016,2.016,0,0,0,1.518.636,1.882,1.882,0,0,0,1.155-.355A2.366,2.366,0,0,0,67.006,264.459Zm-4.04-1.989H67.02a2.454,2.454,0,0,0-.465-1.374,1.889,1.889,0,0,0-1.525-.711,1.955,1.955,0,0,0-1.425.567A2.249,2.249,0,0,0,62.966,262.47Z"/>
      <path d="M74.889,266.8l-2.762-7.26h1.3l1.558,4.348c.168.469.325.957.465,1.463q.165-.575.458-1.381l1.614-4.43h1.264l-2.748,7.26Z"/>
      <path d="M84.189,265.9a4.558,4.558,0,0,1-1.316.821,3.794,3.794,0,0,1-1.357.239,2.634,2.634,0,0,1-1.838-.584,1.929,1.929,0,0,1-.643-1.494,1.982,1.982,0,0,1,.242-.974,2.006,2.006,0,0,1,.636-.708,3.021,3.021,0,0,1,.886-.4,8.822,8.822,0,0,1,1.094-.185,11.12,11.12,0,0,0,2.193-.424c0-.168.008-.275.008-.321a1.355,1.355,0,0,0-.35-1.059,2.056,2.056,0,0,0-1.4-.417,2.173,2.173,0,0,0-1.282.3,1.856,1.856,0,0,0-.613,1.076l-1.2-.164a2.977,2.977,0,0,1,.541-1.247,2.358,2.358,0,0,1,1.086-.731,4.85,4.85,0,0,1,1.648-.257,4.345,4.345,0,0,1,1.51.219,1.99,1.99,0,0,1,.856.551,1.959,1.959,0,0,1,.383.836,6.987,6.987,0,0,1,.06,1.135v1.641a17.49,17.49,0,0,0,.079,2.171,2.7,2.7,0,0,0,.312.871H84.436A2.612,2.612,0,0,1,84.189,265.9Zm-.1-2.748a8.936,8.936,0,0,1-2.01.465,4.637,4.637,0,0,0-1.072.246,1.074,1.074,0,0,0-.486.4,1.089,1.089,0,0,0,.2,1.4,1.6,1.6,0,0,0,1.091.328,2.537,2.537,0,0,0,1.263-.31,1.929,1.929,0,0,0,.815-.852,2.976,2.976,0,0,0,.2-1.231Zm-2.393-4.518.911-1.914h1.613l-1.5,1.914Z"/>
      <path d="M86.326,264.63l1.217-.192a1.7,1.7,0,0,0,.57,1.122,1.994,1.994,0,0,0,1.309.389,1.926,1.926,0,0,0,1.258-.345,1.033,1.033,0,0,0,.41-.81.749.749,0,0,0-.361-.656,5.333,5.333,0,0,0-1.258-.417,11.5,11.5,0,0,1-1.877-.591,1.792,1.792,0,0,1-1.063-1.665,1.874,1.874,0,0,1,.222-.9,1.994,1.994,0,0,1,.6-.687,2.54,2.54,0,0,1,.784-.358,3.679,3.679,0,0,1,1.062-.148,4.206,4.206,0,0,1,1.5.246,2.042,2.042,0,0,1,.954.667,2.61,2.61,0,0,1,.424,1.124l-1.2.164a1.317,1.317,0,0,0-.476-.875,1.74,1.74,0,0,0-1.11-.314,2.023,2.023,0,0,0-1.211.28.818.818,0,0,0-.361.656.679.679,0,0,0,.15.431,1.07,1.07,0,0,0,.471.328c.123.046.486.15,1.088.315a14.938,14.938,0,0,1,1.821.571,1.837,1.837,0,0,1,.81.645,1.808,1.808,0,0,1,.294,1.053A2.069,2.069,0,0,1,92,265.823a2.311,2.311,0,0,1-1.035.841,3.774,3.774,0,0,1-1.531.3,3.41,3.41,0,0,1-2.158-.588A2.732,2.732,0,0,1,86.326,264.63Z"/>
      <path d="M99.555,265.7l.177,1.087a4.557,4.557,0,0,1-.929.11,2.1,2.1,0,0,1-1.039-.212,1.186,1.186,0,0,1-.52-.557,4.42,4.42,0,0,1-.15-1.453v-4.177h-.9v-.957h.9v-1.8L98.316,257v2.536h1.239v.957H98.316v4.245a2.108,2.108,0,0,0,.066.677.506.506,0,0,0,.212.239.808.808,0,0,0,.42.089A3.862,3.862,0,0,0,99.555,265.7Z"/>
      <path d="M100.283,269.593l-.137-1.155a2.733,2.733,0,0,0,.7.109,1.341,1.341,0,0,0,.656-.137,1.121,1.121,0,0,0,.4-.383,6.036,6.036,0,0,0,.375-.916c.024-.068.06-.168.11-.3l-2.754-7.274h1.326l1.51,4.2q.294.8.527,1.682a16.24,16.24,0,0,1,.506-1.654l1.551-4.232h1.23l-2.762,7.383a14.409,14.409,0,0,1-.689,1.647,2.429,2.429,0,0,1-.752.893,1.786,1.786,0,0,1-1.012.283A2.467,2.467,0,0,1,100.283,269.593Zm2-10.958.91-1.914h1.614l-1.5,1.914Z"/>
      <path d="M106.924,266.8V256.775h1.23v5.715l2.912-2.953h1.594l-2.775,2.693,3.054,4.567h-1.517l-2.4-3.712-.869.834V266.8Z"/>
      <path d="M118.234,265.9a4.545,4.545,0,0,1-1.316.821,3.785,3.785,0,0,1-1.356.239,2.635,2.635,0,0,1-1.839-.584,1.932,1.932,0,0,1-.643-1.494,2.02,2.02,0,0,1,.879-1.682,3,3,0,0,1,.885-.4,8.857,8.857,0,0,1,1.094-.185,11.134,11.134,0,0,0,2.194-.424c0-.168.007-.275.007-.321a1.359,1.359,0,0,0-.349-1.059,2.059,2.059,0,0,0-1.4-.417,2.175,2.175,0,0,0-1.282.3,1.855,1.855,0,0,0-.612,1.076l-1.2-.164a2.989,2.989,0,0,1,.54-1.247,2.362,2.362,0,0,1,1.087-.731,4.84,4.84,0,0,1,1.647-.257,4.359,4.359,0,0,1,1.511.219,1.98,1.98,0,0,1,.855.551,1.934,1.934,0,0,1,.382.836,6.919,6.919,0,0,1,.062,1.135v1.641a17.281,17.281,0,0,0,.079,2.171,2.716,2.716,0,0,0,.311.871H118.48A2.658,2.658,0,0,1,118.234,265.9Zm-.1-2.748a8.936,8.936,0,0,1-2.01.465,4.649,4.649,0,0,0-1.073.246,1.085,1.085,0,0,0-.486.4,1.088,1.088,0,0,0,.2,1.4,1.6,1.6,0,0,0,1.089.328,2.539,2.539,0,0,0,1.265-.31,1.927,1.927,0,0,0,.814-.852,2.973,2.973,0,0,0,.2-1.231Z"/>
      <path d="M119.3,269.613l.232-1.046a2.423,2.423,0,0,0,.581.1.654.654,0,0,0,.561-.249,2.552,2.552,0,0,0,.184-1.248v-7.629h1.231v7.656a3.586,3.586,0,0,1-.349,1.867,1.627,1.627,0,0,1-1.476.683A3.549,3.549,0,0,1,119.3,269.613Zm1.558-11.409v-1.429h1.231V258.2Z"/>
      <path d="M123.923,258.635l.909-1.914h1.613l-1.5,1.914Zm.061,8.162v-7.26h1.231v7.26Z"/>
    </g>
    <g>
      <path d="M61.494,122.994V113.02H63.22l3.585,5.384,3.6-5.384h1.711v9.974H70.57v-7.846l-3.135,4.711h-1.26l-3.12-4.711v7.846Z"/>
      <path d="M76,119.814a3.8,3.8,0,0,0,.135.953,1.554,1.554,0,0,0,.39.682,1.68,1.68,0,0,0,.719.405,4.055,4.055,0,0,0,1.141.135c.16,0,.335-.008.525-.022s.377-.037.563-.069.359-.058.524-.089.3-.06.413-.09l.135,1.11a9.735,9.735,0,0,1-1.058.218,8.308,8.308,0,0,1-1.267.1,6.843,6.843,0,0,1-1.56-.166,2.764,2.764,0,0,1-1.2-.592,2.81,2.81,0,0,1-.771-1.156,5.232,5.232,0,0,1-.278-1.852,5.766,5.766,0,0,1,.233-1.77,2.881,2.881,0,0,1,.667-1.162,2.506,2.506,0,0,1,1.057-.638,4.66,4.66,0,0,1,1.388-.195,3.625,3.625,0,0,1,1.319.218,2.51,2.51,0,0,1,.923.607,2.386,2.386,0,0,1,.54.946,4.18,4.18,0,0,1,.172,1.244v1.185Zm3.255-1.05q0-2.084-1.546-2.084a1.447,1.447,0,0,0-1.244.524,2.894,2.894,0,0,0-.45,1.56Z"/>
    </g>
    <g>
      <path d="M77.679,226.333c-3.154-14.56-5.367-14.594-6.7-26.132" fill="none" stroke="#000" stroke-miterlimit="10"/>
      <polygon points="75.478 202.962 74.839 203.733 71.049 200.579 68.18 204.591 67.367 204.008 70.861 199.123 75.478 202.962"/>
    </g>
    <g>
      <path d="M74.27,147.274A16.925,16.925,0,1,1,57.345,164.2,16.943,16.943,0,0,1,74.27,147.274m0-2.8A19.725,19.725,0,1,0,93.994,164.2,19.725,19.725,0,0,0,74.27,144.474Z" fill="#5b5d5e"/>
      <path d="M79.189,163.271a6.655,6.655,0,0,1,1.817,1.04,7.445,7.445,0,0,1,1.419,1.506,7.072,7.072,0,0,1,.936,1.874,6.794,6.794,0,0,1,.338,2.137v4.1a1.151,1.151,0,0,1-1.172,1.171H66.133a1.148,1.148,0,0,1-1.17-1.171v-4.1a6.792,6.792,0,0,1,.336-2.137,7.045,7.045,0,0,1,.937-1.874,7.368,7.368,0,0,1,1.42-1.506,6.629,6.629,0,0,1,1.815-1.04,7.91,7.91,0,0,0,2.268,1.17,8.18,8.18,0,0,0,2.591.411A8.038,8.038,0,0,0,79.189,163.271Zm1.29-6.617A5.991,5.991,0,0,1,80,159.04a6.159,6.159,0,0,1-3.265,3.279,6.158,6.158,0,0,1-4.786,0,6.115,6.115,0,0,1-3.278-3.279,6.169,6.169,0,0,1,0-4.786,6.161,6.161,0,0,1,3.278-3.265,6.181,6.181,0,0,1,4.786,0A6.205,6.205,0,0,1,80,154.254,5.964,5.964,0,0,1,80.479,156.654Z" fill="#5b5d5e"/>
    </g>
  </g>
  <g>
    <g>
      <path d="M152.773,250l-3.882-10.021h1.435l2.605,7.28q.315.875.526,1.64.231-.819.54-1.64l2.707-7.28h1.354L154.134,250Z"/>
      <path d="M158.516,252.794l-.137-1.155a2.784,2.784,0,0,0,.7.109,1.353,1.353,0,0,0,.656-.137,1.127,1.127,0,0,0,.4-.382,6.033,6.033,0,0,0,.376-.916c.022-.069.059-.169.109-.3l-2.755-7.274H159.2l1.511,4.2q.294.8.526,1.682a16.679,16.679,0,0,1,.506-1.654l1.552-4.232h1.23l-2.761,7.383a14.516,14.516,0,0,1-.691,1.648,2.4,2.4,0,0,1-.752.891,1.768,1.768,0,0,1-1.011.284A2.467,2.467,0,0,1,158.516,252.794Z"/>
      <path d="M168.257,248.9l.178,1.087a4.574,4.574,0,0,1-.93.11,2.12,2.12,0,0,1-1.039-.212,1.193,1.193,0,0,1-.52-.558,4.408,4.408,0,0,1-.15-1.452V243.7h-.9v-.957h.9v-1.8l1.224-.738v2.536h1.237v.957H167.02v4.245a2.164,2.164,0,0,0,.064.677.513.513,0,0,0,.213.239.82.82,0,0,0,.42.089A4,4,0,0,0,168.257,248.9Z"/>
      <path d="M171.477,250l-2.762-7.26h1.3l1.558,4.348q.252.7.465,1.463.163-.575.458-1.381l1.613-4.43h1.265L172.625,250Z"/>
      <path d="M181.2,249.1a4.606,4.606,0,0,1-1.316.82,3.808,3.808,0,0,1-1.357.239,2.634,2.634,0,0,1-1.838-.585,1.93,1.93,0,0,1-.643-1.493,2.016,2.016,0,0,1,.879-1.682,3,3,0,0,1,.885-.4,8.679,8.679,0,0,1,1.093-.185,11.3,11.3,0,0,0,2.195-.423c0-.169.007-.277.007-.322a1.358,1.358,0,0,0-.349-1.059,2.055,2.055,0,0,0-1.4-.417,2.181,2.181,0,0,0-1.282.3,1.861,1.861,0,0,0-.612,1.078l-1.2-.164a2.982,2.982,0,0,1,.54-1.248,2.363,2.363,0,0,1,1.087-.732,4.837,4.837,0,0,1,1.647-.256,4.339,4.339,0,0,1,1.511.219,1.979,1.979,0,0,1,.855.55,1.937,1.937,0,0,1,.382.838,6.9,6.9,0,0,1,.062,1.134v1.641a17.25,17.25,0,0,0,.079,2.17,2.721,2.721,0,0,0,.311.872h-1.286A2.642,2.642,0,0,1,181.2,249.1Zm-.1-2.749a9.062,9.062,0,0,1-2.01.465,4.649,4.649,0,0,0-1.073.246,1.083,1.083,0,0,0-.486.4,1.086,1.086,0,0,0,.2,1.405,1.6,1.6,0,0,0,1.089.328,2.529,2.529,0,0,0,1.265-.311,1.912,1.912,0,0,0,.813-.851,2.955,2.955,0,0,0,.2-1.23Zm-2.393-4.518.909-1.914h1.614l-1.5,1.914Z"/>
      <path d="M185.914,241.084l.752-1.162h1.4l-1.539,1.914H185.21l-1.477-1.914h1.409ZM184.232,250v-7.26h1.108v1.1a2.991,2.991,0,0,1,.783-1.019,1.362,1.362,0,0,1,.789-.246,2.4,2.4,0,0,1,1.265.4l-.424,1.141a1.768,1.768,0,0,0-.9-.266,1.176,1.176,0,0,0-.725.242,1.324,1.324,0,0,0-.458.674,4.78,4.78,0,0,0-.205,1.435V250Z"/>
      <path d="M193.878,247.66l1.271.157a3.1,3.1,0,0,1-1.114,1.73,3.774,3.774,0,0,1-4.6-.366,3.83,3.83,0,0,1-.934-2.751,4.014,4.014,0,0,1,.943-2.844,3.194,3.194,0,0,1,2.448-1.012,3.105,3.105,0,0,1,2.379.991,3.939,3.939,0,0,1,.922,2.789c0,.073,0,.182-.006.329H189.77a2.788,2.788,0,0,0,.676,1.832,2.017,2.017,0,0,0,1.518.635,1.886,1.886,0,0,0,1.155-.355A2.36,2.36,0,0,0,193.878,247.66Zm-4.04-1.989h4.054a2.461,2.461,0,0,0-.465-1.374,1.883,1.883,0,0,0-1.525-.711,1.952,1.952,0,0,0-1.425.567A2.245,2.245,0,0,0,189.838,245.671Z"/>
      <path d="M195.129,252.814l.232-1.045a2.509,2.509,0,0,0,.581.095.651.651,0,0,0,.561-.25,2.543,2.543,0,0,0,.185-1.247v-7.629h1.23V250.4a3.589,3.589,0,0,1-.349,1.866,1.627,1.627,0,0,1-1.476.683A3.588,3.588,0,0,1,195.129,252.814Zm1.559-11.409v-1.428h1.23v1.428Z"/>
      <path d="M202.491,248.9l.178,1.087a4.566,4.566,0,0,1-.93.11,2.12,2.12,0,0,1-1.039-.212,1.186,1.186,0,0,1-.519-.558,4.371,4.371,0,0,1-.151-1.452V243.7h-.9v-.957h.9v-1.8l1.224-.738v2.536h1.237v.957h-1.237v4.245a2.164,2.164,0,0,0,.064.677.518.518,0,0,0,.213.239.823.823,0,0,0,.42.089A3.982,3.982,0,0,0,202.491,248.9Z"/>
      <path d="M208.664,247.66l1.272.157a3.113,3.113,0,0,1-1.115,1.73,3.775,3.775,0,0,1-4.6-.366,3.839,3.839,0,0,1-.933-2.751,4.01,4.01,0,0,1,.944-2.844,3.189,3.189,0,0,1,2.447-1.012,3.1,3.1,0,0,1,2.379.991,3.939,3.939,0,0,1,.923,2.789c0,.073,0,.182-.007.329h-5.414a2.793,2.793,0,0,0,.676,1.832,2.021,2.021,0,0,0,1.518.635,1.888,1.888,0,0,0,1.155-.355A2.353,2.353,0,0,0,208.664,247.66Zm-4.04-1.989h4.054a2.454,2.454,0,0,0-.465-1.374,1.885,1.885,0,0,0-1.525-.711,1.947,1.947,0,0,0-1.424.567A2.241,2.241,0,0,0,204.624,245.671Z"/>
      <path d="M220.107,249.1a4.606,4.606,0,0,1-1.316.82,3.806,3.806,0,0,1-1.356.239,2.635,2.635,0,0,1-1.839-.585,1.93,1.93,0,0,1-.643-1.493,2.016,2.016,0,0,1,.879-1.682,3,3,0,0,1,.885-.4,8.668,8.668,0,0,1,1.094-.185,11.3,11.3,0,0,0,2.194-.423c0-.169.007-.277.007-.322a1.354,1.354,0,0,0-.349-1.059,2.054,2.054,0,0,0-1.4-.417,2.183,2.183,0,0,0-1.282.3,1.861,1.861,0,0,0-.612,1.078l-1.2-.164a2.982,2.982,0,0,1,.54-1.248,2.363,2.363,0,0,1,1.087-.732,4.841,4.841,0,0,1,1.647-.256,4.332,4.332,0,0,1,1.511.219,1.979,1.979,0,0,1,.855.55,1.95,1.95,0,0,1,.383.838,6.938,6.938,0,0,1,.061,1.134v1.641a17.25,17.25,0,0,0,.079,2.17,2.721,2.721,0,0,0,.311.872h-1.285A2.665,2.665,0,0,1,220.107,249.1Zm-.1-2.749a9.048,9.048,0,0,1-2.01.465,4.649,4.649,0,0,0-1.073.246,1.075,1.075,0,0,0-.485.4,1.087,1.087,0,0,0,.2,1.405,1.6,1.6,0,0,0,1.09.328,2.528,2.528,0,0,0,1.264-.311,1.92,1.92,0,0,0,.814-.851,2.974,2.974,0,0,0,.2-1.23Z"/>
      <path d="M135.086,269.58V259.538h1.121v.943a2.774,2.774,0,0,1,.9-.831,2.469,2.469,0,0,1,1.211-.276,2.861,2.861,0,0,1,1.64.479,2.923,2.923,0,0,1,1.072,1.349,4.9,4.9,0,0,1,.364,1.911,4.849,4.849,0,0,1-.4,2.006,3.006,3.006,0,0,1-1.162,1.367,2.975,2.975,0,0,1-1.6.476,2.319,2.319,0,0,1-1.1-.26,2.519,2.519,0,0,1-.8-.656v3.534Zm1.113-6.371a3.154,3.154,0,0,0,.569,2.071,1.738,1.738,0,0,0,1.373.67,1.778,1.778,0,0,0,1.405-.694,3.288,3.288,0,0,0,.585-2.15,3.216,3.216,0,0,0-.571-2.078,1.716,1.716,0,0,0-1.365-.69,1.773,1.773,0,0,0-1.39.734A3.287,3.287,0,0,0,136.2,263.209Z"/>
      <path d="M144.539,257.884l.752-1.162h1.4l-1.538,1.914h-1.312l-1.477-1.914h1.409Zm-1.682,8.914v-7.26h1.108v1.1a3,3,0,0,1,.783-1.019,1.365,1.365,0,0,1,.789-.246,2.4,2.4,0,0,1,1.266.4l-.424,1.141a1.759,1.759,0,0,0-.9-.266,1.174,1.174,0,0,0-.725.242,1.315,1.315,0,0,0-.459.674,4.78,4.78,0,0,0-.205,1.435v3.8Z"/>
      <path d="M147.541,258.191v-1.415h1.23v1.415Zm0,8.607v-7.26h1.23v7.26Z"/>
      <path d="M155.354,266.8v-.916a2.258,2.258,0,0,1-2.03,1.08,2.845,2.845,0,0,1-1.6-.479,3.134,3.134,0,0,1-1.128-1.337,4.607,4.607,0,0,1-.4-1.971,5.14,5.14,0,0,1,.364-1.973,2.853,2.853,0,0,1,1.085-1.356,2.908,2.908,0,0,1,1.622-.472,2.411,2.411,0,0,1,2,1v-3.6H156.5V266.8Zm-3.889-3.623a3.15,3.15,0,0,0,.588,2.085,1.769,1.769,0,0,0,1.386.69,1.741,1.741,0,0,0,1.372-.66,3.038,3.038,0,0,0,.564-2.013,3.411,3.411,0,0,0-.574-2.187,1.768,1.768,0,0,0-1.416-.7,1.7,1.7,0,0,0-1.37.67A3.3,3.3,0,0,0,151.465,263.175Z"/>
      <path d="M163.168,265.9a4.616,4.616,0,0,1-1.316.821,3.817,3.817,0,0,1-1.358.239,2.636,2.636,0,0,1-1.838-.585,1.931,1.931,0,0,1-.642-1.493,2.018,2.018,0,0,1,.878-1.682,2.978,2.978,0,0,1,.885-.4,8.52,8.52,0,0,1,1.094-.185,11.255,11.255,0,0,0,2.193-.424c0-.169.008-.276.008-.321a1.358,1.358,0,0,0-.349-1.059,2.055,2.055,0,0,0-1.4-.417,2.181,2.181,0,0,0-1.282.3,1.863,1.863,0,0,0-.612,1.077l-1.2-.164a2.982,2.982,0,0,1,.541-1.248,2.366,2.366,0,0,1,1.086-.731,4.847,4.847,0,0,1,1.648-.256,4.329,4.329,0,0,1,1.51.219,1.986,1.986,0,0,1,.855.55,1.939,1.939,0,0,1,.383.837,6.945,6.945,0,0,1,.061,1.135v1.641a17.47,17.47,0,0,0,.079,2.17,2.706,2.706,0,0,0,.311.872h-1.285A2.6,2.6,0,0,1,163.168,265.9Zm-.1-2.748a9.051,9.051,0,0,1-2.009.465,4.544,4.544,0,0,0-1.073.246,1.072,1.072,0,0,0-.486.4,1.056,1.056,0,0,0-.17.585,1.045,1.045,0,0,0,.372.82,1.606,1.606,0,0,0,1.091.328,2.528,2.528,0,0,0,1.264-.311,1.93,1.93,0,0,0,.814-.851,2.982,2.982,0,0,0,.2-1.231Zm-2.392-4.518.91-1.914H163.2l-1.5,1.914Z"/>
      <path d="M168.232,266.8l-2.761-7.26h1.3l1.558,4.348c.169.468.324.957.465,1.463q.163-.575.459-1.381l1.613-4.43h1.264l-2.748,7.26Z"/>
      <path d="M178.186,264.46l1.271.157a3.1,3.1,0,0,1-1.113,1.73,3.354,3.354,0,0,1-2.078.615,3.318,3.318,0,0,1-2.527-.982,3.831,3.831,0,0,1-.932-2.751,4.009,4.009,0,0,1,.943-2.843,3.191,3.191,0,0,1,2.447-1.012,3.1,3.1,0,0,1,2.379.991,3.937,3.937,0,0,1,.922,2.789c0,.073,0,.182-.006.328h-5.414a2.789,2.789,0,0,0,.676,1.832,2.015,2.015,0,0,0,1.517.636,1.894,1.894,0,0,0,1.157-.355A2.375,2.375,0,0,0,178.186,264.46Zm-4.04-1.989H178.2a2.44,2.44,0,0,0-.465-1.374,1.879,1.879,0,0,0-1.523-.711,1.953,1.953,0,0,0-1.426.567A2.25,2.25,0,0,0,174.146,262.471Z"/>
      <path d="M179.438,269.614l.232-1.046a2.461,2.461,0,0,0,.58.1.651.651,0,0,0,.561-.25,2.543,2.543,0,0,0,.185-1.247v-7.629h1.231v7.656a3.6,3.6,0,0,1-.35,1.867,1.628,1.628,0,0,1-1.477.683A3.573,3.573,0,0,1,179.438,269.614ZM181,258.205v-1.429h1.231v1.429Z"/>
      <path d="M186.8,265.7l.178,1.087a4.638,4.638,0,0,1-.93.11,2.12,2.12,0,0,1-1.039-.212,1.2,1.2,0,0,1-.52-.558,4.437,4.437,0,0,1-.15-1.452V260.5h-.9v-.957h.9v-1.8l1.225-.738v2.536H186.8v.957h-1.236v4.245a2.169,2.169,0,0,0,.064.677.505.505,0,0,0,.212.239.824.824,0,0,0,.421.089A3.983,3.983,0,0,0,186.8,265.7Z"/>
      <path d="M192.973,264.46l1.271.157a3.106,3.106,0,0,1-1.115,1.73,3.774,3.774,0,0,1-4.6-.367,3.831,3.831,0,0,1-.933-2.751,4.009,4.009,0,0,1,.943-2.843,3.192,3.192,0,0,1,2.447-1.012,3.1,3.1,0,0,1,2.379.991,3.933,3.933,0,0,1,.924,2.789c0,.073,0,.182-.008.328h-5.414a2.79,2.79,0,0,0,.678,1.832,2.013,2.013,0,0,0,1.518.636,1.883,1.883,0,0,0,1.154-.355A2.377,2.377,0,0,0,192.973,264.46Zm-4.041-1.989h4.054a2.448,2.448,0,0,0-.465-1.374,1.883,1.883,0,0,0-1.525-.711,1.954,1.954,0,0,0-1.425.567A2.245,2.245,0,0,0,188.932,262.471Z"/>
      <path d="M199.221,263.168a3.737,3.737,0,0,1,1.121-2.987,3.376,3.376,0,0,1,2.283-.807,3.26,3.26,0,0,1,2.447.98,3.736,3.736,0,0,1,.949,2.711,4.812,4.812,0,0,1-.419,2.2,2.981,2.981,0,0,1-1.224,1.248,3.577,3.577,0,0,1-1.753.444,3.263,3.263,0,0,1-2.465-.978A3.9,3.9,0,0,1,199.221,263.168Zm1.263,0a3.087,3.087,0,0,0,.61,2.088,2.024,2.024,0,0,0,3.054,0,3.159,3.159,0,0,0,.61-2.126,3.006,3.006,0,0,0-.612-2.041,2.03,2.03,0,0,0-3.052,0A3.075,3.075,0,0,0,200.484,263.168Z"/>
      <path d="M208.6,266.8h-1.143V256.776h1.231v3.576a2.432,2.432,0,0,1,1.99-.978,3.041,3.041,0,0,1,1.267.27,2.6,2.6,0,0,1,.985.758,3.67,3.67,0,0,1,.6,1.18,4.854,4.854,0,0,1,.219,1.477,4.147,4.147,0,0,1-.924,2.884,2.886,2.886,0,0,1-2.215,1.019,2.31,2.31,0,0,1-2.015-1.073Zm-.014-3.685a3.772,3.772,0,0,0,.355,1.887,1.759,1.759,0,0,0,2.967.249,3.182,3.182,0,0,0,.588-2.088,3.237,3.237,0,0,0-.564-2.1,1.715,1.715,0,0,0-1.364-.677,1.767,1.767,0,0,0-1.394.7A3.072,3.072,0,0,0,208.586,263.113Z"/>
      <path d="M214.758,264.631l1.217-.192a1.7,1.7,0,0,0,.571,1.122,1.992,1.992,0,0,0,1.309.389,1.918,1.918,0,0,0,1.258-.346,1.028,1.028,0,0,0,.41-.809.746.746,0,0,0-.363-.656,5.267,5.267,0,0,0-1.258-.417,11.524,11.524,0,0,1-1.876-.592,1.792,1.792,0,0,1-1.063-1.664,1.867,1.867,0,0,1,.223-.9,1.984,1.984,0,0,1,.6-.686,2.5,2.5,0,0,1,.782-.359,3.728,3.728,0,0,1,1.064-.147,4.2,4.2,0,0,1,1.5.246,2.043,2.043,0,0,1,.953.666,2.6,2.6,0,0,1,.424,1.125l-1.2.164a1.315,1.315,0,0,0-.475-.875,1.737,1.737,0,0,0-1.111-.314,2.007,2.007,0,0,0-1.209.28.813.813,0,0,0-.364.656.684.684,0,0,0,.151.431,1.09,1.09,0,0,0,.472.328q.184.067,1.086.315a15.111,15.111,0,0,1,1.823.57,1.851,1.851,0,0,1,.81.646,1.81,1.81,0,0,1,.293,1.053,2.064,2.064,0,0,1-.358,1.158,2.32,2.32,0,0,1-1.036.841,3.776,3.776,0,0,1-1.532.3,3.408,3.408,0,0,1-2.156-.588A2.743,2.743,0,0,1,214.758,264.631Z"/>
      <path d="M226.988,265.9a4.6,4.6,0,0,1-1.316.821,3.817,3.817,0,0,1-1.358.239,2.633,2.633,0,0,1-1.837-.585,1.928,1.928,0,0,1-.643-1.493,2.018,2.018,0,0,1,.878-1.682,3,3,0,0,1,.886-.4,8.466,8.466,0,0,1,1.093-.185,11.269,11.269,0,0,0,2.194-.424c0-.169.008-.276.008-.321a1.358,1.358,0,0,0-.35-1.059,2.051,2.051,0,0,0-1.4-.417,2.184,2.184,0,0,0-1.283.3,1.863,1.863,0,0,0-.612,1.077l-1.2-.164a2.982,2.982,0,0,1,.541-1.248,2.366,2.366,0,0,1,1.086-.731,4.847,4.847,0,0,1,1.648-.256,4.329,4.329,0,0,1,1.51.219,1.99,1.99,0,0,1,.856.55,1.95,1.95,0,0,1,.382.837,6.945,6.945,0,0,1,.061,1.135v1.641a17.47,17.47,0,0,0,.079,2.17,2.708,2.708,0,0,0,.312.872h-1.286A2.6,2.6,0,0,1,226.988,265.9Zm-.1-2.748a9.062,9.062,0,0,1-2.01.465,4.533,4.533,0,0,0-1.072.246,1.08,1.08,0,0,0-.487.4,1.089,1.089,0,0,0,.2,1.405,1.6,1.6,0,0,0,1.09.328,2.528,2.528,0,0,0,1.264-.311,1.932,1.932,0,0,0,.815-.851,3,3,0,0,0,.2-1.231Z"/>
      <path d="M230.037,266.8V256.776h1.231v3.6a2.745,2.745,0,0,1,2.173-1,2.929,2.929,0,0,1,1.4.317,1.869,1.869,0,0,1,.851.879,4.046,4.046,0,0,1,.256,1.627v4.6h-1.23v-4.6a1.9,1.9,0,0,0-.4-1.343,1.482,1.482,0,0,0-1.131-.42,1.994,1.994,0,0,0-1.029.283,1.6,1.6,0,0,0-.686.769,3.528,3.528,0,0,0-.205,1.34V266.8Z"/>
    </g>
    <g>
      <path d="M169.049,122.994v-10.64h3.44a8.347,8.347,0,0,1,1.769.167,3.167,3.167,0,0,1,1.271.569,2.427,2.427,0,0,1,.768,1.041,4.32,4.32,0,0,1,.256,1.6,4.228,4.228,0,0,1-.272,1.608,2.555,2.555,0,0,1-.792,1.072,3.286,3.286,0,0,1-1.248.592,6.684,6.684,0,0,1-1.639.184,11.159,11.159,0,0,1-1.873-.176v3.984Zm1.68-5.248a9.549,9.549,0,0,0,1.7.16,2.623,2.623,0,0,0,1.887-.544,2.215,2.215,0,0,0,.544-1.632,3.2,3.2,0,0,0-.136-1.015,1.392,1.392,0,0,0-.424-.649,1.736,1.736,0,0,0-.735-.343,4.71,4.71,0,0,0-1.073-.105h-1.76Z"/>
      <path d="M180.17,113.891l-1.633-2.577h1.393l1.008,1.665.992-1.665h1.375l-1.631,2.577Zm-1.36,9.1v-7.279a12.688,12.688,0,0,1,1.991-.442,16.7,16.7,0,0,1,2.2-.134v1.279c-.118-.01-.24-.016-.369-.016h-.383a7.424,7.424,0,0,0-.992.065,6.478,6.478,0,0,0-.832.159v6.368Z"/>
      <path d="M184.729,113.074a.852.852,0,0,1-.272-.672.867.867,0,0,1,.272-.687,1.1,1.1,0,0,1,.751-.24q1.026,0,1.026.927a.864.864,0,0,1-.265.672,1.311,1.311,0,0,1-1.512,0Zm-.047,9.92v-7.712H186.3v7.712Z"/>
      <path d="M195.449,122.689q-.72.179-1.648.321a11.268,11.268,0,0,1-1.7.144,5.282,5.282,0,0,1-1.424-.183,2.7,2.7,0,0,1-1.152-.657,3.154,3.154,0,0,1-.776-1.255,5.979,5.979,0,0,1-.28-1.985,5.4,5.4,0,0,1,.28-1.872,3.215,3.215,0,0,1,.76-1.216,2.778,2.778,0,0,1,1.128-.664,4.728,4.728,0,0,1,1.4-.2,6.044,6.044,0,0,1,.888.064c.282.043.579.1.887.16v-4.032h1.633Zm-1.616-6.095a8.537,8.537,0,0,0-.864-.176,5.842,5.842,0,0,0-.864-.064,2.386,2.386,0,0,0-.76.121,1.374,1.374,0,0,0-.624.431,2.252,2.252,0,0,0-.416.832,4.843,4.843,0,0,0-.153,1.336,6.054,6.054,0,0,0,.137,1.416,2.309,2.309,0,0,0,.392.88,1.289,1.289,0,0,0,.624.448,2.678,2.678,0,0,0,.832.12,6.626,6.626,0,0,0,.847-.055c.289-.038.571-.083.849-.137Z"/>
      <path d="M203.881,122.61q-.609.177-1.465.361a8.743,8.743,0,0,1-1.831.183,5.771,5.771,0,0,1-1.248-.128,2.758,2.758,0,0,1-1-.424,2.045,2.045,0,0,1-.664-.776,2.674,2.674,0,0,1-.24-1.2,2.177,2.177,0,0,1,.264-1.12,2.1,2.1,0,0,1,.7-.72,2.935,2.935,0,0,1,1.007-.384,6.348,6.348,0,0,1,1.2-.112c.34,0,.647.014.92.04s.52.062.744.1v-.752a1.111,1.111,0,0,0-.521-1.08,2.732,2.732,0,0,0-1.3-.28,6.827,6.827,0,0,0-1.121.1q-.574.1-1.023.192l-.112-1.215c.34-.075.717-.139,1.128-.193a9.246,9.246,0,0,1,1.208-.08,6.727,6.727,0,0,1,1.288.12,3.021,3.021,0,0,1,1.072.416,2.2,2.2,0,0,1,.728.776,2.411,2.411,0,0,1,.272,1.2Zm-1.616-3.008c-.224-.042-.47-.077-.736-.1s-.539-.04-.816-.04a4.508,4.508,0,0,0-.664.048,1.552,1.552,0,0,0-.544.183.982.982,0,0,0-.368.385,1.342,1.342,0,0,0-.136.649,1.079,1.079,0,0,0,.472,1.015,2.2,2.2,0,0,0,1.144.28,6.02,6.02,0,0,0,.9-.064c.282-.042.53-.091.744-.143Z"/>
      <path d="M208.329,121.074a.746.746,0,0,0,.256.649,1.131,1.131,0,0,0,.673.183,4.248,4.248,0,0,0,.767-.072,6.385,6.385,0,0,0,.672-.152l.048,1.216a4.441,4.441,0,0,1-.8.192,5.958,5.958,0,0,1-.88.064,2.741,2.741,0,0,1-1.7-.5,1.916,1.916,0,0,1-.656-1.632v-4.544h-1.264v-1.2h1.264l.368-2.223h1.248v2.223h2.24v1.2h-2.24Z"/>
    </g>
    <polygon points="202 169 187 169 187 184 182 184 182 169 168 169 168 164 182 164 182 149 187 149 187 164 202 164 202 169" fill="#5b5d5e"/>
  </g>
  <g>
    <g>
      <path d="M260.164,246.778l1.252-.109a2.757,2.757,0,0,0,.413,1.233,2.243,2.243,0,0,0,1.009.78,3.8,3.8,0,0,0,1.537.3,3.693,3.693,0,0,0,1.34-.225,1.854,1.854,0,0,0,.865-.619,1.426,1.426,0,0,0,.283-.858,1.308,1.308,0,0,0-.273-.824,2.025,2.025,0,0,0-.9-.591,18.183,18.183,0,0,0-1.784-.489,9.172,9.172,0,0,1-1.935-.625,2.7,2.7,0,0,1-1.07-.934,2.282,2.282,0,0,1-.352-1.247,2.548,2.548,0,0,1,.432-1.419,2.671,2.671,0,0,1,1.257-1,4.784,4.784,0,0,1,1.838-.341,5.048,5.048,0,0,1,1.966.358,2.848,2.848,0,0,1,1.31,1.057,3.056,3.056,0,0,1,.492,1.579l-1.272.1a2.05,2.05,0,0,0-.694-1.436,2.705,2.705,0,0,0-1.747-.485,2.793,2.793,0,0,0-1.753.441,1.323,1.323,0,0,0-.55,1.063,1.138,1.138,0,0,0,.389.888,5.278,5.278,0,0,0,2,.715,13.216,13.216,0,0,1,2.219.639,3.04,3.04,0,0,1,1.291,1.021,2.5,2.5,0,0,1,.418,1.426,2.736,2.736,0,0,1-.459,1.508,3.02,3.02,0,0,1-1.316,1.1,4.567,4.567,0,0,1-1.93.394,5.756,5.756,0,0,1-2.281-.4,3.2,3.2,0,0,1-1.442-1.192A3.389,3.389,0,0,1,260.164,246.778Z"/>
      <path d="M274.506,250v-.916a2.255,2.255,0,0,1-2.029,1.08,2.853,2.853,0,0,1-1.6-.478,3.156,3.156,0,0,1-1.128-1.336,4.623,4.623,0,0,1-.4-1.973,5.159,5.159,0,0,1,.363-1.973,2.854,2.854,0,0,1,1.086-1.356,2.9,2.9,0,0,1,1.621-.472,2.429,2.429,0,0,1,2,1v-3.595h1.224V250Zm-3.889-3.623a3.151,3.151,0,0,0,.588,2.085,1.772,1.772,0,0,0,1.387.69,1.737,1.737,0,0,0,1.371-.66,3.037,3.037,0,0,0,.564-2.012,3.414,3.414,0,0,0-.574-2.188,1.767,1.767,0,0,0-1.416-.7,1.7,1.7,0,0,0-1.37.67A3.311,3.311,0,0,0,270.617,246.375Z"/>
      <path d="M277.951,241.836l.91-1.914h1.614l-1.5,1.914Zm.063,8.162v-7.26h1.23V250Z"/>
      <path d="M281.445,250V239.977h1.231V250Z"/>
      <path d="M289.553,247.66l1.271.157a3.1,3.1,0,0,1-1.115,1.73,3.777,3.777,0,0,1-4.6-.365,3.838,3.838,0,0,1-.933-2.752,4.011,4.011,0,0,1,.943-2.844,3.2,3.2,0,0,1,2.448-1.012,3.1,3.1,0,0,1,2.378.991,3.938,3.938,0,0,1,.924,2.789c0,.074,0,.183-.008.329h-5.414a2.792,2.792,0,0,0,.678,1.832,2.015,2.015,0,0,0,1.518.635,1.883,1.883,0,0,0,1.154-.355A2.363,2.363,0,0,0,289.553,247.66Zm-4.041-1.989h4.054a2.464,2.464,0,0,0-.464-1.374,1.887,1.887,0,0,0-1.526-.711,1.958,1.958,0,0,0-1.425.567A2.245,2.245,0,0,0,285.512,245.671Z"/>
      <path d="M290.8,252.814l.232-1.045a2.516,2.516,0,0,0,.582.095.654.654,0,0,0,.561-.249,2.556,2.556,0,0,0,.183-1.248v-7.629h1.231V250.4a3.589,3.589,0,0,1-.348,1.866,1.627,1.627,0,0,1-1.476.683A3.6,3.6,0,0,1,290.8,252.814Zm1.558-11.409v-1.428h1.231v1.428Z"/>
      <path d="M298.166,248.9l.178,1.087a4.566,4.566,0,0,1-.93.11,2.106,2.106,0,0,1-1.039-.212,1.188,1.188,0,0,1-.52-.558,4.408,4.408,0,0,1-.15-1.452V243.7h-.9v-.957h.9v-1.8l1.223-.738v2.536h1.238v.957h-1.238v4.245a2.118,2.118,0,0,0,.065.677.516.516,0,0,0,.212.239.81.81,0,0,0,.42.089A3.85,3.85,0,0,0,298.166,248.9Z"/>
      <path d="M304.338,247.66l1.271.157a3.1,3.1,0,0,1-1.113,1.73,3.777,3.777,0,0,1-4.6-.365,3.838,3.838,0,0,1-.933-2.752,4.011,4.011,0,0,1,.943-2.844,3.2,3.2,0,0,1,2.448-1.012,3.105,3.105,0,0,1,2.379.991,3.942,3.942,0,0,1,.921,2.789c0,.074,0,.183,0,.329H300.23a2.791,2.791,0,0,0,.676,1.832,2.02,2.02,0,0,0,1.518.635,1.891,1.891,0,0,0,1.156-.355A2.361,2.361,0,0,0,304.338,247.66Zm-4.039-1.989h4.053a2.457,2.457,0,0,0-.465-1.374,1.883,1.883,0,0,0-1.524-.711,1.953,1.953,0,0,0-1.425.567A2.245,2.245,0,0,0,300.3,245.671Z"/>
      <path d="M307.477,250v-1.4h1.4V250a2.491,2.491,0,0,1-.273,1.248,1.774,1.774,0,0,1-.868.734l-.341-.526a1.167,1.167,0,0,0,.574-.5,2.146,2.146,0,0,0,.2-.953Z"/>
      <path d="M319.691,250v-1.066a2.654,2.654,0,0,1-2.3,1.23,2.946,2.946,0,0,1-1.2-.246,1.967,1.967,0,0,1-.827-.619,2.336,2.336,0,0,1-.379-.912,6.254,6.254,0,0,1-.076-1.149v-4.5h1.231v4.027a7.06,7.06,0,0,0,.076,1.3,1.281,1.281,0,0,0,.492.763,1.529,1.529,0,0,0,.93.277,2.019,2.019,0,0,0,1.039-.285,1.567,1.567,0,0,0,.686-.771,3.884,3.884,0,0,0,.2-1.419v-3.89h1.23V250Z"/>
      <path d="M322.727,250V239.977h1.23v5.714l2.912-2.953h1.594l-2.775,2.694L328.742,250h-1.517l-2.4-3.712-.869.834V250Z"/>
      <path d="M329.693,250V239.977h1.231V250Z"/>
      <path d="M337.568,249.1a4.575,4.575,0,0,1-1.316.82,3.816,3.816,0,0,1-1.357.239,2.639,2.639,0,0,1-1.838-.584,1.93,1.93,0,0,1-.643-1.494,1.991,1.991,0,0,1,.242-.975,2.011,2.011,0,0,1,.636-.707,3.021,3.021,0,0,1,.886-.4,8.834,8.834,0,0,1,1.093-.185,11.284,11.284,0,0,0,2.194-.423c.005-.168.008-.276.008-.322a1.359,1.359,0,0,0-.35-1.059,2.056,2.056,0,0,0-1.4-.417,2.186,2.186,0,0,0-1.283.3,1.87,1.87,0,0,0-.612,1.078l-1.2-.164a2.966,2.966,0,0,1,.541-1.247,2.361,2.361,0,0,1,1.086-.733,4.875,4.875,0,0,1,1.648-.256,4.326,4.326,0,0,1,1.51.219,1.99,1.99,0,0,1,.856.551,1.945,1.945,0,0,1,.382.837,6.947,6.947,0,0,1,.061,1.134v1.641a17.49,17.49,0,0,0,.079,2.171,2.7,2.7,0,0,0,.312.871h-1.286A2.619,2.619,0,0,1,337.568,249.1Zm-.1-2.749a8.992,8.992,0,0,1-2.01.465,4.746,4.746,0,0,0-1.072.246,1.08,1.08,0,0,0-.487.4,1.06,1.06,0,0,0-.169.585,1.045,1.045,0,0,0,.372.82,1.6,1.6,0,0,0,1.09.328,2.528,2.528,0,0,0,1.264-.311,1.922,1.922,0,0,0,.815-.851,2.993,2.993,0,0,0,.2-1.23Zm-2.393-4.518.91-1.914H337.6l-1.5,1.914Z"/>
      <path d="M345.326,250v-.916a2.255,2.255,0,0,1-2.029,1.08,2.858,2.858,0,0,1-1.6-.478,3.156,3.156,0,0,1-1.128-1.336,4.638,4.638,0,0,1-.4-1.973,5.159,5.159,0,0,1,.363-1.973,2.86,2.86,0,0,1,1.086-1.356,2.9,2.9,0,0,1,1.621-.472,2.429,2.429,0,0,1,2,1v-3.595h1.225V250Zm-3.888-3.623a3.152,3.152,0,0,0,.587,2.085,1.772,1.772,0,0,0,1.387.69,1.737,1.737,0,0,0,1.371-.66,3.037,3.037,0,0,0,.565-2.012,3.413,3.413,0,0,0-.575-2.188,1.765,1.765,0,0,0-1.416-.7,1.7,1.7,0,0,0-1.37.67A3.311,3.311,0,0,0,341.438,246.375Z"/>
      <path d="M353.373,247.66l1.272.157a3.106,3.106,0,0,1-1.116,1.73,3.775,3.775,0,0,1-4.6-.365,3.839,3.839,0,0,1-.934-2.752,4.012,4.012,0,0,1,.944-2.844,3.194,3.194,0,0,1,2.447-1.012,3.1,3.1,0,0,1,2.379.991,3.943,3.943,0,0,1,.924,2.789c0,.074,0,.183-.008.329h-5.414a2.791,2.791,0,0,0,.677,1.832,2.018,2.018,0,0,0,1.518.635,1.883,1.883,0,0,0,1.154-.355A2.349,2.349,0,0,0,353.373,247.66Zm-4.041-1.989h4.055a2.464,2.464,0,0,0-.465-1.374,1.887,1.887,0,0,0-1.526-.711,1.954,1.954,0,0,0-1.424.567A2.241,2.241,0,0,0,349.332,245.671Z"/>
      <path d="M354.623,252.814l.232-1.045a2.523,2.523,0,0,0,.583.095.652.652,0,0,0,.56-.249,2.552,2.552,0,0,0,.184-1.248v-7.629h1.23V250.4a3.589,3.589,0,0,1-.348,1.866,1.626,1.626,0,0,1-1.476.683A3.6,3.6,0,0,1,354.623,252.814Zm1.559-11.409v-1.428h1.23v1.428Z"/>
      <path d="M361.986,248.9l.178,1.087a4.566,4.566,0,0,1-.93.11,2.106,2.106,0,0,1-1.039-.212,1.181,1.181,0,0,1-.519-.558,4.371,4.371,0,0,1-.151-1.452V243.7h-.9v-.957h.9v-1.8l1.223-.738v2.536h1.238v.957h-1.238v4.245a2.149,2.149,0,0,0,.065.677.521.521,0,0,0,.212.239.812.812,0,0,0,.42.089A3.838,3.838,0,0,0,361.986,248.9Z"/>
      <path d="M368.158,247.66l1.272.157a3.1,3.1,0,0,1-1.114,1.73,3.777,3.777,0,0,1-4.6-.365,3.838,3.838,0,0,1-.933-2.752,4.012,4.012,0,0,1,.944-2.844,3.194,3.194,0,0,1,2.447-1.012,3.1,3.1,0,0,1,2.379.991,3.942,3.942,0,0,1,.922,2.789c0,.074,0,.183-.006.329h-5.414a2.786,2.786,0,0,0,.676,1.832,2.018,2.018,0,0,0,1.517.635,1.891,1.891,0,0,0,1.156-.355A2.347,2.347,0,0,0,368.158,247.66Zm-4.039-1.989h4.053a2.457,2.457,0,0,0-.465-1.374,1.881,1.881,0,0,0-1.523-.711,1.955,1.955,0,0,0-1.426.567A2.245,2.245,0,0,0,364.119,245.671Z"/>
      <path d="M264.023,265.9a4.589,4.589,0,0,1-1.316.821,3.785,3.785,0,0,1-1.356.239,2.63,2.63,0,0,1-1.839-.585,1.929,1.929,0,0,1-.643-1.493,2.02,2.02,0,0,1,.879-1.682,3,3,0,0,1,.885-.4,8.668,8.668,0,0,1,1.094-.185,11.209,11.209,0,0,0,2.194-.424c0-.169.007-.276.007-.321a1.354,1.354,0,0,0-.349-1.059,2.054,2.054,0,0,0-1.4-.417,2.175,2.175,0,0,0-1.282.3,1.852,1.852,0,0,0-.612,1.076l-1.2-.164a2.994,2.994,0,0,1,.54-1.248,2.36,2.36,0,0,1,1.087-.73,4.815,4.815,0,0,1,1.647-.257,4.355,4.355,0,0,1,1.511.219,1.979,1.979,0,0,1,.855.55,1.951,1.951,0,0,1,.383.837,6.945,6.945,0,0,1,.061,1.135v1.641a17.25,17.25,0,0,0,.079,2.17,2.73,2.73,0,0,0,.311.872H264.27A2.658,2.658,0,0,1,264.023,265.9Zm-.1-2.748a8.992,8.992,0,0,1-2.01.465,4.544,4.544,0,0,0-1.073.246,1.077,1.077,0,0,0-.485.4,1.035,1.035,0,0,0-.171.584,1.046,1.046,0,0,0,.373.82,1.6,1.6,0,0,0,1.09.328,2.538,2.538,0,0,0,1.264-.31,1.937,1.937,0,0,0,.814-.852,2.973,2.973,0,0,0,.2-1.231Z"/>
      <path d="M270.962,269.58V259.538h1.121v.943a2.787,2.787,0,0,1,.9-.831,2.475,2.475,0,0,1,1.209-.276,2.86,2.86,0,0,1,1.641.479,2.934,2.934,0,0,1,1.073,1.35,5.219,5.219,0,0,1-.037,3.916,3.043,3.043,0,0,1-2.765,1.843,2.313,2.313,0,0,1-1.1-.26,2.508,2.508,0,0,1-.8-.656v3.534Zm1.114-6.371a3.158,3.158,0,0,0,.568,2.071,1.737,1.737,0,0,0,1.374.67,1.777,1.777,0,0,0,1.4-.694,3.283,3.283,0,0,0,.585-2.15,3.212,3.212,0,0,0-.571-2.078,1.717,1.717,0,0,0-1.364-.69,1.771,1.771,0,0,0-1.39.734A3.283,3.283,0,0,0,272.076,263.209Z"/>
      <path d="M283.506,266.8v-1.067a2.656,2.656,0,0,1-2.3,1.231,2.938,2.938,0,0,1-1.2-.246,1.97,1.97,0,0,1-.826-.618,2.312,2.312,0,0,1-.38-.913,6.268,6.268,0,0,1-.075-1.149v-4.5h1.23v4.026a7.28,7.28,0,0,0,.075,1.3,1.279,1.279,0,0,0,.493.762,1.515,1.515,0,0,0,.929.277,2.024,2.024,0,0,0,1.039-.283,1.573,1.573,0,0,0,.687-.773,3.86,3.86,0,0,0,.2-1.418v-3.89h1.23v7.26Z"/>
      <path d="M287.669,266.8h-1.142V256.776h1.231v3.576a2.43,2.43,0,0,1,1.989-.978,3.043,3.043,0,0,1,1.269.271,2.592,2.592,0,0,1,.984.757,3.668,3.668,0,0,1,.6,1.18,4.863,4.863,0,0,1,.219,1.477,4.142,4.142,0,0,1-.923,2.884,2.882,2.882,0,0,1-2.214,1.019,2.311,2.311,0,0,1-2.017-1.073Zm-.014-3.685a3.755,3.755,0,0,0,.356,1.887,1.759,1.759,0,0,0,2.967.25,3.193,3.193,0,0,0,.587-2.089,3.243,3.243,0,0,0-.563-2.1,1.717,1.717,0,0,0-1.364-.677,1.77,1.77,0,0,0-1.395.7A3.083,3.083,0,0,0,287.655,263.113Z"/>
      <path d="M294.293,266.8V256.776h1.23V266.8Z"/>
      <path d="M297.438,258.191v-1.415h1.23v1.415Zm0,8.607v-7.26h1.23v7.26Z"/>
      <path d="M300.548,266.8V256.776h1.23v5.715l2.912-2.953h1.593l-2.775,2.693,3.055,4.567h-1.517l-2.4-3.712-.868.834V266.8Z"/>
      <path d="M312.3,266.8v-1.067a2.656,2.656,0,0,1-2.3,1.231,2.938,2.938,0,0,1-1.2-.246,1.97,1.97,0,0,1-.826-.618,2.312,2.312,0,0,1-.38-.913,6.268,6.268,0,0,1-.075-1.149v-4.5h1.23v4.026a7.28,7.28,0,0,0,.075,1.3,1.274,1.274,0,0,0,.493.762,1.515,1.515,0,0,0,.929.277,2.024,2.024,0,0,0,1.039-.283,1.573,1.573,0,0,0,.687-.773,3.86,3.86,0,0,0,.2-1.418v-3.89h1.23v7.26Z"/>
      <path d="M313.762,269.614l.232-1.046a2.416,2.416,0,0,0,.581.1.651.651,0,0,0,.561-.25,2.547,2.547,0,0,0,.184-1.247v-7.629h1.231v7.656a3.589,3.589,0,0,1-.349,1.867,1.627,1.627,0,0,1-1.476.683A3.549,3.549,0,0,1,313.762,269.614Zm1.558-11.409v-1.429h1.231v1.429Z"/>
      <path d="M321.124,265.7l.178,1.087a4.566,4.566,0,0,1-.93.11,2.12,2.12,0,0,1-1.039-.212,1.2,1.2,0,0,1-.52-.557,4.42,4.42,0,0,1-.15-1.453V260.5h-.9v-.957h.9v-1.8l1.224-.738v2.536h1.237v.957h-1.237v4.245a2.164,2.164,0,0,0,.064.677.5.5,0,0,0,.213.239.82.82,0,0,0,.42.089A4,4,0,0,0,321.124,265.7Z"/>
      <path d="M327.3,264.46l1.271.157a3.11,3.11,0,0,1-1.114,1.73,3.774,3.774,0,0,1-4.6-.367,3.834,3.834,0,0,1-.933-2.751,4.01,4.01,0,0,1,.943-2.843,3.193,3.193,0,0,1,2.448-1.012,3.109,3.109,0,0,1,2.379.991,3.937,3.937,0,0,1,.922,2.789c0,.073,0,.182-.006.328h-5.415a2.789,2.789,0,0,0,.677,1.832,2.016,2.016,0,0,0,1.518.636,1.882,1.882,0,0,0,1.155-.355A2.376,2.376,0,0,0,327.3,264.46Zm-4.04-1.989h4.054a2.451,2.451,0,0,0-.465-1.374,1.889,1.889,0,0,0-1.525-.711,1.951,1.951,0,0,0-1.425.567A2.249,2.249,0,0,0,323.257,262.471Z"/>
      <path d="M333.545,263.168a3.74,3.74,0,0,1,1.121-2.987,3.377,3.377,0,0,1,2.283-.807,3.254,3.254,0,0,1,2.447.981,3.733,3.733,0,0,1,.951,2.71,4.794,4.794,0,0,1-.421,2.2,2.978,2.978,0,0,1-1.223,1.248,3.57,3.57,0,0,1-1.754.444,3.263,3.263,0,0,1-2.465-.978A3.9,3.9,0,0,1,333.545,263.168Zm1.265,0a3.087,3.087,0,0,0,.608,2.088,2.026,2.026,0,0,0,3.056,0,3.168,3.168,0,0,0,.608-2.126,3.006,3.006,0,0,0-.611-2.041,2.031,2.031,0,0,0-3.053,0A3.075,3.075,0,0,0,334.81,263.168Z"/>
      <path d="M342.924,266.8h-1.142V256.776h1.231v3.576a2.43,2.43,0,0,1,1.989-.978,3.031,3.031,0,0,1,1.268.271,2.577,2.577,0,0,1,.984.757,3.67,3.67,0,0,1,.6,1.18,4.832,4.832,0,0,1,.219,1.477,4.142,4.142,0,0,1-.923,2.884,2.883,2.883,0,0,1-2.215,1.019,2.313,2.313,0,0,1-2.016-1.073Zm-.014-3.685a3.766,3.766,0,0,0,.356,1.887,1.759,1.759,0,0,0,2.966.25,3.182,3.182,0,0,0,.588-2.089,3.231,3.231,0,0,0-.564-2.1,1.713,1.713,0,0,0-1.363-.677,1.771,1.771,0,0,0-1.395.7A3.072,3.072,0,0,0,342.91,263.113Z"/>
      <path d="M349.083,264.631l1.217-.192a1.7,1.7,0,0,0,.571,1.122,1.992,1.992,0,0,0,1.309.389,1.928,1.928,0,0,0,1.258-.345,1.033,1.033,0,0,0,.41-.81.748.748,0,0,0-.363-.656,5.336,5.336,0,0,0-1.257-.417,11.447,11.447,0,0,1-1.876-.591,1.8,1.8,0,0,1-1.064-1.665,1.88,1.88,0,0,1,.222-.9,1.993,1.993,0,0,1,.605-.686,2.522,2.522,0,0,1,.783-.359,3.721,3.721,0,0,1,1.063-.147,4.2,4.2,0,0,1,1.5.246,2.03,2.03,0,0,1,.954.667,2.588,2.588,0,0,1,.424,1.124l-1.2.164a1.314,1.314,0,0,0-.476-.875,1.734,1.734,0,0,0-1.11-.314,2.01,2.01,0,0,0-1.21.28.816.816,0,0,0-.362.656.675.675,0,0,0,.15.431,1.09,1.09,0,0,0,.472.328c.123.046.485.15,1.087.315a14.879,14.879,0,0,1,1.821.571,1.832,1.832,0,0,1,.81.645,1.805,1.805,0,0,1,.294,1.053,2.078,2.078,0,0,1-.358,1.159,2.318,2.318,0,0,1-1.036.84,3.758,3.758,0,0,1-1.531.3,3.414,3.414,0,0,1-2.158-.588A2.739,2.739,0,0,1,349.083,264.631Z"/>
      <path d="M361.313,265.9a4.606,4.606,0,0,1-1.317.821,3.785,3.785,0,0,1-1.356.239,2.632,2.632,0,0,1-1.839-.585,1.929,1.929,0,0,1-.643-1.493,2.02,2.02,0,0,1,.879-1.682,3,3,0,0,1,.885-.4,8.668,8.668,0,0,1,1.094-.185,11.209,11.209,0,0,0,2.194-.424c0-.169.007-.276.007-.321a1.354,1.354,0,0,0-.349-1.059,2.054,2.054,0,0,0-1.4-.417,2.169,2.169,0,0,0-1.281.3,1.847,1.847,0,0,0-.613,1.076l-1.2-.164a2.994,2.994,0,0,1,.54-1.248,2.36,2.36,0,0,1,1.087-.73,4.821,4.821,0,0,1,1.648-.257,4.353,4.353,0,0,1,1.51.219,1.979,1.979,0,0,1,.855.55,1.951,1.951,0,0,1,.383.837,6.945,6.945,0,0,1,.061,1.135v1.641a17.25,17.25,0,0,0,.079,2.17,2.73,2.73,0,0,0,.311.872h-1.285A2.635,2.635,0,0,1,361.313,265.9Zm-.1-2.748a8.992,8.992,0,0,1-2.01.465,4.544,4.544,0,0,0-1.073.246,1.077,1.077,0,0,0-.485.4,1.035,1.035,0,0,0-.171.584,1.046,1.046,0,0,0,.373.82,1.6,1.6,0,0,0,1.09.328,2.538,2.538,0,0,0,1.264-.31,1.937,1.937,0,0,0,.814-.852,2.957,2.957,0,0,0,.2-1.231Z"/>
      <path d="M364.361,266.8V256.776h1.231v3.6a2.75,2.75,0,0,1,2.174-1,2.941,2.941,0,0,1,1.4.317,1.873,1.873,0,0,1,.851.879,4.046,4.046,0,0,1,.256,1.627v4.6h-1.23v-4.6a1.909,1.909,0,0,0-.4-1.343,1.492,1.492,0,0,0-1.132-.42,1.994,1.994,0,0,0-1.029.283,1.6,1.6,0,0,0-.687.769,3.531,3.531,0,0,0-.205,1.34V266.8Z"/>
    </g>
    <g>
      <path d="M299.725,121.362q.606.175,1.4.361a7.558,7.558,0,0,0,1.7.183,3.357,3.357,0,0,0,1.4-.256.96.96,0,0,0,.55-.961,1.417,1.417,0,0,0-.391-.943,5.836,5.836,0,0,0-.992-.88q-.6-.432-1.289-.88a13.95,13.95,0,0,1-1.287-.944,5.429,5.429,0,0,1-.992-1.056,2.12,2.12,0,0,1-.392-1.248,2.2,2.2,0,0,1,.312-1.208,2.33,2.33,0,0,1,.84-.784,3.96,3.96,0,0,1,1.248-.424,8.711,8.711,0,0,1,1.536-.128c.234,0,.48.008.735.025s.5.034.745.054.461.049.664.081.379.064.528.1l-.144,1.28q-.24-.048-.56-.095c-.213-.033-.435-.063-.664-.089s-.459-.048-.688-.064-.435-.024-.616-.024c-.32,0-.614.014-.88.04a2.26,2.26,0,0,0-.688.168.959.959,0,0,0-.609.96,1.188,1.188,0,0,0,.393.832,6.371,6.371,0,0,0,.984.8q.592.4,1.28.84a11.078,11.078,0,0,1,1.28.953,5.146,5.146,0,0,1,.983,1.127,2.493,2.493,0,0,1,.393,1.368,2.61,2.61,0,0,1-.264,1.224,2.153,2.153,0,0,1-.744.816,3.3,3.3,0,0,1-1.16.448,7.614,7.614,0,0,1-1.5.136,8.918,8.918,0,0,1-1.864-.184q-.857-.184-1.464-.376Z"/>
      <path d="M315.26,122.689q-.721.179-1.649.321a11.245,11.245,0,0,1-1.695.144,5.287,5.287,0,0,1-1.424-.183,2.709,2.709,0,0,1-1.152-.657,3.165,3.165,0,0,1-.776-1.255,5.977,5.977,0,0,1-.281-1.985,5.4,5.4,0,0,1,.281-1.872,3.215,3.215,0,0,1,.76-1.216,2.788,2.788,0,0,1,1.127-.664,4.749,4.749,0,0,1,1.4-.2,6.044,6.044,0,0,1,.888.064q.423.064.888.16v-4.032h1.632Zm-1.615-6.095a8.631,8.631,0,0,0-.866-.176,5.819,5.819,0,0,0-.863-.064,2.382,2.382,0,0,0-.76.121,1.387,1.387,0,0,0-.625.431,2.267,2.267,0,0,0-.416.832,4.891,4.891,0,0,0-.151,1.336,6.115,6.115,0,0,0,.136,1.416,2.309,2.309,0,0,0,.392.88,1.287,1.287,0,0,0,.623.448,2.687,2.687,0,0,0,.832.12,6.657,6.657,0,0,0,.849-.055c.288-.038.57-.083.849-.137Z"/>
      <path d="M317.947,122.994v-7.712h1.617v7.712Zm.129-9.1,1.375-2.577h1.793l-1.84,2.577Z"/>
      <path d="M322.316,122.994v-11.68h1.616v11.68Z"/>
      <path d="M327.8,119.6a4.045,4.045,0,0,0,.143,1.016,1.678,1.678,0,0,0,.416.728,1.8,1.8,0,0,0,.769.432,4.306,4.306,0,0,0,1.216.144c.17,0,.357-.008.56-.024s.4-.041.6-.072.384-.064.559-.1.324-.064.441-.095l.144,1.183a10.538,10.538,0,0,1-1.129.233,8.879,8.879,0,0,1-1.351.1,7.321,7.321,0,0,1-1.664-.175,2.956,2.956,0,0,1-1.28-.633,3,3,0,0,1-.824-1.232,5.589,5.589,0,0,1-.3-1.975,6.193,6.193,0,0,1,.248-1.889,3.1,3.1,0,0,1,.712-1.24,2.683,2.683,0,0,1,1.128-.68,4.94,4.94,0,0,1,1.481-.208,3.849,3.849,0,0,1,1.408.232,2.654,2.654,0,0,1,.983.648,2.541,2.541,0,0,1,.577,1.008,4.487,4.487,0,0,1,.184,1.328V119.6Zm3.471-1.12q0-2.223-1.648-2.224a1.544,1.544,0,0,0-1.327.56,3.063,3.063,0,0,0-.48,1.664Z"/>
      <path d="M336.891,121.074a.751.751,0,0,0,.255.649,1.135,1.135,0,0,0,.673.183,4.269,4.269,0,0,0,.769-.072,6.444,6.444,0,0,0,.672-.152l.047,1.216a4.45,4.45,0,0,1-.8.192,5.972,5.972,0,0,1-.881.064,2.738,2.738,0,0,1-1.695-.5,1.914,1.914,0,0,1-.657-1.632v-4.544h-1.263v-1.2h1.263l.368-2.223h1.248v2.223h2.24v1.2h-2.24Z"/>
    </g>
    <g>
      <path d="M314.858,226.333c.231-3.425.941-16.878-1.071-25.614" fill="none" stroke="#000" stroke-miterlimit="10"/>
      <polygon points="318.429 203.133 317.852 203.951 313.827 201.104 311.281 205.327 310.424 204.809 313.526 199.666 318.429 203.133"/>
    </g>
    <g>
      <path d="M187.858,226.333c.231-3.425.941-16.878-1.071-25.614" fill="none" stroke="#000" stroke-miterlimit="10"/>
      <polygon points="191.429 203.133 190.852 203.951 186.827 201.104 184.281 205.327 183.424 204.809 186.526 199.666 191.429 203.133"/>
    </g>
    <path d="M334.336,160.961,316.51,178.629V167.543a26.654,26.654,0,0,0-6.721,1.715,25.015,25.015,0,0,0-5.762,3.23,23.621,23.621,0,0,0-4.527,4.465,20.581,20.581,0,0,0-3.011,5.424,18.8,18.8,0,0,1-1.236-6.7,19.223,19.223,0,0,1,1.615-7.8,21.444,21.444,0,0,1,4.467-6.561,24.893,24.893,0,0,1,6.739-4.785,26.232,26.232,0,0,1,8.436-2.472V143.295ZM319.7,156.934l-2.791.318a23.21,23.21,0,0,0-6.461,1.717,21.756,21.756,0,0,0-5.5,3.369,19.266,19.266,0,0,0-4.067,4.746,16.786,16.786,0,0,0-2.193,5.883,26.723,26.723,0,0,1,7.716-5.725,30.386,30.386,0,0,1,9.711-2.89l3.589-.44v7.061l10.09-10.012-10.09-10.01Z" fill="#5b5d5e"/>
  </g>
  <g>
    <g>
      <path d="M400.605,239.976h1.327v5.79a6.845,6.845,0,0,1-.342,2.4,2.929,2.929,0,0,1-1.235,1.446,4.367,4.367,0,0,1-2.34.557,4.81,4.81,0,0,1-2.3-.485,2.767,2.767,0,0,1-1.278-1.405,6.7,6.7,0,0,1-.383-2.512v-5.79h1.326v5.783a5.635,5.635,0,0,0,.243,1.925,1.839,1.839,0,0,0,.834.953,2.892,2.892,0,0,0,1.445.335,2.764,2.764,0,0,0,2.085-.663,3.819,3.819,0,0,0,.622-2.55Z"/>
      <path d="M403.333,250v-1l4.621-5.305q-.786.042-1.388.041h-2.96v-1h5.934v.814l-3.931,4.607-.758.841c.551-.041,1.069-.061,1.551-.061h3.357V250Zm3.438-8.914.752-1.162h1.395l-1.538,1.914h-1.313l-1.476-1.914H406Z"/>
      <path d="M410.989,241.391v-1.415h1.231v1.415Zm0,8.606v-7.26h1.231V250Z"/>
      <path d="M416.109,250l-2.761-7.26h1.3l1.559,4.348q.252.705.465,1.463.163-.575.458-1.381l1.613-4.43h1.265L417.258,250Z"/>
      <path d="M425.83,249.1a4.562,4.562,0,0,1-1.316.82,3.786,3.786,0,0,1-1.357.239,2.636,2.636,0,0,1-1.839-.584,1.933,1.933,0,0,1-.642-1.494,2.02,2.02,0,0,1,.879-1.682,3.011,3.011,0,0,1,.884-.4,9.127,9.127,0,0,1,1.094-.185,11.237,11.237,0,0,0,2.195-.423c0-.168.006-.276.006-.322a1.359,1.359,0,0,0-.348-1.059,2.062,2.062,0,0,0-1.4-.417,2.171,2.171,0,0,0-1.281.3,1.858,1.858,0,0,0-.612,1.077l-1.2-.164a2.978,2.978,0,0,1,.54-1.247,2.356,2.356,0,0,1,1.087-.732,4.836,4.836,0,0,1,1.647-.257,4.363,4.363,0,0,1,1.511.219,1.97,1.97,0,0,1,.854.551,1.923,1.923,0,0,1,.383.837,6.913,6.913,0,0,1,.062,1.134v1.641a17.27,17.27,0,0,0,.079,2.171,2.738,2.738,0,0,0,.31.871h-1.285A2.636,2.636,0,0,1,425.83,249.1Zm-.1-2.748a9.029,9.029,0,0,1-2.01.464,4.758,4.758,0,0,0-1.073.246,1.079,1.079,0,0,0-.486.4,1.086,1.086,0,0,0,.2,1.4,1.6,1.6,0,0,0,1.09.328,2.539,2.539,0,0,0,1.265-.31,1.92,1.92,0,0,0,.813-.852,2.949,2.949,0,0,0,.2-1.23Z"/>
      <path d="M431.565,248.9l.178,1.087a4.5,4.5,0,0,1-.93.11,2.111,2.111,0,0,1-1.039-.212,1.184,1.184,0,0,1-.519-.557,4.383,4.383,0,0,1-.151-1.453v-4.177h-.9v-.957h.9v-1.8l1.224-.738v2.536h1.237v.957h-1.237v4.245a2.145,2.145,0,0,0,.065.677.506.506,0,0,0,.212.239.812.812,0,0,0,.42.089A3.826,3.826,0,0,0,431.565,248.9Z"/>
      <path d="M437.738,247.659l1.272.157a3.1,3.1,0,0,1-1.114,1.73,3.778,3.778,0,0,1-4.605-.365,3.841,3.841,0,0,1-.933-2.752,4.013,4.013,0,0,1,.944-2.844,3.194,3.194,0,0,1,2.447-1.012,3.106,3.106,0,0,1,2.379.991,3.943,3.943,0,0,1,.923,2.79c0,.073,0,.182-.007.328H433.63a2.786,2.786,0,0,0,.677,1.832,2.014,2.014,0,0,0,1.517.635,1.882,1.882,0,0,0,1.155-.355A2.348,2.348,0,0,0,437.738,247.659Zm-4.04-1.989h4.054a2.459,2.459,0,0,0-.465-1.374,1.886,1.886,0,0,0-1.524-.711,1.953,1.953,0,0,0-1.425.567A2.246,2.246,0,0,0,433.7,245.67Z"/>
      <path d="M440.527,250V239.976h1.231V250Z"/>
      <path d="M443.173,247.83l1.217-.191a1.7,1.7,0,0,0,.571,1.121,1.985,1.985,0,0,0,1.309.389,1.929,1.929,0,0,0,1.257-.344,1.033,1.033,0,0,0,.411-.811.75.75,0,0,0-.363-.656,5.382,5.382,0,0,0-1.258-.417,11.514,11.514,0,0,1-1.876-.591,1.79,1.79,0,0,1-1.063-1.665,1.867,1.867,0,0,1,.222-.9,1.981,1.981,0,0,1,.6-.688,2.511,2.511,0,0,1,.783-.358,3.681,3.681,0,0,1,1.063-.148,4.2,4.2,0,0,1,1.5.246,2.042,2.042,0,0,1,.954.667,2.608,2.608,0,0,1,.424,1.124l-1.2.164a1.317,1.317,0,0,0-.476-.875,1.74,1.74,0,0,0-1.11-.314,2.017,2.017,0,0,0-1.21.28.818.818,0,0,0-.363.656.672.672,0,0,0,.151.431,1.07,1.07,0,0,0,.471.328q.186.069,1.087.315a15.093,15.093,0,0,1,1.822.571,1.832,1.832,0,0,1,.81.646,1.8,1.8,0,0,1,.294,1.052,2.075,2.075,0,0,1-.358,1.159,2.32,2.32,0,0,1-1.036.841,3.762,3.762,0,0,1-1.532.3,3.407,3.407,0,0,1-2.157-.588A2.732,2.732,0,0,1,443.173,247.83Z"/>
      <path d="M450.672,250V239.976h1.23v5.714l2.912-2.953h1.593l-2.775,2.694L456.688,250H455.17l-2.4-3.712-.869.834V250Z"/>
      <path d="M462.4,249.1a4.562,4.562,0,0,1-1.316.82,3.786,3.786,0,0,1-1.357.239,2.634,2.634,0,0,1-1.838-.584,1.931,1.931,0,0,1-.643-1.494,2.02,2.02,0,0,1,.879-1.682,3.029,3.029,0,0,1,.885-.4,9.066,9.066,0,0,1,1.093-.185,11.221,11.221,0,0,0,2.195-.423c0-.168.007-.276.007-.322a1.359,1.359,0,0,0-.349-1.059,2.059,2.059,0,0,0-1.4-.417,2.175,2.175,0,0,0-1.282.3,1.858,1.858,0,0,0-.612,1.077l-1.2-.164a2.978,2.978,0,0,1,.54-1.247,2.356,2.356,0,0,1,1.087-.732,4.84,4.84,0,0,1,1.647-.257,4.359,4.359,0,0,1,1.511.219,1.98,1.98,0,0,1,.855.551,1.933,1.933,0,0,1,.382.837,6.913,6.913,0,0,1,.062,1.134v1.641a17.27,17.27,0,0,0,.079,2.171,2.716,2.716,0,0,0,.311.871h-1.286A2.636,2.636,0,0,1,462.4,249.1Zm-.1-2.748a9,9,0,0,1-2.01.464,4.758,4.758,0,0,0-1.073.246,1.085,1.085,0,0,0-.486.4,1.088,1.088,0,0,0,.2,1.4,1.6,1.6,0,0,0,1.089.328,2.539,2.539,0,0,0,1.265-.31,1.922,1.922,0,0,0,.814-.852,2.968,2.968,0,0,0,.2-1.23Zm-2.393-4.519.909-1.914h1.614l-1.5,1.914Z"/>
      <path d="M469.341,252.779V242.737h1.121v.944a2.769,2.769,0,0,1,.9-.83,2.457,2.457,0,0,1,1.21-.278,2.868,2.868,0,0,1,1.641.479,2.939,2.939,0,0,1,1.073,1.35,4.922,4.922,0,0,1,.363,1.911,4.858,4.858,0,0,1-.4,2.006,3.025,3.025,0,0,1-1.162,1.368,2.992,2.992,0,0,1-1.6.474,2.3,2.3,0,0,1-1.1-.26,2.5,2.5,0,0,1-.8-.656v3.534Zm1.114-6.371a3.162,3.162,0,0,0,.567,2.071,1.737,1.737,0,0,0,1.374.67,1.779,1.779,0,0,0,1.4-.693,3.292,3.292,0,0,0,.585-2.15,3.2,3.2,0,0,0-.572-2.078,1.716,1.716,0,0,0-1.363-.691,1.769,1.769,0,0,0-1.39.735A3.28,3.28,0,0,0,470.455,246.408Z"/>
      <path d="M476.669,246.367a3.743,3.743,0,0,1,1.121-2.987,3.382,3.382,0,0,1,2.283-.807,3.257,3.257,0,0,1,2.448.982,3.731,3.731,0,0,1,.95,2.71,4.824,4.824,0,0,1-.42,2.205,2.981,2.981,0,0,1-1.225,1.247,3.55,3.55,0,0,1-1.753.444,3.26,3.26,0,0,1-2.464-.977A3.9,3.9,0,0,1,476.669,246.367Zm1.265,0a3.1,3.1,0,0,0,.608,2.089,2.027,2.027,0,0,0,3.056,0,3.163,3.163,0,0,0,.608-2.126,3,3,0,0,0-.612-2.04,2.029,2.029,0,0,0-3.052,0A3.084,3.084,0,0,0,477.934,246.367Z"/>
      <path d="M489.623,250v-.916a2.257,2.257,0,0,1-2.03,1.08,2.85,2.85,0,0,1-1.6-.478,3.154,3.154,0,0,1-1.127-1.336,4.62,4.62,0,0,1-.4-1.973,5.169,5.169,0,0,1,.362-1.972,2.86,2.86,0,0,1,1.087-1.357,2.9,2.9,0,0,1,1.62-.472,2.416,2.416,0,0,1,1.169.278,2.443,2.443,0,0,1,.834.72v-3.595h1.224V250Zm-3.89-3.623a3.157,3.157,0,0,0,.588,2.085,1.771,1.771,0,0,0,1.388.69,1.742,1.742,0,0,0,1.371-.659,3.047,3.047,0,0,0,.564-2.013,3.413,3.413,0,0,0-.575-2.188,1.764,1.764,0,0,0-1.415-.7,1.7,1.7,0,0,0-1.371.67A3.313,3.313,0,0,0,485.733,246.374Z"/>
      <path d="M492.7,252.779V242.737h1.121v.944a2.752,2.752,0,0,1,.9-.83,2.454,2.454,0,0,1,1.21-.278,2.869,2.869,0,0,1,1.64.479,2.934,2.934,0,0,1,1.074,1.35,4.94,4.94,0,0,1,.362,1.911,4.842,4.842,0,0,1-.4,2.006,3.015,3.015,0,0,1-1.163,1.368,2.984,2.984,0,0,1-1.6.474,2.314,2.314,0,0,1-1.1-.26,2.487,2.487,0,0,1-.8-.656v3.534Zm1.114-6.371a3.15,3.15,0,0,0,.568,2.071,1.737,1.737,0,0,0,1.374.67,1.78,1.78,0,0,0,1.405-.693,3.3,3.3,0,0,0,.584-2.15,3.21,3.21,0,0,0-.57-2.078,1.722,1.722,0,0,0-1.364-.691,1.773,1.773,0,0,0-1.392.735A3.3,3.3,0,0,0,493.813,246.408Z"/>
      <path d="M500.027,246.367a3.74,3.74,0,0,1,1.121-2.987,3.383,3.383,0,0,1,2.284-.807,3.253,3.253,0,0,1,2.447.982,3.731,3.731,0,0,1,.95,2.71,4.8,4.8,0,0,1-.421,2.205,2.968,2.968,0,0,1-1.222,1.247,3.564,3.564,0,0,1-1.754.444,3.264,3.264,0,0,1-2.465-.977A3.908,3.908,0,0,1,500.027,246.367Zm1.265,0a3.092,3.092,0,0,0,.608,2.089,2.027,2.027,0,0,0,3.056,0,3.168,3.168,0,0,0,.608-2.126,3,3,0,0,0-.611-2.04,2.03,2.03,0,0,0-3.053,0A3.079,3.079,0,0,0,501.292,246.367Z"/>
      <path d="M508.258,250v-7.26h1.107v1.1a3,3,0,0,1,.783-1.019,1.365,1.365,0,0,1,.79-.246,2.4,2.4,0,0,1,1.264.4l-.424,1.141a1.763,1.763,0,0,0-.9-.266,1.171,1.171,0,0,0-.725.243,1.323,1.323,0,0,0-.458.673,4.812,4.812,0,0,0-.2,1.435V250Z"/>
      <path d="M517.671,249.1a4.589,4.589,0,0,1-1.316.82,3.794,3.794,0,0,1-1.357.239,2.64,2.64,0,0,1-1.839-.584,1.927,1.927,0,0,1-.642-1.494,2.029,2.029,0,0,1,.878-1.682,3.029,3.029,0,0,1,.885-.4,9.09,9.09,0,0,1,1.094-.185,11.208,11.208,0,0,0,2.194-.423c0-.168.007-.276.007-.322a1.359,1.359,0,0,0-.348-1.059,2.062,2.062,0,0,0-1.4-.417,2.173,2.173,0,0,0-1.282.3,1.863,1.863,0,0,0-.611,1.077l-1.2-.164a2.965,2.965,0,0,1,.54-1.247,2.358,2.358,0,0,1,1.086-.732,4.854,4.854,0,0,1,1.648-.257,4.355,4.355,0,0,1,1.511.219,1.989,1.989,0,0,1,.854.551,1.923,1.923,0,0,1,.383.837,6.913,6.913,0,0,1,.062,1.134v1.641a17.56,17.56,0,0,0,.078,2.171,2.716,2.716,0,0,0,.311.871h-1.285A2.591,2.591,0,0,1,517.671,249.1Zm-.1-2.748a9.032,9.032,0,0,1-2.009.464,4.784,4.784,0,0,0-1.074.246,1.056,1.056,0,0,0-.656.985,1.049,1.049,0,0,0,.372.82,1.6,1.6,0,0,0,1.091.328,2.542,2.542,0,0,0,1.265-.31,1.914,1.914,0,0,0,.813-.852,2.968,2.968,0,0,0,.2-1.23Z"/>
      <path d="M521.041,250v-1.4h1.4V250a2.48,2.48,0,0,1-.273,1.248,1.778,1.778,0,0,1-.868.734l-.342-.526a1.161,1.161,0,0,0,.574-.5,2.137,2.137,0,0,0,.205-.954Z"/>
      <path d="M397.758,269.579V259.537h1.121v.943a2.772,2.772,0,0,1,.9-.83,2.464,2.464,0,0,1,1.209-.277,2.87,2.87,0,0,1,1.641.479,2.934,2.934,0,0,1,1.074,1.35,4.938,4.938,0,0,1,.362,1.91,4.85,4.85,0,0,1-.4,2.007,3.04,3.04,0,0,1-2.765,1.842,2.3,2.3,0,0,1-1.1-.26,2.519,2.519,0,0,1-.8-.656v3.534Zm1.115-6.371a3.162,3.162,0,0,0,.566,2.071,1.738,1.738,0,0,0,1.375.67,1.78,1.78,0,0,0,1.4-.693,3.3,3.3,0,0,0,.584-2.151,3.208,3.208,0,0,0-.571-2.078,1.718,1.718,0,0,0-1.363-.69,1.771,1.771,0,0,0-1.391.735A3.284,3.284,0,0,0,398.873,263.208Z"/>
      <path d="M405.086,263.167a3.743,3.743,0,0,1,1.121-2.987,3.384,3.384,0,0,1,2.283-.807,3.258,3.258,0,0,1,2.448.981,3.735,3.735,0,0,1,.951,2.71,4.814,4.814,0,0,1-.421,2.206,2.978,2.978,0,0,1-1.224,1.247,3.564,3.564,0,0,1-1.754.444,3.259,3.259,0,0,1-2.464-.978A3.9,3.9,0,0,1,405.086,263.167Zm1.266,0a3.1,3.1,0,0,0,.607,2.089,2.028,2.028,0,0,0,3.057,0,3.168,3.168,0,0,0,.607-2.126,3,3,0,0,0-.611-2.04,2.03,2.03,0,0,0-3.053,0A3.082,3.082,0,0,0,406.352,263.167Z"/>
      <path d="M418.041,266.8v-.916a2.258,2.258,0,0,1-2.031,1.08,2.84,2.84,0,0,1-1.6-.479,3.145,3.145,0,0,1-1.128-1.336,4.627,4.627,0,0,1-.4-1.972,5.169,5.169,0,0,1,.361-1.972,2.857,2.857,0,0,1,1.088-1.357,2.9,2.9,0,0,1,1.619-.472,2.431,2.431,0,0,1,1.17.277,2.456,2.456,0,0,1,.834.721v-3.6h1.223V266.8Zm-3.891-3.623a3.157,3.157,0,0,0,.588,2.085,1.774,1.774,0,0,0,1.389.69,1.742,1.742,0,0,0,1.37-.659,3.043,3.043,0,0,0,.564-2.014,3.412,3.412,0,0,0-.575-2.187,1.762,1.762,0,0,0-1.414-.7,1.7,1.7,0,0,0-1.371.67A3.306,3.306,0,0,0,414.15,263.174Z"/>
      <path d="M421.117,269.579V259.537h1.121v.943a2.77,2.77,0,0,1,.895-.83,2.469,2.469,0,0,1,1.211-.277,2.869,2.869,0,0,1,1.64.479,2.939,2.939,0,0,1,1.073,1.35,4.92,4.92,0,0,1,.363,1.91,4.866,4.866,0,0,1-.4,2.007,3.019,3.019,0,0,1-1.163,1.367,2.98,2.98,0,0,1-1.6.475,2.31,2.31,0,0,1-1.1-.26,2.489,2.489,0,0,1-.8-.656v3.534Zm1.113-6.371a3.15,3.15,0,0,0,.569,2.071,1.735,1.735,0,0,0,1.373.67,1.779,1.779,0,0,0,1.4-.693,3.293,3.293,0,0,0,.585-2.151,3.214,3.214,0,0,0-.571-2.078,1.718,1.718,0,0,0-1.364-.69,1.771,1.771,0,0,0-1.391.735A3.29,3.29,0,0,0,422.23,263.208Z"/>
      <path d="M428.445,263.167a3.74,3.74,0,0,1,1.121-2.987,3.381,3.381,0,0,1,2.284-.807,3.257,3.257,0,0,1,2.447.981,3.734,3.734,0,0,1,.949,2.71,4.815,4.815,0,0,1-.42,2.206,2.97,2.97,0,0,1-1.223,1.247,3.571,3.571,0,0,1-1.753.444,3.26,3.26,0,0,1-2.465-.978A3.9,3.9,0,0,1,428.445,263.167Zm1.264,0a3.092,3.092,0,0,0,.609,2.089,2.026,2.026,0,0,0,3.055,0,3.163,3.163,0,0,0,.609-2.126,3,3,0,0,0-.612-2.04,2.029,2.029,0,0,0-3.052,0A3.077,3.077,0,0,0,429.709,263.167Z"/>
      <path d="M436.676,266.8v-7.26h1.107v1.1a3,3,0,0,1,.782-1.019,1.37,1.37,0,0,1,.79-.246,2.4,2.4,0,0,1,1.264.4l-.424,1.141a1.753,1.753,0,0,0-.9-.266,1.173,1.173,0,0,0-.725.243,1.305,1.305,0,0,0-.457.673,4.812,4.812,0,0,0-.2,1.435v3.8Z"/>
      <path d="M446.088,265.9a4.558,4.558,0,0,1-1.316.821,3.785,3.785,0,0,1-1.356.239,2.641,2.641,0,0,1-1.84-.584,1.931,1.931,0,0,1-.642-1.494,2.026,2.026,0,0,1,.879-1.682,2.986,2.986,0,0,1,.884-.4,8.927,8.927,0,0,1,1.094-.185,11.131,11.131,0,0,0,2.195-.424q.006-.252.006-.321a1.359,1.359,0,0,0-.347-1.059,2.065,2.065,0,0,0-1.4-.417,2.169,2.169,0,0,0-1.281.3,1.854,1.854,0,0,0-.611,1.076l-1.2-.164a3,3,0,0,1,.54-1.247,2.367,2.367,0,0,1,1.087-.731,4.844,4.844,0,0,1,1.647-.257,4.365,4.365,0,0,1,1.512.219,1.978,1.978,0,0,1,.853.551,1.912,1.912,0,0,1,.383.836,6.919,6.919,0,0,1,.062,1.135v1.641a17.281,17.281,0,0,0,.079,2.171,2.738,2.738,0,0,0,.31.871h-1.285A2.635,2.635,0,0,1,446.088,265.9Zm-.1-2.748a8.966,8.966,0,0,1-2.009.465,4.686,4.686,0,0,0-1.075.246,1.069,1.069,0,0,0-.484.4,1.084,1.084,0,0,0,.2,1.4,1.6,1.6,0,0,0,1.09.328,2.545,2.545,0,0,0,1.266-.31,1.917,1.917,0,0,0,.812-.852,2.954,2.954,0,0,0,.2-1.231Z"/>
      <path d="M457.764,265.9a4.558,4.558,0,0,1-1.316.821,3.788,3.788,0,0,1-1.356.239,2.641,2.641,0,0,1-1.84-.584,1.932,1.932,0,0,1-.643-1.494,1.983,1.983,0,0,1,.244-.974,2.013,2.013,0,0,1,.635-.708,3,3,0,0,1,.885-.4,8.892,8.892,0,0,1,1.094-.185,11.147,11.147,0,0,0,2.195-.424q.006-.252.006-.321a1.355,1.355,0,0,0-.348-1.059,2.06,2.06,0,0,0-1.4-.417,2.169,2.169,0,0,0-1.281.3,1.855,1.855,0,0,0-.612,1.076l-1.2-.164a3,3,0,0,1,.539-1.247,2.37,2.37,0,0,1,1.088-.731,4.844,4.844,0,0,1,1.647-.257,4.355,4.355,0,0,1,1.511.219,1.982,1.982,0,0,1,.854.551,1.924,1.924,0,0,1,.383.836,6.919,6.919,0,0,1,.062,1.135v1.641a17.571,17.571,0,0,0,.078,2.171,2.765,2.765,0,0,0,.311.871H458.01A2.635,2.635,0,0,1,457.764,265.9Zm-.1-2.748a8.964,8.964,0,0,1-2.01.465,4.674,4.674,0,0,0-1.074.246,1.069,1.069,0,0,0-.484.4,1.039,1.039,0,0,0-.172.584,1.049,1.049,0,0,0,.373.82,1.6,1.6,0,0,0,1.09.328,2.542,2.542,0,0,0,1.265-.31,1.914,1.914,0,0,0,.813-.852,2.954,2.954,0,0,0,.2-1.231Z"/>
      <path d="M464.709,266.8V256.775h1.23v5.715l2.913-2.953h1.593l-2.775,2.693,3.055,4.567h-1.518l-2.4-3.712-.87.834V266.8Z"/>
      <path d="M471.244,263.167a3.743,3.743,0,0,1,1.121-2.987,3.384,3.384,0,0,1,2.283-.807,3.258,3.258,0,0,1,2.448.981,3.735,3.735,0,0,1,.951,2.71,4.814,4.814,0,0,1-.421,2.206,2.972,2.972,0,0,1-1.224,1.247,3.564,3.564,0,0,1-1.754.444,3.257,3.257,0,0,1-2.463-.978A3.9,3.9,0,0,1,471.244,263.167Zm1.266,0a3.1,3.1,0,0,0,.607,2.089,2.028,2.028,0,0,0,3.057,0,3.168,3.168,0,0,0,.607-2.126,3,3,0,0,0-.611-2.04,2.03,2.03,0,0,0-3.053,0A3.082,3.082,0,0,0,472.51,263.167Z"/>
      <path d="M479.488,266.8v-7.26h1.1v1.019a2.555,2.555,0,0,1,2.2-1.183,2.387,2.387,0,0,1,1.322.335,1.8,1.8,0,0,1,.729.937,2.605,2.605,0,0,1,2.242-1.272,2.2,2.2,0,0,1,1.66.6,2.55,2.55,0,0,1,.582,1.841V266.8H488.1v-4.573a3.323,3.323,0,0,0-.12-1.063,1.033,1.033,0,0,0-.433-.523,1.358,1.358,0,0,0-.738-.2,1.717,1.717,0,0,0-1.272.51,2.238,2.238,0,0,0-.506,1.63V266.8H483.8V262.08a2.076,2.076,0,0,0-.3-1.23,1.139,1.139,0,0,0-.984-.411,1.792,1.792,0,0,0-.961.274,1.553,1.553,0,0,0-.639.8,4.478,4.478,0,0,0-.2,1.517V266.8Z"/>
      <path d="M495.908,266.8V265.73a2.653,2.653,0,0,1-2.3,1.231,2.941,2.941,0,0,1-1.2-.246,1.973,1.973,0,0,1-.827-.618,2.311,2.311,0,0,1-.379-.913,6.158,6.158,0,0,1-.076-1.149v-4.5h1.231v4.026a7.059,7.059,0,0,0,.076,1.3,1.278,1.278,0,0,0,.492.763,1.52,1.52,0,0,0,.93.276,2.03,2.03,0,0,0,1.039-.283,1.578,1.578,0,0,0,.686-.772,3.888,3.888,0,0,0,.2-1.419v-3.89h1.231v7.26Z"/>
      <path d="M498.938,266.8v-7.26h1.107v1.032a2.61,2.61,0,0,1,2.31-1.2,3.036,3.036,0,0,1,1.207.236,1.907,1.907,0,0,1,.823.619,2.378,2.378,0,0,1,.383.909,7.121,7.121,0,0,1,.068,1.2V266.8h-1.231v-4.416a3.311,3.311,0,0,0-.142-1.124,1.182,1.182,0,0,0-.51-.6,1.619,1.619,0,0,0-.857-.223,2,2,0,0,0-1.358.5,2.461,2.461,0,0,0-.57,1.894V266.8Z"/>
      <path d="M506.73,258.19v-1.415h1.231v1.415Zm0,8.607v-7.26h1.231v7.26Z"/>
      <path d="M512.52,265.7l.177,1.087a4.549,4.549,0,0,1-.929.11,2.106,2.106,0,0,1-1.039-.212,1.186,1.186,0,0,1-.52-.557,4.42,4.42,0,0,1-.15-1.453v-4.177h-.9v-.957h.9v-1.8l1.224-.738v2.536h1.237v.957h-1.237v4.245a2.149,2.149,0,0,0,.065.677.5.5,0,0,0,.212.239.81.81,0,0,0,.42.089A3.826,3.826,0,0,0,512.52,265.7Z"/>
      <path d="M513.668,269.593l-.137-1.155a2.746,2.746,0,0,0,.705.109,1.343,1.343,0,0,0,.657-.137,1.116,1.116,0,0,0,.4-.383,5.963,5.963,0,0,0,.377-.916c.022-.068.058-.168.109-.3l-2.756-7.274h1.327l1.511,4.2q.294.8.526,1.682a16.5,16.5,0,0,1,.506-1.654l1.552-4.232h1.231l-2.762,7.383a14.5,14.5,0,0,1-.691,1.647,2.419,2.419,0,0,1-.752.893,1.784,1.784,0,0,1-1.012.283A2.477,2.477,0,0,1,513.668,269.593Z"/>
      <path d="M436.371,283.6v-1.067a2.655,2.655,0,0,1-2.3,1.231,2.941,2.941,0,0,1-1.2-.246,1.963,1.963,0,0,1-.826-.62,2.3,2.3,0,0,1-.38-.912,6.27,6.27,0,0,1-.075-1.148v-4.5h1.23v4.026a7.168,7.168,0,0,0,.076,1.3,1.282,1.282,0,0,0,.492.762,1.528,1.528,0,0,0,.929.277,2.029,2.029,0,0,0,1.04-.284,1.574,1.574,0,0,0,.686-.772,3.864,3.864,0,0,0,.2-1.418v-3.89h1.231v7.26Z"/>
      <path d="M438.75,283.6v-1l4.621-5.305q-.784.041-1.388.041h-2.96v-1h5.934v.813l-3.931,4.608-.758.841c.55-.041,1.068-.062,1.551-.062h3.357v1.06Zm3.438-8.914.752-1.163h1.395l-1.538,1.915h-1.313l-1.476-1.915h1.408Z"/>
      <path d="M446.406,274.991v-1.415h1.231v1.415Zm0,8.607v-7.26h1.231v7.26Z"/>
      <path d="M451.526,283.6l-2.761-7.26h1.3l1.559,4.348c.169.468.323.957.465,1.462.109-.382.263-.843.458-1.38l1.613-4.43h1.265l-2.748,7.26Z"/>
      <path d="M461.247,282.7a4.607,4.607,0,0,1-1.315.82,3.8,3.8,0,0,1-1.358.24,2.645,2.645,0,0,1-1.839-.585,1.931,1.931,0,0,1-.642-1.493,2.025,2.025,0,0,1,.878-1.682,2.953,2.953,0,0,1,.885-.4,8.552,8.552,0,0,1,1.094-.185,11.3,11.3,0,0,0,2.195-.424c0-.169.006-.276.006-.321a1.36,1.36,0,0,0-.348-1.06,2.062,2.062,0,0,0-1.4-.417,2.182,2.182,0,0,0-1.282.3,1.868,1.868,0,0,0-.611,1.077l-1.2-.164a2.981,2.981,0,0,1,.54-1.248,2.369,2.369,0,0,1,1.087-.731,4.845,4.845,0,0,1,1.647-.256,4.332,4.332,0,0,1,1.511.219,1.99,1.99,0,0,1,.854.549,1.932,1.932,0,0,1,.383.838,6.911,6.911,0,0,1,.062,1.135v1.641a17.551,17.551,0,0,0,.078,2.17,2.763,2.763,0,0,0,.311.872h-1.285A2.6,2.6,0,0,1,461.247,282.7Zm-.1-2.748a9.105,9.105,0,0,1-2.01.465,4.544,4.544,0,0,0-1.073.246,1.049,1.049,0,0,0-.657.984,1.049,1.049,0,0,0,.372.821,1.611,1.611,0,0,0,1.091.328,2.532,2.532,0,0,0,1.265-.312,1.915,1.915,0,0,0,.813-.85,2.98,2.98,0,0,0,.2-1.231Z"/>
      <path d="M466.982,282.5l.178,1.087a4.623,4.623,0,0,1-.93.109,2.109,2.109,0,0,1-1.039-.212,1.179,1.179,0,0,1-.519-.557,4.4,4.4,0,0,1-.151-1.452V277.3h-.9v-.957h.9v-1.8l1.224-.738v2.536h1.237v.957h-1.237v4.245a2.116,2.116,0,0,0,.066.677.521.521,0,0,0,.21.239.827.827,0,0,0,.421.089A4.138,4.138,0,0,0,466.982,282.5Z"/>
      <path d="M473.155,281.26l1.272.157a3.1,3.1,0,0,1-1.114,1.729,3.771,3.771,0,0,1-4.6-.366,3.827,3.827,0,0,1-.934-2.751,4.007,4.007,0,0,1,.944-2.843,3.192,3.192,0,0,1,2.447-1.012,3.1,3.1,0,0,1,2.379.991,3.937,3.937,0,0,1,.923,2.789c0,.072,0,.182-.007.328h-5.414a2.786,2.786,0,0,0,.677,1.832,2.012,2.012,0,0,0,1.517.636,1.886,1.886,0,0,0,1.155-.355A2.362,2.362,0,0,0,473.155,281.26Zm-4.04-1.989h4.054a2.462,2.462,0,0,0-.465-1.375,1.882,1.882,0,0,0-1.524-.71,1.955,1.955,0,0,0-1.426.567A2.245,2.245,0,0,0,469.115,279.271Z"/>
      <path d="M475.944,283.6V273.576h1.231V283.6Z"/>
      <path d="M483.84,283.6v-1.067a2.656,2.656,0,0,1-2.3,1.231,2.938,2.938,0,0,1-1.2-.246,1.956,1.956,0,0,1-.826-.62,2.3,2.3,0,0,1-.38-.912,6.27,6.27,0,0,1-.075-1.148v-4.5h1.23v4.026a7.3,7.3,0,0,0,.075,1.3,1.288,1.288,0,0,0,.493.762,1.528,1.528,0,0,0,.929.277,2.025,2.025,0,0,0,1.039-.284,1.571,1.571,0,0,0,.687-.772,3.864,3.864,0,0,0,.2-1.418v-3.89h1.23v7.26Zm-3.069-9.147a1.169,1.169,0,0,1,.366-.861,1.213,1.213,0,0,1,1.732,0,1.268,1.268,0,0,1,0,1.774,1.217,1.217,0,0,1-1.736,0A1.241,1.241,0,0,1,480.771,274.451Zm.519.007a.735.735,0,0,0,.216.54.7.7,0,0,0,1.017,0,.718.718,0,0,0,.216-.526.732.732,0,0,0-.212-.527.684.684,0,0,0-.512-.218.692.692,0,0,0-.509.214A.7.7,0,0,0,481.29,274.458Z"/>
    </g>
    <g>
      <path d="M425.877,122.994v-10.64h1.344l5.807,6.224v-6.224h1.632v10.64h-1.632v-2.4l-5.536-5.856v8.256Z"/>
      <path d="M443.429,122.61q-.609.177-1.464.361a8.753,8.753,0,0,1-1.832.183,5.771,5.771,0,0,1-1.248-.128,2.75,2.75,0,0,1-1-.424,2.045,2.045,0,0,1-.664-.776,2.674,2.674,0,0,1-.241-1.2,2.177,2.177,0,0,1,.264-1.12,2.1,2.1,0,0,1,.7-.72,2.938,2.938,0,0,1,1.009-.384,6.311,6.311,0,0,1,1.2-.112c.342,0,.649.014.92.04s.52.062.745.1v-.752a1.114,1.114,0,0,0-.52-1.08,2.74,2.74,0,0,0-1.305-.28,6.794,6.794,0,0,0-1.119.1q-.578.1-1.024.192l-.113-1.215c.342-.075.717-.139,1.128-.193a9.269,9.269,0,0,1,1.208-.08,6.719,6.719,0,0,1,1.288.12,3,3,0,0,1,1.073.416,2.209,2.209,0,0,1,.727.776,2.4,2.4,0,0,1,.273,1.2Zm-1.616-3.008c-.225-.042-.469-.077-.737-.1s-.538-.04-.815-.04a4.488,4.488,0,0,0-.664.048,1.552,1.552,0,0,0-.544.183.982.982,0,0,0-.368.385,1.342,1.342,0,0,0-.136.649,1.079,1.079,0,0,0,.472,1.015,2.2,2.2,0,0,0,1.143.28,6.02,6.02,0,0,0,.9-.064c.284-.042.532-.091.745-.143Zm-2.209-5.711,1.376-2.577h1.792l-1.839,2.577Z"/>
      <path d="M445.924,126V115.715a14.7,14.7,0,0,1,1.656-.416,8.965,8.965,0,0,1,1.721-.177,4.877,4.877,0,0,1,1.424.2,2.84,2.84,0,0,1,1.143.664,3.1,3.1,0,0,1,.76,1.216,5.483,5.483,0,0,1,.272,1.857,6.1,6.1,0,0,1-.28,2.007,3.172,3.172,0,0,1-.761,1.256,2.626,2.626,0,0,1-1.111.649,4.844,4.844,0,0,1-1.352.183,7.287,7.287,0,0,1-.953-.064c-.324-.043-.626-.09-.9-.144V126Zm1.616-4.287c.3.053.592.1.88.142a5.844,5.844,0,0,0,.864.065,2.493,2.493,0,0,0,.792-.119,1.3,1.3,0,0,0,.615-.441,2.241,2.241,0,0,0,.393-.872,6.054,6.054,0,0,0,.137-1.416,5.566,5.566,0,0,0-.137-1.359,2.061,2.061,0,0,0-.393-.832,1.285,1.285,0,0,0-.615-.416,2.706,2.706,0,0,0-.808-.113,4.153,4.153,0,0,0-.424.024c-.155.017-.312.035-.472.056s-.311.045-.456.072-.27.057-.376.088Z"/>
      <path d="M458.148,123.154a3.656,3.656,0,0,1-2.7-.944,5.471,5.471,0,0,1,0-6.144,4.356,4.356,0,0,1,5.416,0,5.428,5.428,0,0,1,0,6.144A3.684,3.684,0,0,1,458.148,123.154Zm-1.456-1.808a1.352,1.352,0,0,0,.624.448,2.563,2.563,0,0,0,.848.128,2.489,2.489,0,0,0,.84-.128,1.361,1.361,0,0,0,.616-.448,2.156,2.156,0,0,0,.384-.856,7.149,7.149,0,0,0,0-2.7,2.169,2.169,0,0,0-.384-.856,1.376,1.376,0,0,0-.616-.448,2.489,2.489,0,0,0-.84-.128,2.563,2.563,0,0,0-.848.128,1.366,1.366,0,0,0-.624.448,2.155,2.155,0,0,0-.383.856,7.149,7.149,0,0,0,0,2.7A2.142,2.142,0,0,0,456.692,121.346Z"/>
      <path d="M465.717,122.994l-2.977-7.712h1.68l2.336,6.336q.591-1.215,1.209-2.776a16.977,16.977,0,0,0,.935-3.56h1.472a17.326,17.326,0,0,1-1.056,4.04,28.02,28.02,0,0,1-1.792,3.672Z"/>
      <path d="M473,119.6a4,4,0,0,0,.145,1.016,1.63,1.63,0,0,0,.416.728,1.78,1.78,0,0,0,.767.432,4.315,4.315,0,0,0,1.216.144c.171,0,.357-.008.56-.024s.4-.041.6-.072.384-.064.56-.1.322-.064.44-.095l.144,1.183a10.567,10.567,0,0,1-1.128.233,8.9,8.9,0,0,1-1.353.1,7.324,7.324,0,0,1-1.663-.175,2.956,2.956,0,0,1-1.28-.633,3,3,0,0,1-.824-1.232,5.591,5.591,0,0,1-.3-1.975,6.225,6.225,0,0,1,.248-1.889,3.083,3.083,0,0,1,.712-1.24,2.668,2.668,0,0,1,1.129-.68,4.912,4.912,0,0,1,1.479-.208,3.84,3.84,0,0,1,1.407.232,2.678,2.678,0,0,1,.985.648,2.551,2.551,0,0,1,.576,1.008,4.455,4.455,0,0,1,.184,1.328V119.6Zm1.072-5.711-1.632-2.577h1.392l1.008,1.665.992-1.665H477.2l-1.632,2.577Zm2.4,4.591q0-2.223-1.648-2.224a1.547,1.547,0,0,0-1.328.56,3.088,3.088,0,0,0-.48,1.664Z"/>
      <path d="M486.564,122.689q-.72.179-1.648.321a11.266,11.266,0,0,1-1.695.144,5.284,5.284,0,0,1-1.425-.183,2.7,2.7,0,0,1-1.151-.657,3.156,3.156,0,0,1-.777-1.255,6.005,6.005,0,0,1-.28-1.985,5.426,5.426,0,0,1,.28-1.872,3.24,3.24,0,0,1,.76-1.216,2.778,2.778,0,0,1,1.128-.664,4.733,4.733,0,0,1,1.4-.2,6.034,6.034,0,0,1,.888.064c.282.043.579.1.888.16v-4.032h1.632Zm-1.616-6.095a8.537,8.537,0,0,0-.864-.176,5.839,5.839,0,0,0-.863-.064,2.388,2.388,0,0,0-.761.121,1.384,1.384,0,0,0-.624.431,2.252,2.252,0,0,0-.416.832,4.848,4.848,0,0,0-.152,1.336,6.06,6.06,0,0,0,.136,1.416,2.309,2.309,0,0,0,.392.88,1.289,1.289,0,0,0,.624.448,2.678,2.678,0,0,0,.832.12,6.642,6.642,0,0,0,.848-.055c.289-.038.57-.083.848-.137Z"/>
      <path d="M495,122.61c-.406.118-.893.238-1.465.361a8.737,8.737,0,0,1-1.831.183,5.771,5.771,0,0,1-1.248-.128,2.758,2.758,0,0,1-1-.424,2.045,2.045,0,0,1-.664-.776,2.674,2.674,0,0,1-.24-1.2,2.167,2.167,0,0,1,.265-1.12,2.093,2.093,0,0,1,.695-.72,2.932,2.932,0,0,1,1.008-.384,6.329,6.329,0,0,1,1.2-.112c.341,0,.647.014.92.04s.52.062.744.1v-.752a1.111,1.111,0,0,0-.521-1.08,2.728,2.728,0,0,0-1.3-.28,6.809,6.809,0,0,0-1.121.1q-.576.1-1.024.192L489.3,115.4c.341-.075.718-.139,1.128-.193a9.246,9.246,0,0,1,1.208-.08,6.719,6.719,0,0,1,1.288.12,3.021,3.021,0,0,1,1.072.416,2.215,2.215,0,0,1,.729.776,2.422,2.422,0,0,1,.271,1.2ZM493.38,119.6c-.224-.042-.47-.077-.735-.1s-.54-.04-.817-.04a4.508,4.508,0,0,0-.664.048,1.552,1.552,0,0,0-.544.183.982.982,0,0,0-.368.385,1.342,1.342,0,0,0-.136.649,1.079,1.079,0,0,0,.472,1.015,2.2,2.2,0,0,0,1.144.28,6.01,6.01,0,0,0,.9-.064c.282-.042.53-.091.744-.143Z"/>
    </g>
    <g>
      <path d="M455.586,226.333c-.231-3.438.873-18.388,5.018-27.361" fill="none" stroke="#000" stroke-miterlimit="10"/>
      <polygon points="463.088 203.658 462.145 203.993 460.497 199.346 455.982 201.329 455.58 200.413 461.08 197.998 463.088 203.658"/>
    </g>
    <path d="M458.318,143.295a19,19,0,0,1,7.618,1.535,19.662,19.662,0,0,1,10.388,10.389,19.666,19.666,0,0,1,0,15.234,19.662,19.662,0,0,1-10.388,10.389,19.669,19.669,0,0,1-15.235,0,19.653,19.653,0,0,1-10.388-10.389,19.643,19.643,0,0,1,0-15.234A19.653,19.653,0,0,1,450.7,144.83,18.978,18.978,0,0,1,458.318,143.295Zm0,35.893a15.9,15.9,0,0,0,6.381-1.3,16.615,16.615,0,0,0,5.2-3.51,16.417,16.417,0,0,0,3.49-5.184,16.425,16.425,0,0,0-.02-12.742,16.659,16.659,0,0,0-3.51-5.205,16.423,16.423,0,0,0-5.184-3.488,16.4,16.4,0,0,0-12.741.019,16.624,16.624,0,0,0-5.206,3.51,16.414,16.414,0,0,0-3.489,5.184,16.425,16.425,0,0,0,.02,12.742,16.657,16.657,0,0,0,3.509,5.2,16.422,16.422,0,0,0,5.185,3.488A15.926,15.926,0,0,0,458.318,179.188Zm-.12-29.711a12.389,12.389,0,0,1,4.626.757,8.708,8.708,0,0,1,2.991,1.895,6.814,6.814,0,0,1,1.6,2.451,7.179,7.179,0,0,1,.479,2.434,9.329,9.329,0,0,1-.28,2.453,7.321,7.321,0,0,1-.737,1.795,6.346,6.346,0,0,1-1.036,1.336,13.6,13.6,0,0,1-1.217,1.037q-.639.477-1.256.877a8.1,8.1,0,0,0-1.136.877,5.3,5.3,0,0,0-.9,1.076,3.641,3.641,0,0,0-.5,1.476h-5.3a8.247,8.247,0,0,1,.419-2.234,7.5,7.5,0,0,1,.818-1.674,8.415,8.415,0,0,1,1.036-1.277,10.224,10.224,0,0,1,1.157-1l.239-.2q.519-.44,1-.838a5.5,5.5,0,0,0,.837-.858,3.534,3.534,0,0,0,.559-1.017,3.912,3.912,0,0,0,.2-1.317,3.5,3.5,0,0,0-.877-2.631,3.381,3.381,0,0,0-2.432-.837,3.8,3.8,0,0,0-1.8.4,3.651,3.651,0,0,0-1.256,1.076,4.625,4.625,0,0,0-.738,1.6,7.706,7.706,0,0,0-.24,1.955h-5.7a11.21,11.21,0,0,1,.719-3.869,8.908,8.908,0,0,1,1.914-3.031,8.792,8.792,0,0,1,2.951-1.995A9.943,9.943,0,0,1,458.2,149.477Zm-2.672,21.455h5.3V176.2h-5.3Z" fill="#5b5d5e"/>
  </g>
</svg>
