<svg xmlns="http://www.w3.org/2000/svg" viewBox="0 0 560 380">
  <g>
    <path d="M58.3,244v-8.839H55v-1.182H62.94v1.182H59.625V244Z"/>
    <path d="M62.134,240.367a3.743,3.743,0,0,1,1.121-2.987,3.384,3.384,0,0,1,2.283-.807,3.251,3.251,0,0,1,2.447.982,3.727,3.727,0,0,1,.951,2.71,4.811,4.811,0,0,1-.42,2.205,2.984,2.984,0,0,1-1.224,1.247,3.556,3.556,0,0,1-1.754.444,3.26,3.26,0,0,1-2.464-.977A3.9,3.9,0,0,1,62.134,240.367Zm1.264,0a3.1,3.1,0,0,0,.609,2.089,2.027,2.027,0,0,0,3.056,0,3.163,3.163,0,0,0,.608-2.126,3,3,0,0,0-.611-2.04,2.03,2.03,0,0,0-3.053,0A3.084,3.084,0,0,0,63.4,240.367Z"/>
    <path d="M75.136,244v-1.066a2.657,2.657,0,0,1-2.3,1.23,2.933,2.933,0,0,1-1.2-.246,1.967,1.967,0,0,1-.827-.618,2.312,2.312,0,0,1-.38-.913,6.26,6.26,0,0,1-.075-1.149v-4.5h1.23v4.027a7.2,7.2,0,0,0,.075,1.3,1.285,1.285,0,0,0,.492.762,1.524,1.524,0,0,0,.93.277,2.025,2.025,0,0,0,1.039-.284,1.582,1.582,0,0,0,.688-.772,3.913,3.913,0,0,0,.2-1.419v-3.89h1.23V244Z"/>
    <path d="M80.851,242.9l.177,1.087a4.48,4.48,0,0,1-.929.11,2.106,2.106,0,0,1-1.039-.212,1.186,1.186,0,0,1-.52-.557,4.42,4.42,0,0,1-.15-1.453v-4.177h-.9v-.957h.9v-1.8l1.223-.738v2.536h1.238v.957H79.613v4.245a2.1,2.1,0,0,0,.066.677.5.5,0,0,0,.212.239.808.808,0,0,0,.42.089A3.838,3.838,0,0,0,80.851,242.9Z"/>
    <path d="M87.023,241.659l1.272.157a3.092,3.092,0,0,1-1.114,1.73,3.777,3.777,0,0,1-4.6-.365,3.837,3.837,0,0,1-.933-2.752,4.013,4.013,0,0,1,.943-2.844,3.2,3.2,0,0,1,2.447-1.012,3.106,3.106,0,0,1,2.379.991,3.943,3.943,0,0,1,.923,2.79c0,.073,0,.182-.007.328H82.915a2.8,2.8,0,0,0,.677,1.832,2.014,2.014,0,0,0,1.517.635,1.883,1.883,0,0,0,1.156-.355A2.347,2.347,0,0,0,87.023,241.659Zm-4.04-1.989h4.054a2.459,2.459,0,0,0-.465-1.374,1.883,1.883,0,0,0-1.524-.711,1.955,1.955,0,0,0-1.425.567A2.246,2.246,0,0,0,82.983,239.67Z"/>
    <path d="M89.348,241.83l1.216-.191a1.7,1.7,0,0,0,.572,1.121,1.984,1.984,0,0,0,1.308.389,1.928,1.928,0,0,0,1.258-.344,1.032,1.032,0,0,0,.41-.811.747.747,0,0,0-.362-.656,5.364,5.364,0,0,0-1.258-.417,11.548,11.548,0,0,1-1.876-.591,1.79,1.79,0,0,1-1.063-1.665,1.867,1.867,0,0,1,.222-.9,1.991,1.991,0,0,1,.6-.688,2.511,2.511,0,0,1,.783-.358,3.686,3.686,0,0,1,1.063-.148,4.206,4.206,0,0,1,1.5.246,2.044,2.044,0,0,1,.953.667,2.621,2.621,0,0,1,.424,1.124l-1.2.164a1.315,1.315,0,0,0-.474-.875,1.746,1.746,0,0,0-1.112-.314,2.024,2.024,0,0,0-1.21.28.819.819,0,0,0-.362.656.678.678,0,0,0,.151.431,1.07,1.07,0,0,0,.471.328q.184.069,1.087.315a15.033,15.033,0,0,1,1.822.571,1.832,1.832,0,0,1,.81.646,1.8,1.8,0,0,1,.294,1.052,2.067,2.067,0,0,1-.358,1.159,2.317,2.317,0,0,1-1.037.841,3.754,3.754,0,0,1-1.531.3,3.4,3.4,0,0,1-2.156-.588A2.724,2.724,0,0,1,89.348,241.83Z"/>
    <path d="M27.168,260.8V250.775H28.4V260.8Z"/>
    <path d="M35.275,258.459l1.272.157a3.1,3.1,0,0,1-1.114,1.73,3.775,3.775,0,0,1-4.6-.366,3.833,3.833,0,0,1-.933-2.751,4.013,4.013,0,0,1,.943-2.844,3.2,3.2,0,0,1,2.447-1.012,3.106,3.106,0,0,1,2.379.991,3.941,3.941,0,0,1,.923,2.789c0,.074,0,.183-.007.328H31.167a2.787,2.787,0,0,0,.677,1.832,2.015,2.015,0,0,0,1.517.636,1.883,1.883,0,0,0,1.156-.355A2.352,2.352,0,0,0,35.275,258.459Zm-4.04-1.989h4.054a2.454,2.454,0,0,0-.465-1.374,1.883,1.883,0,0,0-1.524-.711,1.955,1.955,0,0,0-1.425.567A2.246,2.246,0,0,0,31.235,256.47Z"/>
    <path d="M37.6,258.63l1.216-.192a1.7,1.7,0,0,0,.572,1.122,1.989,1.989,0,0,0,1.308.389,1.922,1.922,0,0,0,1.258-.345,1.03,1.03,0,0,0,.41-.81.747.747,0,0,0-.362-.656,5.315,5.315,0,0,0-1.258-.417,11.548,11.548,0,0,1-1.876-.591,1.792,1.792,0,0,1-1.063-1.665,1.874,1.874,0,0,1,.222-.9,2,2,0,0,1,.6-.687,2.511,2.511,0,0,1,.783-.358,3.686,3.686,0,0,1,1.063-.148,4.206,4.206,0,0,1,1.5.246,2.044,2.044,0,0,1,.953.667,2.6,2.6,0,0,1,.423,1.124l-1.2.164a1.319,1.319,0,0,0-.474-.875,1.746,1.746,0,0,0-1.112-.314,2.024,2.024,0,0,0-1.21.28.819.819,0,0,0-.362.656.68.68,0,0,0,.151.431,1.07,1.07,0,0,0,.471.328c.123.046.486.15,1.087.315a14.851,14.851,0,0,1,1.822.571,1.837,1.837,0,0,1,.81.645,1.808,1.808,0,0,1,.294,1.053,2.067,2.067,0,0,1-.358,1.159,2.317,2.317,0,0,1-1.037.841,3.771,3.771,0,0,1-1.531.3,3.4,3.4,0,0,1-2.156-.588A2.729,2.729,0,0,1,37.6,258.63Z"/>
    <path d="M48.988,252.19v-1.415h1.231v1.415Zm0,8.607v-7.26h1.231v7.26Z"/>
    <path d="M52.092,260.8v-7.26H53.2v1.032a2.611,2.611,0,0,1,2.311-1.2,3.04,3.04,0,0,1,1.207.236,1.907,1.907,0,0,1,.823.619,2.347,2.347,0,0,1,.383.909,7.013,7.013,0,0,1,.068,1.2V260.8h-1.23v-4.416a3.3,3.3,0,0,0-.144-1.124,1.18,1.18,0,0,0-.509-.595,1.622,1.622,0,0,0-.858-.223,1.994,1.994,0,0,0-1.356.5,2.461,2.461,0,0,0-.572,1.894V260.8Z"/>
    <path d="M60.172,260.8v-6.3H59.085v-.957h1.087v-.772a3.4,3.4,0,0,1,.13-1.087,1.578,1.578,0,0,1,.626-.776,2.255,2.255,0,0,1,1.254-.3,6.028,6.028,0,0,1,1.148.124l-.184,1.073a4.189,4.189,0,0,0-.725-.069,1.082,1.082,0,0,0-.793.24,1.3,1.3,0,0,0-.232.895v.67h1.415v.957H61.4v6.3Z"/>
    <path d="M63.31,257.167a3.743,3.743,0,0,1,1.121-2.987,3.382,3.382,0,0,1,2.283-.807,3.256,3.256,0,0,1,2.447.981,3.73,3.73,0,0,1,.95,2.71,4.8,4.8,0,0,1-.42,2.206,2.976,2.976,0,0,1-1.223,1.247,3.567,3.567,0,0,1-1.754.444,3.257,3.257,0,0,1-2.464-.978A3.9,3.9,0,0,1,63.31,257.167Zm1.264,0a3.092,3.092,0,0,0,.609,2.089,2.026,2.026,0,0,0,3.055,0,3.157,3.157,0,0,0,.609-2.126,3,3,0,0,0-.612-2.04,2.029,2.029,0,0,0-3.052,0A3.077,3.077,0,0,0,64.574,257.167Z"/>
    <path d="M71.54,260.8v-7.26h1.107v1.1a3.014,3.014,0,0,1,.784-1.019,1.365,1.365,0,0,1,.789-.246,2.4,2.4,0,0,1,1.264.4l-.423,1.141a1.759,1.759,0,0,0-.9-.266,1.17,1.17,0,0,0-.724.243,1.307,1.307,0,0,0-.458.673,4.78,4.78,0,0,0-.2,1.435v3.8Z"/>
    <path d="M76.216,260.8v-7.26h1.1v1.019a2.593,2.593,0,0,1,.91-.858,2.549,2.549,0,0,1,1.292-.325,2.393,2.393,0,0,1,1.323.335,1.789,1.789,0,0,1,.727.937,2.609,2.609,0,0,1,2.243-1.272,2.2,2.2,0,0,1,1.661.6,2.554,2.554,0,0,1,.581,1.841V260.8H84.829v-4.573a3.389,3.389,0,0,0-.119-1.063,1.032,1.032,0,0,0-.435-.523,1.353,1.353,0,0,0-.738-.2,1.718,1.718,0,0,0-1.271.51,2.243,2.243,0,0,0-.506,1.63V260.8H80.529V256.08a2.069,2.069,0,0,0-.3-1.23,1.139,1.139,0,0,0-.985-.411,1.791,1.791,0,0,0-.96.274,1.553,1.553,0,0,0-.639.8,4.5,4.5,0,0,0-.2,1.517V260.8Z"/>
    <path d="M92.615,259.9a4.555,4.555,0,0,1-1.315.821,3.8,3.8,0,0,1-1.358.239,2.637,2.637,0,0,1-1.838-.584,1.932,1.932,0,0,1-.643-1.494,2.026,2.026,0,0,1,.879-1.682,2.992,2.992,0,0,1,.885-.4,8.9,8.9,0,0,1,1.093-.185,11.116,11.116,0,0,0,2.2-.424c0-.168.007-.275.007-.321a1.359,1.359,0,0,0-.349-1.059,2.059,2.059,0,0,0-1.4-.417,2.173,2.173,0,0,0-1.282.3,1.86,1.86,0,0,0-.612,1.076l-1.2-.164a2.989,2.989,0,0,1,.54-1.247,2.367,2.367,0,0,1,1.087-.731,4.844,4.844,0,0,1,1.647-.257,4.355,4.355,0,0,1,1.511.219,1.98,1.98,0,0,1,.855.551,1.923,1.923,0,0,1,.382.836,6.919,6.919,0,0,1,.062,1.135v1.641a17.281,17.281,0,0,0,.079,2.171,2.738,2.738,0,0,0,.31.871H92.861A2.635,2.635,0,0,1,92.615,259.9Zm-.1-2.748a8.964,8.964,0,0,1-2.01.465,4.662,4.662,0,0,0-1.073.246,1.085,1.085,0,0,0-.486.4,1.086,1.086,0,0,0,.2,1.4,1.6,1.6,0,0,0,1.09.328,2.539,2.539,0,0,0,1.265-.31,1.914,1.914,0,0,0,.813-.852,2.954,2.954,0,0,0,.2-1.231Z"/>
    <path d="M98.351,259.7l.177,1.087a4.549,4.549,0,0,1-.929.11,2.106,2.106,0,0,1-1.039-.212,1.186,1.186,0,0,1-.52-.557,4.42,4.42,0,0,1-.15-1.453v-4.177h-.9v-.957h.9v-1.8L97.113,251v2.536h1.238v.957H97.113v4.245a2.108,2.108,0,0,0,.066.677.5.5,0,0,0,.212.239.808.808,0,0,0,.42.089A3.838,3.838,0,0,0,98.351,259.7Z"/>
    <path d="M99.561,252.19v-1.415h1.23v1.415Zm0,8.607v-7.26h1.23v7.26Z"/>
    <path d="M102.206,257.167a3.743,3.743,0,0,1,1.121-2.987,3.384,3.384,0,0,1,2.283-.807,3.258,3.258,0,0,1,2.448.981,3.734,3.734,0,0,1,.95,2.71,4.815,4.815,0,0,1-.42,2.206,2.978,2.978,0,0,1-1.224,1.247,3.567,3.567,0,0,1-1.754.444,3.259,3.259,0,0,1-2.464-.978A3.9,3.9,0,0,1,102.206,257.167Zm1.265,0a3.1,3.1,0,0,0,.608,2.089,2.027,2.027,0,0,0,3.056,0,3.163,3.163,0,0,0,.608-2.126,3,3,0,0,0-.611-2.04,2.03,2.03,0,0,0-3.053,0A3.082,3.082,0,0,0,103.471,257.167Z"/>
    <path d="M110.45,260.8v-7.26h1.108v1.032a2.61,2.61,0,0,1,2.31-1.2,3.036,3.036,0,0,1,1.207.236,1.9,1.9,0,0,1,.823.619,2.347,2.347,0,0,1,.383.909,6.984,6.984,0,0,1,.069,1.2V260.8h-1.231v-4.416a3.332,3.332,0,0,0-.143-1.124,1.185,1.185,0,0,0-.509-.595,1.624,1.624,0,0,0-.859-.223,2,2,0,0,0-1.356.5,2.461,2.461,0,0,0-.571,1.894V260.8Z"/>
    <path d="M117.744,258.63l1.217-.192a1.7,1.7,0,0,0,.571,1.122,1.992,1.992,0,0,0,1.309.389,1.926,1.926,0,0,0,1.258-.345,1.033,1.033,0,0,0,.41-.81.746.746,0,0,0-.363-.656,5.282,5.282,0,0,0-1.257-.417,11.48,11.48,0,0,1-1.876-.591,1.8,1.8,0,0,1-1.064-1.665,1.863,1.863,0,0,1,.223-.9,1.984,1.984,0,0,1,.6-.687,2.529,2.529,0,0,1,.784-.358,3.679,3.679,0,0,1,1.062-.148,4.206,4.206,0,0,1,1.5.246,2.039,2.039,0,0,1,.953.667,2.6,2.6,0,0,1,.424,1.124l-1.2.164a1.32,1.32,0,0,0-.475-.875,1.743,1.743,0,0,0-1.111-.314,2.019,2.019,0,0,0-1.21.28.819.819,0,0,0-.362.656.679.679,0,0,0,.15.431,1.08,1.08,0,0,0,.472.328c.123.046.485.15,1.087.315a14.91,14.91,0,0,1,1.822.571,1.834,1.834,0,0,1,.809.645,1.8,1.8,0,0,1,.294,1.053,2.067,2.067,0,0,1-.358,1.159,2.314,2.314,0,0,1-1.036.841,3.771,3.771,0,0,1-1.531.3,3.405,3.405,0,0,1-2.157-.588A2.733,2.733,0,0,1,117.744,258.63Z"/>
    <path d="M26.867,277.6l-2.762-7.26h1.3l1.559,4.348c.169.468.324.957.465,1.462q.163-.573.458-1.38l1.613-4.43h1.265l-2.748,7.26Z"/>
    <path d="M31.393,273.968a3.744,3.744,0,0,1,1.121-2.988,3.377,3.377,0,0,1,2.283-.806,3.259,3.259,0,0,1,2.447.98,3.733,3.733,0,0,1,.95,2.711,4.79,4.79,0,0,1-.42,2.2,2.973,2.973,0,0,1-1.223,1.248,3.568,3.568,0,0,1-1.754.445,3.261,3.261,0,0,1-2.464-.978A3.9,3.9,0,0,1,31.393,273.968Zm1.264,0a3.089,3.089,0,0,0,.609,2.088,2.025,2.025,0,0,0,3.055,0,3.159,3.159,0,0,0,.609-2.126,3,3,0,0,0-.612-2.041,2.028,2.028,0,0,0-3.052,0A3.075,3.075,0,0,0,32.657,273.968Z"/>
    <path d="M44.4,277.6v-1.067a2.656,2.656,0,0,1-2.3,1.231,2.933,2.933,0,0,1-1.2-.246,1.963,1.963,0,0,1-.828-.62,2.315,2.315,0,0,1-.379-.912,6.249,6.249,0,0,1-.076-1.148v-4.5H40.84v4.026a7.2,7.2,0,0,0,.075,1.3,1.291,1.291,0,0,0,.492.762,1.531,1.531,0,0,0,.93.277,2.025,2.025,0,0,0,1.039-.284,1.571,1.571,0,0,0,.687-.772,3.885,3.885,0,0,0,.2-1.418v-3.89H45.5v7.26Z"/>
    <path d="M46.931,275.431l1.216-.192a1.7,1.7,0,0,0,.572,1.121,1.984,1.984,0,0,0,1.308.39,1.916,1.916,0,0,0,1.258-.346,1.028,1.028,0,0,0,.41-.809.747.747,0,0,0-.362-.657,5.315,5.315,0,0,0-1.258-.417,11.447,11.447,0,0,1-1.876-.591,1.792,1.792,0,0,1-1.063-1.664,1.875,1.875,0,0,1,.222-.9,1.985,1.985,0,0,1,.605-.686,2.533,2.533,0,0,1,.783-.36,3.756,3.756,0,0,1,1.063-.146,4.206,4.206,0,0,1,1.5.246,2.043,2.043,0,0,1,.953.666,2.61,2.61,0,0,1,.424,1.125l-1.2.164a1.31,1.31,0,0,0-.474-.875,1.74,1.74,0,0,0-1.112-.314,2,2,0,0,0-1.209.28.813.813,0,0,0-.363.656.684.684,0,0,0,.151.431,1.087,1.087,0,0,0,.471.328q.184.067,1.087.314a15.219,15.219,0,0,1,1.822.571,1.839,1.839,0,0,1,.81.646,1.8,1.8,0,0,1,.294,1.053,2.064,2.064,0,0,1-.358,1.158,2.324,2.324,0,0,1-1.037.841,3.771,3.771,0,0,1-1.531.3,3.414,3.414,0,0,1-2.156-.588A2.734,2.734,0,0,1,46.931,275.431Z"/>
    <path d="M63.05,274.938l1.21.158a3.14,3.14,0,0,1-1.015,1.958,2.963,2.963,0,0,1-2.007.708,3.113,3.113,0,0,1-2.395-.975A3.946,3.946,0,0,1,57.937,274a5.043,5.043,0,0,1,.389-2.057,2.717,2.717,0,0,1,1.187-1.324,3.513,3.513,0,0,1,1.732-.44,3.016,3.016,0,0,1,1.935.6,2.741,2.741,0,0,1,.964,1.7l-1.2.184a1.979,1.979,0,0,0-.6-1.1,1.569,1.569,0,0,0-1.05-.369,1.91,1.91,0,0,0-1.511.666,3.171,3.171,0,0,0-.581,2.109,3.275,3.275,0,0,0,.561,2.126,1.827,1.827,0,0,0,1.463.663,1.726,1.726,0,0,0,1.21-.444A2.2,2.2,0,0,0,63.05,274.938Z"/>
    <path d="M64.854,273.968a3.744,3.744,0,0,1,1.122-2.988,3.377,3.377,0,0,1,2.283-.806,3.259,3.259,0,0,1,2.447.98,3.733,3.733,0,0,1,.95,2.711,4.79,4.79,0,0,1-.42,2.2,2.973,2.973,0,0,1-1.223,1.248,3.568,3.568,0,0,1-1.754.445,3.261,3.261,0,0,1-2.464-.978A3.9,3.9,0,0,1,64.854,273.968Zm1.265,0a3.089,3.089,0,0,0,.609,2.088,2.025,2.025,0,0,0,3.055,0,3.164,3.164,0,0,0,.609-2.126,3,3,0,0,0-.612-2.041,2.028,2.028,0,0,0-3.052,0A3.075,3.075,0,0,0,66.119,273.968Z"/>
    <path d="M73.1,277.6v-7.26h1.107v1.032a2.609,2.609,0,0,1,2.311-1.2,3.043,3.043,0,0,1,1.207.235,1.892,1.892,0,0,1,.823.619,2.376,2.376,0,0,1,.383.91,6.989,6.989,0,0,1,.068,1.2V277.6h-1.23v-4.416a3.308,3.308,0,0,0-.144-1.125,1.189,1.189,0,0,0-.509-.6,1.622,1.622,0,0,0-.858-.222,1.991,1.991,0,0,0-1.357.5,2.463,2.463,0,0,0-.571,1.894V277.6Z"/>
    <path d="M85.622,274.938l1.21.158a3.14,3.14,0,0,1-1.015,1.958,2.961,2.961,0,0,1-2.006.708,3.115,3.115,0,0,1-2.4-.975A3.95,3.95,0,0,1,80.509,274a5.06,5.06,0,0,1,.389-2.057,2.722,2.722,0,0,1,1.187-1.324,3.513,3.513,0,0,1,1.732-.44,3.016,3.016,0,0,1,1.935.6,2.741,2.741,0,0,1,.964,1.7l-1.2.184a1.986,1.986,0,0,0-.6-1.1,1.569,1.569,0,0,0-1.05-.369,1.91,1.91,0,0,0-1.511.666,3.171,3.171,0,0,0-.581,2.109,3.275,3.275,0,0,0,.561,2.126,1.827,1.827,0,0,0,1.463.663,1.724,1.724,0,0,0,1.21-.444A2.2,2.2,0,0,0,85.622,274.938Z"/>
    <path d="M92.854,275.26l1.272.157a3.1,3.1,0,0,1-1.114,1.729,3.771,3.771,0,0,1-4.6-.366,3.831,3.831,0,0,1-.933-2.751,4.007,4.007,0,0,1,.943-2.843,3.192,3.192,0,0,1,2.447-1.012,3.1,3.1,0,0,1,2.379.991,3.937,3.937,0,0,1,.923,2.789c0,.072,0,.182-.007.328H88.746a2.8,2.8,0,0,0,.677,1.832,2.015,2.015,0,0,0,1.517.636A1.889,1.889,0,0,0,92.1,276.4,2.361,2.361,0,0,0,92.854,275.26Zm-4.04-1.989h4.054A2.454,2.454,0,0,0,92.4,271.9a1.882,1.882,0,0,0-1.524-.71,1.951,1.951,0,0,0-1.425.567A2.241,2.241,0,0,0,88.814,273.271Z"/>
    <path d="M95.657,277.6v-7.26h1.108v1.1a3.008,3.008,0,0,1,.783-1.018,1.365,1.365,0,0,1,.789-.246,2.4,2.4,0,0,1,1.265.4l-.424,1.142a1.761,1.761,0,0,0-.9-.267,1.173,1.173,0,0,0-.724.243,1.321,1.321,0,0,0-.458.673,4.787,4.787,0,0,0-.2,1.436v3.8Z"/>
    <path d="M100.333,277.6v-7.26h1.107v1.032a2.61,2.61,0,0,1,2.311-1.2,3.039,3.039,0,0,1,1.207.235,1.886,1.886,0,0,1,.823.619,2.345,2.345,0,0,1,.383.91,6.989,6.989,0,0,1,.068,1.2V277.6H105v-4.416a3.308,3.308,0,0,0-.144-1.125,1.182,1.182,0,0,0-.508-.6,1.628,1.628,0,0,0-.859-.222,1.991,1.991,0,0,0-1.356.5,2.459,2.459,0,0,0-.572,1.894V277.6Z"/>
    <path d="M112.856,276.7a4.594,4.594,0,0,1-1.315.82,3.794,3.794,0,0,1-1.357.24,2.643,2.643,0,0,1-1.839-.585,1.932,1.932,0,0,1-.643-1.493,2.023,2.023,0,0,1,.879-1.682,2.953,2.953,0,0,1,.885-.4,8.52,8.52,0,0,1,1.094-.185,11.269,11.269,0,0,0,2.194-.424c0-.169.007-.276.007-.321a1.356,1.356,0,0,0-.349-1.06,2.057,2.057,0,0,0-1.4-.417,2.182,2.182,0,0,0-1.282.3,1.863,1.863,0,0,0-.612,1.077l-1.2-.164a2.994,2.994,0,0,1,.54-1.248,2.375,2.375,0,0,1,1.087-.731,4.849,4.849,0,0,1,1.647-.256,4.324,4.324,0,0,1,1.511.219,1.987,1.987,0,0,1,.855.549,1.944,1.944,0,0,1,.383.838,6.945,6.945,0,0,1,.061,1.135v1.641a17.261,17.261,0,0,0,.079,2.17,2.738,2.738,0,0,0,.311.872H113.1A2.664,2.664,0,0,1,112.856,276.7Zm-.1-2.748a9.048,9.048,0,0,1-2.01.465,4.557,4.557,0,0,0-1.073.246,1.079,1.079,0,0,0-.485.4,1.089,1.089,0,0,0,.2,1.406,1.6,1.6,0,0,0,1.09.328,2.528,2.528,0,0,0,1.264-.312,1.917,1.917,0,0,0,.814-.85,2.983,2.983,0,0,0,.2-1.231Z"/>
    <path d="M115.905,277.6v-7.26h1.108v1.032a2.607,2.607,0,0,1,2.31-1.2,3.036,3.036,0,0,1,1.207.235,1.9,1.9,0,0,1,.824.619,2.359,2.359,0,0,1,.382.91,6.96,6.96,0,0,1,.069,1.2V277.6h-1.231v-4.416a3.338,3.338,0,0,0-.143-1.125,1.189,1.189,0,0,0-.509-.6,1.623,1.623,0,0,0-.859-.222,1.991,1.991,0,0,0-1.356.5,2.46,2.46,0,0,0-.571,1.894V277.6Z"/>
    <path d="M126.378,276.5l.178,1.087a4.631,4.631,0,0,1-.93.109,2.109,2.109,0,0,1-1.039-.212,1.191,1.191,0,0,1-.52-.557,4.441,4.441,0,0,1-.15-1.452V271.3h-.9v-.957h.9v-1.8l1.224-.738v2.536h1.237v.957h-1.237v4.245a2.127,2.127,0,0,0,.065.677.515.515,0,0,0,.212.239.82.82,0,0,0,.42.089A4.153,4.153,0,0,0,126.378,276.5Z"/>
  </g>
  <g>
    <path d="M59.913,116.994v-13.3h2.3l4.78,7.18,4.8-7.18h2.28v13.3h-2.06v-10.46l-4.18,6.28h-1.68l-4.16-6.28v10.46Z"/>
    <path d="M79.253,112.754a5.017,5.017,0,0,0,.18,1.269,2.081,2.081,0,0,0,.52.911,2.249,2.249,0,0,0,.96.541,5.428,5.428,0,0,0,1.52.179c.213,0,.446-.009.7-.03s.5-.05.75-.09.48-.08.7-.12.4-.08.55-.12l.18,1.479a12.465,12.465,0,0,1-1.41.291,10.988,10.988,0,0,1-1.69.13,9.171,9.171,0,0,1-2.08-.219,3.692,3.692,0,0,1-1.6-.791,3.751,3.751,0,0,1-1.03-1.539,7.012,7.012,0,0,1-.37-2.471,7.752,7.752,0,0,1,.31-2.36,3.853,3.853,0,0,1,.89-1.55,3.345,3.345,0,0,1,1.41-.85,6.181,6.181,0,0,1,1.85-.26,4.828,4.828,0,0,1,1.76.29,3.351,3.351,0,0,1,1.23.81,3.213,3.213,0,0,1,.72,1.26,5.6,5.6,0,0,1,.23,1.66v1.58Zm4.34-1.4q0-2.779-2.06-2.78a1.934,1.934,0,0,0-1.66.7,3.856,3.856,0,0,0-.6,2.081Z"/>
  </g>
  <g>
    <path d="M78.679,220.333c-3.154-14.56-5.367-14.594-6.7-26.132" fill="none" stroke="#000" stroke-miterlimit="10"/>
    <polygon points="76.478 196.962 75.839 197.733 72.049 194.579 69.18 198.591 68.367 198.008 71.861 193.123 76.478 196.962"/>
  </g>
  <g>
    <path d="M75.27,141.274A16.925,16.925,0,1,1,58.345,158.2,16.943,16.943,0,0,1,75.27,141.274m0-2.8A19.725,19.725,0,1,0,94.994,158.2,19.725,19.725,0,0,0,75.27,138.474Z" fill="#5b5d5e"/>
    <path d="M80.272,157.271a6.664,6.664,0,0,1,1.816,1.04,7.417,7.417,0,0,1,1.419,1.506,7.045,7.045,0,0,1,.937,1.874,6.822,6.822,0,0,1,.337,2.137v4.1A1.15,1.15,0,0,1,83.61,169.1H67.216a1.148,1.148,0,0,1-1.171-1.171v-4.1a6.821,6.821,0,0,1,.336-2.137,7.045,7.045,0,0,1,.937-1.874,7.4,7.4,0,0,1,1.42-1.506,6.659,6.659,0,0,1,1.815-1.04,7.916,7.916,0,0,0,2.269,1.17,8.176,8.176,0,0,0,2.591.411A8.043,8.043,0,0,0,80.272,157.271Zm1.289-6.617a5.99,5.99,0,0,1-.483,2.386,6.167,6.167,0,0,1-3.265,3.279,6.158,6.158,0,0,1-4.786,0,6.122,6.122,0,0,1-3.279-3.279,6.169,6.169,0,0,1,0-4.786,6.167,6.167,0,0,1,3.279-3.265,6.181,6.181,0,0,1,4.786,0,6.214,6.214,0,0,1,3.265,3.265A5.963,5.963,0,0,1,81.561,150.654Z" fill="#5b5d5e"/>
  </g>
  <g>
    <path d="M149.375,240.484l1.326.335a4.468,4.468,0,0,1-1.5,2.492,4.133,4.133,0,0,1-2.649.858,4.758,4.758,0,0,1-2.635-.66,4.116,4.116,0,0,1-1.545-1.91,6.823,6.823,0,0,1-.53-2.687,5.914,5.914,0,0,1,.6-2.731,4.1,4.1,0,0,1,1.7-1.771,4.973,4.973,0,0,1,2.43-.6,4.112,4.112,0,0,1,2.529.765,3.972,3.972,0,0,1,1.429,2.154l-1.306.307a3.094,3.094,0,0,0-1.012-1.593,2.692,2.692,0,0,0-1.668-.5,3.24,3.24,0,0,0-1.931.554,2.919,2.919,0,0,0-1.09,1.486,5.984,5.984,0,0,0-.315,1.925,6.125,6.125,0,0,0,.373,2.232,2.786,2.786,0,0,0,1.159,1.426,3.252,3.252,0,0,0,1.7.471,2.862,2.862,0,0,0,1.887-.642A3.3,3.3,0,0,0,149.375,240.484Z"/>
    <path d="M152.164,244v-7.26h1.107v1.1a2.991,2.991,0,0,1,.783-1.019,1.365,1.365,0,0,1,.789-.246,2.394,2.394,0,0,1,1.265.4l-.424,1.141a1.766,1.766,0,0,0-.9-.266,1.176,1.176,0,0,0-.725.242,1.318,1.318,0,0,0-.458.674,4.78,4.78,0,0,0-.2,1.435V244Z"/>
    <path d="M161.809,241.66l1.272.157a3.1,3.1,0,0,1-1.115,1.73,3.775,3.775,0,0,1-4.6-.366,3.834,3.834,0,0,1-.933-2.751,4.01,4.01,0,0,1,.944-2.844,3.189,3.189,0,0,1,2.447-1.012,3.1,3.1,0,0,1,2.379.991,3.939,3.939,0,0,1,.923,2.789c0,.073,0,.182-.007.329H157.7a2.793,2.793,0,0,0,.676,1.832,2.018,2.018,0,0,0,1.518.635,1.888,1.888,0,0,0,1.155-.355A2.36,2.36,0,0,0,161.809,241.66Zm-4.04-1.989h4.054a2.461,2.461,0,0,0-.465-1.374,1.883,1.883,0,0,0-1.525-.711,1.952,1.952,0,0,0-1.425.567A2.245,2.245,0,0,0,157.769,239.671Zm1.326-3.835.909-1.914h1.614l-1.5,1.914Z"/>
    <path d="M169.6,241.66l1.272.157a3.1,3.1,0,0,1-1.115,1.73,3.775,3.775,0,0,1-4.6-.366,3.834,3.834,0,0,1-.933-2.751,4.01,4.01,0,0,1,.944-2.844,3.192,3.192,0,0,1,2.447-1.012,3.1,3.1,0,0,1,2.379.991,3.939,3.939,0,0,1,.923,2.789c0,.073,0,.182-.007.329h-5.414a2.788,2.788,0,0,0,.677,1.832,2.015,2.015,0,0,0,1.517.635,1.886,1.886,0,0,0,1.155-.355A2.36,2.36,0,0,0,169.6,241.66Zm-4.04-1.989h4.054a2.461,2.461,0,0,0-.465-1.374,1.883,1.883,0,0,0-1.524-.711,1.955,1.955,0,0,0-1.426.567A2.245,2.245,0,0,0,165.555,239.671Z"/>
    <path d="M172.4,244v-7.26h1.107v1.1a3,3,0,0,1,.783-1.019,1.368,1.368,0,0,1,.79-.246,2.394,2.394,0,0,1,1.264.4l-.424,1.141a1.763,1.763,0,0,0-.9-.266,1.174,1.174,0,0,0-.724.242,1.32,1.32,0,0,0-.459.674,4.812,4.812,0,0,0-.205,1.435V244Z"/>
    <path d="M185.933,241.66l1.272.157a3.1,3.1,0,0,1-1.115,1.73,3.775,3.775,0,0,1-4.6-.366,3.834,3.834,0,0,1-.933-2.751,4.01,4.01,0,0,1,.944-2.844,3.189,3.189,0,0,1,2.447-1.012,3.1,3.1,0,0,1,2.379.991,3.939,3.939,0,0,1,.923,2.789c0,.073,0,.182-.007.329h-5.414a2.793,2.793,0,0,0,.676,1.832,2.018,2.018,0,0,0,1.518.635,1.888,1.888,0,0,0,1.155-.355A2.36,2.36,0,0,0,185.933,241.66Zm-4.04-1.989h4.054a2.461,2.461,0,0,0-.465-1.374,1.883,1.883,0,0,0-1.524-.711,1.953,1.953,0,0,0-1.426.567A2.245,2.245,0,0,0,181.893,239.671Z"/>
    <path d="M191.436,242.9l.178,1.087a4.558,4.558,0,0,1-.93.11,2.117,2.117,0,0,1-1.039-.212,1.193,1.193,0,0,1-.52-.558,4.408,4.408,0,0,1-.15-1.452V237.7h-.9v-.957h.9v-1.8l1.224-.738v2.536h1.237v.957H190.2v4.245a2.122,2.122,0,0,0,.065.677.505.505,0,0,0,.212.239.82.82,0,0,0,.42.089A3.982,3.982,0,0,0,191.436,242.9Z"/>
    <path d="M201.266,243.1a4.606,4.606,0,0,1-1.316.82,3.812,3.812,0,0,1-1.357.239,2.64,2.64,0,0,1-1.839-.585,1.929,1.929,0,0,1-.642-1.493,2.018,2.018,0,0,1,.878-1.682,3,3,0,0,1,.885-.4,8.7,8.7,0,0,1,1.094-.185,11.314,11.314,0,0,0,2.195-.423c0-.169.006-.277.006-.322a1.357,1.357,0,0,0-.348-1.059,2.056,2.056,0,0,0-1.4-.417,2.179,2.179,0,0,0-1.281.3,1.861,1.861,0,0,0-.612,1.078l-1.2-.164a2.97,2.97,0,0,1,.54-1.248,2.363,2.363,0,0,1,1.087-.732,4.845,4.845,0,0,1,1.647-.256,4.332,4.332,0,0,1,1.511.219,1.982,1.982,0,0,1,.854.55,1.927,1.927,0,0,1,.383.838,6.9,6.9,0,0,1,.062,1.134v1.641a17.539,17.539,0,0,0,.078,2.17,2.77,2.77,0,0,0,.311.872h-1.285A2.642,2.642,0,0,1,201.266,243.1Zm-.1-2.749a9.077,9.077,0,0,1-2.01.465,4.649,4.649,0,0,0-1.073.246,1.072,1.072,0,0,0-.486.4,1.087,1.087,0,0,0,.2,1.405,1.6,1.6,0,0,0,1.09.328,2.532,2.532,0,0,0,1.265-.311,1.912,1.912,0,0,0,.813-.851,2.955,2.955,0,0,0,.2-1.23Z"/>
    <path d="M202.75,246.814l.232-1.045a2.509,2.509,0,0,0,.581.095.653.653,0,0,0,.561-.25,2.547,2.547,0,0,0,.184-1.247v-7.629h1.231V244.4a3.6,3.6,0,0,1-.349,1.866,1.629,1.629,0,0,1-1.477.683A3.586,3.586,0,0,1,202.75,246.814Zm1.558-11.409v-1.428h1.231v1.428Z"/>
    <path d="M206.967,240.368a3.74,3.74,0,0,1,1.121-2.987,3.38,3.38,0,0,1,2.284-.807,3.256,3.256,0,0,1,2.447.981,3.734,3.734,0,0,1,.95,2.711,4.806,4.806,0,0,1-.42,2.2,2.981,2.981,0,0,1-1.224,1.248,3.566,3.566,0,0,1-1.753.444,3.266,3.266,0,0,1-2.465-.977A3.911,3.911,0,0,1,206.967,240.368Zm1.265,0a3.093,3.093,0,0,0,.608,2.088,2.026,2.026,0,0,0,3.056,0,3.165,3.165,0,0,0,.608-2.126,3.006,3.006,0,0,0-.611-2.041,2.031,2.031,0,0,0-3.053,0A3.08,3.08,0,0,0,208.232,240.368Z"/>
    <path d="M219.969,244v-1.066a2.657,2.657,0,0,1-2.3,1.23,2.935,2.935,0,0,1-1.2-.246,1.967,1.967,0,0,1-.827-.619,2.307,2.307,0,0,1-.38-.912,6.275,6.275,0,0,1-.075-1.149v-4.5h1.231v4.027a7.089,7.089,0,0,0,.075,1.3,1.276,1.276,0,0,0,.492.762,1.521,1.521,0,0,0,.93.278,2.019,2.019,0,0,0,1.039-.285,1.576,1.576,0,0,0,.687-.772,3.885,3.885,0,0,0,.2-1.418v-3.89h1.231V244Z"/>
    <path d="M225.684,242.9l.178,1.087a4.558,4.558,0,0,1-.93.11,2.117,2.117,0,0,1-1.039-.212,1.186,1.186,0,0,1-.519-.558,4.371,4.371,0,0,1-.151-1.452V237.7h-.9v-.957h.9v-1.8l1.224-.738v2.536h1.237v.957h-1.237v4.245a2.122,2.122,0,0,0,.065.677.505.505,0,0,0,.212.239.82.82,0,0,0,.42.089A3.982,3.982,0,0,0,225.684,242.9Z"/>
    <path d="M231.857,241.66l1.271.157a3.1,3.1,0,0,1-1.114,1.73,3.775,3.775,0,0,1-4.6-.366,3.834,3.834,0,0,1-.933-2.751,4.014,4.014,0,0,1,.943-2.844,3.193,3.193,0,0,1,2.448-1.012,3.105,3.105,0,0,1,2.379.991,3.939,3.939,0,0,1,.922,2.789c0,.073,0,.182-.006.329h-5.414a2.793,2.793,0,0,0,.676,1.832,2.018,2.018,0,0,0,1.518.635,1.888,1.888,0,0,0,1.155-.355A2.36,2.36,0,0,0,231.857,241.66Zm-4.04-1.989h4.054a2.461,2.461,0,0,0-.465-1.374,1.883,1.883,0,0,0-1.525-.711,1.951,1.951,0,0,0-1.425.567A2.245,2.245,0,0,0,227.817,239.671Z"/>
    <path d="M234.66,244v-7.26h1.107v1.1a3,3,0,0,1,.783-1.019,1.365,1.365,0,0,1,.789-.246,2.394,2.394,0,0,1,1.265.4l-.424,1.141a1.766,1.766,0,0,0-.9-.266,1.179,1.179,0,0,0-.725.242,1.324,1.324,0,0,0-.458.674,4.78,4.78,0,0,0-.205,1.435V244Z"/>
    <path d="M160.77,260.8v-.916a2.258,2.258,0,0,1-2.03,1.08,2.845,2.845,0,0,1-1.6-.479,3.134,3.134,0,0,1-1.128-1.337,4.607,4.607,0,0,1-.4-1.971,5.159,5.159,0,0,1,.362-1.973,2.857,2.857,0,0,1,1.087-1.356,2.9,2.9,0,0,1,1.62-.472,2.415,2.415,0,0,1,2,1v-3.6h1.224V260.8Zm-3.89-3.623a3.155,3.155,0,0,0,.588,2.085,1.774,1.774,0,0,0,1.388.69,1.74,1.74,0,0,0,1.371-.66,3.038,3.038,0,0,0,.564-2.013,3.41,3.41,0,0,0-.575-2.187,1.765,1.765,0,0,0-1.415-.7,1.7,1.7,0,0,0-1.37.67A3.3,3.3,0,0,0,156.88,257.175Z"/>
    <path d="M168.6,260.8v-1.067a2.656,2.656,0,0,1-2.3,1.231,2.933,2.933,0,0,1-1.2-.246,1.977,1.977,0,0,1-.828-.619,2.321,2.321,0,0,1-.379-.912,6.283,6.283,0,0,1-.075-1.149v-4.5h1.23v4.026a7.066,7.066,0,0,0,.076,1.3,1.279,1.279,0,0,0,.492.762,1.519,1.519,0,0,0,.929.277,2.013,2.013,0,0,0,1.039-.284,1.567,1.567,0,0,0,.687-.772,3.86,3.86,0,0,0,.2-1.418v-3.89h1.231v7.26Z"/>
    <path d="M180.259,258.139l1.21.157a3.135,3.135,0,0,1-1.015,1.958,2.954,2.954,0,0,1-2.006.708,3.115,3.115,0,0,1-2.4-.975,3.95,3.95,0,0,1-.906-2.792,5.046,5.046,0,0,1,.39-2.057,2.715,2.715,0,0,1,1.186-1.324,3.524,3.524,0,0,1,1.733-.44,3.01,3.01,0,0,1,1.934.6,2.739,2.739,0,0,1,.964,1.7l-1.2.184a1.986,1.986,0,0,0-.605-1.1,1.567,1.567,0,0,0-1.05-.369,1.906,1.906,0,0,0-1.51.666,3.16,3.16,0,0,0-.581,2.109,3.275,3.275,0,0,0,.56,2.126,1.826,1.826,0,0,0,1.463.663,1.726,1.726,0,0,0,1.21-.444A2.2,2.2,0,0,0,180.259,258.139Z"/>
    <path d="M182.064,257.168a3.74,3.74,0,0,1,1.121-2.987,3.377,3.377,0,0,1,2.283-.807,3.263,3.263,0,0,1,2.448.98,3.737,3.737,0,0,1,.95,2.711,4.8,4.8,0,0,1-.421,2.2,2.978,2.978,0,0,1-1.223,1.248,3.578,3.578,0,0,1-1.754.444,3.261,3.261,0,0,1-2.464-.978A3.9,3.9,0,0,1,182.064,257.168Zm1.265,0a3.087,3.087,0,0,0,.608,2.088,2.026,2.026,0,0,0,3.056,0,3.17,3.17,0,0,0,.608-2.126,3,3,0,0,0-.612-2.041,2.03,2.03,0,0,0-3.052,0A3.075,3.075,0,0,0,183.329,257.168Z"/>
    <path d="M190.308,260.8v-7.26h1.108v1.032a2.607,2.607,0,0,1,2.31-1.2,3.036,3.036,0,0,1,1.207.235,1.9,1.9,0,0,1,.823.62,2.365,2.365,0,0,1,.383.909,6.968,6.968,0,0,1,.069,1.2V260.8h-1.231v-4.416a3.308,3.308,0,0,0-.144-1.125,1.184,1.184,0,0,0-.509-.595,1.629,1.629,0,0,0-.858-.222,1.993,1.993,0,0,0-1.357.5,2.464,2.464,0,0,0-.57,1.894V260.8Z"/>
    <path d="M200.781,259.7l.177,1.087a4.629,4.629,0,0,1-.929.11,2.117,2.117,0,0,1-1.039-.212,1.193,1.193,0,0,1-.52-.558,4.408,4.408,0,0,1-.15-1.452V254.5h-.9v-.957h.9v-1.8l1.223-.738v2.536h1.238v.957h-1.238v4.245a2.158,2.158,0,0,0,.065.677.516.516,0,0,0,.212.239.824.824,0,0,0,.421.089A4,4,0,0,0,200.781,259.7Z"/>
    <path d="M206.954,258.46l1.271.157a3.11,3.11,0,0,1-1.114,1.73,3.352,3.352,0,0,1-2.078.615,3.318,3.318,0,0,1-2.526-.982,3.831,3.831,0,0,1-.933-2.751,4.009,4.009,0,0,1,.943-2.843,3.192,3.192,0,0,1,2.447-1.012,3.1,3.1,0,0,1,2.379.991,3.937,3.937,0,0,1,.923,2.789c0,.073,0,.182-.007.328h-5.414a2.789,2.789,0,0,0,.677,1.832,2.016,2.016,0,0,0,1.518.636,1.888,1.888,0,0,0,1.155-.355A2.369,2.369,0,0,0,206.954,258.46Zm-4.04-1.989h4.053a2.44,2.44,0,0,0-.465-1.374,1.881,1.881,0,0,0-1.524-.711,1.951,1.951,0,0,0-1.425.567A2.241,2.241,0,0,0,202.914,256.471Z"/>
    <path d="M209.77,260.8v-7.26h1.107v1.032a2.61,2.61,0,0,1,2.311-1.2,3.039,3.039,0,0,1,1.207.235,1.9,1.9,0,0,1,.823.62,2.365,2.365,0,0,1,.383.909,7.1,7.1,0,0,1,.068,1.2V260.8h-1.23v-4.416a3.308,3.308,0,0,0-.144-1.125,1.184,1.184,0,0,0-.509-.595,1.631,1.631,0,0,0-.858-.222,1.993,1.993,0,0,0-1.357.5,2.463,2.463,0,0,0-.571,1.894V260.8Z"/>
    <path d="M222.314,260.8v-1.067a2.656,2.656,0,0,1-2.3,1.231,2.933,2.933,0,0,1-1.2-.246,1.977,1.977,0,0,1-.828-.619,2.321,2.321,0,0,1-.379-.912,6.283,6.283,0,0,1-.075-1.149v-4.5h1.23v4.026a7.19,7.19,0,0,0,.075,1.3,1.285,1.285,0,0,0,.493.762,1.519,1.519,0,0,0,.929.277,2.016,2.016,0,0,0,1.039-.284,1.567,1.567,0,0,0,.687-.772,3.86,3.86,0,0,0,.2-1.418v-3.89h1.231v7.26Z"/>
  </g>
  <g>
    <path d="M161.245,116.994v-8.64a7.256,7.256,0,0,1,.25-1.969,3.766,3.766,0,0,1,.84-1.541,3.812,3.812,0,0,1,1.561-1,7.164,7.164,0,0,1,2.409-.35,7.272,7.272,0,0,1,2.421.35,3.815,3.815,0,0,1,1.569,1,3.766,3.766,0,0,1,.84,1.541,7.256,7.256,0,0,1,.25,1.969v8.64h-2.1v-4.92h-5.98v4.92Zm2.06-6.5h5.98v-2.2a5.663,5.663,0,0,0-.139-1.29,2.513,2.513,0,0,0-.491-1.02,2.325,2.325,0,0,0-.92-.67,3.7,3.7,0,0,0-1.43-.24,3.766,3.766,0,0,0-1.45.24,2.322,2.322,0,0,0-.919.67,2.5,2.5,0,0,0-.491,1.02,5.605,5.605,0,0,0-.14,1.29Z"/>
    <path d="M172.585,119.874a14.024,14.024,0,0,0,1.14-1.11,4.4,4.4,0,0,0,.679-.97,3.392,3.392,0,0,0,.321-.98,7.308,7.308,0,0,0,.08-1.14v-8.32h2.02v8.3a7.121,7.121,0,0,1-.16,1.59,4.15,4.15,0,0,1-.54,1.29,5.868,5.868,0,0,1-1.021,1.181,18.777,18.777,0,0,1-1.58,1.26Zm2.279-15.28a1.062,1.062,0,0,1-.34-.84,1.085,1.085,0,0,1,.34-.859,1.369,1.369,0,0,1,.941-.3q1.279,0,1.28,1.16a1.076,1.076,0,0,1-.33.84,1.635,1.635,0,0,1-1.891,0Z"/>
    <path d="M184.1,117.194a4.572,4.572,0,0,1-3.379-1.18,6.838,6.838,0,0,1,0-7.68,5.445,5.445,0,0,1,6.77,0,6.791,6.791,0,0,1,0,7.68A4.611,4.611,0,0,1,184.1,117.194Zm-1.819-2.26a1.693,1.693,0,0,0,.779.56,3.194,3.194,0,0,0,1.061.16,3.1,3.1,0,0,0,1.05-.16,1.7,1.7,0,0,0,.769-.56,2.7,2.7,0,0,0,.481-1.07,9.005,9.005,0,0,0,0-3.38,2.714,2.714,0,0,0-.481-1.07,1.7,1.7,0,0,0-.769-.56,3.153,3.153,0,0,0-1.05-.16,3.247,3.247,0,0,0-1.061.16,1.7,1.7,0,0,0-.779.56,2.685,2.685,0,0,0-.48,1.07,9.005,9.005,0,0,0,0,3.38A2.673,2.673,0,0,0,182.285,114.934Z"/>
    <path d="M193.225,113.734a2.173,2.173,0,0,0,.17.911,1.558,1.558,0,0,0,.47.6,1.773,1.773,0,0,0,.69.32,3.77,3.77,0,0,0,.85.09,7.434,7.434,0,0,0,1.14-.09,9.676,9.676,0,0,0,.96-.19v-8.02h2.019v9.121a14.378,14.378,0,0,1-1.909.5,11.6,11.6,0,0,1-2.25.219,7.267,7.267,0,0,1-1.6-.171,3.65,3.65,0,0,1-1.33-.569,2.775,2.775,0,0,1-.9-1.069,3.753,3.753,0,0,1-.33-1.67v-6.361h2.02Z"/>
    <path d="M205.345,114.594a.933.933,0,0,0,.319.81,1.4,1.4,0,0,0,.84.231,5.439,5.439,0,0,0,.961-.091,8.185,8.185,0,0,0,.84-.19l.059,1.52a5.484,5.484,0,0,1-1,.24,7.4,7.4,0,0,1-1.1.08,3.412,3.412,0,0,1-2.12-.62,2.394,2.394,0,0,1-.821-2.04v-5.68h-1.58v-1.5h1.58l.46-2.78h1.561v2.78h2.8v1.5h-2.8Z"/>
    <path d="M211.784,112.754a5.062,5.062,0,0,0,.18,1.269,2.081,2.081,0,0,0,.52.911,2.255,2.255,0,0,0,.96.541,5.438,5.438,0,0,0,1.52.179c.214,0,.447-.009.7-.03s.5-.05.75-.09.481-.08.7-.12.4-.08.55-.12l.181,1.479a12.559,12.559,0,0,1-1.41.291,11.011,11.011,0,0,1-1.691.13,9.177,9.177,0,0,1-2.08-.219,3.692,3.692,0,0,1-1.6-.791,3.751,3.751,0,0,1-1.03-1.539,7.012,7.012,0,0,1-.37-2.471,7.749,7.749,0,0,1,.311-2.36,3.863,3.863,0,0,1,.889-1.55,3.357,3.357,0,0,1,1.41-.85,6.181,6.181,0,0,1,1.85-.26,4.83,4.83,0,0,1,1.761.29,3.355,3.355,0,0,1,1.229.81,3.2,3.2,0,0,1,.72,1.26,5.6,5.6,0,0,1,.23,1.66v1.58Zm4.34-1.4q0-2.779-2.06-2.78a1.937,1.937,0,0,0-1.66.7,3.857,3.857,0,0,0-.6,2.081Z"/>
    <path d="M220.7,116.994v-9.1a15.577,15.577,0,0,1,2.49-.551,20.378,20.378,0,0,1,2.75-.17v1.6c-.147-.011-.3-.019-.46-.019H225a9.4,9.4,0,0,0-1.239.08,8.107,8.107,0,0,0-1.04.2v7.96Z"/>
  </g>
  <polygon points="207 163 192 163 192 178 187 178 187 163 173 163 173 158 187 158 187 143 192 143 192 158 207 158 207 163" fill="#5b5d5e"/>
  <g>
    <path d="M259.418,244V233.977h3.78a9.141,9.141,0,0,1,1.525.095,3.023,3.023,0,0,1,1.237.469,2.459,2.459,0,0,1,.8.967,3.264,3.264,0,0,1-.509,3.531,3.906,3.906,0,0,1-2.94.885h-2.57V244Zm1.326-5.257h2.591a2.749,2.749,0,0,0,1.825-.478,1.708,1.708,0,0,0,.54-1.347,1.806,1.806,0,0,0-.318-1.076,1.487,1.487,0,0,0-.837-.592,5.684,5.684,0,0,0-1.237-.089h-2.564Z"/>
    <path d="M273.336,243.1a4.589,4.589,0,0,1-1.316.82,3.812,3.812,0,0,1-1.357.239,2.641,2.641,0,0,1-1.839-.584,1.933,1.933,0,0,1-.642-1.494,2.018,2.018,0,0,1,.878-1.682,3,3,0,0,1,.885-.4,8.892,8.892,0,0,1,1.094-.185,11.3,11.3,0,0,0,2.194-.423c0-.168.007-.276.007-.322a1.359,1.359,0,0,0-.348-1.059,2.063,2.063,0,0,0-1.4-.417,2.181,2.181,0,0,0-1.282.3,1.869,1.869,0,0,0-.611,1.078l-1.2-.164a2.965,2.965,0,0,1,.54-1.247,2.359,2.359,0,0,1,1.087-.733,4.861,4.861,0,0,1,1.647-.256,4.339,4.339,0,0,1,1.511.219,1.989,1.989,0,0,1,.854.551,1.934,1.934,0,0,1,.383.837,6.913,6.913,0,0,1,.062,1.134v1.641a17.571,17.571,0,0,0,.078,2.171,2.716,2.716,0,0,0,.311.871h-1.285A2.6,2.6,0,0,1,273.336,243.1Zm-.1-2.749a9.023,9.023,0,0,1-2.009.465,4.77,4.77,0,0,0-1.074.246,1.064,1.064,0,0,0-.485.4,1.088,1.088,0,0,0,.2,1.405,1.606,1.606,0,0,0,1.091.328,2.532,2.532,0,0,0,1.265-.311,1.918,1.918,0,0,0,.813-.851,2.974,2.974,0,0,0,.2-1.23Z"/>
    <path d="M276.371,244v-7.26h1.108v1.1a2.989,2.989,0,0,1,.782-1.019,1.368,1.368,0,0,1,.79-.246,2.4,2.4,0,0,1,1.264.4l-.423,1.141a1.769,1.769,0,0,0-.9-.266,1.174,1.174,0,0,0-.724.242,1.306,1.306,0,0,0-.458.674,4.78,4.78,0,0,0-.205,1.435V244Z"/>
    <path d="M283.733,242.9l.178,1.087a4.566,4.566,0,0,1-.93.11,2.106,2.106,0,0,1-1.039-.212,1.181,1.181,0,0,1-.519-.558,4.371,4.371,0,0,1-.151-1.452V237.7h-.9v-.957h.9v-1.8l1.224-.738v2.536h1.237v.957H282.5v4.245a2.149,2.149,0,0,0,.065.677.514.514,0,0,0,.211.239.816.816,0,0,0,.421.089A3.826,3.826,0,0,0,283.733,242.9Z"/>
    <path d="M289.674,243.1a4.579,4.579,0,0,1-1.317.82,3.806,3.806,0,0,1-1.356.239,2.641,2.641,0,0,1-1.839-.584,1.929,1.929,0,0,1-.642-1.494,2,2,0,0,1,.242-.975,2.028,2.028,0,0,1,.635-.707,3.021,3.021,0,0,1,.886-.4,8.857,8.857,0,0,1,1.094-.185,11.3,11.3,0,0,0,2.194-.423c0-.168.007-.276.007-.322a1.355,1.355,0,0,0-.349-1.059,2.059,2.059,0,0,0-1.4-.417,2.181,2.181,0,0,0-1.282.3,1.864,1.864,0,0,0-.611,1.078l-1.2-.164a2.99,2.99,0,0,1,.54-1.247,2.365,2.365,0,0,1,1.087-.733,4.871,4.871,0,0,1,1.648-.256,4.339,4.339,0,0,1,1.511.219,2,2,0,0,1,.854.551,1.934,1.934,0,0,1,.383.837,6.947,6.947,0,0,1,.061,1.134v1.641a17.49,17.49,0,0,0,.079,2.171,2.716,2.716,0,0,0,.311.871H289.92A2.6,2.6,0,0,1,289.674,243.1Zm-.1-2.749a9.023,9.023,0,0,1-2.009.465,4.77,4.77,0,0,0-1.074.246,1.064,1.064,0,0,0-.485.4,1.088,1.088,0,0,0,.2,1.405,1.6,1.6,0,0,0,1.091.328,2.534,2.534,0,0,0,1.265-.311,1.918,1.918,0,0,0,.813-.851,2.974,2.974,0,0,0,.2-1.23Z"/>
    <path d="M292.5,244.6l1.2.177a1.139,1.139,0,0,0,.417.807,2.04,2.04,0,0,0,1.251.342,2.193,2.193,0,0,0,1.32-.342,1.694,1.694,0,0,0,.629-.957,7.986,7.986,0,0,0,.088-1.579,2.529,2.529,0,0,1-2.009.95,2.739,2.739,0,0,1-2.318-1.08,4.161,4.161,0,0,1-.82-2.591,4.814,4.814,0,0,1,.376-1.917,3,3,0,0,1,1.09-1.357,2.946,2.946,0,0,1,1.679-.479,2.6,2.6,0,0,1,2.119,1.039v-.875h1.134v6.276a5.946,5.946,0,0,1-.345,2.4,2.517,2.517,0,0,1-1.094,1.118,3.783,3.783,0,0,1-1.842.41,3.462,3.462,0,0,1-2.1-.585A1.972,1.972,0,0,1,292.5,244.6Zm1.019-4.362a3.144,3.144,0,0,0,.567,2.085,1.8,1.8,0,0,0,1.422.656,1.818,1.818,0,0,0,1.422-.653,3.042,3.042,0,0,0,.574-2.047,2.971,2.971,0,0,0-.592-2.009,1.824,1.824,0,0,0-1.425-.677,1.772,1.772,0,0,0-1.394.667A2.954,2.954,0,0,0,293.516,240.238Z"/>
    <path d="M305.479,241.66l1.271.157a3.1,3.1,0,0,1-1.114,1.73,3.778,3.778,0,0,1-4.605-.365,3.838,3.838,0,0,1-.932-2.752,4.011,4.011,0,0,1,.943-2.844,3.194,3.194,0,0,1,2.447-1.012,3.1,3.1,0,0,1,2.379.991,3.942,3.942,0,0,1,.923,2.789c0,.074,0,.183-.007.329H301.37a2.786,2.786,0,0,0,.677,1.832,2.015,2.015,0,0,0,1.517.635,1.891,1.891,0,0,0,1.156-.355A2.369,2.369,0,0,0,305.479,241.66Zm-4.041-1.989h4.054a2.457,2.457,0,0,0-.465-1.374,1.883,1.883,0,0,0-1.524-.711,1.959,1.959,0,0,0-1.426.567A2.245,2.245,0,0,0,301.438,239.671Z"/>
    <path d="M308.281,244v-7.26h1.108v1.1a3,3,0,0,1,.782-1.019,1.368,1.368,0,0,1,.79-.246,2.408,2.408,0,0,1,1.265.4l-.424,1.141a1.769,1.769,0,0,0-.9-.266,1.174,1.174,0,0,0-.724.242,1.312,1.312,0,0,0-.458.674,4.78,4.78,0,0,0-.2,1.435V244Z"/>
    <path d="M312.506,244v-1.4h1.4V244a2.5,2.5,0,0,1-.273,1.248,1.783,1.783,0,0,1-.868.734l-.342-.526a1.163,1.163,0,0,0,.574-.5,2.146,2.146,0,0,0,.2-.953Z"/>
    <path d="M324.934,241.66l1.271.157a3.1,3.1,0,0,1-1.114,1.73,3.778,3.778,0,0,1-4.605-.365,3.838,3.838,0,0,1-.932-2.752,4.011,4.011,0,0,1,.943-2.844,3.194,3.194,0,0,1,2.447-1.012,3.1,3.1,0,0,1,2.379.991,3.942,3.942,0,0,1,.923,2.789c0,.074,0,.183-.007.329h-5.414a2.786,2.786,0,0,0,.677,1.832,2.015,2.015,0,0,0,1.518.635,1.89,1.89,0,0,0,1.155-.355A2.369,2.369,0,0,0,324.934,241.66Zm-4.04-1.989h4.053a2.457,2.457,0,0,0-.465-1.374,1.883,1.883,0,0,0-1.524-.711,1.959,1.959,0,0,0-1.426.567A2.245,2.245,0,0,0,320.894,239.671Z"/>
    <path d="M327.75,244v-7.26h1.107v1.033a2.61,2.61,0,0,1,2.311-1.2,3,3,0,0,1,1.206.237,1.887,1.887,0,0,1,.824.618,2.371,2.371,0,0,1,.383.909,7.121,7.121,0,0,1,.068,1.2V244h-1.23v-4.416a3.308,3.308,0,0,0-.144-1.125,1.178,1.178,0,0,0-.509-.594,1.622,1.622,0,0,0-.858-.222,1.993,1.993,0,0,0-1.357.5,2.464,2.464,0,0,0-.571,1.893V244Z"/>
    <path d="M335.522,244v-7.26h1.108v1.1a3,3,0,0,1,.782-1.019,1.368,1.368,0,0,1,.79-.246,2.408,2.408,0,0,1,1.265.4l-.424,1.141a1.768,1.768,0,0,0-.9-.266,1.174,1.174,0,0,0-.725.242,1.312,1.312,0,0,0-.458.674,4.78,4.78,0,0,0-.205,1.435V244Z"/>
    <path d="M345.168,241.66l1.271.157a3.1,3.1,0,0,1-1.114,1.73,3.777,3.777,0,0,1-4.6-.365,3.838,3.838,0,0,1-.933-2.752,4.016,4.016,0,0,1,.943-2.844,3.2,3.2,0,0,1,2.448-1.012,3.105,3.105,0,0,1,2.379.991,3.942,3.942,0,0,1,.922,2.789c0,.074,0,.183-.006.329H341.06a2.781,2.781,0,0,0,.676,1.832,2.017,2.017,0,0,0,1.518.635,1.888,1.888,0,0,0,1.155-.355A2.362,2.362,0,0,0,345.168,241.66Zm-4.04-1.989h4.054a2.464,2.464,0,0,0-.465-1.374,1.886,1.886,0,0,0-1.525-.711,1.955,1.955,0,0,0-1.425.567A2.245,2.245,0,0,0,341.128,239.671Z"/>
    <path d="M347.759,244.6l1.2.177a1.139,1.139,0,0,0,.417.807,2.04,2.04,0,0,0,1.251.342,2.189,2.189,0,0,0,1.319-.342,1.684,1.684,0,0,0,.629-.957,7.879,7.879,0,0,0,.089-1.579,2.53,2.53,0,0,1-2.01.95,2.737,2.737,0,0,1-2.317-1.08,4.161,4.161,0,0,1-.82-2.591,4.814,4.814,0,0,1,.376-1.917,3,3,0,0,1,1.09-1.357,2.944,2.944,0,0,1,1.678-.479,2.6,2.6,0,0,1,2.119,1.039v-.875h1.135v6.276a5.924,5.924,0,0,1-.346,2.4,2.509,2.509,0,0,1-1.093,1.118,3.786,3.786,0,0,1-1.842.41,3.466,3.466,0,0,1-2.1-.585A1.972,1.972,0,0,1,347.759,244.6Zm1.018-4.362a3.143,3.143,0,0,0,.568,2.085,1.871,1.871,0,0,0,2.843,0,3.042,3.042,0,0,0,.575-2.047,2.977,2.977,0,0,0-.592-2.009,1.825,1.825,0,0,0-1.425-.677,1.769,1.769,0,0,0-1.394.667A2.954,2.954,0,0,0,348.777,240.238Z"/>
    <path d="M355.777,235.392v-1.415h1.231v1.415Zm0,8.606v-7.26h1.231V244Z"/>
    <path d="M358.389,241.831l1.216-.191a1.706,1.706,0,0,0,.571,1.121,1.988,1.988,0,0,0,1.309.389,1.924,1.924,0,0,0,1.258-.345,1.03,1.03,0,0,0,.41-.81.747.747,0,0,0-.362-.656,5.284,5.284,0,0,0-1.258-.417,11.544,11.544,0,0,1-1.877-.592,1.784,1.784,0,0,1-1.062-1.664,1.875,1.875,0,0,1,.221-.9,1.985,1.985,0,0,1,.606-.688,2.538,2.538,0,0,1,.782-.359,3.728,3.728,0,0,1,1.064-.147,4.2,4.2,0,0,1,1.5.246,2.053,2.053,0,0,1,.954.666,2.643,2.643,0,0,1,.424,1.125l-1.2.164a1.309,1.309,0,0,0-.475-.875,1.741,1.741,0,0,0-1.111-.314,2.014,2.014,0,0,0-1.209.28.812.812,0,0,0-.363.656.674.674,0,0,0,.151.431,1.059,1.059,0,0,0,.471.328c.123.045.486.151,1.087.315a15.234,15.234,0,0,1,1.821.57,1.837,1.837,0,0,1,.811.647,1.807,1.807,0,0,1,.294,1.052,2.063,2.063,0,0,1-.359,1.158,2.316,2.316,0,0,1-1.036.842,3.771,3.771,0,0,1-1.531.3,3.407,3.407,0,0,1-2.157-.588A2.73,2.73,0,0,1,358.389,241.831Z"/>
    <path d="M368.567,242.9l.178,1.087a4.566,4.566,0,0,1-.93.11,2.106,2.106,0,0,1-1.039-.212,1.181,1.181,0,0,1-.519-.558,4.371,4.371,0,0,1-.151-1.452V237.7h-.9v-.957h.9v-1.8l1.224-.738v2.536h1.237v.957H367.33v4.245a2.149,2.149,0,0,0,.065.677.514.514,0,0,0,.211.239.816.816,0,0,0,.421.089A3.826,3.826,0,0,0,368.567,242.9Z"/>
    <path d="M369.757,244v-7.26h1.107v1.1a3,3,0,0,1,.782-1.019,1.371,1.371,0,0,1,.791-.246,2.4,2.4,0,0,1,1.264.4l-.424,1.141a1.763,1.763,0,0,0-.9-.266,1.174,1.174,0,0,0-.725.242,1.318,1.318,0,0,0-.458.674,4.812,4.812,0,0,0-.2,1.435V244Z"/>
    <path d="M379.4,241.66l1.272.157a3.1,3.1,0,0,1-1.114,1.73,3.778,3.778,0,0,1-4.605-.365,3.838,3.838,0,0,1-.933-2.752,4.012,4.012,0,0,1,.944-2.844,3.194,3.194,0,0,1,2.447-1.012,3.1,3.1,0,0,1,2.379.991,3.942,3.942,0,0,1,.923,2.789c0,.074,0,.183-.007.329h-5.414a2.781,2.781,0,0,0,.677,1.832,2.015,2.015,0,0,0,1.517.635,1.893,1.893,0,0,0,1.156-.355A2.361,2.361,0,0,0,379.4,241.66Zm-4.04-1.989h4.054a2.464,2.464,0,0,0-.465-1.374,1.883,1.883,0,0,0-1.524-.711,1.957,1.957,0,0,0-1.426.567A2.245,2.245,0,0,0,375.362,239.671Z"/>
    <path d="M382.205,244v-7.26h1.108v1.1a2.989,2.989,0,0,1,.782-1.019,1.368,1.368,0,0,1,.79-.246,2.4,2.4,0,0,1,1.264.4l-.423,1.141a1.769,1.769,0,0,0-.9-.266,1.174,1.174,0,0,0-.724.242,1.306,1.306,0,0,0-.458.674,4.78,4.78,0,0,0-.205,1.435V244Z"/>
    <path d="M262.658,258.46l1.272.157a3.111,3.111,0,0,1-1.115,1.73,3.352,3.352,0,0,1-2.078.615,3.318,3.318,0,0,1-2.526-.982,3.829,3.829,0,0,1-.933-2.751,4.011,4.011,0,0,1,.944-2.843,3.191,3.191,0,0,1,2.447-1.012,3.106,3.106,0,0,1,2.379.991,3.937,3.937,0,0,1,.923,2.789c0,.073,0,.182-.007.328H258.55a2.779,2.779,0,0,0,.677,1.832,2.012,2.012,0,0,0,1.517.636,1.882,1.882,0,0,0,1.155-.355A2.369,2.369,0,0,0,262.658,258.46Zm-4.04-1.989h4.054a2.458,2.458,0,0,0-.465-1.374,1.887,1.887,0,0,0-1.524-.711,1.953,1.953,0,0,0-1.426.567A2.249,2.249,0,0,0,258.618,256.471Z"/>
    <path d="M268.161,259.7l.178,1.087a4.566,4.566,0,0,1-.93.11,2.117,2.117,0,0,1-1.039-.212,1.183,1.183,0,0,1-.519-.557,4.383,4.383,0,0,1-.151-1.453V254.5h-.9v-.957h.9v-1.8l1.224-.738v2.536h1.237v.957h-1.237v4.245a2.164,2.164,0,0,0,.064.677.512.512,0,0,0,.212.239.824.824,0,0,0,.421.089A3.982,3.982,0,0,0,268.161,259.7Z"/>
    <path d="M273.254,263.58V253.538h1.121v.943a2.777,2.777,0,0,1,.9-.831,2.472,2.472,0,0,1,1.209-.276,2.865,2.865,0,0,1,1.641.479,2.934,2.934,0,0,1,1.073,1.35,4.913,4.913,0,0,1,.363,1.91,4.846,4.846,0,0,1-.4,2.006,3.043,3.043,0,0,1-2.764,1.843,2.32,2.32,0,0,1-1.105-.26,2.5,2.5,0,0,1-.8-.656v3.534Zm1.114-6.371a3.152,3.152,0,0,0,.568,2.071,1.735,1.735,0,0,0,1.374.67,1.778,1.778,0,0,0,1.4-.694,3.288,3.288,0,0,0,.585-2.15,3.212,3.212,0,0,0-.571-2.078,1.718,1.718,0,0,0-1.364-.69,1.773,1.773,0,0,0-1.391.734A3.289,3.289,0,0,0,274.368,257.209Z"/>
    <path d="M285.8,260.8v-1.067a2.657,2.657,0,0,1-2.3,1.231,2.938,2.938,0,0,1-1.2-.246,1.98,1.98,0,0,1-.827-.618,2.311,2.311,0,0,1-.379-.913,6.178,6.178,0,0,1-.075-1.149v-4.5h1.23v4.026a7.183,7.183,0,0,0,.075,1.3,1.279,1.279,0,0,0,.493.762,1.513,1.513,0,0,0,.929.277,2.027,2.027,0,0,0,1.039-.283,1.573,1.573,0,0,0,.687-.773,3.86,3.86,0,0,0,.2-1.418v-3.89h1.23v7.26Z"/>
    <path d="M289.961,260.8h-1.142V250.776h1.231v3.576a2.43,2.43,0,0,1,1.989-.978,3.035,3.035,0,0,1,1.268.271,2.577,2.577,0,0,1,.984.757,3.67,3.67,0,0,1,.605,1.18,4.863,4.863,0,0,1,.219,1.477,4.142,4.142,0,0,1-.923,2.884,2.882,2.882,0,0,1-2.214,1.019,2.311,2.311,0,0,1-2.017-1.073Zm-.014-3.685A3.755,3.755,0,0,0,290.3,259a1.759,1.759,0,0,0,2.967.25,3.193,3.193,0,0,0,.587-2.089,3.237,3.237,0,0,0-.564-2.1,1.714,1.714,0,0,0-1.363-.677,1.77,1.77,0,0,0-1.395.7A3.078,3.078,0,0,0,289.947,257.113Z"/>
    <path d="M296.585,260.8V250.776h1.23V260.8Z"/>
    <path d="M299.729,252.191v-1.415h1.231v1.415Zm0,8.607v-7.26h1.231v7.26Z"/>
    <path d="M307.8,258.46l1.271.157a3.11,3.11,0,0,1-1.114,1.73,3.775,3.775,0,0,1-4.6-.367,3.829,3.829,0,0,1-.932-2.751,4.01,4.01,0,0,1,.943-2.843,3.192,3.192,0,0,1,2.447-1.012,3.106,3.106,0,0,1,2.379.991,3.933,3.933,0,0,1,.923,2.789c0,.073,0,.182-.007.328h-5.414a2.784,2.784,0,0,0,.677,1.832,2.013,2.013,0,0,0,1.518.636,1.882,1.882,0,0,0,1.155-.355A2.383,2.383,0,0,0,307.8,258.46Zm-4.04-1.989h4.053a2.459,2.459,0,0,0-.464-1.374,1.889,1.889,0,0,0-1.525-.711,1.955,1.955,0,0,0-1.426.567A2.253,2.253,0,0,0,303.763,256.471Z"/>
    <path d="M310.605,260.8v-7.26h1.108v1.1a2.991,2.991,0,0,1,.782-1.019,1.368,1.368,0,0,1,.79-.246,2.4,2.4,0,0,1,1.265.4l-.424,1.141a1.759,1.759,0,0,0-.9-.266,1.169,1.169,0,0,0-.725.243,1.3,1.3,0,0,0-.458.673,4.78,4.78,0,0,0-.2,1.435v3.8Z"/>
    <path d="M323.881,260.8v-.916a2.26,2.26,0,0,1-2.03,1.08,2.839,2.839,0,0,1-1.6-.479,3.147,3.147,0,0,1-1.128-1.337,4.6,4.6,0,0,1-.4-1.971,5.15,5.15,0,0,1,.362-1.972,2.843,2.843,0,0,1,1.087-1.357,2.9,2.9,0,0,1,1.62-.472,2.441,2.441,0,0,1,1.169.276,2.47,2.47,0,0,1,.834.722v-3.6h1.223V260.8Zm-3.89-3.623a3.155,3.155,0,0,0,.588,2.085,1.771,1.771,0,0,0,1.388.69,1.742,1.742,0,0,0,1.37-.659,3.043,3.043,0,0,0,.564-2.014,3.411,3.411,0,0,0-.574-2.187,1.765,1.765,0,0,0-1.415-.7,1.7,1.7,0,0,0-1.371.67A3.311,3.311,0,0,0,319.991,257.175Z"/>
    <path d="M331.715,260.8v-1.067a2.657,2.657,0,0,1-2.3,1.231,2.938,2.938,0,0,1-1.2-.246,1.98,1.98,0,0,1-.827-.618,2.311,2.311,0,0,1-.379-.913,6.178,6.178,0,0,1-.075-1.149v-4.5h1.23v4.026a7.183,7.183,0,0,0,.075,1.3,1.279,1.279,0,0,0,.493.762,1.513,1.513,0,0,0,.929.277,2.027,2.027,0,0,0,1.039-.283,1.573,1.573,0,0,0,.687-.773,3.86,3.86,0,0,0,.2-1.418v-3.89h1.23v7.26Z"/>
    <path d="M343.37,258.139l1.21.157a3.138,3.138,0,0,1-1.016,1.958,2.945,2.945,0,0,1-2,.708,3.12,3.12,0,0,1-2.4-.974,3.957,3.957,0,0,1-.9-2.793,5.066,5.066,0,0,1,.389-2.057,2.729,2.729,0,0,1,1.186-1.324,3.527,3.527,0,0,1,1.733-.44,3.007,3.007,0,0,1,1.935.6,2.746,2.746,0,0,1,.964,1.7l-1.2.184a1.987,1.987,0,0,0-.606-1.1,1.565,1.565,0,0,0-1.049-.369,1.9,1.9,0,0,0-1.51.667,3.155,3.155,0,0,0-.582,2.108,3.265,3.265,0,0,0,.561,2.126,1.823,1.823,0,0,0,1.463.663,1.723,1.723,0,0,0,1.21-.444A2.212,2.212,0,0,0,343.37,258.139Z"/>
    <path d="M345.175,257.168a3.74,3.74,0,0,1,1.121-2.987,3.376,3.376,0,0,1,2.283-.807,3.256,3.256,0,0,1,2.447.981,3.733,3.733,0,0,1,.951,2.71,4.807,4.807,0,0,1-.421,2.2,2.981,2.981,0,0,1-1.224,1.248,3.563,3.563,0,0,1-1.753.444,3.261,3.261,0,0,1-2.465-.978A3.9,3.9,0,0,1,345.175,257.168Zm1.264,0a3.087,3.087,0,0,0,.609,2.088,2.026,2.026,0,0,0,3.056,0,3.168,3.168,0,0,0,.608-2.126,3,3,0,0,0-.612-2.041,2.03,2.03,0,0,0-3.052,0A3.075,3.075,0,0,0,346.439,257.168Z"/>
    <path d="M353.419,260.8v-7.26h1.107v1.032a2.611,2.611,0,0,1,2.311-1.2,3.048,3.048,0,0,1,1.206.235,1.906,1.906,0,0,1,.824.62,2.378,2.378,0,0,1,.383.909,7.1,7.1,0,0,1,.068,1.2V260.8h-1.23v-4.416a3.3,3.3,0,0,0-.144-1.124,1.182,1.182,0,0,0-.509-.6,1.631,1.631,0,0,0-.858-.222,2,2,0,0,0-1.357.5,2.463,2.463,0,0,0-.571,1.894V260.8Z"/>
    <path d="M363.892,259.7l.177,1.087a4.557,4.557,0,0,1-.929.11,2.115,2.115,0,0,1-1.039-.212,1.186,1.186,0,0,1-.52-.557,4.391,4.391,0,0,1-.15-1.453V254.5h-.9v-.957h.9v-1.8l1.223-.738v2.536h1.238v.957h-1.238v4.245a2.153,2.153,0,0,0,.065.677.506.506,0,0,0,.212.239.822.822,0,0,0,.421.089A4.009,4.009,0,0,0,363.892,259.7Z"/>
    <path d="M370.064,258.46l1.272.157a3.11,3.11,0,0,1-1.114,1.73,3.354,3.354,0,0,1-2.078.615,3.318,3.318,0,0,1-2.527-.982,3.829,3.829,0,0,1-.932-2.751,4.01,4.01,0,0,1,.943-2.843,3.191,3.191,0,0,1,2.447-1.012,3.106,3.106,0,0,1,2.379.991,3.937,3.937,0,0,1,.923,2.789c0,.073,0,.182-.007.328h-5.414a2.784,2.784,0,0,0,.677,1.832,2.012,2.012,0,0,0,1.517.636,1.885,1.885,0,0,0,1.156-.355A2.375,2.375,0,0,0,370.064,258.46Zm-4.04-1.989h4.054a2.458,2.458,0,0,0-.465-1.374,1.886,1.886,0,0,0-1.524-.711,1.953,1.953,0,0,0-1.426.567A2.249,2.249,0,0,0,366.024,256.471Z"/>
    <path d="M372.881,260.8v-7.26h1.107v1.032a2.61,2.61,0,0,1,2.311-1.2,3.048,3.048,0,0,1,1.206.235,1.912,1.912,0,0,1,.824.62,2.378,2.378,0,0,1,.383.909,7.1,7.1,0,0,1,.068,1.2V260.8h-1.23v-4.416a3.3,3.3,0,0,0-.144-1.124,1.179,1.179,0,0,0-.51-.6,1.625,1.625,0,0,0-.857-.222,2,2,0,0,0-1.357.5,2.463,2.463,0,0,0-.571,1.894V260.8Z"/>
    <path d="M385.425,260.8v-1.067a2.657,2.657,0,0,1-2.3,1.231,2.938,2.938,0,0,1-1.2-.246,1.98,1.98,0,0,1-.827-.618,2.311,2.311,0,0,1-.379-.913,6.178,6.178,0,0,1-.075-1.149v-4.5h1.23v4.026a7.183,7.183,0,0,0,.075,1.3,1.274,1.274,0,0,0,.493.762,1.513,1.513,0,0,0,.929.277,2.027,2.027,0,0,0,1.039-.283,1.578,1.578,0,0,0,.687-.773,3.86,3.86,0,0,0,.2-1.418v-3.89h1.23v7.26Z"/>
  </g>
  <g>
    <path d="M285.458,116.994v-13.3h4.3a10.314,10.314,0,0,1,2.21.21,3.929,3.929,0,0,1,1.591.71,3.062,3.062,0,0,1,.96,1.3,5.447,5.447,0,0,1,.319,2,5.314,5.314,0,0,1-.339,2.01,3.215,3.215,0,0,1-.991,1.34,4.107,4.107,0,0,1-1.56.74,8.345,8.345,0,0,1-2.05.23,13.855,13.855,0,0,1-2.339-.22v4.98Zm2.1-6.56a12.107,12.107,0,0,0,2.119.2,3.284,3.284,0,0,0,2.361-.681,2.772,2.772,0,0,0,.679-2.04,4.037,4.037,0,0,0-.17-1.269,1.749,1.749,0,0,0-.529-.811,2.208,2.208,0,0,0-.92-.43,5.989,5.989,0,0,0-1.341-.131h-2.2Z"/>
    <path d="M304.677,116.514q-.76.221-1.83.451a10.968,10.968,0,0,1-2.29.229,7.164,7.164,0,0,1-1.559-.16,3.455,3.455,0,0,1-1.25-.53,2.545,2.545,0,0,1-.831-.97,3.334,3.334,0,0,1-.3-1.5,2.728,2.728,0,0,1,.33-1.4,2.634,2.634,0,0,1,.87-.9,3.675,3.675,0,0,1,1.26-.48,7.871,7.871,0,0,1,1.5-.14q.641,0,1.151.05c.339.033.649.077.929.13v-.94a1.393,1.393,0,0,0-.65-1.35,3.414,3.414,0,0,0-1.63-.35,8.61,8.61,0,0,0-1.4.119c-.48.081-.908.161-1.281.241l-.14-1.52q.64-.141,1.41-.24a11.843,11.843,0,0,1,1.511-.1,8.32,8.32,0,0,1,1.609.151,3.741,3.741,0,0,1,1.34.519,2.767,2.767,0,0,1,.91.97,3,3,0,0,1,.34,1.5Zm-2.02-3.76q-.42-.08-.92-.13t-1.02-.05a5.335,5.335,0,0,0-.83.061,1.877,1.877,0,0,0-.679.229,1.222,1.222,0,0,0-.46.48,1.671,1.671,0,0,0-.171.81,1.351,1.351,0,0,0,.59,1.27,2.751,2.751,0,0,0,1.43.349,7.5,7.5,0,0,0,1.131-.079q.53-.079.929-.18Z"/>
    <path d="M307.8,116.994v-9.1a15.577,15.577,0,0,1,2.49-.551,20.378,20.378,0,0,1,2.75-.17v1.6c-.147-.011-.3-.019-.46-.019h-.48a9.43,9.43,0,0,0-1.24.08,8.141,8.141,0,0,0-1.04.2v7.96Z"/>
    <path d="M317.937,114.594a.931.931,0,0,0,.32.81,1.4,1.4,0,0,0,.84.231,5.428,5.428,0,0,0,.96-.091,8.124,8.124,0,0,0,.84-.19l.06,1.52a5.524,5.524,0,0,1-1,.24,7.409,7.409,0,0,1-1.1.08,3.416,3.416,0,0,1-2.12-.62,2.394,2.394,0,0,1-.82-2.04v-5.68h-1.58v-1.5h1.58l.46-2.78h1.56v2.78h2.8v1.5h-2.8Z"/>
    <path d="M330.357,116.514q-.761.221-1.83.451a10.982,10.982,0,0,1-2.29.229,7.167,7.167,0,0,1-1.56-.16,3.455,3.455,0,0,1-1.25-.53,2.551,2.551,0,0,1-.83-.97,3.334,3.334,0,0,1-.3-1.5,2.718,2.718,0,0,1,.33-1.4,2.625,2.625,0,0,1,.87-.9,3.675,3.675,0,0,1,1.26-.48,7.871,7.871,0,0,1,1.5-.14q.641,0,1.15.05c.34.033.65.077.93.13v-.94a1.393,1.393,0,0,0-.65-1.35,3.417,3.417,0,0,0-1.63-.35,8.622,8.622,0,0,0-1.4.119q-.72.121-1.28.241l-.14-1.52q.64-.141,1.41-.24a11.839,11.839,0,0,1,1.51-.1,8.33,8.33,0,0,1,1.61.151,3.748,3.748,0,0,1,1.34.519,2.767,2.767,0,0,1,.91.97,3,3,0,0,1,.34,1.5Zm-2.02-3.76q-.42-.08-.92-.13c-.334-.033-.673-.05-1.02-.05a5.335,5.335,0,0,0-.83.061,1.889,1.889,0,0,0-.68.229,1.229,1.229,0,0,0-.46.48,1.671,1.671,0,0,0-.17.81,1.351,1.351,0,0,0,.59,1.27,2.748,2.748,0,0,0,1.43.349,7.489,7.489,0,0,0,1.13-.079q.53-.079.93-.18Z"/>
    <path d="M333.917,118.975q.66.157,1.54.309a9.578,9.578,0,0,0,1.62.15,2.783,2.783,0,0,0,1.86-.51,2.1,2.1,0,0,0,.58-1.651v-.539q-.52.1-1.14.18a9.275,9.275,0,0,1-1.2.08,6.867,6.867,0,0,1-1.68-.2,3.17,3.17,0,0,1-1.4-.75,3.734,3.734,0,0,1-.95-1.51,7.365,7.365,0,0,1-.35-2.479,6.205,6.205,0,0,1,.38-2.321,3.953,3.953,0,0,1,1.02-1.509,3.807,3.807,0,0,1,1.51-.821,6.619,6.619,0,0,1,1.83-.25,9.7,9.7,0,0,1,2.04.22q1.02.221,1.96.521v9.16a4.931,4.931,0,0,1-.3,1.84,2.922,2.922,0,0,1-.87,1.2,3.5,3.5,0,0,1-1.38.66,7.767,7.767,0,0,1-1.85.2,12.675,12.675,0,0,1-1.82-.14,13.839,13.839,0,0,1-1.62-.32Zm5.6-9.981q-.4-.1-.93-.2a5.617,5.617,0,0,0-1.03-.1,3.638,3.638,0,0,0-1.02.14,1.877,1.877,0,0,0-.84.52,2.662,2.662,0,0,0-.57,1.031,5.611,5.611,0,0,0-.21,1.689,7.224,7.224,0,0,0,.17,1.74,2.5,2.5,0,0,0,.49,1.03,1.515,1.515,0,0,0,.77.49,3.837,3.837,0,0,0,.99.12,7.133,7.133,0,0,0,1.06-.08c.36-.054.733-.112,1.12-.18Z"/>
    <path d="M346.357,112.754a5.017,5.017,0,0,0,.18,1.269,2.081,2.081,0,0,0,.52.911,2.249,2.249,0,0,0,.96.541,5.428,5.428,0,0,0,1.52.179c.213,0,.446-.009.7-.03s.5-.05.75-.09.48-.08.7-.12.4-.08.55-.12l.18,1.479a12.465,12.465,0,0,1-1.41.291,10.988,10.988,0,0,1-1.69.13,9.171,9.171,0,0,1-2.08-.219,3.692,3.692,0,0,1-1.6-.791,3.751,3.751,0,0,1-1.03-1.539,7.012,7.012,0,0,1-.37-2.471,7.752,7.752,0,0,1,.31-2.36,3.853,3.853,0,0,1,.89-1.55,3.345,3.345,0,0,1,1.41-.85,6.181,6.181,0,0,1,1.85-.26,4.828,4.828,0,0,1,1.76.29,3.351,3.351,0,0,1,1.23.81,3.213,3.213,0,0,1,.72,1.26,5.6,5.6,0,0,1,.23,1.66v1.58Zm4.34-1.4q0-2.779-2.06-2.78a1.934,1.934,0,0,0-1.66.7,3.856,3.856,0,0,0-.6,2.081Z"/>
    <path d="M355.277,116.994v-9.1a15.577,15.577,0,0,1,2.49-.551,20.378,20.378,0,0,1,2.75-.17v1.6c-.147-.011-.3-.019-.46-.019h-.48a9.43,9.43,0,0,0-1.24.08,8.141,8.141,0,0,0-1.04.2v7.96Z"/>
  </g>
  <g>
    <path d="M321.858,220.333c.231-3.425.941-16.878-1.071-25.614" fill="none" stroke="#000" stroke-miterlimit="10"/>
    <polygon points="325.429 197.133 324.852 197.951 320.827 195.104 318.281 199.327 317.424 198.809 320.526 193.666 325.429 197.133"/>
  </g>
  <g>
    <path d="M192.859,220.333c.23-3.425.94-16.878-1.072-25.614" fill="none" stroke="#000" stroke-miterlimit="10"/>
    <polygon points="196.429 197.133 195.852 197.951 191.827 195.104 189.281 199.327 188.424 198.809 191.526 193.666 196.429 197.133"/>
  </g>
  <path d="M341.689,154.961l-17.827,17.668V161.543a26.638,26.638,0,0,0-6.719,1.715,25,25,0,0,0-5.763,3.23,23.65,23.65,0,0,0-4.527,4.465,20.553,20.553,0,0,0-3.011,5.424,18.8,18.8,0,0,1-1.236-6.7,19.24,19.24,0,0,1,1.615-7.8,21.444,21.444,0,0,1,4.467-6.561,24.882,24.882,0,0,1,6.74-4.785,26.22,26.22,0,0,1,8.434-2.472V137.295Zm-14.636-4.027-2.792.318a23.219,23.219,0,0,0-6.461,1.717,21.732,21.732,0,0,0-5.5,3.369,19.248,19.248,0,0,0-4.068,4.746,16.806,16.806,0,0,0-2.193,5.883,26.723,26.723,0,0,1,7.716-5.725,30.386,30.386,0,0,1,9.711-2.89l3.59-.44v7.061l10.09-10.012-10.09-10.01Z" fill="#5b5d5e"/>
  <g>
    <path d="M401.75,244l3.849-10.021h1.429l4.1,10.021h-1.51l-1.169-3.035h-4.191l-1.1,3.035Zm2.892-4.115h3.4l-1.046-2.776q-.479-1.263-.711-2.078a12.808,12.808,0,0,1-.54,1.914Z"/>
    <path d="M411.54,241.83l1.216-.191a1.7,1.7,0,0,0,.571,1.121,1.988,1.988,0,0,0,1.309.389,1.93,1.93,0,0,0,1.258-.344,1.035,1.035,0,0,0,.41-.811.747.747,0,0,0-.362-.656,5.382,5.382,0,0,0-1.258-.417,11.514,11.514,0,0,1-1.876-.591,1.79,1.79,0,0,1-1.063-1.665,1.867,1.867,0,0,1,.222-.9,1.981,1.981,0,0,1,.605-.688,2.516,2.516,0,0,1,.782-.358,3.691,3.691,0,0,1,1.063-.148,4.206,4.206,0,0,1,1.5.246,2.042,2.042,0,0,1,.954.667,2.608,2.608,0,0,1,.423,1.124l-1.2.164a1.316,1.316,0,0,0-.475-.875,1.741,1.741,0,0,0-1.111-.314,2.019,2.019,0,0,0-1.21.28.819.819,0,0,0-.362.656.677.677,0,0,0,.15.431,1.08,1.08,0,0,0,.472.328q.185.069,1.087.315a15.033,15.033,0,0,1,1.822.571,1.838,1.838,0,0,1,.81.646,1.8,1.8,0,0,1,.294,1.052,2.069,2.069,0,0,1-.359,1.159,2.314,2.314,0,0,1-1.036.841,3.754,3.754,0,0,1-1.531.3,3.407,3.407,0,0,1-2.157-.588A2.727,2.727,0,0,1,411.54,241.83Z"/>
    <path d="M418.54,241.83l1.216-.191a1.7,1.7,0,0,0,.571,1.121,1.988,1.988,0,0,0,1.309.389,1.93,1.93,0,0,0,1.258-.344,1.035,1.035,0,0,0,.41-.811.747.747,0,0,0-.362-.656,5.382,5.382,0,0,0-1.258-.417,11.514,11.514,0,0,1-1.876-.591,1.79,1.79,0,0,1-1.063-1.665,1.867,1.867,0,0,1,.222-.9,1.981,1.981,0,0,1,.605-.688,2.516,2.516,0,0,1,.782-.358,3.691,3.691,0,0,1,1.063-.148,4.206,4.206,0,0,1,1.5.246,2.042,2.042,0,0,1,.954.667,2.608,2.608,0,0,1,.423,1.124l-1.2.164a1.316,1.316,0,0,0-.475-.875,1.741,1.741,0,0,0-1.111-.314,2.019,2.019,0,0,0-1.21.28.819.819,0,0,0-.362.656.677.677,0,0,0,.15.431,1.08,1.08,0,0,0,.472.328q.185.069,1.087.315a15.033,15.033,0,0,1,1.822.571,1.838,1.838,0,0,1,.81.646,1.8,1.8,0,0,1,.294,1.052,2.069,2.069,0,0,1-.359,1.159,2.314,2.314,0,0,1-1.036.841,3.754,3.754,0,0,1-1.531.3,3.407,3.407,0,0,1-2.157-.588A2.727,2.727,0,0,1,418.54,241.83Z"/>
    <path d="M426.039,235.391v-1.415h1.23v1.415Zm0,8.606v-7.26h1.23V244Z"/>
    <path d="M428.65,241.83l1.217-.191a1.7,1.7,0,0,0,.571,1.121,1.987,1.987,0,0,0,1.309.389,1.927,1.927,0,0,0,1.257-.344,1.033,1.033,0,0,0,.411-.811.748.748,0,0,0-.363-.656,5.364,5.364,0,0,0-1.258-.417,11.548,11.548,0,0,1-1.876-.591,1.79,1.79,0,0,1-1.063-1.665,1.867,1.867,0,0,1,.222-.9,1.991,1.991,0,0,1,.605-.688,2.522,2.522,0,0,1,.783-.358,3.681,3.681,0,0,1,1.063-.148,4.2,4.2,0,0,1,1.5.246,2.042,2.042,0,0,1,.954.667,2.621,2.621,0,0,1,.424,1.124l-1.2.164a1.32,1.32,0,0,0-.475-.875,1.745,1.745,0,0,0-1.111-.314,2.017,2.017,0,0,0-1.21.28.818.818,0,0,0-.363.656.678.678,0,0,0,.151.431,1.068,1.068,0,0,0,.472.328q.185.069,1.086.315a15.033,15.033,0,0,1,1.822.571,1.838,1.838,0,0,1,.81.646,1.8,1.8,0,0,1,.294,1.052,2.061,2.061,0,0,1-.359,1.159,2.311,2.311,0,0,1-1.035.841,3.762,3.762,0,0,1-1.532.3,3.4,3.4,0,0,1-2.156-.588A2.728,2.728,0,0,1,428.65,241.83Z"/>
    <path d="M438.829,242.9l.177,1.087a4.488,4.488,0,0,1-.929.11,2.106,2.106,0,0,1-1.039-.212,1.186,1.186,0,0,1-.52-.557,4.42,4.42,0,0,1-.15-1.453v-4.177h-.9v-.957h.9v-1.8l1.223-.738v2.536h1.238v.957h-1.238v4.245a2.145,2.145,0,0,0,.065.677.506.506,0,0,0,.212.239.812.812,0,0,0,.421.089A3.85,3.85,0,0,0,438.829,242.9Z"/>
    <path d="M444.769,243.1a4.575,4.575,0,0,1-1.316.82,3.79,3.79,0,0,1-1.357.239,2.64,2.64,0,0,1-1.839-.584,1.93,1.93,0,0,1-.642-1.494,2.022,2.022,0,0,1,.878-1.682,3.029,3.029,0,0,1,.885-.4,9.09,9.09,0,0,1,1.094-.185,11.237,11.237,0,0,0,2.195-.423c0-.168.006-.276.006-.322a1.359,1.359,0,0,0-.348-1.059,2.062,2.062,0,0,0-1.4-.417,2.169,2.169,0,0,0-1.281.3,1.858,1.858,0,0,0-.612,1.077l-1.2-.164a2.965,2.965,0,0,1,.54-1.247,2.35,2.35,0,0,1,1.087-.732,4.844,4.844,0,0,1,1.647-.257,4.355,4.355,0,0,1,1.511.219,1.982,1.982,0,0,1,.854.551,1.934,1.934,0,0,1,.383.837,6.913,6.913,0,0,1,.062,1.134v1.641a17.56,17.56,0,0,0,.078,2.171,2.765,2.765,0,0,0,.311.871h-1.285A2.636,2.636,0,0,1,444.769,243.1Zm-.1-2.748a9.029,9.029,0,0,1-2.01.464,4.784,4.784,0,0,0-1.074.246,1.077,1.077,0,0,0-.485.4,1.086,1.086,0,0,0,.2,1.4,1.6,1.6,0,0,0,1.09.328,2.542,2.542,0,0,0,1.265-.31,1.914,1.914,0,0,0,.813-.852,2.949,2.949,0,0,0,.2-1.23Z"/>
    <path d="M447.818,244v-7.26h1.107v1.033a2.612,2.612,0,0,1,2.311-1.2,3.014,3.014,0,0,1,1.206.237,1.9,1.9,0,0,1,.824.618,2.385,2.385,0,0,1,.383.909,7.121,7.121,0,0,1,.068,1.2V244h-1.23v-4.416a3.3,3.3,0,0,0-.144-1.124,1.176,1.176,0,0,0-.509-.595,1.622,1.622,0,0,0-.858-.222,2,2,0,0,0-1.357.5,2.464,2.464,0,0,0-.571,1.893V244Z"/>
    <path d="M460.341,241.338l1.21.157a3.137,3.137,0,0,1-1.015,1.959,2.953,2.953,0,0,1-2.006.707,3.117,3.117,0,0,1-2.4-.973,3.954,3.954,0,0,1-.906-2.793,5.051,5.051,0,0,1,.39-2.058,2.711,2.711,0,0,1,1.186-1.322,3.515,3.515,0,0,1,1.733-.442,3,3,0,0,1,1.934.6,2.736,2.736,0,0,1,.964,1.7l-1.2.185a1.989,1.989,0,0,0-.6-1.1,1.567,1.567,0,0,0-1.05-.369,1.91,1.91,0,0,0-1.51.667,3.164,3.164,0,0,0-.581,2.108,3.272,3.272,0,0,0,.56,2.126,1.823,1.823,0,0,0,1.463.663,1.721,1.721,0,0,0,1.21-.444A2.2,2.2,0,0,0,460.341,241.338Z"/>
    <path d="M467.574,241.659l1.271.157a3.1,3.1,0,0,1-1.114,1.73,3.777,3.777,0,0,1-4.6-.365,3.837,3.837,0,0,1-.933-2.752,4.013,4.013,0,0,1,.943-2.844,3.2,3.2,0,0,1,2.447-1.012,3.106,3.106,0,0,1,2.379.991,3.939,3.939,0,0,1,.923,2.79c0,.073,0,.182-.007.328h-5.414a2.791,2.791,0,0,0,.677,1.832,2.015,2.015,0,0,0,1.518.635,1.882,1.882,0,0,0,1.155-.355A2.355,2.355,0,0,0,467.574,241.659Zm-4.04-1.989h4.053a2.46,2.46,0,0,0-.464-1.374,1.887,1.887,0,0,0-1.525-.711,1.955,1.955,0,0,0-1.425.567A2.249,2.249,0,0,0,463.534,239.67Z"/>
    <path d="M479.038,244v-1.066a2.657,2.657,0,0,1-2.3,1.23,2.941,2.941,0,0,1-1.2-.246,1.98,1.98,0,0,1-.827-.618,2.311,2.311,0,0,1-.379-.913,6.15,6.15,0,0,1-.076-1.149v-4.5h1.231v4.027a7.2,7.2,0,0,0,.075,1.3,1.285,1.285,0,0,0,.492.762,1.524,1.524,0,0,0,.93.277,2.028,2.028,0,0,0,1.039-.284,1.575,1.575,0,0,0,.687-.772,3.888,3.888,0,0,0,.2-1.419v-3.89h1.23V244Z"/>
    <path d="M484.752,242.9l.178,1.087a4.489,4.489,0,0,1-.93.11,2.111,2.111,0,0,1-1.039-.212,1.184,1.184,0,0,1-.519-.557,4.42,4.42,0,0,1-.15-1.453v-4.177h-.9v-.957h.9v-1.8l1.223-.738v2.536h1.237v.957h-1.237v4.245a2.145,2.145,0,0,0,.065.677.506.506,0,0,0,.212.239.81.81,0,0,0,.42.089A3.826,3.826,0,0,0,484.752,242.9Z"/>
    <path d="M485.962,235.391v-1.415h1.231v1.415Zm0,8.606v-7.26h1.231V244Z"/>
    <path d="M489.039,244V233.976h1.23V244Z"/>
    <path d="M492.183,235.391v-1.415h1.231v1.415Zm0,8.606v-7.26h1.231V244Z"/>
    <path d="M494.794,241.83l1.217-.191a1.7,1.7,0,0,0,.571,1.121,1.988,1.988,0,0,0,1.309.389,1.932,1.932,0,0,0,1.258-.344,1.035,1.035,0,0,0,.41-.811.749.749,0,0,0-.362-.656,5.382,5.382,0,0,0-1.258-.417,11.514,11.514,0,0,1-1.876-.591A1.79,1.79,0,0,1,495,238.665a1.867,1.867,0,0,1,.222-.9,1.981,1.981,0,0,1,.605-.688,2.516,2.516,0,0,1,.782-.358,3.691,3.691,0,0,1,1.063-.148,4.206,4.206,0,0,1,1.5.246,2.039,2.039,0,0,1,.953.667,2.6,2.6,0,0,1,.424,1.124l-1.2.164a1.32,1.32,0,0,0-.475-.875,1.741,1.741,0,0,0-1.111-.314,2.019,2.019,0,0,0-1.21.28.819.819,0,0,0-.362.656.677.677,0,0,0,.15.431,1.074,1.074,0,0,0,.472.328q.185.069,1.087.315a15.093,15.093,0,0,1,1.822.571,1.838,1.838,0,0,1,.81.646,1.8,1.8,0,0,1,.294,1.052,2.069,2.069,0,0,1-.359,1.159,2.314,2.314,0,0,1-1.036.841,3.754,3.754,0,0,1-1.531.3,3.407,3.407,0,0,1-2.157-.588A2.733,2.733,0,0,1,494.794,241.83Z"/>
    <path d="M507.024,243.1a4.589,4.589,0,0,1-1.316.82,3.79,3.79,0,0,1-1.357.239,2.638,2.638,0,0,1-1.839-.584,1.93,1.93,0,0,1-.642-1.494,2.022,2.022,0,0,1,.878-1.682,3.029,3.029,0,0,1,.885-.4,9.09,9.09,0,0,1,1.094-.185,11.208,11.208,0,0,0,2.194-.423c0-.168.007-.276.007-.322a1.359,1.359,0,0,0-.348-1.059,2.062,2.062,0,0,0-1.4-.417,2.175,2.175,0,0,0-1.282.3,1.863,1.863,0,0,0-.611,1.077l-1.2-.164a2.965,2.965,0,0,1,.54-1.247,2.352,2.352,0,0,1,1.086-.732,4.85,4.85,0,0,1,1.648-.257,4.359,4.359,0,0,1,1.511.219,1.982,1.982,0,0,1,.854.551,1.934,1.934,0,0,1,.383.837,6.913,6.913,0,0,1,.062,1.134v1.641a17.56,17.56,0,0,0,.078,2.171,2.716,2.716,0,0,0,.311.871H507.27A2.636,2.636,0,0,1,507.024,243.1Zm-.1-2.748a9,9,0,0,1-2.009.464,4.784,4.784,0,0,0-1.074.246,1.077,1.077,0,0,0-.485.4,1.086,1.086,0,0,0,.2,1.4,1.6,1.6,0,0,0,1.09.328,2.542,2.542,0,0,0,1.265-.31,1.914,1.914,0,0,0,.813-.852,2.968,2.968,0,0,0,.2-1.23Z"/>
    <path d="M512.759,242.9l.178,1.087a4.489,4.489,0,0,1-.93.11,2.109,2.109,0,0,1-1.039-.212,1.184,1.184,0,0,1-.519-.557,4.411,4.411,0,0,1-.151-1.453v-4.177h-.9v-.957h.9v-1.8l1.224-.738v2.536h1.237v.957h-1.237v4.245a2.114,2.114,0,0,0,.065.677.5.5,0,0,0,.212.239.81.81,0,0,0,.42.089A3.826,3.826,0,0,0,512.759,242.9Z"/>
    <path d="M518.932,241.659l1.272.157a3.1,3.1,0,0,1-1.115,1.73,3.777,3.777,0,0,1-4.6-.365,3.837,3.837,0,0,1-.933-2.752,4.013,4.013,0,0,1,.944-2.844,3.194,3.194,0,0,1,2.447-1.012,3.106,3.106,0,0,1,2.379.991,3.943,3.943,0,0,1,.923,2.79c0,.073,0,.182-.007.328h-5.414a2.791,2.791,0,0,0,.676,1.832,2.015,2.015,0,0,0,1.518.635,1.882,1.882,0,0,0,1.155-.355A2.355,2.355,0,0,0,518.932,241.659Zm-4.04-1.989h4.054a2.467,2.467,0,0,0-.465-1.374,1.886,1.886,0,0,0-1.524-.711,1.959,1.959,0,0,0-1.426.567A2.249,2.249,0,0,0,514.892,239.67Z"/>
    <path d="M526.506,244v-1.066a2.657,2.657,0,0,1-2.3,1.23,2.938,2.938,0,0,1-1.2-.246,1.973,1.973,0,0,1-.827-.618,2.326,2.326,0,0,1-.38-.913,6.26,6.26,0,0,1-.075-1.149v-4.5h1.231v4.027a7.2,7.2,0,0,0,.075,1.3,1.28,1.28,0,0,0,.492.762,1.524,1.524,0,0,0,.93.277,2.028,2.028,0,0,0,1.039-.284,1.575,1.575,0,0,0,.687-.772,3.891,3.891,0,0,0,.2-1.419v-3.89h1.231V244Z"/>
    <path d="M529.521,244v-7.26h1.107v1.1a3.014,3.014,0,0,1,.783-1.019,1.368,1.368,0,0,1,.79-.246,2.4,2.4,0,0,1,1.264.4l-.423,1.141a1.769,1.769,0,0,0-.9-.266,1.168,1.168,0,0,0-.724.243,1.305,1.305,0,0,0-.458.673,4.78,4.78,0,0,0-.206,1.435V244Z"/>
    <path d="M533.746,244v-1.4h1.4V244a2.491,2.491,0,0,1-.273,1.248,1.776,1.776,0,0,1-.869.734l-.341-.526a1.166,1.166,0,0,0,.574-.5,2.151,2.151,0,0,0,.2-.954Z"/>
    <path d="M410.367,258.138l1.21.157a3.142,3.142,0,0,1-1.015,1.959,2.953,2.953,0,0,1-2.006.707,3.114,3.114,0,0,1-2.4-.974,3.951,3.951,0,0,1-.906-2.793,5.05,5.05,0,0,1,.39-2.057,2.713,2.713,0,0,1,1.186-1.323,3.525,3.525,0,0,1,1.733-.441,3,3,0,0,1,1.934.6,2.736,2.736,0,0,1,.964,1.7l-1.2.184a1.989,1.989,0,0,0-.6-1.1,1.567,1.567,0,0,0-1.05-.369,1.907,1.907,0,0,0-1.51.667,3.158,3.158,0,0,0-.581,2.108,3.272,3.272,0,0,0,.56,2.126,1.821,1.821,0,0,0,1.463.663,1.721,1.721,0,0,0,1.21-.444A2.2,2.2,0,0,0,410.367,258.138Z"/>
    <path d="M412.172,257.167a3.74,3.74,0,0,1,1.121-2.987,3.381,3.381,0,0,1,2.283-.807,3.256,3.256,0,0,1,2.447.981,3.731,3.731,0,0,1,.951,2.71,4.814,4.814,0,0,1-.421,2.206,2.976,2.976,0,0,1-1.223,1.247,3.57,3.57,0,0,1-1.754.444,3.257,3.257,0,0,1-2.464-.978A3.9,3.9,0,0,1,412.172,257.167Zm1.265,0a3.092,3.092,0,0,0,.608,2.089,2.027,2.027,0,0,0,3.056,0,3.168,3.168,0,0,0,.608-2.126,3,3,0,0,0-.612-2.04,2.029,2.029,0,0,0-3.052,0A3.077,3.077,0,0,0,413.437,257.167Z"/>
    <path d="M420.416,260.8v-7.26h1.1v1.019a2.559,2.559,0,0,1,2.2-1.183,2.4,2.4,0,0,1,1.323.335,1.8,1.8,0,0,1,.728.937,2.605,2.605,0,0,1,2.242-1.272,2.2,2.2,0,0,1,1.661.6,2.554,2.554,0,0,1,.581,1.841V260.8h-1.224v-4.573a3.389,3.389,0,0,0-.119-1.063,1.035,1.035,0,0,0-.434-.523,1.359,1.359,0,0,0-.739-.2,1.716,1.716,0,0,0-1.271.51,2.238,2.238,0,0,0-.506,1.63V260.8h-1.231V256.08a2.077,2.077,0,0,0-.3-1.23,1.139,1.139,0,0,0-.985-.411,1.791,1.791,0,0,0-.96.274,1.553,1.553,0,0,0-.639.8,4.478,4.478,0,0,0-.2,1.517V260.8Z"/>
    <path d="M432.078,260.8v-7.26h1.1v1.019a2.559,2.559,0,0,1,2.2-1.183,2.4,2.4,0,0,1,1.323.335,1.8,1.8,0,0,1,.728.937,2.605,2.605,0,0,1,2.242-1.272,2.2,2.2,0,0,1,1.661.6,2.554,2.554,0,0,1,.581,1.841V260.8h-1.224v-4.573a3.389,3.389,0,0,0-.119-1.063,1.035,1.035,0,0,0-.434-.523,1.359,1.359,0,0,0-.739-.2,1.716,1.716,0,0,0-1.271.51,2.243,2.243,0,0,0-.506,1.63V260.8h-1.23V256.08a2.069,2.069,0,0,0-.3-1.23,1.139,1.139,0,0,0-.985-.411,1.791,1.791,0,0,0-.96.274,1.553,1.553,0,0,0-.639.8,4.507,4.507,0,0,0-.2,1.517V260.8Z"/>
    <path d="M448.5,260.8V259.73a2.656,2.656,0,0,1-2.3,1.231,2.933,2.933,0,0,1-1.2-.246,1.983,1.983,0,0,1-.828-.618,2.326,2.326,0,0,1-.379-.913,6.268,6.268,0,0,1-.075-1.149v-4.5h1.23v4.026a7.059,7.059,0,0,0,.076,1.3,1.278,1.278,0,0,0,.492.763,1.519,1.519,0,0,0,.929.276,2.022,2.022,0,0,0,1.039-.283,1.582,1.582,0,0,0,.688-.772,3.891,3.891,0,0,0,.2-1.419v-3.89H449.6v7.26Z"/>
    <path d="M451.526,260.8v-7.26h1.108v1.032a2.61,2.61,0,0,1,2.31-1.2,3.036,3.036,0,0,1,1.207.236,1.91,1.91,0,0,1,.824.619,2.361,2.361,0,0,1,.382.909,6.984,6.984,0,0,1,.069,1.2V260.8H456.2v-4.416a3.332,3.332,0,0,0-.143-1.124,1.182,1.182,0,0,0-.51-.595,1.616,1.616,0,0,0-.857-.223,2,2,0,0,0-1.357.5,2.461,2.461,0,0,0-.571,1.894V260.8Z"/>
    <path d="M464.05,259.9a4.572,4.572,0,0,1-1.316.821,3.79,3.79,0,0,1-1.357.239,2.638,2.638,0,0,1-1.839-.584,1.931,1.931,0,0,1-.642-1.494,1.993,1.993,0,0,1,.242-.974,2.016,2.016,0,0,1,.636-.708,3,3,0,0,1,.885-.4,8.892,8.892,0,0,1,1.094-.185,11.118,11.118,0,0,0,2.194-.424c0-.168.007-.275.007-.321a1.355,1.355,0,0,0-.349-1.059,2.057,2.057,0,0,0-1.4-.417,2.173,2.173,0,0,0-1.282.3,1.854,1.854,0,0,0-.611,1.076l-1.2-.164a3,3,0,0,1,.54-1.247,2.367,2.367,0,0,1,1.087-.731,4.846,4.846,0,0,1,1.648-.257,4.363,4.363,0,0,1,1.511.219,1.982,1.982,0,0,1,.854.551,1.935,1.935,0,0,1,.383.836,6.953,6.953,0,0,1,.061,1.135v1.641a17.49,17.49,0,0,0,.079,2.171,2.716,2.716,0,0,0,.311.871H464.3A2.59,2.59,0,0,1,464.05,259.9Zm-.1-2.748a8.952,8.952,0,0,1-2.009.465,4.674,4.674,0,0,0-1.074.246,1.077,1.077,0,0,0-.485.4,1.086,1.086,0,0,0,.2,1.4,1.6,1.6,0,0,0,1.09.328,2.544,2.544,0,0,0,1.265-.31,1.919,1.919,0,0,0,.813-.852,2.973,2.973,0,0,0,.2-1.231Z"/>
    <path d="M471.856,260.8V259.73a2.655,2.655,0,0,1-2.3,1.231,2.941,2.941,0,0,1-1.2-.246,1.973,1.973,0,0,1-.827-.618,2.326,2.326,0,0,1-.38-.913,6.268,6.268,0,0,1-.075-1.149v-4.5H468.3v4.026a7.183,7.183,0,0,0,.075,1.3,1.287,1.287,0,0,0,.492.763,1.524,1.524,0,0,0,.93.276,2.027,2.027,0,0,0,1.039-.283,1.575,1.575,0,0,0,.687-.772,3.888,3.888,0,0,0,.2-1.419v-3.89h1.23v7.26Z"/>
    <path d="M477.571,259.7l.178,1.087a4.558,4.558,0,0,1-.93.11,2.109,2.109,0,0,1-1.039-.212,1.184,1.184,0,0,1-.519-.557,4.411,4.411,0,0,1-.151-1.453v-4.177h-.9v-.957h.9v-1.8l1.224-.738v2.536h1.237v.957h-1.237v4.245a2.118,2.118,0,0,0,.065.677.5.5,0,0,0,.212.239.81.81,0,0,0,.42.089A3.826,3.826,0,0,0,477.571,259.7Z"/>
    <path d="M483.744,258.459l1.272.157a3.1,3.1,0,0,1-1.115,1.73,3.775,3.775,0,0,1-4.6-.366,3.833,3.833,0,0,1-.933-2.751,4.013,4.013,0,0,1,.944-2.844,3.194,3.194,0,0,1,2.447-1.012,3.106,3.106,0,0,1,2.379.991,3.941,3.941,0,0,1,.923,2.789c0,.074,0,.183-.007.328h-5.414a2.782,2.782,0,0,0,.677,1.832,2.012,2.012,0,0,0,1.517.636,1.88,1.88,0,0,0,1.155-.355A2.36,2.36,0,0,0,483.744,258.459Zm-4.04-1.989h4.054a2.461,2.461,0,0,0-.465-1.374,1.886,1.886,0,0,0-1.524-.711,1.959,1.959,0,0,0-1.426.567A2.249,2.249,0,0,0,479.7,256.47Zm1.326-3.835.909-1.914h1.614l-1.5,1.914Z"/>
    <path d="M486.068,258.63l1.217-.192a1.7,1.7,0,0,0,.571,1.122,1.992,1.992,0,0,0,1.309.389,1.926,1.926,0,0,0,1.258-.345,1.033,1.033,0,0,0,.41-.81.749.749,0,0,0-.362-.656,5.333,5.333,0,0,0-1.258-.417,11.569,11.569,0,0,1-1.877-.591,1.792,1.792,0,0,1-1.063-1.665,1.874,1.874,0,0,1,.223-.9,1.987,1.987,0,0,1,.605-.687,2.516,2.516,0,0,1,.782-.358,3.691,3.691,0,0,1,1.063-.148,4.206,4.206,0,0,1,1.5.246,2.044,2.044,0,0,1,.953.667,2.6,2.6,0,0,1,.424,1.124l-1.2.164a1.32,1.32,0,0,0-.475-.875,1.741,1.741,0,0,0-1.111-.314,2.019,2.019,0,0,0-1.21.28.816.816,0,0,0-.362.656.679.679,0,0,0,.15.431,1.074,1.074,0,0,0,.472.328c.123.046.485.15,1.087.315a14.97,14.97,0,0,1,1.822.571,1.843,1.843,0,0,1,.81.645,1.808,1.808,0,0,1,.294,1.053,2.069,2.069,0,0,1-.359,1.159,2.314,2.314,0,0,1-1.036.841,3.771,3.771,0,0,1-1.531.3,3.407,3.407,0,0,1-2.157-.588A2.738,2.738,0,0,1,486.068,258.63Z"/>
    <path d="M502.16,260.8v-.916a2.256,2.256,0,0,1-2.03,1.08,2.838,2.838,0,0,1-1.6-.479,3.131,3.131,0,0,1-1.128-1.336,4.612,4.612,0,0,1-.4-1.972,5.15,5.15,0,0,1,.362-1.972,2.855,2.855,0,0,1,1.087-1.357,2.9,2.9,0,0,1,1.62-.472,2.422,2.422,0,0,1,2,1v-3.6H503.3V260.8Zm-3.889-3.623a3.152,3.152,0,0,0,.587,2.085,1.771,1.771,0,0,0,1.388.69,1.742,1.742,0,0,0,1.371-.659,3.043,3.043,0,0,0,.564-2.014,3.412,3.412,0,0,0-.575-2.187,1.764,1.764,0,0,0-1.415-.7,1.7,1.7,0,0,0-1.37.67A3.307,3.307,0,0,0,498.271,257.174Z"/>
    <path d="M505.243,254.323l-.314-1.873v-1.675h1.4v1.675L506,254.323Z"/>
    <path d="M512.646,259.9a4.555,4.555,0,0,1-1.315.821,3.794,3.794,0,0,1-1.357.239,2.636,2.636,0,0,1-1.839-.584,1.932,1.932,0,0,1-.643-1.494,2.026,2.026,0,0,1,.879-1.682,3,3,0,0,1,.885-.4,8.892,8.892,0,0,1,1.094-.185,11.134,11.134,0,0,0,2.194-.424c0-.168.007-.275.007-.321a1.355,1.355,0,0,0-.349-1.059,2.059,2.059,0,0,0-1.4-.417,2.173,2.173,0,0,0-1.282.3,1.86,1.86,0,0,0-.612,1.076l-1.2-.164a2.989,2.989,0,0,1,.54-1.247,2.367,2.367,0,0,1,1.087-.731,4.846,4.846,0,0,1,1.648-.257,4.353,4.353,0,0,1,1.51.219,1.986,1.986,0,0,1,.855.551,1.935,1.935,0,0,1,.383.836,6.953,6.953,0,0,1,.061,1.135v1.641a17.281,17.281,0,0,0,.079,2.171,2.716,2.716,0,0,0,.311.871h-1.285A2.612,2.612,0,0,1,512.646,259.9Zm-.1-2.748a8.964,8.964,0,0,1-2.01.465,4.649,4.649,0,0,0-1.073.246,1.066,1.066,0,0,0-.485.4,1.087,1.087,0,0,0,.2,1.4,1.6,1.6,0,0,0,1.091.328,2.538,2.538,0,0,0,1.264-.31,1.927,1.927,0,0,0,.814-.852,2.973,2.973,0,0,0,.2-1.231Z"/>
    <path d="M515.7,252.19v-1.415h1.231v1.415Zm0,8.607v-7.26h1.231v7.26Z"/>
    <path d="M523.516,260.8v-.916a2.258,2.258,0,0,1-2.031,1.08,2.842,2.842,0,0,1-1.6-.479,3.145,3.145,0,0,1-1.128-1.336,4.627,4.627,0,0,1-.4-1.972,5.15,5.15,0,0,1,.363-1.972,2.849,2.849,0,0,1,1.087-1.357,2.9,2.9,0,0,1,1.62-.472,2.43,2.43,0,0,1,1.169.277,2.466,2.466,0,0,1,.834.721v-3.6h1.223V260.8Zm-3.89-3.623a3.151,3.151,0,0,0,.588,2.085,1.77,1.77,0,0,0,1.388.69,1.742,1.742,0,0,0,1.37-.659,3.043,3.043,0,0,0,.564-2.014,3.413,3.413,0,0,0-.574-2.187,1.766,1.766,0,0,0-1.415-.7,1.7,1.7,0,0,0-1.371.67A3.313,3.313,0,0,0,519.626,257.174Z"/>
    <path d="M531.562,258.459l1.271.157a3.106,3.106,0,0,1-1.114,1.73,3.775,3.775,0,0,1-4.6-.366,3.833,3.833,0,0,1-.933-2.751,4.013,4.013,0,0,1,.943-2.844,3.2,3.2,0,0,1,2.447-1.012,3.106,3.106,0,0,1,2.379.991,3.941,3.941,0,0,1,.923,2.789c0,.074,0,.183-.007.328h-5.414a2.787,2.787,0,0,0,.677,1.832,2.015,2.015,0,0,0,1.517.636,1.883,1.883,0,0,0,1.156-.355A2.36,2.36,0,0,0,531.562,258.459Zm-4.041-1.989h4.054a2.446,2.446,0,0,0-.465-1.374,1.886,1.886,0,0,0-1.524-.711,1.955,1.955,0,0,0-1.425.567A2.25,2.25,0,0,0,527.521,256.47Z"/>
    <path d="M428.5,275.26l1.271.157a3.1,3.1,0,0,1-1.114,1.729,3.771,3.771,0,0,1-4.6-.366,3.831,3.831,0,0,1-.933-2.751,4.012,4.012,0,0,1,.943-2.843,3.193,3.193,0,0,1,2.448-1.012,3.105,3.105,0,0,1,2.379.991,3.937,3.937,0,0,1,.922,2.789c0,.072,0,.182-.006.328H424.4a2.791,2.791,0,0,0,.676,1.832,2.016,2.016,0,0,0,1.518.636,1.888,1.888,0,0,0,1.155-.355A2.369,2.369,0,0,0,428.5,275.26Zm-4.04-1.989h4.054a2.462,2.462,0,0,0-.465-1.375,1.885,1.885,0,0,0-1.525-.71,1.951,1.951,0,0,0-1.425.567A2.245,2.245,0,0,0,424.463,273.271Z"/>
    <path d="M434.006,276.5l.178,1.087a4.639,4.639,0,0,1-.93.109,2.106,2.106,0,0,1-1.039-.212,1.186,1.186,0,0,1-.52-.557,4.412,4.412,0,0,1-.15-1.452V271.3h-.9v-.957h.9v-1.8l1.224-.738v2.536h1.237v.957h-1.237v4.245a2.169,2.169,0,0,0,.064.677.526.526,0,0,0,.212.239.827.827,0,0,0,.421.089A4.153,4.153,0,0,0,434.006,276.5Z"/>
    <path d="M443.809,277.6v-.916a2.262,2.262,0,0,1-2.031,1.08,2.848,2.848,0,0,1-1.6-.479,3.147,3.147,0,0,1-1.128-1.337,4.622,4.622,0,0,1-.4-1.971,5.159,5.159,0,0,1,.363-1.973,2.851,2.851,0,0,1,1.087-1.356,2.9,2.9,0,0,1,1.62-.472,2.429,2.429,0,0,1,1.169.276,2.458,2.458,0,0,1,.834.722v-3.6h1.223V277.6Zm-3.89-3.623a3.155,3.155,0,0,0,.588,2.085,1.773,1.773,0,0,0,1.388.69,1.74,1.74,0,0,0,1.37-.66,3.042,3.042,0,0,0,.564-2.013,3.409,3.409,0,0,0-.574-2.187,1.767,1.767,0,0,0-1.415-.7,1.7,1.7,0,0,0-1.371.67A3.314,3.314,0,0,0,439.919,273.975Z"/>
    <path d="M446.892,271.124l-.315-1.873v-1.675h1.4v1.675l-.329,1.873Z"/>
    <path d="M454.315,277.6v-1.067a2.656,2.656,0,0,1-2.3,1.231,2.938,2.938,0,0,1-1.2-.246,1.96,1.96,0,0,1-.827-.62,2.315,2.315,0,0,1-.38-.912,6.27,6.27,0,0,1-.075-1.148v-4.5h1.231v4.026a7.2,7.2,0,0,0,.075,1.3,1.291,1.291,0,0,0,.492.762,1.531,1.531,0,0,0,.93.277,2.028,2.028,0,0,0,1.039-.284,1.571,1.571,0,0,0,.687-.772,3.885,3.885,0,0,0,.2-1.418v-3.89h1.23v7.26Z"/>
    <path d="M460.03,276.5l.178,1.087a4.623,4.623,0,0,1-.93.109,2.109,2.109,0,0,1-1.039-.212,1.184,1.184,0,0,1-.519-.557,4.4,4.4,0,0,1-.151-1.452V271.3h-.9v-.957h.9v-1.8l1.224-.738v2.536h1.237v.957h-1.237v4.245a2.127,2.127,0,0,0,.065.677.52.52,0,0,0,.212.239.82.82,0,0,0,.42.089A4.153,4.153,0,0,0,460.03,276.5Z"/>
    <path d="M461.24,268.991v-1.415h1.231v1.415Zm0,8.607v-7.26h1.231v7.26Z"/>
    <path d="M464.316,277.6V267.576h1.231V277.6Z"/>
    <path d="M467.461,268.991v-1.415h1.23v1.415Zm0,8.607v-7.26h1.23v7.26Z"/>
    <path d="M470.072,275.431l1.217-.192a1.7,1.7,0,0,0,.571,1.121,1.987,1.987,0,0,0,1.309.39,1.92,1.92,0,0,0,1.258-.346,1.031,1.031,0,0,0,.41-.809.749.749,0,0,0-.362-.657,5.333,5.333,0,0,0-1.258-.417,11.434,11.434,0,0,1-1.877-.591,1.792,1.792,0,0,1-1.063-1.664,1.875,1.875,0,0,1,.223-.9,1.972,1.972,0,0,1,.6-.686,2.556,2.556,0,0,1,.783-.36,3.761,3.761,0,0,1,1.063-.146,4.206,4.206,0,0,1,1.5.246,2.043,2.043,0,0,1,.953.666,2.61,2.61,0,0,1,.424,1.125l-1.2.164a1.315,1.315,0,0,0-.475-.875,1.735,1.735,0,0,0-1.111-.314,2,2,0,0,0-1.21.28.812.812,0,0,0-.362.656.683.683,0,0,0,.15.431,1.09,1.09,0,0,0,.472.328q.185.067,1.087.314a15.344,15.344,0,0,1,1.822.571,1.845,1.845,0,0,1,.81.646,1.808,1.808,0,0,1,.294,1.053,2.065,2.065,0,0,1-.359,1.158,2.326,2.326,0,0,1-1.036.841,3.771,3.771,0,0,1-1.531.3,3.418,3.418,0,0,1-2.157-.588A2.738,2.738,0,0,1,470.072,275.431Z"/>
    <path d="M482.3,276.7a4.611,4.611,0,0,1-1.316.82,3.794,3.794,0,0,1-1.357.24,2.643,2.643,0,0,1-1.839-.585,1.932,1.932,0,0,1-.643-1.493,2.023,2.023,0,0,1,.879-1.682,2.953,2.953,0,0,1,.885-.4,8.52,8.52,0,0,1,1.094-.185,11.269,11.269,0,0,0,2.194-.424c0-.169.007-.276.007-.321a1.356,1.356,0,0,0-.349-1.06,2.057,2.057,0,0,0-1.4-.417,2.18,2.18,0,0,0-1.282.3,1.857,1.857,0,0,0-.611,1.077l-1.2-.164a3.007,3.007,0,0,1,.54-1.248,2.375,2.375,0,0,1,1.087-.731,4.847,4.847,0,0,1,1.648-.256,4.339,4.339,0,0,1,1.511.219,1.99,1.99,0,0,1,.854.549,1.944,1.944,0,0,1,.383.838,6.945,6.945,0,0,1,.061,1.135v1.641a17.47,17.47,0,0,0,.079,2.17,2.738,2.738,0,0,0,.311.872h-1.285A2.6,2.6,0,0,1,482.3,276.7Zm-.1-2.748a9.062,9.062,0,0,1-2.01.465,4.571,4.571,0,0,0-1.073.246,1.079,1.079,0,0,0-.485.4,1.089,1.089,0,0,0,.2,1.406,1.6,1.6,0,0,0,1.09.328,2.535,2.535,0,0,0,1.265-.312,1.915,1.915,0,0,0,.813-.85,2.983,2.983,0,0,0,.2-1.231Z"/>
    <path d="M488.037,276.5l.178,1.087a4.623,4.623,0,0,1-.93.109,2.106,2.106,0,0,1-1.039-.212,1.184,1.184,0,0,1-.519-.557,4.375,4.375,0,0,1-.151-1.452V271.3h-.9v-.957h.9v-1.8l1.224-.738v2.536h1.237v.957H486.8v4.245a2.127,2.127,0,0,0,.065.677.52.52,0,0,0,.212.239.82.82,0,0,0,.42.089A4.153,4.153,0,0,0,488.037,276.5Z"/>
    <path d="M494.21,275.26l1.271.157a3.1,3.1,0,0,1-1.114,1.729,3.771,3.771,0,0,1-4.6-.366,3.831,3.831,0,0,1-.933-2.751,4.012,4.012,0,0,1,.943-2.843,3.193,3.193,0,0,1,2.448-1.012,3.105,3.105,0,0,1,2.379.991,3.937,3.937,0,0,1,.922,2.789c0,.072,0,.182-.006.328H490.1a2.791,2.791,0,0,0,.676,1.832,2.016,2.016,0,0,0,1.518.636,1.888,1.888,0,0,0,1.155-.355A2.369,2.369,0,0,0,494.21,275.26Zm-4.04-1.989h4.054a2.462,2.462,0,0,0-.465-1.375,1.885,1.885,0,0,0-1.525-.71,1.951,1.951,0,0,0-1.425.567A2.245,2.245,0,0,0,490.17,273.271Z"/>
    <path d="M501.784,277.6v-1.067a2.656,2.656,0,0,1-2.3,1.231,2.933,2.933,0,0,1-1.2-.246,1.96,1.96,0,0,1-.827-.62,2.3,2.3,0,0,1-.38-.912,6.27,6.27,0,0,1-.075-1.148v-4.5h1.23v4.026a7.074,7.074,0,0,0,.076,1.3,1.282,1.282,0,0,0,.492.762,1.527,1.527,0,0,0,.93.277,2.028,2.028,0,0,0,1.039-.284,1.581,1.581,0,0,0,.687-.772,3.889,3.889,0,0,0,.2-1.418v-3.89h1.231v7.26Z"/>
    <path d="M504.8,277.6v-7.26h1.107v1.1a3.008,3.008,0,0,1,.783-1.018,1.365,1.365,0,0,1,.79-.246,2.4,2.4,0,0,1,1.264.4l-.424,1.142a1.755,1.755,0,0,0-.9-.267,1.173,1.173,0,0,0-.725.243,1.321,1.321,0,0,0-.458.673,4.819,4.819,0,0,0-.2,1.436v3.8Z"/>
    <path d="M508.982,275.431l1.217-.192a1.7,1.7,0,0,0,.571,1.121,1.989,1.989,0,0,0,1.309.39,1.92,1.92,0,0,0,1.258-.346,1.031,1.031,0,0,0,.41-.809.749.749,0,0,0-.362-.657,5.333,5.333,0,0,0-1.258-.417,11.468,11.468,0,0,1-1.877-.591,1.794,1.794,0,0,1-1.062-1.664,1.875,1.875,0,0,1,.222-.9,1.975,1.975,0,0,1,.6-.686,2.538,2.538,0,0,1,.782-.36,3.761,3.761,0,0,1,1.063-.146,4.206,4.206,0,0,1,1.5.246,2.038,2.038,0,0,1,.953.666,2.585,2.585,0,0,1,.424,1.125l-1.2.164a1.315,1.315,0,0,0-.475-.875,1.735,1.735,0,0,0-1.111-.314,2,2,0,0,0-1.21.28.815.815,0,0,0-.362.656.683.683,0,0,0,.15.431,1.09,1.09,0,0,0,.472.328q.184.067,1.087.314a15.281,15.281,0,0,1,1.822.571,1.845,1.845,0,0,1,.81.646,1.8,1.8,0,0,1,.294,1.053,2.065,2.065,0,0,1-.359,1.158,2.321,2.321,0,0,1-1.036.841,3.771,3.771,0,0,1-1.531.3,3.419,3.419,0,0,1-2.157-.588A2.743,2.743,0,0,1,508.982,275.431Z"/>
  </g>
  <g>
    <path d="M450.412,116.994v-8.64a7.256,7.256,0,0,1,.25-1.969,3.764,3.764,0,0,1,.839-1.541,3.818,3.818,0,0,1,1.561-1,7.164,7.164,0,0,1,2.409-.35,7.268,7.268,0,0,1,2.421.35,3.809,3.809,0,0,1,1.569,1,3.766,3.766,0,0,1,.84,1.541,7.256,7.256,0,0,1,.25,1.969v8.64h-2.1v-4.92h-5.981v4.92Zm2.059-6.5h5.981v-2.2a5.605,5.605,0,0,0-.14-1.29,2.513,2.513,0,0,0-.491-1.02,2.325,2.325,0,0,0-.92-.67,3.7,3.7,0,0,0-1.43-.24,3.766,3.766,0,0,0-1.45.24,2.322,2.322,0,0,0-.919.67,2.513,2.513,0,0,0-.491,1.02,5.605,5.605,0,0,0-.14,1.29Z"/>
    <path d="M464.031,104.594a1.059,1.059,0,0,1-.34-.84,1.082,1.082,0,0,1,.34-.859,1.366,1.366,0,0,1,.94-.3q1.279,0,1.28,1.16a1.076,1.076,0,0,1-.33.84,1.634,1.634,0,0,1-1.89,0Zm-.06,12.4v-9.64h2.02v9.64Z"/>
    <path d="M477.431,116.614q-.9.222-2.06.4a13.789,13.789,0,0,1-2.12.18,6.626,6.626,0,0,1-1.78-.229,3.4,3.4,0,0,1-1.44-.82,3.966,3.966,0,0,1-.97-1.571,7.477,7.477,0,0,1-.35-2.48,6.772,6.772,0,0,1,.35-2.34,4.025,4.025,0,0,1,.95-1.52,3.473,3.473,0,0,1,1.41-.83,5.926,5.926,0,0,1,1.75-.25,7.609,7.609,0,0,1,1.11.08q.53.08,1.11.2V102.4h2.04Zm-2.02-7.62a10.609,10.609,0,0,0-1.08-.221,7.547,7.547,0,0,0-1.08-.079,2.981,2.981,0,0,0-.95.15,1.721,1.721,0,0,0-.78.541,2.8,2.8,0,0,0-.52,1.039,6.075,6.075,0,0,0-.19,1.67,7.616,7.616,0,0,0,.17,1.77,2.9,2.9,0,0,0,.49,1.1,1.6,1.6,0,0,0,.78.558,3.317,3.317,0,0,0,1.04.151,8.359,8.359,0,0,0,1.06-.07q.54-.069,1.06-.17Z"/>
    <path d="M482.191,112.754a5.017,5.017,0,0,0,.18,1.269,2.081,2.081,0,0,0,.52.911,2.249,2.249,0,0,0,.96.541,5.428,5.428,0,0,0,1.52.179c.213,0,.446-.009.7-.03s.5-.05.75-.09.48-.08.7-.12.4-.08.55-.12l.18,1.479a12.465,12.465,0,0,1-1.41.291,10.988,10.988,0,0,1-1.69.13,9.171,9.171,0,0,1-2.08-.219,3.692,3.692,0,0,1-1.6-.791,3.751,3.751,0,0,1-1.03-1.539,7.012,7.012,0,0,1-.37-2.471,7.752,7.752,0,0,1,.31-2.36,3.853,3.853,0,0,1,.89-1.55,3.345,3.345,0,0,1,1.41-.85,6.181,6.181,0,0,1,1.85-.26,4.828,4.828,0,0,1,1.76.29,3.351,3.351,0,0,1,1.23.81,3.213,3.213,0,0,1,.72,1.26,5.6,5.6,0,0,1,.23,1.66v1.58Zm4.34-1.4q0-2.779-2.06-2.78a1.934,1.934,0,0,0-1.66.7,3.856,3.856,0,0,0-.6,2.081Z"/>
  </g>
  <g>
    <path d="M466.586,220.333c-.231-3.438.874-18.388,5.018-27.361" fill="none" stroke="#000" stroke-miterlimit="10"/>
    <polygon points="474.088 197.658 473.145 197.993 471.497 193.346 466.982 195.329 466.58 194.413 472.08 191.998 474.088 197.658"/>
  </g>
  <path d="M469.072,137.295a18.989,18.989,0,0,1,7.617,1.535,19.659,19.659,0,0,1,10.389,10.389,19.666,19.666,0,0,1,0,15.234,19.659,19.659,0,0,1-10.389,10.389,19.666,19.666,0,0,1-15.234,0,19.659,19.659,0,0,1-10.389-10.389,19.654,19.654,0,0,1,0-15.234,19.659,19.659,0,0,1,10.389-10.389A18.985,18.985,0,0,1,469.072,137.295Zm0,35.893a15.9,15.9,0,0,0,6.381-1.3,16.615,16.615,0,0,0,5.2-3.51,16.4,16.4,0,0,0,3.489-5.184,16.419,16.419,0,0,0-.019-12.742,16.659,16.659,0,0,0-3.51-5.205,16.423,16.423,0,0,0-5.184-3.488,16.407,16.407,0,0,0-12.742.019,16.631,16.631,0,0,0-5.2,3.51A16.414,16.414,0,0,0,454,150.475a16.425,16.425,0,0,0,.02,12.742,16.64,16.64,0,0,0,3.509,5.2,16.411,16.411,0,0,0,5.185,3.488A15.923,15.923,0,0,0,469.072,173.188Zm-.12-29.711a12.389,12.389,0,0,1,4.626.757,8.7,8.7,0,0,1,2.991,1.895,6.843,6.843,0,0,1,1.6,2.451,7.2,7.2,0,0,1,.478,2.434,9.375,9.375,0,0,1-.279,2.453,7.361,7.361,0,0,1-.738,1.795,6.317,6.317,0,0,1-1.037,1.336,13.314,13.314,0,0,1-1.216,1.037q-.639.477-1.256.877a8.169,8.169,0,0,0-1.137.877,5.3,5.3,0,0,0-.9,1.076,3.641,3.641,0,0,0-.5,1.476h-5.3a8.247,8.247,0,0,1,.419-2.234,7.5,7.5,0,0,1,.818-1.674,8.355,8.355,0,0,1,1.036-1.277,10.137,10.137,0,0,1,1.157-1l.239-.2q.517-.44,1-.838a5.644,5.644,0,0,0,.838-.858,3.6,3.6,0,0,0,.558-1.017,3.91,3.91,0,0,0,.2-1.317,3.493,3.493,0,0,0-.878-2.631,3.382,3.382,0,0,0-2.433-.837,3.8,3.8,0,0,0-1.794.4,3.641,3.641,0,0,0-1.256,1.076,4.625,4.625,0,0,0-.738,1.6,7.706,7.706,0,0,0-.24,1.955h-5.7a11.234,11.234,0,0,1,.718-3.869,8.923,8.923,0,0,1,1.914-3.031,8.8,8.8,0,0,1,2.951-1.995A9.952,9.952,0,0,1,468.952,143.477Zm-2.672,21.455h5.3V170.2h-5.3Z" fill="#5b5d5e"/>
</svg>
